<?xml version="1.0" encoding="utf-8" standalone="no"?>
<!DOCTYPE svg PUBLIC "-//W3C//DTD SVG 1.1//EN"
  "http://www.w3.org/Graphics/SVG/1.1/DTD/svg11.dtd">
<!-- Created with matplotlib (https://matplotlib.org/) -->
<svg height="345.6pt" version="1.1" viewBox="0 0 460.8 345.6" width="460.8pt" xmlns="http://www.w3.org/2000/svg" xmlns:xlink="http://www.w3.org/1999/xlink">
 <metadata>
  <rdf:RDF xmlns:cc="http://creativecommons.org/ns#" xmlns:dc="http://purl.org/dc/elements/1.1/" xmlns:rdf="http://www.w3.org/1999/02/22-rdf-syntax-ns#">
   <cc:Work>
    <dc:type rdf:resource="http://purl.org/dc/dcmitype/StillImage"/>
    <dc:date>2022-07-20T23:27:46.140891</dc:date>
    <dc:format>image/svg+xml</dc:format>
    <dc:creator>
     <cc:Agent>
      <dc:title>Matplotlib v3.3.2, https://matplotlib.org/</dc:title>
     </cc:Agent>
    </dc:creator>
   </cc:Work>
  </rdf:RDF>
 </metadata>
 <defs>
  <style type="text/css">*{stroke-linecap:butt;stroke-linejoin:round;}</style>
 </defs>
 <g id="figure_1">
  <g id="patch_1">
   <path d="M 0 345.6 
L 460.8 345.6 
L 460.8 0 
L 0 0 
z
" style="fill:#ffffff;"/>
  </g>
  <g id="axes_1">
   <g id="patch_2">
    <path d="M 57.6 307.584 
L 414.72 307.584 
L 414.72 41.472 
L 57.6 41.472 
z
" style="fill:#ffffff;"/>
   </g>
   <g id="matplotlib.axis_1">
    <g id="xtick_1">
     <g id="line2d_1">
      <defs>
       <path d="M 0 0 
L 0 3.5 
" id="mdc25fe4f02" style="stroke:#000000;stroke-width:0.8;"/>
      </defs>
      <g>
       <use style="stroke:#000000;stroke-width:0.8;" x="62.32381" xlink:href="#mdc25fe4f02" y="307.584"/>
      </g>
     </g>
     <g id="text_1">
      <!-- 1005.0 -->
      <g transform="translate(44.828497 322.182437)scale(0.1 -0.1)">
       <defs>
        <path d="M 12.40625 8.296875 
L 28.515625 8.296875 
L 28.515625 63.921875 
L 10.984375 60.40625 
L 10.984375 69.390625 
L 28.421875 72.90625 
L 38.28125 72.90625 
L 38.28125 8.296875 
L 54.390625 8.296875 
L 54.390625 0 
L 12.40625 0 
z
" id="DejaVuSans-49"/>
        <path d="M 31.78125 66.40625 
Q 24.171875 66.40625 20.328125 58.90625 
Q 16.5 51.421875 16.5 36.375 
Q 16.5 21.390625 20.328125 13.890625 
Q 24.171875 6.390625 31.78125 6.390625 
Q 39.453125 6.390625 43.28125 13.890625 
Q 47.125 21.390625 47.125 36.375 
Q 47.125 51.421875 43.28125 58.90625 
Q 39.453125 66.40625 31.78125 66.40625 
z
M 31.78125 74.21875 
Q 44.046875 74.21875 50.515625 64.515625 
Q 56.984375 54.828125 56.984375 36.375 
Q 56.984375 17.96875 50.515625 8.265625 
Q 44.046875 -1.421875 31.78125 -1.421875 
Q 19.53125 -1.421875 13.0625 8.265625 
Q 6.59375 17.96875 6.59375 36.375 
Q 6.59375 54.828125 13.0625 64.515625 
Q 19.53125 74.21875 31.78125 74.21875 
z
" id="DejaVuSans-48"/>
        <path d="M 10.796875 72.90625 
L 49.515625 72.90625 
L 49.515625 64.59375 
L 19.828125 64.59375 
L 19.828125 46.734375 
Q 21.96875 47.46875 24.109375 47.828125 
Q 26.265625 48.1875 28.421875 48.1875 
Q 40.625 48.1875 47.75 41.5 
Q 54.890625 34.8125 54.890625 23.390625 
Q 54.890625 11.625 47.5625 5.09375 
Q 40.234375 -1.421875 26.90625 -1.421875 
Q 22.3125 -1.421875 17.546875 -0.640625 
Q 12.796875 0.140625 7.71875 1.703125 
L 7.71875 11.625 
Q 12.109375 9.234375 16.796875 8.0625 
Q 21.484375 6.890625 26.703125 6.890625 
Q 35.15625 6.890625 40.078125 11.328125 
Q 45.015625 15.765625 45.015625 23.390625 
Q 45.015625 31 40.078125 35.4375 
Q 35.15625 39.890625 26.703125 39.890625 
Q 22.75 39.890625 18.8125 39.015625 
Q 14.890625 38.140625 10.796875 36.28125 
z
" id="DejaVuSans-53"/>
        <path d="M 10.6875 12.40625 
L 21 12.40625 
L 21 0 
L 10.6875 0 
z
" id="DejaVuSans-46"/>
       </defs>
       <use xlink:href="#DejaVuSans-49"/>
       <use x="63.623047" xlink:href="#DejaVuSans-48"/>
       <use x="127.246094" xlink:href="#DejaVuSans-48"/>
       <use x="190.869141" xlink:href="#DejaVuSans-53"/>
       <use x="254.492188" xlink:href="#DejaVuSans-46"/>
       <use x="286.279297" xlink:href="#DejaVuSans-48"/>
      </g>
     </g>
    </g>
    <g id="xtick_2">
     <g id="line2d_2">
      <g>
       <use style="stroke:#000000;stroke-width:0.8;" x="105.267532" xlink:href="#mdc25fe4f02" y="307.584"/>
      </g>
     </g>
     <g id="text_2">
      <!-- 1007.5 -->
      <g transform="translate(87.77222 322.182437)scale(0.1 -0.1)">
       <defs>
        <path d="M 8.203125 72.90625 
L 55.078125 72.90625 
L 55.078125 68.703125 
L 28.609375 0 
L 18.3125 0 
L 43.21875 64.59375 
L 8.203125 64.59375 
z
" id="DejaVuSans-55"/>
       </defs>
       <use xlink:href="#DejaVuSans-49"/>
       <use x="63.623047" xlink:href="#DejaVuSans-48"/>
       <use x="127.246094" xlink:href="#DejaVuSans-48"/>
       <use x="190.869141" xlink:href="#DejaVuSans-55"/>
       <use x="254.492188" xlink:href="#DejaVuSans-46"/>
       <use x="286.279297" xlink:href="#DejaVuSans-53"/>
      </g>
     </g>
    </g>
    <g id="xtick_3">
     <g id="line2d_3">
      <g>
       <use style="stroke:#000000;stroke-width:0.8;" x="148.211255" xlink:href="#mdc25fe4f02" y="307.584"/>
      </g>
     </g>
     <g id="text_3">
      <!-- 1010.0 -->
      <g transform="translate(130.715943 322.182437)scale(0.1 -0.1)">
       <use xlink:href="#DejaVuSans-49"/>
       <use x="63.623047" xlink:href="#DejaVuSans-48"/>
       <use x="127.246094" xlink:href="#DejaVuSans-49"/>
       <use x="190.869141" xlink:href="#DejaVuSans-48"/>
       <use x="254.492188" xlink:href="#DejaVuSans-46"/>
       <use x="286.279297" xlink:href="#DejaVuSans-48"/>
      </g>
     </g>
    </g>
    <g id="xtick_4">
     <g id="line2d_4">
      <g>
       <use style="stroke:#000000;stroke-width:0.8;" x="191.154978" xlink:href="#mdc25fe4f02" y="307.584"/>
      </g>
     </g>
     <g id="text_4">
      <!-- 1012.5 -->
      <g transform="translate(173.659666 322.182437)scale(0.1 -0.1)">
       <defs>
        <path d="M 19.1875 8.296875 
L 53.609375 8.296875 
L 53.609375 0 
L 7.328125 0 
L 7.328125 8.296875 
Q 12.9375 14.109375 22.625 23.890625 
Q 32.328125 33.6875 34.8125 36.53125 
Q 39.546875 41.84375 41.421875 45.53125 
Q 43.3125 49.21875 43.3125 52.78125 
Q 43.3125 58.59375 39.234375 62.25 
Q 35.15625 65.921875 28.609375 65.921875 
Q 23.96875 65.921875 18.8125 64.3125 
Q 13.671875 62.703125 7.8125 59.421875 
L 7.8125 69.390625 
Q 13.765625 71.78125 18.9375 73 
Q 24.125 74.21875 28.421875 74.21875 
Q 39.75 74.21875 46.484375 68.546875 
Q 53.21875 62.890625 53.21875 53.421875 
Q 53.21875 48.921875 51.53125 44.890625 
Q 49.859375 40.875 45.40625 35.40625 
Q 44.1875 33.984375 37.640625 27.21875 
Q 31.109375 20.453125 19.1875 8.296875 
z
" id="DejaVuSans-50"/>
       </defs>
       <use xlink:href="#DejaVuSans-49"/>
       <use x="63.623047" xlink:href="#DejaVuSans-48"/>
       <use x="127.246094" xlink:href="#DejaVuSans-49"/>
       <use x="190.869141" xlink:href="#DejaVuSans-50"/>
       <use x="254.492188" xlink:href="#DejaVuSans-46"/>
       <use x="286.279297" xlink:href="#DejaVuSans-53"/>
      </g>
     </g>
    </g>
    <g id="xtick_5">
     <g id="line2d_5">
      <g>
       <use style="stroke:#000000;stroke-width:0.8;" x="234.098701" xlink:href="#mdc25fe4f02" y="307.584"/>
      </g>
     </g>
     <g id="text_5">
      <!-- 1015.0 -->
      <g transform="translate(216.603389 322.182437)scale(0.1 -0.1)">
       <use xlink:href="#DejaVuSans-49"/>
       <use x="63.623047" xlink:href="#DejaVuSans-48"/>
       <use x="127.246094" xlink:href="#DejaVuSans-49"/>
       <use x="190.869141" xlink:href="#DejaVuSans-53"/>
       <use x="254.492188" xlink:href="#DejaVuSans-46"/>
       <use x="286.279297" xlink:href="#DejaVuSans-48"/>
      </g>
     </g>
    </g>
    <g id="xtick_6">
     <g id="line2d_6">
      <g>
       <use style="stroke:#000000;stroke-width:0.8;" x="277.042424" xlink:href="#mdc25fe4f02" y="307.584"/>
      </g>
     </g>
     <g id="text_6">
      <!-- 1017.5 -->
      <g transform="translate(259.547112 322.182437)scale(0.1 -0.1)">
       <use xlink:href="#DejaVuSans-49"/>
       <use x="63.623047" xlink:href="#DejaVuSans-48"/>
       <use x="127.246094" xlink:href="#DejaVuSans-49"/>
       <use x="190.869141" xlink:href="#DejaVuSans-55"/>
       <use x="254.492188" xlink:href="#DejaVuSans-46"/>
       <use x="286.279297" xlink:href="#DejaVuSans-53"/>
      </g>
     </g>
    </g>
    <g id="xtick_7">
     <g id="line2d_7">
      <g>
       <use style="stroke:#000000;stroke-width:0.8;" x="319.986147" xlink:href="#mdc25fe4f02" y="307.584"/>
      </g>
     </g>
     <g id="text_7">
      <!-- 1020.0 -->
      <g transform="translate(302.490835 322.182437)scale(0.1 -0.1)">
       <use xlink:href="#DejaVuSans-49"/>
       <use x="63.623047" xlink:href="#DejaVuSans-48"/>
       <use x="127.246094" xlink:href="#DejaVuSans-50"/>
       <use x="190.869141" xlink:href="#DejaVuSans-48"/>
       <use x="254.492188" xlink:href="#DejaVuSans-46"/>
       <use x="286.279297" xlink:href="#DejaVuSans-48"/>
      </g>
     </g>
    </g>
    <g id="xtick_8">
     <g id="line2d_8">
      <g>
       <use style="stroke:#000000;stroke-width:0.8;" x="362.92987" xlink:href="#mdc25fe4f02" y="307.584"/>
      </g>
     </g>
     <g id="text_8">
      <!-- 1022.5 -->
      <g transform="translate(345.434558 322.182437)scale(0.1 -0.1)">
       <use xlink:href="#DejaVuSans-49"/>
       <use x="63.623047" xlink:href="#DejaVuSans-48"/>
       <use x="127.246094" xlink:href="#DejaVuSans-50"/>
       <use x="190.869141" xlink:href="#DejaVuSans-50"/>
       <use x="254.492188" xlink:href="#DejaVuSans-46"/>
       <use x="286.279297" xlink:href="#DejaVuSans-53"/>
      </g>
     </g>
    </g>
    <g id="xtick_9">
     <g id="line2d_9">
      <g>
       <use style="stroke:#000000;stroke-width:0.8;" x="405.873593" xlink:href="#mdc25fe4f02" y="307.584"/>
      </g>
     </g>
     <g id="text_9">
      <!-- 1025.0 -->
      <g transform="translate(388.378281 322.182437)scale(0.1 -0.1)">
       <use xlink:href="#DejaVuSans-49"/>
       <use x="63.623047" xlink:href="#DejaVuSans-48"/>
       <use x="127.246094" xlink:href="#DejaVuSans-50"/>
       <use x="190.869141" xlink:href="#DejaVuSans-53"/>
       <use x="254.492188" xlink:href="#DejaVuSans-46"/>
       <use x="286.279297" xlink:href="#DejaVuSans-48"/>
      </g>
     </g>
    </g>
    <g id="text_10">
     <!-- air_pressure from Foreca -->
     <g transform="translate(174.162344 335.860562)scale(0.1 -0.1)">
      <defs>
       <path d="M 34.28125 27.484375 
Q 23.390625 27.484375 19.1875 25 
Q 14.984375 22.515625 14.984375 16.5 
Q 14.984375 11.71875 18.140625 8.90625 
Q 21.296875 6.109375 26.703125 6.109375 
Q 34.1875 6.109375 38.703125 11.40625 
Q 43.21875 16.703125 43.21875 25.484375 
L 43.21875 27.484375 
z
M 52.203125 31.203125 
L 52.203125 0 
L 43.21875 0 
L 43.21875 8.296875 
Q 40.140625 3.328125 35.546875 0.953125 
Q 30.953125 -1.421875 24.3125 -1.421875 
Q 15.921875 -1.421875 10.953125 3.296875 
Q 6 8.015625 6 15.921875 
Q 6 25.140625 12.171875 29.828125 
Q 18.359375 34.515625 30.609375 34.515625 
L 43.21875 34.515625 
L 43.21875 35.40625 
Q 43.21875 41.609375 39.140625 45 
Q 35.0625 48.390625 27.6875 48.390625 
Q 23 48.390625 18.546875 47.265625 
Q 14.109375 46.140625 10.015625 43.890625 
L 10.015625 52.203125 
Q 14.9375 54.109375 19.578125 55.046875 
Q 24.21875 56 28.609375 56 
Q 40.484375 56 46.34375 49.84375 
Q 52.203125 43.703125 52.203125 31.203125 
z
" id="DejaVuSans-97"/>
       <path d="M 9.421875 54.6875 
L 18.40625 54.6875 
L 18.40625 0 
L 9.421875 0 
z
M 9.421875 75.984375 
L 18.40625 75.984375 
L 18.40625 64.59375 
L 9.421875 64.59375 
z
" id="DejaVuSans-105"/>
       <path d="M 41.109375 46.296875 
Q 39.59375 47.171875 37.8125 47.578125 
Q 36.03125 48 33.890625 48 
Q 26.265625 48 22.1875 43.046875 
Q 18.109375 38.09375 18.109375 28.8125 
L 18.109375 0 
L 9.078125 0 
L 9.078125 54.6875 
L 18.109375 54.6875 
L 18.109375 46.1875 
Q 20.953125 51.171875 25.484375 53.578125 
Q 30.03125 56 36.53125 56 
Q 37.453125 56 38.578125 55.875 
Q 39.703125 55.765625 41.0625 55.515625 
z
" id="DejaVuSans-114"/>
       <path d="M 50.984375 -16.609375 
L 50.984375 -23.578125 
L -0.984375 -23.578125 
L -0.984375 -16.609375 
z
" id="DejaVuSans-95"/>
       <path d="M 18.109375 8.203125 
L 18.109375 -20.796875 
L 9.078125 -20.796875 
L 9.078125 54.6875 
L 18.109375 54.6875 
L 18.109375 46.390625 
Q 20.953125 51.265625 25.265625 53.625 
Q 29.59375 56 35.59375 56 
Q 45.5625 56 51.78125 48.09375 
Q 58.015625 40.1875 58.015625 27.296875 
Q 58.015625 14.40625 51.78125 6.484375 
Q 45.5625 -1.421875 35.59375 -1.421875 
Q 29.59375 -1.421875 25.265625 0.953125 
Q 20.953125 3.328125 18.109375 8.203125 
z
M 48.6875 27.296875 
Q 48.6875 37.203125 44.609375 42.84375 
Q 40.53125 48.484375 33.40625 48.484375 
Q 26.265625 48.484375 22.1875 42.84375 
Q 18.109375 37.203125 18.109375 27.296875 
Q 18.109375 17.390625 22.1875 11.75 
Q 26.265625 6.109375 33.40625 6.109375 
Q 40.53125 6.109375 44.609375 11.75 
Q 48.6875 17.390625 48.6875 27.296875 
z
" id="DejaVuSans-112"/>
       <path d="M 56.203125 29.59375 
L 56.203125 25.203125 
L 14.890625 25.203125 
Q 15.484375 15.921875 20.484375 11.0625 
Q 25.484375 6.203125 34.421875 6.203125 
Q 39.59375 6.203125 44.453125 7.46875 
Q 49.3125 8.734375 54.109375 11.28125 
L 54.109375 2.78125 
Q 49.265625 0.734375 44.1875 -0.34375 
Q 39.109375 -1.421875 33.890625 -1.421875 
Q 20.796875 -1.421875 13.15625 6.1875 
Q 5.515625 13.8125 5.515625 26.8125 
Q 5.515625 40.234375 12.765625 48.109375 
Q 20.015625 56 32.328125 56 
Q 43.359375 56 49.78125 48.890625 
Q 56.203125 41.796875 56.203125 29.59375 
z
M 47.21875 32.234375 
Q 47.125 39.59375 43.09375 43.984375 
Q 39.0625 48.390625 32.421875 48.390625 
Q 24.90625 48.390625 20.390625 44.140625 
Q 15.875 39.890625 15.1875 32.171875 
z
" id="DejaVuSans-101"/>
       <path d="M 44.28125 53.078125 
L 44.28125 44.578125 
Q 40.484375 46.53125 36.375 47.5 
Q 32.28125 48.484375 27.875 48.484375 
Q 21.1875 48.484375 17.84375 46.4375 
Q 14.5 44.390625 14.5 40.28125 
Q 14.5 37.15625 16.890625 35.375 
Q 19.28125 33.59375 26.515625 31.984375 
L 29.59375 31.296875 
Q 39.15625 29.25 43.1875 25.515625 
Q 47.21875 21.78125 47.21875 15.09375 
Q 47.21875 7.46875 41.1875 3.015625 
Q 35.15625 -1.421875 24.609375 -1.421875 
Q 20.21875 -1.421875 15.453125 -0.5625 
Q 10.6875 0.296875 5.421875 2 
L 5.421875 11.28125 
Q 10.40625 8.6875 15.234375 7.390625 
Q 20.0625 6.109375 24.8125 6.109375 
Q 31.15625 6.109375 34.5625 8.28125 
Q 37.984375 10.453125 37.984375 14.40625 
Q 37.984375 18.0625 35.515625 20.015625 
Q 33.0625 21.96875 24.703125 23.78125 
L 21.578125 24.515625 
Q 13.234375 26.265625 9.515625 29.90625 
Q 5.8125 33.546875 5.8125 39.890625 
Q 5.8125 47.609375 11.28125 51.796875 
Q 16.75 56 26.8125 56 
Q 31.78125 56 36.171875 55.265625 
Q 40.578125 54.546875 44.28125 53.078125 
z
" id="DejaVuSans-115"/>
       <path d="M 8.5 21.578125 
L 8.5 54.6875 
L 17.484375 54.6875 
L 17.484375 21.921875 
Q 17.484375 14.15625 20.5 10.265625 
Q 23.53125 6.390625 29.59375 6.390625 
Q 36.859375 6.390625 41.078125 11.03125 
Q 45.3125 15.671875 45.3125 23.6875 
L 45.3125 54.6875 
L 54.296875 54.6875 
L 54.296875 0 
L 45.3125 0 
L 45.3125 8.40625 
Q 42.046875 3.421875 37.71875 1 
Q 33.40625 -1.421875 27.6875 -1.421875 
Q 18.265625 -1.421875 13.375 4.4375 
Q 8.5 10.296875 8.5 21.578125 
z
M 31.109375 56 
z
" id="DejaVuSans-117"/>
       <path id="DejaVuSans-32"/>
       <path d="M 37.109375 75.984375 
L 37.109375 68.5 
L 28.515625 68.5 
Q 23.6875 68.5 21.796875 66.546875 
Q 19.921875 64.59375 19.921875 59.515625 
L 19.921875 54.6875 
L 34.71875 54.6875 
L 34.71875 47.703125 
L 19.921875 47.703125 
L 19.921875 0 
L 10.890625 0 
L 10.890625 47.703125 
L 2.296875 47.703125 
L 2.296875 54.6875 
L 10.890625 54.6875 
L 10.890625 58.5 
Q 10.890625 67.625 15.140625 71.796875 
Q 19.390625 75.984375 28.609375 75.984375 
z
" id="DejaVuSans-102"/>
       <path d="M 30.609375 48.390625 
Q 23.390625 48.390625 19.1875 42.75 
Q 14.984375 37.109375 14.984375 27.296875 
Q 14.984375 17.484375 19.15625 11.84375 
Q 23.34375 6.203125 30.609375 6.203125 
Q 37.796875 6.203125 41.984375 11.859375 
Q 46.1875 17.53125 46.1875 27.296875 
Q 46.1875 37.015625 41.984375 42.703125 
Q 37.796875 48.390625 30.609375 48.390625 
z
M 30.609375 56 
Q 42.328125 56 49.015625 48.375 
Q 55.71875 40.765625 55.71875 27.296875 
Q 55.71875 13.875 49.015625 6.21875 
Q 42.328125 -1.421875 30.609375 -1.421875 
Q 18.84375 -1.421875 12.171875 6.21875 
Q 5.515625 13.875 5.515625 27.296875 
Q 5.515625 40.765625 12.171875 48.375 
Q 18.84375 56 30.609375 56 
z
" id="DejaVuSans-111"/>
       <path d="M 52 44.1875 
Q 55.375 50.25 60.0625 53.125 
Q 64.75 56 71.09375 56 
Q 79.640625 56 84.28125 50.015625 
Q 88.921875 44.046875 88.921875 33.015625 
L 88.921875 0 
L 79.890625 0 
L 79.890625 32.71875 
Q 79.890625 40.578125 77.09375 44.375 
Q 74.3125 48.1875 68.609375 48.1875 
Q 61.625 48.1875 57.5625 43.546875 
Q 53.515625 38.921875 53.515625 30.90625 
L 53.515625 0 
L 44.484375 0 
L 44.484375 32.71875 
Q 44.484375 40.625 41.703125 44.40625 
Q 38.921875 48.1875 33.109375 48.1875 
Q 26.21875 48.1875 22.15625 43.53125 
Q 18.109375 38.875 18.109375 30.90625 
L 18.109375 0 
L 9.078125 0 
L 9.078125 54.6875 
L 18.109375 54.6875 
L 18.109375 46.1875 
Q 21.1875 51.21875 25.484375 53.609375 
Q 29.78125 56 35.6875 56 
Q 41.65625 56 45.828125 52.96875 
Q 50 49.953125 52 44.1875 
z
" id="DejaVuSans-109"/>
       <path d="M 9.8125 72.90625 
L 51.703125 72.90625 
L 51.703125 64.59375 
L 19.671875 64.59375 
L 19.671875 43.109375 
L 48.578125 43.109375 
L 48.578125 34.8125 
L 19.671875 34.8125 
L 19.671875 0 
L 9.8125 0 
z
" id="DejaVuSans-70"/>
       <path d="M 48.78125 52.59375 
L 48.78125 44.1875 
Q 44.96875 46.296875 41.140625 47.34375 
Q 37.3125 48.390625 33.40625 48.390625 
Q 24.65625 48.390625 19.8125 42.84375 
Q 14.984375 37.3125 14.984375 27.296875 
Q 14.984375 17.28125 19.8125 11.734375 
Q 24.65625 6.203125 33.40625 6.203125 
Q 37.3125 6.203125 41.140625 7.25 
Q 44.96875 8.296875 48.78125 10.40625 
L 48.78125 2.09375 
Q 45.015625 0.34375 40.984375 -0.53125 
Q 36.96875 -1.421875 32.421875 -1.421875 
Q 20.0625 -1.421875 12.78125 6.34375 
Q 5.515625 14.109375 5.515625 27.296875 
Q 5.515625 40.671875 12.859375 48.328125 
Q 20.21875 56 33.015625 56 
Q 37.15625 56 41.109375 55.140625 
Q 45.0625 54.296875 48.78125 52.59375 
z
" id="DejaVuSans-99"/>
      </defs>
      <use xlink:href="#DejaVuSans-97"/>
      <use x="61.279297" xlink:href="#DejaVuSans-105"/>
      <use x="89.0625" xlink:href="#DejaVuSans-114"/>
      <use x="130.175781" xlink:href="#DejaVuSans-95"/>
      <use x="180.175781" xlink:href="#DejaVuSans-112"/>
      <use x="243.652344" xlink:href="#DejaVuSans-114"/>
      <use x="282.515625" xlink:href="#DejaVuSans-101"/>
      <use x="344.039062" xlink:href="#DejaVuSans-115"/>
      <use x="396.138672" xlink:href="#DejaVuSans-115"/>
      <use x="448.238281" xlink:href="#DejaVuSans-117"/>
      <use x="511.617188" xlink:href="#DejaVuSans-114"/>
      <use x="550.480469" xlink:href="#DejaVuSans-101"/>
      <use x="612.003906" xlink:href="#DejaVuSans-32"/>
      <use x="643.791016" xlink:href="#DejaVuSans-102"/>
      <use x="678.996094" xlink:href="#DejaVuSans-114"/>
      <use x="717.859375" xlink:href="#DejaVuSans-111"/>
      <use x="779.041016" xlink:href="#DejaVuSans-109"/>
      <use x="876.453125" xlink:href="#DejaVuSans-32"/>
      <use x="908.240234" xlink:href="#DejaVuSans-70"/>
      <use x="962.134766" xlink:href="#DejaVuSans-111"/>
      <use x="1023.316406" xlink:href="#DejaVuSans-114"/>
      <use x="1062.179688" xlink:href="#DejaVuSans-101"/>
      <use x="1123.703125" xlink:href="#DejaVuSans-99"/>
      <use x="1178.683594" xlink:href="#DejaVuSans-97"/>
     </g>
    </g>
   </g>
   <g id="matplotlib.axis_2">
    <g id="ytick_1">
     <g id="line2d_10">
      <defs>
       <path d="M 0 0 
L -3.5 0 
" id="m9bb0a83b1e" style="stroke:#000000;stroke-width:0.8;"/>
      </defs>
      <g>
       <use style="stroke:#000000;stroke-width:0.8;" x="57.6" xlink:href="#m9bb0a83b1e" y="296.426337"/>
      </g>
     </g>
     <g id="text_11">
      <!-- 0.0 -->
      <g transform="translate(34.696875 300.225555)scale(0.1 -0.1)">
       <use xlink:href="#DejaVuSans-48"/>
       <use x="63.623047" xlink:href="#DejaVuSans-46"/>
       <use x="95.410156" xlink:href="#DejaVuSans-48"/>
      </g>
     </g>
    </g>
    <g id="ytick_2">
     <g id="line2d_11">
      <g>
       <use style="stroke:#000000;stroke-width:0.8;" x="57.6" xlink:href="#m9bb0a83b1e" y="264.021249"/>
      </g>
     </g>
     <g id="text_12">
      <!-- 0.2 -->
      <g transform="translate(34.696875 267.820467)scale(0.1 -0.1)">
       <use xlink:href="#DejaVuSans-48"/>
       <use x="63.623047" xlink:href="#DejaVuSans-46"/>
       <use x="95.410156" xlink:href="#DejaVuSans-50"/>
      </g>
     </g>
    </g>
    <g id="ytick_3">
     <g id="line2d_12">
      <g>
       <use style="stroke:#000000;stroke-width:0.8;" x="57.6" xlink:href="#m9bb0a83b1e" y="231.616161"/>
      </g>
     </g>
     <g id="text_13">
      <!-- 0.4 -->
      <g transform="translate(34.696875 235.41538)scale(0.1 -0.1)">
       <defs>
        <path d="M 37.796875 64.3125 
L 12.890625 25.390625 
L 37.796875 25.390625 
z
M 35.203125 72.90625 
L 47.609375 72.90625 
L 47.609375 25.390625 
L 58.015625 25.390625 
L 58.015625 17.1875 
L 47.609375 17.1875 
L 47.609375 0 
L 37.796875 0 
L 37.796875 17.1875 
L 4.890625 17.1875 
L 4.890625 26.703125 
z
" id="DejaVuSans-52"/>
       </defs>
       <use xlink:href="#DejaVuSans-48"/>
       <use x="63.623047" xlink:href="#DejaVuSans-46"/>
       <use x="95.410156" xlink:href="#DejaVuSans-52"/>
      </g>
     </g>
    </g>
    <g id="ytick_4">
     <g id="line2d_13">
      <g>
       <use style="stroke:#000000;stroke-width:0.8;" x="57.6" xlink:href="#m9bb0a83b1e" y="199.211073"/>
      </g>
     </g>
     <g id="text_14">
      <!-- 0.6 -->
      <g transform="translate(34.696875 203.010292)scale(0.1 -0.1)">
       <defs>
        <path d="M 33.015625 40.375 
Q 26.375 40.375 22.484375 35.828125 
Q 18.609375 31.296875 18.609375 23.390625 
Q 18.609375 15.53125 22.484375 10.953125 
Q 26.375 6.390625 33.015625 6.390625 
Q 39.65625 6.390625 43.53125 10.953125 
Q 47.40625 15.53125 47.40625 23.390625 
Q 47.40625 31.296875 43.53125 35.828125 
Q 39.65625 40.375 33.015625 40.375 
z
M 52.59375 71.296875 
L 52.59375 62.3125 
Q 48.875 64.0625 45.09375 64.984375 
Q 41.3125 65.921875 37.59375 65.921875 
Q 27.828125 65.921875 22.671875 59.328125 
Q 17.53125 52.734375 16.796875 39.40625 
Q 19.671875 43.65625 24.015625 45.921875 
Q 28.375 48.1875 33.59375 48.1875 
Q 44.578125 48.1875 50.953125 41.515625 
Q 57.328125 34.859375 57.328125 23.390625 
Q 57.328125 12.15625 50.6875 5.359375 
Q 44.046875 -1.421875 33.015625 -1.421875 
Q 20.359375 -1.421875 13.671875 8.265625 
Q 6.984375 17.96875 6.984375 36.375 
Q 6.984375 53.65625 15.1875 63.9375 
Q 23.390625 74.21875 37.203125 74.21875 
Q 40.921875 74.21875 44.703125 73.484375 
Q 48.484375 72.75 52.59375 71.296875 
z
" id="DejaVuSans-54"/>
       </defs>
       <use xlink:href="#DejaVuSans-48"/>
       <use x="63.623047" xlink:href="#DejaVuSans-46"/>
       <use x="95.410156" xlink:href="#DejaVuSans-54"/>
      </g>
     </g>
    </g>
    <g id="ytick_5">
     <g id="line2d_14">
      <g>
       <use style="stroke:#000000;stroke-width:0.8;" x="57.6" xlink:href="#m9bb0a83b1e" y="166.805985"/>
      </g>
     </g>
     <g id="text_15">
      <!-- 0.8 -->
      <g transform="translate(34.696875 170.605204)scale(0.1 -0.1)">
       <defs>
        <path d="M 31.78125 34.625 
Q 24.75 34.625 20.71875 30.859375 
Q 16.703125 27.09375 16.703125 20.515625 
Q 16.703125 13.921875 20.71875 10.15625 
Q 24.75 6.390625 31.78125 6.390625 
Q 38.8125 6.390625 42.859375 10.171875 
Q 46.921875 13.96875 46.921875 20.515625 
Q 46.921875 27.09375 42.890625 30.859375 
Q 38.875 34.625 31.78125 34.625 
z
M 21.921875 38.8125 
Q 15.578125 40.375 12.03125 44.71875 
Q 8.5 49.078125 8.5 55.328125 
Q 8.5 64.0625 14.71875 69.140625 
Q 20.953125 74.21875 31.78125 74.21875 
Q 42.671875 74.21875 48.875 69.140625 
Q 55.078125 64.0625 55.078125 55.328125 
Q 55.078125 49.078125 51.53125 44.71875 
Q 48 40.375 41.703125 38.8125 
Q 48.828125 37.15625 52.796875 32.3125 
Q 56.78125 27.484375 56.78125 20.515625 
Q 56.78125 9.90625 50.3125 4.234375 
Q 43.84375 -1.421875 31.78125 -1.421875 
Q 19.734375 -1.421875 13.25 4.234375 
Q 6.78125 9.90625 6.78125 20.515625 
Q 6.78125 27.484375 10.78125 32.3125 
Q 14.796875 37.15625 21.921875 38.8125 
z
M 18.3125 54.390625 
Q 18.3125 48.734375 21.84375 45.5625 
Q 25.390625 42.390625 31.78125 42.390625 
Q 38.140625 42.390625 41.71875 45.5625 
Q 45.3125 48.734375 45.3125 54.390625 
Q 45.3125 60.0625 41.71875 63.234375 
Q 38.140625 66.40625 31.78125 66.40625 
Q 25.390625 66.40625 21.84375 63.234375 
Q 18.3125 60.0625 18.3125 54.390625 
z
" id="DejaVuSans-56"/>
       </defs>
       <use xlink:href="#DejaVuSans-48"/>
       <use x="63.623047" xlink:href="#DejaVuSans-46"/>
       <use x="95.410156" xlink:href="#DejaVuSans-56"/>
      </g>
     </g>
    </g>
    <g id="ytick_6">
     <g id="line2d_15">
      <g>
       <use style="stroke:#000000;stroke-width:0.8;" x="57.6" xlink:href="#m9bb0a83b1e" y="134.400897"/>
      </g>
     </g>
     <g id="text_16">
      <!-- 1.0 -->
      <g transform="translate(34.696875 138.200116)scale(0.1 -0.1)">
       <use xlink:href="#DejaVuSans-49"/>
       <use x="63.623047" xlink:href="#DejaVuSans-46"/>
       <use x="95.410156" xlink:href="#DejaVuSans-48"/>
      </g>
     </g>
    </g>
    <g id="ytick_7">
     <g id="line2d_16">
      <g>
       <use style="stroke:#000000;stroke-width:0.8;" x="57.6" xlink:href="#m9bb0a83b1e" y="101.995809"/>
      </g>
     </g>
     <g id="text_17">
      <!-- 1.2 -->
      <g transform="translate(34.696875 105.795028)scale(0.1 -0.1)">
       <use xlink:href="#DejaVuSans-49"/>
       <use x="63.623047" xlink:href="#DejaVuSans-46"/>
       <use x="95.410156" xlink:href="#DejaVuSans-50"/>
      </g>
     </g>
    </g>
    <g id="ytick_8">
     <g id="line2d_17">
      <g>
       <use style="stroke:#000000;stroke-width:0.8;" x="57.6" xlink:href="#m9bb0a83b1e" y="69.590721"/>
      </g>
     </g>
     <g id="text_18">
      <!-- 1.4 -->
      <g transform="translate(34.696875 73.38994)scale(0.1 -0.1)">
       <use xlink:href="#DejaVuSans-49"/>
       <use x="63.623047" xlink:href="#DejaVuSans-46"/>
       <use x="95.410156" xlink:href="#DejaVuSans-52"/>
      </g>
     </g>
    </g>
    <g id="text_19">
     <!-- Throughput_night[Bit/s] -->
     <g transform="translate(28.339062 233.899094)rotate(-90)scale(0.1 -0.1)">
      <defs>
       <path d="M -0.296875 72.90625 
L 61.375 72.90625 
L 61.375 64.59375 
L 35.5 64.59375 
L 35.5 0 
L 25.59375 0 
L 25.59375 64.59375 
L -0.296875 64.59375 
z
" id="DejaVuSans-84"/>
       <path d="M 54.890625 33.015625 
L 54.890625 0 
L 45.90625 0 
L 45.90625 32.71875 
Q 45.90625 40.484375 42.875 44.328125 
Q 39.84375 48.1875 33.796875 48.1875 
Q 26.515625 48.1875 22.3125 43.546875 
Q 18.109375 38.921875 18.109375 30.90625 
L 18.109375 0 
L 9.078125 0 
L 9.078125 75.984375 
L 18.109375 75.984375 
L 18.109375 46.1875 
Q 21.34375 51.125 25.703125 53.5625 
Q 30.078125 56 35.796875 56 
Q 45.21875 56 50.046875 50.171875 
Q 54.890625 44.34375 54.890625 33.015625 
z
" id="DejaVuSans-104"/>
       <path d="M 45.40625 27.984375 
Q 45.40625 37.75 41.375 43.109375 
Q 37.359375 48.484375 30.078125 48.484375 
Q 22.859375 48.484375 18.828125 43.109375 
Q 14.796875 37.75 14.796875 27.984375 
Q 14.796875 18.265625 18.828125 12.890625 
Q 22.859375 7.515625 30.078125 7.515625 
Q 37.359375 7.515625 41.375 12.890625 
Q 45.40625 18.265625 45.40625 27.984375 
z
M 54.390625 6.78125 
Q 54.390625 -7.171875 48.1875 -13.984375 
Q 42 -20.796875 29.203125 -20.796875 
Q 24.46875 -20.796875 20.265625 -20.09375 
Q 16.0625 -19.390625 12.109375 -17.921875 
L 12.109375 -9.1875 
Q 16.0625 -11.328125 19.921875 -12.34375 
Q 23.78125 -13.375 27.78125 -13.375 
Q 36.625 -13.375 41.015625 -8.765625 
Q 45.40625 -4.15625 45.40625 5.171875 
L 45.40625 9.625 
Q 42.625 4.78125 38.28125 2.390625 
Q 33.9375 0 27.875 0 
Q 17.828125 0 11.671875 7.65625 
Q 5.515625 15.328125 5.515625 27.984375 
Q 5.515625 40.671875 11.671875 48.328125 
Q 17.828125 56 27.875 56 
Q 33.9375 56 38.28125 53.609375 
Q 42.625 51.21875 45.40625 46.390625 
L 45.40625 54.6875 
L 54.390625 54.6875 
z
" id="DejaVuSans-103"/>
       <path d="M 18.3125 70.21875 
L 18.3125 54.6875 
L 36.8125 54.6875 
L 36.8125 47.703125 
L 18.3125 47.703125 
L 18.3125 18.015625 
Q 18.3125 11.328125 20.140625 9.421875 
Q 21.96875 7.515625 27.59375 7.515625 
L 36.8125 7.515625 
L 36.8125 0 
L 27.59375 0 
Q 17.1875 0 13.234375 3.875 
Q 9.28125 7.765625 9.28125 18.015625 
L 9.28125 47.703125 
L 2.6875 47.703125 
L 2.6875 54.6875 
L 9.28125 54.6875 
L 9.28125 70.21875 
z
" id="DejaVuSans-116"/>
       <path d="M 54.890625 33.015625 
L 54.890625 0 
L 45.90625 0 
L 45.90625 32.71875 
Q 45.90625 40.484375 42.875 44.328125 
Q 39.84375 48.1875 33.796875 48.1875 
Q 26.515625 48.1875 22.3125 43.546875 
Q 18.109375 38.921875 18.109375 30.90625 
L 18.109375 0 
L 9.078125 0 
L 9.078125 54.6875 
L 18.109375 54.6875 
L 18.109375 46.1875 
Q 21.34375 51.125 25.703125 53.5625 
Q 30.078125 56 35.796875 56 
Q 45.21875 56 50.046875 50.171875 
Q 54.890625 44.34375 54.890625 33.015625 
z
" id="DejaVuSans-110"/>
       <path d="M 8.59375 75.984375 
L 29.296875 75.984375 
L 29.296875 69 
L 17.578125 69 
L 17.578125 -6.203125 
L 29.296875 -6.203125 
L 29.296875 -13.1875 
L 8.59375 -13.1875 
z
" id="DejaVuSans-91"/>
       <path d="M 19.671875 34.8125 
L 19.671875 8.109375 
L 35.5 8.109375 
Q 43.453125 8.109375 47.28125 11.40625 
Q 51.125 14.703125 51.125 21.484375 
Q 51.125 28.328125 47.28125 31.5625 
Q 43.453125 34.8125 35.5 34.8125 
z
M 19.671875 64.796875 
L 19.671875 42.828125 
L 34.28125 42.828125 
Q 41.5 42.828125 45.03125 45.53125 
Q 48.578125 48.25 48.578125 53.8125 
Q 48.578125 59.328125 45.03125 62.0625 
Q 41.5 64.796875 34.28125 64.796875 
z
M 9.8125 72.90625 
L 35.015625 72.90625 
Q 46.296875 72.90625 52.390625 68.21875 
Q 58.5 63.53125 58.5 54.890625 
Q 58.5 48.1875 55.375 44.234375 
Q 52.25 40.28125 46.1875 39.3125 
Q 53.46875 37.75 57.5 32.78125 
Q 61.53125 27.828125 61.53125 20.40625 
Q 61.53125 10.640625 54.890625 5.3125 
Q 48.25 0 35.984375 0 
L 9.8125 0 
z
" id="DejaVuSans-66"/>
       <path d="M 25.390625 72.90625 
L 33.6875 72.90625 
L 8.296875 -9.28125 
L 0 -9.28125 
z
" id="DejaVuSans-47"/>
       <path d="M 30.421875 75.984375 
L 30.421875 -13.1875 
L 9.71875 -13.1875 
L 9.71875 -6.203125 
L 21.390625 -6.203125 
L 21.390625 69 
L 9.71875 69 
L 9.71875 75.984375 
z
" id="DejaVuSans-93"/>
      </defs>
      <use xlink:href="#DejaVuSans-84"/>
      <use x="61.083984" xlink:href="#DejaVuSans-104"/>
      <use x="124.462891" xlink:href="#DejaVuSans-114"/>
      <use x="163.326172" xlink:href="#DejaVuSans-111"/>
      <use x="224.507812" xlink:href="#DejaVuSans-117"/>
      <use x="287.886719" xlink:href="#DejaVuSans-103"/>
      <use x="351.363281" xlink:href="#DejaVuSans-104"/>
      <use x="414.742188" xlink:href="#DejaVuSans-112"/>
      <use x="478.21875" xlink:href="#DejaVuSans-117"/>
      <use x="541.597656" xlink:href="#DejaVuSans-116"/>
      <use x="580.806641" xlink:href="#DejaVuSans-95"/>
      <use x="630.806641" xlink:href="#DejaVuSans-110"/>
      <use x="694.185547" xlink:href="#DejaVuSans-105"/>
      <use x="721.96875" xlink:href="#DejaVuSans-103"/>
      <use x="785.445312" xlink:href="#DejaVuSans-104"/>
      <use x="848.824219" xlink:href="#DejaVuSans-116"/>
      <use x="888.033203" xlink:href="#DejaVuSans-91"/>
      <use x="927.046875" xlink:href="#DejaVuSans-66"/>
      <use x="995.650391" xlink:href="#DejaVuSans-105"/>
      <use x="1023.433594" xlink:href="#DejaVuSans-116"/>
      <use x="1062.642578" xlink:href="#DejaVuSans-47"/>
      <use x="1096.333984" xlink:href="#DejaVuSans-115"/>
      <use x="1148.433594" xlink:href="#DejaVuSans-93"/>
     </g>
    </g>
    <g id="text_20">
     <!-- 1e7 -->
     <g transform="translate(57.6 38.472)scale(0.1 -0.1)">
      <use xlink:href="#DejaVuSans-49"/>
      <use x="63.623047" xlink:href="#DejaVuSans-101"/>
      <use x="125.146484" xlink:href="#DejaVuSans-55"/>
     </g>
    </g>
   </g>
   <g id="line2d_18">
    <path clip-path="url(#p9dcc86db3f)" d="M 73.832727 168.804113 
L 74.004502 108.181016 
L 74.176277 122.46743 
L 74.348052 92.884097 
L 74.519827 97.964021 
L 74.691602 88.380411 
L 74.863377 85.101252 
L 75.035152 129.10943 
L 95.819913 73.848024 
L 95.991688 116.060587 
L 96.163463 121.037024 
L 96.335238 95.804097 
L 96.507013 110.430488 
L 96.678788 98.992659 
L 97.022338 113.715286 
L 97.194113 107.995124 
L 97.365887 132.297597 
L 97.537662 112.692629 
L 97.709437 108.089491 
L 98.052987 80.124376 
L 98.396537 92.506284 
L 98.740087 121.416501 
L 99.083636 118.129567 
L 99.427186 86.222884 
L 99.942511 96.450794 
L 100.286061 88.289775 
L 100.62961 161.388671 
L 100.97316 130.420486 
L 101.144935 77.866613 
L 101.31671 74.677624 
L 101.66026 83.877267 
L 102.175584 86.125594 
L 102.519134 78.997857 
L 102.862684 79.651338 
L 103.206234 79.089155 
L 103.549784 78.054364 
L 103.893333 78.435795 
L 104.065108 85.188839 
L 104.236883 75.619157 
L 104.752208 78.811808 
L 105.095758 78.617442 
L 105.439307 81.065601 
L 105.611082 96.822267 
L 105.782857 92.039359 
L 105.954632 79.561855 
L 106.298182 87.914833 
L 106.469957 77.961832 
L 106.641732 89.129483 
L 106.813506 77.305639 
L 106.985281 81.528285 
L 107.157056 80.308189 
L 107.328831 77.774717 
L 107.672381 81.907664 
L 107.844156 101.613695 
L 108.015931 75.148759 
L 108.187706 79.001749 
L 108.531255 101.140744 
L 108.874805 82.655671 
L 109.218355 80.689468 
L 109.39013 81.152185 
L 109.561905 74.115861 
L 109.905455 157.727153 
L 110.249004 75.524676 
L 110.592554 116.531852 
L 110.764329 80.215882 
L 111.107879 81.626401 
L 111.279654 85.387179 
L 111.623203 80.778908 
L 111.966753 107.619914 
L 112.482078 77.213967 
L 112.653853 152.850273 
L 112.825628 82.000068 
L 113.340952 153.143156 
L 113.684502 78.337528 
L 114.028052 101.995142 
L 114.371602 80.870271 
L 114.715152 163.547287 
L 115.058701 75.432912 
L 115.230476 153.789948 
L 115.574026 74.68126 
L 116.261126 160.264508 
L 116.77645 86.319897 
L 117.291775 176.776674 
L 117.46355 78.80948 
L 117.8071 97.208396 
L 118.150649 74.02491 
L 118.665974 75.905509 
L 118.837749 71.677735 
L 119.353074 78.908324 
L 119.524848 161.859371 
L 119.868398 72.99126 
L 120.040173 114.661689 
L 120.555498 79.932691 
L 121.070823 77.867225 
L 121.757922 73.833023 
L 122.445022 76.182378 
L 122.960346 74.212124 
L 124.162771 76.835156 
L 124.84987 212.627986 
L 125.53697 81.531036 
L 126.052294 81.531444 
L 126.739394 91.290781 
L 126.911169 80.131492 
L 127.254719 78.430149 
L 127.426494 113.542872 
L 127.941818 92.788357 
L 128.628918 181.944969 
L 129.144242 117.578543 
L 129.659567 99.087187 
L 129.831342 81.437668 
L 130.174892 119.733229 
L 130.346667 76.181937 
L 130.861991 100.863304 
L 131.033766 78.147989 
L 131.205541 111.563844 
L 131.549091 83.031847 
L 131.720866 139.71192 
L 132.23619 72.33164 
L 132.751515 173.124311 
L 133.782165 77.398342 
L 134.469264 102.089212 
L 134.984589 105.934543 
L 135.499913 70.370181 
L 136.015238 139.094774 
L 136.530563 76.372633 
L 136.874113 77.866155 
L 137.045887 73.555665 
L 137.217662 73.738669 
L 137.561212 62.011298 
L 137.732987 75.430459 
L 138.076537 74.500969 
L 138.591861 89.412333 
L 139.107186 81.058688 
L 139.278961 87.35767 
L 139.450736 80.964803 
L 139.794286 75.811758 
L 140.30961 71.303858 
L 140.824935 78.711438 
L 141.512035 83.498476 
L 142.199134 72.992087 
L 142.714459 74.309363 
L 143.401558 71.580792 
L 144.088658 69.897253 
L 144.603983 82.935381 
L 144.947532 87.16012 
L 145.291082 113.535612 
L 145.634632 118.880006 
L 145.806407 66.983289 
L 146.149957 95.423325 
L 146.493506 64.543334 
L 146.665281 96.729262 
L 147.180606 78.716314 
L 147.695931 75.056312 
L 148.211255 95.705805 
L 148.38303 80.032375 
L 148.72658 94.864584 
L 149.07013 71.679286 
L 149.241905 77.866832 
L 149.757229 88.479097 
L 150.100779 112.406315 
L 150.272554 74.308164 
L 150.616104 100.671259 
L 150.959654 70.274896 
L 151.131429 109.308139 
L 151.474978 77.406708 
L 151.646753 92.60836 
L 152.162078 112.789019 
L 152.677403 97.013662 
L 152.849177 69.895305 
L 153.192727 108.368416 
L 153.364502 76.280027 
L 153.708052 74.510888 
L 154.051602 81.625736 
L 154.223377 101.336465 
L 154.738701 91.098377 
L 155.082251 81.346129 
L 155.254026 127.415559 
L 155.769351 76.464911 
L 155.941126 71.673128 
L 156.1129 100.860566 
L 156.284675 89.602518 
L 156.628225 108.765305 
L 156.971775 96.73038 
L 157.14355 105.45651 
L 157.315325 88.285217 
L 157.4871 97.871416 
L 157.658874 116.532841 
L 157.830649 82.469614 
L 158.002424 81.813202 
L 158.174199 86.513306 
L 158.517749 77.030804 
L 158.689524 86.972835 
L 159.033074 81.249062 
L 159.204848 87.439701 
L 159.376623 71.580724 
L 159.720173 101.615721 
L 159.891948 76.756141 
L 160.235498 65.776077 
L 160.750823 106.959755 
L 160.922597 82.089429 
L 161.266147 119.724395 
L 161.437922 73.461557 
L 161.609697 70.45532 
L 161.781472 128.356508 
L 161.953247 76.092194 
L 162.296797 92.049741 
L 162.640346 76.933959 
L 162.812121 115.50209 
L 163.155671 97.391415 
L 163.327446 78.24914 
L 163.670996 121.131864 
L 163.842771 74.488297 
L 164.52987 134.458154 
L 164.701645 81.248567 
L 164.87342 149.186987 
L 165.388745 113.905982 
L 165.560519 74.490406 
L 165.732294 129.293149 
L 165.904069 76.180638 
L 166.075844 80.030622 
L 166.247619 114.373694 
L 166.419394 76.928603 
L 166.591169 188.321952 
L 167.106494 77.306734 
L 167.450043 111.278273 
L 167.621818 84.437682 
L 167.793593 94.865289 
L 167.965368 78.24781 
L 168.137143 91.857915 
L 168.652468 75.805449 
L 168.996017 86.799826 
L 169.167792 80.68196 
L 169.339567 84.632228 
L 169.511342 83.595277 
L 169.683117 84.255048 
L 169.854892 78.902038 
L 170.026667 89.134395 
L 170.198442 88.676518 
L 170.370216 76.372149 
L 170.541991 80.779792 
L 170.713766 79.940138 
L 170.885541 82.941358 
L 171.057316 114.952386 
L 171.229091 80.502523 
L 171.400866 87.532916 
L 171.572641 76.930008 
L 171.744416 81.443128 
L 171.91619 78.716445 
L 172.087965 53.568 
L 172.25974 100.955854 
L 172.60329 76.842402 
L 172.94684 75.992558 
L 173.118615 77.120937 
L 173.29039 80.144399 
L 173.462165 79.74687 
L 173.805714 77.965175 
L 174.149264 74.019729 
L 174.321039 84.342547 
L 174.664589 74.864488 
L 175.008139 82.560547 
L 175.179913 83.688224 
L 175.351688 101.149336 
L 175.523463 75.804544 
L 175.695238 73.176107 
L 175.867013 74.021997 
L 176.210563 80.027095 
L 176.554113 82.377636 
L 176.725887 78.429801 
L 176.897662 78.343002 
L 177.069437 75.247488 
L 177.412987 92.415766 
L 177.584762 82.189271 
L 177.756537 86.229631 
L 178.100087 80.685973 
L 178.271861 85.280633 
L 178.443636 74.586089 
L 178.787186 80.404234 
L 178.958961 76.932049 
L 179.130736 82.374832 
L 179.302511 74.020196 
L 179.646061 74.221034 
L 179.817835 80.401123 
L 179.98961 221.823461 
L 180.161385 74.588285 
L 180.33316 82.654795 
L 180.67671 74.587109 
L 180.848485 75.05401 
L 181.02026 117.850814 
L 181.192035 80.029519 
L 181.535584 75.149024 
L 181.707359 76.465395 
L 181.879134 144.310979 
L 182.050909 78.337812 
L 182.222684 295.488 
L 182.566234 295.487998 
L 182.738009 295.112658 
L 183.081558 291.358942 
L 183.253333 291.265494 
L 183.425108 72.645367 
L 183.596883 291.734631 
L 183.768658 294.737323 
L 183.940433 295.112674 
L 184.112208 294.361991 
L 184.455758 294.737324 
L 184.627532 292.579167 
L 184.971082 291.171631 
L 185.658182 80.217309 
L 185.829957 288.731477 
L 186.345281 74.958795 
L 186.517056 285.634921 
L 186.688831 81.151367 
L 187.032381 79.090242 
L 187.719481 84.068133 
L 187.891255 79.372221 
L 188.578355 76.090961 
L 188.75013 76.369245 
L 189.265455 81.156383 
L 189.780779 106.210999 
L 189.952554 74.116172 
L 190.296104 93.35438 
L 190.811429 84.164477 
L 191.498528 117.941672 
L 192.013853 72.142409 
L 192.185628 71.487557 
L 192.529177 80.121002 
L 193.044502 79.561356 
L 193.559827 76.930315 
L 193.731602 80.968853 
L 194.075152 99.73496 
L 194.418701 78.338073 
L 194.762251 76.368365 
L 195.105801 71.204343 
L 195.277576 83.031357 
L 195.7929 83.314116 
L 195.964675 75.240809 
L 196.308225 79.745895 
L 196.651775 78.340974 
L 196.82355 109.39779 
L 197.338874 77.773011 
L 197.510649 112.975774 
L 198.025974 94.761592 
L 198.541299 135.488674 
L 198.884848 73.272515 
L 199.228398 82.465357 
L 199.571948 80.028199 
L 199.743723 82.282682 
L 200.087273 89.132281 
L 200.430823 75.144975 
L 200.774372 81.061423 
L 200.946147 76.183677 
L 201.289697 97.104274 
L 201.633247 83.313711 
L 201.805022 81.433841 
L 201.976797 89.318865 
L 202.320346 77.495468 
L 202.663896 82.561038 
L 203.007446 90.351962 
L 203.179221 81.528994 
L 203.350996 82.564396 
L 203.694545 78.149582 
L 203.86632 76.650416 
L 204.20987 86.230513 
L 204.725195 78.433724 
L 205.068745 79.658426 
L 205.412294 84.818043 
L 205.584069 84.630025 
L 205.755844 80.216163 
L 205.927619 83.787381 
L 206.099394 84.437067 
L 206.271169 84.45394 
L 206.614719 80.689877 
L 206.786494 83.031954 
L 206.958268 79.381206 
L 207.130043 80.592305 
L 207.301818 86.694143 
L 207.645368 81.815069 
L 207.817143 81.06082 
L 207.988918 82.66125 
L 208.160693 96.547673 
L 208.332468 80.872124 
L 208.504242 75.524853 
L 208.676017 98.044547 
L 208.847792 82.846963 
L 209.363117 80.590966 
L 209.534892 95.325886 
L 209.706667 83.032381 
L 209.878442 94.009871 
L 210.050216 119.442218 
L 210.221991 79.74648 
L 210.393766 104.616511 
L 210.909091 79.088221 
L 211.080866 103.490368 
L 211.252641 85.848552 
L 211.59619 84.061359 
L 211.767965 78.992857 
L 211.93974 85.288761 
L 212.111515 84.810552 
L 212.28329 82.652956 
L 212.455065 82.845746 
L 212.62684 84.437364 
L 212.798615 76.839899 
L 212.97039 85.656972 
L 213.142165 82.751692 
L 213.313939 86.129569 
L 213.657489 169.272829 
L 213.829264 105.646294 
L 214.172814 84.718911 
L 214.344589 114.191787 
L 214.516364 85.00401 
L 214.688139 85.376881 
L 214.859913 85.096604 
L 215.031688 81.906527 
L 215.203463 86.035497 
L 215.547013 80.591161 
L 215.718788 74.959593 
L 215.890563 83.403441 
L 216.234113 75.520634 
L 216.405887 78.242944 
L 216.749437 80.03283 
L 216.921212 71.017446 
L 217.092987 67.923534 
L 217.436537 82.470834 
L 217.951861 78.71799 
L 218.123636 159.698802 
L 218.295411 74.958928 
L 218.467186 82.374511 
L 218.638961 124.046391 
L 218.810736 81.249578 
L 218.982511 77.497985 
L 219.154286 165.423507 
L 219.326061 76.088052 
L 219.66961 162.327902 
L 220.184935 172.181181 
L 220.872035 156.882333 
L 221.387359 158.10735 
L 221.902684 162.047481 
L 222.418009 65.01569 
L 222.933333 77.029115 
L 223.448658 70.453557 
L 223.963983 67.930183 
L 224.479307 70.923401 
L 224.994632 73.086128 
L 225.509957 83.219871 
L 226.197056 68.955466 
L 226.712381 84.540889 
L 227.227706 166.174253 
L 227.74303 90.827766 
L 228.258355 80.407884 
L 228.77368 87.353636 
L 229.289004 60.606979 
L 229.804329 98.069102 
L 230.319654 83.497071 
L 230.834978 85.571058 
L 231.522078 82.377208 
L 232.037403 93.544619 
L 232.552727 80.602146 
L 233.068052 91.203096 
L 233.583377 80.690568 
L 234.098701 173.219392 
L 234.614026 68.303916 
L 235.129351 133.801809 
L 235.644675 82.372413 
L 236.16 94.485824 
L 236.675325 98.889005 
L 237.362424 120.569383 
L 237.534199 84.625196 
L 237.705974 78.810285 
L 237.877749 81.250718 
L 238.049524 79.376432 
L 238.221299 81.432766 
L 238.393074 91.948851 
L 238.564848 76.652108 
L 238.736623 76.838933 
L 238.908398 105.743015 
L 239.080173 98.984348 
L 239.251948 77.78285 
L 239.423723 85.659396 
L 242.859221 98.055655 
L 243.718095 101.986704 
L 244.57697 78.715683 
L 244.920519 106.586666 
L 245.779394 78.153533 
L 245.951169 80.120029 
L 246.122944 79.938774 
L 246.294719 83.592723 
L 246.466494 82.376608 
L 246.638268 74.257045 
L 246.810043 76.274193 
L 246.981818 73.930158 
L 247.153593 76.369135 
L 247.325368 74.48883 
L 247.497143 81.718932 
L 247.668918 77.409796 
L 255.227013 77.870067 
L 255.398788 81.814768 
L 255.570563 81.721358 
L 255.742338 81.812837 
L 255.914113 81.71599 
L 256.085887 80.873181 
L 256.257662 72.238605 
L 256.429437 85.939698 
L 256.601212 74.212835 
L 256.772987 86.594827 
L 257.116537 76.463592 
L 257.288312 86.318069 
L 257.460087 78.52567 
L 257.631861 78.431152 
L 257.803636 76.646944 
L 257.975411 85.940519 
L 258.147186 81.347354 
L 258.318961 91.575518 
L 258.490736 76.835595 
L 258.834286 85.844509 
L 259.006061 80.030731 
L 259.177835 90.913589 
L 259.34961 76.557234 
L 259.521385 82.093501 
L 259.69316 83.405294 
L 259.864935 81.434099 
L 260.03671 81.908093 
L 260.208485 79.658664 
L 260.38026 81.340322 
L 260.552035 96.448974 
L 260.72381 78.260048 
L 260.895584 79.275405 
L 261.067359 76.647295 
L 261.239134 83.873228 
L 261.410909 84.812838 
L 261.582684 78.807892 
L 264.502857 77.965459 
L 264.674632 76.561895 
L 265.018182 78.619011 
L 265.533506 75.243308 
L 266.048831 76.746322 
L 266.564156 72.048162 
L 267.079481 74.302589 
L 267.594805 75.430702 
L 268.11013 81.436335 
L 268.625455 81.718352 
L 268.969004 75.902223 
L 269.999654 76.369421 
L 270.514978 83.686863 
L 271.030303 66.423389 
L 271.545628 80.407928 
L 272.060952 79.841188 
L 272.576277 85.56935 
L 273.091602 77.122012 
L 273.606926 78.242857 
L 274.122251 73.739716 
L 274.637576 80.967927 
L 274.981126 77.592132 
L 275.49645 81.998353 
L 276.011775 77.498292 
L 276.5271 80.49937 
L 277.042424 75.621807 
L 278.073074 78.81294 
L 278.588398 76.555717 
L 279.103723 76.370477 
L 279.619048 75.616441 
L 280.134372 75.996261 
L 280.649697 77.779352 
L 280.993247 73.1747 
L 281.508571 77.965677 
L 282.023896 76.177092 
L 282.539221 73.740116 
L 283.22632 80.780439 
L 283.91342 80.411405 
L 284.600519 72.800738 
L 285.287619 81.999167 
L 285.802944 79.934985 
L 286.490043 80.96532 
L 287.177143 73.928667 
L 287.864242 72.237955 
L 288.551342 77.968823 
L 289.238442 77.49225 
L 290.440866 81.436013 
L 291.127965 77.49746 
L 291.64329 68.485212 
L 291.815065 77.591037 
L 292.502165 83.785829 
L 292.845714 76.18262 
L 293.189264 72.803511 
L 293.876364 80.594441 
L 294.563463 76.838889 
L 295.078788 79.087721 
L 295.765887 85.096223 
L 296.109437 79.748972 
L 296.452987 77.403335 
L 297.140087 81.158966 
L 297.827186 81.161506 
L 298.514286 77.585829 
L 299.201385 79.465194 
L 299.37316 105.081159 
L 299.71671 76.087898 
L 299.888485 77.680919 
L 300.40381 74.678267 
L 301.090909 77.678884 
L 301.262684 84.721684 
L 301.606234 93.835477 
L 301.778009 85.660492 
L 302.121558 77.779046 
L 302.293333 81.721401 
L 302.636883 83.033619 
L 302.808658 85.750351 
L 303.323983 79.654633 
L 303.495758 79.934423 
L 303.839307 80.875465 
L 304.011082 86.223136 
L 304.354632 86.782449 
L 304.698182 76.930227 
L 304.869957 174.902757 
L 305.041732 78.898187 
L 305.213506 78.806325 
L 305.557056 78.05954 
L 305.728831 81.907192 
L 305.900606 173.964082 
L 306.244156 81.528693 
L 306.415931 157.354731 
L 306.587706 78.618444 
L 306.931255 93.635255 
L 307.274805 81.435346 
L 307.44658 112.125329 
L 307.618355 83.970725 
L 307.961905 106.694963 
L 308.477229 91.205477 
L 308.649004 76.465109 
L 308.820779 123.004968 
L 308.992554 83.974209 
L 309.336104 76.462844 
L 309.507879 101.614046 
L 309.679654 83.313093 
L 309.851429 80.590664 
L 310.023203 74.677468 
L 310.194978 80.686836 
L 310.538528 76.553079 
L 310.710303 79.746675 
L 310.882078 79.746112 
L 311.053853 79.56257 
L 311.225628 81.625285 
L 311.397403 82.093866 
L 311.569177 78.057662 
L 311.740952 80.408662 
L 311.912727 80.215384 
L 312.084502 77.598849 
L 312.428052 79.934401 
L 312.599827 82.840236 
L 312.943377 77.398561 
L 313.458701 81.719597 
L 313.630476 78.902299 
L 313.802251 82.561509 
L 313.974026 78.058557 
L 314.145801 84.062464 
L 314.317576 82.375046 
L 314.489351 78.436754 
L 314.661126 79.283939 
L 314.8329 78.997597 
L 315.004675 83.125923 
L 315.17645 77.310393 
L 315.348225 77.875268 
L 315.52 80.311257 
L 315.691775 89.139619 
L 315.86355 74.676005 
L 316.035325 79.000358 
L 316.2071 77.120565 
L 316.378874 84.444359 
L 316.550649 75.240786 
L 316.722424 80.123295 
L 316.894199 95.344646 
L 317.065974 87.25097 
L 317.237749 91.573777 
L 317.409524 81.720821 
L 317.581299 135.204652 
L 317.924848 84.537245 
L 318.096623 85.282174 
L 318.268398 84.906659 
L 318.440173 79.087982 
L 318.611948 78.342566 
L 318.783723 72.999124 
L 318.955498 84.814298 
L 319.299048 55.720403 
L 319.470823 79.184778 
L 319.642597 78.998336 
L 319.986147 74.773638 
L 320.157922 144.968074 
L 320.329697 90.075661 
L 320.845022 81.90198 
L 321.016797 89.413824 
L 321.188571 72.992511 
L 321.360346 93.918479 
L 321.532121 70.472017 
L 321.703896 138.979141 
L 322.047446 76.365812 
L 322.219221 90.822564 
L 322.390996 93.26188 
L 322.562771 124.04434 
L 322.90632 77.866329 
L 323.078095 101.519699 
L 323.24987 74.209302 
L 323.421645 136.801589 
L 323.59342 75.996945 
L 323.765195 72.060861 
L 324.108745 96.367595 
L 324.452294 88.940782 
L 324.624069 94.293215 
L 324.967619 93.084671 
L 325.139394 74.206814 
L 325.482944 91.297816 
L 325.998268 73.645718 
L 326.170043 75.068597 
L 326.341818 81.998374 
L 326.513593 98.811031 
L 326.685368 126.948582 
L 326.857143 117.669875 
L 327.028918 93.921517 
L 327.200693 88.475874 
L 327.372468 89.878524 
L 327.544242 78.815421 
L 327.716017 81.908587 
L 328.059567 109.023637 
L 328.403117 88.759036 
L 328.574892 126.102698 
L 328.746667 101.240461 
L 328.918442 109.588091 
L 329.090216 101.338397 
L 329.261991 111.098672 
L 329.433766 141.492125 
L 329.605541 209.246395 
L 329.777316 108.553018 
L 330.292641 80.403996 
L 330.464416 77.96583 
L 330.63619 104.807966 
L 330.807965 83.319039 
L 330.97974 81.347225 
L 331.151515 99.825184 
L 331.32329 75.617082 
L 331.495065 93.258427 
L 331.66684 91.481024 
L 331.838615 78.995053 
L 332.182165 77.307808 
L 332.525714 79.752395 
L 332.697489 72.987842 
L 333.041039 79.84775 
L 333.212814 74.958042 
L 333.384589 86.971097 
L 333.556364 76.93409 
L 333.728139 76.276857 
L 333.899913 82.655457 
L 334.071688 119.628981 
L 334.243463 87.345127 
L 334.415238 81.24833 
L 334.587013 84.440692 
L 334.758788 82.845532 
L 334.930563 78.246653 
L 335.102338 78.153402 
L 335.274113 85.94496 
L 335.445887 80.502242 
L 335.617662 83.882984 
L 335.789437 103.022326 
L 335.961212 88.847459 
L 336.132987 123.756521 
L 336.304762 79.464001 
L 336.476537 99.925983 
L 336.648312 89.825794 
L 336.820087 89.223946 
L 337.163636 80.026944 
L 337.335411 88.662184 
L 337.507186 89.319465 
L 337.678961 77.400028 
L 337.850736 116.155494 
L 338.022511 79.088329 
L 338.194286 81.438012 
L 338.366061 88.473192 
L 338.537835 83.216502 
L 338.70961 82.094616 
L 338.881385 82.749598 
L 339.05316 79.372655 
L 339.224935 93.924412 
L 339.568485 81.809038 
L 339.74026 102.080429 
L 339.912035 83.123236 
L 340.08381 78.99427 
L 340.255584 126.205493 
L 340.427359 92.23617 
L 340.599134 82.843824 
L 340.770909 84.442621 
L 340.942684 120.754516 
L 341.114459 82.46786 
L 341.458009 83.405678 
L 341.801558 73.645606 
L 342.316883 90.445886 
L 342.660433 83.790932 
L 343.003983 99.467084 
L 343.519307 106.395336 
L 343.862857 140.561383 
L 344.206407 78.552053 
L 344.721732 79.274776 
L 353.654026 72.050989 
L 353.997576 72.235803 
L 354.341126 72.813104 
L 354.684675 77.586508 
L 355.028225 66.605784 
L 355.371775 76.560159 
L 355.715325 77.684615 
L 356.058874 87.721979 
L 356.402424 73.557915 
L 356.917749 74.028602 
L 357.261299 71.679174 
L 357.604848 74.869406 
L 357.776623 73.461245 
L 357.948398 73.369679 
L 358.120173 77.691439 
L 358.291948 75.244745 
L 358.463723 74.400027 
L 358.635498 78.152965 
L 358.807273 91.105419 
L 358.979048 94.197473 
L 359.150823 75.338431 
L 359.322597 71.017153 
L 359.494372 74.491582 
L 359.666147 75.433885 
L 359.837922 77.311357 
L 360.009697 74.216324 
L 360.181472 80.030298 
L 360.353247 80.78294 
L 360.525022 100.015953 
L 360.696797 81.901915 
L 360.868571 76.564424 
L 361.040346 76.932334 
L 361.212121 73.459617 
L 361.555671 75.807875 
L 361.727446 74.866415 
L 361.899221 76.27525 
L 362.070996 94.201477 
L 362.242771 79.276296 
L 362.414545 92.883466 
L 362.58632 74.02282 
L 362.92987 80.033306 
L 363.101645 74.396852 
L 363.27342 78.90567 
L 372.377489 75.523152 
L 373.064589 74.300079 
L 373.751688 60.170618 
L 374.267013 72.435651 
L 374.954113 109.585681 
L 375.641212 128.355768 
L 376.328312 128.358944 
L 376.843636 110.903986 
L 377.530736 151.816899 
L 378.217835 58.639268 
L 378.73316 91.202235 
L 379.42026 161.858039 
L 379.935584 112.874064 
L 380.107359 216.191202 
L 380.450909 114.1976 
L 380.622684 129.302892 
L 380.794459 107.243872 
L 380.966234 116.718134 
L 381.138009 179.68892 
L 381.309784 112.495685 
L 381.481558 117.472881 
L 381.825108 145.811011 
L 381.996883 140.275981 
L 382.168658 170.779738 
L 382.340433 112.41327 
L 382.512208 99.359792 
L 382.855758 166.645303 
L 383.199307 106.207385 
L 383.371082 77.7778 
L 383.542857 84.16072 
L 383.714632 78.626786 
L 383.886407 80.53989 
L 384.058182 74.303277 
L 386.119481 72.142812 
L 386.978355 82.092944 
L 387.665455 72.428304 
L 388.524329 78.994553 
L 389.211429 80.2188 
L 390.070303 79.086982 
L 390.757403 85.564079 
L 391.616277 82.750196 
L 392.303377 76.928889 
L 392.990476 74.021352 
L 393.849351 80.030796 
L 394.53645 74.960301 
L 395.051775 79.275622 
L 395.22355 77.680065 
L 395.395325 80.498766 
L 395.5671 80.595283 
L 395.738874 80.405854 
L 395.910649 76.842117 
L 396.082424 82.188114 
L 396.254199 75.335159 
L 396.425974 76.464405 
L 396.597749 82.281997 
L 397.113074 77.491177 
L 397.284848 80.965233 
L 397.456623 80.307367 
L 397.628398 82.282747 
L 397.971948 78.524275 
L 398.143723 78.155803 
L 398.315498 80.315925 
L 398.487273 80.122624 
L 398.487273 80.122624 
" style="fill:none;stroke:#0000ff;stroke-linecap:square;stroke-width:1.5;"/>
   </g>
   <g id="patch_3">
    <path d="M 57.6 307.584 
L 57.6 41.472 
" style="fill:none;stroke:#000000;stroke-linecap:square;stroke-linejoin:miter;stroke-width:0.8;"/>
   </g>
   <g id="patch_4">
    <path d="M 414.72 307.584 
L 414.72 41.472 
" style="fill:none;stroke:#000000;stroke-linecap:square;stroke-linejoin:miter;stroke-width:0.8;"/>
   </g>
   <g id="patch_5">
    <path d="M 57.6 307.584 
L 414.72 307.584 
" style="fill:none;stroke:#000000;stroke-linecap:square;stroke-linejoin:miter;stroke-width:0.8;"/>
   </g>
   <g id="patch_6">
    <path d="M 57.6 41.472 
L 414.72 41.472 
" style="fill:none;stroke:#000000;stroke-linecap:square;stroke-linejoin:miter;stroke-width:0.8;"/>
   </g>
   <g id="text_21">
    <!-- air_pressure-&gt;Throughput_night -->
    <g transform="translate(138.966563 35.472)scale(0.12 -0.12)">
     <defs>
      <path d="M 4.890625 31.390625 
L 31.203125 31.390625 
L 31.203125 23.390625 
L 4.890625 23.390625 
z
" id="DejaVuSans-45"/>
      <path d="M 10.59375 49.21875 
L 10.59375 58.109375 
L 73.1875 35.40625 
L 73.1875 27.296875 
L 10.59375 4.59375 
L 10.59375 13.484375 
L 60.890625 31.296875 
z
" id="DejaVuSans-62"/>
     </defs>
     <use xlink:href="#DejaVuSans-97"/>
     <use x="61.279297" xlink:href="#DejaVuSans-105"/>
     <use x="89.0625" xlink:href="#DejaVuSans-114"/>
     <use x="130.175781" xlink:href="#DejaVuSans-95"/>
     <use x="180.175781" xlink:href="#DejaVuSans-112"/>
     <use x="243.652344" xlink:href="#DejaVuSans-114"/>
     <use x="282.515625" xlink:href="#DejaVuSans-101"/>
     <use x="344.039062" xlink:href="#DejaVuSans-115"/>
     <use x="396.138672" xlink:href="#DejaVuSans-115"/>
     <use x="448.238281" xlink:href="#DejaVuSans-117"/>
     <use x="511.617188" xlink:href="#DejaVuSans-114"/>
     <use x="550.480469" xlink:href="#DejaVuSans-101"/>
     <use x="612.003906" xlink:href="#DejaVuSans-45"/>
     <use x="648.087891" xlink:href="#DejaVuSans-62"/>
     <use x="731.876953" xlink:href="#DejaVuSans-84"/>
     <use x="792.960938" xlink:href="#DejaVuSans-104"/>
     <use x="856.339844" xlink:href="#DejaVuSans-114"/>
     <use x="895.203125" xlink:href="#DejaVuSans-111"/>
     <use x="956.384766" xlink:href="#DejaVuSans-117"/>
     <use x="1019.763672" xlink:href="#DejaVuSans-103"/>
     <use x="1083.240234" xlink:href="#DejaVuSans-104"/>
     <use x="1146.619141" xlink:href="#DejaVuSans-112"/>
     <use x="1210.095703" xlink:href="#DejaVuSans-117"/>
     <use x="1273.474609" xlink:href="#DejaVuSans-116"/>
     <use x="1312.683594" xlink:href="#DejaVuSans-95"/>
     <use x="1362.683594" xlink:href="#DejaVuSans-110"/>
     <use x="1426.0625" xlink:href="#DejaVuSans-105"/>
     <use x="1453.845703" xlink:href="#DejaVuSans-103"/>
     <use x="1517.322266" xlink:href="#DejaVuSans-104"/>
     <use x="1580.701172" xlink:href="#DejaVuSans-116"/>
    </g>
   </g>
  </g>
  <g id="legend_1">
   <g id="patch_7">
    <path d="M 303.057813 22.95625 
L 453.8 22.95625 
Q 455.8 22.95625 455.8 20.95625 
L 455.8 7 
Q 455.8 5 453.8 5 
L 303.057813 5 
Q 301.057813 5 301.057813 7 
L 301.057813 20.95625 
Q 301.057813 22.95625 303.057813 22.95625 
z
" style="fill:#ffffff;opacity:0.8;stroke:#cccccc;stroke-linejoin:miter;"/>
   </g>
   <g id="line2d_19">
    <path d="M 305.057813 13.098437 
L 325.057813 13.098437 
" style="fill:none;stroke:#0000ff;stroke-linecap:square;stroke-width:1.5;"/>
   </g>
   <g id="line2d_20"/>
   <g id="text_22">
    <!-- Throughput_night[Bit/s] -->
    <g transform="translate(333.057813 16.598437)scale(0.1 -0.1)">
     <use xlink:href="#DejaVuSans-84"/>
     <use x="61.083984" xlink:href="#DejaVuSans-104"/>
     <use x="124.462891" xlink:href="#DejaVuSans-114"/>
     <use x="163.326172" xlink:href="#DejaVuSans-111"/>
     <use x="224.507812" xlink:href="#DejaVuSans-117"/>
     <use x="287.886719" xlink:href="#DejaVuSans-103"/>
     <use x="351.363281" xlink:href="#DejaVuSans-104"/>
     <use x="414.742188" xlink:href="#DejaVuSans-112"/>
     <use x="478.21875" xlink:href="#DejaVuSans-117"/>
     <use x="541.597656" xlink:href="#DejaVuSans-116"/>
     <use x="580.806641" xlink:href="#DejaVuSans-95"/>
     <use x="630.806641" xlink:href="#DejaVuSans-110"/>
     <use x="694.185547" xlink:href="#DejaVuSans-105"/>
     <use x="721.96875" xlink:href="#DejaVuSans-103"/>
     <use x="785.445312" xlink:href="#DejaVuSans-104"/>
     <use x="848.824219" xlink:href="#DejaVuSans-116"/>
     <use x="888.033203" xlink:href="#DejaVuSans-91"/>
     <use x="927.046875" xlink:href="#DejaVuSans-66"/>
     <use x="995.650391" xlink:href="#DejaVuSans-105"/>
     <use x="1023.433594" xlink:href="#DejaVuSans-116"/>
     <use x="1062.642578" xlink:href="#DejaVuSans-47"/>
     <use x="1096.333984" xlink:href="#DejaVuSans-115"/>
     <use x="1148.433594" xlink:href="#DejaVuSans-93"/>
    </g>
   </g>
  </g>
 </g>
 <defs>
  <clipPath id="p9dcc86db3f">
   <rect height="266.112" width="357.12" x="57.6" y="41.472"/>
  </clipPath>
 </defs>
</svg>
