<?xml version="1.0" encoding="utf-8" standalone="no"?>
<!DOCTYPE svg PUBLIC "-//W3C//DTD SVG 1.1//EN"
  "http://www.w3.org/Graphics/SVG/1.1/DTD/svg11.dtd">
<!-- Created with matplotlib (https://matplotlib.org/) -->
<svg height="2090.594375pt" version="1.1" viewBox="0 0 2062.259375 2090.594375" width="2062.259375pt" xmlns="http://www.w3.org/2000/svg" xmlns:xlink="http://www.w3.org/1999/xlink">
 <metadata>
  <rdf:RDF xmlns:cc="http://creativecommons.org/ns#" xmlns:dc="http://purl.org/dc/elements/1.1/" xmlns:rdf="http://www.w3.org/1999/02/22-rdf-syntax-ns#">
   <cc:Work>
    <dc:type rdf:resource="http://purl.org/dc/dcmitype/StillImage"/>
    <dc:date>2022-07-23T21:22:22.948556</dc:date>
    <dc:format>image/svg+xml</dc:format>
    <dc:creator>
     <cc:Agent>
      <dc:title>Matplotlib v3.3.2, https://matplotlib.org/</dc:title>
     </cc:Agent>
    </dc:creator>
   </cc:Work>
  </rdf:RDF>
 </metadata>
 <defs>
  <style type="text/css">*{stroke-linecap:butt;stroke-linejoin:round;}</style>
 </defs>
 <g id="figure_1">
  <g id="patch_1">
   <path d="M 0 2090.594375 
L 2062.259375 2090.594375 
L 2062.259375 0 
L 0 0 
z
" style="fill:#ffffff;"/>
  </g>
  <g id="axes_1">
   <g id="patch_2">
    <path d="M 44.059375 2052.76 
L 1829.659375 2052.76 
L 1829.659375 278.68 
L 44.059375 278.68 
z
" style="fill:#ffffff;"/>
   </g>
   <g id="matplotlib.axis_1">
    <g id="xtick_1">
     <g id="line2d_1">
      <defs>
       <path d="M 0 0 
L 0 3.5 
" id="mccfd00a08c" style="stroke:#000000;stroke-width:0.8;"/>
      </defs>
      <g>
       <use style="stroke:#000000;stroke-width:0.8;" x="98.858953" xlink:href="#mccfd00a08c" y="2052.76"/>
      </g>
     </g>
     <g id="text_1">
      <text style="font-family:DejaVu Sans;font-size:10px;font-stretch:normal;font-style:normal;font-weight:normal;text-anchor:middle;" transform="rotate(-0, 98.858953, 2067.358437)" x="98.858953" y="2067.358437">0</text>
     </g>
    </g>
    <g id="xtick_2">
     <g id="line2d_2">
      <g>
       <use style="stroke:#000000;stroke-width:0.8;" x="475.488356" xlink:href="#mccfd00a08c" y="2052.76"/>
      </g>
     </g>
     <g id="text_2">
      <text style="font-family:DejaVu Sans;font-size:10px;font-stretch:normal;font-style:normal;font-weight:normal;text-anchor:middle;" transform="rotate(-0, 475.488356, 2067.358437)" x="475.488356" y="2067.358437">2</text>
     </g>
    </g>
    <g id="xtick_3">
     <g id="line2d_3">
      <g>
       <use style="stroke:#000000;stroke-width:0.8;" x="852.117759" xlink:href="#mccfd00a08c" y="2052.76"/>
      </g>
     </g>
     <g id="text_3">
      <text style="font-family:DejaVu Sans;font-size:10px;font-stretch:normal;font-style:normal;font-weight:normal;text-anchor:middle;" transform="rotate(-0, 852.117759, 2067.358437)" x="852.117759" y="2067.358437">4</text>
     </g>
    </g>
    <g id="xtick_4">
     <g id="line2d_4">
      <g>
       <use style="stroke:#000000;stroke-width:0.8;" x="1228.747162" xlink:href="#mccfd00a08c" y="2052.76"/>
      </g>
     </g>
     <g id="text_4">
      <text style="font-family:DejaVu Sans;font-size:10px;font-stretch:normal;font-style:normal;font-weight:normal;text-anchor:middle;" transform="rotate(-0, 1228.747162, 2067.358437)" x="1228.747162" y="2067.358437">6</text>
     </g>
    </g>
    <g id="xtick_5">
     <g id="line2d_5">
      <g>
       <use style="stroke:#000000;stroke-width:0.8;" x="1605.376565" xlink:href="#mccfd00a08c" y="2052.76"/>
      </g>
     </g>
     <g id="text_5">
      <text style="font-family:DejaVu Sans;font-size:10px;font-stretch:normal;font-style:normal;font-weight:normal;text-anchor:middle;" transform="rotate(-0, 1605.376565, 2067.358437)" x="1605.376565" y="2067.358437">8</text>
     </g>
    </g>
    <g id="text_6">
     <text style="font-family:DejaVu Sans;font-size:10px;font-stretch:normal;font-style:normal;font-weight:normal;text-anchor:middle;" transform="rotate(-0, 936.859375, 2081.036562)" x="936.859375" y="2081.036562">wind_speed from OpenWeatherMap</text>
    </g>
   </g>
   <g id="matplotlib.axis_2">
    <g id="ytick_1">
     <g id="line2d_6">
      <defs>
       <path d="M 0 0 
L -3.5 0 
" id="m9ca7f7357c" style="stroke:#000000;stroke-width:0.8;"/>
      </defs>
      <g>
       <use style="stroke:#000000;stroke-width:0.8;" x="44.059375" xlink:href="#m9ca7f7357c" y="1979.017745"/>
      </g>
     </g>
     <g id="text_7">
      <text style="font-family:DejaVu Sans;font-size:10px;font-stretch:normal;font-style:normal;font-weight:normal;text-anchor:end;" transform="rotate(-0, 37.059375, 1982.816964)" x="37.059375" y="1982.816964">0.0</text>
     </g>
    </g>
    <g id="ytick_2">
     <g id="line2d_7">
      <g>
       <use style="stroke:#000000;stroke-width:0.8;" x="44.059375" xlink:href="#m9ca7f7357c" y="1740.804787"/>
      </g>
     </g>
     <g id="text_8">
      <text style="font-family:DejaVu Sans;font-size:10px;font-stretch:normal;font-style:normal;font-weight:normal;text-anchor:end;" transform="rotate(-0, 37.059375, 1744.604006)" x="37.059375" y="1744.604006">0.2</text>
     </g>
    </g>
    <g id="ytick_3">
     <g id="line2d_8">
      <g>
       <use style="stroke:#000000;stroke-width:0.8;" x="44.059375" xlink:href="#m9ca7f7357c" y="1502.591829"/>
      </g>
     </g>
     <g id="text_9">
      <text style="font-family:DejaVu Sans;font-size:10px;font-stretch:normal;font-style:normal;font-weight:normal;text-anchor:end;" transform="rotate(-0, 37.059375, 1506.391048)" x="37.059375" y="1506.391048">0.4</text>
     </g>
    </g>
    <g id="ytick_4">
     <g id="line2d_9">
      <g>
       <use style="stroke:#000000;stroke-width:0.8;" x="44.059375" xlink:href="#m9ca7f7357c" y="1264.378871"/>
      </g>
     </g>
     <g id="text_10">
      <text style="font-family:DejaVu Sans;font-size:10px;font-stretch:normal;font-style:normal;font-weight:normal;text-anchor:end;" transform="rotate(-0, 37.059375, 1268.17809)" x="37.059375" y="1268.17809">0.6</text>
     </g>
    </g>
    <g id="ytick_5">
     <g id="line2d_10">
      <g>
       <use style="stroke:#000000;stroke-width:0.8;" x="44.059375" xlink:href="#m9ca7f7357c" y="1026.165913"/>
      </g>
     </g>
     <g id="text_11">
      <text style="font-family:DejaVu Sans;font-size:10px;font-stretch:normal;font-style:normal;font-weight:normal;text-anchor:end;" transform="rotate(-0, 37.059375, 1029.965132)" x="37.059375" y="1029.965132">0.8</text>
     </g>
    </g>
    <g id="ytick_6">
     <g id="line2d_11">
      <g>
       <use style="stroke:#000000;stroke-width:0.8;" x="44.059375" xlink:href="#m9ca7f7357c" y="787.952955"/>
      </g>
     </g>
     <g id="text_12">
      <text style="font-family:DejaVu Sans;font-size:10px;font-stretch:normal;font-style:normal;font-weight:normal;text-anchor:end;" transform="rotate(-0, 37.059375, 791.752174)" x="37.059375" y="791.752174">1.0</text>
     </g>
    </g>
    <g id="ytick_7">
     <g id="line2d_12">
      <g>
       <use style="stroke:#000000;stroke-width:0.8;" x="44.059375" xlink:href="#m9ca7f7357c" y="549.739997"/>
      </g>
     </g>
     <g id="text_13">
      <text style="font-family:DejaVu Sans;font-size:10px;font-stretch:normal;font-style:normal;font-weight:normal;text-anchor:end;" transform="rotate(-0, 37.059375, 553.539216)" x="37.059375" y="553.539216">1.2</text>
     </g>
    </g>
    <g id="ytick_8">
     <g id="line2d_13">
      <g>
       <use style="stroke:#000000;stroke-width:0.8;" x="44.059375" xlink:href="#m9ca7f7357c" y="311.527039"/>
      </g>
     </g>
     <g id="text_14">
      <text style="font-family:DejaVu Sans;font-size:10px;font-stretch:normal;font-style:normal;font-weight:normal;text-anchor:end;" transform="rotate(-0, 37.059375, 315.326258)" x="37.059375" y="315.326258">1.4</text>
     </g>
    </g>
    <g id="text_15">
     <text style="font-family:DejaVu Sans;font-size:10px;font-stretch:normal;font-style:normal;font-weight:normal;text-anchor:middle;" transform="rotate(-90, 14.798438, 1165.72)" x="14.798438" y="1165.72">Throughput_night[Bit/s]</text>
    </g>
    <g id="text_16">
     <text style="font-family:DejaVu Sans;font-size:10px;font-stretch:normal;font-style:normal;font-weight:normal;text-anchor:start;" transform="rotate(-0, 44.059375, 275.68)" x="44.059375" y="275.68">1e7</text>
    </g>
   </g>
   <g id="line2d_14">
    <path clip-path="url(#p85bca75d99)" d="M 125.223011 411.027663 
L 164.769099 603.468197 
L 196.782598 511.70878 
L 219.380362 404.14776 
L 230.679244 404.137366 
L 232.562391 448.946438 
L 238.211832 487.583302 
L 247.627567 446.29037 
L 273.991626 435.184935 
L 294.706243 991.185689 
L 296.58939 395.161824 
L 298.472537 461.369982 
L 309.771419 400.664545 
L 313.537713 402.070086 
L 317.304007 433.762789 
L 326.719742 391.02648 
L 332.369183 733.170264 
L 336.135477 465.537171 
L 347.434359 423.451965 
L 349.317506 1073.311492 
L 354.966947 444.811677 
L 371.91527 448.289658 
L 386.980447 370.304843 
L 392.629888 409.615983 
L 394.513035 400.673068 
L 400.162476 615.91838 
L 405.811917 1065.6795 
L 411.461358 389.662711 
L 424.643387 993.283064 
L 428.409681 1338.1495 
L 430.292828 391.718533 
L 434.059122 1085.686072 
L 435.942269 396.566333 
L 441.59171 580.699699 
L 447.241151 546.900248 
L 449.124298 805.600675 
L 451.007445 896.64694 
L 454.773739 388.948083 
L 458.540033 802.843199 
L 460.42318 429.631615 
L 466.072621 1220.219283 
L 469.838915 392.015447 
L 473.605209 1024.984724 
L 477.371503 390.369056 
L 481.137797 471.031058 
L 483.020944 1080.843691 
L 484.904091 434.457886 
L 486.787238 1021.521985 
L 488.670385 380.692279 
L 496.202973 498.608013 
L 498.08612 426.895371 
L 499.969267 1184.331884 
L 501.852414 428.267127 
L 507.501855 706.976134 
L 509.385003 684.200956 
L 511.26815 415.131944 
L 515.034444 736.603054 
L 518.800738 1120.869619 
L 520.683885 783.549001 
L 522.567032 1156.7244 
L 524.450179 392.422642 
L 526.333326 711.161753 
L 530.09962 1055.377361 
L 531.982767 831.141267 
L 533.865914 399.305717 
L 535.749061 821.608068 
L 537.632208 456.550542 
L 539.515355 793.861433 
L 543.281649 388.936794 
L 545.164796 420.717578 
L 547.047943 1029.856994 
L 548.93109 580.741507 
L 554.580531 1430.604737 
L 556.463678 428.248828 
L 560.229972 691.081772 
L 562.113119 1104.307672 
L 563.996266 395.166259 
L 565.879413 573.133183 
L 569.645707 482.754271 
L 571.528854 645.578301 
L 573.412001 402.749354 
L 577.178295 420.788006 
L 580.944589 576.575067 
L 582.827736 448.960208 
L 584.710883 492.443103 
L 586.59403 428.948747 
L 590.360324 437.909108 
L 592.243471 571.039601 
L 596.009765 629.081934 
L 597.892912 524.863317 
L 601.659206 543.517486 
L 607.308647 407.567185 
L 611.074941 958.043474 
L 614.841235 411.005712 
L 616.724382 407.571428 
L 622.373823 455.160814 
L 628.023264 446.963162 
L 629.906411 711.820891 
L 633.672706 959.426534 
L 635.555853 1972.119952 
L 637.439 743.514622 
L 641.205294 524.819693 
L 643.088441 1972.119948 
L 644.971588 1389.201452 
L 646.854735 670.405471 
L 652.504176 494.498329 
L 654.387323 1874.165353 
L 656.27047 562.763134 
L 658.153617 1972.11991 
L 660.036764 399.956705 
L 661.919911 395.826644 
L 663.803058 1137.454059 
L 665.686205 1363.007907 
L 671.335646 865.633305 
L 673.218793 521.405001 
L 675.10194 587.618057 
L 676.985087 601.402246 
L 678.868234 1152.590133 
L 680.751381 700.039238 
L 682.634528 1972.12 
L 684.517675 513.788144 
L 688.283969 508.366449 
L 690.167116 526.328383 
L 692.050263 366.219814 
L 693.93341 726.952081 
L 695.816557 640.036238 
L 697.699704 576.55936 
L 699.582851 508.964672 
L 701.465998 411.727213 
L 703.349145 507.602056 
L 705.232292 424.808157 
L 710.881733 414.474168 
L 712.76488 1072.612539 
L 714.648027 460.720376 
L 716.531174 570.412435 
L 720.297468 446.883498 
L 722.180615 1460.266187 
L 724.063762 1972.119941 
L 727.830056 386.183009 
L 729.713203 456.524356 
L 731.59635 679.363157 
L 733.479497 530.368892 
L 737.245791 364.813866 
L 742.895232 1969.360883 
L 746.661526 492.413669 
L 748.544673 377.894872 
L 750.42782 471.046288 
L 754.194115 401.386568 
L 756.077262 432.414183 
L 757.960409 531.036572 
L 761.726703 564.888389 
L 763.60985 542.766781 
L 765.492997 456.534404 
L 769.259291 617.355631 
L 774.908732 906.31092 
L 780.558173 441.369853 
L 784.324467 600.062411 
L 793.740202 539.329952 
L 795.623349 439.975404 
L 808.805378 437.255958 
L 812.571672 428.987497 
L 821.987407 471.020955 
L 825.753701 417.235847 
L 835.169436 689.71382 
L 838.93573 1013.948624 
L 840.818877 427.605215 
L 846.468318 455.155633 
L 848.351465 509.690217 
L 852.117759 362.727403 
L 857.7672 402.742734 
L 861.533494 415.876657 
L 863.416641 986.342706 
L 872.832376 668.340823 
L 876.598671 476.549164 
L 886.014406 704.180367 
L 887.897553 422.756222 
L 889.7807 409.658826 
L 902.962729 475.180465 
L 916.144758 450.353639 
L 919.911052 434.464219 
L 934.976228 451.07586 
L 940.625669 451.020092 
L 950.041404 542.095187 
L 959.457139 833.239285 
L 963.223433 424.115985 
L 978.288609 635.891014 
L 980.171756 427.57 
L 983.93805 442.059691 
L 985.821197 464.808431 
L 989.587491 408.261264 
L 1000.886374 772.491393 
L 1012.185256 406.170051 
L 1021.600991 460.732521 
L 1023.484138 431.039936 
L 1027.250432 727.707741 
L 1029.133579 413.096692 
L 1038.549314 791.123785 
L 1079.978548 445.517466 
L 1083.744842 795.94931 
L 1087.511136 448.28277 
L 1140.239253 893.889937 
L 1145.888694 709.705109 
L 1151.538135 717.313704 
L 1194.850516 406.201035 
L 1198.61681 886.306985 
L 1200.499957 387.594988 
L 1206.149398 1334.052144 
L 1226.864015 1024.279716 
L 1232.513456 666.959589 
L 1238.162897 1044.299927 
L 1258.877515 395.168793 
L 1266.410103 666.291679 
L 1270.176397 541.394716 
L 1283.358426 677.990246 
L 1298.423602 1423.697909 
L 1309.722484 395.1661 
L 1317.255072 405.49185 
L 1326.670807 414.475889 
L 1330.437101 1024.972799 
L 1337.969689 404.140201 
L 1358.684306 605.627547 
L 1373.749483 381.374596 
L 1430.243893 994.630197 
L 1548.882155 394.44965 
L 1624.208036 479.316167 
L 1690.118181 359.32 
L 1722.13168 386.185876 
L 1748.495739 383.426212 
L 1748.495739 383.426212 
" style="fill:none;stroke:#0000ff;stroke-linecap:square;stroke-width:1.5;"/>
   </g>
   <g id="patch_3">
    <path d="M 44.059375 2052.76 
L 44.059375 278.68 
" style="fill:none;stroke:#000000;stroke-linecap:square;stroke-linejoin:miter;stroke-width:0.8;"/>
   </g>
   <g id="patch_4">
    <path d="M 1829.659375 2052.76 
L 1829.659375 278.68 
" style="fill:none;stroke:#000000;stroke-linecap:square;stroke-linejoin:miter;stroke-width:0.8;"/>
   </g>
   <g id="patch_5">
    <path d="M 44.059375 2052.76 
L 1829.659375 2052.76 
" style="fill:none;stroke:#000000;stroke-linecap:square;stroke-linejoin:miter;stroke-width:0.8;"/>
   </g>
   <g id="patch_6">
    <path d="M 44.059375 278.68 
L 1829.659375 278.68 
" style="fill:none;stroke:#000000;stroke-linecap:square;stroke-linejoin:miter;stroke-width:0.8;"/>
   </g>
   <g id="text_17">
    <text style="font-family:DejaVu Sans;font-size:12px;font-stretch:normal;font-style:normal;font-weight:normal;text-anchor:middle;" transform="rotate(-0, 936.859375, 272.68)" x="936.859375" y="272.68">wind_speed-&gt;Throughput_night</text>
   </g>
  </g>
  <g id="legend_1">
   <g id="patch_7">
    <path d="M 1904.517187 22.95625 
L 2055.259375 22.95625 
Q 2057.259375 22.95625 2057.259375 20.95625 
L 2057.259375 7 
Q 2057.259375 5 2055.259375 5 
L 1904.517187 5 
Q 1902.517187 5 1902.517187 7 
L 1902.517187 20.95625 
Q 1902.517187 22.95625 1904.517187 22.95625 
z
" style="fill:#ffffff;opacity:0.8;stroke:#cccccc;stroke-linejoin:miter;"/>
   </g>
   <g id="line2d_15">
    <path d="M 1906.517187 13.098438 
L 1926.517187 13.098438 
" style="fill:none;stroke:#0000ff;stroke-linecap:square;stroke-width:1.5;"/>
   </g>
   <g id="line2d_16"/>
   <g id="text_18">
    <text style="font-family:DejaVu Sans;font-size:10px;font-stretch:normal;font-style:normal;font-weight:normal;text-anchor:start;" transform="rotate(-0, 1934.517187, 16.598438)" x="1934.517187" y="16.598438">Throughput_night[Bit/s]</text>
   </g>
  </g>
 </g>
 <defs>
  <clipPath id="p85bca75d99">
   <rect height="1774.08" width="1785.6" x="44.059375" y="278.68"/>
  </clipPath>
 </defs>
</svg>
