<?xml version="1.0" encoding="utf-8" standalone="no"?>
<!DOCTYPE svg PUBLIC "-//W3C//DTD SVG 1.1//EN"
  "http://www.w3.org/Graphics/SVG/1.1/DTD/svg11.dtd">
<!-- Created with matplotlib (https://matplotlib.org/) -->
<svg height="345.6pt" version="1.1" viewBox="0 0 460.8 345.6" width="460.8pt" xmlns="http://www.w3.org/2000/svg" xmlns:xlink="http://www.w3.org/1999/xlink">
 <metadata>
  <rdf:RDF xmlns:cc="http://creativecommons.org/ns#" xmlns:dc="http://purl.org/dc/elements/1.1/" xmlns:rdf="http://www.w3.org/1999/02/22-rdf-syntax-ns#">
   <cc:Work>
    <dc:type rdf:resource="http://purl.org/dc/dcmitype/StillImage"/>
    <dc:date>2022-07-16T18:01:28.641280</dc:date>
    <dc:format>image/svg+xml</dc:format>
    <dc:creator>
     <cc:Agent>
      <dc:title>Matplotlib v3.3.2, https://matplotlib.org/</dc:title>
     </cc:Agent>
    </dc:creator>
   </cc:Work>
  </rdf:RDF>
 </metadata>
 <defs>
  <style type="text/css">*{stroke-linecap:butt;stroke-linejoin:round;}</style>
 </defs>
 <g id="figure_1">
  <g id="patch_1">
   <path d="M 0 345.6 
L 460.8 345.6 
L 460.8 0 
L 0 0 
z
" style="fill:#ffffff;"/>
  </g>
  <g id="axes_1">
   <g id="patch_2">
    <path d="M 57.6 307.584 
L 414.72 307.584 
L 414.72 41.472 
L 57.6 41.472 
z
" style="fill:#ffffff;"/>
   </g>
   <g id="matplotlib.axis_1">
    <g id="xtick_1">
     <g id="line2d_1">
      <defs>
       <path d="M 0 0 
L 0 3.5 
" id="m407648acc9" style="stroke:#000000;stroke-width:0.8;"/>
      </defs>
      <g>
       <use style="stroke:#000000;stroke-width:0.8;" x="92.460447" xlink:href="#m407648acc9" y="307.584"/>
      </g>
     </g>
     <g id="text_1">
      <!-- 8 -->
      <g transform="translate(89.279197 322.182437)scale(0.1 -0.1)">
       <defs>
        <path d="M 31.78125 34.625 
Q 24.75 34.625 20.71875 30.859375 
Q 16.703125 27.09375 16.703125 20.515625 
Q 16.703125 13.921875 20.71875 10.15625 
Q 24.75 6.390625 31.78125 6.390625 
Q 38.8125 6.390625 42.859375 10.171875 
Q 46.921875 13.96875 46.921875 20.515625 
Q 46.921875 27.09375 42.890625 30.859375 
Q 38.875 34.625 31.78125 34.625 
z
M 21.921875 38.8125 
Q 15.578125 40.375 12.03125 44.71875 
Q 8.5 49.078125 8.5 55.328125 
Q 8.5 64.0625 14.71875 69.140625 
Q 20.953125 74.21875 31.78125 74.21875 
Q 42.671875 74.21875 48.875 69.140625 
Q 55.078125 64.0625 55.078125 55.328125 
Q 55.078125 49.078125 51.53125 44.71875 
Q 48 40.375 41.703125 38.8125 
Q 48.828125 37.15625 52.796875 32.3125 
Q 56.78125 27.484375 56.78125 20.515625 
Q 56.78125 9.90625 50.3125 4.234375 
Q 43.84375 -1.421875 31.78125 -1.421875 
Q 19.734375 -1.421875 13.25 4.234375 
Q 6.78125 9.90625 6.78125 20.515625 
Q 6.78125 27.484375 10.78125 32.3125 
Q 14.796875 37.15625 21.921875 38.8125 
z
M 18.3125 54.390625 
Q 18.3125 48.734375 21.84375 45.5625 
Q 25.390625 42.390625 31.78125 42.390625 
Q 38.140625 42.390625 41.71875 45.5625 
Q 45.3125 48.734375 45.3125 54.390625 
Q 45.3125 60.0625 41.71875 63.234375 
Q 38.140625 66.40625 31.78125 66.40625 
Q 25.390625 66.40625 21.84375 63.234375 
Q 18.3125 60.0625 18.3125 54.390625 
z
" id="DejaVuSans-56"/>
       </defs>
       <use xlink:href="#DejaVuSans-56"/>
      </g>
     </g>
    </g>
    <g id="xtick_2">
     <g id="line2d_2">
      <g>
       <use style="stroke:#000000;stroke-width:0.8;" x="133.400491" xlink:href="#m407648acc9" y="307.584"/>
      </g>
     </g>
     <g id="text_2">
      <!-- 10 -->
      <g transform="translate(127.037991 322.182437)scale(0.1 -0.1)">
       <defs>
        <path d="M 12.40625 8.296875 
L 28.515625 8.296875 
L 28.515625 63.921875 
L 10.984375 60.40625 
L 10.984375 69.390625 
L 28.421875 72.90625 
L 38.28125 72.90625 
L 38.28125 8.296875 
L 54.390625 8.296875 
L 54.390625 0 
L 12.40625 0 
z
" id="DejaVuSans-49"/>
        <path d="M 31.78125 66.40625 
Q 24.171875 66.40625 20.328125 58.90625 
Q 16.5 51.421875 16.5 36.375 
Q 16.5 21.390625 20.328125 13.890625 
Q 24.171875 6.390625 31.78125 6.390625 
Q 39.453125 6.390625 43.28125 13.890625 
Q 47.125 21.390625 47.125 36.375 
Q 47.125 51.421875 43.28125 58.90625 
Q 39.453125 66.40625 31.78125 66.40625 
z
M 31.78125 74.21875 
Q 44.046875 74.21875 50.515625 64.515625 
Q 56.984375 54.828125 56.984375 36.375 
Q 56.984375 17.96875 50.515625 8.265625 
Q 44.046875 -1.421875 31.78125 -1.421875 
Q 19.53125 -1.421875 13.0625 8.265625 
Q 6.59375 17.96875 6.59375 36.375 
Q 6.59375 54.828125 13.0625 64.515625 
Q 19.53125 74.21875 31.78125 74.21875 
z
" id="DejaVuSans-48"/>
       </defs>
       <use xlink:href="#DejaVuSans-49"/>
       <use x="63.623047" xlink:href="#DejaVuSans-48"/>
      </g>
     </g>
    </g>
    <g id="xtick_3">
     <g id="line2d_3">
      <g>
       <use style="stroke:#000000;stroke-width:0.8;" x="174.340534" xlink:href="#m407648acc9" y="307.584"/>
      </g>
     </g>
     <g id="text_3">
      <!-- 12 -->
      <g transform="translate(167.978034 322.182437)scale(0.1 -0.1)">
       <defs>
        <path d="M 19.1875 8.296875 
L 53.609375 8.296875 
L 53.609375 0 
L 7.328125 0 
L 7.328125 8.296875 
Q 12.9375 14.109375 22.625 23.890625 
Q 32.328125 33.6875 34.8125 36.53125 
Q 39.546875 41.84375 41.421875 45.53125 
Q 43.3125 49.21875 43.3125 52.78125 
Q 43.3125 58.59375 39.234375 62.25 
Q 35.15625 65.921875 28.609375 65.921875 
Q 23.96875 65.921875 18.8125 64.3125 
Q 13.671875 62.703125 7.8125 59.421875 
L 7.8125 69.390625 
Q 13.765625 71.78125 18.9375 73 
Q 24.125 74.21875 28.421875 74.21875 
Q 39.75 74.21875 46.484375 68.546875 
Q 53.21875 62.890625 53.21875 53.421875 
Q 53.21875 48.921875 51.53125 44.890625 
Q 49.859375 40.875 45.40625 35.40625 
Q 44.1875 33.984375 37.640625 27.21875 
Q 31.109375 20.453125 19.1875 8.296875 
z
" id="DejaVuSans-50"/>
       </defs>
       <use xlink:href="#DejaVuSans-49"/>
       <use x="63.623047" xlink:href="#DejaVuSans-50"/>
      </g>
     </g>
    </g>
    <g id="xtick_4">
     <g id="line2d_4">
      <g>
       <use style="stroke:#000000;stroke-width:0.8;" x="215.280578" xlink:href="#m407648acc9" y="307.584"/>
      </g>
     </g>
     <g id="text_4">
      <!-- 14 -->
      <g transform="translate(208.918078 322.182437)scale(0.1 -0.1)">
       <defs>
        <path d="M 37.796875 64.3125 
L 12.890625 25.390625 
L 37.796875 25.390625 
z
M 35.203125 72.90625 
L 47.609375 72.90625 
L 47.609375 25.390625 
L 58.015625 25.390625 
L 58.015625 17.1875 
L 47.609375 17.1875 
L 47.609375 0 
L 37.796875 0 
L 37.796875 17.1875 
L 4.890625 17.1875 
L 4.890625 26.703125 
z
" id="DejaVuSans-52"/>
       </defs>
       <use xlink:href="#DejaVuSans-49"/>
       <use x="63.623047" xlink:href="#DejaVuSans-52"/>
      </g>
     </g>
    </g>
    <g id="xtick_5">
     <g id="line2d_5">
      <g>
       <use style="stroke:#000000;stroke-width:0.8;" x="256.220621" xlink:href="#m407648acc9" y="307.584"/>
      </g>
     </g>
     <g id="text_5">
      <!-- 16 -->
      <g transform="translate(249.858121 322.182437)scale(0.1 -0.1)">
       <defs>
        <path d="M 33.015625 40.375 
Q 26.375 40.375 22.484375 35.828125 
Q 18.609375 31.296875 18.609375 23.390625 
Q 18.609375 15.53125 22.484375 10.953125 
Q 26.375 6.390625 33.015625 6.390625 
Q 39.65625 6.390625 43.53125 10.953125 
Q 47.40625 15.53125 47.40625 23.390625 
Q 47.40625 31.296875 43.53125 35.828125 
Q 39.65625 40.375 33.015625 40.375 
z
M 52.59375 71.296875 
L 52.59375 62.3125 
Q 48.875 64.0625 45.09375 64.984375 
Q 41.3125 65.921875 37.59375 65.921875 
Q 27.828125 65.921875 22.671875 59.328125 
Q 17.53125 52.734375 16.796875 39.40625 
Q 19.671875 43.65625 24.015625 45.921875 
Q 28.375 48.1875 33.59375 48.1875 
Q 44.578125 48.1875 50.953125 41.515625 
Q 57.328125 34.859375 57.328125 23.390625 
Q 57.328125 12.15625 50.6875 5.359375 
Q 44.046875 -1.421875 33.015625 -1.421875 
Q 20.359375 -1.421875 13.671875 8.265625 
Q 6.984375 17.96875 6.984375 36.375 
Q 6.984375 53.65625 15.1875 63.9375 
Q 23.390625 74.21875 37.203125 74.21875 
Q 40.921875 74.21875 44.703125 73.484375 
Q 48.484375 72.75 52.59375 71.296875 
z
" id="DejaVuSans-54"/>
       </defs>
       <use xlink:href="#DejaVuSans-49"/>
       <use x="63.623047" xlink:href="#DejaVuSans-54"/>
      </g>
     </g>
    </g>
    <g id="xtick_6">
     <g id="line2d_6">
      <g>
       <use style="stroke:#000000;stroke-width:0.8;" x="297.160665" xlink:href="#m407648acc9" y="307.584"/>
      </g>
     </g>
     <g id="text_6">
      <!-- 18 -->
      <g transform="translate(290.798165 322.182437)scale(0.1 -0.1)">
       <use xlink:href="#DejaVuSans-49"/>
       <use x="63.623047" xlink:href="#DejaVuSans-56"/>
      </g>
     </g>
    </g>
    <g id="xtick_7">
     <g id="line2d_7">
      <g>
       <use style="stroke:#000000;stroke-width:0.8;" x="338.100708" xlink:href="#m407648acc9" y="307.584"/>
      </g>
     </g>
     <g id="text_7">
      <!-- 20 -->
      <g transform="translate(331.738208 322.182437)scale(0.1 -0.1)">
       <use xlink:href="#DejaVuSans-50"/>
       <use x="63.623047" xlink:href="#DejaVuSans-48"/>
      </g>
     </g>
    </g>
    <g id="xtick_8">
     <g id="line2d_8">
      <g>
       <use style="stroke:#000000;stroke-width:0.8;" x="379.040752" xlink:href="#m407648acc9" y="307.584"/>
      </g>
     </g>
     <g id="text_8">
      <!-- 22 -->
      <g transform="translate(372.678252 322.182437)scale(0.1 -0.1)">
       <use xlink:href="#DejaVuSans-50"/>
       <use x="63.623047" xlink:href="#DejaVuSans-50"/>
      </g>
     </g>
    </g>
    <g id="text_9">
     <!-- temperature from OpenWeatherMap -->
     <g transform="translate(144.963906 335.860562)scale(0.1 -0.1)">
      <defs>
       <path d="M 18.3125 70.21875 
L 18.3125 54.6875 
L 36.8125 54.6875 
L 36.8125 47.703125 
L 18.3125 47.703125 
L 18.3125 18.015625 
Q 18.3125 11.328125 20.140625 9.421875 
Q 21.96875 7.515625 27.59375 7.515625 
L 36.8125 7.515625 
L 36.8125 0 
L 27.59375 0 
Q 17.1875 0 13.234375 3.875 
Q 9.28125 7.765625 9.28125 18.015625 
L 9.28125 47.703125 
L 2.6875 47.703125 
L 2.6875 54.6875 
L 9.28125 54.6875 
L 9.28125 70.21875 
z
" id="DejaVuSans-116"/>
       <path d="M 56.203125 29.59375 
L 56.203125 25.203125 
L 14.890625 25.203125 
Q 15.484375 15.921875 20.484375 11.0625 
Q 25.484375 6.203125 34.421875 6.203125 
Q 39.59375 6.203125 44.453125 7.46875 
Q 49.3125 8.734375 54.109375 11.28125 
L 54.109375 2.78125 
Q 49.265625 0.734375 44.1875 -0.34375 
Q 39.109375 -1.421875 33.890625 -1.421875 
Q 20.796875 -1.421875 13.15625 6.1875 
Q 5.515625 13.8125 5.515625 26.8125 
Q 5.515625 40.234375 12.765625 48.109375 
Q 20.015625 56 32.328125 56 
Q 43.359375 56 49.78125 48.890625 
Q 56.203125 41.796875 56.203125 29.59375 
z
M 47.21875 32.234375 
Q 47.125 39.59375 43.09375 43.984375 
Q 39.0625 48.390625 32.421875 48.390625 
Q 24.90625 48.390625 20.390625 44.140625 
Q 15.875 39.890625 15.1875 32.171875 
z
" id="DejaVuSans-101"/>
       <path d="M 52 44.1875 
Q 55.375 50.25 60.0625 53.125 
Q 64.75 56 71.09375 56 
Q 79.640625 56 84.28125 50.015625 
Q 88.921875 44.046875 88.921875 33.015625 
L 88.921875 0 
L 79.890625 0 
L 79.890625 32.71875 
Q 79.890625 40.578125 77.09375 44.375 
Q 74.3125 48.1875 68.609375 48.1875 
Q 61.625 48.1875 57.5625 43.546875 
Q 53.515625 38.921875 53.515625 30.90625 
L 53.515625 0 
L 44.484375 0 
L 44.484375 32.71875 
Q 44.484375 40.625 41.703125 44.40625 
Q 38.921875 48.1875 33.109375 48.1875 
Q 26.21875 48.1875 22.15625 43.53125 
Q 18.109375 38.875 18.109375 30.90625 
L 18.109375 0 
L 9.078125 0 
L 9.078125 54.6875 
L 18.109375 54.6875 
L 18.109375 46.1875 
Q 21.1875 51.21875 25.484375 53.609375 
Q 29.78125 56 35.6875 56 
Q 41.65625 56 45.828125 52.96875 
Q 50 49.953125 52 44.1875 
z
" id="DejaVuSans-109"/>
       <path d="M 18.109375 8.203125 
L 18.109375 -20.796875 
L 9.078125 -20.796875 
L 9.078125 54.6875 
L 18.109375 54.6875 
L 18.109375 46.390625 
Q 20.953125 51.265625 25.265625 53.625 
Q 29.59375 56 35.59375 56 
Q 45.5625 56 51.78125 48.09375 
Q 58.015625 40.1875 58.015625 27.296875 
Q 58.015625 14.40625 51.78125 6.484375 
Q 45.5625 -1.421875 35.59375 -1.421875 
Q 29.59375 -1.421875 25.265625 0.953125 
Q 20.953125 3.328125 18.109375 8.203125 
z
M 48.6875 27.296875 
Q 48.6875 37.203125 44.609375 42.84375 
Q 40.53125 48.484375 33.40625 48.484375 
Q 26.265625 48.484375 22.1875 42.84375 
Q 18.109375 37.203125 18.109375 27.296875 
Q 18.109375 17.390625 22.1875 11.75 
Q 26.265625 6.109375 33.40625 6.109375 
Q 40.53125 6.109375 44.609375 11.75 
Q 48.6875 17.390625 48.6875 27.296875 
z
" id="DejaVuSans-112"/>
       <path d="M 41.109375 46.296875 
Q 39.59375 47.171875 37.8125 47.578125 
Q 36.03125 48 33.890625 48 
Q 26.265625 48 22.1875 43.046875 
Q 18.109375 38.09375 18.109375 28.8125 
L 18.109375 0 
L 9.078125 0 
L 9.078125 54.6875 
L 18.109375 54.6875 
L 18.109375 46.1875 
Q 20.953125 51.171875 25.484375 53.578125 
Q 30.03125 56 36.53125 56 
Q 37.453125 56 38.578125 55.875 
Q 39.703125 55.765625 41.0625 55.515625 
z
" id="DejaVuSans-114"/>
       <path d="M 34.28125 27.484375 
Q 23.390625 27.484375 19.1875 25 
Q 14.984375 22.515625 14.984375 16.5 
Q 14.984375 11.71875 18.140625 8.90625 
Q 21.296875 6.109375 26.703125 6.109375 
Q 34.1875 6.109375 38.703125 11.40625 
Q 43.21875 16.703125 43.21875 25.484375 
L 43.21875 27.484375 
z
M 52.203125 31.203125 
L 52.203125 0 
L 43.21875 0 
L 43.21875 8.296875 
Q 40.140625 3.328125 35.546875 0.953125 
Q 30.953125 -1.421875 24.3125 -1.421875 
Q 15.921875 -1.421875 10.953125 3.296875 
Q 6 8.015625 6 15.921875 
Q 6 25.140625 12.171875 29.828125 
Q 18.359375 34.515625 30.609375 34.515625 
L 43.21875 34.515625 
L 43.21875 35.40625 
Q 43.21875 41.609375 39.140625 45 
Q 35.0625 48.390625 27.6875 48.390625 
Q 23 48.390625 18.546875 47.265625 
Q 14.109375 46.140625 10.015625 43.890625 
L 10.015625 52.203125 
Q 14.9375 54.109375 19.578125 55.046875 
Q 24.21875 56 28.609375 56 
Q 40.484375 56 46.34375 49.84375 
Q 52.203125 43.703125 52.203125 31.203125 
z
" id="DejaVuSans-97"/>
       <path d="M 8.5 21.578125 
L 8.5 54.6875 
L 17.484375 54.6875 
L 17.484375 21.921875 
Q 17.484375 14.15625 20.5 10.265625 
Q 23.53125 6.390625 29.59375 6.390625 
Q 36.859375 6.390625 41.078125 11.03125 
Q 45.3125 15.671875 45.3125 23.6875 
L 45.3125 54.6875 
L 54.296875 54.6875 
L 54.296875 0 
L 45.3125 0 
L 45.3125 8.40625 
Q 42.046875 3.421875 37.71875 1 
Q 33.40625 -1.421875 27.6875 -1.421875 
Q 18.265625 -1.421875 13.375 4.4375 
Q 8.5 10.296875 8.5 21.578125 
z
M 31.109375 56 
z
" id="DejaVuSans-117"/>
       <path id="DejaVuSans-32"/>
       <path d="M 37.109375 75.984375 
L 37.109375 68.5 
L 28.515625 68.5 
Q 23.6875 68.5 21.796875 66.546875 
Q 19.921875 64.59375 19.921875 59.515625 
L 19.921875 54.6875 
L 34.71875 54.6875 
L 34.71875 47.703125 
L 19.921875 47.703125 
L 19.921875 0 
L 10.890625 0 
L 10.890625 47.703125 
L 2.296875 47.703125 
L 2.296875 54.6875 
L 10.890625 54.6875 
L 10.890625 58.5 
Q 10.890625 67.625 15.140625 71.796875 
Q 19.390625 75.984375 28.609375 75.984375 
z
" id="DejaVuSans-102"/>
       <path d="M 30.609375 48.390625 
Q 23.390625 48.390625 19.1875 42.75 
Q 14.984375 37.109375 14.984375 27.296875 
Q 14.984375 17.484375 19.15625 11.84375 
Q 23.34375 6.203125 30.609375 6.203125 
Q 37.796875 6.203125 41.984375 11.859375 
Q 46.1875 17.53125 46.1875 27.296875 
Q 46.1875 37.015625 41.984375 42.703125 
Q 37.796875 48.390625 30.609375 48.390625 
z
M 30.609375 56 
Q 42.328125 56 49.015625 48.375 
Q 55.71875 40.765625 55.71875 27.296875 
Q 55.71875 13.875 49.015625 6.21875 
Q 42.328125 -1.421875 30.609375 -1.421875 
Q 18.84375 -1.421875 12.171875 6.21875 
Q 5.515625 13.875 5.515625 27.296875 
Q 5.515625 40.765625 12.171875 48.375 
Q 18.84375 56 30.609375 56 
z
" id="DejaVuSans-111"/>
       <path d="M 39.40625 66.21875 
Q 28.65625 66.21875 22.328125 58.203125 
Q 16.015625 50.203125 16.015625 36.375 
Q 16.015625 22.609375 22.328125 14.59375 
Q 28.65625 6.59375 39.40625 6.59375 
Q 50.140625 6.59375 56.421875 14.59375 
Q 62.703125 22.609375 62.703125 36.375 
Q 62.703125 50.203125 56.421875 58.203125 
Q 50.140625 66.21875 39.40625 66.21875 
z
M 39.40625 74.21875 
Q 54.734375 74.21875 63.90625 63.9375 
Q 73.09375 53.65625 73.09375 36.375 
Q 73.09375 19.140625 63.90625 8.859375 
Q 54.734375 -1.421875 39.40625 -1.421875 
Q 24.03125 -1.421875 14.8125 8.828125 
Q 5.609375 19.09375 5.609375 36.375 
Q 5.609375 53.65625 14.8125 63.9375 
Q 24.03125 74.21875 39.40625 74.21875 
z
" id="DejaVuSans-79"/>
       <path d="M 54.890625 33.015625 
L 54.890625 0 
L 45.90625 0 
L 45.90625 32.71875 
Q 45.90625 40.484375 42.875 44.328125 
Q 39.84375 48.1875 33.796875 48.1875 
Q 26.515625 48.1875 22.3125 43.546875 
Q 18.109375 38.921875 18.109375 30.90625 
L 18.109375 0 
L 9.078125 0 
L 9.078125 54.6875 
L 18.109375 54.6875 
L 18.109375 46.1875 
Q 21.34375 51.125 25.703125 53.5625 
Q 30.078125 56 35.796875 56 
Q 45.21875 56 50.046875 50.171875 
Q 54.890625 44.34375 54.890625 33.015625 
z
" id="DejaVuSans-110"/>
       <path d="M 3.328125 72.90625 
L 13.28125 72.90625 
L 28.609375 11.28125 
L 43.890625 72.90625 
L 54.984375 72.90625 
L 70.3125 11.28125 
L 85.59375 72.90625 
L 95.609375 72.90625 
L 77.296875 0 
L 64.890625 0 
L 49.515625 63.28125 
L 33.984375 0 
L 21.578125 0 
z
" id="DejaVuSans-87"/>
       <path d="M 54.890625 33.015625 
L 54.890625 0 
L 45.90625 0 
L 45.90625 32.71875 
Q 45.90625 40.484375 42.875 44.328125 
Q 39.84375 48.1875 33.796875 48.1875 
Q 26.515625 48.1875 22.3125 43.546875 
Q 18.109375 38.921875 18.109375 30.90625 
L 18.109375 0 
L 9.078125 0 
L 9.078125 75.984375 
L 18.109375 75.984375 
L 18.109375 46.1875 
Q 21.34375 51.125 25.703125 53.5625 
Q 30.078125 56 35.796875 56 
Q 45.21875 56 50.046875 50.171875 
Q 54.890625 44.34375 54.890625 33.015625 
z
" id="DejaVuSans-104"/>
       <path d="M 9.8125 72.90625 
L 24.515625 72.90625 
L 43.109375 23.296875 
L 61.8125 72.90625 
L 76.515625 72.90625 
L 76.515625 0 
L 66.890625 0 
L 66.890625 64.015625 
L 48.09375 14.015625 
L 38.1875 14.015625 
L 19.390625 64.015625 
L 19.390625 0 
L 9.8125 0 
z
" id="DejaVuSans-77"/>
      </defs>
      <use xlink:href="#DejaVuSans-116"/>
      <use x="39.208984" xlink:href="#DejaVuSans-101"/>
      <use x="100.732422" xlink:href="#DejaVuSans-109"/>
      <use x="198.144531" xlink:href="#DejaVuSans-112"/>
      <use x="261.621094" xlink:href="#DejaVuSans-101"/>
      <use x="323.144531" xlink:href="#DejaVuSans-114"/>
      <use x="364.257812" xlink:href="#DejaVuSans-97"/>
      <use x="425.537109" xlink:href="#DejaVuSans-116"/>
      <use x="464.746094" xlink:href="#DejaVuSans-117"/>
      <use x="528.125" xlink:href="#DejaVuSans-114"/>
      <use x="566.988281" xlink:href="#DejaVuSans-101"/>
      <use x="628.511719" xlink:href="#DejaVuSans-32"/>
      <use x="660.298828" xlink:href="#DejaVuSans-102"/>
      <use x="695.503906" xlink:href="#DejaVuSans-114"/>
      <use x="734.367188" xlink:href="#DejaVuSans-111"/>
      <use x="795.548828" xlink:href="#DejaVuSans-109"/>
      <use x="892.960938" xlink:href="#DejaVuSans-32"/>
      <use x="924.748047" xlink:href="#DejaVuSans-79"/>
      <use x="1003.458984" xlink:href="#DejaVuSans-112"/>
      <use x="1066.935547" xlink:href="#DejaVuSans-101"/>
      <use x="1128.458984" xlink:href="#DejaVuSans-110"/>
      <use x="1191.837891" xlink:href="#DejaVuSans-87"/>
      <use x="1284.839844" xlink:href="#DejaVuSans-101"/>
      <use x="1346.363281" xlink:href="#DejaVuSans-97"/>
      <use x="1407.642578" xlink:href="#DejaVuSans-116"/>
      <use x="1446.851562" xlink:href="#DejaVuSans-104"/>
      <use x="1510.230469" xlink:href="#DejaVuSans-101"/>
      <use x="1571.753906" xlink:href="#DejaVuSans-114"/>
      <use x="1612.867188" xlink:href="#DejaVuSans-77"/>
      <use x="1699.146484" xlink:href="#DejaVuSans-97"/>
      <use x="1760.425781" xlink:href="#DejaVuSans-112"/>
     </g>
    </g>
   </g>
   <g id="matplotlib.axis_2">
    <g id="ytick_1">
     <g id="line2d_9">
      <defs>
       <path d="M 0 0 
L -3.5 0 
" id="md94549f858" style="stroke:#000000;stroke-width:0.8;"/>
      </defs>
      <g>
       <use style="stroke:#000000;stroke-width:0.8;" x="57.6" xlink:href="#md94549f858" y="296.467021"/>
      </g>
     </g>
     <g id="text_10">
      <!-- 0.0 -->
      <g transform="translate(34.696875 300.26624)scale(0.1 -0.1)">
       <defs>
        <path d="M 10.6875 12.40625 
L 21 12.40625 
L 21 0 
L 10.6875 0 
z
" id="DejaVuSans-46"/>
       </defs>
       <use xlink:href="#DejaVuSans-48"/>
       <use x="63.623047" xlink:href="#DejaVuSans-46"/>
       <use x="95.410156" xlink:href="#DejaVuSans-48"/>
      </g>
     </g>
    </g>
    <g id="ytick_2">
     <g id="line2d_10">
      <g>
       <use style="stroke:#000000;stroke-width:0.8;" x="57.6" xlink:href="#md94549f858" y="262.656625"/>
      </g>
     </g>
     <g id="text_11">
      <!-- 0.2 -->
      <g transform="translate(34.696875 266.455844)scale(0.1 -0.1)">
       <use xlink:href="#DejaVuSans-48"/>
       <use x="63.623047" xlink:href="#DejaVuSans-46"/>
       <use x="95.410156" xlink:href="#DejaVuSans-50"/>
      </g>
     </g>
    </g>
    <g id="ytick_3">
     <g id="line2d_11">
      <g>
       <use style="stroke:#000000;stroke-width:0.8;" x="57.6" xlink:href="#md94549f858" y="228.84623"/>
      </g>
     </g>
     <g id="text_12">
      <!-- 0.4 -->
      <g transform="translate(34.696875 232.645448)scale(0.1 -0.1)">
       <use xlink:href="#DejaVuSans-48"/>
       <use x="63.623047" xlink:href="#DejaVuSans-46"/>
       <use x="95.410156" xlink:href="#DejaVuSans-52"/>
      </g>
     </g>
    </g>
    <g id="ytick_4">
     <g id="line2d_12">
      <g>
       <use style="stroke:#000000;stroke-width:0.8;" x="57.6" xlink:href="#md94549f858" y="195.035834"/>
      </g>
     </g>
     <g id="text_13">
      <!-- 0.6 -->
      <g transform="translate(34.696875 198.835053)scale(0.1 -0.1)">
       <use xlink:href="#DejaVuSans-48"/>
       <use x="63.623047" xlink:href="#DejaVuSans-46"/>
       <use x="95.410156" xlink:href="#DejaVuSans-54"/>
      </g>
     </g>
    </g>
    <g id="ytick_5">
     <g id="line2d_13">
      <g>
       <use style="stroke:#000000;stroke-width:0.8;" x="57.6" xlink:href="#md94549f858" y="161.225438"/>
      </g>
     </g>
     <g id="text_14">
      <!-- 0.8 -->
      <g transform="translate(34.696875 165.024657)scale(0.1 -0.1)">
       <use xlink:href="#DejaVuSans-48"/>
       <use x="63.623047" xlink:href="#DejaVuSans-46"/>
       <use x="95.410156" xlink:href="#DejaVuSans-56"/>
      </g>
     </g>
    </g>
    <g id="ytick_6">
     <g id="line2d_14">
      <g>
       <use style="stroke:#000000;stroke-width:0.8;" x="57.6" xlink:href="#md94549f858" y="127.415043"/>
      </g>
     </g>
     <g id="text_15">
      <!-- 1.0 -->
      <g transform="translate(34.696875 131.214261)scale(0.1 -0.1)">
       <use xlink:href="#DejaVuSans-49"/>
       <use x="63.623047" xlink:href="#DejaVuSans-46"/>
       <use x="95.410156" xlink:href="#DejaVuSans-48"/>
      </g>
     </g>
    </g>
    <g id="ytick_7">
     <g id="line2d_15">
      <g>
       <use style="stroke:#000000;stroke-width:0.8;" x="57.6" xlink:href="#md94549f858" y="93.604647"/>
      </g>
     </g>
     <g id="text_16">
      <!-- 1.2 -->
      <g transform="translate(34.696875 97.403866)scale(0.1 -0.1)">
       <use xlink:href="#DejaVuSans-49"/>
       <use x="63.623047" xlink:href="#DejaVuSans-46"/>
       <use x="95.410156" xlink:href="#DejaVuSans-50"/>
      </g>
     </g>
    </g>
    <g id="ytick_8">
     <g id="line2d_16">
      <g>
       <use style="stroke:#000000;stroke-width:0.8;" x="57.6" xlink:href="#md94549f858" y="59.794251"/>
      </g>
     </g>
     <g id="text_17">
      <!-- 1.4 -->
      <g transform="translate(34.696875 63.59347)scale(0.1 -0.1)">
       <use xlink:href="#DejaVuSans-49"/>
       <use x="63.623047" xlink:href="#DejaVuSans-46"/>
       <use x="95.410156" xlink:href="#DejaVuSans-52"/>
      </g>
     </g>
    </g>
    <g id="text_18">
     <!-- 1e7 -->
     <g transform="translate(57.6 38.472)scale(0.1 -0.1)">
      <defs>
       <path d="M 8.203125 72.90625 
L 55.078125 72.90625 
L 55.078125 68.703125 
L 28.609375 0 
L 18.3125 0 
L 43.21875 64.59375 
L 8.203125 64.59375 
z
" id="DejaVuSans-55"/>
      </defs>
      <use xlink:href="#DejaVuSans-49"/>
      <use x="63.623047" xlink:href="#DejaVuSans-101"/>
      <use x="125.146484" xlink:href="#DejaVuSans-55"/>
     </g>
    </g>
   </g>
   <g id="line2d_17">
    <path clip-path="url(#p7b8510adf1)" d="M 73.832727 71.218252 
L 75.470329 72.548417 
L 76.28913 70.584471 
L 77.722031 72.450956 
L 79.769034 72.445355 
L 80.383134 67.848381 
L 81.201935 76.853089 
L 82.020736 69.222182 
L 83.248937 69.212342 
L 83.863038 97.998865 
L 84.477139 69.802786 
L 84.681839 76.65674 
L 85.295939 66.373596 
L 86.728841 71.272061 
L 87.547642 128.553402 
L 88.161743 118.168934 
L 89.389944 74.207919 
L 91.641646 161.057788 
L 95.53095 90.854313 
L 95.940351 72.151239 
L 99.829655 104.47388 
L 101.467257 139.319977 
L 101.876657 123.557891 
L 102.900158 165.371521 
L 103.514259 133.54491 
L 104.94716 69.115794 
L 109.655265 66.668596 
L 110.883467 70.781197 
L 112.930469 70.099869 
L 113.74927 174.667066 
L 114.36337 99.080302 
L 115.182171 108.965433 
L 116.615073 122.095953 
L 121.937278 70.39344 
L 122.346679 70.004179 
L 123.77958 72.739985 
L 124.188981 70.878477 
L 127.464184 161.749326 
L 127.873585 73.920327 
L 128.282985 91.339888 
L 128.897086 70.101024 
L 129.306486 71.861233 
L 129.715887 84.488351 
L 130.329987 68.728314 
L 130.944088 73.526128 
L 131.148788 72.345382 
L 131.353488 91.538931 
L 131.558189 53.568 
L 131.762889 75.483487 
L 131.967589 70.78113 
L 132.37699 118.756976 
L 132.58169 82.241975 
L 132.78639 82.827592 
L 132.99109 74.017702 
L 133.605191 81.158839 
L 134.014591 101.526183 
L 134.423992 93.792144 
L 134.833392 98.783864 
L 135.038092 90.281755 
L 135.242793 67.849707 
L 135.652193 81.071201 
L 136.061593 108.772105 
L 136.266294 85.468121 
L 136.470994 87.732355 
L 137.903895 66.474682 
L 138.517996 113.570573 
L 138.722696 70.291278 
L 139.132097 74.406718 
L 139.336797 65.595978 
L 139.541497 89.480188 
L 140.360298 67.454247 
L 140.974399 73.232822 
L 141.179099 74.014899 
L 141.383799 80.183938 
L 141.588499 100.667715 
L 141.7932 142.842359 
L 142.2026 72.64335 
L 142.4073 66.281024 
L 143.430801 75.677916 
L 143.635502 73.716357 
L 144.044902 103.289663 
L 144.454302 63.350466 
L 145.273103 68.624845 
L 145.477804 72.057591 
L 145.682504 183.674486 
L 146.091904 72.640082 
L 146.910705 73.329393 
L 147.320105 71.955057 
L 147.524806 65.298736 
L 147.729506 70.391699 
L 147.934206 70.879673 
L 148.343607 79.984763 
L 148.957707 70.396605 
L 149.162407 70.395068 
L 149.571808 72.151576 
L 149.776508 71.17611 
L 149.981208 72.449119 
L 150.185909 69.212888 
L 150.390609 96.924923 
L 150.595309 73.618356 
L 151.004709 121.108527 
L 151.61881 72.936143 
L 151.82351 72.447058 
L 152.232911 70.390162 
L 152.437611 84.097129 
L 152.642311 68.536551 
L 153.256412 70.586504 
L 153.461112 70.494649 
L 153.870512 67.651029 
L 154.484613 80.190923 
L 154.894014 74.014209 
L 155.098714 73.425564 
L 155.712814 129.528467 
L 155.917515 107.12311 
L 156.122215 61.673228 
L 156.326915 68.920403 
L 156.531615 70.689698 
L 156.941016 62.468414 
L 157.759817 73.920282 
L 157.964517 80.77185 
L 158.373917 78.025376 
L 158.578617 85.564029 
L 158.783318 77.534787 
L 158.988018 104.661042 
L 159.192718 70.193141 
L 159.397418 107.207312 
L 159.602119 74.112454 
L 159.806819 79.300924 
L 160.216219 85.76885 
L 160.420919 128.253654 
L 160.62562 77.733302 
L 160.83032 73.132813 
L 161.03502 90.073813 
L 161.23972 69.899156 
L 161.44442 163.69887 
L 161.649121 68.919401 
L 161.853821 76.951263 
L 162.058521 68.234405 
L 162.467922 82.730644 
L 162.672622 79.611332 
L 163.082022 172.316371 
L 163.286722 67.750723 
L 163.491423 68.039266 
L 163.696123 104.865925 
L 163.900823 79.886093 
L 164.105523 129.919845 
L 164.310224 70.39084 
L 164.514924 104.466623 
L 165.129024 72.933214 
L 165.333725 86.665044 
L 165.538425 91.445058 
L 165.743125 63.735578 
L 165.947825 69.703491 
L 166.561926 75.388959 
L 166.971326 143.23833 
L 167.380727 70.783657 
L 167.585427 73.525638 
L 167.994827 105.247681 
L 168.199528 74.605289 
L 168.404228 79.498395 
L 168.608928 73.03669 
L 169.018329 77.735205 
L 169.223029 88.109706 
L 169.427729 63.535053 
L 169.632429 111.221059 
L 170.04183 74.210386 
L 170.24653 69.121955 
L 170.45123 68.730773 
L 170.65593 70.984574 
L 170.860631 76.659048 
L 171.065331 70.979703 
L 171.270031 76.363183 
L 171.474731 76.55696 
L 171.679431 69.024523 
L 172.088832 71.468737 
L 172.293532 70.78289 
L 172.702932 86.347306 
L 172.907633 71.765367 
L 173.317033 76.951592 
L 173.521733 90.754942 
L 173.726434 66.76761 
L 173.931134 78.12558 
L 174.135834 75.969466 
L 174.340534 75.970613 
L 174.545234 81.553839 
L 174.749935 75.292045 
L 175.159335 80.378569 
L 175.364035 115.92172 
L 175.568736 87.328269 
L 175.978136 77.047726 
L 176.182836 79.017172 
L 176.387536 112.68916 
L 176.592237 114.937142 
L 177.001637 78.418659 
L 177.411037 75.382415 
L 177.615738 79.009714 
L 178.025138 156.558261 
L 178.229838 168.986046 
L 178.434539 79.298666 
L 178.639239 76.070904 
L 179.048639 76.965025 
L 179.253339 75.479465 
L 179.45804 78.516592 
L 179.66274 149.310703 
L 179.86744 89.48203 
L 180.07214 69.707958 
L 180.276841 71.371569 
L 180.686241 114.653204 
L 181.300342 76.261925 
L 181.505042 78.906714 
L 181.709742 90.855238 
L 182.119142 72.740813 
L 182.323843 187.197625 
L 182.528543 79.005865 
L 182.733243 72.838321 
L 182.937943 91.346349 
L 183.142644 73.524077 
L 183.347344 72.250003 
L 183.552044 78.333595 
L 183.756744 163.509681 
L 183.961444 76.849949 
L 184.166145 74.10854 
L 184.780245 80.971506 
L 184.984946 154.787538 
L 185.189646 94.779579 
L 185.394346 71.080138 
L 185.803746 84.487482 
L 186.008447 70.094957 
L 186.213147 80.179958 
L 186.417847 79.396621 
L 186.622547 74.303254 
L 187.236648 188.76811 
L 187.441348 68.240864 
L 187.646048 109.16135 
L 187.850749 81.158774 
L 188.055449 78.80976 
L 188.260149 97.413442 
L 188.669549 110.731118 
L 188.87425 102.016282 
L 189.07895 70.785869 
L 189.28365 74.504495 
L 189.693051 72.257424 
L 190.102451 67.745646 
L 190.307151 68.429636 
L 190.511851 78.812959 
L 190.716552 80.081592 
L 190.921252 91.152994 
L 191.125952 71.269426 
L 191.330652 74.018503 
L 191.535353 179.75606 
L 191.944753 66.674685 
L 192.149453 74.11172 
L 192.968254 76.264633 
L 193.172954 71.17415 
L 193.991755 70.292274 
L 194.196455 73.425787 
L 194.401156 143.627539 
L 194.605856 74.408006 
L 195.424657 76.947795 
L 196.038757 77.143597 
L 196.243458 77.734789 
L 196.448158 76.947531 
L 196.652858 75.680146 
L 197.062258 76.269632 
L 197.266959 80.180694 
L 197.471659 148.044499 
L 198.085759 74.499745 
L 198.90456 83.216417 
L 199.518661 112.784627 
L 200.337462 71.961388 
L 200.542162 71.958716 
L 200.746862 74.797671 
L 201.156263 144.214001 
L 201.360963 121.59586 
L 201.565663 73.430471 
L 201.770363 76.363403 
L 201.975064 77.442415 
L 202.384464 66.378013 
L 203.407965 68.044429 
L 204.022066 78.416151 
L 204.431466 75.185817 
L 204.636166 79.29771 
L 205.045567 76.068811 
L 205.250267 90.950005 
L 205.659668 81.550014 
L 205.864368 66.47206 
L 206.069068 71.664198 
L 206.273768 97.411213 
L 206.478468 73.232934 
L 206.683169 69.609345 
L 207.092569 72.546782 
L 207.297269 78.025157 
L 207.50197 187.590175 
L 207.70667 77.340737 
L 207.91137 71.957661 
L 208.11607 92.420172 
L 208.525471 73.132434 
L 208.730171 71.370759 
L 208.934871 74.40614 
L 209.344271 110.147234 
L 209.548972 76.361818 
L 210.163072 69.704081 
L 210.367773 75.385576 
L 210.572473 74.899503 
L 210.777173 72.834989 
L 210.981873 77.04619 
L 211.595974 81.653446 
L 211.800674 77.829661 
L 212.210075 98.002636 
L 212.824175 66.385215 
L 213.028875 84.193067 
L 213.233576 73.336823 
L 213.438276 80.085141 
L 213.847676 66.866738 
L 214.257077 79.69027 
L 214.666477 60.302739 
L 214.871177 110.242032 
L 215.689978 72.253097 
L 216.099379 74.69568 
L 216.304079 67.847261 
L 216.508779 100.747083 
L 217.12288 82.333995 
L 217.32758 155.573192 
L 217.53228 68.337951 
L 217.73698 74.205986 
L 219.169882 70.192394 
L 219.783983 71.564196 
L 220.193383 69.512979 
L 220.398083 75.87054 
L 220.602783 105.060779 
L 222.035685 70.781197 
L 222.240385 74.112787 
L 222.445085 91.245751 
L 222.854486 76.658586 
L 223.059186 75.875966 
L 223.673287 70.001439 
L 224.082687 110.438076 
L 224.287387 113.867554 
L 224.696788 77.050337 
L 225.515589 83.609147 
L 226.53909 70.196421 
L 226.94849 125.220529 
L 227.767291 69.016654 
L 228.176692 70.977358 
L 228.381392 82.433213 
L 229.404893 105.832361 
L 229.814293 68.434333 
L 230.018993 95.754711 
L 230.223694 66.766025 
L 230.633094 128.549993 
L 231.042495 79.30062 
L 232.065996 96.83386 
L 232.270696 65.787646 
L 232.475396 71.373055 
L 232.884797 103.20157 
L 233.089497 74.306364 
L 233.294197 69.118863 
L 233.498897 72.835995 
L 234.522398 71.763862 
L 234.931799 81.160152 
L 235.545899 113.47162 
L 235.7506 74.017034 
L 235.9553 78.81013 
L 236.16 72.745108 
L 237.183501 73.82126 
L 237.388201 77.34536 
L 237.797602 74.601251 
L 238.002302 78.124205 
L 238.207002 69.315729 
L 238.411702 74.11003 
L 238.616403 88.500981 
L 238.821103 78.710694 
L 239.025803 76.852672 
L 239.230503 77.735292 
L 239.435203 72.056604 
L 240.049304 69.508508 
L 240.254004 80.182078 
L 240.663405 92.711807 
L 241.072805 92.127113 
L 241.277505 66.577673 
L 242.505707 68.436043 
L 242.710407 67.450354 
L 243.529208 83.60804 
L 243.733908 72.644334 
L 244.962109 95.453066 
L 245.37151 74.01263 
L 245.57621 77.732099 
L 245.78091 74.499257 
L 246.190311 78.61361 
L 246.395011 77.33929 
L 246.599711 74.412735 
L 247.213812 295.487993 
L 247.418512 295.487993 
L 247.623212 90.067621 
L 248.032613 295.448825 
L 248.237313 295.487993 
L 248.442013 72.543849 
L 249.874915 69.513864 
L 250.489015 76.168881 
L 250.693715 70.587046 
L 251.512516 159.491396 
L 252.126617 98.980812 
L 253.354818 79.005952 
L 253.559519 69.513501 
L 253.764219 80.572512 
L 253.968919 73.912204 
L 254.173619 76.565096 
L 254.78772 178.294601 
L 255.40182 66.968435 
L 256.015921 145.877916 
L 256.220621 89.9758 
L 256.425322 87.534455 
L 256.834722 74.698075 
L 257.244122 73.623147 
L 257.448823 67.065082 
L 257.858223 295.48799 
L 258.062923 69.420132 
L 259.086424 217.648541 
L 259.291125 88.699901 
L 259.495825 295.488 
L 259.700525 295.487993 
L 259.905225 92.910705 
L 260.109925 159.783006 
L 260.314626 126.789974 
L 260.724026 93.201591 
L 260.928726 160.957724 
L 261.133427 142.451048 
L 261.338127 76.949551 
L 261.542827 89.507651 
L 261.747527 156.260573 
L 261.952227 75.871731 
L 262.156928 188.959056 
L 262.771028 65.206351 
L 263.385129 295.096384 
L 263.794529 115.922081 
L 263.99923 160.566309 
L 264.40863 119.637352 
L 264.61333 80.87045 
L 264.81803 76.752234 
L 266.046232 89.58199 
L 266.250932 119.051403 
L 267.683834 161.056096 
L 267.888534 68.437275 
L 268.297934 67.949193 
L 268.707335 141.374773 
L 269.116735 93.226549 
L 269.526136 69.902532 
L 269.730836 76.949749 
L 271.368437 71.959906 
L 271.777838 77.735598 
L 273.82484 70.688727 
L 274.02954 68.337427 
L 274.643641 116.799241 
L 274.848341 67.750929 
L 276.281243 61.780457 
L 276.485943 77.339312 
L 276.690643 82.336972 
L 276.895343 83.121983 
L 278.328245 67.356795 
L 278.737645 84.78253 
L 279.761146 71.567097 
L 279.965847 74.305142 
L 280.375247 73.717627 
L 281.194048 97.514357 
L 282.217549 70.885222 
L 282.422249 71.568919 
L 282.626949 65.304746 
L 283.03635 70.395361 
L 284.059851 90.462588 
L 284.264551 71.075698 
L 284.878652 101.230478 
L 285.288052 69.217841 
L 285.492752 82.345472 
L 286.106853 80.475465 
L 286.311553 72.058422 
L 286.925654 283.934515 
L 287.539755 290.984435 
L 287.949155 66.572156 
L 288.358556 97.714191 
L 288.767956 73.916722 
L 289.791457 72.053485 
L 289.996157 66.870274 
L 290.405558 71.66485 
L 290.814958 72.445848 
L 291.019658 132.312478 
L 291.633759 126.688516 
L 291.838459 71.077907 
L 292.45256 73.424873 
L 292.86196 71.861075 
L 293.066661 72.739963 
L 293.271361 92.614914 
L 293.476061 69.7078 
L 293.680761 72.251528 
L 293.885461 69.214069 
L 294.090162 167.81777 
L 294.294862 72.254913 
L 294.908963 74.306542 
L 295.113663 218.628851 
L 295.523063 294.704761 
L 295.727763 68.532175 
L 296.137164 69.703537 
L 297.160665 295.096389 
L 297.570065 132.956388 
L 297.979466 69.709931 
L 298.388866 67.260168 
L 298.798267 67.061297 
L 299.002967 68.429043 
L 299.207667 137.754894 
L 300.845269 291.571851 
L 301.049969 295.48799 
L 301.459369 72.740813 
L 301.66407 62.946229 
L 301.86877 72.247313 
L 302.07347 88.206744 
L 302.27817 72.938758 
L 302.482871 76.465824 
L 303.301671 295.487992 
L 303.711072 71.467635 
L 304.325173 71.665457 
L 305.553374 68.535685 
L 305.962774 105.65247 
L 306.167474 69.31666 
L 306.576875 66.866922 
L 306.781575 74.70036 
L 307.190976 71.080566 
L 308.214477 72.645342 
L 310.261479 72.153236 
L 310.670879 71.567007 
L 314.150783 72.741752 
L 314.969584 69.125319 
L 315.993085 68.141516 
L 316.402485 76.360806 
L 317.630687 68.042053 
L 318.244787 74.604956 
L 318.449488 69.511798 
L 319.063588 69.705396 
L 321.519991 75.972178 
L 324.181094 71.56667 
L 324.795194 79.199363 
L 325.409295 71.866825 
L 327.660997 68.528391 
L 328.070398 68.136082 
L 328.684498 82.336372 
L 329.708 75.870562 
L 330.1174 71.562959 
L 330.5268 74.013876 
L 331.345601 76.06956 
L 333.392603 74.990658 
L 333.597304 98.297318 
L 334.416105 77.050315 
L 335.439606 75.08806 
L 335.644306 77.247889 
L 335.849006 116.5158 
L 337.281908 75.48236 
L 337.486608 65.8898 
L 337.896008 72.83519 
L 338.919509 131.975243 
L 339.12421 74.79776 
L 339.73831 72.348497 
L 340.557111 72.263455 
L 341.785312 73.622032 
L 342.399413 76.360608 
L 342.604113 78.421275 
L 342.808813 76.360982 
L 343.013514 80.573721 
L 344.241715 80.766868 
L 344.446415 82.136886 
L 344.651115 80.570332 
L 345.879317 73.1323 
L 349.768621 69.515929 
L 352.020323 69.212842 
L 353.862625 71.866241 
L 356.319028 70.584719 
L 371.876244 66.671767 
L 384.362958 71.465767 
L 394.597969 82.435374 
L 398.487273 72.05528 
L 398.487273 72.05528 
" style="fill:none;stroke:#0000ff;stroke-linecap:square;stroke-width:1.5;"/>
   </g>
   <g id="patch_3">
    <path d="M 57.6 307.584 
L 57.6 41.472 
" style="fill:none;stroke:#000000;stroke-linecap:square;stroke-linejoin:miter;stroke-width:0.8;"/>
   </g>
   <g id="patch_4">
    <path d="M 414.72 307.584 
L 414.72 41.472 
" style="fill:none;stroke:#000000;stroke-linecap:square;stroke-linejoin:miter;stroke-width:0.8;"/>
   </g>
   <g id="patch_5">
    <path d="M 57.6 307.584 
L 414.72 307.584 
" style="fill:none;stroke:#000000;stroke-linecap:square;stroke-linejoin:miter;stroke-width:0.8;"/>
   </g>
   <g id="patch_6">
    <path d="M 57.6 41.472 
L 414.72 41.472 
" style="fill:none;stroke:#000000;stroke-linecap:square;stroke-linejoin:miter;stroke-width:0.8;"/>
   </g>
   <g id="text_19">
    <!-- temperature-&gt;Throughput_night -->
    <g transform="translate(137.975625 35.472)scale(0.12 -0.12)">
     <defs>
      <path d="M 4.890625 31.390625 
L 31.203125 31.390625 
L 31.203125 23.390625 
L 4.890625 23.390625 
z
" id="DejaVuSans-45"/>
      <path d="M 10.59375 49.21875 
L 10.59375 58.109375 
L 73.1875 35.40625 
L 73.1875 27.296875 
L 10.59375 4.59375 
L 10.59375 13.484375 
L 60.890625 31.296875 
z
" id="DejaVuSans-62"/>
      <path d="M -0.296875 72.90625 
L 61.375 72.90625 
L 61.375 64.59375 
L 35.5 64.59375 
L 35.5 0 
L 25.59375 0 
L 25.59375 64.59375 
L -0.296875 64.59375 
z
" id="DejaVuSans-84"/>
      <path d="M 45.40625 27.984375 
Q 45.40625 37.75 41.375 43.109375 
Q 37.359375 48.484375 30.078125 48.484375 
Q 22.859375 48.484375 18.828125 43.109375 
Q 14.796875 37.75 14.796875 27.984375 
Q 14.796875 18.265625 18.828125 12.890625 
Q 22.859375 7.515625 30.078125 7.515625 
Q 37.359375 7.515625 41.375 12.890625 
Q 45.40625 18.265625 45.40625 27.984375 
z
M 54.390625 6.78125 
Q 54.390625 -7.171875 48.1875 -13.984375 
Q 42 -20.796875 29.203125 -20.796875 
Q 24.46875 -20.796875 20.265625 -20.09375 
Q 16.0625 -19.390625 12.109375 -17.921875 
L 12.109375 -9.1875 
Q 16.0625 -11.328125 19.921875 -12.34375 
Q 23.78125 -13.375 27.78125 -13.375 
Q 36.625 -13.375 41.015625 -8.765625 
Q 45.40625 -4.15625 45.40625 5.171875 
L 45.40625 9.625 
Q 42.625 4.78125 38.28125 2.390625 
Q 33.9375 0 27.875 0 
Q 17.828125 0 11.671875 7.65625 
Q 5.515625 15.328125 5.515625 27.984375 
Q 5.515625 40.671875 11.671875 48.328125 
Q 17.828125 56 27.875 56 
Q 33.9375 56 38.28125 53.609375 
Q 42.625 51.21875 45.40625 46.390625 
L 45.40625 54.6875 
L 54.390625 54.6875 
z
" id="DejaVuSans-103"/>
      <path d="M 50.984375 -16.609375 
L 50.984375 -23.578125 
L -0.984375 -23.578125 
L -0.984375 -16.609375 
z
" id="DejaVuSans-95"/>
      <path d="M 9.421875 54.6875 
L 18.40625 54.6875 
L 18.40625 0 
L 9.421875 0 
z
M 9.421875 75.984375 
L 18.40625 75.984375 
L 18.40625 64.59375 
L 9.421875 64.59375 
z
" id="DejaVuSans-105"/>
     </defs>
     <use xlink:href="#DejaVuSans-116"/>
     <use x="39.208984" xlink:href="#DejaVuSans-101"/>
     <use x="100.732422" xlink:href="#DejaVuSans-109"/>
     <use x="198.144531" xlink:href="#DejaVuSans-112"/>
     <use x="261.621094" xlink:href="#DejaVuSans-101"/>
     <use x="323.144531" xlink:href="#DejaVuSans-114"/>
     <use x="364.257812" xlink:href="#DejaVuSans-97"/>
     <use x="425.537109" xlink:href="#DejaVuSans-116"/>
     <use x="464.746094" xlink:href="#DejaVuSans-117"/>
     <use x="528.125" xlink:href="#DejaVuSans-114"/>
     <use x="566.988281" xlink:href="#DejaVuSans-101"/>
     <use x="628.511719" xlink:href="#DejaVuSans-45"/>
     <use x="664.595703" xlink:href="#DejaVuSans-62"/>
     <use x="748.384766" xlink:href="#DejaVuSans-84"/>
     <use x="809.46875" xlink:href="#DejaVuSans-104"/>
     <use x="872.847656" xlink:href="#DejaVuSans-114"/>
     <use x="911.710938" xlink:href="#DejaVuSans-111"/>
     <use x="972.892578" xlink:href="#DejaVuSans-117"/>
     <use x="1036.271484" xlink:href="#DejaVuSans-103"/>
     <use x="1099.748047" xlink:href="#DejaVuSans-104"/>
     <use x="1163.126953" xlink:href="#DejaVuSans-112"/>
     <use x="1226.603516" xlink:href="#DejaVuSans-117"/>
     <use x="1289.982422" xlink:href="#DejaVuSans-116"/>
     <use x="1329.191406" xlink:href="#DejaVuSans-95"/>
     <use x="1379.191406" xlink:href="#DejaVuSans-110"/>
     <use x="1442.570312" xlink:href="#DejaVuSans-105"/>
     <use x="1470.353516" xlink:href="#DejaVuSans-103"/>
     <use x="1533.830078" xlink:href="#DejaVuSans-104"/>
     <use x="1597.208984" xlink:href="#DejaVuSans-116"/>
    </g>
   </g>
  </g>
  <g id="legend_1">
   <g id="patch_7">
    <path d="M 415.692187 22.678125 
L 453.8 22.678125 
Q 455.8 22.678125 455.8 20.678125 
L 455.8 7 
Q 455.8 5 453.8 5 
L 415.692187 5 
Q 413.692187 5 413.692187 7 
L 413.692187 20.678125 
Q 413.692187 22.678125 415.692187 22.678125 
z
" style="fill:#ffffff;opacity:0.8;stroke:#cccccc;stroke-linejoin:miter;"/>
   </g>
   <g id="line2d_18">
    <path d="M 417.692187 13.098438 
L 437.692187 13.098438 
" style="fill:none;stroke:#0000ff;stroke-linecap:square;stroke-width:1.5;"/>
   </g>
   <g id="line2d_19"/>
   <g id="text_20">
    <!-- T -->
    <g transform="translate(445.692187 16.598438)scale(0.1 -0.1)">
     <use xlink:href="#DejaVuSans-84"/>
    </g>
   </g>
  </g>
 </g>
 <defs>
  <clipPath id="p7b8510adf1">
   <rect height="266.112" width="357.12" x="57.6" y="41.472"/>
  </clipPath>
 </defs>
</svg>
