<?xml version="1.0" encoding="utf-8" standalone="no"?>
<!DOCTYPE svg PUBLIC "-//W3C//DTD SVG 1.1//EN"
  "http://www.w3.org/Graphics/SVG/1.1/DTD/svg11.dtd">
<!-- Created with matplotlib (https://matplotlib.org/) -->
<svg height="2090.31625pt" version="1.1" viewBox="0 0 2062.259375 2090.31625" width="2062.259375pt" xmlns="http://www.w3.org/2000/svg" xmlns:xlink="http://www.w3.org/1999/xlink">
 <metadata>
  <rdf:RDF xmlns:cc="http://creativecommons.org/ns#" xmlns:dc="http://purl.org/dc/elements/1.1/" xmlns:rdf="http://www.w3.org/1999/02/22-rdf-syntax-ns#">
   <cc:Work>
    <dc:type rdf:resource="http://purl.org/dc/dcmitype/StillImage"/>
    <dc:date>2022-07-24T11:58:02.942286</dc:date>
    <dc:format>image/svg+xml</dc:format>
    <dc:creator>
     <cc:Agent>
      <dc:title>Matplotlib v3.3.2, https://matplotlib.org/</dc:title>
     </cc:Agent>
    </dc:creator>
   </cc:Work>
  </rdf:RDF>
 </metadata>
 <defs>
  <style type="text/css">*{stroke-linecap:butt;stroke-linejoin:round;}</style>
 </defs>
 <g id="figure_1">
  <g id="patch_1">
   <path d="M 0 2090.31625 
L 2062.259375 2090.31625 
L 2062.259375 0 
L 0 0 
z
" style="fill:#ffffff;"/>
  </g>
  <g id="axes_1">
   <g id="patch_2">
    <path d="M 44.059375 2052.76 
L 1829.659375 2052.76 
L 1829.659375 278.68 
L 44.059375 278.68 
z
" style="fill:#ffffff;"/>
   </g>
   <g id="matplotlib.axis_1">
    <g id="xtick_1">
     <g id="line2d_1">
      <defs>
       <path d="M 0 0 
L 0 3.5 
" id="mdba3fef993" style="stroke:#000000;stroke-width:0.8;"/>
      </defs>
      <g>
       <use style="stroke:#000000;stroke-width:0.8;" x="161.932433" xlink:href="#mdba3fef993" y="2052.76"/>
      </g>
     </g>
     <g id="text_1">
      <text style="font-family:DejaVu Sans;font-size:10px;font-stretch:normal;font-style:normal;font-weight:normal;text-anchor:middle;" transform="rotate(-0, 161.932433, 2067.358438)" x="161.932433" y="2067.358438">7.5</text>
     </g>
    </g>
    <g id="xtick_2">
     <g id="line2d_2">
      <g>
       <use style="stroke:#000000;stroke-width:0.8;" x="385.770371" xlink:href="#mdba3fef993" y="2052.76"/>
      </g>
     </g>
     <g id="text_2">
      <text style="font-family:DejaVu Sans;font-size:10px;font-stretch:normal;font-style:normal;font-weight:normal;text-anchor:middle;" transform="rotate(-0, 385.770371, 2067.358438)" x="385.770371" y="2067.358438">10.0</text>
     </g>
    </g>
    <g id="xtick_3">
     <g id="line2d_3">
      <g>
       <use style="stroke:#000000;stroke-width:0.8;" x="609.608309" xlink:href="#mdba3fef993" y="2052.76"/>
      </g>
     </g>
     <g id="text_3">
      <text style="font-family:DejaVu Sans;font-size:10px;font-stretch:normal;font-style:normal;font-weight:normal;text-anchor:middle;" transform="rotate(-0, 609.608309, 2067.358438)" x="609.608309" y="2067.358438">12.5</text>
     </g>
    </g>
    <g id="xtick_4">
     <g id="line2d_4">
      <g>
       <use style="stroke:#000000;stroke-width:0.8;" x="833.446248" xlink:href="#mdba3fef993" y="2052.76"/>
      </g>
     </g>
     <g id="text_4">
      <text style="font-family:DejaVu Sans;font-size:10px;font-stretch:normal;font-style:normal;font-weight:normal;text-anchor:middle;" transform="rotate(-0, 833.446248, 2067.358438)" x="833.446248" y="2067.358438">15.0</text>
     </g>
    </g>
    <g id="xtick_5">
     <g id="line2d_5">
      <g>
       <use style="stroke:#000000;stroke-width:0.8;" x="1057.284186" xlink:href="#mdba3fef993" y="2052.76"/>
      </g>
     </g>
     <g id="text_5">
      <text style="font-family:DejaVu Sans;font-size:10px;font-stretch:normal;font-style:normal;font-weight:normal;text-anchor:middle;" transform="rotate(-0, 1057.284186, 2067.358438)" x="1057.284186" y="2067.358438">17.5</text>
     </g>
    </g>
    <g id="xtick_6">
     <g id="line2d_6">
      <g>
       <use style="stroke:#000000;stroke-width:0.8;" x="1281.122124" xlink:href="#mdba3fef993" y="2052.76"/>
      </g>
     </g>
     <g id="text_6">
      <text style="font-family:DejaVu Sans;font-size:10px;font-stretch:normal;font-style:normal;font-weight:normal;text-anchor:middle;" transform="rotate(-0, 1281.122124, 2067.358438)" x="1281.122124" y="2067.358438">20.0</text>
     </g>
    </g>
    <g id="xtick_7">
     <g id="line2d_7">
      <g>
       <use style="stroke:#000000;stroke-width:0.8;" x="1504.960062" xlink:href="#mdba3fef993" y="2052.76"/>
      </g>
     </g>
     <g id="text_7">
      <text style="font-family:DejaVu Sans;font-size:10px;font-stretch:normal;font-style:normal;font-weight:normal;text-anchor:middle;" transform="rotate(-0, 1504.960062, 2067.358438)" x="1504.960062" y="2067.358438">22.5</text>
     </g>
    </g>
    <g id="xtick_8">
     <g id="line2d_8">
      <g>
       <use style="stroke:#000000;stroke-width:0.8;" x="1728.798" xlink:href="#mdba3fef993" y="2052.76"/>
      </g>
     </g>
     <g id="text_8">
      <text style="font-family:DejaVu Sans;font-size:10px;font-stretch:normal;font-style:normal;font-weight:normal;text-anchor:middle;" transform="rotate(-0, 1728.798, 2067.358438)" x="1728.798" y="2067.358438">25.0</text>
     </g>
    </g>
    <g id="text_9">
     <text style="font-family:DejaVu Sans;font-size:10px;font-stretch:normal;font-style:normal;font-weight:normal;text-anchor:middle;" transform="rotate(-0, 936.859375, 2081.036562)" x="936.859375" y="2081.036562">temperature from OpenWeatherMap</text>
    </g>
   </g>
   <g id="matplotlib.axis_2">
    <g id="ytick_1">
     <g id="line2d_9">
      <defs>
       <path d="M 0 0 
L -3.5 0 
" id="m802646699a" style="stroke:#000000;stroke-width:0.8;"/>
      </defs>
      <g>
       <use style="stroke:#000000;stroke-width:0.8;" x="44.059375" xlink:href="#m802646699a" y="1978.87306"/>
      </g>
     </g>
     <g id="text_10">
      <text style="font-family:DejaVu Sans;font-size:10px;font-stretch:normal;font-style:normal;font-weight:normal;text-anchor:end;" transform="rotate(-0, 37.059375, 1982.672278)" x="37.059375" y="1982.672278">0.0</text>
     </g>
    </g>
    <g id="ytick_2">
     <g id="line2d_10">
      <g>
       <use style="stroke:#000000;stroke-width:0.8;" x="44.059375" xlink:href="#m802646699a" y="1745.656801"/>
      </g>
     </g>
     <g id="text_11">
      <text style="font-family:DejaVu Sans;font-size:10px;font-stretch:normal;font-style:normal;font-weight:normal;text-anchor:end;" transform="rotate(-0, 37.059375, 1749.45602)" x="37.059375" y="1749.45602">0.2</text>
     </g>
    </g>
    <g id="ytick_3">
     <g id="line2d_11">
      <g>
       <use style="stroke:#000000;stroke-width:0.8;" x="44.059375" xlink:href="#m802646699a" y="1512.440543"/>
      </g>
     </g>
     <g id="text_12">
      <text style="font-family:DejaVu Sans;font-size:10px;font-stretch:normal;font-style:normal;font-weight:normal;text-anchor:end;" transform="rotate(-0, 37.059375, 1516.239762)" x="37.059375" y="1516.239762">0.4</text>
     </g>
    </g>
    <g id="ytick_4">
     <g id="line2d_12">
      <g>
       <use style="stroke:#000000;stroke-width:0.8;" x="44.059375" xlink:href="#m802646699a" y="1279.224285"/>
      </g>
     </g>
     <g id="text_13">
      <text style="font-family:DejaVu Sans;font-size:10px;font-stretch:normal;font-style:normal;font-weight:normal;text-anchor:end;" transform="rotate(-0, 37.059375, 1283.023504)" x="37.059375" y="1283.023504">0.6</text>
     </g>
    </g>
    <g id="ytick_5">
     <g id="line2d_13">
      <g>
       <use style="stroke:#000000;stroke-width:0.8;" x="44.059375" xlink:href="#m802646699a" y="1046.008027"/>
      </g>
     </g>
     <g id="text_14">
      <text style="font-family:DejaVu Sans;font-size:10px;font-stretch:normal;font-style:normal;font-weight:normal;text-anchor:end;" transform="rotate(-0, 37.059375, 1049.807246)" x="37.059375" y="1049.807246">0.8</text>
     </g>
    </g>
    <g id="ytick_6">
     <g id="line2d_14">
      <g>
       <use style="stroke:#000000;stroke-width:0.8;" x="44.059375" xlink:href="#m802646699a" y="812.791769"/>
      </g>
     </g>
     <g id="text_15">
      <text style="font-family:DejaVu Sans;font-size:10px;font-stretch:normal;font-style:normal;font-weight:normal;text-anchor:end;" transform="rotate(-0, 37.059375, 816.590988)" x="37.059375" y="816.590988">1.0</text>
     </g>
    </g>
    <g id="ytick_7">
     <g id="line2d_15">
      <g>
       <use style="stroke:#000000;stroke-width:0.8;" x="44.059375" xlink:href="#m802646699a" y="579.575511"/>
      </g>
     </g>
     <g id="text_16">
      <text style="font-family:DejaVu Sans;font-size:10px;font-stretch:normal;font-style:normal;font-weight:normal;text-anchor:end;" transform="rotate(-0, 37.059375, 583.37473)" x="37.059375" y="583.37473">1.2</text>
     </g>
    </g>
    <g id="ytick_8">
     <g id="line2d_16">
      <g>
       <use style="stroke:#000000;stroke-width:0.8;" x="44.059375" xlink:href="#m802646699a" y="346.359253"/>
      </g>
     </g>
     <g id="text_17">
      <text style="font-family:DejaVu Sans;font-size:10px;font-stretch:normal;font-style:normal;font-weight:normal;text-anchor:end;" transform="rotate(-0, 37.059375, 350.158471)" x="37.059375" y="350.158471">1.4</text>
     </g>
    </g>
    <g id="text_18">
     <text style="font-family:DejaVu Sans;font-size:10px;font-stretch:normal;font-style:normal;font-weight:normal;text-anchor:middle;" transform="rotate(-90, 14.798438, 1165.72)" x="14.798438" y="1165.72">Throughput_night[Bit/s]</text>
    </g>
    <g id="text_19">
     <text style="font-family:DejaVu Sans;font-size:10px;font-stretch:normal;font-style:normal;font-weight:normal;text-anchor:start;" transform="rotate(-0, 44.059375, 275.68)" x="44.059375" y="275.68">1e7</text>
    </g>
   </g>
   <g id="line2d_17">
    <path clip-path="url(#p0497525983)" d="M 125.223011 425.159354 
L 132.385825 434.334526 
L 142.234695 433.662261 
L 151.188212 433.623632 
L 153.874267 401.914771 
L 157.455674 464.027154 
L 161.037081 411.390927 
L 166.409192 380.275058 
L 169.095247 609.88581 
L 171.781302 415.3958 
L 172.676654 462.672783 
L 175.36271 391.742044 
L 178.944117 410.663205 
L 181.630172 425.530516 
L 185.211579 820.643905 
L 187.897634 749.014259 
L 193.269745 445.781388 
L 203.118614 1044.851615 
L 220.130297 560.604348 
L 221.921001 431.594888 
L 238.932684 654.548959 
L 246.095498 894.909243 
L 247.886201 786.186031 
L 252.36296 1074.606743 
L 255.049015 855.074173 
L 261.316478 410.657089 
L 281.909568 393.776886 
L 287.281679 422.144656 
L 296.235196 417.445012 
L 299.816603 1138.72525 
L 302.502658 617.345307 
L 306.084065 685.530643 
L 312.351528 776.101925 
L 337.421377 416.784962 
L 343.688839 435.655918 
L 345.479542 422.815669 
L 359.805171 1049.621685 
L 363.386578 563.95373 
L 366.072633 417.452975 
L 367.863336 412.000314 
L 369.65404 516.693419 
L 372.340095 407.984343 
L 374.130799 426.908562 
L 375.02615 441.07855 
L 375.921502 432.934038 
L 376.816854 565.32668 
L 377.712206 728.794746 
L 378.607557 454.579956 
L 379.502909 422.144189 
L 381.293613 753.070435 
L 382.188964 719.371416 
L 383.084316 505.237888 
L 383.979668 444.469312 
L 386.665723 493.727218 
L 388.456427 634.216424 
L 390.24713 580.868824 
L 391.142482 657.865249 
L 392.037834 615.300544 
L 392.933185 556.654974 
L 393.828537 401.923917 
L 395.619241 493.122713 
L 397.409944 684.197112 
L 398.305296 523.451647 
L 399.200648 539.069804 
L 407.258813 513.310405 
L 408.154165 717.295832 
L 409.049517 418.765308 
L 410.84022 447.152653 
L 411.735572 386.378219 
L 412.630924 551.125952 
L 416.212331 399.196126 
L 418.898386 439.055396 
L 419.793738 444.449979 
L 420.68909 487.002576 
L 421.584441 628.294913 
L 422.479793 919.205814 
L 425.165848 391.103504 
L 429.642607 455.921087 
L 430.537959 442.390706 
L 432.328662 646.3805 
L 433.224014 457.938518 
L 434.119366 370.889196 
L 437.700773 407.270638 
L 438.596125 430.948925 
L 439.491476 1200.856345 
L 440.386828 845.74094 
L 441.28218 434.96681 
L 444.863587 439.72152 
L 446.654291 430.241665 
L 447.549642 384.327908 
L 449.340346 422.823916 
L 450.235698 450.535728 
L 451.131049 485.628712 
L 452.921753 433.07022 
L 453.817105 419.491826 
L 454.712456 419.481222 
L 455.607808 395.920608 
L 457.398512 424.868669 
L 458.293863 433.649591 
L 459.189215 411.326819 
L 460.084567 602.478007 
L 460.979919 441.714714 
L 462.770622 769.290886 
L 463.665974 1401.428617 
L 465.456677 437.008968 
L 466.352029 433.635375 
L 468.142733 419.447385 
L 469.038084 513.994862 
L 469.933436 406.661606 
L 470.828788 436.324808 
L 472.619491 420.801705 
L 473.514843 420.16811 
L 475.305547 400.553483 
L 477.991602 487.050759 
L 478.886954 458.729111 
L 479.782305 444.445223 
L 480.677657 440.384883 
L 483.363712 827.369678 
L 484.259064 672.822727 
L 485.154416 359.32 
L 486.049768 409.309325 
L 486.945119 421.513513 
L 488.735823 364.805005 
L 490.526526 449.149063 
L 492.31723 443.797335 
L 493.212582 491.057861 
L 495.003285 472.113314 
L 495.898637 524.113197 
L 496.793989 468.729346 
L 497.68934 625.438542 
L 498.584692 418.088376 
L 499.480044 673.403533 
L 500.375396 408.655151 
L 501.270747 480.911753 
L 503.061451 525.526005 
L 503.956803 818.576312 
L 504.852154 504.581693 
L 505.747506 438.365557 
L 506.642858 555.220638 
L 507.53821 539.65548 
L 508.433561 1063.069182 
L 509.328913 409.302419 
L 510.224265 464.704337 
L 511.119617 404.577473 
L 512.014968 450.49477 
L 512.91032 504.569163 
L 513.805672 483.052874 
L 515.596375 1122.510702 
L 516.491727 401.241149 
L 517.387079 576.827994 
L 518.282431 657.25319 
L 519.177782 484.948112 
L 520.073134 830.069315 
L 520.968486 419.452063 
L 521.863838 654.498902 
L 523.654541 491.989099 
L 524.549893 436.98877 
L 525.445245 531.707739 
L 526.340596 564.67917 
L 527.235948 360.690171 
L 528.1313 414.710891 
L 529.922003 1010.398139 
L 530.817355 453.927924 
L 532.608059 921.937129 
L 534.398762 422.161623 
L 535.294114 441.075167 
L 536.189466 534.306962 
L 537.084818 659.886455 
L 537.980169 448.522352 
L 538.875521 482.273858 
L 539.770873 437.702521 
L 541.561576 470.111784 
L 542.456928 541.672685 
L 544.247632 701.089431 
L 546.038335 445.798404 
L 546.933687 410.699585 
L 547.829039 408.001308 
L 548.72439 423.547498 
L 549.619742 462.688702 
L 550.515094 1097.52415 
L 551.410446 460.647895 
L 552.305797 461.984522 
L 553.201149 410.027525 
L 554.991853 426.887146 
L 555.887204 422.156331 
L 556.782556 466.711531 
L 557.677908 529.51606 
L 558.57326 1104.279705 
L 560.363963 485.619752 
L 561.259315 450.499507 
L 562.154667 394.459863 
L 563.050018 667.348774 
L 563.94537 1471.002714 
L 564.840722 457.940039 
L 565.736074 561.376525 
L 566.631425 453.259437 
L 567.526777 436.340542 
L 568.422129 488.345099 
L 569.317481 733.513499 
L 570.212832 536.282515 
L 572.003536 465.369713 
L 572.898888 478.954499 
L 573.794239 711.216048 
L 574.689591 726.72211 
L 576.480295 590.331701 
L 577.375646 442.420205 
L 578.270998 1063.761666 
L 579.16635 478.903054 
L 580.061702 733.509639 
L 580.957053 1123.193511 
L 581.852405 1099.538896 
L 582.747757 480.896174 
L 583.643109 524.140691 
L 584.53846 511.351639 
L 585.433812 464.799265 
L 586.329164 938.133035 
L 587.224516 475.501611 
L 588.119867 963.822952 
L 589.015219 551.138658 
L 589.910571 414.741703 
L 590.805923 426.216906 
L 592.596626 724.76357 
L 593.491978 455.894893 
L 594.38733 705.135613 
L 595.282681 459.949441 
L 596.178033 478.192582 
L 597.073385 560.61073 
L 597.968737 479.565369 
L 598.864088 435.661628 
L 599.75944 1225.158138 
L 600.654792 478.876506 
L 601.550144 436.334218 
L 602.445495 563.998297 
L 603.340847 441.064403 
L 604.236199 432.276137 
L 605.131551 474.239342 
L 606.026902 1061.764201 
L 606.922254 464.005492 
L 607.817606 445.095894 
L 609.608309 769.285564 
L 610.503661 492.435035 
L 611.399013 1001.600888 
L 612.294365 587.679922 
L 613.189716 464.059115 
L 614.085068 780.102031 
L 614.98042 470.775234 
L 615.875772 417.411131 
L 616.771123 486.975126 
L 617.666475 996.211915 
L 618.561827 446.438983 
L 619.457179 459.278014 
L 621.247882 1235.990978 
L 622.143234 601.780471 
L 623.038586 686.882038 
L 623.933938 493.726773 
L 624.829289 477.523814 
L 625.724641 605.847695 
L 627.515345 697.709934 
L 628.410696 637.597017 
L 629.306048 422.176878 
L 630.2014 447.827097 
L 631.096752 427.543894 
L 631.992103 432.327326 
L 632.887455 422.877129 
L 633.782807 401.206127 
L 635.57351 477.545883 
L 636.468862 486.29662 
L 637.364214 562.664575 
L 638.259566 425.512342 
L 639.154917 738.256634 
L 640.050269 1173.82795 
L 640.945621 502.583097 
L 641.840973 393.818889 
L 642.736324 445.117826 
L 645.42238 441.077473 
L 646.317731 460.650627 
L 647.213083 424.85515 
L 648.108435 449.168987 
L 649.899138 372.185252 
L 651.689842 440.386421 
L 652.585194 924.621801 
L 653.480545 447.161537 
L 655.271249 434.293288 
L 657.061952 466.114213 
L 657.957304 573.483522 
L 659.748008 466.031014 
L 660.643359 470.108918 
L 661.538711 464.678596 
L 662.434063 455.936468 
L 664.224766 460.0026 
L 665.120118 486.980199 
L 666.01547 955.088966 
L 667.806173 516.718275 
L 668.701525 447.794333 
L 671.38758 433.666742 
L 672.282932 507.919912 
L 674.968987 711.874561 
L 678.550394 430.285334 
L 679.445746 466.744343 
L 680.341098 449.849361 
L 682.131801 928.667085 
L 683.027153 772.652402 
L 685.713208 468.092191 
L 687.503912 753.810245 
L 688.399264 574.899067 
L 690.189967 418.135509 
L 691.085319 714.580096 
L 691.980671 403.26706 
L 694.666726 474.808795 
L 696.457429 452.526701 
L 697.352781 480.889583 
L 699.143485 458.617385 
L 700.038836 561.264404 
L 700.934188 442.445862 
L 701.82954 496.42545 
L 702.724892 392.421226 
L 703.620243 428.235392 
L 704.515595 605.832318 
L 705.410947 468.736142 
L 706.306299 414.061493 
L 708.097002 434.323252 
L 708.992354 472.111808 
L 709.887706 1227.865858 
L 710.783057 467.390834 
L 711.678409 430.259629 
L 712.573761 571.405279 
L 714.364465 438.362938 
L 715.259816 426.211316 
L 716.155168 447.148671 
L 717.945872 693.682432 
L 718.841223 493.787362 
L 719.736575 415.388452 
L 721.527279 414.714957 
L 722.42263 453.904593 
L 723.317982 450.551775 
L 724.213334 436.311234 
L 725.108686 465.359119 
L 726.004037 451.204213 
L 727.794741 497.138904 
L 728.690093 470.76332 
L 730.480796 609.911819 
L 731.376148 455.911188 
L 733.166851 391.822188 
L 734.062203 514.656615 
L 734.957555 439.772769 
L 735.852907 486.321097 
L 737.64361 432.959855 
L 738.538962 386.38634 
L 739.434314 483.597367 
L 741.225017 521.443756 
L 742.120369 694.336332 
L 745.701776 432.297479 
L 747.492479 449.145851 
L 748.387831 525.49258 
L 749.283183 628.842374 
L 750.178535 474.135976 
L 751.969238 501.833175 
L 752.86459 1007.020143 
L 753.759942 486.997951 
L 754.655293 445.76805 
L 758.2367 426.197809 
L 760.027404 423.520903 
L 760.922756 418.083226 
L 762.713459 460.663987 
L 763.608811 462.674754 
L 764.504163 385.045512 
L 765.399514 413.396777 
L 766.294866 457.249758 
L 767.190218 658.597248 
L 768.08557 424.886539 
L 772.562328 448.46772 
L 773.45768 422.144656 
L 774.353032 445.125188 
L 775.248384 563.304397 
L 777.039087 468.159263 
L 777.934439 457.287188 
L 778.829791 888.842714 
L 780.620494 416.766062 
L 782.411198 695.688593 
L 783.306549 719.344338 
L 785.097253 465.387723 
L 785.992605 459.951264 
L 786.887956 457.264212 
L 787.783308 476.848143 
L 788.67866 510.628875 
L 789.574012 482.926332 
L 790.469363 493.061057 
L 793.155419 470.081308 
L 794.05077 656.559482 
L 794.946122 797.654525 
L 795.841474 632.170526 
L 796.736826 736.185231 
L 797.632177 493.719347 
L 798.527529 409.973244 
L 800.318233 480.926582 
L 801.213584 502.517553 
L 803.89964 681.481379 
L 805.690343 663.919444 
L 806.585695 444.457651 
L 807.481047 550.559124 
L 808.376399 594.406153 
L 809.27175 434.999693 
L 811.062454 820.620394 
L 812.853157 480.909656 
L 814.643861 462.648979 
L 817.329916 601.849871 
L 818.225268 394.477607 
L 819.12062 426.227153 
L 820.015971 496.478963 
L 820.911323 1060.388361 
L 821.806675 446.460436 
L 822.702027 410.678259 
L 823.597378 606.507831 
L 824.49273 477.539127 
L 827.178785 774.709595 
L 828.074137 430.255293 
L 828.969489 464.702368 
L 829.864841 448.496185 
L 831.655544 640.27907 
L 832.550896 716.613275 
L 833.446248 609.92674 
L 834.341599 477.526366 
L 835.236951 435.691256 
L 837.027655 634.290776 
L 837.923006 609.883893 
L 838.818358 470.755177 
L 839.71371 443.114304 
L 840.609062 467.422725 
L 841.504413 439.019365 
L 842.399765 474.864743 
L 843.295117 472.795014 
L 844.190469 586.963249 
L 845.08582 445.10617 
L 845.981172 561.330318 
L 846.876524 476.840483 
L 847.771876 464.024276 
L 848.667227 570.042708 
L 849.562579 495.77588 
L 850.457931 600.428339 
L 851.353283 421.489219 
L 852.248634 413.365938 
L 853.143986 486.989746 
L 854.93469 573.416908 
L 855.830041 468.744145 
L 856.725393 569.383825 
L 857.620745 393.14972 
L 859.411448 475.494545 
L 860.3068 1258.253878 
L 861.202152 424.194708 
L 862.992855 451.848578 
L 863.888207 399.169272 
L 865.678911 426.893974 
L 866.574262 680.87973 
L 867.469614 510.62124 
L 868.364966 434.996142 
L 869.260318 915.855714 
L 871.946373 403.904147 
L 873.737076 592.325478 
L 875.52778 444.434329 
L 876.423132 470.09036 
L 877.318483 447.790965 
L 878.213835 436.371545 
L 879.109187 563.968869 
L 880.004539 467.380859 
L 880.89989 447.19416 
L 882.690594 1169.780402 
L 883.585946 1972.119953 
L 884.481297 1972.11995 
L 885.376649 555.177929 
L 887.167353 1971.849782 
L 888.062704 1972.119949 
L 888.958056 441.763132 
L 889.853408 440.426573 
L 892.539463 441.04395 
L 895.225519 413.402882 
L 897.911574 459.307645 
L 898.806926 420.805444 
L 899.702277 425.558008 
L 901.492981 447.825413 
L 902.388333 1034.047005 
L 905.074388 616.659049 
L 905.96974 1094.131763 
L 910.446498 478.877106 
L 911.34185 413.400377 
L 912.237202 502.507661 
L 913.132554 443.741613 
L 914.027905 466.717731 
L 914.923257 459.975717 
L 916.713961 436.351647 
L 918.504664 441.71041 
L 919.400016 438.365711 
L 920.295368 378.954397 
L 922.086071 940.144386 
L 922.981423 554.544569 
L 923.876775 537.704734 
L 924.772126 482.98093 
L 925.667478 449.162372 
L 926.56283 466.710472 
L 927.458182 441.747761 
L 928.353533 544.377776 
L 929.248885 994.858324 
L 930.144237 1972.119928 
L 931.039589 469.450911 
L 935.516347 1435.201484 
L 936.411699 545.743715 
L 937.307051 1972.12 
L 938.202403 1972.119955 
L 939.097754 574.78886 
L 939.993106 1036.058467 
L 940.888458 808.480191 
L 941.78381 713.247707 
L 942.679161 576.795327 
L 943.574513 1044.161395 
L 944.469865 916.506642 
L 945.365217 964.524673 
L 946.260568 551.315384 
L 947.15592 1011.76154 
L 948.051272 457.257974 
L 948.946624 1237.308082 
L 949.841975 461.317951 
L 951.632679 383.690663 
L 952.528031 417.419406 
L 954.318734 1969.41872 
L 956.109438 733.51599 
L 957.004789 1041.461509 
L 958.795493 759.143062 
L 959.690845 491.737978 
L 960.586196 463.33148 
L 961.481548 1966.717369 
L 964.167603 451.896982 
L 965.958307 551.828157 
L 966.853659 755.101327 
L 968.644362 540.365806 
L 969.539714 488.31514 
L 973.121121 1044.83994 
L 974.016473 441.077012 
L 975.807176 478.202036 
L 977.59788 909.082748 
L 978.493231 430.269539 
L 979.388583 576.967476 
L 980.283935 400.520024 
L 981.179287 416.083826 
L 982.074639 464.693889 
L 984.760694 1966.71738 
L 985.656046 1969.4187 
L 987.446749 487.013168 
L 989.237453 430.275114 
L 990.132804 473.487396 
L 991.028156 470.1145 
L 995.504915 450.503023 
L 996.400267 487.811976 
L 997.295618 1968.74336 
L 999.981674 459.336515 
L 1000.877025 405.288094 
L 1001.772377 626.767101 
L 1002.667729 645.087923 
L 1003.563081 1972.119912 
L 1004.458432 401.242569 
L 1005.353784 1951.184558 
L 1006.249136 475.487479 
L 1007.144488 431.659869 
L 1010.725895 440.366883 
L 1011.621246 521.465616 
L 1012.516598 501.853704 
L 1013.41195 507.26853 
L 1017.888709 393.796699 
L 1018.78406 692.38023 
L 1019.679412 398.523922 
L 1021.470116 518.7226 
L 1025.946874 572.091057 
L 1026.842226 446.452008 
L 1027.737578 437.023153 
L 1028.63293 442.399463 
L 1032.214337 606.543786 
L 1035.795744 442.43265 
L 1036.691095 422.862192 
L 1037.586447 427.578177 
L 1038.481799 407.274095 
L 1040.272502 419.48325 
L 1042.063206 1876.220027 
L 1044.749261 557.902315 
L 1045.644613 1816.783894 
L 1046.539965 476.848293 
L 1048.330668 632.17672 
L 1049.22602 759.158187 
L 1050.121372 612.615458 
L 1051.016723 436.336531 
L 1053.702779 489.01346 
L 1054.59813 430.954652 
L 1055.493482 579.50998 
L 1056.388834 402.632369 
L 1059.074889 534.92701 
L 1059.970241 1941.055453 
L 1061.760944 393.111664 
L 1063.551648 607.922195 
L 1065.342351 443.772775 
L 1067.133055 438.379267 
L 1069.81911 433.644801 
L 1070.714462 1565.544902 
L 1072.505166 428.239889 
L 1074.295869 433.627031 
L 1075.191221 846.573139 
L 1077.877276 395.894493 
L 1078.772628 424.191287 
L 1079.66798 401.870302 
L 1081.458683 440.380114 
L 1083.249387 429.593403 
L 1084.144738 644.365752 
L 1085.04009 572.748563 
L 1085.935442 414.740608 
L 1086.830794 396.530112 
L 1087.726145 411.33497 
L 1088.621497 1091.480399 
L 1089.516849 432.310006 
L 1090.412201 467.423329 
L 1092.202904 446.461662 
L 1093.098256 1441.963436 
L 1094.888959 1966.717399 
L 1095.784311 406.631421 
L 1097.575015 414.711203 
L 1102.051773 1969.418757 
L 1103.842477 851.014683 
L 1105.63318 414.75531 
L 1107.423884 397.857413 
L 1109.214587 432.972376 
L 1110.109939 405.920041 
L 1111.005291 884.113664 
L 1114.586698 389.058827 
L 1115.48205 460.642277 
L 1118.168105 1945.107313 
L 1119.063457 1972.11993 
L 1120.85416 435.661628 
L 1121.749512 368.100862 
L 1122.644864 432.257578 
L 1123.540215 542.342028 
L 1124.435567 437.027007 
L 1125.330919 461.355887 
L 1128.912326 1972.119943 
L 1130.703029 426.879541 
L 1133.389085 428.244076 
L 1136.07514 394.459546 
L 1138.761195 406.655632 
L 1140.551899 662.678594 
L 1141.44725 412.042617 
L 1143.237954 395.144891 
L 1144.133306 449.178127 
L 1145.028657 420.125403 
L 1145.924009 424.209632 
L 1150.400768 435.003089 
L 1151.29612 1010.407727 
L 1153.086823 381.083743 
L 1159.354285 431.608658 
L 1161.144989 427.564992 
L 1176.365969 435.668109 
L 1178.156672 1022.555493 
L 1179.947376 410.722792 
L 1184.424135 403.936747 
L 1186.214838 460.631498 
L 1191.586949 403.250675 
L 1192.4823 947.677982 
L 1194.273004 448.520057 
L 1195.168356 413.388637 
L 1197.854411 414.724029 
L 1199.645114 437.037183 
L 1200.540466 1375.784502 
L 1204.121873 466.757498 
L 1206.807928 998.929655 
L 1207.70328 428.239734 
L 1208.598632 457.950837 
L 1214.866094 980.668558 
L 1217.552149 426.885904 
L 1220.238205 427.562665 
L 1222.92426 480.21121 
L 1223.819612 412.007208 
L 1224.714963 393.118799 
L 1225.610315 429.633062 
L 1231.877777 422.270736 
L 1235.459184 406.605323 
L 1237.249888 403.899265 
L 1239.935943 501.849569 
L 1244.412702 457.24991 
L 1246.203405 427.537069 
L 1247.994109 444.442921 
L 1251.575516 458.622554 
L 1253.36622 576.825471 
L 1256.947627 573.421687 
L 1260.529034 451.180535 
L 1261.424385 611.94447 
L 1262.319737 426.199206 
L 1265.005792 465.387572 
L 1269.482551 451.852395 
L 1270.377903 466.750391 
L 1271.273255 737.611321 
L 1277.540717 454.572182 
L 1278.436069 388.40493 
L 1280.226772 436.312623 
L 1282.912827 453.211382 
L 1284.703531 844.246971 
L 1285.598883 449.849972 
L 1288.284938 432.955526 
L 1291.866345 432.368924 
L 1297.238455 441.740076 
L 1299.924511 460.630132 
L 1300.819862 474.844139 
L 1301.715214 887.46984 
L 1302.610566 489.69121 
L 1303.505918 468.764531 
L 1305.296621 466.061118 
L 1306.191973 462.011825 
L 1307.982676 491.023493 
L 1308.878028 500.473559 
L 1309.77338 489.667831 
L 1315.14549 438.362014 
L 1320.517601 470.086438 
L 1322.308304 424.870689 
L 1326.785063 468.740521 
L 1331.261822 717.952534 
L 1332.157174 413.417127 
L 1333.052525 408.622491 
L 1336.633932 570.726813 
L 1340.215339 979.314509 
L 1342.006043 411.326505 
L 1344.692098 429.58132 
L 1348.273505 442.42466 
L 1350.064209 429.629034 
L 1350.959561 470.766789 
L 1352.750264 493.059125 
L 1360.80843 491.710021 
L 1369.761947 399.839595 
L 1378.715465 830.056563 
L 1407.366721 432.275673 
L 1428.855163 393.79876 
L 1429.750515 414.073698 
L 1447.65755 430.243059 
L 1483.47162 426.86666 
L 1491.529786 449.850737 
L 1525.553152 431.620571 
L 1528.239208 502.532463 
L 1545.250891 430.932982 
L 1591.809182 412.015982 
L 1598.971996 443.093726 
L 1621.35579 428.217406 
L 1646.425639 418.795573 
L 1729.693352 474.226252 
L 1742.228276 428.893088 
L 1748.495739 413.35451 
L 1748.495739 413.35451 
" style="fill:none;stroke:#0000ff;stroke-linecap:square;stroke-width:1.5;"/>
   </g>
   <g id="patch_3">
    <path d="M 44.059375 2052.76 
L 44.059375 278.68 
" style="fill:none;stroke:#000000;stroke-linecap:square;stroke-linejoin:miter;stroke-width:0.8;"/>
   </g>
   <g id="patch_4">
    <path d="M 1829.659375 2052.76 
L 1829.659375 278.68 
" style="fill:none;stroke:#000000;stroke-linecap:square;stroke-linejoin:miter;stroke-width:0.8;"/>
   </g>
   <g id="patch_5">
    <path d="M 44.059375 2052.76 
L 1829.659375 2052.76 
" style="fill:none;stroke:#000000;stroke-linecap:square;stroke-linejoin:miter;stroke-width:0.8;"/>
   </g>
   <g id="patch_6">
    <path d="M 44.059375 278.68 
L 1829.659375 278.68 
" style="fill:none;stroke:#000000;stroke-linecap:square;stroke-linejoin:miter;stroke-width:0.8;"/>
   </g>
   <g id="text_20">
    <text style="font-family:DejaVu Sans;font-size:12px;font-stretch:normal;font-style:normal;font-weight:normal;text-anchor:middle;" transform="rotate(-0, 936.859375, 272.68)" x="936.859375" y="272.68">temperature-&gt;Throughput_night</text>
   </g>
  </g>
  <g id="legend_1">
   <g id="patch_7">
    <path d="M 1904.517187 22.95625 
L 2055.259375 22.95625 
Q 2057.259375 22.95625 2057.259375 20.95625 
L 2057.259375 7 
Q 2057.259375 5 2055.259375 5 
L 1904.517187 5 
Q 1902.517187 5 1902.517187 7 
L 1902.517187 20.95625 
Q 1902.517187 22.95625 1904.517187 22.95625 
z
" style="fill:#ffffff;opacity:0.8;stroke:#cccccc;stroke-linejoin:miter;"/>
   </g>
   <g id="line2d_18">
    <path d="M 1906.517187 13.098438 
L 1926.517187 13.098438 
" style="fill:none;stroke:#0000ff;stroke-linecap:square;stroke-width:1.5;"/>
   </g>
   <g id="line2d_19"/>
   <g id="text_21">
    <text style="font-family:DejaVu Sans;font-size:10px;font-stretch:normal;font-style:normal;font-weight:normal;text-anchor:start;" transform="rotate(-0, 1934.517187, 16.598438)" x="1934.517187" y="16.598438">Throughput_night[Bit/s]</text>
   </g>
  </g>
 </g>
 <defs>
  <clipPath id="p0497525983">
   <rect height="1774.08" width="1785.6" x="44.059375" y="278.68"/>
  </clipPath>
 </defs>
</svg>
