<?xml version="1.0" encoding="utf-8" standalone="no"?>
<!DOCTYPE svg PUBLIC "-//W3C//DTD SVG 1.1//EN"
  "http://www.w3.org/Graphics/SVG/1.1/DTD/svg11.dtd">
<!-- Created with matplotlib (https://matplotlib.org/) -->
<svg height="2090.31625pt" version="1.1" viewBox="0 0 2059.08125 2090.31625" width="2059.08125pt" xmlns="http://www.w3.org/2000/svg" xmlns:xlink="http://www.w3.org/1999/xlink">
 <metadata>
  <rdf:RDF xmlns:cc="http://creativecommons.org/ns#" xmlns:dc="http://purl.org/dc/elements/1.1/" xmlns:rdf="http://www.w3.org/1999/02/22-rdf-syntax-ns#">
   <cc:Work>
    <dc:type rdf:resource="http://purl.org/dc/dcmitype/StillImage"/>
    <dc:date>2022-07-24T11:51:33.848497</dc:date>
    <dc:format>image/svg+xml</dc:format>
    <dc:creator>
     <cc:Agent>
      <dc:title>Matplotlib v3.3.2, https://matplotlib.org/</dc:title>
     </cc:Agent>
    </dc:creator>
   </cc:Work>
  </rdf:RDF>
 </metadata>
 <defs>
  <style type="text/css">*{stroke-linecap:butt;stroke-linejoin:round;}</style>
 </defs>
 <g id="figure_1">
  <g id="patch_1">
   <path d="M 0 2090.31625 
L 2059.08125 2090.31625 
L 2059.08125 0 
L 0 0 
z
" style="fill:#ffffff;"/>
  </g>
  <g id="axes_1">
   <g id="patch_2">
    <path d="M 40.88125 2052.76 
L 1826.48125 2052.76 
L 1826.48125 278.68 
L 40.88125 278.68 
z
" style="fill:#ffffff;"/>
   </g>
   <g id="matplotlib.axis_1">
    <g id="xtick_1">
     <g id="line2d_1">
      <defs>
       <path d="M 0 0 
L 0 3.5 
" id="m6541f20eca" style="stroke:#000000;stroke-width:0.8;"/>
      </defs>
      <g>
       <use style="stroke:#000000;stroke-width:0.8;" x="107.596909" xlink:href="#m6541f20eca" y="2052.76"/>
      </g>
     </g>
     <g id="text_1">
      <text style="font-family:DejaVu Sans;font-size:10px;font-stretch:normal;font-style:normal;font-weight:normal;text-anchor:middle;" transform="rotate(-0, 107.596909, 2067.358438)" x="107.596909" y="2067.358438">5.0</text>
     </g>
    </g>
    <g id="xtick_2">
     <g id="line2d_2">
      <g>
       <use style="stroke:#000000;stroke-width:0.8;" x="320.067161" xlink:href="#m6541f20eca" y="2052.76"/>
      </g>
     </g>
     <g id="text_2">
      <text style="font-family:DejaVu Sans;font-size:10px;font-stretch:normal;font-style:normal;font-weight:normal;text-anchor:middle;" transform="rotate(-0, 320.067161, 2067.358438)" x="320.067161" y="2067.358438">7.5</text>
     </g>
    </g>
    <g id="xtick_3">
     <g id="line2d_3">
      <g>
       <use style="stroke:#000000;stroke-width:0.8;" x="532.537414" xlink:href="#m6541f20eca" y="2052.76"/>
      </g>
     </g>
     <g id="text_3">
      <text style="font-family:DejaVu Sans;font-size:10px;font-stretch:normal;font-style:normal;font-weight:normal;text-anchor:middle;" transform="rotate(-0, 532.537414, 2067.358438)" x="532.537414" y="2067.358438">10.0</text>
     </g>
    </g>
    <g id="xtick_4">
     <g id="line2d_4">
      <g>
       <use style="stroke:#000000;stroke-width:0.8;" x="745.007666" xlink:href="#m6541f20eca" y="2052.76"/>
      </g>
     </g>
     <g id="text_4">
      <text style="font-family:DejaVu Sans;font-size:10px;font-stretch:normal;font-style:normal;font-weight:normal;text-anchor:middle;" transform="rotate(-0, 745.007666, 2067.358438)" x="745.007666" y="2067.358438">12.5</text>
     </g>
    </g>
    <g id="xtick_5">
     <g id="line2d_5">
      <g>
       <use style="stroke:#000000;stroke-width:0.8;" x="957.477918" xlink:href="#m6541f20eca" y="2052.76"/>
      </g>
     </g>
     <g id="text_5">
      <text style="font-family:DejaVu Sans;font-size:10px;font-stretch:normal;font-style:normal;font-weight:normal;text-anchor:middle;" transform="rotate(-0, 957.477918, 2067.358438)" x="957.477918" y="2067.358438">15.0</text>
     </g>
    </g>
    <g id="xtick_6">
     <g id="line2d_6">
      <g>
       <use style="stroke:#000000;stroke-width:0.8;" x="1169.948171" xlink:href="#m6541f20eca" y="2052.76"/>
      </g>
     </g>
     <g id="text_6">
      <text style="font-family:DejaVu Sans;font-size:10px;font-stretch:normal;font-style:normal;font-weight:normal;text-anchor:middle;" transform="rotate(-0, 1169.948171, 2067.358438)" x="1169.948171" y="2067.358438">17.5</text>
     </g>
    </g>
    <g id="xtick_7">
     <g id="line2d_7">
      <g>
       <use style="stroke:#000000;stroke-width:0.8;" x="1382.418423" xlink:href="#m6541f20eca" y="2052.76"/>
      </g>
     </g>
     <g id="text_7">
      <text style="font-family:DejaVu Sans;font-size:10px;font-stretch:normal;font-style:normal;font-weight:normal;text-anchor:middle;" transform="rotate(-0, 1382.418423, 2067.358438)" x="1382.418423" y="2067.358438">20.0</text>
     </g>
    </g>
    <g id="xtick_8">
     <g id="line2d_8">
      <g>
       <use style="stroke:#000000;stroke-width:0.8;" x="1594.888675" xlink:href="#m6541f20eca" y="2052.76"/>
      </g>
     </g>
     <g id="text_8">
      <text style="font-family:DejaVu Sans;font-size:10px;font-stretch:normal;font-style:normal;font-weight:normal;text-anchor:middle;" transform="rotate(-0, 1594.888675, 2067.358438)" x="1594.888675" y="2067.358438">22.5</text>
     </g>
    </g>
    <g id="xtick_9">
     <g id="line2d_9">
      <g>
       <use style="stroke:#000000;stroke-width:0.8;" x="1807.358927" xlink:href="#m6541f20eca" y="2052.76"/>
      </g>
     </g>
     <g id="text_9">
      <text style="font-family:DejaVu Sans;font-size:10px;font-stretch:normal;font-style:normal;font-weight:normal;text-anchor:middle;" transform="rotate(-0, 1807.358927, 2067.358438)" x="1807.358927" y="2067.358438">25.0</text>
     </g>
    </g>
    <g id="text_10">
     <text style="font-family:DejaVu Sans;font-size:10px;font-stretch:normal;font-style:normal;font-weight:normal;text-anchor:middle;" transform="rotate(-0, 933.68125, 2081.036562)" x="933.68125" y="2081.036562">temperature from Aeris</text>
    </g>
   </g>
   <g id="matplotlib.axis_2">
    <g id="ytick_1">
     <g id="line2d_10">
      <defs>
       <path d="M 0 0 
L -3.5 0 
" id="m26538c6870" style="stroke:#000000;stroke-width:0.8;"/>
      </defs>
      <g>
       <use style="stroke:#000000;stroke-width:0.8;" x="40.88125" xlink:href="#m26538c6870" y="1801.929574"/>
      </g>
     </g>
     <g id="text_11">
      <text style="font-family:DejaVu Sans;font-size:10px;font-stretch:normal;font-style:normal;font-weight:normal;text-anchor:end;" transform="rotate(-0, 33.88125, 1805.728793)" x="33.88125" y="1805.728793">6</text>
     </g>
    </g>
    <g id="ytick_2">
     <g id="line2d_11">
      <g>
       <use style="stroke:#000000;stroke-width:0.8;" x="40.88125" xlink:href="#m26538c6870" y="1543.281511"/>
      </g>
     </g>
     <g id="text_12">
      <text style="font-family:DejaVu Sans;font-size:10px;font-stretch:normal;font-style:normal;font-weight:normal;text-anchor:end;" transform="rotate(-0, 33.88125, 1547.080729)" x="33.88125" y="1547.080729">8</text>
     </g>
    </g>
    <g id="ytick_3">
     <g id="line2d_12">
      <g>
       <use style="stroke:#000000;stroke-width:0.8;" x="40.88125" xlink:href="#m26538c6870" y="1284.633447"/>
      </g>
     </g>
     <g id="text_13">
      <text style="font-family:DejaVu Sans;font-size:10px;font-stretch:normal;font-style:normal;font-weight:normal;text-anchor:end;" transform="rotate(-0, 33.88125, 1288.432666)" x="33.88125" y="1288.432666">10</text>
     </g>
    </g>
    <g id="ytick_4">
     <g id="line2d_13">
      <g>
       <use style="stroke:#000000;stroke-width:0.8;" x="40.88125" xlink:href="#m26538c6870" y="1025.985384"/>
      </g>
     </g>
     <g id="text_14">
      <text style="font-family:DejaVu Sans;font-size:10px;font-stretch:normal;font-style:normal;font-weight:normal;text-anchor:end;" transform="rotate(-0, 33.88125, 1029.784602)" x="33.88125" y="1029.784602">12</text>
     </g>
    </g>
    <g id="ytick_5">
     <g id="line2d_14">
      <g>
       <use style="stroke:#000000;stroke-width:0.8;" x="40.88125" xlink:href="#m26538c6870" y="767.33732"/>
      </g>
     </g>
     <g id="text_15">
      <text style="font-family:DejaVu Sans;font-size:10px;font-stretch:normal;font-style:normal;font-weight:normal;text-anchor:end;" transform="rotate(-0, 33.88125, 771.136539)" x="33.88125" y="771.136539">14</text>
     </g>
    </g>
    <g id="ytick_6">
     <g id="line2d_15">
      <g>
       <use style="stroke:#000000;stroke-width:0.8;" x="40.88125" xlink:href="#m26538c6870" y="508.689257"/>
      </g>
     </g>
     <g id="text_16">
      <text style="font-family:DejaVu Sans;font-size:10px;font-stretch:normal;font-style:normal;font-weight:normal;text-anchor:end;" transform="rotate(-0, 33.88125, 512.488475)" x="33.88125" y="512.488475">16</text>
     </g>
    </g>
    <g id="text_17">
     <text style="font-family:DejaVu Sans;font-size:10px;font-stretch:normal;font-style:normal;font-weight:normal;text-anchor:middle;" transform="rotate(-90, 14.798438, 1165.72)" x="14.798438" y="1165.72">ping_night[ms]</text>
    </g>
   </g>
   <g id="line2d_16">
    <path clip-path="url(#p8f6ec4015c)" d="M 122.044886 1899.116584 
L 122.894767 1920.907683 
L 124.594529 1922.459572 
L 147.541317 1807.102535 
L 149.241079 1918.321203 
L 151.790722 1013.182305 
L 153.490484 1784.47083 
L 156.040127 1897.37071 
L 157.739889 1912.307635 
L 160.289532 1884.438306 
L 161.139413 1909.527169 
L 161.989294 1899.698542 
L 163.689056 1886.313505 
L 166.238699 1860.254713 
L 169.638223 1894.396257 
L 200.233939 1859.996064 
L 201.08382 1922.976868 
L 204.483344 1894.525581 
L 207.032987 1853.012567 
L 208.732749 1906.294068 
L 209.58263 1777.034698 
L 211.282392 1835.618484 
L 212.132273 1771.021131 
L 212.982154 1918.967823 
L 213.832035 1716.317065 
L 215.531797 1774.383555 
L 217.231559 1800.636334 
L 218.08144 1669.501766 
L 219.781202 1826.889112 
L 221.480964 1738.043503 
L 224.880488 1936.943863 
L 228.280012 1896.465441 
L 229.979775 1856.245668 
L 232.529418 1858.444176 
L 233.379299 1916.510666 
L 235.928942 1920.261063 
L 236.778823 1850.620072 
L 237.628704 1911.337705 
L 239.328466 1889.654376 
L 241.028228 1912.630945 
L 241.878109 1884.179658 
L 242.72799 1937.202511 
L 243.577871 1893.749637 
L 245.277633 1930.477662 
L 246.977395 1857.28026 
L 247.827276 1500.561472 
L 248.677157 1894.396257 
L 251.2268 1864.781054 
L 252.076681 1769.598566 
L 254.626324 1814.086033 
L 255.476205 1880.493924 
L 257.175967 1867.108886 
L 258.025848 1887.412759 
L 258.875729 1761.7098 
L 262.275253 1902.155699 
L 263.125134 1919.485119 
L 264.824896 1940.04764 
L 267.374539 1893.943623 
L 268.22442 1937.202511 
L 269.924182 1876.937513 
L 271.623944 1890.839846 
L 273.323706 1942.892769 
L 274.173587 1862.453221 
L 275.023468 1881.851826 
L 275.873349 1934.357383 
L 276.72323 1933.710763 
L 277.573111 1707.264383 
L 278.422992 1893.943623 
L 280.122754 1801.347616 
L 280.972635 1862.970517 
L 281.822516 1896.271455 
L 282.672397 1809.301044 
L 284.372159 1655.664094 
L 285.22204 1810.982256 
L 286.071921 1890.257888 
L 286.921802 1844.832822 
L 287.771683 1853.497532 
L 288.621564 1828.803108 
L 289.471445 1920.778359 
L 290.321326 1894.956661 
L 291.171207 1829.006793 
L 292.021088 1664.096021 
L 292.870969 1830.661063 
L 294.570731 1899.159692 
L 295.420612 1795.657359 
L 297.120374 1871.117931 
L 309.868589 1882.239798 
L 312.418232 1877.325485 
L 321.766923 1785.76407 
L 322.616804 1855.987019 
L 323.466686 1877.972105 
L 324.316567 1893.297003 
L 325.166448 1890.494982 
L 326.016329 1017.579322 
L 326.86621 1634.066981 
L 327.716091 1626.954159 
L 328.565972 1828.656541 
L 330.265734 1781.237729 
L 331.115615 1788.221227 
L 331.965496 1776.88382 
L 332.815377 1833.678624 
L 333.665258 1803.028828 
L 334.515139 1893.232341 
L 335.36502 1783.565562 
L 337.914663 1834.777878 
L 338.764544 1750.329286 
L 349.812997 1727.309608 
L 352.36264 1806.714563 
L 354.062402 1784.212182 
L 354.912283 1900.60381 
L 355.762164 1838.657599 
L 356.612045 1855.599047 
L 357.461926 1805.636863 
L 358.311807 1937.073187 
L 359.161688 1819.065008 
L 360.011569 1746.708213 
L 360.86145 1598.567534 
L 361.711331 1825.337224 
L 362.561212 1732.611893 
L 363.411093 1812.016849 
L 364.260974 1827.083098 
L 365.110855 1790.988761 
L 365.960736 1733.67235 
L 366.810617 1891.29248 
L 367.660498 1782.346221 
L 368.510379 1839.756854 
L 369.36026 1825.682088 
L 370.210141 1826.113168 
L 371.060022 1922.459572 
L 371.909903 1843.93402 
L 372.759784 1637.946702 
L 373.609665 1854.521347 
L 376.159308 1836.329767 
L 377.009189 1841.761376 
L 378.708951 1832.773356 
L 379.558832 1513.730969 
L 380.408713 1730.046967 
L 381.258594 1904.612855 
L 382.108475 1610.723993 
L 382.958356 1825.078576 
L 383.808237 1837.765263 
L 384.658118 1900.021852 
L 385.507999 1708.298975 
L 386.35788 1874.307924 
L 387.207761 1710.04485 
L 388.057642 1875.558056 
L 389.757404 1623.333086 
L 390.607285 1878.618725 
L 391.457166 1857.668232 
L 392.307047 1885.472899 
L 393.156928 1875.773596 
L 395.706571 1912.501621 
L 397.406333 1789.902439 
L 398.256214 1840.468136 
L 399.106095 1833.65707 
L 400.805857 1789.902439 
L 401.655738 1857.474246 
L 402.505619 1824.625942 
L 403.3555 1804.559163 
L 404.205381 1484.730055 
L 405.905143 1793.626971 
L 406.755024 1845.468665 
L 407.604905 1856.20256 
L 408.454786 1778.845235 
L 409.304667 1838.916247 
L 410.154548 1654.694164 
L 411.004429 1839.735299 
L 411.85431 1738.215935 
L 412.704191 1860.739678 
L 413.554072 1572.76739 
L 414.403953 1781.884349 
L 415.253834 1703.32 
L 416.103715 1358.477469 
L 417.803478 1854.823103 
L 418.653359 1837.687669 
L 419.50324 1646.87006 
L 420.353121 1862.259235 
L 422.052883 1790.096425 
L 422.902764 1825.552764 
L 423.752645 1869.221179 
L 425.452407 1032.968881 
L 426.302288 1863.196834 
L 427.152169 1851.827096 
L 428.00205 1921.812952 
L 428.851931 1872.178388 
L 429.701812 1839.261111 
L 430.551693 1874.652788 
L 431.401574 1901.185769 
L 432.251455 1765.330873 
L 433.101336 1707.005735 
L 433.951217 1870.040231 
L 435.650979 1856.116344 
L 436.50086 1885.020265 
L 438.200622 1878.360077 
L 439.900384 1870.859283 
L 440.750265 1808.654424 
L 443.299908 1903.448939 
L 444.149789 1703.804965 
L 444.99967 1872.66982 
L 445.849551 1760.610546 
L 446.699432 1902.672995 
L 447.549313 1715.411797 
L 448.399194 1907.587308 
L 450.948837 1825.85452 
L 451.798718 1888.964648 
L 455.198242 1827.923705 
L 456.048123 1876.937513 
L 458.597766 1904.806841 
L 460.297528 1861.030657 
L 461.147409 1866.031186 
L 461.99729 1832.838018 
L 462.847171 1667.561905 
L 463.697052 1810.335636 
L 464.546933 1843.927554 
L 465.396814 1731.318653 
L 466.246695 1849.58548 
L 467.096576 1789.385143 
L 467.946457 1747.597315 
L 468.796338 1850.587741 
L 469.646219 1920.002415 
L 470.4961 1848.744874 
L 471.345981 1794.816752 
L 472.195862 1875.514948 
L 473.895624 1920.390387 
L 475.595386 1890.904508 
L 476.445267 1882.692432 
L 477.295148 1905.324138 
L 480.694672 1912.501621 
L 481.544553 1758.347376 
L 483.244315 1895.430849 
L 486.643839 1866.688583 
L 488.343601 1871.893875 
L 489.193482 1684.374029 
L 490.043363 1828.117691 
L 490.893244 1775.353486 
L 491.743125 1918.709175 
L 492.593006 1876.420217 
L 493.442887 1841.8907 
L 494.292768 1841.502728 
L 495.142649 1854.527505 
L 495.99253 1855.469723 
L 496.842411 1813.698061 
L 497.692292 1820.940207 
L 498.542173 1813.827385 
L 499.392054 1731.577301 
L 500.241935 1897.112062 
L 501.091816 1823.946991 
L 501.941697 1774.069483 
L 502.791578 1902.220361 
L 503.641459 1240.048987 
L 504.49134 1906.876026 
L 505.341221 1824.431956 
L 506.191102 1890.096233 
L 507.040983 1668.208525 
L 507.890864 1833.687861 
L 508.740745 1870.962742 
L 509.590626 1874.706673 
L 510.440507 1755.819679 
L 511.290389 1867.410642 
L 512.14027 1804.149637 
L 512.990151 1909.613385 
L 513.840032 1927.839452 
L 514.689913 1881.98115 
L 515.539794 1857.125071 
L 516.389675 1139.531884 
L 517.239556 1788.803185 
L 518.089437 1934.422045 
L 518.939318 1822.621419 
L 519.789199 1855.081751 
L 520.63908 1911.855001 
L 521.488961 1816.11211 
L 522.338842 1785.893394 
L 524.038604 1848.421564 
L 524.888485 1823.91466 
L 525.738366 1856.116344 
L 527.438128 1779.039221 
L 528.288009 1820.293587 
L 529.13789 1887.606745 
L 529.987771 1914.894116 
L 530.837652 1902.737657 
L 531.687533 1925.821997 
L 532.537414 1856.95695 
L 536.786819 1795.204725 
L 537.6367 1911.596353 
L 538.486581 1800.920847 
L 539.336462 1666.527313 
L 540.186343 1858.271744 
L 541.886105 1778.888343 
L 542.735986 1785.699408 
L 543.585867 1854.305807 
L 545.285629 1731.706625 
L 546.13551 1840.662122 
L 546.985391 1671.182978 
L 547.835272 1872.928468 
L 548.685153 1816.32765 
L 549.535034 1855.706817 
L 550.384915 1683.753274 
L 551.234796 1904.418869 
L 552.084677 1666.527313 
L 552.934558 1854.111821 
L 553.784439 1689.740977 
L 554.63432 1886.585085 
L 555.484201 1919.776098 
L 556.334082 1818.418388 
L 557.183963 1847.03133 
L 558.033844 1785.505422 
L 558.883725 1832.191398 
L 559.733606 1898.696281 
L 560.583487 1916.122694 
L 561.433368 1844.509512 
L 562.283249 1866.332942 
L 563.13313 1812.307828 
L 563.983011 1797.855867 
L 564.832892 1738.280597 
L 565.682773 1873.083656 
L 566.532654 1834.163589 
L 567.382535 1863.918893 
L 569.082297 1818.91413 
L 569.932178 1879.847303 
L 571.63194 1760.869194 
L 572.481821 1812.728131 
L 573.331702 1453.358201 
L 575.031464 1880.429261 
L 575.881345 1921.618966 
L 576.731226 1715.670445 
L 578.430988 1943.668713 
L 579.280869 1920.907683 
L 580.13075 1841.24408 
L 580.980631 1844.951369 
L 581.830512 1881.916488 
L 582.680393 1836.523753 
L 583.530274 1758.670686 
L 584.380155 1887.024787 
L 585.230036 1815.961232 
L 586.079917 1852.969459 
L 586.929798 1789.320481 
L 587.779679 1858.099312 
L 588.62956 1838.772554 
L 589.479441 1850.55541 
L 590.329322 1889.611268 
L 591.179203 1871.653702 
L 592.029084 1833.710955 
L 592.878965 1875.57961 
L 593.728846 1811.305567 
L 594.578727 1881.205206 
L 595.428608 1853.400539 
L 596.278489 1816.54319 
L 597.12837 1845.714996 
L 597.978251 1842.795968 
L 598.828132 1873.898398 
L 599.678013 1784.276844 
L 601.377775 1893.922069 
L 602.227656 1896.400779 
L 603.077537 1877.109945 
L 603.927418 1790.310831 
L 604.7773 1857.991542 
L 605.627181 1853.308165 
L 606.477062 1888.382689 
L 607.326943 1857.021612 
L 608.176824 1894.229983 
L 609.026705 1861.159981 
L 609.876586 1462.928179 
L 610.726467 1875.816704 
L 611.576348 1917.049516 
L 612.426229 1868.337465 
L 613.27611 1849.779466 
L 614.125991 1861.332413 
L 614.975872 1848.874198 
L 615.825753 1908.427914 
L 616.675634 1869.824691 
L 617.525515 1899.116584 
L 619.225277 1897.068954 
L 620.075158 1875.191638 
L 620.925039 1902.252692 
L 621.77492 1902.905778 
L 622.624801 1877.600298 
L 623.474682 1923.04153 
L 624.324563 1879.459331 
L 625.174444 1884.777782 
L 626.024325 1846.067866 
L 626.874206 1877.244657 
L 627.724087 1863.800346 
L 628.573968 1860.427145 
L 629.423849 1847.225316 
L 630.27373 1866.742468 
L 631.123611 1825.940736 
L 631.973492 1831.221467 
L 632.823373 1918.256541 
L 633.673254 1872.260293 
L 634.523135 1835.295174 
L 635.373016 1866.009632 
L 636.222897 1864.479298 
L 637.072778 1879.955073 
L 637.922659 1823.009391 
L 638.77254 1674.480741 
L 641.322183 1906.746702 
L 642.172064 1876.258561 
L 643.021945 1867.445129 
L 643.871826 1844.505919 
L 644.721707 1859.54343 
L 645.571588 1830.122213 
L 646.421469 1884.653847 
L 647.27135 1860.190051 
L 648.121231 1786.19515 
L 648.971112 1776.711388 
L 649.820993 1686.31389 
L 650.670874 1876.420217 
L 651.520755 1832.838018 
L 652.370636 1908.492576 
L 654.920279 1903.707587 
L 655.77016 1776.194092 
L 656.620041 1829.410931 
L 657.469922 1861.644946 
L 658.319803 1789.773115 
L 659.169684 1835.004195 
L 660.019565 1931.188944 
L 661.719327 1881.851826 
L 662.569208 1850.814058 
L 663.419089 1904.914611 
L 664.26897 1890.818292 
L 665.118851 1859.608092 
L 665.968732 1844.606505 
L 666.818613 1877.325485 
L 667.668494 935.587885 
L 668.518375 1941.470204 
L 669.368256 1908.285658 
L 670.218137 1900.448622 
L 671.068018 1748.949829 
L 671.917899 1839.174895 
L 672.76778 1734.648747 
L 673.617661 1879.376194 
L 674.467542 1555.276315 
L 675.317423 1892.327072 
L 676.167304 1844.541843 
L 677.017185 1878.526351 
L 677.867066 1849.742516 
L 678.716947 1870.859283 
L 679.566828 1748.518749 
L 680.416709 1857.28026 
L 681.26659 1786.41069 
L 682.116471 1835.101188 
L 682.966352 1911.079057 
L 683.816233 1771.279779 
L 684.666114 1873.704412 
L 685.515995 1864.65173 
L 686.365876 1784.988126 
L 687.215757 1820.940207 
L 688.915519 1859.996064 
L 689.7654 1899.827866 
L 690.615281 1829.540255 
L 691.465162 1872.61809 
L 692.315043 1671.312302 
L 693.164924 1826.50114 
L 694.014805 1775.418148 
L 694.864686 1860.384037 
L 695.714567 1779.340977 
L 696.564448 1783.436238 
L 697.414329 1856.827626 
L 698.26421 1820.099601 
L 699.963973 1836.847063 
L 700.813854 1799.343094 
L 701.663735 1808.395776 
L 702.513616 1871.764551 
L 703.363497 1894.913553 
L 704.213378 1812.792793 
L 705.063259 1876.083974 
L 706.763021 1835.295174 
L 707.612902 1855.987019 
L 708.462783 1846.805013 
L 709.312664 1897.273717 
L 710.162545 1891.680452 
L 711.012426 1826.449411 
L 711.862307 1905.684397 
L 712.712188 1842.634313 
L 713.562069 1875.367149 
L 714.41195 1756.200597 
L 715.261831 1702.35007 
L 716.111712 1757.105865 
L 716.961593 1845.097936 
L 717.811474 1835.657282 
L 718.661355 1863.401597 
L 719.511236 1726.016368 
L 720.361117 1830.574847 
L 721.210998 1898.66395 
L 722.060879 1810.46496 
L 722.91076 1853.788511 
L 723.760641 1808.223344 
L 725.460403 1910.949733 
L 727.160165 1821.522165 
L 728.010046 1871.635227 
L 728.859927 1848.098254 
L 729.709808 1857.590637 
L 730.559689 1791.247409 
L 731.40957 1903.448939 
L 732.259451 1879.459331 
L 733.109332 1890.581198 
L 733.959213 1851.460678 
L 736.508856 1906.509608 
L 737.358737 1826.565802 
L 738.208618 1880.299937 
L 739.90838 1918.191879 
L 740.758261 1918.806168 
L 741.608142 1865.427674 
L 742.458023 1824.88459 
L 743.307904 1849.666307 
L 744.157785 1736.122117 
L 745.007666 1916.63999 
L 745.857547 1561.386875 
L 746.707428 1894.719567 
L 747.557309 1871.667558 
L 748.40719 1877.519471 
L 749.257071 1929.055097 
L 750.106952 1794.170132 
L 751.806714 1770.15897 
L 752.656595 1525.73655 
L 753.506476 1820.940207 
L 754.356357 1906.423392 
L 755.206238 1806.197267 
L 756.056119 1812.404821 
L 756.906 1819.840953 
L 757.755881 1736.620938 
L 758.605762 1738.496137 
L 759.455643 1427.407178 
L 760.305524 1818.80636 
L 762.005286 1912.242973 
L 762.855167 1841.24408 
L 765.40481 1903.060967 
L 766.254691 1745.67362 
L 767.104572 1656.440038 
L 767.954453 1864.263758 
L 769.654215 1873.445764 
L 772.203858 1895.948145 
L 773.90362 1834.777878 
L 774.753501 1904.095559 
L 775.603382 1879.911965 
L 776.453263 1913.277566 
L 777.303144 1918.967823 
L 778.153025 1834.208853 
L 779.002906 1786.19515 
L 779.852787 1860.858225 
L 780.702668 1849.26217 
L 781.552549 1684.309367 
L 782.40243 1873.079346 
L 784.102192 1853.012567 
L 784.952073 1672.605542 
L 786.651835 1881.556228 
L 787.501716 1541.945162 
L 788.351597 1837.933385 
L 789.201478 1831.965081 
L 790.051359 1859.659822 
L 790.90124 1859.582228 
L 791.751121 1843.701236 
L 792.601002 1842.9684 
L 793.450884 1775.676796 
L 794.300765 1867.949492 
L 795.150646 1863.660245 
L 796.000527 1903.147183 
L 796.850408 1702.67338 
L 797.700289 1570.924522 
L 798.55017 1844.606505 
L 801.099813 1827.212422 
L 802.799575 1675.105807 
L 804.499337 1902.440212 
L 805.349218 1808.447505 
L 806.199099 1880.644802 
L 807.04898 1873.187116 
L 807.898861 1895.301525 
L 808.748742 1901.379755 
L 809.598623 1669.501766 
L 810.448504 1816.32765 
L 811.298385 1906.940688 
L 812.148266 1897.241386 
L 812.998147 1851.331354 
L 813.848028 1774.642204 
L 814.697909 1732.482569 
L 815.54779 1912.048987 
L 816.397671 1925.821997 
L 817.247552 1913.40689 
L 818.097433 1833.355314 
L 818.947314 1852.624595 
L 819.797195 1798.222285 
L 820.647076 1839.821516 
L 821.496957 1900.733134 
L 824.0466 1853.788511 
L 825.746362 1907.199336 
L 826.596243 1715.735107 
L 827.446124 1839.110233 
L 828.296005 1874.713139 
L 829.995767 1899.353678 
L 831.695529 1712.825316 
L 832.54541 1824.302632 
L 833.395291 1820.293587 
L 834.245172 1711.6614 
L 835.095053 1881.075882 
L 835.944934 1828.311677 
L 836.794815 1905.194814 
L 837.644696 1745.67362 
L 839.344458 1735.780332 
L 841.04422 1309.075689 
L 841.894101 1915.928708 
L 842.743982 1677.907828 
L 843.593863 1835.16585 
L 844.443744 1686.701862 
L 845.293625 1642.861015 
L 846.143506 1675.666211 
L 846.993387 1820.293587 
L 847.843268 1751.234554 
L 851.242792 1903.448939 
L 854.642316 1809.947664 
L 855.492197 1760.287236 
L 857.191959 1891.421804 
L 858.891721 1771.603089 
L 859.741602 1807.87848 
L 860.591483 1828.764311 
L 861.441364 1772.659235 
L 862.291245 1871.635227 
L 863.141126 1767.723368 
L 864.840888 1872.023199 
L 865.690769 1787.186635 
L 866.54065 1836.588415 
L 867.390531 1684.438691 
L 868.240412 1859.349444 
L 869.090293 1895.624835 
L 869.940174 1256.376146 
L 870.790055 1873.575088 
L 871.639936 1904.354207 
L 872.489817 1241.439221 
L 873.339698 1606.262314 
L 874.189579 1898.922598 
L 875.03946 1864.231427 
L 875.889341 1794.21324 
L 876.739222 1778.133952 
L 877.589103 1540.04841 
L 878.438984 1763.455675 
L 879.288865 1727.244946 
L 880.138746 1630.704556 
L 880.988627 1715.153149 
L 881.838508 1885.990195 
L 882.688389 1760.545884 
L 883.53827 1753.724041 
L 884.388151 1755.243599 
L 886.937795 1733.517161 
L 889.487438 1919.420457 
L 890.337319 1877.842781 
L 891.1872 1490.258658 
L 892.037081 1831.674102 
L 892.886962 1836.879394 
L 893.736843 1819.258994 
L 894.586724 1796.885937 
L 896.286486 1797.920529 
L 897.136367 1841.438066 
L 898.836129 1827.535732 
L 899.68601 1645.964792 
L 901.385772 1819.258994 
L 902.235653 1812.318605 
L 903.085534 1699.591157 
L 903.935415 1868.488343 
L 905.635177 1794.881414 
L 906.485058 1720.196786 
L 907.334939 1776.582064 
L 908.18482 1815.055963 
L 909.034701 1914.312158 
L 909.884582 1896.465441 
L 910.734463 1870.859283 
L 911.584344 1732.741217 
L 912.434225 1838.980909 
L 913.284106 1850.361424 
L 914.133987 1721.684013 
L 914.983868 1909.268521 
L 915.833749 1846.287717 
L 916.68363 1868.854761 
L 918.383392 1801.994236 
L 920.083154 1890.64586 
L 920.933035 1881.075882 
L 922.632797 1655.53477 
L 923.482678 1779.621179 
L 925.18244 1770.633159 
L 926.882202 1820.509127 
L 931.131607 1954.531932 
L 932.831369 1879.825749 
L 934.531131 1690.436093 
L 935.381012 1761.020072 
L 936.230893 1784.557046 
L 937.080774 1639.912427 
L 937.930655 1726.921636 
L 939.630417 1778.60814 
L 942.18006 1837.623007 
L 943.029941 1870.729959 
L 943.879822 1811.758201 
L 945.579584 1840.640568 
L 946.429465 1862.129911 
L 947.279346 1820.034939 
L 948.129227 1882.110474 
L 953.228513 1883.662362 
L 954.078394 1511.079827 
L 954.928275 1863.099841 
L 955.778156 1906.811364 
L 959.17768 1894.913553 
L 960.027561 968.953486 
L 964.276966 1875.2563 
L 965.126847 1851.590002 
L 969.376252 1809.107058 
L 970.226133 1887.736069 
L 971.076014 1883.791686 
L 971.925895 1799.601742 
L 972.775776 1780.332461 
L 975.325419 1862.065249 
L 976.1753 1856.95695 
L 977.025181 1891.421804 
L 977.875062 1870.600635 
L 978.724943 1904.095559 
L 979.574824 1851.41757 
L 982.124468 1908.6219 
L 982.974349 1887.671407 
L 983.82423 1921.101669 
L 984.674111 1914.70013 
L 985.523992 1858.314852 
L 986.373873 1816.349204 
L 987.223754 1824.88459 
L 988.923516 1741.750791 
L 989.773397 1923.882136 
L 990.623278 1857.840664 
L 991.473159 1840.726784 
L 992.32304 1906.207852 
L 993.172921 1790.290411 
L 994.872683 1878.360077 
L 995.722564 1826.50114 
L 998.272207 1906.164744 
L 999.122088 1839.304219 
L 1002.521612 1869.048747 
L 1003.371493 1753.174414 
L 1004.221374 1833.5493 
L 1006.771017 1885.860871 
L 1007.620898 1809.81834 
L 1009.32066 1821.716151 
L 1010.170541 1846.934337 
L 1011.020422 1770.503834 
L 1011.870303 1840.726784 
L 1012.720184 1842.063132 
L 1013.570065 1793.523512 
L 1015.269827 1859.996064 
L 1016.119708 1833.829502 
L 1016.969589 1870.632966 
L 1017.81947 1859.996064 
L 1018.669351 1838.657599 
L 1019.519232 1918.709175 
L 1021.218994 1887.671407 
L 1022.068875 1900.862459 
L 1022.918756 1898.049661 
L 1023.768637 1909.527169 
L 1024.618518 1905.970758 
L 1025.468399 1882.498446 
L 1026.31828 1872.605158 
L 1027.168161 1899.375232 
L 1028.018042 1898.750166 
L 1028.867923 1816.801838 
L 1029.717804 1886.313505 
L 1031.417566 1829.604917 
L 1032.267447 1813.482521 
L 1033.117328 1900.517594 
L 1033.967209 1827.535732 
L 1034.81709 1894.525581 
L 1036.516852 1841.664383 
L 1037.366733 1870.341987 
L 1038.216614 1828.001299 
L 1039.066495 1794.913745 
L 1039.916376 1833.419976 
L 1040.766257 1852.624595 
L 1041.616138 1791.756084 
L 1042.466019 1756.148867 
L 1043.3159 1794.85986 
L 1044.165781 1817.092817 
L 1045.015662 1844.649613 
L 1046.715424 1767.46472 
L 1047.565305 1654.370854 
L 1048.415186 1891.421804 
L 1049.265067 1881.075882 
L 1051.81471 1840.791446 
L 1052.664591 1922.588896 
L 1054.364353 1676.226615 
L 1058.613758 1869.178071 
L 1060.31352 1761.06318 
L 1061.163401 1416.54396 
L 1064.562925 1877.972105 
L 1066.262687 1902.414347 
L 1067.112568 1794.10547 
L 1067.962449 1887.736069 
L 1068.81233 1910.691085 
L 1069.662211 1922.847544 
L 1070.512092 1897.241386 
L 1076.46126 1831.027481 
L 1078.161022 1724.593803 
L 1080.710665 1872.66982 
L 1082.410427 1784.600154 
L 1083.260308 1807.361184 
L 1084.110189 1854.952427 
L 1084.96007 1686.288025 
L 1085.809951 1814.129141 
L 1086.659832 1663.220313 
L 1087.509713 1853.885504 
L 1088.359594 1771.107347 
L 1089.209475 1721.058946 
L 1090.059356 1859.155458 
L 1090.909237 1815.767246 
L 1091.759118 1832.450046 
L 1092.608999 1737.00891 
L 1093.45888 1555.890604 
L 1094.308761 1878.877373 
L 1095.158642 1857.732894 
L 1096.008523 1823.365032 
L 1096.858404 1824.173308 
L 1097.708285 1784.729478 
L 1098.558166 1852.365947 
L 1102.807571 1929.313745 
L 1103.657452 1760.481222 
L 1104.507333 1924.787404 
L 1105.357214 1741.276603 
L 1106.207095 1753.04509 
L 1108.756738 1793.588174 
L 1109.606619 1747.548819 
L 1110.4565 1730.672033 
L 1111.306381 1544.510089 
L 1113.856024 1445.641867 
L 1114.705905 1864.069771 
L 1115.555786 1797.842935 
L 1116.405667 1672.346894 
L 1117.255548 1834.777878 
L 1118.105429 1773.090315 
L 1123.204715 1803.869435 
L 1125.754358 1452.884013 
L 1126.604239 1844.056878 
L 1127.45412 1715.864431 
L 1128.304001 1838.269627 
L 1129.153882 1755.502247 
L 1130.003763 1900.2805 
L 1130.853644 1769.210594 
L 1131.703525 1888.231811 
L 1132.553406 1919.873091 
L 1133.403287 1557.70114 
L 1135.103049 1922.39491 
L 1136.802811 1843.248602 
L 1137.652692 1893.490989 
L 1138.502573 1881.528516 
L 1139.352454 1924.528756 
L 1141.052216 1893.232341 
L 1141.902097 1790.872369 
L 1142.751978 1726.921636 
L 1143.601859 1911.079057 
L 1144.45174 1890.042348 
L 1146.151502 1859.802078 
L 1147.001383 1777.487332 
L 1148.701145 1916.833976 
L 1149.551026 1866.850238 
L 1150.400907 1921.295656 
L 1151.250788 1869.954015 
L 1152.100669 1763.434121 
L 1153.800431 1829.327794 
L 1154.650312 1804.483724 
L 1155.500193 1744.38038 
L 1156.350074 1892.456396 
L 1158.049836 1842.472658 
L 1159.749598 1849.90879 
L 1161.44936 1931.512254 
L 1163.149122 1832.320722 
L 1163.999003 1890.904508 
L 1164.848884 1839.95084 
L 1165.698765 1889.35262 
L 1166.548646 1883.877902 
L 1167.398527 1881.98115 
L 1168.248408 1730.284061 
L 1169.948171 1820.552235 
L 1170.798052 1899.439894 
L 1171.647933 1901.379755 
L 1173.347695 1855.081751 
L 1174.197576 1918.773837 
L 1176.747219 1927.632533 
L 1177.5971 1889.223296 
L 1178.446981 1921.683628 
L 1180.146743 1934.098735 
L 1181.846505 1893.620313 
L 1183.546267 1771.150455 
L 1184.396148 1597.338956 
L 1185.246029 1890.904508 
L 1186.09591 1895.689497 
L 1187.795672 1934.616031 
L 1188.645553 1892.973693 
L 1189.495434 1932.417522 
L 1190.345315 1910.691085 
L 1191.195196 1894.784229 
L 1192.045077 1824.173308 
L 1192.894958 1902.759211 
L 1193.744839 1896.077469 
L 1194.59472 1891.809776 
L 1196.294482 1926.339293 
L 1197.144363 1836.847063 
L 1198.844125 1750.717258 
L 1199.694006 1903.836911 
L 1200.543887 1922.847544 
L 1201.393768 1583.953919 
L 1202.243649 1564.921732 
L 1203.09353 1885.084927 
L 1206.493054 1777.185576 
L 1207.342935 1955.954496 
L 1208.192816 1935.004003 
L 1210.742459 1910.820409 
L 1213.292102 1925.951321 
L 1214.141983 1916.252018 
L 1214.991864 1858.314852 
L 1215.841745 1924.270108 
L 1216.691626 1892.456396 
L 1218.391388 1929.701718 
L 1219.241269 1889.35262 
L 1220.941031 1909.915141 
L 1224.340555 1859.155458 
L 1226.040317 1462.712639 
L 1227.740079 1936.555891 
L 1228.58996 1908.363252 
L 1229.439841 1894.137609 
L 1231.989484 1938.10778 
L 1232.839365 1812.016849 
L 1233.689246 1910.173789 
L 1234.539127 1847.063661 
L 1235.389008 1912.372297 
L 1239.638413 1910.130681 
L 1240.488294 1921.166331 
L 1242.188056 1880.68791 
L 1244.737699 1930.779418 
L 1245.58758 673.663613 
L 1247.287342 1889.546606 
L 1248.137223 1934.702247 
L 1248.987104 1937.719808 
L 1249.836985 1618.979177 
L 1250.686866 1690.710907 
L 1252.386628 1921.942276 
L 1253.236509 1928.537801 
L 1254.08639 1915.02344 
L 1254.936271 1908.233928 
L 1255.786152 1940.69426 
L 1256.636033 1706.968785 
L 1257.485914 1948.324378 
L 1258.335795 1890.171672 
L 1259.185676 1903.578263 
L 1269.384249 1902.026375 
L 1271.933892 1859.478768 
L 1276.183297 1094.268472 
L 1277.033178 1921.295656 
L 1280.432702 1941.858177 
L 1282.132464 359.32 
L 1283.832226 1875.514948 
L 1284.682107 1409.81911 
L 1285.531988 1933.581439 
L 1287.23175 1769.598566 
L 1288.081631 1827.665057 
L 1290.631274 1941.470204 
L 1292.331036 1560.998903 
L 1299.979965 1944.056685 
L 1302.529608 1909.009873 
L 1304.22937 1925.175376 
L 1307.628894 1939.271696 
L 1310.178537 1917.803907 
L 1312.72818 1792.100948 
L 1315.277823 1877.131499 
L 1316.127704 1886.507491 
L 1319.527228 1920.131739 
L 1320.377109 1899.375232 
L 1321.22699 1896.594765 
L 1322.926752 1831.221467 
L 1324.626514 1881.593178 
L 1328.026038 1937.719808 
L 1329.7258 1307.394477 
L 1330.575681 1873.575088 
L 1331.425562 1850.296762 
L 1333.125324 1713.730585 
L 1334.825086 1432.968112 
L 1354.372349 1855.728371 
L 1355.22223 1947.41911 
L 1356.921993 1911.467029 
L 1358.621755 1840.985432 
L 1360.321517 1891.033832 
L 1362.87116 1804.128083 
L 1363.721041 1887.154111 
L 1364.570922 1917.286611 
L 1367.970446 1869.954015 
L 1376.469256 1842.925292 
L 1384.118185 1909.268521 
L 1386.667828 1897.37071 
L 1390.917233 1900.086514 
L 1392.616995 1771.409103 
L 1394.316757 1822.621419 
L 1396.016519 1912.501621 
L 1396.8664 1547.807852 
L 1399.416043 1812.275497 
L 1400.265924 1869.178071 
L 1415.563782 1897.629358 
L 1420.663068 1923.623488 
L 1428.311997 1850.038114 
L 1447.009379 1933.064142 
L 1458.057833 1761.968448 
L 1458.907714 1899.569218 
L 1463.157119 1695.62522 
L 1465.706762 1929.831042 
L 1467.406524 1835.683146 
L 1468.256405 1916.122694 
L 1474.205572 1859.349444 
L 1487.803668 1923.752812 
L 1490.353311 1913.665538 
L 1492.902954 1899.439894 
L 1493.752835 1870.729959 
L 1498.00224 1829.475593 
L 1498.852121 1924.270108 
L 1499.702002 1800.119038 
L 1504.801288 1927.115237 
L 1505.651169 1858.832148 
L 1509.900574 1810.335636 
L 1514.149979 1903.060967 
L 1530.297718 1859.22012 
L 1537.096766 1932.158874 
L 1538.796528 1887.542083 
L 1554.094387 1908.751224 
L 1563.443078 1869.048747 
L 1564.292959 1924.399432 
L 1571.092007 1768.693298 
L 1575.341412 1914.958778 
L 1578.740936 1875.644272 
L 1612.736176 1900.215838 
L 1637.382725 1897.112062 
L 1645.031655 1870.471311 
L 1652.680584 1879.136021 
L 1672.227847 1930.477662 
L 1681.576538 1899.827866 
L 1683.2763 1972.12 
L 1688.375586 1890.64586 
L 1692.624991 1867.23821 
L 1697.724277 1904.742179 
L 1708.77273 1928.020505 
L 1724.070588 1931.770902 
L 1734.269161 1916.510666 
L 1745.317614 1811.628877 
L 1745.317614 1811.628877 
" style="fill:none;stroke:#0000ff;stroke-linecap:square;stroke-width:1.5;"/>
   </g>
   <g id="patch_3">
    <path d="M 40.88125 2052.76 
L 40.88125 278.68 
" style="fill:none;stroke:#000000;stroke-linecap:square;stroke-linejoin:miter;stroke-width:0.8;"/>
   </g>
   <g id="patch_4">
    <path d="M 1826.48125 2052.76 
L 1826.48125 278.68 
" style="fill:none;stroke:#000000;stroke-linecap:square;stroke-linejoin:miter;stroke-width:0.8;"/>
   </g>
   <g id="patch_5">
    <path d="M 40.88125 2052.76 
L 1826.48125 2052.76 
" style="fill:none;stroke:#000000;stroke-linecap:square;stroke-linejoin:miter;stroke-width:0.8;"/>
   </g>
   <g id="patch_6">
    <path d="M 40.88125 278.68 
L 1826.48125 278.68 
" style="fill:none;stroke:#000000;stroke-linecap:square;stroke-linejoin:miter;stroke-width:0.8;"/>
   </g>
   <g id="text_18">
    <text style="font-family:DejaVu Sans;font-size:12px;font-stretch:normal;font-style:normal;font-weight:normal;text-anchor:middle;" transform="rotate(-0, 933.68125, 272.68)" x="933.68125" y="272.68">temperature-&gt;ping_night</text>
   </g>
  </g>
  <g id="legend_1">
   <g id="patch_7">
    <path d="M 1944.79375 22.95625 
L 2052.08125 22.95625 
Q 2054.08125 22.95625 2054.08125 20.95625 
L 2054.08125 7 
Q 2054.08125 5 2052.08125 5 
L 1944.79375 5 
Q 1942.79375 5 1942.79375 7 
L 1942.79375 20.95625 
Q 1942.79375 22.95625 1944.79375 22.95625 
z
" style="fill:#ffffff;opacity:0.8;stroke:#cccccc;stroke-linejoin:miter;"/>
   </g>
   <g id="line2d_17">
    <path d="M 1946.79375 13.098438 
L 1966.79375 13.098438 
" style="fill:none;stroke:#0000ff;stroke-linecap:square;stroke-width:1.5;"/>
   </g>
   <g id="line2d_18"/>
   <g id="text_19">
    <text style="font-family:DejaVu Sans;font-size:10px;font-stretch:normal;font-style:normal;font-weight:normal;text-anchor:start;" transform="rotate(-0, 1974.79375, 16.598438)" x="1974.79375" y="16.598438">ping_night[ms]</text>
   </g>
  </g>
 </g>
 <defs>
  <clipPath id="p8f6ec4015c">
   <rect height="1774.08" width="1785.6" x="40.88125" y="278.68"/>
  </clipPath>
 </defs>
</svg>
