<?xml version="1.0" encoding="utf-8" standalone="no"?>
<!DOCTYPE svg PUBLIC "-//W3C//DTD SVG 1.1//EN"
  "http://www.w3.org/Graphics/SVG/1.1/DTD/svg11.dtd">
<!-- Created with matplotlib (https://matplotlib.org/) -->
<svg height="345.6pt" version="1.1" viewBox="0 0 460.8 345.6" width="460.8pt" xmlns="http://www.w3.org/2000/svg" xmlns:xlink="http://www.w3.org/1999/xlink">
 <metadata>
  <rdf:RDF xmlns:cc="http://creativecommons.org/ns#" xmlns:dc="http://purl.org/dc/elements/1.1/" xmlns:rdf="http://www.w3.org/1999/02/22-rdf-syntax-ns#">
   <cc:Work>
    <dc:type rdf:resource="http://purl.org/dc/dcmitype/StillImage"/>
    <dc:date>2022-07-16T13:54:29.178099</dc:date>
    <dc:format>image/svg+xml</dc:format>
    <dc:creator>
     <cc:Agent>
      <dc:title>Matplotlib v3.3.2, https://matplotlib.org/</dc:title>
     </cc:Agent>
    </dc:creator>
   </cc:Work>
  </rdf:RDF>
 </metadata>
 <defs>
  <style type="text/css">*{stroke-linecap:butt;stroke-linejoin:round;}</style>
 </defs>
 <g id="figure_1">
  <g id="patch_1">
   <path d="M 0 345.6 
L 460.8 345.6 
L 460.8 0 
L 0 0 
z
" style="fill:#ffffff;"/>
  </g>
  <g id="axes_1">
   <g id="patch_2">
    <path d="M 57.6 307.584 
L 414.72 307.584 
L 414.72 41.472 
L 57.6 41.472 
z
" style="fill:#ffffff;"/>
   </g>
   <g id="matplotlib.axis_1">
    <g id="xtick_1">
     <g id="line2d_1">
      <defs>
       <path d="M 0 0 
L 0 3.5 
" id="m9ae775cf96" style="stroke:#000000;stroke-width:0.8;"/>
      </defs>
      <g>
       <use style="stroke:#000000;stroke-width:0.8;" x="66.462732" xlink:href="#m9ae775cf96" y="307.584"/>
      </g>
     </g>
     <g id="text_1">
      <!-- 5 -->
      <g transform="translate(63.281482 322.182437)scale(0.1 -0.1)">
       <defs>
        <path d="M 10.796875 72.90625 
L 49.515625 72.90625 
L 49.515625 64.59375 
L 19.828125 64.59375 
L 19.828125 46.734375 
Q 21.96875 47.46875 24.109375 47.828125 
Q 26.265625 48.1875 28.421875 48.1875 
Q 40.625 48.1875 47.75 41.5 
Q 54.890625 34.8125 54.890625 23.390625 
Q 54.890625 11.625 47.5625 5.09375 
Q 40.234375 -1.421875 26.90625 -1.421875 
Q 22.3125 -1.421875 17.546875 -0.640625 
Q 12.796875 0.140625 7.71875 1.703125 
L 7.71875 11.625 
Q 12.109375 9.234375 16.796875 8.0625 
Q 21.484375 6.890625 26.703125 6.890625 
Q 35.15625 6.890625 40.078125 11.328125 
Q 45.015625 15.765625 45.015625 23.390625 
Q 45.015625 31 40.078125 35.4375 
Q 35.15625 39.890625 26.703125 39.890625 
Q 22.75 39.890625 18.8125 39.015625 
Q 14.890625 38.140625 10.796875 36.28125 
z
" id="DejaVuSans-53"/>
       </defs>
       <use xlink:href="#DejaVuSans-53"/>
      </g>
     </g>
    </g>
    <g id="xtick_2">
     <g id="line2d_2">
      <g>
       <use style="stroke:#000000;stroke-width:0.8;" x="128.92032" xlink:href="#m9ae775cf96" y="307.584"/>
      </g>
     </g>
     <g id="text_2">
      <!-- 10 -->
      <g transform="translate(122.55782 322.182437)scale(0.1 -0.1)">
       <defs>
        <path d="M 12.40625 8.296875 
L 28.515625 8.296875 
L 28.515625 63.921875 
L 10.984375 60.40625 
L 10.984375 69.390625 
L 28.421875 72.90625 
L 38.28125 72.90625 
L 38.28125 8.296875 
L 54.390625 8.296875 
L 54.390625 0 
L 12.40625 0 
z
" id="DejaVuSans-49"/>
        <path d="M 31.78125 66.40625 
Q 24.171875 66.40625 20.328125 58.90625 
Q 16.5 51.421875 16.5 36.375 
Q 16.5 21.390625 20.328125 13.890625 
Q 24.171875 6.390625 31.78125 6.390625 
Q 39.453125 6.390625 43.28125 13.890625 
Q 47.125 21.390625 47.125 36.375 
Q 47.125 51.421875 43.28125 58.90625 
Q 39.453125 66.40625 31.78125 66.40625 
z
M 31.78125 74.21875 
Q 44.046875 74.21875 50.515625 64.515625 
Q 56.984375 54.828125 56.984375 36.375 
Q 56.984375 17.96875 50.515625 8.265625 
Q 44.046875 -1.421875 31.78125 -1.421875 
Q 19.53125 -1.421875 13.0625 8.265625 
Q 6.59375 17.96875 6.59375 36.375 
Q 6.59375 54.828125 13.0625 64.515625 
Q 19.53125 74.21875 31.78125 74.21875 
z
" id="DejaVuSans-48"/>
       </defs>
       <use xlink:href="#DejaVuSans-49"/>
       <use x="63.623047" xlink:href="#DejaVuSans-48"/>
      </g>
     </g>
    </g>
    <g id="xtick_3">
     <g id="line2d_3">
      <g>
       <use style="stroke:#000000;stroke-width:0.8;" x="191.377909" xlink:href="#m9ae775cf96" y="307.584"/>
      </g>
     </g>
     <g id="text_3">
      <!-- 15 -->
      <g transform="translate(185.015409 322.182437)scale(0.1 -0.1)">
       <use xlink:href="#DejaVuSans-49"/>
       <use x="63.623047" xlink:href="#DejaVuSans-53"/>
      </g>
     </g>
    </g>
    <g id="xtick_4">
     <g id="line2d_4">
      <g>
       <use style="stroke:#000000;stroke-width:0.8;" x="253.835498" xlink:href="#m9ae775cf96" y="307.584"/>
      </g>
     </g>
     <g id="text_4">
      <!-- 20 -->
      <g transform="translate(247.472998 322.182437)scale(0.1 -0.1)">
       <defs>
        <path d="M 19.1875 8.296875 
L 53.609375 8.296875 
L 53.609375 0 
L 7.328125 0 
L 7.328125 8.296875 
Q 12.9375 14.109375 22.625 23.890625 
Q 32.328125 33.6875 34.8125 36.53125 
Q 39.546875 41.84375 41.421875 45.53125 
Q 43.3125 49.21875 43.3125 52.78125 
Q 43.3125 58.59375 39.234375 62.25 
Q 35.15625 65.921875 28.609375 65.921875 
Q 23.96875 65.921875 18.8125 64.3125 
Q 13.671875 62.703125 7.8125 59.421875 
L 7.8125 69.390625 
Q 13.765625 71.78125 18.9375 73 
Q 24.125 74.21875 28.421875 74.21875 
Q 39.75 74.21875 46.484375 68.546875 
Q 53.21875 62.890625 53.21875 53.421875 
Q 53.21875 48.921875 51.53125 44.890625 
Q 49.859375 40.875 45.40625 35.40625 
Q 44.1875 33.984375 37.640625 27.21875 
Q 31.109375 20.453125 19.1875 8.296875 
z
" id="DejaVuSans-50"/>
       </defs>
       <use xlink:href="#DejaVuSans-50"/>
       <use x="63.623047" xlink:href="#DejaVuSans-48"/>
      </g>
     </g>
    </g>
    <g id="xtick_5">
     <g id="line2d_5">
      <g>
       <use style="stroke:#000000;stroke-width:0.8;" x="316.293086" xlink:href="#m9ae775cf96" y="307.584"/>
      </g>
     </g>
     <g id="text_5">
      <!-- 25 -->
      <g transform="translate(309.930586 322.182437)scale(0.1 -0.1)">
       <use xlink:href="#DejaVuSans-50"/>
       <use x="63.623047" xlink:href="#DejaVuSans-53"/>
      </g>
     </g>
    </g>
    <g id="xtick_6">
     <g id="line2d_6">
      <g>
       <use style="stroke:#000000;stroke-width:0.8;" x="378.750675" xlink:href="#m9ae775cf96" y="307.584"/>
      </g>
     </g>
     <g id="text_6">
      <!-- 30 -->
      <g transform="translate(372.388175 322.182437)scale(0.1 -0.1)">
       <defs>
        <path d="M 40.578125 39.3125 
Q 47.65625 37.796875 51.625 33 
Q 55.609375 28.21875 55.609375 21.1875 
Q 55.609375 10.40625 48.1875 4.484375 
Q 40.765625 -1.421875 27.09375 -1.421875 
Q 22.515625 -1.421875 17.65625 -0.515625 
Q 12.796875 0.390625 7.625 2.203125 
L 7.625 11.71875 
Q 11.71875 9.328125 16.59375 8.109375 
Q 21.484375 6.890625 26.8125 6.890625 
Q 36.078125 6.890625 40.9375 10.546875 
Q 45.796875 14.203125 45.796875 21.1875 
Q 45.796875 27.640625 41.28125 31.265625 
Q 36.765625 34.90625 28.71875 34.90625 
L 20.21875 34.90625 
L 20.21875 43.015625 
L 29.109375 43.015625 
Q 36.375 43.015625 40.234375 45.921875 
Q 44.09375 48.828125 44.09375 54.296875 
Q 44.09375 59.90625 40.109375 62.90625 
Q 36.140625 65.921875 28.71875 65.921875 
Q 24.65625 65.921875 20.015625 65.03125 
Q 15.375 64.15625 9.8125 62.3125 
L 9.8125 71.09375 
Q 15.4375 72.65625 20.34375 73.4375 
Q 25.25 74.21875 29.59375 74.21875 
Q 40.828125 74.21875 47.359375 69.109375 
Q 53.90625 64.015625 53.90625 55.328125 
Q 53.90625 49.265625 50.4375 45.09375 
Q 46.96875 40.921875 40.578125 39.3125 
z
" id="DejaVuSans-51"/>
       </defs>
       <use xlink:href="#DejaVuSans-51"/>
       <use x="63.623047" xlink:href="#DejaVuSans-48"/>
      </g>
     </g>
    </g>
    <g id="text_7">
     <!-- temperature from OpenWeatherMap -->
     <g transform="translate(144.963906 335.860562)scale(0.1 -0.1)">
      <defs>
       <path d="M 18.3125 70.21875 
L 18.3125 54.6875 
L 36.8125 54.6875 
L 36.8125 47.703125 
L 18.3125 47.703125 
L 18.3125 18.015625 
Q 18.3125 11.328125 20.140625 9.421875 
Q 21.96875 7.515625 27.59375 7.515625 
L 36.8125 7.515625 
L 36.8125 0 
L 27.59375 0 
Q 17.1875 0 13.234375 3.875 
Q 9.28125 7.765625 9.28125 18.015625 
L 9.28125 47.703125 
L 2.6875 47.703125 
L 2.6875 54.6875 
L 9.28125 54.6875 
L 9.28125 70.21875 
z
" id="DejaVuSans-116"/>
       <path d="M 56.203125 29.59375 
L 56.203125 25.203125 
L 14.890625 25.203125 
Q 15.484375 15.921875 20.484375 11.0625 
Q 25.484375 6.203125 34.421875 6.203125 
Q 39.59375 6.203125 44.453125 7.46875 
Q 49.3125 8.734375 54.109375 11.28125 
L 54.109375 2.78125 
Q 49.265625 0.734375 44.1875 -0.34375 
Q 39.109375 -1.421875 33.890625 -1.421875 
Q 20.796875 -1.421875 13.15625 6.1875 
Q 5.515625 13.8125 5.515625 26.8125 
Q 5.515625 40.234375 12.765625 48.109375 
Q 20.015625 56 32.328125 56 
Q 43.359375 56 49.78125 48.890625 
Q 56.203125 41.796875 56.203125 29.59375 
z
M 47.21875 32.234375 
Q 47.125 39.59375 43.09375 43.984375 
Q 39.0625 48.390625 32.421875 48.390625 
Q 24.90625 48.390625 20.390625 44.140625 
Q 15.875 39.890625 15.1875 32.171875 
z
" id="DejaVuSans-101"/>
       <path d="M 52 44.1875 
Q 55.375 50.25 60.0625 53.125 
Q 64.75 56 71.09375 56 
Q 79.640625 56 84.28125 50.015625 
Q 88.921875 44.046875 88.921875 33.015625 
L 88.921875 0 
L 79.890625 0 
L 79.890625 32.71875 
Q 79.890625 40.578125 77.09375 44.375 
Q 74.3125 48.1875 68.609375 48.1875 
Q 61.625 48.1875 57.5625 43.546875 
Q 53.515625 38.921875 53.515625 30.90625 
L 53.515625 0 
L 44.484375 0 
L 44.484375 32.71875 
Q 44.484375 40.625 41.703125 44.40625 
Q 38.921875 48.1875 33.109375 48.1875 
Q 26.21875 48.1875 22.15625 43.53125 
Q 18.109375 38.875 18.109375 30.90625 
L 18.109375 0 
L 9.078125 0 
L 9.078125 54.6875 
L 18.109375 54.6875 
L 18.109375 46.1875 
Q 21.1875 51.21875 25.484375 53.609375 
Q 29.78125 56 35.6875 56 
Q 41.65625 56 45.828125 52.96875 
Q 50 49.953125 52 44.1875 
z
" id="DejaVuSans-109"/>
       <path d="M 18.109375 8.203125 
L 18.109375 -20.796875 
L 9.078125 -20.796875 
L 9.078125 54.6875 
L 18.109375 54.6875 
L 18.109375 46.390625 
Q 20.953125 51.265625 25.265625 53.625 
Q 29.59375 56 35.59375 56 
Q 45.5625 56 51.78125 48.09375 
Q 58.015625 40.1875 58.015625 27.296875 
Q 58.015625 14.40625 51.78125 6.484375 
Q 45.5625 -1.421875 35.59375 -1.421875 
Q 29.59375 -1.421875 25.265625 0.953125 
Q 20.953125 3.328125 18.109375 8.203125 
z
M 48.6875 27.296875 
Q 48.6875 37.203125 44.609375 42.84375 
Q 40.53125 48.484375 33.40625 48.484375 
Q 26.265625 48.484375 22.1875 42.84375 
Q 18.109375 37.203125 18.109375 27.296875 
Q 18.109375 17.390625 22.1875 11.75 
Q 26.265625 6.109375 33.40625 6.109375 
Q 40.53125 6.109375 44.609375 11.75 
Q 48.6875 17.390625 48.6875 27.296875 
z
" id="DejaVuSans-112"/>
       <path d="M 41.109375 46.296875 
Q 39.59375 47.171875 37.8125 47.578125 
Q 36.03125 48 33.890625 48 
Q 26.265625 48 22.1875 43.046875 
Q 18.109375 38.09375 18.109375 28.8125 
L 18.109375 0 
L 9.078125 0 
L 9.078125 54.6875 
L 18.109375 54.6875 
L 18.109375 46.1875 
Q 20.953125 51.171875 25.484375 53.578125 
Q 30.03125 56 36.53125 56 
Q 37.453125 56 38.578125 55.875 
Q 39.703125 55.765625 41.0625 55.515625 
z
" id="DejaVuSans-114"/>
       <path d="M 34.28125 27.484375 
Q 23.390625 27.484375 19.1875 25 
Q 14.984375 22.515625 14.984375 16.5 
Q 14.984375 11.71875 18.140625 8.90625 
Q 21.296875 6.109375 26.703125 6.109375 
Q 34.1875 6.109375 38.703125 11.40625 
Q 43.21875 16.703125 43.21875 25.484375 
L 43.21875 27.484375 
z
M 52.203125 31.203125 
L 52.203125 0 
L 43.21875 0 
L 43.21875 8.296875 
Q 40.140625 3.328125 35.546875 0.953125 
Q 30.953125 -1.421875 24.3125 -1.421875 
Q 15.921875 -1.421875 10.953125 3.296875 
Q 6 8.015625 6 15.921875 
Q 6 25.140625 12.171875 29.828125 
Q 18.359375 34.515625 30.609375 34.515625 
L 43.21875 34.515625 
L 43.21875 35.40625 
Q 43.21875 41.609375 39.140625 45 
Q 35.0625 48.390625 27.6875 48.390625 
Q 23 48.390625 18.546875 47.265625 
Q 14.109375 46.140625 10.015625 43.890625 
L 10.015625 52.203125 
Q 14.9375 54.109375 19.578125 55.046875 
Q 24.21875 56 28.609375 56 
Q 40.484375 56 46.34375 49.84375 
Q 52.203125 43.703125 52.203125 31.203125 
z
" id="DejaVuSans-97"/>
       <path d="M 8.5 21.578125 
L 8.5 54.6875 
L 17.484375 54.6875 
L 17.484375 21.921875 
Q 17.484375 14.15625 20.5 10.265625 
Q 23.53125 6.390625 29.59375 6.390625 
Q 36.859375 6.390625 41.078125 11.03125 
Q 45.3125 15.671875 45.3125 23.6875 
L 45.3125 54.6875 
L 54.296875 54.6875 
L 54.296875 0 
L 45.3125 0 
L 45.3125 8.40625 
Q 42.046875 3.421875 37.71875 1 
Q 33.40625 -1.421875 27.6875 -1.421875 
Q 18.265625 -1.421875 13.375 4.4375 
Q 8.5 10.296875 8.5 21.578125 
z
M 31.109375 56 
z
" id="DejaVuSans-117"/>
       <path id="DejaVuSans-32"/>
       <path d="M 37.109375 75.984375 
L 37.109375 68.5 
L 28.515625 68.5 
Q 23.6875 68.5 21.796875 66.546875 
Q 19.921875 64.59375 19.921875 59.515625 
L 19.921875 54.6875 
L 34.71875 54.6875 
L 34.71875 47.703125 
L 19.921875 47.703125 
L 19.921875 0 
L 10.890625 0 
L 10.890625 47.703125 
L 2.296875 47.703125 
L 2.296875 54.6875 
L 10.890625 54.6875 
L 10.890625 58.5 
Q 10.890625 67.625 15.140625 71.796875 
Q 19.390625 75.984375 28.609375 75.984375 
z
" id="DejaVuSans-102"/>
       <path d="M 30.609375 48.390625 
Q 23.390625 48.390625 19.1875 42.75 
Q 14.984375 37.109375 14.984375 27.296875 
Q 14.984375 17.484375 19.15625 11.84375 
Q 23.34375 6.203125 30.609375 6.203125 
Q 37.796875 6.203125 41.984375 11.859375 
Q 46.1875 17.53125 46.1875 27.296875 
Q 46.1875 37.015625 41.984375 42.703125 
Q 37.796875 48.390625 30.609375 48.390625 
z
M 30.609375 56 
Q 42.328125 56 49.015625 48.375 
Q 55.71875 40.765625 55.71875 27.296875 
Q 55.71875 13.875 49.015625 6.21875 
Q 42.328125 -1.421875 30.609375 -1.421875 
Q 18.84375 -1.421875 12.171875 6.21875 
Q 5.515625 13.875 5.515625 27.296875 
Q 5.515625 40.765625 12.171875 48.375 
Q 18.84375 56 30.609375 56 
z
" id="DejaVuSans-111"/>
       <path d="M 39.40625 66.21875 
Q 28.65625 66.21875 22.328125 58.203125 
Q 16.015625 50.203125 16.015625 36.375 
Q 16.015625 22.609375 22.328125 14.59375 
Q 28.65625 6.59375 39.40625 6.59375 
Q 50.140625 6.59375 56.421875 14.59375 
Q 62.703125 22.609375 62.703125 36.375 
Q 62.703125 50.203125 56.421875 58.203125 
Q 50.140625 66.21875 39.40625 66.21875 
z
M 39.40625 74.21875 
Q 54.734375 74.21875 63.90625 63.9375 
Q 73.09375 53.65625 73.09375 36.375 
Q 73.09375 19.140625 63.90625 8.859375 
Q 54.734375 -1.421875 39.40625 -1.421875 
Q 24.03125 -1.421875 14.8125 8.828125 
Q 5.609375 19.09375 5.609375 36.375 
Q 5.609375 53.65625 14.8125 63.9375 
Q 24.03125 74.21875 39.40625 74.21875 
z
" id="DejaVuSans-79"/>
       <path d="M 54.890625 33.015625 
L 54.890625 0 
L 45.90625 0 
L 45.90625 32.71875 
Q 45.90625 40.484375 42.875 44.328125 
Q 39.84375 48.1875 33.796875 48.1875 
Q 26.515625 48.1875 22.3125 43.546875 
Q 18.109375 38.921875 18.109375 30.90625 
L 18.109375 0 
L 9.078125 0 
L 9.078125 54.6875 
L 18.109375 54.6875 
L 18.109375 46.1875 
Q 21.34375 51.125 25.703125 53.5625 
Q 30.078125 56 35.796875 56 
Q 45.21875 56 50.046875 50.171875 
Q 54.890625 44.34375 54.890625 33.015625 
z
" id="DejaVuSans-110"/>
       <path d="M 3.328125 72.90625 
L 13.28125 72.90625 
L 28.609375 11.28125 
L 43.890625 72.90625 
L 54.984375 72.90625 
L 70.3125 11.28125 
L 85.59375 72.90625 
L 95.609375 72.90625 
L 77.296875 0 
L 64.890625 0 
L 49.515625 63.28125 
L 33.984375 0 
L 21.578125 0 
z
" id="DejaVuSans-87"/>
       <path d="M 54.890625 33.015625 
L 54.890625 0 
L 45.90625 0 
L 45.90625 32.71875 
Q 45.90625 40.484375 42.875 44.328125 
Q 39.84375 48.1875 33.796875 48.1875 
Q 26.515625 48.1875 22.3125 43.546875 
Q 18.109375 38.921875 18.109375 30.90625 
L 18.109375 0 
L 9.078125 0 
L 9.078125 75.984375 
L 18.109375 75.984375 
L 18.109375 46.1875 
Q 21.34375 51.125 25.703125 53.5625 
Q 30.078125 56 35.796875 56 
Q 45.21875 56 50.046875 50.171875 
Q 54.890625 44.34375 54.890625 33.015625 
z
" id="DejaVuSans-104"/>
       <path d="M 9.8125 72.90625 
L 24.515625 72.90625 
L 43.109375 23.296875 
L 61.8125 72.90625 
L 76.515625 72.90625 
L 76.515625 0 
L 66.890625 0 
L 66.890625 64.015625 
L 48.09375 14.015625 
L 38.1875 14.015625 
L 19.390625 64.015625 
L 19.390625 0 
L 9.8125 0 
z
" id="DejaVuSans-77"/>
      </defs>
      <use xlink:href="#DejaVuSans-116"/>
      <use x="39.208984" xlink:href="#DejaVuSans-101"/>
      <use x="100.732422" xlink:href="#DejaVuSans-109"/>
      <use x="198.144531" xlink:href="#DejaVuSans-112"/>
      <use x="261.621094" xlink:href="#DejaVuSans-101"/>
      <use x="323.144531" xlink:href="#DejaVuSans-114"/>
      <use x="364.257812" xlink:href="#DejaVuSans-97"/>
      <use x="425.537109" xlink:href="#DejaVuSans-116"/>
      <use x="464.746094" xlink:href="#DejaVuSans-117"/>
      <use x="528.125" xlink:href="#DejaVuSans-114"/>
      <use x="566.988281" xlink:href="#DejaVuSans-101"/>
      <use x="628.511719" xlink:href="#DejaVuSans-32"/>
      <use x="660.298828" xlink:href="#DejaVuSans-102"/>
      <use x="695.503906" xlink:href="#DejaVuSans-114"/>
      <use x="734.367188" xlink:href="#DejaVuSans-111"/>
      <use x="795.548828" xlink:href="#DejaVuSans-109"/>
      <use x="892.960938" xlink:href="#DejaVuSans-32"/>
      <use x="924.748047" xlink:href="#DejaVuSans-79"/>
      <use x="1003.458984" xlink:href="#DejaVuSans-112"/>
      <use x="1066.935547" xlink:href="#DejaVuSans-101"/>
      <use x="1128.458984" xlink:href="#DejaVuSans-110"/>
      <use x="1191.837891" xlink:href="#DejaVuSans-87"/>
      <use x="1284.839844" xlink:href="#DejaVuSans-101"/>
      <use x="1346.363281" xlink:href="#DejaVuSans-97"/>
      <use x="1407.642578" xlink:href="#DejaVuSans-116"/>
      <use x="1446.851562" xlink:href="#DejaVuSans-104"/>
      <use x="1510.230469" xlink:href="#DejaVuSans-101"/>
      <use x="1571.753906" xlink:href="#DejaVuSans-114"/>
      <use x="1612.867188" xlink:href="#DejaVuSans-77"/>
      <use x="1699.146484" xlink:href="#DejaVuSans-97"/>
      <use x="1760.425781" xlink:href="#DejaVuSans-112"/>
     </g>
    </g>
   </g>
   <g id="matplotlib.axis_2">
    <g id="ytick_1">
     <g id="line2d_7">
      <defs>
       <path d="M 0 0 
L -3.5 0 
" id="mb4344929a1" style="stroke:#000000;stroke-width:0.8;"/>
      </defs>
      <g>
       <use style="stroke:#000000;stroke-width:0.8;" x="57.6" xlink:href="#mb4344929a1" y="265.59533"/>
      </g>
     </g>
     <g id="text_8">
      <!-- 6 -->
      <g transform="translate(44.2375 269.394549)scale(0.1 -0.1)">
       <defs>
        <path d="M 33.015625 40.375 
Q 26.375 40.375 22.484375 35.828125 
Q 18.609375 31.296875 18.609375 23.390625 
Q 18.609375 15.53125 22.484375 10.953125 
Q 26.375 6.390625 33.015625 6.390625 
Q 39.65625 6.390625 43.53125 10.953125 
Q 47.40625 15.53125 47.40625 23.390625 
Q 47.40625 31.296875 43.53125 35.828125 
Q 39.65625 40.375 33.015625 40.375 
z
M 52.59375 71.296875 
L 52.59375 62.3125 
Q 48.875 64.0625 45.09375 64.984375 
Q 41.3125 65.921875 37.59375 65.921875 
Q 27.828125 65.921875 22.671875 59.328125 
Q 17.53125 52.734375 16.796875 39.40625 
Q 19.671875 43.65625 24.015625 45.921875 
Q 28.375 48.1875 33.59375 48.1875 
Q 44.578125 48.1875 50.953125 41.515625 
Q 57.328125 34.859375 57.328125 23.390625 
Q 57.328125 12.15625 50.6875 5.359375 
Q 44.046875 -1.421875 33.015625 -1.421875 
Q 20.359375 -1.421875 13.671875 8.265625 
Q 6.984375 17.96875 6.984375 36.375 
Q 6.984375 53.65625 15.1875 63.9375 
Q 23.390625 74.21875 37.203125 74.21875 
Q 40.921875 74.21875 44.703125 73.484375 
Q 48.484375 72.75 52.59375 71.296875 
z
" id="DejaVuSans-54"/>
       </defs>
       <use xlink:href="#DejaVuSans-54"/>
      </g>
     </g>
    </g>
    <g id="ytick_2">
     <g id="line2d_8">
      <g>
       <use style="stroke:#000000;stroke-width:0.8;" x="57.6" xlink:href="#mb4344929a1" y="216.989363"/>
      </g>
     </g>
     <g id="text_9">
      <!-- 8 -->
      <g transform="translate(44.2375 220.788582)scale(0.1 -0.1)">
       <defs>
        <path d="M 31.78125 34.625 
Q 24.75 34.625 20.71875 30.859375 
Q 16.703125 27.09375 16.703125 20.515625 
Q 16.703125 13.921875 20.71875 10.15625 
Q 24.75 6.390625 31.78125 6.390625 
Q 38.8125 6.390625 42.859375 10.171875 
Q 46.921875 13.96875 46.921875 20.515625 
Q 46.921875 27.09375 42.890625 30.859375 
Q 38.875 34.625 31.78125 34.625 
z
M 21.921875 38.8125 
Q 15.578125 40.375 12.03125 44.71875 
Q 8.5 49.078125 8.5 55.328125 
Q 8.5 64.0625 14.71875 69.140625 
Q 20.953125 74.21875 31.78125 74.21875 
Q 42.671875 74.21875 48.875 69.140625 
Q 55.078125 64.0625 55.078125 55.328125 
Q 55.078125 49.078125 51.53125 44.71875 
Q 48 40.375 41.703125 38.8125 
Q 48.828125 37.15625 52.796875 32.3125 
Q 56.78125 27.484375 56.78125 20.515625 
Q 56.78125 9.90625 50.3125 4.234375 
Q 43.84375 -1.421875 31.78125 -1.421875 
Q 19.734375 -1.421875 13.25 4.234375 
Q 6.78125 9.90625 6.78125 20.515625 
Q 6.78125 27.484375 10.78125 32.3125 
Q 14.796875 37.15625 21.921875 38.8125 
z
M 18.3125 54.390625 
Q 18.3125 48.734375 21.84375 45.5625 
Q 25.390625 42.390625 31.78125 42.390625 
Q 38.140625 42.390625 41.71875 45.5625 
Q 45.3125 48.734375 45.3125 54.390625 
Q 45.3125 60.0625 41.71875 63.234375 
Q 38.140625 66.40625 31.78125 66.40625 
Q 25.390625 66.40625 21.84375 63.234375 
Q 18.3125 60.0625 18.3125 54.390625 
z
" id="DejaVuSans-56"/>
       </defs>
       <use xlink:href="#DejaVuSans-56"/>
      </g>
     </g>
    </g>
    <g id="ytick_3">
     <g id="line2d_9">
      <g>
       <use style="stroke:#000000;stroke-width:0.8;" x="57.6" xlink:href="#mb4344929a1" y="168.383396"/>
      </g>
     </g>
     <g id="text_10">
      <!-- 10 -->
      <g transform="translate(37.875 172.182614)scale(0.1 -0.1)">
       <use xlink:href="#DejaVuSans-49"/>
       <use x="63.623047" xlink:href="#DejaVuSans-48"/>
      </g>
     </g>
    </g>
    <g id="ytick_4">
     <g id="line2d_10">
      <g>
       <use style="stroke:#000000;stroke-width:0.8;" x="57.6" xlink:href="#mb4344929a1" y="119.777428"/>
      </g>
     </g>
     <g id="text_11">
      <!-- 12 -->
      <g transform="translate(37.875 123.576647)scale(0.1 -0.1)">
       <use xlink:href="#DejaVuSans-49"/>
       <use x="63.623047" xlink:href="#DejaVuSans-50"/>
      </g>
     </g>
    </g>
    <g id="ytick_5">
     <g id="line2d_11">
      <g>
       <use style="stroke:#000000;stroke-width:0.8;" x="57.6" xlink:href="#mb4344929a1" y="71.171461"/>
      </g>
     </g>
     <g id="text_12">
      <!-- 14 -->
      <g transform="translate(37.875 74.97068)scale(0.1 -0.1)">
       <defs>
        <path d="M 37.796875 64.3125 
L 12.890625 25.390625 
L 37.796875 25.390625 
z
M 35.203125 72.90625 
L 47.609375 72.90625 
L 47.609375 25.390625 
L 58.015625 25.390625 
L 58.015625 17.1875 
L 47.609375 17.1875 
L 47.609375 0 
L 37.796875 0 
L 37.796875 17.1875 
L 4.890625 17.1875 
L 4.890625 26.703125 
z
" id="DejaVuSans-52"/>
       </defs>
       <use xlink:href="#DejaVuSans-49"/>
       <use x="63.623047" xlink:href="#DejaVuSans-52"/>
      </g>
     </g>
    </g>
   </g>
   <g id="line2d_12">
    <path clip-path="url(#p7a3cdaa0c3)" d="M 73.832727 288.80468 
L 74.207473 287.492318 
L 74.582218 282.769439 
L 76.331031 285.22404 
L 76.705776 289.185426 
L 77.830013 285.300999 
L 78.079843 288.245711 
L 78.204758 270.739462 
L 78.329674 285.662651 
L 78.454589 286.706522 
L 79.20408 279.897636 
L 79.328995 285.800831 
L 80.827977 117.371433 
L 83.326281 280.233827 
L 84.450517 284.790637 
L 84.575433 278.62983 
L 85.075093 283.599791 
L 85.200008 282.097056 
L 86.574075 280.962917 
L 87.073736 283.830669 
L 88.447803 289.120618 
L 88.572718 272.946983 
L 89.447124 280.703685 
L 89.696955 278.637931 
L 89.82187 279.448031 
L 89.946785 283.004367 
L 90.696276 280.363443 
L 90.821191 287.419409 
L 91.071022 287.848762 
L 91.320852 281.51986 
L 91.820513 276.26434 
L 92.570004 281.586693 
L 92.694919 285.06202 
L 92.944749 279.942191 
L 93.44441 278.994375 
L 93.569325 286.212361 
L 93.944071 281.619097 
L 94.068986 282.344136 
L 94.443732 276.172529 
L 94.693562 278.694638 
L 94.943392 288.634559 
L 95.193223 272.541933 
L 95.443053 268.730415 
L 95.692883 277.592903 
L 95.817798 269.807847 
L 95.942714 290.36007 
L 96.067629 267.462609 
L 96.192544 283.574677 
L 96.317459 279.998898 
L 96.56729 245.363096 
L 97.191865 276.863814 
L 97.566611 278.637931 
L 98.316102 281.40037 
L 98.565932 278.800964 
L 98.690848 270.289856 
L 99.065593 281.493532 
L 99.190508 269.192172 
L 99.440339 269.244828 
L 99.565254 284.026713 
L 99.815084 272.857062 
L 100.064914 278.484012 
L 100.18983 252.552729 
L 100.43966 236.144975 
L 100.939321 268.247827 
L 101.314066 261.885075 
L 101.563897 284.287796 
L 101.688812 263.043517 
L 101.938642 265.75735 
L 102.063557 272.400166 
L 102.313388 271.419945 
L 103.312709 170.716482 
L 103.437624 259.677554 
L 103.562539 170.509907 
L 103.687455 283.069175 
L 104.0622 253.071193 
L 104.436946 276.106371 
L 104.686776 280.8252 
L 104.936606 288.233559 
L 105.811013 274.673429 
L 105.935928 253.401308 
L 106.060843 273.230517 
L 106.185758 258.069506 
L 106.435589 163.279769 
L 106.685419 249.150311 
L 107.060164 275.9403 
L 107.309995 253.800282 
L 107.43491 272.732306 
L 107.68474 254.019009 
L 107.809655 273.840117 
L 107.934571 230.149429 
L 108.059486 280.152817 
L 108.184401 281.841875 
L 108.309316 279.138168 
L 108.559147 265.090175 
L 108.684062 263.448567 
L 109.058807 285.044468 
L 109.183722 270.593644 
L 109.308638 283.992689 
L 109.433553 272.268235 
L 109.558468 289.169224 
L 109.683383 262.877446 
L 110.058129 288.626458 
L 110.183044 283.328407 
L 110.307959 271.712738 
L 110.432874 278.164391 
L 110.682705 267.532625 
L 110.80762 281.881367 
L 111.05745 270.073155 
L 111.182365 255.631107 
L 111.557111 268.130941 
L 111.806941 284.665071 
L 112.056771 266.807779 
L 112.181687 278.597426 
L 112.431517 291.259281 
L 112.556432 272.221944 
L 112.681347 270.139988 
L 112.806263 279.12862 
L 112.931178 277.24456 
L 113.056093 279.68701 
L 113.181008 271.534096 
L 113.430838 286.066543 
L 113.555754 281.906683 
L 113.680669 283.482326 
L 113.805584 255.959197 
L 113.930499 285.580484 
L 114.43016 276.231936 
L 114.67999 286.580957 
L 114.929821 254.407857 
L 115.179651 282.688429 
L 115.304566 268.568395 
L 115.429481 286.28527 
L 115.554396 287.17638 
L 115.679312 280.225726 
L 115.804227 259.146938 
L 116.054057 280.687483 
L 116.428803 270.626048 
L 116.553718 282.437298 
L 116.928463 234.495612 
L 117.178294 283.636245 
L 117.303209 267.577759 
L 117.553039 266.546184 
L 117.80287 248.400969 
L 117.927785 259.940836 
L 118.0527 282.745136 
L 118.30253 276.02131 
L 118.677276 272.664798 
L 118.802191 288.326721 
L 118.927106 263.634889 
L 119.052021 276.235986 
L 119.301852 280.731228 
L 119.801512 246.058769 
L 119.926428 277.847506 
L 120.426088 272.27055 
L 121.050664 278.034407 
L 121.175579 253.553202 
L 121.42541 261.714954 
L 121.67524 259.319085 
L 121.92507 278.673036 
L 122.049986 285.580484 
L 122.174901 279.739667 
L 122.299816 281.623148 
L 122.424731 255.776925 
L 122.674562 280.122439 
L 122.799477 262.545306 
L 122.924392 287.824459 
L 123.049307 262.41434 
L 123.299137 257.04068 
L 123.424053 281.380118 
L 123.673883 267.482862 
L 123.798798 228.035069 
L 124.048628 281.894531 
L 124.423374 279.873333 
L 124.548289 262.771323 
L 124.673204 227.787989 
L 124.79812 285.22404 
L 124.923035 284.349133 
L 125.29778 227.759056 
L 125.422695 275.024888 
L 125.672526 270.013613 
L 125.797441 273.809739 
L 126.047271 228.687199 
L 126.172187 252.921324 
L 126.422017 261.35851 
L 126.671847 276.632935 
L 126.796762 270.56124 
L 127.171508 289.236057 
L 127.296423 289.088214 
L 127.421338 279.269809 
L 127.546253 279.342718 
L 127.671169 277.841604 
L 127.796084 241.498922 
L 128.045914 277.528095 
L 128.295745 282.738655 
L 128.42066 271.428046 
L 128.545575 272.285942 
L 128.67049 278.795901 
L 128.92032 255.266562 
L 129.045236 271.45505 
L 129.170151 262.589861 
L 129.295066 279.68971 
L 129.544896 269.633914 
L 129.669811 243.175828 
L 130.044557 283.287902 
L 130.294387 270.410793 
L 130.419303 287.443712 
L 130.544218 275.306802 
L 130.669133 282.596617 
L 130.794048 268.6089 
L 130.918963 284.608364 
L 131.293709 277.171651 
L 131.543539 282.426496 
L 131.793369 290.505888 
L 131.918285 256.496901 
L 132.168115 286.865301 
L 132.417945 282.756708 
L 132.542861 269.127364 
L 132.667776 285.256444 
L 132.792691 284.469027 
L 132.917606 280.918361 
L 133.167436 280.116363 
L 133.292352 283.603841 
L 133.417267 220.011034 
L 133.542182 272.953734 
L 133.667097 271.484753 
L 133.792012 273.153558 
L 134.041843 263.377683 
L 134.166758 283.856592 
L 134.291673 269.200273 
L 134.416588 283.810416 
L 134.541503 279.380523 
L 134.916249 284.397738 
L 135.041164 278.124868 
L 135.166079 257.012326 
L 135.290994 259.491231 
L 135.540825 283.875224 
L 135.790655 260.848147 
L 135.91557 261.458962 
L 136.040486 258.704084 
L 136.165401 282.160244 
L 136.290316 283.717255 
L 136.415231 273.282748 
L 136.665061 281.56239 
L 136.789977 284.41394 
L 137.039807 283.124725 
L 137.164722 286.811835 
L 137.539468 278.514796 
L 137.664383 286.192109 
L 137.789298 278.14215 
L 137.914213 279.674859 
L 138.039128 272.898377 
L 138.164044 283.603841 
L 138.288959 284.500351 
L 138.413874 283.809312 
L 138.538789 270.739462 
L 138.913535 285.092951 
L 139.163365 279.027936 
L 139.28828 278.640632 
L 139.413195 282.091655 
L 139.53811 288.999103 
L 139.663026 272.962172 
L 139.787941 236.184669 
L 139.912856 273.469497 
L 140.037771 268.463082 
L 140.162686 284.602964 
L 140.412517 275.32961 
L 140.537432 283.421569 
L 140.662347 281.795005 
L 140.787262 234.981672 
L 141.037093 278.200478 
L 141.162008 285.072436 
L 141.286923 271.743985 
L 141.411838 283.767886 
L 141.536753 277.803529 
L 141.786584 271.904992 
L 142.036414 263.508311 
L 142.161329 279.476384 
L 142.286244 257.755593 
L 142.41116 278.71084 
L 142.536075 279.375122 
L 142.66099 282.240174 
L 142.785905 279.132092 
L 142.91082 283.655485 
L 143.035735 281.431528 
L 143.160651 282.388692 
L 143.285566 273.056346 
L 143.410481 231.541989 
L 143.535396 270.161591 
L 143.660311 262.938204 
L 143.910142 284.49495 
L 144.159972 282.180091 
L 144.284887 281.137088 
L 144.409802 286.139452 
L 144.534718 269.325838 
L 144.659633 284.511152 
L 144.784548 265.388755 
L 144.909463 280.599992 
L 145.034378 272.379913 
L 145.159293 278.512366 
L 145.284209 275.724814 
L 145.409124 278.037486 
L 145.534039 268.419337 
L 145.658954 278.761939 
L 145.783869 278.803192 
L 145.908784 277.627332 
L 146.0337 265.060665 
L 146.158615 268.153219 
L 146.28353 277.260762 
L 146.53336 228.548746 
L 146.658276 282.003895 
L 146.783191 271.353618 
L 146.908106 278.917104 
L 147.033021 252.359318 
L 147.157936 277.722519 
L 147.282851 269.500633 
L 147.407767 275.87202 
L 147.532682 247.75694 
L 147.782512 283.907628 
L 147.907427 265.481916 
L 148.032343 274.672495 
L 148.407088 271.847825 
L 148.532003 277.24132 
L 148.656918 275.20851 
L 148.781834 283.360811 
L 148.906749 251.663645 
L 149.156579 279.378594 
L 149.281494 183.880598 
L 149.406409 272.864623 
L 149.65624 280.201423 
L 149.90607 274.942865 
L 150.030985 280.051555 
L 150.155901 277.237889 
L 150.280816 282.553952 
L 150.530646 276.082068 
L 150.655561 281.421129 
L 150.780476 239.465204 
L 150.905392 275.238214 
L 151.030307 269.784557 
L 151.155222 283.049733 
L 151.280137 272.902427 
L 151.405052 278.62983 
L 151.529967 273.639618 
L 151.654883 279.545243 
L 151.779798 272.512843 
L 151.904713 257.924935 
L 152.154543 281.126041 
L 152.279459 279.506358 
L 152.404374 282.672227 
L 152.654204 274.158081 
L 152.904034 279.96418 
L 153.153865 272.774837 
L 153.27878 282.053973 
L 153.403695 273.376574 
L 153.52861 282.664126 
L 153.653525 268.933463 
L 153.778441 271.884686 
L 153.903356 282.027619 
L 154.028271 259.549963 
L 154.153186 280.710397 
L 154.278101 272.772811 
L 154.403017 272.52168 
L 154.527932 280.347241 
L 154.652847 273.343931 
L 154.777762 174.210036 
L 154.902677 277.09216 
L 155.027592 276.781791 
L 155.152508 261.735206 
L 155.277423 281.14638 
L 155.527253 268.44688 
L 155.652168 262.432702 
L 155.901999 285.79111 
L 156.151829 257.64631 
L 156.276744 281.560654 
L 156.401659 247.804117 
L 156.526575 278.328664 
L 156.65149 239.85847 
L 156.90132 262.797628 
L 157.026235 267.042462 
L 157.15115 260.949815 
L 157.276066 278.473702 
L 157.400981 265.622671 
L 157.650811 282.174015 
L 157.900642 221.760849 
L 158.150472 283.686876 
L 158.275387 271.555637 
L 158.400302 276.001058 
L 158.525217 275.937835 
L 158.650133 224.753356 
L 158.899963 276.18198 
L 159.024878 281.782636 
L 159.149793 275.019487 
L 159.274708 274.287697 
L 159.399624 269.477327 
L 159.524539 225.349589 
L 159.649454 285.992824 
L 159.774369 260.409447 
L 159.899284 282.927408 
L 160.0242 278.893113 
L 160.149115 267.486102 
L 160.27403 286.282888 
L 160.398945 273.163684 
L 160.52386 235.156653 
L 160.773691 274.158081 
L 160.898606 272.611218 
L 161.023521 289.120618 
L 161.273351 276.089358 
L 161.398266 280.711786 
L 161.523182 255.236183 
L 161.648097 280.842648 
L 161.773012 242.912545 
L 162.022842 282.283379 
L 162.147758 281.043927 
L 162.272673 276.761201 
L 162.522503 250.944682 
L 162.647418 264.841938 
L 162.772333 265.083347 
L 163.022164 281.985667 
L 163.147079 137.024446 
L 163.271994 276.391931 
L 163.396909 272.918629 
L 163.521824 273.98796 
L 163.64674 252.390709 
L 163.771655 277.912892 
L 163.89657 270.46438 
L 164.021485 270.130267 
L 164.1464 280.238406 
L 164.271316 278.04909 
L 164.396231 238.539166 
L 164.521146 278.109341 
L 164.646061 261.858746 
L 164.770976 283.063775 
L 164.895891 183.329731 
L 165.145722 278.689778 
L 165.395552 286.431088 
L 165.520467 277.445465 
L 165.770298 284.665071 
L 165.895213 274.49278 
L 166.020128 282.155788 
L 166.145043 274.280001 
L 166.269958 283.063775 
L 166.394874 281.798129 
L 166.519789 255.866846 
L 166.644704 280.468756 
L 166.769619 278.012725 
L 166.894534 271.401043 
L 167.144365 279.993743 
L 167.26928 279.396725 
L 167.394195 265.561576 
L 167.51911 287.103471 
L 167.644025 278.955895 
L 167.768941 258.445696 
L 167.893856 271.911676 
L 168.143686 272.058054 
L 168.268601 283.995119 
L 168.393516 269.664975 
L 168.518432 278.978173 
L 168.643347 268.127701 
L 168.893177 279.03758 
L 169.143007 275.312105 
L 169.267923 251.09617 
L 169.392838 279.492586 
L 169.517753 253.471179 
L 169.642668 279.324086 
L 169.767583 275.700511 
L 170.017414 280.325639 
L 170.142329 262.519898 
L 170.267244 271.823166 
L 170.392159 272.033885 
L 170.517074 281.32804 
L 170.64199 271.557294 
L 170.766905 279.015438 
L 170.89182 276.01263 
L 171.016735 259.899085 
L 171.266565 278.106159 
L 171.391481 279.903307 
L 171.516396 256.173873 
L 171.641311 272.529781 
L 171.766226 266.629726 
L 171.891141 272.664461 
L 172.016057 285.156194 
L 172.265887 273.731306 
L 172.515717 204.1435 
L 172.765548 285.329353 
L 172.890463 276.748881 
L 173.015378 279.558499 
L 173.140293 285.663519 
L 173.390123 275.106634 
L 173.515039 279.191837 
L 173.639954 252.504859 
L 174.014699 282.543016 
L 174.26453 274.765656 
L 174.389445 280.541665 
L 174.51436 267.83728 
L 174.639275 276.855713 
L 174.76419 277.790567 
L 174.889106 248.925002 
L 175.138936 280.847188 
L 175.263851 243.487093 
L 175.388766 280.65045 
L 175.513681 274.307015 
L 175.638597 261.617742 
L 175.763512 269.483808 
L 175.888427 270.015435 
L 176.013342 259.25786 
L 176.138257 261.872555 
L 176.263173 273.550139 
L 176.388088 214.596454 
L 176.762833 275.723599 
L 176.887748 258.395019 
L 177.137579 280.219651 
L 177.262494 260.108932 
L 177.387409 280.56944 
L 177.512324 256.582974 
L 177.637239 279.691061 
L 177.762155 254.528967 
L 177.88707 271.632596 
L 178.011985 273.407929 
L 178.261815 288.756074 
L 178.386731 248.709045 
L 178.511646 265.113159 
L 178.761476 261.700225 
L 178.886391 279.265758 
L 179.011306 248.57352 
L 179.261137 277.958258 
L 179.386052 267.098643 
L 179.635882 280.52484 
L 179.760798 250.041421 
L 179.885713 254.697178 
L 180.010628 277.239629 
L 180.135543 273.49623 
L 180.260458 242.373829 
L 180.385373 277.815174 
L 180.510289 275.802583 
L 180.635204 185.014737 
L 180.760119 281.538087 
L 181.009949 273.467067 
L 181.134864 274.291748 
L 181.25978 271.938409 
L 181.384695 272.696662 
L 181.50961 276.005108 
L 181.634525 272.549455 
L 181.75944 277.017732 
L 181.884356 273.497445 
L 182.009271 274.862058 
L 182.259101 262.613658 
L 182.384016 286.241819 
L 182.508931 258.807854 
L 182.633847 261.835659 
L 182.758762 282.052501 
L 182.883677 266.425103 
L 183.008592 277.490706 
L 183.258422 253.715222 
L 183.383338 277.191904 
L 183.508253 248.17451 
L 183.633168 276.431423 
L 183.758083 257.668507 
L 183.882998 282.986545 
L 184.007914 277.984243 
L 184.132829 263.934626 
L 184.257744 267.025156 
L 184.382659 277.298675 
L 184.507574 277.066338 
L 184.632489 274.538828 
L 184.757405 281.635299 
L 184.88232 274.125677 
L 185.007235 281.746688 
L 185.13215 264.512111 
L 185.38198 280.760392 
L 185.506896 276.452688 
L 185.631811 279.869283 
L 186.006556 260.74782 
L 186.131472 274.868654 
L 186.381302 265.382212 
L 186.506217 284.73528 
L 186.631132 239.234694 
L 186.756047 278.739194 
L 186.880963 275.532692 
L 187.005878 275.725256 
L 187.130793 276.373703 
L 187.255708 273.082674 
L 187.380623 277.839983 
L 187.505538 270.245301 
L 187.630454 278.562708 
L 187.755369 259.349463 
L 187.880284 276.410158 
L 188.005199 266.817957 
L 188.130114 283.381642 
L 188.25503 266.34289 
L 188.629775 282.903105 
L 188.75469 279.517902 
L 188.879605 171.2714 
L 189.004521 274.117576 
L 189.129436 262.144306 
L 189.254351 264.103735 
L 189.379266 282.136548 
L 189.504181 272.955084 
L 189.629097 272.773664 
L 189.754012 290.044132 
L 189.878927 272.28017 
L 190.003842 277.677963 
L 190.128757 243.298057 
L 190.378588 268.943309 
L 190.503503 258.917618 
L 190.753333 279.451069 
L 190.878248 270.229525 
L 191.003163 276.453363 
L 191.128079 257.309117 
L 191.252994 263.031365 
L 191.377909 252.161499 
L 191.502824 251.851993 
L 191.627739 254.387098 
L 191.87757 272.41886 
L 192.002485 262.511552 
L 192.1274 276.91242 
L 192.252315 278.424446 
L 192.37723 255.311118 
L 192.502146 268.834715 
L 192.627061 252.596093 
L 192.751976 259.664297 
L 192.876891 259.438574 
L 193.001806 273.882648 
L 193.126721 268.619947 
L 193.376552 277.860236 
L 193.501467 277.942982 
L 193.626382 267.006773 
L 193.751297 273.731969 
L 193.876213 244.391912 
L 194.126043 278.419205 
L 194.375873 273.600359 
L 194.500788 232.271521 
L 194.625704 277.161236 
L 194.750619 273.909064 
L 194.875534 275.52985 
L 195.000449 267.686666 
L 195.125364 270.083649 
L 195.250279 279.713338 
L 195.50011 260.592156 
L 195.625025 275.59297 
L 195.74994 271.577603 
L 195.874855 259.203645 
L 195.999771 203.598419 
L 196.249601 276.600293 
L 196.499431 267.430205 
L 196.624346 274.377545 
L 196.749262 269.6473 
L 196.874177 281.301133 
L 197.124007 256.331475 
L 197.248922 278.919846 
L 197.498753 275.088959 
L 197.623668 277.266838 
L 197.748583 268.317264 
L 197.873498 285.688497 
L 197.998413 271.306531 
L 198.123329 272.205742 
L 198.373159 251.495954 
L 198.498074 277.668512 
L 198.622989 277.142107 
L 198.747904 254.343049 
L 198.997735 281.052962 
L 199.37248 256.162735 
L 199.497396 273.122311 
L 199.622311 270.403849 
L 199.747226 273.566709 
L 199.872141 282.347377 
L 199.997056 281.76289 
L 200.121971 278.550171 
L 200.246887 249.980663 
L 200.496717 282.323884 
L 200.746547 228.411765 
L 200.871462 273.842143 
L 200.996378 244.749089 
L 201.121293 277.779226 
L 201.246208 243.339198 
L 201.371123 279.573191 
L 201.620954 264.789281 
L 201.745869 277.362025 
L 201.870784 261.306568 
L 201.995699 280.022679 
L 202.120614 265.475685 
L 202.370445 273.429845 
L 202.49536 232.581077 
L 202.74519 279.28061 
L 202.870105 274.089223 
L 202.99502 261.288094 
L 203.244851 273.181912 
L 203.369766 274.39301 
L 203.494681 279.242806 
L 203.619596 265.809196 
L 203.744512 272.576005 
L 203.869427 264.137151 
L 203.994342 265.938812 
L 204.119257 271.011424 
L 204.244172 255.825531 
L 204.369087 277.236459 
L 204.494003 272.59729 
L 204.618918 274.277214 
L 204.743833 271.494412 
L 204.868748 272.685552 
L 204.993663 264.010353 
L 205.243494 277.236459 
L 205.368409 265.542674 
L 205.493324 279.236595 
L 205.618239 258.535313 
L 205.743154 272.422443 
L 205.86807 271.099316 
L 205.992985 271.66934 
L 206.1179 271.373832 
L 206.242815 254.54051 
L 206.492645 275.04379 
L 206.742476 262.930103 
L 206.867391 271.0085 
L 207.117221 258.842938 
L 207.242136 274.303899 
L 207.367052 268.953192 
L 207.491967 258.718743 
L 207.741797 273.858345 
L 207.866712 268.857213 
L 207.991628 282.692479 
L 208.241458 274.384173 
L 208.491288 277.535492 
L 208.616203 252.544628 
L 208.741119 276.487117 
L 208.866034 222.62968 
L 208.990949 278.745945 
L 209.115864 271.449835 
L 209.240779 239.876698 
L 209.49061 270.095433 
L 209.615525 282.584736 
L 209.865355 270.806584 
L 209.99027 269.991132 
L 210.115186 278.100565 
L 210.365016 267.678443 
L 210.489931 259.084831 
L 210.739761 281.064179 
L 210.864677 258.944819 
L 210.989592 264.11632 
L 211.239422 281.14924 
L 211.364337 280.152817 
L 211.489253 244.003344 
L 211.614168 277.303293 
L 211.739083 273.018541 
L 211.863998 276.580279 
L 211.988913 275.928149 
L 212.113828 248.114007 
L 212.363659 280.611102 
L 212.613489 274.520601 
L 212.738404 270.312134 
L 212.863319 241.498922 
L 213.11315 278.931592 
L 213.238065 267.22201 
L 213.36298 280.484958 
L 213.612811 246.233953 
L 213.862641 275.291063 
L 213.987556 267.114267 
L 214.112471 276.501294 
L 214.362302 262.938204 
L 214.487217 272.953734 
L 214.612132 266.953739 
L 214.737047 274.434325 
L 214.861962 211.963506 
L 214.986877 272.171718 
L 215.111793 262.190212 
L 215.236708 275.843088 
L 215.361623 270.798727 
L 215.486538 256.241541 
L 215.611453 279.337452 
L 215.736369 277.57184 
L 215.861284 280.784695 
L 216.111114 266.910122 
L 216.236029 271.75158 
L 216.360944 270.925785 
L 216.48586 270.954948 
L 216.610775 275.683769 
L 216.73569 218.853215 
L 216.98552 280.437162 
L 217.235351 269.58912 
L 217.360266 253.54105 
L 217.485181 282.011996 
L 217.735011 263.634889 
L 217.859927 265.708744 
L 217.984842 279.839088 
L 218.109757 280.267937 
L 218.234672 270.914646 
L 218.359587 280.395847 
L 218.484502 275.204519 
L 218.609418 276.843723 
L 218.734333 282.572314 
L 218.859248 194.552848 
L 218.984163 269.979993 
L 219.109078 263.477288 
L 219.233993 283.946292 
L 219.358909 212.110859 
L 219.483824 265.972026 
L 219.608739 265.549154 
L 219.858569 279.965541 
L 219.983485 278.104886 
L 220.1084 281.696057 
L 220.35823 276.923558 
L 220.483145 267.886291 
L 220.60806 274.59785 
L 220.732976 271.409144 
L 220.857891 277.833801 
L 220.982806 273.893931 
L 221.107721 280.349671 
L 221.482467 263.882548 
L 221.607382 279.396184 
L 221.732297 273.967708 
L 221.857212 280.365063 
L 221.982127 269.770236 
L 222.231958 283.042172 
L 222.356873 275.08636 
L 222.606703 278.692208 
L 222.731618 271.832619 
L 222.856534 222.461585 
L 223.106364 279.662707 
L 223.231279 275.589257 
L 223.356194 281.454763 
L 223.48111 272.533832 
L 223.606025 278.971692 
L 223.73094 261.764572 
L 223.855855 270.540409 
L 223.98077 266.644409 
L 224.105685 273.162672 
L 224.230601 269.391152 
L 224.355516 281.865538 
L 224.480431 274.324152 
L 224.605346 277.495691 
L 224.730261 262.806563 
L 225.105007 281.134879 
L 225.229922 280.298635 
L 225.354837 273.417853 
L 225.479752 278.781049 
L 225.604668 268.554893 
L 225.729583 281.298095 
L 225.979413 275.032989 
L 226.104328 274.988433 
L 226.229243 282.08855 
L 226.354159 270.871778 
L 226.479074 273.407635 
L 226.603989 280.74257 
L 226.853819 260.326443 
L 226.978734 166.123218 
L 227.228565 282.473752 
L 227.35348 271.163414 
L 227.478395 277.85833 
L 227.60331 275.064235 
L 227.728226 279.894322 
L 227.978056 275.774808 
L 228.102971 278.762147 
L 228.352801 269.148966 
L 228.477717 274.742366 
L 228.602632 288.452286 
L 228.727547 264.593189 
L 228.852462 262.715427 
L 228.977377 276.270416 
L 229.102292 277.474088 
L 229.227208 267.604377 
L 229.352123 287.127774 
L 229.477038 279.428147 
L 229.601953 283.065125 
L 229.976699 271.884402 
L 230.101614 274.666419 
L 230.226529 274.403577 
L 230.351444 244.847526 
L 230.601275 277.098742 
L 230.72619 260.892703 
L 230.851105 275.510947 
L 230.97602 240.125803 
L 231.225851 268.093981 
L 231.350766 260.486303 
L 231.600596 282.923357 
L 231.725511 284.916202 
L 231.850426 259.564718 
L 231.975342 281.924505 
L 232.225172 266.174551 
L 232.350087 267.750195 
L 232.475002 280.668581 
L 232.599917 271.491608 
L 232.849748 279.984722 
L 232.974663 275.929499 
L 233.099578 267.361347 
L 233.224493 280.368072 
L 233.349409 277.683364 
L 233.474324 283.189411 
L 233.599239 263.948215 
L 233.849069 277.229516 
L 234.0989 274.692747 
L 234.223815 264.261704 
L 234.34873 270.098326 
L 234.473645 281.359866 
L 234.59856 262.493054 
L 234.723475 277.984991 
L 234.848391 275.458291 
L 234.973306 266.891489 
L 235.223136 276.928622 
L 235.348051 269.075865 
L 235.597882 284.338649 
L 235.722797 250.44323 
L 235.847712 274.368707 
L 235.972627 276.032357 
L 236.097542 269.416299 
L 236.222458 271.178941 
L 236.347373 277.823781 
L 236.472288 276.009969 
L 236.597203 283.287902 
L 236.847033 266.626857 
L 236.971949 282.105157 
L 237.221779 268.77416 
L 237.346694 275.608159 
L 237.471609 167.617852 
L 237.596525 276.398721 
L 237.72144 283.537008 
L 237.846355 272.650139 
L 237.97127 281.140126 
L 238.096185 257.135462 
L 238.2211 277.882007 
L 238.346016 268.781451 
L 238.470931 275.324625 
L 238.595846 271.774364 
L 238.720761 276.555976 
L 238.845676 273.129255 
L 238.970591 261.764572 
L 239.095507 275.220741 
L 239.220422 266.514793 
L 239.345337 269.388805 
L 239.470252 53.568 
L 239.595167 278.026306 
L 239.720083 275.715787 
L 239.969913 263.456668 
L 240.094828 279.253607 
L 240.219743 277.962077 
L 240.344658 278.643602 
L 240.469574 284.912152 
L 240.844319 274.759985 
L 240.969234 266.950689 
L 241.094149 276.394535 
L 241.219065 275.792862 
L 241.34398 262.876868 
L 241.468895 199.551972 
L 241.59381 268.386701 
L 241.718725 275.240577 
L 241.843641 275.444114 
L 241.968556 277.268863 
L 242.093471 270.474154 
L 242.343301 280.190082 
L 242.468216 275.69079 
L 242.593132 234.252582 
L 242.718047 280.225726 
L 242.967877 264.839237 
L 243.092792 275.19127 
L 243.217708 271.358378 
L 243.342623 281.975541 
L 243.467538 246.157804 
L 243.592453 264.532943 
L 243.717368 254.091918 
L 243.842283 277.765049 
L 243.967199 267.232977 
L 244.092114 281.844305 
L 244.217029 272.818177 
L 244.341944 284.276224 
L 244.591774 261.523476 
L 244.71669 275.136276 
L 244.841605 274.490222 
L 244.96652 274.839578 
L 245.091435 278.180804 
L 245.21635 267.804201 
L 245.341266 272.448772 
L 245.466181 284.065598 
L 245.591096 272.39814 
L 245.716011 281.875899 
L 245.840926 267.586305 
L 245.965841 276.88874 
L 246.090757 247.017435 
L 246.215672 279.136511 
L 246.340587 243.25785 
L 246.465502 280.055605 
L 246.590417 264.601608 
L 246.840248 269.62355 
L 246.965163 280.628076 
L 247.090078 280.567993 
L 247.214993 284.566239 
L 247.339908 274.133778 
L 247.464824 276.35161 
L 247.589739 269.499273 
L 247.839569 276.201152 
L 247.964484 260.405538 
L 248.089399 280.342822 
L 248.214315 278.406474 
L 248.464145 283.042663 
L 248.713975 271.808793 
L 248.83889 277.264234 
L 248.963806 274.671144 
L 249.213636 282.020675 
L 249.463466 277.844034 
L 249.588382 266.859085 
L 249.713297 267.584124 
L 249.838212 282.192749 
L 249.963127 268.15301 
L 250.088042 281.045952 
L 250.337873 277.276964 
L 250.462788 256.06127 
L 250.587703 265.639886 
L 250.712618 258.974503 
L 250.962448 274.684646 
L 251.087364 280.4161 
L 251.337194 269.645827 
L 251.462109 281.991743 
L 251.587024 269.965007 
L 251.96177 286.159705 
L 252.086685 272.890644 
L 252.2116 278.560972 
L 252.336515 276.278922 
L 252.461431 261.076845 
L 252.711261 278.813453 
L 252.836176 250.081926 
L 252.961091 283.458023 
L 253.086007 284.97696 
L 253.335837 264.580681 
L 253.460752 272.099182 
L 253.585667 262.368241 
L 253.710582 283.537008 
L 253.835498 240.484272 
L 254.085328 281.404421 
L 254.210243 278.263813 
L 254.335158 213.712879 
L 254.460073 279.213102 
L 254.709904 257.700911 
L 254.959734 286.641714 
L 255.084649 276.069916 
L 255.209565 280.489819 
L 255.33448 279.226266 
L 255.459395 279.259683 
L 255.58431 282.142962 
L 255.709225 270.640224 
L 255.959056 285.55294 
L 256.083971 273.25077 
L 256.208886 272.307004 
L 256.333801 277.179016 
L 256.458716 270.356602 
L 256.583631 283.48927 
L 256.708547 264.291475 
L 256.958377 277.479489 
L 257.083292 284.130406 
L 257.208207 266.602969 
L 257.333123 273.555367 
L 257.458038 239.478736 
L 257.582953 283.478587 
L 257.707868 282.579644 
L 257.832783 276.98559 
L 257.957698 278.014155 
L 258.082614 262.369977 
L 258.207529 264.041675 
L 258.457359 285.14303 
L 258.582274 282.250975 
L 258.707189 254.560257 
L 258.832105 281.244426 
L 258.95702 254.955484 
L 259.081935 278.087064 
L 259.20685 264.586756 
L 259.456681 286.082745 
L 259.831426 272.471049 
L 259.956341 271.886331 
L 260.206172 284.033194 
L 260.331087 266.735834 
L 260.456002 279.898741 
L 260.705832 274.772137 
L 260.830747 255.869848 
L 261.080578 280.804947 
L 261.205493 279.514459 
L 261.330408 281.343664 
L 261.580239 273.712527 
L 261.830069 285.63314 
L 261.954984 277.813103 
L 262.079899 258.005125 
L 262.32973 277.398479 
L 262.57956 259.067549 
L 262.704475 283.204578 
L 262.82939 278.416504 
L 262.954306 260.935785 
L 263.079221 282.45755 
L 263.204136 269.569803 
L 263.453966 281.538087 
L 263.578881 284.514098 
L 263.703797 268.934965 
L 263.953627 284.466597 
L 264.078542 277.81163 
L 264.203457 280.399898 
L 264.328372 280.484958 
L 264.453288 273.546456 
L 264.578203 273.331412 
L 264.703118 275.113999 
L 264.828033 280.796846 
L 264.952948 278.981066 
L 265.077864 268.355238 
L 265.202779 285.475171 
L 265.452609 276.874615 
L 265.577524 281.432774 
L 265.702439 206.616039 
L 265.95227 265.900636 
L 266.077185 277.933955 
L 266.2021 267.206271 
L 266.327015 270.435674 
L 266.45193 276.735818 
L 266.576846 275.243615 
L 266.701761 276.562604 
L 266.826676 276.446612 
L 267.076506 285.240242 
L 267.326337 272.59621 
L 267.451252 282.327934 
L 267.576167 279.76397 
L 267.701082 280.642928 
L 267.825997 279.836879 
L 267.950913 249.765987 
L 268.075828 274.856196 
L 268.200743 272.086927 
L 268.325658 271.811686 
L 268.450573 279.229304 
L 268.700404 265.75735 
L 268.950234 283.84282 
L 269.200064 277.587334 
L 269.32498 267.985124 
L 269.57481 267.636781 
L 269.699725 276.564077 
L 269.82464 252.139578 
L 270.074471 280.857604 
L 270.199386 272.84248 
L 270.324301 272.379103 
L 270.449216 279.132092 
L 270.699046 265.498118 
L 270.823962 273.506761 
L 271.198707 256.788199 
L 271.698368 288.788478 
L 271.823283 253.25144 
L 272.073113 281.351765 
L 272.198029 277.16085 
L 272.322944 283.372963 
L 272.447859 280.347241 
L 272.572774 264.465241 
L 272.697689 280.429871 
L 272.822604 247.288555 
L 272.94752 254.622533 
L 273.19735 279.613291 
L 273.44718 277.560499 
L 273.572096 259.959738 
L 273.697011 292.304309 
L 273.946841 263.364316 
L 274.071756 285.985533 
L 274.196671 279.403475 
L 274.321587 257.964193 
L 274.571417 286.12163 
L 274.696332 277.503792 
L 274.821247 285.868437 
L 275.071078 260.285128 
L 275.195993 266.646434 
L 275.320908 285.394161 
L 275.445823 277.40658 
L 275.570738 250.952783 
L 275.695654 287.605732 
L 275.820569 274.279596 
L 275.945484 277.771125 
L 276.070399 284.677223 
L 276.195314 257.93449 
L 276.320229 285.118727 
L 276.445145 267.928417 
L 276.57006 281.610996 
L 276.694975 278.755396 
L 276.81989 264.931049 
L 276.944805 284.475277 
L 277.194636 273.761133 
L 277.444466 278.971085 
L 277.569381 280.360743 
L 277.944127 273.138369 
L 278.193957 280.881907 
L 278.318872 275.019487 
L 278.443787 282.714352 
L 278.568703 280.363443 
L 278.818533 280.1085 
L 278.943448 282.421096 
L 279.068363 265.878865 
L 279.193279 264.890544 
L 279.443109 282.275278 
L 279.692939 267.523367 
L 279.94277 280.527083 
L 280.067685 244.440933 
L 280.44243 280.881907 
L 280.692261 262.997611 
L 280.817176 286.544502 
L 280.942091 279.747768 
L 281.067006 263.489072 
L 281.441752 283.729406 
L 281.566667 276.332388 
L 281.691582 283.614642 
L 281.941412 261.214042 
L 282.191243 275.478543 
L 282.441073 281.019624 
L 282.565988 269.232677 
L 282.690903 283.895477 
L 283.065649 273.692274 
L 283.315479 289.412254 
L 283.440395 278.373299 
L 283.56531 283.652447 
L 283.690225 263.865768 
L 283.940055 285.499474 
L 284.06497 283.860373 
L 284.189886 277.64556 
L 284.314801 282.741085 
L 284.439716 256.972632 
L 284.564631 283.366212 
L 284.689546 283.10968 
L 285.064292 275.567654 
L 285.314122 223.672683 
L 285.563953 279.508788 
L 285.688868 274.198586 
L 285.813783 282.367089 
L 285.938698 282.391392 
L 286.063613 270.678126 
L 286.438359 279.870295 
L 286.563274 287.792055 
L 286.813104 286.406785 
L 286.93802 265.749249 
L 287.18785 283.940032 
L 287.312765 283.197634 
L 287.43768 240.960206 
L 287.562595 283.315243 
L 287.687511 219.298146 
L 287.812426 288.731771 
L 287.937341 257.273294 
L 288.062256 289.922617 
L 288.312086 259.381867 
L 288.437002 281.003422 
L 288.561917 254.818693 
L 288.686832 263.92884 
L 288.936662 272.811291 
L 289.061578 258.231526 
L 289.186493 272.819392 
L 289.436323 263.889703 
L 289.686153 281.499608 
L 289.935984 276.01888 
L 290.060899 260.546938 
L 290.310729 275.389433 
L 290.435644 267.280337 
L 290.685475 279.747768 
L 290.81039 264.339676 
L 290.935305 269.406038 
L 291.185136 268.574182 
L 291.310051 264.932206 
L 291.434966 274.538828 
L 291.684796 278.097479 
L 291.809711 291.356493 
L 291.934627 275.848759 
L 292.184457 282.566914 
L 292.309372 275.340827 
L 292.434287 281.124937 
L 292.684118 286.20426 
L 292.809033 278.670335 
L 292.933948 279.013817 
L 293.058863 266.465819 
L 293.183778 270.251782 
L 293.308694 284.417991 
L 293.558524 269.593171 
L 293.683439 286.5283 
L 293.808354 227.925706 
L 293.933269 274.453768 
L 294.1831 274.052768 
L 294.308015 286.998158 
L 294.43293 271.500955 
L 294.557845 275.760605 
L 294.682761 259.306576 
L 294.932591 276.253539 
L 295.057506 275.057292 
L 295.182421 278.899864 
L 295.307336 291.866855 
L 295.432252 255.185552 
L 295.557167 262.849093 
L 295.682082 285.701999 
L 295.931912 269.50325 
L 296.181743 289.570223 
L 296.306658 239.066193 
L 296.556488 275.846329 
L 296.681403 277.716443 
L 296.806319 275.873467 
L 296.931234 287.378904 
L 297.181064 274.287697 
L 297.305979 282.279328 
L 297.55581 224.682993 
L 297.680725 276.201557 
L 297.80564 269.635026 
L 297.930555 273.513242 
L 298.05547 257.521879 
L 298.180385 282.091848 
L 298.305301 279.534441 
L 298.555131 266.840858 
L 298.929877 292.571642 
L 299.179707 274.872994 
L 299.304622 282.378971 
L 299.554452 282.801843 
L 299.679368 276.094219 
L 299.929198 280.823175 
L 300.054113 273.561308 
L 300.179028 287.040283 
L 300.303943 256.563734 
L 300.428859 285.007338 
L 300.553774 274.87907 
L 300.678689 280.045884 
L 300.928519 281.647451 
L 301.17835 282.021447 
L 301.303265 256.750914 
L 301.553095 281.683905 
L 301.802926 268.677759 
L 302.052756 283.214993 
L 302.177671 281.987693 
L 302.552417 287.358652 
L 302.802247 253.21296 
L 303.052077 260.661824 
L 303.176993 283.603841 
L 303.301908 269.401177 
L 303.426823 282.850449 
L 303.676653 282.842348 
L 303.926484 284.551657 
L 304.051399 264.169555 
L 304.176314 282.569228 
L 304.426144 281.679855 
L 304.551059 274.004162 
L 304.80089 282.708681 
L 304.925805 282.988165 
L 305.05072 273.57481 
L 305.175635 286.763229 
L 305.300551 273.940975 
L 305.425466 275.379711 
L 305.800211 282.716782 
L 305.925126 284.146608 
L 306.174957 284.685324 
L 306.299872 276.434461 
L 306.799533 290.700312 
L 306.924448 275.997007 
L 307.049363 279.743717 
L 307.299193 277.382277 
L 307.424109 278.269336 
L 307.549024 285.993634 
L 307.673939 286.058442 
L 307.923769 284.24544 
L 308.048684 289.387951 
L 308.298515 284.932404 
L 308.548345 270.256642 
L 309.048006 282.334685 
L 309.172921 264.530859 
L 309.297836 289.776799 
L 309.797497 284.665071 
L 310.047327 285.620989 
L 310.422073 259.430473 
L 310.546988 281.602895 
L 310.671903 278.13567 
L 310.796818 286.990057 
L 310.921734 280.525463 
L 311.046649 283.287902 
L 311.296479 277.058237 
L 311.671225 287.468015 
L 311.79614 289.13682 
L 312.04597 276.871915 
L 312.170885 277.989852 
L 312.545631 284.713677 
L 312.670546 265.060665 
L 312.795461 282.780577 
L 312.920376 279.585748 
L 313.544952 270.022524 
L 313.794783 286.633613 
L 314.294443 286.228563 
L 314.419358 284.932404 
L 314.544274 285.402262 
L 314.669189 285.384035 
L 314.794104 283.968386 
L 314.919019 266.100832 
L 315.16885 284.065598 
L 315.293765 278.172124 
L 315.543595 286.848289 
L 315.66851 278.240983 
L 316.043256 279.901687 
L 316.168171 286.799683 
L 316.418001 267.921473 
L 316.542917 287.038663 
L 316.792747 283.296003 
L 316.917662 239.234694 
L 317.667153 272.400166 
L 318.041899 282.186167 
L 318.166814 277.902361 
L 318.291729 280.651028 
L 318.541559 276.901618 
L 318.666475 284.126355 
L 318.79139 266.445935 
L 319.04122 283.688901 
L 319.166135 281.986588 
L 319.29105 178.882285 
L 319.415966 224.875681 
L 319.665796 271.209319 
L 319.915626 284.543556 
L 320.040541 282.041506 
L 320.415287 281.829723 
L 320.665117 239.743031 
L 320.790033 288.64266 
L 320.914948 288.189004 
L 321.039863 287.026511 
L 321.164778 271.168814 
L 321.289693 281.824863 
L 321.414608 281.991007 
L 321.539524 268.356149 
L 321.914269 213.910985 
L 322.039184 286.720699 
L 322.164099 285.839716 
L 322.913591 274.247192 
L 323.288336 283.871174 
L 323.413251 261.297174 
L 323.787997 282.866651 
L 323.912912 278.816153 
L 324.162742 295.488 
L 324.662403 285.912624 
L 324.912233 278.281488 
L 325.661724 289.54187 
L 325.911555 284.673172 
L 326.411216 267.118317 
L 326.536131 282.105157 
L 326.661046 281.935036 
L 326.785961 263.995384 
L 327.410537 283.684851 
L 328.659689 289.776799 
L 329.034434 274.315241 
L 329.284265 287.553076 
L 329.534095 283.381064 
L 329.90884 272.96521 
L 330.158671 282.528434 
L 330.283586 282.469702 
L 330.658332 274.530727 
L 331.033077 282.259076 
L 331.157992 261.423318 
L 331.282907 285.183535 
L 331.782568 258.207223 
L 332.032398 277.722519 
L 332.532059 279.302213 
L 333.03172 279.924369 
L 333.156635 193.476226 
L 333.28155 289.7849 
L 333.656296 288.407731 
L 333.781211 280.792796 
L 333.906126 282.072753 
L 334.031041 281.96339 
L 334.155956 211.966746 
L 334.280872 222.233947 
L 334.530702 282.524789 
L 334.780532 259.592493 
L 334.905448 284.778485 
L 335.530023 222.627655 
L 335.654939 271.829045 
L 335.779854 270.784017 
L 336.154599 288.626458 
L 336.279514 285.7101 
L 336.40443 285.894397 
L 336.65426 284.179012 
L 337.029006 251.434792 
L 337.153921 287.265491 
L 337.278836 273.697945 
L 337.403751 290.627403 
L 337.528666 248.202495 
L 337.778497 289.618829 
L 338.028327 261.350409 
L 338.278157 286.763229 
L 338.527988 282.093584 
L 339.402394 272.771654 
L 339.527309 287.188531 
L 339.777139 255.598703 
L 339.902055 276.758501 
L 340.151885 250.612541 
L 340.2768 286.131351 
L 340.401715 214.291732 
L 340.526631 285.110626 
L 340.776461 288.671013 
L 340.901376 282.153763 
L 341.026291 282.773489 
L 341.401037 277.639889 
L 341.525952 287.954075 
L 341.650867 203.671328 
L 341.775782 282.072753 
L 341.900697 235.556842 
L 342.150528 285.828914 
L 342.400358 269.872655 
L 343.149849 267.272236 
L 343.274764 278.188326 
L 343.64951 277.418732 
L 343.774425 232.300243 
L 343.89934 285.313151 
L 344.274086 274.514525 
L 344.523916 287.327058 
L 344.898662 285.134929 
L 345.023577 285.479221 
L 345.273407 270.067079 
L 345.523238 276.029411 
L 345.648153 199.345397 
L 345.773068 284.9 
L 345.897983 285.96123 
L 346.022898 272.059924 
L 346.272729 283.097529 
L 346.647474 282.94766 
L 346.772389 260.576764 
L 346.897305 280.152817 
L 347.147135 275.292221 
L 347.27205 266.065188 
L 347.396965 283.960285 
L 347.52188 285.864018 
L 347.646796 282.12946 
L 347.771711 285.288848 
L 347.896626 273.307477 
L 348.021541 285.458969 
L 348.146456 281.384169 
L 348.271372 292.012673 
L 348.521202 269.815948 
L 348.771032 278.54882 
L 348.895947 269.127364 
L 349.020863 278.236932 
L 349.145778 272.789013 
L 349.645438 284.157949 
L 349.895269 275.211211 
L 350.519845 277.179752 
L 350.769675 277.430883 
L 350.89459 285.148816 
L 351.019505 282.4535 
L 351.144421 265.02016 
L 351.269336 280.954816 
L 351.394251 271.614369 
L 352.143742 262.938204 
L 352.268657 286.763229 
L 352.393572 273.89885 
L 352.518488 198.778327 
L 352.768318 284.089901 
L 352.893233 288.099893 
L 353.143063 276.944823 
L 353.642724 286.803734 
L 354.01747 277.738721 
L 354.2673 231.085093 
L 354.766961 283.458023 
L 355.016791 278.488063 
L 355.391537 249.255624 
L 355.516452 276.069916 
L 355.891197 267.563872 
L 356.141028 285.920725 
L 358.014755 279.245506 
L 358.264586 234.56042 
L 358.764246 278.974123 
L 360.138313 284.235719 
L 360.887804 286.512098 
L 362.136956 286.171856 
L 362.261871 287.249289 
L 362.386787 286.957653 
L 365.384751 285.329353 
L 368.50763 273.283174 
L 370.256443 293.730084 
L 372.13017 287.962176 
L 374.253728 289.857809 
L 379.000505 286.5283 
L 379.12542 289.574274 
L 380.249657 281.432774 
L 382.2483 290.919039 
L 385.87084 290.141344 
L 387.119992 285.313151 
L 387.369822 233.162998 
L 389.993041 266.632257 
L 390.242871 279.334617 
L 391.117277 272.327257 
L 391.367108 252.585133 
L 392.741175 288.772276 
L 393.11592 283.530932 
L 393.490666 275.089696 
L 394.240157 287.958126 
L 394.365072 278.046559 
L 394.864733 275.105898 
L 394.989648 282.37249 
L 396.113884 287.840661 
L 396.2388 283.615992 
L 396.363715 283.320306 
L 396.613545 290.230455 
L 397.612866 288.966699 
L 398.487273 286.941451 
L 398.487273 286.941451 
" style="fill:none;stroke:#0000ff;stroke-linecap:square;stroke-width:1.5;"/>
   </g>
   <g id="patch_3">
    <path d="M 57.6 307.584 
L 57.6 41.472 
" style="fill:none;stroke:#000000;stroke-linecap:square;stroke-linejoin:miter;stroke-width:0.8;"/>
   </g>
   <g id="patch_4">
    <path d="M 414.72 307.584 
L 414.72 41.472 
" style="fill:none;stroke:#000000;stroke-linecap:square;stroke-linejoin:miter;stroke-width:0.8;"/>
   </g>
   <g id="patch_5">
    <path d="M 57.6 307.584 
L 414.72 307.584 
" style="fill:none;stroke:#000000;stroke-linecap:square;stroke-linejoin:miter;stroke-width:0.8;"/>
   </g>
   <g id="patch_6">
    <path d="M 57.6 41.472 
L 414.72 41.472 
" style="fill:none;stroke:#000000;stroke-linecap:square;stroke-linejoin:miter;stroke-width:0.8;"/>
   </g>
   <g id="text_13">
    <!-- temperature-&gt;ping_night -->
    <g transform="translate(159.735938 35.472)scale(0.12 -0.12)">
     <defs>
      <path d="M 4.890625 31.390625 
L 31.203125 31.390625 
L 31.203125 23.390625 
L 4.890625 23.390625 
z
" id="DejaVuSans-45"/>
      <path d="M 10.59375 49.21875 
L 10.59375 58.109375 
L 73.1875 35.40625 
L 73.1875 27.296875 
L 10.59375 4.59375 
L 10.59375 13.484375 
L 60.890625 31.296875 
z
" id="DejaVuSans-62"/>
      <path d="M 9.421875 54.6875 
L 18.40625 54.6875 
L 18.40625 0 
L 9.421875 0 
z
M 9.421875 75.984375 
L 18.40625 75.984375 
L 18.40625 64.59375 
L 9.421875 64.59375 
z
" id="DejaVuSans-105"/>
      <path d="M 45.40625 27.984375 
Q 45.40625 37.75 41.375 43.109375 
Q 37.359375 48.484375 30.078125 48.484375 
Q 22.859375 48.484375 18.828125 43.109375 
Q 14.796875 37.75 14.796875 27.984375 
Q 14.796875 18.265625 18.828125 12.890625 
Q 22.859375 7.515625 30.078125 7.515625 
Q 37.359375 7.515625 41.375 12.890625 
Q 45.40625 18.265625 45.40625 27.984375 
z
M 54.390625 6.78125 
Q 54.390625 -7.171875 48.1875 -13.984375 
Q 42 -20.796875 29.203125 -20.796875 
Q 24.46875 -20.796875 20.265625 -20.09375 
Q 16.0625 -19.390625 12.109375 -17.921875 
L 12.109375 -9.1875 
Q 16.0625 -11.328125 19.921875 -12.34375 
Q 23.78125 -13.375 27.78125 -13.375 
Q 36.625 -13.375 41.015625 -8.765625 
Q 45.40625 -4.15625 45.40625 5.171875 
L 45.40625 9.625 
Q 42.625 4.78125 38.28125 2.390625 
Q 33.9375 0 27.875 0 
Q 17.828125 0 11.671875 7.65625 
Q 5.515625 15.328125 5.515625 27.984375 
Q 5.515625 40.671875 11.671875 48.328125 
Q 17.828125 56 27.875 56 
Q 33.9375 56 38.28125 53.609375 
Q 42.625 51.21875 45.40625 46.390625 
L 45.40625 54.6875 
L 54.390625 54.6875 
z
" id="DejaVuSans-103"/>
      <path d="M 50.984375 -16.609375 
L 50.984375 -23.578125 
L -0.984375 -23.578125 
L -0.984375 -16.609375 
z
" id="DejaVuSans-95"/>
     </defs>
     <use xlink:href="#DejaVuSans-116"/>
     <use x="39.208984" xlink:href="#DejaVuSans-101"/>
     <use x="100.732422" xlink:href="#DejaVuSans-109"/>
     <use x="198.144531" xlink:href="#DejaVuSans-112"/>
     <use x="261.621094" xlink:href="#DejaVuSans-101"/>
     <use x="323.144531" xlink:href="#DejaVuSans-114"/>
     <use x="364.257812" xlink:href="#DejaVuSans-97"/>
     <use x="425.537109" xlink:href="#DejaVuSans-116"/>
     <use x="464.746094" xlink:href="#DejaVuSans-117"/>
     <use x="528.125" xlink:href="#DejaVuSans-114"/>
     <use x="566.988281" xlink:href="#DejaVuSans-101"/>
     <use x="628.511719" xlink:href="#DejaVuSans-45"/>
     <use x="664.595703" xlink:href="#DejaVuSans-62"/>
     <use x="748.384766" xlink:href="#DejaVuSans-112"/>
     <use x="811.861328" xlink:href="#DejaVuSans-105"/>
     <use x="839.644531" xlink:href="#DejaVuSans-110"/>
     <use x="903.023438" xlink:href="#DejaVuSans-103"/>
     <use x="966.5" xlink:href="#DejaVuSans-95"/>
     <use x="1016.5" xlink:href="#DejaVuSans-110"/>
     <use x="1079.878906" xlink:href="#DejaVuSans-105"/>
     <use x="1107.662109" xlink:href="#DejaVuSans-103"/>
     <use x="1171.138672" xlink:href="#DejaVuSans-104"/>
     <use x="1234.517578" xlink:href="#DejaVuSans-116"/>
    </g>
   </g>
  </g>
  <g id="legend_1">
   <g id="patch_7">
    <path d="M 415.451563 22.678125 
L 453.8 22.678125 
Q 455.8 22.678125 455.8 20.678125 
L 455.8 7 
Q 455.8 5 453.8 5 
L 415.451563 5 
Q 413.451563 5 413.451563 7 
L 413.451563 20.678125 
Q 413.451563 22.678125 415.451563 22.678125 
z
" style="fill:#ffffff;opacity:0.8;stroke:#cccccc;stroke-linejoin:miter;"/>
   </g>
   <g id="line2d_13">
    <path d="M 417.451563 13.098438 
L 437.451563 13.098438 
" style="fill:none;stroke:#0000ff;stroke-linecap:square;stroke-width:1.5;"/>
   </g>
   <g id="line2d_14"/>
   <g id="text_14">
    <!-- p -->
    <g transform="translate(445.451563 16.598438)scale(0.1 -0.1)">
     <use xlink:href="#DejaVuSans-112"/>
    </g>
   </g>
  </g>
 </g>
 <defs>
  <clipPath id="p7a3cdaa0c3">
   <rect height="266.112" width="357.12" x="57.6" y="41.472"/>
  </clipPath>
 </defs>
</svg>
