<?xml version="1.0" encoding="utf-8" standalone="no"?>
<!DOCTYPE svg PUBLIC "-//W3C//DTD SVG 1.1//EN"
  "http://www.w3.org/Graphics/SVG/1.1/DTD/svg11.dtd">
<!-- Created with matplotlib (https://matplotlib.org/) -->
<svg height="2090.31625pt" version="1.1" viewBox="0 0 2062.259375 2090.31625" width="2062.259375pt" xmlns="http://www.w3.org/2000/svg" xmlns:xlink="http://www.w3.org/1999/xlink">
 <metadata>
  <rdf:RDF xmlns:cc="http://creativecommons.org/ns#" xmlns:dc="http://purl.org/dc/elements/1.1/" xmlns:rdf="http://www.w3.org/1999/02/22-rdf-syntax-ns#">
   <cc:Work>
    <dc:type rdf:resource="http://purl.org/dc/dcmitype/StillImage"/>
    <dc:date>2022-07-24T11:49:47.079920</dc:date>
    <dc:format>image/svg+xml</dc:format>
    <dc:creator>
     <cc:Agent>
      <dc:title>Matplotlib v3.3.2, https://matplotlib.org/</dc:title>
     </cc:Agent>
    </dc:creator>
   </cc:Work>
  </rdf:RDF>
 </metadata>
 <defs>
  <style type="text/css">*{stroke-linecap:butt;stroke-linejoin:round;}</style>
 </defs>
 <g id="figure_1">
  <g id="patch_1">
   <path d="M 0 2090.31625 
L 2062.259375 2090.31625 
L 2062.259375 0 
L 0 0 
z
" style="fill:#ffffff;"/>
  </g>
  <g id="axes_1">
   <g id="patch_2">
    <path d="M 44.059375 2052.76 
L 1829.659375 2052.76 
L 1829.659375 278.68 
L 44.059375 278.68 
z
" style="fill:#ffffff;"/>
   </g>
   <g id="matplotlib.axis_1">
    <g id="xtick_1">
     <g id="line2d_1">
      <defs>
       <path d="M 0 0 
L 0 3.5 
" id="m2ebb7df84d" style="stroke:#000000;stroke-width:0.8;"/>
      </defs>
      <g>
       <use style="stroke:#000000;stroke-width:0.8;" x="125.223011" xlink:href="#m2ebb7df84d" y="2052.76"/>
      </g>
     </g>
     <g id="text_1">
      <text style="font-family:DejaVu Sans;font-size:10px;font-stretch:normal;font-style:normal;font-weight:normal;text-anchor:middle;" transform="rotate(-0, 125.223011, 2067.358438)" x="125.223011" y="2067.358438">60</text>
     </g>
    </g>
    <g id="xtick_2">
     <g id="line2d_2">
      <g>
       <use style="stroke:#000000;stroke-width:0.8;" x="338.811528" xlink:href="#m2ebb7df84d" y="2052.76"/>
      </g>
     </g>
     <g id="text_2">
      <text style="font-family:DejaVu Sans;font-size:10px;font-stretch:normal;font-style:normal;font-weight:normal;text-anchor:middle;" transform="rotate(-0, 338.811528, 2067.358438)" x="338.811528" y="2067.358438">65</text>
     </g>
    </g>
    <g id="xtick_3">
     <g id="line2d_3">
      <g>
       <use style="stroke:#000000;stroke-width:0.8;" x="552.400045" xlink:href="#m2ebb7df84d" y="2052.76"/>
      </g>
     </g>
     <g id="text_3">
      <text style="font-family:DejaVu Sans;font-size:10px;font-stretch:normal;font-style:normal;font-weight:normal;text-anchor:middle;" transform="rotate(-0, 552.400045, 2067.358438)" x="552.400045" y="2067.358438">70</text>
     </g>
    </g>
    <g id="xtick_4">
     <g id="line2d_4">
      <g>
       <use style="stroke:#000000;stroke-width:0.8;" x="765.988562" xlink:href="#m2ebb7df84d" y="2052.76"/>
      </g>
     </g>
     <g id="text_4">
      <text style="font-family:DejaVu Sans;font-size:10px;font-stretch:normal;font-style:normal;font-weight:normal;text-anchor:middle;" transform="rotate(-0, 765.988562, 2067.358438)" x="765.988562" y="2067.358438">75</text>
     </g>
    </g>
    <g id="xtick_5">
     <g id="line2d_5">
      <g>
       <use style="stroke:#000000;stroke-width:0.8;" x="979.577078" xlink:href="#m2ebb7df84d" y="2052.76"/>
      </g>
     </g>
     <g id="text_5">
      <text style="font-family:DejaVu Sans;font-size:10px;font-stretch:normal;font-style:normal;font-weight:normal;text-anchor:middle;" transform="rotate(-0, 979.577078, 2067.358438)" x="979.577078" y="2067.358438">80</text>
     </g>
    </g>
    <g id="xtick_6">
     <g id="line2d_6">
      <g>
       <use style="stroke:#000000;stroke-width:0.8;" x="1193.165595" xlink:href="#m2ebb7df84d" y="2052.76"/>
      </g>
     </g>
     <g id="text_6">
      <text style="font-family:DejaVu Sans;font-size:10px;font-stretch:normal;font-style:normal;font-weight:normal;text-anchor:middle;" transform="rotate(-0, 1193.165595, 2067.358438)" x="1193.165595" y="2067.358438">85</text>
     </g>
    </g>
    <g id="xtick_7">
     <g id="line2d_7">
      <g>
       <use style="stroke:#000000;stroke-width:0.8;" x="1406.754112" xlink:href="#m2ebb7df84d" y="2052.76"/>
      </g>
     </g>
     <g id="text_7">
      <text style="font-family:DejaVu Sans;font-size:10px;font-stretch:normal;font-style:normal;font-weight:normal;text-anchor:middle;" transform="rotate(-0, 1406.754112, 2067.358438)" x="1406.754112" y="2067.358438">90</text>
     </g>
    </g>
    <g id="xtick_8">
     <g id="line2d_8">
      <g>
       <use style="stroke:#000000;stroke-width:0.8;" x="1620.342629" xlink:href="#m2ebb7df84d" y="2052.76"/>
      </g>
     </g>
     <g id="text_8">
      <text style="font-family:DejaVu Sans;font-size:10px;font-stretch:normal;font-style:normal;font-weight:normal;text-anchor:middle;" transform="rotate(-0, 1620.342629, 2067.358438)" x="1620.342629" y="2067.358438">95</text>
     </g>
    </g>
    <g id="text_9">
     <text style="font-family:DejaVu Sans;font-size:10px;font-stretch:normal;font-style:normal;font-weight:normal;text-anchor:middle;" transform="rotate(-0, 936.859375, 2081.036562)" x="936.859375" y="2081.036562">humidity from WeatherBitIO</text>
    </g>
   </g>
   <g id="matplotlib.axis_2">
    <g id="ytick_1">
     <g id="line2d_9">
      <defs>
       <path d="M 0 0 
L -3.5 0 
" id="mc3e539072a" style="stroke:#000000;stroke-width:0.8;"/>
      </defs>
      <g>
       <use style="stroke:#000000;stroke-width:0.8;" x="44.059375" xlink:href="#mc3e539072a" y="1976.368094"/>
      </g>
     </g>
     <g id="text_10">
      <text style="font-family:DejaVu Sans;font-size:10px;font-stretch:normal;font-style:normal;font-weight:normal;text-anchor:end;" transform="rotate(-0, 37.059375, 1980.167313)" x="37.059375" y="1980.167313">5.0</text>
     </g>
    </g>
    <g id="ytick_2">
     <g id="line2d_10">
      <g>
       <use style="stroke:#000000;stroke-width:0.8;" x="44.059375" xlink:href="#mc3e539072a" y="1752.784208"/>
      </g>
     </g>
     <g id="text_11">
      <text style="font-family:DejaVu Sans;font-size:10px;font-stretch:normal;font-style:normal;font-weight:normal;text-anchor:end;" transform="rotate(-0, 37.059375, 1756.583427)" x="37.059375" y="1756.583427">5.5</text>
     </g>
    </g>
    <g id="ytick_3">
     <g id="line2d_11">
      <g>
       <use style="stroke:#000000;stroke-width:0.8;" x="44.059375" xlink:href="#mc3e539072a" y="1529.200323"/>
      </g>
     </g>
     <g id="text_12">
      <text style="font-family:DejaVu Sans;font-size:10px;font-stretch:normal;font-style:normal;font-weight:normal;text-anchor:end;" transform="rotate(-0, 37.059375, 1532.999541)" x="37.059375" y="1532.999541">6.0</text>
     </g>
    </g>
    <g id="ytick_4">
     <g id="line2d_12">
      <g>
       <use style="stroke:#000000;stroke-width:0.8;" x="44.059375" xlink:href="#mc3e539072a" y="1305.616437"/>
      </g>
     </g>
     <g id="text_13">
      <text style="font-family:DejaVu Sans;font-size:10px;font-stretch:normal;font-style:normal;font-weight:normal;text-anchor:end;" transform="rotate(-0, 37.059375, 1309.415656)" x="37.059375" y="1309.415656">6.5</text>
     </g>
    </g>
    <g id="ytick_5">
     <g id="line2d_13">
      <g>
       <use style="stroke:#000000;stroke-width:0.8;" x="44.059375" xlink:href="#mc3e539072a" y="1082.032552"/>
      </g>
     </g>
     <g id="text_14">
      <text style="font-family:DejaVu Sans;font-size:10px;font-stretch:normal;font-style:normal;font-weight:normal;text-anchor:end;" transform="rotate(-0, 37.059375, 1085.83177)" x="37.059375" y="1085.83177">7.0</text>
     </g>
    </g>
    <g id="ytick_6">
     <g id="line2d_14">
      <g>
       <use style="stroke:#000000;stroke-width:0.8;" x="44.059375" xlink:href="#mc3e539072a" y="858.448666"/>
      </g>
     </g>
     <g id="text_15">
      <text style="font-family:DejaVu Sans;font-size:10px;font-stretch:normal;font-style:normal;font-weight:normal;text-anchor:end;" transform="rotate(-0, 37.059375, 862.247885)" x="37.059375" y="862.247885">7.5</text>
     </g>
    </g>
    <g id="ytick_7">
     <g id="line2d_15">
      <g>
       <use style="stroke:#000000;stroke-width:0.8;" x="44.059375" xlink:href="#mc3e539072a" y="634.864781"/>
      </g>
     </g>
     <g id="text_16">
      <text style="font-family:DejaVu Sans;font-size:10px;font-stretch:normal;font-style:normal;font-weight:normal;text-anchor:end;" transform="rotate(-0, 37.059375, 638.663999)" x="37.059375" y="638.663999">8.0</text>
     </g>
    </g>
    <g id="ytick_8">
     <g id="line2d_16">
      <g>
       <use style="stroke:#000000;stroke-width:0.8;" x="44.059375" xlink:href="#mc3e539072a" y="411.280895"/>
      </g>
     </g>
     <g id="text_17">
      <text style="font-family:DejaVu Sans;font-size:10px;font-stretch:normal;font-style:normal;font-weight:normal;text-anchor:end;" transform="rotate(-0, 37.059375, 415.080114)" x="37.059375" y="415.080114">8.5</text>
     </g>
    </g>
    <g id="text_18">
     <text style="font-family:DejaVu Sans;font-size:10px;font-stretch:normal;font-style:normal;font-weight:normal;text-anchor:middle;" transform="rotate(-90, 14.798438, 1165.72)" x="14.798438" y="1165.72">ping_night[ms]</text>
    </g>
   </g>
   <g id="line2d_17">
    <path clip-path="url(#pb14a1486d6)" d="M 125.223011 1812.33205 
L 167.940715 1023.056091 
L 381.529231 1802.121719 
L 466.964638 1811.58677 
L 509.682342 819.166697 
L 511.109113 1835.591549 
L 526.209821 1719.693793 
L 539.533473 1775.768632 
L 552.139467 1309.864531 
L 552.400045 1480.906203 
L 589.077465 1806.731806 
L 595.117748 1723.643775 
L 630.466648 1663.350654 
L 637.835452 1888.425099 
L 654.200604 1521.784791 
L 657.160941 1596.424544 
L 680.553155 1797.712802 
L 686.717319 1844.652343 
L 711.600382 1852.204509 
L 713.697821 1588.494769 
L 723.270858 1489.775031 
L 736.069082 1308.380747 
L 753.450916 1605.528422 
L 761.024764 1860.876854 
L 765.988562 1876.487074 
L 777.650495 1848.315505 
L 782.336627 1701.732554 
L 791.768696 1467.369215 
L 794.703402 1310.088115 
L 799.872244 1653.716221 
L 808.706265 1700.843952 
L 847.429863 765.735882 
L 851.423968 1803.919706 
L 851.69309 1614.815752 
L 855.640206 1079.349545 
L 855.845251 1569.201512 
L 887.729744 1754.003757 
L 889.532431 938.566225 
L 894.141672 1592.050524 
L 920.272091 1856.079963 
L 932.19033 1478.426455 
L 936.859375 1414.405968 
L 938.610801 1063.586881 
L 961.464772 1412.814747 
L 969.341917 1737.580504 
L 979.577078 1823.213132 
L 986.446085 1756.883246 
L 1005.523811 1328.706555 
L 1006.143218 1615.544354 
L 1022.294782 1682.057172 
L 1022.371674 1328.918847 
L 1024.759593 1574.513324 
L 1055.7342 1493.426901 
L 1065.012485 1476.984169 
L 1068.52388 1691.273797 
L 1083.517794 1709.774799 
L 1085.205143 1688.798565 
L 1092.509871 1825.076331 
L 1107.730188 1504.97196 
L 1113.116891 1751.889873 
L 1131.370165 1411.595199 
L 1150.084791 1541.5347 
L 1150.447892 1756.601696 
L 1155.074219 1229.597916 
L 1160.742858 680.72432 
L 1170.721714 1270.923671 
L 1179.914564 1246.909697 
L 1186.651145 1444.401053 
L 1188.902368 1649.115813 
L 1190.705055 1691.937451 
L 1193.165595 1735.170767 
L 1195.68594 1819.993524 
L 1195.732929 1760.882913 
L 1198.176382 1656.866721 
L 1203.614345 1479.036229 
L 1205.434119 1835.323926 
L 1212.512443 1909.640725 
L 1215.754717 1555.314921 
L 1228.847693 359.32 
L 1231.893465 1680.505636 
L 1232.820439 1620.571604 
L 1232.837526 1474.794911 
L 1233.978089 1727.22685 
L 1235.883298 1596.817954 
L 1238.463448 1787.029807 
L 1238.958973 1571.122301 
L 1244.81557 1592.92173 
L 1247.220577 1676.802951 
L 1248.151823 1787.141599 
L 1268.058273 1775.549113 
L 1269.215922 1205.706381 
L 1271.804615 1526.436013 
L 1275.21776 1748.841002 
L 1278.601002 1553.965287 
L 1281.031639 1328.421994 
L 1284.684003 1538.888958 
L 1285.726315 1516.157929 
L 1286.162035 1845.124353 
L 1288.686652 1031.144859 
L 1293.488121 1621.167828 
L 1295.769247 1789.899133 
L 1310.596562 1681.274629 
L 1315.607348 1917.707813 
L 1318.230215 1813.107141 
L 1320.135425 1219.052209 
L 1321.318705 1487.621173 
L 1321.592098 1432.24622 
L 1331.318919 1826.715946 
L 1331.506877 1800.25852 
L 1333.548784 1288.127209 
L 1335.056719 1206.2334 
L 1336.158835 1441.294592 
L 1341.340493 1822.989548 
L 1345.979635 1770.484599 
L 1360.841124 1972.12 
L 1363.438361 1267.439489 
L 1364.036408 1372.862431 
L 1368.346625 1698.195343 
L 1368.726812 1846.42114 
L 1379.807785 1882.611918 
L 1382.622881 1581.608386 
L 1383.900141 1881.121359 
L 1385.848068 1857.645051 
L 1389.094613 1671.674854 
L 1389.274028 1523.163558 
L 1389.346648 1850.564894 
L 1394.113943 1843.356008 
L 1394.477044 1652.804947 
L 1402.050893 1827.461226 
L 1405.570831 1298.014585 
L 1405.690441 1651.89628 
L 1406.754112 1471.484379 
L 1407.010418 1705.90612 
L 1408.210786 1729.531484 
L 1408.27059 1415.694237 
L 1437.416879 1841.373112 
L 1441.410985 1666.962394 
L 1444.345691 1472.410016 
L 1449.471815 1671.690333 
L 1452.598751 1863.53276 
L 1453.918728 1906.81318 
L 1455.789764 1765.201713 
L 1459.155919 1905.089551 
L 1465.875413 1872.078633 
L 1466.311134 1858.718253 
L 1473.312565 1854.999308 
L 1481.945813 1607.752795 
L 1485.551187 1687.782275 
L 1492.189519 1640.326713 
L 1494.850831 1753.529488 
L 1498.524554 1710.506528 
L 1507.696045 1796.755706 
L 1514.287386 1881.667897 
L 1517.585193 1929.862646 
L 1517.803053 1895.430727 
L 1518.477993 1628.552871 
L 1528.687524 1518.289429 
L 1529.88362 1867.121568 
L 1534.907222 1496.054012 
L 1535.996523 1911.040948 
L 1549.713178 1872.209944 
L 1567.385492 1778.547951 
L 1570.602135 1812.664038 
L 1572.95588 1518.13292 
L 1575.911945 1596.925914 
L 1577.624925 1630.070193 
L 1582.302514 1770.633655 
L 1583.908699 1807.785844 
L 1594.148133 1365.364931 
L 1596.348095 1875.494497 
L 1597.501473 1866.56808 
L 1601.42723 1886.568675 
L 1602.439639 1666.155616 
L 1612.760236 1762.142791 
L 1620.342629 1459.380044 
L 1624.097515 1878.954315 
L 1636.835934 1861.925085 
L 1649.834931 1910.23198 
L 1651.432573 1743.393685 
L 1663.060332 1351.373896 
L 1665.811352 1867.169724 
L 1686.038185 1556.378186 
L 1705.778035 1613.651902 
L 1748.495739 1645.327849 
L 1748.495739 1645.327849 
" style="fill:none;stroke:#0000ff;stroke-linecap:square;stroke-width:1.5;"/>
   </g>
   <g id="patch_3">
    <path d="M 44.059375 2052.76 
L 44.059375 278.68 
" style="fill:none;stroke:#000000;stroke-linecap:square;stroke-linejoin:miter;stroke-width:0.8;"/>
   </g>
   <g id="patch_4">
    <path d="M 1829.659375 2052.76 
L 1829.659375 278.68 
" style="fill:none;stroke:#000000;stroke-linecap:square;stroke-linejoin:miter;stroke-width:0.8;"/>
   </g>
   <g id="patch_5">
    <path d="M 44.059375 2052.76 
L 1829.659375 2052.76 
" style="fill:none;stroke:#000000;stroke-linecap:square;stroke-linejoin:miter;stroke-width:0.8;"/>
   </g>
   <g id="patch_6">
    <path d="M 44.059375 278.68 
L 1829.659375 278.68 
" style="fill:none;stroke:#000000;stroke-linecap:square;stroke-linejoin:miter;stroke-width:0.8;"/>
   </g>
   <g id="text_19">
    <text style="font-family:DejaVu Sans;font-size:12px;font-stretch:normal;font-style:normal;font-weight:normal;text-anchor:middle;" transform="rotate(-0, 936.859375, 272.68)" x="936.859375" y="272.68">humidity-&gt;ping_night</text>
   </g>
  </g>
  <g id="legend_1">
   <g id="patch_7">
    <path d="M 1947.971875 22.95625 
L 2055.259375 22.95625 
Q 2057.259375 22.95625 2057.259375 20.95625 
L 2057.259375 7 
Q 2057.259375 5 2055.259375 5 
L 1947.971875 5 
Q 1945.971875 5 1945.971875 7 
L 1945.971875 20.95625 
Q 1945.971875 22.95625 1947.971875 22.95625 
z
" style="fill:#ffffff;opacity:0.8;stroke:#cccccc;stroke-linejoin:miter;"/>
   </g>
   <g id="line2d_18">
    <path d="M 1949.971875 13.098438 
L 1969.971875 13.098438 
" style="fill:none;stroke:#0000ff;stroke-linecap:square;stroke-width:1.5;"/>
   </g>
   <g id="line2d_19"/>
   <g id="text_20">
    <text style="font-family:DejaVu Sans;font-size:10px;font-stretch:normal;font-style:normal;font-weight:normal;text-anchor:start;" transform="rotate(-0, 1977.971875, 16.598438)" x="1977.971875" y="16.598438">ping_night[ms]</text>
   </g>
  </g>
 </g>
 <defs>
  <clipPath id="pb14a1486d6">
   <rect height="1774.08" width="1785.6" x="44.059375" y="278.68"/>
  </clipPath>
 </defs>
</svg>
