<?xml version="1.0" encoding="utf-8" standalone="no"?>
<!DOCTYPE svg PUBLIC "-//W3C//DTD SVG 1.1//EN"
  "http://www.w3.org/Graphics/SVG/1.1/DTD/svg11.dtd">
<!-- Created with matplotlib (https://matplotlib.org/) -->
<svg height="2090.594375pt" version="1.1" viewBox="0 0 2062.259375 2090.594375" width="2062.259375pt" xmlns="http://www.w3.org/2000/svg" xmlns:xlink="http://www.w3.org/1999/xlink">
 <metadata>
  <rdf:RDF xmlns:cc="http://creativecommons.org/ns#" xmlns:dc="http://purl.org/dc/elements/1.1/" xmlns:rdf="http://www.w3.org/1999/02/22-rdf-syntax-ns#">
   <cc:Work>
    <dc:type rdf:resource="http://purl.org/dc/dcmitype/StillImage"/>
    <dc:date>2022-07-23T21:13:41.315927</dc:date>
    <dc:format>image/svg+xml</dc:format>
    <dc:creator>
     <cc:Agent>
      <dc:title>Matplotlib v3.3.2, https://matplotlib.org/</dc:title>
     </cc:Agent>
    </dc:creator>
   </cc:Work>
  </rdf:RDF>
 </metadata>
 <defs>
  <style type="text/css">*{stroke-linecap:butt;stroke-linejoin:round;}</style>
 </defs>
 <g id="figure_1">
  <g id="patch_1">
   <path d="M 0 2090.594375 
L 2062.259375 2090.594375 
L 2062.259375 0 
L 0 0 
z
" style="fill:#ffffff;"/>
  </g>
  <g id="axes_1">
   <g id="patch_2">
    <path d="M 44.059375 2052.76 
L 1829.659375 2052.76 
L 1829.659375 278.68 
L 44.059375 278.68 
z
" style="fill:#ffffff;"/>
   </g>
   <g id="matplotlib.axis_1">
    <g id="xtick_1">
     <g id="line2d_1">
      <defs>
       <path d="M 0 0 
L 0 3.5 
" id="m068887126d" style="stroke:#000000;stroke-width:0.8;"/>
      </defs>
      <g>
       <use style="stroke:#000000;stroke-width:0.8;" x="49.136347" xlink:href="#m068887126d" y="2052.76"/>
      </g>
     </g>
     <g id="text_1">
      <text style="font-family:DejaVu Sans;font-size:10px;font-stretch:normal;font-style:normal;font-weight:normal;text-anchor:middle;" transform="rotate(-0, 49.136347, 2067.358437)" x="49.136347" y="2067.358437">0</text>
     </g>
    </g>
    <g id="xtick_2">
     <g id="line2d_2">
      <g>
       <use style="stroke:#000000;stroke-width:0.8;" x="411.819935" xlink:href="#m068887126d" y="2052.76"/>
      </g>
     </g>
     <g id="text_2">
      <text style="font-family:DejaVu Sans;font-size:10px;font-stretch:normal;font-style:normal;font-weight:normal;text-anchor:middle;" transform="rotate(-0, 411.819935, 2067.358437)" x="411.819935" y="2067.358437">2</text>
     </g>
    </g>
    <g id="xtick_3">
     <g id="line2d_3">
      <g>
       <use style="stroke:#000000;stroke-width:0.8;" x="774.503523" xlink:href="#m068887126d" y="2052.76"/>
      </g>
     </g>
     <g id="text_3">
      <text style="font-family:DejaVu Sans;font-size:10px;font-stretch:normal;font-style:normal;font-weight:normal;text-anchor:middle;" transform="rotate(-0, 774.503523, 2067.358437)" x="774.503523" y="2067.358437">4</text>
     </g>
    </g>
    <g id="xtick_4">
     <g id="line2d_4">
      <g>
       <use style="stroke:#000000;stroke-width:0.8;" x="1137.187111" xlink:href="#m068887126d" y="2052.76"/>
      </g>
     </g>
     <g id="text_4">
      <text style="font-family:DejaVu Sans;font-size:10px;font-stretch:normal;font-style:normal;font-weight:normal;text-anchor:middle;" transform="rotate(-0, 1137.187111, 2067.358437)" x="1137.187111" y="2067.358437">6</text>
     </g>
    </g>
    <g id="xtick_5">
     <g id="line2d_5">
      <g>
       <use style="stroke:#000000;stroke-width:0.8;" x="1499.870699" xlink:href="#m068887126d" y="2052.76"/>
      </g>
     </g>
     <g id="text_5">
      <text style="font-family:DejaVu Sans;font-size:10px;font-stretch:normal;font-style:normal;font-weight:normal;text-anchor:middle;" transform="rotate(-0, 1499.870699, 2067.358437)" x="1499.870699" y="2067.358437">8</text>
     </g>
    </g>
    <g id="text_6">
     <text style="font-family:DejaVu Sans;font-size:10px;font-stretch:normal;font-style:normal;font-weight:normal;text-anchor:middle;" transform="rotate(-0, 936.859375, 2081.036562)" x="936.859375" y="2081.036562">wind_speed from WeatherBitIO</text>
    </g>
   </g>
   <g id="matplotlib.axis_2">
    <g id="ytick_1">
     <g id="line2d_6">
      <defs>
       <path d="M 0 0 
L -3.5 0 
" id="m44a9818d0c" style="stroke:#000000;stroke-width:0.8;"/>
      </defs>
      <g>
       <use style="stroke:#000000;stroke-width:0.8;" x="44.059375" xlink:href="#m44a9818d0c" y="1976.368094"/>
      </g>
     </g>
     <g id="text_7">
      <text style="font-family:DejaVu Sans;font-size:10px;font-stretch:normal;font-style:normal;font-weight:normal;text-anchor:end;" transform="rotate(-0, 37.059375, 1980.167313)" x="37.059375" y="1980.167313">5.0</text>
     </g>
    </g>
    <g id="ytick_2">
     <g id="line2d_7">
      <g>
       <use style="stroke:#000000;stroke-width:0.8;" x="44.059375" xlink:href="#m44a9818d0c" y="1752.784208"/>
      </g>
     </g>
     <g id="text_8">
      <text style="font-family:DejaVu Sans;font-size:10px;font-stretch:normal;font-style:normal;font-weight:normal;text-anchor:end;" transform="rotate(-0, 37.059375, 1756.583427)" x="37.059375" y="1756.583427">5.5</text>
     </g>
    </g>
    <g id="ytick_3">
     <g id="line2d_8">
      <g>
       <use style="stroke:#000000;stroke-width:0.8;" x="44.059375" xlink:href="#m44a9818d0c" y="1529.200323"/>
      </g>
     </g>
     <g id="text_9">
      <text style="font-family:DejaVu Sans;font-size:10px;font-stretch:normal;font-style:normal;font-weight:normal;text-anchor:end;" transform="rotate(-0, 37.059375, 1532.999541)" x="37.059375" y="1532.999541">6.0</text>
     </g>
    </g>
    <g id="ytick_4">
     <g id="line2d_9">
      <g>
       <use style="stroke:#000000;stroke-width:0.8;" x="44.059375" xlink:href="#m44a9818d0c" y="1305.616437"/>
      </g>
     </g>
     <g id="text_10">
      <text style="font-family:DejaVu Sans;font-size:10px;font-stretch:normal;font-style:normal;font-weight:normal;text-anchor:end;" transform="rotate(-0, 37.059375, 1309.415656)" x="37.059375" y="1309.415656">6.5</text>
     </g>
    </g>
    <g id="ytick_5">
     <g id="line2d_10">
      <g>
       <use style="stroke:#000000;stroke-width:0.8;" x="44.059375" xlink:href="#m44a9818d0c" y="1082.032552"/>
      </g>
     </g>
     <g id="text_11">
      <text style="font-family:DejaVu Sans;font-size:10px;font-stretch:normal;font-style:normal;font-weight:normal;text-anchor:end;" transform="rotate(-0, 37.059375, 1085.83177)" x="37.059375" y="1085.83177">7.0</text>
     </g>
    </g>
    <g id="ytick_6">
     <g id="line2d_11">
      <g>
       <use style="stroke:#000000;stroke-width:0.8;" x="44.059375" xlink:href="#m44a9818d0c" y="858.448666"/>
      </g>
     </g>
     <g id="text_12">
      <text style="font-family:DejaVu Sans;font-size:10px;font-stretch:normal;font-style:normal;font-weight:normal;text-anchor:end;" transform="rotate(-0, 37.059375, 862.247885)" x="37.059375" y="862.247885">7.5</text>
     </g>
    </g>
    <g id="ytick_7">
     <g id="line2d_12">
      <g>
       <use style="stroke:#000000;stroke-width:0.8;" x="44.059375" xlink:href="#m44a9818d0c" y="634.864781"/>
      </g>
     </g>
     <g id="text_13">
      <text style="font-family:DejaVu Sans;font-size:10px;font-stretch:normal;font-style:normal;font-weight:normal;text-anchor:end;" transform="rotate(-0, 37.059375, 638.663999)" x="37.059375" y="638.663999">8.0</text>
     </g>
    </g>
    <g id="ytick_8">
     <g id="line2d_13">
      <g>
       <use style="stroke:#000000;stroke-width:0.8;" x="44.059375" xlink:href="#m44a9818d0c" y="411.280895"/>
      </g>
     </g>
     <g id="text_14">
      <text style="font-family:DejaVu Sans;font-size:10px;font-stretch:normal;font-style:normal;font-weight:normal;text-anchor:end;" transform="rotate(-0, 37.059375, 415.080114)" x="37.059375" y="415.080114">8.5</text>
     </g>
    </g>
    <g id="text_15">
     <text style="font-family:DejaVu Sans;font-size:10px;font-stretch:normal;font-style:normal;font-weight:normal;text-anchor:middle;" transform="rotate(-90, 14.798438, 1165.72)" x="14.798438" y="1165.72">ping_night[ms]</text>
    </g>
   </g>
   <g id="line2d_14">
    <path clip-path="url(#pb14614583a)" d="M 125.223011 1680.505636 
L 147.304639 1624.127652 
L 155.7218 1538.888958 
L 157.722544 1526.436013 
L 194.057999 1649.115813 
L 197.310908 1596.424544 
L 200.781427 1743.393685 
L 209.679144 1809.276403 
L 217.486271 1691.273797 
L 218.40785 1812.664038 
L 219.650948 1592.92173 
L 223.631219 1703.555102 
L 233.510176 1691.000528 
L 234.503929 1827.461226 
L 236.721739 1778.547951 
L 237.978437 1541.050269 
L 241.4602 1267.439489 
L 242.653429 1606.858459 
L 245.866805 1620.835318 
L 247.061848 765.735882 
L 249.265151 1868.544765 
L 254.81421 1247.887078 
L 255.378183 1514.890954 
L 257.936915 1115.383815 
L 258.812796 1431.320266 
L 261.984464 1378.132144 
L 262.238343 1541.5347 
L 273.071701 1607.752795 
L 278.417657 1882.611918 
L 280.410604 1773.502982 
L 282.307439 1770.543157 
L 283.431758 1850.564894 
L 287.537336 1636.265063 
L 287.667902 1744.138965 
L 288.589119 958.502455 
L 292.462579 1397.882054 
L 293.235095 1878.954315 
L 294.078335 1716.883024 
L 296.734992 1325.259879 
L 301.680183 952.801066 
L 302.207887 1881.121359 
L 306.407763 1841.373112 
L 306.922774 1505.581734 
L 308.442418 1475.689246 
L 309.69549 1682.243492 
L 310.281224 1800.25852 
L 311.119023 1527.29986 
L 314.673322 1621.167828 
L 315.915514 1063.586881 
L 316.717044 1972.12 
L 316.727925 1288.127209 
L 318.564917 1328.706555 
L 319.47344 1507.691553 
L 321.47908 1856.12468 
L 321.577004 1569.201512 
L 323.967089 1874.007326 
L 324.826649 1656.866721 
L 329.519775 680.72432 
L 329.668475 1878.624672 
L 330.852637 1205.706381 
L 332.77486 1797.545702 
L 332.910867 1651.89628 
L 333.231842 1533.346788 
L 333.371475 516.290793 
L 334.445018 1850.15499 
L 334.686203 1573.022764 
L 336.865931 1001.840465 
L 339.379328 1727.22685 
L 344.970096 1636.297004 
L 345.058953 1910.448112 
L 345.060767 1823.213132 
L 347.302151 1722.51095 
L 349.56711 1309.864531 
L 350.744019 1709.774799 
L 353.696263 1320.820141 
L 354.566704 1917.341948 
L 354.601159 1533.672 
L 358.585238 1615.544354 
L 358.893519 1676.802951 
L 361.370648 1723.643775 
L 362.068814 1516.157929 
L 362.986403 1805.661797 
L 363.35634 1224.008319 
L 367.835483 1493.426901 
L 370.122203 1089.149972 
L 370.938241 1904.150499 
L 373.823389 1415.694237 
L 374.98579 1909.516512 
L 375.236041 1814.661049 
L 377.020445 1770.633655 
L 377.491933 1800.63116 
L 381.831442 1328.918847 
L 383.597711 1652.17146 
L 383.693823 1574.93339 
L 383.869724 1752.088614 
L 385.860857 1802.121719 
L 388.455858 1732.974676 
L 391.672861 1517.350377 
L 392.762726 1270.923671 
L 393.362967 1489.775031 
L 393.758292 1807.785844 
L 394.427443 1523.163558 
L 395.782067 1363.450136 
L 399.680915 1494.51288 
L 399.856817 1724.612639 
L 401.086314 1883.804365 
L 402.906986 1437.568194 
L 408.341799 1849.998482 
L 411.377461 1867.169724 
L 411.78004 1911.040948 
L 416.340786 1585.24535 
L 416.703469 1618.112181 
L 421.255148 1882.686446 
L 422.950694 1830.926776 
L 424.923693 1886.568675 
L 427.874124 1636.967756 
L 429.747385 1819.993524 
L 433.123969 1801.637287 
L 435.633739 1949.687083 
L 435.780626 1472.410016 
L 436.422576 935.883218 
L 437.416329 1542.371446 
L 437.503373 1738.549368 
L 440.51002 1711.04855 
L 442.925493 1666.182717 
L 449.611565 1829.697065 
L 450.462058 1453.44265 
L 453.0897 1886.710956 
L 455.599471 1550.728257 
L 456.089094 1444.401053 
L 456.513433 1652.804947 
L 459.391328 1579.618489 
L 462.006276 1681.274629 
L 462.528541 1817.325423 
L 464.604904 1713.185018 
L 465.760051 825.358251 
L 467.903511 1813.102172 
L 468.750378 1298.014585 
L 475.042938 1814.325673 
L 476.143683 1472.26096 
L 477.338725 1881.667897 
L 479.444103 1875.680817 
L 483.703822 1432.24622 
L 485.800133 1719.693793 
L 487.125742 1666.155616 
L 488.641759 1518.13292 
L 489.376193 1555.314921 
L 493.788239 1863.53276 
L 495.67238 1472.111904 
L 499.796093 1288.304656 
L 500.535967 1772.04682 
L 500.543221 1942.606927 
L 500.753577 1636.833605 
L 505.925445 1663.350654 
L 519.671153 1031.144859 
L 522.338691 1929.862646 
L 522.786605 1872.209944 
L 526.271995 1910.23198 
L 532.227259 1521.784791 
L 536.641118 1705.90612 
L 538.041077 1875.494497 
L 542.52566 1308.380747 
L 549.665086 1411.595199 
L 550.031397 1838.901268 
L 550.132948 1795.749578 
L 550.985254 1219.052209 
L 551.304416 1113.302355 
L 551.786785 1313.665457 
L 553.087006 1701.732554 
L 557.956033 1848.315505 
L 558.1138 1822.989548 
L 558.597983 1079.349545 
L 566.734789 1857.645051 
L 567.269747 1858.718253 
L 568.210911 1824.152185 
L 572.097066 1640.644468 
L 573.020096 1852.770922 
L 573.573188 1806.731806 
L 576.073892 1835.584774 
L 579.878442 1861.925085 
L 580.358998 1888.425099 
L 580.904837 1853.695069 
L 584.961453 1369.561428 
L 585.568948 1860.876854 
L 585.815573 1844.652343 
L 586.214525 1462.52264 
L 586.733162 1353.016221 
L 587.362418 1574.513324 
L 587.520186 1751.889873 
L 591.166969 1866.56808 
L 591.886896 1588.494769 
L 592.089999 1556.378186 
L 592.505272 1297.880435 
L 593.865335 1835.591549 
L 594.133721 1813.107141 
L 594.177243 1365.364931 
L 595.044057 1760.833228 
L 595.789371 1430.227189 
L 598.275567 1605.528422 
L 598.674519 1653.716221 
L 604.136534 1398.478278 
L 605.012415 1876.487074 
L 612.538099 1596.925914 
L 613.747649 1691.937451 
L 613.985207 1770.484599 
L 614.536486 1848.229685 
L 614.632597 1828.467354 
L 617.523185 1811.58677 
L 620.361184 1852.204509 
L 624.651731 1674.678904 
L 632.251766 1737.580504 
L 650.148388 1614.815752 
L 650.683346 1754.003757 
L 654.214071 1441.294592 
L 669.907389 1812.33205 
L 676.372224 1762.142791 
L 677.304321 1028.782323 
L 677.35147 1856.079963 
L 697.77237 1328.421994 
L 714.443121 1321.863533 
L 717.130606 1821.151192 
L 725.633723 1869.622759 
L 734.144093 1152.595626 
L 741.531958 1054.934185 
L 747.360283 1666.480828 
L 747.984099 1326.186155 
L 751.164834 1661.498102 
L 769.512997 1671.674854 
L 773.988512 1846.42114 
L 782.437226 1620.571604 
L 785.148286 1637.049059 
L 803.74126 1760.882913 
L 803.846438 1784.644912 
L 806.842205 1827.411541 
L 807.409805 1821.498989 
L 808.840591 1787.029807 
L 810.371116 1825.076331 
L 817.078949 1310.088115 
L 820.732986 1935.899411 
L 823.411405 1862.116728 
L 824.044288 1832.067054 
L 829.475474 1474.794911 
L 832.558285 1906.81318 
L 836.986651 1909.640725 
L 840.618927 1412.814747 
L 846.338448 1518.289429 
L 846.474454 1809.216781 
L 848.02674 1845.124353 
L 848.452893 1571.122301 
L 850.538324 1775.589765 
L 851.590106 842.748109 
L 860.051514 1753.529488 
L 862.425278 1409.851245 
L 868.041434 1867.121568 
L 872.079915 1775.768632 
L 882.349301 1729.531484 
L 883.205234 1157.469755 
L 894.448426 1872.078633 
L 895.293478 1777.974659 
L 897.134098 819.166697 
L 897.721645 1895.430727 
L 902.554404 1905.089551 
L 906.384342 1765.201713 
L 914.947302 1479.036229 
L 923.386949 1854.999308 
L 924.315419 1796.755706 
L 925.666415 1738.47484 
L 928.428251 1628.552871 
L 929.276931 1634.699976 
L 940.70509 1753.566752 
L 952.347234 1771.324472 
L 954.768147 1843.356008 
L 955.234195 1389.870298 
L 956.99321 1023.056091 
L 980.12517 1826.715946 
L 985.792101 1229.597916 
L 989.047186 1835.323926 
L 993.181779 1739.704551 
L 997.693563 1687.782275 
L 1001.808208 1917.707813 
L 1002.927087 1478.426455 
L 1008.220454 1710.506528 
L 1020.120102 1666.962394 
L 1043.748938 1775.549113 
L 1057.902665 1698.195343 
L 1059.545622 1467.369215 
L 1063.524261 1246.909697 
L 1072.440837 1688.798565 
L 1099.620345 1555.583221 
L 1119.756538 1756.883246 
L 1127.751897 1206.2334 
L 1131.491165 1527.411652 
L 1157.005955 359.32 
L 1183.407507 1787.141599 
L 1195.533833 938.566225 
L 1270.114273 1619.934729 
L 1323.845846 1807.438047 
L 1350.92743 1671.325146 
L 1748.495739 1748.841002 
L 1748.495739 1748.841002 
" style="fill:none;stroke:#0000ff;stroke-linecap:square;stroke-width:1.5;"/>
   </g>
   <g id="patch_3">
    <path d="M 44.059375 2052.76 
L 44.059375 278.68 
" style="fill:none;stroke:#000000;stroke-linecap:square;stroke-linejoin:miter;stroke-width:0.8;"/>
   </g>
   <g id="patch_4">
    <path d="M 1829.659375 2052.76 
L 1829.659375 278.68 
" style="fill:none;stroke:#000000;stroke-linecap:square;stroke-linejoin:miter;stroke-width:0.8;"/>
   </g>
   <g id="patch_5">
    <path d="M 44.059375 2052.76 
L 1829.659375 2052.76 
" style="fill:none;stroke:#000000;stroke-linecap:square;stroke-linejoin:miter;stroke-width:0.8;"/>
   </g>
   <g id="patch_6">
    <path d="M 44.059375 278.68 
L 1829.659375 278.68 
" style="fill:none;stroke:#000000;stroke-linecap:square;stroke-linejoin:miter;stroke-width:0.8;"/>
   </g>
   <g id="text_16">
    <text style="font-family:DejaVu Sans;font-size:12px;font-stretch:normal;font-style:normal;font-weight:normal;text-anchor:middle;" transform="rotate(-0, 936.859375, 272.68)" x="936.859375" y="272.68">wind_speed-&gt;ping_night</text>
   </g>
  </g>
  <g id="legend_1">
   <g id="patch_7">
    <path d="M 1947.971875 22.95625 
L 2055.259375 22.95625 
Q 2057.259375 22.95625 2057.259375 20.95625 
L 2057.259375 7 
Q 2057.259375 5 2055.259375 5 
L 1947.971875 5 
Q 1945.971875 5 1945.971875 7 
L 1945.971875 20.95625 
Q 1945.971875 22.95625 1947.971875 22.95625 
z
" style="fill:#ffffff;opacity:0.8;stroke:#cccccc;stroke-linejoin:miter;"/>
   </g>
   <g id="line2d_15">
    <path d="M 1949.971875 13.098438 
L 1969.971875 13.098438 
" style="fill:none;stroke:#0000ff;stroke-linecap:square;stroke-width:1.5;"/>
   </g>
   <g id="line2d_16"/>
   <g id="text_17">
    <text style="font-family:DejaVu Sans;font-size:10px;font-stretch:normal;font-style:normal;font-weight:normal;text-anchor:start;" transform="rotate(-0, 1977.971875, 16.598438)" x="1977.971875" y="16.598438">ping_night[ms]</text>
   </g>
  </g>
 </g>
 <defs>
  <clipPath id="pb14614583a">
   <rect height="1774.08" width="1785.6" x="44.059375" y="278.68"/>
  </clipPath>
 </defs>
</svg>
