<?xml version="1.0" encoding="utf-8" standalone="no"?>
<!DOCTYPE svg PUBLIC "-//W3C//DTD SVG 1.1//EN"
  "http://www.w3.org/Graphics/SVG/1.1/DTD/svg11.dtd">
<!-- Created with matplotlib (https://matplotlib.org/) -->
<svg height="345.6pt" version="1.1" viewBox="0 0 460.8 345.6" width="460.8pt" xmlns="http://www.w3.org/2000/svg" xmlns:xlink="http://www.w3.org/1999/xlink">
 <metadata>
  <rdf:RDF xmlns:cc="http://creativecommons.org/ns#" xmlns:dc="http://purl.org/dc/elements/1.1/" xmlns:rdf="http://www.w3.org/1999/02/22-rdf-syntax-ns#">
   <cc:Work>
    <dc:type rdf:resource="http://purl.org/dc/dcmitype/StillImage"/>
    <dc:date>2022-07-08T16:17:49.584440</dc:date>
    <dc:format>image/svg+xml</dc:format>
    <dc:creator>
     <cc:Agent>
      <dc:title>Matplotlib v3.3.2, https://matplotlib.org/</dc:title>
     </cc:Agent>
    </dc:creator>
   </cc:Work>
  </rdf:RDF>
 </metadata>
 <defs>
  <style type="text/css">*{stroke-linecap:butt;stroke-linejoin:round;}</style>
 </defs>
 <g id="figure_1">
  <g id="patch_1">
   <path d="M 0 345.6 
L 460.8 345.6 
L 460.8 0 
L 0 0 
z
" style="fill:#ffffff;"/>
  </g>
  <g id="axes_1">
   <g id="patch_2">
    <path d="M 57.6 307.584 
L 414.72 307.584 
L 414.72 41.472 
L 57.6 41.472 
z
" style="fill:#ffffff;"/>
   </g>
   <g id="matplotlib.axis_1">
    <g id="xtick_1">
     <g id="line2d_1">
      <defs>
       <path d="M 0 0 
L 0 3.5 
" id="m5c37d8b356" style="stroke:#000000;stroke-width:0.8;"/>
      </defs>
      <g>
       <use style="stroke:#000000;stroke-width:0.8;" x="70.640899" xlink:href="#m5c37d8b356" y="307.584"/>
      </g>
     </g>
     <g id="text_1">
      <!-- 0 -->
      <g transform="translate(67.459649 322.182437)scale(0.1 -0.1)">
       <defs>
        <path d="M 31.78125 66.40625 
Q 24.171875 66.40625 20.328125 58.90625 
Q 16.5 51.421875 16.5 36.375 
Q 16.5 21.390625 20.328125 13.890625 
Q 24.171875 6.390625 31.78125 6.390625 
Q 39.453125 6.390625 43.28125 13.890625 
Q 47.125 21.390625 47.125 36.375 
Q 47.125 51.421875 43.28125 58.90625 
Q 39.453125 66.40625 31.78125 66.40625 
z
M 31.78125 74.21875 
Q 44.046875 74.21875 50.515625 64.515625 
Q 56.984375 54.828125 56.984375 36.375 
Q 56.984375 17.96875 50.515625 8.265625 
Q 44.046875 -1.421875 31.78125 -1.421875 
Q 19.53125 -1.421875 13.0625 8.265625 
Q 6.59375 17.96875 6.59375 36.375 
Q 6.59375 54.828125 13.0625 64.515625 
Q 19.53125 74.21875 31.78125 74.21875 
z
" id="DejaVuSans-48"/>
       </defs>
       <use xlink:href="#DejaVuSans-48"/>
      </g>
     </g>
    </g>
    <g id="xtick_2">
     <g id="line2d_2">
      <g>
       <use style="stroke:#000000;stroke-width:0.8;" x="116.238447" xlink:href="#m5c37d8b356" y="307.584"/>
      </g>
     </g>
     <g id="text_2">
      <!-- 2 -->
      <g transform="translate(113.057197 322.182437)scale(0.1 -0.1)">
       <defs>
        <path d="M 19.1875 8.296875 
L 53.609375 8.296875 
L 53.609375 0 
L 7.328125 0 
L 7.328125 8.296875 
Q 12.9375 14.109375 22.625 23.890625 
Q 32.328125 33.6875 34.8125 36.53125 
Q 39.546875 41.84375 41.421875 45.53125 
Q 43.3125 49.21875 43.3125 52.78125 
Q 43.3125 58.59375 39.234375 62.25 
Q 35.15625 65.921875 28.609375 65.921875 
Q 23.96875 65.921875 18.8125 64.3125 
Q 13.671875 62.703125 7.8125 59.421875 
L 7.8125 69.390625 
Q 13.765625 71.78125 18.9375 73 
Q 24.125 74.21875 28.421875 74.21875 
Q 39.75 74.21875 46.484375 68.546875 
Q 53.21875 62.890625 53.21875 53.421875 
Q 53.21875 48.921875 51.53125 44.890625 
Q 49.859375 40.875 45.40625 35.40625 
Q 44.1875 33.984375 37.640625 27.21875 
Q 31.109375 20.453125 19.1875 8.296875 
z
" id="DejaVuSans-50"/>
       </defs>
       <use xlink:href="#DejaVuSans-50"/>
      </g>
     </g>
    </g>
    <g id="xtick_3">
     <g id="line2d_3">
      <g>
       <use style="stroke:#000000;stroke-width:0.8;" x="161.835996" xlink:href="#m5c37d8b356" y="307.584"/>
      </g>
     </g>
     <g id="text_3">
      <!-- 4 -->
      <g transform="translate(158.654746 322.182437)scale(0.1 -0.1)">
       <defs>
        <path d="M 37.796875 64.3125 
L 12.890625 25.390625 
L 37.796875 25.390625 
z
M 35.203125 72.90625 
L 47.609375 72.90625 
L 47.609375 25.390625 
L 58.015625 25.390625 
L 58.015625 17.1875 
L 47.609375 17.1875 
L 47.609375 0 
L 37.796875 0 
L 37.796875 17.1875 
L 4.890625 17.1875 
L 4.890625 26.703125 
z
" id="DejaVuSans-52"/>
       </defs>
       <use xlink:href="#DejaVuSans-52"/>
      </g>
     </g>
    </g>
    <g id="xtick_4">
     <g id="line2d_4">
      <g>
       <use style="stroke:#000000;stroke-width:0.8;" x="207.433544" xlink:href="#m5c37d8b356" y="307.584"/>
      </g>
     </g>
     <g id="text_4">
      <!-- 6 -->
      <g transform="translate(204.252294 322.182437)scale(0.1 -0.1)">
       <defs>
        <path d="M 33.015625 40.375 
Q 26.375 40.375 22.484375 35.828125 
Q 18.609375 31.296875 18.609375 23.390625 
Q 18.609375 15.53125 22.484375 10.953125 
Q 26.375 6.390625 33.015625 6.390625 
Q 39.65625 6.390625 43.53125 10.953125 
Q 47.40625 15.53125 47.40625 23.390625 
Q 47.40625 31.296875 43.53125 35.828125 
Q 39.65625 40.375 33.015625 40.375 
z
M 52.59375 71.296875 
L 52.59375 62.3125 
Q 48.875 64.0625 45.09375 64.984375 
Q 41.3125 65.921875 37.59375 65.921875 
Q 27.828125 65.921875 22.671875 59.328125 
Q 17.53125 52.734375 16.796875 39.40625 
Q 19.671875 43.65625 24.015625 45.921875 
Q 28.375 48.1875 33.59375 48.1875 
Q 44.578125 48.1875 50.953125 41.515625 
Q 57.328125 34.859375 57.328125 23.390625 
Q 57.328125 12.15625 50.6875 5.359375 
Q 44.046875 -1.421875 33.015625 -1.421875 
Q 20.359375 -1.421875 13.671875 8.265625 
Q 6.984375 17.96875 6.984375 36.375 
Q 6.984375 53.65625 15.1875 63.9375 
Q 23.390625 74.21875 37.203125 74.21875 
Q 40.921875 74.21875 44.703125 73.484375 
Q 48.484375 72.75 52.59375 71.296875 
z
" id="DejaVuSans-54"/>
       </defs>
       <use xlink:href="#DejaVuSans-54"/>
      </g>
     </g>
    </g>
    <g id="xtick_5">
     <g id="line2d_5">
      <g>
       <use style="stroke:#000000;stroke-width:0.8;" x="253.031093" xlink:href="#m5c37d8b356" y="307.584"/>
      </g>
     </g>
     <g id="text_5">
      <!-- 8 -->
      <g transform="translate(249.849843 322.182437)scale(0.1 -0.1)">
       <defs>
        <path d="M 31.78125 34.625 
Q 24.75 34.625 20.71875 30.859375 
Q 16.703125 27.09375 16.703125 20.515625 
Q 16.703125 13.921875 20.71875 10.15625 
Q 24.75 6.390625 31.78125 6.390625 
Q 38.8125 6.390625 42.859375 10.171875 
Q 46.921875 13.96875 46.921875 20.515625 
Q 46.921875 27.09375 42.890625 30.859375 
Q 38.875 34.625 31.78125 34.625 
z
M 21.921875 38.8125 
Q 15.578125 40.375 12.03125 44.71875 
Q 8.5 49.078125 8.5 55.328125 
Q 8.5 64.0625 14.71875 69.140625 
Q 20.953125 74.21875 31.78125 74.21875 
Q 42.671875 74.21875 48.875 69.140625 
Q 55.078125 64.0625 55.078125 55.328125 
Q 55.078125 49.078125 51.53125 44.71875 
Q 48 40.375 41.703125 38.8125 
Q 48.828125 37.15625 52.796875 32.3125 
Q 56.78125 27.484375 56.78125 20.515625 
Q 56.78125 9.90625 50.3125 4.234375 
Q 43.84375 -1.421875 31.78125 -1.421875 
Q 19.734375 -1.421875 13.25 4.234375 
Q 6.78125 9.90625 6.78125 20.515625 
Q 6.78125 27.484375 10.78125 32.3125 
Q 14.796875 37.15625 21.921875 38.8125 
z
M 18.3125 54.390625 
Q 18.3125 48.734375 21.84375 45.5625 
Q 25.390625 42.390625 31.78125 42.390625 
Q 38.140625 42.390625 41.71875 45.5625 
Q 45.3125 48.734375 45.3125 54.390625 
Q 45.3125 60.0625 41.71875 63.234375 
Q 38.140625 66.40625 31.78125 66.40625 
Q 25.390625 66.40625 21.84375 63.234375 
Q 18.3125 60.0625 18.3125 54.390625 
z
" id="DejaVuSans-56"/>
       </defs>
       <use xlink:href="#DejaVuSans-56"/>
      </g>
     </g>
    </g>
    <g id="xtick_6">
     <g id="line2d_6">
      <g>
       <use style="stroke:#000000;stroke-width:0.8;" x="298.628641" xlink:href="#m5c37d8b356" y="307.584"/>
      </g>
     </g>
     <g id="text_6">
      <!-- 10 -->
      <g transform="translate(292.266141 322.182437)scale(0.1 -0.1)">
       <defs>
        <path d="M 12.40625 8.296875 
L 28.515625 8.296875 
L 28.515625 63.921875 
L 10.984375 60.40625 
L 10.984375 69.390625 
L 28.421875 72.90625 
L 38.28125 72.90625 
L 38.28125 8.296875 
L 54.390625 8.296875 
L 54.390625 0 
L 12.40625 0 
z
" id="DejaVuSans-49"/>
       </defs>
       <use xlink:href="#DejaVuSans-49"/>
       <use x="63.623047" xlink:href="#DejaVuSans-48"/>
      </g>
     </g>
    </g>
    <g id="xtick_7">
     <g id="line2d_7">
      <g>
       <use style="stroke:#000000;stroke-width:0.8;" x="344.22619" xlink:href="#m5c37d8b356" y="307.584"/>
      </g>
     </g>
     <g id="text_7">
      <!-- 12 -->
      <g transform="translate(337.86369 322.182437)scale(0.1 -0.1)">
       <use xlink:href="#DejaVuSans-49"/>
       <use x="63.623047" xlink:href="#DejaVuSans-50"/>
      </g>
     </g>
    </g>
    <g id="xtick_8">
     <g id="line2d_8">
      <g>
       <use style="stroke:#000000;stroke-width:0.8;" x="389.823739" xlink:href="#m5c37d8b356" y="307.584"/>
      </g>
     </g>
     <g id="text_8">
      <!-- 14 -->
      <g transform="translate(383.461239 322.182437)scale(0.1 -0.1)">
       <use xlink:href="#DejaVuSans-49"/>
       <use x="63.623047" xlink:href="#DejaVuSans-52"/>
      </g>
     </g>
    </g>
    <g id="text_9">
     <!-- wind_speed from OpenWeatherMap -->
     <g transform="translate(146.962344 335.860562)scale(0.1 -0.1)">
      <defs>
       <path d="M 4.203125 54.6875 
L 13.1875 54.6875 
L 24.421875 12.015625 
L 35.59375 54.6875 
L 46.1875 54.6875 
L 57.421875 12.015625 
L 68.609375 54.6875 
L 77.59375 54.6875 
L 63.28125 0 
L 52.6875 0 
L 40.921875 44.828125 
L 29.109375 0 
L 18.5 0 
z
" id="DejaVuSans-119"/>
       <path d="M 9.421875 54.6875 
L 18.40625 54.6875 
L 18.40625 0 
L 9.421875 0 
z
M 9.421875 75.984375 
L 18.40625 75.984375 
L 18.40625 64.59375 
L 9.421875 64.59375 
z
" id="DejaVuSans-105"/>
       <path d="M 54.890625 33.015625 
L 54.890625 0 
L 45.90625 0 
L 45.90625 32.71875 
Q 45.90625 40.484375 42.875 44.328125 
Q 39.84375 48.1875 33.796875 48.1875 
Q 26.515625 48.1875 22.3125 43.546875 
Q 18.109375 38.921875 18.109375 30.90625 
L 18.109375 0 
L 9.078125 0 
L 9.078125 54.6875 
L 18.109375 54.6875 
L 18.109375 46.1875 
Q 21.34375 51.125 25.703125 53.5625 
Q 30.078125 56 35.796875 56 
Q 45.21875 56 50.046875 50.171875 
Q 54.890625 44.34375 54.890625 33.015625 
z
" id="DejaVuSans-110"/>
       <path d="M 45.40625 46.390625 
L 45.40625 75.984375 
L 54.390625 75.984375 
L 54.390625 0 
L 45.40625 0 
L 45.40625 8.203125 
Q 42.578125 3.328125 38.25 0.953125 
Q 33.9375 -1.421875 27.875 -1.421875 
Q 17.96875 -1.421875 11.734375 6.484375 
Q 5.515625 14.40625 5.515625 27.296875 
Q 5.515625 40.1875 11.734375 48.09375 
Q 17.96875 56 27.875 56 
Q 33.9375 56 38.25 53.625 
Q 42.578125 51.265625 45.40625 46.390625 
z
M 14.796875 27.296875 
Q 14.796875 17.390625 18.875 11.75 
Q 22.953125 6.109375 30.078125 6.109375 
Q 37.203125 6.109375 41.296875 11.75 
Q 45.40625 17.390625 45.40625 27.296875 
Q 45.40625 37.203125 41.296875 42.84375 
Q 37.203125 48.484375 30.078125 48.484375 
Q 22.953125 48.484375 18.875 42.84375 
Q 14.796875 37.203125 14.796875 27.296875 
z
" id="DejaVuSans-100"/>
       <path d="M 50.984375 -16.609375 
L 50.984375 -23.578125 
L -0.984375 -23.578125 
L -0.984375 -16.609375 
z
" id="DejaVuSans-95"/>
       <path d="M 44.28125 53.078125 
L 44.28125 44.578125 
Q 40.484375 46.53125 36.375 47.5 
Q 32.28125 48.484375 27.875 48.484375 
Q 21.1875 48.484375 17.84375 46.4375 
Q 14.5 44.390625 14.5 40.28125 
Q 14.5 37.15625 16.890625 35.375 
Q 19.28125 33.59375 26.515625 31.984375 
L 29.59375 31.296875 
Q 39.15625 29.25 43.1875 25.515625 
Q 47.21875 21.78125 47.21875 15.09375 
Q 47.21875 7.46875 41.1875 3.015625 
Q 35.15625 -1.421875 24.609375 -1.421875 
Q 20.21875 -1.421875 15.453125 -0.5625 
Q 10.6875 0.296875 5.421875 2 
L 5.421875 11.28125 
Q 10.40625 8.6875 15.234375 7.390625 
Q 20.0625 6.109375 24.8125 6.109375 
Q 31.15625 6.109375 34.5625 8.28125 
Q 37.984375 10.453125 37.984375 14.40625 
Q 37.984375 18.0625 35.515625 20.015625 
Q 33.0625 21.96875 24.703125 23.78125 
L 21.578125 24.515625 
Q 13.234375 26.265625 9.515625 29.90625 
Q 5.8125 33.546875 5.8125 39.890625 
Q 5.8125 47.609375 11.28125 51.796875 
Q 16.75 56 26.8125 56 
Q 31.78125 56 36.171875 55.265625 
Q 40.578125 54.546875 44.28125 53.078125 
z
" id="DejaVuSans-115"/>
       <path d="M 18.109375 8.203125 
L 18.109375 -20.796875 
L 9.078125 -20.796875 
L 9.078125 54.6875 
L 18.109375 54.6875 
L 18.109375 46.390625 
Q 20.953125 51.265625 25.265625 53.625 
Q 29.59375 56 35.59375 56 
Q 45.5625 56 51.78125 48.09375 
Q 58.015625 40.1875 58.015625 27.296875 
Q 58.015625 14.40625 51.78125 6.484375 
Q 45.5625 -1.421875 35.59375 -1.421875 
Q 29.59375 -1.421875 25.265625 0.953125 
Q 20.953125 3.328125 18.109375 8.203125 
z
M 48.6875 27.296875 
Q 48.6875 37.203125 44.609375 42.84375 
Q 40.53125 48.484375 33.40625 48.484375 
Q 26.265625 48.484375 22.1875 42.84375 
Q 18.109375 37.203125 18.109375 27.296875 
Q 18.109375 17.390625 22.1875 11.75 
Q 26.265625 6.109375 33.40625 6.109375 
Q 40.53125 6.109375 44.609375 11.75 
Q 48.6875 17.390625 48.6875 27.296875 
z
" id="DejaVuSans-112"/>
       <path d="M 56.203125 29.59375 
L 56.203125 25.203125 
L 14.890625 25.203125 
Q 15.484375 15.921875 20.484375 11.0625 
Q 25.484375 6.203125 34.421875 6.203125 
Q 39.59375 6.203125 44.453125 7.46875 
Q 49.3125 8.734375 54.109375 11.28125 
L 54.109375 2.78125 
Q 49.265625 0.734375 44.1875 -0.34375 
Q 39.109375 -1.421875 33.890625 -1.421875 
Q 20.796875 -1.421875 13.15625 6.1875 
Q 5.515625 13.8125 5.515625 26.8125 
Q 5.515625 40.234375 12.765625 48.109375 
Q 20.015625 56 32.328125 56 
Q 43.359375 56 49.78125 48.890625 
Q 56.203125 41.796875 56.203125 29.59375 
z
M 47.21875 32.234375 
Q 47.125 39.59375 43.09375 43.984375 
Q 39.0625 48.390625 32.421875 48.390625 
Q 24.90625 48.390625 20.390625 44.140625 
Q 15.875 39.890625 15.1875 32.171875 
z
" id="DejaVuSans-101"/>
       <path id="DejaVuSans-32"/>
       <path d="M 37.109375 75.984375 
L 37.109375 68.5 
L 28.515625 68.5 
Q 23.6875 68.5 21.796875 66.546875 
Q 19.921875 64.59375 19.921875 59.515625 
L 19.921875 54.6875 
L 34.71875 54.6875 
L 34.71875 47.703125 
L 19.921875 47.703125 
L 19.921875 0 
L 10.890625 0 
L 10.890625 47.703125 
L 2.296875 47.703125 
L 2.296875 54.6875 
L 10.890625 54.6875 
L 10.890625 58.5 
Q 10.890625 67.625 15.140625 71.796875 
Q 19.390625 75.984375 28.609375 75.984375 
z
" id="DejaVuSans-102"/>
       <path d="M 41.109375 46.296875 
Q 39.59375 47.171875 37.8125 47.578125 
Q 36.03125 48 33.890625 48 
Q 26.265625 48 22.1875 43.046875 
Q 18.109375 38.09375 18.109375 28.8125 
L 18.109375 0 
L 9.078125 0 
L 9.078125 54.6875 
L 18.109375 54.6875 
L 18.109375 46.1875 
Q 20.953125 51.171875 25.484375 53.578125 
Q 30.03125 56 36.53125 56 
Q 37.453125 56 38.578125 55.875 
Q 39.703125 55.765625 41.0625 55.515625 
z
" id="DejaVuSans-114"/>
       <path d="M 30.609375 48.390625 
Q 23.390625 48.390625 19.1875 42.75 
Q 14.984375 37.109375 14.984375 27.296875 
Q 14.984375 17.484375 19.15625 11.84375 
Q 23.34375 6.203125 30.609375 6.203125 
Q 37.796875 6.203125 41.984375 11.859375 
Q 46.1875 17.53125 46.1875 27.296875 
Q 46.1875 37.015625 41.984375 42.703125 
Q 37.796875 48.390625 30.609375 48.390625 
z
M 30.609375 56 
Q 42.328125 56 49.015625 48.375 
Q 55.71875 40.765625 55.71875 27.296875 
Q 55.71875 13.875 49.015625 6.21875 
Q 42.328125 -1.421875 30.609375 -1.421875 
Q 18.84375 -1.421875 12.171875 6.21875 
Q 5.515625 13.875 5.515625 27.296875 
Q 5.515625 40.765625 12.171875 48.375 
Q 18.84375 56 30.609375 56 
z
" id="DejaVuSans-111"/>
       <path d="M 52 44.1875 
Q 55.375 50.25 60.0625 53.125 
Q 64.75 56 71.09375 56 
Q 79.640625 56 84.28125 50.015625 
Q 88.921875 44.046875 88.921875 33.015625 
L 88.921875 0 
L 79.890625 0 
L 79.890625 32.71875 
Q 79.890625 40.578125 77.09375 44.375 
Q 74.3125 48.1875 68.609375 48.1875 
Q 61.625 48.1875 57.5625 43.546875 
Q 53.515625 38.921875 53.515625 30.90625 
L 53.515625 0 
L 44.484375 0 
L 44.484375 32.71875 
Q 44.484375 40.625 41.703125 44.40625 
Q 38.921875 48.1875 33.109375 48.1875 
Q 26.21875 48.1875 22.15625 43.53125 
Q 18.109375 38.875 18.109375 30.90625 
L 18.109375 0 
L 9.078125 0 
L 9.078125 54.6875 
L 18.109375 54.6875 
L 18.109375 46.1875 
Q 21.1875 51.21875 25.484375 53.609375 
Q 29.78125 56 35.6875 56 
Q 41.65625 56 45.828125 52.96875 
Q 50 49.953125 52 44.1875 
z
" id="DejaVuSans-109"/>
       <path d="M 39.40625 66.21875 
Q 28.65625 66.21875 22.328125 58.203125 
Q 16.015625 50.203125 16.015625 36.375 
Q 16.015625 22.609375 22.328125 14.59375 
Q 28.65625 6.59375 39.40625 6.59375 
Q 50.140625 6.59375 56.421875 14.59375 
Q 62.703125 22.609375 62.703125 36.375 
Q 62.703125 50.203125 56.421875 58.203125 
Q 50.140625 66.21875 39.40625 66.21875 
z
M 39.40625 74.21875 
Q 54.734375 74.21875 63.90625 63.9375 
Q 73.09375 53.65625 73.09375 36.375 
Q 73.09375 19.140625 63.90625 8.859375 
Q 54.734375 -1.421875 39.40625 -1.421875 
Q 24.03125 -1.421875 14.8125 8.828125 
Q 5.609375 19.09375 5.609375 36.375 
Q 5.609375 53.65625 14.8125 63.9375 
Q 24.03125 74.21875 39.40625 74.21875 
z
" id="DejaVuSans-79"/>
       <path d="M 3.328125 72.90625 
L 13.28125 72.90625 
L 28.609375 11.28125 
L 43.890625 72.90625 
L 54.984375 72.90625 
L 70.3125 11.28125 
L 85.59375 72.90625 
L 95.609375 72.90625 
L 77.296875 0 
L 64.890625 0 
L 49.515625 63.28125 
L 33.984375 0 
L 21.578125 0 
z
" id="DejaVuSans-87"/>
       <path d="M 34.28125 27.484375 
Q 23.390625 27.484375 19.1875 25 
Q 14.984375 22.515625 14.984375 16.5 
Q 14.984375 11.71875 18.140625 8.90625 
Q 21.296875 6.109375 26.703125 6.109375 
Q 34.1875 6.109375 38.703125 11.40625 
Q 43.21875 16.703125 43.21875 25.484375 
L 43.21875 27.484375 
z
M 52.203125 31.203125 
L 52.203125 0 
L 43.21875 0 
L 43.21875 8.296875 
Q 40.140625 3.328125 35.546875 0.953125 
Q 30.953125 -1.421875 24.3125 -1.421875 
Q 15.921875 -1.421875 10.953125 3.296875 
Q 6 8.015625 6 15.921875 
Q 6 25.140625 12.171875 29.828125 
Q 18.359375 34.515625 30.609375 34.515625 
L 43.21875 34.515625 
L 43.21875 35.40625 
Q 43.21875 41.609375 39.140625 45 
Q 35.0625 48.390625 27.6875 48.390625 
Q 23 48.390625 18.546875 47.265625 
Q 14.109375 46.140625 10.015625 43.890625 
L 10.015625 52.203125 
Q 14.9375 54.109375 19.578125 55.046875 
Q 24.21875 56 28.609375 56 
Q 40.484375 56 46.34375 49.84375 
Q 52.203125 43.703125 52.203125 31.203125 
z
" id="DejaVuSans-97"/>
       <path d="M 18.3125 70.21875 
L 18.3125 54.6875 
L 36.8125 54.6875 
L 36.8125 47.703125 
L 18.3125 47.703125 
L 18.3125 18.015625 
Q 18.3125 11.328125 20.140625 9.421875 
Q 21.96875 7.515625 27.59375 7.515625 
L 36.8125 7.515625 
L 36.8125 0 
L 27.59375 0 
Q 17.1875 0 13.234375 3.875 
Q 9.28125 7.765625 9.28125 18.015625 
L 9.28125 47.703125 
L 2.6875 47.703125 
L 2.6875 54.6875 
L 9.28125 54.6875 
L 9.28125 70.21875 
z
" id="DejaVuSans-116"/>
       <path d="M 54.890625 33.015625 
L 54.890625 0 
L 45.90625 0 
L 45.90625 32.71875 
Q 45.90625 40.484375 42.875 44.328125 
Q 39.84375 48.1875 33.796875 48.1875 
Q 26.515625 48.1875 22.3125 43.546875 
Q 18.109375 38.921875 18.109375 30.90625 
L 18.109375 0 
L 9.078125 0 
L 9.078125 75.984375 
L 18.109375 75.984375 
L 18.109375 46.1875 
Q 21.34375 51.125 25.703125 53.5625 
Q 30.078125 56 35.796875 56 
Q 45.21875 56 50.046875 50.171875 
Q 54.890625 44.34375 54.890625 33.015625 
z
" id="DejaVuSans-104"/>
       <path d="M 9.8125 72.90625 
L 24.515625 72.90625 
L 43.109375 23.296875 
L 61.8125 72.90625 
L 76.515625 72.90625 
L 76.515625 0 
L 66.890625 0 
L 66.890625 64.015625 
L 48.09375 14.015625 
L 38.1875 14.015625 
L 19.390625 64.015625 
L 19.390625 0 
L 9.8125 0 
z
" id="DejaVuSans-77"/>
      </defs>
      <use xlink:href="#DejaVuSans-119"/>
      <use x="81.787109" xlink:href="#DejaVuSans-105"/>
      <use x="109.570312" xlink:href="#DejaVuSans-110"/>
      <use x="172.949219" xlink:href="#DejaVuSans-100"/>
      <use x="236.425781" xlink:href="#DejaVuSans-95"/>
      <use x="286.425781" xlink:href="#DejaVuSans-115"/>
      <use x="338.525391" xlink:href="#DejaVuSans-112"/>
      <use x="402.001953" xlink:href="#DejaVuSans-101"/>
      <use x="463.525391" xlink:href="#DejaVuSans-101"/>
      <use x="525.048828" xlink:href="#DejaVuSans-100"/>
      <use x="588.525391" xlink:href="#DejaVuSans-32"/>
      <use x="620.3125" xlink:href="#DejaVuSans-102"/>
      <use x="655.517578" xlink:href="#DejaVuSans-114"/>
      <use x="694.380859" xlink:href="#DejaVuSans-111"/>
      <use x="755.5625" xlink:href="#DejaVuSans-109"/>
      <use x="852.974609" xlink:href="#DejaVuSans-32"/>
      <use x="884.761719" xlink:href="#DejaVuSans-79"/>
      <use x="963.472656" xlink:href="#DejaVuSans-112"/>
      <use x="1026.949219" xlink:href="#DejaVuSans-101"/>
      <use x="1088.472656" xlink:href="#DejaVuSans-110"/>
      <use x="1151.851562" xlink:href="#DejaVuSans-87"/>
      <use x="1244.853516" xlink:href="#DejaVuSans-101"/>
      <use x="1306.376953" xlink:href="#DejaVuSans-97"/>
      <use x="1367.65625" xlink:href="#DejaVuSans-116"/>
      <use x="1406.865234" xlink:href="#DejaVuSans-104"/>
      <use x="1470.244141" xlink:href="#DejaVuSans-101"/>
      <use x="1531.767578" xlink:href="#DejaVuSans-114"/>
      <use x="1572.880859" xlink:href="#DejaVuSans-77"/>
      <use x="1659.160156" xlink:href="#DejaVuSans-97"/>
      <use x="1720.439453" xlink:href="#DejaVuSans-112"/>
     </g>
    </g>
   </g>
   <g id="matplotlib.axis_2">
    <g id="ytick_1">
     <g id="line2d_9">
      <defs>
       <path d="M 0 0 
L -3.5 0 
" id="mf7c50a0a88" style="stroke:#000000;stroke-width:0.8;"/>
      </defs>
      <g>
       <use style="stroke:#000000;stroke-width:0.8;" x="57.6" xlink:href="#mf7c50a0a88" y="302.865398"/>
      </g>
     </g>
     <g id="text_10">
      <!-- 0 -->
      <g transform="translate(44.2375 306.664617)scale(0.1 -0.1)">
       <use xlink:href="#DejaVuSans-48"/>
      </g>
     </g>
    </g>
    <g id="ytick_2">
     <g id="line2d_10">
      <g>
       <use style="stroke:#000000;stroke-width:0.8;" x="57.6" xlink:href="#mf7c50a0a88" y="245.364245"/>
      </g>
     </g>
     <g id="text_11">
      <!-- 50 -->
      <g transform="translate(37.875 249.163464)scale(0.1 -0.1)">
       <defs>
        <path d="M 10.796875 72.90625 
L 49.515625 72.90625 
L 49.515625 64.59375 
L 19.828125 64.59375 
L 19.828125 46.734375 
Q 21.96875 47.46875 24.109375 47.828125 
Q 26.265625 48.1875 28.421875 48.1875 
Q 40.625 48.1875 47.75 41.5 
Q 54.890625 34.8125 54.890625 23.390625 
Q 54.890625 11.625 47.5625 5.09375 
Q 40.234375 -1.421875 26.90625 -1.421875 
Q 22.3125 -1.421875 17.546875 -0.640625 
Q 12.796875 0.140625 7.71875 1.703125 
L 7.71875 11.625 
Q 12.109375 9.234375 16.796875 8.0625 
Q 21.484375 6.890625 26.703125 6.890625 
Q 35.15625 6.890625 40.078125 11.328125 
Q 45.015625 15.765625 45.015625 23.390625 
Q 45.015625 31 40.078125 35.4375 
Q 35.15625 39.890625 26.703125 39.890625 
Q 22.75 39.890625 18.8125 39.015625 
Q 14.890625 38.140625 10.796875 36.28125 
z
" id="DejaVuSans-53"/>
       </defs>
       <use xlink:href="#DejaVuSans-53"/>
       <use x="63.623047" xlink:href="#DejaVuSans-48"/>
      </g>
     </g>
    </g>
    <g id="ytick_3">
     <g id="line2d_11">
      <g>
       <use style="stroke:#000000;stroke-width:0.8;" x="57.6" xlink:href="#mf7c50a0a88" y="187.863092"/>
      </g>
     </g>
     <g id="text_12">
      <!-- 100 -->
      <g transform="translate(31.5125 191.662311)scale(0.1 -0.1)">
       <use xlink:href="#DejaVuSans-49"/>
       <use x="63.623047" xlink:href="#DejaVuSans-48"/>
       <use x="127.246094" xlink:href="#DejaVuSans-48"/>
      </g>
     </g>
    </g>
    <g id="ytick_4">
     <g id="line2d_12">
      <g>
       <use style="stroke:#000000;stroke-width:0.8;" x="57.6" xlink:href="#mf7c50a0a88" y="130.36194"/>
      </g>
     </g>
     <g id="text_13">
      <!-- 150 -->
      <g transform="translate(31.5125 134.161158)scale(0.1 -0.1)">
       <use xlink:href="#DejaVuSans-49"/>
       <use x="63.623047" xlink:href="#DejaVuSans-53"/>
       <use x="127.246094" xlink:href="#DejaVuSans-48"/>
      </g>
     </g>
    </g>
    <g id="ytick_5">
     <g id="line2d_13">
      <g>
       <use style="stroke:#000000;stroke-width:0.8;" x="57.6" xlink:href="#mf7c50a0a88" y="72.860787"/>
      </g>
     </g>
     <g id="text_14">
      <!-- 200 -->
      <g transform="translate(31.5125 76.660006)scale(0.1 -0.1)">
       <use xlink:href="#DejaVuSans-50"/>
       <use x="63.623047" xlink:href="#DejaVuSans-48"/>
       <use x="127.246094" xlink:href="#DejaVuSans-48"/>
      </g>
     </g>
    </g>
   </g>
   <g id="line2d_14">
    <path clip-path="url(#p5f3cd9e3c5)" d="M 73.832727 294.780736 
L 75.656629 288.357857 
L 77.024556 267.03873 
L 77.708519 285.929008 
L 78.392482 294.049321 
L 78.62047 292.929199 
L 79.988396 256.825375 
L 81.356323 279.449778 
L 82.496261 276.589671 
L 83.408212 244.217672 
L 84.548151 286.784626 
L 85.232114 291.343317 
L 86.600041 280.331846 
L 87.056016 291.971229 
L 87.511992 253.400606 
L 87.73998 287.665543 
L 88.195955 288.212954 
L 88.423943 241.815274 
L 88.651931 282.819346 
L 89.563882 292.694594 
L 89.791869 292.661243 
L 90.019857 293.98032 
L 90.247845 251.703172 
L 90.70382 290.915508 
L 91.615771 294.277026 
L 91.843759 270.740654 
L 93.211685 293.151153 
L 93.439673 293.285706 
L 93.667661 291.52042 
L 94.351624 293.376558 
L 94.579612 287.202084 
L 95.263575 279.357777 
L 95.719551 286.728274 
L 95.947538 283.52661 
L 96.175526 294.362127 
L 96.631502 293.961919 
L 96.859489 291.397368 
L 97.315465 292.583042 
L 97.543453 291.895328 
L 97.77144 272.503639 
L 98.227416 294.745085 
L 98.683391 254.08027 
L 98.911379 268.404957 
L 99.595342 291.307666 
L 100.051318 287.969149 
L 100.279305 294.111422 
L 100.735281 276.138862 
L 100.963269 281.326616 
L 101.191256 292.209284 
L 101.419244 267.152582 
L 101.647232 283.961319 
L 101.87522 281.294415 
L 102.331195 284.249975 
L 102.559183 292.327737 
L 102.787171 264.638632 
L 103.015158 294.543831 
L 103.471134 293.731915 
L 103.699122 287.275685 
L 103.927109 293.51111 
L 104.155097 278.153702 
L 104.611073 288.741965 
L 105.295036 286.558071 
L 105.523023 293.645663 
L 106.206987 294.819837 
L 106.434974 293.722715 
L 106.662962 230.967106 
L 106.89095 288.809816 
L 107.118938 265.014689 
L 107.802901 290.904008 
L 108.486864 249.246723 
L 109.170827 293.070652 
L 109.854791 287.706944 
L 110.082778 266.04856 
L 110.310766 290.463549 
L 110.538754 253.58231 
L 110.994729 277.51889 
L 111.222717 246.034709 
L 111.450705 291.02361 
L 111.90668 271.261614 
L 112.134668 286.455719 
L 112.362656 268.237054 
L 112.590644 277.567191 
L 112.818631 294.267826 
L 113.274607 285.708204 
L 113.730582 294.674934 
L 113.95857 292.464589 
L 114.186558 265.000889 
L 114.414545 293.854967 
L 114.642533 286.769675 
L 115.098509 258.891966 
L 115.326496 294.655383 
L 115.554484 292.679644 
L 115.782472 263.178102 
L 116.238447 293.643363 
L 116.466435 294.458729 
L 116.694423 290.147293 
L 116.922411 292.641693 
L 117.150398 282.03158 
L 117.378386 293.061451 
L 117.606374 272.861296 
L 117.834362 286.543121 
L 118.062349 267.637892 
L 118.290337 280.52045 
L 118.518325 282.679043 
L 118.746313 260.5894 
L 119.202288 287.415988 
L 119.430276 260.805605 
L 119.658264 292.348437 
L 119.886251 294.820987 
L 120.114239 292.50254 
L 120.342227 274.896837 
L 120.570215 275.609851 
L 120.798202 274.279275 
L 121.02619 289.49868 
L 121.254178 268.641862 
L 121.482165 258.06625 
L 121.710153 266.715573 
L 121.938141 288.799466 
L 122.166129 291.727425 
L 122.394116 281.756725 
L 122.622104 286.279765 
L 122.850092 275.454598 
L 123.07808 290.790156 
L 123.306067 292.699194 
L 123.534055 286.648923 
L 123.762043 291.074212 
L 123.990031 266.714423 
L 124.218018 292.095432 
L 124.446006 276.789775 
L 124.673994 277.931748 
L 124.901982 210.341443 
L 125.585945 290.848807 
L 125.813933 265.097491 
L 126.04192 294.747385 
L 126.269908 271.324866 
L 126.725884 282.739994 
L 126.953871 249.261673 
L 127.181859 279.560181 
L 127.409847 289.187024 
L 127.637835 275.934158 
L 127.865822 284.789336 
L 128.09381 279.774085 
L 128.321798 294.963589 
L 128.549785 250.11039 
L 128.777773 293.093652 
L 129.005761 270.126542 
L 129.233749 272.880847 
L 129.461736 281.794675 
L 129.689724 261.179362 
L 129.917712 286.952529 
L 130.1457 285.823206 
L 130.373687 275.469549 
L 130.601675 274.894537 
L 130.829663 269.04322 
L 131.057651 287.778245 
L 131.285638 293.662913 
L 131.513626 267.824195 
L 131.969602 262.293735 
L 132.197589 264.629431 
L 132.425577 269.316925 
L 132.653565 293.601962 
L 133.10954 287.083632 
L 133.337528 290.072541 
L 133.565516 281.04141 
L 133.793504 240.082189 
L 134.021491 288.717814 
L 134.249479 287.897848 
L 134.477467 266.54652 
L 134.705455 174.343421 
L 134.933442 265.916307 
L 135.16143 286.831776 
L 135.389418 183.650558 
L 135.617406 275.165943 
L 135.845393 287.9979 
L 136.073381 223.611559 
L 136.529356 286.578771 
L 136.757344 232.408085 
L 136.985332 262.56169 
L 137.21332 271.138562 
L 137.669295 256.888626 
L 137.897283 288.593612 
L 138.353258 278.369907 
L 138.581246 261.903877 
L 138.809234 286.238365 
L 139.037222 248.944267 
L 139.265209 248.791314 
L 139.721185 279.001269 
L 139.949173 270.963758 
L 140.17716 253.511008 
L 140.405148 260.05119 
L 140.633136 275.5466 
L 140.861124 281.968329 
L 141.089111 260.942457 
L 141.317099 261.401317 
L 141.545087 256.298664 
L 142.001062 259.818885 
L 142.22905 278.52746 
L 142.685026 276.874877 
L 143.141001 293.642213 
L 143.368989 276.985279 
L 143.596977 293.041901 
L 143.824964 278.02375 
L 144.052952 238.389355 
L 144.28094 285.152743 
L 144.508927 271.833176 
L 144.736915 285.054991 
L 144.964903 213.428105 
L 145.192891 275.789255 
L 145.420878 278.565411 
L 145.648866 293.0074 
L 145.876854 291.801026 
L 146.104842 273.193653 
L 146.332829 267.869046 
L 146.788805 277.363637 
L 147.016793 293.559411 
L 147.24478 262.015429 
L 147.700756 289.901188 
L 147.928744 290.918958 
L 148.156731 292.852147 
L 148.384719 271.429518 
L 148.612707 265.858806 
L 148.840695 293.408758 
L 149.068682 277.924848 
L 149.29667 290.824657 
L 149.524658 293.682464 
L 149.752646 276.932378 
L 149.980633 293.378858 
L 150.208621 276.610372 
L 150.664597 293.205204 
L 150.892584 287.305586 
L 151.120572 267.944948 
L 151.34856 287.376887 
L 151.576547 250.232293 
L 151.804535 286.300466 
L 152.032523 262.960748 
L 152.260511 267.302085 
L 152.488498 267.442388 
L 152.716486 294.051621 
L 152.944474 286.430418 
L 153.172462 266.089961 
L 153.400449 265.174542 
L 153.628437 273.582361 
L 154.084413 285.082591 
L 154.3124 281.694623 
L 154.540388 265.704703 
L 154.768376 291.805626 
L 154.996364 289.866687 
L 155.452339 294.449529 
L 156.136302 271.377767 
L 156.36429 290.943109 
L 156.592278 283.853217 
L 156.820266 292.041381 
L 157.048253 288.244005 
L 157.276241 276.817376 
L 157.504229 283.04015 
L 157.732217 271.05806 
L 158.188192 268.151952 
L 158.41618 291.97928 
L 158.644168 268.653362 
L 158.872155 290.618802 
L 159.100143 288.156603 
L 159.328131 291.618172 
L 159.556118 287.303286 
L 159.784106 248.061049 
L 160.012094 289.863237 
L 160.240082 252.461037 
L 160.468069 291.051211 
L 160.924045 284.813486 
L 161.152033 289.372177 
L 161.38002 248.732663 
L 161.835996 253.994018 
L 162.291971 291.928679 
L 162.519959 241.579519 
L 162.747947 281.955679 
L 162.975935 291.262815 
L 163.203922 287.972599 
L 163.43191 256.963378 
L 163.659898 294.941739 
L 163.887886 266.108361 
L 164.115873 269.789585 
L 164.343861 286.99738 
L 164.571849 291.353667 
L 164.799837 293.094802 
L 165.027824 288.823616 
L 165.255812 265.770254 
L 165.4838 291.890728 
L 165.939775 254.785234 
L 166.167763 269.54923 
L 166.395751 265.410297 
L 166.623739 288.363607 
L 167.307702 290.785556 
L 167.763677 259.305975 
L 168.44764 294.49553 
L 168.675628 273.158002 
L 168.903616 292.071282 
L 169.131604 266.529269 
L 169.359591 292.744045 
L 169.587579 292.220784 
L 170.043555 263.144752 
L 170.49953 293.752615 
L 170.955506 293.688214 
L 171.183493 268.914417 
L 171.411481 272.472589 
L 171.639469 285.51155 
L 171.867457 288.575211 
L 172.095444 293.368508 
L 172.323432 293.698564 
L 172.779408 283.252905 
L 173.463371 247.868995 
L 173.691359 285.426448 
L 174.147334 293.794016 
L 174.603309 264.55813 
L 174.831297 269.807985 
L 175.059285 290.147293 
L 175.287273 266.272814 
L 175.743248 291.968929 
L 176.199224 275.698403 
L 176.655199 277.993849 
L 177.111175 284.059071 
L 177.56715 255.246393 
L 177.795138 294.587532 
L 178.023126 291.49512 
L 178.251113 237.448636 
L 178.479101 249.718232 
L 178.707089 282.417988 
L 179.163064 276.803575 
L 179.391052 263.962418 
L 179.61904 277.594791 
L 179.847028 272.773895 
L 180.075015 283.170103 
L 180.303003 257.57979 
L 180.758979 294.214924 
L 180.986966 268.916717 
L 181.214954 260.58595 
L 181.67093 293.363907 
L 182.126905 280.849357 
L 182.354893 285.741555 
L 182.58288 278.241104 
L 182.810868 288.087602 
L 183.038856 271.970029 
L 183.494831 291.49282 
L 183.950807 268.730414 
L 184.178795 279.323276 
L 184.406782 269.330726 
L 184.862758 290.345097 
L 185.090746 282.898698 
L 185.318733 290.066791 
L 185.774709 279.372727 
L 186.002697 268.649912 
L 186.230684 276.172213 
L 186.458672 289.943739 
L 186.68666 276.126212 
L 186.914648 293.689364 
L 187.142635 277.578691 
L 187.370623 270.890157 
L 187.598611 279.01852 
L 187.826599 293.239705 
L 188.054586 261.886626 
L 188.282574 282.359337 
L 188.510562 291.48362 
L 188.73855 264.026819 
L 188.966537 289.384828 
L 189.194525 266.924877 
L 189.422513 294.124073 
L 189.650501 281.175963 
L 190.106476 267.665492 
L 190.562451 269.827536 
L 191.018427 288.469409 
L 191.246415 282.265035 
L 191.474402 281.614122 
L 191.930378 274.091821 
L 192.158366 254.508078 
L 192.614341 276.228564 
L 193.070317 224.561478 
L 193.526292 294.058521 
L 193.75428 281.301316 
L 194.438243 292.148333 
L 194.894219 256.846075 
L 195.122206 278.831066 
L 195.350194 289.155973 
L 195.578182 293.96997 
L 195.80617 289.047871 
L 196.034157 250.148341 
L 196.262145 291.48362 
L 196.490133 279.366977 
L 196.718121 282.435238 
L 196.946108 253.642111 
L 197.174096 293.403008 
L 197.402084 280.906858 
L 197.858059 290.871807 
L 198.086047 245.374595 
L 198.314035 251.807824 
L 198.77001 294.335677 
L 198.997998 294.197674 
L 199.225986 258.178952 
L 199.453973 252.619741 
L 199.909949 291.102962 
L 200.137937 293.368508 
L 200.593912 294.282776 
L 200.8219 290.082892 
L 201.505863 233.836414 
L 201.733851 285.393098 
L 201.961839 287.655193 
L 202.189826 274.771485 
L 202.417814 225.762102 
L 202.645802 282.299536 
L 203.101777 274.653032 
L 203.329765 289.51478 
L 203.785741 261.700323 
L 204.013728 281.890127 
L 204.469704 279.807436 
L 204.697692 265.770254 
L 204.925679 280.053541 
L 205.153667 257.534939 
L 205.381655 291.825177 
L 205.609642 293.130453 
L 206.065618 274.04582 
L 206.521593 279.54523 
L 206.749581 287.335487 
L 206.977569 258.244503 
L 207.205557 184.679829 
L 207.433544 249.776884 
L 207.661532 251.619221 
L 207.88952 257.285384 
L 208.345495 250.387546 
L 208.573483 277.51659 
L 208.801471 266.185413 
L 209.029459 267.05598 
L 209.257446 294.923339 
L 209.485434 266.483269 
L 210.169397 292.445039 
L 210.625373 280.787255 
L 210.853361 292.417438 
L 211.081348 292.167883 
L 211.537324 285.704754 
L 211.765312 271.689423 
L 212.221287 287.681643 
L 212.449275 249.362875 
L 212.677263 292.037931 
L 212.90525 178.965364 
L 213.361226 288.315306 
L 213.589213 211.157959 
L 213.817201 285.046941 
L 214.045189 277.360187 
L 214.273177 292.968299 
L 214.729152 253.765164 
L 215.185128 264.499479 
L 216.097079 266.663822 
L 216.553054 253.501808 
L 216.781042 274.400027 
L 217.00903 255.08884 
L 217.237017 284.484579 
L 217.465005 294.165473 
L 217.920981 290.806256 
L 218.148968 284.251125 
L 218.376956 292.916548 
L 218.604944 283.850917 
L 219.060919 295.488 
L 219.288907 272.235684 
L 219.516895 292.247235 
L 219.744883 181.894473 
L 220.200858 282.50999 
L 220.428846 293.085602 
L 220.656834 293.078702 
L 221.340797 289.427378 
L 221.796772 273.764064 
L 222.252748 267.997849 
L 222.480735 273.098201 
L 222.708723 291.913728 
L 222.936711 53.568 
L 223.164699 273.277605 
L 223.620674 292.666993 
L 223.848662 293.611162 
L 224.304637 289.598732 
L 224.532625 290.170293 
L 224.760613 277.888047 
L 224.988601 275.777755 
L 225.216588 295.023391 
L 225.672564 288.280806 
L 225.900552 218.641159 
L 226.356527 287.053731 
L 226.812503 267.185933 
L 227.496466 294.01482 
L 227.724454 271.447918 
L 228.180429 290.99601 
L 228.408417 282.133932 
L 228.864392 290.785556 
L 229.09238 276.890977 
L 229.548355 272.637042 
L 229.776343 262.300635 
L 230.460306 284.827286 
L 230.688294 283.564561 
L 230.916282 293.191404 
L 231.14427 272.143682 
L 231.372257 280.587151 
L 231.600245 259.652132 
L 232.056221 294.738185 
L 232.512196 291.968929 
L 232.968172 281.379517 
L 233.880123 290.337047 
L 234.336098 289.01567 
L 235.020061 277.666093 
L 235.476037 293.284556 
L 235.932012 288.267005 
L 236.387988 269.650432 
L 236.615975 289.927639 
L 237.755914 293.929719 
L 237.983902 290.594652 
L 238.21189 281.602622 
L 238.667865 274.899137 
L 238.895853 259.330125 
L 239.351828 266.375166 
L 239.579816 292.376038 
L 240.035792 287.540191 
L 240.263779 282.840046 
L 241.403718 292.658943 
L 241.631706 283.236804 
L 242.315669 292.175934 
L 242.999632 291.383568 
L 243.455608 291.830927 
L 243.683596 262.217833 
L 244.139571 292.047131 
L 245.507497 291.612422 
L 245.735485 290.454349 
L 246.191461 290.357747 
L 246.419448 287.778245 
L 246.647436 290.722304 
L 247.103412 242.005028 
L 247.331399 260.365146 
L 247.559387 222.688091 
L 248.24335 282.344386 
L 248.927314 274.793335 
L 249.611277 287.925448 
L 250.067252 243.534558 
L 250.29524 286.771975 
L 250.523228 288.805216 
L 251.207191 278.612562 
L 251.435179 255.5638 
L 251.891154 289.452679 
L 252.34713 293.921669 
L 252.803105 260.749254 
L 253.715056 269.331876 
L 253.943044 291.826327 
L 254.171032 293.313306 
L 254.627007 269.143272 
L 255.082983 262.691643 
L 255.31097 292.862497 
L 256.222921 269.692983 
L 256.678897 268.330206 
L 257.818836 293.712364 
L 258.046823 286.656973 
L 258.274811 267.647092 
L 258.730787 293.064901 
L 258.958774 292.819947 
L 259.41475 282.784845 
L 260.782676 267.856396 
L 261.010664 269.088071 
L 261.694627 293.037301 
L 263.290541 287.042231 
L 264.202492 246.511968 
L 265.570419 290.188694 
L 266.938345 249.040869 
L 267.166333 289.680384 
L 267.622308 252.229883 
L 268.534259 232.858894 
L 270.358161 290.186394 
L 275.145904 270.709603 
L 278.56572 286.969779 
L 279.705659 276.495369 
L 281.301573 288.771865 
L 282.669499 290.209394 
L 284.493401 273.107401 
L 288.369193 255.179692 
L 289.965107 280.219144 
L 291.789009 269.822935 
L 297.260715 279.864937 
L 298.400654 280.757355 
L 333.510766 291.895328 
L 398.487273 283.424258 
L 398.487273 283.424258 
" style="fill:none;stroke:#0000ff;stroke-linecap:square;stroke-width:1.5;"/>
   </g>
   <g id="patch_3">
    <path d="M 57.6 307.584 
L 57.6 41.472 
" style="fill:none;stroke:#000000;stroke-linecap:square;stroke-linejoin:miter;stroke-width:0.8;"/>
   </g>
   <g id="patch_4">
    <path d="M 414.72 307.584 
L 414.72 41.472 
" style="fill:none;stroke:#000000;stroke-linecap:square;stroke-linejoin:miter;stroke-width:0.8;"/>
   </g>
   <g id="patch_5">
    <path d="M 57.6 307.584 
L 414.72 307.584 
" style="fill:none;stroke:#000000;stroke-linecap:square;stroke-linejoin:miter;stroke-width:0.8;"/>
   </g>
   <g id="patch_6">
    <path d="M 57.6 41.472 
L 414.72 41.472 
" style="fill:none;stroke:#000000;stroke-linecap:square;stroke-linejoin:miter;stroke-width:0.8;"/>
   </g>
   <g id="text_15">
    <!-- wind_speed-&gt;ping_night -->
    <g transform="translate(162.134062 35.472)scale(0.12 -0.12)">
     <defs>
      <path d="M 4.890625 31.390625 
L 31.203125 31.390625 
L 31.203125 23.390625 
L 4.890625 23.390625 
z
" id="DejaVuSans-45"/>
      <path d="M 10.59375 49.21875 
L 10.59375 58.109375 
L 73.1875 35.40625 
L 73.1875 27.296875 
L 10.59375 4.59375 
L 10.59375 13.484375 
L 60.890625 31.296875 
z
" id="DejaVuSans-62"/>
      <path d="M 45.40625 27.984375 
Q 45.40625 37.75 41.375 43.109375 
Q 37.359375 48.484375 30.078125 48.484375 
Q 22.859375 48.484375 18.828125 43.109375 
Q 14.796875 37.75 14.796875 27.984375 
Q 14.796875 18.265625 18.828125 12.890625 
Q 22.859375 7.515625 30.078125 7.515625 
Q 37.359375 7.515625 41.375 12.890625 
Q 45.40625 18.265625 45.40625 27.984375 
z
M 54.390625 6.78125 
Q 54.390625 -7.171875 48.1875 -13.984375 
Q 42 -20.796875 29.203125 -20.796875 
Q 24.46875 -20.796875 20.265625 -20.09375 
Q 16.0625 -19.390625 12.109375 -17.921875 
L 12.109375 -9.1875 
Q 16.0625 -11.328125 19.921875 -12.34375 
Q 23.78125 -13.375 27.78125 -13.375 
Q 36.625 -13.375 41.015625 -8.765625 
Q 45.40625 -4.15625 45.40625 5.171875 
L 45.40625 9.625 
Q 42.625 4.78125 38.28125 2.390625 
Q 33.9375 0 27.875 0 
Q 17.828125 0 11.671875 7.65625 
Q 5.515625 15.328125 5.515625 27.984375 
Q 5.515625 40.671875 11.671875 48.328125 
Q 17.828125 56 27.875 56 
Q 33.9375 56 38.28125 53.609375 
Q 42.625 51.21875 45.40625 46.390625 
L 45.40625 54.6875 
L 54.390625 54.6875 
z
" id="DejaVuSans-103"/>
     </defs>
     <use xlink:href="#DejaVuSans-119"/>
     <use x="81.787109" xlink:href="#DejaVuSans-105"/>
     <use x="109.570312" xlink:href="#DejaVuSans-110"/>
     <use x="172.949219" xlink:href="#DejaVuSans-100"/>
     <use x="236.425781" xlink:href="#DejaVuSans-95"/>
     <use x="286.425781" xlink:href="#DejaVuSans-115"/>
     <use x="338.525391" xlink:href="#DejaVuSans-112"/>
     <use x="402.001953" xlink:href="#DejaVuSans-101"/>
     <use x="463.525391" xlink:href="#DejaVuSans-101"/>
     <use x="525.048828" xlink:href="#DejaVuSans-100"/>
     <use x="588.525391" xlink:href="#DejaVuSans-45"/>
     <use x="624.609375" xlink:href="#DejaVuSans-62"/>
     <use x="708.398438" xlink:href="#DejaVuSans-112"/>
     <use x="771.875" xlink:href="#DejaVuSans-105"/>
     <use x="799.658203" xlink:href="#DejaVuSans-110"/>
     <use x="863.037109" xlink:href="#DejaVuSans-103"/>
     <use x="926.513672" xlink:href="#DejaVuSans-95"/>
     <use x="976.513672" xlink:href="#DejaVuSans-110"/>
     <use x="1039.892578" xlink:href="#DejaVuSans-105"/>
     <use x="1067.675781" xlink:href="#DejaVuSans-103"/>
     <use x="1131.152344" xlink:href="#DejaVuSans-104"/>
     <use x="1194.53125" xlink:href="#DejaVuSans-116"/>
    </g>
   </g>
  </g>
  <g id="legend_1">
   <g id="patch_7">
    <path d="M 415.451563 22.678125 
L 453.8 22.678125 
Q 455.8 22.678125 455.8 20.678125 
L 455.8 7 
Q 455.8 5 453.8 5 
L 415.451563 5 
Q 413.451563 5 413.451563 7 
L 413.451563 20.678125 
Q 413.451563 22.678125 415.451563 22.678125 
z
" style="fill:#ffffff;opacity:0.8;stroke:#cccccc;stroke-linejoin:miter;"/>
   </g>
   <g id="line2d_15">
    <path d="M 417.451563 13.098438 
L 437.451563 13.098438 
" style="fill:none;stroke:#0000ff;stroke-linecap:square;stroke-width:1.5;"/>
   </g>
   <g id="line2d_16"/>
   <g id="text_16">
    <!-- p -->
    <g transform="translate(445.451563 16.598438)scale(0.1 -0.1)">
     <use xlink:href="#DejaVuSans-112"/>
    </g>
   </g>
  </g>
 </g>
 <defs>
  <clipPath id="p5f3cd9e3c5">
   <rect height="266.112" width="357.12" x="57.6" y="41.472"/>
  </clipPath>
 </defs>
</svg>
