<?xml version="1.0" encoding="utf-8" standalone="no"?>
<!DOCTYPE svg PUBLIC "-//W3C//DTD SVG 1.1//EN"
  "http://www.w3.org/Graphics/SVG/1.1/DTD/svg11.dtd">
<!-- Created with matplotlib (https://matplotlib.org/) -->
<svg height="345.6pt" version="1.1" viewBox="0 0 460.8 345.6" width="460.8pt" xmlns="http://www.w3.org/2000/svg" xmlns:xlink="http://www.w3.org/1999/xlink">
 <metadata>
  <rdf:RDF xmlns:cc="http://creativecommons.org/ns#" xmlns:dc="http://purl.org/dc/elements/1.1/" xmlns:rdf="http://www.w3.org/1999/02/22-rdf-syntax-ns#">
   <cc:Work>
    <dc:type rdf:resource="http://purl.org/dc/dcmitype/StillImage"/>
    <dc:date>2022-07-16T17:57:40.864372</dc:date>
    <dc:format>image/svg+xml</dc:format>
    <dc:creator>
     <cc:Agent>
      <dc:title>Matplotlib v3.3.2, https://matplotlib.org/</dc:title>
     </cc:Agent>
    </dc:creator>
   </cc:Work>
  </rdf:RDF>
 </metadata>
 <defs>
  <style type="text/css">*{stroke-linecap:butt;stroke-linejoin:round;}</style>
 </defs>
 <g id="figure_1">
  <g id="patch_1">
   <path d="M 0 345.6 
L 460.8 345.6 
L 460.8 0 
L 0 0 
z
" style="fill:#ffffff;"/>
  </g>
  <g id="axes_1">
   <g id="patch_2">
    <path d="M 57.6 307.584 
L 414.72 307.584 
L 414.72 41.472 
L 57.6 41.472 
z
" style="fill:#ffffff;"/>
   </g>
   <g id="matplotlib.axis_1">
    <g id="xtick_1">
     <g id="line2d_1">
      <defs>
       <path d="M 0 0 
L 0 3.5 
" id="m3793cfe952" style="stroke:#000000;stroke-width:0.8;"/>
      </defs>
      <g>
       <use style="stroke:#000000;stroke-width:0.8;" x="62.798961" xlink:href="#m3793cfe952" y="307.584"/>
      </g>
     </g>
     <g id="text_1">
      <!-- 5.0 -->
      <g transform="translate(54.847399 322.182437)scale(0.1 -0.1)">
       <defs>
        <path d="M 10.796875 72.90625 
L 49.515625 72.90625 
L 49.515625 64.59375 
L 19.828125 64.59375 
L 19.828125 46.734375 
Q 21.96875 47.46875 24.109375 47.828125 
Q 26.265625 48.1875 28.421875 48.1875 
Q 40.625 48.1875 47.75 41.5 
Q 54.890625 34.8125 54.890625 23.390625 
Q 54.890625 11.625 47.5625 5.09375 
Q 40.234375 -1.421875 26.90625 -1.421875 
Q 22.3125 -1.421875 17.546875 -0.640625 
Q 12.796875 0.140625 7.71875 1.703125 
L 7.71875 11.625 
Q 12.109375 9.234375 16.796875 8.0625 
Q 21.484375 6.890625 26.703125 6.890625 
Q 35.15625 6.890625 40.078125 11.328125 
Q 45.015625 15.765625 45.015625 23.390625 
Q 45.015625 31 40.078125 35.4375 
Q 35.15625 39.890625 26.703125 39.890625 
Q 22.75 39.890625 18.8125 39.015625 
Q 14.890625 38.140625 10.796875 36.28125 
z
" id="DejaVuSans-53"/>
        <path d="M 10.6875 12.40625 
L 21 12.40625 
L 21 0 
L 10.6875 0 
z
" id="DejaVuSans-46"/>
        <path d="M 31.78125 66.40625 
Q 24.171875 66.40625 20.328125 58.90625 
Q 16.5 51.421875 16.5 36.375 
Q 16.5 21.390625 20.328125 13.890625 
Q 24.171875 6.390625 31.78125 6.390625 
Q 39.453125 6.390625 43.28125 13.890625 
Q 47.125 21.390625 47.125 36.375 
Q 47.125 51.421875 43.28125 58.90625 
Q 39.453125 66.40625 31.78125 66.40625 
z
M 31.78125 74.21875 
Q 44.046875 74.21875 50.515625 64.515625 
Q 56.984375 54.828125 56.984375 36.375 
Q 56.984375 17.96875 50.515625 8.265625 
Q 44.046875 -1.421875 31.78125 -1.421875 
Q 19.53125 -1.421875 13.0625 8.265625 
Q 6.59375 17.96875 6.59375 36.375 
Q 6.59375 54.828125 13.0625 64.515625 
Q 19.53125 74.21875 31.78125 74.21875 
z
" id="DejaVuSans-48"/>
       </defs>
       <use xlink:href="#DejaVuSans-53"/>
       <use x="63.623047" xlink:href="#DejaVuSans-46"/>
       <use x="95.410156" xlink:href="#DejaVuSans-48"/>
      </g>
     </g>
    </g>
    <g id="xtick_2">
     <g id="line2d_2">
      <g>
       <use style="stroke:#000000;stroke-width:0.8;" x="109.552208" xlink:href="#m3793cfe952" y="307.584"/>
      </g>
     </g>
     <g id="text_2">
      <!-- 7.5 -->
      <g transform="translate(101.600645 322.182437)scale(0.1 -0.1)">
       <defs>
        <path d="M 8.203125 72.90625 
L 55.078125 72.90625 
L 55.078125 68.703125 
L 28.609375 0 
L 18.3125 0 
L 43.21875 64.59375 
L 8.203125 64.59375 
z
" id="DejaVuSans-55"/>
       </defs>
       <use xlink:href="#DejaVuSans-55"/>
       <use x="63.623047" xlink:href="#DejaVuSans-46"/>
       <use x="95.410156" xlink:href="#DejaVuSans-53"/>
      </g>
     </g>
    </g>
    <g id="xtick_3">
     <g id="line2d_3">
      <g>
       <use style="stroke:#000000;stroke-width:0.8;" x="156.305455" xlink:href="#m3793cfe952" y="307.584"/>
      </g>
     </g>
     <g id="text_3">
      <!-- 10.0 -->
      <g transform="translate(145.172642 322.182437)scale(0.1 -0.1)">
       <defs>
        <path d="M 12.40625 8.296875 
L 28.515625 8.296875 
L 28.515625 63.921875 
L 10.984375 60.40625 
L 10.984375 69.390625 
L 28.421875 72.90625 
L 38.28125 72.90625 
L 38.28125 8.296875 
L 54.390625 8.296875 
L 54.390625 0 
L 12.40625 0 
z
" id="DejaVuSans-49"/>
       </defs>
       <use xlink:href="#DejaVuSans-49"/>
       <use x="63.623047" xlink:href="#DejaVuSans-48"/>
       <use x="127.246094" xlink:href="#DejaVuSans-46"/>
       <use x="159.033203" xlink:href="#DejaVuSans-48"/>
      </g>
     </g>
    </g>
    <g id="xtick_4">
     <g id="line2d_4">
      <g>
       <use style="stroke:#000000;stroke-width:0.8;" x="203.058701" xlink:href="#m3793cfe952" y="307.584"/>
      </g>
     </g>
     <g id="text_4">
      <!-- 12.5 -->
      <g transform="translate(191.925889 322.182437)scale(0.1 -0.1)">
       <defs>
        <path d="M 19.1875 8.296875 
L 53.609375 8.296875 
L 53.609375 0 
L 7.328125 0 
L 7.328125 8.296875 
Q 12.9375 14.109375 22.625 23.890625 
Q 32.328125 33.6875 34.8125 36.53125 
Q 39.546875 41.84375 41.421875 45.53125 
Q 43.3125 49.21875 43.3125 52.78125 
Q 43.3125 58.59375 39.234375 62.25 
Q 35.15625 65.921875 28.609375 65.921875 
Q 23.96875 65.921875 18.8125 64.3125 
Q 13.671875 62.703125 7.8125 59.421875 
L 7.8125 69.390625 
Q 13.765625 71.78125 18.9375 73 
Q 24.125 74.21875 28.421875 74.21875 
Q 39.75 74.21875 46.484375 68.546875 
Q 53.21875 62.890625 53.21875 53.421875 
Q 53.21875 48.921875 51.53125 44.890625 
Q 49.859375 40.875 45.40625 35.40625 
Q 44.1875 33.984375 37.640625 27.21875 
Q 31.109375 20.453125 19.1875 8.296875 
z
" id="DejaVuSans-50"/>
       </defs>
       <use xlink:href="#DejaVuSans-49"/>
       <use x="63.623047" xlink:href="#DejaVuSans-50"/>
       <use x="127.246094" xlink:href="#DejaVuSans-46"/>
       <use x="159.033203" xlink:href="#DejaVuSans-53"/>
      </g>
     </g>
    </g>
    <g id="xtick_5">
     <g id="line2d_5">
      <g>
       <use style="stroke:#000000;stroke-width:0.8;" x="249.811948" xlink:href="#m3793cfe952" y="307.584"/>
      </g>
     </g>
     <g id="text_5">
      <!-- 15.0 -->
      <g transform="translate(238.679136 322.182437)scale(0.1 -0.1)">
       <use xlink:href="#DejaVuSans-49"/>
       <use x="63.623047" xlink:href="#DejaVuSans-53"/>
       <use x="127.246094" xlink:href="#DejaVuSans-46"/>
       <use x="159.033203" xlink:href="#DejaVuSans-48"/>
      </g>
     </g>
    </g>
    <g id="xtick_6">
     <g id="line2d_6">
      <g>
       <use style="stroke:#000000;stroke-width:0.8;" x="296.565195" xlink:href="#m3793cfe952" y="307.584"/>
      </g>
     </g>
     <g id="text_6">
      <!-- 17.5 -->
      <g transform="translate(285.432382 322.182437)scale(0.1 -0.1)">
       <use xlink:href="#DejaVuSans-49"/>
       <use x="63.623047" xlink:href="#DejaVuSans-55"/>
       <use x="127.246094" xlink:href="#DejaVuSans-46"/>
       <use x="159.033203" xlink:href="#DejaVuSans-53"/>
      </g>
     </g>
    </g>
    <g id="xtick_7">
     <g id="line2d_7">
      <g>
       <use style="stroke:#000000;stroke-width:0.8;" x="343.318442" xlink:href="#m3793cfe952" y="307.584"/>
      </g>
     </g>
     <g id="text_7">
      <!-- 20.0 -->
      <g transform="translate(332.185629 322.182437)scale(0.1 -0.1)">
       <use xlink:href="#DejaVuSans-50"/>
       <use x="63.623047" xlink:href="#DejaVuSans-48"/>
       <use x="127.246094" xlink:href="#DejaVuSans-46"/>
       <use x="159.033203" xlink:href="#DejaVuSans-48"/>
      </g>
     </g>
    </g>
    <g id="xtick_8">
     <g id="line2d_8">
      <g>
       <use style="stroke:#000000;stroke-width:0.8;" x="390.071688" xlink:href="#m3793cfe952" y="307.584"/>
      </g>
     </g>
     <g id="text_8">
      <!-- 22.5 -->
      <g transform="translate(378.938876 322.182437)scale(0.1 -0.1)">
       <use xlink:href="#DejaVuSans-50"/>
       <use x="63.623047" xlink:href="#DejaVuSans-50"/>
       <use x="127.246094" xlink:href="#DejaVuSans-46"/>
       <use x="159.033203" xlink:href="#DejaVuSans-53"/>
      </g>
     </g>
    </g>
    <g id="text_9">
     <!-- temperature from OpenWeatherMap -->
     <g transform="translate(144.963906 335.860562)scale(0.1 -0.1)">
      <defs>
       <path d="M 18.3125 70.21875 
L 18.3125 54.6875 
L 36.8125 54.6875 
L 36.8125 47.703125 
L 18.3125 47.703125 
L 18.3125 18.015625 
Q 18.3125 11.328125 20.140625 9.421875 
Q 21.96875 7.515625 27.59375 7.515625 
L 36.8125 7.515625 
L 36.8125 0 
L 27.59375 0 
Q 17.1875 0 13.234375 3.875 
Q 9.28125 7.765625 9.28125 18.015625 
L 9.28125 47.703125 
L 2.6875 47.703125 
L 2.6875 54.6875 
L 9.28125 54.6875 
L 9.28125 70.21875 
z
" id="DejaVuSans-116"/>
       <path d="M 56.203125 29.59375 
L 56.203125 25.203125 
L 14.890625 25.203125 
Q 15.484375 15.921875 20.484375 11.0625 
Q 25.484375 6.203125 34.421875 6.203125 
Q 39.59375 6.203125 44.453125 7.46875 
Q 49.3125 8.734375 54.109375 11.28125 
L 54.109375 2.78125 
Q 49.265625 0.734375 44.1875 -0.34375 
Q 39.109375 -1.421875 33.890625 -1.421875 
Q 20.796875 -1.421875 13.15625 6.1875 
Q 5.515625 13.8125 5.515625 26.8125 
Q 5.515625 40.234375 12.765625 48.109375 
Q 20.015625 56 32.328125 56 
Q 43.359375 56 49.78125 48.890625 
Q 56.203125 41.796875 56.203125 29.59375 
z
M 47.21875 32.234375 
Q 47.125 39.59375 43.09375 43.984375 
Q 39.0625 48.390625 32.421875 48.390625 
Q 24.90625 48.390625 20.390625 44.140625 
Q 15.875 39.890625 15.1875 32.171875 
z
" id="DejaVuSans-101"/>
       <path d="M 52 44.1875 
Q 55.375 50.25 60.0625 53.125 
Q 64.75 56 71.09375 56 
Q 79.640625 56 84.28125 50.015625 
Q 88.921875 44.046875 88.921875 33.015625 
L 88.921875 0 
L 79.890625 0 
L 79.890625 32.71875 
Q 79.890625 40.578125 77.09375 44.375 
Q 74.3125 48.1875 68.609375 48.1875 
Q 61.625 48.1875 57.5625 43.546875 
Q 53.515625 38.921875 53.515625 30.90625 
L 53.515625 0 
L 44.484375 0 
L 44.484375 32.71875 
Q 44.484375 40.625 41.703125 44.40625 
Q 38.921875 48.1875 33.109375 48.1875 
Q 26.21875 48.1875 22.15625 43.53125 
Q 18.109375 38.875 18.109375 30.90625 
L 18.109375 0 
L 9.078125 0 
L 9.078125 54.6875 
L 18.109375 54.6875 
L 18.109375 46.1875 
Q 21.1875 51.21875 25.484375 53.609375 
Q 29.78125 56 35.6875 56 
Q 41.65625 56 45.828125 52.96875 
Q 50 49.953125 52 44.1875 
z
" id="DejaVuSans-109"/>
       <path d="M 18.109375 8.203125 
L 18.109375 -20.796875 
L 9.078125 -20.796875 
L 9.078125 54.6875 
L 18.109375 54.6875 
L 18.109375 46.390625 
Q 20.953125 51.265625 25.265625 53.625 
Q 29.59375 56 35.59375 56 
Q 45.5625 56 51.78125 48.09375 
Q 58.015625 40.1875 58.015625 27.296875 
Q 58.015625 14.40625 51.78125 6.484375 
Q 45.5625 -1.421875 35.59375 -1.421875 
Q 29.59375 -1.421875 25.265625 0.953125 
Q 20.953125 3.328125 18.109375 8.203125 
z
M 48.6875 27.296875 
Q 48.6875 37.203125 44.609375 42.84375 
Q 40.53125 48.484375 33.40625 48.484375 
Q 26.265625 48.484375 22.1875 42.84375 
Q 18.109375 37.203125 18.109375 27.296875 
Q 18.109375 17.390625 22.1875 11.75 
Q 26.265625 6.109375 33.40625 6.109375 
Q 40.53125 6.109375 44.609375 11.75 
Q 48.6875 17.390625 48.6875 27.296875 
z
" id="DejaVuSans-112"/>
       <path d="M 41.109375 46.296875 
Q 39.59375 47.171875 37.8125 47.578125 
Q 36.03125 48 33.890625 48 
Q 26.265625 48 22.1875 43.046875 
Q 18.109375 38.09375 18.109375 28.8125 
L 18.109375 0 
L 9.078125 0 
L 9.078125 54.6875 
L 18.109375 54.6875 
L 18.109375 46.1875 
Q 20.953125 51.171875 25.484375 53.578125 
Q 30.03125 56 36.53125 56 
Q 37.453125 56 38.578125 55.875 
Q 39.703125 55.765625 41.0625 55.515625 
z
" id="DejaVuSans-114"/>
       <path d="M 34.28125 27.484375 
Q 23.390625 27.484375 19.1875 25 
Q 14.984375 22.515625 14.984375 16.5 
Q 14.984375 11.71875 18.140625 8.90625 
Q 21.296875 6.109375 26.703125 6.109375 
Q 34.1875 6.109375 38.703125 11.40625 
Q 43.21875 16.703125 43.21875 25.484375 
L 43.21875 27.484375 
z
M 52.203125 31.203125 
L 52.203125 0 
L 43.21875 0 
L 43.21875 8.296875 
Q 40.140625 3.328125 35.546875 0.953125 
Q 30.953125 -1.421875 24.3125 -1.421875 
Q 15.921875 -1.421875 10.953125 3.296875 
Q 6 8.015625 6 15.921875 
Q 6 25.140625 12.171875 29.828125 
Q 18.359375 34.515625 30.609375 34.515625 
L 43.21875 34.515625 
L 43.21875 35.40625 
Q 43.21875 41.609375 39.140625 45 
Q 35.0625 48.390625 27.6875 48.390625 
Q 23 48.390625 18.546875 47.265625 
Q 14.109375 46.140625 10.015625 43.890625 
L 10.015625 52.203125 
Q 14.9375 54.109375 19.578125 55.046875 
Q 24.21875 56 28.609375 56 
Q 40.484375 56 46.34375 49.84375 
Q 52.203125 43.703125 52.203125 31.203125 
z
" id="DejaVuSans-97"/>
       <path d="M 8.5 21.578125 
L 8.5 54.6875 
L 17.484375 54.6875 
L 17.484375 21.921875 
Q 17.484375 14.15625 20.5 10.265625 
Q 23.53125 6.390625 29.59375 6.390625 
Q 36.859375 6.390625 41.078125 11.03125 
Q 45.3125 15.671875 45.3125 23.6875 
L 45.3125 54.6875 
L 54.296875 54.6875 
L 54.296875 0 
L 45.3125 0 
L 45.3125 8.40625 
Q 42.046875 3.421875 37.71875 1 
Q 33.40625 -1.421875 27.6875 -1.421875 
Q 18.265625 -1.421875 13.375 4.4375 
Q 8.5 10.296875 8.5 21.578125 
z
M 31.109375 56 
z
" id="DejaVuSans-117"/>
       <path id="DejaVuSans-32"/>
       <path d="M 37.109375 75.984375 
L 37.109375 68.5 
L 28.515625 68.5 
Q 23.6875 68.5 21.796875 66.546875 
Q 19.921875 64.59375 19.921875 59.515625 
L 19.921875 54.6875 
L 34.71875 54.6875 
L 34.71875 47.703125 
L 19.921875 47.703125 
L 19.921875 0 
L 10.890625 0 
L 10.890625 47.703125 
L 2.296875 47.703125 
L 2.296875 54.6875 
L 10.890625 54.6875 
L 10.890625 58.5 
Q 10.890625 67.625 15.140625 71.796875 
Q 19.390625 75.984375 28.609375 75.984375 
z
" id="DejaVuSans-102"/>
       <path d="M 30.609375 48.390625 
Q 23.390625 48.390625 19.1875 42.75 
Q 14.984375 37.109375 14.984375 27.296875 
Q 14.984375 17.484375 19.15625 11.84375 
Q 23.34375 6.203125 30.609375 6.203125 
Q 37.796875 6.203125 41.984375 11.859375 
Q 46.1875 17.53125 46.1875 27.296875 
Q 46.1875 37.015625 41.984375 42.703125 
Q 37.796875 48.390625 30.609375 48.390625 
z
M 30.609375 56 
Q 42.328125 56 49.015625 48.375 
Q 55.71875 40.765625 55.71875 27.296875 
Q 55.71875 13.875 49.015625 6.21875 
Q 42.328125 -1.421875 30.609375 -1.421875 
Q 18.84375 -1.421875 12.171875 6.21875 
Q 5.515625 13.875 5.515625 27.296875 
Q 5.515625 40.765625 12.171875 48.375 
Q 18.84375 56 30.609375 56 
z
" id="DejaVuSans-111"/>
       <path d="M 39.40625 66.21875 
Q 28.65625 66.21875 22.328125 58.203125 
Q 16.015625 50.203125 16.015625 36.375 
Q 16.015625 22.609375 22.328125 14.59375 
Q 28.65625 6.59375 39.40625 6.59375 
Q 50.140625 6.59375 56.421875 14.59375 
Q 62.703125 22.609375 62.703125 36.375 
Q 62.703125 50.203125 56.421875 58.203125 
Q 50.140625 66.21875 39.40625 66.21875 
z
M 39.40625 74.21875 
Q 54.734375 74.21875 63.90625 63.9375 
Q 73.09375 53.65625 73.09375 36.375 
Q 73.09375 19.140625 63.90625 8.859375 
Q 54.734375 -1.421875 39.40625 -1.421875 
Q 24.03125 -1.421875 14.8125 8.828125 
Q 5.609375 19.09375 5.609375 36.375 
Q 5.609375 53.65625 14.8125 63.9375 
Q 24.03125 74.21875 39.40625 74.21875 
z
" id="DejaVuSans-79"/>
       <path d="M 54.890625 33.015625 
L 54.890625 0 
L 45.90625 0 
L 45.90625 32.71875 
Q 45.90625 40.484375 42.875 44.328125 
Q 39.84375 48.1875 33.796875 48.1875 
Q 26.515625 48.1875 22.3125 43.546875 
Q 18.109375 38.921875 18.109375 30.90625 
L 18.109375 0 
L 9.078125 0 
L 9.078125 54.6875 
L 18.109375 54.6875 
L 18.109375 46.1875 
Q 21.34375 51.125 25.703125 53.5625 
Q 30.078125 56 35.796875 56 
Q 45.21875 56 50.046875 50.171875 
Q 54.890625 44.34375 54.890625 33.015625 
z
" id="DejaVuSans-110"/>
       <path d="M 3.328125 72.90625 
L 13.28125 72.90625 
L 28.609375 11.28125 
L 43.890625 72.90625 
L 54.984375 72.90625 
L 70.3125 11.28125 
L 85.59375 72.90625 
L 95.609375 72.90625 
L 77.296875 0 
L 64.890625 0 
L 49.515625 63.28125 
L 33.984375 0 
L 21.578125 0 
z
" id="DejaVuSans-87"/>
       <path d="M 54.890625 33.015625 
L 54.890625 0 
L 45.90625 0 
L 45.90625 32.71875 
Q 45.90625 40.484375 42.875 44.328125 
Q 39.84375 48.1875 33.796875 48.1875 
Q 26.515625 48.1875 22.3125 43.546875 
Q 18.109375 38.921875 18.109375 30.90625 
L 18.109375 0 
L 9.078125 0 
L 9.078125 75.984375 
L 18.109375 75.984375 
L 18.109375 46.1875 
Q 21.34375 51.125 25.703125 53.5625 
Q 30.078125 56 35.796875 56 
Q 45.21875 56 50.046875 50.171875 
Q 54.890625 44.34375 54.890625 33.015625 
z
" id="DejaVuSans-104"/>
       <path d="M 9.8125 72.90625 
L 24.515625 72.90625 
L 43.109375 23.296875 
L 61.8125 72.90625 
L 76.515625 72.90625 
L 76.515625 0 
L 66.890625 0 
L 66.890625 64.015625 
L 48.09375 14.015625 
L 38.1875 14.015625 
L 19.390625 64.015625 
L 19.390625 0 
L 9.8125 0 
z
" id="DejaVuSans-77"/>
      </defs>
      <use xlink:href="#DejaVuSans-116"/>
      <use x="39.208984" xlink:href="#DejaVuSans-101"/>
      <use x="100.732422" xlink:href="#DejaVuSans-109"/>
      <use x="198.144531" xlink:href="#DejaVuSans-112"/>
      <use x="261.621094" xlink:href="#DejaVuSans-101"/>
      <use x="323.144531" xlink:href="#DejaVuSans-114"/>
      <use x="364.257812" xlink:href="#DejaVuSans-97"/>
      <use x="425.537109" xlink:href="#DejaVuSans-116"/>
      <use x="464.746094" xlink:href="#DejaVuSans-117"/>
      <use x="528.125" xlink:href="#DejaVuSans-114"/>
      <use x="566.988281" xlink:href="#DejaVuSans-101"/>
      <use x="628.511719" xlink:href="#DejaVuSans-32"/>
      <use x="660.298828" xlink:href="#DejaVuSans-102"/>
      <use x="695.503906" xlink:href="#DejaVuSans-114"/>
      <use x="734.367188" xlink:href="#DejaVuSans-111"/>
      <use x="795.548828" xlink:href="#DejaVuSans-109"/>
      <use x="892.960938" xlink:href="#DejaVuSans-32"/>
      <use x="924.748047" xlink:href="#DejaVuSans-79"/>
      <use x="1003.458984" xlink:href="#DejaVuSans-112"/>
      <use x="1066.935547" xlink:href="#DejaVuSans-101"/>
      <use x="1128.458984" xlink:href="#DejaVuSans-110"/>
      <use x="1191.837891" xlink:href="#DejaVuSans-87"/>
      <use x="1284.839844" xlink:href="#DejaVuSans-101"/>
      <use x="1346.363281" xlink:href="#DejaVuSans-97"/>
      <use x="1407.642578" xlink:href="#DejaVuSans-116"/>
      <use x="1446.851562" xlink:href="#DejaVuSans-104"/>
      <use x="1510.230469" xlink:href="#DejaVuSans-101"/>
      <use x="1571.753906" xlink:href="#DejaVuSans-114"/>
      <use x="1612.867188" xlink:href="#DejaVuSans-77"/>
      <use x="1699.146484" xlink:href="#DejaVuSans-97"/>
      <use x="1760.425781" xlink:href="#DejaVuSans-112"/>
     </g>
    </g>
   </g>
   <g id="matplotlib.axis_2">
    <g id="ytick_1">
     <g id="line2d_9">
      <defs>
       <path d="M 0 0 
L -3.5 0 
" id="m725e423832" style="stroke:#000000;stroke-width:0.8;"/>
      </defs>
      <g>
       <use style="stroke:#000000;stroke-width:0.8;" x="57.6" xlink:href="#m725e423832" y="259.595738"/>
      </g>
     </g>
     <g id="text_10">
      <!-- 20 -->
      <g transform="translate(37.875 263.394957)scale(0.1 -0.1)">
       <use xlink:href="#DejaVuSans-50"/>
       <use x="63.623047" xlink:href="#DejaVuSans-48"/>
      </g>
     </g>
    </g>
    <g id="ytick_2">
     <g id="line2d_10">
      <g>
       <use style="stroke:#000000;stroke-width:0.8;" x="57.6" xlink:href="#m725e423832" y="210.343921"/>
      </g>
     </g>
     <g id="text_11">
      <!-- 40 -->
      <g transform="translate(37.875 214.14314)scale(0.1 -0.1)">
       <defs>
        <path d="M 37.796875 64.3125 
L 12.890625 25.390625 
L 37.796875 25.390625 
z
M 35.203125 72.90625 
L 47.609375 72.90625 
L 47.609375 25.390625 
L 58.015625 25.390625 
L 58.015625 17.1875 
L 47.609375 17.1875 
L 47.609375 0 
L 37.796875 0 
L 37.796875 17.1875 
L 4.890625 17.1875 
L 4.890625 26.703125 
z
" id="DejaVuSans-52"/>
       </defs>
       <use xlink:href="#DejaVuSans-52"/>
       <use x="63.623047" xlink:href="#DejaVuSans-48"/>
      </g>
     </g>
    </g>
    <g id="ytick_3">
     <g id="line2d_11">
      <g>
       <use style="stroke:#000000;stroke-width:0.8;" x="57.6" xlink:href="#m725e423832" y="161.092104"/>
      </g>
     </g>
     <g id="text_12">
      <!-- 60 -->
      <g transform="translate(37.875 164.891323)scale(0.1 -0.1)">
       <defs>
        <path d="M 33.015625 40.375 
Q 26.375 40.375 22.484375 35.828125 
Q 18.609375 31.296875 18.609375 23.390625 
Q 18.609375 15.53125 22.484375 10.953125 
Q 26.375 6.390625 33.015625 6.390625 
Q 39.65625 6.390625 43.53125 10.953125 
Q 47.40625 15.53125 47.40625 23.390625 
Q 47.40625 31.296875 43.53125 35.828125 
Q 39.65625 40.375 33.015625 40.375 
z
M 52.59375 71.296875 
L 52.59375 62.3125 
Q 48.875 64.0625 45.09375 64.984375 
Q 41.3125 65.921875 37.59375 65.921875 
Q 27.828125 65.921875 22.671875 59.328125 
Q 17.53125 52.734375 16.796875 39.40625 
Q 19.671875 43.65625 24.015625 45.921875 
Q 28.375 48.1875 33.59375 48.1875 
Q 44.578125 48.1875 50.953125 41.515625 
Q 57.328125 34.859375 57.328125 23.390625 
Q 57.328125 12.15625 50.6875 5.359375 
Q 44.046875 -1.421875 33.015625 -1.421875 
Q 20.359375 -1.421875 13.671875 8.265625 
Q 6.984375 17.96875 6.984375 36.375 
Q 6.984375 53.65625 15.1875 63.9375 
Q 23.390625 74.21875 37.203125 74.21875 
Q 40.921875 74.21875 44.703125 73.484375 
Q 48.484375 72.75 52.59375 71.296875 
z
" id="DejaVuSans-54"/>
       </defs>
       <use xlink:href="#DejaVuSans-54"/>
       <use x="63.623047" xlink:href="#DejaVuSans-48"/>
      </g>
     </g>
    </g>
    <g id="ytick_4">
     <g id="line2d_12">
      <g>
       <use style="stroke:#000000;stroke-width:0.8;" x="57.6" xlink:href="#m725e423832" y="111.840287"/>
      </g>
     </g>
     <g id="text_13">
      <!-- 80 -->
      <g transform="translate(37.875 115.639506)scale(0.1 -0.1)">
       <defs>
        <path d="M 31.78125 34.625 
Q 24.75 34.625 20.71875 30.859375 
Q 16.703125 27.09375 16.703125 20.515625 
Q 16.703125 13.921875 20.71875 10.15625 
Q 24.75 6.390625 31.78125 6.390625 
Q 38.8125 6.390625 42.859375 10.171875 
Q 46.921875 13.96875 46.921875 20.515625 
Q 46.921875 27.09375 42.890625 30.859375 
Q 38.875 34.625 31.78125 34.625 
z
M 21.921875 38.8125 
Q 15.578125 40.375 12.03125 44.71875 
Q 8.5 49.078125 8.5 55.328125 
Q 8.5 64.0625 14.71875 69.140625 
Q 20.953125 74.21875 31.78125 74.21875 
Q 42.671875 74.21875 48.875 69.140625 
Q 55.078125 64.0625 55.078125 55.328125 
Q 55.078125 49.078125 51.53125 44.71875 
Q 48 40.375 41.703125 38.8125 
Q 48.828125 37.15625 52.796875 32.3125 
Q 56.78125 27.484375 56.78125 20.515625 
Q 56.78125 9.90625 50.3125 4.234375 
Q 43.84375 -1.421875 31.78125 -1.421875 
Q 19.734375 -1.421875 13.25 4.234375 
Q 6.78125 9.90625 6.78125 20.515625 
Q 6.78125 27.484375 10.78125 32.3125 
Q 14.796875 37.15625 21.921875 38.8125 
z
M 18.3125 54.390625 
Q 18.3125 48.734375 21.84375 45.5625 
Q 25.390625 42.390625 31.78125 42.390625 
Q 38.140625 42.390625 41.71875 45.5625 
Q 45.3125 48.734375 45.3125 54.390625 
Q 45.3125 60.0625 41.71875 63.234375 
Q 38.140625 66.40625 31.78125 66.40625 
Q 25.390625 66.40625 21.84375 63.234375 
Q 18.3125 60.0625 18.3125 54.390625 
z
" id="DejaVuSans-56"/>
       </defs>
       <use xlink:href="#DejaVuSans-56"/>
       <use x="63.623047" xlink:href="#DejaVuSans-48"/>
      </g>
     </g>
    </g>
    <g id="ytick_5">
     <g id="line2d_13">
      <g>
       <use style="stroke:#000000;stroke-width:0.8;" x="57.6" xlink:href="#m725e423832" y="62.58847"/>
      </g>
     </g>
     <g id="text_14">
      <!-- 100 -->
      <g transform="translate(31.5125 66.387689)scale(0.1 -0.1)">
       <use xlink:href="#DejaVuSans-49"/>
       <use x="63.623047" xlink:href="#DejaVuSans-48"/>
       <use x="127.246094" xlink:href="#DejaVuSans-48"/>
      </g>
     </g>
    </g>
   </g>
   <g id="line2d_14">
    <path clip-path="url(#p62e98cd6a9)" d="M 73.832727 292.259543 
L 77.572987 289.609796 
L 80.191169 291.843366 
L 80.565195 288.410514 
L 81.874286 285.315037 
L 82.061299 283.352352 
L 84.305455 251.178603 
L 88.045714 290.890343 
L 89.728831 291.582331 
L 89.915844 283.679877 
L 90.663896 291.909855 
L 90.850909 290.791839 
L 92.908052 290.247607 
L 93.656104 290.848479 
L 95.713247 292.291557 
L 95.90026 288.971985 
L 97.209351 291.242493 
L 97.583377 290.311634 
L 100.014545 294.365059 
L 101.884675 288.321861 
L 102.071688 292.949069 
L 102.445714 289.80434 
L 103.193766 289.969334 
L 103.380779 292.234917 
L 103.941818 290.065375 
L 104.128831 288.058363 
L 104.68987 286.873857 
L 105.063896 288.04605 
L 105.437922 293.234729 
L 105.811948 278.545375 
L 106.185974 274.514114 
L 106.934026 293.73956 
L 107.121039 283.214447 
L 107.308052 289.24287 
L 107.495065 290.914969 
L 107.869091 281.613763 
L 108.804156 290.981459 
L 109.365195 280.934088 
L 110.487273 289.112352 
L 110.861299 289.058175 
L 111.048312 284.674764 
L 111.609351 288.307085 
L 111.796364 290.607145 
L 112.17039 281.224674 
L 112.357403 292.032985 
L 112.731429 285.962699 
L 113.105455 291.392711 
L 113.292468 276.361057 
L 113.666494 53.568 
L 114.414545 279.988453 
L 114.975584 265.968923 
L 115.34961 289.772327 
L 115.536623 280.074644 
L 115.910649 268.860005 
L 116.097662 284.874233 
L 116.471688 286.551258 
L 117.967792 231.436012 
L 118.154805 275.021407 
L 118.341818 183.26281 
L 119.08987 280.70753 
L 121.521039 287.782553 
L 121.708052 255.8526 
L 121.895065 253.01077 
L 122.082078 289.25272 
L 122.269091 276.156662 
L 122.643117 231.076474 
L 123.017143 276.747684 
L 123.952208 257.935952 
L 124.139221 285.300262 
L 124.70026 281.303477 
L 124.887273 251.577543 
L 125.448312 290.991309 
L 125.822338 276.57284 
L 126.009351 289.666435 
L 126.383377 289.506367 
L 126.57039 289.87083 
L 126.757403 284.753566 
L 126.944416 289.437414 
L 127.131429 287.716063 
L 127.505455 280.015542 
L 127.879481 289.836354 
L 128.253506 285.164819 
L 128.440519 274.381134 
L 128.627532 280.077106 
L 129.001558 282.768718 
L 129.188571 289.912694 
L 129.562597 284.261048 
L 129.74961 272.65732 
L 130.310649 277.011181 
L 130.497662 288.890719 
L 130.871688 240.737218 
L 131.806753 278.183374 
L 131.993766 290.077688 
L 132.180779 288.316935 
L 132.367792 289.900381 
L 132.554805 293.158389 
L 132.741818 286.615285 
L 133.302857 289.92747 
L 133.48987 292.269394 
L 133.676883 283.115944 
L 133.863896 292.732361 
L 134.237922 291.385324 
L 134.611948 291.422263 
L 135.547013 281.896961 
L 135.734026 286.723639 
L 135.921039 278.855661 
L 137.604156 290.210668 
L 137.791169 288.50163 
L 138.352208 212.917329 
L 138.913247 280.421869 
L 139.287273 259.70163 
L 139.661299 269.002835 
L 139.848312 280.626264 
L 140.97039 279.788983 
L 141.905455 289.816653 
L 142.653506 193.384058 
L 142.840519 288.324323 
L 144.523636 259.2362 
L 144.710649 285.206683 
L 145.458701 283.773455 
L 145.645714 285.100792 
L 145.832727 288.3785 
L 146.01974 288.282459 
L 146.393766 292.424537 
L 146.580779 287.782553 
L 147.515844 288.63461 
L 147.88987 221.134994 
L 149.76 288.393276 
L 150.882078 193.056534 
L 151.256104 290.604682 
L 151.443117 293.229804 
L 151.63013 288.481929 
L 152.004156 285.243622 
L 152.191169 287.755465 
L 152.565195 160.331164 
L 152.939221 287.102878 
L 153.126234 285.571147 
L 153.50026 292.4467 
L 153.687273 293.197791 
L 153.874286 290.661322 
L 154.061299 290.048137 
L 154.248312 291.225255 
L 154.435325 290.424913 
L 154.809351 282.734242 
L 154.996364 290.530805 
L 155.557403 284.623049 
L 155.931429 290.3929 
L 156.118442 284.162545 
L 156.492468 278.102109 
L 156.679481 292.207829 
L 156.866494 287.398389 
L 157.240519 281.86741 
L 157.427532 286.930497 
L 157.614545 281.517722 
L 157.801558 284.315225 
L 157.988571 284.859458 
L 158.362597 270.901493 
L 158.54961 292.22753 
L 158.736623 280.224862 
L 158.923636 284.403879 
L 159.110649 284.56641 
L 159.297662 289.223169 
L 160.41974 291.826127 
L 160.793766 291.735012 
L 160.980779 279.289077 
L 161.167792 286.457679 
L 161.354805 287.462416 
L 161.728831 293.682921 
L 161.915844 290.353498 
L 162.102857 290.774601 
L 162.663896 291.070112 
L 163.037922 227.973609 
L 163.224935 277.321467 
L 163.411948 287.459954 
L 163.598961 289.964409 
L 163.785974 282.655439 
L 163.972987 281.150796 
L 164.16 289.333985 
L 164.347013 291.77195 
L 164.534026 290.247607 
L 165.282078 292.811164 
L 165.469091 288.430215 
L 165.656104 255.869838 
L 165.843117 282.990351 
L 166.03013 282.810582 
L 166.217143 291.281895 
L 166.404156 287.129967 
L 166.778182 289.05325 
L 166.965195 205.298073 
L 167.152208 285.568684 
L 167.339221 291.168616 
L 167.526234 275.76511 
L 167.90026 291.473977 
L 168.461299 292.397448 
L 168.648312 291.683297 
L 169.022338 288.944896 
L 169.209351 292.030522 
L 169.396364 291.594644 
L 169.583377 278.212925 
L 169.77039 291.927094 
L 169.957403 292.50334 
L 170.331429 290.264845 
L 170.518442 283.770993 
L 170.705455 286.238509 
L 170.892468 291.631583 
L 171.079481 289.39555 
L 171.266494 289.306897 
L 171.453506 291.786726 
L 171.640519 290.912506 
L 171.827532 279.646153 
L 172.014545 250.151702 
L 172.388571 278.34098 
L 173.136623 291.875379 
L 173.510649 286.703938 
L 173.697662 274.388522 
L 173.884675 279.875174 
L 174.258701 276.883126 
L 174.632727 288.405589 
L 174.81974 288.875944 
L 175.006753 290.181117 
L 175.754805 274.122562 
L 175.941818 226.991035 
L 176.315844 288.585358 
L 176.68987 294.197602 
L 176.876883 286.460142 
L 177.063896 289.703374 
L 177.250909 289.555619 
L 177.437922 289.233019 
L 177.624935 293.522853 
L 177.811948 276.540826 
L 178.185974 286.974823 
L 178.56 288.614909 
L 178.747013 288.324323 
L 179.121039 283.192284 
L 179.308052 284.211796 
L 179.495065 292.424537 
L 179.682078 284.563947 
L 179.869091 291.70546 
L 180.056104 283.541972 
L 180.243117 289.974259 
L 180.43013 283.477944 
L 180.804156 278.986179 
L 180.991169 265.917209 
L 181.178182 292.64617 
L 181.552208 277.690856 
L 181.739221 288.543494 
L 181.926234 240.010753 
L 182.113247 227.776602 
L 182.30026 286.053814 
L 182.487273 293.141151 
L 182.674286 288.090377 
L 182.861299 287.780091 
L 183.048312 280.355379 
L 183.422338 287.378688 
L 183.609351 292.387598 
L 183.796364 286.162168 
L 183.983377 286.423203 
L 184.17039 139.138107 
L 184.357403 279.769283 
L 184.544416 291.648821 
L 184.731429 280.771557 
L 185.105455 269.079176 
L 185.292468 283.716816 
L 185.479481 280.338141 
L 185.853506 290.858329 
L 186.040519 292.486102 
L 186.227532 289.947171 
L 186.414545 290.555431 
L 186.601558 280.929163 
L 186.975584 276.84865 
L 187.34961 290.358423 
L 187.536623 292.202904 
L 187.723636 286.516782 
L 187.910649 284.650138 
L 188.284675 292.582143 
L 188.658701 289.713224 
L 188.845714 283.266162 
L 189.032727 284.731403 
L 189.21974 293.074661 
L 189.406753 279.752044 
L 189.593766 291.956645 
L 189.780779 285.090941 
L 189.967792 285.154969 
L 190.154805 291.308983 
L 190.341818 290.846016 
L 190.528831 290.683485 
L 190.715844 291.631583 
L 190.902857 289.072951 
L 191.08987 290.114627 
L 191.276883 288.082989 
L 191.650909 292.210292 
L 191.837922 288.858705 
L 192.024935 273.098124 
L 192.211948 285.18452 
L 192.398961 289.553156 
L 192.772987 289.883143 
L 192.96 287.730839 
L 193.147013 290.880493 
L 193.334026 276.154199 
L 193.521039 285.999637 
L 193.708052 285.66965 
L 194.082078 195.881125 
L 194.456104 280.796183 
L 194.643117 286.657149 
L 194.83013 281.328103 
L 195.204156 291.988658 
L 195.391169 284.987513 
L 195.578182 248.957346 
L 196.139221 293.315995 
L 196.326234 264.23526 
L 196.513247 285.546521 
L 196.70026 289.728 
L 196.887273 289.555619 
L 197.074286 230.010172 
L 197.261299 288.725726 
L 197.448312 287.48458 
L 197.635325 288.326786 
L 198.009351 287.592934 
L 198.196364 281.798457 
L 198.383377 290.08015 
L 198.57039 246.066264 
L 198.757403 268.98806 
L 198.944416 250.84369 
L 199.131429 291.259732 
L 199.505455 254.515413 
L 200.066494 293.542553 
L 200.253506 288.541031 
L 200.440519 288.819304 
L 200.627532 265.437004 
L 200.814545 286.849231 
L 201.001558 262.582861 
L 201.188571 286.053814 
L 201.375584 287.708676 
L 201.562597 286.632523 
L 201.74961 289.533455 
L 201.936623 281.453695 
L 202.123636 234.706333 
L 202.310649 282.88446 
L 202.497662 291.264657 
L 202.684675 291.385324 
L 202.871688 280.101732 
L 203.245714 291.90493 
L 203.432727 278.178449 
L 203.61974 281.869873 
L 204.180779 224.831343 
L 204.367792 294.864965 
L 204.741818 289.425101 
L 204.928831 291.513378 
L 205.302857 291.48629 
L 205.48987 258.00983 
L 205.676883 293.641057 
L 205.863896 279.673242 
L 206.050909 289.922545 
L 206.237922 291.094738 
L 206.424935 285.182057 
L 206.611948 264.247572 
L 206.798961 285.334738 
L 207.172987 248.563331 
L 207.36 290.498791 
L 207.734026 278.382844 
L 208.108052 290.562818 
L 208.295065 292.653558 
L 208.482078 282.564323 
L 208.669091 287.890907 
L 208.856104 281.948676 
L 209.043117 294.599005 
L 209.23013 290.816465 
L 209.417143 279.621527 
L 209.604156 291.683297 
L 209.791169 293.44405 
L 209.978182 290.850941 
L 210.726234 291.651283 
L 211.287273 292.953994 
L 211.474286 292.431925 
L 211.661299 291.56263 
L 212.035325 286.435516 
L 212.222338 291.345922 
L 212.409351 289.141903 
L 212.97039 287.541219 
L 213.157403 289.553156 
L 213.344416 294.239466 
L 213.531429 290.08015 
L 213.718442 291.417337 
L 213.905455 289.705837 
L 214.092468 291.501065 
L 214.279481 289.233019 
L 214.466494 292.37036 
L 214.653506 278.853199 
L 214.840519 285.435704 
L 215.401558 263.545734 
L 215.962597 292.394986 
L 216.14961 289.809265 
L 216.710649 278.727607 
L 217.084675 259.297765 
L 217.458701 291.865529 
L 217.645714 290.102314 
L 217.832727 286.957585 
L 218.01974 248.962271 
L 218.206753 254.74936 
L 218.393766 281.342878 
L 218.580779 290.784451 
L 218.767792 282.625888 
L 218.954805 292.786538 
L 219.141818 288.762664 
L 219.328831 292.737286 
L 219.515844 292.03791 
L 219.702857 289.183767 
L 220.076883 291.737474 
L 220.263896 286.378876 
L 220.450909 291.75225 
L 220.824935 290.208205 
L 221.011948 283.024828 
L 221.198961 284.960424 
L 221.385974 256.776072 
L 221.76 290.365811 
L 221.947013 291.523229 
L 222.134026 248.688923 
L 222.321039 291.870454 
L 222.695065 291.799039 
L 222.882078 286.955123 
L 223.069091 291.444426 
L 223.256104 291.471514 
L 223.443117 283.532121 
L 223.63013 288.166717 
L 223.817143 289.713224 
L 224.004156 281.409368 
L 224.191169 289.299509 
L 224.378182 291.156303 
L 224.565195 223.186333 
L 224.752208 282.455969 
L 224.939221 290.338723 
L 225.126234 243.258911 
L 225.313247 288.122391 
L 225.50026 291.119364 
L 225.687273 146.513566 
L 225.874286 290.892805 
L 226.435325 291.540467 
L 226.622338 283.785768 
L 226.809351 290.449539 
L 226.996364 292.138876 
L 227.183377 249.533592 
L 227.744416 287.363913 
L 227.931429 290.154028 
L 228.305455 211.8067 
L 228.866494 292.567367 
L 229.053506 225.114541 
L 229.240519 288.127316 
L 229.427532 262.935012 
L 229.614545 287.844118 
L 229.801558 284.71909 
L 229.988571 286.824605 
L 230.175584 290.496328 
L 230.54961 288.181493 
L 230.736623 243.192421 
L 230.923636 291.449351 
L 231.484675 291.845828 
L 231.858701 283.908898 
L 232.045714 262.257799 
L 232.232727 287.558457 
L 232.793766 255.596491 
L 233.167792 293.572104 
L 233.354805 286.598047 
L 234.102857 293.746948 
L 234.476883 259.401194 
L 234.663896 292.062536 
L 235.224935 288.91042 
L 235.598961 290.95437 
L 235.785974 290.380587 
L 235.972987 266.515619 
L 237.282078 272.344571 
L 237.469091 237.917551 
L 237.656104 238.476559 
L 238.03013 291.826127 
L 238.217143 289.134516 
L 238.778182 293.692771 
L 239.152208 285.960236 
L 239.339221 277.117072 
L 239.526234 290.572669 
L 239.713247 286.100604 
L 240.461299 287.42794 
L 241.022338 290.616995 
L 241.583377 279.64369 
L 241.77039 284.664913 
L 241.957403 292.84564 
L 242.331429 241.296226 
L 242.518442 292.451625 
L 242.705455 223.398115 
L 242.892468 288.725726 
L 243.079481 281.005503 
L 243.266494 285.154969 
L 244.014545 277.013643 
L 244.388571 292.340809 
L 244.575584 275.528701 
L 244.762597 288.353874 
L 245.136623 268.92157 
L 245.510649 292.51319 
L 246.445714 268.576807 
L 246.632727 290.043212 
L 247.006753 285.347051 
L 247.193766 286.245897 
L 247.380779 295.231891 
L 247.567792 290.885418 
L 247.754805 278.537987 
L 248.502857 291.003622 
L 248.68987 281.805845 
L 248.876883 247.171968 
L 249.063896 289.612258 
L 249.437922 283.332652 
L 249.624935 282.800732 
L 249.811948 290.752438 
L 249.998961 292.525503 
L 250.372987 273.011933 
L 251.121039 291.333609 
L 251.308052 291.193242 
L 251.682078 229.204905 
L 251.869091 287.093028 
L 252.056104 288.533643 
L 252.243117 292.656021 
L 252.43013 293.32092 
L 252.617143 286.883708 
L 252.804156 291.311446 
L 252.991169 284.758492 
L 253.178182 291.262194 
L 253.552208 291.180929 
L 253.739221 283.054379 
L 254.113247 292.530428 
L 254.30026 269.310659 
L 254.674286 291.321296 
L 254.861299 290.195892 
L 255.609351 292.259543 
L 255.983377 281.697491 
L 256.17039 287.349137 
L 256.918442 178.347478 
L 257.105455 280.613951 
L 258.040519 287.982023 
L 258.227532 284.613199 
L 258.601558 288.570582 
L 258.788571 293.414499 
L 258.975584 294.640869 
L 259.34961 290.66871 
L 259.536623 283.443468 
L 259.723636 290.12694 
L 260.284675 291.405024 
L 260.471688 289.695986 
L 260.658701 283.101168 
L 261.032727 285.482493 
L 261.21974 293.089437 
L 261.406753 294.872352 
L 262.715844 292.126563 
L 262.902857 277.437209 
L 263.276883 292.316183 
L 263.463896 291.978808 
L 264.024935 288.314473 
L 264.211948 200.914661 
L 264.772987 287.051164 
L 265.521039 291.47644 
L 266.082078 282.064417 
L 266.269091 284.916097 
L 266.456104 292.683109 
L 266.643117 277.944503 
L 267.017143 285.241159 
L 267.204156 248.289984 
L 267.765195 289.361074 
L 268.326234 258.502348 
L 268.513247 267.330736 
L 268.70026 283.830095 
L 269.074286 289.540843 
L 269.261299 290.592369 
L 269.448312 276.819099 
L 269.635325 280.259338 
L 270.009351 289.523605 
L 270.196364 285.94546 
L 270.757403 256.813011 
L 270.944416 291.604494 
L 271.131429 230.335234 
L 271.318442 281.25915 
L 271.505455 262.725691 
L 271.692468 285.561296 
L 271.879481 237.038406 
L 272.066494 287.996799 
L 272.253506 229.726974 
L 272.627532 290.437226 
L 272.814545 265.099629 
L 273.188571 286.566033 
L 273.375584 265.752215 
L 273.562597 289.393088 
L 273.74961 277.250052 
L 273.936623 244.214396 
L 274.497662 288.84393 
L 275.058701 273.605418 
L 275.432727 283.724204 
L 275.61974 281.244375 
L 275.993766 55.772019 
L 276.180779 291.917243 
L 276.367792 250.543254 
L 277.48987 254.921741 
L 277.676883 282.207248 
L 278.050909 293.522853 
L 278.424935 283.330189 
L 278.985974 244.06664 
L 279.172987 292.121638 
L 279.547013 289.691061 
L 279.921039 269.628333 
L 280.295065 290.104776 
L 280.669091 290.767213 
L 280.856104 286.322237 
L 282.726234 291.40995 
L 283.661299 280.599176 
L 284.596364 292.798851 
L 284.783377 291.252344 
L 285.157403 277.550488 
L 285.531429 293.298757 
L 285.905455 284.86192 
L 286.092468 286.541407 
L 286.840519 289.695986 
L 287.027532 291.998509 
L 287.214545 283.248923 
L 287.401558 286.67685 
L 287.775584 174.407333 
L 288.710649 286.140005 
L 289.084675 202.926598 
L 290.01974 292.121638 
L 290.580779 289.974259 
L 291.328831 280.537611 
L 291.702857 284.674764 
L 292.450909 293.835602 
L 292.637922 290.427376 
L 293.011948 290.742587 
L 293.572987 284.679689 
L 293.947013 283.746367 
L 294.134026 245.310249 
L 294.321039 283.608462 
L 294.695065 292.252156 
L 295.069091 291.774413 
L 295.256104 288.92027 
L 295.817143 285.620398 
L 296.004156 292.412224 
L 296.565195 291.294208 
L 297.126234 284.293062 
L 297.50026 289.346298 
L 297.874286 283.037141 
L 298.248312 291.909855 
L 298.435325 286.96251 
L 299.183377 292.510728 
L 299.37039 289.19608 
L 299.744416 192.930941 
L 299.931429 282.33284 
L 300.118442 287.147205 
L 300.305455 285.191908 
L 300.866494 291.139065 
L 301.053506 291.789189 
L 301.614545 285.686888 
L 301.988571 291.535542 
L 302.175584 290.129402 
L 302.362597 250.452139 
L 302.54961 290.26977 
L 302.736623 291.784263 
L 302.923636 289.888068 
L 303.110649 117.331865 
L 303.297662 292.353122 
L 303.858701 293.086974 
L 304.045714 291.432113 
L 304.232727 285.561296 
L 304.41974 289.102502 
L 304.606753 288.63461 
L 304.980779 258.354593 
L 305.915844 290.624383 
L 306.28987 287.775165 
L 306.663896 293.183015 
L 307.037922 292.527966 
L 307.411948 292.207829 
L 307.598961 295.488 
L 307.785974 233.908453 
L 308.16 268.603896 
L 309.282078 287.915533 
L 309.469091 288.474541 
L 309.843117 290.939595 
L 310.03013 291.242493 
L 310.217143 292.705272 
L 310.404156 270.140552 
L 310.591169 292.850565 
L 310.778182 293.146076 
L 311.526234 254.946367 
L 311.90026 290.314097 
L 312.461299 292.124101 
L 313.583377 292.131489 
L 313.957403 242.650651 
L 314.518442 292.63632 
L 314.705455 252.58228 
L 315.079481 291.02086 
L 316.014545 290.538192 
L 317.884675 291.616807 
L 318.258701 286.529094 
L 321.437922 279.813609 
L 322.185974 294.436474 
L 323.121039 291.964032 
L 323.495065 289.558081 
L 324.617143 194.063733 
L 325.178182 290.124477 
L 325.365195 288.467153 
L 325.926234 269.470728 
L 328.17039 280.458808 
L 330.601558 288.772515 
L 331.162597 290.291933 
L 331.723636 291.190779 
L 333.780779 289.782177 
L 334.154805 293.183015 
L 335.650909 287.186606 
L 336.024935 292.358047 
L 336.398961 287.425478 
L 337.147013 282.830283 
L 339.017143 288.602596 
L 339.204156 290.525879 
L 339.952208 285.832181 
L 340.887273 292.500877 
L 341.074286 290.220518 
L 341.261299 284.137919 
L 342.57039 289.068026 
L 342.757403 292.106863 
L 343.131429 290.961758 
L 344.066494 283.554285 
L 344.253506 291.624195 
L 344.814545 292.1044 
L 345.562597 291.274507 
L 346.684675 292.338346 
L 347.245714 280.899612 
L 347.432727 291.70546 
L 347.61974 294.399535 
L 347.806753 292.552592 
L 348.928831 291.503528 
L 349.115844 294.015371 
L 349.302857 288.794678 
L 350.424935 288.51148 
L 353.978182 288.742964 
L 356.035325 290.373199 
L 357.718442 289.609796 
L 359.962597 283.014977 
L 374.175584 292.30387 
L 385.583377 291.823665 
L 394.934026 290.351035 
L 398.487273 292.867803 
L 398.487273 292.867803 
" style="fill:none;stroke:#0000ff;stroke-linecap:square;stroke-width:1.5;"/>
   </g>
   <g id="patch_3">
    <path d="M 57.6 307.584 
L 57.6 41.472 
" style="fill:none;stroke:#000000;stroke-linecap:square;stroke-linejoin:miter;stroke-width:0.8;"/>
   </g>
   <g id="patch_4">
    <path d="M 414.72 307.584 
L 414.72 41.472 
" style="fill:none;stroke:#000000;stroke-linecap:square;stroke-linejoin:miter;stroke-width:0.8;"/>
   </g>
   <g id="patch_5">
    <path d="M 57.6 307.584 
L 414.72 307.584 
" style="fill:none;stroke:#000000;stroke-linecap:square;stroke-linejoin:miter;stroke-width:0.8;"/>
   </g>
   <g id="patch_6">
    <path d="M 57.6 41.472 
L 414.72 41.472 
" style="fill:none;stroke:#000000;stroke-linecap:square;stroke-linejoin:miter;stroke-width:0.8;"/>
   </g>
   <g id="text_15">
    <!-- temperature-&gt;ping_night -->
    <g transform="translate(159.735938 35.472)scale(0.12 -0.12)">
     <defs>
      <path d="M 4.890625 31.390625 
L 31.203125 31.390625 
L 31.203125 23.390625 
L 4.890625 23.390625 
z
" id="DejaVuSans-45"/>
      <path d="M 10.59375 49.21875 
L 10.59375 58.109375 
L 73.1875 35.40625 
L 73.1875 27.296875 
L 10.59375 4.59375 
L 10.59375 13.484375 
L 60.890625 31.296875 
z
" id="DejaVuSans-62"/>
      <path d="M 9.421875 54.6875 
L 18.40625 54.6875 
L 18.40625 0 
L 9.421875 0 
z
M 9.421875 75.984375 
L 18.40625 75.984375 
L 18.40625 64.59375 
L 9.421875 64.59375 
z
" id="DejaVuSans-105"/>
      <path d="M 45.40625 27.984375 
Q 45.40625 37.75 41.375 43.109375 
Q 37.359375 48.484375 30.078125 48.484375 
Q 22.859375 48.484375 18.828125 43.109375 
Q 14.796875 37.75 14.796875 27.984375 
Q 14.796875 18.265625 18.828125 12.890625 
Q 22.859375 7.515625 30.078125 7.515625 
Q 37.359375 7.515625 41.375 12.890625 
Q 45.40625 18.265625 45.40625 27.984375 
z
M 54.390625 6.78125 
Q 54.390625 -7.171875 48.1875 -13.984375 
Q 42 -20.796875 29.203125 -20.796875 
Q 24.46875 -20.796875 20.265625 -20.09375 
Q 16.0625 -19.390625 12.109375 -17.921875 
L 12.109375 -9.1875 
Q 16.0625 -11.328125 19.921875 -12.34375 
Q 23.78125 -13.375 27.78125 -13.375 
Q 36.625 -13.375 41.015625 -8.765625 
Q 45.40625 -4.15625 45.40625 5.171875 
L 45.40625 9.625 
Q 42.625 4.78125 38.28125 2.390625 
Q 33.9375 0 27.875 0 
Q 17.828125 0 11.671875 7.65625 
Q 5.515625 15.328125 5.515625 27.984375 
Q 5.515625 40.671875 11.671875 48.328125 
Q 17.828125 56 27.875 56 
Q 33.9375 56 38.28125 53.609375 
Q 42.625 51.21875 45.40625 46.390625 
L 45.40625 54.6875 
L 54.390625 54.6875 
z
" id="DejaVuSans-103"/>
      <path d="M 50.984375 -16.609375 
L 50.984375 -23.578125 
L -0.984375 -23.578125 
L -0.984375 -16.609375 
z
" id="DejaVuSans-95"/>
     </defs>
     <use xlink:href="#DejaVuSans-116"/>
     <use x="39.208984" xlink:href="#DejaVuSans-101"/>
     <use x="100.732422" xlink:href="#DejaVuSans-109"/>
     <use x="198.144531" xlink:href="#DejaVuSans-112"/>
     <use x="261.621094" xlink:href="#DejaVuSans-101"/>
     <use x="323.144531" xlink:href="#DejaVuSans-114"/>
     <use x="364.257812" xlink:href="#DejaVuSans-97"/>
     <use x="425.537109" xlink:href="#DejaVuSans-116"/>
     <use x="464.746094" xlink:href="#DejaVuSans-117"/>
     <use x="528.125" xlink:href="#DejaVuSans-114"/>
     <use x="566.988281" xlink:href="#DejaVuSans-101"/>
     <use x="628.511719" xlink:href="#DejaVuSans-45"/>
     <use x="664.595703" xlink:href="#DejaVuSans-62"/>
     <use x="748.384766" xlink:href="#DejaVuSans-112"/>
     <use x="811.861328" xlink:href="#DejaVuSans-105"/>
     <use x="839.644531" xlink:href="#DejaVuSans-110"/>
     <use x="903.023438" xlink:href="#DejaVuSans-103"/>
     <use x="966.5" xlink:href="#DejaVuSans-95"/>
     <use x="1016.5" xlink:href="#DejaVuSans-110"/>
     <use x="1079.878906" xlink:href="#DejaVuSans-105"/>
     <use x="1107.662109" xlink:href="#DejaVuSans-103"/>
     <use x="1171.138672" xlink:href="#DejaVuSans-104"/>
     <use x="1234.517578" xlink:href="#DejaVuSans-116"/>
    </g>
   </g>
  </g>
  <g id="legend_1">
   <g id="patch_7">
    <path d="M 415.451563 22.678125 
L 453.8 22.678125 
Q 455.8 22.678125 455.8 20.678125 
L 455.8 7 
Q 455.8 5 453.8 5 
L 415.451563 5 
Q 413.451563 5 413.451563 7 
L 413.451563 20.678125 
Q 413.451563 22.678125 415.451563 22.678125 
z
" style="fill:#ffffff;opacity:0.8;stroke:#cccccc;stroke-linejoin:miter;"/>
   </g>
   <g id="line2d_15">
    <path d="M 417.451563 13.098438 
L 437.451563 13.098438 
" style="fill:none;stroke:#0000ff;stroke-linecap:square;stroke-width:1.5;"/>
   </g>
   <g id="line2d_16"/>
   <g id="text_16">
    <!-- p -->
    <g transform="translate(445.451563 16.598438)scale(0.1 -0.1)">
     <use xlink:href="#DejaVuSans-112"/>
    </g>
   </g>
  </g>
 </g>
 <defs>
  <clipPath id="p62e98cd6a9">
   <rect height="266.112" width="357.12" x="57.6" y="41.472"/>
  </clipPath>
 </defs>
</svg>
