<?xml version="1.0" encoding="utf-8" standalone="no"?>
<!DOCTYPE svg PUBLIC "-//W3C//DTD SVG 1.1//EN"
  "http://www.w3.org/Graphics/SVG/1.1/DTD/svg11.dtd">
<!-- Created with matplotlib (https://matplotlib.org/) -->
<svg height="345.6pt" version="1.1" viewBox="0 0 460.8 345.6" width="460.8pt" xmlns="http://www.w3.org/2000/svg" xmlns:xlink="http://www.w3.org/1999/xlink">
 <metadata>
  <rdf:RDF xmlns:cc="http://creativecommons.org/ns#" xmlns:dc="http://purl.org/dc/elements/1.1/" xmlns:rdf="http://www.w3.org/1999/02/22-rdf-syntax-ns#">
   <cc:Work>
    <dc:type rdf:resource="http://purl.org/dc/dcmitype/StillImage"/>
    <dc:date>2022-07-20T23:16:33.105977</dc:date>
    <dc:format>image/svg+xml</dc:format>
    <dc:creator>
     <cc:Agent>
      <dc:title>Matplotlib v3.3.2, https://matplotlib.org/</dc:title>
     </cc:Agent>
    </dc:creator>
   </cc:Work>
  </rdf:RDF>
 </metadata>
 <defs>
  <style type="text/css">*{stroke-linecap:butt;stroke-linejoin:round;}</style>
 </defs>
 <g id="figure_1">
  <g id="patch_1">
   <path d="M 0 345.6 
L 460.8 345.6 
L 460.8 0 
L 0 0 
z
" style="fill:#ffffff;"/>
  </g>
  <g id="axes_1">
   <g id="patch_2">
    <path d="M 57.6 307.584 
L 414.72 307.584 
L 414.72 41.472 
L 57.6 41.472 
z
" style="fill:#ffffff;"/>
   </g>
   <g id="matplotlib.axis_1">
    <g id="xtick_1">
     <g id="line2d_1">
      <defs>
       <path d="M 0 0 
L 0 3.5 
" id="m72a16a75b9" style="stroke:#000000;stroke-width:0.8;"/>
      </defs>
      <g>
       <use style="stroke:#000000;stroke-width:0.8;" x="60.632671" xlink:href="#m72a16a75b9" y="307.584"/>
      </g>
     </g>
     <g id="text_1">
      <!-- 5.0 -->
      <g transform="translate(52.681109 322.182437)scale(0.1 -0.1)">
       <defs>
        <path d="M 10.796875 72.90625 
L 49.515625 72.90625 
L 49.515625 64.59375 
L 19.828125 64.59375 
L 19.828125 46.734375 
Q 21.96875 47.46875 24.109375 47.828125 
Q 26.265625 48.1875 28.421875 48.1875 
Q 40.625 48.1875 47.75 41.5 
Q 54.890625 34.8125 54.890625 23.390625 
Q 54.890625 11.625 47.5625 5.09375 
Q 40.234375 -1.421875 26.90625 -1.421875 
Q 22.3125 -1.421875 17.546875 -0.640625 
Q 12.796875 0.140625 7.71875 1.703125 
L 7.71875 11.625 
Q 12.109375 9.234375 16.796875 8.0625 
Q 21.484375 6.890625 26.703125 6.890625 
Q 35.15625 6.890625 40.078125 11.328125 
Q 45.015625 15.765625 45.015625 23.390625 
Q 45.015625 31 40.078125 35.4375 
Q 35.15625 39.890625 26.703125 39.890625 
Q 22.75 39.890625 18.8125 39.015625 
Q 14.890625 38.140625 10.796875 36.28125 
z
" id="DejaVuSans-53"/>
        <path d="M 10.6875 12.40625 
L 21 12.40625 
L 21 0 
L 10.6875 0 
z
" id="DejaVuSans-46"/>
        <path d="M 31.78125 66.40625 
Q 24.171875 66.40625 20.328125 58.90625 
Q 16.5 51.421875 16.5 36.375 
Q 16.5 21.390625 20.328125 13.890625 
Q 24.171875 6.390625 31.78125 6.390625 
Q 39.453125 6.390625 43.28125 13.890625 
Q 47.125 21.390625 47.125 36.375 
Q 47.125 51.421875 43.28125 58.90625 
Q 39.453125 66.40625 31.78125 66.40625 
z
M 31.78125 74.21875 
Q 44.046875 74.21875 50.515625 64.515625 
Q 56.984375 54.828125 56.984375 36.375 
Q 56.984375 17.96875 50.515625 8.265625 
Q 44.046875 -1.421875 31.78125 -1.421875 
Q 19.53125 -1.421875 13.0625 8.265625 
Q 6.59375 17.96875 6.59375 36.375 
Q 6.59375 54.828125 13.0625 64.515625 
Q 19.53125 74.21875 31.78125 74.21875 
z
" id="DejaVuSans-48"/>
       </defs>
       <use xlink:href="#DejaVuSans-53"/>
       <use x="63.623047" xlink:href="#DejaVuSans-46"/>
       <use x="95.410156" xlink:href="#DejaVuSans-48"/>
      </g>
     </g>
    </g>
    <g id="xtick_2">
     <g id="line2d_2">
      <g>
       <use style="stroke:#000000;stroke-width:0.8;" x="102.405001" xlink:href="#m72a16a75b9" y="307.584"/>
      </g>
     </g>
     <g id="text_2">
      <!-- 7.5 -->
      <g transform="translate(94.453438 322.182437)scale(0.1 -0.1)">
       <defs>
        <path d="M 8.203125 72.90625 
L 55.078125 72.90625 
L 55.078125 68.703125 
L 28.609375 0 
L 18.3125 0 
L 43.21875 64.59375 
L 8.203125 64.59375 
z
" id="DejaVuSans-55"/>
       </defs>
       <use xlink:href="#DejaVuSans-55"/>
       <use x="63.623047" xlink:href="#DejaVuSans-46"/>
       <use x="95.410156" xlink:href="#DejaVuSans-53"/>
      </g>
     </g>
    </g>
    <g id="xtick_3">
     <g id="line2d_3">
      <g>
       <use style="stroke:#000000;stroke-width:0.8;" x="144.17733" xlink:href="#m72a16a75b9" y="307.584"/>
      </g>
     </g>
     <g id="text_3">
      <!-- 10.0 -->
      <g transform="translate(133.044518 322.182437)scale(0.1 -0.1)">
       <defs>
        <path d="M 12.40625 8.296875 
L 28.515625 8.296875 
L 28.515625 63.921875 
L 10.984375 60.40625 
L 10.984375 69.390625 
L 28.421875 72.90625 
L 38.28125 72.90625 
L 38.28125 8.296875 
L 54.390625 8.296875 
L 54.390625 0 
L 12.40625 0 
z
" id="DejaVuSans-49"/>
       </defs>
       <use xlink:href="#DejaVuSans-49"/>
       <use x="63.623047" xlink:href="#DejaVuSans-48"/>
       <use x="127.246094" xlink:href="#DejaVuSans-46"/>
       <use x="159.033203" xlink:href="#DejaVuSans-48"/>
      </g>
     </g>
    </g>
    <g id="xtick_4">
     <g id="line2d_4">
      <g>
       <use style="stroke:#000000;stroke-width:0.8;" x="185.94966" xlink:href="#m72a16a75b9" y="307.584"/>
      </g>
     </g>
     <g id="text_4">
      <!-- 12.5 -->
      <g transform="translate(174.816847 322.182437)scale(0.1 -0.1)">
       <defs>
        <path d="M 19.1875 8.296875 
L 53.609375 8.296875 
L 53.609375 0 
L 7.328125 0 
L 7.328125 8.296875 
Q 12.9375 14.109375 22.625 23.890625 
Q 32.328125 33.6875 34.8125 36.53125 
Q 39.546875 41.84375 41.421875 45.53125 
Q 43.3125 49.21875 43.3125 52.78125 
Q 43.3125 58.59375 39.234375 62.25 
Q 35.15625 65.921875 28.609375 65.921875 
Q 23.96875 65.921875 18.8125 64.3125 
Q 13.671875 62.703125 7.8125 59.421875 
L 7.8125 69.390625 
Q 13.765625 71.78125 18.9375 73 
Q 24.125 74.21875 28.421875 74.21875 
Q 39.75 74.21875 46.484375 68.546875 
Q 53.21875 62.890625 53.21875 53.421875 
Q 53.21875 48.921875 51.53125 44.890625 
Q 49.859375 40.875 45.40625 35.40625 
Q 44.1875 33.984375 37.640625 27.21875 
Q 31.109375 20.453125 19.1875 8.296875 
z
" id="DejaVuSans-50"/>
       </defs>
       <use xlink:href="#DejaVuSans-49"/>
       <use x="63.623047" xlink:href="#DejaVuSans-50"/>
       <use x="127.246094" xlink:href="#DejaVuSans-46"/>
       <use x="159.033203" xlink:href="#DejaVuSans-53"/>
      </g>
     </g>
    </g>
    <g id="xtick_5">
     <g id="line2d_5">
      <g>
       <use style="stroke:#000000;stroke-width:0.8;" x="227.721989" xlink:href="#m72a16a75b9" y="307.584"/>
      </g>
     </g>
     <g id="text_5">
      <!-- 15.0 -->
      <g transform="translate(216.589177 322.182437)scale(0.1 -0.1)">
       <use xlink:href="#DejaVuSans-49"/>
       <use x="63.623047" xlink:href="#DejaVuSans-53"/>
       <use x="127.246094" xlink:href="#DejaVuSans-46"/>
       <use x="159.033203" xlink:href="#DejaVuSans-48"/>
      </g>
     </g>
    </g>
    <g id="xtick_6">
     <g id="line2d_6">
      <g>
       <use style="stroke:#000000;stroke-width:0.8;" x="269.494319" xlink:href="#m72a16a75b9" y="307.584"/>
      </g>
     </g>
     <g id="text_6">
      <!-- 17.5 -->
      <g transform="translate(258.361507 322.182437)scale(0.1 -0.1)">
       <use xlink:href="#DejaVuSans-49"/>
       <use x="63.623047" xlink:href="#DejaVuSans-55"/>
       <use x="127.246094" xlink:href="#DejaVuSans-46"/>
       <use x="159.033203" xlink:href="#DejaVuSans-53"/>
      </g>
     </g>
    </g>
    <g id="xtick_7">
     <g id="line2d_7">
      <g>
       <use style="stroke:#000000;stroke-width:0.8;" x="311.266649" xlink:href="#m72a16a75b9" y="307.584"/>
      </g>
     </g>
     <g id="text_7">
      <!-- 20.0 -->
      <g transform="translate(300.133836 322.182437)scale(0.1 -0.1)">
       <use xlink:href="#DejaVuSans-50"/>
       <use x="63.623047" xlink:href="#DejaVuSans-48"/>
       <use x="127.246094" xlink:href="#DejaVuSans-46"/>
       <use x="159.033203" xlink:href="#DejaVuSans-48"/>
      </g>
     </g>
    </g>
    <g id="xtick_8">
     <g id="line2d_8">
      <g>
       <use style="stroke:#000000;stroke-width:0.8;" x="353.038978" xlink:href="#m72a16a75b9" y="307.584"/>
      </g>
     </g>
     <g id="text_8">
      <!-- 22.5 -->
      <g transform="translate(341.906166 322.182437)scale(0.1 -0.1)">
       <use xlink:href="#DejaVuSans-50"/>
       <use x="63.623047" xlink:href="#DejaVuSans-50"/>
       <use x="127.246094" xlink:href="#DejaVuSans-46"/>
       <use x="159.033203" xlink:href="#DejaVuSans-53"/>
      </g>
     </g>
    </g>
    <g id="xtick_9">
     <g id="line2d_9">
      <g>
       <use style="stroke:#000000;stroke-width:0.8;" x="394.811308" xlink:href="#m72a16a75b9" y="307.584"/>
      </g>
     </g>
     <g id="text_9">
      <!-- 25.0 -->
      <g transform="translate(383.678495 322.182437)scale(0.1 -0.1)">
       <use xlink:href="#DejaVuSans-50"/>
       <use x="63.623047" xlink:href="#DejaVuSans-53"/>
       <use x="127.246094" xlink:href="#DejaVuSans-46"/>
       <use x="159.033203" xlink:href="#DejaVuSans-48"/>
      </g>
     </g>
    </g>
    <g id="text_10">
     <!-- temperature from OpenWeatherMap -->
     <g transform="translate(144.963906 335.860562)scale(0.1 -0.1)">
      <defs>
       <path d="M 18.3125 70.21875 
L 18.3125 54.6875 
L 36.8125 54.6875 
L 36.8125 47.703125 
L 18.3125 47.703125 
L 18.3125 18.015625 
Q 18.3125 11.328125 20.140625 9.421875 
Q 21.96875 7.515625 27.59375 7.515625 
L 36.8125 7.515625 
L 36.8125 0 
L 27.59375 0 
Q 17.1875 0 13.234375 3.875 
Q 9.28125 7.765625 9.28125 18.015625 
L 9.28125 47.703125 
L 2.6875 47.703125 
L 2.6875 54.6875 
L 9.28125 54.6875 
L 9.28125 70.21875 
z
" id="DejaVuSans-116"/>
       <path d="M 56.203125 29.59375 
L 56.203125 25.203125 
L 14.890625 25.203125 
Q 15.484375 15.921875 20.484375 11.0625 
Q 25.484375 6.203125 34.421875 6.203125 
Q 39.59375 6.203125 44.453125 7.46875 
Q 49.3125 8.734375 54.109375 11.28125 
L 54.109375 2.78125 
Q 49.265625 0.734375 44.1875 -0.34375 
Q 39.109375 -1.421875 33.890625 -1.421875 
Q 20.796875 -1.421875 13.15625 6.1875 
Q 5.515625 13.8125 5.515625 26.8125 
Q 5.515625 40.234375 12.765625 48.109375 
Q 20.015625 56 32.328125 56 
Q 43.359375 56 49.78125 48.890625 
Q 56.203125 41.796875 56.203125 29.59375 
z
M 47.21875 32.234375 
Q 47.125 39.59375 43.09375 43.984375 
Q 39.0625 48.390625 32.421875 48.390625 
Q 24.90625 48.390625 20.390625 44.140625 
Q 15.875 39.890625 15.1875 32.171875 
z
" id="DejaVuSans-101"/>
       <path d="M 52 44.1875 
Q 55.375 50.25 60.0625 53.125 
Q 64.75 56 71.09375 56 
Q 79.640625 56 84.28125 50.015625 
Q 88.921875 44.046875 88.921875 33.015625 
L 88.921875 0 
L 79.890625 0 
L 79.890625 32.71875 
Q 79.890625 40.578125 77.09375 44.375 
Q 74.3125 48.1875 68.609375 48.1875 
Q 61.625 48.1875 57.5625 43.546875 
Q 53.515625 38.921875 53.515625 30.90625 
L 53.515625 0 
L 44.484375 0 
L 44.484375 32.71875 
Q 44.484375 40.625 41.703125 44.40625 
Q 38.921875 48.1875 33.109375 48.1875 
Q 26.21875 48.1875 22.15625 43.53125 
Q 18.109375 38.875 18.109375 30.90625 
L 18.109375 0 
L 9.078125 0 
L 9.078125 54.6875 
L 18.109375 54.6875 
L 18.109375 46.1875 
Q 21.1875 51.21875 25.484375 53.609375 
Q 29.78125 56 35.6875 56 
Q 41.65625 56 45.828125 52.96875 
Q 50 49.953125 52 44.1875 
z
" id="DejaVuSans-109"/>
       <path d="M 18.109375 8.203125 
L 18.109375 -20.796875 
L 9.078125 -20.796875 
L 9.078125 54.6875 
L 18.109375 54.6875 
L 18.109375 46.390625 
Q 20.953125 51.265625 25.265625 53.625 
Q 29.59375 56 35.59375 56 
Q 45.5625 56 51.78125 48.09375 
Q 58.015625 40.1875 58.015625 27.296875 
Q 58.015625 14.40625 51.78125 6.484375 
Q 45.5625 -1.421875 35.59375 -1.421875 
Q 29.59375 -1.421875 25.265625 0.953125 
Q 20.953125 3.328125 18.109375 8.203125 
z
M 48.6875 27.296875 
Q 48.6875 37.203125 44.609375 42.84375 
Q 40.53125 48.484375 33.40625 48.484375 
Q 26.265625 48.484375 22.1875 42.84375 
Q 18.109375 37.203125 18.109375 27.296875 
Q 18.109375 17.390625 22.1875 11.75 
Q 26.265625 6.109375 33.40625 6.109375 
Q 40.53125 6.109375 44.609375 11.75 
Q 48.6875 17.390625 48.6875 27.296875 
z
" id="DejaVuSans-112"/>
       <path d="M 41.109375 46.296875 
Q 39.59375 47.171875 37.8125 47.578125 
Q 36.03125 48 33.890625 48 
Q 26.265625 48 22.1875 43.046875 
Q 18.109375 38.09375 18.109375 28.8125 
L 18.109375 0 
L 9.078125 0 
L 9.078125 54.6875 
L 18.109375 54.6875 
L 18.109375 46.1875 
Q 20.953125 51.171875 25.484375 53.578125 
Q 30.03125 56 36.53125 56 
Q 37.453125 56 38.578125 55.875 
Q 39.703125 55.765625 41.0625 55.515625 
z
" id="DejaVuSans-114"/>
       <path d="M 34.28125 27.484375 
Q 23.390625 27.484375 19.1875 25 
Q 14.984375 22.515625 14.984375 16.5 
Q 14.984375 11.71875 18.140625 8.90625 
Q 21.296875 6.109375 26.703125 6.109375 
Q 34.1875 6.109375 38.703125 11.40625 
Q 43.21875 16.703125 43.21875 25.484375 
L 43.21875 27.484375 
z
M 52.203125 31.203125 
L 52.203125 0 
L 43.21875 0 
L 43.21875 8.296875 
Q 40.140625 3.328125 35.546875 0.953125 
Q 30.953125 -1.421875 24.3125 -1.421875 
Q 15.921875 -1.421875 10.953125 3.296875 
Q 6 8.015625 6 15.921875 
Q 6 25.140625 12.171875 29.828125 
Q 18.359375 34.515625 30.609375 34.515625 
L 43.21875 34.515625 
L 43.21875 35.40625 
Q 43.21875 41.609375 39.140625 45 
Q 35.0625 48.390625 27.6875 48.390625 
Q 23 48.390625 18.546875 47.265625 
Q 14.109375 46.140625 10.015625 43.890625 
L 10.015625 52.203125 
Q 14.9375 54.109375 19.578125 55.046875 
Q 24.21875 56 28.609375 56 
Q 40.484375 56 46.34375 49.84375 
Q 52.203125 43.703125 52.203125 31.203125 
z
" id="DejaVuSans-97"/>
       <path d="M 8.5 21.578125 
L 8.5 54.6875 
L 17.484375 54.6875 
L 17.484375 21.921875 
Q 17.484375 14.15625 20.5 10.265625 
Q 23.53125 6.390625 29.59375 6.390625 
Q 36.859375 6.390625 41.078125 11.03125 
Q 45.3125 15.671875 45.3125 23.6875 
L 45.3125 54.6875 
L 54.296875 54.6875 
L 54.296875 0 
L 45.3125 0 
L 45.3125 8.40625 
Q 42.046875 3.421875 37.71875 1 
Q 33.40625 -1.421875 27.6875 -1.421875 
Q 18.265625 -1.421875 13.375 4.4375 
Q 8.5 10.296875 8.5 21.578125 
z
M 31.109375 56 
z
" id="DejaVuSans-117"/>
       <path id="DejaVuSans-32"/>
       <path d="M 37.109375 75.984375 
L 37.109375 68.5 
L 28.515625 68.5 
Q 23.6875 68.5 21.796875 66.546875 
Q 19.921875 64.59375 19.921875 59.515625 
L 19.921875 54.6875 
L 34.71875 54.6875 
L 34.71875 47.703125 
L 19.921875 47.703125 
L 19.921875 0 
L 10.890625 0 
L 10.890625 47.703125 
L 2.296875 47.703125 
L 2.296875 54.6875 
L 10.890625 54.6875 
L 10.890625 58.5 
Q 10.890625 67.625 15.140625 71.796875 
Q 19.390625 75.984375 28.609375 75.984375 
z
" id="DejaVuSans-102"/>
       <path d="M 30.609375 48.390625 
Q 23.390625 48.390625 19.1875 42.75 
Q 14.984375 37.109375 14.984375 27.296875 
Q 14.984375 17.484375 19.15625 11.84375 
Q 23.34375 6.203125 30.609375 6.203125 
Q 37.796875 6.203125 41.984375 11.859375 
Q 46.1875 17.53125 46.1875 27.296875 
Q 46.1875 37.015625 41.984375 42.703125 
Q 37.796875 48.390625 30.609375 48.390625 
z
M 30.609375 56 
Q 42.328125 56 49.015625 48.375 
Q 55.71875 40.765625 55.71875 27.296875 
Q 55.71875 13.875 49.015625 6.21875 
Q 42.328125 -1.421875 30.609375 -1.421875 
Q 18.84375 -1.421875 12.171875 6.21875 
Q 5.515625 13.875 5.515625 27.296875 
Q 5.515625 40.765625 12.171875 48.375 
Q 18.84375 56 30.609375 56 
z
" id="DejaVuSans-111"/>
       <path d="M 39.40625 66.21875 
Q 28.65625 66.21875 22.328125 58.203125 
Q 16.015625 50.203125 16.015625 36.375 
Q 16.015625 22.609375 22.328125 14.59375 
Q 28.65625 6.59375 39.40625 6.59375 
Q 50.140625 6.59375 56.421875 14.59375 
Q 62.703125 22.609375 62.703125 36.375 
Q 62.703125 50.203125 56.421875 58.203125 
Q 50.140625 66.21875 39.40625 66.21875 
z
M 39.40625 74.21875 
Q 54.734375 74.21875 63.90625 63.9375 
Q 73.09375 53.65625 73.09375 36.375 
Q 73.09375 19.140625 63.90625 8.859375 
Q 54.734375 -1.421875 39.40625 -1.421875 
Q 24.03125 -1.421875 14.8125 8.828125 
Q 5.609375 19.09375 5.609375 36.375 
Q 5.609375 53.65625 14.8125 63.9375 
Q 24.03125 74.21875 39.40625 74.21875 
z
" id="DejaVuSans-79"/>
       <path d="M 54.890625 33.015625 
L 54.890625 0 
L 45.90625 0 
L 45.90625 32.71875 
Q 45.90625 40.484375 42.875 44.328125 
Q 39.84375 48.1875 33.796875 48.1875 
Q 26.515625 48.1875 22.3125 43.546875 
Q 18.109375 38.921875 18.109375 30.90625 
L 18.109375 0 
L 9.078125 0 
L 9.078125 54.6875 
L 18.109375 54.6875 
L 18.109375 46.1875 
Q 21.34375 51.125 25.703125 53.5625 
Q 30.078125 56 35.796875 56 
Q 45.21875 56 50.046875 50.171875 
Q 54.890625 44.34375 54.890625 33.015625 
z
" id="DejaVuSans-110"/>
       <path d="M 3.328125 72.90625 
L 13.28125 72.90625 
L 28.609375 11.28125 
L 43.890625 72.90625 
L 54.984375 72.90625 
L 70.3125 11.28125 
L 85.59375 72.90625 
L 95.609375 72.90625 
L 77.296875 0 
L 64.890625 0 
L 49.515625 63.28125 
L 33.984375 0 
L 21.578125 0 
z
" id="DejaVuSans-87"/>
       <path d="M 54.890625 33.015625 
L 54.890625 0 
L 45.90625 0 
L 45.90625 32.71875 
Q 45.90625 40.484375 42.875 44.328125 
Q 39.84375 48.1875 33.796875 48.1875 
Q 26.515625 48.1875 22.3125 43.546875 
Q 18.109375 38.921875 18.109375 30.90625 
L 18.109375 0 
L 9.078125 0 
L 9.078125 75.984375 
L 18.109375 75.984375 
L 18.109375 46.1875 
Q 21.34375 51.125 25.703125 53.5625 
Q 30.078125 56 35.796875 56 
Q 45.21875 56 50.046875 50.171875 
Q 54.890625 44.34375 54.890625 33.015625 
z
" id="DejaVuSans-104"/>
       <path d="M 9.8125 72.90625 
L 24.515625 72.90625 
L 43.109375 23.296875 
L 61.8125 72.90625 
L 76.515625 72.90625 
L 76.515625 0 
L 66.890625 0 
L 66.890625 64.015625 
L 48.09375 14.015625 
L 38.1875 14.015625 
L 19.390625 64.015625 
L 19.390625 0 
L 9.8125 0 
z
" id="DejaVuSans-77"/>
      </defs>
      <use xlink:href="#DejaVuSans-116"/>
      <use x="39.208984" xlink:href="#DejaVuSans-101"/>
      <use x="100.732422" xlink:href="#DejaVuSans-109"/>
      <use x="198.144531" xlink:href="#DejaVuSans-112"/>
      <use x="261.621094" xlink:href="#DejaVuSans-101"/>
      <use x="323.144531" xlink:href="#DejaVuSans-114"/>
      <use x="364.257812" xlink:href="#DejaVuSans-97"/>
      <use x="425.537109" xlink:href="#DejaVuSans-116"/>
      <use x="464.746094" xlink:href="#DejaVuSans-117"/>
      <use x="528.125" xlink:href="#DejaVuSans-114"/>
      <use x="566.988281" xlink:href="#DejaVuSans-101"/>
      <use x="628.511719" xlink:href="#DejaVuSans-32"/>
      <use x="660.298828" xlink:href="#DejaVuSans-102"/>
      <use x="695.503906" xlink:href="#DejaVuSans-114"/>
      <use x="734.367188" xlink:href="#DejaVuSans-111"/>
      <use x="795.548828" xlink:href="#DejaVuSans-109"/>
      <use x="892.960938" xlink:href="#DejaVuSans-32"/>
      <use x="924.748047" xlink:href="#DejaVuSans-79"/>
      <use x="1003.458984" xlink:href="#DejaVuSans-112"/>
      <use x="1066.935547" xlink:href="#DejaVuSans-101"/>
      <use x="1128.458984" xlink:href="#DejaVuSans-110"/>
      <use x="1191.837891" xlink:href="#DejaVuSans-87"/>
      <use x="1284.839844" xlink:href="#DejaVuSans-101"/>
      <use x="1346.363281" xlink:href="#DejaVuSans-97"/>
      <use x="1407.642578" xlink:href="#DejaVuSans-116"/>
      <use x="1446.851562" xlink:href="#DejaVuSans-104"/>
      <use x="1510.230469" xlink:href="#DejaVuSans-101"/>
      <use x="1571.753906" xlink:href="#DejaVuSans-114"/>
      <use x="1612.867188" xlink:href="#DejaVuSans-77"/>
      <use x="1699.146484" xlink:href="#DejaVuSans-97"/>
      <use x="1760.425781" xlink:href="#DejaVuSans-112"/>
     </g>
    </g>
   </g>
   <g id="matplotlib.axis_2">
    <g id="ytick_1">
     <g id="line2d_10">
      <defs>
       <path d="M 0 0 
L -3.5 0 
" id="m3753c3b231" style="stroke:#000000;stroke-width:0.8;"/>
      </defs>
      <g>
       <use style="stroke:#000000;stroke-width:0.8;" x="57.6" xlink:href="#m3753c3b231" y="262.327548"/>
      </g>
     </g>
     <g id="text_11">
      <!-- 20 -->
      <g transform="translate(37.875 266.126767)scale(0.1 -0.1)">
       <use xlink:href="#DejaVuSans-50"/>
       <use x="63.623047" xlink:href="#DejaVuSans-48"/>
      </g>
     </g>
    </g>
    <g id="ytick_2">
     <g id="line2d_11">
      <g>
       <use style="stroke:#000000;stroke-width:0.8;" x="57.6" xlink:href="#m3753c3b231" y="216.824355"/>
      </g>
     </g>
     <g id="text_12">
      <!-- 40 -->
      <g transform="translate(37.875 220.623574)scale(0.1 -0.1)">
       <defs>
        <path d="M 37.796875 64.3125 
L 12.890625 25.390625 
L 37.796875 25.390625 
z
M 35.203125 72.90625 
L 47.609375 72.90625 
L 47.609375 25.390625 
L 58.015625 25.390625 
L 58.015625 17.1875 
L 47.609375 17.1875 
L 47.609375 0 
L 37.796875 0 
L 37.796875 17.1875 
L 4.890625 17.1875 
L 4.890625 26.703125 
z
" id="DejaVuSans-52"/>
       </defs>
       <use xlink:href="#DejaVuSans-52"/>
       <use x="63.623047" xlink:href="#DejaVuSans-48"/>
      </g>
     </g>
    </g>
    <g id="ytick_3">
     <g id="line2d_12">
      <g>
       <use style="stroke:#000000;stroke-width:0.8;" x="57.6" xlink:href="#m3753c3b231" y="171.321162"/>
      </g>
     </g>
     <g id="text_13">
      <!-- 60 -->
      <g transform="translate(37.875 175.120381)scale(0.1 -0.1)">
       <defs>
        <path d="M 33.015625 40.375 
Q 26.375 40.375 22.484375 35.828125 
Q 18.609375 31.296875 18.609375 23.390625 
Q 18.609375 15.53125 22.484375 10.953125 
Q 26.375 6.390625 33.015625 6.390625 
Q 39.65625 6.390625 43.53125 10.953125 
Q 47.40625 15.53125 47.40625 23.390625 
Q 47.40625 31.296875 43.53125 35.828125 
Q 39.65625 40.375 33.015625 40.375 
z
M 52.59375 71.296875 
L 52.59375 62.3125 
Q 48.875 64.0625 45.09375 64.984375 
Q 41.3125 65.921875 37.59375 65.921875 
Q 27.828125 65.921875 22.671875 59.328125 
Q 17.53125 52.734375 16.796875 39.40625 
Q 19.671875 43.65625 24.015625 45.921875 
Q 28.375 48.1875 33.59375 48.1875 
Q 44.578125 48.1875 50.953125 41.515625 
Q 57.328125 34.859375 57.328125 23.390625 
Q 57.328125 12.15625 50.6875 5.359375 
Q 44.046875 -1.421875 33.015625 -1.421875 
Q 20.359375 -1.421875 13.671875 8.265625 
Q 6.984375 17.96875 6.984375 36.375 
Q 6.984375 53.65625 15.1875 63.9375 
Q 23.390625 74.21875 37.203125 74.21875 
Q 40.921875 74.21875 44.703125 73.484375 
Q 48.484375 72.75 52.59375 71.296875 
z
" id="DejaVuSans-54"/>
       </defs>
       <use xlink:href="#DejaVuSans-54"/>
       <use x="63.623047" xlink:href="#DejaVuSans-48"/>
      </g>
     </g>
    </g>
    <g id="ytick_4">
     <g id="line2d_13">
      <g>
       <use style="stroke:#000000;stroke-width:0.8;" x="57.6" xlink:href="#m3753c3b231" y="125.81797"/>
      </g>
     </g>
     <g id="text_14">
      <!-- 80 -->
      <g transform="translate(37.875 129.617188)scale(0.1 -0.1)">
       <defs>
        <path d="M 31.78125 34.625 
Q 24.75 34.625 20.71875 30.859375 
Q 16.703125 27.09375 16.703125 20.515625 
Q 16.703125 13.921875 20.71875 10.15625 
Q 24.75 6.390625 31.78125 6.390625 
Q 38.8125 6.390625 42.859375 10.171875 
Q 46.921875 13.96875 46.921875 20.515625 
Q 46.921875 27.09375 42.890625 30.859375 
Q 38.875 34.625 31.78125 34.625 
z
M 21.921875 38.8125 
Q 15.578125 40.375 12.03125 44.71875 
Q 8.5 49.078125 8.5 55.328125 
Q 8.5 64.0625 14.71875 69.140625 
Q 20.953125 74.21875 31.78125 74.21875 
Q 42.671875 74.21875 48.875 69.140625 
Q 55.078125 64.0625 55.078125 55.328125 
Q 55.078125 49.078125 51.53125 44.71875 
Q 48 40.375 41.703125 38.8125 
Q 48.828125 37.15625 52.796875 32.3125 
Q 56.78125 27.484375 56.78125 20.515625 
Q 56.78125 9.90625 50.3125 4.234375 
Q 43.84375 -1.421875 31.78125 -1.421875 
Q 19.734375 -1.421875 13.25 4.234375 
Q 6.78125 9.90625 6.78125 20.515625 
Q 6.78125 27.484375 10.78125 32.3125 
Q 14.796875 37.15625 21.921875 38.8125 
z
M 18.3125 54.390625 
Q 18.3125 48.734375 21.84375 45.5625 
Q 25.390625 42.390625 31.78125 42.390625 
Q 38.140625 42.390625 41.71875 45.5625 
Q 45.3125 48.734375 45.3125 54.390625 
Q 45.3125 60.0625 41.71875 63.234375 
Q 38.140625 66.40625 31.78125 66.40625 
Q 25.390625 66.40625 21.84375 63.234375 
Q 18.3125 60.0625 18.3125 54.390625 
z
" id="DejaVuSans-56"/>
       </defs>
       <use xlink:href="#DejaVuSans-56"/>
       <use x="63.623047" xlink:href="#DejaVuSans-48"/>
      </g>
     </g>
    </g>
    <g id="ytick_5">
     <g id="line2d_14">
      <g>
       <use style="stroke:#000000;stroke-width:0.8;" x="57.6" xlink:href="#m3753c3b231" y="80.314777"/>
      </g>
     </g>
     <g id="text_15">
      <!-- 100 -->
      <g transform="translate(31.5125 84.113996)scale(0.1 -0.1)">
       <use xlink:href="#DejaVuSans-49"/>
       <use x="63.623047" xlink:href="#DejaVuSans-48"/>
       <use x="127.246094" xlink:href="#DejaVuSans-48"/>
      </g>
     </g>
    </g>
    <g id="text_16">
     <!-- ping_night[ms] -->
     <g transform="translate(25.154687 212.17175)rotate(-90)scale(0.1 -0.1)">
      <defs>
       <path d="M 9.421875 54.6875 
L 18.40625 54.6875 
L 18.40625 0 
L 9.421875 0 
z
M 9.421875 75.984375 
L 18.40625 75.984375 
L 18.40625 64.59375 
L 9.421875 64.59375 
z
" id="DejaVuSans-105"/>
       <path d="M 45.40625 27.984375 
Q 45.40625 37.75 41.375 43.109375 
Q 37.359375 48.484375 30.078125 48.484375 
Q 22.859375 48.484375 18.828125 43.109375 
Q 14.796875 37.75 14.796875 27.984375 
Q 14.796875 18.265625 18.828125 12.890625 
Q 22.859375 7.515625 30.078125 7.515625 
Q 37.359375 7.515625 41.375 12.890625 
Q 45.40625 18.265625 45.40625 27.984375 
z
M 54.390625 6.78125 
Q 54.390625 -7.171875 48.1875 -13.984375 
Q 42 -20.796875 29.203125 -20.796875 
Q 24.46875 -20.796875 20.265625 -20.09375 
Q 16.0625 -19.390625 12.109375 -17.921875 
L 12.109375 -9.1875 
Q 16.0625 -11.328125 19.921875 -12.34375 
Q 23.78125 -13.375 27.78125 -13.375 
Q 36.625 -13.375 41.015625 -8.765625 
Q 45.40625 -4.15625 45.40625 5.171875 
L 45.40625 9.625 
Q 42.625 4.78125 38.28125 2.390625 
Q 33.9375 0 27.875 0 
Q 17.828125 0 11.671875 7.65625 
Q 5.515625 15.328125 5.515625 27.984375 
Q 5.515625 40.671875 11.671875 48.328125 
Q 17.828125 56 27.875 56 
Q 33.9375 56 38.28125 53.609375 
Q 42.625 51.21875 45.40625 46.390625 
L 45.40625 54.6875 
L 54.390625 54.6875 
z
" id="DejaVuSans-103"/>
       <path d="M 50.984375 -16.609375 
L 50.984375 -23.578125 
L -0.984375 -23.578125 
L -0.984375 -16.609375 
z
" id="DejaVuSans-95"/>
       <path d="M 8.59375 75.984375 
L 29.296875 75.984375 
L 29.296875 69 
L 17.578125 69 
L 17.578125 -6.203125 
L 29.296875 -6.203125 
L 29.296875 -13.1875 
L 8.59375 -13.1875 
z
" id="DejaVuSans-91"/>
       <path d="M 44.28125 53.078125 
L 44.28125 44.578125 
Q 40.484375 46.53125 36.375 47.5 
Q 32.28125 48.484375 27.875 48.484375 
Q 21.1875 48.484375 17.84375 46.4375 
Q 14.5 44.390625 14.5 40.28125 
Q 14.5 37.15625 16.890625 35.375 
Q 19.28125 33.59375 26.515625 31.984375 
L 29.59375 31.296875 
Q 39.15625 29.25 43.1875 25.515625 
Q 47.21875 21.78125 47.21875 15.09375 
Q 47.21875 7.46875 41.1875 3.015625 
Q 35.15625 -1.421875 24.609375 -1.421875 
Q 20.21875 -1.421875 15.453125 -0.5625 
Q 10.6875 0.296875 5.421875 2 
L 5.421875 11.28125 
Q 10.40625 8.6875 15.234375 7.390625 
Q 20.0625 6.109375 24.8125 6.109375 
Q 31.15625 6.109375 34.5625 8.28125 
Q 37.984375 10.453125 37.984375 14.40625 
Q 37.984375 18.0625 35.515625 20.015625 
Q 33.0625 21.96875 24.703125 23.78125 
L 21.578125 24.515625 
Q 13.234375 26.265625 9.515625 29.90625 
Q 5.8125 33.546875 5.8125 39.890625 
Q 5.8125 47.609375 11.28125 51.796875 
Q 16.75 56 26.8125 56 
Q 31.78125 56 36.171875 55.265625 
Q 40.578125 54.546875 44.28125 53.078125 
z
" id="DejaVuSans-115"/>
       <path d="M 30.421875 75.984375 
L 30.421875 -13.1875 
L 9.71875 -13.1875 
L 9.71875 -6.203125 
L 21.390625 -6.203125 
L 21.390625 69 
L 9.71875 69 
L 9.71875 75.984375 
z
" id="DejaVuSans-93"/>
      </defs>
      <use xlink:href="#DejaVuSans-112"/>
      <use x="63.476562" xlink:href="#DejaVuSans-105"/>
      <use x="91.259766" xlink:href="#DejaVuSans-110"/>
      <use x="154.638672" xlink:href="#DejaVuSans-103"/>
      <use x="218.115234" xlink:href="#DejaVuSans-95"/>
      <use x="268.115234" xlink:href="#DejaVuSans-110"/>
      <use x="331.494141" xlink:href="#DejaVuSans-105"/>
      <use x="359.277344" xlink:href="#DejaVuSans-103"/>
      <use x="422.753906" xlink:href="#DejaVuSans-104"/>
      <use x="486.132812" xlink:href="#DejaVuSans-116"/>
      <use x="525.341797" xlink:href="#DejaVuSans-91"/>
      <use x="564.355469" xlink:href="#DejaVuSans-109"/>
      <use x="661.767578" xlink:href="#DejaVuSans-115"/>
      <use x="713.867188" xlink:href="#DejaVuSans-93"/>
     </g>
    </g>
   </g>
   <g id="line2d_15">
    <path clip-path="url(#p90db383230)" d="M 73.832727 290.057194 
L 76.171978 292.120764 
L 76.506156 293.529088 
L 77.675782 286.089316 
L 77.842871 284.276013 
L 79.847943 254.551053 
L 83.189729 291.240277 
L 84.693533 291.879597 
L 84.860622 284.57861 
L 85.52898 292.182193 
L 85.696069 291.149271 
L 87.534051 290.64646 
L 88.202409 291.201599 
L 90.040391 292.534843 
L 90.20748 289.467928 
L 91.377106 291.565625 
L 91.711284 290.705614 
L 93.883445 294.450527 
L 95.554339 288.867285 
L 95.721428 293.14231 
L 96.055607 290.236932 
L 96.723964 290.389367 
L 96.891053 292.482514 
L 97.392321 290.478098 
L 97.55941 291.852295 
L 98.060678 287.529492 
L 98.394857 288.612468 
L 98.729036 293.406229 
L 99.063214 279.834902 
L 99.397393 276.110465 
L 100.06575 293.872637 
L 100.23284 284.148604 
L 100.399929 289.718195 
L 100.567018 291.263029 
L 100.901197 282.669751 
L 101.736643 291.324458 
L 102.237911 282.041807 
L 103.240447 289.597612 
L 103.574626 289.547558 
L 103.741715 285.497774 
L 104.242983 288.853634 
L 104.410073 290.978634 
L 104.744251 282.310275 
L 104.91134 292.295951 
L 105.245519 286.687683 
L 105.579698 291.70441 
L 105.746787 277.816835 
L 106.080966 71.980867 
L 106.749323 281.168145 
L 107.250591 268.215661 
L 107.58477 290.207354 
L 107.751859 281.247776 
L 108.086038 270.886699 
L 108.253127 285.682062 
L 108.587305 287.231446 
L 109.92402 236.311098 
L 110.091109 276.579148 
L 110.258199 191.804425 
L 110.926556 281.832492 
L 113.098717 288.369025 
L 113.265806 258.869306 
L 113.432896 256.243771 
L 113.599985 289.727296 
L 113.767074 277.627997 
L 114.101253 235.978924 
L 114.435432 278.174035 
L 115.270878 260.794091 
L 115.437968 286.075665 
L 115.939235 282.38308 
L 116.106325 254.919628 
L 116.607593 291.333558 
L 116.941771 279.889505 
L 117.108861 291.852295 
L 117.443039 289.961637 
L 117.610129 290.298361 
L 117.777218 285.570579 
L 117.944307 289.897933 
L 118.111397 288.307596 
L 118.445575 281.193172 
L 118.779754 290.266509 
L 119.113933 285.950531 
L 119.281022 275.987607 
L 119.448111 281.250051 
L 119.78229 283.7368 
L 119.949379 290.337039 
L 120.283558 285.115547 
L 120.450647 274.394995 
L 120.951915 278.417477 
L 121.119004 289.392847 
L 121.453183 244.904376 
L 122.28863 279.500453 
L 122.455719 290.489474 
L 122.622808 288.862735 
L 122.789898 290.325663 
L 122.956987 293.335699 
L 123.124076 272.665874 
L 123.792433 292.514366 
L 123.959523 284.057598 
L 124.126612 292.942096 
L 124.460791 291.697584 
L 124.794969 291.731711 
L 125.463327 285.352164 
L 125.630416 278.037526 
L 125.797505 287.390707 
L 125.964595 280.121572 
L 127.468398 276.590524 
L 128.136756 219.201897 
L 128.638024 281.568573 
L 128.972202 262.42538 
L 129.306381 271.018658 
L 129.64056 291.911449 
L 130.476006 280.983857 
L 130.810185 233.264659 
L 130.977274 276.758886 
L 131.311453 290.248307 
L 131.97981 201.155331 
L 132.146899 287.397532 
L 132.481078 288.473683 
L 133.650703 261.995375 
L 133.817793 285.989208 
L 134.48615 284.665066 
L 134.653239 285.891377 
L 134.820328 288.919614 
L 134.987418 288.830883 
L 135.321596 292.657701 
L 135.488686 288.369025 
L 135.822864 292.295951 
L 135.989954 290.830748 
L 136.324132 232.186233 
L 136.658311 226.794105 
L 136.99249 287.413458 
L 137.326668 250.906247 
L 138.162115 276.18327 
L 138.329204 272.979846 
L 138.496293 258.687293 
L 139.33174 200.852735 
L 139.833008 285.01999 
L 140.000097 289.015171 
L 140.501365 180.273916 
L 140.835544 170.618138 
L 141.169723 287.741081 
L 141.336812 286.325932 
L 141.83808 293.372102 
L 142.005169 291.028687 
L 142.172258 290.462172 
L 142.339348 284.369295 
L 142.506437 290.810272 
L 142.840616 283.704948 
L 143.007705 290.908104 
L 143.341884 287.50219 
L 143.508973 278.360598 
L 143.676062 287.779759 
L 143.843152 290.780695 
L 144.010241 279.548232 
L 144.17733 279.841727 
L 144.34442 279.425373 
L 144.511509 240.663478 
L 144.678598 288.014101 
L 145.012777 233.082646 
L 145.179866 124.785047 
L 145.346956 282.581019 
L 145.514045 285.165601 
L 145.681134 285.668411 
L 146.015313 272.772806 
L 146.182402 292.475689 
L 146.349491 281.386561 
L 146.516581 285.247506 
L 146.68367 285.397667 
L 146.850759 289.699994 
L 147.686206 293.135485 
L 147.853295 292.104838 
L 148.187474 281.088515 
L 148.354563 280.522 
L 148.521653 287.14499 
L 148.688742 288.073255 
L 149.022921 293.820308 
L 149.19001 290.744292 
L 149.357099 291.133344 
L 149.858367 291.406364 
L 150.192546 233.112223 
L 150.359635 278.704147 
L 150.526724 288.07098 
L 150.693814 290.384817 
L 150.860903 283.632143 
L 151.027992 282.242021 
L 151.195082 289.802376 
L 151.52926 290.64646 
L 151.69635 286.539797 
L 152.197618 293.014901 
L 152.364707 288.967392 
L 152.531796 258.885232 
L 153.033064 291.602027 
L 153.367243 283.295419 
L 153.534332 289.012896 
L 153.701421 212.162553 
L 153.868511 286.323657 
L 154.0356 291.49737 
L 154.202689 277.266246 
L 154.536868 291.77949 
L 155.038136 292.632675 
L 155.205225 291.972878 
L 155.539404 289.442901 
L 155.706493 290.701064 
L 156.040672 279.527755 
L 156.207761 286.198523 
L 156.374851 267.075806 
L 156.709029 290.662386 
L 156.876118 284.66279 
L 157.043208 286.9425 
L 157.210297 286.303181 
L 157.711565 292.571245 
L 157.878654 291.260753 
L 158.045744 280.851898 
L 158.212833 253.602311 
L 158.547012 279.646063 
L 158.714101 168.44081 
L 158.88119 291.599752 
L 159.04828 274.927382 
L 159.215369 292.150341 
L 159.549548 287.372506 
L 159.716637 275.994432 
L 159.883726 281.063488 
L 160.217905 278.299169 
L 160.552083 288.944641 
L 160.719173 277.841862 
L 161.053351 290.596407 
L 161.554619 275.748715 
L 161.721709 232.204435 
L 162.055887 289.110728 
L 162.390066 294.295816 
L 162.557155 287.147265 
L 162.724245 290.14365 
L 162.891334 290.00714 
L 163.058423 289.709095 
L 163.225513 293.672423 
L 163.392602 277.982922 
L 163.559691 278.092129 
L 163.726781 271.500992 
L 164.060959 289.138029 
L 164.228048 288.869561 
L 164.562227 284.128128 
L 164.729316 285.070044 
L 164.896406 292.657701 
L 165.063495 285.395392 
L 165.230584 291.993355 
L 165.397674 284.451201 
L 165.564763 290.393918 
L 165.731852 282.057733 
L 165.898942 284.021195 
L 166.066031 280.242155 
L 166.40021 256.630548 
L 166.567299 287.160916 
L 166.734388 279.045421 
L 166.901478 286.00741 
L 167.068567 244.233204 
L 167.235656 232.93021 
L 167.402746 286.771863 
L 167.569835 293.319773 
L 167.736924 288.65342 
L 167.904013 288.36675 
L 168.071103 245.329831 
L 168.238192 284.146329 
L 168.572371 293.656496 
L 168.73946 253.743371 
L 168.906549 281.045287 
L 169.073639 151.038114 
L 169.240728 280.965656 
L 169.407817 291.941026 
L 169.574907 281.891646 
L 169.909085 271.089188 
L 170.076175 284.612737 
L 170.243264 281.491218 
L 170.577443 289.634014 
L 170.744532 288.796755 
L 170.911621 290.368891 
L 171.2458 282.037256 
L 171.579978 278.267317 
L 171.914157 290.748842 
L 172.081246 292.452937 
L 172.248336 287.199593 
L 172.415425 285.475022 
L 172.582514 287.666001 
L 172.749604 292.803312 
L 173.083782 290.152751 
L 173.250872 284.196383 
L 173.417961 285.550103 
L 173.75214 280.94973 
L 173.919229 292.225421 
L 174.086318 285.882276 
L 174.253408 285.94143 
L 174.420497 291.627054 
L 174.587586 291.199324 
L 174.754676 288.692098 
L 174.921765 195.399177 
L 175.088854 289.561209 
L 175.255943 288.421354 
L 175.423033 288.646595 
L 175.757211 292.075261 
L 175.924301 289.36327 
L 176.09139 290.846674 
L 176.425569 283.755002 
L 176.759747 287.927645 
L 176.926837 288.321247 
L 177.093926 291.231176 
L 177.261015 257.681672 
L 177.428105 256.616897 
L 177.595194 286.416939 
L 177.929373 203.462343 
L 178.096462 280.653959 
L 178.263551 281.914398 
L 178.430641 287.329278 
L 178.59773 282.405832 
L 178.764819 291.99108 
L 178.931908 286.382811 
L 179.098998 243.061496 
L 179.433176 267.583167 
L 179.767355 257.372251 
L 180.268623 290.166402 
L 180.435712 290.00714 
L 180.602802 234.99378 
L 180.769891 289.240412 
L 181.10407 286.667206 
L 181.271159 262.398078 
L 181.438248 288.193838 
L 181.605338 194.093235 
L 181.772427 269.244034 
L 181.939516 249.827821 
L 182.106606 271.005007 
L 182.273695 254.241631 
L 182.440784 291.581551 
L 182.607873 290.352965 
L 182.774963 257.633894 
L 182.942052 251.886841 
L 183.109141 282.979172 
L 183.276231 290.346139 
L 183.44332 289.069775 
L 183.610409 255.859269 
L 183.777499 267.724227 
L 183.944588 287.50674 
L 184.111677 265.087317 
L 184.445856 288.300771 
L 184.612945 287.306526 
L 184.780035 289.986664 
L 184.947124 282.521865 
L 185.114213 239.33251 
L 185.281303 283.843733 
L 185.448392 291.586101 
L 185.615481 288.576065 
L 185.782571 281.272803 
L 185.94966 282.842663 
L 186.116749 292.177643 
L 186.283838 279.495903 
L 186.450928 282.906367 
L 186.785106 260.689433 
L 187.119285 294.912385 
L 187.286374 292.209495 
L 187.453464 276.151418 
L 187.620553 291.815892 
L 187.787642 260.464192 
L 187.954732 285.406768 
L 188.28891 252.253141 
L 188.623089 290.346139 
L 188.790178 286.689958 
L 188.957268 280.114746 
L 189.124357 266.625325 
L 189.291446 286.107517 
L 189.625625 252.134833 
L 189.792714 289.069775 
L 189.959803 53.568 
L 190.126893 279.684741 
L 190.461071 290.937681 
L 190.79525 283.547962 
L 190.962339 288.469133 
L 191.129429 281.743761 
L 191.296518 280.535651 
L 191.463607 282.239745 
L 191.630697 242.431277 
L 191.797786 289.7819 
L 191.964875 293.599617 
L 192.131965 291.203874 
L 192.633233 289.035647 
L 192.800322 282.501389 
L 192.967411 292.384682 
L 193.134501 287.713779 
L 193.30159 293.146861 
L 193.468679 290.726091 
L 193.802858 288.500985 
L 193.969947 282.044082 
L 194.137036 291.661181 
L 194.304126 289.624914 
L 194.471215 267.517187 
L 194.805394 287.989074 
L 194.972483 244.385639 
L 195.139572 294.334494 
L 195.306662 289.959362 
L 195.473751 289.597612 
L 195.64084 278.422028 
L 195.80793 291.804517 
L 195.975019 289.709095 
L 196.142108 292.607648 
L 196.309198 246.708577 
L 196.476287 286.200798 
L 196.643376 291.197049 
L 196.810466 286.441965 
L 196.977555 265.976904 
L 197.144644 286.683132 
L 197.478823 290.532702 
L 197.645912 290.241482 
L 197.980091 288.473683 
L 198.481359 262.052254 
L 198.648448 289.834228 
L 198.815537 292.14124 
L 198.982627 254.264382 
L 199.149716 287.606847 
L 199.316805 252.503409 
L 199.483895 257.850034 
L 199.818073 291.142445 
L 199.985163 280.674436 
L 200.152252 292.99215 
L 200.319341 289.274539 
L 200.486431 263.742698 
L 200.65352 285.420419 
L 200.820609 289.663591 
L 200.987698 270.431667 
L 201.154788 268.279366 
L 201.321877 287.072184 
L 201.488966 292.036583 
L 201.823145 290.610058 
L 201.990234 283.973417 
L 202.157324 285.761693 
L 202.324413 259.72249 
L 202.658592 268.481855 
L 202.825681 291.824993 
L 202.99277 252.250866 
L 203.15986 292.14579 
L 203.326949 291.536048 
L 203.494038 292.079811 
L 203.661128 286.762763 
L 203.828217 268.493231 
L 203.995306 291.777215 
L 204.162396 155.292663 
L 204.329485 288.72395 
L 204.496574 290.152751 
L 204.663664 282.480912 
L 204.830753 289.770524 
L 204.997842 291.485994 
L 205.164931 227.415223 
L 205.332021 283.447855 
L 205.49911 290.730641 
L 205.666199 247.234139 
L 205.833289 285.186077 
L 206.000378 291.451867 
L 206.167467 157.852217 
L 206.334557 285.186077 
L 206.501646 289.513431 
L 206.835825 281.475292 
L 207.002914 280.992958 
L 207.170003 290.833023 
L 207.337093 292.393783 
L 207.504182 253.031246 
L 207.671271 293.221941 
L 208.00545 287.982248 
L 208.172539 290.560004 
L 208.506718 218.1758 
L 208.673807 289.467928 
L 209.007986 281.573124 
L 209.175075 230.470763 
L 209.342164 286.962977 
L 209.509254 265.412665 
L 209.676343 288.425904 
L 209.843432 285.538727 
L 210.010522 287.483988 
L 210.177611 290.876251 
L 210.3447 252.537536 
L 210.51179 280.767717 
L 210.678879 247.17271 
L 210.845968 291.545148 
L 211.347236 292.123039 
L 211.681415 284.790199 
L 211.848504 264.786996 
L 212.015594 288.161986 
L 212.516861 258.632689 
L 212.85104 288.687548 
L 213.018129 287.274674 
L 213.686487 284.669616 
L 213.853576 276.549571 
L 214.020665 262.147811 
L 214.187755 292.323253 
L 214.354844 281.136293 
L 214.521933 283.525211 
L 214.689023 287.654625 
L 214.856112 285.65476 
L 215.023201 291.299431 
L 215.190291 290.769319 
L 215.35738 268.720747 
L 215.524469 206.447352 
L 216.359916 286.416939 
L 216.527005 274.10605 
L 216.694094 242.299318 
L 216.861184 242.815779 
L 217.195362 290.846674 
L 217.362452 289.618088 
L 217.529541 244.717813 
L 217.69663 292.086636 
L 217.86372 288.960567 
L 218.197898 286.685407 
L 218.364988 278.515309 
L 218.532077 290.946781 
L 218.699166 286.815091 
L 218.866256 292.92617 
L 219.033345 272.813759 
L 219.200434 289.995765 
L 219.367524 227.356069 
L 219.534613 283.777753 
L 219.701702 291.463243 
L 219.868791 290.987734 
L 220.370059 280.849623 
L 220.537149 270.852571 
L 220.704238 289.902483 
L 220.871327 236.998196 
L 221.038417 245.420837 
L 221.205506 292.682728 
L 221.372595 228.884977 
L 221.539685 283.609392 
L 221.706774 282.107786 
L 221.873863 283.600291 
L 222.208042 271.899145 
L 222.375131 291.813617 
L 222.542221 278.419752 
L 222.70931 291.438216 
L 222.876399 264.081696 
L 223.210578 288.896863 
L 223.544756 270.943578 
L 223.878935 292.739607 
L 224.213114 293.030828 
L 224.714382 270.625055 
L 224.881471 270.031239 
L 225.04856 288.655696 
L 225.21565 267.808408 
L 225.382739 270.736538 
L 225.549828 295.251383 
L 225.716918 275.421092 
L 225.884007 279.828076 
L 226.051096 117.534113 
L 226.552364 274.847752 
L 226.719454 278.904361 
L 226.886543 250.849368 
L 227.053632 288.601092 
L 227.220721 291.294881 
L 227.387811 227.579035 
L 227.5549 260.530172 
L 227.721989 241.088933 
L 227.889079 240.699881 
L 228.056168 285.258882 
L 228.557436 253.932209 
L 228.724525 289.834228 
L 228.891615 291.649806 
L 229.058704 222.339342 
L 229.225793 284.185007 
L 229.392883 234.249803 
L 229.559972 287.731981 
L 229.727061 271.346281 
L 229.894151 292.871566 
L 230.06124 262.600567 
L 230.228329 287.538592 
L 230.395419 291.629329 
L 230.562508 284.997239 
L 230.896686 253.631888 
L 231.063776 290.478098 
L 231.230865 284.000719 
L 231.565044 292.755533 
L 231.732133 271.303053 
L 231.899222 67.357743 
L 232.066312 291.63843 
L 232.233401 290.598682 
L 232.56758 289.991214 
L 232.734669 247.382025 
L 232.901758 289.7819 
L 233.068848 284.972212 
L 233.235937 202.802546 
L 233.403026 287.968597 
L 233.737205 287.540867 
L 233.904294 264.086247 
L 234.071384 187.263206 
L 234.238473 281.746036 
L 234.405562 276.795288 
L 234.739741 283.015575 
L 234.90683 282.669751 
L 235.073919 288.553313 
L 235.241009 251.179266 
L 235.575187 289.097077 
L 235.742277 239.582777 
L 235.909366 294.705345 
L 236.076455 292.782835 
L 236.243545 238.506627 
L 236.410634 284.360194 
L 236.577723 290.534977 
L 236.911902 266.488815 
L 237.078991 280.301309 
L 237.246081 274.090124 
L 237.41317 284.043947 
L 237.747349 260.398213 
L 237.914438 293.271995 
L 238.248616 280.890576 
L 238.415706 242.11958 
L 238.749884 282.114612 
L 239.251152 292.382407 
L 239.418242 278.81108 
L 239.75242 292.557594 
L 239.91951 292.245898 
L 240.086599 291.565625 
L 240.420778 288.86046 
L 240.587867 208.112769 
L 240.922046 291.413189 
L 241.089135 287.693303 
L 241.256224 250.915347 
L 241.757492 291.781765 
L 242.091671 281.896196 
L 242.425849 284.680992 
L 242.592939 292.896593 
L 242.760028 279.279763 
L 242.927117 289.770524 
L 243.094207 286.021061 
L 243.261296 251.88229 
L 243.428385 287.413458 
L 243.762564 286.50567 
L 243.929653 257.165211 
L 244.263832 261.317377 
L 244.430921 269.473825 
L 244.598011 284.717394 
L 244.7651 283.632143 
L 244.932189 289.993489 
L 245.099279 290.607783 
L 245.433457 260.625729 
L 245.600546 287.331553 
L 245.767636 229.249002 
L 245.934725 286.671756 
L 246.435993 259.756618 
L 246.603082 291.900073 
L 246.770172 235.294101 
L 246.937261 282.342128 
L 247.10435 265.219276 
L 247.27144 286.316831 
L 247.438529 241.487086 
L 247.605618 288.566964 
L 247.772708 234.732137 
L 248.106886 290.821648 
L 248.273976 267.41253 
L 248.608154 281.045287 
L 248.775244 268.015447 
L 248.942333 289.85698 
L 249.109422 278.638168 
L 249.276511 248.116901 
L 249.443601 276.831691 
L 249.944869 292.371031 
L 250.279047 275.270931 
L 250.613226 284.619562 
L 250.780315 282.328477 
L 251.114494 74.017135 
L 251.281583 292.189019 
L 251.448673 216.872134 
L 251.615762 246.192116 
L 252.11703 286.441965 
L 252.451209 258.009295 
L 252.618298 283.218064 
L 252.952476 241.680474 
L 253.119566 292.903419 
L 253.286655 284.255537 
L 253.453744 282.722079 
L 253.787923 247.980391 
L 253.955012 291.911449 
L 254.289191 290.132274 
L 254.62337 234.898224 
L 254.790459 292.687278 
L 254.957548 290.514501 
L 255.124638 293.130935 
L 255.291727 291.126519 
L 255.458816 287.019856 
L 255.960084 292.075261 
L 256.127174 282.050907 
L 256.461352 287.948121 
L 256.795531 290.630534 
L 256.96262 287.670551 
L 257.129709 291.720336 
L 257.463888 290.603232 
L 257.630977 271.516918 
L 258.132245 285.820847 
L 258.299335 273.751125 
L 258.800603 278.055727 
L 258.967692 291.574725 
L 259.134781 232.381897 
L 259.301871 278.915737 
L 259.636049 293.465383 
L 259.803139 289.215385 
L 259.970228 278.690496 
L 260.137317 284.776548 
L 260.805674 287.518116 
L 260.972764 283.627593 
L 261.139853 284.180457 
L 261.306942 287.347479 
L 261.641121 183.622951 
L 262.142389 291.201599 
L 262.309478 274.344941 
L 262.476568 281.525345 
L 262.810746 209.971574 
L 263.479104 280.747241 
L 263.646193 280.722214 
L 263.813282 291.690759 
L 263.980371 284.458026 
L 264.147461 290.393918 
L 264.815818 281.675506 
L 265.149997 285.497774 
L 265.651265 292.837439 
L 265.818354 293.961368 
L 265.985443 290.812547 
L 266.319622 291.103767 
L 266.653801 280.076069 
L 266.82089 285.502324 
L 267.155069 284.640039 
L 267.322158 249.129347 
L 267.489247 284.51263 
L 267.823426 292.49844 
L 267.990515 239.655582 
L 268.157604 289.178982 
L 268.324694 291.720336 
L 268.825962 286.371435 
L 268.993051 292.646326 
L 269.32723 276.988677 
L 269.828498 274.39727 
L 269.995587 285.145124 
L 270.329766 289.813752 
L 270.663944 283.984793 
L 270.998123 292.182193 
L 271.165212 287.611397 
L 271.332302 289.622638 
L 271.833569 291.253928 
L 272.000659 289.674967 
L 272.334837 200.736702 
L 272.501927 283.334097 
L 272.669016 287.782034 
L 272.836105 285.975558 
L 273.337373 292.666802 
L 273.504463 292.07071 
L 273.671552 290.660111 
L 274.005731 286.432865 
L 274.339909 291.836369 
L 274.506999 232.948412 
L 274.674088 253.87988 
L 274.841177 290.666937 
L 275.008267 292.437011 
L 275.175356 290.314287 
L 275.342445 130.891576 
L 275.509534 292.591722 
L 275.676624 291.43139 
L 276.010802 291.517846 
L 276.177892 291.740812 
L 276.344981 286.316831 
L 276.51207 289.588511 
L 276.67916 289.156231 
L 277.013338 261.180868 
L 277.848785 290.99456 
L 278.182964 287.666001 
L 278.517142 293.358451 
L 278.851321 292.753258 
L 279.185499 268.172433 
L 279.352589 295.488 
L 279.519678 238.595358 
L 279.853857 270.650082 
L 280.355125 294.052374 
L 280.856393 277.120636 
L 281.023482 289.008345 
L 281.190571 278.647268 
L 281.357661 291.28578 
L 281.52475 291.565625 
L 281.691839 292.91707 
L 281.858929 272.069782 
L 282.026018 293.051304 
L 282.193107 293.324323 
L 282.527286 288.50326 
L 282.861464 258.032047 
L 283.195643 290.70789 
L 283.362732 289.697719 
L 283.696911 292.380132 
L 284.198179 273.091328 
L 284.532358 288.78538 
L 284.699447 281.202273 
L 284.866536 292.266374 
L 285.033626 246.672175 
L 285.534894 292.853365 
L 285.701983 255.847894 
L 285.869072 292.91707 
L 286.036162 291.36086 
L 286.871608 290.914929 
L 287.038697 248.867704 
L 287.372876 285.788994 
L 288.208323 293.624644 
L 288.542501 291.911449 
L 288.87668 287.210969 
L 290.213394 253.873055 
L 291.717198 281.006609 
L 292.051377 229.881497 
L 292.385556 294.516507 
L 293.221002 288.364475 
L 293.555181 290.009416 
L 294.557717 201.783275 
L 294.724806 232.416024 
L 295.226074 289.00152 
L 295.727342 271.450938 
L 296.061521 291.71806 
L 296.22861 245.689306 
L 296.562789 285.788994 
L 296.896967 292.007006 
L 297.398235 255.272278 
L 297.565324 293.246968 
L 297.732414 281.602701 
L 298.066592 290.305186 
L 298.902039 248.308014 
L 299.403307 291.941026 
L 299.904575 289.28364 
L 300.405843 290.687413 
L 300.572932 294.63254 
L 300.740022 290.400743 
L 300.907111 291.517846 
L 301.0742 283.780028 
L 302.076736 292.894318 
L 302.745093 290.216455 
L 303.079272 293.358451 
L 303.58054 291.303981 
L 304.081808 293.171887 
L 304.415987 287.818437 
L 304.750165 292.596272 
L 305.084344 288.039127 
L 305.752701 281.564023 
L 306.08688 290.387092 
L 306.755237 251.980122 
L 307.423594 289.126654 
L 307.757773 292.91707 
L 308.259041 286.567099 
L 309.094487 292.728231 
L 309.261577 290.621434 
L 309.428666 279.461775 
L 310.598291 289.556659 
L 310.765381 292.364206 
L 311.099559 291.046888 
L 311.600827 293.233317 
L 311.935006 284.462576 
L 312.102095 291.918275 
L 312.603363 292.361931 
L 313.27172 291.595202 
L 314.274256 292.578071 
L 314.775524 282.009954 
L 314.942614 291.993355 
L 315.109703 280.788194 
L 315.276792 284.630938 
L 315.443882 282.355779 
L 315.77806 239.155047 
L 315.945149 290.901278 
L 316.279328 291.806792 
L 316.446417 294.127455 
L 316.613507 289.304116 
L 317.616043 289.042473 
L 318.618579 292.512091 
L 318.952757 266.004206 
L 319.788204 292.685003 
L 320.62365 286.237201 
L 320.79074 289.256338 
L 320.957829 289.392847 
L 321.626186 282.401282 
L 322.294544 283.534311 
L 322.628722 290.762493 
L 323.12999 291.947852 
L 323.798347 256.157315 
L 324.132526 290.057194 
L 324.299615 292.521192 
L 324.633794 292.575796 
L 326.137598 261.032982 
L 327.808491 290.903553 
L 329.479384 281.031636 
L 334.826242 281.903022 
L 339.003475 293.299296 
L 342.345262 291.752188 
L 349.028835 292.102562 
L 350.532638 293.661047 
L 356.882032 290.00259 
L 357.3833 290.742017 
L 360.557997 293.06723 
L 369.246642 284.706018 
L 370.583357 290.978634 
L 379.43909 293.069505 
L 394.978397 238.745519 
L 397.317647 293.06723 
L 398.487273 291.338109 
L 398.487273 291.338109 
" style="fill:none;stroke:#0000ff;stroke-linecap:square;stroke-width:1.5;"/>
   </g>
   <g id="patch_3">
    <path d="M 57.6 307.584 
L 57.6 41.472 
" style="fill:none;stroke:#000000;stroke-linecap:square;stroke-linejoin:miter;stroke-width:0.8;"/>
   </g>
   <g id="patch_4">
    <path d="M 414.72 307.584 
L 414.72 41.472 
" style="fill:none;stroke:#000000;stroke-linecap:square;stroke-linejoin:miter;stroke-width:0.8;"/>
   </g>
   <g id="patch_5">
    <path d="M 57.6 307.584 
L 414.72 307.584 
" style="fill:none;stroke:#000000;stroke-linecap:square;stroke-linejoin:miter;stroke-width:0.8;"/>
   </g>
   <g id="patch_6">
    <path d="M 57.6 41.472 
L 414.72 41.472 
" style="fill:none;stroke:#000000;stroke-linecap:square;stroke-linejoin:miter;stroke-width:0.8;"/>
   </g>
   <g id="text_17">
    <!-- temperature-&gt;ping_night -->
    <g transform="translate(159.735938 35.472)scale(0.12 -0.12)">
     <defs>
      <path d="M 4.890625 31.390625 
L 31.203125 31.390625 
L 31.203125 23.390625 
L 4.890625 23.390625 
z
" id="DejaVuSans-45"/>
      <path d="M 10.59375 49.21875 
L 10.59375 58.109375 
L 73.1875 35.40625 
L 73.1875 27.296875 
L 10.59375 4.59375 
L 10.59375 13.484375 
L 60.890625 31.296875 
z
" id="DejaVuSans-62"/>
     </defs>
     <use xlink:href="#DejaVuSans-116"/>
     <use x="39.208984" xlink:href="#DejaVuSans-101"/>
     <use x="100.732422" xlink:href="#DejaVuSans-109"/>
     <use x="198.144531" xlink:href="#DejaVuSans-112"/>
     <use x="261.621094" xlink:href="#DejaVuSans-101"/>
     <use x="323.144531" xlink:href="#DejaVuSans-114"/>
     <use x="364.257812" xlink:href="#DejaVuSans-97"/>
     <use x="425.537109" xlink:href="#DejaVuSans-116"/>
     <use x="464.746094" xlink:href="#DejaVuSans-117"/>
     <use x="528.125" xlink:href="#DejaVuSans-114"/>
     <use x="566.988281" xlink:href="#DejaVuSans-101"/>
     <use x="628.511719" xlink:href="#DejaVuSans-45"/>
     <use x="664.595703" xlink:href="#DejaVuSans-62"/>
     <use x="748.384766" xlink:href="#DejaVuSans-112"/>
     <use x="811.861328" xlink:href="#DejaVuSans-105"/>
     <use x="839.644531" xlink:href="#DejaVuSans-110"/>
     <use x="903.023438" xlink:href="#DejaVuSans-103"/>
     <use x="966.5" xlink:href="#DejaVuSans-95"/>
     <use x="1016.5" xlink:href="#DejaVuSans-110"/>
     <use x="1079.878906" xlink:href="#DejaVuSans-105"/>
     <use x="1107.662109" xlink:href="#DejaVuSans-103"/>
     <use x="1171.138672" xlink:href="#DejaVuSans-104"/>
     <use x="1234.517578" xlink:href="#DejaVuSans-116"/>
    </g>
   </g>
  </g>
  <g id="legend_1">
   <g id="patch_7">
    <path d="M 346.5125 22.95625 
L 453.8 22.95625 
Q 455.8 22.95625 455.8 20.95625 
L 455.8 7 
Q 455.8 5 453.8 5 
L 346.5125 5 
Q 344.5125 5 344.5125 7 
L 344.5125 20.95625 
Q 344.5125 22.95625 346.5125 22.95625 
z
" style="fill:#ffffff;opacity:0.8;stroke:#cccccc;stroke-linejoin:miter;"/>
   </g>
   <g id="line2d_16">
    <path d="M 348.5125 13.098437 
L 368.5125 13.098437 
" style="fill:none;stroke:#0000ff;stroke-linecap:square;stroke-width:1.5;"/>
   </g>
   <g id="line2d_17"/>
   <g id="text_18">
    <!-- ping_night[ms] -->
    <g transform="translate(376.5125 16.598437)scale(0.1 -0.1)">
     <use xlink:href="#DejaVuSans-112"/>
     <use x="63.476562" xlink:href="#DejaVuSans-105"/>
     <use x="91.259766" xlink:href="#DejaVuSans-110"/>
     <use x="154.638672" xlink:href="#DejaVuSans-103"/>
     <use x="218.115234" xlink:href="#DejaVuSans-95"/>
     <use x="268.115234" xlink:href="#DejaVuSans-110"/>
     <use x="331.494141" xlink:href="#DejaVuSans-105"/>
     <use x="359.277344" xlink:href="#DejaVuSans-103"/>
     <use x="422.753906" xlink:href="#DejaVuSans-104"/>
     <use x="486.132812" xlink:href="#DejaVuSans-116"/>
     <use x="525.341797" xlink:href="#DejaVuSans-91"/>
     <use x="564.355469" xlink:href="#DejaVuSans-109"/>
     <use x="661.767578" xlink:href="#DejaVuSans-115"/>
     <use x="713.867188" xlink:href="#DejaVuSans-93"/>
    </g>
   </g>
  </g>
 </g>
 <defs>
  <clipPath id="p90db383230">
   <rect height="266.112" width="357.12" x="57.6" y="41.472"/>
  </clipPath>
 </defs>
</svg>
