<?xml version="1.0" encoding="utf-8" standalone="no"?>
<!DOCTYPE svg PUBLIC "-//W3C//DTD SVG 1.1//EN"
  "http://www.w3.org/Graphics/SVG/1.1/DTD/svg11.dtd">
<!-- Created with matplotlib (https://matplotlib.org/) -->
<svg height="2090.594375pt" version="1.1" viewBox="0 0 2065.44375 2090.594375" width="2065.44375pt" xmlns="http://www.w3.org/2000/svg" xmlns:xlink="http://www.w3.org/1999/xlink">
 <metadata>
  <rdf:RDF xmlns:cc="http://creativecommons.org/ns#" xmlns:dc="http://purl.org/dc/elements/1.1/" xmlns:rdf="http://www.w3.org/1999/02/22-rdf-syntax-ns#">
   <cc:Work>
    <dc:type rdf:resource="http://purl.org/dc/dcmitype/StillImage"/>
    <dc:date>2022-07-23T21:14:00.653634</dc:date>
    <dc:format>image/svg+xml</dc:format>
    <dc:creator>
     <cc:Agent>
      <dc:title>Matplotlib v3.3.2, https://matplotlib.org/</dc:title>
     </cc:Agent>
    </dc:creator>
   </cc:Work>
  </rdf:RDF>
 </metadata>
 <defs>
  <style type="text/css">*{stroke-linecap:butt;stroke-linejoin:round;}</style>
 </defs>
 <g id="figure_1">
  <g id="patch_1">
   <path d="M 0 2090.594375 
L 2065.44375 2090.594375 
L 2065.44375 0 
L 0 0 
z
" style="fill:#ffffff;"/>
  </g>
  <g id="axes_1">
   <g id="patch_2">
    <path d="M 47.24375 2052.76 
L 1832.84375 2052.76 
L 1832.84375 278.68 
L 47.24375 278.68 
z
" style="fill:#ffffff;"/>
   </g>
   <g id="matplotlib.axis_1">
    <g id="xtick_1">
     <g id="line2d_1">
      <defs>
       <path d="M 0 0 
L 0 3.5 
" id="mab2e922e76" style="stroke:#000000;stroke-width:0.8;"/>
      </defs>
      <g>
       <use style="stroke:#000000;stroke-width:0.8;" x="206.311217" xlink:href="#mab2e922e76" y="2052.76"/>
      </g>
     </g>
     <g id="text_1">
      <text style="font-family:DejaVu Sans;font-size:10px;font-stretch:normal;font-style:normal;font-weight:normal;text-anchor:middle;" transform="rotate(-0, 206.311217, 2067.358437)" x="206.311217" y="2067.358437">995</text>
     </g>
    </g>
    <g id="xtick_2">
     <g id="line2d_2">
      <g>
       <use style="stroke:#000000;stroke-width:0.8;" x="482.565936" xlink:href="#mab2e922e76" y="2052.76"/>
      </g>
     </g>
     <g id="text_2">
      <text style="font-family:DejaVu Sans;font-size:10px;font-stretch:normal;font-style:normal;font-weight:normal;text-anchor:middle;" transform="rotate(-0, 482.565936, 2067.358437)" x="482.565936" y="2067.358437">1000</text>
     </g>
    </g>
    <g id="xtick_3">
     <g id="line2d_3">
      <g>
       <use style="stroke:#000000;stroke-width:0.8;" x="758.820655" xlink:href="#mab2e922e76" y="2052.76"/>
      </g>
     </g>
     <g id="text_3">
      <text style="font-family:DejaVu Sans;font-size:10px;font-stretch:normal;font-style:normal;font-weight:normal;text-anchor:middle;" transform="rotate(-0, 758.820655, 2067.358437)" x="758.820655" y="2067.358437">1005</text>
     </g>
    </g>
    <g id="xtick_4">
     <g id="line2d_4">
      <g>
       <use style="stroke:#000000;stroke-width:0.8;" x="1035.075373" xlink:href="#mab2e922e76" y="2052.76"/>
      </g>
     </g>
     <g id="text_4">
      <text style="font-family:DejaVu Sans;font-size:10px;font-stretch:normal;font-style:normal;font-weight:normal;text-anchor:middle;" transform="rotate(-0, 1035.075373, 2067.358437)" x="1035.075373" y="2067.358437">1010</text>
     </g>
    </g>
    <g id="xtick_5">
     <g id="line2d_5">
      <g>
       <use style="stroke:#000000;stroke-width:0.8;" x="1311.330092" xlink:href="#mab2e922e76" y="2052.76"/>
      </g>
     </g>
     <g id="text_5">
      <text style="font-family:DejaVu Sans;font-size:10px;font-stretch:normal;font-style:normal;font-weight:normal;text-anchor:middle;" transform="rotate(-0, 1311.330092, 2067.358437)" x="1311.330092" y="2067.358437">1015</text>
     </g>
    </g>
    <g id="xtick_6">
     <g id="line2d_6">
      <g>
       <use style="stroke:#000000;stroke-width:0.8;" x="1587.584811" xlink:href="#mab2e922e76" y="2052.76"/>
      </g>
     </g>
     <g id="text_6">
      <text style="font-family:DejaVu Sans;font-size:10px;font-stretch:normal;font-style:normal;font-weight:normal;text-anchor:middle;" transform="rotate(-0, 1587.584811, 2067.358437)" x="1587.584811" y="2067.358437">1020</text>
     </g>
    </g>
    <g id="text_7">
     <text style="font-family:DejaVu Sans;font-size:10px;font-stretch:normal;font-style:normal;font-weight:normal;text-anchor:middle;" transform="rotate(-0, 940.04375, 2081.036562)" x="940.04375" y="2081.036562">air_pressure from WeatherBitIO</text>
    </g>
   </g>
   <g id="matplotlib.axis_2">
    <g id="ytick_1">
     <g id="line2d_7">
      <defs>
       <path d="M 0 0 
L -3.5 0 
" id="m62462aff9a" style="stroke:#000000;stroke-width:0.8;"/>
      </defs>
      <g>
       <use style="stroke:#000000;stroke-width:0.8;" x="47.24375" xlink:href="#m62462aff9a" y="1760.206789"/>
      </g>
     </g>
     <g id="text_8">
      <text style="font-family:DejaVu Sans;font-size:10px;font-stretch:normal;font-style:normal;font-weight:normal;text-anchor:end;" transform="rotate(-0, 40.24375, 1764.006007)" x="40.24375" y="1764.006007">20</text>
     </g>
    </g>
    <g id="ytick_2">
     <g id="line2d_8">
      <g>
       <use style="stroke:#000000;stroke-width:0.8;" x="47.24375" xlink:href="#m62462aff9a" y="1454.85634"/>
      </g>
     </g>
     <g id="text_9">
      <text style="font-family:DejaVu Sans;font-size:10px;font-stretch:normal;font-style:normal;font-weight:normal;text-anchor:end;" transform="rotate(-0, 40.24375, 1458.655559)" x="40.24375" y="1458.655559">40</text>
     </g>
    </g>
    <g id="ytick_3">
     <g id="line2d_9">
      <g>
       <use style="stroke:#000000;stroke-width:0.8;" x="47.24375" xlink:href="#m62462aff9a" y="1149.505891"/>
      </g>
     </g>
     <g id="text_10">
      <text style="font-family:DejaVu Sans;font-size:10px;font-stretch:normal;font-style:normal;font-weight:normal;text-anchor:end;" transform="rotate(-0, 40.24375, 1153.30511)" x="40.24375" y="1153.30511">60</text>
     </g>
    </g>
    <g id="ytick_4">
     <g id="line2d_10">
      <g>
       <use style="stroke:#000000;stroke-width:0.8;" x="47.24375" xlink:href="#m62462aff9a" y="844.155442"/>
      </g>
     </g>
     <g id="text_11">
      <text style="font-family:DejaVu Sans;font-size:10px;font-stretch:normal;font-style:normal;font-weight:normal;text-anchor:end;" transform="rotate(-0, 40.24375, 847.954661)" x="40.24375" y="847.954661">80</text>
     </g>
    </g>
    <g id="ytick_5">
     <g id="line2d_11">
      <g>
       <use style="stroke:#000000;stroke-width:0.8;" x="47.24375" xlink:href="#m62462aff9a" y="538.804994"/>
      </g>
     </g>
     <g id="text_12">
      <text style="font-family:DejaVu Sans;font-size:10px;font-stretch:normal;font-style:normal;font-weight:normal;text-anchor:end;" transform="rotate(-0, 40.24375, 542.604213)" x="40.24375" y="542.604213">100</text>
     </g>
    </g>
    <g id="text_13">
     <text style="font-family:DejaVu Sans;font-size:10px;font-stretch:normal;font-style:normal;font-weight:normal;text-anchor:middle;" transform="rotate(-90, 14.798438, 1165.72)" x="14.798438" y="1165.72">ping_night[ms]</text>
    </g>
   </g>
   <g id="line2d_12">
    <path clip-path="url(#pea7ea8c67e)" d="M 128.407386 1930.164848 
L 166.530538 1882.591248 
L 217.58241 1906.836074 
L 310.238242 1930.851887 
L 370.075014 1905.461997 
L 381.732963 1956.516592 
L 382.11972 1964.150353 
L 388.639331 1967.020648 
L 391.180875 1952.638641 
L 731.747692 1872.209333 
L 747.770466 1617.684467 
L 751.085522 1748.145446 
L 757.163126 1907.629985 
L 773.1859 1868.193975 
L 779.816013 1815.887443 
L 786.998636 1950.974481 
L 799.153843 1942.302529 
L 804.126428 1867.842822 
L 810.756542 1935.844367 
L 837.829504 1942.271994 
L 856.062316 1943.646071 
L 878.162693 1951.325634 
L 886.450335 1885.17146 
L 898.053033 1455.176958 
L 899.158052 1963.753398 
L 912.970788 1575.027009 
L 914.075806 1891.492214 
L 920.70592 1870.01081 
L 938.386222 1925.935745 
L 941.701278 1888.102824 
L 944.463825 1914.4393 
L 946.673863 1901.935199 
L 958.829071 1888.316569 
L 959.38158 1902.210015 
L 967.669222 1912.515592 
L 971.536788 1951.066087 
L 974.851845 1876.423169 
L 977.061882 1899.507663 
L 985.902033 1933.538971 
L 995.294694 1897.232802 
L 995.847203 1890.515093 
L 1005.792373 1910.103324 
L 1008.002411 1932.760327 
L 1011.317467 1892.606743 
L 1012.422486 1860.453341 
L 1015.185033 1639.807107 
L 1017.947581 1630.921409 
L 1019.0526 1892.942629 
L 1027.892751 1935.630621 
L 1032.312826 1349.708913 
L 1037.83792 1829.475538 
L 1041.152977 1901.599314 
L 1043.915524 1932.287034 
L 1057.175751 1924.24105 
L 1062.700845 1945.218625 
L 1064.910883 1862.880877 
L 1074.303543 1934.500825 
L 1078.171109 1839.13988 
L 1079.828638 1958.531905 
L 1083.143694 1949.951557 
L 1085.353732 1705.946014 
L 1091.431336 1726.954125 
L 1104.139053 1958.760918 
L 1105.244072 1729.030508 
L 1110.769166 1302.318523 
L 1111.321676 1953.615763 
L 1112.426694 1564.156533 
L 1112.979204 1959.463224 
L 1117.951789 1688.831121 
L 1119.609317 1916.179798 
L 1123.476883 1959.142606 
L 1126.23943 1852.422624 
L 1126.79194 1950.211105 
L 1129.001978 1956.409719 
L 1136.1846 1943.890351 
L 1138.394638 1906.912412 
L 1141.157185 1967.875629 
L 1143.367223 1585.62267 
L 1143.919732 1882.392771 
L 1145.577261 1209.583592 
L 1147.234789 1894.896872 
L 1152.207374 1864.316024 
L 1154.417412 1942.867427 
L 1185.91045 1926.302165 
L 1186.462959 1525.926657 
L 1190.330525 1938.210833 
L 1195.85562 1923.645616 
L 1204.695771 1877.690374 
L 1210.220865 1583.393611 
L 1215.745959 1725.183092 
L 1218.508506 1694.281627 
L 1219.613525 1852.69744 
L 1220.718544 1892.49987 
L 1222.376073 1946.928588 
L 1226.243639 1919.508118 
L 1229.006186 1557.942651 
L 1235.08379 1507.178139 
L 1251.659073 1837.735268 
L 1252.764092 1937.340584 
L 1272.101922 1692.586932 
L 1285.362148 1947.905709 
L 1291.439752 1806.620057 
L 1304.699979 1938.271903 
L 1309.120054 1918.729474 
L 1316.855186 1941.630758 
L 1324.590318 1921.859316 
L 1334.535488 1917.538607 
L 1337.850545 1643.288102 
L 1340.613092 1922.683762 
L 1341.718111 1937.126839 
L 1348.348224 1867.384796 
L 1349.453243 1926.851796 
L 1352.21579 1952.150081 
L 1354.978338 1939.936063 
L 1356.083356 1957.829599 
L 1356.635866 1920.027213 
L 1359.950922 1491.864814 
L 1361.055941 1941.829235 
L 1362.16096 1963.783933 
L 1364.370998 1527.025918 
L 1364.923507 1933.462633 
L 1371.553621 1944.88274 
L 1374.316168 1829.582411 
L 1376.526206 1946.882785 
L 1379.288753 1877.736176 
L 1380.393772 1742.954488 
L 1382.0513 1906.026895 
L 1382.603809 1624.600654 
L 1384.261338 1855.644071 
L 1387.023885 1565.179457 
L 1394.206508 1887.156238 
L 1401.94164 1858.621238 
L 1414.649357 1614.82944 
L 1418.516923 1917.843958 
L 1423.489508 1892.988431 
L 1426.804564 1936.287125 
L 1429.014602 1936.592475 
L 1429.567112 1952.379093 
L 1433.434678 1906.881877 
L 1434.539697 1843.384251 
L 1435.644715 1938.836801 
L 1436.197225 1638.784183 
L 1438.959772 1535.789476 
L 1440.064791 1719.381434 
L 1440.6173 1907.35517 
L 1445.037376 1232.057385 
L 1445.589885 1936.19552 
L 1451.667489 1949.417194 
L 1459.402621 1948.51641 
L 1461.06015 1799.398519 
L 1461.612659 1883.81265 
L 1463.270187 1916.851569 
L 1463.822697 1932.974072 
L 1464.375206 1869.720727 
L 1465.480225 1942.333064 
L 1466.032734 1875.1865 
L 1467.690263 1817.643208 
L 1468.242772 1878.056794 
L 1470.45281 1311.082081 
L 1471.005319 1360.762599 
L 1472.110338 1961.341129 
L 1473.215357 1904.378003 
L 1473.767867 1924.470062 
L 1477.635433 1949.93629 
L 1478.187942 1907.492578 
L 1479.292961 1874.071971 
L 1480.39798 1708.022397 
L 1481.502999 1870.484103 
L 1482.608018 1423.573186 
L 1484.265546 1816.055386 
L 1484.818055 1851.872993 
L 1485.923074 1574.263633 
L 1486.475584 1286.959396 
L 1487.580603 1792.070108 
L 1489.238131 1903.171869 
L 1490.34315 1954.913502 
L 1490.895659 1884.499689 
L 1492.553187 1924.24105 
L 1493.105697 1949.111844 
L 1494.210716 1788.528043 
L 1494.763225 1921.248615 
L 1495.315735 1707.930792 
L 1495.868244 1957.982274 
L 1496.420754 1041.946196 
L 1496.973263 1646.143128 
L 1497.525772 1931.01983 
L 1498.078282 1563.057271 
L 1499.183301 1928.05793 
L 1500.28832 1930.745014 
L 1500.840829 1888.80513 
L 1501.393338 1890.59143 
L 1504.155886 1968.944355 
L 1504.708395 1863.949604 
L 1505.260905 1871.445957 
L 1506.918433 1559.255658 
L 1508.575961 1947.951512 
L 1509.128471 1929.141924 
L 1510.785999 1884.514956 
L 1511.338508 1873.965098 
L 1511.891018 1903.660429 
L 1512.996037 1144.788227 
L 1513.548546 1948.485875 
L 1514.101056 1830.299984 
L 1516.311093 1932.714525 
L 1517.416112 1957.447911 
L 1517.968622 1850.269903 
L 1520.731169 1862.865609 
L 1521.836188 1776.71098 
L 1522.941207 1857.857862 
L 1523.493716 1950.073698 
L 1524.046225 1923.248661 
L 1525.703754 1954.241731 
L 1527.361282 1821.872312 
L 1530.676339 1885.278332 
L 1536.201433 1883.32409 
L 1537.306452 1798.375595 
L 1538.96398 1932.577117 
L 1541.174018 1817.612673 
L 1543.384056 1972.12 
L 1543.936565 1940.485694 
L 1547.804131 1906.622329 
L 1548.356641 1876.087284 
L 1548.90915 1562.935131 
L 1550.566678 1841.185728 
L 1551.119188 1691.808288 
L 1551.671697 1934.638232 
L 1552.224207 1896.713707 
L 1554.986754 1817.414195 
L 1555.539263 1758.0388 
L 1556.091773 1943.371255 
L 1558.301811 1757.97773 
L 1558.85432 359.32 
L 1559.406829 1951.524112 
L 1561.616867 1774.039164 
L 1564.379414 1642.036165 
L 1564.931924 1701.65584 
L 1567.694471 1886.423397 
L 1568.24698 1626.692305 
L 1568.79949 1655.395247 
L 1571.009528 1920.775322 
L 1572.667056 1929.172459 
L 1573.772075 1013.395929 
L 1576.534622 1970.165757 
L 1578.74466 1726.999927 
L 1581.507207 1558.064792 
L 1585.927282 1784.695895 
L 1588.13732 1938.653591 
L 1588.68983 1921.630303 
L 1589.794848 1950.317978 
L 1591.452377 1929.951103 
L 1595.319943 1947.249206 
L 1598.634999 1788.970801 
L 1605.265113 1948.546945 
L 1616.867811 1914.01181 
L 1622.945415 1916.836301 
L 1626.260471 1897.889306 
L 1631.785566 1956.089101 
L 1635.653132 1851.918796 
L 1643.940773 1897.858771 
L 1648.360849 1930.95876 
L 1654.438453 1814.589704 
L 1655.543472 1943.15751 
L 1685.931491 1938.302438 
L 1695.324151 1868.209242 
L 1696.981679 1799.719137 
L 1706.37434 837.223987 
L 1709.136887 1952.333291 
L 1715.214491 1130.177208 
L 1721.292095 1857.537244 
L 1723.502132 1886.805085 
L 1724.607151 1948.852296 
L 1725.159661 1737.000154 
L 1725.71217 1939.76812 
L 1729.027227 1939.676515 
L 1732.342283 1470.810901 
L 1734.552321 1944.439982 
L 1737.314868 1950.333245 
L 1738.419887 1929.828963 
L 1748.917566 1962.990022 
L 1749.470076 1953.951648 
L 1751.680114 1955.340993 
L 1751.680114 1955.340993 
" style="fill:none;stroke:#0000ff;stroke-linecap:square;stroke-width:1.5;"/>
   </g>
   <g id="patch_3">
    <path d="M 47.24375 2052.76 
L 47.24375 278.68 
" style="fill:none;stroke:#000000;stroke-linecap:square;stroke-linejoin:miter;stroke-width:0.8;"/>
   </g>
   <g id="patch_4">
    <path d="M 1832.84375 2052.76 
L 1832.84375 278.68 
" style="fill:none;stroke:#000000;stroke-linecap:square;stroke-linejoin:miter;stroke-width:0.8;"/>
   </g>
   <g id="patch_5">
    <path d="M 47.24375 2052.76 
L 1832.84375 2052.76 
" style="fill:none;stroke:#000000;stroke-linecap:square;stroke-linejoin:miter;stroke-width:0.8;"/>
   </g>
   <g id="patch_6">
    <path d="M 47.24375 278.68 
L 1832.84375 278.68 
" style="fill:none;stroke:#000000;stroke-linecap:square;stroke-linejoin:miter;stroke-width:0.8;"/>
   </g>
   <g id="text_14">
    <text style="font-family:DejaVu Sans;font-size:12px;font-stretch:normal;font-style:normal;font-weight:normal;text-anchor:middle;" transform="rotate(-0, 940.04375, 272.68)" x="940.04375" y="272.68">air_pressure-&gt;ping_night</text>
   </g>
  </g>
  <g id="legend_1">
   <g id="patch_7">
    <path d="M 1951.15625 22.95625 
L 2058.44375 22.95625 
Q 2060.44375 22.95625 2060.44375 20.95625 
L 2060.44375 7 
Q 2060.44375 5 2058.44375 5 
L 1951.15625 5 
Q 1949.15625 5 1949.15625 7 
L 1949.15625 20.95625 
Q 1949.15625 22.95625 1951.15625 22.95625 
z
" style="fill:#ffffff;opacity:0.8;stroke:#cccccc;stroke-linejoin:miter;"/>
   </g>
   <g id="line2d_13">
    <path d="M 1953.15625 13.098438 
L 1973.15625 13.098438 
" style="fill:none;stroke:#0000ff;stroke-linecap:square;stroke-width:1.5;"/>
   </g>
   <g id="line2d_14"/>
   <g id="text_15">
    <text style="font-family:DejaVu Sans;font-size:10px;font-stretch:normal;font-style:normal;font-weight:normal;text-anchor:start;" transform="rotate(-0, 1981.15625, 16.598438)" x="1981.15625" y="16.598438">ping_night[ms]</text>
   </g>
  </g>
 </g>
 <defs>
  <clipPath id="pea7ea8c67e">
   <rect height="1774.08" width="1785.6" x="47.24375" y="278.68"/>
  </clipPath>
 </defs>
</svg>
