<?xml version="1.0" encoding="utf-8" standalone="no"?>
<!DOCTYPE svg PUBLIC "-//W3C//DTD SVG 1.1//EN"
  "http://www.w3.org/Graphics/SVG/1.1/DTD/svg11.dtd">
<!-- Created with matplotlib (https://matplotlib.org/) -->
<svg height="2090.31625pt" version="1.1" viewBox="0 0 2065.44375 2090.31625" width="2065.44375pt" xmlns="http://www.w3.org/2000/svg" xmlns:xlink="http://www.w3.org/1999/xlink">
 <metadata>
  <rdf:RDF xmlns:cc="http://creativecommons.org/ns#" xmlns:dc="http://purl.org/dc/elements/1.1/" xmlns:rdf="http://www.w3.org/1999/02/22-rdf-syntax-ns#">
   <cc:Work>
    <dc:type rdf:resource="http://purl.org/dc/dcmitype/StillImage"/>
    <dc:date>2022-07-24T11:49:50.112051</dc:date>
    <dc:format>image/svg+xml</dc:format>
    <dc:creator>
     <cc:Agent>
      <dc:title>Matplotlib v3.3.2, https://matplotlib.org/</dc:title>
     </cc:Agent>
    </dc:creator>
   </cc:Work>
  </rdf:RDF>
 </metadata>
 <defs>
  <style type="text/css">*{stroke-linecap:butt;stroke-linejoin:round;}</style>
 </defs>
 <g id="figure_1">
  <g id="patch_1">
   <path d="M 0 2090.31625 
L 2065.44375 2090.31625 
L 2065.44375 0 
L 0 0 
z
" style="fill:#ffffff;"/>
  </g>
  <g id="axes_1">
   <g id="patch_2">
    <path d="M 47.24375 2052.76 
L 1832.84375 2052.76 
L 1832.84375 278.68 
L 47.24375 278.68 
z
" style="fill:#ffffff;"/>
   </g>
   <g id="matplotlib.axis_1">
    <g id="xtick_1">
     <g id="line2d_1">
      <defs>
       <path d="M 0 0 
L 0 3.5 
" id="mbedf391696" style="stroke:#000000;stroke-width:0.8;"/>
      </defs>
      <g>
       <use style="stroke:#000000;stroke-width:0.8;" x="128.407386" xlink:href="#mbedf391696" y="2052.76"/>
      </g>
     </g>
     <g id="text_1">
      <text style="font-family:DejaVu Sans;font-size:10px;font-stretch:normal;font-style:normal;font-weight:normal;text-anchor:middle;" transform="rotate(-0, 128.407386, 2067.358438)" x="128.407386" y="2067.358438">60</text>
     </g>
    </g>
    <g id="xtick_2">
     <g id="line2d_2">
      <g>
       <use style="stroke:#000000;stroke-width:0.8;" x="341.995903" xlink:href="#mbedf391696" y="2052.76"/>
      </g>
     </g>
     <g id="text_2">
      <text style="font-family:DejaVu Sans;font-size:10px;font-stretch:normal;font-style:normal;font-weight:normal;text-anchor:middle;" transform="rotate(-0, 341.995903, 2067.358438)" x="341.995903" y="2067.358438">65</text>
     </g>
    </g>
    <g id="xtick_3">
     <g id="line2d_3">
      <g>
       <use style="stroke:#000000;stroke-width:0.8;" x="555.58442" xlink:href="#mbedf391696" y="2052.76"/>
      </g>
     </g>
     <g id="text_3">
      <text style="font-family:DejaVu Sans;font-size:10px;font-stretch:normal;font-style:normal;font-weight:normal;text-anchor:middle;" transform="rotate(-0, 555.58442, 2067.358438)" x="555.58442" y="2067.358438">70</text>
     </g>
    </g>
    <g id="xtick_4">
     <g id="line2d_4">
      <g>
       <use style="stroke:#000000;stroke-width:0.8;" x="769.172937" xlink:href="#mbedf391696" y="2052.76"/>
      </g>
     </g>
     <g id="text_4">
      <text style="font-family:DejaVu Sans;font-size:10px;font-stretch:normal;font-style:normal;font-weight:normal;text-anchor:middle;" transform="rotate(-0, 769.172937, 2067.358438)" x="769.172937" y="2067.358438">75</text>
     </g>
    </g>
    <g id="xtick_5">
     <g id="line2d_5">
      <g>
       <use style="stroke:#000000;stroke-width:0.8;" x="982.761453" xlink:href="#mbedf391696" y="2052.76"/>
      </g>
     </g>
     <g id="text_5">
      <text style="font-family:DejaVu Sans;font-size:10px;font-stretch:normal;font-style:normal;font-weight:normal;text-anchor:middle;" transform="rotate(-0, 982.761453, 2067.358438)" x="982.761453" y="2067.358438">80</text>
     </g>
    </g>
    <g id="xtick_6">
     <g id="line2d_6">
      <g>
       <use style="stroke:#000000;stroke-width:0.8;" x="1196.34997" xlink:href="#mbedf391696" y="2052.76"/>
      </g>
     </g>
     <g id="text_6">
      <text style="font-family:DejaVu Sans;font-size:10px;font-stretch:normal;font-style:normal;font-weight:normal;text-anchor:middle;" transform="rotate(-0, 1196.34997, 2067.358438)" x="1196.34997" y="2067.358438">85</text>
     </g>
    </g>
    <g id="xtick_7">
     <g id="line2d_7">
      <g>
       <use style="stroke:#000000;stroke-width:0.8;" x="1409.938487" xlink:href="#mbedf391696" y="2052.76"/>
      </g>
     </g>
     <g id="text_7">
      <text style="font-family:DejaVu Sans;font-size:10px;font-stretch:normal;font-style:normal;font-weight:normal;text-anchor:middle;" transform="rotate(-0, 1409.938487, 2067.358438)" x="1409.938487" y="2067.358438">90</text>
     </g>
    </g>
    <g id="xtick_8">
     <g id="line2d_8">
      <g>
       <use style="stroke:#000000;stroke-width:0.8;" x="1623.527004" xlink:href="#mbedf391696" y="2052.76"/>
      </g>
     </g>
     <g id="text_8">
      <text style="font-family:DejaVu Sans;font-size:10px;font-stretch:normal;font-style:normal;font-weight:normal;text-anchor:middle;" transform="rotate(-0, 1623.527004, 2067.358438)" x="1623.527004" y="2067.358438">95</text>
     </g>
    </g>
    <g id="text_9">
     <text style="font-family:DejaVu Sans;font-size:10px;font-stretch:normal;font-style:normal;font-weight:normal;text-anchor:middle;" transform="rotate(-0, 940.04375, 2081.036562)" x="940.04375" y="2081.036562">humidity from WeatherBitIO</text>
    </g>
   </g>
   <g id="matplotlib.axis_2">
    <g id="ytick_1">
     <g id="line2d_9">
      <defs>
       <path d="M 0 0 
L -3.5 0 
" id="mc2a5a9a07b" style="stroke:#000000;stroke-width:0.8;"/>
      </defs>
      <g>
       <use style="stroke:#000000;stroke-width:0.8;" x="47.24375" xlink:href="#mc2a5a9a07b" y="1762.385049"/>
      </g>
     </g>
     <g id="text_10">
      <text style="font-family:DejaVu Sans;font-size:10px;font-stretch:normal;font-style:normal;font-weight:normal;text-anchor:end;" transform="rotate(-0, 40.24375, 1766.184267)" x="40.24375" y="1766.184267">20</text>
     </g>
    </g>
    <g id="ytick_2">
     <g id="line2d_10">
      <g>
       <use style="stroke:#000000;stroke-width:0.8;" x="47.24375" xlink:href="#mc2a5a9a07b" y="1456.559806"/>
      </g>
     </g>
     <g id="text_11">
      <text style="font-family:DejaVu Sans;font-size:10px;font-stretch:normal;font-style:normal;font-weight:normal;text-anchor:end;" transform="rotate(-0, 40.24375, 1460.359025)" x="40.24375" y="1460.359025">40</text>
     </g>
    </g>
    <g id="ytick_3">
     <g id="line2d_11">
      <g>
       <use style="stroke:#000000;stroke-width:0.8;" x="47.24375" xlink:href="#mc2a5a9a07b" y="1150.734563"/>
      </g>
     </g>
     <g id="text_12">
      <text style="font-family:DejaVu Sans;font-size:10px;font-stretch:normal;font-style:normal;font-weight:normal;text-anchor:end;" transform="rotate(-0, 40.24375, 1154.533782)" x="40.24375" y="1154.533782">60</text>
     </g>
    </g>
    <g id="ytick_4">
     <g id="line2d_12">
      <g>
       <use style="stroke:#000000;stroke-width:0.8;" x="47.24375" xlink:href="#mc2a5a9a07b" y="844.90932"/>
      </g>
     </g>
     <g id="text_13">
      <text style="font-family:DejaVu Sans;font-size:10px;font-stretch:normal;font-style:normal;font-weight:normal;text-anchor:end;" transform="rotate(-0, 40.24375, 848.708539)" x="40.24375" y="848.708539">80</text>
     </g>
    </g>
    <g id="ytick_5">
     <g id="line2d_13">
      <g>
       <use style="stroke:#000000;stroke-width:0.8;" x="47.24375" xlink:href="#mc2a5a9a07b" y="539.084078"/>
      </g>
     </g>
     <g id="text_14">
      <text style="font-family:DejaVu Sans;font-size:10px;font-stretch:normal;font-style:normal;font-weight:normal;text-anchor:end;" transform="rotate(-0, 40.24375, 542.883296)" x="40.24375" y="542.883296">100</text>
     </g>
    </g>
    <g id="text_15">
     <text style="font-family:DejaVu Sans;font-size:10px;font-stretch:normal;font-style:normal;font-weight:normal;text-anchor:middle;" transform="rotate(-90, 14.798438, 1165.72)" x="14.798438" y="1165.72">ping_night[ms]</text>
    </g>
   </g>
   <g id="line2d_14">
    <path clip-path="url(#p49982c085e)" d="M 128.407386 1905.572427 
L 171.12509 1362.319757 
L 384.713606 1954.810291 
L 470.149013 1873.797184 
L 512.866717 1043.007621 
L 514.293488 1953.541117 
L 529.394196 1952.424854 
L 542.717848 1935.161019 
L 555.323842 1877.543544 
L 555.58442 1776.238932 
L 592.26184 1904.333835 
L 598.302123 1859.866845 
L 633.651023 1952.409563 
L 641.019827 1952.547184 
L 657.384979 1841.440874 
L 660.345316 1921.934078 
L 683.73753 1778.914903 
L 689.901694 1966.248155 
L 714.784757 1953.801068 
L 716.882196 1831.761505 
L 726.455233 1870.555437 
L 739.253457 1576.152767 
L 756.635291 1895.327282 
L 764.209139 1946.109563 
L 769.172937 1956.721699 
L 780.83487 1944.763932 
L 785.521002 1889.241359 
L 794.953071 1527.740631 
L 797.887777 1648.144029 
L 803.056619 1933.463689 
L 811.89064 1644.03068 
L 850.614238 1508.962961 
L 854.608343 1564.80665 
L 854.877465 1886.183107 
L 858.824581 1616.78165 
L 859.029626 1705.562718 
L 890.914119 1919.273398 
L 892.716806 1626.568058 
L 897.326047 1657.410534 
L 923.456466 1954.856165 
L 935.374705 1808.870485 
L 940.04375 1312.56199 
L 941.795176 1559.806408 
L 964.649147 1794.297913 
L 972.526292 1909.762233 
L 982.761453 1965.483592 
L 989.63046 1926.07801 
L 1008.708186 1872.069272 
L 1009.327593 1878.445728 
L 1025.479157 1885.693786 
L 1025.556049 1210.90568 
L 1027.943968 1922.453981 
L 1058.918575 1910.159806 
L 1068.19686 1628.662961 
L 1071.708255 1884.761019 
L 1086.702169 1928.371699 
L 1088.389518 1928.738689 
L 1095.694246 1935.420971 
L 1110.914563 1131.375825 
L 1116.301266 1938.647427 
L 1134.55454 1567.054466 
L 1153.269166 1819.880194 
L 1153.632267 1703.743058 
L 1158.258594 1911.123155 
L 1163.927233 1585.296942 
L 1173.906089 1727.306893 
L 1183.098939 1696.357379 
L 1189.83552 1894.883835 
L 1192.086743 1866.656165 
L 1193.88943 1831.868544 
L 1196.34997 1900.28165 
L 1198.870315 1940.665874 
L 1198.917304 1926.903738 
L 1201.360757 1854.744272 
L 1206.79872 1824.146456 
L 1208.618494 1939.580194 
L 1215.696818 1960.315146 
L 1218.939092 1895.373155 
L 1232.032068 1493.625825 
L 1235.07784 1880.418301 
L 1236.004814 1923.677282 
L 1236.021901 1425.22801 
L 1237.162464 1904.609078 
L 1239.067673 1641.798155 
L 1241.647823 1876.427282 
L 1242.143348 1899.104223 
L 1247.999945 1885.846699 
L 1250.404952 1690.898398 
L 1251.336198 1933.295485 
L 1271.242648 1949.397184 
L 1272.400297 1818.320485 
L 1274.98899 1854.193786 
L 1278.402135 1909.24233 
L 1281.785377 1832.587233 
L 1284.216014 1729.126553 
L 1287.868378 1892.972427 
L 1288.91069 1872.833835 
L 1289.34641 1960.468058 
L 1291.871027 1233.414417 
L 1296.672496 1918.600583 
L 1298.953622 1907.866117 
L 1313.780937 1909.288204 
L 1318.791723 1966.645728 
L 1321.41459 1944.289903 
L 1323.3198 1537.618786 
L 1324.50308 359.32 
L 1324.776473 1880.051311 
L 1334.503294 1969.520485 
L 1334.691252 1909.318786 
L 1336.733159 1587.529466 
L 1338.241094 1528.841602 
L 1339.34321 1786.912233 
L 1344.524868 1972.12 
L 1349.16401 1645.284563 
L 1364.025499 1970.376796 
L 1366.622736 1288.401796 
L 1367.220783 837.967087 
L 1371.911187 1940.512961 
L 1382.99216 1961.247913 
L 1385.807256 1920.26733 
L 1387.084516 1958.893058 
L 1389.032443 1924.288932 
L 1390.523291 1906.780437 
L 1392.278988 1840.034078 
L 1392.531023 1945.329709 
L 1397.298318 1950.55932 
L 1397.661419 1845.691845 
L 1405.235268 1967.058592 
L 1408.755206 1855.019515 
L 1408.874816 1745.105922 
L 1409.938487 1472.539175 
L 1410.194793 1899.195971 
L 1411.395161 1954.626796 
L 1411.454965 1860.952524 
L 1440.601254 1956.094757 
L 1444.59536 1889.531893 
L 1447.530066 1914.93068 
L 1452.65619 1561.121456 
L 1455.783126 1886.871214 
L 1457.103103 1955.116117 
L 1458.974139 1935.910291 
L 1462.340294 1959.000097 
L 1469.059788 1942.393786 
L 1469.495509 1940.727039 
L 1476.49694 1939.794272 
L 1485.130188 1566.029951 
L 1488.735562 1944.091117 
L 1495.373894 1014.412961 
L 1498.035206 1919.961505 
L 1501.708929 1929.289175 
L 1510.88042 1949.351311 
L 1517.471761 1951.583835 
L 1520.769568 1963.832136 
L 1520.987428 1966.278738 
L 1521.662368 1694.660049 
L 1531.871899 1869.729709 
L 1533.067995 1947.348155 
L 1538.091597 1146.009563 
L 1539.180898 1961.951311 
L 1552.897553 1945.849612 
L 1570.569867 1950.987476 
L 1573.78651 1939.045 
L 1576.140255 1912.51466 
L 1579.09632 1884.959806 
L 1580.8093 1890.694029 
L 1585.486889 1791.193786 
L 1587.093074 1952.684806 
L 1597.332508 1351.248883 
L 1599.53247 1921.154223 
L 1600.685848 1903.997427 
L 1604.611605 1946.354223 
L 1605.624014 1790.75034 
L 1615.944611 1932.607379 
L 1623.527004 1721.496214 
L 1627.28189 1949.718301 
L 1640.020309 1947.684563 
L 1653.019306 1950.375825 
L 1654.616948 1559.928738 
L 1666.244707 1619.641117 
L 1668.995727 1961.630194 
L 1689.22256 1865.218786 
L 1708.96241 1576.91733 
L 1751.680114 1456.880922 
L 1751.680114 1456.880922 
" style="fill:none;stroke:#0000ff;stroke-linecap:square;stroke-width:1.5;"/>
   </g>
   <g id="patch_3">
    <path d="M 47.24375 2052.76 
L 47.24375 278.68 
" style="fill:none;stroke:#000000;stroke-linecap:square;stroke-linejoin:miter;stroke-width:0.8;"/>
   </g>
   <g id="patch_4">
    <path d="M 1832.84375 2052.76 
L 1832.84375 278.68 
" style="fill:none;stroke:#000000;stroke-linecap:square;stroke-linejoin:miter;stroke-width:0.8;"/>
   </g>
   <g id="patch_5">
    <path d="M 47.24375 2052.76 
L 1832.84375 2052.76 
" style="fill:none;stroke:#000000;stroke-linecap:square;stroke-linejoin:miter;stroke-width:0.8;"/>
   </g>
   <g id="patch_6">
    <path d="M 47.24375 278.68 
L 1832.84375 278.68 
" style="fill:none;stroke:#000000;stroke-linecap:square;stroke-linejoin:miter;stroke-width:0.8;"/>
   </g>
   <g id="text_16">
    <text style="font-family:DejaVu Sans;font-size:12px;font-stretch:normal;font-style:normal;font-weight:normal;text-anchor:middle;" transform="rotate(-0, 940.04375, 272.68)" x="940.04375" y="272.68">humidity-&gt;ping_night</text>
   </g>
  </g>
  <g id="legend_1">
   <g id="patch_7">
    <path d="M 1951.15625 22.95625 
L 2058.44375 22.95625 
Q 2060.44375 22.95625 2060.44375 20.95625 
L 2060.44375 7 
Q 2060.44375 5 2058.44375 5 
L 1951.15625 5 
Q 1949.15625 5 1949.15625 7 
L 1949.15625 20.95625 
Q 1949.15625 22.95625 1951.15625 22.95625 
z
" style="fill:#ffffff;opacity:0.8;stroke:#cccccc;stroke-linejoin:miter;"/>
   </g>
   <g id="line2d_15">
    <path d="M 1953.15625 13.098438 
L 1973.15625 13.098438 
" style="fill:none;stroke:#0000ff;stroke-linecap:square;stroke-width:1.5;"/>
   </g>
   <g id="line2d_16"/>
   <g id="text_17">
    <text style="font-family:DejaVu Sans;font-size:10px;font-stretch:normal;font-style:normal;font-weight:normal;text-anchor:start;" transform="rotate(-0, 1981.15625, 16.598438)" x="1981.15625" y="16.598438">ping_night[ms]</text>
   </g>
  </g>
 </g>
 <defs>
  <clipPath id="p49982c085e">
   <rect height="1774.08" width="1785.6" x="47.24375" y="278.68"/>
  </clipPath>
 </defs>
</svg>
