<?xml version="1.0" encoding="utf-8" standalone="no"?>
<!DOCTYPE svg PUBLIC "-//W3C//DTD SVG 1.1//EN"
  "http://www.w3.org/Graphics/SVG/1.1/DTD/svg11.dtd">
<!-- Created with matplotlib (https://matplotlib.org/) -->
<svg height="2090.31625pt" version="1.1" viewBox="0 0 2065.44375 2090.31625" width="2065.44375pt" xmlns="http://www.w3.org/2000/svg" xmlns:xlink="http://www.w3.org/1999/xlink">
 <metadata>
  <rdf:RDF xmlns:cc="http://creativecommons.org/ns#" xmlns:dc="http://purl.org/dc/elements/1.1/" xmlns:rdf="http://www.w3.org/1999/02/22-rdf-syntax-ns#">
   <cc:Work>
    <dc:type rdf:resource="http://purl.org/dc/dcmitype/StillImage"/>
    <dc:date>2022-07-24T11:50:12.910332</dc:date>
    <dc:format>image/svg+xml</dc:format>
    <dc:creator>
     <cc:Agent>
      <dc:title>Matplotlib v3.3.2, https://matplotlib.org/</dc:title>
     </cc:Agent>
    </dc:creator>
   </cc:Work>
  </rdf:RDF>
 </metadata>
 <defs>
  <style type="text/css">*{stroke-linecap:butt;stroke-linejoin:round;}</style>
 </defs>
 <g id="figure_1">
  <g id="patch_1">
   <path d="M 0 2090.31625 
L 2065.44375 2090.31625 
L 2065.44375 0 
L 0 0 
z
" style="fill:#ffffff;"/>
  </g>
  <g id="axes_1">
   <g id="patch_2">
    <path d="M 47.24375 2052.76 
L 1832.84375 2052.76 
L 1832.84375 278.68 
L 47.24375 278.68 
z
" style="fill:#ffffff;"/>
   </g>
   <g id="matplotlib.axis_1">
    <g id="xtick_1">
     <g id="line2d_1">
      <defs>
       <path d="M 0 0 
L 0 3.5 
" id="m2597042067" style="stroke:#000000;stroke-width:0.8;"/>
      </defs>
      <g>
       <use style="stroke:#000000;stroke-width:0.8;" x="128.407386" xlink:href="#m2597042067" y="2052.76"/>
      </g>
     </g>
     <g id="text_1">
      <text style="font-family:DejaVu Sans;font-size:10px;font-stretch:normal;font-style:normal;font-weight:normal;text-anchor:middle;" transform="rotate(-0, 128.407386, 2067.358438)" x="128.407386" y="2067.358438">0</text>
     </g>
    </g>
    <g id="xtick_2">
     <g id="line2d_2">
      <g>
       <use style="stroke:#000000;stroke-width:0.8;" x="329.21428" xlink:href="#m2597042067" y="2052.76"/>
      </g>
     </g>
     <g id="text_2">
      <text style="font-family:DejaVu Sans;font-size:10px;font-stretch:normal;font-style:normal;font-weight:normal;text-anchor:middle;" transform="rotate(-0, 329.21428, 2067.358438)" x="329.21428" y="2067.358438">2</text>
     </g>
    </g>
    <g id="xtick_3">
     <g id="line2d_3">
      <g>
       <use style="stroke:#000000;stroke-width:0.8;" x="530.021174" xlink:href="#m2597042067" y="2052.76"/>
      </g>
     </g>
     <g id="text_3">
      <text style="font-family:DejaVu Sans;font-size:10px;font-stretch:normal;font-style:normal;font-weight:normal;text-anchor:middle;" transform="rotate(-0, 530.021174, 2067.358438)" x="530.021174" y="2067.358438">4</text>
     </g>
    </g>
    <g id="xtick_4">
     <g id="line2d_4">
      <g>
       <use style="stroke:#000000;stroke-width:0.8;" x="730.828068" xlink:href="#m2597042067" y="2052.76"/>
      </g>
     </g>
     <g id="text_4">
      <text style="font-family:DejaVu Sans;font-size:10px;font-stretch:normal;font-style:normal;font-weight:normal;text-anchor:middle;" transform="rotate(-0, 730.828068, 2067.358438)" x="730.828068" y="2067.358438">6</text>
     </g>
    </g>
    <g id="xtick_5">
     <g id="line2d_5">
      <g>
       <use style="stroke:#000000;stroke-width:0.8;" x="931.634961" xlink:href="#m2597042067" y="2052.76"/>
      </g>
     </g>
     <g id="text_5">
      <text style="font-family:DejaVu Sans;font-size:10px;font-stretch:normal;font-style:normal;font-weight:normal;text-anchor:middle;" transform="rotate(-0, 931.634961, 2067.358438)" x="931.634961" y="2067.358438">8</text>
     </g>
    </g>
    <g id="xtick_6">
     <g id="line2d_6">
      <g>
       <use style="stroke:#000000;stroke-width:0.8;" x="1132.441855" xlink:href="#m2597042067" y="2052.76"/>
      </g>
     </g>
     <g id="text_6">
      <text style="font-family:DejaVu Sans;font-size:10px;font-stretch:normal;font-style:normal;font-weight:normal;text-anchor:middle;" transform="rotate(-0, 1132.441855, 2067.358438)" x="1132.441855" y="2067.358438">10</text>
     </g>
    </g>
    <g id="xtick_7">
     <g id="line2d_7">
      <g>
       <use style="stroke:#000000;stroke-width:0.8;" x="1333.248749" xlink:href="#m2597042067" y="2052.76"/>
      </g>
     </g>
     <g id="text_7">
      <text style="font-family:DejaVu Sans;font-size:10px;font-stretch:normal;font-style:normal;font-weight:normal;text-anchor:middle;" transform="rotate(-0, 1333.248749, 2067.358438)" x="1333.248749" y="2067.358438">12</text>
     </g>
    </g>
    <g id="xtick_8">
     <g id="line2d_8">
      <g>
       <use style="stroke:#000000;stroke-width:0.8;" x="1534.055643" xlink:href="#m2597042067" y="2052.76"/>
      </g>
     </g>
     <g id="text_8">
      <text style="font-family:DejaVu Sans;font-size:10px;font-stretch:normal;font-style:normal;font-weight:normal;text-anchor:middle;" transform="rotate(-0, 1534.055643, 2067.358438)" x="1534.055643" y="2067.358438">14</text>
     </g>
    </g>
    <g id="xtick_9">
     <g id="line2d_9">
      <g>
       <use style="stroke:#000000;stroke-width:0.8;" x="1734.862536" xlink:href="#m2597042067" y="2052.76"/>
      </g>
     </g>
     <g id="text_9">
      <text style="font-family:DejaVu Sans;font-size:10px;font-stretch:normal;font-style:normal;font-weight:normal;text-anchor:middle;" transform="rotate(-0, 1734.862536, 2067.358438)" x="1734.862536" y="2067.358438">16</text>
     </g>
    </g>
    <g id="text_10">
     <text style="font-family:DejaVu Sans;font-size:10px;font-stretch:normal;font-style:normal;font-weight:normal;text-anchor:middle;" transform="rotate(-0, 940.04375, 2081.036562)" x="940.04375" y="2081.036562">rain from WeatherBitIO</text>
    </g>
   </g>
   <g id="matplotlib.axis_2">
    <g id="ytick_1">
     <g id="line2d_10">
      <defs>
       <path d="M 0 0 
L -3.5 0 
" id="mb40c7f8a63" style="stroke:#000000;stroke-width:0.8;"/>
      </defs>
      <g>
       <use style="stroke:#000000;stroke-width:0.8;" x="47.24375" xlink:href="#mb40c7f8a63" y="1756.938851"/>
      </g>
     </g>
     <g id="text_11">
      <text style="font-family:DejaVu Sans;font-size:10px;font-stretch:normal;font-style:normal;font-weight:normal;text-anchor:end;" transform="rotate(-0, 40.24375, 1760.73807)" x="40.24375" y="1760.73807">20</text>
     </g>
    </g>
    <g id="ytick_2">
     <g id="line2d_11">
      <g>
       <use style="stroke:#000000;stroke-width:0.8;" x="47.24375" xlink:href="#mb40c7f8a63" y="1452.300713"/>
      </g>
     </g>
     <g id="text_12">
      <text style="font-family:DejaVu Sans;font-size:10px;font-stretch:normal;font-style:normal;font-weight:normal;text-anchor:end;" transform="rotate(-0, 40.24375, 1456.099931)" x="40.24375" y="1456.099931">40</text>
     </g>
    </g>
    <g id="ytick_3">
     <g id="line2d_12">
      <g>
       <use style="stroke:#000000;stroke-width:0.8;" x="47.24375" xlink:href="#mb40c7f8a63" y="1147.662574"/>
      </g>
     </g>
     <g id="text_13">
      <text style="font-family:DejaVu Sans;font-size:10px;font-stretch:normal;font-style:normal;font-weight:normal;text-anchor:end;" transform="rotate(-0, 40.24375, 1151.461793)" x="40.24375" y="1151.461793">60</text>
     </g>
    </g>
    <g id="ytick_4">
     <g id="line2d_13">
      <g>
       <use style="stroke:#000000;stroke-width:0.8;" x="47.24375" xlink:href="#mb40c7f8a63" y="843.024436"/>
      </g>
     </g>
     <g id="text_14">
      <text style="font-family:DejaVu Sans;font-size:10px;font-stretch:normal;font-style:normal;font-weight:normal;text-anchor:end;" transform="rotate(-0, 40.24375, 846.823655)" x="40.24375" y="846.823655">80</text>
     </g>
    </g>
    <g id="ytick_5">
     <g id="line2d_14">
      <g>
       <use style="stroke:#000000;stroke-width:0.8;" x="47.24375" xlink:href="#mb40c7f8a63" y="538.386298"/>
      </g>
     </g>
     <g id="text_15">
      <text style="font-family:DejaVu Sans;font-size:10px;font-stretch:normal;font-style:normal;font-weight:normal;text-anchor:end;" transform="rotate(-0, 40.24375, 542.185516)" x="40.24375" y="542.185516">100</text>
     </g>
    </g>
    <g id="text_16">
     <text style="font-family:DejaVu Sans;font-size:10px;font-stretch:normal;font-style:normal;font-weight:normal;text-anchor:middle;" transform="rotate(-90, 14.798438, 1165.72)" x="14.798438" y="1165.72">ping_night[ms]</text>
    </g>
   </g>
   <g id="line2d_15">
    <path clip-path="url(#pfd6137289d)" d="M 128.407386 359.32 
L 138.574741 1959.812619 
L 139.043525 1943.819117 
L 139.196942 1914.452 
L 139.222745 1933.385261 
L 139.25618 1943.590638 
L 139.460601 1489.222855 
L 140.050371 1858.078713 
L 140.121657 1944.519785 
L 140.359011 1897.575048 
L 140.463832 1846.045506 
L 140.820566 1962.05171 
L 140.843156 1953.856944 
L 141.085129 1952.181434 
L 141.123383 1956.172193 
L 141.726807 1621.649054 
L 141.816869 1941.29062 
L 142.62351 1956.583455 
L 143.064683 1963.285494 
L 143.459369 1917.544078 
L 144.216913 1949.51585 
L 144.432981 1966.727905 
L 145.458201 1943.087985 
L 146.601595 1958.929169 
L 148.92965 1895.19887 
L 149.481267 1955.0298 
L 149.563196 1950.597316 
L 150.504679 1930.643517 
L 150.523354 1951.663549 
L 150.930791 1300.118731 
L 150.964326 1929.592516 
L 151.895367 1903.759202 
L 152.250996 1944.108523 
L 152.956029 1953.933103 
L 153.086052 1903.302245 
L 154.225832 1944.382698 
L 154.896627 1944.56548 
L 155.69122 1918.320905 
L 156.133798 1953.201972 
L 157.491454 1938.137616 
L 158.904833 1955.410598 
L 159.736575 1572.191052 
L 163.893579 1929.714371 
L 166.25296 1918.991109 
L 166.473847 1963.194103 
L 171.314197 1944.748263 
L 171.515405 1768.682651 
L 171.601752 1957.131804 
L 172.740729 1952.090042 
L 172.932399 1940.818431 
L 177.228161 1808.163754 
L 181.611775 1945.723105 
L 183.514621 1936.721048 
L 184.017743 1934.146856 
L 184.154091 1860.805224 
L 190.180808 1928.998472 
L 197.0973 1932.486578 
L 198.283366 1947.779413 
L 210.997756 1894.818072 
L 218.2755 1935.609119 
L 223.257719 1942.950898 
L 225.753147 1961.031172 
L 241.71368 1880.088818 
L 241.779946 1955.060264 
L 254.543233 1961.640448 
L 267.744278 1879.037817 
L 272.94618 1614.749 
L 275.642013 1922.281201 
L 283.784732 1972.12 
L 303.637506 1924.885857 
L 317.038354 1947.383383 
L 329.04761 1640.292908 
L 472.480962 1933.476652 
L 497.777611 1942.783347 
L 560.667318 1881.931879 
L 561.26271 1953.978799 
L 602.385954 1883.592157 
L 618.335042 1942.433013 
L 619.390282 1916.218902 
L 622.723676 1868.68012 
L 637.622544 1927.399121 
L 672.501697 1813.235979 
L 675.021824 1852.153501 
L 705.018358 1931.907766 
L 745.112466 1919.920255 
L 842.905423 1885.465682 
L 851.636507 1928.876616 
L 900.64845 1884.749782 
L 1026.888715 1904.992986 
L 1142.421958 1942.204535 
L 1148.154995 1962.600058 
L 1451.805139 1895.91477 
L 1466.333518 1964.778221 
L 1751.680114 1955.532453 
" style="fill:none;stroke:#0000ff;stroke-linecap:square;stroke-width:1.5;"/>
   </g>
   <g id="patch_3">
    <path d="M 47.24375 2052.76 
L 47.24375 278.68 
" style="fill:none;stroke:#000000;stroke-linecap:square;stroke-linejoin:miter;stroke-width:0.8;"/>
   </g>
   <g id="patch_4">
    <path d="M 1832.84375 2052.76 
L 1832.84375 278.68 
" style="fill:none;stroke:#000000;stroke-linecap:square;stroke-linejoin:miter;stroke-width:0.8;"/>
   </g>
   <g id="patch_5">
    <path d="M 47.24375 2052.76 
L 1832.84375 2052.76 
" style="fill:none;stroke:#000000;stroke-linecap:square;stroke-linejoin:miter;stroke-width:0.8;"/>
   </g>
   <g id="patch_6">
    <path d="M 47.24375 278.68 
L 1832.84375 278.68 
" style="fill:none;stroke:#000000;stroke-linecap:square;stroke-linejoin:miter;stroke-width:0.8;"/>
   </g>
   <g id="text_17">
    <text style="font-family:DejaVu Sans;font-size:12px;font-stretch:normal;font-style:normal;font-weight:normal;text-anchor:middle;" transform="rotate(-0, 940.04375, 272.68)" x="940.04375" y="272.68">rain-&gt;ping_night</text>
   </g>
  </g>
  <g id="legend_1">
   <g id="patch_7">
    <path d="M 1951.15625 22.95625 
L 2058.44375 22.95625 
Q 2060.44375 22.95625 2060.44375 20.95625 
L 2060.44375 7 
Q 2060.44375 5 2058.44375 5 
L 1951.15625 5 
Q 1949.15625 5 1949.15625 7 
L 1949.15625 20.95625 
Q 1949.15625 22.95625 1951.15625 22.95625 
z
" style="fill:#ffffff;opacity:0.8;stroke:#cccccc;stroke-linejoin:miter;"/>
   </g>
   <g id="line2d_16">
    <path d="M 1953.15625 13.098438 
L 1973.15625 13.098438 
" style="fill:none;stroke:#0000ff;stroke-linecap:square;stroke-width:1.5;"/>
   </g>
   <g id="line2d_17"/>
   <g id="text_18">
    <text style="font-family:DejaVu Sans;font-size:10px;font-stretch:normal;font-style:normal;font-weight:normal;text-anchor:start;" transform="rotate(-0, 1981.15625, 16.598438)" x="1981.15625" y="16.598438">ping_night[ms]</text>
   </g>
  </g>
 </g>
 <defs>
  <clipPath id="pfd6137289d">
   <rect height="1774.08" width="1785.6" x="47.24375" y="278.68"/>
  </clipPath>
 </defs>
</svg>
