<?xml version="1.0" encoding="utf-8" standalone="no"?>
<!DOCTYPE svg PUBLIC "-//W3C//DTD SVG 1.1//EN"
  "http://www.w3.org/Graphics/SVG/1.1/DTD/svg11.dtd">
<svg height="345.6pt" version="1.1" viewBox="0 0 460.8 345.6" width="460.8pt" xmlns="http://www.w3.org/2000/svg" xmlns:xlink="http://www.w3.org/1999/xlink">
 <metadata>
  <rdf:RDF xmlns:cc="http://creativecommons.org/ns#" xmlns:dc="http://purl.org/dc/elements/1.1/" xmlns:rdf="http://www.w3.org/1999/02/22-rdf-syntax-ns#">
   <cc:Work>
    <dc:type rdf:resource="http://purl.org/dc/dcmitype/StillImage"/>
    <dc:date>2022-06-13T13:11:53.500681</dc:date>
    <dc:format>image/svg+xml</dc:format>
    <dc:creator>
     <cc:Agent>
      <dc:title>Matplotlib v3.4.2, https://matplotlib.org/</dc:title>
     </cc:Agent>
    </dc:creator>
   </cc:Work>
  </rdf:RDF>
 </metadata>
 <defs>
  <style type="text/css">*{stroke-linecap:butt;stroke-linejoin:round;}</style>
 </defs>
 <g id="figure_1">
  <g id="patch_1">
   <path d="M 0 345.6 
L 460.8 345.6 
L 460.8 0 
L 0 0 
z
" style="fill:#ffffff;"/>
  </g>
  <g id="axes_1">
   <g id="patch_2">
    <path d="M 57.6 307.584 
L 414.72 307.584 
L 414.72 41.472 
L 57.6 41.472 
z
" style="fill:#ffffff;"/>
   </g>
   <g id="matplotlib.axis_1">
    <g id="xtick_1">
     <g id="line2d_1">
      <defs>
       <path d="M 0 0 
L 0 3.5 
" id="m98679950fc" style="stroke:#000000;stroke-width:0.8;"/>
      </defs>
      <g>
       <use style="stroke:#000000;stroke-width:0.8;" x="71.103009" xlink:href="#m98679950fc" y="307.584"/>
      </g>
     </g>
     <g id="text_1">
      <!-- 5.0 -->
      <g transform="translate(63.151446 322.182437)scale(0.1 -0.1)">
       <defs>
        <path d="M 691 4666 
L 3169 4666 
L 3169 4134 
L 1269 4134 
L 1269 2991 
Q 1406 3038 1543 3061 
Q 1681 3084 1819 3084 
Q 2600 3084 3056 2656 
Q 3513 2228 3513 1497 
Q 3513 744 3044 326 
Q 2575 -91 1722 -91 
Q 1428 -91 1123 -41 
Q 819 9 494 109 
L 494 744 
Q 775 591 1075 516 
Q 1375 441 1709 441 
Q 2250 441 2565 725 
Q 2881 1009 2881 1497 
Q 2881 1984 2565 2268 
Q 2250 2553 1709 2553 
Q 1456 2553 1204 2497 
Q 953 2441 691 2322 
L 691 4666 
z
" id="DejaVuSans-35" transform="scale(0.015625)"/>
        <path d="M 684 794 
L 1344 794 
L 1344 0 
L 684 0 
L 684 794 
z
" id="DejaVuSans-2e" transform="scale(0.015625)"/>
        <path d="M 2034 4250 
Q 1547 4250 1301 3770 
Q 1056 3291 1056 2328 
Q 1056 1369 1301 889 
Q 1547 409 2034 409 
Q 2525 409 2770 889 
Q 3016 1369 3016 2328 
Q 3016 3291 2770 3770 
Q 2525 4250 2034 4250 
z
M 2034 4750 
Q 2819 4750 3233 4129 
Q 3647 3509 3647 2328 
Q 3647 1150 3233 529 
Q 2819 -91 2034 -91 
Q 1250 -91 836 529 
Q 422 1150 422 2328 
Q 422 3509 836 4129 
Q 1250 4750 2034 4750 
z
" id="DejaVuSans-30" transform="scale(0.015625)"/>
       </defs>
       <use xlink:href="#DejaVuSans-35"/>
       <use x="63.623047" xlink:href="#DejaVuSans-2e"/>
       <use x="95.410156" xlink:href="#DejaVuSans-30"/>
      </g>
     </g>
    </g>
    <g id="xtick_2">
     <g id="line2d_2">
      <g>
       <use style="stroke:#000000;stroke-width:0.8;" x="116.59832" xlink:href="#m98679950fc" y="307.584"/>
      </g>
     </g>
     <g id="text_2">
      <!-- 7.5 -->
      <g transform="translate(108.646758 322.182437)scale(0.1 -0.1)">
       <defs>
        <path d="M 525 4666 
L 3525 4666 
L 3525 4397 
L 1831 0 
L 1172 0 
L 2766 4134 
L 525 4134 
L 525 4666 
z
" id="DejaVuSans-37" transform="scale(0.015625)"/>
       </defs>
       <use xlink:href="#DejaVuSans-37"/>
       <use x="63.623047" xlink:href="#DejaVuSans-2e"/>
       <use x="95.410156" xlink:href="#DejaVuSans-35"/>
      </g>
     </g>
    </g>
    <g id="xtick_3">
     <g id="line2d_3">
      <g>
       <use style="stroke:#000000;stroke-width:0.8;" x="162.093632" xlink:href="#m98679950fc" y="307.584"/>
      </g>
     </g>
     <g id="text_3">
      <!-- 10.0 -->
      <g transform="translate(150.96082 322.182437)scale(0.1 -0.1)">
       <defs>
        <path d="M 794 531 
L 1825 531 
L 1825 4091 
L 703 3866 
L 703 4441 
L 1819 4666 
L 2450 4666 
L 2450 531 
L 3481 531 
L 3481 0 
L 794 0 
L 794 531 
z
" id="DejaVuSans-31" transform="scale(0.015625)"/>
       </defs>
       <use xlink:href="#DejaVuSans-31"/>
       <use x="63.623047" xlink:href="#DejaVuSans-30"/>
       <use x="127.246094" xlink:href="#DejaVuSans-2e"/>
       <use x="159.033203" xlink:href="#DejaVuSans-30"/>
      </g>
     </g>
    </g>
    <g id="xtick_4">
     <g id="line2d_4">
      <g>
       <use style="stroke:#000000;stroke-width:0.8;" x="207.588944" xlink:href="#m98679950fc" y="307.584"/>
      </g>
     </g>
     <g id="text_4">
      <!-- 12.5 -->
      <g transform="translate(196.456132 322.182437)scale(0.1 -0.1)">
       <defs>
        <path d="M 1228 531 
L 3431 531 
L 3431 0 
L 469 0 
L 469 531 
Q 828 903 1448 1529 
Q 2069 2156 2228 2338 
Q 2531 2678 2651 2914 
Q 2772 3150 2772 3378 
Q 2772 3750 2511 3984 
Q 2250 4219 1831 4219 
Q 1534 4219 1204 4116 
Q 875 4013 500 3803 
L 500 4441 
Q 881 4594 1212 4672 
Q 1544 4750 1819 4750 
Q 2544 4750 2975 4387 
Q 3406 4025 3406 3419 
Q 3406 3131 3298 2873 
Q 3191 2616 2906 2266 
Q 2828 2175 2409 1742 
Q 1991 1309 1228 531 
z
" id="DejaVuSans-32" transform="scale(0.015625)"/>
       </defs>
       <use xlink:href="#DejaVuSans-31"/>
       <use x="63.623047" xlink:href="#DejaVuSans-32"/>
       <use x="127.246094" xlink:href="#DejaVuSans-2e"/>
       <use x="159.033203" xlink:href="#DejaVuSans-35"/>
      </g>
     </g>
    </g>
    <g id="xtick_5">
     <g id="line2d_5">
      <g>
       <use style="stroke:#000000;stroke-width:0.8;" x="253.084256" xlink:href="#m98679950fc" y="307.584"/>
      </g>
     </g>
     <g id="text_5">
      <!-- 15.0 -->
      <g transform="translate(241.951444 322.182437)scale(0.1 -0.1)">
       <use xlink:href="#DejaVuSans-31"/>
       <use x="63.623047" xlink:href="#DejaVuSans-35"/>
       <use x="127.246094" xlink:href="#DejaVuSans-2e"/>
       <use x="159.033203" xlink:href="#DejaVuSans-30"/>
      </g>
     </g>
    </g>
    <g id="xtick_6">
     <g id="line2d_6">
      <g>
       <use style="stroke:#000000;stroke-width:0.8;" x="298.579568" xlink:href="#m98679950fc" y="307.584"/>
      </g>
     </g>
     <g id="text_6">
      <!-- 17.5 -->
      <g transform="translate(287.446755 322.182437)scale(0.1 -0.1)">
       <use xlink:href="#DejaVuSans-31"/>
       <use x="63.623047" xlink:href="#DejaVuSans-37"/>
       <use x="127.246094" xlink:href="#DejaVuSans-2e"/>
       <use x="159.033203" xlink:href="#DejaVuSans-35"/>
      </g>
     </g>
    </g>
    <g id="xtick_7">
     <g id="line2d_7">
      <g>
       <use style="stroke:#000000;stroke-width:0.8;" x="344.07488" xlink:href="#m98679950fc" y="307.584"/>
      </g>
     </g>
     <g id="text_7">
      <!-- 20.0 -->
      <g transform="translate(332.942067 322.182437)scale(0.1 -0.1)">
       <use xlink:href="#DejaVuSans-32"/>
       <use x="63.623047" xlink:href="#DejaVuSans-30"/>
       <use x="127.246094" xlink:href="#DejaVuSans-2e"/>
       <use x="159.033203" xlink:href="#DejaVuSans-30"/>
      </g>
     </g>
    </g>
    <g id="xtick_8">
     <g id="line2d_8">
      <g>
       <use style="stroke:#000000;stroke-width:0.8;" x="389.570192" xlink:href="#m98679950fc" y="307.584"/>
      </g>
     </g>
     <g id="text_8">
      <!-- 22.5 -->
      <g transform="translate(378.437379 322.182437)scale(0.1 -0.1)">
       <use xlink:href="#DejaVuSans-32"/>
       <use x="63.623047" xlink:href="#DejaVuSans-32"/>
       <use x="127.246094" xlink:href="#DejaVuSans-2e"/>
       <use x="159.033203" xlink:href="#DejaVuSans-35"/>
      </g>
     </g>
    </g>
    <g id="text_9">
     <!-- temperature from Aeris -->
     <g transform="translate(177.464687 335.860562)scale(0.1 -0.1)">
      <defs>
       <path d="M 1172 4494 
L 1172 3500 
L 2356 3500 
L 2356 3053 
L 1172 3053 
L 1172 1153 
Q 1172 725 1289 603 
Q 1406 481 1766 481 
L 2356 481 
L 2356 0 
L 1766 0 
Q 1100 0 847 248 
Q 594 497 594 1153 
L 594 3053 
L 172 3053 
L 172 3500 
L 594 3500 
L 594 4494 
L 1172 4494 
z
" id="DejaVuSans-74" transform="scale(0.015625)"/>
       <path d="M 3597 1894 
L 3597 1613 
L 953 1613 
Q 991 1019 1311 708 
Q 1631 397 2203 397 
Q 2534 397 2845 478 
Q 3156 559 3463 722 
L 3463 178 
Q 3153 47 2828 -22 
Q 2503 -91 2169 -91 
Q 1331 -91 842 396 
Q 353 884 353 1716 
Q 353 2575 817 3079 
Q 1281 3584 2069 3584 
Q 2775 3584 3186 3129 
Q 3597 2675 3597 1894 
z
M 3022 2063 
Q 3016 2534 2758 2815 
Q 2500 3097 2075 3097 
Q 1594 3097 1305 2825 
Q 1016 2553 972 2059 
L 3022 2063 
z
" id="DejaVuSans-65" transform="scale(0.015625)"/>
       <path d="M 3328 2828 
Q 3544 3216 3844 3400 
Q 4144 3584 4550 3584 
Q 5097 3584 5394 3201 
Q 5691 2819 5691 2113 
L 5691 0 
L 5113 0 
L 5113 2094 
Q 5113 2597 4934 2840 
Q 4756 3084 4391 3084 
Q 3944 3084 3684 2787 
Q 3425 2491 3425 1978 
L 3425 0 
L 2847 0 
L 2847 2094 
Q 2847 2600 2669 2842 
Q 2491 3084 2119 3084 
Q 1678 3084 1418 2786 
Q 1159 2488 1159 1978 
L 1159 0 
L 581 0 
L 581 3500 
L 1159 3500 
L 1159 2956 
Q 1356 3278 1631 3431 
Q 1906 3584 2284 3584 
Q 2666 3584 2933 3390 
Q 3200 3197 3328 2828 
z
" id="DejaVuSans-6d" transform="scale(0.015625)"/>
       <path d="M 1159 525 
L 1159 -1331 
L 581 -1331 
L 581 3500 
L 1159 3500 
L 1159 2969 
Q 1341 3281 1617 3432 
Q 1894 3584 2278 3584 
Q 2916 3584 3314 3078 
Q 3713 2572 3713 1747 
Q 3713 922 3314 415 
Q 2916 -91 2278 -91 
Q 1894 -91 1617 61 
Q 1341 213 1159 525 
z
M 3116 1747 
Q 3116 2381 2855 2742 
Q 2594 3103 2138 3103 
Q 1681 3103 1420 2742 
Q 1159 2381 1159 1747 
Q 1159 1113 1420 752 
Q 1681 391 2138 391 
Q 2594 391 2855 752 
Q 3116 1113 3116 1747 
z
" id="DejaVuSans-70" transform="scale(0.015625)"/>
       <path d="M 2631 2963 
Q 2534 3019 2420 3045 
Q 2306 3072 2169 3072 
Q 1681 3072 1420 2755 
Q 1159 2438 1159 1844 
L 1159 0 
L 581 0 
L 581 3500 
L 1159 3500 
L 1159 2956 
Q 1341 3275 1631 3429 
Q 1922 3584 2338 3584 
Q 2397 3584 2469 3576 
Q 2541 3569 2628 3553 
L 2631 2963 
z
" id="DejaVuSans-72" transform="scale(0.015625)"/>
       <path d="M 2194 1759 
Q 1497 1759 1228 1600 
Q 959 1441 959 1056 
Q 959 750 1161 570 
Q 1363 391 1709 391 
Q 2188 391 2477 730 
Q 2766 1069 2766 1631 
L 2766 1759 
L 2194 1759 
z
M 3341 1997 
L 3341 0 
L 2766 0 
L 2766 531 
Q 2569 213 2275 61 
Q 1981 -91 1556 -91 
Q 1019 -91 701 211 
Q 384 513 384 1019 
Q 384 1609 779 1909 
Q 1175 2209 1959 2209 
L 2766 2209 
L 2766 2266 
Q 2766 2663 2505 2880 
Q 2244 3097 1772 3097 
Q 1472 3097 1187 3025 
Q 903 2953 641 2809 
L 641 3341 
Q 956 3463 1253 3523 
Q 1550 3584 1831 3584 
Q 2591 3584 2966 3190 
Q 3341 2797 3341 1997 
z
" id="DejaVuSans-61" transform="scale(0.015625)"/>
       <path d="M 544 1381 
L 544 3500 
L 1119 3500 
L 1119 1403 
Q 1119 906 1312 657 
Q 1506 409 1894 409 
Q 2359 409 2629 706 
Q 2900 1003 2900 1516 
L 2900 3500 
L 3475 3500 
L 3475 0 
L 2900 0 
L 2900 538 
Q 2691 219 2414 64 
Q 2138 -91 1772 -91 
Q 1169 -91 856 284 
Q 544 659 544 1381 
z
M 1991 3584 
L 1991 3584 
z
" id="DejaVuSans-75" transform="scale(0.015625)"/>
       <path id="DejaVuSans-20" transform="scale(0.015625)"/>
       <path d="M 2375 4863 
L 2375 4384 
L 1825 4384 
Q 1516 4384 1395 4259 
Q 1275 4134 1275 3809 
L 1275 3500 
L 2222 3500 
L 2222 3053 
L 1275 3053 
L 1275 0 
L 697 0 
L 697 3053 
L 147 3053 
L 147 3500 
L 697 3500 
L 697 3744 
Q 697 4328 969 4595 
Q 1241 4863 1831 4863 
L 2375 4863 
z
" id="DejaVuSans-66" transform="scale(0.015625)"/>
       <path d="M 1959 3097 
Q 1497 3097 1228 2736 
Q 959 2375 959 1747 
Q 959 1119 1226 758 
Q 1494 397 1959 397 
Q 2419 397 2687 759 
Q 2956 1122 2956 1747 
Q 2956 2369 2687 2733 
Q 2419 3097 1959 3097 
z
M 1959 3584 
Q 2709 3584 3137 3096 
Q 3566 2609 3566 1747 
Q 3566 888 3137 398 
Q 2709 -91 1959 -91 
Q 1206 -91 779 398 
Q 353 888 353 1747 
Q 353 2609 779 3096 
Q 1206 3584 1959 3584 
z
" id="DejaVuSans-6f" transform="scale(0.015625)"/>
       <path d="M 2188 4044 
L 1331 1722 
L 3047 1722 
L 2188 4044 
z
M 1831 4666 
L 2547 4666 
L 4325 0 
L 3669 0 
L 3244 1197 
L 1141 1197 
L 716 0 
L 50 0 
L 1831 4666 
z
" id="DejaVuSans-41" transform="scale(0.015625)"/>
       <path d="M 603 3500 
L 1178 3500 
L 1178 0 
L 603 0 
L 603 3500 
z
M 603 4863 
L 1178 4863 
L 1178 4134 
L 603 4134 
L 603 4863 
z
" id="DejaVuSans-69" transform="scale(0.015625)"/>
       <path d="M 2834 3397 
L 2834 2853 
Q 2591 2978 2328 3040 
Q 2066 3103 1784 3103 
Q 1356 3103 1142 2972 
Q 928 2841 928 2578 
Q 928 2378 1081 2264 
Q 1234 2150 1697 2047 
L 1894 2003 
Q 2506 1872 2764 1633 
Q 3022 1394 3022 966 
Q 3022 478 2636 193 
Q 2250 -91 1575 -91 
Q 1294 -91 989 -36 
Q 684 19 347 128 
L 347 722 
Q 666 556 975 473 
Q 1284 391 1588 391 
Q 1994 391 2212 530 
Q 2431 669 2431 922 
Q 2431 1156 2273 1281 
Q 2116 1406 1581 1522 
L 1381 1569 
Q 847 1681 609 1914 
Q 372 2147 372 2553 
Q 372 3047 722 3315 
Q 1072 3584 1716 3584 
Q 2034 3584 2315 3537 
Q 2597 3491 2834 3397 
z
" id="DejaVuSans-73" transform="scale(0.015625)"/>
      </defs>
      <use xlink:href="#DejaVuSans-74"/>
      <use x="39.208984" xlink:href="#DejaVuSans-65"/>
      <use x="100.732422" xlink:href="#DejaVuSans-6d"/>
      <use x="198.144531" xlink:href="#DejaVuSans-70"/>
      <use x="261.621094" xlink:href="#DejaVuSans-65"/>
      <use x="323.144531" xlink:href="#DejaVuSans-72"/>
      <use x="364.257812" xlink:href="#DejaVuSans-61"/>
      <use x="425.537109" xlink:href="#DejaVuSans-74"/>
      <use x="464.746094" xlink:href="#DejaVuSans-75"/>
      <use x="528.125" xlink:href="#DejaVuSans-72"/>
      <use x="566.988281" xlink:href="#DejaVuSans-65"/>
      <use x="628.511719" xlink:href="#DejaVuSans-20"/>
      <use x="660.298828" xlink:href="#DejaVuSans-66"/>
      <use x="695.503906" xlink:href="#DejaVuSans-72"/>
      <use x="734.367188" xlink:href="#DejaVuSans-6f"/>
      <use x="795.548828" xlink:href="#DejaVuSans-6d"/>
      <use x="892.960938" xlink:href="#DejaVuSans-20"/>
      <use x="924.748047" xlink:href="#DejaVuSans-41"/>
      <use x="991.40625" xlink:href="#DejaVuSans-65"/>
      <use x="1052.929688" xlink:href="#DejaVuSans-72"/>
      <use x="1094.042969" xlink:href="#DejaVuSans-69"/>
      <use x="1121.826172" xlink:href="#DejaVuSans-73"/>
     </g>
    </g>
   </g>
   <g id="matplotlib.axis_2">
    <g id="ytick_1">
     <g id="line2d_9">
      <defs>
       <path d="M 0 0 
L -3.5 0 
" id="m0364cfffda" style="stroke:#000000;stroke-width:0.8;"/>
      </defs>
      <g>
       <use style="stroke:#000000;stroke-width:0.8;" x="57.6" xlink:href="#m0364cfffda" y="272.285387"/>
      </g>
     </g>
     <g id="text_10">
      <!-- 6 -->
      <g transform="translate(44.2375 276.084606)scale(0.1 -0.1)">
       <defs>
        <path d="M 2113 2584 
Q 1688 2584 1439 2293 
Q 1191 2003 1191 1497 
Q 1191 994 1439 701 
Q 1688 409 2113 409 
Q 2538 409 2786 701 
Q 3034 994 3034 1497 
Q 3034 2003 2786 2293 
Q 2538 2584 2113 2584 
z
M 3366 4563 
L 3366 3988 
Q 3128 4100 2886 4159 
Q 2644 4219 2406 4219 
Q 1781 4219 1451 3797 
Q 1122 3375 1075 2522 
Q 1259 2794 1537 2939 
Q 1816 3084 2150 3084 
Q 2853 3084 3261 2657 
Q 3669 2231 3669 1497 
Q 3669 778 3244 343 
Q 2819 -91 2113 -91 
Q 1303 -91 875 529 
Q 447 1150 447 2328 
Q 447 3434 972 4092 
Q 1497 4750 2381 4750 
Q 2619 4750 2861 4703 
Q 3103 4656 3366 4563 
z
" id="DejaVuSans-36" transform="scale(0.015625)"/>
       </defs>
       <use xlink:href="#DejaVuSans-36"/>
      </g>
     </g>
    </g>
    <g id="ytick_2">
     <g id="line2d_10">
      <g>
       <use style="stroke:#000000;stroke-width:0.8;" x="57.6" xlink:href="#m0364cfffda" y="235.367945"/>
      </g>
     </g>
     <g id="text_11">
      <!-- 8 -->
      <g transform="translate(44.2375 239.167164)scale(0.1 -0.1)">
       <defs>
        <path d="M 2034 2216 
Q 1584 2216 1326 1975 
Q 1069 1734 1069 1313 
Q 1069 891 1326 650 
Q 1584 409 2034 409 
Q 2484 409 2743 651 
Q 3003 894 3003 1313 
Q 3003 1734 2745 1975 
Q 2488 2216 2034 2216 
z
M 1403 2484 
Q 997 2584 770 2862 
Q 544 3141 544 3541 
Q 544 4100 942 4425 
Q 1341 4750 2034 4750 
Q 2731 4750 3128 4425 
Q 3525 4100 3525 3541 
Q 3525 3141 3298 2862 
Q 3072 2584 2669 2484 
Q 3125 2378 3379 2068 
Q 3634 1759 3634 1313 
Q 3634 634 3220 271 
Q 2806 -91 2034 -91 
Q 1263 -91 848 271 
Q 434 634 434 1313 
Q 434 1759 690 2068 
Q 947 2378 1403 2484 
z
M 1172 3481 
Q 1172 3119 1398 2916 
Q 1625 2713 2034 2713 
Q 2441 2713 2670 2916 
Q 2900 3119 2900 3481 
Q 2900 3844 2670 4047 
Q 2441 4250 2034 4250 
Q 1625 4250 1398 4047 
Q 1172 3844 1172 3481 
z
" id="DejaVuSans-38" transform="scale(0.015625)"/>
       </defs>
       <use xlink:href="#DejaVuSans-38"/>
      </g>
     </g>
    </g>
    <g id="ytick_3">
     <g id="line2d_11">
      <g>
       <use style="stroke:#000000;stroke-width:0.8;" x="57.6" xlink:href="#m0364cfffda" y="198.450503"/>
      </g>
     </g>
     <g id="text_12">
      <!-- 10 -->
      <g transform="translate(37.875 202.249721)scale(0.1 -0.1)">
       <use xlink:href="#DejaVuSans-31"/>
       <use x="63.623047" xlink:href="#DejaVuSans-30"/>
      </g>
     </g>
    </g>
    <g id="ytick_4">
     <g id="line2d_12">
      <g>
       <use style="stroke:#000000;stroke-width:0.8;" x="57.6" xlink:href="#m0364cfffda" y="161.53306"/>
      </g>
     </g>
     <g id="text_13">
      <!-- 12 -->
      <g transform="translate(37.875 165.332279)scale(0.1 -0.1)">
       <use xlink:href="#DejaVuSans-31"/>
       <use x="63.623047" xlink:href="#DejaVuSans-32"/>
      </g>
     </g>
    </g>
    <g id="ytick_5">
     <g id="line2d_13">
      <g>
       <use style="stroke:#000000;stroke-width:0.8;" x="57.6" xlink:href="#m0364cfffda" y="124.615618"/>
      </g>
     </g>
     <g id="text_14">
      <!-- 14 -->
      <g transform="translate(37.875 128.414837)scale(0.1 -0.1)">
       <defs>
        <path d="M 2419 4116 
L 825 1625 
L 2419 1625 
L 2419 4116 
z
M 2253 4666 
L 3047 4666 
L 3047 1625 
L 3713 1625 
L 3713 1100 
L 3047 1100 
L 3047 0 
L 2419 0 
L 2419 1100 
L 313 1100 
L 313 1709 
L 2253 4666 
z
" id="DejaVuSans-34" transform="scale(0.015625)"/>
       </defs>
       <use xlink:href="#DejaVuSans-31"/>
       <use x="63.623047" xlink:href="#DejaVuSans-34"/>
      </g>
     </g>
    </g>
    <g id="ytick_6">
     <g id="line2d_14">
      <g>
       <use style="stroke:#000000;stroke-width:0.8;" x="57.6" xlink:href="#m0364cfffda" y="87.698175"/>
      </g>
     </g>
     <g id="text_15">
      <!-- 16 -->
      <g transform="translate(37.875 91.497394)scale(0.1 -0.1)">
       <use xlink:href="#DejaVuSans-31"/>
       <use x="63.623047" xlink:href="#DejaVuSans-36"/>
      </g>
     </g>
    </g>
    <g id="ytick_7">
     <g id="line2d_15">
      <g>
       <use style="stroke:#000000;stroke-width:0.8;" x="57.6" xlink:href="#m0364cfffda" y="50.780733"/>
      </g>
     </g>
     <g id="text_16">
      <!-- 18 -->
      <g transform="translate(37.875 54.579952)scale(0.1 -0.1)">
       <use xlink:href="#DejaVuSans-31"/>
       <use x="63.623047" xlink:href="#DejaVuSans-38"/>
      </g>
     </g>
    </g>
   </g>
   <g id="line2d_16">
    <path clip-path="url(#p300a96c1a1)" d="M 73.832727 289.082824 
L 74.014709 291.888549 
L 74.19669 290.190347 
L 74.378671 284.671189 
L 74.742634 291.242494 
L 74.924615 287.532291 
L 75.106596 292.294641 
L 75.65254 289.913466 
L 77.472352 291.611669 
L 79.292165 287.587667 
L 81.111977 291.611669 
L 81.839902 284.062052 
L 82.567827 294.380477 
L 82.93179 288.584438 
L 83.659715 278.89361 
L 84.38764 286.960071 
L 84.569621 291.999302 
L 85.115565 286.000217 
L 85.661508 276.918526 
L 86.025471 282.806859 
L 87.663302 288.381392 
L 88.937171 286.960071 
L 89.483115 283.65596 
L 90.575002 285.520291 
L 90.756983 288.510603 
L 91.302927 286.314016 
L 91.66689 284.043593 
L 92.030852 293.808256 
L 92.576796 292.386935 
L 92.940758 282.7884 
L 93.304721 288.861319 
L 93.668683 288.326016 
L 94.942552 288.27064 
L 95.488496 273.909755 
L 98.764158 288.898237 
L 99.674064 285.132657 
L 100.583971 288.381392 
L 101.311896 292.497687 
L 103.313689 285.224951 
L 104.041614 284.634272 
L 107.499258 280.222638 
L 108.227183 286.258639 
L 110.228977 288.658273 
L 110.956902 281.367078 
L 116.052377 284.209721 
L 117.872189 288.953613 
L 120.783889 285.188034 
L 121.329833 292.073137 
L 121.875777 286.406309 
L 122.42172 292.553063 
L 124.605495 239.465781 
L 125.515402 287.070823 
L 125.879364 286.904695 
L 126.061345 225.178731 
L 126.425308 285.335703 
L 126.78927 292.036219 
L 127.153233 285.335703 
L 128.063139 278.321389 
L 129.518989 287.846089 
L 129.882951 282.050051 
L 130.246914 290.171888 
L 130.428895 287.181575 
L 130.610876 286.11097 
L 131.338801 289.451998 
L 131.520783 289.248952 
L 131.702764 287.366163 
L 132.066726 290.688732 
L 132.248708 289.082824 
L 132.430689 292.608439 
L 132.61267 273.946672 
L 132.976633 289.987301 
L 133.158614 285.649502 
L 133.704558 292.645357 
L 134.06852 289.968842 
L 134.250501 276.586269 
L 134.432483 291.020989 
L 134.614464 281.440913 
L 134.796445 290.781026 
L 134.978426 277.232325 
L 135.160408 289.304328 
L 135.342389 285.594125 
L 135.52437 290.098053 
L 135.706351 289.673503 
L 135.888333 290.264182 
L 136.070314 286.461685 
L 136.252295 289.968842 
L 136.434276 272.728397 
L 136.616258 283.415996 
L 136.798239 278.062967 
L 136.98022 288.492145 
L 138.072108 282.363849 
L 138.618051 284.062052 
L 138.800033 275.71871 
L 139.709939 293.60521 
L 140.983808 278.339848 
L 142.257676 287.809172 
L 142.621639 284.634272 
L 142.80362 288.455227 
L 142.985601 286.664731 
L 143.895508 290.817944 
L 144.077489 285.298786 
L 144.25947 286.664731 
L 144.441451 289.359705 
L 144.805414 287.679961 
L 144.987395 289.655044 
L 145.533339 285.852548 
L 145.897301 284.505061 
L 146.079283 284.338932 
L 146.625226 262.354595 
L 147.353151 289.747338 
L 147.717114 285.372621 
L 148.990982 284.52352 
L 149.172964 293.660587 
L 149.718907 288.289099 
L 149.900889 288.049135 
L 150.08287 282.105427 
L 150.810795 293.309871 
L 150.992776 289.156659 
L 151.902682 287.089282 
L 152.266645 290.43031 
L 152.448626 287.790713 
L 152.99457 282.733024 
L 153.358532 281.902381 
L 153.722495 286.904695 
L 154.086457 279.373536 
L 154.268439 284.117428 
L 154.45042 275.146489 
L 154.632401 288.56598 
L 154.814382 287.883007 
L 154.996364 290.817944 
L 155.178345 287.679961 
L 155.542307 286.53552 
L 155.90627 283.914382 
L 156.270232 286.074052 
L 157.180139 277.619958 
L 157.544101 287.347704 
L 157.726082 281.957757 
L 158.090045 284.94807 
L 158.272026 259.733457 
L 158.454007 286.000217 
L 158.635989 290.448769 
L 158.81797 262.096173 
L 160.27382 289.008989 
L 161.001745 286.000217 
L 161.183726 285.834089 
L 161.365707 289.85809 
L 161.547689 284.246639 
L 161.911651 263.425201 
L 162.457595 288.953613 
L 162.639576 267.061569 
L 163.18552 276.586269 
L 163.549482 288.621356 
L 163.913445 283.895923 
L 164.095426 268.35368 
L 164.459389 293.199119 
L 165.187313 285.298786 
L 165.369295 269.22124 
L 165.551276 291.205577 
L 165.915238 285.206492 
L 166.09722 291.020989 
L 167.007126 265.252615 
L 167.371088 288.750567 
L 167.55307 271.270158 
L 167.735051 288.030677 
L 167.917032 275.109572 
L 168.099013 271.288617 
L 168.280995 287.643043 
L 168.644957 274.223553 
L 169.190901 286.646273 
L 169.372882 239.890332 
L 169.736845 275.201865 
L 169.918826 277.250783 
L 170.46477 290.227264 
L 170.828732 288.455227 
L 171.192695 280.868693 
L 171.556657 259.050484 
L 171.92062 287.624585 
L 172.466563 292.46077 
L 172.648545 285.834089 
L 172.830526 283.932841 
L 173.012507 286.720107 
L 173.194488 277.01082 
L 173.37647 289.618127 
L 173.740432 288.602897 
L 173.922413 285.280327 
L 174.286376 286.664731 
L 174.468357 279.096656 
L 174.650338 289.008989 
L 175.014301 294.657358 
L 175.378263 281.77317 
L 175.560245 291.44554 
L 175.742226 286.480144 
L 175.924207 289.599668 
L 176.106188 285.077281 
L 176.28817 289.045906 
L 176.470151 284.763483 
L 176.834113 260.711769 
L 177.016095 286.369392 
L 177.198076 274.980361 
L 177.380057 288.215264 
L 177.562038 290.448769 
L 177.74402 288.898237 
L 177.926001 279.835004 
L 178.107982 289.212035 
L 178.289963 263.462119 
L 178.471945 285.058823 
L 178.653926 284.984988 
L 178.835907 291.888549 
L 179.19987 257.204612 
L 179.381851 284.209721 
L 179.563832 290.707191 
L 179.745813 291.796256 
L 179.927795 283.268327 
L 180.109776 286.074052 
L 180.291757 283.563666 
L 180.473738 289.765796 
L 180.837701 290.817944 
L 181.201663 284.135886 
L 181.383645 285.704878 
L 181.929588 287.513832 
L 182.11157 266.378597 
L 182.657513 289.156659 
L 182.839494 282.880693 
L 183.021476 289.341246 
L 183.203457 289.341246 
L 183.567419 255.340281 
L 183.749401 291.020989 
L 184.113363 283.582125 
L 184.295344 284.94807 
L 184.477326 289.156659 
L 184.659307 289.304328 
L 184.841288 286.867777 
L 185.023269 289.378163 
L 185.205251 289.248952 
L 185.387232 232.396091 
L 185.569213 290.319558 
L 185.933176 282.49306 
L 186.115157 282.290014 
L 186.297138 289.525833 
L 186.479119 288.086053 
L 186.661101 274.648104 
L 186.843082 291.667045 
L 187.207044 283.729795 
L 187.389026 287.735337 
L 187.571007 273.2637 
L 188.116951 292.01776 
L 188.480913 285.981759 
L 188.662894 287.513832 
L 189.026857 279.798087 
L 189.208838 281.588583 
L 189.572801 290.024219 
L 189.754782 276.346306 
L 189.936763 287.218493 
L 190.118744 283.711336 
L 190.300726 283.877464 
L 190.482707 286.092511 
L 190.846669 288.196805 
L 191.210632 278.653646 
L 191.574594 282.290014 
L 191.756576 281.791629 
L 191.938557 290.042677 
L 192.302519 286.757025 
L 192.484501 283.988217 
L 192.666482 287.236952 
L 192.848463 281.127115 
L 193.394407 290.688732 
L 193.576388 283.139116 
L 193.758369 292.442311 
L 193.940351 290.282641 
L 194.304313 287.513832 
L 194.486294 287.827631 
L 194.668276 286.97853 
L 194.850257 287.55075 
L 195.032238 270.66102 
L 195.214219 290.00576 
L 195.396201 282.825317 
L 195.760163 291.020989 
L 196.124126 282.160803 
L 196.306107 281.127115 
L 196.488088 290.614898 
L 196.670069 287.163117 
L 196.852051 290.522604 
L 197.034032 282.179262 
L 197.216013 285.852548 
L 197.579976 279.705793 
L 197.761957 286.701649 
L 197.943938 283.914382 
L 198.125919 293.162201 
L 198.307901 288.492145 
L 198.671863 250.337968 
L 199.035826 287.901466 
L 199.217807 288.935154 
L 199.399788 273.669792 
L 199.581769 287.901466 
L 199.763751 286.553979 
L 199.945732 271.177864 
L 200.127713 283.305244 
L 200.309694 283.563666 
L 200.855638 285.575667 
L 201.037619 292.220806 
L 201.2196 286.332474 
L 201.583563 279.391995 
L 201.765544 266.341679 
L 202.129507 281.607042 
L 202.311488 275.607957 
L 202.493469 278.690564 
L 202.67545 286.941612 
L 202.857432 285.889465 
L 203.039413 287.846089 
L 203.221394 280.33339 
L 203.585357 287.864548 
L 203.767338 282.160803 
L 203.949319 244.560388 
L 204.1313 239.539616 
L 204.313282 279.31816 
L 204.677244 286.960071 
L 204.859225 288.381392 
L 205.041207 286.812401 
L 205.223188 259.032026 
L 205.405169 289.599668 
L 205.58715 273.799003 
L 205.769132 284.929611 
L 205.951113 282.548436 
L 206.315075 289.119741 
L 206.497057 169.19343 
L 206.679038 272.562268 
L 206.861019 289.396622 
L 207.043 288.289099 
L 207.406963 283.046822 
L 207.588944 289.008989 
L 207.952907 206.480046 
L 208.134888 281.127115 
L 208.316869 289.101282 
L 208.680832 291.703962 
L 209.044794 275.128031 
L 209.226775 286.793942 
L 209.408757 288.953613 
L 209.772719 277.343077 
L 210.136682 289.987301 
L 210.318663 290.393393 
L 210.682625 276.641646 
L 211.046588 282.825317 
L 211.228569 291.796256 
L 211.956494 285.224951 
L 212.320457 289.544292 
L 212.8664 276.364765 
L 213.048382 260.656393 
L 213.230363 292.497687 
L 213.412344 270.494892 
L 213.776307 289.28587 
L 214.140269 289.618127 
L 214.32225 291.224035 
L 214.504232 285.520291 
L 214.686213 291.408623 
L 215.050175 278.007591 
L 215.232157 281.385537 
L 215.414138 272.211553 
L 215.596119 270.421057 
L 215.7781 283.692877 
L 215.960082 268.50135 
L 216.142063 286.553979 
L 216.324044 289.636585 
L 216.506025 283.323703 
L 216.688007 292.626898 
L 217.051969 284.94807 
L 217.23395 285.760254 
L 217.415932 289.396622 
L 217.597913 281.883922 
L 217.779894 281.680877 
L 217.961875 287.25541 
L 218.143857 288.067594 
L 218.325838 265.89867 
L 218.507819 290.781026 
L 218.871781 280.388766 
L 219.235744 237.859872 
L 219.417725 287.033906 
L 219.599706 287.458456 
L 219.781688 288.953613 
L 219.963669 278.764399 
L 220.14565 278.044508 
L 220.327631 284.689648 
L 220.691594 287.606126 
L 221.055556 247.938334 
L 221.419519 285.224951 
L 221.6015 278.007591 
L 222.147444 288.695191 
L 222.329425 270.494892 
L 222.693388 273.2637 
L 222.875369 268.390597 
L 223.05735 187.153765 
L 223.239331 289.821173 
L 223.421313 195.257144 
L 223.603294 290.116512 
L 223.785275 283.139116 
L 224.149238 284.615813 
L 224.695181 288.584438 
L 224.877163 290.928696 
L 225.059144 289.1382 
L 225.241125 244.135838 
L 225.423106 254.011253 
L 225.605088 290.227264 
L 225.787069 285.151116 
L 225.96905 253.678996 
L 226.151031 287.938383 
L 226.333013 291.611669 
L 226.514994 281.939299 
L 226.696975 288.049135 
L 226.878956 287.587667 
L 227.060938 285.464914 
L 227.242919 291.224035 
L 227.4249 288.824402 
L 227.606881 290.688732 
L 227.788863 285.446456 
L 227.970844 292.608439 
L 228.152825 290.485687 
L 228.334806 271.639332 
L 228.516788 288.326016 
L 228.698769 287.883007 
L 228.88075 291.150201 
L 229.062731 289.082824 
L 229.244713 290.43031 
L 229.426694 198.358209 
L 229.608675 276.752398 
L 229.790656 290.171888 
L 229.972638 278.819775 
L 230.154619 291.371705 
L 230.3366 289.470457 
L 230.518581 280.093427 
L 230.882544 287.753796 
L 231.246506 288.769025 
L 231.428488 285.81563 
L 231.610469 286.443227 
L 231.79245 282.050051 
L 231.974431 283.139116 
L 232.338394 288.879778 
L 232.520375 279.890381 
L 232.702356 292.940696 
L 232.884338 287.606126 
L 233.066319 290.116512 
L 233.430281 280.130344 
L 233.612263 290.504145 
L 233.794244 266.858523 
L 233.976225 289.304328 
L 234.522169 291.962384 
L 234.70415 284.615813 
L 234.886131 286.147887 
L 235.068113 285.907924 
L 235.250094 289.415081 
L 235.432075 287.938383 
L 235.614056 284.412767 
L 235.796038 285.354162 
L 235.978019 287.827631 
L 236.16 283.323703 
L 236.341981 289.045906 
L 236.523962 288.012218 
L 236.705944 280.407225 
L 236.887925 286.221722 
L 237.251887 282.290014 
L 237.433869 293.475999 
L 237.979812 279.336619 
L 238.161794 287.384621 
L 238.343775 286.701649 
L 238.525756 284.302015 
L 238.889719 271.750085 
L 239.0717 287.421539 
L 239.253681 270.642561 
L 239.617644 290.393393 
L 239.799625 289.230494 
L 240.163587 283.249868 
L 240.345569 291.057907 
L 240.52755 283.545207 
L 240.709531 290.891778 
L 241.073494 287.070823 
L 241.255475 279.041279 
L 241.619437 286.074052 
L 241.801419 281.182491 
L 241.9834 292.01776 
L 242.165381 251.519326 
L 242.347362 291.59321 
L 242.529344 288.067594 
L 242.893306 289.71042 
L 243.075287 286.886236 
L 243.257269 274.168177 
L 243.43925 273.152947 
L 243.621231 286.904695 
L 243.985194 292.220806 
L 244.167175 269.07357 
L 244.349156 286.97853 
L 244.531137 252.405345 
L 244.713119 289.544292 
L 244.8951 287.384621 
L 245.077081 288.56598 
L 245.259062 285.944841 
L 245.441044 289.064365 
L 245.805006 283.785171 
L 245.986987 288.750567 
L 246.168969 283.452914 
L 246.35095 293.236036 
L 246.532931 288.621356 
L 246.714912 272.54381 
L 246.896894 246.590848 
L 247.260856 285.760254 
L 247.442837 284.929611 
L 247.624819 282.363849 
L 247.8068 283.692877 
L 247.988781 287.587667 
L 248.170762 285.834089 
L 248.352744 291.334788 
L 248.716706 280.259555 
L 248.898687 288.12297 
L 249.080669 287.218493 
L 249.26265 280.684106 
L 249.444631 282.696106 
L 249.626612 291.427081 
L 249.990575 282.050051 
L 250.354537 199.50265 
L 250.536519 278.192178 
L 250.7185 288.99053 
L 250.900481 283.50829 
L 251.082462 292.977614 
L 251.264444 294.823486 
L 251.446425 288.750567 
L 251.628406 288.84286 
L 251.810387 277.361536 
L 251.992369 282.806859 
L 252.17435 276.014049 
L 252.356331 290.00576 
L 252.902275 284.246639 
L 253.084256 289.636585 
L 253.266237 284.966529 
L 253.448219 284.006675 
L 254.176143 263.628247 
L 254.358125 279.779628 
L 254.540106 276.604728 
L 255.08605 288.658273 
L 255.450012 254.380428 
L 255.631993 285.261868 
L 255.813975 284.412767 
L 256.5419 285.704878 
L 256.723881 281.662418 
L 257.087843 284.984988 
L 257.269825 280.444142 
L 257.633787 283.619042 
L 257.815768 272.063883 
L 257.99775 288.215264 
L 258.179731 288.953613 
L 258.543693 286.793942 
L 258.725675 284.025134 
L 258.907656 274.297388 
L 259.089637 290.670274 
L 259.271618 283.028363 
L 259.4536 292.719192 
L 259.635581 284.94807 
L 259.817562 295.488 
L 259.999543 290.116512 
L 260.545487 287.366163 
L 260.90945 280.794858 
L 261.091431 280.259555 
L 261.273412 274.445058 
L 261.455393 285.557208 
L 261.819356 280.074968 
L 262.001337 291.316329 
L 262.3653 287.938383 
L 262.911243 267.393826 
L 263.275206 278.358307 
L 263.457187 288.178346 
L 263.82115 291.408623 
L 264.003131 289.839631 
L 264.367093 274.869608 
L 264.549075 289.027448 
L 264.731056 224.292712 
L 264.913037 287.163117 
L 265.095018 265.197239 
L 265.277 277.564582 
L 265.458981 272.96836 
L 265.640962 289.341246 
L 265.822943 281.274785 
L 266.004925 289.895007 
L 266.186906 250.947106 
L 266.368887 286.590896 
L 266.550868 273.780544 
L 266.914831 282.160803 
L 267.460775 289.931925 
L 268.1887 278.469059 
L 268.370681 278.358307 
L 268.552662 286.627814 
L 268.916625 282.64073 
L 269.098606 282.769941 
L 269.280587 285.427997 
L 269.64455 251.556244 
L 269.826531 288.159888 
L 270.008512 279.262784 
L 270.372475 281.422454 
L 270.736437 282.06851 
L 270.918418 276.29093 
L 271.1004 285.723336 
L 271.282381 288.805943 
L 272.192287 282.49306 
L 272.556249 284.357391 
L 273.102193 288.086053 
L 273.284174 282.511519 
L 274.012099 281.237867 
L 275.103987 290.854861 
L 275.467949 281.6255 
L 276.195874 285.538749 
L 276.377856 293.475999 
L 276.559837 264.551183 
L 277.287762 287.624585 
L 277.469743 279.133573 
L 278.015687 281.570124 
L 278.561631 225.750951 
L 278.743612 287.643043 
L 278.925593 269.295075 
L 279.107574 285.021905 
L 279.653518 270.753314 
L 279.835499 288.750567 
L 280.199462 284.265098 
L 280.563424 292.866862 
L 280.745406 280.241096 
L 280.927387 283.452914 
L 281.109368 289.064365 
L 281.291349 278.764399 
L 281.655312 269.64579 
L 282.019274 288.12297 
L 282.201256 285.871006 
L 282.383237 286.960071 
L 282.565218 289.747338 
L 282.747199 265.363367 
L 282.929181 289.765796 
L 283.111162 283.914382 
L 283.293143 285.261868 
L 283.839087 281.459372 
L 284.021068 288.289099 
L 284.385031 277.656875 
L 284.930974 289.71042 
L 285.294937 280.204179 
L 285.476918 292.202348 
L 285.658899 288.455227 
L 286.022862 271.657791 
L 286.204843 279.078197 
L 286.568806 268.335221 
L 286.750787 288.898237 
L 286.932768 289.1382 
L 287.114749 243.175984 
L 287.296731 288.196805 
L 287.478712 269.313533 
L 287.660693 291.870091 
L 288.024656 274.721939 
L 288.388618 287.384621 
L 288.752581 282.64073 
L 288.934562 283.969758 
L 289.116543 271.95313 
L 289.480506 290.614898 
L 289.662487 270.273387 
L 289.844468 225.307942 
L 290.026449 262.262302 
L 290.390412 289.008989 
L 291.300318 261.893127 
L 291.66428 287.827631 
L 291.846262 281.034821 
L 292.028243 256.761603 
L 292.392205 290.43031 
L 292.574187 267.596872 
L 292.938149 288.344475 
L 293.12013 285.557208 
L 293.302112 289.064365 
L 293.484093 266.433973 
L 293.666074 286.221722 
L 293.848055 284.671189 
L 294.030037 273.060654 
L 294.212018 280.960986 
L 294.393999 295.358789 
L 294.939943 270.033423 
L 296.03183 287.919924 
L 296.395793 291.168659 
L 296.941737 279.410454 
L 297.123718 288.639814 
L 298.033624 283.748253 
L 298.215605 281.145574 
L 298.397587 276.198636 
L 298.579568 291.131742 
L 298.94353 293.642128 
L 299.489474 288.326016 
L 299.853437 288.27064 
L 300.217399 232.11921 
L 300.39938 282.548436 
L 301.127305 256.041713 
L 301.673249 261.837751 
L 301.85523 275.035737 
L 302.401174 285.335703 
L 302.583155 212.036121 
L 302.765137 283.65596 
L 302.947118 279.336619 
L 303.129099 258.847438 
L 303.493062 286.996988 
L 303.675043 291.353246 
L 303.857024 287.218493 
L 304.039005 292.442311 
L 304.220987 284.357391 
L 304.402968 285.686419 
L 304.584949 291.316329 
L 304.76693 285.557208 
L 304.948912 285.741795 
L 305.130893 284.08051 
L 305.494855 276.549352 
L 305.676837 290.781026 
L 305.858818 284.94807 
L 306.040799 286.960071 
L 306.586743 289.544292 
L 306.768724 288.621356 
L 306.950705 290.596439 
L 307.132687 286.664731 
L 307.67863 257.499952 
L 307.860611 285.834089 
L 308.042593 290.707191 
L 308.224574 291.833173 
L 308.406555 288.233723 
L 308.588536 287.126199 
L 308.952499 289.045906 
L 309.13448 285.151116 
L 309.498443 271.399369 
L 310.408349 290.633356 
L 310.772311 238.745891 
L 311.136274 283.176033 
L 311.500236 283.729795 
L 312.410143 285.594125 
L 312.592124 270.162635 
L 312.774105 284.671189 
L 313.138068 288.473686 
L 313.865993 268.35368 
L 314.411936 284.818859 
L 314.593918 283.895923 
L 314.775899 252.460721 
L 315.139861 289.913466 
L 315.321843 289.378163 
L 315.867786 288.935154 
L 316.595711 285.907924 
L 316.777693 268.833607 
L 317.141655 281.736253 
L 317.505618 290.448769 
L 317.687599 282.06851 
L 317.86958 152.839003 
L 318.233543 289.415081 
L 318.779486 286.092511 
L 319.32543 277.841463 
L 319.507411 288.584438 
L 319.689393 254.546556 
L 319.871374 258.422888 
L 320.235336 283.563666 
L 320.417318 254.731144 
L 320.599299 289.045906 
L 320.963261 281.05328 
L 321.327224 289.599668 
L 321.509205 284.984988 
L 322.055149 287.015447 
L 322.23713 288.41831 
L 322.419111 282.49306 
L 322.601093 261.911586 
L 322.965055 286.203263 
L 323.147036 285.778713 
L 323.329018 261.874669 
L 323.510999 279.982674 
L 323.874961 289.433539 
L 324.602886 279.428913 
L 324.966849 283.951299 
L 325.14883 274.961902 
L 325.330811 288.510603 
L 325.876755 283.471373 
L 326.240717 86.406065 
L 326.786661 285.132657 
L 327.150624 277.952215 
L 327.878549 276.050967 
L 328.424492 284.043593 
L 329.334399 288.879778 
L 330.062324 284.541978 
L 330.244305 275.054196 
L 330.426286 291.113283 
L 330.608267 286.923153 
L 330.97223 285.612584 
L 331.154211 289.119741 
L 331.336192 281.385537 
L 331.518174 288.639814 
L 332.42808 281.311702 
L 333.337986 287.9753 
L 333.519967 278.985903 
L 334.247892 226.138584 
L 334.429874 195.478649 
L 334.611855 277.87838 
L 335.157799 279.779628 
L 335.885724 283.65596 
L 336.067705 60.453103 
L 336.249686 281.403996 
L 336.79563 275.921756 
L 336.977611 291.537834 
L 337.159592 282.013134 
L 338.069499 288.141429 
L 338.433461 289.082824 
L 338.979405 279.798087 
L 339.343367 286.996988 
L 340.071292 289.193576 
L 340.617236 281.459372 
L 340.799217 250.984023 
L 340.981199 53.568 
L 341.16318 285.907924 
L 341.345161 286.018676 
L 341.527142 210.725552 
L 341.709124 288.289099 
L 341.891105 286.480144 
L 342.073086 282.437684 
L 342.437049 253.531327 
L 342.61903 283.434455 
L 342.801011 287.089282 
L 342.982992 248.842812 
L 343.164974 289.119741 
L 343.346955 286.646273 
L 343.528936 281.643959 
L 343.892898 286.904695 
L 344.07488 279.355078 
L 344.256861 289.359705 
L 344.620823 284.541978 
L 344.802805 247.99371 
L 344.984786 267.523037 
L 345.712711 230.919393 
L 345.894692 269.018194 
L 346.804598 223.572822 
L 346.98658 270.679479 
L 347.350542 178.607377 
L 347.532523 273.079112 
L 347.896486 289.378163 
L 348.078467 244.301966 
L 348.44243 284.781942 
L 348.624411 281.034821 
L 348.806392 202.142247 
L 348.988373 284.320474 
L 349.170355 286.646273 
L 349.534317 261.320907 
L 349.89828 256.632392 
L 350.080261 281.05328 
L 350.444223 98.588821 
L 350.626205 278.413683 
L 350.990167 273.780544 
L 351.35413 287.69842 
L 351.536111 256.872355 
L 351.718092 278.819775 
L 351.900073 278.044508 
L 352.082055 283.600584 
L 352.446017 269.571955 
L 352.627998 280.33339 
L 353.355923 282.659189 
L 353.719886 282.93607 
L 353.901867 279.484289 
L 354.447811 283.415996 
L 354.993755 275.71871 
L 355.175736 283.342161 
L 355.357717 284.52352 
L 355.539698 269.627332 
L 356.267623 282.031592 
L 356.813567 268.076799 
L 357.723473 281.6255 
L 358.451398 189.221142 
L 358.63338 283.452914 
L 359.179323 251.888501 
L 359.361305 284.320474 
L 359.543286 267.707625 
L 359.725267 287.366163 
L 360.08923 285.649502 
L 360.271211 265.289532 
L 361.181117 265.787918 
L 361.727061 290.522604 
L 361.909042 188.076701 
L 362.091023 286.424768 
L 362.636967 283.415996 
L 363.000929 265.141862 
L 363.364892 285.24341 
L 363.910836 253.34674 
L 364.092817 233.983541 
L 364.274798 278.284472 
L 364.820742 278.229096 
L 365.002723 286.314016 
L 365.366686 287.883007 
L 365.730648 279.871922 
L 366.094611 275.534122 
L 366.640554 285.040364 
L 366.822536 261.265531 
L 367.550461 286.443227 
L 368.278386 267.892212 
L 368.460367 286.221722 
L 368.642348 287.532291 
L 369.188292 272.322305 
L 369.552254 276.641646 
L 369.734236 277.73071 
L 370.098198 277.490747 
L 370.280179 289.304328 
L 370.462161 249.821124 
L 371.008104 228.722805 
L 371.190086 281.496289 
L 371.372067 275.534122 
L 372.099992 289.415081 
L 372.281973 223.388235 
L 372.463954 205.870909 
L 372.645936 293.845174 
L 373.009898 72.119015 
L 373.191879 285.021905 
L 373.373861 282.825317 
L 374.101786 279.059738 
L 374.829711 289.248952 
L 375.375654 285.09574 
L 375.557636 275.99559 
L 375.739617 280.75794 
L 375.921598 293.475999 
L 376.285561 283.379079 
L 376.831504 280.499518 
L 377.013486 282.659189 
L 377.377448 277.084655 
L 377.559429 281.810088 
L 377.741411 281.643959 
L 378.105373 282.806859 
L 378.287354 268.630561 
L 379.19726 281.6255 
L 379.743204 277.01082 
L 379.925185 281.680877 
L 380.107167 269.627332 
L 380.289148 289.599668 
L 380.471129 287.310787 
L 380.65311 271.362451 
L 381.017073 279.558124 
L 381.199054 288.861319 
L 382.290942 230.365632 
L 383.382829 238.210588 
L 384.110754 240.665598 
L 384.656698 279.724252 
L 385.202642 221.560822 
L 385.748585 291.611669 
L 385.930567 284.911153 
L 386.294529 285.003446 
L 386.47651 272.359222 
L 386.658492 288.252181 
L 386.840473 285.040364 
L 387.568398 291.260953 
L 388.114342 285.981759 
L 388.478304 278.838233 
L 389.024248 286.757025 
L 389.38821 282.290014 
L 390.662079 281.680877 
L 391.208023 261.025568 
L 396.485479 272.451516 
L 397.031423 279.76117 
L 397.577366 284.486602 
L 398.12331 294.103596 
L 398.487273 281.77317 
L 398.487273 281.77317 
" style="fill:none;stroke:#0000ff;stroke-linecap:square;stroke-width:1.5;"/>
   </g>
   <g id="patch_3">
    <path d="M 57.6 307.584 
L 57.6 41.472 
" style="fill:none;stroke:#000000;stroke-linecap:square;stroke-linejoin:miter;stroke-width:0.8;"/>
   </g>
   <g id="patch_4">
    <path d="M 414.72 307.584 
L 414.72 41.472 
" style="fill:none;stroke:#000000;stroke-linecap:square;stroke-linejoin:miter;stroke-width:0.8;"/>
   </g>
   <g id="patch_5">
    <path d="M 57.6 307.584 
L 414.72 307.584 
" style="fill:none;stroke:#000000;stroke-linecap:square;stroke-linejoin:miter;stroke-width:0.8;"/>
   </g>
   <g id="patch_6">
    <path d="M 57.6 41.472 
L 414.72 41.472 
" style="fill:none;stroke:#000000;stroke-linecap:square;stroke-linejoin:miter;stroke-width:0.8;"/>
   </g>
   <g id="text_17">
    <!-- temperature-&gt;ping_day -->
    <g transform="translate(164.131875 35.472)scale(0.12 -0.12)">
     <defs>
      <path d="M 313 2009 
L 1997 2009 
L 1997 1497 
L 313 1497 
L 313 2009 
z
" id="DejaVuSans-2d" transform="scale(0.015625)"/>
      <path d="M 678 3150 
L 678 3719 
L 4684 2266 
L 4684 1747 
L 678 294 
L 678 863 
L 3897 2003 
L 678 3150 
z
" id="DejaVuSans-3e" transform="scale(0.015625)"/>
      <path d="M 3513 2113 
L 3513 0 
L 2938 0 
L 2938 2094 
Q 2938 2591 2744 2837 
Q 2550 3084 2163 3084 
Q 1697 3084 1428 2787 
Q 1159 2491 1159 1978 
L 1159 0 
L 581 0 
L 581 3500 
L 1159 3500 
L 1159 2956 
Q 1366 3272 1645 3428 
Q 1925 3584 2291 3584 
Q 2894 3584 3203 3211 
Q 3513 2838 3513 2113 
z
" id="DejaVuSans-6e" transform="scale(0.015625)"/>
      <path d="M 2906 1791 
Q 2906 2416 2648 2759 
Q 2391 3103 1925 3103 
Q 1463 3103 1205 2759 
Q 947 2416 947 1791 
Q 947 1169 1205 825 
Q 1463 481 1925 481 
Q 2391 481 2648 825 
Q 2906 1169 2906 1791 
z
M 3481 434 
Q 3481 -459 3084 -895 
Q 2688 -1331 1869 -1331 
Q 1566 -1331 1297 -1286 
Q 1028 -1241 775 -1147 
L 775 -588 
Q 1028 -725 1275 -790 
Q 1522 -856 1778 -856 
Q 2344 -856 2625 -561 
Q 2906 -266 2906 331 
L 2906 616 
Q 2728 306 2450 153 
Q 2172 0 1784 0 
Q 1141 0 747 490 
Q 353 981 353 1791 
Q 353 2603 747 3093 
Q 1141 3584 1784 3584 
Q 2172 3584 2450 3431 
Q 2728 3278 2906 2969 
L 2906 3500 
L 3481 3500 
L 3481 434 
z
" id="DejaVuSans-67" transform="scale(0.015625)"/>
      <path d="M 3263 -1063 
L 3263 -1509 
L -63 -1509 
L -63 -1063 
L 3263 -1063 
z
" id="DejaVuSans-5f" transform="scale(0.015625)"/>
      <path d="M 2906 2969 
L 2906 4863 
L 3481 4863 
L 3481 0 
L 2906 0 
L 2906 525 
Q 2725 213 2448 61 
Q 2172 -91 1784 -91 
Q 1150 -91 751 415 
Q 353 922 353 1747 
Q 353 2572 751 3078 
Q 1150 3584 1784 3584 
Q 2172 3584 2448 3432 
Q 2725 3281 2906 2969 
z
M 947 1747 
Q 947 1113 1208 752 
Q 1469 391 1925 391 
Q 2381 391 2643 752 
Q 2906 1113 2906 1747 
Q 2906 2381 2643 2742 
Q 2381 3103 1925 3103 
Q 1469 3103 1208 2742 
Q 947 2381 947 1747 
z
" id="DejaVuSans-64" transform="scale(0.015625)"/>
      <path d="M 2059 -325 
Q 1816 -950 1584 -1140 
Q 1353 -1331 966 -1331 
L 506 -1331 
L 506 -850 
L 844 -850 
Q 1081 -850 1212 -737 
Q 1344 -625 1503 -206 
L 1606 56 
L 191 3500 
L 800 3500 
L 1894 763 
L 2988 3500 
L 3597 3500 
L 2059 -325 
z
" id="DejaVuSans-79" transform="scale(0.015625)"/>
     </defs>
     <use xlink:href="#DejaVuSans-74"/>
     <use x="39.208984" xlink:href="#DejaVuSans-65"/>
     <use x="100.732422" xlink:href="#DejaVuSans-6d"/>
     <use x="198.144531" xlink:href="#DejaVuSans-70"/>
     <use x="261.621094" xlink:href="#DejaVuSans-65"/>
     <use x="323.144531" xlink:href="#DejaVuSans-72"/>
     <use x="364.257812" xlink:href="#DejaVuSans-61"/>
     <use x="425.537109" xlink:href="#DejaVuSans-74"/>
     <use x="464.746094" xlink:href="#DejaVuSans-75"/>
     <use x="528.125" xlink:href="#DejaVuSans-72"/>
     <use x="566.988281" xlink:href="#DejaVuSans-65"/>
     <use x="628.511719" xlink:href="#DejaVuSans-2d"/>
     <use x="664.595703" xlink:href="#DejaVuSans-3e"/>
     <use x="748.384766" xlink:href="#DejaVuSans-70"/>
     <use x="811.861328" xlink:href="#DejaVuSans-69"/>
     <use x="839.644531" xlink:href="#DejaVuSans-6e"/>
     <use x="903.023438" xlink:href="#DejaVuSans-67"/>
     <use x="966.5" xlink:href="#DejaVuSans-5f"/>
     <use x="1016.5" xlink:href="#DejaVuSans-64"/>
     <use x="1079.976562" xlink:href="#DejaVuSans-61"/>
     <use x="1141.255859" xlink:href="#DejaVuSans-79"/>
    </g>
   </g>
  </g>
  <g id="legend_1">
   <g id="patch_7">
    <path d="M 415.451563 22.678125 
L 453.8 22.678125 
Q 455.8 22.678125 455.8 20.678125 
L 455.8 7 
Q 455.8 5 453.8 5 
L 415.451563 5 
Q 413.451563 5 413.451563 7 
L 413.451563 20.678125 
Q 413.451563 22.678125 415.451563 22.678125 
z
" style="fill:#ffffff;opacity:0.8;stroke:#cccccc;stroke-linejoin:miter;"/>
   </g>
   <g id="line2d_17">
    <path d="M 417.451563 13.098438 
L 437.451563 13.098438 
" style="fill:none;stroke:#0000ff;stroke-linecap:square;stroke-width:1.5;"/>
   </g>
   <g id="line2d_18"/>
   <g id="text_18">
    <!-- p -->
    <g transform="translate(445.451563 16.598438)scale(0.1 -0.1)">
     <use xlink:href="#DejaVuSans-70"/>
    </g>
   </g>
  </g>
 </g>
 <defs>
  <clipPath id="p300a96c1a1">
   <rect height="266.112" width="357.12" x="57.6" y="41.472"/>
  </clipPath>
 </defs>
</svg>
