<?xml version="1.0" encoding="utf-8" standalone="no"?>
<!DOCTYPE svg PUBLIC "-//W3C//DTD SVG 1.1//EN"
  "http://www.w3.org/Graphics/SVG/1.1/DTD/svg11.dtd">
<!-- Created with matplotlib (https://matplotlib.org/) -->
<svg height="345.6pt" version="1.1" viewBox="0 0 460.8 345.6" width="460.8pt" xmlns="http://www.w3.org/2000/svg" xmlns:xlink="http://www.w3.org/1999/xlink">
 <metadata>
  <rdf:RDF xmlns:cc="http://creativecommons.org/ns#" xmlns:dc="http://purl.org/dc/elements/1.1/" xmlns:rdf="http://www.w3.org/1999/02/22-rdf-syntax-ns#">
   <cc:Work>
    <dc:type rdf:resource="http://purl.org/dc/dcmitype/StillImage"/>
    <dc:date>2022-07-16T22:12:07.171000</dc:date>
    <dc:format>image/svg+xml</dc:format>
    <dc:creator>
     <cc:Agent>
      <dc:title>Matplotlib v3.3.2, https://matplotlib.org/</dc:title>
     </cc:Agent>
    </dc:creator>
   </cc:Work>
  </rdf:RDF>
 </metadata>
 <defs>
  <style type="text/css">*{stroke-linecap:butt;stroke-linejoin:round;}</style>
 </defs>
 <g id="figure_1">
  <g id="patch_1">
   <path d="M 0 345.6 
L 460.8 345.6 
L 460.8 0 
L 0 0 
z
" style="fill:#ffffff;"/>
  </g>
  <g id="axes_1">
   <g id="patch_2">
    <path d="M 57.6 307.584 
L 414.72 307.584 
L 414.72 41.472 
L 57.6 41.472 
z
" style="fill:#ffffff;"/>
   </g>
   <g id="matplotlib.axis_1">
    <g id="xtick_1">
     <g id="line2d_1">
      <defs>
       <path d="M 0 0 
L 0 3.5 
" id="m5206348ba1" style="stroke:#000000;stroke-width:0.8;"/>
      </defs>
      <g>
       <use style="stroke:#000000;stroke-width:0.8;" x="61.773432" xlink:href="#m5206348ba1" y="307.584"/>
      </g>
     </g>
     <g id="text_1">
      <!-- 0 -->
      <g transform="translate(58.592182 322.182437)scale(0.1 -0.1)">
       <defs>
        <path d="M 31.78125 66.40625 
Q 24.171875 66.40625 20.328125 58.90625 
Q 16.5 51.421875 16.5 36.375 
Q 16.5 21.390625 20.328125 13.890625 
Q 24.171875 6.390625 31.78125 6.390625 
Q 39.453125 6.390625 43.28125 13.890625 
Q 47.125 21.390625 47.125 36.375 
Q 47.125 51.421875 43.28125 58.90625 
Q 39.453125 66.40625 31.78125 66.40625 
z
M 31.78125 74.21875 
Q 44.046875 74.21875 50.515625 64.515625 
Q 56.984375 54.828125 56.984375 36.375 
Q 56.984375 17.96875 50.515625 8.265625 
Q 44.046875 -1.421875 31.78125 -1.421875 
Q 19.53125 -1.421875 13.0625 8.265625 
Q 6.59375 17.96875 6.59375 36.375 
Q 6.59375 54.828125 13.0625 64.515625 
Q 19.53125 74.21875 31.78125 74.21875 
z
" id="DejaVuSans-48"/>
       </defs>
       <use xlink:href="#DejaVuSans-48"/>
      </g>
     </g>
    </g>
    <g id="xtick_2">
     <g id="line2d_2">
      <g>
       <use style="stroke:#000000;stroke-width:0.8;" x="137.969325" xlink:href="#m5206348ba1" y="307.584"/>
      </g>
     </g>
     <g id="text_2">
      <!-- 2 -->
      <g transform="translate(134.788075 322.182437)scale(0.1 -0.1)">
       <defs>
        <path d="M 19.1875 8.296875 
L 53.609375 8.296875 
L 53.609375 0 
L 7.328125 0 
L 7.328125 8.296875 
Q 12.9375 14.109375 22.625 23.890625 
Q 32.328125 33.6875 34.8125 36.53125 
Q 39.546875 41.84375 41.421875 45.53125 
Q 43.3125 49.21875 43.3125 52.78125 
Q 43.3125 58.59375 39.234375 62.25 
Q 35.15625 65.921875 28.609375 65.921875 
Q 23.96875 65.921875 18.8125 64.3125 
Q 13.671875 62.703125 7.8125 59.421875 
L 7.8125 69.390625 
Q 13.765625 71.78125 18.9375 73 
Q 24.125 74.21875 28.421875 74.21875 
Q 39.75 74.21875 46.484375 68.546875 
Q 53.21875 62.890625 53.21875 53.421875 
Q 53.21875 48.921875 51.53125 44.890625 
Q 49.859375 40.875 45.40625 35.40625 
Q 44.1875 33.984375 37.640625 27.21875 
Q 31.109375 20.453125 19.1875 8.296875 
z
" id="DejaVuSans-50"/>
       </defs>
       <use xlink:href="#DejaVuSans-50"/>
      </g>
     </g>
    </g>
    <g id="xtick_3">
     <g id="line2d_3">
      <g>
       <use style="stroke:#000000;stroke-width:0.8;" x="214.165217" xlink:href="#m5206348ba1" y="307.584"/>
      </g>
     </g>
     <g id="text_3">
      <!-- 4 -->
      <g transform="translate(210.983967 322.182437)scale(0.1 -0.1)">
       <defs>
        <path d="M 37.796875 64.3125 
L 12.890625 25.390625 
L 37.796875 25.390625 
z
M 35.203125 72.90625 
L 47.609375 72.90625 
L 47.609375 25.390625 
L 58.015625 25.390625 
L 58.015625 17.1875 
L 47.609375 17.1875 
L 47.609375 0 
L 37.796875 0 
L 37.796875 17.1875 
L 4.890625 17.1875 
L 4.890625 26.703125 
z
" id="DejaVuSans-52"/>
       </defs>
       <use xlink:href="#DejaVuSans-52"/>
      </g>
     </g>
    </g>
    <g id="xtick_4">
     <g id="line2d_4">
      <g>
       <use style="stroke:#000000;stroke-width:0.8;" x="290.36111" xlink:href="#m5206348ba1" y="307.584"/>
      </g>
     </g>
     <g id="text_4">
      <!-- 6 -->
      <g transform="translate(287.17986 322.182437)scale(0.1 -0.1)">
       <defs>
        <path d="M 33.015625 40.375 
Q 26.375 40.375 22.484375 35.828125 
Q 18.609375 31.296875 18.609375 23.390625 
Q 18.609375 15.53125 22.484375 10.953125 
Q 26.375 6.390625 33.015625 6.390625 
Q 39.65625 6.390625 43.53125 10.953125 
Q 47.40625 15.53125 47.40625 23.390625 
Q 47.40625 31.296875 43.53125 35.828125 
Q 39.65625 40.375 33.015625 40.375 
z
M 52.59375 71.296875 
L 52.59375 62.3125 
Q 48.875 64.0625 45.09375 64.984375 
Q 41.3125 65.921875 37.59375 65.921875 
Q 27.828125 65.921875 22.671875 59.328125 
Q 17.53125 52.734375 16.796875 39.40625 
Q 19.671875 43.65625 24.015625 45.921875 
Q 28.375 48.1875 33.59375 48.1875 
Q 44.578125 48.1875 50.953125 41.515625 
Q 57.328125 34.859375 57.328125 23.390625 
Q 57.328125 12.15625 50.6875 5.359375 
Q 44.046875 -1.421875 33.015625 -1.421875 
Q 20.359375 -1.421875 13.671875 8.265625 
Q 6.984375 17.96875 6.984375 36.375 
Q 6.984375 53.65625 15.1875 63.9375 
Q 23.390625 74.21875 37.203125 74.21875 
Q 40.921875 74.21875 44.703125 73.484375 
Q 48.484375 72.75 52.59375 71.296875 
z
" id="DejaVuSans-54"/>
       </defs>
       <use xlink:href="#DejaVuSans-54"/>
      </g>
     </g>
    </g>
    <g id="xtick_5">
     <g id="line2d_5">
      <g>
       <use style="stroke:#000000;stroke-width:0.8;" x="366.557003" xlink:href="#m5206348ba1" y="307.584"/>
      </g>
     </g>
     <g id="text_5">
      <!-- 8 -->
      <g transform="translate(363.375753 322.182437)scale(0.1 -0.1)">
       <defs>
        <path d="M 31.78125 34.625 
Q 24.75 34.625 20.71875 30.859375 
Q 16.703125 27.09375 16.703125 20.515625 
Q 16.703125 13.921875 20.71875 10.15625 
Q 24.75 6.390625 31.78125 6.390625 
Q 38.8125 6.390625 42.859375 10.171875 
Q 46.921875 13.96875 46.921875 20.515625 
Q 46.921875 27.09375 42.890625 30.859375 
Q 38.875 34.625 31.78125 34.625 
z
M 21.921875 38.8125 
Q 15.578125 40.375 12.03125 44.71875 
Q 8.5 49.078125 8.5 55.328125 
Q 8.5 64.0625 14.71875 69.140625 
Q 20.953125 74.21875 31.78125 74.21875 
Q 42.671875 74.21875 48.875 69.140625 
Q 55.078125 64.0625 55.078125 55.328125 
Q 55.078125 49.078125 51.53125 44.71875 
Q 48 40.375 41.703125 38.8125 
Q 48.828125 37.15625 52.796875 32.3125 
Q 56.78125 27.484375 56.78125 20.515625 
Q 56.78125 9.90625 50.3125 4.234375 
Q 43.84375 -1.421875 31.78125 -1.421875 
Q 19.734375 -1.421875 13.25 4.234375 
Q 6.78125 9.90625 6.78125 20.515625 
Q 6.78125 27.484375 10.78125 32.3125 
Q 14.796875 37.15625 21.921875 38.8125 
z
M 18.3125 54.390625 
Q 18.3125 48.734375 21.84375 45.5625 
Q 25.390625 42.390625 31.78125 42.390625 
Q 38.140625 42.390625 41.71875 45.5625 
Q 45.3125 48.734375 45.3125 54.390625 
Q 45.3125 60.0625 41.71875 63.234375 
Q 38.140625 66.40625 31.78125 66.40625 
Q 25.390625 66.40625 21.84375 63.234375 
Q 18.3125 60.0625 18.3125 54.390625 
z
" id="DejaVuSans-56"/>
       </defs>
       <use xlink:href="#DejaVuSans-56"/>
      </g>
     </g>
    </g>
    <g id="text_6">
     <!-- wind_speed from WeatherBitIO -->
     <g transform="translate(158.679531 335.860562)scale(0.1 -0.1)">
      <defs>
       <path d="M 4.203125 54.6875 
L 13.1875 54.6875 
L 24.421875 12.015625 
L 35.59375 54.6875 
L 46.1875 54.6875 
L 57.421875 12.015625 
L 68.609375 54.6875 
L 77.59375 54.6875 
L 63.28125 0 
L 52.6875 0 
L 40.921875 44.828125 
L 29.109375 0 
L 18.5 0 
z
" id="DejaVuSans-119"/>
       <path d="M 9.421875 54.6875 
L 18.40625 54.6875 
L 18.40625 0 
L 9.421875 0 
z
M 9.421875 75.984375 
L 18.40625 75.984375 
L 18.40625 64.59375 
L 9.421875 64.59375 
z
" id="DejaVuSans-105"/>
       <path d="M 54.890625 33.015625 
L 54.890625 0 
L 45.90625 0 
L 45.90625 32.71875 
Q 45.90625 40.484375 42.875 44.328125 
Q 39.84375 48.1875 33.796875 48.1875 
Q 26.515625 48.1875 22.3125 43.546875 
Q 18.109375 38.921875 18.109375 30.90625 
L 18.109375 0 
L 9.078125 0 
L 9.078125 54.6875 
L 18.109375 54.6875 
L 18.109375 46.1875 
Q 21.34375 51.125 25.703125 53.5625 
Q 30.078125 56 35.796875 56 
Q 45.21875 56 50.046875 50.171875 
Q 54.890625 44.34375 54.890625 33.015625 
z
" id="DejaVuSans-110"/>
       <path d="M 45.40625 46.390625 
L 45.40625 75.984375 
L 54.390625 75.984375 
L 54.390625 0 
L 45.40625 0 
L 45.40625 8.203125 
Q 42.578125 3.328125 38.25 0.953125 
Q 33.9375 -1.421875 27.875 -1.421875 
Q 17.96875 -1.421875 11.734375 6.484375 
Q 5.515625 14.40625 5.515625 27.296875 
Q 5.515625 40.1875 11.734375 48.09375 
Q 17.96875 56 27.875 56 
Q 33.9375 56 38.25 53.625 
Q 42.578125 51.265625 45.40625 46.390625 
z
M 14.796875 27.296875 
Q 14.796875 17.390625 18.875 11.75 
Q 22.953125 6.109375 30.078125 6.109375 
Q 37.203125 6.109375 41.296875 11.75 
Q 45.40625 17.390625 45.40625 27.296875 
Q 45.40625 37.203125 41.296875 42.84375 
Q 37.203125 48.484375 30.078125 48.484375 
Q 22.953125 48.484375 18.875 42.84375 
Q 14.796875 37.203125 14.796875 27.296875 
z
" id="DejaVuSans-100"/>
       <path d="M 50.984375 -16.609375 
L 50.984375 -23.578125 
L -0.984375 -23.578125 
L -0.984375 -16.609375 
z
" id="DejaVuSans-95"/>
       <path d="M 44.28125 53.078125 
L 44.28125 44.578125 
Q 40.484375 46.53125 36.375 47.5 
Q 32.28125 48.484375 27.875 48.484375 
Q 21.1875 48.484375 17.84375 46.4375 
Q 14.5 44.390625 14.5 40.28125 
Q 14.5 37.15625 16.890625 35.375 
Q 19.28125 33.59375 26.515625 31.984375 
L 29.59375 31.296875 
Q 39.15625 29.25 43.1875 25.515625 
Q 47.21875 21.78125 47.21875 15.09375 
Q 47.21875 7.46875 41.1875 3.015625 
Q 35.15625 -1.421875 24.609375 -1.421875 
Q 20.21875 -1.421875 15.453125 -0.5625 
Q 10.6875 0.296875 5.421875 2 
L 5.421875 11.28125 
Q 10.40625 8.6875 15.234375 7.390625 
Q 20.0625 6.109375 24.8125 6.109375 
Q 31.15625 6.109375 34.5625 8.28125 
Q 37.984375 10.453125 37.984375 14.40625 
Q 37.984375 18.0625 35.515625 20.015625 
Q 33.0625 21.96875 24.703125 23.78125 
L 21.578125 24.515625 
Q 13.234375 26.265625 9.515625 29.90625 
Q 5.8125 33.546875 5.8125 39.890625 
Q 5.8125 47.609375 11.28125 51.796875 
Q 16.75 56 26.8125 56 
Q 31.78125 56 36.171875 55.265625 
Q 40.578125 54.546875 44.28125 53.078125 
z
" id="DejaVuSans-115"/>
       <path d="M 18.109375 8.203125 
L 18.109375 -20.796875 
L 9.078125 -20.796875 
L 9.078125 54.6875 
L 18.109375 54.6875 
L 18.109375 46.390625 
Q 20.953125 51.265625 25.265625 53.625 
Q 29.59375 56 35.59375 56 
Q 45.5625 56 51.78125 48.09375 
Q 58.015625 40.1875 58.015625 27.296875 
Q 58.015625 14.40625 51.78125 6.484375 
Q 45.5625 -1.421875 35.59375 -1.421875 
Q 29.59375 -1.421875 25.265625 0.953125 
Q 20.953125 3.328125 18.109375 8.203125 
z
M 48.6875 27.296875 
Q 48.6875 37.203125 44.609375 42.84375 
Q 40.53125 48.484375 33.40625 48.484375 
Q 26.265625 48.484375 22.1875 42.84375 
Q 18.109375 37.203125 18.109375 27.296875 
Q 18.109375 17.390625 22.1875 11.75 
Q 26.265625 6.109375 33.40625 6.109375 
Q 40.53125 6.109375 44.609375 11.75 
Q 48.6875 17.390625 48.6875 27.296875 
z
" id="DejaVuSans-112"/>
       <path d="M 56.203125 29.59375 
L 56.203125 25.203125 
L 14.890625 25.203125 
Q 15.484375 15.921875 20.484375 11.0625 
Q 25.484375 6.203125 34.421875 6.203125 
Q 39.59375 6.203125 44.453125 7.46875 
Q 49.3125 8.734375 54.109375 11.28125 
L 54.109375 2.78125 
Q 49.265625 0.734375 44.1875 -0.34375 
Q 39.109375 -1.421875 33.890625 -1.421875 
Q 20.796875 -1.421875 13.15625 6.1875 
Q 5.515625 13.8125 5.515625 26.8125 
Q 5.515625 40.234375 12.765625 48.109375 
Q 20.015625 56 32.328125 56 
Q 43.359375 56 49.78125 48.890625 
Q 56.203125 41.796875 56.203125 29.59375 
z
M 47.21875 32.234375 
Q 47.125 39.59375 43.09375 43.984375 
Q 39.0625 48.390625 32.421875 48.390625 
Q 24.90625 48.390625 20.390625 44.140625 
Q 15.875 39.890625 15.1875 32.171875 
z
" id="DejaVuSans-101"/>
       <path id="DejaVuSans-32"/>
       <path d="M 37.109375 75.984375 
L 37.109375 68.5 
L 28.515625 68.5 
Q 23.6875 68.5 21.796875 66.546875 
Q 19.921875 64.59375 19.921875 59.515625 
L 19.921875 54.6875 
L 34.71875 54.6875 
L 34.71875 47.703125 
L 19.921875 47.703125 
L 19.921875 0 
L 10.890625 0 
L 10.890625 47.703125 
L 2.296875 47.703125 
L 2.296875 54.6875 
L 10.890625 54.6875 
L 10.890625 58.5 
Q 10.890625 67.625 15.140625 71.796875 
Q 19.390625 75.984375 28.609375 75.984375 
z
" id="DejaVuSans-102"/>
       <path d="M 41.109375 46.296875 
Q 39.59375 47.171875 37.8125 47.578125 
Q 36.03125 48 33.890625 48 
Q 26.265625 48 22.1875 43.046875 
Q 18.109375 38.09375 18.109375 28.8125 
L 18.109375 0 
L 9.078125 0 
L 9.078125 54.6875 
L 18.109375 54.6875 
L 18.109375 46.1875 
Q 20.953125 51.171875 25.484375 53.578125 
Q 30.03125 56 36.53125 56 
Q 37.453125 56 38.578125 55.875 
Q 39.703125 55.765625 41.0625 55.515625 
z
" id="DejaVuSans-114"/>
       <path d="M 30.609375 48.390625 
Q 23.390625 48.390625 19.1875 42.75 
Q 14.984375 37.109375 14.984375 27.296875 
Q 14.984375 17.484375 19.15625 11.84375 
Q 23.34375 6.203125 30.609375 6.203125 
Q 37.796875 6.203125 41.984375 11.859375 
Q 46.1875 17.53125 46.1875 27.296875 
Q 46.1875 37.015625 41.984375 42.703125 
Q 37.796875 48.390625 30.609375 48.390625 
z
M 30.609375 56 
Q 42.328125 56 49.015625 48.375 
Q 55.71875 40.765625 55.71875 27.296875 
Q 55.71875 13.875 49.015625 6.21875 
Q 42.328125 -1.421875 30.609375 -1.421875 
Q 18.84375 -1.421875 12.171875 6.21875 
Q 5.515625 13.875 5.515625 27.296875 
Q 5.515625 40.765625 12.171875 48.375 
Q 18.84375 56 30.609375 56 
z
" id="DejaVuSans-111"/>
       <path d="M 52 44.1875 
Q 55.375 50.25 60.0625 53.125 
Q 64.75 56 71.09375 56 
Q 79.640625 56 84.28125 50.015625 
Q 88.921875 44.046875 88.921875 33.015625 
L 88.921875 0 
L 79.890625 0 
L 79.890625 32.71875 
Q 79.890625 40.578125 77.09375 44.375 
Q 74.3125 48.1875 68.609375 48.1875 
Q 61.625 48.1875 57.5625 43.546875 
Q 53.515625 38.921875 53.515625 30.90625 
L 53.515625 0 
L 44.484375 0 
L 44.484375 32.71875 
Q 44.484375 40.625 41.703125 44.40625 
Q 38.921875 48.1875 33.109375 48.1875 
Q 26.21875 48.1875 22.15625 43.53125 
Q 18.109375 38.875 18.109375 30.90625 
L 18.109375 0 
L 9.078125 0 
L 9.078125 54.6875 
L 18.109375 54.6875 
L 18.109375 46.1875 
Q 21.1875 51.21875 25.484375 53.609375 
Q 29.78125 56 35.6875 56 
Q 41.65625 56 45.828125 52.96875 
Q 50 49.953125 52 44.1875 
z
" id="DejaVuSans-109"/>
       <path d="M 3.328125 72.90625 
L 13.28125 72.90625 
L 28.609375 11.28125 
L 43.890625 72.90625 
L 54.984375 72.90625 
L 70.3125 11.28125 
L 85.59375 72.90625 
L 95.609375 72.90625 
L 77.296875 0 
L 64.890625 0 
L 49.515625 63.28125 
L 33.984375 0 
L 21.578125 0 
z
" id="DejaVuSans-87"/>
       <path d="M 34.28125 27.484375 
Q 23.390625 27.484375 19.1875 25 
Q 14.984375 22.515625 14.984375 16.5 
Q 14.984375 11.71875 18.140625 8.90625 
Q 21.296875 6.109375 26.703125 6.109375 
Q 34.1875 6.109375 38.703125 11.40625 
Q 43.21875 16.703125 43.21875 25.484375 
L 43.21875 27.484375 
z
M 52.203125 31.203125 
L 52.203125 0 
L 43.21875 0 
L 43.21875 8.296875 
Q 40.140625 3.328125 35.546875 0.953125 
Q 30.953125 -1.421875 24.3125 -1.421875 
Q 15.921875 -1.421875 10.953125 3.296875 
Q 6 8.015625 6 15.921875 
Q 6 25.140625 12.171875 29.828125 
Q 18.359375 34.515625 30.609375 34.515625 
L 43.21875 34.515625 
L 43.21875 35.40625 
Q 43.21875 41.609375 39.140625 45 
Q 35.0625 48.390625 27.6875 48.390625 
Q 23 48.390625 18.546875 47.265625 
Q 14.109375 46.140625 10.015625 43.890625 
L 10.015625 52.203125 
Q 14.9375 54.109375 19.578125 55.046875 
Q 24.21875 56 28.609375 56 
Q 40.484375 56 46.34375 49.84375 
Q 52.203125 43.703125 52.203125 31.203125 
z
" id="DejaVuSans-97"/>
       <path d="M 18.3125 70.21875 
L 18.3125 54.6875 
L 36.8125 54.6875 
L 36.8125 47.703125 
L 18.3125 47.703125 
L 18.3125 18.015625 
Q 18.3125 11.328125 20.140625 9.421875 
Q 21.96875 7.515625 27.59375 7.515625 
L 36.8125 7.515625 
L 36.8125 0 
L 27.59375 0 
Q 17.1875 0 13.234375 3.875 
Q 9.28125 7.765625 9.28125 18.015625 
L 9.28125 47.703125 
L 2.6875 47.703125 
L 2.6875 54.6875 
L 9.28125 54.6875 
L 9.28125 70.21875 
z
" id="DejaVuSans-116"/>
       <path d="M 54.890625 33.015625 
L 54.890625 0 
L 45.90625 0 
L 45.90625 32.71875 
Q 45.90625 40.484375 42.875 44.328125 
Q 39.84375 48.1875 33.796875 48.1875 
Q 26.515625 48.1875 22.3125 43.546875 
Q 18.109375 38.921875 18.109375 30.90625 
L 18.109375 0 
L 9.078125 0 
L 9.078125 75.984375 
L 18.109375 75.984375 
L 18.109375 46.1875 
Q 21.34375 51.125 25.703125 53.5625 
Q 30.078125 56 35.796875 56 
Q 45.21875 56 50.046875 50.171875 
Q 54.890625 44.34375 54.890625 33.015625 
z
" id="DejaVuSans-104"/>
       <path d="M 19.671875 34.8125 
L 19.671875 8.109375 
L 35.5 8.109375 
Q 43.453125 8.109375 47.28125 11.40625 
Q 51.125 14.703125 51.125 21.484375 
Q 51.125 28.328125 47.28125 31.5625 
Q 43.453125 34.8125 35.5 34.8125 
z
M 19.671875 64.796875 
L 19.671875 42.828125 
L 34.28125 42.828125 
Q 41.5 42.828125 45.03125 45.53125 
Q 48.578125 48.25 48.578125 53.8125 
Q 48.578125 59.328125 45.03125 62.0625 
Q 41.5 64.796875 34.28125 64.796875 
z
M 9.8125 72.90625 
L 35.015625 72.90625 
Q 46.296875 72.90625 52.390625 68.21875 
Q 58.5 63.53125 58.5 54.890625 
Q 58.5 48.1875 55.375 44.234375 
Q 52.25 40.28125 46.1875 39.3125 
Q 53.46875 37.75 57.5 32.78125 
Q 61.53125 27.828125 61.53125 20.40625 
Q 61.53125 10.640625 54.890625 5.3125 
Q 48.25 0 35.984375 0 
L 9.8125 0 
z
" id="DejaVuSans-66"/>
       <path d="M 9.8125 72.90625 
L 19.671875 72.90625 
L 19.671875 0 
L 9.8125 0 
z
" id="DejaVuSans-73"/>
       <path d="M 39.40625 66.21875 
Q 28.65625 66.21875 22.328125 58.203125 
Q 16.015625 50.203125 16.015625 36.375 
Q 16.015625 22.609375 22.328125 14.59375 
Q 28.65625 6.59375 39.40625 6.59375 
Q 50.140625 6.59375 56.421875 14.59375 
Q 62.703125 22.609375 62.703125 36.375 
Q 62.703125 50.203125 56.421875 58.203125 
Q 50.140625 66.21875 39.40625 66.21875 
z
M 39.40625 74.21875 
Q 54.734375 74.21875 63.90625 63.9375 
Q 73.09375 53.65625 73.09375 36.375 
Q 73.09375 19.140625 63.90625 8.859375 
Q 54.734375 -1.421875 39.40625 -1.421875 
Q 24.03125 -1.421875 14.8125 8.828125 
Q 5.609375 19.09375 5.609375 36.375 
Q 5.609375 53.65625 14.8125 63.9375 
Q 24.03125 74.21875 39.40625 74.21875 
z
" id="DejaVuSans-79"/>
      </defs>
      <use xlink:href="#DejaVuSans-119"/>
      <use x="81.787109" xlink:href="#DejaVuSans-105"/>
      <use x="109.570312" xlink:href="#DejaVuSans-110"/>
      <use x="172.949219" xlink:href="#DejaVuSans-100"/>
      <use x="236.425781" xlink:href="#DejaVuSans-95"/>
      <use x="286.425781" xlink:href="#DejaVuSans-115"/>
      <use x="338.525391" xlink:href="#DejaVuSans-112"/>
      <use x="402.001953" xlink:href="#DejaVuSans-101"/>
      <use x="463.525391" xlink:href="#DejaVuSans-101"/>
      <use x="525.048828" xlink:href="#DejaVuSans-100"/>
      <use x="588.525391" xlink:href="#DejaVuSans-32"/>
      <use x="620.3125" xlink:href="#DejaVuSans-102"/>
      <use x="655.517578" xlink:href="#DejaVuSans-114"/>
      <use x="694.380859" xlink:href="#DejaVuSans-111"/>
      <use x="755.5625" xlink:href="#DejaVuSans-109"/>
      <use x="852.974609" xlink:href="#DejaVuSans-32"/>
      <use x="884.761719" xlink:href="#DejaVuSans-87"/>
      <use x="977.763672" xlink:href="#DejaVuSans-101"/>
      <use x="1039.287109" xlink:href="#DejaVuSans-97"/>
      <use x="1100.566406" xlink:href="#DejaVuSans-116"/>
      <use x="1139.775391" xlink:href="#DejaVuSans-104"/>
      <use x="1203.154297" xlink:href="#DejaVuSans-101"/>
      <use x="1264.677734" xlink:href="#DejaVuSans-114"/>
      <use x="1305.791016" xlink:href="#DejaVuSans-66"/>
      <use x="1374.394531" xlink:href="#DejaVuSans-105"/>
      <use x="1402.177734" xlink:href="#DejaVuSans-116"/>
      <use x="1441.386719" xlink:href="#DejaVuSans-73"/>
      <use x="1470.878906" xlink:href="#DejaVuSans-79"/>
     </g>
    </g>
   </g>
   <g id="matplotlib.axis_2">
    <g id="ytick_1">
     <g id="line2d_6">
      <defs>
       <path d="M 0 0 
L -3.5 0 
" id="m941ea6dd3e" style="stroke:#000000;stroke-width:0.8;"/>
      </defs>
      <g>
       <use style="stroke:#000000;stroke-width:0.8;" x="57.6" xlink:href="#m941ea6dd3e" y="276.029334"/>
      </g>
     </g>
     <g id="text_7">
      <!-- 5 -->
      <g transform="translate(44.2375 279.828553)scale(0.1 -0.1)">
       <defs>
        <path d="M 10.796875 72.90625 
L 49.515625 72.90625 
L 49.515625 64.59375 
L 19.828125 64.59375 
L 19.828125 46.734375 
Q 21.96875 47.46875 24.109375 47.828125 
Q 26.265625 48.1875 28.421875 48.1875 
Q 40.625 48.1875 47.75 41.5 
Q 54.890625 34.8125 54.890625 23.390625 
Q 54.890625 11.625 47.5625 5.09375 
Q 40.234375 -1.421875 26.90625 -1.421875 
Q 22.3125 -1.421875 17.546875 -0.640625 
Q 12.796875 0.140625 7.71875 1.703125 
L 7.71875 11.625 
Q 12.109375 9.234375 16.796875 8.0625 
Q 21.484375 6.890625 26.703125 6.890625 
Q 35.15625 6.890625 40.078125 11.328125 
Q 45.015625 15.765625 45.015625 23.390625 
Q 45.015625 31 40.078125 35.4375 
Q 35.15625 39.890625 26.703125 39.890625 
Q 22.75 39.890625 18.8125 39.015625 
Q 14.890625 38.140625 10.796875 36.28125 
z
" id="DejaVuSans-53"/>
       </defs>
       <use xlink:href="#DejaVuSans-53"/>
      </g>
     </g>
    </g>
    <g id="ytick_2">
     <g id="line2d_7">
      <g>
       <use style="stroke:#000000;stroke-width:0.8;" x="57.6" xlink:href="#m941ea6dd3e" y="222.424193"/>
      </g>
     </g>
     <g id="text_8">
      <!-- 6 -->
      <g transform="translate(44.2375 226.223412)scale(0.1 -0.1)">
       <use xlink:href="#DejaVuSans-54"/>
      </g>
     </g>
    </g>
    <g id="ytick_3">
     <g id="line2d_8">
      <g>
       <use style="stroke:#000000;stroke-width:0.8;" x="57.6" xlink:href="#m941ea6dd3e" y="168.819053"/>
      </g>
     </g>
     <g id="text_9">
      <!-- 7 -->
      <g transform="translate(44.2375 172.618271)scale(0.1 -0.1)">
       <defs>
        <path d="M 8.203125 72.90625 
L 55.078125 72.90625 
L 55.078125 68.703125 
L 28.609375 0 
L 18.3125 0 
L 43.21875 64.59375 
L 8.203125 64.59375 
z
" id="DejaVuSans-55"/>
       </defs>
       <use xlink:href="#DejaVuSans-55"/>
      </g>
     </g>
    </g>
    <g id="ytick_4">
     <g id="line2d_9">
      <g>
       <use style="stroke:#000000;stroke-width:0.8;" x="57.6" xlink:href="#m941ea6dd3e" y="115.213912"/>
      </g>
     </g>
     <g id="text_10">
      <!-- 8 -->
      <g transform="translate(44.2375 119.013131)scale(0.1 -0.1)">
       <use xlink:href="#DejaVuSans-56"/>
      </g>
     </g>
    </g>
    <g id="ytick_5">
     <g id="line2d_10">
      <g>
       <use style="stroke:#000000;stroke-width:0.8;" x="57.6" xlink:href="#m941ea6dd3e" y="61.608771"/>
      </g>
     </g>
     <g id="text_11">
      <!-- 9 -->
      <g transform="translate(44.2375 65.40799)scale(0.1 -0.1)">
       <defs>
        <path d="M 10.984375 1.515625 
L 10.984375 10.5 
Q 14.703125 8.734375 18.5 7.8125 
Q 22.3125 6.890625 25.984375 6.890625 
Q 35.75 6.890625 40.890625 13.453125 
Q 46.046875 20.015625 46.78125 33.40625 
Q 43.953125 29.203125 39.59375 26.953125 
Q 35.25 24.703125 29.984375 24.703125 
Q 19.046875 24.703125 12.671875 31.3125 
Q 6.296875 37.9375 6.296875 49.421875 
Q 6.296875 60.640625 12.9375 67.421875 
Q 19.578125 74.21875 30.609375 74.21875 
Q 43.265625 74.21875 49.921875 64.515625 
Q 56.59375 54.828125 56.59375 36.375 
Q 56.59375 19.140625 48.40625 8.859375 
Q 40.234375 -1.421875 26.421875 -1.421875 
Q 22.703125 -1.421875 18.890625 -0.6875 
Q 15.09375 0.046875 10.984375 1.515625 
z
M 30.609375 32.421875 
Q 37.25 32.421875 41.125 36.953125 
Q 45.015625 41.5 45.015625 49.421875 
Q 45.015625 57.28125 41.125 61.84375 
Q 37.25 66.40625 30.609375 66.40625 
Q 23.96875 66.40625 20.09375 61.84375 
Q 16.21875 57.28125 16.21875 49.421875 
Q 16.21875 41.5 20.09375 36.953125 
Q 23.96875 32.421875 30.609375 32.421875 
z
" id="DejaVuSans-57"/>
       </defs>
       <use xlink:href="#DejaVuSans-57"/>
      </g>
     </g>
    </g>
    <g id="text_12">
     <!-- ping_day[ms] -->
     <g transform="translate(37.879687 208.508469)rotate(-90)scale(0.1 -0.1)">
      <defs>
       <path d="M 45.40625 27.984375 
Q 45.40625 37.75 41.375 43.109375 
Q 37.359375 48.484375 30.078125 48.484375 
Q 22.859375 48.484375 18.828125 43.109375 
Q 14.796875 37.75 14.796875 27.984375 
Q 14.796875 18.265625 18.828125 12.890625 
Q 22.859375 7.515625 30.078125 7.515625 
Q 37.359375 7.515625 41.375 12.890625 
Q 45.40625 18.265625 45.40625 27.984375 
z
M 54.390625 6.78125 
Q 54.390625 -7.171875 48.1875 -13.984375 
Q 42 -20.796875 29.203125 -20.796875 
Q 24.46875 -20.796875 20.265625 -20.09375 
Q 16.0625 -19.390625 12.109375 -17.921875 
L 12.109375 -9.1875 
Q 16.0625 -11.328125 19.921875 -12.34375 
Q 23.78125 -13.375 27.78125 -13.375 
Q 36.625 -13.375 41.015625 -8.765625 
Q 45.40625 -4.15625 45.40625 5.171875 
L 45.40625 9.625 
Q 42.625 4.78125 38.28125 2.390625 
Q 33.9375 0 27.875 0 
Q 17.828125 0 11.671875 7.65625 
Q 5.515625 15.328125 5.515625 27.984375 
Q 5.515625 40.671875 11.671875 48.328125 
Q 17.828125 56 27.875 56 
Q 33.9375 56 38.28125 53.609375 
Q 42.625 51.21875 45.40625 46.390625 
L 45.40625 54.6875 
L 54.390625 54.6875 
z
" id="DejaVuSans-103"/>
       <path d="M 32.171875 -5.078125 
Q 28.375 -14.84375 24.75 -17.8125 
Q 21.140625 -20.796875 15.09375 -20.796875 
L 7.90625 -20.796875 
L 7.90625 -13.28125 
L 13.1875 -13.28125 
Q 16.890625 -13.28125 18.9375 -11.515625 
Q 21 -9.765625 23.484375 -3.21875 
L 25.09375 0.875 
L 2.984375 54.6875 
L 12.5 54.6875 
L 29.59375 11.921875 
L 46.6875 54.6875 
L 56.203125 54.6875 
z
" id="DejaVuSans-121"/>
       <path d="M 8.59375 75.984375 
L 29.296875 75.984375 
L 29.296875 69 
L 17.578125 69 
L 17.578125 -6.203125 
L 29.296875 -6.203125 
L 29.296875 -13.1875 
L 8.59375 -13.1875 
z
" id="DejaVuSans-91"/>
       <path d="M 30.421875 75.984375 
L 30.421875 -13.1875 
L 9.71875 -13.1875 
L 9.71875 -6.203125 
L 21.390625 -6.203125 
L 21.390625 69 
L 9.71875 69 
L 9.71875 75.984375 
z
" id="DejaVuSans-93"/>
      </defs>
      <use xlink:href="#DejaVuSans-112"/>
      <use x="63.476562" xlink:href="#DejaVuSans-105"/>
      <use x="91.259766" xlink:href="#DejaVuSans-110"/>
      <use x="154.638672" xlink:href="#DejaVuSans-103"/>
      <use x="218.115234" xlink:href="#DejaVuSans-95"/>
      <use x="268.115234" xlink:href="#DejaVuSans-100"/>
      <use x="331.591797" xlink:href="#DejaVuSans-97"/>
      <use x="392.871094" xlink:href="#DejaVuSans-121"/>
      <use x="452.050781" xlink:href="#DejaVuSans-91"/>
      <use x="491.064453" xlink:href="#DejaVuSans-109"/>
      <use x="588.476562" xlink:href="#DejaVuSans-115"/>
      <use x="640.576172" xlink:href="#DejaVuSans-93"/>
     </g>
    </g>
   </g>
   <g id="line2d_11">
    <path clip-path="url(#p68e82fc0d2)" d="M 73.832727 276.082939 
L 76.437293 281.497058 
L 77.367531 264.182598 
L 77.637417 281.818689 
L 79.516179 287.018388 
L 82.397527 272.75942 
L 85.302609 264.557834 
L 88.625436 277.155042 
L 91.75743 266.862855 
L 92.119818 289.591435 
L 92.884977 275.439677 
L 92.903302 266.702039 
L 93.63242 260.591053 
L 97.141927 271.687318 
L 97.166957 276.350965 
L 100.884784 278.28075 
L 100.970123 277.583883 
L 101.431489 271.419292 
L 102.425846 277.423068 
L 102.490993 276.61899 
L 102.778633 270.77603 
L 102.782061 286.482336 
L 103.142849 266.273198 
L 103.818326 269.382296 
L 103.873568 281.657874 
L 104.585237 275.493283 
L 105.263 276.350965 
L 106.44937 233.627668 
L 106.760249 276.726201 
L 107.591927 258.125217 
L 108.764201 265.093885 
L 110.361648 265.844357 
L 110.488514 280.961007 
L 111.858897 244.831142 
L 112.170157 275.868519 
L 112.47456 274.850021 
L 112.75077 246.868137 
L 113.164514 286.589547 
L 113.23309 251.370969 
L 113.347765 276.51178 
L 114.760056 275.761308 
L 115.038933 279.352853 
L 115.823369 284.927787 
L 116.203968 275.278862 
L 116.941925 278.763196 
L 117.16175 287.87607 
L 117.514537 269.060666 
L 118.822059 284.445341 
L 118.98969 280.532166 
L 119.241136 277.691093 
L 119.488011 281.282638 
L 119.667833 277.101437 
L 121.159368 273.885128 
L 121.710264 276.243754 
L 122.372406 287.393624 
L 122.591089 279.674483 
L 124.890681 271.740923 
L 125.561966 289.430619 
L 126.597469 265.522726 
L 126.785292 245.635219 
L 126.819961 277.262252 
L 127.086265 275.654098 
L 127.241324 278.334355 
L 127.750313 278.602381 
L 127.787648 256.302642 
L 128.458934 277.476673 
L 129.034975 278.816801 
L 129.902465 268.578219 
L 130.283445 274.313969 
L 130.731858 285.410234 
L 130.88425 284.23092 
L 131.669067 218.725439 
L 131.851175 280.800191 
L 132.040141 228.910415 
L 132.463409 280.26414 
L 132.511413 279.567273 
L 132.515604 269.382296 
L 133.242893 274.42118 
L 133.378522 263.968177 
L 133.736643 261.0735 
L 134.091716 256.624273 
L 134.296302 276.243754 
L 134.741667 292.593322 
L 135.327994 271.097661 
L 135.474671 271.955343 
L 135.591251 277.155042 
L 136.22901 267.774142 
L 137.630634 274.52839 
L 137.66416 262.94968 
L 137.876366 267.720537 
L 138.338494 228.96402 
L 139.018161 283.534054 
L 140.210246 242.418911 
L 140.331778 267.774142 
L 141.219079 276.61899 
L 141.342136 269.811138 
L 141.735688 279.888904 
L 142.445071 279.888904 
L 142.667182 281.175427 
L 143.458096 280.692981 
L 143.573152 284.12371 
L 143.612773 279.245642 
L 144.031089 285.78547 
L 144.404068 257.106719 
L 144.602558 272.169764 
L 144.956488 273.885128 
L 146.088378 278.28075 
L 146.321537 277.637488 
L 146.330681 280.424955 
L 146.415258 269.382296 
L 146.425545 278.548776 
L 146.639655 273.456287 
L 146.644989 279.299248 
L 146.670515 276.672596 
L 147.166931 242.150885 
L 147.741448 283.480448 
L 147.949463 280.800191 
L 148.640178 264.772254 
L 148.659989 279.460063 
L 148.840955 249.548394 
L 148.982679 277.851909 
L 149.058875 257.53556 
L 149.072971 288.251306 
L 149.224982 279.513668 
L 149.301559 262.520838 
L 149.312607 264.128993 
L 149.839883 284.498946 
L 149.895506 269.275086 
L 149.957224 281.121822 
L 150.29782 271.901738 
L 150.343538 283.051607 
L 150.742042 289.805855 
L 150.899387 289.216199 
L 151.251793 285.249418 
L 151.749733 274.206759 
L 151.782116 265.629937 
L 152.486547 276.833411 
L 152.691133 266.970065 
L 152.978773 283.694869 
L 153.257269 278.602381 
L 153.557861 265.093885 
L 154.340393 257.106719 
L 154.347632 276.940621 
L 154.578505 272.920236 
L 154.815094 243.598224 
L 154.876431 272.866631 
L 155.065016 264.343413 
L 155.500476 282.193925 
L 155.585815 223.01385 
L 156.452162 249.655605 
L 156.475402 272.330579 
L 156.810283 277.315857 
L 156.843428 272.330579 
L 156.991248 290.502722 
L 157.739873 252.443072 
L 158.266006 270.454399 
L 159.762112 274.903626 
L 159.812782 259.19732 
L 159.953364 276.029334 
L 160.16595 267.291696 
L 160.246718 276.243754 
L 161.250599 279.084827 
L 161.750444 283.319633 
L 161.813686 278.709591 
L 161.841498 281.121822 
L 162.014463 279.781694 
L 162.464018 258.929294 
L 162.615267 270.508004 
L 162.875095 263.646546 
L 163.024439 275.225257 
L 163.218358 255.44496 
L 163.744871 271.848133 
L 164.039368 271.740923 
L 164.438254 264.236203 
L 164.457303 277.315857 
L 164.637506 278.012724 
L 165.347652 283.051607 
L 165.522902 278.709591 
L 166.148852 275.707703 
L 166.936717 287.018388 
L 167.087585 278.870406 
L 167.752394 235.075006 
L 167.785539 277.423068 
L 168.153566 263.807362 
L 168.42368 261.502341 
L 168.704081 278.441565 
L 168.805802 246.117665 
L 169.230976 278.28075 
L 169.238214 295.488 
L 169.421846 270.829635 
L 169.730059 268.846245 
L 170.31029 263.539336 
L 170.316767 280.692981 
L 170.638695 276.887016 
L 170.74956 264.182598 
L 171.446752 281.282638 
L 171.795348 257.964402 
L 172.212902 275.922124 
L 172.332529 274.689205 
L 172.782847 191.172396 
L 172.844947 287.286413 
L 172.998862 272.491395 
L 173.228974 281.443453 
L 173.290693 272.330579 
L 173.344792 282.408346 
L 173.492231 267.184486 
L 173.492993 285.088603 
L 173.534901 225.962133 
L 173.971503 276.833411 
L 173.985599 268.68543 
L 174.288859 271.901738 
L 174.375341 282.193925 
L 174.506398 239.845864 
L 174.874424 290.288301 
L 175.042817 278.816801 
L 175.585332 272.813025 
L 175.842112 234.59256 
L 176.143848 275.868519 
L 176.374721 276.458175 
L 177.383174 53.568 
L 177.392699 257.42835 
L 177.568711 284.338131 
L 177.726818 246.814532 
L 177.77063 258.071612 
L 177.816729 272.920236 
L 177.965692 275.171652 
L 178.31886 289.108988 
L 178.747462 261.127105 
L 178.842706 277.583883 
L 180.557876 277.208647 
L 180.954476 270.56161 
L 181.446701 283.694869 
L 181.994931 268.68543 
L 182.413246 269.00706 
L 182.610974 275.171652 
L 183.388934 272.866631 
L 183.432747 275.171652 
L 184.105938 253.354359 
L 184.592068 283.90929 
L 185.527753 257.160324 
L 185.698432 262.574444 
L 185.749483 259.947792 
L 186.112938 265.844357 
L 186.256948 275.171652 
L 186.413911 267.398906 
L 186.438294 278.012724 
L 187.07453 272.169764 
L 188.028121 273.938733 
L 188.794271 243.759039 
L 188.974474 261.341525 
L 188.980951 277.155042 
L 189.28383 272.384184 
L 190.205419 278.977617 
L 190.318189 271.151266 
L 190.514012 275.386072 
L 190.667547 272.705815 
L 191.114817 273.188261 
L 191.229492 277.101437 
L 191.556372 230.893805 
L 191.588374 261.234315 
L 191.802104 238.666551 
L 191.827249 281.121822 
L 192.190703 266.862855 
L 192.307283 282.998002 
L 192.746933 250.298866 
L 192.869989 284.338131 
L 192.892848 242.794147 
L 193.102006 279.299248 
L 193.196108 258.232427 
L 193.301258 274.260364 
L 193.449459 279.728089 
L 193.5508 273.027446 
L 193.660141 275.600493 
L 194.529536 275.493283 
L 194.606494 273.188261 
L 194.666688 260.591053 
L 195.839724 266.862855 
L 196.184511 247.886635 
L 196.297662 263.753757 
L 196.64321 264.611439 
L 196.763599 273.134656 
L 196.792554 290.288301 
L 196.92323 283.105212 
L 197.670712 275.922124 
L 197.760623 220.708829 
L 198.169414 274.313969 
L 199.28035 287.608044 
L 199.804577 268.631825 
L 199.953159 264.772254 
L 200.326519 279.513668 
L 200.795505 259.358135 
L 200.811125 285.303023 
L 201.568893 270.66882 
L 201.651947 283.266028 
L 202.686687 269.221481 
L 203.605991 259.41174 
L 203.665804 273.027446 
L 203.898202 273.456287 
L 204.232321 264.021782 
L 204.534819 244.295091 
L 204.967992 276.672596 
L 205.686138 192.083684 
L 205.701759 266.165988 
L 206.241607 276.29736 
L 206.469813 267.452511 
L 207.121288 277.959119 
L 207.934298 277.476673 
L 208.150314 260.376633 
L 208.363281 264.343413 
L 208.593774 244.509511 
L 209.44412 281.979505 
L 209.795764 282.086715 
L 210.083022 278.977617 
L 210.407617 272.813025 
L 210.507053 272.920236 
L 210.718877 281.229033 
L 211.557794 273.885128 
L 211.615703 262.520838 
L 211.802383 266.541224 
L 211.844671 281.979505 
L 212.250034 262.360023 
L 212.351755 283.158818 
L 212.827599 254.855303 
L 212.853124 263.485731 
L 213.18991 258.661268 
L 213.656991 280.317745 
L 213.702708 263.539336 
L 214.057019 268.202983 
L 214.105023 275.493283 
L 215.254438 265.093885 
L 215.406829 273.081051 
L 215.457119 271.044056 
L 215.810287 279.406458 
L 216.295655 272.545 
L 216.678158 294.308687 
L 217.124285 267.559722 
L 218.536576 273.617103 
L 218.757925 251.638995 
L 218.812405 275.493283 
L 218.968606 263.110495 
L 219.475309 271.848133 
L 219.493596 293.290189 
L 219.494739 281.336243 
L 219.684848 252.764703 
L 219.743138 270.77603 
L 219.988489 285.678259 
L 220.899029 274.850021 
L 221.805761 275.707703 
L 222.472856 277.959119 
L 223.622652 262.574444 
L 224.640629 267.934958 
L 225.463544 279.192037 
L 226.050253 275.332467 
L 226.689536 279.835299 
L 227.292246 269.811138 
L 228.091922 283.962895 
L 228.187167 265.951567 
L 228.314795 280.800191 
L 228.326986 246.492901 
L 228.751016 268.631825 
L 228.76016 279.299248 
L 229.259243 272.920236 
L 229.454304 261.931182 
L 229.848618 278.28075 
L 230.247504 273.670708 
L 230.360273 217.706941 
L 230.989271 234.431745 
L 231.144329 256.195432 
L 231.387775 257.267535 
L 231.540167 270.56161 
L 231.810662 280.37135 
L 232.397752 271.097661 
L 233.18295 264.93307 
L 233.401632 267.345301 
L 233.890429 285.78547 
L 233.977292 229.875308 
L 234.312554 276.565385 
L 234.564382 274.796416 
L 234.66496 267.559722 
L 234.79335 240.32831 
L 234.988412 274.045944 
L 235.469208 275.010836 
L 235.697796 284.284526 
L 236.420133 271.151266 
L 236.435753 264.343413 
L 236.820161 270.239979 
L 237.196569 229.285651 
L 237.279241 277.744698 
L 237.404965 265.254701 
L 238.401226 283.051607 
L 238.486184 280.103325 
L 238.495709 272.813025 
L 238.960123 264.718649 
L 239.154803 253.67599 
L 240.092394 272.276974 
L 240.12592 278.548776 
L 240.820446 276.672596 
L 240.983124 257.374745 
L 241.052462 283.480448 
L 241.06732 276.350965 
L 244.368888 282.461951 
L 244.484325 272.008948 
L 245.317527 273.992339 
L 245.566688 278.066329 
L 245.626121 275.010836 
L 245.657361 280.317745 
L 246.002147 272.75942 
L 246.552663 283.266028 
L 247.0807 278.870406 
L 247.57064 250.620497 
L 247.744366 268.79264 
L 247.934856 272.545 
L 248.699101 267.559722 
L 248.707482 270.186374 
L 249.194755 275.010836 
L 249.72165 281.443453 
L 249.77232 277.530278 
L 250.349885 267.827747 
L 250.520183 260.055002 
L 250.778487 283.105212 
L 250.781916 265.308306 
L 250.800965 276.833411 
L 252.187349 270.615215 
L 252.504324 248.422686 
L 252.520325 277.208647 
L 252.852539 265.522726 
L 252.922639 275.386072 
L 253.24571 279.352853 
L 253.361909 251.746205 
L 253.460201 263.05689 
L 254.186729 271.955343 
L 255.322048 270.132768 
L 255.481678 271.365687 
L 255.736554 275.814913 
L 256.095817 267.720537 
L 256.59109 285.034998 
L 256.695098 272.705815 
L 256.75034 280.692981 
L 256.802534 240.649941 
L 257.04979 279.406458 
L 257.114937 275.654098 
L 257.435341 242.043675 
L 257.45058 272.223369 
L 257.674215 266.970065 
L 258.108151 279.781694 
L 258.554659 279.835299 
L 258.717718 259.19732 
L 259.212229 277.637488 
L 259.437007 257.910796 
L 259.819129 241.668439 
L 259.829797 270.400794 
L 260.10715 271.097661 
L 260.122008 275.386072 
L 260.494606 275.171652 
L 260.835583 288.036885 
L 261.055027 244.938352 
L 262.405218 266.862855 
L 262.651712 259.894187 
L 262.813628 271.204871 
L 263.101268 253.622385 
L 263.614828 267.345301 
L 264.578325 272.169764 
L 265.147889 279.888904 
L 265.255706 273.885128 
L 265.504867 279.996114 
L 265.584873 272.75942 
L 265.878227 270.66882 
L 265.971186 260.483843 
L 266.127006 258.607663 
L 266.487413 283.962895 
L 266.615803 283.266028 
L 266.939636 266.219593 
L 267.008212 278.441565 
L 267.343855 273.456287 
L 267.385763 256.409852 
L 267.947707 257.160324 
L 268.352308 275.439677 
L 268.441076 268.095773 
L 268.510033 272.062554 
L 269.375999 293.343794 
L 269.451433 271.044056 
L 269.906323 261.127105 
L 269.926515 254.801698 
L 269.929182 279.084827 
L 270.071668 251.6926 
L 270.076621 274.313969 
L 271.014592 270.56161 
L 271.283944 268.631825 
L 271.412335 238.184105 
L 271.872939 275.707703 
L 272.549177 242.847752 
L 273.123313 265.04028 
L 273.71726 272.330579 
L 274.078048 278.49517 
L 274.194247 256.034616 
L 274.418263 266.862855 
L 274.750858 267.774142 
L 275.073928 257.21393 
L 275.260227 281.175427 
L 276.376497 268.953455 
L 276.666041 281.711479 
L 276.678233 265.415516 
L 277.298086 266.487619 
L 278.319492 260.001397 
L 279.483385 267.559722 
L 280.270107 266.005173 
L 280.28687 239.470628 
L 280.526506 263.860967 
L 281.271321 269.757532 
L 281.683541 260.912684 
L 282.074807 265.897962 
L 282.670278 269.060666 
L 283.032589 252.443072 
L 283.391091 278.441565 
L 284.70928 275.761308 
L 284.908532 275.761308 
L 287.152882 268.363799 
L 287.372707 285.731864 
L 287.789499 276.190149 
L 289.267318 256.463458 
L 289.572864 276.887016 
L 289.692872 244.402301 
L 291.072018 248.101056 
L 291.33718 268.471009 
L 292.556314 245.152773 
L 292.790235 274.099549 
L 294.024609 281.014612 
L 294.442924 268.202983 
L 295.240695 281.336243 
L 295.552336 264.182598 
L 295.66282 269.811138 
L 295.71311 269.703927 
L 296.789758 282.783582 
L 296.925386 272.330579 
L 297.130353 274.099549 
L 299.13621 265.415516 
L 300.077229 271.044056 
L 300.672319 273.295472 
L 300.78547 251.156549 
L 300.95272 254.212042 
L 301.316175 286.160706 
L 301.592766 283.962895 
L 302.619124 242.686936 
L 302.921241 240.917967 
L 302.957815 276.833411 
L 304.329722 229.124836 
L 304.559834 261.019895 
L 305.243692 265.737147 
L 305.855164 276.136544 
L 307.185163 235.664663 
L 307.244215 266.91646 
L 308.280479 273.885128 
L 308.726987 262.091997 
L 308.988339 282.998002 
L 310.834185 286.321521 
L 311.08144 274.099549 
L 311.300122 277.744698 
L 311.947407 253.890411 
L 312.38058 282.783582 
L 313.257976 282.354741 
L 314.571212 235.986294 
L 315.509946 237.112002 
L 316.397247 249.548394 
L 316.518398 279.352853 
L 317.399985 268.471009 
L 318.284238 271.204871 
L 318.473585 276.136544 
L 318.518921 256.677878 
L 319.152109 274.689205 
L 320.179992 273.509892 
L 320.515254 263.003285 
L 320.960238 273.885128 
L 321.293214 278.924012 
L 321.644096 275.010836 
L 322.719601 269.703927 
L 323.372981 255.65938 
L 323.605378 263.592941 
L 323.924258 262.413628 
L 324.842799 265.683542 
L 325.836775 258.929294 
L 326.263091 272.169764 
L 328.532586 278.763196 
L 328.598495 266.594829 
L 329.576088 274.206759 
L 330.356715 266.273198 
L 330.462247 247.72582 
L 331.775102 270.079163 
L 332.854798 272.276974 
L 333.241873 261.984787 
L 334.622923 257.374745 
L 335.705286 263.1641 
L 335.882822 249.870025 
L 335.978829 264.772254 
L 338.023165 268.149378 
L 342.892464 253.354359 
L 343.532128 266.219593 
L 343.827387 250.781313 
L 344.052927 247.618609 
L 346.86265 193.155786 
L 348.364853 244.938352 
L 351.447357 252.175046 
L 354.28413 257.21393 
L 357.20891 272.973841 
L 360.497906 248.422686 
L 361.25034 257.53556 
L 372.513998 268.256589 
L 378.163161 182.809994 
L 379.739654 267.238091 
L 382.544044 268.79264 
L 385.262714 246.921743 
L 386.80949 260.483843 
L 388.742199 265.790752 
L 393.403102 272.813025 
L 398.487273 269.757532 
L 398.487273 269.757532 
" style="fill:none;stroke:#0000ff;stroke-linecap:square;stroke-width:1.5;"/>
   </g>
   <g id="patch_3">
    <path d="M 57.6 307.584 
L 57.6 41.472 
" style="fill:none;stroke:#000000;stroke-linecap:square;stroke-linejoin:miter;stroke-width:0.8;"/>
   </g>
   <g id="patch_4">
    <path d="M 414.72 307.584 
L 414.72 41.472 
" style="fill:none;stroke:#000000;stroke-linecap:square;stroke-linejoin:miter;stroke-width:0.8;"/>
   </g>
   <g id="patch_5">
    <path d="M 57.6 307.584 
L 414.72 307.584 
" style="fill:none;stroke:#000000;stroke-linecap:square;stroke-linejoin:miter;stroke-width:0.8;"/>
   </g>
   <g id="patch_6">
    <path d="M 57.6 41.472 
L 414.72 41.472 
" style="fill:none;stroke:#000000;stroke-linecap:square;stroke-linejoin:miter;stroke-width:0.8;"/>
   </g>
   <g id="text_13">
    <!-- wind_speed-&gt;ping_day -->
    <g transform="translate(166.53 35.472)scale(0.12 -0.12)">
     <defs>
      <path d="M 4.890625 31.390625 
L 31.203125 31.390625 
L 31.203125 23.390625 
L 4.890625 23.390625 
z
" id="DejaVuSans-45"/>
      <path d="M 10.59375 49.21875 
L 10.59375 58.109375 
L 73.1875 35.40625 
L 73.1875 27.296875 
L 10.59375 4.59375 
L 10.59375 13.484375 
L 60.890625 31.296875 
z
" id="DejaVuSans-62"/>
     </defs>
     <use xlink:href="#DejaVuSans-119"/>
     <use x="81.787109" xlink:href="#DejaVuSans-105"/>
     <use x="109.570312" xlink:href="#DejaVuSans-110"/>
     <use x="172.949219" xlink:href="#DejaVuSans-100"/>
     <use x="236.425781" xlink:href="#DejaVuSans-95"/>
     <use x="286.425781" xlink:href="#DejaVuSans-115"/>
     <use x="338.525391" xlink:href="#DejaVuSans-112"/>
     <use x="402.001953" xlink:href="#DejaVuSans-101"/>
     <use x="463.525391" xlink:href="#DejaVuSans-101"/>
     <use x="525.048828" xlink:href="#DejaVuSans-100"/>
     <use x="588.525391" xlink:href="#DejaVuSans-45"/>
     <use x="624.609375" xlink:href="#DejaVuSans-62"/>
     <use x="708.398438" xlink:href="#DejaVuSans-112"/>
     <use x="771.875" xlink:href="#DejaVuSans-105"/>
     <use x="799.658203" xlink:href="#DejaVuSans-110"/>
     <use x="863.037109" xlink:href="#DejaVuSans-103"/>
     <use x="926.513672" xlink:href="#DejaVuSans-95"/>
     <use x="976.513672" xlink:href="#DejaVuSans-100"/>
     <use x="1039.990234" xlink:href="#DejaVuSans-97"/>
     <use x="1101.269531" xlink:href="#DejaVuSans-121"/>
    </g>
   </g>
  </g>
  <g id="legend_1">
   <g id="patch_7">
    <path d="M 353.839063 22.95625 
L 453.8 22.95625 
Q 455.8 22.95625 455.8 20.95625 
L 455.8 7 
Q 455.8 5 453.8 5 
L 353.839063 5 
Q 351.839063 5 351.839063 7 
L 351.839063 20.95625 
Q 351.839063 22.95625 353.839063 22.95625 
z
" style="fill:#ffffff;opacity:0.8;stroke:#cccccc;stroke-linejoin:miter;"/>
   </g>
   <g id="line2d_12">
    <path d="M 355.839063 13.098437 
L 375.839063 13.098437 
" style="fill:none;stroke:#0000ff;stroke-linecap:square;stroke-width:1.5;"/>
   </g>
   <g id="line2d_13"/>
   <g id="text_14">
    <!-- ping_day[ms] -->
    <g transform="translate(383.839063 16.598437)scale(0.1 -0.1)">
     <use xlink:href="#DejaVuSans-112"/>
     <use x="63.476562" xlink:href="#DejaVuSans-105"/>
     <use x="91.259766" xlink:href="#DejaVuSans-110"/>
     <use x="154.638672" xlink:href="#DejaVuSans-103"/>
     <use x="218.115234" xlink:href="#DejaVuSans-95"/>
     <use x="268.115234" xlink:href="#DejaVuSans-100"/>
     <use x="331.591797" xlink:href="#DejaVuSans-97"/>
     <use x="392.871094" xlink:href="#DejaVuSans-121"/>
     <use x="452.050781" xlink:href="#DejaVuSans-91"/>
     <use x="491.064453" xlink:href="#DejaVuSans-109"/>
     <use x="588.476562" xlink:href="#DejaVuSans-115"/>
     <use x="640.576172" xlink:href="#DejaVuSans-93"/>
    </g>
   </g>
  </g>
 </g>
 <defs>
  <clipPath id="p68e82fc0d2">
   <rect height="266.112" width="357.12" x="57.6" y="41.472"/>
  </clipPath>
 </defs>
</svg>
