<?xml version="1.0" encoding="utf-8" standalone="no"?>
<!DOCTYPE svg PUBLIC "-//W3C//DTD SVG 1.1//EN"
  "http://www.w3.org/Graphics/SVG/1.1/DTD/svg11.dtd">
<!-- Created with matplotlib (https://matplotlib.org/) -->
<svg height="345.6pt" version="1.1" viewBox="0 0 460.8 345.6" width="460.8pt" xmlns="http://www.w3.org/2000/svg" xmlns:xlink="http://www.w3.org/1999/xlink">
 <metadata>
  <rdf:RDF xmlns:cc="http://creativecommons.org/ns#" xmlns:dc="http://purl.org/dc/elements/1.1/" xmlns:rdf="http://www.w3.org/1999/02/22-rdf-syntax-ns#">
   <cc:Work>
    <dc:type rdf:resource="http://purl.org/dc/dcmitype/StillImage"/>
    <dc:date>2022-07-20T23:27:26.990923</dc:date>
    <dc:format>image/svg+xml</dc:format>
    <dc:creator>
     <cc:Agent>
      <dc:title>Matplotlib v3.3.2, https://matplotlib.org/</dc:title>
     </cc:Agent>
    </dc:creator>
   </cc:Work>
  </rdf:RDF>
 </metadata>
 <defs>
  <style type="text/css">*{stroke-linecap:butt;stroke-linejoin:round;}</style>
 </defs>
 <g id="figure_1">
  <g id="patch_1">
   <path d="M 0 345.6 
L 460.8 345.6 
L 460.8 0 
L 0 0 
z
" style="fill:#ffffff;"/>
  </g>
  <g id="axes_1">
   <g id="patch_2">
    <path d="M 57.6 307.584 
L 414.72 307.584 
L 414.72 41.472 
L 57.6 41.472 
z
" style="fill:#ffffff;"/>
   </g>
   <g id="matplotlib.axis_1">
    <g id="xtick_1">
     <g id="line2d_1">
      <defs>
       <path d="M 0 0 
L 0 3.5 
" id="m9a35bf1dcb" style="stroke:#000000;stroke-width:0.8;"/>
      </defs>
      <g>
       <use style="stroke:#000000;stroke-width:0.8;" x="99.012205" xlink:href="#m9a35bf1dcb" y="307.584"/>
      </g>
     </g>
     <g id="text_1">
      <!-- 7.5 -->
      <g transform="translate(91.060643 322.182437)scale(0.1 -0.1)">
       <defs>
        <path d="M 8.203125 72.90625 
L 55.078125 72.90625 
L 55.078125 68.703125 
L 28.609375 0 
L 18.3125 0 
L 43.21875 64.59375 
L 8.203125 64.59375 
z
" id="DejaVuSans-55"/>
        <path d="M 10.6875 12.40625 
L 21 12.40625 
L 21 0 
L 10.6875 0 
z
" id="DejaVuSans-46"/>
        <path d="M 10.796875 72.90625 
L 49.515625 72.90625 
L 49.515625 64.59375 
L 19.828125 64.59375 
L 19.828125 46.734375 
Q 21.96875 47.46875 24.109375 47.828125 
Q 26.265625 48.1875 28.421875 48.1875 
Q 40.625 48.1875 47.75 41.5 
Q 54.890625 34.8125 54.890625 23.390625 
Q 54.890625 11.625 47.5625 5.09375 
Q 40.234375 -1.421875 26.90625 -1.421875 
Q 22.3125 -1.421875 17.546875 -0.640625 
Q 12.796875 0.140625 7.71875 1.703125 
L 7.71875 11.625 
Q 12.109375 9.234375 16.796875 8.0625 
Q 21.484375 6.890625 26.703125 6.890625 
Q 35.15625 6.890625 40.078125 11.328125 
Q 45.015625 15.765625 45.015625 23.390625 
Q 45.015625 31 40.078125 35.4375 
Q 35.15625 39.890625 26.703125 39.890625 
Q 22.75 39.890625 18.8125 39.015625 
Q 14.890625 38.140625 10.796875 36.28125 
z
" id="DejaVuSans-53"/>
       </defs>
       <use xlink:href="#DejaVuSans-55"/>
       <use x="63.623047" xlink:href="#DejaVuSans-46"/>
       <use x="95.410156" xlink:href="#DejaVuSans-53"/>
      </g>
     </g>
    </g>
    <g id="xtick_2">
     <g id="line2d_2">
      <g>
       <use style="stroke:#000000;stroke-width:0.8;" x="143.65667" xlink:href="#m9a35bf1dcb" y="307.584"/>
      </g>
     </g>
     <g id="text_2">
      <!-- 10.0 -->
      <g transform="translate(132.523857 322.182437)scale(0.1 -0.1)">
       <defs>
        <path d="M 12.40625 8.296875 
L 28.515625 8.296875 
L 28.515625 63.921875 
L 10.984375 60.40625 
L 10.984375 69.390625 
L 28.421875 72.90625 
L 38.28125 72.90625 
L 38.28125 8.296875 
L 54.390625 8.296875 
L 54.390625 0 
L 12.40625 0 
z
" id="DejaVuSans-49"/>
        <path d="M 31.78125 66.40625 
Q 24.171875 66.40625 20.328125 58.90625 
Q 16.5 51.421875 16.5 36.375 
Q 16.5 21.390625 20.328125 13.890625 
Q 24.171875 6.390625 31.78125 6.390625 
Q 39.453125 6.390625 43.28125 13.890625 
Q 47.125 21.390625 47.125 36.375 
Q 47.125 51.421875 43.28125 58.90625 
Q 39.453125 66.40625 31.78125 66.40625 
z
M 31.78125 74.21875 
Q 44.046875 74.21875 50.515625 64.515625 
Q 56.984375 54.828125 56.984375 36.375 
Q 56.984375 17.96875 50.515625 8.265625 
Q 44.046875 -1.421875 31.78125 -1.421875 
Q 19.53125 -1.421875 13.0625 8.265625 
Q 6.59375 17.96875 6.59375 36.375 
Q 6.59375 54.828125 13.0625 64.515625 
Q 19.53125 74.21875 31.78125 74.21875 
z
" id="DejaVuSans-48"/>
       </defs>
       <use xlink:href="#DejaVuSans-49"/>
       <use x="63.623047" xlink:href="#DejaVuSans-48"/>
       <use x="127.246094" xlink:href="#DejaVuSans-46"/>
       <use x="159.033203" xlink:href="#DejaVuSans-48"/>
      </g>
     </g>
    </g>
    <g id="xtick_3">
     <g id="line2d_3">
      <g>
       <use style="stroke:#000000;stroke-width:0.8;" x="188.301134" xlink:href="#m9a35bf1dcb" y="307.584"/>
      </g>
     </g>
     <g id="text_3">
      <!-- 12.5 -->
      <g transform="translate(177.168322 322.182437)scale(0.1 -0.1)">
       <defs>
        <path d="M 19.1875 8.296875 
L 53.609375 8.296875 
L 53.609375 0 
L 7.328125 0 
L 7.328125 8.296875 
Q 12.9375 14.109375 22.625 23.890625 
Q 32.328125 33.6875 34.8125 36.53125 
Q 39.546875 41.84375 41.421875 45.53125 
Q 43.3125 49.21875 43.3125 52.78125 
Q 43.3125 58.59375 39.234375 62.25 
Q 35.15625 65.921875 28.609375 65.921875 
Q 23.96875 65.921875 18.8125 64.3125 
Q 13.671875 62.703125 7.8125 59.421875 
L 7.8125 69.390625 
Q 13.765625 71.78125 18.9375 73 
Q 24.125 74.21875 28.421875 74.21875 
Q 39.75 74.21875 46.484375 68.546875 
Q 53.21875 62.890625 53.21875 53.421875 
Q 53.21875 48.921875 51.53125 44.890625 
Q 49.859375 40.875 45.40625 35.40625 
Q 44.1875 33.984375 37.640625 27.21875 
Q 31.109375 20.453125 19.1875 8.296875 
z
" id="DejaVuSans-50"/>
       </defs>
       <use xlink:href="#DejaVuSans-49"/>
       <use x="63.623047" xlink:href="#DejaVuSans-50"/>
       <use x="127.246094" xlink:href="#DejaVuSans-46"/>
       <use x="159.033203" xlink:href="#DejaVuSans-53"/>
      </g>
     </g>
    </g>
    <g id="xtick_4">
     <g id="line2d_4">
      <g>
       <use style="stroke:#000000;stroke-width:0.8;" x="232.945599" xlink:href="#m9a35bf1dcb" y="307.584"/>
      </g>
     </g>
     <g id="text_4">
      <!-- 15.0 -->
      <g transform="translate(221.812786 322.182437)scale(0.1 -0.1)">
       <use xlink:href="#DejaVuSans-49"/>
       <use x="63.623047" xlink:href="#DejaVuSans-53"/>
       <use x="127.246094" xlink:href="#DejaVuSans-46"/>
       <use x="159.033203" xlink:href="#DejaVuSans-48"/>
      </g>
     </g>
    </g>
    <g id="xtick_5">
     <g id="line2d_5">
      <g>
       <use style="stroke:#000000;stroke-width:0.8;" x="277.590063" xlink:href="#m9a35bf1dcb" y="307.584"/>
      </g>
     </g>
     <g id="text_5">
      <!-- 17.5 -->
      <g transform="translate(266.457251 322.182437)scale(0.1 -0.1)">
       <use xlink:href="#DejaVuSans-49"/>
       <use x="63.623047" xlink:href="#DejaVuSans-55"/>
       <use x="127.246094" xlink:href="#DejaVuSans-46"/>
       <use x="159.033203" xlink:href="#DejaVuSans-53"/>
      </g>
     </g>
    </g>
    <g id="xtick_6">
     <g id="line2d_6">
      <g>
       <use style="stroke:#000000;stroke-width:0.8;" x="322.234527" xlink:href="#m9a35bf1dcb" y="307.584"/>
      </g>
     </g>
     <g id="text_6">
      <!-- 20.0 -->
      <g transform="translate(311.101715 322.182437)scale(0.1 -0.1)">
       <use xlink:href="#DejaVuSans-50"/>
       <use x="63.623047" xlink:href="#DejaVuSans-48"/>
       <use x="127.246094" xlink:href="#DejaVuSans-46"/>
       <use x="159.033203" xlink:href="#DejaVuSans-48"/>
      </g>
     </g>
    </g>
    <g id="xtick_7">
     <g id="line2d_7">
      <g>
       <use style="stroke:#000000;stroke-width:0.8;" x="366.878992" xlink:href="#m9a35bf1dcb" y="307.584"/>
      </g>
     </g>
     <g id="text_7">
      <!-- 22.5 -->
      <g transform="translate(355.746179 322.182437)scale(0.1 -0.1)">
       <use xlink:href="#DejaVuSans-50"/>
       <use x="63.623047" xlink:href="#DejaVuSans-50"/>
       <use x="127.246094" xlink:href="#DejaVuSans-46"/>
       <use x="159.033203" xlink:href="#DejaVuSans-53"/>
      </g>
     </g>
    </g>
    <g id="xtick_8">
     <g id="line2d_8">
      <g>
       <use style="stroke:#000000;stroke-width:0.8;" x="411.523456" xlink:href="#m9a35bf1dcb" y="307.584"/>
      </g>
     </g>
     <g id="text_8">
      <!-- 25.0 -->
      <g transform="translate(400.390644 322.182437)scale(0.1 -0.1)">
       <use xlink:href="#DejaVuSans-50"/>
       <use x="63.623047" xlink:href="#DejaVuSans-53"/>
       <use x="127.246094" xlink:href="#DejaVuSans-46"/>
       <use x="159.033203" xlink:href="#DejaVuSans-48"/>
      </g>
     </g>
    </g>
    <g id="text_9">
     <!-- temperature from Aeris -->
     <g transform="translate(177.464687 335.860562)scale(0.1 -0.1)">
      <defs>
       <path d="M 18.3125 70.21875 
L 18.3125 54.6875 
L 36.8125 54.6875 
L 36.8125 47.703125 
L 18.3125 47.703125 
L 18.3125 18.015625 
Q 18.3125 11.328125 20.140625 9.421875 
Q 21.96875 7.515625 27.59375 7.515625 
L 36.8125 7.515625 
L 36.8125 0 
L 27.59375 0 
Q 17.1875 0 13.234375 3.875 
Q 9.28125 7.765625 9.28125 18.015625 
L 9.28125 47.703125 
L 2.6875 47.703125 
L 2.6875 54.6875 
L 9.28125 54.6875 
L 9.28125 70.21875 
z
" id="DejaVuSans-116"/>
       <path d="M 56.203125 29.59375 
L 56.203125 25.203125 
L 14.890625 25.203125 
Q 15.484375 15.921875 20.484375 11.0625 
Q 25.484375 6.203125 34.421875 6.203125 
Q 39.59375 6.203125 44.453125 7.46875 
Q 49.3125 8.734375 54.109375 11.28125 
L 54.109375 2.78125 
Q 49.265625 0.734375 44.1875 -0.34375 
Q 39.109375 -1.421875 33.890625 -1.421875 
Q 20.796875 -1.421875 13.15625 6.1875 
Q 5.515625 13.8125 5.515625 26.8125 
Q 5.515625 40.234375 12.765625 48.109375 
Q 20.015625 56 32.328125 56 
Q 43.359375 56 49.78125 48.890625 
Q 56.203125 41.796875 56.203125 29.59375 
z
M 47.21875 32.234375 
Q 47.125 39.59375 43.09375 43.984375 
Q 39.0625 48.390625 32.421875 48.390625 
Q 24.90625 48.390625 20.390625 44.140625 
Q 15.875 39.890625 15.1875 32.171875 
z
" id="DejaVuSans-101"/>
       <path d="M 52 44.1875 
Q 55.375 50.25 60.0625 53.125 
Q 64.75 56 71.09375 56 
Q 79.640625 56 84.28125 50.015625 
Q 88.921875 44.046875 88.921875 33.015625 
L 88.921875 0 
L 79.890625 0 
L 79.890625 32.71875 
Q 79.890625 40.578125 77.09375 44.375 
Q 74.3125 48.1875 68.609375 48.1875 
Q 61.625 48.1875 57.5625 43.546875 
Q 53.515625 38.921875 53.515625 30.90625 
L 53.515625 0 
L 44.484375 0 
L 44.484375 32.71875 
Q 44.484375 40.625 41.703125 44.40625 
Q 38.921875 48.1875 33.109375 48.1875 
Q 26.21875 48.1875 22.15625 43.53125 
Q 18.109375 38.875 18.109375 30.90625 
L 18.109375 0 
L 9.078125 0 
L 9.078125 54.6875 
L 18.109375 54.6875 
L 18.109375 46.1875 
Q 21.1875 51.21875 25.484375 53.609375 
Q 29.78125 56 35.6875 56 
Q 41.65625 56 45.828125 52.96875 
Q 50 49.953125 52 44.1875 
z
" id="DejaVuSans-109"/>
       <path d="M 18.109375 8.203125 
L 18.109375 -20.796875 
L 9.078125 -20.796875 
L 9.078125 54.6875 
L 18.109375 54.6875 
L 18.109375 46.390625 
Q 20.953125 51.265625 25.265625 53.625 
Q 29.59375 56 35.59375 56 
Q 45.5625 56 51.78125 48.09375 
Q 58.015625 40.1875 58.015625 27.296875 
Q 58.015625 14.40625 51.78125 6.484375 
Q 45.5625 -1.421875 35.59375 -1.421875 
Q 29.59375 -1.421875 25.265625 0.953125 
Q 20.953125 3.328125 18.109375 8.203125 
z
M 48.6875 27.296875 
Q 48.6875 37.203125 44.609375 42.84375 
Q 40.53125 48.484375 33.40625 48.484375 
Q 26.265625 48.484375 22.1875 42.84375 
Q 18.109375 37.203125 18.109375 27.296875 
Q 18.109375 17.390625 22.1875 11.75 
Q 26.265625 6.109375 33.40625 6.109375 
Q 40.53125 6.109375 44.609375 11.75 
Q 48.6875 17.390625 48.6875 27.296875 
z
" id="DejaVuSans-112"/>
       <path d="M 41.109375 46.296875 
Q 39.59375 47.171875 37.8125 47.578125 
Q 36.03125 48 33.890625 48 
Q 26.265625 48 22.1875 43.046875 
Q 18.109375 38.09375 18.109375 28.8125 
L 18.109375 0 
L 9.078125 0 
L 9.078125 54.6875 
L 18.109375 54.6875 
L 18.109375 46.1875 
Q 20.953125 51.171875 25.484375 53.578125 
Q 30.03125 56 36.53125 56 
Q 37.453125 56 38.578125 55.875 
Q 39.703125 55.765625 41.0625 55.515625 
z
" id="DejaVuSans-114"/>
       <path d="M 34.28125 27.484375 
Q 23.390625 27.484375 19.1875 25 
Q 14.984375 22.515625 14.984375 16.5 
Q 14.984375 11.71875 18.140625 8.90625 
Q 21.296875 6.109375 26.703125 6.109375 
Q 34.1875 6.109375 38.703125 11.40625 
Q 43.21875 16.703125 43.21875 25.484375 
L 43.21875 27.484375 
z
M 52.203125 31.203125 
L 52.203125 0 
L 43.21875 0 
L 43.21875 8.296875 
Q 40.140625 3.328125 35.546875 0.953125 
Q 30.953125 -1.421875 24.3125 -1.421875 
Q 15.921875 -1.421875 10.953125 3.296875 
Q 6 8.015625 6 15.921875 
Q 6 25.140625 12.171875 29.828125 
Q 18.359375 34.515625 30.609375 34.515625 
L 43.21875 34.515625 
L 43.21875 35.40625 
Q 43.21875 41.609375 39.140625 45 
Q 35.0625 48.390625 27.6875 48.390625 
Q 23 48.390625 18.546875 47.265625 
Q 14.109375 46.140625 10.015625 43.890625 
L 10.015625 52.203125 
Q 14.9375 54.109375 19.578125 55.046875 
Q 24.21875 56 28.609375 56 
Q 40.484375 56 46.34375 49.84375 
Q 52.203125 43.703125 52.203125 31.203125 
z
" id="DejaVuSans-97"/>
       <path d="M 8.5 21.578125 
L 8.5 54.6875 
L 17.484375 54.6875 
L 17.484375 21.921875 
Q 17.484375 14.15625 20.5 10.265625 
Q 23.53125 6.390625 29.59375 6.390625 
Q 36.859375 6.390625 41.078125 11.03125 
Q 45.3125 15.671875 45.3125 23.6875 
L 45.3125 54.6875 
L 54.296875 54.6875 
L 54.296875 0 
L 45.3125 0 
L 45.3125 8.40625 
Q 42.046875 3.421875 37.71875 1 
Q 33.40625 -1.421875 27.6875 -1.421875 
Q 18.265625 -1.421875 13.375 4.4375 
Q 8.5 10.296875 8.5 21.578125 
z
M 31.109375 56 
z
" id="DejaVuSans-117"/>
       <path id="DejaVuSans-32"/>
       <path d="M 37.109375 75.984375 
L 37.109375 68.5 
L 28.515625 68.5 
Q 23.6875 68.5 21.796875 66.546875 
Q 19.921875 64.59375 19.921875 59.515625 
L 19.921875 54.6875 
L 34.71875 54.6875 
L 34.71875 47.703125 
L 19.921875 47.703125 
L 19.921875 0 
L 10.890625 0 
L 10.890625 47.703125 
L 2.296875 47.703125 
L 2.296875 54.6875 
L 10.890625 54.6875 
L 10.890625 58.5 
Q 10.890625 67.625 15.140625 71.796875 
Q 19.390625 75.984375 28.609375 75.984375 
z
" id="DejaVuSans-102"/>
       <path d="M 30.609375 48.390625 
Q 23.390625 48.390625 19.1875 42.75 
Q 14.984375 37.109375 14.984375 27.296875 
Q 14.984375 17.484375 19.15625 11.84375 
Q 23.34375 6.203125 30.609375 6.203125 
Q 37.796875 6.203125 41.984375 11.859375 
Q 46.1875 17.53125 46.1875 27.296875 
Q 46.1875 37.015625 41.984375 42.703125 
Q 37.796875 48.390625 30.609375 48.390625 
z
M 30.609375 56 
Q 42.328125 56 49.015625 48.375 
Q 55.71875 40.765625 55.71875 27.296875 
Q 55.71875 13.875 49.015625 6.21875 
Q 42.328125 -1.421875 30.609375 -1.421875 
Q 18.84375 -1.421875 12.171875 6.21875 
Q 5.515625 13.875 5.515625 27.296875 
Q 5.515625 40.765625 12.171875 48.375 
Q 18.84375 56 30.609375 56 
z
" id="DejaVuSans-111"/>
       <path d="M 34.1875 63.1875 
L 20.796875 26.90625 
L 47.609375 26.90625 
z
M 28.609375 72.90625 
L 39.796875 72.90625 
L 67.578125 0 
L 57.328125 0 
L 50.6875 18.703125 
L 17.828125 18.703125 
L 11.1875 0 
L 0.78125 0 
z
" id="DejaVuSans-65"/>
       <path d="M 9.421875 54.6875 
L 18.40625 54.6875 
L 18.40625 0 
L 9.421875 0 
z
M 9.421875 75.984375 
L 18.40625 75.984375 
L 18.40625 64.59375 
L 9.421875 64.59375 
z
" id="DejaVuSans-105"/>
       <path d="M 44.28125 53.078125 
L 44.28125 44.578125 
Q 40.484375 46.53125 36.375 47.5 
Q 32.28125 48.484375 27.875 48.484375 
Q 21.1875 48.484375 17.84375 46.4375 
Q 14.5 44.390625 14.5 40.28125 
Q 14.5 37.15625 16.890625 35.375 
Q 19.28125 33.59375 26.515625 31.984375 
L 29.59375 31.296875 
Q 39.15625 29.25 43.1875 25.515625 
Q 47.21875 21.78125 47.21875 15.09375 
Q 47.21875 7.46875 41.1875 3.015625 
Q 35.15625 -1.421875 24.609375 -1.421875 
Q 20.21875 -1.421875 15.453125 -0.5625 
Q 10.6875 0.296875 5.421875 2 
L 5.421875 11.28125 
Q 10.40625 8.6875 15.234375 7.390625 
Q 20.0625 6.109375 24.8125 6.109375 
Q 31.15625 6.109375 34.5625 8.28125 
Q 37.984375 10.453125 37.984375 14.40625 
Q 37.984375 18.0625 35.515625 20.015625 
Q 33.0625 21.96875 24.703125 23.78125 
L 21.578125 24.515625 
Q 13.234375 26.265625 9.515625 29.90625 
Q 5.8125 33.546875 5.8125 39.890625 
Q 5.8125 47.609375 11.28125 51.796875 
Q 16.75 56 26.8125 56 
Q 31.78125 56 36.171875 55.265625 
Q 40.578125 54.546875 44.28125 53.078125 
z
" id="DejaVuSans-115"/>
      </defs>
      <use xlink:href="#DejaVuSans-116"/>
      <use x="39.208984" xlink:href="#DejaVuSans-101"/>
      <use x="100.732422" xlink:href="#DejaVuSans-109"/>
      <use x="198.144531" xlink:href="#DejaVuSans-112"/>
      <use x="261.621094" xlink:href="#DejaVuSans-101"/>
      <use x="323.144531" xlink:href="#DejaVuSans-114"/>
      <use x="364.257812" xlink:href="#DejaVuSans-97"/>
      <use x="425.537109" xlink:href="#DejaVuSans-116"/>
      <use x="464.746094" xlink:href="#DejaVuSans-117"/>
      <use x="528.125" xlink:href="#DejaVuSans-114"/>
      <use x="566.988281" xlink:href="#DejaVuSans-101"/>
      <use x="628.511719" xlink:href="#DejaVuSans-32"/>
      <use x="660.298828" xlink:href="#DejaVuSans-102"/>
      <use x="695.503906" xlink:href="#DejaVuSans-114"/>
      <use x="734.367188" xlink:href="#DejaVuSans-111"/>
      <use x="795.548828" xlink:href="#DejaVuSans-109"/>
      <use x="892.960938" xlink:href="#DejaVuSans-32"/>
      <use x="924.748047" xlink:href="#DejaVuSans-65"/>
      <use x="991.40625" xlink:href="#DejaVuSans-101"/>
      <use x="1052.929688" xlink:href="#DejaVuSans-114"/>
      <use x="1094.042969" xlink:href="#DejaVuSans-105"/>
      <use x="1121.826172" xlink:href="#DejaVuSans-115"/>
     </g>
    </g>
   </g>
   <g id="matplotlib.axis_2">
    <g id="ytick_1">
     <g id="line2d_9">
      <defs>
       <path d="M 0 0 
L -3.5 0 
" id="md474f6f2a2" style="stroke:#000000;stroke-width:0.8;"/>
      </defs>
      <g>
       <use style="stroke:#000000;stroke-width:0.8;" x="57.6" xlink:href="#md474f6f2a2" y="300.643386"/>
      </g>
     </g>
     <g id="text_10">
      <!-- 0.0 -->
      <g transform="translate(34.696875 304.442605)scale(0.1 -0.1)">
       <use xlink:href="#DejaVuSans-48"/>
       <use x="63.623047" xlink:href="#DejaVuSans-46"/>
       <use x="95.410156" xlink:href="#DejaVuSans-48"/>
      </g>
     </g>
    </g>
    <g id="ytick_2">
     <g id="line2d_10">
      <g>
       <use style="stroke:#000000;stroke-width:0.8;" x="57.6" xlink:href="#md474f6f2a2" y="267.675609"/>
      </g>
     </g>
     <g id="text_11">
      <!-- 0.2 -->
      <g transform="translate(34.696875 271.474828)scale(0.1 -0.1)">
       <use xlink:href="#DejaVuSans-48"/>
       <use x="63.623047" xlink:href="#DejaVuSans-46"/>
       <use x="95.410156" xlink:href="#DejaVuSans-50"/>
      </g>
     </g>
    </g>
    <g id="ytick_3">
     <g id="line2d_11">
      <g>
       <use style="stroke:#000000;stroke-width:0.8;" x="57.6" xlink:href="#md474f6f2a2" y="234.707831"/>
      </g>
     </g>
     <g id="text_12">
      <!-- 0.4 -->
      <g transform="translate(34.696875 238.50705)scale(0.1 -0.1)">
       <defs>
        <path d="M 37.796875 64.3125 
L 12.890625 25.390625 
L 37.796875 25.390625 
z
M 35.203125 72.90625 
L 47.609375 72.90625 
L 47.609375 25.390625 
L 58.015625 25.390625 
L 58.015625 17.1875 
L 47.609375 17.1875 
L 47.609375 0 
L 37.796875 0 
L 37.796875 17.1875 
L 4.890625 17.1875 
L 4.890625 26.703125 
z
" id="DejaVuSans-52"/>
       </defs>
       <use xlink:href="#DejaVuSans-48"/>
       <use x="63.623047" xlink:href="#DejaVuSans-46"/>
       <use x="95.410156" xlink:href="#DejaVuSans-52"/>
      </g>
     </g>
    </g>
    <g id="ytick_4">
     <g id="line2d_12">
      <g>
       <use style="stroke:#000000;stroke-width:0.8;" x="57.6" xlink:href="#md474f6f2a2" y="201.740054"/>
      </g>
     </g>
     <g id="text_13">
      <!-- 0.6 -->
      <g transform="translate(34.696875 205.539273)scale(0.1 -0.1)">
       <defs>
        <path d="M 33.015625 40.375 
Q 26.375 40.375 22.484375 35.828125 
Q 18.609375 31.296875 18.609375 23.390625 
Q 18.609375 15.53125 22.484375 10.953125 
Q 26.375 6.390625 33.015625 6.390625 
Q 39.65625 6.390625 43.53125 10.953125 
Q 47.40625 15.53125 47.40625 23.390625 
Q 47.40625 31.296875 43.53125 35.828125 
Q 39.65625 40.375 33.015625 40.375 
z
M 52.59375 71.296875 
L 52.59375 62.3125 
Q 48.875 64.0625 45.09375 64.984375 
Q 41.3125 65.921875 37.59375 65.921875 
Q 27.828125 65.921875 22.671875 59.328125 
Q 17.53125 52.734375 16.796875 39.40625 
Q 19.671875 43.65625 24.015625 45.921875 
Q 28.375 48.1875 33.59375 48.1875 
Q 44.578125 48.1875 50.953125 41.515625 
Q 57.328125 34.859375 57.328125 23.390625 
Q 57.328125 12.15625 50.6875 5.359375 
Q 44.046875 -1.421875 33.015625 -1.421875 
Q 20.359375 -1.421875 13.671875 8.265625 
Q 6.984375 17.96875 6.984375 36.375 
Q 6.984375 53.65625 15.1875 63.9375 
Q 23.390625 74.21875 37.203125 74.21875 
Q 40.921875 74.21875 44.703125 73.484375 
Q 48.484375 72.75 52.59375 71.296875 
z
" id="DejaVuSans-54"/>
       </defs>
       <use xlink:href="#DejaVuSans-48"/>
       <use x="63.623047" xlink:href="#DejaVuSans-46"/>
       <use x="95.410156" xlink:href="#DejaVuSans-54"/>
      </g>
     </g>
    </g>
    <g id="ytick_5">
     <g id="line2d_13">
      <g>
       <use style="stroke:#000000;stroke-width:0.8;" x="57.6" xlink:href="#md474f6f2a2" y="168.772276"/>
      </g>
     </g>
     <g id="text_14">
      <!-- 0.8 -->
      <g transform="translate(34.696875 172.571495)scale(0.1 -0.1)">
       <defs>
        <path d="M 31.78125 34.625 
Q 24.75 34.625 20.71875 30.859375 
Q 16.703125 27.09375 16.703125 20.515625 
Q 16.703125 13.921875 20.71875 10.15625 
Q 24.75 6.390625 31.78125 6.390625 
Q 38.8125 6.390625 42.859375 10.171875 
Q 46.921875 13.96875 46.921875 20.515625 
Q 46.921875 27.09375 42.890625 30.859375 
Q 38.875 34.625 31.78125 34.625 
z
M 21.921875 38.8125 
Q 15.578125 40.375 12.03125 44.71875 
Q 8.5 49.078125 8.5 55.328125 
Q 8.5 64.0625 14.71875 69.140625 
Q 20.953125 74.21875 31.78125 74.21875 
Q 42.671875 74.21875 48.875 69.140625 
Q 55.078125 64.0625 55.078125 55.328125 
Q 55.078125 49.078125 51.53125 44.71875 
Q 48 40.375 41.703125 38.8125 
Q 48.828125 37.15625 52.796875 32.3125 
Q 56.78125 27.484375 56.78125 20.515625 
Q 56.78125 9.90625 50.3125 4.234375 
Q 43.84375 -1.421875 31.78125 -1.421875 
Q 19.734375 -1.421875 13.25 4.234375 
Q 6.78125 9.90625 6.78125 20.515625 
Q 6.78125 27.484375 10.78125 32.3125 
Q 14.796875 37.15625 21.921875 38.8125 
z
M 18.3125 54.390625 
Q 18.3125 48.734375 21.84375 45.5625 
Q 25.390625 42.390625 31.78125 42.390625 
Q 38.140625 42.390625 41.71875 45.5625 
Q 45.3125 48.734375 45.3125 54.390625 
Q 45.3125 60.0625 41.71875 63.234375 
Q 38.140625 66.40625 31.78125 66.40625 
Q 25.390625 66.40625 21.84375 63.234375 
Q 18.3125 60.0625 18.3125 54.390625 
z
" id="DejaVuSans-56"/>
       </defs>
       <use xlink:href="#DejaVuSans-48"/>
       <use x="63.623047" xlink:href="#DejaVuSans-46"/>
       <use x="95.410156" xlink:href="#DejaVuSans-56"/>
      </g>
     </g>
    </g>
    <g id="ytick_6">
     <g id="line2d_14">
      <g>
       <use style="stroke:#000000;stroke-width:0.8;" x="57.6" xlink:href="#md474f6f2a2" y="135.804499"/>
      </g>
     </g>
     <g id="text_15">
      <!-- 1.0 -->
      <g transform="translate(34.696875 139.603718)scale(0.1 -0.1)">
       <use xlink:href="#DejaVuSans-49"/>
       <use x="63.623047" xlink:href="#DejaVuSans-46"/>
       <use x="95.410156" xlink:href="#DejaVuSans-48"/>
      </g>
     </g>
    </g>
    <g id="ytick_7">
     <g id="line2d_15">
      <g>
       <use style="stroke:#000000;stroke-width:0.8;" x="57.6" xlink:href="#md474f6f2a2" y="102.836721"/>
      </g>
     </g>
     <g id="text_16">
      <!-- 1.2 -->
      <g transform="translate(34.696875 106.63594)scale(0.1 -0.1)">
       <use xlink:href="#DejaVuSans-49"/>
       <use x="63.623047" xlink:href="#DejaVuSans-46"/>
       <use x="95.410156" xlink:href="#DejaVuSans-50"/>
      </g>
     </g>
    </g>
    <g id="ytick_8">
     <g id="line2d_16">
      <g>
       <use style="stroke:#000000;stroke-width:0.8;" x="57.6" xlink:href="#md474f6f2a2" y="69.868944"/>
      </g>
     </g>
     <g id="text_17">
      <!-- 1.4 -->
      <g transform="translate(34.696875 73.668163)scale(0.1 -0.1)">
       <use xlink:href="#DejaVuSans-49"/>
       <use x="63.623047" xlink:href="#DejaVuSans-46"/>
       <use x="95.410156" xlink:href="#DejaVuSans-52"/>
      </g>
     </g>
    </g>
    <g id="text_18">
     <!-- Throughput_night[Bit/s] -->
     <g transform="translate(28.339062 233.899094)rotate(-90)scale(0.1 -0.1)">
      <defs>
       <path d="M -0.296875 72.90625 
L 61.375 72.90625 
L 61.375 64.59375 
L 35.5 64.59375 
L 35.5 0 
L 25.59375 0 
L 25.59375 64.59375 
L -0.296875 64.59375 
z
" id="DejaVuSans-84"/>
       <path d="M 54.890625 33.015625 
L 54.890625 0 
L 45.90625 0 
L 45.90625 32.71875 
Q 45.90625 40.484375 42.875 44.328125 
Q 39.84375 48.1875 33.796875 48.1875 
Q 26.515625 48.1875 22.3125 43.546875 
Q 18.109375 38.921875 18.109375 30.90625 
L 18.109375 0 
L 9.078125 0 
L 9.078125 75.984375 
L 18.109375 75.984375 
L 18.109375 46.1875 
Q 21.34375 51.125 25.703125 53.5625 
Q 30.078125 56 35.796875 56 
Q 45.21875 56 50.046875 50.171875 
Q 54.890625 44.34375 54.890625 33.015625 
z
" id="DejaVuSans-104"/>
       <path d="M 45.40625 27.984375 
Q 45.40625 37.75 41.375 43.109375 
Q 37.359375 48.484375 30.078125 48.484375 
Q 22.859375 48.484375 18.828125 43.109375 
Q 14.796875 37.75 14.796875 27.984375 
Q 14.796875 18.265625 18.828125 12.890625 
Q 22.859375 7.515625 30.078125 7.515625 
Q 37.359375 7.515625 41.375 12.890625 
Q 45.40625 18.265625 45.40625 27.984375 
z
M 54.390625 6.78125 
Q 54.390625 -7.171875 48.1875 -13.984375 
Q 42 -20.796875 29.203125 -20.796875 
Q 24.46875 -20.796875 20.265625 -20.09375 
Q 16.0625 -19.390625 12.109375 -17.921875 
L 12.109375 -9.1875 
Q 16.0625 -11.328125 19.921875 -12.34375 
Q 23.78125 -13.375 27.78125 -13.375 
Q 36.625 -13.375 41.015625 -8.765625 
Q 45.40625 -4.15625 45.40625 5.171875 
L 45.40625 9.625 
Q 42.625 4.78125 38.28125 2.390625 
Q 33.9375 0 27.875 0 
Q 17.828125 0 11.671875 7.65625 
Q 5.515625 15.328125 5.515625 27.984375 
Q 5.515625 40.671875 11.671875 48.328125 
Q 17.828125 56 27.875 56 
Q 33.9375 56 38.28125 53.609375 
Q 42.625 51.21875 45.40625 46.390625 
L 45.40625 54.6875 
L 54.390625 54.6875 
z
" id="DejaVuSans-103"/>
       <path d="M 50.984375 -16.609375 
L 50.984375 -23.578125 
L -0.984375 -23.578125 
L -0.984375 -16.609375 
z
" id="DejaVuSans-95"/>
       <path d="M 54.890625 33.015625 
L 54.890625 0 
L 45.90625 0 
L 45.90625 32.71875 
Q 45.90625 40.484375 42.875 44.328125 
Q 39.84375 48.1875 33.796875 48.1875 
Q 26.515625 48.1875 22.3125 43.546875 
Q 18.109375 38.921875 18.109375 30.90625 
L 18.109375 0 
L 9.078125 0 
L 9.078125 54.6875 
L 18.109375 54.6875 
L 18.109375 46.1875 
Q 21.34375 51.125 25.703125 53.5625 
Q 30.078125 56 35.796875 56 
Q 45.21875 56 50.046875 50.171875 
Q 54.890625 44.34375 54.890625 33.015625 
z
" id="DejaVuSans-110"/>
       <path d="M 8.59375 75.984375 
L 29.296875 75.984375 
L 29.296875 69 
L 17.578125 69 
L 17.578125 -6.203125 
L 29.296875 -6.203125 
L 29.296875 -13.1875 
L 8.59375 -13.1875 
z
" id="DejaVuSans-91"/>
       <path d="M 19.671875 34.8125 
L 19.671875 8.109375 
L 35.5 8.109375 
Q 43.453125 8.109375 47.28125 11.40625 
Q 51.125 14.703125 51.125 21.484375 
Q 51.125 28.328125 47.28125 31.5625 
Q 43.453125 34.8125 35.5 34.8125 
z
M 19.671875 64.796875 
L 19.671875 42.828125 
L 34.28125 42.828125 
Q 41.5 42.828125 45.03125 45.53125 
Q 48.578125 48.25 48.578125 53.8125 
Q 48.578125 59.328125 45.03125 62.0625 
Q 41.5 64.796875 34.28125 64.796875 
z
M 9.8125 72.90625 
L 35.015625 72.90625 
Q 46.296875 72.90625 52.390625 68.21875 
Q 58.5 63.53125 58.5 54.890625 
Q 58.5 48.1875 55.375 44.234375 
Q 52.25 40.28125 46.1875 39.3125 
Q 53.46875 37.75 57.5 32.78125 
Q 61.53125 27.828125 61.53125 20.40625 
Q 61.53125 10.640625 54.890625 5.3125 
Q 48.25 0 35.984375 0 
L 9.8125 0 
z
" id="DejaVuSans-66"/>
       <path d="M 25.390625 72.90625 
L 33.6875 72.90625 
L 8.296875 -9.28125 
L 0 -9.28125 
z
" id="DejaVuSans-47"/>
       <path d="M 30.421875 75.984375 
L 30.421875 -13.1875 
L 9.71875 -13.1875 
L 9.71875 -6.203125 
L 21.390625 -6.203125 
L 21.390625 69 
L 9.71875 69 
L 9.71875 75.984375 
z
" id="DejaVuSans-93"/>
      </defs>
      <use xlink:href="#DejaVuSans-84"/>
      <use x="61.083984" xlink:href="#DejaVuSans-104"/>
      <use x="124.462891" xlink:href="#DejaVuSans-114"/>
      <use x="163.326172" xlink:href="#DejaVuSans-111"/>
      <use x="224.507812" xlink:href="#DejaVuSans-117"/>
      <use x="287.886719" xlink:href="#DejaVuSans-103"/>
      <use x="351.363281" xlink:href="#DejaVuSans-104"/>
      <use x="414.742188" xlink:href="#DejaVuSans-112"/>
      <use x="478.21875" xlink:href="#DejaVuSans-117"/>
      <use x="541.597656" xlink:href="#DejaVuSans-116"/>
      <use x="580.806641" xlink:href="#DejaVuSans-95"/>
      <use x="630.806641" xlink:href="#DejaVuSans-110"/>
      <use x="694.185547" xlink:href="#DejaVuSans-105"/>
      <use x="721.96875" xlink:href="#DejaVuSans-103"/>
      <use x="785.445312" xlink:href="#DejaVuSans-104"/>
      <use x="848.824219" xlink:href="#DejaVuSans-116"/>
      <use x="888.033203" xlink:href="#DejaVuSans-91"/>
      <use x="927.046875" xlink:href="#DejaVuSans-66"/>
      <use x="995.650391" xlink:href="#DejaVuSans-105"/>
      <use x="1023.433594" xlink:href="#DejaVuSans-116"/>
      <use x="1062.642578" xlink:href="#DejaVuSans-47"/>
      <use x="1096.333984" xlink:href="#DejaVuSans-115"/>
      <use x="1148.433594" xlink:href="#DejaVuSans-93"/>
     </g>
    </g>
    <g id="text_19">
     <!-- 1e7 -->
     <g transform="translate(57.6 38.472)scale(0.1 -0.1)">
      <use xlink:href="#DejaVuSans-49"/>
      <use x="63.623047" xlink:href="#DejaVuSans-101"/>
      <use x="125.146484" xlink:href="#DejaVuSans-55"/>
     </g>
    </g>
   </g>
   <g id="line2d_17">
    <path clip-path="url(#p4622f74a40)" d="M 73.832727 69.230109 
L 74.011305 74.66333 
L 80.618686 73.144528 
L 81.332997 81.008237 
L 82.047309 80.488717 
L 82.404464 82.21022 
L 83.297354 82.303287 
L 83.833087 76.284319 
L 84.011665 80.680999 
L 84.547399 78.104161 
L 89.190423 72.561369 
L 89.369001 72.562806 
L 89.904734 79.061913 
L 90.083312 74.571317 
L 90.26189 78.295366 
L 90.619046 77.72235 
L 90.797624 76.861156 
L 90.976202 73.22908 
L 91.154779 79.152707 
L 92.047669 78.483572 
L 92.226247 73.524149 
L 92.76198 65.879332 
L 92.940558 76.477818 
L 93.119136 78.959041 
L 93.297714 74.660414 
L 93.476292 77.047692 
L 93.654869 77.051068 
L 93.833447 136.914488 
L 99.369361 86.311188 
L 99.547939 81.166359 
L 99.726517 81.060705 
L 99.905095 77.239619 
L 100.083672 80.490236 
L 100.26225 76.956425 
L 100.440828 85.833876 
L 100.619406 83.635615 
L 100.797984 76.481248 
L 101.333717 113.435073 
L 101.512295 172.815031 
L 101.690873 72.850632 
L 101.869451 113.994673 
L 102.226607 97.582563 
L 106.691053 81.917973 
L 107.226787 79.058323 
L 107.583942 73.233219 
L 107.76252 78.688807 
L 108.119676 76.479073 
L 108.476832 78.958176 
L 108.65541 141.781599 
L 109.012565 100.250923 
L 109.369721 118.582541 
L 109.905455 73.520697 
L 110.26261 104.075971 
L 110.798344 113.51892 
L 115.441368 77.04805 
L 115.619946 76.571967 
L 115.977102 74.950465 
L 116.15568 72.942459 
L 116.691413 86.598906 
L 117.227147 76.385846 
L 117.405725 76.765081 
L 117.584302 117.814687 
L 117.76288 85.071165 
L 118.834347 130.617971 
L 120.798704 79.148056 
L 121.15586 77.342169 
L 121.334437 75.441938 
L 122.227327 79.055465 
L 122.405905 79.918852 
L 122.584482 72.561118 
L 123.298794 81.54198 
L 123.477372 79.917727 
L 124.370261 78.962809 
L 128.477552 74.768807 
L 129.013285 79.440091 
L 129.370441 79.340328 
L 129.549019 121.839026 
L 129.727597 83.066634 
L 130.084752 74.087898 
L 130.26333 75.144225 
L 130.441908 79.152552 
L 130.620486 98.815052 
L 130.799064 164.214661 
L 131.870531 70.173884 
L 132.76342 83.737919 
L 134.013465 64.542072 
L 134.370621 92.139354 
L 134.906355 93.947621 
L 135.26351 75.999947 
L 135.620666 100.628404 
L 135.799244 81.829591 
L 136.1564 83.835643 
L 136.334977 105.697709 
L 136.513555 60.540836 
L 136.692133 90.615632 
L 137.227867 55.757777 
L 137.585023 74.186744 
L 137.7636 72.183252 
L 137.942178 67.218709 
L 138.120756 68.461029 
L 138.477912 68.936524 
L 138.65649 63.212474 
L 138.835068 71.800204 
L 139.013645 73.902078 
L 139.192223 69.704884 
L 139.370801 77.723643 
L 139.727957 74.279091 
L 139.906535 74.574866 
L 140.085113 73.140501 
L 140.26369 82.210897 
L 140.442268 100.822487 
L 140.620846 76.382616 
L 140.799424 85.355381 
L 140.978002 80.207067 
L 141.335158 74.952699 
L 141.513735 82.972601 
L 141.870891 87.085376 
L 142.049469 87.552885 
L 142.76378 65.019148 
L 143.299514 85.075002 
L 143.65667 88.027857 
L 144.013825 80.869983 
L 144.549559 88.707476 
L 144.906715 84.115638 
L 145.085293 96.346073 
L 145.26387 80.105777 
L 145.442448 78.486483 
L 145.621026 92.328251 
L 145.799604 65.988061 
L 145.978182 81.728847 
L 146.15676 64.351531 
L 146.513915 69.128345 
L 146.692493 73.615781 
L 146.871071 69.983493 
L 147.049649 73.228671 
L 147.228227 73.803523 
L 147.406805 75.236246 
L 147.585383 68.550418 
L 147.942538 73.612285 
L 148.121116 85.753705 
L 148.299694 73.329803 
L 148.478272 73.325052 
L 148.65685 73.898268 
L 148.835428 76.761679 
L 149.014005 92.717948 
L 149.192583 72.273652 
L 149.371161 80.304077 
L 149.728317 83.735187 
L 149.906895 87.551116 
L 150.085473 76.671179 
L 150.442628 75.045439 
L 150.799784 83.160539 
L 151.514095 74.567158 
L 151.871251 76.862499 
L 152.049829 81.061561 
L 152.228407 77.536788 
L 152.585563 75.141858 
L 152.76414 71.98879 
L 152.942718 76.875006 
L 153.299874 78.95944 
L 153.478452 76.001565 
L 153.65703 77.529916 
L 153.835608 77.246544 
L 154.014185 78.098664 
L 154.192763 71.701093 
L 154.371341 72.851748 
L 154.549919 69.794928 
L 154.728497 72.119293 
L 154.907075 80.492855 
L 155.26423 74.75853 
L 155.442808 74.000199 
L 155.621386 69.129132 
L 155.799964 69.792134 
L 155.978542 77.435651 
L 156.15712 70.845313 
L 156.335698 76.768798 
L 156.514275 74.570097 
L 156.692853 75.330681 
L 156.871431 70.854574 
L 157.050009 75.046545 
L 157.228587 68.553273 
L 157.407165 83.352263 
L 157.942898 67.977608 
L 158.121476 75.808196 
L 158.300054 112.280368 
L 158.478632 75.428112 
L 158.835788 71.993592 
L 159.014365 78.390391 
L 159.192943 77.906696 
L 159.371521 78.098753 
L 159.550099 71.893158 
L 159.728677 72.942824 
L 159.907255 68.561651 
L 160.085833 78.388813 
L 160.26441 72.942414 
L 160.800144 86.313888 
L 162.050189 73.420865 
L 162.228767 77.629556 
L 162.407345 77.906585 
L 162.585923 77.722662 
L 162.7645 80.391815 
L 162.943078 72.182406 
L 163.300234 75.140572 
L 163.478812 77.156148 
L 163.65739 76.286159 
L 163.835968 77.528756 
L 164.014545 77.81744 
L 164.193123 73.80502 
L 164.550279 76.386406 
L 164.728857 74.662154 
L 164.907435 74.759501 
L 165.086013 68.264792 
L 165.443168 77.246254 
L 165.621746 75.713129 
L 165.800324 77.815324 
L 165.978902 94.330992 
L 166.514635 76.763201 
L 166.693213 72.381975 
L 166.871791 72.754569 
L 167.050369 72.466513 
L 167.228947 58.727327 
L 167.407525 77.620101 
L 167.76468 73.421683 
L 167.943258 80.488915 
L 168.121836 80.486383 
L 168.300414 90.455383 
L 168.65757 89.271568 
L 168.836148 77.813853 
L 169.371881 73.325848 
L 169.550459 93.286266 
L 169.729037 70.746073 
L 169.907615 75.042529 
L 170.086193 113.817347 
L 170.26477 78.86266 
L 170.800504 73.611536 
L 170.979082 77.339825 
L 171.15766 72.08705 
L 171.336238 75.329464 
L 171.514815 80.780382 
L 171.693393 80.29804 
L 172.050549 77.533843 
L 172.229127 73.612489 
L 172.407705 75.814873 
L 172.586283 76.283736 
L 172.76486 77.811781 
L 172.943438 64.446247 
L 173.122016 75.04377 
L 173.300594 72.751356 
L 173.479172 73.419661 
L 173.65775 77.148505 
L 173.836328 100.634705 
L 174.193483 64.064383 
L 174.550639 79.441617 
L 175.086373 73.708301 
L 175.26495 80.201248 
L 175.443528 129.654401 
L 175.622106 76.187994 
L 175.800684 76.952197 
L 175.979262 81.921953 
L 176.15784 70.651474 
L 176.514995 78.10307 
L 176.693573 74.948863 
L 176.872151 68.264118 
L 177.050729 74.766277 
L 177.229307 95.000377 
L 177.407885 73.421365 
L 177.586463 79.152995 
L 177.765041 70.559821 
L 177.943618 81.354901 
L 178.122196 72.182521 
L 178.300774 87.743422 
L 178.479352 82.400197 
L 178.836508 79.339974 
L 179.015086 81.728978 
L 179.193663 71.608163 
L 179.372241 70.84899 
L 179.550819 82.492853 
L 179.729397 80.678976 
L 179.907975 72.18677 
L 180.265131 72.370334 
L 180.443708 75.139107 
L 180.622286 80.969935 
L 180.800864 73.610877 
L 180.979442 74.949607 
L 181.15802 68.367836 
L 181.336598 77.620658 
L 181.515176 76.858068 
L 181.693753 70.268987 
L 182.229487 74.947644 
L 182.408065 72.660329 
L 182.586643 73.610355 
L 182.765221 80.965629 
L 182.943798 71.049938 
L 183.122376 81.82307 
L 183.300954 83.161474 
L 183.479532 75.716458 
L 183.65811 77.91095 
L 183.836688 69.322246 
L 184.193843 76.190665 
L 184.372421 71.510584 
L 184.550999 71.320145 
L 184.729577 71.511226 
L 184.908155 68.462863 
L 185.086733 74.377165 
L 185.265311 73.614669 
L 185.443888 77.429692 
L 185.622466 74.663375 
L 185.801044 74.092202 
L 185.979622 74.570594 
L 186.1582 60.285267 
L 186.336778 73.039183 
L 186.515356 72.976631 
L 186.693933 73.325371 
L 186.872511 72.561643 
L 187.051089 72.560115 
L 187.229667 79.147325 
L 187.408245 71.320443 
L 187.586823 76.096855 
L 187.765401 75.906117 
L 188.122556 72.943416 
L 188.301134 76.577905 
L 188.479712 74.76569 
L 188.836868 79.154701 
L 189.015446 72.182315 
L 189.372601 78.394147 
L 189.729757 75.330365 
L 189.908335 69.701789 
L 190.086913 77.143656 
L 190.444068 73.04089 
L 190.801224 79.630699 
L 191.15838 85.355359 
L 191.336958 93.951134 
L 191.515536 76.477235 
L 191.694113 105.975646 
L 191.872691 73.038569 
L 192.051269 81.345056 
L 192.587003 73.99442 
L 192.944158 78.985882 
L 193.122736 83.353914 
L 193.479892 73.519743 
L 194.015626 74.769733 
L 194.372781 73.806676 
L 194.551359 79.443984 
L 194.908515 76.958975 
L 195.087093 84.116439 
L 195.265671 73.71352 
L 195.622826 81.730248 
L 195.801404 72.848513 
L 195.979982 75.341044 
L 196.15856 68.269346 
L 196.515716 82.20288 
L 196.694293 72.846873 
L 196.872871 72.278493 
L 197.051449 74.857117 
L 197.230027 75.519643 
L 197.587183 80.486537 
L 197.765761 70.087265 
L 197.944338 78.48315 
L 198.122916 76.287482 
L 198.301494 76.295648 
L 198.480072 78.767921 
L 198.65865 73.32778 
L 198.837228 81.44033 
L 199.015806 79.819938 
L 199.194383 79.340638 
L 199.372961 74.727058 
L 199.551539 81.638062 
L 200.087273 76.858784 
L 200.444428 76.575574 
L 200.801584 75.905937 
L 200.980162 73.039365 
L 201.15874 74.472659 
L 201.337318 78.195048 
L 201.515896 75.523492 
L 201.873051 78.765879 
L 202.051629 75.331244 
L 202.230207 75.715558 
L 202.408785 65.403552 
L 202.587363 92.707385 
L 202.765941 91.469357 
L 202.944518 79.911855 
L 203.123096 81.543075 
L 203.301674 75.043522 
L 203.480252 80.593363 
L 203.65883 73.801617 
L 204.015986 75.713467 
L 204.194563 75.138678 
L 204.551719 75.234466 
L 204.908875 74.567836 
L 205.266031 76.952287 
L 205.444608 72.944304 
L 205.801764 79.913467 
L 206.15892 68.172807 
L 206.516076 84.978735 
L 206.694653 78.671406 
L 206.873231 79.053205 
L 207.051809 77.620658 
L 207.230387 81.630332 
L 207.587543 75.049252 
L 208.123276 82.969684 
L 208.480432 81.635434 
L 208.65901 76.858538 
L 208.837588 77.335984 
L 209.016166 76.765171 
L 209.194743 81.154398 
L 209.373321 81.347314 
L 209.551899 72.464939 
L 209.730477 79.055088 
L 210.623366 70.077651 
L 211.337678 71.99366 
L 211.694833 79.147768 
L 211.873411 77.239038 
L 212.230567 75.044176 
L 212.409145 79.439428 
L 212.766301 70.765543 
L 212.944878 81.060397 
L 213.123456 83.06398 
L 213.480612 74.383885 
L 213.65919 90.709588 
L 213.837768 78.292053 
L 214.016346 102.92281 
L 214.194923 72.560617 
L 214.373501 80.391683 
L 214.730657 71.701139 
L 215.087813 76.764275 
L 215.266391 83.830635 
L 215.623546 73.905025 
L 215.802124 74.853211 
L 216.15928 80.200454 
L 216.337858 74.374857 
L 216.516436 80.492657 
L 216.695014 114.007345 
L 217.052169 76.192752 
L 217.230747 74.184389 
L 217.409325 80.200079 
L 217.587903 81.728606 
L 218.123636 76.956604 
L 218.65937 76.765305 
L 218.837948 78.670918 
L 219.195104 86.694975 
L 219.552259 72.476279 
L 219.730837 88.892692 
L 220.087993 86.789911 
L 220.266571 76.093352 
L 220.623726 80.015336 
L 220.802304 93.182417 
L 220.980882 119.25063 
L 221.15946 77.238212 
L 221.338038 76.575306 
L 221.516616 95.671293 
L 221.695194 71.509897 
L 222.052349 90.708098 
L 222.230927 113.719284 
L 222.409505 73.516586 
L 222.588083 83.256314 
L 222.766661 72.655245 
L 222.945239 76.666968 
L 223.302394 74.481185 
L 223.480972 74.565959 
L 223.65955 75.234285 
L 223.838128 90.990688 
L 224.016706 80.966398 
L 224.195284 80.772709 
L 224.373861 74.184027 
L 224.731017 80.486185 
L 225.088173 79.248643 
L 225.266751 81.91771 
L 225.802484 72.567755 
L 226.516796 81.540249 
L 227.409685 83.447799 
L 227.766841 80.773347 
L 228.123996 63.78145 
L 228.302574 75.712972 
L 228.481152 69.695531 
L 228.65973 74.200172 
L 228.838308 69.890975 
L 229.016886 75.997791 
L 229.195464 77.812316 
L 229.731197 77.433062 
L 229.909775 80.200432 
L 230.088353 86.885381 
L 230.445509 75.331762 
L 230.624086 79.338027 
L 230.802664 73.138067 
L 230.981242 80.294471 
L 232.052709 80.392255 
L 232.231287 80.00885 
L 232.409865 84.312118 
L 232.588443 66.832176 
L 233.302754 78.767721 
L 234.374221 82.398059 
L 235.445689 78.196227 
L 235.802844 78.961169 
L 235.981422 80.390009 
L 236.16 76.381944 
L 236.695734 77.626479 
L 236.874311 73.898722 
L 237.052889 79.15304 
L 237.231467 77.051672 
L 237.410045 77.365969 
L 237.588623 78.959262 
L 238.124356 74.852894 
L 238.302934 67.598516 
L 238.481512 80.678646 
L 238.66009 82.593208 
L 238.838668 75.143887 
L 239.017246 60.442029 
L 239.195824 73.612784 
L 239.552979 69.696685 
L 239.731557 80.013196 
L 240.088713 75.338792 
L 240.445869 78.295366 
L 240.803024 77.334533 
L 240.981602 77.339691 
L 241.517336 71.136155 
L 241.695914 79.631738 
L 242.410225 78.003571 
L 242.767381 74.184819 
L 243.303114 74.758213 
L 243.481692 66.837132 
L 243.838848 75.71178 
L 244.017426 77.334242 
L 244.196004 96.91781 
L 244.374581 78.669852 
L 244.553159 73.14728 
L 244.731737 89.079992 
L 245.088893 99.298312 
L 245.267471 67.215395 
L 245.446049 71.520115 
L 245.624626 82.305165 
L 245.803204 79.819519 
L 245.981782 70.748555 
L 246.338938 78.099621 
L 246.696094 72.085245 
L 246.874671 77.438218 
L 247.053249 76.478917 
L 247.231827 73.806993 
L 247.410405 72.85045 
L 247.588983 71.224283 
L 247.767561 82.399041 
L 248.124716 71.98751 
L 248.303294 74.003553 
L 248.481872 71.892861 
L 248.66045 76.674404 
L 249.017606 72.855483 
L 249.196184 70.178816 
L 249.553339 70.188932 
L 249.731917 71.893502 
L 249.910495 79.627141 
L 250.089073 61.493653 
L 250.446229 98.054211 
L 250.624806 69.792965 
L 250.803384 80.298371 
L 250.981962 65.785998 
L 251.339118 73.619663 
L 251.696274 71.891237 
L 251.874851 82.679827 
L 252.053429 84.21165 
L 252.232007 75.146164 
L 252.767741 78.296567 
L 252.946319 74.947193 
L 253.303474 83.166432 
L 254.196364 84.590853 
L 254.732097 79.43434 
L 255.446409 77.813497 
L 255.803564 71.993775 
L 255.982142 64.733912 
L 256.16072 67.216235 
L 256.339298 78.199207 
L 256.517876 71.80565 
L 256.696454 72.559955 
L 257.946499 87.269353 
L 258.303654 88.810949 
L 258.839388 86.88179 
L 259.196544 76.768126 
L 259.375122 82.305558 
L 259.553699 77.525186 
L 259.732277 83.451404 
L 260.089433 71.13005 
L 260.268011 80.782295 
L 260.625167 72.84701 
L 260.803744 76.579585 
L 260.982322 73.514951 
L 261.1609 74.756926 
L 261.339478 67.310399 
L 261.696634 80.677744 
L 261.875212 73.325621 
L 262.053789 71.510424 
L 262.232367 88.888055 
L 262.589523 72.371932 
L 263.482412 71.89357 
L 263.66099 83.072226 
L 264.018146 70.180798 
L 264.196724 79.436065 
L 264.732457 87.55216 
L 264.911035 85.360676 
L 265.089613 92.330417 
L 265.268191 79.820733 
L 265.803924 96.525147 
L 266.16108 76.188398 
L 266.339658 88.414349 
L 266.518236 53.568 
L 266.696814 74.375332 
L 267.768281 74.475192 
L 268.304014 70.661938 
L 268.482592 80.198316 
L 268.66117 72.657456 
L 269.018326 141.207744 
L 269.196904 76.198004 
L 269.375482 79.148034 
L 269.554059 73.329371 
L 269.732637 71.611828 
L 270.625527 83.067896 
L 270.804104 80.967013 
L 270.982682 81.63504 
L 271.696994 73.994239 
L 272.054149 83.450014 
L 272.232727 72.561392 
L 272.589883 76.47793 
L 272.947039 83.06448 
L 273.304194 72.082776 
L 273.482772 78.294788 
L 273.66135 72.46535 
L 273.839928 74.579659 
L 274.197084 292.814912 
L 274.375662 71.127113 
L 274.554239 77.431857 
L 274.732817 76.480284 
L 275.089973 295.488 
L 275.447129 80.869236 
L 275.804284 77.531009 
L 276.16144 62.157909 
L 276.340018 78.671317 
L 276.518596 73.902735 
L 276.697174 78.197739 
L 276.875752 74.864454 
L 277.054329 69.126146 
L 277.232907 77.717825 
L 277.590063 79.911613 
L 277.768641 74.953286 
L 277.947219 77.812427 
L 278.304374 81.345143 
L 278.482952 75.521781 
L 279.018686 76.862991 
L 279.197264 83.639456 
L 279.375842 81.441711 
L 279.732997 81.153827 
L 280.090153 76.871315 
L 280.447309 82.877022 
L 280.625887 75.523762 
L 280.804464 79.343559 
L 280.983042 72.942368 
L 281.340198 80.489003 
L 281.518776 76.961167 
L 281.697354 82.011652 
L 281.875932 82.399761 
L 282.054509 79.054002 
L 282.233087 78.389102 
L 282.411665 77.143209 
L 282.590243 72.190356 
L 282.768821 77.148796 
L 283.125977 75.619683 
L 283.304554 75.427098 
L 283.66171 77.429692 
L 283.840288 72.369056 
L 284.018866 77.816282 
L 284.197444 97.573344 
L 284.376022 80.013218 
L 284.554599 74.95209 
L 285.268911 79.251299 
L 285.447489 78.967464 
L 285.626067 79.052407 
L 286.1618 76.954882 
L 286.697534 78.196027 
L 286.876112 77.815346 
L 287.054689 70.746187 
L 287.233267 81.251405 
L 287.411845 78.770672 
L 287.769001 80.678602 
L 287.947579 77.907832 
L 288.304734 66.646613 
L 289.019046 78.290742 
L 289.376202 71.992197 
L 289.733357 74.282215 
L 289.911935 78.392525 
L 290.090513 72.562145 
L 290.626247 74.777646 
L 290.804824 82.493769 
L 290.983402 78.481062 
L 291.16198 78.767632 
L 291.340558 74.662629 
L 292.233447 76.766425 
L 292.412025 75.810332 
L 292.769181 76.385711 
L 293.304914 75.999296 
L 293.483492 102.836042 
L 293.840648 76.478558 
L 294.019226 73.515156 
L 294.197804 78.28854 
L 294.554959 74.854023 
L 294.912115 76.76535 
L 295.090693 76.569682 
L 295.269271 77.907676 
L 295.447849 80.877521 
L 295.805005 73.1347 
L 295.983582 84.209854 
L 296.16216 74.09039 
L 296.340738 73.137521 
L 298.483672 75.81258 
L 299.019406 81.252304 
L 299.912295 154.872203 
L 300.090873 75.047876 
L 300.805185 80.104255 
L 301.16234 154.574234 
L 301.519496 79.532311 
L 301.698074 81.736574 
L 301.876652 82.027392 
L 302.233807 85.939695 
L 302.412385 77.142561 
L 302.948119 77.24297 
L 303.305275 117.625171 
L 304.912475 81.443684 
L 305.805365 77.143142 
L 306.519676 81.060222 
L 307.05541 80.599898 
L 307.591143 76.191585 
L 308.126877 78.390591 
L 308.305455 76.478939 
L 308.66261 78.002703 
L 309.019766 81.640646 
L 309.198344 75.04483 
L 309.376922 78.002881 
L 309.734077 74.380129 
L 310.091233 77.817218 
L 310.805545 79.530851 
L 311.1627 159.535797 
L 311.341278 76.293382 
L 311.519856 79.348339 
L 311.877012 101.966808 
L 312.234167 56.141964 
L 316.341458 65.691068 
L 316.520036 84.973711 
L 316.877192 80.490126 
L 317.234347 79.72248 
L 317.591503 77.623468 
L 318.127237 70.565435 
L 318.305815 77.718939 
L 318.484392 74.853707 
L 319.198704 73.32853 
L 320.984482 80.390493 
L 322.591683 78.289163 
L 323.127417 80.107607 
L 324.020306 86.790167 
L 324.377462 82.210263 
L 324.734617 102.447972 
L 325.091773 71.510263 
L 325.270351 86.309173 
L 325.806085 80.772512 
L 325.984662 86.217754 
L 329.199064 87.359192 
L 330.270531 74.18491 
L 331.877732 76.575059 
L 335.806445 77.335895 
L 338.127957 83.448885 
L 338.306535 74.570594 
L 339.199424 78.484817 
L 339.735158 78.957223 
L 340.092313 76.094138 
L 340.270891 79.244569 
L 341.520936 74.661951 
L 344.378182 78.861862 
L 344.913915 81.921603 
L 345.449649 78.104806 
L 345.628227 82.016592 
L 346.521116 76.574611 
L 346.699694 81.824405 
L 346.878272 82.01421 
L 347.949739 77.239172 
L 348.128317 78.574802 
L 349.021206 79.053426 
L 349.914095 81.249584 
L 353.307075 91.945808 
L 354.735698 81.726876 
L 355.092853 83.543465 
L 358.307255 77.819513 
L 360.271611 78.288073 
L 360.450189 84.498645 
L 361.878812 74.088917 
L 362.771701 81.155363 
L 363.486013 75.810084 
L 370.629127 79.150271 
L 375.807885 76.570219 
L 377.415086 80.86917 
L 379.022286 81.440527 
L 383.129577 76.286271 
L 385.093933 79.339487 
L 385.451089 81.536043 
L 386.522556 80.108644 
L 387.415446 77.053662 
L 388.486913 84.213143 
L 390.808425 80.675962 
L 394.022826 77.911596 
L 396.165761 74.377618 
L 398.487273 80.867587 
L 398.487273 80.867587 
" style="fill:none;stroke:#0000ff;stroke-linecap:square;stroke-width:1.5;"/>
   </g>
   <g id="patch_3">
    <path d="M 57.6 307.584 
L 57.6 41.472 
" style="fill:none;stroke:#000000;stroke-linecap:square;stroke-linejoin:miter;stroke-width:0.8;"/>
   </g>
   <g id="patch_4">
    <path d="M 414.72 307.584 
L 414.72 41.472 
" style="fill:none;stroke:#000000;stroke-linecap:square;stroke-linejoin:miter;stroke-width:0.8;"/>
   </g>
   <g id="patch_5">
    <path d="M 57.6 307.584 
L 414.72 307.584 
" style="fill:none;stroke:#000000;stroke-linecap:square;stroke-linejoin:miter;stroke-width:0.8;"/>
   </g>
   <g id="patch_6">
    <path d="M 57.6 41.472 
L 414.72 41.472 
" style="fill:none;stroke:#000000;stroke-linecap:square;stroke-linejoin:miter;stroke-width:0.8;"/>
   </g>
   <g id="text_20">
    <!-- temperature-&gt;Throughput_night -->
    <g transform="translate(137.975625 35.472)scale(0.12 -0.12)">
     <defs>
      <path d="M 4.890625 31.390625 
L 31.203125 31.390625 
L 31.203125 23.390625 
L 4.890625 23.390625 
z
" id="DejaVuSans-45"/>
      <path d="M 10.59375 49.21875 
L 10.59375 58.109375 
L 73.1875 35.40625 
L 73.1875 27.296875 
L 10.59375 4.59375 
L 10.59375 13.484375 
L 60.890625 31.296875 
z
" id="DejaVuSans-62"/>
     </defs>
     <use xlink:href="#DejaVuSans-116"/>
     <use x="39.208984" xlink:href="#DejaVuSans-101"/>
     <use x="100.732422" xlink:href="#DejaVuSans-109"/>
     <use x="198.144531" xlink:href="#DejaVuSans-112"/>
     <use x="261.621094" xlink:href="#DejaVuSans-101"/>
     <use x="323.144531" xlink:href="#DejaVuSans-114"/>
     <use x="364.257812" xlink:href="#DejaVuSans-97"/>
     <use x="425.537109" xlink:href="#DejaVuSans-116"/>
     <use x="464.746094" xlink:href="#DejaVuSans-117"/>
     <use x="528.125" xlink:href="#DejaVuSans-114"/>
     <use x="566.988281" xlink:href="#DejaVuSans-101"/>
     <use x="628.511719" xlink:href="#DejaVuSans-45"/>
     <use x="664.595703" xlink:href="#DejaVuSans-62"/>
     <use x="748.384766" xlink:href="#DejaVuSans-84"/>
     <use x="809.46875" xlink:href="#DejaVuSans-104"/>
     <use x="872.847656" xlink:href="#DejaVuSans-114"/>
     <use x="911.710938" xlink:href="#DejaVuSans-111"/>
     <use x="972.892578" xlink:href="#DejaVuSans-117"/>
     <use x="1036.271484" xlink:href="#DejaVuSans-103"/>
     <use x="1099.748047" xlink:href="#DejaVuSans-104"/>
     <use x="1163.126953" xlink:href="#DejaVuSans-112"/>
     <use x="1226.603516" xlink:href="#DejaVuSans-117"/>
     <use x="1289.982422" xlink:href="#DejaVuSans-116"/>
     <use x="1329.191406" xlink:href="#DejaVuSans-95"/>
     <use x="1379.191406" xlink:href="#DejaVuSans-110"/>
     <use x="1442.570312" xlink:href="#DejaVuSans-105"/>
     <use x="1470.353516" xlink:href="#DejaVuSans-103"/>
     <use x="1533.830078" xlink:href="#DejaVuSans-104"/>
     <use x="1597.208984" xlink:href="#DejaVuSans-116"/>
    </g>
   </g>
  </g>
  <g id="legend_1">
   <g id="patch_7">
    <path d="M 303.057813 22.95625 
L 453.8 22.95625 
Q 455.8 22.95625 455.8 20.95625 
L 455.8 7 
Q 455.8 5 453.8 5 
L 303.057813 5 
Q 301.057813 5 301.057813 7 
L 301.057813 20.95625 
Q 301.057813 22.95625 303.057813 22.95625 
z
" style="fill:#ffffff;opacity:0.8;stroke:#cccccc;stroke-linejoin:miter;"/>
   </g>
   <g id="line2d_18">
    <path d="M 305.057813 13.098437 
L 325.057813 13.098437 
" style="fill:none;stroke:#0000ff;stroke-linecap:square;stroke-width:1.5;"/>
   </g>
   <g id="line2d_19"/>
   <g id="text_21">
    <!-- Throughput_night[Bit/s] -->
    <g transform="translate(333.057813 16.598437)scale(0.1 -0.1)">
     <use xlink:href="#DejaVuSans-84"/>
     <use x="61.083984" xlink:href="#DejaVuSans-104"/>
     <use x="124.462891" xlink:href="#DejaVuSans-114"/>
     <use x="163.326172" xlink:href="#DejaVuSans-111"/>
     <use x="224.507812" xlink:href="#DejaVuSans-117"/>
     <use x="287.886719" xlink:href="#DejaVuSans-103"/>
     <use x="351.363281" xlink:href="#DejaVuSans-104"/>
     <use x="414.742188" xlink:href="#DejaVuSans-112"/>
     <use x="478.21875" xlink:href="#DejaVuSans-117"/>
     <use x="541.597656" xlink:href="#DejaVuSans-116"/>
     <use x="580.806641" xlink:href="#DejaVuSans-95"/>
     <use x="630.806641" xlink:href="#DejaVuSans-110"/>
     <use x="694.185547" xlink:href="#DejaVuSans-105"/>
     <use x="721.96875" xlink:href="#DejaVuSans-103"/>
     <use x="785.445312" xlink:href="#DejaVuSans-104"/>
     <use x="848.824219" xlink:href="#DejaVuSans-116"/>
     <use x="888.033203" xlink:href="#DejaVuSans-91"/>
     <use x="927.046875" xlink:href="#DejaVuSans-66"/>
     <use x="995.650391" xlink:href="#DejaVuSans-105"/>
     <use x="1023.433594" xlink:href="#DejaVuSans-116"/>
     <use x="1062.642578" xlink:href="#DejaVuSans-47"/>
     <use x="1096.333984" xlink:href="#DejaVuSans-115"/>
     <use x="1148.433594" xlink:href="#DejaVuSans-93"/>
    </g>
   </g>
  </g>
 </g>
 <defs>
  <clipPath id="p4622f74a40">
   <rect height="266.112" width="357.12" x="57.6" y="41.472"/>
  </clipPath>
 </defs>
</svg>
