<?xml version="1.0" encoding="utf-8" standalone="no"?>
<!DOCTYPE svg PUBLIC "-//W3C//DTD SVG 1.1//EN"
  "http://www.w3.org/Graphics/SVG/1.1/DTD/svg11.dtd">
<!-- Created with matplotlib (https://matplotlib.org/) -->
<svg height="345.6pt" version="1.1" viewBox="0 0 460.8 345.6" width="460.8pt" xmlns="http://www.w3.org/2000/svg" xmlns:xlink="http://www.w3.org/1999/xlink">
 <metadata>
  <rdf:RDF xmlns:cc="http://creativecommons.org/ns#" xmlns:dc="http://purl.org/dc/elements/1.1/" xmlns:rdf="http://www.w3.org/1999/02/22-rdf-syntax-ns#">
   <cc:Work>
    <dc:type rdf:resource="http://purl.org/dc/dcmitype/StillImage"/>
    <dc:date>2022-07-16T18:02:15.061525</dc:date>
    <dc:format>image/svg+xml</dc:format>
    <dc:creator>
     <cc:Agent>
      <dc:title>Matplotlib v3.3.2, https://matplotlib.org/</dc:title>
     </cc:Agent>
    </dc:creator>
   </cc:Work>
  </rdf:RDF>
 </metadata>
 <defs>
  <style type="text/css">*{stroke-linecap:butt;stroke-linejoin:round;}</style>
 </defs>
 <g id="figure_1">
  <g id="patch_1">
   <path d="M 0 345.6 
L 460.8 345.6 
L 460.8 0 
L 0 0 
z
" style="fill:#ffffff;"/>
  </g>
  <g id="axes_1">
   <g id="patch_2">
    <path d="M 57.6 307.584 
L 414.72 307.584 
L 414.72 41.472 
L 57.6 41.472 
z
" style="fill:#ffffff;"/>
   </g>
   <g id="matplotlib.axis_1">
    <g id="xtick_1">
     <g id="line2d_1">
      <defs>
       <path d="M 0 0 
L 0 3.5 
" id="m9a81064c98" style="stroke:#000000;stroke-width:0.8;"/>
      </defs>
      <g>
       <use style="stroke:#000000;stroke-width:0.8;" x="83.609256" xlink:href="#m9a81064c98" y="307.584"/>
      </g>
     </g>
     <g id="text_1">
      <!-- 1007.5 -->
      <g transform="translate(66.113944 322.182437)scale(0.1 -0.1)">
       <defs>
        <path d="M 12.40625 8.296875 
L 28.515625 8.296875 
L 28.515625 63.921875 
L 10.984375 60.40625 
L 10.984375 69.390625 
L 28.421875 72.90625 
L 38.28125 72.90625 
L 38.28125 8.296875 
L 54.390625 8.296875 
L 54.390625 0 
L 12.40625 0 
z
" id="DejaVuSans-49"/>
        <path d="M 31.78125 66.40625 
Q 24.171875 66.40625 20.328125 58.90625 
Q 16.5 51.421875 16.5 36.375 
Q 16.5 21.390625 20.328125 13.890625 
Q 24.171875 6.390625 31.78125 6.390625 
Q 39.453125 6.390625 43.28125 13.890625 
Q 47.125 21.390625 47.125 36.375 
Q 47.125 51.421875 43.28125 58.90625 
Q 39.453125 66.40625 31.78125 66.40625 
z
M 31.78125 74.21875 
Q 44.046875 74.21875 50.515625 64.515625 
Q 56.984375 54.828125 56.984375 36.375 
Q 56.984375 17.96875 50.515625 8.265625 
Q 44.046875 -1.421875 31.78125 -1.421875 
Q 19.53125 -1.421875 13.0625 8.265625 
Q 6.59375 17.96875 6.59375 36.375 
Q 6.59375 54.828125 13.0625 64.515625 
Q 19.53125 74.21875 31.78125 74.21875 
z
" id="DejaVuSans-48"/>
        <path d="M 8.203125 72.90625 
L 55.078125 72.90625 
L 55.078125 68.703125 
L 28.609375 0 
L 18.3125 0 
L 43.21875 64.59375 
L 8.203125 64.59375 
z
" id="DejaVuSans-55"/>
        <path d="M 10.6875 12.40625 
L 21 12.40625 
L 21 0 
L 10.6875 0 
z
" id="DejaVuSans-46"/>
        <path d="M 10.796875 72.90625 
L 49.515625 72.90625 
L 49.515625 64.59375 
L 19.828125 64.59375 
L 19.828125 46.734375 
Q 21.96875 47.46875 24.109375 47.828125 
Q 26.265625 48.1875 28.421875 48.1875 
Q 40.625 48.1875 47.75 41.5 
Q 54.890625 34.8125 54.890625 23.390625 
Q 54.890625 11.625 47.5625 5.09375 
Q 40.234375 -1.421875 26.90625 -1.421875 
Q 22.3125 -1.421875 17.546875 -0.640625 
Q 12.796875 0.140625 7.71875 1.703125 
L 7.71875 11.625 
Q 12.109375 9.234375 16.796875 8.0625 
Q 21.484375 6.890625 26.703125 6.890625 
Q 35.15625 6.890625 40.078125 11.328125 
Q 45.015625 15.765625 45.015625 23.390625 
Q 45.015625 31 40.078125 35.4375 
Q 35.15625 39.890625 26.703125 39.890625 
Q 22.75 39.890625 18.8125 39.015625 
Q 14.890625 38.140625 10.796875 36.28125 
z
" id="DejaVuSans-53"/>
       </defs>
       <use xlink:href="#DejaVuSans-49"/>
       <use x="63.623047" xlink:href="#DejaVuSans-48"/>
       <use x="127.246094" xlink:href="#DejaVuSans-48"/>
       <use x="190.869141" xlink:href="#DejaVuSans-55"/>
       <use x="254.492188" xlink:href="#DejaVuSans-46"/>
       <use x="286.279297" xlink:href="#DejaVuSans-53"/>
      </g>
     </g>
    </g>
    <g id="xtick_2">
     <g id="line2d_2">
      <g>
       <use style="stroke:#000000;stroke-width:0.8;" x="129.724959" xlink:href="#m9a81064c98" y="307.584"/>
      </g>
     </g>
     <g id="text_2">
      <!-- 1010.0 -->
      <g transform="translate(112.229646 322.182437)scale(0.1 -0.1)">
       <use xlink:href="#DejaVuSans-49"/>
       <use x="63.623047" xlink:href="#DejaVuSans-48"/>
       <use x="127.246094" xlink:href="#DejaVuSans-49"/>
       <use x="190.869141" xlink:href="#DejaVuSans-48"/>
       <use x="254.492188" xlink:href="#DejaVuSans-46"/>
       <use x="286.279297" xlink:href="#DejaVuSans-48"/>
      </g>
     </g>
    </g>
    <g id="xtick_3">
     <g id="line2d_3">
      <g>
       <use style="stroke:#000000;stroke-width:0.8;" x="175.840661" xlink:href="#m9a81064c98" y="307.584"/>
      </g>
     </g>
     <g id="text_3">
      <!-- 1012.5 -->
      <g transform="translate(158.345349 322.182437)scale(0.1 -0.1)">
       <defs>
        <path d="M 19.1875 8.296875 
L 53.609375 8.296875 
L 53.609375 0 
L 7.328125 0 
L 7.328125 8.296875 
Q 12.9375 14.109375 22.625 23.890625 
Q 32.328125 33.6875 34.8125 36.53125 
Q 39.546875 41.84375 41.421875 45.53125 
Q 43.3125 49.21875 43.3125 52.78125 
Q 43.3125 58.59375 39.234375 62.25 
Q 35.15625 65.921875 28.609375 65.921875 
Q 23.96875 65.921875 18.8125 64.3125 
Q 13.671875 62.703125 7.8125 59.421875 
L 7.8125 69.390625 
Q 13.765625 71.78125 18.9375 73 
Q 24.125 74.21875 28.421875 74.21875 
Q 39.75 74.21875 46.484375 68.546875 
Q 53.21875 62.890625 53.21875 53.421875 
Q 53.21875 48.921875 51.53125 44.890625 
Q 49.859375 40.875 45.40625 35.40625 
Q 44.1875 33.984375 37.640625 27.21875 
Q 31.109375 20.453125 19.1875 8.296875 
z
" id="DejaVuSans-50"/>
       </defs>
       <use xlink:href="#DejaVuSans-49"/>
       <use x="63.623047" xlink:href="#DejaVuSans-48"/>
       <use x="127.246094" xlink:href="#DejaVuSans-49"/>
       <use x="190.869141" xlink:href="#DejaVuSans-50"/>
       <use x="254.492188" xlink:href="#DejaVuSans-46"/>
       <use x="286.279297" xlink:href="#DejaVuSans-53"/>
      </g>
     </g>
    </g>
    <g id="xtick_4">
     <g id="line2d_4">
      <g>
       <use style="stroke:#000000;stroke-width:0.8;" x="221.956364" xlink:href="#m9a81064c98" y="307.584"/>
      </g>
     </g>
     <g id="text_4">
      <!-- 1015.0 -->
      <g transform="translate(204.461051 322.182437)scale(0.1 -0.1)">
       <use xlink:href="#DejaVuSans-49"/>
       <use x="63.623047" xlink:href="#DejaVuSans-48"/>
       <use x="127.246094" xlink:href="#DejaVuSans-49"/>
       <use x="190.869141" xlink:href="#DejaVuSans-53"/>
       <use x="254.492188" xlink:href="#DejaVuSans-46"/>
       <use x="286.279297" xlink:href="#DejaVuSans-48"/>
      </g>
     </g>
    </g>
    <g id="xtick_5">
     <g id="line2d_5">
      <g>
       <use style="stroke:#000000;stroke-width:0.8;" x="268.072066" xlink:href="#m9a81064c98" y="307.584"/>
      </g>
     </g>
     <g id="text_5">
      <!-- 1017.5 -->
      <g transform="translate(250.576754 322.182437)scale(0.1 -0.1)">
       <use xlink:href="#DejaVuSans-49"/>
       <use x="63.623047" xlink:href="#DejaVuSans-48"/>
       <use x="127.246094" xlink:href="#DejaVuSans-49"/>
       <use x="190.869141" xlink:href="#DejaVuSans-55"/>
       <use x="254.492188" xlink:href="#DejaVuSans-46"/>
       <use x="286.279297" xlink:href="#DejaVuSans-53"/>
      </g>
     </g>
    </g>
    <g id="xtick_6">
     <g id="line2d_6">
      <g>
       <use style="stroke:#000000;stroke-width:0.8;" x="314.187769" xlink:href="#m9a81064c98" y="307.584"/>
      </g>
     </g>
     <g id="text_6">
      <!-- 1020.0 -->
      <g transform="translate(296.692456 322.182437)scale(0.1 -0.1)">
       <use xlink:href="#DejaVuSans-49"/>
       <use x="63.623047" xlink:href="#DejaVuSans-48"/>
       <use x="127.246094" xlink:href="#DejaVuSans-50"/>
       <use x="190.869141" xlink:href="#DejaVuSans-48"/>
       <use x="254.492188" xlink:href="#DejaVuSans-46"/>
       <use x="286.279297" xlink:href="#DejaVuSans-48"/>
      </g>
     </g>
    </g>
    <g id="xtick_7">
     <g id="line2d_7">
      <g>
       <use style="stroke:#000000;stroke-width:0.8;" x="360.303471" xlink:href="#m9a81064c98" y="307.584"/>
      </g>
     </g>
     <g id="text_7">
      <!-- 1022.5 -->
      <g transform="translate(342.808159 322.182437)scale(0.1 -0.1)">
       <use xlink:href="#DejaVuSans-49"/>
       <use x="63.623047" xlink:href="#DejaVuSans-48"/>
       <use x="127.246094" xlink:href="#DejaVuSans-50"/>
       <use x="190.869141" xlink:href="#DejaVuSans-50"/>
       <use x="254.492188" xlink:href="#DejaVuSans-46"/>
       <use x="286.279297" xlink:href="#DejaVuSans-53"/>
      </g>
     </g>
    </g>
    <g id="xtick_8">
     <g id="line2d_8">
      <g>
       <use style="stroke:#000000;stroke-width:0.8;" x="406.419174" xlink:href="#m9a81064c98" y="307.584"/>
      </g>
     </g>
     <g id="text_8">
      <!-- 1025.0 -->
      <g transform="translate(388.923861 322.182437)scale(0.1 -0.1)">
       <use xlink:href="#DejaVuSans-49"/>
       <use x="63.623047" xlink:href="#DejaVuSans-48"/>
       <use x="127.246094" xlink:href="#DejaVuSans-50"/>
       <use x="190.869141" xlink:href="#DejaVuSans-53"/>
       <use x="254.492188" xlink:href="#DejaVuSans-46"/>
       <use x="286.279297" xlink:href="#DejaVuSans-48"/>
      </g>
     </g>
    </g>
    <g id="text_9">
     <!-- air_pressure from Foreca -->
     <g transform="translate(174.162344 335.860562)scale(0.1 -0.1)">
      <defs>
       <path d="M 34.28125 27.484375 
Q 23.390625 27.484375 19.1875 25 
Q 14.984375 22.515625 14.984375 16.5 
Q 14.984375 11.71875 18.140625 8.90625 
Q 21.296875 6.109375 26.703125 6.109375 
Q 34.1875 6.109375 38.703125 11.40625 
Q 43.21875 16.703125 43.21875 25.484375 
L 43.21875 27.484375 
z
M 52.203125 31.203125 
L 52.203125 0 
L 43.21875 0 
L 43.21875 8.296875 
Q 40.140625 3.328125 35.546875 0.953125 
Q 30.953125 -1.421875 24.3125 -1.421875 
Q 15.921875 -1.421875 10.953125 3.296875 
Q 6 8.015625 6 15.921875 
Q 6 25.140625 12.171875 29.828125 
Q 18.359375 34.515625 30.609375 34.515625 
L 43.21875 34.515625 
L 43.21875 35.40625 
Q 43.21875 41.609375 39.140625 45 
Q 35.0625 48.390625 27.6875 48.390625 
Q 23 48.390625 18.546875 47.265625 
Q 14.109375 46.140625 10.015625 43.890625 
L 10.015625 52.203125 
Q 14.9375 54.109375 19.578125 55.046875 
Q 24.21875 56 28.609375 56 
Q 40.484375 56 46.34375 49.84375 
Q 52.203125 43.703125 52.203125 31.203125 
z
" id="DejaVuSans-97"/>
       <path d="M 9.421875 54.6875 
L 18.40625 54.6875 
L 18.40625 0 
L 9.421875 0 
z
M 9.421875 75.984375 
L 18.40625 75.984375 
L 18.40625 64.59375 
L 9.421875 64.59375 
z
" id="DejaVuSans-105"/>
       <path d="M 41.109375 46.296875 
Q 39.59375 47.171875 37.8125 47.578125 
Q 36.03125 48 33.890625 48 
Q 26.265625 48 22.1875 43.046875 
Q 18.109375 38.09375 18.109375 28.8125 
L 18.109375 0 
L 9.078125 0 
L 9.078125 54.6875 
L 18.109375 54.6875 
L 18.109375 46.1875 
Q 20.953125 51.171875 25.484375 53.578125 
Q 30.03125 56 36.53125 56 
Q 37.453125 56 38.578125 55.875 
Q 39.703125 55.765625 41.0625 55.515625 
z
" id="DejaVuSans-114"/>
       <path d="M 50.984375 -16.609375 
L 50.984375 -23.578125 
L -0.984375 -23.578125 
L -0.984375 -16.609375 
z
" id="DejaVuSans-95"/>
       <path d="M 18.109375 8.203125 
L 18.109375 -20.796875 
L 9.078125 -20.796875 
L 9.078125 54.6875 
L 18.109375 54.6875 
L 18.109375 46.390625 
Q 20.953125 51.265625 25.265625 53.625 
Q 29.59375 56 35.59375 56 
Q 45.5625 56 51.78125 48.09375 
Q 58.015625 40.1875 58.015625 27.296875 
Q 58.015625 14.40625 51.78125 6.484375 
Q 45.5625 -1.421875 35.59375 -1.421875 
Q 29.59375 -1.421875 25.265625 0.953125 
Q 20.953125 3.328125 18.109375 8.203125 
z
M 48.6875 27.296875 
Q 48.6875 37.203125 44.609375 42.84375 
Q 40.53125 48.484375 33.40625 48.484375 
Q 26.265625 48.484375 22.1875 42.84375 
Q 18.109375 37.203125 18.109375 27.296875 
Q 18.109375 17.390625 22.1875 11.75 
Q 26.265625 6.109375 33.40625 6.109375 
Q 40.53125 6.109375 44.609375 11.75 
Q 48.6875 17.390625 48.6875 27.296875 
z
" id="DejaVuSans-112"/>
       <path d="M 56.203125 29.59375 
L 56.203125 25.203125 
L 14.890625 25.203125 
Q 15.484375 15.921875 20.484375 11.0625 
Q 25.484375 6.203125 34.421875 6.203125 
Q 39.59375 6.203125 44.453125 7.46875 
Q 49.3125 8.734375 54.109375 11.28125 
L 54.109375 2.78125 
Q 49.265625 0.734375 44.1875 -0.34375 
Q 39.109375 -1.421875 33.890625 -1.421875 
Q 20.796875 -1.421875 13.15625 6.1875 
Q 5.515625 13.8125 5.515625 26.8125 
Q 5.515625 40.234375 12.765625 48.109375 
Q 20.015625 56 32.328125 56 
Q 43.359375 56 49.78125 48.890625 
Q 56.203125 41.796875 56.203125 29.59375 
z
M 47.21875 32.234375 
Q 47.125 39.59375 43.09375 43.984375 
Q 39.0625 48.390625 32.421875 48.390625 
Q 24.90625 48.390625 20.390625 44.140625 
Q 15.875 39.890625 15.1875 32.171875 
z
" id="DejaVuSans-101"/>
       <path d="M 44.28125 53.078125 
L 44.28125 44.578125 
Q 40.484375 46.53125 36.375 47.5 
Q 32.28125 48.484375 27.875 48.484375 
Q 21.1875 48.484375 17.84375 46.4375 
Q 14.5 44.390625 14.5 40.28125 
Q 14.5 37.15625 16.890625 35.375 
Q 19.28125 33.59375 26.515625 31.984375 
L 29.59375 31.296875 
Q 39.15625 29.25 43.1875 25.515625 
Q 47.21875 21.78125 47.21875 15.09375 
Q 47.21875 7.46875 41.1875 3.015625 
Q 35.15625 -1.421875 24.609375 -1.421875 
Q 20.21875 -1.421875 15.453125 -0.5625 
Q 10.6875 0.296875 5.421875 2 
L 5.421875 11.28125 
Q 10.40625 8.6875 15.234375 7.390625 
Q 20.0625 6.109375 24.8125 6.109375 
Q 31.15625 6.109375 34.5625 8.28125 
Q 37.984375 10.453125 37.984375 14.40625 
Q 37.984375 18.0625 35.515625 20.015625 
Q 33.0625 21.96875 24.703125 23.78125 
L 21.578125 24.515625 
Q 13.234375 26.265625 9.515625 29.90625 
Q 5.8125 33.546875 5.8125 39.890625 
Q 5.8125 47.609375 11.28125 51.796875 
Q 16.75 56 26.8125 56 
Q 31.78125 56 36.171875 55.265625 
Q 40.578125 54.546875 44.28125 53.078125 
z
" id="DejaVuSans-115"/>
       <path d="M 8.5 21.578125 
L 8.5 54.6875 
L 17.484375 54.6875 
L 17.484375 21.921875 
Q 17.484375 14.15625 20.5 10.265625 
Q 23.53125 6.390625 29.59375 6.390625 
Q 36.859375 6.390625 41.078125 11.03125 
Q 45.3125 15.671875 45.3125 23.6875 
L 45.3125 54.6875 
L 54.296875 54.6875 
L 54.296875 0 
L 45.3125 0 
L 45.3125 8.40625 
Q 42.046875 3.421875 37.71875 1 
Q 33.40625 -1.421875 27.6875 -1.421875 
Q 18.265625 -1.421875 13.375 4.4375 
Q 8.5 10.296875 8.5 21.578125 
z
M 31.109375 56 
z
" id="DejaVuSans-117"/>
       <path id="DejaVuSans-32"/>
       <path d="M 37.109375 75.984375 
L 37.109375 68.5 
L 28.515625 68.5 
Q 23.6875 68.5 21.796875 66.546875 
Q 19.921875 64.59375 19.921875 59.515625 
L 19.921875 54.6875 
L 34.71875 54.6875 
L 34.71875 47.703125 
L 19.921875 47.703125 
L 19.921875 0 
L 10.890625 0 
L 10.890625 47.703125 
L 2.296875 47.703125 
L 2.296875 54.6875 
L 10.890625 54.6875 
L 10.890625 58.5 
Q 10.890625 67.625 15.140625 71.796875 
Q 19.390625 75.984375 28.609375 75.984375 
z
" id="DejaVuSans-102"/>
       <path d="M 30.609375 48.390625 
Q 23.390625 48.390625 19.1875 42.75 
Q 14.984375 37.109375 14.984375 27.296875 
Q 14.984375 17.484375 19.15625 11.84375 
Q 23.34375 6.203125 30.609375 6.203125 
Q 37.796875 6.203125 41.984375 11.859375 
Q 46.1875 17.53125 46.1875 27.296875 
Q 46.1875 37.015625 41.984375 42.703125 
Q 37.796875 48.390625 30.609375 48.390625 
z
M 30.609375 56 
Q 42.328125 56 49.015625 48.375 
Q 55.71875 40.765625 55.71875 27.296875 
Q 55.71875 13.875 49.015625 6.21875 
Q 42.328125 -1.421875 30.609375 -1.421875 
Q 18.84375 -1.421875 12.171875 6.21875 
Q 5.515625 13.875 5.515625 27.296875 
Q 5.515625 40.765625 12.171875 48.375 
Q 18.84375 56 30.609375 56 
z
" id="DejaVuSans-111"/>
       <path d="M 52 44.1875 
Q 55.375 50.25 60.0625 53.125 
Q 64.75 56 71.09375 56 
Q 79.640625 56 84.28125 50.015625 
Q 88.921875 44.046875 88.921875 33.015625 
L 88.921875 0 
L 79.890625 0 
L 79.890625 32.71875 
Q 79.890625 40.578125 77.09375 44.375 
Q 74.3125 48.1875 68.609375 48.1875 
Q 61.625 48.1875 57.5625 43.546875 
Q 53.515625 38.921875 53.515625 30.90625 
L 53.515625 0 
L 44.484375 0 
L 44.484375 32.71875 
Q 44.484375 40.625 41.703125 44.40625 
Q 38.921875 48.1875 33.109375 48.1875 
Q 26.21875 48.1875 22.15625 43.53125 
Q 18.109375 38.875 18.109375 30.90625 
L 18.109375 0 
L 9.078125 0 
L 9.078125 54.6875 
L 18.109375 54.6875 
L 18.109375 46.1875 
Q 21.1875 51.21875 25.484375 53.609375 
Q 29.78125 56 35.6875 56 
Q 41.65625 56 45.828125 52.96875 
Q 50 49.953125 52 44.1875 
z
" id="DejaVuSans-109"/>
       <path d="M 9.8125 72.90625 
L 51.703125 72.90625 
L 51.703125 64.59375 
L 19.671875 64.59375 
L 19.671875 43.109375 
L 48.578125 43.109375 
L 48.578125 34.8125 
L 19.671875 34.8125 
L 19.671875 0 
L 9.8125 0 
z
" id="DejaVuSans-70"/>
       <path d="M 48.78125 52.59375 
L 48.78125 44.1875 
Q 44.96875 46.296875 41.140625 47.34375 
Q 37.3125 48.390625 33.40625 48.390625 
Q 24.65625 48.390625 19.8125 42.84375 
Q 14.984375 37.3125 14.984375 27.296875 
Q 14.984375 17.28125 19.8125 11.734375 
Q 24.65625 6.203125 33.40625 6.203125 
Q 37.3125 6.203125 41.140625 7.25 
Q 44.96875 8.296875 48.78125 10.40625 
L 48.78125 2.09375 
Q 45.015625 0.34375 40.984375 -0.53125 
Q 36.96875 -1.421875 32.421875 -1.421875 
Q 20.0625 -1.421875 12.78125 6.34375 
Q 5.515625 14.109375 5.515625 27.296875 
Q 5.515625 40.671875 12.859375 48.328125 
Q 20.21875 56 33.015625 56 
Q 37.15625 56 41.109375 55.140625 
Q 45.0625 54.296875 48.78125 52.59375 
z
" id="DejaVuSans-99"/>
      </defs>
      <use xlink:href="#DejaVuSans-97"/>
      <use x="61.279297" xlink:href="#DejaVuSans-105"/>
      <use x="89.0625" xlink:href="#DejaVuSans-114"/>
      <use x="130.175781" xlink:href="#DejaVuSans-95"/>
      <use x="180.175781" xlink:href="#DejaVuSans-112"/>
      <use x="243.652344" xlink:href="#DejaVuSans-114"/>
      <use x="282.515625" xlink:href="#DejaVuSans-101"/>
      <use x="344.039062" xlink:href="#DejaVuSans-115"/>
      <use x="396.138672" xlink:href="#DejaVuSans-115"/>
      <use x="448.238281" xlink:href="#DejaVuSans-117"/>
      <use x="511.617188" xlink:href="#DejaVuSans-114"/>
      <use x="550.480469" xlink:href="#DejaVuSans-101"/>
      <use x="612.003906" xlink:href="#DejaVuSans-32"/>
      <use x="643.791016" xlink:href="#DejaVuSans-102"/>
      <use x="678.996094" xlink:href="#DejaVuSans-114"/>
      <use x="717.859375" xlink:href="#DejaVuSans-111"/>
      <use x="779.041016" xlink:href="#DejaVuSans-109"/>
      <use x="876.453125" xlink:href="#DejaVuSans-32"/>
      <use x="908.240234" xlink:href="#DejaVuSans-70"/>
      <use x="962.134766" xlink:href="#DejaVuSans-111"/>
      <use x="1023.316406" xlink:href="#DejaVuSans-114"/>
      <use x="1062.179688" xlink:href="#DejaVuSans-101"/>
      <use x="1123.703125" xlink:href="#DejaVuSans-99"/>
      <use x="1178.683594" xlink:href="#DejaVuSans-97"/>
     </g>
    </g>
   </g>
   <g id="matplotlib.axis_2">
    <g id="ytick_1">
     <g id="line2d_9">
      <defs>
       <path d="M 0 0 
L -3.5 0 
" id="m780dacd9bc" style="stroke:#000000;stroke-width:0.8;"/>
      </defs>
      <g>
       <use style="stroke:#000000;stroke-width:0.8;" x="57.6" xlink:href="#m780dacd9bc" y="296.43476"/>
      </g>
     </g>
     <g id="text_10">
      <!-- 0.0 -->
      <g transform="translate(34.696875 300.233979)scale(0.1 -0.1)">
       <use xlink:href="#DejaVuSans-48"/>
       <use x="63.623047" xlink:href="#DejaVuSans-46"/>
       <use x="95.410156" xlink:href="#DejaVuSans-48"/>
      </g>
     </g>
    </g>
    <g id="ytick_2">
     <g id="line2d_10">
      <g>
       <use style="stroke:#000000;stroke-width:0.8;" x="57.6" xlink:href="#m780dacd9bc" y="263.738771"/>
      </g>
     </g>
     <g id="text_11">
      <!-- 0.2 -->
      <g transform="translate(34.696875 267.537989)scale(0.1 -0.1)">
       <use xlink:href="#DejaVuSans-48"/>
       <use x="63.623047" xlink:href="#DejaVuSans-46"/>
       <use x="95.410156" xlink:href="#DejaVuSans-50"/>
      </g>
     </g>
    </g>
    <g id="ytick_3">
     <g id="line2d_11">
      <g>
       <use style="stroke:#000000;stroke-width:0.8;" x="57.6" xlink:href="#m780dacd9bc" y="231.042781"/>
      </g>
     </g>
     <g id="text_12">
      <!-- 0.4 -->
      <g transform="translate(34.696875 234.842)scale(0.1 -0.1)">
       <defs>
        <path d="M 37.796875 64.3125 
L 12.890625 25.390625 
L 37.796875 25.390625 
z
M 35.203125 72.90625 
L 47.609375 72.90625 
L 47.609375 25.390625 
L 58.015625 25.390625 
L 58.015625 17.1875 
L 47.609375 17.1875 
L 47.609375 0 
L 37.796875 0 
L 37.796875 17.1875 
L 4.890625 17.1875 
L 4.890625 26.703125 
z
" id="DejaVuSans-52"/>
       </defs>
       <use xlink:href="#DejaVuSans-48"/>
       <use x="63.623047" xlink:href="#DejaVuSans-46"/>
       <use x="95.410156" xlink:href="#DejaVuSans-52"/>
      </g>
     </g>
    </g>
    <g id="ytick_4">
     <g id="line2d_12">
      <g>
       <use style="stroke:#000000;stroke-width:0.8;" x="57.6" xlink:href="#m780dacd9bc" y="198.346791"/>
      </g>
     </g>
     <g id="text_13">
      <!-- 0.6 -->
      <g transform="translate(34.696875 202.14601)scale(0.1 -0.1)">
       <defs>
        <path d="M 33.015625 40.375 
Q 26.375 40.375 22.484375 35.828125 
Q 18.609375 31.296875 18.609375 23.390625 
Q 18.609375 15.53125 22.484375 10.953125 
Q 26.375 6.390625 33.015625 6.390625 
Q 39.65625 6.390625 43.53125 10.953125 
Q 47.40625 15.53125 47.40625 23.390625 
Q 47.40625 31.296875 43.53125 35.828125 
Q 39.65625 40.375 33.015625 40.375 
z
M 52.59375 71.296875 
L 52.59375 62.3125 
Q 48.875 64.0625 45.09375 64.984375 
Q 41.3125 65.921875 37.59375 65.921875 
Q 27.828125 65.921875 22.671875 59.328125 
Q 17.53125 52.734375 16.796875 39.40625 
Q 19.671875 43.65625 24.015625 45.921875 
Q 28.375 48.1875 33.59375 48.1875 
Q 44.578125 48.1875 50.953125 41.515625 
Q 57.328125 34.859375 57.328125 23.390625 
Q 57.328125 12.15625 50.6875 5.359375 
Q 44.046875 -1.421875 33.015625 -1.421875 
Q 20.359375 -1.421875 13.671875 8.265625 
Q 6.984375 17.96875 6.984375 36.375 
Q 6.984375 53.65625 15.1875 63.9375 
Q 23.390625 74.21875 37.203125 74.21875 
Q 40.921875 74.21875 44.703125 73.484375 
Q 48.484375 72.75 52.59375 71.296875 
z
" id="DejaVuSans-54"/>
       </defs>
       <use xlink:href="#DejaVuSans-48"/>
       <use x="63.623047" xlink:href="#DejaVuSans-46"/>
       <use x="95.410156" xlink:href="#DejaVuSans-54"/>
      </g>
     </g>
    </g>
    <g id="ytick_5">
     <g id="line2d_13">
      <g>
       <use style="stroke:#000000;stroke-width:0.8;" x="57.6" xlink:href="#m780dacd9bc" y="165.650802"/>
      </g>
     </g>
     <g id="text_14">
      <!-- 0.8 -->
      <g transform="translate(34.696875 169.450021)scale(0.1 -0.1)">
       <defs>
        <path d="M 31.78125 34.625 
Q 24.75 34.625 20.71875 30.859375 
Q 16.703125 27.09375 16.703125 20.515625 
Q 16.703125 13.921875 20.71875 10.15625 
Q 24.75 6.390625 31.78125 6.390625 
Q 38.8125 6.390625 42.859375 10.171875 
Q 46.921875 13.96875 46.921875 20.515625 
Q 46.921875 27.09375 42.890625 30.859375 
Q 38.875 34.625 31.78125 34.625 
z
M 21.921875 38.8125 
Q 15.578125 40.375 12.03125 44.71875 
Q 8.5 49.078125 8.5 55.328125 
Q 8.5 64.0625 14.71875 69.140625 
Q 20.953125 74.21875 31.78125 74.21875 
Q 42.671875 74.21875 48.875 69.140625 
Q 55.078125 64.0625 55.078125 55.328125 
Q 55.078125 49.078125 51.53125 44.71875 
Q 48 40.375 41.703125 38.8125 
Q 48.828125 37.15625 52.796875 32.3125 
Q 56.78125 27.484375 56.78125 20.515625 
Q 56.78125 9.90625 50.3125 4.234375 
Q 43.84375 -1.421875 31.78125 -1.421875 
Q 19.734375 -1.421875 13.25 4.234375 
Q 6.78125 9.90625 6.78125 20.515625 
Q 6.78125 27.484375 10.78125 32.3125 
Q 14.796875 37.15625 21.921875 38.8125 
z
M 18.3125 54.390625 
Q 18.3125 48.734375 21.84375 45.5625 
Q 25.390625 42.390625 31.78125 42.390625 
Q 38.140625 42.390625 41.71875 45.5625 
Q 45.3125 48.734375 45.3125 54.390625 
Q 45.3125 60.0625 41.71875 63.234375 
Q 38.140625 66.40625 31.78125 66.40625 
Q 25.390625 66.40625 21.84375 63.234375 
Q 18.3125 60.0625 18.3125 54.390625 
z
" id="DejaVuSans-56"/>
       </defs>
       <use xlink:href="#DejaVuSans-48"/>
       <use x="63.623047" xlink:href="#DejaVuSans-46"/>
       <use x="95.410156" xlink:href="#DejaVuSans-56"/>
      </g>
     </g>
    </g>
    <g id="ytick_6">
     <g id="line2d_14">
      <g>
       <use style="stroke:#000000;stroke-width:0.8;" x="57.6" xlink:href="#m780dacd9bc" y="132.954812"/>
      </g>
     </g>
     <g id="text_15">
      <!-- 1.0 -->
      <g transform="translate(34.696875 136.754031)scale(0.1 -0.1)">
       <use xlink:href="#DejaVuSans-49"/>
       <use x="63.623047" xlink:href="#DejaVuSans-46"/>
       <use x="95.410156" xlink:href="#DejaVuSans-48"/>
      </g>
     </g>
    </g>
    <g id="ytick_7">
     <g id="line2d_15">
      <g>
       <use style="stroke:#000000;stroke-width:0.8;" x="57.6" xlink:href="#m780dacd9bc" y="100.258823"/>
      </g>
     </g>
     <g id="text_16">
      <!-- 1.2 -->
      <g transform="translate(34.696875 104.058041)scale(0.1 -0.1)">
       <use xlink:href="#DejaVuSans-49"/>
       <use x="63.623047" xlink:href="#DejaVuSans-46"/>
       <use x="95.410156" xlink:href="#DejaVuSans-50"/>
      </g>
     </g>
    </g>
    <g id="ytick_8">
     <g id="line2d_16">
      <g>
       <use style="stroke:#000000;stroke-width:0.8;" x="57.6" xlink:href="#m780dacd9bc" y="67.562833"/>
      </g>
     </g>
     <g id="text_17">
      <!-- 1.4 -->
      <g transform="translate(34.696875 71.362052)scale(0.1 -0.1)">
       <use xlink:href="#DejaVuSans-49"/>
       <use x="63.623047" xlink:href="#DejaVuSans-46"/>
       <use x="95.410156" xlink:href="#DejaVuSans-52"/>
      </g>
     </g>
    </g>
    <g id="text_18">
     <!-- 1e7 -->
     <g transform="translate(57.6 38.472)scale(0.1 -0.1)">
      <use xlink:href="#DejaVuSans-49"/>
      <use x="63.623047" xlink:href="#DejaVuSans-101"/>
      <use x="125.146484" xlink:href="#DejaVuSans-55"/>
     </g>
    </g>
   </g>
   <g id="line2d_17">
    <path clip-path="url(#pf1e320ee68)" d="M 73.832727 73.456132 
L 74.01719 67.206637 
L 74.201653 83.30852 
L 74.386116 67.584683 
L 74.570579 99.870959 
L 74.755041 74.871348 
L 74.939504 96.942261 
L 75.123967 95.141272 
L 75.30843 88.230188 
L 75.492893 106.407208 
L 75.861818 78.191049 
L 76.230744 90.684109 
L 76.599669 119.853855 
L 76.968595 116.537414 
L 77.337521 84.344303 
L 77.890909 94.66403 
L 78.259835 86.429749 
L 78.62876 160.184856 
L 78.997686 128.938668 
L 79.182149 75.913018 
L 79.366612 72.695401 
L 79.735537 73.548787 
L 80.288926 72.506815 
L 80.657851 76.009555 
L 81.026777 74.872168 
L 81.395702 72.222987 
L 81.764628 76.102455 
L 82.133554 76.48731 
L 82.318017 83.300976 
L 82.502479 73.645386 
L 83.055868 76.586345 
L 83.424793 71.463086 
L 83.793719 79.140723 
L 83.978182 95.038837 
L 84.162645 90.212993 
L 84.347107 77.623478 
L 84.716033 86.051441 
L 84.900496 76.009092 
L 85.084959 87.276994 
L 85.269421 75.347007 
L 85.453884 79.607561 
L 85.82281 74.777129 
L 86.191736 77.723321 
L 86.560661 73.170765 
L 86.745124 77.058344 
L 87.11405 78.376468 
L 87.482975 80.745067 
L 87.851901 78.761213 
L 88.036364 79.228085 
L 88.220826 72.128595 
L 88.589752 76.959339 
L 88.958678 70.61092 
L 89.512066 70.707117 
L 89.880992 75.535448 
L 90.43438 78.851457 
L 90.803306 76.391175 
L 91.356694 75.254513 
L 91.72562 80.083579 
L 92.279008 76.103953 
L 92.463471 77.714836 
L 92.647934 76.38816 
L 93.385785 76.490411 
L 94.123636 73.457469 
L 94.308099 69.379787 
L 95.414876 79.332626 
L 95.968264 79.621046 
L 96.706116 76.864349 
L 97.443967 72.036828 
L 97.997355 73.934308 
L 98.735207 76.96408 
L 99.288595 70.993898 
L 100.026446 77.997643 
L 100.579835 75.913636 
L 101.317686 71.843218 
L 102.055537 74.213663 
L 102.608926 72.225723 
L 103.900165 74.872301 
L 104.638017 78.849651 
L 105.375868 79.610336 
L 105.929256 79.610748 
L 106.667107 89.457695 
L 107.220496 76.481613 
L 107.404959 111.909544 
L 107.958347 75.730798 
L 108.696198 79.419733 
L 109.249587 115.981443 
L 109.802975 97.32409 
L 110.356364 118.155472 
L 111.094215 99.116151 
L 111.46314 109.91275 
L 112.016529 138.313512 
L 112.569917 70.328357 
L 113.123306 172.025847 
L 113.676694 118.341623 
L 114.230083 75.440543 
L 114.967934 100.353064 
L 115.521322 104.232915 
L 116.074711 68.34929 
L 116.628099 137.690826 
L 117.181488 74.405627 
L 117.734876 71.56337 
L 118.288264 59.915369 
L 119.395041 87.562384 
L 119.94843 77.618948 
L 120.686281 73.839716 
L 121.239669 69.291349 
L 121.793058 76.765426 
L 122.530909 81.595438 
L 123.26876 70.994733 
L 123.822149 72.323834 
L 124.56 69.570768 
L 125.113388 97.503045 
L 125.297851 67.872116 
L 125.482314 82.545557 
L 125.85124 78.204251 
L 126.220165 85.289953 
L 126.589091 69.483573 
L 126.958017 117.29459 
L 127.142479 64.931993 
L 127.511405 93.627337 
L 127.880331 62.470135 
L 128.064793 94.944998 
L 128.618182 75.824422 
L 129.17157 65.971238 
L 129.724959 93.912353 
L 129.909421 78.098222 
L 130.278347 93.06358 
L 130.647273 69.670147 
L 130.831736 75.913239 
L 131.385124 86.620771 
L 131.75405 110.762783 
L 131.938512 72.322624 
L 132.307438 98.922382 
L 132.676364 68.253149 
L 132.860826 107.636795 
L 133.229752 75.448984 
L 133.414215 90.787102 
L 133.967603 70.524752 
L 134.520992 95.23195 
L 134.705455 67.870151 
L 135.07438 75.821598 
L 135.258843 74.312188 
L 135.443306 74.40516 
L 135.627769 72.527168 
L 135.812231 69.476288 
L 135.996694 71.663357 
L 136.181157 81.4994 
L 136.734545 69.570065 
L 137.103471 79.423769 
L 137.287934 75.068267 
L 137.841322 74.498733 
L 138.025785 69.663934 
L 138.210248 99.113389 
L 138.763636 70.519759 
L 139.132562 94.946126 
L 139.317025 68.906999 
L 139.501488 70.991013 
L 139.870413 67.487481 
L 140.054876 64.556016 
L 140.239339 66.54298 
L 140.423802 63.513548 
L 140.792727 75.069706 
L 140.97719 76.961732 
L 141.346116 74.118313 
L 141.530579 85.572043 
L 141.715041 69.5707 
L 142.083967 73.647503 
L 142.26843 72.509883 
L 142.637355 63.713945 
L 143.190744 105.26733 
L 143.375207 72.796548 
L 143.744132 118.146558 
L 143.928595 71.468417 
L 144.113058 68.435193 
L 144.297521 72.601141 
L 144.481983 74.12267 
L 144.850909 64.93116 
L 145.219835 74.971991 
L 145.404298 69.200392 
L 145.773223 75.919788 
L 145.957686 76.298979 
L 146.326612 70.327543 
L 146.88 76.206631 
L 147.248926 133.012583 
L 147.433388 66.634516 
L 147.617851 147.873637 
L 147.986777 76.488629 
L 148.17124 73.929035 
L 148.540165 78.098091 
L 148.724628 74.211907 
L 149.093554 112.747824 
L 149.278017 74.966587 
L 149.462479 65.976423 
L 149.831405 72.411795 
L 150.384793 71.843128 
L 150.569256 78.757774 
L 150.753719 93.064292 
L 150.938182 76.297636 
L 151.122645 90.029921 
L 151.49157 79.795088 
L 151.676033 68.819597 
L 152.044959 84.926425 
L 152.229421 77.058585 
L 152.413884 82.739368 
L 152.598347 81.693108 
L 152.78281 74.398255 
L 152.967273 74.877353 
L 153.336198 67.391995 
L 153.705124 77.715558 
L 153.889587 58.213634 
L 154.258512 113.331711 
L 154.627438 65.311123 
L 155.180826 70.521047 
L 155.549752 69.379878 
L 155.918678 74.879612 
L 156.287603 74.02214 
L 156.472066 75.160648 
L 156.656529 78.211251 
L 156.840992 73.644896 
L 157.578843 70.805006 
L 157.763306 82.447086 
L 158.132231 72.883942 
L 158.68562 74.304814 
L 159.239008 71.180404 
L 159.792397 69.190258 
L 160.345785 76.481261 
L 160.530248 70.517839 
L 160.714711 71.841444 
L 160.899174 69.095709 
L 161.083636 75.822966 
L 161.268099 69.758415 
L 161.452562 73.169069 
L 161.637025 68.432845 
L 161.821488 67.779355 
L 162.00595 77.058936 
L 162.190413 72.409779 
L 162.743802 74.970064 
L 162.928264 72.131107 
L 163.112727 72.032071 
L 163.481653 72.234713 
L 163.666116 74.117335 
L 163.850579 82.640261 
L 164.035041 72.60526 
L 164.219504 78.944835 
L 164.58843 72.604074 
L 164.772893 73.075166 
L 164.957355 69.865108 
L 165.141818 73.266632 
L 165.510744 73.171033 
L 165.695207 74.499221 
L 165.879669 142.953858 
L 166.064132 66.826159 
L 166.248595 295.488 
L 166.617521 295.487998 
L 166.801983 70.233334 
L 166.986446 72.380897 
L 167.170909 291.321875 
L 167.355372 291.227589 
L 167.539835 70.644901 
L 167.724298 291.700937 
L 167.90876 294.730584 
L 168.093223 74.777062 
L 168.277686 74.027055 
L 168.646612 294.730585 
L 168.831074 292.553054 
L 169.015537 91.157452 
L 169.2 72.225723 
L 169.937851 78.284816 
L 170.122314 75.158148 
L 170.675702 72.979097 
L 170.860165 285.546469 
L 171.044628 79.227259 
L 171.413554 77.147631 
L 171.782479 284.315331 
L 172.151405 82.170209 
L 172.335868 77.432142 
L 172.704793 279.581403 
L 173.073719 74.121425 
L 173.258182 74.402207 
L 173.442645 279.107686 
L 173.81157 79.042737 
L 174.364959 104.511852 
L 174.549421 72.128909 
L 174.918347 91.539819 
L 175.471736 69.191576 
L 176.209587 76.300476 
L 176.762975 70.137427 
L 176.947438 69.476697 
L 177.316364 78.187644 
L 178.42314 74.968315 
L 178.607603 79.043107 
L 178.976529 97.977677 
L 179.345455 76.38871 
L 179.71438 74.401319 
L 180.083306 69.19094 
L 180.267769 81.124125 
L 180.821157 81.409423 
L 181.00562 73.263641 
L 181.374545 77.80917 
L 181.743471 76.391637 
L 181.927934 107.727251 
L 182.481322 75.818576 
L 182.665785 111.337355 
L 183.219174 66.168344 
L 183.772562 134.052354 
L 184.141488 71.277678 
L 184.32595 78.098964 
L 184.879339 77.14978 
L 185.61719 75.06125 
L 186.170579 72.221126 
L 186.355041 74.214974 
L 186.723967 95.323376 
L 187.277355 76.108734 
L 188.015207 78.003562 
L 188.753058 73.928479 
L 189.306446 76.198527 
L 189.675372 67.959579 
L 190.22876 72.794625 
L 190.413223 73.166925 
L 190.597686 76.955916 
L 190.782149 74.971172 
L 190.966612 70.331206 
L 191.151074 72.031712 
L 191.335537 66.82912 
L 191.52 71.562718 
L 191.704463 71.559142 
L 191.888926 72.979543 
L 192.073388 76.765273 
L 192.257851 71.278781 
L 192.442314 70.611959 
L 192.626777 74.499754 
L 192.81124 71.561571 
L 192.995702 72.694998 
L 193.180165 69.665203 
L 193.549091 74.782382 
L 193.733554 79.135899 
L 193.918017 74.209263 
L 194.102479 81.407768 
L 194.655868 72.126778 
L 194.840331 71.273918 
L 195.024793 79.988874 
L 195.209256 74.02294 
L 195.578182 79.324767 
L 195.762645 81.125159 
L 196.13157 76.861692 
L 196.316033 75.250642 
L 196.500496 72.126688 
L 196.684959 75.255862 
L 196.869421 74.970906 
L 197.053884 72.222382 
L 197.238347 73.836533 
L 197.42281 81.029743 
L 197.607273 72.031981 
L 198.160661 69.762653 
L 198.345124 76.96138 
L 198.529587 71.275517 
L 198.898512 77.056589 
L 199.451901 75.535713 
L 199.636364 84.25015 
L 200.005289 61.806126 
L 200.374215 79.799074 
L 200.558678 72.41921 
L 200.74314 76.678476 
L 200.927603 70.232316 
L 201.112066 74.214174 
L 201.296529 72.506009 
L 201.665455 77.998822 
L 202.218843 72.979901 
L 202.403306 76.575968 
L 202.956694 72.789548 
L 203.32562 74.587781 
L 203.694545 65.880679 
L 203.879008 74.216485 
L 204.432397 69.857133 
L 204.61686 76.772038 
L 204.801322 79.516369 
L 204.985785 72.979231 
L 205.170248 75.156156 
L 205.354711 122.507353 
L 205.539174 70.894434 
L 205.723636 75.541081 
L 205.908099 164.255913 
L 206.092562 74.118491 
L 206.461488 161.132519 
L 207.014876 171.074251 
L 207.752727 155.638065 
L 208.306116 156.874079 
L 208.859504 160.849581 
L 209.412893 62.946731 
L 209.966281 75.068002 
L 210.519669 68.433415 
L 211.073058 65.887388 
L 211.626446 68.907477 
L 212.179835 71.089618 
L 212.733223 81.314332 
L 213.471074 66.921875 
L 214.024463 82.647209 
L 214.577851 165.013398 
L 215.13124 88.990523 
L 215.684628 78.477102 
L 216.238017 85.485206 
L 216.791405 58.498443 
L 217.344793 96.296866 
L 217.898182 81.59402 
L 218.45157 83.686626 
L 219.189421 80.464104 
L 219.74281 91.731765 
L 220.296198 78.673107 
L 220.849587 89.369223 
L 221.402975 78.762323 
L 221.956364 172.121782 
L 222.509752 66.264476 
L 223.06314 132.350346 
L 223.616529 80.459267 
L 224.169917 92.68142 
L 224.723306 97.124129 
L 225.461157 84.529601 
L 225.64562 73.927233 
L 225.830083 73.647347 
L 226.014545 77.430302 
L 226.199008 74.97188 
L 226.383471 74.965901 
L 226.567934 76.007218 
L 226.752397 74.306813 
L 226.93686 70.616114 
L 227.121322 86.532176 
L 227.305785 85.761518 
L 227.490248 74.974405 
L 244.829752 79.896616 
L 245.014215 78.095056 
L 245.198678 79.894667 
L 245.38314 72.03142 
L 245.567603 78.285754 
L 245.752066 70.234487 
L 245.936529 75.351495 
L 246.120992 72.22644 
L 246.305455 76.766832 
L 246.489917 77.241482 
L 246.67438 74.497401 
L 246.858843 76.106442 
L 247.043306 76.577991 
L 247.227769 76.482625 
L 247.412231 74.682399 
L 247.596694 84.059404 
L 247.781157 79.425006 
L 247.96562 83.869526 
L 248.150083 74.872744 
L 248.334545 78.767112 
L 248.519008 75.35081 
L 248.703471 78.096563 
L 248.887934 78.662329 
L 249.072397 74.591885 
L 249.25686 74.120625 
L 249.441322 81.50142 
L 249.810248 76.676455 
L 249.994711 77.721156 
L 250.179174 70.899373 
L 250.548099 76.309985 
L 250.732562 76.577133 
L 251.101488 72.602462 
L 251.28595 64.934447 
L 251.470413 70.61101 
L 254.606281 76.012751 
L 254.975207 72.982873 
L 255.159669 75.161887 
L 255.713058 73.266163 
L 256.266446 74.78267 
L 256.819835 70.042334 
L 257.373223 72.316999 
L 257.926612 73.45524 
L 258.48 79.514785 
L 259.033388 79.799334 
L 259.402314 73.930993 
L 260.509091 74.402385 
L 261.062479 81.785516 
L 261.615868 64.367068 
L 262.169256 78.477146 
L 262.722645 77.905318 
L 263.276033 83.684903 
L 263.829421 75.161732 
L 264.38281 76.292639 
L 264.936198 71.749073 
L 265.489587 79.042172 
L 265.858512 75.636072 
L 266.411901 80.081848 
L 266.965289 75.54139 
L 267.518678 78.56941 
L 268.072066 73.64806 
L 269.178843 76.86784 
L 269.732231 74.590354 
L 270.28562 74.403451 
L 270.839008 73.642646 
L 271.392397 74.025876 
L 271.945785 75.824973 
L 272.314711 71.178985 
L 272.868099 76.012971 
L 273.421488 74.20833 
L 273.974876 71.749477 
L 274.712727 78.853001 
L 275.450579 78.480655 
L 276.18843 70.801667 
L 276.926281 80.08267 
L 277.479669 77.999958 
L 278.217521 79.039542 
L 278.955372 71.939721 
L 279.693223 70.233831 
L 280.431074 76.016145 
L 281.168926 75.535294 
L 282.460165 79.51446 
L 283.198017 75.540551 
L 283.935868 75.634968 
L 284.673719 81.885371 
L 285.41157 70.804464 
L 286.149421 74.776486 
L 286.887273 74.876068 
L 287.440661 77.145087 
L 288.178512 83.207528 
L 288.916364 75.445581 
L 289.654215 75.629537 
L 290.392066 79.237489 
L 291.129917 75.629713 
L 299.799669 110.950794 
L 300.353058 83.866976 
L 300.721983 73.644674 
L 301.275372 83.304279 
L 302.013223 73.361248 
L 302.197686 74.783157 
L 302.382149 73.359173 
L 302.566612 74.309057 
L 302.751074 63.134254 
L 303.12 78.284379 
L 303.304463 76.764723 
L 303.488926 70.990765 
L 303.673388 72.419792 
L 303.857851 71.085968 
L 304.042314 68.338912 
L 304.226777 72.986559 
L 304.41124 71.370539 
L 304.780165 75.914319 
L 304.964628 73.92799 
L 305.149091 69.57036 
L 305.333554 76.391791 
L 305.518017 70.610965 
L 305.702479 74.685127 
L 305.886942 72.696654 
L 306.071405 74.022807 
L 306.255868 71.936623 
L 307.178182 79.800591 
L 307.362645 74.611094 
L 307.547107 77.053672 
L 307.73157 70.421098 
L 308.100496 75.542207 
L 308.284959 72.410899 
L 308.469421 74.58767 
L 308.653884 71.180337 
L 308.838347 78.852523 
L 309.207273 73.453122 
L 309.391736 77.998953 
L 309.576198 68.432731 
L 309.945124 76.865381 
L 310.129587 68.531154 
L 310.682975 74.508031 
L 310.867438 71.183445 
L 311.051901 82.091881 
L 311.236364 68.540337 
L 311.420826 79.801825 
L 311.605289 74.682311 
L 311.974215 82.643532 
L 312.158678 83.395148 
L 312.34314 78.096279 
L 312.712066 76.393243 
L 313.449917 53.568 
L 313.63438 75.724707 
L 313.818843 77.0549 
L 314.187769 72.792277 
L 314.372231 62.753019 
L 314.92562 80.558463 
L 315.110083 77.715273 
L 315.294545 84.154342 
L 315.479008 70.995161 
L 315.663471 83.214245 
L 316.032397 75.630354 
L 316.21686 97.128115 
L 316.401322 74.398744 
L 316.585785 83.316639 
L 316.770248 79.800764 
L 316.954711 71.55894 
L 317.139174 77.437638 
L 317.692562 72.222875 
L 317.877025 135.377055 
L 318.061488 70.894862 
L 318.24595 70.055147 
L 318.430413 80.370351 
L 318.614876 77.624134 
L 319.168264 67.400125 
L 319.53719 74.399188 
L 319.721653 72.220364 
L 320.090579 82.541022 
L 320.459504 70.138988 
L 320.643967 71.654231 
L 320.82843 69.862955 
L 321.012893 80.08187 
L 321.197355 60.961239 
L 321.381818 66.166525 
L 321.566281 76.765448 
L 321.750744 73.735349 
L 321.935207 62.468474 
L 322.119669 77.52989 
L 322.304132 66.82834 
L 322.488595 63.53488 
L 322.673058 74.308812 
L 322.857521 62.090906 
L 323.041983 59.256588 
L 323.226446 69.86513 
L 323.410909 71.094418 
L 323.595372 69.760863 
L 323.779835 71.463738 
L 323.964298 70.516348 
L 324.14876 72.505696 
L 324.333223 68.816957 
L 324.517686 80.651721 
L 324.702149 70.421482 
L 324.886612 81.692077 
L 325.071074 71.845037 
L 325.255537 78.473179 
L 325.44 58.311627 
L 325.624463 74.782448 
L 325.808926 73.267346 
L 325.993388 73.359508 
L 326.177851 73.122819 
L 326.362314 73.643292 
L 326.546777 75.350965 
L 326.73124 62.279877 
L 326.915702 77.051587 
L 327.100165 72.422301 
L 327.469091 77.055075 
L 327.653554 77.339123 
L 327.838017 70.990449 
L 328.206942 77.812668 
L 328.391405 69.947717 
L 328.575868 74.498311 
L 328.760331 74.972124 
L 328.944793 74.30899 
L 329.129256 80.744852 
L 329.682645 72.222315 
L 330.05157 74.398611 
L 330.236033 76.29647 
L 330.420496 72.600873 
L 330.604959 73.076171 
L 330.789421 75.534322 
L 330.973884 80.462225 
L 331.158347 77.24878 
L 331.34281 69.857337 
L 332.080661 87.979557 
L 332.449587 75.348489 
L 332.63405 73.549121 
L 332.818512 86.805501 
L 333.187438 74.21193 
L 333.371901 86.152158 
L 333.556364 70.326413 
L 333.740826 79.516477 
L 333.925289 71.751275 
L 334.294215 79.705864 
L 334.66314 77.43258 
L 335.585455 74.777483 
L 335.95438 78.192162 
L 336.507769 77.807049 
L 336.876694 78.288088 
L 337.24562 81.501807 
L 337.614545 71.654119 
L 338.167934 88.605215 
L 338.53686 81.890519 
L 355.322975 69.005027 
L 355.507438 69.858062 
L 355.691901 61.632769 
L 356.060826 78.287368 
L 356.429752 66.6381 
L 356.614215 69.287714 
L 356.798678 68.248015 
L 356.98314 66.0741 
L 357.167603 68.5348 
L 357.352066 62.184841 
L 357.536529 70.80742 
L 357.720992 98.261193 
L 357.905455 70.991238 
L 358.089917 69.484617 
L 358.27438 65.971906 
L 358.458843 67.676438 
L 358.643306 71.564359 
L 358.827769 65.68709 
L 359.196694 71.464975 
L 359.381157 66.255178 
L 359.56562 66.258009 
L 359.750083 72.69775 
L 359.934545 72.034719 
L 360.119008 67.486657 
L 360.303471 76.016983 
L 360.487934 71.66003 
L 360.672397 76.961402 
L 378.749752 61.541802 
L 378.934215 119.104471 
L 379.118678 81.122532 
L 379.30314 82.639727 
L 379.487603 74.026009 
L 379.672066 71.288124 
L 379.856529 97.126221 
L 380.040992 105.277174 
L 380.225455 71.184481 
L 380.409917 97.694342 
L 380.59438 70.51994 
L 380.778843 99.503605 
L 380.963306 95.04798 
L 381.147769 72.415738 
L 381.516694 94.762162 
L 381.701157 74.117224 
L 381.88562 78.478257 
L 382.070083 63.606112 
L 382.254545 71.187905 
L 382.439008 73.92532 
L 382.623471 70.895268 
L 382.807934 70.233062 
L 382.992397 66.929265 
L 383.17686 74.971924 
L 383.361322 71.370696 
L 394.798017 70.137359 
L 394.982479 66.266318 
L 395.166942 74.697787 
L 395.351405 75.352402 
L 395.535868 74.307902 
L 395.720331 72.316528 
L 395.904793 80.273313 
L 396.089256 73.073379 
L 396.273719 72.412669 
L 396.458182 76.956311 
L 396.642645 73.928457 
L 396.827107 73.936555 
L 397.01157 70.706327 
L 397.196033 70.705831 
L 397.380496 74.686812 
L 397.564959 71.085472 
L 397.749421 72.601612 
L 397.933884 70.043602 
L 398.118347 71.084278 
L 398.30281 71.08563 
L 398.487273 74.967805 
L 398.487273 74.967805 
" style="fill:none;stroke:#0000ff;stroke-linecap:square;stroke-width:1.5;"/>
   </g>
   <g id="patch_3">
    <path d="M 57.6 307.584 
L 57.6 41.472 
" style="fill:none;stroke:#000000;stroke-linecap:square;stroke-linejoin:miter;stroke-width:0.8;"/>
   </g>
   <g id="patch_4">
    <path d="M 414.72 307.584 
L 414.72 41.472 
" style="fill:none;stroke:#000000;stroke-linecap:square;stroke-linejoin:miter;stroke-width:0.8;"/>
   </g>
   <g id="patch_5">
    <path d="M 57.6 307.584 
L 414.72 307.584 
" style="fill:none;stroke:#000000;stroke-linecap:square;stroke-linejoin:miter;stroke-width:0.8;"/>
   </g>
   <g id="patch_6">
    <path d="M 57.6 41.472 
L 414.72 41.472 
" style="fill:none;stroke:#000000;stroke-linecap:square;stroke-linejoin:miter;stroke-width:0.8;"/>
   </g>
   <g id="text_19">
    <!-- air_pressure-&gt;Throughput_night -->
    <g transform="translate(138.966563 35.472)scale(0.12 -0.12)">
     <defs>
      <path d="M 4.890625 31.390625 
L 31.203125 31.390625 
L 31.203125 23.390625 
L 4.890625 23.390625 
z
" id="DejaVuSans-45"/>
      <path d="M 10.59375 49.21875 
L 10.59375 58.109375 
L 73.1875 35.40625 
L 73.1875 27.296875 
L 10.59375 4.59375 
L 10.59375 13.484375 
L 60.890625 31.296875 
z
" id="DejaVuSans-62"/>
      <path d="M -0.296875 72.90625 
L 61.375 72.90625 
L 61.375 64.59375 
L 35.5 64.59375 
L 35.5 0 
L 25.59375 0 
L 25.59375 64.59375 
L -0.296875 64.59375 
z
" id="DejaVuSans-84"/>
      <path d="M 54.890625 33.015625 
L 54.890625 0 
L 45.90625 0 
L 45.90625 32.71875 
Q 45.90625 40.484375 42.875 44.328125 
Q 39.84375 48.1875 33.796875 48.1875 
Q 26.515625 48.1875 22.3125 43.546875 
Q 18.109375 38.921875 18.109375 30.90625 
L 18.109375 0 
L 9.078125 0 
L 9.078125 75.984375 
L 18.109375 75.984375 
L 18.109375 46.1875 
Q 21.34375 51.125 25.703125 53.5625 
Q 30.078125 56 35.796875 56 
Q 45.21875 56 50.046875 50.171875 
Q 54.890625 44.34375 54.890625 33.015625 
z
" id="DejaVuSans-104"/>
      <path d="M 45.40625 27.984375 
Q 45.40625 37.75 41.375 43.109375 
Q 37.359375 48.484375 30.078125 48.484375 
Q 22.859375 48.484375 18.828125 43.109375 
Q 14.796875 37.75 14.796875 27.984375 
Q 14.796875 18.265625 18.828125 12.890625 
Q 22.859375 7.515625 30.078125 7.515625 
Q 37.359375 7.515625 41.375 12.890625 
Q 45.40625 18.265625 45.40625 27.984375 
z
M 54.390625 6.78125 
Q 54.390625 -7.171875 48.1875 -13.984375 
Q 42 -20.796875 29.203125 -20.796875 
Q 24.46875 -20.796875 20.265625 -20.09375 
Q 16.0625 -19.390625 12.109375 -17.921875 
L 12.109375 -9.1875 
Q 16.0625 -11.328125 19.921875 -12.34375 
Q 23.78125 -13.375 27.78125 -13.375 
Q 36.625 -13.375 41.015625 -8.765625 
Q 45.40625 -4.15625 45.40625 5.171875 
L 45.40625 9.625 
Q 42.625 4.78125 38.28125 2.390625 
Q 33.9375 0 27.875 0 
Q 17.828125 0 11.671875 7.65625 
Q 5.515625 15.328125 5.515625 27.984375 
Q 5.515625 40.671875 11.671875 48.328125 
Q 17.828125 56 27.875 56 
Q 33.9375 56 38.28125 53.609375 
Q 42.625 51.21875 45.40625 46.390625 
L 45.40625 54.6875 
L 54.390625 54.6875 
z
" id="DejaVuSans-103"/>
      <path d="M 18.3125 70.21875 
L 18.3125 54.6875 
L 36.8125 54.6875 
L 36.8125 47.703125 
L 18.3125 47.703125 
L 18.3125 18.015625 
Q 18.3125 11.328125 20.140625 9.421875 
Q 21.96875 7.515625 27.59375 7.515625 
L 36.8125 7.515625 
L 36.8125 0 
L 27.59375 0 
Q 17.1875 0 13.234375 3.875 
Q 9.28125 7.765625 9.28125 18.015625 
L 9.28125 47.703125 
L 2.6875 47.703125 
L 2.6875 54.6875 
L 9.28125 54.6875 
L 9.28125 70.21875 
z
" id="DejaVuSans-116"/>
      <path d="M 54.890625 33.015625 
L 54.890625 0 
L 45.90625 0 
L 45.90625 32.71875 
Q 45.90625 40.484375 42.875 44.328125 
Q 39.84375 48.1875 33.796875 48.1875 
Q 26.515625 48.1875 22.3125 43.546875 
Q 18.109375 38.921875 18.109375 30.90625 
L 18.109375 0 
L 9.078125 0 
L 9.078125 54.6875 
L 18.109375 54.6875 
L 18.109375 46.1875 
Q 21.34375 51.125 25.703125 53.5625 
Q 30.078125 56 35.796875 56 
Q 45.21875 56 50.046875 50.171875 
Q 54.890625 44.34375 54.890625 33.015625 
z
" id="DejaVuSans-110"/>
     </defs>
     <use xlink:href="#DejaVuSans-97"/>
     <use x="61.279297" xlink:href="#DejaVuSans-105"/>
     <use x="89.0625" xlink:href="#DejaVuSans-114"/>
     <use x="130.175781" xlink:href="#DejaVuSans-95"/>
     <use x="180.175781" xlink:href="#DejaVuSans-112"/>
     <use x="243.652344" xlink:href="#DejaVuSans-114"/>
     <use x="282.515625" xlink:href="#DejaVuSans-101"/>
     <use x="344.039062" xlink:href="#DejaVuSans-115"/>
     <use x="396.138672" xlink:href="#DejaVuSans-115"/>
     <use x="448.238281" xlink:href="#DejaVuSans-117"/>
     <use x="511.617188" xlink:href="#DejaVuSans-114"/>
     <use x="550.480469" xlink:href="#DejaVuSans-101"/>
     <use x="612.003906" xlink:href="#DejaVuSans-45"/>
     <use x="648.087891" xlink:href="#DejaVuSans-62"/>
     <use x="731.876953" xlink:href="#DejaVuSans-84"/>
     <use x="792.960938" xlink:href="#DejaVuSans-104"/>
     <use x="856.339844" xlink:href="#DejaVuSans-114"/>
     <use x="895.203125" xlink:href="#DejaVuSans-111"/>
     <use x="956.384766" xlink:href="#DejaVuSans-117"/>
     <use x="1019.763672" xlink:href="#DejaVuSans-103"/>
     <use x="1083.240234" xlink:href="#DejaVuSans-104"/>
     <use x="1146.619141" xlink:href="#DejaVuSans-112"/>
     <use x="1210.095703" xlink:href="#DejaVuSans-117"/>
     <use x="1273.474609" xlink:href="#DejaVuSans-116"/>
     <use x="1312.683594" xlink:href="#DejaVuSans-95"/>
     <use x="1362.683594" xlink:href="#DejaVuSans-110"/>
     <use x="1426.0625" xlink:href="#DejaVuSans-105"/>
     <use x="1453.845703" xlink:href="#DejaVuSans-103"/>
     <use x="1517.322266" xlink:href="#DejaVuSans-104"/>
     <use x="1580.701172" xlink:href="#DejaVuSans-116"/>
    </g>
   </g>
  </g>
  <g id="legend_1">
   <g id="patch_7">
    <path d="M 415.692187 22.678125 
L 453.8 22.678125 
Q 455.8 22.678125 455.8 20.678125 
L 455.8 7 
Q 455.8 5 453.8 5 
L 415.692187 5 
Q 413.692187 5 413.692187 7 
L 413.692187 20.678125 
Q 413.692187 22.678125 415.692187 22.678125 
z
" style="fill:#ffffff;opacity:0.8;stroke:#cccccc;stroke-linejoin:miter;"/>
   </g>
   <g id="line2d_18">
    <path d="M 417.692187 13.098438 
L 437.692187 13.098438 
" style="fill:none;stroke:#0000ff;stroke-linecap:square;stroke-width:1.5;"/>
   </g>
   <g id="line2d_19"/>
   <g id="text_20">
    <!-- T -->
    <g transform="translate(445.692187 16.598438)scale(0.1 -0.1)">
     <use xlink:href="#DejaVuSans-84"/>
    </g>
   </g>
  </g>
 </g>
 <defs>
  <clipPath id="pf1e320ee68">
   <rect height="266.112" width="357.12" x="57.6" y="41.472"/>
  </clipPath>
 </defs>
</svg>
