<?xml version="1.0" encoding="utf-8" standalone="no"?>
<!DOCTYPE svg PUBLIC "-//W3C//DTD SVG 1.1//EN"
  "http://www.w3.org/Graphics/SVG/1.1/DTD/svg11.dtd">
<!-- Created with matplotlib (https://matplotlib.org/) -->
<svg height="345.6pt" version="1.1" viewBox="0 0 460.8 345.6" width="460.8pt" xmlns="http://www.w3.org/2000/svg" xmlns:xlink="http://www.w3.org/1999/xlink">
 <metadata>
  <rdf:RDF xmlns:cc="http://creativecommons.org/ns#" xmlns:dc="http://purl.org/dc/elements/1.1/" xmlns:rdf="http://www.w3.org/1999/02/22-rdf-syntax-ns#">
   <cc:Work>
    <dc:type rdf:resource="http://purl.org/dc/dcmitype/StillImage"/>
    <dc:date>2022-07-16T22:23:34.147676</dc:date>
    <dc:format>image/svg+xml</dc:format>
    <dc:creator>
     <cc:Agent>
      <dc:title>Matplotlib v3.3.2, https://matplotlib.org/</dc:title>
     </cc:Agent>
    </dc:creator>
   </cc:Work>
  </rdf:RDF>
 </metadata>
 <defs>
  <style type="text/css">*{stroke-linecap:butt;stroke-linejoin:round;}</style>
 </defs>
 <g id="figure_1">
  <g id="patch_1">
   <path d="M 0 345.6 
L 460.8 345.6 
L 460.8 0 
L 0 0 
z
" style="fill:#ffffff;"/>
  </g>
  <g id="axes_1">
   <g id="patch_2">
    <path d="M 57.6 307.584 
L 414.72 307.584 
L 414.72 41.472 
L 57.6 41.472 
z
" style="fill:#ffffff;"/>
   </g>
   <g id="matplotlib.axis_1">
    <g id="xtick_1">
     <g id="line2d_1">
      <defs>
       <path d="M 0 0 
L 0 3.5 
" id="m1e012b79a7" style="stroke:#000000;stroke-width:0.8;"/>
      </defs>
      <g>
       <use style="stroke:#000000;stroke-width:0.8;" x="81.174612" xlink:href="#m1e012b79a7" y="307.584"/>
      </g>
     </g>
     <g id="text_1">
      <!-- 7.5 -->
      <g transform="translate(73.223049 322.182437)scale(0.1 -0.1)">
       <defs>
        <path d="M 8.203125 72.90625 
L 55.078125 72.90625 
L 55.078125 68.703125 
L 28.609375 0 
L 18.3125 0 
L 43.21875 64.59375 
L 8.203125 64.59375 
z
" id="DejaVuSans-55"/>
        <path d="M 10.6875 12.40625 
L 21 12.40625 
L 21 0 
L 10.6875 0 
z
" id="DejaVuSans-46"/>
        <path d="M 10.796875 72.90625 
L 49.515625 72.90625 
L 49.515625 64.59375 
L 19.828125 64.59375 
L 19.828125 46.734375 
Q 21.96875 47.46875 24.109375 47.828125 
Q 26.265625 48.1875 28.421875 48.1875 
Q 40.625 48.1875 47.75 41.5 
Q 54.890625 34.8125 54.890625 23.390625 
Q 54.890625 11.625 47.5625 5.09375 
Q 40.234375 -1.421875 26.90625 -1.421875 
Q 22.3125 -1.421875 17.546875 -0.640625 
Q 12.796875 0.140625 7.71875 1.703125 
L 7.71875 11.625 
Q 12.109375 9.234375 16.796875 8.0625 
Q 21.484375 6.890625 26.703125 6.890625 
Q 35.15625 6.890625 40.078125 11.328125 
Q 45.015625 15.765625 45.015625 23.390625 
Q 45.015625 31 40.078125 35.4375 
Q 35.15625 39.890625 26.703125 39.890625 
Q 22.75 39.890625 18.8125 39.015625 
Q 14.890625 38.140625 10.796875 36.28125 
z
" id="DejaVuSans-53"/>
       </defs>
       <use xlink:href="#DejaVuSans-55"/>
       <use x="63.623047" xlink:href="#DejaVuSans-46"/>
       <use x="95.410156" xlink:href="#DejaVuSans-53"/>
      </g>
     </g>
    </g>
    <g id="xtick_2">
     <g id="line2d_2">
      <g>
       <use style="stroke:#000000;stroke-width:0.8;" x="125.942199" xlink:href="#m1e012b79a7" y="307.584"/>
      </g>
     </g>
     <g id="text_2">
      <!-- 10.0 -->
      <g transform="translate(114.809387 322.182437)scale(0.1 -0.1)">
       <defs>
        <path d="M 12.40625 8.296875 
L 28.515625 8.296875 
L 28.515625 63.921875 
L 10.984375 60.40625 
L 10.984375 69.390625 
L 28.421875 72.90625 
L 38.28125 72.90625 
L 38.28125 8.296875 
L 54.390625 8.296875 
L 54.390625 0 
L 12.40625 0 
z
" id="DejaVuSans-49"/>
        <path d="M 31.78125 66.40625 
Q 24.171875 66.40625 20.328125 58.90625 
Q 16.5 51.421875 16.5 36.375 
Q 16.5 21.390625 20.328125 13.890625 
Q 24.171875 6.390625 31.78125 6.390625 
Q 39.453125 6.390625 43.28125 13.890625 
Q 47.125 21.390625 47.125 36.375 
Q 47.125 51.421875 43.28125 58.90625 
Q 39.453125 66.40625 31.78125 66.40625 
z
M 31.78125 74.21875 
Q 44.046875 74.21875 50.515625 64.515625 
Q 56.984375 54.828125 56.984375 36.375 
Q 56.984375 17.96875 50.515625 8.265625 
Q 44.046875 -1.421875 31.78125 -1.421875 
Q 19.53125 -1.421875 13.0625 8.265625 
Q 6.59375 17.96875 6.59375 36.375 
Q 6.59375 54.828125 13.0625 64.515625 
Q 19.53125 74.21875 31.78125 74.21875 
z
" id="DejaVuSans-48"/>
       </defs>
       <use xlink:href="#DejaVuSans-49"/>
       <use x="63.623047" xlink:href="#DejaVuSans-48"/>
       <use x="127.246094" xlink:href="#DejaVuSans-46"/>
       <use x="159.033203" xlink:href="#DejaVuSans-48"/>
      </g>
     </g>
    </g>
    <g id="xtick_3">
     <g id="line2d_3">
      <g>
       <use style="stroke:#000000;stroke-width:0.8;" x="170.709787" xlink:href="#m1e012b79a7" y="307.584"/>
      </g>
     </g>
     <g id="text_3">
      <!-- 12.5 -->
      <g transform="translate(159.576974 322.182437)scale(0.1 -0.1)">
       <defs>
        <path d="M 19.1875 8.296875 
L 53.609375 8.296875 
L 53.609375 0 
L 7.328125 0 
L 7.328125 8.296875 
Q 12.9375 14.109375 22.625 23.890625 
Q 32.328125 33.6875 34.8125 36.53125 
Q 39.546875 41.84375 41.421875 45.53125 
Q 43.3125 49.21875 43.3125 52.78125 
Q 43.3125 58.59375 39.234375 62.25 
Q 35.15625 65.921875 28.609375 65.921875 
Q 23.96875 65.921875 18.8125 64.3125 
Q 13.671875 62.703125 7.8125 59.421875 
L 7.8125 69.390625 
Q 13.765625 71.78125 18.9375 73 
Q 24.125 74.21875 28.421875 74.21875 
Q 39.75 74.21875 46.484375 68.546875 
Q 53.21875 62.890625 53.21875 53.421875 
Q 53.21875 48.921875 51.53125 44.890625 
Q 49.859375 40.875 45.40625 35.40625 
Q 44.1875 33.984375 37.640625 27.21875 
Q 31.109375 20.453125 19.1875 8.296875 
z
" id="DejaVuSans-50"/>
       </defs>
       <use xlink:href="#DejaVuSans-49"/>
       <use x="63.623047" xlink:href="#DejaVuSans-50"/>
       <use x="127.246094" xlink:href="#DejaVuSans-46"/>
       <use x="159.033203" xlink:href="#DejaVuSans-53"/>
      </g>
     </g>
    </g>
    <g id="xtick_4">
     <g id="line2d_4">
      <g>
       <use style="stroke:#000000;stroke-width:0.8;" x="215.477375" xlink:href="#m1e012b79a7" y="307.584"/>
      </g>
     </g>
     <g id="text_4">
      <!-- 15.0 -->
      <g transform="translate(204.344562 322.182437)scale(0.1 -0.1)">
       <use xlink:href="#DejaVuSans-49"/>
       <use x="63.623047" xlink:href="#DejaVuSans-53"/>
       <use x="127.246094" xlink:href="#DejaVuSans-46"/>
       <use x="159.033203" xlink:href="#DejaVuSans-48"/>
      </g>
     </g>
    </g>
    <g id="xtick_5">
     <g id="line2d_5">
      <g>
       <use style="stroke:#000000;stroke-width:0.8;" x="260.244962" xlink:href="#m1e012b79a7" y="307.584"/>
      </g>
     </g>
     <g id="text_5">
      <!-- 17.5 -->
      <g transform="translate(249.11215 322.182437)scale(0.1 -0.1)">
       <use xlink:href="#DejaVuSans-49"/>
       <use x="63.623047" xlink:href="#DejaVuSans-55"/>
       <use x="127.246094" xlink:href="#DejaVuSans-46"/>
       <use x="159.033203" xlink:href="#DejaVuSans-53"/>
      </g>
     </g>
    </g>
    <g id="xtick_6">
     <g id="line2d_6">
      <g>
       <use style="stroke:#000000;stroke-width:0.8;" x="305.01255" xlink:href="#m1e012b79a7" y="307.584"/>
      </g>
     </g>
     <g id="text_6">
      <!-- 20.0 -->
      <g transform="translate(293.879737 322.182437)scale(0.1 -0.1)">
       <use xlink:href="#DejaVuSans-50"/>
       <use x="63.623047" xlink:href="#DejaVuSans-48"/>
       <use x="127.246094" xlink:href="#DejaVuSans-46"/>
       <use x="159.033203" xlink:href="#DejaVuSans-48"/>
      </g>
     </g>
    </g>
    <g id="xtick_7">
     <g id="line2d_7">
      <g>
       <use style="stroke:#000000;stroke-width:0.8;" x="349.780137" xlink:href="#m1e012b79a7" y="307.584"/>
      </g>
     </g>
     <g id="text_7">
      <!-- 22.5 -->
      <g transform="translate(338.647325 322.182437)scale(0.1 -0.1)">
       <use xlink:href="#DejaVuSans-50"/>
       <use x="63.623047" xlink:href="#DejaVuSans-50"/>
       <use x="127.246094" xlink:href="#DejaVuSans-46"/>
       <use x="159.033203" xlink:href="#DejaVuSans-53"/>
      </g>
     </g>
    </g>
    <g id="xtick_8">
     <g id="line2d_8">
      <g>
       <use style="stroke:#000000;stroke-width:0.8;" x="394.547725" xlink:href="#m1e012b79a7" y="307.584"/>
      </g>
     </g>
     <g id="text_8">
      <!-- 25.0 -->
      <g transform="translate(383.414913 322.182437)scale(0.1 -0.1)">
       <use xlink:href="#DejaVuSans-50"/>
       <use x="63.623047" xlink:href="#DejaVuSans-53"/>
       <use x="127.246094" xlink:href="#DejaVuSans-46"/>
       <use x="159.033203" xlink:href="#DejaVuSans-48"/>
      </g>
     </g>
    </g>
    <g id="text_9">
     <!-- temperature from OpenWeatherMap -->
     <g transform="translate(144.963906 335.860562)scale(0.1 -0.1)">
      <defs>
       <path d="M 18.3125 70.21875 
L 18.3125 54.6875 
L 36.8125 54.6875 
L 36.8125 47.703125 
L 18.3125 47.703125 
L 18.3125 18.015625 
Q 18.3125 11.328125 20.140625 9.421875 
Q 21.96875 7.515625 27.59375 7.515625 
L 36.8125 7.515625 
L 36.8125 0 
L 27.59375 0 
Q 17.1875 0 13.234375 3.875 
Q 9.28125 7.765625 9.28125 18.015625 
L 9.28125 47.703125 
L 2.6875 47.703125 
L 2.6875 54.6875 
L 9.28125 54.6875 
L 9.28125 70.21875 
z
" id="DejaVuSans-116"/>
       <path d="M 56.203125 29.59375 
L 56.203125 25.203125 
L 14.890625 25.203125 
Q 15.484375 15.921875 20.484375 11.0625 
Q 25.484375 6.203125 34.421875 6.203125 
Q 39.59375 6.203125 44.453125 7.46875 
Q 49.3125 8.734375 54.109375 11.28125 
L 54.109375 2.78125 
Q 49.265625 0.734375 44.1875 -0.34375 
Q 39.109375 -1.421875 33.890625 -1.421875 
Q 20.796875 -1.421875 13.15625 6.1875 
Q 5.515625 13.8125 5.515625 26.8125 
Q 5.515625 40.234375 12.765625 48.109375 
Q 20.015625 56 32.328125 56 
Q 43.359375 56 49.78125 48.890625 
Q 56.203125 41.796875 56.203125 29.59375 
z
M 47.21875 32.234375 
Q 47.125 39.59375 43.09375 43.984375 
Q 39.0625 48.390625 32.421875 48.390625 
Q 24.90625 48.390625 20.390625 44.140625 
Q 15.875 39.890625 15.1875 32.171875 
z
" id="DejaVuSans-101"/>
       <path d="M 52 44.1875 
Q 55.375 50.25 60.0625 53.125 
Q 64.75 56 71.09375 56 
Q 79.640625 56 84.28125 50.015625 
Q 88.921875 44.046875 88.921875 33.015625 
L 88.921875 0 
L 79.890625 0 
L 79.890625 32.71875 
Q 79.890625 40.578125 77.09375 44.375 
Q 74.3125 48.1875 68.609375 48.1875 
Q 61.625 48.1875 57.5625 43.546875 
Q 53.515625 38.921875 53.515625 30.90625 
L 53.515625 0 
L 44.484375 0 
L 44.484375 32.71875 
Q 44.484375 40.625 41.703125 44.40625 
Q 38.921875 48.1875 33.109375 48.1875 
Q 26.21875 48.1875 22.15625 43.53125 
Q 18.109375 38.875 18.109375 30.90625 
L 18.109375 0 
L 9.078125 0 
L 9.078125 54.6875 
L 18.109375 54.6875 
L 18.109375 46.1875 
Q 21.1875 51.21875 25.484375 53.609375 
Q 29.78125 56 35.6875 56 
Q 41.65625 56 45.828125 52.96875 
Q 50 49.953125 52 44.1875 
z
" id="DejaVuSans-109"/>
       <path d="M 18.109375 8.203125 
L 18.109375 -20.796875 
L 9.078125 -20.796875 
L 9.078125 54.6875 
L 18.109375 54.6875 
L 18.109375 46.390625 
Q 20.953125 51.265625 25.265625 53.625 
Q 29.59375 56 35.59375 56 
Q 45.5625 56 51.78125 48.09375 
Q 58.015625 40.1875 58.015625 27.296875 
Q 58.015625 14.40625 51.78125 6.484375 
Q 45.5625 -1.421875 35.59375 -1.421875 
Q 29.59375 -1.421875 25.265625 0.953125 
Q 20.953125 3.328125 18.109375 8.203125 
z
M 48.6875 27.296875 
Q 48.6875 37.203125 44.609375 42.84375 
Q 40.53125 48.484375 33.40625 48.484375 
Q 26.265625 48.484375 22.1875 42.84375 
Q 18.109375 37.203125 18.109375 27.296875 
Q 18.109375 17.390625 22.1875 11.75 
Q 26.265625 6.109375 33.40625 6.109375 
Q 40.53125 6.109375 44.609375 11.75 
Q 48.6875 17.390625 48.6875 27.296875 
z
" id="DejaVuSans-112"/>
       <path d="M 41.109375 46.296875 
Q 39.59375 47.171875 37.8125 47.578125 
Q 36.03125 48 33.890625 48 
Q 26.265625 48 22.1875 43.046875 
Q 18.109375 38.09375 18.109375 28.8125 
L 18.109375 0 
L 9.078125 0 
L 9.078125 54.6875 
L 18.109375 54.6875 
L 18.109375 46.1875 
Q 20.953125 51.171875 25.484375 53.578125 
Q 30.03125 56 36.53125 56 
Q 37.453125 56 38.578125 55.875 
Q 39.703125 55.765625 41.0625 55.515625 
z
" id="DejaVuSans-114"/>
       <path d="M 34.28125 27.484375 
Q 23.390625 27.484375 19.1875 25 
Q 14.984375 22.515625 14.984375 16.5 
Q 14.984375 11.71875 18.140625 8.90625 
Q 21.296875 6.109375 26.703125 6.109375 
Q 34.1875 6.109375 38.703125 11.40625 
Q 43.21875 16.703125 43.21875 25.484375 
L 43.21875 27.484375 
z
M 52.203125 31.203125 
L 52.203125 0 
L 43.21875 0 
L 43.21875 8.296875 
Q 40.140625 3.328125 35.546875 0.953125 
Q 30.953125 -1.421875 24.3125 -1.421875 
Q 15.921875 -1.421875 10.953125 3.296875 
Q 6 8.015625 6 15.921875 
Q 6 25.140625 12.171875 29.828125 
Q 18.359375 34.515625 30.609375 34.515625 
L 43.21875 34.515625 
L 43.21875 35.40625 
Q 43.21875 41.609375 39.140625 45 
Q 35.0625 48.390625 27.6875 48.390625 
Q 23 48.390625 18.546875 47.265625 
Q 14.109375 46.140625 10.015625 43.890625 
L 10.015625 52.203125 
Q 14.9375 54.109375 19.578125 55.046875 
Q 24.21875 56 28.609375 56 
Q 40.484375 56 46.34375 49.84375 
Q 52.203125 43.703125 52.203125 31.203125 
z
" id="DejaVuSans-97"/>
       <path d="M 8.5 21.578125 
L 8.5 54.6875 
L 17.484375 54.6875 
L 17.484375 21.921875 
Q 17.484375 14.15625 20.5 10.265625 
Q 23.53125 6.390625 29.59375 6.390625 
Q 36.859375 6.390625 41.078125 11.03125 
Q 45.3125 15.671875 45.3125 23.6875 
L 45.3125 54.6875 
L 54.296875 54.6875 
L 54.296875 0 
L 45.3125 0 
L 45.3125 8.40625 
Q 42.046875 3.421875 37.71875 1 
Q 33.40625 -1.421875 27.6875 -1.421875 
Q 18.265625 -1.421875 13.375 4.4375 
Q 8.5 10.296875 8.5 21.578125 
z
M 31.109375 56 
z
" id="DejaVuSans-117"/>
       <path id="DejaVuSans-32"/>
       <path d="M 37.109375 75.984375 
L 37.109375 68.5 
L 28.515625 68.5 
Q 23.6875 68.5 21.796875 66.546875 
Q 19.921875 64.59375 19.921875 59.515625 
L 19.921875 54.6875 
L 34.71875 54.6875 
L 34.71875 47.703125 
L 19.921875 47.703125 
L 19.921875 0 
L 10.890625 0 
L 10.890625 47.703125 
L 2.296875 47.703125 
L 2.296875 54.6875 
L 10.890625 54.6875 
L 10.890625 58.5 
Q 10.890625 67.625 15.140625 71.796875 
Q 19.390625 75.984375 28.609375 75.984375 
z
" id="DejaVuSans-102"/>
       <path d="M 30.609375 48.390625 
Q 23.390625 48.390625 19.1875 42.75 
Q 14.984375 37.109375 14.984375 27.296875 
Q 14.984375 17.484375 19.15625 11.84375 
Q 23.34375 6.203125 30.609375 6.203125 
Q 37.796875 6.203125 41.984375 11.859375 
Q 46.1875 17.53125 46.1875 27.296875 
Q 46.1875 37.015625 41.984375 42.703125 
Q 37.796875 48.390625 30.609375 48.390625 
z
M 30.609375 56 
Q 42.328125 56 49.015625 48.375 
Q 55.71875 40.765625 55.71875 27.296875 
Q 55.71875 13.875 49.015625 6.21875 
Q 42.328125 -1.421875 30.609375 -1.421875 
Q 18.84375 -1.421875 12.171875 6.21875 
Q 5.515625 13.875 5.515625 27.296875 
Q 5.515625 40.765625 12.171875 48.375 
Q 18.84375 56 30.609375 56 
z
" id="DejaVuSans-111"/>
       <path d="M 39.40625 66.21875 
Q 28.65625 66.21875 22.328125 58.203125 
Q 16.015625 50.203125 16.015625 36.375 
Q 16.015625 22.609375 22.328125 14.59375 
Q 28.65625 6.59375 39.40625 6.59375 
Q 50.140625 6.59375 56.421875 14.59375 
Q 62.703125 22.609375 62.703125 36.375 
Q 62.703125 50.203125 56.421875 58.203125 
Q 50.140625 66.21875 39.40625 66.21875 
z
M 39.40625 74.21875 
Q 54.734375 74.21875 63.90625 63.9375 
Q 73.09375 53.65625 73.09375 36.375 
Q 73.09375 19.140625 63.90625 8.859375 
Q 54.734375 -1.421875 39.40625 -1.421875 
Q 24.03125 -1.421875 14.8125 8.828125 
Q 5.609375 19.09375 5.609375 36.375 
Q 5.609375 53.65625 14.8125 63.9375 
Q 24.03125 74.21875 39.40625 74.21875 
z
" id="DejaVuSans-79"/>
       <path d="M 54.890625 33.015625 
L 54.890625 0 
L 45.90625 0 
L 45.90625 32.71875 
Q 45.90625 40.484375 42.875 44.328125 
Q 39.84375 48.1875 33.796875 48.1875 
Q 26.515625 48.1875 22.3125 43.546875 
Q 18.109375 38.921875 18.109375 30.90625 
L 18.109375 0 
L 9.078125 0 
L 9.078125 54.6875 
L 18.109375 54.6875 
L 18.109375 46.1875 
Q 21.34375 51.125 25.703125 53.5625 
Q 30.078125 56 35.796875 56 
Q 45.21875 56 50.046875 50.171875 
Q 54.890625 44.34375 54.890625 33.015625 
z
" id="DejaVuSans-110"/>
       <path d="M 3.328125 72.90625 
L 13.28125 72.90625 
L 28.609375 11.28125 
L 43.890625 72.90625 
L 54.984375 72.90625 
L 70.3125 11.28125 
L 85.59375 72.90625 
L 95.609375 72.90625 
L 77.296875 0 
L 64.890625 0 
L 49.515625 63.28125 
L 33.984375 0 
L 21.578125 0 
z
" id="DejaVuSans-87"/>
       <path d="M 54.890625 33.015625 
L 54.890625 0 
L 45.90625 0 
L 45.90625 32.71875 
Q 45.90625 40.484375 42.875 44.328125 
Q 39.84375 48.1875 33.796875 48.1875 
Q 26.515625 48.1875 22.3125 43.546875 
Q 18.109375 38.921875 18.109375 30.90625 
L 18.109375 0 
L 9.078125 0 
L 9.078125 75.984375 
L 18.109375 75.984375 
L 18.109375 46.1875 
Q 21.34375 51.125 25.703125 53.5625 
Q 30.078125 56 35.796875 56 
Q 45.21875 56 50.046875 50.171875 
Q 54.890625 44.34375 54.890625 33.015625 
z
" id="DejaVuSans-104"/>
       <path d="M 9.8125 72.90625 
L 24.515625 72.90625 
L 43.109375 23.296875 
L 61.8125 72.90625 
L 76.515625 72.90625 
L 76.515625 0 
L 66.890625 0 
L 66.890625 64.015625 
L 48.09375 14.015625 
L 38.1875 14.015625 
L 19.390625 64.015625 
L 19.390625 0 
L 9.8125 0 
z
" id="DejaVuSans-77"/>
      </defs>
      <use xlink:href="#DejaVuSans-116"/>
      <use x="39.208984" xlink:href="#DejaVuSans-101"/>
      <use x="100.732422" xlink:href="#DejaVuSans-109"/>
      <use x="198.144531" xlink:href="#DejaVuSans-112"/>
      <use x="261.621094" xlink:href="#DejaVuSans-101"/>
      <use x="323.144531" xlink:href="#DejaVuSans-114"/>
      <use x="364.257812" xlink:href="#DejaVuSans-97"/>
      <use x="425.537109" xlink:href="#DejaVuSans-116"/>
      <use x="464.746094" xlink:href="#DejaVuSans-117"/>
      <use x="528.125" xlink:href="#DejaVuSans-114"/>
      <use x="566.988281" xlink:href="#DejaVuSans-101"/>
      <use x="628.511719" xlink:href="#DejaVuSans-32"/>
      <use x="660.298828" xlink:href="#DejaVuSans-102"/>
      <use x="695.503906" xlink:href="#DejaVuSans-114"/>
      <use x="734.367188" xlink:href="#DejaVuSans-111"/>
      <use x="795.548828" xlink:href="#DejaVuSans-109"/>
      <use x="892.960938" xlink:href="#DejaVuSans-32"/>
      <use x="924.748047" xlink:href="#DejaVuSans-79"/>
      <use x="1003.458984" xlink:href="#DejaVuSans-112"/>
      <use x="1066.935547" xlink:href="#DejaVuSans-101"/>
      <use x="1128.458984" xlink:href="#DejaVuSans-110"/>
      <use x="1191.837891" xlink:href="#DejaVuSans-87"/>
      <use x="1284.839844" xlink:href="#DejaVuSans-101"/>
      <use x="1346.363281" xlink:href="#DejaVuSans-97"/>
      <use x="1407.642578" xlink:href="#DejaVuSans-116"/>
      <use x="1446.851562" xlink:href="#DejaVuSans-104"/>
      <use x="1510.230469" xlink:href="#DejaVuSans-101"/>
      <use x="1571.753906" xlink:href="#DejaVuSans-114"/>
      <use x="1612.867188" xlink:href="#DejaVuSans-77"/>
      <use x="1699.146484" xlink:href="#DejaVuSans-97"/>
      <use x="1760.425781" xlink:href="#DejaVuSans-112"/>
     </g>
    </g>
   </g>
   <g id="matplotlib.axis_2">
    <g id="ytick_1">
     <g id="line2d_9">
      <defs>
       <path d="M 0 0 
L -3.5 0 
" id="m5df2b4f56f" style="stroke:#000000;stroke-width:0.8;"/>
      </defs>
      <g>
       <use style="stroke:#000000;stroke-width:0.8;" x="57.6" xlink:href="#m5df2b4f56f" y="296.409176"/>
      </g>
     </g>
     <g id="text_10">
      <!-- 0.0 -->
      <g transform="translate(34.696875 300.208394)scale(0.1 -0.1)">
       <use xlink:href="#DejaVuSans-48"/>
       <use x="63.623047" xlink:href="#DejaVuSans-46"/>
       <use x="95.410156" xlink:href="#DejaVuSans-48"/>
      </g>
     </g>
    </g>
    <g id="ytick_2">
     <g id="line2d_10">
      <g>
       <use style="stroke:#000000;stroke-width:0.8;" x="57.6" xlink:href="#m5df2b4f56f" y="264.596773"/>
      </g>
     </g>
     <g id="text_11">
      <!-- 0.2 -->
      <g transform="translate(34.696875 268.395992)scale(0.1 -0.1)">
       <use xlink:href="#DejaVuSans-48"/>
       <use x="63.623047" xlink:href="#DejaVuSans-46"/>
       <use x="95.410156" xlink:href="#DejaVuSans-50"/>
      </g>
     </g>
    </g>
    <g id="ytick_3">
     <g id="line2d_11">
      <g>
       <use style="stroke:#000000;stroke-width:0.8;" x="57.6" xlink:href="#m5df2b4f56f" y="232.78437"/>
      </g>
     </g>
     <g id="text_12">
      <!-- 0.4 -->
      <g transform="translate(34.696875 236.583589)scale(0.1 -0.1)">
       <defs>
        <path d="M 37.796875 64.3125 
L 12.890625 25.390625 
L 37.796875 25.390625 
z
M 35.203125 72.90625 
L 47.609375 72.90625 
L 47.609375 25.390625 
L 58.015625 25.390625 
L 58.015625 17.1875 
L 47.609375 17.1875 
L 47.609375 0 
L 37.796875 0 
L 37.796875 17.1875 
L 4.890625 17.1875 
L 4.890625 26.703125 
z
" id="DejaVuSans-52"/>
       </defs>
       <use xlink:href="#DejaVuSans-48"/>
       <use x="63.623047" xlink:href="#DejaVuSans-46"/>
       <use x="95.410156" xlink:href="#DejaVuSans-52"/>
      </g>
     </g>
    </g>
    <g id="ytick_4">
     <g id="line2d_12">
      <g>
       <use style="stroke:#000000;stroke-width:0.8;" x="57.6" xlink:href="#m5df2b4f56f" y="200.971967"/>
      </g>
     </g>
     <g id="text_13">
      <!-- 0.6 -->
      <g transform="translate(34.696875 204.771186)scale(0.1 -0.1)">
       <defs>
        <path d="M 33.015625 40.375 
Q 26.375 40.375 22.484375 35.828125 
Q 18.609375 31.296875 18.609375 23.390625 
Q 18.609375 15.53125 22.484375 10.953125 
Q 26.375 6.390625 33.015625 6.390625 
Q 39.65625 6.390625 43.53125 10.953125 
Q 47.40625 15.53125 47.40625 23.390625 
Q 47.40625 31.296875 43.53125 35.828125 
Q 39.65625 40.375 33.015625 40.375 
z
M 52.59375 71.296875 
L 52.59375 62.3125 
Q 48.875 64.0625 45.09375 64.984375 
Q 41.3125 65.921875 37.59375 65.921875 
Q 27.828125 65.921875 22.671875 59.328125 
Q 17.53125 52.734375 16.796875 39.40625 
Q 19.671875 43.65625 24.015625 45.921875 
Q 28.375 48.1875 33.59375 48.1875 
Q 44.578125 48.1875 50.953125 41.515625 
Q 57.328125 34.859375 57.328125 23.390625 
Q 57.328125 12.15625 50.6875 5.359375 
Q 44.046875 -1.421875 33.015625 -1.421875 
Q 20.359375 -1.421875 13.671875 8.265625 
Q 6.984375 17.96875 6.984375 36.375 
Q 6.984375 53.65625 15.1875 63.9375 
Q 23.390625 74.21875 37.203125 74.21875 
Q 40.921875 74.21875 44.703125 73.484375 
Q 48.484375 72.75 52.59375 71.296875 
z
" id="DejaVuSans-54"/>
       </defs>
       <use xlink:href="#DejaVuSans-48"/>
       <use x="63.623047" xlink:href="#DejaVuSans-46"/>
       <use x="95.410156" xlink:href="#DejaVuSans-54"/>
      </g>
     </g>
    </g>
    <g id="ytick_5">
     <g id="line2d_13">
      <g>
       <use style="stroke:#000000;stroke-width:0.8;" x="57.6" xlink:href="#m5df2b4f56f" y="169.159564"/>
      </g>
     </g>
     <g id="text_14">
      <!-- 0.8 -->
      <g transform="translate(34.696875 172.958783)scale(0.1 -0.1)">
       <defs>
        <path d="M 31.78125 34.625 
Q 24.75 34.625 20.71875 30.859375 
Q 16.703125 27.09375 16.703125 20.515625 
Q 16.703125 13.921875 20.71875 10.15625 
Q 24.75 6.390625 31.78125 6.390625 
Q 38.8125 6.390625 42.859375 10.171875 
Q 46.921875 13.96875 46.921875 20.515625 
Q 46.921875 27.09375 42.890625 30.859375 
Q 38.875 34.625 31.78125 34.625 
z
M 21.921875 38.8125 
Q 15.578125 40.375 12.03125 44.71875 
Q 8.5 49.078125 8.5 55.328125 
Q 8.5 64.0625 14.71875 69.140625 
Q 20.953125 74.21875 31.78125 74.21875 
Q 42.671875 74.21875 48.875 69.140625 
Q 55.078125 64.0625 55.078125 55.328125 
Q 55.078125 49.078125 51.53125 44.71875 
Q 48 40.375 41.703125 38.8125 
Q 48.828125 37.15625 52.796875 32.3125 
Q 56.78125 27.484375 56.78125 20.515625 
Q 56.78125 9.90625 50.3125 4.234375 
Q 43.84375 -1.421875 31.78125 -1.421875 
Q 19.734375 -1.421875 13.25 4.234375 
Q 6.78125 9.90625 6.78125 20.515625 
Q 6.78125 27.484375 10.78125 32.3125 
Q 14.796875 37.15625 21.921875 38.8125 
z
M 18.3125 54.390625 
Q 18.3125 48.734375 21.84375 45.5625 
Q 25.390625 42.390625 31.78125 42.390625 
Q 38.140625 42.390625 41.71875 45.5625 
Q 45.3125 48.734375 45.3125 54.390625 
Q 45.3125 60.0625 41.71875 63.234375 
Q 38.140625 66.40625 31.78125 66.40625 
Q 25.390625 66.40625 21.84375 63.234375 
Q 18.3125 60.0625 18.3125 54.390625 
z
" id="DejaVuSans-56"/>
       </defs>
       <use xlink:href="#DejaVuSans-48"/>
       <use x="63.623047" xlink:href="#DejaVuSans-46"/>
       <use x="95.410156" xlink:href="#DejaVuSans-56"/>
      </g>
     </g>
    </g>
    <g id="ytick_6">
     <g id="line2d_14">
      <g>
       <use style="stroke:#000000;stroke-width:0.8;" x="57.6" xlink:href="#m5df2b4f56f" y="137.347162"/>
      </g>
     </g>
     <g id="text_15">
      <!-- 1.0 -->
      <g transform="translate(34.696875 141.14638)scale(0.1 -0.1)">
       <use xlink:href="#DejaVuSans-49"/>
       <use x="63.623047" xlink:href="#DejaVuSans-46"/>
       <use x="95.410156" xlink:href="#DejaVuSans-48"/>
      </g>
     </g>
    </g>
    <g id="ytick_7">
     <g id="line2d_15">
      <g>
       <use style="stroke:#000000;stroke-width:0.8;" x="57.6" xlink:href="#m5df2b4f56f" y="105.534759"/>
      </g>
     </g>
     <g id="text_16">
      <!-- 1.2 -->
      <g transform="translate(34.696875 109.333977)scale(0.1 -0.1)">
       <use xlink:href="#DejaVuSans-49"/>
       <use x="63.623047" xlink:href="#DejaVuSans-46"/>
       <use x="95.410156" xlink:href="#DejaVuSans-50"/>
      </g>
     </g>
    </g>
    <g id="ytick_8">
     <g id="line2d_16">
      <g>
       <use style="stroke:#000000;stroke-width:0.8;" x="57.6" xlink:href="#m5df2b4f56f" y="73.722356"/>
      </g>
     </g>
     <g id="text_17">
      <!-- 1.4 -->
      <g transform="translate(34.696875 77.521575)scale(0.1 -0.1)">
       <use xlink:href="#DejaVuSans-49"/>
       <use x="63.623047" xlink:href="#DejaVuSans-46"/>
       <use x="95.410156" xlink:href="#DejaVuSans-52"/>
      </g>
     </g>
    </g>
    <g id="ytick_9">
     <g id="line2d_17">
      <g>
       <use style="stroke:#000000;stroke-width:0.8;" x="57.6" xlink:href="#m5df2b4f56f" y="41.909953"/>
      </g>
     </g>
     <g id="text_18">
      <!-- 1.6 -->
      <g transform="translate(34.696875 45.709172)scale(0.1 -0.1)">
       <use xlink:href="#DejaVuSans-49"/>
       <use x="63.623047" xlink:href="#DejaVuSans-46"/>
       <use x="95.410156" xlink:href="#DejaVuSans-54"/>
      </g>
     </g>
    </g>
    <g id="text_19">
     <!-- Throughput_night[Bit/s] -->
     <g transform="translate(28.339062 233.899094)rotate(-90)scale(0.1 -0.1)">
      <defs>
       <path d="M -0.296875 72.90625 
L 61.375 72.90625 
L 61.375 64.59375 
L 35.5 64.59375 
L 35.5 0 
L 25.59375 0 
L 25.59375 64.59375 
L -0.296875 64.59375 
z
" id="DejaVuSans-84"/>
       <path d="M 45.40625 27.984375 
Q 45.40625 37.75 41.375 43.109375 
Q 37.359375 48.484375 30.078125 48.484375 
Q 22.859375 48.484375 18.828125 43.109375 
Q 14.796875 37.75 14.796875 27.984375 
Q 14.796875 18.265625 18.828125 12.890625 
Q 22.859375 7.515625 30.078125 7.515625 
Q 37.359375 7.515625 41.375 12.890625 
Q 45.40625 18.265625 45.40625 27.984375 
z
M 54.390625 6.78125 
Q 54.390625 -7.171875 48.1875 -13.984375 
Q 42 -20.796875 29.203125 -20.796875 
Q 24.46875 -20.796875 20.265625 -20.09375 
Q 16.0625 -19.390625 12.109375 -17.921875 
L 12.109375 -9.1875 
Q 16.0625 -11.328125 19.921875 -12.34375 
Q 23.78125 -13.375 27.78125 -13.375 
Q 36.625 -13.375 41.015625 -8.765625 
Q 45.40625 -4.15625 45.40625 5.171875 
L 45.40625 9.625 
Q 42.625 4.78125 38.28125 2.390625 
Q 33.9375 0 27.875 0 
Q 17.828125 0 11.671875 7.65625 
Q 5.515625 15.328125 5.515625 27.984375 
Q 5.515625 40.671875 11.671875 48.328125 
Q 17.828125 56 27.875 56 
Q 33.9375 56 38.28125 53.609375 
Q 42.625 51.21875 45.40625 46.390625 
L 45.40625 54.6875 
L 54.390625 54.6875 
z
" id="DejaVuSans-103"/>
       <path d="M 50.984375 -16.609375 
L 50.984375 -23.578125 
L -0.984375 -23.578125 
L -0.984375 -16.609375 
z
" id="DejaVuSans-95"/>
       <path d="M 9.421875 54.6875 
L 18.40625 54.6875 
L 18.40625 0 
L 9.421875 0 
z
M 9.421875 75.984375 
L 18.40625 75.984375 
L 18.40625 64.59375 
L 9.421875 64.59375 
z
" id="DejaVuSans-105"/>
       <path d="M 8.59375 75.984375 
L 29.296875 75.984375 
L 29.296875 69 
L 17.578125 69 
L 17.578125 -6.203125 
L 29.296875 -6.203125 
L 29.296875 -13.1875 
L 8.59375 -13.1875 
z
" id="DejaVuSans-91"/>
       <path d="M 19.671875 34.8125 
L 19.671875 8.109375 
L 35.5 8.109375 
Q 43.453125 8.109375 47.28125 11.40625 
Q 51.125 14.703125 51.125 21.484375 
Q 51.125 28.328125 47.28125 31.5625 
Q 43.453125 34.8125 35.5 34.8125 
z
M 19.671875 64.796875 
L 19.671875 42.828125 
L 34.28125 42.828125 
Q 41.5 42.828125 45.03125 45.53125 
Q 48.578125 48.25 48.578125 53.8125 
Q 48.578125 59.328125 45.03125 62.0625 
Q 41.5 64.796875 34.28125 64.796875 
z
M 9.8125 72.90625 
L 35.015625 72.90625 
Q 46.296875 72.90625 52.390625 68.21875 
Q 58.5 63.53125 58.5 54.890625 
Q 58.5 48.1875 55.375 44.234375 
Q 52.25 40.28125 46.1875 39.3125 
Q 53.46875 37.75 57.5 32.78125 
Q 61.53125 27.828125 61.53125 20.40625 
Q 61.53125 10.640625 54.890625 5.3125 
Q 48.25 0 35.984375 0 
L 9.8125 0 
z
" id="DejaVuSans-66"/>
       <path d="M 25.390625 72.90625 
L 33.6875 72.90625 
L 8.296875 -9.28125 
L 0 -9.28125 
z
" id="DejaVuSans-47"/>
       <path d="M 44.28125 53.078125 
L 44.28125 44.578125 
Q 40.484375 46.53125 36.375 47.5 
Q 32.28125 48.484375 27.875 48.484375 
Q 21.1875 48.484375 17.84375 46.4375 
Q 14.5 44.390625 14.5 40.28125 
Q 14.5 37.15625 16.890625 35.375 
Q 19.28125 33.59375 26.515625 31.984375 
L 29.59375 31.296875 
Q 39.15625 29.25 43.1875 25.515625 
Q 47.21875 21.78125 47.21875 15.09375 
Q 47.21875 7.46875 41.1875 3.015625 
Q 35.15625 -1.421875 24.609375 -1.421875 
Q 20.21875 -1.421875 15.453125 -0.5625 
Q 10.6875 0.296875 5.421875 2 
L 5.421875 11.28125 
Q 10.40625 8.6875 15.234375 7.390625 
Q 20.0625 6.109375 24.8125 6.109375 
Q 31.15625 6.109375 34.5625 8.28125 
Q 37.984375 10.453125 37.984375 14.40625 
Q 37.984375 18.0625 35.515625 20.015625 
Q 33.0625 21.96875 24.703125 23.78125 
L 21.578125 24.515625 
Q 13.234375 26.265625 9.515625 29.90625 
Q 5.8125 33.546875 5.8125 39.890625 
Q 5.8125 47.609375 11.28125 51.796875 
Q 16.75 56 26.8125 56 
Q 31.78125 56 36.171875 55.265625 
Q 40.578125 54.546875 44.28125 53.078125 
z
" id="DejaVuSans-115"/>
       <path d="M 30.421875 75.984375 
L 30.421875 -13.1875 
L 9.71875 -13.1875 
L 9.71875 -6.203125 
L 21.390625 -6.203125 
L 21.390625 69 
L 9.71875 69 
L 9.71875 75.984375 
z
" id="DejaVuSans-93"/>
      </defs>
      <use xlink:href="#DejaVuSans-84"/>
      <use x="61.083984" xlink:href="#DejaVuSans-104"/>
      <use x="124.462891" xlink:href="#DejaVuSans-114"/>
      <use x="163.326172" xlink:href="#DejaVuSans-111"/>
      <use x="224.507812" xlink:href="#DejaVuSans-117"/>
      <use x="287.886719" xlink:href="#DejaVuSans-103"/>
      <use x="351.363281" xlink:href="#DejaVuSans-104"/>
      <use x="414.742188" xlink:href="#DejaVuSans-112"/>
      <use x="478.21875" xlink:href="#DejaVuSans-117"/>
      <use x="541.597656" xlink:href="#DejaVuSans-116"/>
      <use x="580.806641" xlink:href="#DejaVuSans-95"/>
      <use x="630.806641" xlink:href="#DejaVuSans-110"/>
      <use x="694.185547" xlink:href="#DejaVuSans-105"/>
      <use x="721.96875" xlink:href="#DejaVuSans-103"/>
      <use x="785.445312" xlink:href="#DejaVuSans-104"/>
      <use x="848.824219" xlink:href="#DejaVuSans-116"/>
      <use x="888.033203" xlink:href="#DejaVuSans-91"/>
      <use x="927.046875" xlink:href="#DejaVuSans-66"/>
      <use x="995.650391" xlink:href="#DejaVuSans-105"/>
      <use x="1023.433594" xlink:href="#DejaVuSans-116"/>
      <use x="1062.642578" xlink:href="#DejaVuSans-47"/>
      <use x="1096.333984" xlink:href="#DejaVuSans-115"/>
      <use x="1148.433594" xlink:href="#DejaVuSans-93"/>
     </g>
    </g>
    <g id="text_20">
     <!-- 1e7 -->
     <g transform="translate(57.6 38.472)scale(0.1 -0.1)">
      <use xlink:href="#DejaVuSans-49"/>
      <use x="63.623047" xlink:href="#DejaVuSans-101"/>
      <use x="125.146484" xlink:href="#DejaVuSans-55"/>
     </g>
    </g>
   </g>
   <g id="line2d_18">
    <path clip-path="url(#p530cb9b1a8)" d="M 73.832727 76.883145 
L 75.26529 83.969953 
L 77.235064 85.631125 
L 79.025767 76.32181 
L 80.27926 80.649521 
L 80.45833 77.249463 
L 80.995541 76.320424 
L 82.069963 73.10591 
L 82.607174 69.872563 
L 83.144385 80.469522 
L 83.323456 80.834722 
L 83.860667 76.964734 
L 84.576948 82.03508 
L 85.114159 81.299868 
L 85.830441 89.127788 
L 86.367652 80.099618 
L 87.442074 80.102928 
L 89.411848 100.186641 
L 92.814184 87.006566 
L 93.172325 82.589688 
L 98.007225 76.599549 
L 98.365365 76.968728 
L 99.260717 100.464735 
L 99.797928 104.79995 
L 101.051421 78.625792 
L 105.170039 76.688158 
L 106.244461 80.376814 
L 108.035164 74.016609 
L 108.751446 102.486814 
L 109.288657 77.346974 
L 110.004938 89.866007 
L 111.258431 86.915613 
L 116.2724 81.573404 
L 117.525893 79.100042 
L 117.884033 77.793454 
L 120.749159 81.851968 
L 121.465441 79.638495 
L 122.002652 80.28603 
L 122.360792 79.728063 
L 122.718933 68.582168 
L 123.256144 80.560654 
L 123.614285 78.263357 
L 123.793355 81.157915 
L 124.151496 76.87926 
L 124.330566 67.864039 
L 124.509636 70.792126 
L 124.688707 77.250514 
L 125.046848 78.812762 
L 125.225918 67.952548 
L 125.404988 68.398304 
L 125.584059 71.165 
L 126.47941 82.86181 
L 126.837551 92.258121 
L 127.016621 68.765668 
L 127.195692 69.977481 
L 127.374762 67.299166 
L 127.553832 72.822614 
L 127.911973 64.721157 
L 128.449184 77.155038 
L 128.628255 73.564045 
L 130.239888 92.821544 
L 130.418958 76.04279 
L 130.956169 87.471313 
L 131.135239 79.181236 
L 131.31431 77.888836 
L 132.030591 75.213719 
L 132.567802 69.042524 
L 132.746873 80.929218 
L 132.925943 78.256464 
L 133.105013 80.470818 
L 133.284084 78.258754 
L 133.821295 73.832891 
L 134.716646 81.300019 
L 134.895717 79.729667 
L 135.253857 95.582286 
L 135.611998 60.105724 
L 136.50735 79.36238 
L 136.68642 72.450039 
L 137.044561 82.771244 
L 138.118983 75.121991 
L 138.298053 77.519045 
L 138.656194 76.688114 
L 138.835265 87.932789 
L 139.014335 81.114695 
L 139.372476 78.531271 
L 139.551546 75.766653 
L 139.730616 80.560891 
L 139.909687 80.482887 
L 140.267827 78.348807 
L 140.446898 79.918594 
L 140.625968 79.361576 
L 140.805038 82.31413 
L 140.984109 77.977947 
L 141.342249 79.453463 
L 141.52132 81.121476 
L 142.058531 75.767911 
L 142.416672 74.664508 
L 142.595742 73.648238 
L 142.953883 83.786363 
L 143.312023 80.007753 
L 143.491094 75.398789 
L 143.849234 79.640055 
L 144.386445 82.95718 
L 144.565516 77.610471 
L 144.744586 77.441021 
L 144.923656 79.45611 
L 145.460867 97.418407 
L 145.639938 72.452794 
L 145.819008 75.490297 
L 146.177149 75.954742 
L 146.53529 76.238491 
L 146.89343 80.465657 
L 147.251571 82.493329 
L 147.430641 82.400668 
L 147.788782 77.982621 
L 147.967852 80.653944 
L 148.146923 78.347586 
L 148.325993 78.552533 
L 148.505063 81.301417 
L 148.684134 80.465095 
L 148.863204 78.255918 
L 149.042274 62.973888 
L 149.400415 68.4897 
L 149.579486 75.582224 
L 149.758556 89.493495 
L 149.937626 73.008471 
L 150.116697 77.795356 
L 150.295767 76.68851 
L 150.474837 72.174422 
L 150.653908 71.897303 
L 150.832978 81.571857 
L 151.012048 72.460878 
L 151.191119 84.887857 
L 151.370189 79.0867 
L 151.549259 79.6396 
L 151.9074 77.981136 
L 152.08647 81.208648 
L 152.265541 81.48014 
L 152.623681 78.810564 
L 152.802752 72.364096 
L 152.981822 78.714848 
L 153.160893 92.265266 
L 153.519033 89.311603 
L 153.698104 76.147317 
L 153.877174 77.149798 
L 154.056244 89.590978 
L 154.235315 75.677198 
L 154.414385 80.930489 
L 154.772526 62.971203 
L 154.951596 76.780416 
L 155.309737 78.441128 
L 155.846948 83.97042 
L 156.026018 81.847097 
L 156.205089 72.450084 
L 156.384159 72.273855 
L 156.563229 85.814929 
L 157.279511 72.173772 
L 157.637651 84.338303 
L 157.995792 76.503752 
L 158.174862 77.148811 
L 158.353933 77.333787 
L 158.712073 83.412988 
L 158.891144 83.323376 
L 159.070214 78.076099 
L 159.249284 65.734112 
L 159.428355 76.783579 
L 159.786496 75.862727 
L 160.144636 83.692367 
L 160.323707 76.046029 
L 160.502777 78.072584 
L 160.860918 78.070728 
L 161.039988 77.427161 
L 161.219058 80.283631 
L 161.398129 74.570586 
L 161.577199 76.319433 
L 161.756269 63.156894 
L 161.93534 72.548456 
L 162.11441 74.568745 
L 162.29348 84.156282 
L 162.472551 77.150587 
L 162.651621 63.055136 
L 162.830691 83.795866 
L 163.188832 87.283446 
L 163.367903 78.162876 
L 163.546973 82.123498 
L 163.726043 76.963988 
L 164.084184 77.980262 
L 164.263254 80.838947 
L 164.442325 72.729393 
L 164.800465 83.140683 
L 165.158606 73.83209 
L 165.516747 79.819951 
L 165.695817 74.861962 
L 165.874887 85.727714 
L 166.053958 75.122699 
L 166.233028 78.259234 
L 166.591169 72.365552 
L 166.770239 80.194727 
L 166.94931 77.05765 
L 167.30745 80.652757 
L 167.486521 88.663818 
L 167.665591 80.007883 
L 167.844661 84.702504 
L 168.023732 83.511821 
L 168.202802 77.797608 
L 168.560943 75.954852 
L 168.740013 85.167657 
L 168.919083 75.306464 
L 169.098154 75.307083 
L 169.277224 68.121219 
L 169.635365 80.193949 
L 169.814435 78.449345 
L 169.993505 82.860422 
L 170.172576 82.953253 
L 170.351646 81.942655 
L 170.709787 112.985813 
L 170.888857 79.729125 
L 171.067928 74.204661 
L 171.246998 83.229269 
L 171.426068 80.374697 
L 171.605139 89.404225 
L 171.784209 87.753215 
L 172.14235 80.653814 
L 172.32142 80.467233 
L 172.50049 84.060825 
L 172.679561 76.689938 
L 173.037701 109.302671 
L 173.216772 73.561059 
L 173.395842 78.172958 
L 173.574913 87.838725 
L 173.753983 91.337026 
L 173.933053 78.447493 
L 174.291194 74.937074 
L 174.470264 87.562456 
L 174.828405 77.15028 
L 175.007475 81.118634 
L 175.186546 78.993031 
L 175.365616 81.755164 
L 175.544686 71.07754 
L 175.902827 75.958952 
L 176.081897 76.597505 
L 176.260968 77.803816 
L 176.440038 76.047462 
L 176.619108 78.716067 
L 176.798179 109.853819 
L 176.977249 82.135432 
L 177.15632 75.122986 
L 177.33539 78.451394 
L 177.872601 78.62307 
L 178.051671 82.124055 
L 178.230742 73.844954 
L 178.409812 80.928227 
L 178.767953 76.319213 
L 179.126093 79.178738 
L 179.305164 78.807823 
L 179.484234 78.164731 
L 179.842375 82.519786 
L 180.200515 79.639058 
L 180.379586 75.490341 
L 180.737727 83.138251 
L 180.916797 80.652498 
L 181.095867 64.474545 
L 181.274938 85.992822 
L 181.633078 83.238925 
L 181.812149 84.33773 
L 181.991219 76.781668 
L 182.34936 73.382565 
L 182.52843 80.28724 
L 183.244711 81.756667 
L 183.781922 121.278944 
L 184.498204 76.319697 
L 184.677274 78.992379 
L 184.856345 69.599861 
L 185.393556 89.680332 
L 185.751696 77.517207 
L 185.930767 90.327619 
L 186.288907 74.200106 
L 186.467978 81.846604 
L 186.826118 78.070357 
L 187.005189 82.953915 
L 187.184259 76.963922 
L 187.72147 85.623684 
L 188.079611 80.653361 
L 188.258681 86.829544 
L 188.616822 80.743804 
L 188.795892 87.006483 
L 188.974963 84.610568 
L 189.154033 85.255959 
L 189.512174 71.529967 
L 189.691244 76.78314 
L 189.870314 75.954654 
L 190.049385 78.256573 
L 190.407525 78.535715 
L 190.586596 84.611267 
L 190.765666 69.871113 
L 191.123807 76.595922 
L 191.661018 83.324612 
L 191.840088 72.178817 
L 192.019159 83.60071 
L 192.377299 78.410215 
L 192.55637 69.413456 
L 192.73544 83.138443 
L 193.093581 80.467665 
L 193.272651 73.465881 
L 193.451721 81.112412 
L 193.630792 78.624507 
L 193.809862 74.292321 
L 193.988932 88.023975 
L 194.347073 85.256741 
L 194.526144 89.883685 
L 194.884284 74.660805 
L 195.063355 84.796281 
L 195.421495 76.780899 
L 195.600566 80.741625 
L 195.779636 80.471012 
L 195.958706 81.849822 
L 196.316847 80.376901 
L 196.495917 76.602187 
L 196.674988 84.242953 
L 197.033128 74.200795 
L 197.212199 75.77261 
L 197.92848 78.075815 
L 198.286621 78.438774 
L 198.465691 79.362054 
L 198.644762 84.163434 
L 198.823832 82.215324 
L 199.181973 77.056049 
L 199.361043 79.915953 
L 199.540113 77.795116 
L 200.435465 77.425277 
L 200.793606 82.403793 
L 200.972676 80.377916 
L 201.330817 87.652952 
L 201.688958 74.573869 
L 201.868028 72.449972 
L 202.047098 81.762119 
L 202.226169 98.432855 
L 202.405239 78.442283 
L 203.300591 85.995536 
L 203.479661 76.227373 
L 203.837802 80.376037 
L 204.195942 77.242998 
L 204.375013 78.531946 
L 204.554083 76.238315 
L 204.912224 69.31872 
L 205.270365 73.55502 
L 205.449435 84.063351 
L 205.807576 72.085661 
L 205.986646 86.63844 
L 206.165716 85.9072 
L 206.344787 77.61699 
L 206.702927 89.217323 
L 206.881998 88.020891 
L 207.419209 77.425277 
L 207.598279 84.521387 
L 207.777349 83.506903 
L 208.13549 86.17741 
L 208.31456 86.64039 
L 208.493631 75.305801 
L 209.030842 91.337908 
L 209.926194 80.833364 
L 210.105264 79.636414 
L 210.284334 73.923749 
L 210.463405 80.096374 
L 210.642475 76.876911 
L 211.000616 83.320969 
L 211.358756 84.242571 
L 211.716897 86.91708 
L 212.254108 86.640558 
L 212.433179 74.942588 
L 212.791319 80.097737 
L 212.97039 82.585326 
L 213.14946 87.376889 
L 213.507601 75.588562 
L 213.686671 85.53432 
L 214.044812 75.954477 
L 214.223882 88.949201 
L 214.402952 77.610908 
L 214.582023 85.072109 
L 214.761093 77.334991 
L 215.119234 73.375785 
L 215.298304 79.456392 
L 215.477375 74.577308 
L 215.656445 81.94169 
L 215.835515 82.311368 
L 216.193656 81.294835 
L 216.372726 77.436094 
L 216.551797 84.984422 
L 216.909937 74.754018 
L 217.089008 77.79446 
L 217.268078 67.848202 
L 217.447148 84.335122 
L 217.626219 64.625813 
L 217.805289 85.255748 
L 217.984359 77.251413 
L 218.16343 76.059646 
L 218.3425 85.722026 
L 218.52157 78.811565 
L 218.700641 77.886214 
L 218.879711 77.615021 
L 219.058782 80.192543 
L 219.237852 77.888574 
L 219.416922 83.321267 
L 219.775063 77.88746 
L 219.954133 86.916451 
L 220.133204 77.242121 
L 220.312274 77.522394 
L 220.849485 83.873875 
L 221.028555 79.824543 
L 221.386696 76.412352 
L 221.565766 78.440278 
L 221.923907 80.282464 
L 222.102977 109.033022 
L 222.282048 76.326586 
L 222.461118 73.556134 
L 222.640189 79.004031 
L 223.1774 70.792013 
L 223.53554 74.945157 
L 223.893681 85.901685 
L 224.072751 83.512098 
L 224.251822 87.558383 
L 224.430892 84.153226 
L 224.609962 72.267019 
L 224.789033 85.256593 
L 224.968103 73.758755 
L 225.326244 103.137716 
L 225.505314 80.558517 
L 225.684384 84.519374 
L 225.863455 78.071951 
L 226.221596 79.176935 
L 226.400666 295.488 
L 226.579736 79.363486 
L 226.758807 83.786278 
L 227.296018 86.638041 
L 227.833229 75.860985 
L 228.37044 86.916661 
L 228.54951 83.045251 
L 228.72858 76.41101 
L 229.086721 76.137626 
L 229.265792 77.339154 
L 229.803003 78.993727 
L 229.982073 70.154007 
L 230.877425 91.79876 
L 231.056495 69.7825 
L 231.414636 84.05868 
L 231.593706 78.806582 
L 231.772776 85.717981 
L 232.130917 83.695664 
L 232.489058 74.111981 
L 232.668128 78.809107 
L 232.847199 71.719342 
L 233.205339 65.640582 
L 233.56348 82.677666 
L 233.74255 79.360426 
L 233.921621 78.627099 
L 234.100691 87.836702 
L 234.279761 83.597262 
L 234.458832 73.64904 
L 234.637902 78.34848 
L 234.816972 77.989021 
L 234.996043 70.796796 
L 235.891394 77.885406 
L 236.070465 82.214831 
L 236.249535 78.346474 
L 236.428606 81.297868 
L 236.607676 80.55951 
L 236.786746 86.183612 
L 236.965817 72.459086 
L 237.144887 76.689696 
L 237.323957 61.125322 
L 237.682098 101.379973 
L 238.040239 64.902925 
L 238.398379 75.673777 
L 238.57745 72.092188 
L 238.75652 83.044931 
L 239.114661 71.161802 
L 239.293731 78.622635 
L 239.651872 83.045379 
L 240.010013 75.306309 
L 240.189083 88.399087 
L 240.547224 86.455615 
L 240.726294 77.517841 
L 240.905364 77.614146 
L 241.084435 119.997657 
L 241.621646 80.562575 
L 241.979786 75.030196 
L 242.158857 84.426909 
L 242.696068 85.441984 
L 243.412349 74.021368 
L 243.59142 79.642592 
L 243.94956 74.394017 
L 244.307701 74.939266 
L 244.486771 83.324271 
L 244.665842 83.599688 
L 245.023982 77.704127 
L 245.203053 78.353517 
L 245.740264 294.290364 
L 245.919334 82.403621 
L 246.277475 80.379752 
L 246.635616 80.931179 
L 246.814686 84.521662 
L 246.993756 76.596054 
L 248.068178 82.031564 
L 248.247249 294.658951 
L 248.78446 75.772721 
L 248.96353 68.767284 
L 249.1426 85.446308 
L 249.500741 75.674174 
L 249.679811 78.259016 
L 249.858882 83.785151 
L 250.037952 80.927408 
L 250.217023 57.992688 
L 250.933304 71.162613 
L 251.112374 76.872103 
L 251.470515 80.654591 
L 252.365867 80.19317 
L 252.544937 71.253477 
L 252.724007 76.693124 
L 253.082148 80.194208 
L 253.9775 76.043958 
L 254.335641 78.714652 
L 254.514711 74.023281 
L 255.230992 91.429234 
L 255.947274 86.458743 
L 256.126344 78.165386 
L 256.305414 81.664541 
L 256.484485 75.675344 
L 256.842625 75.858537 
L 257.200766 276.786748 
L 257.737977 80.372818 
L 257.917048 75.404159 
L 258.096118 84.610653 
L 258.454259 83.230718 
L 258.633329 92.000528 
L 258.99147 76.227769 
L 259.528681 78.542796 
L 259.707751 77.424314 
L 259.886821 81.764651 
L 260.065892 79.915607 
L 260.603103 86.1813 
L 260.782173 80.101998 
L 261.140314 78.070816 
L 261.498455 81.387176 
L 261.856595 79.177087 
L 262.214736 84.98326 
L 262.751947 78.530879 
L 262.931017 66.281559 
L 263.289158 77.795465 
L 263.647299 81.66394 
L 263.826369 74.487559 
L 264.36358 80.479325 
L 264.542651 75.858603 
L 265.079862 78.62736 
L 265.438002 78.438317 
L 265.617073 75.962413 
L 265.796143 76.41233 
L 265.975213 81.208648 
L 266.154284 80.566028 
L 266.333354 79.271557 
L 266.512424 123.128884 
L 266.691495 81.760552 
L 266.870565 82.129862 
L 267.228706 80.193235 
L 267.407776 223.170777 
L 267.765917 78.167175 
L 267.944987 81.94392 
L 268.303128 80.097023 
L 269.19848 74.568856 
L 269.55662 76.413144 
L 269.914761 77.610624 
L 270.272902 76.13485 
L 270.631042 77.241376 
L 270.810113 81.846883 
L 270.989183 79.178998 
L 271.705465 74.936431 
L 271.884535 87.83689 
L 272.421746 79.37182 
L 272.600816 291.434463 
L 272.958957 83.877425 
L 273.138027 76.68807 
L 273.317098 82.864928 
L 273.675238 82.129904 
L 273.854309 81.1159 
L 274.57059 73.005589 
L 274.928731 77.240784 
L 275.465942 82.128105 
L 276.003153 77.982425 
L 276.540364 76.321172 
L 276.898505 77.518235 
L 277.077575 81.849007 
L 277.614786 78.532731 
L 277.793856 76.41244 
L 277.972927 70.612954 
L 278.868279 82.961257 
L 279.047349 75.771198 
L 279.40549 78.45903 
L 280.658982 81.479366 
L 281.017123 76.872674 
L 284.061319 81.206173 
L 284.419459 105.534103 
L 284.7776 79.640532 
L 285.672952 81.484481 
L 286.031093 79.085504 
L 287.105515 77.243414 
L 287.284585 111.055999 
L 287.821796 53.568 
L 288.359007 78.072082 
L 288.717148 81.945636 
L 288.896218 100.834907 
L 289.6125 90.145557 
L 290.149711 101.020439 
L 290.328781 80.741625 
L 290.507851 80.837955 
L 291.761344 89.229899 
L 292.835766 80.926136 
L 293.372977 86.735178 
L 293.552047 82.677217 
L 293.731118 69.690896 
L 293.910188 81.392078 
L 295.16368 82.127333 
L 295.879962 80.74169 
L 296.238103 81.571234 
L 296.775314 93.639422 
L 297.670665 86.270062 
L 298.028806 82.032658 
L 298.386947 84.34511 
L 299.103228 79.823417 
L 299.461369 84.243802 
L 300.17765 60.476446 
L 300.893932 84.244163 
L 301.073002 94.375724 
L 301.252072 81.109571 
L 301.789283 89.420373 
L 302.684635 87.653578 
L 302.863706 90.047594 
L 303.042776 72.545949 
L 304.296268 85.439431 
L 304.475339 78.719789 
L 304.833479 81.205119 
L 305.37069 86.091972 
L 305.728831 92.738262 
L 305.907902 83.136695 
L 306.445113 83.053316 
L 307.161394 82.772505 
L 308.235816 82.492345 
L 308.773027 82.215346 
L 308.952097 86.084759 
L 309.131168 84.703308 
L 309.310238 78.716851 
L 309.489309 78.532426 
L 309.847449 83.602199 
L 310.02652 74.394438 
L 310.563731 89.034626 
L 310.742801 88.482809 
L 311.817223 84.15295 
L 313.249786 79.731335 
L 314.145138 85.624148 
L 315.040489 86.179281 
L 315.21956 78.075444 
L 315.39863 81.29875 
L 316.114911 83.873897 
L 316.831193 87.468492 
L 317.189334 82.584364 
L 317.726545 76.78079 
L 318.442826 82.03628 
L 318.800967 80.289055 
L 318.980037 89.310982 
L 319.338178 86.273697 
L 320.949811 77.060699 
L 322.740514 81.017466 
L 324.531218 81.203247 
L 330.261469 78.34739 
L 334.559158 77.887066 
L 334.738228 78.161981 
L 338.319635 81.394292 
L 345.482449 79.729385 
L 347.094082 84.613236 
L 353.898755 80.193019 
L 354.435967 85.444283 
L 357.838303 81.669588 
L 367.149961 77.794438 
L 368.582524 81.846432 
L 373.059283 80.188781 
L 378.073253 78.073021 
L 394.726795 84.335546 
L 397.23378 79.914784 
L 398.487273 80.655281 
L 398.487273 80.655281 
" style="fill:none;stroke:#0000ff;stroke-linecap:square;stroke-width:1.5;"/>
   </g>
   <g id="patch_3">
    <path d="M 57.6 307.584 
L 57.6 41.472 
" style="fill:none;stroke:#000000;stroke-linecap:square;stroke-linejoin:miter;stroke-width:0.8;"/>
   </g>
   <g id="patch_4">
    <path d="M 414.72 307.584 
L 414.72 41.472 
" style="fill:none;stroke:#000000;stroke-linecap:square;stroke-linejoin:miter;stroke-width:0.8;"/>
   </g>
   <g id="patch_5">
    <path d="M 57.6 307.584 
L 414.72 307.584 
" style="fill:none;stroke:#000000;stroke-linecap:square;stroke-linejoin:miter;stroke-width:0.8;"/>
   </g>
   <g id="patch_6">
    <path d="M 57.6 41.472 
L 414.72 41.472 
" style="fill:none;stroke:#000000;stroke-linecap:square;stroke-linejoin:miter;stroke-width:0.8;"/>
   </g>
   <g id="text_21">
    <!-- temperature-&gt;Throughput_night -->
    <g transform="translate(137.975625 35.472)scale(0.12 -0.12)">
     <defs>
      <path d="M 4.890625 31.390625 
L 31.203125 31.390625 
L 31.203125 23.390625 
L 4.890625 23.390625 
z
" id="DejaVuSans-45"/>
      <path d="M 10.59375 49.21875 
L 10.59375 58.109375 
L 73.1875 35.40625 
L 73.1875 27.296875 
L 10.59375 4.59375 
L 10.59375 13.484375 
L 60.890625 31.296875 
z
" id="DejaVuSans-62"/>
     </defs>
     <use xlink:href="#DejaVuSans-116"/>
     <use x="39.208984" xlink:href="#DejaVuSans-101"/>
     <use x="100.732422" xlink:href="#DejaVuSans-109"/>
     <use x="198.144531" xlink:href="#DejaVuSans-112"/>
     <use x="261.621094" xlink:href="#DejaVuSans-101"/>
     <use x="323.144531" xlink:href="#DejaVuSans-114"/>
     <use x="364.257812" xlink:href="#DejaVuSans-97"/>
     <use x="425.537109" xlink:href="#DejaVuSans-116"/>
     <use x="464.746094" xlink:href="#DejaVuSans-117"/>
     <use x="528.125" xlink:href="#DejaVuSans-114"/>
     <use x="566.988281" xlink:href="#DejaVuSans-101"/>
     <use x="628.511719" xlink:href="#DejaVuSans-45"/>
     <use x="664.595703" xlink:href="#DejaVuSans-62"/>
     <use x="748.384766" xlink:href="#DejaVuSans-84"/>
     <use x="809.46875" xlink:href="#DejaVuSans-104"/>
     <use x="872.847656" xlink:href="#DejaVuSans-114"/>
     <use x="911.710938" xlink:href="#DejaVuSans-111"/>
     <use x="972.892578" xlink:href="#DejaVuSans-117"/>
     <use x="1036.271484" xlink:href="#DejaVuSans-103"/>
     <use x="1099.748047" xlink:href="#DejaVuSans-104"/>
     <use x="1163.126953" xlink:href="#DejaVuSans-112"/>
     <use x="1226.603516" xlink:href="#DejaVuSans-117"/>
     <use x="1289.982422" xlink:href="#DejaVuSans-116"/>
     <use x="1329.191406" xlink:href="#DejaVuSans-95"/>
     <use x="1379.191406" xlink:href="#DejaVuSans-110"/>
     <use x="1442.570312" xlink:href="#DejaVuSans-105"/>
     <use x="1470.353516" xlink:href="#DejaVuSans-103"/>
     <use x="1533.830078" xlink:href="#DejaVuSans-104"/>
     <use x="1597.208984" xlink:href="#DejaVuSans-116"/>
    </g>
   </g>
  </g>
  <g id="legend_1">
   <g id="patch_7">
    <path d="M 303.057813 22.95625 
L 453.8 22.95625 
Q 455.8 22.95625 455.8 20.95625 
L 455.8 7 
Q 455.8 5 453.8 5 
L 303.057813 5 
Q 301.057813 5 301.057813 7 
L 301.057813 20.95625 
Q 301.057813 22.95625 303.057813 22.95625 
z
" style="fill:#ffffff;opacity:0.8;stroke:#cccccc;stroke-linejoin:miter;"/>
   </g>
   <g id="line2d_19">
    <path d="M 305.057813 13.098437 
L 325.057813 13.098437 
" style="fill:none;stroke:#0000ff;stroke-linecap:square;stroke-width:1.5;"/>
   </g>
   <g id="line2d_20"/>
   <g id="text_22">
    <!-- Throughput_night[Bit/s] -->
    <g transform="translate(333.057813 16.598437)scale(0.1 -0.1)">
     <use xlink:href="#DejaVuSans-84"/>
     <use x="61.083984" xlink:href="#DejaVuSans-104"/>
     <use x="124.462891" xlink:href="#DejaVuSans-114"/>
     <use x="163.326172" xlink:href="#DejaVuSans-111"/>
     <use x="224.507812" xlink:href="#DejaVuSans-117"/>
     <use x="287.886719" xlink:href="#DejaVuSans-103"/>
     <use x="351.363281" xlink:href="#DejaVuSans-104"/>
     <use x="414.742188" xlink:href="#DejaVuSans-112"/>
     <use x="478.21875" xlink:href="#DejaVuSans-117"/>
     <use x="541.597656" xlink:href="#DejaVuSans-116"/>
     <use x="580.806641" xlink:href="#DejaVuSans-95"/>
     <use x="630.806641" xlink:href="#DejaVuSans-110"/>
     <use x="694.185547" xlink:href="#DejaVuSans-105"/>
     <use x="721.96875" xlink:href="#DejaVuSans-103"/>
     <use x="785.445312" xlink:href="#DejaVuSans-104"/>
     <use x="848.824219" xlink:href="#DejaVuSans-116"/>
     <use x="888.033203" xlink:href="#DejaVuSans-91"/>
     <use x="927.046875" xlink:href="#DejaVuSans-66"/>
     <use x="995.650391" xlink:href="#DejaVuSans-105"/>
     <use x="1023.433594" xlink:href="#DejaVuSans-116"/>
     <use x="1062.642578" xlink:href="#DejaVuSans-47"/>
     <use x="1096.333984" xlink:href="#DejaVuSans-115"/>
     <use x="1148.433594" xlink:href="#DejaVuSans-93"/>
    </g>
   </g>
  </g>
 </g>
 <defs>
  <clipPath id="p530cb9b1a8">
   <rect height="266.112" width="357.12" x="57.6" y="41.472"/>
  </clipPath>
 </defs>
</svg>
