<?xml version="1.0" encoding="utf-8" standalone="no"?>
<!DOCTYPE svg PUBLIC "-//W3C//DTD SVG 1.1//EN"
  "http://www.w3.org/Graphics/SVG/1.1/DTD/svg11.dtd">
<!-- Created with matplotlib (https://matplotlib.org/) -->
<svg height="345.6pt" version="1.1" viewBox="0 0 460.8 345.6" width="460.8pt" xmlns="http://www.w3.org/2000/svg" xmlns:xlink="http://www.w3.org/1999/xlink">
 <metadata>
  <rdf:RDF xmlns:cc="http://creativecommons.org/ns#" xmlns:dc="http://purl.org/dc/elements/1.1/" xmlns:rdf="http://www.w3.org/1999/02/22-rdf-syntax-ns#">
   <cc:Work>
    <dc:type rdf:resource="http://purl.org/dc/dcmitype/StillImage"/>
    <dc:date>2022-07-08T16:23:19.676501</dc:date>
    <dc:format>image/svg+xml</dc:format>
    <dc:creator>
     <cc:Agent>
      <dc:title>Matplotlib v3.3.2, https://matplotlib.org/</dc:title>
     </cc:Agent>
    </dc:creator>
   </cc:Work>
  </rdf:RDF>
 </metadata>
 <defs>
  <style type="text/css">*{stroke-linecap:butt;stroke-linejoin:round;}</style>
 </defs>
 <g id="figure_1">
  <g id="patch_1">
   <path d="M 0 345.6 
L 460.8 345.6 
L 460.8 0 
L 0 0 
z
" style="fill:#ffffff;"/>
  </g>
  <g id="axes_1">
   <g id="patch_2">
    <path d="M 57.6 307.584 
L 414.72 307.584 
L 414.72 41.472 
L 57.6 41.472 
z
" style="fill:#ffffff;"/>
   </g>
   <g id="matplotlib.axis_1">
    <g id="xtick_1">
     <g id="line2d_1">
      <defs>
       <path d="M 0 0 
L 0 3.5 
" id="m5dfe8eb796" style="stroke:#000000;stroke-width:0.8;"/>
      </defs>
      <g>
       <use style="stroke:#000000;stroke-width:0.8;" x="69.218348" xlink:href="#m5dfe8eb796" y="307.584"/>
      </g>
     </g>
     <g id="text_1">
      <!-- 0 -->
      <g transform="translate(66.037098 322.182437)scale(0.1 -0.1)">
       <defs>
        <path d="M 31.78125 66.40625 
Q 24.171875 66.40625 20.328125 58.90625 
Q 16.5 51.421875 16.5 36.375 
Q 16.5 21.390625 20.328125 13.890625 
Q 24.171875 6.390625 31.78125 6.390625 
Q 39.453125 6.390625 43.28125 13.890625 
Q 47.125 21.390625 47.125 36.375 
Q 47.125 51.421875 43.28125 58.90625 
Q 39.453125 66.40625 31.78125 66.40625 
z
M 31.78125 74.21875 
Q 44.046875 74.21875 50.515625 64.515625 
Q 56.984375 54.828125 56.984375 36.375 
Q 56.984375 17.96875 50.515625 8.265625 
Q 44.046875 -1.421875 31.78125 -1.421875 
Q 19.53125 -1.421875 13.0625 8.265625 
Q 6.59375 17.96875 6.59375 36.375 
Q 6.59375 54.828125 13.0625 64.515625 
Q 19.53125 74.21875 31.78125 74.21875 
z
" id="DejaVuSans-48"/>
       </defs>
       <use xlink:href="#DejaVuSans-48"/>
      </g>
     </g>
    </g>
    <g id="xtick_2">
     <g id="line2d_2">
      <g>
       <use style="stroke:#000000;stroke-width:0.8;" x="135.138053" xlink:href="#m5dfe8eb796" y="307.584"/>
      </g>
     </g>
     <g id="text_2">
      <!-- 2 -->
      <g transform="translate(131.956803 322.182437)scale(0.1 -0.1)">
       <defs>
        <path d="M 19.1875 8.296875 
L 53.609375 8.296875 
L 53.609375 0 
L 7.328125 0 
L 7.328125 8.296875 
Q 12.9375 14.109375 22.625 23.890625 
Q 32.328125 33.6875 34.8125 36.53125 
Q 39.546875 41.84375 41.421875 45.53125 
Q 43.3125 49.21875 43.3125 52.78125 
Q 43.3125 58.59375 39.234375 62.25 
Q 35.15625 65.921875 28.609375 65.921875 
Q 23.96875 65.921875 18.8125 64.3125 
Q 13.671875 62.703125 7.8125 59.421875 
L 7.8125 69.390625 
Q 13.765625 71.78125 18.9375 73 
Q 24.125 74.21875 28.421875 74.21875 
Q 39.75 74.21875 46.484375 68.546875 
Q 53.21875 62.890625 53.21875 53.421875 
Q 53.21875 48.921875 51.53125 44.890625 
Q 49.859375 40.875 45.40625 35.40625 
Q 44.1875 33.984375 37.640625 27.21875 
Q 31.109375 20.453125 19.1875 8.296875 
z
" id="DejaVuSans-50"/>
       </defs>
       <use xlink:href="#DejaVuSans-50"/>
      </g>
     </g>
    </g>
    <g id="xtick_3">
     <g id="line2d_3">
      <g>
       <use style="stroke:#000000;stroke-width:0.8;" x="201.057757" xlink:href="#m5dfe8eb796" y="307.584"/>
      </g>
     </g>
     <g id="text_3">
      <!-- 4 -->
      <g transform="translate(197.876507 322.182437)scale(0.1 -0.1)">
       <defs>
        <path d="M 37.796875 64.3125 
L 12.890625 25.390625 
L 37.796875 25.390625 
z
M 35.203125 72.90625 
L 47.609375 72.90625 
L 47.609375 25.390625 
L 58.015625 25.390625 
L 58.015625 17.1875 
L 47.609375 17.1875 
L 47.609375 0 
L 37.796875 0 
L 37.796875 17.1875 
L 4.890625 17.1875 
L 4.890625 26.703125 
z
" id="DejaVuSans-52"/>
       </defs>
       <use xlink:href="#DejaVuSans-52"/>
      </g>
     </g>
    </g>
    <g id="xtick_4">
     <g id="line2d_4">
      <g>
       <use style="stroke:#000000;stroke-width:0.8;" x="266.977462" xlink:href="#m5dfe8eb796" y="307.584"/>
      </g>
     </g>
     <g id="text_4">
      <!-- 6 -->
      <g transform="translate(263.796212 322.182437)scale(0.1 -0.1)">
       <defs>
        <path d="M 33.015625 40.375 
Q 26.375 40.375 22.484375 35.828125 
Q 18.609375 31.296875 18.609375 23.390625 
Q 18.609375 15.53125 22.484375 10.953125 
Q 26.375 6.390625 33.015625 6.390625 
Q 39.65625 6.390625 43.53125 10.953125 
Q 47.40625 15.53125 47.40625 23.390625 
Q 47.40625 31.296875 43.53125 35.828125 
Q 39.65625 40.375 33.015625 40.375 
z
M 52.59375 71.296875 
L 52.59375 62.3125 
Q 48.875 64.0625 45.09375 64.984375 
Q 41.3125 65.921875 37.59375 65.921875 
Q 27.828125 65.921875 22.671875 59.328125 
Q 17.53125 52.734375 16.796875 39.40625 
Q 19.671875 43.65625 24.015625 45.921875 
Q 28.375 48.1875 33.59375 48.1875 
Q 44.578125 48.1875 50.953125 41.515625 
Q 57.328125 34.859375 57.328125 23.390625 
Q 57.328125 12.15625 50.6875 5.359375 
Q 44.046875 -1.421875 33.015625 -1.421875 
Q 20.359375 -1.421875 13.671875 8.265625 
Q 6.984375 17.96875 6.984375 36.375 
Q 6.984375 53.65625 15.1875 63.9375 
Q 23.390625 74.21875 37.203125 74.21875 
Q 40.921875 74.21875 44.703125 73.484375 
Q 48.484375 72.75 52.59375 71.296875 
z
" id="DejaVuSans-54"/>
       </defs>
       <use xlink:href="#DejaVuSans-54"/>
      </g>
     </g>
    </g>
    <g id="xtick_5">
     <g id="line2d_5">
      <g>
       <use style="stroke:#000000;stroke-width:0.8;" x="332.897167" xlink:href="#m5dfe8eb796" y="307.584"/>
      </g>
     </g>
     <g id="text_5">
      <!-- 8 -->
      <g transform="translate(329.715917 322.182437)scale(0.1 -0.1)">
       <defs>
        <path d="M 31.78125 34.625 
Q 24.75 34.625 20.71875 30.859375 
Q 16.703125 27.09375 16.703125 20.515625 
Q 16.703125 13.921875 20.71875 10.15625 
Q 24.75 6.390625 31.78125 6.390625 
Q 38.8125 6.390625 42.859375 10.171875 
Q 46.921875 13.96875 46.921875 20.515625 
Q 46.921875 27.09375 42.890625 30.859375 
Q 38.875 34.625 31.78125 34.625 
z
M 21.921875 38.8125 
Q 15.578125 40.375 12.03125 44.71875 
Q 8.5 49.078125 8.5 55.328125 
Q 8.5 64.0625 14.71875 69.140625 
Q 20.953125 74.21875 31.78125 74.21875 
Q 42.671875 74.21875 48.875 69.140625 
Q 55.078125 64.0625 55.078125 55.328125 
Q 55.078125 49.078125 51.53125 44.71875 
Q 48 40.375 41.703125 38.8125 
Q 48.828125 37.15625 52.796875 32.3125 
Q 56.78125 27.484375 56.78125 20.515625 
Q 56.78125 9.90625 50.3125 4.234375 
Q 43.84375 -1.421875 31.78125 -1.421875 
Q 19.734375 -1.421875 13.25 4.234375 
Q 6.78125 9.90625 6.78125 20.515625 
Q 6.78125 27.484375 10.78125 32.3125 
Q 14.796875 37.15625 21.921875 38.8125 
z
M 18.3125 54.390625 
Q 18.3125 48.734375 21.84375 45.5625 
Q 25.390625 42.390625 31.78125 42.390625 
Q 38.140625 42.390625 41.71875 45.5625 
Q 45.3125 48.734375 45.3125 54.390625 
Q 45.3125 60.0625 41.71875 63.234375 
Q 38.140625 66.40625 31.78125 66.40625 
Q 25.390625 66.40625 21.84375 63.234375 
Q 18.3125 60.0625 18.3125 54.390625 
z
" id="DejaVuSans-56"/>
       </defs>
       <use xlink:href="#DejaVuSans-56"/>
      </g>
     </g>
    </g>
    <g id="xtick_6">
     <g id="line2d_6">
      <g>
       <use style="stroke:#000000;stroke-width:0.8;" x="398.816871" xlink:href="#m5dfe8eb796" y="307.584"/>
      </g>
     </g>
     <g id="text_6">
      <!-- 10 -->
      <g transform="translate(392.454371 322.182437)scale(0.1 -0.1)">
       <defs>
        <path d="M 12.40625 8.296875 
L 28.515625 8.296875 
L 28.515625 63.921875 
L 10.984375 60.40625 
L 10.984375 69.390625 
L 28.421875 72.90625 
L 38.28125 72.90625 
L 38.28125 8.296875 
L 54.390625 8.296875 
L 54.390625 0 
L 12.40625 0 
z
" id="DejaVuSans-49"/>
       </defs>
       <use xlink:href="#DejaVuSans-49"/>
       <use x="63.623047" xlink:href="#DejaVuSans-48"/>
      </g>
     </g>
    </g>
    <g id="text_7">
     <!-- wind_speed from OpenWeatherMap -->
     <g transform="translate(146.962344 335.860562)scale(0.1 -0.1)">
      <defs>
       <path d="M 4.203125 54.6875 
L 13.1875 54.6875 
L 24.421875 12.015625 
L 35.59375 54.6875 
L 46.1875 54.6875 
L 57.421875 12.015625 
L 68.609375 54.6875 
L 77.59375 54.6875 
L 63.28125 0 
L 52.6875 0 
L 40.921875 44.828125 
L 29.109375 0 
L 18.5 0 
z
" id="DejaVuSans-119"/>
       <path d="M 9.421875 54.6875 
L 18.40625 54.6875 
L 18.40625 0 
L 9.421875 0 
z
M 9.421875 75.984375 
L 18.40625 75.984375 
L 18.40625 64.59375 
L 9.421875 64.59375 
z
" id="DejaVuSans-105"/>
       <path d="M 54.890625 33.015625 
L 54.890625 0 
L 45.90625 0 
L 45.90625 32.71875 
Q 45.90625 40.484375 42.875 44.328125 
Q 39.84375 48.1875 33.796875 48.1875 
Q 26.515625 48.1875 22.3125 43.546875 
Q 18.109375 38.921875 18.109375 30.90625 
L 18.109375 0 
L 9.078125 0 
L 9.078125 54.6875 
L 18.109375 54.6875 
L 18.109375 46.1875 
Q 21.34375 51.125 25.703125 53.5625 
Q 30.078125 56 35.796875 56 
Q 45.21875 56 50.046875 50.171875 
Q 54.890625 44.34375 54.890625 33.015625 
z
" id="DejaVuSans-110"/>
       <path d="M 45.40625 46.390625 
L 45.40625 75.984375 
L 54.390625 75.984375 
L 54.390625 0 
L 45.40625 0 
L 45.40625 8.203125 
Q 42.578125 3.328125 38.25 0.953125 
Q 33.9375 -1.421875 27.875 -1.421875 
Q 17.96875 -1.421875 11.734375 6.484375 
Q 5.515625 14.40625 5.515625 27.296875 
Q 5.515625 40.1875 11.734375 48.09375 
Q 17.96875 56 27.875 56 
Q 33.9375 56 38.25 53.625 
Q 42.578125 51.265625 45.40625 46.390625 
z
M 14.796875 27.296875 
Q 14.796875 17.390625 18.875 11.75 
Q 22.953125 6.109375 30.078125 6.109375 
Q 37.203125 6.109375 41.296875 11.75 
Q 45.40625 17.390625 45.40625 27.296875 
Q 45.40625 37.203125 41.296875 42.84375 
Q 37.203125 48.484375 30.078125 48.484375 
Q 22.953125 48.484375 18.875 42.84375 
Q 14.796875 37.203125 14.796875 27.296875 
z
" id="DejaVuSans-100"/>
       <path d="M 50.984375 -16.609375 
L 50.984375 -23.578125 
L -0.984375 -23.578125 
L -0.984375 -16.609375 
z
" id="DejaVuSans-95"/>
       <path d="M 44.28125 53.078125 
L 44.28125 44.578125 
Q 40.484375 46.53125 36.375 47.5 
Q 32.28125 48.484375 27.875 48.484375 
Q 21.1875 48.484375 17.84375 46.4375 
Q 14.5 44.390625 14.5 40.28125 
Q 14.5 37.15625 16.890625 35.375 
Q 19.28125 33.59375 26.515625 31.984375 
L 29.59375 31.296875 
Q 39.15625 29.25 43.1875 25.515625 
Q 47.21875 21.78125 47.21875 15.09375 
Q 47.21875 7.46875 41.1875 3.015625 
Q 35.15625 -1.421875 24.609375 -1.421875 
Q 20.21875 -1.421875 15.453125 -0.5625 
Q 10.6875 0.296875 5.421875 2 
L 5.421875 11.28125 
Q 10.40625 8.6875 15.234375 7.390625 
Q 20.0625 6.109375 24.8125 6.109375 
Q 31.15625 6.109375 34.5625 8.28125 
Q 37.984375 10.453125 37.984375 14.40625 
Q 37.984375 18.0625 35.515625 20.015625 
Q 33.0625 21.96875 24.703125 23.78125 
L 21.578125 24.515625 
Q 13.234375 26.265625 9.515625 29.90625 
Q 5.8125 33.546875 5.8125 39.890625 
Q 5.8125 47.609375 11.28125 51.796875 
Q 16.75 56 26.8125 56 
Q 31.78125 56 36.171875 55.265625 
Q 40.578125 54.546875 44.28125 53.078125 
z
" id="DejaVuSans-115"/>
       <path d="M 18.109375 8.203125 
L 18.109375 -20.796875 
L 9.078125 -20.796875 
L 9.078125 54.6875 
L 18.109375 54.6875 
L 18.109375 46.390625 
Q 20.953125 51.265625 25.265625 53.625 
Q 29.59375 56 35.59375 56 
Q 45.5625 56 51.78125 48.09375 
Q 58.015625 40.1875 58.015625 27.296875 
Q 58.015625 14.40625 51.78125 6.484375 
Q 45.5625 -1.421875 35.59375 -1.421875 
Q 29.59375 -1.421875 25.265625 0.953125 
Q 20.953125 3.328125 18.109375 8.203125 
z
M 48.6875 27.296875 
Q 48.6875 37.203125 44.609375 42.84375 
Q 40.53125 48.484375 33.40625 48.484375 
Q 26.265625 48.484375 22.1875 42.84375 
Q 18.109375 37.203125 18.109375 27.296875 
Q 18.109375 17.390625 22.1875 11.75 
Q 26.265625 6.109375 33.40625 6.109375 
Q 40.53125 6.109375 44.609375 11.75 
Q 48.6875 17.390625 48.6875 27.296875 
z
" id="DejaVuSans-112"/>
       <path d="M 56.203125 29.59375 
L 56.203125 25.203125 
L 14.890625 25.203125 
Q 15.484375 15.921875 20.484375 11.0625 
Q 25.484375 6.203125 34.421875 6.203125 
Q 39.59375 6.203125 44.453125 7.46875 
Q 49.3125 8.734375 54.109375 11.28125 
L 54.109375 2.78125 
Q 49.265625 0.734375 44.1875 -0.34375 
Q 39.109375 -1.421875 33.890625 -1.421875 
Q 20.796875 -1.421875 13.15625 6.1875 
Q 5.515625 13.8125 5.515625 26.8125 
Q 5.515625 40.234375 12.765625 48.109375 
Q 20.015625 56 32.328125 56 
Q 43.359375 56 49.78125 48.890625 
Q 56.203125 41.796875 56.203125 29.59375 
z
M 47.21875 32.234375 
Q 47.125 39.59375 43.09375 43.984375 
Q 39.0625 48.390625 32.421875 48.390625 
Q 24.90625 48.390625 20.390625 44.140625 
Q 15.875 39.890625 15.1875 32.171875 
z
" id="DejaVuSans-101"/>
       <path id="DejaVuSans-32"/>
       <path d="M 37.109375 75.984375 
L 37.109375 68.5 
L 28.515625 68.5 
Q 23.6875 68.5 21.796875 66.546875 
Q 19.921875 64.59375 19.921875 59.515625 
L 19.921875 54.6875 
L 34.71875 54.6875 
L 34.71875 47.703125 
L 19.921875 47.703125 
L 19.921875 0 
L 10.890625 0 
L 10.890625 47.703125 
L 2.296875 47.703125 
L 2.296875 54.6875 
L 10.890625 54.6875 
L 10.890625 58.5 
Q 10.890625 67.625 15.140625 71.796875 
Q 19.390625 75.984375 28.609375 75.984375 
z
" id="DejaVuSans-102"/>
       <path d="M 41.109375 46.296875 
Q 39.59375 47.171875 37.8125 47.578125 
Q 36.03125 48 33.890625 48 
Q 26.265625 48 22.1875 43.046875 
Q 18.109375 38.09375 18.109375 28.8125 
L 18.109375 0 
L 9.078125 0 
L 9.078125 54.6875 
L 18.109375 54.6875 
L 18.109375 46.1875 
Q 20.953125 51.171875 25.484375 53.578125 
Q 30.03125 56 36.53125 56 
Q 37.453125 56 38.578125 55.875 
Q 39.703125 55.765625 41.0625 55.515625 
z
" id="DejaVuSans-114"/>
       <path d="M 30.609375 48.390625 
Q 23.390625 48.390625 19.1875 42.75 
Q 14.984375 37.109375 14.984375 27.296875 
Q 14.984375 17.484375 19.15625 11.84375 
Q 23.34375 6.203125 30.609375 6.203125 
Q 37.796875 6.203125 41.984375 11.859375 
Q 46.1875 17.53125 46.1875 27.296875 
Q 46.1875 37.015625 41.984375 42.703125 
Q 37.796875 48.390625 30.609375 48.390625 
z
M 30.609375 56 
Q 42.328125 56 49.015625 48.375 
Q 55.71875 40.765625 55.71875 27.296875 
Q 55.71875 13.875 49.015625 6.21875 
Q 42.328125 -1.421875 30.609375 -1.421875 
Q 18.84375 -1.421875 12.171875 6.21875 
Q 5.515625 13.875 5.515625 27.296875 
Q 5.515625 40.765625 12.171875 48.375 
Q 18.84375 56 30.609375 56 
z
" id="DejaVuSans-111"/>
       <path d="M 52 44.1875 
Q 55.375 50.25 60.0625 53.125 
Q 64.75 56 71.09375 56 
Q 79.640625 56 84.28125 50.015625 
Q 88.921875 44.046875 88.921875 33.015625 
L 88.921875 0 
L 79.890625 0 
L 79.890625 32.71875 
Q 79.890625 40.578125 77.09375 44.375 
Q 74.3125 48.1875 68.609375 48.1875 
Q 61.625 48.1875 57.5625 43.546875 
Q 53.515625 38.921875 53.515625 30.90625 
L 53.515625 0 
L 44.484375 0 
L 44.484375 32.71875 
Q 44.484375 40.625 41.703125 44.40625 
Q 38.921875 48.1875 33.109375 48.1875 
Q 26.21875 48.1875 22.15625 43.53125 
Q 18.109375 38.875 18.109375 30.90625 
L 18.109375 0 
L 9.078125 0 
L 9.078125 54.6875 
L 18.109375 54.6875 
L 18.109375 46.1875 
Q 21.1875 51.21875 25.484375 53.609375 
Q 29.78125 56 35.6875 56 
Q 41.65625 56 45.828125 52.96875 
Q 50 49.953125 52 44.1875 
z
" id="DejaVuSans-109"/>
       <path d="M 39.40625 66.21875 
Q 28.65625 66.21875 22.328125 58.203125 
Q 16.015625 50.203125 16.015625 36.375 
Q 16.015625 22.609375 22.328125 14.59375 
Q 28.65625 6.59375 39.40625 6.59375 
Q 50.140625 6.59375 56.421875 14.59375 
Q 62.703125 22.609375 62.703125 36.375 
Q 62.703125 50.203125 56.421875 58.203125 
Q 50.140625 66.21875 39.40625 66.21875 
z
M 39.40625 74.21875 
Q 54.734375 74.21875 63.90625 63.9375 
Q 73.09375 53.65625 73.09375 36.375 
Q 73.09375 19.140625 63.90625 8.859375 
Q 54.734375 -1.421875 39.40625 -1.421875 
Q 24.03125 -1.421875 14.8125 8.828125 
Q 5.609375 19.09375 5.609375 36.375 
Q 5.609375 53.65625 14.8125 63.9375 
Q 24.03125 74.21875 39.40625 74.21875 
z
" id="DejaVuSans-79"/>
       <path d="M 3.328125 72.90625 
L 13.28125 72.90625 
L 28.609375 11.28125 
L 43.890625 72.90625 
L 54.984375 72.90625 
L 70.3125 11.28125 
L 85.59375 72.90625 
L 95.609375 72.90625 
L 77.296875 0 
L 64.890625 0 
L 49.515625 63.28125 
L 33.984375 0 
L 21.578125 0 
z
" id="DejaVuSans-87"/>
       <path d="M 34.28125 27.484375 
Q 23.390625 27.484375 19.1875 25 
Q 14.984375 22.515625 14.984375 16.5 
Q 14.984375 11.71875 18.140625 8.90625 
Q 21.296875 6.109375 26.703125 6.109375 
Q 34.1875 6.109375 38.703125 11.40625 
Q 43.21875 16.703125 43.21875 25.484375 
L 43.21875 27.484375 
z
M 52.203125 31.203125 
L 52.203125 0 
L 43.21875 0 
L 43.21875 8.296875 
Q 40.140625 3.328125 35.546875 0.953125 
Q 30.953125 -1.421875 24.3125 -1.421875 
Q 15.921875 -1.421875 10.953125 3.296875 
Q 6 8.015625 6 15.921875 
Q 6 25.140625 12.171875 29.828125 
Q 18.359375 34.515625 30.609375 34.515625 
L 43.21875 34.515625 
L 43.21875 35.40625 
Q 43.21875 41.609375 39.140625 45 
Q 35.0625 48.390625 27.6875 48.390625 
Q 23 48.390625 18.546875 47.265625 
Q 14.109375 46.140625 10.015625 43.890625 
L 10.015625 52.203125 
Q 14.9375 54.109375 19.578125 55.046875 
Q 24.21875 56 28.609375 56 
Q 40.484375 56 46.34375 49.84375 
Q 52.203125 43.703125 52.203125 31.203125 
z
" id="DejaVuSans-97"/>
       <path d="M 18.3125 70.21875 
L 18.3125 54.6875 
L 36.8125 54.6875 
L 36.8125 47.703125 
L 18.3125 47.703125 
L 18.3125 18.015625 
Q 18.3125 11.328125 20.140625 9.421875 
Q 21.96875 7.515625 27.59375 7.515625 
L 36.8125 7.515625 
L 36.8125 0 
L 27.59375 0 
Q 17.1875 0 13.234375 3.875 
Q 9.28125 7.765625 9.28125 18.015625 
L 9.28125 47.703125 
L 2.6875 47.703125 
L 2.6875 54.6875 
L 9.28125 54.6875 
L 9.28125 70.21875 
z
" id="DejaVuSans-116"/>
       <path d="M 54.890625 33.015625 
L 54.890625 0 
L 45.90625 0 
L 45.90625 32.71875 
Q 45.90625 40.484375 42.875 44.328125 
Q 39.84375 48.1875 33.796875 48.1875 
Q 26.515625 48.1875 22.3125 43.546875 
Q 18.109375 38.921875 18.109375 30.90625 
L 18.109375 0 
L 9.078125 0 
L 9.078125 75.984375 
L 18.109375 75.984375 
L 18.109375 46.1875 
Q 21.34375 51.125 25.703125 53.5625 
Q 30.078125 56 35.796875 56 
Q 45.21875 56 50.046875 50.171875 
Q 54.890625 44.34375 54.890625 33.015625 
z
" id="DejaVuSans-104"/>
       <path d="M 9.8125 72.90625 
L 24.515625 72.90625 
L 43.109375 23.296875 
L 61.8125 72.90625 
L 76.515625 72.90625 
L 76.515625 0 
L 66.890625 0 
L 66.890625 64.015625 
L 48.09375 14.015625 
L 38.1875 14.015625 
L 19.390625 64.015625 
L 19.390625 0 
L 9.8125 0 
z
" id="DejaVuSans-77"/>
      </defs>
      <use xlink:href="#DejaVuSans-119"/>
      <use x="81.787109" xlink:href="#DejaVuSans-105"/>
      <use x="109.570312" xlink:href="#DejaVuSans-110"/>
      <use x="172.949219" xlink:href="#DejaVuSans-100"/>
      <use x="236.425781" xlink:href="#DejaVuSans-95"/>
      <use x="286.425781" xlink:href="#DejaVuSans-115"/>
      <use x="338.525391" xlink:href="#DejaVuSans-112"/>
      <use x="402.001953" xlink:href="#DejaVuSans-101"/>
      <use x="463.525391" xlink:href="#DejaVuSans-101"/>
      <use x="525.048828" xlink:href="#DejaVuSans-100"/>
      <use x="588.525391" xlink:href="#DejaVuSans-32"/>
      <use x="620.3125" xlink:href="#DejaVuSans-102"/>
      <use x="655.517578" xlink:href="#DejaVuSans-114"/>
      <use x="694.380859" xlink:href="#DejaVuSans-111"/>
      <use x="755.5625" xlink:href="#DejaVuSans-109"/>
      <use x="852.974609" xlink:href="#DejaVuSans-32"/>
      <use x="884.761719" xlink:href="#DejaVuSans-79"/>
      <use x="963.472656" xlink:href="#DejaVuSans-112"/>
      <use x="1026.949219" xlink:href="#DejaVuSans-101"/>
      <use x="1088.472656" xlink:href="#DejaVuSans-110"/>
      <use x="1151.851562" xlink:href="#DejaVuSans-87"/>
      <use x="1244.853516" xlink:href="#DejaVuSans-101"/>
      <use x="1306.376953" xlink:href="#DejaVuSans-97"/>
      <use x="1367.65625" xlink:href="#DejaVuSans-116"/>
      <use x="1406.865234" xlink:href="#DejaVuSans-104"/>
      <use x="1470.244141" xlink:href="#DejaVuSans-101"/>
      <use x="1531.767578" xlink:href="#DejaVuSans-114"/>
      <use x="1572.880859" xlink:href="#DejaVuSans-77"/>
      <use x="1659.160156" xlink:href="#DejaVuSans-97"/>
      <use x="1720.439453" xlink:href="#DejaVuSans-112"/>
     </g>
    </g>
   </g>
   <g id="matplotlib.axis_2">
    <g id="ytick_1">
     <g id="line2d_7">
      <defs>
       <path d="M 0 0 
L -3.5 0 
" id="mb2249de7a7" style="stroke:#000000;stroke-width:0.8;"/>
      </defs>
      <g>
       <use style="stroke:#000000;stroke-width:0.8;" x="57.6" xlink:href="#mb2249de7a7" y="279.479802"/>
      </g>
     </g>
     <g id="text_8">
      <!-- 0.2 -->
      <g transform="translate(34.696875 283.279021)scale(0.1 -0.1)">
       <defs>
        <path d="M 10.6875 12.40625 
L 21 12.40625 
L 21 0 
L 10.6875 0 
z
" id="DejaVuSans-46"/>
       </defs>
       <use xlink:href="#DejaVuSans-48"/>
       <use x="63.623047" xlink:href="#DejaVuSans-46"/>
       <use x="95.410156" xlink:href="#DejaVuSans-50"/>
      </g>
     </g>
    </g>
    <g id="ytick_2">
     <g id="line2d_8">
      <g>
       <use style="stroke:#000000;stroke-width:0.8;" x="57.6" xlink:href="#mb2249de7a7" y="245.423796"/>
      </g>
     </g>
     <g id="text_9">
      <!-- 0.4 -->
      <g transform="translate(34.696875 249.223014)scale(0.1 -0.1)">
       <use xlink:href="#DejaVuSans-48"/>
       <use x="63.623047" xlink:href="#DejaVuSans-46"/>
       <use x="95.410156" xlink:href="#DejaVuSans-52"/>
      </g>
     </g>
    </g>
    <g id="ytick_3">
     <g id="line2d_9">
      <g>
       <use style="stroke:#000000;stroke-width:0.8;" x="57.6" xlink:href="#mb2249de7a7" y="211.367789"/>
      </g>
     </g>
     <g id="text_10">
      <!-- 0.6 -->
      <g transform="translate(34.696875 215.167008)scale(0.1 -0.1)">
       <use xlink:href="#DejaVuSans-48"/>
       <use x="63.623047" xlink:href="#DejaVuSans-46"/>
       <use x="95.410156" xlink:href="#DejaVuSans-54"/>
      </g>
     </g>
    </g>
    <g id="ytick_4">
     <g id="line2d_10">
      <g>
       <use style="stroke:#000000;stroke-width:0.8;" x="57.6" xlink:href="#mb2249de7a7" y="177.311783"/>
      </g>
     </g>
     <g id="text_11">
      <!-- 0.8 -->
      <g transform="translate(34.696875 181.111001)scale(0.1 -0.1)">
       <use xlink:href="#DejaVuSans-48"/>
       <use x="63.623047" xlink:href="#DejaVuSans-46"/>
       <use x="95.410156" xlink:href="#DejaVuSans-56"/>
      </g>
     </g>
    </g>
    <g id="ytick_5">
     <g id="line2d_11">
      <g>
       <use style="stroke:#000000;stroke-width:0.8;" x="57.6" xlink:href="#mb2249de7a7" y="143.255776"/>
      </g>
     </g>
     <g id="text_12">
      <!-- 1.0 -->
      <g transform="translate(34.696875 147.054995)scale(0.1 -0.1)">
       <use xlink:href="#DejaVuSans-49"/>
       <use x="63.623047" xlink:href="#DejaVuSans-46"/>
       <use x="95.410156" xlink:href="#DejaVuSans-48"/>
      </g>
     </g>
    </g>
    <g id="ytick_6">
     <g id="line2d_12">
      <g>
       <use style="stroke:#000000;stroke-width:0.8;" x="57.6" xlink:href="#mb2249de7a7" y="109.19977"/>
      </g>
     </g>
     <g id="text_13">
      <!-- 1.2 -->
      <g transform="translate(34.696875 112.998989)scale(0.1 -0.1)">
       <use xlink:href="#DejaVuSans-49"/>
       <use x="63.623047" xlink:href="#DejaVuSans-46"/>
       <use x="95.410156" xlink:href="#DejaVuSans-50"/>
      </g>
     </g>
    </g>
    <g id="ytick_7">
     <g id="line2d_13">
      <g>
       <use style="stroke:#000000;stroke-width:0.8;" x="57.6" xlink:href="#mb2249de7a7" y="75.143763"/>
      </g>
     </g>
     <g id="text_14">
      <!-- 1.4 -->
      <g transform="translate(34.696875 78.942982)scale(0.1 -0.1)">
       <use xlink:href="#DejaVuSans-49"/>
       <use x="63.623047" xlink:href="#DejaVuSans-46"/>
       <use x="95.410156" xlink:href="#DejaVuSans-52"/>
      </g>
     </g>
    </g>
    <g id="text_15">
     <!-- 1e7 -->
     <g transform="translate(57.6 38.472)scale(0.1 -0.1)">
      <defs>
       <path d="M 8.203125 72.90625 
L 55.078125 72.90625 
L 55.078125 68.703125 
L 28.609375 0 
L 18.3125 0 
L 43.21875 64.59375 
L 8.203125 64.59375 
z
" id="DejaVuSans-55"/>
      </defs>
      <use xlink:href="#DejaVuSans-49"/>
      <use x="63.623047" xlink:href="#DejaVuSans-101"/>
      <use x="125.146484" xlink:href="#DejaVuSans-55"/>
     </g>
    </g>
   </g>
   <g id="line2d_14">
    <path clip-path="url(#p17fe258085)" d="M 73.832727 77.430672 
L 79.435902 78.417685 
L 80.754296 77.430601 
L 84.709479 83.254951 
L 86.357471 80.293395 
L 89.323858 79.700326 
L 90.312653 79.207351 
L 92.290245 76.049964 
L 93.608639 79.406353 
L 93.938237 76.861437 
L 94.597434 78.712404 
L 94.927033 79.206414 
L 95.256631 78.023568 
L 96.575025 72.206536 
L 97.234222 77.341614 
L 99.871011 78.324142 
L 102.1782 79.306724 
L 103.826193 67.61095 
L 104.814988 79.304499 
L 105.803784 79.897292 
L 106.133383 57.41567 
L 106.79258 78.318638 
L 107.122178 81.975189 
L 107.781375 79.600604 
L 109.099769 80.000376 
L 109.758966 75.859443 
L 110.088565 72.500764 
L 111.07736 71.42678 
L 111.736557 61.405081 
L 112.066156 73.782938 
L 112.725353 77.926547 
L 113.054952 65.702333 
L 113.714149 75.66094 
L 114.043747 77.338614 
L 115.032543 79.810051 
L 116.021338 79.012145 
L 116.680535 76.053692 
L 117.010134 80.291412 
L 117.339732 82.662507 
L 117.669331 77.335024 
L 119.317323 82.560813 
L 119.646922 72.006755 
L 120.635718 73.693164 
L 120.965316 77.333583 
L 121.294915 73.684938 
L 121.954112 63.32951 
L 122.942907 75.754616 
L 123.931703 73.593105 
L 124.920498 74.965318 
L 125.579695 80.689399 
L 125.909294 82.26395 
L 126.238892 80.204128 
L 126.568491 72.306461 
L 126.89809 71.514847 
L 127.557287 82.462445 
L 127.886885 74.971091 
L 128.216484 73.594185 
L 128.875681 67.97672 
L 129.205279 71.02246 
L 129.534878 76.052006 
L 129.864476 71.217888 
L 130.194075 61.65831 
L 130.523673 81.87636 
L 130.853272 80.293068 
L 131.512469 79.009894 
L 131.842067 78.713766 
L 132.501264 77.435087 
L 132.830863 81.082027 
L 133.49006 74.780008 
L 133.819659 73.392791 
L 134.149257 74.483842 
L 134.478856 70.928737 
L 134.808454 69.051887 
L 135.138053 75.754164 
L 135.467651 78.813094 
L 135.79725 80.001357 
L 136.126848 77.727722 
L 136.456447 77.727015 
L 136.786045 76.548936 
L 137.115644 77.036295 
L 137.445242 79.896498 
L 137.774841 78.416815 
L 138.104439 75.35955 
L 138.434038 64.226714 
L 139.422833 77.468395 
L 139.752432 74.379531 
L 140.741228 83.059344 
L 141.070826 126.447174 
L 141.400425 76.449651 
L 141.730023 75.162518 
L 142.38922 64.41628 
L 142.718819 78.916057 
L 143.048417 73.7914 
L 143.378016 77.828467 
L 143.707614 78.022037 
L 144.037213 73.884389 
L 144.69641 77.141585 
L 145.026008 73.793318 
L 145.355607 79.306302 
L 145.685205 70.133881 
L 146.014804 71.217427 
L 146.344402 60.566803 
L 146.674001 79.00905 
L 147.003599 74.280886 
L 147.333198 76.049845 
L 147.662796 68.872282 
L 147.992395 68.855328 
L 148.321994 74.375537 
L 148.981191 77.541803 
L 149.310789 77.13733 
L 149.640388 77.926523 
L 150.299585 76.654 
L 150.629183 53.568 
L 150.958782 76.152362 
L 151.28838 77.334221 
L 151.617979 75.064419 
L 151.947577 75.067304 
L 152.277176 74.8692 
L 152.936373 75.951602 
L 153.59557 72.115663 
L 153.925168 79.702899 
L 154.254767 73.784664 
L 154.584365 62.940105 
L 154.913964 77.436928 
L 155.243563 82.37145 
L 155.573161 76.250723 
L 155.90276 73.881081 
L 156.232358 73.190261 
L 156.561957 63.637248 
L 157.221154 77.036437 
L 158.209949 79.99706 
L 158.539548 77.236378 
L 158.869146 76.458493 
L 159.528343 79.60175 
L 160.18754 76.355701 
L 160.517139 79.10704 
L 161.505934 78.417238 
L 161.835533 69.442225 
L 162.165132 76.839427 
L 162.49473 78.713062 
L 162.824329 60.963671 
L 163.153927 68.653212 
L 163.483526 64.525907 
L 163.813124 75.162804 
L 164.142723 77.234795 
L 164.472321 77.926735 
L 164.80192 63.634374 
L 165.131518 70.730525 
L 165.790715 60.467826 
L 166.120314 76.446498 
L 167.109109 76.362318 
L 167.438708 78.910145 
L 167.768306 76.938429 
L 168.097905 65.903635 
L 168.427503 72.406047 
L 169.086701 77.827712 
L 169.745898 74.081465 
L 170.075496 71.809049 
L 170.405095 66.492013 
L 170.734693 69.34663 
L 171.064292 63.724226 
L 171.723489 73.881417 
L 173.041883 65.795528 
L 173.70108 74.080771 
L 174.030678 69.83789 
L 174.360277 73.781715 
L 174.689875 81.474917 
L 175.019474 80.489149 
L 175.349072 66.59214 
L 175.678671 66.983784 
L 176.337868 70.530974 
L 176.667467 67.178196 
L 176.997065 78.91174 
L 177.326664 65.507745 
L 177.656262 78.418155 
L 178.315459 69.147601 
L 179.304255 79.897456 
L 179.633853 77.234488 
L 179.963452 69.641058 
L 180.29305 73.391639 
L 180.622649 79.800048 
L 180.952247 75.95191 
L 181.611444 74.670259 
L 181.941043 295.488 
L 182.270641 69.844177 
L 182.60024 68.967034 
L 182.929838 76.740424 
L 183.259437 73.689711 
L 183.589036 77.628485 
L 183.918634 79.011184 
L 184.248233 75.364076 
L 184.90743 73.787948 
L 185.237028 73.987538 
L 185.566627 73.688728 
L 185.896225 78.022391 
L 186.225824 72.603965 
L 186.555422 76.353851 
L 186.885021 72.610566 
L 187.214619 88.380784 
L 187.544218 69.639083 
L 188.533013 75.560867 
L 189.19221 70.825287 
L 189.851407 75.169764 
L 190.181006 74.384194 
L 190.510605 79.51436 
L 190.840203 78.911764 
L 191.4994 70.433154 
L 191.828999 77.431073 
L 192.817794 79.014397 
L 193.147393 76.938571 
L 193.476991 62.740405 
L 194.136188 71.815067 
L 194.465787 81.282106 
L 194.795385 74.374485 
L 195.124984 76.551424 
L 195.784181 75.863245 
L 196.113779 70.527766 
L 196.443378 76.842125 
L 196.772976 72.120225 
L 197.432174 80.789533 
L 197.761772 75.854071 
L 198.091371 74.77275 
L 198.420969 77.824766 
L 198.750568 70.827981 
L 199.080166 77.036295 
L 199.739363 74.177095 
L 200.068962 78.320379 
L 200.39856 70.237346 
L 201.057757 81.476471 
L 201.387356 74.27768 
L 202.046553 75.952908 
L 202.376151 71.321719 
L 202.70575 77.925864 
L 203.035348 79.997761 
L 203.364947 71.119216 
L 204.024144 74.384266 
L 204.683341 78.61862 
L 205.01294 73.685106 
L 205.342538 79.20625 
L 205.672137 66.891624 
L 206.001735 67.372088 
L 206.331334 86.804821 
L 206.990531 78.614274 
L 207.320129 72.697192 
L 207.649728 79.305553 
L 207.979326 71.809459 
L 209.627319 69.352636 
L 210.945713 75.459174 
L 211.60491 69.9408 
L 211.934509 69.245589 
L 212.264107 77.739747 
L 212.923304 86.111377 
L 214.241698 76.545547 
L 214.900895 72.597701 
L 215.230494 66.881981 
L 215.560092 87.985393 
L 216.219289 77.628509 
L 216.878486 74.669304 
L 217.867282 77.139458 
L 218.19688 58.304744 
L 218.526479 81.285357 
L 219.185676 69.14677 
L 219.844873 79.208242 
L 220.50407 70.42924 
L 220.833669 79.309933 
L 221.163267 77.235197 
L 221.822464 77.826086 
L 223.140858 75.166522 
L 223.800055 62.156617 
L 224.129654 79.304967 
L 224.788851 65.498519 
L 225.118449 73.591018 
L 225.448048 75.661606 
L 226.107245 72.604832 
L 226.436844 74.670498 
L 226.766442 68.851487 
L 227.096041 71.514242 
L 227.425639 69.346654 
L 227.755238 75.106238 
L 228.084836 78.318991 
L 228.744033 76.938169 
L 229.073632 70.725207 
L 229.40323 73.492205 
L 230.392026 77.825237 
L 230.721624 76.642796 
L 231.051223 81.182741 
L 231.380821 76.050249 
L 231.71042 78.814478 
L 232.040018 78.12132 
L 232.369617 74.964722 
L 232.699216 77.157327 
L 233.028814 75.952932 
L 233.358413 80.198692 
L 233.688011 77.826039 
L 234.347208 70.03538 
L 234.676807 78.516402 
L 235.006405 77.927207 
L 235.665602 74.474184 
L 235.995201 80.696477 
L 236.654398 76.841178 
L 236.983996 79.01048 
L 237.313595 78.712592 
L 237.643193 77.726402 
L 237.972792 69.838475 
L 238.631989 75.762248 
L 238.961587 87.593951 
L 239.950383 70.823467 
L 240.279982 72.899203 
L 240.60958 56.623358 
L 240.939179 87.593296 
L 241.268777 73.685418 
L 241.598376 77.931659 
L 241.927974 72.105644 
L 242.587171 74.974121 
L 243.246368 84.049268 
L 244.235164 78.910989 
L 244.894361 74.382305 
L 245.223959 67.968739 
L 246.212755 82.660268 
L 246.542353 76.947182 
L 247.201551 76.937695 
L 248.190346 76.643151 
L 248.519945 74.869248 
L 248.849543 86.999481 
L 249.179142 74.379483 
L 249.50874 79.995682 
L 250.167937 67.673515 
L 251.156733 87.296571 
L 251.486331 87.101568 
L 252.804725 74.768572 
L 253.134324 87.78668 
L 253.463922 58.989338 
L 255.111915 77.257264 
L 255.441514 76.050083 
L 255.771112 78.614626 
L 256.100711 84.137772 
L 256.430309 83.250483 
L 257.089506 86.409358 
L 257.419105 84.532426 
L 257.748703 81.08033 
L 258.4079 76.643412 
L 258.737499 89.17019 
L 259.067097 79.012802 
L 260.71509 78.024887 
L 261.044689 72.011875 
L 261.703886 80.587329 
L 262.033484 81.774194 
L 262.692681 78.33489 
L 263.02228 73.589506 
L 263.351878 76.944012 
L 264.011075 75.264405 
L 266.318265 66.091025 
L 266.647863 88.775049 
L 267.30706 67.482645 
L 267.636659 73.288693 
L 268.295856 79.501699 
L 268.625455 75.265621 
L 268.955053 66.792463 
L 269.61425 86.9993 
L 269.943849 76.841604 
L 272.251038 73.69127 
L 273.239834 66.48648 
L 273.569432 75.369291 
L 274.228629 76.642227 
L 274.558228 79.601633 
L 274.887826 71.521406 
L 275.547024 78.515204 
L 275.876622 86.011571 
L 276.535819 79.701963 
L 276.865418 70.142108 
L 277.195016 79.206719 
L 277.524615 77.923437 
L 278.183812 79.206625 
L 279.172607 105.738084 
L 279.502206 68.364377 
L 280.161403 123.984034 
L 280.491001 78.022885 
L 280.8206 73.881776 
L 281.150198 77.925345 
L 282.468593 78.027289 
L 282.798191 73.389093 
L 283.12779 81.278761 
L 284.116585 70.435172 
L 284.446184 75.459864 
L 284.775782 90.649725 
L 285.434979 77.339465 
L 285.764578 76.843001 
L 286.094176 76.740401 
L 288.401366 74.970709 
L 288.730964 78.122191 
L 289.060563 79.909604 
L 289.390162 75.068949 
L 289.71976 79.603341 
L 290.378957 74.180661 
L 290.708556 79.896825 
L 291.697351 78.716654 
L 292.02695 83.943234 
L 292.356548 75.557012 
L 292.686147 80.093558 
L 293.345344 79.403591 
L 293.674942 72.310996 
L 294.004541 78.515979 
L 294.663738 79.304475 
L 294.993336 76.743337 
L 295.652533 79.408133 
L 295.982132 76.159008 
L 296.311731 78.643588 
L 297.959723 81.279388 
L 298.948519 80.103899 
L 299.278117 71.611583 
L 300.266913 78.424221 
L 301.585307 77.141656 
L 302.244504 80.797935 
L 303.233299 78.521384 
L 303.892497 78.910849 
L 305.210891 88.674808 
L 305.870088 79.405838 
L 306.858883 74.868198 
L 307.51808 74.675538 
L 308.836474 76.641422 
L 311.473263 83.447155 
L 316.41724 78.519904 
L 317.406036 72.901008 
L 320.042824 73.882232 
L 323.009211 70.926044 
L 324.986802 66.188708 
L 325.975598 85.123709 
L 326.964393 86.31378 
L 328.612386 75.458293 
L 329.93078 61.750712 
L 331.249174 82.263279 
L 336.193152 76.838882 
L 337.511546 76.356033 
L 340.477933 70.235594 
L 341.466728 77.628863 
L 342.125925 70.132981 
L 344.433115 75.559035 
L 347.7291 79.211803 
L 348.388297 68.165344 
L 349.047494 81.280085 
L 353.002677 63.426332 
L 353.332275 65.405677 
L 353.991472 70.929999 
L 355.309866 94.799008 
L 357.946654 76.452804 
L 371.460194 59.892419 
L 373.767383 72.215102 
L 383.984938 70.345402 
L 388.928916 74.377666 
L 396.83928 77.837423 
L 398.487273 61.380728 
L 398.487273 61.380728 
" style="fill:none;stroke:#0000ff;stroke-linecap:square;stroke-width:1.5;"/>
   </g>
   <g id="patch_3">
    <path d="M 57.6 307.584 
L 57.6 41.472 
" style="fill:none;stroke:#000000;stroke-linecap:square;stroke-linejoin:miter;stroke-width:0.8;"/>
   </g>
   <g id="patch_4">
    <path d="M 414.72 307.584 
L 414.72 41.472 
" style="fill:none;stroke:#000000;stroke-linecap:square;stroke-linejoin:miter;stroke-width:0.8;"/>
   </g>
   <g id="patch_5">
    <path d="M 57.6 307.584 
L 414.72 307.584 
" style="fill:none;stroke:#000000;stroke-linecap:square;stroke-linejoin:miter;stroke-width:0.8;"/>
   </g>
   <g id="patch_6">
    <path d="M 57.6 41.472 
L 414.72 41.472 
" style="fill:none;stroke:#000000;stroke-linecap:square;stroke-linejoin:miter;stroke-width:0.8;"/>
   </g>
   <g id="text_16">
    <!-- wind_speed-&gt;Throughput_night -->
    <g transform="translate(140.37375 35.472)scale(0.12 -0.12)">
     <defs>
      <path d="M 4.890625 31.390625 
L 31.203125 31.390625 
L 31.203125 23.390625 
L 4.890625 23.390625 
z
" id="DejaVuSans-45"/>
      <path d="M 10.59375 49.21875 
L 10.59375 58.109375 
L 73.1875 35.40625 
L 73.1875 27.296875 
L 10.59375 4.59375 
L 10.59375 13.484375 
L 60.890625 31.296875 
z
" id="DejaVuSans-62"/>
      <path d="M -0.296875 72.90625 
L 61.375 72.90625 
L 61.375 64.59375 
L 35.5 64.59375 
L 35.5 0 
L 25.59375 0 
L 25.59375 64.59375 
L -0.296875 64.59375 
z
" id="DejaVuSans-84"/>
      <path d="M 8.5 21.578125 
L 8.5 54.6875 
L 17.484375 54.6875 
L 17.484375 21.921875 
Q 17.484375 14.15625 20.5 10.265625 
Q 23.53125 6.390625 29.59375 6.390625 
Q 36.859375 6.390625 41.078125 11.03125 
Q 45.3125 15.671875 45.3125 23.6875 
L 45.3125 54.6875 
L 54.296875 54.6875 
L 54.296875 0 
L 45.3125 0 
L 45.3125 8.40625 
Q 42.046875 3.421875 37.71875 1 
Q 33.40625 -1.421875 27.6875 -1.421875 
Q 18.265625 -1.421875 13.375 4.4375 
Q 8.5 10.296875 8.5 21.578125 
z
M 31.109375 56 
z
" id="DejaVuSans-117"/>
      <path d="M 45.40625 27.984375 
Q 45.40625 37.75 41.375 43.109375 
Q 37.359375 48.484375 30.078125 48.484375 
Q 22.859375 48.484375 18.828125 43.109375 
Q 14.796875 37.75 14.796875 27.984375 
Q 14.796875 18.265625 18.828125 12.890625 
Q 22.859375 7.515625 30.078125 7.515625 
Q 37.359375 7.515625 41.375 12.890625 
Q 45.40625 18.265625 45.40625 27.984375 
z
M 54.390625 6.78125 
Q 54.390625 -7.171875 48.1875 -13.984375 
Q 42 -20.796875 29.203125 -20.796875 
Q 24.46875 -20.796875 20.265625 -20.09375 
Q 16.0625 -19.390625 12.109375 -17.921875 
L 12.109375 -9.1875 
Q 16.0625 -11.328125 19.921875 -12.34375 
Q 23.78125 -13.375 27.78125 -13.375 
Q 36.625 -13.375 41.015625 -8.765625 
Q 45.40625 -4.15625 45.40625 5.171875 
L 45.40625 9.625 
Q 42.625 4.78125 38.28125 2.390625 
Q 33.9375 0 27.875 0 
Q 17.828125 0 11.671875 7.65625 
Q 5.515625 15.328125 5.515625 27.984375 
Q 5.515625 40.671875 11.671875 48.328125 
Q 17.828125 56 27.875 56 
Q 33.9375 56 38.28125 53.609375 
Q 42.625 51.21875 45.40625 46.390625 
L 45.40625 54.6875 
L 54.390625 54.6875 
z
" id="DejaVuSans-103"/>
     </defs>
     <use xlink:href="#DejaVuSans-119"/>
     <use x="81.787109" xlink:href="#DejaVuSans-105"/>
     <use x="109.570312" xlink:href="#DejaVuSans-110"/>
     <use x="172.949219" xlink:href="#DejaVuSans-100"/>
     <use x="236.425781" xlink:href="#DejaVuSans-95"/>
     <use x="286.425781" xlink:href="#DejaVuSans-115"/>
     <use x="338.525391" xlink:href="#DejaVuSans-112"/>
     <use x="402.001953" xlink:href="#DejaVuSans-101"/>
     <use x="463.525391" xlink:href="#DejaVuSans-101"/>
     <use x="525.048828" xlink:href="#DejaVuSans-100"/>
     <use x="588.525391" xlink:href="#DejaVuSans-45"/>
     <use x="624.609375" xlink:href="#DejaVuSans-62"/>
     <use x="708.398438" xlink:href="#DejaVuSans-84"/>
     <use x="769.482422" xlink:href="#DejaVuSans-104"/>
     <use x="832.861328" xlink:href="#DejaVuSans-114"/>
     <use x="871.724609" xlink:href="#DejaVuSans-111"/>
     <use x="932.90625" xlink:href="#DejaVuSans-117"/>
     <use x="996.285156" xlink:href="#DejaVuSans-103"/>
     <use x="1059.761719" xlink:href="#DejaVuSans-104"/>
     <use x="1123.140625" xlink:href="#DejaVuSans-112"/>
     <use x="1186.617188" xlink:href="#DejaVuSans-117"/>
     <use x="1249.996094" xlink:href="#DejaVuSans-116"/>
     <use x="1289.205078" xlink:href="#DejaVuSans-95"/>
     <use x="1339.205078" xlink:href="#DejaVuSans-110"/>
     <use x="1402.583984" xlink:href="#DejaVuSans-105"/>
     <use x="1430.367188" xlink:href="#DejaVuSans-103"/>
     <use x="1493.84375" xlink:href="#DejaVuSans-104"/>
     <use x="1557.222656" xlink:href="#DejaVuSans-116"/>
    </g>
   </g>
  </g>
  <g id="legend_1">
   <g id="patch_7">
    <path d="M 415.692187 22.678125 
L 453.8 22.678125 
Q 455.8 22.678125 455.8 20.678125 
L 455.8 7 
Q 455.8 5 453.8 5 
L 415.692187 5 
Q 413.692187 5 413.692187 7 
L 413.692187 20.678125 
Q 413.692187 22.678125 415.692187 22.678125 
z
" style="fill:#ffffff;opacity:0.8;stroke:#cccccc;stroke-linejoin:miter;"/>
   </g>
   <g id="line2d_15">
    <path d="M 417.692187 13.098438 
L 437.692187 13.098438 
" style="fill:none;stroke:#0000ff;stroke-linecap:square;stroke-width:1.5;"/>
   </g>
   <g id="line2d_16"/>
   <g id="text_17">
    <!-- T -->
    <g transform="translate(445.692187 16.598438)scale(0.1 -0.1)">
     <use xlink:href="#DejaVuSans-84"/>
    </g>
   </g>
  </g>
 </g>
 <defs>
  <clipPath id="p17fe258085">
   <rect height="266.112" width="357.12" x="57.6" y="41.472"/>
  </clipPath>
 </defs>
</svg>
