<?xml version="1.0" encoding="utf-8" standalone="no"?>
<!DOCTYPE svg PUBLIC "-//W3C//DTD SVG 1.1//EN"
  "http://www.w3.org/Graphics/SVG/1.1/DTD/svg11.dtd">
<!-- Created with matplotlib (https://matplotlib.org/) -->
<svg height="2090.594375pt" version="1.1" viewBox="0 0 2059.08125 2090.594375" width="2059.08125pt" xmlns="http://www.w3.org/2000/svg" xmlns:xlink="http://www.w3.org/1999/xlink">
 <metadata>
  <rdf:RDF xmlns:cc="http://creativecommons.org/ns#" xmlns:dc="http://purl.org/dc/elements/1.1/" xmlns:rdf="http://www.w3.org/1999/02/22-rdf-syntax-ns#">
   <cc:Work>
    <dc:type rdf:resource="http://purl.org/dc/dcmitype/StillImage"/>
    <dc:date>2022-07-23T20:58:51.057074</dc:date>
    <dc:format>image/svg+xml</dc:format>
    <dc:creator>
     <cc:Agent>
      <dc:title>Matplotlib v3.3.2, https://matplotlib.org/</dc:title>
     </cc:Agent>
    </dc:creator>
   </cc:Work>
  </rdf:RDF>
 </metadata>
 <defs>
  <style type="text/css">*{stroke-linecap:butt;stroke-linejoin:round;}</style>
 </defs>
 <g id="figure_1">
  <g id="patch_1">
   <path d="M 0 2090.594375 
L 2059.08125 2090.594375 
L 2059.08125 0 
L 0 0 
z
" style="fill:#ffffff;"/>
  </g>
  <g id="axes_1">
   <g id="patch_2">
    <path d="M 40.88125 2052.76 
L 1826.48125 2052.76 
L 1826.48125 278.68 
L 40.88125 278.68 
z
" style="fill:#ffffff;"/>
   </g>
   <g id="matplotlib.axis_1">
    <g id="xtick_1">
     <g id="line2d_1">
      <defs>
       <path d="M 0 0 
L 0 3.5 
" id="m3c21631d4c" style="stroke:#000000;stroke-width:0.8;"/>
      </defs>
      <g>
       <use style="stroke:#000000;stroke-width:0.8;" x="107.152476" xlink:href="#m3c21631d4c" y="2052.76"/>
      </g>
     </g>
     <g id="text_1">
      <text style="font-family:DejaVu Sans;font-size:10px;font-stretch:normal;font-style:normal;font-weight:normal;text-anchor:middle;" transform="rotate(-0, 107.152476, 2067.358437)" x="107.152476" y="2067.358437">0</text>
     </g>
    </g>
    <g id="xtick_2">
     <g id="line2d_2">
      <g>
       <use style="stroke:#000000;stroke-width:0.8;" x="405.000683" xlink:href="#m3c21631d4c" y="2052.76"/>
      </g>
     </g>
     <g id="text_2">
      <text style="font-family:DejaVu Sans;font-size:10px;font-stretch:normal;font-style:normal;font-weight:normal;text-anchor:middle;" transform="rotate(-0, 405.000683, 2067.358437)" x="405.000683" y="2067.358437">2</text>
     </g>
    </g>
    <g id="xtick_3">
     <g id="line2d_3">
      <g>
       <use style="stroke:#000000;stroke-width:0.8;" x="702.84889" xlink:href="#m3c21631d4c" y="2052.76"/>
      </g>
     </g>
     <g id="text_3">
      <text style="font-family:DejaVu Sans;font-size:10px;font-stretch:normal;font-style:normal;font-weight:normal;text-anchor:middle;" transform="rotate(-0, 702.84889, 2067.358437)" x="702.84889" y="2067.358437">4</text>
     </g>
    </g>
    <g id="xtick_4">
     <g id="line2d_4">
      <g>
       <use style="stroke:#000000;stroke-width:0.8;" x="1000.697097" xlink:href="#m3c21631d4c" y="2052.76"/>
      </g>
     </g>
     <g id="text_4">
      <text style="font-family:DejaVu Sans;font-size:10px;font-stretch:normal;font-style:normal;font-weight:normal;text-anchor:middle;" transform="rotate(-0, 1000.697097, 2067.358437)" x="1000.697097" y="2067.358437">6</text>
     </g>
    </g>
    <g id="xtick_5">
     <g id="line2d_5">
      <g>
       <use style="stroke:#000000;stroke-width:0.8;" x="1298.545303" xlink:href="#m3c21631d4c" y="2052.76"/>
      </g>
     </g>
     <g id="text_5">
      <text style="font-family:DejaVu Sans;font-size:10px;font-stretch:normal;font-style:normal;font-weight:normal;text-anchor:middle;" transform="rotate(-0, 1298.545303, 2067.358437)" x="1298.545303" y="2067.358437">8</text>
     </g>
    </g>
    <g id="xtick_6">
     <g id="line2d_6">
      <g>
       <use style="stroke:#000000;stroke-width:0.8;" x="1596.39351" xlink:href="#m3c21631d4c" y="2052.76"/>
      </g>
     </g>
     <g id="text_6">
      <text style="font-family:DejaVu Sans;font-size:10px;font-stretch:normal;font-style:normal;font-weight:normal;text-anchor:middle;" transform="rotate(-0, 1596.39351, 2067.358437)" x="1596.39351" y="2067.358437">10</text>
     </g>
    </g>
    <g id="text_7">
     <text style="font-family:DejaVu Sans;font-size:10px;font-stretch:normal;font-style:normal;font-weight:normal;text-anchor:middle;" transform="rotate(-0, 933.68125, 2081.036562)" x="933.68125" y="2081.036562">wind_speed from BuienRadar</text>
    </g>
   </g>
   <g id="matplotlib.axis_2">
    <g id="ytick_1">
     <g id="line2d_7">
      <defs>
       <path d="M 0 0 
L -3.5 0 
" id="m7b600c0ae4" style="stroke:#000000;stroke-width:0.8;"/>
      </defs>
      <g>
       <use style="stroke:#000000;stroke-width:0.8;" x="40.88125" xlink:href="#m7b600c0ae4" y="1979.315212"/>
      </g>
     </g>
     <g id="text_8">
      <text style="font-family:DejaVu Sans;font-size:10px;font-stretch:normal;font-style:normal;font-weight:normal;text-anchor:end;" transform="rotate(-0, 33.88125, 1983.11443)" x="33.88125" y="1983.11443">5</text>
     </g>
    </g>
    <g id="ytick_2">
     <g id="line2d_8">
      <g>
       <use style="stroke:#000000;stroke-width:0.8;" x="40.88125" xlink:href="#m7b600c0ae4" y="1755.861432"/>
      </g>
     </g>
     <g id="text_9">
      <text style="font-family:DejaVu Sans;font-size:10px;font-stretch:normal;font-style:normal;font-weight:normal;text-anchor:end;" transform="rotate(-0, 33.88125, 1759.660651)" x="33.88125" y="1759.660651">10</text>
     </g>
    </g>
    <g id="ytick_3">
     <g id="line2d_9">
      <g>
       <use style="stroke:#000000;stroke-width:0.8;" x="40.88125" xlink:href="#m7b600c0ae4" y="1532.407652"/>
      </g>
     </g>
     <g id="text_10">
      <text style="font-family:DejaVu Sans;font-size:10px;font-stretch:normal;font-style:normal;font-weight:normal;text-anchor:end;" transform="rotate(-0, 33.88125, 1536.206871)" x="33.88125" y="1536.206871">15</text>
     </g>
    </g>
    <g id="ytick_4">
     <g id="line2d_10">
      <g>
       <use style="stroke:#000000;stroke-width:0.8;" x="40.88125" xlink:href="#m7b600c0ae4" y="1308.953873"/>
      </g>
     </g>
     <g id="text_11">
      <text style="font-family:DejaVu Sans;font-size:10px;font-stretch:normal;font-style:normal;font-weight:normal;text-anchor:end;" transform="rotate(-0, 33.88125, 1312.753092)" x="33.88125" y="1312.753092">20</text>
     </g>
    </g>
    <g id="ytick_5">
     <g id="line2d_11">
      <g>
       <use style="stroke:#000000;stroke-width:0.8;" x="40.88125" xlink:href="#m7b600c0ae4" y="1085.500093"/>
      </g>
     </g>
     <g id="text_12">
      <text style="font-family:DejaVu Sans;font-size:10px;font-stretch:normal;font-style:normal;font-weight:normal;text-anchor:end;" transform="rotate(-0, 33.88125, 1089.299312)" x="33.88125" y="1089.299312">25</text>
     </g>
    </g>
    <g id="ytick_6">
     <g id="line2d_12">
      <g>
       <use style="stroke:#000000;stroke-width:0.8;" x="40.88125" xlink:href="#m7b600c0ae4" y="862.046313"/>
      </g>
     </g>
     <g id="text_13">
      <text style="font-family:DejaVu Sans;font-size:10px;font-stretch:normal;font-style:normal;font-weight:normal;text-anchor:end;" transform="rotate(-0, 33.88125, 865.845532)" x="33.88125" y="865.845532">30</text>
     </g>
    </g>
    <g id="ytick_7">
     <g id="line2d_13">
      <g>
       <use style="stroke:#000000;stroke-width:0.8;" x="40.88125" xlink:href="#m7b600c0ae4" y="638.592534"/>
      </g>
     </g>
     <g id="text_14">
      <text style="font-family:DejaVu Sans;font-size:10px;font-stretch:normal;font-style:normal;font-weight:normal;text-anchor:end;" transform="rotate(-0, 33.88125, 642.391753)" x="33.88125" y="642.391753">35</text>
     </g>
    </g>
    <g id="ytick_8">
     <g id="line2d_14">
      <g>
       <use style="stroke:#000000;stroke-width:0.8;" x="40.88125" xlink:href="#m7b600c0ae4" y="415.138754"/>
      </g>
     </g>
     <g id="text_15">
      <text style="font-family:DejaVu Sans;font-size:10px;font-stretch:normal;font-style:normal;font-weight:normal;text-anchor:end;" transform="rotate(-0, 33.88125, 418.937973)" x="33.88125" y="418.937973">40</text>
     </g>
    </g>
    <g id="text_16">
     <text style="font-family:DejaVu Sans;font-size:10px;font-stretch:normal;font-style:normal;font-weight:normal;text-anchor:middle;" transform="rotate(-90, 14.798438, 1165.72)" x="14.798438" y="1165.72">ping_day[ms]</text>
    </g>
   </g>
   <g id="line2d_15">
    <path clip-path="url(#pbc0490dcc6)" d="M 122.044886 1968.857575 
L 136.937297 1905.709537 
L 151.829707 1896.324478 
L 166.722117 1661.385174 
L 181.614528 1836.885773 
L 196.506938 1799.971208 
L 211.399348 1771.369124 
L 226.291759 1682.657974 
L 241.184169 1783.882536 
L 256.076579 1741.694462 
L 270.96899 1814.004106 
L 285.8614 1600.695127 
L 300.75381 1731.058063 
L 315.646221 1217.069679 
L 330.538631 1560.205303 
L 345.431041 1745.314414 
L 360.323452 1661.563937 
L 375.215862 1431.987524 
L 390.108273 1750.99014 
L 405.000683 1782.184287 
L 419.893093 1735.124921 
L 434.785504 1484.722616 
L 449.677914 1632.961853 
L 464.570324 1349.086172 
L 479.462735 1719.617229 
L 494.355145 1423.898497 
L 509.247555 1634.302576 
L 524.139966 666.792401 
L 539.032376 1102.169745 
L 553.924786 1555.378701 
L 568.817197 1844.036294 
L 583.709607 1537.993997 
L 598.602017 1743.660856 
L 613.494428 1393.464092 
L 628.386838 1686.233234 
L 643.279248 1535.267861 
L 658.171659 1549.792356 
L 673.064069 1585.589652 
L 687.956479 1190.299916 
L 702.84889 726.45456 
L 717.7413 1398.782292 
L 732.63371 1481.99648 
L 747.526121 1816.774932 
L 762.418531 1471.628224 
L 777.310941 1395.653939 
L 792.203352 1646.547843 
L 807.095762 904.100315 
L 821.988172 1576.428047 
L 836.880583 1588.852077 
L 851.772993 1458.35507 
L 866.665403 1204.600958 
L 881.557814 1710.723769 
L 896.450224 1758.408805 
L 911.342634 1645.296502 
L 926.235045 1635.10701 
L 941.127455 1405.083689 
L 956.019866 1517.525631 
L 970.912276 1185.518005 
L 985.804686 1640.559282 
L 1000.697097 1480.521685 
L 1015.589507 1421.753341 
L 1030.481917 1643.777016 
L 1045.374328 1832.684841 
L 1060.266738 1438.780519 
L 1075.159148 1515.603928 
L 1090.051559 1572.361188 
L 1104.943969 1514.084442 
L 1119.836379 1817.624057 
L 1134.72879 1748.129931 
L 1149.6212 1465.594972 
L 1164.51361 1260.151567 
L 1179.406021 359.32 
L 1194.298431 1518.374755 
L 1209.190841 1253.269191 
L 1224.083252 1602.795593 
L 1238.975662 1908.078147 
L 1253.868072 1488.566021 
L 1268.760483 1766.721286 
L 1283.652893 1727.9744 
L 1298.545303 1644.983667 
L 1313.437714 1828.573292 
L 1328.330124 1921.485374 
L 1343.222534 1294.920975 
L 1358.114945 1894.313394 
L 1373.007355 1724.935429 
L 1387.899765 1906.245826 
L 1402.792176 1600.605746 
L 1417.684586 1624.291847 
L 1432.576996 1877.286216 
L 1447.469407 1880.593332 
L 1462.361817 1875.990184 
L 1477.254227 1680.64689 
L 1492.146638 1728.510689 
L 1521.931459 1736.018736 
L 1536.823869 1901.597987 
L 1551.716279 1805.289408 
L 1566.60869 1933.551878 
L 1581.5011 1949.908694 
L 1596.39351 1900.748863 
L 1611.285921 1882.202199 
L 1685.747972 1942.57941 
L 1700.640383 1919.116763 
L 1730.425203 1972.12 
L 1745.317614 1849.667329 
" style="fill:none;stroke:#0000ff;stroke-linecap:square;stroke-width:1.5;"/>
   </g>
   <g id="patch_3">
    <path d="M 40.88125 2052.76 
L 40.88125 278.68 
" style="fill:none;stroke:#000000;stroke-linecap:square;stroke-linejoin:miter;stroke-width:0.8;"/>
   </g>
   <g id="patch_4">
    <path d="M 1826.48125 2052.76 
L 1826.48125 278.68 
" style="fill:none;stroke:#000000;stroke-linecap:square;stroke-linejoin:miter;stroke-width:0.8;"/>
   </g>
   <g id="patch_5">
    <path d="M 40.88125 2052.76 
L 1826.48125 2052.76 
" style="fill:none;stroke:#000000;stroke-linecap:square;stroke-linejoin:miter;stroke-width:0.8;"/>
   </g>
   <g id="patch_6">
    <path d="M 40.88125 278.68 
L 1826.48125 278.68 
" style="fill:none;stroke:#000000;stroke-linecap:square;stroke-linejoin:miter;stroke-width:0.8;"/>
   </g>
   <g id="text_17">
    <text style="font-family:DejaVu Sans;font-size:12px;font-stretch:normal;font-style:normal;font-weight:normal;text-anchor:middle;" transform="rotate(-0, 933.68125, 272.68)" x="933.68125" y="272.68">wind_speed-&gt;ping_day</text>
   </g>
  </g>
  <g id="legend_1">
   <g id="patch_7">
    <path d="M 1952.120312 22.95625 
L 2052.08125 22.95625 
Q 2054.08125 22.95625 2054.08125 20.95625 
L 2054.08125 7 
Q 2054.08125 5 2052.08125 5 
L 1952.120312 5 
Q 1950.120312 5 1950.120312 7 
L 1950.120312 20.95625 
Q 1950.120312 22.95625 1952.120312 22.95625 
z
" style="fill:#ffffff;opacity:0.8;stroke:#cccccc;stroke-linejoin:miter;"/>
   </g>
   <g id="line2d_16">
    <path d="M 1954.120312 13.098438 
L 1974.120312 13.098438 
" style="fill:none;stroke:#0000ff;stroke-linecap:square;stroke-width:1.5;"/>
   </g>
   <g id="line2d_17"/>
   <g id="text_18">
    <text style="font-family:DejaVu Sans;font-size:10px;font-stretch:normal;font-style:normal;font-weight:normal;text-anchor:start;" transform="rotate(-0, 1982.120312, 16.598438)" x="1982.120312" y="16.598438">ping_day[ms]</text>
   </g>
  </g>
 </g>
 <defs>
  <clipPath id="pbc0490dcc6">
   <rect height="1774.08" width="1785.6" x="40.88125" y="278.68"/>
  </clipPath>
 </defs>
</svg>
