<?xml version="1.0" encoding="utf-8" standalone="no"?>
<!DOCTYPE svg PUBLIC "-//W3C//DTD SVG 1.1//EN"
  "http://www.w3.org/Graphics/SVG/1.1/DTD/svg11.dtd">
<!-- Created with matplotlib (https://matplotlib.org/) -->
<svg height="2090.31625pt" version="1.1" viewBox="0 0 2059.08125 2090.31625" width="2059.08125pt" xmlns="http://www.w3.org/2000/svg" xmlns:xlink="http://www.w3.org/1999/xlink">
 <metadata>
  <rdf:RDF xmlns:cc="http://creativecommons.org/ns#" xmlns:dc="http://purl.org/dc/elements/1.1/" xmlns:rdf="http://www.w3.org/1999/02/22-rdf-syntax-ns#">
   <cc:Work>
    <dc:type rdf:resource="http://purl.org/dc/dcmitype/StillImage"/>
    <dc:date>2022-07-24T11:43:27.277515</dc:date>
    <dc:format>image/svg+xml</dc:format>
    <dc:creator>
     <cc:Agent>
      <dc:title>Matplotlib v3.3.2, https://matplotlib.org/</dc:title>
     </cc:Agent>
    </dc:creator>
   </cc:Work>
  </rdf:RDF>
 </metadata>
 <defs>
  <style type="text/css">*{stroke-linecap:butt;stroke-linejoin:round;}</style>
 </defs>
 <g id="figure_1">
  <g id="patch_1">
   <path d="M 0 2090.31625 
L 2059.08125 2090.31625 
L 2059.08125 0 
L 0 0 
z
" style="fill:#ffffff;"/>
  </g>
  <g id="axes_1">
   <g id="patch_2">
    <path d="M 40.88125 2052.76 
L 1826.48125 2052.76 
L 1826.48125 278.68 
L 40.88125 278.68 
z
" style="fill:#ffffff;"/>
   </g>
   <g id="matplotlib.axis_1">
    <g id="xtick_1">
     <g id="line2d_1">
      <defs>
       <path d="M 0 0 
L 0 3.5 
" id="m1a45afa083" style="stroke:#000000;stroke-width:0.8;"/>
      </defs>
      <g>
       <use style="stroke:#000000;stroke-width:0.8;" x="122.044886" xlink:href="#m1a45afa083" y="2052.76"/>
      </g>
     </g>
     <g id="text_1">
      <text style="font-family:DejaVu Sans;font-size:10px;font-stretch:normal;font-style:normal;font-weight:normal;text-anchor:middle;" transform="rotate(-0, 122.044886, 2067.358438)" x="122.044886" y="2067.358438">0.0</text>
     </g>
    </g>
    <g id="xtick_2">
     <g id="line2d_2">
      <g>
       <use style="stroke:#000000;stroke-width:0.8;" x="360.761464" xlink:href="#m1a45afa083" y="2052.76"/>
      </g>
     </g>
     <g id="text_2">
      <text style="font-family:DejaVu Sans;font-size:10px;font-stretch:normal;font-style:normal;font-weight:normal;text-anchor:middle;" transform="rotate(-0, 360.761464, 2067.358438)" x="360.761464" y="2067.358438">2.5</text>
     </g>
    </g>
    <g id="xtick_3">
     <g id="line2d_3">
      <g>
       <use style="stroke:#000000;stroke-width:0.8;" x="599.478041" xlink:href="#m1a45afa083" y="2052.76"/>
      </g>
     </g>
     <g id="text_3">
      <text style="font-family:DejaVu Sans;font-size:10px;font-stretch:normal;font-style:normal;font-weight:normal;text-anchor:middle;" transform="rotate(-0, 599.478041, 2067.358438)" x="599.478041" y="2067.358438">5.0</text>
     </g>
    </g>
    <g id="xtick_4">
     <g id="line2d_4">
      <g>
       <use style="stroke:#000000;stroke-width:0.8;" x="838.194619" xlink:href="#m1a45afa083" y="2052.76"/>
      </g>
     </g>
     <g id="text_4">
      <text style="font-family:DejaVu Sans;font-size:10px;font-stretch:normal;font-style:normal;font-weight:normal;text-anchor:middle;" transform="rotate(-0, 838.194619, 2067.358438)" x="838.194619" y="2067.358438">7.5</text>
     </g>
    </g>
    <g id="xtick_5">
     <g id="line2d_5">
      <g>
       <use style="stroke:#000000;stroke-width:0.8;" x="1076.911197" xlink:href="#m1a45afa083" y="2052.76"/>
      </g>
     </g>
     <g id="text_5">
      <text style="font-family:DejaVu Sans;font-size:10px;font-stretch:normal;font-style:normal;font-weight:normal;text-anchor:middle;" transform="rotate(-0, 1076.911197, 2067.358438)" x="1076.911197" y="2067.358438">10.0</text>
     </g>
    </g>
    <g id="xtick_6">
     <g id="line2d_6">
      <g>
       <use style="stroke:#000000;stroke-width:0.8;" x="1315.627774" xlink:href="#m1a45afa083" y="2052.76"/>
      </g>
     </g>
     <g id="text_6">
      <text style="font-family:DejaVu Sans;font-size:10px;font-stretch:normal;font-style:normal;font-weight:normal;text-anchor:middle;" transform="rotate(-0, 1315.627774, 2067.358438)" x="1315.627774" y="2067.358438">12.5</text>
     </g>
    </g>
    <g id="xtick_7">
     <g id="line2d_7">
      <g>
       <use style="stroke:#000000;stroke-width:0.8;" x="1554.344352" xlink:href="#m1a45afa083" y="2052.76"/>
      </g>
     </g>
     <g id="text_7">
      <text style="font-family:DejaVu Sans;font-size:10px;font-stretch:normal;font-style:normal;font-weight:normal;text-anchor:middle;" transform="rotate(-0, 1554.344352, 2067.358438)" x="1554.344352" y="2067.358438">15.0</text>
     </g>
    </g>
    <g id="xtick_8">
     <g id="line2d_8">
      <g>
       <use style="stroke:#000000;stroke-width:0.8;" x="1793.060929" xlink:href="#m1a45afa083" y="2052.76"/>
      </g>
     </g>
     <g id="text_8">
      <text style="font-family:DejaVu Sans;font-size:10px;font-stretch:normal;font-style:normal;font-weight:normal;text-anchor:middle;" transform="rotate(-0, 1793.060929, 2067.358438)" x="1793.060929" y="2067.358438">17.5</text>
     </g>
    </g>
    <g id="text_9">
     <text style="font-family:DejaVu Sans;font-size:10px;font-stretch:normal;font-style:normal;font-weight:normal;text-anchor:middle;" transform="rotate(-0, 933.68125, 2081.036562)" x="933.68125" y="2081.036562">rain from Foreca</text>
    </g>
   </g>
   <g id="matplotlib.axis_2">
    <g id="ytick_1">
     <g id="line2d_9">
      <defs>
       <path d="M 0 0 
L -3.5 0 
" id="mb8635620d7" style="stroke:#000000;stroke-width:0.8;"/>
      </defs>
      <g>
       <use style="stroke:#000000;stroke-width:0.8;" x="40.88125" xlink:href="#mb8635620d7" y="1976.635642"/>
      </g>
     </g>
     <g id="text_10">
      <text style="font-family:DejaVu Sans;font-size:10px;font-stretch:normal;font-style:normal;font-weight:normal;text-anchor:end;" transform="rotate(-0, 33.88125, 1980.434861)" x="33.88125" y="1980.434861">5</text>
     </g>
    </g>
    <g id="ytick_2">
     <g id="line2d_10">
      <g>
       <use style="stroke:#000000;stroke-width:0.8;" x="40.88125" xlink:href="#mb8635620d7" y="1701.291632"/>
      </g>
     </g>
     <g id="text_11">
      <text style="font-family:DejaVu Sans;font-size:10px;font-stretch:normal;font-style:normal;font-weight:normal;text-anchor:end;" transform="rotate(-0, 33.88125, 1705.090851)" x="33.88125" y="1705.090851">10</text>
     </g>
    </g>
    <g id="ytick_3">
     <g id="line2d_11">
      <g>
       <use style="stroke:#000000;stroke-width:0.8;" x="40.88125" xlink:href="#mb8635620d7" y="1425.947623"/>
      </g>
     </g>
     <g id="text_12">
      <text style="font-family:DejaVu Sans;font-size:10px;font-stretch:normal;font-style:normal;font-weight:normal;text-anchor:end;" transform="rotate(-0, 33.88125, 1429.746842)" x="33.88125" y="1429.746842">15</text>
     </g>
    </g>
    <g id="ytick_4">
     <g id="line2d_12">
      <g>
       <use style="stroke:#000000;stroke-width:0.8;" x="40.88125" xlink:href="#mb8635620d7" y="1150.603614"/>
      </g>
     </g>
     <g id="text_13">
      <text style="font-family:DejaVu Sans;font-size:10px;font-stretch:normal;font-style:normal;font-weight:normal;text-anchor:end;" transform="rotate(-0, 33.88125, 1154.402833)" x="33.88125" y="1154.402833">20</text>
     </g>
    </g>
    <g id="ytick_5">
     <g id="line2d_13">
      <g>
       <use style="stroke:#000000;stroke-width:0.8;" x="40.88125" xlink:href="#mb8635620d7" y="875.259605"/>
      </g>
     </g>
     <g id="text_14">
      <text style="font-family:DejaVu Sans;font-size:10px;font-stretch:normal;font-style:normal;font-weight:normal;text-anchor:end;" transform="rotate(-0, 33.88125, 879.058823)" x="33.88125" y="879.058823">25</text>
     </g>
    </g>
    <g id="ytick_6">
     <g id="line2d_14">
      <g>
       <use style="stroke:#000000;stroke-width:0.8;" x="40.88125" xlink:href="#mb8635620d7" y="599.915595"/>
      </g>
     </g>
     <g id="text_15">
      <text style="font-family:DejaVu Sans;font-size:10px;font-stretch:normal;font-style:normal;font-weight:normal;text-anchor:end;" transform="rotate(-0, 33.88125, 603.714814)" x="33.88125" y="603.714814">30</text>
     </g>
    </g>
    <g id="ytick_7">
     <g id="line2d_15">
      <g>
       <use style="stroke:#000000;stroke-width:0.8;" x="40.88125" xlink:href="#mb8635620d7" y="324.571586"/>
      </g>
     </g>
     <g id="text_16">
      <text style="font-family:DejaVu Sans;font-size:10px;font-stretch:normal;font-style:normal;font-weight:normal;text-anchor:end;" transform="rotate(-0, 33.88125, 328.370805)" x="33.88125" y="328.370805">35</text>
     </g>
    </g>
    <g id="text_17">
     <text style="font-family:DejaVu Sans;font-size:10px;font-stretch:normal;font-style:normal;font-weight:normal;text-anchor:middle;" transform="rotate(-90, 14.798438, 1165.72)" x="14.798438" y="1165.72">ping_day[ms]</text>
    </g>
   </g>
   <g id="line2d_16">
    <path clip-path="url(#pbbb9d34887)" d="M 122.044886 359.32 
L 122.999753 1090.468482 
L 123.954619 1589.72224 
L 124.909485 1563.179077 
L 125.864352 1350.558433 
L 126.819218 1692.425555 
L 127.774084 1577.496966 
L 128.728951 1289.59727 
L 129.683817 1408.656019 
L 130.638683 1663.184022 
L 131.593549 1310.578483 
L 132.548416 1367.024005 
L 133.503282 1351.054053 
L 134.458148 1614.007582 
L 135.413015 1407.609712 
L 136.367881 1866.88352 
L 137.322747 1772.550662 
L 138.277614 1865.837212 
L 139.23248 1866.498038 
L 140.187346 1902.788378 
L 141.142213 1022.017962 
L 142.097079 1815.339121 
L 143.051945 1916.720785 
L 144.006811 1917.326542 
L 144.961678 1891.939824 
L 145.916544 1900.42042 
L 146.87141 1811.70458 
L 147.826277 1834.723339 
L 148.781143 1878.998656 
L 149.736009 1969.36656 
L 150.690876 1586.307974 
L 151.645742 1694.187757 
L 152.600608 1947.999865 
L 153.555475 1941.722021 
L 154.510341 1884.78088 
L 155.465207 1868.535584 
L 156.420074 1931.479224 
L 157.37494 1758.893599 
L 158.329806 1563.06894 
L 159.284672 1919.694501 
L 160.239539 1953.341539 
L 161.194405 1955.599359 
L 162.149271 1565.216623 
L 163.104138 1670.342966 
L 164.059004 1924.210142 
L 165.01387 1955.268947 
L 165.968737 1834.392927 
L 166.923603 1955.984841 
L 167.878469 1899.814663 
L 168.833336 1934.948559 
L 169.788202 1639.889918 
L 170.743068 1874.593152 
L 171.697934 1714.673351 
L 172.652801 1918.758331 
L 173.607667 1929.056197 
L 174.562533 1896.125053 
L 175.5174 1849.096297 
L 176.472266 1903.559342 
L 177.427132 1914.132552 
L 178.381999 1846.17765 
L 179.336865 1939.298994 
L 180.291731 1958.79335 
L 181.246598 1960.280208 
L 182.201464 1926.908514 
L 183.15633 1919.859707 
L 184.111197 1873.106294 
L 185.066063 1942.217641 
L 186.020929 1924.044936 
L 186.975795 1642.09267 
L 189.840394 1875.474253 
L 190.795261 1744.520642 
L 192.704993 1888.855972 
L 193.65986 1924.815899 
L 194.614726 1673.757232 
L 195.569592 1798.157655 
L 196.524459 1801.737127 
L 198.434191 1961.491721 
L 199.389057 1938.197618 
L 200.343924 1937.371586 
L 201.29879 1846.618201 
L 202.253656 1942.603122 
L 203.208523 1928.835922 
L 204.163389 1926.027413 
L 205.118255 1403.369414 
L 206.073122 1934.45294 
L 207.982854 1882.357853 
L 208.937721 1930.818399 
L 209.892587 1954.553052 
L 211.80232 1925.917275 
L 212.757186 1939.133788 
L 214.666918 1901.576865 
L 217.531517 1958.628144 
L 219.44125 1950.643167 
L 220.396116 1200.055398 
L 222.305849 1741.822271 
L 223.260715 1972.12 
L 226.125314 1954.883465 
L 228.035047 1929.111266 
L 228.989913 1929.441679 
L 231.854512 1923.87973 
L 232.809378 1932.690738 
L 235.673977 1914.848446 
L 240.448309 1856.090034 
L 241.403175 1883.734573 
L 249.042106 1945.797113 
L 251.906705 1923.87973 
L 263.3651 1960.555552 
L 265.274833 1942.492985 
L 267.184566 1920.906014 
L 268.139432 1900.585626 
L 270.049164 1956.03991 
L 272.913763 1947.449177 
L 278.642961 1957.361561 
L 279.597828 1615.494439 
L 280.552694 1962.593097 
L 283.417293 1876.906042 
L 288.191624 1867.489276 
L 289.146491 1929.661954 
L 291.056223 1917.051198 
L 320.657079 1929.496747 
L 326.386277 1925.862206 
L 358.851731 1926.63317 
L 408.504779 1948.880966 
L 465.796758 1843.974898 
L 488.713549 1845.021205 
L 709.287667 1947.834658 
L 719.791197 1970.74328 
L 756.076116 1825.03123 
L 1745.317614 1509.982615 
L 1745.317614 1509.982615 
" style="fill:none;stroke:#0000ff;stroke-linecap:square;stroke-width:1.5;"/>
   </g>
   <g id="patch_3">
    <path d="M 40.88125 2052.76 
L 40.88125 278.68 
" style="fill:none;stroke:#000000;stroke-linecap:square;stroke-linejoin:miter;stroke-width:0.8;"/>
   </g>
   <g id="patch_4">
    <path d="M 1826.48125 2052.76 
L 1826.48125 278.68 
" style="fill:none;stroke:#000000;stroke-linecap:square;stroke-linejoin:miter;stroke-width:0.8;"/>
   </g>
   <g id="patch_5">
    <path d="M 40.88125 2052.76 
L 1826.48125 2052.76 
" style="fill:none;stroke:#000000;stroke-linecap:square;stroke-linejoin:miter;stroke-width:0.8;"/>
   </g>
   <g id="patch_6">
    <path d="M 40.88125 278.68 
L 1826.48125 278.68 
" style="fill:none;stroke:#000000;stroke-linecap:square;stroke-linejoin:miter;stroke-width:0.8;"/>
   </g>
   <g id="text_18">
    <text style="font-family:DejaVu Sans;font-size:12px;font-stretch:normal;font-style:normal;font-weight:normal;text-anchor:middle;" transform="rotate(-0, 933.68125, 272.68)" x="933.68125" y="272.68">rain-&gt;ping_day</text>
   </g>
  </g>
  <g id="legend_1">
   <g id="patch_7">
    <path d="M 1952.120312 22.95625 
L 2052.08125 22.95625 
Q 2054.08125 22.95625 2054.08125 20.95625 
L 2054.08125 7 
Q 2054.08125 5 2052.08125 5 
L 1952.120312 5 
Q 1950.120312 5 1950.120312 7 
L 1950.120312 20.95625 
Q 1950.120312 22.95625 1952.120312 22.95625 
z
" style="fill:#ffffff;opacity:0.8;stroke:#cccccc;stroke-linejoin:miter;"/>
   </g>
   <g id="line2d_17">
    <path d="M 1954.120312 13.098438 
L 1974.120312 13.098438 
" style="fill:none;stroke:#0000ff;stroke-linecap:square;stroke-width:1.5;"/>
   </g>
   <g id="line2d_18"/>
   <g id="text_19">
    <text style="font-family:DejaVu Sans;font-size:10px;font-stretch:normal;font-style:normal;font-weight:normal;text-anchor:start;" transform="rotate(-0, 1982.120312, 16.598438)" x="1982.120312" y="16.598438">ping_day[ms]</text>
   </g>
  </g>
 </g>
 <defs>
  <clipPath id="pbbb9d34887">
   <rect height="1774.08" width="1785.6" x="40.88125" y="278.68"/>
  </clipPath>
 </defs>
</svg>
