<?xml version="1.0" encoding="utf-8" standalone="no"?>
<!DOCTYPE svg PUBLIC "-//W3C//DTD SVG 1.1//EN"
  "http://www.w3.org/Graphics/SVG/1.1/DTD/svg11.dtd">
<!-- Created with matplotlib (https://matplotlib.org/) -->
<svg height="345.6pt" version="1.1" viewBox="0 0 460.8 345.6" width="460.8pt" xmlns="http://www.w3.org/2000/svg" xmlns:xlink="http://www.w3.org/1999/xlink">
 <metadata>
  <rdf:RDF xmlns:cc="http://creativecommons.org/ns#" xmlns:dc="http://purl.org/dc/elements/1.1/" xmlns:rdf="http://www.w3.org/1999/02/22-rdf-syntax-ns#">
   <cc:Work>
    <dc:type rdf:resource="http://purl.org/dc/dcmitype/StillImage"/>
    <dc:date>2022-07-16T17:55:01.844534</dc:date>
    <dc:format>image/svg+xml</dc:format>
    <dc:creator>
     <cc:Agent>
      <dc:title>Matplotlib v3.3.2, https://matplotlib.org/</dc:title>
     </cc:Agent>
    </dc:creator>
   </cc:Work>
  </rdf:RDF>
 </metadata>
 <defs>
  <style type="text/css">*{stroke-linecap:butt;stroke-linejoin:round;}</style>
 </defs>
 <g id="figure_1">
  <g id="patch_1">
   <path d="M 0 345.6 
L 460.8 345.6 
L 460.8 0 
L 0 0 
z
" style="fill:#ffffff;"/>
  </g>
  <g id="axes_1">
   <g id="patch_2">
    <path d="M 57.6 307.584 
L 414.72 307.584 
L 414.72 41.472 
L 57.6 41.472 
z
" style="fill:#ffffff;"/>
   </g>
   <g id="matplotlib.axis_1">
    <g id="xtick_1">
     <g id="line2d_1">
      <defs>
       <path d="M 0 0 
L 0 3.5 
" id="m87dfcae22b" style="stroke:#000000;stroke-width:0.8;"/>
      </defs>
      <g>
       <use style="stroke:#000000;stroke-width:0.8;" x="68.788659" xlink:href="#m87dfcae22b" y="307.584"/>
      </g>
     </g>
     <g id="text_1">
      <!-- 0 -->
      <g transform="translate(65.607409 322.182437)scale(0.1 -0.1)">
       <defs>
        <path d="M 31.78125 66.40625 
Q 24.171875 66.40625 20.328125 58.90625 
Q 16.5 51.421875 16.5 36.375 
Q 16.5 21.390625 20.328125 13.890625 
Q 24.171875 6.390625 31.78125 6.390625 
Q 39.453125 6.390625 43.28125 13.890625 
Q 47.125 21.390625 47.125 36.375 
Q 47.125 51.421875 43.28125 58.90625 
Q 39.453125 66.40625 31.78125 66.40625 
z
M 31.78125 74.21875 
Q 44.046875 74.21875 50.515625 64.515625 
Q 56.984375 54.828125 56.984375 36.375 
Q 56.984375 17.96875 50.515625 8.265625 
Q 44.046875 -1.421875 31.78125 -1.421875 
Q 19.53125 -1.421875 13.0625 8.265625 
Q 6.59375 17.96875 6.59375 36.375 
Q 6.59375 54.828125 13.0625 64.515625 
Q 19.53125 74.21875 31.78125 74.21875 
z
" id="DejaVuSans-48"/>
       </defs>
       <use xlink:href="#DejaVuSans-48"/>
      </g>
     </g>
    </g>
    <g id="xtick_2">
     <g id="line2d_2">
      <g>
       <use style="stroke:#000000;stroke-width:0.8;" x="114.643821" xlink:href="#m87dfcae22b" y="307.584"/>
      </g>
     </g>
     <g id="text_2">
      <!-- 2 -->
      <g transform="translate(111.462571 322.182437)scale(0.1 -0.1)">
       <defs>
        <path d="M 19.1875 8.296875 
L 53.609375 8.296875 
L 53.609375 0 
L 7.328125 0 
L 7.328125 8.296875 
Q 12.9375 14.109375 22.625 23.890625 
Q 32.328125 33.6875 34.8125 36.53125 
Q 39.546875 41.84375 41.421875 45.53125 
Q 43.3125 49.21875 43.3125 52.78125 
Q 43.3125 58.59375 39.234375 62.25 
Q 35.15625 65.921875 28.609375 65.921875 
Q 23.96875 65.921875 18.8125 64.3125 
Q 13.671875 62.703125 7.8125 59.421875 
L 7.8125 69.390625 
Q 13.765625 71.78125 18.9375 73 
Q 24.125 74.21875 28.421875 74.21875 
Q 39.75 74.21875 46.484375 68.546875 
Q 53.21875 62.890625 53.21875 53.421875 
Q 53.21875 48.921875 51.53125 44.890625 
Q 49.859375 40.875 45.40625 35.40625 
Q 44.1875 33.984375 37.640625 27.21875 
Q 31.109375 20.453125 19.1875 8.296875 
z
" id="DejaVuSans-50"/>
       </defs>
       <use xlink:href="#DejaVuSans-50"/>
      </g>
     </g>
    </g>
    <g id="xtick_3">
     <g id="line2d_3">
      <g>
       <use style="stroke:#000000;stroke-width:0.8;" x="160.498983" xlink:href="#m87dfcae22b" y="307.584"/>
      </g>
     </g>
     <g id="text_3">
      <!-- 4 -->
      <g transform="translate(157.317733 322.182437)scale(0.1 -0.1)">
       <defs>
        <path d="M 37.796875 64.3125 
L 12.890625 25.390625 
L 37.796875 25.390625 
z
M 35.203125 72.90625 
L 47.609375 72.90625 
L 47.609375 25.390625 
L 58.015625 25.390625 
L 58.015625 17.1875 
L 47.609375 17.1875 
L 47.609375 0 
L 37.796875 0 
L 37.796875 17.1875 
L 4.890625 17.1875 
L 4.890625 26.703125 
z
" id="DejaVuSans-52"/>
       </defs>
       <use xlink:href="#DejaVuSans-52"/>
      </g>
     </g>
    </g>
    <g id="xtick_4">
     <g id="line2d_4">
      <g>
       <use style="stroke:#000000;stroke-width:0.8;" x="206.354145" xlink:href="#m87dfcae22b" y="307.584"/>
      </g>
     </g>
     <g id="text_4">
      <!-- 6 -->
      <g transform="translate(203.172895 322.182437)scale(0.1 -0.1)">
       <defs>
        <path d="M 33.015625 40.375 
Q 26.375 40.375 22.484375 35.828125 
Q 18.609375 31.296875 18.609375 23.390625 
Q 18.609375 15.53125 22.484375 10.953125 
Q 26.375 6.390625 33.015625 6.390625 
Q 39.65625 6.390625 43.53125 10.953125 
Q 47.40625 15.53125 47.40625 23.390625 
Q 47.40625 31.296875 43.53125 35.828125 
Q 39.65625 40.375 33.015625 40.375 
z
M 52.59375 71.296875 
L 52.59375 62.3125 
Q 48.875 64.0625 45.09375 64.984375 
Q 41.3125 65.921875 37.59375 65.921875 
Q 27.828125 65.921875 22.671875 59.328125 
Q 17.53125 52.734375 16.796875 39.40625 
Q 19.671875 43.65625 24.015625 45.921875 
Q 28.375 48.1875 33.59375 48.1875 
Q 44.578125 48.1875 50.953125 41.515625 
Q 57.328125 34.859375 57.328125 23.390625 
Q 57.328125 12.15625 50.6875 5.359375 
Q 44.046875 -1.421875 33.015625 -1.421875 
Q 20.359375 -1.421875 13.671875 8.265625 
Q 6.984375 17.96875 6.984375 36.375 
Q 6.984375 53.65625 15.1875 63.9375 
Q 23.390625 74.21875 37.203125 74.21875 
Q 40.921875 74.21875 44.703125 73.484375 
Q 48.484375 72.75 52.59375 71.296875 
z
" id="DejaVuSans-54"/>
       </defs>
       <use xlink:href="#DejaVuSans-54"/>
      </g>
     </g>
    </g>
    <g id="xtick_5">
     <g id="line2d_5">
      <g>
       <use style="stroke:#000000;stroke-width:0.8;" x="252.209307" xlink:href="#m87dfcae22b" y="307.584"/>
      </g>
     </g>
     <g id="text_5">
      <!-- 8 -->
      <g transform="translate(249.028057 322.182437)scale(0.1 -0.1)">
       <defs>
        <path d="M 31.78125 34.625 
Q 24.75 34.625 20.71875 30.859375 
Q 16.703125 27.09375 16.703125 20.515625 
Q 16.703125 13.921875 20.71875 10.15625 
Q 24.75 6.390625 31.78125 6.390625 
Q 38.8125 6.390625 42.859375 10.171875 
Q 46.921875 13.96875 46.921875 20.515625 
Q 46.921875 27.09375 42.890625 30.859375 
Q 38.875 34.625 31.78125 34.625 
z
M 21.921875 38.8125 
Q 15.578125 40.375 12.03125 44.71875 
Q 8.5 49.078125 8.5 55.328125 
Q 8.5 64.0625 14.71875 69.140625 
Q 20.953125 74.21875 31.78125 74.21875 
Q 42.671875 74.21875 48.875 69.140625 
Q 55.078125 64.0625 55.078125 55.328125 
Q 55.078125 49.078125 51.53125 44.71875 
Q 48 40.375 41.703125 38.8125 
Q 48.828125 37.15625 52.796875 32.3125 
Q 56.78125 27.484375 56.78125 20.515625 
Q 56.78125 9.90625 50.3125 4.234375 
Q 43.84375 -1.421875 31.78125 -1.421875 
Q 19.734375 -1.421875 13.25 4.234375 
Q 6.78125 9.90625 6.78125 20.515625 
Q 6.78125 27.484375 10.78125 32.3125 
Q 14.796875 37.15625 21.921875 38.8125 
z
M 18.3125 54.390625 
Q 18.3125 48.734375 21.84375 45.5625 
Q 25.390625 42.390625 31.78125 42.390625 
Q 38.140625 42.390625 41.71875 45.5625 
Q 45.3125 48.734375 45.3125 54.390625 
Q 45.3125 60.0625 41.71875 63.234375 
Q 38.140625 66.40625 31.78125 66.40625 
Q 25.390625 66.40625 21.84375 63.234375 
Q 18.3125 60.0625 18.3125 54.390625 
z
" id="DejaVuSans-56"/>
       </defs>
       <use xlink:href="#DejaVuSans-56"/>
      </g>
     </g>
    </g>
    <g id="xtick_6">
     <g id="line2d_6">
      <g>
       <use style="stroke:#000000;stroke-width:0.8;" x="298.064468" xlink:href="#m87dfcae22b" y="307.584"/>
      </g>
     </g>
     <g id="text_6">
      <!-- 10 -->
      <g transform="translate(291.701968 322.182437)scale(0.1 -0.1)">
       <defs>
        <path d="M 12.40625 8.296875 
L 28.515625 8.296875 
L 28.515625 63.921875 
L 10.984375 60.40625 
L 10.984375 69.390625 
L 28.421875 72.90625 
L 38.28125 72.90625 
L 38.28125 8.296875 
L 54.390625 8.296875 
L 54.390625 0 
L 12.40625 0 
z
" id="DejaVuSans-49"/>
       </defs>
       <use xlink:href="#DejaVuSans-49"/>
       <use x="63.623047" xlink:href="#DejaVuSans-48"/>
      </g>
     </g>
    </g>
    <g id="xtick_7">
     <g id="line2d_7">
      <g>
       <use style="stroke:#000000;stroke-width:0.8;" x="343.91963" xlink:href="#m87dfcae22b" y="307.584"/>
      </g>
     </g>
     <g id="text_7">
      <!-- 12 -->
      <g transform="translate(337.55713 322.182437)scale(0.1 -0.1)">
       <use xlink:href="#DejaVuSans-49"/>
       <use x="63.623047" xlink:href="#DejaVuSans-50"/>
      </g>
     </g>
    </g>
    <g id="xtick_8">
     <g id="line2d_8">
      <g>
       <use style="stroke:#000000;stroke-width:0.8;" x="389.774792" xlink:href="#m87dfcae22b" y="307.584"/>
      </g>
     </g>
     <g id="text_8">
      <!-- 14 -->
      <g transform="translate(383.412292 322.182437)scale(0.1 -0.1)">
       <use xlink:href="#DejaVuSans-49"/>
       <use x="63.623047" xlink:href="#DejaVuSans-52"/>
      </g>
     </g>
    </g>
    <g id="text_9">
     <!-- wind_speed from OpenWeatherMap -->
     <g transform="translate(146.962344 335.860562)scale(0.1 -0.1)">
      <defs>
       <path d="M 4.203125 54.6875 
L 13.1875 54.6875 
L 24.421875 12.015625 
L 35.59375 54.6875 
L 46.1875 54.6875 
L 57.421875 12.015625 
L 68.609375 54.6875 
L 77.59375 54.6875 
L 63.28125 0 
L 52.6875 0 
L 40.921875 44.828125 
L 29.109375 0 
L 18.5 0 
z
" id="DejaVuSans-119"/>
       <path d="M 9.421875 54.6875 
L 18.40625 54.6875 
L 18.40625 0 
L 9.421875 0 
z
M 9.421875 75.984375 
L 18.40625 75.984375 
L 18.40625 64.59375 
L 9.421875 64.59375 
z
" id="DejaVuSans-105"/>
       <path d="M 54.890625 33.015625 
L 54.890625 0 
L 45.90625 0 
L 45.90625 32.71875 
Q 45.90625 40.484375 42.875 44.328125 
Q 39.84375 48.1875 33.796875 48.1875 
Q 26.515625 48.1875 22.3125 43.546875 
Q 18.109375 38.921875 18.109375 30.90625 
L 18.109375 0 
L 9.078125 0 
L 9.078125 54.6875 
L 18.109375 54.6875 
L 18.109375 46.1875 
Q 21.34375 51.125 25.703125 53.5625 
Q 30.078125 56 35.796875 56 
Q 45.21875 56 50.046875 50.171875 
Q 54.890625 44.34375 54.890625 33.015625 
z
" id="DejaVuSans-110"/>
       <path d="M 45.40625 46.390625 
L 45.40625 75.984375 
L 54.390625 75.984375 
L 54.390625 0 
L 45.40625 0 
L 45.40625 8.203125 
Q 42.578125 3.328125 38.25 0.953125 
Q 33.9375 -1.421875 27.875 -1.421875 
Q 17.96875 -1.421875 11.734375 6.484375 
Q 5.515625 14.40625 5.515625 27.296875 
Q 5.515625 40.1875 11.734375 48.09375 
Q 17.96875 56 27.875 56 
Q 33.9375 56 38.25 53.625 
Q 42.578125 51.265625 45.40625 46.390625 
z
M 14.796875 27.296875 
Q 14.796875 17.390625 18.875 11.75 
Q 22.953125 6.109375 30.078125 6.109375 
Q 37.203125 6.109375 41.296875 11.75 
Q 45.40625 17.390625 45.40625 27.296875 
Q 45.40625 37.203125 41.296875 42.84375 
Q 37.203125 48.484375 30.078125 48.484375 
Q 22.953125 48.484375 18.875 42.84375 
Q 14.796875 37.203125 14.796875 27.296875 
z
" id="DejaVuSans-100"/>
       <path d="M 50.984375 -16.609375 
L 50.984375 -23.578125 
L -0.984375 -23.578125 
L -0.984375 -16.609375 
z
" id="DejaVuSans-95"/>
       <path d="M 44.28125 53.078125 
L 44.28125 44.578125 
Q 40.484375 46.53125 36.375 47.5 
Q 32.28125 48.484375 27.875 48.484375 
Q 21.1875 48.484375 17.84375 46.4375 
Q 14.5 44.390625 14.5 40.28125 
Q 14.5 37.15625 16.890625 35.375 
Q 19.28125 33.59375 26.515625 31.984375 
L 29.59375 31.296875 
Q 39.15625 29.25 43.1875 25.515625 
Q 47.21875 21.78125 47.21875 15.09375 
Q 47.21875 7.46875 41.1875 3.015625 
Q 35.15625 -1.421875 24.609375 -1.421875 
Q 20.21875 -1.421875 15.453125 -0.5625 
Q 10.6875 0.296875 5.421875 2 
L 5.421875 11.28125 
Q 10.40625 8.6875 15.234375 7.390625 
Q 20.0625 6.109375 24.8125 6.109375 
Q 31.15625 6.109375 34.5625 8.28125 
Q 37.984375 10.453125 37.984375 14.40625 
Q 37.984375 18.0625 35.515625 20.015625 
Q 33.0625 21.96875 24.703125 23.78125 
L 21.578125 24.515625 
Q 13.234375 26.265625 9.515625 29.90625 
Q 5.8125 33.546875 5.8125 39.890625 
Q 5.8125 47.609375 11.28125 51.796875 
Q 16.75 56 26.8125 56 
Q 31.78125 56 36.171875 55.265625 
Q 40.578125 54.546875 44.28125 53.078125 
z
" id="DejaVuSans-115"/>
       <path d="M 18.109375 8.203125 
L 18.109375 -20.796875 
L 9.078125 -20.796875 
L 9.078125 54.6875 
L 18.109375 54.6875 
L 18.109375 46.390625 
Q 20.953125 51.265625 25.265625 53.625 
Q 29.59375 56 35.59375 56 
Q 45.5625 56 51.78125 48.09375 
Q 58.015625 40.1875 58.015625 27.296875 
Q 58.015625 14.40625 51.78125 6.484375 
Q 45.5625 -1.421875 35.59375 -1.421875 
Q 29.59375 -1.421875 25.265625 0.953125 
Q 20.953125 3.328125 18.109375 8.203125 
z
M 48.6875 27.296875 
Q 48.6875 37.203125 44.609375 42.84375 
Q 40.53125 48.484375 33.40625 48.484375 
Q 26.265625 48.484375 22.1875 42.84375 
Q 18.109375 37.203125 18.109375 27.296875 
Q 18.109375 17.390625 22.1875 11.75 
Q 26.265625 6.109375 33.40625 6.109375 
Q 40.53125 6.109375 44.609375 11.75 
Q 48.6875 17.390625 48.6875 27.296875 
z
" id="DejaVuSans-112"/>
       <path d="M 56.203125 29.59375 
L 56.203125 25.203125 
L 14.890625 25.203125 
Q 15.484375 15.921875 20.484375 11.0625 
Q 25.484375 6.203125 34.421875 6.203125 
Q 39.59375 6.203125 44.453125 7.46875 
Q 49.3125 8.734375 54.109375 11.28125 
L 54.109375 2.78125 
Q 49.265625 0.734375 44.1875 -0.34375 
Q 39.109375 -1.421875 33.890625 -1.421875 
Q 20.796875 -1.421875 13.15625 6.1875 
Q 5.515625 13.8125 5.515625 26.8125 
Q 5.515625 40.234375 12.765625 48.109375 
Q 20.015625 56 32.328125 56 
Q 43.359375 56 49.78125 48.890625 
Q 56.203125 41.796875 56.203125 29.59375 
z
M 47.21875 32.234375 
Q 47.125 39.59375 43.09375 43.984375 
Q 39.0625 48.390625 32.421875 48.390625 
Q 24.90625 48.390625 20.390625 44.140625 
Q 15.875 39.890625 15.1875 32.171875 
z
" id="DejaVuSans-101"/>
       <path id="DejaVuSans-32"/>
       <path d="M 37.109375 75.984375 
L 37.109375 68.5 
L 28.515625 68.5 
Q 23.6875 68.5 21.796875 66.546875 
Q 19.921875 64.59375 19.921875 59.515625 
L 19.921875 54.6875 
L 34.71875 54.6875 
L 34.71875 47.703125 
L 19.921875 47.703125 
L 19.921875 0 
L 10.890625 0 
L 10.890625 47.703125 
L 2.296875 47.703125 
L 2.296875 54.6875 
L 10.890625 54.6875 
L 10.890625 58.5 
Q 10.890625 67.625 15.140625 71.796875 
Q 19.390625 75.984375 28.609375 75.984375 
z
" id="DejaVuSans-102"/>
       <path d="M 41.109375 46.296875 
Q 39.59375 47.171875 37.8125 47.578125 
Q 36.03125 48 33.890625 48 
Q 26.265625 48 22.1875 43.046875 
Q 18.109375 38.09375 18.109375 28.8125 
L 18.109375 0 
L 9.078125 0 
L 9.078125 54.6875 
L 18.109375 54.6875 
L 18.109375 46.1875 
Q 20.953125 51.171875 25.484375 53.578125 
Q 30.03125 56 36.53125 56 
Q 37.453125 56 38.578125 55.875 
Q 39.703125 55.765625 41.0625 55.515625 
z
" id="DejaVuSans-114"/>
       <path d="M 30.609375 48.390625 
Q 23.390625 48.390625 19.1875 42.75 
Q 14.984375 37.109375 14.984375 27.296875 
Q 14.984375 17.484375 19.15625 11.84375 
Q 23.34375 6.203125 30.609375 6.203125 
Q 37.796875 6.203125 41.984375 11.859375 
Q 46.1875 17.53125 46.1875 27.296875 
Q 46.1875 37.015625 41.984375 42.703125 
Q 37.796875 48.390625 30.609375 48.390625 
z
M 30.609375 56 
Q 42.328125 56 49.015625 48.375 
Q 55.71875 40.765625 55.71875 27.296875 
Q 55.71875 13.875 49.015625 6.21875 
Q 42.328125 -1.421875 30.609375 -1.421875 
Q 18.84375 -1.421875 12.171875 6.21875 
Q 5.515625 13.875 5.515625 27.296875 
Q 5.515625 40.765625 12.171875 48.375 
Q 18.84375 56 30.609375 56 
z
" id="DejaVuSans-111"/>
       <path d="M 52 44.1875 
Q 55.375 50.25 60.0625 53.125 
Q 64.75 56 71.09375 56 
Q 79.640625 56 84.28125 50.015625 
Q 88.921875 44.046875 88.921875 33.015625 
L 88.921875 0 
L 79.890625 0 
L 79.890625 32.71875 
Q 79.890625 40.578125 77.09375 44.375 
Q 74.3125 48.1875 68.609375 48.1875 
Q 61.625 48.1875 57.5625 43.546875 
Q 53.515625 38.921875 53.515625 30.90625 
L 53.515625 0 
L 44.484375 0 
L 44.484375 32.71875 
Q 44.484375 40.625 41.703125 44.40625 
Q 38.921875 48.1875 33.109375 48.1875 
Q 26.21875 48.1875 22.15625 43.53125 
Q 18.109375 38.875 18.109375 30.90625 
L 18.109375 0 
L 9.078125 0 
L 9.078125 54.6875 
L 18.109375 54.6875 
L 18.109375 46.1875 
Q 21.1875 51.21875 25.484375 53.609375 
Q 29.78125 56 35.6875 56 
Q 41.65625 56 45.828125 52.96875 
Q 50 49.953125 52 44.1875 
z
" id="DejaVuSans-109"/>
       <path d="M 39.40625 66.21875 
Q 28.65625 66.21875 22.328125 58.203125 
Q 16.015625 50.203125 16.015625 36.375 
Q 16.015625 22.609375 22.328125 14.59375 
Q 28.65625 6.59375 39.40625 6.59375 
Q 50.140625 6.59375 56.421875 14.59375 
Q 62.703125 22.609375 62.703125 36.375 
Q 62.703125 50.203125 56.421875 58.203125 
Q 50.140625 66.21875 39.40625 66.21875 
z
M 39.40625 74.21875 
Q 54.734375 74.21875 63.90625 63.9375 
Q 73.09375 53.65625 73.09375 36.375 
Q 73.09375 19.140625 63.90625 8.859375 
Q 54.734375 -1.421875 39.40625 -1.421875 
Q 24.03125 -1.421875 14.8125 8.828125 
Q 5.609375 19.09375 5.609375 36.375 
Q 5.609375 53.65625 14.8125 63.9375 
Q 24.03125 74.21875 39.40625 74.21875 
z
" id="DejaVuSans-79"/>
       <path d="M 3.328125 72.90625 
L 13.28125 72.90625 
L 28.609375 11.28125 
L 43.890625 72.90625 
L 54.984375 72.90625 
L 70.3125 11.28125 
L 85.59375 72.90625 
L 95.609375 72.90625 
L 77.296875 0 
L 64.890625 0 
L 49.515625 63.28125 
L 33.984375 0 
L 21.578125 0 
z
" id="DejaVuSans-87"/>
       <path d="M 34.28125 27.484375 
Q 23.390625 27.484375 19.1875 25 
Q 14.984375 22.515625 14.984375 16.5 
Q 14.984375 11.71875 18.140625 8.90625 
Q 21.296875 6.109375 26.703125 6.109375 
Q 34.1875 6.109375 38.703125 11.40625 
Q 43.21875 16.703125 43.21875 25.484375 
L 43.21875 27.484375 
z
M 52.203125 31.203125 
L 52.203125 0 
L 43.21875 0 
L 43.21875 8.296875 
Q 40.140625 3.328125 35.546875 0.953125 
Q 30.953125 -1.421875 24.3125 -1.421875 
Q 15.921875 -1.421875 10.953125 3.296875 
Q 6 8.015625 6 15.921875 
Q 6 25.140625 12.171875 29.828125 
Q 18.359375 34.515625 30.609375 34.515625 
L 43.21875 34.515625 
L 43.21875 35.40625 
Q 43.21875 41.609375 39.140625 45 
Q 35.0625 48.390625 27.6875 48.390625 
Q 23 48.390625 18.546875 47.265625 
Q 14.109375 46.140625 10.015625 43.890625 
L 10.015625 52.203125 
Q 14.9375 54.109375 19.578125 55.046875 
Q 24.21875 56 28.609375 56 
Q 40.484375 56 46.34375 49.84375 
Q 52.203125 43.703125 52.203125 31.203125 
z
" id="DejaVuSans-97"/>
       <path d="M 18.3125 70.21875 
L 18.3125 54.6875 
L 36.8125 54.6875 
L 36.8125 47.703125 
L 18.3125 47.703125 
L 18.3125 18.015625 
Q 18.3125 11.328125 20.140625 9.421875 
Q 21.96875 7.515625 27.59375 7.515625 
L 36.8125 7.515625 
L 36.8125 0 
L 27.59375 0 
Q 17.1875 0 13.234375 3.875 
Q 9.28125 7.765625 9.28125 18.015625 
L 9.28125 47.703125 
L 2.6875 47.703125 
L 2.6875 54.6875 
L 9.28125 54.6875 
L 9.28125 70.21875 
z
" id="DejaVuSans-116"/>
       <path d="M 54.890625 33.015625 
L 54.890625 0 
L 45.90625 0 
L 45.90625 32.71875 
Q 45.90625 40.484375 42.875 44.328125 
Q 39.84375 48.1875 33.796875 48.1875 
Q 26.515625 48.1875 22.3125 43.546875 
Q 18.109375 38.921875 18.109375 30.90625 
L 18.109375 0 
L 9.078125 0 
L 9.078125 75.984375 
L 18.109375 75.984375 
L 18.109375 46.1875 
Q 21.34375 51.125 25.703125 53.5625 
Q 30.078125 56 35.796875 56 
Q 45.21875 56 50.046875 50.171875 
Q 54.890625 44.34375 54.890625 33.015625 
z
" id="DejaVuSans-104"/>
       <path d="M 9.8125 72.90625 
L 24.515625 72.90625 
L 43.109375 23.296875 
L 61.8125 72.90625 
L 76.515625 72.90625 
L 76.515625 0 
L 66.890625 0 
L 66.890625 64.015625 
L 48.09375 14.015625 
L 38.1875 14.015625 
L 19.390625 64.015625 
L 19.390625 0 
L 9.8125 0 
z
" id="DejaVuSans-77"/>
      </defs>
      <use xlink:href="#DejaVuSans-119"/>
      <use x="81.787109" xlink:href="#DejaVuSans-105"/>
      <use x="109.570312" xlink:href="#DejaVuSans-110"/>
      <use x="172.949219" xlink:href="#DejaVuSans-100"/>
      <use x="236.425781" xlink:href="#DejaVuSans-95"/>
      <use x="286.425781" xlink:href="#DejaVuSans-115"/>
      <use x="338.525391" xlink:href="#DejaVuSans-112"/>
      <use x="402.001953" xlink:href="#DejaVuSans-101"/>
      <use x="463.525391" xlink:href="#DejaVuSans-101"/>
      <use x="525.048828" xlink:href="#DejaVuSans-100"/>
      <use x="588.525391" xlink:href="#DejaVuSans-32"/>
      <use x="620.3125" xlink:href="#DejaVuSans-102"/>
      <use x="655.517578" xlink:href="#DejaVuSans-114"/>
      <use x="694.380859" xlink:href="#DejaVuSans-111"/>
      <use x="755.5625" xlink:href="#DejaVuSans-109"/>
      <use x="852.974609" xlink:href="#DejaVuSans-32"/>
      <use x="884.761719" xlink:href="#DejaVuSans-79"/>
      <use x="963.472656" xlink:href="#DejaVuSans-112"/>
      <use x="1026.949219" xlink:href="#DejaVuSans-101"/>
      <use x="1088.472656" xlink:href="#DejaVuSans-110"/>
      <use x="1151.851562" xlink:href="#DejaVuSans-87"/>
      <use x="1244.853516" xlink:href="#DejaVuSans-101"/>
      <use x="1306.376953" xlink:href="#DejaVuSans-97"/>
      <use x="1367.65625" xlink:href="#DejaVuSans-116"/>
      <use x="1406.865234" xlink:href="#DejaVuSans-104"/>
      <use x="1470.244141" xlink:href="#DejaVuSans-101"/>
      <use x="1531.767578" xlink:href="#DejaVuSans-114"/>
      <use x="1572.880859" xlink:href="#DejaVuSans-77"/>
      <use x="1659.160156" xlink:href="#DejaVuSans-97"/>
      <use x="1720.439453" xlink:href="#DejaVuSans-112"/>
     </g>
    </g>
   </g>
   <g id="matplotlib.axis_2">
    <g id="ytick_1">
     <g id="line2d_9">
      <defs>
       <path d="M 0 0 
L -3.5 0 
" id="mb773b87877" style="stroke:#000000;stroke-width:0.8;"/>
      </defs>
      <g>
       <use style="stroke:#000000;stroke-width:0.8;" x="57.6" xlink:href="#mb773b87877" y="295.381266"/>
      </g>
     </g>
     <g id="text_10">
      <!-- 5 -->
      <g transform="translate(44.2375 299.180484)scale(0.1 -0.1)">
       <defs>
        <path d="M 10.796875 72.90625 
L 49.515625 72.90625 
L 49.515625 64.59375 
L 19.828125 64.59375 
L 19.828125 46.734375 
Q 21.96875 47.46875 24.109375 47.828125 
Q 26.265625 48.1875 28.421875 48.1875 
Q 40.625 48.1875 47.75 41.5 
Q 54.890625 34.8125 54.890625 23.390625 
Q 54.890625 11.625 47.5625 5.09375 
Q 40.234375 -1.421875 26.90625 -1.421875 
Q 22.3125 -1.421875 17.546875 -0.640625 
Q 12.796875 0.140625 7.71875 1.703125 
L 7.71875 11.625 
Q 12.109375 9.234375 16.796875 8.0625 
Q 21.484375 6.890625 26.703125 6.890625 
Q 35.15625 6.890625 40.078125 11.328125 
Q 45.015625 15.765625 45.015625 23.390625 
Q 45.015625 31 40.078125 35.4375 
Q 35.15625 39.890625 26.703125 39.890625 
Q 22.75 39.890625 18.8125 39.015625 
Q 14.890625 38.140625 10.796875 36.28125 
z
" id="DejaVuSans-53"/>
       </defs>
       <use xlink:href="#DejaVuSans-53"/>
      </g>
     </g>
    </g>
    <g id="ytick_2">
     <g id="line2d_10">
      <g>
       <use style="stroke:#000000;stroke-width:0.8;" x="57.6" xlink:href="#mb773b87877" y="262.026792"/>
      </g>
     </g>
     <g id="text_11">
      <!-- 10 -->
      <g transform="translate(37.875 265.82601)scale(0.1 -0.1)">
       <use xlink:href="#DejaVuSans-49"/>
       <use x="63.623047" xlink:href="#DejaVuSans-48"/>
      </g>
     </g>
    </g>
    <g id="ytick_3">
     <g id="line2d_11">
      <g>
       <use style="stroke:#000000;stroke-width:0.8;" x="57.6" xlink:href="#mb773b87877" y="228.672318"/>
      </g>
     </g>
     <g id="text_12">
      <!-- 15 -->
      <g transform="translate(37.875 232.471536)scale(0.1 -0.1)">
       <use xlink:href="#DejaVuSans-49"/>
       <use x="63.623047" xlink:href="#DejaVuSans-53"/>
      </g>
     </g>
    </g>
    <g id="ytick_4">
     <g id="line2d_12">
      <g>
       <use style="stroke:#000000;stroke-width:0.8;" x="57.6" xlink:href="#mb773b87877" y="195.317844"/>
      </g>
     </g>
     <g id="text_13">
      <!-- 20 -->
      <g transform="translate(37.875 199.117062)scale(0.1 -0.1)">
       <use xlink:href="#DejaVuSans-50"/>
       <use x="63.623047" xlink:href="#DejaVuSans-48"/>
      </g>
     </g>
    </g>
    <g id="ytick_5">
     <g id="line2d_13">
      <g>
       <use style="stroke:#000000;stroke-width:0.8;" x="57.6" xlink:href="#mb773b87877" y="161.96337"/>
      </g>
     </g>
     <g id="text_14">
      <!-- 25 -->
      <g transform="translate(37.875 165.762588)scale(0.1 -0.1)">
       <use xlink:href="#DejaVuSans-50"/>
       <use x="63.623047" xlink:href="#DejaVuSans-53"/>
      </g>
     </g>
    </g>
    <g id="ytick_6">
     <g id="line2d_14">
      <g>
       <use style="stroke:#000000;stroke-width:0.8;" x="57.6" xlink:href="#mb773b87877" y="128.608896"/>
      </g>
     </g>
     <g id="text_15">
      <!-- 30 -->
      <g transform="translate(37.875 132.408114)scale(0.1 -0.1)">
       <defs>
        <path d="M 40.578125 39.3125 
Q 47.65625 37.796875 51.625 33 
Q 55.609375 28.21875 55.609375 21.1875 
Q 55.609375 10.40625 48.1875 4.484375 
Q 40.765625 -1.421875 27.09375 -1.421875 
Q 22.515625 -1.421875 17.65625 -0.515625 
Q 12.796875 0.390625 7.625 2.203125 
L 7.625 11.71875 
Q 11.71875 9.328125 16.59375 8.109375 
Q 21.484375 6.890625 26.8125 6.890625 
Q 36.078125 6.890625 40.9375 10.546875 
Q 45.796875 14.203125 45.796875 21.1875 
Q 45.796875 27.640625 41.28125 31.265625 
Q 36.765625 34.90625 28.71875 34.90625 
L 20.21875 34.90625 
L 20.21875 43.015625 
L 29.109375 43.015625 
Q 36.375 43.015625 40.234375 45.921875 
Q 44.09375 48.828125 44.09375 54.296875 
Q 44.09375 59.90625 40.109375 62.90625 
Q 36.140625 65.921875 28.71875 65.921875 
Q 24.65625 65.921875 20.015625 65.03125 
Q 15.375 64.15625 9.8125 62.3125 
L 9.8125 71.09375 
Q 15.4375 72.65625 20.34375 73.4375 
Q 25.25 74.21875 29.59375 74.21875 
Q 40.828125 74.21875 47.359375 69.109375 
Q 53.90625 64.015625 53.90625 55.328125 
Q 53.90625 49.265625 50.4375 45.09375 
Q 46.96875 40.921875 40.578125 39.3125 
z
" id="DejaVuSans-51"/>
       </defs>
       <use xlink:href="#DejaVuSans-51"/>
       <use x="63.623047" xlink:href="#DejaVuSans-48"/>
      </g>
     </g>
    </g>
    <g id="ytick_7">
     <g id="line2d_15">
      <g>
       <use style="stroke:#000000;stroke-width:0.8;" x="57.6" xlink:href="#mb773b87877" y="95.254422"/>
      </g>
     </g>
     <g id="text_16">
      <!-- 35 -->
      <g transform="translate(37.875 99.05364)scale(0.1 -0.1)">
       <use xlink:href="#DejaVuSans-51"/>
       <use x="63.623047" xlink:href="#DejaVuSans-53"/>
      </g>
     </g>
    </g>
    <g id="ytick_8">
     <g id="line2d_16">
      <g>
       <use style="stroke:#000000;stroke-width:0.8;" x="57.6" xlink:href="#mb773b87877" y="61.899948"/>
      </g>
     </g>
     <g id="text_17">
      <!-- 40 -->
      <g transform="translate(37.875 65.699166)scale(0.1 -0.1)">
       <use xlink:href="#DejaVuSans-52"/>
       <use x="63.623047" xlink:href="#DejaVuSans-48"/>
      </g>
     </g>
    </g>
   </g>
   <g id="line2d_17">
    <path clip-path="url(#pcbacdb7a5a)" d="M 73.832727 276.369215 
L 75.208382 258.931496 
L 75.89621 285.208151 
L 78.188968 213.682817 
L 79.564622 274.121124 
L 80.711002 285.388265 
L 82.774484 284.727847 
L 83.462311 287.896522 
L 83.691587 286.088709 
L 84.837966 292.792958 
L 85.984345 286.68909 
L 86.442897 289.650967 
L 86.672173 221.554473 
L 86.901448 285.748494 
L 87.818552 283.940681 
L 88.277103 289.590929 
L 88.506379 244.155464 
L 88.964931 288.323459 
L 89.882034 291.038513 
L 90.11131 278.41718 
L 90.340586 289.190675 
L 91.257689 282.759933 
L 91.945516 289.817739 
L 92.862619 279.471182 
L 93.091895 283.433693 
L 93.550447 279.804726 
L 94.46755 292.566148 
L 94.926102 287.449572 
L 95.155378 287.88318 
L 95.613929 285.815203 
L 95.843205 291.338703 
L 96.072481 257.503925 
L 96.989584 224.029375 
L 97.21886 260.07889 
L 97.906687 289.324093 
L 98.135963 247.951204 
L 98.365239 247.92452 
L 98.594515 290.077904 
L 99.053066 282.159552 
L 99.511618 290.124601 
L 99.740894 275.568708 
L 99.970169 279.344435 
L 100.199445 264.341592 
L 100.887273 289.584258 
L 101.116549 289.29741 
L 101.345824 293.54677 
L 102.033652 283.433693 
L 102.262928 289.444169 
L 102.492203 245.936593 
L 102.950755 293.266592 
L 103.638582 276.989609 
L 103.867858 288.116661 
L 104.555686 292.592832 
L 105.014237 181.602484 
L 105.243513 279.004219 
L 105.472789 272.573476 
L 106.160616 286.068697 
L 106.848444 248.097963 
L 107.306995 268.364142 
L 107.536271 290.364753 
L 107.994823 283.580453 
L 108.224099 286.228798 
L 108.453374 285.895253 
L 108.68265 279.351105 
L 108.911926 232.821614 
L 109.370478 265.955949 
L 109.599753 249.592244 
L 109.829029 284.881277 
L 110.287581 264.841909 
L 110.516857 268.063951 
L 110.975408 282.339666 
L 111.43396 281.972767 
L 111.663236 280.751993 
L 112.351063 289.130637 
L 112.580339 268.837775 
L 113.038891 282.993414 
L 113.497442 251.099866 
L 113.726718 288.870472 
L 113.955994 289.5976 
L 114.18527 243.875287 
L 114.414545 285.681785 
L 114.643821 289.67098 
L 115.331649 289.384131 
L 115.560924 290.711639 
L 115.7902 289.624283 
L 116.019476 231.240612 
L 116.248752 281.272323 
L 116.478028 275.108416 
L 116.707304 282.686553 
L 116.936579 275.248505 
L 117.165855 247.891166 
L 117.395131 289.690992 
L 117.853683 238.511887 
L 118.082958 288.136674 
L 119.000062 268.197369 
L 119.229337 265.749151 
L 119.458613 284.621112 
L 119.687889 277.403204 
L 119.917165 285.188138 
L 120.146441 274.294567 
L 120.375716 287.943218 
L 120.604992 287.482926 
L 120.834268 281.652564 
L 121.063544 286.869204 
L 121.29282 269.084598 
L 121.522096 288.043281 
L 121.751371 288.530257 
L 121.980647 281.565843 
L 122.209923 285.655101 
L 122.668475 285.034708 
L 122.89775 286.035342 
L 123.127026 268.13066 
L 123.356302 160.669216 
L 123.585578 266.269481 
L 123.814854 268.610965 
L 124.044129 289.010561 
L 124.502681 291.3854 
L 124.731957 259.912118 
L 124.961233 282.66654 
L 125.190508 287.50961 
L 125.419784 277.630015 
L 125.64906 274.794884 
L 125.878336 288.810434 
L 126.107612 291.965768 
L 126.336888 275.188467 
L 126.566163 277.116356 
L 127.024715 276.429254 
L 127.253991 243.681831 
L 127.483267 275.622075 
L 127.712542 273.173857 
L 127.941818 280.545196 
L 128.171094 256.356531 
L 128.40037 282.106185 
L 128.629646 281.032171 
L 128.858921 282.112856 
L 129.088197 277.610002 
L 129.317473 265.102074 
L 129.546749 292.973073 
L 130.0053 273.233895 
L 130.234576 280.885411 
L 130.463852 254.33525 
L 130.693128 267.476913 
L 130.922404 244.662453 
L 131.15168 278.483889 
L 131.610231 285.254847 
L 131.839507 248.544913 
L 132.068783 283.41368 
L 132.298059 285.841886 
L 132.527334 279.090941 
L 132.75661 284.881277 
L 132.985886 273.113819 
L 133.444438 145.606336 
L 133.673713 290.017866 
L 133.902989 263.200869 
L 134.132265 280.57855 
L 134.361541 164.451613 
L 134.590817 260.45246 
L 135.049368 283.026769 
L 135.278644 228.105292 
L 135.50792 266.536317 
L 135.737196 264.201503 
L 135.966471 246.05667 
L 136.425023 282.299641 
L 136.883575 272.013121 
L 137.112851 289.697663 
L 137.342126 282.773275 
L 137.800678 214.296539 
L 138.25923 282.980072 
L 138.488505 275.475316 
L 138.717781 236.610682 
L 138.947057 265.202138 
L 139.176333 277.930205 
L 139.405609 275.1351 
L 139.634884 207.932506 
L 140.093436 267.069988 
L 140.551988 269.344763 
L 140.781263 262.820628 
L 141.010539 285.928608 
L 141.239815 281.17226 
L 141.469091 284.961328 
L 141.698367 212.475385 
L 141.927643 276.32919 
L 142.156918 279.898119 
L 142.386194 274.227858 
L 142.61547 252.273943 
L 142.844746 271.119221 
L 143.074022 268.137331 
L 143.303297 283.653833 
L 143.532573 283.607136 
L 143.761849 276.262481 
L 143.991125 295.488 
L 144.220401 288.997219 
L 144.449676 288.390168 
L 144.678952 260.872727 
L 144.908228 273.64082 
L 145.137504 248.998534 
L 145.36678 279.704663 
L 145.596055 272.586818 
L 145.825331 261.646551 
L 146.054607 290.104588 
L 146.283883 283.7072 
L 146.742435 285.86857 
L 147.200986 231.380701 
L 147.430262 289.15065 
L 147.659538 268.430851 
L 147.888814 289.544233 
L 148.118089 284.074099 
L 148.347365 274.90829 
L 148.576641 293.286605 
L 148.805917 262.934033 
L 149.035193 292.966402 
L 149.264468 287.95656 
L 149.493744 285.94862 
L 149.72302 270.385423 
L 149.952296 267.617002 
L 150.181572 232.101158 
L 150.410847 285.068062 
L 150.640123 229.50618 
L 150.869399 271.432753 
L 151.098675 264.321579 
L 151.327951 292.459414 
L 151.557227 268.517572 
L 151.786502 275.675442 
L 152.015778 243.174843 
L 152.245054 267.423546 
L 152.703606 270.545524 
L 152.932881 283.567111 
L 153.162157 261.299664 
L 153.391433 288.957194 
L 153.620709 248.938496 
L 153.849985 288.763738 
L 154.308536 292.946389 
L 154.767088 249.312066 
L 154.996364 289.637625 
L 155.225639 281.479121 
L 155.454915 277.883509 
L 155.684191 286.302178 
L 155.913467 265.36891 
L 156.142743 283.173528 
L 156.372018 284.801227 
L 156.601294 289.470853 
L 156.83057 270.932436 
L 157.059846 288.009927 
L 157.289122 259.738675 
L 157.518398 281.272323 
L 157.747673 267.697052 
L 157.976949 289.697663 
L 158.206225 284.407644 
L 158.435501 246.970582 
L 158.664777 285.001353 
L 158.894052 290.724981 
L 159.123328 290.231335 
L 159.58188 281.118893 
L 159.811156 284.00739 
L 160.040431 244.128781 
L 160.498983 250.139257 
L 160.728259 257.223747 
L 160.957535 291.98578 
L 161.18681 201.308307 
L 161.416086 276.622709 
L 161.645362 275.308543 
L 161.874638 278.096977 
L 162.103914 244.302224 
L 162.33319 284.621112 
L 162.562465 276.62938 
L 162.791741 243.881958 
L 163.021017 279.004219 
L 163.479569 291.558843 
L 163.708844 271.792982 
L 163.93812 271.372715 
L 164.167396 288.243408 
L 164.396672 287.636357 
L 164.625948 265.909252 
L 164.855223 266.396228 
L 165.084499 275.662101 
L 165.313775 276.729444 
L 166.001602 287.949889 
L 166.460154 221.53446 
L 166.68943 269.518207 
L 167.147982 289.284068 
L 167.377257 238.865445 
L 167.606533 289.851094 
L 167.835809 264.635112 
L 168.065085 286.482292 
L 168.294361 289.103954 
L 168.523636 283.086807 
L 168.752912 230.426763 
L 169.211464 290.217993 
L 169.670015 289.497536 
L 169.899291 262.213577 
L 170.128567 277.856825 
L 170.587119 288.576953 
L 170.816394 286.082038 
L 171.04567 291.472121 
L 171.274946 287.589661 
L 171.504222 277.036305 
L 172.192049 226.45091 
L 172.421325 278.19037 
L 172.650601 286.962596 
L 172.879877 288.963865 
L 173.109153 278.750725 
L 173.338428 254.7822 
L 173.567704 250.165941 
L 173.79698 284.360947 
L 174.026256 254.942301 
L 174.255532 252.233918 
L 174.484807 287.529623 
L 174.943359 255.289188 
L 175.401911 279.044244 
L 176.319014 244.64244 
L 176.54829 278.597294 
L 176.777565 285.028037 
L 177.006841 239.979484 
L 177.465393 271.065854 
L 177.923945 282.039476 
L 178.382496 267.263444 
L 178.611772 270.705626 
L 178.841048 285.121429 
L 179.070324 212.155182 
L 179.299599 275.648759 
L 179.528875 290.311386 
L 179.758151 277.089672 
L 179.987427 235.269833 
L 180.216703 274.588087 
L 180.90453 277.169723 
L 181.133806 274.961657 
L 181.363082 283.11349 
L 181.592357 285.228164 
L 181.821633 248.51823 
L 182.050909 260.999474 
L 182.280185 287.349508 
L 182.509461 234.415958 
L 182.738737 218.372456 
L 183.197288 289.464182 
L 183.65584 284.747859 
L 183.885116 283.640491 
L 184.114391 286.422254 
L 184.572943 282.759933 
L 184.802219 272.967059 
L 185.031495 244.882592 
L 185.26077 287.402875 
L 185.490046 281.539159 
L 185.719322 291.31202 
L 185.948598 280.285031 
L 186.177874 258.751382 
L 186.407149 280.591892 
L 186.636425 286.068697 
L 186.865701 216.371188 
L 187.094977 283.800592 
L 187.324253 285.508341 
L 187.553529 251.633538 
L 187.782804 285.57505 
L 188.01208 134.886208 
L 188.241356 158.040883 
L 188.470632 278.503902 
L 188.929183 271.366044 
L 189.158459 177.606618 
L 189.387735 241.246954 
L 189.846287 286.235469 
L 190.304838 263.094135 
L 190.534114 263.927997 
L 190.992666 276.115721 
L 191.221941 245.709783 
L 191.451217 263.43435 
L 191.909769 179.741304 
L 192.139045 188.033227 
L 192.36832 284.887948 
L 192.597596 276.589355 
L 193.285424 290.798361 
L 193.5147 280.738652 
L 193.743975 254.588744 
L 194.202527 288.883814 
L 194.431803 284.507707 
L 194.661079 283.913998 
L 194.890354 246.103366 
L 195.11963 284.147479 
L 195.348906 271.105879 
L 195.807458 265.382252 
L 196.266009 229.559547 
L 196.724561 287.763104 
L 197.183112 209.666938 
L 197.641664 288.18337 
L 198.100216 262.400362 
L 198.329492 219.599901 
L 198.558767 236.363859 
L 198.788043 288.963865 
L 199.017319 289.017232 
L 199.475871 108.369401 
L 199.705146 278.277091 
L 199.934422 266.603026 
L 200.163698 286.328861 
L 200.392974 247.92452 
L 200.62225 279.477852 
L 200.851525 285.875241 
L 201.080801 282.653198 
L 201.310077 254.702149 
L 201.539353 275.842215 
L 201.997904 267.110014 
L 202.456456 264.40163 
L 202.685732 208.726342 
L 202.915008 281.012158 
L 203.373559 267.216748 
L 203.602835 193.223183 
L 203.832111 278.897485 
L 204.061387 265.468973 
L 204.290663 288.356813 
L 204.519938 285.895253 
L 204.97849 269.137966 
L 205.437042 274.574745 
L 205.666317 282.212919 
L 205.895593 214.696793 
L 206.124869 235.243149 
L 206.354145 208.25938 
L 206.812696 260.872727 
L 207.271248 217.618645 
L 207.500524 274.854922 
L 207.7298 262.520438 
L 207.959076 256.603354 
L 208.188351 291.565514 
L 208.417627 276.669406 
L 208.876179 291.378729 
L 209.33473 284.921303 
L 209.564006 257.117013 
L 209.793282 288.810434 
L 210.481109 282.393034 
L 210.710385 225.937251 
L 210.939661 270.772335 
L 211.168937 288.276763 
L 211.398213 237.097658 
L 211.627488 285.434962 
L 211.856764 99.463756 
L 212.315316 287.749762 
L 212.544592 244.815883 
L 212.773867 277.643356 
L 213.003143 267.823799 
L 213.232419 284.861265 
L 213.461695 271.686247 
L 213.690971 243.348286 
L 214.149522 234.649439 
L 215.066626 276.195772 
L 215.525177 219.900091 
L 215.754453 272.880338 
L 215.983729 241.827322 
L 216.213005 274.634783 
L 216.44228 288.683687 
L 216.900832 290.885083 
L 217.359384 289.230701 
L 217.588659 274.548061 
L 218.047211 291.065197 
L 218.276487 287.716408 
L 218.505763 286.975938 
L 218.735039 222.074803 
L 219.19359 276.375886 
L 219.422866 287.482926 
L 220.569245 287.769775 
L 220.798521 281.879375 
L 221.027797 292.232603 
L 221.257072 245.296188 
L 221.486348 245.76315 
L 221.715624 289.210688 
L 221.9449 53.568 
L 222.174176 261.399728 
L 222.632727 285.228164 
L 222.862003 287.569648 
L 223.320555 286.39557 
L 223.549831 281.539159 
L 223.779106 273.427351 
L 224.008382 277.503268 
L 224.237658 291.412083 
L 224.69621 284.967999 
L 224.925485 234.636098 
L 225.384037 291.418754 
L 225.613313 268.310775 
L 225.842589 276.282494 
L 226.530416 290.137942 
L 226.759692 271.652893 
L 226.988968 276.522646 
L 227.218243 289.791056 
L 227.447519 274.261213 
L 227.676795 289.917803 
L 227.906071 287.149381 
L 228.135347 250.412764 
L 228.364622 287.13604 
L 228.593898 278.844117 
L 228.823174 231.267296 
L 229.511002 288.576953 
L 229.740277 278.597294 
L 229.969553 287.849825 
L 230.198829 277.036305 
L 230.428105 277.249774 
L 230.657381 246.403556 
L 231.345208 289.083941 
L 231.574484 288.903827 
L 232.033035 271.245968 
L 232.491587 291.372058 
L 232.950139 287.262787 
L 233.179414 290.778348 
L 233.40869 287.869838 
L 234.096518 273.167186 
L 234.325794 274.568074 
L 234.555069 288.356813 
L 235.013621 282.226261 
L 235.472173 255.162441 
L 235.701448 288.18337 
L 237.077103 282.346337 
L 237.306379 273.300604 
L 237.764931 283.547098 
L 237.994206 215.937579 
L 238.223482 291.425425 
L 238.452758 253.894971 
L 238.682034 289.517549 
L 238.91131 289.444169 
L 239.140586 282.753262 
L 239.369861 282.186236 
L 240.51624 289.711005 
L 240.745516 273.427351 
L 240.974792 271.586184 
L 241.433344 283.960694 
L 242.121171 288.737054 
L 242.579723 286.368887 
L 242.808998 271.306006 
L 243.038274 265.22215 
L 243.26755 285.281531 
L 244.184653 275.58205 
L 244.872481 285.234835 
L 245.331032 288.957194 
L 245.560308 282.693224 
L 245.789584 279.811397 
L 246.248136 228.438836 
L 246.477411 220.927409 
L 246.706687 176.892832 
L 247.394515 274.38796 
L 248.082342 263.20754 
L 248.770169 283.380326 
L 249.228721 245.476302 
L 249.457997 283.687187 
L 250.3751 268.310775 
L 250.604376 232.774918 
L 251.062928 291.131906 
L 251.521479 289.484195 
L 251.980031 261.993437 
L 252.897134 269.858422 
L 253.12641 283.366984 
L 253.355686 289.917803 
L 253.814237 270.245334 
L 254.272789 222.12817 
L 255.419168 272.880338 
L 255.87772 253.808249 
L 257.024099 288.203383 
L 257.253374 276.489292 
L 257.48265 272.386691 
L 257.941202 288.443535 
L 258.170478 193.216512 
L 258.629029 274.31458 
L 260.004684 242.547779 
L 260.23396 275.415278 
L 260.921787 289.037245 
L 262.526718 289.097283 
L 262.98527 263.647819 
L 263.443821 262.713894 
L 264.819476 279.958157 
L 266.195131 257.864153 
L 266.882958 187.005909 
L 267.800062 232.614816 
L 271.009923 288.296775 
L 271.239199 239.178977 
L 271.69775 281.47245 
L 274.44906 279.15765 
L 277.888197 283.066794 
L 279.034576 255.095732 
L 280.639507 281.218956 
L 282.015162 286.782482 
L 283.849368 265.488986 
L 287.747057 259.671966 
L 289.351988 277.870167 
L 291.186194 272.186564 
L 296.688814 272.546793 
L 297.835193 275.308543 
L 333.143667 289.877777 
L 398.487273 265.775835 
L 398.487273 265.775835 
" style="fill:none;stroke:#0000ff;stroke-linecap:square;stroke-width:1.5;"/>
   </g>
   <g id="patch_3">
    <path d="M 57.6 307.584 
L 57.6 41.472 
" style="fill:none;stroke:#000000;stroke-linecap:square;stroke-linejoin:miter;stroke-width:0.8;"/>
   </g>
   <g id="patch_4">
    <path d="M 414.72 307.584 
L 414.72 41.472 
" style="fill:none;stroke:#000000;stroke-linecap:square;stroke-linejoin:miter;stroke-width:0.8;"/>
   </g>
   <g id="patch_5">
    <path d="M 57.6 307.584 
L 414.72 307.584 
" style="fill:none;stroke:#000000;stroke-linecap:square;stroke-linejoin:miter;stroke-width:0.8;"/>
   </g>
   <g id="patch_6">
    <path d="M 57.6 41.472 
L 414.72 41.472 
" style="fill:none;stroke:#000000;stroke-linecap:square;stroke-linejoin:miter;stroke-width:0.8;"/>
   </g>
   <g id="text_18">
    <!-- wind_speed-&gt;ping_day -->
    <g transform="translate(166.53 35.472)scale(0.12 -0.12)">
     <defs>
      <path d="M 4.890625 31.390625 
L 31.203125 31.390625 
L 31.203125 23.390625 
L 4.890625 23.390625 
z
" id="DejaVuSans-45"/>
      <path d="M 10.59375 49.21875 
L 10.59375 58.109375 
L 73.1875 35.40625 
L 73.1875 27.296875 
L 10.59375 4.59375 
L 10.59375 13.484375 
L 60.890625 31.296875 
z
" id="DejaVuSans-62"/>
      <path d="M 45.40625 27.984375 
Q 45.40625 37.75 41.375 43.109375 
Q 37.359375 48.484375 30.078125 48.484375 
Q 22.859375 48.484375 18.828125 43.109375 
Q 14.796875 37.75 14.796875 27.984375 
Q 14.796875 18.265625 18.828125 12.890625 
Q 22.859375 7.515625 30.078125 7.515625 
Q 37.359375 7.515625 41.375 12.890625 
Q 45.40625 18.265625 45.40625 27.984375 
z
M 54.390625 6.78125 
Q 54.390625 -7.171875 48.1875 -13.984375 
Q 42 -20.796875 29.203125 -20.796875 
Q 24.46875 -20.796875 20.265625 -20.09375 
Q 16.0625 -19.390625 12.109375 -17.921875 
L 12.109375 -9.1875 
Q 16.0625 -11.328125 19.921875 -12.34375 
Q 23.78125 -13.375 27.78125 -13.375 
Q 36.625 -13.375 41.015625 -8.765625 
Q 45.40625 -4.15625 45.40625 5.171875 
L 45.40625 9.625 
Q 42.625 4.78125 38.28125 2.390625 
Q 33.9375 0 27.875 0 
Q 17.828125 0 11.671875 7.65625 
Q 5.515625 15.328125 5.515625 27.984375 
Q 5.515625 40.671875 11.671875 48.328125 
Q 17.828125 56 27.875 56 
Q 33.9375 56 38.28125 53.609375 
Q 42.625 51.21875 45.40625 46.390625 
L 45.40625 54.6875 
L 54.390625 54.6875 
z
" id="DejaVuSans-103"/>
      <path d="M 32.171875 -5.078125 
Q 28.375 -14.84375 24.75 -17.8125 
Q 21.140625 -20.796875 15.09375 -20.796875 
L 7.90625 -20.796875 
L 7.90625 -13.28125 
L 13.1875 -13.28125 
Q 16.890625 -13.28125 18.9375 -11.515625 
Q 21 -9.765625 23.484375 -3.21875 
L 25.09375 0.875 
L 2.984375 54.6875 
L 12.5 54.6875 
L 29.59375 11.921875 
L 46.6875 54.6875 
L 56.203125 54.6875 
z
" id="DejaVuSans-121"/>
     </defs>
     <use xlink:href="#DejaVuSans-119"/>
     <use x="81.787109" xlink:href="#DejaVuSans-105"/>
     <use x="109.570312" xlink:href="#DejaVuSans-110"/>
     <use x="172.949219" xlink:href="#DejaVuSans-100"/>
     <use x="236.425781" xlink:href="#DejaVuSans-95"/>
     <use x="286.425781" xlink:href="#DejaVuSans-115"/>
     <use x="338.525391" xlink:href="#DejaVuSans-112"/>
     <use x="402.001953" xlink:href="#DejaVuSans-101"/>
     <use x="463.525391" xlink:href="#DejaVuSans-101"/>
     <use x="525.048828" xlink:href="#DejaVuSans-100"/>
     <use x="588.525391" xlink:href="#DejaVuSans-45"/>
     <use x="624.609375" xlink:href="#DejaVuSans-62"/>
     <use x="708.398438" xlink:href="#DejaVuSans-112"/>
     <use x="771.875" xlink:href="#DejaVuSans-105"/>
     <use x="799.658203" xlink:href="#DejaVuSans-110"/>
     <use x="863.037109" xlink:href="#DejaVuSans-103"/>
     <use x="926.513672" xlink:href="#DejaVuSans-95"/>
     <use x="976.513672" xlink:href="#DejaVuSans-100"/>
     <use x="1039.990234" xlink:href="#DejaVuSans-97"/>
     <use x="1101.269531" xlink:href="#DejaVuSans-121"/>
    </g>
   </g>
  </g>
  <g id="legend_1">
   <g id="patch_7">
    <path d="M 415.451563 22.678125 
L 453.8 22.678125 
Q 455.8 22.678125 455.8 20.678125 
L 455.8 7 
Q 455.8 5 453.8 5 
L 415.451563 5 
Q 413.451563 5 413.451563 7 
L 413.451563 20.678125 
Q 413.451563 22.678125 415.451563 22.678125 
z
" style="fill:#ffffff;opacity:0.8;stroke:#cccccc;stroke-linejoin:miter;"/>
   </g>
   <g id="line2d_18">
    <path d="M 417.451563 13.098438 
L 437.451563 13.098438 
" style="fill:none;stroke:#0000ff;stroke-linecap:square;stroke-width:1.5;"/>
   </g>
   <g id="line2d_19"/>
   <g id="text_19">
    <!-- p -->
    <g transform="translate(445.451563 16.598438)scale(0.1 -0.1)">
     <use xlink:href="#DejaVuSans-112"/>
    </g>
   </g>
  </g>
 </g>
 <defs>
  <clipPath id="pcbacdb7a5a">
   <rect height="266.112" width="357.12" x="57.6" y="41.472"/>
  </clipPath>
 </defs>
</svg>
