<?xml version="1.0" encoding="utf-8" standalone="no"?>
<!DOCTYPE svg PUBLIC "-//W3C//DTD SVG 1.1//EN"
  "http://www.w3.org/Graphics/SVG/1.1/DTD/svg11.dtd">
<!-- Created with matplotlib (https://matplotlib.org/) -->
<svg height="345.6pt" version="1.1" viewBox="0 0 460.8 345.6" width="460.8pt" xmlns="http://www.w3.org/2000/svg" xmlns:xlink="http://www.w3.org/1999/xlink">
 <metadata>
  <rdf:RDF xmlns:cc="http://creativecommons.org/ns#" xmlns:dc="http://purl.org/dc/elements/1.1/" xmlns:rdf="http://www.w3.org/1999/02/22-rdf-syntax-ns#">
   <cc:Work>
    <dc:type rdf:resource="http://purl.org/dc/dcmitype/StillImage"/>
    <dc:date>2022-07-16T17:54:53.464115</dc:date>
    <dc:format>image/svg+xml</dc:format>
    <dc:creator>
     <cc:Agent>
      <dc:title>Matplotlib v3.3.2, https://matplotlib.org/</dc:title>
     </cc:Agent>
    </dc:creator>
   </cc:Work>
  </rdf:RDF>
 </metadata>
 <defs>
  <style type="text/css">*{stroke-linecap:butt;stroke-linejoin:round;}</style>
 </defs>
 <g id="figure_1">
  <g id="patch_1">
   <path d="M 0 345.6 
L 460.8 345.6 
L 460.8 0 
L 0 0 
z
" style="fill:#ffffff;"/>
  </g>
  <g id="axes_1">
   <g id="patch_2">
    <path d="M 57.6 307.584 
L 414.72 307.584 
L 414.72 41.472 
L 57.6 41.472 
z
" style="fill:#ffffff;"/>
   </g>
   <g id="matplotlib.axis_1">
    <g id="xtick_1">
     <g id="line2d_1">
      <defs>
       <path d="M 0 0 
L 0 3.5 
" id="m7f3221965f" style="stroke:#000000;stroke-width:0.8;"/>
      </defs>
      <g>
       <use style="stroke:#000000;stroke-width:0.8;" x="66.079036" xlink:href="#m7f3221965f" y="307.584"/>
      </g>
     </g>
     <g id="text_1">
      <!-- 5 -->
      <g transform="translate(62.897786 322.182437)scale(0.1 -0.1)">
       <defs>
        <path d="M 10.796875 72.90625 
L 49.515625 72.90625 
L 49.515625 64.59375 
L 19.828125 64.59375 
L 19.828125 46.734375 
Q 21.96875 47.46875 24.109375 47.828125 
Q 26.265625 48.1875 28.421875 48.1875 
Q 40.625 48.1875 47.75 41.5 
Q 54.890625 34.8125 54.890625 23.390625 
Q 54.890625 11.625 47.5625 5.09375 
Q 40.234375 -1.421875 26.90625 -1.421875 
Q 22.3125 -1.421875 17.546875 -0.640625 
Q 12.796875 0.140625 7.71875 1.703125 
L 7.71875 11.625 
Q 12.109375 9.234375 16.796875 8.0625 
Q 21.484375 6.890625 26.703125 6.890625 
Q 35.15625 6.890625 40.078125 11.328125 
Q 45.015625 15.765625 45.015625 23.390625 
Q 45.015625 31 40.078125 35.4375 
Q 35.15625 39.890625 26.703125 39.890625 
Q 22.75 39.890625 18.8125 39.015625 
Q 14.890625 38.140625 10.796875 36.28125 
z
" id="DejaVuSans-53"/>
       </defs>
       <use xlink:href="#DejaVuSans-53"/>
      </g>
     </g>
    </g>
    <g id="xtick_2">
     <g id="line2d_2">
      <g>
       <use style="stroke:#000000;stroke-width:0.8;" x="128.608802" xlink:href="#m7f3221965f" y="307.584"/>
      </g>
     </g>
     <g id="text_2">
      <!-- 10 -->
      <g transform="translate(122.246302 322.182437)scale(0.1 -0.1)">
       <defs>
        <path d="M 12.40625 8.296875 
L 28.515625 8.296875 
L 28.515625 63.921875 
L 10.984375 60.40625 
L 10.984375 69.390625 
L 28.421875 72.90625 
L 38.28125 72.90625 
L 38.28125 8.296875 
L 54.390625 8.296875 
L 54.390625 0 
L 12.40625 0 
z
" id="DejaVuSans-49"/>
        <path d="M 31.78125 66.40625 
Q 24.171875 66.40625 20.328125 58.90625 
Q 16.5 51.421875 16.5 36.375 
Q 16.5 21.390625 20.328125 13.890625 
Q 24.171875 6.390625 31.78125 6.390625 
Q 39.453125 6.390625 43.28125 13.890625 
Q 47.125 21.390625 47.125 36.375 
Q 47.125 51.421875 43.28125 58.90625 
Q 39.453125 66.40625 31.78125 66.40625 
z
M 31.78125 74.21875 
Q 44.046875 74.21875 50.515625 64.515625 
Q 56.984375 54.828125 56.984375 36.375 
Q 56.984375 17.96875 50.515625 8.265625 
Q 44.046875 -1.421875 31.78125 -1.421875 
Q 19.53125 -1.421875 13.0625 8.265625 
Q 6.59375 17.96875 6.59375 36.375 
Q 6.59375 54.828125 13.0625 64.515625 
Q 19.53125 74.21875 31.78125 74.21875 
z
" id="DejaVuSans-48"/>
       </defs>
       <use xlink:href="#DejaVuSans-49"/>
       <use x="63.623047" xlink:href="#DejaVuSans-48"/>
      </g>
     </g>
    </g>
    <g id="xtick_3">
     <g id="line2d_3">
      <g>
       <use style="stroke:#000000;stroke-width:0.8;" x="191.138568" xlink:href="#m7f3221965f" y="307.584"/>
      </g>
     </g>
     <g id="text_3">
      <!-- 15 -->
      <g transform="translate(184.776068 322.182437)scale(0.1 -0.1)">
       <use xlink:href="#DejaVuSans-49"/>
       <use x="63.623047" xlink:href="#DejaVuSans-53"/>
      </g>
     </g>
    </g>
    <g id="xtick_4">
     <g id="line2d_4">
      <g>
       <use style="stroke:#000000;stroke-width:0.8;" x="253.668335" xlink:href="#m7f3221965f" y="307.584"/>
      </g>
     </g>
     <g id="text_4">
      <!-- 20 -->
      <g transform="translate(247.305835 322.182437)scale(0.1 -0.1)">
       <defs>
        <path d="M 19.1875 8.296875 
L 53.609375 8.296875 
L 53.609375 0 
L 7.328125 0 
L 7.328125 8.296875 
Q 12.9375 14.109375 22.625 23.890625 
Q 32.328125 33.6875 34.8125 36.53125 
Q 39.546875 41.84375 41.421875 45.53125 
Q 43.3125 49.21875 43.3125 52.78125 
Q 43.3125 58.59375 39.234375 62.25 
Q 35.15625 65.921875 28.609375 65.921875 
Q 23.96875 65.921875 18.8125 64.3125 
Q 13.671875 62.703125 7.8125 59.421875 
L 7.8125 69.390625 
Q 13.765625 71.78125 18.9375 73 
Q 24.125 74.21875 28.421875 74.21875 
Q 39.75 74.21875 46.484375 68.546875 
Q 53.21875 62.890625 53.21875 53.421875 
Q 53.21875 48.921875 51.53125 44.890625 
Q 49.859375 40.875 45.40625 35.40625 
Q 44.1875 33.984375 37.640625 27.21875 
Q 31.109375 20.453125 19.1875 8.296875 
z
" id="DejaVuSans-50"/>
       </defs>
       <use xlink:href="#DejaVuSans-50"/>
       <use x="63.623047" xlink:href="#DejaVuSans-48"/>
      </g>
     </g>
    </g>
    <g id="xtick_5">
     <g id="line2d_5">
      <g>
       <use style="stroke:#000000;stroke-width:0.8;" x="316.198101" xlink:href="#m7f3221965f" y="307.584"/>
      </g>
     </g>
     <g id="text_5">
      <!-- 25 -->
      <g transform="translate(309.835601 322.182437)scale(0.1 -0.1)">
       <use xlink:href="#DejaVuSans-50"/>
       <use x="63.623047" xlink:href="#DejaVuSans-53"/>
      </g>
     </g>
    </g>
    <g id="xtick_6">
     <g id="line2d_6">
      <g>
       <use style="stroke:#000000;stroke-width:0.8;" x="378.727867" xlink:href="#m7f3221965f" y="307.584"/>
      </g>
     </g>
     <g id="text_6">
      <!-- 30 -->
      <g transform="translate(372.365367 322.182437)scale(0.1 -0.1)">
       <defs>
        <path d="M 40.578125 39.3125 
Q 47.65625 37.796875 51.625 33 
Q 55.609375 28.21875 55.609375 21.1875 
Q 55.609375 10.40625 48.1875 4.484375 
Q 40.765625 -1.421875 27.09375 -1.421875 
Q 22.515625 -1.421875 17.65625 -0.515625 
Q 12.796875 0.390625 7.625 2.203125 
L 7.625 11.71875 
Q 11.71875 9.328125 16.59375 8.109375 
Q 21.484375 6.890625 26.8125 6.890625 
Q 36.078125 6.890625 40.9375 10.546875 
Q 45.796875 14.203125 45.796875 21.1875 
Q 45.796875 27.640625 41.28125 31.265625 
Q 36.765625 34.90625 28.71875 34.90625 
L 20.21875 34.90625 
L 20.21875 43.015625 
L 29.109375 43.015625 
Q 36.375 43.015625 40.234375 45.921875 
Q 44.09375 48.828125 44.09375 54.296875 
Q 44.09375 59.90625 40.109375 62.90625 
Q 36.140625 65.921875 28.71875 65.921875 
Q 24.65625 65.921875 20.015625 65.03125 
Q 15.375 64.15625 9.8125 62.3125 
L 9.8125 71.09375 
Q 15.4375 72.65625 20.34375 73.4375 
Q 25.25 74.21875 29.59375 74.21875 
Q 40.828125 74.21875 47.359375 69.109375 
Q 53.90625 64.015625 53.90625 55.328125 
Q 53.90625 49.265625 50.4375 45.09375 
Q 46.96875 40.921875 40.578125 39.3125 
z
" id="DejaVuSans-51"/>
       </defs>
       <use xlink:href="#DejaVuSans-51"/>
       <use x="63.623047" xlink:href="#DejaVuSans-48"/>
      </g>
     </g>
    </g>
    <g id="text_7">
     <!-- temperature from OpenWeatherMap -->
     <g transform="translate(144.963906 335.860562)scale(0.1 -0.1)">
      <defs>
       <path d="M 18.3125 70.21875 
L 18.3125 54.6875 
L 36.8125 54.6875 
L 36.8125 47.703125 
L 18.3125 47.703125 
L 18.3125 18.015625 
Q 18.3125 11.328125 20.140625 9.421875 
Q 21.96875 7.515625 27.59375 7.515625 
L 36.8125 7.515625 
L 36.8125 0 
L 27.59375 0 
Q 17.1875 0 13.234375 3.875 
Q 9.28125 7.765625 9.28125 18.015625 
L 9.28125 47.703125 
L 2.6875 47.703125 
L 2.6875 54.6875 
L 9.28125 54.6875 
L 9.28125 70.21875 
z
" id="DejaVuSans-116"/>
       <path d="M 56.203125 29.59375 
L 56.203125 25.203125 
L 14.890625 25.203125 
Q 15.484375 15.921875 20.484375 11.0625 
Q 25.484375 6.203125 34.421875 6.203125 
Q 39.59375 6.203125 44.453125 7.46875 
Q 49.3125 8.734375 54.109375 11.28125 
L 54.109375 2.78125 
Q 49.265625 0.734375 44.1875 -0.34375 
Q 39.109375 -1.421875 33.890625 -1.421875 
Q 20.796875 -1.421875 13.15625 6.1875 
Q 5.515625 13.8125 5.515625 26.8125 
Q 5.515625 40.234375 12.765625 48.109375 
Q 20.015625 56 32.328125 56 
Q 43.359375 56 49.78125 48.890625 
Q 56.203125 41.796875 56.203125 29.59375 
z
M 47.21875 32.234375 
Q 47.125 39.59375 43.09375 43.984375 
Q 39.0625 48.390625 32.421875 48.390625 
Q 24.90625 48.390625 20.390625 44.140625 
Q 15.875 39.890625 15.1875 32.171875 
z
" id="DejaVuSans-101"/>
       <path d="M 52 44.1875 
Q 55.375 50.25 60.0625 53.125 
Q 64.75 56 71.09375 56 
Q 79.640625 56 84.28125 50.015625 
Q 88.921875 44.046875 88.921875 33.015625 
L 88.921875 0 
L 79.890625 0 
L 79.890625 32.71875 
Q 79.890625 40.578125 77.09375 44.375 
Q 74.3125 48.1875 68.609375 48.1875 
Q 61.625 48.1875 57.5625 43.546875 
Q 53.515625 38.921875 53.515625 30.90625 
L 53.515625 0 
L 44.484375 0 
L 44.484375 32.71875 
Q 44.484375 40.625 41.703125 44.40625 
Q 38.921875 48.1875 33.109375 48.1875 
Q 26.21875 48.1875 22.15625 43.53125 
Q 18.109375 38.875 18.109375 30.90625 
L 18.109375 0 
L 9.078125 0 
L 9.078125 54.6875 
L 18.109375 54.6875 
L 18.109375 46.1875 
Q 21.1875 51.21875 25.484375 53.609375 
Q 29.78125 56 35.6875 56 
Q 41.65625 56 45.828125 52.96875 
Q 50 49.953125 52 44.1875 
z
" id="DejaVuSans-109"/>
       <path d="M 18.109375 8.203125 
L 18.109375 -20.796875 
L 9.078125 -20.796875 
L 9.078125 54.6875 
L 18.109375 54.6875 
L 18.109375 46.390625 
Q 20.953125 51.265625 25.265625 53.625 
Q 29.59375 56 35.59375 56 
Q 45.5625 56 51.78125 48.09375 
Q 58.015625 40.1875 58.015625 27.296875 
Q 58.015625 14.40625 51.78125 6.484375 
Q 45.5625 -1.421875 35.59375 -1.421875 
Q 29.59375 -1.421875 25.265625 0.953125 
Q 20.953125 3.328125 18.109375 8.203125 
z
M 48.6875 27.296875 
Q 48.6875 37.203125 44.609375 42.84375 
Q 40.53125 48.484375 33.40625 48.484375 
Q 26.265625 48.484375 22.1875 42.84375 
Q 18.109375 37.203125 18.109375 27.296875 
Q 18.109375 17.390625 22.1875 11.75 
Q 26.265625 6.109375 33.40625 6.109375 
Q 40.53125 6.109375 44.609375 11.75 
Q 48.6875 17.390625 48.6875 27.296875 
z
" id="DejaVuSans-112"/>
       <path d="M 41.109375 46.296875 
Q 39.59375 47.171875 37.8125 47.578125 
Q 36.03125 48 33.890625 48 
Q 26.265625 48 22.1875 43.046875 
Q 18.109375 38.09375 18.109375 28.8125 
L 18.109375 0 
L 9.078125 0 
L 9.078125 54.6875 
L 18.109375 54.6875 
L 18.109375 46.1875 
Q 20.953125 51.171875 25.484375 53.578125 
Q 30.03125 56 36.53125 56 
Q 37.453125 56 38.578125 55.875 
Q 39.703125 55.765625 41.0625 55.515625 
z
" id="DejaVuSans-114"/>
       <path d="M 34.28125 27.484375 
Q 23.390625 27.484375 19.1875 25 
Q 14.984375 22.515625 14.984375 16.5 
Q 14.984375 11.71875 18.140625 8.90625 
Q 21.296875 6.109375 26.703125 6.109375 
Q 34.1875 6.109375 38.703125 11.40625 
Q 43.21875 16.703125 43.21875 25.484375 
L 43.21875 27.484375 
z
M 52.203125 31.203125 
L 52.203125 0 
L 43.21875 0 
L 43.21875 8.296875 
Q 40.140625 3.328125 35.546875 0.953125 
Q 30.953125 -1.421875 24.3125 -1.421875 
Q 15.921875 -1.421875 10.953125 3.296875 
Q 6 8.015625 6 15.921875 
Q 6 25.140625 12.171875 29.828125 
Q 18.359375 34.515625 30.609375 34.515625 
L 43.21875 34.515625 
L 43.21875 35.40625 
Q 43.21875 41.609375 39.140625 45 
Q 35.0625 48.390625 27.6875 48.390625 
Q 23 48.390625 18.546875 47.265625 
Q 14.109375 46.140625 10.015625 43.890625 
L 10.015625 52.203125 
Q 14.9375 54.109375 19.578125 55.046875 
Q 24.21875 56 28.609375 56 
Q 40.484375 56 46.34375 49.84375 
Q 52.203125 43.703125 52.203125 31.203125 
z
" id="DejaVuSans-97"/>
       <path d="M 8.5 21.578125 
L 8.5 54.6875 
L 17.484375 54.6875 
L 17.484375 21.921875 
Q 17.484375 14.15625 20.5 10.265625 
Q 23.53125 6.390625 29.59375 6.390625 
Q 36.859375 6.390625 41.078125 11.03125 
Q 45.3125 15.671875 45.3125 23.6875 
L 45.3125 54.6875 
L 54.296875 54.6875 
L 54.296875 0 
L 45.3125 0 
L 45.3125 8.40625 
Q 42.046875 3.421875 37.71875 1 
Q 33.40625 -1.421875 27.6875 -1.421875 
Q 18.265625 -1.421875 13.375 4.4375 
Q 8.5 10.296875 8.5 21.578125 
z
M 31.109375 56 
z
" id="DejaVuSans-117"/>
       <path id="DejaVuSans-32"/>
       <path d="M 37.109375 75.984375 
L 37.109375 68.5 
L 28.515625 68.5 
Q 23.6875 68.5 21.796875 66.546875 
Q 19.921875 64.59375 19.921875 59.515625 
L 19.921875 54.6875 
L 34.71875 54.6875 
L 34.71875 47.703125 
L 19.921875 47.703125 
L 19.921875 0 
L 10.890625 0 
L 10.890625 47.703125 
L 2.296875 47.703125 
L 2.296875 54.6875 
L 10.890625 54.6875 
L 10.890625 58.5 
Q 10.890625 67.625 15.140625 71.796875 
Q 19.390625 75.984375 28.609375 75.984375 
z
" id="DejaVuSans-102"/>
       <path d="M 30.609375 48.390625 
Q 23.390625 48.390625 19.1875 42.75 
Q 14.984375 37.109375 14.984375 27.296875 
Q 14.984375 17.484375 19.15625 11.84375 
Q 23.34375 6.203125 30.609375 6.203125 
Q 37.796875 6.203125 41.984375 11.859375 
Q 46.1875 17.53125 46.1875 27.296875 
Q 46.1875 37.015625 41.984375 42.703125 
Q 37.796875 48.390625 30.609375 48.390625 
z
M 30.609375 56 
Q 42.328125 56 49.015625 48.375 
Q 55.71875 40.765625 55.71875 27.296875 
Q 55.71875 13.875 49.015625 6.21875 
Q 42.328125 -1.421875 30.609375 -1.421875 
Q 18.84375 -1.421875 12.171875 6.21875 
Q 5.515625 13.875 5.515625 27.296875 
Q 5.515625 40.765625 12.171875 48.375 
Q 18.84375 56 30.609375 56 
z
" id="DejaVuSans-111"/>
       <path d="M 39.40625 66.21875 
Q 28.65625 66.21875 22.328125 58.203125 
Q 16.015625 50.203125 16.015625 36.375 
Q 16.015625 22.609375 22.328125 14.59375 
Q 28.65625 6.59375 39.40625 6.59375 
Q 50.140625 6.59375 56.421875 14.59375 
Q 62.703125 22.609375 62.703125 36.375 
Q 62.703125 50.203125 56.421875 58.203125 
Q 50.140625 66.21875 39.40625 66.21875 
z
M 39.40625 74.21875 
Q 54.734375 74.21875 63.90625 63.9375 
Q 73.09375 53.65625 73.09375 36.375 
Q 73.09375 19.140625 63.90625 8.859375 
Q 54.734375 -1.421875 39.40625 -1.421875 
Q 24.03125 -1.421875 14.8125 8.828125 
Q 5.609375 19.09375 5.609375 36.375 
Q 5.609375 53.65625 14.8125 63.9375 
Q 24.03125 74.21875 39.40625 74.21875 
z
" id="DejaVuSans-79"/>
       <path d="M 54.890625 33.015625 
L 54.890625 0 
L 45.90625 0 
L 45.90625 32.71875 
Q 45.90625 40.484375 42.875 44.328125 
Q 39.84375 48.1875 33.796875 48.1875 
Q 26.515625 48.1875 22.3125 43.546875 
Q 18.109375 38.921875 18.109375 30.90625 
L 18.109375 0 
L 9.078125 0 
L 9.078125 54.6875 
L 18.109375 54.6875 
L 18.109375 46.1875 
Q 21.34375 51.125 25.703125 53.5625 
Q 30.078125 56 35.796875 56 
Q 45.21875 56 50.046875 50.171875 
Q 54.890625 44.34375 54.890625 33.015625 
z
" id="DejaVuSans-110"/>
       <path d="M 3.328125 72.90625 
L 13.28125 72.90625 
L 28.609375 11.28125 
L 43.890625 72.90625 
L 54.984375 72.90625 
L 70.3125 11.28125 
L 85.59375 72.90625 
L 95.609375 72.90625 
L 77.296875 0 
L 64.890625 0 
L 49.515625 63.28125 
L 33.984375 0 
L 21.578125 0 
z
" id="DejaVuSans-87"/>
       <path d="M 54.890625 33.015625 
L 54.890625 0 
L 45.90625 0 
L 45.90625 32.71875 
Q 45.90625 40.484375 42.875 44.328125 
Q 39.84375 48.1875 33.796875 48.1875 
Q 26.515625 48.1875 22.3125 43.546875 
Q 18.109375 38.921875 18.109375 30.90625 
L 18.109375 0 
L 9.078125 0 
L 9.078125 75.984375 
L 18.109375 75.984375 
L 18.109375 46.1875 
Q 21.34375 51.125 25.703125 53.5625 
Q 30.078125 56 35.796875 56 
Q 45.21875 56 50.046875 50.171875 
Q 54.890625 44.34375 54.890625 33.015625 
z
" id="DejaVuSans-104"/>
       <path d="M 9.8125 72.90625 
L 24.515625 72.90625 
L 43.109375 23.296875 
L 61.8125 72.90625 
L 76.515625 72.90625 
L 76.515625 0 
L 66.890625 0 
L 66.890625 64.015625 
L 48.09375 14.015625 
L 38.1875 14.015625 
L 19.390625 64.015625 
L 19.390625 0 
L 9.8125 0 
z
" id="DejaVuSans-77"/>
      </defs>
      <use xlink:href="#DejaVuSans-116"/>
      <use x="39.208984" xlink:href="#DejaVuSans-101"/>
      <use x="100.732422" xlink:href="#DejaVuSans-109"/>
      <use x="198.144531" xlink:href="#DejaVuSans-112"/>
      <use x="261.621094" xlink:href="#DejaVuSans-101"/>
      <use x="323.144531" xlink:href="#DejaVuSans-114"/>
      <use x="364.257812" xlink:href="#DejaVuSans-97"/>
      <use x="425.537109" xlink:href="#DejaVuSans-116"/>
      <use x="464.746094" xlink:href="#DejaVuSans-117"/>
      <use x="528.125" xlink:href="#DejaVuSans-114"/>
      <use x="566.988281" xlink:href="#DejaVuSans-101"/>
      <use x="628.511719" xlink:href="#DejaVuSans-32"/>
      <use x="660.298828" xlink:href="#DejaVuSans-102"/>
      <use x="695.503906" xlink:href="#DejaVuSans-114"/>
      <use x="734.367188" xlink:href="#DejaVuSans-111"/>
      <use x="795.548828" xlink:href="#DejaVuSans-109"/>
      <use x="892.960938" xlink:href="#DejaVuSans-32"/>
      <use x="924.748047" xlink:href="#DejaVuSans-79"/>
      <use x="1003.458984" xlink:href="#DejaVuSans-112"/>
      <use x="1066.935547" xlink:href="#DejaVuSans-101"/>
      <use x="1128.458984" xlink:href="#DejaVuSans-110"/>
      <use x="1191.837891" xlink:href="#DejaVuSans-87"/>
      <use x="1284.839844" xlink:href="#DejaVuSans-101"/>
      <use x="1346.363281" xlink:href="#DejaVuSans-97"/>
      <use x="1407.642578" xlink:href="#DejaVuSans-116"/>
      <use x="1446.851562" xlink:href="#DejaVuSans-104"/>
      <use x="1510.230469" xlink:href="#DejaVuSans-101"/>
      <use x="1571.753906" xlink:href="#DejaVuSans-114"/>
      <use x="1612.867188" xlink:href="#DejaVuSans-77"/>
      <use x="1699.146484" xlink:href="#DejaVuSans-97"/>
      <use x="1760.425781" xlink:href="#DejaVuSans-112"/>
     </g>
    </g>
   </g>
   <g id="matplotlib.axis_2">
    <g id="ytick_1">
     <g id="line2d_7">
      <defs>
       <path d="M 0 0 
L -3.5 0 
" id="m2dd28c32e8" style="stroke:#000000;stroke-width:0.8;"/>
      </defs>
      <g>
       <use style="stroke:#000000;stroke-width:0.8;" x="57.6" xlink:href="#m2dd28c32e8" y="293.962695"/>
      </g>
     </g>
     <g id="text_8">
      <!-- 5 -->
      <g transform="translate(44.2375 297.761914)scale(0.1 -0.1)">
       <use xlink:href="#DejaVuSans-53"/>
      </g>
     </g>
    </g>
    <g id="ytick_2">
     <g id="line2d_8">
      <g>
       <use style="stroke:#000000;stroke-width:0.8;" x="57.6" xlink:href="#m2dd28c32e8" y="260.803891"/>
      </g>
     </g>
     <g id="text_9">
      <!-- 10 -->
      <g transform="translate(37.875 264.60311)scale(0.1 -0.1)">
       <use xlink:href="#DejaVuSans-49"/>
       <use x="63.623047" xlink:href="#DejaVuSans-48"/>
      </g>
     </g>
    </g>
    <g id="ytick_3">
     <g id="line2d_9">
      <g>
       <use style="stroke:#000000;stroke-width:0.8;" x="57.6" xlink:href="#m2dd28c32e8" y="227.645088"/>
      </g>
     </g>
     <g id="text_10">
      <!-- 15 -->
      <g transform="translate(37.875 231.444306)scale(0.1 -0.1)">
       <use xlink:href="#DejaVuSans-49"/>
       <use x="63.623047" xlink:href="#DejaVuSans-53"/>
      </g>
     </g>
    </g>
    <g id="ytick_4">
     <g id="line2d_10">
      <g>
       <use style="stroke:#000000;stroke-width:0.8;" x="57.6" xlink:href="#m2dd28c32e8" y="194.486284"/>
      </g>
     </g>
     <g id="text_11">
      <!-- 20 -->
      <g transform="translate(37.875 198.285503)scale(0.1 -0.1)">
       <use xlink:href="#DejaVuSans-50"/>
       <use x="63.623047" xlink:href="#DejaVuSans-48"/>
      </g>
     </g>
    </g>
    <g id="ytick_5">
     <g id="line2d_11">
      <g>
       <use style="stroke:#000000;stroke-width:0.8;" x="57.6" xlink:href="#m2dd28c32e8" y="161.32748"/>
      </g>
     </g>
     <g id="text_12">
      <!-- 25 -->
      <g transform="translate(37.875 165.126699)scale(0.1 -0.1)">
       <use xlink:href="#DejaVuSans-50"/>
       <use x="63.623047" xlink:href="#DejaVuSans-53"/>
      </g>
     </g>
    </g>
    <g id="ytick_6">
     <g id="line2d_12">
      <g>
       <use style="stroke:#000000;stroke-width:0.8;" x="57.6" xlink:href="#m2dd28c32e8" y="128.168677"/>
      </g>
     </g>
     <g id="text_13">
      <!-- 30 -->
      <g transform="translate(37.875 131.967895)scale(0.1 -0.1)">
       <use xlink:href="#DejaVuSans-51"/>
       <use x="63.623047" xlink:href="#DejaVuSans-48"/>
      </g>
     </g>
    </g>
    <g id="ytick_7">
     <g id="line2d_13">
      <g>
       <use style="stroke:#000000;stroke-width:0.8;" x="57.6" xlink:href="#m2dd28c32e8" y="95.009873"/>
      </g>
     </g>
     <g id="text_14">
      <!-- 35 -->
      <g transform="translate(37.875 98.809092)scale(0.1 -0.1)">
       <use xlink:href="#DejaVuSans-51"/>
       <use x="63.623047" xlink:href="#DejaVuSans-53"/>
      </g>
     </g>
    </g>
    <g id="ytick_8">
     <g id="line2d_14">
      <g>
       <use style="stroke:#000000;stroke-width:0.8;" x="57.6" xlink:href="#m2dd28c32e8" y="61.851069"/>
      </g>
     </g>
     <g id="text_15">
      <!-- 40 -->
      <g transform="translate(37.875 65.650288)scale(0.1 -0.1)">
       <defs>
        <path d="M 37.796875 64.3125 
L 12.890625 25.390625 
L 37.796875 25.390625 
z
M 35.203125 72.90625 
L 47.609375 72.90625 
L 47.609375 25.390625 
L 58.015625 25.390625 
L 58.015625 17.1875 
L 47.609375 17.1875 
L 47.609375 0 
L 37.796875 0 
L 37.796875 17.1875 
L 4.890625 17.1875 
L 4.890625 26.703125 
z
" id="DejaVuSans-52"/>
       </defs>
       <use xlink:href="#DejaVuSans-52"/>
       <use x="63.623047" xlink:href="#DejaVuSans-48"/>
      </g>
     </g>
    </g>
   </g>
   <g id="line2d_15">
    <path clip-path="url(#pc3e19fa13d)" d="M 73.832727 291.780846 
L 74.207906 288.968979 
L 76.333918 293.365837 
L 77.459454 291.555366 
L 77.834632 281.647515 
L 78.084751 292.258333 
L 78.835109 294.274388 
L 78.960168 291.561998 
L 89.465169 289.320463 
L 89.590228 290.998298 
L 90.340586 287.914529 
L 90.465645 291.979799 
L 90.715764 292.371072 
L 90.965883 290.122906 
L 91.466121 284.45275 
L 93.717193 291.502312 
L 94.092371 289.313831 
L 95.092848 291.615052 
L 95.342967 288.995506 
L 96.843681 288.212958 
L 100.095229 289.983639 
L 100.595467 291.276832 
L 100.970646 275.539664 
L 101.220765 292.132329 
L 103.346777 291.416099 
L 104.097134 289.061824 
L 104.347253 290.182591 
L 104.597372 292.404231 
L 105.347729 287.529887 
L 106.723384 287.927793 
L 106.848444 281.720465 
L 106.973503 292.132329 
L 107.348682 270.406681 
L 107.473741 288.716972 
L 107.72386 290.965139 
L 107.84892 289.943848 
L 108.224099 281.932681 
L 108.349158 261.705811 
L 108.724337 290.21575 
L 109.224575 293.763742 
L 109.724813 292.782242 
L 109.849873 289.49952 
L 109.974932 289.744895 
L 110.350111 293.975959 
L 110.47517 291.853795 
L 111.225527 283.537567 
L 111.350587 292.112434 
L 111.475646 291.867059 
L 111.600706 292.682765 
L 111.725766 288.856239 
L 111.850825 290.036693 
L 112.100944 293.518367 
L 112.476123 288.431807 
L 112.726242 287.490097 
L 112.851301 282.52954 
L 112.976361 290.129537 
L 113.10142 290.620288 
L 113.22648 293.578053 
L 114.352016 292.497076 
L 114.727194 286.667758 
L 115.227432 292.205278 
L 115.352492 288.504756 
L 115.477551 280.540011 
L 115.727671 291.104406 
L 116.102849 282.111739 
L 116.603087 292.357809 
L 116.853206 291.72116 
L 116.978266 288.564442 
L 117.728623 288.962347 
L 117.978742 284.585385 
L 118.353921 292.497076 
L 118.47898 292.735819 
L 118.60404 273.729193 
L 118.729099 286.541755 
L 118.979218 290.587129 
L 119.479457 289.406675 
L 119.604516 283.756415 
L 119.854635 287.344198 
L 120.104754 283.763047 
L 120.730052 292.311387 
L 121.10523 274.266366 
L 121.480409 290.812609 
L 121.605469 289.831108 
L 121.730528 291.084511 
L 121.855588 290.752923 
L 121.980647 292.861823 
L 122.105707 284.359905 
L 122.355826 288.272644 
L 122.480885 284.651703 
L 122.605945 293.239833 
L 122.731004 269.08696 
L 123.106183 291.077879 
L 123.231242 288.21959 
L 123.356302 278.23879 
L 123.481362 242.062535 
L 123.731481 289.307199 
L 124.231719 273.158862 
L 124.356778 266.22204 
L 124.481838 290.872295 
L 124.606897 291.880322 
L 125.107135 289.247513 
L 125.357255 281.06392 
L 125.732433 237.426935 
L 125.857493 251.108257 
L 126.857969 292.742451 
L 127.108088 289.00877 
L 127.233147 283.418195 
L 127.483267 282.615752 
L 127.608326 291.011562 
L 128.108564 281.415404 
L 128.483743 284.83076 
L 128.608802 277.767935 
L 128.733862 292.258333 
L 128.858921 260.989581 
L 128.983981 283.670202 
L 129.10904 284.147689 
L 129.2341 259.364799 
L 129.35916 160.040919 
L 129.484219 277.907202 
L 129.734338 292.77561 
L 130.109517 293.200043 
L 130.234576 292.085907 
L 130.984933 287.025873 
L 131.109993 287.151877 
L 131.235053 287.483465 
L 131.485172 294.128489 
L 131.610231 272.217152 
L 131.98541 293.617843 
L 132.110469 291.628315 
L 132.235529 285.454146 
L 132.610707 290.189223 
L 132.860826 288.338962 
L 132.985886 290.998298 
L 133.236005 291.502312 
L 133.361065 290.951876 
L 133.611184 282.575962 
L 133.736243 283.053449 
L 133.986362 263.105112 
L 134.111422 292.006326 
L 134.236481 282.430063 
L 134.4866 289.492888 
L 134.61166 289.598996 
L 134.861779 288.153273 
L 134.986838 278.789226 
L 135.111898 290.580497 
L 135.362017 288.33233 
L 135.487077 279.505457 
L 135.737196 286.283116 
L 136.112374 291.515575 
L 136.487553 291.595156 
L 136.737672 291.356413 
L 137.23791 289.957112 
L 137.613089 284.512436 
L 137.738148 271.693242 
L 137.863208 291.847163 
L 138.113327 288.531283 
L 138.363446 282.90755 
L 138.488505 290.805977 
L 138.863684 291.323254 
L 139.113803 291.064616 
L 139.238863 293.22657 
L 139.363922 282.79481 
L 139.488982 227.081388 
L 139.614041 289.479625 
L 139.739101 277.840885 
L 139.86416 288.40528 
L 139.98922 286.966187 
L 140.114279 276.328843 
L 140.239339 292.516971 
L 140.364398 291.575261 
L 140.489458 253.601799 
L 140.614517 291.959903 
L 140.739577 279.644724 
L 140.989696 284.863919 
L 141.114756 290.209118 
L 141.239815 286.157113 
L 141.489934 286.581545 
L 141.614994 283.948736 
L 141.740053 275.692194 
L 141.865113 290.832504 
L 141.990172 250.292551 
L 142.115232 288.902662 
L 142.240291 284.174216 
L 142.61547 292.689397 
L 142.740529 287.476833 
L 142.865589 291.296727 
L 142.990649 278.663223 
L 143.115708 249.91454 
L 143.240768 273.099176 
L 143.365827 274.58469 
L 143.490887 290.534075 
L 143.741006 289.260777 
L 143.866065 291.615052 
L 143.991125 289.38678 
L 144.241244 281.415404 
L 144.366303 289.665314 
L 144.741482 284.804233 
L 144.866542 286.137217 
L 144.991601 291.323254 
L 145.24172 275.022386 
L 145.36678 291.94664 
L 145.491839 286.82692 
L 145.616899 287.211563 
L 145.867018 286.93966 
L 146.242196 213.751549 
L 146.367256 288.836344 
L 146.492315 271.003539 
L 146.617375 285.35467 
L 146.742435 257.567592 
L 146.867494 286.581545 
L 146.992554 272.091148 
L 147.242673 290.40144 
L 147.492792 291.2702 
L 147.617851 286.588177 
L 147.742911 286.89987 
L 147.86797 291.72116 
L 147.99303 285.208771 
L 148.118089 269.226227 
L 148.243149 287.529887 
L 148.368208 285.109294 
L 148.493268 286.946292 
L 148.618327 236.823445 
L 148.868447 288.862871 
L 148.993506 218.625893 
L 149.118566 285.593413 
L 149.618804 288.922557 
L 149.743863 283.796206 
L 149.868923 284.684862 
L 149.993982 289.870899 
L 150.119042 270.220992 
L 150.244101 292.563394 
L 150.369161 290.839136 
L 150.49422 264.139667 
L 150.74434 293.531631 
L 150.994459 286.933029 
L 151.244578 271.878932 
L 151.494697 284.028317 
L 151.619756 248.442289 
L 151.869875 288.378752 
L 151.994935 288.372121 
L 152.119994 289.917321 
L 152.245054 273.609821 
L 152.370113 273.311392 
L 152.495173 291.038089 
L 152.620233 284.731284 
L 152.745292 287.629364 
L 152.870352 279.551879 
L 152.995411 281.727096 
L 153.120471 274.425528 
L 153.24553 284.724652 
L 153.495649 259.656597 
L 153.745768 265.638445 
L 153.870828 287.357461 
L 153.995887 283.325351 
L 154.120947 268.078933 
L 154.371066 290.076483 
L 154.496126 180.851384 
L 154.621185 285.321511 
L 154.746245 274.31942 
L 154.996364 291.867059 
L 155.121423 287.257985 
L 155.246483 266.566891 
L 155.496602 279.485561 
L 155.746721 233.355034 
L 155.99684 288.299171 
L 156.121899 244.973878 
L 156.246959 280.632856 
L 156.372018 273.662875 
L 156.497078 235.291508 
L 156.622138 248.734087 
L 156.872257 278.331635 
L 156.997316 287.370725 
L 157.122376 287.815053 
L 157.247435 274.525004 
L 157.372495 289.154668 
L 157.497554 288.126746 
L 157.622614 265.220644 
L 157.872733 289.778054 
L 158.122852 272.349787 
L 158.247911 291.137565 
L 158.372971 225.436711 
L 158.498031 288.027269 
L 158.62309 281.050657 
L 158.74815 289.904057 
L 158.998269 280.818545 
L 159.123328 271.447867 
L 159.373447 291.369677 
L 159.498507 242.765502 
L 159.623566 288.126746 
L 159.748626 292.603184 
L 159.873685 280.473694 
L 159.998745 291.780846 
L 160.123804 291.435994 
L 160.248864 244.158172 
L 160.373924 284.837392 
L 160.624043 278.583642 
L 160.874162 283.491145 
L 160.999221 280.898126 
L 161.124281 287.158509 
L 161.24934 252.719775 
L 161.3744 287.529887 
L 161.624519 278.842281 
L 161.749578 283.782942 
L 161.999697 284.956764 
L 162.124757 284.817497 
L 162.374876 248.74735 
L 162.624995 288.491492 
L 162.750055 286.395856 
L 162.875114 220.469523 
L 163.000174 291.588525 
L 163.125233 285.454146 
L 163.250293 285.540359 
L 163.375352 179.001123 
L 163.500412 288.1798 
L 163.625471 256.599355 
L 163.750531 284.446118 
L 163.87559 286.104059 
L 164.00065 285.931633 
L 164.125709 249.012621 
L 164.250769 287.874739 
L 164.375829 225.151546 
L 164.500888 289.174564 
L 164.625948 187.244401 
L 164.876067 289.247513 
L 165.251245 282.403536 
L 165.376305 289.99027 
L 165.501364 289.426571 
L 165.626424 263.085217 
L 165.751483 290.852399 
L 165.876543 285.586781 
L 166.001602 291.926744 
L 166.126662 291.283464 
L 166.251722 263.688707 
L 166.376781 288.776658 
L 166.501841 286.356065 
L 166.6269 274.949437 
L 166.877019 290.149433 
L 167.002079 287.901266 
L 167.127138 233.573882 
L 167.377257 288.624128 
L 167.502317 200.441605 
L 167.627376 276.912438 
L 167.752436 275.725353 
L 167.877495 276.832857 
L 168.002555 287.23809 
L 168.127615 287.078927 
L 168.252674 285.341406 
L 168.377734 279.445771 
L 168.502793 285.520464 
L 168.627853 285.096031 
L 168.877972 280.314531 
L 169.003031 186.22311 
L 169.128091 286.906502 
L 169.25315 289.12151 
L 169.503269 285.447514 
L 169.628329 274.956069 
L 169.753388 287.383988 
L 169.878448 282.648911 
L 170.003507 282.774915 
L 170.128567 274.962701 
L 170.253627 286.077532 
L 170.378686 246.810876 
L 170.503746 285.971423 
L 170.628805 283.152925 
L 170.753865 259.656597 
L 170.878924 280.367586 
L 171.003984 281.004235 
L 171.129043 278.019942 
L 171.254103 233.839152 
L 171.504222 219.945613 
L 171.754341 289.804581 
L 172.00446 280.765491 
L 172.12952 213.572491 
L 172.254579 225.562715 
L 172.379639 264.530941 
L 172.629758 287.039137 
L 172.754817 279.492193 
L 172.879877 289.910689 
L 173.004936 282.980499 
L 173.129996 288.212958 
L 173.255055 281.773519 
L 173.380115 217.730605 
L 173.630234 279.59167 
L 173.755293 289.870899 
L 173.880353 289.148037 
L 174.255532 270.028671 
L 174.505651 287.927793 
L 174.63071 242.234961 
L 174.880829 293.173516 
L 175.256008 269.577711 
L 175.506127 281.959208 
L 175.631186 276.421688 
L 175.756246 248.986094 
L 176.006365 284.406328 
L 176.131425 99.194514 
L 176.381544 283.981895 
L 176.506603 293.00109 
L 176.631663 268.589578 
L 176.881782 288.537915 
L 177.006841 267.515233 
L 177.25696 287.078927 
L 177.38202 282.403536 
L 177.507079 231.72362 
L 177.757198 283.895682 
L 178.007318 293.558158 
L 178.132377 217.405649 
L 178.382496 289.87753 
L 178.507556 227.412976 
L 178.632615 288.166536 
L 178.882734 256.745254 
L 179.007794 277.721513 
L 179.132853 271.467763 
L 179.382972 287.456938 
L 179.508032 282.881023 
L 179.633091 253.157471 
L 179.758151 287.005978 
L 179.883211 286.362697 
L 180.00827 241.279988 
L 180.13333 290.388176 
L 180.258389 282.900918 
L 180.383449 231.053813 
L 180.508508 285.069504 
L 180.633568 284.976659 
L 180.758627 276.740012 
L 180.883687 278.232159 
L 181.008746 275.844725 
L 181.258865 287.257985 
L 181.383925 279.425875 
L 181.508984 287.244721 
L 181.634044 282.317323 
L 181.759104 270.121515 
L 181.884163 281.89289 
L 182.009223 229.555035 
L 182.134282 290.487652 
L 182.259342 249.642638 
L 182.509461 287.815053 
L 182.63452 274.379106 
L 182.75958 286.661126 
L 182.884639 279.936521 
L 183.009699 289.943848 
L 183.134758 287.443674 
L 183.259818 241.43915 
L 183.384877 288.690445 
L 183.509937 274.173521 
L 183.634996 289.618892 
L 183.760056 286.78713 
L 183.885116 267.037746 
L 184.135235 286.462174 
L 184.385354 273.901619 
L 184.510413 285.772471 
L 184.635473 283.159557 
L 184.760532 287.888002 
L 184.885592 268.251359 
L 185.135711 290.613656 
L 185.38583 289.705105 
L 185.635949 281.720465 
L 185.761009 260.425881 
L 185.886068 278.305108 
L 186.011128 267.05101 
L 186.261247 289.851003 
L 186.511366 288.312435 
L 186.636425 281.223083 
L 186.761485 288.40528 
L 187.011604 279.359558 
L 187.261723 292.808769 
L 187.386782 286.959556 
L 187.511842 265.638445 
L 187.636902 272.986436 
L 187.761961 257.85939 
L 187.887021 290.414703 
L 188.01208 271.348391 
L 188.262199 278.822385 
L 188.387259 289.711736 
L 188.512318 287.470201 
L 188.637378 221.13933 
L 188.762437 286.734076 
L 188.887497 278.782595 
L 189.012556 278.683118 
L 189.137616 290.885558 
L 189.387735 267.820294 
L 189.512795 292.954667 
L 189.637854 277.263921 
L 189.762914 283.723256 
L 189.887973 157.428005 
L 190.013033 266.420993 
L 190.138092 274.372474 
L 190.263152 243.077195 
L 190.388211 284.936869 
L 190.513271 287.907897 
L 190.63833 265.538969 
L 190.76339 279.220291 
L 190.888449 250.279287 
L 191.013509 273.914882 
L 191.388687 253.409478 
L 191.513747 281.766887 
L 191.763866 276.574218 
L 191.888926 286.429015 
L 192.013985 280.818545 
L 192.139045 245.272308 
L 192.264104 270.088356 
L 192.389164 216.65626 
L 192.764342 277.834253 
L 192.889402 276.733381 
L 193.014461 283.875787 
L 193.26458 281.534775 
L 193.38964 278.630064 
L 193.5147 279.51872 
L 193.639759 207.3519 
L 193.889878 287.99411 
L 194.139997 259.238796 
L 194.265057 145.066403 
L 194.390116 280.984339 
L 194.515176 282.827969 
L 194.640235 282.814705 
L 194.890354 253.329897 
L 195.015414 286.11069 
L 195.265533 244.615763 
L 195.390593 287.490097 
L 195.640712 272.933382 
L 195.765771 221.086276 
L 196.01589 282.430063 
L 196.14095 280.440535 
L 196.266009 273.954673 
L 196.391069 283.491145 
L 196.516128 283.007026 
L 196.641188 290.335122 
L 196.766247 253.97981 
L 197.016366 284.220639 
L 197.141426 273.822038 
L 197.266486 280.513484 
L 197.391545 280.506852 
L 197.516605 271.945249 
L 197.641664 291.111038 
L 197.766724 271.103016 
L 197.891783 276.037046 
L 198.141902 228.474058 
L 198.392021 287.417147 
L 198.64214 269.915931 
L 198.7672 281.309296 
L 198.892259 280.228319 
L 199.017319 280.884863 
L 199.142378 274.332683 
L 199.392498 285.626572 
L 199.517557 281.349086 
L 199.642617 287.529887 
L 199.767676 287.748735 
L 199.892736 289.61226 
L 200.142855 264.245775 
L 200.267914 290.315227 
L 200.392974 218.924322 
L 200.643093 264.962005 
L 200.768152 248.919776 
L 200.893212 288.146641 
L 201.018271 220.164462 
L 201.143331 282.847864 
L 201.39345 267.740713 
L 201.51851 287.496728 
L 201.643569 273.967936 
L 201.768629 283.524304 
L 202.018748 270.088356 
L 202.143807 275.937569 
L 202.268867 176.169361 
L 202.393926 276.560955 
L 202.644045 289.678578 
L 202.894164 272.900223 
L 203.019224 283.265665 
L 203.144284 279.664619 
L 203.269343 282.900918 
L 203.394403 270.950485 
L 203.519462 287.297775 
L 203.769581 270.373522 
L 203.894641 279.120814 
L 204.0197 243.521523 
L 204.14476 287.284512 
L 204.269819 275.201444 
L 204.394879 281.262873 
L 204.519938 261.977713 
L 204.644998 265.426229 
L 204.770057 245.836007 
L 205.020176 287.702313 
L 205.145236 292.205278 
L 205.395355 283.418195 
L 205.520415 286.840184 
L 205.645474 281.581198 
L 205.770534 291.276832 
L 206.020653 234.177372 
L 206.270772 281.620988 
L 206.395831 278.95502 
L 206.520891 293.206674 
L 206.77101 273.125703 
L 207.021129 281.74036 
L 207.146189 274.936173 
L 207.271248 284.028317 
L 207.396308 261.864973 
L 207.521367 288.975611 
L 207.646427 270.512789 
L 207.771486 289.220986 
L 207.896546 284.784338 
L 208.021605 285.527095 
L 208.271724 283.942105 
L 208.396784 240.72292 
L 208.521843 286.979451 
L 208.646903 283.000395 
L 208.771962 283.053449 
L 208.897022 267.886612 
L 209.022082 223.818562 
L 209.272201 278.477534 
L 209.39726 288.909293 
L 209.52232 284.30022 
L 209.647379 262.415409 
L 209.897498 280.520116 
L 210.022558 243.010877 
L 210.147617 274.332683 
L 210.272677 256.665673 
L 210.522796 290.587129 
L 210.772915 214.985056 
L 210.897975 287.483465 
L 211.023034 285.447514 
L 211.148094 287.941056 
L 211.273153 244.350493 
L 211.398213 285.785734 
L 211.523272 284.56549 
L 211.648332 285.049609 
L 211.773391 281.727096 
L 212.02351 237.778418 
L 212.14857 287.941056 
L 212.273629 287.848212 
L 212.523748 275.281025 
L 212.648808 108.047914 
L 212.773867 273.875092 
L 212.898927 288.624128 
L 213.023987 272.966541 
L 213.149046 288.358857 
L 213.274106 192.403911 
L 213.524225 281.057289 
L 213.649284 278.397953 
L 213.774344 288.299171 
L 214.024463 277.675091 
L 214.149522 277.854148 
L 214.274582 270.453103 
L 214.524701 284.34001 
L 214.64976 239.482781 
L 214.77482 287.84158 
L 214.89988 274.35921 
L 215.024939 288.206327 
L 215.275058 244.582605 
L 215.400118 287.815053 
L 215.525177 286.767235 
L 215.650237 289.671946 
L 215.775296 285.036345 
L 215.900356 257.216109 
L 216.025415 280.884863 
L 216.150475 242.387492 
L 216.400594 278.563747 
L 216.525653 192.397279 
L 216.775773 282.562698 
L 216.900832 284.90371 
L 217.025892 276.938965 
L 217.150951 258.867417 
L 217.276011 289.088351 
L 217.52613 270.904063 
L 217.651189 272.057989 
L 217.776249 288.33233 
L 217.901308 288.272644 
L 218.026368 276.872648 
L 218.151427 285.779102 
L 218.276487 282.396904 
L 218.401546 275.181549 
L 218.526606 289.028665 
L 218.651665 176.878959 
L 218.776725 265.664972 
L 218.901785 268.960957 
L 219.026844 287.927793 
L 219.151904 53.568 
L 219.276963 276.952229 
L 219.402023 261.593071 
L 219.652142 286.303011 
L 219.777201 269.38539 
L 219.902261 289.605628 
L 220.402499 278.68975 
L 220.652618 285.580149 
L 220.777678 264.782948 
L 220.902737 290.766186 
L 221.027797 276.620641 
L 221.152856 275.652404 
L 221.277916 258.867417 
L 221.528035 290.81924 
L 221.778154 281.634252 
L 221.903213 283.709993 
L 222.028273 286.495332 
L 222.153332 282.085212 
L 222.403451 287.901266 
L 222.528511 269.716978 
L 222.653571 134.409163 
L 222.90369 286.555018 
L 223.028749 279.531984 
L 223.278868 290.043324 
L 223.528987 271.965145 
L 223.654047 261.17527 
L 223.779106 282.589225 
L 223.904166 279.419244 
L 224.029225 270.612265 
L 224.154285 286.846816 
L 224.279344 276.196208 
L 224.404404 286.860079 
L 224.654523 267.455547 
L 224.779583 286.011214 
L 224.904642 287.151877 
L 225.029702 289.393412 
L 225.154761 279.724305 
L 225.279821 282.217847 
L 225.40488 258.46288 
L 225.52994 289.492888 
L 225.780059 285.096031 
L 225.905118 272.13757 
L 226.030178 282.927445 
L 226.155237 271.288705 
L 226.280297 284.260429 
L 226.405356 285.023082 
L 226.530416 247.852063 
L 226.780535 285.679626 
L 226.905595 278.484165 
L 227.030654 288.736868 
L 227.155714 284.718021 
L 227.405833 271.348391 
L 227.530892 289.373517 
L 227.655952 283.729888 
L 227.781011 287.828316 
L 227.906071 286.256589 
L 228.03113 287.12535 
L 228.15619 272.130939 
L 228.281249 278.397953 
L 228.406309 293.206674 
L 228.531369 247.792377 
L 228.656428 244.635659 
L 228.781488 285.878579 
L 228.906547 286.574914 
L 229.031607 273.802142 
L 229.406785 289.744895 
L 229.781964 276.773171 
L 229.907023 289.128141 
L 230.032083 266.168986 
L 230.157142 212.743521 
L 230.407262 285.381197 
L 230.532321 258.038447 
L 230.657381 275.360606 
L 230.78244 271.255546 
L 230.9075 229.389241 
L 231.032559 277.442979 
L 231.157619 279.379453 
L 231.407738 286.753971 
L 231.657857 251.247524 
L 231.782916 288.617496 
L 231.907976 272.900223 
L 232.033035 277.343503 
L 232.283155 287.105454 
L 232.408214 283.51104 
L 232.533274 283.749783 
L 232.783393 285.188876 
L 232.908452 277.442979 
L 233.033512 287.383988 
L 233.158571 278.908598 
L 233.283631 287.523255 
L 233.40869 253.734434 
L 233.658809 279.02797 
L 233.783869 268.476839 
L 233.908928 279.976312 
L 234.033988 261.294642 
L 234.159047 283.690098 
L 234.284107 284.141057 
L 234.409167 207.816123 
L 234.534226 287.649259 
L 234.659286 281.296032 
L 234.784345 265.684867 
L 235.034464 289.38678 
L 235.284583 274.007727 
L 235.409643 287.01261 
L 235.534702 244.416811 
L 235.784821 283.62378 
L 235.909881 283.504408 
L 236.03494 282.357114 
L 236.28506 284.247166 
L 236.410119 290.202487 
L 236.660238 257.123264 
L 236.785298 288.644023 
L 236.910357 277.210867 
L 237.035417 279.120814 
L 237.160476 286.017846 
L 237.285536 231.770043 
L 237.535655 290.985034 
L 237.660714 277.25729 
L 237.785774 288.120114 
L 237.910833 267.256595 
L 238.035893 278.245422 
L 238.160953 278.145946 
L 238.411072 287.430411 
L 238.661191 285.891842 
L 238.78625 268.138619 
L 238.91131 285.115926 
L 239.161429 265.963401 
L 239.286488 213.83113 
L 239.411548 286.568282 
L 239.536607 274.81017 
L 240.036845 287.46357 
L 240.161905 280.705805 
L 240.286965 291.402835 
L 240.412024 285.871947 
L 240.537084 287.609468 
L 240.662143 283.709993 
L 240.787203 272.601794 
L 241.037322 287.317671 
L 241.162381 285.832156 
L 241.287441 213.353643 
L 241.4125 280.208423 
L 241.53756 278.888703 
L 241.662619 273.497081 
L 241.787679 283.955368 
L 241.912738 269.736873 
L 242.162858 285.905106 
L 242.287917 283.093239 
L 242.412977 220.933746 
L 242.538036 289.267408 
L 242.663096 282.900918 
L 242.788155 268.974221 
L 242.913215 272.827274 
L 243.038274 266.871952 
L 243.163334 291.177356 
L 243.288393 265.499178 
L 243.413453 262.965845 
L 243.538512 240.145957 
L 243.663572 284.618544 
L 243.788631 275.320816 
L 243.913691 288.411911 
L 244.038751 282.967236 
L 244.16381 289.811213 
L 244.413929 261.971081 
L 244.538989 282.436695 
L 244.664048 274.796906 
L 244.914167 287.834948 
L 245.164286 272.011567 
L 245.289346 291.581893 
L 245.414405 274.279629 
L 245.539465 285.978055 
L 245.664524 253.760961 
L 245.789584 285.122558 
L 245.914644 220.549104 
L 246.039703 288.325698 
L 246.164763 243.693949 
L 246.289822 283.232506 
L 246.414882 278.026574 
L 246.539941 228.527112 
L 246.79006 287.642627 
L 246.91512 281.879627 
L 247.040179 292.05938 
L 247.290298 270.280677 
L 247.415358 280.971076 
L 247.540417 276.282421 
L 247.665477 286.22343 
L 247.790536 254.225185 
L 247.915596 285.653099 
L 248.040656 286.707549 
L 248.165715 291.064616 
L 248.290775 288.89603 
L 248.415834 282.549435 
L 248.540894 287.01261 
L 248.791013 280.162001 
L 248.916072 290.593761 
L 249.041132 288.849608 
L 249.166191 290.229014 
L 249.41631 268.927798 
L 249.54137 236.611228 
L 249.666429 287.105454 
L 249.791489 267.249963 
L 249.916549 288.524651 
L 250.041608 288.166536 
L 250.166668 288.345594 
L 250.291727 255.425533 
L 250.416787 271.845773 
L 250.541846 266.878584 
L 250.666906 269.597606 
L 250.917025 287.50336 
L 251.042084 269.829718 
L 251.292203 290.447862 
L 251.542322 285.05624 
L 251.792442 290.520811 
L 251.917501 276.594114 
L 252.042561 277.854148 
L 252.16762 283.338614 
L 252.29268 271.825878 
L 252.542799 287.980847 
L 252.667858 211.543173 
L 252.792918 288.312435 
L 252.917977 289.645419 
L 253.043037 284.492541 
L 253.168096 263.960609 
L 253.293156 266.387834 
L 253.418215 208.751201 
L 253.543275 291.701265 
L 253.668335 220.568999 
L 253.918454 287.218194 
L 254.043513 287.941056 
L 254.168573 211.224848 
L 254.668811 284.883815 
L 254.79387 290.686605 
L 254.91893 283.869155 
L 255.043989 283.325351 
L 255.169049 269.789927 
L 255.294108 288.212958 
L 255.419168 284.711389 
L 255.544227 276.395161 
L 255.794347 291.714528 
L 255.919406 272.183993 
L 256.169525 281.123606 
L 256.294585 272.018199 
L 256.419644 289.101614 
L 256.544704 255.166895 
L 256.794823 284.804233 
L 256.919882 291.906849 
L 257.044942 270.81785 
L 257.170001 282.449958 
L 257.295061 246.75119 
L 257.42012 289.23425 
L 257.54518 284.704757 
L 257.67024 273.470554 
L 257.795299 288.418543 
L 258.045418 270.638793 
L 258.170478 272.124307 
L 258.295537 291.588525 
L 258.420597 289.108246 
L 258.545656 234.203899 
L 258.670716 289.492888 
L 258.795775 256.009128 
L 259.045894 282.867759 
L 259.170954 277.0716 
L 259.296013 291.98643 
L 259.546133 269.060433 
L 259.671192 273.702666 
L 259.921311 285.61994 
L 260.046371 292.278228 
L 260.17143 262.853105 
L 260.29649 287.178404 
L 260.546609 283.524304 
L 260.671668 223.029382 
L 260.921787 286.468805 
L 261.046847 284.757811 
L 261.171906 291.316622 
L 261.422025 281.322559 
L 261.547085 284.00179 
L 261.672145 290.467757 
L 261.797204 280.314531 
L 261.922264 207.026944 
L 262.172383 286.104059 
L 262.297442 228.06952 
L 262.547561 289.638787 
L 262.79768 268.941062 
L 262.92274 289.579101 
L 263.047799 279.346294 
L 263.172859 285.606676 
L 263.422978 291.23041 
L 263.548038 275.725353 
L 263.673097 289.512784 
L 263.798157 290.547338 
L 264.048276 284.79097 
L 264.173335 289.041929 
L 264.298395 273.550135 
L 264.423454 277.396557 
L 264.548514 286.203535 
L 264.673573 285.779102 
L 264.923692 275.904411 
L 265.048752 291.502312 
L 265.298871 287.317671 
L 265.423931 290.646815 
L 265.54899 163.801127 
L 265.799109 269.471603 
L 265.924169 283.106503 
L 266.174288 277.277185 
L 266.299347 277.489401 
L 266.424407 275.791671 
L 266.549466 286.548387 
L 266.674526 285.931633 
L 266.799585 291.668106 
L 266.924645 291.674738 
L 267.049704 286.89987 
L 267.174764 274.564795 
L 267.299824 287.795158 
L 267.424883 287.801789 
L 267.549943 288.842976 
L 267.675002 284.578754 
L 267.800062 271.593766 
L 267.925121 272.004935 
L 268.050181 273.662875 
L 268.3003 287.138613 
L 268.425359 265.353279 
L 268.675478 284.996555 
L 268.800538 289.022033 
L 269.175716 281.693938 
L 269.425836 281.388877 
L 269.550895 277.575614 
L 269.675955 266.009824 
L 269.926074 291.203883 
L 270.176193 270.307204 
L 270.301252 290.626919 
L 270.426312 263.469859 
L 270.551371 266.1093 
L 270.676431 279.260081 
L 270.92655 269.968985 
L 271.051609 215.416121 
L 271.426788 291.323254 
L 271.551848 293.093934 
L 271.676907 257.547697 
L 271.927026 290.93198 
L 272.052086 285.24193 
L 272.177145 291.084511 
L 272.427264 279.200396 
L 272.552324 282.788178 
L 272.677383 246.784349 
L 272.802443 255.922915 
L 272.927502 287.324303 
L 273.052562 289.797949 
L 273.177622 286.170376 
L 273.302681 286.044373 
L 273.427741 256.307558 
L 273.5528 293.876482 
L 273.802919 280.526748 
L 273.927979 290.938612 
L 274.053038 284.426223 
L 274.303157 260.717678 
L 274.428217 291.853795 
L 274.553276 283.550831 
L 274.678336 287.761999 
L 274.803395 272.064621 
L 275.178574 292.085907 
L 275.303634 288.650655 
L 275.428693 263.602494 
L 275.553753 292.570025 
L 275.678812 278.91523 
L 275.928931 291.542102 
L 276.053991 248.952935 
L 276.17905 289.393412 
L 276.30411 255.41227 
L 276.429169 289.797949 
L 276.554229 278.974916 
L 276.679288 277.807726 
L 276.804348 289.725 
L 276.929407 283.444722 
L 277.054467 286.031109 
L 277.179527 285.878579 
L 277.304586 287.6161 
L 277.429646 287.722208 
L 277.804824 271.679979 
L 277.929884 287.403884 
L 278.054943 284.870551 
L 278.180003 275.141758 
L 278.305062 291.72116 
L 278.430122 289.890794 
L 278.680241 276.295684 
L 278.8053 289.028665 
L 279.05542 279.624828 
L 279.305539 290.195855 
L 279.430598 274.889751 
L 279.555658 273.570031 
L 279.680717 289.333726 
L 279.805777 288.279276 
L 279.930836 243.037404 
L 280.055896 269.49813 
L 280.306015 287.901266 
L 280.431074 283.869155 
L 280.556134 255.173526 
L 280.681193 291.402835 
L 280.806253 288.988874 
L 280.931313 268.941062 
L 281.306491 290.845767 
L 281.68167 279.551879 
L 281.806729 244.171435 
L 281.931789 272.270206 
L 282.056848 275.088704 
L 282.306967 289.665314 
L 282.432027 263.317329 
L 282.557086 291.283464 
L 282.932265 284.346642 
L 283.182384 293.418891 
L 283.307444 286.329538 
L 283.432503 291.681369 
L 283.557563 269.106856 
L 283.807682 291.23041 
L 283.932741 289.943848 
L 284.057801 284.585385 
L 284.18286 290.805977 
L 284.30792 275.062177 
L 284.432979 289.824476 
L 284.558039 291.283464 
L 284.933218 285.447514 
L 285.183337 235.536883 
L 285.433456 290.394808 
L 285.558515 289.678578 
L 285.808634 288.849608 
L 285.933694 286.375961 
L 286.058753 276.992019 
L 286.183813 280.215055 
L 286.433932 292.424127 
L 286.684051 292.397599 
L 286.809111 280.188528 
L 286.93417 290.733028 
L 287.05923 288.113482 
L 287.184289 290.44123 
L 287.309349 224.926066 
L 287.434408 287.357461 
L 287.559468 262.521517 
L 287.684527 293.253097 
L 287.809587 269.358863 
L 287.934646 291.780846 
L 288.184765 272.111043 
L 288.309825 290.905453 
L 288.434884 268.722214 
L 288.559944 270.93059 
L 288.810063 277.52256 
L 288.935123 271.089752 
L 289.060182 284.094635 
L 289.310301 257.488011 
L 289.435361 286.017846 
L 289.810539 282.131634 
L 289.935599 264.22588 
L 290.185718 279.14071 
L 290.310777 264.709998 
L 290.435837 290.706501 
L 290.811016 259.7826 
L 291.311254 289.771422 
L 291.561373 288.610864 
L 291.686432 293.445418 
L 291.811492 275.314184 
L 292.061611 290.759555 
L 292.18667 284.240534 
L 292.31173 283.676834 
L 292.561849 292.715924 
L 292.686909 290.898822 
L 292.811968 287.23809 
L 292.937028 257.076842 
L 293.187147 291.177356 
L 293.437266 279.936521 
L 293.562325 292.424127 
L 293.687385 262.322565 
L 293.812444 276.096732 
L 294.062563 280.53338 
L 294.187623 291.767582 
L 294.437742 285.175612 
L 294.562802 246.784349 
L 294.812921 280.752228 
L 294.93798 278.099523 
L 295.188099 294.499868 
L 295.313159 267.20354 
L 295.438218 266.805635 
L 295.563278 291.49568 
L 295.688337 289.307199 
L 295.813397 282.993763 
L 296.063516 292.636343 
L 296.188575 230.198316 
L 296.313635 285.12919 
L 296.438694 287.629364 
L 296.563754 284.154321 
L 296.688814 283.835996 
L 296.813873 292.649606 
L 297.189052 284.704757 
L 297.439171 253.674749 
L 297.56423 283.040185 
L 297.68929 264.504414 
L 297.814349 281.342454 
L 297.939409 266.440888 
L 298.064468 288.829712 
L 298.189528 287.901266 
L 298.439647 265.147695 
L 298.564707 287.854843 
L 298.689766 289.088351 
L 298.814826 294.692189 
L 299.064945 286.356065 
L 299.190004 289.539311 
L 299.440123 289.181196 
L 299.565183 287.251353 
L 299.815302 287.682418 
L 299.940361 258.993421 
L 300.065421 292.158856 
L 300.19048 243.183303 
L 300.31554 291.807373 
L 300.4406 286.588177 
L 300.565659 288.40528 
L 300.815778 288.385384 
L 301.065897 288.053796 
L 301.190957 265.286962 
L 301.316016 286.303011 
L 301.441076 288.338962 
L 301.566135 274.127099 
L 301.941314 290.925349 
L 302.066373 285.288352 
L 302.441552 292.722556 
L 302.566612 282.224479 
L 302.691671 230.224843 
L 303.06685 291.601788 
L 303.191909 267.720818 
L 303.316969 290.295331 
L 303.692147 287.257985 
L 303.817207 289.890794 
L 303.942266 274.723957 
L 304.067326 286.93966 
L 304.317445 287.967583 
L 304.442505 287.151877 
L 304.567564 291.276832 
L 304.692624 287.158509 
L 304.817683 291.210514 
L 304.942743 285.321511 
L 305.067802 291.913481 
L 305.192862 284.552227 
L 305.56804 290.905453 
L 305.818159 291.860427 
L 306.068278 291.442626 
L 306.193338 280.858336 
L 306.693576 293.903009 
L 306.818636 285.779102 
L 306.943695 287.669154 
L 307.193814 287.748735 
L 307.568993 291.787478 
L 307.819112 290.202487 
L 307.944171 293.22657 
L 308.194291 291.449258 
L 308.44441 276.31558 
L 308.944648 287.357461 
L 309.069707 263.39691 
L 309.194767 292.729188 
L 309.695005 292.198647 
L 309.945124 291.595156 
L 310.320303 273.324656 
L 310.445362 289.506152 
L 310.570422 287.224826 
L 310.695481 291.98643 
L 310.820541 287.921161 
L 310.9456 289.101614 
L 311.195719 288.93582 
L 311.320779 289.280672 
L 311.695957 293.120461 
L 312.071136 279.246818 
L 312.196196 290.069851 
L 312.446315 290.321858 
L 312.571374 266.387834 
L 312.696434 288.173168 
L 312.821493 287.788526 
L 313.446791 281.826573 
L 313.69691 292.28486 
L 314.197148 292.390968 
L 314.322208 292.138961 
L 314.572327 290.825872 
L 314.697386 292.019589 
L 314.822446 276.388529 
L 315.072565 291.389572 
L 315.197624 282.436695 
L 315.447743 292.974563 
L 315.572803 288.239486 
L 315.947982 290.06322 
L 316.073041 292.404231 
L 316.32316 269.113488 
L 316.44822 292.012957 
L 316.698339 291.203883 
L 316.823398 256.977365 
L 317.573755 288.617496 
L 317.948934 291.363045 
L 318.073994 276.80633 
L 318.199053 289.366885 
L 318.324113 288.750131 
L 318.449172 283.610517 
L 318.574232 292.066011 
L 318.699291 287.563046 
L 318.94941 289.685209 
L 319.07447 288.246117 
L 319.199529 242.566549 
L 319.324589 273.457291 
L 319.574708 288.862871 
L 319.824827 291.800741 
L 319.949887 286.833552 
L 320.200006 286.468805 
L 320.325065 289.99027 
L 320.575184 244.927456 
L 320.700244 292.623079 
L 320.950363 291.469153 
L 321.075422 282.178056 
L 321.200482 283.477881 
L 321.82578 267.097432 
L 321.950839 292.152224 
L 322.075899 292.656238 
L 322.826256 286.568282 
L 323.201434 291.349781 
L 323.326494 258.529197 
L 323.701673 291.071247 
L 323.826732 288.014006 
L 324.076851 295.488 
L 324.577089 292.43739 
L 324.827208 288.159904 
L 325.077327 291.34315 
L 325.202387 291.290095 
L 325.577565 293.710688 
L 325.827685 292.536866 
L 326.327923 276.189576 
L 326.452982 290.076483 
L 326.578042 290.295331 
L 326.703101 263.861133 
L 327.328399 291.303359 
L 328.078756 292.967931 
L 328.578994 292.894982 
L 328.954173 282.290796 
L 329.204292 291.429362 
L 329.454411 290.640183 
L 329.82959 283.033553 
L 330.079709 290.209118 
L 330.454887 288.491492 
L 330.579947 287.23809 
L 330.955125 286.747339 
L 331.080185 273.808774 
L 331.205244 291.701265 
L 331.330304 284.320115 
L 331.455363 288.624128 
L 331.705483 273.291497 
L 331.955602 286.064268 
L 332.45584 286.256589 
L 332.956078 288.239486 
L 333.081137 242.75887 
L 333.206197 292.961299 
L 333.581376 293.133725 
L 333.706435 287.098823 
L 333.831495 291.263568 
L 333.956554 290.408071 
L 334.206673 238.885922 
L 334.456792 286.269853 
L 334.706911 274.452055 
L 334.831971 291.38294 
L 335.457269 275.605981 
L 335.582328 285.938265 
L 335.707388 277.781199 
L 335.957507 292.138961 
L 336.082566 292.88835 
L 336.207626 291.462521 
L 336.332685 292.138961 
L 336.582804 291.999694 
L 336.957983 279.213659 
L 337.083042 291.840532 
L 337.208102 278.437743 
L 337.333162 294.161648 
L 337.458221 266.93827 
L 337.70834 293.074039 
L 337.958459 280.997603 
L 338.208578 293.107198 
L 338.458697 290.262173 
L 339.334114 270.731637 
L 339.459174 291.767582 
L 339.709293 273.802142 
L 339.834352 288.153273 
L 340.084471 274.13373 
L 340.209531 291.197251 
L 340.33459 267.170382 
L 340.45965 290.527443 
L 340.709769 292.318018 
L 340.834828 289.983639 
L 340.959888 290.268804 
L 341.335067 283.564094 
L 341.460126 293.432154 
L 341.585186 264.126403 
L 341.710245 290.985034 
L 341.835305 244.808084 
L 342.085424 291.396204 
L 342.335543 286.760603 
L 343.0859 286.104059 
L 343.21096 281.945945 
L 343.586138 287.383988 
L 343.711198 255.578064 
L 343.836257 292.052748 
L 344.211436 289.254145 
L 344.461555 292.192015 
L 344.836733 291.502312 
L 344.961793 291.701265 
L 345.211912 282.350482 
L 345.462031 286.873343 
L 345.587091 242.884874 
L 345.71215 290.408071 
L 345.83721 292.311387 
L 345.962269 281.773519 
L 346.212388 288.842976 
L 346.587567 289.313831 
L 346.712626 281.130238 
L 346.837686 288.663918 
L 347.087805 289.240881 
L 347.212865 267.753977 
L 347.337924 291.290095 
L 347.462984 292.463917 
L 347.588043 291.223778 
L 347.713103 291.827268 
L 347.838162 287.131981 
L 347.963222 291.588525 
L 348.088281 290.766186 
L 348.213341 292.536866 
L 348.3384 275.287657 
L 348.46346 282.920813 
L 348.713579 288.610864 
L 348.838638 276.925702 
L 348.963698 279.790622 
L 349.088758 288.882766 
L 349.463936 290.096379 
L 349.588996 289.141405 
L 350.464412 285.865315 
L 350.839591 291.807373 
L 350.964651 290.958507 
L 351.08971 271.441236 
L 351.21477 288.438438 
L 351.339829 278.039837 
L 352.090186 275.911042 
L 352.215246 291.800741 
L 352.340305 283.988527 
L 352.465365 247.374576 
L 352.715484 291.077879 
L 352.840543 293.471945 
L 353.090663 287.629364 
L 353.590901 291.920113 
L 353.71596 287.032505 
L 353.84102 291.840532 
L 353.966079 288.876135 
L 354.091139 270.373522 
L 354.216198 273.337919 
L 354.716436 290.414703 
L 354.966556 287.941056 
L 355.341734 273.251706 
L 355.466794 288.259381 
L 355.841972 269.1997 
L 356.092091 291.256937 
L 357.967984 288.060428 
L 358.218103 274.034254 
L 358.718342 288.498124 
L 360.844354 291.34315 
L 362.094949 289.479625 
L 362.345068 292.351177 
L 365.346497 291.774214 
L 368.472985 285.321511 
L 370.223818 293.398995 
L 372.099711 293.279624 
L 378.977986 291.190619 
L 379.103045 293.219938 
L 380.228581 289.479625 
L 382.229534 293.478576 
L 385.85626 293.843323 
L 387.106855 291.422731 
L 387.356974 264.663576 
L 389.983225 283.743152 
L 390.233344 290.361649 
L 391.10876 289.167932 
L 391.358879 273.948041 
L 392.734534 292.072643 
L 393.484891 286.568282 
L 394.235249 288.226222 
L 394.360308 289.101614 
L 394.860546 285.626572 
L 394.985606 289.711736 
L 396.111142 291.475785 
L 396.236201 288.995506 
L 396.361261 291.800741 
L 396.61138 293.140357 
L 397.611856 292.921509 
L 398.487273 291.396204 
L 398.487273 291.396204 
" style="fill:none;stroke:#0000ff;stroke-linecap:square;stroke-width:1.5;"/>
   </g>
   <g id="patch_3">
    <path d="M 57.6 307.584 
L 57.6 41.472 
" style="fill:none;stroke:#000000;stroke-linecap:square;stroke-linejoin:miter;stroke-width:0.8;"/>
   </g>
   <g id="patch_4">
    <path d="M 414.72 307.584 
L 414.72 41.472 
" style="fill:none;stroke:#000000;stroke-linecap:square;stroke-linejoin:miter;stroke-width:0.8;"/>
   </g>
   <g id="patch_5">
    <path d="M 57.6 307.584 
L 414.72 307.584 
" style="fill:none;stroke:#000000;stroke-linecap:square;stroke-linejoin:miter;stroke-width:0.8;"/>
   </g>
   <g id="patch_6">
    <path d="M 57.6 41.472 
L 414.72 41.472 
" style="fill:none;stroke:#000000;stroke-linecap:square;stroke-linejoin:miter;stroke-width:0.8;"/>
   </g>
   <g id="text_16">
    <!-- temperature-&gt;ping_day -->
    <g transform="translate(164.131875 35.472)scale(0.12 -0.12)">
     <defs>
      <path d="M 4.890625 31.390625 
L 31.203125 31.390625 
L 31.203125 23.390625 
L 4.890625 23.390625 
z
" id="DejaVuSans-45"/>
      <path d="M 10.59375 49.21875 
L 10.59375 58.109375 
L 73.1875 35.40625 
L 73.1875 27.296875 
L 10.59375 4.59375 
L 10.59375 13.484375 
L 60.890625 31.296875 
z
" id="DejaVuSans-62"/>
      <path d="M 9.421875 54.6875 
L 18.40625 54.6875 
L 18.40625 0 
L 9.421875 0 
z
M 9.421875 75.984375 
L 18.40625 75.984375 
L 18.40625 64.59375 
L 9.421875 64.59375 
z
" id="DejaVuSans-105"/>
      <path d="M 45.40625 27.984375 
Q 45.40625 37.75 41.375 43.109375 
Q 37.359375 48.484375 30.078125 48.484375 
Q 22.859375 48.484375 18.828125 43.109375 
Q 14.796875 37.75 14.796875 27.984375 
Q 14.796875 18.265625 18.828125 12.890625 
Q 22.859375 7.515625 30.078125 7.515625 
Q 37.359375 7.515625 41.375 12.890625 
Q 45.40625 18.265625 45.40625 27.984375 
z
M 54.390625 6.78125 
Q 54.390625 -7.171875 48.1875 -13.984375 
Q 42 -20.796875 29.203125 -20.796875 
Q 24.46875 -20.796875 20.265625 -20.09375 
Q 16.0625 -19.390625 12.109375 -17.921875 
L 12.109375 -9.1875 
Q 16.0625 -11.328125 19.921875 -12.34375 
Q 23.78125 -13.375 27.78125 -13.375 
Q 36.625 -13.375 41.015625 -8.765625 
Q 45.40625 -4.15625 45.40625 5.171875 
L 45.40625 9.625 
Q 42.625 4.78125 38.28125 2.390625 
Q 33.9375 0 27.875 0 
Q 17.828125 0 11.671875 7.65625 
Q 5.515625 15.328125 5.515625 27.984375 
Q 5.515625 40.671875 11.671875 48.328125 
Q 17.828125 56 27.875 56 
Q 33.9375 56 38.28125 53.609375 
Q 42.625 51.21875 45.40625 46.390625 
L 45.40625 54.6875 
L 54.390625 54.6875 
z
" id="DejaVuSans-103"/>
      <path d="M 50.984375 -16.609375 
L 50.984375 -23.578125 
L -0.984375 -23.578125 
L -0.984375 -16.609375 
z
" id="DejaVuSans-95"/>
      <path d="M 45.40625 46.390625 
L 45.40625 75.984375 
L 54.390625 75.984375 
L 54.390625 0 
L 45.40625 0 
L 45.40625 8.203125 
Q 42.578125 3.328125 38.25 0.953125 
Q 33.9375 -1.421875 27.875 -1.421875 
Q 17.96875 -1.421875 11.734375 6.484375 
Q 5.515625 14.40625 5.515625 27.296875 
Q 5.515625 40.1875 11.734375 48.09375 
Q 17.96875 56 27.875 56 
Q 33.9375 56 38.25 53.625 
Q 42.578125 51.265625 45.40625 46.390625 
z
M 14.796875 27.296875 
Q 14.796875 17.390625 18.875 11.75 
Q 22.953125 6.109375 30.078125 6.109375 
Q 37.203125 6.109375 41.296875 11.75 
Q 45.40625 17.390625 45.40625 27.296875 
Q 45.40625 37.203125 41.296875 42.84375 
Q 37.203125 48.484375 30.078125 48.484375 
Q 22.953125 48.484375 18.875 42.84375 
Q 14.796875 37.203125 14.796875 27.296875 
z
" id="DejaVuSans-100"/>
      <path d="M 32.171875 -5.078125 
Q 28.375 -14.84375 24.75 -17.8125 
Q 21.140625 -20.796875 15.09375 -20.796875 
L 7.90625 -20.796875 
L 7.90625 -13.28125 
L 13.1875 -13.28125 
Q 16.890625 -13.28125 18.9375 -11.515625 
Q 21 -9.765625 23.484375 -3.21875 
L 25.09375 0.875 
L 2.984375 54.6875 
L 12.5 54.6875 
L 29.59375 11.921875 
L 46.6875 54.6875 
L 56.203125 54.6875 
z
" id="DejaVuSans-121"/>
     </defs>
     <use xlink:href="#DejaVuSans-116"/>
     <use x="39.208984" xlink:href="#DejaVuSans-101"/>
     <use x="100.732422" xlink:href="#DejaVuSans-109"/>
     <use x="198.144531" xlink:href="#DejaVuSans-112"/>
     <use x="261.621094" xlink:href="#DejaVuSans-101"/>
     <use x="323.144531" xlink:href="#DejaVuSans-114"/>
     <use x="364.257812" xlink:href="#DejaVuSans-97"/>
     <use x="425.537109" xlink:href="#DejaVuSans-116"/>
     <use x="464.746094" xlink:href="#DejaVuSans-117"/>
     <use x="528.125" xlink:href="#DejaVuSans-114"/>
     <use x="566.988281" xlink:href="#DejaVuSans-101"/>
     <use x="628.511719" xlink:href="#DejaVuSans-45"/>
     <use x="664.595703" xlink:href="#DejaVuSans-62"/>
     <use x="748.384766" xlink:href="#DejaVuSans-112"/>
     <use x="811.861328" xlink:href="#DejaVuSans-105"/>
     <use x="839.644531" xlink:href="#DejaVuSans-110"/>
     <use x="903.023438" xlink:href="#DejaVuSans-103"/>
     <use x="966.5" xlink:href="#DejaVuSans-95"/>
     <use x="1016.5" xlink:href="#DejaVuSans-100"/>
     <use x="1079.976562" xlink:href="#DejaVuSans-97"/>
     <use x="1141.255859" xlink:href="#DejaVuSans-121"/>
    </g>
   </g>
  </g>
  <g id="legend_1">
   <g id="patch_7">
    <path d="M 415.451563 22.678125 
L 453.8 22.678125 
Q 455.8 22.678125 455.8 20.678125 
L 455.8 7 
Q 455.8 5 453.8 5 
L 415.451563 5 
Q 413.451563 5 413.451563 7 
L 413.451563 20.678125 
Q 413.451563 22.678125 415.451563 22.678125 
z
" style="fill:#ffffff;opacity:0.8;stroke:#cccccc;stroke-linejoin:miter;"/>
   </g>
   <g id="line2d_16">
    <path d="M 417.451563 13.098438 
L 437.451563 13.098438 
" style="fill:none;stroke:#0000ff;stroke-linecap:square;stroke-width:1.5;"/>
   </g>
   <g id="line2d_17"/>
   <g id="text_17">
    <!-- p -->
    <g transform="translate(445.451563 16.598438)scale(0.1 -0.1)">
     <use xlink:href="#DejaVuSans-112"/>
    </g>
   </g>
  </g>
 </g>
 <defs>
  <clipPath id="pc3e19fa13d">
   <rect height="266.112" width="357.12" x="57.6" y="41.472"/>
  </clipPath>
 </defs>
</svg>
