<?xml version="1.0" encoding="utf-8" standalone="no"?>
<!DOCTYPE svg PUBLIC "-//W3C//DTD SVG 1.1//EN"
  "http://www.w3.org/Graphics/SVG/1.1/DTD/svg11.dtd">
<!-- Created with matplotlib (https://matplotlib.org/) -->
<svg height="2090.594375pt" version="1.1" viewBox="0 0 2068.621875 2090.594375" width="2068.621875pt" xmlns="http://www.w3.org/2000/svg" xmlns:xlink="http://www.w3.org/1999/xlink">
 <metadata>
  <rdf:RDF xmlns:cc="http://creativecommons.org/ns#" xmlns:dc="http://purl.org/dc/elements/1.1/" xmlns:rdf="http://www.w3.org/1999/02/22-rdf-syntax-ns#">
   <cc:Work>
    <dc:type rdf:resource="http://purl.org/dc/dcmitype/StillImage"/>
    <dc:date>2022-07-24T11:40:22.994537</dc:date>
    <dc:format>image/svg+xml</dc:format>
    <dc:creator>
     <cc:Agent>
      <dc:title>Matplotlib v3.3.2, https://matplotlib.org/</dc:title>
     </cc:Agent>
    </dc:creator>
   </cc:Work>
  </rdf:RDF>
 </metadata>
 <defs>
  <style type="text/css">*{stroke-linecap:butt;stroke-linejoin:round;}</style>
 </defs>
 <g id="figure_1">
  <g id="patch_1">
   <path d="M 0 2090.594375 
L 2068.621875 2090.594375 
L 2068.621875 0 
L 0 0 
z
" style="fill:#ffffff;"/>
  </g>
  <g id="axes_1">
   <g id="patch_2">
    <path d="M 50.421875 2052.76 
L 1836.021875 2052.76 
L 1836.021875 278.68 
L 50.421875 278.68 
z
" style="fill:#ffffff;"/>
   </g>
   <g id="matplotlib.axis_1">
    <g id="xtick_1">
     <g id="line2d_1">
      <defs>
       <path d="M 0 0 
L 0 3.5 
" id="me9cfd5b7f6" style="stroke:#000000;stroke-width:0.8;"/>
      </defs>
      <g>
       <use style="stroke:#000000;stroke-width:0.8;" x="201.433348" xlink:href="#me9cfd5b7f6" y="2052.76"/>
      </g>
     </g>
     <g id="text_1">
      <text style="font-family:DejaVu Sans;font-size:10px;font-stretch:normal;font-style:normal;font-weight:normal;text-anchor:middle;" transform="rotate(-0, 201.433348, 2067.358437)" x="201.433348" y="2067.358437">995</text>
     </g>
    </g>
    <g id="xtick_2">
     <g id="line2d_2">
      <g>
       <use style="stroke:#000000;stroke-width:0.8;" x="482.850901" xlink:href="#me9cfd5b7f6" y="2052.76"/>
      </g>
     </g>
     <g id="text_2">
      <text style="font-family:DejaVu Sans;font-size:10px;font-stretch:normal;font-style:normal;font-weight:normal;text-anchor:middle;" transform="rotate(-0, 482.850901, 2067.358437)" x="482.850901" y="2067.358437">1000</text>
     </g>
    </g>
    <g id="xtick_3">
     <g id="line2d_3">
      <g>
       <use style="stroke:#000000;stroke-width:0.8;" x="764.268453" xlink:href="#me9cfd5b7f6" y="2052.76"/>
      </g>
     </g>
     <g id="text_3">
      <text style="font-family:DejaVu Sans;font-size:10px;font-stretch:normal;font-style:normal;font-weight:normal;text-anchor:middle;" transform="rotate(-0, 764.268453, 2067.358437)" x="764.268453" y="2067.358437">1005</text>
     </g>
    </g>
    <g id="xtick_4">
     <g id="line2d_4">
      <g>
       <use style="stroke:#000000;stroke-width:0.8;" x="1045.686006" xlink:href="#me9cfd5b7f6" y="2052.76"/>
      </g>
     </g>
     <g id="text_4">
      <text style="font-family:DejaVu Sans;font-size:10px;font-stretch:normal;font-style:normal;font-weight:normal;text-anchor:middle;" transform="rotate(-0, 1045.686006, 2067.358437)" x="1045.686006" y="2067.358437">1010</text>
     </g>
    </g>
    <g id="xtick_5">
     <g id="line2d_5">
      <g>
       <use style="stroke:#000000;stroke-width:0.8;" x="1327.103559" xlink:href="#me9cfd5b7f6" y="2052.76"/>
      </g>
     </g>
     <g id="text_5">
      <text style="font-family:DejaVu Sans;font-size:10px;font-stretch:normal;font-style:normal;font-weight:normal;text-anchor:middle;" transform="rotate(-0, 1327.103559, 2067.358437)" x="1327.103559" y="2067.358437">1015</text>
     </g>
    </g>
    <g id="xtick_6">
     <g id="line2d_6">
      <g>
       <use style="stroke:#000000;stroke-width:0.8;" x="1608.521111" xlink:href="#me9cfd5b7f6" y="2052.76"/>
      </g>
     </g>
     <g id="text_6">
      <text style="font-family:DejaVu Sans;font-size:10px;font-stretch:normal;font-style:normal;font-weight:normal;text-anchor:middle;" transform="rotate(-0, 1608.521111, 2067.358437)" x="1608.521111" y="2067.358437">1020</text>
     </g>
    </g>
    <g id="text_7">
     <text style="font-family:DejaVu Sans;font-size:10px;font-stretch:normal;font-style:normal;font-weight:normal;text-anchor:middle;" transform="rotate(-0, 943.221875, 2081.036562)" x="943.221875" y="2081.036562">air_pressure from WeatherBitIO</text>
    </g>
   </g>
   <g id="matplotlib.axis_2">
    <g id="ytick_1">
     <g id="line2d_7">
      <defs>
       <path d="M 0 0 
L -3.5 0 
" id="md39f70b96e" style="stroke:#000000;stroke-width:0.8;"/>
      </defs>
      <g>
       <use style="stroke:#000000;stroke-width:0.8;" x="50.421875" xlink:href="#md39f70b96e" y="1971.57538"/>
      </g>
     </g>
     <g id="text_8">
      <text style="font-family:DejaVu Sans;font-size:10px;font-stretch:normal;font-style:normal;font-weight:normal;text-anchor:end;" transform="rotate(-0, 43.421875, 1975.374599)" x="43.421875" y="1975.374599">5.0</text>
     </g>
    </g>
    <g id="ytick_2">
     <g id="line2d_8">
      <g>
       <use style="stroke:#000000;stroke-width:0.8;" x="50.421875" xlink:href="#md39f70b96e" y="1744.650572"/>
      </g>
     </g>
     <g id="text_9">
      <text style="font-family:DejaVu Sans;font-size:10px;font-stretch:normal;font-style:normal;font-weight:normal;text-anchor:end;" transform="rotate(-0, 43.421875, 1748.449791)" x="43.421875" y="1748.449791">7.5</text>
     </g>
    </g>
    <g id="ytick_3">
     <g id="line2d_9">
      <g>
       <use style="stroke:#000000;stroke-width:0.8;" x="50.421875" xlink:href="#md39f70b96e" y="1517.725763"/>
      </g>
     </g>
     <g id="text_10">
      <text style="font-family:DejaVu Sans;font-size:10px;font-stretch:normal;font-style:normal;font-weight:normal;text-anchor:end;" transform="rotate(-0, 43.421875, 1521.524982)" x="43.421875" y="1521.524982">10.0</text>
     </g>
    </g>
    <g id="ytick_4">
     <g id="line2d_10">
      <g>
       <use style="stroke:#000000;stroke-width:0.8;" x="50.421875" xlink:href="#md39f70b96e" y="1290.800955"/>
      </g>
     </g>
     <g id="text_11">
      <text style="font-family:DejaVu Sans;font-size:10px;font-stretch:normal;font-style:normal;font-weight:normal;text-anchor:end;" transform="rotate(-0, 43.421875, 1294.600173)" x="43.421875" y="1294.600173">12.5</text>
     </g>
    </g>
    <g id="ytick_5">
     <g id="line2d_11">
      <g>
       <use style="stroke:#000000;stroke-width:0.8;" x="50.421875" xlink:href="#md39f70b96e" y="1063.876146"/>
      </g>
     </g>
     <g id="text_12">
      <text style="font-family:DejaVu Sans;font-size:10px;font-stretch:normal;font-style:normal;font-weight:normal;text-anchor:end;" transform="rotate(-0, 43.421875, 1067.675365)" x="43.421875" y="1067.675365">15.0</text>
     </g>
    </g>
    <g id="ytick_6">
     <g id="line2d_12">
      <g>
       <use style="stroke:#000000;stroke-width:0.8;" x="50.421875" xlink:href="#md39f70b96e" y="836.951337"/>
      </g>
     </g>
     <g id="text_13">
      <text style="font-family:DejaVu Sans;font-size:10px;font-stretch:normal;font-style:normal;font-weight:normal;text-anchor:end;" transform="rotate(-0, 43.421875, 840.750556)" x="43.421875" y="840.750556">17.5</text>
     </g>
    </g>
    <g id="ytick_7">
     <g id="line2d_13">
      <g>
       <use style="stroke:#000000;stroke-width:0.8;" x="50.421875" xlink:href="#md39f70b96e" y="610.026529"/>
      </g>
     </g>
     <g id="text_14">
      <text style="font-family:DejaVu Sans;font-size:10px;font-stretch:normal;font-style:normal;font-weight:normal;text-anchor:end;" transform="rotate(-0, 43.421875, 613.825747)" x="43.421875" y="613.825747">20.0</text>
     </g>
    </g>
    <g id="ytick_8">
     <g id="line2d_14">
      <g>
       <use style="stroke:#000000;stroke-width:0.8;" x="50.421875" xlink:href="#md39f70b96e" y="383.10172"/>
      </g>
     </g>
     <g id="text_15">
      <text style="font-family:DejaVu Sans;font-size:10px;font-stretch:normal;font-style:normal;font-weight:normal;text-anchor:end;" transform="rotate(-0, 43.421875, 386.900939)" x="43.421875" y="386.900939">22.5</text>
     </g>
    </g>
    <g id="text_16">
     <text style="font-family:DejaVu Sans;font-size:10px;font-stretch:normal;font-style:normal;font-weight:normal;text-anchor:middle;" transform="rotate(-90, 14.798438, 1165.72)" x="14.798438" y="1165.72">ping_day[ms]</text>
    </g>
   </g>
   <g id="line2d_15">
    <path clip-path="url(#pae78f26246)" d="M 131.585511 1845.042107 
L 144.530719 1940.078217 
L 177.625423 1888.61167 
L 185.336264 1848.400594 
L 205.710895 1889.15629 
L 252.201074 1889.51937 
L 320.191555 1877.17466 
L 380.133494 1972.12 
L 381.315448 1672.488483 
L 391.052495 1792.395552 
L 429.831834 1876.085421 
L 432.420875 1963.859937 
L 443.283593 1859.565295 
L 460.281213 1721.958091 
L 486.790746 1688.463989 
L 496.921778 1872.726934 
L 534.068895 1920.471914 
L 558.270805 1863.014552 
L 563.336321 1763.712256 
L 564.461991 1564.563044 
L 590.915241 1603.231031 
L 594.292251 1705.710275 
L 628.062358 1473.248501 
L 641.5704 1767.161513 
L 660.143959 1703.259487 
L 670.274991 1886.070113 
L 688.848549 1917.567276 
L 703.482262 1892.151697 
L 704.045097 1906.039496 
L 704.607932 1877.17466 
L 705.733602 1344.718289 
L 706.296437 1328.198163 
L 711.924788 1756.541432 
L 712.487624 1874.633102 
L 713.050459 1903.497938 
L 728.809842 1893.876326 
L 731.624017 1876.81158 
L 735.563863 1848.945214 
L 736.689533 1883.074705 
L 744.006389 1836.872814 
L 749.634741 1870.911535 
L 754.700256 1876.085421 
L 756.951597 1877.991589 
L 763.705618 1875.994651 
L 771.022475 1671.036164 
L 785.656187 1153.6476 
L 800.852735 1894.057866 
L 802.54124 1872.000774 
L 826.180315 1836.237425 
L 840.814028 1750.096767 
L 844.753873 1904.950257 
L 855.44774 1629.372769 
L 858.261916 1734.212031 
L 865.578772 1110.531887 
L 867.267278 1917.204196 
L 872.895629 1452.371418 
L 874.584134 1281.451652 
L 876.272639 1702.624097 
L 894.283363 1704.167186 
L 898.786043 1841.77439 
L 912.294086 1840.775921 
L 919.048107 1804.467951 
L 929.179139 1737.661288 
L 938.747336 1644.803656 
L 968.577596 1672.760792 
L 983.774144 1584.532427 
L 988.276825 913.470383 
L 989.96533 1825.889653 
L 998.407857 1867.734588 
L 1003.473373 1924.28425 
L 1004.599043 1863.559172 
L 1005.724713 1865.2838 
L 1007.976054 1818.44652 
L 1013.604405 1883.437785 
L 1014.16724 1733.122792 
L 1015.855745 1035.37439 
L 1018.107086 1951.787537 
L 1019.232756 1866.009959 
L 1020.921261 1852.848321 
L 1025.423942 1903.770248 
L 1025.986777 1242.874435 
L 1028.238118 1672.851562 
L 1029.363788 1864.103791 
L 1033.303634 1876.357731 
L 1038.36915 1955.599874 
L 1046.248841 1539.782855 
L 1047.374511 1461.085331 
L 1049.063017 1117.521171 
L 1050.751522 1527.075065 
L 1053.565697 496.927204 
L 1055.254203 1884.163944 
L 1056.379873 1699.901 
L 1058.631213 1658.691454 
L 1059.756884 1889.33783 
L 1061.445389 1729.673534 
L 1062.008224 1665.408429 
L 1062.571059 1684.923962 
L 1063.133894 1292.525583 
L 1067.636575 1568.73846 
L 1075.516267 1608.767996 
L 1076.079102 1901.41023 
L 1077.767607 1485.68398 
L 1078.893277 1839.142062 
L 1087.335804 398.078757 
L 1091.275649 1842.772859 
L 1092.40132 1888.79321 
L 1094.65266 1639.72054 
L 1098.592506 1900.048681 
L 1099.718176 1946.522882 
L 1101.406681 1648.706763 
L 1103.095187 1651.97448 
L 1104.220857 1804.014102 
L 1108.160703 1778.870833 
L 1109.849208 1655.968357 
L 1113.226219 1600.871013 
L 1116.040394 1033.649761 
L 1117.728899 1547.316758 
L 1118.291735 1935.721261 
L 1118.85457 1660.869932 
L 1120.543075 1787.857055 
L 1121.668745 1472.340801 
L 1122.23158 1026.660477 
L 1123.35725 1929.367366 
L 1123.920086 1719.416533 
L 1126.734261 1907.854894 
L 1128.985602 1837.598973 
L 1130.111272 1684.651652 
L 1130.674107 1706.345664 
L 1131.236942 1859.565295 
L 1131.799777 1840.140531 
L 1132.362612 1906.765655 
L 1132.925447 1696.270203 
L 1133.488282 1938.535128 
L 1134.051117 1466.713066 
L 1135.739623 1956.507573 
L 1136.302458 1882.893165 
L 1136.865293 1897.688663 
L 1137.428128 786.12018 
L 1140.805139 359.32 
L 1141.367974 1867.553048 
L 1143.056479 1834.512796 
L 1144.182149 1419.149626 
L 1144.744984 1270.831571 
L 1145.30782 1352.706042 
L 1146.43349 890.596362 
L 1146.996325 1891.970158 
L 1149.247665 1926.190419 
L 1150.936171 1939.442828 
L 1151.499006 1142.02905 
L 1152.624676 1265.657686 
L 1153.750346 1868.279208 
L 1154.313181 1630.734318 
L 1155.438851 1798.930986 
L 1156.564522 1301.057956 
L 1157.127357 1830.881999 
L 1158.253027 1548.950617 
L 1158.815862 1355.97376 
L 1161.067203 1683.290104 
L 1162.755708 1828.885061 
L 1163.318543 1413.068041 
L 1164.444213 1594.880198 
L 1166.132718 1633.003566 
L 1167.258389 1858.748366 
L 1168.384059 873.713156 
L 1168.946894 1672.397713 
L 1170.072564 1617.300369 
L 1170.635399 1666.588438 
L 1174.01241 1873.362323 
L 1174.575245 1833.786637 
L 1178.515091 1168.533868 
L 1180.766431 1917.204196 
L 1183.017772 1145.205997 
L 1183.580607 1894.239406 
L 1184.143442 1901.682539 
L 1184.706277 1325.384295 
L 1185.831947 1739.295146 
L 1190.334628 1075.222386 
L 1191.460298 1882.620855 
L 1192.023133 1883.528555 
L 1192.585968 1889.61014 
L 1193.711639 1889.882449 
L 1194.274474 1948.24751 
L 1195.400144 1919.564214 
L 1198.214319 1730.218154 
L 1201.028495 1603.95719 
L 1201.59133 940.42905 
L 1203.842671 1888.248591 
L 1204.405506 1654.788348 
L 1204.968341 1916.114957 
L 1206.094011 1416.517299 
L 1209.471022 1754.453724 
L 1210.596692 1907.491814 
L 1217.913548 1880.533147 
L 1220.727724 1901.954849 
L 1222.979064 1290.074795 
L 1226.91891 1830.700459 
L 1229.733085 1521.90118 
L 1233.110096 1866.373039 
L 1237.049942 1749.279838 
L 1237.612777 1099.185646 
L 1239.864117 1939.896677 
L 1240.426952 1937.990509 
L 1241.552623 1376.306222 
L 1242.115458 1911.667231 
L 1245.492468 1925.827339 
L 1249.432314 1888.248591 
L 1255.060665 1649.160612 
L 1255.6235 1753.455254 
L 1256.74917 691.53792 
L 1268.005873 1617.118829 
L 1273.071388 1748.825988 
L 1281.513915 1905.041027 
L 1283.20242 1896.690194 
L 1286.016596 1296.42869 
L 1287.142266 1953.149086 
L 1289.956442 1748.735218 
L 1298.398968 1874.088483 
L 1300.650309 1944.979793 
L 1307.967165 1894.057866 
L 1310.218505 1901.773309 
L 1314.158351 1869.096137 
L 1315.846856 1812.001855 
L 1316.409692 1888.97475 
L 1320.349537 1467.348456 
L 1331.043404 1898.414822 
L 1332.73191 1918.928825 
L 1334.98325 1559.570698 
L 1340.611601 1668.857686 
L 1343.425777 1649.796002 
L 1346.802787 1866.009959 
L 1350.742633 1868.006898 
L 1351.868303 859.916128 
L 1353.556809 1912.121081 
L 1354.682479 1849.489833 
L 1356.933819 1887.613201 
L 1358.059489 1909.579523 
L 1359.18516 1849.308294 
L 1362.56217 1881.531616 
L 1365.376346 1905.041027 
L 1366.502016 1918.384205 
L 1369.879027 1744.832112 
L 1372.693202 1895.056335 
L 1373.256037 1802.017163 
L 1377.758718 1928.005817 
L 1378.884388 1902.408699 
L 1379.447223 1405.897217 
L 1381.135729 1896.327114 
L 1384.512739 1898.414822 
L 1385.63841 1859.474525 
L 1387.326915 1915.207258 
L 1389.578255 1811.366466 
L 1390.14109 1881.531616 
L 1391.266761 1475.608519 
L 1391.829596 1774.332337 
L 1394.080936 1880.805457 
L 1399.709287 1674.666961 
L 1400.272122 1684.197803 
L 1405.337638 1843.680558 
L 1405.900473 1887.431661 
L 1406.463308 1145.024457 
L 1407.026144 1774.332337 
L 1407.588979 1631.369707 
L 1408.151814 1857.023737 
L 1408.714649 1827.614282 
L 1410.403154 1891.062458 
L 1412.091659 1799.747915 
L 1417.157175 1826.888122 
L 1418.282846 944.513697 
L 1419.408516 1614.486502 
L 1419.971351 1671.490014 
L 1421.097021 1740.747465 
L 1421.659856 1865.82842 
L 1422.222691 1907.945664 
L 1423.911197 1818.718829 
L 1426.162537 1842.500549 
L 1426.725372 1828.521981 
L 1431.228053 1549.222927 
L 1432.353723 1751.821396 
L 1434.605064 1791.669392 
L 1436.856404 1893.604016 
L 1438.544909 1712.971869 
L 1440.233415 1716.330356 
L 1440.79625 1629.554309 
L 1441.359085 1770.33846 
L 1445.861766 1790.943233 
L 1449.238776 1907.128735 
L 1449.801612 1863.196092 
L 1452.052952 1854.391409 
L 1453.178622 1759.990689 
L 1453.741457 1761.715317 
L 1454.304292 1762.350707 
L 1455.429963 1790.761693 
L 1455.992798 1252.677587 
L 1457.118468 1813.272634 
L 1459.369808 1359.695326 
L 1459.932643 974.830851 
L 1460.495479 1808.280288 
L 1463.309654 1761.079928 
L 1468.37517 1171.892355 
L 1468.938005 1897.053273 
L 1470.063675 1803.469482 
L 1470.62651 1517.271914 
L 1471.189346 1060.699199 
L 1472.315016 1808.098748 
L 1474.566356 1809.278757 
L 1475.692026 1624.289653 
L 1477.380532 1878.536209 
L 1477.943367 1872.636164 
L 1479.069037 1810.549536 
L 1479.631872 1957.506042 
L 1480.194707 1843.408249 
L 1480.757542 1465.351517 
L 1481.320377 1673.940801 
L 1481.883213 1804.014102 
L 1483.571718 1579.086231 
L 1484.697388 1828.703521 
L 1486.385893 1943.164394 
L 1488.074399 1618.117299 
L 1488.637234 1784.770878 
L 1489.200069 1844.406718 
L 1489.762904 1482.325493 
L 1490.325739 1787.403206 
L 1492.014244 1456.183755 
L 1492.57708 1913.02878 
L 1494.265585 1629.100459 
L 1496.516925 1776.329275 
L 1497.07976 1865.10226 
L 1498.205431 958.492265 
L 1499.893936 1812.455705 
L 1501.582441 1712.881099 
L 1503.833782 1929.095056 
L 1505.522287 1951.605997 
L 1506.085122 1752.275245 
L 1506.647957 1446.199063 
L 1507.210792 1821.441927 
L 1508.336463 1563.655344 
L 1509.462133 1882.983935 
L 1510.024968 1834.966646 
L 1510.587803 1847.311355 
L 1511.713473 1407.077226 
L 1512.276308 1119.699649 
L 1512.839143 1669.402305 
L 1513.964814 1217.731166 
L 1514.527649 1806.10181 
L 1515.090484 1764.801495 
L 1516.216154 1865.37457 
L 1516.778989 1536.878217 
L 1517.341824 1895.237875 
L 1519.03033 1787.857055 
L 1519.593165 1532.248951 
L 1520.156 1893.967096 
L 1520.718835 1561.204557 
L 1521.28167 1887.340891 
L 1522.970175 1873.816173 
L 1523.53301 1384.475516 
L 1524.095845 1842.22824 
L 1524.658681 1912.48416 
L 1525.221516 1809.914147 
L 1526.347186 1663.32072 
L 1526.910021 1863.831481 
L 1528.035691 1893.785556 
L 1529.724197 1884.708564 
L 1530.287032 1641.263629 
L 1531.412702 1274.553138 
L 1532.538372 1861.653003 
L 1533.664042 1892.696317 
L 1534.226877 1846.403656 
L 1534.789712 1275.097758 
L 1535.352548 1178.518559 
L 1535.915383 1910.850302 
L 1536.478218 1913.30109 
L 1537.041053 1847.674435 
L 1537.603888 1917.113426 
L 1538.166723 1850.579072 
L 1539.292393 1886.796272 
L 1540.418064 1893.694786 
L 1541.543734 1639.99285 
L 1542.106569 1905.857956 
L 1543.232239 1711.70109 
L 1543.795074 1829.88353 
L 1544.357909 1894.874795 
L 1546.046415 1715.876506 
L 1546.60925 1847.129815 
L 1547.73492 1702.896407 
L 1548.297755 1820.534228 
L 1548.86059 1649.160612 
L 1550.549095 1643.169797 
L 1552.237601 1751.186006 
L 1552.800436 1556.030671 
L 1553.363271 1832.062008 
L 1553.926106 1833.423557 
L 1554.488941 1748.735218 
L 1555.051776 1859.565295 
L 1555.614611 1882.439316 
L 1556.740282 1894.057866 
L 1557.303117 1528.527384 
L 1557.865952 1905.404106 
L 1558.428787 1861.925313 
L 1558.991622 1765.527654 
L 1559.554457 1886.433192 
L 1560.117292 1843.226709 
L 1560.680127 923.727384 
L 1561.805798 1873.906943 
L 1562.368633 1863.468402 
L 1565.182808 1665.408429 
L 1565.745643 1902.408699 
L 1566.871313 1914.390329 
L 1567.434149 1695.634813 
L 1568.559819 1920.108834 
L 1569.122654 1747.2829 
L 1569.685489 896.496407 
L 1570.248324 1876.448501 
L 1570.811159 1530.070473 
L 1574.18817 1826.615813 
L 1575.31384 1784.135489 
L 1575.876675 1908.127204 
L 1577.002345 1816.177271 
L 1578.128016 1874.905412 
L 1578.690851 1758.53837 
L 1579.816521 1854.936029 
L 1580.379356 1884.980873 
L 1580.942191 1807.191049 
L 1582.067861 1608.858766 
L 1584.882037 1556.48452 
L 1585.444872 1897.870203 
L 1586.007707 1859.656065 
L 1586.570542 1908.036434 
L 1588.259047 1889.51937 
L 1588.821883 1813.817253 
L 1590.510388 1925.282719 
L 1591.073223 1893.604016 
L 1592.198893 1600.780243 
L 1593.324563 1502.022566 
L 1594.450234 1466.440756 
L 1595.013069 1894.420946 
L 1595.575904 1541.235173 
L 1597.827244 1774.060027 
L 1598.390079 1855.752958 
L 1598.952914 1816.086502 
L 1600.64142 1560.932247 
L 1601.76709 1640.35593 
L 1602.329925 1586.892445 
L 1604.581266 1755.179883 
L 1605.144101 1965.766105 
L 1605.706936 805.272634 
L 1606.269771 1756.450662 
L 1609.083946 1668.585376 
L 1609.646781 1908.399514 
L 1610.209617 1691.459397 
L 1611.335287 1756.359892 
L 1611.898122 1693.002485 
L 1616.400803 1450.9191 
L 1616.963638 1488.951697 
L 1617.526473 1921.561153 
L 1618.089308 1545.77367 
L 1619.214978 1876.630041 
L 1619.777813 1912.48416 
L 1620.340648 1884.073174 
L 1622.029154 1910.305682 
L 1622.591989 1805.012571 
L 1624.843329 1882.167006 
L 1627.09467 1795.300189 
L 1627.657505 1635.182044 
L 1629.34601 1830.518919 
L 1630.47168 1656.603746 
L 1631.034515 1877.71928 
L 1632.160186 1913.21032 
L 1633.848691 1668.585376 
L 1634.411526 1917.658046 
L 1636.662867 1891.062458 
L 1637.225702 1864.376101 
L 1638.351372 1874.451562 
L 1640.039877 1850.215993 
L 1641.165547 1880.714687 
L 1645.105393 1524.442738 
L 1646.231063 1884.163944 
L 1646.793898 1898.777902 
L 1648.482404 1861.743773 
L 1649.045239 1522.808879 
L 1652.985085 1716.965745 
L 1654.67359 1733.848951 
L 1656.362095 1967.309194 
L 1660.301941 1892.151697 
L 1663.116116 1913.39186 
L 1666.493127 1924.82887 
L 1667.618797 1444.111355 
L 1668.181632 1492.945574 
L 1669.870138 1844.588258 
L 1677.749829 1928.459667 
L 1678.312664 1644.894426 
L 1680.564005 1890.245529 
L 1682.25251 1887.976281 
L 1690.132202 1880.533147 
L 1692.383542 1873.180783 
L 1692.946377 1870.094606 
L 1695.760553 1969.578442 
L 1696.323388 1904.224097 
L 1697.449058 1908.308744 
L 1699.137563 1874.451562 
L 1699.700398 1641.445169 
L 1700.826069 1902.136389 
L 1708.70576 1913.754939 
L 1709.268595 1899.776371 
L 1710.394265 1778.870833 
L 1717.711122 1937.990509 
L 1718.273957 1891.153228 
L 1723.339473 1951.152148 
L 1725.590813 1887.522431 
L 1727.279318 1903.134858 
L 1729.530659 1701.988708 
L 1732.344834 1920.471914 
L 1734.03334 1893.876326 
L 1736.847515 1903.316398 
L 1739.098856 1904.768717 
L 1744.164372 423.403566 
L 1744.727207 1887.613201 
L 1745.290042 1880.442377 
L 1749.792723 1828.703521 
L 1750.355558 1949.427519 
L 1752.606898 1947.067501 
L 1754.858239 1868.097668 
L 1754.858239 1868.097668 
" style="fill:none;stroke:#0000ff;stroke-linecap:square;stroke-width:1.5;"/>
   </g>
   <g id="patch_3">
    <path d="M 50.421875 2052.76 
L 50.421875 278.68 
" style="fill:none;stroke:#000000;stroke-linecap:square;stroke-linejoin:miter;stroke-width:0.8;"/>
   </g>
   <g id="patch_4">
    <path d="M 1836.021875 2052.76 
L 1836.021875 278.68 
" style="fill:none;stroke:#000000;stroke-linecap:square;stroke-linejoin:miter;stroke-width:0.8;"/>
   </g>
   <g id="patch_5">
    <path d="M 50.421875 2052.76 
L 1836.021875 2052.76 
" style="fill:none;stroke:#000000;stroke-linecap:square;stroke-linejoin:miter;stroke-width:0.8;"/>
   </g>
   <g id="patch_6">
    <path d="M 50.421875 278.68 
L 1836.021875 278.68 
" style="fill:none;stroke:#000000;stroke-linecap:square;stroke-linejoin:miter;stroke-width:0.8;"/>
   </g>
   <g id="text_17">
    <text style="font-family:DejaVu Sans;font-size:12px;font-stretch:normal;font-style:normal;font-weight:normal;text-anchor:middle;" transform="rotate(-0, 943.221875, 272.68)" x="943.221875" y="272.68">air_pressure-&gt;ping_day</text>
   </g>
  </g>
  <g id="legend_1">
   <g id="patch_7">
    <path d="M 1961.660937 22.95625 
L 2061.621875 22.95625 
Q 2063.621875 22.95625 2063.621875 20.95625 
L 2063.621875 7 
Q 2063.621875 5 2061.621875 5 
L 1961.660937 5 
Q 1959.660937 5 1959.660937 7 
L 1959.660937 20.95625 
Q 1959.660937 22.95625 1961.660937 22.95625 
z
" style="fill:#ffffff;opacity:0.8;stroke:#cccccc;stroke-linejoin:miter;"/>
   </g>
   <g id="line2d_16">
    <path d="M 1963.660937 13.098438 
L 1983.660937 13.098438 
" style="fill:none;stroke:#0000ff;stroke-linecap:square;stroke-width:1.5;"/>
   </g>
   <g id="line2d_17"/>
   <g id="text_18">
    <text style="font-family:DejaVu Sans;font-size:10px;font-stretch:normal;font-style:normal;font-weight:normal;text-anchor:start;" transform="rotate(-0, 1991.660937, 16.598438)" x="1991.660937" y="16.598438">ping_day[ms]</text>
   </g>
  </g>
 </g>
 <defs>
  <clipPath id="pae78f26246">
   <rect height="1774.08" width="1785.6" x="50.421875" y="278.68"/>
  </clipPath>
 </defs>
</svg>
