<?xml version="1.0" encoding="utf-8" standalone="no"?>
<!DOCTYPE svg PUBLIC "-//W3C//DTD SVG 1.1//EN"
  "http://www.w3.org/Graphics/SVG/1.1/DTD/svg11.dtd">
<!-- Created with matplotlib (https://matplotlib.org/) -->
<svg height="2090.31625pt" version="1.1" viewBox="0 0 2068.621875 2090.31625" width="2068.621875pt" xmlns="http://www.w3.org/2000/svg" xmlns:xlink="http://www.w3.org/1999/xlink">
 <metadata>
  <rdf:RDF xmlns:cc="http://creativecommons.org/ns#" xmlns:dc="http://purl.org/dc/elements/1.1/" xmlns:rdf="http://www.w3.org/1999/02/22-rdf-syntax-ns#">
   <cc:Work>
    <dc:type rdf:resource="http://purl.org/dc/dcmitype/StillImage"/>
    <dc:date>2022-07-23T21:03:22.207681</dc:date>
    <dc:format>image/svg+xml</dc:format>
    <dc:creator>
     <cc:Agent>
      <dc:title>Matplotlib v3.3.2, https://matplotlib.org/</dc:title>
     </cc:Agent>
    </dc:creator>
   </cc:Work>
  </rdf:RDF>
 </metadata>
 <defs>
  <style type="text/css">*{stroke-linecap:butt;stroke-linejoin:round;}</style>
 </defs>
 <g id="figure_1">
  <g id="patch_1">
   <path d="M 0 2090.31625 
L 2068.621875 2090.31625 
L 2068.621875 0 
L 0 0 
z
" style="fill:#ffffff;"/>
  </g>
  <g id="axes_1">
   <g id="patch_2">
    <path d="M 50.421875 2052.76 
L 1836.021875 2052.76 
L 1836.021875 278.68 
L 50.421875 278.68 
z
" style="fill:#ffffff;"/>
   </g>
   <g id="matplotlib.axis_1">
    <g id="xtick_1">
     <g id="line2d_1">
      <defs>
       <path d="M 0 0 
L 0 3.5 
" id="m55da3a3aba" style="stroke:#000000;stroke-width:0.8;"/>
      </defs>
      <g>
       <use style="stroke:#000000;stroke-width:0.8;" x="208.884213" xlink:href="#m55da3a3aba" y="2052.76"/>
      </g>
     </g>
     <g id="text_1">
      <text style="font-family:DejaVu Sans;font-size:10px;font-stretch:normal;font-style:normal;font-weight:normal;text-anchor:middle;" transform="rotate(-0, 208.884213, 2067.358438)" x="208.884213" y="2067.358438">5</text>
     </g>
    </g>
    <g id="xtick_2">
     <g id="line2d_2">
      <g>
       <use style="stroke:#000000;stroke-width:0.8;" x="560.241946" xlink:href="#m55da3a3aba" y="2052.76"/>
      </g>
     </g>
     <g id="text_2">
      <text style="font-family:DejaVu Sans;font-size:10px;font-stretch:normal;font-style:normal;font-weight:normal;text-anchor:middle;" transform="rotate(-0, 560.241946, 2067.358438)" x="560.241946" y="2067.358438">10</text>
     </g>
    </g>
    <g id="xtick_3">
     <g id="line2d_3">
      <g>
       <use style="stroke:#000000;stroke-width:0.8;" x="911.599679" xlink:href="#m55da3a3aba" y="2052.76"/>
      </g>
     </g>
     <g id="text_3">
      <text style="font-family:DejaVu Sans;font-size:10px;font-stretch:normal;font-style:normal;font-weight:normal;text-anchor:middle;" transform="rotate(-0, 911.599679, 2067.358438)" x="911.599679" y="2067.358438">15</text>
     </g>
    </g>
    <g id="xtick_4">
     <g id="line2d_4">
      <g>
       <use style="stroke:#000000;stroke-width:0.8;" x="1262.957412" xlink:href="#m55da3a3aba" y="2052.76"/>
      </g>
     </g>
     <g id="text_4">
      <text style="font-family:DejaVu Sans;font-size:10px;font-stretch:normal;font-style:normal;font-weight:normal;text-anchor:middle;" transform="rotate(-0, 1262.957412, 2067.358438)" x="1262.957412" y="2067.358438">20</text>
     </g>
    </g>
    <g id="xtick_5">
     <g id="line2d_5">
      <g>
       <use style="stroke:#000000;stroke-width:0.8;" x="1614.315145" xlink:href="#m55da3a3aba" y="2052.76"/>
      </g>
     </g>
     <g id="text_5">
      <text style="font-family:DejaVu Sans;font-size:10px;font-stretch:normal;font-style:normal;font-weight:normal;text-anchor:middle;" transform="rotate(-0, 1614.315145, 2067.358438)" x="1614.315145" y="2067.358438">25</text>
     </g>
    </g>
    <g id="text_6">
     <text style="font-family:DejaVu Sans;font-size:10px;font-stretch:normal;font-style:normal;font-weight:normal;text-anchor:middle;" transform="rotate(-0, 943.221875, 2081.036562)" x="943.221875" y="2081.036562">temperature from WeatherBitIO</text>
    </g>
   </g>
   <g id="matplotlib.axis_2">
    <g id="ytick_1">
     <g id="line2d_6">
      <defs>
       <path d="M 0 0 
L -3.5 0 
" id="mc0f753d43e" style="stroke:#000000;stroke-width:0.8;"/>
      </defs>
      <g>
       <use style="stroke:#000000;stroke-width:0.8;" x="50.421875" xlink:href="#mc0f753d43e" y="1988.075606"/>
      </g>
     </g>
     <g id="text_7">
      <text style="font-family:DejaVu Sans;font-size:10px;font-stretch:normal;font-style:normal;font-weight:normal;text-anchor:end;" transform="rotate(-0, 43.421875, 1991.874825)" x="43.421875" y="1991.874825">5.0</text>
     </g>
    </g>
    <g id="ytick_2">
     <g id="line2d_7">
      <g>
       <use style="stroke:#000000;stroke-width:0.8;" x="50.421875" xlink:href="#mc0f753d43e" y="1758.828392"/>
      </g>
     </g>
     <g id="text_8">
      <text style="font-family:DejaVu Sans;font-size:10px;font-stretch:normal;font-style:normal;font-weight:normal;text-anchor:end;" transform="rotate(-0, 43.421875, 1762.627611)" x="43.421875" y="1762.627611">7.5</text>
     </g>
    </g>
    <g id="ytick_3">
     <g id="line2d_8">
      <g>
       <use style="stroke:#000000;stroke-width:0.8;" x="50.421875" xlink:href="#mc0f753d43e" y="1529.581178"/>
      </g>
     </g>
     <g id="text_9">
      <text style="font-family:DejaVu Sans;font-size:10px;font-stretch:normal;font-style:normal;font-weight:normal;text-anchor:end;" transform="rotate(-0, 43.421875, 1533.380397)" x="43.421875" y="1533.380397">10.0</text>
     </g>
    </g>
    <g id="ytick_4">
     <g id="line2d_9">
      <g>
       <use style="stroke:#000000;stroke-width:0.8;" x="50.421875" xlink:href="#mc0f753d43e" y="1300.333964"/>
      </g>
     </g>
     <g id="text_10">
      <text style="font-family:DejaVu Sans;font-size:10px;font-stretch:normal;font-style:normal;font-weight:normal;text-anchor:end;" transform="rotate(-0, 43.421875, 1304.133183)" x="43.421875" y="1304.133183">12.5</text>
     </g>
    </g>
    <g id="ytick_5">
     <g id="line2d_10">
      <g>
       <use style="stroke:#000000;stroke-width:0.8;" x="50.421875" xlink:href="#mc0f753d43e" y="1071.08675"/>
      </g>
     </g>
     <g id="text_11">
      <text style="font-family:DejaVu Sans;font-size:10px;font-stretch:normal;font-style:normal;font-weight:normal;text-anchor:end;" transform="rotate(-0, 43.421875, 1074.885969)" x="43.421875" y="1074.885969">15.0</text>
     </g>
    </g>
    <g id="ytick_6">
     <g id="line2d_11">
      <g>
       <use style="stroke:#000000;stroke-width:0.8;" x="50.421875" xlink:href="#mc0f753d43e" y="841.839536"/>
      </g>
     </g>
     <g id="text_12">
      <text style="font-family:DejaVu Sans;font-size:10px;font-stretch:normal;font-style:normal;font-weight:normal;text-anchor:end;" transform="rotate(-0, 43.421875, 845.638755)" x="43.421875" y="845.638755">17.5</text>
     </g>
    </g>
    <g id="ytick_7">
     <g id="line2d_12">
      <g>
       <use style="stroke:#000000;stroke-width:0.8;" x="50.421875" xlink:href="#mc0f753d43e" y="612.592322"/>
      </g>
     </g>
     <g id="text_13">
      <text style="font-family:DejaVu Sans;font-size:10px;font-stretch:normal;font-style:normal;font-weight:normal;text-anchor:end;" transform="rotate(-0, 43.421875, 616.391541)" x="43.421875" y="616.391541">20.0</text>
     </g>
    </g>
    <g id="ytick_8">
     <g id="line2d_13">
      <g>
       <use style="stroke:#000000;stroke-width:0.8;" x="50.421875" xlink:href="#mc0f753d43e" y="383.345108"/>
      </g>
     </g>
     <g id="text_14">
      <text style="font-family:DejaVu Sans;font-size:10px;font-stretch:normal;font-style:normal;font-weight:normal;text-anchor:end;" transform="rotate(-0, 43.421875, 387.144327)" x="43.421875" y="387.144327">22.5</text>
     </g>
    </g>
    <g id="text_15">
     <text style="font-family:DejaVu Sans;font-size:10px;font-stretch:normal;font-style:normal;font-weight:normal;text-anchor:middle;" transform="rotate(-90, 14.798438, 1165.72)" x="14.798438" y="1165.72">ping_day[ms]</text>
    </g>
   </g>
   <g id="line2d_14">
    <path clip-path="url(#p34c44d3512)" d="M 131.585511 1919.026345 
L 166.721285 1957.906673 
L 208.884213 1950.387364 
L 251.047141 1919.393141 
L 286.182914 1948.27829 
L 328.345842 1542.052227 
L 335.372997 1817.790776 
L 363.481615 1793.398872 
L 384.563079 1945.435624 
L 398.617389 1856.579404 
L 405.644543 1899.127687 
L 412.671698 1662.361164 
L 440.780317 1715.729916 
L 454.834626 1917.742561 
L 468.888935 1911.598736 
L 475.91609 1923.794687 
L 482.943245 1733.336102 
L 489.970399 1818.799463 
L 496.997554 1890.049497 
L 504.024709 1766.072604 
L 518.079018 1855.29562 
L 532.133327 1845.758936 
L 539.160482 1945.160528 
L 553.214791 1852.361255 
L 560.241946 1893.900851 
L 574.296255 1687.39496 
L 581.32341 1913.432713 
L 588.350564 1947.636398 
L 602.404874 1706.651726 
L 616.459183 1820.908538 
L 623.486338 1429.996188 
L 630.513492 1150.039491 
L 637.540647 424.059413 
L 644.567802 1879.779222 
L 651.594956 1561.400691 
L 658.622111 1882.713587 
L 665.649266 1682.718317 
L 672.67642 1852.728051 
L 679.703575 1630.174856 
L 686.73073 1575.705718 
L 693.757884 1886.381542 
L 700.785039 1774.325504 
L 707.812194 1941.125777 
L 714.839348 1040.551021 
L 721.866503 1176.815565 
L 728.893658 1802.477062 
L 735.920812 946.376266 
L 742.947967 1153.065554 
L 749.975122 1889.315906 
L 757.002276 398.475424 
L 764.029431 1362.872604 
L 771.056586 1310.695938 
L 778.08374 878.977585 
L 785.110895 1562.225981 
L 792.13805 498.335511 
L 799.165204 1972.12 
L 806.192359 1417.800237 
L 813.219514 1848.876698 
L 820.246668 1778.085158 
L 827.273823 1814.489616 
L 834.300978 929.503671 
L 841.328132 1067.877289 
L 848.355287 1354.803102 
L 855.382442 790.48816 
L 862.409596 964.624344 
L 869.436751 919.141697 
L 876.463906 1394.967214 
L 883.49106 1637.23567 
L 890.518215 981.130143 
L 897.54537 1754.88534 
L 904.572524 1529.122684 
L 911.599679 1427.336921 
L 918.626834 1484.648724 
L 925.653988 1857.679791 
L 932.681143 1696.839945 
L 939.708298 1933.514769 
L 946.735452 1544.253 
L 953.762607 1497.211471 
L 960.789762 1416.608151 
L 967.816916 1652.82448 
L 974.844071 1802.018567 
L 981.871226 359.32 
L 988.89838 950.502715 
L 995.925535 896.033577 
L 1002.95269 1897.110312 
L 1017.006999 865.039354 
L 1024.034154 1843.558162 
L 1031.061308 1082.549111 
L 1038.088463 1882.988683 
L 1045.115618 1884.822661 
L 1052.142772 1896.743516 
L 1059.169927 1868.225163 
L 1066.197082 1534.716316 
L 1073.224236 1743.698076 
L 1080.251391 1816.782088 
L 1094.3057 1924.253182 
L 1101.332855 1559.475015 
L 1108.36001 1478.688297 
L 1115.387164 1828.702943 
L 1122.414319 1859.605467 
L 1129.441474 1878.587137 
L 1136.468628 1631.000146 
L 1143.495783 1651.1739 
L 1150.522938 1790.831303 
L 1164.577247 1762.954842 
L 1171.604402 1797.341924 
L 1185.658711 809.836625 
L 1192.685866 1451.637125 
L 1199.71302 1767.723184 
L 1206.740175 1306.019295 
L 1213.76733 1274.933373 
L 1220.794484 1455.213382 
L 1227.821639 1643.746291 
L 1234.848794 1668.046495 
L 1241.875948 1931.130598 
L 1248.903103 1335.271239 
L 1262.957412 901.994005 
L 1269.984567 1629.991458 
L 1277.011722 1927.554342 
L 1284.038876 1862.539832 
L 1298.093186 1467.409334 
L 1305.12034 972.968942 
L 1326.201804 1685.927778 
L 1340.256113 844.040309 
L 1347.283268 1898.0273 
L 1361.337577 1877.303352 
L 1375.391887 1642.095711 
L 1382.419041 1180.208424 
L 1389.446196 1702.066782 
L 1396.473351 1568.278108 
L 1403.500505 1759.01179 
L 1410.52766 1904.813018 
L 1417.554815 1186.902443 
L 1424.581969 1726.733782 
L 1431.609124 1283.919864 
L 1452.690588 1903.254137 
L 1459.717743 1478.046404 
L 1466.744897 1106.757617 
L 1494.853516 1033.490207 
L 1515.93498 1909.948156 
L 1529.989289 1921.685613 
L 1537.016444 1928.746427 
L 1565.125063 1923.61129 
L 1586.206527 1476.670921 
L 1621.3423 1226.516361 
L 1656.478073 1826.868965 
L 1698.641001 1575.980814 
L 1705.668156 1571.854364 
L 1719.722465 1457.322456 
L 1733.776775 1676.666191 
L 1740.803929 1607.525231 
L 1754.858239 1912.424025 
L 1754.858239 1912.424025 
" style="fill:none;stroke:#0000ff;stroke-linecap:square;stroke-width:1.5;"/>
   </g>
   <g id="patch_3">
    <path d="M 50.421875 2052.76 
L 50.421875 278.68 
" style="fill:none;stroke:#000000;stroke-linecap:square;stroke-linejoin:miter;stroke-width:0.8;"/>
   </g>
   <g id="patch_4">
    <path d="M 1836.021875 2052.76 
L 1836.021875 278.68 
" style="fill:none;stroke:#000000;stroke-linecap:square;stroke-linejoin:miter;stroke-width:0.8;"/>
   </g>
   <g id="patch_5">
    <path d="M 50.421875 2052.76 
L 1836.021875 2052.76 
" style="fill:none;stroke:#000000;stroke-linecap:square;stroke-linejoin:miter;stroke-width:0.8;"/>
   </g>
   <g id="patch_6">
    <path d="M 50.421875 278.68 
L 1836.021875 278.68 
" style="fill:none;stroke:#000000;stroke-linecap:square;stroke-linejoin:miter;stroke-width:0.8;"/>
   </g>
   <g id="text_16">
    <text style="font-family:DejaVu Sans;font-size:12px;font-stretch:normal;font-style:normal;font-weight:normal;text-anchor:middle;" transform="rotate(-0, 943.221875, 272.68)" x="943.221875" y="272.68">temperature-&gt;ping_day</text>
   </g>
  </g>
  <g id="legend_1">
   <g id="patch_7">
    <path d="M 1961.660937 22.95625 
L 2061.621875 22.95625 
Q 2063.621875 22.95625 2063.621875 20.95625 
L 2063.621875 7 
Q 2063.621875 5 2061.621875 5 
L 1961.660937 5 
Q 1959.660937 5 1959.660937 7 
L 1959.660937 20.95625 
Q 1959.660937 22.95625 1961.660937 22.95625 
z
" style="fill:#ffffff;opacity:0.8;stroke:#cccccc;stroke-linejoin:miter;"/>
   </g>
   <g id="line2d_15">
    <path d="M 1963.660937 13.098438 
L 1983.660937 13.098438 
" style="fill:none;stroke:#0000ff;stroke-linecap:square;stroke-width:1.5;"/>
   </g>
   <g id="line2d_16"/>
   <g id="text_17">
    <text style="font-family:DejaVu Sans;font-size:10px;font-stretch:normal;font-style:normal;font-weight:normal;text-anchor:start;" transform="rotate(-0, 1991.660937, 16.598438)" x="1991.660937" y="16.598438">ping_day[ms]</text>
   </g>
  </g>
 </g>
 <defs>
  <clipPath id="p34c44d3512">
   <rect height="1774.08" width="1785.6" x="50.421875" y="278.68"/>
  </clipPath>
 </defs>
</svg>
