<?xml version="1.0" encoding="utf-8" standalone="no"?>
<!DOCTYPE svg PUBLIC "-//W3C//DTD SVG 1.1//EN"
  "http://www.w3.org/Graphics/SVG/1.1/DTD/svg11.dtd">
<!-- Created with matplotlib (https://matplotlib.org/) -->
<svg height="2090.31625pt" version="1.1" viewBox="0 0 2065.165625 2090.31625" width="2065.165625pt" xmlns="http://www.w3.org/2000/svg" xmlns:xlink="http://www.w3.org/1999/xlink">
 <metadata>
  <rdf:RDF xmlns:cc="http://creativecommons.org/ns#" xmlns:dc="http://purl.org/dc/elements/1.1/" xmlns:rdf="http://www.w3.org/1999/02/22-rdf-syntax-ns#">
   <cc:Work>
    <dc:type rdf:resource="http://purl.org/dc/dcmitype/StillImage"/>
    <dc:date>2022-07-24T12:00:18.829840</dc:date>
    <dc:format>image/svg+xml</dc:format>
    <dc:creator>
     <cc:Agent>
      <dc:title>Matplotlib v3.3.2, https://matplotlib.org/</dc:title>
     </cc:Agent>
    </dc:creator>
   </cc:Work>
  </rdf:RDF>
 </metadata>
 <defs>
  <style type="text/css">*{stroke-linecap:butt;stroke-linejoin:round;}</style>
 </defs>
 <g id="figure_1">
  <g id="patch_1">
   <path d="M 0 2090.31625 
L 2065.165625 2090.31625 
L 2065.165625 0 
L 0 0 
z
" style="fill:#ffffff;"/>
  </g>
  <g id="axes_1">
   <g id="patch_2">
    <path d="M 46.965625 2052.76 
L 1832.565625 2052.76 
L 1832.565625 278.68 
L 46.965625 278.68 
z
" style="fill:#ffffff;"/>
   </g>
   <g id="matplotlib.axis_1">
    <g id="xtick_1">
     <g id="line2d_1">
      <defs>
       <path d="M 0 0 
L 0 3.5 
" id="m2fb853c786" style="stroke:#000000;stroke-width:0.8;"/>
      </defs>
      <g>
       <use style="stroke:#000000;stroke-width:0.8;" x="128.129261" xlink:href="#m2fb853c786" y="2052.76"/>
      </g>
     </g>
     <g id="text_1">
      <text style="font-family:DejaVu Sans;font-size:10px;font-stretch:normal;font-style:normal;font-weight:normal;text-anchor:middle;" transform="rotate(-0, 128.129261, 2067.358438)" x="128.129261" y="2067.358438">30</text>
     </g>
    </g>
    <g id="xtick_2">
     <g id="line2d_2">
      <g>
       <use style="stroke:#000000;stroke-width:0.8;" x="360.025365" xlink:href="#m2fb853c786" y="2052.76"/>
      </g>
     </g>
     <g id="text_2">
      <text style="font-family:DejaVu Sans;font-size:10px;font-stretch:normal;font-style:normal;font-weight:normal;text-anchor:middle;" transform="rotate(-0, 360.025365, 2067.358438)" x="360.025365" y="2067.358438">40</text>
     </g>
    </g>
    <g id="xtick_3">
     <g id="line2d_3">
      <g>
       <use style="stroke:#000000;stroke-width:0.8;" x="591.921469" xlink:href="#m2fb853c786" y="2052.76"/>
      </g>
     </g>
     <g id="text_3">
      <text style="font-family:DejaVu Sans;font-size:10px;font-stretch:normal;font-style:normal;font-weight:normal;text-anchor:middle;" transform="rotate(-0, 591.921469, 2067.358438)" x="591.921469" y="2067.358438">50</text>
     </g>
    </g>
    <g id="xtick_4">
     <g id="line2d_4">
      <g>
       <use style="stroke:#000000;stroke-width:0.8;" x="823.817573" xlink:href="#m2fb853c786" y="2052.76"/>
      </g>
     </g>
     <g id="text_4">
      <text style="font-family:DejaVu Sans;font-size:10px;font-stretch:normal;font-style:normal;font-weight:normal;text-anchor:middle;" transform="rotate(-0, 823.817573, 2067.358438)" x="823.817573" y="2067.358438">60</text>
     </g>
    </g>
    <g id="xtick_5">
     <g id="line2d_5">
      <g>
       <use style="stroke:#000000;stroke-width:0.8;" x="1055.713677" xlink:href="#m2fb853c786" y="2052.76"/>
      </g>
     </g>
     <g id="text_5">
      <text style="font-family:DejaVu Sans;font-size:10px;font-stretch:normal;font-style:normal;font-weight:normal;text-anchor:middle;" transform="rotate(-0, 1055.713677, 2067.358438)" x="1055.713677" y="2067.358438">70</text>
     </g>
    </g>
    <g id="xtick_6">
     <g id="line2d_6">
      <g>
       <use style="stroke:#000000;stroke-width:0.8;" x="1287.609781" xlink:href="#m2fb853c786" y="2052.76"/>
      </g>
     </g>
     <g id="text_6">
      <text style="font-family:DejaVu Sans;font-size:10px;font-stretch:normal;font-style:normal;font-weight:normal;text-anchor:middle;" transform="rotate(-0, 1287.609781, 2067.358438)" x="1287.609781" y="2067.358438">80</text>
     </g>
    </g>
    <g id="xtick_7">
     <g id="line2d_7">
      <g>
       <use style="stroke:#000000;stroke-width:0.8;" x="1519.505885" xlink:href="#m2fb853c786" y="2052.76"/>
      </g>
     </g>
     <g id="text_7">
      <text style="font-family:DejaVu Sans;font-size:10px;font-stretch:normal;font-style:normal;font-weight:normal;text-anchor:middle;" transform="rotate(-0, 1519.505885, 2067.358438)" x="1519.505885" y="2067.358438">90</text>
     </g>
    </g>
    <g id="xtick_8">
     <g id="line2d_8">
      <g>
       <use style="stroke:#000000;stroke-width:0.8;" x="1751.401989" xlink:href="#m2fb853c786" y="2052.76"/>
      </g>
     </g>
     <g id="text_8">
      <text style="font-family:DejaVu Sans;font-size:10px;font-stretch:normal;font-style:normal;font-weight:normal;text-anchor:middle;" transform="rotate(-0, 1751.401989, 2067.358438)" x="1751.401989" y="2067.358438">100</text>
     </g>
    </g>
    <g id="text_9">
     <text style="font-family:DejaVu Sans;font-size:10px;font-stretch:normal;font-style:normal;font-weight:normal;text-anchor:middle;" transform="rotate(-0, 939.765625, 2081.036562)" x="939.765625" y="2081.036562">humidity from BuienRadar</text>
    </g>
   </g>
   <g id="matplotlib.axis_2">
    <g id="ytick_1">
     <g id="line2d_9">
      <defs>
       <path d="M 0 0 
L -3.5 0 
" id="m55419d3312" style="stroke:#000000;stroke-width:0.8;"/>
      </defs>
      <g>
       <use style="stroke:#000000;stroke-width:0.8;" x="46.965625" xlink:href="#m55419d3312" y="2004.24749"/>
      </g>
     </g>
     <g id="text_10">
      <text style="font-family:DejaVu Sans;font-size:10px;font-stretch:normal;font-style:normal;font-weight:normal;text-anchor:end;" transform="rotate(-0, 39.965625, 2008.046709)" x="39.965625" y="2008.046709">200</text>
     </g>
    </g>
    <g id="ytick_2">
     <g id="line2d_10">
      <g>
       <use style="stroke:#000000;stroke-width:0.8;" x="46.965625" xlink:href="#m55419d3312" y="1682.97259"/>
      </g>
     </g>
     <g id="text_11">
      <text style="font-family:DejaVu Sans;font-size:10px;font-stretch:normal;font-style:normal;font-weight:normal;text-anchor:end;" transform="rotate(-0, 39.965625, 1686.771808)" x="39.965625" y="1686.771808">250</text>
     </g>
    </g>
    <g id="ytick_3">
     <g id="line2d_11">
      <g>
       <use style="stroke:#000000;stroke-width:0.8;" x="46.965625" xlink:href="#m55419d3312" y="1361.697689"/>
      </g>
     </g>
     <g id="text_12">
      <text style="font-family:DejaVu Sans;font-size:10px;font-stretch:normal;font-style:normal;font-weight:normal;text-anchor:end;" transform="rotate(-0, 39.965625, 1365.496908)" x="39.965625" y="1365.496908">300</text>
     </g>
    </g>
    <g id="ytick_4">
     <g id="line2d_12">
      <g>
       <use style="stroke:#000000;stroke-width:0.8;" x="46.965625" xlink:href="#m55419d3312" y="1040.422789"/>
      </g>
     </g>
     <g id="text_13">
      <text style="font-family:DejaVu Sans;font-size:10px;font-stretch:normal;font-style:normal;font-weight:normal;text-anchor:end;" transform="rotate(-0, 39.965625, 1044.222008)" x="39.965625" y="1044.222008">350</text>
     </g>
    </g>
    <g id="ytick_5">
     <g id="line2d_13">
      <g>
       <use style="stroke:#000000;stroke-width:0.8;" x="46.965625" xlink:href="#m55419d3312" y="719.147888"/>
      </g>
     </g>
     <g id="text_14">
      <text style="font-family:DejaVu Sans;font-size:10px;font-stretch:normal;font-style:normal;font-weight:normal;text-anchor:end;" transform="rotate(-0, 39.965625, 722.947107)" x="39.965625" y="722.947107">400</text>
     </g>
    </g>
    <g id="ytick_6">
     <g id="line2d_14">
      <g>
       <use style="stroke:#000000;stroke-width:0.8;" x="46.965625" xlink:href="#m55419d3312" y="397.872988"/>
      </g>
     </g>
     <g id="text_15">
      <text style="font-family:DejaVu Sans;font-size:10px;font-stretch:normal;font-style:normal;font-weight:normal;text-anchor:end;" transform="rotate(-0, 39.965625, 401.672207)" x="39.965625" y="401.672207">450</text>
     </g>
    </g>
    <g id="text_16">
     <text style="font-family:DejaVu Sans;font-size:10px;font-stretch:normal;font-style:normal;font-weight:normal;text-anchor:middle;" transform="rotate(-90, 14.798437, 1165.72)" x="14.798437" y="1165.72">Retransmission[dimensionless]</text>
    </g>
   </g>
   <g id="line2d_15">
    <path clip-path="url(#p58ffcfcd4a)" d="M 128.129261 1168.932749 
L 151.318872 1152.869004 
L 174.508482 982.593307 
L 197.698093 1059.699283 
L 220.887703 1197.84749 
L 244.077313 1107.890518 
L 267.266924 1323.144701 
L 290.456534 1014.720797 
L 313.646144 1438.803665 
L 336.835755 1374.548685 
L 360.025365 1291.017211 
L 383.214976 1972.12 
L 406.404586 1448.441912 
L 429.594196 1458.080159 
L 452.783807 1380.974183 
L 475.973417 1374.548685 
L 499.163028 1329.570199 
L 522.352638 1335.995697 
L 545.542248 1249.251474 
L 568.731859 1429.165418 
L 591.921469 1458.080159 
L 615.11108 1509.484143 
L 638.30069 1477.356653 
L 661.4903 1445.229163 
L 684.679911 1291.017211 
L 707.869521 1451.654661 
L 731.059131 1419.527171 
L 754.248742 1451.654661 
L 777.438352 1445.229163 
L 800.627963 1461.292908 
L 823.817573 1413.101673 
L 847.007183 1397.037928 
L 870.196794 1519.12239 
L 893.386404 1483.782151 
L 916.576015 1522.335139 
L 939.765625 1470.931155 
L 962.955235 1393.825179 
L 986.144846 1570.526375 
L 1009.334456 1477.356653 
L 1032.524067 1522.335139 
L 1055.713677 1483.782151 
L 1078.903287 1792.206056 
L 1102.092898 1573.739124 
L 1125.282508 1798.631554 
L 1148.472119 1637.994104 
L 1171.661729 1586.59012 
L 1194.851339 1496.633147 
L 1218.04095 1663.696096 
L 1241.23056 1564.100876 
L 1264.42017 1573.739124 
L 1287.609781 1519.12239 
L 1310.799391 1458.080159 
L 1333.989002 1567.313625 
L 1357.178612 1657.270598 
L 1380.368222 1541.611633 
L 1403.557833 1599.441116 
L 1426.747443 1679.759841 
L 1449.937054 1657.270598 
L 1473.126664 1631.568606 
L 1496.316274 1593.015618 
L 1519.505885 1503.058645 
L 1542.695495 1512.696892 
L 1565.885106 1740.802072 
L 1589.074716 1593.015618 
L 1612.264326 1692.610837 
L 1635.453937 1612.292112 
L 1658.643547 1782.567809 
L 1681.833157 1509.484143 
L 1705.022768 1541.611633 
L 1728.212378 1432.378167 
L 1751.401989 359.32 
" style="fill:none;stroke:#0000ff;stroke-linecap:square;stroke-width:1.5;"/>
   </g>
   <g id="patch_3">
    <path d="M 46.965625 2052.76 
L 46.965625 278.68 
" style="fill:none;stroke:#000000;stroke-linecap:square;stroke-linejoin:miter;stroke-width:0.8;"/>
   </g>
   <g id="patch_4">
    <path d="M 1832.565625 2052.76 
L 1832.565625 278.68 
" style="fill:none;stroke:#000000;stroke-linecap:square;stroke-linejoin:miter;stroke-width:0.8;"/>
   </g>
   <g id="patch_5">
    <path d="M 46.965625 2052.76 
L 1832.565625 2052.76 
" style="fill:none;stroke:#000000;stroke-linecap:square;stroke-linejoin:miter;stroke-width:0.8;"/>
   </g>
   <g id="patch_6">
    <path d="M 46.965625 278.68 
L 1832.565625 278.68 
" style="fill:none;stroke:#000000;stroke-linecap:square;stroke-linejoin:miter;stroke-width:0.8;"/>
   </g>
   <g id="text_17">
    <text style="font-family:DejaVu Sans;font-size:12px;font-stretch:normal;font-style:normal;font-weight:normal;text-anchor:middle;" transform="rotate(-0, 939.765625, 272.68)" x="939.765625" y="272.68">humidity-&gt;Retransmission</text>
   </g>
  </g>
  <g id="legend_1">
   <g id="patch_7">
    <path d="M 1870.68125 22.678125 
L 2058.165625 22.678125 
Q 2060.165625 22.678125 2060.165625 20.678125 
L 2060.165625 7 
Q 2060.165625 5 2058.165625 5 
L 1870.68125 5 
Q 1868.68125 5 1868.68125 7 
L 1868.68125 20.678125 
Q 1868.68125 22.678125 1870.68125 22.678125 
z
" style="fill:#ffffff;opacity:0.8;stroke:#cccccc;stroke-linejoin:miter;"/>
   </g>
   <g id="line2d_16">
    <path d="M 1872.68125 13.098437 
L 1892.68125 13.098437 
" style="fill:none;stroke:#0000ff;stroke-linecap:square;stroke-width:1.5;"/>
   </g>
   <g id="line2d_17"/>
   <g id="text_18">
    <text style="font-family:DejaVu Sans;font-size:10px;font-stretch:normal;font-style:normal;font-weight:normal;text-anchor:start;" transform="rotate(-0, 1900.68125, 16.598437)" x="1900.68125" y="16.598437">Retransmission[dimensionless]</text>
   </g>
  </g>
 </g>
 <defs>
  <clipPath id="p58ffcfcd4a">
   <rect height="1774.08" width="1785.6" x="46.965625" y="278.68"/>
  </clipPath>
 </defs>
</svg>
