<?xml version="1.0" encoding="utf-8" standalone="no"?>
<!DOCTYPE svg PUBLIC "-//W3C//DTD SVG 1.1//EN"
  "http://www.w3.org/Graphics/SVG/1.1/DTD/svg11.dtd">
<!-- Created with matplotlib (https://matplotlib.org/) -->
<svg height="2090.594375pt" version="1.1" viewBox="0 0 2065.165625 2090.594375" width="2065.165625pt" xmlns="http://www.w3.org/2000/svg" xmlns:xlink="http://www.w3.org/1999/xlink">
 <metadata>
  <rdf:RDF xmlns:cc="http://creativecommons.org/ns#" xmlns:dc="http://purl.org/dc/elements/1.1/" xmlns:rdf="http://www.w3.org/1999/02/22-rdf-syntax-ns#">
   <cc:Work>
    <dc:type rdf:resource="http://purl.org/dc/dcmitype/StillImage"/>
    <dc:date>2022-07-24T12:02:13.197751</dc:date>
    <dc:format>image/svg+xml</dc:format>
    <dc:creator>
     <cc:Agent>
      <dc:title>Matplotlib v3.3.2, https://matplotlib.org/</dc:title>
     </cc:Agent>
    </dc:creator>
   </cc:Work>
  </rdf:RDF>
 </metadata>
 <defs>
  <style type="text/css">*{stroke-linecap:butt;stroke-linejoin:round;}</style>
 </defs>
 <g id="figure_1">
  <g id="patch_1">
   <path d="M 0 2090.594375 
L 2065.165625 2090.594375 
L 2065.165625 0 
L 0 0 
z
" style="fill:#ffffff;"/>
  </g>
  <g id="axes_1">
   <g id="patch_2">
    <path d="M 46.965625 2052.76 
L 1832.565625 2052.76 
L 1832.565625 278.68 
L 46.965625 278.68 
z
" style="fill:#ffffff;"/>
   </g>
   <g id="matplotlib.axis_1">
    <g id="xtick_1">
     <g id="line2d_1">
      <defs>
       <path d="M 0 0 
L 0 3.5 
" id="me457df0fc4" style="stroke:#000000;stroke-width:0.8;"/>
      </defs>
      <g>
       <use style="stroke:#000000;stroke-width:0.8;" x="75.019547" xlink:href="#me457df0fc4" y="2052.76"/>
      </g>
     </g>
     <g id="text_1">
      <text style="font-family:DejaVu Sans;font-size:10px;font-stretch:normal;font-style:normal;font-weight:normal;text-anchor:middle;" transform="rotate(-0, 75.019547, 2067.358437)" x="75.019547" y="2067.358437">1005.0</text>
     </g>
    </g>
    <g id="xtick_2">
     <g id="line2d_2">
      <g>
       <use style="stroke:#000000;stroke-width:0.8;" x="289.171622" xlink:href="#me457df0fc4" y="2052.76"/>
      </g>
     </g>
     <g id="text_2">
      <text style="font-family:DejaVu Sans;font-size:10px;font-stretch:normal;font-style:normal;font-weight:normal;text-anchor:middle;" transform="rotate(-0, 289.171622, 2067.358437)" x="289.171622" y="2067.358437">1007.5</text>
     </g>
    </g>
    <g id="xtick_3">
     <g id="line2d_3">
      <g>
       <use style="stroke:#000000;stroke-width:0.8;" x="503.323696" xlink:href="#me457df0fc4" y="2052.76"/>
      </g>
     </g>
     <g id="text_3">
      <text style="font-family:DejaVu Sans;font-size:10px;font-stretch:normal;font-style:normal;font-weight:normal;text-anchor:middle;" transform="rotate(-0, 503.323696, 2067.358437)" x="503.323696" y="2067.358437">1010.0</text>
     </g>
    </g>
    <g id="xtick_4">
     <g id="line2d_4">
      <g>
       <use style="stroke:#000000;stroke-width:0.8;" x="717.475771" xlink:href="#me457df0fc4" y="2052.76"/>
      </g>
     </g>
     <g id="text_4">
      <text style="font-family:DejaVu Sans;font-size:10px;font-stretch:normal;font-style:normal;font-weight:normal;text-anchor:middle;" transform="rotate(-0, 717.475771, 2067.358437)" x="717.475771" y="2067.358437">1012.5</text>
     </g>
    </g>
    <g id="xtick_5">
     <g id="line2d_5">
      <g>
       <use style="stroke:#000000;stroke-width:0.8;" x="931.627846" xlink:href="#me457df0fc4" y="2052.76"/>
      </g>
     </g>
     <g id="text_5">
      <text style="font-family:DejaVu Sans;font-size:10px;font-stretch:normal;font-style:normal;font-weight:normal;text-anchor:middle;" transform="rotate(-0, 931.627846, 2067.358437)" x="931.627846" y="2067.358437">1015.0</text>
     </g>
    </g>
    <g id="xtick_6">
     <g id="line2d_6">
      <g>
       <use style="stroke:#000000;stroke-width:0.8;" x="1145.779921" xlink:href="#me457df0fc4" y="2052.76"/>
      </g>
     </g>
     <g id="text_6">
      <text style="font-family:DejaVu Sans;font-size:10px;font-stretch:normal;font-style:normal;font-weight:normal;text-anchor:middle;" transform="rotate(-0, 1145.779921, 2067.358437)" x="1145.779921" y="2067.358437">1017.5</text>
     </g>
    </g>
    <g id="xtick_7">
     <g id="line2d_7">
      <g>
       <use style="stroke:#000000;stroke-width:0.8;" x="1359.931996" xlink:href="#me457df0fc4" y="2052.76"/>
      </g>
     </g>
     <g id="text_7">
      <text style="font-family:DejaVu Sans;font-size:10px;font-stretch:normal;font-style:normal;font-weight:normal;text-anchor:middle;" transform="rotate(-0, 1359.931996, 2067.358437)" x="1359.931996" y="2067.358437">1020.0</text>
     </g>
    </g>
    <g id="xtick_8">
     <g id="line2d_8">
      <g>
       <use style="stroke:#000000;stroke-width:0.8;" x="1574.084071" xlink:href="#me457df0fc4" y="2052.76"/>
      </g>
     </g>
     <g id="text_8">
      <text style="font-family:DejaVu Sans;font-size:10px;font-stretch:normal;font-style:normal;font-weight:normal;text-anchor:middle;" transform="rotate(-0, 1574.084071, 2067.358437)" x="1574.084071" y="2067.358437">1022.5</text>
     </g>
    </g>
    <g id="xtick_9">
     <g id="line2d_9">
      <g>
       <use style="stroke:#000000;stroke-width:0.8;" x="1788.236146" xlink:href="#me457df0fc4" y="2052.76"/>
      </g>
     </g>
     <g id="text_9">
      <text style="font-family:DejaVu Sans;font-size:10px;font-stretch:normal;font-style:normal;font-weight:normal;text-anchor:middle;" transform="rotate(-0, 1788.236146, 2067.358437)" x="1788.236146" y="2067.358437">1025.0</text>
     </g>
    </g>
    <g id="text_10">
     <text style="font-family:DejaVu Sans;font-size:10px;font-stretch:normal;font-style:normal;font-weight:normal;text-anchor:middle;" transform="rotate(-0, 939.765625, 2081.036562)" x="939.765625" y="2081.036562">air_pressure from Foreca</text>
    </g>
   </g>
   <g id="matplotlib.axis_2">
    <g id="ytick_1">
     <g id="line2d_10">
      <defs>
       <path d="M 0 0 
L -3.5 0 
" id="m3359714f22" style="stroke:#000000;stroke-width:0.8;"/>
      </defs>
      <g>
       <use style="stroke:#000000;stroke-width:0.8;" x="46.965625" xlink:href="#m3359714f22" y="1972.12"/>
      </g>
     </g>
     <g id="text_11">
      <text style="font-family:DejaVu Sans;font-size:10px;font-stretch:normal;font-style:normal;font-weight:normal;text-anchor:end;" transform="rotate(-0, 39.965625, 1975.919219)" x="39.965625" y="1975.919219">0</text>
     </g>
    </g>
    <g id="ytick_2">
     <g id="line2d_11">
      <g>
       <use style="stroke:#000000;stroke-width:0.8;" x="46.965625" xlink:href="#m3359714f22" y="1765.08534"/>
      </g>
     </g>
     <g id="text_12">
      <text style="font-family:DejaVu Sans;font-size:10px;font-stretch:normal;font-style:normal;font-weight:normal;text-anchor:end;" transform="rotate(-0, 39.965625, 1768.884559)" x="39.965625" y="1768.884559">100</text>
     </g>
    </g>
    <g id="ytick_3">
     <g id="line2d_12">
      <g>
       <use style="stroke:#000000;stroke-width:0.8;" x="46.965625" xlink:href="#m3359714f22" y="1558.05068"/>
      </g>
     </g>
     <g id="text_13">
      <text style="font-family:DejaVu Sans;font-size:10px;font-stretch:normal;font-style:normal;font-weight:normal;text-anchor:end;" transform="rotate(-0, 39.965625, 1561.849899)" x="39.965625" y="1561.849899">200</text>
     </g>
    </g>
    <g id="ytick_4">
     <g id="line2d_13">
      <g>
       <use style="stroke:#000000;stroke-width:0.8;" x="46.965625" xlink:href="#m3359714f22" y="1351.016021"/>
      </g>
     </g>
     <g id="text_14">
      <text style="font-family:DejaVu Sans;font-size:10px;font-stretch:normal;font-style:normal;font-weight:normal;text-anchor:end;" transform="rotate(-0, 39.965625, 1354.815239)" x="39.965625" y="1354.815239">300</text>
     </g>
    </g>
    <g id="ytick_5">
     <g id="line2d_14">
      <g>
       <use style="stroke:#000000;stroke-width:0.8;" x="46.965625" xlink:href="#m3359714f22" y="1143.981361"/>
      </g>
     </g>
     <g id="text_15">
      <text style="font-family:DejaVu Sans;font-size:10px;font-stretch:normal;font-style:normal;font-weight:normal;text-anchor:end;" transform="rotate(-0, 39.965625, 1147.780579)" x="39.965625" y="1147.780579">400</text>
     </g>
    </g>
    <g id="ytick_6">
     <g id="line2d_15">
      <g>
       <use style="stroke:#000000;stroke-width:0.8;" x="46.965625" xlink:href="#m3359714f22" y="936.946701"/>
      </g>
     </g>
     <g id="text_16">
      <text style="font-family:DejaVu Sans;font-size:10px;font-stretch:normal;font-style:normal;font-weight:normal;text-anchor:end;" transform="rotate(-0, 39.965625, 940.74592)" x="39.965625" y="940.74592">500</text>
     </g>
    </g>
    <g id="ytick_7">
     <g id="line2d_16">
      <g>
       <use style="stroke:#000000;stroke-width:0.8;" x="46.965625" xlink:href="#m3359714f22" y="729.912041"/>
      </g>
     </g>
     <g id="text_17">
      <text style="font-family:DejaVu Sans;font-size:10px;font-stretch:normal;font-style:normal;font-weight:normal;text-anchor:end;" transform="rotate(-0, 39.965625, 733.71126)" x="39.965625" y="733.71126">600</text>
     </g>
    </g>
    <g id="ytick_8">
     <g id="line2d_17">
      <g>
       <use style="stroke:#000000;stroke-width:0.8;" x="46.965625" xlink:href="#m3359714f22" y="522.877381"/>
      </g>
     </g>
     <g id="text_18">
      <text style="font-family:DejaVu Sans;font-size:10px;font-stretch:normal;font-style:normal;font-weight:normal;text-anchor:end;" transform="rotate(-0, 39.965625, 526.6766)" x="39.965625" y="526.6766">700</text>
     </g>
    </g>
    <g id="ytick_9">
     <g id="line2d_18">
      <g>
       <use style="stroke:#000000;stroke-width:0.8;" x="46.965625" xlink:href="#m3359714f22" y="315.842721"/>
      </g>
     </g>
     <g id="text_19">
      <text style="font-family:DejaVu Sans;font-size:10px;font-stretch:normal;font-style:normal;font-weight:normal;text-anchor:end;" transform="rotate(-0, 39.965625, 319.64194)" x="39.965625" y="319.64194">800</text>
     </g>
    </g>
    <g id="text_20">
     <text style="font-family:DejaVu Sans;font-size:10px;font-stretch:normal;font-style:normal;font-weight:normal;text-anchor:middle;" transform="rotate(-90, 14.798437, 1165.72)" x="14.798437" y="1165.72">Retransmission[dimensionless]</text>
    </g>
   </g>
   <g id="line2d_19">
    <path clip-path="url(#p32ce981021)" d="M 128.129261 1226.795225 
L 128.98587 1237.146958 
L 129.842478 1296.151836 
L 130.699086 1388.282259 
L 131.555695 1466.95543 
L 132.412303 1084.976483 
L 133.268911 1363.4381 
L 134.125519 1435.900231 
L 134.982128 1342.734634 
L 136.695344 1450.392657 
L 137.551953 1609.809345 
L 138.408561 1676.060436 
L 139.265169 1852.039897 
L 140.121778 1960.733094 
L 140.978386 1833.406778 
L 141.834994 1680.20113 
L 142.691602 1332.382901 
L 143.548211 1510.432709 
L 144.404819 1352.051194 
L 145.261427 1475.236816 
L 146.118036 1531.136175 
L 146.974644 1425.548498 
L 147.831252 1554.94516 
L 148.687861 1543.558254 
L 149.544469 1235.076611 
L 150.401077 1240.252478 
L 151.257685 1310.644262 
L 152.114294 1455.568524 
L 152.970902 1393.458126 
L 153.82751 1414.161592 
L 154.684119 1437.970578 
L 155.540727 1475.236816 
L 156.397335 1433.829884 
L 157.253944 1511.467882 
L 158.110552 1357.22706 
L 158.96716 1495.940282 
L 159.823768 1419.337458 
L 160.680377 1365.508447 
L 162.393593 1405.880205 
L 163.250202 1452.463004 
L 164.10681 1361.367754 
L 165.820027 1506.292015 
L 166.676635 1406.915379 
L 167.533243 1201.951065 
L 168.389851 1247.498691 
L 169.24646 849.992144 
L 170.103068 1394.493299 
L 170.959676 1021.830911 
L 171.816285 1290.975969 
L 172.672893 1109.820642 
L 174.38611 1448.322311 
L 175.242718 1336.523594 
L 176.099326 1390.352606 
L 176.955934 1210.232452 
L 178.669151 1355.156714 
L 179.525759 1332.382901 
L 180.382368 1255.780077 
L 181.238976 1451.427831 
L 182.952193 1448.322311 
L 183.808801 1289.940796 
L 185.522017 1092.222696 
L 187.235234 1237.146958 
L 188.091842 1334.453248 
L 189.805059 1329.277381 
L 190.661667 1460.74439 
L 192.374884 1185.388293 
L 194.0881 1283.729756 
L 194.944709 1508.362362 
L 196.657925 1073.589576 
L 197.514534 1218.513838 
L 198.371142 1427.618845 
L 199.22775 527.018074 
L 200.940967 1045.639897 
L 201.797575 1444.181617 
L 202.654183 1369.64914 
L 203.510792 1444.181617 
L 205.224008 1105.679949 
L 206.080617 1288.905623 
L 206.937225 1373.789833 
L 207.793833 1587.035533 
L 208.650442 1481.447856 
L 209.50705 1065.30819 
L 210.363658 1413.126418 
L 211.220266 1427.618845 
L 212.076875 1936.924108 
L 213.790091 1485.588549 
L 215.503308 1932.783415 
L 217.216524 1469.025777 
L 218.073133 1371.719487 
L 218.929741 1912.079949 
L 220.642958 957.650167 
L 221.499566 1552.874814 
L 223.212783 1843.758511 
L 224.069391 897.610116 
L 224.925999 1626.372118 
L 226.639216 1860.321284 
L 227.495824 1628.442465 
L 229.209041 1947.275841 
L 230.065649 1947.275841 
L 230.922257 1584.965186 
L 231.778866 1970.049653 
L 232.635474 1505.256842 
L 233.492082 1852.039897 
L 234.34869 1672.954917 
L 235.205299 1825.125392 
L 236.061907 1531.136175 
L 237.775124 1396.563646 
L 239.48834 1458.674044 
L 240.344949 1634.653504 
L 241.201557 1257.850424 
L 242.058165 1114.996508 
L 242.914773 1311.679435 
L 243.771382 1459.709217 
L 244.62799 1175.03656 
L 245.484598 1316.855302 
L 246.341207 1143.981361 
L 247.197815 1425.548498 
L 248.054423 1376.895353 
L 248.911032 1368.613967 
L 249.76764 1122.242721 
L 250.624248 1313.749782 
L 251.480856 1162.61448 
L 252.337465 1081.870963 
L 253.194073 1288.905623 
L 254.050681 1367.578793 
L 254.90729 1311.679435 
L 255.763898 1363.4381 
L 256.620506 1391.387779 
L 257.477115 1512.503055 
L 258.333723 1600.492786 
L 260.046939 1328.242208 
L 260.903548 1444.181617 
L 261.760156 1367.578793 
L 262.616764 1680.20113 
L 264.329981 1352.051194 
L 265.186589 912.102542 
L 266.043198 1961.768267 
L 267.756414 1431.759538 
L 268.613022 1304.433222 
L 269.469631 1092.222696 
L 271.182847 1404.845032 
L 272.896064 1442.111271 
L 273.752672 1499.045802 
L 274.609281 1261.991117 
L 275.465889 1306.503569 
L 276.322497 1398.633992 
L 277.179105 1400.704339 
L 278.035714 1185.388293 
L 278.892322 1314.784955 
L 279.74893 1591.176226 
L 280.605539 1195.740026 
L 281.462147 1516.643748 
L 282.318755 1421.407805 
L 283.175364 1756.803954 
L 284.031972 1237.146958 
L 284.88858 1512.503055 
L 286.601797 1397.598819 
L 287.458405 1421.407805 
L 288.315013 1417.267112 
L 290.02823 1210.232452 
L 290.884838 1336.523594 
L 291.741447 1299.257356 
L 292.598055 1371.719487 
L 294.311271 1369.64914 
L 296.024488 1187.458639 
L 296.881096 1175.03656 
L 297.737705 1359.297407 
L 298.594313 1231.971091 
L 299.450921 1373.789833 
L 301.164138 1293.046316 
L 302.020746 1285.800103 
L 302.877354 1354.12154 
L 303.733963 1019.760565 
L 305.447179 1421.407805 
L 306.303788 1429.689191 
L 307.160396 1498.010629 
L 308.017004 1477.307163 
L 308.873613 1375.86018 
L 309.730221 1367.578793 
L 310.586829 1293.046316 
L 312.300046 1576.6838 
L 313.156654 1191.599332 
L 314.013262 1323.066341 
L 315.726479 1514.573402 
L 316.583087 1349.980847 
L 318.296304 1242.322824 
L 319.152912 1299.257356 
L 320.866129 1495.940282 
L 321.722737 1421.407805 
L 322.579345 1512.503055 
L 325.14917 1254.744904 
L 326.005779 1672.954917 
L 326.862387 1295.116662 
L 327.718995 1357.22706 
L 329.432212 1661.56801 
L 330.28882 1500.080976 
L 331.145428 1377.930526 
L 332.858645 1970.049653 
L 333.715253 986.635019 
L 334.571862 1437.970578 
L 336.285078 1972.12 
L 337.141686 1555.980334 
L 337.998295 1266.13181 
L 338.854903 1698.834249 
L 339.711511 1454.53335 
L 340.56812 1334.453248 
L 341.424728 1972.12 
L 342.281336 1307.538742 
L 343.137945 1295.116662 
L 343.994553 1605.668652 
L 345.707769 1460.74439 
L 346.564378 1638.794198 
L 349.134203 1582.89484 
L 349.990811 1419.337458 
L 350.847419 1568.402413 
L 351.704027 1956.592401 
L 353.417244 1141.911014 
L 355.130461 1240.252478 
L 355.987069 1179.177253 
L 356.843677 1280.624236 
L 358.556894 1326.171861 
L 359.413502 1333.418074 
L 360.27011 1970.049653 
L 361.126719 1005.268139 
L 361.983327 1216.443492 
L 362.839935 1264.061463 
L 364.553152 1398.633992 
L 365.40976 1380.000873 
L 367.122977 1480.412683 
L 367.979585 1429.689191 
L 370.54941 1510.432709 
L 371.406018 1184.353119 
L 373.119235 1214.373145 
L 374.832452 1100.504082 
L 375.68906 1398.633992 
L 376.545668 1473.16647 
L 377.402276 1280.624236 
L 379.115493 1509.397535 
L 380.82871 878.976996 
L 382.541926 1353.086367 
L 383.398535 1366.54362 
L 385.111751 1359.297407 
L 386.824968 1724.713582 
L 387.681576 1365.508447 
L 388.538184 1336.523594 
L 390.251401 1369.64914 
L 391.108009 1148.122054 
L 391.964618 1177.106906 
L 392.821226 1377.930526 
L 394.534442 1210.232452 
L 396.247659 1312.714608 
L 397.104267 1455.568524 
L 398.817484 1471.096123 
L 399.674092 1439.005751 
L 400.530701 1270.272503 
L 402.243917 1572.543107 
L 403.957134 1198.845546 
L 405.67035 1645.005237 
L 406.526959 1239.217304 
L 408.240175 1398.633992 
L 409.953392 1028.041951 
L 410.81 1972.12 
L 411.666608 1462.814737 
L 412.523217 1430.724365 
L 413.379825 1274.413196 
L 414.236433 1148.122054 
L 415.94965 1386.211913 
L 416.806258 1972.12 
L 417.662867 1481.447856 
L 418.519475 1241.287651 
L 420.232691 1301.327702 
L 421.0893 1930.713068 
L 421.945908 1313.749782 
L 423.659125 1150.192401 
L 424.515733 1394.493299 
L 426.22895 1967.979307 
L 427.942166 1317.890475 
L 428.798774 1710.221155 
L 429.655383 1150.192401 
L 431.368599 1351.016021 
L 433.081816 1524.925135 
L 434.795033 1840.652991 
L 436.508249 1488.694069 
L 437.364857 1972.12 
L 438.221466 1829.266085 
L 439.934682 1148.122054 
L 440.791291 1638.794198 
L 441.647899 1972.12 
L 442.504507 1970.049653 
L 443.361116 1765.08534 
L 445.074332 1460.74439 
L 446.787549 1471.096123 
L 447.644157 1446.251964 
L 448.500765 1399.669166 
L 449.357374 1547.698947 
L 450.213982 1490.764416 
L 451.07059 1208.162105 
L 451.927199 1119.137202 
L 452.783807 1340.664288 
L 453.640415 1402.774685 
L 454.497023 1282.694583 
L 455.353632 1429.689191 
L 456.21024 1143.981361 
L 457.066848 1427.618845 
L 457.923457 1338.593941 
L 458.780065 1442.111271 
L 459.636673 1303.398049 
L 461.34989 1530.101001 
L 463.063106 1708.150809 
L 463.919715 1127.418588 
L 464.776323 1105.679949 
L 465.632931 1344.804981 
L 466.48954 1630.512811 
L 468.202756 1657.427317 
L 469.915973 1312.714608 
L 471.629189 1580.824493 
L 473.342406 953.509474 
L 475.055623 1083.941309 
L 475.912231 1092.222696 
L 476.768839 1445.216791 
L 478.482056 1015.619872 
L 479.338664 1106.715122 
L 480.195272 1726.783928 
L 481.908489 1364.473273 
L 482.765097 1328.242208 
L 483.621706 1359.297407 
L 485.334922 1235.076611 
L 486.19153 1437.970578 
L 487.904747 829.288678 
L 488.761355 1261.991117 
L 489.617964 1257.850424 
L 490.474572 1574.613453 
L 491.33118 1352.051194 
L 493.044397 1508.362362 
L 494.757613 1333.418074 
L 495.614222 1466.95543 
L 496.47083 1392.422953 
L 498.184047 1349.980847 
L 499.897263 1259.92077 
L 500.753872 1373.789833 
L 501.61048 1259.92077 
L 502.467088 1431.759538 
L 503.323696 1427.618845 
L 504.180305 1402.774685 
L 505.036913 1265.096637 
L 505.893521 1343.769807 
L 506.75013 1411.056072 
L 507.606738 1224.724878 
L 508.463346 1253.70973 
L 509.319955 1476.27199 
L 510.176563 1402.774685 
L 511.033171 1522.854788 
L 511.889779 1385.176739 
L 512.746388 1305.468395 
L 513.602996 1290.975969 
L 514.459604 1034.252991 
L 515.316213 1335.488421 
L 516.172821 1415.196765 
L 517.029429 1265.096637 
L 517.886038 1369.64914 
L 518.742646 1292.011142 
L 519.599254 1545.628601 
L 520.455862 1182.282773 
L 521.312471 1423.478151 
L 522.169079 1448.322311 
L 523.882296 1305.468395 
L 524.738904 1458.674044 
L 525.595512 1461.779564 
L 526.452121 1293.046316 
L 527.308729 1270.272503 
L 528.165337 1473.16647 
L 529.021945 1469.025777 
L 529.878554 1508.362362 
L 530.735162 1177.106906 
L 531.59177 1148.122054 
L 532.448379 1222.654531 
L 533.304987 1021.830911 
L 534.161595 1088.082003 
L 535.018204 1170.895866 
L 535.874812 1315.820128 
L 536.73142 1285.800103 
L 537.588028 1421.407805 
L 538.444637 1415.196765 
L 539.301245 1493.869936 
L 540.157853 1126.383415 
L 541.014462 1228.865571 
L 541.87107 1295.116662 
L 542.727678 1299.257356 
L 543.584287 1299.257356 
L 544.440895 1404.845032 
L 545.297503 1338.593941 
L 546.154111 1230.935918 
L 547.01072 1445.216791 
L 547.867328 1371.719487 
L 548.723936 1315.820128 
L 549.580545 1380.000873 
L 550.437153 1342.734634 
L 551.293761 1393.458126 
L 552.15037 1197.810372 
L 553.006978 1311.679435 
L 553.863586 1133.629628 
L 554.720194 1249.569037 
L 555.576803 1440.040924 
L 556.433411 1373.789833 
L 557.290019 1359.297407 
L 558.146628 1175.03656 
L 559.003236 1222.654531 
L 559.859844 1248.533864 
L 560.716453 1398.633992 
L 561.573061 1241.287651 
L 563.286277 1320.995995 
L 564.142886 1317.890475 
L 565.856102 978.353633 
L 566.712711 1448.322311 
L 567.569319 1280.624236 
L 568.425927 1972.12 
L 569.282536 1212.302798 
L 570.139144 1201.951065 
L 570.995752 1308.573915 
L 571.85236 1222.654531 
L 572.708969 1491.799589 
L 573.565577 1261.991117 
L 574.422185 1243.357997 
L 575.278794 1293.046316 
L 576.135402 1317.890475 
L 576.99201 1288.905623 
L 577.848619 1241.287651 
L 578.705227 1415.196765 
L 579.561835 1317.890475 
L 580.418443 1180.212426 
L 581.275052 1449.357484 
L 582.13166 1406.915379 
L 582.988268 1425.548498 
L 583.844877 1363.4381 
L 584.701485 1541.487908 
L 585.558093 1411.056072 
L 586.414702 1758.8743 
L 587.27131 1125.348241 
L 588.127918 1361.367754 
L 588.984526 1714.361849 
L 589.841135 1170.895866 
L 590.697743 1594.281746 
L 591.554351 1228.865571 
L 592.41096 1417.267112 
L 593.267568 1492.834763 
L 594.980785 1282.694583 
L 595.837393 1549.769294 
L 596.694001 1257.850424 
L 597.550609 1398.633992 
L 598.407218 1361.367754 
L 599.263826 1309.609089 
L 600.120434 1382.07122 
L 600.977043 1194.704852 
L 601.833651 1340.664288 
L 602.690259 1104.644775 
L 603.546868 1139.840668 
L 604.403476 1348.945674 
L 606.116692 1176.071733 
L 606.973301 1357.22706 
L 607.829909 1334.453248 
L 608.686517 1206.091759 
L 609.543126 1421.407805 
L 610.399734 1168.82552 
L 611.256342 1215.408318 
L 612.11295 1299.257356 
L 612.969559 1415.196765 
L 613.826167 1326.171861 
L 614.682775 1319.960822 
L 615.539384 1210.232452 
L 616.395992 1462.814737 
L 617.2526 1284.764929 
L 618.109209 1360.33258 
L 618.965817 1199.880719 
L 619.822425 1342.734634 
L 620.679033 1227.830398 
L 621.535642 1403.809859 
L 622.39225 1363.4381 
L 623.248858 1316.855302 
L 624.105467 1410.020899 
L 624.962075 1201.951065 
L 626.675292 1584.965186 
L 627.5319 1475.236816 
L 628.388508 1052.88611 
L 629.245116 1358.262234 
L 630.101725 1319.960822 
L 630.958333 1395.528472 
L 631.814941 1893.446829 
L 632.67155 1383.106393 
L 633.528158 1357.22706 
L 634.384766 1222.654531 
L 635.241375 1322.031168 
L 636.097983 1076.695096 
L 636.954591 1332.382901 
L 637.811199 1295.116662 
L 638.667808 1415.196765 
L 639.524416 1190.564159 
L 640.381024 1309.609089 
L 641.237633 1357.22706 
L 642.094241 1348.945674 
L 642.950849 1148.122054 
L 643.807458 1160.544134 
L 644.664066 1394.493299 
L 645.520674 1444.181617 
L 646.377282 1329.277381 
L 647.233891 1276.483543 
L 648.090499 1181.247599 
L 648.947107 1370.684313 
L 649.803716 1364.473273 
L 650.660324 1274.413196 
L 651.516932 1235.076611 
L 652.373541 1220.584185 
L 653.230149 1398.633992 
L 654.086757 1286.835276 
L 654.943365 1367.578793 
L 656.656582 1351.016021 
L 657.51319 1313.749782 
L 658.369799 1312.714608 
L 659.226407 1245.428344 
L 660.939624 1477.307163 
L 661.796232 1398.633992 
L 662.65284 1359.297407 
L 663.509448 1419.337458 
L 664.366057 1317.890475 
L 665.222665 1425.548498 
L 666.079273 1278.55389 
L 666.935882 1347.910501 
L 667.79249 1197.810372 
L 668.649098 1335.488421 
L 669.505707 1327.207035 
L 670.362315 1307.538742 
L 671.218923 1273.378023 
L 672.075531 1458.674044 
L 672.93214 1351.016021 
L 673.788748 1297.187009 
L 674.645356 1375.86018 
L 675.501965 1278.55389 
L 676.358573 1444.181617 
L 677.215181 1448.322311 
L 678.07179 1371.719487 
L 678.928398 1400.704339 
L 679.785006 1492.834763 
L 680.641614 1284.764929 
L 681.498223 1411.056072 
L 682.354831 1455.568524 
L 683.211439 1453.498177 
L 684.068048 1307.538742 
L 684.924656 1392.422953 
L 685.781264 1373.789833 
L 686.637873 1272.34285 
L 687.494481 1274.413196 
L 688.351089 1333.418074 
L 689.207697 1009.408832 
L 690.064306 1373.789833 
L 690.920914 1348.945674 
L 691.777522 1435.900231 
L 692.634131 1466.95543 
L 693.490739 1216.443492 
L 694.347347 1794.070193 
L 695.203956 1367.578793 
L 696.060564 1102.574429 
L 696.917172 1647.075584 
L 697.77378 1344.804981 
L 698.630389 1121.207548 
L 700.343605 1375.86018 
L 701.200214 1466.95543 
L 702.056822 1396.563646 
L 702.91343 1338.593941 
L 703.770039 1025.971605 
L 704.626647 1332.382901 
L 705.483255 1177.106906 
L 706.339863 1833.406778 
L 707.196472 1398.633992 
L 708.05308 1382.07122 
L 708.909688 1088.082003 
L 709.766297 1440.040924 
L 710.622905 1355.156714 
L 711.479513 1325.136688 
L 712.336122 1367.578793 
L 713.19273 1098.433736 
L 714.049338 1730.924621 
L 714.905946 1400.704339 
L 715.762555 1174.001386 
L 716.619163 1967.979307 
L 717.475771 1405.880205 
L 718.33238 1231.971091 
L 719.188988 1305.468395 
L 720.045596 1704.010116 
L 720.902205 866.554917 
L 721.758813 1216.443492 
L 722.615421 1057.026804 
L 723.472029 1355.156714 
L 724.328638 1380.000873 
L 725.185246 1415.196765 
L 726.041854 1779.577766 
L 726.898463 1317.890475 
L 728.611679 1510.432709 
L 729.468288 1340.664288 
L 730.324896 1715.397022 
L 731.181504 1316.855302 
L 732.038112 1446.251964 
L 732.894721 1537.347214 
L 733.751329 1277.518716 
L 734.607937 1384.141566 
L 735.464546 1315.820128 
L 736.321154 1700.904596 
L 737.177762 1277.518716 
L 738.034371 1425.548498 
L 738.890979 1279.589063 
L 739.747587 1955.557227 
L 740.604195 1355.156714 
L 741.460804 1448.322311 
L 742.317412 1466.95543 
L 743.17402 1425.548498 
L 744.030629 1521.819615 
L 744.887237 1309.609089 
L 745.743845 1806.492272 
L 746.600453 1699.869422 
L 747.457062 1314.784955 
L 748.31367 1457.63887 
L 749.170278 1256.81525 
L 750.026887 1502.151322 
L 750.883495 1365.508447 
L 751.740103 1467.990603 
L 752.596712 1298.222182 
L 753.45332 1363.4381 
L 754.309928 1558.05068 
L 756.023145 1241.287651 
L 756.879753 1175.03656 
L 757.736361 1259.92077 
L 758.59297 1179.177253 
L 759.449578 1518.714095 
L 760.306186 1245.428344 
L 761.162795 1302.362875 
L 762.019403 1277.518716 
L 762.876011 1471.096123 
L 763.732619 1358.262234 
L 764.589228 1375.86018 
L 765.445836 1278.55389 
L 766.302444 1319.960822 
L 767.159053 1233.006264 
L 768.015661 1423.478151 
L 768.872269 1383.106393 
L 769.728878 1382.07122 
L 770.585486 1272.34285 
L 771.442094 1367.578793 
L 772.298702 1568.402413 
L 773.155311 1377.930526 
L 774.011919 1237.146958 
L 774.868527 1402.774685 
L 775.725136 1365.508447 
L 776.581744 1498.010629 
L 778.294961 1297.187009 
L 779.151569 1280.624236 
L 780.008177 1330.312555 
L 780.864785 1365.508447 
L 781.721394 1333.418074 
L 782.578002 1324.101515 
L 783.43461 1447.287137 
L 784.291219 1181.247599 
L 785.147827 1374.825006 
L 786.004435 1355.156714 
L 786.861044 1320.995995 
L 787.717652 1361.367754 
L 788.57426 1313.749782 
L 789.430868 1351.016021 
L 790.287477 1313.749782 
L 791.144085 1366.54362 
L 792.000693 1345.840154 
L 792.857302 1373.789833 
L 793.71391 1358.262234 
L 794.570518 1365.508447 
L 795.427127 1398.633992 
L 796.283735 1226.795225 
L 797.140343 1431.759538 
L 797.996951 1398.633992 
L 798.85356 1384.141566 
L 799.710168 1243.357997 
L 800.566776 1402.774685 
L 801.423385 1386.211913 
L 802.279993 1433.829884 
L 803.136601 1290.975969 
L 803.99321 1425.548498 
L 804.849818 1440.040924 
L 805.706426 1241.287651 
L 806.563034 1429.689191 
L 807.419643 1294.081489 
L 808.276251 1272.34285 
L 809.132859 1495.940282 
L 809.989468 1424.513325 
L 810.846076 1404.845032 
L 811.702684 1295.116662 
L 812.559293 1328.242208 
L 813.415901 1330.312555 
L 814.272509 1322.031168 
L 815.129117 1394.493299 
L 815.985726 1261.991117 
L 816.842334 1312.714608 
L 817.698942 1317.890475 
L 818.555551 1343.769807 
L 819.412159 1436.935404 
L 820.268767 1370.684313 
L 821.125376 1317.890475 
L 821.981984 1313.749782 
L 822.838592 1154.333094 
L 823.6952 1364.473273 
L 824.551809 1342.734634 
L 825.408417 1346.875327 
L 826.265025 1359.297407 
L 827.121634 1377.930526 
L 827.978242 1288.905623 
L 828.83485 1355.156714 
L 829.691459 1201.951065 
L 830.548067 1373.789833 
L 831.404675 1334.453248 
L 832.261283 1307.538742 
L 833.117892 1313.749782 
L 833.9745 1371.719487 
L 834.831108 1404.845032 
L 835.687717 1380.000873 
L 836.544325 1228.865571 
L 837.400933 1493.869936 
L 838.257542 1323.066341 
L 839.11415 1288.905623 
L 839.970758 1235.076611 
L 840.827366 1411.056072 
L 841.683975 1274.413196 
L 842.540583 1268.202157 
L 843.397191 1376.895353 
L 844.2538 1428.654018 
L 845.110408 1957.627574 
L 845.967016 1961.768267 
L 846.823625 1955.557227 
L 847.680233 1537.347214 
L 848.536841 1956.592401 
L 849.393449 1955.557227 
L 850.250058 1713.326675 
L 851.106666 1737.135661 
L 851.963274 1954.522054 
L 852.819883 1400.704339 
L 853.676491 1204.021412 
L 854.533099 1400.704339 
L 855.389708 1381.036046 
L 856.246316 1047.710244 
L 857.102924 1460.74439 
L 857.959532 1342.734634 
L 858.816141 1292.011142 
L 859.672749 1582.89484 
L 860.529357 1373.789833 
L 861.385966 1295.116662 
L 863.099182 1499.045802 
L 863.955791 1092.222696 
L 864.812399 1346.875327 
L 865.669007 1386.211913 
L 866.525615 1393.458126 
L 867.382224 1286.835276 
L 868.238832 1569.437587 
L 869.09544 1353.086367 
L 869.952049 1380.000873 
L 870.808657 1318.925648 
L 871.665265 1388.282259 
L 872.521874 1160.544134 
L 873.378482 1659.497664 
L 874.23509 1320.995995 
L 875.091698 1243.357997 
L 875.948307 1204.021412 
L 876.804915 1186.423466 
L 877.661523 1290.975969 
L 878.518132 1310.644262 
L 879.37474 1240.252478 
L 880.231348 914.172888 
L 881.087956 1357.22706 
L 881.944565 1278.55389 
L 882.801173 1324.101515 
L 883.657781 1419.337458 
L 884.51439 1466.95543 
L 885.370998 1342.734634 
L 886.227606 1263.02629 
L 887.084215 1300.292529 
L 887.940823 1301.327702 
L 888.797431 1309.609089 
L 889.654039 1422.442978 
L 890.510648 1367.578793 
L 891.367256 1073.589576 
L 892.223864 1924.502028 
L 893.080473 1392.422953 
L 894.793689 1332.382901 
L 895.650298 1077.73027 
L 896.506906 1187.458639 
L 897.363514 1930.713068 
L 898.220122 1328.242208 
L 899.076731 1516.643748 
L 899.933339 1317.890475 
L 900.789947 1415.196765 
L 901.646556 1462.814737 
L 902.503164 1251.639384 
L 903.359772 1338.593941 
L 904.216381 1365.508447 
L 905.072989 1328.242208 
L 905.929597 1255.780077 
L 906.786205 1268.202157 
L 907.642814 1206.091759 
L 908.499422 1272.34285 
L 910.212639 1182.282773 
L 911.069247 1549.769294 
L 912.782464 1244.393171 
L 914.49568 1290.975969 
L 915.352288 1054.956457 
L 916.208897 1247.498691 
L 917.065505 1214.373145 
L 917.922113 1032.182644 
L 918.778722 1970.049653 
L 919.63533 1224.724878 
L 920.491938 1435.900231 
L 921.348547 1367.578793 
L 922.205155 1539.417561 
L 923.061763 1303.398049 
L 923.918371 1326.171861 
L 924.77498 1117.066855 
L 925.631588 1479.37751 
L 926.488196 1205.056585 
L 927.344805 1216.443492 
L 928.201413 1413.126418 
L 929.058021 1388.282259 
L 929.91463 1413.126418 
L 931.627846 1261.991117 
L 932.484454 1146.051707 
L 934.197671 1386.211913 
L 935.054279 1403.809859 
L 935.910888 1721.608062 
L 936.767496 1967.979307 
L 937.624104 1334.453248 
L 938.480713 1168.82552 
L 939.337321 1411.056072 
L 940.193929 1197.810372 
L 941.907146 1328.242208 
L 942.763754 1286.835276 
L 943.620362 1475.236816 
L 944.476971 1599.457612 
L 946.190187 907.961849 
L 947.046796 1238.182131 
L 947.903404 1676.060436 
L 949.61662 1210.232452 
L 950.473229 1322.031168 
L 951.329837 1166.755173 
L 952.186445 1415.196765 
L 953.043054 1477.307163 
L 953.899662 1349.980847 
L 954.75627 1313.749782 
L 955.612879 1266.13181 
L 956.469487 1524.925135 
L 957.326095 1394.493299 
L 958.182703 1199.880719 
L 959.039312 1269.23733 
L 959.89592 1143.981361 
L 962.465745 1134.664801 
L 964.178962 1148.122054 
L 965.03557 1294.081489 
L 966.748786 1090.152349 
L 967.605395 1312.714608 
L 968.462003 1304.433222 
L 969.318611 1278.55389 
L 970.17522 1092.222696 
L 971.031828 1138.805494 
L 971.888436 1213.337972 
L 972.745045 1459.709217 
L 973.601653 1430.724365 
L 974.458261 1387.247086 
L 975.314869 1371.719487 
L 976.171478 985.599846 
L 977.028086 1348.945674 
L 977.884694 1353.086367 
L 978.741303 1239.217304 
L 979.597911 1384.141566 
L 980.454519 1195.740026 
L 981.311128 1282.694583 
L 982.167736 1398.633992 
L 983.024344 1340.664288 
L 983.880952 1071.51923 
L 984.737561 1351.016021 
L 985.594169 1347.910501 
L 986.450777 1357.22706 
L 987.307386 1386.211913 
L 988.163994 1328.242208 
L 989.020602 1145.016534 
L 989.877211 1357.22706 
L 990.733819 1446.251964 
L 991.590427 1233.006264 
L 992.447035 1394.493299 
L 993.303644 1384.141566 
L 994.160252 1351.016021 
L 995.01686 1301.327702 
L 995.873469 1096.363389 
L 996.730077 1141.911014 
L 997.586685 1212.302798 
L 998.443294 1328.242208 
L 999.299902 1284.764929 
L 1001.869727 1439.005751 
L 1003.582943 1013.549525 
L 1005.29616 1473.16647 
L 1006.152768 1440.040924 
L 1007.009376 1419.337458 
L 1007.865985 1158.473787 
L 1008.722593 1367.578793 
L 1011.292418 1162.61448 
L 1013.862243 1413.126418 
L 1014.718851 1419.337458 
L 1015.575459 1435.900231 
L 1017.288676 1406.915379 
L 1019.001893 1487.658896 
L 1021.571718 1240.252478 
L 1023.284934 1096.363389 
L 1024.998151 1371.719487 
L 1026.711367 1390.352606 
L 1027.567976 1369.64914 
L 1028.424584 1253.70973 
L 1029.281192 1431.759538 
L 1030.994409 1189.528986 
L 1032.707625 1264.061463 
L 1033.564234 1328.242208 
L 1034.420842 1106.715122 
L 1035.27745 1255.780077 
L 1036.134059 1462.814737 
L 1036.990667 1286.835276 
L 1037.847275 1286.835276 
L 1038.703884 1394.493299 
L 1039.560492 1196.775199 
L 1040.4171 1318.925648 
L 1041.273708 1318.925648 
L 1042.130317 1280.624236 
L 1042.986925 1263.02629 
L 1043.843533 1242.322824 
L 1044.700142 1428.654018 
L 1045.55675 1323.066341 
L 1046.413358 1040.464031 
L 1047.269967 1373.789833 
L 1048.126575 1286.835276 
L 1048.983183 1413.126418 
L 1049.839791 1337.558768 
L 1050.6964 1185.388293 
L 1051.553008 1348.945674 
L 1052.409616 1259.92077 
L 1053.266225 1230.935918 
L 1054.122833 1361.367754 
L 1054.979441 1197.810372 
L 1055.83605 1160.544134 
L 1056.692658 1391.387779 
L 1057.549266 1398.633992 
L 1058.405874 1464.885083 
L 1059.262483 1322.031168 
L 1060.119091 1504.221669 
L 1061.832308 1208.162105 
L 1062.688916 1439.005751 
L 1063.545524 1439.005751 
L 1064.402133 1361.367754 
L 1065.258741 1346.875327 
L 1066.115349 1353.086367 
L 1066.971957 1304.433222 
L 1067.828566 1359.297407 
L 1068.685174 1226.795225 
L 1069.541782 1276.483543 
L 1070.398391 1382.07122 
L 1071.254999 1363.4381 
L 1072.968216 1375.86018 
L 1073.824824 1313.749782 
L 1075.53804 1240.252478 
L 1077.251257 1007.338485 
L 1078.107865 1098.433736 
L 1079.821082 1398.633992 
L 1080.67769 1171.93104 
L 1082.390907 1296.151836 
L 1083.247515 1421.407805 
L 1084.104123 1216.443492 
L 1084.960732 1143.981361 
L 1085.81734 1305.468395 
L 1086.673948 1295.116662 
L 1087.530557 1417.267112 
L 1088.387165 1361.367754 
L 1089.243773 1355.156714 
L 1090.100382 1334.453248 
L 1090.95699 1200.915892 
L 1091.813598 1434.865058 
L 1092.670206 1251.639384 
L 1093.526815 1032.182644 
L 1094.383423 1328.242208 
L 1095.240031 1208.162105 
L 1096.09664 1208.162105 
L 1096.953248 1263.02629 
L 1097.809856 1133.629628 
L 1098.666465 1342.734634 
L 1099.523073 1359.297407 
L 1100.379681 1288.905623 
L 1101.236289 1288.905623 
L 1102.092898 1319.960822 
L 1102.949506 1316.855302 
L 1103.806114 1491.799589 
L 1104.662723 1257.850424 
L 1105.519331 1087.046829 
L 1106.375939 1344.804981 
L 1107.232548 1297.187009 
L 1108.089156 1323.066341 
L 1109.802372 1281.659409 
L 1110.658981 1293.046316 
L 1111.515589 1558.05068 
L 1112.372197 1282.694583 
L 1113.228806 1520.784442 
L 1114.942022 1405.880205 
L 1115.798631 977.31846 
L 1116.655239 1368.613967 
L 1117.511847 1328.242208 
L 1118.368455 1480.412683 
L 1119.225064 1266.13181 
L 1120.081672 1432.794711 
L 1120.93828 1311.679435 
L 1121.794889 1220.584185 
L 1122.651497 1380.000873 
L 1123.508105 1228.865571 
L 1124.364714 1338.593941 
L 1125.221322 1296.151836 
L 1126.07793 1292.011142 
L 1126.934538 1090.152349 
L 1128.647755 1508.362362 
L 1130.360972 1433.829884 
L 1131.21758 1196.775199 
L 1132.930797 1230.935918 
L 1133.787405 1423.478151 
L 1135.500621 1475.236816 
L 1136.35723 1783.71846 
L 1137.213838 1340.664288 
L 1138.070446 1454.53335 
L 1140.640271 1071.51923 
L 1142.353488 1359.297407 
L 1143.210096 1455.568524 
L 1145.779921 961.79086 
L 1146.636529 1392.422953 
L 1147.493138 1413.126418 
L 1148.349746 1487.658896 
L 1150.062962 1204.021412 
L 1150.919571 996.986752 
L 1153.489396 1431.759538 
L 1156.059221 1145.016534 
L 1158.629045 1011.479178 
L 1159.485654 1340.664288 
L 1161.19887 1013.549525 
L 1162.912087 1452.463004 
L 1163.768695 1130.524108 
L 1165.481912 1098.433736 
L 1166.33852 1351.016021 
L 1168.051737 1399.669166 
L 1168.908345 1098.433736 
L 1169.764953 1288.905623 
L 1170.621562 1288.905623 
L 1171.47817 1384.141566 
L 1172.334778 1127.418588 
L 1173.191387 1210.232452 
L 1174.904603 1025.971605 
L 1175.761211 1384.141566 
L 1176.61782 1396.563646 
L 1177.474428 1469.025777 
L 1178.331036 1359.297407 
L 1179.187645 1299.257356 
L 1180.044253 1263.02629 
L 1180.900861 1365.508447 
L 1181.75747 1158.473787 
L 1182.614078 1268.202157 
L 1183.470686 1150.192401 
L 1184.327294 1549.769294 
L 1185.183903 1270.272503 
L 1186.040511 1297.187009 
L 1186.897119 1421.407805 
L 1188.610336 1342.734634 
L 1189.466944 1442.111271 
L 1190.323553 1481.447856 
L 1191.180161 1418.302285 
L 1192.036769 932.806008 
L 1192.893377 1487.658896 
L 1193.749986 1141.911014 
L 1194.606594 1059.09715 
L 1196.319811 1342.734634 
L 1197.176419 1515.608575 
L 1198.033027 1367.578793 
L 1198.889636 1125.348241 
L 1200.602852 1195.740026 
L 1202.316069 1501.116149 
L 1203.172677 1239.217304 
L 1204.885894 1351.016021 
L 1205.742502 1330.312555 
L 1206.59911 1330.312555 
L 1207.455719 1005.268139 
L 1208.312327 1245.428344 
L 1209.168935 1595.316919 
L 1210.025543 1460.74439 
L 1210.882152 1108.785469 
L 1211.73876 1313.749782 
L 1212.595368 1359.297407 
L 1213.451977 1481.447856 
L 1214.308585 852.06249 
L 1215.165193 1327.207035 
L 1216.021802 939.017047 
L 1216.87841 1442.111271 
L 1219.448235 1238.182131 
L 1221.161451 1522.854788 
L 1222.01806 1466.95543 
L 1222.874668 1353.086367 
L 1223.731276 1353.086367 
L 1224.587885 1357.22706 
L 1225.444493 1166.755173 
L 1226.301101 1127.418588 
L 1227.157709 1116.031682 
L 1228.870926 1198.845546 
L 1229.727534 1380.000873 
L 1230.584143 1290.975969 
L 1231.440751 1425.548498 
L 1233.153968 1089.117176 
L 1234.010576 1301.327702 
L 1235.723792 1377.930526 
L 1237.437009 1354.12154 
L 1238.293617 1245.428344 
L 1239.150226 1479.37751 
L 1240.006834 1121.207548 
L 1240.863442 1516.643748 
L 1241.720051 1330.312555 
L 1242.576659 1200.915892 
L 1243.433267 1363.4381 
L 1244.289875 1493.869936 
L 1245.146484 1181.247599 
L 1246.003092 1334.453248 
L 1247.716309 1387.247086 
L 1248.572917 1106.715122 
L 1249.429525 1052.88611 
L 1250.286134 1707.115635 
L 1251.99935 1301.327702 
L 1252.855958 1475.236816 
L 1253.712567 1384.141566 
L 1254.569175 1398.633992 
L 1256.282392 1304.433222 
L 1257.139 1847.899204 
L 1257.995608 1268.202157 
L 1258.852217 1145.016534 
L 1259.708825 1263.02629 
L 1260.565433 1357.22706 
L 1261.422041 1361.367754 
L 1262.27865 1226.795225 
L 1263.135258 1210.232452 
L 1263.991866 1282.694583 
L 1264.848475 1760.944647 
L 1265.705083 1280.624236 
L 1266.561691 1120.172375 
L 1268.274908 1560.121027 
L 1269.131516 1450.392657 
L 1269.988124 1367.578793 
L 1270.844733 1408.985725 
L 1271.701341 1314.784955 
L 1272.557949 1564.26172 
L 1273.414558 1342.734634 
L 1274.271166 1408.985725 
L 1275.127774 1504.221669 
L 1276.840991 1411.056072 
L 1277.697599 1413.126418 
L 1278.554207 1394.493299 
L 1279.410816 1388.282259 
L 1280.267424 1249.569037 
L 1281.124032 1284.764929 
L 1281.980641 1307.538742 
L 1282.837249 1396.563646 
L 1283.693857 1245.428344 
L 1284.550465 1479.37751 
L 1285.407074 1357.22706 
L 1286.263682 1382.07122 
L 1287.976899 1253.70973 
L 1288.833507 1355.156714 
L 1289.690115 1394.493299 
L 1290.546724 1400.704339 
L 1291.403332 1425.548498 
L 1292.25994 1208.162105 
L 1293.116548 1421.407805 
L 1293.973157 1148.122054 
L 1294.829765 1643.970064 
L 1295.686373 1150.192401 
L 1296.542982 1180.212426 
L 1297.39959 1284.764929 
L 1298.256198 1270.272503 
L 1299.112807 1663.638357 
L 1299.969415 1395.528472 
L 1300.826023 1429.689191 
L 1301.682631 1312.714608 
L 1302.53924 1365.508447 
L 1303.395848 1279.589063 
L 1304.252456 1443.146444 
L 1305.109065 1266.13181 
L 1305.965673 1159.50896 
L 1306.822281 1143.981361 
L 1307.67889 1146.051707 
L 1308.535498 1429.689191 
L 1309.392106 1429.689191 
L 1310.248714 1024.936431 
L 1311.105323 1153.29792 
L 1311.961931 1226.795225 
L 1312.818539 1352.051194 
L 1313.675148 1253.70973 
L 1314.531756 1373.789833 
L 1315.388364 1344.804981 
L 1316.244973 1371.719487 
L 1317.101581 1199.880719 
L 1317.958189 1284.764929 
L 1318.814797 1315.820128 
L 1319.671406 1250.604211 
L 1320.528014 978.353633 
L 1321.384622 1383.106393 
L 1322.241231 1339.629114 
L 1323.097839 1196.775199 
L 1323.954447 1344.804981 
L 1324.811056 1214.373145 
L 1325.667664 1394.493299 
L 1326.524272 1310.644262 
L 1327.38088 1337.558768 
L 1328.237489 1388.282259 
L 1329.094097 1418.302285 
L 1329.950705 1391.387779 
L 1330.807314 1388.282259 
L 1331.663922 1358.262234 
L 1332.52053 1250.604211 
L 1333.377139 1402.774685 
L 1334.233747 1446.251964 
L 1335.090355 1390.352606 
L 1335.946963 1146.051707 
L 1336.803572 1429.689191 
L 1337.66018 1411.056072 
L 1338.516788 1346.875327 
L 1339.373397 1330.312555 
L 1340.230005 1281.659409 
L 1341.086613 1274.413196 
L 1341.943222 1133.629628 
L 1342.79983 1392.422953 
L 1343.656438 1403.809859 
L 1344.513046 1334.453248 
L 1345.369655 1390.352606 
L 1346.226263 1403.809859 
L 1347.082871 1324.101515 
L 1347.93948 1452.463004 
L 1348.796088 1322.031168 
L 1349.652696 1518.714095 
L 1350.509305 1669.849397 
L 1351.365913 1255.780077 
L 1352.222521 1427.618845 
L 1353.079129 1301.327702 
L 1353.935738 1412.091245 
L 1354.792346 1597.387266 
L 1355.648954 1427.618845 
L 1356.505563 1151.227574 
L 1357.362171 1376.895353 
L 1358.218779 1264.061463 
L 1359.075388 1489.729243 
L 1359.931996 1245.428344 
L 1360.788604 1864.461977 
L 1361.645212 1282.694583 
L 1362.501821 1295.116662 
L 1363.358429 1311.679435 
L 1364.215037 1245.428344 
L 1365.071646 1311.679435 
L 1365.928254 1195.740026 
L 1366.784862 1528.030655 
L 1367.641471 1388.282259 
L 1368.498079 1673.99009 
L 1369.354687 1870.673017 
L 1370.211295 1459.709217 
L 1371.067904 1440.040924 
L 1371.924512 1328.242208 
L 1372.78112 1344.804981 
L 1374.494337 1392.422953 
L 1375.350945 1431.759538 
L 1376.207554 1338.593941 
L 1377.064162 1307.538742 
L 1377.92077 1282.694583 
L 1378.777378 1296.151836 
L 1379.633987 1269.23733 
L 1380.490595 1299.257356 
L 1381.347203 1284.764929 
L 1382.203812 1226.795225 
L 1383.06042 1460.74439 
L 1383.917028 1245.428344 
L 1384.773637 1307.538742 
L 1385.630245 1272.34285 
L 1386.486853 1423.478151 
L 1387.343461 1328.242208 
L 1388.20007 1275.44837 
L 1389.056678 1373.789833 
L 1389.913286 1312.714608 
L 1390.769895 1048.745417 
L 1391.626503 1320.995995 
L 1392.483111 1421.407805 
L 1393.33972 1402.774685 
L 1394.196328 1353.086367 
L 1395.052936 1338.593941 
L 1395.909544 1398.633992 
L 1396.766153 1369.64914 
L 1397.622761 1392.422953 
L 1398.479369 1131.559281 
L 1399.335978 1432.794711 
L 1400.192586 1459.709217 
L 1401.049194 1392.422953 
L 1401.905803 1235.076611 
L 1402.762411 1419.337458 
L 1403.619019 1494.905109 
L 1404.475627 1286.835276 
L 1405.332236 1385.176739 
L 1406.188844 1374.825006 
L 1407.045452 1375.86018 
L 1407.902061 1554.94516 
L 1408.758669 1361.367754 
L 1409.615277 1539.417561 
L 1411.328494 1301.327702 
L 1412.185102 1330.312555 
L 1413.04171 1456.603697 
L 1413.898319 1249.569037 
L 1414.754927 1326.171861 
L 1416.468144 1420.372632 
L 1417.324752 1271.307677 
L 1418.18136 1294.081489 
L 1419.037968 1327.207035 
L 1419.894577 1199.880719 
L 1420.751185 1397.598819 
L 1421.607793 1305.468395 
L 1422.464402 1400.704339 
L 1423.32101 1411.056072 
L 1424.177618 1311.679435 
L 1425.034227 1361.367754 
L 1425.890835 1353.086367 
L 1426.747443 1353.086367 
L 1427.604051 1331.347728 
L 1428.46066 1344.804981 
L 1429.317268 1401.739512 
L 1430.173876 1405.880205 
L 1431.030485 1361.367754 
L 1431.887093 1423.478151 
L 1432.743701 1452.463004 
L 1433.60031 1423.478151 
L 1434.456918 1294.081489 
L 1435.313526 1281.659409 
L 1436.170134 1355.156714 
L 1437.026743 1413.126418 
L 1438.739959 1296.151836 
L 1439.596568 1278.55389 
L 1440.453176 1222.654531 
L 1441.309784 1367.578793 
L 1442.166393 1343.769807 
L 1443.023001 1179.177253 
L 1443.879609 1348.945674 
L 1444.736217 1431.759538 
L 1445.592826 1245.428344 
L 1446.449434 1432.794711 
L 1447.306042 1323.066341 
L 1448.162651 1325.136688 
L 1449.019259 1464.885083 
L 1449.875867 1382.07122 
L 1450.732476 1400.704339 
L 1451.589084 1275.44837 
L 1452.445692 1365.508447 
L 1453.3023 1348.945674 
L 1454.158909 1305.468395 
L 1455.872125 1432.794711 
L 1456.728734 1423.478151 
L 1457.585342 1197.810372 
L 1458.44195 1346.875327 
L 1459.298559 1446.251964 
L 1460.155167 1309.609089 
L 1461.011775 1475.236816 
L 1461.868383 1119.137202 
L 1462.724992 1307.538742 
L 1463.5816 1259.92077 
L 1464.438208 1300.292529 
L 1465.294817 1255.780077 
L 1466.151425 1371.719487 
L 1467.008033 1191.599332 
L 1467.864642 1403.809859 
L 1468.72125 1317.890475 
L 1469.577858 1276.483543 
L 1470.434466 1361.367754 
L 1471.291075 1253.70973 
L 1472.147683 1305.468395 
L 1473.004291 1148.122054 
L 1473.8609 1335.488421 
L 1474.717508 1363.4381 
L 1475.574116 1353.086367 
L 1476.430725 1395.528472 
L 1477.287333 1452.463004 
L 1478.143941 1143.981361 
L 1479.000549 1342.734634 
L 1479.857158 1325.136688 
L 1480.713766 1040.464031 
L 1481.570374 1307.538742 
L 1482.426983 1209.197279 
L 1483.283591 1427.618845 
L 1484.140199 1312.714608 
L 1484.996808 1251.639384 
L 1485.853416 1270.272503 
L 1486.710024 1416.231938 
L 1487.566632 1351.016021 
L 1488.423241 1301.327702 
L 1489.279849 1208.162105 
L 1490.136457 1382.07122 
L 1490.993066 1365.508447 
L 1491.849674 1307.538742 
L 1492.706282 1383.106393 
L 1493.562891 1412.091245 
L 1494.419499 1371.719487 
L 1496.132715 1541.487908 
L 1496.989324 1208.162105 
L 1497.845932 1194.704852 
L 1498.70254 1346.875327 
L 1499.559149 1293.046316 
L 1500.415757 1357.22706 
L 1501.272365 1380.000873 
L 1502.128974 1114.996508 
L 1502.985582 1310.644262 
L 1503.84219 1351.016021 
L 1504.698798 1495.940282 
L 1505.555407 1404.845032 
L 1506.412015 1214.373145 
L 1507.268623 1334.453248 
L 1508.125232 1363.4381 
L 1508.98184 1568.402413 
L 1509.838448 1450.392657 
L 1510.695057 1609.809345 
L 1512.408273 1397.598819 
L 1513.264881 1432.794711 
L 1514.12149 1211.267625 
L 1514.978098 1494.905109 
L 1515.834706 1444.181617 
L 1516.691315 1272.34285 
L 1517.547923 1146.051707 
L 1518.404531 1411.056072 
L 1519.26114 1199.880719 
L 1520.117748 1297.187009 
L 1520.974356 1237.146958 
L 1521.830964 1286.835276 
L 1522.687573 1298.222182 
L 1523.544181 1201.951065 
L 1524.400789 1314.784955 
L 1525.257398 1397.598819 
L 1526.114006 1359.297407 
L 1526.970614 1206.091759 
L 1527.827223 1272.34285 
L 1528.683831 1380.000873 
L 1529.540439 1351.016021 
L 1530.397047 1330.312555 
L 1531.253656 1369.64914 
L 1532.110264 1388.282259 
L 1532.966872 1340.664288 
L 1533.823481 1307.538742 
L 1534.680089 1346.875327 
L 1535.536697 1357.22706 
L 1536.393305 1360.33258 
L 1537.249914 1263.02629 
L 1538.106522 1404.845032 
L 1538.96313 1363.4381 
L 1539.819739 1244.393171 
L 1540.676347 1401.739512 
L 1541.532955 1413.126418 
L 1542.389564 1408.985725 
L 1543.246172 1245.428344 
L 1544.10278 1384.141566 
L 1544.959388 1471.096123 
L 1545.815997 1473.16647 
L 1546.672605 1346.875327 
L 1547.529213 1485.588549 
L 1548.385822 1371.719487 
L 1549.24243 1338.593941 
L 1550.099038 1352.051194 
L 1550.955647 1448.322311 
L 1551.812255 1266.13181 
L 1552.668863 1459.709217 
L 1553.525471 1407.950552 
L 1554.38208 1448.322311 
L 1555.238688 1421.407805 
L 1556.095296 1293.046316 
L 1556.951905 1461.779564 
L 1558.665121 1219.549012 
L 1559.52173 1343.769807 
L 1560.378338 1252.674557 
L 1561.234946 1273.378023 
L 1562.091554 1702.974942 
L 1563.804771 1365.508447 
L 1564.661379 1404.845032 
L 1566.374596 1340.664288 
L 1568.087813 1431.759538 
L 1568.944421 1336.523594 
L 1569.801029 1444.181617 
L 1570.657637 1328.242208 
L 1571.514246 1404.845032 
L 1572.370854 1394.493299 
L 1573.227462 1434.865058 
L 1574.084071 1299.257356 
L 1574.940679 1317.890475 
L 1575.797287 1427.618845 
L 1576.653896 1582.89484 
L 1577.510504 1392.422953 
L 1578.367112 1283.729756 
L 1579.22372 1114.996508 
L 1580.080329 1430.724365 
L 1580.936937 1133.629628 
L 1581.793545 1078.765443 
L 1582.650154 1371.719487 
L 1583.506762 1263.02629 
L 1585.219979 1280.624236 
L 1586.076587 1028.041951 
L 1586.933195 1295.116662 
L 1587.789803 1452.463004 
L 1588.646412 1164.684827 
L 1589.50302 1325.136688 
L 1590.359628 1373.789833 
L 1591.216237 1210.232452 
L 1592.072845 1384.141566 
L 1592.929453 1587.035533 
L 1593.786062 1415.196765 
L 1594.64267 1090.152349 
L 1595.499278 1257.850424 
L 1596.355886 1332.382901 
L 1598.069103 1404.845032 
L 1598.925711 1361.367754 
L 1600.638928 1332.382901 
L 1602.352145 1380.000873 
L 1604.921969 1402.774685 
L 1605.778578 1467.990603 
L 1606.635186 1355.156714 
L 1608.348403 1360.33258 
L 1610.061619 1444.181617 
L 1611.774836 968.0019 
L 1614.344661 1196.775199 
L 1615.201269 1403.809859 
L 1616.914486 1446.251964 
L 1617.771094 1222.654531 
L 1618.627702 1910.009602 
L 1619.484311 1355.156714 
L 1620.340919 1317.890475 
L 1621.197527 1420.372632 
L 1622.054135 1338.593941 
L 1624.62396 1463.84991 
L 1625.480569 1366.54362 
L 1627.193785 1417.267112 
L 1628.050394 665.731297 
L 1628.907002 1280.624236 
L 1629.76361 1224.724878 
L 1630.620218 1500.080976 
L 1632.333435 1114.996508 
L 1633.190043 1268.202157 
L 1634.046652 1972.12 
L 1634.90326 1267.166983 
L 1636.616477 1301.327702 
L 1637.473085 1970.049653 
L 1638.329693 1199.880719 
L 1640.04291 1456.603697 
L 1640.899518 1104.644775 
L 1643.469343 1508.362362 
L 1644.325951 1375.86018 
L 1645.18256 1421.407805 
L 1646.039168 1299.257356 
L 1646.895776 1965.90896 
L 1648.608993 1355.156714 
L 1650.322209 1118.102028 
L 1652.035426 1485.588549 
L 1652.892034 1972.12 
L 1653.748643 1462.814737 
L 1655.461859 1419.337458 
L 1656.318467 1719.537715 
L 1658.031684 1738.170834 
L 1658.888292 1425.548498 
L 1659.744901 1602.563132 
L 1660.601509 1665.708703 
L 1661.458117 1592.211399 
L 1662.314726 1750.592914 
L 1663.171334 1533.206521 
L 1664.027942 1526.995481 
L 1664.88455 1769.226033 
L 1665.741159 1695.728729 
L 1666.597767 1541.487908 
L 1667.454375 1475.236816 
L 1668.310984 1529.065828 
L 1669.167592 1654.321797 
L 1670.0242 1610.844519 
L 1670.880808 1390.352606 
L 1671.737417 1591.176226 
L 1672.594025 1443.146444 
L 1674.307242 1951.416534 
L 1675.16385 1360.33258 
L 1676.020458 1228.865571 
L 1676.877067 1651.216277 
L 1677.733675 1243.357997 
L 1678.590283 1322.031168 
L 1679.446891 1270.272503 
L 1680.3035 1353.086367 
L 1681.160108 1396.563646 
L 1682.016716 1460.74439 
L 1682.873325 1384.141566 
L 1683.729933 1096.363389 
L 1684.586541 1344.804981 
L 1685.44315 1276.483543 
L 1686.299758 1380.000873 
L 1687.156366 1411.056072 
L 1688.012974 1629.477638 
L 1688.869583 1415.196765 
L 1689.726191 1337.558768 
L 1690.582799 1383.106393 
L 1691.439408 1364.473273 
L 1692.296016 1501.116149 
L 1693.152624 1399.669166 
L 1694.009233 1421.407805 
L 1694.865841 1364.473273 
L 1695.722449 1364.473273 
L 1696.579057 1353.086367 
L 1697.435666 1371.719487 
L 1698.292274 1309.609089 
L 1699.148882 1361.367754 
L 1700.005491 1373.789833 
L 1700.862099 1375.86018 
L 1701.718707 1483.518203 
L 1702.575316 1208.162105 
L 1704.288532 1148.122054 
L 1705.14514 1235.076611 
L 1706.001749 1338.593941 
L 1706.858357 1072.554403 
L 1707.714965 1504.221669 
L 1708.571574 1301.327702 
L 1709.428182 1332.382901 
L 1710.28479 1423.478151 
L 1711.141399 1454.53335 
L 1711.998007 1524.925135 
L 1712.854615 1415.196765 
L 1713.711223 1433.829884 
L 1714.567832 1363.4381 
L 1715.42444 1324.101515 
L 1716.281048 359.32 
L 1717.137657 1463.84991 
L 1717.994265 1357.22706 
L 1718.850873 1328.242208 
L 1719.707482 1313.749782 
L 1720.56409 1396.563646 
L 1721.420698 1170.895866 
L 1722.277306 1290.975969 
L 1723.133915 903.821155 
L 1723.990523 952.4743 
L 1724.847131 1247.498691 
L 1725.70374 1278.55389 
L 1726.560348 1408.985725 
L 1727.416956 1500.080976 
L 1728.273565 1383.106393 
L 1729.130173 1330.312555 
L 1729.986781 1404.845032 
L 1730.843389 1342.734634 
L 1731.699998 1216.443492 
L 1732.556606 883.117689 
L 1733.413214 1481.447856 
L 1734.269823 1348.945674 
L 1735.126431 1322.031168 
L 1735.983039 1264.061463 
L 1736.839648 1234.041438 
L 1737.696256 1450.392657 
L 1738.552864 1134.664801 
L 1739.409472 1419.337458 
L 1740.266081 1246.463517 
L 1741.122689 1133.629628 
L 1741.979297 1387.247086 
L 1742.835906 1257.850424 
L 1743.692514 1329.277381 
L 1744.549122 1175.03656 
L 1745.405731 1313.749782 
L 1746.262339 1419.337458 
L 1747.118947 1341.699461 
L 1747.975555 1412.091245 
L 1748.832164 1135.699974 
L 1749.688772 1199.880719 
L 1750.54538 1391.387779 
L 1751.401989 1332.382901 
L 1751.401989 1332.382901 
" style="fill:none;stroke:#0000ff;stroke-linecap:square;stroke-width:1.5;"/>
   </g>
   <g id="patch_3">
    <path d="M 46.965625 2052.76 
L 46.965625 278.68 
" style="fill:none;stroke:#000000;stroke-linecap:square;stroke-linejoin:miter;stroke-width:0.8;"/>
   </g>
   <g id="patch_4">
    <path d="M 1832.565625 2052.76 
L 1832.565625 278.68 
" style="fill:none;stroke:#000000;stroke-linecap:square;stroke-linejoin:miter;stroke-width:0.8;"/>
   </g>
   <g id="patch_5">
    <path d="M 46.965625 2052.76 
L 1832.565625 2052.76 
" style="fill:none;stroke:#000000;stroke-linecap:square;stroke-linejoin:miter;stroke-width:0.8;"/>
   </g>
   <g id="patch_6">
    <path d="M 46.965625 278.68 
L 1832.565625 278.68 
" style="fill:none;stroke:#000000;stroke-linecap:square;stroke-linejoin:miter;stroke-width:0.8;"/>
   </g>
   <g id="text_21">
    <text style="font-family:DejaVu Sans;font-size:12px;font-stretch:normal;font-style:normal;font-weight:normal;text-anchor:middle;" transform="rotate(-0, 939.765625, 272.68)" x="939.765625" y="272.68">air_pressure-&gt;Retransmission</text>
   </g>
  </g>
  <g id="legend_1">
   <g id="patch_7">
    <path d="M 1870.68125 22.678125 
L 2058.165625 22.678125 
Q 2060.165625 22.678125 2060.165625 20.678125 
L 2060.165625 7 
Q 2060.165625 5 2058.165625 5 
L 1870.68125 5 
Q 1868.68125 5 1868.68125 7 
L 1868.68125 20.678125 
Q 1868.68125 22.678125 1870.68125 22.678125 
z
" style="fill:#ffffff;opacity:0.8;stroke:#cccccc;stroke-linejoin:miter;"/>
   </g>
   <g id="line2d_20">
    <path d="M 1872.68125 13.098437 
L 1892.68125 13.098437 
" style="fill:none;stroke:#0000ff;stroke-linecap:square;stroke-width:1.5;"/>
   </g>
   <g id="line2d_21"/>
   <g id="text_22">
    <text style="font-family:DejaVu Sans;font-size:10px;font-stretch:normal;font-style:normal;font-weight:normal;text-anchor:start;" transform="rotate(-0, 1900.68125, 16.598437)" x="1900.68125" y="16.598437">Retransmission[dimensionless]</text>
   </g>
  </g>
 </g>
 <defs>
  <clipPath id="p32ce981021">
   <rect height="1774.08" width="1785.6" x="46.965625" y="278.68"/>
  </clipPath>
 </defs>
</svg>
