<?xml version="1.0" encoding="utf-8" standalone="no"?>
<!DOCTYPE svg PUBLIC "-//W3C//DTD SVG 1.1//EN"
  "http://www.w3.org/Graphics/SVG/1.1/DTD/svg11.dtd">
<!-- Created with matplotlib (https://matplotlib.org/) -->
<svg height="2090.31625pt" version="1.1" viewBox="0 0 2065.165625 2090.31625" width="2065.165625pt" xmlns="http://www.w3.org/2000/svg" xmlns:xlink="http://www.w3.org/1999/xlink">
 <metadata>
  <rdf:RDF xmlns:cc="http://creativecommons.org/ns#" xmlns:dc="http://purl.org/dc/elements/1.1/" xmlns:rdf="http://www.w3.org/1999/02/22-rdf-syntax-ns#">
   <cc:Work>
    <dc:type rdf:resource="http://purl.org/dc/dcmitype/StillImage"/>
    <dc:date>2022-07-23T21:24:51.234365</dc:date>
    <dc:format>image/svg+xml</dc:format>
    <dc:creator>
     <cc:Agent>
      <dc:title>Matplotlib v3.3.2, https://matplotlib.org/</dc:title>
     </cc:Agent>
    </dc:creator>
   </cc:Work>
  </rdf:RDF>
 </metadata>
 <defs>
  <style type="text/css">*{stroke-linecap:butt;stroke-linejoin:round;}</style>
 </defs>
 <g id="figure_1">
  <g id="patch_1">
   <path d="M 0 2090.31625 
L 2065.165625 2090.31625 
L 2065.165625 0 
L 0 0 
z
" style="fill:#ffffff;"/>
  </g>
  <g id="axes_1">
   <g id="patch_2">
    <path d="M 46.965625 2052.76 
L 1832.565625 2052.76 
L 1832.565625 278.68 
L 46.965625 278.68 
z
" style="fill:#ffffff;"/>
   </g>
   <g id="matplotlib.axis_1">
    <g id="xtick_1">
     <g id="line2d_1">
      <defs>
       <path d="M 0 0 
L 0 3.5 
" id="m6ce7504390" style="stroke:#000000;stroke-width:0.8;"/>
      </defs>
      <g>
       <use style="stroke:#000000;stroke-width:0.8;" x="103.155835" xlink:href="#m6ce7504390" y="2052.76"/>
      </g>
     </g>
     <g id="text_1">
      <text style="font-family:DejaVu Sans;font-size:10px;font-stretch:normal;font-style:normal;font-weight:normal;text-anchor:middle;" transform="rotate(-0, 103.155835, 2067.358438)" x="103.155835" y="2067.358438">30</text>
     </g>
    </g>
    <g id="xtick_2">
     <g id="line2d_2">
      <g>
       <use style="stroke:#000000;stroke-width:0.8;" x="352.890101" xlink:href="#m6ce7504390" y="2052.76"/>
      </g>
     </g>
     <g id="text_2">
      <text style="font-family:DejaVu Sans;font-size:10px;font-stretch:normal;font-style:normal;font-weight:normal;text-anchor:middle;" transform="rotate(-0, 352.890101, 2067.358438)" x="352.890101" y="2067.358438">40</text>
     </g>
    </g>
    <g id="xtick_3">
     <g id="line2d_3">
      <g>
       <use style="stroke:#000000;stroke-width:0.8;" x="602.624366" xlink:href="#m6ce7504390" y="2052.76"/>
      </g>
     </g>
     <g id="text_3">
      <text style="font-family:DejaVu Sans;font-size:10px;font-stretch:normal;font-style:normal;font-weight:normal;text-anchor:middle;" transform="rotate(-0, 602.624366, 2067.358438)" x="602.624366" y="2067.358438">50</text>
     </g>
    </g>
    <g id="xtick_4">
     <g id="line2d_4">
      <g>
       <use style="stroke:#000000;stroke-width:0.8;" x="852.358632" xlink:href="#m6ce7504390" y="2052.76"/>
      </g>
     </g>
     <g id="text_4">
      <text style="font-family:DejaVu Sans;font-size:10px;font-stretch:normal;font-style:normal;font-weight:normal;text-anchor:middle;" transform="rotate(-0, 852.358632, 2067.358438)" x="852.358632" y="2067.358438">60</text>
     </g>
    </g>
    <g id="xtick_5">
     <g id="line2d_5">
      <g>
       <use style="stroke:#000000;stroke-width:0.8;" x="1102.092898" xlink:href="#m6ce7504390" y="2052.76"/>
      </g>
     </g>
     <g id="text_5">
      <text style="font-family:DejaVu Sans;font-size:10px;font-stretch:normal;font-style:normal;font-weight:normal;text-anchor:middle;" transform="rotate(-0, 1102.092898, 2067.358438)" x="1102.092898" y="2067.358438">70</text>
     </g>
    </g>
    <g id="xtick_6">
     <g id="line2d_6">
      <g>
       <use style="stroke:#000000;stroke-width:0.8;" x="1351.827163" xlink:href="#m6ce7504390" y="2052.76"/>
      </g>
     </g>
     <g id="text_6">
      <text style="font-family:DejaVu Sans;font-size:10px;font-stretch:normal;font-style:normal;font-weight:normal;text-anchor:middle;" transform="rotate(-0, 1351.827163, 2067.358438)" x="1351.827163" y="2067.358438">80</text>
     </g>
    </g>
    <g id="xtick_7">
     <g id="line2d_7">
      <g>
       <use style="stroke:#000000;stroke-width:0.8;" x="1601.561429" xlink:href="#m6ce7504390" y="2052.76"/>
      </g>
     </g>
     <g id="text_7">
      <text style="font-family:DejaVu Sans;font-size:10px;font-stretch:normal;font-style:normal;font-weight:normal;text-anchor:middle;" transform="rotate(-0, 1601.561429, 2067.358438)" x="1601.561429" y="2067.358438">90</text>
     </g>
    </g>
    <g id="text_8">
     <text style="font-family:DejaVu Sans;font-size:10px;font-stretch:normal;font-style:normal;font-weight:normal;text-anchor:middle;" transform="rotate(-0, 939.765625, 2081.036562)" x="939.765625" y="2081.036562">humidity from OpenWeatherMap</text>
    </g>
   </g>
   <g id="matplotlib.axis_2">
    <g id="ytick_1">
     <g id="line2d_8">
      <defs>
       <path d="M 0 0 
L -3.5 0 
" id="mebb64e68eb" style="stroke:#000000;stroke-width:0.8;"/>
      </defs>
      <g>
       <use style="stroke:#000000;stroke-width:0.8;" x="46.965625" xlink:href="#mebb64e68eb" y="1996.013333"/>
      </g>
     </g>
     <g id="text_9">
      <text style="font-family:DejaVu Sans;font-size:10px;font-stretch:normal;font-style:normal;font-weight:normal;text-anchor:end;" transform="rotate(-0, 39.965625, 1999.812552)" x="39.965625" y="1999.812552">100</text>
     </g>
    </g>
    <g id="ytick_2">
     <g id="line2d_9">
      <g>
       <use style="stroke:#000000;stroke-width:0.8;" x="46.965625" xlink:href="#mebb64e68eb" y="1697.346667"/>
      </g>
     </g>
     <g id="text_10">
      <text style="font-family:DejaVu Sans;font-size:10px;font-stretch:normal;font-style:normal;font-weight:normal;text-anchor:end;" transform="rotate(-0, 39.965625, 1701.145885)" x="39.965625" y="1701.145885">150</text>
     </g>
    </g>
    <g id="ytick_3">
     <g id="line2d_10">
      <g>
       <use style="stroke:#000000;stroke-width:0.8;" x="46.965625" xlink:href="#mebb64e68eb" y="1398.68"/>
      </g>
     </g>
     <g id="text_11">
      <text style="font-family:DejaVu Sans;font-size:10px;font-stretch:normal;font-style:normal;font-weight:normal;text-anchor:end;" transform="rotate(-0, 39.965625, 1402.479219)" x="39.965625" y="1402.479219">200</text>
     </g>
    </g>
    <g id="ytick_4">
     <g id="line2d_11">
      <g>
       <use style="stroke:#000000;stroke-width:0.8;" x="46.965625" xlink:href="#mebb64e68eb" y="1100.013333"/>
      </g>
     </g>
     <g id="text_12">
      <text style="font-family:DejaVu Sans;font-size:10px;font-stretch:normal;font-style:normal;font-weight:normal;text-anchor:end;" transform="rotate(-0, 39.965625, 1103.812552)" x="39.965625" y="1103.812552">250</text>
     </g>
    </g>
    <g id="ytick_5">
     <g id="line2d_12">
      <g>
       <use style="stroke:#000000;stroke-width:0.8;" x="46.965625" xlink:href="#mebb64e68eb" y="801.346667"/>
      </g>
     </g>
     <g id="text_13">
      <text style="font-family:DejaVu Sans;font-size:10px;font-stretch:normal;font-style:normal;font-weight:normal;text-anchor:end;" transform="rotate(-0, 39.965625, 805.145885)" x="39.965625" y="805.145885">300</text>
     </g>
    </g>
    <g id="ytick_6">
     <g id="line2d_13">
      <g>
       <use style="stroke:#000000;stroke-width:0.8;" x="46.965625" xlink:href="#mebb64e68eb" y="502.68"/>
      </g>
     </g>
     <g id="text_14">
      <text style="font-family:DejaVu Sans;font-size:10px;font-stretch:normal;font-style:normal;font-weight:normal;text-anchor:end;" transform="rotate(-0, 39.965625, 506.479219)" x="39.965625" y="506.479219">350</text>
     </g>
    </g>
    <g id="text_15">
     <text style="font-family:DejaVu Sans;font-size:10px;font-stretch:normal;font-style:normal;font-weight:normal;text-anchor:middle;" transform="rotate(-90, 14.798437, 1165.72)" x="14.798437" y="1165.72">Retransmission[dimensionless]</text>
    </g>
   </g>
   <g id="line2d_14">
    <path clip-path="url(#p681f25bff9)" d="M 128.129261 962.626667 
L 153.102688 359.32 
L 277.969821 753.56 
L 302.943247 538.52 
L 327.916674 610.2 
L 352.890101 663.96 
L 377.863527 649.026667 
L 402.836954 914.84 
L 427.81038 950.68 
L 452.783807 1972.12 
L 477.757233 908.866667 
L 502.73066 759.533333 
L 527.704087 526.573333 
L 552.677513 711.746667 
L 577.65094 714.733333 
L 602.624366 657.986667 
L 627.597793 873.026667 
L 652.571219 640.066667 
L 677.544646 840.173333 
L 702.518073 920.813333 
L 727.491499 843.16 
L 752.464926 831.213333 
L 777.438352 837.186667 
L 802.411779 795.373333 
L 827.385205 831.213333 
L 852.358632 849.133333 
L 877.332059 858.093333 
L 902.305485 873.026667 
L 927.278912 920.813333 
L 952.252338 926.786667 
L 977.225765 876.013333 
L 1002.199191 861.08 
L 1027.172618 986.52 
L 1052.146045 926.786667 
L 1077.119471 914.84 
L 1102.092898 1034.306667 
L 1127.066324 896.92 
L 1152.039751 1034.306667 
L 1177.013177 879 
L 1201.986604 947.693333 
L 1226.960031 879 
L 1251.933457 1111.96 
L 1276.906884 932.76 
L 1301.88031 1010.413333 
L 1326.853737 1010.413333 
L 1351.827163 1058.2 
L 1376.80059 1055.213333 
L 1401.774017 1010.413333 
L 1426.747443 974.573333 
L 1451.72087 959.64 
L 1476.694296 1046.253333 
L 1501.667723 980.546667 
L 1526.641149 1338.946667 
L 1551.614576 1135.853333 
L 1576.588003 1126.893333 
L 1601.561429 1347.906667 
L 1626.534856 1034.306667 
L 1651.508282 1028.333333 
L 1676.481709 896.92 
L 1701.455135 1037.293333 
L 1726.428562 1123.906667 
L 1751.401989 831.213333 
" style="fill:none;stroke:#0000ff;stroke-linecap:square;stroke-width:1.5;"/>
   </g>
   <g id="patch_3">
    <path d="M 46.965625 2052.76 
L 46.965625 278.68 
" style="fill:none;stroke:#000000;stroke-linecap:square;stroke-linejoin:miter;stroke-width:0.8;"/>
   </g>
   <g id="patch_4">
    <path d="M 1832.565625 2052.76 
L 1832.565625 278.68 
" style="fill:none;stroke:#000000;stroke-linecap:square;stroke-linejoin:miter;stroke-width:0.8;"/>
   </g>
   <g id="patch_5">
    <path d="M 46.965625 2052.76 
L 1832.565625 2052.76 
" style="fill:none;stroke:#000000;stroke-linecap:square;stroke-linejoin:miter;stroke-width:0.8;"/>
   </g>
   <g id="patch_6">
    <path d="M 46.965625 278.68 
L 1832.565625 278.68 
" style="fill:none;stroke:#000000;stroke-linecap:square;stroke-linejoin:miter;stroke-width:0.8;"/>
   </g>
   <g id="text_16">
    <text style="font-family:DejaVu Sans;font-size:12px;font-stretch:normal;font-style:normal;font-weight:normal;text-anchor:middle;" transform="rotate(-0, 939.765625, 272.68)" x="939.765625" y="272.68">humidity-&gt;Retransmission</text>
   </g>
  </g>
  <g id="legend_1">
   <g id="patch_7">
    <path d="M 1870.68125 22.678125 
L 2058.165625 22.678125 
Q 2060.165625 22.678125 2060.165625 20.678125 
L 2060.165625 7 
Q 2060.165625 5 2058.165625 5 
L 1870.68125 5 
Q 1868.68125 5 1868.68125 7 
L 1868.68125 20.678125 
Q 1868.68125 22.678125 1870.68125 22.678125 
z
" style="fill:#ffffff;opacity:0.8;stroke:#cccccc;stroke-linejoin:miter;"/>
   </g>
   <g id="line2d_15">
    <path d="M 1872.68125 13.098437 
L 1892.68125 13.098437 
" style="fill:none;stroke:#0000ff;stroke-linecap:square;stroke-width:1.5;"/>
   </g>
   <g id="line2d_16"/>
   <g id="text_17">
    <text style="font-family:DejaVu Sans;font-size:10px;font-stretch:normal;font-style:normal;font-weight:normal;text-anchor:start;" transform="rotate(-0, 1900.68125, 16.598437)" x="1900.68125" y="16.598437">Retransmission[dimensionless]</text>
   </g>
  </g>
 </g>
 <defs>
  <clipPath id="p681f25bff9">
   <rect height="1774.08" width="1785.6" x="46.965625" y="278.68"/>
  </clipPath>
 </defs>
</svg>
