<?xml version="1.0" encoding="utf-8" standalone="no"?>
<!DOCTYPE svg PUBLIC "-//W3C//DTD SVG 1.1//EN"
  "http://www.w3.org/Graphics/SVG/1.1/DTD/svg11.dtd">
<!-- Created with matplotlib (https://matplotlib.org/) -->
<svg height="2090.31625pt" version="1.1" viewBox="0 0 2059.08125 2090.31625" width="2059.08125pt" xmlns="http://www.w3.org/2000/svg" xmlns:xlink="http://www.w3.org/1999/xlink">
 <metadata>
  <rdf:RDF xmlns:cc="http://creativecommons.org/ns#" xmlns:dc="http://purl.org/dc/elements/1.1/" xmlns:rdf="http://www.w3.org/1999/02/22-rdf-syntax-ns#">
   <cc:Work>
    <dc:type rdf:resource="http://purl.org/dc/dcmitype/StillImage"/>
    <dc:date>2022-07-24T11:34:34.910236</dc:date>
    <dc:format>image/svg+xml</dc:format>
    <dc:creator>
     <cc:Agent>
      <dc:title>Matplotlib v3.3.2, https://matplotlib.org/</dc:title>
     </cc:Agent>
    </dc:creator>
   </cc:Work>
  </rdf:RDF>
 </metadata>
 <defs>
  <style type="text/css">*{stroke-linecap:butt;stroke-linejoin:round;}</style>
 </defs>
 <g id="figure_1">
  <g id="patch_1">
   <path d="M 0 2090.31625 
L 2059.08125 2090.31625 
L 2059.08125 0 
L 0 0 
z
" style="fill:#ffffff;"/>
  </g>
  <g id="axes_1">
   <g id="patch_2">
    <path d="M 40.88125 2052.76 
L 1826.48125 2052.76 
L 1826.48125 278.68 
L 40.88125 278.68 
z
" style="fill:#ffffff;"/>
   </g>
   <g id="matplotlib.axis_1">
    <g id="xtick_1">
     <g id="line2d_1">
      <defs>
       <path d="M 0 0 
L 0 3.5 
" id="m60be5c0b1b" style="stroke:#000000;stroke-width:0.8;"/>
      </defs>
      <g>
       <use style="stroke:#000000;stroke-width:0.8;" x="128.264322" xlink:href="#m60be5c0b1b" y="2052.76"/>
      </g>
     </g>
     <g id="text_1">
      <text style="font-family:DejaVu Sans;font-size:10px;font-stretch:normal;font-style:normal;font-weight:normal;text-anchor:middle;" transform="rotate(-0, 128.264322, 2067.358438)" x="128.264322" y="2067.358438">5</text>
     </g>
    </g>
    <g id="xtick_2">
     <g id="line2d_2">
      <g>
       <use style="stroke:#000000;stroke-width:0.8;" x="439.236109" xlink:href="#m60be5c0b1b" y="2052.76"/>
      </g>
     </g>
     <g id="text_2">
      <text style="font-family:DejaVu Sans;font-size:10px;font-stretch:normal;font-style:normal;font-weight:normal;text-anchor:middle;" transform="rotate(-0, 439.236109, 2067.358438)" x="439.236109" y="2067.358438">10</text>
     </g>
    </g>
    <g id="xtick_3">
     <g id="line2d_3">
      <g>
       <use style="stroke:#000000;stroke-width:0.8;" x="750.207896" xlink:href="#m60be5c0b1b" y="2052.76"/>
      </g>
     </g>
     <g id="text_3">
      <text style="font-family:DejaVu Sans;font-size:10px;font-stretch:normal;font-style:normal;font-weight:normal;text-anchor:middle;" transform="rotate(-0, 750.207896, 2067.358438)" x="750.207896" y="2067.358438">15</text>
     </g>
    </g>
    <g id="xtick_4">
     <g id="line2d_4">
      <g>
       <use style="stroke:#000000;stroke-width:0.8;" x="1061.179683" xlink:href="#m60be5c0b1b" y="2052.76"/>
      </g>
     </g>
     <g id="text_4">
      <text style="font-family:DejaVu Sans;font-size:10px;font-stretch:normal;font-style:normal;font-weight:normal;text-anchor:middle;" transform="rotate(-0, 1061.179683, 2067.358438)" x="1061.179683" y="2067.358438">20</text>
     </g>
    </g>
    <g id="xtick_5">
     <g id="line2d_5">
      <g>
       <use style="stroke:#000000;stroke-width:0.8;" x="1372.151469" xlink:href="#m60be5c0b1b" y="2052.76"/>
      </g>
     </g>
     <g id="text_5">
      <text style="font-family:DejaVu Sans;font-size:10px;font-stretch:normal;font-style:normal;font-weight:normal;text-anchor:middle;" transform="rotate(-0, 1372.151469, 2067.358438)" x="1372.151469" y="2067.358438">25</text>
     </g>
    </g>
    <g id="xtick_6">
     <g id="line2d_6">
      <g>
       <use style="stroke:#000000;stroke-width:0.8;" x="1683.123256" xlink:href="#m60be5c0b1b" y="2052.76"/>
      </g>
     </g>
     <g id="text_6">
      <text style="font-family:DejaVu Sans;font-size:10px;font-stretch:normal;font-style:normal;font-weight:normal;text-anchor:middle;" transform="rotate(-0, 1683.123256, 2067.358438)" x="1683.123256" y="2067.358438">30</text>
     </g>
    </g>
    <g id="text_7">
     <text style="font-family:DejaVu Sans;font-size:10px;font-stretch:normal;font-style:normal;font-weight:normal;text-anchor:middle;" transform="rotate(-0, 933.68125, 2081.036562)" x="933.68125" y="2081.036562">temperature from BuienRadar</text>
    </g>
   </g>
   <g id="matplotlib.axis_2">
    <g id="ytick_1">
     <g id="line2d_7">
      <defs>
       <path d="M 0 0 
L -3.5 0 
" id="mb0759e39df" style="stroke:#000000;stroke-width:0.8;"/>
      </defs>
      <g>
       <use style="stroke:#000000;stroke-width:0.8;" x="40.88125" xlink:href="#mb0759e39df" y="1888.978357"/>
      </g>
     </g>
     <g id="text_8">
      <text style="font-family:DejaVu Sans;font-size:10px;font-stretch:normal;font-style:normal;font-weight:normal;text-anchor:end;" transform="rotate(-0, 33.88125, 1892.777575)" x="33.88125" y="1892.777575">6</text>
     </g>
    </g>
    <g id="ytick_2">
     <g id="line2d_8">
      <g>
       <use style="stroke:#000000;stroke-width:0.8;" x="40.88125" xlink:href="#mb0759e39df" y="1560.355261"/>
      </g>
     </g>
     <g id="text_9">
      <text style="font-family:DejaVu Sans;font-size:10px;font-stretch:normal;font-style:normal;font-weight:normal;text-anchor:end;" transform="rotate(-0, 33.88125, 1564.154479)" x="33.88125" y="1564.154479">8</text>
     </g>
    </g>
    <g id="ytick_3">
     <g id="line2d_9">
      <g>
       <use style="stroke:#000000;stroke-width:0.8;" x="40.88125" xlink:href="#mb0759e39df" y="1231.732164"/>
      </g>
     </g>
     <g id="text_10">
      <text style="font-family:DejaVu Sans;font-size:10px;font-stretch:normal;font-style:normal;font-weight:normal;text-anchor:end;" transform="rotate(-0, 33.88125, 1235.531383)" x="33.88125" y="1235.531383">10</text>
     </g>
    </g>
    <g id="ytick_4">
     <g id="line2d_10">
      <g>
       <use style="stroke:#000000;stroke-width:0.8;" x="40.88125" xlink:href="#mb0759e39df" y="903.109068"/>
      </g>
     </g>
     <g id="text_11">
      <text style="font-family:DejaVu Sans;font-size:10px;font-stretch:normal;font-style:normal;font-weight:normal;text-anchor:end;" transform="rotate(-0, 33.88125, 906.908287)" x="33.88125" y="906.908287">12</text>
     </g>
    </g>
    <g id="ytick_5">
     <g id="line2d_11">
      <g>
       <use style="stroke:#000000;stroke-width:0.8;" x="40.88125" xlink:href="#mb0759e39df" y="574.485972"/>
      </g>
     </g>
     <g id="text_12">
      <text style="font-family:DejaVu Sans;font-size:10px;font-stretch:normal;font-style:normal;font-weight:normal;text-anchor:end;" transform="rotate(-0, 33.88125, 578.285191)" x="33.88125" y="578.285191">14</text>
     </g>
    </g>
    <g id="text_13">
     <text style="font-family:DejaVu Sans;font-size:10px;font-stretch:normal;font-style:normal;font-weight:normal;text-anchor:middle;" transform="rotate(-90, 14.798438, 1165.72)" x="14.798438" y="1165.72">ping_day[ms]</text>
    </g>
   </g>
   <g id="line2d_12">
    <path clip-path="url(#pe2d8d38c33)" d="M 122.044886 1840.013515 
L 140.703194 1891.935965 
L 146.922629 1817.749301 
L 153.142065 1829.990511 
L 159.361501 1866.056896 
L 165.580937 1811.094683 
L 171.800372 1808.547854 
L 178.019808 1487.729556 
L 184.239244 1823.746672 
L 190.458679 1759.82948 
L 202.897551 1768.045057 
L 209.116987 1800.250121 
L 215.336422 1854.637243 
L 227.775294 1790.473584 
L 233.99473 1840.424294 
L 240.214165 1906.231069 
L 246.433601 1814.298758 
L 252.653037 1811.834085 
L 258.872473 1921.512043 
L 265.091908 1857.430539 
L 271.311344 1750.381566 
L 277.53078 1822.925114 
L 283.750216 1719.408839 
L 289.969651 1723.680939 
L 296.189087 1846.585977 
L 302.408523 359.32 
L 308.627958 1794.334905 
L 314.847394 1735.182748 
L 321.06683 1791.70592 
L 327.286266 1674.962565 
L 333.505701 1774.288896 
L 339.725137 1487.400933 
L 345.944573 1825.14332 
L 352.164009 1756.214626 
L 358.383444 1770.920509 
L 364.60288 1733.046698 
L 370.822316 1757.857741 
L 377.041752 1825.061164 
L 383.261187 1631.748628 
L 389.480623 1701.170257 
L 395.700059 1685.971439 
L 401.919495 1599.954344 
L 408.13893 1804.604377 
L 414.358366 1813.723668 
L 420.577802 1790.720051 
L 426.797237 1780.532735 
L 433.016673 1756.214626 
L 439.236109 1713.165 
L 445.455545 1778.068062 
L 451.67498 1776.753569 
L 457.894416 1769.688173 
L 464.113852 1740.76934 
L 470.333288 1767.387811 
L 476.552723 1685.971439 
L 482.772159 1627.558684 
L 488.991595 1718.751593 
L 495.211031 1696.240911 
L 501.430466 1655.163024 
L 507.649902 1642.100256 
L 513.869338 1817.502833 
L 520.088774 1808.876477 
L 526.308209 1695.912288 
L 532.527645 1759.172234 
L 538.747081 1660.749616 
L 544.966516 1749.806475 
L 551.185952 1769.030927 
L 557.405388 1708.071342 
L 563.624824 1788.173222 
L 569.844259 1750.956656 
L 576.063695 1784.147589 
L 582.283131 1790.720051 
L 588.502567 1765.909007 
L 594.722002 1788.748312 
L 600.941438 1701.909659 
L 607.160874 1662.392732 
L 613.38031 1699.034207 
L 619.599745 1761.801218 
L 625.819181 1669.293817 
L 632.038617 1560.519572 
L 638.258053 1797.374669 
L 644.477488 1772.152846 
L 650.696924 1819.145949 
L 656.91636 1740.522873 
L 663.135795 1677.509394 
L 669.355231 1719.080216 
L 675.574667 1687.285931 
L 681.794103 1652.780506 
L 688.013538 1722.037824 
L 694.232974 1707.578408 
L 700.45241 1622.629337 
L 706.671846 1726.638547 
L 712.891281 1724.173874 
L 719.110717 1697.22678 
L 725.330153 1739.290536 
L 731.549589 1745.780843 
L 737.769024 1735.347059 
L 743.98846 1694.104861 
L 750.207896 1710.536015 
L 756.427332 1697.391092 
L 762.646767 1735.839994 
L 768.866203 1736.661552 
L 775.085639 1665.021717 
L 781.305074 1725.981301 
L 787.52451 1722.859382 
L 793.743946 1709.960925 
L 799.963382 1716.779854 
L 806.182817 1745.370064 
L 812.402253 1732.142984 
L 818.621689 1732.389451 
L 824.841125 1679.809756 
L 831.06056 1710.618171 
L 837.279996 1725.981301 
L 843.499432 1746.02731 
L 849.718868 1727.788728 
L 855.938303 1748.16336 
L 862.157739 1733.211009 
L 868.377175 1754.57151 
L 874.596611 1733.211009 
L 880.816046 1716.615543 
L 887.035482 1723.352316 
L 893.254918 1728.445974 
L 899.474353 1703.963554 
L 905.693789 1728.610286 
L 911.913225 1726.474236 
L 924.352096 1761.472595 
L 930.571532 1708.399965 
L 936.790968 1726.309924 
L 943.010404 1734.854125 
L 949.229839 1756.871872 
L 955.449275 1697.555403 
L 961.668711 1786.776574 
L 967.888147 1756.214626 
L 974.107582 1824.075295 
L 980.327018 1756.296782 
L 986.546454 1749.642164 
L 992.765889 1735.264903 
L 998.985325 1759.500857 
L 1005.204761 1775.274765 
L 1011.424197 1720.887643 
L 1017.643632 1748.984918 
L 1023.863068 1748.984918 
L 1030.082504 1772.152846 
L 1036.30194 1750.628033 
L 1042.521375 1764.10158 
L 1048.740811 1760.651038 
L 1054.960247 1720.394708 
L 1061.179683 1762.622776 
L 1067.399118 1746.684556 
L 1073.618554 1740.605029 
L 1079.83799 1742.494612 
L 1086.057426 1748.984918 
L 1092.276861 1722.530758 
L 1098.496297 1733.046698 
L 1104.715733 1784.476212 
L 1110.935168 1720.723331 
L 1117.154604 1680.795625 
L 1123.37404 1718.751593 
L 1129.593476 1719.162372 
L 1135.812911 1750.135099 
L 1142.032347 1754.57151 
L 1148.251783 1743.398325 
L 1154.471219 1565.120295 
L 1160.690654 1735.839994 
L 1166.91009 1761.801218 
L 1173.129526 1767.387811 
L 1179.348962 1777.90375 
L 1185.568397 1697.719715 
L 1191.787833 1702.813373 
L 1198.007269 1737.647421 
L 1204.226705 1793.349036 
L 1210.44614 1768.866615 
L 1216.665576 1765.251761 
L 1222.885012 1700.513011 
L 1229.104447 1778.889619 
L 1235.323883 1763.772957 
L 1241.543319 1793.677659 
L 1247.762755 1809.287256 
L 1253.98219 1757.200495 
L 1260.201626 1725.488366 
L 1266.421062 1840.342138 
L 1272.640498 1761.96553 
L 1278.859933 1766.730565 
L 1285.079369 1783.901122 
L 1291.298805 1809.615879 
L 1297.518241 1806.49396 
L 1303.737676 1777.739439 
L 1309.957112 1706.017448 
L 1316.176548 1793.020413 
L 1322.395984 1809.2051 
L 1328.615419 1804.850844 
L 1334.834855 1759.993791 
L 1341.054291 1778.725308 
L 1347.273726 1748.081204 
L 1353.493162 1704.374332 
L 1359.712598 1763.280022 
L 1365.932034 1777.821594 
L 1372.151469 1769.523861 
L 1378.370905 1790.555739 
L 1384.590341 1737.400954 
L 1390.809777 1775.849856 
L 1397.029212 1833.441053 
L 1403.248648 1815.531095 
L 1409.468084 1723.598784 
L 1415.68752 1787.269508 
L 1421.906955 1789.898493 
L 1428.126391 1720.723331 
L 1434.345827 1821.117687 
L 1440.565263 1787.926755 
L 1446.784698 1804.029286 
L 1453.004134 1787.023041 
L 1459.22357 1744.055571 
L 1465.443005 1770.756198 
L 1471.662441 1743.151858 
L 1477.881877 1762.869244 
L 1484.101313 1792.856101 
L 1490.320748 1715.218895 
L 1496.540184 899.658526 
L 1502.75962 1799.264251 
L 1508.979056 1765.087449 
L 1533.856799 1711.193262 
L 1540.076234 1832.290873 
L 1564.953977 1799.757186 
L 1571.173413 1859.402278 
L 1583.612284 1891.771653 
L 1589.83172 1645.71511 
L 1602.270592 1829.086797 
L 1608.490027 1808.794321 
L 1639.587206 1871.8078 
L 1652.026078 1879.530443 
L 1658.245513 1972.12 
L 1664.464949 1757.857741 
L 1683.123256 1777.90375 
L 1689.342692 1756.871872 
L 1695.562128 1520.50971 
L 1701.781563 1729.431844 
L 1714.220435 1900.069386 
L 1720.439871 1761.636907 
L 1726.659306 1886.595839 
L 1732.878742 1774.535363 
L 1739.098178 1900.808788 
L 1745.317614 1841.328008 
L 1745.317614 1841.328008 
" style="fill:none;stroke:#0000ff;stroke-linecap:square;stroke-width:1.5;"/>
   </g>
   <g id="patch_3">
    <path d="M 40.88125 2052.76 
L 40.88125 278.68 
" style="fill:none;stroke:#000000;stroke-linecap:square;stroke-linejoin:miter;stroke-width:0.8;"/>
   </g>
   <g id="patch_4">
    <path d="M 1826.48125 2052.76 
L 1826.48125 278.68 
" style="fill:none;stroke:#000000;stroke-linecap:square;stroke-linejoin:miter;stroke-width:0.8;"/>
   </g>
   <g id="patch_5">
    <path d="M 40.88125 2052.76 
L 1826.48125 2052.76 
" style="fill:none;stroke:#000000;stroke-linecap:square;stroke-linejoin:miter;stroke-width:0.8;"/>
   </g>
   <g id="patch_6">
    <path d="M 40.88125 278.68 
L 1826.48125 278.68 
" style="fill:none;stroke:#000000;stroke-linecap:square;stroke-linejoin:miter;stroke-width:0.8;"/>
   </g>
   <g id="text_14">
    <text style="font-family:DejaVu Sans;font-size:12px;font-stretch:normal;font-style:normal;font-weight:normal;text-anchor:middle;" transform="rotate(-0, 933.68125, 272.68)" x="933.68125" y="272.68">temperature-&gt;ping_day</text>
   </g>
  </g>
  <g id="legend_1">
   <g id="patch_7">
    <path d="M 1952.120312 22.95625 
L 2052.08125 22.95625 
Q 2054.08125 22.95625 2054.08125 20.95625 
L 2054.08125 7 
Q 2054.08125 5 2052.08125 5 
L 1952.120312 5 
Q 1950.120312 5 1950.120312 7 
L 1950.120312 20.95625 
Q 1950.120312 22.95625 1952.120312 22.95625 
z
" style="fill:#ffffff;opacity:0.8;stroke:#cccccc;stroke-linejoin:miter;"/>
   </g>
   <g id="line2d_13">
    <path d="M 1954.120312 13.098438 
L 1974.120312 13.098438 
" style="fill:none;stroke:#0000ff;stroke-linecap:square;stroke-width:1.5;"/>
   </g>
   <g id="line2d_14"/>
   <g id="text_15">
    <text style="font-family:DejaVu Sans;font-size:10px;font-stretch:normal;font-style:normal;font-weight:normal;text-anchor:start;" transform="rotate(-0, 1982.120312, 16.598438)" x="1982.120312" y="16.598438">ping_day[ms]</text>
   </g>
  </g>
 </g>
 <defs>
  <clipPath id="pe2d8d38c33">
   <rect height="1774.08" width="1785.6" x="40.88125" y="278.68"/>
  </clipPath>
 </defs>
</svg>
