<?xml version="1.0" encoding="utf-8" standalone="no"?>
<!DOCTYPE svg PUBLIC "-//W3C//DTD SVG 1.1//EN"
  "http://www.w3.org/Graphics/SVG/1.1/DTD/svg11.dtd">
<!-- Created with matplotlib (https://matplotlib.org/) -->
<svg height="345.6pt" version="1.1" viewBox="0 0 460.8 345.6" width="460.8pt" xmlns="http://www.w3.org/2000/svg" xmlns:xlink="http://www.w3.org/1999/xlink">
 <metadata>
  <rdf:RDF xmlns:cc="http://creativecommons.org/ns#" xmlns:dc="http://purl.org/dc/elements/1.1/" xmlns:rdf="http://www.w3.org/1999/02/22-rdf-syntax-ns#">
   <cc:Work>
    <dc:type rdf:resource="http://purl.org/dc/dcmitype/StillImage"/>
    <dc:date>2022-07-16T22:13:45.360800</dc:date>
    <dc:format>image/svg+xml</dc:format>
    <dc:creator>
     <cc:Agent>
      <dc:title>Matplotlib v3.3.2, https://matplotlib.org/</dc:title>
     </cc:Agent>
    </dc:creator>
   </cc:Work>
  </rdf:RDF>
 </metadata>
 <defs>
  <style type="text/css">*{stroke-linecap:butt;stroke-linejoin:round;}</style>
 </defs>
 <g id="figure_1">
  <g id="patch_1">
   <path d="M 0 345.6 
L 460.8 345.6 
L 460.8 0 
L 0 0 
z
" style="fill:#ffffff;"/>
  </g>
  <g id="axes_1">
   <g id="patch_2">
    <path d="M 57.6 307.584 
L 414.72 307.584 
L 414.72 41.472 
L 57.6 41.472 
z
" style="fill:#ffffff;"/>
   </g>
   <g id="matplotlib.axis_1">
    <g id="xtick_1">
     <g id="line2d_1">
      <defs>
       <path d="M 0 0 
L 0 3.5 
" id="m1ae1271bd0" style="stroke:#000000;stroke-width:0.8;"/>
      </defs>
      <g>
       <use style="stroke:#000000;stroke-width:0.8;" x="63.114633" xlink:href="#m1ae1271bd0" y="307.584"/>
      </g>
     </g>
     <g id="text_1">
      <!-- 1005.0 -->
      <g transform="translate(45.61932 322.182437)scale(0.1 -0.1)">
       <defs>
        <path d="M 12.40625 8.296875 
L 28.515625 8.296875 
L 28.515625 63.921875 
L 10.984375 60.40625 
L 10.984375 69.390625 
L 28.421875 72.90625 
L 38.28125 72.90625 
L 38.28125 8.296875 
L 54.390625 8.296875 
L 54.390625 0 
L 12.40625 0 
z
" id="DejaVuSans-49"/>
        <path d="M 31.78125 66.40625 
Q 24.171875 66.40625 20.328125 58.90625 
Q 16.5 51.421875 16.5 36.375 
Q 16.5 21.390625 20.328125 13.890625 
Q 24.171875 6.390625 31.78125 6.390625 
Q 39.453125 6.390625 43.28125 13.890625 
Q 47.125 21.390625 47.125 36.375 
Q 47.125 51.421875 43.28125 58.90625 
Q 39.453125 66.40625 31.78125 66.40625 
z
M 31.78125 74.21875 
Q 44.046875 74.21875 50.515625 64.515625 
Q 56.984375 54.828125 56.984375 36.375 
Q 56.984375 17.96875 50.515625 8.265625 
Q 44.046875 -1.421875 31.78125 -1.421875 
Q 19.53125 -1.421875 13.0625 8.265625 
Q 6.59375 17.96875 6.59375 36.375 
Q 6.59375 54.828125 13.0625 64.515625 
Q 19.53125 74.21875 31.78125 74.21875 
z
" id="DejaVuSans-48"/>
        <path d="M 10.796875 72.90625 
L 49.515625 72.90625 
L 49.515625 64.59375 
L 19.828125 64.59375 
L 19.828125 46.734375 
Q 21.96875 47.46875 24.109375 47.828125 
Q 26.265625 48.1875 28.421875 48.1875 
Q 40.625 48.1875 47.75 41.5 
Q 54.890625 34.8125 54.890625 23.390625 
Q 54.890625 11.625 47.5625 5.09375 
Q 40.234375 -1.421875 26.90625 -1.421875 
Q 22.3125 -1.421875 17.546875 -0.640625 
Q 12.796875 0.140625 7.71875 1.703125 
L 7.71875 11.625 
Q 12.109375 9.234375 16.796875 8.0625 
Q 21.484375 6.890625 26.703125 6.890625 
Q 35.15625 6.890625 40.078125 11.328125 
Q 45.015625 15.765625 45.015625 23.390625 
Q 45.015625 31 40.078125 35.4375 
Q 35.15625 39.890625 26.703125 39.890625 
Q 22.75 39.890625 18.8125 39.015625 
Q 14.890625 38.140625 10.796875 36.28125 
z
" id="DejaVuSans-53"/>
        <path d="M 10.6875 12.40625 
L 21 12.40625 
L 21 0 
L 10.6875 0 
z
" id="DejaVuSans-46"/>
       </defs>
       <use xlink:href="#DejaVuSans-49"/>
       <use x="63.623047" xlink:href="#DejaVuSans-48"/>
       <use x="127.246094" xlink:href="#DejaVuSans-48"/>
       <use x="190.869141" xlink:href="#DejaVuSans-53"/>
       <use x="254.492188" xlink:href="#DejaVuSans-46"/>
       <use x="286.279297" xlink:href="#DejaVuSans-48"/>
      </g>
     </g>
    </g>
    <g id="xtick_2">
     <g id="line2d_2">
      <g>
       <use style="stroke:#000000;stroke-width:0.8;" x="106.332756" xlink:href="#m1ae1271bd0" y="307.584"/>
      </g>
     </g>
     <g id="text_2">
      <!-- 1007.5 -->
      <g transform="translate(88.837444 322.182437)scale(0.1 -0.1)">
       <defs>
        <path d="M 8.203125 72.90625 
L 55.078125 72.90625 
L 55.078125 68.703125 
L 28.609375 0 
L 18.3125 0 
L 43.21875 64.59375 
L 8.203125 64.59375 
z
" id="DejaVuSans-55"/>
       </defs>
       <use xlink:href="#DejaVuSans-49"/>
       <use x="63.623047" xlink:href="#DejaVuSans-48"/>
       <use x="127.246094" xlink:href="#DejaVuSans-48"/>
       <use x="190.869141" xlink:href="#DejaVuSans-55"/>
       <use x="254.492188" xlink:href="#DejaVuSans-46"/>
       <use x="286.279297" xlink:href="#DejaVuSans-53"/>
      </g>
     </g>
    </g>
    <g id="xtick_3">
     <g id="line2d_3">
      <g>
       <use style="stroke:#000000;stroke-width:0.8;" x="149.55088" xlink:href="#m1ae1271bd0" y="307.584"/>
      </g>
     </g>
     <g id="text_3">
      <!-- 1010.0 -->
      <g transform="translate(132.055568 322.182437)scale(0.1 -0.1)">
       <use xlink:href="#DejaVuSans-49"/>
       <use x="63.623047" xlink:href="#DejaVuSans-48"/>
       <use x="127.246094" xlink:href="#DejaVuSans-49"/>
       <use x="190.869141" xlink:href="#DejaVuSans-48"/>
       <use x="254.492188" xlink:href="#DejaVuSans-46"/>
       <use x="286.279297" xlink:href="#DejaVuSans-48"/>
      </g>
     </g>
    </g>
    <g id="xtick_4">
     <g id="line2d_4">
      <g>
       <use style="stroke:#000000;stroke-width:0.8;" x="192.769004" xlink:href="#m1ae1271bd0" y="307.584"/>
      </g>
     </g>
     <g id="text_4">
      <!-- 1012.5 -->
      <g transform="translate(175.273691 322.182437)scale(0.1 -0.1)">
       <defs>
        <path d="M 19.1875 8.296875 
L 53.609375 8.296875 
L 53.609375 0 
L 7.328125 0 
L 7.328125 8.296875 
Q 12.9375 14.109375 22.625 23.890625 
Q 32.328125 33.6875 34.8125 36.53125 
Q 39.546875 41.84375 41.421875 45.53125 
Q 43.3125 49.21875 43.3125 52.78125 
Q 43.3125 58.59375 39.234375 62.25 
Q 35.15625 65.921875 28.609375 65.921875 
Q 23.96875 65.921875 18.8125 64.3125 
Q 13.671875 62.703125 7.8125 59.421875 
L 7.8125 69.390625 
Q 13.765625 71.78125 18.9375 73 
Q 24.125 74.21875 28.421875 74.21875 
Q 39.75 74.21875 46.484375 68.546875 
Q 53.21875 62.890625 53.21875 53.421875 
Q 53.21875 48.921875 51.53125 44.890625 
Q 49.859375 40.875 45.40625 35.40625 
Q 44.1875 33.984375 37.640625 27.21875 
Q 31.109375 20.453125 19.1875 8.296875 
z
" id="DejaVuSans-50"/>
       </defs>
       <use xlink:href="#DejaVuSans-49"/>
       <use x="63.623047" xlink:href="#DejaVuSans-48"/>
       <use x="127.246094" xlink:href="#DejaVuSans-49"/>
       <use x="190.869141" xlink:href="#DejaVuSans-50"/>
       <use x="254.492188" xlink:href="#DejaVuSans-46"/>
       <use x="286.279297" xlink:href="#DejaVuSans-53"/>
      </g>
     </g>
    </g>
    <g id="xtick_5">
     <g id="line2d_5">
      <g>
       <use style="stroke:#000000;stroke-width:0.8;" x="235.987128" xlink:href="#m1ae1271bd0" y="307.584"/>
      </g>
     </g>
     <g id="text_5">
      <!-- 1015.0 -->
      <g transform="translate(218.491815 322.182437)scale(0.1 -0.1)">
       <use xlink:href="#DejaVuSans-49"/>
       <use x="63.623047" xlink:href="#DejaVuSans-48"/>
       <use x="127.246094" xlink:href="#DejaVuSans-49"/>
       <use x="190.869141" xlink:href="#DejaVuSans-53"/>
       <use x="254.492188" xlink:href="#DejaVuSans-46"/>
       <use x="286.279297" xlink:href="#DejaVuSans-48"/>
      </g>
     </g>
    </g>
    <g id="xtick_6">
     <g id="line2d_6">
      <g>
       <use style="stroke:#000000;stroke-width:0.8;" x="279.205251" xlink:href="#m1ae1271bd0" y="307.584"/>
      </g>
     </g>
     <g id="text_6">
      <!-- 1017.5 -->
      <g transform="translate(261.709939 322.182437)scale(0.1 -0.1)">
       <use xlink:href="#DejaVuSans-49"/>
       <use x="63.623047" xlink:href="#DejaVuSans-48"/>
       <use x="127.246094" xlink:href="#DejaVuSans-49"/>
       <use x="190.869141" xlink:href="#DejaVuSans-55"/>
       <use x="254.492188" xlink:href="#DejaVuSans-46"/>
       <use x="286.279297" xlink:href="#DejaVuSans-53"/>
      </g>
     </g>
    </g>
    <g id="xtick_7">
     <g id="line2d_7">
      <g>
       <use style="stroke:#000000;stroke-width:0.8;" x="322.423375" xlink:href="#m1ae1271bd0" y="307.584"/>
      </g>
     </g>
     <g id="text_7">
      <!-- 1020.0 -->
      <g transform="translate(304.928062 322.182437)scale(0.1 -0.1)">
       <use xlink:href="#DejaVuSans-49"/>
       <use x="63.623047" xlink:href="#DejaVuSans-48"/>
       <use x="127.246094" xlink:href="#DejaVuSans-50"/>
       <use x="190.869141" xlink:href="#DejaVuSans-48"/>
       <use x="254.492188" xlink:href="#DejaVuSans-46"/>
       <use x="286.279297" xlink:href="#DejaVuSans-48"/>
      </g>
     </g>
    </g>
    <g id="xtick_8">
     <g id="line2d_8">
      <g>
       <use style="stroke:#000000;stroke-width:0.8;" x="365.641499" xlink:href="#m1ae1271bd0" y="307.584"/>
      </g>
     </g>
     <g id="text_8">
      <!-- 1022.5 -->
      <g transform="translate(348.146186 322.182437)scale(0.1 -0.1)">
       <use xlink:href="#DejaVuSans-49"/>
       <use x="63.623047" xlink:href="#DejaVuSans-48"/>
       <use x="127.246094" xlink:href="#DejaVuSans-50"/>
       <use x="190.869141" xlink:href="#DejaVuSans-50"/>
       <use x="254.492188" xlink:href="#DejaVuSans-46"/>
       <use x="286.279297" xlink:href="#DejaVuSans-53"/>
      </g>
     </g>
    </g>
    <g id="xtick_9">
     <g id="line2d_9">
      <g>
       <use style="stroke:#000000;stroke-width:0.8;" x="408.859622" xlink:href="#m1ae1271bd0" y="307.584"/>
      </g>
     </g>
     <g id="text_9">
      <!-- 1025.0 -->
      <g transform="translate(391.36431 322.182437)scale(0.1 -0.1)">
       <use xlink:href="#DejaVuSans-49"/>
       <use x="63.623047" xlink:href="#DejaVuSans-48"/>
       <use x="127.246094" xlink:href="#DejaVuSans-50"/>
       <use x="190.869141" xlink:href="#DejaVuSans-53"/>
       <use x="254.492188" xlink:href="#DejaVuSans-46"/>
       <use x="286.279297" xlink:href="#DejaVuSans-48"/>
      </g>
     </g>
    </g>
    <g id="text_10">
     <!-- air_pressure from Foreca -->
     <g transform="translate(174.162344 335.860562)scale(0.1 -0.1)">
      <defs>
       <path d="M 34.28125 27.484375 
Q 23.390625 27.484375 19.1875 25 
Q 14.984375 22.515625 14.984375 16.5 
Q 14.984375 11.71875 18.140625 8.90625 
Q 21.296875 6.109375 26.703125 6.109375 
Q 34.1875 6.109375 38.703125 11.40625 
Q 43.21875 16.703125 43.21875 25.484375 
L 43.21875 27.484375 
z
M 52.203125 31.203125 
L 52.203125 0 
L 43.21875 0 
L 43.21875 8.296875 
Q 40.140625 3.328125 35.546875 0.953125 
Q 30.953125 -1.421875 24.3125 -1.421875 
Q 15.921875 -1.421875 10.953125 3.296875 
Q 6 8.015625 6 15.921875 
Q 6 25.140625 12.171875 29.828125 
Q 18.359375 34.515625 30.609375 34.515625 
L 43.21875 34.515625 
L 43.21875 35.40625 
Q 43.21875 41.609375 39.140625 45 
Q 35.0625 48.390625 27.6875 48.390625 
Q 23 48.390625 18.546875 47.265625 
Q 14.109375 46.140625 10.015625 43.890625 
L 10.015625 52.203125 
Q 14.9375 54.109375 19.578125 55.046875 
Q 24.21875 56 28.609375 56 
Q 40.484375 56 46.34375 49.84375 
Q 52.203125 43.703125 52.203125 31.203125 
z
" id="DejaVuSans-97"/>
       <path d="M 9.421875 54.6875 
L 18.40625 54.6875 
L 18.40625 0 
L 9.421875 0 
z
M 9.421875 75.984375 
L 18.40625 75.984375 
L 18.40625 64.59375 
L 9.421875 64.59375 
z
" id="DejaVuSans-105"/>
       <path d="M 41.109375 46.296875 
Q 39.59375 47.171875 37.8125 47.578125 
Q 36.03125 48 33.890625 48 
Q 26.265625 48 22.1875 43.046875 
Q 18.109375 38.09375 18.109375 28.8125 
L 18.109375 0 
L 9.078125 0 
L 9.078125 54.6875 
L 18.109375 54.6875 
L 18.109375 46.1875 
Q 20.953125 51.171875 25.484375 53.578125 
Q 30.03125 56 36.53125 56 
Q 37.453125 56 38.578125 55.875 
Q 39.703125 55.765625 41.0625 55.515625 
z
" id="DejaVuSans-114"/>
       <path d="M 50.984375 -16.609375 
L 50.984375 -23.578125 
L -0.984375 -23.578125 
L -0.984375 -16.609375 
z
" id="DejaVuSans-95"/>
       <path d="M 18.109375 8.203125 
L 18.109375 -20.796875 
L 9.078125 -20.796875 
L 9.078125 54.6875 
L 18.109375 54.6875 
L 18.109375 46.390625 
Q 20.953125 51.265625 25.265625 53.625 
Q 29.59375 56 35.59375 56 
Q 45.5625 56 51.78125 48.09375 
Q 58.015625 40.1875 58.015625 27.296875 
Q 58.015625 14.40625 51.78125 6.484375 
Q 45.5625 -1.421875 35.59375 -1.421875 
Q 29.59375 -1.421875 25.265625 0.953125 
Q 20.953125 3.328125 18.109375 8.203125 
z
M 48.6875 27.296875 
Q 48.6875 37.203125 44.609375 42.84375 
Q 40.53125 48.484375 33.40625 48.484375 
Q 26.265625 48.484375 22.1875 42.84375 
Q 18.109375 37.203125 18.109375 27.296875 
Q 18.109375 17.390625 22.1875 11.75 
Q 26.265625 6.109375 33.40625 6.109375 
Q 40.53125 6.109375 44.609375 11.75 
Q 48.6875 17.390625 48.6875 27.296875 
z
" id="DejaVuSans-112"/>
       <path d="M 56.203125 29.59375 
L 56.203125 25.203125 
L 14.890625 25.203125 
Q 15.484375 15.921875 20.484375 11.0625 
Q 25.484375 6.203125 34.421875 6.203125 
Q 39.59375 6.203125 44.453125 7.46875 
Q 49.3125 8.734375 54.109375 11.28125 
L 54.109375 2.78125 
Q 49.265625 0.734375 44.1875 -0.34375 
Q 39.109375 -1.421875 33.890625 -1.421875 
Q 20.796875 -1.421875 13.15625 6.1875 
Q 5.515625 13.8125 5.515625 26.8125 
Q 5.515625 40.234375 12.765625 48.109375 
Q 20.015625 56 32.328125 56 
Q 43.359375 56 49.78125 48.890625 
Q 56.203125 41.796875 56.203125 29.59375 
z
M 47.21875 32.234375 
Q 47.125 39.59375 43.09375 43.984375 
Q 39.0625 48.390625 32.421875 48.390625 
Q 24.90625 48.390625 20.390625 44.140625 
Q 15.875 39.890625 15.1875 32.171875 
z
" id="DejaVuSans-101"/>
       <path d="M 44.28125 53.078125 
L 44.28125 44.578125 
Q 40.484375 46.53125 36.375 47.5 
Q 32.28125 48.484375 27.875 48.484375 
Q 21.1875 48.484375 17.84375 46.4375 
Q 14.5 44.390625 14.5 40.28125 
Q 14.5 37.15625 16.890625 35.375 
Q 19.28125 33.59375 26.515625 31.984375 
L 29.59375 31.296875 
Q 39.15625 29.25 43.1875 25.515625 
Q 47.21875 21.78125 47.21875 15.09375 
Q 47.21875 7.46875 41.1875 3.015625 
Q 35.15625 -1.421875 24.609375 -1.421875 
Q 20.21875 -1.421875 15.453125 -0.5625 
Q 10.6875 0.296875 5.421875 2 
L 5.421875 11.28125 
Q 10.40625 8.6875 15.234375 7.390625 
Q 20.0625 6.109375 24.8125 6.109375 
Q 31.15625 6.109375 34.5625 8.28125 
Q 37.984375 10.453125 37.984375 14.40625 
Q 37.984375 18.0625 35.515625 20.015625 
Q 33.0625 21.96875 24.703125 23.78125 
L 21.578125 24.515625 
Q 13.234375 26.265625 9.515625 29.90625 
Q 5.8125 33.546875 5.8125 39.890625 
Q 5.8125 47.609375 11.28125 51.796875 
Q 16.75 56 26.8125 56 
Q 31.78125 56 36.171875 55.265625 
Q 40.578125 54.546875 44.28125 53.078125 
z
" id="DejaVuSans-115"/>
       <path d="M 8.5 21.578125 
L 8.5 54.6875 
L 17.484375 54.6875 
L 17.484375 21.921875 
Q 17.484375 14.15625 20.5 10.265625 
Q 23.53125 6.390625 29.59375 6.390625 
Q 36.859375 6.390625 41.078125 11.03125 
Q 45.3125 15.671875 45.3125 23.6875 
L 45.3125 54.6875 
L 54.296875 54.6875 
L 54.296875 0 
L 45.3125 0 
L 45.3125 8.40625 
Q 42.046875 3.421875 37.71875 1 
Q 33.40625 -1.421875 27.6875 -1.421875 
Q 18.265625 -1.421875 13.375 4.4375 
Q 8.5 10.296875 8.5 21.578125 
z
M 31.109375 56 
z
" id="DejaVuSans-117"/>
       <path id="DejaVuSans-32"/>
       <path d="M 37.109375 75.984375 
L 37.109375 68.5 
L 28.515625 68.5 
Q 23.6875 68.5 21.796875 66.546875 
Q 19.921875 64.59375 19.921875 59.515625 
L 19.921875 54.6875 
L 34.71875 54.6875 
L 34.71875 47.703125 
L 19.921875 47.703125 
L 19.921875 0 
L 10.890625 0 
L 10.890625 47.703125 
L 2.296875 47.703125 
L 2.296875 54.6875 
L 10.890625 54.6875 
L 10.890625 58.5 
Q 10.890625 67.625 15.140625 71.796875 
Q 19.390625 75.984375 28.609375 75.984375 
z
" id="DejaVuSans-102"/>
       <path d="M 30.609375 48.390625 
Q 23.390625 48.390625 19.1875 42.75 
Q 14.984375 37.109375 14.984375 27.296875 
Q 14.984375 17.484375 19.15625 11.84375 
Q 23.34375 6.203125 30.609375 6.203125 
Q 37.796875 6.203125 41.984375 11.859375 
Q 46.1875 17.53125 46.1875 27.296875 
Q 46.1875 37.015625 41.984375 42.703125 
Q 37.796875 48.390625 30.609375 48.390625 
z
M 30.609375 56 
Q 42.328125 56 49.015625 48.375 
Q 55.71875 40.765625 55.71875 27.296875 
Q 55.71875 13.875 49.015625 6.21875 
Q 42.328125 -1.421875 30.609375 -1.421875 
Q 18.84375 -1.421875 12.171875 6.21875 
Q 5.515625 13.875 5.515625 27.296875 
Q 5.515625 40.765625 12.171875 48.375 
Q 18.84375 56 30.609375 56 
z
" id="DejaVuSans-111"/>
       <path d="M 52 44.1875 
Q 55.375 50.25 60.0625 53.125 
Q 64.75 56 71.09375 56 
Q 79.640625 56 84.28125 50.015625 
Q 88.921875 44.046875 88.921875 33.015625 
L 88.921875 0 
L 79.890625 0 
L 79.890625 32.71875 
Q 79.890625 40.578125 77.09375 44.375 
Q 74.3125 48.1875 68.609375 48.1875 
Q 61.625 48.1875 57.5625 43.546875 
Q 53.515625 38.921875 53.515625 30.90625 
L 53.515625 0 
L 44.484375 0 
L 44.484375 32.71875 
Q 44.484375 40.625 41.703125 44.40625 
Q 38.921875 48.1875 33.109375 48.1875 
Q 26.21875 48.1875 22.15625 43.53125 
Q 18.109375 38.875 18.109375 30.90625 
L 18.109375 0 
L 9.078125 0 
L 9.078125 54.6875 
L 18.109375 54.6875 
L 18.109375 46.1875 
Q 21.1875 51.21875 25.484375 53.609375 
Q 29.78125 56 35.6875 56 
Q 41.65625 56 45.828125 52.96875 
Q 50 49.953125 52 44.1875 
z
" id="DejaVuSans-109"/>
       <path d="M 9.8125 72.90625 
L 51.703125 72.90625 
L 51.703125 64.59375 
L 19.671875 64.59375 
L 19.671875 43.109375 
L 48.578125 43.109375 
L 48.578125 34.8125 
L 19.671875 34.8125 
L 19.671875 0 
L 9.8125 0 
z
" id="DejaVuSans-70"/>
       <path d="M 48.78125 52.59375 
L 48.78125 44.1875 
Q 44.96875 46.296875 41.140625 47.34375 
Q 37.3125 48.390625 33.40625 48.390625 
Q 24.65625 48.390625 19.8125 42.84375 
Q 14.984375 37.3125 14.984375 27.296875 
Q 14.984375 17.28125 19.8125 11.734375 
Q 24.65625 6.203125 33.40625 6.203125 
Q 37.3125 6.203125 41.140625 7.25 
Q 44.96875 8.296875 48.78125 10.40625 
L 48.78125 2.09375 
Q 45.015625 0.34375 40.984375 -0.53125 
Q 36.96875 -1.421875 32.421875 -1.421875 
Q 20.0625 -1.421875 12.78125 6.34375 
Q 5.515625 14.109375 5.515625 27.296875 
Q 5.515625 40.671875 12.859375 48.328125 
Q 20.21875 56 33.015625 56 
Q 37.15625 56 41.109375 55.140625 
Q 45.0625 54.296875 48.78125 52.59375 
z
" id="DejaVuSans-99"/>
      </defs>
      <use xlink:href="#DejaVuSans-97"/>
      <use x="61.279297" xlink:href="#DejaVuSans-105"/>
      <use x="89.0625" xlink:href="#DejaVuSans-114"/>
      <use x="130.175781" xlink:href="#DejaVuSans-95"/>
      <use x="180.175781" xlink:href="#DejaVuSans-112"/>
      <use x="243.652344" xlink:href="#DejaVuSans-114"/>
      <use x="282.515625" xlink:href="#DejaVuSans-101"/>
      <use x="344.039062" xlink:href="#DejaVuSans-115"/>
      <use x="396.138672" xlink:href="#DejaVuSans-115"/>
      <use x="448.238281" xlink:href="#DejaVuSans-117"/>
      <use x="511.617188" xlink:href="#DejaVuSans-114"/>
      <use x="550.480469" xlink:href="#DejaVuSans-101"/>
      <use x="612.003906" xlink:href="#DejaVuSans-32"/>
      <use x="643.791016" xlink:href="#DejaVuSans-102"/>
      <use x="678.996094" xlink:href="#DejaVuSans-114"/>
      <use x="717.859375" xlink:href="#DejaVuSans-111"/>
      <use x="779.041016" xlink:href="#DejaVuSans-109"/>
      <use x="876.453125" xlink:href="#DejaVuSans-32"/>
      <use x="908.240234" xlink:href="#DejaVuSans-70"/>
      <use x="962.134766" xlink:href="#DejaVuSans-111"/>
      <use x="1023.316406" xlink:href="#DejaVuSans-114"/>
      <use x="1062.179688" xlink:href="#DejaVuSans-101"/>
      <use x="1123.703125" xlink:href="#DejaVuSans-99"/>
      <use x="1178.683594" xlink:href="#DejaVuSans-97"/>
     </g>
    </g>
   </g>
   <g id="matplotlib.axis_2">
    <g id="ytick_1">
     <g id="line2d_10">
      <defs>
       <path d="M 0 0 
L -3.5 0 
" id="m692cd2aeb3" style="stroke:#000000;stroke-width:0.8;"/>
      </defs>
      <g>
       <use style="stroke:#000000;stroke-width:0.8;" x="57.6" xlink:href="#m692cd2aeb3" y="297.976173"/>
      </g>
     </g>
     <g id="text_11">
      <!-- 5 -->
      <g transform="translate(44.2375 301.775391)scale(0.1 -0.1)">
       <use xlink:href="#DejaVuSans-53"/>
      </g>
     </g>
    </g>
    <g id="ytick_2">
     <g id="line2d_11">
      <g>
       <use style="stroke:#000000;stroke-width:0.8;" x="57.6" xlink:href="#m692cd2aeb3" y="265.745957"/>
      </g>
     </g>
     <g id="text_12">
      <!-- 10 -->
      <g transform="translate(37.875 269.545176)scale(0.1 -0.1)">
       <use xlink:href="#DejaVuSans-49"/>
       <use x="63.623047" xlink:href="#DejaVuSans-48"/>
      </g>
     </g>
    </g>
    <g id="ytick_3">
     <g id="line2d_12">
      <g>
       <use style="stroke:#000000;stroke-width:0.8;" x="57.6" xlink:href="#m692cd2aeb3" y="233.515741"/>
      </g>
     </g>
     <g id="text_13">
      <!-- 15 -->
      <g transform="translate(37.875 237.31496)scale(0.1 -0.1)">
       <use xlink:href="#DejaVuSans-49"/>
       <use x="63.623047" xlink:href="#DejaVuSans-53"/>
      </g>
     </g>
    </g>
    <g id="ytick_4">
     <g id="line2d_13">
      <g>
       <use style="stroke:#000000;stroke-width:0.8;" x="57.6" xlink:href="#m692cd2aeb3" y="201.285525"/>
      </g>
     </g>
     <g id="text_14">
      <!-- 20 -->
      <g transform="translate(37.875 205.084744)scale(0.1 -0.1)">
       <use xlink:href="#DejaVuSans-50"/>
       <use x="63.623047" xlink:href="#DejaVuSans-48"/>
      </g>
     </g>
    </g>
    <g id="ytick_5">
     <g id="line2d_14">
      <g>
       <use style="stroke:#000000;stroke-width:0.8;" x="57.6" xlink:href="#m692cd2aeb3" y="169.055309"/>
      </g>
     </g>
     <g id="text_15">
      <!-- 25 -->
      <g transform="translate(37.875 172.854528)scale(0.1 -0.1)">
       <use xlink:href="#DejaVuSans-50"/>
       <use x="63.623047" xlink:href="#DejaVuSans-53"/>
      </g>
     </g>
    </g>
    <g id="ytick_6">
     <g id="line2d_15">
      <g>
       <use style="stroke:#000000;stroke-width:0.8;" x="57.6" xlink:href="#m692cd2aeb3" y="136.825094"/>
      </g>
     </g>
     <g id="text_16">
      <!-- 30 -->
      <g transform="translate(37.875 140.624312)scale(0.1 -0.1)">
       <defs>
        <path d="M 40.578125 39.3125 
Q 47.65625 37.796875 51.625 33 
Q 55.609375 28.21875 55.609375 21.1875 
Q 55.609375 10.40625 48.1875 4.484375 
Q 40.765625 -1.421875 27.09375 -1.421875 
Q 22.515625 -1.421875 17.65625 -0.515625 
Q 12.796875 0.390625 7.625 2.203125 
L 7.625 11.71875 
Q 11.71875 9.328125 16.59375 8.109375 
Q 21.484375 6.890625 26.8125 6.890625 
Q 36.078125 6.890625 40.9375 10.546875 
Q 45.796875 14.203125 45.796875 21.1875 
Q 45.796875 27.640625 41.28125 31.265625 
Q 36.765625 34.90625 28.71875 34.90625 
L 20.21875 34.90625 
L 20.21875 43.015625 
L 29.109375 43.015625 
Q 36.375 43.015625 40.234375 45.921875 
Q 44.09375 48.828125 44.09375 54.296875 
Q 44.09375 59.90625 40.109375 62.90625 
Q 36.140625 65.921875 28.71875 65.921875 
Q 24.65625 65.921875 20.015625 65.03125 
Q 15.375 64.15625 9.8125 62.3125 
L 9.8125 71.09375 
Q 15.4375 72.65625 20.34375 73.4375 
Q 25.25 74.21875 29.59375 74.21875 
Q 40.828125 74.21875 47.359375 69.109375 
Q 53.90625 64.015625 53.90625 55.328125 
Q 53.90625 49.265625 50.4375 45.09375 
Q 46.96875 40.921875 40.578125 39.3125 
z
" id="DejaVuSans-51"/>
       </defs>
       <use xlink:href="#DejaVuSans-51"/>
       <use x="63.623047" xlink:href="#DejaVuSans-48"/>
      </g>
     </g>
    </g>
    <g id="ytick_7">
     <g id="line2d_16">
      <g>
       <use style="stroke:#000000;stroke-width:0.8;" x="57.6" xlink:href="#m692cd2aeb3" y="104.594878"/>
      </g>
     </g>
     <g id="text_17">
      <!-- 35 -->
      <g transform="translate(37.875 108.394096)scale(0.1 -0.1)">
       <use xlink:href="#DejaVuSans-51"/>
       <use x="63.623047" xlink:href="#DejaVuSans-53"/>
      </g>
     </g>
    </g>
    <g id="ytick_8">
     <g id="line2d_17">
      <g>
       <use style="stroke:#000000;stroke-width:0.8;" x="57.6" xlink:href="#m692cd2aeb3" y="72.364662"/>
      </g>
     </g>
     <g id="text_18">
      <!-- 40 -->
      <g transform="translate(37.875 76.163881)scale(0.1 -0.1)">
       <defs>
        <path d="M 37.796875 64.3125 
L 12.890625 25.390625 
L 37.796875 25.390625 
z
M 35.203125 72.90625 
L 47.609375 72.90625 
L 47.609375 25.390625 
L 58.015625 25.390625 
L 58.015625 17.1875 
L 47.609375 17.1875 
L 47.609375 0 
L 37.796875 0 
L 37.796875 17.1875 
L 4.890625 17.1875 
L 4.890625 26.703125 
z
" id="DejaVuSans-52"/>
       </defs>
       <use xlink:href="#DejaVuSans-52"/>
       <use x="63.623047" xlink:href="#DejaVuSans-48"/>
      </g>
     </g>
    </g>
    <g id="text_19">
     <!-- ping_day[ms] -->
     <g transform="translate(31.517187 208.508469)rotate(-90)scale(0.1 -0.1)">
      <defs>
       <path d="M 54.890625 33.015625 
L 54.890625 0 
L 45.90625 0 
L 45.90625 32.71875 
Q 45.90625 40.484375 42.875 44.328125 
Q 39.84375 48.1875 33.796875 48.1875 
Q 26.515625 48.1875 22.3125 43.546875 
Q 18.109375 38.921875 18.109375 30.90625 
L 18.109375 0 
L 9.078125 0 
L 9.078125 54.6875 
L 18.109375 54.6875 
L 18.109375 46.1875 
Q 21.34375 51.125 25.703125 53.5625 
Q 30.078125 56 35.796875 56 
Q 45.21875 56 50.046875 50.171875 
Q 54.890625 44.34375 54.890625 33.015625 
z
" id="DejaVuSans-110"/>
       <path d="M 45.40625 27.984375 
Q 45.40625 37.75 41.375 43.109375 
Q 37.359375 48.484375 30.078125 48.484375 
Q 22.859375 48.484375 18.828125 43.109375 
Q 14.796875 37.75 14.796875 27.984375 
Q 14.796875 18.265625 18.828125 12.890625 
Q 22.859375 7.515625 30.078125 7.515625 
Q 37.359375 7.515625 41.375 12.890625 
Q 45.40625 18.265625 45.40625 27.984375 
z
M 54.390625 6.78125 
Q 54.390625 -7.171875 48.1875 -13.984375 
Q 42 -20.796875 29.203125 -20.796875 
Q 24.46875 -20.796875 20.265625 -20.09375 
Q 16.0625 -19.390625 12.109375 -17.921875 
L 12.109375 -9.1875 
Q 16.0625 -11.328125 19.921875 -12.34375 
Q 23.78125 -13.375 27.78125 -13.375 
Q 36.625 -13.375 41.015625 -8.765625 
Q 45.40625 -4.15625 45.40625 5.171875 
L 45.40625 9.625 
Q 42.625 4.78125 38.28125 2.390625 
Q 33.9375 0 27.875 0 
Q 17.828125 0 11.671875 7.65625 
Q 5.515625 15.328125 5.515625 27.984375 
Q 5.515625 40.671875 11.671875 48.328125 
Q 17.828125 56 27.875 56 
Q 33.9375 56 38.28125 53.609375 
Q 42.625 51.21875 45.40625 46.390625 
L 45.40625 54.6875 
L 54.390625 54.6875 
z
" id="DejaVuSans-103"/>
       <path d="M 45.40625 46.390625 
L 45.40625 75.984375 
L 54.390625 75.984375 
L 54.390625 0 
L 45.40625 0 
L 45.40625 8.203125 
Q 42.578125 3.328125 38.25 0.953125 
Q 33.9375 -1.421875 27.875 -1.421875 
Q 17.96875 -1.421875 11.734375 6.484375 
Q 5.515625 14.40625 5.515625 27.296875 
Q 5.515625 40.1875 11.734375 48.09375 
Q 17.96875 56 27.875 56 
Q 33.9375 56 38.25 53.625 
Q 42.578125 51.265625 45.40625 46.390625 
z
M 14.796875 27.296875 
Q 14.796875 17.390625 18.875 11.75 
Q 22.953125 6.109375 30.078125 6.109375 
Q 37.203125 6.109375 41.296875 11.75 
Q 45.40625 17.390625 45.40625 27.296875 
Q 45.40625 37.203125 41.296875 42.84375 
Q 37.203125 48.484375 30.078125 48.484375 
Q 22.953125 48.484375 18.875 42.84375 
Q 14.796875 37.203125 14.796875 27.296875 
z
" id="DejaVuSans-100"/>
       <path d="M 32.171875 -5.078125 
Q 28.375 -14.84375 24.75 -17.8125 
Q 21.140625 -20.796875 15.09375 -20.796875 
L 7.90625 -20.796875 
L 7.90625 -13.28125 
L 13.1875 -13.28125 
Q 16.890625 -13.28125 18.9375 -11.515625 
Q 21 -9.765625 23.484375 -3.21875 
L 25.09375 0.875 
L 2.984375 54.6875 
L 12.5 54.6875 
L 29.59375 11.921875 
L 46.6875 54.6875 
L 56.203125 54.6875 
z
" id="DejaVuSans-121"/>
       <path d="M 8.59375 75.984375 
L 29.296875 75.984375 
L 29.296875 69 
L 17.578125 69 
L 17.578125 -6.203125 
L 29.296875 -6.203125 
L 29.296875 -13.1875 
L 8.59375 -13.1875 
z
" id="DejaVuSans-91"/>
       <path d="M 30.421875 75.984375 
L 30.421875 -13.1875 
L 9.71875 -13.1875 
L 9.71875 -6.203125 
L 21.390625 -6.203125 
L 21.390625 69 
L 9.71875 69 
L 9.71875 75.984375 
z
" id="DejaVuSans-93"/>
      </defs>
      <use xlink:href="#DejaVuSans-112"/>
      <use x="63.476562" xlink:href="#DejaVuSans-105"/>
      <use x="91.259766" xlink:href="#DejaVuSans-110"/>
      <use x="154.638672" xlink:href="#DejaVuSans-103"/>
      <use x="218.115234" xlink:href="#DejaVuSans-95"/>
      <use x="268.115234" xlink:href="#DejaVuSans-100"/>
      <use x="331.591797" xlink:href="#DejaVuSans-97"/>
      <use x="392.871094" xlink:href="#DejaVuSans-121"/>
      <use x="452.050781" xlink:href="#DejaVuSans-91"/>
      <use x="491.064453" xlink:href="#DejaVuSans-109"/>
      <use x="588.476562" xlink:href="#DejaVuSans-115"/>
      <use x="640.576172" xlink:href="#DejaVuSans-93"/>
     </g>
    </g>
   </g>
   <g id="line2d_18">
    <path clip-path="url(#p30cac1c394)" d="M 73.832727 282.035108 
L 74.0056 284.349237 
L 74.178472 290.753381 
L 74.351345 261.78164 
L 74.524217 252.937669 
L 74.69709 285.59977 
L 74.869962 282.747396 
L 75.215707 290.240921 
L 75.38858 289.167655 
L 75.561452 279.250417 
L 75.734325 276.017727 
L 75.907197 280.990849 
L 76.08007 277.132892 
L 76.252942 282.373525 
L 76.425815 281.899741 
L 76.598687 277.761381 
L 76.77156 290.769496 
L 76.944432 289.370705 
L 77.117305 290.634129 
L 77.290177 288.497266 
L 77.46305 290.634129 
L 77.981667 284.136518 
L 78.15454 287.565813 
L 78.327412 287.649612 
L 78.500285 289.715568 
L 78.673157 288.38446 
L 78.84603 288.194302 
L 79.018902 279.988489 
L 79.191775 287.888115 
L 79.364647 281.474302 
L 79.53752 286.49577 
L 79.710392 283.366216 
L 79.883265 290.408518 
L 80.056137 281.403396 
L 80.22901 285.883396 
L 80.401882 280.262446 
L 80.747627 288.964604 
L 80.9205 286.818072 
L 81.093372 238.227799 
L 81.266245 286.934101 
L 81.439117 284.729554 
L 81.784862 274.441669 
L 81.957735 284.188086 
L 82.130607 277.961209 
L 82.476352 289.003281 
L 82.649225 283.827108 
L 82.822097 285.673899 
L 83.167842 288.100835 
L 83.340714 286.792288 
L 83.513587 287.984806 
L 83.686459 291.339971 
L 84.377949 283.504806 
L 84.550822 289.454504 
L 84.896567 290.627683 
L 85.069439 283.656288 
L 85.415184 223.321324 
L 85.933802 280.73623 
L 86.279547 282.202705 
L 86.452419 288.236201 
L 86.798164 284.855252 
L 87.143909 287.585151 
L 87.316782 265.842647 
L 87.662527 285.615885 
L 87.835399 284.484604 
L 88.008272 284.632863 
L 88.181144 272.320921 
L 88.526889 276.791252 
L 88.699762 283.975367 
L 88.872634 283.324317 
L 89.391252 288.481151 
L 89.564124 289.435165 
L 89.736997 287.965468 
L 89.909869 283.118043 
L 90.082742 272.262906 
L 90.255614 286.199252 
L 90.428487 282.415424 
L 90.601359 287.417554 
L 90.774232 282.273612 
L 91.119977 278.696058 
L 91.465722 282.466993 
L 91.811467 281.893295 
L 92.157212 289.067741 
L 92.502957 288.087942 
L 92.675829 284.848806 
L 93.021574 284.072058 
L 93.194447 285.374158 
L 93.367319 276.73646 
L 93.713064 290.163568 
L 93.885937 214.786763 
L 94.058809 283.427453 
L 94.231682 281.222906 
L 94.404554 289.428719 
L 94.577427 281.464633 
L 94.750299 287.598043 
L 95.096044 276.291683 
L 95.268917 283.90446 
L 95.441789 282.921439 
L 95.614662 276.820259 
L 95.960407 269.839194 
L 96.306152 286.898647 
L 96.479024 280.004604 
L 96.651897 285.338705 
L 96.824769 285.773813 
L 96.997642 214.348432 
L 97.170514 290.911309 
L 97.343387 254.771568 
L 97.516259 290.988662 
L 97.689132 289.531856 
L 97.862004 246.920288 
L 98.034877 285.954302 
L 98.207749 289.970187 
L 98.380622 291.175597 
L 98.553494 284.046273 
L 98.726367 293.992518 
L 98.899239 264.663022 
L 99.072112 294.276144 
L 99.244984 285.038964 
L 99.417857 290.021755 
L 99.590729 289.899281 
L 99.763602 285.483741 
L 99.936474 264.740374 
L 100.109347 291.497899 
L 100.627964 284.761784 
L 100.800836 154.106935 
L 101.319454 283.736863 
L 101.492326 289.970187 
L 102.010944 285.096978 
L 102.183816 284.948719 
L 102.702434 276.530187 
L 103.048179 279.907914 
L 103.393924 284.445928 
L 103.739669 283.691741 
L 104.085414 285.329036 
L 104.431159 283.885122 
L 104.776904 277.464863 
L 105.295521 270.960806 
L 105.468394 290.563223 
L 105.987011 278.80564 
L 106.159884 289.132201 
L 106.678501 93.224058 
L 106.851374 270.599827 
L 107.369991 284.639309 
L 107.542864 285.051856 
L 107.715736 272.604547 
L 108.234354 281.848173 
L 108.407226 288.706763 
L 108.925844 283.201842 
L 109.098716 287.707626 
L 109.617334 284.523281 
L 109.790206 281.751482 
L 110.308824 277.796835 
L 111.000314 280.591194 
L 111.173186 284.265439 
L 111.691804 278.006331 
L 112.383294 282.63459 
L 112.901911 282.718388 
L 113.593401 264.334273 
L 114.112019 285.090532 
L 114.630636 285.644892 
L 114.803509 281.042417 
L 115.322126 283.111597 
L 115.494999 290.427856 
L 116.013616 275.769554 
L 116.359361 284.961612 
L 116.532234 274.628604 
L 117.050851 280.662101 
L 117.223723 293.347914 
L 117.742341 260.85341 
L 117.915213 292.116719 
L 118.433831 286.431309 
L 118.779576 289.402935 
L 118.952448 238.672576 
L 119.643938 287.088806 
L 120.335428 286.076777 
L 120.508301 293.35436 
L 120.854046 281.73859 
L 121.545536 290.447194 
L 122.064153 286.476432 
L 122.755643 293.148086 
L 122.928516 281.11977 
L 123.274261 143.290475 
L 123.792878 293.193209 
L 123.965751 286.77295 
L 124.484368 250.72023 
L 125.175858 285.670676 
L 125.348731 285.348374 
L 125.694476 287.920345 
L 126.213093 289.686561 
L 126.385966 276.188547 
L 126.904583 202.033266 
L 127.077456 290.479424 
L 127.596073 214.474129 
L 127.941818 284.942273 
L 128.114691 278.167482 
L 128.633308 288.139511 
L 128.806181 274.531914 
L 129.497671 279.798331 
L 130.016288 281.764374 
L 130.362033 275.995165 
L 130.707778 207.879827 
L 131.226396 285.084086 
L 131.917886 249.153842 
L 132.436503 286.405525 
L 132.782248 290.73082 
L 133.127993 286.46354 
L 133.646611 278.518791 
L 134.3381 286.830964 
L 134.510973 279.347108 
L 134.683845 286.708489 
L 135.02959 253.659626 
L 135.375335 159.85036 
L 135.72108 283.59505 
L 136.066825 204.544 
L 136.585443 271.586072 
L 136.931188 236.429353 
L 137.10406 265.655712 
L 137.449805 265.85554 
L 137.79555 253.250302 
L 138.141295 255.000403 
L 138.48704 281.551655 
L 138.659913 132.905899 
L 138.832785 260.473094 
L 139.351403 290.97577 
L 139.524275 288.610072 
L 139.697148 287.810763 
L 139.87002 288.04282 
L 140.042893 285.109871 
L 140.215765 286.041324 
L 140.388638 287.662504 
L 140.56151 241.470158 
L 140.734383 291.697727 
L 141.080128 286.953439 
L 141.425873 278.786302 
L 141.771618 264.621122 
L 141.94449 270.586935 
L 142.117363 272.430504 
L 142.463108 282.151137 
L 142.808853 282.982676 
L 143.154598 283.272748 
L 143.500343 267.264 
L 143.846088 285.329036 
L 144.537578 265.433324 
L 144.71045 287.791424 
L 144.883323 253.392115 
L 145.229068 283.330763 
L 145.574813 287.398216 
L 145.920558 255.554763 
L 146.09343 288.59718 
L 146.439175 285.870504 
L 146.612048 286.708489 
L 146.78492 286.205698 
L 147.130665 289.061295 
L 147.47641 287.952576 
L 147.822155 256.508777 
L 148.1679 289.660777 
L 148.513645 286.508662 
L 148.85939 294.469525 
L 149.205135 273.616576 
L 149.378008 285.238791 
L 149.55088 288.948489 
L 149.723753 287.237065 
L 149.896625 270.316201 
L 150.069498 289.660777 
L 150.24237 288.700317 
L 150.415243 285.470849 
L 150.588115 285.844719 
L 150.760988 288.755108 
L 150.93386 287.823655 
L 151.106733 289.628547 
L 151.279605 272.014734 
L 151.452477 285.026072 
L 151.62535 274.902561 
L 151.798222 292.722647 
L 152.143967 289.315914 
L 152.31684 284.542619 
L 152.489712 284.233209 
L 152.662585 171.440345 
L 152.835457 283.279194 
L 153.00833 279.01836 
L 153.354075 282.183367 
L 153.526947 281.680576 
L 153.872692 248.557583 
L 154.045565 285.922072 
L 154.218437 284.581295 
L 154.39131 279.482475 
L 154.564182 259.106532 
L 154.737055 284.893928 
L 154.909927 273.390964 
L 155.0828 287.517468 
L 155.255672 284.839137 
L 155.428545 290.827511 
L 155.77429 289.448058 
L 155.947162 285.56754 
L 156.120035 290.247367 
L 156.292907 276.275568 
L 156.46578 236.564719 
L 156.638652 287.643165 
L 156.811525 288.468259 
L 156.984397 288.126619 
L 157.15727 292.258532 
L 157.503015 290.492317 
L 157.675887 279.833784 
L 157.84876 277.381065 
L 158.021632 288.867914 
L 158.194505 286.270158 
L 158.367377 287.643165 
L 158.54025 285.016403 
L 158.713122 287.475568 
L 158.885995 283.620835 
L 159.058867 260.112115 
L 159.23174 281.222906 
L 159.577485 276.826705 
L 159.750357 287.166158 
L 159.92323 281.448518 
L 160.096102 282.331626 
L 160.268975 286.669813 
L 160.441847 287.76564 
L 160.61472 279.627511 
L 160.787592 288.436029 
L 160.960465 281.152 
L 161.133337 253.446906 
L 161.30621 283.80777 
L 161.651955 282.827971 
L 161.824827 284.278331 
L 162.170572 283.778763 
L 162.343445 268.601554 
L 162.516317 288.100835 
L 162.862062 288.300662 
L 163.034935 287.907453 
L 163.207807 285.412835 
L 163.38068 285.699683 
L 163.553552 285.432173 
L 163.726425 279.372892 
L 163.899297 286.747165 
L 164.07217 286.341065 
L 164.245042 282.769957 
L 164.590787 289.963741 
L 164.936532 287.933237 
L 165.109405 288.403799 
L 165.282277 285.35482 
L 165.45515 289.170878 
L 165.800895 276.517295 
L 165.973767 286.959885 
L 166.14664 280.53318 
L 166.319512 287.97836 
L 166.665257 284.317007 
L 167.011002 268.762705 
L 167.183875 254.739338 
L 167.356747 254.778014 
L 167.52962 289.551194 
L 167.702492 290.550331 
L 167.875365 276.243338 
L 168.048237 283.462906 
L 168.221109 217.307165 
L 168.393982 277.252144 
L 168.566854 288.113727 
L 168.739727 288.558504 
L 168.912599 282.447655 
L 169.085472 288.461813 
L 169.258344 276.05318 
L 169.431217 288.465036 
L 169.604089 289.899281 
L 169.776962 287.991252 
L 169.949834 277.032978 
L 170.295579 291.646158 
L 170.641324 283.475799 
L 170.814197 263.380259 
L 170.987069 286.089669 
L 171.159942 264.46964 
L 171.505687 288.764777 
L 171.851432 273.236259 
L 172.024304 286.785842 
L 172.197177 196.444547 
L 172.370049 281.577439 
L 172.542922 286.573122 
L 172.715794 267.122187 
L 172.888667 286.347511 
L 173.061539 281.029525 
L 173.234412 291.233612 
L 173.580157 274.119367 
L 173.753029 286.176691 
L 173.925902 257.768978 
L 174.098774 286.205698 
L 174.271647 284.313784 
L 174.444519 275.534273 
L 174.963137 291.452777 
L 175.308882 274.274072 
L 175.481754 285.896288 
L 175.827499 288.171741 
L 176.000372 283.591827 
L 176.173244 273.468317 
L 176.346117 270.074475 
L 176.518989 284.168748 
L 176.691862 283.491914 
L 176.864734 249.659856 
L 177.037607 283.917353 
L 177.210479 287.97836 
L 177.383352 244.042129 
L 177.556224 283.362993 
L 177.729097 275.563281 
L 177.901969 278.21905 
L 178.247714 291.069237 
L 178.420587 247.377957 
L 178.593459 289.641439 
L 178.766332 281.055309 
L 178.939204 286.263712 
L 179.112077 284.964835 
L 179.284949 286.553784 
L 179.457822 282.576576 
L 179.630694 284.600633 
L 179.803567 279.656518 
L 179.976439 278.335079 
L 180.149312 280.462273 
L 180.322184 279.753209 
L 180.495057 283.939914 
L 180.840802 281.132662 
L 181.013674 206.809784 
L 181.186547 277.999885 
L 181.359419 285.967194 
L 181.532292 274.583482 
L 181.705164 284.661871 
L 181.878037 254.136633 
L 182.050909 285.938187 
L 182.223782 278.650935 
L 182.396654 285.464403 
L 182.569527 283.875453 
L 182.742399 287.66895 
L 182.915272 286.586014 
L 183.088144 287.127482 
L 183.261017 285.999424 
L 183.433889 286.521554 
L 183.606762 288.777669 
L 183.779634 284.739223 
L 183.952507 288.429583 
L 184.125379 288.249094 
L 184.298252 273.033209 
L 184.471124 229.532086 
L 184.643997 276.652662 
L 184.816869 286.176691 
L 184.989742 279.214964 
L 185.162614 283.337209 
L 185.335486 280.023942 
L 185.508359 287.130705 
L 185.854104 267.325237 
L 186.026976 267.270446 
L 186.372721 287.591597 
L 186.545594 286.28305 
L 186.891339 285.957525 
L 187.064211 289.744576 
L 187.237084 222.953899 
L 187.409956 271.18964 
L 187.582829 283.150273 
L 187.755701 225.271252 
L 187.928574 275.421468 
L 188.101446 272.146878 
L 188.274319 288.455367 
L 188.447191 280.56541 
L 188.620064 283.143827 
L 188.792936 280.581525 
L 188.965809 288.581065 
L 189.138681 290.920978 
L 189.311554 281.261583 
L 189.484426 283.885122 
L 189.657299 282.982676 
L 189.830171 288.126619 
L 190.003044 273.890532 
L 190.175916 288.448921 
L 190.348789 287.688288 
L 190.521661 285.245237 
L 190.694534 286.856748 
L 190.867406 282.11246 
L 191.040279 286.86964 
L 191.213151 282.815079 
L 191.386024 285.754475 
L 191.558896 280.488058 
L 191.904641 290.627683 
L 192.077514 261.011338 
L 192.423259 288.66164 
L 192.596131 265.997353 
L 192.769004 284.568403 
L 192.941876 276.298129 
L 193.114749 288.858245 
L 193.460494 276.398043 
L 193.633366 276.784806 
L 193.806239 286.876086 
L 193.979111 288.04282 
L 194.324856 278.322187 
L 194.497729 285.348374 
L 194.670601 284.516835 
L 194.843474 279.36 
L 195.016346 283.031022 
L 195.362091 280.552518 
L 195.534964 287.507799 
L 195.707836 257.820547 
L 195.880709 279.514705 
L 196.053581 287.053353 
L 196.226454 287.233842 
L 196.399326 284.220317 
L 196.572199 264.250475 
L 196.917944 289.351367 
L 197.090816 281.042417 
L 197.263689 280.488058 
L 197.436561 284.710216 
L 197.609434 284.594187 
L 197.782306 277.709813 
L 197.955179 277.490647 
L 198.128051 285.135655 
L 198.473796 259.699568 
L 198.646669 267.312345 
L 198.819541 281.822388 
L 198.992414 278.844317 
L 199.165286 271.714993 
L 199.338159 280.365583 
L 199.511031 276.449612 
L 199.683904 220.275568 
L 199.856776 279.656518 
L 200.029649 278.341525 
L 200.202521 287.11459 
L 200.375394 283.446791 
L 200.548266 285.187223 
L 200.721139 279.482475 
L 200.894011 286.992115 
L 201.066884 272.913957 
L 201.239756 287.462676 
L 201.412629 286.669813 
L 201.585501 276.791252 
L 201.758374 286.721381 
L 201.931246 278.80564 
L 202.104119 288.397353 
L 202.276991 283.730417 
L 202.449863 284.729554 
L 202.622736 267.002935 
L 202.795608 282.802187 
L 203.141353 286.566676 
L 203.314226 285.338705 
L 203.659971 288.964604 
L 203.832843 278.26095 
L 204.005716 277.664691 
L 204.178588 284.039827 
L 204.351461 283.356547 
L 204.524333 290.099108 
L 204.870078 285.912403 
L 205.042951 291.269065 
L 205.215823 284.123626 
L 205.388696 286.225036 
L 205.561568 281.870734 
L 205.734441 286.608576 
L 205.907313 279.70164 
L 206.080186 280.043281 
L 206.253058 286.985669 
L 206.425931 286.289496 
L 206.598803 286.096115 
L 206.771676 248.109583 
L 206.944548 287.121036 
L 207.117421 285.632 
L 207.290293 285.999424 
L 207.463166 289.006504 
L 207.636038 287.891338 
L 207.808911 287.76564 
L 207.981783 283.553151 
L 208.154656 282.657151 
L 208.327528 287.952576 
L 208.500401 288.055712 
L 208.673273 286.321727 
L 208.846146 283.11482 
L 209.191891 288.945266 
L 209.364763 288.452144 
L 209.537636 264.005525 
L 209.710508 281.629007 
L 209.883381 273.191137 
L 210.056253 275.537496 
L 210.229126 286.408748 
L 210.401998 176.59718 
L 210.574871 281.996432 
L 210.747743 286.315281 
L 210.920616 285.122763 
L 211.093488 280.784576 
L 211.439233 263.103079 
L 211.612106 277.007194 
L 211.784978 281.164892 
L 211.957851 281.177784 
L 212.130723 285.451511 
L 212.303596 285.625554 
L 212.476468 283.282417 
L 212.649341 289.18377 
L 212.822213 277.819396 
L 212.995086 283.991482 
L 213.167958 280.094849 
L 213.340831 286.721381 
L 213.513703 285.809266 
L 213.686576 281.335712 
L 213.859448 292.000691 
L 214.032321 287.440115 
L 214.205193 288.961381 
L 214.378066 286.189583 
L 214.723811 288.690647 
L 214.896683 287.968691 
L 215.069556 288.777669 
L 215.242428 287.849439 
L 215.415301 284.478158 
L 215.588173 287.417554 
L 215.761046 285.158216 
L 215.933918 286.341065 
L 216.106791 286.289496 
L 216.279663 283.852892 
L 216.452536 289.489957 
L 216.798281 280.455827 
L 216.971153 285.635223 
L 217.144026 284.207424 
L 217.316898 286.315281 
L 217.489771 278.322187 
L 217.662643 278.280288 
L 217.835516 282.338072 
L 218.008388 249.314993 
L 218.181261 280.204432 
L 218.354133 286.399079 
L 218.527006 276.626878 
L 218.699878 285.731914 
L 218.872751 283.28564 
L 219.045623 285.831827 
L 219.218495 284.317007 
L 219.391368 277.696921 
L 219.56424 288.174964 
L 219.737113 282.260719 
L 219.909985 281.071424 
L 220.25573 291.149813 
L 220.428603 279.369669 
L 220.601475 287.172604 
L 220.774348 284.977727 
L 220.94722 280.919942 
L 221.120093 283.217957 
L 221.292965 288.855022 
L 221.465838 288.719655 
L 221.63871 290.137784 
L 221.811583 289.080633 
L 221.984455 290.788835 
L 222.157328 283.801324 
L 222.3302 288.919482 
L 222.675945 282.312288 
L 222.848818 285.32259 
L 223.02169 284.094619 
L 223.194563 275.698647 
L 223.367435 285.277468 
L 223.540308 281.906187 
L 223.71318 289.029065 
L 223.886053 283.027799 
L 224.058925 283.588604 
L 224.231798 285.07764 
L 224.40467 287.565813 
L 224.577543 287.17905 
L 224.750415 287.417554 
L 224.923288 284.852029 
L 225.09616 287.498129 
L 225.269033 287.162935 
L 225.441905 276.77836 
L 225.614778 287.636719 
L 225.78765 270.690072 
L 225.960523 273.049324 
L 226.133395 285.399942 
L 226.306268 284.252547 
L 226.652013 285.206561 
L 226.824885 273.64236 
L 226.997758 283.027799 
L 227.17063 281.42918 
L 227.343503 284.014043 
L 227.516375 281.003741 
L 227.689248 288.861468 
L 227.86212 287.714072 
L 228.034993 277.432633 
L 228.207865 282.963338 
L 228.380738 280.616978 
L 228.55361 287.159712 
L 228.726483 282.428317 
L 228.899355 288.80023 
L 229.2451 285.46118 
L 229.417973 284.958388 
L 229.763718 279.134388 
L 229.93659 287.83977 
L 230.109463 287.449784 
L 230.282335 285.677122 
L 230.455208 288.758331 
L 230.62808 276.481842 
L 230.800953 286.547338 
L 230.973825 286.286273 
L 231.146698 288.268432 
L 231.31957 288.339338 
L 231.492443 287.398216 
L 231.665315 285.187223 
L 231.838188 280.571856 
L 232.01106 290.595453 
L 232.183933 285.922072 
L 232.356805 287.266072 
L 232.529678 290.830734 
L 232.70255 283.833554 
L 232.875423 290.369842 
L 233.048295 292.484144 
L 233.221168 277.858072 
L 233.39404 276.227223 
L 233.566913 285.254906 
L 233.739785 287.707626 
L 233.912658 288.474705 
L 234.08553 282.628144 
L 234.258403 286.888978 
L 234.431275 277.53577 
L 234.604148 284.80046 
L 234.77702 272.237122 
L 234.949893 290.211914 
L 235.295638 275.943597 
L 235.46851 287.494906 
L 235.641383 279.856345 
L 235.814255 285.864058 
L 235.987128 175.417554 
L 236.16 203.270906 
L 236.505745 288.210417 
L 236.678617 287.572259 
L 236.85149 281.873957 
L 237.024362 285.677122 
L 237.197235 283.801324 
L 237.370107 164.36259 
L 237.54298 286.521554 
L 237.715852 290.908086 
L 237.888725 205.849324 
L 238.23447 277.355281 
L 238.407342 225.416288 
L 238.580215 284.87459 
L 238.92596 284.075281 
L 239.271705 286.411971 
L 239.444577 289.048403 
L 239.61745 280.088403 
L 239.790322 236.390676 
L 239.963195 276.510849 
L 240.136067 286.882532 
L 240.30894 285.651338 
L 240.481812 290.511655 
L 240.654685 291.588144 
L 240.827557 277.819396 
L 241.00043 288.925928 
L 241.173302 279.405122 
L 241.519047 241.228432 
L 241.69192 288.049266 
L 242.210537 269.497554 
L 242.556282 291.014446 
L 242.729155 281.21646 
L 243.0749 287.797871 
L 243.247772 293.76046 
L 243.593517 270.477353 
L 243.76639 289.145094 
L 243.939262 285.883396 
L 244.112135 286.498993 
L 244.285007 280.517065 
L 244.45788 284.175194 
L 244.630752 256.105899 
L 244.803625 285.670676 
L 244.976497 287.262849 
L 245.322242 280.230216 
L 245.495115 278.257727 
L 245.667987 287.888115 
L 245.84086 278.905554 
L 246.013732 277.838734 
L 246.186605 286.328173 
L 246.359477 279.002245 
L 246.705222 289.357813 
L 247.050967 274.383655 
L 247.22384 285.103424 
L 247.396712 285.206561 
L 247.569585 284.039827 
L 247.742457 288.281324 
L 248.088202 282.496 
L 248.261075 270.857669 
L 248.433947 287.511022 
L 248.60682 286.11223 
L 248.779692 269.072115 
L 248.952565 292.928921 
L 249.125437 222.66705 
L 249.29831 283.804547 
L 249.471182 284.710216 
L 249.644055 293.067511 
L 249.9898 289.55764 
L 250.162672 291.591367 
L 250.335545 224.729784 
L 250.508417 283.089036 
L 250.854162 272.975194 
L 251.027035 291.04023 
L 251.199907 287.636719 
L 251.37278 255.177669 
L 251.545652 288.784115 
L 251.718525 287.301525 
L 251.891397 246.324029 
L 252.06427 280.481612 
L 252.410015 281.18423 
L 252.582887 288.951712 
L 252.75576 287.385324 
L 252.928632 280.623424 
L 253.101505 286.328173 
L 253.274377 281.522647 
L 253.620122 255.81905 
L 253.792994 283.485468 
L 254.138739 278.26095 
L 254.311612 282.138245 
L 254.484484 290.640576 
L 254.830229 285.73836 
L 255.003102 285.838273 
L 255.175974 279.353554 
L 255.348847 292.671079 
L 255.521719 245.253986 
L 255.694592 289.15154 
L 256.040337 289.235338 
L 256.213209 286.115453 
L 256.386082 290.35695 
L 256.558954 276.098302 
L 256.731827 247.007309 
L 256.904699 287.336978 
L 257.077572 288.616518 
L 257.250444 287.095252 
L 257.423317 287.475568 
L 257.596189 286.798734 
L 257.769062 190.41105 
L 257.941934 295.488 
L 258.114807 291.536576 
L 258.460552 229.996201 
L 258.633424 284.510388 
L 258.806297 242.662676 
L 258.979169 286.46354 
L 259.152042 212.101986 
L 259.324914 280.546072 
L 259.497787 282.650705 
L 259.670659 289.667223 
L 259.843532 283.034245 
L 260.016404 288.80023 
L 260.189277 280.094849 
L 260.362149 281.793381 
L 260.535022 290.563223 
L 260.707894 289.24823 
L 260.880767 286.966331 
L 261.053639 290.859741 
L 261.226512 288.887252 
L 261.399384 289.925065 
L 261.572257 293.347914 
L 261.918002 281.39695 
L 262.090874 291.339971 
L 262.263747 284.968058 
L 262.436619 285.73836 
L 262.782364 289.125755 
L 263.128109 285.019626 
L 263.300982 290.150676 
L 263.473854 291.904 
L 263.646727 290.621237 
L 263.819599 291.394763 
L 263.992472 287.804317 
L 264.165344 287.768863 
L 264.338217 283.962475 
L 264.511089 283.749755 
L 264.683962 281.609669 
L 265.029707 285.329036 
L 265.375452 291.575252 
L 265.548324 288.339338 
L 265.894069 295.21082 
L 266.066942 226.496 
L 266.412687 285.187223 
L 266.585559 287.043683 
L 266.758432 287.295079 
L 266.931304 285.541755 
L 267.104177 286.702043 
L 267.277049 278.425324 
L 267.449922 286.747165 
L 267.622794 285.251683 
L 267.795667 290.402072 
L 268.141412 280.262446 
L 268.314284 288.896921 
L 268.660029 288.668086 
L 268.832902 288.513381 
L 269.005774 291.459223 
L 269.178647 280.481612 
L 269.351519 287.775309 
L 269.697264 282.454101 
L 269.870137 285.42895 
L 270.043009 286.083223 
L 270.215881 256.250935 
L 270.388754 262.245755 
L 270.734499 287.372432 
L 270.907371 288.152403 
L 271.253116 286.792288 
L 271.425989 291.301295 
L 271.598861 284.471712 
L 271.771734 291.93623 
L 271.944606 283.279194 
L 272.117479 287.172604 
L 272.290351 287.346647 
L 272.463224 277.065209 
L 272.636096 273.938878 
L 272.808969 286.953439 
L 272.981841 284.420144 
L 273.154714 284.80046 
L 273.327586 284.45882 
L 273.500459 284.62964 
L 273.673331 282.338072 
L 273.846204 285.799597 
L 274.019076 283.801324 
L 274.191949 285.264576 
L 274.364821 294.533986 
L 274.537694 248.438331 
L 274.710566 274.802647 
L 274.883439 254.023827 
L 275.056311 283.685295 
L 275.229184 285.038964 
L 275.402056 280.591194 
L 275.574929 283.053583 
L 275.747801 255.777151 
L 276.093546 278.364086 
L 276.266419 285.048633 
L 276.612164 255.035856 
L 276.785036 283.569266 
L 276.957909 200.505554 
L 277.130781 278.889439 
L 277.303654 251.300374 
L 277.476526 287.70118 
L 277.649399 286.650475 
L 277.822271 273.465094 
L 277.995144 236.239194 
L 278.340889 277.439079 
L 278.513761 287.656058 
L 278.686634 279.695194 
L 278.859506 278.895885 
L 279.032379 288.777669 
L 279.205251 287.920345 
L 279.378124 291.375424 
L 279.550996 278.335079 
L 279.723869 276.156317 
L 279.896741 286.076777 
L 280.069614 270.129266 
L 280.242486 281.25836 
L 280.415359 278.451108 
L 280.588231 286.843856 
L 280.761104 284.42659 
L 280.933976 257.862446 
L 281.279721 277.693698 
L 281.625466 284.716662 
L 281.798339 283.975367 
L 281.971211 251.455079 
L 282.144084 254.945612 
L 282.316956 274.257957 
L 282.489829 229.377381 
L 282.662701 282.802187 
L 282.835574 256.779511 
L 283.008446 292.406791 
L 283.181319 269.742504 
L 283.354191 283.575712 
L 283.527064 274.731741 
L 283.699936 292.806446 
L 283.872809 290.344058 
L 284.045681 271.60541 
L 284.218554 286.534446 
L 284.391426 289.83482 
L 284.564299 289.409381 
L 284.737171 286.49577 
L 284.910044 273.855079 
L 285.082916 282.811856 
L 285.255789 275.785669 
L 285.428661 129.250993 
L 285.601534 284.020489 
L 285.774406 279.069928 
L 285.947279 286.724604 
L 286.120151 285.367712 
L 286.293024 278.979683 
L 286.465896 283.646619 
L 286.638769 267.376806 
L 286.811641 283.430676 
L 286.984514 283.28564 
L 287.157386 277.690475 
L 287.330258 283.195396 
L 287.503131 256.231597 
L 287.676003 281.777266 
L 287.848876 281.332489 
L 288.021748 286.386187 
L 288.194621 279.008691 
L 288.367493 285.870504 
L 288.713238 277.613122 
L 289.058983 289.718791 
L 289.231856 265.665381 
L 289.750473 287.665727 
L 289.923346 286.80518 
L 290.096218 285.180777 
L 290.269091 281.487194 
L 290.441963 286.850302 
L 290.614836 286.718158 
L 290.787708 281.80305 
L 291.133453 287.714072 
L 291.479198 281.364719 
L 291.652071 277.136115 
L 291.824943 286.170245 
L 291.997816 288.964604 
L 292.170688 288.11695 
L 292.343561 290.45364 
L 292.516433 276.768691 
L 292.689306 282.428317 
L 292.862178 279.759655 
L 293.035051 231.22095 
L 293.207923 279.150504 
L 293.553668 281.39695 
L 293.726541 286.379741 
L 293.899413 276.472173 
L 294.072286 286.411971 
L 294.245158 283.601496 
L 294.418031 273.081554 
L 294.590903 281.084317 
L 294.763776 278.734734 
L 294.936648 286.80518 
L 295.109521 285.947856 
L 295.282393 257.230734 
L 295.628138 285.422504 
L 295.801011 251.816058 
L 295.973883 272.482072 
L 296.146756 234.211914 
L 296.319628 226.283281 
L 296.492501 288.622964 
L 296.665373 292.986935 
L 296.838246 243.968 
L 297.011118 284.342791 
L 297.183991 269.085007 
L 297.356863 281.387281 
L 297.702608 277.490647 
L 297.875481 286.611799 
L 298.048353 224.890935 
L 298.221226 256.734388 
L 298.394098 263.618763 
L 298.566971 275.795338 
L 298.912716 258.449036 
L 299.085588 204.953324 
L 299.258461 279.695194 
L 299.431333 285.113094 
L 299.604206 284.884259 
L 299.777078 290.050763 
L 299.949951 229.854388 
L 300.122823 212.578993 
L 300.295696 270.925353 
L 300.641441 285.967194 
L 300.814313 271.644086 
L 300.987186 277.22636 
L 301.160058 287.959022 
L 301.332931 286.927655 
L 301.505803 287.295079 
L 301.851548 292.819338 
L 302.024421 291.665496 
L 302.197293 271.992173 
L 302.370166 53.568 
L 302.543038 285.554647 
L 302.715911 286.656921 
L 302.888783 289.741353 
L 303.061656 283.582158 
L 303.234528 286.534446 
L 303.407401 284.039827 
L 303.580273 279.920806 
L 303.926018 287.939683 
L 304.098891 268.533871 
L 304.271763 286.676259 
L 304.617508 286.154129 
L 304.79038 282.099568 
L 304.963253 291.910446 
L 305.308998 268.753036 
L 305.48187 280.655655 
L 305.654743 282.840863 
L 306.000488 284.587741 
L 306.17336 276.784806 
L 306.519105 290.170014 
L 306.691978 282.280058 
L 306.86485 288.713209 
L 307.037723 287.540029 
L 307.210595 277.316604 
L 308.074958 290.808173 
L 308.420703 259.61577 
L 308.766448 293.754014 
L 308.93932 278.721842 
L 309.112193 286.876086 
L 309.457938 280.571856 
L 309.63081 293.173871 
L 309.803683 285.963971 
L 310.149428 288.378014 
L 310.3223 284.852029 
L 310.495173 293.393036 
L 310.668045 275.028259 
L 310.840918 287.48846 
L 311.01379 287.027568 
L 311.186663 293.683108 
L 311.359535 281.49364 
L 311.532408 279.527597 
L 311.70528 275.037928 
L 311.878153 288.429583 
L 312.051025 286.328173 
L 312.223898 289.841266 
L 312.39677 287.752748 
L 312.569643 289.583424 
L 312.915388 283.675626 
L 313.08826 285.258129 
L 313.261133 285.577209 
L 313.434005 288.835683 
L 313.606878 285.677122 
L 313.952623 288.513381 
L 314.125495 279.811223 
L 314.298368 277.529324 
L 314.644113 289.544748 
L 314.989858 266.226187 
L 315.335603 279.572719 
L 315.508475 286.244374 
L 315.681348 270.748086 
L 315.85422 282.289727 
L 316.027093 284.162302 
L 316.199965 274.444892 
L 316.372838 285.548201 
L 316.54571 285.219453 
L 316.718583 290.827511 
L 316.891455 280.381698 
L 317.064328 288.461813 
L 317.2372 288.32 
L 317.410073 272.636777 
L 317.582945 290.827511 
L 317.755818 283.479022 
L 317.92869 291.053122 
L 318.101563 288.313554 
L 318.274435 274.664058 
L 318.447308 287.80754 
L 318.62018 278.605813 
L 318.793053 292.503482 
L 318.965925 281.306705 
L 319.31167 281.654791 
L 319.484543 284.11718 
L 319.657415 284.558734 
L 319.830288 283.198619 
L 320.176033 276.098302 
L 320.348905 263.986187 
L 320.521778 284.246101 
L 320.69465 282.01577 
L 321.040395 283.569266 
L 321.213267 287.48846 
L 321.38614 266.944921 
L 321.559012 271.769784 
L 321.731885 287.511022 
L 321.904757 289.583424 
L 322.07763 287.45623 
L 322.250502 282.653928 
L 322.423375 289.963741 
L 322.76912 281.071424 
L 322.941992 286.241151 
L 323.114865 286.811626 
L 323.287737 285.793151 
L 323.633482 286.434532 
L 323.806355 292.342331 
L 324.1521 286.25082 
L 324.497845 282.044777 
L 324.84359 285.66423 
L 325.016462 287.575482 
L 325.189335 287.649612 
L 325.362207 288.448921 
L 325.707952 285.187223 
L 325.880825 289.145094 
L 326.053697 290.105554 
L 326.399442 284.977727 
L 326.572315 287.514245 
L 326.745187 287.214504 
L 326.91806 285.490187 
L 327.090932 288.033151 
L 327.263805 286.669813 
L 327.436677 282.01577 
L 327.782422 291.214273 
L 328.128167 285.135655 
L 328.30104 287.449784 
L 328.646785 280.42682 
L 328.819657 287.375655 
L 328.99253 283.14705 
L 329.338275 286.440978 
L 329.511147 281.261583 
L 329.856892 289.689784 
L 330.029765 277.265036 
L 330.202637 286.38941 
L 330.37551 278.70895 
L 330.548382 286.021986 
L 330.721255 285.432173 
L 330.894127 275.405353 
L 331.067 285.970417 
L 331.412745 280.401036 
L 331.585617 279.46636 
L 331.75849 287.153266 
L 331.931362 283.392 
L 332.104235 288.896921 
L 332.44998 280.849036 
L 332.795725 288.448921 
L 332.968597 287.307971 
L 333.14147 280.53318 
L 333.314342 287.559367 
L 333.487215 278.39954 
L 333.660087 279.907914 
L 333.83296 285.657784 
L 334.005832 285.702906 
L 334.178705 280.504173 
L 334.351577 280.539626 
L 334.52445 285.232345 
L 334.697322 268.308259 
L 334.870195 289.428719 
L 335.043067 281.777266 
L 335.21594 283.491914 
L 335.388812 288.178187 
L 335.561685 276.836374 
L 335.734557 283.45646 
L 335.90743 281.055309 
L 336.080302 283.127712 
L 336.253175 281.63223 
L 336.59892 287.784978 
L 336.771792 281.335712 
L 337.117537 288.803453 
L 337.29041 287.781755 
L 337.463282 279.418014 
L 337.636155 283.843223 
L 337.809027 279.301986 
L 337.9819 284.723108 
L 338.154772 286.524777 
L 338.327644 280.923165 
L 338.500517 288.268432 
L 338.673389 285.483741 
L 338.846262 286.189583 
L 339.192007 279.121496 
L 339.364879 289.989525 
L 339.537752 283.45646 
L 339.710624 287.069468 
L 339.883497 277.200576 
L 340.056369 286.469986 
L 340.229242 285.412835 
L 340.402114 288.983942 
L 340.574987 277.916086 
L 340.920732 287.565813 
L 341.093604 281.193899 
L 341.266477 282.099568 
L 341.439349 282.35741 
L 341.612222 281.80305 
L 341.785094 284.922935 
L 341.957967 265.791079 
L 342.130839 283.749755 
L 342.303712 287.772086 
L 342.476584 286.131568 
L 342.822329 289.544748 
L 343.168074 279.405122 
L 343.340947 289.061295 
L 343.513819 288.819568 
L 343.686692 286.872863 
L 343.859564 283.427453 
L 344.032437 286.705266 
L 344.205309 285.741583 
L 344.378182 276.178878 
L 344.551054 284.35246 
L 344.723927 283.427453 
L 344.896799 285.867281 
L 345.069672 277.851626 
L 345.242544 280.855482 
L 345.415417 286.695597 
L 345.588289 287.217727 
L 345.761162 283.169612 
L 345.934034 272.079194 
L 346.106907 283.543482 
L 346.279779 265.146475 
L 346.452652 288.216863 
L 346.625524 263.738014 
L 346.971269 287.475568 
L 347.144142 285.512748 
L 347.317014 279.808 
L 347.489887 289.093525 
L 347.662759 279.998158 
L 348.008504 288.474705 
L 348.181377 286.927655 
L 348.354249 281.629007 
L 348.699994 287.249957 
L 348.872867 287.427223 
L 349.045739 284.56518 
L 349.218612 286.740719 
L 349.391484 285.026072 
L 349.564357 286.998561 
L 349.737229 285.538532 
L 349.910102 282.209151 
L 350.082974 286.702043 
L 350.255847 286.012317 
L 350.428719 289.441612 
L 350.774464 285.457957 
L 350.947337 284.162302 
L 351.120209 283.862561 
L 351.293082 286.618245 
L 351.465954 287.572259 
L 351.638827 283.640173 
L 351.811699 285.715799 
L 352.157444 279.382561 
L 352.330317 286.830964 
L 352.503189 278.995799 
L 352.676062 280.230216 
L 352.848934 286.615022 
L 353.021807 261.507683 
L 353.194679 281.674129 
L 353.367552 282.228489 
L 353.713297 288.809899 
L 353.886169 282.035108 
L 354.059042 288.552058 
L 354.231914 282.070561 
L 354.404787 285.206561 
L 354.577659 285.464403 
L 354.750532 275.550388 
L 354.923404 288.642302 
L 355.096277 273.629468 
L 355.442021 284.987396 
L 355.614894 286.540892 
L 355.960639 276.278791 
L 356.133511 287.424 
L 356.479256 283.00846 
L 356.652129 284.304115 
L 356.825001 283.111597 
L 356.997874 279.60495 
L 357.170746 286.121899 
L 357.343619 285.457957 
L 357.862236 289.286906 
L 358.035109 285.56754 
L 358.207981 285.496633 
L 358.380854 288.664863 
L 358.553726 285.535309 
L 358.726599 289.409381 
L 358.899471 286.49577 
L 359.072344 289.206331 
L 359.245216 277.690475 
L 359.418089 274.506129 
L 359.590961 277.774273 
L 359.763834 276.436719 
L 359.936706 280.542849 
L 360.109579 262.516489 
L 360.282451 274.267626 
L 360.455324 272.772144 
L 360.628196 287.385324 
L 360.973941 285.934964 
L 361.146814 281.068201 
L 361.319686 289.818705 
L 361.492559 275.885583 
L 361.665431 275.257094 
L 361.838304 279.714532 
L 362.011176 264.488978 
L 362.184049 279.965928 
L 362.356921 281.251914 
L 362.529794 286.302388 
L 362.702666 285.486964 
L 362.875539 289.361036 
L 363.048411 255.709468 
L 363.221284 284.826245 
L 363.567029 280.210878 
L 363.739901 286.756835 
L 363.912774 287.617381 
L 364.258519 275.402129 
L 364.604264 291.588144 
L 364.777136 289.07741 
L 364.950009 281.957755 
L 365.122881 290.537439 
L 365.295754 289.325583 
L 365.468626 287.211281 
L 365.641499 257.359655 
L 365.814371 288.577842 
L 366.160116 155.238216 
L 366.332989 285.35482 
L 366.505861 289.960518 
L 366.678734 291.34964 
L 366.851606 278.309295 
L 367.024479 286.985669 
L 367.197351 286.950216 
L 367.370224 283.163165 
L 367.543096 285.474072 
L 367.888841 284.271885 
L 368.061714 275.846906 
L 368.234586 285.760921 
L 368.407459 284.207424 
L 368.580331 291.07246 
L 368.926076 248.86377 
L 369.098949 287.046906 
L 369.271821 285.122763 
L 369.444694 265.26895 
L 369.617566 285.367712 
L 369.790439 286.244374 
L 370.136184 284.323453 
L 370.481929 289.396489 
L 370.654801 280.965065 
L 371.000546 290.737266 
L 371.346291 286.244374 
L 371.864909 287.017899 
L 372.037781 283.827108 
L 372.210653 288.790561 
L 372.556398 279.49859 
L 372.902143 288.771223 
L 373.247888 276.091856 
L 373.766506 289.099971 
L 373.939378 243.900317 
L 374.285123 289.228892 
L 374.457996 286.818072 
L 374.630868 291.111137 
L 374.803741 289.963741 
L 374.976613 286.102561 
L 375.149486 285.174331 
L 375.322358 286.147683 
L 375.840976 288.332892 
L 376.013848 266.061813 
L 376.359593 291.085353 
L 376.705338 290.995108 
L 376.878211 290.028201 
L 377.051083 286.257266 
L 377.396828 290.440748 
L 377.569701 286.28305 
L 377.915446 284.710216 
L 378.261191 287.868777 
L 378.606936 286.547338 
L 378.952681 268.775597 
L 379.125553 291.269065 
L 379.644171 290.344058 
L 379.817043 284.136518 
L 380.162788 290.060432 
L 380.681406 291.095022 
L 381.027151 274.976691 
L 381.200023 288.145957 
L 381.372896 282.222043 
L 381.718641 287.333755 
L 382.064386 275.785669 
L 382.237258 289.28046 
L 382.928748 279.869237 
L 383.101621 289.879942 
L 383.274493 279.772547 
L 383.620238 284.413698 
L 383.793111 289.164432 
L 383.965983 267.815137 
L 384.311728 286.212144 
L 384.484601 286.743942 
L 384.657473 283.646619 
L 384.830346 286.050993 
L 385.003218 280.939281 
L 385.176091 281.790158 
L 385.348963 273.242705 
L 385.694708 292.342331 
L 386.040453 274.132259 
L 386.213326 289.119309 
L 386.559071 285.287137 
L 386.731943 291.987799 
L 386.904816 287.433669 
L 387.077688 288.178187 
L 387.423433 283.092259 
L 387.596306 289.847712 
L 387.769178 286.850302 
L 387.942051 262.671194 
L 388.114923 289.106417 
L 388.460668 286.341065 
L 388.633541 289.132201 
L 388.979286 275.776 
L 389.152158 286.32495 
L 389.32503 285.158216 
L 389.497903 281.735367 
L 389.670775 283.237295 
L 389.843648 287.343424 
L 390.01652 275.57295 
L 390.189393 282.176921 
L 390.362265 283.791655 
L 390.535138 284.020489 
L 390.70801 289.966964 
L 391.053755 284.922935 
L 391.226628 290.753381 
L 391.572373 289.441612 
L 391.918118 280.11741 
L 392.09099 280.687885 
L 392.436735 286.621468 
L 392.609608 282.29295 
L 392.78248 291.401209 
L 392.955353 282.808633 
L 393.128225 290.518101 
L 393.301098 278.161036 
L 393.47397 285.606216 
L 393.646843 277.974101 
L 393.819715 289.46095 
L 393.992588 286.147683 
L 394.338333 293.844259 
L 394.684078 283.827108 
L 394.85695 291.310964 
L 395.029823 285.490187 
L 395.202695 292.052259 
L 395.375568 285.980086 
L 395.54844 290.266705 
L 395.721313 285.902734 
L 396.067058 288.223309 
L 396.23993 291.601036 
L 396.412803 292.464806 
L 396.585675 288.38446 
L 396.758548 288.513381 
L 396.93142 289.312691 
L 397.104293 285.419281 
L 397.277165 286.141237 
L 397.450038 286.121899 
L 397.62291 283.079367 
L 397.795783 287.862331 
L 397.968655 288.11695 
L 398.141528 286.411971 
L 398.3144 286.637583 
L 398.487273 286.444201 
L 398.487273 286.444201 
" style="fill:none;stroke:#0000ff;stroke-linecap:square;stroke-width:1.5;"/>
   </g>
   <g id="patch_3">
    <path d="M 57.6 307.584 
L 57.6 41.472 
" style="fill:none;stroke:#000000;stroke-linecap:square;stroke-linejoin:miter;stroke-width:0.8;"/>
   </g>
   <g id="patch_4">
    <path d="M 414.72 307.584 
L 414.72 41.472 
" style="fill:none;stroke:#000000;stroke-linecap:square;stroke-linejoin:miter;stroke-width:0.8;"/>
   </g>
   <g id="patch_5">
    <path d="M 57.6 307.584 
L 414.72 307.584 
" style="fill:none;stroke:#000000;stroke-linecap:square;stroke-linejoin:miter;stroke-width:0.8;"/>
   </g>
   <g id="patch_6">
    <path d="M 57.6 41.472 
L 414.72 41.472 
" style="fill:none;stroke:#000000;stroke-linecap:square;stroke-linejoin:miter;stroke-width:0.8;"/>
   </g>
   <g id="text_20">
    <!-- air_pressure-&gt;ping_day -->
    <g transform="translate(165.122813 35.472)scale(0.12 -0.12)">
     <defs>
      <path d="M 4.890625 31.390625 
L 31.203125 31.390625 
L 31.203125 23.390625 
L 4.890625 23.390625 
z
" id="DejaVuSans-45"/>
      <path d="M 10.59375 49.21875 
L 10.59375 58.109375 
L 73.1875 35.40625 
L 73.1875 27.296875 
L 10.59375 4.59375 
L 10.59375 13.484375 
L 60.890625 31.296875 
z
" id="DejaVuSans-62"/>
     </defs>
     <use xlink:href="#DejaVuSans-97"/>
     <use x="61.279297" xlink:href="#DejaVuSans-105"/>
     <use x="89.0625" xlink:href="#DejaVuSans-114"/>
     <use x="130.175781" xlink:href="#DejaVuSans-95"/>
     <use x="180.175781" xlink:href="#DejaVuSans-112"/>
     <use x="243.652344" xlink:href="#DejaVuSans-114"/>
     <use x="282.515625" xlink:href="#DejaVuSans-101"/>
     <use x="344.039062" xlink:href="#DejaVuSans-115"/>
     <use x="396.138672" xlink:href="#DejaVuSans-115"/>
     <use x="448.238281" xlink:href="#DejaVuSans-117"/>
     <use x="511.617188" xlink:href="#DejaVuSans-114"/>
     <use x="550.480469" xlink:href="#DejaVuSans-101"/>
     <use x="612.003906" xlink:href="#DejaVuSans-45"/>
     <use x="648.087891" xlink:href="#DejaVuSans-62"/>
     <use x="731.876953" xlink:href="#DejaVuSans-112"/>
     <use x="795.353516" xlink:href="#DejaVuSans-105"/>
     <use x="823.136719" xlink:href="#DejaVuSans-110"/>
     <use x="886.515625" xlink:href="#DejaVuSans-103"/>
     <use x="949.992188" xlink:href="#DejaVuSans-95"/>
     <use x="999.992188" xlink:href="#DejaVuSans-100"/>
     <use x="1063.46875" xlink:href="#DejaVuSans-97"/>
     <use x="1124.748047" xlink:href="#DejaVuSans-121"/>
    </g>
   </g>
  </g>
  <g id="legend_1">
   <g id="patch_7">
    <path d="M 353.839063 22.95625 
L 453.8 22.95625 
Q 455.8 22.95625 455.8 20.95625 
L 455.8 7 
Q 455.8 5 453.8 5 
L 353.839063 5 
Q 351.839063 5 351.839063 7 
L 351.839063 20.95625 
Q 351.839063 22.95625 353.839063 22.95625 
z
" style="fill:#ffffff;opacity:0.8;stroke:#cccccc;stroke-linejoin:miter;"/>
   </g>
   <g id="line2d_19">
    <path d="M 355.839063 13.098437 
L 375.839063 13.098437 
" style="fill:none;stroke:#0000ff;stroke-linecap:square;stroke-width:1.5;"/>
   </g>
   <g id="line2d_20"/>
   <g id="text_21">
    <!-- ping_day[ms] -->
    <g transform="translate(383.839063 16.598437)scale(0.1 -0.1)">
     <use xlink:href="#DejaVuSans-112"/>
     <use x="63.476562" xlink:href="#DejaVuSans-105"/>
     <use x="91.259766" xlink:href="#DejaVuSans-110"/>
     <use x="154.638672" xlink:href="#DejaVuSans-103"/>
     <use x="218.115234" xlink:href="#DejaVuSans-95"/>
     <use x="268.115234" xlink:href="#DejaVuSans-100"/>
     <use x="331.591797" xlink:href="#DejaVuSans-97"/>
     <use x="392.871094" xlink:href="#DejaVuSans-121"/>
     <use x="452.050781" xlink:href="#DejaVuSans-91"/>
     <use x="491.064453" xlink:href="#DejaVuSans-109"/>
     <use x="588.476562" xlink:href="#DejaVuSans-115"/>
     <use x="640.576172" xlink:href="#DejaVuSans-93"/>
    </g>
   </g>
  </g>
 </g>
 <defs>
  <clipPath id="p30cac1c394">
   <rect height="266.112" width="357.12" x="57.6" y="41.472"/>
  </clipPath>
 </defs>
</svg>
