<?xml version="1.0" encoding="utf-8" standalone="no"?>
<!DOCTYPE svg PUBLIC "-//W3C//DTD SVG 1.1//EN"
  "http://www.w3.org/Graphics/SVG/1.1/DTD/svg11.dtd">
<!-- Created with matplotlib (https://matplotlib.org/) -->
<svg height="2090.594375pt" version="1.1" viewBox="0 0 2061.98125 2090.594375" width="2061.98125pt" xmlns="http://www.w3.org/2000/svg" xmlns:xlink="http://www.w3.org/1999/xlink">
 <metadata>
  <rdf:RDF xmlns:cc="http://creativecommons.org/ns#" xmlns:dc="http://purl.org/dc/elements/1.1/" xmlns:rdf="http://www.w3.org/1999/02/22-rdf-syntax-ns#">
   <cc:Work>
    <dc:type rdf:resource="http://purl.org/dc/dcmitype/StillImage"/>
    <dc:date>2022-07-24T11:26:27.881603</dc:date>
    <dc:format>image/svg+xml</dc:format>
    <dc:creator>
     <cc:Agent>
      <dc:title>Matplotlib v3.3.2, https://matplotlib.org/</dc:title>
     </cc:Agent>
    </dc:creator>
   </cc:Work>
  </rdf:RDF>
 </metadata>
 <defs>
  <style type="text/css">*{stroke-linecap:butt;stroke-linejoin:round;}</style>
 </defs>
 <g id="figure_1">
  <g id="patch_1">
   <path d="M 0 2090.594375 
L 2061.98125 2090.594375 
L 2061.98125 0 
L 0 0 
z
" style="fill:#ffffff;"/>
  </g>
  <g id="axes_1">
   <g id="patch_2">
    <path d="M 43.78125 2052.76 
L 1829.38125 2052.76 
L 1829.38125 278.68 
L 43.78125 278.68 
z
" style="fill:#ffffff;"/>
   </g>
   <g id="matplotlib.axis_1">
    <g id="xtick_1">
     <g id="line2d_1">
      <defs>
       <path d="M 0 0 
L 0 3.5 
" id="mdb9656daec" style="stroke:#000000;stroke-width:0.8;"/>
      </defs>
      <g>
       <use style="stroke:#000000;stroke-width:0.8;" x="124.944886" xlink:href="#mdb9656daec" y="2052.76"/>
      </g>
     </g>
     <g id="text_1">
      <text style="font-family:DejaVu Sans;font-size:10px;font-stretch:normal;font-style:normal;font-weight:normal;text-anchor:middle;" transform="rotate(-0, 124.944886, 2067.358437)" x="124.944886" y="2067.358437">0</text>
     </g>
    </g>
    <g id="xtick_2">
     <g id="line2d_2">
      <g>
       <use style="stroke:#000000;stroke-width:0.8;" x="420.085382" xlink:href="#mdb9656daec" y="2052.76"/>
      </g>
     </g>
     <g id="text_2">
      <text style="font-family:DejaVu Sans;font-size:10px;font-stretch:normal;font-style:normal;font-weight:normal;text-anchor:middle;" transform="rotate(-0, 420.085382, 2067.358437)" x="420.085382" y="2067.358437">2</text>
     </g>
    </g>
    <g id="xtick_3">
     <g id="line2d_3">
      <g>
       <use style="stroke:#000000;stroke-width:0.8;" x="715.225878" xlink:href="#mdb9656daec" y="2052.76"/>
      </g>
     </g>
     <g id="text_3">
      <text style="font-family:DejaVu Sans;font-size:10px;font-stretch:normal;font-style:normal;font-weight:normal;text-anchor:middle;" transform="rotate(-0, 715.225878, 2067.358437)" x="715.225878" y="2067.358437">4</text>
     </g>
    </g>
    <g id="xtick_4">
     <g id="line2d_4">
      <g>
       <use style="stroke:#000000;stroke-width:0.8;" x="1010.366374" xlink:href="#mdb9656daec" y="2052.76"/>
      </g>
     </g>
     <g id="text_4">
      <text style="font-family:DejaVu Sans;font-size:10px;font-stretch:normal;font-style:normal;font-weight:normal;text-anchor:middle;" transform="rotate(-0, 1010.366374, 2067.358437)" x="1010.366374" y="2067.358437">6</text>
     </g>
    </g>
    <g id="xtick_5">
     <g id="line2d_5">
      <g>
       <use style="stroke:#000000;stroke-width:0.8;" x="1305.50687" xlink:href="#mdb9656daec" y="2052.76"/>
      </g>
     </g>
     <g id="text_5">
      <text style="font-family:DejaVu Sans;font-size:10px;font-stretch:normal;font-style:normal;font-weight:normal;text-anchor:middle;" transform="rotate(-0, 1305.50687, 2067.358437)" x="1305.50687" y="2067.358437">8</text>
     </g>
    </g>
    <g id="xtick_6">
     <g id="line2d_6">
      <g>
       <use style="stroke:#000000;stroke-width:0.8;" x="1600.647366" xlink:href="#mdb9656daec" y="2052.76"/>
      </g>
     </g>
     <g id="text_6">
      <text style="font-family:DejaVu Sans;font-size:10px;font-stretch:normal;font-style:normal;font-weight:normal;text-anchor:middle;" transform="rotate(-0, 1600.647366, 2067.358437)" x="1600.647366" y="2067.358437">10</text>
     </g>
    </g>
    <g id="text_7">
     <text style="font-family:DejaVu Sans;font-size:10px;font-stretch:normal;font-style:normal;font-weight:normal;text-anchor:middle;" transform="rotate(-0, 936.58125, 2081.036562)" x="936.58125" y="2081.036562">wind_speed from BuienRadar</text>
    </g>
   </g>
   <g id="matplotlib.axis_2">
    <g id="ytick_1">
     <g id="line2d_7">
      <defs>
       <path d="M 0 0 
L -3.5 0 
" id="meafc3e2439" style="stroke:#000000;stroke-width:0.8;"/>
      </defs>
      <g>
       <use style="stroke:#000000;stroke-width:0.8;" x="43.78125" xlink:href="#meafc3e2439" y="2049.966322"/>
      </g>
     </g>
     <g id="text_8">
      <text style="font-family:DejaVu Sans;font-size:10px;font-stretch:normal;font-style:normal;font-weight:normal;text-anchor:end;" transform="rotate(-0, 36.78125, 2053.76554)" x="36.78125" y="2053.76554">5.0</text>
     </g>
    </g>
    <g id="ytick_2">
     <g id="line2d_8">
      <g>
       <use style="stroke:#000000;stroke-width:0.8;" x="43.78125" xlink:href="#meafc3e2439" y="1736.069864"/>
      </g>
     </g>
     <g id="text_9">
      <text style="font-family:DejaVu Sans;font-size:10px;font-stretch:normal;font-style:normal;font-weight:normal;text-anchor:end;" transform="rotate(-0, 36.78125, 1739.869083)" x="36.78125" y="1739.869083">5.5</text>
     </g>
    </g>
    <g id="ytick_3">
     <g id="line2d_9">
      <g>
       <use style="stroke:#000000;stroke-width:0.8;" x="43.78125" xlink:href="#meafc3e2439" y="1422.173406"/>
      </g>
     </g>
     <g id="text_10">
      <text style="font-family:DejaVu Sans;font-size:10px;font-stretch:normal;font-style:normal;font-weight:normal;text-anchor:end;" transform="rotate(-0, 36.78125, 1425.972625)" x="36.78125" y="1425.972625">6.0</text>
     </g>
    </g>
    <g id="ytick_4">
     <g id="line2d_10">
      <g>
       <use style="stroke:#000000;stroke-width:0.8;" x="43.78125" xlink:href="#meafc3e2439" y="1108.276948"/>
      </g>
     </g>
     <g id="text_11">
      <text style="font-family:DejaVu Sans;font-size:10px;font-stretch:normal;font-style:normal;font-weight:normal;text-anchor:end;" transform="rotate(-0, 36.78125, 1112.076167)" x="36.78125" y="1112.076167">6.5</text>
     </g>
    </g>
    <g id="ytick_5">
     <g id="line2d_11">
      <g>
       <use style="stroke:#000000;stroke-width:0.8;" x="43.78125" xlink:href="#meafc3e2439" y="794.38049"/>
      </g>
     </g>
     <g id="text_12">
      <text style="font-family:DejaVu Sans;font-size:10px;font-stretch:normal;font-style:normal;font-weight:normal;text-anchor:end;" transform="rotate(-0, 36.78125, 798.179709)" x="36.78125" y="798.179709">7.0</text>
     </g>
    </g>
    <g id="ytick_6">
     <g id="line2d_12">
      <g>
       <use style="stroke:#000000;stroke-width:0.8;" x="43.78125" xlink:href="#meafc3e2439" y="480.484033"/>
      </g>
     </g>
     <g id="text_13">
      <text style="font-family:DejaVu Sans;font-size:10px;font-stretch:normal;font-style:normal;font-weight:normal;text-anchor:end;" transform="rotate(-0, 36.78125, 484.283251)" x="36.78125" y="484.283251">7.5</text>
     </g>
    </g>
    <g id="text_14">
     <text style="font-family:DejaVu Sans;font-size:10px;font-stretch:normal;font-style:normal;font-weight:normal;text-anchor:middle;" transform="rotate(-90, 14.798437, 1165.72)" x="14.798437" y="1165.72">ping[ms]</text>
    </g>
   </g>
   <g id="line2d_13">
    <path clip-path="url(#p7a656a4c73)" d="M 124.944886 1226.1308 
L 139.701911 1794.823895 
L 154.458936 1687.679586 
L 169.215961 1801.247324 
L 183.972986 1711.762345 
L 198.73001 1688.571466 
L 213.487035 1561.146054 
L 228.24406 1490.622955 
L 243.001085 1604.132766 
L 257.75811 1494.749257 
L 272.515134 1575.691828 
L 287.272159 1513.539268 
L 302.029184 1598.154303 
L 316.786209 1512.476162 
L 331.543233 1597.903106 
L 346.300258 1551.864959 
L 361.057283 1651.742328 
L 375.814308 1664.567684 
L 390.571333 1673.112669 
L 405.328357 1654.956557 
L 420.085382 1594.58594 
L 434.842407 1608.849476 
L 449.599432 1658.960587 
L 464.356457 1704.030149 
L 479.113481 1666.924277 
L 493.870506 1658.632902 
L 508.627531 1623.314683 
L 523.384556 1698.708566 
L 538.141581 1607.047108 
L 552.898605 1679.248618 
L 567.65563 1637.929661 
L 582.412655 1744.819998 
L 597.16968 1703.817194 
L 611.926705 1724.3679 
L 626.683729 1590.787202 
L 641.440754 1661.104706 
L 656.197779 1627.237478 
L 670.954804 1618.082463 
L 685.711829 1638.561843 
L 700.468853 1547.022704 
L 715.225878 1502.898764 
L 729.982903 1497.559147 
L 744.739928 1498.726624 
L 759.496952 1550.546016 
L 774.253977 1472.832807 
L 789.011002 1465.725253 
L 803.768027 1576.497347 
L 818.525052 1465.988913 
L 833.282076 1464.468794 
L 848.039101 1621.063312 
L 862.796126 1584.395095 
L 877.553151 1437.501337 
L 892.310176 1610.369521 
L 907.0672 1524.230258 
L 921.824225 1618.684547 
L 936.58125 1423.599084 
L 951.338275 1451.307377 
L 966.0953 1251.620008 
L 980.852324 1376.675858 
L 995.609349 1588.245965 
L 1010.366374 1587.411064 
L 1025.123399 1425.145813 
L 1039.880424 1506.626105 
L 1054.637448 1477.928803 
L 1069.394473 1342.486268 
L 1084.151498 1233.325911 
L 1098.908523 1327.908275 
L 1113.665548 1279.399346 
L 1128.422572 1585.736207 
L 1143.179597 1452.439225 
L 1157.936622 1311.776359 
L 1172.693647 1361.905286 
L 1187.450671 859.323821 
L 1202.207696 1074.160327 
L 1216.964721 1121.460599 
L 1231.721746 1467.664246 
L 1246.478771 1595.878877 
L 1261.235795 1368.751782 
L 1275.99282 1470.183043 
L 1290.749845 1502.369927 
L 1305.50687 1445.548674 
L 1320.263895 1695.496922 
L 1335.020919 1636.759004 
L 1349.777944 996.334977 
L 1364.534969 1672.898202 
L 1379.291994 1193.468447 
L 1394.049019 1698.977766 
L 1408.806043 1119.765559 
L 1423.563068 1252.948338 
L 1438.320093 1622.957958 
L 1453.077118 1664.615616 
L 1467.834143 1422.487302 
L 1482.591167 858.636942 
L 1497.348192 1417.875439 
L 1526.862242 877.311935 
L 1541.619267 1585.71346 
L 1556.376291 1232.998474 
L 1571.133316 1585.085668 
L 1585.890341 1806.696567 
L 1600.647366 1526.543978 
L 1615.40439 1496.671499 
L 1689.189514 1533.920545 
L 1703.946539 1204.329264 
L 1733.460589 1972.12 
L 1748.217614 359.32 
" style="fill:none;stroke:#0000ff;stroke-linecap:square;stroke-width:1.5;"/>
   </g>
   <g id="patch_3">
    <path d="M 43.78125 2052.76 
L 43.78125 278.68 
" style="fill:none;stroke:#000000;stroke-linecap:square;stroke-linejoin:miter;stroke-width:0.8;"/>
   </g>
   <g id="patch_4">
    <path d="M 1829.38125 2052.76 
L 1829.38125 278.68 
" style="fill:none;stroke:#000000;stroke-linecap:square;stroke-linejoin:miter;stroke-width:0.8;"/>
   </g>
   <g id="patch_5">
    <path d="M 43.78125 2052.76 
L 1829.38125 2052.76 
" style="fill:none;stroke:#000000;stroke-linecap:square;stroke-linejoin:miter;stroke-width:0.8;"/>
   </g>
   <g id="patch_6">
    <path d="M 43.78125 278.68 
L 1829.38125 278.68 
" style="fill:none;stroke:#000000;stroke-linecap:square;stroke-linejoin:miter;stroke-width:0.8;"/>
   </g>
   <g id="text_15">
    <text style="font-family:DejaVu Sans;font-size:12px;font-stretch:normal;font-style:normal;font-weight:normal;text-anchor:middle;" transform="rotate(-0, 936.58125, 272.68)" x="936.58125" y="272.68">wind_speed-&gt;ping</text>
   </g>
  </g>
  <g id="legend_1">
   <g id="patch_7">
    <path d="M 1978.415625 22.678125 
L 2054.98125 22.678125 
Q 2056.98125 22.678125 2056.98125 20.678125 
L 2056.98125 7 
Q 2056.98125 5 2054.98125 5 
L 1978.415625 5 
Q 1976.415625 5 1976.415625 7 
L 1976.415625 20.678125 
Q 1976.415625 22.678125 1978.415625 22.678125 
z
" style="fill:#ffffff;opacity:0.8;stroke:#cccccc;stroke-linejoin:miter;"/>
   </g>
   <g id="line2d_14">
    <path d="M 1980.415625 13.098437 
L 2000.415625 13.098437 
" style="fill:none;stroke:#0000ff;stroke-linecap:square;stroke-width:1.5;"/>
   </g>
   <g id="line2d_15"/>
   <g id="text_16">
    <text style="font-family:DejaVu Sans;font-size:10px;font-stretch:normal;font-style:normal;font-weight:normal;text-anchor:start;" transform="rotate(-0, 2008.415625, 16.598437)" x="2008.415625" y="16.598437">ping[ms]</text>
   </g>
  </g>
 </g>
 <defs>
  <clipPath id="p7a656a4c73">
   <rect height="1774.08" width="1785.6" x="43.78125" y="278.68"/>
  </clipPath>
 </defs>
</svg>
