<?xml version="1.0" encoding="utf-8" standalone="no"?>
<!DOCTYPE svg PUBLIC "-//W3C//DTD SVG 1.1//EN"
  "http://www.w3.org/Graphics/SVG/1.1/DTD/svg11.dtd">
<!-- Created with matplotlib (https://matplotlib.org/) -->
<svg height="2090.594375pt" version="1.1" viewBox="0 0 2058.803125 2090.594375" width="2058.803125pt" xmlns="http://www.w3.org/2000/svg" xmlns:xlink="http://www.w3.org/1999/xlink">
 <metadata>
  <rdf:RDF xmlns:cc="http://creativecommons.org/ns#" xmlns:dc="http://purl.org/dc/elements/1.1/" xmlns:rdf="http://www.w3.org/1999/02/22-rdf-syntax-ns#">
   <cc:Work>
    <dc:type rdf:resource="http://purl.org/dc/dcmitype/StillImage"/>
    <dc:date>2022-07-23T20:55:52.448036</dc:date>
    <dc:format>image/svg+xml</dc:format>
    <dc:creator>
     <cc:Agent>
      <dc:title>Matplotlib v3.3.2, https://matplotlib.org/</dc:title>
     </cc:Agent>
    </dc:creator>
   </cc:Work>
  </rdf:RDF>
 </metadata>
 <defs>
  <style type="text/css">*{stroke-linecap:butt;stroke-linejoin:round;}</style>
 </defs>
 <g id="figure_1">
  <g id="patch_1">
   <path d="M 0 2090.594375 
L 2058.803125 2090.594375 
L 2058.803125 0 
L 0 0 
z
" style="fill:#ffffff;"/>
  </g>
  <g id="axes_1">
   <g id="patch_2">
    <path d="M 40.603125 2052.76 
L 1826.203125 2052.76 
L 1826.203125 278.68 
L 40.603125 278.68 
z
" style="fill:#ffffff;"/>
   </g>
   <g id="matplotlib.axis_1">
    <g id="xtick_1">
     <g id="line2d_1">
      <defs>
       <path d="M 0 0 
L 0 3.5 
" id="m9b2b972e49" style="stroke:#000000;stroke-width:0.8;"/>
      </defs>
      <g>
       <use style="stroke:#000000;stroke-width:0.8;" x="359.318868" xlink:href="#m9b2b972e49" y="2052.76"/>
      </g>
     </g>
     <g id="text_1">
      <text style="font-family:DejaVu Sans;font-size:10px;font-stretch:normal;font-style:normal;font-weight:normal;text-anchor:middle;" transform="rotate(-0, 359.318868, 2067.358437)" x="359.318868" y="2067.358437">2</text>
     </g>
    </g>
    <g id="xtick_2">
     <g id="line2d_2">
      <g>
       <use style="stroke:#000000;stroke-width:0.8;" x="755.239045" xlink:href="#m9b2b972e49" y="2052.76"/>
      </g>
     </g>
     <g id="text_2">
      <text style="font-family:DejaVu Sans;font-size:10px;font-stretch:normal;font-style:normal;font-weight:normal;text-anchor:middle;" transform="rotate(-0, 755.239045, 2067.358437)" x="755.239045" y="2067.358437">4</text>
     </g>
    </g>
    <g id="xtick_3">
     <g id="line2d_3">
      <g>
       <use style="stroke:#000000;stroke-width:0.8;" x="1151.159223" xlink:href="#m9b2b972e49" y="2052.76"/>
      </g>
     </g>
     <g id="text_3">
      <text style="font-family:DejaVu Sans;font-size:10px;font-stretch:normal;font-style:normal;font-weight:normal;text-anchor:middle;" transform="rotate(-0, 1151.159223, 2067.358437)" x="1151.159223" y="2067.358437">6</text>
     </g>
    </g>
    <g id="xtick_4">
     <g id="line2d_4">
      <g>
       <use style="stroke:#000000;stroke-width:0.8;" x="1547.0794" xlink:href="#m9b2b972e49" y="2052.76"/>
      </g>
     </g>
     <g id="text_4">
      <text style="font-family:DejaVu Sans;font-size:10px;font-stretch:normal;font-style:normal;font-weight:normal;text-anchor:middle;" transform="rotate(-0, 1547.0794, 2067.358437)" x="1547.0794" y="2067.358437">8</text>
     </g>
    </g>
    <g id="text_5">
     <text style="font-family:DejaVu Sans;font-size:10px;font-stretch:normal;font-style:normal;font-weight:normal;text-anchor:middle;" transform="rotate(-0, 933.403125, 2081.036562)" x="933.403125" y="2081.036562">wind_speed from Meteomatics</text>
    </g>
   </g>
   <g id="matplotlib.axis_2">
    <g id="ytick_1">
     <g id="line2d_5">
      <defs>
       <path d="M 0 0 
L -3.5 0 
" id="mabcf7f9404" style="stroke:#000000;stroke-width:0.8;"/>
      </defs>
      <g>
       <use style="stroke:#000000;stroke-width:0.8;" x="40.603125" xlink:href="#mabcf7f9404" y="2016.138415"/>
      </g>
     </g>
     <g id="text_6">
      <text style="font-family:DejaVu Sans;font-size:10px;font-stretch:normal;font-style:normal;font-weight:normal;text-anchor:end;" transform="rotate(-0, 33.603125, 2019.937634)" x="33.603125" y="2019.937634">5</text>
     </g>
    </g>
    <g id="ytick_2">
     <g id="line2d_6">
      <g>
       <use style="stroke:#000000;stroke-width:0.8;" x="40.603125" xlink:href="#mabcf7f9404" y="1709.745735"/>
      </g>
     </g>
     <g id="text_7">
      <text style="font-family:DejaVu Sans;font-size:10px;font-stretch:normal;font-style:normal;font-weight:normal;text-anchor:end;" transform="rotate(-0, 33.603125, 1713.544954)" x="33.603125" y="1713.544954">6</text>
     </g>
    </g>
    <g id="ytick_3">
     <g id="line2d_7">
      <g>
       <use style="stroke:#000000;stroke-width:0.8;" x="40.603125" xlink:href="#mabcf7f9404" y="1403.353056"/>
      </g>
     </g>
     <g id="text_8">
      <text style="font-family:DejaVu Sans;font-size:10px;font-stretch:normal;font-style:normal;font-weight:normal;text-anchor:end;" transform="rotate(-0, 33.603125, 1407.152275)" x="33.603125" y="1407.152275">7</text>
     </g>
    </g>
    <g id="ytick_4">
     <g id="line2d_8">
      <g>
       <use style="stroke:#000000;stroke-width:0.8;" x="40.603125" xlink:href="#mabcf7f9404" y="1096.960376"/>
      </g>
     </g>
     <g id="text_9">
      <text style="font-family:DejaVu Sans;font-size:10px;font-stretch:normal;font-style:normal;font-weight:normal;text-anchor:end;" transform="rotate(-0, 33.603125, 1100.759595)" x="33.603125" y="1100.759595">8</text>
     </g>
    </g>
    <g id="ytick_5">
     <g id="line2d_9">
      <g>
       <use style="stroke:#000000;stroke-width:0.8;" x="40.603125" xlink:href="#mabcf7f9404" y="790.567697"/>
      </g>
     </g>
     <g id="text_10">
      <text style="font-family:DejaVu Sans;font-size:10px;font-stretch:normal;font-style:normal;font-weight:normal;text-anchor:end;" transform="rotate(-0, 33.603125, 794.366915)" x="33.603125" y="794.366915">9</text>
     </g>
    </g>
    <g id="ytick_6">
     <g id="line2d_10">
      <g>
       <use style="stroke:#000000;stroke-width:0.8;" x="40.603125" xlink:href="#mabcf7f9404" y="484.175017"/>
      </g>
     </g>
     <g id="text_11">
      <text style="font-family:DejaVu Sans;font-size:10px;font-stretch:normal;font-style:normal;font-weight:normal;text-anchor:end;" transform="rotate(-0, 33.603125, 487.974236)" x="33.603125" y="487.974236">10</text>
     </g>
    </g>
    <g id="text_12">
     <text style="font-family:DejaVu Sans;font-size:10px;font-stretch:normal;font-style:normal;font-weight:normal;text-anchor:middle;" transform="rotate(-90, 14.798438, 1165.72)" x="14.798438" y="1165.72">ping[ms]</text>
    </g>
   </g>
   <g id="line2d_11">
    <path clip-path="url(#p1bf6046192)" d="M 121.766761 1584.124737 
L 141.56277 1520.139732 
L 161.358779 1060.920937 
L 181.154788 1717.916207 
L 200.950797 1851.333197 
L 220.746806 1923.126352 
L 240.542815 1941.334831 
L 260.338823 1901.608831 
L 280.134832 1823.478698 
L 299.930841 1690.519595 
L 319.72685 1833.385395 
L 339.522859 1820.643759 
L 359.318868 1823.370282 
L 379.114877 1839.711939 
L 398.910886 1880.804768 
L 418.706894 1853.17929 
L 438.502903 1770.69431 
L 458.298912 1627.977189 
L 478.094921 1622.117429 
L 497.89093 1743.114684 
L 517.686939 1929.237791 
L 537.482948 1891.436594 
L 557.278956 1972.12 
L 577.074965 1925.468067 
L 596.870974 1957.36509 
L 616.666983 1928.535641 
L 636.462992 1947.455389 
L 656.259001 1698.978221 
L 676.05501 1777.244971 
L 695.851019 1572.095987 
L 715.647027 1405.957394 
L 735.443036 1961.600518 
L 755.239045 1779.092612 
L 775.035054 1730.529372 
L 794.831063 1804.053402 
L 814.627072 1943.446752 
L 834.423081 1940.765816 
L 854.21909 1907.1239 
L 874.015098 1792.280263 
L 893.811107 1840.337104 
L 913.607116 1915.641616 
L 933.403125 1790.20631 
L 953.199134 1591.107265 
L 972.995143 1786.922647 
L 992.791152 1341.931537 
L 1012.58716 1531.012232 
L 1032.383169 1713.21033 
L 1052.179178 1393.062488 
L 1071.975187 1586.201398 
L 1091.771196 1764.76741 
L 1111.567205 1696.325736 
L 1131.363214 1717.26414 
L 1151.159223 1455.658663 
L 1170.955231 1706.681809 
L 1190.75124 1766.581577 
L 1210.547249 1592.014348 
L 1230.343258 1720.239685 
L 1250.139267 1713.613943 
L 1269.935276 1640.50099 
L 1289.731285 1782.554849 
L 1309.527294 1762.738631 
L 1329.323302 1824.219877 
L 1349.119311 1617.003028 
L 1368.91532 1267.958131 
L 1388.711329 1963.59207 
L 1408.507338 1914.416045 
L 1428.303347 1896.492074 
L 1448.099356 1767.960344 
L 1467.895364 589.267706 
L 1487.691373 359.32 
L 1507.487382 1759.381349 
L 1527.283391 1774.598853 
L 1547.0794 1857.656801 
L 1566.875409 1754.402468 
L 1586.671418 1792.471759 
L 1606.467427 1752.701989 
L 1626.263435 1772.249842 
L 1646.059444 1652.511583 
L 1665.855453 1755.459523 
L 1685.651462 1860.184541 
L 1705.447471 1546.098001 
L 1725.24348 1815.941438 
L 1745.039489 1819.357716 
" style="fill:none;stroke:#0000ff;stroke-linecap:square;stroke-width:1.5;"/>
   </g>
   <g id="patch_3">
    <path d="M 40.603125 2052.76 
L 40.603125 278.68 
" style="fill:none;stroke:#000000;stroke-linecap:square;stroke-linejoin:miter;stroke-width:0.8;"/>
   </g>
   <g id="patch_4">
    <path d="M 1826.203125 2052.76 
L 1826.203125 278.68 
" style="fill:none;stroke:#000000;stroke-linecap:square;stroke-linejoin:miter;stroke-width:0.8;"/>
   </g>
   <g id="patch_5">
    <path d="M 40.603125 2052.76 
L 1826.203125 2052.76 
" style="fill:none;stroke:#000000;stroke-linecap:square;stroke-linejoin:miter;stroke-width:0.8;"/>
   </g>
   <g id="patch_6">
    <path d="M 40.603125 278.68 
L 1826.203125 278.68 
" style="fill:none;stroke:#000000;stroke-linecap:square;stroke-linejoin:miter;stroke-width:0.8;"/>
   </g>
   <g id="text_13">
    <text style="font-family:DejaVu Sans;font-size:12px;font-stretch:normal;font-style:normal;font-weight:normal;text-anchor:middle;" transform="rotate(-0, 933.403125, 272.68)" x="933.403125" y="272.68">wind_speed-&gt;ping</text>
   </g>
  </g>
  <g id="legend_1">
   <g id="patch_7">
    <path d="M 1975.2375 22.678125 
L 2051.803125 22.678125 
Q 2053.803125 22.678125 2053.803125 20.678125 
L 2053.803125 7 
Q 2053.803125 5 2051.803125 5 
L 1975.2375 5 
Q 1973.2375 5 1973.2375 7 
L 1973.2375 20.678125 
Q 1973.2375 22.678125 1975.2375 22.678125 
z
" style="fill:#ffffff;opacity:0.8;stroke:#cccccc;stroke-linejoin:miter;"/>
   </g>
   <g id="line2d_12">
    <path d="M 1977.2375 13.098437 
L 1997.2375 13.098437 
" style="fill:none;stroke:#0000ff;stroke-linecap:square;stroke-width:1.5;"/>
   </g>
   <g id="line2d_13"/>
   <g id="text_14">
    <text style="font-family:DejaVu Sans;font-size:10px;font-stretch:normal;font-style:normal;font-weight:normal;text-anchor:start;" transform="rotate(-0, 2005.2375, 16.598437)" x="2005.2375" y="16.598437">ping[ms]</text>
   </g>
  </g>
 </g>
 <defs>
  <clipPath id="p1bf6046192">
   <rect height="1774.08" width="1785.6" x="40.603125" y="278.68"/>
  </clipPath>
 </defs>
</svg>
