<?xml version="1.0" encoding="utf-8" standalone="no"?>
<!DOCTYPE svg PUBLIC "-//W3C//DTD SVG 1.1//EN"
  "http://www.w3.org/Graphics/SVG/1.1/DTD/svg11.dtd">
<!-- Created with matplotlib (https://matplotlib.org/) -->
<svg height="2090.594375pt" version="1.1" viewBox="0 0 2058.803125 2090.594375" width="2058.803125pt" xmlns="http://www.w3.org/2000/svg" xmlns:xlink="http://www.w3.org/1999/xlink">
 <metadata>
  <rdf:RDF xmlns:cc="http://creativecommons.org/ns#" xmlns:dc="http://purl.org/dc/elements/1.1/" xmlns:rdf="http://www.w3.org/1999/02/22-rdf-syntax-ns#">
   <cc:Work>
    <dc:type rdf:resource="http://purl.org/dc/dcmitype/StillImage"/>
    <dc:date>2022-07-23T20:55:05.734024</dc:date>
    <dc:format>image/svg+xml</dc:format>
    <dc:creator>
     <cc:Agent>
      <dc:title>Matplotlib v3.3.2, https://matplotlib.org/</dc:title>
     </cc:Agent>
    </dc:creator>
   </cc:Work>
  </rdf:RDF>
 </metadata>
 <defs>
  <style type="text/css">*{stroke-linecap:butt;stroke-linejoin:round;}</style>
 </defs>
 <g id="figure_1">
  <g id="patch_1">
   <path d="M 0 2090.594375 
L 2058.803125 2090.594375 
L 2058.803125 0 
L 0 0 
z
" style="fill:#ffffff;"/>
  </g>
  <g id="axes_1">
   <g id="patch_2">
    <path d="M 40.603125 2052.76 
L 1826.203125 2052.76 
L 1826.203125 278.68 
L 40.603125 278.68 
z
" style="fill:#ffffff;"/>
   </g>
   <g id="matplotlib.axis_1">
    <g id="xtick_1">
     <g id="line2d_1">
      <defs>
       <path d="M 0 0 
L 0 3.5 
" id="m3591625692" style="stroke:#000000;stroke-width:0.8;"/>
      </defs>
      <g>
       <use style="stroke:#000000;stroke-width:0.8;" x="65.019151" xlink:href="#m3591625692" y="2052.76"/>
      </g>
     </g>
     <g id="text_1">
      <text style="font-family:DejaVu Sans;font-size:10px;font-stretch:normal;font-style:normal;font-weight:normal;text-anchor:middle;" transform="rotate(-0, 65.019151, 2067.358437)" x="65.019151" y="2067.358437">0</text>
     </g>
    </g>
    <g id="xtick_2">
     <g id="line2d_2">
      <g>
       <use style="stroke:#000000;stroke-width:0.8;" x="423.575326" xlink:href="#m3591625692" y="2052.76"/>
      </g>
     </g>
     <g id="text_2">
      <text style="font-family:DejaVu Sans;font-size:10px;font-stretch:normal;font-style:normal;font-weight:normal;text-anchor:middle;" transform="rotate(-0, 423.575326, 2067.358437)" x="423.575326" y="2067.358437">2</text>
     </g>
    </g>
    <g id="xtick_3">
     <g id="line2d_3">
      <g>
       <use style="stroke:#000000;stroke-width:0.8;" x="782.131502" xlink:href="#m3591625692" y="2052.76"/>
      </g>
     </g>
     <g id="text_3">
      <text style="font-family:DejaVu Sans;font-size:10px;font-stretch:normal;font-style:normal;font-weight:normal;text-anchor:middle;" transform="rotate(-0, 782.131502, 2067.358437)" x="782.131502" y="2067.358437">4</text>
     </g>
    </g>
    <g id="xtick_4">
     <g id="line2d_4">
      <g>
       <use style="stroke:#000000;stroke-width:0.8;" x="1140.687677" xlink:href="#m3591625692" y="2052.76"/>
      </g>
     </g>
     <g id="text_4">
      <text style="font-family:DejaVu Sans;font-size:10px;font-stretch:normal;font-style:normal;font-weight:normal;text-anchor:middle;" transform="rotate(-0, 1140.687677, 2067.358437)" x="1140.687677" y="2067.358437">6</text>
     </g>
    </g>
    <g id="xtick_5">
     <g id="line2d_5">
      <g>
       <use style="stroke:#000000;stroke-width:0.8;" x="1499.243852" xlink:href="#m3591625692" y="2052.76"/>
      </g>
     </g>
     <g id="text_5">
      <text style="font-family:DejaVu Sans;font-size:10px;font-stretch:normal;font-style:normal;font-weight:normal;text-anchor:middle;" transform="rotate(-0, 1499.243852, 2067.358437)" x="1499.243852" y="2067.358437">8</text>
     </g>
    </g>
    <g id="text_6">
     <text style="font-family:DejaVu Sans;font-size:10px;font-stretch:normal;font-style:normal;font-weight:normal;text-anchor:middle;" transform="rotate(-0, 933.403125, 2081.036562)" x="933.403125" y="2081.036562">wind_speed from WeatherBitIO</text>
    </g>
   </g>
   <g id="matplotlib.axis_2">
    <g id="ytick_1">
     <g id="line2d_6">
      <defs>
       <path d="M 0 0 
L -3.5 0 
" id="me4490f3de8" style="stroke:#000000;stroke-width:0.8;"/>
      </defs>
      <g>
       <use style="stroke:#000000;stroke-width:0.8;" x="40.603125" xlink:href="#me4490f3de8" y="1953.587731"/>
      </g>
     </g>
     <g id="text_7">
      <text style="font-family:DejaVu Sans;font-size:10px;font-stretch:normal;font-style:normal;font-weight:normal;text-anchor:end;" transform="rotate(-0, 33.603125, 1957.38695)" x="33.603125" y="1957.38695">5</text>
     </g>
    </g>
    <g id="ytick_2">
     <g id="line2d_7">
      <g>
       <use style="stroke:#000000;stroke-width:0.8;" x="40.603125" xlink:href="#me4490f3de8" y="1719.002053"/>
      </g>
     </g>
     <g id="text_8">
      <text style="font-family:DejaVu Sans;font-size:10px;font-stretch:normal;font-style:normal;font-weight:normal;text-anchor:end;" transform="rotate(-0, 33.603125, 1722.801271)" x="33.603125" y="1722.801271">6</text>
     </g>
    </g>
    <g id="ytick_3">
     <g id="line2d_8">
      <g>
       <use style="stroke:#000000;stroke-width:0.8;" x="40.603125" xlink:href="#me4490f3de8" y="1484.416374"/>
      </g>
     </g>
     <g id="text_9">
      <text style="font-family:DejaVu Sans;font-size:10px;font-stretch:normal;font-style:normal;font-weight:normal;text-anchor:end;" transform="rotate(-0, 33.603125, 1488.215593)" x="33.603125" y="1488.215593">7</text>
     </g>
    </g>
    <g id="ytick_4">
     <g id="line2d_9">
      <g>
       <use style="stroke:#000000;stroke-width:0.8;" x="40.603125" xlink:href="#me4490f3de8" y="1249.830695"/>
      </g>
     </g>
     <g id="text_10">
      <text style="font-family:DejaVu Sans;font-size:10px;font-stretch:normal;font-style:normal;font-weight:normal;text-anchor:end;" transform="rotate(-0, 33.603125, 1253.629914)" x="33.603125" y="1253.629914">8</text>
     </g>
    </g>
    <g id="ytick_5">
     <g id="line2d_10">
      <g>
       <use style="stroke:#000000;stroke-width:0.8;" x="40.603125" xlink:href="#me4490f3de8" y="1015.245016"/>
      </g>
     </g>
     <g id="text_11">
      <text style="font-family:DejaVu Sans;font-size:10px;font-stretch:normal;font-style:normal;font-weight:normal;text-anchor:end;" transform="rotate(-0, 33.603125, 1019.044235)" x="33.603125" y="1019.044235">9</text>
     </g>
    </g>
    <g id="ytick_6">
     <g id="line2d_11">
      <g>
       <use style="stroke:#000000;stroke-width:0.8;" x="40.603125" xlink:href="#me4490f3de8" y="780.659338"/>
      </g>
     </g>
     <g id="text_12">
      <text style="font-family:DejaVu Sans;font-size:10px;font-stretch:normal;font-style:normal;font-weight:normal;text-anchor:end;" transform="rotate(-0, 33.603125, 784.458556)" x="33.603125" y="784.458556">10</text>
     </g>
    </g>
    <g id="ytick_7">
     <g id="line2d_12">
      <g>
       <use style="stroke:#000000;stroke-width:0.8;" x="40.603125" xlink:href="#me4490f3de8" y="546.073659"/>
      </g>
     </g>
     <g id="text_13">
      <text style="font-family:DejaVu Sans;font-size:10px;font-stretch:normal;font-style:normal;font-weight:normal;text-anchor:end;" transform="rotate(-0, 33.603125, 549.872878)" x="33.603125" y="549.872878">11</text>
     </g>
    </g>
    <g id="ytick_8">
     <g id="line2d_13">
      <g>
       <use style="stroke:#000000;stroke-width:0.8;" x="40.603125" xlink:href="#me4490f3de8" y="311.48798"/>
      </g>
     </g>
     <g id="text_14">
      <text style="font-family:DejaVu Sans;font-size:10px;font-stretch:normal;font-style:normal;font-weight:normal;text-anchor:end;" transform="rotate(-0, 33.603125, 315.287199)" x="33.603125" y="315.287199">12</text>
     </g>
    </g>
    <g id="text_15">
     <text style="font-family:DejaVu Sans;font-size:10px;font-stretch:normal;font-style:normal;font-weight:normal;text-anchor:middle;" transform="rotate(-90, 14.798438, 1165.72)" x="14.798438" y="1165.72">ping[ms]</text>
    </g>
   </g>
   <g id="line2d_14">
    <path clip-path="url(#p0ea62d9f87)" d="M 121.766761 1769.574815 
L 134.023108 1879.994853 
L 138.400541 1715.365975 
L 139.670547 1830.832397 
L 140.239934 1798.377316 
L 148.511466 1610.740762 
L 162.070268 1799.64088 
L 170.39164 1724.084742 
L 172.369615 1717.551887 
L 175.74076 1647.336128 
L 191.377037 1880.924817 
L 206.115309 1750.799075 
L 207.820602 1918.421206 
L 208.291566 1781.910112 
L 211.421223 1756.359822 
L 211.507456 1790.042416 
L 214.93848 1831.206187 
L 223.734939 1865.930883 
L 231.453219 1718.337393 
L 231.571004 1881.067244 
L 232.36431 1867.708047 
L 233.593261 1752.430512 
L 237.528236 1810.469141 
L 247.294768 1803.882971 
L 248.277212 1875.4707 
L 249.066036 1844.342985 
L 249.467619 1880.279707 
L 250.469783 1849.810636 
L 251.375138 1715.068231 
L 251.638676 1851.601608 
L 251.712181 1725.218573 
L 255.15432 1581.681461 
L 256.317835 1832.671847 
L 256.33397 1759.741766 
L 256.6244 1838.221846 
L 257.97795 1849.572441 
L 257.994085 1894.628531 
L 259.510777 1767.074072 
L 259.691848 1791.512486 
L 260.69222 1318.486104 
L 262.870449 1884.580444 
L 263.130402 1756.496664 
L 266.479317 1836.188262 
L 268.356358 1571.424202 
L 268.913913 1711.495311 
L 269.668674 1835.356549 
L 271.443527 1501.912556 
L 272.30944 1667.653854 
L 275.251393 1768.030459 
L 275.445014 1639.751191 
L 275.696003 1725.472708 
L 276.714303 1900.832019 
L 280.627943 1832.189643 
L 286.14433 1888.724791 
L 286.406076 1760.210937 
L 291.691194 1904.402934 
L 293.66146 1858.619629 
L 294.258456 1897.735014 
L 295.536709 1845.611295 
L 296.648233 1887.59096 
L 300.707089 1782.199434 
L 300.836169 1831.759569 
L 301.746902 1419.61208 
L 302.171791 1840.830215 
L 303.604223 1533.229744 
L 304.903989 1812.445348 
L 305.576282 1650.112058 
L 305.909739 1868.366106 
L 306.340007 1902.484144 
L 306.850949 1890.484184 
L 307.17365 1786.03491 
L 307.713277 1934.234413 
L 309.800074 1612.014227 
L 314.359115 1879.432592 
L 314.688987 1416.621113 
L 315.210686 1903.620982 
L 315.671431 1924.147229 
L 319.362767 1889.268603 
L 319.871917 1706.611664 
L 321.153755 1912.378847 
L 321.374267 1690.929966 
L 322.613079 1799.289001 
L 323.192147 1861.200072 
L 324.020412 1718.005063 
L 324.626372 1844.766042 
L 325.660806 1835.266324 
L 327.320921 1813.735569 
L 327.534262 1767.248507 
L 328.762317 1474.739715 
L 329.554726 1951.359167 
L 329.565483 1592.534307 
L 331.38157 1613.822365 
L 332.279753 1707.718481 
L 333.473745 1891.969893 
L 333.592069 1823.39268 
L 334.262569 1899.261598 
L 334.359379 1739.986808 
L 336.722264 1899.888937 
L 337.572042 1785.976264 
L 342.211759 1273.88876 
L 342.358767 1902.311212 
L 343.529453 1549.29607 
L 344.472456 1813.657374 
L 345.429801 1859.776918 
L 345.564259 1783.368754 
L 345.881582 1721.177302 
L 346.019626 1187.626393 
L 346.232967 1870.544401 
L 347.064817 1894.331389 
L 347.319392 1741.991449 
L 349.474314 1442.347342 
L 350.18067 1887.805997 
L 351.209726 1879.709999 
L 351.959109 1822.887418 
L 357.486252 1775.185323 
L 357.574098 1919.005893 
L 357.575891 1873.242136 
L 359.791768 1820.413442 
L 362.030952 1807.910025 
L 362.975747 1780.111622 
L 363.194467 1813.732015 
L 365.189832 1903.308201 
L 366.113114 1609.685126 
L 366.973649 1922.622422 
L 367.007711 1721.347909 
L 370.06261 1858.248202 
L 370.946451 1768.988351 
L 371.109594 1948.778725 
L 371.251224 1796.434875 
L 372.362748 1882.19549 
L 373.09241 1858.627449 
L 373.700162 1821.007725 
L 374.390383 1712.15997 
L 375.29753 1864.034649 
L 375.487565 1836.998649 
L 375.498322 1733.982024 
L 375.663258 1558.076277 
L 378.822137 1574.581055 
L 381.532822 1852.264763 
L 382.352123 1488.150196 
L 383.158874 1915.702144 
L 385.614984 1899.867611 
L 386.011189 1659.456388 
L 387.160361 1918.517172 
L 387.407765 1886.300739 
L 389.171861 1845.65877 
L 389.517868 1911.737646 
L 389.637984 1861.39556 
L 390.23498 1917.625747 
L 393.928109 1622.821924 
L 394.785058 1883.516989 
L 395.674278 1775.701411 
L 395.769295 1742.99377 
L 395.943195 1835.929981 
L 397.666057 1876.858666 
L 397.680399 1840.517434 
L 397.891948 1598.737795 
L 397.911668 1864.17149 
L 400.477138 1825.902746 
L 401.334087 1586.273476 
L 401.972317 1900.805954 
L 403.657531 1757.004933 
L 404.734992 1583.509274 
L 405.719229 1865.14893 
L 406.19073 1746.495494 
L 406.291126 1896.896192 
L 406.380765 1715.835146 
L 407.719972 1632.048961 
L 408.386887 1928.721649 
L 411.145977 1552.993587 
L 411.574451 1700.804906 
L 411.836197 1861.004583 
L 412.384788 1690.34651 
L 412.963856 1905.028496 
L 414.763808 1670.931537 
L 415.385903 1873.437624 
L 420.136773 1887.293819 
L 421.981544 1877.93385 
L 422.139309 1896.348826 
L 423.137888 1899.574379 
L 423.535885 1919.316896 
L 425.312531 1724.632109 
L 428.044729 1748.403458 
L 428.075206 1885.259321 
L 428.403285 1765.645505 
L 428.510852 1893.533798 
L 432.903165 1904.442032 
L 434.120464 1806.502511 
L 434.579415 1877.288739 
L 434.692361 1824.487413 
L 436.529961 1906.478662 
L 438.867747 1803.312146 
L 439.446816 1783.898505 
L 441.298758 1876.827946 
L 444.636916 1877.581971 
L 445.682107 1924.840323 
L 447.118125 1939.590786 
L 447.26334 1689.209671 
L 447.897985 1407.745955 
L 448.880428 1725.911667 
L 448.966482 1828.827248 
L 449.94534 1931.04618 
L 450.13179 1886.730813 
L 452.100263 1810.431821 
L 453.855395 1510.474933 
L 454.326897 1790.863466 
L 454.789434 1817.176159 
L 456.454928 1899.210771 
L 460.93688 1876.643629 
L 461.777694 1679.259329 
L 461.78128 1893.201468 
L 462.878462 1898.545401 
L 462.921488 1878.969937 
L 463.319486 1765.997384 
L 463.367891 1896.896192 
L 464.375434 1905.243533 
L 464.520649 1833.299413 
L 466.856642 1686.805168 
L 467.340693 1674.516078 
L 467.760204 1783.845444 
L 469.422112 1912.196392 
L 469.560156 1910.637226 
L 470.539014 1833.479864 
L 470.605347 1745.451588 
L 473.190537 1798.780732 
L 473.706858 1870.153425 
L 473.789326 1458.670596 
L 473.882551 1872.753416 
L 474.734122 1604.289656 
L 475.401036 1901.040539 
L 475.759592 1815.670901 
L 475.825925 1952.805779 
L 476.469533 1871.76946 
L 476.541245 1903.433313 
L 476.901594 1528.577128 
L 476.953584 1306.385393 
L 479.020661 1867.937894 
L 479.434793 1888.529303 
L 479.696539 1777.980802 
L 479.857889 1597.721257 
L 479.986969 1832.385131 
L 481.589716 1311.484077 
L 481.804849 1830.860324 
L 483.680098 1890.510249 
L 484.420517 1848.551994 
L 486.078839 1872.812063 
L 487.167057 1689.131476 
L 488.188942 1634.101586 
L 488.348499 1903.907698 
L 488.422003 1885.698636 
L 488.57439 1738.988752 
L 490.429918 1900.766856 
L 491.889242 1736.73282 
L 492.851965 1850.476663 
L 494.205515 1930.246456 
L 494.64116 1668.139612 
L 495.516037 1904.68564 
L 496.109448 1637.600822 
L 496.713615 1729.558408 
L 496.930542 1689.155536 
L 498.024138 1790.849248 
L 499.522903 1713.196057 
L 500.248979 1732.701856 
L 500.612913 1590.321145 
L 500.646976 1919.703133 
L 501.733402 1845.349899 
L 502.846718 1647.383045 
L 503.135356 1837.624211 
L 504.022783 1790.460459 
L 504.610815 1894.393945 
L 506.071931 1800.637869 
L 506.473514 1627.480126 
L 510.550298 1667.412752 
L 510.659657 1863.135403 
L 511.281752 1846.400121 
L 511.288924 1935.876513 
L 511.496886 1775.466826 
L 512.235512 1875.529347 
L 512.391484 1857.977311 
L 513.087083 1929.757736 
L 516.609897 1733.814463 
L 518.884936 1917.226951 
L 519.085728 1705.419542 
L 526.125978 1857.427152 
L 526.364418 1473.284217 
L 527.025954 1852.60926 
L 527.588887 1843.645243 
L 528.026326 1858.815117 
L 528.406395 1753.31554 
L 530.199176 1457.720524 
L 532.836357 1929.190821 
L 533.130373 1918.751758 
L 533.279174 1898.946024 
L 535.482501 1964.730551 
L 535.910976 1896.055594 
L 536.724899 1920.25852 
L 538.84038 1840.90841 
L 539.552114 1891.969893 
L 540.774791 1449.868301 
L 541.477561 1878.23546 
L 542.390086 1598.346819 
L 542.612391 1715.11184 
L 546.253529 1863.459914 
L 546.97602 1811.702493 
L 548.130571 1573.234121 
L 548.300885 1899.364927 
L 548.360047 1900.669112 
L 549.068195 1817.869253 
L 552.409939 1894.301533 
L 552.793594 1603.159379 
L 553.234618 1859.262963 
L 556.180157 1895.879654 
L 559.851772 1657.306019 
L 559.887628 1972.12 
L 560.314309 1858.834666 
L 560.597569 1892.56939 
L 561.156916 1556.297336 
L 561.472446 1500.820615 
L 561.949326 1605.931755 
L 563.234749 1809.513027 
L 563.725971 1564.474068 
L 563.881943 1876.409043 
L 565.61377 1849.43169 
L 566.884851 1691.508611 
L 568.048366 1886.410923 
L 568.204338 1873.203039 
L 568.683011 1515.959125 
L 570.683754 1870.544401 
L 570.717817 1848.141469 
L 571.581937 1827.341539 
L 573.032297 1678.848804 
L 575.762702 1666.007015 
L 575.793179 1890.425537 
L 577.256089 1891.868239 
L 577.308079 1874.434614 
L 577.829779 1839.696384 
L 578.186542 1873.734766 
L 581.110568 1905.685336 
L 582.028471 1777.466017 
L 582.750962 1633.495573 
L 582.940997 1888.74825 
L 583.487795 1864.595979 
L 584.362672 1681.087142 
L 584.71585 1886.543144 
L 585.278783 1893.898709 
L 585.96004 1879.73234 
L 587.39785 1165.22346 
L 587.670353 779.218311 
L 587.690073 1904.442032 
L 588.414357 1834.676251 
L 589.497197 1916.601389 
L 589.721294 1893.550554 
L 589.787627 1755.904184 
L 590.042202 1903.132262 
L 590.196381 1907.452548 
L 590.486812 1713.227636 
L 590.739594 1890.621025 
L 590.9368 1734.484707 
L 592.991326 1885.766405 
L 593.057659 1863.412996 
L 594.484713 1935.524634 
L 594.746459 1635.254965 
L 594.891674 1840.806155 
L 595.347041 1893.000648 
L 595.508391 1795.242398 
L 595.590859 1884.489216 
L 595.985271 1612.181788 
L 596.498006 1626.575295 
L 597.120101 1742.910243 
L 597.240217 1852.651912 
L 597.276073 1835.825721 
L 598.032626 1746.307826 
L 600.585546 1863.549483 
L 600.881355 1895.986284 
L 601.593089 1750.108114 
L 601.793881 1737.158984 
L 602.204427 1597.650881 
L 602.917954 1685.121178 
L 603.213763 1880.902261 
L 603.549013 1879.735895 
L 603.814345 1867.9405 
L 603.857371 1633.053469 
L 604.714321 1840.517434 
L 605.451154 1667.080422 
L 607.909056 1759.044023 
L 608.303468 1784.323501 
L 609.045679 980.057165 
L 609.090499 1500.891507 
L 609.918763 1794.362702 
L 610.662768 1513.739584 
L 610.868937 1780.557335 
L 611.085864 1871.267707 
L 611.786841 1718.513332 
L 612.437621 1899.187312 
L 613.448749 1908.879611 
L 613.703324 1650.424839 
L 614.569237 1901.189821 
L 615.465628 1843.567048 
L 615.913823 1892.810492 
L 622.009278 1754.53112 
L 623.205063 1804.374484 
L 623.439917 1845.580575 
L 623.984922 1880.572939 
L 624.07994 1875.998518 
L 625.851207 1754.573772 
L 626.937632 1867.142909 
L 628.16748 1886.782943 
L 629.743334 1888.451108 
L 630.747292 1853.273031 
L 632.715765 1701.81332 
L 633.646218 1849.750056 
L 633.985054 1795.320593 
L 637.307077 1899.242049 
L 637.513247 1873.338103 
L 640.681091 1606.400927 
L 641.498599 1828.318979 
L 642.968679 1901.627004 
L 646.647465 1822.305055 
L 647.371749 1683.736006 
L 648.174915 1755.513638 
L 648.415147 1720.836086 
L 650.12546 1508.787219 
L 650.803131 1939.903567 
L 651.541757 1785.516115 
L 651.656495 1685.925472 
L 654.650439 1851.269278 
L 659.13777 1853.84972 
L 659.191553 1763.916188 
L 659.720423 1836.934671 
L 662.743052 1721.087259 
L 663.210968 1672.886418 
L 663.591037 1745.001965 
L 663.621515 1864.189262 
L 665.046775 1759.843419 
L 669.383512 1870.094779 
L 669.914176 1824.673878 
L 670.835665 1857.770145 
L 671.558156 1844.407647 
L 673.66288 1790.983766 
L 674.202507 1751.081644 
L 675.740713 1583.176945 
L 675.891307 1405.908367 
L 677.015381 1819.95209 
L 678.725694 1824.995682 
L 679.274284 1611.241922 
L 681.343154 1686.961559 
L 681.922222 1899.867611 
L 682.029789 1808.144611 
L 683.014025 1879.966926 
L 683.456842 1752.704195 
L 683.95165 1845.661563 
L 684.649042 1804.664923 
L 685.116957 1841.204435 
L 685.125921 1706.256231 
L 685.640449 1883.83759 
L 686.038447 1456.481129 
L 686.085059 1890.484184 
L 689.731575 1852.762807 
L 690.093717 1891.03155 
L 690.376976 1867.729373 
L 695.896949 1844.166545 
L 697.519415 1180.557544 
L 698.051871 1855.061746 
L 699.677924 1736.2441 
L 700.244442 1580.772441 
L 700.380694 1892.956356 
L 700.995618 1654.236856 
L 704.513054 1857.505347 
L 704.93615 1610.467079 
L 706.273564 1613.673083 
L 706.859804 1762.028976 
L 712.087553 1841.142996 
L 714.039891 1867.494787 
L 714.554419 1669.328535 
L 715.253604 1839.10992 
L 716.065734 1839.93097 
L 717.010529 1875.548896 
L 717.822659 1767.625266 
L 719.217442 1880.631585 
L 719.290946 1897.503709 
L 722.024937 1826.598684 
L 722.354809 1914.411923 
L 722.754599 1610.232493 
L 722.856788 1867.553434 
L 723.247614 1874.25512 
L 725.4115 1872.160436 
L 728.116807 1848.649738 
L 732.442787 1675.03027 
L 732.724254 1855.0031 
L 733.81785 1874.64965 
L 735.390119 1539.872428 
L 736.813587 1806.737096 
L 738.816123 1613.368121 
L 738.851979 1577.507791 
L 742.23137 1484.729155 
L 742.304875 1842.55833 
L 744.845245 1409.739933 
L 745.919121 1797.119084 
L 748.984776 1904.715715 
L 749.53516 1470.200482 
L 752.81057 1866.771481 
L 753.827077 1800.28599 
L 754.829242 1820.32174 
L 755.297158 1791.019856 
L 755.913874 1655.038358 
L 757.667214 1799.230355 
L 759.058412 1788.405901 
L 759.879505 1746.507223 
L 759.915361 1831.720471 
L 761.570098 1908.875701 
L 762.921855 1882.586466 
L 764.449304 1860.172363 
L 764.91722 1859.604178 
L 765.914006 1840.58781 
L 767.843038 1902.964142 
L 769.861709 1917.696123 
L 770.134212 1806.385218 
L 771.012675 1724.475718 
L 771.211673 1897.803257 
L 771.663454 1875.453944 
L 773.119192 1461.837502 
L 773.597865 1891.8526 
L 775.837048 1425.769954 
L 775.957164 1863.585026 
L 777.197769 1793.744659 
L 777.541983 1820.10848 
L 779.739932 1582.258151 
L 779.955066 1790.832187 
L 781.622352 1884.775932 
L 781.848242 1746.56587 
L 787.257062 1783.7477 
L 787.974175 1838.503907 
L 788.210822 1744.571892 
L 789.872729 1899.649781 
L 789.974918 1766.935726 
L 792.156732 1695.46529 
L 792.655125 1775.579853 
L 793.956684 1908.9738 
L 796.056031 1579.820565 
L 801.662057 1617.191868 
L 802.701869 1721.163592 
L 803.239704 1818.253121 
L 803.743475 1528.669287 
L 803.999843 1873.906796 
L 804.734883 1476.544721 
L 807.119282 1799.230355 
L 807.205335 1897.287168 
L 807.210713 1873.594015 
L 808.105311 1826.83327 
L 808.379606 1667.367138 
L 809.534157 1884.801997 
L 811.036508 1840.543499 
L 811.140489 1853.009122 
L 813.818904 1948.426846 
L 814.102163 1875.444635 
L 814.663303 1872.342891 
L 816.077808 1854.260245 
L 817.590915 1874.219577 
L 818.085722 1655.790235 
L 819.181111 1747.621505 
L 821.224881 1766.883596 
L 824.222411 1604.05507 
L 826.635494 1868.354935 
L 827.80618 1923.63896 
L 827.834865 1932.357727 
L 830.482802 1893.65109 
L 831.108482 1877.886933 
L 831.269833 1793.678494 
L 831.425805 1546.288347 
L 835.298211 1852.18274 
L 836.477861 1690.460795 
L 838.059094 1851.56251 
L 839.525589 1917.098995 
L 841.06738 1710.654712 
L 843.90356 1904.495347 
L 847.4945 1657.945798 
L 847.666607 1680.210112 
L 848.114802 1861.786536 
L 848.715383 1823.416138 
L 848.772752 1824.331022 
L 850.768118 1805.634544 
L 850.811144 1665.927043 
L 853.148931 1713.278162 
L 853.159687 1873.922435 
L 853.283389 1865.899605 
L 854.077591 1785.018372 
L 854.81801 1884.736835 
L 855.239313 1740.99446 
L 855.933119 1758.435905 
L 857.810161 1887.512765 
L 858.340824 1360.10272 
L 861.300705 925.206768 
L 862.030367 1241.385611 
L 863.175954 1654.213753 
L 865.165941 1841.979083 
L 866.70594 1836.685868 
L 867.928616 1779.368767 
L 869.05269 1656.391135 
L 871.591267 1795.71157 
L 871.623537 1601.787408 
L 872.652594 1827.048306 
L 874.604932 1896.276646 
L 875.361486 1444.472831 
L 876.939133 1887.178658 
L 878.124161 1885.112172 
L 878.597455 1857.935421 
L 879.201622 1269.359953 
L 880.119526 1826.165056 
L 882.382015 1661.039841 
L 883.075822 1904.715715 
L 883.457684 1869.801546 
L 886.856797 1814.8694 
L 886.930301 1864.445173 
L 888.739216 1804.39124 
L 888.749973 1824.096437 
L 889.596166 1523.990978 
L 890.510484 1421.078241 
L 890.653906 1747.792113 
L 890.899517 1892.126284 
L 891.491135 1841.86097 
L 896.179257 1610.023972 
L 896.623867 1861.88428 
L 898.809267 1819.678406 
L 899.725378 1791.704064 
L 900.711407 1898.877138 
L 901.546843 1849.509885 
L 903.366516 1346.516085 
L 903.947377 1911.127724 
L 904.295176 1714.815601 
L 907.563416 1376.682901 
L 908.725138 1919.72209 
L 912.511491 1842.809156 
L 920.977002 1692.685805 
L 924.261377 1767.20941 
L 924.804589 1849.509885 
L 928.725401 1801.498016 
L 929.320604 1889.917268 
L 929.89788 1508.877262 
L 930.238508 1859.362484 
L 930.324562 1799.269452 
L 931.57413 1828.78815 
L 931.947028 1847.448375 
L 934.537597 1792.544663 
L 935.143557 1774.347517 
L 937.022391 1871.440092 
L 939.327907 1579.267183 
L 940.145415 1815.139529 
L 941.041806 1901.587906 
L 944.638124 1808.65288 
L 944.677565 1585.229569 
L 946.441662 1836.705417 
L 946.970532 1881.283212 
L 949.449948 1847.242224 
L 949.688388 1926.453988 
L 951.739329 1699.343773 
L 952.406244 1904.324739 
L 953.207617 1779.618992 
L 953.940864 1903.503689 
L 954.423122 1628.634436 
L 954.528896 1837.546016 
L 957.951315 1846.021175 
L 960.344677 1883.809155 
L 960.805422 1645.909065 
L 961.052826 1799.132611 
L 962.54442 1447.766873 
L 962.619716 1693.406149 
L 963.31173 1768.862172 
L 964.183021 1842.195624 
L 964.512893 1811.135578 
L 966.033171 1843.879829 
L 966.579969 1841.612167 
L 967.042507 1772.468039 
L 970.46134 1708.317741 
L 975.803827 1773.562772 
L 976.555002 1806.127174 
L 977.754373 1865.048394 
L 979.444965 1622.196363 
L 979.898538 1764.595455 
L 981.77558 1799.132611 
L 982.265009 1748.453218 
L 982.524962 1849.451239 
L 982.770573 1772.135709 
L 983.934088 1838.152029 
L 984.240654 1617.029463 
L 985.413132 1875.079724 
L 985.748382 1760.680108 
L 985.820094 1767.144247 
L 986.872456 1807.180203 
L 988.914433 1866.419603 
L 991.015573 1738.515316 
L 991.782883 1563.061223 
L 994.109912 1836.428941 
L 994.233614 1879.595499 
L 995.167653 1709.403589 
L 996.965812 1724.397523 
L 997.01601 1809.227314 
L 998.321155 1855.104398 
L 998.391073 1261.730587 
L 1000.144413 1869.335383 
L 1001.748952 1966.333553 
L 1002.145156 1771.698526 
L 1002.781594 1803.472446 
L 1006.849413 1922.814356 
L 1007.955559 1692.365915 
L 1009.135209 1599.617491 
L 1010.295138 1679.943537 
L 1011.05707 1720.900064 
L 1012.41062 1815.651352 
L 1013.188687 1814.115882 
L 1014.827288 1685.474346 
L 1019.361231 1298.460306 
L 1022.041439 1888.795167 
L 1022.548796 1705.220144 
L 1022.98982 1784.325142 
L 1023.721274 1801.10704 
L 1024.097758 1869.234631 
L 1024.952915 1791.272487 
L 1025.478199 1829.6092 
L 1025.915638 1795.112073 
L 1026.648885 1645.967711 
L 1028.344856 1575.217788 
L 1028.949023 1894.902214 
L 1030.472887 1678.981736 
L 1030.795588 1869.08997 
L 1032.375027 1838.388118 
L 1032.572233 1403.179353 
L 1035.216585 1687.235242 
L 1037.120518 1609.268085 
L 1037.538236 1830.782129 
L 1037.86273 1866.321859 
L 1041.937721 1882.796992 
L 1042.292691 1574.712311 
L 1044.433272 1763.187941 
L 1044.528289 1499.173946 
L 1044.540839 1824.311474 
L 1045.211339 1794.616836 
L 1045.234645 1559.229657 
L 1048.312849 1848.237436 
L 1049.648471 1670.592099 
L 1051.520134 1764.74626 
L 1053.687607 1711.749445 
L 1056.869793 524.293281 
L 1059.571513 1676.835277 
L 1062.305504 1807.657394 
L 1062.366459 1761.018954 
L 1063.929764 1686.565251 
L 1064.064222 1838.933981 
L 1064.61102 1682.856309 
L 1065.665176 1730.178385 
L 1067.230273 1580.870185 
L 1067.863125 1570.911465 
L 1068.750551 1769.501951 
L 1069.627221 1842.648254 
L 1072.162213 1729.323822 
L 1074.880069 1815.885938 
L 1076.242583 1898.381902 
L 1076.299952 1754.522234 
L 1076.678229 1802.727814 
L 1079.216806 1831.438968 
L 1084.023252 1798.422337 
L 1089.500197 1840.112241 
L 1093.20229 1876.565434 
L 1093.281172 1775.615396 
L 1094.408831 1341.495049 
L 1097.913718 1799.102399 
L 1099.853507 1552.28983 
L 1101.694693 1786.484533 
L 1103.548428 1732.842608 
L 1104.496809 1908.195403 
L 1106.201744 1750.847059 
L 1107.888751 1838.386614 
L 1114.091773 1878.09024 
L 1115.029397 1864.679759 
L 1123.455467 1838.445261 
L 1125.590669 1850.526423 
L 1126.625104 1814.849851 
L 1128.586406 1789.573244 
L 1131.359838 1549.572546 
L 1135.056552 1718.06371 
L 1135.540603 1434.52782 
L 1136.978413 1887.035774 
L 1137.543139 1795.946155 
L 1144.033006 1544.822186 
L 1145.280782 1391.285859 
L 1151.01768 1818.46638 
L 1152.118448 1863.115855 
L 1157.927058 1828.148371 
L 1159.895531 1798.741635 
L 1160.280979 1105.279 
L 1163.649614 1721.074226 
L 1165.116109 1824.284105 
L 1165.636016 1679.852309 
L 1165.872663 1411.189552 
L 1170.939061 1901.19693 
L 1171.577291 1845.9911 
L 1172.541808 1539.211679 
L 1181.980799 1679.904439 
L 1186.382076 1854.318892 
L 1186.408968 1682.993151 
L 1189.209291 1842.244838 
L 1189.741747 1675.603702 
L 1190.528778 1566.599557 
L 1192.239091 1915.017936 
L 1198.370402 1439.809005 
L 1199.964184 1771.975764 
L 1206.419988 1679.826244 
L 1207.502827 1792.384718 
L 1210.720869 1654.608284 
L 1213.598282 1576.432606 
L 1219.85688 1628.71589 
L 1220.134761 1845.854258 
L 1225.011125 1775.126676 
L 1227.112265 1650.611305 
L 1228.342112 1902.810595 
L 1237.028136 1878.105278 
L 1238.19165 1870.883247 
L 1239.220707 1861.416886 
L 1242.266641 1644.794783 
L 1244.100656 1876.366391 
L 1244.305033 1863.952544 
L 1248.433808 1714.603571 
L 1250.31802 1286.914781 
L 1251.962 1556.284895 
L 1254.613523 359.32 
L 1259.030935 1055.828339 
L 1263.206322 1745.451588 
L 1263.776426 1780.580793 
L 1267.924921 1786.601826 
L 1272.085966 1783.080033 
L 1272.102101 1766.601619 
L 1272.976978 1917.109658 
L 1273.190319 1345.916989 
L 1276.169921 1862.294805 
L 1278.371455 1826.058426 
L 1281.006843 1851.415005 
L 1282.58449 1757.047585 
L 1284.678459 1927.314135 
L 1287.8965 1725.390001 
L 1292.957521 1792.128806 
L 1296.03214 1656.387225 
L 1297.125736 1814.8694 
L 1298.626294 1610.662567 
L 1302.948688 1632.850462 
L 1307.626054 1776.123665 
L 1309.632176 1860.307935 
L 1320.311771 1835.804395 
L 1320.621922 1655.066792 
L 1325.222198 1878.637607 
L 1328.895606 1809.29408 
L 1329.392206 1680.451806 
L 1335.570129 1799.763504 
L 1340.65087 1728.186984 
L 1342.472336 1794.695032 
L 1348.971166 1749.351575 
L 1351.995588 1793.561201 
L 1354.064457 1784.992809 
L 1354.899893 1829.413712 
L 1355.351673 1816.648341 
L 1364.971736 1696.266791 
L 1387.885268 1689.737489 
L 1390.895347 1750.143301 
L 1392.284752 1678.496925 
L 1393.346079 1308.340273 
L 1406.567838 1147.188798 
L 1413.636773 1398.81215 
L 1428.142163 1062.664836 
L 1441.491209 1661.891103 
L 1455.254388 1870.565727 
L 1470.731465 1645.224857 
L 1474.272207 1402.887188 
L 1527.275774 1711.729897 
L 1553.859129 1441.72178 
L 1561.277656 1722.071215 
L 1574.474316 1763.43258 
L 1587.2676 1715.647477 
L 1594.546291 1779.384406 
L 1603.641068 1714.251693 
L 1625.573949 1837.897894 
L 1649.49861 1762.785794 
L 1745.039489 1834.226273 
L 1745.039489 1834.226273 
" style="fill:none;stroke:#0000ff;stroke-linecap:square;stroke-width:1.5;"/>
   </g>
   <g id="patch_3">
    <path d="M 40.603125 2052.76 
L 40.603125 278.68 
" style="fill:none;stroke:#000000;stroke-linecap:square;stroke-linejoin:miter;stroke-width:0.8;"/>
   </g>
   <g id="patch_4">
    <path d="M 1826.203125 2052.76 
L 1826.203125 278.68 
" style="fill:none;stroke:#000000;stroke-linecap:square;stroke-linejoin:miter;stroke-width:0.8;"/>
   </g>
   <g id="patch_5">
    <path d="M 40.603125 2052.76 
L 1826.203125 2052.76 
" style="fill:none;stroke:#000000;stroke-linecap:square;stroke-linejoin:miter;stroke-width:0.8;"/>
   </g>
   <g id="patch_6">
    <path d="M 40.603125 278.68 
L 1826.203125 278.68 
" style="fill:none;stroke:#000000;stroke-linecap:square;stroke-linejoin:miter;stroke-width:0.8;"/>
   </g>
   <g id="text_16">
    <text style="font-family:DejaVu Sans;font-size:12px;font-stretch:normal;font-style:normal;font-weight:normal;text-anchor:middle;" transform="rotate(-0, 933.403125, 272.68)" x="933.403125" y="272.68">wind_speed-&gt;ping</text>
   </g>
  </g>
  <g id="legend_1">
   <g id="patch_7">
    <path d="M 1975.2375 22.678125 
L 2051.803125 22.678125 
Q 2053.803125 22.678125 2053.803125 20.678125 
L 2053.803125 7 
Q 2053.803125 5 2051.803125 5 
L 1975.2375 5 
Q 1973.2375 5 1973.2375 7 
L 1973.2375 20.678125 
Q 1973.2375 22.678125 1975.2375 22.678125 
z
" style="fill:#ffffff;opacity:0.8;stroke:#cccccc;stroke-linejoin:miter;"/>
   </g>
   <g id="line2d_15">
    <path d="M 1977.2375 13.098437 
L 1997.2375 13.098437 
" style="fill:none;stroke:#0000ff;stroke-linecap:square;stroke-width:1.5;"/>
   </g>
   <g id="line2d_16"/>
   <g id="text_17">
    <text style="font-family:DejaVu Sans;font-size:10px;font-stretch:normal;font-style:normal;font-weight:normal;text-anchor:start;" transform="rotate(-0, 2005.2375, 16.598437)" x="2005.2375" y="16.598437">ping[ms]</text>
   </g>
  </g>
 </g>
 <defs>
  <clipPath id="p0ea62d9f87">
   <rect height="1774.08" width="1785.6" x="40.603125" y="278.68"/>
  </clipPath>
 </defs>
</svg>
