<?xml version="1.0" encoding="utf-8" standalone="no"?>
<!DOCTYPE svg PUBLIC "-//W3C//DTD SVG 1.1//EN"
  "http://www.w3.org/Graphics/SVG/1.1/DTD/svg11.dtd">
<svg height="345.6pt" version="1.1" viewBox="0 0 460.8 345.6" width="460.8pt" xmlns="http://www.w3.org/2000/svg" xmlns:xlink="http://www.w3.org/1999/xlink">
 <metadata>
  <rdf:RDF xmlns:cc="http://creativecommons.org/ns#" xmlns:dc="http://purl.org/dc/elements/1.1/" xmlns:rdf="http://www.w3.org/1999/02/22-rdf-syntax-ns#">
   <cc:Work>
    <dc:type rdf:resource="http://purl.org/dc/dcmitype/StillImage"/>
    <dc:date>2022-06-13T13:11:25.626399</dc:date>
    <dc:format>image/svg+xml</dc:format>
    <dc:creator>
     <cc:Agent>
      <dc:title>Matplotlib v3.4.2, https://matplotlib.org/</dc:title>
     </cc:Agent>
    </dc:creator>
   </cc:Work>
  </rdf:RDF>
 </metadata>
 <defs>
  <style type="text/css">*{stroke-linecap:butt;stroke-linejoin:round;}</style>
 </defs>
 <g id="figure_1">
  <g id="patch_1">
   <path d="M 0 345.6 
L 460.8 345.6 
L 460.8 0 
L 0 0 
z
" style="fill:#ffffff;"/>
  </g>
  <g id="axes_1">
   <g id="patch_2">
    <path d="M 57.6 307.584 
L 414.72 307.584 
L 414.72 41.472 
L 57.6 41.472 
z
" style="fill:#ffffff;"/>
   </g>
   <g id="matplotlib.axis_1">
    <g id="xtick_1">
     <g id="line2d_1">
      <defs>
       <path d="M 0 0 
L 0 3.5 
" id="m7f300f1d31" style="stroke:#000000;stroke-width:0.8;"/>
      </defs>
      <g>
       <use style="stroke:#000000;stroke-width:0.8;" x="90.711891" xlink:href="#m7f300f1d31" y="307.584"/>
      </g>
     </g>
     <g id="text_1">
      <!-- 995 -->
      <g transform="translate(81.168141 322.182437)scale(0.1 -0.1)">
       <defs>
        <path d="M 703 97 
L 703 672 
Q 941 559 1184 500 
Q 1428 441 1663 441 
Q 2288 441 2617 861 
Q 2947 1281 2994 2138 
Q 2813 1869 2534 1725 
Q 2256 1581 1919 1581 
Q 1219 1581 811 2004 
Q 403 2428 403 3163 
Q 403 3881 828 4315 
Q 1253 4750 1959 4750 
Q 2769 4750 3195 4129 
Q 3622 3509 3622 2328 
Q 3622 1225 3098 567 
Q 2575 -91 1691 -91 
Q 1453 -91 1209 -44 
Q 966 3 703 97 
z
M 1959 2075 
Q 2384 2075 2632 2365 
Q 2881 2656 2881 3163 
Q 2881 3666 2632 3958 
Q 2384 4250 1959 4250 
Q 1534 4250 1286 3958 
Q 1038 3666 1038 3163 
Q 1038 2656 1286 2365 
Q 1534 2075 1959 2075 
z
" id="DejaVuSans-39" transform="scale(0.015625)"/>
        <path d="M 691 4666 
L 3169 4666 
L 3169 4134 
L 1269 4134 
L 1269 2991 
Q 1406 3038 1543 3061 
Q 1681 3084 1819 3084 
Q 2600 3084 3056 2656 
Q 3513 2228 3513 1497 
Q 3513 744 3044 326 
Q 2575 -91 1722 -91 
Q 1428 -91 1123 -41 
Q 819 9 494 109 
L 494 744 
Q 775 591 1075 516 
Q 1375 441 1709 441 
Q 2250 441 2565 725 
Q 2881 1009 2881 1497 
Q 2881 1984 2565 2268 
Q 2250 2553 1709 2553 
Q 1456 2553 1204 2497 
Q 953 2441 691 2322 
L 691 4666 
z
" id="DejaVuSans-35" transform="scale(0.015625)"/>
       </defs>
       <use xlink:href="#DejaVuSans-39"/>
       <use x="63.623047" xlink:href="#DejaVuSans-39"/>
       <use x="127.246094" xlink:href="#DejaVuSans-35"/>
      </g>
     </g>
    </g>
    <g id="xtick_2">
     <g id="line2d_2">
      <g>
       <use style="stroke:#000000;stroke-width:0.8;" x="150.56708" xlink:href="#m7f300f1d31" y="307.584"/>
      </g>
     </g>
     <g id="text_2">
      <!-- 1000 -->
      <g transform="translate(137.84208 322.182437)scale(0.1 -0.1)">
       <defs>
        <path d="M 794 531 
L 1825 531 
L 1825 4091 
L 703 3866 
L 703 4441 
L 1819 4666 
L 2450 4666 
L 2450 531 
L 3481 531 
L 3481 0 
L 794 0 
L 794 531 
z
" id="DejaVuSans-31" transform="scale(0.015625)"/>
        <path d="M 2034 4250 
Q 1547 4250 1301 3770 
Q 1056 3291 1056 2328 
Q 1056 1369 1301 889 
Q 1547 409 2034 409 
Q 2525 409 2770 889 
Q 3016 1369 3016 2328 
Q 3016 3291 2770 3770 
Q 2525 4250 2034 4250 
z
M 2034 4750 
Q 2819 4750 3233 4129 
Q 3647 3509 3647 2328 
Q 3647 1150 3233 529 
Q 2819 -91 2034 -91 
Q 1250 -91 836 529 
Q 422 1150 422 2328 
Q 422 3509 836 4129 
Q 1250 4750 2034 4750 
z
" id="DejaVuSans-30" transform="scale(0.015625)"/>
       </defs>
       <use xlink:href="#DejaVuSans-31"/>
       <use x="63.623047" xlink:href="#DejaVuSans-30"/>
       <use x="127.246094" xlink:href="#DejaVuSans-30"/>
       <use x="190.869141" xlink:href="#DejaVuSans-30"/>
      </g>
     </g>
    </g>
    <g id="xtick_3">
     <g id="line2d_3">
      <g>
       <use style="stroke:#000000;stroke-width:0.8;" x="210.422269" xlink:href="#m7f300f1d31" y="307.584"/>
      </g>
     </g>
     <g id="text_3">
      <!-- 1005 -->
      <g transform="translate(197.697269 322.182437)scale(0.1 -0.1)">
       <use xlink:href="#DejaVuSans-31"/>
       <use x="63.623047" xlink:href="#DejaVuSans-30"/>
       <use x="127.246094" xlink:href="#DejaVuSans-30"/>
       <use x="190.869141" xlink:href="#DejaVuSans-35"/>
      </g>
     </g>
    </g>
    <g id="xtick_4">
     <g id="line2d_4">
      <g>
       <use style="stroke:#000000;stroke-width:0.8;" x="270.277458" xlink:href="#m7f300f1d31" y="307.584"/>
      </g>
     </g>
     <g id="text_4">
      <!-- 1010 -->
      <g transform="translate(257.552458 322.182437)scale(0.1 -0.1)">
       <use xlink:href="#DejaVuSans-31"/>
       <use x="63.623047" xlink:href="#DejaVuSans-30"/>
       <use x="127.246094" xlink:href="#DejaVuSans-31"/>
       <use x="190.869141" xlink:href="#DejaVuSans-30"/>
      </g>
     </g>
    </g>
    <g id="xtick_5">
     <g id="line2d_5">
      <g>
       <use style="stroke:#000000;stroke-width:0.8;" x="330.132647" xlink:href="#m7f300f1d31" y="307.584"/>
      </g>
     </g>
     <g id="text_5">
      <!-- 1015 -->
      <g transform="translate(317.407647 322.182437)scale(0.1 -0.1)">
       <use xlink:href="#DejaVuSans-31"/>
       <use x="63.623047" xlink:href="#DejaVuSans-30"/>
       <use x="127.246094" xlink:href="#DejaVuSans-31"/>
       <use x="190.869141" xlink:href="#DejaVuSans-35"/>
      </g>
     </g>
    </g>
    <g id="xtick_6">
     <g id="line2d_6">
      <g>
       <use style="stroke:#000000;stroke-width:0.8;" x="389.987836" xlink:href="#m7f300f1d31" y="307.584"/>
      </g>
     </g>
     <g id="text_6">
      <!-- 1020 -->
      <g transform="translate(377.262836 322.182437)scale(0.1 -0.1)">
       <defs>
        <path d="M 1228 531 
L 3431 531 
L 3431 0 
L 469 0 
L 469 531 
Q 828 903 1448 1529 
Q 2069 2156 2228 2338 
Q 2531 2678 2651 2914 
Q 2772 3150 2772 3378 
Q 2772 3750 2511 3984 
Q 2250 4219 1831 4219 
Q 1534 4219 1204 4116 
Q 875 4013 500 3803 
L 500 4441 
Q 881 4594 1212 4672 
Q 1544 4750 1819 4750 
Q 2544 4750 2975 4387 
Q 3406 4025 3406 3419 
Q 3406 3131 3298 2873 
Q 3191 2616 2906 2266 
Q 2828 2175 2409 1742 
Q 1991 1309 1228 531 
z
" id="DejaVuSans-32" transform="scale(0.015625)"/>
       </defs>
       <use xlink:href="#DejaVuSans-31"/>
       <use x="63.623047" xlink:href="#DejaVuSans-30"/>
       <use x="127.246094" xlink:href="#DejaVuSans-32"/>
       <use x="190.869141" xlink:href="#DejaVuSans-30"/>
      </g>
     </g>
    </g>
    <g id="text_7">
     <!-- air_pressure from WeatherBitIO -->
     <g transform="translate(157.506875 335.860562)scale(0.1 -0.1)">
      <defs>
       <path d="M 2194 1759 
Q 1497 1759 1228 1600 
Q 959 1441 959 1056 
Q 959 750 1161 570 
Q 1363 391 1709 391 
Q 2188 391 2477 730 
Q 2766 1069 2766 1631 
L 2766 1759 
L 2194 1759 
z
M 3341 1997 
L 3341 0 
L 2766 0 
L 2766 531 
Q 2569 213 2275 61 
Q 1981 -91 1556 -91 
Q 1019 -91 701 211 
Q 384 513 384 1019 
Q 384 1609 779 1909 
Q 1175 2209 1959 2209 
L 2766 2209 
L 2766 2266 
Q 2766 2663 2505 2880 
Q 2244 3097 1772 3097 
Q 1472 3097 1187 3025 
Q 903 2953 641 2809 
L 641 3341 
Q 956 3463 1253 3523 
Q 1550 3584 1831 3584 
Q 2591 3584 2966 3190 
Q 3341 2797 3341 1997 
z
" id="DejaVuSans-61" transform="scale(0.015625)"/>
       <path d="M 603 3500 
L 1178 3500 
L 1178 0 
L 603 0 
L 603 3500 
z
M 603 4863 
L 1178 4863 
L 1178 4134 
L 603 4134 
L 603 4863 
z
" id="DejaVuSans-69" transform="scale(0.015625)"/>
       <path d="M 2631 2963 
Q 2534 3019 2420 3045 
Q 2306 3072 2169 3072 
Q 1681 3072 1420 2755 
Q 1159 2438 1159 1844 
L 1159 0 
L 581 0 
L 581 3500 
L 1159 3500 
L 1159 2956 
Q 1341 3275 1631 3429 
Q 1922 3584 2338 3584 
Q 2397 3584 2469 3576 
Q 2541 3569 2628 3553 
L 2631 2963 
z
" id="DejaVuSans-72" transform="scale(0.015625)"/>
       <path d="M 3263 -1063 
L 3263 -1509 
L -63 -1509 
L -63 -1063 
L 3263 -1063 
z
" id="DejaVuSans-5f" transform="scale(0.015625)"/>
       <path d="M 1159 525 
L 1159 -1331 
L 581 -1331 
L 581 3500 
L 1159 3500 
L 1159 2969 
Q 1341 3281 1617 3432 
Q 1894 3584 2278 3584 
Q 2916 3584 3314 3078 
Q 3713 2572 3713 1747 
Q 3713 922 3314 415 
Q 2916 -91 2278 -91 
Q 1894 -91 1617 61 
Q 1341 213 1159 525 
z
M 3116 1747 
Q 3116 2381 2855 2742 
Q 2594 3103 2138 3103 
Q 1681 3103 1420 2742 
Q 1159 2381 1159 1747 
Q 1159 1113 1420 752 
Q 1681 391 2138 391 
Q 2594 391 2855 752 
Q 3116 1113 3116 1747 
z
" id="DejaVuSans-70" transform="scale(0.015625)"/>
       <path d="M 3597 1894 
L 3597 1613 
L 953 1613 
Q 991 1019 1311 708 
Q 1631 397 2203 397 
Q 2534 397 2845 478 
Q 3156 559 3463 722 
L 3463 178 
Q 3153 47 2828 -22 
Q 2503 -91 2169 -91 
Q 1331 -91 842 396 
Q 353 884 353 1716 
Q 353 2575 817 3079 
Q 1281 3584 2069 3584 
Q 2775 3584 3186 3129 
Q 3597 2675 3597 1894 
z
M 3022 2063 
Q 3016 2534 2758 2815 
Q 2500 3097 2075 3097 
Q 1594 3097 1305 2825 
Q 1016 2553 972 2059 
L 3022 2063 
z
" id="DejaVuSans-65" transform="scale(0.015625)"/>
       <path d="M 2834 3397 
L 2834 2853 
Q 2591 2978 2328 3040 
Q 2066 3103 1784 3103 
Q 1356 3103 1142 2972 
Q 928 2841 928 2578 
Q 928 2378 1081 2264 
Q 1234 2150 1697 2047 
L 1894 2003 
Q 2506 1872 2764 1633 
Q 3022 1394 3022 966 
Q 3022 478 2636 193 
Q 2250 -91 1575 -91 
Q 1294 -91 989 -36 
Q 684 19 347 128 
L 347 722 
Q 666 556 975 473 
Q 1284 391 1588 391 
Q 1994 391 2212 530 
Q 2431 669 2431 922 
Q 2431 1156 2273 1281 
Q 2116 1406 1581 1522 
L 1381 1569 
Q 847 1681 609 1914 
Q 372 2147 372 2553 
Q 372 3047 722 3315 
Q 1072 3584 1716 3584 
Q 2034 3584 2315 3537 
Q 2597 3491 2834 3397 
z
" id="DejaVuSans-73" transform="scale(0.015625)"/>
       <path d="M 544 1381 
L 544 3500 
L 1119 3500 
L 1119 1403 
Q 1119 906 1312 657 
Q 1506 409 1894 409 
Q 2359 409 2629 706 
Q 2900 1003 2900 1516 
L 2900 3500 
L 3475 3500 
L 3475 0 
L 2900 0 
L 2900 538 
Q 2691 219 2414 64 
Q 2138 -91 1772 -91 
Q 1169 -91 856 284 
Q 544 659 544 1381 
z
M 1991 3584 
L 1991 3584 
z
" id="DejaVuSans-75" transform="scale(0.015625)"/>
       <path id="DejaVuSans-20" transform="scale(0.015625)"/>
       <path d="M 2375 4863 
L 2375 4384 
L 1825 4384 
Q 1516 4384 1395 4259 
Q 1275 4134 1275 3809 
L 1275 3500 
L 2222 3500 
L 2222 3053 
L 1275 3053 
L 1275 0 
L 697 0 
L 697 3053 
L 147 3053 
L 147 3500 
L 697 3500 
L 697 3744 
Q 697 4328 969 4595 
Q 1241 4863 1831 4863 
L 2375 4863 
z
" id="DejaVuSans-66" transform="scale(0.015625)"/>
       <path d="M 1959 3097 
Q 1497 3097 1228 2736 
Q 959 2375 959 1747 
Q 959 1119 1226 758 
Q 1494 397 1959 397 
Q 2419 397 2687 759 
Q 2956 1122 2956 1747 
Q 2956 2369 2687 2733 
Q 2419 3097 1959 3097 
z
M 1959 3584 
Q 2709 3584 3137 3096 
Q 3566 2609 3566 1747 
Q 3566 888 3137 398 
Q 2709 -91 1959 -91 
Q 1206 -91 779 398 
Q 353 888 353 1747 
Q 353 2609 779 3096 
Q 1206 3584 1959 3584 
z
" id="DejaVuSans-6f" transform="scale(0.015625)"/>
       <path d="M 3328 2828 
Q 3544 3216 3844 3400 
Q 4144 3584 4550 3584 
Q 5097 3584 5394 3201 
Q 5691 2819 5691 2113 
L 5691 0 
L 5113 0 
L 5113 2094 
Q 5113 2597 4934 2840 
Q 4756 3084 4391 3084 
Q 3944 3084 3684 2787 
Q 3425 2491 3425 1978 
L 3425 0 
L 2847 0 
L 2847 2094 
Q 2847 2600 2669 2842 
Q 2491 3084 2119 3084 
Q 1678 3084 1418 2786 
Q 1159 2488 1159 1978 
L 1159 0 
L 581 0 
L 581 3500 
L 1159 3500 
L 1159 2956 
Q 1356 3278 1631 3431 
Q 1906 3584 2284 3584 
Q 2666 3584 2933 3390 
Q 3200 3197 3328 2828 
z
" id="DejaVuSans-6d" transform="scale(0.015625)"/>
       <path d="M 213 4666 
L 850 4666 
L 1831 722 
L 2809 4666 
L 3519 4666 
L 4500 722 
L 5478 4666 
L 6119 4666 
L 4947 0 
L 4153 0 
L 3169 4050 
L 2175 0 
L 1381 0 
L 213 4666 
z
" id="DejaVuSans-57" transform="scale(0.015625)"/>
       <path d="M 1172 4494 
L 1172 3500 
L 2356 3500 
L 2356 3053 
L 1172 3053 
L 1172 1153 
Q 1172 725 1289 603 
Q 1406 481 1766 481 
L 2356 481 
L 2356 0 
L 1766 0 
Q 1100 0 847 248 
Q 594 497 594 1153 
L 594 3053 
L 172 3053 
L 172 3500 
L 594 3500 
L 594 4494 
L 1172 4494 
z
" id="DejaVuSans-74" transform="scale(0.015625)"/>
       <path d="M 3513 2113 
L 3513 0 
L 2938 0 
L 2938 2094 
Q 2938 2591 2744 2837 
Q 2550 3084 2163 3084 
Q 1697 3084 1428 2787 
Q 1159 2491 1159 1978 
L 1159 0 
L 581 0 
L 581 4863 
L 1159 4863 
L 1159 2956 
Q 1366 3272 1645 3428 
Q 1925 3584 2291 3584 
Q 2894 3584 3203 3211 
Q 3513 2838 3513 2113 
z
" id="DejaVuSans-68" transform="scale(0.015625)"/>
       <path d="M 1259 2228 
L 1259 519 
L 2272 519 
Q 2781 519 3026 730 
Q 3272 941 3272 1375 
Q 3272 1813 3026 2020 
Q 2781 2228 2272 2228 
L 1259 2228 
z
M 1259 4147 
L 1259 2741 
L 2194 2741 
Q 2656 2741 2882 2914 
Q 3109 3088 3109 3444 
Q 3109 3797 2882 3972 
Q 2656 4147 2194 4147 
L 1259 4147 
z
M 628 4666 
L 2241 4666 
Q 2963 4666 3353 4366 
Q 3744 4066 3744 3513 
Q 3744 3084 3544 2831 
Q 3344 2578 2956 2516 
Q 3422 2416 3680 2098 
Q 3938 1781 3938 1306 
Q 3938 681 3513 340 
Q 3088 0 2303 0 
L 628 0 
L 628 4666 
z
" id="DejaVuSans-42" transform="scale(0.015625)"/>
       <path d="M 628 4666 
L 1259 4666 
L 1259 0 
L 628 0 
L 628 4666 
z
" id="DejaVuSans-49" transform="scale(0.015625)"/>
       <path d="M 2522 4238 
Q 1834 4238 1429 3725 
Q 1025 3213 1025 2328 
Q 1025 1447 1429 934 
Q 1834 422 2522 422 
Q 3209 422 3611 934 
Q 4013 1447 4013 2328 
Q 4013 3213 3611 3725 
Q 3209 4238 2522 4238 
z
M 2522 4750 
Q 3503 4750 4090 4092 
Q 4678 3434 4678 2328 
Q 4678 1225 4090 567 
Q 3503 -91 2522 -91 
Q 1538 -91 948 565 
Q 359 1222 359 2328 
Q 359 3434 948 4092 
Q 1538 4750 2522 4750 
z
" id="DejaVuSans-4f" transform="scale(0.015625)"/>
      </defs>
      <use xlink:href="#DejaVuSans-61"/>
      <use x="61.279297" xlink:href="#DejaVuSans-69"/>
      <use x="89.0625" xlink:href="#DejaVuSans-72"/>
      <use x="130.175781" xlink:href="#DejaVuSans-5f"/>
      <use x="180.175781" xlink:href="#DejaVuSans-70"/>
      <use x="243.652344" xlink:href="#DejaVuSans-72"/>
      <use x="282.515625" xlink:href="#DejaVuSans-65"/>
      <use x="344.039062" xlink:href="#DejaVuSans-73"/>
      <use x="396.138672" xlink:href="#DejaVuSans-73"/>
      <use x="448.238281" xlink:href="#DejaVuSans-75"/>
      <use x="511.617188" xlink:href="#DejaVuSans-72"/>
      <use x="550.480469" xlink:href="#DejaVuSans-65"/>
      <use x="612.003906" xlink:href="#DejaVuSans-20"/>
      <use x="643.791016" xlink:href="#DejaVuSans-66"/>
      <use x="678.996094" xlink:href="#DejaVuSans-72"/>
      <use x="717.859375" xlink:href="#DejaVuSans-6f"/>
      <use x="779.041016" xlink:href="#DejaVuSans-6d"/>
      <use x="876.453125" xlink:href="#DejaVuSans-20"/>
      <use x="908.240234" xlink:href="#DejaVuSans-57"/>
      <use x="1001.242188" xlink:href="#DejaVuSans-65"/>
      <use x="1062.765625" xlink:href="#DejaVuSans-61"/>
      <use x="1124.044922" xlink:href="#DejaVuSans-74"/>
      <use x="1163.253906" xlink:href="#DejaVuSans-68"/>
      <use x="1226.632812" xlink:href="#DejaVuSans-65"/>
      <use x="1288.15625" xlink:href="#DejaVuSans-72"/>
      <use x="1329.269531" xlink:href="#DejaVuSans-42"/>
      <use x="1397.873047" xlink:href="#DejaVuSans-69"/>
      <use x="1425.65625" xlink:href="#DejaVuSans-74"/>
      <use x="1464.865234" xlink:href="#DejaVuSans-49"/>
      <use x="1494.357422" xlink:href="#DejaVuSans-4f"/>
     </g>
    </g>
   </g>
   <g id="matplotlib.axis_2">
    <g id="ytick_1">
     <g id="line2d_7">
      <defs>
       <path d="M 0 0 
L -3.5 0 
" id="m5ed70c8565" style="stroke:#000000;stroke-width:0.8;"/>
      </defs>
      <g>
       <use style="stroke:#000000;stroke-width:0.8;" x="57.6" xlink:href="#m5ed70c8565" y="292.890553"/>
      </g>
     </g>
     <g id="text_8">
      <!-- 5 -->
      <g transform="translate(44.2375 296.689771)scale(0.1 -0.1)">
       <use xlink:href="#DejaVuSans-35"/>
      </g>
     </g>
    </g>
    <g id="ytick_2">
     <g id="line2d_8">
      <g>
       <use style="stroke:#000000;stroke-width:0.8;" x="57.6" xlink:href="#m5ed70c8565" y="245.084775"/>
      </g>
     </g>
     <g id="text_9">
      <!-- 6 -->
      <g transform="translate(44.2375 248.883994)scale(0.1 -0.1)">
       <defs>
        <path d="M 2113 2584 
Q 1688 2584 1439 2293 
Q 1191 2003 1191 1497 
Q 1191 994 1439 701 
Q 1688 409 2113 409 
Q 2538 409 2786 701 
Q 3034 994 3034 1497 
Q 3034 2003 2786 2293 
Q 2538 2584 2113 2584 
z
M 3366 4563 
L 3366 3988 
Q 3128 4100 2886 4159 
Q 2644 4219 2406 4219 
Q 1781 4219 1451 3797 
Q 1122 3375 1075 2522 
Q 1259 2794 1537 2939 
Q 1816 3084 2150 3084 
Q 2853 3084 3261 2657 
Q 3669 2231 3669 1497 
Q 3669 778 3244 343 
Q 2819 -91 2113 -91 
Q 1303 -91 875 529 
Q 447 1150 447 2328 
Q 447 3434 972 4092 
Q 1497 4750 2381 4750 
Q 2619 4750 2861 4703 
Q 3103 4656 3366 4563 
z
" id="DejaVuSans-36" transform="scale(0.015625)"/>
       </defs>
       <use xlink:href="#DejaVuSans-36"/>
      </g>
     </g>
    </g>
    <g id="ytick_3">
     <g id="line2d_9">
      <g>
       <use style="stroke:#000000;stroke-width:0.8;" x="57.6" xlink:href="#m5ed70c8565" y="197.278997"/>
      </g>
     </g>
     <g id="text_10">
      <!-- 7 -->
      <g transform="translate(44.2375 201.078216)scale(0.1 -0.1)">
       <defs>
        <path d="M 525 4666 
L 3525 4666 
L 3525 4397 
L 1831 0 
L 1172 0 
L 2766 4134 
L 525 4134 
L 525 4666 
z
" id="DejaVuSans-37" transform="scale(0.015625)"/>
       </defs>
       <use xlink:href="#DejaVuSans-37"/>
      </g>
     </g>
    </g>
    <g id="ytick_4">
     <g id="line2d_10">
      <g>
       <use style="stroke:#000000;stroke-width:0.8;" x="57.6" xlink:href="#m5ed70c8565" y="149.47322"/>
      </g>
     </g>
     <g id="text_11">
      <!-- 8 -->
      <g transform="translate(44.2375 153.272438)scale(0.1 -0.1)">
       <defs>
        <path d="M 2034 2216 
Q 1584 2216 1326 1975 
Q 1069 1734 1069 1313 
Q 1069 891 1326 650 
Q 1584 409 2034 409 
Q 2484 409 2743 651 
Q 3003 894 3003 1313 
Q 3003 1734 2745 1975 
Q 2488 2216 2034 2216 
z
M 1403 2484 
Q 997 2584 770 2862 
Q 544 3141 544 3541 
Q 544 4100 942 4425 
Q 1341 4750 2034 4750 
Q 2731 4750 3128 4425 
Q 3525 4100 3525 3541 
Q 3525 3141 3298 2862 
Q 3072 2584 2669 2484 
Q 3125 2378 3379 2068 
Q 3634 1759 3634 1313 
Q 3634 634 3220 271 
Q 2806 -91 2034 -91 
Q 1263 -91 848 271 
Q 434 634 434 1313 
Q 434 1759 690 2068 
Q 947 2378 1403 2484 
z
M 1172 3481 
Q 1172 3119 1398 2916 
Q 1625 2713 2034 2713 
Q 2441 2713 2670 2916 
Q 2900 3119 2900 3481 
Q 2900 3844 2670 4047 
Q 2441 4250 2034 4250 
Q 1625 4250 1398 4047 
Q 1172 3844 1172 3481 
z
" id="DejaVuSans-38" transform="scale(0.015625)"/>
       </defs>
       <use xlink:href="#DejaVuSans-38"/>
      </g>
     </g>
    </g>
    <g id="ytick_5">
     <g id="line2d_11">
      <g>
       <use style="stroke:#000000;stroke-width:0.8;" x="57.6" xlink:href="#m5ed70c8565" y="101.667442"/>
      </g>
     </g>
     <g id="text_12">
      <!-- 9 -->
      <g transform="translate(44.2375 105.466661)scale(0.1 -0.1)">
       <use xlink:href="#DejaVuSans-39"/>
      </g>
     </g>
    </g>
    <g id="ytick_6">
     <g id="line2d_12">
      <g>
       <use style="stroke:#000000;stroke-width:0.8;" x="57.6" xlink:href="#m5ed70c8565" y="53.861664"/>
      </g>
     </g>
     <g id="text_13">
      <!-- 10 -->
      <g transform="translate(37.875 57.660883)scale(0.1 -0.1)">
       <use xlink:href="#DejaVuSans-31"/>
       <use x="63.623047" xlink:href="#DejaVuSans-30"/>
      </g>
     </g>
    </g>
   </g>
   <g id="line2d_13">
    <path clip-path="url(#pfa74bceb9f)" d="M 73.832727 269.988171 
L 75.855833 265.232737 
L 78.609171 281.815548 
L 82.092743 252.325177 
L 85.648142 277.534654 
L 87.288174 279.27653 
L 91.621689 281.522339 
L 93.153982 268.566104 
L 101.509767 275.198431 
L 113.229413 272.660741 
L 115.97078 270.89648 
L 126.194047 272.955543 
L 128.803733 286.619304 
L 128.971327 248.5985 
L 130.216315 276.891552 
L 130.766983 285.454581 
L 131.042317 275.815922 
L 139.290362 275.670912 
L 139.84103 295.488 
L 142.15144 270.146035 
L 145.766693 258.396845 
L 151.405052 267.455067 
L 153.559839 260.717264 
L 161.460724 281.64026 
L 166.60827 282.213929 
L 167.685664 245.507059 
L 167.925084 250.701954 
L 173.551472 246.956555 
L 174.269735 254.993609 
L 181.452357 232.055528 
L 184.325406 259.753794 
L 188.275849 252.333869 
L 190.430636 275.971653 
L 194.381078 267.585361 
L 197.732969 274.623965 
L 197.972389 252.604992 
L 199.528624 269.680848 
L 203.479067 274.523573 
L 204.317039 260.039291 
L 207.309799 280.018847 
L 210.302558 277.50506 
L 218.203443 269.525479 
L 219.161126 279.200716 
L 223.59041 262.694375 
L 231.491295 280.543624 
L 233.526372 234.961902 
L 236.27971 279.616482 
L 240.589284 243.55499 
L 240.828705 278.809095 
L 243.821464 232.325413 
L 245.497409 238.523432 
L 249.328142 264.389617 
L 251.123797 274.755089 
L 253.757426 244.893552 
L 253.877136 258.636757 
L 255.672792 239.013441 
L 256.510764 277.840425 
L 257.109316 241.581915 
L 257.707868 247.905316 
L 261.658311 254.785002 
L 261.778021 260.279045 
L 263.932808 243.901582 
L 264.411649 277.616607 
L 266.805857 253.244854 
L 267.643829 270.935749 
L 269.678906 227.569474 
L 270.636589 264.467362 
L 270.87601 251.423821 
L 270.99572 195.010396 
L 271.594272 281.152061 
L 273.270217 260.494171 
L 273.629348 242.31682 
L 273.868769 247.362379 
L 274.946163 243.99321 
L 276.262977 280.655688 
L 276.741818 248.784942 
L 277.34037 237.10121 
L 277.579791 226.685526 
L 279.136026 53.568 
L 279.614867 244.291996 
L 280.213419 278.610967 
L 280.692261 261.419326 
L 281.530233 280.333568 
L 281.769654 281.94303 
L 282.128785 239.121004 
L 282.487916 221.70775 
L 282.727337 245.458529 
L 283.56531 251.430992 
L 283.924441 229.675379 
L 284.642703 237.358166 
L 285.241255 252.740074 
L 285.600386 215.379 
L 285.720097 284.455489 
L 286.438359 255.207648 
L 286.558069 160.998396 
L 286.79749 280.116166 
L 286.9172 273.383957 
L 287.036911 253.482657 
L 287.156621 285.906563 
L 287.515752 280.03611 
L 287.994594 262.486078 
L 288.353725 255.245676 
L 288.473435 258.532908 
L 288.593146 247.861494 
L 288.712856 274.182558 
L 288.832566 253.853151 
L 288.952277 280.333568 
L 289.071987 236.123848 
L 289.431118 281.883272 
L 289.670539 271.87774 
L 289.790249 175.324194 
L 290.149381 274.867775 
L 290.508512 214.611064 
L 290.628222 274.659341 
L 290.987353 273.310103 
L 291.226774 209.887771 
L 291.346484 250.690002 
L 291.466195 249.833902 
L 291.705615 221.116153 
L 291.825326 274.514012 
L 292.184457 283.290283 
L 292.304167 270.071262 
L 292.663298 275.738523 
L 292.783009 209.560925 
L 293.02243 206.297216 
L 293.26185 274.249714 
L 293.381561 200.636434 
L 293.620981 255.823691 
L 293.740692 219.312149 
L 293.860402 230.942232 
L 294.219533 247.339116 
L 294.339244 207.557239 
L 294.578665 270.886236 
L 294.818085 250.764557 
L 295.177216 270.225669 
L 295.296927 239.706625 
L 295.536348 94.496575 
L 295.656058 257.904691 
L 295.895479 252.077456 
L 296.134899 269.246822 
L 296.494031 211.25422 
L 296.733451 267.880163 
L 296.853162 213.305884 
L 297.691134 268.24933 
L 298.529107 224.303971 
L 299.007949 279.632417 
L 299.48679 147.752212 
L 299.6065 277.893197 
L 299.726211 280.814813 
L 299.845921 162.037447 
L 300.085342 241.078651 
L 301.043025 238.34416 
L 301.282446 253.578268 
L 301.402156 278.560771 
L 301.761287 282.608327 
L 302.120418 280.726638 
L 302.71897 258.538118 
L 302.958391 262.147092 
L 303.078101 238.47454 
L 303.317522 230.48011 
L 303.437233 168.153327 
L 303.916074 274.672874 
L 304.035784 239.245115 
L 304.155495 277.162452 
L 304.394916 217.82353 
L 305.113178 251.469964 
L 305.352599 275.345832 
L 306.908833 262.892427 
L 307.028544 236.121192 
L 307.507385 279.069371 
L 307.986227 215.783248 
L 308.225648 154.375968 
L 308.8242 271.729667 
L 309.422751 205.075323 
L 310.260724 220.369188 
L 310.500145 236.019061 
L 310.859276 271.421413 
L 311.098697 226.668927 
L 311.577538 279.672255 
L 311.936669 223.557833 
L 312.05638 262.964136 
L 312.2958 195.307009 
L 312.774642 285.353175 
L 313.612615 224.000588 
L 314.809718 263.159705 
L 315.16885 218.516145 
L 317.203926 260.316431 
L 317.443347 279.915268 
L 317.563057 222.876335 
L 318.640451 261.442319 
L 320.795237 269.258563 
L 321.393789 222.138002 
L 321.63321 261.011454 
L 322.231762 267.874472 
L 324.027418 246.232114 
L 324.506259 286.098455 
L 325.823073 239.656646 
L 326.062494 273.668284 
L 326.541335 278.457988 
L 327.738439 259.64715 
L 327.85815 279.357172 
L 328.696122 265.250121 
L 329.653805 282.106366 
L 330.372068 261.004099 
L 330.970619 270.832967 
L 331.329751 262.298839 
L 331.808592 254.908862 
L 333.005696 255.984492 
L 333.604248 254.078237 
L 334.32251 257.386795 
L 335.160483 265.481907 
L 335.399903 223.022409 
L 335.759035 280.365439 
L 335.878745 270.879976 
L 336.477297 270.161561 
L 336.716718 277.959215 
L 336.956138 255.226955 
L 337.674401 275.809947 
L 338.153242 243.918314 
L 338.272953 267.059498 
L 338.392663 264.467845 
L 338.512373 283.778772 
L 338.991215 266.501763 
L 339.230636 268.930297 
L 339.589767 281.741183 
L 339.829187 282.886107 
L 339.948898 249.956981 
L 340.66716 120.015299 
L 340.906581 279.899333 
L 341.146002 276.598344 
L 341.265712 238.252226 
L 341.624843 243.658569 
L 341.744553 270.315194 
L 342.582526 276.740636 
L 342.941657 276.655711 
L 343.181078 281.211234 
L 343.420499 273.73782 
L 343.540209 282.931016 
L 343.77963 259.718288 
L 343.89934 272.343629 
L 344.258471 273.688565 
L 344.378182 276.149839 
L 344.857023 247.709747 
L 345.096444 258.201945 
L 345.455575 261.446302 
L 345.694996 189.138977 
L 345.934417 263.151682 
L 346.532969 232.511855 
L 346.772389 278.46424 
L 347.01181 244.188417 
L 347.131521 264.676452 
L 347.251231 244.231626 
L 347.370941 261.649477 
L 347.490652 261.434351 
L 347.849783 255.912784 
L 348.089204 259.812632 
L 348.208914 256.522307 
L 349.286307 267.450331 
L 349.525728 200.286415 
L 349.884859 251.086573 
L 350.12428 258.860488 
L 350.363701 279.532822 
L 350.722832 264.510994 
L 351.201673 260.595094 
L 351.321384 254.089335 
L 352.279067 255.104866 
L 352.518488 236.539014 
L 352.997329 264.390342 
L 353.35646 250.687612 
L 353.476171 270.963636 
L 353.835302 238.611076 
L 354.314143 257.633792 
L 354.433854 255.260887 
L 355.152116 244.439397 
L 355.391537 236.240706 
L 355.750668 280.030799 
L 356.229509 256.725482 
L 356.58864 261.342723 
L 356.828061 258.299089 
L 356.947772 242.907439 
L 357.067482 243.602796 
L 357.187192 234.267631 
L 357.546323 227.528103 
L 357.785744 229.687158 
L 358.025165 207.090214 
L 358.144875 267.362267 
L 358.384296 111.331038 
L 358.504006 272.068964 
L 359.102558 225.384242 
L 359.222269 268.892052 
L 360.658793 211.924949 
L 361.017924 277.508124 
L 361.496766 250.474876 
L 361.736187 246.386563 
L 361.975607 261.543 
L 362.095318 260.510106 
L 362.215028 274.030217 
L 362.454449 273.036548 
L 362.574159 256.614659 
L 362.69387 261.474508 
L 362.81358 244.98518 
L 362.93329 188.578346 
L 363.172711 276.716265 
L 363.292422 223.650403 
L 363.651553 263.203165 
L 364.010684 249.897223 
L 364.130394 257.198759 
L 364.369815 240.451598 
L 364.609236 273.40683 
L 364.728946 226.054092 
L 364.968367 281.350238 
L 365.207788 237.378749 
L 365.327498 272.068746 
L 365.686629 220.49667 
L 366.165471 248.103368 
L 366.285181 274.797472 
L 366.524602 214.839653 
L 366.883733 266.250783 
L 367.003443 243.69044 
L 367.242864 259.016972 
L 367.601995 210.50071 
L 367.721706 262.569219 
L 367.961126 235.419316 
L 368.080837 237.727031 
L 368.200547 261.334756 
L 368.320257 224.436836 
L 368.439968 254.139189 
L 368.679389 182.060825 
L 368.918809 276.967814 
L 369.03852 272.1787 
L 369.15823 272.258376 
L 369.517361 197.950668 
L 369.637072 268.007645 
L 369.756782 259.726381 
L 369.876492 162.932385 
L 369.996203 267.3275 
L 370.115913 274.51027 
L 370.235623 169.176555 
L 370.475044 254.538997 
L 370.594755 276.536631 
L 370.834175 259.228456 
L 370.953886 266.545585 
L 371.073596 258.65538 
L 371.193307 280.54563 
L 371.313017 235.22943 
L 371.791858 266.72941 
L 371.911569 245.519011 
L 372.510121 252.370376 
L 373.348093 244.732751 
L 373.587514 215.653489 
L 374.066356 275.828236 
L 374.186066 257.437788 
L 374.305776 218.861133 
L 374.545197 277.108909 
L 374.784618 284.775522 
L 374.904328 265.841175 
L 375.50288 259.761149 
L 375.862011 282.931016 
L 376.221142 275.020753 
L 376.340853 282.875242 
L 376.699984 251.729778 
L 376.819694 261.414432 
L 376.939405 239.721836 
L 377.059115 262.739449 
L 378.016798 254.842465 
L 378.136508 218.036266 
L 378.49564 281.255362 
L 378.73506 281.673579 
L 379.333612 268.413995 
L 379.453323 273.538774 
L 379.692743 251.952872 
L 379.812454 217.21799 
L 380.051874 281.94303 
L 380.171585 281.898639 
L 380.530716 281.754619 
L 380.770137 274.161311 
L 381.248978 262.834377 
L 381.368689 276.333818 
L 381.488399 255.271389 
L 381.72782 159.383357 
L 381.84753 282.644181 
L 381.967241 247.31026 
L 382.086951 263.454145 
L 382.326372 249.566567 
L 382.685503 272.312338 
L 383.044634 281.508432 
L 383.164344 277.463628 
L 383.523475 271.260611 
L 383.643186 257.406714 
L 384.002317 278.936046 
L 384.122027 271.401856 
L 384.361448 197.342738 
L 385.319131 275.523397 
L 385.678262 256.639431 
L 385.917683 210.078994 
L 386.157104 275.52112 
L 386.516235 244.283109 
L 386.755656 258.082635 
L 387.952759 276.21696 
L 388.07247 223.619981 
L 388.311891 243.908017 
L 388.551311 225.356924 
L 388.671022 267.950646 
L 389.149863 254.376169 
L 389.389284 202.839177 
L 389.628705 235.686956 
L 390.107546 279.677036 
L 390.227257 277.248958 
L 390.346967 263.74098 
L 390.466677 269.848168 
L 390.825809 277.477535 
L 391.663781 282.476248 
L 392.382043 277.987621 
L 392.501754 279.202165 
L 392.980595 263.054436 
L 393.459437 277.062287 
L 393.818568 281.840589 
L 394.776251 277.25408 
L 395.015672 274.023206 
L 396.093065 279.435065 
L 396.691617 275.720924 
L 396.931038 273.406284 
L 398.008431 279.055561 
L 398.487273 263.471613 
L 398.487273 263.471613 
" style="fill:none;stroke:#0000ff;stroke-linecap:square;stroke-width:1.5;"/>
   </g>
   <g id="patch_3">
    <path d="M 57.6 307.584 
L 57.6 41.472 
" style="fill:none;stroke:#000000;stroke-linecap:square;stroke-linejoin:miter;stroke-width:0.8;"/>
   </g>
   <g id="patch_4">
    <path d="M 414.72 307.584 
L 414.72 41.472 
" style="fill:none;stroke:#000000;stroke-linecap:square;stroke-linejoin:miter;stroke-width:0.8;"/>
   </g>
   <g id="patch_5">
    <path d="M 57.6 307.584 
L 414.72 307.584 
" style="fill:none;stroke:#000000;stroke-linecap:square;stroke-linejoin:miter;stroke-width:0.8;"/>
   </g>
   <g id="patch_6">
    <path d="M 57.6 41.472 
L 414.72 41.472 
" style="fill:none;stroke:#000000;stroke-linecap:square;stroke-linejoin:miter;stroke-width:0.8;"/>
   </g>
   <g id="text_14">
    <!-- air_pressure-&gt;ping -->
    <g transform="translate(179.16 35.472)scale(0.12 -0.12)">
     <defs>
      <path d="M 313 2009 
L 1997 2009 
L 1997 1497 
L 313 1497 
L 313 2009 
z
" id="DejaVuSans-2d" transform="scale(0.015625)"/>
      <path d="M 678 3150 
L 678 3719 
L 4684 2266 
L 4684 1747 
L 678 294 
L 678 863 
L 3897 2003 
L 678 3150 
z
" id="DejaVuSans-3e" transform="scale(0.015625)"/>
      <path d="M 3513 2113 
L 3513 0 
L 2938 0 
L 2938 2094 
Q 2938 2591 2744 2837 
Q 2550 3084 2163 3084 
Q 1697 3084 1428 2787 
Q 1159 2491 1159 1978 
L 1159 0 
L 581 0 
L 581 3500 
L 1159 3500 
L 1159 2956 
Q 1366 3272 1645 3428 
Q 1925 3584 2291 3584 
Q 2894 3584 3203 3211 
Q 3513 2838 3513 2113 
z
" id="DejaVuSans-6e" transform="scale(0.015625)"/>
      <path d="M 2906 1791 
Q 2906 2416 2648 2759 
Q 2391 3103 1925 3103 
Q 1463 3103 1205 2759 
Q 947 2416 947 1791 
Q 947 1169 1205 825 
Q 1463 481 1925 481 
Q 2391 481 2648 825 
Q 2906 1169 2906 1791 
z
M 3481 434 
Q 3481 -459 3084 -895 
Q 2688 -1331 1869 -1331 
Q 1566 -1331 1297 -1286 
Q 1028 -1241 775 -1147 
L 775 -588 
Q 1028 -725 1275 -790 
Q 1522 -856 1778 -856 
Q 2344 -856 2625 -561 
Q 2906 -266 2906 331 
L 2906 616 
Q 2728 306 2450 153 
Q 2172 0 1784 0 
Q 1141 0 747 490 
Q 353 981 353 1791 
Q 353 2603 747 3093 
Q 1141 3584 1784 3584 
Q 2172 3584 2450 3431 
Q 2728 3278 2906 2969 
L 2906 3500 
L 3481 3500 
L 3481 434 
z
" id="DejaVuSans-67" transform="scale(0.015625)"/>
     </defs>
     <use xlink:href="#DejaVuSans-61"/>
     <use x="61.279297" xlink:href="#DejaVuSans-69"/>
     <use x="89.0625" xlink:href="#DejaVuSans-72"/>
     <use x="130.175781" xlink:href="#DejaVuSans-5f"/>
     <use x="180.175781" xlink:href="#DejaVuSans-70"/>
     <use x="243.652344" xlink:href="#DejaVuSans-72"/>
     <use x="282.515625" xlink:href="#DejaVuSans-65"/>
     <use x="344.039062" xlink:href="#DejaVuSans-73"/>
     <use x="396.138672" xlink:href="#DejaVuSans-73"/>
     <use x="448.238281" xlink:href="#DejaVuSans-75"/>
     <use x="511.617188" xlink:href="#DejaVuSans-72"/>
     <use x="550.480469" xlink:href="#DejaVuSans-65"/>
     <use x="612.003906" xlink:href="#DejaVuSans-2d"/>
     <use x="648.087891" xlink:href="#DejaVuSans-3e"/>
     <use x="731.876953" xlink:href="#DejaVuSans-70"/>
     <use x="795.353516" xlink:href="#DejaVuSans-69"/>
     <use x="823.136719" xlink:href="#DejaVuSans-6e"/>
     <use x="886.515625" xlink:href="#DejaVuSans-67"/>
    </g>
   </g>
  </g>
  <g id="legend_1">
   <g id="patch_7">
    <path d="M 415.451563 22.678125 
L 453.8 22.678125 
Q 455.8 22.678125 455.8 20.678125 
L 455.8 7 
Q 455.8 5 453.8 5 
L 415.451563 5 
Q 413.451563 5 413.451563 7 
L 413.451563 20.678125 
Q 413.451563 22.678125 415.451563 22.678125 
z
" style="fill:#ffffff;opacity:0.8;stroke:#cccccc;stroke-linejoin:miter;"/>
   </g>
   <g id="line2d_14">
    <path d="M 417.451563 13.098438 
L 437.451563 13.098438 
" style="fill:none;stroke:#0000ff;stroke-linecap:square;stroke-width:1.5;"/>
   </g>
   <g id="line2d_15"/>
   <g id="text_15">
    <!-- p -->
    <g transform="translate(445.451563 16.598438)scale(0.1 -0.1)">
     <use xlink:href="#DejaVuSans-70"/>
    </g>
   </g>
  </g>
 </g>
 <defs>
  <clipPath id="pfa74bceb9f">
   <rect height="266.112" width="357.12" x="57.6" y="41.472"/>
  </clipPath>
 </defs>
</svg>
