<?xml version="1.0" encoding="utf-8" standalone="no"?>
<!DOCTYPE svg PUBLIC "-//W3C//DTD SVG 1.1//EN"
  "http://www.w3.org/Graphics/SVG/1.1/DTD/svg11.dtd">
<!-- Created with matplotlib (https://matplotlib.org/) -->
<svg height="2090.594375pt" version="1.1" viewBox="0 0 2062.259375 2090.594375" width="2062.259375pt" xmlns="http://www.w3.org/2000/svg" xmlns:xlink="http://www.w3.org/1999/xlink">
 <metadata>
  <rdf:RDF xmlns:cc="http://creativecommons.org/ns#" xmlns:dc="http://purl.org/dc/elements/1.1/" xmlns:rdf="http://www.w3.org/1999/02/22-rdf-syntax-ns#">
   <cc:Work>
    <dc:type rdf:resource="http://purl.org/dc/dcmitype/StillImage"/>
    <dc:date>2022-07-24T11:55:15.108127</dc:date>
    <dc:format>image/svg+xml</dc:format>
    <dc:creator>
     <cc:Agent>
      <dc:title>Matplotlib v3.3.2, https://matplotlib.org/</dc:title>
     </cc:Agent>
    </dc:creator>
   </cc:Work>
  </rdf:RDF>
 </metadata>
 <defs>
  <style type="text/css">*{stroke-linecap:butt;stroke-linejoin:round;}</style>
 </defs>
 <g id="figure_1">
  <g id="patch_1">
   <path d="M 0 2090.594375 
L 2062.259375 2090.594375 
L 2062.259375 0 
L 0 0 
z
" style="fill:#ffffff;"/>
  </g>
  <g id="axes_1">
   <g id="patch_2">
    <path d="M 44.059375 2052.76 
L 1829.659375 2052.76 
L 1829.659375 278.68 
L 44.059375 278.68 
z
" style="fill:#ffffff;"/>
   </g>
   <g id="matplotlib.axis_1">
    <g id="xtick_1">
     <g id="line2d_1">
      <defs>
       <path d="M 0 0 
L 0 3.5 
" id="mef8b06c0d1" style="stroke:#000000;stroke-width:0.8;"/>
      </defs>
      <g>
       <use style="stroke:#000000;stroke-width:0.8;" x="110.330601" xlink:href="#mef8b06c0d1" y="2052.76"/>
      </g>
     </g>
     <g id="text_1">
      <text style="font-family:DejaVu Sans;font-size:10px;font-stretch:normal;font-style:normal;font-weight:normal;text-anchor:middle;" transform="rotate(-0, 110.330601, 2067.358437)" x="110.330601" y="2067.358437">0</text>
     </g>
    </g>
    <g id="xtick_2">
     <g id="line2d_2">
      <g>
       <use style="stroke:#000000;stroke-width:0.8;" x="408.178808" xlink:href="#mef8b06c0d1" y="2052.76"/>
      </g>
     </g>
     <g id="text_2">
      <text style="font-family:DejaVu Sans;font-size:10px;font-stretch:normal;font-style:normal;font-weight:normal;text-anchor:middle;" transform="rotate(-0, 408.178808, 2067.358437)" x="408.178808" y="2067.358437">2</text>
     </g>
    </g>
    <g id="xtick_3">
     <g id="line2d_3">
      <g>
       <use style="stroke:#000000;stroke-width:0.8;" x="706.027015" xlink:href="#mef8b06c0d1" y="2052.76"/>
      </g>
     </g>
     <g id="text_3">
      <text style="font-family:DejaVu Sans;font-size:10px;font-stretch:normal;font-style:normal;font-weight:normal;text-anchor:middle;" transform="rotate(-0, 706.027015, 2067.358437)" x="706.027015" y="2067.358437">4</text>
     </g>
    </g>
    <g id="xtick_4">
     <g id="line2d_4">
      <g>
       <use style="stroke:#000000;stroke-width:0.8;" x="1003.875222" xlink:href="#mef8b06c0d1" y="2052.76"/>
      </g>
     </g>
     <g id="text_4">
      <text style="font-family:DejaVu Sans;font-size:10px;font-stretch:normal;font-style:normal;font-weight:normal;text-anchor:middle;" transform="rotate(-0, 1003.875222, 2067.358437)" x="1003.875222" y="2067.358437">6</text>
     </g>
    </g>
    <g id="xtick_5">
     <g id="line2d_5">
      <g>
       <use style="stroke:#000000;stroke-width:0.8;" x="1301.723428" xlink:href="#mef8b06c0d1" y="2052.76"/>
      </g>
     </g>
     <g id="text_5">
      <text style="font-family:DejaVu Sans;font-size:10px;font-stretch:normal;font-style:normal;font-weight:normal;text-anchor:middle;" transform="rotate(-0, 1301.723428, 2067.358437)" x="1301.723428" y="2067.358437">8</text>
     </g>
    </g>
    <g id="xtick_6">
     <g id="line2d_6">
      <g>
       <use style="stroke:#000000;stroke-width:0.8;" x="1599.571635" xlink:href="#mef8b06c0d1" y="2052.76"/>
      </g>
     </g>
     <g id="text_6">
      <text style="font-family:DejaVu Sans;font-size:10px;font-stretch:normal;font-style:normal;font-weight:normal;text-anchor:middle;" transform="rotate(-0, 1599.571635, 2067.358437)" x="1599.571635" y="2067.358437">10</text>
     </g>
    </g>
    <g id="text_7">
     <text style="font-family:DejaVu Sans;font-size:10px;font-stretch:normal;font-style:normal;font-weight:normal;text-anchor:middle;" transform="rotate(-0, 936.859375, 2081.036562)" x="936.859375" y="2081.036562">wind_speed from BuienRadar</text>
    </g>
   </g>
   <g id="matplotlib.axis_2">
    <g id="ytick_1">
     <g id="line2d_7">
      <defs>
       <path d="M 0 0 
L -3.5 0 
" id="mf35dab6f8b" style="stroke:#000000;stroke-width:0.8;"/>
      </defs>
      <g>
       <use style="stroke:#000000;stroke-width:0.8;" x="44.059375" xlink:href="#mf35dab6f8b" y="1979.089052"/>
      </g>
     </g>
     <g id="text_8">
      <text style="font-family:DejaVu Sans;font-size:10px;font-stretch:normal;font-style:normal;font-weight:normal;text-anchor:end;" transform="rotate(-0, 37.059375, 1982.888271)" x="37.059375" y="1982.888271">0.0</text>
     </g>
    </g>
    <g id="ytick_2">
     <g id="line2d_8">
      <g>
       <use style="stroke:#000000;stroke-width:0.8;" x="44.059375" xlink:href="#mf35dab6f8b" y="1738.411605"/>
      </g>
     </g>
     <g id="text_9">
      <text style="font-family:DejaVu Sans;font-size:10px;font-stretch:normal;font-style:normal;font-weight:normal;text-anchor:end;" transform="rotate(-0, 37.059375, 1742.210824)" x="37.059375" y="1742.210824">0.2</text>
     </g>
    </g>
    <g id="ytick_3">
     <g id="line2d_9">
      <g>
       <use style="stroke:#000000;stroke-width:0.8;" x="44.059375" xlink:href="#mf35dab6f8b" y="1497.734158"/>
      </g>
     </g>
     <g id="text_10">
      <text style="font-family:DejaVu Sans;font-size:10px;font-stretch:normal;font-style:normal;font-weight:normal;text-anchor:end;" transform="rotate(-0, 37.059375, 1501.533377)" x="37.059375" y="1501.533377">0.4</text>
     </g>
    </g>
    <g id="ytick_4">
     <g id="line2d_10">
      <g>
       <use style="stroke:#000000;stroke-width:0.8;" x="44.059375" xlink:href="#mf35dab6f8b" y="1257.056711"/>
      </g>
     </g>
     <g id="text_11">
      <text style="font-family:DejaVu Sans;font-size:10px;font-stretch:normal;font-style:normal;font-weight:normal;text-anchor:end;" transform="rotate(-0, 37.059375, 1260.85593)" x="37.059375" y="1260.85593">0.6</text>
     </g>
    </g>
    <g id="ytick_5">
     <g id="line2d_11">
      <g>
       <use style="stroke:#000000;stroke-width:0.8;" x="44.059375" xlink:href="#mf35dab6f8b" y="1016.379264"/>
      </g>
     </g>
     <g id="text_12">
      <text style="font-family:DejaVu Sans;font-size:10px;font-stretch:normal;font-style:normal;font-weight:normal;text-anchor:end;" transform="rotate(-0, 37.059375, 1020.178482)" x="37.059375" y="1020.178482">0.8</text>
     </g>
    </g>
    <g id="ytick_6">
     <g id="line2d_12">
      <g>
       <use style="stroke:#000000;stroke-width:0.8;" x="44.059375" xlink:href="#mf35dab6f8b" y="775.701817"/>
      </g>
     </g>
     <g id="text_13">
      <text style="font-family:DejaVu Sans;font-size:10px;font-stretch:normal;font-style:normal;font-weight:normal;text-anchor:end;" transform="rotate(-0, 37.059375, 779.501035)" x="37.059375" y="779.501035">1.0</text>
     </g>
    </g>
    <g id="ytick_7">
     <g id="line2d_13">
      <g>
       <use style="stroke:#000000;stroke-width:0.8;" x="44.059375" xlink:href="#mf35dab6f8b" y="535.024369"/>
      </g>
     </g>
     <g id="text_14">
      <text style="font-family:DejaVu Sans;font-size:10px;font-stretch:normal;font-style:normal;font-weight:normal;text-anchor:end;" transform="rotate(-0, 37.059375, 538.823588)" x="37.059375" y="538.823588">1.2</text>
     </g>
    </g>
    <g id="ytick_8">
     <g id="line2d_14">
      <g>
       <use style="stroke:#000000;stroke-width:0.8;" x="44.059375" xlink:href="#mf35dab6f8b" y="294.346922"/>
      </g>
     </g>
     <g id="text_15">
      <text style="font-family:DejaVu Sans;font-size:10px;font-stretch:normal;font-style:normal;font-weight:normal;text-anchor:end;" transform="rotate(-0, 37.059375, 298.146141)" x="37.059375" y="298.146141">1.4</text>
     </g>
    </g>
    <g id="text_16">
     <text style="font-family:DejaVu Sans;font-size:10px;font-stretch:normal;font-style:normal;font-weight:normal;text-anchor:middle;" transform="rotate(-90, 14.798438, 1165.72)" x="14.798438" y="1165.72">Throughput_day[Bit/s]</text>
    </g>
    <g id="text_17">
     <text style="font-family:DejaVu Sans;font-size:10px;font-stretch:normal;font-style:normal;font-weight:normal;text-anchor:start;" transform="rotate(-0, 44.059375, 275.68)" x="44.059375" y="275.68">1e7</text>
    </g>
   </g>
   <g id="line2d_15">
    <path clip-path="url(#pce443acb51)" d="M 125.223011 426.923746 
L 140.115422 428.320179 
L 155.007832 412.973422 
L 169.900242 1972.119876 
L 184.792653 1955.393775 
L 199.685063 1553.232312 
L 214.577473 593.526893 
L 229.469884 609.588124 
L 244.362294 1817.390274 
L 259.254704 863.283205 
L 274.147115 466.661656 
L 289.039525 1378.302624 
L 303.931935 739.154934 
L 318.824346 1138.532767 
L 333.716756 649.955499 
L 348.609166 824.901711 
L 363.501577 1763.724687 
L 378.393987 822.826979 
L 393.286398 961.548413 
L 408.178808 623.514459 
L 423.071218 1681.485466 
L 437.963629 1687.776842 
L 452.856039 1966.544618 
L 467.748449 1855.030321 
L 482.64086 1068.852921 
L 497.53327 1050.030596 
L 512.42568 1963.756909 
L 527.318091 1972.119892 
L 542.210501 942.772537 
L 557.102911 1959.575335 
L 571.995322 1937.271712 
L 586.887732 1623.646134 
L 601.780142 1972.119952 
L 616.672553 1894.059473 
L 631.564963 1972.12 
L 646.457373 1845.270792 
L 661.349784 1969.332198 
L 676.242194 1963.756849 
L 691.134604 1511.420943 
L 706.027015 1891.271258 
L 720.919425 1966.544512 
L 735.811835 788.647566 
L 750.704246 1972.119872 
L 765.596656 1099.495189 
L 780.489066 1772.084667 
L 795.381477 1324.655392 
L 810.273887 908.588144 
L 825.166297 1797.177945 
L 840.058708 812.362846 
L 854.951118 1137.885165 
L 869.843528 1259.799792 
L 884.735939 830.483123 
L 899.628349 1032.583206 
L 914.520759 1271.688517 
L 929.41317 1222.859776 
L 944.30558 868.837324 
L 959.197991 1375.516502 
L 974.090401 889.027808 
L 988.982811 647.856583 
L 1003.875222 574.72336 
L 1018.767632 1138.540416 
L 1033.660042 835.378608 
L 1048.552453 1315.561105 
L 1063.444863 1521.881464 
L 1078.337273 1006.83763 
L 1093.229684 1499.586854 
L 1108.122094 1070.228311 
L 1123.014504 1091.199213 
L 1137.906915 942.692122 
L 1152.799325 1498.17766 
L 1167.691735 1579.734766 
L 1182.584146 1920.547878 
L 1197.476556 1320.452566 
L 1212.368966 1625.725068 
L 1227.261377 1014.481269 
L 1242.153787 570.498807 
L 1257.046197 767.03792 
L 1271.938608 1153.869021 
L 1286.831018 456.181657 
L 1301.723428 552.427197 
L 1316.615839 416.46567 
L 1331.508249 401.901219 
L 1346.400659 1059.203586 
L 1361.29307 402.510829 
L 1376.18548 463.862862 
L 1391.07789 465.249548 
L 1420.862711 1314.183894 
L 1435.755121 369.79393 
L 1450.647532 449.925938 
L 1480.432352 1388.759564 
L 1525.109584 395.609867 
L 1540.001994 359.32 
L 1554.894404 363.523334 
L 1733.603328 361.44926 
L 1748.495739 843.742235 
" style="fill:none;stroke:#0000ff;stroke-linecap:square;stroke-width:1.5;"/>
   </g>
   <g id="patch_3">
    <path d="M 44.059375 2052.76 
L 44.059375 278.68 
" style="fill:none;stroke:#000000;stroke-linecap:square;stroke-linejoin:miter;stroke-width:0.8;"/>
   </g>
   <g id="patch_4">
    <path d="M 1829.659375 2052.76 
L 1829.659375 278.68 
" style="fill:none;stroke:#000000;stroke-linecap:square;stroke-linejoin:miter;stroke-width:0.8;"/>
   </g>
   <g id="patch_5">
    <path d="M 44.059375 2052.76 
L 1829.659375 2052.76 
" style="fill:none;stroke:#000000;stroke-linecap:square;stroke-linejoin:miter;stroke-width:0.8;"/>
   </g>
   <g id="patch_6">
    <path d="M 44.059375 278.68 
L 1829.659375 278.68 
" style="fill:none;stroke:#000000;stroke-linecap:square;stroke-linejoin:miter;stroke-width:0.8;"/>
   </g>
   <g id="text_18">
    <text style="font-family:DejaVu Sans;font-size:12px;font-stretch:normal;font-style:normal;font-weight:normal;text-anchor:middle;" transform="rotate(-0, 936.859375, 272.68)" x="936.859375" y="272.68">wind_speed-&gt;Throughput_day</text>
   </g>
  </g>
  <g id="legend_1">
   <g id="patch_7">
    <path d="M 1911.84375 22.95625 
L 2055.259375 22.95625 
Q 2057.259375 22.95625 2057.259375 20.95625 
L 2057.259375 7 
Q 2057.259375 5 2055.259375 5 
L 1911.84375 5 
Q 1909.84375 5 1909.84375 7 
L 1909.84375 20.95625 
Q 1909.84375 22.95625 1911.84375 22.95625 
z
" style="fill:#ffffff;opacity:0.8;stroke:#cccccc;stroke-linejoin:miter;"/>
   </g>
   <g id="line2d_16">
    <path d="M 1913.84375 13.098438 
L 1933.84375 13.098438 
" style="fill:none;stroke:#0000ff;stroke-linecap:square;stroke-width:1.5;"/>
   </g>
   <g id="line2d_17"/>
   <g id="text_19">
    <text style="font-family:DejaVu Sans;font-size:10px;font-stretch:normal;font-style:normal;font-weight:normal;text-anchor:start;" transform="rotate(-0, 1941.84375, 16.598438)" x="1941.84375" y="16.598438">Throughput_day[Bit/s]</text>
   </g>
  </g>
 </g>
 <defs>
  <clipPath id="pce443acb51">
   <rect height="1774.08" width="1785.6" x="44.059375" y="278.68"/>
  </clipPath>
 </defs>
</svg>
