<?xml version="1.0" encoding="utf-8" standalone="no"?>
<!DOCTYPE svg PUBLIC "-//W3C//DTD SVG 1.1//EN"
  "http://www.w3.org/Graphics/SVG/1.1/DTD/svg11.dtd">
<!-- Created with matplotlib (https://matplotlib.org/) -->
<svg height="2090.594375pt" version="1.1" viewBox="0 0 2062.259375 2090.594375" width="2062.259375pt" xmlns="http://www.w3.org/2000/svg" xmlns:xlink="http://www.w3.org/1999/xlink">
 <metadata>
  <rdf:RDF xmlns:cc="http://creativecommons.org/ns#" xmlns:dc="http://purl.org/dc/elements/1.1/" xmlns:rdf="http://www.w3.org/1999/02/22-rdf-syntax-ns#">
   <cc:Work>
    <dc:type rdf:resource="http://purl.org/dc/dcmitype/StillImage"/>
    <dc:date>2022-07-24T11:55:17.348032</dc:date>
    <dc:format>image/svg+xml</dc:format>
    <dc:creator>
     <cc:Agent>
      <dc:title>Matplotlib v3.3.2, https://matplotlib.org/</dc:title>
     </cc:Agent>
    </dc:creator>
   </cc:Work>
  </rdf:RDF>
 </metadata>
 <defs>
  <style type="text/css">*{stroke-linecap:butt;stroke-linejoin:round;}</style>
 </defs>
 <g id="figure_1">
  <g id="patch_1">
   <path d="M 0 2090.594375 
L 2062.259375 2090.594375 
L 2062.259375 0 
L 0 0 
z
" style="fill:#ffffff;"/>
  </g>
  <g id="axes_1">
   <g id="patch_2">
    <path d="M 44.059375 2052.76 
L 1829.659375 2052.76 
L 1829.659375 278.68 
L 44.059375 278.68 
z
" style="fill:#ffffff;"/>
   </g>
   <g id="matplotlib.axis_1">
    <g id="xtick_1">
     <g id="line2d_1">
      <defs>
       <path d="M 0 0 
L 0 3.5 
" id="m36d1abe6b0" style="stroke:#000000;stroke-width:0.8;"/>
      </defs>
      <g>
       <use style="stroke:#000000;stroke-width:0.8;" x="143.953081" xlink:href="#m36d1abe6b0" y="2052.76"/>
      </g>
     </g>
     <g id="text_1">
      <text style="font-family:DejaVu Sans;font-size:10px;font-stretch:normal;font-style:normal;font-weight:normal;text-anchor:middle;" transform="rotate(-0, 143.953081, 2067.358437)" x="143.953081" y="2067.358437">1005</text>
     </g>
    </g>
    <g id="xtick_2">
     <g id="line2d_2">
      <g>
       <use style="stroke:#000000;stroke-width:0.8;" x="456.120913" xlink:href="#m36d1abe6b0" y="2052.76"/>
      </g>
     </g>
     <g id="text_2">
      <text style="font-family:DejaVu Sans;font-size:10px;font-stretch:normal;font-style:normal;font-weight:normal;text-anchor:middle;" transform="rotate(-0, 456.120913, 2067.358437)" x="456.120913" y="2067.358437">1010</text>
     </g>
    </g>
    <g id="xtick_3">
     <g id="line2d_3">
      <g>
       <use style="stroke:#000000;stroke-width:0.8;" x="768.288746" xlink:href="#m36d1abe6b0" y="2052.76"/>
      </g>
     </g>
     <g id="text_3">
      <text style="font-family:DejaVu Sans;font-size:10px;font-stretch:normal;font-style:normal;font-weight:normal;text-anchor:middle;" transform="rotate(-0, 768.288746, 2067.358437)" x="768.288746" y="2067.358437">1015</text>
     </g>
    </g>
    <g id="xtick_4">
     <g id="line2d_4">
      <g>
       <use style="stroke:#000000;stroke-width:0.8;" x="1080.456578" xlink:href="#m36d1abe6b0" y="2052.76"/>
      </g>
     </g>
     <g id="text_4">
      <text style="font-family:DejaVu Sans;font-size:10px;font-stretch:normal;font-style:normal;font-weight:normal;text-anchor:middle;" transform="rotate(-0, 1080.456578, 2067.358437)" x="1080.456578" y="2067.358437">1020</text>
     </g>
    </g>
    <g id="xtick_5">
     <g id="line2d_5">
      <g>
       <use style="stroke:#000000;stroke-width:0.8;" x="1392.62441" xlink:href="#m36d1abe6b0" y="2052.76"/>
      </g>
     </g>
     <g id="text_5">
      <text style="font-family:DejaVu Sans;font-size:10px;font-stretch:normal;font-style:normal;font-weight:normal;text-anchor:middle;" transform="rotate(-0, 1392.62441, 2067.358437)" x="1392.62441" y="2067.358437">1025</text>
     </g>
    </g>
    <g id="xtick_6">
     <g id="line2d_6">
      <g>
       <use style="stroke:#000000;stroke-width:0.8;" x="1704.792242" xlink:href="#m36d1abe6b0" y="2052.76"/>
      </g>
     </g>
     <g id="text_6">
      <text style="font-family:DejaVu Sans;font-size:10px;font-stretch:normal;font-style:normal;font-weight:normal;text-anchor:middle;" transform="rotate(-0, 1704.792242, 2067.358437)" x="1704.792242" y="2067.358437">1030</text>
     </g>
    </g>
    <g id="text_7">
     <text style="font-family:DejaVu Sans;font-size:10px;font-stretch:normal;font-style:normal;font-weight:normal;text-anchor:middle;" transform="rotate(-0, 936.859375, 2081.036562)" x="936.859375" y="2081.036562">air_pressure from BuienRadar</text>
    </g>
   </g>
   <g id="matplotlib.axis_2">
    <g id="ytick_1">
     <g id="line2d_7">
      <defs>
       <path d="M 0 0 
L -3.5 0 
" id="m5b84995700" style="stroke:#000000;stroke-width:0.8;"/>
      </defs>
      <g>
       <use style="stroke:#000000;stroke-width:0.8;" x="44.059375" xlink:href="#m5b84995700" y="1978.964816"/>
      </g>
     </g>
     <g id="text_8">
      <text style="font-family:DejaVu Sans;font-size:10px;font-stretch:normal;font-style:normal;font-weight:normal;text-anchor:end;" transform="rotate(-0, 37.059375, 1982.764035)" x="37.059375" y="1982.764035">0.0</text>
     </g>
    </g>
    <g id="ytick_2">
     <g id="line2d_8">
      <g>
       <use style="stroke:#000000;stroke-width:0.8;" x="44.059375" xlink:href="#m5b84995700" y="1742.577882"/>
      </g>
     </g>
     <g id="text_9">
      <text style="font-family:DejaVu Sans;font-size:10px;font-stretch:normal;font-style:normal;font-weight:normal;text-anchor:end;" transform="rotate(-0, 37.059375, 1746.377101)" x="37.059375" y="1746.377101">0.2</text>
     </g>
    </g>
    <g id="ytick_3">
     <g id="line2d_9">
      <g>
       <use style="stroke:#000000;stroke-width:0.8;" x="44.059375" xlink:href="#m5b84995700" y="1506.190948"/>
      </g>
     </g>
     <g id="text_10">
      <text style="font-family:DejaVu Sans;font-size:10px;font-stretch:normal;font-style:normal;font-weight:normal;text-anchor:end;" transform="rotate(-0, 37.059375, 1509.990167)" x="37.059375" y="1509.990167">0.4</text>
     </g>
    </g>
    <g id="ytick_4">
     <g id="line2d_10">
      <g>
       <use style="stroke:#000000;stroke-width:0.8;" x="44.059375" xlink:href="#m5b84995700" y="1269.804014"/>
      </g>
     </g>
     <g id="text_11">
      <text style="font-family:DejaVu Sans;font-size:10px;font-stretch:normal;font-style:normal;font-weight:normal;text-anchor:end;" transform="rotate(-0, 37.059375, 1273.603232)" x="37.059375" y="1273.603232">0.6</text>
     </g>
    </g>
    <g id="ytick_5">
     <g id="line2d_11">
      <g>
       <use style="stroke:#000000;stroke-width:0.8;" x="44.059375" xlink:href="#m5b84995700" y="1033.417079"/>
      </g>
     </g>
     <g id="text_12">
      <text style="font-family:DejaVu Sans;font-size:10px;font-stretch:normal;font-style:normal;font-weight:normal;text-anchor:end;" transform="rotate(-0, 37.059375, 1037.216298)" x="37.059375" y="1037.216298">0.8</text>
     </g>
    </g>
    <g id="ytick_6">
     <g id="line2d_12">
      <g>
       <use style="stroke:#000000;stroke-width:0.8;" x="44.059375" xlink:href="#m5b84995700" y="797.030145"/>
      </g>
     </g>
     <g id="text_13">
      <text style="font-family:DejaVu Sans;font-size:10px;font-stretch:normal;font-style:normal;font-weight:normal;text-anchor:end;" transform="rotate(-0, 37.059375, 800.829364)" x="37.059375" y="800.829364">1.0</text>
     </g>
    </g>
    <g id="ytick_7">
     <g id="line2d_13">
      <g>
       <use style="stroke:#000000;stroke-width:0.8;" x="44.059375" xlink:href="#m5b84995700" y="560.643211"/>
      </g>
     </g>
     <g id="text_14">
      <text style="font-family:DejaVu Sans;font-size:10px;font-stretch:normal;font-style:normal;font-weight:normal;text-anchor:end;" transform="rotate(-0, 37.059375, 564.44243)" x="37.059375" y="564.44243">1.2</text>
     </g>
    </g>
    <g id="ytick_8">
     <g id="line2d_14">
      <g>
       <use style="stroke:#000000;stroke-width:0.8;" x="44.059375" xlink:href="#m5b84995700" y="324.256277"/>
      </g>
     </g>
     <g id="text_15">
      <text style="font-family:DejaVu Sans;font-size:10px;font-stretch:normal;font-style:normal;font-weight:normal;text-anchor:end;" transform="rotate(-0, 37.059375, 328.055496)" x="37.059375" y="328.055496">1.4</text>
     </g>
    </g>
    <g id="text_16">
     <text style="font-family:DejaVu Sans;font-size:10px;font-stretch:normal;font-style:normal;font-weight:normal;text-anchor:middle;" transform="rotate(-90, 14.798438, 1165.72)" x="14.798438" y="1165.72">Throughput_day[Bit/s]</text>
    </g>
    <g id="text_17">
     <text style="font-family:DejaVu Sans;font-size:10px;font-stretch:normal;font-style:normal;font-weight:normal;text-anchor:start;" transform="rotate(-0, 44.059375, 275.68)" x="44.059375" y="275.68">1e7</text>
    </g>
   </g>
   <g id="line2d_15">
    <path clip-path="url(#pe7ecf7a2bc)" d="M 125.223011 416.835929 
L 137.709725 700.919805 
L 143.953081 524.29941 
L 150.196438 600.301104 
L 156.439795 1968.697376 
L 162.683151 1767.439712 
L 168.926508 1686.666555 
L 175.169865 425.047657 
L 181.413221 418.917484 
L 187.656578 1895.451044 
L 193.899934 1822.887744 
L 200.143291 1147.256609 
L 206.386648 1899.556333 
L 212.630004 1950.21455 
L 218.873361 1906.401391 
L 225.116718 457.187491 
L 231.360074 609.183278 
L 237.603431 427.088412 
L 243.846788 440.809573 
L 250.090144 386.039424 
L 256.333501 425.733134 
L 262.576858 471.571998 
L 268.820214 409.29857 
L 275.063571 368.89452 
L 281.306927 359.32 
L 287.550284 724.872099 
L 293.793641 372.316325 
L 306.280354 439.398471 
L 312.523711 453.774451 
L 318.767067 605.760261 
L 325.010424 486.661632 
L 331.253781 450.387898 
L 337.497137 412.728197 
L 343.740494 416.864826 
L 349.983851 707.835797 
L 356.227207 918.582126 
L 362.470564 649.579748 
L 368.71392 572.19698 
L 374.957277 1508.010616 
L 381.200634 540.719368 
L 387.44399 631.803419 
L 393.687347 1921.467245 
L 399.930704 419.558199 
L 406.17406 417.553417 
L 412.417417 433.226956 
L 418.660774 449.686078 
L 424.90413 378.499717 
L 431.147487 480.492506 
L 437.390844 1075.47798 
L 443.6342 407.248701 
L 449.877557 397.695267 
L 456.120913 863.857619 
L 462.36427 409.273927 
L 468.607627 881.642686 
L 474.850983 811.133142 
L 481.09434 520.901162 
L 487.337697 437.37995 
L 493.581053 545.572584 
L 499.82441 467.537811 
L 506.067767 927.547532 
L 512.311123 499.010927 
L 518.55448 590.677424 
L 524.797837 595.485252 
L 531.041193 1168.455832 
L 537.28455 598.269436 
L 543.527906 696.126453 
L 549.771263 1399.159024 
L 556.01462 1325.912801 
L 562.257976 1506.626544 
L 568.501333 1891.343222 
L 574.74469 598.212829 
L 580.988046 1853.692755 
L 587.231403 1586.729746 
L 593.47476 1024.045543 
L 599.718116 996.652657 
L 605.961473 1284.174981 
L 612.20483 1272.498195 
L 618.448186 928.165854 
L 624.691543 454.547572 
L 630.934899 1386.152044 
L 637.178256 672.189834 
L 643.421613 618.143915 
L 649.664969 637.258353 
L 655.908326 451.73239 
L 662.151683 420.930728 
L 668.395039 555.776968 
L 674.638396 959.655493 
L 680.881753 487.347368 
L 687.125109 1718.156482 
L 693.368466 1629.858314 
L 699.611823 538.668014 
L 705.855179 1653.821741 
L 712.098536 1966.643906 
L 718.341892 1787.292598 
L 724.585249 542.805769 
L 730.828606 472.962344 
L 737.071962 940.527075 
L 743.315319 774.863038 
L 749.558676 659.148059 
L 755.802032 580.435597 
L 762.045389 618.10282 
L 768.288746 1088.347899 
L 774.532102 596.874396 
L 780.775459 965.842668 
L 787.018816 1084.955299 
L 793.262172 1369.035584 
L 799.505529 856.973116 
L 805.748885 521.573166 
L 811.992242 1972.119878 
L 818.235599 791.950604 
L 824.478955 1820.148613 
L 830.722312 555.121886 
L 836.965669 883.050237 
L 843.209025 520.255425 
L 849.452382 442.838454 
L 855.695739 1066.468516 
L 861.939095 464.066874 
L 868.182452 1152.756918 
L 874.425809 1049.332157 
L 880.669165 843.315216 
L 886.912522 557.825088 
L 893.155878 511.99074 
L 899.399235 817.421188 
L 905.642592 624.246054 
L 911.885948 679.77219 
L 918.129305 965.158633 
L 924.372662 1036.461138 
L 930.616018 611.371216 
L 936.859375 1295.094989 
L 943.102732 547.620287 
L 949.346088 970.63063 
L 955.589445 1153.400487 
L 961.832802 973.366798 
L 968.076158 1006.20876 
L 974.319515 541.416714 
L 980.562872 755.679959 
L 986.806228 1153.392975 
L 993.049585 583.197651 
L 999.292941 637.944506 
L 1005.536298 979.563688 
L 1011.779655 1034.286382 
L 1018.023011 759.774925 
L 1024.266368 1972.119894 
L 1030.509725 1972.119953 
L 1036.753081 1143.822834 
L 1042.996438 1952.951477 
L 1049.239795 1963.905937 
L 1055.483151 1969.381895 
L 1061.726508 1972.12 
L 1067.969865 1963.905996 
L 1074.213221 456.53962 
L 1080.456578 1959.798967 
L 1086.699934 1969.381885 
L 1092.943291 1847.53211 
L 1099.186648 1800.296605 
L 1105.430004 534.547415 
L 1111.673361 592.095222 
L 1117.916718 629.728772 
L 1124.160074 615.326624 
L 1130.403431 506.537666 
L 1136.646788 956.934935 
L 1142.890144 587.951147 
L 1149.133501 582.468152 
L 1155.376858 646.140234 
L 1161.620214 855.643089 
L 1167.863571 788.520699 
L 1174.106927 883.675067 
L 1180.350284 843.296478 
L 1186.593641 878.884935 
L 1192.836997 632.469775 
L 1199.080354 544.88591 
L 1205.323711 1972.119874 
L 1211.567067 833.037626 
L 1217.810424 669.416867 
L 1224.053781 908.335895 
L 1230.297137 850.834875 
L 1236.540494 1011.689668 
L 1242.783851 711.864285 
L 1249.027207 676.255483 
L 1255.270564 520.202184 
L 1261.51392 730.345365 
L 1267.757277 490.750287 
L 1274.000634 843.28887 
L 1280.24399 1031.55292 
L 1286.487347 1306.05082 
L 1292.730704 605.203192 
L 1298.97406 537.975825 
L 1305.217417 842.612724 
L 1311.460774 912.420024 
L 1317.70413 448.988068 
L 1323.947487 502.37629 
L 1330.190844 904.899421 
L 1336.4342 643.401755 
L 1342.677557 567.403236 
L 1348.920913 655.055308 
L 1355.16427 600.945271 
L 1361.407627 982.937693 
L 1367.650983 852.20081 
L 1373.89434 865.893749 
L 1380.137697 600.482641 
L 1386.381053 1086.30617 
L 1392.62441 1205.420144 
L 1398.867767 1966.644009 
L 1405.111123 1892.712534 
L 1411.35448 559.193207 
L 1417.597837 465.413262 
L 1423.841193 1557.981468 
L 1430.08455 454.462665 
L 1436.327906 453.08959 
L 1442.571263 430.535011 
L 1455.057976 446.257977 
L 1461.301333 466.783582 
L 1467.54469 1280.71404 
L 1473.788046 612.584159 
L 1480.031403 1011.013438 
L 1486.27476 1105.472115 
L 1492.518116 477.734355 
L 1498.761473 522.231926 
L 1505.00483 572.915705 
L 1511.248186 457.884828 
L 1517.491543 443.556013 
L 1523.734899 490.736149 
L 1529.978256 412.714571 
L 1536.221613 457.197838 
L 1548.708326 446.934254 
L 1617.385249 446.240505 
L 1623.628606 474.988613 
L 1629.871962 448.989751 
L 1636.115319 469.560893 
L 1642.358676 448.301678 
L 1648.602032 463.347926 
L 1654.845389 416.135133 
L 1661.088746 442.834614 
L 1667.332102 454.470135 
L 1673.575459 488.048011 
L 1679.818816 448.979194 
L 1686.062172 558.511491 
L 1692.305529 468.836038 
L 1698.548885 528.390165 
L 1704.792242 477.186006 
L 1711.035599 454.446963 
L 1717.278955 685.842106 
L 1723.522312 1336.197625 
L 1729.765669 520.175636 
L 1736.009025 451.719256 
L 1742.252382 454.479586 
L 1748.495739 1969.381854 
L 1748.495739 1969.381854 
" style="fill:none;stroke:#0000ff;stroke-linecap:square;stroke-width:1.5;"/>
   </g>
   <g id="patch_3">
    <path d="M 44.059375 2052.76 
L 44.059375 278.68 
" style="fill:none;stroke:#000000;stroke-linecap:square;stroke-linejoin:miter;stroke-width:0.8;"/>
   </g>
   <g id="patch_4">
    <path d="M 1829.659375 2052.76 
L 1829.659375 278.68 
" style="fill:none;stroke:#000000;stroke-linecap:square;stroke-linejoin:miter;stroke-width:0.8;"/>
   </g>
   <g id="patch_5">
    <path d="M 44.059375 2052.76 
L 1829.659375 2052.76 
" style="fill:none;stroke:#000000;stroke-linecap:square;stroke-linejoin:miter;stroke-width:0.8;"/>
   </g>
   <g id="patch_6">
    <path d="M 44.059375 278.68 
L 1829.659375 278.68 
" style="fill:none;stroke:#000000;stroke-linecap:square;stroke-linejoin:miter;stroke-width:0.8;"/>
   </g>
   <g id="text_18">
    <text style="font-family:DejaVu Sans;font-size:12px;font-stretch:normal;font-style:normal;font-weight:normal;text-anchor:middle;" transform="rotate(-0, 936.859375, 272.68)" x="936.859375" y="272.68">air_pressure-&gt;Throughput_day</text>
   </g>
  </g>
  <g id="legend_1">
   <g id="patch_7">
    <path d="M 1911.84375 22.95625 
L 2055.259375 22.95625 
Q 2057.259375 22.95625 2057.259375 20.95625 
L 2057.259375 7 
Q 2057.259375 5 2055.259375 5 
L 1911.84375 5 
Q 1909.84375 5 1909.84375 7 
L 1909.84375 20.95625 
Q 1909.84375 22.95625 1911.84375 22.95625 
z
" style="fill:#ffffff;opacity:0.8;stroke:#cccccc;stroke-linejoin:miter;"/>
   </g>
   <g id="line2d_16">
    <path d="M 1913.84375 13.098438 
L 1933.84375 13.098438 
" style="fill:none;stroke:#0000ff;stroke-linecap:square;stroke-width:1.5;"/>
   </g>
   <g id="line2d_17"/>
   <g id="text_19">
    <text style="font-family:DejaVu Sans;font-size:10px;font-stretch:normal;font-style:normal;font-weight:normal;text-anchor:start;" transform="rotate(-0, 1941.84375, 16.598438)" x="1941.84375" y="16.598438">Throughput_day[Bit/s]</text>
   </g>
  </g>
 </g>
 <defs>
  <clipPath id="pe7ecf7a2bc">
   <rect height="1774.08" width="1785.6" x="44.059375" y="278.68"/>
  </clipPath>
 </defs>
</svg>
