<?xml version="1.0" encoding="utf-8" standalone="no"?>
<!DOCTYPE svg PUBLIC "-//W3C//DTD SVG 1.1//EN"
  "http://www.w3.org/Graphics/SVG/1.1/DTD/svg11.dtd">
<!-- Created with matplotlib (https://matplotlib.org/) -->
<svg height="345.6pt" version="1.1" viewBox="0 0 460.8 345.6" width="460.8pt" xmlns="http://www.w3.org/2000/svg" xmlns:xlink="http://www.w3.org/1999/xlink">
 <metadata>
  <rdf:RDF xmlns:cc="http://creativecommons.org/ns#" xmlns:dc="http://purl.org/dc/elements/1.1/" xmlns:rdf="http://www.w3.org/1999/02/22-rdf-syntax-ns#">
   <cc:Work>
    <dc:type rdf:resource="http://purl.org/dc/dcmitype/StillImage"/>
    <dc:date>2022-07-16T18:01:16.795421</dc:date>
    <dc:format>image/svg+xml</dc:format>
    <dc:creator>
     <cc:Agent>
      <dc:title>Matplotlib v3.3.2, https://matplotlib.org/</dc:title>
     </cc:Agent>
    </dc:creator>
   </cc:Work>
  </rdf:RDF>
 </metadata>
 <defs>
  <style type="text/css">*{stroke-linecap:butt;stroke-linejoin:round;}</style>
 </defs>
 <g id="figure_1">
  <g id="patch_1">
   <path d="M 0 345.6 
L 460.8 345.6 
L 460.8 0 
L 0 0 
z
" style="fill:#ffffff;"/>
  </g>
  <g id="axes_1">
   <g id="patch_2">
    <path d="M 57.6 307.584 
L 414.72 307.584 
L 414.72 41.472 
L 57.6 41.472 
z
" style="fill:#ffffff;"/>
   </g>
   <g id="matplotlib.axis_1">
    <g id="xtick_1">
     <g id="line2d_1">
      <defs>
       <path d="M 0 0 
L 0 3.5 
" id="made90348dc" style="stroke:#000000;stroke-width:0.8;"/>
      </defs>
      <g>
       <use style="stroke:#000000;stroke-width:0.8;" x="63.154435" xlink:href="#made90348dc" y="307.584"/>
      </g>
     </g>
     <g id="text_1">
      <!-- 1005.0 -->
      <g transform="translate(45.659122 322.182437)scale(0.1 -0.1)">
       <defs>
        <path d="M 12.40625 8.296875 
L 28.515625 8.296875 
L 28.515625 63.921875 
L 10.984375 60.40625 
L 10.984375 69.390625 
L 28.421875 72.90625 
L 38.28125 72.90625 
L 38.28125 8.296875 
L 54.390625 8.296875 
L 54.390625 0 
L 12.40625 0 
z
" id="DejaVuSans-49"/>
        <path d="M 31.78125 66.40625 
Q 24.171875 66.40625 20.328125 58.90625 
Q 16.5 51.421875 16.5 36.375 
Q 16.5 21.390625 20.328125 13.890625 
Q 24.171875 6.390625 31.78125 6.390625 
Q 39.453125 6.390625 43.28125 13.890625 
Q 47.125 21.390625 47.125 36.375 
Q 47.125 51.421875 43.28125 58.90625 
Q 39.453125 66.40625 31.78125 66.40625 
z
M 31.78125 74.21875 
Q 44.046875 74.21875 50.515625 64.515625 
Q 56.984375 54.828125 56.984375 36.375 
Q 56.984375 17.96875 50.515625 8.265625 
Q 44.046875 -1.421875 31.78125 -1.421875 
Q 19.53125 -1.421875 13.0625 8.265625 
Q 6.59375 17.96875 6.59375 36.375 
Q 6.59375 54.828125 13.0625 64.515625 
Q 19.53125 74.21875 31.78125 74.21875 
z
" id="DejaVuSans-48"/>
        <path d="M 10.796875 72.90625 
L 49.515625 72.90625 
L 49.515625 64.59375 
L 19.828125 64.59375 
L 19.828125 46.734375 
Q 21.96875 47.46875 24.109375 47.828125 
Q 26.265625 48.1875 28.421875 48.1875 
Q 40.625 48.1875 47.75 41.5 
Q 54.890625 34.8125 54.890625 23.390625 
Q 54.890625 11.625 47.5625 5.09375 
Q 40.234375 -1.421875 26.90625 -1.421875 
Q 22.3125 -1.421875 17.546875 -0.640625 
Q 12.796875 0.140625 7.71875 1.703125 
L 7.71875 11.625 
Q 12.109375 9.234375 16.796875 8.0625 
Q 21.484375 6.890625 26.703125 6.890625 
Q 35.15625 6.890625 40.078125 11.328125 
Q 45.015625 15.765625 45.015625 23.390625 
Q 45.015625 31 40.078125 35.4375 
Q 35.15625 39.890625 26.703125 39.890625 
Q 22.75 39.890625 18.8125 39.015625 
Q 14.890625 38.140625 10.796875 36.28125 
z
" id="DejaVuSans-53"/>
        <path d="M 10.6875 12.40625 
L 21 12.40625 
L 21 0 
L 10.6875 0 
z
" id="DejaVuSans-46"/>
       </defs>
       <use xlink:href="#DejaVuSans-49"/>
       <use x="63.623047" xlink:href="#DejaVuSans-48"/>
       <use x="127.246094" xlink:href="#DejaVuSans-48"/>
       <use x="190.869141" xlink:href="#DejaVuSans-53"/>
       <use x="254.492188" xlink:href="#DejaVuSans-46"/>
       <use x="286.279297" xlink:href="#DejaVuSans-48"/>
      </g>
     </g>
    </g>
    <g id="xtick_2">
     <g id="line2d_2">
      <g>
       <use style="stroke:#000000;stroke-width:0.8;" x="106.212067" xlink:href="#made90348dc" y="307.584"/>
      </g>
     </g>
     <g id="text_2">
      <!-- 1007.5 -->
      <g transform="translate(88.716754 322.182437)scale(0.1 -0.1)">
       <defs>
        <path d="M 8.203125 72.90625 
L 55.078125 72.90625 
L 55.078125 68.703125 
L 28.609375 0 
L 18.3125 0 
L 43.21875 64.59375 
L 8.203125 64.59375 
z
" id="DejaVuSans-55"/>
       </defs>
       <use xlink:href="#DejaVuSans-49"/>
       <use x="63.623047" xlink:href="#DejaVuSans-48"/>
       <use x="127.246094" xlink:href="#DejaVuSans-48"/>
       <use x="190.869141" xlink:href="#DejaVuSans-55"/>
       <use x="254.492188" xlink:href="#DejaVuSans-46"/>
       <use x="286.279297" xlink:href="#DejaVuSans-53"/>
      </g>
     </g>
    </g>
    <g id="xtick_3">
     <g id="line2d_3">
      <g>
       <use style="stroke:#000000;stroke-width:0.8;" x="149.269699" xlink:href="#made90348dc" y="307.584"/>
      </g>
     </g>
     <g id="text_3">
      <!-- 1010.0 -->
      <g transform="translate(131.774386 322.182437)scale(0.1 -0.1)">
       <use xlink:href="#DejaVuSans-49"/>
       <use x="63.623047" xlink:href="#DejaVuSans-48"/>
       <use x="127.246094" xlink:href="#DejaVuSans-49"/>
       <use x="190.869141" xlink:href="#DejaVuSans-48"/>
       <use x="254.492188" xlink:href="#DejaVuSans-46"/>
       <use x="286.279297" xlink:href="#DejaVuSans-48"/>
      </g>
     </g>
    </g>
    <g id="xtick_4">
     <g id="line2d_4">
      <g>
       <use style="stroke:#000000;stroke-width:0.8;" x="192.327331" xlink:href="#made90348dc" y="307.584"/>
      </g>
     </g>
     <g id="text_4">
      <!-- 1012.5 -->
      <g transform="translate(174.832018 322.182437)scale(0.1 -0.1)">
       <defs>
        <path d="M 19.1875 8.296875 
L 53.609375 8.296875 
L 53.609375 0 
L 7.328125 0 
L 7.328125 8.296875 
Q 12.9375 14.109375 22.625 23.890625 
Q 32.328125 33.6875 34.8125 36.53125 
Q 39.546875 41.84375 41.421875 45.53125 
Q 43.3125 49.21875 43.3125 52.78125 
Q 43.3125 58.59375 39.234375 62.25 
Q 35.15625 65.921875 28.609375 65.921875 
Q 23.96875 65.921875 18.8125 64.3125 
Q 13.671875 62.703125 7.8125 59.421875 
L 7.8125 69.390625 
Q 13.765625 71.78125 18.9375 73 
Q 24.125 74.21875 28.421875 74.21875 
Q 39.75 74.21875 46.484375 68.546875 
Q 53.21875 62.890625 53.21875 53.421875 
Q 53.21875 48.921875 51.53125 44.890625 
Q 49.859375 40.875 45.40625 35.40625 
Q 44.1875 33.984375 37.640625 27.21875 
Q 31.109375 20.453125 19.1875 8.296875 
z
" id="DejaVuSans-50"/>
       </defs>
       <use xlink:href="#DejaVuSans-49"/>
       <use x="63.623047" xlink:href="#DejaVuSans-48"/>
       <use x="127.246094" xlink:href="#DejaVuSans-49"/>
       <use x="190.869141" xlink:href="#DejaVuSans-50"/>
       <use x="254.492188" xlink:href="#DejaVuSans-46"/>
       <use x="286.279297" xlink:href="#DejaVuSans-53"/>
      </g>
     </g>
    </g>
    <g id="xtick_5">
     <g id="line2d_5">
      <g>
       <use style="stroke:#000000;stroke-width:0.8;" x="235.384963" xlink:href="#made90348dc" y="307.584"/>
      </g>
     </g>
     <g id="text_5">
      <!-- 1015.0 -->
      <g transform="translate(217.88965 322.182437)scale(0.1 -0.1)">
       <use xlink:href="#DejaVuSans-49"/>
       <use x="63.623047" xlink:href="#DejaVuSans-48"/>
       <use x="127.246094" xlink:href="#DejaVuSans-49"/>
       <use x="190.869141" xlink:href="#DejaVuSans-53"/>
       <use x="254.492188" xlink:href="#DejaVuSans-46"/>
       <use x="286.279297" xlink:href="#DejaVuSans-48"/>
      </g>
     </g>
    </g>
    <g id="xtick_6">
     <g id="line2d_6">
      <g>
       <use style="stroke:#000000;stroke-width:0.8;" x="278.442595" xlink:href="#made90348dc" y="307.584"/>
      </g>
     </g>
     <g id="text_6">
      <!-- 1017.5 -->
      <g transform="translate(260.947282 322.182437)scale(0.1 -0.1)">
       <use xlink:href="#DejaVuSans-49"/>
       <use x="63.623047" xlink:href="#DejaVuSans-48"/>
       <use x="127.246094" xlink:href="#DejaVuSans-49"/>
       <use x="190.869141" xlink:href="#DejaVuSans-55"/>
       <use x="254.492188" xlink:href="#DejaVuSans-46"/>
       <use x="286.279297" xlink:href="#DejaVuSans-53"/>
      </g>
     </g>
    </g>
    <g id="xtick_7">
     <g id="line2d_7">
      <g>
       <use style="stroke:#000000;stroke-width:0.8;" x="321.500227" xlink:href="#made90348dc" y="307.584"/>
      </g>
     </g>
     <g id="text_7">
      <!-- 1020.0 -->
      <g transform="translate(304.004914 322.182437)scale(0.1 -0.1)">
       <use xlink:href="#DejaVuSans-49"/>
       <use x="63.623047" xlink:href="#DejaVuSans-48"/>
       <use x="127.246094" xlink:href="#DejaVuSans-50"/>
       <use x="190.869141" xlink:href="#DejaVuSans-48"/>
       <use x="254.492188" xlink:href="#DejaVuSans-46"/>
       <use x="286.279297" xlink:href="#DejaVuSans-48"/>
      </g>
     </g>
    </g>
    <g id="xtick_8">
     <g id="line2d_8">
      <g>
       <use style="stroke:#000000;stroke-width:0.8;" x="364.557859" xlink:href="#made90348dc" y="307.584"/>
      </g>
     </g>
     <g id="text_8">
      <!-- 1022.5 -->
      <g transform="translate(347.062546 322.182437)scale(0.1 -0.1)">
       <use xlink:href="#DejaVuSans-49"/>
       <use x="63.623047" xlink:href="#DejaVuSans-48"/>
       <use x="127.246094" xlink:href="#DejaVuSans-50"/>
       <use x="190.869141" xlink:href="#DejaVuSans-50"/>
       <use x="254.492188" xlink:href="#DejaVuSans-46"/>
       <use x="286.279297" xlink:href="#DejaVuSans-53"/>
      </g>
     </g>
    </g>
    <g id="xtick_9">
     <g id="line2d_9">
      <g>
       <use style="stroke:#000000;stroke-width:0.8;" x="407.615491" xlink:href="#made90348dc" y="307.584"/>
      </g>
     </g>
     <g id="text_9">
      <!-- 1025.0 -->
      <g transform="translate(390.120178 322.182437)scale(0.1 -0.1)">
       <use xlink:href="#DejaVuSans-49"/>
       <use x="63.623047" xlink:href="#DejaVuSans-48"/>
       <use x="127.246094" xlink:href="#DejaVuSans-50"/>
       <use x="190.869141" xlink:href="#DejaVuSans-53"/>
       <use x="254.492188" xlink:href="#DejaVuSans-46"/>
       <use x="286.279297" xlink:href="#DejaVuSans-48"/>
      </g>
     </g>
    </g>
    <g id="text_10">
     <!-- air_pressure from Foreca -->
     <g transform="translate(174.162344 335.860562)scale(0.1 -0.1)">
      <defs>
       <path d="M 34.28125 27.484375 
Q 23.390625 27.484375 19.1875 25 
Q 14.984375 22.515625 14.984375 16.5 
Q 14.984375 11.71875 18.140625 8.90625 
Q 21.296875 6.109375 26.703125 6.109375 
Q 34.1875 6.109375 38.703125 11.40625 
Q 43.21875 16.703125 43.21875 25.484375 
L 43.21875 27.484375 
z
M 52.203125 31.203125 
L 52.203125 0 
L 43.21875 0 
L 43.21875 8.296875 
Q 40.140625 3.328125 35.546875 0.953125 
Q 30.953125 -1.421875 24.3125 -1.421875 
Q 15.921875 -1.421875 10.953125 3.296875 
Q 6 8.015625 6 15.921875 
Q 6 25.140625 12.171875 29.828125 
Q 18.359375 34.515625 30.609375 34.515625 
L 43.21875 34.515625 
L 43.21875 35.40625 
Q 43.21875 41.609375 39.140625 45 
Q 35.0625 48.390625 27.6875 48.390625 
Q 23 48.390625 18.546875 47.265625 
Q 14.109375 46.140625 10.015625 43.890625 
L 10.015625 52.203125 
Q 14.9375 54.109375 19.578125 55.046875 
Q 24.21875 56 28.609375 56 
Q 40.484375 56 46.34375 49.84375 
Q 52.203125 43.703125 52.203125 31.203125 
z
" id="DejaVuSans-97"/>
       <path d="M 9.421875 54.6875 
L 18.40625 54.6875 
L 18.40625 0 
L 9.421875 0 
z
M 9.421875 75.984375 
L 18.40625 75.984375 
L 18.40625 64.59375 
L 9.421875 64.59375 
z
" id="DejaVuSans-105"/>
       <path d="M 41.109375 46.296875 
Q 39.59375 47.171875 37.8125 47.578125 
Q 36.03125 48 33.890625 48 
Q 26.265625 48 22.1875 43.046875 
Q 18.109375 38.09375 18.109375 28.8125 
L 18.109375 0 
L 9.078125 0 
L 9.078125 54.6875 
L 18.109375 54.6875 
L 18.109375 46.1875 
Q 20.953125 51.171875 25.484375 53.578125 
Q 30.03125 56 36.53125 56 
Q 37.453125 56 38.578125 55.875 
Q 39.703125 55.765625 41.0625 55.515625 
z
" id="DejaVuSans-114"/>
       <path d="M 50.984375 -16.609375 
L 50.984375 -23.578125 
L -0.984375 -23.578125 
L -0.984375 -16.609375 
z
" id="DejaVuSans-95"/>
       <path d="M 18.109375 8.203125 
L 18.109375 -20.796875 
L 9.078125 -20.796875 
L 9.078125 54.6875 
L 18.109375 54.6875 
L 18.109375 46.390625 
Q 20.953125 51.265625 25.265625 53.625 
Q 29.59375 56 35.59375 56 
Q 45.5625 56 51.78125 48.09375 
Q 58.015625 40.1875 58.015625 27.296875 
Q 58.015625 14.40625 51.78125 6.484375 
Q 45.5625 -1.421875 35.59375 -1.421875 
Q 29.59375 -1.421875 25.265625 0.953125 
Q 20.953125 3.328125 18.109375 8.203125 
z
M 48.6875 27.296875 
Q 48.6875 37.203125 44.609375 42.84375 
Q 40.53125 48.484375 33.40625 48.484375 
Q 26.265625 48.484375 22.1875 42.84375 
Q 18.109375 37.203125 18.109375 27.296875 
Q 18.109375 17.390625 22.1875 11.75 
Q 26.265625 6.109375 33.40625 6.109375 
Q 40.53125 6.109375 44.609375 11.75 
Q 48.6875 17.390625 48.6875 27.296875 
z
" id="DejaVuSans-112"/>
       <path d="M 56.203125 29.59375 
L 56.203125 25.203125 
L 14.890625 25.203125 
Q 15.484375 15.921875 20.484375 11.0625 
Q 25.484375 6.203125 34.421875 6.203125 
Q 39.59375 6.203125 44.453125 7.46875 
Q 49.3125 8.734375 54.109375 11.28125 
L 54.109375 2.78125 
Q 49.265625 0.734375 44.1875 -0.34375 
Q 39.109375 -1.421875 33.890625 -1.421875 
Q 20.796875 -1.421875 13.15625 6.1875 
Q 5.515625 13.8125 5.515625 26.8125 
Q 5.515625 40.234375 12.765625 48.109375 
Q 20.015625 56 32.328125 56 
Q 43.359375 56 49.78125 48.890625 
Q 56.203125 41.796875 56.203125 29.59375 
z
M 47.21875 32.234375 
Q 47.125 39.59375 43.09375 43.984375 
Q 39.0625 48.390625 32.421875 48.390625 
Q 24.90625 48.390625 20.390625 44.140625 
Q 15.875 39.890625 15.1875 32.171875 
z
" id="DejaVuSans-101"/>
       <path d="M 44.28125 53.078125 
L 44.28125 44.578125 
Q 40.484375 46.53125 36.375 47.5 
Q 32.28125 48.484375 27.875 48.484375 
Q 21.1875 48.484375 17.84375 46.4375 
Q 14.5 44.390625 14.5 40.28125 
Q 14.5 37.15625 16.890625 35.375 
Q 19.28125 33.59375 26.515625 31.984375 
L 29.59375 31.296875 
Q 39.15625 29.25 43.1875 25.515625 
Q 47.21875 21.78125 47.21875 15.09375 
Q 47.21875 7.46875 41.1875 3.015625 
Q 35.15625 -1.421875 24.609375 -1.421875 
Q 20.21875 -1.421875 15.453125 -0.5625 
Q 10.6875 0.296875 5.421875 2 
L 5.421875 11.28125 
Q 10.40625 8.6875 15.234375 7.390625 
Q 20.0625 6.109375 24.8125 6.109375 
Q 31.15625 6.109375 34.5625 8.28125 
Q 37.984375 10.453125 37.984375 14.40625 
Q 37.984375 18.0625 35.515625 20.015625 
Q 33.0625 21.96875 24.703125 23.78125 
L 21.578125 24.515625 
Q 13.234375 26.265625 9.515625 29.90625 
Q 5.8125 33.546875 5.8125 39.890625 
Q 5.8125 47.609375 11.28125 51.796875 
Q 16.75 56 26.8125 56 
Q 31.78125 56 36.171875 55.265625 
Q 40.578125 54.546875 44.28125 53.078125 
z
" id="DejaVuSans-115"/>
       <path d="M 8.5 21.578125 
L 8.5 54.6875 
L 17.484375 54.6875 
L 17.484375 21.921875 
Q 17.484375 14.15625 20.5 10.265625 
Q 23.53125 6.390625 29.59375 6.390625 
Q 36.859375 6.390625 41.078125 11.03125 
Q 45.3125 15.671875 45.3125 23.6875 
L 45.3125 54.6875 
L 54.296875 54.6875 
L 54.296875 0 
L 45.3125 0 
L 45.3125 8.40625 
Q 42.046875 3.421875 37.71875 1 
Q 33.40625 -1.421875 27.6875 -1.421875 
Q 18.265625 -1.421875 13.375 4.4375 
Q 8.5 10.296875 8.5 21.578125 
z
M 31.109375 56 
z
" id="DejaVuSans-117"/>
       <path id="DejaVuSans-32"/>
       <path d="M 37.109375 75.984375 
L 37.109375 68.5 
L 28.515625 68.5 
Q 23.6875 68.5 21.796875 66.546875 
Q 19.921875 64.59375 19.921875 59.515625 
L 19.921875 54.6875 
L 34.71875 54.6875 
L 34.71875 47.703125 
L 19.921875 47.703125 
L 19.921875 0 
L 10.890625 0 
L 10.890625 47.703125 
L 2.296875 47.703125 
L 2.296875 54.6875 
L 10.890625 54.6875 
L 10.890625 58.5 
Q 10.890625 67.625 15.140625 71.796875 
Q 19.390625 75.984375 28.609375 75.984375 
z
" id="DejaVuSans-102"/>
       <path d="M 30.609375 48.390625 
Q 23.390625 48.390625 19.1875 42.75 
Q 14.984375 37.109375 14.984375 27.296875 
Q 14.984375 17.484375 19.15625 11.84375 
Q 23.34375 6.203125 30.609375 6.203125 
Q 37.796875 6.203125 41.984375 11.859375 
Q 46.1875 17.53125 46.1875 27.296875 
Q 46.1875 37.015625 41.984375 42.703125 
Q 37.796875 48.390625 30.609375 48.390625 
z
M 30.609375 56 
Q 42.328125 56 49.015625 48.375 
Q 55.71875 40.765625 55.71875 27.296875 
Q 55.71875 13.875 49.015625 6.21875 
Q 42.328125 -1.421875 30.609375 -1.421875 
Q 18.84375 -1.421875 12.171875 6.21875 
Q 5.515625 13.875 5.515625 27.296875 
Q 5.515625 40.765625 12.171875 48.375 
Q 18.84375 56 30.609375 56 
z
" id="DejaVuSans-111"/>
       <path d="M 52 44.1875 
Q 55.375 50.25 60.0625 53.125 
Q 64.75 56 71.09375 56 
Q 79.640625 56 84.28125 50.015625 
Q 88.921875 44.046875 88.921875 33.015625 
L 88.921875 0 
L 79.890625 0 
L 79.890625 32.71875 
Q 79.890625 40.578125 77.09375 44.375 
Q 74.3125 48.1875 68.609375 48.1875 
Q 61.625 48.1875 57.5625 43.546875 
Q 53.515625 38.921875 53.515625 30.90625 
L 53.515625 0 
L 44.484375 0 
L 44.484375 32.71875 
Q 44.484375 40.625 41.703125 44.40625 
Q 38.921875 48.1875 33.109375 48.1875 
Q 26.21875 48.1875 22.15625 43.53125 
Q 18.109375 38.875 18.109375 30.90625 
L 18.109375 0 
L 9.078125 0 
L 9.078125 54.6875 
L 18.109375 54.6875 
L 18.109375 46.1875 
Q 21.1875 51.21875 25.484375 53.609375 
Q 29.78125 56 35.6875 56 
Q 41.65625 56 45.828125 52.96875 
Q 50 49.953125 52 44.1875 
z
" id="DejaVuSans-109"/>
       <path d="M 9.8125 72.90625 
L 51.703125 72.90625 
L 51.703125 64.59375 
L 19.671875 64.59375 
L 19.671875 43.109375 
L 48.578125 43.109375 
L 48.578125 34.8125 
L 19.671875 34.8125 
L 19.671875 0 
L 9.8125 0 
z
" id="DejaVuSans-70"/>
       <path d="M 48.78125 52.59375 
L 48.78125 44.1875 
Q 44.96875 46.296875 41.140625 47.34375 
Q 37.3125 48.390625 33.40625 48.390625 
Q 24.65625 48.390625 19.8125 42.84375 
Q 14.984375 37.3125 14.984375 27.296875 
Q 14.984375 17.28125 19.8125 11.734375 
Q 24.65625 6.203125 33.40625 6.203125 
Q 37.3125 6.203125 41.140625 7.25 
Q 44.96875 8.296875 48.78125 10.40625 
L 48.78125 2.09375 
Q 45.015625 0.34375 40.984375 -0.53125 
Q 36.96875 -1.421875 32.421875 -1.421875 
Q 20.0625 -1.421875 12.78125 6.34375 
Q 5.515625 14.109375 5.515625 27.296875 
Q 5.515625 40.671875 12.859375 48.328125 
Q 20.21875 56 33.015625 56 
Q 37.15625 56 41.109375 55.140625 
Q 45.0625 54.296875 48.78125 52.59375 
z
" id="DejaVuSans-99"/>
      </defs>
      <use xlink:href="#DejaVuSans-97"/>
      <use x="61.279297" xlink:href="#DejaVuSans-105"/>
      <use x="89.0625" xlink:href="#DejaVuSans-114"/>
      <use x="130.175781" xlink:href="#DejaVuSans-95"/>
      <use x="180.175781" xlink:href="#DejaVuSans-112"/>
      <use x="243.652344" xlink:href="#DejaVuSans-114"/>
      <use x="282.515625" xlink:href="#DejaVuSans-101"/>
      <use x="344.039062" xlink:href="#DejaVuSans-115"/>
      <use x="396.138672" xlink:href="#DejaVuSans-115"/>
      <use x="448.238281" xlink:href="#DejaVuSans-117"/>
      <use x="511.617188" xlink:href="#DejaVuSans-114"/>
      <use x="550.480469" xlink:href="#DejaVuSans-101"/>
      <use x="612.003906" xlink:href="#DejaVuSans-32"/>
      <use x="643.791016" xlink:href="#DejaVuSans-102"/>
      <use x="678.996094" xlink:href="#DejaVuSans-114"/>
      <use x="717.859375" xlink:href="#DejaVuSans-111"/>
      <use x="779.041016" xlink:href="#DejaVuSans-109"/>
      <use x="876.453125" xlink:href="#DejaVuSans-32"/>
      <use x="908.240234" xlink:href="#DejaVuSans-70"/>
      <use x="962.134766" xlink:href="#DejaVuSans-111"/>
      <use x="1023.316406" xlink:href="#DejaVuSans-114"/>
      <use x="1062.179688" xlink:href="#DejaVuSans-101"/>
      <use x="1123.703125" xlink:href="#DejaVuSans-99"/>
      <use x="1178.683594" xlink:href="#DejaVuSans-97"/>
     </g>
    </g>
   </g>
   <g id="matplotlib.axis_2">
    <g id="ytick_1">
     <g id="line2d_10">
      <defs>
       <path d="M 0 0 
L -3.5 0 
" id="m03a9a5c8d3" style="stroke:#000000;stroke-width:0.8;"/>
      </defs>
      <g>
       <use style="stroke:#000000;stroke-width:0.8;" x="57.6" xlink:href="#m03a9a5c8d3" y="296.442982"/>
      </g>
     </g>
     <g id="text_11">
      <!-- 0.0 -->
      <g transform="translate(34.696875 300.242201)scale(0.1 -0.1)">
       <use xlink:href="#DejaVuSans-48"/>
       <use x="63.623047" xlink:href="#DejaVuSans-46"/>
       <use x="95.410156" xlink:href="#DejaVuSans-48"/>
      </g>
     </g>
    </g>
    <g id="ytick_2">
     <g id="line2d_11">
      <g>
       <use style="stroke:#000000;stroke-width:0.8;" x="57.6" xlink:href="#m03a9a5c8d3" y="263.462505"/>
      </g>
     </g>
     <g id="text_12">
      <!-- 0.2 -->
      <g transform="translate(34.696875 267.261724)scale(0.1 -0.1)">
       <use xlink:href="#DejaVuSans-48"/>
       <use x="63.623047" xlink:href="#DejaVuSans-46"/>
       <use x="95.410156" xlink:href="#DejaVuSans-50"/>
      </g>
     </g>
    </g>
    <g id="ytick_3">
     <g id="line2d_12">
      <g>
       <use style="stroke:#000000;stroke-width:0.8;" x="57.6" xlink:href="#m03a9a5c8d3" y="230.482029"/>
      </g>
     </g>
     <g id="text_13">
      <!-- 0.4 -->
      <g transform="translate(34.696875 234.281247)scale(0.1 -0.1)">
       <defs>
        <path d="M 37.796875 64.3125 
L 12.890625 25.390625 
L 37.796875 25.390625 
z
M 35.203125 72.90625 
L 47.609375 72.90625 
L 47.609375 25.390625 
L 58.015625 25.390625 
L 58.015625 17.1875 
L 47.609375 17.1875 
L 47.609375 0 
L 37.796875 0 
L 37.796875 17.1875 
L 4.890625 17.1875 
L 4.890625 26.703125 
z
" id="DejaVuSans-52"/>
       </defs>
       <use xlink:href="#DejaVuSans-48"/>
       <use x="63.623047" xlink:href="#DejaVuSans-46"/>
       <use x="95.410156" xlink:href="#DejaVuSans-52"/>
      </g>
     </g>
    </g>
    <g id="ytick_4">
     <g id="line2d_13">
      <g>
       <use style="stroke:#000000;stroke-width:0.8;" x="57.6" xlink:href="#m03a9a5c8d3" y="197.501552"/>
      </g>
     </g>
     <g id="text_14">
      <!-- 0.6 -->
      <g transform="translate(34.696875 201.300771)scale(0.1 -0.1)">
       <defs>
        <path d="M 33.015625 40.375 
Q 26.375 40.375 22.484375 35.828125 
Q 18.609375 31.296875 18.609375 23.390625 
Q 18.609375 15.53125 22.484375 10.953125 
Q 26.375 6.390625 33.015625 6.390625 
Q 39.65625 6.390625 43.53125 10.953125 
Q 47.40625 15.53125 47.40625 23.390625 
Q 47.40625 31.296875 43.53125 35.828125 
Q 39.65625 40.375 33.015625 40.375 
z
M 52.59375 71.296875 
L 52.59375 62.3125 
Q 48.875 64.0625 45.09375 64.984375 
Q 41.3125 65.921875 37.59375 65.921875 
Q 27.828125 65.921875 22.671875 59.328125 
Q 17.53125 52.734375 16.796875 39.40625 
Q 19.671875 43.65625 24.015625 45.921875 
Q 28.375 48.1875 33.59375 48.1875 
Q 44.578125 48.1875 50.953125 41.515625 
Q 57.328125 34.859375 57.328125 23.390625 
Q 57.328125 12.15625 50.6875 5.359375 
Q 44.046875 -1.421875 33.015625 -1.421875 
Q 20.359375 -1.421875 13.671875 8.265625 
Q 6.984375 17.96875 6.984375 36.375 
Q 6.984375 53.65625 15.1875 63.9375 
Q 23.390625 74.21875 37.203125 74.21875 
Q 40.921875 74.21875 44.703125 73.484375 
Q 48.484375 72.75 52.59375 71.296875 
z
" id="DejaVuSans-54"/>
       </defs>
       <use xlink:href="#DejaVuSans-48"/>
       <use x="63.623047" xlink:href="#DejaVuSans-46"/>
       <use x="95.410156" xlink:href="#DejaVuSans-54"/>
      </g>
     </g>
    </g>
    <g id="ytick_5">
     <g id="line2d_14">
      <g>
       <use style="stroke:#000000;stroke-width:0.8;" x="57.6" xlink:href="#m03a9a5c8d3" y="164.521075"/>
      </g>
     </g>
     <g id="text_15">
      <!-- 0.8 -->
      <g transform="translate(34.696875 168.320294)scale(0.1 -0.1)">
       <defs>
        <path d="M 31.78125 34.625 
Q 24.75 34.625 20.71875 30.859375 
Q 16.703125 27.09375 16.703125 20.515625 
Q 16.703125 13.921875 20.71875 10.15625 
Q 24.75 6.390625 31.78125 6.390625 
Q 38.8125 6.390625 42.859375 10.171875 
Q 46.921875 13.96875 46.921875 20.515625 
Q 46.921875 27.09375 42.890625 30.859375 
Q 38.875 34.625 31.78125 34.625 
z
M 21.921875 38.8125 
Q 15.578125 40.375 12.03125 44.71875 
Q 8.5 49.078125 8.5 55.328125 
Q 8.5 64.0625 14.71875 69.140625 
Q 20.953125 74.21875 31.78125 74.21875 
Q 42.671875 74.21875 48.875 69.140625 
Q 55.078125 64.0625 55.078125 55.328125 
Q 55.078125 49.078125 51.53125 44.71875 
Q 48 40.375 41.703125 38.8125 
Q 48.828125 37.15625 52.796875 32.3125 
Q 56.78125 27.484375 56.78125 20.515625 
Q 56.78125 9.90625 50.3125 4.234375 
Q 43.84375 -1.421875 31.78125 -1.421875 
Q 19.734375 -1.421875 13.25 4.234375 
Q 6.78125 9.90625 6.78125 20.515625 
Q 6.78125 27.484375 10.78125 32.3125 
Q 14.796875 37.15625 21.921875 38.8125 
z
M 18.3125 54.390625 
Q 18.3125 48.734375 21.84375 45.5625 
Q 25.390625 42.390625 31.78125 42.390625 
Q 38.140625 42.390625 41.71875 45.5625 
Q 45.3125 48.734375 45.3125 54.390625 
Q 45.3125 60.0625 41.71875 63.234375 
Q 38.140625 66.40625 31.78125 66.40625 
Q 25.390625 66.40625 21.84375 63.234375 
Q 18.3125 60.0625 18.3125 54.390625 
z
" id="DejaVuSans-56"/>
       </defs>
       <use xlink:href="#DejaVuSans-48"/>
       <use x="63.623047" xlink:href="#DejaVuSans-46"/>
       <use x="95.410156" xlink:href="#DejaVuSans-56"/>
      </g>
     </g>
    </g>
    <g id="ytick_6">
     <g id="line2d_15">
      <g>
       <use style="stroke:#000000;stroke-width:0.8;" x="57.6" xlink:href="#m03a9a5c8d3" y="131.540598"/>
      </g>
     </g>
     <g id="text_16">
      <!-- 1.0 -->
      <g transform="translate(34.696875 135.339817)scale(0.1 -0.1)">
       <use xlink:href="#DejaVuSans-49"/>
       <use x="63.623047" xlink:href="#DejaVuSans-46"/>
       <use x="95.410156" xlink:href="#DejaVuSans-48"/>
      </g>
     </g>
    </g>
    <g id="ytick_7">
     <g id="line2d_16">
      <g>
       <use style="stroke:#000000;stroke-width:0.8;" x="57.6" xlink:href="#m03a9a5c8d3" y="98.560122"/>
      </g>
     </g>
     <g id="text_17">
      <!-- 1.2 -->
      <g transform="translate(34.696875 102.35934)scale(0.1 -0.1)">
       <use xlink:href="#DejaVuSans-49"/>
       <use x="63.623047" xlink:href="#DejaVuSans-46"/>
       <use x="95.410156" xlink:href="#DejaVuSans-50"/>
      </g>
     </g>
    </g>
    <g id="ytick_8">
     <g id="line2d_17">
      <g>
       <use style="stroke:#000000;stroke-width:0.8;" x="57.6" xlink:href="#m03a9a5c8d3" y="65.579645"/>
      </g>
     </g>
     <g id="text_18">
      <!-- 1.4 -->
      <g transform="translate(34.696875 69.378864)scale(0.1 -0.1)">
       <use xlink:href="#DejaVuSans-49"/>
       <use x="63.623047" xlink:href="#DejaVuSans-46"/>
       <use x="95.410156" xlink:href="#DejaVuSans-52"/>
      </g>
     </g>
    </g>
    <g id="text_19">
     <!-- 1e7 -->
     <g transform="translate(57.6 38.472)scale(0.1 -0.1)">
      <use xlink:href="#DejaVuSans-49"/>
      <use x="63.623047" xlink:href="#DejaVuSans-101"/>
      <use x="125.146484" xlink:href="#DejaVuSans-55"/>
     </g>
    </g>
   </g>
   <g id="line2d_18">
    <path clip-path="url(#p00aa71a786)" d="M 73.832727 77.733045 
L 74.004958 77.828311 
L 74.177188 77.060989 
L 74.349419 105.332385 
L 74.521649 88.904153 
L 74.69388 166.554682 
L 74.86611 104.855154 
L 75.038341 119.395239 
L 75.210571 89.28662 
L 75.382802 94.456745 
L 75.555033 93.016692 
L 75.727263 93.48947 
L 75.899494 126.155175 
L 76.071724 286.79664 
L 76.243955 292.431773 
L 76.416185 285.746484 
L 76.588416 285.173188 
L 76.760646 286.319003 
L 77.105107 284.791221 
L 77.277338 282.307738 
L 77.449568 274.66726 
L 77.621799 260.628641 
L 77.794029 232.357554 
L 78.310721 71.619616 
L 78.655182 78.876621 
L 78.999643 71.524423 
L 79.171874 74.869245 
L 79.344104 75.344564 
L 79.516335 68.279884 
L 79.688565 76.868897 
L 80.033026 72.57229 
L 80.377487 76.107715 
L 80.721948 78.786685 
L 80.894179 68.176754 
L 81.23864 70.087815 
L 81.410871 70.086864 
L 81.583101 76.968444 
L 81.755332 70.37685 
L 81.927562 73.335305 
L 82.099793 63.88039 
L 82.444254 71.523861 
L 82.616484 70.756239 
L 82.788715 74.962425 
L 83.133176 73.244126 
L 83.305406 71.425654 
L 83.477637 75.057246 
L 83.649867 75.441838 
L 84.166559 73.143998 
L 84.338789 70.382365 
L 84.51102 73.247653 
L 84.855481 71.901511 
L 85.027712 72.479357 
L 85.372173 88.905461 
L 85.716634 67.324094 
L 85.888864 75.818833 
L 86.233325 73.62241 
L 86.405556 70.27942 
L 86.750017 70.091165 
L 87.094478 73.915409 
L 87.266708 70.375493 
L 87.61117 77.734422 
L 87.7834 67.173889 
L 87.955631 77.82337 
L 88.127861 63.500779 
L 88.472322 71.911076 
L 88.644553 72.001374 
L 88.989014 78.875947 
L 89.505705 67.796845 
L 89.677936 76.490096 
L 89.850166 76.301085 
L 90.022397 69.227761 
L 90.194627 74.293299 
L 90.366858 73.338294 
L 90.539088 76.776815 
L 90.711319 150.508402 
L 91.05578 135.033295 
L 91.400241 162.444852 
L 91.744702 131.595311 
L 91.916933 69.227534 
L 92.089163 195.108069 
L 92.433624 81.454359 
L 92.605855 256.807252 
L 92.950316 266.931204 
L 93.122546 73.625395 
L 93.294777 261.487077 
L 93.639238 261.77384 
L 93.811469 255.661811 
L 93.983699 214.116104 
L 94.15593 130.735287 
L 94.32816 112.877481 
L 94.500391 114.309347 
L 95.017082 53.568 
L 95.189313 80.975634 
L 95.361543 71.811191 
L 95.533774 73.621006 
L 95.878235 76.009761 
L 96.222696 76.585142 
L 96.394926 62.259747 
L 96.567157 74.576759 
L 96.739388 69.912541 
L 96.911618 112.874636 
L 97.083849 68.847206 
L 97.256079 72.283188 
L 97.42831 72.006154 
L 97.60054 55.190948 
L 97.772771 78.018035 
L 98.117232 79.641961 
L 98.289462 71.233309 
L 98.461693 76.009541 
L 98.806154 67.985942 
L 99.150615 74.19957 
L 99.322845 73.624682 
L 99.495076 295.010479 
L 99.667306 81.548922 
L 99.839537 78.881603 
L 100.011768 72.956512 
L 100.528459 79.737598 
L 100.70069 85.573119 
L 101.389612 68.968941 
L 101.906303 68.558836 
L 102.078534 71.622583 
L 102.595225 77.444664 
L 102.939687 76.871861 
L 103.284148 75.817266 
L 103.628609 73.525475 
L 103.97307 72.38049 
L 104.317531 79.934804 
L 104.661992 77.921217 
L 105.178683 79.452553 
L 105.350914 81.644173 
L 105.867605 77.922921 
L 106.039836 79.641441 
L 106.556528 79.55103 
L 106.728758 81.172765 
L 107.41768 77.53877 
L 107.589911 69.228238 
L 108.106602 76.487413 
L 108.278833 74.959502 
L 108.795524 98.171222 
L 108.967755 67.0309 
L 109.484447 97.689873 
L 109.656677 68.080423 
L 110.173369 86.132992 
L 110.862291 155.281038 
L 111.034521 73.430568 
L 111.551213 113.354268 
L 112.240135 81.656587 
L 112.756827 73.337023 
L 112.929057 104.284089 
L 113.445749 71.80753 
L 113.617979 150.317564 
L 113.96244 68.3706 
L 114.306901 150.615648 
L 114.651362 70.471702 
L 114.995823 98.559442 
L 115.168054 70.184364 
L 115.684746 161.204515 
L 115.856976 76.781296 
L 116.201437 151.273924 
L 116.373668 69.705826 
L 116.718129 93.880048 
L 116.890359 71.137372 
L 117.06259 69.710134 
L 117.23482 157.863447 
L 117.579281 68.559793 
L 117.751512 83.649896 
L 118.268204 174.668805 
L 118.612665 79.929543 
L 118.784895 121.473178 
L 119.473817 76.017983 
L 119.818278 67.703716 
L 120.162739 72.284936 
L 120.33497 70.278809 
L 120.5072 159.486628 
L 120.679431 73.339455 
L 121.023892 111.450898 
L 121.368353 71.710111 
L 121.885045 71.524041 
L 122.573967 78.208548 
L 122.746197 73.813938 
L 123.090658 77.738075 
L 123.60735 77.923162 
L 123.77958 90.630068 
L 124.296272 104.854809 
L 125.157425 68.083803 
L 125.501886 73.338361 
L 125.846347 211.156698 
L 126.018577 76.680957 
L 126.190808 71.235268 
L 126.707499 71.239299 
L 126.87973 75.728842 
L 127.396422 73.432085 
L 127.740883 74.391027 
L 127.913113 76.307579 
L 128.429805 83.458623 
L 128.602035 88.238283 
L 129.290957 67.131385 
L 130.15211 74.671425 
L 130.496571 66.753309 
L 131.013263 83.177407 
L 131.357724 72.287895 
L 131.702185 70.852695 
L 132.046646 74.288856 
L 132.218876 72.103701 
L 132.563337 79.259433 
L 132.907798 71.61757 
L 133.42449 82.317251 
L 134.285643 69.801153 
L 134.457873 85.46844 
L 134.802334 73.908177 
L 135.146795 82.791493 
L 135.491256 79.071505 
L 135.835717 73.526233 
L 136.180178 85.946269 
L 136.352409 116.316779 
L 136.69687 89.953833 
L 136.869101 95.503647 
L 137.213562 86.712608 
L 137.558023 102.851976 
L 137.902484 77.251852 
L 138.246945 81.934967 
L 138.419175 108.488325 
L 138.763636 71.523074 
L 138.935867 117.464188 
L 139.108097 78.5003 
L 139.280328 107.339915 
L 139.452558 84.991836 
L 139.624789 117.751689 
L 139.79702 119.096289 
L 140.141481 94.441576 
L 140.313711 114.317142 
L 140.485942 77.155686 
L 140.830403 126.919226 
L 141.174864 112.307695 
L 141.519325 76.204522 
L 141.691555 80.312564 
L 141.863786 141.910554 
L 142.208247 148.499413 
L 142.552708 90.817006 
L 142.897169 110.968461 
L 143.24163 85.08151 
L 143.586091 72.000701 
L 143.930552 100.172092 
L 144.275013 84.998602 
L 144.447244 65.790209 
L 144.619474 82.60546 
L 144.963935 76.969366 
L 145.308396 77.731842 
L 145.825088 77.257178 
L 146.169549 68.179562 
L 146.34178 69.899018 
L 146.51401 73.148374 
L 146.858471 74.957686 
L 147.202932 72.761651 
L 147.891854 77.445343 
L 148.236315 74.770924 
L 148.580776 78.876077 
L 148.753007 68.94194 
L 148.925238 78.970846 
L 149.097468 77.061384 
L 149.269699 80.783129 
L 149.441929 80.402475 
L 149.61416 79.163883 
L 149.78639 75.725443 
L 149.958621 79.931492 
L 150.130851 75.444137 
L 150.303082 77.350865 
L 150.475312 77.345235 
L 150.647543 71.62301 
L 150.992004 79.637148 
L 151.164234 79.455894 
L 151.508695 72.482201 
L 151.680926 71.145009 
L 151.853156 77.066122 
L 152.025387 74.481983 
L 152.197618 75.151381 
L 152.369848 106.582564 
L 152.542079 96.543252 
L 152.714309 70.285639 
L 152.88654 86.994727 
L 153.05877 88.807171 
L 153.575462 79.25952 
L 153.747692 92.438438 
L 153.919923 82.791023 
L 154.092153 93.318003 
L 154.436614 77.158668 
L 154.608845 80.019877 
L 154.953306 72.952713 
L 155.125537 77.731186 
L 155.297767 72.766996 
L 155.469998 71.425722 
L 155.814459 75.628677 
L 155.986689 75.533169 
L 156.15892 81.552296 
L 156.33115 77.634453 
L 156.503381 78.682862 
L 156.675611 70.087249 
L 156.847842 68.081314 
L 157.020072 79.930279 
L 157.192303 72.857226 
L 157.364533 78.40159 
L 157.536764 78.686586 
L 157.708994 77.922222 
L 157.881225 72.764089 
L 158.053456 74.48114 
L 158.225686 81.452532 
L 158.397917 77.732082 
L 158.570147 96.065749 
L 158.742378 68.752995 
L 158.914608 84.894447 
L 159.60353 75.156117 
L 159.775761 79.260954 
L 159.947991 76.39767 
L 160.120222 88.140235 
L 160.292452 131.037262 
L 160.464683 94.632251 
L 160.636913 82.128723 
L 160.809144 131.691429 
L 161.325836 76.201174 
L 161.498066 82.031288 
L 161.842527 74.582616 
L 162.014758 87.577255 
L 162.186988 76.297453 
L 162.531449 73.240221 
L 162.70368 78.018035 
L 162.87591 78.214505 
L 163.048141 86.161716 
L 163.220371 77.919185 
L 163.392602 85.181666 
L 163.737063 73.431282 
L 163.909293 82.598467 
L 164.081524 76.29545 
L 164.253755 77.727118 
L 164.425985 76.687241 
L 164.598216 79.456827 
L 164.770446 77.162089 
L 165.114907 80.118263 
L 165.459368 80.501525 
L 165.631599 78.5889 
L 165.803829 103.421115 
L 165.97606 79.068788 
L 166.14829 75.342927 
L 166.320521 75.824061 
L 166.664982 79.071657 
L 166.837212 78.876382 
L 167.009443 76.203971 
L 167.181673 76.204918 
L 167.353904 74.00224 
L 167.526135 75.72573 
L 167.870596 84.126844 
L 168.042826 79.547625 
L 168.215057 78.113412 
L 168.387287 71.61431 
L 168.559518 74.863041 
L 168.731748 80.69023 
L 168.903979 72.195348 
L 169.24844 78.403444 
L 169.42067 72.290944 
L 169.592901 102.854241 
L 169.765131 73.144779 
L 169.937362 76.872959 
L 170.109592 75.721162 
L 170.281823 76.867821 
L 170.454054 96.735668 
L 170.626284 75.053726 
L 170.798515 80.504353 
L 170.970745 76.397626 
L 171.142976 85.470339 
L 171.315206 106.577078 
L 171.487437 82.697717 
L 171.659667 76.96739 
L 171.831898 76.112827 
L 172.004128 79.167337 
L 172.176359 78.689939 
L 172.348589 193.579886 
L 172.52082 83.840424 
L 172.69305 77.252005 
L 172.865281 77.642505 
L 173.037511 74.103708 
L 173.209742 73.62114 
L 173.381973 97.501701 
L 173.726434 71.902364 
L 174.070895 76.202716 
L 174.243125 118.226492 
L 174.415356 75.248725 
L 174.587586 133.31404 
L 174.759817 143.345658 
L 174.932047 133.508235 
L 175.104278 133.314579 
L 175.276508 77.540784 
L 175.448739 77.346768 
L 175.620969 78.304579 
L 175.7932 116.599362 
L 175.96543 73.534235 
L 176.137661 85.570146 
L 176.309891 87.094568 
L 176.482122 97.698618 
L 176.654353 79.354875 
L 176.826583 80.49902 
L 176.998814 149.750258 
L 177.171044 101.706448 
L 177.343275 107.726169 
L 177.515505 82.981997 
L 177.859966 74.963045 
L 178.032197 96.644095 
L 178.204427 78.78588 
L 178.376658 78.78699 
L 178.548888 86.613536 
L 178.721119 111.935745 
L 178.893349 82.513997 
L 179.06558 77.441225 
L 179.23781 77.161343 
L 179.410041 112.784508 
L 179.582272 81.453155 
L 179.754502 77.254767 
L 179.926733 78.778589 
L 180.098963 91.868133 
L 180.271194 80.120708 
L 180.443424 86.229342 
L 180.615655 82.511408 
L 180.787885 101.224292 
L 180.960116 96.457482 
L 181.132346 86.705499 
L 181.476807 100.557184 
L 181.649038 92.630656 
L 181.821268 93.017424 
L 182.165729 72.191693 
L 182.33796 99.518063 
L 182.51019 77.547613 
L 182.854652 74.674086 
L 183.199113 80.593341 
L 183.543574 74.963533 
L 183.715804 83.362581 
L 183.888035 75.625741 
L 184.060265 81.850275 
L 184.232496 77.634825 
L 184.404726 81.173518 
L 184.576957 100.084398 
L 184.749187 73.62564 
L 185.093648 81.170418 
L 185.61034 74.198992 
L 185.782571 86.520358 
L 185.954801 74.100684 
L 186.127032 72.770038 
L 186.299262 72.76174 
L 186.643723 77.636532 
L 186.815954 76.392917 
L 186.988184 70.860071 
L 187.160415 80.979297 
L 187.332645 76.010599 
L 187.677106 110.297251 
L 187.849337 76.297783 
L 188.021567 75.154191 
L 188.193798 117.747383 
L 188.366028 81.265065 
L 188.538259 74.007 
L 188.88272 81.264806 
L 189.054951 80.407487 
L 189.227181 75.913658 
L 189.399412 76.222821 
L 189.571642 70.088403 
L 189.743873 74.101418 
L 189.916103 75.437153 
L 190.260564 84.518479 
L 190.605025 74.295765 
L 190.777256 81.363088 
L 190.949486 268.555013 
L 191.121717 84.703793 
L 191.293947 79.9274 
L 191.638408 114.59458 
L 191.810639 264.161684 
L 191.98287 77.258142 
L 192.1551 142.580558 
L 192.327331 78.493109 
L 192.499561 238.757313 
L 192.671792 78.876034 
L 192.844022 102.750466 
L 193.016253 70.663214 
L 193.188483 77.920561 
L 193.360714 213.352831 
L 193.532944 80.404419 
L 193.705175 67.608712 
L 193.877405 74.95866 
L 194.049636 217.171752 
L 194.394097 83.842911 
L 194.566327 65.22421 
L 194.738558 89.006216 
L 194.910789 201.030306 
L 195.083019 77.92043 
L 195.25525 84.614153 
L 195.599711 68.178261 
L 196.116402 233.790979 
L 196.288633 86.141194 
L 196.460863 71.623123 
L 196.633094 155.857057 
L 196.805324 177.632487 
L 196.977555 183.361552 
L 197.149785 215.549038 
L 197.322016 165.98372 
L 197.494246 72.285116 
L 197.666477 205.329796 
L 197.838707 75.153351 
L 198.010938 78.587092 
L 198.183169 181.929184 
L 198.355399 79.925733 
L 198.52763 100.176194 
L 198.69986 194.162809 
L 198.872091 161.880185 
L 199.044321 99.027288 
L 199.216552 160.164277 
L 199.388782 80.691827 
L 199.561013 92.336849 
L 199.905474 142.771558 
L 200.422165 78.682884 
L 200.594396 206.188804 
L 200.766626 75.725752 
L 200.938857 78.496966 
L 201.111088 213.445623 
L 201.283318 85.468187 
L 201.455549 230.542803 
L 201.627779 79.457196 
L 201.80001 80.407422 
L 201.97224 143.057022 
L 202.144471 72.862436 
L 202.316701 82.985775 
L 202.488932 81.072026 
L 202.661162 86.055934 
L 203.005623 74.006822 
L 203.350084 99.991054 
L 203.522315 75.530784 
L 203.694545 91.196653 
L 203.866776 248.02086 
L 204.039007 83.270462 
L 204.211237 86.709525 
L 204.383468 116.695033 
L 204.555698 80.788348 
L 204.727929 103.801799 
L 204.900159 154.42359 
L 205.07239 77.059102 
L 205.589081 85.764967 
L 205.761312 78.782724 
L 205.933542 94.923171 
L 206.105773 80.215868 
L 206.278003 241.718724 
L 206.450234 82.410146 
L 206.622464 81.077345 
L 206.794695 81.359733 
L 206.966925 82.413785 
L 207.311387 78.3058 
L 207.655848 82.981186 
L 207.828078 163.213568 
L 208.000309 90.342482 
L 208.172539 78.114197 
L 208.34477 75.920493 
L 208.517 103.326089 
L 208.689231 159.391738 
L 208.861461 78.021049 
L 209.033692 82.430049 
L 209.205922 107.634988 
L 209.378153 199.506575 
L 209.550383 81.550276 
L 209.722614 78.797327 
L 209.894844 197.877442 
L 210.067075 149.836526 
L 210.239306 151.561152 
L 210.411536 83.757761 
L 210.583767 76.775212 
L 210.755997 108.959984 
L 210.928228 192.815483 
L 211.100458 93.964902 
L 211.272689 150.415786 
L 211.444919 134.078321 
L 211.61715 213.734317 
L 211.78938 90.246976 
L 211.961611 86.898926 
L 212.133841 74.584324 
L 212.306072 100.081218 
L 212.478302 82.126152 
L 212.650533 80.881979 
L 212.822763 84.702205 
L 212.994994 78.210359 
L 213.167224 81.931106 
L 213.339455 81.069721 
L 213.511686 82.220759 
L 213.683916 80.793588 
L 213.856147 112.882988 
L 214.028377 86.800504 
L 214.200608 84.223011 
L 214.372838 78.974303 
L 214.545069 77.919884 
L 214.88953 167.031721 
L 215.06176 101.321536 
L 215.233991 145.34985 
L 215.406221 103.615062 
L 215.578452 154.22993 
L 215.750682 93.486872 
L 215.922913 205.141257 
L 216.095143 73.239953 
L 216.267374 73.241895 
L 216.439605 260.055255 
L 216.611835 75.72626 
L 216.784066 247.73598 
L 216.956296 75.914187 
L 217.128527 251.079334 
L 217.300757 76.396789 
L 217.472988 77.159984 
L 217.645218 246.874685 
L 217.817449 91.48873 
L 217.989679 248.401856 
L 218.16191 128.447865 
L 218.33414 245.537252 
L 218.506371 172.18497 
L 218.678601 155.093159 
L 218.850832 268.076788 
L 219.023062 211.346245 
L 219.195293 294.723981 
L 219.539754 257.858582 
L 219.711985 75.150828 
L 219.884215 81.169837 
L 220.056446 269.701059 
L 220.228676 70.183052 
L 220.573137 85.087956 
L 220.745368 75.150673 
L 220.917598 78.01382 
L 221.262059 74.391804 
L 221.43429 74.484003 
L 221.60652 84.415724 
L 221.778751 77.064631 
L 221.950981 81.552425 
L 222.123212 73.143239 
L 222.639904 80.696897 
L 222.812134 77.635744 
L 222.984365 80.889954 
L 223.328826 82.794143 
L 223.501056 81.93546 
L 223.673287 82.505932 
L 223.845517 134.271674 
L 224.017748 78.405689 
L 224.189978 76.599409 
L 224.362209 81.937198 
L 224.70667 76.490558 
L 224.8789 80.505714 
L 225.051131 76.014897 
L 225.223361 86.613221 
L 225.395592 75.148925 
L 225.567823 82.221016 
L 225.740053 81.454058 
L 225.912284 84.612988 
L 226.084514 77.640842 
L 226.256745 84.322231 
L 226.428975 81.64806 
L 226.601206 82.029423 
L 226.773436 75.918751 
L 226.945667 77.352004 
L 227.117897 76.685769 
L 227.290128 77.731689 
L 227.634589 78.113652 
L 227.97905 86.715167 
L 228.15128 71.711954 
L 228.323511 74.388318 
L 228.667972 69.323724 
L 228.840203 73.907443 
L 229.012433 95.494163 
L 229.356894 74.484114 
L 229.701355 75.150452 
L 229.873586 78.112298 
L 230.045816 72.572849 
L 230.218047 61.300632 
L 230.390277 78.597831 
L 230.562508 76.96333 
L 230.734738 73.527392 
L 231.079199 69.706665 
L 231.25143 82.130395 
L 231.595891 73.716715 
L 231.940352 77.061713 
L 232.112583 81.168072 
L 232.457044 69.898384 
L 232.629274 71.137687 
L 233.145966 79.353942 
L 233.318196 96.071459 
L 233.662657 73.338406 
L 234.007118 78.21097 
L 234.52381 69.802536 
L 234.696041 72.760868 
L 234.868271 78.590272 
L 235.040502 78.302637 
L 235.557193 70.186265 
L 236.073885 79.162861 
L 236.246115 80.020354 
L 236.590576 76.010467 
L 236.762807 99.698266 
L 236.935037 79.926642 
L 237.107268 75.629053 
L 237.623959 111.542705 
L 237.79619 76.393357 
L 237.968421 86.42208 
L 238.312882 73.33825 
L 238.485112 117.557923 
L 238.657343 77.637363 
L 238.829573 76.776947 
L 239.001804 79.644649 
L 239.346265 112.397072 
L 239.518495 78.117123 
L 239.862956 76.009893 
L 240.035187 72.571327 
L 240.207417 91.099358 
L 240.379648 73.724555 
L 240.551878 73.917234 
L 240.724109 81.933637 
L 241.06857 76.011326 
L 241.585262 76.490118 
L 241.929723 76.109896 
L 242.101953 80.888791 
L 242.446414 71.522849 
L 242.790875 80.692388 
L 242.963106 73.334569 
L 243.135336 76.685725 
L 243.307567 71.618761 
L 243.479797 76.680693 
L 243.652028 85.947279 
L 243.824259 82.789485 
L 243.996489 238.087044 
L 244.16872 250.12111 
L 244.513181 86.326236 
L 244.685411 274.285099 
L 244.857642 77.825797 
L 245.029872 98.550855 
L 245.202103 169.13238 
L 245.374333 84.993232 
L 245.546564 293.195974 
L 245.718794 252.703977 
L 245.891025 79.546085 
L 246.063255 77.158164 
L 246.235486 229.587687 
L 246.407716 78.496073 
L 246.752177 84.514368 
L 246.924408 77.162089 
L 247.096639 82.124116 
L 247.268869 82.121951 
L 247.4411 77.258361 
L 247.61333 89.38072 
L 247.785561 78.59256 
L 247.957791 80.21576 
L 248.302252 71.522242 
L 248.646713 73.907043 
L 248.991174 83.935189 
L 249.507866 79.06718 
L 249.680096 75.821833 
L 249.852327 76.870719 
L 250.196788 77.157944 
L 250.369019 75.151514 
L 250.541249 78.112647 
L 250.88571 74.388851 
L 251.057941 87.188755 
L 251.402402 71.235719 
L 251.919093 78.110224 
L 252.091324 77.256082 
L 252.263554 73.811289 
L 252.608015 75.434833 
L 252.952476 82.503771 
L 253.469168 77.064038 
L 253.813629 74.768308 
L 254.15809 74.766557 
L 254.674782 79.829834 
L 254.847012 72.288725 
L 255.019243 77.154852 
L 255.363704 77.447073 
L 255.708165 74.96278 
L 255.880395 78.877013 
L 256.052626 71.524131 
L 256.224857 77.72808 
L 256.397087 78.874445 
L 256.569318 75.246955 
L 256.913779 76.104653 
L 257.086009 80.408523 
L 257.43047 77.062437 
L 257.602701 72.190953 
L 257.774931 137.998247 
L 257.947162 70.948316 
L 258.119392 82.885677 
L 258.463853 75.821326 
L 258.636084 82.604006 
L 258.808314 81.741485 
L 258.980545 76.966491 
L 259.152776 75.537963 
L 259.325006 72.764514 
L 259.497237 76.39076 
L 259.669467 87.954807 
L 259.841698 73.345166 
L 260.186159 82.122037 
L 260.358389 74.67892 
L 260.53062 91.482561 
L 260.70285 77.927685 
L 260.875081 78.304426 
L 261.219542 82.885677 
L 261.391772 80.021479 
L 261.564003 74.200392 
L 261.736233 78.11756 
L 261.908464 92.914796 
L 262.080694 76.776727 
L 262.425156 74.390116 
L 262.597386 80.115754 
L 262.769617 69.896231 
L 263.114078 76.489458 
L 263.286308 73.43146 
L 263.458539 78.018843 
L 263.803 77.161387 
L 263.97523 79.356742 
L 264.319691 74.483182 
L 264.664152 74.10333 
L 264.836383 74.771434 
L 265.180844 74.76904 
L 265.353075 73.815274 
L 265.697536 76.009629 
L 265.869766 91.003911 
L 266.041997 87.947301 
L 266.214227 87.283551 
L 266.386458 85.085884 
L 266.558688 77.922921 
L 266.730919 97.789792 
L 266.903149 82.984495 
L 267.07538 83.751891 
L 267.24761 78.687043 
L 267.419841 82.603193 
L 267.592071 80.879802 
L 267.764302 81.556013 
L 267.936532 92.439111 
L 268.108763 93.109351 
L 268.280993 76.199567 
L 268.453224 75.632696 
L 268.625455 69.132593 
L 268.797685 70.565719 
L 268.969916 132.268418 
L 269.142146 74.607216 
L 269.314377 75.821899 
L 269.486607 72.575961 
L 269.658838 78.881646 
L 269.831068 73.245778 
L 270.003299 79.924953 
L 270.175529 69.807476 
L 270.34776 78.596394 
L 270.51999 72.486479 
L 270.692221 77.537063 
L 271.036682 68.662043 
L 271.381143 74.7672 
L 271.553374 74.005243 
L 271.725604 76.395645 
L 271.897835 74.866453 
L 272.070065 80.309646 
L 272.242296 78.207238 
L 272.414526 79.166294 
L 272.586757 78.977 
L 272.758987 77.155664 
L 272.931218 79.351489 
L 273.103448 79.355049 
L 273.275679 82.127459 
L 273.447909 73.811556 
L 273.79237 75.725576 
L 273.964601 107.433929 
L 274.136831 112.401894 
L 274.309062 76.868743 
L 274.481293 76.009871 
L 274.653523 69.132207 
L 275.342445 76.394435 
L 275.514676 71.714785 
L 275.859137 75.253923 
L 276.548059 98.16694 
L 276.720289 74.293366 
L 277.236981 71.619188 
L 277.753673 74.480674 
L 277.925903 76.583383 
L 278.614825 75.916877 
L 278.787056 73.431282 
L 279.303747 69.706416 
L 279.992669 78.305233 
L 280.509361 75.246557 
L 281.026053 76.014192 
L 281.198283 77.636203 
L 281.887205 80.214441 
L 282.059436 76.586725 
L 282.576127 100.750567 
L 282.920588 74.865013 
L 283.092819 73.243993 
L 283.43728 72.476961 
L 283.60951 75.534848 
L 283.781741 71.619391 
L 283.953972 71.330348 
L 284.298433 74.205437 
L 284.470663 74.385742 
L 284.642894 81.172636 
L 284.987355 78.590926 
L 285.331816 69.992601 
L 285.504046 72.482269 
L 285.676277 69.70594 
L 285.848507 77.542579 
L 286.192968 67.699576 
L 286.365199 70.757503 
L 286.537429 76.00996 
L 286.70966 77.632593 
L 287.054121 73.717071 
L 287.226352 81.64413 
L 287.398582 73.429431 
L 287.570813 76.871312 
L 287.743043 73.820394 
L 287.915274 88.906146 
L 288.087504 75.919016 
L 288.259735 71.621436 
L 288.604196 77.449197 
L 288.776426 82.504328 
L 288.948657 74.385898 
L 289.120887 73.818413 
L 289.465348 79.162753 
L 289.637579 71.139512 
L 289.80981 79.167337 
L 289.98204 70.853485 
L 290.326501 78.01631 
L 290.498732 164.945779 
L 290.843193 71.906002 
L 291.015423 77.256542 
L 291.187654 71.140954 
L 291.359884 75.245473 
L 291.532115 82.503279 
L 292.048806 71.332487 
L 292.393267 76.585493 
L 292.565498 67.986171 
L 292.737728 76.010312 
L 293.08219 71.618829 
L 293.25442 74.485446 
L 293.771112 78.018013 
L 293.943342 74.575694 
L 294.115573 74.866896 
L 294.287803 72.28859 
L 294.460034 75.916458 
L 294.632264 70.854206 
L 294.804495 77.155839 
L 295.148956 76.968005 
L 295.321186 80.594614 
L 295.493417 75.823819 
L 295.665647 80.308306 
L 296.010109 71.903554 
L 296.182339 95.982548 
L 296.5268 74.577114 
L 297.043492 77.922856 
L 297.215722 83.081645 
L 297.387953 79.16775 
L 297.560183 79.545738 
L 297.732414 72.569111 
L 297.904644 84.901216 
L 298.076875 70.854229 
L 298.249105 77.349551 
L 298.421336 76.970287 
L 298.593566 77.353297 
L 298.938027 78.499886 
L 299.110258 72.571327 
L 299.282489 80.506297 
L 299.454719 100.367071 
L 299.79918 75.916149 
L 300.143641 78.404425 
L 300.315872 75.915841 
L 300.660333 75.723876 
L 300.832563 101.700255 
L 301.004794 71.903217 
L 301.177024 72.192186 
L 301.349255 73.813493 
L 301.521485 77.348214 
L 301.693716 75.441529 
L 301.865946 70.857071 
L 302.210408 77.53888 
L 302.382638 97.022112 
L 302.554869 73.8116 
L 302.727099 80.979275 
L 303.07156 90.254894 
L 303.416021 71.52728 
L 303.588252 73.913362 
L 303.760482 77.925718 
L 303.932713 74.202214 
L 304.277174 82.026207 
L 304.449404 80.880621 
L 304.793865 75.822252 
L 304.966096 76.10701 
L 305.138327 75.629516 
L 305.310557 77.064762 
L 305.482788 82.507387 
L 305.655018 77.252663 
L 305.827249 83.076631 
L 306.17171 73.435831 
L 306.34394 172.761614 
L 306.516171 75.052376 
L 306.688401 80.306966 
L 307.032862 76.967237 
L 307.205093 85.942985 
L 307.377323 171.806272 
L 307.549554 82.789613 
L 307.721784 77.729589 
L 307.894015 154.902004 
L 308.066245 74.767665 
L 308.238476 69.615466 
L 308.410707 90.051116 
L 308.582937 76.874232 
L 308.755168 77.634584 
L 308.927398 108.869503 
L 309.099629 80.214982 
L 309.271859 82.598767 
L 309.44409 103.342715 
L 309.61632 80.690834 
L 309.788551 92.726143 
L 309.960781 87.578195 
L 310.133012 73.717272 
L 310.305242 69.610091 
L 310.477473 80.218528 
L 310.649703 72.003012 
L 310.821934 76.965547 
L 310.994164 98.171579 
L 311.166395 75.43954 
L 311.338626 72.669744 
L 311.510856 73.810955 
L 311.683087 71.13798 
L 312.027548 77.257331 
L 312.544239 71.140504 
L 312.71647 77.829273 
L 312.8887 68.845681 
L 313.060931 76.967171 
L 313.233161 74.394646 
L 313.405392 73.716381 
L 313.577622 79.926036 
L 313.922083 74.773539 
L 314.266544 85.661646 
L 314.438775 76.682759 
L 314.611006 77.924648 
L 314.783236 81.746251 
L 314.955467 80.406147 
L 315.127697 83.749318 
L 315.299928 80.500121 
L 315.472158 73.528439 
L 315.644389 78.784465 
L 315.816619 77.161804 
L 315.98885 74.00353 
L 316.333311 75.15355 
L 316.505541 79.260497 
L 316.677772 77.349945 
L 316.850002 81.361002 
L 317.194463 294.628481 
L 317.366694 88.811988 
L 317.711155 68.944761 
L 317.883386 71.140616 
L 318.055616 295.487985 
L 318.227847 79.165425 
L 318.400077 80.783754 
L 318.744538 76.681308 
L 318.916769 86.245526 
L 319.088999 77.348433 
L 319.26123 94.635681 
L 319.777921 71.235268 
L 320.122382 74.575761 
L 320.294613 74.863683 
L 320.466844 292.813626 
L 320.639074 84.324713 
L 320.811305 74.009291 
L 320.983535 77.825491 
L 321.327996 283.835955 
L 321.500227 70.279917 
L 321.672457 142.295408 
L 321.844688 86.428317 
L 322.016918 74.58184 
L 322.189149 294.341982 
L 322.361379 74.769882 
L 322.53361 85.754729 
L 322.70584 76.393973 
L 322.878071 294.341981 
L 323.050301 79.737186 
L 323.394762 89.005988 
L 323.566993 75.342463 
L 323.739224 294.341974 
L 323.911454 89.671112 
L 324.083685 121.000149 
L 324.428146 78.78305 
L 324.600376 295.105982 
L 324.772607 76.487721 
L 324.944837 79.930517 
L 325.117068 79.831914 
L 325.289298 81.169105 
L 325.461529 293.959773 
L 325.633759 76.779363 
L 325.80599 97.689198 
L 325.97822 85.273288 
L 326.150451 295.488 
L 326.322681 73.718764 
L 326.494912 89.490756 
L 326.667143 75.914187 
L 326.839373 78.496988 
L 327.011604 294.34198 
L 327.183834 139.71822 
L 327.356065 88.142381 
L 327.528295 83.564775 
L 327.700526 121.762408 
L 327.872756 294.34199 
L 328.044987 86.519036 
L 328.217217 123.95596 
L 328.389448 114.512498 
L 328.561678 90.342461 
L 328.733909 293.768981 
L 328.906139 77.348652 
L 329.07837 86.902383 
L 329.2506 78.492716 
L 329.422831 295.105981 
L 329.595061 83.173312 
L 329.767292 86.997806 
L 329.939523 75.53074 
L 330.111753 74.203903 
L 330.283984 292.909499 
L 330.456214 91.962515 
L 330.628445 82.697054 
L 330.800675 100.747553 
L 330.972906 138.757739 
L 331.145136 293.864267 
L 331.317367 105.233761 
L 331.489597 107.526017 
L 331.834058 74.002529 
L 332.006289 290.712674 
L 332.178519 76.392983 
L 332.35075 86.710092 
L 332.52298 81.454338 
L 332.695211 80.406644 
L 332.867442 289.280163 
L 333.039672 84.609387 
L 333.211903 80.97753 
L 333.384133 82.40959 
L 333.556364 287.847665 
L 333.728594 117.178547 
L 333.900825 75.821943 
L 334.073055 84.132916 
L 334.245286 127.964893 
L 334.417516 284.313904 
L 334.761977 81.742451 
L 334.934208 92.057756 
L 335.106438 93.393272 
L 335.278669 286.319309 
L 335.450899 81.839417 
L 335.62313 116.50639 
L 335.795361 83.6493 
L 335.967591 87.758913 
L 336.139822 283.45409 
L 336.312052 83.370763 
L 336.484283 83.649661 
L 336.656513 74.294366 
L 336.828744 278.105618 
L 337.000974 101.127221 
L 337.173205 80.125683 
L 337.345435 99.604865 
L 337.517666 76.86848 
L 337.689896 271.515366 
L 337.862127 85.753254 
L 338.034357 76.298003 
L 338.206588 85.082672 
L 338.378818 80.307874 
L 338.551049 244.295769 
L 338.723279 91.295709 
L 338.89551 74.766202 
L 339.239971 116.697172 
L 339.412202 196.162427 
L 339.584432 96.748248 
L 339.928893 84.797395 
L 340.101124 105.713786 
L 340.445585 84.707625 
L 340.617815 86.420673 
L 340.790046 90.345408 
L 340.962276 178.013129 
L 341.134507 78.014912 
L 341.306737 98.646244 
L 341.478968 79.352444 
L 341.651198 76.297409 
L 341.823429 123.199676 
L 341.99566 88.627189 
L 342.16789 79.068071 
L 342.340121 80.695257 
L 342.512351 117.651911 
L 342.684582 78.685432 
L 342.856812 70.278221 
L 343.029043 76.58479 
L 343.201273 77.061603 
L 343.373504 75.343414 
L 343.545734 84.608074 
L 343.890195 75.345735 
L 344.062426 75.819561 
L 344.234656 72.860669 
L 344.406887 78.109591 
L 344.579117 95.986497 
L 344.751348 78.109678 
L 345.095809 103.037767 
L 345.26804 76.970682 
L 345.44027 137.81047 
L 345.612501 82.984089 
L 345.784731 75.440623 
L 345.956962 91.961145 
L 346.129192 71.90443 
L 346.301423 89.587044 
L 346.473653 79.549968 
L 346.645884 78.018276 
L 346.990345 79.546259 
L 347.162575 78.303815 
L 347.334806 81.453843 
L 347.507036 79.835964 
L 347.679267 122.236802 
L 347.851497 90.148769 
L 348.195959 76.201042 
L 348.368189 106.189499 
L 348.54042 76.009849 
L 348.71265 77.249989 
L 348.884881 86.803209 
L 349.057111 75.730784 
L 349.229342 74.772764 
L 349.401572 78.682644 
L 349.573803 73.914297 
L 349.918264 84.604473 
L 350.262725 72.477319 
L 350.434955 92.729993 
L 350.607186 86.131835 
L 350.779416 90.246337 
L 350.951647 65.885763 
L 351.123878 80.498178 
L 351.296108 75.056427 
L 351.468339 82.409847 
L 351.640569 74.105375 
L 351.8128 153.85036 
L 352.157261 85.291721 
L 352.329491 74.580131 
L 352.501722 75.154147 
L 352.673952 77.644583 
L 352.846183 82.984068 
L 353.018413 71.334828 
L 353.190644 73.150049 
L 353.362874 92.914817 
L 353.535105 74.401906 
L 353.707335 73.336822 
L 353.879566 70.954607 
L 354.224027 78.016266 
L 354.396258 71.522624 
L 354.568488 95.110481 
L 354.740719 77.443196 
L 354.912949 86.326257 
L 355.08518 80.7921 
L 355.25741 139.044486 
L 355.429641 81.73878 
L 355.601871 124.052812 
L 355.774102 96.361678 
L 355.946332 94.731209 
L 356.118563 98.45598 
L 356.290793 94.544373 
L 356.463024 81.370701 
L 356.635254 86.897564 
L 356.807485 78.208264 
L 357.324177 83.273254 
L 357.496407 81.838752 
L 357.668638 84.032843 
L 357.840868 77.827699 
L 358.013099 88.046374 
L 358.185329 87.568065 
L 358.35756 81.356615 
L 358.52979 137.995633 
L 358.702021 94.449837 
L 358.874251 99.420985 
L 359.046482 98.267859 
L 359.735404 77.06632 
L 359.907634 82.229691 
L 360.079865 75.91476 
L 360.424326 77.444204 
L 360.596557 97.689059 
L 360.941018 74.199548 
L 361.113248 73.333721 
L 361.285479 77.536121 
L 361.457709 78.399192 
L 361.62994 73.429609 
L 361.80217 75.727319 
L 361.974401 114.690234 
L 362.146631 72.869254 
L 362.491092 79.068049 
L 362.663323 78.208351 
L 362.835553 76.489238 
L 363.007784 76.017167 
L 363.180014 80.783517 
L 363.524476 76.48926 
L 363.696706 74.289567 
L 363.868937 74.580486 
L 364.041167 70.760324 
L 364.213398 75.438965 
L 364.385628 75.81934 
L 364.730089 74.013094 
L 365.07455 167.316743 
L 365.246781 76.583691 
L 365.419011 76.105336 
L 365.591242 72.002429 
L 365.935703 74.104508 
L 366.107933 72.488427 
L 366.280164 74.388917 
L 366.452395 77.828158 
L 366.796856 75.726348 
L 367.141317 72.190729 
L 367.313547 75.821436 
L 367.485778 71.332689 
L 367.658008 76.206724 
L 367.830239 95.98816 
L 368.002469 80.120751 
L 368.1747 75.626138 
L 368.34693 94.922466 
L 368.519161 73.623234 
L 368.691391 74.298342 
L 368.863622 76.216744 
L 369.035852 89.475711 
L 369.380313 73.716403 
L 369.552544 75.821326 
L 369.897005 63.980245 
L 370.241466 76.681528 
L 370.758158 74.958505 
L 370.930388 80.783819 
L 371.102619 77.639026 
L 371.44708 91.672206 
L 371.791541 77.82689 
L 372.136002 72.9583 
L 372.652694 74.099439 
L 372.824924 82.693292 
L 373.169385 76.873815 
L 373.341616 71.815683 
L 373.513846 137.900236 
L 373.686077 73.34057 
L 373.858307 73.147548 
L 374.030538 73.626175 
L 374.202768 71.238286 
L 374.71946 74.289945 
L 374.89169 74.002596 
L 375.236151 76.871027 
L 375.408382 55.992277 
L 375.580612 79.544502 
L 375.752843 66.875442 
L 375.925074 73.431906 
L 376.269535 67.507849 
L 376.441765 71.236056 
L 376.613996 106.28476 
L 376.786226 73.811111 
L 377.130687 75.628081 
L 377.302918 125.388131 
L 377.475148 77.257879 
L 377.819609 71.710471 
L 377.99184 125.391364 
L 378.508531 107.626473 
L 378.680762 74.099239 
L 378.852993 69.134435 
L 379.025223 71.71283 
L 379.197454 149.265841 
L 379.541915 80.693812 
L 380.058606 71.236214 
L 380.230837 74.577181 
L 380.403067 87.574895 
L 380.575298 65.597807 
L 380.919759 75.247884 
L 381.091989 159.485272 
L 381.608681 109.631532 
L 381.780912 214.783182 
L 381.953142 89.189185 
L 382.125373 103.134745 
L 382.469834 73.340972 
L 382.642064 68.941485 
L 382.814295 70.760865 
L 383.158756 69.608503 
L 383.503217 74.680096 
L 383.675447 72.484329 
L 383.847678 85.083581 
L 384.192139 69.709454 
L 384.5366 75.823245 
L 385.053292 70.277158 
L 385.397753 78.781788 
L 385.569983 72.291257 
L 385.742214 71.236642 
L 385.914444 75.535489 
L 386.258905 89.576453 
L 386.603366 62.065334 
L 386.775597 72.102803 
L 386.947827 73.052935 
L 387.120058 80.687879 
L 387.292288 80.596168 
L 387.464519 104.777087 
L 387.636749 76.779187 
L 387.80898 77.923883 
L 387.981211 68.273678 
L 388.153441 74.964618 
L 388.325672 72.476804 
L 388.497902 65.221736 
L 388.670133 104.663257 
L 388.842363 69.706076 
L 389.186824 79.924953 
L 389.359055 75.444579 
L 389.703516 77.254876 
L 389.875746 118.226919 
L 390.047977 76.972657 
L 390.220207 75.150452 
L 390.392438 75.342662 
L 390.736899 78.495964 
L 390.909129 76.396437 
L 391.08136 68.467225 
L 391.253591 78.77935 
L 391.425821 78.20846 
L 391.598052 65.408522 
L 391.770282 76.585801 
L 391.942513 73.334413 
L 392.114743 75.915466 
L 392.286974 75.149899 
L 392.459204 81.836628 
L 392.631435 73.14373 
L 392.803665 76.013575 
L 392.975896 68.845362 
L 393.148126 67.617659 
L 393.320357 78.972781 
L 393.492587 79.082612 
L 393.837048 67.31777 
L 394.009279 77.158449 
L 394.18151 72.765923 
L 394.35374 74.863218 
L 394.525971 74.486933 
L 394.698201 73.622721 
L 394.870432 81.380593 
L 395.042662 72.953606 
L 395.214893 76.489106 
L 395.559354 78.683319 
L 395.731584 75.632078 
L 395.903815 76.105997 
L 396.076045 78.787142 
L 396.248276 73.242743 
L 396.420506 72.478215 
L 396.937198 81.267238 
L 397.109429 76.875879 
L 397.45389 76.586812 
L 398.142812 72.575088 
L 398.315042 78.496269 
L 398.487273 73.914608 
L 398.487273 73.914608 
" style="fill:none;stroke:#0000ff;stroke-linecap:square;stroke-width:1.5;"/>
   </g>
   <g id="patch_3">
    <path d="M 57.6 307.584 
L 57.6 41.472 
" style="fill:none;stroke:#000000;stroke-linecap:square;stroke-linejoin:miter;stroke-width:0.8;"/>
   </g>
   <g id="patch_4">
    <path d="M 414.72 307.584 
L 414.72 41.472 
" style="fill:none;stroke:#000000;stroke-linecap:square;stroke-linejoin:miter;stroke-width:0.8;"/>
   </g>
   <g id="patch_5">
    <path d="M 57.6 307.584 
L 414.72 307.584 
" style="fill:none;stroke:#000000;stroke-linecap:square;stroke-linejoin:miter;stroke-width:0.8;"/>
   </g>
   <g id="patch_6">
    <path d="M 57.6 41.472 
L 414.72 41.472 
" style="fill:none;stroke:#000000;stroke-linecap:square;stroke-linejoin:miter;stroke-width:0.8;"/>
   </g>
   <g id="text_20">
    <!-- air_pressure-&gt;Throughput_day -->
    <g transform="translate(143.3625 35.472)scale(0.12 -0.12)">
     <defs>
      <path d="M 4.890625 31.390625 
L 31.203125 31.390625 
L 31.203125 23.390625 
L 4.890625 23.390625 
z
" id="DejaVuSans-45"/>
      <path d="M 10.59375 49.21875 
L 10.59375 58.109375 
L 73.1875 35.40625 
L 73.1875 27.296875 
L 10.59375 4.59375 
L 10.59375 13.484375 
L 60.890625 31.296875 
z
" id="DejaVuSans-62"/>
      <path d="M -0.296875 72.90625 
L 61.375 72.90625 
L 61.375 64.59375 
L 35.5 64.59375 
L 35.5 0 
L 25.59375 0 
L 25.59375 64.59375 
L -0.296875 64.59375 
z
" id="DejaVuSans-84"/>
      <path d="M 54.890625 33.015625 
L 54.890625 0 
L 45.90625 0 
L 45.90625 32.71875 
Q 45.90625 40.484375 42.875 44.328125 
Q 39.84375 48.1875 33.796875 48.1875 
Q 26.515625 48.1875 22.3125 43.546875 
Q 18.109375 38.921875 18.109375 30.90625 
L 18.109375 0 
L 9.078125 0 
L 9.078125 75.984375 
L 18.109375 75.984375 
L 18.109375 46.1875 
Q 21.34375 51.125 25.703125 53.5625 
Q 30.078125 56 35.796875 56 
Q 45.21875 56 50.046875 50.171875 
Q 54.890625 44.34375 54.890625 33.015625 
z
" id="DejaVuSans-104"/>
      <path d="M 45.40625 27.984375 
Q 45.40625 37.75 41.375 43.109375 
Q 37.359375 48.484375 30.078125 48.484375 
Q 22.859375 48.484375 18.828125 43.109375 
Q 14.796875 37.75 14.796875 27.984375 
Q 14.796875 18.265625 18.828125 12.890625 
Q 22.859375 7.515625 30.078125 7.515625 
Q 37.359375 7.515625 41.375 12.890625 
Q 45.40625 18.265625 45.40625 27.984375 
z
M 54.390625 6.78125 
Q 54.390625 -7.171875 48.1875 -13.984375 
Q 42 -20.796875 29.203125 -20.796875 
Q 24.46875 -20.796875 20.265625 -20.09375 
Q 16.0625 -19.390625 12.109375 -17.921875 
L 12.109375 -9.1875 
Q 16.0625 -11.328125 19.921875 -12.34375 
Q 23.78125 -13.375 27.78125 -13.375 
Q 36.625 -13.375 41.015625 -8.765625 
Q 45.40625 -4.15625 45.40625 5.171875 
L 45.40625 9.625 
Q 42.625 4.78125 38.28125 2.390625 
Q 33.9375 0 27.875 0 
Q 17.828125 0 11.671875 7.65625 
Q 5.515625 15.328125 5.515625 27.984375 
Q 5.515625 40.671875 11.671875 48.328125 
Q 17.828125 56 27.875 56 
Q 33.9375 56 38.28125 53.609375 
Q 42.625 51.21875 45.40625 46.390625 
L 45.40625 54.6875 
L 54.390625 54.6875 
z
" id="DejaVuSans-103"/>
      <path d="M 18.3125 70.21875 
L 18.3125 54.6875 
L 36.8125 54.6875 
L 36.8125 47.703125 
L 18.3125 47.703125 
L 18.3125 18.015625 
Q 18.3125 11.328125 20.140625 9.421875 
Q 21.96875 7.515625 27.59375 7.515625 
L 36.8125 7.515625 
L 36.8125 0 
L 27.59375 0 
Q 17.1875 0 13.234375 3.875 
Q 9.28125 7.765625 9.28125 18.015625 
L 9.28125 47.703125 
L 2.6875 47.703125 
L 2.6875 54.6875 
L 9.28125 54.6875 
L 9.28125 70.21875 
z
" id="DejaVuSans-116"/>
      <path d="M 45.40625 46.390625 
L 45.40625 75.984375 
L 54.390625 75.984375 
L 54.390625 0 
L 45.40625 0 
L 45.40625 8.203125 
Q 42.578125 3.328125 38.25 0.953125 
Q 33.9375 -1.421875 27.875 -1.421875 
Q 17.96875 -1.421875 11.734375 6.484375 
Q 5.515625 14.40625 5.515625 27.296875 
Q 5.515625 40.1875 11.734375 48.09375 
Q 17.96875 56 27.875 56 
Q 33.9375 56 38.25 53.625 
Q 42.578125 51.265625 45.40625 46.390625 
z
M 14.796875 27.296875 
Q 14.796875 17.390625 18.875 11.75 
Q 22.953125 6.109375 30.078125 6.109375 
Q 37.203125 6.109375 41.296875 11.75 
Q 45.40625 17.390625 45.40625 27.296875 
Q 45.40625 37.203125 41.296875 42.84375 
Q 37.203125 48.484375 30.078125 48.484375 
Q 22.953125 48.484375 18.875 42.84375 
Q 14.796875 37.203125 14.796875 27.296875 
z
" id="DejaVuSans-100"/>
      <path d="M 32.171875 -5.078125 
Q 28.375 -14.84375 24.75 -17.8125 
Q 21.140625 -20.796875 15.09375 -20.796875 
L 7.90625 -20.796875 
L 7.90625 -13.28125 
L 13.1875 -13.28125 
Q 16.890625 -13.28125 18.9375 -11.515625 
Q 21 -9.765625 23.484375 -3.21875 
L 25.09375 0.875 
L 2.984375 54.6875 
L 12.5 54.6875 
L 29.59375 11.921875 
L 46.6875 54.6875 
L 56.203125 54.6875 
z
" id="DejaVuSans-121"/>
     </defs>
     <use xlink:href="#DejaVuSans-97"/>
     <use x="61.279297" xlink:href="#DejaVuSans-105"/>
     <use x="89.0625" xlink:href="#DejaVuSans-114"/>
     <use x="130.175781" xlink:href="#DejaVuSans-95"/>
     <use x="180.175781" xlink:href="#DejaVuSans-112"/>
     <use x="243.652344" xlink:href="#DejaVuSans-114"/>
     <use x="282.515625" xlink:href="#DejaVuSans-101"/>
     <use x="344.039062" xlink:href="#DejaVuSans-115"/>
     <use x="396.138672" xlink:href="#DejaVuSans-115"/>
     <use x="448.238281" xlink:href="#DejaVuSans-117"/>
     <use x="511.617188" xlink:href="#DejaVuSans-114"/>
     <use x="550.480469" xlink:href="#DejaVuSans-101"/>
     <use x="612.003906" xlink:href="#DejaVuSans-45"/>
     <use x="648.087891" xlink:href="#DejaVuSans-62"/>
     <use x="731.876953" xlink:href="#DejaVuSans-84"/>
     <use x="792.960938" xlink:href="#DejaVuSans-104"/>
     <use x="856.339844" xlink:href="#DejaVuSans-114"/>
     <use x="895.203125" xlink:href="#DejaVuSans-111"/>
     <use x="956.384766" xlink:href="#DejaVuSans-117"/>
     <use x="1019.763672" xlink:href="#DejaVuSans-103"/>
     <use x="1083.240234" xlink:href="#DejaVuSans-104"/>
     <use x="1146.619141" xlink:href="#DejaVuSans-112"/>
     <use x="1210.095703" xlink:href="#DejaVuSans-117"/>
     <use x="1273.474609" xlink:href="#DejaVuSans-116"/>
     <use x="1312.683594" xlink:href="#DejaVuSans-95"/>
     <use x="1362.683594" xlink:href="#DejaVuSans-100"/>
     <use x="1426.160156" xlink:href="#DejaVuSans-97"/>
     <use x="1487.439453" xlink:href="#DejaVuSans-121"/>
    </g>
   </g>
  </g>
  <g id="legend_1">
   <g id="patch_7">
    <path d="M 415.692187 22.678125 
L 453.8 22.678125 
Q 455.8 22.678125 455.8 20.678125 
L 455.8 7 
Q 455.8 5 453.8 5 
L 415.692187 5 
Q 413.692187 5 413.692187 7 
L 413.692187 20.678125 
Q 413.692187 22.678125 415.692187 22.678125 
z
" style="fill:#ffffff;opacity:0.8;stroke:#cccccc;stroke-linejoin:miter;"/>
   </g>
   <g id="line2d_19">
    <path d="M 417.692187 13.098438 
L 437.692187 13.098438 
" style="fill:none;stroke:#0000ff;stroke-linecap:square;stroke-width:1.5;"/>
   </g>
   <g id="line2d_20"/>
   <g id="text_21">
    <!-- T -->
    <g transform="translate(445.692187 16.598438)scale(0.1 -0.1)">
     <use xlink:href="#DejaVuSans-84"/>
    </g>
   </g>
  </g>
 </g>
 <defs>
  <clipPath id="p00aa71a786">
   <rect height="266.112" width="357.12" x="57.6" y="41.472"/>
  </clipPath>
 </defs>
</svg>
