<?xml version="1.0" encoding="utf-8" standalone="no"?>
<!DOCTYPE svg PUBLIC "-//W3C//DTD SVG 1.1//EN"
  "http://www.w3.org/Graphics/SVG/1.1/DTD/svg11.dtd">
<!-- Created with matplotlib (https://matplotlib.org/) -->
<svg height="2090.31625pt" version="1.1" viewBox="0 0 2062.259375 2090.31625" width="2062.259375pt" xmlns="http://www.w3.org/2000/svg" xmlns:xlink="http://www.w3.org/1999/xlink">
 <metadata>
  <rdf:RDF xmlns:cc="http://creativecommons.org/ns#" xmlns:dc="http://purl.org/dc/elements/1.1/" xmlns:rdf="http://www.w3.org/1999/02/22-rdf-syntax-ns#">
   <cc:Work>
    <dc:type rdf:resource="http://purl.org/dc/dcmitype/StillImage"/>
    <dc:date>2022-07-24T11:51:31.695240</dc:date>
    <dc:format>image/svg+xml</dc:format>
    <dc:creator>
     <cc:Agent>
      <dc:title>Matplotlib v3.3.2, https://matplotlib.org/</dc:title>
     </cc:Agent>
    </dc:creator>
   </cc:Work>
  </rdf:RDF>
 </metadata>
 <defs>
  <style type="text/css">*{stroke-linecap:butt;stroke-linejoin:round;}</style>
 </defs>
 <g id="figure_1">
  <g id="patch_1">
   <path d="M 0 2090.31625 
L 2062.259375 2090.31625 
L 2062.259375 0 
L 0 0 
z
" style="fill:#ffffff;"/>
  </g>
  <g id="axes_1">
   <g id="patch_2">
    <path d="M 44.059375 2052.76 
L 1829.659375 2052.76 
L 1829.659375 278.68 
L 44.059375 278.68 
z
" style="fill:#ffffff;"/>
   </g>
   <g id="matplotlib.axis_1">
    <g id="xtick_1">
     <g id="line2d_1">
      <defs>
       <path d="M 0 0 
L 0 3.5 
" id="m292f594bf5" style="stroke:#000000;stroke-width:0.8;"/>
      </defs>
      <g>
       <use style="stroke:#000000;stroke-width:0.8;" x="110.775034" xlink:href="#m292f594bf5" y="2052.76"/>
      </g>
     </g>
     <g id="text_1">
      <text style="font-family:DejaVu Sans;font-size:10px;font-stretch:normal;font-style:normal;font-weight:normal;text-anchor:middle;" transform="rotate(-0, 110.775034, 2067.358438)" x="110.775034" y="2067.358438">5.0</text>
     </g>
    </g>
    <g id="xtick_2">
     <g id="line2d_2">
      <g>
       <use style="stroke:#000000;stroke-width:0.8;" x="323.245286" xlink:href="#m292f594bf5" y="2052.76"/>
      </g>
     </g>
     <g id="text_2">
      <text style="font-family:DejaVu Sans;font-size:10px;font-stretch:normal;font-style:normal;font-weight:normal;text-anchor:middle;" transform="rotate(-0, 323.245286, 2067.358438)" x="323.245286" y="2067.358438">7.5</text>
     </g>
    </g>
    <g id="xtick_3">
     <g id="line2d_3">
      <g>
       <use style="stroke:#000000;stroke-width:0.8;" x="535.715539" xlink:href="#m292f594bf5" y="2052.76"/>
      </g>
     </g>
     <g id="text_3">
      <text style="font-family:DejaVu Sans;font-size:10px;font-stretch:normal;font-style:normal;font-weight:normal;text-anchor:middle;" transform="rotate(-0, 535.715539, 2067.358438)" x="535.715539" y="2067.358438">10.0</text>
     </g>
    </g>
    <g id="xtick_4">
     <g id="line2d_4">
      <g>
       <use style="stroke:#000000;stroke-width:0.8;" x="748.185791" xlink:href="#m292f594bf5" y="2052.76"/>
      </g>
     </g>
     <g id="text_4">
      <text style="font-family:DejaVu Sans;font-size:10px;font-stretch:normal;font-style:normal;font-weight:normal;text-anchor:middle;" transform="rotate(-0, 748.185791, 2067.358438)" x="748.185791" y="2067.358438">12.5</text>
     </g>
    </g>
    <g id="xtick_5">
     <g id="line2d_5">
      <g>
       <use style="stroke:#000000;stroke-width:0.8;" x="960.656043" xlink:href="#m292f594bf5" y="2052.76"/>
      </g>
     </g>
     <g id="text_5">
      <text style="font-family:DejaVu Sans;font-size:10px;font-stretch:normal;font-style:normal;font-weight:normal;text-anchor:middle;" transform="rotate(-0, 960.656043, 2067.358438)" x="960.656043" y="2067.358438">15.0</text>
     </g>
    </g>
    <g id="xtick_6">
     <g id="line2d_6">
      <g>
       <use style="stroke:#000000;stroke-width:0.8;" x="1173.126296" xlink:href="#m292f594bf5" y="2052.76"/>
      </g>
     </g>
     <g id="text_6">
      <text style="font-family:DejaVu Sans;font-size:10px;font-stretch:normal;font-style:normal;font-weight:normal;text-anchor:middle;" transform="rotate(-0, 1173.126296, 2067.358438)" x="1173.126296" y="2067.358438">17.5</text>
     </g>
    </g>
    <g id="xtick_7">
     <g id="line2d_7">
      <g>
       <use style="stroke:#000000;stroke-width:0.8;" x="1385.596548" xlink:href="#m292f594bf5" y="2052.76"/>
      </g>
     </g>
     <g id="text_7">
      <text style="font-family:DejaVu Sans;font-size:10px;font-stretch:normal;font-style:normal;font-weight:normal;text-anchor:middle;" transform="rotate(-0, 1385.596548, 2067.358438)" x="1385.596548" y="2067.358438">20.0</text>
     </g>
    </g>
    <g id="xtick_8">
     <g id="line2d_8">
      <g>
       <use style="stroke:#000000;stroke-width:0.8;" x="1598.0668" xlink:href="#m292f594bf5" y="2052.76"/>
      </g>
     </g>
     <g id="text_8">
      <text style="font-family:DejaVu Sans;font-size:10px;font-stretch:normal;font-style:normal;font-weight:normal;text-anchor:middle;" transform="rotate(-0, 1598.0668, 2067.358438)" x="1598.0668" y="2067.358438">22.5</text>
     </g>
    </g>
    <g id="xtick_9">
     <g id="line2d_9">
      <g>
       <use style="stroke:#000000;stroke-width:0.8;" x="1810.537052" xlink:href="#m292f594bf5" y="2052.76"/>
      </g>
     </g>
     <g id="text_9">
      <text style="font-family:DejaVu Sans;font-size:10px;font-stretch:normal;font-style:normal;font-weight:normal;text-anchor:middle;" transform="rotate(-0, 1810.537052, 2067.358438)" x="1810.537052" y="2067.358438">25.0</text>
     </g>
    </g>
    <g id="text_10">
     <text style="font-family:DejaVu Sans;font-size:10px;font-stretch:normal;font-style:normal;font-weight:normal;text-anchor:middle;" transform="rotate(-0, 936.859375, 2081.036562)" x="936.859375" y="2081.036562">temperature from Aeris</text>
    </g>
   </g>
   <g id="matplotlib.axis_2">
    <g id="ytick_1">
     <g id="line2d_10">
      <defs>
       <path d="M 0 0 
L -3.5 0 
" id="m1fe9dc3e9a" style="stroke:#000000;stroke-width:0.8;"/>
      </defs>
      <g>
       <use style="stroke:#000000;stroke-width:0.8;" x="44.059375" xlink:href="#m1fe9dc3e9a" y="1790.852564"/>
      </g>
     </g>
     <g id="text_11">
      <text style="font-family:DejaVu Sans;font-size:10px;font-stretch:normal;font-style:normal;font-weight:normal;text-anchor:end;" transform="rotate(-0, 37.059375, 1794.651783)" x="37.059375" y="1794.651783">4.0</text>
     </g>
    </g>
    <g id="ytick_2">
     <g id="line2d_11">
      <g>
       <use style="stroke:#000000;stroke-width:0.8;" x="44.059375" xlink:href="#m1fe9dc3e9a" y="1490.740916"/>
      </g>
     </g>
     <g id="text_12">
      <text style="font-family:DejaVu Sans;font-size:10px;font-stretch:normal;font-style:normal;font-weight:normal;text-anchor:end;" transform="rotate(-0, 37.059375, 1494.540134)" x="37.059375" y="1494.540134">4.5</text>
     </g>
    </g>
    <g id="ytick_3">
     <g id="line2d_12">
      <g>
       <use style="stroke:#000000;stroke-width:0.8;" x="44.059375" xlink:href="#m1fe9dc3e9a" y="1190.629267"/>
      </g>
     </g>
     <g id="text_13">
      <text style="font-family:DejaVu Sans;font-size:10px;font-stretch:normal;font-style:normal;font-weight:normal;text-anchor:end;" transform="rotate(-0, 37.059375, 1194.428486)" x="37.059375" y="1194.428486">5.0</text>
     </g>
    </g>
    <g id="ytick_4">
     <g id="line2d_13">
      <g>
       <use style="stroke:#000000;stroke-width:0.8;" x="44.059375" xlink:href="#m1fe9dc3e9a" y="890.517618"/>
      </g>
     </g>
     <g id="text_14">
      <text style="font-family:DejaVu Sans;font-size:10px;font-stretch:normal;font-style:normal;font-weight:normal;text-anchor:end;" transform="rotate(-0, 37.059375, 894.316837)" x="37.059375" y="894.316837">5.5</text>
     </g>
    </g>
    <g id="ytick_5">
     <g id="line2d_14">
      <g>
       <use style="stroke:#000000;stroke-width:0.8;" x="44.059375" xlink:href="#m1fe9dc3e9a" y="590.405969"/>
      </g>
     </g>
     <g id="text_15">
      <text style="font-family:DejaVu Sans;font-size:10px;font-stretch:normal;font-style:normal;font-weight:normal;text-anchor:end;" transform="rotate(-0, 37.059375, 594.205188)" x="37.059375" y="594.205188">6.0</text>
     </g>
    </g>
    <g id="ytick_6">
     <g id="line2d_15">
      <g>
       <use style="stroke:#000000;stroke-width:0.8;" x="44.059375" xlink:href="#m1fe9dc3e9a" y="290.294321"/>
      </g>
     </g>
     <g id="text_16">
      <text style="font-family:DejaVu Sans;font-size:10px;font-stretch:normal;font-style:normal;font-weight:normal;text-anchor:end;" transform="rotate(-0, 37.059375, 294.09354)" x="37.059375" y="294.09354">6.5</text>
     </g>
    </g>
    <g id="text_17">
     <text style="font-family:DejaVu Sans;font-size:10px;font-stretch:normal;font-style:normal;font-weight:normal;text-anchor:middle;" transform="rotate(-90, 14.798438, 1165.72)" x="14.798438" y="1165.72">ping_night[ms]</text>
    </g>
   </g>
   <g id="line2d_16">
    <path clip-path="url(#pf97870253d)" d="M 125.223011 1413.31211 
L 126.072892 1322.678392 
L 127.772654 1634.194284 
L 150.719442 1395.905635 
L 152.419204 1586.17642 
L 154.968847 1234.445568 
L 156.668609 1515.950294 
L 159.218252 1442.122828 
L 160.918014 1553.164138 
L 163.467657 1479.336673 
L 164.317538 1636.595177 
L 165.167419 1489.540469 
L 166.867181 1338.884421 
L 169.416824 1365.89447 
L 172.816348 1424.11613 
L 203.412064 1366.494693 
L 204.261945 1541.759896 
L 207.661469 1456.528188 
L 210.211112 1222.441102 
L 211.910874 1607.784459 
L 212.760755 1382.100499 
L 214.460517 1670.807905 
L 215.310398 1610.185352 
L 216.160279 1495.542702 
L 217.01016 1654.601876 
L 218.709922 1144.412073 
L 220.409684 1493.742032 
L 221.259565 1570.570614 
L 222.959327 1573.571731 
L 224.659089 1366.494693 
L 228.058613 1619.188701 
L 231.458137 1577.773294 
L 233.1579 1646.19875 
L 235.707543 1539.959226 
L 236.557424 1428.317693 
L 239.107067 1563.367934 
L 239.956948 1319.677276 
L 240.806829 1416.91345 
L 242.506591 1259.654946 
L 243.356472 1652.200983 
L 244.206353 1649.199866 
L 245.056234 1496.142925 
L 245.906115 1430.718586 
L 246.755996 1502.145158 
L 248.455758 1406.709654 
L 250.15552 1194.230607 
L 251.005401 1188.228374 
L 251.855282 1369.495809 
L 254.404925 1570.570614 
L 255.254806 1435.520372 
L 257.804449 1496.142925 
L 258.65433 1397.106081 
L 260.354092 1553.164138 
L 261.203973 1325.079285 
L 262.053854 1284.264101 
L 265.453378 1329.280849 
L 266.303259 1730.230011 
L 268.003021 1564.568381 
L 270.552664 1228.443335 
L 271.402545 1553.764362 
L 273.102307 1578.373517 
L 274.802069 1419.314343 
L 276.501831 1916.899457 
L 277.351712 1695.41706 
L 278.201593 1620.389148 
L 279.051474 1709.222196 
L 280.751236 1476.93578 
L 281.601117 1433.119479 
L 283.300879 816.690153 
L 284.15076 1312.474596 
L 285.000641 1324.479062 
L 285.850522 1256.65383 
L 287.550284 1335.283082 
L 288.400165 1468.532654 
L 289.250046 1453.527071 
L 290.099927 1320.277499 
L 290.949808 1362.29313 
L 291.799689 1145.61252 
L 292.64957 1594.579546 
L 293.499451 1467.332207 
L 294.349332 1406.709654 
L 295.199213 924.730346 
L 296.049094 1376.698489 
L 296.898975 1327.480179 
L 297.748856 1429.518139 
L 298.598737 1163.619218 
L 300.298499 1514.149624 
L 313.046714 1482.337789 
L 315.596357 1527.354537 
L 324.945048 1258.454499 
L 325.794929 1098.194879 
L 327.494692 1404.308761 
L 328.344573 1353.28978 
L 329.194454 1061.581258 
L 330.044335 1455.927964 
L 330.894216 1510.548284 
L 331.744097 1257.254053 
L 333.443859 1379.699606 
L 334.29374 1685.213264 
L 335.143621 940.936375 
L 335.993502 1496.743148 
L 336.843383 1457.728634 
L 337.693264 1933.705709 
L 338.543145 1281.262985 
L 341.092788 1582.57508 
L 341.942669 1310.673926 
L 352.991122 1128.206044 
L 355.540765 1676.209914 
L 357.240527 1203.233956 
L 358.090408 1451.726401 
L 358.940289 1302.871023 
L 359.79017 1290.266334 
L 360.640051 940.336152 
L 361.489932 1472.133993 
L 362.339813 1322.078169 
L 363.189694 1506.346721 
L 364.039575 1075.386394 
L 364.889456 1117.402025 
L 365.739337 1431.919032 
L 367.439099 1224.841995 
L 368.28898 1276.461198 
L 369.138861 407.337864 
L 369.988742 1399.506974 
L 370.838623 1269.258519 
L 371.688504 1305.87214 
L 372.538385 1206.235073 
L 373.388266 1554.364585 
L 374.238147 1475.13511 
L 375.088028 1306.472363 
L 375.937909 838.298191 
L 376.78779 1340.685091 
L 379.337433 1374.297596 
L 380.187314 1340.685091 
L 381.887076 1375.498042 
L 382.736957 1042.374112 
L 383.586838 359.32 
L 384.436719 1548.362352 
L 385.2866 1127.605821 
L 386.136481 1215.838645 
L 386.986362 1176.824131 
L 387.836243 1592.778876 
L 388.686124 1155.216092 
L 389.536005 1344.886654 
L 390.385886 1236.846461 
L 391.235767 1355.09045 
L 392.935529 1255.453383 
L 393.78541 1530.355653 
L 394.635291 1292.067004 
L 395.485172 1295.068121 
L 396.335053 1625.791157 
L 398.884696 1490.140692 
L 400.584458 1523.753197 
L 401.434339 1044.174782 
L 402.28422 1241.648247 
L 403.983982 1232.644898 
L 404.833863 1455.327741 
L 406.533625 915.126773 
L 407.383506 976.949773 
L 409.083268 1284.264101 
L 409.933149 1045.975452 
L 410.78303 1475.13511 
L 411.632911 1074.78617 
L 412.482792 1509.948061 
L 413.332673 1184.627034 
L 414.182554 1436.720819 
L 415.032435 1260.855393 
L 415.882316 1230.244004 
L 416.732197 1223.641548 
L 417.582078 1572.371284 
L 418.431959 1250.051373 
L 420.981603 1691.81572 
L 421.831484 1514.749847 
L 422.681365 1563.968158 
L 423.531246 1452.326624 
L 425.231008 1359.292013 
L 426.080889 1114.400908 
L 426.93077 1370.096033 
L 428.630532 1780.648768 
L 429.480413 1510.548284 
L 430.330294 1067.583491 
L 431.180175 1549.562799 
L 432.030056 1158.217209 
L 432.879937 1463.730867 
L 434.579699 1374.897819 
L 435.42958 1280.062538 
L 436.279461 1365.89447 
L 437.129342 1319.677276 
L 438.829104 1554.364585 
L 439.678985 1401.907868 
L 441.378747 1791.452787 
L 443.078509 1605.983789 
L 443.92839 1410.911217 
L 446.478033 1384.501392 
L 447.327914 1330.481295 
L 448.177795 1164.219442 
L 449.027676 1101.195996 
L 449.877557 1677.410361 
L 450.727438 1666.006118 
L 451.577319 1485.338906 
L 454.126962 1232.644898 
L 454.976843 1530.955876 
L 458.376367 1378.499159 
L 459.226248 1211.036859 
L 461.775891 1386.302062 
L 463.475653 1336.483528 
L 464.325534 1453.527071 
L 465.175415 1295.068121 
L 466.025296 1226.642665 
L 466.875177 1250.651597 
L 467.725058 728.457328 
L 468.574939 1095.193763 
L 469.42482 1551.963692 
L 470.274701 1205.634849 
L 471.974463 1370.696256 
L 472.824344 1489.540469 
L 473.674225 1506.946945 
L 474.524106 1312.474596 
L 477.073749 1757.840283 
L 479.623392 1383.300945 
L 480.473273 1434.319926 
L 483.872797 1484.738683 
L 484.722678 1505.746498 
L 486.42244 1576.572847 
L 489.821964 1354.490227 
L 491.521726 1510.548284 
L 492.371607 1192.429937 
L 493.221488 1139.010063 
L 494.071369 1566.969274 
L 494.92125 1416.91345 
L 495.771131 1298.66946 
L 496.621012 1446.924615 
L 497.470893 1404.908984 
L 498.320774 1342.485761 
L 499.170655 1346.087101 
L 500.020536 874.311589 
L 500.870417 1328.080402 
L 501.720298 1012.362948 
L 502.570179 1265.657179 
L 503.42006 1457.728634 
L 504.269941 935.534365 
L 505.119822 1030.96987 
L 505.969703 1331.681742 
L 506.819584 1232.044674 
L 507.669465 1413.912333 
L 508.519346 1215.238422 
L 509.369227 1403.708537 
L 510.219108 1457.728634 
L 511.068989 1153.415422 
L 511.91887 1137.809617 
L 512.768751 1182.826364 
L 513.618632 1139.610287 
L 514.468514 1245.249587 
L 515.318395 831.095512 
L 516.168276 1352.089334 
L 517.018157 1416.91345 
L 517.868038 1630.592944 
L 518.717919 1136.60917 
L 519.5678 1733.831351 
L 520.417681 1185.82748 
L 521.267562 1588.577313 
L 522.117443 1284.864325 
L 522.967324 1490.140692 
L 523.817205 1392.304295 
L 524.667086 1437.921265 
L 525.516967 1447.524838 
L 527.216729 1323.278616 
L 528.06661 1536.958109 
L 528.916491 1431.919032 
L 530.616253 1206.235073 
L 531.466134 1327.480179 
L 532.316015 1572.371284 
L 533.165896 1509.948061 
L 534.015777 1309.47348 
L 534.865658 1519.551634 
L 535.715539 1342.485761 
L 537.415301 1340.685091 
L 539.964944 1308.273033 
L 540.814825 1468.532654 
L 541.664706 1179.225024 
L 542.514587 729.657774 
L 543.364468 1275.260752 
L 544.214349 1179.825247 
L 545.06423 1152.815199 
L 545.914111 1358.69179 
L 546.763992 1189.42882 
L 547.613873 1233.245121 
L 548.463754 1268.058072 
L 549.313635 1236.846461 
L 550.163516 1366.494693 
L 551.013397 1386.302062 
L 551.863278 1353.28978 
L 552.713159 1018.965404 
L 553.56304 1362.893353 
L 554.412921 1379.099382 
L 555.262802 1196.6315 
L 556.112683 1428.317693 
L 556.962564 1531.5561 
L 557.812445 1430.118362 
L 558.662326 1431.919032 
L 559.512207 1362.29313 
L 560.362088 1182.226141 
L 561.211969 1178.624801 
L 562.06185 1293.867674 
L 562.911731 1328.080402 
L 563.761612 1562.167488 
L 564.611493 1323.278616 
L 565.461374 1413.31211 
L 566.311255 1398.906751 
L 567.161136 1455.927964 
L 568.011017 1404.908984 
L 568.860898 1320.877722 
L 569.710779 1352.089334 
L 570.56066 1167.820782 
L 572.260422 1494.942479 
L 573.110303 1332.281965 
L 574.810065 1118.602471 
L 575.659946 1339.484645 
L 576.509827 1229.643781 
L 577.359708 1422.915683 
L 578.209589 1437.321042 
L 579.05947 1467.93243 
L 579.909351 1613.186468 
L 581.609113 1667.806788 
L 583.308875 1318.476829 
L 584.158756 865.908463 
L 585.008637 1542.960342 
L 585.858518 1234.445568 
L 586.708399 1013.563394 
L 587.55828 1851.475117 
L 588.408161 1265.056956 
L 589.258042 1467.93243 
L 590.107923 930.132356 
L 590.957804 1163.619218 
L 591.807685 1361.692907 
L 592.657566 1163.619218 
L 593.507447 1470.933547 
L 594.357328 1414.512557 
L 595.207209 1313.675043 
L 596.05709 1643.797856 
L 596.906971 1258.454499 
L 597.756852 1291.466781 
L 598.606733 1063.381928 
L 599.456614 1041.173666 
L 600.306495 1362.893353 
L 601.156376 1264.456732 
L 602.006257 1302.2708 
L 602.856138 1112.600238 
L 603.706019 1448.125061 
L 604.5559 1085.59019 
L 605.405781 1390.503625 
L 606.255662 1304.07147 
L 607.105543 724.255765 
L 607.955425 1228.443335 
L 608.805306 1063.982151 
L 609.655187 1297.469014 
L 610.505068 1242.848694 
L 611.354949 1317.876606 
L 612.20483 1330.481295 
L 613.054711 1425.316576 
L 613.904592 1456.528188 
L 614.754473 1296.268567 
L 615.604354 1235.646014 
L 616.454235 1191.22949 
L 617.304116 1371.896703 
L 618.153997 1178.024578 
L 619.003878 1574.772177 
L 619.853759 1625.190934 
L 620.70364 1481.137343 
L 622.403402 1305.87214 
L 623.253283 1458.328857 
L 624.103164 1324.479062 
L 624.953045 1225.442218 
L 625.802926 1358.091567 
L 626.652807 1370.696256 
L 627.502688 1355.690674 
L 628.352569 1349.688441 
L 629.20245 1172.022345 
L 630.052331 1196.031277 
L 630.902212 1035.771656 
L 631.752093 1185.82748 
L 632.601974 1072.985501 
L 633.451855 1216.438869 
L 634.301736 1281.262985 
L 635.151617 1086.190413 
L 636.001498 1482.337789 
L 636.851379 1265.657179 
L 637.70126 1212.837529 
L 638.551141 1397.106081 
L 639.401022 1432.519256 
L 640.250903 1352.689557 
L 641.100784 1495.542702 
L 641.950665 1202.033509 
L 643.650427 1115.601355 
L 644.500308 1439.721935 
L 645.350189 1373.697373 
L 646.20007 1329.280849 
L 647.049951 841.899531 
L 647.899832 1014.163617 
L 648.749713 1401.307644 
L 649.599594 1396.505858 
L 650.449475 1273.460082 
L 651.299356 1063.381928 
L 652.149237 1456.528188 
L 652.999118 1532.756546 
L 653.848999 1583.775527 
L 654.69888 1434.920149 
L 655.548761 1481.737566 
L 658.098404 1375.498042 
L 658.948285 1193.630383 
L 659.798166 1066.983268 
L 660.648047 1078.38751 
L 661.497928 1299.869907 
L 662.347809 1125.204927 
L 663.19769 1358.091567 
L 664.897452 1409.71077 
L 665.747333 1217.639315 
L 666.597214 1352.689557 
L 667.447095 1360.49246 
L 668.296976 1200.833063 
L 669.146857 1098.795102 
L 669.996738 1458.328857 
L 670.846619 1551.363469 
L 671.6965 1514.749847 
L 672.546381 1439.721935 
L 673.396262 1383.901169 
L 674.246143 1077.187064 
L 675.096024 1485.338906 
L 675.945905 1391.103848 
L 676.795786 1333.482412 
L 677.645667 1407.309877 
L 678.495548 1328.080402 
L 679.345429 1312.474596 
L 680.19531 1443.923498 
L 681.045191 855.704667 
L 681.895072 1314.875489 
L 682.744953 1434.319926 
L 683.594834 1395.905635 
L 684.444715 1325.679509 
L 685.294596 1159.417655 
L 686.144477 1451.126178 
L 686.994358 1516.550517 
L 687.844239 1062.181481 
L 688.69412 1196.6315 
L 689.544001 1084.389743 
L 690.393882 1197.231723 
L 692.093644 1176.223908 
L 693.793406 1726.028448 
L 694.643287 939.735929 
L 695.493168 735.059784 
L 696.343049 1262.656063 
L 697.19293 533.384756 
L 698.042811 1170.221675 
L 698.892692 1125.204927 
L 699.742573 1317.276383 
L 700.592454 1310.073703 
L 701.442335 1256.65383 
L 703.142098 1240.447801 
L 703.991979 1007.561161 
L 704.84186 1430.118362 
L 705.691741 1301.670577 
L 706.541622 1487.139576 
L 707.391503 1374.297596 
L 708.241384 1193.630383 
L 709.941146 1338.284198 
L 710.791027 1471.53377 
L 711.640908 1267.457849 
L 712.490789 1374.297596 
L 713.34067 1410.911217 
L 714.190551 1149.213859 
L 715.040432 1415.11278 
L 715.890313 1035.171433 
L 716.740194 1394.104965 
L 717.590075 906.123424 
L 718.439956 534.585203 
L 719.289837 898.920744 
L 720.139718 931.332802 
L 720.989599 1133.00783 
L 721.83948 1422.915683 
L 722.689361 1144.412073 
L 723.539242 1232.644898 
L 724.389123 1409.71077 
L 725.239004 1232.044674 
L 726.088885 1706.221079 
L 726.938766 1313.07482 
L 728.638528 1606.584012 
L 729.488409 1446.324392 
L 730.33829 1086.190413 
L 731.188171 1403.708537 
L 732.038052 1317.876606 
L 732.887933 1362.893353 
L 733.737814 1375.498042 
L 734.587695 1430.718586 
L 735.437576 1368.295363 
L 736.287457 1413.31211 
L 737.137338 1217.639315 
L 737.987219 1311.27415 
L 738.8371 1324.479062 
L 739.686981 1445.724168 
L 740.536862 1143.81185 
L 741.386743 1489.540469 
L 742.236624 1316.676159 
L 743.086505 1657.602992 
L 743.936386 1549.562799 
L 744.786267 1376.098266 
L 745.636148 1329.881072 
L 746.486029 1034.57121 
L 747.33591 1102.996665 
L 748.185791 1441.522605 
L 749.035672 1040.573443 
L 749.885553 1376.698489 
L 750.735434 1254.85316 
L 751.585315 1379.099382 
L 752.435196 1393.504741 
L 753.285077 1446.324392 
L 754.984839 1479.336673 
L 755.83472 1082.589073 
L 756.684601 1236.246237 
L 757.534482 1681.011701 
L 758.384363 1460.129527 
L 759.234244 1434.920149 
L 760.084125 1336.483528 
L 760.934006 1210.436636 
L 761.783887 1054.378578 
L 762.633768 1442.122828 
L 763.483649 1340.685091 
L 764.33353 1308.873256 
L 765.183411 1430.718586 
L 766.033292 1388.102732 
L 768.582935 1433.719702 
L 769.432816 1430.118362 
L 770.282697 1302.2708 
L 771.132578 1225.442218 
L 772.83234 1422.915683 
L 775.381983 1451.126178 
L 777.081745 1521.352304 
L 777.931626 1383.901169 
L 778.781507 1442.723052 
L 779.631388 1451.126178 
L 780.481269 1550.163022 
L 781.33115 1299.869907 
L 782.181031 1195.431053 
L 783.030912 1420.51479 
L 783.880793 1430.118362 
L 784.730674 1376.098266 
L 785.580555 1128.806267 
L 787.280317 1134.8085 
L 788.130198 1231.444451 
L 788.980079 1045.375229 
L 789.82996 1385.701838 
L 790.679841 670.835891 
L 792.379603 1313.675043 
L 793.229484 1373.097149 
L 794.079365 1239.847577 
L 794.929246 1140.810733 
L 795.779127 1407.309877 
L 796.629009 1223.641548 
L 797.47889 1460.129527 
L 798.328771 1375.498042 
L 799.178652 1400.107198 
L 800.028533 1185.82748 
L 800.878414 1345.486878 
L 801.728295 1334.682858 
L 804.277938 1361.092683 
L 805.9777 1005.160268 
L 807.677462 1454.727518 
L 808.527343 1256.65383 
L 809.377224 1278.862092 
L 810.227105 1196.6315 
L 811.076986 1325.079285 
L 811.926867 1587.97709 
L 812.776748 1332.281965 
L 813.626629 1217.039092 
L 814.47651 1463.130644 
L 815.326391 1521.952527 
L 816.176272 1491.941362 
L 817.026153 1579.573964 
L 817.876034 1149.213859 
L 818.725915 1485.338906 
L 819.575796 1598.180886 
L 820.425677 1478.136226 
L 821.275558 1034.57121 
L 822.125439 1623.990488 
L 822.97532 882.714715 
L 823.825201 1517.150741 
L 824.675082 1382.700722 
L 825.524963 1271.659412 
L 827.224725 1199.632616 
L 828.924487 1475.13511 
L 829.774368 1262.055839 
L 830.624249 1267.457849 
L 831.47413 1363.493576 
L 833.173892 1394.705188 
L 834.873654 1635.994953 
L 835.723535 1355.690674 
L 836.573416 1458.328857 
L 837.423297 1440.922382 
L 838.273178 1374.897819 
L 839.123059 1646.19875 
L 839.97294 1459.529304 
L 840.822821 1530.955876 
L 842.522583 1286.664994 
L 844.222345 1254.252936 
L 845.072226 1479.936896 
L 845.922107 1307.072587 
L 846.771988 1441.522605 
L 847.621869 739.861571 
L 848.47175 1233.845344 
L 849.321631 992.555579 
L 850.171512 1445.123945 
L 851.021393 1556.765478 
L 854.420917 1370.696256 
L 857.820441 1358.091567 
L 858.670322 1520.75208 
L 859.520203 1171.422121 
L 860.370084 1197.231723 
L 862.069846 1237.446684 
L 863.769608 1572.371284 
L 864.619489 1030.96987 
L 865.46937 1519.551634 
L 866.319251 1472.133993 
L 868.019013 1388.702955 
L 868.868894 1368.895586 
L 869.718775 1533.956993 
L 870.568656 1479.336673 
L 871.418537 1394.705188 
L 872.268418 1422.31546 
L 873.118299 535.785649 
L 873.96818 1558.566148 
L 874.818061 1519.551634 
L 875.667942 1407.9101 
L 876.517823 1331.681742 
L 877.367704 1520.75208 
L 878.217585 1327.480179 
L 879.067466 1241.048024 
L 879.917347 1212.837529 
L 880.767228 1093.393093 
L 881.617109 1416.313227 
L 882.46699 1404.308761 
L 883.316871 1502.745381 
L 884.166752 1293.867674 
L 885.016633 1465.531537 
L 885.866514 1386.902285 
L 886.716395 1265.657179 
L 887.566276 1438.521489 
L 890.11592 1395.305411 
L 892.665563 1425.916799 
L 893.515444 1297.469014 
L 894.365325 951.140171 
L 895.215206 1434.920149 
L 896.065087 991.955355 
L 896.914968 1208.035742 
L 897.764849 1358.69179 
L 899.464611 1454.127294 
L 900.314492 1316.075936 
L 902.014254 1515.950294 
L 902.864135 962.544414 
L 903.714016 1054.978802 
L 904.563897 1384.501392 
L 905.413778 1217.039092 
L 906.263659 1081.388627 
L 907.11354 1435.520372 
L 908.813302 1178.024578 
L 909.663183 1338.884421 
L 910.513064 1223.041325 
L 911.362945 1369.495809 
L 912.212826 1452.326624 
L 913.062707 1597.580662 
L 913.912588 1354.490227 
L 914.762469 1191.22949 
L 915.61235 1397.706304 
L 916.462231 1458.328857 
L 917.312112 1401.307644 
L 918.161993 1632.393614 
L 919.011874 1486.539352 
L 919.861755 1557.965925 
L 921.561517 1421.115013 
L 923.261279 1617.388031 
L 924.11116 1301.670577 
L 926.660803 1545.361236 
L 928.360565 1476.93578 
L 930.060327 1311.27415 
L 934.309732 1638.395847 
L 936.009494 1328.680625 
L 936.859375 750.065367 
L 937.709256 816.690153 
L 938.559137 1037.572326 
L 939.409018 1051.977685 
L 940.258899 753.066483 
L 941.10878 633.622047 
L 941.958661 1217.039092 
L 942.808542 1165.419888 
L 945.358185 1139.610287 
L 946.208066 1518.95141 
L 947.057947 1406.709654 
L 948.757709 1287.265218 
L 949.60759 1503.345605 
L 950.457471 1515.350071 
L 951.307352 1446.324392 
L 956.406638 1437.321042 
L 957.256519 1367.094916 
L 958.1064 1385.701838 
L 958.956281 1720.626438 
L 962.355805 1329.881072 
L 963.205686 1346.087101 
L 967.455091 1795.654351 
L 968.304972 1696.617507 
L 972.554377 1599.981556 
L 973.404258 1469.7331 
L 975.10402 1617.988255 
L 975.953901 1431.919032 
L 978.503544 1309.47348 
L 979.353425 1146.212743 
L 980.203306 1504.546051 
L 981.053187 1931.905039 
L 982.752949 1027.36853 
L 985.302593 1473.934663 
L 986.152474 1457.128411 
L 987.002355 1344.886654 
L 987.852236 1554.964808 
L 988.702117 1334.682858 
L 989.551998 1286.064771 
L 990.401879 1373.697373 
L 992.101641 1316.075936 
L 992.951522 1573.571731 
L 993.801403 970.347317 
L 994.651284 1380.299829 
L 995.501165 1443.923498 
L 996.351046 1703.820186 
L 998.050808 1563.968158 
L 998.900689 1480.537119 
L 1001.450332 1596.980439 
L 1002.300213 1307.072587 
L 1003.999975 1560.366818 
L 1005.699737 1427.717469 
L 1006.549618 733.259114 
L 1007.399499 1557.365702 
L 1009.949142 1358.091567 
L 1010.799023 1209.236189 
L 1012.498785 1404.908984 
L 1013.348666 1362.893353 
L 1014.198547 1278.862092 
L 1015.048428 1389.303178 
L 1015.898309 1322.078169 
L 1016.74819 1670.807905 
L 1018.447952 1545.361236 
L 1019.297833 1445.123945 
L 1020.147714 1428.317693 
L 1020.997595 1469.132877 
L 1021.847476 1564.568381 
L 1022.697357 1533.956993 
L 1024.397119 1560.366818 
L 1025.247 1427.717469 
L 1026.096881 1343.085984 
L 1026.946762 1553.164138 
L 1027.796643 1407.309877 
L 1028.646524 1368.895586 
L 1029.496405 1418.113897 
L 1030.346286 1436.120595 
L 1031.196167 1242.848694 
L 1032.046048 1446.924615 
L 1033.74581 1251.852043 
L 1034.595691 861.106677 
L 1035.445572 1462.530421 
L 1036.295453 1516.550517 
L 1037.145334 1208.035742 
L 1037.995215 1336.483528 
L 1039.694977 881.514269 
L 1040.544858 1406.709654 
L 1041.394739 993.756025 
L 1042.24462 1233.245121 
L 1043.094501 1436.720819 
L 1043.944382 1426.517023 
L 1044.794263 861.106677 
L 1045.644144 1432.519256 
L 1046.494025 1314.875489 
L 1047.343906 1150.414306 
L 1048.193787 1316.676159 
L 1049.893549 1069.984384 
L 1050.74343 1526.15409 
L 1051.593311 1490.140692 
L 1052.443192 1720.626438 
L 1054.992835 1497.343372 
L 1055.842716 1507.547168 
L 1057.542478 1452.326624 
L 1061.791883 1518.95141 
L 1063.491645 1424.11613 
L 1064.341526 638.423833 
L 1067.74105 1385.101615 
L 1069.440812 1614.987138 
L 1070.290693 1296.268567 
L 1071.140574 1380.299829 
L 1072.840336 1589.77776 
L 1073.690217 1548.962575 
L 1079.639385 1331.081518 
L 1081.339147 1120.403141 
L 1083.88879 1620.389148 
L 1085.588552 1274.060305 
L 1086.438433 1721.826885 
L 1087.288314 1260.855393 
L 1088.138195 548.990562 
L 1088.988076 1659.403662 
L 1089.837957 883.314939 
L 1090.687838 1292.067004 
L 1091.537719 645.626513 
L 1092.3876 1265.056956 
L 1093.237481 1514.749847 
L 1094.087362 1045.375229 
L 1094.937243 1538.758779 
L 1095.787124 1053.778355 
L 1096.637005 1065.782821 
L 1097.486886 1449.925731 
L 1098.336767 1169.021228 
L 1099.186648 1229.643781 
L 1100.036529 1183.426587 
L 1100.88641 1437.321042 
L 1101.736291 1017.164734 
L 1105.985696 1736.832467 
L 1106.835577 1226.042441 
L 1107.685458 1473.33444 
L 1108.535339 1437.321042 
L 1109.38522 1233.245121 
L 1111.934863 1460.129527 
L 1112.784744 1044.174782 
L 1113.634625 927.731463 
L 1114.484506 1268.658295 
L 1117.034149 1283.063655 
L 1117.88403 1378.499159 
L 1118.733911 1147.413189 
L 1119.583792 1262.656063 
L 1120.433673 1402.508091 
L 1121.283554 1020.766074 
L 1126.38284 1387.502508 
L 1128.932483 1348.487994 
L 1129.782364 1362.29313 
L 1130.632245 1448.725285 
L 1131.482126 1352.689557 
L 1132.332007 963.74486 
L 1133.181888 1593.379099 
L 1134.031769 1358.69179 
L 1134.88165 1360.49246 
L 1135.731531 1466.13176 
L 1136.581412 1551.963692 
L 1138.281174 1512.949178 
L 1139.980936 1157.616985 
L 1140.830817 1408.510324 
L 1141.680698 1448.725285 
L 1142.530579 1389.903402 
L 1144.230341 1689.414827 
L 1145.080222 1500.944712 
L 1145.930103 1644.998303 
L 1146.779984 1632.393614 
L 1147.629865 1400.707421 
L 1149.329627 1120.403141 
L 1150.179508 1316.075936 
L 1151.029389 1427.717469 
L 1151.87927 1381.500275 
L 1152.729151 1543.560566 
L 1153.579032 1665.405895 
L 1154.428913 1370.696256 
L 1155.278794 1137.209393 
L 1156.978556 924.130123 
L 1157.828437 1393.504741 
L 1158.678318 1266.257402 
L 1159.528199 1700.81907 
L 1161.227961 1254.252936 
L 1162.927723 1355.690674 
L 1164.627485 1532.156323 
L 1166.327247 1538.158556 
L 1167.177128 1459.529304 
L 1168.027009 1587.97709 
L 1168.87689 1439.121712 
L 1169.726771 1376.698489 
L 1170.576652 1427.117246 
L 1171.426533 1169.621451 
L 1173.126296 1377.898936 
L 1173.976177 1549.562799 
L 1174.826058 1440.922382 
L 1176.52582 1143.81185 
L 1177.375701 1436.120595 
L 1179.925344 1508.747614 
L 1180.775225 1520.75208 
L 1181.625106 1595.779993 
L 1183.324868 1662.404779 
L 1185.02463 1534.557216 
L 1186.724392 1351.489111 
L 1187.574273 1550.763245 
L 1188.424154 1329.280849 
L 1189.274035 1607.784459 
L 1190.973797 1392.904518 
L 1191.823678 1516.550517 
L 1192.673559 1556.765478 
L 1193.52344 1440.322159 
L 1194.373321 1268.058072 
L 1195.223202 1761.441623 
L 1196.073083 1388.102732 
L 1196.922964 1626.991604 
L 1197.772845 1341.885538 
L 1199.472607 1787.851448 
L 1200.322488 1640.196517 
L 1202.02225 1457.128411 
L 1202.872131 1261.455616 
L 1203.722012 1505.746498 
L 1204.571893 1310.073703 
L 1205.421774 1337.683975 
L 1206.271655 1496.743148 
L 1209.671179 1205.034626 
L 1210.52106 1624.590711 
L 1211.370941 1491.341139 
L 1213.920584 1509.347838 
L 1216.470227 1532.156323 
L 1217.320108 1436.120595 
L 1218.169989 1239.847577 
L 1219.01987 1608.384682 
L 1219.869751 1835.269088 
L 1221.569513 1533.35677 
L 1222.419394 1533.956993 
L 1224.119156 1503.945828 
L 1227.51868 1221.840878 
L 1229.218442 1095.793986 
L 1230.918204 1469.132877 
L 1231.768085 1571.170837 
L 1232.617966 1568.769944 
L 1235.167609 1554.964808 
L 1236.01749 1500.344488 
L 1236.867371 1487.139576 
L 1237.717252 1097.594656 
L 1238.567133 1362.29313 
L 1242.816538 1413.31211 
L 1243.666419 1458.328857 
L 1245.366181 1528.554983 
L 1247.915824 1424.716353 
L 1248.765705 1005.160268 
L 1250.465467 1361.092683 
L 1251.315348 1434.920149 
L 1252.165229 1476.93578 
L 1253.01511 1037.572326 
L 1253.864991 1490.140692 
L 1255.564753 1442.723052 
L 1256.414634 1510.548284 
L 1257.264515 1489.540469 
L 1258.114396 1738.633137 
L 1258.964277 1509.347838 
L 1259.814158 1003.959821 
L 1260.664039 1697.817953 
L 1261.51392 1531.5561 
L 1262.363801 1499.744265 
L 1272.562374 1460.729751 
L 1275.112017 1346.087101 
L 1279.361422 1604.783342 
L 1280.211303 1458.929081 
L 1283.610827 1547.762129 
L 1285.310589 907.924094 
L 1287.010351 1362.29313 
L 1287.860232 545.989445 
L 1288.710113 1502.745381 
L 1290.409875 1287.865441 
L 1291.259756 1287.865441 
L 1293.809399 1646.19875 
L 1295.509161 673.236785 
L 1303.15809 1679.811254 
L 1305.707733 1451.126178 
L 1307.407495 1508.747614 
L 1310.807019 1666.006118 
L 1313.356662 1524.953643 
L 1315.906305 1810.659933 
L 1318.455948 1333.482412 
L 1319.305829 1473.33444 
L 1321.005591 1442.122828 
L 1322.705353 1454.127294 
L 1323.555234 1274.060305 
L 1324.405115 1634.794507 
L 1326.104877 1323.878839 
L 1327.804639 1273.460082 
L 1331.204163 1605.983789 
L 1332.903925 542.388106 
L 1333.753806 1367.69514 
L 1334.603687 1429.518139 
L 1336.303449 966.745977 
L 1338.003211 1450.525955 
L 1357.550474 1589.177536 
L 1358.400355 1767.443856 
L 1360.100118 1555.565032 
L 1361.79988 1792.053011 
L 1363.499642 1491.341139 
L 1366.049285 1351.489111 
L 1366.899166 1337.083751 
L 1367.749047 1418.71412 
L 1371.148571 1513.549401 
L 1379.647381 1688.814604 
L 1387.29631 1538.758779 
L 1389.845953 1666.006118 
L 1394.095358 1560.967041 
L 1395.79512 1699.0184 
L 1397.494882 1499.144042 
L 1399.194644 1410.911217 
L 1400.044525 1589.177536 
L 1402.594168 1267.457849 
L 1403.444049 1727.829118 
L 1418.741907 1588.577313 
L 1423.841193 1544.160789 
L 1431.490122 1153.415422 
L 1450.187504 1564.568381 
L 1461.235958 1670.207681 
L 1462.085839 1602.982672 
L 1466.335244 1607.184235 
L 1468.884887 1541.759896 
L 1470.584649 1419.314343 
L 1471.43453 1550.163022 
L 1477.383697 1582.57508 
L 1490.981793 1499.744265 
L 1493.531436 1493.141809 
L 1496.081079 1574.772177 
L 1496.93096 1448.725285 
L 1501.180365 1348.487994 
L 1502.030246 1439.721935 
L 1502.880127 1227.843111 
L 1507.979413 1545.961459 
L 1508.829294 1251.25182 
L 1513.078699 1449.925731 
L 1517.328104 1623.990488 
L 1533.475843 1488.940246 
L 1540.274891 1511.748731 
L 1541.974653 1326.879955 
L 1557.272512 1527.95476 
L 1566.621203 1516.550517 
L 1567.471084 1460.729751 
L 1574.270132 1286.064771 
L 1578.519537 1691.215497 
L 1581.919061 1542.360119 
L 1615.914301 1305.271917 
L 1640.56085 1586.17642 
L 1648.20978 1440.922382 
L 1655.858709 1307.67281 
L 1675.405972 1575.972624 
L 1684.754663 1436.120595 
L 1686.454425 1972.12 
L 1691.553711 1628.192051 
L 1695.803116 1466.13176 
L 1700.902402 1389.903402 
L 1711.950855 1575.972624 
L 1727.248713 1421.115013 
L 1737.447286 1466.731984 
L 1748.495739 1175.623684 
L 1748.495739 1175.623684 
" style="fill:none;stroke:#0000ff;stroke-linecap:square;stroke-width:1.5;"/>
   </g>
   <g id="patch_3">
    <path d="M 44.059375 2052.76 
L 44.059375 278.68 
" style="fill:none;stroke:#000000;stroke-linecap:square;stroke-linejoin:miter;stroke-width:0.8;"/>
   </g>
   <g id="patch_4">
    <path d="M 1829.659375 2052.76 
L 1829.659375 278.68 
" style="fill:none;stroke:#000000;stroke-linecap:square;stroke-linejoin:miter;stroke-width:0.8;"/>
   </g>
   <g id="patch_5">
    <path d="M 44.059375 2052.76 
L 1829.659375 2052.76 
" style="fill:none;stroke:#000000;stroke-linecap:square;stroke-linejoin:miter;stroke-width:0.8;"/>
   </g>
   <g id="patch_6">
    <path d="M 44.059375 278.68 
L 1829.659375 278.68 
" style="fill:none;stroke:#000000;stroke-linecap:square;stroke-linejoin:miter;stroke-width:0.8;"/>
   </g>
   <g id="text_18">
    <text style="font-family:DejaVu Sans;font-size:12px;font-stretch:normal;font-style:normal;font-weight:normal;text-anchor:middle;" transform="rotate(-0, 936.859375, 272.68)" x="936.859375" y="272.68">temperature-&gt;ping_night</text>
   </g>
  </g>
  <g id="legend_1">
   <g id="patch_7">
    <path d="M 1947.971875 22.95625 
L 2055.259375 22.95625 
Q 2057.259375 22.95625 2057.259375 20.95625 
L 2057.259375 7 
Q 2057.259375 5 2055.259375 5 
L 1947.971875 5 
Q 1945.971875 5 1945.971875 7 
L 1945.971875 20.95625 
Q 1945.971875 22.95625 1947.971875 22.95625 
z
" style="fill:#ffffff;opacity:0.8;stroke:#cccccc;stroke-linejoin:miter;"/>
   </g>
   <g id="line2d_17">
    <path d="M 1949.971875 13.098438 
L 1969.971875 13.098438 
" style="fill:none;stroke:#0000ff;stroke-linecap:square;stroke-width:1.5;"/>
   </g>
   <g id="line2d_18"/>
   <g id="text_19">
    <text style="font-family:DejaVu Sans;font-size:10px;font-stretch:normal;font-style:normal;font-weight:normal;text-anchor:start;" transform="rotate(-0, 1977.971875, 16.598438)" x="1977.971875" y="16.598438">ping_night[ms]</text>
   </g>
  </g>
 </g>
 <defs>
  <clipPath id="pf97870253d">
   <rect height="1774.08" width="1785.6" x="44.059375" y="278.68"/>
  </clipPath>
 </defs>
</svg>
