<?xml version="1.0" encoding="utf-8" standalone="no"?>
<!DOCTYPE svg PUBLIC "-//W3C//DTD SVG 1.1//EN"
  "http://www.w3.org/Graphics/SVG/1.1/DTD/svg11.dtd">
<!-- Created with matplotlib (https://matplotlib.org/) -->
<svg height="2090.31625pt" version="1.1" viewBox="0 0 2062.259375 2090.31625" width="2062.259375pt" xmlns="http://www.w3.org/2000/svg" xmlns:xlink="http://www.w3.org/1999/xlink">
 <metadata>
  <rdf:RDF xmlns:cc="http://creativecommons.org/ns#" xmlns:dc="http://purl.org/dc/elements/1.1/" xmlns:rdf="http://www.w3.org/1999/02/22-rdf-syntax-ns#">
   <cc:Work>
    <dc:type rdf:resource="http://purl.org/dc/dcmitype/StillImage"/>
    <dc:date>2022-07-24T11:44:56.467862</dc:date>
    <dc:format>image/svg+xml</dc:format>
    <dc:creator>
     <cc:Agent>
      <dc:title>Matplotlib v3.3.2, https://matplotlib.org/</dc:title>
     </cc:Agent>
    </dc:creator>
   </cc:Work>
  </rdf:RDF>
 </metadata>
 <defs>
  <style type="text/css">*{stroke-linecap:butt;stroke-linejoin:round;}</style>
 </defs>
 <g id="figure_1">
  <g id="patch_1">
   <path d="M 0 2090.31625 
L 2062.259375 2090.31625 
L 2062.259375 0 
L 0 0 
z
" style="fill:#ffffff;"/>
  </g>
  <g id="axes_1">
   <g id="patch_2">
    <path d="M 44.059375 2052.76 
L 1829.659375 2052.76 
L 1829.659375 278.68 
L 44.059375 278.68 
z
" style="fill:#ffffff;"/>
   </g>
   <g id="matplotlib.axis_1">
    <g id="xtick_1">
     <g id="line2d_1">
      <defs>
       <path d="M 0 0 
L 0 3.5 
" id="md2c93ed22b" style="stroke:#000000;stroke-width:0.8;"/>
      </defs>
      <g>
       <use style="stroke:#000000;stroke-width:0.8;" x="188.880765" xlink:href="#md2c93ed22b" y="2052.76"/>
      </g>
     </g>
     <g id="text_1">
      <text style="font-family:DejaVu Sans;font-size:10px;font-stretch:normal;font-style:normal;font-weight:normal;text-anchor:middle;" transform="rotate(-0, 188.880765, 2067.358438)" x="188.880765" y="2067.358438">50</text>
     </g>
    </g>
    <g id="xtick_2">
     <g id="line2d_2">
      <g>
       <use style="stroke:#000000;stroke-width:0.8;" x="507.169535" xlink:href="#md2c93ed22b" y="2052.76"/>
      </g>
     </g>
     <g id="text_2">
      <text style="font-family:DejaVu Sans;font-size:10px;font-stretch:normal;font-style:normal;font-weight:normal;text-anchor:middle;" transform="rotate(-0, 507.169535, 2067.358438)" x="507.169535" y="2067.358438">60</text>
     </g>
    </g>
    <g id="xtick_3">
     <g id="line2d_3">
      <g>
       <use style="stroke:#000000;stroke-width:0.8;" x="825.458305" xlink:href="#md2c93ed22b" y="2052.76"/>
      </g>
     </g>
     <g id="text_3">
      <text style="font-family:DejaVu Sans;font-size:10px;font-stretch:normal;font-style:normal;font-weight:normal;text-anchor:middle;" transform="rotate(-0, 825.458305, 2067.358438)" x="825.458305" y="2067.358438">70</text>
     </g>
    </g>
    <g id="xtick_4">
     <g id="line2d_4">
      <g>
       <use style="stroke:#000000;stroke-width:0.8;" x="1143.747076" xlink:href="#md2c93ed22b" y="2052.76"/>
      </g>
     </g>
     <g id="text_4">
      <text style="font-family:DejaVu Sans;font-size:10px;font-stretch:normal;font-style:normal;font-weight:normal;text-anchor:middle;" transform="rotate(-0, 1143.747076, 2067.358438)" x="1143.747076" y="2067.358438">80</text>
     </g>
    </g>
    <g id="xtick_5">
     <g id="line2d_5">
      <g>
       <use style="stroke:#000000;stroke-width:0.8;" x="1462.035846" xlink:href="#md2c93ed22b" y="2052.76"/>
      </g>
     </g>
     <g id="text_5">
      <text style="font-family:DejaVu Sans;font-size:10px;font-stretch:normal;font-style:normal;font-weight:normal;text-anchor:middle;" transform="rotate(-0, 1462.035846, 2067.358438)" x="1462.035846" y="2067.358438">90</text>
     </g>
    </g>
    <g id="xtick_6">
     <g id="line2d_6">
      <g>
       <use style="stroke:#000000;stroke-width:0.8;" x="1780.324616" xlink:href="#md2c93ed22b" y="2052.76"/>
      </g>
     </g>
     <g id="text_6">
      <text style="font-family:DejaVu Sans;font-size:10px;font-stretch:normal;font-style:normal;font-weight:normal;text-anchor:middle;" transform="rotate(-0, 1780.324616, 2067.358438)" x="1780.324616" y="2067.358438">100</text>
     </g>
    </g>
    <g id="text_7">
     <text style="font-family:DejaVu Sans;font-size:10px;font-stretch:normal;font-style:normal;font-weight:normal;text-anchor:middle;" transform="rotate(-0, 936.859375, 2081.036562)" x="936.859375" y="2081.036562">humidity from BuienRadar</text>
    </g>
   </g>
   <g id="matplotlib.axis_2">
    <g id="ytick_1">
     <g id="line2d_7">
      <defs>
       <path d="M 0 0 
L -3.5 0 
" id="m49f43ca7cd" style="stroke:#000000;stroke-width:0.8;"/>
      </defs>
      <g>
       <use style="stroke:#000000;stroke-width:0.8;" x="44.059375" xlink:href="#m49f43ca7cd" y="1969.388755"/>
      </g>
     </g>
     <g id="text_8">
      <text style="font-family:DejaVu Sans;font-size:10px;font-stretch:normal;font-style:normal;font-weight:normal;text-anchor:end;" transform="rotate(-0, 37.059375, 1973.187974)" x="37.059375" y="1973.187974">4.5</text>
     </g>
    </g>
    <g id="ytick_2">
     <g id="line2d_8">
      <g>
       <use style="stroke:#000000;stroke-width:0.8;" x="44.059375" xlink:href="#m49f43ca7cd" y="1627.983167"/>
      </g>
     </g>
     <g id="text_9">
      <text style="font-family:DejaVu Sans;font-size:10px;font-stretch:normal;font-style:normal;font-weight:normal;text-anchor:end;" transform="rotate(-0, 37.059375, 1631.782386)" x="37.059375" y="1631.782386">5.0</text>
     </g>
    </g>
    <g id="ytick_3">
     <g id="line2d_9">
      <g>
       <use style="stroke:#000000;stroke-width:0.8;" x="44.059375" xlink:href="#m49f43ca7cd" y="1286.577578"/>
      </g>
     </g>
     <g id="text_10">
      <text style="font-family:DejaVu Sans;font-size:10px;font-stretch:normal;font-style:normal;font-weight:normal;text-anchor:end;" transform="rotate(-0, 37.059375, 1290.376797)" x="37.059375" y="1290.376797">5.5</text>
     </g>
    </g>
    <g id="ytick_4">
     <g id="line2d_10">
      <g>
       <use style="stroke:#000000;stroke-width:0.8;" x="44.059375" xlink:href="#m49f43ca7cd" y="945.17199"/>
      </g>
     </g>
     <g id="text_11">
      <text style="font-family:DejaVu Sans;font-size:10px;font-stretch:normal;font-style:normal;font-weight:normal;text-anchor:end;" transform="rotate(-0, 37.059375, 948.971209)" x="37.059375" y="948.971209">6.0</text>
     </g>
    </g>
    <g id="ytick_5">
     <g id="line2d_11">
      <g>
       <use style="stroke:#000000;stroke-width:0.8;" x="44.059375" xlink:href="#m49f43ca7cd" y="603.766401"/>
      </g>
     </g>
     <g id="text_12">
      <text style="font-family:DejaVu Sans;font-size:10px;font-stretch:normal;font-style:normal;font-weight:normal;text-anchor:end;" transform="rotate(-0, 37.059375, 607.56562)" x="37.059375" y="607.56562">6.5</text>
     </g>
    </g>
    <g id="text_13">
     <text style="font-family:DejaVu Sans;font-size:10px;font-stretch:normal;font-style:normal;font-weight:normal;text-anchor:middle;" transform="rotate(-90, 14.798438, 1165.72)" x="14.798438" y="1165.72">ping_night[ms]</text>
    </g>
   </g>
   <g id="line2d_12">
    <path clip-path="url(#p934cd45ef9)" d="M 125.223011 1761.131346 
L 157.051888 1758.400102 
L 188.880765 1585.648874 
L 220.709642 1899.742015 
L 284.367396 1736.550144 
L 316.196273 1829.412464 
L 348.02515 1972.12 
L 411.682904 1696.947096 
L 475.340658 1670.31746 
L 507.169535 1911.349805 
L 538.998412 1967.340322 
L 570.827289 1569.944217 
L 602.656166 1545.363014 
L 634.485043 1779.567248 
L 666.31392 1810.976562 
L 698.142797 1640.956579 
L 729.971674 1647.784691 
L 761.800551 1627.983167 
L 793.629428 1522.147434 
L 825.458305 1355.541507 
L 857.287182 1185.521524 
L 889.116059 883.036173 
L 920.944936 1353.493074 
L 952.773814 1258.58232 
L 984.602691 1036.668688 
L 1016.431568 1285.211956 
L 1048.260445 1333.69155 
L 1080.089322 1103.584183 
L 1111.918199 1115.191973 
L 1143.747076 1368.51492 
L 1175.575953 1109.729483 
L 1207.40483 1427.236681 
L 1239.233707 1197.812125 
L 1271.062584 1207.371482 
L 1302.891461 999.796884 
L 1334.720338 532.071228 
L 1366.549215 1101.535749 
L 1398.378092 967.021948 
L 1430.206969 898.058019 
L 1462.035846 1074.906113 
L 1493.864723 1358.272752 
L 1525.6936 881.67055 
L 1557.522477 682.289687 
L 1589.351354 359.32 
L 1621.180231 955.414157 
L 1653.009108 736.914581 
L 1684.837985 880.304928 
L 1716.666862 1202.591804 
L 1748.495739 894.643963 
" style="fill:none;stroke:#0000ff;stroke-linecap:square;stroke-width:1.5;"/>
   </g>
   <g id="patch_3">
    <path d="M 44.059375 2052.76 
L 44.059375 278.68 
" style="fill:none;stroke:#000000;stroke-linecap:square;stroke-linejoin:miter;stroke-width:0.8;"/>
   </g>
   <g id="patch_4">
    <path d="M 1829.659375 2052.76 
L 1829.659375 278.68 
" style="fill:none;stroke:#000000;stroke-linecap:square;stroke-linejoin:miter;stroke-width:0.8;"/>
   </g>
   <g id="patch_5">
    <path d="M 44.059375 2052.76 
L 1829.659375 2052.76 
" style="fill:none;stroke:#000000;stroke-linecap:square;stroke-linejoin:miter;stroke-width:0.8;"/>
   </g>
   <g id="patch_6">
    <path d="M 44.059375 278.68 
L 1829.659375 278.68 
" style="fill:none;stroke:#000000;stroke-linecap:square;stroke-linejoin:miter;stroke-width:0.8;"/>
   </g>
   <g id="text_14">
    <text style="font-family:DejaVu Sans;font-size:12px;font-stretch:normal;font-style:normal;font-weight:normal;text-anchor:middle;" transform="rotate(-0, 936.859375, 272.68)" x="936.859375" y="272.68">humidity-&gt;ping_night</text>
   </g>
  </g>
  <g id="legend_1">
   <g id="patch_7">
    <path d="M 1947.971875 22.95625 
L 2055.259375 22.95625 
Q 2057.259375 22.95625 2057.259375 20.95625 
L 2057.259375 7 
Q 2057.259375 5 2055.259375 5 
L 1947.971875 5 
Q 1945.971875 5 1945.971875 7 
L 1945.971875 20.95625 
Q 1945.971875 22.95625 1947.971875 22.95625 
z
" style="fill:#ffffff;opacity:0.8;stroke:#cccccc;stroke-linejoin:miter;"/>
   </g>
   <g id="line2d_13">
    <path d="M 1949.971875 13.098438 
L 1969.971875 13.098438 
" style="fill:none;stroke:#0000ff;stroke-linecap:square;stroke-width:1.5;"/>
   </g>
   <g id="line2d_14"/>
   <g id="text_15">
    <text style="font-family:DejaVu Sans;font-size:10px;font-stretch:normal;font-style:normal;font-weight:normal;text-anchor:start;" transform="rotate(-0, 1977.971875, 16.598438)" x="1977.971875" y="16.598438">ping_night[ms]</text>
   </g>
  </g>
 </g>
 <defs>
  <clipPath id="p934cd45ef9">
   <rect height="1774.08" width="1785.6" x="44.059375" y="278.68"/>
  </clipPath>
 </defs>
</svg>
