<?xml version="1.0" encoding="utf-8" standalone="no"?>
<!DOCTYPE svg PUBLIC "-//W3C//DTD SVG 1.1//EN"
  "http://www.w3.org/Graphics/SVG/1.1/DTD/svg11.dtd">
<svg height="345.6pt" version="1.1" viewBox="0 0 460.8 345.6" width="460.8pt" xmlns="http://www.w3.org/2000/svg" xmlns:xlink="http://www.w3.org/1999/xlink">
 <metadata>
  <rdf:RDF xmlns:cc="http://creativecommons.org/ns#" xmlns:dc="http://purl.org/dc/elements/1.1/" xmlns:rdf="http://www.w3.org/1999/02/22-rdf-syntax-ns#">
   <cc:Work>
    <dc:type rdf:resource="http://purl.org/dc/dcmitype/StillImage"/>
    <dc:date>2022-06-12T23:16:14.607743</dc:date>
    <dc:format>image/svg+xml</dc:format>
    <dc:creator>
     <cc:Agent>
      <dc:title>Matplotlib v3.4.2, https://matplotlib.org/</dc:title>
     </cc:Agent>
    </dc:creator>
   </cc:Work>
  </rdf:RDF>
 </metadata>
 <defs>
  <style type="text/css">*{stroke-linecap:butt;stroke-linejoin:round;}</style>
 </defs>
 <g id="figure_1">
  <g id="patch_1">
   <path d="M 0 345.6 
L 460.8 345.6 
L 460.8 0 
L 0 0 
z
" style="fill:#ffffff;"/>
  </g>
  <g id="axes_1">
   <g id="patch_2">
    <path d="M 57.6 307.584 
L 414.72 307.584 
L 414.72 41.472 
L 57.6 41.472 
z
" style="fill:#ffffff;"/>
   </g>
   <g id="matplotlib.axis_1">
    <g id="xtick_1">
     <g id="line2d_1">
      <defs>
       <path d="M 0 0 
L 0 3.5 
" id="m30eb4c3862" style="stroke:#000000;stroke-width:0.8;"/>
      </defs>
      <g>
       <use style="stroke:#000000;stroke-width:0.8;" x="84.538908" xlink:href="#m30eb4c3862" y="307.584"/>
      </g>
     </g>
     <g id="text_1">
      <!-- 40 -->
      <g transform="translate(78.176408 322.182437)scale(0.1 -0.1)">
       <defs>
        <path d="M 2419 4116 
L 825 1625 
L 2419 1625 
L 2419 4116 
z
M 2253 4666 
L 3047 4666 
L 3047 1625 
L 3713 1625 
L 3713 1100 
L 3047 1100 
L 3047 0 
L 2419 0 
L 2419 1100 
L 313 1100 
L 313 1709 
L 2253 4666 
z
" id="DejaVuSans-34" transform="scale(0.015625)"/>
        <path d="M 2034 4250 
Q 1547 4250 1301 3770 
Q 1056 3291 1056 2328 
Q 1056 1369 1301 889 
Q 1547 409 2034 409 
Q 2525 409 2770 889 
Q 3016 1369 3016 2328 
Q 3016 3291 2770 3770 
Q 2525 4250 2034 4250 
z
M 2034 4750 
Q 2819 4750 3233 4129 
Q 3647 3509 3647 2328 
Q 3647 1150 3233 529 
Q 2819 -91 2034 -91 
Q 1250 -91 836 529 
Q 422 1150 422 2328 
Q 422 3509 836 4129 
Q 1250 4750 2034 4750 
z
" id="DejaVuSans-30" transform="scale(0.015625)"/>
       </defs>
       <use xlink:href="#DejaVuSans-34"/>
       <use x="63.623047" xlink:href="#DejaVuSans-30"/>
      </g>
     </g>
    </g>
    <g id="xtick_2">
     <g id="line2d_2">
      <g>
       <use style="stroke:#000000;stroke-width:0.8;" x="138.667936" xlink:href="#m30eb4c3862" y="307.584"/>
      </g>
     </g>
     <g id="text_2">
      <!-- 50 -->
      <g transform="translate(132.305436 322.182437)scale(0.1 -0.1)">
       <defs>
        <path d="M 691 4666 
L 3169 4666 
L 3169 4134 
L 1269 4134 
L 1269 2991 
Q 1406 3038 1543 3061 
Q 1681 3084 1819 3084 
Q 2600 3084 3056 2656 
Q 3513 2228 3513 1497 
Q 3513 744 3044 326 
Q 2575 -91 1722 -91 
Q 1428 -91 1123 -41 
Q 819 9 494 109 
L 494 744 
Q 775 591 1075 516 
Q 1375 441 1709 441 
Q 2250 441 2565 725 
Q 2881 1009 2881 1497 
Q 2881 1984 2565 2268 
Q 2250 2553 1709 2553 
Q 1456 2553 1204 2497 
Q 953 2441 691 2322 
L 691 4666 
z
" id="DejaVuSans-35" transform="scale(0.015625)"/>
       </defs>
       <use xlink:href="#DejaVuSans-35"/>
       <use x="63.623047" xlink:href="#DejaVuSans-30"/>
      </g>
     </g>
    </g>
    <g id="xtick_3">
     <g id="line2d_3">
      <g>
       <use style="stroke:#000000;stroke-width:0.8;" x="192.796965" xlink:href="#m30eb4c3862" y="307.584"/>
      </g>
     </g>
     <g id="text_3">
      <!-- 60 -->
      <g transform="translate(186.434465 322.182437)scale(0.1 -0.1)">
       <defs>
        <path d="M 2113 2584 
Q 1688 2584 1439 2293 
Q 1191 2003 1191 1497 
Q 1191 994 1439 701 
Q 1688 409 2113 409 
Q 2538 409 2786 701 
Q 3034 994 3034 1497 
Q 3034 2003 2786 2293 
Q 2538 2584 2113 2584 
z
M 3366 4563 
L 3366 3988 
Q 3128 4100 2886 4159 
Q 2644 4219 2406 4219 
Q 1781 4219 1451 3797 
Q 1122 3375 1075 2522 
Q 1259 2794 1537 2939 
Q 1816 3084 2150 3084 
Q 2853 3084 3261 2657 
Q 3669 2231 3669 1497 
Q 3669 778 3244 343 
Q 2819 -91 2113 -91 
Q 1303 -91 875 529 
Q 447 1150 447 2328 
Q 447 3434 972 4092 
Q 1497 4750 2381 4750 
Q 2619 4750 2861 4703 
Q 3103 4656 3366 4563 
z
" id="DejaVuSans-36" transform="scale(0.015625)"/>
       </defs>
       <use xlink:href="#DejaVuSans-36"/>
       <use x="63.623047" xlink:href="#DejaVuSans-30"/>
      </g>
     </g>
    </g>
    <g id="xtick_4">
     <g id="line2d_4">
      <g>
       <use style="stroke:#000000;stroke-width:0.8;" x="246.925993" xlink:href="#m30eb4c3862" y="307.584"/>
      </g>
     </g>
     <g id="text_4">
      <!-- 70 -->
      <g transform="translate(240.563493 322.182437)scale(0.1 -0.1)">
       <defs>
        <path d="M 525 4666 
L 3525 4666 
L 3525 4397 
L 1831 0 
L 1172 0 
L 2766 4134 
L 525 4134 
L 525 4666 
z
" id="DejaVuSans-37" transform="scale(0.015625)"/>
       </defs>
       <use xlink:href="#DejaVuSans-37"/>
       <use x="63.623047" xlink:href="#DejaVuSans-30"/>
      </g>
     </g>
    </g>
    <g id="xtick_5">
     <g id="line2d_5">
      <g>
       <use style="stroke:#000000;stroke-width:0.8;" x="301.055022" xlink:href="#m30eb4c3862" y="307.584"/>
      </g>
     </g>
     <g id="text_5">
      <!-- 80 -->
      <g transform="translate(294.692522 322.182437)scale(0.1 -0.1)">
       <defs>
        <path d="M 2034 2216 
Q 1584 2216 1326 1975 
Q 1069 1734 1069 1313 
Q 1069 891 1326 650 
Q 1584 409 2034 409 
Q 2484 409 2743 651 
Q 3003 894 3003 1313 
Q 3003 1734 2745 1975 
Q 2488 2216 2034 2216 
z
M 1403 2484 
Q 997 2584 770 2862 
Q 544 3141 544 3541 
Q 544 4100 942 4425 
Q 1341 4750 2034 4750 
Q 2731 4750 3128 4425 
Q 3525 4100 3525 3541 
Q 3525 3141 3298 2862 
Q 3072 2584 2669 2484 
Q 3125 2378 3379 2068 
Q 3634 1759 3634 1313 
Q 3634 634 3220 271 
Q 2806 -91 2034 -91 
Q 1263 -91 848 271 
Q 434 634 434 1313 
Q 434 1759 690 2068 
Q 947 2378 1403 2484 
z
M 1172 3481 
Q 1172 3119 1398 2916 
Q 1625 2713 2034 2713 
Q 2441 2713 2670 2916 
Q 2900 3119 2900 3481 
Q 2900 3844 2670 4047 
Q 2441 4250 2034 4250 
Q 1625 4250 1398 4047 
Q 1172 3844 1172 3481 
z
" id="DejaVuSans-38" transform="scale(0.015625)"/>
       </defs>
       <use xlink:href="#DejaVuSans-38"/>
       <use x="63.623047" xlink:href="#DejaVuSans-30"/>
      </g>
     </g>
    </g>
    <g id="xtick_6">
     <g id="line2d_6">
      <g>
       <use style="stroke:#000000;stroke-width:0.8;" x="355.18405" xlink:href="#m30eb4c3862" y="307.584"/>
      </g>
     </g>
     <g id="text_6">
      <!-- 90 -->
      <g transform="translate(348.82155 322.182437)scale(0.1 -0.1)">
       <defs>
        <path d="M 703 97 
L 703 672 
Q 941 559 1184 500 
Q 1428 441 1663 441 
Q 2288 441 2617 861 
Q 2947 1281 2994 2138 
Q 2813 1869 2534 1725 
Q 2256 1581 1919 1581 
Q 1219 1581 811 2004 
Q 403 2428 403 3163 
Q 403 3881 828 4315 
Q 1253 4750 1959 4750 
Q 2769 4750 3195 4129 
Q 3622 3509 3622 2328 
Q 3622 1225 3098 567 
Q 2575 -91 1691 -91 
Q 1453 -91 1209 -44 
Q 966 3 703 97 
z
M 1959 2075 
Q 2384 2075 2632 2365 
Q 2881 2656 2881 3163 
Q 2881 3666 2632 3958 
Q 2384 4250 1959 4250 
Q 1534 4250 1286 3958 
Q 1038 3666 1038 3163 
Q 1038 2656 1286 2365 
Q 1534 2075 1959 2075 
z
" id="DejaVuSans-39" transform="scale(0.015625)"/>
       </defs>
       <use xlink:href="#DejaVuSans-39"/>
       <use x="63.623047" xlink:href="#DejaVuSans-30"/>
      </g>
     </g>
    </g>
    <g id="xtick_7">
     <g id="line2d_7">
      <g>
       <use style="stroke:#000000;stroke-width:0.8;" x="409.313078" xlink:href="#m30eb4c3862" y="307.584"/>
      </g>
     </g>
     <g id="text_7">
      <!-- 100 -->
      <g transform="translate(399.769328 322.182437)scale(0.1 -0.1)">
       <defs>
        <path d="M 794 531 
L 1825 531 
L 1825 4091 
L 703 3866 
L 703 4441 
L 1819 4666 
L 2450 4666 
L 2450 531 
L 3481 531 
L 3481 0 
L 794 0 
L 794 531 
z
" id="DejaVuSans-31" transform="scale(0.015625)"/>
       </defs>
       <use xlink:href="#DejaVuSans-31"/>
       <use x="63.623047" xlink:href="#DejaVuSans-30"/>
       <use x="127.246094" xlink:href="#DejaVuSans-30"/>
      </g>
     </g>
    </g>
    <g id="text_8">
     <!-- humidity from WeatherBitIO -->
     <g transform="translate(166.027187 335.860562)scale(0.1 -0.1)">
      <defs>
       <path d="M 3513 2113 
L 3513 0 
L 2938 0 
L 2938 2094 
Q 2938 2591 2744 2837 
Q 2550 3084 2163 3084 
Q 1697 3084 1428 2787 
Q 1159 2491 1159 1978 
L 1159 0 
L 581 0 
L 581 4863 
L 1159 4863 
L 1159 2956 
Q 1366 3272 1645 3428 
Q 1925 3584 2291 3584 
Q 2894 3584 3203 3211 
Q 3513 2838 3513 2113 
z
" id="DejaVuSans-68" transform="scale(0.015625)"/>
       <path d="M 544 1381 
L 544 3500 
L 1119 3500 
L 1119 1403 
Q 1119 906 1312 657 
Q 1506 409 1894 409 
Q 2359 409 2629 706 
Q 2900 1003 2900 1516 
L 2900 3500 
L 3475 3500 
L 3475 0 
L 2900 0 
L 2900 538 
Q 2691 219 2414 64 
Q 2138 -91 1772 -91 
Q 1169 -91 856 284 
Q 544 659 544 1381 
z
M 1991 3584 
L 1991 3584 
z
" id="DejaVuSans-75" transform="scale(0.015625)"/>
       <path d="M 3328 2828 
Q 3544 3216 3844 3400 
Q 4144 3584 4550 3584 
Q 5097 3584 5394 3201 
Q 5691 2819 5691 2113 
L 5691 0 
L 5113 0 
L 5113 2094 
Q 5113 2597 4934 2840 
Q 4756 3084 4391 3084 
Q 3944 3084 3684 2787 
Q 3425 2491 3425 1978 
L 3425 0 
L 2847 0 
L 2847 2094 
Q 2847 2600 2669 2842 
Q 2491 3084 2119 3084 
Q 1678 3084 1418 2786 
Q 1159 2488 1159 1978 
L 1159 0 
L 581 0 
L 581 3500 
L 1159 3500 
L 1159 2956 
Q 1356 3278 1631 3431 
Q 1906 3584 2284 3584 
Q 2666 3584 2933 3390 
Q 3200 3197 3328 2828 
z
" id="DejaVuSans-6d" transform="scale(0.015625)"/>
       <path d="M 603 3500 
L 1178 3500 
L 1178 0 
L 603 0 
L 603 3500 
z
M 603 4863 
L 1178 4863 
L 1178 4134 
L 603 4134 
L 603 4863 
z
" id="DejaVuSans-69" transform="scale(0.015625)"/>
       <path d="M 2906 2969 
L 2906 4863 
L 3481 4863 
L 3481 0 
L 2906 0 
L 2906 525 
Q 2725 213 2448 61 
Q 2172 -91 1784 -91 
Q 1150 -91 751 415 
Q 353 922 353 1747 
Q 353 2572 751 3078 
Q 1150 3584 1784 3584 
Q 2172 3584 2448 3432 
Q 2725 3281 2906 2969 
z
M 947 1747 
Q 947 1113 1208 752 
Q 1469 391 1925 391 
Q 2381 391 2643 752 
Q 2906 1113 2906 1747 
Q 2906 2381 2643 2742 
Q 2381 3103 1925 3103 
Q 1469 3103 1208 2742 
Q 947 2381 947 1747 
z
" id="DejaVuSans-64" transform="scale(0.015625)"/>
       <path d="M 1172 4494 
L 1172 3500 
L 2356 3500 
L 2356 3053 
L 1172 3053 
L 1172 1153 
Q 1172 725 1289 603 
Q 1406 481 1766 481 
L 2356 481 
L 2356 0 
L 1766 0 
Q 1100 0 847 248 
Q 594 497 594 1153 
L 594 3053 
L 172 3053 
L 172 3500 
L 594 3500 
L 594 4494 
L 1172 4494 
z
" id="DejaVuSans-74" transform="scale(0.015625)"/>
       <path d="M 2059 -325 
Q 1816 -950 1584 -1140 
Q 1353 -1331 966 -1331 
L 506 -1331 
L 506 -850 
L 844 -850 
Q 1081 -850 1212 -737 
Q 1344 -625 1503 -206 
L 1606 56 
L 191 3500 
L 800 3500 
L 1894 763 
L 2988 3500 
L 3597 3500 
L 2059 -325 
z
" id="DejaVuSans-79" transform="scale(0.015625)"/>
       <path id="DejaVuSans-20" transform="scale(0.015625)"/>
       <path d="M 2375 4863 
L 2375 4384 
L 1825 4384 
Q 1516 4384 1395 4259 
Q 1275 4134 1275 3809 
L 1275 3500 
L 2222 3500 
L 2222 3053 
L 1275 3053 
L 1275 0 
L 697 0 
L 697 3053 
L 147 3053 
L 147 3500 
L 697 3500 
L 697 3744 
Q 697 4328 969 4595 
Q 1241 4863 1831 4863 
L 2375 4863 
z
" id="DejaVuSans-66" transform="scale(0.015625)"/>
       <path d="M 2631 2963 
Q 2534 3019 2420 3045 
Q 2306 3072 2169 3072 
Q 1681 3072 1420 2755 
Q 1159 2438 1159 1844 
L 1159 0 
L 581 0 
L 581 3500 
L 1159 3500 
L 1159 2956 
Q 1341 3275 1631 3429 
Q 1922 3584 2338 3584 
Q 2397 3584 2469 3576 
Q 2541 3569 2628 3553 
L 2631 2963 
z
" id="DejaVuSans-72" transform="scale(0.015625)"/>
       <path d="M 1959 3097 
Q 1497 3097 1228 2736 
Q 959 2375 959 1747 
Q 959 1119 1226 758 
Q 1494 397 1959 397 
Q 2419 397 2687 759 
Q 2956 1122 2956 1747 
Q 2956 2369 2687 2733 
Q 2419 3097 1959 3097 
z
M 1959 3584 
Q 2709 3584 3137 3096 
Q 3566 2609 3566 1747 
Q 3566 888 3137 398 
Q 2709 -91 1959 -91 
Q 1206 -91 779 398 
Q 353 888 353 1747 
Q 353 2609 779 3096 
Q 1206 3584 1959 3584 
z
" id="DejaVuSans-6f" transform="scale(0.015625)"/>
       <path d="M 213 4666 
L 850 4666 
L 1831 722 
L 2809 4666 
L 3519 4666 
L 4500 722 
L 5478 4666 
L 6119 4666 
L 4947 0 
L 4153 0 
L 3169 4050 
L 2175 0 
L 1381 0 
L 213 4666 
z
" id="DejaVuSans-57" transform="scale(0.015625)"/>
       <path d="M 3597 1894 
L 3597 1613 
L 953 1613 
Q 991 1019 1311 708 
Q 1631 397 2203 397 
Q 2534 397 2845 478 
Q 3156 559 3463 722 
L 3463 178 
Q 3153 47 2828 -22 
Q 2503 -91 2169 -91 
Q 1331 -91 842 396 
Q 353 884 353 1716 
Q 353 2575 817 3079 
Q 1281 3584 2069 3584 
Q 2775 3584 3186 3129 
Q 3597 2675 3597 1894 
z
M 3022 2063 
Q 3016 2534 2758 2815 
Q 2500 3097 2075 3097 
Q 1594 3097 1305 2825 
Q 1016 2553 972 2059 
L 3022 2063 
z
" id="DejaVuSans-65" transform="scale(0.015625)"/>
       <path d="M 2194 1759 
Q 1497 1759 1228 1600 
Q 959 1441 959 1056 
Q 959 750 1161 570 
Q 1363 391 1709 391 
Q 2188 391 2477 730 
Q 2766 1069 2766 1631 
L 2766 1759 
L 2194 1759 
z
M 3341 1997 
L 3341 0 
L 2766 0 
L 2766 531 
Q 2569 213 2275 61 
Q 1981 -91 1556 -91 
Q 1019 -91 701 211 
Q 384 513 384 1019 
Q 384 1609 779 1909 
Q 1175 2209 1959 2209 
L 2766 2209 
L 2766 2266 
Q 2766 2663 2505 2880 
Q 2244 3097 1772 3097 
Q 1472 3097 1187 3025 
Q 903 2953 641 2809 
L 641 3341 
Q 956 3463 1253 3523 
Q 1550 3584 1831 3584 
Q 2591 3584 2966 3190 
Q 3341 2797 3341 1997 
z
" id="DejaVuSans-61" transform="scale(0.015625)"/>
       <path d="M 1259 2228 
L 1259 519 
L 2272 519 
Q 2781 519 3026 730 
Q 3272 941 3272 1375 
Q 3272 1813 3026 2020 
Q 2781 2228 2272 2228 
L 1259 2228 
z
M 1259 4147 
L 1259 2741 
L 2194 2741 
Q 2656 2741 2882 2914 
Q 3109 3088 3109 3444 
Q 3109 3797 2882 3972 
Q 2656 4147 2194 4147 
L 1259 4147 
z
M 628 4666 
L 2241 4666 
Q 2963 4666 3353 4366 
Q 3744 4066 3744 3513 
Q 3744 3084 3544 2831 
Q 3344 2578 2956 2516 
Q 3422 2416 3680 2098 
Q 3938 1781 3938 1306 
Q 3938 681 3513 340 
Q 3088 0 2303 0 
L 628 0 
L 628 4666 
z
" id="DejaVuSans-42" transform="scale(0.015625)"/>
       <path d="M 628 4666 
L 1259 4666 
L 1259 0 
L 628 0 
L 628 4666 
z
" id="DejaVuSans-49" transform="scale(0.015625)"/>
       <path d="M 2522 4238 
Q 1834 4238 1429 3725 
Q 1025 3213 1025 2328 
Q 1025 1447 1429 934 
Q 1834 422 2522 422 
Q 3209 422 3611 934 
Q 4013 1447 4013 2328 
Q 4013 3213 3611 3725 
Q 3209 4238 2522 4238 
z
M 2522 4750 
Q 3503 4750 4090 4092 
Q 4678 3434 4678 2328 
Q 4678 1225 4090 567 
Q 3503 -91 2522 -91 
Q 1538 -91 948 565 
Q 359 1222 359 2328 
Q 359 3434 948 4092 
Q 1538 4750 2522 4750 
z
" id="DejaVuSans-4f" transform="scale(0.015625)"/>
      </defs>
      <use xlink:href="#DejaVuSans-68"/>
      <use x="63.378906" xlink:href="#DejaVuSans-75"/>
      <use x="126.757812" xlink:href="#DejaVuSans-6d"/>
      <use x="224.169922" xlink:href="#DejaVuSans-69"/>
      <use x="251.953125" xlink:href="#DejaVuSans-64"/>
      <use x="315.429688" xlink:href="#DejaVuSans-69"/>
      <use x="343.212891" xlink:href="#DejaVuSans-74"/>
      <use x="382.421875" xlink:href="#DejaVuSans-79"/>
      <use x="441.601562" xlink:href="#DejaVuSans-20"/>
      <use x="473.388672" xlink:href="#DejaVuSans-66"/>
      <use x="508.59375" xlink:href="#DejaVuSans-72"/>
      <use x="547.457031" xlink:href="#DejaVuSans-6f"/>
      <use x="608.638672" xlink:href="#DejaVuSans-6d"/>
      <use x="706.050781" xlink:href="#DejaVuSans-20"/>
      <use x="737.837891" xlink:href="#DejaVuSans-57"/>
      <use x="830.839844" xlink:href="#DejaVuSans-65"/>
      <use x="892.363281" xlink:href="#DejaVuSans-61"/>
      <use x="953.642578" xlink:href="#DejaVuSans-74"/>
      <use x="992.851562" xlink:href="#DejaVuSans-68"/>
      <use x="1056.230469" xlink:href="#DejaVuSans-65"/>
      <use x="1117.753906" xlink:href="#DejaVuSans-72"/>
      <use x="1158.867188" xlink:href="#DejaVuSans-42"/>
      <use x="1227.470703" xlink:href="#DejaVuSans-69"/>
      <use x="1255.253906" xlink:href="#DejaVuSans-74"/>
      <use x="1294.462891" xlink:href="#DejaVuSans-49"/>
      <use x="1323.955078" xlink:href="#DejaVuSans-4f"/>
     </g>
    </g>
   </g>
   <g id="matplotlib.axis_2">
    <g id="ytick_1">
     <g id="line2d_8">
      <defs>
       <path d="M 0 0 
L -3.5 0 
" id="mee32d4051a" style="stroke:#000000;stroke-width:0.8;"/>
      </defs>
      <g>
       <use style="stroke:#000000;stroke-width:0.8;" x="57.6" xlink:href="#mee32d4051a" y="280.909958"/>
      </g>
     </g>
     <g id="text_9">
      <!-- 10 -->
      <g transform="translate(37.875 284.709177)scale(0.1 -0.1)">
       <use xlink:href="#DejaVuSans-31"/>
       <use x="63.623047" xlink:href="#DejaVuSans-30"/>
      </g>
     </g>
    </g>
    <g id="ytick_2">
     <g id="line2d_9">
      <g>
       <use style="stroke:#000000;stroke-width:0.8;" x="57.6" xlink:href="#mee32d4051a" y="244.959176"/>
      </g>
     </g>
     <g id="text_10">
      <!-- 20 -->
      <g transform="translate(37.875 248.758395)scale(0.1 -0.1)">
       <defs>
        <path d="M 1228 531 
L 3431 531 
L 3431 0 
L 469 0 
L 469 531 
Q 828 903 1448 1529 
Q 2069 2156 2228 2338 
Q 2531 2678 2651 2914 
Q 2772 3150 2772 3378 
Q 2772 3750 2511 3984 
Q 2250 4219 1831 4219 
Q 1534 4219 1204 4116 
Q 875 4013 500 3803 
L 500 4441 
Q 881 4594 1212 4672 
Q 1544 4750 1819 4750 
Q 2544 4750 2975 4387 
Q 3406 4025 3406 3419 
Q 3406 3131 3298 2873 
Q 3191 2616 2906 2266 
Q 2828 2175 2409 1742 
Q 1991 1309 1228 531 
z
" id="DejaVuSans-32" transform="scale(0.015625)"/>
       </defs>
       <use xlink:href="#DejaVuSans-32"/>
       <use x="63.623047" xlink:href="#DejaVuSans-30"/>
      </g>
     </g>
    </g>
    <g id="ytick_3">
     <g id="line2d_10">
      <g>
       <use style="stroke:#000000;stroke-width:0.8;" x="57.6" xlink:href="#mee32d4051a" y="209.008395"/>
      </g>
     </g>
     <g id="text_11">
      <!-- 30 -->
      <g transform="translate(37.875 212.807613)scale(0.1 -0.1)">
       <defs>
        <path d="M 2597 2516 
Q 3050 2419 3304 2112 
Q 3559 1806 3559 1356 
Q 3559 666 3084 287 
Q 2609 -91 1734 -91 
Q 1441 -91 1130 -33 
Q 819 25 488 141 
L 488 750 
Q 750 597 1062 519 
Q 1375 441 1716 441 
Q 2309 441 2620 675 
Q 2931 909 2931 1356 
Q 2931 1769 2642 2001 
Q 2353 2234 1838 2234 
L 1294 2234 
L 1294 2753 
L 1863 2753 
Q 2328 2753 2575 2939 
Q 2822 3125 2822 3475 
Q 2822 3834 2567 4026 
Q 2313 4219 1838 4219 
Q 1578 4219 1281 4162 
Q 984 4106 628 3988 
L 628 4550 
Q 988 4650 1302 4700 
Q 1616 4750 1894 4750 
Q 2613 4750 3031 4423 
Q 3450 4097 3450 3541 
Q 3450 3153 3228 2886 
Q 3006 2619 2597 2516 
z
" id="DejaVuSans-33" transform="scale(0.015625)"/>
       </defs>
       <use xlink:href="#DejaVuSans-33"/>
       <use x="63.623047" xlink:href="#DejaVuSans-30"/>
      </g>
     </g>
    </g>
    <g id="ytick_4">
     <g id="line2d_11">
      <g>
       <use style="stroke:#000000;stroke-width:0.8;" x="57.6" xlink:href="#mee32d4051a" y="173.057613"/>
      </g>
     </g>
     <g id="text_12">
      <!-- 40 -->
      <g transform="translate(37.875 176.856832)scale(0.1 -0.1)">
       <use xlink:href="#DejaVuSans-34"/>
       <use x="63.623047" xlink:href="#DejaVuSans-30"/>
      </g>
     </g>
    </g>
    <g id="ytick_5">
     <g id="line2d_12">
      <g>
       <use style="stroke:#000000;stroke-width:0.8;" x="57.6" xlink:href="#mee32d4051a" y="137.106831"/>
      </g>
     </g>
     <g id="text_13">
      <!-- 50 -->
      <g transform="translate(37.875 140.90605)scale(0.1 -0.1)">
       <use xlink:href="#DejaVuSans-35"/>
       <use x="63.623047" xlink:href="#DejaVuSans-30"/>
      </g>
     </g>
    </g>
    <g id="ytick_6">
     <g id="line2d_13">
      <g>
       <use style="stroke:#000000;stroke-width:0.8;" x="57.6" xlink:href="#mee32d4051a" y="101.15605"/>
      </g>
     </g>
     <g id="text_14">
      <!-- 60 -->
      <g transform="translate(37.875 104.955268)scale(0.1 -0.1)">
       <use xlink:href="#DejaVuSans-36"/>
       <use x="63.623047" xlink:href="#DejaVuSans-30"/>
      </g>
     </g>
    </g>
    <g id="ytick_7">
     <g id="line2d_14">
      <g>
       <use style="stroke:#000000;stroke-width:0.8;" x="57.6" xlink:href="#mee32d4051a" y="65.205268"/>
      </g>
     </g>
     <g id="text_15">
      <!-- 70 -->
      <g transform="translate(37.875 69.004487)scale(0.1 -0.1)">
       <use xlink:href="#DejaVuSans-37"/>
       <use x="63.623047" xlink:href="#DejaVuSans-30"/>
      </g>
     </g>
    </g>
   </g>
   <g id="line2d_15">
    <path clip-path="url(#pa0cd298e23)" d="M 73.832727 270.87969 
L 84.538908 226.911884 
L 89.951811 266.224064 
L 95.364713 204.507357 
L 97.123907 216.338759 
L 100.777616 242.313199 
L 103.223707 223.834497 
L 106.515293 271.009113 
L 111.432916 275.603623 
L 111.603422 251.257753 
L 113.05841 280.672683 
L 116.090718 246.06646 
L 117.016325 280.597186 
L 119.639418 286.173152 
L 125.533527 282.567289 
L 126.61286 191.273874 
L 127.162811 211.129491 
L 131.236021 184.702071 
L 132.070149 282.074763 
L 132.840946 217.852287 
L 133.255033 209.899974 
L 133.563569 290.293112 
L 134.556837 287.726226 
L 135.132228 269.448849 
L 135.567967 230.539318 
L 137.62054 291.231427 
L 138.667936 188.757319 
L 140.190045 289.30087 
L 141.720813 198.492791 
L 142.456427 231.819166 
L 142.699466 282.772209 
L 143.322491 290.577123 
L 143.600173 254.11584 
L 144.080839 287.65073 
L 144.715773 292.205694 
L 144.737424 266.191708 
L 145.163961 178.018821 
L 146.217312 293.62575 
L 147.320461 282.049598 
L 147.97001 269.333806 
L 149.113756 286.773531 
L 149.493742 157.250054 
L 150.165483 272.921694 
L 150.596892 277.340045 
L 152.455141 290.181665 
L 152.623482 284.292927 
L 152.635932 185.201787 
L 152.659749 212.031855 
L 153.179929 210.529113 
L 154.214876 283.548745 
L 154.244105 156.922902 
L 154.906645 213.477077 
L 155.209226 219.85115 
L 155.380815 265.012522 
L 156.322119 253.425585 
L 156.333486 266.551216 
L 156.861785 207.41937 
L 157.036081 272.50826 
L 158.107836 289.771826 
L 158.361159 112.361908 
L 158.371985 276.833139 
L 159.200159 290.231996 
L 159.826973 230.377539 
L 160.319548 244.006481 
L 160.8787 271.508829 
L 161.654911 66.21908 
L 162.284431 289.027645 
L 163.496922 281.654139 
L 163.616547 211.442263 
L 165.422832 285.558394 
L 165.73245 289.333226 
L 167.089465 234.982834 
L 167.90519 276.002676 
L 168.263524 184.001031 
L 168.620775 243.959745 
L 169.535556 145.53729 
L 169.656264 241.540257 
L 169.940441 278.742126 
L 170.134764 265.483478 
L 170.220288 126.605608 
L 171.136693 286.834647 
L 171.145353 285.051488 
L 172.537011 291.177501 
L 173.140008 276.901446 
L 173.691583 190.029977 
L 173.885906 269.06058 
L 174.914358 273.673066 
L 176.481393 272.907314 
L 176.558256 243.402508 
L 177.008068 218.959571 
L 178.037061 220.545001 
L 178.154521 289.401533 
L 178.257366 295.488 
L 178.412717 285.993399 
L 178.444111 183.019575 
L 178.465763 261.751786 
L 178.872272 285.410996 
L 179.76919 168.99158 
L 180.027386 284.936446 
L 181.107801 278.184889 
L 181.588467 282.290468 
L 181.971159 279.824244 
L 182.590936 235.590403 
L 183.007189 286.137202 
L 184.848117 292.184123 
L 185.536097 267.525482 
L 185.657346 286.209103 
L 187.957288 287.186965 
L 188.581937 244.632024 
L 188.810903 280.967479 
L 189.095622 232.858143 
L 190.19823 247.713006 
L 190.900825 284.548177 
L 191.013413 234.019354 
L 191.640769 259.400605 
L 192.1826 164.084298 
L 192.184765 287.805318 
L 192.796965 233.591539 
L 192.82457 278.080632 
L 196.556226 275.981106 
L 196.92701 152.062357 
L 197.646926 286.212698 
L 197.742193 282.502578 
L 197.784413 250.42729 
L 198.035572 287.406264 
L 198.209868 150.901146 
L 199.263218 248.259458 
L 199.685966 230.4063 
L 200.185577 290.724521 
L 201.697942 171.288835 
L 201.716346 172.93538 
L 203.62277 274.597001 
L 204.543505 285.712982 
L 205.081548 177.371707 
L 205.515121 180.765461 
L 205.677508 202.788909 
L 206.069944 229.061741 
L 206.304322 269.696909 
L 207.910331 175.153544 
L 208.218325 257.419717 
L 208.927956 239.066843 
L 209.035673 207.861565 
L 211.114228 252.26797 
L 211.992201 289.25773 
L 212.081514 220.77149 
L 212.552436 283.919038 
L 213.125121 264.45888 
L 213.432033 225.887287 
L 215.602607 223.999871 
L 215.912766 226.768081 
L 220.561367 258.253775 
L 220.782214 211.442263 
L 221.713233 288.12528 
L 221.978465 231.934208 
L 221.979548 235.662304 
L 222.335717 252.052266 
L 222.344919 230.884445 
L 222.879714 162.984204 
L 223.535216 204.86327 
L 224.133883 283.117336 
L 224.606971 286.877788 
L 225.274382 249.449429 
L 225.311731 281.280251 
L 225.86926 273.252442 
L 225.996463 273.565213 
L 226.984859 286.223484 
L 228.017641 233.052277 
L 228.81009 233.778483 
L 229.672907 241.044136 
L 230.600137 267.396059 
L 230.60555 159.78818 
L 230.937902 286.27022 
L 232.558525 261.183764 
L 232.867602 227.925696 
L 233.13933 182.293369 
L 233.708767 287.079112 
L 234.745879 251.344035 
L 235.596787 282.365965 
L 236.100187 206.689569 
L 236.597633 259.393415 
L 239.00421 249.722655 
L 240.578282 252.569957 
L 241.279794 288.247513 
L 241.51309 75.828724 
L 241.693881 289.901249 
L 243.607342 218.92362 
L 244.020888 294.398691 
L 245.26748 196.925337 
L 245.295627 285.579965 
L 245.790907 162.545604 
L 245.891046 288.621401 
L 246.367923 276.509582 
L 246.507034 282.757828 
L 246.892974 270.070797 
L 246.925993 213.566954 
L 248.399385 197.108686 
L 249.34123 208.900542 
L 251.215719 238.085387 
L 251.357537 278.900309 
L 251.573511 278.332287 
L 252.338896 273.665876 
L 252.91537 279.392835 
L 256.818073 267.953296 
L 257.348538 291.389611 
L 257.751799 214.217663 
L 258.231923 286.874193 
L 259.483386 216.435826 
L 259.825482 263.54573 
L 260.200596 282.470222 
L 260.545398 290.861134 
L 261.348673 282.351584 
L 261.38927 287.298412 
L 262.491337 265.077234 
L 262.670504 287.643539 
L 263.157665 288.387721 
L 263.164702 271.652632 
L 263.330336 280.76975 
L 263.945784 292.888758 
L 267.024643 228.234873 
L 267.098799 289.962365 
L 267.364573 261.270046 
L 268.737826 204.981907 
L 269.097243 240.188508 
L 270.19931 201.174719 
L 270.541406 244.509792 
L 271.081613 157.091871 
L 271.700849 261.431825 
L 272.40182 276.214786 
L 273.361528 288.154041 
L 273.990507 204.784178 
L 275.46823 287.837674 
L 275.811949 270.157079 
L 276.062025 274.783945 
L 276.49181 280.349126 
L 277.257194 189.792702 
L 277.629061 218.100347 
L 278.070753 199.772639 
L 278.284022 285.180911 
L 278.431253 283.660193 
L 279.40341 174.373412 
L 284.310207 185.377946 
L 284.706972 289.049215 
L 284.816313 214.232043 
L 284.850414 274.064929 
L 285.350567 210.726842 
L 285.452329 286.428403 
L 285.736506 267.856229 
L 286.664819 290.67419 
L 288.425637 278.752911 
L 288.555005 203.853053 
L 289.416739 281.844678 
L 289.645164 213.027692 
L 290.229216 220.278965 
L 290.371034 285.849595 
L 290.745607 289.419508 
L 291.023289 279.590564 
L 292.091796 288.58545 
L 292.783023 218.427499 
L 293.067742 290.595099 
L 293.540289 290.210425 
L 294.594722 288.718468 
L 295.864048 197.331581 
L 297.25354 282.926797 
L 298.759951 252.462104 
L 299.379187 294.675512 
L 299.75809 279.60854 
L 300.902378 289.239754 
L 301.055022 219.211227 
L 301.925416 283.444488 
L 302.226374 287.107873 
L 304.342819 270.746672 
L 304.421306 272.24582 
L 304.958266 286.726795 
L 305.347995 289.638808 
L 306.453851 268.952728 
L 306.477668 115.302682 
L 306.780249 278.353857 
L 307.63224 233.311123 
L 308.277458 292.511275 
L 309.894833 284.972396 
L 310.072376 288.1109 
L 310.310003 288.157636 
L 310.705145 279.702012 
L 311.880827 213.520218 
L 312.325768 223.29164 
L 313.282228 286.676463 
L 314.225697 283.98375 
L 314.439506 284.070032 
L 315.365113 285.641081 
L 316.040643 245.261163 
L 316.23226 292.629913 
L 317.772231 229.104882 
L 317.976297 286.399642 
L 320.289231 199.035648 
L 321.72798 279.755938 
L 322.660623 258.47667 
L 322.706633 213.462697 
L 323.29285 279.928502 
L 324.011143 203.324576 
L 324.283412 252.875538 
L 324.342953 208.609341 
L 324.448505 287.557258 
L 324.488019 220.821822 
L 325.12187 267.058122 
L 325.275597 236.712067 
L 326.440453 229.435629 
L 327.294068 276.110529 
L 327.379051 291.777879 
L 327.579328 269.474014 
L 327.807753 261.295212 
L 328.119536 219.401766 
L 328.438897 286.874193 
L 328.444851 283.638622 
L 328.754469 266.673448 
L 329.443532 259.479697 
L 329.674121 286.618942 
L 330.571039 291.493868 
L 330.981879 276.225571 
L 331.082559 293.17996 
L 332.640934 181.772083 
L 333.144333 282.880061 
L 333.146499 165.691298 
L 333.291023 278.396998 
L 333.532439 228.853226 
L 333.679128 286.690844 
L 333.859378 271.771269 
L 333.922168 277.10277 
L 334.569551 287.560853 
L 334.969023 228.152186 
L 335.087024 285.141365 
L 335.550369 291.752714 
L 335.566066 255.291431 
L 336.890604 286.53985 
L 337.609437 288.926982 
L 337.756127 258.109972 
L 338.084149 266.544026 
L 338.164801 286.755555 
L 338.51664 279.486307 
L 339.253336 237.139881 
L 339.318832 290.483651 
L 339.716139 275.661144 
L 339.776763 288.621401 
L 339.848214 270.926426 
L 339.903425 291.529819 
L 340.223328 120.594637 
L 340.831738 281.686495 
L 341.120787 279.16275 
L 341.303743 249.427859 
L 342.999606 279.497092 
L 343.083506 294.884027 
L 343.634539 292.982231 
L 343.890569 53.568 
L 343.966891 287.726226 
L 344.208307 192.115122 
L 344.358244 285.457732 
L 344.392887 272.623303 
L 345.625405 293.658105 
L 345.649222 279.504282 
L 345.739076 284.285736 
L 345.897674 282.8513 
L 345.907958 203.849458 
L 346.099034 190.051548 
L 346.238687 250.725682 
L 346.895272 266.242039 
L 347.483113 217.428068 
L 349.298601 246.602127 
L 349.366262 293.85943 
L 349.695366 133.522538 
L 349.771147 175.293752 
L 350.365484 286.838242 
L 351.234796 289.843727 
L 351.721416 288.37334 
L 351.769591 291.713168 
L 352.126301 282.078358 
L 352.288147 291.159526 
L 352.723886 278.907499 
L 352.946356 263.214983 
L 352.978292 287.970692 
L 353.582372 289.200208 
L 353.628382 264.545162 
L 354.280636 268.312804 
L 354.588089 293.079298 
L 355.034113 266.73816 
L 355.049269 240.896738 
L 355.18405 205.603856 
L 355.216527 277.124341 
L 355.36863 290.156499 
L 355.376208 268.13305 
L 355.521815 289.814967 
L 356.514 236.194376 
L 357.427157 256.085943 
L 358.130293 286.982045 
L 358.135165 202.468948 
L 358.35547 283.135311 
L 359.069432 287.025186 
L 359.575538 274.852251 
L 359.947404 280.823676 
L 360.596953 254.187742 
L 360.640256 287.621969 
L 360.862185 223.126267 
L 360.993177 274.226708 
L 361.160436 290.271542 
L 361.397521 285.756123 
L 361.824058 291.184691 
L 362.497964 291.497463 
L 362.730719 286.888573 
L 362.867666 277.296904 
L 363.084723 295.286676 
L 363.617894 286.669273 
L 364.711842 198.794778 
L 365.168691 287.67949 
L 366.009856 234.785105 
L 366.34708 282.006457 
L 366.812589 284.199455 
L 367.804233 293.000206 
L 367.974739 288.916197 
L 368.427258 275.387918 
L 368.80995 289.441079 
L 369.255432 292.895949 
L 369.340956 229.036575 
L 370.63464 270.196625 
L 370.786201 288.445242 
L 371.422759 244.434295 
L 371.560788 291.878542 
L 373.298871 288.092924 
L 373.753013 280.589996 
L 374.192 289.976745 
L 375.538189 289.30087 
L 375.94578 286.493114 
L 376.244031 280.255654 
L 376.596411 281.395294 
L 376.618604 273.777323 
L 376.835661 243.265895 
L 377.349346 285.727363 
L 377.362337 285.062273 
L 377.428374 251.732304 
L 377.631899 289.699924 
L 378.929372 148.29831 
L 378.961308 247.943091 
L 379.208137 282.286873 
L 379.354285 278.253195 
L 379.491231 267.525482 
L 379.851731 288.211562 
L 379.980017 251.628046 
L 380.343222 284.961611 
L 381.287774 284.979587 
L 382.248564 235.345937 
L 382.504053 289.944389 
L 382.724358 289.002479 
L 384.338486 288.524334 
L 385.567215 282.804564 
L 385.985632 289.157067 
L 386.188075 197.360341 
L 387.223563 264.519997 
L 387.661467 258.48386 
L 388.010058 291.418372 
L 390.573067 269.136077 
L 393.07437 201.354473 
L 393.914994 279.432381 
L 398.487273 173.13311 
L 398.487273 173.13311 
" style="fill:none;stroke:#0000ff;stroke-linecap:square;stroke-width:1.5;"/>
   </g>
   <g id="patch_3">
    <path d="M 57.6 307.584 
L 57.6 41.472 
" style="fill:none;stroke:#000000;stroke-linecap:square;stroke-linejoin:miter;stroke-width:0.8;"/>
   </g>
   <g id="patch_4">
    <path d="M 414.72 307.584 
L 414.72 41.472 
" style="fill:none;stroke:#000000;stroke-linecap:square;stroke-linejoin:miter;stroke-width:0.8;"/>
   </g>
   <g id="patch_5">
    <path d="M 57.6 307.584 
L 414.72 307.584 
" style="fill:none;stroke:#000000;stroke-linecap:square;stroke-linejoin:miter;stroke-width:0.8;"/>
   </g>
   <g id="patch_6">
    <path d="M 57.6 41.472 
L 414.72 41.472 
" style="fill:none;stroke:#000000;stroke-linecap:square;stroke-linejoin:miter;stroke-width:0.8;"/>
   </g>
   <g id="text_16">
    <!-- humidity-&gt;ping -->
    <g transform="translate(189.489375 35.472)scale(0.12 -0.12)">
     <defs>
      <path d="M 313 2009 
L 1997 2009 
L 1997 1497 
L 313 1497 
L 313 2009 
z
" id="DejaVuSans-2d" transform="scale(0.015625)"/>
      <path d="M 678 3150 
L 678 3719 
L 4684 2266 
L 4684 1747 
L 678 294 
L 678 863 
L 3897 2003 
L 678 3150 
z
" id="DejaVuSans-3e" transform="scale(0.015625)"/>
      <path d="M 1159 525 
L 1159 -1331 
L 581 -1331 
L 581 3500 
L 1159 3500 
L 1159 2969 
Q 1341 3281 1617 3432 
Q 1894 3584 2278 3584 
Q 2916 3584 3314 3078 
Q 3713 2572 3713 1747 
Q 3713 922 3314 415 
Q 2916 -91 2278 -91 
Q 1894 -91 1617 61 
Q 1341 213 1159 525 
z
M 3116 1747 
Q 3116 2381 2855 2742 
Q 2594 3103 2138 3103 
Q 1681 3103 1420 2742 
Q 1159 2381 1159 1747 
Q 1159 1113 1420 752 
Q 1681 391 2138 391 
Q 2594 391 2855 752 
Q 3116 1113 3116 1747 
z
" id="DejaVuSans-70" transform="scale(0.015625)"/>
      <path d="M 3513 2113 
L 3513 0 
L 2938 0 
L 2938 2094 
Q 2938 2591 2744 2837 
Q 2550 3084 2163 3084 
Q 1697 3084 1428 2787 
Q 1159 2491 1159 1978 
L 1159 0 
L 581 0 
L 581 3500 
L 1159 3500 
L 1159 2956 
Q 1366 3272 1645 3428 
Q 1925 3584 2291 3584 
Q 2894 3584 3203 3211 
Q 3513 2838 3513 2113 
z
" id="DejaVuSans-6e" transform="scale(0.015625)"/>
      <path d="M 2906 1791 
Q 2906 2416 2648 2759 
Q 2391 3103 1925 3103 
Q 1463 3103 1205 2759 
Q 947 2416 947 1791 
Q 947 1169 1205 825 
Q 1463 481 1925 481 
Q 2391 481 2648 825 
Q 2906 1169 2906 1791 
z
M 3481 434 
Q 3481 -459 3084 -895 
Q 2688 -1331 1869 -1331 
Q 1566 -1331 1297 -1286 
Q 1028 -1241 775 -1147 
L 775 -588 
Q 1028 -725 1275 -790 
Q 1522 -856 1778 -856 
Q 2344 -856 2625 -561 
Q 2906 -266 2906 331 
L 2906 616 
Q 2728 306 2450 153 
Q 2172 0 1784 0 
Q 1141 0 747 490 
Q 353 981 353 1791 
Q 353 2603 747 3093 
Q 1141 3584 1784 3584 
Q 2172 3584 2450 3431 
Q 2728 3278 2906 2969 
L 2906 3500 
L 3481 3500 
L 3481 434 
z
" id="DejaVuSans-67" transform="scale(0.015625)"/>
     </defs>
     <use xlink:href="#DejaVuSans-68"/>
     <use x="63.378906" xlink:href="#DejaVuSans-75"/>
     <use x="126.757812" xlink:href="#DejaVuSans-6d"/>
     <use x="224.169922" xlink:href="#DejaVuSans-69"/>
     <use x="251.953125" xlink:href="#DejaVuSans-64"/>
     <use x="315.429688" xlink:href="#DejaVuSans-69"/>
     <use x="343.212891" xlink:href="#DejaVuSans-74"/>
     <use x="382.421875" xlink:href="#DejaVuSans-79"/>
     <use x="439.851562" xlink:href="#DejaVuSans-2d"/>
     <use x="475.935547" xlink:href="#DejaVuSans-3e"/>
     <use x="559.724609" xlink:href="#DejaVuSans-70"/>
     <use x="623.201172" xlink:href="#DejaVuSans-69"/>
     <use x="650.984375" xlink:href="#DejaVuSans-6e"/>
     <use x="714.363281" xlink:href="#DejaVuSans-67"/>
    </g>
   </g>
  </g>
  <g id="legend_1">
   <g id="patch_7">
    <path d="M 415.451563 22.678125 
L 453.8 22.678125 
Q 455.8 22.678125 455.8 20.678125 
L 455.8 7 
Q 455.8 5 453.8 5 
L 415.451563 5 
Q 413.451563 5 413.451563 7 
L 413.451563 20.678125 
Q 413.451563 22.678125 415.451563 22.678125 
z
" style="fill:#ffffff;opacity:0.8;stroke:#cccccc;stroke-linejoin:miter;"/>
   </g>
   <g id="line2d_16">
    <path d="M 417.451563 13.098438 
L 437.451563 13.098438 
" style="fill:none;stroke:#0000ff;stroke-linecap:square;stroke-width:1.5;"/>
   </g>
   <g id="line2d_17"/>
   <g id="text_17">
    <!-- p -->
    <g transform="translate(445.451563 16.598438)scale(0.1 -0.1)">
     <use xlink:href="#DejaVuSans-70"/>
    </g>
   </g>
  </g>
 </g>
 <defs>
  <clipPath id="pa0cd298e23">
   <rect height="266.112" width="357.12" x="57.6" y="41.472"/>
  </clipPath>
 </defs>
</svg>
