<?xml version="1.0" encoding="utf-8" standalone="no"?>
<!DOCTYPE svg PUBLIC "-//W3C//DTD SVG 1.1//EN"
  "http://www.w3.org/Graphics/SVG/1.1/DTD/svg11.dtd">
<!-- Created with matplotlib (https://matplotlib.org/) -->
<svg height="2090.31625pt" version="1.1" viewBox="0 0 2065.165625 2090.31625" width="2065.165625pt" xmlns="http://www.w3.org/2000/svg" xmlns:xlink="http://www.w3.org/1999/xlink">
 <metadata>
  <rdf:RDF xmlns:cc="http://creativecommons.org/ns#" xmlns:dc="http://purl.org/dc/elements/1.1/" xmlns:rdf="http://www.w3.org/1999/02/22-rdf-syntax-ns#">
   <cc:Work>
    <dc:type rdf:resource="http://purl.org/dc/dcmitype/StillImage"/>
    <dc:date>2022-07-24T11:30:52.301186</dc:date>
    <dc:format>image/svg+xml</dc:format>
    <dc:creator>
     <cc:Agent>
      <dc:title>Matplotlib v3.3.2, https://matplotlib.org/</dc:title>
     </cc:Agent>
    </dc:creator>
   </cc:Work>
  </rdf:RDF>
 </metadata>
 <defs>
  <style type="text/css">*{stroke-linecap:butt;stroke-linejoin:round;}</style>
 </defs>
 <g id="figure_1">
  <g id="patch_1">
   <path d="M 0 2090.31625 
L 2065.165625 2090.31625 
L 2065.165625 0 
L 0 0 
z
" style="fill:#ffffff;"/>
  </g>
  <g id="axes_1">
   <g id="patch_2">
    <path d="M 46.965625 2052.76 
L 1832.565625 2052.76 
L 1832.565625 278.68 
L 46.965625 278.68 
z
" style="fill:#ffffff;"/>
   </g>
   <g id="matplotlib.axis_1">
    <g id="xtick_1">
     <g id="line2d_1">
      <defs>
       <path d="M 0 0 
L 0 3.5 
" id="m53c8d980ea" style="stroke:#000000;stroke-width:0.8;"/>
      </defs>
      <g>
       <use style="stroke:#000000;stroke-width:0.8;" x="207.962346" xlink:href="#m53c8d980ea" y="2052.76"/>
      </g>
     </g>
     <g id="text_1">
      <text style="font-family:DejaVu Sans;font-size:10px;font-stretch:normal;font-style:normal;font-weight:normal;text-anchor:middle;" transform="rotate(-0, 207.962346, 2067.358438)" x="207.962346" y="2067.358438">40</text>
     </g>
    </g>
    <g id="xtick_2">
     <g id="line2d_2">
      <g>
       <use style="stroke:#000000;stroke-width:0.8;" x="474.072629" xlink:href="#m53c8d980ea" y="2052.76"/>
      </g>
     </g>
     <g id="text_2">
      <text style="font-family:DejaVu Sans;font-size:10px;font-stretch:normal;font-style:normal;font-weight:normal;text-anchor:middle;" transform="rotate(-0, 474.072629, 2067.358438)" x="474.072629" y="2067.358438">50</text>
     </g>
    </g>
    <g id="xtick_3">
     <g id="line2d_3">
      <g>
       <use style="stroke:#000000;stroke-width:0.8;" x="740.182913" xlink:href="#m53c8d980ea" y="2052.76"/>
      </g>
     </g>
     <g id="text_3">
      <text style="font-family:DejaVu Sans;font-size:10px;font-stretch:normal;font-style:normal;font-weight:normal;text-anchor:middle;" transform="rotate(-0, 740.182913, 2067.358438)" x="740.182913" y="2067.358438">60</text>
     </g>
    </g>
    <g id="xtick_4">
     <g id="line2d_4">
      <g>
       <use style="stroke:#000000;stroke-width:0.8;" x="1006.293196" xlink:href="#m53c8d980ea" y="2052.76"/>
      </g>
     </g>
     <g id="text_4">
      <text style="font-family:DejaVu Sans;font-size:10px;font-stretch:normal;font-style:normal;font-weight:normal;text-anchor:middle;" transform="rotate(-0, 1006.293196, 2067.358438)" x="1006.293196" y="2067.358438">70</text>
     </g>
    </g>
    <g id="xtick_5">
     <g id="line2d_5">
      <g>
       <use style="stroke:#000000;stroke-width:0.8;" x="1272.403479" xlink:href="#m53c8d980ea" y="2052.76"/>
      </g>
     </g>
     <g id="text_5">
      <text style="font-family:DejaVu Sans;font-size:10px;font-stretch:normal;font-style:normal;font-weight:normal;text-anchor:middle;" transform="rotate(-0, 1272.403479, 2067.358438)" x="1272.403479" y="2067.358438">80</text>
     </g>
    </g>
    <g id="xtick_6">
     <g id="line2d_6">
      <g>
       <use style="stroke:#000000;stroke-width:0.8;" x="1538.513762" xlink:href="#m53c8d980ea" y="2052.76"/>
      </g>
     </g>
     <g id="text_6">
      <text style="font-family:DejaVu Sans;font-size:10px;font-stretch:normal;font-style:normal;font-weight:normal;text-anchor:middle;" transform="rotate(-0, 1538.513762, 2067.358438)" x="1538.513762" y="2067.358438">90</text>
     </g>
    </g>
    <g id="xtick_7">
     <g id="line2d_7">
      <g>
       <use style="stroke:#000000;stroke-width:0.8;" x="1804.624045" xlink:href="#m53c8d980ea" y="2052.76"/>
      </g>
     </g>
     <g id="text_7">
      <text style="font-family:DejaVu Sans;font-size:10px;font-stretch:normal;font-style:normal;font-weight:normal;text-anchor:middle;" transform="rotate(-0, 1804.624045, 2067.358438)" x="1804.624045" y="2067.358438">100</text>
     </g>
    </g>
    <g id="text_8">
     <text style="font-family:DejaVu Sans;font-size:10px;font-stretch:normal;font-style:normal;font-weight:normal;text-anchor:middle;" transform="rotate(-0, 939.765625, 2081.036562)" x="939.765625" y="2081.036562">humidity from WeatherBitIO</text>
    </g>
   </g>
   <g id="matplotlib.axis_2">
    <g id="ytick_1">
     <g id="line2d_8">
      <defs>
       <path d="M 0 0 
L -3.5 0 
" id="me2bd0faf4e" style="stroke:#000000;stroke-width:0.8;"/>
      </defs>
      <g>
       <use style="stroke:#000000;stroke-width:0.8;" x="46.965625" xlink:href="#me2bd0faf4e" y="1757.889873"/>
      </g>
     </g>
     <g id="text_9">
      <text style="font-family:DejaVu Sans;font-size:10px;font-stretch:normal;font-style:normal;font-weight:normal;text-anchor:end;" transform="rotate(-0, 39.965625, 1761.689091)" x="39.965625" y="1761.689091">20</text>
     </g>
    </g>
    <g id="ytick_2">
     <g id="line2d_9">
      <g>
       <use style="stroke:#000000;stroke-width:0.8;" x="46.965625" xlink:href="#me2bd0faf4e" y="1453.044441"/>
      </g>
     </g>
     <g id="text_10">
      <text style="font-family:DejaVu Sans;font-size:10px;font-stretch:normal;font-style:normal;font-weight:normal;text-anchor:end;" transform="rotate(-0, 39.965625, 1456.843659)" x="39.965625" y="1456.843659">40</text>
     </g>
    </g>
    <g id="ytick_3">
     <g id="line2d_10">
      <g>
       <use style="stroke:#000000;stroke-width:0.8;" x="46.965625" xlink:href="#me2bd0faf4e" y="1148.199009"/>
      </g>
     </g>
     <g id="text_11">
      <text style="font-family:DejaVu Sans;font-size:10px;font-stretch:normal;font-style:normal;font-weight:normal;text-anchor:end;" transform="rotate(-0, 39.965625, 1151.998228)" x="39.965625" y="1151.998228">60</text>
     </g>
    </g>
    <g id="ytick_4">
     <g id="line2d_11">
      <g>
       <use style="stroke:#000000;stroke-width:0.8;" x="46.965625" xlink:href="#me2bd0faf4e" y="843.353577"/>
      </g>
     </g>
     <g id="text_12">
      <text style="font-family:DejaVu Sans;font-size:10px;font-stretch:normal;font-style:normal;font-weight:normal;text-anchor:end;" transform="rotate(-0, 39.965625, 847.152796)" x="39.965625" y="847.152796">80</text>
     </g>
    </g>
    <g id="ytick_5">
     <g id="line2d_12">
      <g>
       <use style="stroke:#000000;stroke-width:0.8;" x="46.965625" xlink:href="#me2bd0faf4e" y="538.508145"/>
      </g>
     </g>
     <g id="text_13">
      <text style="font-family:DejaVu Sans;font-size:10px;font-stretch:normal;font-style:normal;font-weight:normal;text-anchor:end;" transform="rotate(-0, 39.965625, 542.307364)" x="39.965625" y="542.307364">100</text>
     </g>
    </g>
    <g id="text_14">
     <text style="font-family:DejaVu Sans;font-size:10px;font-stretch:normal;font-style:normal;font-weight:normal;text-anchor:middle;" transform="rotate(-90, 14.798437, 1165.72)" x="14.798437" y="1165.72">ping[ms]</text>
    </g>
   </g>
   <g id="line2d_13">
    <path clip-path="url(#p16f3f1f1bb)" d="M 128.129261 1941.315369 
L 155.328393 1867.786651 
L 181.351318 1939.989291 
L 207.962346 1358.328965 
L 234.573375 1528.554654 
L 261.184403 1586.383833 
L 269.832987 1636.546149 
L 287.795431 1746.671561 
L 299.820955 1668.326285 
L 314.40646 1857.482875 
L 316.003121 1868.335373 
L 340.17924 1887.814996 
L 341.017488 1408.597977 
L 348.170532 1909.306599 
L 363.07803 1762.584492 
L 367.628516 1435.073803 
L 380.524221 1932.627274 
L 394.239545 1902.630484 
L 409.500969 1917.339276 
L 414.807208 1530.277031 
L 417.510889 1614.460097 
L 420.850573 1582.923837 
L 437.535688 1502.414158 
L 441.636447 1915.251085 
L 445.425857 1642.963145 
L 447.461601 1609.24724 
L 448.97843 1950.094918 
L 453.861553 1939.211936 
L 456.690306 1861.720227 
L 458.832494 1696.753121 
L 468.923395 1954.07315 
L 474.072629 1519.607441 
L 480.134622 1890.131821 
L 481.555651 1945.888051 
L 489.081249 1560.883512 
L 492.697688 1702.17937 
L 493.892523 1918.208085 
L 496.955453 1951.299057 
L 498.320598 1796.711938 
L 500.345698 1936.209208 
L 500.683658 1589.843828 
L 503.805131 1958.203806 
L 503.911576 1847.910729 
L 505.691853 1510.233444 
L 506.008525 1474.078776 
L 510.127912 1848.85575 
L 511.187031 1964.224503 
L 516.610358 1915.144389 
L 519.803682 1861.232474 
L 525.426592 1935.172734 
L 527.294686 1386.024173 
L 530.597115 1876.444261 
L 532.718014 1895.177013 
L 541.85358 1949.622407 
L 542.681183 1924.655566 
L 542.742388 1504.532834 
L 542.859477 1618.285907 
L 545.416796 1611.914638 
L 550.504825 1921.500416 
L 550.648525 1384.637126 
L 553.905714 1576.583052 
L 555.393271 1651.437848 
L 556.23684 1842.911264 
L 560.864498 1793.785422 
L 560.920381 1849.434956 
L 562.72727 1643.862439 
L 563.517618 1598.730073 
L 564.374493 1874.6914 
L 569.643477 1947.884788 
L 570.888873 1195.709169 
L 570.942095 1893.027853 
L 575.013582 1949.835799 
L 578.095139 1696.067219 
L 580.516743 1753.850671 
L 583.265662 1870.454048 
L 587.081683 1000.074613 
L 590.168563 1842.941748 
L 590.176546 1944.729638 
L 596.137416 1913.467739 
L 596.72552 1615.786175 
L 605.60562 1930.020846 
L 607.127771 1470.466357 
L 613.799156 1715.592569 
L 617.809438 1889.506888 
L 619.571088 1499.441915 
L 621.327416 1753.652521 
L 625.82468 1336.364852 
L 626.418105 1743.394472 
L 627.815184 1901.121499 
L 628.77052 1844.908001 
L 629.190975 1256.099049 
L 633.696222 1935.431852 
L 633.738799 1724.295906 
L 640.580495 1953.844516 
L 643.544963 1893.317456 
L 646.256627 1525.003205 
L 647.211963 1860.074061 
L 652.268058 1879.629896 
L 659.971951 1876.383292 
L 660.349828 1638.939185 
L 662.561204 1647.657765 
L 667.619961 1654.379606 
L 667.896715 1852.056627 
L 668.19742 1946.314834 
L 668.703029 1972.12 
L 669.466766 1931.865161 
L 669.62111 1495.280775 
L 669.66901 1891.259749 
L 669.727554 1829.086523 
L 671.726042 1929.395913 
L 676.13549 1435.805432 
L 677.404836 1927.383933 
L 682.716397 1898.758947 
L 685.079456 1916.165621 
L 686.960856 1349.351267 
L 690.007819 1718.168513 
L 692.054207 1932.474852 
L 701.104618 1958.112352 
L 704.486879 1853.565612 
L 705.082966 1932.779697 
L 713.571884 1884.964691 
L 716.389992 1936.925595 
L 719.460905 1756.502826 
L 720.586551 1910.556465 
L 721.986291 1706.584387 
L 727.406958 1769.565453 
L 730.861069 1925.737768 
L 731.414579 1711.50764 
L 734.498797 1819.118078 
L 735.387605 1660.324092 
L 737.162561 1414.999731 
L 737.173205 1939.547266 
L 740.182913 1571.080592 
L 740.318629 1898.316921 
L 758.664272 1889.415434 
L 760.487127 1364.029575 
L 764.026394 1932.794939 
L 764.494748 1917.064915 
L 764.702314 1781.073368 
L 765.937066 1937.855373 
L 766.793941 1359.106321 
L 771.972447 1771.882278 
L 774.050768 1696.189157 
L 776.506966 1951.92399 
L 783.942088 1445.545243 
L 784.032565 1452.526204 
L 793.404969 1769.717875 
L 797.931505 1930.676264 
L 800.576641 1471.335167 
L 802.708185 1485.723871 
L 803.506516 1579.098027 
L 805.435815 1690.488548 
L 806.588073 1862.771944 
L 814.483565 1461.930685 
L 815.997732 1810.719586 
L 819.486438 1732.90779 
L 820.015998 1276.371271 
L 830.234632 1788.877411 
L 834.550941 1945.705143 
L 834.990023 1655.339869 
L 837.305183 1923.07037 
L 840.120629 1840.563954 
L 841.629475 1677.029622 
L 846.627026 1688.811898 
L 852.300497 1669.027429 
L 853.825309 1680.763978 
L 871.037322 1782.963409 
L 873.238054 1623.07198 
L 876.67886 1814.255793 
L 877.76459 1615.786175 
L 882.341687 1940.903828 
L 883.645627 1702.667123 
L 883.65095 1718.473358 
L 885.401955 1787.962875 
L 885.447194 1698.216379 
L 888.076364 1410.335596 
L 891.298959 1587.892818 
L 894.242139 1919.671343 
L 896.567943 1935.61476 
L 899.849083 1727.512025 
L 900.032699 1911.882543 
L 902.773635 1877.84655 
L 903.398994 1879.172628 
L 908.258167 1932.840666 
L 913.335552 1707.407469 
L 917.231406 1710.486408 
L 921.473204 1741.291039 
L 926.031673 1853.01689 
L 926.058284 1396.785216 
L 926.460111 1858.3212 
L 927.692201 1933.038816 
L 935.659543 1826.678244 
L 937.179033 1685.67199 
L 938.514907 1492.201836 
L 941.314387 1936.468327 
L 946.41306 1784.960147 
L 950.596314 1916.485709 
L 953.071139 1353.619103 
L 955.516693 1819.087593 
L 967.347956 1778.085883 
L 975.086443 1790.157762 
L 978.535232 1941.422065 
L 979.682167 1040.817205 
L 980.570976 1948.43351 
L 989.977974 1647.505342 
L 992.011057 1967.501592 
L 998.139577 1554.237882 
L 998.277954 1930.112299 
L 1000.712863 1408.476039 
L 1001.205167 1943.007261 
L 1003.549599 1891.656048 
L 1004.233502 1918.147116 
L 1006.130869 1864.35714 
L 1006.293196 1624.794357 
L 1013.536718 1555.015238 
L 1018.167037 1605.009889 
L 1027.382436 1728.746649 
L 1028.079645 1901.792159 
L 1029.141425 1899.38388 
L 1032.904224 1615.054546 
L 1035.738299 1903.88035 
L 1054.92485 1855.379442 
L 1057.532731 1954.74381 
L 1059.515252 1502.368432 
L 1061.875651 1935.599517 
L 1068.02812 1636.95769 
L 1069.709937 1836.692417 
L 1071.554082 1916.927735 
L 1073.249204 1952.503196 
L 1077.198281 1916.42474 
L 1077.397863 1937.398105 
L 1082.815869 1843.185625 
L 1083.696694 1938.861363 
L 1086.091686 1942.016514 
L 1086.126281 1744.187071 
L 1086.940578 1909.71814 
L 1089.966252 1961.099838 
L 1105.102605 1686.982825 
L 1105.467176 1948.692629 
L 1106.773778 1827.044059 
L 1112.737309 1760.75542 
L 1113.524995 1588.395813 
L 1115.291968 1737.663378 
L 1120.709973 1572.254247 
L 1122.39179 1755.984589 
L 1125.047571 1385.353513 
L 1128.091872 1827.729961 
L 1131.538001 1890.406182 
L 1136.256136 1941.025766 
L 1139.348337 1587.557488 
L 1146.613148 1939.684446 
L 1148.302948 1864.722954 
L 1149.532378 1884.339758 
L 1151.645294 1907.934794 
L 1155.408093 1523.997215 
L 1157.236271 1644.014862 
L 1159.407731 1566.309761 
L 1160.456205 1928.420407 
L 1161.180025 1921.972926 
L 1165.959366 1315.833512 
L 1190.082263 1505.279706 
L 1192.032851 1944.821092 
L 1192.570394 1560.944481 
L 1192.738043 1881.291304 
L 1195.196902 1612.752963 
L 1195.69719 1933.709476 
L 1197.094269 1854.967901 
L 1201.65806 1951.710598 
L 1210.314628 1901.167226 
L 1210.950631 1583.609739 
L 1215.187107 1914.275579 
L 1216.310092 1622.508016 
L 1219.181422 1595.955979 
L 1219.878631 1931.25547 
L 1221.720114 1946.391046 
L 1223.08526 1904.718675 
L 1228.338277 1942.854839 
L 1231.736505 1645.401908 
L 1233.136246 1951.375268 
L 1235.459388 1949.744345 
L 1240.643217 1943.418803 
L 1242.883865 1804.226378 
L 1245.792451 1309.507969 
L 1246.883503 1555.960259 
L 1253.714554 1918.863503 
L 1261.120403 1789.700494 
L 1264.164705 1968.675247 
L 1266.027477 1904.794886 
L 1271.653048 1945.628932 
L 1272.403479 1537.395172 
L 1276.682532 1921.05839 
L 1278.162105 1936.590265 
L 1288.567018 1867.222687 
L 1288.952877 1873.578714 
L 1291.592691 1934.974584 
L 1293.508686 1947.320824 
L 1298.945319 1859.616793 
L 1299.062407 1208.177348 
L 1300.235953 1841.021222 
L 1300.549964 1899.475334 
L 1304.738539 1708.504913 
L 1307.671075 1914.824301 
L 1307.910574 1959.499399 
L 1315.861949 1927.536356 
L 1316.734791 1940.842859 
L 1317.903015 1941.041008 
L 1319.84562 1905.191185 
L 1325.625536 1624.596208 
L 1327.812962 1666.024702 
L 1332.515131 1934.761192 
L 1337.153433 1923.344731 
L 1338.204569 1923.710545 
L 1342.755055 1930.371418 
L 1346.076111 1759.170224 
L 1347.018141 1960.002394 
L 1352.236564 1128.902293 
L 1354.588979 1690.671455 
L 1355.059994 1920.966937 
L 1355.592215 1933.587537 
L 1366.963107 1563.185095 
L 1374.036318 1905.419819 
L 1378.621398 1815.200814 
L 1378.847592 1624.352331 
L 1381.215974 1884.675088 
L 1381.729567 1906.151449 
L 1385.26085 1581.369125 
L 1386.599385 1791.453355 
L 1386.892106 1603.775265 
L 1387.411021 1938.495549 
L 1387.605282 1655.553261 
L 1390.721433 1851.584116 
L 1391.477186 1722.924102 
L 1397.20388 1692.073744 
L 1401.400439 1889.964156 
L 1401.818232 1956.389976 
L 1402.80284 1861.826923 
L 1403.925825 1827.150755 
L 1405.458621 1109.803727 
L 1407.028671 1935.599517 
L 1407.057943 1921.881473 
L 1408.580094 1849.953193 
L 1411.967678 1819.453408 
L 1413.101308 1934.517316 
L 1417.510755 1955.185836 
L 1419.530532 1890.451909 
L 1420.025497 1962.334462 
L 1427.686812 1489.991707 
L 1429.584179 1875.544967 
L 1430.161638 1918.665354 
L 1430.172283 1421.813026 
L 1430.882797 1899.658241 
L 1432.069649 1637.689319 
L 1432.790808 1934.822161 
L 1433.676955 1871.566734 
L 1433.985643 1894.171023 
L 1437.168322 1938.510791 
L 1439.132216 1686.632253 
L 1439.712336 1928.252742 
L 1441.99024 1956.28328 
L 1442.067412 1801.696161 
L 1448.579131 1934.181986 
L 1452.113075 1944.302854 
L 1452.834234 1813.646102 
L 1454.446863 1849.404471 
L 1454.843367 1935.096522 
L 1456.573084 1904.276649 
L 1458.680677 1492.537166 
L 1460.194845 1724.737932 
L 1460.516838 1950.902758 
L 1462.470088 1888.058872 
L 1462.768131 1943.007261 
L 1463.119397 1867.9848 
L 1463.390829 1955.338259 
L 1464.963541 1230.613971 
L 1467.954621 1913.604919 
L 1469.375649 1902.904845 
L 1470.275102 1776.836016 
L 1478.612337 1904.322376 
L 1479.024808 1969.559298 
L 1481.733811 1961.496137 
L 1482.992513 946.43706 
L 1483.367728 1939.211936 
L 1484.55458 1533.843722 
L 1485.291705 359.32 
L 1485.462016 1875.179153 
L 1491.521347 1964.361684 
L 1491.638436 1904.35286 
L 1492.080179 1924.625082 
L 1492.859882 1918.543415 
L 1492.910443 1583.594497 
L 1493.849812 1525.094659 
L 1494.536377 1782.338476 
L 1497.764294 1848.124121 
L 1500.654252 1641.164557 
L 1509.579591 1764.855591 
L 1509.912229 1965.215251 
L 1511.530179 1285.42518 
L 1511.902734 836.433586 
L 1514.824625 1935.447095 
L 1519.098356 1948.189634 
L 1521.490687 1941.955545 
L 1521.727525 1956.115615 
L 1523.481192 1915.266327 
L 1524.276862 1953.768305 
L 1525.490325 1919.275044 
L 1526.41905 1901.822643 
L 1527.512763 1835.290128 
L 1527.669768 1940.24841 
L 1530.639559 1945.461267 
L 1530.865753 1840.929768 
L 1534.072381 1856.903669 
L 1535.583888 1961.907678 
L 1537.776637 1850.227554 
L 1537.851148 1740.666106 
L 1538.513762 1333.819392 
L 1538.673428 1894.262477 
L 1539.421198 1949.515711 
L 1539.458454 1856.141555 
L 1540.17429 1948.067695 
L 1545.052092 1720.729215 
L 1549.541372 1805.064703 
L 1552.998145 1936.056785 
L 1553.022095 1577.741465 
L 1554.105164 1919.747555 
L 1557.615158 1936.239693 
L 1560.103289 1884.629361 
L 1561.931467 1909.946774 
L 1565.12479 1557.271094 
L 1565.337679 1938.76991 
L 1566.428731 1665.323557 
L 1567.072718 1881.977206 
L 1567.894998 1950.003464 
L 1569.060562 1930.859171 
L 1571.157511 1953.875001 
L 1574.470584 1955.201079 
L 1575.343425 1937.321894 
L 1575.614858 1935.660486 
L 1576.288117 1894.994106 
L 1577.355219 1971.266433 
L 1579.976405 1934.730708 
L 1585.354494 1562.163863 
L 1587.600465 1939.013786 
L 1591.735819 1012.314158 
L 1593.393686 1914.961482 
L 1595.682234 1924.259267 
L 1597.427918 1936.864626 
L 1599.319962 1952.640377 
L 1600.557375 1961.572348 
L 1601.395622 1944.257128 
L 1603.620304 1886.900459 
L 1605.501704 1946.482499 
L 1607.556075 1958.691559 
L 1607.691791 1961.130322 
L 1608.112246 1690.381852 
L 1614.472281 1864.890619 
L 1615.21739 1942.26039 
L 1618.346847 1143.489147 
L 1619.025428 1956.816759 
L 1627.570229 1940.766647 
L 1629.802895 1908.956027 
L 1631.961049 1948.753598 
L 1638.579212 1945.888051 
L 1640.583022 1933.983836 
L 1642.04929 1907.538495 
L 1643.781668 1912.370295 
L 1643.890773 1880.071922 
L 1644.957875 1352.079634 
L 1647.483262 1930.737233 
L 1647.547128 1927.917412 
L 1647.871783 1786.606312 
L 1648.872358 1947.579943 
L 1655.251021 1348.070916 
L 1655.408026 1770.540958 
L 1656.621489 1916.150379 
L 1657.339987 1899.04855 
L 1658.013246 1853.565612 
L 1659.78554 1941.269642 
L 1660.416222 1786.164287 
L 1662.201822 1927.490629 
L 1666.845446 1927.56684 
L 1671.568904 1717.132038 
L 1672.824944 1948.616417 
L 1673.908013 1944.622942 
L 1681.843422 1942.59572 
L 1687.884125 1918.345266 
L 1689.941158 1945.27836 
L 1690.93641 1556.082197 
L 1696.0271 1840.823072 
L 1698.179932 1615.603267 
L 1699.893682 1954.865749 
L 1712.494004 1860.394149 
L 1724.79096 1573.01636 
L 1728.923653 1904.048015 
L 1751.401989 1453.364528 
L 1751.401989 1453.364528 
" style="fill:none;stroke:#0000ff;stroke-linecap:square;stroke-width:1.5;"/>
   </g>
   <g id="patch_3">
    <path d="M 46.965625 2052.76 
L 46.965625 278.68 
" style="fill:none;stroke:#000000;stroke-linecap:square;stroke-linejoin:miter;stroke-width:0.8;"/>
   </g>
   <g id="patch_4">
    <path d="M 1832.565625 2052.76 
L 1832.565625 278.68 
" style="fill:none;stroke:#000000;stroke-linecap:square;stroke-linejoin:miter;stroke-width:0.8;"/>
   </g>
   <g id="patch_5">
    <path d="M 46.965625 2052.76 
L 1832.565625 2052.76 
" style="fill:none;stroke:#000000;stroke-linecap:square;stroke-linejoin:miter;stroke-width:0.8;"/>
   </g>
   <g id="patch_6">
    <path d="M 46.965625 278.68 
L 1832.565625 278.68 
" style="fill:none;stroke:#000000;stroke-linecap:square;stroke-linejoin:miter;stroke-width:0.8;"/>
   </g>
   <g id="text_15">
    <text style="font-family:DejaVu Sans;font-size:12px;font-stretch:normal;font-style:normal;font-weight:normal;text-anchor:middle;" transform="rotate(-0, 939.765625, 272.68)" x="939.765625" y="272.68">humidity-&gt;ping</text>
   </g>
  </g>
  <g id="legend_1">
   <g id="patch_7">
    <path d="M 1981.6 22.678125 
L 2058.165625 22.678125 
Q 2060.165625 22.678125 2060.165625 20.678125 
L 2060.165625 7 
Q 2060.165625 5 2058.165625 5 
L 1981.6 5 
Q 1979.6 5 1979.6 7 
L 1979.6 20.678125 
Q 1979.6 22.678125 1981.6 22.678125 
z
" style="fill:#ffffff;opacity:0.8;stroke:#cccccc;stroke-linejoin:miter;"/>
   </g>
   <g id="line2d_14">
    <path d="M 1983.6 13.098437 
L 2003.6 13.098437 
" style="fill:none;stroke:#0000ff;stroke-linecap:square;stroke-width:1.5;"/>
   </g>
   <g id="line2d_15"/>
   <g id="text_16">
    <text style="font-family:DejaVu Sans;font-size:10px;font-stretch:normal;font-style:normal;font-weight:normal;text-anchor:start;" transform="rotate(-0, 2011.6, 16.598437)" x="2011.6" y="16.598437">ping[ms]</text>
   </g>
  </g>
 </g>
 <defs>
  <clipPath id="p16f3f1f1bb">
   <rect height="1774.08" width="1785.6" x="46.965625" y="278.68"/>
  </clipPath>
 </defs>
</svg>
