<?xml version="1.0" encoding="utf-8" standalone="no"?>
<!DOCTYPE svg PUBLIC "-//W3C//DTD SVG 1.1//EN"
  "http://www.w3.org/Graphics/SVG/1.1/DTD/svg11.dtd">
<!-- Created with matplotlib (https://matplotlib.org/) -->
<svg height="2090.594375pt" version="1.1" viewBox="0 0 2058.803125 2090.594375" width="2058.803125pt" xmlns="http://www.w3.org/2000/svg" xmlns:xlink="http://www.w3.org/1999/xlink">
 <metadata>
  <rdf:RDF xmlns:cc="http://creativecommons.org/ns#" xmlns:dc="http://purl.org/dc/elements/1.1/" xmlns:rdf="http://www.w3.org/1999/02/22-rdf-syntax-ns#">
   <cc:Work>
    <dc:type rdf:resource="http://purl.org/dc/dcmitype/StillImage"/>
    <dc:date>2022-07-24T11:33:23.721751</dc:date>
    <dc:format>image/svg+xml</dc:format>
    <dc:creator>
     <cc:Agent>
      <dc:title>Matplotlib v3.3.2, https://matplotlib.org/</dc:title>
     </cc:Agent>
    </dc:creator>
   </cc:Work>
  </rdf:RDF>
 </metadata>
 <defs>
  <style type="text/css">*{stroke-linecap:butt;stroke-linejoin:round;}</style>
 </defs>
 <g id="figure_1">
  <g id="patch_1">
   <path d="M 0 2090.594375 
L 2058.803125 2090.594375 
L 2058.803125 0 
L 0 0 
z
" style="fill:#ffffff;"/>
  </g>
  <g id="axes_1">
   <g id="patch_2">
    <path d="M 40.603125 2052.76 
L 1826.203125 2052.76 
L 1826.203125 278.68 
L 40.603125 278.68 
z
" style="fill:#ffffff;"/>
   </g>
   <g id="matplotlib.axis_1">
    <g id="xtick_1">
     <g id="line2d_1">
      <defs>
       <path d="M 0 0 
L 0 3.5 
" id="me34617e7cf" style="stroke:#000000;stroke-width:0.8;"/>
      </defs>
      <g>
       <use style="stroke:#000000;stroke-width:0.8;" x="68.657047" xlink:href="#me34617e7cf" y="2052.76"/>
      </g>
     </g>
     <g id="text_1">
      <text style="font-family:DejaVu Sans;font-size:10px;font-stretch:normal;font-style:normal;font-weight:normal;text-anchor:middle;" transform="rotate(-0, 68.657047, 2067.358437)" x="68.657047" y="2067.358437">1005.0</text>
     </g>
    </g>
    <g id="xtick_2">
     <g id="line2d_2">
      <g>
       <use style="stroke:#000000;stroke-width:0.8;" x="282.809122" xlink:href="#me34617e7cf" y="2052.76"/>
      </g>
     </g>
     <g id="text_2">
      <text style="font-family:DejaVu Sans;font-size:10px;font-stretch:normal;font-style:normal;font-weight:normal;text-anchor:middle;" transform="rotate(-0, 282.809122, 2067.358437)" x="282.809122" y="2067.358437">1007.5</text>
     </g>
    </g>
    <g id="xtick_3">
     <g id="line2d_3">
      <g>
       <use style="stroke:#000000;stroke-width:0.8;" x="496.961196" xlink:href="#me34617e7cf" y="2052.76"/>
      </g>
     </g>
     <g id="text_3">
      <text style="font-family:DejaVu Sans;font-size:10px;font-stretch:normal;font-style:normal;font-weight:normal;text-anchor:middle;" transform="rotate(-0, 496.961196, 2067.358437)" x="496.961196" y="2067.358437">1010.0</text>
     </g>
    </g>
    <g id="xtick_4">
     <g id="line2d_4">
      <g>
       <use style="stroke:#000000;stroke-width:0.8;" x="711.113271" xlink:href="#me34617e7cf" y="2052.76"/>
      </g>
     </g>
     <g id="text_4">
      <text style="font-family:DejaVu Sans;font-size:10px;font-stretch:normal;font-style:normal;font-weight:normal;text-anchor:middle;" transform="rotate(-0, 711.113271, 2067.358437)" x="711.113271" y="2067.358437">1012.5</text>
     </g>
    </g>
    <g id="xtick_5">
     <g id="line2d_5">
      <g>
       <use style="stroke:#000000;stroke-width:0.8;" x="925.265346" xlink:href="#me34617e7cf" y="2052.76"/>
      </g>
     </g>
     <g id="text_5">
      <text style="font-family:DejaVu Sans;font-size:10px;font-stretch:normal;font-style:normal;font-weight:normal;text-anchor:middle;" transform="rotate(-0, 925.265346, 2067.358437)" x="925.265346" y="2067.358437">1015.0</text>
     </g>
    </g>
    <g id="xtick_6">
     <g id="line2d_6">
      <g>
       <use style="stroke:#000000;stroke-width:0.8;" x="1139.417421" xlink:href="#me34617e7cf" y="2052.76"/>
      </g>
     </g>
     <g id="text_6">
      <text style="font-family:DejaVu Sans;font-size:10px;font-stretch:normal;font-style:normal;font-weight:normal;text-anchor:middle;" transform="rotate(-0, 1139.417421, 2067.358437)" x="1139.417421" y="2067.358437">1017.5</text>
     </g>
    </g>
    <g id="xtick_7">
     <g id="line2d_7">
      <g>
       <use style="stroke:#000000;stroke-width:0.8;" x="1353.569496" xlink:href="#me34617e7cf" y="2052.76"/>
      </g>
     </g>
     <g id="text_7">
      <text style="font-family:DejaVu Sans;font-size:10px;font-stretch:normal;font-style:normal;font-weight:normal;text-anchor:middle;" transform="rotate(-0, 1353.569496, 2067.358437)" x="1353.569496" y="2067.358437">1020.0</text>
     </g>
    </g>
    <g id="xtick_8">
     <g id="line2d_8">
      <g>
       <use style="stroke:#000000;stroke-width:0.8;" x="1567.721571" xlink:href="#me34617e7cf" y="2052.76"/>
      </g>
     </g>
     <g id="text_8">
      <text style="font-family:DejaVu Sans;font-size:10px;font-stretch:normal;font-style:normal;font-weight:normal;text-anchor:middle;" transform="rotate(-0, 1567.721571, 2067.358437)" x="1567.721571" y="2067.358437">1022.5</text>
     </g>
    </g>
    <g id="xtick_9">
     <g id="line2d_9">
      <g>
       <use style="stroke:#000000;stroke-width:0.8;" x="1781.873646" xlink:href="#me34617e7cf" y="2052.76"/>
      </g>
     </g>
     <g id="text_9">
      <text style="font-family:DejaVu Sans;font-size:10px;font-stretch:normal;font-style:normal;font-weight:normal;text-anchor:middle;" transform="rotate(-0, 1781.873646, 2067.358437)" x="1781.873646" y="2067.358437">1025.0</text>
     </g>
    </g>
    <g id="text_10">
     <text style="font-family:DejaVu Sans;font-size:10px;font-stretch:normal;font-style:normal;font-weight:normal;text-anchor:middle;" transform="rotate(-0, 933.403125, 2081.036562)" x="933.403125" y="2081.036562">air_pressure from Foreca</text>
    </g>
   </g>
   <g id="matplotlib.axis_2">
    <g id="ytick_1">
     <g id="line2d_10">
      <defs>
       <path d="M 0 0 
L -3.5 0 
" id="me94cf6b2df" style="stroke:#000000;stroke-width:0.8;"/>
      </defs>
      <g>
       <use style="stroke:#000000;stroke-width:0.8;" x="40.603125" xlink:href="#me94cf6b2df" y="1957.428006"/>
      </g>
     </g>
     <g id="text_11">
      <text style="font-family:DejaVu Sans;font-size:10px;font-stretch:normal;font-style:normal;font-weight:normal;text-anchor:end;" transform="rotate(-0, 33.603125, 1961.227225)" x="33.603125" y="1961.227225">5</text>
     </g>
    </g>
    <g id="ytick_2">
     <g id="line2d_11">
      <g>
       <use style="stroke:#000000;stroke-width:0.8;" x="40.603125" xlink:href="#me94cf6b2df" y="1685.35405"/>
      </g>
     </g>
     <g id="text_12">
      <text style="font-family:DejaVu Sans;font-size:10px;font-stretch:normal;font-style:normal;font-weight:normal;text-anchor:end;" transform="rotate(-0, 33.603125, 1689.153268)" x="33.603125" y="1689.153268">10</text>
     </g>
    </g>
    <g id="ytick_3">
     <g id="line2d_12">
      <g>
       <use style="stroke:#000000;stroke-width:0.8;" x="40.603125" xlink:href="#me94cf6b2df" y="1413.280093"/>
      </g>
     </g>
     <g id="text_13">
      <text style="font-family:DejaVu Sans;font-size:10px;font-stretch:normal;font-style:normal;font-weight:normal;text-anchor:end;" transform="rotate(-0, 33.603125, 1417.079312)" x="33.603125" y="1417.079312">15</text>
     </g>
    </g>
    <g id="ytick_4">
     <g id="line2d_13">
      <g>
       <use style="stroke:#000000;stroke-width:0.8;" x="40.603125" xlink:href="#me94cf6b2df" y="1141.206137"/>
      </g>
     </g>
     <g id="text_14">
      <text style="font-family:DejaVu Sans;font-size:10px;font-stretch:normal;font-style:normal;font-weight:normal;text-anchor:end;" transform="rotate(-0, 33.603125, 1145.005355)" x="33.603125" y="1145.005355">20</text>
     </g>
    </g>
    <g id="ytick_5">
     <g id="line2d_14">
      <g>
       <use style="stroke:#000000;stroke-width:0.8;" x="40.603125" xlink:href="#me94cf6b2df" y="869.13218"/>
      </g>
     </g>
     <g id="text_15">
      <text style="font-family:DejaVu Sans;font-size:10px;font-stretch:normal;font-style:normal;font-weight:normal;text-anchor:end;" transform="rotate(-0, 33.603125, 872.931399)" x="33.603125" y="872.931399">25</text>
     </g>
    </g>
    <g id="ytick_6">
     <g id="line2d_15">
      <g>
       <use style="stroke:#000000;stroke-width:0.8;" x="40.603125" xlink:href="#me94cf6b2df" y="597.058223"/>
      </g>
     </g>
     <g id="text_16">
      <text style="font-family:DejaVu Sans;font-size:10px;font-stretch:normal;font-style:normal;font-weight:normal;text-anchor:end;" transform="rotate(-0, 33.603125, 600.857442)" x="33.603125" y="600.857442">30</text>
     </g>
    </g>
    <g id="ytick_7">
     <g id="line2d_16">
      <g>
       <use style="stroke:#000000;stroke-width:0.8;" x="40.603125" xlink:href="#me94cf6b2df" y="324.984267"/>
      </g>
     </g>
     <g id="text_17">
      <text style="font-family:DejaVu Sans;font-size:10px;font-stretch:normal;font-style:normal;font-weight:normal;text-anchor:end;" transform="rotate(-0, 33.603125, 328.783485)" x="33.603125" y="328.783485">35</text>
     </g>
    </g>
    <g id="text_18">
     <text style="font-family:DejaVu Sans;font-size:10px;font-stretch:normal;font-style:normal;font-weight:normal;text-anchor:middle;" transform="rotate(-90, 14.798438, 1165.72)" x="14.798438" y="1165.72">ping[ms]</text>
    </g>
   </g>
   <g id="line2d_17">
    <path clip-path="url(#pf00549e460)" d="M 121.766761 1911.393093 
L 122.62337 1915.528617 
L 123.479978 1933.866402 
L 124.336586 1728.069661 
L 125.193195 1790.701086 
L 126.049803 1742.924899 
L 126.906411 1719.961857 
L 127.763019 1835.15797 
L 128.619628 1809.583018 
L 129.476236 1891.803768 
L 130.332844 1839.184665 
L 131.189453 1828.519366 
L 132.046061 1877.873581 
L 132.902669 1727.688757 
L 133.759278 1841.415671 
L 134.615886 1864.650787 
L 135.472494 1571.735965 
L 136.329102 1913.134366 
L 137.185711 1920.589193 
L 138.042319 1748.311963 
L 138.898927 1920.806852 
L 139.755536 1903.448533 
L 140.612144 1906.114858 
L 141.468752 1913.243196 
L 142.325361 1918.140527 
L 143.181969 1909.053257 
L 144.038577 1932.288373 
L 144.895185 1950.571743 
L 145.751794 1949.809936 
L 146.608402 1937.784267 
L 147.46501 1910.413627 
L 148.321619 1932.832521 
L 149.178227 1933.703157 
L 150.034835 1934.138476 
L 150.891444 1909.815064 
L 151.748052 1937.02246 
L 152.60466 1952.47626 
L 153.461268 1899.313009 
L 154.317877 1905.625125 
L 156.031093 1944.531701 
L 156.887702 1923.690836 
L 157.74431 1734.599436 
L 158.600918 1934.519379 
L 159.457527 1929.730878 
L 160.314135 1890.824302 
L 161.170743 1907.257569 
L 162.027351 1944.259627 
L 162.88396 1915.909521 
L 163.740568 1910.848945 
L 164.597176 1948.503981 
L 165.453785 1930.002952 
L 166.310393 1925.160035 
L 168.02361 1947.415685 
L 168.880218 1942.736013 
L 169.736826 1940.232932 
L 170.593434 1935.063527 
L 172.306651 1941.919791 
L 173.163259 1899.421839 
L 174.019868 1912.481389 
L 174.876476 1931.200077 
L 176.589693 1935.009112 
L 177.446301 1922.548125 
L 179.159517 1434.229788 
L 180.872734 1876.676456 
L 181.729342 1901.326356 
L 183.442559 1932.506032 
L 184.299167 1928.207263 
L 186.012384 1918.194942 
L 187.7256 1917.433135 
L 188.582209 1919.337652 
L 192.008642 1936.587141 
L 192.86525 1919.065578 
L 194.578467 1924.234984 
L 195.435075 1939.797614 
L 196.291683 1945.130264 
L 197.148292 1924.398228 
L 198.861508 1904.101511 
L 199.718117 1934.737038 
L 200.574725 1957.210347 
L 201.431333 1925.976257 
L 202.287942 1912.807877 
L 203.14455 1932.94135 
L 204.001158 1928.098434 
L 204.857766 1954.544022 
L 205.714375 1886.307874 
L 207.427591 1902.305823 
L 209.140808 1912.590218 
L 210.854024 1871.017318 
L 211.710633 1927.173382 
L 212.567241 1923.201103 
L 214.280458 1939.579955 
L 215.137066 1900.183646 
L 216.850283 1901.761675 
L 217.706891 1943.878723 
L 218.563499 1874.935183 
L 220.276716 1933.866402 
L 221.133324 1782.157963 
L 221.989932 1932.016299 
L 222.846541 1922.276051 
L 223.703149 1935.825334 
L 224.559757 1907.311984 
L 225.416366 1920.752437 
L 226.272974 1914.549151 
L 227.129582 1918.467016 
L 227.98619 1921.24217 
L 228.842799 1921.514244 
L 229.699407 1928.424923 
L 231.412624 1873.030665 
L 233.12584 1914.984469 
L 233.982449 1919.718556 
L 234.839057 1893.218553 
L 235.695665 1898.007054 
L 236.552273 1792.932092 
L 237.408882 1820.792465 
L 238.26549 1831.675424 
L 239.122098 1877.873581 
L 239.978707 1883.097401 
L 240.835315 1817.255504 
L 241.691923 1868.024504 
L 242.548532 1880.81198 
L 243.40514 1874.064546 
L 244.261748 1868.623067 
L 245.118356 1894.796582 
L 245.974965 1858.284257 
L 246.831573 1919.174408 
L 247.688181 1919.664141 
L 248.54479 1816.8746 
L 249.401398 1936.315067 
L 250.258006 1857.903353 
L 251.114615 1897.082003 
L 251.971223 1872.105614 
L 254.541048 1916.616913 
L 255.397656 1777.260632 
L 256.254264 1906.985495 
L 257.967481 1900.891038 
L 258.824089 1959.713428 
L 259.680698 1862.963929 
L 261.393914 1837.280147 
L 262.250522 1932.614862 
L 263.107131 1922.112807 
L 264.820347 1908.019376 
L 266.533564 1911.882826 
L 267.390172 1856.216494 
L 268.246781 1948.61281 
L 269.103389 1945.619997 
L 269.959997 1922.929029 
L 270.816605 1961.890019 
L 271.673214 1941.538887 
L 272.529822 1933.975231 
L 273.38643 1922.221636 
L 274.243039 1905.67954 
L 275.099647 1941.266813 
L 275.956255 1956.720614 
L 276.812864 1917.215476 
L 277.669472 1899.421839 
L 278.52608 1955.197 
L 280.239297 1953.94546 
L 281.095905 1925.160035 
L 281.952513 1935.226771 
L 283.66573 1949.265788 
L 284.522338 1467.096322 
L 285.378947 1923.799665 
L 286.235555 1929.948537 
L 287.948771 1948.068662 
L 288.80538 1931.68981 
L 289.661988 1911.991656 
L 290.518596 1945.565582 
L 291.375205 1953.782215 
L 292.231813 1907.366398 
L 293.088421 1945.511167 
L 294.801638 1932.886935 
L 295.658246 1911.719582 
L 296.514854 1910.957775 
L 297.371463 1961.56353 
L 299.084679 1865.902327 
L 299.941288 1914.494736 
L 300.797896 1917.433135 
L 301.654504 1957.917739 
L 302.511113 1747.767815 
L 303.367721 1953.83663 
L 304.224329 1936.968045 
L 305.937546 1694.931053 
L 306.794154 1923.527591 
L 307.650762 1942.463939 
L 309.363979 1801.638459 
L 310.220587 1936.859215 
L 311.933804 1930.764759 
L 312.790412 1844.35407 
L 314.503629 1954.489608 
L 315.360237 1918.303771 
L 316.216845 1934.464964 
L 318.78667 1910.685701 
L 319.643279 1296.016218 
L 320.499887 1907.257569 
L 321.356495 1921.024511 
L 323.069712 1605.255477 
L 323.92632 1933.267839 
L 324.782928 1920.806852 
L 326.496145 1529.999821 
L 327.352753 1944.85819 
L 328.209362 1923.201103 
L 329.922578 1299.934083 
L 330.779186 1907.638472 
L 331.635795 1945.130264 
L 332.492403 1454.907408 
L 333.349011 1878.689803 
L 334.20562 1947.633344 
L 335.062228 1789.395131 
L 335.918836 1927.71753 
L 336.775445 1951.932112 
L 337.632053 1723.879722 
L 339.345269 1903.06763 
L 340.201878 1931.961884 
L 342.771703 1358.212324 
L 343.628311 1923.96291 
L 344.484919 1940.069688 
L 345.341527 1554.432062 
L 347.054744 1924.996791 
L 348.767961 1923.636421 
L 349.624569 1933.159009 
L 350.481177 1941.049154 
L 352.194394 1916.997816 
L 353.051002 1923.364347 
L 353.90761 1579.517281 
L 354.764219 1905.625125 
L 355.620827 1931.635395 
L 356.477435 1880.376662 
L 358.190652 1953.727801 
L 359.04726 1920.262704 
L 360.760477 1935.444431 
L 361.617085 1948.177492 
L 364.18691 1954.380778 
L 365.043518 1944.150797 
L 366.756735 1815.133327 
L 368.469952 1923.255517 
L 369.32656 1952.802749 
L 370.183168 1930.655929 
L 371.039776 1944.096382 
L 372.752993 1864.759617 
L 374.46621 1917.215476 
L 376.179426 1936.587141 
L 377.036035 1924.833546 
L 378.749251 1964.501929 
L 380.462468 1752.393073 
L 381.319076 1948.068662 
L 382.175684 1897.136418 
L 383.888901 1931.961884 
L 384.745509 1752.284243 
L 385.602118 1954.054289 
L 386.458726 1953.999874 
L 388.171942 1764.092253 
L 389.885159 1914.712395 
L 390.741767 1822.152835 
L 392.454984 1954.271948 
L 393.311592 1673.110722 
L 394.168201 1918.847919 
L 395.881417 1806.807864 
L 397.594634 1878.472144 
L 399.30785 1673.54604 
L 400.164459 1908.29145 
L 401.877675 1800.169259 
L 403.590892 1859.807871 
L 404.4475 1853.55017 
L 405.304108 1950.027595 
L 407.017325 1865.412594 
L 407.873933 1914.603566 
L 409.58715 1875.044012 
L 410.443758 1918.303771 
L 411.300367 1926.955723 
L 412.156975 1881.301713 
L 413.870191 1939.035807 
L 414.7268 1883.478305 
L 415.583408 1920.806852 
L 417.296625 1937.566608 
L 418.153233 1938.274 
L 419.86645 1029.166081 
L 421.579666 1928.316093 
L 422.436274 1907.203154 
L 423.292883 1932.778106 
L 425.006099 1835.593289 
L 426.719316 1441.249296 
L 428.432533 1889.736006 
L 430.145749 1812.739076 
L 431.002357 1921.895148 
L 431.858966 1849.795549 
L 432.715574 1897.245247 
L 433.572182 1906.550176 
L 434.428791 1897.571736 
L 435.285399 1839.511154 
L 436.142007 1942.790427 
L 436.998616 1888.321221 
L 438.711832 1874.989597 
L 440.425049 1889.736006 
L 441.281657 1928.152849 
L 442.138265 1889.028614 
L 442.994874 1761.534758 
L 443.851482 1887.559414 
L 444.70809 1934.029646 
L 445.564699 1866.065572 
L 446.421307 1929.839707 
L 447.277915 1543.712348 
L 448.134523 1918.249357 
L 448.991132 1774.757552 
L 449.84774 1554.105573 
L 450.704348 1908.944427 
L 451.560957 1887.559414 
L 452.417565 1753.535783 
L 453.274173 1935.498845 
L 454.98739 1864.814032 
L 456.700606 1895.2319 
L 457.557215 1960.692894 
L 458.413823 1793.204166 
L 459.270431 1859.481382 
L 460.12704 1840.109716 
L 461.840256 1878.20007 
L 463.553473 1864.814032 
L 465.266689 1888.266807 
L 466.979906 1851.536822 
L 468.693123 1853.713414 
L 469.549731 1954.707267 
L 470.406339 1839.184665 
L 472.119556 1836.790414 
L 472.976164 1932.778106 
L 473.832772 1797.122031 
L 475.545989 1903.176459 
L 476.402597 1946.218559 
L 477.259206 1903.611778 
L 478.972422 1839.674398 
L 479.82903 1946.871537 
L 480.685639 1945.783241 
L 481.542247 1917.541964 
L 482.398855 1845.768855 
L 483.255464 1928.261678 
L 484.112072 1870.581999 
L 484.96868 1937.02246 
L 486.681897 1931.200077 
L 488.395113 1896.755514 
L 489.251722 1889.191858 
L 490.10833 1952.149772 
L 491.821547 1837.443391 
L 493.534763 1969.290431 
L 494.391372 1912.426974 
L 495.24798 1909.053257 
L 496.104588 1925.10562 
L 496.961196 1875.316086 
L 497.817805 1936.478312 
L 498.674413 1907.747302 
L 499.531021 1925.813013 
L 500.38763 1874.499864 
L 501.244238 1908.345865 
L 502.100846 1924.561472 
L 502.957455 1947.524514 
L 503.814063 1916.671328 
L 504.670671 1846.530662 
L 505.527279 1323.114784 
L 506.383888 1898.442373 
L 507.240496 1922.929029 
L 508.097104 1926.901308 
L 508.953713 1907.747302 
L 509.810321 1931.200077 
L 510.666929 1942.627183 
L 511.523538 1906.550176 
L 512.380146 1532.992634 
L 513.236754 1916.943402 
L 514.093362 1895.558389 
L 514.949971 1911.284263 
L 515.806579 1897.84381 
L 516.663187 1866.827379 
L 517.519796 1875.316086 
L 518.376404 1831.675424 
L 519.233012 1850.502941 
L 520.089621 1927.445456 
L 520.946229 1885.763726 
L 521.802837 1810.780144 
L 522.659445 1901.380771 
L 523.516054 1803.488562 
L 524.372662 1887.722659 
L 525.22927 1922.548125 
L 526.942487 1904.264755 
L 527.799095 1955.686733 
L 528.655704 1942.083035 
L 529.512312 1900.782209 
L 530.36892 1886.253459 
L 531.225528 1850.611771 
L 532.082137 1838.314028 
L 532.938745 1848.598424 
L 533.795353 1927.227797 
L 534.651962 1903.557363 
L 535.50857 1863.181588 
L 536.365178 1904.591244 
L 537.221787 1893.272967 
L 538.078395 1870.092266 
L 538.935003 1878.526559 
L 539.791611 1936.91363 
L 540.64822 1753.916687 
L 541.504828 1866.228816 
L 542.361436 1833.090208 
L 543.218045 1650.474168 
L 544.074653 1862.855099 
L 544.931261 1882.498839 
L 545.78787 1896.320196 
L 546.644478 1723.281159 
L 547.501086 1923.255517 
L 548.357694 1772.853034 
L 549.214303 1819.758584 
L 550.070911 1915.746276 
L 550.927519 1913.079951 
L 551.784128 1891.640524 
L 552.640736 1848.489594 
L 553.497344 1827.648729 
L 554.353953 1875.69699 
L 555.210561 359.32 
L 556.923777 1869.493704 
L 557.780386 1710.602513 
L 559.493602 1855.563517 
L 560.350211 1865.467009 
L 561.206819 1822.533739 
L 562.063427 1855.672347 
L 562.920036 1922.058392 
L 563.776644 1925.486524 
L 564.633252 1892.783234 
L 565.48986 1520.586062 
L 566.346469 1943.552235 
L 567.203077 1890.878717 
L 568.059685 1924.833546 
L 568.916294 1913.352025 
L 569.772902 1738.027568 
L 570.62951 1925.486524 
L 571.486119 1845.442366 
L 572.342727 1941.484472 
L 573.199335 1914.440321 
L 574.055943 1869.548118 
L 574.912552 1838.314028 
L 575.76916 1892.674405 
L 576.625768 1891.749353 
L 577.482377 1898.224713 
L 578.338985 1901.979334 
L 579.195593 1864.215469 
L 580.90881 1913.40644 
L 581.765418 1905.353051 
L 582.622026 1876.241138 
L 583.478635 1791.898211 
L 584.335243 1831.512179 
L 585.191851 1887.178511 
L 586.04846 1929.458804 
L 586.905068 1835.212385 
L 587.761676 1886.253459 
L 588.618285 1883.859208 
L 589.474893 1814.48035 
L 590.331501 1825.853041 
L 591.188109 1895.449559 
L 592.044718 1947.143611 
L 592.901326 1865.467009 
L 593.757934 1717.023458 
L 594.614543 1836.083022 
L 595.471151 1882.988572 
L 596.327759 1896.320196 
L 597.184368 1925.160035 
L 598.040976 1739.932085 
L 598.897584 1898.877691 
L 599.754192 1939.144636 
L 600.610801 1909.869479 
L 601.467409 1902.741141 
L 602.324017 1743.469047 
L 603.180626 1874.010131 
L 604.037234 1890.661057 
L 604.893842 1827.267826 
L 605.75045 1931.472151 
L 606.607059 1871.507051 
L 607.463667 1875.044012 
L 608.320275 1925.377694 
L 610.033492 1794.401292 
L 610.8901 1919.065578 
L 611.746709 1771.111761 
L 612.603317 1891.477279 
L 613.459925 1906.495762 
L 614.316533 1917.705209 
L 615.173142 1856.270909 
L 616.02975 1835.2668 
L 616.886358 1863.616906 
L 617.742967 1817.201089 
L 618.599575 1891.36845 
L 619.456183 1915.963935 
L 620.312792 1893.925945 
L 621.1694 1831.076861 
L 622.026008 1872.377688 
L 622.882616 1867.208282 
L 623.739225 1857.250376 
L 624.595833 1857.903353 
L 625.452441 1862.093292 
L 626.30905 1910.631286 
L 627.165658 1913.950588 
L 628.022266 1896.537855 
L 628.878875 1845.660025 
L 629.735483 1894.252434 
L 630.592091 1867.915675 
L 631.448699 1912.426974 
L 632.305308 1801.4208 
L 633.161916 1873.465983 
L 634.018524 1902.360238 
L 634.875133 1778.294513 
L 635.731741 1920.317119 
L 636.588349 1860.950581 
L 637.444958 1911.229849 
L 638.301566 1929.567633 
L 639.158174 1936.315067 
L 640.014782 1747.93106 
L 640.871391 1896.918758 
L 641.727999 1915.419787 
L 642.584607 1893.000893 
L 643.441216 1909.978308 
L 644.297824 1796.251394 
L 645.154432 1915.855106 
L 646.011041 1818.670288 
L 646.867649 1794.564536 
L 647.724257 1773.886915 
L 648.580865 1845.823269 
L 649.437474 1907.910546 
L 650.294082 1865.630253 
L 651.15069 1879.832514 
L 652.007299 1865.630253 
L 652.863907 1396.193849 
L 653.720515 1690.958773 
L 654.577124 1809.583018 
L 655.433732 1867.317112 
L 656.29034 1860.188774 
L 657.146948 1698.576844 
L 658.003557 1884.457771 
L 658.860165 1858.556331 
L 659.716773 1839.946472 
L 660.573382 1626.259586 
L 661.42999 1555.085039 
L 662.286598 1877.002945 
L 663.143207 1798.427986 
L 663.999815 1831.893083 
L 664.856423 1877.111774 
L 665.713031 1867.480356 
L 666.56964 1898.932106 
L 667.426248 1903.666193 
L 668.282856 1842.395137 
L 669.139465 1718.383828 
L 669.996073 1712.72469 
L 670.852681 1881.682617 
L 671.70929 1890.769887 
L 672.565898 1862.691855 
L 673.422506 1900.020401 
L 674.279114 1888.75654 
L 675.135723 1515.79756 
L 675.992331 1476.020348 
L 676.848939 1901.108697 
L 678.562156 1863.399247 
L 679.418764 1860.732922 
L 680.275373 1841.306842 
L 681.131981 1919.228823 
L 681.988589 1804.195954 
L 682.845197 1861.222655 
L 683.701806 1689.652818 
L 684.558414 1826.723678 
L 685.415022 1922.330466 
L 686.271631 1555.465943 
L 687.128239 1874.608694 
L 687.984847 1850.067623 
L 688.841456 1922.49371 
L 689.698064 1841.143597 
L 690.554672 1882.498839 
L 691.41128 1787.980346 
L 692.267889 1911.338678 
L 693.124497 1887.940318 
L 693.981105 1908.128205 
L 694.837714 1914.549151 
L 695.694322 1912.318144 
L 696.55093 1901.217527 
L 697.407539 1605.799625 
L 698.264147 1890.552228 
L 699.120755 1901.979334 
L 699.977363 1901.59843 
L 700.833972 1896.37461 
L 701.69058 1573.04192 
L 702.547188 1931.526566 
L 703.403797 1899.20418 
L 704.260405 1895.558389 
L 705.117013 1906.060443 
L 705.973622 1897.898225 
L 706.83023 1818.23497 
L 707.686838 1806.100472 
L 708.543446 1765.833526 
L 709.400055 1704.725715 
L 710.256663 1784.606629 
L 711.113271 1840.327375 
L 711.96988 1769.860221 
L 712.826488 1774.920796 
L 713.683096 1795.544002 
L 714.539705 1840.599449 
L 715.396313 1829.172343 
L 716.252921 1836.681584 
L 717.109529 1880.703151 
L 717.966138 1898.496787 
L 718.822746 1850.82943 
L 719.679354 1792.605603 
L 720.535963 1550.8951 
L 721.392571 1847.510128 
L 722.249179 1454.852994 
L 723.105788 1784.878703 
L 723.962396 1876.730871 
L 724.819004 1876.730871 
L 725.675612 1793.367411 
L 726.532221 1850.720601 
L 727.388829 1815.73189 
L 728.245437 1785.422851 
L 729.102046 1521.13021 
L 729.958654 1355.056266 
L 730.815262 1797.938253 
L 731.671871 1873.955716 
L 732.528479 1666.635362 
L 733.385087 1916.399254 
L 734.241695 1785.586095 
L 735.098304 1593.773956 
L 735.954912 1752.012169 
L 736.81152 1792.823263 
L 737.668129 1525.156904 
L 738.524737 1740.911552 
L 739.381345 1676.593268 
L 740.237953 1800.006015 
L 741.094562 1886.525533 
L 741.95117 1563.029599 
L 742.807778 1631.428992 
L 743.664387 1761.534758 
L 744.520995 1488.590164 
L 745.377603 1628.817082 
L 746.234212 1906.169273 
L 747.09082 1732.640503 
L 747.947428 1869.330459 
L 748.804036 1338.786244 
L 749.660645 1706.575818 
L 750.517253 1550.350952 
L 751.373861 1901.544016 
L 752.23047 1278.54907 
L 753.087078 1741.34687 
L 753.943686 1339.275977 
L 754.800295 1827.050166 
L 755.656903 1647.699014 
L 756.513511 1331.92998 
L 757.370119 1876.023479 
L 758.226728 1907.311984 
L 759.083336 1464.103508 
L 759.939944 1851.047089 
L 760.796553 1651.39922 
L 761.653161 1841.905404 
L 762.509769 1882.770913 
L 763.366378 1878.091241 
L 764.222986 1894.742167 
L 765.079594 1897.626151 
L 765.936202 1698.576844 
L 766.792811 1732.096355 
L 767.649419 1856.05325 
L 768.506027 1297.811906 
L 769.362636 1768.227777 
L 770.219244 1873.846887 
L 771.075852 1421.87763 
L 771.932461 1908.563524 
L 772.789069 1856.270909 
L 773.645677 1073.405307 
L 774.502285 1806.481375 
L 775.358894 1904.264755 
L 776.215502 1522.27292 
L 777.07211 1658.799632 
L 777.928719 1919.337652 
L 778.785327 1828.410536 
L 779.641935 1916.780157 
L 780.498544 1081.785184 
L 781.355152 1851.427993 
L 782.21176 1299.281105 
L 783.924977 1827.485485 
L 784.781585 1900.836623 
L 785.638193 1900.074816 
L 786.494802 1844.027581 
L 787.35141 1911.501922 
L 788.208018 1392.820132 
L 789.064627 1666.145628 
L 789.921235 1902.523482 
L 790.777843 1717.676436 
L 791.634451 1849.088157 
L 792.49106 1462.035746 
L 793.347668 1905.298636 
L 794.204276 1847.891031 
L 795.060885 1599.106605 
L 795.917493 1539.359165 
L 796.774101 1677.51832 
L 797.63071 1898.768861 
L 798.487318 1014.147599 
L 799.343926 1478.469013 
L 800.200534 1860.950581 
L 801.057143 1678.334542 
L 801.913751 1696.237008 
L 802.770359 1742.271921 
L 803.626968 1548.772924 
L 804.483576 1856.379739 
L 805.340184 1390.970029 
L 806.196793 1463.124042 
L 807.053401 1395.159968 
L 807.910009 1883.151816 
L 808.766617 1729.212372 
L 809.623226 1732.640503 
L 810.479834 1651.834538 
L 811.336442 1771.166176 
L 812.193051 1809.1477 
L 813.049659 1877.220604 
L 813.906267 1815.786305 
L 814.762876 1621.41667 
L 815.619484 1721.594301 
L 816.476092 1586.31913 
L 817.3327 1881.628202 
L 818.189309 1250.579867 
L 819.045917 1835.321215 
L 819.902525 1781.341742 
L 820.759134 1879.66927 
L 821.615742 1898.496787 
L 822.47235 1586.427959 
L 823.328959 1658.146654 
L 824.185567 1790.86433 
L 825.042175 1658.255484 
L 825.898783 1845.170292 
L 826.755392 1871.289392 
L 827.612 1863.88898 
L 828.468608 1865.086105 
L 829.325217 1839.728813 
L 830.181825 1864.596372 
L 831.038433 1884.185697 
L 831.895042 1704.072738 
L 832.75165 1895.667218 
L 833.608258 1903.176459 
L 835.321475 1588.386892 
L 836.178083 1796.741128 
L 837.034691 1786.565562 
L 837.8913 1778.076854 
L 838.747908 1622.613795 
L 839.604516 1810.39924 
L 840.461125 1885.219578 
L 841.317733 1844.734974 
L 842.174341 1904.264755 
L 843.030949 1874.826353 
L 843.887558 1883.260646 
L 844.744166 1654.772937 
L 845.600774 1888.430051 
L 846.457383 1899.748328 
L 847.313991 1933.975231 
L 848.170599 1907.366398 
L 849.027208 1904.645659 
L 849.883816 1896.48344 
L 850.740424 1880.213417 
L 851.597032 1870.527585 
L 852.453641 1922.820199 
L 853.310249 1917.977283 
L 854.166857 1940.232932 
L 855.023466 1420.081942 
L 855.880074 1879.070707 
L 856.736682 1908.18262 
L 857.593291 1911.066604 
L 858.449899 1912.209315 
L 859.306507 1914.65798 
L 860.163115 1901.544016 
L 861.019724 1898.551202 
L 861.876332 1764.146668 
L 862.73294 1808.875626 
L 863.589549 1862.256536 
L 864.446157 1902.414652 
L 865.302765 1537.345817 
L 866.159374 1899.530668 
L 867.015982 1849.57789 
L 867.87259 1736.612783 
L 869.585807 1897.245247 
L 870.442415 1896.429025 
L 871.299023 1868.242163 
L 872.155632 1827.267826 
L 873.01224 1868.677482 
L 873.868848 1926.248331 
L 874.725456 1847.945446 
L 875.582065 1876.186723 
L 876.438673 1845.007047 
L 877.295281 1859.481382 
L 878.15189 1850.230867 
L 879.008498 1777.315047 
L 879.865106 1830.750372 
L 880.721715 1910.032723 
L 881.578323 1906.441347 
L 882.434931 1866.337646 
L 883.291539 1797.33969 
L 884.148148 1911.012189 
L 885.004756 1908.509109 
L 885.861364 1737.048101 
L 886.717973 1884.67543 
L 887.574581 1917.106646 
L 888.431189 1853.658999 
L 889.287798 1911.066604 
L 890.144406 1915.038884 
L 891.001014 1858.828404 
L 891.857622 1917.37872 
L 892.714231 1863.943395 
L 893.570839 1855.073784 
L 894.427447 1903.775022 
L 895.284056 1939.035807 
L 896.140664 1843.973166 
L 896.997272 1943.008087 
L 897.853881 1828.954684 
L 898.710489 1837.062488 
L 899.567097 1923.799665 
L 900.423705 1950.680572 
L 901.280314 1881.356128 
L 902.136922 1880.050173 
L 902.99353 1915.528617 
L 903.850139 1785.314021 
L 904.706747 1881.519372 
L 905.563355 1939.253466 
L 906.419964 1857.957768 
L 907.276572 1951.496794 
L 908.13318 1942.409524 
L 908.989788 1858.175427 
L 909.846397 1624.681557 
L 910.703005 1950.898231 
L 911.559613 1807.025523 
L 912.416222 1919.500897 
L 913.27283 1724.206211 
L 914.129438 1953.292482 
L 914.986047 1857.41362 
L 915.842655 1904.645659 
L 916.699263 1925.21445 
L 917.555871 1879.233951 
L 918.41248 1925.867427 
L 919.269088 1895.286315 
L 920.125696 1895.612803 
L 920.982305 1688.455693 
L 921.838913 1932.342788 
L 922.695521 1915.800691 
L 923.55213 1920.425948 
L 924.408738 1927.71753 
L 925.265346 1375.407398 
L 926.121954 1687.85713 
L 926.978563 1924.833546 
L 927.835171 1912.1549 
L 928.691779 1931.635395 
L 929.548388 1928.696997 
L 930.404996 1928.152849 
L 931.261604 1867.915675 
L 932.118213 1818.180555 
L 932.974821 1832.219572 
L 933.831429 1861.766803 
L 934.688037 1838.912591 
L 935.544646 1879.66927 
L 936.401254 1859.481382 
L 937.257862 1731.443378 
L 938.114471 1850.82943 
L 938.971079 1894.524508 
L 939.827687 1901.108697 
L 940.684296 1838.803761 
L 941.540904 1873.139495 
L 942.397512 1881.954691 
L 943.25412 1854.584051 
L 944.110729 1852.897192 
L 944.967337 1844.408485 
L 945.823945 1876.785286 
L 946.680554 1889.681591 
L 947.537162 1847.292469 
L 948.39377 1891.096376 
L 949.250379 1823.45879 
L 950.106987 1875.805819 
L 950.963595 1911.665167 
L 951.820203 1879.66927 
L 952.676812 1786.837636 
L 953.53342 1786.728806 
L 954.390028 1875.152842 
L 956.103245 1860.02553 
L 956.959853 1886.090215 
L 957.816462 1600.575805 
L 958.67307 1868.405408 
L 959.529678 1878.363315 
L 960.386286 1493.54191 
L 961.242895 1846.748321 
L 962.099503 1895.395144 
L 962.956111 1753.318124 
L 963.81272 1557.860194 
L 965.525936 1932.125128 
L 966.382545 1893.545041 
L 967.239153 1875.261671 
L 968.095761 1827.158996 
L 968.952369 1871.670295 
L 969.808978 1866.664134 
L 971.522194 1879.125122 
L 972.378803 1870.690829 
L 973.235411 1881.519372 
L 974.948628 1705.977256 
L 975.805236 1881.900276 
L 976.661844 1819.976243 
L 977.518452 1808.331478 
L 978.375061 1913.569685 
L 979.231669 1801.039896 
L 980.088277 1820.95571 
L 980.944886 1802.835584 
L 982.658102 1915.038884 
L 983.514711 1548.881753 
L 984.371319 1913.460855 
L 985.227927 1880.050173 
L 986.084535 1841.524501 
L 986.941144 1934.519379 
L 987.797752 1355.219511 
L 988.65436 1903.448533 
L 989.510969 1808.440308 
L 990.367577 1804.848931 
L 991.224185 1933.648743 
L 992.080794 1190.070619 
L 992.937402 1927.391042 
L 994.650618 1935.934164 
L 995.507227 1936.695971 
L 996.363835 1879.179536 
L 997.220443 1910.468041 
L 998.93366 1877.438263 
L 999.790268 1961.944434 
L 1000.646876 1919.283238 
L 1001.503485 1866.337646 
L 1002.360093 1941.865376 
L 1003.216701 1917.215476 
L 1004.07331 1816.8746 
L 1004.929918 1903.122045 
L 1006.643135 1901.163112 
L 1007.499743 1924.779132 
L 1008.356351 1926.085087 
L 1009.212959 1928.860241 
L 1010.069568 1921.895148 
L 1010.926176 1874.44545 
L 1011.782784 1930.492685 
L 1012.639393 1884.240112 
L 1013.496001 1912.807877 
L 1015.209218 1917.596379 
L 1016.065826 1898.224713 
L 1017.779042 1950.898231 
L 1018.635651 1923.799665 
L 1019.492259 1919.555312 
L 1020.348867 1932.669276 
L 1021.205476 1938.16517 
L 1022.062084 1884.89309 
L 1022.918692 1935.716505 
L 1024.631909 1932.288373 
L 1025.488517 1925.377694 
L 1026.345125 1940.505006 
L 1027.201734 1907.148739 
L 1028.058342 1899.258594 
L 1028.91495 1922.874614 
L 1029.771559 1934.247305 
L 1030.628167 1931.79864 
L 1031.484775 1917.26989 
L 1032.341384 1932.125128 
L 1033.197992 1737.592249 
L 1034.0546 1958.625132 
L 1034.911208 1838.694932 
L 1035.767817 1849.088157 
L 1036.624425 1712.61586 
L 1037.481033 1863.181588 
L 1038.337642 1731.388963 
L 1039.19425 1910.141553 
L 1040.050858 1836.40951 
L 1040.907467 1801.475214 
L 1042.620683 1929.676463 
L 1043.477291 1899.313009 
L 1044.3339 1908.890012 
L 1045.190508 1921.623074 
L 1046.047116 1802.019362 
L 1046.903725 1925.21445 
L 1047.760333 1911.773996 
L 1048.616941 521.856982 
L 1049.47355 1908.726768 
L 1050.330158 1906.550176 
L 1051.186766 1886.688778 
L 1052.043374 1870.146681 
L 1052.899983 1923.092273 
L 1053.756591 1921.459829 
L 1054.613199 1877.710337 
L 1055.469808 1923.908495 
L 1056.326416 1881.954691 
L 1057.183024 1902.033749 
L 1058.039633 1911.882826 
L 1058.896241 1909.216501 
L 1059.752849 1882.716498 
L 1060.609457 1843.10253 
L 1061.466066 1290.13942 
L 1062.322674 1861.440314 
L 1063.179282 1946.436218 
L 1064.035891 1913.188781 
L 1064.892499 1935.226771 
L 1065.749107 1917.650794 
L 1066.605716 1930.819173 
L 1067.462324 1905.135392 
L 1069.17554 1911.338678 
L 1070.888757 1863.616906 
L 1071.745365 1910.195967 
L 1073.458582 1966.569691 
L 1074.31519 1823.894108 
L 1075.171799 1920.208289 
L 1076.885015 1830.369469 
L 1077.741623 1869.548118 
L 1078.598232 1882.117935 
L 1079.45484 1904.645659 
L 1080.311448 1828.410536 
L 1081.168057 1915.202128 
L 1082.024665 1921.840733 
L 1082.881273 1945.892071 
L 1083.737882 1910.576871 
L 1084.59449 1921.133341 
L 1085.451098 1897.952639 
L 1086.307706 1935.444431 
L 1087.164315 1935.444431 
L 1088.020923 1791.408478 
L 1088.877531 1946.164145 
L 1090.590748 1893.381797 
L 1091.447356 1940.722665 
L 1092.303965 1849.142572 
L 1093.160573 1915.746276 
L 1094.017181 1860.188774 
L 1094.873789 1825.254478 
L 1095.730398 1694.767809 
L 1096.587006 1531.577849 
L 1097.443614 1914.930054 
L 1099.156831 1940.613836 
L 1100.013439 1686.877664 
L 1100.870048 1874.826353 
L 1102.583264 1894.850996 
L 1103.439872 1917.596379 
L 1104.296481 1825.689797 
L 1105.153089 1891.422864 
L 1106.009697 1887.613829 
L 1106.866306 1812.467002 
L 1107.722914 1865.793498 
L 1108.579522 1824.547086 
L 1109.436131 1929.676463 
L 1110.292739 1922.384881 
L 1111.149347 1852.516289 
L 1112.005955 1891.967012 
L 1112.862564 1886.797607 
L 1113.719172 1924.996791 
L 1114.57578 1919.174408 
L 1115.432389 1851.591237 
L 1116.288997 1830.587128 
L 1117.145605 1865.412594 
L 1118.002214 1852.026556 
L 1118.858822 1914.984469 
L 1119.71543 1847.020395 
L 1120.572038 1831.240105 
L 1121.428647 1849.142572 
L 1122.285255 1411.375575 
L 1123.141863 1736.503954 
L 1123.998472 1901.326356 
L 1124.85508 1642.801683 
L 1126.568297 1811.977269 
L 1127.424905 1926.955723 
L 1128.281513 1685.081976 
L 1129.138121 1916.181595 
L 1129.99473 1769.152828 
L 1130.851338 1906.985495 
L 1131.707946 1932.94135 
L 1132.564555 1885.818141 
L 1133.421163 1749.237015 
L 1134.277771 1905.353051 
L 1135.134379 1870.690829 
L 1135.990988 1929.295559 
L 1136.847596 1888.538881 
L 1137.704204 1897.571736 
L 1138.560813 1937.240119 
L 1139.417421 1933.594328 
L 1140.274029 1924.071739 
L 1141.130638 1909.325331 
L 1141.987246 1911.882826 
L 1142.843854 1922.330466 
L 1143.700462 1871.126147 
L 1144.557071 1932.506032 
L 1145.413679 1879.778099 
L 1146.270287 1924.234984 
L 1147.983504 1779.437224 
L 1148.840112 1802.56351 
L 1149.696721 1903.502948 
L 1150.553329 1925.051206 
L 1151.409937 1938.981392 
L 1152.266545 1925.268865 
L 1153.123154 1882.444424 
L 1153.979762 1865.630253 
L 1154.83637 1869.820192 
L 1155.692979 1809.800677 
L 1156.549587 1924.942376 
L 1157.406195 1753.481368 
L 1158.262804 1919.174408 
L 1159.119412 1853.495755 
L 1159.97602 1894.143604 
L 1160.832628 1862.038877 
L 1161.689237 1931.58098 
L 1162.545845 1914.603566 
L 1163.402453 1811.65078 
L 1164.259062 1940.232932 
L 1165.11567 1934.41055 
L 1166.828887 1885.763726 
L 1167.685495 1904.536829 
L 1168.542103 1496.317065 
L 1169.398711 1903.230874 
L 1170.25532 1359.899183 
L 1171.111928 1350.10452 
L 1171.968536 1740.421819 
L 1173.681753 1942.24628 
L 1174.538361 1713.595326 
L 1175.39497 1901.870504 
L 1176.251578 1757.344819 
L 1177.108186 1907.910546 
L 1177.964794 1841.796575 
L 1179.678011 1759.52141 
L 1180.534619 1814.589179 
L 1181.391228 1599.16102 
L 1182.247836 1880.594321 
L 1183.104444 1887.940318 
L 1183.961053 1858.338671 
L 1184.817661 1804.413613 
L 1185.674269 1918.684675 
L 1186.530877 1898.98652 
L 1187.387486 1849.033742 
L 1188.244094 1921.840733 
L 1189.100702 1877.05736 
L 1189.957311 1804.359198 
L 1190.813919 1834.01526 
L 1191.670527 1900.510135 
L 1192.527136 1881.301713 
L 1193.383744 1911.719582 
L 1194.240352 1808.004989 
L 1195.09696 1878.145655 
L 1195.953569 1896.755514 
L 1196.810177 1866.119987 
L 1197.666785 1915.800691 
L 1198.523394 1887.885903 
L 1199.380002 1876.894115 
L 1200.23661 1912.753463 
L 1201.093219 1915.691861 
L 1201.949827 1870.309925 
L 1202.806435 1924.234984 
L 1203.663043 1943.38899 
L 1204.519652 1718.547072 
L 1205.37626 1863.99781 
L 1206.232868 1871.670295 
L 1207.089477 1777.532706 
L 1207.946085 1760.500877 
L 1208.802693 1722.138449 
L 1209.659302 1894.905411 
L 1210.51591 1777.423877 
L 1211.372518 1698.087111 
L 1212.229126 1776.226751 
L 1213.085735 1873.846887 
L 1213.942343 1882.009106 
L 1214.798951 1619.022419 
L 1215.65556 1709.024484 
L 1216.512168 1927.282212 
L 1217.368776 1856.978302 
L 1218.225385 1901.326356 
L 1219.081993 1836.790414 
L 1219.938601 1905.026562 
L 1220.795209 1919.228823 
L 1221.651818 1810.616899 
L 1222.508426 1869.820192 
L 1223.365034 1552.527544 
L 1224.221643 1779.001906 
L 1225.078251 1837.225732 
L 1225.934859 1956.775029 
L 1226.791468 1838.912591 
L 1227.648076 1841.470086 
L 1228.504684 1873.302739 
L 1229.361292 1839.674398 
L 1230.217901 1874.33662 
L 1231.074509 1822.805813 
L 1231.931117 1950.571743 
L 1232.787726 1652.052197 
L 1233.644334 1899.476254 
L 1234.500942 1717.676436 
L 1235.357551 1729.865349 
L 1236.214159 1873.302739 
L 1237.070767 1856.651813 
L 1237.927375 1446.74519 
L 1238.783984 1919.8818 
L 1239.640592 1920.970096 
L 1240.4972 1896.156951 
L 1241.353809 1953.891045 
L 1242.210417 1711.418735 
L 1243.067025 1832.001912 
L 1243.923634 1859.971115 
L 1244.780242 1936.641556 
L 1245.63685 1868.731896 
L 1246.493458 1842.884871 
L 1247.350067 1841.415671 
L 1248.206675 1786.239073 
L 1249.063283 1847.292469 
L 1249.919892 1889.518347 
L 1250.7765 1851.808896 
L 1251.633108 1771.873568 
L 1252.489717 1769.043999 
L 1253.346325 1842.667211 
L 1254.202933 1478.033695 
L 1255.059541 1825.472137 
L 1255.91615 1833.362282 
L 1256.772758 1890.062495 
L 1257.629366 1938.056341 
L 1258.485975 1884.348942 
L 1259.342583 1428.951553 
L 1260.199191 1907.311984 
L 1261.0558 1937.185704 
L 1261.912408 1922.058392 
L 1262.769016 1894.633337 
L 1263.625624 1774.703137 
L 1264.482233 1625.606609 
L 1265.338841 1890.171324 
L 1266.195449 1893.653871 
L 1267.052058 1881.682617 
L 1267.908666 1796.08815 
L 1268.765274 1888.75654 
L 1269.621882 1919.99063 
L 1270.478491 1883.53272 
L 1271.335099 1825.145649 
L 1272.191707 1926.520405 
L 1273.048316 1875.69699 
L 1273.904924 1841.089182 
L 1274.761532 1933.594328 
L 1275.618141 1679.694911 
L 1276.474749 1936.641556 
L 1277.331357 1879.125122 
L 1278.187965 1886.199045 
L 1279.044574 1815.242157 
L 1279.901182 1920.262704 
L 1280.75779 1937.131289 
L 1281.614399 1858.284257 
L 1282.471007 1940.341762 
L 1283.327615 1891.967012 
L 1284.184224 1920.317119 
L 1285.040832 1902.251408 
L 1285.89744 1583.924879 
L 1286.754048 1906.550176 
L 1287.610657 1915.419787 
L 1288.467265 1805.828398 
L 1289.323873 1895.667218 
L 1290.180482 1939.852029 
L 1291.03709 1842.503967 
L 1291.893698 1571.137403 
L 1292.750307 1945.347923 
L 1293.606915 1868.242163 
L 1294.463523 1949.755521 
L 1295.320131 1905.951614 
L 1296.17674 1825.526552 
L 1297.033348 1905.189807 
L 1297.889956 1523.578875 
L 1298.746565 1777.968025 
L 1299.603173 1919.174408 
L 1300.459781 1921.731903 
L 1301.31639 1890.715472 
L 1302.172998 1925.540939 
L 1303.029606 1938.709318 
L 1303.886214 1917.977283 
L 1304.742823 1934.30172 
L 1305.599431 1934.573794 
L 1306.456039 1921.24217 
L 1307.312648 1851.047089 
L 1308.169256 1932.016299 
L 1309.025864 1936.91363 
L 1309.882473 1918.684675 
L 1310.739081 1929.241144 
L 1311.595689 1907.856131 
L 1312.452297 1890.116909 
L 1313.308906 1907.257569 
L 1314.165514 1915.855106 
L 1315.022122 1713.540912 
L 1315.878731 1885.328408 
L 1316.735339 1852.135385 
L 1317.591947 1758.650774 
L 1318.448556 1879.886929 
L 1319.305164 1911.338678 
L 1320.161772 1827.703144 
L 1321.01838 1764.146668 
L 1321.874989 1890.280154 
L 1322.731597 1860.732922 
L 1323.588205 1862.093292 
L 1324.444814 1893.545041 
L 1325.301422 1869.330459 
L 1326.15803 1924.289398 
L 1327.014639 1924.180569 
L 1327.871247 1896.864344 
L 1328.727855 1861.712388 
L 1329.584463 1936.042993 
L 1330.441072 1902.632311 
L 1331.29768 1946.653878 
L 1332.154288 1862.147707 
L 1333.010897 1823.839694 
L 1333.867505 1900.129231 
L 1334.724113 1881.628202 
L 1335.580722 1901.271942 
L 1336.43733 1766.812992 
L 1337.293938 1904.21034 
L 1338.150546 1778.947491 
L 1339.007155 1896.918758 
L 1340.720371 1916.508083 
L 1341.57698 1893.545041 
L 1342.433588 1855.998835 
L 1343.290196 1888.375636 
L 1344.146805 1909.869479 
L 1345.003413 1708.589166 
L 1345.860021 1932.016299 
L 1346.716629 1897.245247 
L 1347.573238 1915.365373 
L 1348.429846 1853.713414 
L 1349.286454 1875.316086 
L 1350.143063 1927.445456 
L 1350.999671 1935.716505 
L 1351.856279 1937.784267 
L 1352.712888 1857.41362 
L 1353.569496 1936.042993 
L 1354.426104 1795.054269 
L 1355.282712 1896.809929 
L 1356.139321 1921.623074 
L 1356.995929 1865.412594 
L 1358.709146 1897.082003 
L 1359.565754 1932.397202 
L 1360.422362 1871.561466 
L 1361.278971 1827.757559 
L 1362.135579 1875.533745 
L 1362.992187 1905.189807 
L 1363.848795 1870.201096 
L 1364.705404 1696.835571 
L 1365.562012 1902.251408 
L 1366.41862 1866.881794 
L 1367.275229 1891.531694 
L 1368.131837 1845.877684 
L 1368.988445 1838.640517 
L 1369.845054 1888.430051 
L 1370.701662 1880.431077 
L 1371.55827 1866.772964 
L 1372.414878 1760.555291 
L 1373.271487 1915.637447 
L 1374.128095 1913.896173 
L 1374.984703 1913.569685 
L 1375.841312 1857.032716 
L 1376.69792 1848.054276 
L 1377.554528 1933.213424 
L 1378.411137 1804.903346 
L 1379.267745 1929.622048 
L 1380.124353 1906.223688 
L 1380.980961 1915.909521 
L 1381.83757 1905.951614 
L 1382.694178 1883.478305 
L 1383.550786 1801.638459 
L 1384.407395 1759.412581 
L 1385.264003 1926.738064 
L 1386.120611 1579.462866 
L 1386.97722 1669.464931 
L 1387.833828 1817.745237 
L 1388.690436 1833.471112 
L 1389.547044 1790.102523 
L 1390.403653 1880.267832 
L 1391.260261 1890.062495 
L 1392.116869 1929.567633 
L 1392.973478 1877.710337 
L 1393.830086 1888.974199 
L 1394.686694 1868.405408 
L 1395.543303 1796.360224 
L 1396.399911 1831.348935 
L 1397.256519 1840.925938 
L 1398.113127 1902.414652 
L 1398.969736 1774.594308 
L 1399.826344 1828.410536 
L 1400.682952 1827.703144 
L 1401.539561 1510.410496 
L 1402.396169 1850.122038 
L 1403.252777 1880.866395 
L 1404.109385 1896.48344 
L 1404.965994 1927.771945 
L 1405.822602 1813.228809 
L 1406.67921 1864.433128 
L 1407.535819 1675.940291 
L 1408.392427 1883.587135 
L 1409.249035 1907.420813 
L 1410.105644 1877.492678 
L 1410.962252 1892.837649 
L 1411.81886 1904.482414 
L 1412.675468 1862.147707 
L 1413.532077 1901.652845 
L 1414.388685 1691.82941 
L 1415.245293 1910.250382 
L 1416.101902 1911.229849 
L 1416.95851 1891.422864 
L 1417.815118 1737.265761 
L 1418.671727 1312.939218 
L 1419.528335 1773.886915 
L 1420.384943 1707.228796 
L 1421.241551 1845.061462 
L 1422.09816 1792.442359 
L 1422.954768 1758.868433 
L 1423.811376 1682.252407 
L 1424.667985 1866.50089 
L 1425.524593 1813.500883 
L 1426.381201 1804.195954 
L 1427.23781 1900.945453 
L 1428.094418 1739.9865 
L 1428.951026 1913.025537 
L 1429.807634 1329.263655 
L 1430.664243 1926.302746 
L 1431.520851 1354.403289 
L 1432.377459 1833.579941 
L 1433.234068 1384.657913 
L 1434.090676 1796.033735 
L 1434.947284 1801.529629 
L 1435.803893 1900.836623 
L 1436.660501 1848.489594 
L 1437.517109 1850.394112 
L 1438.373717 1914.168247 
L 1439.230326 1892.402331 
L 1440.086934 1482.005975 
L 1440.943542 1827.703144 
L 1441.800151 1898.279128 
L 1442.656759 1861.113826 
L 1443.513367 1755.76679 
L 1445.226584 1837.606636 
L 1446.083192 1817.854067 
L 1446.9398 1836.191851 
L 1448.653017 1258.252353 
L 1449.509625 1832.872549 
L 1450.366234 1873.792472 
L 1451.222842 1871.452636 
L 1452.07945 1806.971108 
L 1452.936059 1788.415664 
L 1453.792667 1850.992675 
L 1454.649275 1787.10971 
L 1455.505883 1806.154886 
L 1456.362492 1689.380744 
L 1457.2191 1865.521424 
L 1458.075708 1837.715465 
L 1458.932317 1817.527578 
L 1459.788925 1938.763733 
L 1460.645533 1921.895148 
L 1461.502142 1914.494736 
L 1462.35875 1864.215469 
L 1463.215358 1829.716491 
L 1464.071966 1801.529629 
L 1464.928575 1843.973166 
L 1465.785183 1902.196993 
L 1466.641791 1754.243176 
L 1467.4984 1807.78733 
L 1468.355008 1725.022433 
L 1469.211616 1910.957775 
L 1470.068225 1858.501916 
L 1470.924833 1783.409504 
L 1471.781441 1840.599449 
L 1472.638049 1588.604551 
L 1473.494658 1839.02142 
L 1474.351266 1841.796575 
L 1475.207874 1937.729852 
L 1476.064483 1919.827386 
L 1476.921091 1726.818121 
L 1477.777699 1692.754461 
L 1478.634308 1668.104561 
L 1479.490916 1819.758584 
L 1481.204132 1921.677488 
L 1482.060741 1778.838661 
L 1482.917349 1888.810954 
L 1483.773957 1688.401278 
L 1484.630566 1872.704176 
L 1485.487174 1887.994733 
L 1486.343782 1828.410536 
L 1487.200391 1862.963929 
L 1488.056999 1878.254485 
L 1488.913607 1876.785286 
L 1489.770215 1697.815037 
L 1490.626824 1873.683642 
L 1491.483432 1892.783234 
L 1493.196649 1654.609693 
L 1494.053257 1907.257569 
L 1494.909865 1894.905411 
L 1495.766474 1809.25653 
L 1496.623082 1816.003964 
L 1497.47969 1750.325311 
L 1498.336298 1794.618951 
L 1499.192907 1755.549131 
L 1500.049515 1903.720607 
L 1501.762732 1862.855099 
L 1502.61934 1870.636414 
L 1503.475948 1699.447481 
L 1504.332557 1719.580953 
L 1505.189165 1837.76988 
L 1506.045773 1775.791433 
L 1506.902381 1735.143584 
L 1507.75899 1882.117935 
L 1508.615598 1937.566608 
L 1509.472206 1575.164097 
L 1510.328815 1930.383855 
L 1512.042031 1800.169259 
L 1512.89864 1918.73909 
L 1513.755248 1800.931067 
L 1514.611856 1933.05018 
L 1515.468464 1918.303771 
L 1516.325073 1917.37872 
L 1517.181681 1917.868453 
L 1518.038289 1919.827386 
L 1518.894898 1809.310944 
L 1519.751506 1789.50396 
L 1520.608114 1932.233958 
L 1521.464723 1893.164138 
L 1523.177939 1702.16822 
L 1524.034547 1792.007041 
L 1524.891156 1798.264742 
L 1525.747764 1722.682597 
L 1526.604372 1854.257562 
L 1527.460981 1884.89309 
L 1528.317589 1833.960845 
L 1529.174197 1864.650787 
L 1530.030805 1645.304763 
L 1530.887414 1761.589172 
L 1531.744022 1906.550176 
L 1532.60063 1899.20418 
L 1533.457239 1922.656955 
L 1534.313847 1857.032716 
L 1535.170455 1768.60868 
L 1536.027064 1915.474202 
L 1536.883672 1899.20418 
L 1537.74028 1866.664134 
L 1538.596888 1880.485491 
L 1539.453497 1878.363315 
L 1540.310105 1829.716491 
L 1541.166713 1790.429012 
L 1542.023322 1862.365366 
L 1542.87993 1831.076861 
L 1543.736538 1914.331492 
L 1544.593147 1916.236009 
L 1545.449755 1874.717524 
L 1546.306363 1826.614848 
L 1547.162971 1918.194942 
L 1548.01958 1897.571736 
L 1548.876188 1903.230874 
L 1549.732796 1868.731896 
L 1550.589405 1905.733955 
L 1551.446013 1910.195967 
L 1553.15923 1932.397202 
L 1554.015838 1867.698015 
L 1554.872446 1641.223654 
L 1555.729054 1939.307881 
L 1556.585663 1895.449559 
L 1557.442271 1930.32944 
L 1558.298879 1938.274 
L 1559.155488 1933.376669 
L 1560.012096 1921.133341 
L 1560.868704 1893.436212 
L 1561.725313 1936.587141 
L 1562.581921 1903.448533 
L 1563.438529 1941.049154 
L 1564.295137 1881.900276 
L 1565.151746 1912.590218 
L 1566.008354 1895.12307 
L 1566.864962 1930.32944 
L 1567.721571 1759.52141 
L 1568.578179 1908.237035 
L 1569.434787 1958.897206 
L 1570.291396 1670.498812 
L 1571.148004 1955.958807 
L 1572.004612 1951.387965 
L 1572.86122 1954.870511 
L 1573.717829 1904.428 
L 1574.574437 1968.583039 
L 1575.431045 1944.259627 
L 1576.287654 1943.552235 
L 1577.144262 1907.910546 
L 1578.857479 1898.333543 
L 1579.714087 1857.359205 
L 1580.570695 1938.600489 
L 1581.427303 1945.184678 
L 1582.283912 1953.292482 
L 1583.14052 1876.404382 
L 1583.997128 1877.982411 
L 1584.853737 1933.648743 
L 1585.710345 1952.040942 
L 1586.566953 1837.661051 
L 1587.423562 1944.096382 
L 1588.28017 1943.933138 
L 1589.136778 1851.047089 
L 1589.993386 1927.499871 
L 1591.706603 1972.12 
L 1592.563211 1900.727794 
L 1594.276428 1951.496794 
L 1595.989645 1919.772971 
L 1598.559469 1939.41671 
L 1599.416078 1937.729852 
L 1600.272686 1952.965993 
L 1601.985903 1935.934164 
L 1603.699119 1940.831495 
L 1605.412336 1908.672353 
L 1607.982161 1929.404389 
L 1608.838769 1830.04298 
L 1610.551986 1961.890019 
L 1611.408594 1950.898231 
L 1612.265202 1932.342788 
L 1613.121811 1948.667225 
L 1613.978419 1929.404389 
L 1614.835027 1879.342781 
L 1615.691635 1952.421846 
L 1618.26146 1938.818148 
L 1619.118069 1787.817102 
L 1620.831285 1950.952646 
L 1621.687894 1912.753463 
L 1622.544502 1947.198026 
L 1623.40111 1952.47626 
L 1624.257718 1864.541958 
L 1625.970935 1952.965993 
L 1626.827543 1940.994739 
L 1627.684152 1903.720607 
L 1628.54076 1941.049154 
L 1630.253977 1958.842791 
L 1631.110585 1890.116909 
L 1631.967193 1937.294534 
L 1633.68041 1916.344839 
L 1634.537018 1900.945453 
L 1637.106843 1828.79144 
L 1637.963451 1937.893096 
L 1638.82006 1931.145662 
L 1639.676668 1965.64464 
L 1640.533276 1888.810954 
L 1642.246493 1953.782215 
L 1643.959709 1880.322247 
L 1644.816318 1961.019383 
L 1645.672926 1947.905418 
L 1646.529534 1902.849971 
L 1647.386143 1945.184678 
L 1649.099359 1896.755514 
L 1649.955967 1848.271935 
L 1651.669184 1882.879742 
L 1652.525792 858.57571 
L 1653.382401 1408.654836 
L 1654.239009 1851.101504 
L 1655.095617 1840.000887 
L 1655.952226 1894.578922 
L 1656.808834 1868.296578 
L 1657.665442 1794.72778 
L 1658.52205 1374.645591 
L 1659.378659 1872.377688 
L 1660.235267 1866.827379 
L 1661.091875 1864.541958 
L 1661.948484 1885.709311 
L 1662.805092 1829.988565 
L 1663.6617 1853.876658 
L 1664.518308 1894.306848 
L 1665.374917 1829.390002 
L 1666.231525 1834.178504 
L 1667.088133 1776.770899 
L 1667.944742 1796.632298 
L 1668.80135 1788.089176 
L 1669.657958 1922.221636 
L 1670.514567 1904.754488 
L 1671.371175 1922.221636 
L 1672.227783 1926.792479 
L 1673.084391 1927.445456 
L 1673.941 1933.811987 
L 1674.797608 1922.765784 
L 1675.654216 1910.250382 
L 1676.510825 1937.621022 
L 1677.367433 1938.382829 
L 1678.224041 1841.905404 
L 1679.08065 1941.375643 
L 1679.937258 1932.94135 
L 1680.793866 1914.385906 
L 1681.650474 1942.953672 
L 1682.507083 1905.788369 
L 1683.363691 1795.816076 
L 1684.220299 1936.8048 
L 1685.076908 1916.780157 
L 1685.933516 1930.982418 
L 1686.790124 1927.064553 
L 1687.646733 1918.031697 
L 1688.503341 1904.21034 
L 1689.359949 1029.329326 
L 1690.216557 1896.48344 
L 1691.073166 1895.395144 
L 1691.929774 1871.779125 
L 1692.786382 1916.888987 
L 1693.642991 1916.508083 
L 1694.499599 1940.940325 
L 1695.356207 1947.143611 
L 1696.212816 1943.38899 
L 1697.926032 1912.807877 
L 1698.78264 1901.544016 
L 1699.639249 1935.009112 
L 1700.495857 1907.03991 
L 1701.352465 1951.496794 
L 1702.209074 1939.63437 
L 1703.065682 1937.947511 
L 1703.92229 1937.893096 
L 1704.778899 1927.880775 
L 1705.635507 1915.038884 
L 1706.492115 1849.251401 
L 1707.348723 1941.593302 
L 1708.205332 1954.380778 
L 1709.06194 1937.240119 
L 1709.918548 1950.952646 
L 1710.775157 1930.166196 
L 1711.631765 1936.587141 
L 1712.488373 1959.713428 
L 1713.344982 1938.872563 
L 1714.20159 1930.32944 
L 1715.058198 1935.390016 
L 1715.914806 1939.41671 
L 1716.771415 1914.385906 
L 1717.628023 1903.720607 
L 1718.484631 1940.124103 
L 1719.34124 1956.176466 
L 1720.197848 1951.33355 
L 1721.054456 1933.811987 
L 1721.911065 1912.807877 
L 1722.767673 1952.639505 
L 1723.624281 1917.37872 
L 1724.480889 1933.975231 
L 1725.337498 1912.753463 
L 1726.194106 1940.178517 
L 1727.050714 1935.117942 
L 1727.907323 1905.135392 
L 1728.763931 1908.726768 
L 1729.620539 1902.795556 
L 1730.477148 1929.676463 
L 1731.333756 1893.000893 
L 1732.190364 1941.919791 
L 1733.046972 1951.387965 
L 1733.903581 1931.907469 
L 1734.760189 1917.977283 
L 1735.616797 1939.852029 
L 1736.473406 1944.803775 
L 1737.330014 1935.716505 
L 1738.186622 1945.565582 
L 1739.043231 1907.856131 
L 1739.899839 1947.687759 
L 1740.756447 1938.110755 
L 1741.613055 1949.265788 
L 1742.469664 1923.527591 
L 1743.326272 1947.633344 
L 1744.18288 1927.282212 
L 1745.039489 1943.171331 
L 1745.039489 1943.171331 
" style="fill:none;stroke:#0000ff;stroke-linecap:square;stroke-width:1.5;"/>
   </g>
   <g id="patch_3">
    <path d="M 40.603125 2052.76 
L 40.603125 278.68 
" style="fill:none;stroke:#000000;stroke-linecap:square;stroke-linejoin:miter;stroke-width:0.8;"/>
   </g>
   <g id="patch_4">
    <path d="M 1826.203125 2052.76 
L 1826.203125 278.68 
" style="fill:none;stroke:#000000;stroke-linecap:square;stroke-linejoin:miter;stroke-width:0.8;"/>
   </g>
   <g id="patch_5">
    <path d="M 40.603125 2052.76 
L 1826.203125 2052.76 
" style="fill:none;stroke:#000000;stroke-linecap:square;stroke-linejoin:miter;stroke-width:0.8;"/>
   </g>
   <g id="patch_6">
    <path d="M 40.603125 278.68 
L 1826.203125 278.68 
" style="fill:none;stroke:#000000;stroke-linecap:square;stroke-linejoin:miter;stroke-width:0.8;"/>
   </g>
   <g id="text_19">
    <text style="font-family:DejaVu Sans;font-size:12px;font-stretch:normal;font-style:normal;font-weight:normal;text-anchor:middle;" transform="rotate(-0, 933.403125, 272.68)" x="933.403125" y="272.68">air_pressure-&gt;ping</text>
   </g>
  </g>
  <g id="legend_1">
   <g id="patch_7">
    <path d="M 1975.2375 22.678125 
L 2051.803125 22.678125 
Q 2053.803125 22.678125 2053.803125 20.678125 
L 2053.803125 7 
Q 2053.803125 5 2051.803125 5 
L 1975.2375 5 
Q 1973.2375 5 1973.2375 7 
L 1973.2375 20.678125 
Q 1973.2375 22.678125 1975.2375 22.678125 
z
" style="fill:#ffffff;opacity:0.8;stroke:#cccccc;stroke-linejoin:miter;"/>
   </g>
   <g id="line2d_18">
    <path d="M 1977.2375 13.098437 
L 1997.2375 13.098437 
" style="fill:none;stroke:#0000ff;stroke-linecap:square;stroke-width:1.5;"/>
   </g>
   <g id="line2d_19"/>
   <g id="text_20">
    <text style="font-family:DejaVu Sans;font-size:10px;font-stretch:normal;font-style:normal;font-weight:normal;text-anchor:start;" transform="rotate(-0, 2005.2375, 16.598437)" x="2005.2375" y="16.598437">ping[ms]</text>
   </g>
  </g>
 </g>
 <defs>
  <clipPath id="pf00549e460">
   <rect height="1774.08" width="1785.6" x="40.603125" y="278.68"/>
  </clipPath>
 </defs>
</svg>
