<?xml version="1.0" encoding="utf-8" standalone="no"?>
<!DOCTYPE svg PUBLIC "-//W3C//DTD SVG 1.1//EN"
  "http://www.w3.org/Graphics/SVG/1.1/DTD/svg11.dtd">
<!-- Created with matplotlib (https://matplotlib.org/) -->
<svg height="2090.31625pt" version="1.1" viewBox="0 0 2058.803125 2090.31625" width="2058.803125pt" xmlns="http://www.w3.org/2000/svg" xmlns:xlink="http://www.w3.org/1999/xlink">
 <metadata>
  <rdf:RDF xmlns:cc="http://creativecommons.org/ns#" xmlns:dc="http://purl.org/dc/elements/1.1/" xmlns:rdf="http://www.w3.org/1999/02/22-rdf-syntax-ns#">
   <cc:Work>
    <dc:type rdf:resource="http://purl.org/dc/dcmitype/StillImage"/>
    <dc:date>2022-07-24T11:31:31.915922</dc:date>
    <dc:format>image/svg+xml</dc:format>
    <dc:creator>
     <cc:Agent>
      <dc:title>Matplotlib v3.3.2, https://matplotlib.org/</dc:title>
     </cc:Agent>
    </dc:creator>
   </cc:Work>
  </rdf:RDF>
 </metadata>
 <defs>
  <style type="text/css">*{stroke-linecap:butt;stroke-linejoin:round;}</style>
 </defs>
 <g id="figure_1">
  <g id="patch_1">
   <path d="M 0 2090.31625 
L 2058.803125 2090.31625 
L 2058.803125 0 
L 0 0 
z
" style="fill:#ffffff;"/>
  </g>
  <g id="axes_1">
   <g id="patch_2">
    <path d="M 40.603125 2052.76 
L 1826.203125 2052.76 
L 1826.203125 278.68 
L 40.603125 278.68 
z
" style="fill:#ffffff;"/>
   </g>
   <g id="matplotlib.axis_1">
    <g id="xtick_1">
     <g id="line2d_1">
      <defs>
       <path d="M 0 0 
L 0 3.5 
" id="m3605053c1b" style="stroke:#000000;stroke-width:0.8;"/>
      </defs>
      <g>
       <use style="stroke:#000000;stroke-width:0.8;" x="89.301307" xlink:href="#m3605053c1b" y="2052.76"/>
      </g>
     </g>
     <g id="text_1">
      <text style="font-family:DejaVu Sans;font-size:10px;font-stretch:normal;font-style:normal;font-weight:normal;text-anchor:middle;" transform="rotate(-0, 89.301307, 2067.358438)" x="89.301307" y="2067.358438">6</text>
     </g>
    </g>
    <g id="xtick_2">
     <g id="line2d_2">
      <g>
       <use style="stroke:#000000;stroke-width:0.8;" x="413.955852" xlink:href="#m3605053c1b" y="2052.76"/>
      </g>
     </g>
     <g id="text_2">
      <text style="font-family:DejaVu Sans;font-size:10px;font-stretch:normal;font-style:normal;font-weight:normal;text-anchor:middle;" transform="rotate(-0, 413.955852, 2067.358438)" x="413.955852" y="2067.358438">8</text>
     </g>
    </g>
    <g id="xtick_3">
     <g id="line2d_3">
      <g>
       <use style="stroke:#000000;stroke-width:0.8;" x="738.610398" xlink:href="#m3605053c1b" y="2052.76"/>
      </g>
     </g>
     <g id="text_3">
      <text style="font-family:DejaVu Sans;font-size:10px;font-stretch:normal;font-style:normal;font-weight:normal;text-anchor:middle;" transform="rotate(-0, 738.610398, 2067.358438)" x="738.610398" y="2067.358438">10</text>
     </g>
    </g>
    <g id="xtick_4">
     <g id="line2d_4">
      <g>
       <use style="stroke:#000000;stroke-width:0.8;" x="1063.264943" xlink:href="#m3605053c1b" y="2052.76"/>
      </g>
     </g>
     <g id="text_4">
      <text style="font-family:DejaVu Sans;font-size:10px;font-stretch:normal;font-style:normal;font-weight:normal;text-anchor:middle;" transform="rotate(-0, 1063.264943, 2067.358438)" x="1063.264943" y="2067.358438">12</text>
     </g>
    </g>
    <g id="xtick_5">
     <g id="line2d_5">
      <g>
       <use style="stroke:#000000;stroke-width:0.8;" x="1387.919489" xlink:href="#m3605053c1b" y="2052.76"/>
      </g>
     </g>
     <g id="text_5">
      <text style="font-family:DejaVu Sans;font-size:10px;font-stretch:normal;font-style:normal;font-weight:normal;text-anchor:middle;" transform="rotate(-0, 1387.919489, 2067.358438)" x="1387.919489" y="2067.358438">14</text>
     </g>
    </g>
    <g id="xtick_6">
     <g id="line2d_6">
      <g>
       <use style="stroke:#000000;stroke-width:0.8;" x="1712.574034" xlink:href="#m3605053c1b" y="2052.76"/>
      </g>
     </g>
     <g id="text_6">
      <text style="font-family:DejaVu Sans;font-size:10px;font-stretch:normal;font-style:normal;font-weight:normal;text-anchor:middle;" transform="rotate(-0, 1712.574034, 2067.358438)" x="1712.574034" y="2067.358438">16</text>
     </g>
    </g>
    <g id="text_7">
     <text style="font-family:DejaVu Sans;font-size:10px;font-stretch:normal;font-style:normal;font-weight:normal;text-anchor:middle;" transform="rotate(-0, 933.403125, 2081.036562)" x="933.403125" y="2081.036562">temperature from Meteomatics</text>
    </g>
   </g>
   <g id="matplotlib.axis_2">
    <g id="ytick_1">
     <g id="line2d_7">
      <defs>
       <path d="M 0 0 
L -3.5 0 
" id="m3753cc4ae5" style="stroke:#000000;stroke-width:0.8;"/>
      </defs>
      <g>
       <use style="stroke:#000000;stroke-width:0.8;" x="40.603125" xlink:href="#m3753cc4ae5" y="1865.296772"/>
      </g>
     </g>
     <g id="text_8">
      <text style="font-family:DejaVu Sans;font-size:10px;font-stretch:normal;font-style:normal;font-weight:normal;text-anchor:end;" transform="rotate(-0, 33.603125, 1869.09599)" x="33.603125" y="1869.09599">6</text>
     </g>
    </g>
    <g id="ytick_2">
     <g id="line2d_8">
      <g>
       <use style="stroke:#000000;stroke-width:0.8;" x="40.603125" xlink:href="#m3753cc4ae5" y="1593.827322"/>
      </g>
     </g>
     <g id="text_9">
      <text style="font-family:DejaVu Sans;font-size:10px;font-stretch:normal;font-style:normal;font-weight:normal;text-anchor:end;" transform="rotate(-0, 33.603125, 1597.626541)" x="33.603125" y="1597.626541">8</text>
     </g>
    </g>
    <g id="ytick_3">
     <g id="line2d_9">
      <g>
       <use style="stroke:#000000;stroke-width:0.8;" x="40.603125" xlink:href="#m3753cc4ae5" y="1322.357872"/>
      </g>
     </g>
     <g id="text_10">
      <text style="font-family:DejaVu Sans;font-size:10px;font-stretch:normal;font-style:normal;font-weight:normal;text-anchor:end;" transform="rotate(-0, 33.603125, 1326.157091)" x="33.603125" y="1326.157091">10</text>
     </g>
    </g>
    <g id="ytick_4">
     <g id="line2d_10">
      <g>
       <use style="stroke:#000000;stroke-width:0.8;" x="40.603125" xlink:href="#m3753cc4ae5" y="1050.888423"/>
      </g>
     </g>
     <g id="text_11">
      <text style="font-family:DejaVu Sans;font-size:10px;font-stretch:normal;font-style:normal;font-weight:normal;text-anchor:end;" transform="rotate(-0, 33.603125, 1054.687642)" x="33.603125" y="1054.687642">12</text>
     </g>
    </g>
    <g id="ytick_5">
     <g id="line2d_11">
      <g>
       <use style="stroke:#000000;stroke-width:0.8;" x="40.603125" xlink:href="#m3753cc4ae5" y="779.418973"/>
      </g>
     </g>
     <g id="text_12">
      <text style="font-family:DejaVu Sans;font-size:10px;font-stretch:normal;font-style:normal;font-weight:normal;text-anchor:end;" transform="rotate(-0, 33.603125, 783.218192)" x="33.603125" y="783.218192">14</text>
     </g>
    </g>
    <g id="ytick_6">
     <g id="line2d_12">
      <g>
       <use style="stroke:#000000;stroke-width:0.8;" x="40.603125" xlink:href="#m3753cc4ae5" y="507.949524"/>
      </g>
     </g>
     <g id="text_13">
      <text style="font-family:DejaVu Sans;font-size:10px;font-stretch:normal;font-style:normal;font-weight:normal;text-anchor:end;" transform="rotate(-0, 33.603125, 511.748742)" x="33.603125" y="511.748742">16</text>
     </g>
    </g>
    <g id="text_14">
     <text style="font-family:DejaVu Sans;font-size:10px;font-stretch:normal;font-style:normal;font-weight:normal;text-anchor:middle;" transform="rotate(-90, 14.798438, 1165.72)" x="14.798438" y="1165.72">ping[ms]</text>
    </g>
   </g>
   <g id="line2d_13">
    <path clip-path="url(#p9922838432)" d="M 121.766761 1851.723299 
L 137.999489 747.385578 
L 154.232216 1792.135755 
L 170.464943 1865.568241 
L 186.69767 1765.667484 
L 202.930398 1934.250012 
L 219.163125 1849.144339 
L 235.395852 1914.975681 
L 251.62858 1972.12 
L 284.094034 1855.795341 
L 300.326761 1846.29391 
L 316.559489 1861.767669 
L 332.792216 1862.717812 
L 349.024943 1123.913705 
L 365.25767 1901.130739 
L 381.490398 1883.485225 
L 397.723125 1865.703976 
L 413.955852 1827.698253 
L 430.18858 1915.24715 
L 446.421307 1814.12478 
L 462.654034 1967.23355 
L 478.886761 1855.931076 
L 495.119489 1555.957334 
L 511.352216 1610.929897 
L 527.584943 1761.052503 
L 543.81767 1748.972112 
L 560.050398 1711.373594 
L 576.283125 1842.764807 
L 592.515852 1813.581841 
L 608.74858 938.77154 
L 624.981307 1586.904851 
L 641.214034 1672.417728 
L 657.446761 1772.45422 
L 673.679489 1627.08233 
L 689.912216 1914.704211 
L 706.144943 1776.661996 
L 722.37767 1518.901754 
L 738.610398 1684.633853 
L 754.843125 1174.949961 
L 771.075852 1725.62574 
L 787.30858 1737.570396 
L 803.541307 1545.234291 
L 819.774034 1841.950399 
L 836.006761 1671.06038 
L 852.239489 1574.010052 
L 868.472216 1531.117879 
L 884.704943 1714.766962 
L 900.93767 1623.960431 
L 917.170398 1811.138616 
L 933.403125 1750.600929 
L 949.635852 1686.26267 
L 965.86858 1907.78174 
L 982.101307 1881.584939 
L 998.334034 1726.304413 
L 1014.566761 1792.27149 
L 1030.799489 1714.088288 
L 1047.032216 1404.74885 
L 1063.264943 1640.248598 
L 1079.49767 1390.632439 
L 1095.730398 1804.62335 
L 1111.963125 1165.855735 
L 1128.195852 727.161104 
L 1144.42858 638.933533 
L 1160.661307 800.186386 
L 1176.894034 1513.065161 
L 1193.126761 1080.478593 
L 1209.359489 1333.080916 
L 1225.592216 998.359084 
L 1241.824943 1471.258866 
L 1258.05767 1449.948514 
L 1274.290398 1803.266002 
L 1290.523125 1845.072298 
L 1306.755852 1638.212577 
L 1322.98858 1321.679199 
L 1339.221307 1370.679434 
L 1355.454034 359.32 
L 1371.686761 1099.481454 
L 1387.919489 1652.600458 
L 1404.152216 1627.489534 
L 1420.384943 1549.034863 
L 1436.61767 459.085023 
L 1452.850398 1254.761979 
L 1469.083125 1772.047016 
L 1485.315852 1644.727844 
L 1501.54858 1763.088524 
L 1517.781307 1156.897243 
L 1534.014034 486.096233 
L 1550.246761 1381.402478 
L 1566.479489 1392.804195 
L 1582.712216 1848.87287 
L 1615.17767 1826.069436 
L 1631.410398 1937.100441 
L 1647.643125 1941.851156 
L 1663.875852 1862.446342 
L 1680.10858 1920.1336 
L 1696.341307 510.528483 
L 1712.574034 1670.924646 
L 1728.806761 1877.512897 
L 1745.039489 1712.595206 
" style="fill:none;stroke:#0000ff;stroke-linecap:square;stroke-width:1.5;"/>
   </g>
   <g id="patch_3">
    <path d="M 40.603125 2052.76 
L 40.603125 278.68 
" style="fill:none;stroke:#000000;stroke-linecap:square;stroke-linejoin:miter;stroke-width:0.8;"/>
   </g>
   <g id="patch_4">
    <path d="M 1826.203125 2052.76 
L 1826.203125 278.68 
" style="fill:none;stroke:#000000;stroke-linecap:square;stroke-linejoin:miter;stroke-width:0.8;"/>
   </g>
   <g id="patch_5">
    <path d="M 40.603125 2052.76 
L 1826.203125 2052.76 
" style="fill:none;stroke:#000000;stroke-linecap:square;stroke-linejoin:miter;stroke-width:0.8;"/>
   </g>
   <g id="patch_6">
    <path d="M 40.603125 278.68 
L 1826.203125 278.68 
" style="fill:none;stroke:#000000;stroke-linecap:square;stroke-linejoin:miter;stroke-width:0.8;"/>
   </g>
   <g id="text_15">
    <text style="font-family:DejaVu Sans;font-size:12px;font-stretch:normal;font-style:normal;font-weight:normal;text-anchor:middle;" transform="rotate(-0, 933.403125, 272.68)" x="933.403125" y="272.68">temperature-&gt;ping</text>
   </g>
  </g>
  <g id="legend_1">
   <g id="patch_7">
    <path d="M 1975.2375 22.678125 
L 2051.803125 22.678125 
Q 2053.803125 22.678125 2053.803125 20.678125 
L 2053.803125 7 
Q 2053.803125 5 2051.803125 5 
L 1975.2375 5 
Q 1973.2375 5 1973.2375 7 
L 1973.2375 20.678125 
Q 1973.2375 22.678125 1975.2375 22.678125 
z
" style="fill:#ffffff;opacity:0.8;stroke:#cccccc;stroke-linejoin:miter;"/>
   </g>
   <g id="line2d_14">
    <path d="M 1977.2375 13.098437 
L 1997.2375 13.098437 
" style="fill:none;stroke:#0000ff;stroke-linecap:square;stroke-width:1.5;"/>
   </g>
   <g id="line2d_15"/>
   <g id="text_16">
    <text style="font-family:DejaVu Sans;font-size:10px;font-stretch:normal;font-style:normal;font-weight:normal;text-anchor:start;" transform="rotate(-0, 2005.2375, 16.598437)" x="2005.2375" y="16.598437">ping[ms]</text>
   </g>
  </g>
 </g>
 <defs>
  <clipPath id="p9922838432">
   <rect height="1774.08" width="1785.6" x="40.603125" y="278.68"/>
  </clipPath>
 </defs>
</svg>
