<?xml version="1.0" encoding="utf-8" standalone="no"?>
<!DOCTYPE svg PUBLIC "-//W3C//DTD SVG 1.1//EN"
  "http://www.w3.org/Graphics/SVG/1.1/DTD/svg11.dtd">
<!-- Created with matplotlib (https://matplotlib.org/) -->
<svg height="2090.594375pt" version="1.1" viewBox="0 0 2058.803125 2090.594375" width="2058.803125pt" xmlns="http://www.w3.org/2000/svg" xmlns:xlink="http://www.w3.org/1999/xlink">
 <metadata>
  <rdf:RDF xmlns:cc="http://creativecommons.org/ns#" xmlns:dc="http://purl.org/dc/elements/1.1/" xmlns:rdf="http://www.w3.org/1999/02/22-rdf-syntax-ns#">
   <cc:Work>
    <dc:type rdf:resource="http://purl.org/dc/dcmitype/StillImage"/>
    <dc:date>2022-07-24T11:26:41.191353</dc:date>
    <dc:format>image/svg+xml</dc:format>
    <dc:creator>
     <cc:Agent>
      <dc:title>Matplotlib v3.3.2, https://matplotlib.org/</dc:title>
     </cc:Agent>
    </dc:creator>
   </cc:Work>
  </rdf:RDF>
 </metadata>
 <defs>
  <style type="text/css">*{stroke-linecap:butt;stroke-linejoin:round;}</style>
 </defs>
 <g id="figure_1">
  <g id="patch_1">
   <path d="M 0 2090.594375 
L 2058.803125 2090.594375 
L 2058.803125 0 
L 0 0 
z
" style="fill:#ffffff;"/>
  </g>
  <g id="axes_1">
   <g id="patch_2">
    <path d="M 40.603125 2052.76 
L 1826.203125 2052.76 
L 1826.203125 278.68 
L 40.603125 278.68 
z
" style="fill:#ffffff;"/>
   </g>
   <g id="matplotlib.axis_1">
    <g id="xtick_1">
     <g id="line2d_1">
      <defs>
       <path d="M 0 0 
L 0 3.5 
" id="m890c41e2ac" style="stroke:#000000;stroke-width:0.8;"/>
      </defs>
      <g>
       <use style="stroke:#000000;stroke-width:0.8;" x="121.766761" xlink:href="#m890c41e2ac" y="2052.76"/>
      </g>
     </g>
     <g id="text_1">
      <text style="font-family:DejaVu Sans;font-size:10px;font-stretch:normal;font-style:normal;font-weight:normal;text-anchor:middle;" transform="rotate(-0, 121.766761, 2067.358437)" x="121.766761" y="2067.358437">995</text>
     </g>
    </g>
    <g id="xtick_2">
     <g id="line2d_2">
      <g>
       <use style="stroke:#000000;stroke-width:0.8;" x="349.115883" xlink:href="#m890c41e2ac" y="2052.76"/>
      </g>
     </g>
     <g id="text_2">
      <text style="font-family:DejaVu Sans;font-size:10px;font-stretch:normal;font-style:normal;font-weight:normal;text-anchor:middle;" transform="rotate(-0, 349.115883, 2067.358437)" x="349.115883" y="2067.358437">1000</text>
     </g>
    </g>
    <g id="xtick_3">
     <g id="line2d_3">
      <g>
       <use style="stroke:#000000;stroke-width:0.8;" x="576.465004" xlink:href="#m890c41e2ac" y="2052.76"/>
      </g>
     </g>
     <g id="text_3">
      <text style="font-family:DejaVu Sans;font-size:10px;font-stretch:normal;font-style:normal;font-weight:normal;text-anchor:middle;" transform="rotate(-0, 576.465004, 2067.358437)" x="576.465004" y="2067.358437">1005</text>
     </g>
    </g>
    <g id="xtick_4">
     <g id="line2d_4">
      <g>
       <use style="stroke:#000000;stroke-width:0.8;" x="803.814126" xlink:href="#m890c41e2ac" y="2052.76"/>
      </g>
     </g>
     <g id="text_4">
      <text style="font-family:DejaVu Sans;font-size:10px;font-stretch:normal;font-style:normal;font-weight:normal;text-anchor:middle;" transform="rotate(-0, 803.814126, 2067.358437)" x="803.814126" y="2067.358437">1010</text>
     </g>
    </g>
    <g id="xtick_5">
     <g id="line2d_5">
      <g>
       <use style="stroke:#000000;stroke-width:0.8;" x="1031.163247" xlink:href="#m890c41e2ac" y="2052.76"/>
      </g>
     </g>
     <g id="text_5">
      <text style="font-family:DejaVu Sans;font-size:10px;font-stretch:normal;font-style:normal;font-weight:normal;text-anchor:middle;" transform="rotate(-0, 1031.163247, 2067.358437)" x="1031.163247" y="2067.358437">1015</text>
     </g>
    </g>
    <g id="xtick_6">
     <g id="line2d_6">
      <g>
       <use style="stroke:#000000;stroke-width:0.8;" x="1258.512369" xlink:href="#m890c41e2ac" y="2052.76"/>
      </g>
     </g>
     <g id="text_6">
      <text style="font-family:DejaVu Sans;font-size:10px;font-stretch:normal;font-style:normal;font-weight:normal;text-anchor:middle;" transform="rotate(-0, 1258.512369, 2067.358437)" x="1258.512369" y="2067.358437">1020</text>
     </g>
    </g>
    <g id="xtick_7">
     <g id="line2d_7">
      <g>
       <use style="stroke:#000000;stroke-width:0.8;" x="1485.86149" xlink:href="#m890c41e2ac" y="2052.76"/>
      </g>
     </g>
     <g id="text_7">
      <text style="font-family:DejaVu Sans;font-size:10px;font-stretch:normal;font-style:normal;font-weight:normal;text-anchor:middle;" transform="rotate(-0, 1485.86149, 2067.358437)" x="1485.86149" y="2067.358437">1025</text>
     </g>
    </g>
    <g id="xtick_8">
     <g id="line2d_8">
      <g>
       <use style="stroke:#000000;stroke-width:0.8;" x="1713.210612" xlink:href="#m890c41e2ac" y="2052.76"/>
      </g>
     </g>
     <g id="text_8">
      <text style="font-family:DejaVu Sans;font-size:10px;font-stretch:normal;font-style:normal;font-weight:normal;text-anchor:middle;" transform="rotate(-0, 1713.210612, 2067.358437)" x="1713.210612" y="2067.358437">1030</text>
     </g>
    </g>
    <g id="text_9">
     <text style="font-family:DejaVu Sans;font-size:10px;font-stretch:normal;font-style:normal;font-weight:normal;text-anchor:middle;" transform="rotate(-0, 933.403125, 2081.036562)" x="933.403125" y="2081.036562">air_pressure from BuienRadar</text>
    </g>
   </g>
   <g id="matplotlib.axis_2">
    <g id="ytick_1">
     <g id="line2d_9">
      <defs>
       <path d="M 0 0 
L -3.5 0 
" id="m6ff99bac88" style="stroke:#000000;stroke-width:0.8;"/>
      </defs>
      <g>
       <use style="stroke:#000000;stroke-width:0.8;" x="40.603125" xlink:href="#m6ff99bac88" y="1929.609751"/>
      </g>
     </g>
     <g id="text_10">
      <text style="font-family:DejaVu Sans;font-size:10px;font-stretch:normal;font-style:normal;font-weight:normal;text-anchor:end;" transform="rotate(-0, 33.603125, 1933.40897)" x="33.603125" y="1933.40897">6</text>
     </g>
    </g>
    <g id="ytick_2">
     <g id="line2d_10">
      <g>
       <use style="stroke:#000000;stroke-width:0.8;" x="40.603125" xlink:href="#m6ff99bac88" y="1713.821686"/>
      </g>
     </g>
     <g id="text_11">
      <text style="font-family:DejaVu Sans;font-size:10px;font-stretch:normal;font-style:normal;font-weight:normal;text-anchor:end;" transform="rotate(-0, 33.603125, 1717.620905)" x="33.603125" y="1717.620905">7</text>
     </g>
    </g>
    <g id="ytick_3">
     <g id="line2d_11">
      <g>
       <use style="stroke:#000000;stroke-width:0.8;" x="40.603125" xlink:href="#m6ff99bac88" y="1498.033621"/>
      </g>
     </g>
     <g id="text_12">
      <text style="font-family:DejaVu Sans;font-size:10px;font-stretch:normal;font-style:normal;font-weight:normal;text-anchor:end;" transform="rotate(-0, 33.603125, 1501.832839)" x="33.603125" y="1501.832839">8</text>
     </g>
    </g>
    <g id="ytick_4">
     <g id="line2d_12">
      <g>
       <use style="stroke:#000000;stroke-width:0.8;" x="40.603125" xlink:href="#m6ff99bac88" y="1282.245555"/>
      </g>
     </g>
     <g id="text_13">
      <text style="font-family:DejaVu Sans;font-size:10px;font-stretch:normal;font-style:normal;font-weight:normal;text-anchor:end;" transform="rotate(-0, 33.603125, 1286.044774)" x="33.603125" y="1286.044774">9</text>
     </g>
    </g>
    <g id="ytick_5">
     <g id="line2d_13">
      <g>
       <use style="stroke:#000000;stroke-width:0.8;" x="40.603125" xlink:href="#m6ff99bac88" y="1066.45749"/>
      </g>
     </g>
     <g id="text_14">
      <text style="font-family:DejaVu Sans;font-size:10px;font-stretch:normal;font-style:normal;font-weight:normal;text-anchor:end;" transform="rotate(-0, 33.603125, 1070.256709)" x="33.603125" y="1070.256709">10</text>
     </g>
    </g>
    <g id="ytick_6">
     <g id="line2d_14">
      <g>
       <use style="stroke:#000000;stroke-width:0.8;" x="40.603125" xlink:href="#m6ff99bac88" y="850.669425"/>
      </g>
     </g>
     <g id="text_15">
      <text style="font-family:DejaVu Sans;font-size:10px;font-stretch:normal;font-style:normal;font-weight:normal;text-anchor:end;" transform="rotate(-0, 33.603125, 854.468643)" x="33.603125" y="854.468643">11</text>
     </g>
    </g>
    <g id="ytick_7">
     <g id="line2d_15">
      <g>
       <use style="stroke:#000000;stroke-width:0.8;" x="40.603125" xlink:href="#m6ff99bac88" y="634.881359"/>
      </g>
     </g>
     <g id="text_16">
      <text style="font-family:DejaVu Sans;font-size:10px;font-stretch:normal;font-style:normal;font-weight:normal;text-anchor:end;" transform="rotate(-0, 33.603125, 638.680578)" x="33.603125" y="638.680578">12</text>
     </g>
    </g>
    <g id="ytick_8">
     <g id="line2d_16">
      <g>
       <use style="stroke:#000000;stroke-width:0.8;" x="40.603125" xlink:href="#m6ff99bac88" y="419.093294"/>
      </g>
     </g>
     <g id="text_17">
      <text style="font-family:DejaVu Sans;font-size:10px;font-stretch:normal;font-style:normal;font-weight:normal;text-anchor:end;" transform="rotate(-0, 33.603125, 422.892513)" x="33.603125" y="422.892513">13</text>
     </g>
    </g>
    <g id="text_18">
     <text style="font-family:DejaVu Sans;font-size:10px;font-stretch:normal;font-style:normal;font-weight:normal;text-anchor:middle;" transform="rotate(-90, 14.798438, 1165.72)" x="14.798438" y="1165.72">ping[ms]</text>
    </g>
   </g>
   <g id="line2d_17">
    <path clip-path="url(#pb455f898c6)" d="M 121.766761 1776.508119 
L 126.313744 1799.597442 
L 130.860726 1872.965384 
L 139.954691 1758.274027 
L 144.501674 1669.800921 
L 149.048656 1839.841916 
L 153.595638 1814.918394 
L 158.142621 1760.971378 
L 162.689603 1873.504854 
L 167.236586 1648.437902 
L 171.783568 1846.315558 
L 176.330551 1668.937768 
L 180.877533 1695.263912 
L 185.424515 1889.149489 
L 189.971498 1807.04213 
L 194.51848 1935.112347 
L 203.612445 1915.367739 
L 208.159428 1742.845181 
L 212.70641 1842.215585 
L 221.800375 1853.436564 
L 226.347357 1569.243682 
L 230.89434 1681.237688 
L 235.441322 1939.320214 
L 239.988305 1471.923265 
L 249.082269 1546.478041 
L 253.629252 1712.742746 
L 262.723217 1663.974643 
L 280.911146 1652.861557 
L 285.458129 1720.187434 
L 290.005111 1572.696291 
L 294.552094 1558.670067 
L 299.099076 1804.021097 
L 308.193041 1778.126529 
L 312.740023 1813.084196 
L 317.287006 1934.680771 
L 321.833988 1909.541461 
L 326.380971 1865.62859 
L 330.927953 1916.986149 
L 335.474936 1864.657543 
L 340.021918 1861.09704 
L 344.5689 1843.726101 
L 349.115883 1780.931774 
L 353.662865 1732.055777 
L 358.209848 1853.436564 
L 362.75683 1950.541193 
L 367.303813 1802.726369 
L 371.850795 1818.910474 
L 376.397777 1739.500466 
L 380.94476 1853.976034 
L 390.038725 1799.705336 
L 394.585707 1411.394712 
L 399.13269 1871.346974 
L 403.679672 1758.274027 
L 408.226654 1563.84898 
L 417.320619 1468.902232 
L 421.867602 1867.354894 
L 430.961567 1872.749596 
L 435.508549 1971.256848 
L 440.055531 1949.678041 
L 444.602514 1815.889441 
L 453.696479 1797.331667 
L 458.243461 1346.118823 
L 467.337426 1649.948419 
L 471.884408 1505.694097 
L 476.431391 1527.596585 
L 480.978373 1572.912079 
L 485.525356 1972.12 
L 490.072338 1876.525887 
L 494.619321 1729.790003 
L 499.166303 1540.435975 
L 508.260268 1521.55452 
L 512.80725 1291.308654 
L 517.354233 359.32 
L 526.448198 1274.585079 
L 530.99518 1782.873867 
L 535.542162 1709.290136 
L 540.089145 1559.101643 
L 544.636127 1899.183634 
L 549.18311 1506.341461 
L 553.730092 1667.750934 
L 558.277075 1695.911276 
L 562.824057 1542.917538 
L 567.371039 1880.62586 
L 571.918022 1452.933915 
L 576.465004 1614.559176 
L 581.011987 1810.063163 
L 585.558969 1816.105229 
L 590.105952 1783.844913 
L 594.652934 1682.10084 
L 599.199916 1693.753396 
L 603.746899 1740.579406 
L 608.293881 1614.343388 
L 612.840864 1731.084731 
L 617.387846 1630.851175 
L 621.934829 1730.868943 
L 626.481811 1557.15955 
L 631.028793 1815.565759 
L 635.575776 1549.822756 
L 640.122758 1668.506192 
L 644.669741 1666.995676 
L 649.216723 1688.142906 
L 653.763706 1816.213123 
L 658.310688 1686.416602 
L 662.85767 1764.531881 
L 667.404653 1688.79027 
L 671.951635 1775.105496 
L 676.498618 1613.156553 
L 681.0456 1762.481895 
L 685.592583 1815.457865 
L 690.139565 1783.521231 
L 694.686547 1571.185775 
L 699.23353 1776.076543 
L 703.780512 1613.480235 
L 708.327495 1619.306513 
L 712.874477 1796.792197 
L 717.42146 1722.668997 
L 721.968442 1610.674991 
L 726.515424 1800.136912 
L 731.062407 1642.180048 
L 735.609389 1595.569826 
L 740.156372 1757.195087 
L 744.703354 1710.476971 
L 749.250337 1683.827145 
L 753.797319 1694.616548 
L 758.344301 1762.805577 
L 767.438266 1589.959336 
L 771.985249 1769.279219 
L 776.532231 1796.252727 
L 781.079214 1860.665464 
L 785.626196 1722.021632 
L 790.173178 1507.312507 
L 794.720161 1786.43437 
L 799.267143 1827.11042 
L 803.814126 1706.484892 
L 808.361108 1658.903623 
L 812.908091 1490.049462 
L 817.455073 1544.320161 
L 822.002055 1632.685373 
L 826.549038 1676.598245 
L 831.09602 1572.156821 
L 835.643003 1660.737822 
L 840.189985 1733.889976 
L 844.736968 1741.658346 
L 849.28395 1699.255991 
L 853.830932 1589.743548 
L 858.377915 1751.368809 
L 862.924897 1676.921927 
L 867.47188 1741.874134 
L 872.018862 1671.203543 
L 876.565845 1766.797656 
L 881.112827 1618.767043 
L 885.659809 1664.406219 
L 890.206792 1566.870013 
L 894.753774 1732.811036 
L 899.300757 1651.782617 
L 903.847739 1466.528563 
L 908.394722 1584.996211 
L 912.941704 1645.632657 
L 917.488686 1647.358962 
L 922.035669 1671.419331 
L 926.582651 1657.393107 
L 931.129634 1767.552914 
L 935.676616 1737.234691 
L 940.223599 1765.610822 
L 944.770581 1741.658346 
L 949.317564 1687.279754 
L 953.864546 1747.9162 
L 958.411528 1667.750934 
L 962.958511 1804.236885 
L 967.505493 1747.053048 
L 972.052476 1741.874134 
L 976.599458 1612.940765 
L 981.146441 1599.885587 
L 985.693423 1745.434637 
L 990.240405 1715.979566 
L 994.787388 1697.745475 
L 999.33437 1698.069157 
L 1003.881353 1707.132256 
L 1008.428335 1767.121338 
L 1012.975318 1676.274562 
L 1017.5223 1695.803382 
L 1022.069282 1678.648231 
L 1026.616265 1602.690832 
L 1031.163247 1663.327279 
L 1035.71023 1717.382189 
L 1040.257212 1645.632657 
L 1044.804195 1662.679914 
L 1049.351177 1723.747937 
L 1053.898159 1711.663805 
L 1058.445142 1726.553182 
L 1062.992124 1622.759122 
L 1067.539107 1756.116147 
L 1072.086089 1731.192625 
L 1076.633072 1747.808306 
L 1081.180054 1728.279486 
L 1085.727036 1682.963993 
L 1090.274019 1748.239882 
L 1094.821001 1711.016441 
L 1099.367984 1776.184437 
L 1103.914966 1748.347776 
L 1108.461949 1818.694686 
L 1113.008931 1746.729366 
L 1117.555913 1778.018635 
L 1122.102896 1753.958266 
L 1126.649878 1746.405684 
L 1131.196861 1721.15848 
L 1135.743843 1643.690565 
L 1140.290826 1717.058507 
L 1144.837808 1767.552914 
L 1149.38479 1699.47178 
L 1153.931773 1762.589789 
L 1158.478755 1730.221579 
L 1163.025738 1694.832336 
L 1167.57272 1741.22677 
L 1172.119703 1661.600974 
L 1176.666685 1755.468782 
L 1181.213667 1769.387113 
L 1185.76065 1759.460862 
L 1190.307632 1599.885587 
L 1194.854615 1590.283018 
L 1199.401597 1599.346117 
L 1203.94858 1558.346385 
L 1208.495562 1505.370415 
L 1213.042544 1703.895435 
L 1217.589527 1703.032283 
L 1222.136509 1711.663805 
L 1226.683492 1772.947616 
L 1231.230474 1715.440096 
L 1235.777457 1687.71133 
L 1240.324439 1655.990484 
L 1249.418404 1708.211196 
L 1253.965386 1744.247803 
L 1258.512369 1745.326743 
L 1263.059351 1705.837527 
L 1267.606334 1714.037474 
L 1272.153316 1713.174322 
L 1276.700298 1651.027359 
L 1281.247281 1702.600706 
L 1285.794263 1719.108493 
L 1290.341246 1730.221579 
L 1294.888228 1677.677185 
L 1299.435211 1673.469318 
L 1303.982193 1660.090458 
L 1308.529175 1789.994873 
L 1313.076158 1774.350238 
L 1317.62314 1743.168863 
L 1322.170123 1755.684571 
L 1326.717105 1654.587862 
L 1331.264088 1717.921659 
L 1335.81107 1722.884785 
L 1340.358052 1812.221044 
L 1344.905035 1715.116414 
L 1349.452017 1753.095114 
L 1353.999 1770.573947 
L 1358.545982 1703.787541 
L 1363.092965 1776.831801 
L 1367.639947 1773.487086 
L 1372.186929 1739.500466 
L 1376.733912 1726.984758 
L 1381.280894 1735.832069 
L 1385.827877 1798.410607 
L 1390.374859 1783.521231 
L 1394.921842 1827.326208 
L 1399.468824 1723.100573 
L 1404.015806 1738.960995 
L 1408.562789 1770.789735 
L 1413.109771 1739.284678 
L 1417.656754 1756.116147 
L 1422.203736 1748.779352 
L 1426.750719 1694.508654 
L 1431.297701 1741.22677 
L 1435.844683 1698.069157 
L 1440.391666 1747.484624 
L 1444.938648 1819.773626 
L 1449.485631 1859.262842 
L 1454.032613 1829.268301 
L 1458.579596 1797.763243 
L 1463.126578 1646.387915 
L 1467.67356 1799.27376 
L 1472.220543 1830.994605 
L 1476.767525 1589.52776 
L 1481.314508 1684.582403 
L 1485.86149 1812.976302 
L 1490.408473 1815.242077 
L 1494.955455 1846.09977 
L 1499.502437 1820.636778 
L 1504.04942 1857.536537 
L 1508.596402 1535.47285 
L 1513.143385 1851.278683 
L 1517.690367 1898.104694 
L 1522.23735 1730.329473 
L 1526.784332 1898.428376 
L 1531.331314 1800.784276 
L 1535.878297 1820.205202 
L 1540.425279 1803.697415 
L 1544.972262 1858.076007 
L 1549.519244 1830.239347 
L 1554.066227 1786.218582 
L 1558.613209 1911.483554 
L 1563.160191 1729.897897 
L 1567.707174 1813.299984 
L 1572.254156 1845.883982 
L 1576.801139 1442.576088 
L 1581.348121 1882.352165 
L 1585.895104 1822.470977 
L 1590.442086 1819.018368 
L 1594.989068 1891.415264 
L 1599.536051 1891.84684 
L 1604.083033 1914.180904 
L 1608.630016 1753.742478 
L 1613.176998 1879.223238 
L 1617.723981 1851.71026 
L 1622.270963 1878.252192 
L 1626.817945 1871.994338 
L 1631.364928 1881.381119 
L 1635.91191 1854.515504 
L 1640.458893 1879.870602 
L 1645.005875 1878.683768 
L 1649.552858 1887.423184 
L 1654.09984 1841.999797 
L 1658.646822 1783.197549 
L 1663.193805 1804.128991 
L 1667.740787 1325.618956 
L 1672.28777 1912.130918 
L 1676.834752 1786.542264 
L 1681.381735 1875.770629 
L 1685.928717 1911.159872 
L 1690.475699 1844.589253 
L 1695.022682 1797.979031 
L 1699.569664 1824.520963 
L 1704.116647 1862.068087 
L 1708.663629 1828.944619 
L 1713.210612 1870.052245 
L 1717.757594 1969.314755 
L 1722.304576 1849.768167 
L 1726.851559 1585.104105 
L 1731.398541 1783.305443 
L 1735.945524 1855.378657 
L 1740.492506 1869.944351 
L 1745.039489 1838.3314 
L 1745.039489 1838.3314 
" style="fill:none;stroke:#0000ff;stroke-linecap:square;stroke-width:1.5;"/>
   </g>
   <g id="patch_3">
    <path d="M 40.603125 2052.76 
L 40.603125 278.68 
" style="fill:none;stroke:#000000;stroke-linecap:square;stroke-linejoin:miter;stroke-width:0.8;"/>
   </g>
   <g id="patch_4">
    <path d="M 1826.203125 2052.76 
L 1826.203125 278.68 
" style="fill:none;stroke:#000000;stroke-linecap:square;stroke-linejoin:miter;stroke-width:0.8;"/>
   </g>
   <g id="patch_5">
    <path d="M 40.603125 2052.76 
L 1826.203125 2052.76 
" style="fill:none;stroke:#000000;stroke-linecap:square;stroke-linejoin:miter;stroke-width:0.8;"/>
   </g>
   <g id="patch_6">
    <path d="M 40.603125 278.68 
L 1826.203125 278.68 
" style="fill:none;stroke:#000000;stroke-linecap:square;stroke-linejoin:miter;stroke-width:0.8;"/>
   </g>
   <g id="text_19">
    <text style="font-family:DejaVu Sans;font-size:12px;font-stretch:normal;font-style:normal;font-weight:normal;text-anchor:middle;" transform="rotate(-0, 933.403125, 272.68)" x="933.403125" y="272.68">air_pressure-&gt;ping</text>
   </g>
  </g>
  <g id="legend_1">
   <g id="patch_7">
    <path d="M 1975.2375 22.678125 
L 2051.803125 22.678125 
Q 2053.803125 22.678125 2053.803125 20.678125 
L 2053.803125 7 
Q 2053.803125 5 2051.803125 5 
L 1975.2375 5 
Q 1973.2375 5 1973.2375 7 
L 1973.2375 20.678125 
Q 1973.2375 22.678125 1975.2375 22.678125 
z
" style="fill:#ffffff;opacity:0.8;stroke:#cccccc;stroke-linejoin:miter;"/>
   </g>
   <g id="line2d_18">
    <path d="M 1977.2375 13.098437 
L 1997.2375 13.098437 
" style="fill:none;stroke:#0000ff;stroke-linecap:square;stroke-width:1.5;"/>
   </g>
   <g id="line2d_19"/>
   <g id="text_20">
    <text style="font-family:DejaVu Sans;font-size:10px;font-stretch:normal;font-style:normal;font-weight:normal;text-anchor:start;" transform="rotate(-0, 2005.2375, 16.598437)" x="2005.2375" y="16.598437">ping[ms]</text>
   </g>
  </g>
 </g>
 <defs>
  <clipPath id="pb455f898c6">
   <rect height="1774.08" width="1785.6" x="40.603125" y="278.68"/>
  </clipPath>
 </defs>
</svg>
