<?xml version="1.0" encoding="utf-8" standalone="no"?>
<!DOCTYPE svg PUBLIC "-//W3C//DTD SVG 1.1//EN"
  "http://www.w3.org/Graphics/SVG/1.1/DTD/svg11.dtd">
<!-- Created with matplotlib (https://matplotlib.org/) -->
<svg height="2090.31625pt" version="1.1" viewBox="0 0 2058.803125 2090.31625" width="2058.803125pt" xmlns="http://www.w3.org/2000/svg" xmlns:xlink="http://www.w3.org/1999/xlink">
 <metadata>
  <rdf:RDF xmlns:cc="http://creativecommons.org/ns#" xmlns:dc="http://purl.org/dc/elements/1.1/" xmlns:rdf="http://www.w3.org/1999/02/22-rdf-syntax-ns#">
   <cc:Work>
    <dc:type rdf:resource="http://purl.org/dc/dcmitype/StillImage"/>
    <dc:date>2022-07-23T20:54:07.619771</dc:date>
    <dc:format>image/svg+xml</dc:format>
    <dc:creator>
     <cc:Agent>
      <dc:title>Matplotlib v3.3.2, https://matplotlib.org/</dc:title>
     </cc:Agent>
    </dc:creator>
   </cc:Work>
  </rdf:RDF>
 </metadata>
 <defs>
  <style type="text/css">*{stroke-linecap:butt;stroke-linejoin:round;}</style>
 </defs>
 <g id="figure_1">
  <g id="patch_1">
   <path d="M 0 2090.31625 
L 2058.803125 2090.31625 
L 2058.803125 0 
L 0 0 
z
" style="fill:#ffffff;"/>
  </g>
  <g id="axes_1">
   <g id="patch_2">
    <path d="M 40.603125 2052.76 
L 1826.203125 2052.76 
L 1826.203125 278.68 
L 40.603125 278.68 
z
" style="fill:#ffffff;"/>
   </g>
   <g id="matplotlib.axis_1">
    <g id="xtick_1">
     <g id="line2d_1">
      <defs>
       <path d="M 0 0 
L 0 3.5 
" id="m1a568c3ae0" style="stroke:#000000;stroke-width:0.8;"/>
      </defs>
      <g>
       <use style="stroke:#000000;stroke-width:0.8;" x="56.835852" xlink:href="#m1a568c3ae0" y="2052.76"/>
      </g>
     </g>
     <g id="text_1">
      <text style="font-family:DejaVu Sans;font-size:10px;font-stretch:normal;font-style:normal;font-weight:normal;text-anchor:middle;" transform="rotate(-0, 56.835852, 2067.358438)" x="56.835852" y="2067.358438">5</text>
     </g>
    </g>
    <g id="xtick_2">
     <g id="line2d_2">
      <g>
       <use style="stroke:#000000;stroke-width:0.8;" x="381.490398" xlink:href="#m1a568c3ae0" y="2052.76"/>
      </g>
     </g>
     <g id="text_2">
      <text style="font-family:DejaVu Sans;font-size:10px;font-stretch:normal;font-style:normal;font-weight:normal;text-anchor:middle;" transform="rotate(-0, 381.490398, 2067.358438)" x="381.490398" y="2067.358438">10</text>
     </g>
    </g>
    <g id="xtick_3">
     <g id="line2d_3">
      <g>
       <use style="stroke:#000000;stroke-width:0.8;" x="706.144943" xlink:href="#m1a568c3ae0" y="2052.76"/>
      </g>
     </g>
     <g id="text_3">
      <text style="font-family:DejaVu Sans;font-size:10px;font-stretch:normal;font-style:normal;font-weight:normal;text-anchor:middle;" transform="rotate(-0, 706.144943, 2067.358438)" x="706.144943" y="2067.358438">15</text>
     </g>
    </g>
    <g id="xtick_4">
     <g id="line2d_4">
      <g>
       <use style="stroke:#000000;stroke-width:0.8;" x="1030.799489" xlink:href="#m1a568c3ae0" y="2052.76"/>
      </g>
     </g>
     <g id="text_4">
      <text style="font-family:DejaVu Sans;font-size:10px;font-stretch:normal;font-style:normal;font-weight:normal;text-anchor:middle;" transform="rotate(-0, 1030.799489, 2067.358438)" x="1030.799489" y="2067.358438">20</text>
     </g>
    </g>
    <g id="xtick_5">
     <g id="line2d_5">
      <g>
       <use style="stroke:#000000;stroke-width:0.8;" x="1355.454034" xlink:href="#m1a568c3ae0" y="2052.76"/>
      </g>
     </g>
     <g id="text_5">
      <text style="font-family:DejaVu Sans;font-size:10px;font-stretch:normal;font-style:normal;font-weight:normal;text-anchor:middle;" transform="rotate(-0, 1355.454034, 2067.358438)" x="1355.454034" y="2067.358438">25</text>
     </g>
    </g>
    <g id="xtick_6">
     <g id="line2d_6">
      <g>
       <use style="stroke:#000000;stroke-width:0.8;" x="1680.10858" xlink:href="#m1a568c3ae0" y="2052.76"/>
      </g>
     </g>
     <g id="text_6">
      <text style="font-family:DejaVu Sans;font-size:10px;font-stretch:normal;font-style:normal;font-weight:normal;text-anchor:middle;" transform="rotate(-0, 1680.10858, 2067.358438)" x="1680.10858" y="2067.358438">30</text>
     </g>
    </g>
    <g id="text_7">
     <text style="font-family:DejaVu Sans;font-size:10px;font-stretch:normal;font-style:normal;font-weight:normal;text-anchor:middle;" transform="rotate(-0, 933.403125, 2081.036562)" x="933.403125" y="2081.036562">temperature from WeatherAPI</text>
    </g>
   </g>
   <g id="matplotlib.axis_2">
    <g id="ytick_1">
     <g id="line2d_7">
      <defs>
       <path d="M 0 0 
L -3.5 0 
" id="m1d80ed58de" style="stroke:#000000;stroke-width:0.8;"/>
      </defs>
      <g>
       <use style="stroke:#000000;stroke-width:0.8;" x="40.603125" xlink:href="#m1d80ed58de" y="1940.942733"/>
      </g>
     </g>
     <g id="text_8">
      <text style="font-family:DejaVu Sans;font-size:10px;font-stretch:normal;font-style:normal;font-weight:normal;text-anchor:end;" transform="rotate(-0, 33.603125, 1944.741952)" x="33.603125" y="1944.741952">6</text>
     </g>
    </g>
    <g id="ytick_2">
     <g id="line2d_8">
      <g>
       <use style="stroke:#000000;stroke-width:0.8;" x="40.603125" xlink:href="#m1d80ed58de" y="1629.170068"/>
      </g>
     </g>
     <g id="text_9">
      <text style="font-family:DejaVu Sans;font-size:10px;font-stretch:normal;font-style:normal;font-weight:normal;text-anchor:end;" transform="rotate(-0, 33.603125, 1632.969286)" x="33.603125" y="1632.969286">7</text>
     </g>
    </g>
    <g id="ytick_3">
     <g id="line2d_9">
      <g>
       <use style="stroke:#000000;stroke-width:0.8;" x="40.603125" xlink:href="#m1d80ed58de" y="1317.397402"/>
      </g>
     </g>
     <g id="text_10">
      <text style="font-family:DejaVu Sans;font-size:10px;font-stretch:normal;font-style:normal;font-weight:normal;text-anchor:end;" transform="rotate(-0, 33.603125, 1321.196621)" x="33.603125" y="1321.196621">8</text>
     </g>
    </g>
    <g id="ytick_4">
     <g id="line2d_10">
      <g>
       <use style="stroke:#000000;stroke-width:0.8;" x="40.603125" xlink:href="#m1d80ed58de" y="1005.624736"/>
      </g>
     </g>
     <g id="text_11">
      <text style="font-family:DejaVu Sans;font-size:10px;font-stretch:normal;font-style:normal;font-weight:normal;text-anchor:end;" transform="rotate(-0, 33.603125, 1009.423955)" x="33.603125" y="1009.423955">9</text>
     </g>
    </g>
    <g id="ytick_5">
     <g id="line2d_11">
      <g>
       <use style="stroke:#000000;stroke-width:0.8;" x="40.603125" xlink:href="#m1d80ed58de" y="693.85207"/>
      </g>
     </g>
     <g id="text_12">
      <text style="font-family:DejaVu Sans;font-size:10px;font-stretch:normal;font-style:normal;font-weight:normal;text-anchor:end;" transform="rotate(-0, 33.603125, 697.651289)" x="33.603125" y="697.651289">10</text>
     </g>
    </g>
    <g id="ytick_6">
     <g id="line2d_12">
      <g>
       <use style="stroke:#000000;stroke-width:0.8;" x="40.603125" xlink:href="#m1d80ed58de" y="382.079405"/>
      </g>
     </g>
     <g id="text_13">
      <text style="font-family:DejaVu Sans;font-size:10px;font-stretch:normal;font-style:normal;font-weight:normal;text-anchor:end;" transform="rotate(-0, 33.603125, 385.878623)" x="33.603125" y="385.878623">11</text>
     </g>
    </g>
    <g id="text_14">
     <text style="font-family:DejaVu Sans;font-size:10px;font-stretch:normal;font-style:normal;font-weight:normal;text-anchor:middle;" transform="rotate(-90, 14.798438, 1165.72)" x="14.798438" y="1165.72">ping[ms]</text>
    </g>
   </g>
   <g id="line2d_13">
    <path clip-path="url(#peb32a5ef7d)" d="M 121.766761 1868.143816 
L 128.259852 1787.238809 
L 154.232216 1711.478051 
L 167.218398 1695.889418 
L 173.711489 1722.390095 
L 180.20458 1706.177916 
L 186.69767 1813.11594 
L 193.190761 1638.523248 
L 199.683852 1621.999296 
L 206.176943 1727.378457 
L 212.670034 1373.828254 
L 219.163125 1786.927037 
L 225.656216 1670.168173 
L 232.149307 1827.769256 
L 238.642398 1540.470744 
L 245.135489 1838.993072 
L 251.62858 1380.999026 
L 258.12167 1676.403627 
L 264.614761 1781.938674 
L 271.107852 1689.030419 
L 277.600943 1178.970338 
L 284.094034 1687.471556 
L 290.587125 1541.873721 
L 297.080216 1586.613099 
L 303.573307 1318.644493 
L 310.066398 1772.585494 
L 316.559489 1712.725142 
L 323.05258 1661.438539 
L 329.54567 1371.645846 
L 336.038761 1779.444493 
L 342.531852 1721.143004 
L 349.024943 1688.718647 
L 355.518034 1750.449635 
L 362.011125 1767.441245 
L 368.504216 1785.679946 
L 374.997307 1670.635832 
L 381.490398 1645.070474 
L 387.983489 1466.892395 
L 394.47658 1617.322706 
L 400.96967 1573.36276 
L 407.462761 1719.895913 
L 413.955852 1598.304574 
L 420.448943 1526.908633 
L 426.942034 1673.753559 
L 433.435125 1715.998755 
L 439.928216 1548.73272 
L 446.421307 1591.601461 
L 452.914398 1671.415264 
L 459.407489 1672.506468 
L 465.90058 1528.779269 
L 472.39367 1812.492395 
L 478.886761 1669.700514 
L 485.379852 1558.865332 
L 491.872943 1709.139756 
L 498.366034 1584.274804 
L 504.859125 1715.063437 
L 511.352216 1605.163572 
L 517.845307 1703.839621 
L 524.338398 1724.884276 
L 530.831489 1689.342192 
L 537.32458 1303.679405 
L 543.81767 1669.388742 
L 550.310761 1774.767903 
L 556.803852 1659.567903 
L 563.296943 1729.872639 
L 569.790034 1436.962219 
L 576.283125 1650.526495 
L 582.776216 1611.710798 
L 589.269307 1604.540027 
L 595.762398 1667.206333 
L 602.255489 1348.886441 
L 608.74858 1633.223112 
L 615.24167 1646.005792 
L 621.734761 1686.536238 
L 628.227852 1744.837727 
L 634.720943 1713.66046 
L 641.214034 1710.075074 
L 647.707125 1650.994154 
L 654.200216 1460.968714 
L 660.693307 1710.69862 
L 667.186398 1766.661813 
L 673.679489 1612.957889 
L 680.17258 1499.472639 
L 686.66567 1687.783329 
L 693.158761 1441.482923 
L 699.651852 1451.147876 
L 706.144943 1637.58793 
L 712.638034 1627.611204 
L 719.131125 1363.539756 
L 725.624216 1665.179811 
L 732.117307 1477.180893 
L 738.610398 1494.951935 
L 745.103489 1578.03935 
L 751.59658 1506.487524 
L 758.08967 1541.561949 
L 764.582761 1589.10728 
L 771.075852 1523.790907 
L 777.568943 1537.820677 
L 784.062034 1603.292936 
L 790.555125 1487.93705 
L 797.048216 1631.664249 
L 803.541307 1650.682382 
L 810.034398 1674.377104 
L 816.527489 1598.304574 
L 823.02058 1678.274263 
L 829.51367 1566.503762 
L 836.006761 1569.309716 
L 842.499852 1508.202273 
L 848.992943 1668.141651 
L 855.486034 1667.206333 
L 861.979125 1552.162219 
L 868.472216 1507.890501 
L 874.965307 1612.022571 
L 881.458398 1667.985765 
L 887.951489 1472.660189 
L 894.44458 1733.458024 
L 900.93767 1720.675345 
L 907.430761 1583.027713 
L 913.923852 1658.476698 
L 920.416943 1610.151935 
L 926.910034 1660.035562 
L 933.403125 1685.289147 
L 939.896216 1723.01364 
L 946.389307 1728.313775 
L 952.882398 1537.508904 
L 959.375489 1515.99659 
L 965.86858 1665.959242 
L 972.36167 1584.742463 
L 978.854761 1713.036915 
L 985.347852 1484.507551 
L 991.840943 1716.154641 
L 998.334034 1637.899702 
L 1004.827125 1768.532449 
L 1011.320216 1643.823383 
L 1017.813307 1654.891313 
L 1024.306398 1726.754912 
L 1030.799489 1752.943816 
L 1037.29258 1566.191989 
L 1043.78567 1668.765196 
L 1050.278761 1742.031773 
L 1056.771852 1626.987659 
L 1063.264943 1621.999296 
L 1069.758034 1660.97088 
L 1076.251125 1655.047199 
L 1082.744216 1709.607415 
L 1089.237307 1637.58793 
L 1095.730398 1564.009581 
L 1102.223489 1666.89456 
L 1108.71658 1661.906198 
L 1115.20967 1612.49023 
L 1121.702761 1442.418241 
L 1128.195852 1642.888065 
L 1134.688943 1675.780081 
L 1141.182034 1477.960325 
L 1147.675125 1726.599026 
L 1154.168216 1709.763302 
L 1160.661307 1682.171421 
L 1167.154398 1761.517564 
L 1173.647489 1583.651258 
L 1180.14058 1157.146252 
L 1186.63367 1778.509175 
L 1193.126761 1654.735426 
L 1199.619852 1792.227172 
L 1206.112943 1746.39659 
L 1212.606034 1661.594425 
L 1219.099125 1784.432855 
L 1225.592216 1611.710798 
L 1232.085307 1750.761407 
L 1238.578398 1770.558972 
L 1245.071489 1790.980081 
L 1251.56458 1656.138403 
L 1258.05767 1650.994154 
L 1264.550761 1692.148146 
L 1271.043852 1596.901597 
L 1277.536943 1675.156536 
L 1284.030034 1718.181164 
L 1290.523125 1819.351394 
L 1297.016216 1726.599026 
L 1303.509307 1590.198484 
L 1310.002398 1685.289147 
L 1316.495489 1760.114587 
L 1322.98858 1914.130284 
L 1329.48167 1782.562219 
L 1335.974761 1716.6223 
L 1342.467852 1755.282111 
L 1348.960943 1749.514317 
L 1355.454034 1768.844222 
L 1361.947125 1778.509175 
L 1368.440216 1545.303221 
L 1374.933307 1797.215535 
L 1387.919489 1908.830149 
L 1394.41258 840.385223 
L 1413.891852 1808.283464 
L 1420.384943 1409.214452 
L 1426.878034 1770.091313 
L 1433.371125 1670.32406 
L 1439.864216 952.155724 
L 1446.357307 1728.937321 
L 1452.850398 1858.946522 
L 1465.83658 1737.666955 
L 1472.32967 1771.338403 
L 1478.822761 1802.51567 
L 1485.315852 1972.12 
L 1491.808943 1859.725954 
L 1498.302034 1616.855047 
L 1504.795125 1763.232314 
L 1511.288216 1779.756265 
L 1517.781307 1710.69862 
L 1530.767489 1620.12866 
L 1543.75367 1656.29429 
L 1550.246761 359.32 
L 1576.219125 1630.573045 
L 1582.712216 1496.354912 
L 1589.205307 1807.971691 
L 1595.698398 1774.767903 
L 1602.191489 1799.086171 
L 1608.68458 1770.091313 
L 1615.17767 1754.502679 
L 1621.670761 1818.104303 
L 1647.643125 1856.764114 
L 1667.122398 1784.900514 
L 1673.615489 1875.62636 
L 1686.60167 1658.476698 
L 1712.574034 1920.989283 
L 1732.053307 1630.261272 
L 1745.039489 1448.965467 
L 1745.039489 1448.965467 
" style="fill:none;stroke:#0000ff;stroke-linecap:square;stroke-width:1.5;"/>
   </g>
   <g id="patch_3">
    <path d="M 40.603125 2052.76 
L 40.603125 278.68 
" style="fill:none;stroke:#000000;stroke-linecap:square;stroke-linejoin:miter;stroke-width:0.8;"/>
   </g>
   <g id="patch_4">
    <path d="M 1826.203125 2052.76 
L 1826.203125 278.68 
" style="fill:none;stroke:#000000;stroke-linecap:square;stroke-linejoin:miter;stroke-width:0.8;"/>
   </g>
   <g id="patch_5">
    <path d="M 40.603125 2052.76 
L 1826.203125 2052.76 
" style="fill:none;stroke:#000000;stroke-linecap:square;stroke-linejoin:miter;stroke-width:0.8;"/>
   </g>
   <g id="patch_6">
    <path d="M 40.603125 278.68 
L 1826.203125 278.68 
" style="fill:none;stroke:#000000;stroke-linecap:square;stroke-linejoin:miter;stroke-width:0.8;"/>
   </g>
   <g id="text_15">
    <text style="font-family:DejaVu Sans;font-size:12px;font-stretch:normal;font-style:normal;font-weight:normal;text-anchor:middle;" transform="rotate(-0, 933.403125, 272.68)" x="933.403125" y="272.68">temperature-&gt;ping</text>
   </g>
  </g>
  <g id="legend_1">
   <g id="patch_7">
    <path d="M 1975.2375 22.678125 
L 2051.803125 22.678125 
Q 2053.803125 22.678125 2053.803125 20.678125 
L 2053.803125 7 
Q 2053.803125 5 2051.803125 5 
L 1975.2375 5 
Q 1973.2375 5 1973.2375 7 
L 1973.2375 20.678125 
Q 1973.2375 22.678125 1975.2375 22.678125 
z
" style="fill:#ffffff;opacity:0.8;stroke:#cccccc;stroke-linejoin:miter;"/>
   </g>
   <g id="line2d_14">
    <path d="M 1977.2375 13.098437 
L 1997.2375 13.098437 
" style="fill:none;stroke:#0000ff;stroke-linecap:square;stroke-width:1.5;"/>
   </g>
   <g id="line2d_15"/>
   <g id="text_16">
    <text style="font-family:DejaVu Sans;font-size:10px;font-stretch:normal;font-style:normal;font-weight:normal;text-anchor:start;" transform="rotate(-0, 2005.2375, 16.598437)" x="2005.2375" y="16.598437">ping[ms]</text>
   </g>
  </g>
 </g>
 <defs>
  <clipPath id="peb32a5ef7d">
   <rect height="1774.08" width="1785.6" x="40.603125" y="278.68"/>
  </clipPath>
 </defs>
</svg>
