<?xml version="1.0" encoding="utf-8" standalone="no"?>
<!DOCTYPE svg PUBLIC "-//W3C//DTD SVG 1.1//EN"
  "http://www.w3.org/Graphics/SVG/1.1/DTD/svg11.dtd">
<!-- Created with matplotlib (https://matplotlib.org/) -->
<svg height="345.6pt" version="1.1" viewBox="0 0 460.8 345.6" width="460.8pt" xmlns="http://www.w3.org/2000/svg" xmlns:xlink="http://www.w3.org/1999/xlink">
 <metadata>
  <rdf:RDF xmlns:cc="http://creativecommons.org/ns#" xmlns:dc="http://purl.org/dc/elements/1.1/" xmlns:rdf="http://www.w3.org/1999/02/22-rdf-syntax-ns#">
   <cc:Work>
    <dc:type rdf:resource="http://purl.org/dc/dcmitype/StillImage"/>
    <dc:date>2022-07-16T17:59:23.958118</dc:date>
    <dc:format>image/svg+xml</dc:format>
    <dc:creator>
     <cc:Agent>
      <dc:title>Matplotlib v3.3.2, https://matplotlib.org/</dc:title>
     </cc:Agent>
    </dc:creator>
   </cc:Work>
  </rdf:RDF>
 </metadata>
 <defs>
  <style type="text/css">*{stroke-linecap:butt;stroke-linejoin:round;}</style>
 </defs>
 <g id="figure_1">
  <g id="patch_1">
   <path d="M 0 345.6 
L 460.8 345.6 
L 460.8 0 
L 0 0 
z
" style="fill:#ffffff;"/>
  </g>
  <g id="axes_1">
   <g id="patch_2">
    <path d="M 57.6 307.584 
L 414.72 307.584 
L 414.72 41.472 
L 57.6 41.472 
z
" style="fill:#ffffff;"/>
   </g>
   <g id="matplotlib.axis_1">
    <g id="xtick_1">
     <g id="line2d_1">
      <defs>
       <path d="M 0 0 
L 0 3.5 
" id="m242c4472b2" style="stroke:#000000;stroke-width:0.8;"/>
      </defs>
      <g>
       <use style="stroke:#000000;stroke-width:0.8;" x="83.609256" xlink:href="#m242c4472b2" y="307.584"/>
      </g>
     </g>
     <g id="text_1">
      <!-- 1007.5 -->
      <g transform="translate(66.113944 322.182437)scale(0.1 -0.1)">
       <defs>
        <path d="M 12.40625 8.296875 
L 28.515625 8.296875 
L 28.515625 63.921875 
L 10.984375 60.40625 
L 10.984375 69.390625 
L 28.421875 72.90625 
L 38.28125 72.90625 
L 38.28125 8.296875 
L 54.390625 8.296875 
L 54.390625 0 
L 12.40625 0 
z
" id="DejaVuSans-49"/>
        <path d="M 31.78125 66.40625 
Q 24.171875 66.40625 20.328125 58.90625 
Q 16.5 51.421875 16.5 36.375 
Q 16.5 21.390625 20.328125 13.890625 
Q 24.171875 6.390625 31.78125 6.390625 
Q 39.453125 6.390625 43.28125 13.890625 
Q 47.125 21.390625 47.125 36.375 
Q 47.125 51.421875 43.28125 58.90625 
Q 39.453125 66.40625 31.78125 66.40625 
z
M 31.78125 74.21875 
Q 44.046875 74.21875 50.515625 64.515625 
Q 56.984375 54.828125 56.984375 36.375 
Q 56.984375 17.96875 50.515625 8.265625 
Q 44.046875 -1.421875 31.78125 -1.421875 
Q 19.53125 -1.421875 13.0625 8.265625 
Q 6.59375 17.96875 6.59375 36.375 
Q 6.59375 54.828125 13.0625 64.515625 
Q 19.53125 74.21875 31.78125 74.21875 
z
" id="DejaVuSans-48"/>
        <path d="M 8.203125 72.90625 
L 55.078125 72.90625 
L 55.078125 68.703125 
L 28.609375 0 
L 18.3125 0 
L 43.21875 64.59375 
L 8.203125 64.59375 
z
" id="DejaVuSans-55"/>
        <path d="M 10.6875 12.40625 
L 21 12.40625 
L 21 0 
L 10.6875 0 
z
" id="DejaVuSans-46"/>
        <path d="M 10.796875 72.90625 
L 49.515625 72.90625 
L 49.515625 64.59375 
L 19.828125 64.59375 
L 19.828125 46.734375 
Q 21.96875 47.46875 24.109375 47.828125 
Q 26.265625 48.1875 28.421875 48.1875 
Q 40.625 48.1875 47.75 41.5 
Q 54.890625 34.8125 54.890625 23.390625 
Q 54.890625 11.625 47.5625 5.09375 
Q 40.234375 -1.421875 26.90625 -1.421875 
Q 22.3125 -1.421875 17.546875 -0.640625 
Q 12.796875 0.140625 7.71875 1.703125 
L 7.71875 11.625 
Q 12.109375 9.234375 16.796875 8.0625 
Q 21.484375 6.890625 26.703125 6.890625 
Q 35.15625 6.890625 40.078125 11.328125 
Q 45.015625 15.765625 45.015625 23.390625 
Q 45.015625 31 40.078125 35.4375 
Q 35.15625 39.890625 26.703125 39.890625 
Q 22.75 39.890625 18.8125 39.015625 
Q 14.890625 38.140625 10.796875 36.28125 
z
" id="DejaVuSans-53"/>
       </defs>
       <use xlink:href="#DejaVuSans-49"/>
       <use x="63.623047" xlink:href="#DejaVuSans-48"/>
       <use x="127.246094" xlink:href="#DejaVuSans-48"/>
       <use x="190.869141" xlink:href="#DejaVuSans-55"/>
       <use x="254.492188" xlink:href="#DejaVuSans-46"/>
       <use x="286.279297" xlink:href="#DejaVuSans-53"/>
      </g>
     </g>
    </g>
    <g id="xtick_2">
     <g id="line2d_2">
      <g>
       <use style="stroke:#000000;stroke-width:0.8;" x="129.724959" xlink:href="#m242c4472b2" y="307.584"/>
      </g>
     </g>
     <g id="text_2">
      <!-- 1010.0 -->
      <g transform="translate(112.229646 322.182437)scale(0.1 -0.1)">
       <use xlink:href="#DejaVuSans-49"/>
       <use x="63.623047" xlink:href="#DejaVuSans-48"/>
       <use x="127.246094" xlink:href="#DejaVuSans-49"/>
       <use x="190.869141" xlink:href="#DejaVuSans-48"/>
       <use x="254.492188" xlink:href="#DejaVuSans-46"/>
       <use x="286.279297" xlink:href="#DejaVuSans-48"/>
      </g>
     </g>
    </g>
    <g id="xtick_3">
     <g id="line2d_3">
      <g>
       <use style="stroke:#000000;stroke-width:0.8;" x="175.840661" xlink:href="#m242c4472b2" y="307.584"/>
      </g>
     </g>
     <g id="text_3">
      <!-- 1012.5 -->
      <g transform="translate(158.345349 322.182437)scale(0.1 -0.1)">
       <defs>
        <path d="M 19.1875 8.296875 
L 53.609375 8.296875 
L 53.609375 0 
L 7.328125 0 
L 7.328125 8.296875 
Q 12.9375 14.109375 22.625 23.890625 
Q 32.328125 33.6875 34.8125 36.53125 
Q 39.546875 41.84375 41.421875 45.53125 
Q 43.3125 49.21875 43.3125 52.78125 
Q 43.3125 58.59375 39.234375 62.25 
Q 35.15625 65.921875 28.609375 65.921875 
Q 23.96875 65.921875 18.8125 64.3125 
Q 13.671875 62.703125 7.8125 59.421875 
L 7.8125 69.390625 
Q 13.765625 71.78125 18.9375 73 
Q 24.125 74.21875 28.421875 74.21875 
Q 39.75 74.21875 46.484375 68.546875 
Q 53.21875 62.890625 53.21875 53.421875 
Q 53.21875 48.921875 51.53125 44.890625 
Q 49.859375 40.875 45.40625 35.40625 
Q 44.1875 33.984375 37.640625 27.21875 
Q 31.109375 20.453125 19.1875 8.296875 
z
" id="DejaVuSans-50"/>
       </defs>
       <use xlink:href="#DejaVuSans-49"/>
       <use x="63.623047" xlink:href="#DejaVuSans-48"/>
       <use x="127.246094" xlink:href="#DejaVuSans-49"/>
       <use x="190.869141" xlink:href="#DejaVuSans-50"/>
       <use x="254.492188" xlink:href="#DejaVuSans-46"/>
       <use x="286.279297" xlink:href="#DejaVuSans-53"/>
      </g>
     </g>
    </g>
    <g id="xtick_4">
     <g id="line2d_4">
      <g>
       <use style="stroke:#000000;stroke-width:0.8;" x="221.956364" xlink:href="#m242c4472b2" y="307.584"/>
      </g>
     </g>
     <g id="text_4">
      <!-- 1015.0 -->
      <g transform="translate(204.461051 322.182437)scale(0.1 -0.1)">
       <use xlink:href="#DejaVuSans-49"/>
       <use x="63.623047" xlink:href="#DejaVuSans-48"/>
       <use x="127.246094" xlink:href="#DejaVuSans-49"/>
       <use x="190.869141" xlink:href="#DejaVuSans-53"/>
       <use x="254.492188" xlink:href="#DejaVuSans-46"/>
       <use x="286.279297" xlink:href="#DejaVuSans-48"/>
      </g>
     </g>
    </g>
    <g id="xtick_5">
     <g id="line2d_5">
      <g>
       <use style="stroke:#000000;stroke-width:0.8;" x="268.072066" xlink:href="#m242c4472b2" y="307.584"/>
      </g>
     </g>
     <g id="text_5">
      <!-- 1017.5 -->
      <g transform="translate(250.576754 322.182437)scale(0.1 -0.1)">
       <use xlink:href="#DejaVuSans-49"/>
       <use x="63.623047" xlink:href="#DejaVuSans-48"/>
       <use x="127.246094" xlink:href="#DejaVuSans-49"/>
       <use x="190.869141" xlink:href="#DejaVuSans-55"/>
       <use x="254.492188" xlink:href="#DejaVuSans-46"/>
       <use x="286.279297" xlink:href="#DejaVuSans-53"/>
      </g>
     </g>
    </g>
    <g id="xtick_6">
     <g id="line2d_6">
      <g>
       <use style="stroke:#000000;stroke-width:0.8;" x="314.187769" xlink:href="#m242c4472b2" y="307.584"/>
      </g>
     </g>
     <g id="text_6">
      <!-- 1020.0 -->
      <g transform="translate(296.692456 322.182437)scale(0.1 -0.1)">
       <use xlink:href="#DejaVuSans-49"/>
       <use x="63.623047" xlink:href="#DejaVuSans-48"/>
       <use x="127.246094" xlink:href="#DejaVuSans-50"/>
       <use x="190.869141" xlink:href="#DejaVuSans-48"/>
       <use x="254.492188" xlink:href="#DejaVuSans-46"/>
       <use x="286.279297" xlink:href="#DejaVuSans-48"/>
      </g>
     </g>
    </g>
    <g id="xtick_7">
     <g id="line2d_7">
      <g>
       <use style="stroke:#000000;stroke-width:0.8;" x="360.303471" xlink:href="#m242c4472b2" y="307.584"/>
      </g>
     </g>
     <g id="text_7">
      <!-- 1022.5 -->
      <g transform="translate(342.808159 322.182437)scale(0.1 -0.1)">
       <use xlink:href="#DejaVuSans-49"/>
       <use x="63.623047" xlink:href="#DejaVuSans-48"/>
       <use x="127.246094" xlink:href="#DejaVuSans-50"/>
       <use x="190.869141" xlink:href="#DejaVuSans-50"/>
       <use x="254.492188" xlink:href="#DejaVuSans-46"/>
       <use x="286.279297" xlink:href="#DejaVuSans-53"/>
      </g>
     </g>
    </g>
    <g id="xtick_8">
     <g id="line2d_8">
      <g>
       <use style="stroke:#000000;stroke-width:0.8;" x="406.419174" xlink:href="#m242c4472b2" y="307.584"/>
      </g>
     </g>
     <g id="text_8">
      <!-- 1025.0 -->
      <g transform="translate(388.923861 322.182437)scale(0.1 -0.1)">
       <use xlink:href="#DejaVuSans-49"/>
       <use x="63.623047" xlink:href="#DejaVuSans-48"/>
       <use x="127.246094" xlink:href="#DejaVuSans-50"/>
       <use x="190.869141" xlink:href="#DejaVuSans-53"/>
       <use x="254.492188" xlink:href="#DejaVuSans-46"/>
       <use x="286.279297" xlink:href="#DejaVuSans-48"/>
      </g>
     </g>
    </g>
    <g id="text_9">
     <!-- air_pressure from Foreca -->
     <g transform="translate(174.162344 335.860562)scale(0.1 -0.1)">
      <defs>
       <path d="M 34.28125 27.484375 
Q 23.390625 27.484375 19.1875 25 
Q 14.984375 22.515625 14.984375 16.5 
Q 14.984375 11.71875 18.140625 8.90625 
Q 21.296875 6.109375 26.703125 6.109375 
Q 34.1875 6.109375 38.703125 11.40625 
Q 43.21875 16.703125 43.21875 25.484375 
L 43.21875 27.484375 
z
M 52.203125 31.203125 
L 52.203125 0 
L 43.21875 0 
L 43.21875 8.296875 
Q 40.140625 3.328125 35.546875 0.953125 
Q 30.953125 -1.421875 24.3125 -1.421875 
Q 15.921875 -1.421875 10.953125 3.296875 
Q 6 8.015625 6 15.921875 
Q 6 25.140625 12.171875 29.828125 
Q 18.359375 34.515625 30.609375 34.515625 
L 43.21875 34.515625 
L 43.21875 35.40625 
Q 43.21875 41.609375 39.140625 45 
Q 35.0625 48.390625 27.6875 48.390625 
Q 23 48.390625 18.546875 47.265625 
Q 14.109375 46.140625 10.015625 43.890625 
L 10.015625 52.203125 
Q 14.9375 54.109375 19.578125 55.046875 
Q 24.21875 56 28.609375 56 
Q 40.484375 56 46.34375 49.84375 
Q 52.203125 43.703125 52.203125 31.203125 
z
" id="DejaVuSans-97"/>
       <path d="M 9.421875 54.6875 
L 18.40625 54.6875 
L 18.40625 0 
L 9.421875 0 
z
M 9.421875 75.984375 
L 18.40625 75.984375 
L 18.40625 64.59375 
L 9.421875 64.59375 
z
" id="DejaVuSans-105"/>
       <path d="M 41.109375 46.296875 
Q 39.59375 47.171875 37.8125 47.578125 
Q 36.03125 48 33.890625 48 
Q 26.265625 48 22.1875 43.046875 
Q 18.109375 38.09375 18.109375 28.8125 
L 18.109375 0 
L 9.078125 0 
L 9.078125 54.6875 
L 18.109375 54.6875 
L 18.109375 46.1875 
Q 20.953125 51.171875 25.484375 53.578125 
Q 30.03125 56 36.53125 56 
Q 37.453125 56 38.578125 55.875 
Q 39.703125 55.765625 41.0625 55.515625 
z
" id="DejaVuSans-114"/>
       <path d="M 50.984375 -16.609375 
L 50.984375 -23.578125 
L -0.984375 -23.578125 
L -0.984375 -16.609375 
z
" id="DejaVuSans-95"/>
       <path d="M 18.109375 8.203125 
L 18.109375 -20.796875 
L 9.078125 -20.796875 
L 9.078125 54.6875 
L 18.109375 54.6875 
L 18.109375 46.390625 
Q 20.953125 51.265625 25.265625 53.625 
Q 29.59375 56 35.59375 56 
Q 45.5625 56 51.78125 48.09375 
Q 58.015625 40.1875 58.015625 27.296875 
Q 58.015625 14.40625 51.78125 6.484375 
Q 45.5625 -1.421875 35.59375 -1.421875 
Q 29.59375 -1.421875 25.265625 0.953125 
Q 20.953125 3.328125 18.109375 8.203125 
z
M 48.6875 27.296875 
Q 48.6875 37.203125 44.609375 42.84375 
Q 40.53125 48.484375 33.40625 48.484375 
Q 26.265625 48.484375 22.1875 42.84375 
Q 18.109375 37.203125 18.109375 27.296875 
Q 18.109375 17.390625 22.1875 11.75 
Q 26.265625 6.109375 33.40625 6.109375 
Q 40.53125 6.109375 44.609375 11.75 
Q 48.6875 17.390625 48.6875 27.296875 
z
" id="DejaVuSans-112"/>
       <path d="M 56.203125 29.59375 
L 56.203125 25.203125 
L 14.890625 25.203125 
Q 15.484375 15.921875 20.484375 11.0625 
Q 25.484375 6.203125 34.421875 6.203125 
Q 39.59375 6.203125 44.453125 7.46875 
Q 49.3125 8.734375 54.109375 11.28125 
L 54.109375 2.78125 
Q 49.265625 0.734375 44.1875 -0.34375 
Q 39.109375 -1.421875 33.890625 -1.421875 
Q 20.796875 -1.421875 13.15625 6.1875 
Q 5.515625 13.8125 5.515625 26.8125 
Q 5.515625 40.234375 12.765625 48.109375 
Q 20.015625 56 32.328125 56 
Q 43.359375 56 49.78125 48.890625 
Q 56.203125 41.796875 56.203125 29.59375 
z
M 47.21875 32.234375 
Q 47.125 39.59375 43.09375 43.984375 
Q 39.0625 48.390625 32.421875 48.390625 
Q 24.90625 48.390625 20.390625 44.140625 
Q 15.875 39.890625 15.1875 32.171875 
z
" id="DejaVuSans-101"/>
       <path d="M 44.28125 53.078125 
L 44.28125 44.578125 
Q 40.484375 46.53125 36.375 47.5 
Q 32.28125 48.484375 27.875 48.484375 
Q 21.1875 48.484375 17.84375 46.4375 
Q 14.5 44.390625 14.5 40.28125 
Q 14.5 37.15625 16.890625 35.375 
Q 19.28125 33.59375 26.515625 31.984375 
L 29.59375 31.296875 
Q 39.15625 29.25 43.1875 25.515625 
Q 47.21875 21.78125 47.21875 15.09375 
Q 47.21875 7.46875 41.1875 3.015625 
Q 35.15625 -1.421875 24.609375 -1.421875 
Q 20.21875 -1.421875 15.453125 -0.5625 
Q 10.6875 0.296875 5.421875 2 
L 5.421875 11.28125 
Q 10.40625 8.6875 15.234375 7.390625 
Q 20.0625 6.109375 24.8125 6.109375 
Q 31.15625 6.109375 34.5625 8.28125 
Q 37.984375 10.453125 37.984375 14.40625 
Q 37.984375 18.0625 35.515625 20.015625 
Q 33.0625 21.96875 24.703125 23.78125 
L 21.578125 24.515625 
Q 13.234375 26.265625 9.515625 29.90625 
Q 5.8125 33.546875 5.8125 39.890625 
Q 5.8125 47.609375 11.28125 51.796875 
Q 16.75 56 26.8125 56 
Q 31.78125 56 36.171875 55.265625 
Q 40.578125 54.546875 44.28125 53.078125 
z
" id="DejaVuSans-115"/>
       <path d="M 8.5 21.578125 
L 8.5 54.6875 
L 17.484375 54.6875 
L 17.484375 21.921875 
Q 17.484375 14.15625 20.5 10.265625 
Q 23.53125 6.390625 29.59375 6.390625 
Q 36.859375 6.390625 41.078125 11.03125 
Q 45.3125 15.671875 45.3125 23.6875 
L 45.3125 54.6875 
L 54.296875 54.6875 
L 54.296875 0 
L 45.3125 0 
L 45.3125 8.40625 
Q 42.046875 3.421875 37.71875 1 
Q 33.40625 -1.421875 27.6875 -1.421875 
Q 18.265625 -1.421875 13.375 4.4375 
Q 8.5 10.296875 8.5 21.578125 
z
M 31.109375 56 
z
" id="DejaVuSans-117"/>
       <path id="DejaVuSans-32"/>
       <path d="M 37.109375 75.984375 
L 37.109375 68.5 
L 28.515625 68.5 
Q 23.6875 68.5 21.796875 66.546875 
Q 19.921875 64.59375 19.921875 59.515625 
L 19.921875 54.6875 
L 34.71875 54.6875 
L 34.71875 47.703125 
L 19.921875 47.703125 
L 19.921875 0 
L 10.890625 0 
L 10.890625 47.703125 
L 2.296875 47.703125 
L 2.296875 54.6875 
L 10.890625 54.6875 
L 10.890625 58.5 
Q 10.890625 67.625 15.140625 71.796875 
Q 19.390625 75.984375 28.609375 75.984375 
z
" id="DejaVuSans-102"/>
       <path d="M 30.609375 48.390625 
Q 23.390625 48.390625 19.1875 42.75 
Q 14.984375 37.109375 14.984375 27.296875 
Q 14.984375 17.484375 19.15625 11.84375 
Q 23.34375 6.203125 30.609375 6.203125 
Q 37.796875 6.203125 41.984375 11.859375 
Q 46.1875 17.53125 46.1875 27.296875 
Q 46.1875 37.015625 41.984375 42.703125 
Q 37.796875 48.390625 30.609375 48.390625 
z
M 30.609375 56 
Q 42.328125 56 49.015625 48.375 
Q 55.71875 40.765625 55.71875 27.296875 
Q 55.71875 13.875 49.015625 6.21875 
Q 42.328125 -1.421875 30.609375 -1.421875 
Q 18.84375 -1.421875 12.171875 6.21875 
Q 5.515625 13.875 5.515625 27.296875 
Q 5.515625 40.765625 12.171875 48.375 
Q 18.84375 56 30.609375 56 
z
" id="DejaVuSans-111"/>
       <path d="M 52 44.1875 
Q 55.375 50.25 60.0625 53.125 
Q 64.75 56 71.09375 56 
Q 79.640625 56 84.28125 50.015625 
Q 88.921875 44.046875 88.921875 33.015625 
L 88.921875 0 
L 79.890625 0 
L 79.890625 32.71875 
Q 79.890625 40.578125 77.09375 44.375 
Q 74.3125 48.1875 68.609375 48.1875 
Q 61.625 48.1875 57.5625 43.546875 
Q 53.515625 38.921875 53.515625 30.90625 
L 53.515625 0 
L 44.484375 0 
L 44.484375 32.71875 
Q 44.484375 40.625 41.703125 44.40625 
Q 38.921875 48.1875 33.109375 48.1875 
Q 26.21875 48.1875 22.15625 43.53125 
Q 18.109375 38.875 18.109375 30.90625 
L 18.109375 0 
L 9.078125 0 
L 9.078125 54.6875 
L 18.109375 54.6875 
L 18.109375 46.1875 
Q 21.1875 51.21875 25.484375 53.609375 
Q 29.78125 56 35.6875 56 
Q 41.65625 56 45.828125 52.96875 
Q 50 49.953125 52 44.1875 
z
" id="DejaVuSans-109"/>
       <path d="M 9.8125 72.90625 
L 51.703125 72.90625 
L 51.703125 64.59375 
L 19.671875 64.59375 
L 19.671875 43.109375 
L 48.578125 43.109375 
L 48.578125 34.8125 
L 19.671875 34.8125 
L 19.671875 0 
L 9.8125 0 
z
" id="DejaVuSans-70"/>
       <path d="M 48.78125 52.59375 
L 48.78125 44.1875 
Q 44.96875 46.296875 41.140625 47.34375 
Q 37.3125 48.390625 33.40625 48.390625 
Q 24.65625 48.390625 19.8125 42.84375 
Q 14.984375 37.3125 14.984375 27.296875 
Q 14.984375 17.28125 19.8125 11.734375 
Q 24.65625 6.203125 33.40625 6.203125 
Q 37.3125 6.203125 41.140625 7.25 
Q 44.96875 8.296875 48.78125 10.40625 
L 48.78125 2.09375 
Q 45.015625 0.34375 40.984375 -0.53125 
Q 36.96875 -1.421875 32.421875 -1.421875 
Q 20.0625 -1.421875 12.78125 6.34375 
Q 5.515625 14.109375 5.515625 27.296875 
Q 5.515625 40.671875 12.859375 48.328125 
Q 20.21875 56 33.015625 56 
Q 37.15625 56 41.109375 55.140625 
Q 45.0625 54.296875 48.78125 52.59375 
z
" id="DejaVuSans-99"/>
      </defs>
      <use xlink:href="#DejaVuSans-97"/>
      <use x="61.279297" xlink:href="#DejaVuSans-105"/>
      <use x="89.0625" xlink:href="#DejaVuSans-114"/>
      <use x="130.175781" xlink:href="#DejaVuSans-95"/>
      <use x="180.175781" xlink:href="#DejaVuSans-112"/>
      <use x="243.652344" xlink:href="#DejaVuSans-114"/>
      <use x="282.515625" xlink:href="#DejaVuSans-101"/>
      <use x="344.039062" xlink:href="#DejaVuSans-115"/>
      <use x="396.138672" xlink:href="#DejaVuSans-115"/>
      <use x="448.238281" xlink:href="#DejaVuSans-117"/>
      <use x="511.617188" xlink:href="#DejaVuSans-114"/>
      <use x="550.480469" xlink:href="#DejaVuSans-101"/>
      <use x="612.003906" xlink:href="#DejaVuSans-32"/>
      <use x="643.791016" xlink:href="#DejaVuSans-102"/>
      <use x="678.996094" xlink:href="#DejaVuSans-114"/>
      <use x="717.859375" xlink:href="#DejaVuSans-111"/>
      <use x="779.041016" xlink:href="#DejaVuSans-109"/>
      <use x="876.453125" xlink:href="#DejaVuSans-32"/>
      <use x="908.240234" xlink:href="#DejaVuSans-70"/>
      <use x="962.134766" xlink:href="#DejaVuSans-111"/>
      <use x="1023.316406" xlink:href="#DejaVuSans-114"/>
      <use x="1062.179688" xlink:href="#DejaVuSans-101"/>
      <use x="1123.703125" xlink:href="#DejaVuSans-99"/>
      <use x="1178.683594" xlink:href="#DejaVuSans-97"/>
     </g>
    </g>
   </g>
   <g id="matplotlib.axis_2">
    <g id="ytick_1">
     <g id="line2d_9">
      <defs>
       <path d="M 0 0 
L -3.5 0 
" id="mc09053af05" style="stroke:#000000;stroke-width:0.8;"/>
      </defs>
      <g>
       <use style="stroke:#000000;stroke-width:0.8;" x="57.6" xlink:href="#mc09053af05" y="293.694921"/>
      </g>
     </g>
     <g id="text_10">
      <!-- 5 -->
      <g transform="translate(44.2375 297.49414)scale(0.1 -0.1)">
       <use xlink:href="#DejaVuSans-53"/>
      </g>
     </g>
    </g>
    <g id="ytick_2">
     <g id="line2d_10">
      <g>
       <use style="stroke:#000000;stroke-width:0.8;" x="57.6" xlink:href="#mc09053af05" y="248.185308"/>
      </g>
     </g>
     <g id="text_11">
      <!-- 10 -->
      <g transform="translate(37.875 251.984527)scale(0.1 -0.1)">
       <use xlink:href="#DejaVuSans-49"/>
       <use x="63.623047" xlink:href="#DejaVuSans-48"/>
      </g>
     </g>
    </g>
    <g id="ytick_3">
     <g id="line2d_11">
      <g>
       <use style="stroke:#000000;stroke-width:0.8;" x="57.6" xlink:href="#mc09053af05" y="202.675696"/>
      </g>
     </g>
     <g id="text_12">
      <!-- 15 -->
      <g transform="translate(37.875 206.474914)scale(0.1 -0.1)">
       <use xlink:href="#DejaVuSans-49"/>
       <use x="63.623047" xlink:href="#DejaVuSans-53"/>
      </g>
     </g>
    </g>
    <g id="ytick_4">
     <g id="line2d_12">
      <g>
       <use style="stroke:#000000;stroke-width:0.8;" x="57.6" xlink:href="#mc09053af05" y="157.166083"/>
      </g>
     </g>
     <g id="text_13">
      <!-- 20 -->
      <g transform="translate(37.875 160.965301)scale(0.1 -0.1)">
       <use xlink:href="#DejaVuSans-50"/>
       <use x="63.623047" xlink:href="#DejaVuSans-48"/>
      </g>
     </g>
    </g>
    <g id="ytick_5">
     <g id="line2d_13">
      <g>
       <use style="stroke:#000000;stroke-width:0.8;" x="57.6" xlink:href="#mc09053af05" y="111.65647"/>
      </g>
     </g>
     <g id="text_14">
      <!-- 25 -->
      <g transform="translate(37.875 115.455689)scale(0.1 -0.1)">
       <use xlink:href="#DejaVuSans-50"/>
       <use x="63.623047" xlink:href="#DejaVuSans-53"/>
      </g>
     </g>
    </g>
    <g id="ytick_6">
     <g id="line2d_14">
      <g>
       <use style="stroke:#000000;stroke-width:0.8;" x="57.6" xlink:href="#mc09053af05" y="66.146857"/>
      </g>
     </g>
     <g id="text_15">
      <!-- 30 -->
      <g transform="translate(37.875 69.946076)scale(0.1 -0.1)">
       <defs>
        <path d="M 40.578125 39.3125 
Q 47.65625 37.796875 51.625 33 
Q 55.609375 28.21875 55.609375 21.1875 
Q 55.609375 10.40625 48.1875 4.484375 
Q 40.765625 -1.421875 27.09375 -1.421875 
Q 22.515625 -1.421875 17.65625 -0.515625 
Q 12.796875 0.390625 7.625 2.203125 
L 7.625 11.71875 
Q 11.71875 9.328125 16.59375 8.109375 
Q 21.484375 6.890625 26.8125 6.890625 
Q 36.078125 6.890625 40.9375 10.546875 
Q 45.796875 14.203125 45.796875 21.1875 
Q 45.796875 27.640625 41.28125 31.265625 
Q 36.765625 34.90625 28.71875 34.90625 
L 20.21875 34.90625 
L 20.21875 43.015625 
L 29.109375 43.015625 
Q 36.375 43.015625 40.234375 45.921875 
Q 44.09375 48.828125 44.09375 54.296875 
Q 44.09375 59.90625 40.109375 62.90625 
Q 36.140625 65.921875 28.71875 65.921875 
Q 24.65625 65.921875 20.015625 65.03125 
Q 15.375 64.15625 9.8125 62.3125 
L 9.8125 71.09375 
Q 15.4375 72.65625 20.34375 73.4375 
Q 25.25 74.21875 29.59375 74.21875 
Q 40.828125 74.21875 47.359375 69.109375 
Q 53.90625 64.015625 53.90625 55.328125 
Q 53.90625 49.265625 50.4375 45.09375 
Q 46.96875 40.921875 40.578125 39.3125 
z
" id="DejaVuSans-51"/>
       </defs>
       <use xlink:href="#DejaVuSans-51"/>
       <use x="63.623047" xlink:href="#DejaVuSans-48"/>
      </g>
     </g>
    </g>
   </g>
   <g id="line2d_15">
    <path clip-path="url(#pcd3eb2a9d6)" d="M 73.832727 270.839994 
L 74.01719 281.070555 
L 74.201653 280.38791 
L 74.386116 281.261695 
L 74.570579 270.248369 
L 74.755041 278.740462 
L 74.939504 280.879414 
L 75.30843 278.840584 
L 75.492893 283.218608 
L 75.861818 287.29627 
L 76.230744 270.184655 
L 76.599669 277.047505 
L 76.968595 279.423107 
L 77.337521 284.310839 
L 77.890909 285.257439 
L 78.259835 284.238024 
L 78.62876 277.893984 
L 78.997686 273.597876 
L 79.182149 294.150017 
L 79.366612 287.787774 
L 79.735537 293.631208 
L 80.288926 276.765345 
L 80.657851 291.719804 
L 81.026777 294.441279 
L 81.764628 285.038993 
L 82.133554 293.576596 
L 82.318017 286.9686 
L 82.502479 294.932783 
L 82.686942 293.321742 
L 83.055868 293.112398 
L 83.424793 289.981337 
L 83.793719 292.329633 
L 83.978182 292.293225 
L 84.162645 288.069933 
L 84.347107 289.09845 
L 84.716033 292.447958 
L 84.900496 290.736796 
L 85.269421 291.710702 
L 85.453884 293.085092 
L 85.82281 291.7016 
L 86.191736 289.589954 
L 86.560661 285.921879 
L 86.745124 294.386667 
L 87.11405 287.514716 
L 87.482975 287.005008 
L 87.667438 293.776839 
L 87.851901 293.1215 
L 88.036364 293.094194 
L 88.220826 290.272598 
L 88.589752 288.616048 
L 88.958678 291.191893 
L 89.512066 290.254395 
L 89.880992 289.234979 
L 90.43438 293.203417 
L 90.803306 290.964344 
L 91.541157 292.202206 
L 91.72562 285.302949 
L 92.279008 292.211308 
L 92.647934 287.569327 
L 93.385785 287.969812 
L 94.123636 291.637887 
L 94.308099 287.01411 
L 94.677025 292.056575 
L 95.414876 288.088137 
L 95.968264 293.858756 
L 96.706116 288.097239 
L 97.443967 288.270175 
L 97.997355 289.635464 
L 98.735207 287.997118 
L 99.288595 289.38061 
L 100.026446 287.478308 
L 100.579835 292.147594 
L 101.317686 293.157908 
L 102.055537 287.978914 
L 102.608926 291.46495 
L 103.346777 286.9686 
L 103.900165 293.40366 
L 104.638017 291.710702 
L 105.375868 289.435221 
L 105.929256 293.1215 
L 106.667107 288.62515 
L 107.220496 293.16701 
L 107.404959 246.137376 
L 107.958347 268.5008 
L 108.696198 246.210191 
L 109.249587 267.390365 
L 109.802975 276.319351 
L 110.356364 278.30357 
L 111.094215 287.150639 
L 111.46314 280.961332 
L 112.016529 281.325408 
L 112.569917 290.37272 
L 113.123306 138.425224 
L 113.676694 285.293847 
L 114.230083 283.382443 
L 114.967934 282.37213 
L 115.521322 287.751366 
L 116.074711 285.184624 
L 116.628099 291.246504 
L 117.181488 289.753789 
L 117.734876 288.798087 
L 118.288264 286.73195 
L 118.841653 289.080247 
L 119.94843 282.008053 
L 120.686281 293.694921 
L 121.239669 294.241037 
L 121.793058 274.071176 
L 122.530909 289.3351 
L 123.822149 293.239825 
L 124.56 293.558392 
L 125.113388 284.620304 
L 125.297851 291.819925 
L 125.85124 273.998361 
L 126.220165 291.74711 
L 126.589091 275.017776 
L 126.958017 279.168253 
L 127.142479 290.2817 
L 127.511405 289.307795 
L 127.880331 285.903676 
L 128.064793 282.28111 
L 128.618182 273.625182 
L 129.17157 291.364829 
L 129.724959 279.96012 
L 129.909421 290.982548 
L 130.278347 288.406704 
L 130.647273 291.656091 
L 130.831736 288.19736 
L 131.200661 291.674294 
L 131.385124 275.145203 
L 131.75405 283.828437 
L 131.938512 290.836918 
L 132.307438 285.384866 
L 132.676364 291.219198 
L 132.860826 285.184624 
L 133.229752 292.029269 
L 133.414215 283.346035 
L 133.967603 283.737418 
L 134.520992 285.839962 
L 134.705455 291.073568 
L 135.07438 277.174932 
L 135.443306 288.643354 
L 135.627769 282.035358 
L 135.812231 290.809612 
L 135.996694 286.358772 
L 136.181157 284.802343 
L 136.734545 284.21982 
L 137.103471 289.799298 
L 137.287934 273.770813 
L 137.841322 284.684018 
L 138.025785 292.802933 
L 138.210248 284.856954 
L 138.394711 282.963755 
L 138.763636 280.497134 
L 139.132562 259.653731 
L 139.317025 282.490455 
L 139.501488 286.158529 
L 139.68595 242.350976 
L 139.870413 277.87578 
L 140.239339 283.473462 
L 140.423802 281.634874 
L 140.792727 292.165798 
L 140.97719 286.140326 
L 141.346116 289.316896 
L 141.530579 286.522606 
L 141.715041 285.466783 
L 142.083967 286.9686 
L 142.26843 283.619093 
L 142.637355 278.986214 
L 142.821818 288.306583 
L 143.190744 276.656122 
L 143.375207 285.63972 
L 143.744132 276.674326 
L 144.113058 292.812035 
L 144.297521 282.881837 
L 144.481983 291.146383 
L 144.850909 282.56327 
L 145.219835 286.322364 
L 145.404298 279.259272 
L 145.773223 274.963165 
L 145.957686 293.494679 
L 146.326612 278.995316 
L 146.511074 293.367252 
L 146.88 282.708901 
L 147.248926 284.420062 
L 147.433388 287.177945 
L 147.617851 282.199193 
L 147.986777 291.829027 
L 148.17124 280.114853 
L 148.540165 288.95282 
L 148.724628 288.652456 
L 149.093554 273.252003 
L 149.278017 287.760468 
L 149.831405 271.686472 
L 150.384793 285.885472 
L 150.569256 256.085777 
L 150.938182 288.24287 
L 151.122645 283.473462 
L 151.49157 288.188258 
L 151.676033 284.784139 
L 152.044959 290.390923 
L 152.229421 290.782306 
L 152.413884 275.03598 
L 152.598347 279.741674 
L 152.78281 290.964344 
L 152.967273 290.09056 
L 153.336198 279.322986 
L 153.705124 289.580852 
L 153.889587 286.477097 
L 154.258512 291.355727 
L 154.627438 286.085714 
L 155.180826 283.837539 
L 155.549752 281.598466 
L 155.734215 281.689485 
L 155.918678 291.819925 
L 156.287603 283.072978 
L 156.472066 291.018956 
L 156.656529 288.761679 
L 156.840992 280.67007 
L 157.763306 287.050518 
L 158.132231 284.228922 
L 158.68562 291.109975 
L 159.239008 291.965556 
L 159.792397 285.284745 
L 160.345785 291.74711 
L 160.530248 288.90731 
L 160.714711 292.639098 
L 161.083636 283.191303 
L 161.268099 285.776249 
L 161.452562 290.736796 
L 161.637025 286.741052 
L 161.821488 270.485019 
L 162.00595 290.56386 
L 162.190413 290.054152 
L 162.559339 290.791408 
L 162.743802 292.447958 
L 162.928264 280.71558 
L 163.112727 289.389712 
L 163.481653 293.267131 
L 163.850579 286.768358 
L 164.035041 291.455848 
L 164.219504 291.710702 
L 164.403967 289.963133 
L 164.58843 290.445535 
L 164.772893 292.548079 
L 164.957355 284.966178 
L 165.141818 290.199783 
L 165.510744 270.193757 
L 165.695207 293.440067 
L 165.879669 284.17431 
L 166.064132 282.745308 
L 166.248595 288.015322 
L 166.617521 289.09845 
L 166.801983 283.673705 
L 166.986446 285.057197 
L 167.170909 289.835706 
L 167.355372 287.423697 
L 167.539835 292.921258 
L 167.90876 282.208295 
L 168.093223 219.823718 
L 168.277686 288.71617 
L 168.646612 291.173689 
L 169.015537 277.520805 
L 169.2 286.768358 
L 169.937851 292.466162 
L 170.122314 282.909143 
L 170.675702 288.224666 
L 170.860165 275.736828 
L 171.044628 287.851487 
L 171.413554 289.653668 
L 171.782479 285.985593 
L 172.151405 289.580852 
L 172.335868 289.371508 
L 172.704793 284.292635 
L 173.073719 282.508658 
L 173.442645 288.15185 
L 173.81157 229.39894 
L 174.364959 283.346035 
L 174.549421 285.102706 
L 174.733884 288.415806 
L 174.918347 270.412203 
L 175.10281 289.872114 
L 175.287273 288.843597 
L 175.471736 254.82061 
L 175.656198 292.202206 
L 176.025124 285.812656 
L 176.209587 263.167073 
L 176.39405 292.083881 
L 176.578512 288.251972 
L 176.762975 278.458303 
L 177.131901 286.258651 
L 177.316364 287.569327 
L 177.500826 291.200994 
L 177.685289 281.079657 
L 177.869752 279.978324 
L 178.054215 288.488622 
L 178.238678 209.629564 
L 178.42314 280.287789 
L 178.607603 289.116654 
L 178.792066 289.89942 
L 178.976529 274.99047 
L 179.160992 291.956454 
L 179.345455 269.993515 
L 179.529917 289.207673 
L 179.71438 220.715706 
L 179.898843 290.345414 
L 180.083306 288.898208 
L 180.267769 279.732572 
L 180.452231 292.247716 
L 180.636694 292.056575 
L 180.821157 270.82179 
L 181.00562 290.727694 
L 181.190083 288.379398 
L 181.374545 266.161605 
L 181.559008 292.329633 
L 181.743471 284.684018 
L 181.927934 283.437055 
L 182.112397 289.799298 
L 182.29686 292.147594 
L 182.481322 288.379398 
L 182.665785 272.542053 
L 182.850248 291.93825 
L 183.034711 292.120289 
L 183.219174 276.610613 
L 183.403636 290.773204 
L 183.588099 287.168843 
L 183.772562 278.958909 
L 183.957025 292.102085 
L 184.141488 292.948564 
L 184.32595 273.37943 
L 184.510413 293.103296 
L 184.694876 290.836918 
L 184.879339 257.551187 
L 185.063802 289.371508 
L 185.248264 281.944339 
L 185.432727 292.22041 
L 185.61719 287.714958 
L 185.801653 292.083881 
L 185.986116 293.376354 
L 186.170579 289.043839 
L 186.355041 290.208885 
L 186.539504 293.685819 
L 186.723967 293.130602 
L 186.90843 292.994073 
L 187.277355 289.271387 
L 187.461818 290.791408 
L 188.015207 290.718593 
L 188.568595 292.284123 
L 188.753058 289.071145 
L 189.121983 291.191893 
L 189.306446 288.798087 
L 189.675372 289.926725 
L 189.859835 220.906846 
L 190.22876 287.323575 
L 190.413223 286.158529 
L 190.597686 294.25924 
L 190.966612 288.8618 
L 191.151074 290.973446 
L 191.335537 279.386699 
L 191.52 288.088137 
L 191.704463 285.011687 
L 191.888926 284.101495 
L 192.073388 290.982548 
L 192.257851 292.766525 
L 192.442314 279.787184 
L 192.626777 292.338735 
L 192.81124 289.535343 
L 192.995702 253.59185 
L 193.180165 291.337523 
L 193.364628 289.589954 
L 193.549091 289.298693 
L 193.733554 291.528664 
L 193.918017 290.081458 
L 194.102479 283.819335 
L 194.286942 288.288379 
L 194.471405 286.140326 
L 194.655868 291.838129 
L 195.024793 292.502569 
L 195.209256 286.759256 
L 195.393719 293.203417 
L 195.578182 275.309038 
L 195.762645 292.821137 
L 195.947107 292.912156 
L 196.13157 287.359983 
L 196.316033 285.366662 
L 196.500496 279.705266 
L 196.684959 285.293847 
L 196.869421 286.886683 
L 197.053884 283.446156 
L 197.42281 295.333267 
L 197.791736 285.111808 
L 198.160661 289.781095 
L 198.345124 289.180368 
L 198.71405 281.015943 
L 198.898512 289.307795 
L 199.267438 287.605735 
L 199.451901 292.284123 
L 199.820826 281.653078 
L 200.005289 287.268964 
L 200.189752 285.275643 
L 200.374215 288.424908 
L 200.558678 277.630028 
L 200.74314 285.849064 
L 201.296529 274.007463 
L 201.665455 285.284745 
L 202.03438 289.498935 
L 202.218843 284.620304 
L 202.403306 285.248337 
L 202.772231 288.925514 
L 202.956694 286.167631 
L 203.32562 289.435221 
L 203.510083 294.905477 
L 203.694545 290.190681 
L 203.879008 292.566283 
L 204.063471 288.506825 
L 204.432397 290.054152 
L 204.801322 282.153683 
L 204.985785 290.418229 
L 205.170248 289.771993 
L 205.723636 283.500768 
L 206.092562 292.256817 
L 207.014876 280.588153 
L 207.752727 287.805977 
L 208.859504 284.492878 
L 209.22843 294.332056 
L 209.412893 284.64761 
L 209.597355 293.804144 
L 209.966281 287.505614 
L 210.150744 289.09845 
L 210.335207 292.848442 
L 210.519669 285.430376 
L 211.073058 288.461316 
L 211.626446 286.650033 
L 212.179835 279.550534 
L 212.364298 290.37272 
L 212.733223 278.458303 
L 213.102149 293.075991 
L 213.471074 279.696164 
L 213.655537 292.384244 
L 214.024463 276.337555 
L 214.393388 295.142127 
L 214.577851 277.202238 
L 215.13124 276.574205 
L 215.684628 274.717413 
L 216.238017 273.561469 
L 216.422479 292.739219 
L 216.791405 280.970434 
L 217.160331 289.134858 
L 217.344793 268.282353 
L 217.898182 277.056607 
L 218.45157 277.093014 
L 219.189421 287.350881 
L 219.74281 276.965588 
L 219.927273 291.801721 
L 220.296198 280.615459 
L 220.480661 295.488 
L 220.849587 283.355137 
L 221.218512 291.191893 
L 221.402975 286.73195 
L 221.587438 294.35026 
L 221.771901 290.955243 
L 221.956364 268.846673 
L 222.325289 288.24287 
L 222.509752 286.122122 
L 222.694215 292.120289 
L 222.878678 291.674294 
L 223.06314 288.798087 
L 223.247603 289.14396 
L 223.432066 286.085714 
L 223.616529 272.751397 
L 223.800992 292.311429 
L 223.985455 289.708279 
L 224.169917 280.688274 
L 224.35438 282.317518 
L 224.723306 275.864255 
L 225.092231 286.085714 
L 225.276694 287.542022 
L 225.461157 279.596043 
L 225.64562 281.070555 
L 225.830083 276.492288 
L 226.014545 281.66218 
L 226.199008 278.567526 
L 226.567934 282.363028 
L 226.752397 275.27263 
L 226.93686 282.599678 
L 227.121322 271.285988 
L 227.490248 287.341779 
L 227.674711 289.180368 
L 227.859174 288.90731 
L 228.043636 281.762301 
L 228.228099 279.932814 
L 228.597025 277.40248 
L 228.781488 281.762301 
L 229.150413 278.804176 
L 229.334876 280.90672 
L 229.519339 286.786562 
L 229.888264 283.31873 
L 230.072727 264.277508 
L 230.25719 226.859504 
L 230.441653 258.925577 
L 230.810579 291.428543 
L 231.54843 293.603902 
L 232.101818 292.011066 
L 232.839669 290.882427 
L 233.577521 267.535996 
L 234.130909 292.793831 
L 234.86876 290.108764 
L 235.606612 292.184002 
L 236.344463 285.548701 
L 237.820165 294.195527 
L 238.373554 291.810823 
L 239.111405 293.148806 
L 239.849256 292.202206 
L 240.587107 289.18947 
L 241.324959 292.948564 
L 241.878347 292.602691 
L 242.616198 290.472841 
L 243.35405 289.990439 
L 244.091901 291.710702 
L 244.829752 286.977702 
L 245.014215 292.247716 
L 245.198678 293.64031 
L 245.38314 293.895164 
L 245.567603 284.583897 
L 245.752066 288.852698 
L 245.936529 276.100905 
L 246.120992 277.930391 
L 246.305455 289.935827 
L 246.67438 294.241037 
L 246.858843 288.834495 
L 247.043306 286.722849 
L 247.227769 291.829027 
L 247.596694 285.576006 
L 247.781157 287.705856 
L 247.96562 283.455258 
L 248.150083 288.306583 
L 248.334545 286.058408 
L 248.519008 53.568 
L 248.703471 285.548701 
L 248.887934 289.944929 
L 249.072397 281.862422 
L 249.25686 290.500146 
L 249.810248 285.59421 
L 249.994711 289.553546 
L 250.179174 286.82297 
L 250.548099 289.280489 
L 250.732562 288.315685 
L 251.101488 274.571782 
L 251.28595 182.078045 
L 251.470413 277.63913 
L 251.839339 286.295058 
L 254.606281 286.158529 
L 254.975207 293.749533 
L 255.159669 287.869691 
L 255.713058 293.349048 
L 256.266446 291.901843 
L 256.819835 291.765314 
L 257.926612 292.984971 
L 258.48 292.120289 
L 259.033388 293.094194 
L 259.402314 294.377565 
L 259.955702 292.711914 
L 260.509091 293.039583 
L 261.062479 294.896375 
L 261.615868 292.193104 
L 262.169256 287.077824 
L 262.722645 293.1215 
L 263.276033 292.830239 
L 263.829421 293.713125 
L 264.38281 293.694921 
L 264.936198 241.067605 
L 265.489587 290.436433 
L 265.858512 294.632419 
L 266.411901 291.155485 
L 266.965289 291.51046 
L 267.518678 291.03716 
L 268.625455 291.592377 
L 269.178843 293.931571 
L 269.732231 292.256817 
L 270.28562 292.548079 
L 270.839008 293.512883 
L 271.392397 290.13607 
L 271.57686 290.855121 
L 271.761322 292.502569 
L 272.130248 287.29627 
L 272.499174 291.692498 
L 272.683636 289.435221 
L 272.868099 289.371508 
L 273.052562 293.967979 
L 273.237025 291.710702 
L 273.421488 293.503781 
L 273.60595 291.792619 
L 273.790413 285.958287 
L 273.974876 287.405493 
L 274.159339 292.447958 
L 274.343802 294.040794 
L 274.528264 289.753789 
L 274.712727 291.046262 
L 274.89719 293.83145 
L 275.266116 285.976491 
L 275.450579 292.074779 
L 275.635041 286.176733 
L 275.819504 290.636675 
L 276.18843 290.572962 
L 276.372893 277.775659 
L 276.926281 286.194937 
L 277.110744 280.706478 
L 277.295207 290.60937 
L 277.479669 289.535343 
L 277.664132 291.555969 
L 277.848595 291.792619 
L 278.033058 287.214352 
L 278.217521 293.339946 
L 278.401983 287.005008 
L 278.586446 288.588743 
L 278.955372 294.0681 
L 279.139835 273.051761 
L 279.50876 280.961332 
L 279.693223 291.082669 
L 280.062149 281.289001 
L 280.431074 292.083881 
L 280.615537 286.73195 
L 280.984463 281.889728 
L 281.168926 290.463739 
L 281.537851 279.122743 
L 281.906777 292.675506 
L 282.09124 253.737481 
L 282.460165 279.350291 
L 283.013554 283.346035 
L 283.198017 294.359362 
L 283.566942 250.315158 
L 283.935868 279.714368 
L 284.489256 286.003797 
L 284.673719 293.758635 
L 285.964959 279.040826 
L 286.149421 286.404281 
L 286.518347 284.529285 
L 286.887273 294.413973 
L 287.071736 274.298724 
L 287.440661 294.150017 
L 287.625124 279.796285 
L 288.178512 266.75323 
L 288.547438 286.704645 
L 288.731901 255.630681 
L 288.916364 289.14396 
L 289.100826 289.38061 
L 289.285289 289.14396 
L 289.654215 290.873325 
L 289.838678 289.771993 
L 290.207603 293.066889 
L 290.392066 292.912156 
L 290.945455 288.543233 
L 291.129917 291.255606 
L 291.31438 290.946141 
L 291.498843 289.162164 
L 291.867769 294.632419 
L 292.052231 276.02809 
L 292.421157 294.313852 
L 292.60562 290.491045 
L 292.974545 290.381821 
L 293.159008 287.259862 
L 293.527934 290.454637 
L 293.712397 281.471039 
L 294.081322 290.946141 
L 294.450248 292.293225 
L 295.003636 289.599056 
L 295.557025 285.093604 
L 296.110413 288.834495 
L 296.663802 291.109975 
L 296.848264 293.540189 
L 297.21719 291.100873 
L 297.586116 290.217987 
L 297.770579 288.697966 
L 298.139504 289.080247 
L 298.323967 293.130602 
L 298.50843 292.338735 
L 298.877355 292.165798 
L 299.061818 294.168221 
L 299.430744 291.137281 
L 299.615207 293.895164 
L 299.799669 285.585108 
L 299.984132 287.232556 
L 300.353058 283.364239 
L 300.537521 292.347837 
L 300.721983 288.342991 
L 300.906446 229.080373 
L 301.275372 286.850275 
L 301.459835 292.784729 
L 301.82876 284.137903 
L 302.013223 284.957076 
L 302.197686 221.125293 
L 302.382149 280.205872 
L 302.566612 287.29627 
L 302.751074 287.787774 
L 302.935537 282.535964 
L 303.12 289.389712 
L 303.488926 291.437644 
L 303.673388 289.826604 
L 303.857851 289.872114 
L 304.042314 288.233768 
L 304.226777 275.900663 
L 304.41124 290.663981 
L 304.595702 290.263496 
L 304.780165 287.214352 
L 304.964628 288.980125 
L 305.149091 285.40307 
L 305.518017 291.810823 
L 305.702479 289.38061 
L 305.886942 252.900104 
L 306.071405 292.229512 
L 306.255868 276.082701 
L 306.440331 289.153062 
L 306.624793 291.055364 
L 306.993719 293.440067 
L 307.178182 285.111808 
L 307.362645 284.574795 
L 307.547107 286.568116 
L 307.73157 286.30416 
L 307.916033 291.474052 
L 308.100496 278.958909 
L 308.284959 291.592377 
L 308.469421 290.318108 
L 308.653884 289.881216 
L 308.838347 283.482564 
L 309.02281 290.117866 
L 309.207273 287.906098 
L 309.391736 291.892741 
L 309.576198 277.757455 
L 309.760661 291.765314 
L 309.945124 284.110597 
L 310.129587 290.673083 
L 310.31405 284.301737 
L 310.498512 286.331466 
L 310.682975 284.793241 
L 310.867438 263.840615 
L 311.051901 283.573583 
L 311.420826 286.904887 
L 311.605289 283.46436 
L 311.974215 287.405493 
L 312.158678 285.739841 
L 312.34314 291.901843 
L 312.527603 289.444323 
L 312.712066 283.628195 
L 312.896529 288.688864 
L 313.080992 278.594832 
L 313.449917 288.679762 
L 313.63438 290.063254 
L 313.818843 290.409127 
L 314.003306 289.398814 
L 314.187769 290.117866 
L 314.372231 277.63913 
L 314.556694 284.520183 
L 314.92562 283.46436 
L 315.110083 281.116064 
L 315.294545 283.600889 
L 315.479008 294.341158 
L 315.663471 287.623939 
L 316.032397 281.416428 
L 316.21686 285.612414 
L 316.585785 272.924334 
L 316.770248 292.247716 
L 316.954711 280.351503 
L 317.139174 285.648822 
L 317.508099 282.881837 
L 317.692562 288.406704 
L 318.061488 278.531118 
L 318.24595 286.722849 
L 318.430413 287.460104 
L 318.614876 286.413383 
L 318.983802 288.069933 
L 319.168264 290.145171 
L 319.53719 277.985003 
L 319.721653 289.043839 
L 320.090579 286.750154 
L 320.459504 281.325408 
L 320.643967 289.116654 
L 320.82843 287.76957 
L 321.012893 294.040794 
L 321.197355 230.472967 
L 321.381818 285.066299 
L 321.566281 288.379398 
L 321.750744 288.470418 
L 321.935207 289.244081 
L 322.119669 282.472251 
L 322.488595 290.536554 
L 322.673058 287.396391 
L 323.041983 278.804176 
L 323.226446 278.06692 
L 323.410909 272.605767 
L 323.595372 274.207705 
L 323.779835 286.085714 
L 323.964298 283.264118 
L 324.14876 272.114263 
L 324.333223 280.633662 
L 324.517686 281.489243 
L 324.702149 279.432209 
L 324.886612 285.330254 
L 325.071074 283.500768 
L 325.255537 288.734373 
L 325.44 269.574826 
L 325.808926 284.45647 
L 325.993388 288.306583 
L 326.177851 287.378187 
L 326.362314 290.527452 
L 326.546777 289.526241 
L 326.73124 284.838751 
L 326.915702 290.745898 
L 327.284628 292.584487 
L 327.469091 288.798087 
L 327.838017 287.988016 
L 328.206942 286.54081 
L 328.391405 290.946141 
L 328.575868 290.554758 
L 328.944793 266.097892 
L 329.129256 292.447958 
L 329.313719 285.284745 
L 329.498182 293.221621 
L 329.682645 278.167041 
L 330.236033 290.663981 
L 330.420496 290.618471 
L 330.604959 291.182791 
L 330.973884 287.860589 
L 331.158347 283.528074 
L 331.34281 197.888084 
L 331.527273 288.643354 
L 331.896198 286.613625 
L 332.080661 276.45588 
L 332.265124 275.79144 
L 332.449587 287.268964 
L 332.63405 282.818124 
L 332.818512 281.80781 
L 333.187438 290.709491 
L 333.371901 292.857544 
L 333.556364 281.917033 
L 333.740826 280.915822 
L 333.925289 281.707689 
L 334.294215 293.795042 
L 335.216529 279.313884 
L 335.585455 292.766525 
L 335.95438 269.037813 
L 336.507769 292.730117 
L 336.876694 289.389712 
L 337.24562 289.480731 
L 337.614545 294.650623 
L 338.53686 265.233209 
L 341.119339 283.300526 
L 341.303802 270.667057 
L 341.488264 284.356349 
L 341.85719 285.12091 
L 342.041653 284.356349 
L 342.226116 286.750154 
L 342.595041 283.091181 
L 342.963967 277.893984 
L 343.332893 280.205872 
L 343.701818 284.483776 
L 343.886281 282.881837 
L 344.255207 284.338145 
L 344.624132 284.110597 
L 344.993058 270.039024 
L 345.361983 286.73195 
L 345.730909 284.711324 
L 346.099835 277.87578 
L 346.284298 288.315685 
L 346.653223 284.319941 
L 347.022149 276.082701 
L 347.76 286.477097 
L 348.128926 278.503812 
L 348.497851 292.675506 
L 348.682314 286.422485 
L 349.05124 292.193104 
L 349.420165 287.077824 
L 349.789091 291.173689 
L 350.158017 292.338735 
L 350.895868 287.778672 
L 351.080331 293.494679 
L 351.449256 288.00622 
L 351.633719 293.1215 
L 351.818182 294.168221 
L 352.002645 289.835706 
L 352.187107 289.052941 
L 352.740496 291.920046 
L 353.109421 284.802343 
L 353.293884 291.437644 
L 353.478347 291.765314 
L 353.66281 292.420652 
L 353.847273 283.764724 
L 354.031736 290.463739 
L 354.216198 289.09845 
L 354.585124 293.021379 
L 355.322975 287.660347 
L 355.507438 292.447958 
L 355.691901 291.182791 
L 356.060826 283.755622 
L 356.245289 289.61726 
L 356.429752 278.858787 
L 356.614215 285.048095 
L 356.798678 285.794452 
L 357.167603 289.508037 
L 357.352066 278.685851 
L 357.536529 291.164587 
L 357.720992 290.663981 
L 357.905455 283.327831 
L 358.089917 289.162164 
L 358.27438 291.018956 
L 358.458843 289.671871 
L 358.643306 292.001964 
L 359.012231 290.500146 
L 359.196694 284.665814 
L 359.381157 291.501358 
L 359.56562 291.7016 
L 359.934545 283.27322 
L 360.119008 289.162164 
L 360.303471 288.470418 
L 360.487934 285.466783 
L 360.672397 293.940673 
L 378.749752 273.015353 
L 378.934215 275.909765 
L 379.118678 274.052972 
L 379.30314 283.182201 
L 379.487603 278.785972 
L 379.672066 266.480173 
L 379.856529 196.213331 
L 380.040992 279.468616 
L 380.409917 278.157939 
L 380.59438 281.698587 
L 380.778843 272.378219 
L 380.963306 276.373963 
L 381.147769 283.136691 
L 381.332231 272.278097 
L 381.516694 273.079067 
L 381.701157 263.476538 
L 381.88562 266.79874 
L 382.254545 287.805977 
L 382.439008 284.88426 
L 382.623471 289.071145 
L 382.807934 288.570539 
L 382.992397 288.679762 
L 383.17686 289.744687 
L 383.361322 287.896997 
L 394.798017 284.947974 
L 394.982479 291.401237 
L 395.166942 291.883639 
L 395.351405 293.440067 
L 395.720331 291.100873 
L 395.904793 292.684608 
L 396.089256 289.42612 
L 396.273719 291.956454 
L 396.458182 290.755 
L 396.642645 293.066889 
L 396.827107 290.063254 
L 397.01157 291.710702 
L 397.196033 285.40307 
L 397.380496 292.065677 
L 397.564959 290.463739 
L 397.749421 292.329633 
L 397.933884 288.024423 
L 398.118347 292.056575 
L 398.30281 288.652456 
L 398.487273 291.310218 
L 398.487273 291.310218 
" style="fill:none;stroke:#0000ff;stroke-linecap:square;stroke-width:1.5;"/>
   </g>
   <g id="patch_3">
    <path d="M 57.6 307.584 
L 57.6 41.472 
" style="fill:none;stroke:#000000;stroke-linecap:square;stroke-linejoin:miter;stroke-width:0.8;"/>
   </g>
   <g id="patch_4">
    <path d="M 414.72 307.584 
L 414.72 41.472 
" style="fill:none;stroke:#000000;stroke-linecap:square;stroke-linejoin:miter;stroke-width:0.8;"/>
   </g>
   <g id="patch_5">
    <path d="M 57.6 307.584 
L 414.72 307.584 
" style="fill:none;stroke:#000000;stroke-linecap:square;stroke-linejoin:miter;stroke-width:0.8;"/>
   </g>
   <g id="patch_6">
    <path d="M 57.6 41.472 
L 414.72 41.472 
" style="fill:none;stroke:#000000;stroke-linecap:square;stroke-linejoin:miter;stroke-width:0.8;"/>
   </g>
   <g id="text_16">
    <!-- air_pressure-&gt;ping_night -->
    <g transform="translate(160.726875 35.472)scale(0.12 -0.12)">
     <defs>
      <path d="M 4.890625 31.390625 
L 31.203125 31.390625 
L 31.203125 23.390625 
L 4.890625 23.390625 
z
" id="DejaVuSans-45"/>
      <path d="M 10.59375 49.21875 
L 10.59375 58.109375 
L 73.1875 35.40625 
L 73.1875 27.296875 
L 10.59375 4.59375 
L 10.59375 13.484375 
L 60.890625 31.296875 
z
" id="DejaVuSans-62"/>
      <path d="M 54.890625 33.015625 
L 54.890625 0 
L 45.90625 0 
L 45.90625 32.71875 
Q 45.90625 40.484375 42.875 44.328125 
Q 39.84375 48.1875 33.796875 48.1875 
Q 26.515625 48.1875 22.3125 43.546875 
Q 18.109375 38.921875 18.109375 30.90625 
L 18.109375 0 
L 9.078125 0 
L 9.078125 54.6875 
L 18.109375 54.6875 
L 18.109375 46.1875 
Q 21.34375 51.125 25.703125 53.5625 
Q 30.078125 56 35.796875 56 
Q 45.21875 56 50.046875 50.171875 
Q 54.890625 44.34375 54.890625 33.015625 
z
" id="DejaVuSans-110"/>
      <path d="M 45.40625 27.984375 
Q 45.40625 37.75 41.375 43.109375 
Q 37.359375 48.484375 30.078125 48.484375 
Q 22.859375 48.484375 18.828125 43.109375 
Q 14.796875 37.75 14.796875 27.984375 
Q 14.796875 18.265625 18.828125 12.890625 
Q 22.859375 7.515625 30.078125 7.515625 
Q 37.359375 7.515625 41.375 12.890625 
Q 45.40625 18.265625 45.40625 27.984375 
z
M 54.390625 6.78125 
Q 54.390625 -7.171875 48.1875 -13.984375 
Q 42 -20.796875 29.203125 -20.796875 
Q 24.46875 -20.796875 20.265625 -20.09375 
Q 16.0625 -19.390625 12.109375 -17.921875 
L 12.109375 -9.1875 
Q 16.0625 -11.328125 19.921875 -12.34375 
Q 23.78125 -13.375 27.78125 -13.375 
Q 36.625 -13.375 41.015625 -8.765625 
Q 45.40625 -4.15625 45.40625 5.171875 
L 45.40625 9.625 
Q 42.625 4.78125 38.28125 2.390625 
Q 33.9375 0 27.875 0 
Q 17.828125 0 11.671875 7.65625 
Q 5.515625 15.328125 5.515625 27.984375 
Q 5.515625 40.671875 11.671875 48.328125 
Q 17.828125 56 27.875 56 
Q 33.9375 56 38.28125 53.609375 
Q 42.625 51.21875 45.40625 46.390625 
L 45.40625 54.6875 
L 54.390625 54.6875 
z
" id="DejaVuSans-103"/>
      <path d="M 54.890625 33.015625 
L 54.890625 0 
L 45.90625 0 
L 45.90625 32.71875 
Q 45.90625 40.484375 42.875 44.328125 
Q 39.84375 48.1875 33.796875 48.1875 
Q 26.515625 48.1875 22.3125 43.546875 
Q 18.109375 38.921875 18.109375 30.90625 
L 18.109375 0 
L 9.078125 0 
L 9.078125 75.984375 
L 18.109375 75.984375 
L 18.109375 46.1875 
Q 21.34375 51.125 25.703125 53.5625 
Q 30.078125 56 35.796875 56 
Q 45.21875 56 50.046875 50.171875 
Q 54.890625 44.34375 54.890625 33.015625 
z
" id="DejaVuSans-104"/>
      <path d="M 18.3125 70.21875 
L 18.3125 54.6875 
L 36.8125 54.6875 
L 36.8125 47.703125 
L 18.3125 47.703125 
L 18.3125 18.015625 
Q 18.3125 11.328125 20.140625 9.421875 
Q 21.96875 7.515625 27.59375 7.515625 
L 36.8125 7.515625 
L 36.8125 0 
L 27.59375 0 
Q 17.1875 0 13.234375 3.875 
Q 9.28125 7.765625 9.28125 18.015625 
L 9.28125 47.703125 
L 2.6875 47.703125 
L 2.6875 54.6875 
L 9.28125 54.6875 
L 9.28125 70.21875 
z
" id="DejaVuSans-116"/>
     </defs>
     <use xlink:href="#DejaVuSans-97"/>
     <use x="61.279297" xlink:href="#DejaVuSans-105"/>
     <use x="89.0625" xlink:href="#DejaVuSans-114"/>
     <use x="130.175781" xlink:href="#DejaVuSans-95"/>
     <use x="180.175781" xlink:href="#DejaVuSans-112"/>
     <use x="243.652344" xlink:href="#DejaVuSans-114"/>
     <use x="282.515625" xlink:href="#DejaVuSans-101"/>
     <use x="344.039062" xlink:href="#DejaVuSans-115"/>
     <use x="396.138672" xlink:href="#DejaVuSans-115"/>
     <use x="448.238281" xlink:href="#DejaVuSans-117"/>
     <use x="511.617188" xlink:href="#DejaVuSans-114"/>
     <use x="550.480469" xlink:href="#DejaVuSans-101"/>
     <use x="612.003906" xlink:href="#DejaVuSans-45"/>
     <use x="648.087891" xlink:href="#DejaVuSans-62"/>
     <use x="731.876953" xlink:href="#DejaVuSans-112"/>
     <use x="795.353516" xlink:href="#DejaVuSans-105"/>
     <use x="823.136719" xlink:href="#DejaVuSans-110"/>
     <use x="886.515625" xlink:href="#DejaVuSans-103"/>
     <use x="949.992188" xlink:href="#DejaVuSans-95"/>
     <use x="999.992188" xlink:href="#DejaVuSans-110"/>
     <use x="1063.371094" xlink:href="#DejaVuSans-105"/>
     <use x="1091.154297" xlink:href="#DejaVuSans-103"/>
     <use x="1154.630859" xlink:href="#DejaVuSans-104"/>
     <use x="1218.009766" xlink:href="#DejaVuSans-116"/>
    </g>
   </g>
  </g>
  <g id="legend_1">
   <g id="patch_7">
    <path d="M 415.451563 22.678125 
L 453.8 22.678125 
Q 455.8 22.678125 455.8 20.678125 
L 455.8 7 
Q 455.8 5 453.8 5 
L 415.451563 5 
Q 413.451563 5 413.451563 7 
L 413.451563 20.678125 
Q 413.451563 22.678125 415.451563 22.678125 
z
" style="fill:#ffffff;opacity:0.8;stroke:#cccccc;stroke-linejoin:miter;"/>
   </g>
   <g id="line2d_16">
    <path d="M 417.451563 13.098438 
L 437.451563 13.098438 
" style="fill:none;stroke:#0000ff;stroke-linecap:square;stroke-width:1.5;"/>
   </g>
   <g id="line2d_17"/>
   <g id="text_17">
    <!-- p -->
    <g transform="translate(445.451563 16.598438)scale(0.1 -0.1)">
     <use xlink:href="#DejaVuSans-112"/>
    </g>
   </g>
  </g>
 </g>
 <defs>
  <clipPath id="pcd3eb2a9d6">
   <rect height="266.112" width="357.12" x="57.6" y="41.472"/>
  </clipPath>
 </defs>
</svg>
