<?xml version="1.0" encoding="utf-8" standalone="no"?>
<!DOCTYPE svg PUBLIC "-//W3C//DTD SVG 1.1//EN"
  "http://www.w3.org/Graphics/SVG/1.1/DTD/svg11.dtd">
<!-- Created with matplotlib (https://matplotlib.org/) -->
<svg height="345.6pt" version="1.1" viewBox="0 0 460.8 345.6" width="460.8pt" xmlns="http://www.w3.org/2000/svg" xmlns:xlink="http://www.w3.org/1999/xlink">
 <metadata>
  <rdf:RDF xmlns:cc="http://creativecommons.org/ns#" xmlns:dc="http://purl.org/dc/elements/1.1/" xmlns:rdf="http://www.w3.org/1999/02/22-rdf-syntax-ns#">
   <cc:Work>
    <dc:type rdf:resource="http://purl.org/dc/dcmitype/StillImage"/>
    <dc:date>2022-07-16T22:18:16.531124</dc:date>
    <dc:format>image/svg+xml</dc:format>
    <dc:creator>
     <cc:Agent>
      <dc:title>Matplotlib v3.3.2, https://matplotlib.org/</dc:title>
     </cc:Agent>
    </dc:creator>
   </cc:Work>
  </rdf:RDF>
 </metadata>
 <defs>
  <style type="text/css">*{stroke-linecap:butt;stroke-linejoin:round;}</style>
 </defs>
 <g id="figure_1">
  <g id="patch_1">
   <path d="M 0 345.6 
L 460.8 345.6 
L 460.8 0 
L 0 0 
z
" style="fill:#ffffff;"/>
  </g>
  <g id="axes_1">
   <g id="patch_2">
    <path d="M 57.6 307.584 
L 414.72 307.584 
L 414.72 41.472 
L 57.6 41.472 
z
" style="fill:#ffffff;"/>
   </g>
   <g id="matplotlib.axis_1">
    <g id="xtick_1">
     <g id="line2d_1">
      <defs>
       <path d="M 0 0 
L 0 3.5 
" id="m9c73e3b651" style="stroke:#000000;stroke-width:0.8;"/>
      </defs>
      <g>
       <use style="stroke:#000000;stroke-width:0.8;" x="62.32381" xlink:href="#m9c73e3b651" y="307.584"/>
      </g>
     </g>
     <g id="text_1">
      <!-- 1005.0 -->
      <g transform="translate(44.828497 322.182437)scale(0.1 -0.1)">
       <defs>
        <path d="M 12.40625 8.296875 
L 28.515625 8.296875 
L 28.515625 63.921875 
L 10.984375 60.40625 
L 10.984375 69.390625 
L 28.421875 72.90625 
L 38.28125 72.90625 
L 38.28125 8.296875 
L 54.390625 8.296875 
L 54.390625 0 
L 12.40625 0 
z
" id="DejaVuSans-49"/>
        <path d="M 31.78125 66.40625 
Q 24.171875 66.40625 20.328125 58.90625 
Q 16.5 51.421875 16.5 36.375 
Q 16.5 21.390625 20.328125 13.890625 
Q 24.171875 6.390625 31.78125 6.390625 
Q 39.453125 6.390625 43.28125 13.890625 
Q 47.125 21.390625 47.125 36.375 
Q 47.125 51.421875 43.28125 58.90625 
Q 39.453125 66.40625 31.78125 66.40625 
z
M 31.78125 74.21875 
Q 44.046875 74.21875 50.515625 64.515625 
Q 56.984375 54.828125 56.984375 36.375 
Q 56.984375 17.96875 50.515625 8.265625 
Q 44.046875 -1.421875 31.78125 -1.421875 
Q 19.53125 -1.421875 13.0625 8.265625 
Q 6.59375 17.96875 6.59375 36.375 
Q 6.59375 54.828125 13.0625 64.515625 
Q 19.53125 74.21875 31.78125 74.21875 
z
" id="DejaVuSans-48"/>
        <path d="M 10.796875 72.90625 
L 49.515625 72.90625 
L 49.515625 64.59375 
L 19.828125 64.59375 
L 19.828125 46.734375 
Q 21.96875 47.46875 24.109375 47.828125 
Q 26.265625 48.1875 28.421875 48.1875 
Q 40.625 48.1875 47.75 41.5 
Q 54.890625 34.8125 54.890625 23.390625 
Q 54.890625 11.625 47.5625 5.09375 
Q 40.234375 -1.421875 26.90625 -1.421875 
Q 22.3125 -1.421875 17.546875 -0.640625 
Q 12.796875 0.140625 7.71875 1.703125 
L 7.71875 11.625 
Q 12.109375 9.234375 16.796875 8.0625 
Q 21.484375 6.890625 26.703125 6.890625 
Q 35.15625 6.890625 40.078125 11.328125 
Q 45.015625 15.765625 45.015625 23.390625 
Q 45.015625 31 40.078125 35.4375 
Q 35.15625 39.890625 26.703125 39.890625 
Q 22.75 39.890625 18.8125 39.015625 
Q 14.890625 38.140625 10.796875 36.28125 
z
" id="DejaVuSans-53"/>
        <path d="M 10.6875 12.40625 
L 21 12.40625 
L 21 0 
L 10.6875 0 
z
" id="DejaVuSans-46"/>
       </defs>
       <use xlink:href="#DejaVuSans-49"/>
       <use x="63.623047" xlink:href="#DejaVuSans-48"/>
       <use x="127.246094" xlink:href="#DejaVuSans-48"/>
       <use x="190.869141" xlink:href="#DejaVuSans-53"/>
       <use x="254.492188" xlink:href="#DejaVuSans-46"/>
       <use x="286.279297" xlink:href="#DejaVuSans-48"/>
      </g>
     </g>
    </g>
    <g id="xtick_2">
     <g id="line2d_2">
      <g>
       <use style="stroke:#000000;stroke-width:0.8;" x="105.267532" xlink:href="#m9c73e3b651" y="307.584"/>
      </g>
     </g>
     <g id="text_2">
      <!-- 1007.5 -->
      <g transform="translate(87.77222 322.182437)scale(0.1 -0.1)">
       <defs>
        <path d="M 8.203125 72.90625 
L 55.078125 72.90625 
L 55.078125 68.703125 
L 28.609375 0 
L 18.3125 0 
L 43.21875 64.59375 
L 8.203125 64.59375 
z
" id="DejaVuSans-55"/>
       </defs>
       <use xlink:href="#DejaVuSans-49"/>
       <use x="63.623047" xlink:href="#DejaVuSans-48"/>
       <use x="127.246094" xlink:href="#DejaVuSans-48"/>
       <use x="190.869141" xlink:href="#DejaVuSans-55"/>
       <use x="254.492188" xlink:href="#DejaVuSans-46"/>
       <use x="286.279297" xlink:href="#DejaVuSans-53"/>
      </g>
     </g>
    </g>
    <g id="xtick_3">
     <g id="line2d_3">
      <g>
       <use style="stroke:#000000;stroke-width:0.8;" x="148.211255" xlink:href="#m9c73e3b651" y="307.584"/>
      </g>
     </g>
     <g id="text_3">
      <!-- 1010.0 -->
      <g transform="translate(130.715943 322.182437)scale(0.1 -0.1)">
       <use xlink:href="#DejaVuSans-49"/>
       <use x="63.623047" xlink:href="#DejaVuSans-48"/>
       <use x="127.246094" xlink:href="#DejaVuSans-49"/>
       <use x="190.869141" xlink:href="#DejaVuSans-48"/>
       <use x="254.492188" xlink:href="#DejaVuSans-46"/>
       <use x="286.279297" xlink:href="#DejaVuSans-48"/>
      </g>
     </g>
    </g>
    <g id="xtick_4">
     <g id="line2d_4">
      <g>
       <use style="stroke:#000000;stroke-width:0.8;" x="191.154978" xlink:href="#m9c73e3b651" y="307.584"/>
      </g>
     </g>
     <g id="text_4">
      <!-- 1012.5 -->
      <g transform="translate(173.659666 322.182437)scale(0.1 -0.1)">
       <defs>
        <path d="M 19.1875 8.296875 
L 53.609375 8.296875 
L 53.609375 0 
L 7.328125 0 
L 7.328125 8.296875 
Q 12.9375 14.109375 22.625 23.890625 
Q 32.328125 33.6875 34.8125 36.53125 
Q 39.546875 41.84375 41.421875 45.53125 
Q 43.3125 49.21875 43.3125 52.78125 
Q 43.3125 58.59375 39.234375 62.25 
Q 35.15625 65.921875 28.609375 65.921875 
Q 23.96875 65.921875 18.8125 64.3125 
Q 13.671875 62.703125 7.8125 59.421875 
L 7.8125 69.390625 
Q 13.765625 71.78125 18.9375 73 
Q 24.125 74.21875 28.421875 74.21875 
Q 39.75 74.21875 46.484375 68.546875 
Q 53.21875 62.890625 53.21875 53.421875 
Q 53.21875 48.921875 51.53125 44.890625 
Q 49.859375 40.875 45.40625 35.40625 
Q 44.1875 33.984375 37.640625 27.21875 
Q 31.109375 20.453125 19.1875 8.296875 
z
" id="DejaVuSans-50"/>
       </defs>
       <use xlink:href="#DejaVuSans-49"/>
       <use x="63.623047" xlink:href="#DejaVuSans-48"/>
       <use x="127.246094" xlink:href="#DejaVuSans-49"/>
       <use x="190.869141" xlink:href="#DejaVuSans-50"/>
       <use x="254.492188" xlink:href="#DejaVuSans-46"/>
       <use x="286.279297" xlink:href="#DejaVuSans-53"/>
      </g>
     </g>
    </g>
    <g id="xtick_5">
     <g id="line2d_5">
      <g>
       <use style="stroke:#000000;stroke-width:0.8;" x="234.098701" xlink:href="#m9c73e3b651" y="307.584"/>
      </g>
     </g>
     <g id="text_5">
      <!-- 1015.0 -->
      <g transform="translate(216.603389 322.182437)scale(0.1 -0.1)">
       <use xlink:href="#DejaVuSans-49"/>
       <use x="63.623047" xlink:href="#DejaVuSans-48"/>
       <use x="127.246094" xlink:href="#DejaVuSans-49"/>
       <use x="190.869141" xlink:href="#DejaVuSans-53"/>
       <use x="254.492188" xlink:href="#DejaVuSans-46"/>
       <use x="286.279297" xlink:href="#DejaVuSans-48"/>
      </g>
     </g>
    </g>
    <g id="xtick_6">
     <g id="line2d_6">
      <g>
       <use style="stroke:#000000;stroke-width:0.8;" x="277.042424" xlink:href="#m9c73e3b651" y="307.584"/>
      </g>
     </g>
     <g id="text_6">
      <!-- 1017.5 -->
      <g transform="translate(259.547112 322.182437)scale(0.1 -0.1)">
       <use xlink:href="#DejaVuSans-49"/>
       <use x="63.623047" xlink:href="#DejaVuSans-48"/>
       <use x="127.246094" xlink:href="#DejaVuSans-49"/>
       <use x="190.869141" xlink:href="#DejaVuSans-55"/>
       <use x="254.492188" xlink:href="#DejaVuSans-46"/>
       <use x="286.279297" xlink:href="#DejaVuSans-53"/>
      </g>
     </g>
    </g>
    <g id="xtick_7">
     <g id="line2d_7">
      <g>
       <use style="stroke:#000000;stroke-width:0.8;" x="319.986147" xlink:href="#m9c73e3b651" y="307.584"/>
      </g>
     </g>
     <g id="text_7">
      <!-- 1020.0 -->
      <g transform="translate(302.490835 322.182437)scale(0.1 -0.1)">
       <use xlink:href="#DejaVuSans-49"/>
       <use x="63.623047" xlink:href="#DejaVuSans-48"/>
       <use x="127.246094" xlink:href="#DejaVuSans-50"/>
       <use x="190.869141" xlink:href="#DejaVuSans-48"/>
       <use x="254.492188" xlink:href="#DejaVuSans-46"/>
       <use x="286.279297" xlink:href="#DejaVuSans-48"/>
      </g>
     </g>
    </g>
    <g id="xtick_8">
     <g id="line2d_8">
      <g>
       <use style="stroke:#000000;stroke-width:0.8;" x="362.92987" xlink:href="#m9c73e3b651" y="307.584"/>
      </g>
     </g>
     <g id="text_8">
      <!-- 1022.5 -->
      <g transform="translate(345.434558 322.182437)scale(0.1 -0.1)">
       <use xlink:href="#DejaVuSans-49"/>
       <use x="63.623047" xlink:href="#DejaVuSans-48"/>
       <use x="127.246094" xlink:href="#DejaVuSans-50"/>
       <use x="190.869141" xlink:href="#DejaVuSans-50"/>
       <use x="254.492188" xlink:href="#DejaVuSans-46"/>
       <use x="286.279297" xlink:href="#DejaVuSans-53"/>
      </g>
     </g>
    </g>
    <g id="xtick_9">
     <g id="line2d_9">
      <g>
       <use style="stroke:#000000;stroke-width:0.8;" x="405.873593" xlink:href="#m9c73e3b651" y="307.584"/>
      </g>
     </g>
     <g id="text_9">
      <!-- 1025.0 -->
      <g transform="translate(388.378281 322.182437)scale(0.1 -0.1)">
       <use xlink:href="#DejaVuSans-49"/>
       <use x="63.623047" xlink:href="#DejaVuSans-48"/>
       <use x="127.246094" xlink:href="#DejaVuSans-50"/>
       <use x="190.869141" xlink:href="#DejaVuSans-53"/>
       <use x="254.492188" xlink:href="#DejaVuSans-46"/>
       <use x="286.279297" xlink:href="#DejaVuSans-48"/>
      </g>
     </g>
    </g>
    <g id="text_10">
     <!-- air_pressure from Foreca -->
     <g transform="translate(174.162344 335.860562)scale(0.1 -0.1)">
      <defs>
       <path d="M 34.28125 27.484375 
Q 23.390625 27.484375 19.1875 25 
Q 14.984375 22.515625 14.984375 16.5 
Q 14.984375 11.71875 18.140625 8.90625 
Q 21.296875 6.109375 26.703125 6.109375 
Q 34.1875 6.109375 38.703125 11.40625 
Q 43.21875 16.703125 43.21875 25.484375 
L 43.21875 27.484375 
z
M 52.203125 31.203125 
L 52.203125 0 
L 43.21875 0 
L 43.21875 8.296875 
Q 40.140625 3.328125 35.546875 0.953125 
Q 30.953125 -1.421875 24.3125 -1.421875 
Q 15.921875 -1.421875 10.953125 3.296875 
Q 6 8.015625 6 15.921875 
Q 6 25.140625 12.171875 29.828125 
Q 18.359375 34.515625 30.609375 34.515625 
L 43.21875 34.515625 
L 43.21875 35.40625 
Q 43.21875 41.609375 39.140625 45 
Q 35.0625 48.390625 27.6875 48.390625 
Q 23 48.390625 18.546875 47.265625 
Q 14.109375 46.140625 10.015625 43.890625 
L 10.015625 52.203125 
Q 14.9375 54.109375 19.578125 55.046875 
Q 24.21875 56 28.609375 56 
Q 40.484375 56 46.34375 49.84375 
Q 52.203125 43.703125 52.203125 31.203125 
z
" id="DejaVuSans-97"/>
       <path d="M 9.421875 54.6875 
L 18.40625 54.6875 
L 18.40625 0 
L 9.421875 0 
z
M 9.421875 75.984375 
L 18.40625 75.984375 
L 18.40625 64.59375 
L 9.421875 64.59375 
z
" id="DejaVuSans-105"/>
       <path d="M 41.109375 46.296875 
Q 39.59375 47.171875 37.8125 47.578125 
Q 36.03125 48 33.890625 48 
Q 26.265625 48 22.1875 43.046875 
Q 18.109375 38.09375 18.109375 28.8125 
L 18.109375 0 
L 9.078125 0 
L 9.078125 54.6875 
L 18.109375 54.6875 
L 18.109375 46.1875 
Q 20.953125 51.171875 25.484375 53.578125 
Q 30.03125 56 36.53125 56 
Q 37.453125 56 38.578125 55.875 
Q 39.703125 55.765625 41.0625 55.515625 
z
" id="DejaVuSans-114"/>
       <path d="M 50.984375 -16.609375 
L 50.984375 -23.578125 
L -0.984375 -23.578125 
L -0.984375 -16.609375 
z
" id="DejaVuSans-95"/>
       <path d="M 18.109375 8.203125 
L 18.109375 -20.796875 
L 9.078125 -20.796875 
L 9.078125 54.6875 
L 18.109375 54.6875 
L 18.109375 46.390625 
Q 20.953125 51.265625 25.265625 53.625 
Q 29.59375 56 35.59375 56 
Q 45.5625 56 51.78125 48.09375 
Q 58.015625 40.1875 58.015625 27.296875 
Q 58.015625 14.40625 51.78125 6.484375 
Q 45.5625 -1.421875 35.59375 -1.421875 
Q 29.59375 -1.421875 25.265625 0.953125 
Q 20.953125 3.328125 18.109375 8.203125 
z
M 48.6875 27.296875 
Q 48.6875 37.203125 44.609375 42.84375 
Q 40.53125 48.484375 33.40625 48.484375 
Q 26.265625 48.484375 22.1875 42.84375 
Q 18.109375 37.203125 18.109375 27.296875 
Q 18.109375 17.390625 22.1875 11.75 
Q 26.265625 6.109375 33.40625 6.109375 
Q 40.53125 6.109375 44.609375 11.75 
Q 48.6875 17.390625 48.6875 27.296875 
z
" id="DejaVuSans-112"/>
       <path d="M 56.203125 29.59375 
L 56.203125 25.203125 
L 14.890625 25.203125 
Q 15.484375 15.921875 20.484375 11.0625 
Q 25.484375 6.203125 34.421875 6.203125 
Q 39.59375 6.203125 44.453125 7.46875 
Q 49.3125 8.734375 54.109375 11.28125 
L 54.109375 2.78125 
Q 49.265625 0.734375 44.1875 -0.34375 
Q 39.109375 -1.421875 33.890625 -1.421875 
Q 20.796875 -1.421875 13.15625 6.1875 
Q 5.515625 13.8125 5.515625 26.8125 
Q 5.515625 40.234375 12.765625 48.109375 
Q 20.015625 56 32.328125 56 
Q 43.359375 56 49.78125 48.890625 
Q 56.203125 41.796875 56.203125 29.59375 
z
M 47.21875 32.234375 
Q 47.125 39.59375 43.09375 43.984375 
Q 39.0625 48.390625 32.421875 48.390625 
Q 24.90625 48.390625 20.390625 44.140625 
Q 15.875 39.890625 15.1875 32.171875 
z
" id="DejaVuSans-101"/>
       <path d="M 44.28125 53.078125 
L 44.28125 44.578125 
Q 40.484375 46.53125 36.375 47.5 
Q 32.28125 48.484375 27.875 48.484375 
Q 21.1875 48.484375 17.84375 46.4375 
Q 14.5 44.390625 14.5 40.28125 
Q 14.5 37.15625 16.890625 35.375 
Q 19.28125 33.59375 26.515625 31.984375 
L 29.59375 31.296875 
Q 39.15625 29.25 43.1875 25.515625 
Q 47.21875 21.78125 47.21875 15.09375 
Q 47.21875 7.46875 41.1875 3.015625 
Q 35.15625 -1.421875 24.609375 -1.421875 
Q 20.21875 -1.421875 15.453125 -0.5625 
Q 10.6875 0.296875 5.421875 2 
L 5.421875 11.28125 
Q 10.40625 8.6875 15.234375 7.390625 
Q 20.0625 6.109375 24.8125 6.109375 
Q 31.15625 6.109375 34.5625 8.28125 
Q 37.984375 10.453125 37.984375 14.40625 
Q 37.984375 18.0625 35.515625 20.015625 
Q 33.0625 21.96875 24.703125 23.78125 
L 21.578125 24.515625 
Q 13.234375 26.265625 9.515625 29.90625 
Q 5.8125 33.546875 5.8125 39.890625 
Q 5.8125 47.609375 11.28125 51.796875 
Q 16.75 56 26.8125 56 
Q 31.78125 56 36.171875 55.265625 
Q 40.578125 54.546875 44.28125 53.078125 
z
" id="DejaVuSans-115"/>
       <path d="M 8.5 21.578125 
L 8.5 54.6875 
L 17.484375 54.6875 
L 17.484375 21.921875 
Q 17.484375 14.15625 20.5 10.265625 
Q 23.53125 6.390625 29.59375 6.390625 
Q 36.859375 6.390625 41.078125 11.03125 
Q 45.3125 15.671875 45.3125 23.6875 
L 45.3125 54.6875 
L 54.296875 54.6875 
L 54.296875 0 
L 45.3125 0 
L 45.3125 8.40625 
Q 42.046875 3.421875 37.71875 1 
Q 33.40625 -1.421875 27.6875 -1.421875 
Q 18.265625 -1.421875 13.375 4.4375 
Q 8.5 10.296875 8.5 21.578125 
z
M 31.109375 56 
z
" id="DejaVuSans-117"/>
       <path id="DejaVuSans-32"/>
       <path d="M 37.109375 75.984375 
L 37.109375 68.5 
L 28.515625 68.5 
Q 23.6875 68.5 21.796875 66.546875 
Q 19.921875 64.59375 19.921875 59.515625 
L 19.921875 54.6875 
L 34.71875 54.6875 
L 34.71875 47.703125 
L 19.921875 47.703125 
L 19.921875 0 
L 10.890625 0 
L 10.890625 47.703125 
L 2.296875 47.703125 
L 2.296875 54.6875 
L 10.890625 54.6875 
L 10.890625 58.5 
Q 10.890625 67.625 15.140625 71.796875 
Q 19.390625 75.984375 28.609375 75.984375 
z
" id="DejaVuSans-102"/>
       <path d="M 30.609375 48.390625 
Q 23.390625 48.390625 19.1875 42.75 
Q 14.984375 37.109375 14.984375 27.296875 
Q 14.984375 17.484375 19.15625 11.84375 
Q 23.34375 6.203125 30.609375 6.203125 
Q 37.796875 6.203125 41.984375 11.859375 
Q 46.1875 17.53125 46.1875 27.296875 
Q 46.1875 37.015625 41.984375 42.703125 
Q 37.796875 48.390625 30.609375 48.390625 
z
M 30.609375 56 
Q 42.328125 56 49.015625 48.375 
Q 55.71875 40.765625 55.71875 27.296875 
Q 55.71875 13.875 49.015625 6.21875 
Q 42.328125 -1.421875 30.609375 -1.421875 
Q 18.84375 -1.421875 12.171875 6.21875 
Q 5.515625 13.875 5.515625 27.296875 
Q 5.515625 40.765625 12.171875 48.375 
Q 18.84375 56 30.609375 56 
z
" id="DejaVuSans-111"/>
       <path d="M 52 44.1875 
Q 55.375 50.25 60.0625 53.125 
Q 64.75 56 71.09375 56 
Q 79.640625 56 84.28125 50.015625 
Q 88.921875 44.046875 88.921875 33.015625 
L 88.921875 0 
L 79.890625 0 
L 79.890625 32.71875 
Q 79.890625 40.578125 77.09375 44.375 
Q 74.3125 48.1875 68.609375 48.1875 
Q 61.625 48.1875 57.5625 43.546875 
Q 53.515625 38.921875 53.515625 30.90625 
L 53.515625 0 
L 44.484375 0 
L 44.484375 32.71875 
Q 44.484375 40.625 41.703125 44.40625 
Q 38.921875 48.1875 33.109375 48.1875 
Q 26.21875 48.1875 22.15625 43.53125 
Q 18.109375 38.875 18.109375 30.90625 
L 18.109375 0 
L 9.078125 0 
L 9.078125 54.6875 
L 18.109375 54.6875 
L 18.109375 46.1875 
Q 21.1875 51.21875 25.484375 53.609375 
Q 29.78125 56 35.6875 56 
Q 41.65625 56 45.828125 52.96875 
Q 50 49.953125 52 44.1875 
z
" id="DejaVuSans-109"/>
       <path d="M 9.8125 72.90625 
L 51.703125 72.90625 
L 51.703125 64.59375 
L 19.671875 64.59375 
L 19.671875 43.109375 
L 48.578125 43.109375 
L 48.578125 34.8125 
L 19.671875 34.8125 
L 19.671875 0 
L 9.8125 0 
z
" id="DejaVuSans-70"/>
       <path d="M 48.78125 52.59375 
L 48.78125 44.1875 
Q 44.96875 46.296875 41.140625 47.34375 
Q 37.3125 48.390625 33.40625 48.390625 
Q 24.65625 48.390625 19.8125 42.84375 
Q 14.984375 37.3125 14.984375 27.296875 
Q 14.984375 17.28125 19.8125 11.734375 
Q 24.65625 6.203125 33.40625 6.203125 
Q 37.3125 6.203125 41.140625 7.25 
Q 44.96875 8.296875 48.78125 10.40625 
L 48.78125 2.09375 
Q 45.015625 0.34375 40.984375 -0.53125 
Q 36.96875 -1.421875 32.421875 -1.421875 
Q 20.0625 -1.421875 12.78125 6.34375 
Q 5.515625 14.109375 5.515625 27.296875 
Q 5.515625 40.671875 12.859375 48.328125 
Q 20.21875 56 33.015625 56 
Q 37.15625 56 41.109375 55.140625 
Q 45.0625 54.296875 48.78125 52.59375 
z
" id="DejaVuSans-99"/>
      </defs>
      <use xlink:href="#DejaVuSans-97"/>
      <use x="61.279297" xlink:href="#DejaVuSans-105"/>
      <use x="89.0625" xlink:href="#DejaVuSans-114"/>
      <use x="130.175781" xlink:href="#DejaVuSans-95"/>
      <use x="180.175781" xlink:href="#DejaVuSans-112"/>
      <use x="243.652344" xlink:href="#DejaVuSans-114"/>
      <use x="282.515625" xlink:href="#DejaVuSans-101"/>
      <use x="344.039062" xlink:href="#DejaVuSans-115"/>
      <use x="396.138672" xlink:href="#DejaVuSans-115"/>
      <use x="448.238281" xlink:href="#DejaVuSans-117"/>
      <use x="511.617188" xlink:href="#DejaVuSans-114"/>
      <use x="550.480469" xlink:href="#DejaVuSans-101"/>
      <use x="612.003906" xlink:href="#DejaVuSans-32"/>
      <use x="643.791016" xlink:href="#DejaVuSans-102"/>
      <use x="678.996094" xlink:href="#DejaVuSans-114"/>
      <use x="717.859375" xlink:href="#DejaVuSans-111"/>
      <use x="779.041016" xlink:href="#DejaVuSans-109"/>
      <use x="876.453125" xlink:href="#DejaVuSans-32"/>
      <use x="908.240234" xlink:href="#DejaVuSans-70"/>
      <use x="962.134766" xlink:href="#DejaVuSans-111"/>
      <use x="1023.316406" xlink:href="#DejaVuSans-114"/>
      <use x="1062.179688" xlink:href="#DejaVuSans-101"/>
      <use x="1123.703125" xlink:href="#DejaVuSans-99"/>
      <use x="1178.683594" xlink:href="#DejaVuSans-97"/>
     </g>
    </g>
   </g>
   <g id="matplotlib.axis_2">
    <g id="ytick_1">
     <g id="line2d_10">
      <defs>
       <path d="M 0 0 
L -3.5 0 
" id="mc99935295c" style="stroke:#000000;stroke-width:0.8;"/>
      </defs>
      <g>
       <use style="stroke:#000000;stroke-width:0.8;" x="57.6" xlink:href="#mc99935295c" y="294.038722"/>
      </g>
     </g>
     <g id="text_11">
      <!-- 5 -->
      <g transform="translate(44.2375 297.837941)scale(0.1 -0.1)">
       <use xlink:href="#DejaVuSans-53"/>
      </g>
     </g>
    </g>
    <g id="ytick_2">
     <g id="line2d_11">
      <g>
       <use style="stroke:#000000;stroke-width:0.8;" x="57.6" xlink:href="#mc99935295c" y="248.463951"/>
      </g>
     </g>
     <g id="text_12">
      <!-- 10 -->
      <g transform="translate(37.875 252.26317)scale(0.1 -0.1)">
       <use xlink:href="#DejaVuSans-49"/>
       <use x="63.623047" xlink:href="#DejaVuSans-48"/>
      </g>
     </g>
    </g>
    <g id="ytick_3">
     <g id="line2d_12">
      <g>
       <use style="stroke:#000000;stroke-width:0.8;" x="57.6" xlink:href="#mc99935295c" y="202.88918"/>
      </g>
     </g>
     <g id="text_13">
      <!-- 15 -->
      <g transform="translate(37.875 206.688399)scale(0.1 -0.1)">
       <use xlink:href="#DejaVuSans-49"/>
       <use x="63.623047" xlink:href="#DejaVuSans-53"/>
      </g>
     </g>
    </g>
    <g id="ytick_4">
     <g id="line2d_13">
      <g>
       <use style="stroke:#000000;stroke-width:0.8;" x="57.6" xlink:href="#mc99935295c" y="157.314409"/>
      </g>
     </g>
     <g id="text_14">
      <!-- 20 -->
      <g transform="translate(37.875 161.113628)scale(0.1 -0.1)">
       <use xlink:href="#DejaVuSans-50"/>
       <use x="63.623047" xlink:href="#DejaVuSans-48"/>
      </g>
     </g>
    </g>
    <g id="ytick_5">
     <g id="line2d_14">
      <g>
       <use style="stroke:#000000;stroke-width:0.8;" x="57.6" xlink:href="#mc99935295c" y="111.739638"/>
      </g>
     </g>
     <g id="text_15">
      <!-- 25 -->
      <g transform="translate(37.875 115.538857)scale(0.1 -0.1)">
       <use xlink:href="#DejaVuSans-50"/>
       <use x="63.623047" xlink:href="#DejaVuSans-53"/>
      </g>
     </g>
    </g>
    <g id="ytick_6">
     <g id="line2d_15">
      <g>
       <use style="stroke:#000000;stroke-width:0.8;" x="57.6" xlink:href="#mc99935295c" y="66.164867"/>
      </g>
     </g>
     <g id="text_16">
      <!-- 30 -->
      <g transform="translate(37.875 69.964085)scale(0.1 -0.1)">
       <defs>
        <path d="M 40.578125 39.3125 
Q 47.65625 37.796875 51.625 33 
Q 55.609375 28.21875 55.609375 21.1875 
Q 55.609375 10.40625 48.1875 4.484375 
Q 40.765625 -1.421875 27.09375 -1.421875 
Q 22.515625 -1.421875 17.65625 -0.515625 
Q 12.796875 0.390625 7.625 2.203125 
L 7.625 11.71875 
Q 11.71875 9.328125 16.59375 8.109375 
Q 21.484375 6.890625 26.8125 6.890625 
Q 36.078125 6.890625 40.9375 10.546875 
Q 45.796875 14.203125 45.796875 21.1875 
Q 45.796875 27.640625 41.28125 31.265625 
Q 36.765625 34.90625 28.71875 34.90625 
L 20.21875 34.90625 
L 20.21875 43.015625 
L 29.109375 43.015625 
Q 36.375 43.015625 40.234375 45.921875 
Q 44.09375 48.828125 44.09375 54.296875 
Q 44.09375 59.90625 40.109375 62.90625 
Q 36.140625 65.921875 28.71875 65.921875 
Q 24.65625 65.921875 20.015625 65.03125 
Q 15.375 64.15625 9.8125 62.3125 
L 9.8125 71.09375 
Q 15.4375 72.65625 20.34375 73.4375 
Q 25.25 74.21875 29.59375 74.21875 
Q 40.828125 74.21875 47.359375 69.109375 
Q 53.90625 64.015625 53.90625 55.328125 
Q 53.90625 49.265625 50.4375 45.09375 
Q 46.96875 40.921875 40.578125 39.3125 
z
" id="DejaVuSans-51"/>
       </defs>
       <use xlink:href="#DejaVuSans-51"/>
       <use x="63.623047" xlink:href="#DejaVuSans-48"/>
      </g>
     </g>
    </g>
    <g id="text_17">
     <!-- ping_night[ms] -->
     <g transform="translate(31.517187 212.17175)rotate(-90)scale(0.1 -0.1)">
      <defs>
       <path d="M 54.890625 33.015625 
L 54.890625 0 
L 45.90625 0 
L 45.90625 32.71875 
Q 45.90625 40.484375 42.875 44.328125 
Q 39.84375 48.1875 33.796875 48.1875 
Q 26.515625 48.1875 22.3125 43.546875 
Q 18.109375 38.921875 18.109375 30.90625 
L 18.109375 0 
L 9.078125 0 
L 9.078125 54.6875 
L 18.109375 54.6875 
L 18.109375 46.1875 
Q 21.34375 51.125 25.703125 53.5625 
Q 30.078125 56 35.796875 56 
Q 45.21875 56 50.046875 50.171875 
Q 54.890625 44.34375 54.890625 33.015625 
z
" id="DejaVuSans-110"/>
       <path d="M 45.40625 27.984375 
Q 45.40625 37.75 41.375 43.109375 
Q 37.359375 48.484375 30.078125 48.484375 
Q 22.859375 48.484375 18.828125 43.109375 
Q 14.796875 37.75 14.796875 27.984375 
Q 14.796875 18.265625 18.828125 12.890625 
Q 22.859375 7.515625 30.078125 7.515625 
Q 37.359375 7.515625 41.375 12.890625 
Q 45.40625 18.265625 45.40625 27.984375 
z
M 54.390625 6.78125 
Q 54.390625 -7.171875 48.1875 -13.984375 
Q 42 -20.796875 29.203125 -20.796875 
Q 24.46875 -20.796875 20.265625 -20.09375 
Q 16.0625 -19.390625 12.109375 -17.921875 
L 12.109375 -9.1875 
Q 16.0625 -11.328125 19.921875 -12.34375 
Q 23.78125 -13.375 27.78125 -13.375 
Q 36.625 -13.375 41.015625 -8.765625 
Q 45.40625 -4.15625 45.40625 5.171875 
L 45.40625 9.625 
Q 42.625 4.78125 38.28125 2.390625 
Q 33.9375 0 27.875 0 
Q 17.828125 0 11.671875 7.65625 
Q 5.515625 15.328125 5.515625 27.984375 
Q 5.515625 40.671875 11.671875 48.328125 
Q 17.828125 56 27.875 56 
Q 33.9375 56 38.28125 53.609375 
Q 42.625 51.21875 45.40625 46.390625 
L 45.40625 54.6875 
L 54.390625 54.6875 
z
" id="DejaVuSans-103"/>
       <path d="M 54.890625 33.015625 
L 54.890625 0 
L 45.90625 0 
L 45.90625 32.71875 
Q 45.90625 40.484375 42.875 44.328125 
Q 39.84375 48.1875 33.796875 48.1875 
Q 26.515625 48.1875 22.3125 43.546875 
Q 18.109375 38.921875 18.109375 30.90625 
L 18.109375 0 
L 9.078125 0 
L 9.078125 75.984375 
L 18.109375 75.984375 
L 18.109375 46.1875 
Q 21.34375 51.125 25.703125 53.5625 
Q 30.078125 56 35.796875 56 
Q 45.21875 56 50.046875 50.171875 
Q 54.890625 44.34375 54.890625 33.015625 
z
" id="DejaVuSans-104"/>
       <path d="M 18.3125 70.21875 
L 18.3125 54.6875 
L 36.8125 54.6875 
L 36.8125 47.703125 
L 18.3125 47.703125 
L 18.3125 18.015625 
Q 18.3125 11.328125 20.140625 9.421875 
Q 21.96875 7.515625 27.59375 7.515625 
L 36.8125 7.515625 
L 36.8125 0 
L 27.59375 0 
Q 17.1875 0 13.234375 3.875 
Q 9.28125 7.765625 9.28125 18.015625 
L 9.28125 47.703125 
L 2.6875 47.703125 
L 2.6875 54.6875 
L 9.28125 54.6875 
L 9.28125 70.21875 
z
" id="DejaVuSans-116"/>
       <path d="M 8.59375 75.984375 
L 29.296875 75.984375 
L 29.296875 69 
L 17.578125 69 
L 17.578125 -6.203125 
L 29.296875 -6.203125 
L 29.296875 -13.1875 
L 8.59375 -13.1875 
z
" id="DejaVuSans-91"/>
       <path d="M 30.421875 75.984375 
L 30.421875 -13.1875 
L 9.71875 -13.1875 
L 9.71875 -6.203125 
L 21.390625 -6.203125 
L 21.390625 69 
L 9.71875 69 
L 9.71875 75.984375 
z
" id="DejaVuSans-93"/>
      </defs>
      <use xlink:href="#DejaVuSans-112"/>
      <use x="63.476562" xlink:href="#DejaVuSans-105"/>
      <use x="91.259766" xlink:href="#DejaVuSans-110"/>
      <use x="154.638672" xlink:href="#DejaVuSans-103"/>
      <use x="218.115234" xlink:href="#DejaVuSans-95"/>
      <use x="268.115234" xlink:href="#DejaVuSans-110"/>
      <use x="331.494141" xlink:href="#DejaVuSans-105"/>
      <use x="359.277344" xlink:href="#DejaVuSans-103"/>
      <use x="422.753906" xlink:href="#DejaVuSans-104"/>
      <use x="486.132812" xlink:href="#DejaVuSans-116"/>
      <use x="525.341797" xlink:href="#DejaVuSans-91"/>
      <use x="564.355469" xlink:href="#DejaVuSans-109"/>
      <use x="661.767578" xlink:href="#DejaVuSans-115"/>
      <use x="713.867188" xlink:href="#DejaVuSans-93"/>
     </g>
    </g>
   </g>
   <g id="line2d_16">
    <path clip-path="url(#p5ca2a3b62e)" d="M 73.832727 258.107573 
L 74.004502 254.261062 
L 74.176277 273.55742 
L 74.348052 269.273392 
L 74.519827 283.046087 
L 74.691602 274.231927 
L 74.863377 290.57504 
L 75.035152 284.987573 
L 95.819913 284.923768 
L 95.991688 266.484216 
L 96.163463 271.151072 
L 96.335238 281.396281 
L 96.507013 280.712659 
L 96.678788 281.587695 
L 96.850563 270.5586 
L 97.022338 279.062852 
L 97.194113 281.204867 
L 97.537662 279.163117 
L 97.709437 283.54741 
L 98.052987 287.630909 
L 98.396537 270.494796 
L 98.740087 277.367471 
L 99.083636 279.746474 
L 99.427186 284.641204 
L 99.942511 285.58916 
L 100.286061 284.568285 
L 100.97316 273.912903 
L 101.144935 294.49447 
L 101.31671 288.123117 
L 101.66026 293.974918 
L 102.175584 277.084907 
L 102.519134 292.060777 
L 102.862684 294.786149 
L 103.549784 285.370401 
L 103.893333 293.920228 
L 104.065108 287.302771 
L 104.236883 295.278356 
L 104.408658 293.665009 
L 104.752208 293.455365 
L 105.095758 290.319821 
L 105.439307 292.671479 
L 105.611082 292.635019 
L 105.782857 288.405681 
L 105.954632 289.43567 
L 106.298182 292.789974 
L 106.469957 291.076362 
L 106.813506 292.051662 
L 106.985281 293.42802 
L 107.157056 285.652964 
L 107.328831 292.042547 
L 107.672381 289.927878 
L 107.844156 286.382161 
L 108.015931 286.254551 
L 108.187706 294.731459 
L 108.531255 278.707369 
L 109.04658 294.120757 
L 109.218355 258.918804 
L 109.39013 293.437135 
L 109.561905 290.611499 
L 109.905455 250.068183 
L 110.249004 291.53211 
L 110.592554 267.942608 
L 110.764329 290.59327 
L 111.107879 289.572395 
L 111.279654 275.097847 
L 111.623203 293.546515 
L 111.966753 290.192212 
L 112.482078 292.297766 
L 112.653853 183.246454 
L 112.825628 285.634734 
L 113.340952 235.046739 
L 113.684502 287.904358 
L 114.028052 222.440757 
L 114.371602 288.305416 
L 114.715152 183.90273 
L 115.058701 291.978743 
L 115.230476 209.86212 
L 115.574026 292.398031 
L 115.745801 265.891744 
L 116.261126 254.917339 
L 116.77645 289.772924 
L 117.291775 193.664846 
L 117.46355 288.433025 
L 117.8071 226.533371 
L 118.150649 288.60621 
L 118.665974 289.973453 
L 118.837749 291.295121 
L 119.353074 288.332761 
L 119.524848 230.735365 
L 119.868398 289.718234 
L 120.040173 281.131947 
L 120.555498 287.813209 
L 121.070823 292.48918 
L 121.757922 293.50094 
L 122.445022 288.314531 
L 122.960346 291.805558 
L 123.647446 287.302771 
L 124.162771 293.747044 
L 124.84987 259.693575 
L 125.53697 289.772924 
L 126.052294 293.46448 
L 126.739394 288.961693 
L 126.911169 271.378946 
L 127.254719 293.510055 
L 127.426494 246.413086 
L 127.941818 268.808529 
L 128.628918 246.486006 
L 129.144242 267.696505 
L 129.659567 276.638275 
L 129.831342 292.799089 
L 130.174892 278.625335 
L 130.346667 286.865253 
L 130.861991 287.48507 
L 131.033766 288.934348 
L 131.205541 281.286901 
L 131.549091 290.957868 
L 131.720866 281.651499 
L 132.23619 290.711764 
L 132.751515 138.546718 
L 133.26684 285.62562 
L 133.782165 283.711479 
L 134.469264 282.699719 
L 134.984589 288.086657 
L 135.499913 285.51624 
L 136.015238 291.5868 
L 136.530563 290.091947 
L 136.874113 289.654429 
L 137.045887 289.134877 
L 137.217662 282.581225 
L 137.732987 290.119292 
L 138.076537 289.41744 
L 138.248312 291.851133 
L 138.591861 286.072252 
L 139.107186 282.335121 
L 139.278961 259.884989 
L 139.450736 290.365396 
L 139.794286 294.038722 
L 140.30961 294.58562 
L 140.824935 274.386881 
L 141.512035 289.672659 
L 142.714459 293.582975 
L 143.401558 293.901998 
L 144.088658 292.161042 
L 144.603983 287.001978 
L 144.947532 292.088122 
L 145.291082 275.334836 
L 145.634632 279.491255 
L 145.806407 290.620614 
L 146.149957 289.645314 
L 146.493506 286.236321 
L 147.180606 273.940248 
L 147.695931 291.705294 
L 148.211255 280.284256 
L 148.38303 291.322466 
L 148.72658 288.742934 
L 149.07013 291.996973 
L 149.241905 288.53329 
L 149.585455 292.015202 
L 149.757229 275.462446 
L 150.272554 291.176627 
L 150.616104 285.716769 
L 150.959654 291.559455 
L 151.131429 285.51624 
L 151.474978 292.370686 
L 151.646753 283.675019 
L 152.162078 284.066962 
L 152.677403 286.172517 
L 152.849177 291.413615 
L 153.192727 277.49508 
L 153.364502 292.780859 
L 153.708052 282.362466 
L 154.051602 286.692069 
L 154.223377 285.133412 
L 154.738701 284.550055 
L 155.082251 290.137522 
L 155.254026 274.086087 
L 155.769351 285.014918 
L 155.941126 293.145457 
L 156.1129 285.188102 
L 156.284675 283.292191 
L 156.628225 280.822039 
L 156.971775 259.948793 
L 157.14355 282.818214 
L 157.315325 281.605925 
L 157.4871 242.621266 
L 157.658874 278.196932 
L 158.002424 283.802629 
L 158.174199 281.961408 
L 158.517749 292.50741 
L 158.689524 286.47331 
L 159.033074 289.654429 
L 159.376623 285.798804 
L 159.720173 287.302771 
L 160.235498 279.308956 
L 160.407273 288.642669 
L 160.750823 276.975528 
L 160.922597 285.971988 
L 161.266147 276.993758 
L 161.609697 293.154572 
L 161.781472 283.210157 
L 161.953247 291.486535 
L 162.296797 282.891133 
L 162.640346 286.655609 
L 162.812121 279.582405 
L 163.155671 275.280146 
L 163.327446 293.838193 
L 163.670996 279.318071 
L 163.842771 293.710584 
L 164.18632 283.036973 
L 164.52987 284.750584 
L 164.701645 287.512415 
L 164.87342 282.526535 
L 165.388745 280.439211 
L 165.560519 293.054307 
L 165.732294 289.289831 
L 165.904069 288.989038 
L 166.075844 292.644134 
L 166.247619 273.566535 
L 166.419394 288.095772 
L 166.934719 271.998763 
L 167.106494 290.930523 
L 167.450043 286.218092 
L 167.621818 256.375731 
L 167.965368 288.578865 
L 168.137143 283.802629 
L 168.480693 288.524175 
L 168.652468 284.231032 
L 168.996017 287.074897 
L 169.167792 286.254551 
L 169.339567 258.198722 
L 169.683117 288.196037 
L 169.854892 287.858783 
L 170.026667 289.690889 
L 170.198442 279.64621 
L 170.370216 291.905823 
L 170.541991 288.670014 
L 170.885541 266.730319 
L 171.057316 291.377156 
L 171.229091 284.203687 
L 171.400866 286.418621 
L 171.572641 285.507125 
L 171.744416 287.384806 
L 171.91619 284.167227 
L 172.087965 287.238966 
L 172.25974 278.324541 
L 172.431515 282.016098 
L 172.60329 292.161042 
L 172.94684 283.401571 
L 173.118615 291.358926 
L 173.29039 289.098417 
L 173.462165 280.995223 
L 173.805714 288.733819 
L 174.149264 286.199862 
L 174.321039 287.384806 
L 174.664589 281.45097 
L 175.008139 291.112822 
L 175.179913 286.500655 
L 175.351688 267.906149 
L 175.523463 292.607674 
L 175.695238 292.306881 
L 175.867013 289.235141 
L 176.210563 285.616505 
L 176.725887 292.088122 
L 176.897662 280.047268 
L 177.069437 287.59445 
L 177.241212 287.895243 
L 177.412987 283.520065 
L 177.584762 286.108712 
L 177.756537 267.040228 
L 177.928312 287.074897 
L 178.100087 270.795589 
L 178.271861 290.903178 
L 178.443636 288.770279 
L 178.958961 292.789974 
L 179.130736 281.040798 
L 179.302511 289.727349 
L 179.646061 293.610319 
L 179.98961 287.102242 
L 180.161385 291.796444 
L 180.33316 292.808203 
L 180.504935 290.301591 
L 180.67671 290.784684 
L 180.848485 292.890238 
L 181.02026 285.297481 
L 181.192035 290.53858 
L 181.535584 270.50391 
L 181.707359 293.783504 
L 181.879134 284.50448 
L 182.050909 283.073432 
L 182.222684 288.350991 
L 182.566234 289.43567 
L 182.738009 284.003158 
L 182.909784 285.388631 
L 183.081558 290.173982 
L 183.253333 287.758519 
L 183.425108 293.263951 
L 183.768658 282.53565 
L 183.940433 220.061754 
L 184.112208 289.052842 
L 184.455758 291.51388 
L 184.799307 277.841449 
L 184.971082 287.102242 
L 185.658182 292.808203 
L 185.829957 283.237502 
L 186.345281 288.560635 
L 186.517056 276.054918 
L 186.688831 288.186922 
L 187.032381 281.48743 
L 187.204156 288.278071 
L 187.547706 282.398926 
L 187.719481 289.918763 
L 188.06303 287.330116 
L 188.40658 235.137888 
L 188.578355 282.836444 
L 188.75013 284.750584 
L 188.921905 284.686779 
L 189.265455 229.650686 
L 189.609004 284.285721 
L 189.780779 283.675019 
L 190.124329 288.259841 
L 190.296104 270.722669 
L 190.467879 290.210442 
L 190.639654 289.180452 
L 190.811429 255.108753 
L 191.154978 289.800269 
L 191.326753 286.145172 
L 191.498528 263.467166 
L 191.670303 292.425375 
L 191.842078 288.58798 
L 192.013853 278.780289 
L 192.357403 286.591805 
L 192.529177 287.904358 
L 192.700952 291.541225 
L 192.872727 281.405396 
L 193.044502 280.302486 
L 193.216277 288.824968 
L 193.388052 209.853005 
L 193.559827 280.612395 
L 193.731602 289.4539 
L 193.903377 290.237786 
L 194.075152 275.307491 
L 194.246926 292.297766 
L 194.418701 270.303381 
L 194.590476 289.54505 
L 194.762251 220.955019 
L 194.934026 290.684419 
L 195.277576 280.056383 
L 195.449351 292.024317 
L 195.621126 287.166047 
L 195.7929 271.132842 
L 195.964675 291.067247 
L 196.13645 288.715589 
L 196.308225 266.465986 
L 196.48 292.671479 
L 196.651775 285.014918 
L 196.82355 283.766169 
L 196.995325 290.137522 
L 197.1671 284.039617 
L 197.338874 288.715589 
L 197.510649 272.855569 
L 197.682424 292.279536 
L 198.025974 276.929953 
L 198.197749 291.112822 
L 198.541299 279.281611 
L 198.884848 293.291296 
L 199.056623 273.694144 
L 199.228398 287.147817 
L 199.400173 291.176627 
L 199.571948 257.843239 
L 199.743723 280.940533 
L 199.915498 282.271316 
L 200.087273 282.663259 
L 200.259048 284.960228 
L 200.430823 280.402751 
L 200.602597 293.719699 
L 200.946147 283.902893 
L 201.117922 287.749404 
L 201.289697 282.754409 
L 201.633247 280.749119 
L 201.805022 289.608855 
L 201.976797 284.021388 
L 202.148571 292.862893 
L 202.320346 285.807919 
L 202.492121 284.395101 
L 202.663896 288.095772 
L 203.007446 280.038153 
L 203.179221 289.408326 
L 203.350996 285.853493 
L 203.522771 291.53211 
L 204.038095 285.707654 
L 204.20987 221.146433 
L 204.381645 287.986393 
L 204.55342 287.658254 
L 204.725195 286.49154 
L 204.89697 294.603849 
L 205.240519 289.198682 
L 205.412294 276.282791 
L 205.584069 279.710014 
L 205.755844 288.42391 
L 205.927619 285.343056 
L 206.099394 284.431561 
L 206.271169 291.322466 
L 206.442944 293.108997 
L 206.614719 280.111072 
L 206.786494 281.122832 
L 206.958268 284.841733 
L 207.130043 253.878234 
L 207.301818 285.953758 
L 207.473593 286.345701 
L 207.645368 285.306596 
L 207.817143 291.869363 
L 207.988918 276.064033 
L 208.160693 224.008529 
L 208.332468 281.697074 
L 208.504242 286.47331 
L 208.676017 285.889953 
L 209.019567 289.244256 
L 209.191342 287.093127 
L 209.363117 286.61915 
L 209.534892 275.626515 
L 209.878442 291.577685 
L 210.050216 278.388346 
L 210.221991 285.698539 
L 210.393766 277.248977 
L 210.565541 281.59681 
L 210.737316 281.906718 
L 210.909091 256.384846 
L 211.252641 290.693534 
L 211.59619 285.44332 
L 211.767965 290.283361 
L 211.93974 282.508305 
L 212.28329 231.874734 
L 212.455065 281.341591 
L 212.62684 287.940818 
L 212.97039 264.54273 
L 213.142165 281.013453 
L 213.313939 284.167227 
L 213.657489 265.992008 
L 213.829264 266.137847 
L 214.001039 284.322181 
L 214.172814 275.234572 
L 214.516364 281.997868 
L 214.859913 274.323076 
L 215.203463 285.616505 
L 215.547013 289.836728 
L 215.718788 284.951113 
L 215.890563 285.580045 
L 216.234113 289.262486 
L 216.405887 286.500655 
L 216.749437 289.772924 
L 216.921212 295.251011 
L 217.092987 290.529465 
L 217.264762 292.908468 
L 217.436537 288.843198 
L 217.780087 290.392741 
L 217.951861 289.189567 
L 218.123636 282.48096 
L 218.295411 290.757339 
L 218.467186 290.110177 
L 218.982511 283.829974 
L 219.326061 292.59856 
L 220.184935 280.913188 
L 220.872035 288.141347 
L 221.902684 284.823504 
L 222.418009 284.978458 
L 222.589784 294.148102 
L 222.933333 287.840553 
L 223.105108 289.43567 
L 223.276883 293.191032 
L 223.448658 285.762344 
L 223.963983 288.797624 
L 224.479307 286.983748 
L 224.994632 279.874083 
L 225.166407 290.711764 
L 225.509957 278.780289 
L 225.853506 293.418905 
L 226.197056 280.019923 
L 226.368831 292.726169 
L 226.712381 276.656505 
L 227.055931 295.488 
L 227.227706 277.522425 
L 227.74303 276.893493 
L 228.258355 275.034043 
L 228.77368 273.876444 
L 228.945455 293.081652 
L 229.289004 281.296016 
L 229.632554 289.47213 
L 229.804329 268.58977 
L 230.319654 277.376586 
L 230.834978 277.413046 
L 231.350303 292.069892 
L 232.037403 277.285436 
L 232.209177 292.142812 
L 232.552727 280.940533 
L 232.724502 291.796444 
L 233.068052 283.684134 
L 233.411602 291.53211 
L 233.583377 287.065782 
L 233.926926 289.061957 
L 234.098701 269.154897 
L 234.442251 288.578865 
L 234.614026 286.45508 
L 234.785801 292.461835 
L 234.957576 292.015202 
L 235.129351 289.134877 
L 235.301126 279.044623 
L 235.4729 286.418621 
L 235.644675 273.065213 
L 235.81645 278.014633 
L 235.988225 290.046372 
L 236.16 281.013453 
L 236.331775 282.64503 
L 236.50355 280.676199 
L 236.675325 276.182527 
L 237.018874 286.418621 
L 237.190649 274.168122 
L 237.362424 279.919658 
L 237.534199 281.396281 
L 237.705974 276.811459 
L 237.877749 279.545945 
L 238.049524 278.889668 
L 238.393074 282.690604 
L 238.564848 275.590055 
L 238.736623 282.927593 
L 238.908398 271.597705 
L 239.251948 286.373046 
L 239.423723 281.013453 
L 239.595498 289.244256 
L 239.767273 265.445111 
L 239.939048 280.256911 
L 240.282597 277.722954 
L 240.454372 282.089017 
L 240.797922 279.126657 
L 240.969697 280.794694 
L 241.141472 216.333738 
L 241.313247 275.498905 
L 241.485022 283.647674 
L 241.828571 227.107613 
L 242.000346 259.219597 
L 242.343896 291.769099 
L 242.859221 279.673554 
L 243.030996 293.947573 
L 243.54632 292.352456 
L 243.718095 281.323361 
L 244.23342 291.222201 
L 244.57697 290.46566 
L 244.920519 267.842344 
L 245.435844 277.713839 
L 245.779394 292.233961 
L 245.951169 288.196037 
L 246.122944 281.077257 
L 246.294719 283.073432 
L 246.466494 290.201327 
L 246.638268 289.034612 
L 246.810043 285.917298 
L 246.981818 269.081978 
L 247.325368 291.796444 
L 247.497143 285.880838 
L 247.668918 289.007268 
L 248.184242 290.565925 
L 248.871342 294.540045 
L 249.386667 292.151927 
L 250.073766 293.491825 
L 250.760866 292.54387 
L 251.447965 289.52682 
L 252.135065 293.291296 
L 252.65039 292.944928 
L 253.337489 290.812028 
L 254.024589 290.328936 
L 254.711688 292.051662 
L 255.227013 289.745579 
L 255.398788 287.311886 
L 255.742338 293.984033 
L 255.914113 294.45801 
L 256.085887 284.914653 
L 256.257662 289.189567 
L 256.429437 276.419516 
L 256.601212 278.251622 
L 256.772987 277.285436 
L 256.944762 293.345986 
L 257.116537 294.58562 
L 257.288312 267.915263 
L 257.460087 287.056667 
L 257.631861 289.390096 
L 257.803636 288.524175 
L 257.975411 285.908183 
L 258.147186 288.041082 
L 258.318961 268.006413 
L 258.490736 288.642669 
L 258.662511 286.391276 
L 258.834286 53.568 
L 259.006061 285.880838 
L 259.177835 285.51624 
L 259.521385 279.418336 
L 259.69316 289.399211 
L 259.864935 288.013738 
L 260.03671 280.685314 
L 260.208485 288.42391 
L 260.38026 281.396281 
L 260.72381 286.409506 
L 260.895584 285.962873 
L 261.239134 274.888203 
L 261.410909 182.262039 
L 261.582684 277.959943 
L 261.926234 286.628264 
L 262.613333 289.353636 
L 262.956883 292.853778 
L 263.300433 278.324541 
L 263.472208 290.720879 
L 263.987532 287.111357 
L 264.159307 287.804094 
L 264.674632 281.870258 
L 264.846407 290.246901 
L 265.018182 288.205152 
L 265.361732 288.697359 
L 265.533506 293.692354 
L 266.048831 287.959048 
L 266.220606 284.076077 
L 266.564156 290.748224 
L 266.735931 266.228997 
L 267.079481 292.707939 
L 267.251255 283.310421 
L 267.42303 291.42273 
L 267.594805 288.788509 
L 267.76658 289.080187 
L 267.938355 277.750299 
L 268.11013 286.692069 
L 268.45368 222.705091 
L 268.625455 289.636199 
L 268.797229 292.370686 
L 268.969004 292.944928 
L 269.140779 248.71917 
L 269.312554 280.202222 
L 269.656104 283.556525 
L 269.999654 293.382446 
L 270.343203 287.813209 
L 270.514978 295.241896 
L 270.858528 271.780004 
L 271.030303 292.534755 
L 271.545628 283.073432 
L 272.060952 293.46448 
L 272.232727 276.310136 
L 272.576277 286.956403 
L 273.091602 289.535935 
L 273.606926 286.145172 
L 274.122251 241.336057 
L 274.465801 291.058132 
L 274.637576 290.775569 
L 274.981126 290.4292 
L 275.49645 291.49565 
L 276.011775 291.851133 
L 276.5271 291.377156 
L 277.557749 291.933168 
L 278.073074 294.275711 
L 278.588398 292.59856 
L 279.103723 292.890238 
L 279.619048 293.856423 
L 280.134372 290.474775 
L 280.306147 291.194857 
L 280.477922 292.844663 
L 280.821472 287.630909 
L 281.165022 292.033432 
L 281.336797 285.333941 
L 281.508571 289.709119 
L 281.680346 286.865253 
L 281.852121 292.051662 
L 282.023896 293.847308 
L 282.367446 286.291011 
L 282.710996 289.399211 
L 282.882771 294.385091 
L 283.054545 290.091947 
L 283.22632 291.386271 
L 283.398095 294.175447 
L 283.741645 286.309241 
L 283.91342 292.41626 
L 284.085195 286.50977 
L 284.25697 290.976098 
L 284.600519 290.912293 
L 284.772294 278.096667 
L 285.287619 286.528 
L 285.459394 281.031683 
L 285.631169 290.948753 
L 285.802944 289.873188 
L 285.974719 291.896708 
L 286.146494 292.133697 
L 286.318268 287.548875 
L 286.490043 293.683239 
L 286.661818 287.339231 
L 286.833593 288.925233 
L 287.177143 294.412435 
L 287.348918 273.366006 
L 287.692468 281.286901 
L 287.864242 291.42273 
L 288.207792 281.61504 
L 288.551342 292.425375 
L 288.723117 287.065782 
L 289.066667 282.216627 
L 289.238442 290.802914 
L 289.581991 279.445681 
L 289.925541 293.017847 
L 290.097316 254.024073 
L 290.440866 279.673554 
L 290.95619 283.675019 
L 291.127965 294.704114 
L 291.471515 250.59685 
L 291.64329 289.380981 
L 291.815065 280.038153 
L 292.33039 286.336586 
L 292.502165 294.102527 
L 292.845714 284.641204 
L 293.017489 283.082547 
L 293.189264 285.261021 
L 293.704589 279.363646 
L 293.876364 226.214348 
L 294.219913 284.859963 
L 294.563463 294.758804 
L 294.735238 274.614755 
L 295.078788 293.254836 
L 295.250563 280.120187 
L 295.422338 290.219556 
L 295.765887 267.058458 
L 296.109437 287.038437 
L 296.281212 255.919984 
L 296.452987 289.481245 
L 296.624762 289.718234 
L 296.796537 289.481245 
L 297.140087 287.931703 
L 297.655411 293.40979 
L 297.827186 278.342771 
L 298.170736 290.55681 
L 298.342511 287.421266 
L 298.514286 291.595915 
L 298.857835 265.363076 
L 299.201385 286.017563 
L 299.71671 262.482751 
L 299.888485 274.815284 
L 300.232035 271.934958 
L 300.40381 273.256627 
L 300.747359 290.793799 
L 300.919134 281.797339 
L 301.090909 205.514287 
L 301.262684 291.286006 
L 301.434459 290.647959 
L 301.606234 288.114002 
L 301.778009 287.676484 
L 302.121558 238.455731 
L 302.293333 282.772639 
L 302.465108 283.355996 
L 302.636883 281.350706 
L 302.808658 267.012883 
L 302.980433 283.802629 
L 303.152208 289.171337 
L 303.495758 271.880269 
L 303.667532 290.019027 
L 303.839307 285.333941 
L 304.011082 274.55095 
L 304.182857 291.44096 
L 304.354632 247.515996 
L 304.526407 290.55681 
L 304.698182 280.922303 
L 304.869957 282.107247 
L 305.041732 270.221347 
L 305.213506 292.972273 
L 305.385281 290.638844 
L 305.557056 277.431276 
L 305.728831 291.47742 
L 305.900606 283.073432 
L 306.244156 284.796159 
L 306.415931 231.473677 
L 306.587706 285.51624 
L 306.759481 287.567105 
L 306.931255 268.64446 
L 307.274805 291.677949 
L 307.44658 274.787939 
L 307.618355 229.331662 
L 308.13368 293.127227 
L 308.305455 285.415976 
L 308.477229 271.944073 
L 308.649004 285.288366 
L 308.820779 221.365192 
L 309.164329 287.630909 
L 309.336104 288.123117 
L 309.507879 282.863788 
L 309.679654 289.727349 
L 310.023203 291.778214 
L 310.194978 290.164867 
L 310.366753 290.210442 
L 310.538528 288.56975 
L 310.710303 276.218987 
L 310.882078 291.003443 
L 311.053853 290.602385 
L 311.225628 287.548875 
L 311.397403 289.317176 
L 311.569177 285.734999 
L 311.912727 292.151927 
L 312.084502 289.718234 
L 312.256277 253.185497 
L 312.428052 292.571215 
L 312.599827 276.401286 
L 312.771602 289.49036 
L 312.943377 291.395386 
L 313.286926 293.783504 
L 313.458701 285.44332 
L 313.630476 284.905538 
L 313.802251 286.901713 
L 313.974026 278.069322 
L 314.145801 293.336871 
L 314.317576 279.281611 
L 314.489351 291.933168 
L 314.661126 290.657074 
L 314.8329 283.893778 
L 315.004675 283.811744 
L 315.17645 290.456545 
L 315.348225 288.241611 
L 315.52 292.233961 
L 315.691775 278.078437 
L 315.86355 292.106352 
L 316.035325 284.440675 
L 316.2071 291.012557 
L 316.378874 284.63209 
L 316.550649 286.664724 
L 316.722424 285.124297 
L 316.894199 264.141672 
L 317.065974 283.902893 
L 317.409524 287.238966 
L 317.581299 283.793514 
L 317.924848 287.740289 
L 318.096623 286.072252 
L 318.268398 292.243076 
L 318.440173 289.782039 
L 318.611948 283.957583 
L 318.783723 289.025497 
L 318.955498 278.917013 
L 319.299048 289.016383 
L 319.470823 290.401856 
L 319.642597 293.418905 
L 319.814372 278.224277 
L 319.986147 290.456545 
L 320.157922 266.839699 
L 320.329697 283.884663 
L 320.673247 278.625335 
L 321.016797 283.930238 
L 321.188571 294.685884 
L 321.532121 272.317786 
L 321.875671 285.288366 
L 322.219221 273.238397 
L 322.390996 284.796159 
L 322.562771 280.676199 
L 322.734545 283.000513 
L 322.90632 275.353066 
L 323.078095 274.140777 
L 323.24987 288.742934 
L 323.421645 281.141062 
L 323.59342 278.853209 
L 323.765195 287.056667 
L 323.93697 287.794979 
L 324.108745 286.746759 
L 324.452294 277.221632 
L 324.624069 275.717664 
L 324.967619 278.306311 
L 325.139394 289.380981 
L 325.311169 285.46155 
L 325.482944 287.084012 
L 325.826494 281.651499 
L 325.998268 293.036077 
L 326.170043 290.155752 
L 326.341818 294.385091 
L 326.513593 230.72625 
L 326.685368 245.802385 
L 326.857143 270.640635 
L 327.028918 274.241042 
L 327.200693 289.58151 
L 327.372468 282.799984 
L 327.716017 290.875833 
L 328.059567 282.57211 
L 328.231342 279.126657 
L 328.403117 278.388346 
L 328.574892 272.919373 
L 328.746667 274.523605 
L 328.918442 286.418621 
L 329.090216 283.592985 
L 329.261991 272.427166 
L 329.433766 272.308671 
L 329.605541 219.159373 
L 329.777316 276.064033 
L 329.949091 285.662079 
L 330.120866 283.829974 
L 330.292641 289.071072 
L 330.464416 269.884094 
L 330.807965 284.787044 
L 330.97974 288.642669 
L 331.151515 287.712944 
L 331.32329 290.866718 
L 331.495065 289.864073 
L 331.66684 285.169872 
L 331.838615 291.085477 
L 332.182165 292.926698 
L 332.353939 289.134877 
L 332.525714 288.670014 
L 332.697489 293.628549 
L 333.041039 294.713229 
L 333.212814 291.286006 
L 333.384589 292.024317 
L 334.071688 247.944399 
L 334.243463 278.807634 
L 334.415238 269.929668 
L 334.758788 284.5774 
L 334.930563 288.259841 
L 335.102338 288.724704 
L 335.274113 265.928203 
L 335.445887 288.824968 
L 335.617662 193.0268 
L 335.789437 273.293086 
L 335.961212 198.094714 
L 336.132987 267.003768 
L 336.304762 288.186922 
L 336.476537 286.947288 
L 336.648312 275.790584 
L 336.820087 276.109607 
L 336.991861 286.910828 
L 337.163636 283.146352 
L 337.335411 282.134592 
L 337.678961 291.049017 
L 337.850736 277.905253 
L 338.022511 282.243972 
L 338.194286 281.241327 
L 338.366061 273.967593 
L 338.537835 280.712659 
L 338.70961 281.56035 
L 338.881385 223.86269 
L 339.05316 287.758519 
L 339.224935 273.174592 
L 339.568485 279.637095 
L 339.74026 275.070503 
L 339.912035 265.727674 
L 340.08381 276.209872 
L 340.255584 265.508916 
L 340.427359 268.69915 
L 340.599134 285.981103 
L 340.942684 273.985823 
L 341.114459 270.604175 
L 341.458009 289.818498 
L 341.801558 294.995792 
L 342.660433 265.53626 
L 343.003983 255.108753 
L 343.519307 264.889099 
L 343.862857 232.257563 
L 344.206407 274.669445 
L 344.721732 275.626515 
L 345.752381 285.452435 
L 345.924156 284.686779 
L 346.095931 287.084012 
L 346.439481 283.419801 
L 346.78303 278.215162 
L 347.12658 280.53036 
L 347.47013 284.814389 
L 347.641905 283.210157 
L 347.985455 284.668549 
L 348.329004 284.440675 
L 348.672554 270.348956 
L 349.016104 287.065782 
L 349.359654 285.042262 
L 349.703203 278.196932 
L 349.874978 288.651784 
L 350.218528 284.650319 
L 350.562078 276.401286 
L 351.249177 286.810564 
L 351.592727 278.825864 
L 351.936277 293.017847 
L 352.108052 286.755874 
L 352.451602 292.534755 
L 352.795152 287.412151 
L 353.138701 291.51388 
L 353.482251 292.680594 
L 353.654026 290.456545 
L 353.825801 290.073717 
L 354.169351 288.114002 
L 354.341126 284.112537 
L 354.5129 288.42391 
L 354.684675 288.341876 
L 354.85645 282.717949 
L 355.028225 292.315996 
L 355.2 278.497725 
L 355.371775 289.390096 
L 355.54355 290.474775 
L 355.715325 285.689424 
L 355.8871 292.261306 
L 356.230649 285.133412 
L 356.402424 285.62562 
L 356.574199 292.106352 
L 356.745974 292.762629 
L 356.917749 284.094307 
L 357.089524 290.802914 
L 357.261299 289.43567 
L 357.433074 292.142812 
L 357.604848 287.038437 
L 357.776623 287.238966 
L 357.948398 286.783219 
L 358.120173 289.909648 
L 358.291948 289.809384 
L 358.463723 290.693534 
L 358.635498 272.126372 
L 358.807273 288.196037 
L 358.979048 284.085192 
L 359.150823 284.960228 
L 359.322597 279.181347 
L 359.494372 285.379516 
L 359.666147 286.126942 
L 360.009697 289.845843 
L 360.181472 279.008163 
L 360.353247 291.504765 
L 360.525022 291.003443 
L 360.696797 283.656789 
L 360.868571 289.499475 
L 361.040346 291.358926 
L 361.212121 290.009913 
L 361.383896 292.343341 
L 361.727446 290.839373 
L 361.899221 284.996688 
L 362.070996 291.842018 
L 362.242771 292.042547 
L 362.58632 283.6021 
L 362.758095 289.499475 
L 362.92987 288.806739 
L 363.101645 285.798804 
L 363.27342 294.284826 
L 372.377489 280.958763 
L 373.064589 290.921408 
L 373.751688 286.555345 
L 374.267013 278.479495 
L 374.954113 285.042262 
L 375.641212 282.763524 
L 376.328312 284.5774 
L 376.843636 272.49097 
L 377.530736 282.544765 
L 378.217835 281.122832 
L 378.73316 284.896423 
L 379.42026 275.754124 
L 379.76381 281.551235 
L 379.935584 109.971337 
L 380.279134 276.228102 
L 380.450909 274.368651 
L 380.622684 283.51095 
L 380.794459 279.108427 
L 380.966234 266.785009 
L 381.138009 196.417563 
L 381.309784 279.792049 
L 381.653333 278.479495 
L 381.825108 282.025213 
L 381.996883 272.691499 
L 382.168658 276.692964 
L 382.340433 283.465375 
L 382.512208 272.591235 
L 382.683983 273.393351 
L 382.855758 263.777074 
L 383.027532 267.104033 
L 383.371082 288.141347 
L 383.542857 285.215447 
L 383.714632 289.408326 
L 383.886407 288.907003 
L 384.058182 289.016383 
L 386.119481 289.718234 
L 386.978355 290.164867 
L 387.665455 294.667654 
L 388.524329 292.315996 
L 389.211429 284.677664 
L 390.070303 291.377156 
L 390.757403 275.918193 
L 391.616277 293.090767 
L 392.303377 289.499475 
L 392.990476 285.042262 
L 393.849351 286.56446 
L 394.53645 286.555345 
L 395.051775 285.279251 
L 395.22355 291.741754 
L 395.395325 292.224846 
L 395.5671 290.848488 
L 395.738874 283.246616 
L 395.910649 291.44096 
L 396.082424 293.026962 
L 396.425974 287.43038 
L 396.597749 291.094592 
L 396.769524 291.924053 
L 396.941299 290.401856 
L 397.113074 292.051662 
L 397.284848 285.734999 
L 397.456623 292.407145 
L 397.628398 290.802914 
L 397.800173 292.671479 
L 397.971948 288.360106 
L 398.143723 292.398031 
L 398.315498 288.989038 
L 398.487273 291.650604 
L 398.487273 291.650604 
" style="fill:none;stroke:#0000ff;stroke-linecap:square;stroke-width:1.5;"/>
   </g>
   <g id="patch_3">
    <path d="M 57.6 307.584 
L 57.6 41.472 
" style="fill:none;stroke:#000000;stroke-linecap:square;stroke-linejoin:miter;stroke-width:0.8;"/>
   </g>
   <g id="patch_4">
    <path d="M 414.72 307.584 
L 414.72 41.472 
" style="fill:none;stroke:#000000;stroke-linecap:square;stroke-linejoin:miter;stroke-width:0.8;"/>
   </g>
   <g id="patch_5">
    <path d="M 57.6 307.584 
L 414.72 307.584 
" style="fill:none;stroke:#000000;stroke-linecap:square;stroke-linejoin:miter;stroke-width:0.8;"/>
   </g>
   <g id="patch_6">
    <path d="M 57.6 41.472 
L 414.72 41.472 
" style="fill:none;stroke:#000000;stroke-linecap:square;stroke-linejoin:miter;stroke-width:0.8;"/>
   </g>
   <g id="text_18">
    <!-- air_pressure-&gt;ping_night -->
    <g transform="translate(160.726875 35.472)scale(0.12 -0.12)">
     <defs>
      <path d="M 4.890625 31.390625 
L 31.203125 31.390625 
L 31.203125 23.390625 
L 4.890625 23.390625 
z
" id="DejaVuSans-45"/>
      <path d="M 10.59375 49.21875 
L 10.59375 58.109375 
L 73.1875 35.40625 
L 73.1875 27.296875 
L 10.59375 4.59375 
L 10.59375 13.484375 
L 60.890625 31.296875 
z
" id="DejaVuSans-62"/>
     </defs>
     <use xlink:href="#DejaVuSans-97"/>
     <use x="61.279297" xlink:href="#DejaVuSans-105"/>
     <use x="89.0625" xlink:href="#DejaVuSans-114"/>
     <use x="130.175781" xlink:href="#DejaVuSans-95"/>
     <use x="180.175781" xlink:href="#DejaVuSans-112"/>
     <use x="243.652344" xlink:href="#DejaVuSans-114"/>
     <use x="282.515625" xlink:href="#DejaVuSans-101"/>
     <use x="344.039062" xlink:href="#DejaVuSans-115"/>
     <use x="396.138672" xlink:href="#DejaVuSans-115"/>
     <use x="448.238281" xlink:href="#DejaVuSans-117"/>
     <use x="511.617188" xlink:href="#DejaVuSans-114"/>
     <use x="550.480469" xlink:href="#DejaVuSans-101"/>
     <use x="612.003906" xlink:href="#DejaVuSans-45"/>
     <use x="648.087891" xlink:href="#DejaVuSans-62"/>
     <use x="731.876953" xlink:href="#DejaVuSans-112"/>
     <use x="795.353516" xlink:href="#DejaVuSans-105"/>
     <use x="823.136719" xlink:href="#DejaVuSans-110"/>
     <use x="886.515625" xlink:href="#DejaVuSans-103"/>
     <use x="949.992188" xlink:href="#DejaVuSans-95"/>
     <use x="999.992188" xlink:href="#DejaVuSans-110"/>
     <use x="1063.371094" xlink:href="#DejaVuSans-105"/>
     <use x="1091.154297" xlink:href="#DejaVuSans-103"/>
     <use x="1154.630859" xlink:href="#DejaVuSans-104"/>
     <use x="1218.009766" xlink:href="#DejaVuSans-116"/>
    </g>
   </g>
  </g>
  <g id="legend_1">
   <g id="patch_7">
    <path d="M 346.5125 22.95625 
L 453.8 22.95625 
Q 455.8 22.95625 455.8 20.95625 
L 455.8 7 
Q 455.8 5 453.8 5 
L 346.5125 5 
Q 344.5125 5 344.5125 7 
L 344.5125 20.95625 
Q 344.5125 22.95625 346.5125 22.95625 
z
" style="fill:#ffffff;opacity:0.8;stroke:#cccccc;stroke-linejoin:miter;"/>
   </g>
   <g id="line2d_17">
    <path d="M 348.5125 13.098437 
L 368.5125 13.098437 
" style="fill:none;stroke:#0000ff;stroke-linecap:square;stroke-width:1.5;"/>
   </g>
   <g id="line2d_18"/>
   <g id="text_19">
    <!-- ping_night[ms] -->
    <g transform="translate(376.5125 16.598437)scale(0.1 -0.1)">
     <use xlink:href="#DejaVuSans-112"/>
     <use x="63.476562" xlink:href="#DejaVuSans-105"/>
     <use x="91.259766" xlink:href="#DejaVuSans-110"/>
     <use x="154.638672" xlink:href="#DejaVuSans-103"/>
     <use x="218.115234" xlink:href="#DejaVuSans-95"/>
     <use x="268.115234" xlink:href="#DejaVuSans-110"/>
     <use x="331.494141" xlink:href="#DejaVuSans-105"/>
     <use x="359.277344" xlink:href="#DejaVuSans-103"/>
     <use x="422.753906" xlink:href="#DejaVuSans-104"/>
     <use x="486.132812" xlink:href="#DejaVuSans-116"/>
     <use x="525.341797" xlink:href="#DejaVuSans-91"/>
     <use x="564.355469" xlink:href="#DejaVuSans-109"/>
     <use x="661.767578" xlink:href="#DejaVuSans-115"/>
     <use x="713.867188" xlink:href="#DejaVuSans-93"/>
    </g>
   </g>
  </g>
 </g>
 <defs>
  <clipPath id="p5ca2a3b62e">
   <rect height="266.112" width="357.12" x="57.6" y="41.472"/>
  </clipPath>
 </defs>
</svg>
