<?xml version="1.0" encoding="utf-8" standalone="no"?>
<!DOCTYPE svg PUBLIC "-//W3C//DTD SVG 1.1//EN"
  "http://www.w3.org/Graphics/SVG/1.1/DTD/svg11.dtd">
<!-- Created with matplotlib (https://matplotlib.org/) -->
<svg height="2090.594375pt" version="1.1" viewBox="0 0 2059.08125 2090.594375" width="2059.08125pt" xmlns="http://www.w3.org/2000/svg" xmlns:xlink="http://www.w3.org/1999/xlink">
 <metadata>
  <rdf:RDF xmlns:cc="http://creativecommons.org/ns#" xmlns:dc="http://purl.org/dc/elements/1.1/" xmlns:rdf="http://www.w3.org/1999/02/22-rdf-syntax-ns#">
   <cc:Work>
    <dc:type rdf:resource="http://purl.org/dc/dcmitype/StillImage"/>
    <dc:date>2022-07-24T11:52:40.958182</dc:date>
    <dc:format>image/svg+xml</dc:format>
    <dc:creator>
     <cc:Agent>
      <dc:title>Matplotlib v3.3.2, https://matplotlib.org/</dc:title>
     </cc:Agent>
    </dc:creator>
   </cc:Work>
  </rdf:RDF>
 </metadata>
 <defs>
  <style type="text/css">*{stroke-linecap:butt;stroke-linejoin:round;}</style>
 </defs>
 <g id="figure_1">
  <g id="patch_1">
   <path d="M 0 2090.594375 
L 2059.08125 2090.594375 
L 2059.08125 0 
L 0 0 
z
" style="fill:#ffffff;"/>
  </g>
  <g id="axes_1">
   <g id="patch_2">
    <path d="M 40.88125 2052.76 
L 1826.48125 2052.76 
L 1826.48125 278.68 
L 40.88125 278.68 
z
" style="fill:#ffffff;"/>
   </g>
   <g id="matplotlib.axis_1">
    <g id="xtick_1">
     <g id="line2d_1">
      <defs>
       <path d="M 0 0 
L 0 3.5 
" id="mdfbdc4b20c" style="stroke:#000000;stroke-width:0.8;"/>
      </defs>
      <g>
       <use style="stroke:#000000;stroke-width:0.8;" x="64.500298" xlink:href="#mdfbdc4b20c" y="2052.76"/>
      </g>
     </g>
     <g id="text_1">
      <text style="font-family:DejaVu Sans;font-size:10px;font-stretch:normal;font-style:normal;font-weight:normal;text-anchor:middle;" transform="rotate(-0, 64.500298, 2067.358437)" x="64.500298" y="2067.358437">1005.0</text>
     </g>
    </g>
    <g id="xtick_2">
     <g id="line2d_2">
      <g>
       <use style="stroke:#000000;stroke-width:0.8;" x="279.218912" xlink:href="#mdfbdc4b20c" y="2052.76"/>
      </g>
     </g>
     <g id="text_2">
      <text style="font-family:DejaVu Sans;font-size:10px;font-stretch:normal;font-style:normal;font-weight:normal;text-anchor:middle;" transform="rotate(-0, 279.218912, 2067.358437)" x="279.218912" y="2067.358437">1007.5</text>
     </g>
    </g>
    <g id="xtick_3">
     <g id="line2d_3">
      <g>
       <use style="stroke:#000000;stroke-width:0.8;" x="493.937527" xlink:href="#mdfbdc4b20c" y="2052.76"/>
      </g>
     </g>
     <g id="text_3">
      <text style="font-family:DejaVu Sans;font-size:10px;font-stretch:normal;font-style:normal;font-weight:normal;text-anchor:middle;" transform="rotate(-0, 493.937527, 2067.358437)" x="493.937527" y="2067.358437">1010.0</text>
     </g>
    </g>
    <g id="xtick_4">
     <g id="line2d_4">
      <g>
       <use style="stroke:#000000;stroke-width:0.8;" x="708.656142" xlink:href="#mdfbdc4b20c" y="2052.76"/>
      </g>
     </g>
     <g id="text_4">
      <text style="font-family:DejaVu Sans;font-size:10px;font-stretch:normal;font-style:normal;font-weight:normal;text-anchor:middle;" transform="rotate(-0, 708.656142, 2067.358437)" x="708.656142" y="2067.358437">1012.5</text>
     </g>
    </g>
    <g id="xtick_5">
     <g id="line2d_5">
      <g>
       <use style="stroke:#000000;stroke-width:0.8;" x="923.374756" xlink:href="#mdfbdc4b20c" y="2052.76"/>
      </g>
     </g>
     <g id="text_5">
      <text style="font-family:DejaVu Sans;font-size:10px;font-stretch:normal;font-style:normal;font-weight:normal;text-anchor:middle;" transform="rotate(-0, 923.374756, 2067.358437)" x="923.374756" y="2067.358437">1015.0</text>
     </g>
    </g>
    <g id="xtick_6">
     <g id="line2d_6">
      <g>
       <use style="stroke:#000000;stroke-width:0.8;" x="1138.093371" xlink:href="#mdfbdc4b20c" y="2052.76"/>
      </g>
     </g>
     <g id="text_6">
      <text style="font-family:DejaVu Sans;font-size:10px;font-stretch:normal;font-style:normal;font-weight:normal;text-anchor:middle;" transform="rotate(-0, 1138.093371, 2067.358437)" x="1138.093371" y="2067.358437">1017.5</text>
     </g>
    </g>
    <g id="xtick_7">
     <g id="line2d_7">
      <g>
       <use style="stroke:#000000;stroke-width:0.8;" x="1352.811986" xlink:href="#mdfbdc4b20c" y="2052.76"/>
      </g>
     </g>
     <g id="text_7">
      <text style="font-family:DejaVu Sans;font-size:10px;font-stretch:normal;font-style:normal;font-weight:normal;text-anchor:middle;" transform="rotate(-0, 1352.811986, 2067.358437)" x="1352.811986" y="2067.358437">1020.0</text>
     </g>
    </g>
    <g id="xtick_8">
     <g id="line2d_8">
      <g>
       <use style="stroke:#000000;stroke-width:0.8;" x="1567.530601" xlink:href="#mdfbdc4b20c" y="2052.76"/>
      </g>
     </g>
     <g id="text_8">
      <text style="font-family:DejaVu Sans;font-size:10px;font-stretch:normal;font-style:normal;font-weight:normal;text-anchor:middle;" transform="rotate(-0, 1567.530601, 2067.358437)" x="1567.530601" y="2067.358437">1022.5</text>
     </g>
    </g>
    <g id="xtick_9">
     <g id="line2d_9">
      <g>
       <use style="stroke:#000000;stroke-width:0.8;" x="1782.249215" xlink:href="#mdfbdc4b20c" y="2052.76"/>
      </g>
     </g>
     <g id="text_9">
      <text style="font-family:DejaVu Sans;font-size:10px;font-stretch:normal;font-style:normal;font-weight:normal;text-anchor:middle;" transform="rotate(-0, 1782.249215, 2067.358437)" x="1782.249215" y="2067.358437">1025.0</text>
     </g>
    </g>
    <g id="text_10">
     <text style="font-family:DejaVu Sans;font-size:10px;font-stretch:normal;font-style:normal;font-weight:normal;text-anchor:middle;" transform="rotate(-0, 933.68125, 2081.036562)" x="933.68125" y="2081.036562">air_pressure from Foreca</text>
    </g>
   </g>
   <g id="matplotlib.axis_2">
    <g id="ytick_1">
     <g id="line2d_10">
      <defs>
       <path d="M 0 0 
L -3.5 0 
" id="mace95ebe75" style="stroke:#000000;stroke-width:0.8;"/>
      </defs>
      <g>
       <use style="stroke:#000000;stroke-width:0.8;" x="40.88125" xlink:href="#mace95ebe75" y="1962.458149"/>
      </g>
     </g>
     <g id="text_11">
      <text style="font-family:DejaVu Sans;font-size:10px;font-stretch:normal;font-style:normal;font-weight:normal;text-anchor:end;" transform="rotate(-0, 33.88125, 1966.257367)" x="33.88125" y="1966.257367">5</text>
     </g>
    </g>
    <g id="ytick_2">
     <g id="line2d_11">
      <g>
       <use style="stroke:#000000;stroke-width:0.8;" x="40.88125" xlink:href="#mace95ebe75" y="1658.626341"/>
      </g>
     </g>
     <g id="text_12">
      <text style="font-family:DejaVu Sans;font-size:10px;font-stretch:normal;font-style:normal;font-weight:normal;text-anchor:end;" transform="rotate(-0, 33.88125, 1662.42556)" x="33.88125" y="1662.42556">10</text>
     </g>
    </g>
    <g id="ytick_3">
     <g id="line2d_12">
      <g>
       <use style="stroke:#000000;stroke-width:0.8;" x="40.88125" xlink:href="#mace95ebe75" y="1354.794534"/>
      </g>
     </g>
     <g id="text_13">
      <text style="font-family:DejaVu Sans;font-size:10px;font-stretch:normal;font-style:normal;font-weight:normal;text-anchor:end;" transform="rotate(-0, 33.88125, 1358.593752)" x="33.88125" y="1358.593752">15</text>
     </g>
    </g>
    <g id="ytick_4">
     <g id="line2d_13">
      <g>
       <use style="stroke:#000000;stroke-width:0.8;" x="40.88125" xlink:href="#mace95ebe75" y="1050.962726"/>
      </g>
     </g>
     <g id="text_14">
      <text style="font-family:DejaVu Sans;font-size:10px;font-stretch:normal;font-style:normal;font-weight:normal;text-anchor:end;" transform="rotate(-0, 33.88125, 1054.761945)" x="33.88125" y="1054.761945">20</text>
     </g>
    </g>
    <g id="ytick_5">
     <g id="line2d_14">
      <g>
       <use style="stroke:#000000;stroke-width:0.8;" x="40.88125" xlink:href="#mace95ebe75" y="747.130919"/>
      </g>
     </g>
     <g id="text_15">
      <text style="font-family:DejaVu Sans;font-size:10px;font-stretch:normal;font-style:normal;font-weight:normal;text-anchor:end;" transform="rotate(-0, 33.88125, 750.930138)" x="33.88125" y="750.930138">25</text>
     </g>
    </g>
    <g id="ytick_6">
     <g id="line2d_15">
      <g>
       <use style="stroke:#000000;stroke-width:0.8;" x="40.88125" xlink:href="#mace95ebe75" y="443.299112"/>
      </g>
     </g>
     <g id="text_16">
      <text style="font-family:DejaVu Sans;font-size:10px;font-stretch:normal;font-style:normal;font-weight:normal;text-anchor:end;" transform="rotate(-0, 33.88125, 447.09833)" x="33.88125" y="447.09833">30</text>
     </g>
    </g>
    <g id="text_17">
     <text style="font-family:DejaVu Sans;font-size:10px;font-stretch:normal;font-style:normal;font-weight:normal;text-anchor:middle;" transform="rotate(-90, 14.798438, 1165.72)" x="14.798438" y="1165.72">ping_night[ms]</text>
    </g>
   </g>
   <g id="line2d_16">
    <path clip-path="url(#pd6eb7932a2)" d="M 122.044886 1722.917152 
L 122.903761 1697.273747 
L 123.762635 1825.916134 
L 124.62151 1797.355944 
L 125.480384 1889.173917 
L 126.339259 1830.412845 
L 127.198133 1939.366931 
L 128.057008 1902.117152 
L 231.980817 1901.691787 
L 232.839692 1778.761438 
L 233.698566 1809.873815 
L 234.55744 1878.175205 
L 235.416315 1873.617728 
L 236.275189 1879.451299 
L 237.134064 1805.924001 
L 237.992938 1862.619017 
L 238.851813 1876.899112 
L 239.710687 1869.364083 
L 240.569562 1863.287447 
L 241.428436 1892.516066 
L 243.146185 1919.739396 
L 244.863934 1805.498637 
L 246.581683 1851.316473 
L 248.299432 1867.176494 
L 250.017181 1899.80803 
L 252.593804 1906.127731 
L 254.311553 1899.321899 
L 256.029302 1856.967745 
L 257.747051 1828.286022 
L 258.605925 1965.496467 
L 259.4648 1923.02078 
L 261.182549 1962.032784 
L 263.759172 1849.432716 
L 265.476921 1949.271848 
L 267.19467 1967.44099 
L 270.630168 1904.669339 
L 272.347917 1961.668186 
L 273.206791 1917.551807 
L 274.065666 1970.722374 
L 274.92454 1959.966728 
L 276.642289 1958.569101 
L 278.360038 1937.665473 
L 280.077787 1953.343194 
L 280.936661 1953.100129 
L 281.795536 1924.904537 
L 282.65441 1931.771136 
L 284.372159 1954.133157 
L 285.231034 1942.709081 
L 286.089908 1945.382801 
L 286.948782 1949.211082 
L 287.807657 1958.386802 
L 288.666531 1906.553096 
L 289.525406 1949.150315 
L 291.243155 1935.052519 
L 292.102029 1911.414405 
L 292.960904 1910.563676 
L 293.819778 1967.076392 
L 295.537527 1860.249129 
L 297.255276 1917.794873 
L 298.11415 1963.005046 
L 298.973025 1728.325358 
L 299.831899 1958.447569 
L 300.690774 1939.609997 
L 302.408523 1669.321221 
L 304.126272 1945.747399 
L 305.844021 1788.484056 
L 306.702895 1939.488464 
L 308.420644 1932.682631 
L 309.279518 1836.185649 
L 310.997267 1959.176765 
L 312.715016 1936.814744 
L 315.29164 1950.851773 
L 316.150514 1223.843025 
L 317.009389 1906.431563 
L 319.586012 1569.178257 
L 321.303761 1921.562387 
L 323.02151 1485.138379 
L 324.739259 1924.236107 
L 326.457008 1228.218203 
L 328.174756 1948.724951 
L 329.033631 1401.2808 
L 330.75138 1951.520203 
L 331.610254 1774.811624 
L 334.186878 1701.648925 
L 336.763501 1934.019491 
L 339.340124 1293.298976 
L 340.198999 1925.086836 
L 341.916748 1512.422475 
L 343.634497 1926.241397 
L 346.21112 1935.356351 
L 347.069995 1944.167474 
L 349.646618 1924.418406 
L 350.505492 1540.435768 
L 352.223241 1933.654893 
L 353.082116 1876.412981 
L 355.658739 1920.954724 
L 358.235363 1952.127867 
L 361.67086 1958.872933 
L 365.106358 1924.296874 
L 367.682982 1947.57039 
L 371.118479 1917.551807 
L 373.695103 1960.513625 
L 377.130601 1733.490498 
L 380.566098 1934.019491 
L 383.142722 1958.629868 
L 386.57822 1928.611285 
L 387.437094 1811.392974 
L 389.154843 1958.9337 
L 390.013718 1644.95391 
L 392.590341 1794.25686 
L 396.025839 1645.440041 
L 398.602462 1786.843364 
L 401.179085 1846.455164 
L 402.03796 1954.193923 
L 403.755709 1859.702231 
L 404.614583 1914.635022 
L 407.191207 1918.767135 
L 408.050081 1928.428986 
L 408.908956 1877.446009 
L 410.626705 1941.919118 
L 411.485579 1879.876663 
L 414.062202 1940.278427 
L 416.638826 925.844788 
L 419.215449 1906.370797 
L 421.792073 1893.609861 
L 425.22757 1886.864795 
L 427.804194 1922.777714 
L 430.380817 1905.641601 
L 432.95744 1946.111997 
L 435.534064 1936.146314 
L 437.251813 1933.229529 
L 438.110687 1929.765846 
L 438.969562 1886.074832 
L 440.687311 1915.971882 
L 441.546185 1936.328613 
L 443.263934 1931.649603 
L 444.122808 1947.874222 
L 445.840557 1909.348349 
L 448.417181 1884.43414 
L 449.276055 1734.766592 
L 450.13493 1937.969305 
L 451.852679 1962.458149 
L 454.429302 1966.10413 
L 457.005925 1831.445873 
L 460.441423 1933.351061 
L 463.876921 1947.509624 
L 466.453544 1959.41983 
L 469.889042 1961.546653 
L 473.32454 1949.940278 
L 475.901163 1915.546517 
L 477.618912 1949.454147 
L 479.336661 1837.765575 
L 481.05441 1865.475036 
L 481.913285 1939.670763 
L 483.631034 1933.168762 
L 485.348782 1910.442143 
L 486.207657 1886.257131 
L 488.78428 1828.468321 
L 491.360904 1946.90196 
L 493.937527 1870.761709 
L 494.796402 1944.349773 
L 496.51415 1927.152893 
L 498.231899 1948.846484 
L 499.090774 1925.755266 
L 500.808523 1948.968016 
L 501.667397 1838.616304 
L 503.385146 1896.587413 
L 504.244021 1943.377511 
L 505.961769 1906.97846 
L 507.679518 1945.929698 
L 508.538393 1905.641601 
L 510.256142 1951.337904 
L 511.115016 1893.366796 
L 513.69164 1895.979749 
L 516.268263 1910.016779 
L 517.127137 1944.957436 
L 518.844886 1852.167202 
L 519.703761 1954.072391 
L 521.42151 1884.616439 
L 523.139259 1913.480461 
L 523.998133 1903.089413 
L 526.574756 1899.200366 
L 528.292505 1936.450146 
L 529.15138 1829.440583 
L 531.728003 1902.299451 
L 532.586878 1956.503045 
L 533.445752 1903.454012 
L 534.304627 1890.814608 
L 536.022376 1874.346924 
L 537.740124 1735.191957 
L 538.598999 1887.654758 
L 539.457873 1879.572831 
L 540.316748 1619.675103 
L 541.175622 1856.846212 
L 542.034497 1878.782869 
L 542.893371 1894.217525 
L 543.752246 1881.94272 
L 545.469995 1952.2494 
L 546.328869 1912.022068 
L 548.046618 1933.229529 
L 548.905492 1914.574256 
L 549.764367 1907.525358 
L 551.482116 1917.551807 
L 552.34099 1895.189786 
L 554.058739 1864.259708 
L 554.917614 1926.484463 
L 556.635363 1848.70352 
L 557.494237 1908.679919 
L 559.211986 1848.825053 
L 560.07086 1922.960014 
L 560.929735 1956.563811 
L 561.788609 1890.267711 
L 562.647484 1945.443567 
L 564.365233 1888.140888 
L 566.082982 1913.237396 
L 566.941856 1866.082699 
L 568.659605 1837.400977 
L 569.518479 1961.121289 
L 571.236228 1864.320475 
L 572.095103 1960.27056 
L 573.812852 1889.11315 
L 575.530601 1900.537226 
L 576.389475 1918.949434 
L 577.24835 1885.710234 
L 579.824973 1871.794737 
L 580.683847 1955.895381 
L 581.542722 1930.798874 
L 582.401596 1928.793584 
L 583.260471 1953.160895 
L 584.119345 1825.976901 
L 584.97822 1922.838481 
L 585.837094 1882.246551 
L 587.554843 1815.525086 
L 588.413718 1941.736819 
L 590.131466 1910.32061 
L 590.990341 1711.371543 
L 591.849215 1826.949162 
L 592.70809 1926.059098 
L 593.566964 1894.217525 
L 595.284713 1925.6945 
L 596.143588 1897.073544 
L 597.861337 1916.032648 
L 598.720211 1910.563676 
L 599.579085 1723.524815 
L 600.43796 1869.303316 
L 601.296834 1923.506911 
L 602.155709 1921.258555 
L 603.014583 1933.472594 
L 603.873458 1866.508064 
L 604.732332 1948.23882 
L 605.591207 1926.666762 
L 606.450081 1862.375951 
L 607.308956 1780.40213 
L 608.16783 1944.714371 
L 609.026705 1896.891244 
L 609.885579 1911.65747 
L 610.744453 1905.580834 
L 611.603328 1918.098705 
L 612.462202 1896.648179 
L 613.321077 1917.126443 
L 614.179951 1857.696941 
L 615.038826 1882.307318 
L 615.8977 1949.940278 
L 617.615449 1891.543805 
L 618.474324 1944.592838 
L 619.333198 1929.522781 
L 620.192073 1875.501485 
L 621.909821 1927.092126 
L 623.62757 1910.199078 
L 624.486445 1918.098705 
L 626.204194 1878.539803 
L 627.921943 1942.952146 
L 628.780817 1912.204368 
L 629.639692 1788.24099 
L 630.498566 1952.91783 
L 631.35744 1950.91254 
L 632.216315 1930.434276 
L 633.934064 1906.310031 
L 636.510687 1949.454147 
L 637.369562 1869.181784 
L 638.228436 1919.496331 
L 639.087311 1921.501621 
L 639.946185 1892.333767 
L 640.80506 1909.591414 
L 641.663934 1782.468186 
L 642.522808 1916.032648 
L 643.381683 1807.503927 
L 644.240557 1941.55452 
L 645.099432 1927.335192 
L 646.817181 1943.073679 
L 647.676055 1954.133157 
L 648.53493 1875.805317 
L 649.393804 1933.71566 
L 651.111553 1959.60213 
L 652.829302 1916.214947 
L 653.688176 1947.509624 
L 654.547051 1954.25469 
L 655.405925 1937.54394 
L 656.2648 1940.764557 
L 657.123674 1954.801587 
L 657.982549 1904.183208 
L 658.841423 1939.123866 
L 660.559172 1805.559403 
L 661.418047 1960.75669 
L 662.276921 1898.896534 
L 663.135795 1889.356216 
L 663.99467 1924.539939 
L 665.712419 1931.771136 
L 666.571293 1895.554385 
L 667.430168 1904.790871 
L 668.289042 1936.693211 
L 669.147917 1920.590125 
L 670.006791 1957.293008 
L 670.865666 1928.307453 
L 671.72454 1885.771 
L 672.583415 1469.278359 
L 673.442289 1929.218949 
L 675.160038 1945.625866 
L 676.877787 1854.476324 
L 677.736661 1916.214947 
L 681.172159 1954.25469 
L 682.031034 1890.45001 
L 684.607657 1925.937565 
L 685.466531 1842.566117 
L 686.325406 1923.446144 
L 688.043155 1878.782869 
L 688.902029 1924.053808 
L 690.619778 1884.859505 
L 691.478653 1934.991753 
L 692.337527 1924.661472 
L 693.196402 1917.734106 
L 694.91415 1569.785921 
L 695.773025 1887.77629 
L 696.631899 1900.537226 
L 697.490774 1900.111862 
L 699.208523 1533.204571 
L 700.926272 1897.438142 
L 701.785146 1893.366796 
L 702.644021 1905.094703 
L 703.502895 1923.932275 
L 704.361769 1807.017796 
L 705.220644 1936.936277 
L 706.079518 1930.069678 
L 706.938393 1702.925019 
L 707.797267 1857.089278 
L 708.656142 1934.20179 
L 709.515016 1909.834479 
L 710.373891 1758.647772 
L 711.232765 1951.702503 
L 712.09164 1926.119864 
L 712.950514 1860.735259 
L 713.809389 1888.809318 
L 714.668263 1912.812031 
L 715.527137 1921.562387 
L 716.386012 1945.808165 
L 717.244886 1878.235972 
L 718.103761 1870.883242 
L 718.962635 1927.69979 
L 719.82151 1401.220034 
L 720.680384 1872.949298 
L 721.539259 1931.892669 
L 722.398133 1937.118576 
L 723.257008 1837.583276 
L 724.115882 1950.851773 
L 724.974756 1804.222543 
L 725.833631 1932.500332 
L 726.692505 1475.233462 
L 727.55138 1940.096128 
L 728.410254 1895.615151 
L 729.269129 1869.24255 
L 730.128003 1949.028783 
L 730.986878 1916.640312 
L 731.845752 1809.752282 
L 732.704627 1942.648315 
L 733.563501 1926.970593 
L 734.422376 1778.639905 
L 735.28125 1953.343194 
L 736.140124 1902.299451 
L 736.998999 1893.974459 
L 737.857873 1936.450146 
L 738.716748 1895.79745 
L 739.575622 1926.970593 
L 740.434497 1821.237124 
L 741.293371 1950.730241 
L 742.152246 1909.530648 
L 743.01112 1848.399688 
L 743.869995 1942.952146 
L 744.728869 1890.45001 
L 745.587744 1864.077409 
L 746.446618 1920.893957 
L 747.305492 1957.475307 
L 748.164367 1826.82763 
L 749.023241 1916.518779 
L 749.882116 1943.377511 
L 750.74099 1721.154927 
L 751.599865 1875.136887 
L 752.458739 1884.008776 
L 753.317614 1886.621729 
L 754.176488 1901.934852 
L 755.035363 1871.551672 
L 755.894237 1960.331326 
L 756.753111 1919.070966 
L 757.611986 1894.885955 
L 758.47086 1920.529359 
L 759.329735 1887.229393 
L 760.188609 1879.086701 
L 761.047484 1873.860793 
L 761.906358 1932.925697 
L 762.765233 1895.675917 
L 763.624107 1954.619288 
L 764.482982 1907.586124 
L 765.341856 1898.167338 
L 766.200731 1922.838481 
L 767.918479 1869.121017 
L 768.777354 1931.588837 
L 769.636228 1907.889956 
L 770.495103 1945.747399 
L 771.353977 1929.765846 
L 773.071726 1906.917694 
L 773.930601 1476.509556 
L 774.789475 1922.109285 
L 775.64835 1919.921695 
L 776.507224 1912.143601 
L 777.366098 1966.225663 
L 778.224973 1941.797586 
L 779.083847 1930.191211 
L 779.942722 1844.085276 
L 780.801596 1866.933428 
L 781.660471 1925.02607 
L 782.519345 1904.48704 
L 783.37822 1898.410404 
L 784.237094 1944.349773 
L 785.095969 1956.25998 
L 785.954843 1869.607148 
L 786.813718 1876.352214 
L 787.672592 1901.14489 
L 788.531466 1694.72156 
L 789.390341 1908.558386 
L 790.249215 1911.171339 
L 791.10809 1904.243974 
L 791.966964 1947.995754 
L 792.825839 1842.626884 
L 793.684713 1495.590193 
L 794.543588 1880.180495 
L 795.402462 1912.022068 
L 796.261337 1908.133021 
L 797.120211 1921.926985 
L 797.979085 1930.495042 
L 798.83796 1916.154181 
L 799.696834 1912.99433 
L 800.555709 1839.710098 
L 801.414583 1897.195076 
L 802.273458 1946.051231 
L 803.132332 1858.122306 
L 803.991207 1906.856928 
L 804.850081 1850.526511 
L 805.708956 1879.512065 
L 806.56783 1881.578121 
L 807.426705 1711.432309 
L 808.285579 1836.428715 
L 809.144453 1940.156894 
L 810.003328 1924.722238 
L 810.862202 1905.15547 
L 811.721077 1937.422408 
L 812.579951 1885.588701 
L 813.438826 1699.096738 
L 814.2977 1548.031563 
L 815.156575 1877.810607 
L 816.015449 1921.805453 
L 816.874324 1826.098433 
L 817.733198 1765.818203 
L 818.592073 1875.623018 
L 819.450947 1896.648179 
L 820.309821 1829.805181 
L 821.168696 1775.480054 
L 822.02757 1776.452316 
L 822.886445 1897.681207 
L 823.745319 1837.097145 
L 824.604194 1866.264998 
L 825.463068 1882.185785 
L 826.321943 1859.337633 
L 827.180817 1831.020509 
L 828.039692 1883.27958 
L 828.898566 1906.310031 
L 830.616315 1934.444856 
L 831.475189 1901.874086 
L 832.334064 1906.066965 
L 834.051813 1930.616575 
L 834.910687 1912.204368 
L 836.628436 1934.019491 
L 837.487311 1970.540075 
L 838.346185 1939.063099 
L 839.20506 1954.92312 
L 840.063934 1927.821322 
L 841.781683 1938.151604 
L 842.640557 1930.130444 
L 843.499432 1885.406402 
L 844.358306 1940.582258 
L 845.217181 1936.267847 
L 846.076055 1920.711658 
L 846.93493 1909.834479 
L 847.793804 1894.399824 
L 848.652679 1929.097416 
L 849.511553 1952.857063 
L 851.229302 1923.02078 
L 853.805925 1874.954588 
L 857.241423 1923.142313 
L 859.818047 1912.447433 
L 862.39467 1901.023357 
L 864.971293 1902.056385 
L 865.830168 1963.187345 
L 866.689042 1943.55981 
L 867.547917 1921.137023 
L 868.406791 1931.771136 
L 869.265666 1956.806877 
L 870.12454 1907.282292 
L 872.701163 1927.517491 
L 875.277787 1915.424985 
L 877.85441 1868.027223 
L 878.713285 1940.278427 
L 880.431034 1860.735259 
L 882.148782 1958.326036 
L 883.866531 1868.999485 
L 884.725406 1953.707792 
L 886.443155 1846.576697 
L 888.160904 1972.12 
L 889.019778 1852.349502 
L 891.596402 1848.156623 
L 894.173025 1835.760285 
L 896.749648 1828.042957 
L 897.608523 1956.077681 
L 899.326272 1877.506775 
L 901.044021 1932.014201 
L 901.902895 1792.798467 
L 904.479518 1851.37724 
L 907.056142 1851.620305 
L 909.632765 1949.332614 
L 910.49164 1920.103995 
L 913.068263 1850.769576 
L 913.927137 1949.818745 
L 915.644886 1875.136887 
L 916.503761 1947.509624 
L 918.22151 1893.427562 
L 919.939259 1945.747399 
L 920.798133 1915.971882 
L 922.515882 1929.279715 
L 923.374756 1796.565982 
L 925.092505 1926.059098 
L 925.95138 1911.900536 
L 926.810254 1951.945568 
L 927.669129 1948.968016 
L 928.528003 1929.765846 
L 929.386878 1862.497484 
L 930.245752 1911.65747 
L 931.104627 1822.634751 
L 931.963501 1855.630885 
L 932.822376 1935.842482 
L 933.68125 1875.623018 
L 934.540124 1886.500197 
L 935.398999 1873.374663 
L 936.257873 1843.416846 
L 937.116748 1892.212235 
L 937.975622 1911.65747 
L 938.834497 1829.987481 
L 939.693371 1868.331055 
L 940.552246 1878.175205 
L 941.41112 1847.609725 
L 942.269995 1865.839634 
L 943.128869 1861.464456 
L 943.987744 1872.402401 
L 944.846618 1886.804028 
L 945.705492 1839.467033 
L 946.564367 1888.383954 
L 947.423241 1812.851367 
L 948.282116 1871.308606 
L 949.14099 1911.353639 
L 949.999865 1875.623018 
L 950.858739 1930.495042 
L 951.717614 1771.834073 
L 952.576488 1870.57941 
L 954.294237 1853.686361 
L 955.153111 1882.793449 
L 956.011986 1871.004774 
L 956.87086 1863.044381 
L 957.729735 1874.164625 
L 958.588609 1444.424917 
L 959.447484 1838.859369 
L 960.306358 1893.184496 
L 961.165233 1734.523527 
L 962.024107 1516.250756 
L 962.882982 1730.330648 
L 964.600731 1947.327325 
L 967.177354 1866.690363 
L 968.036228 1961.850485 
L 970.612852 1951.216372 
L 971.471726 1877.689074 
L 974.04835 1943.681343 
L 975.766098 1938.637735 
L 977.483847 1787.815626 
L 980.060471 1853.625595 
L 981.77822 1950.426409 
L 982.637094 1923.506911 
L 983.495969 1876.048383 
L 984.354843 1889.356216 
L 985.213718 1936.87551 
L 986.072592 1929.097416 
L 986.931466 1908.31532 
L 987.790341 1796.079851 
L 988.649215 1888.505487 
L 989.50809 1947.509624 
L 990.366964 1908.072255 
L 991.225839 1928.915117 
L 993.802462 1939.306165 
L 997.23796 1965.800298 
L 999.814583 1949.879512 
L 1003.250081 1958.812167 
L 1006.685579 1952.492465 
L 1010.121077 1932.3788 
L 1013.556575 1957.475307 
L 1016.133198 1955.166185 
L 1019.568696 1940.946857 
L 1023.004194 1937.726239 
L 1026.439692 1949.211082 
L 1029.016315 1933.837192 
L 1029.875189 1917.612574 
L 1030.734064 1943.863642 
L 1031.592938 1962.09355 
L 1032.451813 1965.253401 
L 1033.310687 1901.631021 
L 1034.169562 1930.130444 
L 1035.028436 1844.996772 
L 1035.887311 1857.21081 
L 1036.746185 1850.769576 
L 1037.60506 1957.839905 
L 1038.463934 1966.10413 
L 1039.322808 1788.301757 
L 1040.181683 1915.911116 
L 1041.040557 1931.467304 
L 1041.899432 1925.6945 
L 1042.758306 1908.254554 
L 1043.617181 1922.473883 
L 1044.476055 1788.90942 
L 1045.33493 1926.484463 
L 1046.193804 1911.475171 
L 1047.052679 359.32 
L 1047.911553 1908.072255 
L 1048.770427 1905.641601 
L 1049.629302 1883.461879 
L 1050.488176 1864.988905 
L 1051.347051 1931.528071 
L 1052.205925 1922.291584 
L 1053.0648 1873.435429 
L 1053.923674 1925.02607 
L 1054.782549 1878.175205 
L 1055.641423 1900.597993 
L 1056.500298 1911.596704 
L 1057.359172 1908.619152 
L 1058.218047 1879.025934 
L 1059.076921 1834.788023 
L 1059.935795 1217.280258 
L 1060.79467 1855.266287 
L 1062.512419 1913.055097 
L 1065.947917 1931.224239 
L 1067.665666 1954.558522 
L 1069.383415 1857.696941 
L 1070.242289 1940.339193 
L 1072.818912 1916.275714 
L 1073.677787 1920.893957 
L 1075.395536 1889.78158 
L 1076.25441 1881.335056 
L 1077.113285 1937.179342 
L 1077.972159 1923.567677 
L 1079.689908 1926.849061 
L 1080.548782 1960.149027 
L 1083.125406 1921.926985 
L 1083.98428 1896.040515 
L 1085.702029 1940.521492 
L 1086.560904 1777.05998 
L 1088.278653 1953.58626 
L 1089.137527 1890.936141 
L 1089.996402 1945.018203 
L 1090.855276 1927.456724 
L 1091.71415 1929.401248 
L 1092.573025 1853.868661 
L 1093.431899 1913.480461 
L 1094.290774 1669.138922 
L 1095.149648 1486.900604 
L 1096.008523 1933.107996 
L 1096.867397 1951.337904 
L 1097.726272 1955.166185 
L 1098.585146 1660.327799 
L 1099.444021 1870.214812 
L 1101.161769 1892.576833 
L 1102.020644 1918.037938 
L 1102.879518 1958.08297 
L 1104.597267 1920.954724 
L 1105.456142 1970.479308 
L 1107.173891 1814.066694 
L 1108.032765 1952.431699 
L 1110.609389 1889.356216 
L 1113.186012 1958.629868 
L 1114.044886 1844.267575 
L 1115.762635 1915.242686 
L 1118.339259 1932.439566 
L 1120.915882 1909.834479 
L 1123.492505 1611.107046 
L 1125.210254 1942.587548 
L 1126.069129 1940.703791 
L 1127.786878 1938.394669 
L 1130.363501 1945.504334 
L 1132.940124 1947.874222 
L 1135.516748 1944.714371 
L 1138.093371 1946.23353 
L 1140.669995 1948.421119 
L 1143.246618 1964.038074 
L 1145.823241 1952.857063 
L 1148.399865 1954.801587 
L 1150.976488 1961.242821 
L 1153.553111 1938.698501 
L 1154.411986 1943.499044 
L 1155.27086 1954.497755 
L 1156.129735 1929.826612 
L 1156.988609 1919.739396 
L 1158.706358 1949.089549 
L 1159.565233 1904.426273 
L 1160.424107 1933.594127 
L 1161.282982 1914.635022 
L 1162.141856 1949.211082 
L 1163.000731 1961.182055 
L 1164.718479 1910.806741 
L 1165.577354 1920.468593 
L 1166.436228 1931.528071 
L 1167.295103 1964.76727 
L 1168.153977 1936.146314 
L 1169.012852 1944.775137 
L 1169.871726 1963.369644 
L 1171.589475 1910.928274 
L 1172.44835 1951.641736 
L 1173.307224 1912.265134 
L 1174.166098 1942.040651 
L 1175.024973 1941.736819 
L 1175.883847 1941.615287 
L 1176.742722 1856.177782 
L 1177.601596 1879.451299 
L 1179.319345 1912.386667 
L 1180.17822 1875.744551 
L 1181.037094 1941.858352 
L 1181.895969 1934.687921 
L 1182.754843 1948.178054 
L 1183.613718 1949.757979 
L 1184.472592 1919.192499 
L 1185.331466 1960.08826 
L 1186.190341 1917.794873 
L 1187.049215 1928.36822 
L 1187.90809 1951.155605 
L 1188.766964 1964.949569 
L 1189.625839 1824.640041 
L 1191.343588 1877.446009 
L 1192.202462 1945.018203 
L 1193.920211 1879.633598 
L 1195.63796 1951.702503 
L 1196.496834 1915.971882 
L 1198.214583 1883.644178 
L 1199.073458 1940.88609 
L 1200.791207 1865.171204 
L 1202.508956 1955.652316 
L 1203.36783 1695.693822 
L 1205.085579 1866.690363 
L 1207.662202 1893.366796 
L 1208.521077 1966.894093 
L 1210.238826 1672.84567 
L 1211.0977 1931.406538 
L 1211.956575 1869.121017 
L 1214.533198 1911.110573 
L 1215.392073 1962.883513 
L 1217.109821 1899.80803 
L 1217.968696 1889.416982 
L 1218.82757 1903.940142 
L 1221.404194 1864.624307 
L 1222.263068 1510.295653 
L 1223.980817 1901.266423 
L 1225.698566 1967.258691 
L 1226.55744 1832.965032 
L 1228.275189 1957.232241 
L 1229.134064 1869.667915 
L 1229.992938 1936.997043 
L 1231.710687 1782.589719 
L 1233.428436 1915.789583 
L 1234.287311 1708.333225 
L 1235.146185 1932.074968 
L 1236.00506 1933.654893 
L 1236.863934 1932.074968 
L 1238.581683 1921.744686 
L 1239.440557 1936.267847 
L 1241.158306 1958.26527 
L 1242.017181 1857.818474 
L 1243.73493 1939.245398 
L 1244.593804 1918.34177 
L 1245.452679 1946.172764 
L 1246.311553 1832.904266 
L 1247.170427 1771.287175 
L 1248.888176 1908.98375 
L 1249.747051 1844.510641 
L 1250.605925 1755.244856 
L 1251.4648 1752.085005 
L 1252.323674 1834.301892 
L 1254.041423 1815.099722 
L 1254.900298 1823.910844 
L 1255.759172 1887.229393 
L 1256.618047 1940.825324 
L 1257.476921 1880.848925 
L 1258.335795 1372.295246 
L 1259.19467 1944.106707 
L 1260.053544 1939.853062 
L 1260.912419 1922.960014 
L 1261.771293 1920.043228 
L 1263.489042 1591.904876 
L 1264.347917 1887.350926 
L 1265.206791 1891.239973 
L 1266.065666 1877.871373 
L 1266.92454 1782.285887 
L 1267.783415 1894.217525 
L 1268.642289 1930.008911 
L 1269.501163 1879.93743 
L 1270.360038 1814.735124 
L 1271.218912 1935.660183 
L 1272.077787 1904.426273 
L 1272.936661 1832.539668 
L 1273.795536 1945.139736 
L 1274.65441 1652.30664 
L 1275.513285 1939.245398 
L 1276.372159 1875.015354 
L 1277.231034 1882.914981 
L 1278.089908 1803.675646 
L 1278.948782 1955.348484 
L 1279.807657 1939.792296 
L 1280.666531 1851.741838 
L 1281.525406 1945.382801 
L 1282.38428 1889.356216 
L 1284.102029 1900.841058 
L 1284.960904 1545.357843 
L 1285.819778 1905.641601 
L 1286.678653 1919.314032 
L 1287.537527 1793.163065 
L 1288.396402 1893.488328 
L 1289.255276 1946.719661 
L 1290.11415 1834.119593 
L 1290.973025 1531.077748 
L 1292.690774 1862.862082 
L 1293.549648 1956.381512 
L 1294.408523 1904.973171 
L 1295.267397 1815.160488 
L 1296.126272 1904.122442 
L 1296.985146 1477.967948 
L 1297.844021 1762.050688 
L 1298.702895 1919.739396 
L 1299.561769 1923.02078 
L 1300.420644 1887.958589 
L 1301.279518 1933.71566 
L 1302.138393 1941.55452 
L 1302.997267 1947.388091 
L 1303.856142 1936.632445 
L 1304.715016 1936.936277 
L 1305.573891 1925.998332 
L 1306.432765 1843.659912 
L 1307.29164 1942.22295 
L 1308.150514 1939.54923 
L 1309.009389 1919.192499 
L 1309.868263 1930.981173 
L 1310.727137 1907.099993 
L 1311.586012 1936.997043 
L 1312.444886 1949.879512 
L 1313.303761 1933.654893 
L 1314.162635 1690.103316 
L 1315.02151 1952.674764 
L 1315.880384 1844.875239 
L 1316.739259 1932.135734 
L 1317.598133 1944.835904 
L 1319.315882 1960.75669 
L 1320.174756 1905.15547 
L 1321.033631 1901.570254 
L 1321.892505 1914.878087 
L 1322.75138 1855.995483 
L 1323.610254 1957.779139 
L 1324.469129 1864.077409 
L 1325.328003 1948.421119 
L 1326.186878 1939.913828 
L 1327.045752 1894.825188 
L 1327.904627 1894.278291 
L 1328.763501 1938.576968 
L 1329.622376 1923.810743 
L 1330.48125 1950.426409 
L 1331.340124 1856.05625 
L 1332.198999 1949.57568 
L 1333.057873 1898.47117 
L 1333.916748 1942.283717 
L 1334.775622 1899.747263 
L 1335.634497 1913.298162 
L 1336.493371 1903.028647 
L 1337.352246 1763.144483 
L 1338.21112 1894.885955 
L 1339.928869 1917.126443 
L 1340.787744 1894.156758 
L 1342.505492 1920.468593 
L 1343.364367 1909.348349 
L 1344.223241 1950.487175 
L 1345.082116 1934.080258 
L 1345.94099 1895.250553 
L 1346.799865 1929.03665 
L 1347.658739 1861.646755 
L 1349.376488 1928.975883 
L 1350.235363 1938.21237 
L 1351.094237 1958.326036 
L 1351.953111 1857.028511 
L 1352.811986 1938.576968 
L 1353.67086 1781.131326 
L 1354.529735 1894.764422 
L 1356.247484 1859.702231 
L 1357.965233 1895.068254 
L 1358.824107 1966.77256 
L 1359.682982 1866.56883 
L 1360.541856 1817.651909 
L 1361.400731 1880.484327 
L 1362.259605 1904.122442 
L 1363.977354 1823.789312 
L 1364.836228 1900.841058 
L 1365.695103 1873.374663 
L 1366.553977 1888.870085 
L 1367.412852 1837.887107 
L 1368.271726 1829.805181 
L 1369.130601 1927.152893 
L 1369.989475 1876.473747 
L 1370.84835 1861.22139 
L 1371.707224 1915.911116 
L 1372.566098 1920.833191 
L 1373.424973 1913.845059 
L 1375.142722 1850.344212 
L 1376.001596 1840.317762 
L 1377.719345 1857.575409 
L 1378.57822 1931.406538 
L 1379.437094 1905.277002 
L 1380.295969 1916.093415 
L 1382.013718 1879.876663 
L 1382.872592 1955.773849 
L 1383.731466 1936.571679 
L 1384.590341 1964.76727 
L 1385.449215 1540.375002 
L 1386.30809 1640.882564 
L 1387.166964 1806.470899 
L 1388.025839 1830.473611 
L 1388.884713 1932.743398 
L 1389.743588 1887.533225 
L 1390.602462 1910.199078 
L 1391.461337 1941.372221 
L 1392.320211 1920.407826 
L 1393.179085 1886.014066 
L 1394.03796 1863.044381 
L 1394.896834 1858.122306 
L 1395.755709 1821.662489 
L 1396.614583 1832.357369 
L 1397.473458 1911.65747 
L 1398.332332 1892.819898 
L 1399.191207 1818.381105 
L 1400.050081 1817.591143 
L 1400.908956 1463.262489 
L 1401.76783 1842.626884 
L 1402.626705 1906.613862 
L 1403.485579 1894.399824 
L 1404.344453 1929.340482 
L 1405.203328 1801.427291 
L 1406.062202 1858.608437 
L 1406.921077 1900.780292 
L 1407.779951 1926.484463 
L 1408.638826 1920.286294 
L 1409.4977 1941.311455 
L 1410.356575 1934.627155 
L 1411.215449 1903.332479 
L 1412.074324 1942.769847 
L 1413.792073 1955.044652 
L 1414.650947 1929.765846 
L 1415.509821 1926.666762 
L 1416.368696 1959.723662 
L 1418.086445 1966.954859 
L 1418.945319 1944.106707 
L 1419.804194 1949.028783 
L 1420.663068 1877.081411 
L 1421.521943 1778.214541 
L 1422.380817 1765.02824 
L 1423.239692 1655.162659 
L 1424.098566 1860.917558 
L 1424.95744 1801.731122 
L 1425.816315 1868.877952 
L 1426.675189 1899.382665 
L 1427.534064 1923.932275 
L 1428.392938 1927.03136 
L 1429.251813 1775.05469 
L 1430.110687 1927.69979 
L 1430.969562 1289.045331 
L 1431.828436 1824.15391 
L 1432.687311 1322.831428 
L 1433.546185 1782.22512 
L 1434.40506 1923.446144 
L 1435.263934 1915.181919 
L 1436.122808 1840.803893 
L 1436.981683 1842.930715 
L 1437.840557 1914.938854 
L 1438.699432 1889.842347 
L 1439.558306 1883.09728 
L 1440.417181 1920.772425 
L 1441.276055 1942.526782 
L 1442.13493 1854.901689 
L 1442.993804 1883.826477 
L 1443.852679 1877.142177 
L 1444.711553 1828.650621 
L 1445.570427 1873.617728 
L 1446.429302 1879.269 
L 1447.288176 1494.617932 
L 1448.147051 1920.590125 
L 1449.005925 1823.363947 
L 1450.723674 1866.447297 
L 1451.582549 1836.00335 
L 1452.441423 1773.71783 
L 1453.300298 1843.599145 
L 1454.159172 1772.259437 
L 1455.018047 1793.527664 
L 1455.876921 1908.740685 
L 1456.735795 1859.823764 
L 1457.59467 1828.772153 
L 1458.453544 1806.227833 
L 1460.171293 1934.323323 
L 1461.889042 1968.838616 
L 1464.465666 1835.760285 
L 1466.183415 1772.441736 
L 1467.901163 1702.925019 
L 1470.477787 1768.127325 
L 1472.195536 1550.58375 
L 1473.913285 1833.32963 
L 1476.489908 1839.710098 
L 1481.643155 1905.216236 
L 1482.502029 1900.111862 
L 1483.360904 1916.093415 
L 1485.078653 1891.665337 
L 1486.796402 1856.967745 
L 1488.51415 1872.402401 
L 1490.231899 1900.962591 
L 1491.090774 1890.267711 
L 1492.808523 1899.990329 
L 1494.526272 1898.47117 
L 1496.244021 1804.526375 
L 1497.961769 1915.971882 
L 1499.679518 1902.48175 
L 1501.397267 1856.846212 
L 1502.256142 1926.545229 
L 1503.973891 1899.868796 
L 1505.69164 1844.875239 
L 1507.409389 1878.357504 
L 1509.127137 1914.270424 
L 1510.844886 1861.039091 
L 1512.562635 1955.652316 
L 1513.42151 1913.905826 
L 1515.139259 1952.431699 
L 1516.857008 1918.281004 
L 1518.574756 1945.625866 
L 1520.292505 1953.403961 
L 1521.15138 1938.576968 
L 1522.010254 1936.024781 
L 1522.869129 1927.092126 
L 1523.728003 1922.960014 
L 1524.586878 1896.283581 
L 1525.445752 1925.02607 
L 1526.304627 1924.479173 
L 1527.163501 1886.986328 
L 1528.022376 1950.973306 
L 1528.88125 1858.851502 
L 1529.740124 1931.467304 
L 1530.598999 1938.698501 
L 1531.457873 1906.796161 
L 1532.316748 1950.608708 
L 1533.175622 1923.628444 
L 1534.034497 1903.089413 
L 1534.893371 1906.370797 
L 1535.752246 1949.57568 
L 1536.61112 1953.950858 
L 1537.469995 1896.162048 
L 1538.328869 1940.88609 
L 1539.187744 1931.771136 
L 1540.046618 1949.818745 
L 1540.905492 1915.789583 
L 1541.764367 1917.126443 
L 1542.623241 1914.088125 
L 1543.482116 1934.930987 
L 1544.34099 1934.262557 
L 1545.199865 1940.156894 
L 1546.058739 1816.375816 
L 1546.917614 1923.506911 
L 1547.776488 1896.101282 
L 1548.635363 1901.934852 
L 1549.494237 1863.408979 
L 1550.353111 1904.730105 
L 1551.211986 1909.712947 
L 1552.929735 1934.505622 
L 1553.788609 1862.254418 
L 1554.647484 1945.5651 
L 1555.506358 1942.22295 
L 1556.365233 1893.245263 
L 1557.224107 1932.196501 
L 1558.082982 1944.592838 
L 1558.941856 1935.599417 
L 1559.800731 1951.155605 
L 1560.659605 1945.625866 
L 1561.518479 1941.129156 
L 1562.377354 1902.177918 
L 1563.236228 1947.813455 
L 1564.095103 1949.150315 
L 1564.953977 1912.386667 
L 1565.812852 1892.880665 
L 1566.671726 1932.196501 
L 1567.530601 1927.578257 
L 1568.389475 1907.525358 
L 1569.24835 1964.09884 
L 1614.768696 1875.25842 
L 1618.204194 1941.676053 
L 1621.639692 1912.568966 
L 1624.216315 1858.729969 
L 1627.651813 1902.48175 
L 1631.087311 1887.290159 
L 1634.522808 1899.382665 
L 1637.099432 1818.80647 
L 1640.53493 1885.831767 
L 1643.970427 1876.352214 
L 1646.547051 1901.509488 
L 1649.982549 1840.560827 
L 1651.700298 1879.208233 
L 1652.559172 735.342245 
L 1653.418047 1349.629393 
L 1654.276921 1843.720678 
L 1655.135795 1831.32434 
L 1655.99467 1892.273001 
L 1656.853544 1862.922848 
L 1657.712419 1780.766728 
L 1658.571293 1311.650417 
L 1659.430168 1867.480326 
L 1660.289042 1861.282157 
L 1661.147917 1858.729969 
L 1662.006791 1882.368084 
L 1662.865666 1820.14333 
L 1663.72454 1846.819763 
L 1664.583415 1891.969169 
L 1665.442289 1819.4749 
L 1666.301163 1824.82234 
L 1667.160038 1760.713828 
L 1668.018912 1782.89355 
L 1668.877787 1841.715388 
L 1669.736661 1923.142313 
L 1670.595536 1903.636311 
L 1671.45441 1931.588837 
L 1672.313285 1928.246687 
L 1673.172159 1928.975883 
L 1683.478653 1933.654893 
L 1687.773025 1936.632445 
L 1691.208523 1966.651027 
L 1695.502895 1950.973306 
L 1698.938393 1900.051095 
L 1703.232765 1944.714371 
L 1706.668263 1841.654622 
L 1710.962635 1956.138447 
L 1714.398133 1932.196501 
L 1717.833631 1902.48175 
L 1722.128003 1912.629732 
L 1725.563501 1912.568966 
L 1728.140124 1904.061675 
L 1728.998999 1947.145025 
L 1729.857873 1950.365643 
L 1730.716748 1941.189922 
L 1731.575622 1890.510777 
L 1732.434497 1945.139736 
L 1733.293371 1955.713082 
L 1734.152246 1933.958725 
L 1735.01112 1918.402536 
L 1735.869995 1942.830614 
L 1736.728869 1948.360353 
L 1737.587744 1938.21237 
L 1738.446618 1949.211082 
L 1739.305492 1907.099993 
L 1740.164367 1951.58097 
L 1741.023241 1940.88609 
L 1741.882116 1953.343194 
L 1742.74099 1924.600705 
L 1743.599865 1951.520203 
L 1744.458739 1928.793584 
L 1745.317614 1946.537362 
L 1745.317614 1946.537362 
" style="fill:none;stroke:#0000ff;stroke-linecap:square;stroke-width:1.5;"/>
   </g>
   <g id="patch_3">
    <path d="M 40.88125 2052.76 
L 40.88125 278.68 
" style="fill:none;stroke:#000000;stroke-linecap:square;stroke-linejoin:miter;stroke-width:0.8;"/>
   </g>
   <g id="patch_4">
    <path d="M 1826.48125 2052.76 
L 1826.48125 278.68 
" style="fill:none;stroke:#000000;stroke-linecap:square;stroke-linejoin:miter;stroke-width:0.8;"/>
   </g>
   <g id="patch_5">
    <path d="M 40.88125 2052.76 
L 1826.48125 2052.76 
" style="fill:none;stroke:#000000;stroke-linecap:square;stroke-linejoin:miter;stroke-width:0.8;"/>
   </g>
   <g id="patch_6">
    <path d="M 40.88125 278.68 
L 1826.48125 278.68 
" style="fill:none;stroke:#000000;stroke-linecap:square;stroke-linejoin:miter;stroke-width:0.8;"/>
   </g>
   <g id="text_18">
    <text style="font-family:DejaVu Sans;font-size:12px;font-stretch:normal;font-style:normal;font-weight:normal;text-anchor:middle;" transform="rotate(-0, 933.68125, 272.68)" x="933.68125" y="272.68">air_pressure-&gt;ping_night</text>
   </g>
  </g>
  <g id="legend_1">
   <g id="patch_7">
    <path d="M 1944.79375 22.95625 
L 2052.08125 22.95625 
Q 2054.08125 22.95625 2054.08125 20.95625 
L 2054.08125 7 
Q 2054.08125 5 2052.08125 5 
L 1944.79375 5 
Q 1942.79375 5 1942.79375 7 
L 1942.79375 20.95625 
Q 1942.79375 22.95625 1944.79375 22.95625 
z
" style="fill:#ffffff;opacity:0.8;stroke:#cccccc;stroke-linejoin:miter;"/>
   </g>
   <g id="line2d_17">
    <path d="M 1946.79375 13.098438 
L 1966.79375 13.098438 
" style="fill:none;stroke:#0000ff;stroke-linecap:square;stroke-width:1.5;"/>
   </g>
   <g id="line2d_18"/>
   <g id="text_19">
    <text style="font-family:DejaVu Sans;font-size:10px;font-stretch:normal;font-style:normal;font-weight:normal;text-anchor:start;" transform="rotate(-0, 1974.79375, 16.598438)" x="1974.79375" y="16.598438">ping_night[ms]</text>
   </g>
  </g>
 </g>
 <defs>
  <clipPath id="pd6eb7932a2">
   <rect height="1774.08" width="1785.6" x="40.88125" y="278.68"/>
  </clipPath>
 </defs>
</svg>
