<?xml version="1.0" encoding="utf-8" standalone="no"?>
<!DOCTYPE svg PUBLIC "-//W3C//DTD SVG 1.1//EN"
  "http://www.w3.org/Graphics/SVG/1.1/DTD/svg11.dtd">
<!-- Created with matplotlib (https://matplotlib.org/) -->
<svg height="345.6pt" version="1.1" viewBox="0 0 460.8 345.6" width="460.8pt" xmlns="http://www.w3.org/2000/svg" xmlns:xlink="http://www.w3.org/1999/xlink">
 <metadata>
  <rdf:RDF xmlns:cc="http://creativecommons.org/ns#" xmlns:dc="http://purl.org/dc/elements/1.1/" xmlns:rdf="http://www.w3.org/1999/02/22-rdf-syntax-ns#">
   <cc:Work>
    <dc:type rdf:resource="http://purl.org/dc/dcmitype/StillImage"/>
    <dc:date>2022-07-30T01:07:55.541771</dc:date>
    <dc:format>image/svg+xml</dc:format>
    <dc:creator>
     <cc:Agent>
      <dc:title>Matplotlib v3.3.2, https://matplotlib.org/</dc:title>
     </cc:Agent>
    </dc:creator>
   </cc:Work>
  </rdf:RDF>
 </metadata>
 <defs>
  <style type="text/css">*{stroke-linecap:butt;stroke-linejoin:round;}</style>
 </defs>
 <g id="figure_1">
  <g id="patch_1">
   <path d="M 0 345.6 
L 460.8 345.6 
L 460.8 0 
L 0 0 
z
" style="fill:#ffffff;"/>
  </g>
  <g id="axes_1">
   <g id="patch_2">
    <path d="M 57.6 307.584 
L 414.72 307.584 
L 414.72 41.472 
L 57.6 41.472 
z
" style="fill:#ffffff;"/>
   </g>
   <g id="patch_3">
    <path clip-path="url(#p85ef4b1f2c)" d="M 73.832727 307.584 
L 78.221374 307.584 
L 78.221374 54.144 
L 73.832727 54.144 
z
" style="fill:#1f77b4;"/>
   </g>
   <g id="patch_4">
    <path clip-path="url(#p85ef4b1f2c)" d="M 78.729344 307.584 
L 83.117991 307.584 
L 83.117991 307.52315 
L 78.729344 307.52315 
z
" style="fill:#1f77b4;"/>
   </g>
   <g id="patch_5">
    <path clip-path="url(#p85ef4b1f2c)" d="M 76.50368 307.584 
L 80.892327 307.584 
L 80.892327 307.52315 
L 76.50368 307.52315 
z
" style="fill:#1f77b4;"/>
   </g>
   <g id="patch_6">
    <path clip-path="url(#p85ef4b1f2c)" d="M 77.667971 307.584 
L 82.056618 307.584 
L 82.056618 307.52315 
L 77.667971 307.52315 
z
" style="fill:#1f77b4;"/>
   </g>
   <g id="patch_7">
    <path clip-path="url(#p85ef4b1f2c)" d="M 80.211187 307.584 
L 84.599834 307.584 
L 84.599834 307.52315 
L 80.211187 307.52315 
z
" style="fill:#1f77b4;"/>
   </g>
   <g id="patch_8">
    <path clip-path="url(#p85ef4b1f2c)" d="M 77.006224 307.584 
L 81.394871 307.584 
L 81.394871 307.492725 
L 77.006224 307.492725 
z
" style="fill:#1f77b4;"/>
   </g>
   <g id="patch_9">
    <path clip-path="url(#p85ef4b1f2c)" d="M 74.929368 307.584 
L 79.318015 307.584 
L 79.318015 307.52315 
L 74.929368 307.52315 
z
" style="fill:#1f77b4;"/>
   </g>
   <g id="patch_10">
    <path clip-path="url(#p85ef4b1f2c)" d="M 80.050562 307.584 
L 84.439209 307.584 
L 84.439209 307.492725 
L 80.050562 307.492725 
z
" style="fill:#1f77b4;"/>
   </g>
   <g id="patch_11">
    <path clip-path="url(#p85ef4b1f2c)" d="M 74.612771 307.584 
L 79.001418 307.584 
L 79.001418 307.492725 
L 74.612771 307.492725 
z
" style="fill:#1f77b4;"/>
   </g>
   <g id="patch_12">
    <path clip-path="url(#p85ef4b1f2c)" d="M 76.543518 307.584 
L 80.932165 307.584 
L 80.932165 307.492725 
L 76.543518 307.492725 
z
" style="fill:#1f77b4;"/>
   </g>
   <g id="patch_13">
    <path clip-path="url(#p85ef4b1f2c)" d="M 74.770482 307.584 
L 79.159129 307.584 
L 79.159129 307.492725 
L 74.770482 307.492725 
z
" style="fill:#1f77b4;"/>
   </g>
   <g id="patch_14">
    <path clip-path="url(#p85ef4b1f2c)" d="M 76.543051 307.584 
L 80.931698 307.584 
L 80.931698 307.492725 
L 76.543051 307.492725 
z
" style="fill:#1f77b4;"/>
   </g>
   <g id="patch_15">
    <path clip-path="url(#p85ef4b1f2c)" d="M 75.6509 307.584 
L 80.039547 307.584 
L 80.039547 307.52315 
L 75.6509 307.52315 
z
" style="fill:#1f77b4;"/>
   </g>
   <g id="patch_16">
    <path clip-path="url(#p85ef4b1f2c)" d="M 76.217293 307.584 
L 80.60594 307.584 
L 80.60594 307.492725 
L 76.217293 307.492725 
z
" style="fill:#1f77b4;"/>
   </g>
   <g id="patch_17">
    <path clip-path="url(#p85ef4b1f2c)" d="M 76.265469 307.584 
L 80.654116 307.584 
L 80.654116 307.52315 
L 76.265469 307.52315 
z
" style="fill:#1f77b4;"/>
   </g>
   <g id="patch_18">
    <path clip-path="url(#p85ef4b1f2c)" d="M 76.254997 307.584 
L 80.643644 307.584 
L 80.643644 307.52315 
L 76.254997 307.52315 
z
" style="fill:#1f77b4;"/>
   </g>
   <g id="patch_19">
    <path clip-path="url(#p85ef4b1f2c)" d="M 74.491463 307.584 
L 78.88011 307.584 
L 78.88011 307.492725 
L 74.491463 307.492725 
z
" style="fill:#1f77b4;"/>
   </g>
   <g id="patch_20">
    <path clip-path="url(#p85ef4b1f2c)" d="M 74.655132 307.584 
L 79.043779 307.584 
L 79.043779 307.52315 
L 74.655132 307.52315 
z
" style="fill:#1f77b4;"/>
   </g>
   <g id="patch_21">
    <path clip-path="url(#p85ef4b1f2c)" d="M 75.323452 307.584 
L 79.712099 307.584 
L 79.712099 307.492725 
L 75.323452 307.492725 
z
" style="fill:#1f77b4;"/>
   </g>
   <g id="patch_22">
    <path clip-path="url(#p85ef4b1f2c)" d="M 74.485736 307.584 
L 78.874383 307.584 
L 78.874383 307.52315 
L 74.485736 307.52315 
z
" style="fill:#1f77b4;"/>
   </g>
   <g id="patch_23">
    <path clip-path="url(#p85ef4b1f2c)" d="M 78.665297 307.584 
L 83.053944 307.584 
L 83.053944 307.492725 
L 78.665297 307.492725 
z
" style="fill:#1f77b4;"/>
   </g>
   <g id="patch_24">
    <path clip-path="url(#p85ef4b1f2c)" d="M 74.400706 307.584 
L 78.789353 307.584 
L 78.789353 307.52315 
L 74.400706 307.52315 
z
" style="fill:#1f77b4;"/>
   </g>
   <g id="patch_25">
    <path clip-path="url(#p85ef4b1f2c)" d="M 74.383448 307.584 
L 78.772095 307.584 
L 78.772095 307.492725 
L 74.383448 307.492725 
z
" style="fill:#1f77b4;"/>
   </g>
   <g id="patch_26">
    <path clip-path="url(#p85ef4b1f2c)" d="M 87.273068 307.584 
L 91.661715 307.584 
L 91.661715 307.52315 
L 87.273068 307.52315 
z
" style="fill:#1f77b4;"/>
   </g>
   <g id="patch_27">
    <path clip-path="url(#p85ef4b1f2c)" d="M 80.978377 307.584 
L 85.367024 307.584 
L 85.367024 307.492725 
L 80.978377 307.492725 
z
" style="fill:#1f77b4;"/>
   </g>
   <g id="patch_28">
    <path clip-path="url(#p85ef4b1f2c)" d="M 88.044921 307.584 
L 92.433568 307.584 
L 92.433568 307.492725 
L 88.044921 307.492725 
z
" style="fill:#1f77b4;"/>
   </g>
   <g id="patch_29">
    <path clip-path="url(#p85ef4b1f2c)" d="M 76.684426 307.584 
L 81.073073 307.584 
L 81.073073 307.52315 
L 76.684426 307.52315 
z
" style="fill:#1f77b4;"/>
   </g>
   <g id="patch_30">
    <path clip-path="url(#p85ef4b1f2c)" d="M 86.681095 307.584 
L 91.069742 307.584 
L 91.069742 307.492725 
L 86.681095 307.492725 
z
" style="fill:#1f77b4;"/>
   </g>
   <g id="patch_31">
    <path clip-path="url(#p85ef4b1f2c)" d="M 89.347252 307.584 
L 93.735899 307.584 
L 93.735899 307.52315 
L 89.347252 307.52315 
z
" style="fill:#1f77b4;"/>
   </g>
   <g id="patch_32">
    <path clip-path="url(#p85ef4b1f2c)" d="M 81.8182 307.584 
L 86.206846 307.584 
L 86.206846 307.492725 
L 81.8182 307.492725 
z
" style="fill:#1f77b4;"/>
   </g>
   <g id="patch_33">
    <path clip-path="url(#p85ef4b1f2c)" d="M 84.146267 307.584 
L 88.534914 307.584 
L 88.534914 307.52315 
L 84.146267 307.52315 
z
" style="fill:#1f77b4;"/>
   </g>
   <g id="patch_34">
    <path clip-path="url(#p85ef4b1f2c)" d="M 86.258029 307.584 
L 90.646676 307.584 
L 90.646676 307.492725 
L 86.258029 307.492725 
z
" style="fill:#1f77b4;"/>
   </g>
   <g id="patch_35">
    <path clip-path="url(#p85ef4b1f2c)" d="M 82.862972 307.584 
L 87.251619 307.584 
L 87.251619 307.492725 
L 82.862972 307.492725 
z
" style="fill:#1f77b4;"/>
   </g>
   <g id="patch_36">
    <path clip-path="url(#p85ef4b1f2c)" d="M 74.643371 307.584 
L 79.032018 307.584 
L 79.032018 307.492725 
L 74.643371 307.492725 
z
" style="fill:#1f77b4;"/>
   </g>
   <g id="patch_37">
    <path clip-path="url(#p85ef4b1f2c)" d="M 85.556284 307.584 
L 89.944931 307.584 
L 89.944931 307.52315 
L 85.556284 307.52315 
z
" style="fill:#1f77b4;"/>
   </g>
   <g id="patch_38">
    <path clip-path="url(#p85ef4b1f2c)" d="M 109.483297 307.584 
L 113.871944 307.584 
L 113.871944 307.492725 
L 109.483297 307.492725 
z
" style="fill:#1f77b4;"/>
   </g>
   <g id="patch_39">
    <path clip-path="url(#p85ef4b1f2c)" d="M 143.103679 307.584 
L 147.492326 307.584 
L 147.492326 307.492725 
L 143.103679 307.492725 
z
" style="fill:#1f77b4;"/>
   </g>
   <g id="patch_40">
    <path clip-path="url(#p85ef4b1f2c)" d="M 96.280985 307.584 
L 100.669632 307.584 
L 100.669632 307.492725 
L 96.280985 307.492725 
z
" style="fill:#1f77b4;"/>
   </g>
   <g id="patch_41">
    <path clip-path="url(#p85ef4b1f2c)" d="M 145.63154 307.584 
L 150.020187 307.584 
L 150.020187 307.52315 
L 145.63154 307.52315 
z
" style="fill:#1f77b4;"/>
   </g>
   <g id="patch_42">
    <path clip-path="url(#p85ef4b1f2c)" d="M 89.710852 307.584 
L 94.099499 307.584 
L 94.099499 307.492725 
L 89.710852 307.492725 
z
" style="fill:#1f77b4;"/>
   </g>
   <g id="patch_43">
    <path clip-path="url(#p85ef4b1f2c)" d="M 96.143731 307.584 
L 100.532377 307.584 
L 100.532377 307.52315 
L 96.143731 307.52315 
z
" style="fill:#1f77b4;"/>
   </g>
   <g id="patch_44">
    <path clip-path="url(#p85ef4b1f2c)" d="M 89.9203 307.584 
L 94.308947 307.584 
L 94.308947 307.52315 
L 89.9203 307.52315 
z
" style="fill:#1f77b4;"/>
   </g>
   <g id="patch_45">
    <path clip-path="url(#p85ef4b1f2c)" d="M 77.881177 307.584 
L 82.269824 307.584 
L 82.269824 307.492725 
L 77.881177 307.492725 
z
" style="fill:#1f77b4;"/>
   </g>
   <g id="patch_46">
    <path clip-path="url(#p85ef4b1f2c)" d="M 359.194071 307.584 
L 363.582718 307.584 
L 363.582718 307.492725 
L 359.194071 307.492725 
z
" style="fill:#1f77b4;"/>
   </g>
   <g id="patch_47">
    <path clip-path="url(#p85ef4b1f2c)" d="M 77.784161 307.584 
L 82.172808 307.584 
L 82.172808 307.52315 
L 77.784161 307.52315 
z
" style="fill:#1f77b4;"/>
   </g>
   <g id="patch_48">
    <path clip-path="url(#p85ef4b1f2c)" d="M 77.759815 307.584 
L 82.148462 307.584 
L 82.148462 307.492725 
L 77.759815 307.492725 
z
" style="fill:#1f77b4;"/>
   </g>
   <g id="patch_49">
    <path clip-path="url(#p85ef4b1f2c)" d="M 79.69947 307.584 
L 84.088117 307.584 
L 84.088117 307.52315 
L 79.69947 307.52315 
z
" style="fill:#1f77b4;"/>
   </g>
   <g id="patch_50">
    <path clip-path="url(#p85ef4b1f2c)" d="M 79.468134 307.584 
L 83.856781 307.584 
L 83.856781 307.492725 
L 79.468134 307.492725 
z
" style="fill:#1f77b4;"/>
   </g>
   <g id="patch_51">
    <path clip-path="url(#p85ef4b1f2c)" d="M 76.049191 307.584 
L 80.437838 307.584 
L 80.437838 307.492725 
L 76.049191 307.492725 
z
" style="fill:#1f77b4;"/>
   </g>
   <g id="patch_52">
    <path clip-path="url(#p85ef4b1f2c)" d="M 74.972481 307.584 
L 79.361128 307.584 
L 79.361128 307.492725 
L 74.972481 307.492725 
z
" style="fill:#1f77b4;"/>
   </g>
   <g id="patch_53">
    <path clip-path="url(#p85ef4b1f2c)" d="M 74.529535 307.584 
L 78.918182 307.584 
L 78.918182 307.52315 
L 74.529535 307.52315 
z
" style="fill:#1f77b4;"/>
   </g>
   <g id="patch_54">
    <path clip-path="url(#p85ef4b1f2c)" d="M 94.863946 307.584 
L 99.252593 307.584 
L 99.252593 307.492725 
L 94.863946 307.492725 
z
" style="fill:#1f77b4;"/>
   </g>
   <g id="patch_55">
    <path clip-path="url(#p85ef4b1f2c)" d="M 76.547116 307.584 
L 80.935763 307.584 
L 80.935763 307.52315 
L 76.547116 307.52315 
z
" style="fill:#1f77b4;"/>
   </g>
   <g id="patch_56">
    <path clip-path="url(#p85ef4b1f2c)" d="M 100.463805 307.584 
L 104.852452 307.584 
L 104.852452 307.52315 
L 100.463805 307.52315 
z
" style="fill:#1f77b4;"/>
   </g>
   <g id="patch_57">
    <path clip-path="url(#p85ef4b1f2c)" d="M 74.56974 307.584 
L 78.958387 307.584 
L 78.958387 307.492725 
L 74.56974 307.492725 
z
" style="fill:#1f77b4;"/>
   </g>
   <g id="patch_58">
    <path clip-path="url(#p85ef4b1f2c)" d="M 95.025668 307.584 
L 99.414315 307.584 
L 99.414315 307.492725 
L 95.025668 307.492725 
z
" style="fill:#1f77b4;"/>
   </g>
   <g id="patch_59">
    <path clip-path="url(#p85ef4b1f2c)" d="M 76.217606 307.584 
L 80.606253 307.584 
L 80.606253 307.492725 
L 76.217606 307.492725 
z
" style="fill:#1f77b4;"/>
   </g>
   <g id="patch_60">
    <path clip-path="url(#p85ef4b1f2c)" d="M 79.793881 307.584 
L 84.182528 307.584 
L 84.182528 307.492725 
L 79.793881 307.492725 
z
" style="fill:#1f77b4;"/>
   </g>
   <g id="patch_61">
    <path clip-path="url(#p85ef4b1f2c)" d="M 76.088881 307.584 
L 80.477528 307.584 
L 80.477528 307.492725 
L 76.088881 307.492725 
z
" style="fill:#1f77b4;"/>
   </g>
   <g id="patch_62">
    <path clip-path="url(#p85ef4b1f2c)" d="M 83.248514 307.584 
L 87.637161 307.584 
L 87.637161 307.52315 
L 83.248514 307.52315 
z
" style="fill:#1f77b4;"/>
   </g>
   <g id="patch_63">
    <path clip-path="url(#p85ef4b1f2c)" d="M 84.292848 307.584 
L 88.681495 307.584 
L 88.681495 307.52315 
L 84.292848 307.52315 
z
" style="fill:#1f77b4;"/>
   </g>
   <g id="patch_64">
    <path clip-path="url(#p85ef4b1f2c)" d="M 158.059091 307.584 
L 162.447738 307.584 
L 162.447738 307.492725 
L 158.059091 307.492725 
z
" style="fill:#1f77b4;"/>
   </g>
   <g id="patch_65">
    <path clip-path="url(#p85ef4b1f2c)" d="M 75.479523 307.584 
L 79.86817 307.584 
L 79.86817 307.492725 
L 75.479523 307.492725 
z
" style="fill:#1f77b4;"/>
   </g>
   <g id="patch_66">
    <path clip-path="url(#p85ef4b1f2c)" d="M 177.025725 307.584 
L 181.414372 307.584 
L 181.414372 307.52315 
L 177.025725 307.52315 
z
" style="fill:#1f77b4;"/>
   </g>
   <g id="patch_67">
    <path clip-path="url(#p85ef4b1f2c)" d="M 243.859881 307.584 
L 248.248528 307.584 
L 248.248528 307.52315 
L 243.859881 307.52315 
z
" style="fill:#1f77b4;"/>
   </g>
   <g id="patch_68">
    <path clip-path="url(#p85ef4b1f2c)" d="M 104.591711 307.584 
L 108.980358 307.584 
L 108.980358 307.492725 
L 104.591711 307.492725 
z
" style="fill:#1f77b4;"/>
   </g>
   <g id="patch_69">
    <path clip-path="url(#p85ef4b1f2c)" d="M 102.174883 307.584 
L 106.56353 307.584 
L 106.56353 307.52315 
L 102.174883 307.52315 
z
" style="fill:#1f77b4;"/>
   </g>
   <g id="patch_70">
    <path clip-path="url(#p85ef4b1f2c)" d="M 93.835796 307.584 
L 98.224443 307.584 
L 98.224443 307.52315 
L 93.835796 307.52315 
z
" style="fill:#1f77b4;"/>
   </g>
   <g id="patch_71">
    <path clip-path="url(#p85ef4b1f2c)" d="M 112.871223 307.584 
L 117.25987 307.584 
L 117.25987 307.52315 
L 112.871223 307.52315 
z
" style="fill:#1f77b4;"/>
   </g>
   <g id="patch_72">
    <path clip-path="url(#p85ef4b1f2c)" d="M 81.445768 307.584 
L 85.834415 307.584 
L 85.834415 307.492725 
L 81.445768 307.492725 
z
" style="fill:#1f77b4;"/>
   </g>
   <g id="patch_73">
    <path clip-path="url(#p85ef4b1f2c)" d="M 83.40689 307.584 
L 87.795537 307.584 
L 87.795537 307.492725 
L 83.40689 307.492725 
z
" style="fill:#1f77b4;"/>
   </g>
   <g id="patch_74">
    <path clip-path="url(#p85ef4b1f2c)" d="M 75.041092 307.584 
L 79.429739 307.584 
L 79.429739 307.492725 
L 75.041092 307.492725 
z
" style="fill:#1f77b4;"/>
   </g>
   <g id="patch_75">
    <path clip-path="url(#p85ef4b1f2c)" d="M 76.177055 307.584 
L 80.565702 307.584 
L 80.565702 307.492725 
L 76.177055 307.492725 
z
" style="fill:#1f77b4;"/>
   </g>
   <g id="patch_76">
    <path clip-path="url(#p85ef4b1f2c)" d="M 74.527499 307.584 
L 78.916146 307.584 
L 78.916146 307.492725 
L 74.527499 307.492725 
z
" style="fill:#1f77b4;"/>
   </g>
   <g id="patch_77">
    <path clip-path="url(#p85ef4b1f2c)" d="M 74.789628 307.584 
L 79.178275 307.584 
L 79.178275 307.492725 
L 74.789628 307.492725 
z
" style="fill:#1f77b4;"/>
   </g>
   <g id="patch_78">
    <path clip-path="url(#p85ef4b1f2c)" d="M 75.255433 307.584 
L 79.64408 307.584 
L 79.64408 307.52315 
L 75.255433 307.52315 
z
" style="fill:#1f77b4;"/>
   </g>
   <g id="patch_79">
    <path clip-path="url(#p85ef4b1f2c)" d="M 75.651893 307.584 
L 80.04054 307.584 
L 80.04054 307.52315 
L 75.651893 307.52315 
z
" style="fill:#1f77b4;"/>
   </g>
   <g id="patch_80">
    <path clip-path="url(#p85ef4b1f2c)" d="M 90.948889 307.584 
L 95.337536 307.584 
L 95.337536 307.492725 
L 90.948889 307.492725 
z
" style="fill:#1f77b4;"/>
   </g>
   <g id="patch_81">
    <path clip-path="url(#p85ef4b1f2c)" d="M 77.302874 307.584 
L 81.691521 307.584 
L 81.691521 307.492725 
L 77.302874 307.492725 
z
" style="fill:#1f77b4;"/>
   </g>
   <g id="patch_82">
    <path clip-path="url(#p85ef4b1f2c)" d="M 83.573603 307.584 
L 87.96225 307.584 
L 87.96225 307.492725 
L 83.573603 307.492725 
z
" style="fill:#1f77b4;"/>
   </g>
   <g id="patch_83">
    <path clip-path="url(#p85ef4b1f2c)" d="M 75.620081 307.584 
L 80.008727 307.584 
L 80.008727 307.492725 
L 75.620081 307.492725 
z
" style="fill:#1f77b4;"/>
   </g>
   <g id="patch_84">
    <path clip-path="url(#p85ef4b1f2c)" d="M 86.461114 307.584 
L 90.849761 307.584 
L 90.849761 307.52315 
L 86.461114 307.52315 
z
" style="fill:#1f77b4;"/>
   </g>
   <g id="patch_85">
    <path clip-path="url(#p85ef4b1f2c)" d="M 74.431465 307.584 
L 78.820112 307.584 
L 78.820112 307.553575 
L 74.431465 307.553575 
z
" style="fill:#1f77b4;"/>
   </g>
   <g id="patch_86">
    <path clip-path="url(#p85ef4b1f2c)" d="M 74.56319 307.584 
L 78.951837 307.584 
L 78.951837 307.52315 
L 74.56319 307.52315 
z
" style="fill:#1f77b4;"/>
   </g>
   <g id="patch_87">
    <path clip-path="url(#p85ef4b1f2c)" d="M 76.748616 307.584 
L 81.137263 307.584 
L 81.137263 307.492725 
L 76.748616 307.492725 
z
" style="fill:#1f77b4;"/>
   </g>
   <g id="patch_88">
    <path clip-path="url(#p85ef4b1f2c)" d="M 75.232294 307.584 
L 79.620941 307.584 
L 79.620941 307.4623 
L 75.232294 307.4623 
z
" style="fill:#1f77b4;"/>
   </g>
   <g id="patch_89">
    <path clip-path="url(#p85ef4b1f2c)" d="M 77.054159 307.584 
L 81.442806 307.584 
L 81.442806 307.492725 
L 77.054159 307.492725 
z
" style="fill:#1f77b4;"/>
   </g>
   <g id="patch_90">
    <path clip-path="url(#p85ef4b1f2c)" d="M 74.719201 307.584 
L 79.107848 307.584 
L 79.107848 307.492725 
L 74.719201 307.492725 
z
" style="fill:#1f77b4;"/>
   </g>
   <g id="patch_91">
    <path clip-path="url(#p85ef4b1f2c)" d="M 75.280037 307.584 
L 79.668684 307.584 
L 79.668684 307.492725 
L 75.280037 307.492725 
z
" style="fill:#1f77b4;"/>
   </g>
   <g id="patch_92">
    <path clip-path="url(#p85ef4b1f2c)" d="M 74.472768 307.584 
L 78.861414 307.584 
L 78.861414 307.52315 
L 74.472768 307.52315 
z
" style="fill:#1f77b4;"/>
   </g>
   <g id="patch_93">
    <path clip-path="url(#p85ef4b1f2c)" d="M 162.524539 307.584 
L 166.913186 307.584 
L 166.913186 307.492725 
L 162.524539 307.492725 
z
" style="fill:#1f77b4;"/>
   </g>
   <g id="patch_94">
    <path clip-path="url(#p85ef4b1f2c)" d="M 81.877282 307.584 
L 86.265929 307.584 
L 86.265929 307.492725 
L 81.877282 307.492725 
z
" style="fill:#1f77b4;"/>
   </g>
   <g id="patch_95">
    <path clip-path="url(#p85ef4b1f2c)" d="M 74.54698 307.584 
L 78.935626 307.584 
L 78.935626 307.492725 
L 74.54698 307.492725 
z
" style="fill:#1f77b4;"/>
   </g>
   <g id="patch_96">
    <path clip-path="url(#p85ef4b1f2c)" d="M 74.65093 307.584 
L 79.039577 307.584 
L 79.039577 307.52315 
L 74.65093 307.52315 
z
" style="fill:#1f77b4;"/>
   </g>
   <g id="patch_97">
    <path clip-path="url(#p85ef4b1f2c)" d="M 74.446787 307.584 
L 78.835434 307.584 
L 78.835434 307.492725 
L 74.446787 307.492725 
z
" style="fill:#1f77b4;"/>
   </g>
   <g id="patch_98">
    <path clip-path="url(#p85ef4b1f2c)" d="M 74.493976 307.584 
L 78.882623 307.584 
L 78.882623 307.492725 
L 74.493976 307.492725 
z
" style="fill:#1f77b4;"/>
   </g>
   <g id="patch_99">
    <path clip-path="url(#p85ef4b1f2c)" d="M 75.096515 307.584 
L 79.485162 307.584 
L 79.485162 307.492725 
L 75.096515 307.492725 
z
" style="fill:#1f77b4;"/>
   </g>
   <g id="patch_100">
    <path clip-path="url(#p85ef4b1f2c)" d="M 74.810331 307.584 
L 79.198978 307.584 
L 79.198978 307.492725 
L 74.810331 307.492725 
z
" style="fill:#1f77b4;"/>
   </g>
   <g id="patch_101">
    <path clip-path="url(#p85ef4b1f2c)" d="M 75.174007 307.584 
L 79.562654 307.584 
L 79.562654 307.492725 
L 75.174007 307.492725 
z
" style="fill:#1f77b4;"/>
   </g>
   <g id="patch_102">
    <path clip-path="url(#p85ef4b1f2c)" d="M 75.243387 307.584 
L 79.632033 307.584 
L 79.632033 307.492725 
L 75.243387 307.492725 
z
" style="fill:#1f77b4;"/>
   </g>
   <g id="patch_103">
    <path clip-path="url(#p85ef4b1f2c)" d="M 75.128574 307.584 
L 79.517221 307.584 
L 79.517221 307.52315 
L 75.128574 307.52315 
z
" style="fill:#1f77b4;"/>
   </g>
   <g id="patch_104">
    <path clip-path="url(#p85ef4b1f2c)" d="M 74.560469 307.584 
L 78.949116 307.584 
L 78.949116 307.492725 
L 74.560469 307.492725 
z
" style="fill:#1f77b4;"/>
   </g>
   <g id="patch_105">
    <path clip-path="url(#p85ef4b1f2c)" d="M 74.468873 307.584 
L 78.85752 307.584 
L 78.85752 307.492725 
L 74.468873 307.492725 
z
" style="fill:#1f77b4;"/>
   </g>
   <g id="patch_106">
    <path clip-path="url(#p85ef4b1f2c)" d="M 74.436649 307.584 
L 78.825296 307.584 
L 78.825296 307.52315 
L 74.436649 307.52315 
z
" style="fill:#1f77b4;"/>
   </g>
   <g id="patch_107">
    <path clip-path="url(#p85ef4b1f2c)" d="M 75.116055 307.584 
L 79.504702 307.584 
L 79.504702 307.492725 
L 75.116055 307.492725 
z
" style="fill:#1f77b4;"/>
   </g>
   <g id="patch_108">
    <path clip-path="url(#p85ef4b1f2c)" d="M 77.650587 307.584 
L 82.039234 307.584 
L 82.039234 307.492725 
L 77.650587 307.492725 
z
" style="fill:#1f77b4;"/>
   </g>
   <g id="patch_109">
    <path clip-path="url(#p85ef4b1f2c)" d="M 78.345271 307.584 
L 82.733918 307.584 
L 82.733918 307.492725 
L 78.345271 307.492725 
z
" style="fill:#1f77b4;"/>
   </g>
   <g id="patch_110">
    <path clip-path="url(#p85ef4b1f2c)" d="M 100.65888 307.584 
L 105.047527 307.584 
L 105.047527 307.492725 
L 100.65888 307.492725 
z
" style="fill:#1f77b4;"/>
   </g>
   <g id="patch_111">
    <path clip-path="url(#p85ef4b1f2c)" d="M 94.014249 307.584 
L 98.402896 307.584 
L 98.402896 307.492725 
L 94.014249 307.492725 
z
" style="fill:#1f77b4;"/>
   </g>
   <g id="patch_112">
    <path clip-path="url(#p85ef4b1f2c)" d="M 129.549343 307.584 
L 133.93799 307.584 
L 133.93799 307.52315 
L 129.549343 307.52315 
z
" style="fill:#1f77b4;"/>
   </g>
   <g id="patch_113">
    <path clip-path="url(#p85ef4b1f2c)" d="M 103.698457 307.584 
L 108.087104 307.584 
L 108.087104 307.52315 
L 103.698457 307.52315 
z
" style="fill:#1f77b4;"/>
   </g>
   <g id="patch_114">
    <path clip-path="url(#p85ef4b1f2c)" d="M 99.729804 307.584 
L 104.118451 307.584 
L 104.118451 307.492725 
L 99.729804 307.492725 
z
" style="fill:#1f77b4;"/>
   </g>
   <g id="patch_115">
    <path clip-path="url(#p85ef4b1f2c)" d="M 122.923638 307.584 
L 127.312285 307.584 
L 127.312285 307.52315 
L 122.923638 307.52315 
z
" style="fill:#1f77b4;"/>
   </g>
   <g id="patch_116">
    <path clip-path="url(#p85ef4b1f2c)" d="M 79.015127 307.584 
L 83.403774 307.584 
L 83.403774 307.492725 
L 79.015127 307.492725 
z
" style="fill:#1f77b4;"/>
   </g>
   <g id="patch_117">
    <path clip-path="url(#p85ef4b1f2c)" d="M 84.139081 307.584 
L 88.527728 307.584 
L 88.527728 307.52315 
L 84.139081 307.52315 
z
" style="fill:#1f77b4;"/>
   </g>
   <g id="patch_118">
    <path clip-path="url(#p85ef4b1f2c)" d="M 74.826816 307.584 
L 79.215463 307.584 
L 79.215463 307.492725 
L 74.826816 307.492725 
z
" style="fill:#1f77b4;"/>
   </g>
   <g id="patch_119">
    <path clip-path="url(#p85ef4b1f2c)" d="M 74.388248 307.584 
L 78.776895 307.584 
L 78.776895 307.492725 
L 74.388248 307.492725 
z
" style="fill:#1f77b4;"/>
   </g>
   <g id="patch_120">
    <path clip-path="url(#p85ef4b1f2c)" d="M 81.412414 307.584 
L 85.801061 307.584 
L 85.801061 307.52315 
L 81.412414 307.52315 
z
" style="fill:#1f77b4;"/>
   </g>
   <g id="patch_121">
    <path clip-path="url(#p85ef4b1f2c)" d="M 82.322181 307.584 
L 86.710828 307.584 
L 86.710828 307.52315 
L 82.322181 307.52315 
z
" style="fill:#1f77b4;"/>
   </g>
   <g id="patch_122">
    <path clip-path="url(#p85ef4b1f2c)" d="M 146.933871 307.584 
L 151.322518 307.584 
L 151.322518 307.52315 
L 146.933871 307.52315 
z
" style="fill:#1f77b4;"/>
   </g>
   <g id="patch_123">
    <path clip-path="url(#p85ef4b1f2c)" d="M 78.74291 307.584 
L 83.131557 307.584 
L 83.131557 307.52315 
L 78.74291 307.52315 
z
" style="fill:#1f77b4;"/>
   </g>
   <g id="patch_124">
    <path clip-path="url(#p85ef4b1f2c)" d="M 75.158439 307.584 
L 79.547086 307.584 
L 79.547086 307.52315 
L 75.158439 307.52315 
z
" style="fill:#1f77b4;"/>
   </g>
   <g id="patch_125">
    <path clip-path="url(#p85ef4b1f2c)" d="M 74.80326 307.584 
L 79.191907 307.584 
L 79.191907 307.492725 
L 74.80326 307.492725 
z
" style="fill:#1f77b4;"/>
   </g>
   <g id="patch_126">
    <path clip-path="url(#p85ef4b1f2c)" d="M 74.572873 307.584 
L 78.96152 307.584 
L 78.96152 307.52315 
L 74.572873 307.52315 
z
" style="fill:#1f77b4;"/>
   </g>
   <g id="patch_127">
    <path clip-path="url(#p85ef4b1f2c)" d="M 76.684854 307.584 
L 81.073501 307.584 
L 81.073501 307.52315 
L 76.684854 307.52315 
z
" style="fill:#1f77b4;"/>
   </g>
   <g id="patch_128">
    <path clip-path="url(#p85ef4b1f2c)" d="M 78.041747 307.584 
L 82.430394 307.584 
L 82.430394 307.52315 
L 78.041747 307.52315 
z
" style="fill:#1f77b4;"/>
   </g>
   <g id="patch_129">
    <path clip-path="url(#p85ef4b1f2c)" d="M 74.75826 307.584 
L 79.146907 307.584 
L 79.146907 307.52315 
L 74.75826 307.52315 
z
" style="fill:#1f77b4;"/>
   </g>
   <g id="patch_130">
    <path clip-path="url(#p85ef4b1f2c)" d="M 74.414453 307.584 
L 78.8031 307.584 
L 78.8031 307.492725 
L 74.414453 307.492725 
z
" style="fill:#1f77b4;"/>
   </g>
   <g id="patch_131">
    <path clip-path="url(#p85ef4b1f2c)" d="M 74.801549 307.584 
L 79.190195 307.584 
L 79.190195 307.4623 
L 74.801549 307.4623 
z
" style="fill:#1f77b4;"/>
   </g>
   <g id="patch_132">
    <path clip-path="url(#p85ef4b1f2c)" d="M 74.465203 307.584 
L 78.85385 307.584 
L 78.85385 307.492725 
L 74.465203 307.492725 
z
" style="fill:#1f77b4;"/>
   </g>
   <g id="patch_133">
    <path clip-path="url(#p85ef4b1f2c)" d="M 74.560173 307.584 
L 78.94882 307.584 
L 78.94882 307.52315 
L 74.560173 307.52315 
z
" style="fill:#1f77b4;"/>
   </g>
   <g id="patch_134">
    <path clip-path="url(#p85ef4b1f2c)" d="M 75.007288 307.584 
L 79.395935 307.584 
L 79.395935 307.492725 
L 75.007288 307.492725 
z
" style="fill:#1f77b4;"/>
   </g>
   <g id="patch_135">
    <path clip-path="url(#p85ef4b1f2c)" d="M 74.988631 307.584 
L 79.377278 307.584 
L 79.377278 307.52315 
L 74.988631 307.52315 
z
" style="fill:#1f77b4;"/>
   </g>
   <g id="patch_136">
    <path clip-path="url(#p85ef4b1f2c)" d="M 75.421812 307.584 
L 79.810459 307.584 
L 79.810459 307.492725 
L 75.421812 307.492725 
z
" style="fill:#1f77b4;"/>
   </g>
   <g id="patch_137">
    <path clip-path="url(#p85ef4b1f2c)" d="M 74.413861 307.584 
L 78.802508 307.584 
L 78.802508 307.492725 
L 74.413861 307.492725 
z
" style="fill:#1f77b4;"/>
   </g>
   <g id="patch_138">
    <path clip-path="url(#p85ef4b1f2c)" d="M 84.795238 307.584 
L 89.183885 307.584 
L 89.183885 307.492725 
L 84.795238 307.492725 
z
" style="fill:#1f77b4;"/>
   </g>
   <g id="patch_139">
    <path clip-path="url(#p85ef4b1f2c)" d="M 97.482926 307.584 
L 101.871573 307.584 
L 101.871573 307.492725 
L 97.482926 307.492725 
z
" style="fill:#1f77b4;"/>
   </g>
   <g id="patch_140">
    <path clip-path="url(#p85ef4b1f2c)" d="M 75.441896 307.584 
L 79.830543 307.584 
L 79.830543 307.492725 
L 75.441896 307.492725 
z
" style="fill:#1f77b4;"/>
   </g>
   <g id="patch_141">
    <path clip-path="url(#p85ef4b1f2c)" d="M 76.959161 307.584 
L 81.347808 307.584 
L 81.347808 307.492725 
L 76.959161 307.492725 
z
" style="fill:#1f77b4;"/>
   </g>
   <g id="patch_142">
    <path clip-path="url(#p85ef4b1f2c)" d="M 74.468719 307.584 
L 78.857366 307.584 
L 78.857366 307.492725 
L 74.468719 307.492725 
z
" style="fill:#1f77b4;"/>
   </g>
   <g id="patch_143">
    <path clip-path="url(#p85ef4b1f2c)" d="M 74.423653 307.584 
L 78.8123 307.584 
L 78.8123 307.52315 
L 74.423653 307.52315 
z
" style="fill:#1f77b4;"/>
   </g>
   <g id="patch_144">
    <path clip-path="url(#p85ef4b1f2c)" d="M 74.42548 307.584 
L 78.814127 307.584 
L 78.814127 307.492725 
L 74.42548 307.492725 
z
" style="fill:#1f77b4;"/>
   </g>
   <g id="patch_145">
    <path clip-path="url(#p85ef4b1f2c)" d="M 75.347633 307.584 
L 79.73628 307.584 
L 79.73628 307.52315 
L 75.347633 307.52315 
z
" style="fill:#1f77b4;"/>
   </g>
   <g id="patch_146">
    <path clip-path="url(#p85ef4b1f2c)" d="M 74.56539 307.584 
L 78.954037 307.584 
L 78.954037 307.492725 
L 74.56539 307.492725 
z
" style="fill:#1f77b4;"/>
   </g>
   <g id="patch_147">
    <path clip-path="url(#p85ef4b1f2c)" d="M 74.909026 307.584 
L 79.297673 307.584 
L 79.297673 307.52315 
L 74.909026 307.52315 
z
" style="fill:#1f77b4;"/>
   </g>
   <g id="patch_148">
    <path clip-path="url(#p85ef4b1f2c)" d="M 74.677119 307.584 
L 79.065766 307.584 
L 79.065766 307.492725 
L 74.677119 307.492725 
z
" style="fill:#1f77b4;"/>
   </g>
   <g id="patch_149">
    <path clip-path="url(#p85ef4b1f2c)" d="M 74.623331 307.584 
L 79.011978 307.584 
L 79.011978 307.52315 
L 74.623331 307.52315 
z
" style="fill:#1f77b4;"/>
   </g>
   <g id="patch_150">
    <path clip-path="url(#p85ef4b1f2c)" d="M 75.332745 307.584 
L 79.721392 307.584 
L 79.721392 307.52315 
L 75.332745 307.52315 
z
" style="fill:#1f77b4;"/>
   </g>
   <g id="patch_151">
    <path clip-path="url(#p85ef4b1f2c)" d="M 75.311504 307.584 
L 79.700151 307.584 
L 79.700151 307.492725 
L 75.311504 307.492725 
z
" style="fill:#1f77b4;"/>
   </g>
   <g id="patch_152">
    <path clip-path="url(#p85ef4b1f2c)" d="M 75.616965 307.584 
L 80.005612 307.584 
L 80.005612 307.52315 
L 75.616965 307.52315 
z
" style="fill:#1f77b4;"/>
   </g>
   <g id="patch_153">
    <path clip-path="url(#p85ef4b1f2c)" d="M 76.06498 307.584 
L 80.453627 307.584 
L 80.453627 307.492725 
L 76.06498 307.492725 
z
" style="fill:#1f77b4;"/>
   </g>
   <g id="patch_154">
    <path clip-path="url(#p85ef4b1f2c)" d="M 84.779823 307.584 
L 89.16847 307.584 
L 89.16847 307.492725 
L 84.779823 307.492725 
z
" style="fill:#1f77b4;"/>
   </g>
   <g id="patch_155">
    <path clip-path="url(#p85ef4b1f2c)" d="M 89.611065 307.584 
L 93.999712 307.584 
L 93.999712 307.52315 
L 89.611065 307.52315 
z
" style="fill:#1f77b4;"/>
   </g>
   <g id="patch_156">
    <path clip-path="url(#p85ef4b1f2c)" d="M 97.71152 307.584 
L 102.100167 307.584 
L 102.100167 307.492725 
L 97.71152 307.492725 
z
" style="fill:#1f77b4;"/>
   </g>
   <g id="patch_157">
    <path clip-path="url(#p85ef4b1f2c)" d="M 89.266995 307.584 
L 93.655642 307.584 
L 93.655642 307.52315 
L 89.266995 307.52315 
z
" style="fill:#1f77b4;"/>
   </g>
   <g id="patch_158">
    <path clip-path="url(#p85ef4b1f2c)" d="M 92.363899 307.584 
L 96.752546 307.584 
L 96.752546 307.492725 
L 92.363899 307.492725 
z
" style="fill:#1f77b4;"/>
   </g>
   <g id="patch_159">
    <path clip-path="url(#p85ef4b1f2c)" d="M 76.922351 307.584 
L 81.310998 307.584 
L 81.310998 307.492725 
L 76.922351 307.492725 
z
" style="fill:#1f77b4;"/>
   </g>
   <g id="patch_160">
    <path clip-path="url(#p85ef4b1f2c)" d="M 74.383135 307.584 
L 78.771782 307.584 
L 78.771782 307.492725 
L 74.383135 307.492725 
z
" style="fill:#1f77b4;"/>
   </g>
   <g id="patch_161">
    <path clip-path="url(#p85ef4b1f2c)" d="M 74.696523 307.584 
L 79.08517 307.584 
L 79.08517 307.492725 
L 74.696523 307.492725 
z
" style="fill:#1f77b4;"/>
   </g>
   <g id="patch_162">
    <path clip-path="url(#p85ef4b1f2c)" d="M 76.843657 307.584 
L 81.232304 307.584 
L 81.232304 307.492725 
L 76.843657 307.492725 
z
" style="fill:#1f77b4;"/>
   </g>
   <g id="patch_163">
    <path clip-path="url(#p85ef4b1f2c)" d="M 76.878596 307.584 
L 81.267243 307.584 
L 81.267243 307.492725 
L 76.878596 307.492725 
z
" style="fill:#1f77b4;"/>
   </g>
   <g id="patch_164">
    <path clip-path="url(#p85ef4b1f2c)" d="M 77.585783 307.584 
L 81.97443 307.584 
L 81.97443 307.492725 
L 77.585783 307.492725 
z
" style="fill:#1f77b4;"/>
   </g>
   <g id="patch_165">
    <path clip-path="url(#p85ef4b1f2c)" d="M 76.871147 307.584 
L 81.259794 307.584 
L 81.259794 307.492725 
L 76.871147 307.492725 
z
" style="fill:#1f77b4;"/>
   </g>
   <g id="patch_166">
    <path clip-path="url(#p85ef4b1f2c)" d="M 79.151471 307.584 
L 83.540118 307.584 
L 83.540118 307.492725 
L 79.151471 307.492725 
z
" style="fill:#1f77b4;"/>
   </g>
   <g id="patch_167">
    <path clip-path="url(#p85ef4b1f2c)" d="M 74.708328 307.584 
L 79.096975 307.584 
L 79.096975 307.492725 
L 74.708328 307.492725 
z
" style="fill:#1f77b4;"/>
   </g>
   <g id="patch_168">
    <path clip-path="url(#p85ef4b1f2c)" d="M 75.181112 307.584 
L 79.569759 307.584 
L 79.569759 307.492725 
L 75.181112 307.492725 
z
" style="fill:#1f77b4;"/>
   </g>
   <g id="patch_169">
    <path clip-path="url(#p85ef4b1f2c)" d="M 76.192766 307.584 
L 80.581413 307.584 
L 80.581413 307.492725 
L 76.192766 307.492725 
z
" style="fill:#1f77b4;"/>
   </g>
   <g id="patch_170">
    <path clip-path="url(#p85ef4b1f2c)" d="M 74.633568 307.584 
L 79.022214 307.584 
L 79.022214 307.492725 
L 74.633568 307.492725 
z
" style="fill:#1f77b4;"/>
   </g>
   <g id="patch_171">
    <path clip-path="url(#p85ef4b1f2c)" d="M 74.984155 307.584 
L 79.372802 307.584 
L 79.372802 307.492725 
L 74.984155 307.492725 
z
" style="fill:#1f77b4;"/>
   </g>
   <g id="patch_172">
    <path clip-path="url(#p85ef4b1f2c)" d="M 74.609463 307.584 
L 78.99811 307.584 
L 78.99811 307.492725 
L 74.609463 307.492725 
z
" style="fill:#1f77b4;"/>
   </g>
   <g id="patch_173">
    <path clip-path="url(#p85ef4b1f2c)" d="M 75.499036 307.584 
L 79.887683 307.584 
L 79.887683 307.492725 
L 75.499036 307.492725 
z
" style="fill:#1f77b4;"/>
   </g>
   <g id="patch_174">
    <path clip-path="url(#p85ef4b1f2c)" d="M 80.724494 307.584 
L 85.113141 307.584 
L 85.113141 307.492725 
L 80.724494 307.492725 
z
" style="fill:#1f77b4;"/>
   </g>
   <g id="patch_175">
    <path clip-path="url(#p85ef4b1f2c)" d="M 75.912589 307.584 
L 80.301236 307.584 
L 80.301236 307.492725 
L 75.912589 307.492725 
z
" style="fill:#1f77b4;"/>
   </g>
   <g id="patch_176">
    <path clip-path="url(#p85ef4b1f2c)" d="M 74.974483 307.584 
L 79.36313 307.584 
L 79.36313 307.492725 
L 74.974483 307.492725 
z
" style="fill:#1f77b4;"/>
   </g>
   <g id="patch_177">
    <path clip-path="url(#p85ef4b1f2c)" d="M 74.798904 307.584 
L 79.187551 307.584 
L 79.187551 307.492725 
L 74.798904 307.492725 
z
" style="fill:#1f77b4;"/>
   </g>
   <g id="patch_178">
    <path clip-path="url(#p85ef4b1f2c)" d="M 75.876306 307.584 
L 80.264953 307.584 
L 80.264953 307.492725 
L 75.876306 307.492725 
z
" style="fill:#1f77b4;"/>
   </g>
   <g id="patch_179">
    <path clip-path="url(#p85ef4b1f2c)" d="M 74.834441 307.584 
L 79.223088 307.584 
L 79.223088 307.492725 
L 74.834441 307.492725 
z
" style="fill:#1f77b4;"/>
   </g>
   <g id="patch_180">
    <path clip-path="url(#p85ef4b1f2c)" d="M 76.67385 307.584 
L 81.062496 307.584 
L 81.062496 307.52315 
L 76.67385 307.52315 
z
" style="fill:#1f77b4;"/>
   </g>
   <g id="patch_181">
    <path clip-path="url(#p85ef4b1f2c)" d="M 75.369044 307.584 
L 79.757691 307.584 
L 79.757691 307.52315 
L 75.369044 307.52315 
z
" style="fill:#1f77b4;"/>
   </g>
   <g id="patch_182">
    <path clip-path="url(#p85ef4b1f2c)" d="M 226.517046 307.584 
L 230.905692 307.584 
L 230.905692 307.492725 
L 226.517046 307.492725 
z
" style="fill:#1f77b4;"/>
   </g>
   <g id="patch_183">
    <path clip-path="url(#p85ef4b1f2c)" d="M 75.880733 307.584 
L 80.26938 307.584 
L 80.26938 307.492725 
L 75.880733 307.492725 
z
" style="fill:#1f77b4;"/>
   </g>
   <g id="patch_184">
    <path clip-path="url(#p85ef4b1f2c)" d="M 103.238527 307.584 
L 107.627174 307.584 
L 107.627174 307.492725 
L 103.238527 307.492725 
z
" style="fill:#1f77b4;"/>
   </g>
   <g id="patch_185">
    <path clip-path="url(#p85ef4b1f2c)" d="M 76.20766 307.584 
L 80.596307 307.584 
L 80.596307 307.492725 
L 76.20766 307.492725 
z
" style="fill:#1f77b4;"/>
   </g>
   <g id="patch_186">
    <path clip-path="url(#p85ef4b1f2c)" d="M 81.046182 307.584 
L 85.434829 307.584 
L 85.434829 307.492725 
L 81.046182 307.492725 
z
" style="fill:#1f77b4;"/>
   </g>
   <g id="patch_187">
    <path clip-path="url(#p85ef4b1f2c)" d="M 74.998588 307.584 
L 79.387235 307.584 
L 79.387235 307.492725 
L 74.998588 307.492725 
z
" style="fill:#1f77b4;"/>
   </g>
   <g id="patch_188">
    <path clip-path="url(#p85ef4b1f2c)" d="M 86.753068 307.584 
L 91.141715 307.584 
L 91.141715 307.492725 
L 86.753068 307.492725 
z
" style="fill:#1f77b4;"/>
   </g>
   <g id="patch_189">
    <path clip-path="url(#p85ef4b1f2c)" d="M 98.672414 307.584 
L 103.061061 307.584 
L 103.061061 307.492725 
L 98.672414 307.492725 
z
" style="fill:#1f77b4;"/>
   </g>
   <g id="patch_190">
    <path clip-path="url(#p85ef4b1f2c)" d="M 88.291289 307.584 
L 92.679936 307.584 
L 92.679936 307.52315 
L 88.291289 307.52315 
z
" style="fill:#1f77b4;"/>
   </g>
   <g id="patch_191">
    <path clip-path="url(#p85ef4b1f2c)" d="M 74.738423 307.584 
L 79.12707 307.584 
L 79.12707 307.492725 
L 74.738423 307.492725 
z
" style="fill:#1f77b4;"/>
   </g>
   <g id="patch_192">
    <path clip-path="url(#p85ef4b1f2c)" d="M 74.801867 307.584 
L 79.190514 307.584 
L 79.190514 307.492725 
L 74.801867 307.492725 
z
" style="fill:#1f77b4;"/>
   </g>
   <g id="patch_193">
    <path clip-path="url(#p85ef4b1f2c)" d="M 74.525409 307.584 
L 78.914056 307.584 
L 78.914056 307.492725 
L 74.525409 307.492725 
z
" style="fill:#1f77b4;"/>
   </g>
   <g id="patch_194">
    <path clip-path="url(#p85ef4b1f2c)" d="M 74.393915 307.584 
L 78.782561 307.584 
L 78.782561 307.492725 
L 74.393915 307.492725 
z
" style="fill:#1f77b4;"/>
   </g>
   <g id="patch_195">
    <path clip-path="url(#p85ef4b1f2c)" d="M 74.942912 307.584 
L 79.331559 307.584 
L 79.331559 307.52315 
L 74.942912 307.52315 
z
" style="fill:#1f77b4;"/>
   </g>
   <g id="patch_196">
    <path clip-path="url(#p85ef4b1f2c)" d="M 80.051934 307.584 
L 84.440581 307.584 
L 84.440581 307.431875 
L 80.051934 307.431875 
z
" style="fill:#1f77b4;"/>
   </g>
   <g id="patch_197">
    <path clip-path="url(#p85ef4b1f2c)" d="M 81.687089 307.584 
L 86.075736 307.584 
L 86.075736 307.52315 
L 81.687089 307.52315 
z
" style="fill:#1f77b4;"/>
   </g>
   <g id="patch_198">
    <path clip-path="url(#p85ef4b1f2c)" d="M 95.404573 307.584 
L 99.79322 307.584 
L 99.79322 307.492725 
L 95.404573 307.492725 
z
" style="fill:#1f77b4;"/>
   </g>
   <g id="patch_199">
    <path clip-path="url(#p85ef4b1f2c)" d="M 82.377697 307.584 
L 86.766344 307.584 
L 86.766344 307.52315 
L 82.377697 307.52315 
z
" style="fill:#1f77b4;"/>
   </g>
   <g id="patch_200">
    <path clip-path="url(#p85ef4b1f2c)" d="M 85.229166 307.584 
L 89.617813 307.584 
L 89.617813 307.492725 
L 85.229166 307.492725 
z
" style="fill:#1f77b4;"/>
   </g>
   <g id="patch_201">
    <path clip-path="url(#p85ef4b1f2c)" d="M 100.747476 307.584 
L 105.136123 307.584 
L 105.136123 307.492725 
L 100.747476 307.492725 
z
" style="fill:#1f77b4;"/>
   </g>
   <g id="patch_202">
    <path clip-path="url(#p85ef4b1f2c)" d="M 86.264009 307.584 
L 90.652656 307.584 
L 90.652656 307.492725 
L 86.264009 307.492725 
z
" style="fill:#1f77b4;"/>
   </g>
   <g id="patch_203">
    <path clip-path="url(#p85ef4b1f2c)" d="M 93.303837 307.584 
L 97.692484 307.584 
L 97.692484 307.492725 
L 93.303837 307.492725 
z
" style="fill:#1f77b4;"/>
   </g>
   <g id="patch_204">
    <path clip-path="url(#p85ef4b1f2c)" d="M 75.172274 307.584 
L 79.560921 307.584 
L 79.560921 307.492725 
L 75.172274 307.492725 
z
" style="fill:#1f77b4;"/>
   </g>
   <g id="patch_205">
    <path clip-path="url(#p85ef4b1f2c)" d="M 74.414832 307.584 
L 78.803479 307.584 
L 78.803479 307.492725 
L 74.414832 307.492725 
z
" style="fill:#1f77b4;"/>
   </g>
   <g id="patch_206">
    <path clip-path="url(#p85ef4b1f2c)" d="M 75.251922 307.584 
L 79.640569 307.584 
L 79.640569 307.492725 
L 75.251922 307.492725 
z
" style="fill:#1f77b4;"/>
   </g>
   <g id="patch_207">
    <path clip-path="url(#p85ef4b1f2c)" d="M 74.585068 307.584 
L 78.973714 307.584 
L 78.973714 307.492725 
L 74.585068 307.492725 
z
" style="fill:#1f77b4;"/>
   </g>
   <g id="patch_208">
    <path clip-path="url(#p85ef4b1f2c)" d="M 75.333524 307.584 
L 79.722171 307.584 
L 79.722171 307.492725 
L 75.333524 307.492725 
z
" style="fill:#1f77b4;"/>
   </g>
   <g id="patch_209">
    <path clip-path="url(#p85ef4b1f2c)" d="M 85.907212 307.584 
L 90.295859 307.584 
L 90.295859 307.492725 
L 85.907212 307.492725 
z
" style="fill:#1f77b4;"/>
   </g>
   <g id="patch_210">
    <path clip-path="url(#p85ef4b1f2c)" d="M 86.275913 307.584 
L 90.66456 307.584 
L 90.66456 307.52315 
L 86.275913 307.52315 
z
" style="fill:#1f77b4;"/>
   </g>
   <g id="patch_211">
    <path clip-path="url(#p85ef4b1f2c)" d="M 80.023517 307.584 
L 84.412164 307.584 
L 84.412164 307.52315 
L 80.023517 307.52315 
z
" style="fill:#1f77b4;"/>
   </g>
   <g id="patch_212">
    <path clip-path="url(#p85ef4b1f2c)" d="M 75.77161 307.584 
L 80.160256 307.584 
L 80.160256 307.52315 
L 75.77161 307.52315 
z
" style="fill:#1f77b4;"/>
   </g>
   <g id="patch_213">
    <path clip-path="url(#p85ef4b1f2c)" d="M 75.544481 307.584 
L 79.933128 307.584 
L 79.933128 307.492725 
L 75.544481 307.492725 
z
" style="fill:#1f77b4;"/>
   </g>
   <g id="patch_214">
    <path clip-path="url(#p85ef4b1f2c)" d="M 92.6321 307.584 
L 97.020747 307.584 
L 97.020747 307.492725 
L 92.6321 307.492725 
z
" style="fill:#1f77b4;"/>
   </g>
   <g id="patch_215">
    <path clip-path="url(#p85ef4b1f2c)" d="M 105.337397 307.584 
L 109.726044 307.584 
L 109.726044 307.492725 
L 105.337397 307.492725 
z
" style="fill:#1f77b4;"/>
   </g>
   <g id="patch_216">
    <path clip-path="url(#p85ef4b1f2c)" d="M 116.026166 307.584 
L 120.414813 307.584 
L 120.414813 307.52315 
L 116.026166 307.52315 
z
" style="fill:#1f77b4;"/>
   </g>
   <g id="patch_217">
    <path clip-path="url(#p85ef4b1f2c)" d="M 129.236103 307.584 
L 133.62475 307.584 
L 133.62475 307.492725 
L 129.236103 307.492725 
z
" style="fill:#1f77b4;"/>
   </g>
   <g id="patch_218">
    <path clip-path="url(#p85ef4b1f2c)" d="M 107.528045 307.584 
L 111.916692 307.584 
L 111.916692 307.52315 
L 107.528045 307.52315 
z
" style="fill:#1f77b4;"/>
   </g>
   <g id="patch_219">
    <path clip-path="url(#p85ef4b1f2c)" d="M 80.027138 307.584 
L 84.415785 307.584 
L 84.415785 307.52315 
L 80.027138 307.52315 
z
" style="fill:#1f77b4;"/>
   </g>
   <g id="patch_220">
    <path clip-path="url(#p85ef4b1f2c)" d="M 100.601224 307.584 
L 104.989871 307.584 
L 104.989871 307.52315 
L 100.601224 307.52315 
z
" style="fill:#1f77b4;"/>
   </g>
   <g id="patch_221">
    <path clip-path="url(#p85ef4b1f2c)" d="M 146.140074 307.584 
L 150.528721 307.584 
L 150.528721 307.492725 
L 146.140074 307.492725 
z
" style="fill:#1f77b4;"/>
   </g>
   <g id="patch_222">
    <path clip-path="url(#p85ef4b1f2c)" d="M 101.655048 307.584 
L 106.043695 307.584 
L 106.043695 307.492725 
L 101.655048 307.492725 
z
" style="fill:#1f77b4;"/>
   </g>
   <g id="patch_223">
    <path clip-path="url(#p85ef4b1f2c)" d="M 77.207882 307.584 
L 81.596529 307.584 
L 81.596529 307.52315 
L 77.207882 307.52315 
z
" style="fill:#1f77b4;"/>
   </g>
   <g id="patch_224">
    <path clip-path="url(#p85ef4b1f2c)" d="M 394.098626 307.584 
L 398.487273 307.584 
L 398.487273 307.52315 
L 394.098626 307.52315 
z
" style="fill:#1f77b4;"/>
   </g>
   <g id="patch_225">
    <path clip-path="url(#p85ef4b1f2c)" d="M 82.044215 307.584 
L 86.432862 307.584 
L 86.432862 307.492725 
L 82.044215 307.492725 
z
" style="fill:#1f77b4;"/>
   </g>
   <g id="patch_226">
    <path clip-path="url(#p85ef4b1f2c)" d="M 74.465279 307.584 
L 78.853926 307.584 
L 78.853926 307.492725 
L 74.465279 307.492725 
z
" style="fill:#1f77b4;"/>
   </g>
   <g id="patch_227">
    <path clip-path="url(#p85ef4b1f2c)" d="M 74.432002 307.584 
L 78.820649 307.584 
L 78.820649 307.492725 
L 74.432002 307.492725 
z
" style="fill:#1f77b4;"/>
   </g>
   <g id="patch_228">
    <path clip-path="url(#p85ef4b1f2c)" d="M 127.84194 307.584 
L 132.230587 307.584 
L 132.230587 307.492725 
L 127.84194 307.492725 
z
" style="fill:#1f77b4;"/>
   </g>
   <g id="patch_229">
    <path clip-path="url(#p85ef4b1f2c)" d="M 90.867041 307.584 
L 95.255688 307.584 
L 95.255688 307.492725 
L 90.867041 307.492725 
z
" style="fill:#1f77b4;"/>
   </g>
   <g id="patch_230">
    <path clip-path="url(#p85ef4b1f2c)" d="M 84.019929 307.584 
L 88.408576 307.584 
L 88.408576 307.492725 
L 84.019929 307.492725 
z
" style="fill:#1f77b4;"/>
   </g>
   <g id="patch_231">
    <path clip-path="url(#p85ef4b1f2c)" d="M 99.8201 307.584 
L 104.208747 307.584 
L 104.208747 307.52315 
L 99.8201 307.52315 
z
" style="fill:#1f77b4;"/>
   </g>
   <g id="patch_232">
    <path clip-path="url(#p85ef4b1f2c)" d="M 96.012126 307.584 
L 100.400773 307.584 
L 100.400773 307.492725 
L 96.012126 307.492725 
z
" style="fill:#1f77b4;"/>
   </g>
   <g id="patch_233">
    <path clip-path="url(#p85ef4b1f2c)" d="M 90.984108 307.584 
L 95.372755 307.584 
L 95.372755 307.4623 
L 90.984108 307.4623 
z
" style="fill:#1f77b4;"/>
   </g>
   <g id="patch_234">
    <path clip-path="url(#p85ef4b1f2c)" d="M 95.428601 307.584 
L 99.817247 307.584 
L 99.817247 307.492725 
L 95.428601 307.492725 
z
" style="fill:#1f77b4;"/>
   </g>
   <g id="patch_235">
    <path clip-path="url(#p85ef4b1f2c)" d="M 112.191092 307.584 
L 116.579739 307.584 
L 116.579739 307.52315 
L 112.191092 307.52315 
z
" style="fill:#1f77b4;"/>
   </g>
   <g id="patch_236">
    <path clip-path="url(#p85ef4b1f2c)" d="M 113.375753 307.584 
L 117.7644 307.584 
L 117.7644 307.492725 
L 113.375753 307.492725 
z
" style="fill:#1f77b4;"/>
   </g>
   <g id="patch_237">
    <path clip-path="url(#p85ef4b1f2c)" d="M 113.032231 307.584 
L 117.420878 307.584 
L 117.420878 307.492725 
L 113.032231 307.492725 
z
" style="fill:#1f77b4;"/>
   </g>
   <g id="patch_238">
    <path clip-path="url(#p85ef4b1f2c)" d="M 104.404426 307.584 
L 108.793073 307.584 
L 108.793073 307.492725 
L 104.404426 307.492725 
z
" style="fill:#1f77b4;"/>
   </g>
   <g id="patch_239">
    <path clip-path="url(#p85ef4b1f2c)" d="M 118.050704 307.584 
L 122.439351 307.584 
L 122.439351 307.492725 
L 118.050704 307.492725 
z
" style="fill:#1f77b4;"/>
   </g>
   <g id="patch_240">
    <path clip-path="url(#p85ef4b1f2c)" d="M 104.398501 307.584 
L 108.787148 307.584 
L 108.787148 307.52315 
L 104.398501 307.52315 
z
" style="fill:#1f77b4;"/>
   </g>
   <g id="patch_241">
    <path clip-path="url(#p85ef4b1f2c)" d="M 105.926299 307.584 
L 110.314946 307.584 
L 110.314946 307.52315 
L 105.926299 307.52315 
z
" style="fill:#1f77b4;"/>
   </g>
   <g id="patch_242">
    <path clip-path="url(#p85ef4b1f2c)" d="M 97.12772 307.584 
L 101.516367 307.584 
L 101.516367 307.492725 
L 97.12772 307.492725 
z
" style="fill:#1f77b4;"/>
   </g>
   <g id="patch_243">
    <path clip-path="url(#p85ef4b1f2c)" d="M 90.451162 307.584 
L 94.839809 307.584 
L 94.839809 307.492725 
L 90.451162 307.492725 
z
" style="fill:#1f77b4;"/>
   </g>
   <g id="patch_244">
    <path clip-path="url(#p85ef4b1f2c)" d="M 83.652819 307.584 
L 88.041465 307.584 
L 88.041465 307.492725 
L 83.652819 307.492725 
z
" style="fill:#1f77b4;"/>
   </g>
   <g id="patch_245">
    <path clip-path="url(#p85ef4b1f2c)" d="M 85.474656 307.584 
L 89.863302 307.584 
L 89.863302 307.492725 
L 85.474656 307.492725 
z
" style="fill:#1f77b4;"/>
   </g>
   <g id="patch_246">
    <path clip-path="url(#p85ef4b1f2c)" d="M 86.809517 307.584 
L 91.198164 307.584 
L 91.198164 307.52315 
L 86.809517 307.52315 
z
" style="fill:#1f77b4;"/>
   </g>
   <g id="patch_247">
    <path clip-path="url(#p85ef4b1f2c)" d="M 77.98408 307.584 
L 82.372727 307.584 
L 82.372727 307.52315 
L 77.98408 307.52315 
z
" style="fill:#1f77b4;"/>
   </g>
   <g id="patch_248">
    <path clip-path="url(#p85ef4b1f2c)" d="M 77.01301 307.584 
L 81.401657 307.584 
L 81.401657 307.492725 
L 77.01301 307.492725 
z
" style="fill:#1f77b4;"/>
   </g>
   <g id="patch_249">
    <path clip-path="url(#p85ef4b1f2c)" d="M 76.67459 307.584 
L 81.063237 307.584 
L 81.063237 307.52315 
L 76.67459 307.52315 
z
" style="fill:#1f77b4;"/>
   </g>
   <g id="patch_250">
    <path clip-path="url(#p85ef4b1f2c)" d="M 76.093237 307.584 
L 80.481884 307.584 
L 80.481884 307.492725 
L 76.093237 307.492725 
z
" style="fill:#1f77b4;"/>
   </g>
   <g id="patch_251">
    <path clip-path="url(#p85ef4b1f2c)" d="M 76.345299 307.584 
L 80.733946 307.584 
L 80.733946 307.492725 
L 76.345299 307.492725 
z
" style="fill:#1f77b4;"/>
   </g>
   <g id="patch_252">
    <path clip-path="url(#p85ef4b1f2c)" d="M 75.490281 307.584 
L 79.878928 307.584 
L 79.878928 307.492725 
L 75.490281 307.492725 
z
" style="fill:#1f77b4;"/>
   </g>
   <g id="patch_253">
    <path clip-path="url(#p85ef4b1f2c)" d="M 74.846148 307.584 
L 79.234795 307.584 
L 79.234795 307.52315 
L 74.846148 307.52315 
z
" style="fill:#1f77b4;"/>
   </g>
   <g id="patch_254">
    <path clip-path="url(#p85ef4b1f2c)" d="M 75.063353 307.584 
L 79.452 307.584 
L 79.452 307.492725 
L 75.063353 307.492725 
z
" style="fill:#1f77b4;"/>
   </g>
   <g id="patch_255">
    <path clip-path="url(#p85ef4b1f2c)" d="M 76.50018 307.584 
L 80.888827 307.584 
L 80.888827 307.492725 
L 76.50018 307.492725 
z
" style="fill:#1f77b4;"/>
   </g>
   <g id="patch_256">
    <path clip-path="url(#p85ef4b1f2c)" d="M 74.954016 307.584 
L 79.342663 307.584 
L 79.342663 307.492725 
L 74.954016 307.492725 
z
" style="fill:#1f77b4;"/>
   </g>
   <g id="patch_257">
    <path clip-path="url(#p85ef4b1f2c)" d="M 74.764344 307.584 
L 79.152991 307.584 
L 79.152991 307.492725 
L 74.764344 307.492725 
z
" style="fill:#1f77b4;"/>
   </g>
   <g id="patch_258">
    <path clip-path="url(#p85ef4b1f2c)" d="M 74.66391 307.584 
L 79.052557 307.584 
L 79.052557 307.492725 
L 74.66391 307.492725 
z
" style="fill:#1f77b4;"/>
   </g>
   <g id="patch_259">
    <path clip-path="url(#p85ef4b1f2c)" d="M 82.990297 307.584 
L 87.378944 307.584 
L 87.378944 307.492725 
L 82.990297 307.492725 
z
" style="fill:#1f77b4;"/>
   </g>
   <g id="patch_260">
    <path clip-path="url(#p85ef4b1f2c)" d="M 79.773584 307.584 
L 84.162231 307.584 
L 84.162231 307.492725 
L 79.773584 307.492725 
z
" style="fill:#1f77b4;"/>
   </g>
   <g id="patch_261">
    <path clip-path="url(#p85ef4b1f2c)" d="M 82.033518 307.584 
L 86.422164 307.584 
L 86.422164 307.492725 
L 82.033518 307.492725 
z
" style="fill:#1f77b4;"/>
   </g>
   <g id="patch_262">
    <path clip-path="url(#p85ef4b1f2c)" d="M 75.772164 307.584 
L 80.160811 307.584 
L 80.160811 307.492725 
L 75.772164 307.492725 
z
" style="fill:#1f77b4;"/>
   </g>
   <g id="patch_263">
    <path clip-path="url(#p85ef4b1f2c)" d="M 76.142648 307.584 
L 80.531295 307.584 
L 80.531295 307.52315 
L 76.142648 307.52315 
z
" style="fill:#1f77b4;"/>
   </g>
   <g id="patch_264">
    <path clip-path="url(#p85ef4b1f2c)" d="M 74.403926 307.584 
L 78.792573 307.584 
L 78.792573 307.492725 
L 74.403926 307.492725 
z
" style="fill:#1f77b4;"/>
   </g>
   <g id="patch_265">
    <path clip-path="url(#p85ef4b1f2c)" d="M 144.81196 307.584 
L 149.200607 307.584 
L 149.200607 307.492725 
L 144.81196 307.492725 
z
" style="fill:#1f77b4;"/>
   </g>
   <g id="patch_266">
    <path clip-path="url(#p85ef4b1f2c)" d="M 274.243032 307.584 
L 278.631679 307.584 
L 278.631679 307.52315 
L 274.243032 307.52315 
z
" style="fill:#1f77b4;"/>
   </g>
   <g id="patch_267">
    <path clip-path="url(#p85ef4b1f2c)" d="M 77.711101 307.584 
L 82.099748 307.584 
L 82.099748 307.52315 
L 77.711101 307.52315 
z
" style="fill:#1f77b4;"/>
   </g>
   <g id="patch_268">
    <path clip-path="url(#p85ef4b1f2c)" d="M 79.910674 307.584 
L 84.299321 307.584 
L 84.299321 307.492725 
L 79.910674 307.492725 
z
" style="fill:#1f77b4;"/>
   </g>
   <g id="patch_269">
    <path clip-path="url(#p85ef4b1f2c)" d="M 78.229954 307.584 
L 82.618601 307.584 
L 82.618601 307.492725 
L 78.229954 307.492725 
z
" style="fill:#1f77b4;"/>
   </g>
   <g id="patch_270">
    <path clip-path="url(#p85ef4b1f2c)" d="M 74.486427 307.584 
L 78.875074 307.584 
L 78.875074 307.492725 
L 74.486427 307.492725 
z
" style="fill:#1f77b4;"/>
   </g>
   <g id="patch_271">
    <path clip-path="url(#p85ef4b1f2c)" d="M 77.741887 307.584 
L 82.130534 307.584 
L 82.130534 307.492725 
L 77.741887 307.492725 
z
" style="fill:#1f77b4;"/>
   </g>
   <g id="patch_272">
    <path clip-path="url(#p85ef4b1f2c)" d="M 97.944557 307.584 
L 102.333204 307.584 
L 102.333204 307.52315 
L 97.944557 307.52315 
z
" style="fill:#1f77b4;"/>
   </g>
   <g id="patch_273">
    <path clip-path="url(#p85ef4b1f2c)" d="M 96.518082 307.584 
L 100.906729 307.584 
L 100.906729 307.52315 
L 96.518082 307.52315 
z
" style="fill:#1f77b4;"/>
   </g>
   <g id="patch_274">
    <path clip-path="url(#p85ef4b1f2c)" d="M 96.471453 307.584 
L 100.8601 307.584 
L 100.8601 307.492725 
L 96.471453 307.492725 
z
" style="fill:#1f77b4;"/>
   </g>
   <g id="patch_275">
    <path clip-path="url(#p85ef4b1f2c)" d="M 94.626959 307.584 
L 99.015606 307.584 
L 99.015606 307.52315 
L 94.626959 307.52315 
z
" style="fill:#1f77b4;"/>
   </g>
   <g id="patch_276">
    <path clip-path="url(#p85ef4b1f2c)" d="M 76.797275 307.584 
L 81.185922 307.584 
L 81.185922 307.492725 
L 76.797275 307.492725 
z
" style="fill:#1f77b4;"/>
   </g>
   <g id="patch_277">
    <path clip-path="url(#p85ef4b1f2c)" d="M 76.223953 307.584 
L 80.6126 307.584 
L 80.6126 307.492725 
L 76.223953 307.492725 
z
" style="fill:#1f77b4;"/>
   </g>
   <g id="patch_278">
    <path clip-path="url(#p85ef4b1f2c)" d="M 76.972075 307.584 
L 81.360721 307.584 
L 81.360721 307.492725 
L 76.972075 307.492725 
z
" style="fill:#1f77b4;"/>
   </g>
   <g id="patch_279">
    <path clip-path="url(#p85ef4b1f2c)" d="M 81.998134 307.584 
L 86.386781 307.584 
L 86.386781 307.492725 
L 81.998134 307.492725 
z
" style="fill:#1f77b4;"/>
   </g>
   <g id="patch_280">
    <path clip-path="url(#p85ef4b1f2c)" d="M 127.219191 307.584 
L 131.607838 307.584 
L 131.607838 307.492725 
L 127.219191 307.492725 
z
" style="fill:#1f77b4;"/>
   </g>
   <g id="patch_281">
    <path clip-path="url(#p85ef4b1f2c)" d="M 111.988063 307.584 
L 116.376709 307.584 
L 116.376709 307.52315 
L 111.988063 307.52315 
z
" style="fill:#1f77b4;"/>
   </g>
   <g id="patch_282">
    <path clip-path="url(#p85ef4b1f2c)" d="M 79.146276 307.584 
L 83.534923 307.584 
L 83.534923 307.431875 
L 79.146276 307.431875 
z
" style="fill:#1f77b4;"/>
   </g>
   <g id="patch_283">
    <path clip-path="url(#p85ef4b1f2c)" d="M 76.859067 307.584 
L 81.247714 307.584 
L 81.247714 307.52315 
L 76.859067 307.52315 
z
" style="fill:#1f77b4;"/>
   </g>
   <g id="patch_284">
    <path clip-path="url(#p85ef4b1f2c)" d="M 75.884211 307.584 
L 80.272858 307.584 
L 80.272858 307.492725 
L 75.884211 307.492725 
z
" style="fill:#1f77b4;"/>
   </g>
   <g id="patch_285">
    <path clip-path="url(#p85ef4b1f2c)" d="M 76.252221 307.584 
L 80.640868 307.584 
L 80.640868 307.52315 
L 76.252221 307.52315 
z
" style="fill:#1f77b4;"/>
   </g>
   <g id="patch_286">
    <path clip-path="url(#p85ef4b1f2c)" d="M 77.306352 307.584 
L 81.694999 307.584 
L 81.694999 307.492725 
L 77.306352 307.492725 
z
" style="fill:#1f77b4;"/>
   </g>
   <g id="patch_287">
    <path clip-path="url(#p85ef4b1f2c)" d="M 91.10688 307.584 
L 95.495527 307.584 
L 95.495527 307.492725 
L 91.10688 307.492725 
z
" style="fill:#1f77b4;"/>
   </g>
   <g id="patch_288">
    <path clip-path="url(#p85ef4b1f2c)" d="M 83.853819 307.584 
L 88.242465 307.584 
L 88.242465 307.52315 
L 83.853819 307.52315 
z
" style="fill:#1f77b4;"/>
   </g>
   <g id="patch_289">
    <path clip-path="url(#p85ef4b1f2c)" d="M 84.109457 307.584 
L 88.498104 307.584 
L 88.498104 307.492725 
L 84.109457 307.492725 
z
" style="fill:#1f77b4;"/>
   </g>
   <g id="patch_290">
    <path clip-path="url(#p85ef4b1f2c)" d="M 82.277087 307.584 
L 86.665734 307.584 
L 86.665734 307.52315 
L 82.277087 307.52315 
z
" style="fill:#1f77b4;"/>
   </g>
   <g id="patch_291">
    <path clip-path="url(#p85ef4b1f2c)" d="M 100.068717 307.584 
L 104.457364 307.584 
L 104.457364 307.492725 
L 100.068717 307.492725 
z
" style="fill:#1f77b4;"/>
   </g>
   <g id="patch_292">
    <path clip-path="url(#p85ef4b1f2c)" d="M 113.348269 307.584 
L 117.736916 307.584 
L 117.736916 307.492725 
L 113.348269 307.492725 
z
" style="fill:#1f77b4;"/>
   </g>
   <g id="patch_293">
    <path clip-path="url(#p85ef4b1f2c)" d="M 97.450395 307.584 
L 101.839042 307.584 
L 101.839042 307.492725 
L 97.450395 307.492725 
z
" style="fill:#1f77b4;"/>
   </g>
   <g id="patch_294">
    <path clip-path="url(#p85ef4b1f2c)" d="M 100.841009 307.584 
L 105.229656 307.584 
L 105.229656 307.492725 
L 100.841009 307.492725 
z
" style="fill:#1f77b4;"/>
   </g>
   <g id="patch_295">
    <path clip-path="url(#p85ef4b1f2c)" d="M 81.729988 307.584 
L 86.118635 307.584 
L 86.118635 307.492725 
L 81.729988 307.492725 
z
" style="fill:#1f77b4;"/>
   </g>
   <g id="patch_296">
    <path clip-path="url(#p85ef4b1f2c)" d="M 103.560763 307.584 
L 107.94941 307.584 
L 107.94941 307.492725 
L 103.560763 307.492725 
z
" style="fill:#1f77b4;"/>
   </g>
   <g id="patch_297">
    <path clip-path="url(#p85ef4b1f2c)" d="M 75.900521 307.584 
L 80.289167 307.584 
L 80.289167 307.492725 
L 75.900521 307.492725 
z
" style="fill:#1f77b4;"/>
   </g>
   <g id="patch_298">
    <path clip-path="url(#p85ef4b1f2c)" d="M 76.188048 307.584 
L 80.576695 307.584 
L 80.576695 307.52315 
L 76.188048 307.52315 
z
" style="fill:#1f77b4;"/>
   </g>
   <g id="patch_299">
    <path clip-path="url(#p85ef4b1f2c)" d="M 74.422243 307.584 
L 78.81089 307.584 
L 78.81089 307.492725 
L 74.422243 307.492725 
z
" style="fill:#1f77b4;"/>
   </g>
   <g id="patch_300">
    <path clip-path="url(#p85ef4b1f2c)" d="M 74.484222 307.584 
L 78.872869 307.584 
L 78.872869 307.492725 
L 74.484222 307.492725 
z
" style="fill:#1f77b4;"/>
   </g>
   <g id="patch_301">
    <path clip-path="url(#p85ef4b1f2c)" d="M 75.032468 307.584 
L 79.421115 307.584 
L 79.421115 307.52315 
L 75.032468 307.52315 
z
" style="fill:#1f77b4;"/>
   </g>
   <g id="patch_302">
    <path clip-path="url(#p85ef4b1f2c)" d="M 74.890731 307.584 
L 79.279378 307.584 
L 79.279378 307.52315 
L 74.890731 307.52315 
z
" style="fill:#1f77b4;"/>
   </g>
   <g id="patch_303">
    <path clip-path="url(#p85ef4b1f2c)" d="M 74.694844 307.584 
L 79.083491 307.584 
L 79.083491 307.52315 
L 74.694844 307.52315 
z
" style="fill:#1f77b4;"/>
   </g>
   <g id="patch_304">
    <path clip-path="url(#p85ef4b1f2c)" d="M 74.972305 307.584 
L 79.360952 307.584 
L 79.360952 307.553575 
L 74.972305 307.553575 
z
" style="fill:#1f77b4;"/>
   </g>
   <g id="patch_305">
    <path clip-path="url(#p85ef4b1f2c)" d="M 76.73969 307.584 
L 81.128337 307.584 
L 81.128337 307.553575 
L 76.73969 307.553575 
z
" style="fill:#1f77b4;"/>
   </g>
   <g id="patch_306">
    <path clip-path="url(#p85ef4b1f2c)" d="M 75.040071 307.584 
L 79.428718 307.584 
L 79.428718 307.553575 
L 75.040071 307.553575 
z
" style="fill:#1f77b4;"/>
   </g>
   <g id="patch_307">
    <path clip-path="url(#p85ef4b1f2c)" d="M 75.065186 307.584 
L 79.453832 307.584 
L 79.453832 307.553575 
L 75.065186 307.553575 
z
" style="fill:#1f77b4;"/>
   </g>
   <g id="patch_308">
    <path clip-path="url(#p85ef4b1f2c)" d="M 75.135486 307.584 
L 79.524133 307.584 
L 79.524133 307.553575 
L 75.135486 307.553575 
z
" style="fill:#1f77b4;"/>
   </g>
   <g id="patch_309">
    <path clip-path="url(#p85ef4b1f2c)" d="M 74.510954 307.584 
L 78.899601 307.584 
L 78.899601 307.553575 
L 74.510954 307.553575 
z
" style="fill:#1f77b4;"/>
   </g>
   <g id="patch_310">
    <path clip-path="url(#p85ef4b1f2c)" d="M 74.512189 307.584 
L 78.900835 307.584 
L 78.900835 307.553575 
L 74.512189 307.553575 
z
" style="fill:#1f77b4;"/>
   </g>
   <g id="patch_311">
    <path clip-path="url(#p85ef4b1f2c)" d="M 77.314532 307.584 
L 81.703179 307.584 
L 81.703179 307.52315 
L 77.314532 307.52315 
z
" style="fill:#1f77b4;"/>
   </g>
   <g id="patch_312">
    <path clip-path="url(#p85ef4b1f2c)" d="M 92.362253 307.584 
L 96.7509 307.584 
L 96.7509 307.553575 
L 92.362253 307.553575 
z
" style="fill:#1f77b4;"/>
   </g>
   <g id="patch_313">
    <path clip-path="url(#p85ef4b1f2c)" d="M 77.741163 307.584 
L 82.12981 307.584 
L 82.12981 307.52315 
L 77.741163 307.52315 
z
" style="fill:#1f77b4;"/>
   </g>
   <g id="patch_314">
    <path clip-path="url(#p85ef4b1f2c)" d="M 78.040205 307.584 
L 82.428852 307.584 
L 82.428852 307.553575 
L 78.040205 307.553575 
z
" style="fill:#1f77b4;"/>
   </g>
   <g id="patch_315">
    <path clip-path="url(#p85ef4b1f2c)" d="M 76.689989 307.584 
L 81.078636 307.584 
L 81.078636 307.553575 
L 76.689989 307.553575 
z
" style="fill:#1f77b4;"/>
   </g>
   <g id="patch_316">
    <path clip-path="url(#p85ef4b1f2c)" d="M 75.528127 307.584 
L 79.916774 307.584 
L 79.916774 307.553575 
L 75.528127 307.553575 
z
" style="fill:#1f77b4;"/>
   </g>
   <g id="patch_317">
    <path clip-path="url(#p85ef4b1f2c)" d="M 75.8366 307.584 
L 80.225247 307.584 
L 80.225247 307.553575 
L 75.8366 307.553575 
z
" style="fill:#1f77b4;"/>
   </g>
   <g id="patch_318">
    <path clip-path="url(#p85ef4b1f2c)" d="M 76.595353 307.584 
L 80.984 307.584 
L 80.984 307.52315 
L 76.595353 307.52315 
z
" style="fill:#1f77b4;"/>
   </g>
   <g id="patch_319">
    <path clip-path="url(#p85ef4b1f2c)" d="M 80.773866 307.584 
L 85.162513 307.584 
L 85.162513 307.553575 
L 80.773866 307.553575 
z
" style="fill:#1f77b4;"/>
   </g>
   <g id="patch_320">
    <path clip-path="url(#p85ef4b1f2c)" d="M 75.633757 307.584 
L 80.022404 307.584 
L 80.022404 307.492725 
L 75.633757 307.492725 
z
" style="fill:#1f77b4;"/>
   </g>
   <g id="patch_321">
    <path clip-path="url(#p85ef4b1f2c)" d="M 76.579121 307.584 
L 80.967768 307.584 
L 80.967768 307.553575 
L 76.579121 307.553575 
z
" style="fill:#1f77b4;"/>
   </g>
   <g id="patch_322">
    <path clip-path="url(#p85ef4b1f2c)" d="M 75.220796 307.584 
L 79.609443 307.584 
L 79.609443 307.553575 
L 75.220796 307.553575 
z
" style="fill:#1f77b4;"/>
   </g>
   <g id="matplotlib.axis_1">
    <g id="xtick_1">
     <g id="line2d_1">
      <defs>
       <path d="M 0 0 
L 0 3.5 
" id="mc51aa4eb90" style="stroke:#000000;stroke-width:0.8;"/>
      </defs>
      <g>
       <use style="stroke:#000000;stroke-width:0.8;" x="76.027051" xlink:href="#mc51aa4eb90" y="307.584"/>
      </g>
     </g>
     <g id="text_1">
      <!-- 0 -->
      <g transform="translate(72.845801 322.182437)scale(0.1 -0.1)">
       <defs>
        <path d="M 31.78125 66.40625 
Q 24.171875 66.40625 20.328125 58.90625 
Q 16.5 51.421875 16.5 36.375 
Q 16.5 21.390625 20.328125 13.890625 
Q 24.171875 6.390625 31.78125 6.390625 
Q 39.453125 6.390625 43.28125 13.890625 
Q 47.125 21.390625 47.125 36.375 
Q 47.125 51.421875 43.28125 58.90625 
Q 39.453125 66.40625 31.78125 66.40625 
z
M 31.78125 74.21875 
Q 44.046875 74.21875 50.515625 64.515625 
Q 56.984375 54.828125 56.984375 36.375 
Q 56.984375 17.96875 50.515625 8.265625 
Q 44.046875 -1.421875 31.78125 -1.421875 
Q 19.53125 -1.421875 13.0625 8.265625 
Q 6.59375 17.96875 6.59375 36.375 
Q 6.59375 54.828125 13.0625 64.515625 
Q 19.53125 74.21875 31.78125 74.21875 
z
" id="DejaVuSans-48"/>
       </defs>
       <use xlink:href="#DejaVuSans-48"/>
      </g>
     </g>
    </g>
    <g id="xtick_2">
     <g id="line2d_2">
      <g>
       <use style="stroke:#000000;stroke-width:0.8;" x="130.885137" xlink:href="#mc51aa4eb90" y="307.584"/>
      </g>
     </g>
     <g id="text_2">
      <!-- 10 -->
      <g transform="translate(124.522637 322.182437)scale(0.1 -0.1)">
       <defs>
        <path d="M 12.40625 8.296875 
L 28.515625 8.296875 
L 28.515625 63.921875 
L 10.984375 60.40625 
L 10.984375 69.390625 
L 28.421875 72.90625 
L 38.28125 72.90625 
L 38.28125 8.296875 
L 54.390625 8.296875 
L 54.390625 0 
L 12.40625 0 
z
" id="DejaVuSans-49"/>
       </defs>
       <use xlink:href="#DejaVuSans-49"/>
       <use x="63.623047" xlink:href="#DejaVuSans-48"/>
      </g>
     </g>
    </g>
    <g id="xtick_3">
     <g id="line2d_3">
      <g>
       <use style="stroke:#000000;stroke-width:0.8;" x="185.743224" xlink:href="#mc51aa4eb90" y="307.584"/>
      </g>
     </g>
     <g id="text_3">
      <!-- 20 -->
      <g transform="translate(179.380724 322.182437)scale(0.1 -0.1)">
       <defs>
        <path d="M 19.1875 8.296875 
L 53.609375 8.296875 
L 53.609375 0 
L 7.328125 0 
L 7.328125 8.296875 
Q 12.9375 14.109375 22.625 23.890625 
Q 32.328125 33.6875 34.8125 36.53125 
Q 39.546875 41.84375 41.421875 45.53125 
Q 43.3125 49.21875 43.3125 52.78125 
Q 43.3125 58.59375 39.234375 62.25 
Q 35.15625 65.921875 28.609375 65.921875 
Q 23.96875 65.921875 18.8125 64.3125 
Q 13.671875 62.703125 7.8125 59.421875 
L 7.8125 69.390625 
Q 13.765625 71.78125 18.9375 73 
Q 24.125 74.21875 28.421875 74.21875 
Q 39.75 74.21875 46.484375 68.546875 
Q 53.21875 62.890625 53.21875 53.421875 
Q 53.21875 48.921875 51.53125 44.890625 
Q 49.859375 40.875 45.40625 35.40625 
Q 44.1875 33.984375 37.640625 27.21875 
Q 31.109375 20.453125 19.1875 8.296875 
z
" id="DejaVuSans-50"/>
       </defs>
       <use xlink:href="#DejaVuSans-50"/>
       <use x="63.623047" xlink:href="#DejaVuSans-48"/>
      </g>
     </g>
    </g>
    <g id="xtick_4">
     <g id="line2d_4">
      <g>
       <use style="stroke:#000000;stroke-width:0.8;" x="240.601311" xlink:href="#mc51aa4eb90" y="307.584"/>
      </g>
     </g>
     <g id="text_4">
      <!-- 30 -->
      <g transform="translate(234.238811 322.182437)scale(0.1 -0.1)">
       <defs>
        <path d="M 40.578125 39.3125 
Q 47.65625 37.796875 51.625 33 
Q 55.609375 28.21875 55.609375 21.1875 
Q 55.609375 10.40625 48.1875 4.484375 
Q 40.765625 -1.421875 27.09375 -1.421875 
Q 22.515625 -1.421875 17.65625 -0.515625 
Q 12.796875 0.390625 7.625 2.203125 
L 7.625 11.71875 
Q 11.71875 9.328125 16.59375 8.109375 
Q 21.484375 6.890625 26.8125 6.890625 
Q 36.078125 6.890625 40.9375 10.546875 
Q 45.796875 14.203125 45.796875 21.1875 
Q 45.796875 27.640625 41.28125 31.265625 
Q 36.765625 34.90625 28.71875 34.90625 
L 20.21875 34.90625 
L 20.21875 43.015625 
L 29.109375 43.015625 
Q 36.375 43.015625 40.234375 45.921875 
Q 44.09375 48.828125 44.09375 54.296875 
Q 44.09375 59.90625 40.109375 62.90625 
Q 36.140625 65.921875 28.71875 65.921875 
Q 24.65625 65.921875 20.015625 65.03125 
Q 15.375 64.15625 9.8125 62.3125 
L 9.8125 71.09375 
Q 15.4375 72.65625 20.34375 73.4375 
Q 25.25 74.21875 29.59375 74.21875 
Q 40.828125 74.21875 47.359375 69.109375 
Q 53.90625 64.015625 53.90625 55.328125 
Q 53.90625 49.265625 50.4375 45.09375 
Q 46.96875 40.921875 40.578125 39.3125 
z
" id="DejaVuSans-51"/>
       </defs>
       <use xlink:href="#DejaVuSans-51"/>
       <use x="63.623047" xlink:href="#DejaVuSans-48"/>
      </g>
     </g>
    </g>
    <g id="xtick_5">
     <g id="line2d_5">
      <g>
       <use style="stroke:#000000;stroke-width:0.8;" x="295.459397" xlink:href="#mc51aa4eb90" y="307.584"/>
      </g>
     </g>
     <g id="text_5">
      <!-- 40 -->
      <g transform="translate(289.096897 322.182437)scale(0.1 -0.1)">
       <defs>
        <path d="M 37.796875 64.3125 
L 12.890625 25.390625 
L 37.796875 25.390625 
z
M 35.203125 72.90625 
L 47.609375 72.90625 
L 47.609375 25.390625 
L 58.015625 25.390625 
L 58.015625 17.1875 
L 47.609375 17.1875 
L 47.609375 0 
L 37.796875 0 
L 37.796875 17.1875 
L 4.890625 17.1875 
L 4.890625 26.703125 
z
" id="DejaVuSans-52"/>
       </defs>
       <use xlink:href="#DejaVuSans-52"/>
       <use x="63.623047" xlink:href="#DejaVuSans-48"/>
      </g>
     </g>
    </g>
    <g id="xtick_6">
     <g id="line2d_6">
      <g>
       <use style="stroke:#000000;stroke-width:0.8;" x="350.317484" xlink:href="#mc51aa4eb90" y="307.584"/>
      </g>
     </g>
     <g id="text_6">
      <!-- 50 -->
      <g transform="translate(343.954984 322.182437)scale(0.1 -0.1)">
       <defs>
        <path d="M 10.796875 72.90625 
L 49.515625 72.90625 
L 49.515625 64.59375 
L 19.828125 64.59375 
L 19.828125 46.734375 
Q 21.96875 47.46875 24.109375 47.828125 
Q 26.265625 48.1875 28.421875 48.1875 
Q 40.625 48.1875 47.75 41.5 
Q 54.890625 34.8125 54.890625 23.390625 
Q 54.890625 11.625 47.5625 5.09375 
Q 40.234375 -1.421875 26.90625 -1.421875 
Q 22.3125 -1.421875 17.546875 -0.640625 
Q 12.796875 0.140625 7.71875 1.703125 
L 7.71875 11.625 
Q 12.109375 9.234375 16.796875 8.0625 
Q 21.484375 6.890625 26.703125 6.890625 
Q 35.15625 6.890625 40.078125 11.328125 
Q 45.015625 15.765625 45.015625 23.390625 
Q 45.015625 31 40.078125 35.4375 
Q 35.15625 39.890625 26.703125 39.890625 
Q 22.75 39.890625 18.8125 39.015625 
Q 14.890625 38.140625 10.796875 36.28125 
z
" id="DejaVuSans-53"/>
       </defs>
       <use xlink:href="#DejaVuSans-53"/>
       <use x="63.623047" xlink:href="#DejaVuSans-48"/>
      </g>
     </g>
    </g>
    <g id="xtick_7">
     <g id="line2d_7">
      <g>
       <use style="stroke:#000000;stroke-width:0.8;" x="405.175571" xlink:href="#mc51aa4eb90" y="307.584"/>
      </g>
     </g>
     <g id="text_7">
      <!-- 60 -->
      <g transform="translate(398.813071 322.182437)scale(0.1 -0.1)">
       <defs>
        <path d="M 33.015625 40.375 
Q 26.375 40.375 22.484375 35.828125 
Q 18.609375 31.296875 18.609375 23.390625 
Q 18.609375 15.53125 22.484375 10.953125 
Q 26.375 6.390625 33.015625 6.390625 
Q 39.65625 6.390625 43.53125 10.953125 
Q 47.40625 15.53125 47.40625 23.390625 
Q 47.40625 31.296875 43.53125 35.828125 
Q 39.65625 40.375 33.015625 40.375 
z
M 52.59375 71.296875 
L 52.59375 62.3125 
Q 48.875 64.0625 45.09375 64.984375 
Q 41.3125 65.921875 37.59375 65.921875 
Q 27.828125 65.921875 22.671875 59.328125 
Q 17.53125 52.734375 16.796875 39.40625 
Q 19.671875 43.65625 24.015625 45.921875 
Q 28.375 48.1875 33.59375 48.1875 
Q 44.578125 48.1875 50.953125 41.515625 
Q 57.328125 34.859375 57.328125 23.390625 
Q 57.328125 12.15625 50.6875 5.359375 
Q 44.046875 -1.421875 33.015625 -1.421875 
Q 20.359375 -1.421875 13.671875 8.265625 
Q 6.984375 17.96875 6.984375 36.375 
Q 6.984375 53.65625 15.1875 63.9375 
Q 23.390625 74.21875 37.203125 74.21875 
Q 40.921875 74.21875 44.703125 73.484375 
Q 48.484375 72.75 52.59375 71.296875 
z
" id="DejaVuSans-54"/>
       </defs>
       <use xlink:href="#DejaVuSans-54"/>
       <use x="63.623047" xlink:href="#DejaVuSans-48"/>
      </g>
     </g>
    </g>
   </g>
   <g id="matplotlib.axis_2">
    <g id="ytick_1">
     <g id="line2d_8">
      <defs>
       <path d="M 0 0 
L -3.5 0 
" id="m19068d8656" style="stroke:#000000;stroke-width:0.8;"/>
      </defs>
      <g>
       <use style="stroke:#000000;stroke-width:0.8;" x="57.6" xlink:href="#m19068d8656" y="307.584"/>
      </g>
     </g>
     <g id="text_8">
      <!-- 0 -->
      <g transform="translate(44.2375 311.383219)scale(0.1 -0.1)">
       <use xlink:href="#DejaVuSans-48"/>
      </g>
     </g>
    </g>
    <g id="ytick_2">
     <g id="line2d_9">
      <g>
       <use style="stroke:#000000;stroke-width:0.8;" x="57.6" xlink:href="#m19068d8656" y="277.15903"/>
      </g>
     </g>
     <g id="text_9">
      <!-- 1000 -->
      <g transform="translate(25.15 280.958249)scale(0.1 -0.1)">
       <use xlink:href="#DejaVuSans-49"/>
       <use x="63.623047" xlink:href="#DejaVuSans-48"/>
       <use x="127.246094" xlink:href="#DejaVuSans-48"/>
       <use x="190.869141" xlink:href="#DejaVuSans-48"/>
      </g>
     </g>
    </g>
    <g id="ytick_3">
     <g id="line2d_10">
      <g>
       <use style="stroke:#000000;stroke-width:0.8;" x="57.6" xlink:href="#m19068d8656" y="246.73406"/>
      </g>
     </g>
     <g id="text_10">
      <!-- 2000 -->
      <g transform="translate(25.15 250.533279)scale(0.1 -0.1)">
       <use xlink:href="#DejaVuSans-50"/>
       <use x="63.623047" xlink:href="#DejaVuSans-48"/>
       <use x="127.246094" xlink:href="#DejaVuSans-48"/>
       <use x="190.869141" xlink:href="#DejaVuSans-48"/>
      </g>
     </g>
    </g>
    <g id="ytick_4">
     <g id="line2d_11">
      <g>
       <use style="stroke:#000000;stroke-width:0.8;" x="57.6" xlink:href="#m19068d8656" y="216.30909"/>
      </g>
     </g>
     <g id="text_11">
      <!-- 3000 -->
      <g transform="translate(25.15 220.108309)scale(0.1 -0.1)">
       <use xlink:href="#DejaVuSans-51"/>
       <use x="63.623047" xlink:href="#DejaVuSans-48"/>
       <use x="127.246094" xlink:href="#DejaVuSans-48"/>
       <use x="190.869141" xlink:href="#DejaVuSans-48"/>
      </g>
     </g>
    </g>
    <g id="ytick_5">
     <g id="line2d_12">
      <g>
       <use style="stroke:#000000;stroke-width:0.8;" x="57.6" xlink:href="#m19068d8656" y="185.88412"/>
      </g>
     </g>
     <g id="text_12">
      <!-- 4000 -->
      <g transform="translate(25.15 189.683339)scale(0.1 -0.1)">
       <use xlink:href="#DejaVuSans-52"/>
       <use x="63.623047" xlink:href="#DejaVuSans-48"/>
       <use x="127.246094" xlink:href="#DejaVuSans-48"/>
       <use x="190.869141" xlink:href="#DejaVuSans-48"/>
      </g>
     </g>
    </g>
    <g id="ytick_6">
     <g id="line2d_13">
      <g>
       <use style="stroke:#000000;stroke-width:0.8;" x="57.6" xlink:href="#m19068d8656" y="155.45915"/>
      </g>
     </g>
     <g id="text_13">
      <!-- 5000 -->
      <g transform="translate(25.15 159.258369)scale(0.1 -0.1)">
       <use xlink:href="#DejaVuSans-53"/>
       <use x="63.623047" xlink:href="#DejaVuSans-48"/>
       <use x="127.246094" xlink:href="#DejaVuSans-48"/>
       <use x="190.869141" xlink:href="#DejaVuSans-48"/>
      </g>
     </g>
    </g>
    <g id="ytick_7">
     <g id="line2d_14">
      <g>
       <use style="stroke:#000000;stroke-width:0.8;" x="57.6" xlink:href="#m19068d8656" y="125.03418"/>
      </g>
     </g>
     <g id="text_14">
      <!-- 6000 -->
      <g transform="translate(25.15 128.833399)scale(0.1 -0.1)">
       <use xlink:href="#DejaVuSans-54"/>
       <use x="63.623047" xlink:href="#DejaVuSans-48"/>
       <use x="127.246094" xlink:href="#DejaVuSans-48"/>
       <use x="190.869141" xlink:href="#DejaVuSans-48"/>
      </g>
     </g>
    </g>
    <g id="ytick_8">
     <g id="line2d_15">
      <g>
       <use style="stroke:#000000;stroke-width:0.8;" x="57.6" xlink:href="#m19068d8656" y="94.60921"/>
      </g>
     </g>
     <g id="text_15">
      <!-- 7000 -->
      <g transform="translate(25.15 98.408429)scale(0.1 -0.1)">
       <defs>
        <path d="M 8.203125 72.90625 
L 55.078125 72.90625 
L 55.078125 68.703125 
L 28.609375 0 
L 18.3125 0 
L 43.21875 64.59375 
L 8.203125 64.59375 
z
" id="DejaVuSans-55"/>
       </defs>
       <use xlink:href="#DejaVuSans-55"/>
       <use x="63.623047" xlink:href="#DejaVuSans-48"/>
       <use x="127.246094" xlink:href="#DejaVuSans-48"/>
       <use x="190.869141" xlink:href="#DejaVuSans-48"/>
      </g>
     </g>
    </g>
    <g id="ytick_9">
     <g id="line2d_16">
      <g>
       <use style="stroke:#000000;stroke-width:0.8;" x="57.6" xlink:href="#m19068d8656" y="64.18424"/>
      </g>
     </g>
     <g id="text_16">
      <!-- 8000 -->
      <g transform="translate(25.15 67.983459)scale(0.1 -0.1)">
       <defs>
        <path d="M 31.78125 34.625 
Q 24.75 34.625 20.71875 30.859375 
Q 16.703125 27.09375 16.703125 20.515625 
Q 16.703125 13.921875 20.71875 10.15625 
Q 24.75 6.390625 31.78125 6.390625 
Q 38.8125 6.390625 42.859375 10.171875 
Q 46.921875 13.96875 46.921875 20.515625 
Q 46.921875 27.09375 42.890625 30.859375 
Q 38.875 34.625 31.78125 34.625 
z
M 21.921875 38.8125 
Q 15.578125 40.375 12.03125 44.71875 
Q 8.5 49.078125 8.5 55.328125 
Q 8.5 64.0625 14.71875 69.140625 
Q 20.953125 74.21875 31.78125 74.21875 
Q 42.671875 74.21875 48.875 69.140625 
Q 55.078125 64.0625 55.078125 55.328125 
Q 55.078125 49.078125 51.53125 44.71875 
Q 48 40.375 41.703125 38.8125 
Q 48.828125 37.15625 52.796875 32.3125 
Q 56.78125 27.484375 56.78125 20.515625 
Q 56.78125 9.90625 50.3125 4.234375 
Q 43.84375 -1.421875 31.78125 -1.421875 
Q 19.734375 -1.421875 13.25 4.234375 
Q 6.78125 9.90625 6.78125 20.515625 
Q 6.78125 27.484375 10.78125 32.3125 
Q 14.796875 37.15625 21.921875 38.8125 
z
M 18.3125 54.390625 
Q 18.3125 48.734375 21.84375 45.5625 
Q 25.390625 42.390625 31.78125 42.390625 
Q 38.140625 42.390625 41.71875 45.5625 
Q 45.3125 48.734375 45.3125 54.390625 
Q 45.3125 60.0625 41.71875 63.234375 
Q 38.140625 66.40625 31.78125 66.40625 
Q 25.390625 66.40625 21.84375 63.234375 
Q 18.3125 60.0625 18.3125 54.390625 
z
" id="DejaVuSans-56"/>
       </defs>
       <use xlink:href="#DejaVuSans-56"/>
       <use x="63.623047" xlink:href="#DejaVuSans-48"/>
       <use x="127.246094" xlink:href="#DejaVuSans-48"/>
       <use x="190.869141" xlink:href="#DejaVuSans-48"/>
      </g>
     </g>
    </g>
   </g>
   <g id="patch_323">
    <path d="M 57.6 307.584 
L 57.6 41.472 
" style="fill:none;stroke:#000000;stroke-linecap:square;stroke-linejoin:miter;stroke-width:0.8;"/>
   </g>
   <g id="patch_324">
    <path d="M 414.72 307.584 
L 414.72 41.472 
" style="fill:none;stroke:#000000;stroke-linecap:square;stroke-linejoin:miter;stroke-width:0.8;"/>
   </g>
   <g id="patch_325">
    <path d="M 57.6 307.584 
L 414.72 307.584 
" style="fill:none;stroke:#000000;stroke-linecap:square;stroke-linejoin:miter;stroke-width:0.8;"/>
   </g>
   <g id="patch_326">
    <path d="M 57.6 41.472 
L 414.72 41.472 
" style="fill:none;stroke:#000000;stroke-linecap:square;stroke-linejoin:miter;stroke-width:0.8;"/>
   </g>
  </g>
 </g>
 <defs>
  <clipPath id="p85ef4b1f2c">
   <rect height="266.112" width="357.12" x="57.6" y="41.472"/>
  </clipPath>
 </defs>
</svg>
