<?xml version="1.0" encoding="utf-8" standalone="no"?>
<!DOCTYPE svg PUBLIC "-//W3C//DTD SVG 1.1//EN"
  "http://www.w3.org/Graphics/SVG/1.1/DTD/svg11.dtd">
<!-- Created with matplotlib (https://matplotlib.org/) -->
<svg height="345.6pt" version="1.1" viewBox="0 0 460.8 345.6" width="460.8pt" xmlns="http://www.w3.org/2000/svg" xmlns:xlink="http://www.w3.org/1999/xlink">
 <metadata>
  <rdf:RDF xmlns:cc="http://creativecommons.org/ns#" xmlns:dc="http://purl.org/dc/elements/1.1/" xmlns:rdf="http://www.w3.org/1999/02/22-rdf-syntax-ns#">
   <cc:Work>
    <dc:type rdf:resource="http://purl.org/dc/dcmitype/StillImage"/>
    <dc:date>2022-07-30T01:06:47.150211</dc:date>
    <dc:format>image/svg+xml</dc:format>
    <dc:creator>
     <cc:Agent>
      <dc:title>Matplotlib v3.3.2, https://matplotlib.org/</dc:title>
     </cc:Agent>
    </dc:creator>
   </cc:Work>
  </rdf:RDF>
 </metadata>
 <defs>
  <style type="text/css">*{stroke-linecap:butt;stroke-linejoin:round;}</style>
 </defs>
 <g id="figure_1">
  <g id="patch_1">
   <path d="M 0 345.6 
L 460.8 345.6 
L 460.8 0 
L 0 0 
z
" style="fill:#ffffff;"/>
  </g>
  <g id="axes_1">
   <g id="patch_2">
    <path d="M 57.6 307.584 
L 414.72 307.584 
L 414.72 41.472 
L 57.6 41.472 
z
" style="fill:#ffffff;"/>
   </g>
   <g id="patch_3">
    <path clip-path="url(#p909ac37fd9)" d="M 278.943932 307.584 
L 289.01074 307.584 
L 289.01074 250.201358 
L 278.943932 250.201358 
z
" style="fill:#1f77b4;"/>
   </g>
   <g id="patch_4">
    <path clip-path="url(#p909ac37fd9)" d="M 297.819197 307.584 
L 307.886004 307.584 
L 307.886004 245.419472 
L 297.819197 245.419472 
z
" style="fill:#1f77b4;"/>
   </g>
   <g id="patch_5">
    <path clip-path="url(#p909ac37fd9)" d="M 294.044144 307.584 
L 304.110951 307.584 
L 304.110951 272.915321 
L 294.044144 272.915321 
z
" style="fill:#1f77b4;"/>
   </g>
   <g id="patch_6">
    <path clip-path="url(#p909ac37fd9)" d="M 271.393827 307.584 
L 281.460634 307.584 
L 281.460634 275.306264 
L 271.393827 275.306264 
z
" style="fill:#1f77b4;"/>
   </g>
   <g id="patch_7">
    <path clip-path="url(#p909ac37fd9)" d="M 256.293615 307.584 
L 266.360423 307.584 
L 266.360423 158.150038 
L 256.293615 158.150038 
z
" style="fill:#1f77b4;"/>
   </g>
   <g id="patch_8">
    <path clip-path="url(#p909ac37fd9)" d="M 238.676702 307.584 
L 248.74351 307.584 
L 248.74351 183.254943 
L 238.676702 183.254943 
z
" style="fill:#1f77b4;"/>
   </g>
   <g id="patch_9">
    <path clip-path="url(#p909ac37fd9)" d="M 223.57649 307.584 
L 233.643298 307.584 
L 233.643298 188.03683 
L 223.57649 188.03683 
z
" style="fill:#1f77b4;"/>
   </g>
   <g id="patch_10">
    <path clip-path="url(#p909ac37fd9)" d="M 203.442875 307.584 
L 213.509683 307.584 
L 213.509683 91.203623 
L 203.442875 91.203623 
z
" style="fill:#1f77b4;"/>
   </g>
   <g id="patch_11">
    <path clip-path="url(#p909ac37fd9)" d="M 199.667822 307.584 
L 209.73463 307.584 
L 209.73463 207.164377 
L 199.667822 207.164377 
z
" style="fill:#1f77b4;"/>
   </g>
   <g id="patch_12">
    <path clip-path="url(#p909ac37fd9)" d="M 185.825962 307.584 
L 195.89277 307.584 
L 195.89277 207.164377 
L 185.825962 207.164377 
z
" style="fill:#1f77b4;"/>
   </g>
   <g id="patch_13">
    <path clip-path="url(#p909ac37fd9)" d="M 187.084313 307.584 
L 197.151121 307.584 
L 197.151121 76.857962 
L 187.084313 76.857962 
z
" style="fill:#1f77b4;"/>
   </g>
   <g id="patch_14">
    <path clip-path="url(#p909ac37fd9)" d="M 174.500803 307.584 
L 184.567611 307.584 
L 184.567611 54.144 
L 174.500803 54.144 
z
" style="fill:#1f77b4;"/>
   </g>
   <g id="patch_15">
    <path clip-path="url(#p909ac37fd9)" d="M 161.917294 307.584 
L 171.984101 307.584 
L 171.984101 190.427774 
L 161.917294 190.427774 
z
" style="fill:#1f77b4;"/>
   </g>
   <g id="patch_16">
    <path clip-path="url(#p909ac37fd9)" d="M 156.88389 307.584 
L 166.950698 307.584 
L 166.950698 129.458717 
L 156.88389 129.458717 
z
" style="fill:#1f77b4;"/>
   </g>
   <g id="patch_17">
    <path clip-path="url(#p909ac37fd9)" d="M 151.850486 307.584 
L 161.917294 307.584 
L 161.917294 106.744755 
L 151.850486 106.744755 
z
" style="fill:#1f77b4;"/>
   </g>
   <g id="patch_18">
    <path clip-path="url(#p909ac37fd9)" d="M 148.075433 307.584 
L 158.142241 307.584 
L 158.142241 113.917585 
L 148.075433 113.917585 
z
" style="fill:#1f77b4;"/>
   </g>
   <g id="patch_19">
    <path clip-path="url(#p909ac37fd9)" d="M 145.558732 307.584 
L 155.625539 307.584 
L 155.625539 142.608906 
L 145.558732 142.608906 
z
" style="fill:#1f77b4;"/>
   </g>
   <g id="patch_20">
    <path clip-path="url(#p909ac37fd9)" d="M 149.333784 307.584 
L 159.400592 307.584 
L 159.400592 144.999849 
L 149.333784 144.999849 
z
" style="fill:#1f77b4;"/>
   </g>
   <g id="patch_21">
    <path clip-path="url(#p909ac37fd9)" d="M 168.209049 307.584 
L 178.275856 307.584 
L 178.275856 144.999849 
L 168.209049 144.999849 
z
" style="fill:#1f77b4;"/>
   </g>
   <g id="patch_22">
    <path clip-path="url(#p909ac37fd9)" d="M 188.342664 307.584 
L 198.409471 307.584 
L 198.409471 142.608906 
L 188.342664 142.608906 
z
" style="fill:#1f77b4;"/>
   </g>
   <g id="patch_23">
    <path clip-path="url(#p909ac37fd9)" d="M 207.217928 307.584 
L 217.284736 307.584 
L 217.284736 119.894943 
L 207.217928 119.894943 
z
" style="fill:#1f77b4;"/>
   </g>
   <g id="patch_24">
    <path clip-path="url(#p909ac37fd9)" d="M 218.543087 307.584 
L 228.609894 307.584 
L 228.609894 219.119094 
L 218.543087 219.119094 
z
" style="fill:#1f77b4;"/>
   </g>
   <g id="patch_25">
    <path clip-path="url(#p909ac37fd9)" d="M 216.026385 307.584 
L 226.093192 307.584 
L 226.093192 127.067774 
L 216.026385 127.067774 
z
" style="fill:#1f77b4;"/>
   </g>
   <g id="patch_26">
    <path clip-path="url(#p909ac37fd9)" d="M 229.868245 307.584 
L 239.935053 307.584 
L 239.935053 172.495698 
L 229.868245 172.495698 
z
" style="fill:#1f77b4;"/>
   </g>
   <g id="patch_27">
    <path clip-path="url(#p909ac37fd9)" d="M 246.226808 307.584 
L 256.293615 307.584 
L 256.293615 195.20966 
L 246.226808 195.20966 
z
" style="fill:#1f77b4;"/>
   </g>
   <g id="patch_28">
    <path clip-path="url(#p909ac37fd9)" d="M 262.58537 307.584 
L 272.652178 307.584 
L 272.652178 174.886642 
L 262.58537 174.886642 
z
" style="fill:#1f77b4;"/>
   </g>
   <g id="patch_29">
    <path clip-path="url(#p909ac37fd9)" d="M 257.551966 307.584 
L 267.618774 307.584 
L 267.618774 226.291925 
L 257.551966 226.291925 
z
" style="fill:#1f77b4;"/>
   </g>
   <g id="patch_30">
    <path clip-path="url(#p909ac37fd9)" d="M 261.327019 307.584 
L 271.393827 307.584 
L 271.393827 227.487396 
L 261.327019 227.487396 
z
" style="fill:#1f77b4;"/>
   </g>
   <g id="patch_31">
    <path clip-path="url(#p909ac37fd9)" d="M 275.168879 307.584 
L 285.235687 307.584 
L 285.235687 170.104755 
L 275.168879 170.104755 
z
" style="fill:#1f77b4;"/>
   </g>
   <g id="patch_32">
    <path clip-path="url(#p909ac37fd9)" d="M 267.618774 307.584 
L 277.685581 307.584 
L 277.685581 251.39683 
L 267.618774 251.39683 
z
" style="fill:#1f77b4;"/>
   </g>
   <g id="patch_33">
    <path clip-path="url(#p909ac37fd9)" d="M 281.460634 307.584 
L 291.527442 307.584 
L 291.527442 213.141736 
L 281.460634 213.141736 
z
" style="fill:#1f77b4;"/>
   </g>
   <g id="patch_34">
    <path clip-path="url(#p909ac37fd9)" d="M 287.752389 307.584 
L 297.819197 307.584 
L 297.819197 208.359849 
L 287.752389 208.359849 
z
" style="fill:#1f77b4;"/>
   </g>
   <g id="patch_35">
    <path clip-path="url(#p909ac37fd9)" d="M 263.843721 307.584 
L 273.910529 307.584 
L 273.910529 182.059472 
L 263.843721 182.059472 
z
" style="fill:#1f77b4;"/>
   </g>
   <g id="patch_36">
    <path clip-path="url(#p909ac37fd9)" d="M 250.00186 307.584 
L 260.068668 307.584 
L 260.068668 148.586264 
L 250.00186 148.586264 
z
" style="fill:#1f77b4;"/>
   </g>
   <g id="patch_37">
    <path clip-path="url(#p909ac37fd9)" d="M 231.126596 307.584 
L 241.193404 307.584 
L 241.193404 208.359849 
L 231.126596 208.359849 
z
" style="fill:#1f77b4;"/>
   </g>
   <g id="patch_38">
    <path clip-path="url(#p909ac37fd9)" d="M 217.284736 307.584 
L 227.351543 307.584 
L 227.351543 216.728151 
L 217.284736 216.728151 
z
" style="fill:#1f77b4;"/>
   </g>
   <g id="patch_39">
    <path clip-path="url(#p909ac37fd9)" d="M 237.418351 307.584 
L 247.485159 307.584 
L 247.485159 133.045132 
L 237.418351 133.045132 
z
" style="fill:#1f77b4;"/>
   </g>
   <g id="patch_40">
    <path clip-path="url(#p909ac37fd9)" d="M 209.73463 307.584 
L 219.801438 307.584 
L 219.801438 159.345509 
L 209.73463 159.345509 
z
" style="fill:#1f77b4;"/>
   </g>
   <g id="patch_41">
    <path clip-path="url(#p909ac37fd9)" d="M 212.251332 307.584 
L 222.31814 307.584 
L 222.31814 113.917585 
L 212.251332 113.917585 
z
" style="fill:#1f77b4;"/>
   </g>
   <g id="patch_42">
    <path clip-path="url(#p909ac37fd9)" d="M 198.409471 307.584 
L 208.476279 307.584 
L 208.476279 78.053434 
L 198.409471 78.053434 
z
" style="fill:#1f77b4;"/>
   </g>
   <g id="patch_43">
    <path clip-path="url(#p909ac37fd9)" d="M 190.859366 307.584 
L 200.926173 307.584 
L 200.926173 154.563623 
L 190.859366 154.563623 
z
" style="fill:#1f77b4;"/>
   </g>
   <g id="patch_44">
    <path clip-path="url(#p909ac37fd9)" d="M 184.567611 307.584 
L 194.634419 307.584 
L 194.634419 107.940226 
L 184.567611 107.940226 
z
" style="fill:#1f77b4;"/>
   </g>
   <g id="patch_45">
    <path clip-path="url(#p909ac37fd9)" d="M 180.792558 307.584 
L 190.859366 307.584 
L 190.859366 110.33117 
L 180.792558 110.33117 
z
" style="fill:#1f77b4;"/>
   </g>
   <g id="patch_46">
    <path clip-path="url(#p909ac37fd9)" d="M 179.534207 307.584 
L 189.601015 307.584 
L 189.601015 198.796075 
L 179.534207 198.796075 
z
" style="fill:#1f77b4;"/>
   </g>
   <g id="patch_47">
    <path clip-path="url(#p909ac37fd9)" d="M 194.634419 307.584 
L 204.701226 307.584 
L 204.701226 153.368151 
L 194.634419 153.368151 
z
" style="fill:#1f77b4;"/>
   </g>
   <g id="patch_48">
    <path clip-path="url(#p909ac37fd9)" d="M 224.834841 307.584 
L 234.901649 307.584 
L 234.901649 173.69117 
L 224.834841 173.69117 
z
" style="fill:#1f77b4;"/>
   </g>
   <g id="patch_49">
    <path clip-path="url(#p909ac37fd9)" d="M 252.518562 307.584 
L 262.58537 307.584 
L 262.58537 147.390792 
L 252.518562 147.390792 
z
" style="fill:#1f77b4;"/>
   </g>
   <g id="patch_50">
    <path clip-path="url(#p909ac37fd9)" d="M 276.42723 307.584 
L 286.494038 307.584 
L 286.494038 209.555321 
L 276.42723 209.555321 
z
" style="fill:#1f77b4;"/>
   </g>
   <g id="patch_51">
    <path clip-path="url(#p909ac37fd9)" d="M 291.527442 307.584 
L 301.594249 307.584 
L 301.594249 234.660226 
L 291.527442 234.660226 
z
" style="fill:#1f77b4;"/>
   </g>
   <g id="patch_52">
    <path clip-path="url(#p909ac37fd9)" d="M 300.335899 307.584 
L 310.402706 307.584 
L 310.402706 271.719849 
L 300.335899 271.719849 
z
" style="fill:#1f77b4;"/>
   </g>
   <g id="patch_53">
    <path clip-path="url(#p909ac37fd9)" d="M 315.43611 307.584 
L 325.502918 307.584 
L 325.502918 271.719849 
L 315.43611 271.719849 
z
" style="fill:#1f77b4;"/>
   </g>
   <g id="patch_54">
    <path clip-path="url(#p909ac37fd9)" d="M 344.378182 307.584 
L 354.444989 307.584 
L 354.444989 295.629283 
L 344.378182 295.629283 
z
" style="fill:#1f77b4;"/>
   </g>
   <g id="patch_55">
    <path clip-path="url(#p909ac37fd9)" d="M 349.411586 307.584 
L 359.478393 307.584 
L 359.478393 292.042868 
L 349.411586 292.042868 
z
" style="fill:#1f77b4;"/>
   </g>
   <g id="patch_56">
    <path clip-path="url(#p909ac37fd9)" d="M 335.569725 307.584 
L 345.636533 307.584 
L 345.636533 258.56966 
L 335.569725 258.56966 
z
" style="fill:#1f77b4;"/>
   </g>
   <g id="patch_57">
    <path clip-path="url(#p909ac37fd9)" d="M 363.253446 307.584 
L 373.320254 307.584 
L 373.320254 302.802113 
L 363.253446 302.802113 
z
" style="fill:#1f77b4;"/>
   </g>
   <g id="patch_58">
    <path clip-path="url(#p909ac37fd9)" d="M 329.27797 307.584 
L 339.344778 307.584 
L 339.344778 283.674566 
L 329.27797 283.674566 
z
" style="fill:#1f77b4;"/>
   </g>
   <g id="patch_59">
    <path clip-path="url(#p909ac37fd9)" d="M 325.502918 307.584 
L 335.569725 307.584 
L 335.569725 293.23834 
L 325.502918 293.23834 
z
" style="fill:#1f77b4;"/>
   </g>
   <g id="patch_60">
    <path clip-path="url(#p909ac37fd9)" d="M 350.669937 307.584 
L 360.736744 307.584 
L 360.736744 301.606642 
L 350.669937 301.606642 
z
" style="fill:#1f77b4;"/>
   </g>
   <g id="patch_61">
    <path clip-path="url(#p909ac37fd9)" d="M 305.369302 307.584 
L 315.43611 307.584 
L 315.43611 272.915321 
L 305.369302 272.915321 
z
" style="fill:#1f77b4;"/>
   </g>
   <g id="patch_62">
    <path clip-path="url(#p909ac37fd9)" d="M 282.718985 307.584 
L 292.785793 307.584 
L 292.785793 294.433811 
L 282.718985 294.433811 
z
" style="fill:#1f77b4;"/>
   </g>
   <g id="patch_63">
    <path clip-path="url(#p909ac37fd9)" d="M 236.16 307.584 
L 246.226808 307.584 
L 246.226808 185.645887 
L 236.16 185.645887 
z
" style="fill:#1f77b4;"/>
   </g>
   <g id="patch_64">
    <path clip-path="url(#p909ac37fd9)" d="M 213.509683 307.584 
L 223.57649 307.584 
L 223.57649 136.631547 
L 213.509683 136.631547 
z
" style="fill:#1f77b4;"/>
   </g>
   <g id="patch_65">
    <path clip-path="url(#p909ac37fd9)" d="M 200.926173 307.584 
L 210.992981 307.584 
L 210.992981 143.804377 
L 200.926173 143.804377 
z
" style="fill:#1f77b4;"/>
   </g>
   <g id="patch_66">
    <path clip-path="url(#p909ac37fd9)" d="M 208.476279 307.584 
L 218.543087 307.584 
L 218.543087 95.985509 
L 208.476279 95.985509 
z
" style="fill:#1f77b4;"/>
   </g>
   <g id="patch_67">
    <path clip-path="url(#p909ac37fd9)" d="M 210.992981 307.584 
L 221.059789 307.584 
L 221.059789 139.022491 
L 210.992981 139.022491 
z
" style="fill:#1f77b4;"/>
   </g>
   <g id="patch_68">
    <path clip-path="url(#p909ac37fd9)" d="M 214.768034 307.584 
L 224.834841 307.584 
L 224.834841 107.940226 
L 214.768034 107.940226 
z
" style="fill:#1f77b4;"/>
   </g>
   <g id="patch_69">
    <path clip-path="url(#p909ac37fd9)" d="M 243.710106 307.584 
L 253.776913 307.584 
L 253.776913 153.368151 
L 243.710106 153.368151 
z
" style="fill:#1f77b4;"/>
   </g>
   <g id="patch_70">
    <path clip-path="url(#p909ac37fd9)" d="M 265.102072 307.584 
L 275.168879 307.584 
L 275.168879 256.178717 
L 265.102072 256.178717 
z
" style="fill:#1f77b4;"/>
   </g>
   <g id="patch_71">
    <path clip-path="url(#p909ac37fd9)" d="M 280.202283 307.584 
L 290.269091 307.584 
L 290.269091 229.87834 
L 280.202283 229.87834 
z
" style="fill:#1f77b4;"/>
   </g>
   <g id="patch_72">
    <path clip-path="url(#p909ac37fd9)" d="M 295.302495 307.584 
L 305.369302 307.584 
L 305.369302 247.810415 
L 295.302495 247.810415 
z
" style="fill:#1f77b4;"/>
   </g>
   <g id="patch_73">
    <path clip-path="url(#p909ac37fd9)" d="M 296.560846 307.584 
L 306.627653 307.584 
L 306.627653 278.892679 
L 296.560846 278.892679 
z
" style="fill:#1f77b4;"/>
   </g>
   <g id="patch_74">
    <path clip-path="url(#p909ac37fd9)" d="M 266.360423 307.584 
L 276.42723 307.584 
L 276.42723 252.592302 
L 266.360423 252.592302 
z
" style="fill:#1f77b4;"/>
   </g>
   <g id="patch_75">
    <path clip-path="url(#p909ac37fd9)" d="M 268.877125 307.584 
L 278.943932 307.584 
L 278.943932 211.946264 
L 268.877125 211.946264 
z
" style="fill:#1f77b4;"/>
   </g>
   <g id="patch_76">
    <path clip-path="url(#p909ac37fd9)" d="M 283.977336 307.584 
L 294.044144 307.584 
L 294.044144 226.291925 
L 283.977336 226.291925 
z
" style="fill:#1f77b4;"/>
   </g>
   <g id="patch_77">
    <path clip-path="url(#p909ac37fd9)" d="M 299.077548 307.584 
L 309.144355 307.584 
L 309.144355 269.328906 
L 299.077548 269.328906 
z
" style="fill:#1f77b4;"/>
   </g>
   <g id="patch_78">
    <path clip-path="url(#p909ac37fd9)" d="M 260.068668 307.584 
L 270.135476 307.584 
L 270.135476 186.841358 
L 260.068668 186.841358 
z
" style="fill:#1f77b4;"/>
   </g>
   <g id="patch_79">
    <path clip-path="url(#p909ac37fd9)" d="M 251.260211 307.584 
L 261.327019 307.584 
L 261.327019 227.487396 
L 251.260211 227.487396 
z
" style="fill:#1f77b4;"/>
   </g>
   <g id="patch_80">
    <path clip-path="url(#p909ac37fd9)" d="M 232.384947 307.584 
L 242.451755 307.584 
L 242.451755 122.285887 
L 232.384947 122.285887 
z
" style="fill:#1f77b4;"/>
   </g>
   <g id="patch_81">
    <path clip-path="url(#p909ac37fd9)" d="M 182.050909 307.584 
L 192.117717 307.584 
L 192.117717 148.586264 
L 182.050909 148.586264 
z
" style="fill:#1f77b4;"/>
   </g>
   <g id="patch_82">
    <path clip-path="url(#p909ac37fd9)" d="M 166.950698 307.584 
L 177.017505 307.584 
L 177.017505 202.382491 
L 166.950698 202.382491 
z
" style="fill:#1f77b4;"/>
   </g>
   <g id="patch_83">
    <path clip-path="url(#p909ac37fd9)" d="M 135.491924 307.584 
L 145.558732 307.584 
L 145.558732 160.540981 
L 135.491924 160.540981 
z
" style="fill:#1f77b4;"/>
   </g>
   <g id="patch_84">
    <path clip-path="url(#p909ac37fd9)" d="M 129.200169 307.584 
L 139.266977 307.584 
L 139.266977 198.796075 
L 129.200169 198.796075 
z
" style="fill:#1f77b4;"/>
   </g>
   <g id="patch_85">
    <path clip-path="url(#p909ac37fd9)" d="M 121.650063 307.584 
L 131.716871 307.584 
L 131.716871 158.150038 
L 121.650063 158.150038 
z
" style="fill:#1f77b4;"/>
   </g>
   <g id="patch_86">
    <path clip-path="url(#p909ac37fd9)" d="M 116.61666 307.584 
L 126.683467 307.584 
L 126.683467 270.524377 
L 116.61666 270.524377 
z
" style="fill:#1f77b4;"/>
   </g>
   <g id="patch_87">
    <path clip-path="url(#p909ac37fd9)" d="M 119.133362 307.584 
L 129.200169 307.584 
L 129.200169 215.532679 
L 119.133362 215.532679 
z
" style="fill:#1f77b4;"/>
   </g>
   <g id="patch_88">
    <path clip-path="url(#p909ac37fd9)" d="M 117.875011 307.584 
L 127.941818 307.584 
L 127.941818 205.968906 
L 117.875011 205.968906 
z
" style="fill:#1f77b4;"/>
   </g>
   <g id="patch_89">
    <path clip-path="url(#p909ac37fd9)" d="M 138.008626 307.584 
L 148.075433 307.584 
L 148.075433 144.999849 
L 138.008626 144.999849 
z
" style="fill:#1f77b4;"/>
   </g>
   <g id="patch_90">
    <path clip-path="url(#p909ac37fd9)" d="M 159.400592 307.584 
L 169.4674 307.584 
L 169.4674 214.337208 
L 159.400592 214.337208 
z
" style="fill:#1f77b4;"/>
   </g>
   <g id="patch_91">
    <path clip-path="url(#p909ac37fd9)" d="M 178.275856 307.584 
L 188.342664 307.584 
L 188.342664 173.69117 
L 178.275856 173.69117 
z
" style="fill:#1f77b4;"/>
   </g>
   <g id="patch_92">
    <path clip-path="url(#p909ac37fd9)" d="M 221.059789 307.584 
L 231.126596 307.584 
L 231.126596 142.608906 
L 221.059789 142.608906 
z
" style="fill:#1f77b4;"/>
   </g>
   <g id="patch_93">
    <path clip-path="url(#p909ac37fd9)" d="M 241.193404 307.584 
L 251.260211 307.584 
L 251.260211 154.563623 
L 241.193404 154.563623 
z
" style="fill:#1f77b4;"/>
   </g>
   <g id="patch_94">
    <path clip-path="url(#p909ac37fd9)" d="M 234.901649 307.584 
L 244.968457 307.584 
L 244.968457 153.368151 
L 234.901649 153.368151 
z
" style="fill:#1f77b4;"/>
   </g>
   <g id="patch_95">
    <path clip-path="url(#p909ac37fd9)" d="M 204.701226 307.584 
L 214.768034 307.584 
L 214.768034 176.082113 
L 204.701226 176.082113 
z
" style="fill:#1f77b4;"/>
   </g>
   <g id="patch_96">
    <path clip-path="url(#p909ac37fd9)" d="M 169.4674 307.584 
L 179.534207 307.584 
L 179.534207 165.322868 
L 169.4674 165.322868 
z
" style="fill:#1f77b4;"/>
   </g>
   <g id="patch_97">
    <path clip-path="url(#p909ac37fd9)" d="M 163.175645 307.584 
L 173.242452 307.584 
L 173.242452 103.15834 
L 163.175645 103.15834 
z
" style="fill:#1f77b4;"/>
   </g>
   <g id="patch_98">
    <path clip-path="url(#p909ac37fd9)" d="M 154.367188 307.584 
L 164.433996 307.584 
L 164.433996 196.405132 
L 154.367188 196.405132 
z
" style="fill:#1f77b4;"/>
   </g>
   <g id="patch_99">
    <path clip-path="url(#p909ac37fd9)" d="M 127.941818 307.584 
L 138.008626 307.584 
L 138.008626 180.864 
L 127.941818 180.864 
z
" style="fill:#1f77b4;"/>
   </g>
   <g id="patch_100">
    <path clip-path="url(#p909ac37fd9)" d="M 122.908414 307.584 
L 132.975222 307.584 
L 132.975222 227.487396 
L 122.908414 227.487396 
z
" style="fill:#1f77b4;"/>
   </g>
   <g id="patch_101">
    <path clip-path="url(#p909ac37fd9)" d="M 132.975222 307.584 
L 143.04203 307.584 
L 143.04203 208.359849 
L 132.975222 208.359849 
z
" style="fill:#1f77b4;"/>
   </g>
   <g id="patch_102">
    <path clip-path="url(#p909ac37fd9)" d="M 124.166765 307.584 
L 134.233573 307.584 
L 134.233573 234.660226 
L 124.166765 234.660226 
z
" style="fill:#1f77b4;"/>
   </g>
   <g id="patch_103">
    <path clip-path="url(#p909ac37fd9)" d="M 136.750275 307.584 
L 146.817082 307.584 
L 146.817082 137.827019 
L 136.750275 137.827019 
z
" style="fill:#1f77b4;"/>
   </g>
   <g id="patch_104">
    <path clip-path="url(#p909ac37fd9)" d="M 146.817082 307.584 
L 156.88389 307.584 
L 156.88389 152.172679 
L 146.817082 152.172679 
z
" style="fill:#1f77b4;"/>
   </g>
   <g id="patch_105">
    <path clip-path="url(#p909ac37fd9)" d="M 153.108837 307.584 
L 163.175645 307.584 
L 163.175645 207.164377 
L 153.108837 207.164377 
z
" style="fill:#1f77b4;"/>
   </g>
   <g id="patch_106">
    <path clip-path="url(#p909ac37fd9)" d="M 165.692347 307.584 
L 175.759154 307.584 
L 175.759154 150.977208 
L 165.692347 150.977208 
z
" style="fill:#1f77b4;"/>
   </g>
   <g id="patch_107">
    <path clip-path="url(#p909ac37fd9)" d="M 197.151121 307.584 
L 207.217928 307.584 
L 207.217928 192.818717 
L 197.151121 192.818717 
z
" style="fill:#1f77b4;"/>
   </g>
   <g id="patch_108">
    <path clip-path="url(#p909ac37fd9)" d="M 219.801438 307.584 
L 229.868245 307.584 
L 229.868245 115.113057 
L 219.801438 115.113057 
z
" style="fill:#1f77b4;"/>
   </g>
   <g id="patch_109">
    <path clip-path="url(#p909ac37fd9)" d="M 193.376068 307.584 
L 203.442875 307.584 
L 203.442875 92.399094 
L 193.376068 92.399094 
z
" style="fill:#1f77b4;"/>
   </g>
   <g id="patch_110">
    <path clip-path="url(#p909ac37fd9)" d="M 120.391712 307.584 
L 130.45852 307.584 
L 130.45852 226.291925 
L 120.391712 226.291925 
z
" style="fill:#1f77b4;"/>
   </g>
   <g id="patch_111">
    <path clip-path="url(#p909ac37fd9)" d="M 107.808203 307.584 
L 117.875011 307.584 
L 117.875011 254.983245 
L 107.808203 254.983245 
z
" style="fill:#1f77b4;"/>
   </g>
   <g id="patch_112">
    <path clip-path="url(#p909ac37fd9)" d="M 111.583256 307.584 
L 121.650063 307.584 
L 121.650063 239.442113 
L 111.583256 239.442113 
z
" style="fill:#1f77b4;"/>
   </g>
   <g id="patch_113">
    <path clip-path="url(#p909ac37fd9)" d="M 102.774799 307.584 
L 112.841607 307.584 
L 112.841607 222.705509 
L 102.774799 222.705509 
z
" style="fill:#1f77b4;"/>
   </g>
   <g id="patch_114">
    <path clip-path="url(#p909ac37fd9)" d="M 100.258097 307.584 
L 110.324905 307.584 
L 110.324905 243.028528 
L 100.258097 243.028528 
z
" style="fill:#1f77b4;"/>
   </g>
   <g id="patch_115">
    <path clip-path="url(#p909ac37fd9)" d="M 96.483044 307.584 
L 106.549852 307.584 
L 106.549852 202.382491 
L 96.483044 202.382491 
z
" style="fill:#1f77b4;"/>
   </g>
   <g id="patch_116">
    <path clip-path="url(#p909ac37fd9)" d="M 92.707992 307.584 
L 102.774799 307.584 
L 102.774799 271.719849 
L 92.707992 271.719849 
z
" style="fill:#1f77b4;"/>
   </g>
   <g id="patch_117">
    <path clip-path="url(#p909ac37fd9)" d="M 98.999746 307.584 
L 109.066554 307.584 
L 109.066554 268.133434 
L 98.999746 268.133434 
z
" style="fill:#1f77b4;"/>
   </g>
   <g id="patch_118">
    <path clip-path="url(#p909ac37fd9)" d="M 139.266977 307.584 
L 149.333784 307.584 
L 149.333784 171.300226 
L 139.266977 171.300226 
z
" style="fill:#1f77b4;"/>
   </g>
   <g id="patch_119">
    <path clip-path="url(#p909ac37fd9)" d="M 183.30926 307.584 
L 193.376068 307.584 
L 193.376068 174.886642 
L 183.30926 174.886642 
z
" style="fill:#1f77b4;"/>
   </g>
   <g id="patch_120">
    <path clip-path="url(#p909ac37fd9)" d="M 239.935053 307.584 
L 250.00186 307.584 
L 250.00186 184.450415 
L 239.935053 184.450415 
z
" style="fill:#1f77b4;"/>
   </g>
   <g id="patch_121">
    <path clip-path="url(#p909ac37fd9)" d="M 242.451755 307.584 
L 252.518562 307.584 
L 252.518562 211.946264 
L 242.451755 211.946264 
z
" style="fill:#1f77b4;"/>
   </g>
   <g id="patch_122">
    <path clip-path="url(#p909ac37fd9)" d="M 155.625539 307.584 
L 165.692347 307.584 
L 165.692347 142.608906 
L 155.625539 142.608906 
z
" style="fill:#1f77b4;"/>
   </g>
   <g id="patch_123">
    <path clip-path="url(#p909ac37fd9)" d="M 143.04203 307.584 
L 153.108837 307.584 
L 153.108837 117.504 
L 143.04203 117.504 
z
" style="fill:#1f77b4;"/>
   </g>
   <g id="patch_124">
    <path clip-path="url(#p909ac37fd9)" d="M 150.592135 307.584 
L 160.658943 307.584 
L 160.658943 231.073811 
L 150.592135 231.073811 
z
" style="fill:#1f77b4;"/>
   </g>
   <g id="patch_125">
    <path clip-path="url(#p909ac37fd9)" d="M 247.485159 307.584 
L 257.551966 307.584 
L 257.551966 202.382491 
L 247.485159 202.382491 
z
" style="fill:#1f77b4;"/>
   </g>
   <g id="patch_126">
    <path clip-path="url(#p909ac37fd9)" d="M 258.810317 307.584 
L 268.877125 307.584 
L 268.877125 186.841358 
L 258.810317 186.841358 
z
" style="fill:#1f77b4;"/>
   </g>
   <g id="patch_127">
    <path clip-path="url(#p909ac37fd9)" d="M 270.135476 307.584 
L 280.202283 307.584 
L 280.202283 250.201358 
L 270.135476 250.201358 
z
" style="fill:#1f77b4;"/>
   </g>
   <g id="patch_128">
    <path clip-path="url(#p909ac37fd9)" d="M 272.652178 307.584 
L 282.718985 307.584 
L 282.718985 274.110792 
L 272.652178 274.110792 
z
" style="fill:#1f77b4;"/>
   </g>
   <g id="patch_129">
    <path clip-path="url(#p909ac37fd9)" d="M 227.351543 307.584 
L 237.418351 307.584 
L 237.418351 106.744755 
L 227.351543 106.744755 
z
" style="fill:#1f77b4;"/>
   </g>
   <g id="patch_130">
    <path clip-path="url(#p909ac37fd9)" d="M 277.685581 307.584 
L 287.752389 307.584 
L 287.752389 282.479094 
L 277.685581 282.479094 
z
" style="fill:#1f77b4;"/>
   </g>
   <g id="patch_131">
    <path clip-path="url(#p909ac37fd9)" d="M 226.093192 307.584 
L 236.16 307.584 
L 236.16 229.87834 
L 226.093192 229.87834 
z
" style="fill:#1f77b4;"/>
   </g>
   <g id="patch_132">
    <path clip-path="url(#p909ac37fd9)" d="M 171.984101 307.584 
L 182.050909 307.584 
L 182.050909 205.968906 
L 171.984101 205.968906 
z
" style="fill:#1f77b4;"/>
   </g>
   <g id="patch_133">
    <path clip-path="url(#p909ac37fd9)" d="M 158.142241 307.584 
L 168.209049 307.584 
L 168.209049 176.082113 
L 158.142241 176.082113 
z
" style="fill:#1f77b4;"/>
   </g>
   <g id="patch_134">
    <path clip-path="url(#p909ac37fd9)" d="M 144.300381 307.584 
L 154.367188 307.584 
L 154.367188 125.872302 
L 144.300381 125.872302 
z
" style="fill:#1f77b4;"/>
   </g>
   <g id="patch_135">
    <path clip-path="url(#p909ac37fd9)" d="M 164.433996 307.584 
L 174.500803 307.584 
L 174.500803 220.314566 
L 164.433996 220.314566 
z
" style="fill:#1f77b4;"/>
   </g>
   <g id="patch_136">
    <path clip-path="url(#p909ac37fd9)" d="M 192.117717 307.584 
L 202.184524 307.584 
L 202.184524 216.728151 
L 192.117717 216.728151 
z
" style="fill:#1f77b4;"/>
   </g>
   <g id="patch_137">
    <path clip-path="url(#p909ac37fd9)" d="M 202.184524 307.584 
L 212.251332 307.584 
L 212.251332 64.903245 
L 202.184524 64.903245 
z
" style="fill:#1f77b4;"/>
   </g>
   <g id="patch_138">
    <path clip-path="url(#p909ac37fd9)" d="M 177.017505 307.584 
L 187.084313 307.584 
L 187.084313 195.20966 
L 177.017505 195.20966 
z
" style="fill:#1f77b4;"/>
   </g>
   <g id="patch_139">
    <path clip-path="url(#p909ac37fd9)" d="M 126.683467 307.584 
L 136.750275 307.584 
L 136.750275 159.345509 
L 126.683467 159.345509 
z
" style="fill:#1f77b4;"/>
   </g>
   <g id="patch_140">
    <path clip-path="url(#p909ac37fd9)" d="M 114.099958 307.584 
L 124.166765 307.584 
L 124.166765 246.614943 
L 114.099958 246.614943 
z
" style="fill:#1f77b4;"/>
   </g>
   <g id="patch_141">
    <path clip-path="url(#p909ac37fd9)" d="M 109.066554 307.584 
L 119.133362 307.584 
L 119.133362 231.073811 
L 109.066554 231.073811 
z
" style="fill:#1f77b4;"/>
   </g>
   <g id="patch_142">
    <path clip-path="url(#p909ac37fd9)" d="M 105.291501 307.584 
L 115.358309 307.584 
L 115.358309 203.577962 
L 105.291501 203.577962 
z
" style="fill:#1f77b4;"/>
   </g>
   <g id="patch_143">
    <path clip-path="url(#p909ac37fd9)" d="M 205.959577 307.584 
L 216.026385 307.584 
L 216.026385 142.608906 
L 205.959577 142.608906 
z
" style="fill:#1f77b4;"/>
   </g>
   <g id="patch_144">
    <path clip-path="url(#p909ac37fd9)" d="M 170.725751 307.584 
L 180.792558 307.584 
L 180.792558 215.532679 
L 170.725751 215.532679 
z
" style="fill:#1f77b4;"/>
   </g>
   <g id="patch_145">
    <path clip-path="url(#p909ac37fd9)" d="M 195.89277 307.584 
L 205.959577 307.584 
L 205.959577 254.983245 
L 195.89277 254.983245 
z
" style="fill:#1f77b4;"/>
   </g>
   <g id="patch_146">
    <path clip-path="url(#p909ac37fd9)" d="M 189.601015 307.584 
L 199.667822 307.584 
L 199.667822 215.532679 
L 189.601015 215.532679 
z
" style="fill:#1f77b4;"/>
   </g>
   <g id="patch_147">
    <path clip-path="url(#p909ac37fd9)" d="M 140.525328 307.584 
L 150.592135 307.584 
L 150.592135 182.059472 
L 140.525328 182.059472 
z
" style="fill:#1f77b4;"/>
   </g>
   <g id="patch_148">
    <path clip-path="url(#p909ac37fd9)" d="M 141.783679 307.584 
L 151.850486 307.584 
L 151.850486 225.096453 
L 141.783679 225.096453 
z
" style="fill:#1f77b4;"/>
   </g>
   <g id="patch_149">
    <path clip-path="url(#p909ac37fd9)" d="M 175.759154 307.584 
L 185.825962 307.584 
L 185.825962 153.368151 
L 175.759154 153.368151 
z
" style="fill:#1f77b4;"/>
   </g>
   <g id="patch_150">
    <path clip-path="url(#p909ac37fd9)" d="M 173.242452 307.584 
L 183.30926 307.584 
L 183.30926 220.314566 
L 173.242452 220.314566 
z
" style="fill:#1f77b4;"/>
   </g>
   <g id="patch_151">
    <path clip-path="url(#p909ac37fd9)" d="M 160.658943 307.584 
L 170.725751 307.584 
L 170.725751 159.345509 
L 160.658943 159.345509 
z
" style="fill:#1f77b4;"/>
   </g>
   <g id="patch_152">
    <path clip-path="url(#p909ac37fd9)" d="M 115.358309 307.584 
L 125.425116 307.584 
L 125.425116 259.765132 
L 115.358309 259.765132 
z
" style="fill:#1f77b4;"/>
   </g>
   <g id="patch_153">
    <path clip-path="url(#p909ac37fd9)" d="M 130.45852 307.584 
L 140.525328 307.584 
L 140.525328 173.69117 
L 130.45852 173.69117 
z
" style="fill:#1f77b4;"/>
   </g>
   <g id="patch_154">
    <path clip-path="url(#p909ac37fd9)" d="M 93.966342 307.584 
L 104.03315 307.584 
L 104.03315 278.892679 
L 93.966342 278.892679 
z
" style="fill:#1f77b4;"/>
   </g>
   <g id="patch_155">
    <path clip-path="url(#p909ac37fd9)" d="M 90.19129 307.584 
L 100.258097 307.584 
L 100.258097 278.892679 
L 90.19129 278.892679 
z
" style="fill:#1f77b4;"/>
   </g>
   <g id="patch_156">
    <path clip-path="url(#p909ac37fd9)" d="M 86.416237 307.584 
L 96.483044 307.584 
L 96.483044 276.501736 
L 86.416237 276.501736 
z
" style="fill:#1f77b4;"/>
   </g>
   <g id="patch_157">
    <path clip-path="url(#p909ac37fd9)" d="M 80.124482 307.584 
L 90.19129 307.584 
L 90.19129 293.23834 
L 80.124482 293.23834 
z
" style="fill:#1f77b4;"/>
   </g>
   <g id="patch_158">
    <path clip-path="url(#p909ac37fd9)" d="M 75.091078 307.584 
L 85.157886 307.584 
L 85.157886 301.606642 
L 75.091078 301.606642 
z
" style="fill:#1f77b4;"/>
   </g>
   <g id="patch_159">
    <path clip-path="url(#p909ac37fd9)" d="M 87.674588 307.584 
L 97.741395 307.584 
L 97.741395 280.088151 
L 87.674588 280.088151 
z
" style="fill:#1f77b4;"/>
   </g>
   <g id="patch_160">
    <path clip-path="url(#p909ac37fd9)" d="M 82.641184 307.584 
L 92.707992 307.584 
L 92.707992 294.433811 
L 82.641184 294.433811 
z
" style="fill:#1f77b4;"/>
   </g>
   <g id="patch_161">
    <path clip-path="url(#p909ac37fd9)" d="M 106.549852 307.584 
L 116.61666 307.584 
L 116.61666 222.705509 
L 106.549852 222.705509 
z
" style="fill:#1f77b4;"/>
   </g>
   <g id="patch_162">
    <path clip-path="url(#p909ac37fd9)" d="M 101.516448 307.584 
L 111.583256 307.584 
L 111.583256 272.915321 
L 101.516448 272.915321 
z
" style="fill:#1f77b4;"/>
   </g>
   <g id="patch_163">
    <path clip-path="url(#p909ac37fd9)" d="M 97.741395 307.584 
L 107.808203 307.584 
L 107.808203 298.020226 
L 97.741395 298.020226 
z
" style="fill:#1f77b4;"/>
   </g>
   <g id="patch_164">
    <path clip-path="url(#p909ac37fd9)" d="M 95.224693 307.584 
L 105.291501 307.584 
L 105.291501 289.651925 
L 95.224693 289.651925 
z
" style="fill:#1f77b4;"/>
   </g>
   <g id="patch_165">
    <path clip-path="url(#p909ac37fd9)" d="M 73.832727 307.584 
L 83.899535 307.584 
L 83.899535 305.193057 
L 73.832727 305.193057 
z
" style="fill:#1f77b4;"/>
   </g>
   <g id="patch_166">
    <path clip-path="url(#p909ac37fd9)" d="M 112.841607 307.584 
L 122.908414 307.584 
L 122.908414 252.592302 
L 112.841607 252.592302 
z
" style="fill:#1f77b4;"/>
   </g>
   <g id="patch_167">
    <path clip-path="url(#p909ac37fd9)" d="M 104.03315 307.584 
L 114.099958 307.584 
L 114.099958 260.960604 
L 104.03315 260.960604 
z
" style="fill:#1f77b4;"/>
   </g>
   <g id="patch_168">
    <path clip-path="url(#p909ac37fd9)" d="M 91.449641 307.584 
L 101.516448 307.584 
L 101.516448 277.697208 
L 91.449641 277.697208 
z
" style="fill:#1f77b4;"/>
   </g>
   <g id="patch_169">
    <path clip-path="url(#p909ac37fd9)" d="M 88.932939 307.584 
L 98.999746 307.584 
L 98.999746 292.042868 
L 88.932939 292.042868 
z
" style="fill:#1f77b4;"/>
   </g>
   <g id="patch_170">
    <path clip-path="url(#p909ac37fd9)" d="M 85.157886 307.584 
L 95.224693 307.584 
L 95.224693 295.629283 
L 85.157886 295.629283 
z
" style="fill:#1f77b4;"/>
   </g>
   <g id="patch_171">
    <path clip-path="url(#p909ac37fd9)" d="M 125.425116 307.584 
L 135.491924 307.584 
L 135.491924 142.608906 
L 125.425116 142.608906 
z
" style="fill:#1f77b4;"/>
   </g>
   <g id="patch_172">
    <path clip-path="url(#p909ac37fd9)" d="M 110.324905 307.584 
L 120.391712 307.584 
L 120.391712 288.456453 
L 110.324905 288.456453 
z
" style="fill:#1f77b4;"/>
   </g>
   <g id="patch_173">
    <path clip-path="url(#p909ac37fd9)" d="M 83.899535 307.584 
L 93.966342 307.584 
L 93.966342 298.020226 
L 83.899535 298.020226 
z
" style="fill:#1f77b4;"/>
   </g>
   <g id="patch_174">
    <path clip-path="url(#p909ac37fd9)" d="M 222.31814 307.584 
L 232.384947 307.584 
L 232.384947 225.096453 
L 222.31814 225.096453 
z
" style="fill:#1f77b4;"/>
   </g>
   <g id="patch_175">
    <path clip-path="url(#p909ac37fd9)" d="M 255.035264 307.584 
L 265.102072 307.584 
L 265.102072 250.201358 
L 255.035264 250.201358 
z
" style="fill:#1f77b4;"/>
   </g>
   <g id="patch_176">
    <path clip-path="url(#p909ac37fd9)" d="M 134.233573 307.584 
L 144.300381 307.584 
L 144.300381 235.855698 
L 134.233573 235.855698 
z
" style="fill:#1f77b4;"/>
   </g>
   <g id="patch_177">
    <path clip-path="url(#p909ac37fd9)" d="M 273.910529 307.584 
L 283.977336 307.584 
L 283.977336 168.909283 
L 273.910529 168.909283 
z
" style="fill:#1f77b4;"/>
   </g>
   <g id="patch_178">
    <path clip-path="url(#p909ac37fd9)" d="M 289.01074 307.584 
L 299.077548 307.584 
L 299.077548 260.960604 
L 289.01074 260.960604 
z
" style="fill:#1f77b4;"/>
   </g>
   <g id="patch_179">
    <path clip-path="url(#p909ac37fd9)" d="M 228.609894 307.584 
L 238.676702 307.584 
L 238.676702 119.894943 
L 228.609894 119.894943 
z
" style="fill:#1f77b4;"/>
   </g>
   <g id="patch_180">
    <path clip-path="url(#p909ac37fd9)" d="M 131.716871 307.584 
L 141.783679 307.584 
L 141.783679 235.855698 
L 131.716871 235.855698 
z
" style="fill:#1f77b4;"/>
   </g>
   <g id="patch_181">
    <path clip-path="url(#p909ac37fd9)" d="M 248.74351 307.584 
L 258.810317 307.584 
L 258.810317 111.526642 
L 248.74351 111.526642 
z
" style="fill:#1f77b4;"/>
   </g>
   <g id="patch_182">
    <path clip-path="url(#p909ac37fd9)" d="M 244.968457 307.584 
L 255.035264 307.584 
L 255.035264 225.096453 
L 244.968457 225.096453 
z
" style="fill:#1f77b4;"/>
   </g>
   <g id="patch_183">
    <path clip-path="url(#p909ac37fd9)" d="M 233.643298 307.584 
L 243.710106 307.584 
L 243.710106 220.314566 
L 233.643298 220.314566 
z
" style="fill:#1f77b4;"/>
   </g>
   <g id="patch_184">
    <path clip-path="url(#p909ac37fd9)" d="M 253.776913 307.584 
L 263.843721 307.584 
L 263.843721 201.187019 
L 253.776913 201.187019 
z
" style="fill:#1f77b4;"/>
   </g>
   <g id="patch_185">
    <path clip-path="url(#p909ac37fd9)" d="M 309.144355 307.584 
L 319.211163 307.584 
L 319.211163 240.637585 
L 309.144355 240.637585 
z
" style="fill:#1f77b4;"/>
   </g>
   <g id="patch_186">
    <path clip-path="url(#p909ac37fd9)" d="M 320.469514 307.584 
L 330.536321 307.584 
L 330.536321 280.088151 
L 320.469514 280.088151 
z
" style="fill:#1f77b4;"/>
   </g>
   <g id="patch_187">
    <path clip-path="url(#p909ac37fd9)" d="M 330.536321 307.584 
L 340.603129 307.584 
L 340.603129 265.742491 
L 330.536321 265.742491 
z
" style="fill:#1f77b4;"/>
   </g>
   <g id="patch_188">
    <path clip-path="url(#p909ac37fd9)" d="M 334.311374 307.584 
L 344.378182 307.584 
L 344.378182 282.479094 
L 334.311374 282.479094 
z
" style="fill:#1f77b4;"/>
   </g>
   <g id="patch_189">
    <path clip-path="url(#p909ac37fd9)" d="M 346.894884 307.584 
L 356.961691 307.584 
L 356.961691 301.606642 
L 346.894884 301.606642 
z
" style="fill:#1f77b4;"/>
   </g>
   <g id="patch_190">
    <path clip-path="url(#p909ac37fd9)" d="M 341.86148 307.584 
L 351.928288 307.584 
L 351.928288 280.088151 
L 341.86148 280.088151 
z
" style="fill:#1f77b4;"/>
   </g>
   <g id="patch_191">
    <path clip-path="url(#p909ac37fd9)" d="M 328.019619 307.584 
L 338.086427 307.584 
L 338.086427 281.283623 
L 328.019619 281.283623 
z
" style="fill:#1f77b4;"/>
   </g>
   <g id="patch_192">
    <path clip-path="url(#p909ac37fd9)" d="M 304.110951 307.584 
L 314.177759 307.584 
L 314.177759 277.697208 
L 304.110951 277.697208 
z
" style="fill:#1f77b4;"/>
   </g>
   <g id="patch_193">
    <path clip-path="url(#p909ac37fd9)" d="M 312.919408 307.584 
L 322.986216 307.584 
L 322.986216 290.847396 
L 312.919408 290.847396 
z
" style="fill:#1f77b4;"/>
   </g>
   <g id="patch_194">
    <path clip-path="url(#p909ac37fd9)" d="M 290.269091 307.584 
L 300.335899 307.584 
L 300.335899 281.283623 
L 290.269091 281.283623 
z
" style="fill:#1f77b4;"/>
   </g>
   <g id="patch_195">
    <path clip-path="url(#p909ac37fd9)" d="M 310.402706 307.584 
L 320.469514 307.584 
L 320.469514 254.983245 
L 310.402706 254.983245 
z
" style="fill:#1f77b4;"/>
   </g>
   <g id="patch_196">
    <path clip-path="url(#p909ac37fd9)" d="M 314.177759 307.584 
L 324.244567 307.584 
L 324.244567 295.629283 
L 314.177759 295.629283 
z
" style="fill:#1f77b4;"/>
   </g>
   <g id="patch_197">
    <path clip-path="url(#p909ac37fd9)" d="M 311.661057 307.584 
L 321.727865 307.584 
L 321.727865 289.651925 
L 311.661057 289.651925 
z
" style="fill:#1f77b4;"/>
   </g>
   <g id="patch_198">
    <path clip-path="url(#p909ac37fd9)" d="M 302.8526 307.584 
L 312.919408 307.584 
L 312.919408 265.742491 
L 302.8526 265.742491 
z
" style="fill:#1f77b4;"/>
   </g>
   <g id="patch_199">
    <path clip-path="url(#p909ac37fd9)" d="M 285.235687 307.584 
L 295.302495 307.584 
L 295.302495 225.096453 
L 285.235687 225.096453 
z
" style="fill:#1f77b4;"/>
   </g>
   <g id="patch_200">
    <path clip-path="url(#p909ac37fd9)" d="M 301.594249 307.584 
L 311.661057 307.584 
L 311.661057 243.028528 
L 301.594249 243.028528 
z
" style="fill:#1f77b4;"/>
   </g>
   <g id="patch_201">
    <path clip-path="url(#p909ac37fd9)" d="M 359.478393 307.584 
L 369.545201 307.584 
L 369.545201 280.088151 
L 359.478393 280.088151 
z
" style="fill:#1f77b4;"/>
   </g>
   <g id="patch_202">
    <path clip-path="url(#p909ac37fd9)" d="M 374.578605 307.584 
L 384.645412 307.584 
L 384.645412 293.23834 
L 374.578605 293.23834 
z
" style="fill:#1f77b4;"/>
   </g>
   <g id="patch_203">
    <path clip-path="url(#p909ac37fd9)" d="M 369.545201 307.584 
L 379.612008 307.584 
L 379.612008 293.23834 
L 369.545201 293.23834 
z
" style="fill:#1f77b4;"/>
   </g>
   <g id="patch_204">
    <path clip-path="url(#p909ac37fd9)" d="M 377.095307 307.584 
L 387.162114 307.584 
L 387.162114 294.433811 
L 377.095307 294.433811 
z
" style="fill:#1f77b4;"/>
   </g>
   <g id="patch_205">
    <path clip-path="url(#p909ac37fd9)" d="M 388.420465 307.584 
L 398.487273 307.584 
L 398.487273 303.997585 
L 388.420465 303.997585 
z
" style="fill:#1f77b4;"/>
   </g>
   <g id="patch_206">
    <path clip-path="url(#p909ac37fd9)" d="M 382.12871 307.584 
L 392.195518 307.584 
L 392.195518 294.433811 
L 382.12871 294.433811 
z
" style="fill:#1f77b4;"/>
   </g>
   <g id="patch_207">
    <path clip-path="url(#p909ac37fd9)" d="M 360.736744 307.584 
L 370.803552 307.584 
L 370.803552 263.351547 
L 360.736744 263.351547 
z
" style="fill:#1f77b4;"/>
   </g>
   <g id="patch_208">
    <path clip-path="url(#p909ac37fd9)" d="M 385.903763 307.584 
L 395.970571 307.584 
L 395.970571 300.41117 
L 385.903763 300.41117 
z
" style="fill:#1f77b4;"/>
   </g>
   <g id="patch_209">
    <path clip-path="url(#p909ac37fd9)" d="M 324.244567 307.584 
L 334.311374 307.584 
L 334.311374 293.23834 
L 324.244567 293.23834 
z
" style="fill:#1f77b4;"/>
   </g>
   <g id="patch_210">
    <path clip-path="url(#p909ac37fd9)" d="M 307.886004 307.584 
L 317.952812 307.584 
L 317.952812 264.547019 
L 307.886004 264.547019 
z
" style="fill:#1f77b4;"/>
   </g>
   <g id="patch_211">
    <path clip-path="url(#p909ac37fd9)" d="M 292.785793 307.584 
L 302.8526 307.584 
L 302.8526 254.983245 
L 292.785793 254.983245 
z
" style="fill:#1f77b4;"/>
   </g>
   <g id="patch_212">
    <path clip-path="url(#p909ac37fd9)" d="M 306.627653 307.584 
L 316.694461 307.584 
L 316.694461 301.606642 
L 306.627653 301.606642 
z
" style="fill:#1f77b4;"/>
   </g>
   <g id="patch_213">
    <path clip-path="url(#p909ac37fd9)" d="M 326.761268 307.584 
L 336.828076 307.584 
L 336.828076 280.088151 
L 326.761268 280.088151 
z
" style="fill:#1f77b4;"/>
   </g>
   <g id="patch_214">
    <path clip-path="url(#p909ac37fd9)" d="M 336.828076 307.584 
L 346.894884 307.584 
L 346.894884 278.892679 
L 336.828076 278.892679 
z
" style="fill:#1f77b4;"/>
   </g>
   <g id="patch_215">
    <path clip-path="url(#p909ac37fd9)" d="M 319.211163 307.584 
L 329.27797 307.584 
L 329.27797 292.042868 
L 319.211163 292.042868 
z
" style="fill:#1f77b4;"/>
   </g>
   <g id="patch_216">
    <path clip-path="url(#p909ac37fd9)" d="M 364.511797 307.584 
L 374.578605 307.584 
L 374.578605 294.433811 
L 364.511797 294.433811 
z
" style="fill:#1f77b4;"/>
   </g>
   <g id="patch_217">
    <path clip-path="url(#p909ac37fd9)" d="M 373.320254 307.584 
L 383.387061 307.584 
L 383.387061 295.629283 
L 373.320254 295.629283 
z
" style="fill:#1f77b4;"/>
   </g>
   <g id="patch_218">
    <path clip-path="url(#p909ac37fd9)" d="M 338.086427 307.584 
L 348.153235 307.584 
L 348.153235 303.997585 
L 338.086427 303.997585 
z
" style="fill:#1f77b4;"/>
   </g>
   <g id="patch_219">
    <path clip-path="url(#p909ac37fd9)" d="M 358.220042 307.584 
L 368.28685 307.584 
L 368.28685 293.23834 
L 358.220042 293.23834 
z
" style="fill:#1f77b4;"/>
   </g>
   <g id="patch_220">
    <path clip-path="url(#p909ac37fd9)" d="M 361.995095 307.584 
L 372.061903 307.584 
L 372.061903 301.606642 
L 361.995095 301.606642 
z
" style="fill:#1f77b4;"/>
   </g>
   <g id="patch_221">
    <path clip-path="url(#p909ac37fd9)" d="M 356.961691 307.584 
L 367.028499 307.584 
L 367.028499 294.433811 
L 356.961691 294.433811 
z
" style="fill:#1f77b4;"/>
   </g>
   <g id="patch_222">
    <path clip-path="url(#p909ac37fd9)" d="M 331.794672 307.584 
L 341.86148 307.584 
L 341.86148 293.23834 
L 331.794672 293.23834 
z
" style="fill:#1f77b4;"/>
   </g>
   <g id="patch_223">
    <path clip-path="url(#p909ac37fd9)" d="M 340.603129 307.584 
L 350.669937 307.584 
L 350.669937 278.892679 
L 340.603129 278.892679 
z
" style="fill:#1f77b4;"/>
   </g>
   <g id="patch_224">
    <path clip-path="url(#p909ac37fd9)" d="M 343.119831 307.584 
L 353.186638 307.584 
L 353.186638 280.088151 
L 343.119831 280.088151 
z
" style="fill:#1f77b4;"/>
   </g>
   <g id="patch_225">
    <path clip-path="url(#p909ac37fd9)" d="M 286.494038 307.584 
L 296.560846 307.584 
L 296.560846 292.042868 
L 286.494038 292.042868 
z
" style="fill:#1f77b4;"/>
   </g>
   <g id="patch_226">
    <path clip-path="url(#p909ac37fd9)" d="M 316.694461 307.584 
L 326.761268 307.584 
L 326.761268 288.456453 
L 316.694461 288.456453 
z
" style="fill:#1f77b4;"/>
   </g>
   <g id="patch_227">
    <path clip-path="url(#p909ac37fd9)" d="M 355.70334 307.584 
L 365.770148 307.584 
L 365.770148 293.23834 
L 355.70334 293.23834 
z
" style="fill:#1f77b4;"/>
   </g>
   <g id="patch_228">
    <path clip-path="url(#p909ac37fd9)" d="M 339.344778 307.584 
L 349.411586 307.584 
L 349.411586 293.23834 
L 339.344778 293.23834 
z
" style="fill:#1f77b4;"/>
   </g>
   <g id="matplotlib.axis_1">
    <g id="xtick_1">
     <g id="line2d_1">
      <defs>
       <path d="M 0 0 
L 0 3.5 
" id="m2abfbba494" style="stroke:#000000;stroke-width:0.8;"/>
      </defs>
      <g>
       <use style="stroke:#000000;stroke-width:0.8;" x="66.282622" xlink:href="#m2abfbba494" y="307.584"/>
      </g>
     </g>
     <g id="text_1">
      <!-- 5 -->
      <g transform="translate(63.101372 322.182437)scale(0.1 -0.1)">
       <defs>
        <path d="M 10.796875 72.90625 
L 49.515625 72.90625 
L 49.515625 64.59375 
L 19.828125 64.59375 
L 19.828125 46.734375 
Q 21.96875 47.46875 24.109375 47.828125 
Q 26.265625 48.1875 28.421875 48.1875 
Q 40.625 48.1875 47.75 41.5 
Q 54.890625 34.8125 54.890625 23.390625 
Q 54.890625 11.625 47.5625 5.09375 
Q 40.234375 -1.421875 26.90625 -1.421875 
Q 22.3125 -1.421875 17.546875 -0.640625 
Q 12.796875 0.140625 7.71875 1.703125 
L 7.71875 11.625 
Q 12.109375 9.234375 16.796875 8.0625 
Q 21.484375 6.890625 26.703125 6.890625 
Q 35.15625 6.890625 40.078125 11.328125 
Q 45.015625 15.765625 45.015625 23.390625 
Q 45.015625 31 40.078125 35.4375 
Q 35.15625 39.890625 26.703125 39.890625 
Q 22.75 39.890625 18.8125 39.015625 
Q 14.890625 38.140625 10.796875 36.28125 
z
" id="DejaVuSans-53"/>
       </defs>
       <use xlink:href="#DejaVuSans-53"/>
      </g>
     </g>
    </g>
    <g id="xtick_2">
     <g id="line2d_2">
      <g>
       <use style="stroke:#000000;stroke-width:0.8;" x="129.200169" xlink:href="#m2abfbba494" y="307.584"/>
      </g>
     </g>
     <g id="text_2">
      <!-- 10 -->
      <g transform="translate(122.837669 322.182437)scale(0.1 -0.1)">
       <defs>
        <path d="M 12.40625 8.296875 
L 28.515625 8.296875 
L 28.515625 63.921875 
L 10.984375 60.40625 
L 10.984375 69.390625 
L 28.421875 72.90625 
L 38.28125 72.90625 
L 38.28125 8.296875 
L 54.390625 8.296875 
L 54.390625 0 
L 12.40625 0 
z
" id="DejaVuSans-49"/>
        <path d="M 31.78125 66.40625 
Q 24.171875 66.40625 20.328125 58.90625 
Q 16.5 51.421875 16.5 36.375 
Q 16.5 21.390625 20.328125 13.890625 
Q 24.171875 6.390625 31.78125 6.390625 
Q 39.453125 6.390625 43.28125 13.890625 
Q 47.125 21.390625 47.125 36.375 
Q 47.125 51.421875 43.28125 58.90625 
Q 39.453125 66.40625 31.78125 66.40625 
z
M 31.78125 74.21875 
Q 44.046875 74.21875 50.515625 64.515625 
Q 56.984375 54.828125 56.984375 36.375 
Q 56.984375 17.96875 50.515625 8.265625 
Q 44.046875 -1.421875 31.78125 -1.421875 
Q 19.53125 -1.421875 13.0625 8.265625 
Q 6.59375 17.96875 6.59375 36.375 
Q 6.59375 54.828125 13.0625 64.515625 
Q 19.53125 74.21875 31.78125 74.21875 
z
" id="DejaVuSans-48"/>
       </defs>
       <use xlink:href="#DejaVuSans-49"/>
       <use x="63.623047" xlink:href="#DejaVuSans-48"/>
      </g>
     </g>
    </g>
    <g id="xtick_3">
     <g id="line2d_3">
      <g>
       <use style="stroke:#000000;stroke-width:0.8;" x="192.117717" xlink:href="#m2abfbba494" y="307.584"/>
      </g>
     </g>
     <g id="text_3">
      <!-- 15 -->
      <g transform="translate(185.755217 322.182437)scale(0.1 -0.1)">
       <use xlink:href="#DejaVuSans-49"/>
       <use x="63.623047" xlink:href="#DejaVuSans-53"/>
      </g>
     </g>
    </g>
    <g id="xtick_4">
     <g id="line2d_4">
      <g>
       <use style="stroke:#000000;stroke-width:0.8;" x="255.035264" xlink:href="#m2abfbba494" y="307.584"/>
      </g>
     </g>
     <g id="text_4">
      <!-- 20 -->
      <g transform="translate(248.672764 322.182437)scale(0.1 -0.1)">
       <defs>
        <path d="M 19.1875 8.296875 
L 53.609375 8.296875 
L 53.609375 0 
L 7.328125 0 
L 7.328125 8.296875 
Q 12.9375 14.109375 22.625 23.890625 
Q 32.328125 33.6875 34.8125 36.53125 
Q 39.546875 41.84375 41.421875 45.53125 
Q 43.3125 49.21875 43.3125 52.78125 
Q 43.3125 58.59375 39.234375 62.25 
Q 35.15625 65.921875 28.609375 65.921875 
Q 23.96875 65.921875 18.8125 64.3125 
Q 13.671875 62.703125 7.8125 59.421875 
L 7.8125 69.390625 
Q 13.765625 71.78125 18.9375 73 
Q 24.125 74.21875 28.421875 74.21875 
Q 39.75 74.21875 46.484375 68.546875 
Q 53.21875 62.890625 53.21875 53.421875 
Q 53.21875 48.921875 51.53125 44.890625 
Q 49.859375 40.875 45.40625 35.40625 
Q 44.1875 33.984375 37.640625 27.21875 
Q 31.109375 20.453125 19.1875 8.296875 
z
" id="DejaVuSans-50"/>
       </defs>
       <use xlink:href="#DejaVuSans-50"/>
       <use x="63.623047" xlink:href="#DejaVuSans-48"/>
      </g>
     </g>
    </g>
    <g id="xtick_5">
     <g id="line2d_5">
      <g>
       <use style="stroke:#000000;stroke-width:0.8;" x="317.952812" xlink:href="#m2abfbba494" y="307.584"/>
      </g>
     </g>
     <g id="text_5">
      <!-- 25 -->
      <g transform="translate(311.590312 322.182437)scale(0.1 -0.1)">
       <use xlink:href="#DejaVuSans-50"/>
       <use x="63.623047" xlink:href="#DejaVuSans-53"/>
      </g>
     </g>
    </g>
    <g id="xtick_6">
     <g id="line2d_6">
      <g>
       <use style="stroke:#000000;stroke-width:0.8;" x="380.870359" xlink:href="#m2abfbba494" y="307.584"/>
      </g>
     </g>
     <g id="text_6">
      <!-- 30 -->
      <g transform="translate(374.507859 322.182437)scale(0.1 -0.1)">
       <defs>
        <path d="M 40.578125 39.3125 
Q 47.65625 37.796875 51.625 33 
Q 55.609375 28.21875 55.609375 21.1875 
Q 55.609375 10.40625 48.1875 4.484375 
Q 40.765625 -1.421875 27.09375 -1.421875 
Q 22.515625 -1.421875 17.65625 -0.515625 
Q 12.796875 0.390625 7.625 2.203125 
L 7.625 11.71875 
Q 11.71875 9.328125 16.59375 8.109375 
Q 21.484375 6.890625 26.8125 6.890625 
Q 36.078125 6.890625 40.9375 10.546875 
Q 45.796875 14.203125 45.796875 21.1875 
Q 45.796875 27.640625 41.28125 31.265625 
Q 36.765625 34.90625 28.71875 34.90625 
L 20.21875 34.90625 
L 20.21875 43.015625 
L 29.109375 43.015625 
Q 36.375 43.015625 40.234375 45.921875 
Q 44.09375 48.828125 44.09375 54.296875 
Q 44.09375 59.90625 40.109375 62.90625 
Q 36.140625 65.921875 28.71875 65.921875 
Q 24.65625 65.921875 20.015625 65.03125 
Q 15.375 64.15625 9.8125 62.3125 
L 9.8125 71.09375 
Q 15.4375 72.65625 20.34375 73.4375 
Q 25.25 74.21875 29.59375 74.21875 
Q 40.828125 74.21875 47.359375 69.109375 
Q 53.90625 64.015625 53.90625 55.328125 
Q 53.90625 49.265625 50.4375 45.09375 
Q 46.96875 40.921875 40.578125 39.3125 
z
" id="DejaVuSans-51"/>
       </defs>
       <use xlink:href="#DejaVuSans-51"/>
       <use x="63.623047" xlink:href="#DejaVuSans-48"/>
      </g>
     </g>
    </g>
   </g>
   <g id="matplotlib.axis_2">
    <g id="ytick_1">
     <g id="line2d_7">
      <defs>
       <path d="M 0 0 
L -3.5 0 
" id="m1191002e03" style="stroke:#000000;stroke-width:0.8;"/>
      </defs>
      <g>
       <use style="stroke:#000000;stroke-width:0.8;" x="57.6" xlink:href="#m1191002e03" y="307.584"/>
      </g>
     </g>
     <g id="text_7">
      <!-- 0 -->
      <g transform="translate(44.2375 311.383219)scale(0.1 -0.1)">
       <use xlink:href="#DejaVuSans-48"/>
      </g>
     </g>
    </g>
    <g id="ytick_2">
     <g id="line2d_8">
      <g>
       <use style="stroke:#000000;stroke-width:0.8;" x="57.6" xlink:href="#m1191002e03" y="277.697208"/>
      </g>
     </g>
     <g id="text_8">
      <!-- 25 -->
      <g transform="translate(37.875 281.496426)scale(0.1 -0.1)">
       <use xlink:href="#DejaVuSans-50"/>
       <use x="63.623047" xlink:href="#DejaVuSans-53"/>
      </g>
     </g>
    </g>
    <g id="ytick_3">
     <g id="line2d_9">
      <g>
       <use style="stroke:#000000;stroke-width:0.8;" x="57.6" xlink:href="#m1191002e03" y="247.810415"/>
      </g>
     </g>
     <g id="text_9">
      <!-- 50 -->
      <g transform="translate(37.875 251.609634)scale(0.1 -0.1)">
       <use xlink:href="#DejaVuSans-53"/>
       <use x="63.623047" xlink:href="#DejaVuSans-48"/>
      </g>
     </g>
    </g>
    <g id="ytick_4">
     <g id="line2d_10">
      <g>
       <use style="stroke:#000000;stroke-width:0.8;" x="57.6" xlink:href="#m1191002e03" y="217.923623"/>
      </g>
     </g>
     <g id="text_10">
      <!-- 75 -->
      <g transform="translate(37.875 221.722841)scale(0.1 -0.1)">
       <defs>
        <path d="M 8.203125 72.90625 
L 55.078125 72.90625 
L 55.078125 68.703125 
L 28.609375 0 
L 18.3125 0 
L 43.21875 64.59375 
L 8.203125 64.59375 
z
" id="DejaVuSans-55"/>
       </defs>
       <use xlink:href="#DejaVuSans-55"/>
       <use x="63.623047" xlink:href="#DejaVuSans-53"/>
      </g>
     </g>
    </g>
    <g id="ytick_5">
     <g id="line2d_11">
      <g>
       <use style="stroke:#000000;stroke-width:0.8;" x="57.6" xlink:href="#m1191002e03" y="188.03683"/>
      </g>
     </g>
     <g id="text_11">
      <!-- 100 -->
      <g transform="translate(31.5125 191.836049)scale(0.1 -0.1)">
       <use xlink:href="#DejaVuSans-49"/>
       <use x="63.623047" xlink:href="#DejaVuSans-48"/>
       <use x="127.246094" xlink:href="#DejaVuSans-48"/>
      </g>
     </g>
    </g>
    <g id="ytick_6">
     <g id="line2d_12">
      <g>
       <use style="stroke:#000000;stroke-width:0.8;" x="57.6" xlink:href="#m1191002e03" y="158.150038"/>
      </g>
     </g>
     <g id="text_12">
      <!-- 125 -->
      <g transform="translate(31.5125 161.949256)scale(0.1 -0.1)">
       <use xlink:href="#DejaVuSans-49"/>
       <use x="63.623047" xlink:href="#DejaVuSans-50"/>
       <use x="127.246094" xlink:href="#DejaVuSans-53"/>
      </g>
     </g>
    </g>
    <g id="ytick_7">
     <g id="line2d_13">
      <g>
       <use style="stroke:#000000;stroke-width:0.8;" x="57.6" xlink:href="#m1191002e03" y="128.263245"/>
      </g>
     </g>
     <g id="text_13">
      <!-- 150 -->
      <g transform="translate(31.5125 132.062464)scale(0.1 -0.1)">
       <use xlink:href="#DejaVuSans-49"/>
       <use x="63.623047" xlink:href="#DejaVuSans-53"/>
       <use x="127.246094" xlink:href="#DejaVuSans-48"/>
      </g>
     </g>
    </g>
    <g id="ytick_8">
     <g id="line2d_14">
      <g>
       <use style="stroke:#000000;stroke-width:0.8;" x="57.6" xlink:href="#m1191002e03" y="98.376453"/>
      </g>
     </g>
     <g id="text_14">
      <!-- 175 -->
      <g transform="translate(31.5125 102.175672)scale(0.1 -0.1)">
       <use xlink:href="#DejaVuSans-49"/>
       <use x="63.623047" xlink:href="#DejaVuSans-55"/>
       <use x="127.246094" xlink:href="#DejaVuSans-53"/>
      </g>
     </g>
    </g>
    <g id="ytick_9">
     <g id="line2d_15">
      <g>
       <use style="stroke:#000000;stroke-width:0.8;" x="57.6" xlink:href="#m1191002e03" y="68.48966"/>
      </g>
     </g>
     <g id="text_15">
      <!-- 200 -->
      <g transform="translate(31.5125 72.288879)scale(0.1 -0.1)">
       <use xlink:href="#DejaVuSans-50"/>
       <use x="63.623047" xlink:href="#DejaVuSans-48"/>
       <use x="127.246094" xlink:href="#DejaVuSans-48"/>
      </g>
     </g>
    </g>
   </g>
   <g id="patch_229">
    <path d="M 57.6 307.584 
L 57.6 41.472 
" style="fill:none;stroke:#000000;stroke-linecap:square;stroke-linejoin:miter;stroke-width:0.8;"/>
   </g>
   <g id="patch_230">
    <path d="M 414.72 307.584 
L 414.72 41.472 
" style="fill:none;stroke:#000000;stroke-linecap:square;stroke-linejoin:miter;stroke-width:0.8;"/>
   </g>
   <g id="patch_231">
    <path d="M 57.6 307.584 
L 414.72 307.584 
" style="fill:none;stroke:#000000;stroke-linecap:square;stroke-linejoin:miter;stroke-width:0.8;"/>
   </g>
   <g id="patch_232">
    <path d="M 57.6 41.472 
L 414.72 41.472 
" style="fill:none;stroke:#000000;stroke-linecap:square;stroke-linejoin:miter;stroke-width:0.8;"/>
   </g>
  </g>
 </g>
 <defs>
  <clipPath id="p909ac37fd9">
   <rect height="266.112" width="357.12" x="57.6" y="41.472"/>
  </clipPath>
 </defs>
</svg>
