<?xml version="1.0" encoding="utf-8" standalone="no"?>
<!DOCTYPE svg PUBLIC "-//W3C//DTD SVG 1.1//EN"
  "http://www.w3.org/Graphics/SVG/1.1/DTD/svg11.dtd">
<!-- Created with matplotlib (https://matplotlib.org/) -->
<svg height="2090.31625pt" version="1.1" viewBox="0 0 2068.621875 2090.31625" width="2068.621875pt" xmlns="http://www.w3.org/2000/svg" xmlns:xlink="http://www.w3.org/1999/xlink">
 <metadata>
  <rdf:RDF xmlns:cc="http://creativecommons.org/ns#" xmlns:dc="http://purl.org/dc/elements/1.1/" xmlns:rdf="http://www.w3.org/1999/02/22-rdf-syntax-ns#">
   <cc:Work>
    <dc:type rdf:resource="http://purl.org/dc/dcmitype/StillImage"/>
    <dc:date>2022-07-24T11:42:50.035570</dc:date>
    <dc:format>image/svg+xml</dc:format>
    <dc:creator>
     <cc:Agent>
      <dc:title>Matplotlib v3.3.2, https://matplotlib.org/</dc:title>
     </cc:Agent>
    </dc:creator>
   </cc:Work>
  </rdf:RDF>
 </metadata>
 <defs>
  <style type="text/css">*{stroke-linecap:butt;stroke-linejoin:round;}</style>
 </defs>
 <g id="figure_1">
  <g id="patch_1">
   <path d="M 0 2090.31625 
L 2068.621875 2090.31625 
L 2068.621875 0 
L 0 0 
z
" style="fill:#ffffff;"/>
  </g>
  <g id="axes_1">
   <g id="patch_2">
    <path d="M 50.421875 2052.76 
L 1836.021875 2052.76 
L 1836.021875 278.68 
L 50.421875 278.68 
z
" style="fill:#ffffff;"/>
   </g>
   <g id="matplotlib.axis_1">
    <g id="xtick_1">
     <g id="line2d_1">
      <defs>
       <path d="M 0 0 
L 0 3.5 
" id="mbaf0e6ec2c" style="stroke:#000000;stroke-width:0.8;"/>
      </defs>
      <g>
       <use style="stroke:#000000;stroke-width:0.8;" x="131.585511" xlink:href="#mbaf0e6ec2c" y="2052.76"/>
      </g>
     </g>
     <g id="text_1">
      <text style="font-family:DejaVu Sans;font-size:10px;font-stretch:normal;font-style:normal;font-weight:normal;text-anchor:middle;" transform="rotate(-0, 131.585511, 2067.358438)" x="131.585511" y="2067.358438">20</text>
     </g>
    </g>
    <g id="xtick_2">
     <g id="line2d_2">
      <g>
       <use style="stroke:#000000;stroke-width:0.8;" x="339.697399" xlink:href="#mbaf0e6ec2c" y="2052.76"/>
      </g>
     </g>
     <g id="text_2">
      <text style="font-family:DejaVu Sans;font-size:10px;font-stretch:normal;font-style:normal;font-weight:normal;text-anchor:middle;" transform="rotate(-0, 339.697399, 2067.358438)" x="339.697399" y="2067.358438">30</text>
     </g>
    </g>
    <g id="xtick_3">
     <g id="line2d_3">
      <g>
       <use style="stroke:#000000;stroke-width:0.8;" x="547.809288" xlink:href="#mbaf0e6ec2c" y="2052.76"/>
      </g>
     </g>
     <g id="text_3">
      <text style="font-family:DejaVu Sans;font-size:10px;font-stretch:normal;font-style:normal;font-weight:normal;text-anchor:middle;" transform="rotate(-0, 547.809288, 2067.358438)" x="547.809288" y="2067.358438">40</text>
     </g>
    </g>
    <g id="xtick_4">
     <g id="line2d_4">
      <g>
       <use style="stroke:#000000;stroke-width:0.8;" x="755.921176" xlink:href="#mbaf0e6ec2c" y="2052.76"/>
      </g>
     </g>
     <g id="text_4">
      <text style="font-family:DejaVu Sans;font-size:10px;font-stretch:normal;font-style:normal;font-weight:normal;text-anchor:middle;" transform="rotate(-0, 755.921176, 2067.358438)" x="755.921176" y="2067.358438">50</text>
     </g>
    </g>
    <g id="xtick_5">
     <g id="line2d_5">
      <g>
       <use style="stroke:#000000;stroke-width:0.8;" x="964.033064" xlink:href="#mbaf0e6ec2c" y="2052.76"/>
      </g>
     </g>
     <g id="text_5">
      <text style="font-family:DejaVu Sans;font-size:10px;font-stretch:normal;font-style:normal;font-weight:normal;text-anchor:middle;" transform="rotate(-0, 964.033064, 2067.358438)" x="964.033064" y="2067.358438">60</text>
     </g>
    </g>
    <g id="xtick_6">
     <g id="line2d_6">
      <g>
       <use style="stroke:#000000;stroke-width:0.8;" x="1172.144952" xlink:href="#mbaf0e6ec2c" y="2052.76"/>
      </g>
     </g>
     <g id="text_6">
      <text style="font-family:DejaVu Sans;font-size:10px;font-stretch:normal;font-style:normal;font-weight:normal;text-anchor:middle;" transform="rotate(-0, 1172.144952, 2067.358438)" x="1172.144952" y="2067.358438">70</text>
     </g>
    </g>
    <g id="xtick_7">
     <g id="line2d_7">
      <g>
       <use style="stroke:#000000;stroke-width:0.8;" x="1380.25684" xlink:href="#mbaf0e6ec2c" y="2052.76"/>
      </g>
     </g>
     <g id="text_7">
      <text style="font-family:DejaVu Sans;font-size:10px;font-stretch:normal;font-style:normal;font-weight:normal;text-anchor:middle;" transform="rotate(-0, 1380.25684, 2067.358438)" x="1380.25684" y="2067.358438">80</text>
     </g>
    </g>
    <g id="xtick_8">
     <g id="line2d_8">
      <g>
       <use style="stroke:#000000;stroke-width:0.8;" x="1588.368728" xlink:href="#mbaf0e6ec2c" y="2052.76"/>
      </g>
     </g>
     <g id="text_8">
      <text style="font-family:DejaVu Sans;font-size:10px;font-stretch:normal;font-style:normal;font-weight:normal;text-anchor:middle;" transform="rotate(-0, 1588.368728, 2067.358438)" x="1588.368728" y="2067.358438">90</text>
     </g>
    </g>
    <g id="xtick_9">
     <g id="line2d_9">
      <g>
       <use style="stroke:#000000;stroke-width:0.8;" x="1796.480616" xlink:href="#mbaf0e6ec2c" y="2052.76"/>
      </g>
     </g>
     <g id="text_9">
      <text style="font-family:DejaVu Sans;font-size:10px;font-stretch:normal;font-style:normal;font-weight:normal;text-anchor:middle;" transform="rotate(-0, 1796.480616, 2067.358438)" x="1796.480616" y="2067.358438">100</text>
     </g>
    </g>
    <g id="text_10">
     <text style="font-family:DejaVu Sans;font-size:10px;font-stretch:normal;font-style:normal;font-weight:normal;text-anchor:middle;" transform="rotate(-0, 943.221875, 2081.036562)" x="943.221875" y="2081.036562">humidity from Foreca</text>
    </g>
   </g>
   <g id="matplotlib.axis_2">
    <g id="ytick_1">
     <g id="line2d_10">
      <defs>
       <path d="M 0 0 
L -3.5 0 
" id="m5fdfd5c49a" style="stroke:#000000;stroke-width:0.8;"/>
      </defs>
      <g>
       <use style="stroke:#000000;stroke-width:0.8;" x="50.421875" xlink:href="#m5fdfd5c49a" y="1911.27626"/>
      </g>
     </g>
     <g id="text_11">
      <text style="font-family:DejaVu Sans;font-size:10px;font-stretch:normal;font-style:normal;font-weight:normal;text-anchor:end;" transform="rotate(-0, 43.421875, 1915.075479)" x="43.421875" y="1915.075479">5.25</text>
     </g>
    </g>
    <g id="ytick_2">
     <g id="line2d_11">
      <g>
       <use style="stroke:#000000;stroke-width:0.8;" x="50.421875" xlink:href="#m5fdfd5c49a" y="1690.827928"/>
      </g>
     </g>
     <g id="text_12">
      <text style="font-family:DejaVu Sans;font-size:10px;font-stretch:normal;font-style:normal;font-weight:normal;text-anchor:end;" transform="rotate(-0, 43.421875, 1694.627147)" x="43.421875" y="1694.627147">5.50</text>
     </g>
    </g>
    <g id="ytick_3">
     <g id="line2d_12">
      <g>
       <use style="stroke:#000000;stroke-width:0.8;" x="50.421875" xlink:href="#m5fdfd5c49a" y="1470.379595"/>
      </g>
     </g>
     <g id="text_13">
      <text style="font-family:DejaVu Sans;font-size:10px;font-stretch:normal;font-style:normal;font-weight:normal;text-anchor:end;" transform="rotate(-0, 43.421875, 1474.178814)" x="43.421875" y="1474.178814">5.75</text>
     </g>
    </g>
    <g id="ytick_4">
     <g id="line2d_13">
      <g>
       <use style="stroke:#000000;stroke-width:0.8;" x="50.421875" xlink:href="#m5fdfd5c49a" y="1249.931263"/>
      </g>
     </g>
     <g id="text_14">
      <text style="font-family:DejaVu Sans;font-size:10px;font-stretch:normal;font-style:normal;font-weight:normal;text-anchor:end;" transform="rotate(-0, 43.421875, 1253.730482)" x="43.421875" y="1253.730482">6.00</text>
     </g>
    </g>
    <g id="ytick_5">
     <g id="line2d_14">
      <g>
       <use style="stroke:#000000;stroke-width:0.8;" x="50.421875" xlink:href="#m5fdfd5c49a" y="1029.482931"/>
      </g>
     </g>
     <g id="text_15">
      <text style="font-family:DejaVu Sans;font-size:10px;font-stretch:normal;font-style:normal;font-weight:normal;text-anchor:end;" transform="rotate(-0, 43.421875, 1033.282149)" x="43.421875" y="1033.282149">6.25</text>
     </g>
    </g>
    <g id="ytick_6">
     <g id="line2d_15">
      <g>
       <use style="stroke:#000000;stroke-width:0.8;" x="50.421875" xlink:href="#m5fdfd5c49a" y="809.034598"/>
      </g>
     </g>
     <g id="text_16">
      <text style="font-family:DejaVu Sans;font-size:10px;font-stretch:normal;font-style:normal;font-weight:normal;text-anchor:end;" transform="rotate(-0, 43.421875, 812.833817)" x="43.421875" y="812.833817">6.50</text>
     </g>
    </g>
    <g id="ytick_7">
     <g id="line2d_16">
      <g>
       <use style="stroke:#000000;stroke-width:0.8;" x="50.421875" xlink:href="#m5fdfd5c49a" y="588.586266"/>
      </g>
     </g>
     <g id="text_17">
      <text style="font-family:DejaVu Sans;font-size:10px;font-stretch:normal;font-style:normal;font-weight:normal;text-anchor:end;" transform="rotate(-0, 43.421875, 592.385484)" x="43.421875" y="592.385484">6.75</text>
     </g>
    </g>
    <g id="ytick_8">
     <g id="line2d_17">
      <g>
       <use style="stroke:#000000;stroke-width:0.8;" x="50.421875" xlink:href="#m5fdfd5c49a" y="368.137933"/>
      </g>
     </g>
     <g id="text_18">
      <text style="font-family:DejaVu Sans;font-size:10px;font-stretch:normal;font-style:normal;font-weight:normal;text-anchor:end;" transform="rotate(-0, 43.421875, 371.937152)" x="43.421875" y="371.937152">7.00</text>
     </g>
    </g>
    <g id="text_19">
     <text style="font-family:DejaVu Sans;font-size:10px;font-stretch:normal;font-style:normal;font-weight:normal;text-anchor:middle;" transform="rotate(-90, 14.798438, 1165.72)" x="14.798438" y="1165.72">ping_day[ms]</text>
    </g>
   </g>
   <g id="line2d_18">
    <path clip-path="url(#p6fa24ff58a)" d="M 131.585511 1561.204308 
L 152.3967 1652.029021 
L 173.207889 1236.704363 
L 194.019078 1439.516829 
L 214.830267 1729.626834 
L 235.641455 1108.84433 
L 256.452644 1115.898677 
L 277.263833 1381.318469 
L 298.075022 1861.895834 
L 318.886211 1972.12 
L 339.697399 1288.730169 
L 360.508588 1413.944822 
L 381.319777 1558.558928 
L 402.130966 1561.204308 
L 422.942155 1843.378174 
L 443.753344 1508.296709 
L 464.564532 1690.827928 
L 485.375721 1443.925796 
L 506.18691 1333.701629 
L 526.998099 1365.446189 
L 547.809288 1580.603762 
L 568.620476 1742.853734 
L 589.431665 1811.633614 
L 610.242854 1707.582001 
L 631.054043 1672.310268 
L 651.865232 1962.420273 
L 672.67642 1531.223335 
L 693.487609 1610.584735 
L 714.298798 1660.846955 
L 735.109987 1677.601028 
L 755.921176 1822.215134 
L 776.732365 1764.016774 
L 797.543553 1798.406714 
L 818.354742 1733.154008 
L 839.165931 1621.166255 
L 859.97712 1441.280416 
L 880.788309 1547.095615 
L 901.599497 1941.257233 
L 922.410686 1679.364615 
L 943.221875 1689.946134 
L 964.033064 1588.539902 
L 984.844253 1766.662154 
L 1005.655441 1837.205621 
L 1026.46663 1651.147228 
L 1047.277819 1828.387687 
L 1068.089008 1457.152695 
L 1088.900197 1964.18386 
L 1109.711385 1615.875495 
L 1130.522574 1459.798075 
L 1151.333763 1643.211088 
L 1172.144952 1762.253188 
L 1192.956141 1379.554882 
L 1213.76733 1519.760022 
L 1234.578518 1488.897255 
L 1255.389707 1429.817102 
L 1276.200896 1591.185282 
L 1297.012085 1784.298021 
L 1317.823274 1774.598294 
L 1338.634462 1586.776315 
L 1359.445651 1521.523609 
L 1380.25684 1471.261389 
L 1401.068029 1350.455703 
L 1421.879218 1721.690694 
L 1442.690406 1450.980142 
L 1463.501595 1679.364615 
L 1484.312784 1753.435254 
L 1505.123973 1257.867403 
L 1525.935162 1550.622788 
L 1546.746351 1600.885008 
L 1567.557539 1618.520875 
L 1588.368728 1684.655375 
L 1609.179917 1287.848376 
L 1629.991106 1729.626834 
L 1650.802295 1659.965161 
L 1671.613483 1342.519563 
L 1692.424672 1637.920328 
L 1713.235861 1791.352367 
L 1734.04705 1468.616009 
L 1754.858239 359.32 
" style="fill:none;stroke:#0000ff;stroke-linecap:square;stroke-width:1.5;"/>
   </g>
   <g id="patch_3">
    <path d="M 50.421875 2052.76 
L 50.421875 278.68 
" style="fill:none;stroke:#000000;stroke-linecap:square;stroke-linejoin:miter;stroke-width:0.8;"/>
   </g>
   <g id="patch_4">
    <path d="M 1836.021875 2052.76 
L 1836.021875 278.68 
" style="fill:none;stroke:#000000;stroke-linecap:square;stroke-linejoin:miter;stroke-width:0.8;"/>
   </g>
   <g id="patch_5">
    <path d="M 50.421875 2052.76 
L 1836.021875 2052.76 
" style="fill:none;stroke:#000000;stroke-linecap:square;stroke-linejoin:miter;stroke-width:0.8;"/>
   </g>
   <g id="patch_6">
    <path d="M 50.421875 278.68 
L 1836.021875 278.68 
" style="fill:none;stroke:#000000;stroke-linecap:square;stroke-linejoin:miter;stroke-width:0.8;"/>
   </g>
   <g id="text_20">
    <text style="font-family:DejaVu Sans;font-size:12px;font-stretch:normal;font-style:normal;font-weight:normal;text-anchor:middle;" transform="rotate(-0, 943.221875, 272.68)" x="943.221875" y="272.68">humidity-&gt;ping_day</text>
   </g>
  </g>
  <g id="legend_1">
   <g id="patch_7">
    <path d="M 1961.660937 22.95625 
L 2061.621875 22.95625 
Q 2063.621875 22.95625 2063.621875 20.95625 
L 2063.621875 7 
Q 2063.621875 5 2061.621875 5 
L 1961.660937 5 
Q 1959.660937 5 1959.660937 7 
L 1959.660937 20.95625 
Q 1959.660937 22.95625 1961.660937 22.95625 
z
" style="fill:#ffffff;opacity:0.8;stroke:#cccccc;stroke-linejoin:miter;"/>
   </g>
   <g id="line2d_19">
    <path d="M 1963.660937 13.098438 
L 1983.660937 13.098438 
" style="fill:none;stroke:#0000ff;stroke-linecap:square;stroke-width:1.5;"/>
   </g>
   <g id="line2d_20"/>
   <g id="text_21">
    <text style="font-family:DejaVu Sans;font-size:10px;font-stretch:normal;font-style:normal;font-weight:normal;text-anchor:start;" transform="rotate(-0, 1991.660937, 16.598438)" x="1991.660937" y="16.598438">ping_day[ms]</text>
   </g>
  </g>
 </g>
 <defs>
  <clipPath id="p6fa24ff58a">
   <rect height="1774.08" width="1785.6" x="50.421875" y="278.68"/>
  </clipPath>
 </defs>
</svg>
