<?xml version="1.0" encoding="utf-8" standalone="no"?>
<!DOCTYPE svg PUBLIC "-//W3C//DTD SVG 1.1//EN"
  "http://www.w3.org/Graphics/SVG/1.1/DTD/svg11.dtd">
<!-- Created with matplotlib (https://matplotlib.org/) -->
<svg height="345.6pt" version="1.1" viewBox="0 0 460.8 345.6" width="460.8pt" xmlns="http://www.w3.org/2000/svg" xmlns:xlink="http://www.w3.org/1999/xlink">
 <metadata>
  <rdf:RDF xmlns:cc="http://creativecommons.org/ns#" xmlns:dc="http://purl.org/dc/elements/1.1/" xmlns:rdf="http://www.w3.org/1999/02/22-rdf-syntax-ns#">
   <cc:Work>
    <dc:type rdf:resource="http://purl.org/dc/dcmitype/StillImage"/>
    <dc:date>2022-07-16T17:57:08.163146</dc:date>
    <dc:format>image/svg+xml</dc:format>
    <dc:creator>
     <cc:Agent>
      <dc:title>Matplotlib v3.3.2, https://matplotlib.org/</dc:title>
     </cc:Agent>
    </dc:creator>
   </cc:Work>
  </rdf:RDF>
 </metadata>
 <defs>
  <style type="text/css">*{stroke-linecap:butt;stroke-linejoin:round;}</style>
 </defs>
 <g id="figure_1">
  <g id="patch_1">
   <path d="M 0 345.6 
L 460.8 345.6 
L 460.8 0 
L 0 0 
z
" style="fill:#ffffff;"/>
  </g>
  <g id="axes_1">
   <g id="patch_2">
    <path d="M 57.6 307.584 
L 414.72 307.584 
L 414.72 41.472 
L 57.6 41.472 
z
" style="fill:#ffffff;"/>
   </g>
   <g id="matplotlib.axis_1">
    <g id="xtick_1">
     <g id="line2d_1">
      <defs>
       <path d="M 0 0 
L 0 3.5 
" id="md978428db5" style="stroke:#000000;stroke-width:0.8;"/>
      </defs>
      <g>
       <use style="stroke:#000000;stroke-width:0.8;" x="63.154435" xlink:href="#md978428db5" y="307.584"/>
      </g>
     </g>
     <g id="text_1">
      <!-- 1005.0 -->
      <g transform="translate(45.659122 322.182437)scale(0.1 -0.1)">
       <defs>
        <path d="M 12.40625 8.296875 
L 28.515625 8.296875 
L 28.515625 63.921875 
L 10.984375 60.40625 
L 10.984375 69.390625 
L 28.421875 72.90625 
L 38.28125 72.90625 
L 38.28125 8.296875 
L 54.390625 8.296875 
L 54.390625 0 
L 12.40625 0 
z
" id="DejaVuSans-49"/>
        <path d="M 31.78125 66.40625 
Q 24.171875 66.40625 20.328125 58.90625 
Q 16.5 51.421875 16.5 36.375 
Q 16.5 21.390625 20.328125 13.890625 
Q 24.171875 6.390625 31.78125 6.390625 
Q 39.453125 6.390625 43.28125 13.890625 
Q 47.125 21.390625 47.125 36.375 
Q 47.125 51.421875 43.28125 58.90625 
Q 39.453125 66.40625 31.78125 66.40625 
z
M 31.78125 74.21875 
Q 44.046875 74.21875 50.515625 64.515625 
Q 56.984375 54.828125 56.984375 36.375 
Q 56.984375 17.96875 50.515625 8.265625 
Q 44.046875 -1.421875 31.78125 -1.421875 
Q 19.53125 -1.421875 13.0625 8.265625 
Q 6.59375 17.96875 6.59375 36.375 
Q 6.59375 54.828125 13.0625 64.515625 
Q 19.53125 74.21875 31.78125 74.21875 
z
" id="DejaVuSans-48"/>
        <path d="M 10.796875 72.90625 
L 49.515625 72.90625 
L 49.515625 64.59375 
L 19.828125 64.59375 
L 19.828125 46.734375 
Q 21.96875 47.46875 24.109375 47.828125 
Q 26.265625 48.1875 28.421875 48.1875 
Q 40.625 48.1875 47.75 41.5 
Q 54.890625 34.8125 54.890625 23.390625 
Q 54.890625 11.625 47.5625 5.09375 
Q 40.234375 -1.421875 26.90625 -1.421875 
Q 22.3125 -1.421875 17.546875 -0.640625 
Q 12.796875 0.140625 7.71875 1.703125 
L 7.71875 11.625 
Q 12.109375 9.234375 16.796875 8.0625 
Q 21.484375 6.890625 26.703125 6.890625 
Q 35.15625 6.890625 40.078125 11.328125 
Q 45.015625 15.765625 45.015625 23.390625 
Q 45.015625 31 40.078125 35.4375 
Q 35.15625 39.890625 26.703125 39.890625 
Q 22.75 39.890625 18.8125 39.015625 
Q 14.890625 38.140625 10.796875 36.28125 
z
" id="DejaVuSans-53"/>
        <path d="M 10.6875 12.40625 
L 21 12.40625 
L 21 0 
L 10.6875 0 
z
" id="DejaVuSans-46"/>
       </defs>
       <use xlink:href="#DejaVuSans-49"/>
       <use x="63.623047" xlink:href="#DejaVuSans-48"/>
       <use x="127.246094" xlink:href="#DejaVuSans-48"/>
       <use x="190.869141" xlink:href="#DejaVuSans-53"/>
       <use x="254.492188" xlink:href="#DejaVuSans-46"/>
       <use x="286.279297" xlink:href="#DejaVuSans-48"/>
      </g>
     </g>
    </g>
    <g id="xtick_2">
     <g id="line2d_2">
      <g>
       <use style="stroke:#000000;stroke-width:0.8;" x="106.212067" xlink:href="#md978428db5" y="307.584"/>
      </g>
     </g>
     <g id="text_2">
      <!-- 1007.5 -->
      <g transform="translate(88.716754 322.182437)scale(0.1 -0.1)">
       <defs>
        <path d="M 8.203125 72.90625 
L 55.078125 72.90625 
L 55.078125 68.703125 
L 28.609375 0 
L 18.3125 0 
L 43.21875 64.59375 
L 8.203125 64.59375 
z
" id="DejaVuSans-55"/>
       </defs>
       <use xlink:href="#DejaVuSans-49"/>
       <use x="63.623047" xlink:href="#DejaVuSans-48"/>
       <use x="127.246094" xlink:href="#DejaVuSans-48"/>
       <use x="190.869141" xlink:href="#DejaVuSans-55"/>
       <use x="254.492188" xlink:href="#DejaVuSans-46"/>
       <use x="286.279297" xlink:href="#DejaVuSans-53"/>
      </g>
     </g>
    </g>
    <g id="xtick_3">
     <g id="line2d_3">
      <g>
       <use style="stroke:#000000;stroke-width:0.8;" x="149.269699" xlink:href="#md978428db5" y="307.584"/>
      </g>
     </g>
     <g id="text_3">
      <!-- 1010.0 -->
      <g transform="translate(131.774386 322.182437)scale(0.1 -0.1)">
       <use xlink:href="#DejaVuSans-49"/>
       <use x="63.623047" xlink:href="#DejaVuSans-48"/>
       <use x="127.246094" xlink:href="#DejaVuSans-49"/>
       <use x="190.869141" xlink:href="#DejaVuSans-48"/>
       <use x="254.492188" xlink:href="#DejaVuSans-46"/>
       <use x="286.279297" xlink:href="#DejaVuSans-48"/>
      </g>
     </g>
    </g>
    <g id="xtick_4">
     <g id="line2d_4">
      <g>
       <use style="stroke:#000000;stroke-width:0.8;" x="192.327331" xlink:href="#md978428db5" y="307.584"/>
      </g>
     </g>
     <g id="text_4">
      <!-- 1012.5 -->
      <g transform="translate(174.832018 322.182437)scale(0.1 -0.1)">
       <defs>
        <path d="M 19.1875 8.296875 
L 53.609375 8.296875 
L 53.609375 0 
L 7.328125 0 
L 7.328125 8.296875 
Q 12.9375 14.109375 22.625 23.890625 
Q 32.328125 33.6875 34.8125 36.53125 
Q 39.546875 41.84375 41.421875 45.53125 
Q 43.3125 49.21875 43.3125 52.78125 
Q 43.3125 58.59375 39.234375 62.25 
Q 35.15625 65.921875 28.609375 65.921875 
Q 23.96875 65.921875 18.8125 64.3125 
Q 13.671875 62.703125 7.8125 59.421875 
L 7.8125 69.390625 
Q 13.765625 71.78125 18.9375 73 
Q 24.125 74.21875 28.421875 74.21875 
Q 39.75 74.21875 46.484375 68.546875 
Q 53.21875 62.890625 53.21875 53.421875 
Q 53.21875 48.921875 51.53125 44.890625 
Q 49.859375 40.875 45.40625 35.40625 
Q 44.1875 33.984375 37.640625 27.21875 
Q 31.109375 20.453125 19.1875 8.296875 
z
" id="DejaVuSans-50"/>
       </defs>
       <use xlink:href="#DejaVuSans-49"/>
       <use x="63.623047" xlink:href="#DejaVuSans-48"/>
       <use x="127.246094" xlink:href="#DejaVuSans-49"/>
       <use x="190.869141" xlink:href="#DejaVuSans-50"/>
       <use x="254.492188" xlink:href="#DejaVuSans-46"/>
       <use x="286.279297" xlink:href="#DejaVuSans-53"/>
      </g>
     </g>
    </g>
    <g id="xtick_5">
     <g id="line2d_5">
      <g>
       <use style="stroke:#000000;stroke-width:0.8;" x="235.384963" xlink:href="#md978428db5" y="307.584"/>
      </g>
     </g>
     <g id="text_5">
      <!-- 1015.0 -->
      <g transform="translate(217.88965 322.182437)scale(0.1 -0.1)">
       <use xlink:href="#DejaVuSans-49"/>
       <use x="63.623047" xlink:href="#DejaVuSans-48"/>
       <use x="127.246094" xlink:href="#DejaVuSans-49"/>
       <use x="190.869141" xlink:href="#DejaVuSans-53"/>
       <use x="254.492188" xlink:href="#DejaVuSans-46"/>
       <use x="286.279297" xlink:href="#DejaVuSans-48"/>
      </g>
     </g>
    </g>
    <g id="xtick_6">
     <g id="line2d_6">
      <g>
       <use style="stroke:#000000;stroke-width:0.8;" x="278.442595" xlink:href="#md978428db5" y="307.584"/>
      </g>
     </g>
     <g id="text_6">
      <!-- 1017.5 -->
      <g transform="translate(260.947282 322.182437)scale(0.1 -0.1)">
       <use xlink:href="#DejaVuSans-49"/>
       <use x="63.623047" xlink:href="#DejaVuSans-48"/>
       <use x="127.246094" xlink:href="#DejaVuSans-49"/>
       <use x="190.869141" xlink:href="#DejaVuSans-55"/>
       <use x="254.492188" xlink:href="#DejaVuSans-46"/>
       <use x="286.279297" xlink:href="#DejaVuSans-53"/>
      </g>
     </g>
    </g>
    <g id="xtick_7">
     <g id="line2d_7">
      <g>
       <use style="stroke:#000000;stroke-width:0.8;" x="321.500227" xlink:href="#md978428db5" y="307.584"/>
      </g>
     </g>
     <g id="text_7">
      <!-- 1020.0 -->
      <g transform="translate(304.004914 322.182437)scale(0.1 -0.1)">
       <use xlink:href="#DejaVuSans-49"/>
       <use x="63.623047" xlink:href="#DejaVuSans-48"/>
       <use x="127.246094" xlink:href="#DejaVuSans-50"/>
       <use x="190.869141" xlink:href="#DejaVuSans-48"/>
       <use x="254.492188" xlink:href="#DejaVuSans-46"/>
       <use x="286.279297" xlink:href="#DejaVuSans-48"/>
      </g>
     </g>
    </g>
    <g id="xtick_8">
     <g id="line2d_8">
      <g>
       <use style="stroke:#000000;stroke-width:0.8;" x="364.557859" xlink:href="#md978428db5" y="307.584"/>
      </g>
     </g>
     <g id="text_8">
      <!-- 1022.5 -->
      <g transform="translate(347.062546 322.182437)scale(0.1 -0.1)">
       <use xlink:href="#DejaVuSans-49"/>
       <use x="63.623047" xlink:href="#DejaVuSans-48"/>
       <use x="127.246094" xlink:href="#DejaVuSans-50"/>
       <use x="190.869141" xlink:href="#DejaVuSans-50"/>
       <use x="254.492188" xlink:href="#DejaVuSans-46"/>
       <use x="286.279297" xlink:href="#DejaVuSans-53"/>
      </g>
     </g>
    </g>
    <g id="xtick_9">
     <g id="line2d_9">
      <g>
       <use style="stroke:#000000;stroke-width:0.8;" x="407.615491" xlink:href="#md978428db5" y="307.584"/>
      </g>
     </g>
     <g id="text_9">
      <!-- 1025.0 -->
      <g transform="translate(390.120178 322.182437)scale(0.1 -0.1)">
       <use xlink:href="#DejaVuSans-49"/>
       <use x="63.623047" xlink:href="#DejaVuSans-48"/>
       <use x="127.246094" xlink:href="#DejaVuSans-50"/>
       <use x="190.869141" xlink:href="#DejaVuSans-53"/>
       <use x="254.492188" xlink:href="#DejaVuSans-46"/>
       <use x="286.279297" xlink:href="#DejaVuSans-48"/>
      </g>
     </g>
    </g>
    <g id="text_10">
     <!-- air_pressure from Foreca -->
     <g transform="translate(174.162344 335.860562)scale(0.1 -0.1)">
      <defs>
       <path d="M 34.28125 27.484375 
Q 23.390625 27.484375 19.1875 25 
Q 14.984375 22.515625 14.984375 16.5 
Q 14.984375 11.71875 18.140625 8.90625 
Q 21.296875 6.109375 26.703125 6.109375 
Q 34.1875 6.109375 38.703125 11.40625 
Q 43.21875 16.703125 43.21875 25.484375 
L 43.21875 27.484375 
z
M 52.203125 31.203125 
L 52.203125 0 
L 43.21875 0 
L 43.21875 8.296875 
Q 40.140625 3.328125 35.546875 0.953125 
Q 30.953125 -1.421875 24.3125 -1.421875 
Q 15.921875 -1.421875 10.953125 3.296875 
Q 6 8.015625 6 15.921875 
Q 6 25.140625 12.171875 29.828125 
Q 18.359375 34.515625 30.609375 34.515625 
L 43.21875 34.515625 
L 43.21875 35.40625 
Q 43.21875 41.609375 39.140625 45 
Q 35.0625 48.390625 27.6875 48.390625 
Q 23 48.390625 18.546875 47.265625 
Q 14.109375 46.140625 10.015625 43.890625 
L 10.015625 52.203125 
Q 14.9375 54.109375 19.578125 55.046875 
Q 24.21875 56 28.609375 56 
Q 40.484375 56 46.34375 49.84375 
Q 52.203125 43.703125 52.203125 31.203125 
z
" id="DejaVuSans-97"/>
       <path d="M 9.421875 54.6875 
L 18.40625 54.6875 
L 18.40625 0 
L 9.421875 0 
z
M 9.421875 75.984375 
L 18.40625 75.984375 
L 18.40625 64.59375 
L 9.421875 64.59375 
z
" id="DejaVuSans-105"/>
       <path d="M 41.109375 46.296875 
Q 39.59375 47.171875 37.8125 47.578125 
Q 36.03125 48 33.890625 48 
Q 26.265625 48 22.1875 43.046875 
Q 18.109375 38.09375 18.109375 28.8125 
L 18.109375 0 
L 9.078125 0 
L 9.078125 54.6875 
L 18.109375 54.6875 
L 18.109375 46.1875 
Q 20.953125 51.171875 25.484375 53.578125 
Q 30.03125 56 36.53125 56 
Q 37.453125 56 38.578125 55.875 
Q 39.703125 55.765625 41.0625 55.515625 
z
" id="DejaVuSans-114"/>
       <path d="M 50.984375 -16.609375 
L 50.984375 -23.578125 
L -0.984375 -23.578125 
L -0.984375 -16.609375 
z
" id="DejaVuSans-95"/>
       <path d="M 18.109375 8.203125 
L 18.109375 -20.796875 
L 9.078125 -20.796875 
L 9.078125 54.6875 
L 18.109375 54.6875 
L 18.109375 46.390625 
Q 20.953125 51.265625 25.265625 53.625 
Q 29.59375 56 35.59375 56 
Q 45.5625 56 51.78125 48.09375 
Q 58.015625 40.1875 58.015625 27.296875 
Q 58.015625 14.40625 51.78125 6.484375 
Q 45.5625 -1.421875 35.59375 -1.421875 
Q 29.59375 -1.421875 25.265625 0.953125 
Q 20.953125 3.328125 18.109375 8.203125 
z
M 48.6875 27.296875 
Q 48.6875 37.203125 44.609375 42.84375 
Q 40.53125 48.484375 33.40625 48.484375 
Q 26.265625 48.484375 22.1875 42.84375 
Q 18.109375 37.203125 18.109375 27.296875 
Q 18.109375 17.390625 22.1875 11.75 
Q 26.265625 6.109375 33.40625 6.109375 
Q 40.53125 6.109375 44.609375 11.75 
Q 48.6875 17.390625 48.6875 27.296875 
z
" id="DejaVuSans-112"/>
       <path d="M 56.203125 29.59375 
L 56.203125 25.203125 
L 14.890625 25.203125 
Q 15.484375 15.921875 20.484375 11.0625 
Q 25.484375 6.203125 34.421875 6.203125 
Q 39.59375 6.203125 44.453125 7.46875 
Q 49.3125 8.734375 54.109375 11.28125 
L 54.109375 2.78125 
Q 49.265625 0.734375 44.1875 -0.34375 
Q 39.109375 -1.421875 33.890625 -1.421875 
Q 20.796875 -1.421875 13.15625 6.1875 
Q 5.515625 13.8125 5.515625 26.8125 
Q 5.515625 40.234375 12.765625 48.109375 
Q 20.015625 56 32.328125 56 
Q 43.359375 56 49.78125 48.890625 
Q 56.203125 41.796875 56.203125 29.59375 
z
M 47.21875 32.234375 
Q 47.125 39.59375 43.09375 43.984375 
Q 39.0625 48.390625 32.421875 48.390625 
Q 24.90625 48.390625 20.390625 44.140625 
Q 15.875 39.890625 15.1875 32.171875 
z
" id="DejaVuSans-101"/>
       <path d="M 44.28125 53.078125 
L 44.28125 44.578125 
Q 40.484375 46.53125 36.375 47.5 
Q 32.28125 48.484375 27.875 48.484375 
Q 21.1875 48.484375 17.84375 46.4375 
Q 14.5 44.390625 14.5 40.28125 
Q 14.5 37.15625 16.890625 35.375 
Q 19.28125 33.59375 26.515625 31.984375 
L 29.59375 31.296875 
Q 39.15625 29.25 43.1875 25.515625 
Q 47.21875 21.78125 47.21875 15.09375 
Q 47.21875 7.46875 41.1875 3.015625 
Q 35.15625 -1.421875 24.609375 -1.421875 
Q 20.21875 -1.421875 15.453125 -0.5625 
Q 10.6875 0.296875 5.421875 2 
L 5.421875 11.28125 
Q 10.40625 8.6875 15.234375 7.390625 
Q 20.0625 6.109375 24.8125 6.109375 
Q 31.15625 6.109375 34.5625 8.28125 
Q 37.984375 10.453125 37.984375 14.40625 
Q 37.984375 18.0625 35.515625 20.015625 
Q 33.0625 21.96875 24.703125 23.78125 
L 21.578125 24.515625 
Q 13.234375 26.265625 9.515625 29.90625 
Q 5.8125 33.546875 5.8125 39.890625 
Q 5.8125 47.609375 11.28125 51.796875 
Q 16.75 56 26.8125 56 
Q 31.78125 56 36.171875 55.265625 
Q 40.578125 54.546875 44.28125 53.078125 
z
" id="DejaVuSans-115"/>
       <path d="M 8.5 21.578125 
L 8.5 54.6875 
L 17.484375 54.6875 
L 17.484375 21.921875 
Q 17.484375 14.15625 20.5 10.265625 
Q 23.53125 6.390625 29.59375 6.390625 
Q 36.859375 6.390625 41.078125 11.03125 
Q 45.3125 15.671875 45.3125 23.6875 
L 45.3125 54.6875 
L 54.296875 54.6875 
L 54.296875 0 
L 45.3125 0 
L 45.3125 8.40625 
Q 42.046875 3.421875 37.71875 1 
Q 33.40625 -1.421875 27.6875 -1.421875 
Q 18.265625 -1.421875 13.375 4.4375 
Q 8.5 10.296875 8.5 21.578125 
z
M 31.109375 56 
z
" id="DejaVuSans-117"/>
       <path id="DejaVuSans-32"/>
       <path d="M 37.109375 75.984375 
L 37.109375 68.5 
L 28.515625 68.5 
Q 23.6875 68.5 21.796875 66.546875 
Q 19.921875 64.59375 19.921875 59.515625 
L 19.921875 54.6875 
L 34.71875 54.6875 
L 34.71875 47.703125 
L 19.921875 47.703125 
L 19.921875 0 
L 10.890625 0 
L 10.890625 47.703125 
L 2.296875 47.703125 
L 2.296875 54.6875 
L 10.890625 54.6875 
L 10.890625 58.5 
Q 10.890625 67.625 15.140625 71.796875 
Q 19.390625 75.984375 28.609375 75.984375 
z
" id="DejaVuSans-102"/>
       <path d="M 30.609375 48.390625 
Q 23.390625 48.390625 19.1875 42.75 
Q 14.984375 37.109375 14.984375 27.296875 
Q 14.984375 17.484375 19.15625 11.84375 
Q 23.34375 6.203125 30.609375 6.203125 
Q 37.796875 6.203125 41.984375 11.859375 
Q 46.1875 17.53125 46.1875 27.296875 
Q 46.1875 37.015625 41.984375 42.703125 
Q 37.796875 48.390625 30.609375 48.390625 
z
M 30.609375 56 
Q 42.328125 56 49.015625 48.375 
Q 55.71875 40.765625 55.71875 27.296875 
Q 55.71875 13.875 49.015625 6.21875 
Q 42.328125 -1.421875 30.609375 -1.421875 
Q 18.84375 -1.421875 12.171875 6.21875 
Q 5.515625 13.875 5.515625 27.296875 
Q 5.515625 40.765625 12.171875 48.375 
Q 18.84375 56 30.609375 56 
z
" id="DejaVuSans-111"/>
       <path d="M 52 44.1875 
Q 55.375 50.25 60.0625 53.125 
Q 64.75 56 71.09375 56 
Q 79.640625 56 84.28125 50.015625 
Q 88.921875 44.046875 88.921875 33.015625 
L 88.921875 0 
L 79.890625 0 
L 79.890625 32.71875 
Q 79.890625 40.578125 77.09375 44.375 
Q 74.3125 48.1875 68.609375 48.1875 
Q 61.625 48.1875 57.5625 43.546875 
Q 53.515625 38.921875 53.515625 30.90625 
L 53.515625 0 
L 44.484375 0 
L 44.484375 32.71875 
Q 44.484375 40.625 41.703125 44.40625 
Q 38.921875 48.1875 33.109375 48.1875 
Q 26.21875 48.1875 22.15625 43.53125 
Q 18.109375 38.875 18.109375 30.90625 
L 18.109375 0 
L 9.078125 0 
L 9.078125 54.6875 
L 18.109375 54.6875 
L 18.109375 46.1875 
Q 21.1875 51.21875 25.484375 53.609375 
Q 29.78125 56 35.6875 56 
Q 41.65625 56 45.828125 52.96875 
Q 50 49.953125 52 44.1875 
z
" id="DejaVuSans-109"/>
       <path d="M 9.8125 72.90625 
L 51.703125 72.90625 
L 51.703125 64.59375 
L 19.671875 64.59375 
L 19.671875 43.109375 
L 48.578125 43.109375 
L 48.578125 34.8125 
L 19.671875 34.8125 
L 19.671875 0 
L 9.8125 0 
z
" id="DejaVuSans-70"/>
       <path d="M 48.78125 52.59375 
L 48.78125 44.1875 
Q 44.96875 46.296875 41.140625 47.34375 
Q 37.3125 48.390625 33.40625 48.390625 
Q 24.65625 48.390625 19.8125 42.84375 
Q 14.984375 37.3125 14.984375 27.296875 
Q 14.984375 17.28125 19.8125 11.734375 
Q 24.65625 6.203125 33.40625 6.203125 
Q 37.3125 6.203125 41.140625 7.25 
Q 44.96875 8.296875 48.78125 10.40625 
L 48.78125 2.09375 
Q 45.015625 0.34375 40.984375 -0.53125 
Q 36.96875 -1.421875 32.421875 -1.421875 
Q 20.0625 -1.421875 12.78125 6.34375 
Q 5.515625 14.109375 5.515625 27.296875 
Q 5.515625 40.671875 12.859375 48.328125 
Q 20.21875 56 33.015625 56 
Q 37.15625 56 41.109375 55.140625 
Q 45.0625 54.296875 48.78125 52.59375 
z
" id="DejaVuSans-99"/>
      </defs>
      <use xlink:href="#DejaVuSans-97"/>
      <use x="61.279297" xlink:href="#DejaVuSans-105"/>
      <use x="89.0625" xlink:href="#DejaVuSans-114"/>
      <use x="130.175781" xlink:href="#DejaVuSans-95"/>
      <use x="180.175781" xlink:href="#DejaVuSans-112"/>
      <use x="243.652344" xlink:href="#DejaVuSans-114"/>
      <use x="282.515625" xlink:href="#DejaVuSans-101"/>
      <use x="344.039062" xlink:href="#DejaVuSans-115"/>
      <use x="396.138672" xlink:href="#DejaVuSans-115"/>
      <use x="448.238281" xlink:href="#DejaVuSans-117"/>
      <use x="511.617188" xlink:href="#DejaVuSans-114"/>
      <use x="550.480469" xlink:href="#DejaVuSans-101"/>
      <use x="612.003906" xlink:href="#DejaVuSans-32"/>
      <use x="643.791016" xlink:href="#DejaVuSans-102"/>
      <use x="678.996094" xlink:href="#DejaVuSans-114"/>
      <use x="717.859375" xlink:href="#DejaVuSans-111"/>
      <use x="779.041016" xlink:href="#DejaVuSans-109"/>
      <use x="876.453125" xlink:href="#DejaVuSans-32"/>
      <use x="908.240234" xlink:href="#DejaVuSans-70"/>
      <use x="962.134766" xlink:href="#DejaVuSans-111"/>
      <use x="1023.316406" xlink:href="#DejaVuSans-114"/>
      <use x="1062.179688" xlink:href="#DejaVuSans-101"/>
      <use x="1123.703125" xlink:href="#DejaVuSans-99"/>
      <use x="1178.683594" xlink:href="#DejaVuSans-97"/>
     </g>
    </g>
   </g>
   <g id="matplotlib.axis_2">
    <g id="ytick_1">
     <g id="line2d_10">
      <defs>
       <path d="M 0 0 
L -3.5 0 
" id="m1d2685373c" style="stroke:#000000;stroke-width:0.8;"/>
      </defs>
      <g>
       <use style="stroke:#000000;stroke-width:0.8;" x="57.6" xlink:href="#m1d2685373c" y="296.018737"/>
      </g>
     </g>
     <g id="text_11">
      <!-- 5 -->
      <g transform="translate(44.2375 299.817955)scale(0.1 -0.1)">
       <use xlink:href="#DejaVuSans-53"/>
      </g>
     </g>
    </g>
    <g id="ytick_2">
     <g id="line2d_11">
      <g>
       <use style="stroke:#000000;stroke-width:0.8;" x="57.6" xlink:href="#m1d2685373c" y="264.046649"/>
      </g>
     </g>
     <g id="text_12">
      <!-- 10 -->
      <g transform="translate(37.875 267.845868)scale(0.1 -0.1)">
       <use xlink:href="#DejaVuSans-49"/>
       <use x="63.623047" xlink:href="#DejaVuSans-48"/>
      </g>
     </g>
    </g>
    <g id="ytick_3">
     <g id="line2d_12">
      <g>
       <use style="stroke:#000000;stroke-width:0.8;" x="57.6" xlink:href="#m1d2685373c" y="232.074561"/>
      </g>
     </g>
     <g id="text_13">
      <!-- 15 -->
      <g transform="translate(37.875 235.87378)scale(0.1 -0.1)">
       <use xlink:href="#DejaVuSans-49"/>
       <use x="63.623047" xlink:href="#DejaVuSans-53"/>
      </g>
     </g>
    </g>
    <g id="ytick_4">
     <g id="line2d_13">
      <g>
       <use style="stroke:#000000;stroke-width:0.8;" x="57.6" xlink:href="#m1d2685373c" y="200.102473"/>
      </g>
     </g>
     <g id="text_14">
      <!-- 20 -->
      <g transform="translate(37.875 203.901692)scale(0.1 -0.1)">
       <use xlink:href="#DejaVuSans-50"/>
       <use x="63.623047" xlink:href="#DejaVuSans-48"/>
      </g>
     </g>
    </g>
    <g id="ytick_5">
     <g id="line2d_14">
      <g>
       <use style="stroke:#000000;stroke-width:0.8;" x="57.6" xlink:href="#m1d2685373c" y="168.130385"/>
      </g>
     </g>
     <g id="text_15">
      <!-- 25 -->
      <g transform="translate(37.875 171.929604)scale(0.1 -0.1)">
       <use xlink:href="#DejaVuSans-50"/>
       <use x="63.623047" xlink:href="#DejaVuSans-53"/>
      </g>
     </g>
    </g>
    <g id="ytick_6">
     <g id="line2d_15">
      <g>
       <use style="stroke:#000000;stroke-width:0.8;" x="57.6" xlink:href="#m1d2685373c" y="136.158297"/>
      </g>
     </g>
     <g id="text_16">
      <!-- 30 -->
      <g transform="translate(37.875 139.957516)scale(0.1 -0.1)">
       <defs>
        <path d="M 40.578125 39.3125 
Q 47.65625 37.796875 51.625 33 
Q 55.609375 28.21875 55.609375 21.1875 
Q 55.609375 10.40625 48.1875 4.484375 
Q 40.765625 -1.421875 27.09375 -1.421875 
Q 22.515625 -1.421875 17.65625 -0.515625 
Q 12.796875 0.390625 7.625 2.203125 
L 7.625 11.71875 
Q 11.71875 9.328125 16.59375 8.109375 
Q 21.484375 6.890625 26.8125 6.890625 
Q 36.078125 6.890625 40.9375 10.546875 
Q 45.796875 14.203125 45.796875 21.1875 
Q 45.796875 27.640625 41.28125 31.265625 
Q 36.765625 34.90625 28.71875 34.90625 
L 20.21875 34.90625 
L 20.21875 43.015625 
L 29.109375 43.015625 
Q 36.375 43.015625 40.234375 45.921875 
Q 44.09375 48.828125 44.09375 54.296875 
Q 44.09375 59.90625 40.109375 62.90625 
Q 36.140625 65.921875 28.71875 65.921875 
Q 24.65625 65.921875 20.015625 65.03125 
Q 15.375 64.15625 9.8125 62.3125 
L 9.8125 71.09375 
Q 15.4375 72.65625 20.34375 73.4375 
Q 25.25 74.21875 29.59375 74.21875 
Q 40.828125 74.21875 47.359375 69.109375 
Q 53.90625 64.015625 53.90625 55.328125 
Q 53.90625 49.265625 50.4375 45.09375 
Q 46.96875 40.921875 40.578125 39.3125 
z
" id="DejaVuSans-51"/>
       </defs>
       <use xlink:href="#DejaVuSans-51"/>
       <use x="63.623047" xlink:href="#DejaVuSans-48"/>
      </g>
     </g>
    </g>
    <g id="ytick_7">
     <g id="line2d_16">
      <g>
       <use style="stroke:#000000;stroke-width:0.8;" x="57.6" xlink:href="#m1d2685373c" y="104.186209"/>
      </g>
     </g>
     <g id="text_17">
      <!-- 35 -->
      <g transform="translate(37.875 107.985428)scale(0.1 -0.1)">
       <use xlink:href="#DejaVuSans-51"/>
       <use x="63.623047" xlink:href="#DejaVuSans-53"/>
      </g>
     </g>
    </g>
    <g id="ytick_8">
     <g id="line2d_17">
      <g>
       <use style="stroke:#000000;stroke-width:0.8;" x="57.6" xlink:href="#m1d2685373c" y="72.214122"/>
      </g>
     </g>
     <g id="text_18">
      <!-- 40 -->
      <g transform="translate(37.875 76.01334)scale(0.1 -0.1)">
       <defs>
        <path d="M 37.796875 64.3125 
L 12.890625 25.390625 
L 37.796875 25.390625 
z
M 35.203125 72.90625 
L 47.609375 72.90625 
L 47.609375 25.390625 
L 58.015625 25.390625 
L 58.015625 17.1875 
L 47.609375 17.1875 
L 47.609375 0 
L 37.796875 0 
L 37.796875 17.1875 
L 4.890625 17.1875 
L 4.890625 26.703125 
z
" id="DejaVuSans-52"/>
       </defs>
       <use xlink:href="#DejaVuSans-52"/>
       <use x="63.623047" xlink:href="#DejaVuSans-48"/>
      </g>
     </g>
    </g>
   </g>
   <g id="line2d_18">
    <path clip-path="url(#p4ef42a6fc6)" d="M 73.832727 287.578105 
L 74.177188 290.295733 
L 74.349419 286.70207 
L 74.521649 285.698147 
L 74.69388 291.427545 
L 74.86611 291.299656 
L 75.038341 289.61153 
L 75.210571 290.039956 
L 75.382802 289.931251 
L 75.555033 285.646991 
L 75.899494 287.431034 
L 76.071724 282.341077 
L 76.243955 285.052311 
L 76.416185 282.667193 
L 76.588416 282.232372 
L 76.760646 291.357206 
L 76.932877 287.789121 
L 77.105107 290.263761 
L 77.277338 288.249519 
L 77.449568 289.349359 
L 77.621799 288.90175 
L 77.794029 285.985895 
L 77.96626 288.345436 
L 78.13849 288.665156 
L 78.310721 286.631732 
L 78.655182 289.406909 
L 78.827413 286.829959 
L 78.999643 279.649028 
L 79.344104 292.476229 
L 79.516335 284.630279 
L 79.688565 283.070041 
L 79.860796 289.528403 
L 80.033026 279.578689 
L 80.205257 285.461553 
L 80.377487 278.446877 
L 80.721948 291.510672 
L 80.894179 284.95 
L 81.066409 236.74888 
L 81.23864 285.065099 
L 81.410871 282.878209 
L 81.755332 272.672718 
L 81.927562 282.341077 
L 82.099793 276.16407 
L 82.444254 287.117707 
L 82.616484 281.98299 
L 82.788715 283.856554 
L 83.133176 286.222489 
L 83.305406 284.924422 
L 83.477637 286.107389 
L 83.649867 292.533779 
L 84.166559 282.449783 
L 84.338789 281.663269 
L 84.51102 288.537268 
L 84.855481 288.729101 
L 85.027712 284.01002 
L 85.372173 282.763109 
L 85.716634 258.515478 
L 85.888864 284.547152 
L 86.233325 284.700618 
L 86.405556 286.356772 
L 86.750017 285.723724 
L 87.094478 286.64452 
L 87.266708 264.142565 
L 87.61117 284.783745 
L 87.7834 282.635221 
L 87.955631 282.782292 
L 88.127861 270.568955 
L 88.644553 282.130062 
L 88.816783 281.484226 
L 88.989014 283.332212 
L 89.333475 290.398044 
L 89.850166 281.279604 
L 90.022397 270.511405 
L 90.194627 284.336136 
L 90.366858 280.582613 
L 90.539088 285.544681 
L 90.711319 280.441935 
L 91.05578 292.316369 
L 91.400241 280.633768 
L 91.744702 290.92878 
L 91.916933 284.176275 
L 92.089163 287.181652 
L 92.433624 286.2097 
L 92.605855 287.124102 
L 92.950316 282.225978 
L 93.122546 283.51765 
L 93.294777 283.741455 
L 93.639238 288.268703 
L 93.811469 237.317983 
L 93.983699 285.915557 
L 94.15593 279.399645 
L 94.32816 287.539739 
L 94.500391 281.887074 
L 94.672621 285.723724 
L 95.017082 274.507916 
L 95.361543 288.550057 
L 95.533774 275.032258 
L 95.878235 268.107104 
L 96.222696 287.03458 
L 96.394926 278.1911 
L 96.567157 285.122649 
L 96.739388 283.914104 
L 96.911618 272.672718 
L 97.083849 289.010455 
L 97.256079 282.264344 
L 97.42831 289.087188 
L 97.60054 287.64205 
L 97.772771 276.27917 
L 97.945001 287.961771 
L 98.117232 288.07687 
L 98.289462 289.272626 
L 98.461693 286.452688 
L 98.633923 292.066987 
L 98.806154 262.972387 
L 98.978384 292.348341 
L 99.150615 284.764562 
L 99.495076 291.740871 
L 99.667306 288.473324 
L 99.839537 263.04912 
L 100.011768 289.592347 
L 100.528459 282.910181 
L 100.70069 153.301731 
L 101.217381 281.893468 
L 101.389612 288.07687 
L 101.906303 283.24269 
L 102.078534 283.095619 
L 102.595225 274.744509 
L 102.939687 278.095184 
L 103.284148 282.596854 
L 103.628609 281.848707 
L 103.97307 283.472889 
L 104.317531 282.04054 
L 104.661992 275.6717 
L 105.178683 269.219733 
L 105.350914 288.665156 
L 105.867605 277.001739 
L 106.039836 287.245596 
L 106.556528 92.906457 
L 106.728758 268.861645 
L 107.24545 282.788687 
L 107.41768 283.197929 
L 107.589911 270.850309 
L 108.278833 286.823564 
L 108.795524 281.362732 
L 108.967755 285.832429 
L 109.484447 282.673587 
L 109.656677 279.923988 
L 110.173369 291.983859 
L 110.862291 278.772992 
L 111.034521 282.41781 
L 111.551213 276.208831 
L 112.240135 280.800023 
L 112.756827 280.88315 
L 112.929057 280.166975 
L 113.445749 262.646271 
L 113.617979 116.035065 
L 113.96244 283.236296 
L 114.306901 143.754865 
L 114.651362 279.220602 
L 114.995823 130.160334 
L 115.168054 281.27321 
L 115.684746 152.195497 
L 115.856976 273.989968 
L 116.201437 108.911684 
L 116.373668 272.858156 
L 116.718129 248.130943 
L 117.06259 291.427545 
L 117.23482 180.273384 
L 117.751512 290.206211 
L 118.268204 284.566335 
L 118.612665 287.514161 
L 118.784895 237.190095 
L 119.473817 288.275097 
L 119.818278 287.725177 
L 120.162739 284.214642 
L 120.33497 291.433939 
L 120.5072 162.273099 
L 120.679431 279.911199 
L 121.368353 288.550057 
L 121.885045 290.180633 
L 122.573967 291.229318 
L 122.746197 279.297335 
L 123.090658 142.571898 
L 123.60735 291.274079 
L 123.77958 284.905239 
L 124.296272 286.343983 
L 125.157425 283.492073 
L 125.501886 286.043445 
L 125.846347 177.888266 
L 126.018577 287.795516 
L 126.190808 274.405605 
L 126.707499 200.844226 
L 126.87973 288.582029 
L 127.396422 213.185451 
L 127.740883 283.089224 
L 127.913113 276.368691 
L 128.429805 286.260855 
L 128.602035 272.76224 
L 129.290957 289.522008 
L 129.807649 279.936776 
L 130.15211 290.864836 
L 130.496571 206.643962 
L 130.841032 287.424639 
L 131.357724 277.884168 
L 131.702185 284.623885 
L 132.046646 283.306635 
L 132.218876 284.540757 
L 132.563337 288.831411 
L 132.907798 284.598307 
L 133.42449 287.693205 
L 134.113412 284.962789 
L 134.285643 277.53887 
L 134.457873 284.841295 
L 134.802334 252.057116 
L 135.146795 282.660798 
L 135.491256 281.752791 
L 135.835717 231.499063 
L 136.180178 251.558351 
L 136.352409 269.839991 
L 136.69687 234.964838 
L 136.869101 263.957127 
L 137.213562 264.155354 
L 137.558023 275.793194 
L 137.902484 280.627374 
L 138.246945 279.725761 
L 138.419175 132.270491 
L 138.591406 258.816015 
L 138.763636 284.585518 
L 138.935867 288.837806 
L 139.108097 290.206211 
L 139.280328 294.062045 
L 139.452558 290.704976 
L 139.624789 293.927762 
L 139.79702 291.401967 
L 139.96925 287.168863 
L 140.141481 295.488 
L 140.313711 289.266232 
L 140.485942 291.913521 
L 141.174864 285.301693 
L 141.519325 277.347037 
L 141.691555 268.848856 
L 141.863786 288.601212 
L 142.208247 281.106955 
L 142.552708 282.309105 
L 142.897169 287.533345 
L 143.24163 290.583482 
L 143.586091 290.999119 
L 143.930552 283.594383 
L 144.275013 284.668645 
L 144.447244 285.915557 
L 144.619474 277.462137 
L 144.963935 289.528403 
L 145.308396 289.215076 
L 145.825088 286.714859 
L 146.169549 284.01002 
L 146.34178 284.841295 
L 146.51401 284.34253 
L 146.858471 287.175257 
L 147.202932 287.4694 
L 147.547393 254.883448 
L 147.891854 287.769938 
L 148.236315 285.762091 
L 148.580776 292.540173 
L 148.753007 280.211736 
L 148.925238 280.301258 
L 149.269699 291.14619 
L 149.61416 282.405022 
L 149.78639 290.481171 
L 149.958621 287.885038 
L 150.130851 287.226412 
L 150.303082 290.417227 
L 150.475312 286.887508 
L 150.647543 287.328723 
L 150.819773 289.956829 
L 151.164234 289.202288 
L 151.336465 284.694223 
L 151.508695 291.881548 
L 151.680926 288.825017 
L 151.853156 289.592347 
L 152.025387 282.69277 
L 152.197618 286.056234 
L 152.369848 286.011473 
L 152.714309 277.212755 
L 152.88654 279.885621 
L 153.05877 289.215076 
L 153.231001 283.587989 
L 153.575462 255.446157 
L 153.747692 290.954358 
L 153.919923 288.614001 
L 154.092153 279.821677 
L 154.264384 285.736513 
L 154.608845 290.717764 
L 154.781075 286.478266 
L 154.953306 290.071928 
L 155.125537 288.927328 
L 155.297767 291.581011 
L 155.469998 287.558922 
L 155.642228 291.766449 
L 155.814459 289.445275 
L 155.986689 289.573164 
L 156.15892 287.117707 
L 156.33115 291.804815 
L 156.675611 287.021791 
L 157.020072 292.431468 
L 157.536764 282.456177 
L 157.708994 289.61153 
L 158.053456 285.768485 
L 158.397917 294.637542 
L 158.570147 290.596271 
L 158.742378 258.457928 
L 158.914608 292.7384 
L 159.259069 285.832429 
L 159.4313 292.457046 
L 159.60353 293.102882 
L 160.120222 286.132967 
L 160.292452 281.349943 
L 160.464683 287.028186 
L 160.809144 280.186159 
L 160.981374 285.921951 
L 161.325836 280.991855 
L 161.498066 289.247048 
L 161.842527 283.261874 
L 162.014758 288.275097 
L 162.70368 286.459082 
L 162.87591 287.066552 
L 163.048141 288.614001 
L 163.220371 288.677945 
L 163.392602 284.73259 
L 163.564832 293.198799 
L 163.737063 285.615019 
L 163.909293 288.044898 
L 164.081524 284.483207 
L 164.253755 291.139796 
L 164.425985 290.059139 
L 164.598216 292.30358 
L 164.770446 292.923839 
L 164.942677 286.906692 
L 165.114907 288.895355 
L 165.287138 286.273644 
L 165.631599 290.628243 
L 165.803829 283.875738 
L 166.14829 289.470853 
L 166.320521 284.272192 
L 166.664982 286.369561 
L 167.009443 264.097804 
L 167.181673 290.00159 
L 167.353904 288.652368 
L 167.526135 282.711954 
L 167.698365 289.656291 
L 167.870596 272.992439 
L 168.042826 289.285415 
L 168.215057 289.720235 
L 168.387287 286.676493 
L 168.731748 291.197346 
L 168.903979 274.271322 
L 169.076209 291.139796 
L 169.42067 286.881114 
L 169.592901 290.698581 
L 169.765131 281.413887 
L 169.937362 290.199817 
L 170.454054 280.921517 
L 170.626284 289.23426 
L 170.798515 289.419698 
L 170.970745 282.149245 
L 171.142976 288.639579 
L 171.315206 290.577087 
L 171.487437 285.691752 
L 172.004128 288.473324 
L 172.348589 287.002608 
L 172.52082 288.805834 
L 172.69305 279.207813 
L 172.865281 289.330176 
L 173.037511 286.740437 
L 173.209742 292.859894 
L 173.381973 290.461988 
L 173.554203 281.241238 
L 173.726434 286.529421 
L 174.070895 279.501956 
L 174.415356 290.506749 
L 174.587586 291.517067 
L 174.759817 285.921951 
L 174.932047 288.56924 
L 175.104278 285.480736 
L 175.276508 294.861347 
L 175.620969 285.474342 
L 175.7932 289.004061 
L 175.96543 271.22758 
L 176.137661 288.262308 
L 176.309891 282.699165 
L 176.482122 258.061474 
L 176.654353 289.733024 
L 176.998814 284.022809 
L 177.171044 282.008568 
L 177.515505 288.473324 
L 177.687736 284.387291 
L 177.859966 291.075852 
L 178.032197 274.335267 
L 178.204427 290.609059 
L 178.376658 287.226412 
L 178.893349 289.681869 
L 179.23781 288.102448 
L 179.410041 291.082246 
L 179.582272 287.558922 
L 179.754502 288.978483 
L 179.926733 286.254461 
L 180.098963 288.390196 
L 180.271194 292.137325 
L 180.443424 289.688263 
L 180.615655 285.173804 
L 180.787885 285.039522 
L 181.132346 291.574616 
L 181.304577 289.905673 
L 181.476807 271.783894 
L 181.649038 287.104919 
L 182.165729 292.725612 
L 182.33796 290.487565 
L 182.51019 290.071928 
L 182.682421 288.358224 
L 183.026882 289.342965 
L 183.199113 291.862365 
L 183.371343 290.123084 
L 183.543574 291.657744 
L 183.715804 290.813681 
L 183.888035 291.881548 
L 184.060265 268.701785 
L 184.404726 290.564298 
L 184.576957 289.068005 
L 184.749187 290.199817 
L 184.921418 287.539739 
L 185.093648 287.680416 
L 185.265879 287.379879 
L 185.438109 277.864985 
L 185.61034 287.776332 
L 185.954801 292.105353 
L 186.299262 284.67504 
L 186.471493 290.647426 
L 186.643723 290.327705 
L 186.815954 285.634203 
L 186.988184 284.361713 
L 187.160415 291.37639 
L 187.504876 280.256497 
L 187.677106 276.720384 
L 187.849337 291.210135 
L 188.193798 286.650915 
L 188.366028 285.615019 
L 188.538259 291.20374 
L 188.71049 290.570693 
L 188.88272 285.020338 
L 189.054951 288.793045 
L 189.227181 287.264779 
L 189.399412 292.08617 
L 189.571642 281.733608 
L 189.743873 290.039956 
L 190.088334 285.256932 
L 190.432795 289.681869 
L 190.605025 288.096053 
L 190.777256 290.65382 
L 190.949486 288.652368 
L 191.293947 291.293262 
L 191.466178 290.628243 
L 191.638408 283.779821 
L 191.98287 289.023244 
L 192.327331 286.510238 
L 192.499561 291.10143 
L 192.671792 289.976012 
L 192.844022 292.066987 
L 193.016253 289.080794 
L 193.188483 290.366072 
L 193.532944 287.098524 
L 193.705175 283.671116 
L 193.877405 290.698581 
L 194.049636 289.400514 
L 194.221866 291.357206 
L 194.394097 288.741889 
L 194.566327 283.830977 
L 194.738558 289.573164 
L 194.910789 285.800457 
L 195.083019 291.69611 
L 195.42748 284.751773 
L 195.599711 287.328723 
L 195.771941 292.821528 
L 195.944172 283.760638 
L 196.116402 286.3248 
L 196.288633 290.794498 
L 196.460863 289.068005 
L 196.633094 293.045332 
L 196.805324 283.249085 
L 196.977555 290.302127 
L 197.149785 289.138343 
L 197.322016 285.480736 
L 197.666477 291.497883 
L 197.838707 292.009437 
L 198.010938 290.282944 
L 198.183169 286.005079 
L 198.355399 289.796968 
L 198.52763 279.994326 
L 198.69986 288.997666 
L 198.872091 287.987348 
L 199.044321 290.231789 
L 199.216552 290.641031 
L 199.388782 284.681434 
L 199.561013 291.664138 
L 199.733243 288.243125 
L 199.905474 287.782727 
L 200.077704 290.461988 
L 200.249935 284.45763 
L 200.422165 289.720235 
L 200.594396 288.505296 
L 200.766626 289.048822 
L 200.938857 287.347906 
L 201.111088 288.486113 
L 201.283318 292.687245 
L 201.455549 286.26725 
L 201.80001 292.098959 
L 202.144471 285.295298 
L 202.488932 291.344417 
L 202.833393 287.283962 
L 203.005623 288.9593 
L 203.177854 288.965694 
L 203.350084 288.556451 
L 203.522315 290.135872 
L 203.694545 293.12846 
L 203.866776 288.793045 
L 204.039007 293.428998 
L 204.211237 285.365637 
L 204.383468 286.497449 
L 204.555698 292.968599 
L 204.727929 292.789556 
L 205.07239 289.643502 
L 205.24462 286.957847 
L 205.761312 290.00159 
L 205.933542 288.40938 
L 206.278003 287.763544 
L 206.450234 290.55151 
L 206.622464 289.66908 
L 206.794695 292.14372 
L 206.966925 289.406909 
L 207.139156 293.102882 
L 207.311387 289.330176 
L 207.483617 290.43641 
L 207.828078 287.514161 
L 208.172539 291.459517 
L 208.34477 287.188046 
L 208.517 291.926309 
L 208.689231 291.497883 
L 208.861461 286.618943 
L 209.033692 287.731571 
L 209.205922 287.757149 
L 209.378153 289.381331 
L 209.550383 292.629695 
L 209.722614 288.697129 
L 209.894844 288.972088 
L 210.067075 290.071928 
L 210.239306 287.386273 
L 210.411536 288.767467 
L 210.583767 285.826035 
L 210.755997 292.341947 
L 211.100458 284.770956 
L 211.272689 290.250972 
L 211.444919 291.747266 
L 211.61715 287.456612 
L 211.78938 288.722706 
L 211.961611 291.785632 
L 212.306072 288.972088 
L 212.478302 288.530874 
L 212.650533 289.720235 
L 212.822763 288.831411 
L 212.994994 290.37886 
L 213.167224 290.564298 
L 213.339455 293.697563 
L 213.856147 289.892885 
L 214.028377 289.074399 
L 214.200608 291.977465 
L 214.372838 289.45167 
L 214.545069 292.514596 
L 214.717299 288.29428 
L 214.88953 290.052745 
L 215.06176 289.11916 
L 215.233991 291.715294 
L 215.406221 289.144738 
L 215.750682 292.041409 
L 215.922913 292.02862 
L 216.267374 289.72663 
L 216.439605 290.410832 
L 216.611835 290.142267 
L 216.784066 288.716312 
L 216.956296 285.084283 
L 217.128527 289.490036 
L 217.300757 289.675474 
L 217.472988 284.687829 
L 217.817449 287.699599 
L 217.989679 289.413303 
L 218.16191 289.298204 
L 218.33414 290.212606 
L 218.506371 290.353283 
L 219.023062 288.313463 
L 219.195293 291.018302 
L 219.367524 282.405022 
L 219.711985 292.003042 
L 219.884215 290.884019 
L 220.056446 292.393102 
L 220.228676 290.078323 
L 220.400907 284.291375 
L 220.745368 288.40938 
L 220.917598 288.748284 
L 221.089829 288.377408 
L 221.43429 292.239636 
L 221.60652 287.597289 
L 221.778751 293.499336 
L 221.950981 288.614001 
L 222.123212 290.033562 
L 222.295442 289.266232 
L 222.467673 289.82894 
L 222.639904 289.285415 
L 222.812134 289.202288 
L 222.984365 293.371448 
L 223.156595 292.533779 
L 223.501056 284.847689 
L 223.845517 289.963223 
L 224.017748 290.967147 
L 224.189978 288.895355 
L 224.362209 289.841729 
L 224.534439 289.956829 
L 224.70667 289.445275 
L 224.8789 290.219 
L 225.051131 287.047369 
L 225.223361 289.94404 
L 225.395592 283.926893 
L 225.567823 291.926309 
L 225.740053 288.818622 
L 225.912284 290.538721 
L 226.256745 285.141832 
L 226.428975 290.027167 
L 226.601206 288.313463 
L 226.773436 284.89245 
L 227.290128 289.688263 
L 227.462358 288.396591 
L 227.634589 291.581011 
L 227.806819 280.339625 
L 227.97905 289.272626 
L 228.15128 283.741455 
L 228.323511 290.123084 
L 228.495741 284.751773 
L 228.840203 291.011908 
L 229.012433 284.662251 
L 229.356894 289.905673 
L 229.529125 287.571711 
L 229.701355 287.674022 
L 229.873586 288.805834 
L 230.045816 275.172935 
L 230.218047 286.26725 
L 230.390277 284.623885 
L 230.562508 291.676927 
L 230.906969 285.525497 
L 231.079199 287.200835 
L 231.25143 286.471871 
L 231.42366 289.215076 
L 231.595891 289.61153 
L 231.768122 286.075417 
L 231.940352 289.713841 
L 232.112583 286.670098 
L 232.284813 292.489018 
L 232.629274 288.051292 
L 232.801505 274.443972 
L 232.973735 288.614001 
L 233.145966 285.832429 
L 233.318196 287.181652 
L 233.490427 281.164505 
L 233.662657 285.148227 
L 233.834888 283.434523 
L 234.007118 288.677945 
L 234.179349 288.179181 
L 234.351579 288.56924 
L 234.52381 288.217547 
L 234.696041 274.162617 
L 234.868271 285.915557 
L 235.040502 278.044029 
L 235.212732 275.5566 
L 235.384963 292.150114 
L 235.557193 292.943022 
L 235.901654 287.322329 
L 236.073885 288.121631 
L 236.246115 280.045482 
L 236.418346 283.818188 
L 236.590576 281.957412 
L 236.762807 163.475249 
L 236.935037 291.587405 
L 237.107268 290.430016 
L 237.279498 204.629721 
L 237.623959 290.666609 
L 237.79619 281.177293 
L 237.968421 284.975578 
L 238.312882 283.728666 
L 238.485112 283.85016 
L 238.657343 288.070476 
L 238.829573 287.162468 
L 239.001804 278.274228 
L 239.174034 262.051591 
L 239.346265 291.286868 
L 239.518495 285.013944 
L 239.690726 283.79261 
L 239.862956 291.222923 
L 240.379648 287.040974 
L 240.551878 277.59642 
L 240.724109 275.569389 
L 241.06857 290.896808 
L 241.585262 285.627808 
L 241.929723 291.644955 
L 242.101953 292.393102 
L 242.274184 283.997232 
L 242.618645 292.514596 
L 242.790875 284.041993 
L 242.963106 291.369995 
L 243.135336 292.054198 
L 243.307567 287.482189 
L 243.479797 291.951887 
L 243.652028 284.45763 
L 243.824259 290.71137 
L 243.996489 291.018302 
L 244.16872 289.221471 
L 244.34095 292.41868 
L 244.685411 283.006097 
L 244.857642 293.774296 
L 245.202103 284.041993 
L 245.374333 286.638126 
L 245.546564 292.162903 
L 245.718794 289.317387 
L 245.891025 291.555433 
L 246.063255 288.697129 
L 246.407716 291.715294 
L 246.579947 286.478266 
L 246.752177 287.200835 
L 246.924408 286.503843 
L 247.096639 291.625772 
L 247.268869 287.667627 
L 247.4411 288.68434 
L 247.785561 293.352265 
L 248.130022 286.312011 
L 248.302252 291.011908 
L 248.474483 286.682887 
L 248.646713 291.158979 
L 248.818944 286.510238 
L 248.991174 292.341947 
L 249.335635 287.667627 
L 249.507866 289.995195 
L 249.680096 223.35897 
L 249.852327 288.614001 
L 250.196788 287.929798 
L 250.541249 289.637108 
L 250.71348 277.276699 
L 250.88571 286.900297 
L 251.057941 287.36709 
L 251.230171 244.780269 
L 251.402402 284.265797 
L 251.746863 279.361279 
L 251.919093 291.127007 
L 252.263554 278.804965 
L 252.435785 284.464024 
L 252.608015 293.883001 
L 252.952476 271.342679 
L 253.124707 281.644086 
L 253.469168 290.692187 
L 253.641399 280.307653 
L 253.813629 290.947964 
L 254.15809 288.044898 
L 254.502551 277.545264 
L 254.674782 290.756131 
L 254.847012 260.823862 
L 255.019243 287.264779 
L 255.363704 288.594818 
L 255.535934 284.253008 
L 255.708165 288.460535 
L 255.880395 274.316083 
L 256.052626 245.458077 
L 256.224857 288.729101 
L 256.569318 285.921951 
L 256.741548 285.60223 
L 256.913779 288.703523 
L 257.086009 189.315091 
L 257.43047 289.630714 
L 257.602701 265.376688 
L 257.947162 286.893903 
L 258.119392 217.431345 
L 258.291623 286.625337 
L 258.463853 210.832306 
L 258.636084 278.728232 
L 258.808314 288.230336 
L 258.980545 287.776332 
L 259.152776 288.268703 
L 259.325006 287.488584 
L 259.497237 278.280622 
L 259.669467 281.298787 
L 259.841698 289.151132 
L 260.013928 287.360695 
L 260.186159 287.565317 
L 260.358389 288.9593 
L 260.53062 292.437863 
L 260.70285 288.780256 
L 260.875081 291.427545 
L 261.047311 288.185575 
L 261.219542 279.572295 
L 261.391772 290.295733 
L 261.564003 283.6903 
L 261.736233 292.047803 
L 261.908464 288.665156 
L 262.080694 288.319858 
L 262.252925 279.981537 
L 262.425156 289.522008 
L 262.597386 288.255914 
L 262.769617 290.142267 
L 263.114078 289.490036 
L 263.286308 286.395138 
L 263.458539 287.328723 
L 263.630769 282.117273 
L 263.803 282.859025 
L 263.97523 283.02528 
L 264.319691 287.431034 
L 265.180844 293.275532 
L 265.525305 280.486696 
L 265.697536 288.108842 
L 265.869766 287.821093 
L 266.041997 294.803797 
L 266.214227 289.470853 
L 266.386458 288.56924 
L 266.558688 288.645973 
L 266.730919 286.913086 
L 266.903149 290.820075 
L 267.07538 288.505296 
L 267.24761 287.827488 
L 267.419841 281.76558 
L 267.592071 288.940116 
L 267.936532 286.785198 
L 268.280993 289.55398 
L 268.453224 280.377991 
L 268.625455 288.812228 
L 268.797685 284.329741 
L 268.969916 290.007984 
L 269.142146 288.249519 
L 269.314377 284.221036 
L 269.486607 283.217113 
L 269.658838 260.57448 
L 270.003299 289.330176 
L 270.175529 289.605136 
L 270.34776 290.583482 
L 270.51999 284.924422 
L 270.692221 291.779238 
L 270.864451 282.622432 
L 271.036682 292.329158 
L 271.208912 286.196911 
L 271.381143 289.579558 
L 271.897835 282.833448 
L 272.070065 285.973107 
L 272.242296 283.14038 
L 272.586757 283.006097 
L 272.758987 286.420716 
L 272.931218 282.552093 
L 273.275679 287.776332 
L 273.447909 284.419263 
L 273.62014 293.601647 
L 273.79237 264.839557 
L 273.964601 288.390196 
L 274.136831 257.223805 
L 274.309062 286.996213 
L 274.481293 290.736948 
L 274.653523 291.37639 
L 274.997984 286.75962 
L 275.170215 287.885038 
L 275.342445 290.295733 
L 275.514676 285.154621 
L 275.859137 286.343983 
L 276.031367 281.727213 
L 276.203598 199.328749 
L 276.375828 281.381915 
L 276.548059 273.881263 
L 276.720289 287.411851 
L 276.89252 284.783745 
L 277.06475 274.009151 
L 277.236981 289.33657 
L 277.409211 276.534946 
L 277.753673 289.151132 
L 277.925903 286.510238 
L 278.098134 277.091261 
L 278.270364 289.82894 
L 278.442595 288.364619 
L 278.614825 289.931251 
L 278.787056 281.305182 
L 279.131517 290.890414 
L 279.303747 278.414905 
L 279.475978 285.730119 
L 279.648208 278.510821 
L 279.820439 288.697129 
L 279.992669 286.996213 
L 280.1649 287.974559 
L 280.33713 287.885038 
L 280.509361 279.041558 
L 280.681592 281.43307 
L 280.853822 292.943022 
L 281.026053 283.997232 
L 281.198283 283.057252 
L 281.370514 268.158259 
L 281.542744 272.941284 
L 281.887205 287.36709 
L 282.059436 285.819641 
L 282.231666 290.49396 
L 282.403897 280.697712 
L 282.576127 281.733608 
L 282.748358 279.482773 
L 282.920588 291.427545 
L 283.092819 289.969618 
L 283.265049 285.583047 
L 283.43728 286.561393 
L 283.60951 288.498902 
L 283.781741 287.961771 
L 283.953972 286.100995 
L 284.126202 281.835918 
L 284.298433 286.893903 
L 284.470663 283.172352 
L 284.642894 192.985486 
L 284.815124 287.74436 
L 284.987355 282.718348 
L 285.159585 291.389178 
L 285.331816 285.813246 
L 285.504046 284.508785 
L 285.676277 289.522008 
L 285.848507 287.558922 
L 286.020738 289.477247 
L 286.192968 288.377408 
L 286.365199 284.316953 
L 286.537429 289.419698 
L 286.70966 282.635221 
L 286.881891 283.933287 
L 287.054121 286.094601 
L 287.226352 291.887943 
L 287.398582 285.320876 
L 287.570813 290.775314 
L 287.743043 291.056669 
L 287.915274 287.897826 
L 288.259735 292.546568 
L 288.431965 284.476813 
L 288.604196 286.881114 
L 288.776426 291.926309 
L 288.948657 289.208682 
L 289.120887 289.790574 
L 289.465348 280.179764 
L 289.637579 290.92878 
L 289.80981 293.819057 
L 289.98204 284.355319 
L 290.498732 290.410832 
L 290.670962 279.540323 
L 290.843193 287.968165 
L 291.015423 289.253443 
L 291.187654 289.643502 
L 291.359884 287.322329 
L 291.532115 289.560375 
L 291.876576 287.667627 
L 292.221037 279.278151 
L 292.393267 289.694658 
L 292.565498 283.51765 
L 292.737728 287.060158 
L 292.909959 285.979501 
L 293.08219 287.328723 
L 293.25442 290.014379 
L 293.598881 283.677511 
L 293.771112 285.781274 
L 294.115573 286.957847 
L 294.287803 284.086753 
L 294.460034 283.076435 
L 294.804495 288.044898 
L 294.976725 250.228312 
L 295.148956 276.969767 
L 295.321186 285.16741 
L 295.493417 224.900024 
L 295.665647 288.40938 
L 295.837878 291.069457 
L 296.010109 284.802928 
L 296.182339 286.04984 
L 296.35457 267.358957 
L 296.5268 289.758602 
L 296.871261 289.701052 
L 297.043492 284.745378 
L 297.215722 275.070625 
L 297.387953 255.107253 
L 297.560183 281.963807 
L 297.732414 274.015546 
L 297.904644 283.172352 
L 298.076875 256.808168 
L 298.249105 289.771391 
L 298.593566 289.016849 
L 298.765797 283.031675 
L 298.938027 288.396591 
L 299.110258 278.3062 
L 299.282489 290.960752 
L 299.454719 277.027316 
L 299.971411 289.470853 
L 300.143641 285.653386 
L 300.488102 289.522008 
L 300.660333 287.987348 
L 300.832563 289.087188 
L 301.004794 292.02862 
L 301.349255 288.690734 
L 301.521485 53.568 
L 301.693716 283.696694 
L 301.865946 290.148661 
L 302.038177 289.809757 
L 302.210408 281.740002 
L 302.554869 287.443823 
L 302.727099 287.277568 
L 302.89933 290.545115 
L 303.07156 288.729101 
L 303.243791 284.719801 
L 303.416021 284.809323 
L 303.588252 278.670682 
L 303.760482 284.291375 
L 303.932713 282.954942 
L 304.104943 290.00159 
L 304.277174 288.23673 
L 304.449404 284.809323 
L 304.621635 278.836937 
L 304.793865 289.426092 
L 304.966096 282.641615 
L 305.310557 282.75032 
L 305.482788 287.271173 
L 305.655018 288.275097 
L 305.827249 284.937211 
L 305.999479 288.319858 
L 306.17171 289.23426 
L 306.34394 284.221036 
L 306.516171 282.520121 
L 306.688401 289.23426 
L 306.860632 275.217696 
L 307.205093 288.908144 
L 307.377323 292.597723 
L 307.549554 257.965558 
L 307.894015 291.830393 
L 308.066245 286.190517 
L 308.238476 285.00755 
L 308.410707 286.222489 
L 308.582937 277.116838 
L 308.755168 291.254896 
L 308.927398 286.062628 
L 309.099629 289.982406 
L 309.271859 286.497449 
L 309.44409 292.815133 
L 309.61632 291.472306 
L 309.788551 287.264779 
L 309.960781 288.997666 
L 310.133012 285.314482 
L 310.305242 291.760055 
L 310.477473 279.668211 
L 310.649703 277.717914 
L 310.994164 286.548604 
L 311.166395 284.464024 
L 311.338626 287.948982 
L 311.510856 288.396591 
L 311.683087 287.693205 
L 312.199778 283.402551 
L 312.372009 284.253008 
L 312.544239 286.951453 
L 312.71647 283.818188 
L 312.8887 286.657309 
L 313.060931 286.631732 
L 313.233161 277.999268 
L 313.405392 275.735644 
L 313.749853 287.654838 
L 313.922083 272.167559 
L 314.094314 284.438446 
L 314.266544 283.671116 
L 314.438775 283.920499 
L 314.611006 286.925875 
L 314.783236 285.346454 
L 314.955467 286.395138 
L 315.127697 291.120613 
L 315.299928 286.925875 
L 315.472158 221.952198 
L 315.644389 283.364184 
L 315.816619 290.660215 
L 315.98885 273.478415 
L 316.16108 288.230336 
L 316.333311 285.845218 
L 316.505541 270.882281 
L 316.677772 289.151132 
L 316.850002 283.146774 
L 317.194463 288.064081 
L 317.366694 286.171334 
L 317.538925 287.341512 
L 317.711155 276.803512 
L 317.883386 290.589876 
L 318.227847 279.636239 
L 318.400077 287.360695 
L 318.572308 284.566335 
L 318.744538 285.710936 
L 318.916769 284.355319 
L 319.088999 286.829959 
L 319.43346 262.300973 
L 319.605691 287.009002 
L 319.777921 285.001155 
L 320.122382 282.379444 
L 320.294613 289.573164 
L 320.466844 280.985461 
L 320.639074 290.845653 
L 320.811305 286.222489 
L 320.983535 288.556451 
L 321.327996 287.91701 
L 321.500227 288.166392 
L 321.844688 287.923404 
L 322.016918 285.787669 
L 322.189149 285.672569 
L 322.361379 285.231354 
L 322.53361 286.855536 
L 322.70584 289.61153 
L 322.878071 290.430016 
L 323.050301 289.131949 
L 323.222532 291.210135 
L 323.394762 282.564882 
L 323.739224 290.097506 
L 323.911454 290.321311 
L 324.083685 292.278002 
L 324.255915 289.042427 
L 324.428146 288.927328 
L 324.772607 289.189499 
L 324.944837 291.5938 
L 325.117068 291.171768 
L 325.289298 289.125555 
L 325.461529 290.673004 
L 325.633759 287.443823 
L 325.80599 290.519538 
L 325.97822 287.072946 
L 326.150451 286.829959 
L 326.322681 292.169297 
L 326.494912 283.472889 
L 326.667143 290.27655 
L 326.839373 292.150114 
L 327.011604 290.206211 
L 327.183834 286.120178 
L 327.356065 289.310993 
L 327.528295 286.375955 
L 327.872756 290.059139 
L 328.044987 286.91948 
L 328.217217 291.069457 
L 328.389448 286.171334 
L 328.561678 286.606154 
L 328.733909 286.286433 
L 328.906139 290.308522 
L 329.07837 289.406909 
L 329.2506 289.701052 
L 329.422831 285.691752 
L 329.595061 285.870796 
L 329.767292 289.624319 
L 329.939523 281.241238 
L 330.111753 288.249519 
L 330.283984 288.9593 
L 330.456214 287.053763 
L 330.628445 288.102448 
L 330.800675 287.520556 
L 330.972906 288.108842 
L 331.145136 290.704976 
L 331.317367 290.065534 
L 331.489597 285.710936 
L 331.661828 285.129044 
L 331.834058 290.404438 
L 332.006289 289.739419 
L 332.178519 284.758167 
L 332.35075 287.731571 
L 332.52298 287.514161 
L 332.867442 291.063063 
L 333.039672 285.909162 
L 333.211903 286.638126 
L 333.384133 287.91701 
L 333.556364 286.695676 
L 333.728594 282.072512 
L 333.900825 290.257366 
L 334.073055 288.255914 
L 334.245286 290.180633 
L 334.417516 290.698581 
L 334.589747 286.964241 
L 334.761977 288.492507 
L 334.934208 288.000137 
L 335.106438 284.988366 
L 335.450899 291.127007 
L 335.62313 289.259837 
L 335.795361 283.057252 
L 335.967591 289.432487 
L 336.139822 288.089659 
L 336.484283 290.941569 
L 336.656513 283.978048 
L 336.828744 288.428563 
L 337.000974 288.639579 
L 337.345435 285.691752 
L 337.517666 286.721254 
L 337.862127 291.881548 
L 338.206588 286.503843 
L 338.378818 290.282944 
L 338.551049 284.822111 
L 338.723279 291.293262 
L 338.89551 286.855536 
L 339.067741 291.14619 
L 339.239971 289.515614 
L 339.412202 290.673004 
L 339.584432 286.887508 
L 339.928893 290.871231 
L 340.101124 288.582029 
L 340.273354 287.885038 
L 340.445585 291.612983 
L 340.617815 289.080794 
L 340.790046 290.295733 
L 340.962276 289.739419 
L 341.134507 288.773862 
L 341.306737 291.357206 
L 341.478968 290.212606 
L 341.651198 291.804815 
L 341.823429 290.199817 
L 341.99566 291.517067 
L 342.16789 282.96773 
L 342.340121 288.888961 
L 342.512351 289.406909 
L 342.684582 290.979936 
L 343.029043 289.528403 
L 343.201273 292.815133 
L 343.373504 287.680416 
L 343.545734 288.025715 
L 343.717965 283.217113 
L 343.890195 291.184557 
L 344.062426 286.216095 
L 344.234656 288.812228 
L 344.406887 289.534797 
L 344.579117 292.597723 
L 344.751348 287.712388 
L 344.923578 292.30358 
L 345.095809 285.608625 
L 345.26804 285.77488 
L 345.44027 291.836788 
L 345.612501 278.945642 
L 345.784731 290.257366 
L 345.956962 291.951887 
L 346.129192 286.54221 
L 346.645884 290.807286 
L 346.818114 288.006531 
L 347.162575 292.079775 
L 347.334806 289.816152 
L 347.507036 290.014379 
L 347.679267 289.490036 
L 347.851497 292.233241 
L 348.023728 286.676493 
L 348.195959 287.558922 
L 348.54042 290.238183 
L 348.71265 289.170315 
L 348.884881 287.040974 
L 349.057111 287.661233 
L 349.401572 291.293262 
L 349.573803 286.804381 
L 349.918264 291.958282 
L 350.090494 288.550057 
L 350.434955 290.532326 
L 350.607186 283.268268 
L 350.779416 289.202288 
L 350.951647 284.764562 
L 351.123878 284.029204 
L 351.296108 289.39412 
L 351.468339 290.353283 
L 351.640569 284.080359 
L 351.8128 289.707447 
L 351.98503 289.758602 
L 352.157261 286.663704 
L 352.329491 290.180633 
L 352.501722 285.570258 
L 352.846183 291.338023 
L 353.190644 282.961336 
L 353.362874 285.141832 
L 353.535105 291.357206 
L 353.707335 292.380313 
L 353.879566 287.360695 
L 354.051796 287.942587 
L 354.224027 290.084717 
L 354.396258 287.258385 
L 354.568488 287.782727 
L 354.740719 284.943605 
L 355.08518 289.400514 
L 355.25741 285.544681 
L 355.774102 291.363601 
L 355.946332 291.14619 
L 356.118563 289.496431 
L 356.290793 290.794498 
L 356.463024 288.537268 
L 356.635254 291.171768 
L 356.807485 290.743342 
L 356.979715 289.809757 
L 357.151946 288.115237 
L 357.324177 288.805834 
L 357.496407 285.60223 
L 357.668638 289.189499 
L 357.840868 288.984877 
L 358.013099 290.187028 
L 358.35756 281.196477 
L 358.702021 289.036033 
L 358.874251 292.022226 
L 359.046482 280.224525 
L 359.218712 288.121631 
L 359.390943 285.998684 
L 359.735404 291.082246 
L 359.907634 288.946511 
L 360.079865 289.189499 
L 360.252095 288.735495 
L 360.424326 280.083848 
L 360.596557 285.435976 
L 360.768787 285.276115 
L 360.941018 262.799737 
L 361.285479 290.302127 
L 361.457709 284.438446 
L 361.62994 286.363166 
L 361.80217 290.116689 
L 361.974401 276.49658 
L 362.146631 282.974125 
L 362.491092 284.40008 
L 362.663323 287.565317 
L 362.835553 285.742908 
L 363.180014 273.625486 
L 363.352245 286.734042 
L 363.524476 289.681869 
L 363.696706 288.856989 
L 363.868937 286.951453 
L 364.041167 288.639579 
L 364.213398 287.437428 
L 364.557859 281.951018 
L 364.730089 288.68434 
L 365.07455 276.368691 
L 365.419011 288.9593 
L 365.591242 289.445275 
L 365.763472 277.980085 
L 365.935703 285.116255 
L 366.107933 285.455159 
L 366.280164 281.324365 
L 366.452395 287.571711 
L 366.969086 284.406474 
L 367.141317 283.901315 
L 367.313547 282.360261 
L 367.485778 289.170315 
L 367.830239 284.393686 
L 368.002469 288.882567 
L 368.1747 283.268268 
L 368.34693 263.573462 
L 368.519161 283.511256 
L 368.691391 284.380897 
L 368.863622 294.791008 
L 369.035852 293.173221 
L 369.380313 287.507767 
L 369.552544 289.950434 
L 369.897005 288.837806 
L 370.241466 286.586971 
L 370.758158 285.148227 
L 371.102619 286.906692 
L 371.44708 278.510821 
L 371.791541 288.185575 
L 372.136002 277.020922 
L 372.652694 289.969618 
L 372.824924 279.265363 
L 373.169385 287.341512 
L 373.341616 284.95 
L 373.513846 289.208682 
L 373.686077 288.070476 
L 373.858307 284.240219 
L 374.030538 283.319423 
L 374.202768 284.28498 
L 374.71946 286.452688 
L 374.89169 285.570258 
L 375.236151 289.183104 
L 375.408382 272.15477 
L 375.580612 289.093582 
L 375.752843 288.13442 
L 375.925074 284.393686 
L 376.269535 288.543663 
L 376.441765 284.419263 
L 376.613996 257.760936 
L 376.786226 285.467948 
L 377.130687 285.99229 
L 377.302918 278.728232 
L 377.475148 284.681434 
L 377.819609 267.052025 
L 377.99184 291.229318 
L 378.508531 288.447746 
L 378.680762 282.289922 
L 379.025223 288.166392 
L 379.197454 272.020488 
L 379.541915 289.88649 
L 379.886376 273.203455 
L 380.058606 286.26725 
L 380.403067 276.291958 
L 380.575298 285.461553 
L 380.919759 285.103466 
L 381.091989 287.392667 
L 381.43645 279.757733 
L 381.608681 279.649028 
L 381.780912 278.056818 
L 381.953142 287.987348 
L 382.125373 277.960901 
L 382.469834 282.564882 
L 382.642064 287.277568 
L 382.814295 266.099257 
L 383.330986 288.812228 
L 383.503217 281.803946 
L 383.675447 284.189064 
L 383.847678 279.118291 
L 384.019908 287.757149 
L 384.192139 271.483356 
L 384.5366 290.430016 
L 384.881061 276.71399 
L 385.053292 287.232807 
L 385.397753 289.809757 
L 385.569983 290.078323 
L 385.742214 286.523027 
L 385.914444 286.318405 
L 386.258905 286.964241 
L 386.431136 290.807286 
L 386.603366 284.981972 
L 386.775597 288.402985 
L 386.947827 287.399062 
L 387.120058 288.658762 
L 387.292288 288.607607 
L 387.464519 288.972088 
L 387.636749 286.913086 
L 387.80898 289.662686 
L 388.153441 286.54221 
L 388.325672 280.9407 
L 388.497902 287.03458 
L 388.670133 287.30954 
L 389.014594 289.157527 
L 389.186824 293.339476 
L 389.359055 290.49396 
L 389.531285 289.956829 
L 389.703516 291.670533 
L 389.875746 284.093148 
L 390.047977 290.49396 
L 390.220207 286.785198 
L 390.392438 288.543663 
L 390.736899 283.261874 
L 390.909129 284.073965 
L 391.08136 282.334683 
L 391.253591 288.671551 
L 391.425821 280.461119 
L 391.598052 289.496431 
L 391.770282 280.972672 
L 391.942513 288.620396 
L 392.114743 276.362297 
L 392.286974 283.747849 
L 392.459204 276.176859 
L 392.631435 287.571711 
L 392.803665 284.28498 
L 393.148126 291.919915 
L 393.492587 281.98299 
L 393.664818 289.406909 
L 393.837048 283.63275 
L 394.009279 290.142267 
L 394.18151 284.118726 
L 394.35374 288.371013 
L 394.525971 284.041993 
L 394.870432 286.343983 
L 395.042662 289.694658 
L 395.214893 290.55151 
L 395.387123 286.503843 
L 395.559354 286.631732 
L 395.731584 287.424639 
L 395.903815 283.562411 
L 396.076045 284.278586 
L 396.248276 284.259403 
L 396.420506 281.241238 
L 396.764967 288.952905 
L 396.937198 290.007984 
L 397.109429 289.458064 
L 397.281659 284.981972 
L 397.45389 286.292828 
L 398.142812 284.962789 
L 398.315042 291.363601 
L 398.487273 285.148227 
L 398.487273 285.148227 
" style="fill:none;stroke:#0000ff;stroke-linecap:square;stroke-width:1.5;"/>
   </g>
   <g id="patch_3">
    <path d="M 57.6 307.584 
L 57.6 41.472 
" style="fill:none;stroke:#000000;stroke-linecap:square;stroke-linejoin:miter;stroke-width:0.8;"/>
   </g>
   <g id="patch_4">
    <path d="M 414.72 307.584 
L 414.72 41.472 
" style="fill:none;stroke:#000000;stroke-linecap:square;stroke-linejoin:miter;stroke-width:0.8;"/>
   </g>
   <g id="patch_5">
    <path d="M 57.6 307.584 
L 414.72 307.584 
" style="fill:none;stroke:#000000;stroke-linecap:square;stroke-linejoin:miter;stroke-width:0.8;"/>
   </g>
   <g id="patch_6">
    <path d="M 57.6 41.472 
L 414.72 41.472 
" style="fill:none;stroke:#000000;stroke-linecap:square;stroke-linejoin:miter;stroke-width:0.8;"/>
   </g>
   <g id="text_19">
    <!-- air_pressure-&gt;ping_day -->
    <g transform="translate(165.122813 35.472)scale(0.12 -0.12)">
     <defs>
      <path d="M 4.890625 31.390625 
L 31.203125 31.390625 
L 31.203125 23.390625 
L 4.890625 23.390625 
z
" id="DejaVuSans-45"/>
      <path d="M 10.59375 49.21875 
L 10.59375 58.109375 
L 73.1875 35.40625 
L 73.1875 27.296875 
L 10.59375 4.59375 
L 10.59375 13.484375 
L 60.890625 31.296875 
z
" id="DejaVuSans-62"/>
      <path d="M 54.890625 33.015625 
L 54.890625 0 
L 45.90625 0 
L 45.90625 32.71875 
Q 45.90625 40.484375 42.875 44.328125 
Q 39.84375 48.1875 33.796875 48.1875 
Q 26.515625 48.1875 22.3125 43.546875 
Q 18.109375 38.921875 18.109375 30.90625 
L 18.109375 0 
L 9.078125 0 
L 9.078125 54.6875 
L 18.109375 54.6875 
L 18.109375 46.1875 
Q 21.34375 51.125 25.703125 53.5625 
Q 30.078125 56 35.796875 56 
Q 45.21875 56 50.046875 50.171875 
Q 54.890625 44.34375 54.890625 33.015625 
z
" id="DejaVuSans-110"/>
      <path d="M 45.40625 27.984375 
Q 45.40625 37.75 41.375 43.109375 
Q 37.359375 48.484375 30.078125 48.484375 
Q 22.859375 48.484375 18.828125 43.109375 
Q 14.796875 37.75 14.796875 27.984375 
Q 14.796875 18.265625 18.828125 12.890625 
Q 22.859375 7.515625 30.078125 7.515625 
Q 37.359375 7.515625 41.375 12.890625 
Q 45.40625 18.265625 45.40625 27.984375 
z
M 54.390625 6.78125 
Q 54.390625 -7.171875 48.1875 -13.984375 
Q 42 -20.796875 29.203125 -20.796875 
Q 24.46875 -20.796875 20.265625 -20.09375 
Q 16.0625 -19.390625 12.109375 -17.921875 
L 12.109375 -9.1875 
Q 16.0625 -11.328125 19.921875 -12.34375 
Q 23.78125 -13.375 27.78125 -13.375 
Q 36.625 -13.375 41.015625 -8.765625 
Q 45.40625 -4.15625 45.40625 5.171875 
L 45.40625 9.625 
Q 42.625 4.78125 38.28125 2.390625 
Q 33.9375 0 27.875 0 
Q 17.828125 0 11.671875 7.65625 
Q 5.515625 15.328125 5.515625 27.984375 
Q 5.515625 40.671875 11.671875 48.328125 
Q 17.828125 56 27.875 56 
Q 33.9375 56 38.28125 53.609375 
Q 42.625 51.21875 45.40625 46.390625 
L 45.40625 54.6875 
L 54.390625 54.6875 
z
" id="DejaVuSans-103"/>
      <path d="M 45.40625 46.390625 
L 45.40625 75.984375 
L 54.390625 75.984375 
L 54.390625 0 
L 45.40625 0 
L 45.40625 8.203125 
Q 42.578125 3.328125 38.25 0.953125 
Q 33.9375 -1.421875 27.875 -1.421875 
Q 17.96875 -1.421875 11.734375 6.484375 
Q 5.515625 14.40625 5.515625 27.296875 
Q 5.515625 40.1875 11.734375 48.09375 
Q 17.96875 56 27.875 56 
Q 33.9375 56 38.25 53.625 
Q 42.578125 51.265625 45.40625 46.390625 
z
M 14.796875 27.296875 
Q 14.796875 17.390625 18.875 11.75 
Q 22.953125 6.109375 30.078125 6.109375 
Q 37.203125 6.109375 41.296875 11.75 
Q 45.40625 17.390625 45.40625 27.296875 
Q 45.40625 37.203125 41.296875 42.84375 
Q 37.203125 48.484375 30.078125 48.484375 
Q 22.953125 48.484375 18.875 42.84375 
Q 14.796875 37.203125 14.796875 27.296875 
z
" id="DejaVuSans-100"/>
      <path d="M 32.171875 -5.078125 
Q 28.375 -14.84375 24.75 -17.8125 
Q 21.140625 -20.796875 15.09375 -20.796875 
L 7.90625 -20.796875 
L 7.90625 -13.28125 
L 13.1875 -13.28125 
Q 16.890625 -13.28125 18.9375 -11.515625 
Q 21 -9.765625 23.484375 -3.21875 
L 25.09375 0.875 
L 2.984375 54.6875 
L 12.5 54.6875 
L 29.59375 11.921875 
L 46.6875 54.6875 
L 56.203125 54.6875 
z
" id="DejaVuSans-121"/>
     </defs>
     <use xlink:href="#DejaVuSans-97"/>
     <use x="61.279297" xlink:href="#DejaVuSans-105"/>
     <use x="89.0625" xlink:href="#DejaVuSans-114"/>
     <use x="130.175781" xlink:href="#DejaVuSans-95"/>
     <use x="180.175781" xlink:href="#DejaVuSans-112"/>
     <use x="243.652344" xlink:href="#DejaVuSans-114"/>
     <use x="282.515625" xlink:href="#DejaVuSans-101"/>
     <use x="344.039062" xlink:href="#DejaVuSans-115"/>
     <use x="396.138672" xlink:href="#DejaVuSans-115"/>
     <use x="448.238281" xlink:href="#DejaVuSans-117"/>
     <use x="511.617188" xlink:href="#DejaVuSans-114"/>
     <use x="550.480469" xlink:href="#DejaVuSans-101"/>
     <use x="612.003906" xlink:href="#DejaVuSans-45"/>
     <use x="648.087891" xlink:href="#DejaVuSans-62"/>
     <use x="731.876953" xlink:href="#DejaVuSans-112"/>
     <use x="795.353516" xlink:href="#DejaVuSans-105"/>
     <use x="823.136719" xlink:href="#DejaVuSans-110"/>
     <use x="886.515625" xlink:href="#DejaVuSans-103"/>
     <use x="949.992188" xlink:href="#DejaVuSans-95"/>
     <use x="999.992188" xlink:href="#DejaVuSans-100"/>
     <use x="1063.46875" xlink:href="#DejaVuSans-97"/>
     <use x="1124.748047" xlink:href="#DejaVuSans-121"/>
    </g>
   </g>
  </g>
  <g id="legend_1">
   <g id="patch_7">
    <path d="M 415.451563 22.678125 
L 453.8 22.678125 
Q 455.8 22.678125 455.8 20.678125 
L 455.8 7 
Q 455.8 5 453.8 5 
L 415.451563 5 
Q 413.451563 5 413.451563 7 
L 413.451563 20.678125 
Q 413.451563 22.678125 415.451563 22.678125 
z
" style="fill:#ffffff;opacity:0.8;stroke:#cccccc;stroke-linejoin:miter;"/>
   </g>
   <g id="line2d_19">
    <path d="M 417.451563 13.098438 
L 437.451563 13.098438 
" style="fill:none;stroke:#0000ff;stroke-linecap:square;stroke-width:1.5;"/>
   </g>
   <g id="line2d_20"/>
   <g id="text_20">
    <!-- p -->
    <g transform="translate(445.451563 16.598438)scale(0.1 -0.1)">
     <use xlink:href="#DejaVuSans-112"/>
    </g>
   </g>
  </g>
 </g>
 <defs>
  <clipPath id="p4ef42a6fc6">
   <rect height="266.112" width="357.12" x="57.6" y="41.472"/>
  </clipPath>
 </defs>
</svg>
