<?xml version="1.0" encoding="utf-8" standalone="no"?>
<!DOCTYPE svg PUBLIC "-//W3C//DTD SVG 1.1//EN"
  "http://www.w3.org/Graphics/SVG/1.1/DTD/svg11.dtd">
<!-- Created with matplotlib (https://matplotlib.org/) -->
<svg height="345.6pt" version="1.1" viewBox="0 0 460.8 345.6" width="460.8pt" xmlns="http://www.w3.org/2000/svg" xmlns:xlink="http://www.w3.org/1999/xlink">
 <metadata>
  <rdf:RDF xmlns:cc="http://creativecommons.org/ns#" xmlns:dc="http://purl.org/dc/elements/1.1/" xmlns:rdf="http://www.w3.org/1999/02/22-rdf-syntax-ns#">
   <cc:Work>
    <dc:type rdf:resource="http://purl.org/dc/dcmitype/StillImage"/>
    <dc:date>2022-07-20T23:09:40.128193</dc:date>
    <dc:format>image/svg+xml</dc:format>
    <dc:creator>
     <cc:Agent>
      <dc:title>Matplotlib v3.3.2, https://matplotlib.org/</dc:title>
     </cc:Agent>
    </dc:creator>
   </cc:Work>
  </rdf:RDF>
 </metadata>
 <defs>
  <style type="text/css">*{stroke-linecap:butt;stroke-linejoin:round;}</style>
 </defs>
 <g id="figure_1">
  <g id="patch_1">
   <path d="M 0 345.6 
L 460.8 345.6 
L 460.8 0 
L 0 0 
z
" style="fill:#ffffff;"/>
  </g>
  <g id="axes_1">
   <g id="patch_2">
    <path d="M 57.6 307.584 
L 414.72 307.584 
L 414.72 41.472 
L 57.6 41.472 
z
" style="fill:#ffffff;"/>
   </g>
   <g id="matplotlib.axis_1">
    <g id="xtick_1">
     <g id="line2d_1">
      <defs>
       <path d="M 0 0 
L 0 3.5 
" id="m157a254b5a" style="stroke:#000000;stroke-width:0.8;"/>
      </defs>
      <g>
       <use style="stroke:#000000;stroke-width:0.8;" x="66.462732" xlink:href="#m157a254b5a" y="307.584"/>
      </g>
     </g>
     <g id="text_1">
      <!-- 5 -->
      <g transform="translate(63.281482 322.182437)scale(0.1 -0.1)">
       <defs>
        <path d="M 10.796875 72.90625 
L 49.515625 72.90625 
L 49.515625 64.59375 
L 19.828125 64.59375 
L 19.828125 46.734375 
Q 21.96875 47.46875 24.109375 47.828125 
Q 26.265625 48.1875 28.421875 48.1875 
Q 40.625 48.1875 47.75 41.5 
Q 54.890625 34.8125 54.890625 23.390625 
Q 54.890625 11.625 47.5625 5.09375 
Q 40.234375 -1.421875 26.90625 -1.421875 
Q 22.3125 -1.421875 17.546875 -0.640625 
Q 12.796875 0.140625 7.71875 1.703125 
L 7.71875 11.625 
Q 12.109375 9.234375 16.796875 8.0625 
Q 21.484375 6.890625 26.703125 6.890625 
Q 35.15625 6.890625 40.078125 11.328125 
Q 45.015625 15.765625 45.015625 23.390625 
Q 45.015625 31 40.078125 35.4375 
Q 35.15625 39.890625 26.703125 39.890625 
Q 22.75 39.890625 18.8125 39.015625 
Q 14.890625 38.140625 10.796875 36.28125 
z
" id="DejaVuSans-53"/>
       </defs>
       <use xlink:href="#DejaVuSans-53"/>
      </g>
     </g>
    </g>
    <g id="xtick_2">
     <g id="line2d_2">
      <g>
       <use style="stroke:#000000;stroke-width:0.8;" x="128.92032" xlink:href="#m157a254b5a" y="307.584"/>
      </g>
     </g>
     <g id="text_2">
      <!-- 10 -->
      <g transform="translate(122.55782 322.182437)scale(0.1 -0.1)">
       <defs>
        <path d="M 12.40625 8.296875 
L 28.515625 8.296875 
L 28.515625 63.921875 
L 10.984375 60.40625 
L 10.984375 69.390625 
L 28.421875 72.90625 
L 38.28125 72.90625 
L 38.28125 8.296875 
L 54.390625 8.296875 
L 54.390625 0 
L 12.40625 0 
z
" id="DejaVuSans-49"/>
        <path d="M 31.78125 66.40625 
Q 24.171875 66.40625 20.328125 58.90625 
Q 16.5 51.421875 16.5 36.375 
Q 16.5 21.390625 20.328125 13.890625 
Q 24.171875 6.390625 31.78125 6.390625 
Q 39.453125 6.390625 43.28125 13.890625 
Q 47.125 21.390625 47.125 36.375 
Q 47.125 51.421875 43.28125 58.90625 
Q 39.453125 66.40625 31.78125 66.40625 
z
M 31.78125 74.21875 
Q 44.046875 74.21875 50.515625 64.515625 
Q 56.984375 54.828125 56.984375 36.375 
Q 56.984375 17.96875 50.515625 8.265625 
Q 44.046875 -1.421875 31.78125 -1.421875 
Q 19.53125 -1.421875 13.0625 8.265625 
Q 6.59375 17.96875 6.59375 36.375 
Q 6.59375 54.828125 13.0625 64.515625 
Q 19.53125 74.21875 31.78125 74.21875 
z
" id="DejaVuSans-48"/>
       </defs>
       <use xlink:href="#DejaVuSans-49"/>
       <use x="63.623047" xlink:href="#DejaVuSans-48"/>
      </g>
     </g>
    </g>
    <g id="xtick_3">
     <g id="line2d_3">
      <g>
       <use style="stroke:#000000;stroke-width:0.8;" x="191.377909" xlink:href="#m157a254b5a" y="307.584"/>
      </g>
     </g>
     <g id="text_3">
      <!-- 15 -->
      <g transform="translate(185.015409 322.182437)scale(0.1 -0.1)">
       <use xlink:href="#DejaVuSans-49"/>
       <use x="63.623047" xlink:href="#DejaVuSans-53"/>
      </g>
     </g>
    </g>
    <g id="xtick_4">
     <g id="line2d_4">
      <g>
       <use style="stroke:#000000;stroke-width:0.8;" x="253.835498" xlink:href="#m157a254b5a" y="307.584"/>
      </g>
     </g>
     <g id="text_4">
      <!-- 20 -->
      <g transform="translate(247.472998 322.182437)scale(0.1 -0.1)">
       <defs>
        <path d="M 19.1875 8.296875 
L 53.609375 8.296875 
L 53.609375 0 
L 7.328125 0 
L 7.328125 8.296875 
Q 12.9375 14.109375 22.625 23.890625 
Q 32.328125 33.6875 34.8125 36.53125 
Q 39.546875 41.84375 41.421875 45.53125 
Q 43.3125 49.21875 43.3125 52.78125 
Q 43.3125 58.59375 39.234375 62.25 
Q 35.15625 65.921875 28.609375 65.921875 
Q 23.96875 65.921875 18.8125 64.3125 
Q 13.671875 62.703125 7.8125 59.421875 
L 7.8125 69.390625 
Q 13.765625 71.78125 18.9375 73 
Q 24.125 74.21875 28.421875 74.21875 
Q 39.75 74.21875 46.484375 68.546875 
Q 53.21875 62.890625 53.21875 53.421875 
Q 53.21875 48.921875 51.53125 44.890625 
Q 49.859375 40.875 45.40625 35.40625 
Q 44.1875 33.984375 37.640625 27.21875 
Q 31.109375 20.453125 19.1875 8.296875 
z
" id="DejaVuSans-50"/>
       </defs>
       <use xlink:href="#DejaVuSans-50"/>
       <use x="63.623047" xlink:href="#DejaVuSans-48"/>
      </g>
     </g>
    </g>
    <g id="xtick_5">
     <g id="line2d_5">
      <g>
       <use style="stroke:#000000;stroke-width:0.8;" x="316.293086" xlink:href="#m157a254b5a" y="307.584"/>
      </g>
     </g>
     <g id="text_5">
      <!-- 25 -->
      <g transform="translate(309.930586 322.182437)scale(0.1 -0.1)">
       <use xlink:href="#DejaVuSans-50"/>
       <use x="63.623047" xlink:href="#DejaVuSans-53"/>
      </g>
     </g>
    </g>
    <g id="xtick_6">
     <g id="line2d_6">
      <g>
       <use style="stroke:#000000;stroke-width:0.8;" x="378.750675" xlink:href="#m157a254b5a" y="307.584"/>
      </g>
     </g>
     <g id="text_6">
      <!-- 30 -->
      <g transform="translate(372.388175 322.182437)scale(0.1 -0.1)">
       <defs>
        <path d="M 40.578125 39.3125 
Q 47.65625 37.796875 51.625 33 
Q 55.609375 28.21875 55.609375 21.1875 
Q 55.609375 10.40625 48.1875 4.484375 
Q 40.765625 -1.421875 27.09375 -1.421875 
Q 22.515625 -1.421875 17.65625 -0.515625 
Q 12.796875 0.390625 7.625 2.203125 
L 7.625 11.71875 
Q 11.71875 9.328125 16.59375 8.109375 
Q 21.484375 6.890625 26.8125 6.890625 
Q 36.078125 6.890625 40.9375 10.546875 
Q 45.796875 14.203125 45.796875 21.1875 
Q 45.796875 27.640625 41.28125 31.265625 
Q 36.765625 34.90625 28.71875 34.90625 
L 20.21875 34.90625 
L 20.21875 43.015625 
L 29.109375 43.015625 
Q 36.375 43.015625 40.234375 45.921875 
Q 44.09375 48.828125 44.09375 54.296875 
Q 44.09375 59.90625 40.109375 62.90625 
Q 36.140625 65.921875 28.71875 65.921875 
Q 24.65625 65.921875 20.015625 65.03125 
Q 15.375 64.15625 9.8125 62.3125 
L 9.8125 71.09375 
Q 15.4375 72.65625 20.34375 73.4375 
Q 25.25 74.21875 29.59375 74.21875 
Q 40.828125 74.21875 47.359375 69.109375 
Q 53.90625 64.015625 53.90625 55.328125 
Q 53.90625 49.265625 50.4375 45.09375 
Q 46.96875 40.921875 40.578125 39.3125 
z
" id="DejaVuSans-51"/>
       </defs>
       <use xlink:href="#DejaVuSans-51"/>
       <use x="63.623047" xlink:href="#DejaVuSans-48"/>
      </g>
     </g>
    </g>
    <g id="text_7">
     <!-- temperature from OpenWeatherMap -->
     <g transform="translate(144.963906 335.860562)scale(0.1 -0.1)">
      <defs>
       <path d="M 18.3125 70.21875 
L 18.3125 54.6875 
L 36.8125 54.6875 
L 36.8125 47.703125 
L 18.3125 47.703125 
L 18.3125 18.015625 
Q 18.3125 11.328125 20.140625 9.421875 
Q 21.96875 7.515625 27.59375 7.515625 
L 36.8125 7.515625 
L 36.8125 0 
L 27.59375 0 
Q 17.1875 0 13.234375 3.875 
Q 9.28125 7.765625 9.28125 18.015625 
L 9.28125 47.703125 
L 2.6875 47.703125 
L 2.6875 54.6875 
L 9.28125 54.6875 
L 9.28125 70.21875 
z
" id="DejaVuSans-116"/>
       <path d="M 56.203125 29.59375 
L 56.203125 25.203125 
L 14.890625 25.203125 
Q 15.484375 15.921875 20.484375 11.0625 
Q 25.484375 6.203125 34.421875 6.203125 
Q 39.59375 6.203125 44.453125 7.46875 
Q 49.3125 8.734375 54.109375 11.28125 
L 54.109375 2.78125 
Q 49.265625 0.734375 44.1875 -0.34375 
Q 39.109375 -1.421875 33.890625 -1.421875 
Q 20.796875 -1.421875 13.15625 6.1875 
Q 5.515625 13.8125 5.515625 26.8125 
Q 5.515625 40.234375 12.765625 48.109375 
Q 20.015625 56 32.328125 56 
Q 43.359375 56 49.78125 48.890625 
Q 56.203125 41.796875 56.203125 29.59375 
z
M 47.21875 32.234375 
Q 47.125 39.59375 43.09375 43.984375 
Q 39.0625 48.390625 32.421875 48.390625 
Q 24.90625 48.390625 20.390625 44.140625 
Q 15.875 39.890625 15.1875 32.171875 
z
" id="DejaVuSans-101"/>
       <path d="M 52 44.1875 
Q 55.375 50.25 60.0625 53.125 
Q 64.75 56 71.09375 56 
Q 79.640625 56 84.28125 50.015625 
Q 88.921875 44.046875 88.921875 33.015625 
L 88.921875 0 
L 79.890625 0 
L 79.890625 32.71875 
Q 79.890625 40.578125 77.09375 44.375 
Q 74.3125 48.1875 68.609375 48.1875 
Q 61.625 48.1875 57.5625 43.546875 
Q 53.515625 38.921875 53.515625 30.90625 
L 53.515625 0 
L 44.484375 0 
L 44.484375 32.71875 
Q 44.484375 40.625 41.703125 44.40625 
Q 38.921875 48.1875 33.109375 48.1875 
Q 26.21875 48.1875 22.15625 43.53125 
Q 18.109375 38.875 18.109375 30.90625 
L 18.109375 0 
L 9.078125 0 
L 9.078125 54.6875 
L 18.109375 54.6875 
L 18.109375 46.1875 
Q 21.1875 51.21875 25.484375 53.609375 
Q 29.78125 56 35.6875 56 
Q 41.65625 56 45.828125 52.96875 
Q 50 49.953125 52 44.1875 
z
" id="DejaVuSans-109"/>
       <path d="M 18.109375 8.203125 
L 18.109375 -20.796875 
L 9.078125 -20.796875 
L 9.078125 54.6875 
L 18.109375 54.6875 
L 18.109375 46.390625 
Q 20.953125 51.265625 25.265625 53.625 
Q 29.59375 56 35.59375 56 
Q 45.5625 56 51.78125 48.09375 
Q 58.015625 40.1875 58.015625 27.296875 
Q 58.015625 14.40625 51.78125 6.484375 
Q 45.5625 -1.421875 35.59375 -1.421875 
Q 29.59375 -1.421875 25.265625 0.953125 
Q 20.953125 3.328125 18.109375 8.203125 
z
M 48.6875 27.296875 
Q 48.6875 37.203125 44.609375 42.84375 
Q 40.53125 48.484375 33.40625 48.484375 
Q 26.265625 48.484375 22.1875 42.84375 
Q 18.109375 37.203125 18.109375 27.296875 
Q 18.109375 17.390625 22.1875 11.75 
Q 26.265625 6.109375 33.40625 6.109375 
Q 40.53125 6.109375 44.609375 11.75 
Q 48.6875 17.390625 48.6875 27.296875 
z
" id="DejaVuSans-112"/>
       <path d="M 41.109375 46.296875 
Q 39.59375 47.171875 37.8125 47.578125 
Q 36.03125 48 33.890625 48 
Q 26.265625 48 22.1875 43.046875 
Q 18.109375 38.09375 18.109375 28.8125 
L 18.109375 0 
L 9.078125 0 
L 9.078125 54.6875 
L 18.109375 54.6875 
L 18.109375 46.1875 
Q 20.953125 51.171875 25.484375 53.578125 
Q 30.03125 56 36.53125 56 
Q 37.453125 56 38.578125 55.875 
Q 39.703125 55.765625 41.0625 55.515625 
z
" id="DejaVuSans-114"/>
       <path d="M 34.28125 27.484375 
Q 23.390625 27.484375 19.1875 25 
Q 14.984375 22.515625 14.984375 16.5 
Q 14.984375 11.71875 18.140625 8.90625 
Q 21.296875 6.109375 26.703125 6.109375 
Q 34.1875 6.109375 38.703125 11.40625 
Q 43.21875 16.703125 43.21875 25.484375 
L 43.21875 27.484375 
z
M 52.203125 31.203125 
L 52.203125 0 
L 43.21875 0 
L 43.21875 8.296875 
Q 40.140625 3.328125 35.546875 0.953125 
Q 30.953125 -1.421875 24.3125 -1.421875 
Q 15.921875 -1.421875 10.953125 3.296875 
Q 6 8.015625 6 15.921875 
Q 6 25.140625 12.171875 29.828125 
Q 18.359375 34.515625 30.609375 34.515625 
L 43.21875 34.515625 
L 43.21875 35.40625 
Q 43.21875 41.609375 39.140625 45 
Q 35.0625 48.390625 27.6875 48.390625 
Q 23 48.390625 18.546875 47.265625 
Q 14.109375 46.140625 10.015625 43.890625 
L 10.015625 52.203125 
Q 14.9375 54.109375 19.578125 55.046875 
Q 24.21875 56 28.609375 56 
Q 40.484375 56 46.34375 49.84375 
Q 52.203125 43.703125 52.203125 31.203125 
z
" id="DejaVuSans-97"/>
       <path d="M 8.5 21.578125 
L 8.5 54.6875 
L 17.484375 54.6875 
L 17.484375 21.921875 
Q 17.484375 14.15625 20.5 10.265625 
Q 23.53125 6.390625 29.59375 6.390625 
Q 36.859375 6.390625 41.078125 11.03125 
Q 45.3125 15.671875 45.3125 23.6875 
L 45.3125 54.6875 
L 54.296875 54.6875 
L 54.296875 0 
L 45.3125 0 
L 45.3125 8.40625 
Q 42.046875 3.421875 37.71875 1 
Q 33.40625 -1.421875 27.6875 -1.421875 
Q 18.265625 -1.421875 13.375 4.4375 
Q 8.5 10.296875 8.5 21.578125 
z
M 31.109375 56 
z
" id="DejaVuSans-117"/>
       <path id="DejaVuSans-32"/>
       <path d="M 37.109375 75.984375 
L 37.109375 68.5 
L 28.515625 68.5 
Q 23.6875 68.5 21.796875 66.546875 
Q 19.921875 64.59375 19.921875 59.515625 
L 19.921875 54.6875 
L 34.71875 54.6875 
L 34.71875 47.703125 
L 19.921875 47.703125 
L 19.921875 0 
L 10.890625 0 
L 10.890625 47.703125 
L 2.296875 47.703125 
L 2.296875 54.6875 
L 10.890625 54.6875 
L 10.890625 58.5 
Q 10.890625 67.625 15.140625 71.796875 
Q 19.390625 75.984375 28.609375 75.984375 
z
" id="DejaVuSans-102"/>
       <path d="M 30.609375 48.390625 
Q 23.390625 48.390625 19.1875 42.75 
Q 14.984375 37.109375 14.984375 27.296875 
Q 14.984375 17.484375 19.15625 11.84375 
Q 23.34375 6.203125 30.609375 6.203125 
Q 37.796875 6.203125 41.984375 11.859375 
Q 46.1875 17.53125 46.1875 27.296875 
Q 46.1875 37.015625 41.984375 42.703125 
Q 37.796875 48.390625 30.609375 48.390625 
z
M 30.609375 56 
Q 42.328125 56 49.015625 48.375 
Q 55.71875 40.765625 55.71875 27.296875 
Q 55.71875 13.875 49.015625 6.21875 
Q 42.328125 -1.421875 30.609375 -1.421875 
Q 18.84375 -1.421875 12.171875 6.21875 
Q 5.515625 13.875 5.515625 27.296875 
Q 5.515625 40.765625 12.171875 48.375 
Q 18.84375 56 30.609375 56 
z
" id="DejaVuSans-111"/>
       <path d="M 39.40625 66.21875 
Q 28.65625 66.21875 22.328125 58.203125 
Q 16.015625 50.203125 16.015625 36.375 
Q 16.015625 22.609375 22.328125 14.59375 
Q 28.65625 6.59375 39.40625 6.59375 
Q 50.140625 6.59375 56.421875 14.59375 
Q 62.703125 22.609375 62.703125 36.375 
Q 62.703125 50.203125 56.421875 58.203125 
Q 50.140625 66.21875 39.40625 66.21875 
z
M 39.40625 74.21875 
Q 54.734375 74.21875 63.90625 63.9375 
Q 73.09375 53.65625 73.09375 36.375 
Q 73.09375 19.140625 63.90625 8.859375 
Q 54.734375 -1.421875 39.40625 -1.421875 
Q 24.03125 -1.421875 14.8125 8.828125 
Q 5.609375 19.09375 5.609375 36.375 
Q 5.609375 53.65625 14.8125 63.9375 
Q 24.03125 74.21875 39.40625 74.21875 
z
" id="DejaVuSans-79"/>
       <path d="M 54.890625 33.015625 
L 54.890625 0 
L 45.90625 0 
L 45.90625 32.71875 
Q 45.90625 40.484375 42.875 44.328125 
Q 39.84375 48.1875 33.796875 48.1875 
Q 26.515625 48.1875 22.3125 43.546875 
Q 18.109375 38.921875 18.109375 30.90625 
L 18.109375 0 
L 9.078125 0 
L 9.078125 54.6875 
L 18.109375 54.6875 
L 18.109375 46.1875 
Q 21.34375 51.125 25.703125 53.5625 
Q 30.078125 56 35.796875 56 
Q 45.21875 56 50.046875 50.171875 
Q 54.890625 44.34375 54.890625 33.015625 
z
" id="DejaVuSans-110"/>
       <path d="M 3.328125 72.90625 
L 13.28125 72.90625 
L 28.609375 11.28125 
L 43.890625 72.90625 
L 54.984375 72.90625 
L 70.3125 11.28125 
L 85.59375 72.90625 
L 95.609375 72.90625 
L 77.296875 0 
L 64.890625 0 
L 49.515625 63.28125 
L 33.984375 0 
L 21.578125 0 
z
" id="DejaVuSans-87"/>
       <path d="M 54.890625 33.015625 
L 54.890625 0 
L 45.90625 0 
L 45.90625 32.71875 
Q 45.90625 40.484375 42.875 44.328125 
Q 39.84375 48.1875 33.796875 48.1875 
Q 26.515625 48.1875 22.3125 43.546875 
Q 18.109375 38.921875 18.109375 30.90625 
L 18.109375 0 
L 9.078125 0 
L 9.078125 75.984375 
L 18.109375 75.984375 
L 18.109375 46.1875 
Q 21.34375 51.125 25.703125 53.5625 
Q 30.078125 56 35.796875 56 
Q 45.21875 56 50.046875 50.171875 
Q 54.890625 44.34375 54.890625 33.015625 
z
" id="DejaVuSans-104"/>
       <path d="M 9.8125 72.90625 
L 24.515625 72.90625 
L 43.109375 23.296875 
L 61.8125 72.90625 
L 76.515625 72.90625 
L 76.515625 0 
L 66.890625 0 
L 66.890625 64.015625 
L 48.09375 14.015625 
L 38.1875 14.015625 
L 19.390625 64.015625 
L 19.390625 0 
L 9.8125 0 
z
" id="DejaVuSans-77"/>
      </defs>
      <use xlink:href="#DejaVuSans-116"/>
      <use x="39.208984" xlink:href="#DejaVuSans-101"/>
      <use x="100.732422" xlink:href="#DejaVuSans-109"/>
      <use x="198.144531" xlink:href="#DejaVuSans-112"/>
      <use x="261.621094" xlink:href="#DejaVuSans-101"/>
      <use x="323.144531" xlink:href="#DejaVuSans-114"/>
      <use x="364.257812" xlink:href="#DejaVuSans-97"/>
      <use x="425.537109" xlink:href="#DejaVuSans-116"/>
      <use x="464.746094" xlink:href="#DejaVuSans-117"/>
      <use x="528.125" xlink:href="#DejaVuSans-114"/>
      <use x="566.988281" xlink:href="#DejaVuSans-101"/>
      <use x="628.511719" xlink:href="#DejaVuSans-32"/>
      <use x="660.298828" xlink:href="#DejaVuSans-102"/>
      <use x="695.503906" xlink:href="#DejaVuSans-114"/>
      <use x="734.367188" xlink:href="#DejaVuSans-111"/>
      <use x="795.548828" xlink:href="#DejaVuSans-109"/>
      <use x="892.960938" xlink:href="#DejaVuSans-32"/>
      <use x="924.748047" xlink:href="#DejaVuSans-79"/>
      <use x="1003.458984" xlink:href="#DejaVuSans-112"/>
      <use x="1066.935547" xlink:href="#DejaVuSans-101"/>
      <use x="1128.458984" xlink:href="#DejaVuSans-110"/>
      <use x="1191.837891" xlink:href="#DejaVuSans-87"/>
      <use x="1284.839844" xlink:href="#DejaVuSans-101"/>
      <use x="1346.363281" xlink:href="#DejaVuSans-97"/>
      <use x="1407.642578" xlink:href="#DejaVuSans-116"/>
      <use x="1446.851562" xlink:href="#DejaVuSans-104"/>
      <use x="1510.230469" xlink:href="#DejaVuSans-101"/>
      <use x="1571.753906" xlink:href="#DejaVuSans-114"/>
      <use x="1612.867188" xlink:href="#DejaVuSans-77"/>
      <use x="1699.146484" xlink:href="#DejaVuSans-97"/>
      <use x="1760.425781" xlink:href="#DejaVuSans-112"/>
     </g>
    </g>
   </g>
   <g id="matplotlib.axis_2">
    <g id="ytick_1">
     <g id="line2d_7">
      <defs>
       <path d="M 0 0 
L -3.5 0 
" id="m2938cc5a75" style="stroke:#000000;stroke-width:0.8;"/>
      </defs>
      <g>
       <use style="stroke:#000000;stroke-width:0.8;" x="57.6" xlink:href="#m2938cc5a75" y="295.721207"/>
      </g>
     </g>
     <g id="text_8">
      <!-- 5 -->
      <g transform="translate(44.2375 299.520425)scale(0.1 -0.1)">
       <use xlink:href="#DejaVuSans-53"/>
      </g>
     </g>
    </g>
    <g id="ytick_2">
     <g id="line2d_8">
      <g>
       <use style="stroke:#000000;stroke-width:0.8;" x="57.6" xlink:href="#m2938cc5a75" y="242.719717"/>
      </g>
     </g>
     <g id="text_9">
      <!-- 10 -->
      <g transform="translate(37.875 246.518936)scale(0.1 -0.1)">
       <use xlink:href="#DejaVuSans-49"/>
       <use x="63.623047" xlink:href="#DejaVuSans-48"/>
      </g>
     </g>
    </g>
    <g id="ytick_3">
     <g id="line2d_9">
      <g>
       <use style="stroke:#000000;stroke-width:0.8;" x="57.6" xlink:href="#m2938cc5a75" y="189.718227"/>
      </g>
     </g>
     <g id="text_10">
      <!-- 15 -->
      <g transform="translate(37.875 193.517446)scale(0.1 -0.1)">
       <use xlink:href="#DejaVuSans-49"/>
       <use x="63.623047" xlink:href="#DejaVuSans-53"/>
      </g>
     </g>
    </g>
    <g id="ytick_4">
     <g id="line2d_10">
      <g>
       <use style="stroke:#000000;stroke-width:0.8;" x="57.6" xlink:href="#m2938cc5a75" y="136.716737"/>
      </g>
     </g>
     <g id="text_11">
      <!-- 20 -->
      <g transform="translate(37.875 140.515956)scale(0.1 -0.1)">
       <use xlink:href="#DejaVuSans-50"/>
       <use x="63.623047" xlink:href="#DejaVuSans-48"/>
      </g>
     </g>
    </g>
    <g id="ytick_5">
     <g id="line2d_11">
      <g>
       <use style="stroke:#000000;stroke-width:0.8;" x="57.6" xlink:href="#m2938cc5a75" y="83.715247"/>
      </g>
     </g>
     <g id="text_12">
      <!-- 25 -->
      <g transform="translate(37.875 87.514466)scale(0.1 -0.1)">
       <use xlink:href="#DejaVuSans-50"/>
       <use x="63.623047" xlink:href="#DejaVuSans-53"/>
      </g>
     </g>
    </g>
    <g id="text_13">
     <!-- ping_day[ms] -->
     <g transform="translate(31.517187 208.508469)rotate(-90)scale(0.1 -0.1)">
      <defs>
       <path d="M 9.421875 54.6875 
L 18.40625 54.6875 
L 18.40625 0 
L 9.421875 0 
z
M 9.421875 75.984375 
L 18.40625 75.984375 
L 18.40625 64.59375 
L 9.421875 64.59375 
z
" id="DejaVuSans-105"/>
       <path d="M 45.40625 27.984375 
Q 45.40625 37.75 41.375 43.109375 
Q 37.359375 48.484375 30.078125 48.484375 
Q 22.859375 48.484375 18.828125 43.109375 
Q 14.796875 37.75 14.796875 27.984375 
Q 14.796875 18.265625 18.828125 12.890625 
Q 22.859375 7.515625 30.078125 7.515625 
Q 37.359375 7.515625 41.375 12.890625 
Q 45.40625 18.265625 45.40625 27.984375 
z
M 54.390625 6.78125 
Q 54.390625 -7.171875 48.1875 -13.984375 
Q 42 -20.796875 29.203125 -20.796875 
Q 24.46875 -20.796875 20.265625 -20.09375 
Q 16.0625 -19.390625 12.109375 -17.921875 
L 12.109375 -9.1875 
Q 16.0625 -11.328125 19.921875 -12.34375 
Q 23.78125 -13.375 27.78125 -13.375 
Q 36.625 -13.375 41.015625 -8.765625 
Q 45.40625 -4.15625 45.40625 5.171875 
L 45.40625 9.625 
Q 42.625 4.78125 38.28125 2.390625 
Q 33.9375 0 27.875 0 
Q 17.828125 0 11.671875 7.65625 
Q 5.515625 15.328125 5.515625 27.984375 
Q 5.515625 40.671875 11.671875 48.328125 
Q 17.828125 56 27.875 56 
Q 33.9375 56 38.28125 53.609375 
Q 42.625 51.21875 45.40625 46.390625 
L 45.40625 54.6875 
L 54.390625 54.6875 
z
" id="DejaVuSans-103"/>
       <path d="M 50.984375 -16.609375 
L 50.984375 -23.578125 
L -0.984375 -23.578125 
L -0.984375 -16.609375 
z
" id="DejaVuSans-95"/>
       <path d="M 45.40625 46.390625 
L 45.40625 75.984375 
L 54.390625 75.984375 
L 54.390625 0 
L 45.40625 0 
L 45.40625 8.203125 
Q 42.578125 3.328125 38.25 0.953125 
Q 33.9375 -1.421875 27.875 -1.421875 
Q 17.96875 -1.421875 11.734375 6.484375 
Q 5.515625 14.40625 5.515625 27.296875 
Q 5.515625 40.1875 11.734375 48.09375 
Q 17.96875 56 27.875 56 
Q 33.9375 56 38.25 53.625 
Q 42.578125 51.265625 45.40625 46.390625 
z
M 14.796875 27.296875 
Q 14.796875 17.390625 18.875 11.75 
Q 22.953125 6.109375 30.078125 6.109375 
Q 37.203125 6.109375 41.296875 11.75 
Q 45.40625 17.390625 45.40625 27.296875 
Q 45.40625 37.203125 41.296875 42.84375 
Q 37.203125 48.484375 30.078125 48.484375 
Q 22.953125 48.484375 18.875 42.84375 
Q 14.796875 37.203125 14.796875 27.296875 
z
" id="DejaVuSans-100"/>
       <path d="M 32.171875 -5.078125 
Q 28.375 -14.84375 24.75 -17.8125 
Q 21.140625 -20.796875 15.09375 -20.796875 
L 7.90625 -20.796875 
L 7.90625 -13.28125 
L 13.1875 -13.28125 
Q 16.890625 -13.28125 18.9375 -11.515625 
Q 21 -9.765625 23.484375 -3.21875 
L 25.09375 0.875 
L 2.984375 54.6875 
L 12.5 54.6875 
L 29.59375 11.921875 
L 46.6875 54.6875 
L 56.203125 54.6875 
z
" id="DejaVuSans-121"/>
       <path d="M 8.59375 75.984375 
L 29.296875 75.984375 
L 29.296875 69 
L 17.578125 69 
L 17.578125 -6.203125 
L 29.296875 -6.203125 
L 29.296875 -13.1875 
L 8.59375 -13.1875 
z
" id="DejaVuSans-91"/>
       <path d="M 44.28125 53.078125 
L 44.28125 44.578125 
Q 40.484375 46.53125 36.375 47.5 
Q 32.28125 48.484375 27.875 48.484375 
Q 21.1875 48.484375 17.84375 46.4375 
Q 14.5 44.390625 14.5 40.28125 
Q 14.5 37.15625 16.890625 35.375 
Q 19.28125 33.59375 26.515625 31.984375 
L 29.59375 31.296875 
Q 39.15625 29.25 43.1875 25.515625 
Q 47.21875 21.78125 47.21875 15.09375 
Q 47.21875 7.46875 41.1875 3.015625 
Q 35.15625 -1.421875 24.609375 -1.421875 
Q 20.21875 -1.421875 15.453125 -0.5625 
Q 10.6875 0.296875 5.421875 2 
L 5.421875 11.28125 
Q 10.40625 8.6875 15.234375 7.390625 
Q 20.0625 6.109375 24.8125 6.109375 
Q 31.15625 6.109375 34.5625 8.28125 
Q 37.984375 10.453125 37.984375 14.40625 
Q 37.984375 18.0625 35.515625 20.015625 
Q 33.0625 21.96875 24.703125 23.78125 
L 21.578125 24.515625 
Q 13.234375 26.265625 9.515625 29.90625 
Q 5.8125 33.546875 5.8125 39.890625 
Q 5.8125 47.609375 11.28125 51.796875 
Q 16.75 56 26.8125 56 
Q 31.78125 56 36.171875 55.265625 
Q 40.578125 54.546875 44.28125 53.078125 
z
" id="DejaVuSans-115"/>
       <path d="M 30.421875 75.984375 
L 30.421875 -13.1875 
L 9.71875 -13.1875 
L 9.71875 -6.203125 
L 21.390625 -6.203125 
L 21.390625 69 
L 9.71875 69 
L 9.71875 75.984375 
z
" id="DejaVuSans-93"/>
      </defs>
      <use xlink:href="#DejaVuSans-112"/>
      <use x="63.476562" xlink:href="#DejaVuSans-105"/>
      <use x="91.259766" xlink:href="#DejaVuSans-110"/>
      <use x="154.638672" xlink:href="#DejaVuSans-103"/>
      <use x="218.115234" xlink:href="#DejaVuSans-95"/>
      <use x="268.115234" xlink:href="#DejaVuSans-100"/>
      <use x="331.591797" xlink:href="#DejaVuSans-97"/>
      <use x="392.871094" xlink:href="#DejaVuSans-121"/>
      <use x="452.050781" xlink:href="#DejaVuSans-91"/>
      <use x="491.064453" xlink:href="#DejaVuSans-109"/>
      <use x="588.476562" xlink:href="#DejaVuSans-115"/>
      <use x="640.576172" xlink:href="#DejaVuSans-93"/>
     </g>
    </g>
   </g>
   <g id="line2d_12">
    <path clip-path="url(#p15e3b01aea)" d="M 73.832727 283.594466 
L 74.207473 283.350659 
L 74.582218 278.06111 
L 76.705776 287.749782 
L 77.830013 286.901759 
L 78.204758 285.703925 
L 78.329674 284.166882 
L 78.454589 289.170222 
L 79.20408 280.573381 
L 79.328995 288.597806 
L 89.82187 285.841729 
L 89.946785 286.551949 
L 90.696276 287.060763 
L 90.821191 290.792068 
L 91.071022 282.651039 
L 91.320852 279.640555 
L 91.820513 281.315402 
L 94.068986 286.647352 
L 94.443732 287.929988 
L 94.818477 282.873645 
L 94.943392 291.629492 
L 95.443053 284.315286 
L 95.692883 285.120909 
L 96.192544 279.576953 
L 97.191865 284.219883 
L 98.316102 284.696897 
L 99.065593 275.803247 
L 100.43966 282.958448 
L 100.939321 278.294317 
L 101.314066 283.371859 
L 101.563897 283.520264 
L 103.687455 280.859589 
L 104.436946 287.219768 
L 104.686776 282.237628 
L 104.936606 282.725241 
L 105.686097 283.446062 
L 107.060164 279.12114 
L 107.18508 270.492497 
L 107.309995 285.269313 
L 107.43491 253.733426 
L 107.809655 284.039678 
L 108.059486 276.248459 
L 108.184401 279.682956 
L 108.559147 283.191654 
L 108.684062 273.555984 
L 109.058807 285.078507 
L 109.308638 284.44249 
L 109.558468 289.562433 
L 110.058129 289.78504 
L 110.183044 286.000733 
L 110.307959 285.809928 
L 110.682705 288.046591 
L 110.80762 290.050047 
L 111.557111 263.337296 
L 111.931856 288.576606 
L 112.056771 279.757158 
L 112.181687 280.424977 
L 112.431517 286.23394 
L 112.806263 275.750245 
L 113.056093 277.425092 
L 113.305923 274.425208 
L 113.430838 275.623042 
L 113.555754 284.495491 
L 114.67999 282.33303 
L 115.429481 282.428433 
L 115.554396 283.76407 
L 115.679312 287.431774 
L 115.804227 271.764533 
L 116.054057 280.91259 
L 116.553718 286.329343 
L 116.928463 285.979533 
L 117.178294 285.587322 
L 117.303209 279.873761 
L 118.30253 276.025853 
L 118.677276 284.410689 
L 119.052021 280.997393 
L 119.801512 274.181401 
L 119.926428 284.580293 
L 120.426088 281.930219 
L 121.050664 289.308026 
L 121.92507 273.873992 
L 122.049986 282.916047 
L 122.174901 275.718444 
L 122.299816 278.909134 
L 122.424731 258.779168 
L 122.674562 279.322546 
L 122.924392 289.626035 
L 123.049307 261.715451 
L 123.299137 290.103049 
L 123.424053 283.488463 
L 123.673883 281.071595 
L 124.048628 279.428549 
L 124.423374 288.937016 
L 124.923035 277.594697 
L 125.422695 278.124712 
L 125.547611 280.90199 
L 126.422017 290.346855 
L 126.671847 271.902337 
L 127.171508 289.551833 
L 127.546253 274.669015 
L 127.920999 289.339827 
L 128.295745 274.457009 
L 128.42066 278.919734 
L 128.67049 275.91985 
L 128.795405 250.945548 
L 129.045236 287.283369 
L 129.419981 281.273 
L 129.544896 281.98322 
L 129.669811 286.032534 
L 129.919642 270.874108 
L 130.044557 287.484775 
L 130.419303 282.131625 
L 130.544218 287.537777 
L 131.293709 284.400088 
L 131.418624 289.488231 
L 131.543539 282.841845 
L 131.668454 290.283254 
L 131.793369 281.103396 
L 131.918285 226.946473 
L 132.0432 279.534552 
L 132.29303 286.032534 
L 132.417945 287.368172 
L 132.542861 267.39721 
L 132.792691 280.89139 
L 132.917606 276.810275 
L 133.292352 285.905331 
L 133.542182 281.538008 
L 133.667097 284.304686 
L 133.916927 285.014906 
L 134.041843 265.043944 
L 134.291673 287.325771 
L 134.416588 273.863392 
L 134.541503 290.421058 
L 134.916249 282.545036 
L 135.041164 287.569577 
L 135.41591 271.329921 
L 135.66574 283.509663 
L 135.790655 277.160085 
L 136.040486 272.559556 
L 136.415231 285.237512 
L 136.789977 281.2624 
L 137.039807 285.279913 
L 137.789298 275.782046 
L 137.914213 288.3646 
L 138.039128 285.831129 
L 138.164044 274.276804 
L 138.413874 293.70715 
L 138.788619 286.732154 
L 139.03845 275.283832 
L 139.163365 277.658299 
L 139.413195 286.371744 
L 139.53811 286.085536 
L 139.663026 274.372206 
L 139.787941 289.244425 
L 140.037771 285.195111 
L 140.162686 279.608754 
L 140.287602 281.283601 
L 140.412517 287.823985 
L 140.662347 288.73561 
L 140.787262 246.451022 
L 140.912177 287.050163 
L 141.037093 280.55218 
L 141.286923 280.20237 
L 141.536753 285.025506 
L 141.786584 280.89139 
L 141.911499 281.803015 
L 142.036414 284.760498 
L 142.161329 279.364947 
L 142.286244 287.961788 
L 142.41116 282.237628 
L 142.536075 284.760498 
L 143.035735 290.887471 
L 143.285566 282.704041 
L 143.410481 248.51808 
L 143.660311 282.290629 
L 144.035057 285.195111 
L 144.159972 283.679268 
L 144.284887 284.209283 
L 144.534718 276.449865 
L 144.659633 287.357571 
L 144.909463 291.428086 
L 145.034378 285.375316 
L 145.284209 291.173679 
L 145.658954 286.467146 
L 145.783869 289.011218 
L 145.908784 283.583865 
L 146.408445 273.725588 
L 146.53336 184.48168 
L 146.658276 288.343399 
L 146.783191 286.318742 
L 146.908106 287.187967 
L 147.033021 273.06837 
L 147.157936 282.31183 
L 147.282851 282.375431 
L 147.407767 284.601494 
L 147.657597 284.760498 
L 147.782512 286.816956 
L 148.032343 284.760498 
L 148.157258 286.891158 
L 148.282173 275.55944 
L 148.407088 287.346971 
L 148.532003 280.456777 
L 148.656918 284.082079 
L 148.906749 284.007877 
L 149.156579 286.530748 
L 149.281494 271.711532 
L 149.406409 277.138884 
L 149.781155 287.940588 
L 149.90607 281.2412 
L 150.030985 284.251684 
L 150.280816 284.580293 
L 150.405731 288.862814 
L 150.530646 280.467378 
L 150.655561 289.032419 
L 150.780476 280.605182 
L 151.030307 289.361028 
L 151.280137 279.873761 
L 151.654883 286.467146 
L 151.779798 284.262284 
L 151.904713 53.568 
L 152.029628 281.336602 
L 152.279459 284.951304 
L 152.404374 283.785271 
L 152.529289 287.993589 
L 152.654204 281.887818 
L 152.779119 289.233824 
L 152.904034 287.717982 
L 153.02895 277.552296 
L 153.27878 286.530748 
L 153.403695 282.661639 
L 153.52861 291.20548 
L 153.653525 284.09268 
L 153.778441 287.081964 
L 154.278101 280.774786 
L 154.403017 288.396401 
L 154.652847 287.601378 
L 154.777762 267.460812 
L 154.902677 287.972389 
L 155.027592 287.378772 
L 155.152508 286.096136 
L 155.277423 279.990364 
L 155.402338 279.407348 
L 155.652168 290.87687 
L 155.777083 282.513235 
L 156.026914 286.159738 
L 156.151829 280.159969 
L 156.276744 281.580409 
L 156.401659 288.02539 
L 156.776405 281.230599 
L 156.90132 285.87353 
L 157.15115 288.02539 
L 157.276066 258.535361 
L 157.400981 285.036106 
L 157.525896 284.188082 
L 157.650811 288.417601 
L 157.900642 269.135659 
L 158.025557 290.399857 
L 158.400302 286.96536 
L 158.525217 285.788727 
L 158.650133 278.622926 
L 158.775048 289.912243 
L 158.899963 285.852329 
L 159.024878 286.170338 
L 159.274708 282.036222 
L 159.399624 265.679962 
L 159.524539 285.990133 
L 159.649454 280.446177 
L 159.774369 287.898187 
L 159.899284 280.159969 
L 160.149115 289.233824 
L 160.398945 288.947616 
L 160.52386 282.195226 
L 160.648775 281.813616 
L 160.898606 283.255256 
L 161.148436 282.280029 
L 161.398266 267.800022 
L 161.523182 284.633295 
L 161.648097 283.371859 
L 162.022842 289.255025 
L 162.272673 282.269428 
L 162.522503 270.153288 
L 162.647418 287.802784 
L 162.772333 285.290513 
L 162.897249 285.89473 
L 163.022164 289.106621 
L 163.271994 285.89473 
L 163.396909 276.64067 
L 163.64674 285.216311 
L 163.89657 286.085536 
L 164.021485 288.915815 
L 164.1464 288.120793 
L 164.271316 285.852329 
L 164.396231 274.170801 
L 164.646061 287.855785 
L 164.770976 281.145797 
L 165.020807 283.870073 
L 165.145722 276.481666 
L 165.270637 291.353884 
L 165.645382 286.085536 
L 165.770298 291.618891 
L 166.020128 284.951304 
L 166.145043 283.318858 
L 166.269958 289.880442 
L 166.394874 281.877217 
L 166.519789 281.209399 
L 166.769619 285.661524 
L 166.894534 276.831476 
L 167.019449 283.39306 
L 167.144365 282.290629 
L 167.26928 284.082079 
L 167.394195 289.954644 
L 167.644025 281.315402 
L 167.768941 282.598038 
L 167.893856 286.573149 
L 168.018771 283.74287 
L 168.143686 291.237281 
L 168.268601 291.332683 
L 168.393516 277.107083 
L 168.518432 283.40366 
L 168.643347 282.714641 
L 168.768262 278.887933 
L 168.893177 281.368403 
L 169.143007 290.696665 
L 169.267923 276.916278 
L 169.392838 287.240968 
L 169.517753 270.715104 
L 169.642668 289.763839 
L 169.767583 284.866501 
L 169.892499 288.767411 
L 170.017414 287.527176 
L 170.142329 292.774324 
L 170.267244 287.007762 
L 170.392159 290.346855 
L 170.517074 289.604835 
L 170.64199 285.937132 
L 170.766905 288.152594 
L 170.89182 288.163194 
L 171.016735 281.95142 
L 171.266565 292.710722 
L 171.391481 288.3858 
L 171.516396 289.859242 
L 171.766226 286.202139 
L 171.891141 278.357918 
L 172.016057 278.559324 
L 172.265887 285.650923 
L 172.390802 280.53098 
L 172.515717 291.279682 
L 172.640632 284.8135 
L 172.890463 286.838157 
L 173.015378 275.697244 
L 173.265208 288.947616 
L 173.390123 254.994862 
L 173.515039 286.138537 
L 173.639954 284.527292 
L 173.764869 287.516576 
L 173.889784 262.192464 
L 174.26453 289.975845 
L 174.76419 276.386263 
L 174.889106 280.096367 
L 175.014021 288.894615 
L 175.138936 280.053966 
L 175.263851 279.852561 
L 175.513681 286.562549 
L 175.638597 279.608754 
L 175.763512 266.008571 
L 176.013342 288.608407 
L 176.138257 288.152594 
L 176.388088 280.244772 
L 176.513003 288.937016 
L 176.762833 281.357803 
L 176.887748 286.986561 
L 177.012664 282.778243 
L 177.137579 286.424745 
L 177.262494 286.753354 
L 177.387409 277.986908 
L 177.637239 286.827557 
L 177.762155 285.693325 
L 177.88707 288.205595 
L 178.011985 287.622579 
L 178.1369 279.343746 
L 178.511646 287.156166 
L 178.886391 282.343631 
L 179.136222 289.202023 
L 179.261137 288.396401 
L 179.386052 286.085536 
L 179.510967 286.329343 
L 179.635882 288.650808 
L 179.885713 285.597922 
L 180.010628 291.067676 
L 180.260458 279.386147 
L 180.510289 289.626035 
L 180.635204 272.071942 
L 180.760119 288.534205 
L 181.009949 282.947848 
L 181.25978 289.064219 
L 181.50961 278.919734 
L 181.634525 282.004421 
L 181.75944 276.884477 
L 181.884356 289.498832 
L 182.009271 285.905331 
L 182.134186 288.258597 
L 182.259101 282.33303 
L 182.384016 289.954644 
L 182.508931 283.774671 
L 182.633847 286.106736 
L 182.758762 286.350543 
L 182.883677 289.339827 
L 183.008592 289.000618 
L 183.383338 279.83136 
L 183.508253 282.926647 
L 183.633168 281.400204 
L 183.758083 271.838735 
L 183.882998 286.562549 
L 184.007914 286.997161 
L 184.132829 286.043135 
L 184.257744 269.16746 
L 184.382659 287.145566 
L 184.507574 288.163194 
L 184.632489 283.38246 
L 184.757405 286.763955 
L 184.88232 281.453206 
L 185.007235 289.45643 
L 185.13215 271.213318 
L 185.257065 282.894846 
L 185.38198 283.361259 
L 185.506896 269.443068 
L 185.631811 280.944391 
L 185.756726 273.873992 
L 185.881641 290.209052 
L 186.006556 283.965476 
L 186.131472 283.287057 
L 186.256387 286.424745 
L 186.381302 285.036106 
L 186.631132 273.651386 
L 186.880963 292.827325 
L 187.130793 283.456662 
L 187.255708 283.774671 
L 187.505538 281.697012 
L 187.630454 282.396632 
L 187.755369 273.714988 
L 187.880284 281.548608 
L 188.005199 280.944391 
L 188.130114 283.340059 
L 188.25503 289.838041 
L 188.379945 284.739298 
L 188.50486 286.043135 
L 188.629775 281.824216 
L 188.75469 283.096252 
L 188.879605 278.42152 
L 189.129436 290.749667 
L 189.254351 279.248344 
L 189.629097 287.081964 
L 189.754012 283.02205 
L 189.878927 289.382228 
L 190.003842 289.44583 
L 190.128757 283.329458 
L 190.378588 287.421173 
L 190.503503 276.28026 
L 190.753333 286.541349 
L 190.878248 275.029425 
L 191.003163 287.686181 
L 191.128079 286.170338 
L 191.377909 278.951535 
L 191.627739 284.241084 
L 191.752655 268.605644 
L 191.87757 287.346971 
L 192.002485 273.449981 
L 192.252315 288.3858 
L 192.37723 284.930103 
L 192.627061 290.13485 
L 192.751976 281.654611 
L 192.876891 262.499873 
L 193.001806 280.53098 
L 193.126721 282.258828 
L 193.251637 272.209746 
L 193.626382 285.375316 
L 193.751297 287.30457 
L 194.001128 283.191654 
L 194.126043 285.926531 
L 194.250958 291.682493 
L 194.375873 291.279682 
L 194.500788 287.31517 
L 194.625704 287.495375 
L 194.750619 287.209167 
L 194.875534 288.576606 
L 195.000449 275.177829 
L 195.250279 292.466915 
L 195.375195 281.230599 
L 195.50011 284.124481 
L 195.625025 276.418064 
L 195.74994 285.036106 
L 195.999771 280.499179 
L 196.124686 289.668436 
L 196.249601 289.562433 
L 196.499431 279.12114 
L 196.624346 287.018362 
L 196.749262 279.078739 
L 196.999092 287.31517 
L 197.124007 279.958563 
L 197.248922 290.357456 
L 197.498753 285.87353 
L 197.623668 280.933791 
L 197.748583 290.802668 
L 197.873498 284.559093 
L 198.123329 285.407117 
L 198.248244 282.078623 
L 198.373159 283.870073 
L 198.498074 282.068023 
L 198.622989 288.460002 
L 198.747904 268.361838 
L 198.87282 292.074704 
L 199.247565 285.799328 
L 199.37248 275.506438 
L 199.497396 291.057075 
L 199.622311 281.644011 
L 199.747226 290.898071 
L 199.997056 287.537777 
L 200.121971 288.057191 
L 200.246887 225.102022 
L 200.371802 289.700237 
L 200.496717 278.220115 
L 200.621632 288.672008 
L 200.746547 282.142225 
L 200.871462 289.710838 
L 201.121293 279.439149 
L 201.246208 288.72501 
L 201.371123 287.802784 
L 201.496038 289.223224 
L 201.620954 284.696897 
L 201.745869 287.113765 
L 201.870784 276.502866 
L 201.995699 293.70715 
L 202.245529 285.428317 
L 202.370445 283.859473 
L 202.49536 280.117568 
L 202.620275 280.848989 
L 202.74519 287.187967 
L 202.99502 281.145797 
L 203.119936 292.180707 
L 203.244851 279.767758 
L 203.369766 282.767642 
L 203.494681 289.541233 
L 203.869427 278.601725 
L 204.119257 290.527061 
L 204.244172 281.283601 
L 204.369087 287.558977 
L 204.618918 283.530864 
L 204.743833 287.940588 
L 204.868748 285.576721 
L 204.993663 287.876986 
L 205.118578 283.901874 
L 205.243494 284.8241 
L 205.368409 283.583865 
L 205.493324 280.668783 
L 205.618239 283.223455 
L 205.743154 288.873414 
L 205.992985 280.053966 
L 206.1179 293.198336 
L 206.242815 278.718329 
L 206.36773 289.127821 
L 206.492645 288.513004 
L 206.617561 286.626151 
L 206.742476 291.852098 
L 206.867391 292.180707 
L 206.992306 278.909134 
L 207.117221 285.746326 
L 207.242136 283.212855 
L 207.367052 283.647467 
L 207.491967 281.62281 
L 207.616882 285.852329 
L 207.741797 272.01894 
L 207.866712 284.47429 
L 207.991628 285.428317 
L 208.116543 287.887586 
L 208.241458 286.329343 
L 208.491288 285.799328 
L 208.741119 289.933444 
L 208.866034 280.149369 
L 209.115864 290.643664 
L 209.240779 284.209283 
L 209.365694 285.322314 
L 209.49061 277.743101 
L 209.615525 288.587206 
L 209.74044 280.117568 
L 209.865355 288.078392 
L 209.99027 281.283601 
L 210.240101 287.792184 
L 210.489931 280.255372 
L 210.614846 283.954876 
L 210.739761 282.31183 
L 210.864677 282.831244 
L 210.989592 290.770867 
L 211.239422 277.170685 
L 211.489253 287.845185 
L 211.614168 282.69344 
L 211.739083 285.767527 
L 211.863998 277.721901 
L 211.988913 289.286826 
L 212.113828 280.424977 
L 212.363659 289.679037 
L 212.488574 282.121024 
L 212.613489 289.382228 
L 212.738404 288.71441 
L 212.863319 289.954644 
L 212.988235 285.820528 
L 213.11315 286.509548 
L 213.238065 285.89473 
L 213.36298 286.95476 
L 213.487895 286.94416 
L 213.612811 289.127821 
L 213.737726 284.654495 
L 213.862641 285.905331 
L 213.987556 274.881021 
L 214.112471 283.923075 
L 214.237386 283.106852 
L 214.487217 289.149022 
L 214.612132 289.297426 
L 214.861962 271.382922 
L 214.986877 286.58375 
L 215.111793 283.647467 
L 215.236708 276.396863 
L 215.486538 288.279797 
L 215.736369 282.608638 
L 215.861284 286.053735 
L 215.986199 282.68284 
L 216.111114 288.02539 
L 216.236029 279.576953 
L 216.360944 288.852213 
L 216.48586 285.17391 
L 216.610775 286.626151 
L 216.73569 283.223455 
L 216.98552 291.131278 
L 217.110435 279.704156 
L 217.235351 285.746326 
L 217.360266 279.449749 
L 217.485181 286.869958 
L 217.610096 286.859357 
L 217.859927 288.73561 
L 217.984842 283.74287 
L 218.234672 292.541117 
L 218.359587 285.375316 
L 218.484502 286.074935 
L 218.609418 289.520032 
L 218.734333 287.368172 
L 218.859248 279.386147 
L 218.984163 291.650692 
L 219.109078 290.007646 
L 219.233993 290.209052 
L 219.358909 286.520148 
L 219.483824 288.597806 
L 219.608739 282.280029 
L 219.733654 283.891274 
L 219.858569 289.912243 
L 219.983485 289.191423 
L 220.1084 276.97988 
L 220.233315 287.993589 
L 220.35823 287.633179 
L 220.483145 285.926531 
L 220.60806 285.809928 
L 220.732976 282.417833 
L 220.982806 287.421173 
L 221.107721 287.134965 
L 221.232636 287.781583 
L 221.357552 282.831244 
L 221.482467 290.686065 
L 221.607382 288.534205 
L 221.732297 265.499757 
L 221.857212 289.043019 
L 221.982127 287.124365 
L 222.107043 291.661292 
L 222.231958 287.495375 
L 222.356873 288.672008 
L 222.731618 281.113996 
L 222.856534 295.488 
L 222.981449 285.555521 
L 223.106364 285.248112 
L 223.231279 282.460234 
L 223.356194 290.611863 
L 223.48111 285.703925 
L 223.606025 288.247996 
L 223.73094 256.500104 
L 223.855855 287.452974 
L 223.98077 278.993936 
L 224.105685 287.431774 
L 224.230601 287.092564 
L 224.480431 289.912243 
L 224.730261 280.56278 
L 224.855176 287.495375 
L 225.105007 288.216196 
L 225.229922 279.036338 
L 225.354837 286.286941 
L 225.479752 282.523836 
L 225.604668 287.463574 
L 225.729583 281.866617 
L 225.979413 290.060647 
L 226.104328 290.13485 
L 226.229243 284.749898 
L 226.479074 288.120793 
L 226.603989 292.223108 
L 226.728904 287.071363 
L 226.853819 257.305727 
L 227.228565 287.081964 
L 227.478395 281.304801 
L 227.60331 289.944044 
L 227.728226 287.707381 
L 227.853141 281.198798 
L 228.102971 291.544689 
L 228.227886 282.545036 
L 228.352801 286.265741 
L 228.477717 286.361143 
L 228.602632 283.74287 
L 228.727547 288.534205 
L 228.852462 288.905215 
L 228.977377 286.488347 
L 229.102292 290.368056 
L 229.227208 284.866501 
L 229.477038 289.44583 
L 229.976699 283.340059 
L 230.226529 292.668321 
L 230.476359 283.011449 
L 230.601275 282.852445 
L 230.72619 278.230715 
L 230.851105 287.039563 
L 230.97602 282.767642 
L 231.225851 290.007646 
L 231.350766 277.827904 
L 231.475681 277.478094 
L 231.600596 285.195111 
L 231.850426 284.792299 
L 231.975342 287.802784 
L 232.100257 285.142109 
L 232.225172 278.474522 
L 232.475002 287.739182 
L 232.724833 283.287057 
L 232.849748 286.753354 
L 232.974663 285.841729 
L 233.099578 288.407001 
L 233.224493 283.446062 
L 233.474324 290.929872 
L 233.599239 282.608638 
L 233.724154 290.590662 
L 233.849069 287.876986 
L 233.973984 288.247996 
L 234.0989 289.308026 
L 234.223815 289.07482 
L 234.34873 285.375316 
L 234.59856 290.558861 
L 234.723475 283.594466 
L 234.848391 285.767527 
L 234.973306 282.470834 
L 235.098221 289.064219 
L 235.348051 278.474522 
L 235.472967 287.940588 
L 235.597882 287.601378 
L 235.722797 290.813269 
L 235.972627 285.88413 
L 236.097542 283.287057 
L 236.347373 289.08542 
L 236.472288 282.67224 
L 236.597203 290.230252 
L 236.722118 287.792184 
L 236.847033 281.018593 
L 237.096864 288.099592 
L 237.346694 282.534436 
L 237.471609 266.199377 
L 237.72144 290.590662 
L 237.846355 284.877102 
L 237.97127 285.025506 
L 238.096185 290.325655 
L 238.2211 289.668436 
L 238.470931 283.223455 
L 238.595846 266.464384 
L 238.720761 285.258712 
L 238.970591 280.329574 
L 239.720083 288.990017 
L 239.844998 288.523604 
L 239.969913 278.951535 
L 240.219743 291.746095 
L 240.344658 284.082079 
L 240.469574 285.460118 
L 240.594489 292.170107 
L 240.719404 279.852561 
L 240.844319 281.654611 
L 241.094149 289.573034 
L 241.219065 285.51312 
L 241.34398 286.350543 
L 241.468895 286.276341 
L 241.59381 276.969279 
L 241.718725 279.799559 
L 241.843641 286.753354 
L 241.968556 282.894846 
L 242.093471 288.555405 
L 242.218386 284.357687 
L 242.343301 293.039331 
L 242.468216 282.163425 
L 242.593132 285.089108 
L 242.718047 283.774671 
L 242.842962 289.127821 
L 242.967877 285.311714 
L 243.092792 289.329227 
L 243.217708 287.081964 
L 243.467538 280.477978 
L 243.592453 286.23394 
L 243.717368 286.848757 
L 243.842283 291.417486 
L 243.967199 286.891158 
L 244.092114 287.251568 
L 244.217029 283.04325 
L 244.466859 290.484659 
L 244.591774 284.241084 
L 244.71669 290.431658 
L 244.841605 289.753239 
L 244.96652 284.749898 
L 245.091435 290.060647 
L 245.21635 289.032419 
L 245.341266 285.926531 
L 245.591096 288.449402 
L 245.716011 284.304686 
L 245.965841 287.611979 
L 246.090757 286.986561 
L 246.215672 288.693209 
L 246.340587 278.42152 
L 246.590417 288.979417 
L 246.715332 284.368287 
L 246.840248 288.428202 
L 246.965163 282.502635 
L 247.090078 289.636636 
L 247.214993 285.152709 
L 247.464824 291.491688 
L 247.589739 280.859589 
L 247.714654 282.33303 
L 247.964484 288.968817 
L 248.089399 285.544921 
L 248.33923 287.887586 
L 248.464145 286.212739 
L 248.58906 288.555405 
L 248.713975 283.05385 
L 248.83889 292.382113 
L 249.088721 284.484891 
L 249.213636 288.322199 
L 249.338551 283.774671 
L 249.463466 289.021818 
L 249.588382 286.657952 
L 249.713297 289.869842 
L 249.963127 288.682609 
L 250.088042 285.004305 
L 250.212957 287.421173 
L 250.337873 280.647583 
L 250.587703 283.287057 
L 250.712618 284.601494 
L 250.837533 287.30457 
L 250.962448 283.530864 
L 251.212279 292.000502 
L 251.587024 277.584097 
L 251.836855 289.520032 
L 252.086685 282.651039 
L 252.2116 285.905331 
L 252.336515 282.131625 
L 252.711261 286.414145 
L 252.836176 290.823869 
L 253.086007 288.438802 
L 253.210922 289.032419 
L 253.335837 294.321967 
L 253.460752 290.315055 
L 253.585667 290.16665 
L 253.710582 291.767295 
L 253.835498 286.308142 
L 253.960413 286.445946 
L 254.085328 283.276457 
L 254.210243 292.042903 
L 254.335158 280.605182 
L 254.709904 277.615898 
L 254.834819 288.831013 
L 255.084649 282.396632 
L 255.209565 289.43523 
L 255.33448 288.778011 
L 255.459395 282.237628 
L 255.58431 286.838157 
L 255.709225 280.817188 
L 255.83414 290.548261 
L 255.959056 288.396401 
L 256.083971 283.626267 
L 256.458716 292.254909 
L 256.708547 285.099708 
L 256.833462 289.07482 
L 256.958377 283.085651 
L 257.083292 282.905446 
L 257.208207 287.823985 
L 257.333123 286.424745 
L 257.458038 291.004074 
L 257.582953 286.573149 
L 257.832783 290.728466 
L 257.957698 282.884246 
L 258.207529 288.619007 
L 258.582274 283.658067 
L 258.707189 288.184395 
L 258.832105 287.993589 
L 258.95702 286.276341 
L 259.081935 290.113649 
L 259.20685 285.311714 
L 259.331765 288.788612 
L 259.581596 288.470603 
L 259.706511 287.802784 
L 259.831426 291.110077 
L 259.956341 275.866848 
L 260.081256 286.23394 
L 260.331087 288.396401 
L 260.456002 290.580062 
L 260.830747 280.615782 
L 260.955663 289.679037 
L 261.080578 285.947732 
L 261.205493 291.449286 
L 261.330408 284.601494 
L 261.455323 288.3752 
L 261.580239 285.332915 
L 261.705154 288.141994 
L 261.830069 284.961904 
L 261.954984 291.799096 
L 262.079899 288.502404 
L 262.204814 291.544689 
L 262.32973 289.117221 
L 262.454645 289.170222 
L 262.57956 278.357918 
L 262.82939 288.979417 
L 262.954306 288.099592 
L 263.079221 283.255256 
L 263.329051 288.02539 
L 263.578881 287.876986 
L 263.703797 285.841729 
L 263.828712 275.866848 
L 263.953627 291.629492 
L 264.078542 284.792299 
L 264.203457 291.046475 
L 264.328372 282.746442 
L 264.453288 290.601263 
L 264.578203 289.753239 
L 264.703118 273.77859 
L 264.828033 287.686181 
L 264.952948 286.615551 
L 265.077864 284.135081 
L 265.202779 288.926416 
L 265.327694 288.491803 
L 265.452609 286.922959 
L 265.577524 280.721785 
L 265.827355 290.707266 
L 266.077185 285.778127 
L 266.2021 291.438686 
L 266.327015 285.576721 
L 266.576846 290.484659 
L 266.701761 288.587206 
L 266.826676 283.117452 
L 267.076506 285.661524 
L 267.201422 283.308258 
L 267.326337 288.756811 
L 267.451252 280.711185 
L 267.701082 288.322199 
L 267.825997 286.859357 
L 267.950913 250.627539 
L 268.075828 284.580293 
L 268.200743 285.576721 
L 268.325658 282.831244 
L 268.450573 288.513004 
L 268.575488 287.65438 
L 268.700404 275.19903 
L 268.950234 290.410457 
L 269.57481 281.135197 
L 269.699725 287.378772 
L 269.949555 284.516692 
L 270.074471 276.121256 
L 270.199386 284.675696 
L 270.324301 284.972504 
L 270.449216 278.379119 
L 270.574131 287.516576 
L 270.823962 285.619123 
L 270.948877 291.004074 
L 271.073792 284.188082 
L 271.198707 286.912359 
L 271.323622 283.477862 
L 271.573453 288.672008 
L 271.698368 286.626151 
L 271.823283 286.806356 
L 271.948198 288.778011 
L 272.198029 282.757042 
L 272.322944 285.046707 
L 272.447859 291.237281 
L 272.572774 283.552064 
L 272.697689 288.438802 
L 272.822604 288.937016 
L 272.94752 286.975961 
L 273.072435 278.739529 
L 273.322265 293.685949 
L 273.572096 279.48155 
L 273.697011 287.071363 
L 273.946841 271.806934 
L 274.071756 288.862814 
L 274.196671 285.142109 
L 274.321587 268.171032 
L 274.571417 286.58375 
L 274.696332 286.827557 
L 274.821247 291.300882 
L 275.071078 272.453553 
L 275.195993 275.008224 
L 275.320908 284.431889 
L 275.445823 283.477862 
L 275.570738 283.615666 
L 275.695654 289.106621 
L 275.820569 289.191423 
L 275.945484 276.916278 
L 276.070399 288.555405 
L 276.195314 286.710953 
L 276.445145 291.173679 
L 276.694975 282.502635 
L 276.81989 284.537892 
L 276.944805 290.198451 
L 277.069721 278.665327 
L 277.194636 288.841613 
L 277.319551 277.668899 
L 277.569381 284.039678 
L 277.944127 287.442374 
L 278.069042 283.965476 
L 278.193957 290.664864 
L 278.318872 289.721438 
L 278.443787 283.499063 
L 278.568703 288.343399 
L 278.818533 293.431542 
L 279.068363 267.916625 
L 279.193279 283.329458 
L 279.568024 286.59435 
L 279.817854 281.082195 
L 279.94277 281.665211 
L 280.1926 287.919387 
L 280.44243 288.576606 
L 280.567345 284.707497 
L 280.817176 290.972273 
L 281.067006 282.068023 
L 281.316837 283.870073 
L 281.441752 288.428202 
L 281.566667 274.202602 
L 281.816497 287.187967 
L 281.941412 288.110193 
L 282.066328 280.764186 
L 282.191243 284.908903 
L 282.441073 285.544921 
L 282.565988 288.449402 
L 282.815819 282.873645 
L 283.065649 277.552296 
L 283.190564 288.184395 
L 283.315479 283.73227 
L 283.440395 283.700469 
L 283.56531 282.534436 
L 283.690225 279.49215 
L 283.81514 286.096136 
L 283.940055 285.057307 
L 284.189886 287.166766 
L 284.439716 274.775018 
L 284.689546 292.042903 
L 285.064292 284.940704 
L 285.314122 287.240968 
L 285.439037 281.95142 
L 285.563953 283.859473 
L 285.688868 257.08312 
L 285.813783 290.622463 
L 285.938698 284.188082 
L 286.063613 286.816956 
L 286.188528 284.029078 
L 286.438359 291.873298 
L 286.563274 287.749782 
L 286.813104 289.382228 
L 286.93802 283.371859 
L 287.18785 289.064219 
L 287.312765 289.965245 
L 287.562595 282.598038 
L 287.687511 256.924116 
L 287.812426 290.124249 
L 287.937341 277.912706 
L 288.062256 290.103049 
L 288.312086 275.835048 
L 288.437002 281.474406 
L 288.561917 281.357803 
L 288.686832 286.074935 
L 288.936662 286.191539 
L 289.061578 287.527176 
L 289.186493 284.622695 
L 289.436323 289.265625 
L 289.561238 284.241084 
L 289.686153 288.958216 
L 289.935984 285.322314 
L 290.310729 290.262053 
L 290.435644 289.09602 
L 290.56056 274.234403 
L 290.685475 286.445946 
L 290.81039 277.902106 
L 290.935305 287.569577 
L 291.185136 288.661408 
L 291.434966 270.662102 
L 291.934627 289.636636 
L 292.059542 287.187967 
L 292.184457 290.219652 
L 292.309372 280.986792 
L 292.434287 288.693209 
L 292.684118 282.057422 
L 292.809033 275.400435 
L 292.933948 288.905215 
L 293.058863 286.912359 
L 293.183778 287.898187 
L 293.308694 279.682956 
L 293.558524 280.477978 
L 293.683439 286.414145 
L 293.808354 241.924694 
L 293.933269 288.01479 
L 294.1831 284.961904 
L 294.308015 286.318742 
L 294.43293 279.587553 
L 294.557845 291.714294 
L 294.682761 287.452974 
L 294.932591 286.403545 
L 295.057506 282.439033 
L 295.307336 288.650808 
L 295.432252 283.997277 
L 295.557167 288.247996 
L 295.682082 285.809928 
L 295.806997 267.651618 
L 295.931912 280.340174 
L 296.056827 276.524067 
L 296.181743 288.693209 
L 296.431573 272.972967 
L 296.681403 286.424745 
L 296.806319 285.17391 
L 296.931234 289.583634 
L 297.056149 281.2412 
L 297.305979 287.993589 
L 297.55581 280.128168 
L 297.680725 285.396516 
L 297.80564 283.923075 
L 297.930555 284.749898 
L 298.05547 280.742986 
L 298.180385 286.636751 
L 298.305301 283.350659 
L 298.430216 291.428086 
L 298.555131 286.59435 
L 298.680046 275.792646 
L 298.804961 286.562549 
L 298.929877 284.506091 
L 299.179707 283.318858 
L 299.304622 288.353999 
L 299.679368 279.396748 
L 299.929198 289.944044 
L 300.054113 288.73561 
L 300.179028 284.018478 
L 300.303943 288.799212 
L 300.553774 282.969048 
L 300.678689 284.230484 
L 300.928519 283.499063 
L 301.303265 289.329227 
L 301.42818 279.905562 
L 301.553095 289.848641 
L 301.802926 283.446062 
L 302.052756 281.326002 
L 302.177671 284.993705 
L 302.552417 285.18451 
L 302.802247 291.353884 
L 303.052077 273.693787 
L 303.301908 289.827441 
L 303.426823 284.527292 
L 303.676653 283.965476 
L 303.926484 290.611863 
L 304.176314 286.785155 
L 304.426144 289.117221 
L 304.551059 277.372091 
L 304.675975 280.827788 
L 304.80089 287.67558 
L 304.925805 285.597922 
L 305.05072 276.61947 
L 305.175635 285.364715 
L 305.300551 279.099939 
L 305.425466 279.704156 
L 305.675296 280.297773 
L 305.800211 285.025506 
L 305.925126 282.407232 
L 306.174957 280.764186 
L 306.299872 284.8241 
L 306.799533 290.14545 
L 306.924448 287.739182 
L 307.049363 288.152594 
L 307.299193 287.898187 
L 307.424109 280.085767 
L 307.549024 283.75347 
L 307.673939 278.887933 
L 307.923769 289.710838 
L 308.048684 281.495607 
L 308.298515 291.046475 
L 308.42343 283.499063 
L 308.548345 283.02205 
L 309.048006 291.375084 
L 309.172921 287.081964 
L 309.297836 286.679152 
L 309.797497 286.901759 
L 310.047327 279.386147 
L 310.422073 281.156397 
L 310.546988 286.149137 
L 310.671903 285.16331 
L 310.796818 290.87687 
L 310.921734 287.781583 
L 311.046649 287.760383 
L 311.421394 281.379003 
L 311.671225 289.414029 
L 311.79614 287.007762 
L 311.921055 289.43523 
L 312.170885 286.000733 
L 312.2958 279.873761 
L 312.545631 292.233709 
L 312.670546 287.474175 
L 312.795461 290.060647 
L 312.920376 286.509548 
L 313.544952 283.361259 
L 313.794783 286.053735 
L 314.294443 287.399973 
L 314.419358 282.470834 
L 314.544274 282.587437 
L 314.669189 290.951072 
L 314.919019 279.311945 
L 315.16885 280.393176 
L 315.293765 288.862814 
L 315.543595 276.110655 
L 315.66851 279.969164 
L 316.043256 279.810159 
L 316.168171 291.131278 
L 316.418001 280.89139 
L 316.542917 281.050394 
L 316.792747 280.817188 
L 316.917662 287.028962 
L 317.667153 275.93045 
L 318.041899 278.983336 
L 318.166814 282.873645 
L 318.416644 276.418064 
L 318.541559 285.152709 
L 318.666475 285.004305 
L 318.79139 178.81052 
L 319.04122 287.739182 
L 319.166135 286.127937 
L 319.415966 233.539859 
L 319.665796 278.442721 
L 320.040541 288.491803 
L 320.290372 283.721669 
L 320.415287 287.018362 
L 320.665117 284.135081 
L 320.790033 285.735726 
L 320.914948 282.152825 
L 321.039863 291.650692 
L 321.164778 283.562665 
L 321.289693 288.73561 
L 321.414608 288.3752 
L 321.539524 285.597922 
L 321.914269 215.052939 
L 322.039184 282.174026 
L 322.164099 286.59435 
L 322.913591 278.357918 
L 323.288336 279.057538 
L 323.413251 283.265856 
L 323.663082 282.407232 
L 323.787997 285.947732 
L 323.912912 283.424861 
L 324.162742 286.191539 
L 324.662403 287.346971 
L 324.912233 286.551949 
L 325.162064 281.442605 
L 325.286979 289.149022 
L 325.661724 290.548261 
L 325.911555 282.110424 
L 326.411216 284.410689 
L 326.536131 287.633179 
L 326.785961 282.301229 
L 327.285622 288.693209 
L 327.410537 281.124596 
L 328.160028 284.145681 
L 328.659689 288.088992 
L 329.034434 281.410804 
L 329.284265 289.997046 
L 329.534095 290.081848 
L 330.158671 279.322546 
L 330.283586 287.993589 
L 330.533416 278.220115 
L 330.658332 279.068138 
L 331.033077 286.382344 
L 331.157992 279.746558 
L 331.282907 286.106736 
L 331.407823 284.018478 
L 331.532738 272.591356 
L 331.782568 276.449865 
L 332.032398 283.075051 
L 332.532059 288.110193 
L 333.03172 287.081964 
L 333.156635 288.73561 
L 333.28155 288.216196 
L 333.656296 282.439033 
L 333.781211 290.421058 
L 333.906126 280.064566 
L 334.031041 287.64378 
L 334.155956 223.384773 
L 334.280872 282.534436 
L 334.530702 291.332683 
L 334.780532 263.146491 
L 334.905448 283.467262 
L 335.530023 149.097885 
L 335.654939 282.227027 
L 335.779854 286.732154 
L 336.029684 285.937132 
L 336.154599 289.933444 
L 336.279514 282.767642 
L 336.40443 287.484775 
L 336.65426 287.569577 
L 337.029006 244.330962 
L 337.153921 291.640092 
L 337.403751 285.947732 
L 337.528666 286.127937 
L 337.778497 285.248112 
L 338.028327 283.817072 
L 338.278157 286.827557 
L 338.527988 286.159738 
L 339.402394 288.088992 
L 339.527309 289.869842 
L 339.777139 290.622463 
L 339.902055 279.873761 
L 340.151885 274.605413 
L 340.2768 290.887471 
L 340.401715 209.38178 
L 340.526631 285.544921 
L 340.776461 293.304339 
L 341.026291 287.134965 
L 341.401037 288.703809 
L 341.525952 284.781699 
L 341.650867 244.924579 
L 341.900697 292.254909 
L 342.150528 289.43523 
L 342.400358 273.184973 
L 343.149849 277.478094 
L 343.274764 289.912243 
L 343.64951 289.626035 
L 343.774425 288.619007 
L 344.274086 278.304917 
L 344.523916 288.820413 
L 344.898662 280.944391 
L 345.023577 286.626151 
L 345.523238 283.414261 
L 345.648153 284.506091 
L 345.773068 289.827441 
L 345.897983 287.30457 
L 346.022898 276.153057 
L 346.272729 287.060763 
L 346.647474 283.446062 
L 346.772389 269.188661 
L 346.897305 288.862814 
L 347.147135 279.640555 
L 347.52188 288.926416 
L 347.646796 285.152709 
L 347.771711 286.456546 
L 347.896626 286.180938 
L 348.146456 277.128284 
L 348.271372 292.498716 
L 348.521202 281.273 
L 348.771032 281.62281 
L 348.895947 279.84196 
L 349.020863 287.378772 
L 349.145778 274.266203 
L 349.645438 286.859357 
L 349.895269 288.046591 
L 350.519845 290.16665 
L 350.769675 280.382575 
L 350.89459 286.93356 
L 351.019505 287.166766 
L 351.144421 284.378888 
L 351.269336 276.99048 
L 351.394251 282.407232 
L 352.143742 278.909134 
L 352.268657 286.912359 
L 352.393572 286.912359 
L 352.518488 289.689637 
L 352.768318 287.166766 
L 352.893233 289.318627 
L 353.143063 281.326002 
L 353.642724 282.439033 
L 353.767639 285.417717 
L 354.01747 275.474637 
L 354.142385 280.255372 
L 354.2673 168.549432 
L 354.766961 277.36149 
L 355.016791 285.937132 
L 355.391537 272.421752 
L 355.516452 279.258944 
L 355.891197 281.368403 
L 356.141028 290.643664 
L 358.014755 287.590778 
L 358.264586 246.217815 
L 358.764246 280.700584 
L 360.138313 288.513004 
L 360.887804 290.018246 
L 362.136956 285.587322 
L 362.261871 290.929872 
L 362.386787 284.686296 
L 365.384751 285.226912 
L 368.50763 281.294201 
L 370.256443 285.301114 
L 372.13017 284.209283 
L 374.253728 293.802553 
L 379.000505 285.290513 
L 379.12542 292.477515 
L 380.249657 290.484659 
L 382.2483 286.700353 
L 385.87084 284.548493 
L 387.119992 285.396516 
L 387.369822 280.573381 
L 389.993041 283.509663 
L 390.242871 276.598269 
L 391.117277 276.661871 
L 391.367108 283.424861 
L 392.741175 286.710953 
L 393.11592 282.046822 
L 393.490666 281.060994 
L 394.240157 290.887471 
L 394.365072 280.297773 
L 394.864733 270.92711 
L 394.989648 274.107199 
L 396.113884 289.954644 
L 396.363715 284.961904 
L 396.613545 288.672008 
L 397.612866 288.862814 
L 398.487273 287.325771 
L 398.487273 287.325771 
" style="fill:none;stroke:#0000ff;stroke-linecap:square;stroke-width:1.5;"/>
   </g>
   <g id="patch_3">
    <path d="M 57.6 307.584 
L 57.6 41.472 
" style="fill:none;stroke:#000000;stroke-linecap:square;stroke-linejoin:miter;stroke-width:0.8;"/>
   </g>
   <g id="patch_4">
    <path d="M 414.72 307.584 
L 414.72 41.472 
" style="fill:none;stroke:#000000;stroke-linecap:square;stroke-linejoin:miter;stroke-width:0.8;"/>
   </g>
   <g id="patch_5">
    <path d="M 57.6 307.584 
L 414.72 307.584 
" style="fill:none;stroke:#000000;stroke-linecap:square;stroke-linejoin:miter;stroke-width:0.8;"/>
   </g>
   <g id="patch_6">
    <path d="M 57.6 41.472 
L 414.72 41.472 
" style="fill:none;stroke:#000000;stroke-linecap:square;stroke-linejoin:miter;stroke-width:0.8;"/>
   </g>
   <g id="text_14">
    <!-- temperature-&gt;ping_day -->
    <g transform="translate(164.131875 35.472)scale(0.12 -0.12)">
     <defs>
      <path d="M 4.890625 31.390625 
L 31.203125 31.390625 
L 31.203125 23.390625 
L 4.890625 23.390625 
z
" id="DejaVuSans-45"/>
      <path d="M 10.59375 49.21875 
L 10.59375 58.109375 
L 73.1875 35.40625 
L 73.1875 27.296875 
L 10.59375 4.59375 
L 10.59375 13.484375 
L 60.890625 31.296875 
z
" id="DejaVuSans-62"/>
     </defs>
     <use xlink:href="#DejaVuSans-116"/>
     <use x="39.208984" xlink:href="#DejaVuSans-101"/>
     <use x="100.732422" xlink:href="#DejaVuSans-109"/>
     <use x="198.144531" xlink:href="#DejaVuSans-112"/>
     <use x="261.621094" xlink:href="#DejaVuSans-101"/>
     <use x="323.144531" xlink:href="#DejaVuSans-114"/>
     <use x="364.257812" xlink:href="#DejaVuSans-97"/>
     <use x="425.537109" xlink:href="#DejaVuSans-116"/>
     <use x="464.746094" xlink:href="#DejaVuSans-117"/>
     <use x="528.125" xlink:href="#DejaVuSans-114"/>
     <use x="566.988281" xlink:href="#DejaVuSans-101"/>
     <use x="628.511719" xlink:href="#DejaVuSans-45"/>
     <use x="664.595703" xlink:href="#DejaVuSans-62"/>
     <use x="748.384766" xlink:href="#DejaVuSans-112"/>
     <use x="811.861328" xlink:href="#DejaVuSans-105"/>
     <use x="839.644531" xlink:href="#DejaVuSans-110"/>
     <use x="903.023438" xlink:href="#DejaVuSans-103"/>
     <use x="966.5" xlink:href="#DejaVuSans-95"/>
     <use x="1016.5" xlink:href="#DejaVuSans-100"/>
     <use x="1079.976562" xlink:href="#DejaVuSans-97"/>
     <use x="1141.255859" xlink:href="#DejaVuSans-121"/>
    </g>
   </g>
  </g>
  <g id="legend_1">
   <g id="patch_7">
    <path d="M 353.839063 22.95625 
L 453.8 22.95625 
Q 455.8 22.95625 455.8 20.95625 
L 455.8 7 
Q 455.8 5 453.8 5 
L 353.839063 5 
Q 351.839063 5 351.839063 7 
L 351.839063 20.95625 
Q 351.839063 22.95625 353.839063 22.95625 
z
" style="fill:#ffffff;opacity:0.8;stroke:#cccccc;stroke-linejoin:miter;"/>
   </g>
   <g id="line2d_13">
    <path d="M 355.839063 13.098437 
L 375.839063 13.098437 
" style="fill:none;stroke:#0000ff;stroke-linecap:square;stroke-width:1.5;"/>
   </g>
   <g id="line2d_14"/>
   <g id="text_15">
    <!-- ping_day[ms] -->
    <g transform="translate(383.839063 16.598437)scale(0.1 -0.1)">
     <use xlink:href="#DejaVuSans-112"/>
     <use x="63.476562" xlink:href="#DejaVuSans-105"/>
     <use x="91.259766" xlink:href="#DejaVuSans-110"/>
     <use x="154.638672" xlink:href="#DejaVuSans-103"/>
     <use x="218.115234" xlink:href="#DejaVuSans-95"/>
     <use x="268.115234" xlink:href="#DejaVuSans-100"/>
     <use x="331.591797" xlink:href="#DejaVuSans-97"/>
     <use x="392.871094" xlink:href="#DejaVuSans-121"/>
     <use x="452.050781" xlink:href="#DejaVuSans-91"/>
     <use x="491.064453" xlink:href="#DejaVuSans-109"/>
     <use x="588.476562" xlink:href="#DejaVuSans-115"/>
     <use x="640.576172" xlink:href="#DejaVuSans-93"/>
    </g>
   </g>
  </g>
 </g>
 <defs>
  <clipPath id="p15e3b01aea">
   <rect height="266.112" width="357.12" x="57.6" y="41.472"/>
  </clipPath>
 </defs>
</svg>
