<?xml version="1.0" encoding="utf-8" standalone="no"?>
<!DOCTYPE svg PUBLIC "-//W3C//DTD SVG 1.1//EN"
  "http://www.w3.org/Graphics/SVG/1.1/DTD/svg11.dtd">
<!-- Created with matplotlib (https://matplotlib.org/) -->
<svg height="2090.594375pt" version="1.1" viewBox="0 0 2062.259375 2090.594375" width="2062.259375pt" xmlns="http://www.w3.org/2000/svg" xmlns:xlink="http://www.w3.org/1999/xlink">
 <metadata>
  <rdf:RDF xmlns:cc="http://creativecommons.org/ns#" xmlns:dc="http://purl.org/dc/elements/1.1/" xmlns:rdf="http://www.w3.org/1999/02/22-rdf-syntax-ns#">
   <cc:Work>
    <dc:type rdf:resource="http://purl.org/dc/dcmitype/StillImage"/>
    <dc:date>2022-07-23T21:02:16.234115</dc:date>
    <dc:format>image/svg+xml</dc:format>
    <dc:creator>
     <cc:Agent>
      <dc:title>Matplotlib v3.3.2, https://matplotlib.org/</dc:title>
     </cc:Agent>
    </dc:creator>
   </cc:Work>
  </rdf:RDF>
 </metadata>
 <defs>
  <style type="text/css">*{stroke-linecap:butt;stroke-linejoin:round;}</style>
 </defs>
 <g id="figure_1">
  <g id="patch_1">
   <path d="M 0 2090.594375 
L 2062.259375 2090.594375 
L 2062.259375 0 
L 0 0 
z
" style="fill:#ffffff;"/>
  </g>
  <g id="axes_1">
   <g id="patch_2">
    <path d="M 44.059375 2052.76 
L 1829.659375 2052.76 
L 1829.659375 278.68 
L 44.059375 278.68 
z
" style="fill:#ffffff;"/>
   </g>
   <g id="matplotlib.axis_1">
    <g id="xtick_1">
     <g id="line2d_1">
      <defs>
       <path d="M 0 0 
L 0 3.5 
" id="me0d1c4a550" style="stroke:#000000;stroke-width:0.8;"/>
      </defs>
      <g>
       <use style="stroke:#000000;stroke-width:0.8;" x="331.352881" xlink:href="#me0d1c4a550" y="2052.76"/>
      </g>
     </g>
     <g id="text_1">
      <text style="font-family:DejaVu Sans;font-size:10px;font-stretch:normal;font-style:normal;font-weight:normal;text-anchor:middle;" transform="rotate(-0, 331.352881, 2067.358437)" x="331.352881" y="2067.358437">10</text>
     </g>
    </g>
    <g id="xtick_2">
     <g id="line2d_2">
      <g>
       <use style="stroke:#000000;stroke-width:0.8;" x="653.430804" xlink:href="#me0d1c4a550" y="2052.76"/>
      </g>
     </g>
     <g id="text_2">
      <text style="font-family:DejaVu Sans;font-size:10px;font-stretch:normal;font-style:normal;font-weight:normal;text-anchor:middle;" transform="rotate(-0, 653.430804, 2067.358437)" x="653.430804" y="2067.358437">20</text>
     </g>
    </g>
    <g id="xtick_3">
     <g id="line2d_3">
      <g>
       <use style="stroke:#000000;stroke-width:0.8;" x="975.508726" xlink:href="#me0d1c4a550" y="2052.76"/>
      </g>
     </g>
     <g id="text_3">
      <text style="font-family:DejaVu Sans;font-size:10px;font-stretch:normal;font-style:normal;font-weight:normal;text-anchor:middle;" transform="rotate(-0, 975.508726, 2067.358437)" x="975.508726" y="2067.358437">30</text>
     </g>
    </g>
    <g id="xtick_4">
     <g id="line2d_4">
      <g>
       <use style="stroke:#000000;stroke-width:0.8;" x="1297.586648" xlink:href="#me0d1c4a550" y="2052.76"/>
      </g>
     </g>
     <g id="text_4">
      <text style="font-family:DejaVu Sans;font-size:10px;font-stretch:normal;font-style:normal;font-weight:normal;text-anchor:middle;" transform="rotate(-0, 1297.586648, 2067.358437)" x="1297.586648" y="2067.358437">40</text>
     </g>
    </g>
    <g id="xtick_5">
     <g id="line2d_5">
      <g>
       <use style="stroke:#000000;stroke-width:0.8;" x="1619.66457" xlink:href="#me0d1c4a550" y="2052.76"/>
      </g>
     </g>
     <g id="text_5">
      <text style="font-family:DejaVu Sans;font-size:10px;font-stretch:normal;font-style:normal;font-weight:normal;text-anchor:middle;" transform="rotate(-0, 1619.66457, 2067.358437)" x="1619.66457" y="2067.358437">50</text>
     </g>
    </g>
    <g id="text_6">
     <text style="font-family:DejaVu Sans;font-size:10px;font-stretch:normal;font-style:normal;font-weight:normal;text-anchor:middle;" transform="rotate(-0, 936.859375, 2081.036562)" x="936.859375" y="2081.036562">wind_speed from WeatherAPI</text>
    </g>
   </g>
   <g id="matplotlib.axis_2">
    <g id="ytick_1">
     <g id="line2d_6">
      <defs>
       <path d="M 0 0 
L -3.5 0 
" id="m5edceb249a" style="stroke:#000000;stroke-width:0.8;"/>
      </defs>
      <g>
       <use style="stroke:#000000;stroke-width:0.8;" x="44.059375" xlink:href="#m5edceb249a" y="1986.661639"/>
      </g>
     </g>
     <g id="text_7">
      <text style="font-family:DejaVu Sans;font-size:10px;font-stretch:normal;font-style:normal;font-weight:normal;text-anchor:end;" transform="rotate(-0, 37.059375, 1990.460858)" x="37.059375" y="1990.460858">5.0</text>
     </g>
    </g>
    <g id="ytick_2">
     <g id="line2d_7">
      <g>
       <use style="stroke:#000000;stroke-width:0.8;" x="44.059375" xlink:href="#m5edceb249a" y="1656.169836"/>
      </g>
     </g>
     <g id="text_8">
      <text style="font-family:DejaVu Sans;font-size:10px;font-stretch:normal;font-style:normal;font-weight:normal;text-anchor:end;" transform="rotate(-0, 37.059375, 1659.969055)" x="37.059375" y="1659.969055">5.5</text>
     </g>
    </g>
    <g id="ytick_3">
     <g id="line2d_8">
      <g>
       <use style="stroke:#000000;stroke-width:0.8;" x="44.059375" xlink:href="#m5edceb249a" y="1325.678033"/>
      </g>
     </g>
     <g id="text_9">
      <text style="font-family:DejaVu Sans;font-size:10px;font-stretch:normal;font-style:normal;font-weight:normal;text-anchor:end;" transform="rotate(-0, 37.059375, 1329.477252)" x="37.059375" y="1329.477252">6.0</text>
     </g>
    </g>
    <g id="ytick_4">
     <g id="line2d_9">
      <g>
       <use style="stroke:#000000;stroke-width:0.8;" x="44.059375" xlink:href="#m5edceb249a" y="995.18623"/>
      </g>
     </g>
     <g id="text_10">
      <text style="font-family:DejaVu Sans;font-size:10px;font-stretch:normal;font-style:normal;font-weight:normal;text-anchor:end;" transform="rotate(-0, 37.059375, 998.985448)" x="37.059375" y="998.985448">6.5</text>
     </g>
    </g>
    <g id="ytick_5">
     <g id="line2d_10">
      <g>
       <use style="stroke:#000000;stroke-width:0.8;" x="44.059375" xlink:href="#m5edceb249a" y="664.694426"/>
      </g>
     </g>
     <g id="text_11">
      <text style="font-family:DejaVu Sans;font-size:10px;font-stretch:normal;font-style:normal;font-weight:normal;text-anchor:end;" transform="rotate(-0, 37.059375, 668.493645)" x="37.059375" y="668.493645">7.0</text>
     </g>
    </g>
    <g id="ytick_6">
     <g id="line2d_11">
      <g>
       <use style="stroke:#000000;stroke-width:0.8;" x="44.059375" xlink:href="#m5edceb249a" y="334.202623"/>
      </g>
     </g>
     <g id="text_12">
      <text style="font-family:DejaVu Sans;font-size:10px;font-stretch:normal;font-style:normal;font-weight:normal;text-anchor:end;" transform="rotate(-0, 37.059375, 338.001842)" x="37.059375" y="338.001842">7.5</text>
     </g>
    </g>
    <g id="text_13">
     <text style="font-family:DejaVu Sans;font-size:10px;font-stretch:normal;font-style:normal;font-weight:normal;text-anchor:middle;" transform="rotate(-90, 14.798438, 1165.72)" x="14.798438" y="1165.72">ping_day[ms]</text>
    </g>
   </g>
   <g id="line2d_12">
    <path clip-path="url(#p06bc191b00)" d="M 125.223011 1754.656393 
L 138.106128 1861.074754 
L 147.768466 1624.442623 
L 160.651583 1784.400656 
L 170.31392 1785.722623 
L 183.197037 1765.893115 
L 196.080154 1861.074754 
L 205.742492 1732.843934 
L 218.625609 1746.72459 
L 228.287946 1591.393443 
L 241.171063 1713.014426 
L 254.05418 1574.207869 
L 263.716518 1713.014426 
L 276.599635 1671.372459 
L 286.261972 1601.96918 
L 299.145089 1695.167869 
L 312.028206 1806.213115 
L 321.690544 1732.843934 
L 334.573661 1651.542951 
L 344.235998 1615.188852 
L 357.119115 1835.957377 
L 370.002232 1770.52 
L 379.66457 1778.451803 
L 392.547687 1711.031475 
L 402.210024 1769.198033 
L 415.093141 1726.234098 
L 427.976258 1829.347541 
L 437.638596 1899.411803 
L 450.521713 1867.023607 
L 460.18405 1642.950164 
L 473.067167 1788.366557 
L 485.950284 1859.752787 
L 495.612622 1709.709508 
L 508.495739 1685.253115 
L 518.158076 1684.592131 
L 531.041193 1765.893115 
L 543.92431 1719.624262 
L 553.586648 1594.698361 
L 566.469765 1740.114754 
L 576.132102 1759.283279 
L 589.015219 1667.406557 
L 601.898336 1680.62623 
L 611.560674 1598.664262 
L 624.443791 1757.300328 
L 634.106128 1703.099672 
L 646.989245 1972.12 
L 659.872362 1626.425574 
L 669.5347 1672.694426 
L 682.417817 1802.908197 
L 692.080154 1765.232131 
L 704.963271 1695.828852 
L 717.846388 1718.963279 
L 727.508726 1588.088525 
L 740.391843 1718.963279 
L 750.05418 1720.285246 
L 762.937297 1586.105574 
L 775.820414 1603.291148 
L 785.482752 1559.005246 
L 798.365869 1591.393443 
L 808.028206 1545.785574 
L 820.911323 1537.192787 
L 833.79444 1655.508852 
L 843.456778 1586.766557 
L 856.339894 1537.85377 
L 866.002232 1768.537049 
L 878.885349 1550.412459 
L 891.768466 1601.96918 
L 901.430804 1572.885902 
L 914.31392 1415.571803 
L 923.976258 1585.44459 
L 936.859375 1419.537705 
L 949.742492 1373.929836 
L 959.40483 1700.455738 
L 972.287946 1642.950164 
L 981.950284 1580.156721 
L 994.833401 1431.43541 
L 1007.716518 1168.363934 
L 1017.378856 1706.40459 
L 1039.92431 359.32 
L 1052.807427 1315.102295 
L 1065.690544 1128.704918 
L 1088.235998 1473.738361 
L 1097.898336 1310.47541 
L 1110.781453 1442.011148 
L 1133.326907 1308.492459 
L 1146.210024 847.786885 
L 1168.755479 1101.60459 
L 1748.495739 1413.588852 
" style="fill:none;stroke:#0000ff;stroke-linecap:square;stroke-width:1.5;"/>
   </g>
   <g id="patch_3">
    <path d="M 44.059375 2052.76 
L 44.059375 278.68 
" style="fill:none;stroke:#000000;stroke-linecap:square;stroke-linejoin:miter;stroke-width:0.8;"/>
   </g>
   <g id="patch_4">
    <path d="M 1829.659375 2052.76 
L 1829.659375 278.68 
" style="fill:none;stroke:#000000;stroke-linecap:square;stroke-linejoin:miter;stroke-width:0.8;"/>
   </g>
   <g id="patch_5">
    <path d="M 44.059375 2052.76 
L 1829.659375 2052.76 
" style="fill:none;stroke:#000000;stroke-linecap:square;stroke-linejoin:miter;stroke-width:0.8;"/>
   </g>
   <g id="patch_6">
    <path d="M 44.059375 278.68 
L 1829.659375 278.68 
" style="fill:none;stroke:#000000;stroke-linecap:square;stroke-linejoin:miter;stroke-width:0.8;"/>
   </g>
   <g id="text_14">
    <text style="font-family:DejaVu Sans;font-size:12px;font-stretch:normal;font-style:normal;font-weight:normal;text-anchor:middle;" transform="rotate(-0, 936.859375, 272.68)" x="936.859375" y="272.68">wind_speed-&gt;ping_day</text>
   </g>
  </g>
  <g id="legend_1">
   <g id="patch_7">
    <path d="M 1955.298437 22.95625 
L 2055.259375 22.95625 
Q 2057.259375 22.95625 2057.259375 20.95625 
L 2057.259375 7 
Q 2057.259375 5 2055.259375 5 
L 1955.298437 5 
Q 1953.298437 5 1953.298437 7 
L 1953.298437 20.95625 
Q 1953.298437 22.95625 1955.298437 22.95625 
z
" style="fill:#ffffff;opacity:0.8;stroke:#cccccc;stroke-linejoin:miter;"/>
   </g>
   <g id="line2d_13">
    <path d="M 1957.298437 13.098438 
L 1977.298437 13.098438 
" style="fill:none;stroke:#0000ff;stroke-linecap:square;stroke-width:1.5;"/>
   </g>
   <g id="line2d_14"/>
   <g id="text_15">
    <text style="font-family:DejaVu Sans;font-size:10px;font-stretch:normal;font-style:normal;font-weight:normal;text-anchor:start;" transform="rotate(-0, 1985.298437, 16.598438)" x="1985.298437" y="16.598438">ping_day[ms]</text>
   </g>
  </g>
 </g>
 <defs>
  <clipPath id="p06bc191b00">
   <rect height="1774.08" width="1785.6" x="44.059375" y="278.68"/>
  </clipPath>
 </defs>
</svg>
