<?xml version="1.0" encoding="utf-8" standalone="no"?>
<!DOCTYPE svg PUBLIC "-//W3C//DTD SVG 1.1//EN"
  "http://www.w3.org/Graphics/SVG/1.1/DTD/svg11.dtd">
<!-- Created with matplotlib (https://matplotlib.org/) -->
<svg height="345.6pt" version="1.1" viewBox="0 0 460.8 345.6" width="460.8pt" xmlns="http://www.w3.org/2000/svg" xmlns:xlink="http://www.w3.org/1999/xlink">
 <metadata>
  <rdf:RDF xmlns:cc="http://creativecommons.org/ns#" xmlns:dc="http://purl.org/dc/elements/1.1/" xmlns:rdf="http://www.w3.org/1999/02/22-rdf-syntax-ns#">
   <cc:Work>
    <dc:type rdf:resource="http://purl.org/dc/dcmitype/StillImage"/>
    <dc:date>2022-07-16T22:12:08.266659</dc:date>
    <dc:format>image/svg+xml</dc:format>
    <dc:creator>
     <cc:Agent>
      <dc:title>Matplotlib v3.3.2, https://matplotlib.org/</dc:title>
     </cc:Agent>
    </dc:creator>
   </cc:Work>
  </rdf:RDF>
 </metadata>
 <defs>
  <style type="text/css">*{stroke-linecap:butt;stroke-linejoin:round;}</style>
 </defs>
 <g id="figure_1">
  <g id="patch_1">
   <path d="M 0 345.6 
L 460.8 345.6 
L 460.8 0 
L 0 0 
z
" style="fill:#ffffff;"/>
  </g>
  <g id="axes_1">
   <g id="patch_2">
    <path d="M 57.6 307.584 
L 414.72 307.584 
L 414.72 41.472 
L 57.6 41.472 
z
" style="fill:#ffffff;"/>
   </g>
   <g id="matplotlib.axis_1">
    <g id="xtick_1">
     <g id="line2d_1">
      <defs>
       <path d="M 0 0 
L 0 3.5 
" id="m951300877f" style="stroke:#000000;stroke-width:0.8;"/>
      </defs>
      <g>
       <use style="stroke:#000000;stroke-width:0.8;" x="61.773432" xlink:href="#m951300877f" y="307.584"/>
      </g>
     </g>
     <g id="text_1">
      <!-- 0 -->
      <g transform="translate(58.592182 322.182437)scale(0.1 -0.1)">
       <defs>
        <path d="M 31.78125 66.40625 
Q 24.171875 66.40625 20.328125 58.90625 
Q 16.5 51.421875 16.5 36.375 
Q 16.5 21.390625 20.328125 13.890625 
Q 24.171875 6.390625 31.78125 6.390625 
Q 39.453125 6.390625 43.28125 13.890625 
Q 47.125 21.390625 47.125 36.375 
Q 47.125 51.421875 43.28125 58.90625 
Q 39.453125 66.40625 31.78125 66.40625 
z
M 31.78125 74.21875 
Q 44.046875 74.21875 50.515625 64.515625 
Q 56.984375 54.828125 56.984375 36.375 
Q 56.984375 17.96875 50.515625 8.265625 
Q 44.046875 -1.421875 31.78125 -1.421875 
Q 19.53125 -1.421875 13.0625 8.265625 
Q 6.59375 17.96875 6.59375 36.375 
Q 6.59375 54.828125 13.0625 64.515625 
Q 19.53125 74.21875 31.78125 74.21875 
z
" id="DejaVuSans-48"/>
       </defs>
       <use xlink:href="#DejaVuSans-48"/>
      </g>
     </g>
    </g>
    <g id="xtick_2">
     <g id="line2d_2">
      <g>
       <use style="stroke:#000000;stroke-width:0.8;" x="137.969325" xlink:href="#m951300877f" y="307.584"/>
      </g>
     </g>
     <g id="text_2">
      <!-- 2 -->
      <g transform="translate(134.788075 322.182437)scale(0.1 -0.1)">
       <defs>
        <path d="M 19.1875 8.296875 
L 53.609375 8.296875 
L 53.609375 0 
L 7.328125 0 
L 7.328125 8.296875 
Q 12.9375 14.109375 22.625 23.890625 
Q 32.328125 33.6875 34.8125 36.53125 
Q 39.546875 41.84375 41.421875 45.53125 
Q 43.3125 49.21875 43.3125 52.78125 
Q 43.3125 58.59375 39.234375 62.25 
Q 35.15625 65.921875 28.609375 65.921875 
Q 23.96875 65.921875 18.8125 64.3125 
Q 13.671875 62.703125 7.8125 59.421875 
L 7.8125 69.390625 
Q 13.765625 71.78125 18.9375 73 
Q 24.125 74.21875 28.421875 74.21875 
Q 39.75 74.21875 46.484375 68.546875 
Q 53.21875 62.890625 53.21875 53.421875 
Q 53.21875 48.921875 51.53125 44.890625 
Q 49.859375 40.875 45.40625 35.40625 
Q 44.1875 33.984375 37.640625 27.21875 
Q 31.109375 20.453125 19.1875 8.296875 
z
" id="DejaVuSans-50"/>
       </defs>
       <use xlink:href="#DejaVuSans-50"/>
      </g>
     </g>
    </g>
    <g id="xtick_3">
     <g id="line2d_3">
      <g>
       <use style="stroke:#000000;stroke-width:0.8;" x="214.165217" xlink:href="#m951300877f" y="307.584"/>
      </g>
     </g>
     <g id="text_3">
      <!-- 4 -->
      <g transform="translate(210.983967 322.182437)scale(0.1 -0.1)">
       <defs>
        <path d="M 37.796875 64.3125 
L 12.890625 25.390625 
L 37.796875 25.390625 
z
M 35.203125 72.90625 
L 47.609375 72.90625 
L 47.609375 25.390625 
L 58.015625 25.390625 
L 58.015625 17.1875 
L 47.609375 17.1875 
L 47.609375 0 
L 37.796875 0 
L 37.796875 17.1875 
L 4.890625 17.1875 
L 4.890625 26.703125 
z
" id="DejaVuSans-52"/>
       </defs>
       <use xlink:href="#DejaVuSans-52"/>
      </g>
     </g>
    </g>
    <g id="xtick_4">
     <g id="line2d_4">
      <g>
       <use style="stroke:#000000;stroke-width:0.8;" x="290.36111" xlink:href="#m951300877f" y="307.584"/>
      </g>
     </g>
     <g id="text_4">
      <!-- 6 -->
      <g transform="translate(287.17986 322.182437)scale(0.1 -0.1)">
       <defs>
        <path d="M 33.015625 40.375 
Q 26.375 40.375 22.484375 35.828125 
Q 18.609375 31.296875 18.609375 23.390625 
Q 18.609375 15.53125 22.484375 10.953125 
Q 26.375 6.390625 33.015625 6.390625 
Q 39.65625 6.390625 43.53125 10.953125 
Q 47.40625 15.53125 47.40625 23.390625 
Q 47.40625 31.296875 43.53125 35.828125 
Q 39.65625 40.375 33.015625 40.375 
z
M 52.59375 71.296875 
L 52.59375 62.3125 
Q 48.875 64.0625 45.09375 64.984375 
Q 41.3125 65.921875 37.59375 65.921875 
Q 27.828125 65.921875 22.671875 59.328125 
Q 17.53125 52.734375 16.796875 39.40625 
Q 19.671875 43.65625 24.015625 45.921875 
Q 28.375 48.1875 33.59375 48.1875 
Q 44.578125 48.1875 50.953125 41.515625 
Q 57.328125 34.859375 57.328125 23.390625 
Q 57.328125 12.15625 50.6875 5.359375 
Q 44.046875 -1.421875 33.015625 -1.421875 
Q 20.359375 -1.421875 13.671875 8.265625 
Q 6.984375 17.96875 6.984375 36.375 
Q 6.984375 53.65625 15.1875 63.9375 
Q 23.390625 74.21875 37.203125 74.21875 
Q 40.921875 74.21875 44.703125 73.484375 
Q 48.484375 72.75 52.59375 71.296875 
z
" id="DejaVuSans-54"/>
       </defs>
       <use xlink:href="#DejaVuSans-54"/>
      </g>
     </g>
    </g>
    <g id="xtick_5">
     <g id="line2d_5">
      <g>
       <use style="stroke:#000000;stroke-width:0.8;" x="366.557003" xlink:href="#m951300877f" y="307.584"/>
      </g>
     </g>
     <g id="text_5">
      <!-- 8 -->
      <g transform="translate(363.375753 322.182437)scale(0.1 -0.1)">
       <defs>
        <path d="M 31.78125 34.625 
Q 24.75 34.625 20.71875 30.859375 
Q 16.703125 27.09375 16.703125 20.515625 
Q 16.703125 13.921875 20.71875 10.15625 
Q 24.75 6.390625 31.78125 6.390625 
Q 38.8125 6.390625 42.859375 10.171875 
Q 46.921875 13.96875 46.921875 20.515625 
Q 46.921875 27.09375 42.890625 30.859375 
Q 38.875 34.625 31.78125 34.625 
z
M 21.921875 38.8125 
Q 15.578125 40.375 12.03125 44.71875 
Q 8.5 49.078125 8.5 55.328125 
Q 8.5 64.0625 14.71875 69.140625 
Q 20.953125 74.21875 31.78125 74.21875 
Q 42.671875 74.21875 48.875 69.140625 
Q 55.078125 64.0625 55.078125 55.328125 
Q 55.078125 49.078125 51.53125 44.71875 
Q 48 40.375 41.703125 38.8125 
Q 48.828125 37.15625 52.796875 32.3125 
Q 56.78125 27.484375 56.78125 20.515625 
Q 56.78125 9.90625 50.3125 4.234375 
Q 43.84375 -1.421875 31.78125 -1.421875 
Q 19.734375 -1.421875 13.25 4.234375 
Q 6.78125 9.90625 6.78125 20.515625 
Q 6.78125 27.484375 10.78125 32.3125 
Q 14.796875 37.15625 21.921875 38.8125 
z
M 18.3125 54.390625 
Q 18.3125 48.734375 21.84375 45.5625 
Q 25.390625 42.390625 31.78125 42.390625 
Q 38.140625 42.390625 41.71875 45.5625 
Q 45.3125 48.734375 45.3125 54.390625 
Q 45.3125 60.0625 41.71875 63.234375 
Q 38.140625 66.40625 31.78125 66.40625 
Q 25.390625 66.40625 21.84375 63.234375 
Q 18.3125 60.0625 18.3125 54.390625 
z
" id="DejaVuSans-56"/>
       </defs>
       <use xlink:href="#DejaVuSans-56"/>
      </g>
     </g>
    </g>
    <g id="text_6">
     <!-- wind_speed from WeatherBitIO -->
     <g transform="translate(158.679531 335.860562)scale(0.1 -0.1)">
      <defs>
       <path d="M 4.203125 54.6875 
L 13.1875 54.6875 
L 24.421875 12.015625 
L 35.59375 54.6875 
L 46.1875 54.6875 
L 57.421875 12.015625 
L 68.609375 54.6875 
L 77.59375 54.6875 
L 63.28125 0 
L 52.6875 0 
L 40.921875 44.828125 
L 29.109375 0 
L 18.5 0 
z
" id="DejaVuSans-119"/>
       <path d="M 9.421875 54.6875 
L 18.40625 54.6875 
L 18.40625 0 
L 9.421875 0 
z
M 9.421875 75.984375 
L 18.40625 75.984375 
L 18.40625 64.59375 
L 9.421875 64.59375 
z
" id="DejaVuSans-105"/>
       <path d="M 54.890625 33.015625 
L 54.890625 0 
L 45.90625 0 
L 45.90625 32.71875 
Q 45.90625 40.484375 42.875 44.328125 
Q 39.84375 48.1875 33.796875 48.1875 
Q 26.515625 48.1875 22.3125 43.546875 
Q 18.109375 38.921875 18.109375 30.90625 
L 18.109375 0 
L 9.078125 0 
L 9.078125 54.6875 
L 18.109375 54.6875 
L 18.109375 46.1875 
Q 21.34375 51.125 25.703125 53.5625 
Q 30.078125 56 35.796875 56 
Q 45.21875 56 50.046875 50.171875 
Q 54.890625 44.34375 54.890625 33.015625 
z
" id="DejaVuSans-110"/>
       <path d="M 45.40625 46.390625 
L 45.40625 75.984375 
L 54.390625 75.984375 
L 54.390625 0 
L 45.40625 0 
L 45.40625 8.203125 
Q 42.578125 3.328125 38.25 0.953125 
Q 33.9375 -1.421875 27.875 -1.421875 
Q 17.96875 -1.421875 11.734375 6.484375 
Q 5.515625 14.40625 5.515625 27.296875 
Q 5.515625 40.1875 11.734375 48.09375 
Q 17.96875 56 27.875 56 
Q 33.9375 56 38.25 53.625 
Q 42.578125 51.265625 45.40625 46.390625 
z
M 14.796875 27.296875 
Q 14.796875 17.390625 18.875 11.75 
Q 22.953125 6.109375 30.078125 6.109375 
Q 37.203125 6.109375 41.296875 11.75 
Q 45.40625 17.390625 45.40625 27.296875 
Q 45.40625 37.203125 41.296875 42.84375 
Q 37.203125 48.484375 30.078125 48.484375 
Q 22.953125 48.484375 18.875 42.84375 
Q 14.796875 37.203125 14.796875 27.296875 
z
" id="DejaVuSans-100"/>
       <path d="M 50.984375 -16.609375 
L 50.984375 -23.578125 
L -0.984375 -23.578125 
L -0.984375 -16.609375 
z
" id="DejaVuSans-95"/>
       <path d="M 44.28125 53.078125 
L 44.28125 44.578125 
Q 40.484375 46.53125 36.375 47.5 
Q 32.28125 48.484375 27.875 48.484375 
Q 21.1875 48.484375 17.84375 46.4375 
Q 14.5 44.390625 14.5 40.28125 
Q 14.5 37.15625 16.890625 35.375 
Q 19.28125 33.59375 26.515625 31.984375 
L 29.59375 31.296875 
Q 39.15625 29.25 43.1875 25.515625 
Q 47.21875 21.78125 47.21875 15.09375 
Q 47.21875 7.46875 41.1875 3.015625 
Q 35.15625 -1.421875 24.609375 -1.421875 
Q 20.21875 -1.421875 15.453125 -0.5625 
Q 10.6875 0.296875 5.421875 2 
L 5.421875 11.28125 
Q 10.40625 8.6875 15.234375 7.390625 
Q 20.0625 6.109375 24.8125 6.109375 
Q 31.15625 6.109375 34.5625 8.28125 
Q 37.984375 10.453125 37.984375 14.40625 
Q 37.984375 18.0625 35.515625 20.015625 
Q 33.0625 21.96875 24.703125 23.78125 
L 21.578125 24.515625 
Q 13.234375 26.265625 9.515625 29.90625 
Q 5.8125 33.546875 5.8125 39.890625 
Q 5.8125 47.609375 11.28125 51.796875 
Q 16.75 56 26.8125 56 
Q 31.78125 56 36.171875 55.265625 
Q 40.578125 54.546875 44.28125 53.078125 
z
" id="DejaVuSans-115"/>
       <path d="M 18.109375 8.203125 
L 18.109375 -20.796875 
L 9.078125 -20.796875 
L 9.078125 54.6875 
L 18.109375 54.6875 
L 18.109375 46.390625 
Q 20.953125 51.265625 25.265625 53.625 
Q 29.59375 56 35.59375 56 
Q 45.5625 56 51.78125 48.09375 
Q 58.015625 40.1875 58.015625 27.296875 
Q 58.015625 14.40625 51.78125 6.484375 
Q 45.5625 -1.421875 35.59375 -1.421875 
Q 29.59375 -1.421875 25.265625 0.953125 
Q 20.953125 3.328125 18.109375 8.203125 
z
M 48.6875 27.296875 
Q 48.6875 37.203125 44.609375 42.84375 
Q 40.53125 48.484375 33.40625 48.484375 
Q 26.265625 48.484375 22.1875 42.84375 
Q 18.109375 37.203125 18.109375 27.296875 
Q 18.109375 17.390625 22.1875 11.75 
Q 26.265625 6.109375 33.40625 6.109375 
Q 40.53125 6.109375 44.609375 11.75 
Q 48.6875 17.390625 48.6875 27.296875 
z
" id="DejaVuSans-112"/>
       <path d="M 56.203125 29.59375 
L 56.203125 25.203125 
L 14.890625 25.203125 
Q 15.484375 15.921875 20.484375 11.0625 
Q 25.484375 6.203125 34.421875 6.203125 
Q 39.59375 6.203125 44.453125 7.46875 
Q 49.3125 8.734375 54.109375 11.28125 
L 54.109375 2.78125 
Q 49.265625 0.734375 44.1875 -0.34375 
Q 39.109375 -1.421875 33.890625 -1.421875 
Q 20.796875 -1.421875 13.15625 6.1875 
Q 5.515625 13.8125 5.515625 26.8125 
Q 5.515625 40.234375 12.765625 48.109375 
Q 20.015625 56 32.328125 56 
Q 43.359375 56 49.78125 48.890625 
Q 56.203125 41.796875 56.203125 29.59375 
z
M 47.21875 32.234375 
Q 47.125 39.59375 43.09375 43.984375 
Q 39.0625 48.390625 32.421875 48.390625 
Q 24.90625 48.390625 20.390625 44.140625 
Q 15.875 39.890625 15.1875 32.171875 
z
" id="DejaVuSans-101"/>
       <path id="DejaVuSans-32"/>
       <path d="M 37.109375 75.984375 
L 37.109375 68.5 
L 28.515625 68.5 
Q 23.6875 68.5 21.796875 66.546875 
Q 19.921875 64.59375 19.921875 59.515625 
L 19.921875 54.6875 
L 34.71875 54.6875 
L 34.71875 47.703125 
L 19.921875 47.703125 
L 19.921875 0 
L 10.890625 0 
L 10.890625 47.703125 
L 2.296875 47.703125 
L 2.296875 54.6875 
L 10.890625 54.6875 
L 10.890625 58.5 
Q 10.890625 67.625 15.140625 71.796875 
Q 19.390625 75.984375 28.609375 75.984375 
z
" id="DejaVuSans-102"/>
       <path d="M 41.109375 46.296875 
Q 39.59375 47.171875 37.8125 47.578125 
Q 36.03125 48 33.890625 48 
Q 26.265625 48 22.1875 43.046875 
Q 18.109375 38.09375 18.109375 28.8125 
L 18.109375 0 
L 9.078125 0 
L 9.078125 54.6875 
L 18.109375 54.6875 
L 18.109375 46.1875 
Q 20.953125 51.171875 25.484375 53.578125 
Q 30.03125 56 36.53125 56 
Q 37.453125 56 38.578125 55.875 
Q 39.703125 55.765625 41.0625 55.515625 
z
" id="DejaVuSans-114"/>
       <path d="M 30.609375 48.390625 
Q 23.390625 48.390625 19.1875 42.75 
Q 14.984375 37.109375 14.984375 27.296875 
Q 14.984375 17.484375 19.15625 11.84375 
Q 23.34375 6.203125 30.609375 6.203125 
Q 37.796875 6.203125 41.984375 11.859375 
Q 46.1875 17.53125 46.1875 27.296875 
Q 46.1875 37.015625 41.984375 42.703125 
Q 37.796875 48.390625 30.609375 48.390625 
z
M 30.609375 56 
Q 42.328125 56 49.015625 48.375 
Q 55.71875 40.765625 55.71875 27.296875 
Q 55.71875 13.875 49.015625 6.21875 
Q 42.328125 -1.421875 30.609375 -1.421875 
Q 18.84375 -1.421875 12.171875 6.21875 
Q 5.515625 13.875 5.515625 27.296875 
Q 5.515625 40.765625 12.171875 48.375 
Q 18.84375 56 30.609375 56 
z
" id="DejaVuSans-111"/>
       <path d="M 52 44.1875 
Q 55.375 50.25 60.0625 53.125 
Q 64.75 56 71.09375 56 
Q 79.640625 56 84.28125 50.015625 
Q 88.921875 44.046875 88.921875 33.015625 
L 88.921875 0 
L 79.890625 0 
L 79.890625 32.71875 
Q 79.890625 40.578125 77.09375 44.375 
Q 74.3125 48.1875 68.609375 48.1875 
Q 61.625 48.1875 57.5625 43.546875 
Q 53.515625 38.921875 53.515625 30.90625 
L 53.515625 0 
L 44.484375 0 
L 44.484375 32.71875 
Q 44.484375 40.625 41.703125 44.40625 
Q 38.921875 48.1875 33.109375 48.1875 
Q 26.21875 48.1875 22.15625 43.53125 
Q 18.109375 38.875 18.109375 30.90625 
L 18.109375 0 
L 9.078125 0 
L 9.078125 54.6875 
L 18.109375 54.6875 
L 18.109375 46.1875 
Q 21.1875 51.21875 25.484375 53.609375 
Q 29.78125 56 35.6875 56 
Q 41.65625 56 45.828125 52.96875 
Q 50 49.953125 52 44.1875 
z
" id="DejaVuSans-109"/>
       <path d="M 3.328125 72.90625 
L 13.28125 72.90625 
L 28.609375 11.28125 
L 43.890625 72.90625 
L 54.984375 72.90625 
L 70.3125 11.28125 
L 85.59375 72.90625 
L 95.609375 72.90625 
L 77.296875 0 
L 64.890625 0 
L 49.515625 63.28125 
L 33.984375 0 
L 21.578125 0 
z
" id="DejaVuSans-87"/>
       <path d="M 34.28125 27.484375 
Q 23.390625 27.484375 19.1875 25 
Q 14.984375 22.515625 14.984375 16.5 
Q 14.984375 11.71875 18.140625 8.90625 
Q 21.296875 6.109375 26.703125 6.109375 
Q 34.1875 6.109375 38.703125 11.40625 
Q 43.21875 16.703125 43.21875 25.484375 
L 43.21875 27.484375 
z
M 52.203125 31.203125 
L 52.203125 0 
L 43.21875 0 
L 43.21875 8.296875 
Q 40.140625 3.328125 35.546875 0.953125 
Q 30.953125 -1.421875 24.3125 -1.421875 
Q 15.921875 -1.421875 10.953125 3.296875 
Q 6 8.015625 6 15.921875 
Q 6 25.140625 12.171875 29.828125 
Q 18.359375 34.515625 30.609375 34.515625 
L 43.21875 34.515625 
L 43.21875 35.40625 
Q 43.21875 41.609375 39.140625 45 
Q 35.0625 48.390625 27.6875 48.390625 
Q 23 48.390625 18.546875 47.265625 
Q 14.109375 46.140625 10.015625 43.890625 
L 10.015625 52.203125 
Q 14.9375 54.109375 19.578125 55.046875 
Q 24.21875 56 28.609375 56 
Q 40.484375 56 46.34375 49.84375 
Q 52.203125 43.703125 52.203125 31.203125 
z
" id="DejaVuSans-97"/>
       <path d="M 18.3125 70.21875 
L 18.3125 54.6875 
L 36.8125 54.6875 
L 36.8125 47.703125 
L 18.3125 47.703125 
L 18.3125 18.015625 
Q 18.3125 11.328125 20.140625 9.421875 
Q 21.96875 7.515625 27.59375 7.515625 
L 36.8125 7.515625 
L 36.8125 0 
L 27.59375 0 
Q 17.1875 0 13.234375 3.875 
Q 9.28125 7.765625 9.28125 18.015625 
L 9.28125 47.703125 
L 2.6875 47.703125 
L 2.6875 54.6875 
L 9.28125 54.6875 
L 9.28125 70.21875 
z
" id="DejaVuSans-116"/>
       <path d="M 54.890625 33.015625 
L 54.890625 0 
L 45.90625 0 
L 45.90625 32.71875 
Q 45.90625 40.484375 42.875 44.328125 
Q 39.84375 48.1875 33.796875 48.1875 
Q 26.515625 48.1875 22.3125 43.546875 
Q 18.109375 38.921875 18.109375 30.90625 
L 18.109375 0 
L 9.078125 0 
L 9.078125 75.984375 
L 18.109375 75.984375 
L 18.109375 46.1875 
Q 21.34375 51.125 25.703125 53.5625 
Q 30.078125 56 35.796875 56 
Q 45.21875 56 50.046875 50.171875 
Q 54.890625 44.34375 54.890625 33.015625 
z
" id="DejaVuSans-104"/>
       <path d="M 19.671875 34.8125 
L 19.671875 8.109375 
L 35.5 8.109375 
Q 43.453125 8.109375 47.28125 11.40625 
Q 51.125 14.703125 51.125 21.484375 
Q 51.125 28.328125 47.28125 31.5625 
Q 43.453125 34.8125 35.5 34.8125 
z
M 19.671875 64.796875 
L 19.671875 42.828125 
L 34.28125 42.828125 
Q 41.5 42.828125 45.03125 45.53125 
Q 48.578125 48.25 48.578125 53.8125 
Q 48.578125 59.328125 45.03125 62.0625 
Q 41.5 64.796875 34.28125 64.796875 
z
M 9.8125 72.90625 
L 35.015625 72.90625 
Q 46.296875 72.90625 52.390625 68.21875 
Q 58.5 63.53125 58.5 54.890625 
Q 58.5 48.1875 55.375 44.234375 
Q 52.25 40.28125 46.1875 39.3125 
Q 53.46875 37.75 57.5 32.78125 
Q 61.53125 27.828125 61.53125 20.40625 
Q 61.53125 10.640625 54.890625 5.3125 
Q 48.25 0 35.984375 0 
L 9.8125 0 
z
" id="DejaVuSans-66"/>
       <path d="M 9.8125 72.90625 
L 19.671875 72.90625 
L 19.671875 0 
L 9.8125 0 
z
" id="DejaVuSans-73"/>
       <path d="M 39.40625 66.21875 
Q 28.65625 66.21875 22.328125 58.203125 
Q 16.015625 50.203125 16.015625 36.375 
Q 16.015625 22.609375 22.328125 14.59375 
Q 28.65625 6.59375 39.40625 6.59375 
Q 50.140625 6.59375 56.421875 14.59375 
Q 62.703125 22.609375 62.703125 36.375 
Q 62.703125 50.203125 56.421875 58.203125 
Q 50.140625 66.21875 39.40625 66.21875 
z
M 39.40625 74.21875 
Q 54.734375 74.21875 63.90625 63.9375 
Q 73.09375 53.65625 73.09375 36.375 
Q 73.09375 19.140625 63.90625 8.859375 
Q 54.734375 -1.421875 39.40625 -1.421875 
Q 24.03125 -1.421875 14.8125 8.828125 
Q 5.609375 19.09375 5.609375 36.375 
Q 5.609375 53.65625 14.8125 63.9375 
Q 24.03125 74.21875 39.40625 74.21875 
z
" id="DejaVuSans-79"/>
      </defs>
      <use xlink:href="#DejaVuSans-119"/>
      <use x="81.787109" xlink:href="#DejaVuSans-105"/>
      <use x="109.570312" xlink:href="#DejaVuSans-110"/>
      <use x="172.949219" xlink:href="#DejaVuSans-100"/>
      <use x="236.425781" xlink:href="#DejaVuSans-95"/>
      <use x="286.425781" xlink:href="#DejaVuSans-115"/>
      <use x="338.525391" xlink:href="#DejaVuSans-112"/>
      <use x="402.001953" xlink:href="#DejaVuSans-101"/>
      <use x="463.525391" xlink:href="#DejaVuSans-101"/>
      <use x="525.048828" xlink:href="#DejaVuSans-100"/>
      <use x="588.525391" xlink:href="#DejaVuSans-32"/>
      <use x="620.3125" xlink:href="#DejaVuSans-102"/>
      <use x="655.517578" xlink:href="#DejaVuSans-114"/>
      <use x="694.380859" xlink:href="#DejaVuSans-111"/>
      <use x="755.5625" xlink:href="#DejaVuSans-109"/>
      <use x="852.974609" xlink:href="#DejaVuSans-32"/>
      <use x="884.761719" xlink:href="#DejaVuSans-87"/>
      <use x="977.763672" xlink:href="#DejaVuSans-101"/>
      <use x="1039.287109" xlink:href="#DejaVuSans-97"/>
      <use x="1100.566406" xlink:href="#DejaVuSans-116"/>
      <use x="1139.775391" xlink:href="#DejaVuSans-104"/>
      <use x="1203.154297" xlink:href="#DejaVuSans-101"/>
      <use x="1264.677734" xlink:href="#DejaVuSans-114"/>
      <use x="1305.791016" xlink:href="#DejaVuSans-66"/>
      <use x="1374.394531" xlink:href="#DejaVuSans-105"/>
      <use x="1402.177734" xlink:href="#DejaVuSans-116"/>
      <use x="1441.386719" xlink:href="#DejaVuSans-73"/>
      <use x="1470.878906" xlink:href="#DejaVuSans-79"/>
     </g>
    </g>
   </g>
   <g id="matplotlib.axis_2">
    <g id="ytick_1">
     <g id="line2d_6">
      <defs>
       <path d="M 0 0 
L -3.5 0 
" id="m48f1749aa9" style="stroke:#000000;stroke-width:0.8;"/>
      </defs>
      <g>
       <use style="stroke:#000000;stroke-width:0.8;" x="57.6" xlink:href="#m48f1749aa9" y="280.817987"/>
      </g>
     </g>
     <g id="text_7">
      <!-- 6 -->
      <g transform="translate(44.2375 284.617206)scale(0.1 -0.1)">
       <use xlink:href="#DejaVuSans-54"/>
      </g>
     </g>
    </g>
    <g id="ytick_2">
     <g id="line2d_7">
      <g>
       <use style="stroke:#000000;stroke-width:0.8;" x="57.6" xlink:href="#m48f1749aa9" y="247.016115"/>
      </g>
     </g>
     <g id="text_8">
      <!-- 8 -->
      <g transform="translate(44.2375 250.815334)scale(0.1 -0.1)">
       <use xlink:href="#DejaVuSans-56"/>
      </g>
     </g>
    </g>
    <g id="ytick_3">
     <g id="line2d_8">
      <g>
       <use style="stroke:#000000;stroke-width:0.8;" x="57.6" xlink:href="#m48f1749aa9" y="213.214243"/>
      </g>
     </g>
     <g id="text_9">
      <!-- 10 -->
      <g transform="translate(37.875 217.013462)scale(0.1 -0.1)">
       <defs>
        <path d="M 12.40625 8.296875 
L 28.515625 8.296875 
L 28.515625 63.921875 
L 10.984375 60.40625 
L 10.984375 69.390625 
L 28.421875 72.90625 
L 38.28125 72.90625 
L 38.28125 8.296875 
L 54.390625 8.296875 
L 54.390625 0 
L 12.40625 0 
z
" id="DejaVuSans-49"/>
       </defs>
       <use xlink:href="#DejaVuSans-49"/>
       <use x="63.623047" xlink:href="#DejaVuSans-48"/>
      </g>
     </g>
    </g>
    <g id="ytick_4">
     <g id="line2d_9">
      <g>
       <use style="stroke:#000000;stroke-width:0.8;" x="57.6" xlink:href="#m48f1749aa9" y="179.412371"/>
      </g>
     </g>
     <g id="text_10">
      <!-- 12 -->
      <g transform="translate(37.875 183.211589)scale(0.1 -0.1)">
       <use xlink:href="#DejaVuSans-49"/>
       <use x="63.623047" xlink:href="#DejaVuSans-50"/>
      </g>
     </g>
    </g>
    <g id="ytick_5">
     <g id="line2d_10">
      <g>
       <use style="stroke:#000000;stroke-width:0.8;" x="57.6" xlink:href="#m48f1749aa9" y="145.610498"/>
      </g>
     </g>
     <g id="text_11">
      <!-- 14 -->
      <g transform="translate(37.875 149.409717)scale(0.1 -0.1)">
       <use xlink:href="#DejaVuSans-49"/>
       <use x="63.623047" xlink:href="#DejaVuSans-52"/>
      </g>
     </g>
    </g>
    <g id="ytick_6">
     <g id="line2d_11">
      <g>
       <use style="stroke:#000000;stroke-width:0.8;" x="57.6" xlink:href="#m48f1749aa9" y="111.808626"/>
      </g>
     </g>
     <g id="text_12">
      <!-- 16 -->
      <g transform="translate(37.875 115.607845)scale(0.1 -0.1)">
       <use xlink:href="#DejaVuSans-49"/>
       <use x="63.623047" xlink:href="#DejaVuSans-54"/>
      </g>
     </g>
    </g>
    <g id="ytick_7">
     <g id="line2d_12">
      <g>
       <use style="stroke:#000000;stroke-width:0.8;" x="57.6" xlink:href="#m48f1749aa9" y="78.006754"/>
      </g>
     </g>
     <g id="text_13">
      <!-- 18 -->
      <g transform="translate(37.875 81.805972)scale(0.1 -0.1)">
       <use xlink:href="#DejaVuSans-49"/>
       <use x="63.623047" xlink:href="#DejaVuSans-56"/>
      </g>
     </g>
    </g>
    <g id="ytick_8">
     <g id="line2d_13">
      <g>
       <use style="stroke:#000000;stroke-width:0.8;" x="57.6" xlink:href="#m48f1749aa9" y="44.204881"/>
      </g>
     </g>
     <g id="text_14">
      <!-- 20 -->
      <g transform="translate(37.875 48.0041)scale(0.1 -0.1)">
       <use xlink:href="#DejaVuSans-50"/>
       <use x="63.623047" xlink:href="#DejaVuSans-48"/>
      </g>
     </g>
    </g>
    <g id="text_15">
     <!-- ping_day[ms] -->
     <g transform="translate(31.517187 208.508469)rotate(-90)scale(0.1 -0.1)">
      <defs>
       <path d="M 45.40625 27.984375 
Q 45.40625 37.75 41.375 43.109375 
Q 37.359375 48.484375 30.078125 48.484375 
Q 22.859375 48.484375 18.828125 43.109375 
Q 14.796875 37.75 14.796875 27.984375 
Q 14.796875 18.265625 18.828125 12.890625 
Q 22.859375 7.515625 30.078125 7.515625 
Q 37.359375 7.515625 41.375 12.890625 
Q 45.40625 18.265625 45.40625 27.984375 
z
M 54.390625 6.78125 
Q 54.390625 -7.171875 48.1875 -13.984375 
Q 42 -20.796875 29.203125 -20.796875 
Q 24.46875 -20.796875 20.265625 -20.09375 
Q 16.0625 -19.390625 12.109375 -17.921875 
L 12.109375 -9.1875 
Q 16.0625 -11.328125 19.921875 -12.34375 
Q 23.78125 -13.375 27.78125 -13.375 
Q 36.625 -13.375 41.015625 -8.765625 
Q 45.40625 -4.15625 45.40625 5.171875 
L 45.40625 9.625 
Q 42.625 4.78125 38.28125 2.390625 
Q 33.9375 0 27.875 0 
Q 17.828125 0 11.671875 7.65625 
Q 5.515625 15.328125 5.515625 27.984375 
Q 5.515625 40.671875 11.671875 48.328125 
Q 17.828125 56 27.875 56 
Q 33.9375 56 38.28125 53.609375 
Q 42.625 51.21875 45.40625 46.390625 
L 45.40625 54.6875 
L 54.390625 54.6875 
z
" id="DejaVuSans-103"/>
       <path d="M 32.171875 -5.078125 
Q 28.375 -14.84375 24.75 -17.8125 
Q 21.140625 -20.796875 15.09375 -20.796875 
L 7.90625 -20.796875 
L 7.90625 -13.28125 
L 13.1875 -13.28125 
Q 16.890625 -13.28125 18.9375 -11.515625 
Q 21 -9.765625 23.484375 -3.21875 
L 25.09375 0.875 
L 2.984375 54.6875 
L 12.5 54.6875 
L 29.59375 11.921875 
L 46.6875 54.6875 
L 56.203125 54.6875 
z
" id="DejaVuSans-121"/>
       <path d="M 8.59375 75.984375 
L 29.296875 75.984375 
L 29.296875 69 
L 17.578125 69 
L 17.578125 -6.203125 
L 29.296875 -6.203125 
L 29.296875 -13.1875 
L 8.59375 -13.1875 
z
" id="DejaVuSans-91"/>
       <path d="M 30.421875 75.984375 
L 30.421875 -13.1875 
L 9.71875 -13.1875 
L 9.71875 -6.203125 
L 21.390625 -6.203125 
L 21.390625 69 
L 9.71875 69 
L 9.71875 75.984375 
z
" id="DejaVuSans-93"/>
      </defs>
      <use xlink:href="#DejaVuSans-112"/>
      <use x="63.476562" xlink:href="#DejaVuSans-105"/>
      <use x="91.259766" xlink:href="#DejaVuSans-110"/>
      <use x="154.638672" xlink:href="#DejaVuSans-103"/>
      <use x="218.115234" xlink:href="#DejaVuSans-95"/>
      <use x="268.115234" xlink:href="#DejaVuSans-100"/>
      <use x="331.591797" xlink:href="#DejaVuSans-97"/>
      <use x="392.871094" xlink:href="#DejaVuSans-121"/>
      <use x="452.050781" xlink:href="#DejaVuSans-91"/>
      <use x="491.064453" xlink:href="#DejaVuSans-109"/>
      <use x="588.476562" xlink:href="#DejaVuSans-115"/>
      <use x="640.576172" xlink:href="#DejaVuSans-93"/>
     </g>
    </g>
   </g>
   <g id="line2d_14">
    <path clip-path="url(#p34c8d651df)" d="M 73.832727 286.851622 
L 76.437293 290.721936 
L 77.367531 283.403831 
L 77.637417 291.381073 
L 79.516179 285.313636 
L 82.397527 278.823677 
L 85.302609 275.342084 
L 88.625436 278.620866 
L 91.75743 274.649146 
L 92.119818 291.178261 
L 92.884977 288.964239 
L 92.903302 278.367352 
L 93.63242 276.220933 
L 97.141927 277.403998 
L 97.166957 279.584219 
L 100.884784 285.803764 
L 100.970123 287.375551 
L 101.375485 273.009755 
L 101.431489 283.099614 
L 102.425846 280.463068 
L 102.490993 287.206541 
L 102.778633 285.296736 
L 102.782061 294.507746 
L 103.142849 274.429434 
L 103.818326 280.14195 
L 103.873568 284.333382 
L 104.585237 279.094092 
L 105.263 278.265946 
L 106.44937 223.202696 
L 106.760249 290.299413 
L 107.591927 275.646301 
L 108.764201 276.373041 
L 110.361648 275.950518 
L 110.488514 286.986829 
L 111.858897 266.857814 
L 112.170157 283.116515 
L 112.47456 279.212398 
L 112.75077 271.184454 
L 112.9645 284.29958 
L 113.164514 286.361494 
L 113.23309 265.978965 
L 113.347765 277.894125 
L 114.760056 280.817987 
L 115.038933 285.00942 
L 115.823369 279.296903 
L 116.203968 282.744694 
L 116.941925 290.637431 
L 117.16175 283.505236 
L 117.514537 283.420732 
L 118.822059 283.319326 
L 118.98969 278.384253 
L 119.241136 285.398141 
L 119.488011 281.054601 
L 119.667833 280.479969 
L 121.159368 281.696836 
L 121.53349 286.226287 
L 121.710264 279.736328 
L 122.372406 286.581207 
L 122.591089 287.274145 
L 124.890681 277.691314 
L 125.561966 287.713569 
L 126.597469 277.184286 
L 126.785292 250.3456 
L 126.819961 279.668724 
L 127.086265 281.832044 
L 127.241324 281.848945 
L 127.750313 288.491012 
L 127.787648 261.669227 
L 128.458934 285.38124 
L 129.034975 283.471434 
L 129.902465 270.795732 
L 130.731858 284.772806 
L 130.88425 279.989842 
L 131.669067 226.329369 
L 131.851175 283.910859 
L 132.040141 220.042221 
L 132.511413 282.372874 
L 132.515604 282.017954 
L 133.242893 286.10798 
L 133.378522 269.815478 
L 133.736643 274.091415 
L 134.091716 279.719427 
L 134.296302 274.682948 
L 134.741667 287.54456 
L 135.327994 267.364842 
L 135.591251 289.099446 
L 136.22901 279.043389 
L 137.630634 281.0377 
L 137.66416 275.832211 
L 137.876366 276.52515 
L 138.338494 263.798745 
L 138.925583 275.358985 
L 139.018161 279.516615 
L 140.210246 218.622542 
L 140.331778 275.527994 
L 141.219079 288.406508 
L 141.342136 280.547572 
L 141.735688 277.099781 
L 142.445071 282.744694 
L 142.667182 282.355973 
L 143.573152 285.060122 
L 143.612773 276.051923 
L 144.031089 281.122204 
L 144.404068 272.181609 
L 144.602558 278.70537 
L 144.956488 283.944661 
L 146.088378 279.41521 
L 146.321537 291.195162 
L 146.415258 271.691482 
L 146.425545 283.370029 
L 146.639655 278.975785 
L 146.670515 279.094092 
L 147.166931 254.553933 
L 147.741448 286.64881 
L 147.949463 286.615009 
L 148.640178 272.367519 
L 148.659989 288.795229 
L 148.840955 271.370364 
L 148.982679 286.023476 
L 149.058875 262.886094 
L 149.072971 287.409353 
L 149.301559 277.167385 
L 149.312607 278.806776 
L 149.839883 285.989674 
L 149.895506 275.98432 
L 149.957224 289.859988 
L 150.29782 278.975785 
L 150.343538 280.040544 
L 150.742042 283.539038 
L 150.899387 276.795565 
L 151.251793 289.048743 
L 151.700206 277.944828 
L 151.749733 283.57284 
L 151.782116 275.460391 
L 152.691133 281.071501 
L 152.978773 293.104968 
L 153.257269 287.409353 
L 153.383373 273.46608 
L 153.511763 274.463235 
L 153.557861 278.823677 
L 154.340393 259.3876 
L 154.347632 285.229132 
L 154.578505 282.457378 
L 154.815094 270.305605 
L 154.876431 281.815143 
L 155.065016 278.806776 
L 155.500476 285.398141 
L 155.585815 255.736998 
L 156.452162 273.905505 
L 156.475402 273.668891 
L 156.810283 274.615344 
L 156.991248 294.473944 
L 157.739873 273.229467 
L 158.223336 273.905505 
L 158.266006 281.544728 
L 159.762112 282.220765 
L 159.812782 272.637934 
L 160.072991 284.671401 
L 160.16595 271.911194 
L 160.246718 279.432111 
L 161.250599 274.243523 
L 161.750444 286.767117 
L 161.841498 282.744694 
L 162.014463 281.916548 
L 162.464018 277.505404 
L 162.615267 277.944828 
L 162.875095 275.595598 
L 163.024439 285.246033 
L 163.218358 271.47177 
L 163.744871 286.327693 
L 164.039368 283.555939 
L 164.438254 275.020966 
L 164.457303 282.017954 
L 164.637506 289.690979 
L 165.347652 287.831876 
L 165.522902 280.834888 
L 166.148852 283.674246 
L 166.936717 280.344761 
L 167.087585 283.268623 
L 167.752394 258.30594 
L 167.785539 282.30527 
L 168.153566 263.866348 
L 168.42368 278.418054 
L 168.704081 287.105136 
L 168.805802 265.590244 
L 169.230976 286.885424 
L 169.238214 295.488 
L 169.421846 284.198175 
L 169.730059 277.133583 
L 170.31029 267.466248 
L 170.316767 290.569828 
L 170.638695 286.665711 
L 170.74956 282.660189 
L 171.446752 282.508081 
L 171.795348 254.486329 
L 172.137849 282.389774 
L 172.212902 278.857479 
L 172.332529 281.882746 
L 172.782847 213.028333 
L 172.844947 293.696501 
L 172.998862 277.184286 
L 173.228974 265.674749 
L 173.290693 286.479801 
L 173.344792 284.367184 
L 173.492231 275.240678 
L 173.492993 283.539038 
L 173.534901 246.407681 
L 173.971503 284.502392 
L 173.985599 275.680103 
L 174.288859 275.561796 
L 174.375341 291.245865 
L 174.506398 216.712737 
L 174.607739 262.379066 
L 174.874424 289.285356 
L 175.042817 279.06029 
L 175.585332 281.984152 
L 175.842112 230.774315 
L 176.143848 288.524814 
L 176.374721 288.862833 
L 177.383174 166.060631 
L 177.392699 264.086061 
L 177.568711 278.468757 
L 177.726818 271.674581 
L 177.77063 271.961897 
L 177.965692 285.246033 
L 178.103987 288.676923 
L 178.31886 282.660189 
L 178.620214 285.600952 
L 178.747462 272.908349 
L 178.842706 284.908014 
L 180.557876 277.927927 
L 180.954476 279.719427 
L 181.446701 288.203697 
L 181.994931 286.226287 
L 182.413246 270.2211 
L 182.610974 280.953195 
L 183.432747 288.693824 
L 184.105938 283.03201 
L 184.592068 284.941816 
L 185.373837 271.167553 
L 185.527753 265.843758 
L 185.698432 282.879902 
L 185.749483 273.65199 
L 186.112938 284.198175 
L 186.256948 281.206709 
L 186.413911 273.415377 
L 186.438294 288.136093 
L 187.07453 283.21792 
L 188.028121 279.668724 
L 188.794271 259.522808 
L 188.980951 280.243356 
L 189.28383 285.584051 
L 190.205419 284.096769 
L 190.318189 277.877225 
L 190.514012 280.665879 
L 190.667547 280.547572 
L 191.114817 285.972773 
L 191.229492 281.020799 
L 191.556372 253.810291 
L 191.588374 254.756744 
L 191.802104 260.486161 
L 191.827249 281.494025 
L 192.307283 271.353463 
L 192.746933 266.046569 
L 192.869989 285.820665 
L 192.892848 270.153497 
L 193.102006 280.479969 
L 193.196108 276.592753 
L 193.301258 285.651655 
L 193.449459 280.970096 
L 193.5508 285.060122 
L 193.660141 277.97863 
L 194.529536 283.978462 
L 194.666688 275.004065 
L 195.839724 282.30527 
L 196.184511 242.486664 
L 196.297662 263.815646 
L 196.64321 271.84359 
L 196.763599 286.885424 
L 196.792554 286.716414 
L 196.92323 277.995531 
L 197.670712 276.998376 
L 197.760623 246.086564 
L 198.169414 285.905169 
L 199.28035 287.155838 
L 199.695236 282.068657 
L 199.804577 287.798074 
L 199.953159 282.11936 
L 200.125743 287.713569 
L 200.326519 281.815143 
L 200.499103 285.56715 
L 200.795505 269.426756 
L 200.811125 286.513603 
L 201.462219 276.998376 
L 201.568893 272.19851 
L 201.651947 286.64881 
L 202.686687 274.598443 
L 203.605991 276.035022 
L 203.665804 278.891281 
L 203.898202 282.271468 
L 204.232321 275.713905 
L 204.534819 276.035022 
L 204.960373 278.671569 
L 204.967992 285.313636 
L 205.686138 214.752228 
L 205.701759 278.451856 
L 206.241607 283.38693 
L 206.469813 287.612164 
L 208.150314 278.925083 
L 208.363281 280.530672 
L 208.593774 261.043892 
L 208.966372 275.612499 
L 209.795764 284.417887 
L 210.083022 277.099781 
L 210.407617 277.573008 
L 210.718877 285.077023 
L 211.128811 287.307947 
L 211.557794 281.308115 
L 211.615703 251.089241 
L 211.844671 283.674246 
L 211.940678 285.482646 
L 212.250034 267.68596 
L 212.351755 277.539206 
L 212.827599 275.646301 
L 212.853124 284.823509 
L 213.18991 266.012767 
L 213.702708 280.412365 
L 214.057019 282.744694 
L 214.105023 284.569995 
L 215.254438 267.584554 
L 215.457119 285.347438 
L 215.810287 288.727626 
L 216.295655 286.969928 
L 216.678158 289.53887 
L 217.124285 276.068824 
L 218.315608 255.922908 
L 218.536576 279.06029 
L 218.65087 272.942151 
L 218.812405 283.116515 
L 218.968606 275.612499 
L 219.475309 284.164373 
L 219.493596 288.761427 
L 219.494739 277.62371 
L 219.684848 271.725284 
L 219.743138 276.981475 
L 219.988489 283.944661 
L 220.899029 280.919393 
L 221.805761 287.054433 
L 222.038539 282.13626 
L 222.472856 282.49118 
L 223.622652 253.810291 
L 224.607484 280.767285 
L 224.640629 271.606977 
L 225.463544 287.307947 
L 226.050253 284.485491 
L 226.689536 277.370196 
L 227.292246 282.017954 
L 228.091922 291.905002 
L 228.187167 278.046234 
L 228.314795 287.527659 
L 228.326986 243.382414 
L 228.751016 274.54774 
L 228.76016 289.251555 
L 229.848618 280.733483 
L 230.247504 271.370364 
L 230.360273 255.331376 
L 230.989271 265.33673 
L 231.144329 264.914207 
L 231.387775 267.990177 
L 231.540167 279.077191 
L 231.810662 284.992519 
L 232.397752 274.851957 
L 233.176093 267.905672 
L 233.18295 273.685792 
L 233.401632 279.95604 
L 233.890429 289.589573 
L 233.977292 256.598946 
L 234.312554 283.623543 
L 234.564382 284.637599 
L 234.66496 272.908349 
L 234.79335 238.345935 
L 234.988412 280.32786 
L 235.469208 278.654668 
L 235.616647 289.995196 
L 235.697796 289.70788 
L 236.420133 265.218423 
L 236.435753 258.66086 
L 236.820161 273.601288 
L 237.196569 260.503062 
L 237.279241 282.896803 
L 237.404965 276.643456 
L 238.401226 287.882579 
L 238.495709 284.789707 
L 239.154803 275.325183 
L 240.092394 285.584051 
L 240.12592 274.091415 
L 240.820446 289.876889 
L 240.983124 279.144795 
L 241.052462 286.902324 
L 241.06732 282.541883 
L 244.368888 291.228964 
L 244.484325 285.431943 
L 245.317527 273.077359 
L 245.566688 274.040712 
L 245.626121 275.291381 
L 245.657361 286.513603 
L 246.002147 282.879902 
L 246.503135 279.077191 
L 246.552663 274.868858 
L 247.0807 285.246033 
L 247.57064 272.840746 
L 247.744366 275.849112 
L 247.934856 282.288369 
L 248.699101 285.229132 
L 248.707482 272.975953 
L 249.194755 283.961562 
L 249.72165 282.896803 
L 249.77232 288.541715 
L 250.208161 283.319326 
L 250.520183 270.728129 
L 250.778487 290.874044 
L 250.800965 278.87438 
L 252.187349 281.020799 
L 252.504324 266.283182 
L 252.520325 284.620698 
L 252.852539 278.316649 
L 252.922639 280.530672 
L 253.24571 284.908014 
L 253.361909 274.00691 
L 253.460201 277.860324 
L 254.186729 266.908517 
L 255.322048 276.643456 
L 255.481678 273.685792 
L 255.736554 283.437633 
L 256.192205 279.381408 
L 256.59109 284.637599 
L 256.695098 269.004233 
L 256.75034 287.172739 
L 256.802534 267.753564 
L 257.04979 277.826522 
L 257.114937 287.375551 
L 257.435341 268.142285 
L 257.45058 273.246368 
L 257.674215 286.784018 
L 258.108151 282.034855 
L 258.554659 288.237498 
L 258.717718 265.674749 
L 259.212229 284.6545 
L 259.437007 272.688637 
L 259.819129 262.683283 
L 259.829797 280.429266 
L 260.10715 280.310959 
L 260.122008 290.874044 
L 260.494606 286.074179 
L 260.835583 293.020463 
L 261.055027 273.668891 
L 262.405218 279.634922 
L 262.651712 272.283015 
L 262.813628 273.601288 
L 263.101268 272.840746 
L 263.614828 272.080203 
L 264.578325 272.942151 
L 265.147889 279.381408 
L 265.255706 283.775651 
L 265.349427 282.930604 
L 265.878227 276.051923 
L 265.971186 278.485658 
L 266.127006 267.736663 
L 266.615803 283.184118 
L 266.939636 270.947841 
L 267.008212 292.919058 
L 267.343855 280.970096 
L 267.385763 271.759086 
L 267.947707 276.187131 
L 268.352308 284.874212 
L 268.441076 272.164708 
L 268.510033 285.127726 
L 269.375999 290.367016 
L 269.451433 273.347774 
L 269.906323 271.184454 
L 269.926515 272.097104 
L 269.929182 280.547572 
L 270.071668 263.274816 
L 270.076621 285.229132 
L 271.014592 290.282512 
L 271.283944 285.398141 
L 271.412335 264.677593 
L 271.872939 283.944661 
L 272.549177 255.855305 
L 273.123313 268.987332 
L 273.71726 272.92525 
L 274.078048 282.744694 
L 274.194247 274.446334 
L 274.418263 281.274313 
L 274.750858 285.448844 
L 275.073928 279.972941 
L 275.260227 284.772806 
L 275.798932 286.665711 
L 276.376497 283.910859 
L 276.666041 283.57284 
L 276.678233 273.432278 
L 277.298086 286.919225 
L 278.319492 270.2042 
L 279.483385 274.040712 
L 280.270107 274.057613 
L 280.28687 268.970431 
L 280.526506 285.364339 
L 281.271321 271.809788 
L 281.683541 270.238001 
L 282.074807 283.21792 
L 283.032589 260.165043 
L 283.391091 281.713737 
L 284.70928 285.161528 
L 284.908532 278.908182 
L 287.152882 283.589741 
L 287.372707 285.92207 
L 287.789499 283.048911 
L 289.267318 268.919728 
L 289.572864 282.67709 
L 289.692872 269.680271 
L 291.072018 270.660525 
L 291.33718 282.947505 
L 292.556314 268.480304 
L 292.790235 279.178597 
L 294.024609 281.003898 
L 294.442924 275.578697 
L 295.240695 280.919393 
L 295.552336 279.449012 
L 295.66282 279.719427 
L 295.71311 287.476956 
L 296.789758 286.631909 
L 297.130353 271.252058 
L 299.13621 272.806944 
L 300.077229 283.877057 
L 300.672319 279.854634 
L 300.78547 270.93094 
L 300.95272 272.908349 
L 301.316175 292.141615 
L 301.592766 287.324848 
L 302.619124 258.491851 
L 302.921241 266.23248 
L 302.957815 285.448844 
L 304.329722 260.232647 
L 304.559834 283.995363 
L 305.243692 267.077526 
L 305.855164 279.026488 
L 307.185163 257.680606 
L 307.244215 276.744862 
L 308.280479 276.423744 
L 308.726987 277.911026 
L 308.988339 287.206541 
L 310.834185 286.327693 
L 311.08144 285.651655 
L 311.947407 276.508249 
L 312.337149 286.445999 
L 312.38058 283.539038 
L 313.257976 284.096769 
L 313.658385 264.660692 
L 314.007744 276.220933 
L 314.571212 270.491515 
L 315.509946 257.984823 
L 316.397247 278.637767 
L 316.518398 287.916381 
L 317.399985 277.60681 
L 318.284238 283.116515 
L 318.473585 285.533349 
L 318.518921 268.22679 
L 319.152109 287.460055 
L 319.619952 276.778664 
L 320.179992 284.147472 
L 320.515254 276.795565 
L 320.960238 285.077023 
L 321.293214 285.753061 
L 321.644096 281.629232 
L 322.719601 281.95035 
L 323.372981 267.922573 
L 323.605378 275.798409 
L 323.924258 279.110993 
L 324.842799 277.319494 
L 325.836775 262.784689 
L 326.263091 278.367352 
L 328.532586 290.400818 
L 328.598495 267.178932 
L 329.576088 281.088402 
L 330.356715 279.364507 
L 330.462247 265.455036 
L 331.775102 276.71106 
L 332.854798 288.930437 
L 333.241873 273.584387 
L 334.622923 272.350618 
L 335.705286 281.22361 
L 335.882822 264.576188 
L 335.978829 284.553094 
L 338.023165 281.916548 
L 342.892464 270.119695 
L 343.532128 287.35865 
L 343.827387 220.21123 
L 344.052927 262.886094 
L 346.86265 221.968928 
L 348.364853 265.302928 
L 351.447357 275.291381 
L 354.28413 275.08857 
L 357.20891 286.919225 
L 360.497906 266.908517 
L 361.25034 280.378563 
L 372.513998 279.820832 
L 378.163161 53.568 
L 379.739654 268.598611 
L 382.544044 280.86869 
L 385.262714 258.001724 
L 386.80949 280.429266 
L 388.742199 280.547572 
L 393.403102 284.603797 
L 398.487273 276.35614 
L 398.487273 276.35614 
" style="fill:none;stroke:#0000ff;stroke-linecap:square;stroke-width:1.5;"/>
   </g>
   <g id="patch_3">
    <path d="M 57.6 307.584 
L 57.6 41.472 
" style="fill:none;stroke:#000000;stroke-linecap:square;stroke-linejoin:miter;stroke-width:0.8;"/>
   </g>
   <g id="patch_4">
    <path d="M 414.72 307.584 
L 414.72 41.472 
" style="fill:none;stroke:#000000;stroke-linecap:square;stroke-linejoin:miter;stroke-width:0.8;"/>
   </g>
   <g id="patch_5">
    <path d="M 57.6 307.584 
L 414.72 307.584 
" style="fill:none;stroke:#000000;stroke-linecap:square;stroke-linejoin:miter;stroke-width:0.8;"/>
   </g>
   <g id="patch_6">
    <path d="M 57.6 41.472 
L 414.72 41.472 
" style="fill:none;stroke:#000000;stroke-linecap:square;stroke-linejoin:miter;stroke-width:0.8;"/>
   </g>
   <g id="text_16">
    <!-- wind_speed-&gt;ping_day -->
    <g transform="translate(166.53 35.472)scale(0.12 -0.12)">
     <defs>
      <path d="M 4.890625 31.390625 
L 31.203125 31.390625 
L 31.203125 23.390625 
L 4.890625 23.390625 
z
" id="DejaVuSans-45"/>
      <path d="M 10.59375 49.21875 
L 10.59375 58.109375 
L 73.1875 35.40625 
L 73.1875 27.296875 
L 10.59375 4.59375 
L 10.59375 13.484375 
L 60.890625 31.296875 
z
" id="DejaVuSans-62"/>
     </defs>
     <use xlink:href="#DejaVuSans-119"/>
     <use x="81.787109" xlink:href="#DejaVuSans-105"/>
     <use x="109.570312" xlink:href="#DejaVuSans-110"/>
     <use x="172.949219" xlink:href="#DejaVuSans-100"/>
     <use x="236.425781" xlink:href="#DejaVuSans-95"/>
     <use x="286.425781" xlink:href="#DejaVuSans-115"/>
     <use x="338.525391" xlink:href="#DejaVuSans-112"/>
     <use x="402.001953" xlink:href="#DejaVuSans-101"/>
     <use x="463.525391" xlink:href="#DejaVuSans-101"/>
     <use x="525.048828" xlink:href="#DejaVuSans-100"/>
     <use x="588.525391" xlink:href="#DejaVuSans-45"/>
     <use x="624.609375" xlink:href="#DejaVuSans-62"/>
     <use x="708.398438" xlink:href="#DejaVuSans-112"/>
     <use x="771.875" xlink:href="#DejaVuSans-105"/>
     <use x="799.658203" xlink:href="#DejaVuSans-110"/>
     <use x="863.037109" xlink:href="#DejaVuSans-103"/>
     <use x="926.513672" xlink:href="#DejaVuSans-95"/>
     <use x="976.513672" xlink:href="#DejaVuSans-100"/>
     <use x="1039.990234" xlink:href="#DejaVuSans-97"/>
     <use x="1101.269531" xlink:href="#DejaVuSans-121"/>
    </g>
   </g>
  </g>
  <g id="legend_1">
   <g id="patch_7">
    <path d="M 353.839063 22.95625 
L 453.8 22.95625 
Q 455.8 22.95625 455.8 20.95625 
L 455.8 7 
Q 455.8 5 453.8 5 
L 353.839063 5 
Q 351.839063 5 351.839063 7 
L 351.839063 20.95625 
Q 351.839063 22.95625 353.839063 22.95625 
z
" style="fill:#ffffff;opacity:0.8;stroke:#cccccc;stroke-linejoin:miter;"/>
   </g>
   <g id="line2d_15">
    <path d="M 355.839063 13.098437 
L 375.839063 13.098437 
" style="fill:none;stroke:#0000ff;stroke-linecap:square;stroke-width:1.5;"/>
   </g>
   <g id="line2d_16"/>
   <g id="text_17">
    <!-- ping_day[ms] -->
    <g transform="translate(383.839063 16.598437)scale(0.1 -0.1)">
     <use xlink:href="#DejaVuSans-112"/>
     <use x="63.476562" xlink:href="#DejaVuSans-105"/>
     <use x="91.259766" xlink:href="#DejaVuSans-110"/>
     <use x="154.638672" xlink:href="#DejaVuSans-103"/>
     <use x="218.115234" xlink:href="#DejaVuSans-95"/>
     <use x="268.115234" xlink:href="#DejaVuSans-100"/>
     <use x="331.591797" xlink:href="#DejaVuSans-97"/>
     <use x="392.871094" xlink:href="#DejaVuSans-121"/>
     <use x="452.050781" xlink:href="#DejaVuSans-91"/>
     <use x="491.064453" xlink:href="#DejaVuSans-109"/>
     <use x="588.476562" xlink:href="#DejaVuSans-115"/>
     <use x="640.576172" xlink:href="#DejaVuSans-93"/>
    </g>
   </g>
  </g>
 </g>
 <defs>
  <clipPath id="p34c8d651df">
   <rect height="266.112" width="357.12" x="57.6" y="41.472"/>
  </clipPath>
 </defs>
</svg>
