<?xml version="1.0" encoding="utf-8" standalone="no"?>
<!DOCTYPE svg PUBLIC "-//W3C//DTD SVG 1.1//EN"
  "http://www.w3.org/Graphics/SVG/1.1/DTD/svg11.dtd">
<!-- Created with matplotlib (https://matplotlib.org/) -->
<svg height="2090.31625pt" version="1.1" viewBox="0 0 2059.08125 2090.31625" width="2059.08125pt" xmlns="http://www.w3.org/2000/svg" xmlns:xlink="http://www.w3.org/1999/xlink">
 <metadata>
  <rdf:RDF xmlns:cc="http://creativecommons.org/ns#" xmlns:dc="http://purl.org/dc/elements/1.1/" xmlns:rdf="http://www.w3.org/1999/02/22-rdf-syntax-ns#">
   <cc:Work>
    <dc:type rdf:resource="http://purl.org/dc/dcmitype/StillImage"/>
    <dc:date>2022-07-23T21:13:29.170788</dc:date>
    <dc:format>image/svg+xml</dc:format>
    <dc:creator>
     <cc:Agent>
      <dc:title>Matplotlib v3.3.2, https://matplotlib.org/</dc:title>
     </cc:Agent>
    </dc:creator>
   </cc:Work>
  </rdf:RDF>
 </metadata>
 <defs>
  <style type="text/css">*{stroke-linecap:butt;stroke-linejoin:round;}</style>
 </defs>
 <g id="figure_1">
  <g id="patch_1">
   <path d="M 0 2090.31625 
L 2059.08125 2090.31625 
L 2059.08125 0 
L 0 0 
z
" style="fill:#ffffff;"/>
  </g>
  <g id="axes_1">
   <g id="patch_2">
    <path d="M 40.88125 2052.76 
L 1826.48125 2052.76 
L 1826.48125 278.68 
L 40.88125 278.68 
z
" style="fill:#ffffff;"/>
   </g>
   <g id="matplotlib.axis_1">
    <g id="xtick_1">
     <g id="line2d_1">
      <defs>
       <path d="M 0 0 
L 0 3.5 
" id="mfe565b0a98" style="stroke:#000000;stroke-width:0.8;"/>
      </defs>
      <g>
       <use style="stroke:#000000;stroke-width:0.8;" x="222.359493" xlink:href="#mfe565b0a98" y="2052.76"/>
      </g>
     </g>
     <g id="text_1">
      <text style="font-family:DejaVu Sans;font-size:10px;font-stretch:normal;font-style:normal;font-weight:normal;text-anchor:middle;" transform="rotate(-0, 222.359493, 2067.358438)" x="222.359493" y="2067.358438">5.0</text>
     </g>
    </g>
    <g id="xtick_2">
     <g id="line2d_2">
      <g>
       <use style="stroke:#000000;stroke-width:0.8;" x="450.347236" xlink:href="#mfe565b0a98" y="2052.76"/>
      </g>
     </g>
     <g id="text_2">
      <text style="font-family:DejaVu Sans;font-size:10px;font-stretch:normal;font-style:normal;font-weight:normal;text-anchor:middle;" transform="rotate(-0, 450.347236, 2067.358438)" x="450.347236" y="2067.358438">7.5</text>
     </g>
    </g>
    <g id="xtick_3">
     <g id="line2d_3">
      <g>
       <use style="stroke:#000000;stroke-width:0.8;" x="678.334978" xlink:href="#mfe565b0a98" y="2052.76"/>
      </g>
     </g>
     <g id="text_3">
      <text style="font-family:DejaVu Sans;font-size:10px;font-stretch:normal;font-style:normal;font-weight:normal;text-anchor:middle;" transform="rotate(-0, 678.334978, 2067.358438)" x="678.334978" y="2067.358438">10.0</text>
     </g>
    </g>
    <g id="xtick_4">
     <g id="line2d_4">
      <g>
       <use style="stroke:#000000;stroke-width:0.8;" x="906.322721" xlink:href="#mfe565b0a98" y="2052.76"/>
      </g>
     </g>
     <g id="text_4">
      <text style="font-family:DejaVu Sans;font-size:10px;font-stretch:normal;font-style:normal;font-weight:normal;text-anchor:middle;" transform="rotate(-0, 906.322721, 2067.358438)" x="906.322721" y="2067.358438">12.5</text>
     </g>
    </g>
    <g id="xtick_5">
     <g id="line2d_5">
      <g>
       <use style="stroke:#000000;stroke-width:0.8;" x="1134.310463" xlink:href="#mfe565b0a98" y="2052.76"/>
      </g>
     </g>
     <g id="text_5">
      <text style="font-family:DejaVu Sans;font-size:10px;font-stretch:normal;font-style:normal;font-weight:normal;text-anchor:middle;" transform="rotate(-0, 1134.310463, 2067.358438)" x="1134.310463" y="2067.358438">15.0</text>
     </g>
    </g>
    <g id="xtick_6">
     <g id="line2d_6">
      <g>
       <use style="stroke:#000000;stroke-width:0.8;" x="1362.298206" xlink:href="#mfe565b0a98" y="2052.76"/>
      </g>
     </g>
     <g id="text_6">
      <text style="font-family:DejaVu Sans;font-size:10px;font-stretch:normal;font-style:normal;font-weight:normal;text-anchor:middle;" transform="rotate(-0, 1362.298206, 2067.358438)" x="1362.298206" y="2067.358438">17.5</text>
     </g>
    </g>
    <g id="xtick_7">
     <g id="line2d_7">
      <g>
       <use style="stroke:#000000;stroke-width:0.8;" x="1590.285949" xlink:href="#mfe565b0a98" y="2052.76"/>
      </g>
     </g>
     <g id="text_7">
      <text style="font-family:DejaVu Sans;font-size:10px;font-stretch:normal;font-style:normal;font-weight:normal;text-anchor:middle;" transform="rotate(-0, 1590.285949, 2067.358438)" x="1590.285949" y="2067.358438">20.0</text>
     </g>
    </g>
    <g id="xtick_8">
     <g id="line2d_8">
      <g>
       <use style="stroke:#000000;stroke-width:0.8;" x="1818.273691" xlink:href="#mfe565b0a98" y="2052.76"/>
      </g>
     </g>
     <g id="text_8">
      <text style="font-family:DejaVu Sans;font-size:10px;font-stretch:normal;font-style:normal;font-weight:normal;text-anchor:middle;" transform="rotate(-0, 1818.273691, 2067.358438)" x="1818.273691" y="2067.358438">22.5</text>
     </g>
    </g>
    <g id="text_9">
     <text style="font-family:DejaVu Sans;font-size:10px;font-stretch:normal;font-style:normal;font-weight:normal;text-anchor:middle;" transform="rotate(-0, 933.68125, 2081.036562)" x="933.68125" y="2081.036562">temperature from WeatherBitIO</text>
    </g>
   </g>
   <g id="matplotlib.axis_2">
    <g id="ytick_1">
     <g id="line2d_9">
      <defs>
       <path d="M 0 0 
L -3.5 0 
" id="m1d091b5f1a" style="stroke:#000000;stroke-width:0.8;"/>
      </defs>
      <g>
       <use style="stroke:#000000;stroke-width:0.8;" x="40.88125" xlink:href="#m1d091b5f1a" y="1982.62037"/>
      </g>
     </g>
     <g id="text_10">
      <text style="font-family:DejaVu Sans;font-size:10px;font-stretch:normal;font-style:normal;font-weight:normal;text-anchor:end;" transform="rotate(-0, 33.88125, 1986.419588)" x="33.88125" y="1986.419588">6</text>
     </g>
    </g>
    <g id="ytick_2">
     <g id="line2d_10">
      <g>
       <use style="stroke:#000000;stroke-width:0.8;" x="40.88125" xlink:href="#m1d091b5f1a" y="1698.826599"/>
      </g>
     </g>
     <g id="text_11">
      <text style="font-family:DejaVu Sans;font-size:10px;font-stretch:normal;font-style:normal;font-weight:normal;text-anchor:end;" transform="rotate(-0, 33.88125, 1702.625817)" x="33.88125" y="1702.625817">7</text>
     </g>
    </g>
    <g id="ytick_3">
     <g id="line2d_11">
      <g>
       <use style="stroke:#000000;stroke-width:0.8;" x="40.88125" xlink:href="#m1d091b5f1a" y="1415.032828"/>
      </g>
     </g>
     <g id="text_12">
      <text style="font-family:DejaVu Sans;font-size:10px;font-stretch:normal;font-style:normal;font-weight:normal;text-anchor:end;" transform="rotate(-0, 33.88125, 1418.832046)" x="33.88125" y="1418.832046">8</text>
     </g>
    </g>
    <g id="ytick_4">
     <g id="line2d_12">
      <g>
       <use style="stroke:#000000;stroke-width:0.8;" x="40.88125" xlink:href="#m1d091b5f1a" y="1131.239057"/>
      </g>
     </g>
     <g id="text_13">
      <text style="font-family:DejaVu Sans;font-size:10px;font-stretch:normal;font-style:normal;font-weight:normal;text-anchor:end;" transform="rotate(-0, 33.88125, 1135.038276)" x="33.88125" y="1135.038276">9</text>
     </g>
    </g>
    <g id="ytick_5">
     <g id="line2d_13">
      <g>
       <use style="stroke:#000000;stroke-width:0.8;" x="40.88125" xlink:href="#m1d091b5f1a" y="847.445286"/>
      </g>
     </g>
     <g id="text_14">
      <text style="font-family:DejaVu Sans;font-size:10px;font-stretch:normal;font-style:normal;font-weight:normal;text-anchor:end;" transform="rotate(-0, 33.88125, 851.244505)" x="33.88125" y="851.244505">10</text>
     </g>
    </g>
    <g id="ytick_6">
     <g id="line2d_14">
      <g>
       <use style="stroke:#000000;stroke-width:0.8;" x="40.88125" xlink:href="#m1d091b5f1a" y="563.651515"/>
      </g>
     </g>
     <g id="text_15">
      <text style="font-family:DejaVu Sans;font-size:10px;font-stretch:normal;font-style:normal;font-weight:normal;text-anchor:end;" transform="rotate(-0, 33.88125, 567.450734)" x="33.88125" y="567.450734">11</text>
     </g>
    </g>
    <g id="ytick_7">
     <g id="line2d_15">
      <g>
       <use style="stroke:#000000;stroke-width:0.8;" x="40.88125" xlink:href="#m1d091b5f1a" y="279.857744"/>
      </g>
     </g>
     <g id="text_16">
      <text style="font-family:DejaVu Sans;font-size:10px;font-stretch:normal;font-style:normal;font-weight:normal;text-anchor:end;" transform="rotate(-0, 33.88125, 283.656963)" x="33.88125" y="283.656963">12</text>
     </g>
    </g>
    <g id="text_17">
     <text style="font-family:DejaVu Sans;font-size:10px;font-stretch:normal;font-style:normal;font-weight:normal;text-anchor:middle;" transform="rotate(-90, 14.798438, 1165.72)" x="14.798438" y="1165.72">ping_night[ms]</text>
    </g>
   </g>
   <g id="line2d_16">
    <path clip-path="url(#pf6c1120ac3)" d="M 122.044886 1780.984895 
L 167.642435 1826.817589 
L 222.359493 1819.438951 
L 277.076551 1774.031948 
L 322.6741 1753.4569 
L 377.391158 1516.489101 
L 422.988707 1302.934288 
L 432.108216 1631.709372 
L 450.347236 1781.69438 
L 459.466745 736.765715 
L 468.586255 1856.190245 
L 477.705765 1649.588379 
L 495.944784 1783.822833 
L 505.064294 1304.920845 
L 514.183804 1618.796755 
L 523.303313 1517.624276 
L 541.542333 1746.220158 
L 550.661842 1478.318839 
L 559.781352 1901.02966 
L 578.020372 1537.206046 
L 587.139881 1627.878156 
L 596.259391 1555.368847 
L 605.378901 779.050987 
L 614.49841 1183.740904 
L 623.61792 1721.5301 
L 650.976449 1663.21048 
L 660.095959 1879.603231 
L 669.215469 1691.447961 
L 678.334978 1735.435995 
L 687.454488 1511.52271 
L 696.573998 1418.722147 
L 705.693507 1353.449579 
L 714.813017 1074.905993 
L 733.052037 1631.851269 
L 742.171546 1749.625684 
L 751.291056 1471.365891 
L 760.410566 1473.352448 
L 769.530075 1864.13647 
L 778.649585 1696.272455 
L 787.769095 1767.646588 
L 806.008114 1704.786268 
L 815.127624 1463.277769 
L 824.247134 1711.739215 
L 833.366643 1601.911026 
L 842.486153 1798.863903 
L 869.844682 1972.12 
L 878.964192 1730.895295 
L 888.083701 1797.303037 
L 897.203211 1848.102122 
L 915.442231 1888.117044 
L 924.56174 1282.501137 
L 933.68125 1741.537561 
L 942.80076 1916.07073 
L 951.920269 1805.958747 
L 961.039779 1583.03874 
L 970.159289 1104.136752 
L 979.278799 1563.173176 
L 988.398308 1548.132106 
L 997.517818 1710.745937 
L 1006.637328 1671.582397 
L 1024.876347 1840.014 
L 1033.995857 1576.369586 
L 1043.115366 1449.797565 
L 1052.234876 1507.265803 
L 1070.473896 1367.07168 
L 1079.593405 1444.54738 
L 1106.951934 1353.449579 
L 1116.071444 1283.778209 
L 1134.310463 1460.723625 
L 1152.549483 1653.987183 
L 1170.788502 1635.256794 
L 1189.027522 1406.093324 
L 1198.147031 1736.429273 
L 1207.266541 1536.496562 
L 1216.386051 1560.335238 
L 1234.62507 1593.822903 
L 1243.74458 1480.447292 
L 1261.983599 1732.314264 
L 1271.103109 1854.913173 
L 1280.222619 983.382502 
L 1289.342128 1317.975358 
L 1298.461638 1403.113489 
L 1307.581148 1596.944635 
L 1316.700658 1366.787887 
L 1334.939677 1435.465979 
L 1353.178696 1755.159662 
L 1371.417716 1326.631068 
L 1389.656735 1278.24423 
L 1398.776245 1038.864184 
L 1435.254284 359.32 
L 1444.373793 1571.686989 
L 1517.329871 935.988942 
L 1599.405458 1763.247785 
L 1745.317614 754.219032 
" style="fill:none;stroke:#0000ff;stroke-linecap:square;stroke-width:1.5;"/>
   </g>
   <g id="patch_3">
    <path d="M 40.88125 2052.76 
L 40.88125 278.68 
" style="fill:none;stroke:#000000;stroke-linecap:square;stroke-linejoin:miter;stroke-width:0.8;"/>
   </g>
   <g id="patch_4">
    <path d="M 1826.48125 2052.76 
L 1826.48125 278.68 
" style="fill:none;stroke:#000000;stroke-linecap:square;stroke-linejoin:miter;stroke-width:0.8;"/>
   </g>
   <g id="patch_5">
    <path d="M 40.88125 2052.76 
L 1826.48125 2052.76 
" style="fill:none;stroke:#000000;stroke-linecap:square;stroke-linejoin:miter;stroke-width:0.8;"/>
   </g>
   <g id="patch_6">
    <path d="M 40.88125 278.68 
L 1826.48125 278.68 
" style="fill:none;stroke:#000000;stroke-linecap:square;stroke-linejoin:miter;stroke-width:0.8;"/>
   </g>
   <g id="text_18">
    <text style="font-family:DejaVu Sans;font-size:12px;font-stretch:normal;font-style:normal;font-weight:normal;text-anchor:middle;" transform="rotate(-0, 933.68125, 272.68)" x="933.68125" y="272.68">temperature-&gt;ping_night</text>
   </g>
  </g>
  <g id="legend_1">
   <g id="patch_7">
    <path d="M 1944.79375 22.95625 
L 2052.08125 22.95625 
Q 2054.08125 22.95625 2054.08125 20.95625 
L 2054.08125 7 
Q 2054.08125 5 2052.08125 5 
L 1944.79375 5 
Q 1942.79375 5 1942.79375 7 
L 1942.79375 20.95625 
Q 1942.79375 22.95625 1944.79375 22.95625 
z
" style="fill:#ffffff;opacity:0.8;stroke:#cccccc;stroke-linejoin:miter;"/>
   </g>
   <g id="line2d_17">
    <path d="M 1946.79375 13.098438 
L 1966.79375 13.098438 
" style="fill:none;stroke:#0000ff;stroke-linecap:square;stroke-width:1.5;"/>
   </g>
   <g id="line2d_18"/>
   <g id="text_19">
    <text style="font-family:DejaVu Sans;font-size:10px;font-stretch:normal;font-style:normal;font-weight:normal;text-anchor:start;" transform="rotate(-0, 1974.79375, 16.598438)" x="1974.79375" y="16.598438">ping_night[ms]</text>
   </g>
  </g>
 </g>
 <defs>
  <clipPath id="pf6c1120ac3">
   <rect height="1774.08" width="1785.6" x="40.88125" y="278.68"/>
  </clipPath>
 </defs>
</svg>
