<?xml version="1.0" encoding="utf-8" standalone="no"?>
<!DOCTYPE svg PUBLIC "-//W3C//DTD SVG 1.1//EN"
  "http://www.w3.org/Graphics/SVG/1.1/DTD/svg11.dtd">
<!-- Created with matplotlib (https://matplotlib.org/) -->
<svg height="2090.31625pt" version="1.1" viewBox="0 0 2065.44375 2090.31625" width="2065.44375pt" xmlns="http://www.w3.org/2000/svg" xmlns:xlink="http://www.w3.org/1999/xlink">
 <metadata>
  <rdf:RDF xmlns:cc="http://creativecommons.org/ns#" xmlns:dc="http://purl.org/dc/elements/1.1/" xmlns:rdf="http://www.w3.org/1999/02/22-rdf-syntax-ns#">
   <cc:Work>
    <dc:type rdf:resource="http://purl.org/dc/dcmitype/StillImage"/>
    <dc:date>2022-07-23T21:27:13.473087</dc:date>
    <dc:format>image/svg+xml</dc:format>
    <dc:creator>
     <cc:Agent>
      <dc:title>Matplotlib v3.3.2, https://matplotlib.org/</dc:title>
     </cc:Agent>
    </dc:creator>
   </cc:Work>
  </rdf:RDF>
 </metadata>
 <defs>
  <style type="text/css">*{stroke-linecap:butt;stroke-linejoin:round;}</style>
 </defs>
 <g id="figure_1">
  <g id="patch_1">
   <path d="M 0 2090.31625 
L 2065.44375 2090.31625 
L 2065.44375 0 
L 0 0 
z
" style="fill:#ffffff;"/>
  </g>
  <g id="axes_1">
   <g id="patch_2">
    <path d="M 47.24375 2052.76 
L 1832.84375 2052.76 
L 1832.84375 278.68 
L 47.24375 278.68 
z
" style="fill:#ffffff;"/>
   </g>
   <g id="matplotlib.axis_1">
    <g id="xtick_1">
     <g id="line2d_1">
      <defs>
       <path d="M 0 0 
L 0 3.5 
" id="m71784555fb" style="stroke:#000000;stroke-width:0.8;"/>
      </defs>
      <g>
       <use style="stroke:#000000;stroke-width:0.8;" x="109.458677" xlink:href="#m71784555fb" y="2052.76"/>
      </g>
     </g>
     <g id="text_1">
      <text style="font-family:DejaVu Sans;font-size:10px;font-stretch:normal;font-style:normal;font-weight:normal;text-anchor:middle;" transform="rotate(-0, 109.458677, 2067.358438)" x="109.458677" y="2067.358438">5</text>
     </g>
    </g>
    <g id="xtick_2">
     <g id="line2d_2">
      <g>
       <use style="stroke:#000000;stroke-width:0.8;" x="425.270492" xlink:href="#m71784555fb" y="2052.76"/>
      </g>
     </g>
     <g id="text_2">
      <text style="font-family:DejaVu Sans;font-size:10px;font-stretch:normal;font-style:normal;font-weight:normal;text-anchor:middle;" transform="rotate(-0, 425.270492, 2067.358438)" x="425.270492" y="2067.358438">10</text>
     </g>
    </g>
    <g id="xtick_3">
     <g id="line2d_3">
      <g>
       <use style="stroke:#000000;stroke-width:0.8;" x="741.082307" xlink:href="#m71784555fb" y="2052.76"/>
      </g>
     </g>
     <g id="text_3">
      <text style="font-family:DejaVu Sans;font-size:10px;font-stretch:normal;font-style:normal;font-weight:normal;text-anchor:middle;" transform="rotate(-0, 741.082307, 2067.358438)" x="741.082307" y="2067.358438">15</text>
     </g>
    </g>
    <g id="xtick_4">
     <g id="line2d_4">
      <g>
       <use style="stroke:#000000;stroke-width:0.8;" x="1056.894121" xlink:href="#m71784555fb" y="2052.76"/>
      </g>
     </g>
     <g id="text_4">
      <text style="font-family:DejaVu Sans;font-size:10px;font-stretch:normal;font-style:normal;font-weight:normal;text-anchor:middle;" transform="rotate(-0, 1056.894121, 2067.358438)" x="1056.894121" y="2067.358438">20</text>
     </g>
    </g>
    <g id="xtick_5">
     <g id="line2d_5">
      <g>
       <use style="stroke:#000000;stroke-width:0.8;" x="1372.705936" xlink:href="#m71784555fb" y="2052.76"/>
      </g>
     </g>
     <g id="text_5">
      <text style="font-family:DejaVu Sans;font-size:10px;font-stretch:normal;font-style:normal;font-weight:normal;text-anchor:middle;" transform="rotate(-0, 1372.705936, 2067.358438)" x="1372.705936" y="2067.358438">25</text>
     </g>
    </g>
    <g id="xtick_6">
     <g id="line2d_6">
      <g>
       <use style="stroke:#000000;stroke-width:0.8;" x="1688.517751" xlink:href="#m71784555fb" y="2052.76"/>
      </g>
     </g>
     <g id="text_6">
      <text style="font-family:DejaVu Sans;font-size:10px;font-stretch:normal;font-style:normal;font-weight:normal;text-anchor:middle;" transform="rotate(-0, 1688.517751, 2067.358438)" x="1688.517751" y="2067.358438">30</text>
     </g>
    </g>
    <g id="text_7">
     <text style="font-family:DejaVu Sans;font-size:10px;font-stretch:normal;font-style:normal;font-weight:normal;text-anchor:middle;" transform="rotate(-0, 940.04375, 2081.036562)" x="940.04375" y="2081.036562">temperature from BuienRadar</text>
    </g>
   </g>
   <g id="matplotlib.axis_2">
    <g id="ytick_1">
     <g id="line2d_7">
      <defs>
       <path d="M 0 0 
L -3.5 0 
" id="m27b2e36411" style="stroke:#000000;stroke-width:0.8;"/>
      </defs>
      <g>
       <use style="stroke:#000000;stroke-width:0.8;" x="47.24375" xlink:href="#m27b2e36411" y="2013.473846"/>
      </g>
     </g>
     <g id="text_8">
      <text style="font-family:DejaVu Sans;font-size:10px;font-stretch:normal;font-style:normal;font-weight:normal;text-anchor:end;" transform="rotate(-0, 40.24375, 2017.273065)" x="40.24375" y="2017.273065">100</text>
     </g>
    </g>
    <g id="ytick_2">
     <g id="line2d_8">
      <g>
       <use style="stroke:#000000;stroke-width:0.8;" x="47.24375" xlink:href="#m27b2e36411" y="1695.367337"/>
      </g>
     </g>
     <g id="text_9">
      <text style="font-family:DejaVu Sans;font-size:10px;font-stretch:normal;font-style:normal;font-weight:normal;text-anchor:end;" transform="rotate(-0, 40.24375, 1699.166556)" x="40.24375" y="1699.166556">200</text>
     </g>
    </g>
    <g id="ytick_3">
     <g id="line2d_9">
      <g>
       <use style="stroke:#000000;stroke-width:0.8;" x="47.24375" xlink:href="#m27b2e36411" y="1377.260828"/>
      </g>
     </g>
     <g id="text_10">
      <text style="font-family:DejaVu Sans;font-size:10px;font-stretch:normal;font-style:normal;font-weight:normal;text-anchor:end;" transform="rotate(-0, 40.24375, 1381.060047)" x="40.24375" y="1381.060047">300</text>
     </g>
    </g>
    <g id="ytick_4">
     <g id="line2d_10">
      <g>
       <use style="stroke:#000000;stroke-width:0.8;" x="47.24375" xlink:href="#m27b2e36411" y="1059.15432"/>
      </g>
     </g>
     <g id="text_11">
      <text style="font-family:DejaVu Sans;font-size:10px;font-stretch:normal;font-style:normal;font-weight:normal;text-anchor:end;" transform="rotate(-0, 40.24375, 1062.953538)" x="40.24375" y="1062.953538">400</text>
     </g>
    </g>
    <g id="ytick_5">
     <g id="line2d_11">
      <g>
       <use style="stroke:#000000;stroke-width:0.8;" x="47.24375" xlink:href="#m27b2e36411" y="741.047811"/>
      </g>
     </g>
     <g id="text_12">
      <text style="font-family:DejaVu Sans;font-size:10px;font-stretch:normal;font-style:normal;font-weight:normal;text-anchor:end;" transform="rotate(-0, 40.24375, 744.847029)" x="40.24375" y="744.847029">500</text>
     </g>
    </g>
    <g id="ytick_6">
     <g id="line2d_12">
      <g>
       <use style="stroke:#000000;stroke-width:0.8;" x="47.24375" xlink:href="#m27b2e36411" y="422.941302"/>
      </g>
     </g>
     <g id="text_13">
      <text style="font-family:DejaVu Sans;font-size:10px;font-stretch:normal;font-style:normal;font-weight:normal;text-anchor:end;" transform="rotate(-0, 40.24375, 426.740521)" x="40.24375" y="426.740521">600</text>
     </g>
    </g>
    <g id="text_14">
     <text style="font-family:DejaVu Sans;font-size:10px;font-stretch:normal;font-style:normal;font-weight:normal;text-anchor:middle;" transform="rotate(-90, 14.798438, 1165.72)" x="14.798438" y="1165.72">Retransmission_day[dimensionless]</text>
    </g>
   </g>
   <g id="line2d_13">
    <path clip-path="url(#peb035b5ae8)" d="M 128.407386 1493.369704 
L 141.039859 1351.812308 
L 147.356095 1502.912899 
L 159.988568 1281.828876 
L 166.304804 1250.018225 
L 172.62104 1463.149586 
L 197.885986 838.070296 
L 216.834694 1356.583905 
L 223.150931 1157.767337 
L 229.467167 1168.901065 
L 235.783403 1407.480947 
L 248.415876 1065.51645 
L 254.732112 1423.386272 
L 261.048349 1374.079763 
L 267.364585 1469.511716 
L 273.680821 1404.299882 
L 279.997057 1076.650178 
L 292.62953 1396.347219 
L 298.945766 1358.174438 
L 311.578239 1285.009941 
L 317.894475 1526.770888 
L 324.210711 1356.583905 
L 330.526948 1259.56142 
L 336.843184 881.014675 
L 343.15942 1297.734201 
L 349.475657 1420.205207 
L 355.791893 1426.567337 
L 362.108129 1456.787456 
L 374.740602 1348.631243 
L 381.056838 1424.976805 
L 387.373074 1428.15787 
L 393.689311 1595.163787 
L 400.005547 1679.462012 
L 406.321783 1483.826509 
L 412.63802 1501.322367 
L 418.954256 1154.586272 
L 425.270492 1518.818225 
L 431.586728 1302.505799 
L 437.902965 1285.009941 
L 444.219201 1374.079763 
L 450.535437 1424.976805 
L 456.851674 1320.001657 
L 463.16791 1386.804024 
L 469.484146 1313.639527 
L 475.800382 1386.804024 
L 482.116619 1469.511716 
L 488.432855 1584.030059 
L 494.749091 1444.063195 
L 501.065328 1459.968521 
L 507.381564 1426.567337 
L 513.6978 1487.007574 
L 520.014037 1455.196923 
L 526.330273 1418.614675 
L 532.646509 1770.122367 
L 538.962745 1337.497515 
L 545.278982 1488.598107 
L 551.595218 1677.871479 
L 557.911454 1700.138935 
L 564.227691 1358.174438 
L 570.543927 1477.464379 
L 576.860163 1501.322367 
L 583.176399 1304.096331 
L 589.492636 1868.735385 
L 595.808872 1501.322367 
L 602.125108 1393.166154 
L 608.441345 1450.425325 
L 614.757581 1504.503432 
L 621.073817 1615.84071 
L 627.390054 1230.931834 
L 633.70629 1335.906982 
L 640.022526 1475.873846 
L 646.338762 1294.553136 
L 652.654999 1442.472663 
L 665.287471 1458.377988 
L 671.603708 1345.450178 
L 677.919944 1358.174438 
L 684.23618 1450.425325 
L 690.552416 1434.52 
L 696.868653 1499.731834 
L 703.184889 1402.709349 
L 709.501125 1552.219408 
L 715.817362 1806.704615 
L 722.133598 1708.091598 
L 728.449834 1501.322367 
L 734.76607 1622.20284 
L 741.082307 1523.589822 
L 747.398543 1529.951953 
L 753.714779 1676.280947 
L 760.031016 1642.879763 
L 766.347252 1517.227692 
L 772.663488 1619.021775 
L 778.979725 1552.219408 
L 785.295961 1447.24426 
L 791.612197 1921.222959 
L 797.928433 1660.375621 
L 804.24467 1469.511716 
L 810.560906 1504.503432 
L 816.877142 1587.211124 
L 823.193379 1469.511716 
L 829.509615 1490.188639 
L 835.825851 1685.824142 
L 842.142087 1488.598107 
L 848.458324 1501.322367 
L 854.77456 1424.976805 
L 861.090796 1507.684497 
L 867.407033 1467.921183 
L 873.723269 1577.667929 
L 880.039505 1526.770888 
L 886.355742 1472.692781 
L 892.671978 1482.235976 
L 898.988214 1490.188639 
L 905.30445 1456.787456 
L 911.620687 1512.456095 
L 917.936923 1485.417041 
L 924.253159 1606.297515 
L 930.569396 1539.495148 
L 936.885632 1536.314083 
L 949.518104 1402.709349 
L 955.834341 1463.149586 
L 962.150577 1420.205207 
L 968.466813 1448.834793 
L 974.78305 1539.495148 
L 981.099286 1385.213491 
L 987.415522 1424.976805 
L 993.731758 1453.606391 
L 1000.047995 1402.709349 
L 1006.364231 1431.338935 
L 1012.680467 1415.433609 
L 1018.996704 1459.968521 
L 1025.31294 1412.252544 
L 1031.629176 1472.692781 
L 1037.945413 1450.425325 
L 1044.261649 1453.606391 
L 1050.577885 1491.779172 
L 1056.894121 1431.338935 
L 1063.210358 1415.433609 
L 1069.526594 1412.252544 
L 1075.84283 1458.377988 
L 1082.159067 1498.141302 
L 1088.475303 1358.174438 
L 1094.791539 1428.15787 
L 1101.107775 1499.731834 
L 1107.424012 1417.024142 
L 1113.740248 1421.79574 
L 1120.056484 1385.213491 
L 1126.372721 1450.425325 
L 1132.688957 1367.717633 
L 1139.005193 1377.260828 
L 1145.32143 1401.118817 
L 1151.637666 1374.079763 
L 1157.953902 1396.347219 
L 1164.270138 1504.503432 
L 1170.586375 1386.804024 
L 1176.902611 1377.260828 
L 1183.218847 1501.322367 
L 1189.535084 1300.915266 
L 1195.85132 1453.606391 
L 1202.167556 1412.252544 
L 1208.483792 1429.748402 
L 1214.800029 1466.330651 
L 1221.116265 1389.985089 
L 1227.432501 1262.742485 
L 1233.748738 1307.277396 
L 1240.064974 1259.56142 
L 1246.38121 1183.215858 
L 1252.697446 1679.462012 
L 1259.013683 1517.227692 
L 1265.329919 1195.940118 
L 1271.646155 1475.873846 
L 1277.962392 1393.166154 
L 1284.278628 1348.631243 
L 1290.594864 1358.174438 
L 1296.911101 1746.264379 
L 1303.227337 1397.937751 
L 1309.543573 1428.15787 
L 1315.859809 1307.277396 
L 1322.176046 1537.904615 
L 1328.492282 1507.684497 
L 1334.808518 1222.979172 
L 1341.124755 1444.063195 
L 1347.440991 1323.182722 
L 1353.757227 1479.054911 
L 1360.073463 1421.79574 
L 1366.3897 1523.589822 
L 1372.705936 1439.291598 
L 1379.022172 1469.511716 
L 1385.338409 1730.359053 
L 1391.654645 1563.353136 
L 1397.970881 1426.567337 
L 1404.287118 1501.322367 
L 1410.603354 1402.709349 
L 1416.91959 1329.544852 
L 1423.235826 1329.544852 
L 1429.552063 1267.514083 
L 1435.868299 1354.993373 
L 1442.184535 1619.021775 
L 1448.500772 1817.838343 
L 1454.817008 1972.12 
L 1461.133244 1873.506982 
L 1467.44948 1542.676213 
L 1473.765717 1962.576805 
L 1480.081953 1517.227692 
L 1486.398189 1510.865562 
L 1492.714426 1359.76497 
L 1499.030662 1800.342485 
L 1505.346898 1606.297515 
L 1511.663135 1940.309349 
L 1536.92808 842.841893 
L 1543.244316 1308.867929 
L 1568.509261 1250.018225 
L 1574.825497 1084.60284 
L 1587.45797 1062.335385 
L 1593.774206 1257.970888 
L 1606.406679 1079.831243 
L 1612.722915 359.32 
L 1644.304097 1361.355503 
L 1656.936569 1304.096331 
L 1663.252806 1389.985089 
L 1669.569042 1533.133018 
L 1688.517751 1424.976805 
L 1694.833987 1281.828876 
L 1701.150223 1218.207574 
L 1707.46646 1240.47503 
L 1720.098932 908.053728 
L 1726.415168 1351.812308 
L 1732.731405 1087.783905 
L 1739.047641 1146.633609 
L 1745.363877 1238.884497 
L 1751.680114 1440.88213 
L 1751.680114 1440.88213 
" style="fill:none;stroke:#0000ff;stroke-linecap:square;stroke-width:1.5;"/>
   </g>
   <g id="patch_3">
    <path d="M 47.24375 2052.76 
L 47.24375 278.68 
" style="fill:none;stroke:#000000;stroke-linecap:square;stroke-linejoin:miter;stroke-width:0.8;"/>
   </g>
   <g id="patch_4">
    <path d="M 1832.84375 2052.76 
L 1832.84375 278.68 
" style="fill:none;stroke:#000000;stroke-linecap:square;stroke-linejoin:miter;stroke-width:0.8;"/>
   </g>
   <g id="patch_5">
    <path d="M 47.24375 2052.76 
L 1832.84375 2052.76 
" style="fill:none;stroke:#000000;stroke-linecap:square;stroke-linejoin:miter;stroke-width:0.8;"/>
   </g>
   <g id="patch_6">
    <path d="M 47.24375 278.68 
L 1832.84375 278.68 
" style="fill:none;stroke:#000000;stroke-linecap:square;stroke-linejoin:miter;stroke-width:0.8;"/>
   </g>
   <g id="text_15">
    <text style="font-family:DejaVu Sans;font-size:12px;font-stretch:normal;font-style:normal;font-weight:normal;text-anchor:middle;" transform="rotate(-0, 940.04375, 272.68)" x="940.04375" y="272.68">temperature-&gt;Retransmission_day</text>
   </g>
  </g>
  <g id="legend_1">
   <g id="patch_7">
    <path d="M 1847.564062 22.95625 
L 2058.44375 22.95625 
Q 2060.44375 22.95625 2060.44375 20.95625 
L 2060.44375 7 
Q 2060.44375 5 2058.44375 5 
L 1847.564062 5 
Q 1845.564062 5 1845.564062 7 
L 1845.564062 20.95625 
Q 1845.564062 22.95625 1847.564062 22.95625 
z
" style="fill:#ffffff;opacity:0.8;stroke:#cccccc;stroke-linejoin:miter;"/>
   </g>
   <g id="line2d_14">
    <path d="M 1849.564062 13.098438 
L 1869.564062 13.098438 
" style="fill:none;stroke:#0000ff;stroke-linecap:square;stroke-width:1.5;"/>
   </g>
   <g id="line2d_15"/>
   <g id="text_16">
    <text style="font-family:DejaVu Sans;font-size:10px;font-stretch:normal;font-style:normal;font-weight:normal;text-anchor:start;" transform="rotate(-0, 1877.564062, 16.598438)" x="1877.564062" y="16.598438">Retransmission_day[dimensionless]</text>
   </g>
  </g>
 </g>
 <defs>
  <clipPath id="peb035b5ae8">
   <rect height="1774.08" width="1785.6" x="47.24375" y="278.68"/>
  </clipPath>
 </defs>
</svg>
