<?xml version="1.0" encoding="utf-8" standalone="no"?>
<!DOCTYPE svg PUBLIC "-//W3C//DTD SVG 1.1//EN"
  "http://www.w3.org/Graphics/SVG/1.1/DTD/svg11.dtd">
<!-- Created with matplotlib (https://matplotlib.org/) -->
<svg height="345.6pt" version="1.1" viewBox="0 0 460.8 345.6" width="460.8pt" xmlns="http://www.w3.org/2000/svg" xmlns:xlink="http://www.w3.org/1999/xlink">
 <metadata>
  <rdf:RDF xmlns:cc="http://creativecommons.org/ns#" xmlns:dc="http://purl.org/dc/elements/1.1/" xmlns:rdf="http://www.w3.org/1999/02/22-rdf-syntax-ns#">
   <cc:Work>
    <dc:type rdf:resource="http://purl.org/dc/dcmitype/StillImage"/>
    <dc:date>2022-07-16T22:28:36.832363</dc:date>
    <dc:format>image/svg+xml</dc:format>
    <dc:creator>
     <cc:Agent>
      <dc:title>Matplotlib v3.3.2, https://matplotlib.org/</dc:title>
     </cc:Agent>
    </dc:creator>
   </cc:Work>
  </rdf:RDF>
 </metadata>
 <defs>
  <style type="text/css">*{stroke-linecap:butt;stroke-linejoin:round;}</style>
 </defs>
 <g id="figure_1">
  <g id="patch_1">
   <path d="M 0 345.6 
L 460.8 345.6 
L 460.8 0 
L 0 0 
z
" style="fill:#ffffff;"/>
  </g>
  <g id="axes_1">
   <g id="patch_2">
    <path d="M 57.6 307.584 
L 414.72 307.584 
L 414.72 41.472 
L 57.6 41.472 
z
" style="fill:#ffffff;"/>
   </g>
   <g id="matplotlib.axis_1">
    <g id="xtick_1">
     <g id="line2d_1">
      <defs>
       <path d="M 0 0 
L 0 3.5 
" id="m5fa616b6d8" style="stroke:#000000;stroke-width:0.8;"/>
      </defs>
      <g>
       <use style="stroke:#000000;stroke-width:0.8;" x="111.00081" xlink:href="#m5fa616b6d8" y="307.584"/>
      </g>
     </g>
     <g id="text_1">
      <!-- 10 -->
      <g transform="translate(104.63831 322.182437)scale(0.1 -0.1)">
       <defs>
        <path d="M 12.40625 8.296875 
L 28.515625 8.296875 
L 28.515625 63.921875 
L 10.984375 60.40625 
L 10.984375 69.390625 
L 28.421875 72.90625 
L 38.28125 72.90625 
L 38.28125 8.296875 
L 54.390625 8.296875 
L 54.390625 0 
L 12.40625 0 
z
" id="DejaVuSans-49"/>
        <path d="M 31.78125 66.40625 
Q 24.171875 66.40625 20.328125 58.90625 
Q 16.5 51.421875 16.5 36.375 
Q 16.5 21.390625 20.328125 13.890625 
Q 24.171875 6.390625 31.78125 6.390625 
Q 39.453125 6.390625 43.28125 13.890625 
Q 47.125 21.390625 47.125 36.375 
Q 47.125 51.421875 43.28125 58.90625 
Q 39.453125 66.40625 31.78125 66.40625 
z
M 31.78125 74.21875 
Q 44.046875 74.21875 50.515625 64.515625 
Q 56.984375 54.828125 56.984375 36.375 
Q 56.984375 17.96875 50.515625 8.265625 
Q 44.046875 -1.421875 31.78125 -1.421875 
Q 19.53125 -1.421875 13.0625 8.265625 
Q 6.59375 17.96875 6.59375 36.375 
Q 6.59375 54.828125 13.0625 64.515625 
Q 19.53125 74.21875 31.78125 74.21875 
z
" id="DejaVuSans-48"/>
       </defs>
       <use xlink:href="#DejaVuSans-49"/>
       <use x="63.623047" xlink:href="#DejaVuSans-48"/>
      </g>
     </g>
    </g>
    <g id="xtick_2">
     <g id="line2d_2">
      <g>
       <use style="stroke:#000000;stroke-width:0.8;" x="177.610278" xlink:href="#m5fa616b6d8" y="307.584"/>
      </g>
     </g>
     <g id="text_2">
      <!-- 15 -->
      <g transform="translate(171.247778 322.182437)scale(0.1 -0.1)">
       <defs>
        <path d="M 10.796875 72.90625 
L 49.515625 72.90625 
L 49.515625 64.59375 
L 19.828125 64.59375 
L 19.828125 46.734375 
Q 21.96875 47.46875 24.109375 47.828125 
Q 26.265625 48.1875 28.421875 48.1875 
Q 40.625 48.1875 47.75 41.5 
Q 54.890625 34.8125 54.890625 23.390625 
Q 54.890625 11.625 47.5625 5.09375 
Q 40.234375 -1.421875 26.90625 -1.421875 
Q 22.3125 -1.421875 17.546875 -0.640625 
Q 12.796875 0.140625 7.71875 1.703125 
L 7.71875 11.625 
Q 12.109375 9.234375 16.796875 8.0625 
Q 21.484375 6.890625 26.703125 6.890625 
Q 35.15625 6.890625 40.078125 11.328125 
Q 45.015625 15.765625 45.015625 23.390625 
Q 45.015625 31 40.078125 35.4375 
Q 35.15625 39.890625 26.703125 39.890625 
Q 22.75 39.890625 18.8125 39.015625 
Q 14.890625 38.140625 10.796875 36.28125 
z
" id="DejaVuSans-53"/>
       </defs>
       <use xlink:href="#DejaVuSans-49"/>
       <use x="63.623047" xlink:href="#DejaVuSans-53"/>
      </g>
     </g>
    </g>
    <g id="xtick_3">
     <g id="line2d_3">
      <g>
       <use style="stroke:#000000;stroke-width:0.8;" x="244.219746" xlink:href="#m5fa616b6d8" y="307.584"/>
      </g>
     </g>
     <g id="text_3">
      <!-- 20 -->
      <g transform="translate(237.857246 322.182437)scale(0.1 -0.1)">
       <defs>
        <path d="M 19.1875 8.296875 
L 53.609375 8.296875 
L 53.609375 0 
L 7.328125 0 
L 7.328125 8.296875 
Q 12.9375 14.109375 22.625 23.890625 
Q 32.328125 33.6875 34.8125 36.53125 
Q 39.546875 41.84375 41.421875 45.53125 
Q 43.3125 49.21875 43.3125 52.78125 
Q 43.3125 58.59375 39.234375 62.25 
Q 35.15625 65.921875 28.609375 65.921875 
Q 23.96875 65.921875 18.8125 64.3125 
Q 13.671875 62.703125 7.8125 59.421875 
L 7.8125 69.390625 
Q 13.765625 71.78125 18.9375 73 
Q 24.125 74.21875 28.421875 74.21875 
Q 39.75 74.21875 46.484375 68.546875 
Q 53.21875 62.890625 53.21875 53.421875 
Q 53.21875 48.921875 51.53125 44.890625 
Q 49.859375 40.875 45.40625 35.40625 
Q 44.1875 33.984375 37.640625 27.21875 
Q 31.109375 20.453125 19.1875 8.296875 
z
" id="DejaVuSans-50"/>
       </defs>
       <use xlink:href="#DejaVuSans-50"/>
       <use x="63.623047" xlink:href="#DejaVuSans-48"/>
      </g>
     </g>
    </g>
    <g id="xtick_4">
     <g id="line2d_4">
      <g>
       <use style="stroke:#000000;stroke-width:0.8;" x="310.829213" xlink:href="#m5fa616b6d8" y="307.584"/>
      </g>
     </g>
     <g id="text_4">
      <!-- 25 -->
      <g transform="translate(304.466713 322.182437)scale(0.1 -0.1)">
       <use xlink:href="#DejaVuSans-50"/>
       <use x="63.623047" xlink:href="#DejaVuSans-53"/>
      </g>
     </g>
    </g>
    <g id="xtick_5">
     <g id="line2d_5">
      <g>
       <use style="stroke:#000000;stroke-width:0.8;" x="377.438681" xlink:href="#m5fa616b6d8" y="307.584"/>
      </g>
     </g>
     <g id="text_5">
      <!-- 30 -->
      <g transform="translate(371.076181 322.182437)scale(0.1 -0.1)">
       <defs>
        <path d="M 40.578125 39.3125 
Q 47.65625 37.796875 51.625 33 
Q 55.609375 28.21875 55.609375 21.1875 
Q 55.609375 10.40625 48.1875 4.484375 
Q 40.765625 -1.421875 27.09375 -1.421875 
Q 22.515625 -1.421875 17.65625 -0.515625 
Q 12.796875 0.390625 7.625 2.203125 
L 7.625 11.71875 
Q 11.71875 9.328125 16.59375 8.109375 
Q 21.484375 6.890625 26.8125 6.890625 
Q 36.078125 6.890625 40.9375 10.546875 
Q 45.796875 14.203125 45.796875 21.1875 
Q 45.796875 27.640625 41.28125 31.265625 
Q 36.765625 34.90625 28.71875 34.90625 
L 20.21875 34.90625 
L 20.21875 43.015625 
L 29.109375 43.015625 
Q 36.375 43.015625 40.234375 45.921875 
Q 44.09375 48.828125 44.09375 54.296875 
Q 44.09375 59.90625 40.109375 62.90625 
Q 36.140625 65.921875 28.71875 65.921875 
Q 24.65625 65.921875 20.015625 65.03125 
Q 15.375 64.15625 9.8125 62.3125 
L 9.8125 71.09375 
Q 15.4375 72.65625 20.34375 73.4375 
Q 25.25 74.21875 29.59375 74.21875 
Q 40.828125 74.21875 47.359375 69.109375 
Q 53.90625 64.015625 53.90625 55.328125 
Q 53.90625 49.265625 50.4375 45.09375 
Q 46.96875 40.921875 40.578125 39.3125 
z
" id="DejaVuSans-51"/>
       </defs>
       <use xlink:href="#DejaVuSans-51"/>
       <use x="63.623047" xlink:href="#DejaVuSans-48"/>
      </g>
     </g>
    </g>
    <g id="text_6">
     <!-- temperature from OpenWeatherMap -->
     <g transform="translate(144.963906 335.860562)scale(0.1 -0.1)">
      <defs>
       <path d="M 18.3125 70.21875 
L 18.3125 54.6875 
L 36.8125 54.6875 
L 36.8125 47.703125 
L 18.3125 47.703125 
L 18.3125 18.015625 
Q 18.3125 11.328125 20.140625 9.421875 
Q 21.96875 7.515625 27.59375 7.515625 
L 36.8125 7.515625 
L 36.8125 0 
L 27.59375 0 
Q 17.1875 0 13.234375 3.875 
Q 9.28125 7.765625 9.28125 18.015625 
L 9.28125 47.703125 
L 2.6875 47.703125 
L 2.6875 54.6875 
L 9.28125 54.6875 
L 9.28125 70.21875 
z
" id="DejaVuSans-116"/>
       <path d="M 56.203125 29.59375 
L 56.203125 25.203125 
L 14.890625 25.203125 
Q 15.484375 15.921875 20.484375 11.0625 
Q 25.484375 6.203125 34.421875 6.203125 
Q 39.59375 6.203125 44.453125 7.46875 
Q 49.3125 8.734375 54.109375 11.28125 
L 54.109375 2.78125 
Q 49.265625 0.734375 44.1875 -0.34375 
Q 39.109375 -1.421875 33.890625 -1.421875 
Q 20.796875 -1.421875 13.15625 6.1875 
Q 5.515625 13.8125 5.515625 26.8125 
Q 5.515625 40.234375 12.765625 48.109375 
Q 20.015625 56 32.328125 56 
Q 43.359375 56 49.78125 48.890625 
Q 56.203125 41.796875 56.203125 29.59375 
z
M 47.21875 32.234375 
Q 47.125 39.59375 43.09375 43.984375 
Q 39.0625 48.390625 32.421875 48.390625 
Q 24.90625 48.390625 20.390625 44.140625 
Q 15.875 39.890625 15.1875 32.171875 
z
" id="DejaVuSans-101"/>
       <path d="M 52 44.1875 
Q 55.375 50.25 60.0625 53.125 
Q 64.75 56 71.09375 56 
Q 79.640625 56 84.28125 50.015625 
Q 88.921875 44.046875 88.921875 33.015625 
L 88.921875 0 
L 79.890625 0 
L 79.890625 32.71875 
Q 79.890625 40.578125 77.09375 44.375 
Q 74.3125 48.1875 68.609375 48.1875 
Q 61.625 48.1875 57.5625 43.546875 
Q 53.515625 38.921875 53.515625 30.90625 
L 53.515625 0 
L 44.484375 0 
L 44.484375 32.71875 
Q 44.484375 40.625 41.703125 44.40625 
Q 38.921875 48.1875 33.109375 48.1875 
Q 26.21875 48.1875 22.15625 43.53125 
Q 18.109375 38.875 18.109375 30.90625 
L 18.109375 0 
L 9.078125 0 
L 9.078125 54.6875 
L 18.109375 54.6875 
L 18.109375 46.1875 
Q 21.1875 51.21875 25.484375 53.609375 
Q 29.78125 56 35.6875 56 
Q 41.65625 56 45.828125 52.96875 
Q 50 49.953125 52 44.1875 
z
" id="DejaVuSans-109"/>
       <path d="M 18.109375 8.203125 
L 18.109375 -20.796875 
L 9.078125 -20.796875 
L 9.078125 54.6875 
L 18.109375 54.6875 
L 18.109375 46.390625 
Q 20.953125 51.265625 25.265625 53.625 
Q 29.59375 56 35.59375 56 
Q 45.5625 56 51.78125 48.09375 
Q 58.015625 40.1875 58.015625 27.296875 
Q 58.015625 14.40625 51.78125 6.484375 
Q 45.5625 -1.421875 35.59375 -1.421875 
Q 29.59375 -1.421875 25.265625 0.953125 
Q 20.953125 3.328125 18.109375 8.203125 
z
M 48.6875 27.296875 
Q 48.6875 37.203125 44.609375 42.84375 
Q 40.53125 48.484375 33.40625 48.484375 
Q 26.265625 48.484375 22.1875 42.84375 
Q 18.109375 37.203125 18.109375 27.296875 
Q 18.109375 17.390625 22.1875 11.75 
Q 26.265625 6.109375 33.40625 6.109375 
Q 40.53125 6.109375 44.609375 11.75 
Q 48.6875 17.390625 48.6875 27.296875 
z
" id="DejaVuSans-112"/>
       <path d="M 41.109375 46.296875 
Q 39.59375 47.171875 37.8125 47.578125 
Q 36.03125 48 33.890625 48 
Q 26.265625 48 22.1875 43.046875 
Q 18.109375 38.09375 18.109375 28.8125 
L 18.109375 0 
L 9.078125 0 
L 9.078125 54.6875 
L 18.109375 54.6875 
L 18.109375 46.1875 
Q 20.953125 51.171875 25.484375 53.578125 
Q 30.03125 56 36.53125 56 
Q 37.453125 56 38.578125 55.875 
Q 39.703125 55.765625 41.0625 55.515625 
z
" id="DejaVuSans-114"/>
       <path d="M 34.28125 27.484375 
Q 23.390625 27.484375 19.1875 25 
Q 14.984375 22.515625 14.984375 16.5 
Q 14.984375 11.71875 18.140625 8.90625 
Q 21.296875 6.109375 26.703125 6.109375 
Q 34.1875 6.109375 38.703125 11.40625 
Q 43.21875 16.703125 43.21875 25.484375 
L 43.21875 27.484375 
z
M 52.203125 31.203125 
L 52.203125 0 
L 43.21875 0 
L 43.21875 8.296875 
Q 40.140625 3.328125 35.546875 0.953125 
Q 30.953125 -1.421875 24.3125 -1.421875 
Q 15.921875 -1.421875 10.953125 3.296875 
Q 6 8.015625 6 15.921875 
Q 6 25.140625 12.171875 29.828125 
Q 18.359375 34.515625 30.609375 34.515625 
L 43.21875 34.515625 
L 43.21875 35.40625 
Q 43.21875 41.609375 39.140625 45 
Q 35.0625 48.390625 27.6875 48.390625 
Q 23 48.390625 18.546875 47.265625 
Q 14.109375 46.140625 10.015625 43.890625 
L 10.015625 52.203125 
Q 14.9375 54.109375 19.578125 55.046875 
Q 24.21875 56 28.609375 56 
Q 40.484375 56 46.34375 49.84375 
Q 52.203125 43.703125 52.203125 31.203125 
z
" id="DejaVuSans-97"/>
       <path d="M 8.5 21.578125 
L 8.5 54.6875 
L 17.484375 54.6875 
L 17.484375 21.921875 
Q 17.484375 14.15625 20.5 10.265625 
Q 23.53125 6.390625 29.59375 6.390625 
Q 36.859375 6.390625 41.078125 11.03125 
Q 45.3125 15.671875 45.3125 23.6875 
L 45.3125 54.6875 
L 54.296875 54.6875 
L 54.296875 0 
L 45.3125 0 
L 45.3125 8.40625 
Q 42.046875 3.421875 37.71875 1 
Q 33.40625 -1.421875 27.6875 -1.421875 
Q 18.265625 -1.421875 13.375 4.4375 
Q 8.5 10.296875 8.5 21.578125 
z
M 31.109375 56 
z
" id="DejaVuSans-117"/>
       <path id="DejaVuSans-32"/>
       <path d="M 37.109375 75.984375 
L 37.109375 68.5 
L 28.515625 68.5 
Q 23.6875 68.5 21.796875 66.546875 
Q 19.921875 64.59375 19.921875 59.515625 
L 19.921875 54.6875 
L 34.71875 54.6875 
L 34.71875 47.703125 
L 19.921875 47.703125 
L 19.921875 0 
L 10.890625 0 
L 10.890625 47.703125 
L 2.296875 47.703125 
L 2.296875 54.6875 
L 10.890625 54.6875 
L 10.890625 58.5 
Q 10.890625 67.625 15.140625 71.796875 
Q 19.390625 75.984375 28.609375 75.984375 
z
" id="DejaVuSans-102"/>
       <path d="M 30.609375 48.390625 
Q 23.390625 48.390625 19.1875 42.75 
Q 14.984375 37.109375 14.984375 27.296875 
Q 14.984375 17.484375 19.15625 11.84375 
Q 23.34375 6.203125 30.609375 6.203125 
Q 37.796875 6.203125 41.984375 11.859375 
Q 46.1875 17.53125 46.1875 27.296875 
Q 46.1875 37.015625 41.984375 42.703125 
Q 37.796875 48.390625 30.609375 48.390625 
z
M 30.609375 56 
Q 42.328125 56 49.015625 48.375 
Q 55.71875 40.765625 55.71875 27.296875 
Q 55.71875 13.875 49.015625 6.21875 
Q 42.328125 -1.421875 30.609375 -1.421875 
Q 18.84375 -1.421875 12.171875 6.21875 
Q 5.515625 13.875 5.515625 27.296875 
Q 5.515625 40.765625 12.171875 48.375 
Q 18.84375 56 30.609375 56 
z
" id="DejaVuSans-111"/>
       <path d="M 39.40625 66.21875 
Q 28.65625 66.21875 22.328125 58.203125 
Q 16.015625 50.203125 16.015625 36.375 
Q 16.015625 22.609375 22.328125 14.59375 
Q 28.65625 6.59375 39.40625 6.59375 
Q 50.140625 6.59375 56.421875 14.59375 
Q 62.703125 22.609375 62.703125 36.375 
Q 62.703125 50.203125 56.421875 58.203125 
Q 50.140625 66.21875 39.40625 66.21875 
z
M 39.40625 74.21875 
Q 54.734375 74.21875 63.90625 63.9375 
Q 73.09375 53.65625 73.09375 36.375 
Q 73.09375 19.140625 63.90625 8.859375 
Q 54.734375 -1.421875 39.40625 -1.421875 
Q 24.03125 -1.421875 14.8125 8.828125 
Q 5.609375 19.09375 5.609375 36.375 
Q 5.609375 53.65625 14.8125 63.9375 
Q 24.03125 74.21875 39.40625 74.21875 
z
" id="DejaVuSans-79"/>
       <path d="M 54.890625 33.015625 
L 54.890625 0 
L 45.90625 0 
L 45.90625 32.71875 
Q 45.90625 40.484375 42.875 44.328125 
Q 39.84375 48.1875 33.796875 48.1875 
Q 26.515625 48.1875 22.3125 43.546875 
Q 18.109375 38.921875 18.109375 30.90625 
L 18.109375 0 
L 9.078125 0 
L 9.078125 54.6875 
L 18.109375 54.6875 
L 18.109375 46.1875 
Q 21.34375 51.125 25.703125 53.5625 
Q 30.078125 56 35.796875 56 
Q 45.21875 56 50.046875 50.171875 
Q 54.890625 44.34375 54.890625 33.015625 
z
" id="DejaVuSans-110"/>
       <path d="M 3.328125 72.90625 
L 13.28125 72.90625 
L 28.609375 11.28125 
L 43.890625 72.90625 
L 54.984375 72.90625 
L 70.3125 11.28125 
L 85.59375 72.90625 
L 95.609375 72.90625 
L 77.296875 0 
L 64.890625 0 
L 49.515625 63.28125 
L 33.984375 0 
L 21.578125 0 
z
" id="DejaVuSans-87"/>
       <path d="M 54.890625 33.015625 
L 54.890625 0 
L 45.90625 0 
L 45.90625 32.71875 
Q 45.90625 40.484375 42.875 44.328125 
Q 39.84375 48.1875 33.796875 48.1875 
Q 26.515625 48.1875 22.3125 43.546875 
Q 18.109375 38.921875 18.109375 30.90625 
L 18.109375 0 
L 9.078125 0 
L 9.078125 75.984375 
L 18.109375 75.984375 
L 18.109375 46.1875 
Q 21.34375 51.125 25.703125 53.5625 
Q 30.078125 56 35.796875 56 
Q 45.21875 56 50.046875 50.171875 
Q 54.890625 44.34375 54.890625 33.015625 
z
" id="DejaVuSans-104"/>
       <path d="M 9.8125 72.90625 
L 24.515625 72.90625 
L 43.109375 23.296875 
L 61.8125 72.90625 
L 76.515625 72.90625 
L 76.515625 0 
L 66.890625 0 
L 66.890625 64.015625 
L 48.09375 14.015625 
L 38.1875 14.015625 
L 19.390625 64.015625 
L 19.390625 0 
L 9.8125 0 
z
" id="DejaVuSans-77"/>
      </defs>
      <use xlink:href="#DejaVuSans-116"/>
      <use x="39.208984" xlink:href="#DejaVuSans-101"/>
      <use x="100.732422" xlink:href="#DejaVuSans-109"/>
      <use x="198.144531" xlink:href="#DejaVuSans-112"/>
      <use x="261.621094" xlink:href="#DejaVuSans-101"/>
      <use x="323.144531" xlink:href="#DejaVuSans-114"/>
      <use x="364.257812" xlink:href="#DejaVuSans-97"/>
      <use x="425.537109" xlink:href="#DejaVuSans-116"/>
      <use x="464.746094" xlink:href="#DejaVuSans-117"/>
      <use x="528.125" xlink:href="#DejaVuSans-114"/>
      <use x="566.988281" xlink:href="#DejaVuSans-101"/>
      <use x="628.511719" xlink:href="#DejaVuSans-32"/>
      <use x="660.298828" xlink:href="#DejaVuSans-102"/>
      <use x="695.503906" xlink:href="#DejaVuSans-114"/>
      <use x="734.367188" xlink:href="#DejaVuSans-111"/>
      <use x="795.548828" xlink:href="#DejaVuSans-109"/>
      <use x="892.960938" xlink:href="#DejaVuSans-32"/>
      <use x="924.748047" xlink:href="#DejaVuSans-79"/>
      <use x="1003.458984" xlink:href="#DejaVuSans-112"/>
      <use x="1066.935547" xlink:href="#DejaVuSans-101"/>
      <use x="1128.458984" xlink:href="#DejaVuSans-110"/>
      <use x="1191.837891" xlink:href="#DejaVuSans-87"/>
      <use x="1284.839844" xlink:href="#DejaVuSans-101"/>
      <use x="1346.363281" xlink:href="#DejaVuSans-97"/>
      <use x="1407.642578" xlink:href="#DejaVuSans-116"/>
      <use x="1446.851562" xlink:href="#DejaVuSans-104"/>
      <use x="1510.230469" xlink:href="#DejaVuSans-101"/>
      <use x="1571.753906" xlink:href="#DejaVuSans-114"/>
      <use x="1612.867188" xlink:href="#DejaVuSans-77"/>
      <use x="1699.146484" xlink:href="#DejaVuSans-97"/>
      <use x="1760.425781" xlink:href="#DejaVuSans-112"/>
     </g>
    </g>
   </g>
   <g id="matplotlib.axis_2">
    <g id="ytick_1">
     <g id="line2d_6">
      <defs>
       <path d="M 0 0 
L -3.5 0 
" id="m2139a37cee" style="stroke:#000000;stroke-width:0.8;"/>
      </defs>
      <g>
       <use style="stroke:#000000;stroke-width:0.8;" x="57.6" xlink:href="#m2139a37cee" y="295.488"/>
      </g>
     </g>
     <g id="text_7">
      <!-- 0 -->
      <g transform="translate(44.2375 299.287219)scale(0.1 -0.1)">
       <use xlink:href="#DejaVuSans-48"/>
      </g>
     </g>
    </g>
    <g id="ytick_2">
     <g id="line2d_7">
      <g>
       <use style="stroke:#000000;stroke-width:0.8;" x="57.6" xlink:href="#m2139a37cee" y="251.898811"/>
      </g>
     </g>
     <g id="text_8">
      <!-- 100 -->
      <g transform="translate(31.5125 255.69803)scale(0.1 -0.1)">
       <use xlink:href="#DejaVuSans-49"/>
       <use x="63.623047" xlink:href="#DejaVuSans-48"/>
       <use x="127.246094" xlink:href="#DejaVuSans-48"/>
      </g>
     </g>
    </g>
    <g id="ytick_3">
     <g id="line2d_8">
      <g>
       <use style="stroke:#000000;stroke-width:0.8;" x="57.6" xlink:href="#m2139a37cee" y="208.309622"/>
      </g>
     </g>
     <g id="text_9">
      <!-- 200 -->
      <g transform="translate(31.5125 212.10884)scale(0.1 -0.1)">
       <use xlink:href="#DejaVuSans-50"/>
       <use x="63.623047" xlink:href="#DejaVuSans-48"/>
       <use x="127.246094" xlink:href="#DejaVuSans-48"/>
      </g>
     </g>
    </g>
    <g id="ytick_4">
     <g id="line2d_9">
      <g>
       <use style="stroke:#000000;stroke-width:0.8;" x="57.6" xlink:href="#m2139a37cee" y="164.720432"/>
      </g>
     </g>
     <g id="text_10">
      <!-- 300 -->
      <g transform="translate(31.5125 168.519651)scale(0.1 -0.1)">
       <use xlink:href="#DejaVuSans-51"/>
       <use x="63.623047" xlink:href="#DejaVuSans-48"/>
       <use x="127.246094" xlink:href="#DejaVuSans-48"/>
      </g>
     </g>
    </g>
    <g id="ytick_5">
     <g id="line2d_10">
      <g>
       <use style="stroke:#000000;stroke-width:0.8;" x="57.6" xlink:href="#m2139a37cee" y="121.131243"/>
      </g>
     </g>
     <g id="text_11">
      <!-- 400 -->
      <g transform="translate(31.5125 124.930462)scale(0.1 -0.1)">
       <defs>
        <path d="M 37.796875 64.3125 
L 12.890625 25.390625 
L 37.796875 25.390625 
z
M 35.203125 72.90625 
L 47.609375 72.90625 
L 47.609375 25.390625 
L 58.015625 25.390625 
L 58.015625 17.1875 
L 47.609375 17.1875 
L 47.609375 0 
L 37.796875 0 
L 37.796875 17.1875 
L 4.890625 17.1875 
L 4.890625 26.703125 
z
" id="DejaVuSans-52"/>
       </defs>
       <use xlink:href="#DejaVuSans-52"/>
       <use x="63.623047" xlink:href="#DejaVuSans-48"/>
       <use x="127.246094" xlink:href="#DejaVuSans-48"/>
      </g>
     </g>
    </g>
    <g id="ytick_6">
     <g id="line2d_11">
      <g>
       <use style="stroke:#000000;stroke-width:0.8;" x="57.6" xlink:href="#m2139a37cee" y="77.542054"/>
      </g>
     </g>
     <g id="text_12">
      <!-- 500 -->
      <g transform="translate(31.5125 81.341273)scale(0.1 -0.1)">
       <use xlink:href="#DejaVuSans-53"/>
       <use x="63.623047" xlink:href="#DejaVuSans-48"/>
       <use x="127.246094" xlink:href="#DejaVuSans-48"/>
      </g>
     </g>
    </g>
    <g id="text_13">
     <!-- Retransmission_day[dimensionless] -->
     <g transform="translate(25.154687 263.967844)rotate(-90)scale(0.1 -0.1)">
      <defs>
       <path d="M 44.390625 34.1875 
Q 47.5625 33.109375 50.5625 29.59375 
Q 53.5625 26.078125 56.59375 19.921875 
L 66.609375 0 
L 56 0 
L 46.6875 18.703125 
Q 43.0625 26.03125 39.671875 28.421875 
Q 36.28125 30.8125 30.421875 30.8125 
L 19.671875 30.8125 
L 19.671875 0 
L 9.8125 0 
L 9.8125 72.90625 
L 32.078125 72.90625 
Q 44.578125 72.90625 50.734375 67.671875 
Q 56.890625 62.453125 56.890625 51.90625 
Q 56.890625 45.015625 53.6875 40.46875 
Q 50.484375 35.9375 44.390625 34.1875 
z
M 19.671875 64.796875 
L 19.671875 38.921875 
L 32.078125 38.921875 
Q 39.203125 38.921875 42.84375 42.21875 
Q 46.484375 45.515625 46.484375 51.90625 
Q 46.484375 58.296875 42.84375 61.546875 
Q 39.203125 64.796875 32.078125 64.796875 
z
" id="DejaVuSans-82"/>
       <path d="M 44.28125 53.078125 
L 44.28125 44.578125 
Q 40.484375 46.53125 36.375 47.5 
Q 32.28125 48.484375 27.875 48.484375 
Q 21.1875 48.484375 17.84375 46.4375 
Q 14.5 44.390625 14.5 40.28125 
Q 14.5 37.15625 16.890625 35.375 
Q 19.28125 33.59375 26.515625 31.984375 
L 29.59375 31.296875 
Q 39.15625 29.25 43.1875 25.515625 
Q 47.21875 21.78125 47.21875 15.09375 
Q 47.21875 7.46875 41.1875 3.015625 
Q 35.15625 -1.421875 24.609375 -1.421875 
Q 20.21875 -1.421875 15.453125 -0.5625 
Q 10.6875 0.296875 5.421875 2 
L 5.421875 11.28125 
Q 10.40625 8.6875 15.234375 7.390625 
Q 20.0625 6.109375 24.8125 6.109375 
Q 31.15625 6.109375 34.5625 8.28125 
Q 37.984375 10.453125 37.984375 14.40625 
Q 37.984375 18.0625 35.515625 20.015625 
Q 33.0625 21.96875 24.703125 23.78125 
L 21.578125 24.515625 
Q 13.234375 26.265625 9.515625 29.90625 
Q 5.8125 33.546875 5.8125 39.890625 
Q 5.8125 47.609375 11.28125 51.796875 
Q 16.75 56 26.8125 56 
Q 31.78125 56 36.171875 55.265625 
Q 40.578125 54.546875 44.28125 53.078125 
z
" id="DejaVuSans-115"/>
       <path d="M 9.421875 54.6875 
L 18.40625 54.6875 
L 18.40625 0 
L 9.421875 0 
z
M 9.421875 75.984375 
L 18.40625 75.984375 
L 18.40625 64.59375 
L 9.421875 64.59375 
z
" id="DejaVuSans-105"/>
       <path d="M 50.984375 -16.609375 
L 50.984375 -23.578125 
L -0.984375 -23.578125 
L -0.984375 -16.609375 
z
" id="DejaVuSans-95"/>
       <path d="M 45.40625 46.390625 
L 45.40625 75.984375 
L 54.390625 75.984375 
L 54.390625 0 
L 45.40625 0 
L 45.40625 8.203125 
Q 42.578125 3.328125 38.25 0.953125 
Q 33.9375 -1.421875 27.875 -1.421875 
Q 17.96875 -1.421875 11.734375 6.484375 
Q 5.515625 14.40625 5.515625 27.296875 
Q 5.515625 40.1875 11.734375 48.09375 
Q 17.96875 56 27.875 56 
Q 33.9375 56 38.25 53.625 
Q 42.578125 51.265625 45.40625 46.390625 
z
M 14.796875 27.296875 
Q 14.796875 17.390625 18.875 11.75 
Q 22.953125 6.109375 30.078125 6.109375 
Q 37.203125 6.109375 41.296875 11.75 
Q 45.40625 17.390625 45.40625 27.296875 
Q 45.40625 37.203125 41.296875 42.84375 
Q 37.203125 48.484375 30.078125 48.484375 
Q 22.953125 48.484375 18.875 42.84375 
Q 14.796875 37.203125 14.796875 27.296875 
z
" id="DejaVuSans-100"/>
       <path d="M 32.171875 -5.078125 
Q 28.375 -14.84375 24.75 -17.8125 
Q 21.140625 -20.796875 15.09375 -20.796875 
L 7.90625 -20.796875 
L 7.90625 -13.28125 
L 13.1875 -13.28125 
Q 16.890625 -13.28125 18.9375 -11.515625 
Q 21 -9.765625 23.484375 -3.21875 
L 25.09375 0.875 
L 2.984375 54.6875 
L 12.5 54.6875 
L 29.59375 11.921875 
L 46.6875 54.6875 
L 56.203125 54.6875 
z
" id="DejaVuSans-121"/>
       <path d="M 8.59375 75.984375 
L 29.296875 75.984375 
L 29.296875 69 
L 17.578125 69 
L 17.578125 -6.203125 
L 29.296875 -6.203125 
L 29.296875 -13.1875 
L 8.59375 -13.1875 
z
" id="DejaVuSans-91"/>
       <path d="M 9.421875 75.984375 
L 18.40625 75.984375 
L 18.40625 0 
L 9.421875 0 
z
" id="DejaVuSans-108"/>
       <path d="M 30.421875 75.984375 
L 30.421875 -13.1875 
L 9.71875 -13.1875 
L 9.71875 -6.203125 
L 21.390625 -6.203125 
L 21.390625 69 
L 9.71875 69 
L 9.71875 75.984375 
z
" id="DejaVuSans-93"/>
      </defs>
      <use xlink:href="#DejaVuSans-82"/>
      <use x="64.982422" xlink:href="#DejaVuSans-101"/>
      <use x="126.505859" xlink:href="#DejaVuSans-116"/>
      <use x="165.714844" xlink:href="#DejaVuSans-114"/>
      <use x="206.828125" xlink:href="#DejaVuSans-97"/>
      <use x="268.107422" xlink:href="#DejaVuSans-110"/>
      <use x="331.486328" xlink:href="#DejaVuSans-115"/>
      <use x="383.585938" xlink:href="#DejaVuSans-109"/>
      <use x="480.998047" xlink:href="#DejaVuSans-105"/>
      <use x="508.78125" xlink:href="#DejaVuSans-115"/>
      <use x="560.880859" xlink:href="#DejaVuSans-115"/>
      <use x="612.980469" xlink:href="#DejaVuSans-105"/>
      <use x="640.763672" xlink:href="#DejaVuSans-111"/>
      <use x="701.945312" xlink:href="#DejaVuSans-110"/>
      <use x="765.324219" xlink:href="#DejaVuSans-95"/>
      <use x="815.324219" xlink:href="#DejaVuSans-100"/>
      <use x="878.800781" xlink:href="#DejaVuSans-97"/>
      <use x="940.080078" xlink:href="#DejaVuSans-121"/>
      <use x="999.259766" xlink:href="#DejaVuSans-91"/>
      <use x="1038.273438" xlink:href="#DejaVuSans-100"/>
      <use x="1101.75" xlink:href="#DejaVuSans-105"/>
      <use x="1129.533203" xlink:href="#DejaVuSans-109"/>
      <use x="1226.945312" xlink:href="#DejaVuSans-101"/>
      <use x="1288.46875" xlink:href="#DejaVuSans-110"/>
      <use x="1351.847656" xlink:href="#DejaVuSans-115"/>
      <use x="1403.947266" xlink:href="#DejaVuSans-105"/>
      <use x="1431.730469" xlink:href="#DejaVuSans-111"/>
      <use x="1492.912109" xlink:href="#DejaVuSans-110"/>
      <use x="1556.291016" xlink:href="#DejaVuSans-108"/>
      <use x="1584.074219" xlink:href="#DejaVuSans-101"/>
      <use x="1645.597656" xlink:href="#DejaVuSans-115"/>
      <use x="1697.697266" xlink:href="#DejaVuSans-115"/>
      <use x="1749.796875" xlink:href="#DejaVuSans-93"/>
     </g>
    </g>
   </g>
   <g id="line2d_12">
    <path clip-path="url(#pe5865efd77)" d="M 73.832727 151.643676 
L 74.632041 188.258595 
L 74.76526 161.233297 
L 76.097449 177.143351 
L 77.163201 187.822703 
L 78.362171 173.874162 
L 80.626893 134.643892 
L 81.559426 156.002595 
L 81.825863 142.489946 
L 88.48681 177.361297 
L 88.886467 155.130811 
L 89.286124 166.246054 
L 90.884751 171.694703 
L 92.749816 171.258811 
L 93.415911 149.028324 
L 98.211792 121.131243 
L 100.210076 154.694919 
L 102.608017 152.951351 
L 103.007674 171.258811 
L 103.54055 163.412757 
L 103.806988 164.284541 
L 103.940207 174.310054 
L 104.339863 171.258811 
L 104.606301 162.976865 
L 104.73952 94.97773 
L 105.005958 144.887351 
L 105.805272 165.592216 
L 106.604585 175.181838 
L 107.403899 179.976649 
L 108.336432 164.720432 
L 108.602869 177.361297 
L 109.135745 156.656432 
L 109.402183 171.694703 
L 109.535402 196.540541 
L 109.935059 142.489946 
L 110.734372 186.079135 
L 111.400467 96.285405 
L 112.199781 173.874162 
L 112.732656 165.592216 
L 113.53197 159.053838 
L 113.931627 190.438054 
L 114.464503 191.309838 
L 114.597721 151.207784 
L 115.130597 156.438486 
L 115.263816 169.515243 
L 115.530254 158.617946 
L 116.06313 157.528216 
L 116.729224 176.925405 
L 117.395319 79.285622 
L 117.528538 134.643892 
L 118.194633 140.092541 
L 118.327852 217.899243 
L 118.59429 133.772108 
L 120.326136 158.617946 
L 121.125449 162.105081 
L 121.525106 175.181838 
L 121.791544 152.079568 
L 121.924763 175.61773 
L 122.32442 189.130378 
L 122.590858 147.720649 
L 122.857295 156.874378 
L 123.256952 217.681297 
L 123.52339 181.284324 
L 124.455923 90.182919 
L 124.722361 184.553514 
L 125.255236 158.182054 
L 125.521674 183.899676 
L 125.921331 168.643459 
L 126.05455 142.707892 
L 126.320988 186.950919 
L 126.853864 134.208 
L 127.120301 123.310703 
L 127.386739 162.540973 
L 127.653177 175.181838 
L 127.786396 133.336216 
L 128.052834 161.233297 
L 128.319272 251.027027 
L 128.452491 169.079351 
L 128.852148 135.079784 
L 128.985367 211.578811 
L 129.118585 162.976865 
L 129.651461 190.002162 
L 129.917899 219.642811 
L 130.051118 172.566486 
L 130.184337 238.386162 
L 130.583994 143.36173 
L 130.717213 185.207351 
L 130.983651 159.48973 
L 131.782964 253.206486 
L 132.31584 118.951784 
L 132.449059 241.873297 
L 132.582278 161.669189 
L 132.848716 209.617297 
L 133.381591 174.528 
L 133.51481 150.771892 
L 133.914467 170.387027 
L 134.047686 250.591135 
L 134.180905 243.180973 
L 134.314124 126.361946 
L 134.580562 245.360432 
L 134.713781 178.233081 
L 134.847 178.233081 
L 135.113438 170.387027 
L 135.246656 107.618595 
L 135.379875 179.540757 
L 135.646313 142.925838 
L 135.779532 179.104865 
L 135.912751 158.617946 
L 136.04597 250.155243 
L 136.179189 226.835027 
L 136.445627 114.592865 
L 136.578846 123.310703 
L 136.712065 171.694703 
L 136.845284 53.568 
L 137.111722 173.002378 
L 137.244941 178.233081 
L 137.378159 91.490595 
L 137.511378 238.168216 
L 137.911035 173.43827 
L 138.177473 256.25773 
L 138.443911 138.131027 
L 138.710349 154.259027 
L 138.976787 120.259459 
L 139.110006 184.117622 
L 139.376443 234.899027 
L 139.642881 132.028541 
L 140.442195 142.054054 
L 141.10829 196.976432 
L 141.374727 142.489946 
L 141.641165 255.385946 
L 142.040822 166.464 
L 142.174041 144.233514 
L 142.840136 166.899892 
L 142.973355 184.771459 
L 143.639449 159.053838 
L 143.772668 162.323027 
L 143.905887 125.490162 
L 144.83842 251.898811 
L 145.104858 259.962811 
L 145.637733 163.848649 
L 145.770952 271.078054 
L 145.904171 138.566919 
L 146.303828 159.053838 
L 147.103142 219.424865 
L 147.236361 255.385946 
L 147.769236 144.669405 
L 148.035674 171.694703 
L 148.168893 144.669405 
L 148.56855 237.514378 
L 148.968207 173.874162 
L 149.101426 191.309838 
L 149.234645 264.103784 
L 149.76752 121.785081 
L 150.033958 95.413622 
L 150.300396 180.848432 
L 150.433615 178.015135 
L 150.566834 152.951351 
L 151.09971 110.233946 
L 151.366148 173.002378 
L 151.632586 166.028108 
L 151.765804 126.797838 
L 152.032242 156.002595 
L 152.29868 259.308973 
L 152.431899 176.489514 
L 152.698337 107.182703 
L 153.231213 265.411459 
L 153.63087 156.874378 
L 154.030526 277.180541 
L 154.163745 168.207568 
L 154.296964 159.925622 
L 154.430183 252.770595 
L 154.696621 157.31027 
L 154.82984 159.925622 
L 155.096278 155.348757 
L 155.229497 165.592216 
L 155.362716 159.48973 
L 155.629154 227.052973 
L 155.762373 81.465081 
L 155.895591 152.951351 
L 156.162029 170.387027 
L 156.295248 155.566703 
L 156.428467 265.847351 
L 156.694905 185.425297 
L 156.961343 156.874378 
L 157.361 192.181622 
L 157.494219 165.592216 
L 158.160313 153.823135 
L 158.293532 191.309838 
L 158.55997 166.028108 
L 158.693189 174.745946 
L 158.959627 251.898811 
L 159.092846 108.92627 
L 159.359284 227.924757 
L 159.758941 161.887135 
L 160.025378 186.950919 
L 160.158597 160.361514 
L 160.425035 236.424649 
L 160.558254 120.695351 
L 160.957911 169.079351 
L 161.09113 292.000865 
L 161.224349 176.925405 
L 161.357568 234.899027 
L 161.490787 158.182054 
L 161.757225 206.130162 
L 161.890444 172.566486 
L 162.023662 83.426595 
L 162.156881 188.258595 
L 162.2901 199.373838 
L 162.689757 91.926486 
L 162.822976 173.002378 
L 163.222633 153.605189 
L 163.355852 161.451243 
L 163.755509 169.079351 
L 163.888728 201.771243 
L 164.021947 188.258595 
L 164.155165 187.386811 
L 164.288384 179.758703 
L 164.421603 283.065081 
L 164.554822 166.681946 
L 164.688041 156.874378 
L 164.82126 177.579243 
L 165.487355 168.207568 
L 165.620574 176.053622 
L 165.753793 190.873946 
L 166.020231 162.976865 
L 166.153449 240.12973 
L 166.286668 144.669405 
L 166.686325 172.130595 
L 167.085982 142.489946 
L 167.35242 191.309838 
L 167.485639 132.028541 
L 167.885296 180.412541 
L 168.018515 158.182054 
L 168.284952 173.874162 
L 168.418171 165.37427 
L 168.55139 217.245405 
L 168.817828 169.515243 
L 168.951047 152.079568 
L 169.084266 160.361514 
L 169.350704 162.105081 
L 169.617142 141.18227 
L 169.750361 150.118054 
L 170.016799 127.23373 
L 170.150018 244.488649 
L 170.283236 131.156757 
L 170.416455 166.464 
L 170.682893 144.015568 
L 170.816112 162.540973 
L 171.348988 215.719784 
L 171.482207 155.130811 
L 171.881864 160.143568 
L 172.015083 250.591135 
L 172.148302 186.079135 
L 172.28152 225.963243 
L 172.414739 149.464216 
L 172.547958 150.336 
L 172.681177 163.194811 
L 172.814396 149.900108 
L 173.214053 189.130378 
L 173.480491 155.130811 
L 173.61371 180.412541 
L 173.746929 175.835676 
L 173.880148 183.899676 
L 174.146586 140.092541 
L 174.279805 167.771676 
L 174.413023 169.515243 
L 174.546242 132.900324 
L 174.679461 130.502919 
L 175.212337 253.642378 
L 175.345556 251.898811 
L 175.745213 134.643892 
L 176.011651 235.770811 
L 176.278089 207.655784 
L 176.544526 239.257946 
L 176.677745 190.002162 
L 176.944183 167.771676 
L 177.077402 221.386378 
L 177.210621 162.105081 
L 177.34384 241.219459 
L 177.477059 137.695135 
L 177.610278 163.630703 
L 177.876716 258.437189 
L 178.009935 108.054486 
L 178.54281 237.732324 
L 178.676029 171.694703 
L 178.942467 180.848432 
L 179.075686 128.105514 
L 179.342124 186.950919 
L 179.475343 200.681514 
L 179.608562 200.027676 
L 180.008219 231.847784 
L 180.141438 164.284541 
L 180.407876 127.23373 
L 180.674313 214.412108 
L 180.940751 144.233514 
L 181.07397 139.438703 
L 181.207189 235.116973 
L 181.473627 157.31027 
L 181.606846 176.053622 
L 181.873284 147.720649 
L 182.006503 147.284757 
L 182.139722 294.180324 
L 182.272941 181.938162 
L 182.40616 176.707459 
L 182.539379 277.180541 
L 182.805816 229.88627 
L 182.939035 248.847568 
L 183.072254 190.873946 
L 183.205473 225.309405 
L 183.471911 156.002595 
L 183.60513 236.860541 
L 183.738349 165.156324 
L 183.871568 223.129946 
L 184.004787 184.553514 
L 184.138006 212.014703 
L 184.404444 166.899892 
L 184.670881 176.489514 
L 184.8041 250.591135 
L 184.937319 151.643676 
L 185.336976 250.591135 
L 185.470195 153.605189 
L 185.603414 168.207568 
L 185.869852 236.206703 
L 186.13629 295.488 
L 186.269509 292.436757 
L 186.402728 142.925838 
L 186.669166 227.924757 
L 186.802384 154.694919 
L 186.935603 195.668757 
L 187.068822 143.36173 
L 187.202041 252.988541 
L 187.33526 77.106162 
L 187.468479 293.308541 
L 187.734917 181.066378 
L 187.868136 234.027243 
L 188.134574 240.565622 
L 188.267793 196.976432 
L 188.401012 294.616216 
L 188.534231 241.219459 
L 188.800668 250.591135 
L 188.933887 189.56627 
L 189.067106 250.809081 
L 189.200325 149.464216 
L 189.333544 218.988973 
L 189.599982 154.694919 
L 189.733201 191.527784 
L 189.86642 292.872649 
L 190.132858 182.592 
L 190.399296 155.130811 
L 190.665734 250.591135 
L 190.932171 158.617946 
L 191.06539 170.822919 
L 191.331828 258.001297 
L 191.598266 244.488649 
L 191.731485 205.258378 
L 191.864704 263.885838 
L 191.997923 243.180973 
L 192.131142 164.066595 
L 192.264361 185.861189 
L 192.39758 251.462919 
L 192.530799 155.566703 
L 192.664018 220.078703 
L 192.797237 176.271568 
L 192.930455 175.181838 
L 193.063674 217.027459 
L 193.196893 158.182054 
L 193.330112 176.053622 
L 193.463331 257.565405 
L 193.59655 234.463135 
L 193.729769 170.387027 
L 193.996207 260.180757 
L 194.262645 128.759351 
L 194.662302 249.719351 
L 194.795521 226.617081 
L 194.92874 157.31027 
L 195.195177 179.758703 
L 195.328396 189.56627 
L 195.461615 142.489946 
L 195.994491 175.181838 
L 196.260929 182.374054 
L 196.527367 149.464216 
L 196.793805 239.04 
L 196.927024 136.387459 
L 197.32668 204.386595 
L 197.459899 182.809946 
L 197.593118 180.412541 
L 197.726337 195.232865 
L 197.859556 169.515243 
L 198.125994 250.591135 
L 198.392432 154.259027 
L 198.525651 151.42573 
L 198.65887 200.899459 
L 198.792089 196.104649 
L 198.925308 232.719568 
L 199.058527 165.37427 
L 199.191745 156.874378 
L 199.324964 228.578595 
L 199.458183 168.643459 
L 199.591402 182.809946 
L 199.724621 293.744432 
L 199.85784 220.296649 
L 199.991059 255.603892 
L 200.124278 133.336216 
L 200.257497 195.668757 
L 200.390716 183.463784 
L 200.657154 251.898811 
L 200.790373 254.514162 
L 201.190029 242.745081 
L 201.323248 150.771892 
L 201.589686 180.412541 
L 201.856124 177.361297 
L 201.989343 248.411676 
L 202.122562 254.950054 
L 202.255781 168.425514 
L 202.389 181.066378 
L 202.522219 165.810162 
L 202.655438 232.719568 
L 203.055095 176.489514 
L 203.188314 236.642595 
L 203.321532 246.232216 
L 203.454751 177.797189 
L 203.721189 249.719351 
L 203.987627 189.56627 
L 204.120846 260.616649 
L 204.254065 254.950054 
L 204.387284 147.720649 
L 204.520503 156.438486 
L 204.653722 244.488649 
L 204.786941 201.771243 
L 204.92016 232.283676 
L 205.053379 205.258378 
L 205.186598 206.130162 
L 205.319816 197.194378 
L 205.453035 233.155459 
L 205.586254 168.861405 
L 205.852692 186.950919 
L 205.985911 186.079135 
L 206.11913 215.065946 
L 206.252349 167.335784 
L 206.385568 229.450378 
L 206.652006 161.669189 
L 206.918444 256.25773 
L 207.051663 169.297297 
L 207.184882 165.156324 
L 207.3181 203.950703 
L 207.451319 163.412757 
L 207.584538 187.822703 
L 207.717757 169.079351 
L 207.850976 166.899892 
L 207.984195 188.258595 
L 208.117414 228.796541 
L 208.250633 187.168865 
L 208.383852 259.744865 
L 208.517071 171.258811 
L 208.65029 193.925189 
L 208.783509 185.207351 
L 208.916728 120.695351 
L 209.183166 180.412541 
L 209.316385 151.207784 
L 209.449603 194.361081 
L 209.582822 176.053622 
L 209.716041 241.873297 
L 209.84926 147.066811 
L 209.982479 226.617081 
L 210.248917 178.451027 
L 210.382136 208.527568 
L 210.648574 223.565838 
L 210.781793 267.590919 
L 210.915012 254.07827 
L 211.048231 132.900324 
L 211.18145 265.411459 
L 211.314669 172.566486 
L 211.447887 215.065946 
L 211.581106 124.618378 
L 211.714325 229.668324 
L 211.980763 166.899892 
L 212.113982 179.976649 
L 212.247201 176.925405 
L 212.38042 176.925405 
L 212.646858 187.822703 
L 212.780077 181.938162 
L 213.046515 275.001081 
L 213.179734 186.950919 
L 213.312953 252.770595 
L 213.446172 159.053838 
L 213.57939 272.38573 
L 213.712609 271.513946 
L 213.845828 182.809946 
L 213.979047 174.745946 
L 214.112266 183.463784 
L 214.245485 145.977081 
L 214.511923 246.668108 
L 214.645142 164.720432 
L 214.778361 187.386811 
L 215.044799 178.668973 
L 215.178018 144.451459 
L 215.311237 166.899892 
L 215.444456 162.540973 
L 215.710893 270.860108 
L 215.844112 180.412541 
L 216.11055 173.656216 
L 216.243769 186.515027 
L 216.376988 134.208 
L 216.510207 141.618162 
L 216.776645 250.591135 
L 217.043083 156.002595 
L 217.176302 145.759135 
L 217.309521 266.283243 
L 217.44274 230.540108 
L 217.575959 239.257946 
L 217.842396 158.4 
L 217.975615 142.925838 
L 218.242053 247.975784 
L 218.508491 152.951351 
L 218.908148 240.565622 
L 219.041367 179.322811 
L 219.174586 283.283027 
L 219.307805 159.48973 
L 219.441024 152.079568 
L 219.574243 212.668541 
L 219.707461 174.745946 
L 219.84068 293.962378 
L 219.973899 152.515459 
L 220.107118 184.335568 
L 220.240337 165.592216 
L 220.506775 152.515459 
L 220.773213 172.566486 
L 220.906432 192.617514 
L 221.039651 267.590919 
L 221.17287 158.617946 
L 221.439308 135.515676 
L 221.572527 182.809946 
L 221.705746 180.848432 
L 221.838964 197.848216 
L 221.972183 152.515459 
L 222.105402 172.566486 
L 222.238621 236.206703 
L 222.37184 154.259027 
L 222.505059 171.258811 
L 222.638278 208.309622 
L 222.771497 163.848649 
L 223.037935 242.309189 
L 223.171154 254.07827 
L 223.304373 162.976865 
L 223.437592 219.206919 
L 223.70403 179.104865 
L 223.837248 292.872649 
L 223.970467 168.207568 
L 224.103686 152.079568 
L 224.236905 179.758703 
L 224.370124 166.899892 
L 224.503343 172.566486 
L 224.636562 164.502486 
L 224.769781 163.412757 
L 224.903 195.668757 
L 225.036219 178.668973 
L 225.169438 179.540757 
L 225.302657 136.605405 
L 225.968751 213.976216 
L 226.10197 140.310486 
L 226.501627 232.719568 
L 226.768065 183.245838 
L 226.901284 228.142703 
L 227.167722 135.951568 
L 227.43416 219.642811 
L 227.700598 181.938162 
L 227.833817 194.361081 
L 228.100254 134.643892 
L 228.233473 173.220324 
L 228.366692 124.182486 
L 228.499911 120.695351 
L 228.766349 213.976216 
L 229.166006 156.002595 
L 229.299225 218.771027 
L 229.565663 196.104649 
L 229.698882 151.643676 
L 229.832101 161.233297 
L 229.96532 258.873081 
L 230.231757 181.284324 
L 230.364976 186.079135 
L 230.498195 163.848649 
L 230.631414 168.425514 
L 230.764633 159.48973 
L 230.897852 168.425514 
L 231.031071 159.925622 
L 231.16429 113.503135 
L 231.697166 231.847784 
L 232.096822 146.412973 
L 232.230041 179.540757 
L 232.36326 136.605405 
L 232.629698 183.899676 
L 232.762917 171.912649 
L 232.896136 204.822486 
L 233.162574 131.156757 
L 233.295793 169.515243 
L 233.429012 171.694703 
L 233.562231 197.848216 
L 233.69545 189.56627 
L 233.828669 199.155892 
L 233.961888 111.323676 
L 234.095107 139.438703 
L 234.228325 222.258162 
L 234.494763 159.925622 
L 234.627982 234.463135 
L 234.761201 166.028108 
L 234.89442 189.348324 
L 235.160858 153.387243 
L 235.294077 193.489297 
L 235.427296 168.643459 
L 235.693734 186.079135 
L 235.826953 180.630486 
L 235.960172 186.950919 
L 236.093391 234.027243 
L 236.226609 214.630054 
L 236.359828 166.464 
L 236.626266 173.874162 
L 236.759485 156.656432 
L 236.892704 161.233297 
L 237.025923 144.015568 
L 237.159142 226.181189 
L 237.292361 156.438486 
L 237.42558 172.566486 
L 237.558799 207.437838 
L 237.692018 188.258595 
L 237.825237 145.977081 
L 237.958456 231.411892 
L 238.091675 209.617297 
L 238.224893 213.540324 
L 238.358112 159.053838 
L 238.62455 173.874162 
L 238.757769 155.348757 
L 238.890988 172.130595 
L 239.024207 160.361514 
L 239.290645 156.002595 
L 239.423864 235.770811 
L 239.557083 152.515459 
L 239.690302 178.233081 
L 239.823521 243.180973 
L 239.95674 185.425297 
L 240.089959 200.463568 
L 240.223178 185.643243 
L 240.356396 185.643243 
L 240.489615 159.707676 
L 240.622834 169.733189 
L 240.756053 135.951568 
L 241.022491 213.75827 
L 241.288929 228.796541 
L 241.555367 149.028324 
L 241.688586 208.745514 
L 241.821805 151.643676 
L 241.955024 236.642595 
L 242.088243 151.643676 
L 242.221462 175.835676 
L 242.35468 179.104865 
L 242.487899 178.886919 
L 242.621118 119.823568 
L 243.020775 222.258162 
L 243.420432 126.797838 
L 243.553651 160.579459 
L 243.68687 164.720432 
L 243.820089 206.348108 
L 243.953308 187.822703 
L 244.086527 213.104432 
L 244.219746 141.618162 
L 244.352965 181.720216 
L 244.486183 168.207568 
L 244.752621 248.411676 
L 245.152278 170.387027 
L 245.285497 233.155459 
L 245.551935 111.541622 
L 245.685154 211.796757 
L 245.951592 142.272 
L 246.084811 223.565838 
L 246.21803 177.797189 
L 246.351249 175.181838 
L 246.617686 203.514811 
L 246.884124 166.028108 
L 247.017343 215.283892 
L 247.150562 199.155892 
L 247.283781 133.336216 
L 247.417 143.797622 
L 247.550219 142.925838 
L 247.683438 235.770811 
L 247.816657 125.490162 
L 247.949876 156.438486 
L 248.083095 218.771027 
L 248.216314 179.322811 
L 248.349533 197.412324 
L 248.61597 163.412757 
L 248.882408 191.74573 
L 249.015627 183.463784 
L 249.148846 158.182054 
L 249.282065 195.232865 
L 249.415284 145.105297 
L 249.681722 192.399568 
L 249.814941 171.694703 
L 249.94816 227.488865 
L 250.081379 147.938595 
L 250.214598 183.027892 
L 250.347817 180.412541 
L 250.481036 163.412757 
L 250.614254 173.43827 
L 250.747473 172.784432 
L 250.880692 150.336 
L 251.14713 146.848865 
L 251.280349 227.052973 
L 251.546787 84.516324 
L 251.680006 177.579243 
L 251.813225 177.361297 
L 251.946444 133.772108 
L 252.079663 159.925622 
L 252.212882 226.399135 
L 252.346101 173.002378 
L 252.47932 254.07827 
L 252.745757 134.425946 
L 253.012195 177.361297 
L 253.145414 174.745946 
L 253.278633 179.976649 
L 253.411852 196.758486 
L 253.545071 173.874162 
L 253.67829 173.43827 
L 253.811509 165.156324 
L 253.944728 170.169081 
L 254.211166 195.668757 
L 254.344385 189.56627 
L 254.610823 206.130162 
L 254.744041 186.079135 
L 254.87726 115.464649 
L 255.143698 222.694054 
L 255.276917 218.335135 
L 255.410136 160.797405 
L 255.543355 215.93773 
L 255.676574 148.156541 
L 255.809793 173.43827 
L 255.943012 142.925838 
L 256.076231 164.720432 
L 256.20945 166.681946 
L 256.342669 159.053838 
L 256.475888 159.925622 
L 256.609107 189.130378 
L 256.742326 159.925622 
L 256.875544 213.104432 
L 257.008763 164.284541 
L 257.141982 181.066378 
L 257.40842 237.514378 
L 257.541639 166.246054 
L 257.674858 181.50227 
L 257.808077 164.720432 
L 258.074515 193.707243 
L 258.207734 149.900108 
L 258.340953 165.592216 
L 258.474172 227.924757 
L 259.007047 113.939027 
L 259.140266 123.310703 
L 259.273485 176.489514 
L 259.406704 148.592432 
L 259.539923 213.104432 
L 259.673142 160.143568 
L 259.93958 195.014919 
L 260.072799 119.823568 
L 260.206018 187.822703 
L 260.339237 169.515243 
L 260.605675 165.37427 
L 260.738894 209.181405 
L 261.005331 160.361514 
L 261.271769 182.156108 
L 261.404988 242.745081 
L 261.538207 201.771243 
L 261.671426 202.425081 
L 261.804645 178.668973 
L 262.071083 164.284541 
L 262.204302 171.912649 
L 262.337521 206.784 
L 262.603959 161.233297 
L 262.737178 179.322811 
L 262.870397 181.284324 
L 263.003615 189.130378 
L 263.136834 224.437622 
L 263.270053 140.746378 
L 263.403272 173.656216 
L 263.66971 121.131243 
L 263.936148 166.681946 
L 264.069367 170.822919 
L 264.202586 179.540757 
L 264.335805 125.490162 
L 264.602243 177.579243 
L 264.735462 92.144432 
L 264.868681 149.900108 
L 265.135118 155.566703 
L 265.401556 225.745297 
L 265.934432 159.271784 
L 266.067651 222.258162 
L 266.334089 154.259027 
L 266.467308 169.079351 
L 266.600527 156.874378 
L 266.733746 192.617514 
L 267.000184 160.797405 
L 267.133402 212.668541 
L 267.266621 139.002811 
L 267.39984 167.335784 
L 267.533059 157.092324 
L 267.666278 174.528 
L 267.799497 176.925405 
L 267.932716 213.75827 
L 268.065935 159.925622 
L 268.199154 157.092324 
L 268.332373 187.386811 
L 268.598811 154.259027 
L 269.131686 209.181405 
L 269.398124 109.362162 
L 269.531343 169.951135 
L 269.931 167.117838 
L 270.064219 176.053622 
L 270.197438 166.899892 
L 270.330657 175.181838 
L 270.463876 163.848649 
L 270.863533 176.489514 
L 271.129971 146.412973 
L 271.396408 144.887351 
L 271.529627 157.31027 
L 271.662846 147.720649 
L 271.796065 174.092108 
L 271.929284 174.745946 
L 272.195722 160.143568 
L 272.328941 169.733189 
L 272.595379 169.515243 
L 272.728598 154.694919 
L 272.861817 179.976649 
L 272.995036 232.283676 
L 273.128255 177.797189 
L 273.261473 184.117622 
L 273.527911 164.502486 
L 273.66113 165.592216 
L 273.794349 170.822919 
L 273.927568 138.131027 
L 274.460444 191.74573 
L 274.726882 134.643892 
L 274.860101 150.336 
L 274.99332 132.464432 
L 275.126539 186.950919 
L 275.392976 166.464 
L 275.526195 169.515243 
L 275.659414 94.105946 
L 275.792633 133.11827 
L 276.059071 135.951568 
L 276.325509 228.360649 
L 276.458728 150.336 
L 276.591947 152.951351 
L 276.725166 184.989405 
L 277.124823 152.079568 
L 277.524479 174.745946 
L 277.790917 137.041297 
L 277.924136 145.759135 
L 278.190574 189.56627 
L 278.323793 170.822919 
L 278.457012 181.720216 
L 278.590231 143.36173 
L 278.72345 139.874595 
L 278.856669 158.617946 
L 278.989888 159.925622 
L 279.123107 230.976 
L 279.389545 224.219676 
L 279.522763 167.771676 
L 279.655982 231.411892 
L 279.789201 233.591351 
L 279.92242 140.746378 
L 280.055639 208.963459 
L 280.188858 190.002162 
L 280.322077 280.667676 
L 280.588515 147.066811 
L 280.854953 226.181189 
L 280.988172 249.719351 
L 281.121391 171.258811 
L 281.25461 205.258378 
L 281.387829 154.041081 
L 281.654266 145.541189 
L 281.787485 115.464649 
L 281.920704 193.707243 
L 282.320361 170.822919 
L 282.45358 143.36173 
L 282.720018 179.322811 
L 282.853237 131.374703 
L 283.119675 212.886486 
L 283.252894 166.464 
L 283.519332 167.335784 
L 283.65255 89.311135 
L 283.785769 173.874162 
L 284.052207 230.104216 
L 284.185426 146.848865 
L 284.318645 153.387243 
L 284.585083 150.336 
L 284.851521 189.348324 
L 284.98474 172.130595 
L 285.117959 247.539892 
L 285.251178 247.539892 
L 285.384397 171.912649 
L 285.650834 171.258811 
L 285.917272 163.194811 
L 286.050491 173.002378 
L 286.18371 144.451459 
L 286.316929 180.412541 
L 286.583367 130.938811 
L 286.849805 233.591351 
L 286.983024 180.630486 
L 287.249462 179.104865 
L 287.382681 118.951784 
L 287.649119 156.438486 
L 287.782337 196.540541 
L 288.048775 120.259459 
L 288.315213 176.489514 
L 288.448432 199.155892 
L 288.581651 124.400432 
L 288.71487 171.694703 
L 288.848089 122.003027 
L 289.114527 170.822919 
L 289.514184 142.925838 
L 289.647403 166.899892 
L 289.780621 165.156324 
L 289.91384 191.74573 
L 290.047059 157.31027 
L 290.180278 180.848432 
L 291.112811 142.054054 
L 291.379249 186.950919 
L 291.512468 163.412757 
L 291.645687 165.592216 
L 291.778906 146.412973 
L 292.045343 142.489946 
L 292.178562 143.36173 
L 292.311781 142.489946 
L 292.578219 163.630703 
L 292.711438 152.951351 
L 292.977876 184.771459 
L 293.111095 133.772108 
L 293.510752 166.028108 
L 293.643971 145.323243 
L 293.77719 183.027892 
L 293.910408 165.156324 
L 294.043627 166.464 
L 294.176846 184.771459 
L 294.443284 168.643459 
L 294.709722 177.797189 
L 294.842941 142.272 
L 294.97616 185.207351 
L 295.242598 157.092324 
L 295.375817 162.105081 
L 295.642255 210.053189 
L 295.775474 152.515459 
L 296.17513 153.387243 
L 296.308349 165.592216 
L 296.441568 156.002595 
L 296.708006 148.156541 
L 296.841225 192.617514 
L 296.974444 110.233946 
L 297.107663 174.963892 
L 297.374101 164.284541 
L 297.50732 139.438703 
L 297.640539 174.745946 
L 297.773758 244.924541 
L 297.906977 159.053838 
L 298.173414 174.310054 
L 298.306633 151.643676 
L 298.439852 155.784649 
L 298.573071 170.387027 
L 298.839509 143.797622 
L 298.972728 128.977297 
L 299.239166 191.309838 
L 299.638823 227.924757 
L 299.772042 116.772324 
L 300.171698 170.169081 
L 300.971012 179.104865 
L 301.370669 186.950919 
L 301.637107 219.860757 
L 301.903545 229.668324 
L 302.036764 166.246054 
L 302.303201 137.695135 
L 302.43642 148.156541 
L 302.569639 131.156757 
L 303.102515 143.797622 
L 303.235734 196.976432 
L 303.368953 136.605405 
L 304.168266 171.476757 
L 304.567923 138.566919 
L 304.834361 198.72 
L 305.100799 166.899892 
L 305.234018 237.95027 
L 305.633675 143.36173 
L 305.900113 184.771459 
L 306.033332 172.566486 
L 306.166551 134.643892 
L 306.299769 173.874162 
L 306.432988 94.541838 
L 306.566207 86.259892 
L 306.965864 225.745297 
L 307.232302 152.733405 
L 307.898397 178.233081 
L 308.164835 142.489946 
L 308.69771 158.182054 
L 308.830929 88.439351 
L 308.964148 109.362162 
L 309.097367 232.501622 
L 309.230586 144.669405 
L 309.363805 239.693838 
L 309.630243 168.643459 
L 309.763462 170.604973 
L 310.0299 86.477838 
L 310.163119 173.002378 
L 310.562775 170.822919 
L 310.695994 123.528649 
L 310.962432 138.566919 
L 311.095651 186.079135 
L 311.362089 168.207568 
L 312.694278 226.617081 
L 313.093935 151.207784 
L 313.227154 181.720216 
L 313.493592 107.182703 
L 313.76003 170.604973 
L 313.893249 157.746162 
L 314.026468 250.809081 
L 314.692562 141.618162 
L 315.092219 226.181189 
L 315.225438 177.361297 
L 315.491876 146.630919 
L 315.625095 149.028324 
L 315.758314 186.950919 
L 315.891533 168.643459 
L 316.024752 210.053189 
L 316.157971 215.283892 
L 316.29119 134.643892 
L 316.424409 224.00173 
L 316.957284 193.489297 
L 317.090503 153.387243 
L 317.889817 156.002595 
L 318.289474 166.899892 
L 318.422693 153.387243 
L 318.68913 156.874378 
L 318.955568 236.206703 
L 319.222006 242.309189 
L 319.754882 107.182703 
L 320.287758 152.951351 
L 320.420977 186.515027 
L 320.820633 228.360649 
L 321.087071 210.053189 
L 321.619947 226.617081 
L 321.753166 104.785297 
L 322.019604 179.540757 
L 322.55248 149.464216 
L 322.685699 231.411892 
L 323.485012 233.809297 
L 324.017888 211.578811 
L 324.417545 207.001946 
L 324.683983 220.514595 
L 324.95042 110.669838 
L 325.350077 165.592216 
L 325.616515 154.694919 
L 325.749734 115.028757 
L 326.149391 206.566054 
L 326.549048 169.079351 
L 326.682267 143.36173 
L 326.815486 229.232432 
L 327.081923 133.336216 
L 327.348361 157.746162 
L 328.147675 181.50227 
L 328.680551 113.721081 
L 328.81377 208.745514 
L 328.946988 211.796757 
L 329.479864 139.874595 
L 330.01274 228.578595 
L 330.279178 195.232865 
L 330.678835 175.61773 
L 331.478148 168.861405 
L 331.611367 169.515243 
L 332.011024 86.695784 
L 332.277462 165.156324 
L 332.5439 99.336649 
L 332.943557 140.746378 
L 333.076775 217.899243 
L 333.209994 188.694486 
L 333.343213 129.413189 
L 333.476432 167.771676 
L 333.74287 198.066162 
L 334.009308 160.797405 
L 334.275746 205.69427 
L 334.542184 192.181622 
L 335.474716 166.028108 
L 335.607935 176.925405 
L 335.874373 121.567135 
L 336.007592 176.925405 
L 336.27403 222.476108 
L 336.407249 215.283892 
L 336.540468 139.002811 
L 336.673687 224.00173 
L 336.940125 222.040216 
L 337.206562 199.373838 
L 337.606219 214.412108 
L 337.872657 169.079351 
L 338.005876 218.335135 
L 338.139095 198.284108 
L 338.405533 187.822703 
L 338.538752 150.336 
L 338.671971 163.848649 
L 339.471284 174.963892 
L 339.604503 186.950919 
L 340.00416 188.258595 
L 340.137379 226.617081 
L 340.270598 153.387243 
L 340.670255 179.104865 
L 341.336349 159.925622 
L 341.469568 183.245838 
L 342.002444 173.002378 
L 342.135663 174.745946 
L 342.268882 173.43827 
L 342.53532 274.565189 
L 342.801758 154.259027 
L 343.201415 85.824 
L 343.467852 215.283892 
L 343.73429 227.052973 
L 343.867509 169.951135 
L 344.000728 170.822919 
L 344.267166 158.182054 
L 344.400385 270.642162 
L 344.666823 95.413622 
L 344.800042 241.873297 
L 344.933261 123.092757 
L 345.06648 247.104 
L 345.199699 179.540757 
L 345.466136 155.566703 
L 345.599355 240.347676 
L 345.732574 246.01427 
L 346.26545 241.873297 
L 346.398669 273.257514 
L 346.665107 163.412757 
L 347.331202 244.488649 
L 347.730858 192.181622 
L 347.864077 231.847784 
L 348.130515 242.745081 
L 348.263734 254.732108 
L 349.063048 139.874595 
L 349.196267 216.591568 
L 349.329486 101.080216 
L 349.462705 178.233081 
L 349.729142 183.027892 
L 349.862361 232.283676 
L 350.128799 112.413405 
L 350.661675 114.592865 
L 350.794894 152.515459 
L 350.928113 143.579676 
L 351.061332 162.976865 
L 351.194551 257.565405 
L 351.32777 216.809514 
L 351.860645 207.001946 
L 352.127083 132.028541 
L 352.52674 230.976 
L 352.659959 175.835676 
L 353.059616 164.284541 
L 353.326054 168.643459 
L 355.324338 186.515027 
L 355.590776 238.386162 
L 356.123651 133.990054 
L 357.58906 172.130595 
L 358.388373 139.002811 
L 359.720563 175.61773 
L 359.853781 137.695135 
L 359.987 152.951351 
L 363.184255 91.490595 
L 366.514728 149.900108 
L 368.379793 124.618378 
L 370.378077 147.284757 
L 372.642799 154.259027 
L 377.705119 165.156324 
L 377.838338 174.310054 
L 379.037308 93.670054 
L 381.168811 135.079784 
L 385.03216 167.335784 
L 386.36435 185.207351 
L 386.630787 165.592216 
L 389.428385 145.105297 
L 389.694823 151.643676 
L 390.627356 183.463784 
L 390.893793 140.746378 
L 392.359202 142.054054 
L 392.758859 149.900108 
L 393.158515 161.233297 
L 393.957829 153.605189 
L 394.091048 145.105297 
L 394.623924 92.362378 
L 394.757143 122.003027 
L 395.956113 145.541189 
L 396.089332 153.169297 
L 396.222551 178.233081 
L 396.488989 126.797838 
L 397.55474 109.798054 
L 398.487273 132.464432 
L 398.487273 132.464432 
" style="fill:none;stroke:#0000ff;stroke-linecap:square;stroke-width:1.5;"/>
   </g>
   <g id="patch_3">
    <path d="M 57.6 307.584 
L 57.6 41.472 
" style="fill:none;stroke:#000000;stroke-linecap:square;stroke-linejoin:miter;stroke-width:0.8;"/>
   </g>
   <g id="patch_4">
    <path d="M 414.72 307.584 
L 414.72 41.472 
" style="fill:none;stroke:#000000;stroke-linecap:square;stroke-linejoin:miter;stroke-width:0.8;"/>
   </g>
   <g id="patch_5">
    <path d="M 57.6 307.584 
L 414.72 307.584 
" style="fill:none;stroke:#000000;stroke-linecap:square;stroke-linejoin:miter;stroke-width:0.8;"/>
   </g>
   <g id="patch_6">
    <path d="M 57.6 41.472 
L 414.72 41.472 
" style="fill:none;stroke:#000000;stroke-linecap:square;stroke-linejoin:miter;stroke-width:0.8;"/>
   </g>
   <g id="text_14">
    <!-- temperature-&gt;Retransmission_day -->
    <g transform="translate(131.301562 35.472)scale(0.12 -0.12)">
     <defs>
      <path d="M 4.890625 31.390625 
L 31.203125 31.390625 
L 31.203125 23.390625 
L 4.890625 23.390625 
z
" id="DejaVuSans-45"/>
      <path d="M 10.59375 49.21875 
L 10.59375 58.109375 
L 73.1875 35.40625 
L 73.1875 27.296875 
L 10.59375 4.59375 
L 10.59375 13.484375 
L 60.890625 31.296875 
z
" id="DejaVuSans-62"/>
     </defs>
     <use xlink:href="#DejaVuSans-116"/>
     <use x="39.208984" xlink:href="#DejaVuSans-101"/>
     <use x="100.732422" xlink:href="#DejaVuSans-109"/>
     <use x="198.144531" xlink:href="#DejaVuSans-112"/>
     <use x="261.621094" xlink:href="#DejaVuSans-101"/>
     <use x="323.144531" xlink:href="#DejaVuSans-114"/>
     <use x="364.257812" xlink:href="#DejaVuSans-97"/>
     <use x="425.537109" xlink:href="#DejaVuSans-116"/>
     <use x="464.746094" xlink:href="#DejaVuSans-117"/>
     <use x="528.125" xlink:href="#DejaVuSans-114"/>
     <use x="566.988281" xlink:href="#DejaVuSans-101"/>
     <use x="628.511719" xlink:href="#DejaVuSans-45"/>
     <use x="664.595703" xlink:href="#DejaVuSans-62"/>
     <use x="748.384766" xlink:href="#DejaVuSans-82"/>
     <use x="813.367188" xlink:href="#DejaVuSans-101"/>
     <use x="874.890625" xlink:href="#DejaVuSans-116"/>
     <use x="914.099609" xlink:href="#DejaVuSans-114"/>
     <use x="955.212891" xlink:href="#DejaVuSans-97"/>
     <use x="1016.492188" xlink:href="#DejaVuSans-110"/>
     <use x="1079.871094" xlink:href="#DejaVuSans-115"/>
     <use x="1131.970703" xlink:href="#DejaVuSans-109"/>
     <use x="1229.382812" xlink:href="#DejaVuSans-105"/>
     <use x="1257.166016" xlink:href="#DejaVuSans-115"/>
     <use x="1309.265625" xlink:href="#DejaVuSans-115"/>
     <use x="1361.365234" xlink:href="#DejaVuSans-105"/>
     <use x="1389.148438" xlink:href="#DejaVuSans-111"/>
     <use x="1450.330078" xlink:href="#DejaVuSans-110"/>
     <use x="1513.708984" xlink:href="#DejaVuSans-95"/>
     <use x="1563.708984" xlink:href="#DejaVuSans-100"/>
     <use x="1627.185547" xlink:href="#DejaVuSans-97"/>
     <use x="1688.464844" xlink:href="#DejaVuSans-121"/>
    </g>
   </g>
  </g>
  <g id="legend_1">
   <g id="patch_7">
    <path d="M 242.920312 22.95625 
L 453.8 22.95625 
Q 455.8 22.95625 455.8 20.95625 
L 455.8 7 
Q 455.8 5 453.8 5 
L 242.920312 5 
Q 240.920312 5 240.920312 7 
L 240.920312 20.95625 
Q 240.920312 22.95625 242.920312 22.95625 
z
" style="fill:#ffffff;opacity:0.8;stroke:#cccccc;stroke-linejoin:miter;"/>
   </g>
   <g id="line2d_13">
    <path d="M 244.920312 13.098437 
L 264.920313 13.098437 
" style="fill:none;stroke:#0000ff;stroke-linecap:square;stroke-width:1.5;"/>
   </g>
   <g id="line2d_14"/>
   <g id="text_15">
    <!-- Retransmission_day[dimensionless] -->
    <g transform="translate(272.920313 16.598437)scale(0.1 -0.1)">
     <use xlink:href="#DejaVuSans-82"/>
     <use x="64.982422" xlink:href="#DejaVuSans-101"/>
     <use x="126.505859" xlink:href="#DejaVuSans-116"/>
     <use x="165.714844" xlink:href="#DejaVuSans-114"/>
     <use x="206.828125" xlink:href="#DejaVuSans-97"/>
     <use x="268.107422" xlink:href="#DejaVuSans-110"/>
     <use x="331.486328" xlink:href="#DejaVuSans-115"/>
     <use x="383.585938" xlink:href="#DejaVuSans-109"/>
     <use x="480.998047" xlink:href="#DejaVuSans-105"/>
     <use x="508.78125" xlink:href="#DejaVuSans-115"/>
     <use x="560.880859" xlink:href="#DejaVuSans-115"/>
     <use x="612.980469" xlink:href="#DejaVuSans-105"/>
     <use x="640.763672" xlink:href="#DejaVuSans-111"/>
     <use x="701.945312" xlink:href="#DejaVuSans-110"/>
     <use x="765.324219" xlink:href="#DejaVuSans-95"/>
     <use x="815.324219" xlink:href="#DejaVuSans-100"/>
     <use x="878.800781" xlink:href="#DejaVuSans-97"/>
     <use x="940.080078" xlink:href="#DejaVuSans-121"/>
     <use x="999.259766" xlink:href="#DejaVuSans-91"/>
     <use x="1038.273438" xlink:href="#DejaVuSans-100"/>
     <use x="1101.75" xlink:href="#DejaVuSans-105"/>
     <use x="1129.533203" xlink:href="#DejaVuSans-109"/>
     <use x="1226.945312" xlink:href="#DejaVuSans-101"/>
     <use x="1288.46875" xlink:href="#DejaVuSans-110"/>
     <use x="1351.847656" xlink:href="#DejaVuSans-115"/>
     <use x="1403.947266" xlink:href="#DejaVuSans-105"/>
     <use x="1431.730469" xlink:href="#DejaVuSans-111"/>
     <use x="1492.912109" xlink:href="#DejaVuSans-110"/>
     <use x="1556.291016" xlink:href="#DejaVuSans-108"/>
     <use x="1584.074219" xlink:href="#DejaVuSans-101"/>
     <use x="1645.597656" xlink:href="#DejaVuSans-115"/>
     <use x="1697.697266" xlink:href="#DejaVuSans-115"/>
     <use x="1749.796875" xlink:href="#DejaVuSans-93"/>
    </g>
   </g>
  </g>
 </g>
 <defs>
  <clipPath id="pe5865efd77">
   <rect height="266.112" width="357.12" x="57.6" y="41.472"/>
  </clipPath>
 </defs>
</svg>
