<?xml version="1.0" encoding="utf-8" standalone="no"?>
<!DOCTYPE svg PUBLIC "-//W3C//DTD SVG 1.1//EN"
  "http://www.w3.org/Graphics/SVG/1.1/DTD/svg11.dtd">
<!-- Created with matplotlib (https://matplotlib.org/) -->
<svg height="2090.594375pt" version="1.1" viewBox="0 0 2059.08125 2090.594375" width="2059.08125pt" xmlns="http://www.w3.org/2000/svg" xmlns:xlink="http://www.w3.org/1999/xlink">
 <metadata>
  <rdf:RDF xmlns:cc="http://creativecommons.org/ns#" xmlns:dc="http://purl.org/dc/elements/1.1/" xmlns:rdf="http://www.w3.org/1999/02/22-rdf-syntax-ns#">
   <cc:Work>
    <dc:type rdf:resource="http://purl.org/dc/dcmitype/StillImage"/>
    <dc:date>2022-07-24T11:43:18.037675</dc:date>
    <dc:format>image/svg+xml</dc:format>
    <dc:creator>
     <cc:Agent>
      <dc:title>Matplotlib v3.3.2, https://matplotlib.org/</dc:title>
     </cc:Agent>
    </dc:creator>
   </cc:Work>
  </rdf:RDF>
 </metadata>
 <defs>
  <style type="text/css">*{stroke-linecap:butt;stroke-linejoin:round;}</style>
 </defs>
 <g id="figure_1">
  <g id="patch_1">
   <path d="M 0 2090.594375 
L 2059.08125 2090.594375 
L 2059.08125 0 
L 0 0 
z
" style="fill:#ffffff;"/>
  </g>
  <g id="axes_1">
   <g id="patch_2">
    <path d="M 40.88125 2052.76 
L 1826.48125 2052.76 
L 1826.48125 278.68 
L 40.88125 278.68 
z
" style="fill:#ffffff;"/>
   </g>
   <g id="matplotlib.axis_1">
    <g id="xtick_1">
     <g id="line2d_1">
      <defs>
       <path d="M 0 0 
L 0 3.5 
" id="m4b0402de98" style="stroke:#000000;stroke-width:0.8;"/>
      </defs>
      <g>
       <use style="stroke:#000000;stroke-width:0.8;" x="68.454413" xlink:href="#m4b0402de98" y="2052.76"/>
      </g>
     </g>
     <g id="text_1">
      <text style="font-family:DejaVu Sans;font-size:10px;font-stretch:normal;font-style:normal;font-weight:normal;text-anchor:middle;" transform="rotate(-0, 68.454413, 2067.358437)" x="68.454413" y="2067.358437">1005.0</text>
     </g>
    </g>
    <g id="xtick_2">
     <g id="line2d_2">
      <g>
       <use style="stroke:#000000;stroke-width:0.8;" x="284.545032" xlink:href="#m4b0402de98" y="2052.76"/>
      </g>
     </g>
     <g id="text_2">
      <text style="font-family:DejaVu Sans;font-size:10px;font-stretch:normal;font-style:normal;font-weight:normal;text-anchor:middle;" transform="rotate(-0, 284.545032, 2067.358437)" x="284.545032" y="2067.358437">1007.5</text>
     </g>
    </g>
    <g id="xtick_3">
     <g id="line2d_3">
      <g>
       <use style="stroke:#000000;stroke-width:0.8;" x="500.63565" xlink:href="#m4b0402de98" y="2052.76"/>
      </g>
     </g>
     <g id="text_3">
      <text style="font-family:DejaVu Sans;font-size:10px;font-stretch:normal;font-style:normal;font-weight:normal;text-anchor:middle;" transform="rotate(-0, 500.63565, 2067.358437)" x="500.63565" y="2067.358437">1010.0</text>
     </g>
    </g>
    <g id="xtick_4">
     <g id="line2d_4">
      <g>
       <use style="stroke:#000000;stroke-width:0.8;" x="716.726269" xlink:href="#m4b0402de98" y="2052.76"/>
      </g>
     </g>
     <g id="text_4">
      <text style="font-family:DejaVu Sans;font-size:10px;font-stretch:normal;font-style:normal;font-weight:normal;text-anchor:middle;" transform="rotate(-0, 716.726269, 2067.358437)" x="716.726269" y="2067.358437">1012.5</text>
     </g>
    </g>
    <g id="xtick_5">
     <g id="line2d_5">
      <g>
       <use style="stroke:#000000;stroke-width:0.8;" x="932.816888" xlink:href="#m4b0402de98" y="2052.76"/>
      </g>
     </g>
     <g id="text_5">
      <text style="font-family:DejaVu Sans;font-size:10px;font-stretch:normal;font-style:normal;font-weight:normal;text-anchor:middle;" transform="rotate(-0, 932.816888, 2067.358437)" x="932.816888" y="2067.358437">1015.0</text>
     </g>
    </g>
    <g id="xtick_6">
     <g id="line2d_6">
      <g>
       <use style="stroke:#000000;stroke-width:0.8;" x="1148.907506" xlink:href="#m4b0402de98" y="2052.76"/>
      </g>
     </g>
     <g id="text_6">
      <text style="font-family:DejaVu Sans;font-size:10px;font-stretch:normal;font-style:normal;font-weight:normal;text-anchor:middle;" transform="rotate(-0, 1148.907506, 2067.358437)" x="1148.907506" y="2067.358437">1017.5</text>
     </g>
    </g>
    <g id="xtick_7">
     <g id="line2d_7">
      <g>
       <use style="stroke:#000000;stroke-width:0.8;" x="1364.998125" xlink:href="#m4b0402de98" y="2052.76"/>
      </g>
     </g>
     <g id="text_7">
      <text style="font-family:DejaVu Sans;font-size:10px;font-stretch:normal;font-style:normal;font-weight:normal;text-anchor:middle;" transform="rotate(-0, 1364.998125, 2067.358437)" x="1364.998125" y="2067.358437">1020.0</text>
     </g>
    </g>
    <g id="xtick_8">
     <g id="line2d_8">
      <g>
       <use style="stroke:#000000;stroke-width:0.8;" x="1581.088743" xlink:href="#m4b0402de98" y="2052.76"/>
      </g>
     </g>
     <g id="text_8">
      <text style="font-family:DejaVu Sans;font-size:10px;font-stretch:normal;font-style:normal;font-weight:normal;text-anchor:middle;" transform="rotate(-0, 1581.088743, 2067.358437)" x="1581.088743" y="2067.358437">1022.5</text>
     </g>
    </g>
    <g id="xtick_9">
     <g id="line2d_9">
      <g>
       <use style="stroke:#000000;stroke-width:0.8;" x="1797.179362" xlink:href="#m4b0402de98" y="2052.76"/>
      </g>
     </g>
     <g id="text_9">
      <text style="font-family:DejaVu Sans;font-size:10px;font-stretch:normal;font-style:normal;font-weight:normal;text-anchor:middle;" transform="rotate(-0, 1797.179362, 2067.358437)" x="1797.179362" y="2067.358437">1025.0</text>
     </g>
    </g>
    <g id="text_10">
     <text style="font-family:DejaVu Sans;font-size:10px;font-stretch:normal;font-style:normal;font-weight:normal;text-anchor:middle;" transform="rotate(-0, 933.68125, 2081.036562)" x="933.68125" y="2081.036562">air_pressure from Foreca</text>
    </g>
   </g>
   <g id="matplotlib.axis_2">
    <g id="ytick_1">
     <g id="line2d_10">
      <defs>
       <path d="M 0 0 
L -3.5 0 
" id="m76dc8bd52b" style="stroke:#000000;stroke-width:0.8;"/>
      </defs>
      <g>
       <use style="stroke:#000000;stroke-width:0.8;" x="40.88125" xlink:href="#m76dc8bd52b" y="1988.707818"/>
      </g>
     </g>
     <g id="text_11">
      <text style="font-family:DejaVu Sans;font-size:10px;font-stretch:normal;font-style:normal;font-weight:normal;text-anchor:end;" transform="rotate(-0, 33.88125, 1992.507036)" x="33.88125" y="1992.507036">5</text>
     </g>
    </g>
    <g id="ytick_2">
     <g id="line2d_11">
      <g>
       <use style="stroke:#000000;stroke-width:0.8;" x="40.88125" xlink:href="#m76dc8bd52b" y="1773.839712"/>
      </g>
     </g>
     <g id="text_12">
      <text style="font-family:DejaVu Sans;font-size:10px;font-stretch:normal;font-style:normal;font-weight:normal;text-anchor:end;" transform="rotate(-0, 33.88125, 1777.638931)" x="33.88125" y="1777.638931">10</text>
     </g>
    </g>
    <g id="ytick_3">
     <g id="line2d_12">
      <g>
       <use style="stroke:#000000;stroke-width:0.8;" x="40.88125" xlink:href="#m76dc8bd52b" y="1558.971607"/>
      </g>
     </g>
     <g id="text_13">
      <text style="font-family:DejaVu Sans;font-size:10px;font-stretch:normal;font-style:normal;font-weight:normal;text-anchor:end;" transform="rotate(-0, 33.88125, 1562.770825)" x="33.88125" y="1562.770825">15</text>
     </g>
    </g>
    <g id="ytick_4">
     <g id="line2d_13">
      <g>
       <use style="stroke:#000000;stroke-width:0.8;" x="40.88125" xlink:href="#m76dc8bd52b" y="1344.103501"/>
      </g>
     </g>
     <g id="text_14">
      <text style="font-family:DejaVu Sans;font-size:10px;font-stretch:normal;font-style:normal;font-weight:normal;text-anchor:end;" transform="rotate(-0, 33.88125, 1347.90272)" x="33.88125" y="1347.90272">20</text>
     </g>
    </g>
    <g id="ytick_5">
     <g id="line2d_14">
      <g>
       <use style="stroke:#000000;stroke-width:0.8;" x="40.88125" xlink:href="#m76dc8bd52b" y="1129.235396"/>
      </g>
     </g>
     <g id="text_15">
      <text style="font-family:DejaVu Sans;font-size:10px;font-stretch:normal;font-style:normal;font-weight:normal;text-anchor:end;" transform="rotate(-0, 33.88125, 1133.034614)" x="33.88125" y="1133.034614">25</text>
     </g>
    </g>
    <g id="ytick_6">
     <g id="line2d_15">
      <g>
       <use style="stroke:#000000;stroke-width:0.8;" x="40.88125" xlink:href="#m76dc8bd52b" y="914.36729"/>
      </g>
     </g>
     <g id="text_16">
      <text style="font-family:DejaVu Sans;font-size:10px;font-stretch:normal;font-style:normal;font-weight:normal;text-anchor:end;" transform="rotate(-0, 33.88125, 918.166509)" x="33.88125" y="918.166509">30</text>
     </g>
    </g>
    <g id="ytick_7">
     <g id="line2d_16">
      <g>
       <use style="stroke:#000000;stroke-width:0.8;" x="40.88125" xlink:href="#m76dc8bd52b" y="699.499185"/>
      </g>
     </g>
     <g id="text_17">
      <text style="font-family:DejaVu Sans;font-size:10px;font-stretch:normal;font-style:normal;font-weight:normal;text-anchor:end;" transform="rotate(-0, 33.88125, 703.298403)" x="33.88125" y="703.298403">35</text>
     </g>
    </g>
    <g id="ytick_8">
     <g id="line2d_17">
      <g>
       <use style="stroke:#000000;stroke-width:0.8;" x="40.88125" xlink:href="#m76dc8bd52b" y="484.631079"/>
      </g>
     </g>
     <g id="text_18">
      <text style="font-family:DejaVu Sans;font-size:10px;font-stretch:normal;font-style:normal;font-weight:normal;text-anchor:end;" transform="rotate(-0, 33.88125, 488.430298)" x="33.88125" y="488.430298">40</text>
     </g>
    </g>
    <g id="text_19">
     <text style="font-family:DejaVu Sans;font-size:10px;font-stretch:normal;font-style:normal;font-weight:normal;text-anchor:middle;" transform="rotate(-90, 14.798438, 1165.72)" x="14.798438" y="1165.72">ping_day[ms]</text>
    </g>
   </g>
   <g id="line2d_18">
    <path clip-path="url(#pf9ff6cbc54)" d="M 122.044886 1882.434053 
L 122.909249 1897.053679 
L 123.773611 1938.149353 
L 124.637974 1682.864556 
L 125.502336 1767.892163 
L 126.366699 1796.065669 
L 127.231061 1777.202398 
L 128.095424 1892.296499 
L 128.959786 1923.920787 
L 129.824149 1913.568441 
L 130.688511 1866.851818 
L 131.552874 1753.932182 
L 132.417236 1867.128281 
L 133.281599 1734.561823 
L 134.145961 1859.958849 
L 135.010323 1831.653557 
L 135.874686 1316.657682 
L 136.739048 1935.692694 
L 137.603411 1923.631431 
L 138.467773 1648.679041 
L 139.332136 1925.515108 
L 140.196498 1912.630184 
L 141.060861 1920.909768 
L 141.925223 1903.684508 
L 142.789586 1906.126843 
L 143.653948 1918.073509 
L 144.518311 1919.864077 
L 145.382673 1933.637122 
L 146.247036 1924.76307 
L 147.111398 1923.495348 
L 147.975761 1868.789928 
L 148.840123 1921.454101 
L 149.704486 1901.414069 
L 150.568848 1912.171799 
L 151.43321 1891.308106 
L 152.297573 1938.213813 
L 153.161935 1878.222638 
L 154.026298 1903.304908 
L 154.89066 1870.616307 
L 156.619385 1928.630695 
L 157.483748 1914.32048 
L 158.34811 1590.385324 
L 159.212473 1915.094005 
L 160.076835 1900.397026 
L 160.941198 1870.917122 
L 161.80556 1831.811127 
L 162.669923 1896.787242 
L 163.534285 1855.274724 
L 164.398648 1884.06705 
L 165.26301 1928.888537 
L 166.127373 1894.380719 
L 166.991735 1906.692662 
L 168.72046 1922.87223 
L 169.584822 1914.148585 
L 170.449185 1922.098705 
L 171.313547 1944.466475 
L 173.906635 1897.517794 
L 174.770997 1892.232038 
L 175.63536 1931.896691 
L 177.364085 1939.71789 
L 178.228447 1893.241918 
L 179.957172 1491.008825 
L 182.55026 1873.774868 
L 184.278985 1883.551367 
L 185.143347 1923.774676 
L 186.872072 1901.235012 
L 188.600797 1919.434341 
L 189.465159 1774.484317 
L 191.193884 1906.305899 
L 192.058247 1898.764029 
L 192.922609 1899.752422 
L 193.786972 1817.672806 
L 195.515697 1847.475012 
L 196.380059 1895.369113 
L 197.244422 1891.028777 
L 198.108784 1903.448153 
L 199.837509 1925.407674 
L 200.701872 1931.76777 
L 201.566234 1921.969784 
L 202.430597 1889.653621 
L 203.294959 1817.286043 
L 204.159321 1910.195012 
L 205.023684 1884.969496 
L 205.888046 1918.317026 
L 206.752409 1884.024077 
L 208.481134 1875.429353 
L 210.209859 1885.313285 
L 211.938584 1881.488633 
L 212.802946 1909.120671 
L 213.667309 1929.318273 
L 215.396034 1922.786283 
L 216.260396 1901.192038 
L 217.989121 1896.013717 
L 218.853484 1904.694388 
L 219.717846 1847.109736 
L 221.446571 1936.623789 
L 222.310933 1434.111751 
L 223.175296 1891.716355 
L 224.039658 1877.019376 
L 224.904021 1931.724796 
L 225.768383 1878.630887 
L 226.632746 1919.520288 
L 227.497108 1865.115683 
L 228.361471 1844.144556 
L 229.225833 1894.896403 
L 230.090196 1888.342926 
L 230.954558 1847.668393 
L 232.683283 1801.127962 
L 234.412008 1914.85765 
L 235.276371 1868.897362 
L 236.140733 1904.458034 
L 237.005095 1907.358753 
L 237.869458 1431.189544 
L 238.73382 1941.608729 
L 239.598183 1700.677122 
L 240.462545 1942.124412 
L 241.326908 1932.412374 
L 242.19127 1648.335252 
L 243.055633 1857.165564 
L 243.919995 1935.33458 
L 244.784358 1943.370647 
L 245.64872 1861.563197 
L 246.513083 1962.15012 
L 247.377445 1766.620144 
L 248.241808 1964.040959 
L 249.10617 1896.24291 
L 249.970533 1935.678369 
L 250.834895 1931.232553 
L 251.699258 1907.210733 
L 252.56362 1767.135827 
L 253.427983 1945.519329 
L 256.02107 1900.611894 
L 256.885432 1029.579568 
L 259.47852 1893.779089 
L 260.342882 1935.33458 
L 262.93597 1902.846523 
L 263.800332 1901.858129 
L 266.39342 1845.73458 
L 268.122145 1868.252758 
L 269.85087 1898.506187 
L 271.579594 1893.478273 
L 273.308319 1904.393573 
L 275.037044 1894.767482 
L 276.765769 1851.965755 
L 279.358857 1808.605372 
L 280.223219 1939.288153 
L 282.816307 1860.904269 
L 283.680669 1929.74801 
L 286.273757 623.693717 
L 287.138119 1806.198849 
L 289.731206 1899.795396 
L 290.595569 1902.545707 
L 291.459931 1819.563645 
L 294.053019 1881.187818 
L 294.917381 1926.911751 
L 297.510469 1890.212278 
L 298.374831 1920.250839 
L 300.967919 1899.021871 
L 301.832281 1880.543213 
L 304.425369 1854.178897 
L 307.882818 1872.807962 
L 308.747181 1897.302926 
L 311.340268 1855.57554 
L 314.797718 1886.4306 
L 317.390806 1886.989257 
L 320.848256 1764.428489 
L 323.441343 1902.803549 
L 326.03443 1906.499281 
L 326.898793 1875.816115 
L 329.49188 1889.610647 
L 330.356243 1938.385707 
L 332.94933 1840.663693 
L 334.678055 1901.944077 
L 335.542418 1833.057362 
L 338.135505 1873.280671 
L 338.999867 1957.852758 
L 341.592955 1741.222734 
L 342.457317 1949.644796 
L 345.050405 1911.742062 
L 346.77913 1931.552902 
L 347.643492 1593.350504 
L 351.100942 1916.125372 
L 354.558392 1909.378513 
L 355.422755 1957.895731 
L 357.151479 1880.457266 
L 358.880204 1913.546954 
L 360.608929 1938.514628 
L 363.202017 1912.042878 
L 366.659467 1956.520576 
L 367.523829 1876.331799 
L 369.252554 957.469832 
L 371.845642 1956.821391 
L 372.710004 1914.019664 
L 375.303091 1673.668201 
L 378.760541 1906.671175 
L 379.624904 1904.522494 
L 381.353629 1921.668969 
L 383.946716 1933.443741 
L 384.811079 1843.456978 
L 387.404166 1349.088441 
L 388.268529 1938.729496 
L 390.861616 1432.02753 
L 392.590341 1901.815156 
L 393.454703 1856.64988 
L 396.047791 1923.130072 
L 396.912153 1832.412758 
L 400.369603 1867.522206 
L 402.962691 1880.629161 
L 404.691416 1842.16777 
L 406.420141 1388.065516 
L 409.013228 1902.760576 
L 412.470678 1663.225612 
L 415.063765 1911.570168 
L 416.79249 1940.405468 
L 418.521215 1911.95693 
L 421.114303 1858.991942 
L 424.571752 1914.406427 
L 425.436115 1864.514053 
L 426.300477 1913.589928 
L 428.029202 1693.264173 
L 429.757927 1067.869065 
L 431.486652 1892.833669 
L 433.215377 1365.826667 
L 434.944102 1689.91223 
L 435.808465 1812.773813 
L 437.53719 1578.395683 
L 438.401552 1773.238082 
L 440.130277 1774.570264 
L 441.859002 1690.535348 
L 443.587727 1702.202686 
L 445.316452 1879.211031 
L 446.180814 888.239329 
L 447.045177 1738.68729 
L 448.773902 1880.50024 
L 449.638264 1936.58941 
L 450.502627 1767.90219 
L 451.366989 1910.818129 
L 452.231352 1888.90588 
L 453.095714 1785.399616 
L 453.960077 1904.980879 
L 454.824439 1919.950024 
L 455.688802 1612.001055 
L 456.553164 1946.851511 
L 458.281889 1880.614836 
L 460.010614 1860.775348 
L 461.739339 1766.340815 
L 462.603701 1806.112902 
L 463.468064 1818.403357 
L 465.196789 1883.207578 
L 466.925514 1821.411511 
L 468.654239 1890.684988 
L 470.382964 1783.96 
L 472.111689 1858.139632 
L 473.840414 1829.597986 
L 475.569138 1771.755492 
L 476.433501 1920.809496 
L 477.297863 1691.480767 
L 479.026588 1891.071751 
L 480.755313 1914.377778 
L 482.484038 1705.898417 
L 483.348401 1926.181199 
L 485.077126 1908.003357 
L 485.941488 1913.589928 
L 486.805851 1910.237986 
L 488.534576 1929.2753 
L 490.263301 1921.883837 
L 491.992025 1712.258513 
L 493.72075 1933.271847 
L 495.449475 1912.257746 
L 497.1782 1965.330168 
L 498.042563 1882.477026 
L 498.906925 1844.130232 
L 499.771288 1906.141167 
L 500.63565 1928.523261 
L 501.500013 1917.185388 
L 502.364375 1804.30801 
L 503.228738 1928.687994 
L 504.0931 1875.300432 
L 504.957463 1905.338993 
L 505.821825 1907.831463 
L 506.686188 1927.234053 
L 507.55055 1923.0298 
L 508.414913 1933.056978 
L 509.279275 1454.642398 
L 510.143637 1902.373813 
L 511.008 1834.883741 
L 511.872362 1941.193317 
L 512.736725 1940.362494 
L 513.601087 1921.142542 
L 514.46545 1899.150791 
L 515.329812 1897.088058 
L 516.194175 1145.135635 
L 517.058537 1890.727962 
L 517.9229 1862.322398 
L 518.787262 1870.294005 
L 519.651625 1891.773653 
L 520.515987 1880.070504 
L 521.38035 1789.503597 
L 522.244712 1659.250552 
L 523.109075 1889.017612 
L 523.973437 1902.860847 
L 524.8378 1855.57554 
L 525.702162 1575.870983 
L 526.566524 1901.492854 
L 527.430887 1680.56117 
L 528.295249 1918.983118 
L 529.159612 1911.011511 
L 530.023974 1941.050072 
L 530.888337 1909.851223 
L 531.752699 1931.853717 
L 532.617062 1921.296531 
L 533.481424 1925.221455 
L 534.345787 1844.037122 
L 535.210149 1579.298129 
L 536.074512 1926.460528 
L 536.938874 1782.964444 
L 537.803237 1923.044125 
L 538.667599 1950.590216 
L 539.531962 1894.03693 
L 540.396324 1938.815444 
L 541.260687 1869.692374 
L 542.125049 1851.278177 
L 542.989411 1932.039936 
L 543.853774 1910.667722 
L 544.718136 1919.821103 
L 545.582499 1870.08988 
L 546.446861 1660.059888 
L 547.311224 1809.178353 
L 548.175586 1736.280767 
L 549.039949 1900.800978 
L 550.768674 1634.676803 
L 551.633036 1928.458801 
L 552.497399 1654.920959 
L 553.361761 1815.423853 
L 554.226124 1813.733557 
L 555.090486 1907.487674 
L 555.954849 1851.331894 
L 556.819211 1861.033189 
L 557.683574 1763.923549 
L 558.547936 1751.006395 
L 559.412299 820.770743 
L 561.141023 1887.719808 
L 562.005386 1652.654101 
L 563.734111 1894.058417 
L 564.598473 1792.877026 
L 565.462836 1782.276867 
L 567.191561 1924.204412 
L 568.055923 1921.583022 
L 568.920286 1869.928729 
L 569.784648 1648.786475 
L 570.649011 1905.324668 
L 571.513373 1825.526235 
L 572.377736 1897.483415 
L 573.242098 1900.826763 
L 574.106461 1770.204144 
L 574.970823 1895.92777 
L 575.835186 1928.080633 
L 576.699548 1926.610935 
L 577.56391 1861.299626 
L 578.428273 1914.225938 
L 579.292635 1830.14948 
L 580.156998 1898.520512 
L 581.02136 1888.504077 
L 581.885723 1856.370552 
L 582.750085 1897.102382 
L 583.614448 1856.563933 
L 584.47881 1922.055731 
L 585.343173 1881.947018 
L 586.207535 1906.628201 
L 587.93626 1755.361055 
L 588.800623 1700.462254 
L 589.664985 1700.720096 
L 590.529348 1933.056978 
L 591.39371 1939.202206 
L 592.258073 1843.822254 
L 593.122435 1827.470791 
L 593.986797 1450.914436 
L 594.85116 1831.395715 
L 595.715522 1888.049273 
L 596.579885 1925.923357 
L 597.444247 1820.80988 
L 598.30861 1420.582222 
L 599.172972 1842.554532 
L 600.037335 1874.688058 
L 600.901697 1934.861871 
L 601.76606 1906.513605 
L 602.630422 1745.734964 
L 603.494785 1890.556067 
L 604.359147 1946.507722 
L 605.22351 1911.19773 
L 606.087872 1892.038657 
L 606.952235 1705.139217 
L 607.816597 1915.008058 
L 608.68096 1765.330935 
L 609.545322 1756.027146 
L 610.409685 1927.298513 
L 611.274047 1874.698801 
L 612.138409 1838.285819 
L 613.002772 1914.105612 
L 613.867134 1311.830312 
L 614.731497 1725.290264 
L 615.595859 1912.687482 
L 616.460222 1783.01458 
L 617.324584 1853.512806 
L 618.188947 1875.730168 
L 619.053309 1943.75741 
L 619.917672 1712.903118 
L 620.782034 1778.796003 
L 621.646397 1905.113381 
L 622.510759 1720.659856 
L 623.375122 1889.983086 
L 624.239484 1887.902446 
L 625.968209 1787.390727 
L 626.832572 1919.251703 
L 628.561296 1863.582958 
L 629.425659 1830.693813 
L 630.290021 1871.318209 
L 631.154384 1903.566331 
L 632.018746 1887.461966 
L 632.883109 1892.812182 
L 633.747471 1855.627108 
L 634.611834 1802.696499 
L 635.476196 1827.456467 
L 636.340559 1892.575827 
L 637.204921 1666.599041 
L 638.069284 1817.131338 
L 638.933646 1894.996675 
L 639.798009 1629.14753 
L 640.662371 1891.902574 
L 641.526734 1800.601535 
L 642.391096 1879.125084 
L 643.255459 1895.132758 
L 644.119821 1942.661583 
L 644.984183 1651.386379 
L 645.848546 1925.782158 
L 646.712908 1880.225209 
L 647.577271 1913.020528 
L 648.441633 1875.372054 
L 649.305996 1904.615604 
L 650.170358 1882.786436 
L 651.034721 1902.14283 
L 651.899083 1786.083288 
L 652.763446 1749.321308 
L 653.627808 1736.870678 
L 654.492171 1857.466379 
L 656.220896 1878.824269 
L 657.085258 1853.52713 
L 657.949621 1318.416019 
L 658.813983 1599.90705 
L 659.678346 1802.355779 
L 660.542708 1817.187818 
L 661.407071 1842.38801 
L 662.271433 1514.665803 
L 663.135795 1893.009861 
L 664.000158 1871.819568 
L 664.86452 1867.298743 
L 665.728883 1753.384269 
L 666.593245 1672.139568 
L 667.457608 1886.086811 
L 668.32197 1875.252086 
L 669.186333 1823.585976 
L 670.050695 1874.300318 
L 670.915058 1894.1106 
L 671.77942 1901.342446 
L 672.643783 1917.731511 
L 673.508145 1908.189576 
L 675.23687 1377.463309 
L 676.101233 1836.681471 
L 676.965595 1881.763664 
L 677.829958 1860.897106 
L 678.69432 1905.742945 
L 679.558682 1870.601982 
L 680.423045 1915.738609 
L 681.287407 1624.262862 
L 682.15177 1784.368249 
L 683.016132 1768.317602 
L 683.880495 1827.443933 
L 684.744857 1903.362206 
L 685.60922 1886.825957 
L 686.473582 1909.292566 
L 687.337945 1725.220432 
L 688.202307 1829.29717 
L 689.06667 1488.559329 
L 689.931032 1810.130935 
L 690.795395 1899.064844 
L 691.659757 1287.808058 
L 692.52412 1842.7694 
L 693.388482 1708.261966 
L 694.252845 1911.613141 
L 695.117207 1827.964988 
L 695.981569 1884.786859 
L 696.845932 1838.522174 
L 697.710294 1911.441247 
L 698.574657 1941.673189 
L 699.439019 1868.400096 
L 700.303382 1889.430158 
L 701.167744 1884.22462 
L 702.032107 1874.591367 
L 702.896469 1827.771607 
L 703.760832 1888.477218 
L 704.625194 1917.12809 
L 705.489557 1900.336863 
L 706.353919 1904.720173 
L 707.218282 1871.468617 
L 708.082644 1919.90705 
L 708.947007 1898.102235 
L 709.811369 1884.403677 
L 710.675732 1876.58964 
L 711.540094 1885.10558 
L 712.404457 1939.71789 
L 713.268819 1629.068745 
L 714.133181 1780.242782 
L 714.997544 1826.255252 
L 715.861906 1738.350663 
L 716.726269 1665.288345 
L 717.590631 1701.839797 
L 718.454994 1931.413237 
L 719.319356 1785.732662 
L 720.183719 1845.616403 
L 721.048081 1777.786123 
L 721.912444 1829.247034 
L 722.776806 1890.495904 
L 723.641169 1840.268336 
L 724.505531 1869.509736 
L 725.369894 1759.964604 
L 726.234256 1701.583866 
L 727.098619 1857.945228 
L 727.962981 1732.466859 
L 728.827344 1739.530647 
L 730.556068 1886.958561 
L 731.420431 1670.144365 
L 732.284793 1853.75223 
L 733.149156 1906.649688 
L 734.013518 1736.787856 
L 734.877881 1897.00211 
L 735.742243 1592.856307 
L 736.606606 1814.965468 
L 737.470968 1891.214996 
L 738.335331 1708.525947 
L 739.199693 1872.120384 
L 740.064056 1798.37765 
L 740.928418 1561.863118 
L 741.792781 1703.663789 
L 742.657143 1814.170456 
L 743.521506 1754.274436 
L 744.385868 1641.402174 
L 745.250231 1581.704652 
L 746.114593 1668.198273 
L 746.978955 1851.299664 
L 747.843318 1582.615693 
L 748.70768 1514.794724 
L 749.572043 1747.324988 
L 750.436405 1649.588649 
L 751.300768 1495.649976 
L 752.16513 1861.505899 
L 753.029493 1660.664384 
L 753.893855 1891.219089 
L 754.758218 1684.258129 
L 755.62258 1763.339824 
L 756.486943 1662.701333 
L 757.351305 1879.454548 
L 758.215668 1606.822734 
L 759.08003 1918.123645 
L 759.944393 1641.437986 
L 760.808755 1820.090072 
L 761.673118 1634.695034 
L 762.53748 1540.750791 
L 763.401843 1910.349717 
L 764.266205 1864.657298 
L 765.130567 1666.626667 
L 765.99493 1684.8306 
L 766.859292 1694.67514 
L 767.723655 1856.170008 
L 768.588017 1916.34024 
L 769.45238 1905.42494 
L 770.316742 1913.143002 
L 771.181105 1926.593746 
L 772.045467 1680.286139 
L 772.90983 1599.342254 
L 773.774192 1895.247354 
L 774.638555 1487.033765 
L 775.502917 1632.04518 
L 776.36728 1909.696518 
L 777.231642 1810.963549 
L 778.096005 1932.766906 
L 778.960367 1881.464077 
L 779.82473 1716.207311 
L 780.689092 1806.01263 
L 781.553454 1857.992806 
L 782.417817 1390.154034 
L 783.282179 1745.820911 
L 784.146542 1913.839175 
L 785.010904 1808.941998 
L 785.875267 1909.670734 
L 786.739629 1409.151239 
L 787.603992 1887.719808 
L 788.468354 1707.249017 
L 789.332717 1813.078535 
L 790.197079 1829.195108 
L 791.061442 1917.795971 
L 791.925804 1915.241343 
L 792.790167 1843.666475 
L 793.654529 1882.262158 
L 794.518892 1714.133237 
L 795.383254 1831.080576 
L 796.247617 1915.757026 
L 797.111979 1690.814676 
L 797.976341 1856.531703 
L 798.840704 1540.046024 
L 799.705066 1925.214293 
L 800.569429 1790.229851 
L 801.433791 1715.471985 
L 802.298154 1677.116835 
L 803.162516 1611.716355 
L 804.026879 1910.732182 
L 804.891241 1297.477122 
L 805.755604 1582.736019 
L 806.619966 1808.304556 
L 807.484329 1774.736019 
L 810.077416 1605.603357 
L 810.941779 1836.430791 
L 811.806141 1752.022005 
L 812.670504 1700.603112 
L 813.534866 1669.442462 
L 814.399229 1889.661434 
L 815.263591 1815.498341 
L 816.127953 1899.19854 
L 816.992316 1658.58446 
L 817.856678 1856.467242 
L 818.721041 1793.789022 
L 819.585403 1902.580086 
L 820.449766 1832.659856 
L 821.314128 1844.002743 
L 822.178491 1936.764988 
L 823.042853 1906.417631 
L 823.907216 1914.513861 
L 824.771578 1778.871923 
L 825.635941 1898.342106 
L 826.500303 1916.292969 
L 827.364666 1912.326504 
L 828.229028 1919.596685 
L 829.093391 1808.80114 
L 829.957753 1819.665219 
L 830.822116 1910.080416 
L 831.686478 1824.316528 
L 832.55084 1871.986688 
L 833.415203 1912.466003 
L 834.279565 1881.798998 
L 835.143928 1913.971319 
L 836.00829 1900.096211 
L 836.872653 1809.278625 
L 837.737015 1894.264691 
L 838.601378 1818.328153 
L 839.46574 1884.690168 
L 840.330103 1848.705899 
L 841.194465 1685.283971 
L 842.058828 1717.217669 
L 842.92319 1664.71741 
L 843.787553 1791.179568 
L 844.651915 1782.235195 
L 845.516278 1656.743206 
L 846.38064 1818.56809 
L 847.245003 1868.308954 
L 848.109365 1884.523645 
L 848.973727 1895.126898 
L 849.83809 1808.504077 
L 850.702452 1913.450264 
L 851.566815 1810.754053 
L 852.431177 1876.009496 
L 853.29554 1840.613557 
L 854.159902 1939.56032 
L 855.024265 1876.294197 
L 855.888627 1911.19773 
L 856.75299 1899.881343 
L 857.617352 1869.473209 
L 858.481715 1787.956547 
L 859.346077 1923.273317 
L 860.21044 1916.348835 
L 861.074802 1933.085627 
L 861.939165 1829.028585 
L 862.803527 1931.32729 
L 863.66789 1898.351482 
L 864.532252 1915.316035 
L 865.396615 1873.488377 
L 866.260977 1872.24071 
L 867.125339 1892.953995 
L 867.989702 1903.283421 
L 868.854064 1750.902542 
L 869.718427 1771.679311 
L 870.582789 1875.981398 
L 871.447152 1927.743417 
L 872.311514 1781.794129 
L 873.175877 1887.963325 
L 874.040239 1797.933589 
L 874.904602 1811.115031 
L 875.768964 1851.98963 
L 876.633327 1833.426935 
L 877.497689 1899.525276 
L 878.362052 1891.57311 
L 879.226414 1810.292086 
L 880.090777 1852.696307 
L 880.955139 1919.391367 
L 881.819502 1714.015657 
L 882.683864 1833.229257 
L 883.548226 1830.698588 
L 884.412589 1870.21522 
L 885.276951 1802.997314 
L 886.141314 1749.688537 
L 887.005676 1829.249899 
L 887.870039 1879.045276 
L 888.734401 1877.090999 
L 889.598764 1891.604624 
L 890.463126 1691.235818 
L 891.327489 1890.504499 
L 892.191851 1910.087578 
L 893.056214 1781.53199 
L 893.920576 1867.489976 
L 894.784939 1872.979856 
L 895.649301 1920.287674 
L 896.513664 1868.983309 
L 897.378026 1918.388649 
L 898.242389 1912.988297 
L 899.106751 1869.370072 
L 899.971113 1873.183981 
L 900.835476 1875.54753 
L 901.699838 1861.248058 
L 902.564201 1921.131799 
L 903.428563 1854.687418 
L 904.292926 1913.890743 
L 905.157288 1781.489017 
L 906.886013 1912.042878 
L 907.750376 1910.775156 
L 908.614738 1929.017458 
L 909.479101 1774.21788 
L 910.343463 1918.188106 
L 911.207826 1724.606267 
L 912.072188 1862.311655 
L 912.936551 1926.639584 
L 913.800913 1817.773078 
L 914.665276 1917.307146 
L 915.529638 1932.358657 
L 916.394001 1903.075715 
L 917.258363 1626.540464 
L 918.122725 1952.094293 
L 918.987088 1653.785739 
L 919.85145 1843.71482 
L 920.715813 1761.11952 
L 921.580175 1920.250839 
L 922.444538 1894.452342 
L 923.3089 1857.495028 
L 924.173263 1914.793189 
L 925.037625 1762.036291 
L 925.901988 1903.849241 
L 926.76635 1852.538737 
L 927.630713 1936.946091 
L 928.495075 1436.525436 
L 929.359438 1841.823981 
L 930.2238 1895.397762 
L 931.088163 1884.654357 
L 931.952525 1907.960384 
L 932.816888 1171.65036 
L 933.68125 1357.339376 
L 935.409975 1908.834181 
L 936.274337 1919.348393 
L 937.1387 1881.359712 
L 938.003062 1906.714149 
L 938.867425 1894.208825 
L 939.731787 1097.9506 
L 940.59615 1922.012758 
L 941.460512 1941.587242 
L 942.324875 1374.528825 
L 944.0536 1851.235204 
L 944.917962 1504.975252 
L 945.782325 1901.363933 
L 947.51105 1896.035204 
L 948.375412 1902.610168 
L 949.239775 1911.613141 
L 950.104137 1929.189353 
L 950.968499 1869.456019 
L 951.832862 1578.137842 
L 952.697224 1846.765947 
L 953.561587 1914.750216 
L 954.425949 1906.542254 
L 955.290312 1938.944365 
L 956.154674 1946.120959 
L 957.019037 1868.123837 
L 957.883399 1928.372854 
L 958.747762 1864.900815 
L 960.476487 1610.389544 
L 961.340849 1921.765659 
L 963.933937 1668.439744 
L 965.662662 1645.425938 
L 966.527024 1876.976403 
L 968.255749 1920.85247 
L 969.120111 1960.60307 
L 969.984474 1893.005564 
L 970.848836 1761.90737 
L 971.713199 1905.997922 
L 972.577561 1911.598817 
L 973.441924 1893.335028 
L 974.306286 1836.796067 
L 975.170649 1862.874916 
L 976.035011 1730.901902 
L 976.899374 1900.354053 
L 977.763736 1842.958484 
L 978.628099 1886.442878 
L 979.492461 1841.129241 
L 980.356824 1818.661199 
L 981.221186 1885.750184 
L 982.085549 1750.325979 
L 982.949911 1766.693813 
L 983.814274 1788.622638 
L 984.678636 1767.880703 
L 985.542998 1818.374708 
L 986.407361 1919.417151 
L 987.271723 1893.607194 
L 988.136086 1849.675875 
L 989.000448 1798.393765 
L 989.864811 1907.315779 
L 990.729173 1886.881823 
L 991.593536 1808.82024 
L 992.457898 1900.031751 
L 993.322261 1880.113477 
L 994.186623 1664.242654 
L 995.050986 1926.385324 
L 995.915348 1569.492982 
L 996.779711 1796.014101 
L 997.644073 1955.059472 
L 998.508436 1486.647002 
L 999.372798 1894.230312 
L 1000.237161 1246.180943 
L 1001.101523 1955.983405 
L 1002.830248 1932.584269 
L 1003.69461 1946.142446 
L 1004.558973 1500.398561 
L 1005.423335 1886.645468 
L 1007.15206 1822.034628 
L 1008.016423 1942.468201 
L 1008.880785 1919.778129 
L 1009.745148 1703.38446 
L 1010.60951 1927.427434 
L 1011.473873 1917.543501 
L 1012.338235 1644.360192 
L 1013.202598 1875.773141 
L 1014.931323 1876.761535 
L 1015.795685 1921.296531 
L 1016.660048 1918.102158 
L 1017.52441 1873.02283 
L 1018.388773 1911.054484 
L 1019.253135 1879.01765 
L 1020.98186 1744.316835 
L 1021.846222 1892.103118 
L 1023.574947 1857.272998 
L 1025.303672 1907.000639 
L 1027.032397 1907.122398 
L 1027.89676 1907.788489 
L 1028.761122 1864.557026 
L 1029.625485 1953.340528 
L 1030.489847 1637.226571 
L 1031.35421 1929.87693 
L 1033.082935 1927.713925 
L 1033.947297 1909.636355 
L 1034.81166 1937.912998 
L 1035.676022 1842.855348 
L 1036.540384 1648.915396 
L 1037.404747 1917.779856 
L 1038.269109 1926.31012 
L 1039.133472 1916.168345 
L 1039.997834 1918.703789 
L 1040.862197 1914.191559 
L 1041.726559 1271.607002 
L 1042.590922 1972.12 
L 1043.455284 1845.061327 
L 1044.319647 1782.778225 
L 1045.184009 1535.50801 
L 1046.048372 1898.935923 
L 1046.912734 1619.951175 
L 1047.777097 1872.636067 
L 1048.641459 1416.213237 
L 1049.505822 1872.507146 
L 1050.370184 1824.741966 
L 1051.234547 1933.31482 
L 1052.098909 1798.807386 
L 1052.963271 1927.534868 
L 1053.827634 1869.498993 
L 1054.691996 1880.822542 
L 1055.556359 1932.813461 
L 1056.420721 1930.521535 
L 1057.285084 1914.979408 
L 1058.149446 1941.26494 
L 1059.013809 1937.526235 
L 1059.878171 1935.033765 
L 1060.742534 1957.852758 
L 1061.606896 1911.849496 
L 1062.471259 1878.179664 
L 1063.335621 1944.466475 
L 1064.199984 1901.98705 
L 1065.064346 1907.122398 
L 1065.928709 1905.467914 
L 1066.793071 1929.705036 
L 1068.521796 1894.380719 
L 1069.386159 1936.537842 
L 1070.250521 1933.271847 
L 1071.114883 1906.284412 
L 1071.979246 1944.831751 
L 1072.843608 1920.895444 
L 1073.707971 1920.659089 
L 1074.572333 1895.283165 
L 1076.301058 1879.597794 
L 1078.029783 1892.64745 
L 1079.758508 1946.035012 
L 1080.622871 1919.720831 
L 1082.351596 1970.272134 
L 1083.215958 1512.173333 
L 1084.944683 1900.37554 
L 1085.809046 1879.912934 
L 1086.673408 1864.836355 
L 1087.53777 1911.029928 
L 1088.402133 1911.192 
L 1089.266495 1690.019664 
L 1090.130858 1913.84777 
L 1090.99522 1891.988521 
L 1091.859583 1938.213813 
L 1092.723945 1895.669928 
L 1093.588308 1870.616307 
L 1094.45267 1928.179472 
L 1095.317033 1923.316291 
L 1096.181395 1926.653909 
L 1097.045758 1907.888761 
L 1097.91012 1945.261487 
L 1098.774483 1872.07741 
L 1099.638845 1920.702062 
L 1100.503208 1898.592134 
L 1101.36757 1892.96259 
L 1102.231933 1905.059664 
L 1103.096295 1909.421487 
L 1103.960657 1710.539568 
L 1104.82502 1750.505036 
L 1105.689382 1860.538993 
L 1106.553745 1889.252534 
L 1107.418107 1923.216019 
L 1108.28247 1917.242686 
L 1109.146832 1914.148585 
L 1110.011195 1944.208633 
L 1110.875557 1898.678082 
L 1111.73992 1948.441535 
L 1112.604282 1890.727962 
L 1113.468645 1718.446715 
L 1114.333007 1907.501998 
L 1115.19737 1849.301391 
L 1116.061732 1628.975635 
L 1116.926095 1886.473573 
L 1117.790457 1887.963325 
L 1118.65482 1900.869736 
L 1119.519182 1891.458513 
L 1120.383545 1726.600959 
L 1121.247907 1880.02753 
L 1122.112269 1886.201407 
L 1122.976632 1897.63812 
L 1123.840994 1901.38542 
L 1124.705357 1942.267658 
L 1125.569719 1658.45554 
L 1126.434082 1839.159616 
L 1127.298444 1695.692182 
L 1128.162807 1887.848729 
L 1129.027169 1828.361517 
L 1129.891532 1800.029747 
L 1130.755894 1809.078082 
L 1131.620257 1520.42964 
L 1132.484619 1666.938532 
L 1133.348982 1857.960576 
L 1134.213344 1902.524221 
L 1135.942069 1702.439041 
L 1136.806432 1892.661775 
L 1137.670794 1338.903693 
L 1138.535156 1861.462926 
L 1139.399519 1677.535827 
L 1140.263881 1906.943341 
L 1141.128244 1913.203165 
L 1141.992606 1825.300624 
L 1142.856969 1512.141103 
L 1143.721331 1779.426283 
L 1144.585694 1864.614325 
L 1145.450056 1905.224396 
L 1146.314419 1876.489369 
L 1147.178781 1861.505899 
L 1148.043144 1924.003869 
L 1148.907506 1910.495827 
L 1149.771869 1916.870248 
L 1150.636231 1862.838082 
L 1151.500594 1843.24211 
L 1152.364956 1845.677282 
L 1153.229319 1803.061775 
L 1154.093681 1877.255731 
L 1154.958043 1798.592518 
L 1155.822406 1914.492374 
L 1156.686768 1876.881861 
L 1157.551131 1721.282974 
L 1158.415493 1797.496691 
L 1159.279856 1853.491319 
L 1160.144218 1875.67287 
L 1161.008581 1872.464173 
L 1161.872943 1892.661775 
L 1162.737306 1741.222734 
L 1163.601668 1701.83741 
L 1164.466031 1830.586379 
L 1165.330393 1531.382542 
L 1166.194756 1897.761311 
L 1167.059118 1619.166906 
L 1167.923481 1951.578609 
L 1168.787843 1811.341359 
L 1169.652206 1892.704748 
L 1170.516568 1822.729369 
L 1171.380931 1954.242974 
L 1172.245293 1933.128601 
L 1173.109655 1682.692662 
L 1173.974018 1912.42964 
L 1174.83838 1920.279488 
L 1175.702743 1931.595875 
L 1176.567105 1881.376902 
L 1178.29583 1758.702254 
L 1179.160193 1795.552134 
L 1180.024555 954.175188 
L 1180.888918 1584.970647 
L 1181.75328 1587.004732 
L 1182.617643 1888.00988 
L 1183.482005 1908.819856 
L 1184.346368 1735.378321 
L 1185.21073 1855.407226 
L 1186.075093 1700.857281 
L 1186.939455 1884.099281 
L 1187.803818 1807.694331 
L 1188.66818 1771.708221 
L 1189.532542 1839.021146 
L 1190.396905 1655.504684 
L 1191.261267 1667.325295 
L 1192.12563 1879.178801 
L 1192.989992 1911.852566 
L 1193.854355 1816.652182 
L 1194.718717 1878.652374 
L 1195.58308 1899.365659 
L 1196.447442 1831.501717 
L 1197.311805 1857.022318 
L 1198.176167 1900.474379 
L 1199.04053 1773.302542 
L 1199.904892 1567.867146 
L 1200.769255 1921.875242 
L 1201.633617 1863.332278 
L 1202.49798 1921.239233 
L 1204.226705 1819.305803 
L 1205.091067 1870.000352 
L 1205.955429 1913.654388 
L 1206.819792 1858.110983 
L 1208.548517 1898.441727 
L 1209.412879 1896.744269 
L 1211.141604 1858.368825 
L 1212.005967 1882.917506 
L 1212.870329 1927.975348 
L 1213.734692 1922.979664 
L 1214.599054 1935.664045 
L 1215.463417 1830.554149 
L 1216.327779 1863.711878 
L 1217.192142 1671.82893 
L 1218.056504 1543.672998 
L 1218.920867 1729.050456 
L 1219.785229 1845.849177 
L 1220.649592 1731.800767 
L 1221.513954 1873.942465 
L 1222.378317 1763.263427 
L 1223.242679 1896.26542 
L 1224.107041 1879.743904 
L 1224.971404 1481.594532 
L 1225.835766 1748.041215 
L 1226.700129 1860.431559 
L 1227.564491 1817.21442 
L 1228.428854 1908.519041 
L 1229.293216 1643.758561 
L 1230.157579 1853.598753 
L 1231.021941 1905.016691 
L 1231.886304 1680.973717 
L 1232.750666 1808.519424 
L 1233.615029 1563.612758 
L 1234.479391 1510.755204 
L 1235.343754 1841.895604 
L 1236.208116 1955.446235 
L 1237.072479 1628.653333 
L 1237.936841 1900.712166 
L 1238.801204 1796.100048 
L 1239.665566 1807.681439 
L 1241.394291 1619.277922 
L 1242.258653 1912.945324 
L 1243.123016 1331.870344 
L 1243.987378 1713.76259 
L 1244.851741 1363.31271 
L 1245.716103 1840.835588 
L 1246.580466 1823.445596 
L 1247.444828 1725.193573 
L 1248.309191 1368.555492 
L 1249.173553 1879.583469 
L 1250.037916 1902.953957 
L 1250.902278 1901.428393 
L 1251.766641 1935.871751 
L 1252.631003 1534.56259 
L 1253.495366 1588.136371 
L 1254.359728 1808.369017 
L 1256.088453 1868.689656 
L 1256.952815 1805.717544 
L 1257.817178 1827.943501 
L 1258.68154 1923.001151 
L 1259.545903 1722.819281 
L 1260.410265 1874.887885 
L 1262.13899 1954.328921 
L 1263.003353 1946.636643 
L 1263.867715 1815.481151 
L 1264.732078 359.32 
L 1265.59644 1905.89765 
L 1266.460803 1913.246139 
L 1267.325165 1933.809017 
L 1268.189528 1892.747722 
L 1269.05389 1912.42964 
L 1269.918253 1895.798849 
L 1270.782615 1868.338705 
L 1272.51134 1921.79789 
L 1273.375703 1792.425803 
L 1274.240065 1913.37506 
L 1275.96879 1909.894197 
L 1276.833152 1882.863789 
L 1277.697515 1948.26964 
L 1279.42624 1793.886906 
L 1280.290602 1873.237698 
L 1281.154965 1887.805755 
L 1282.88369 1899.451607 
L 1283.748052 1847.432038 
L 1285.476777 1936.666763 
L 1286.34114 1884.06705 
L 1287.205502 1926.954724 
L 1288.069865 1919.133525 
L 1288.934227 1850.977362 
L 1290.662952 1897.231303 
L 1292.391677 1913.589928 
L 1293.256039 1940.921151 
L 1294.984764 1732.971799 
L 1296.713489 1960.560096 
L 1297.577852 1860.345612 
L 1298.442214 1914.707242 
L 1300.170939 1872.679041 
L 1301.035302 1956.69247 
L 1301.899664 1908.626475 
L 1303.628389 1924.720096 
L 1304.492752 1901.213525 
L 1305.357114 1958.153573 
L 1306.221477 1835.721727 
L 1307.085839 1918.789736 
L 1307.950201 1915.717122 
L 1308.814564 1960.087386 
L 1309.678926 1878.824269 
L 1310.543289 1865.717314 
L 1311.407651 1835.786187 
L 1312.272014 1925.063885 
L 1313.136376 1911.054484 
L 1314.000739 1934.475108 
L 1314.865101 1920.551655 
L 1315.729464 1932.756163 
L 1317.458189 1893.370839 
L 1318.322551 1903.920863 
L 1319.186914 1906.048058 
L 1320.051276 1927.771223 
L 1320.915639 1906.714149 
L 1321.780001 1918.402974 
L 1322.644364 1925.622542 
L 1323.508726 1867.608153 
L 1324.373089 1852.395492 
L 1326.101813 1932.498321 
L 1326.966176 1828.416211 
L 1328.694901 1724.582393 
L 1329.559263 1843.898993 
L 1330.423626 1898.131703 
L 1331.287988 1777.864908 
L 1332.152351 1710.142062 
L 1333.016713 1882.169049 
L 1333.881076 1831.832614 
L 1334.745438 1905.854676 
L 1335.609801 1893.220432 
L 1336.474163 1918.331351 
L 1337.338526 1871.411319 
L 1338.202888 1920.494357 
L 1339.067251 1924.333333 
L 1339.931613 1846.035396 
L 1340.795976 1941.050072 
L 1341.660338 1887.132502 
L 1342.5247 1942.554149 
L 1343.389063 1831.381391 
L 1344.253425 1835.324221 
L 1345.117788 1920.91693 
L 1345.98215 1859.572086 
L 1346.846513 1952.223213 
L 1347.710875 1767.935137 
L 1348.575238 1878.6094 
L 1349.4396 1880.614836 
L 1350.303963 1893.449624 
L 1351.168325 1899.258225 
L 1352.032688 1890.190791 
L 1352.89705 1871.260911 
L 1353.761413 1827.585388 
L 1354.625775 1762.107914 
L 1355.490138 1900.235875 
L 1356.3545 1751.908841 
L 1358.083225 1892.661775 
L 1358.947587 1921.462695 
L 1359.81195 1800.884444 
L 1360.676312 1813.998561 
L 1361.540675 1922.882974 
L 1362.405037 1923.989544 
L 1363.2694 1918.574868 
L 1364.133762 1837.326075 
L 1364.998125 1923.932246 
L 1365.862487 1910.732182 
L 1366.72685 1876.009496 
L 1367.591212 1909.496691 
L 1368.455575 1914.277506 
L 1369.319937 1903.738225 
L 1370.1843 1894.968026 
L 1371.048662 1915.792326 
L 1371.913025 1951.148873 
L 1372.777387 1916.245698 
L 1373.64175 1902.803549 
L 1374.506112 1898.291319 
L 1375.370475 1892.661775 
L 1376.234837 1830.977439 
L 1377.099199 1912.578095 
L 1377.963562 1873.682782 
L 1378.827924 1916.0251 
L 1379.692287 1916.708585 
L 1380.556649 1916.507359 
L 1381.421012 1866.802398 
L 1382.285374 1931.226302 
L 1383.149737 1879.481151 
L 1384.014099 1847.501871 
L 1384.878462 1904.66753 
L 1386.607187 1914.852278 
L 1387.471549 1881.778705 
L 1388.335912 1904.178705 
L 1389.200274 1918.993861 
L 1390.064637 1754.558881 
L 1390.928999 1916.093141 
L 1391.793362 1935.291607 
L 1392.657724 1905.288857 
L 1393.522086 1888.847866 
L 1394.386449 1915.996451 
L 1395.250811 1763.273573 
L 1396.115174 1751.762014 
L 1396.979536 1923.4094 
L 1397.843899 1861.550826 
L 1398.708261 1889.850584 
L 1399.572624 1911.806523 
L 1400.436986 1860.413141 
L 1401.301349 1719.091319 
L 1402.165711 1925.934101 
L 1403.030074 1848.343693 
L 1403.894436 1912.612278 
L 1404.758799 1861.935635 
L 1405.623161 1890.43789 
L 1406.487524 1868.934197 
L 1407.351886 1613.129113 
L 1408.216249 1854.866475 
L 1409.080611 1890.212278 
L 1409.944973 1845.799041 
L 1410.809336 1729.225931 
L 1411.673698 1916.555108 
L 1412.538061 1873.742638 
L 1413.402423 1917.9804 
L 1414.266786 1856.821775 
L 1415.131148 1879.329209 
L 1415.995511 1910.474341 
L 1416.859873 1924.135655 
L 1417.724236 1906.131617 
L 1418.588598 1869.155204 
L 1419.452961 1636.126446 
L 1420.317323 1821.805436 
L 1421.181686 1861.875472 
L 1422.046048 1880.90542 
L 1422.910411 1834.585995 
L 1423.774773 1864.249049 
L 1424.639136 1826.253205 
L 1425.503498 1889.825516 
L 1426.367861 1718.597122 
L 1427.232223 1917.135252 
L 1428.096585 1888.550631 
L 1428.960948 1883.852182 
L 1429.82531 1853.436408 
L 1430.689673 1688.746571 
L 1431.554035 1802.680384 
L 1432.418398 1781.366235 
L 1433.28276 1864.927674 
L 1434.147123 1888.493333 
L 1435.011485 1718.172758 
L 1435.875848 1681.240153 
L 1436.74021 1879.368601 
L 1437.604573 1880.829704 
L 1438.468935 1805.365161 
L 1439.333298 1903.756131 
L 1440.19766 1831.300218 
L 1441.062023 1894.488153 
L 1441.926385 1697.223885 
L 1442.790748 1898.540566 
L 1443.65511 1905.503725 
L 1444.519472 1829.820016 
L 1445.383835 1911.750657 
L 1446.248197 1914.592646 
L 1447.11256 1751.908841 
L 1447.976922 1848.807194 
L 1448.841285 1841.039712 
L 1449.705647 1897.380278 
L 1450.57001 1886.695604 
L 1451.434372 1918.162321 
L 1452.298735 1327.214868 
L 1453.163097 1840.990293 
L 1454.02746 1896.90542 
L 1454.891822 1907.223693 
L 1455.756185 1683.050775 
L 1456.620547 1830.841151 
L 1457.48491 1823.452758 
L 1458.349272 1715.941353 
L 1460.077997 1828.61844 
L 1460.942359 1702.162676 
L 1461.806722 1893.036259 
L 1462.671084 1827.198625 
L 1463.535447 1896.987786 
L 1464.399809 1825.536978 
L 1465.264172 1909.743789 
L 1466.128534 1925.742868 
L 1466.992897 1927.373717 
L 1467.857259 1896.701295 
L 1468.721622 1563.028317 
L 1469.585984 1881.73215 
L 1470.450347 1921.883837 
L 1471.314709 1917.407418 
L 1472.179072 1907.459025 
L 1473.043434 1880.661391 
L 1473.907797 1907.685353 
L 1474.772159 1819.585132 
L 1475.636522 1745.036643 
L 1476.500884 1777.959041 
L 1477.365247 1893.875779 
L 1478.229609 1849.963185 
L 1479.093971 1737.028508 
L 1479.958334 1818.076758 
L 1480.822696 1922.603645 
L 1481.687059 1888.815635 
L 1482.551421 1807.036835 
L 1483.415784 1850.324163 
L 1484.280146 1684.583501 
L 1485.144509 1806.338513 
L 1486.008871 1707.703309 
L 1486.873234 1872.421199 
L 1487.737596 1922.829257 
L 1488.601959 1906.273669 
L 1489.466321 1745.101103 
L 1490.330684 1697.676131 
L 1491.195046 1755.730628 
L 1492.059409 1860.76307 
L 1492.923771 1887.395119 
L 1493.788134 1919.269608 
L 1494.652496 1782.732566 
L 1495.516858 1887.840134 
L 1496.381221 1771.239808 
L 1497.245583 1881.144844 
L 1498.109946 1872.9553 
L 1498.974308 1818.564508 
L 1499.838671 1878.449784 
L 1500.703033 1884.267594 
L 1501.567396 1898.738245 
L 1502.431758 1627.27388 
L 1503.296121 1878.681023 
L 1504.160483 1910.977132 
L 1505.889208 1690.685755 
L 1506.753571 1871.076739 
L 1507.617933 1888.269871 
L 1508.482296 1823.538705 
L 1509.346658 1914.148585 
L 1510.211021 1732.370168 
L 1511.075383 1775.137516 
L 1512.804108 1886.645468 
L 1513.66847 1845.63789 
L 1514.532833 1901.720614 
L 1515.397195 1854.12518 
L 1516.261558 1520.811031 
L 1517.12592 1756.564317 
L 1517.990283 1745.584556 
L 1518.854645 1774.570264 
L 1519.719008 1747.196067 
L 1520.58337 1895.154245 
L 1521.447733 1926.181199 
L 1522.312095 1721.608345 
L 1523.176458 1924.791719 
L 1524.04082 1883.454676 
L 1524.905183 1823.405487 
L 1525.769545 1911.409017 
L 1526.633908 1695.70753 
L 1527.49827 1919.176499 
L 1528.362633 1860.826916 
L 1529.226995 1876.383367 
L 1530.091357 1906.613877 
L 1530.95572 1900.167834 
L 1531.820082 1840.405851 
L 1532.684445 1750.543235 
L 1533.548807 1912.007066 
L 1534.41317 1873.071942 
L 1535.277532 1750.778993 
L 1536.141895 1826.095635 
L 1537.006257 1860.672689 
L 1537.87062 1829.05751 
L 1539.599345 1886.329485 
L 1540.463707 1899.619595 
L 1541.32807 1870.847703 
L 1542.192432 1904.073224 
L 1543.056795 1868.070946 
L 1543.921157 1806.209592 
L 1544.78552 1881.853909 
L 1545.649882 1883.130225 
L 1546.514244 1932.610053 
L 1547.378607 1844.88048 
L 1548.242969 1772.453813 
L 1549.107332 1855.174452 
L 1549.971694 1806.213173 
L 1550.836057 1817.732969 
L 1551.700419 1834.061871 
L 1552.564782 1877.228873 
L 1553.429144 1747.398657 
L 1554.293507 1712.077069 
L 1555.157869 1792.084402 
L 1556.022232 1792.712294 
L 1556.886594 1906.316643 
L 1557.750957 1914.995779 
L 1558.615319 1835.979568 
L 1559.479682 1934.3247 
L 1560.344044 1841.437218 
L 1561.208407 1838.096019 
L 1562.072769 1854.973909 
L 1562.937131 1765.459856 
L 1563.801494 1868.63952 
L 1564.665856 1857.745707 
L 1565.530219 1910.88259 
L 1566.394581 1905.446427 
L 1567.258944 1931.273573 
L 1568.123306 1585.844444 
L 1568.987669 1901.041631 
L 1570.716394 1870.272518 
L 1571.580756 1913.91223 
L 1572.445119 1919.649209 
L 1573.309481 1864.084317 
L 1574.173844 1838.214197 
L 1575.038206 1911.89247 
L 1575.902569 1946.120959 
L 1576.766931 1929.382734 
L 1577.631294 1881.918369 
L 1578.495656 1939.116259 
L 1579.360019 1931.037218 
L 1580.224381 1916.941871 
L 1581.088743 1717.931031 
L 1581.953106 1929.87693 
L 1583.681831 1037.121439 
L 1584.546193 1904.565468 
L 1585.410556 1935.27012 
L 1586.274918 1944.530935 
L 1587.139281 1857.5953 
L 1588.003643 1915.437794 
L 1588.868006 1915.201439 
L 1589.732368 1889.954436 
L 1590.596731 1905.36048 
L 1592.325456 1871.28956 
L 1593.189818 1841.179376 
L 1594.054181 1907.272806 
L 1594.918543 1896.916163 
L 1595.782906 1942.68307 
L 1596.647268 1816.791847 
L 1597.51163 1661.291799 
L 1598.375993 1915.846043 
L 1599.240355 1903.018417 
L 1600.104718 1770.659664 
L 1600.96908 1904.651415 
L 1601.833443 1910.495827 
L 1602.697805 1872.249305 
L 1603.562168 1897.689688 
L 1605.290893 1931.509928 
L 1606.155255 1894.337746 
L 1607.88398 1940.448441 
L 1609.612705 1905.926299 
L 1612.205793 1915.652662 
L 1613.070155 1894.380719 
L 1613.934517 1927.470408 
L 1615.663242 1865.523933 
L 1617.391967 1927.341487 
L 1619.120692 1842.812374 
L 1621.71378 1929.533141 
L 1622.578142 1628.20211 
L 1624.306867 1930.392614 
L 1625.17123 1914.32048 
L 1626.035592 1942.940911 
L 1626.899955 1935.291607 
L 1627.764317 1909.550408 
L 1628.62868 1903.362206 
L 1629.493042 1909.851223 
L 1632.086129 1924.419281 
L 1632.950492 1775.94542 
L 1634.679217 1942.769017 
L 1636.407942 1942.167386 
L 1637.272304 1935.721343 
L 1638.136667 1910.581775 
L 1639.865392 1938.471655 
L 1640.729754 1910.753669 
L 1642.458479 1900.268106 
L 1644.187204 1921.32518 
L 1645.915929 1912.515588 
L 1647.644654 1794.037314 
L 1648.509016 1943.993765 
L 1651.102104 1937.82705 
L 1651.966466 1896.443453 
L 1652.830829 1914.707242 
L 1653.695191 1935.936211 
L 1656.288279 1942.833477 
L 1658.017004 1835.377938 
L 1658.881366 1923.173046 
L 1659.745729 1883.680288 
L 1661.474454 1917.758369 
L 1663.203179 1840.771127 
L 1664.067541 1930.736403 
L 1666.660628 1878.695348 
L 1667.524991 1867.994916 
L 1668.389353 1934.73295 
L 1669.253716 1867.350312 
L 1670.982441 1898.291319 
L 1671.846803 1929.962878 
L 1672.711166 1787.634245 
L 1674.439891 1910.280959 
L 1675.304253 1913.826283 
L 1676.168616 1893.177458 
L 1677.032978 1909.206619 
L 1677.897341 1875.128537 
L 1678.761703 1880.801055 
L 1679.626066 1823.818034 
L 1680.490428 1893.650168 
L 1681.354791 1951.148873 
L 1683.083515 1480.32988 
L 1683.947878 1929.662062 
L 1685.676603 1904.114245 
L 1686.540965 1948.785324 
L 1687.405328 1918.42446 
L 1688.26969 1919.165755 
L 1689.134053 1909.657842 
L 1689.998415 1880.099153 
L 1690.862778 1920.250839 
L 1691.72714 1914.535348 
L 1692.591503 1785.44259 
L 1693.455865 1920.580304 
L 1694.320228 1912.085851 
L 1695.18459 1883.092982 
L 1696.048953 1929.74801 
L 1696.913315 1895.025324 
L 1697.777678 1551.923933 
L 1698.64204 1911.032998 
L 1699.506402 1897.872326 
L 1700.370765 1880.435779 
L 1701.235127 1890.448633 
L 1702.09949 1906.821583 
L 1702.963852 1839.352998 
L 1703.828215 1603.916643 
L 1704.692577 1888.26235 
L 1705.55694 1884.276547 
L 1706.421302 1892.140719 
L 1707.285665 1912.22705 
L 1708.150027 1888.493333 
L 1709.01439 1940.555875 
L 1710.743115 1931.810743 
L 1712.47184 1869.6494 
L 1713.336202 1873.452566 
L 1714.200565 1896.744269 
L 1715.064927 1913.009784 
L 1715.92929 1884.152998 
L 1716.793652 1944.874724 
L 1717.658014 1887.590887 
L 1718.522377 1938.987338 
L 1719.386739 1856.606906 
L 1720.251102 1906.241439 
L 1721.115464 1855.360671 
L 1721.979827 1931.939664 
L 1722.844189 1909.851223 
L 1723.708552 1945.30446 
L 1724.572914 1961.161727 
L 1726.301639 1894.380719 
L 1727.166002 1944.273094 
L 1728.030364 1905.467914 
L 1728.894727 1949.21506 
L 1729.759089 1908.733909 
L 1730.623452 1937.311367 
L 1731.487814 1908.218225 
L 1732.352177 1916.769976 
L 1733.216539 1923.688729 
L 1734.080901 1946.206906 
L 1734.945264 1951.965372 
L 1735.809626 1924.76307 
L 1736.673989 1925.622542 
L 1737.538351 1930.951271 
L 1738.402714 1904.995204 
L 1739.267076 1909.808249 
L 1740.131439 1909.679329 
L 1740.995801 1889.395779 
L 1741.860164 1921.282206 
L 1742.724526 1920.323894 
L 1744.453251 1907.890965 
L 1745.317614 1911.82801 
L 1745.317614 1911.82801 
" style="fill:none;stroke:#0000ff;stroke-linecap:square;stroke-width:1.5;"/>
   </g>
   <g id="patch_3">
    <path d="M 40.88125 2052.76 
L 40.88125 278.68 
" style="fill:none;stroke:#000000;stroke-linecap:square;stroke-linejoin:miter;stroke-width:0.8;"/>
   </g>
   <g id="patch_4">
    <path d="M 1826.48125 2052.76 
L 1826.48125 278.68 
" style="fill:none;stroke:#000000;stroke-linecap:square;stroke-linejoin:miter;stroke-width:0.8;"/>
   </g>
   <g id="patch_5">
    <path d="M 40.88125 2052.76 
L 1826.48125 2052.76 
" style="fill:none;stroke:#000000;stroke-linecap:square;stroke-linejoin:miter;stroke-width:0.8;"/>
   </g>
   <g id="patch_6">
    <path d="M 40.88125 278.68 
L 1826.48125 278.68 
" style="fill:none;stroke:#000000;stroke-linecap:square;stroke-linejoin:miter;stroke-width:0.8;"/>
   </g>
   <g id="text_20">
    <text style="font-family:DejaVu Sans;font-size:12px;font-stretch:normal;font-style:normal;font-weight:normal;text-anchor:middle;" transform="rotate(-0, 933.68125, 272.68)" x="933.68125" y="272.68">air_pressure-&gt;ping_day</text>
   </g>
  </g>
  <g id="legend_1">
   <g id="patch_7">
    <path d="M 1952.120312 22.95625 
L 2052.08125 22.95625 
Q 2054.08125 22.95625 2054.08125 20.95625 
L 2054.08125 7 
Q 2054.08125 5 2052.08125 5 
L 1952.120312 5 
Q 1950.120312 5 1950.120312 7 
L 1950.120312 20.95625 
Q 1950.120312 22.95625 1952.120312 22.95625 
z
" style="fill:#ffffff;opacity:0.8;stroke:#cccccc;stroke-linejoin:miter;"/>
   </g>
   <g id="line2d_19">
    <path d="M 1954.120312 13.098438 
L 1974.120312 13.098438 
" style="fill:none;stroke:#0000ff;stroke-linecap:square;stroke-width:1.5;"/>
   </g>
   <g id="line2d_20"/>
   <g id="text_21">
    <text style="font-family:DejaVu Sans;font-size:10px;font-stretch:normal;font-style:normal;font-weight:normal;text-anchor:start;" transform="rotate(-0, 1982.120312, 16.598438)" x="1982.120312" y="16.598438">ping_day[ms]</text>
   </g>
  </g>
 </g>
 <defs>
  <clipPath id="pf9ff6cbc54">
   <rect height="1774.08" width="1785.6" x="40.88125" y="278.68"/>
  </clipPath>
 </defs>
</svg>
