<?xml version="1.0" encoding="utf-8" standalone="no"?>
<!DOCTYPE svg PUBLIC "-//W3C//DTD SVG 1.1//EN"
  "http://www.w3.org/Graphics/SVG/1.1/DTD/svg11.dtd">
<!-- Created with matplotlib (https://matplotlib.org/) -->
<svg height="345.6pt" version="1.1" viewBox="0 0 460.8 345.6" width="460.8pt" xmlns="http://www.w3.org/2000/svg" xmlns:xlink="http://www.w3.org/1999/xlink">
 <metadata>
  <rdf:RDF xmlns:cc="http://creativecommons.org/ns#" xmlns:dc="http://purl.org/dc/elements/1.1/" xmlns:rdf="http://www.w3.org/1999/02/22-rdf-syntax-ns#">
   <cc:Work>
    <dc:type rdf:resource="http://purl.org/dc/dcmitype/StillImage"/>
    <dc:date>2022-07-20T23:09:55.026935</dc:date>
    <dc:format>image/svg+xml</dc:format>
    <dc:creator>
     <cc:Agent>
      <dc:title>Matplotlib v3.3.2, https://matplotlib.org/</dc:title>
     </cc:Agent>
    </dc:creator>
   </cc:Work>
  </rdf:RDF>
 </metadata>
 <defs>
  <style type="text/css">*{stroke-linecap:butt;stroke-linejoin:round;}</style>
 </defs>
 <g id="figure_1">
  <g id="patch_1">
   <path d="M 0 345.6 
L 460.8 345.6 
L 460.8 0 
L 0 0 
z
" style="fill:#ffffff;"/>
  </g>
  <g id="axes_1">
   <g id="patch_2">
    <path d="M 57.6 307.584 
L 414.72 307.584 
L 414.72 41.472 
L 57.6 41.472 
z
" style="fill:#ffffff;"/>
   </g>
   <g id="matplotlib.axis_1">
    <g id="xtick_1">
     <g id="line2d_1">
      <defs>
       <path d="M 0 0 
L 0 3.5 
" id="mfd8322f1b7" style="stroke:#000000;stroke-width:0.8;"/>
      </defs>
      <g>
       <use style="stroke:#000000;stroke-width:0.8;" x="68.788659" xlink:href="#mfd8322f1b7" y="307.584"/>
      </g>
     </g>
     <g id="text_1">
      <!-- 0 -->
      <g transform="translate(65.607409 322.182437)scale(0.1 -0.1)">
       <defs>
        <path d="M 31.78125 66.40625 
Q 24.171875 66.40625 20.328125 58.90625 
Q 16.5 51.421875 16.5 36.375 
Q 16.5 21.390625 20.328125 13.890625 
Q 24.171875 6.390625 31.78125 6.390625 
Q 39.453125 6.390625 43.28125 13.890625 
Q 47.125 21.390625 47.125 36.375 
Q 47.125 51.421875 43.28125 58.90625 
Q 39.453125 66.40625 31.78125 66.40625 
z
M 31.78125 74.21875 
Q 44.046875 74.21875 50.515625 64.515625 
Q 56.984375 54.828125 56.984375 36.375 
Q 56.984375 17.96875 50.515625 8.265625 
Q 44.046875 -1.421875 31.78125 -1.421875 
Q 19.53125 -1.421875 13.0625 8.265625 
Q 6.59375 17.96875 6.59375 36.375 
Q 6.59375 54.828125 13.0625 64.515625 
Q 19.53125 74.21875 31.78125 74.21875 
z
" id="DejaVuSans-48"/>
       </defs>
       <use xlink:href="#DejaVuSans-48"/>
      </g>
     </g>
    </g>
    <g id="xtick_2">
     <g id="line2d_2">
      <g>
       <use style="stroke:#000000;stroke-width:0.8;" x="114.643821" xlink:href="#mfd8322f1b7" y="307.584"/>
      </g>
     </g>
     <g id="text_2">
      <!-- 2 -->
      <g transform="translate(111.462571 322.182437)scale(0.1 -0.1)">
       <defs>
        <path d="M 19.1875 8.296875 
L 53.609375 8.296875 
L 53.609375 0 
L 7.328125 0 
L 7.328125 8.296875 
Q 12.9375 14.109375 22.625 23.890625 
Q 32.328125 33.6875 34.8125 36.53125 
Q 39.546875 41.84375 41.421875 45.53125 
Q 43.3125 49.21875 43.3125 52.78125 
Q 43.3125 58.59375 39.234375 62.25 
Q 35.15625 65.921875 28.609375 65.921875 
Q 23.96875 65.921875 18.8125 64.3125 
Q 13.671875 62.703125 7.8125 59.421875 
L 7.8125 69.390625 
Q 13.765625 71.78125 18.9375 73 
Q 24.125 74.21875 28.421875 74.21875 
Q 39.75 74.21875 46.484375 68.546875 
Q 53.21875 62.890625 53.21875 53.421875 
Q 53.21875 48.921875 51.53125 44.890625 
Q 49.859375 40.875 45.40625 35.40625 
Q 44.1875 33.984375 37.640625 27.21875 
Q 31.109375 20.453125 19.1875 8.296875 
z
" id="DejaVuSans-50"/>
       </defs>
       <use xlink:href="#DejaVuSans-50"/>
      </g>
     </g>
    </g>
    <g id="xtick_3">
     <g id="line2d_3">
      <g>
       <use style="stroke:#000000;stroke-width:0.8;" x="160.498983" xlink:href="#mfd8322f1b7" y="307.584"/>
      </g>
     </g>
     <g id="text_3">
      <!-- 4 -->
      <g transform="translate(157.317733 322.182437)scale(0.1 -0.1)">
       <defs>
        <path d="M 37.796875 64.3125 
L 12.890625 25.390625 
L 37.796875 25.390625 
z
M 35.203125 72.90625 
L 47.609375 72.90625 
L 47.609375 25.390625 
L 58.015625 25.390625 
L 58.015625 17.1875 
L 47.609375 17.1875 
L 47.609375 0 
L 37.796875 0 
L 37.796875 17.1875 
L 4.890625 17.1875 
L 4.890625 26.703125 
z
" id="DejaVuSans-52"/>
       </defs>
       <use xlink:href="#DejaVuSans-52"/>
      </g>
     </g>
    </g>
    <g id="xtick_4">
     <g id="line2d_4">
      <g>
       <use style="stroke:#000000;stroke-width:0.8;" x="206.354145" xlink:href="#mfd8322f1b7" y="307.584"/>
      </g>
     </g>
     <g id="text_4">
      <!-- 6 -->
      <g transform="translate(203.172895 322.182437)scale(0.1 -0.1)">
       <defs>
        <path d="M 33.015625 40.375 
Q 26.375 40.375 22.484375 35.828125 
Q 18.609375 31.296875 18.609375 23.390625 
Q 18.609375 15.53125 22.484375 10.953125 
Q 26.375 6.390625 33.015625 6.390625 
Q 39.65625 6.390625 43.53125 10.953125 
Q 47.40625 15.53125 47.40625 23.390625 
Q 47.40625 31.296875 43.53125 35.828125 
Q 39.65625 40.375 33.015625 40.375 
z
M 52.59375 71.296875 
L 52.59375 62.3125 
Q 48.875 64.0625 45.09375 64.984375 
Q 41.3125 65.921875 37.59375 65.921875 
Q 27.828125 65.921875 22.671875 59.328125 
Q 17.53125 52.734375 16.796875 39.40625 
Q 19.671875 43.65625 24.015625 45.921875 
Q 28.375 48.1875 33.59375 48.1875 
Q 44.578125 48.1875 50.953125 41.515625 
Q 57.328125 34.859375 57.328125 23.390625 
Q 57.328125 12.15625 50.6875 5.359375 
Q 44.046875 -1.421875 33.015625 -1.421875 
Q 20.359375 -1.421875 13.671875 8.265625 
Q 6.984375 17.96875 6.984375 36.375 
Q 6.984375 53.65625 15.1875 63.9375 
Q 23.390625 74.21875 37.203125 74.21875 
Q 40.921875 74.21875 44.703125 73.484375 
Q 48.484375 72.75 52.59375 71.296875 
z
" id="DejaVuSans-54"/>
       </defs>
       <use xlink:href="#DejaVuSans-54"/>
      </g>
     </g>
    </g>
    <g id="xtick_5">
     <g id="line2d_5">
      <g>
       <use style="stroke:#000000;stroke-width:0.8;" x="252.209307" xlink:href="#mfd8322f1b7" y="307.584"/>
      </g>
     </g>
     <g id="text_5">
      <!-- 8 -->
      <g transform="translate(249.028057 322.182437)scale(0.1 -0.1)">
       <defs>
        <path d="M 31.78125 34.625 
Q 24.75 34.625 20.71875 30.859375 
Q 16.703125 27.09375 16.703125 20.515625 
Q 16.703125 13.921875 20.71875 10.15625 
Q 24.75 6.390625 31.78125 6.390625 
Q 38.8125 6.390625 42.859375 10.171875 
Q 46.921875 13.96875 46.921875 20.515625 
Q 46.921875 27.09375 42.890625 30.859375 
Q 38.875 34.625 31.78125 34.625 
z
M 21.921875 38.8125 
Q 15.578125 40.375 12.03125 44.71875 
Q 8.5 49.078125 8.5 55.328125 
Q 8.5 64.0625 14.71875 69.140625 
Q 20.953125 74.21875 31.78125 74.21875 
Q 42.671875 74.21875 48.875 69.140625 
Q 55.078125 64.0625 55.078125 55.328125 
Q 55.078125 49.078125 51.53125 44.71875 
Q 48 40.375 41.703125 38.8125 
Q 48.828125 37.15625 52.796875 32.3125 
Q 56.78125 27.484375 56.78125 20.515625 
Q 56.78125 9.90625 50.3125 4.234375 
Q 43.84375 -1.421875 31.78125 -1.421875 
Q 19.734375 -1.421875 13.25 4.234375 
Q 6.78125 9.90625 6.78125 20.515625 
Q 6.78125 27.484375 10.78125 32.3125 
Q 14.796875 37.15625 21.921875 38.8125 
z
M 18.3125 54.390625 
Q 18.3125 48.734375 21.84375 45.5625 
Q 25.390625 42.390625 31.78125 42.390625 
Q 38.140625 42.390625 41.71875 45.5625 
Q 45.3125 48.734375 45.3125 54.390625 
Q 45.3125 60.0625 41.71875 63.234375 
Q 38.140625 66.40625 31.78125 66.40625 
Q 25.390625 66.40625 21.84375 63.234375 
Q 18.3125 60.0625 18.3125 54.390625 
z
" id="DejaVuSans-56"/>
       </defs>
       <use xlink:href="#DejaVuSans-56"/>
      </g>
     </g>
    </g>
    <g id="xtick_6">
     <g id="line2d_6">
      <g>
       <use style="stroke:#000000;stroke-width:0.8;" x="298.064468" xlink:href="#mfd8322f1b7" y="307.584"/>
      </g>
     </g>
     <g id="text_6">
      <!-- 10 -->
      <g transform="translate(291.701968 322.182437)scale(0.1 -0.1)">
       <defs>
        <path d="M 12.40625 8.296875 
L 28.515625 8.296875 
L 28.515625 63.921875 
L 10.984375 60.40625 
L 10.984375 69.390625 
L 28.421875 72.90625 
L 38.28125 72.90625 
L 38.28125 8.296875 
L 54.390625 8.296875 
L 54.390625 0 
L 12.40625 0 
z
" id="DejaVuSans-49"/>
       </defs>
       <use xlink:href="#DejaVuSans-49"/>
       <use x="63.623047" xlink:href="#DejaVuSans-48"/>
      </g>
     </g>
    </g>
    <g id="xtick_7">
     <g id="line2d_7">
      <g>
       <use style="stroke:#000000;stroke-width:0.8;" x="343.91963" xlink:href="#mfd8322f1b7" y="307.584"/>
      </g>
     </g>
     <g id="text_7">
      <!-- 12 -->
      <g transform="translate(337.55713 322.182437)scale(0.1 -0.1)">
       <use xlink:href="#DejaVuSans-49"/>
       <use x="63.623047" xlink:href="#DejaVuSans-50"/>
      </g>
     </g>
    </g>
    <g id="xtick_8">
     <g id="line2d_8">
      <g>
       <use style="stroke:#000000;stroke-width:0.8;" x="389.774792" xlink:href="#mfd8322f1b7" y="307.584"/>
      </g>
     </g>
     <g id="text_8">
      <!-- 14 -->
      <g transform="translate(383.412292 322.182437)scale(0.1 -0.1)">
       <use xlink:href="#DejaVuSans-49"/>
       <use x="63.623047" xlink:href="#DejaVuSans-52"/>
      </g>
     </g>
    </g>
    <g id="text_9">
     <!-- wind_speed from OpenWeatherMap -->
     <g transform="translate(146.962344 335.860562)scale(0.1 -0.1)">
      <defs>
       <path d="M 4.203125 54.6875 
L 13.1875 54.6875 
L 24.421875 12.015625 
L 35.59375 54.6875 
L 46.1875 54.6875 
L 57.421875 12.015625 
L 68.609375 54.6875 
L 77.59375 54.6875 
L 63.28125 0 
L 52.6875 0 
L 40.921875 44.828125 
L 29.109375 0 
L 18.5 0 
z
" id="DejaVuSans-119"/>
       <path d="M 9.421875 54.6875 
L 18.40625 54.6875 
L 18.40625 0 
L 9.421875 0 
z
M 9.421875 75.984375 
L 18.40625 75.984375 
L 18.40625 64.59375 
L 9.421875 64.59375 
z
" id="DejaVuSans-105"/>
       <path d="M 54.890625 33.015625 
L 54.890625 0 
L 45.90625 0 
L 45.90625 32.71875 
Q 45.90625 40.484375 42.875 44.328125 
Q 39.84375 48.1875 33.796875 48.1875 
Q 26.515625 48.1875 22.3125 43.546875 
Q 18.109375 38.921875 18.109375 30.90625 
L 18.109375 0 
L 9.078125 0 
L 9.078125 54.6875 
L 18.109375 54.6875 
L 18.109375 46.1875 
Q 21.34375 51.125 25.703125 53.5625 
Q 30.078125 56 35.796875 56 
Q 45.21875 56 50.046875 50.171875 
Q 54.890625 44.34375 54.890625 33.015625 
z
" id="DejaVuSans-110"/>
       <path d="M 45.40625 46.390625 
L 45.40625 75.984375 
L 54.390625 75.984375 
L 54.390625 0 
L 45.40625 0 
L 45.40625 8.203125 
Q 42.578125 3.328125 38.25 0.953125 
Q 33.9375 -1.421875 27.875 -1.421875 
Q 17.96875 -1.421875 11.734375 6.484375 
Q 5.515625 14.40625 5.515625 27.296875 
Q 5.515625 40.1875 11.734375 48.09375 
Q 17.96875 56 27.875 56 
Q 33.9375 56 38.25 53.625 
Q 42.578125 51.265625 45.40625 46.390625 
z
M 14.796875 27.296875 
Q 14.796875 17.390625 18.875 11.75 
Q 22.953125 6.109375 30.078125 6.109375 
Q 37.203125 6.109375 41.296875 11.75 
Q 45.40625 17.390625 45.40625 27.296875 
Q 45.40625 37.203125 41.296875 42.84375 
Q 37.203125 48.484375 30.078125 48.484375 
Q 22.953125 48.484375 18.875 42.84375 
Q 14.796875 37.203125 14.796875 27.296875 
z
" id="DejaVuSans-100"/>
       <path d="M 50.984375 -16.609375 
L 50.984375 -23.578125 
L -0.984375 -23.578125 
L -0.984375 -16.609375 
z
" id="DejaVuSans-95"/>
       <path d="M 44.28125 53.078125 
L 44.28125 44.578125 
Q 40.484375 46.53125 36.375 47.5 
Q 32.28125 48.484375 27.875 48.484375 
Q 21.1875 48.484375 17.84375 46.4375 
Q 14.5 44.390625 14.5 40.28125 
Q 14.5 37.15625 16.890625 35.375 
Q 19.28125 33.59375 26.515625 31.984375 
L 29.59375 31.296875 
Q 39.15625 29.25 43.1875 25.515625 
Q 47.21875 21.78125 47.21875 15.09375 
Q 47.21875 7.46875 41.1875 3.015625 
Q 35.15625 -1.421875 24.609375 -1.421875 
Q 20.21875 -1.421875 15.453125 -0.5625 
Q 10.6875 0.296875 5.421875 2 
L 5.421875 11.28125 
Q 10.40625 8.6875 15.234375 7.390625 
Q 20.0625 6.109375 24.8125 6.109375 
Q 31.15625 6.109375 34.5625 8.28125 
Q 37.984375 10.453125 37.984375 14.40625 
Q 37.984375 18.0625 35.515625 20.015625 
Q 33.0625 21.96875 24.703125 23.78125 
L 21.578125 24.515625 
Q 13.234375 26.265625 9.515625 29.90625 
Q 5.8125 33.546875 5.8125 39.890625 
Q 5.8125 47.609375 11.28125 51.796875 
Q 16.75 56 26.8125 56 
Q 31.78125 56 36.171875 55.265625 
Q 40.578125 54.546875 44.28125 53.078125 
z
" id="DejaVuSans-115"/>
       <path d="M 18.109375 8.203125 
L 18.109375 -20.796875 
L 9.078125 -20.796875 
L 9.078125 54.6875 
L 18.109375 54.6875 
L 18.109375 46.390625 
Q 20.953125 51.265625 25.265625 53.625 
Q 29.59375 56 35.59375 56 
Q 45.5625 56 51.78125 48.09375 
Q 58.015625 40.1875 58.015625 27.296875 
Q 58.015625 14.40625 51.78125 6.484375 
Q 45.5625 -1.421875 35.59375 -1.421875 
Q 29.59375 -1.421875 25.265625 0.953125 
Q 20.953125 3.328125 18.109375 8.203125 
z
M 48.6875 27.296875 
Q 48.6875 37.203125 44.609375 42.84375 
Q 40.53125 48.484375 33.40625 48.484375 
Q 26.265625 48.484375 22.1875 42.84375 
Q 18.109375 37.203125 18.109375 27.296875 
Q 18.109375 17.390625 22.1875 11.75 
Q 26.265625 6.109375 33.40625 6.109375 
Q 40.53125 6.109375 44.609375 11.75 
Q 48.6875 17.390625 48.6875 27.296875 
z
" id="DejaVuSans-112"/>
       <path d="M 56.203125 29.59375 
L 56.203125 25.203125 
L 14.890625 25.203125 
Q 15.484375 15.921875 20.484375 11.0625 
Q 25.484375 6.203125 34.421875 6.203125 
Q 39.59375 6.203125 44.453125 7.46875 
Q 49.3125 8.734375 54.109375 11.28125 
L 54.109375 2.78125 
Q 49.265625 0.734375 44.1875 -0.34375 
Q 39.109375 -1.421875 33.890625 -1.421875 
Q 20.796875 -1.421875 13.15625 6.1875 
Q 5.515625 13.8125 5.515625 26.8125 
Q 5.515625 40.234375 12.765625 48.109375 
Q 20.015625 56 32.328125 56 
Q 43.359375 56 49.78125 48.890625 
Q 56.203125 41.796875 56.203125 29.59375 
z
M 47.21875 32.234375 
Q 47.125 39.59375 43.09375 43.984375 
Q 39.0625 48.390625 32.421875 48.390625 
Q 24.90625 48.390625 20.390625 44.140625 
Q 15.875 39.890625 15.1875 32.171875 
z
" id="DejaVuSans-101"/>
       <path id="DejaVuSans-32"/>
       <path d="M 37.109375 75.984375 
L 37.109375 68.5 
L 28.515625 68.5 
Q 23.6875 68.5 21.796875 66.546875 
Q 19.921875 64.59375 19.921875 59.515625 
L 19.921875 54.6875 
L 34.71875 54.6875 
L 34.71875 47.703125 
L 19.921875 47.703125 
L 19.921875 0 
L 10.890625 0 
L 10.890625 47.703125 
L 2.296875 47.703125 
L 2.296875 54.6875 
L 10.890625 54.6875 
L 10.890625 58.5 
Q 10.890625 67.625 15.140625 71.796875 
Q 19.390625 75.984375 28.609375 75.984375 
z
" id="DejaVuSans-102"/>
       <path d="M 41.109375 46.296875 
Q 39.59375 47.171875 37.8125 47.578125 
Q 36.03125 48 33.890625 48 
Q 26.265625 48 22.1875 43.046875 
Q 18.109375 38.09375 18.109375 28.8125 
L 18.109375 0 
L 9.078125 0 
L 9.078125 54.6875 
L 18.109375 54.6875 
L 18.109375 46.1875 
Q 20.953125 51.171875 25.484375 53.578125 
Q 30.03125 56 36.53125 56 
Q 37.453125 56 38.578125 55.875 
Q 39.703125 55.765625 41.0625 55.515625 
z
" id="DejaVuSans-114"/>
       <path d="M 30.609375 48.390625 
Q 23.390625 48.390625 19.1875 42.75 
Q 14.984375 37.109375 14.984375 27.296875 
Q 14.984375 17.484375 19.15625 11.84375 
Q 23.34375 6.203125 30.609375 6.203125 
Q 37.796875 6.203125 41.984375 11.859375 
Q 46.1875 17.53125 46.1875 27.296875 
Q 46.1875 37.015625 41.984375 42.703125 
Q 37.796875 48.390625 30.609375 48.390625 
z
M 30.609375 56 
Q 42.328125 56 49.015625 48.375 
Q 55.71875 40.765625 55.71875 27.296875 
Q 55.71875 13.875 49.015625 6.21875 
Q 42.328125 -1.421875 30.609375 -1.421875 
Q 18.84375 -1.421875 12.171875 6.21875 
Q 5.515625 13.875 5.515625 27.296875 
Q 5.515625 40.765625 12.171875 48.375 
Q 18.84375 56 30.609375 56 
z
" id="DejaVuSans-111"/>
       <path d="M 52 44.1875 
Q 55.375 50.25 60.0625 53.125 
Q 64.75 56 71.09375 56 
Q 79.640625 56 84.28125 50.015625 
Q 88.921875 44.046875 88.921875 33.015625 
L 88.921875 0 
L 79.890625 0 
L 79.890625 32.71875 
Q 79.890625 40.578125 77.09375 44.375 
Q 74.3125 48.1875 68.609375 48.1875 
Q 61.625 48.1875 57.5625 43.546875 
Q 53.515625 38.921875 53.515625 30.90625 
L 53.515625 0 
L 44.484375 0 
L 44.484375 32.71875 
Q 44.484375 40.625 41.703125 44.40625 
Q 38.921875 48.1875 33.109375 48.1875 
Q 26.21875 48.1875 22.15625 43.53125 
Q 18.109375 38.875 18.109375 30.90625 
L 18.109375 0 
L 9.078125 0 
L 9.078125 54.6875 
L 18.109375 54.6875 
L 18.109375 46.1875 
Q 21.1875 51.21875 25.484375 53.609375 
Q 29.78125 56 35.6875 56 
Q 41.65625 56 45.828125 52.96875 
Q 50 49.953125 52 44.1875 
z
" id="DejaVuSans-109"/>
       <path d="M 39.40625 66.21875 
Q 28.65625 66.21875 22.328125 58.203125 
Q 16.015625 50.203125 16.015625 36.375 
Q 16.015625 22.609375 22.328125 14.59375 
Q 28.65625 6.59375 39.40625 6.59375 
Q 50.140625 6.59375 56.421875 14.59375 
Q 62.703125 22.609375 62.703125 36.375 
Q 62.703125 50.203125 56.421875 58.203125 
Q 50.140625 66.21875 39.40625 66.21875 
z
M 39.40625 74.21875 
Q 54.734375 74.21875 63.90625 63.9375 
Q 73.09375 53.65625 73.09375 36.375 
Q 73.09375 19.140625 63.90625 8.859375 
Q 54.734375 -1.421875 39.40625 -1.421875 
Q 24.03125 -1.421875 14.8125 8.828125 
Q 5.609375 19.09375 5.609375 36.375 
Q 5.609375 53.65625 14.8125 63.9375 
Q 24.03125 74.21875 39.40625 74.21875 
z
" id="DejaVuSans-79"/>
       <path d="M 3.328125 72.90625 
L 13.28125 72.90625 
L 28.609375 11.28125 
L 43.890625 72.90625 
L 54.984375 72.90625 
L 70.3125 11.28125 
L 85.59375 72.90625 
L 95.609375 72.90625 
L 77.296875 0 
L 64.890625 0 
L 49.515625 63.28125 
L 33.984375 0 
L 21.578125 0 
z
" id="DejaVuSans-87"/>
       <path d="M 34.28125 27.484375 
Q 23.390625 27.484375 19.1875 25 
Q 14.984375 22.515625 14.984375 16.5 
Q 14.984375 11.71875 18.140625 8.90625 
Q 21.296875 6.109375 26.703125 6.109375 
Q 34.1875 6.109375 38.703125 11.40625 
Q 43.21875 16.703125 43.21875 25.484375 
L 43.21875 27.484375 
z
M 52.203125 31.203125 
L 52.203125 0 
L 43.21875 0 
L 43.21875 8.296875 
Q 40.140625 3.328125 35.546875 0.953125 
Q 30.953125 -1.421875 24.3125 -1.421875 
Q 15.921875 -1.421875 10.953125 3.296875 
Q 6 8.015625 6 15.921875 
Q 6 25.140625 12.171875 29.828125 
Q 18.359375 34.515625 30.609375 34.515625 
L 43.21875 34.515625 
L 43.21875 35.40625 
Q 43.21875 41.609375 39.140625 45 
Q 35.0625 48.390625 27.6875 48.390625 
Q 23 48.390625 18.546875 47.265625 
Q 14.109375 46.140625 10.015625 43.890625 
L 10.015625 52.203125 
Q 14.9375 54.109375 19.578125 55.046875 
Q 24.21875 56 28.609375 56 
Q 40.484375 56 46.34375 49.84375 
Q 52.203125 43.703125 52.203125 31.203125 
z
" id="DejaVuSans-97"/>
       <path d="M 18.3125 70.21875 
L 18.3125 54.6875 
L 36.8125 54.6875 
L 36.8125 47.703125 
L 18.3125 47.703125 
L 18.3125 18.015625 
Q 18.3125 11.328125 20.140625 9.421875 
Q 21.96875 7.515625 27.59375 7.515625 
L 36.8125 7.515625 
L 36.8125 0 
L 27.59375 0 
Q 17.1875 0 13.234375 3.875 
Q 9.28125 7.765625 9.28125 18.015625 
L 9.28125 47.703125 
L 2.6875 47.703125 
L 2.6875 54.6875 
L 9.28125 54.6875 
L 9.28125 70.21875 
z
" id="DejaVuSans-116"/>
       <path d="M 54.890625 33.015625 
L 54.890625 0 
L 45.90625 0 
L 45.90625 32.71875 
Q 45.90625 40.484375 42.875 44.328125 
Q 39.84375 48.1875 33.796875 48.1875 
Q 26.515625 48.1875 22.3125 43.546875 
Q 18.109375 38.921875 18.109375 30.90625 
L 18.109375 0 
L 9.078125 0 
L 9.078125 75.984375 
L 18.109375 75.984375 
L 18.109375 46.1875 
Q 21.34375 51.125 25.703125 53.5625 
Q 30.078125 56 35.796875 56 
Q 45.21875 56 50.046875 50.171875 
Q 54.890625 44.34375 54.890625 33.015625 
z
" id="DejaVuSans-104"/>
       <path d="M 9.8125 72.90625 
L 24.515625 72.90625 
L 43.109375 23.296875 
L 61.8125 72.90625 
L 76.515625 72.90625 
L 76.515625 0 
L 66.890625 0 
L 66.890625 64.015625 
L 48.09375 14.015625 
L 38.1875 14.015625 
L 19.390625 64.015625 
L 19.390625 0 
L 9.8125 0 
z
" id="DejaVuSans-77"/>
      </defs>
      <use xlink:href="#DejaVuSans-119"/>
      <use x="81.787109" xlink:href="#DejaVuSans-105"/>
      <use x="109.570312" xlink:href="#DejaVuSans-110"/>
      <use x="172.949219" xlink:href="#DejaVuSans-100"/>
      <use x="236.425781" xlink:href="#DejaVuSans-95"/>
      <use x="286.425781" xlink:href="#DejaVuSans-115"/>
      <use x="338.525391" xlink:href="#DejaVuSans-112"/>
      <use x="402.001953" xlink:href="#DejaVuSans-101"/>
      <use x="463.525391" xlink:href="#DejaVuSans-101"/>
      <use x="525.048828" xlink:href="#DejaVuSans-100"/>
      <use x="588.525391" xlink:href="#DejaVuSans-32"/>
      <use x="620.3125" xlink:href="#DejaVuSans-102"/>
      <use x="655.517578" xlink:href="#DejaVuSans-114"/>
      <use x="694.380859" xlink:href="#DejaVuSans-111"/>
      <use x="755.5625" xlink:href="#DejaVuSans-109"/>
      <use x="852.974609" xlink:href="#DejaVuSans-32"/>
      <use x="884.761719" xlink:href="#DejaVuSans-79"/>
      <use x="963.472656" xlink:href="#DejaVuSans-112"/>
      <use x="1026.949219" xlink:href="#DejaVuSans-101"/>
      <use x="1088.472656" xlink:href="#DejaVuSans-110"/>
      <use x="1151.851562" xlink:href="#DejaVuSans-87"/>
      <use x="1244.853516" xlink:href="#DejaVuSans-101"/>
      <use x="1306.376953" xlink:href="#DejaVuSans-97"/>
      <use x="1367.65625" xlink:href="#DejaVuSans-116"/>
      <use x="1406.865234" xlink:href="#DejaVuSans-104"/>
      <use x="1470.244141" xlink:href="#DejaVuSans-101"/>
      <use x="1531.767578" xlink:href="#DejaVuSans-114"/>
      <use x="1572.880859" xlink:href="#DejaVuSans-77"/>
      <use x="1659.160156" xlink:href="#DejaVuSans-97"/>
      <use x="1720.439453" xlink:href="#DejaVuSans-112"/>
     </g>
    </g>
   </g>
   <g id="matplotlib.axis_2">
    <g id="ytick_1">
     <g id="line2d_9">
      <defs>
       <path d="M 0 0 
L -3.5 0 
" id="m345a7d97a6" style="stroke:#000000;stroke-width:0.8;"/>
      </defs>
      <g>
       <use style="stroke:#000000;stroke-width:0.8;" x="57.6" xlink:href="#m345a7d97a6" y="305.11125"/>
      </g>
     </g>
     <g id="text_10">
      <!-- 5 -->
      <g transform="translate(44.2375 308.910469)scale(0.1 -0.1)">
       <defs>
        <path d="M 10.796875 72.90625 
L 49.515625 72.90625 
L 49.515625 64.59375 
L 19.828125 64.59375 
L 19.828125 46.734375 
Q 21.96875 47.46875 24.109375 47.828125 
Q 26.265625 48.1875 28.421875 48.1875 
Q 40.625 48.1875 47.75 41.5 
Q 54.890625 34.8125 54.890625 23.390625 
Q 54.890625 11.625 47.5625 5.09375 
Q 40.234375 -1.421875 26.90625 -1.421875 
Q 22.3125 -1.421875 17.546875 -0.640625 
Q 12.796875 0.140625 7.71875 1.703125 
L 7.71875 11.625 
Q 12.109375 9.234375 16.796875 8.0625 
Q 21.484375 6.890625 26.703125 6.890625 
Q 35.15625 6.890625 40.078125 11.328125 
Q 45.015625 15.765625 45.015625 23.390625 
Q 45.015625 31 40.078125 35.4375 
Q 35.15625 39.890625 26.703125 39.890625 
Q 22.75 39.890625 18.8125 39.015625 
Q 14.890625 38.140625 10.796875 36.28125 
z
" id="DejaVuSans-53"/>
       </defs>
       <use xlink:href="#DejaVuSans-53"/>
      </g>
     </g>
    </g>
    <g id="ytick_2">
     <g id="line2d_10">
      <g>
       <use style="stroke:#000000;stroke-width:0.8;" x="57.6" xlink:href="#m345a7d97a6" y="255.033625"/>
      </g>
     </g>
     <g id="text_11">
      <!-- 10 -->
      <g transform="translate(37.875 258.832844)scale(0.1 -0.1)">
       <use xlink:href="#DejaVuSans-49"/>
       <use x="63.623047" xlink:href="#DejaVuSans-48"/>
      </g>
     </g>
    </g>
    <g id="ytick_3">
     <g id="line2d_11">
      <g>
       <use style="stroke:#000000;stroke-width:0.8;" x="57.6" xlink:href="#m345a7d97a6" y="204.956"/>
      </g>
     </g>
     <g id="text_12">
      <!-- 15 -->
      <g transform="translate(37.875 208.755219)scale(0.1 -0.1)">
       <use xlink:href="#DejaVuSans-49"/>
       <use x="63.623047" xlink:href="#DejaVuSans-53"/>
      </g>
     </g>
    </g>
    <g id="ytick_4">
     <g id="line2d_12">
      <g>
       <use style="stroke:#000000;stroke-width:0.8;" x="57.6" xlink:href="#m345a7d97a6" y="154.878374"/>
      </g>
     </g>
     <g id="text_13">
      <!-- 20 -->
      <g transform="translate(37.875 158.677593)scale(0.1 -0.1)">
       <use xlink:href="#DejaVuSans-50"/>
       <use x="63.623047" xlink:href="#DejaVuSans-48"/>
      </g>
     </g>
    </g>
    <g id="ytick_5">
     <g id="line2d_13">
      <g>
       <use style="stroke:#000000;stroke-width:0.8;" x="57.6" xlink:href="#m345a7d97a6" y="104.800749"/>
      </g>
     </g>
     <g id="text_14">
      <!-- 25 -->
      <g transform="translate(37.875 108.599968)scale(0.1 -0.1)">
       <use xlink:href="#DejaVuSans-50"/>
       <use x="63.623047" xlink:href="#DejaVuSans-53"/>
      </g>
     </g>
    </g>
    <g id="ytick_6">
     <g id="line2d_14">
      <g>
       <use style="stroke:#000000;stroke-width:0.8;" x="57.6" xlink:href="#m345a7d97a6" y="54.723124"/>
      </g>
     </g>
     <g id="text_15">
      <!-- 30 -->
      <g transform="translate(37.875 58.522343)scale(0.1 -0.1)">
       <defs>
        <path d="M 40.578125 39.3125 
Q 47.65625 37.796875 51.625 33 
Q 55.609375 28.21875 55.609375 21.1875 
Q 55.609375 10.40625 48.1875 4.484375 
Q 40.765625 -1.421875 27.09375 -1.421875 
Q 22.515625 -1.421875 17.65625 -0.515625 
Q 12.796875 0.390625 7.625 2.203125 
L 7.625 11.71875 
Q 11.71875 9.328125 16.59375 8.109375 
Q 21.484375 6.890625 26.8125 6.890625 
Q 36.078125 6.890625 40.9375 10.546875 
Q 45.796875 14.203125 45.796875 21.1875 
Q 45.796875 27.640625 41.28125 31.265625 
Q 36.765625 34.90625 28.71875 34.90625 
L 20.21875 34.90625 
L 20.21875 43.015625 
L 29.109375 43.015625 
Q 36.375 43.015625 40.234375 45.921875 
Q 44.09375 48.828125 44.09375 54.296875 
Q 44.09375 59.90625 40.109375 62.90625 
Q 36.140625 65.921875 28.71875 65.921875 
Q 24.65625 65.921875 20.015625 65.03125 
Q 15.375 64.15625 9.8125 62.3125 
L 9.8125 71.09375 
Q 15.4375 72.65625 20.34375 73.4375 
Q 25.25 74.21875 29.59375 74.21875 
Q 40.828125 74.21875 47.359375 69.109375 
Q 53.90625 64.015625 53.90625 55.328125 
Q 53.90625 49.265625 50.4375 45.09375 
Q 46.96875 40.921875 40.578125 39.3125 
z
" id="DejaVuSans-51"/>
       </defs>
       <use xlink:href="#DejaVuSans-51"/>
       <use x="63.623047" xlink:href="#DejaVuSans-48"/>
      </g>
     </g>
    </g>
    <g id="text_16">
     <!-- ping_day[ms] -->
     <g transform="translate(31.517187 208.508469)rotate(-90)scale(0.1 -0.1)">
      <defs>
       <path d="M 45.40625 27.984375 
Q 45.40625 37.75 41.375 43.109375 
Q 37.359375 48.484375 30.078125 48.484375 
Q 22.859375 48.484375 18.828125 43.109375 
Q 14.796875 37.75 14.796875 27.984375 
Q 14.796875 18.265625 18.828125 12.890625 
Q 22.859375 7.515625 30.078125 7.515625 
Q 37.359375 7.515625 41.375 12.890625 
Q 45.40625 18.265625 45.40625 27.984375 
z
M 54.390625 6.78125 
Q 54.390625 -7.171875 48.1875 -13.984375 
Q 42 -20.796875 29.203125 -20.796875 
Q 24.46875 -20.796875 20.265625 -20.09375 
Q 16.0625 -19.390625 12.109375 -17.921875 
L 12.109375 -9.1875 
Q 16.0625 -11.328125 19.921875 -12.34375 
Q 23.78125 -13.375 27.78125 -13.375 
Q 36.625 -13.375 41.015625 -8.765625 
Q 45.40625 -4.15625 45.40625 5.171875 
L 45.40625 9.625 
Q 42.625 4.78125 38.28125 2.390625 
Q 33.9375 0 27.875 0 
Q 17.828125 0 11.671875 7.65625 
Q 5.515625 15.328125 5.515625 27.984375 
Q 5.515625 40.671875 11.671875 48.328125 
Q 17.828125 56 27.875 56 
Q 33.9375 56 38.28125 53.609375 
Q 42.625 51.21875 45.40625 46.390625 
L 45.40625 54.6875 
L 54.390625 54.6875 
z
" id="DejaVuSans-103"/>
       <path d="M 32.171875 -5.078125 
Q 28.375 -14.84375 24.75 -17.8125 
Q 21.140625 -20.796875 15.09375 -20.796875 
L 7.90625 -20.796875 
L 7.90625 -13.28125 
L 13.1875 -13.28125 
Q 16.890625 -13.28125 18.9375 -11.515625 
Q 21 -9.765625 23.484375 -3.21875 
L 25.09375 0.875 
L 2.984375 54.6875 
L 12.5 54.6875 
L 29.59375 11.921875 
L 46.6875 54.6875 
L 56.203125 54.6875 
z
" id="DejaVuSans-121"/>
       <path d="M 8.59375 75.984375 
L 29.296875 75.984375 
L 29.296875 69 
L 17.578125 69 
L 17.578125 -6.203125 
L 29.296875 -6.203125 
L 29.296875 -13.1875 
L 8.59375 -13.1875 
z
" id="DejaVuSans-91"/>
       <path d="M 30.421875 75.984375 
L 30.421875 -13.1875 
L 9.71875 -13.1875 
L 9.71875 -6.203125 
L 21.390625 -6.203125 
L 21.390625 69 
L 9.71875 69 
L 9.71875 75.984375 
z
" id="DejaVuSans-93"/>
      </defs>
      <use xlink:href="#DejaVuSans-112"/>
      <use x="63.476562" xlink:href="#DejaVuSans-105"/>
      <use x="91.259766" xlink:href="#DejaVuSans-110"/>
      <use x="154.638672" xlink:href="#DejaVuSans-103"/>
      <use x="218.115234" xlink:href="#DejaVuSans-95"/>
      <use x="268.115234" xlink:href="#DejaVuSans-100"/>
      <use x="331.591797" xlink:href="#DejaVuSans-97"/>
      <use x="392.871094" xlink:href="#DejaVuSans-121"/>
      <use x="452.050781" xlink:href="#DejaVuSans-91"/>
      <use x="491.064453" xlink:href="#DejaVuSans-109"/>
      <use x="588.476562" xlink:href="#DejaVuSans-115"/>
      <use x="640.576172" xlink:href="#DejaVuSans-93"/>
     </g>
    </g>
   </g>
   <g id="line2d_15">
    <path clip-path="url(#pebc856face)" d="M 73.832727 274.81884 
L 75.208382 266.91788 
L 75.89621 280.454697 
L 78.188968 254.813283 
L 79.564622 249.342075 
L 80.711002 287.604113 
L 82.774484 276.03952 
L 83.462311 288.336498 
L 83.691587 283.428473 
L 85.296518 287.927341 
L 85.984345 281.07308 
L 86.442897 285.789633 
L 86.672173 236.925556 
L 87.818552 287.775211 
L 88.047827 289.15938 
L 88.277103 287.665875 
L 88.506379 209.364652 
L 89.882034 294.820855 
L 90.11131 266.738435 
L 90.340586 291.035585 
L 91.257689 262.213087 
L 91.71624 285.267157 
L 91.945516 285.141963 
L 92.862619 277.759686 
L 93.091895 290.913242 
L 93.550447 271.145266 
L 94.008998 267.810931 
L 94.238274 271.617665 
L 94.46755 287.49895 
L 94.926102 289.208266 
L 95.155378 276.75563 
L 95.613929 286.066968 
L 95.843205 286.882995 
L 96.072481 234.821525 
L 96.989584 262.668939 
L 97.21886 285.25881 
L 97.906687 287.177297 
L 98.135963 254.08215 
L 98.365239 277.51948 
L 98.594515 287.460891 
L 99.053066 276.324864 
L 99.511618 286.341322 
L 99.740894 263.265552 
L 100.199445 272.448954 
L 100.657997 263.668677 
L 100.887273 284.737168 
L 101.116549 287.281946 
L 101.345824 287.580743 
L 101.804376 289.220785 
L 102.262928 289.519582 
L 102.492203 281.30974 
L 102.950755 291.600307 
L 103.638582 277.638665 
L 103.867858 285.26048 
L 104.555686 291.687943 
L 105.014237 250.680996 
L 105.243513 285.204239 
L 105.472789 279.26118 
L 106.160616 282.407822 
L 106.848444 266.595595 
L 107.306995 259.673124 
L 107.536271 283.268225 
L 107.994823 277.973629 
L 108.224099 286.955107 
L 108.453374 283.807672 
L 108.68265 285.273834 
L 108.911926 270.65813 
L 109.370478 277.191543 
L 109.599753 285.495581 
L 109.829029 279.702531 
L 110.287581 258.483544 
L 110.516857 285.377199 
L 110.746133 273.125419 
L 110.975408 282.096408 
L 111.663236 272.786859 
L 112.351063 286.269266 
L 112.580339 219.916838 
L 113.038891 287.426337 
L 113.497442 201.318823 
L 113.726718 285.135286 
L 113.955994 284.399145 
L 114.18527 266.774625 
L 114.414545 288.581279 
L 114.643821 283.730836 
L 115.560924 289.304897 
L 115.7902 287.703195 
L 116.019476 274.655291 
L 116.248752 271.337469 
L 116.478028 281.191564 
L 116.707304 273.839443 
L 116.936579 281.414518 
L 117.165855 225.714264 
L 117.853683 289.217701 
L 119.000062 284.811728 
L 119.229337 282.558514 
L 119.687889 255.582476 
L 119.917165 286.974804 
L 120.146441 252.758432 
L 120.375716 284.48372 
L 120.604992 290.748987 
L 120.834268 272.657611 
L 121.063544 287.308563 
L 121.29282 290.533654 
L 121.522096 286.110032 
L 121.751371 286.633441 
L 121.980647 275.878244 
L 122.209923 290.365785 
L 122.668475 286.193593 
L 122.89775 285.661101 
L 123.127026 259.799346 
L 123.585578 275.852492 
L 123.814854 278.896043 
L 124.044129 290.459205 
L 124.273405 288.613177 
L 124.502681 289.318993 
L 124.731957 249.282972 
L 125.190508 282.485409 
L 125.419784 273.826602 
L 125.64906 273.925637 
L 126.107612 291.809723 
L 126.336888 282.814688 
L 126.566163 285.599806 
L 127.024715 280.13176 
L 127.253991 264.556435 
L 127.483267 289.95633 
L 127.712542 272.42475 
L 127.941818 277.531603 
L 128.171094 262.654226 
L 128.40037 278.870932 
L 128.629646 271.588453 
L 128.858921 290.604597 
L 129.088197 280.466298 
L 129.317473 280.233799 
L 129.546749 288.882761 
L 130.0053 286.39624 
L 130.234576 275.159823 
L 130.463852 213.802713 
L 130.693128 283.297159 
L 130.922404 266.240719 
L 131.15168 289.168037 
L 131.610231 282.314842 
L 131.839507 267.358444 
L 132.298059 281.343783 
L 132.75661 282.461975 
L 132.985886 266.674278 
L 133.215162 285.527791 
L 133.444438 280.439674 
L 133.673713 290.653455 
L 133.902989 281.210702 
L 134.132265 279.624944 
L 134.361541 267.890384 
L 134.590817 277.520851 
L 135.049368 277.56596 
L 135.278644 261.489997 
L 135.50792 259.361638 
L 135.737196 260.221078 
L 135.966471 267.563047 
L 136.195747 287.611951 
L 136.425023 283.933423 
L 136.883575 280.38449 
L 137.112851 291.551956 
L 137.571402 274.506259 
L 137.800678 276.957609 
L 138.25923 274.529274 
L 138.717781 268.256013 
L 138.947057 267.775816 
L 139.176333 283.579588 
L 139.405609 282.035994 
L 139.634884 248.862345 
L 139.86416 267.091704 
L 140.093436 265.927655 
L 140.551988 241.983674 
L 140.781263 274.983299 
L 141.239815 281.638594 
L 141.469091 283.535305 
L 141.698367 268.552438 
L 141.927643 280.17927 
L 142.156918 284.228881 
L 142.386194 267.753342 
L 142.61547 287.093947 
L 143.074022 256.360682 
L 143.303297 281.610377 
L 143.532573 284.793234 
L 143.761849 291.124976 
L 144.220401 285.240449 
L 144.449676 286.145184 
L 144.908228 284.353889 
L 145.137504 216.571783 
L 145.36678 270.145622 
L 145.596055 281.183207 
L 145.825331 275.110418 
L 146.054607 290.375681 
L 146.283883 283.799882 
L 146.513159 288.874971 
L 146.742435 282.132152 
L 146.97171 263.223508 
L 147.200986 286.103787 
L 147.430262 282.5855 
L 147.659538 260.42309 
L 147.888814 288.585157 
L 148.118089 286.733388 
L 148.347365 279.519289 
L 148.576641 295.488 
L 148.805917 272.581414 
L 149.035193 291.513506 
L 149.264468 288.287046 
L 149.493744 286.769776 
L 149.72302 293.009992 
L 149.952296 268.074629 
L 150.181572 266.864504 
L 150.410847 279.945441 
L 150.640123 277.555336 
L 150.869399 271.740022 
L 151.098675 274.230287 
L 151.557227 276.954561 
L 152.015778 288.704986 
L 152.245054 266.121722 
L 152.703606 290.693717 
L 152.932881 280.506214 
L 153.162157 253.028793 
L 153.391433 284.629502 
L 153.620709 270.733676 
L 153.849985 289.097072 
L 154.07926 291.701893 
L 154.308536 290.631533 
L 154.767088 280.730887 
L 154.996364 289.495795 
L 155.225639 281.56867 
L 155.454915 282.519564 
L 155.684191 288.230798 
L 155.913467 230.376833 
L 156.142743 283.922508 
L 156.601294 289.833401 
L 156.83057 279.999658 
L 157.059846 289.058868 
L 157.289122 260.932769 
L 157.518398 284.884897 
L 157.747673 274.423682 
L 157.976949 288.845465 
L 158.435501 264.104856 
L 158.664777 286.968365 
L 158.894052 283.672017 
L 159.123328 287.605543 
L 159.58188 283.368261 
L 159.811156 283.677225 
L 160.040431 268.625848 
L 160.498983 197.495149 
L 160.728259 255.753565 
L 160.957535 285.256903 
L 161.18681 210.759281 
L 161.416086 280.36133 
L 161.645362 269.830475 
L 161.874638 276.645307 
L 162.103914 248.067226 
L 162.33319 276.964763 
L 162.562465 277.985314 
L 162.791741 277.682483 
L 163.021017 262.802334 
L 163.250293 287.078753 
L 163.479569 290.925928 
L 163.708844 274.090813 
L 163.93812 273.500712 
L 164.167396 285.230834 
L 164.396672 291.254771 
L 164.625948 256.31176 
L 165.084499 277.864087 
L 165.313775 282.010442 
L 166.001602 287.145068 
L 166.460154 249.686423 
L 167.147982 289.926462 
L 167.377257 257.50746 
L 167.606533 282.491187 
L 167.835809 269.337857 
L 168.065085 284.381918 
L 168.294361 288.579625 
L 168.523636 224.556382 
L 168.752912 233.434492 
L 169.211464 286.045029 
L 169.670015 287.23938 
L 169.899291 191.445056 
L 170.128567 273.084105 
L 170.587119 282.786645 
L 170.816394 291.061472 
L 171.04567 287.173445 
L 171.504222 275.941034 
L 172.192049 216.944166 
L 172.650601 280.486413 
L 172.879877 286.314421 
L 173.109153 279.648644 
L 173.338428 228.505838 
L 173.567704 279.307381 
L 173.79698 292.44948 
L 174.026256 258.59629 
L 174.255532 268.060485 
L 174.484807 286.60256 
L 175.401911 269.600968 
L 176.319014 223.398158 
L 176.54829 290.327501 
L 177.006841 252.070163 
L 177.465393 286.382436 
L 177.923945 264.567878 
L 178.15322 264.974451 
L 178.382496 238.936855 
L 178.841048 285.509286 
L 179.070324 238.618693 
L 179.299599 274.705719 
L 179.528875 287.866185 
L 179.758151 268.165091 
L 179.987427 274.042009 
L 180.216703 255.094629 
L 180.445978 284.339051 
L 180.90453 272.528549 
L 181.133806 269.828225 
L 181.592357 286.894317 
L 181.821633 265.081104 
L 182.050909 267.435608 
L 182.280185 282.010442 
L 182.509461 247.039233 
L 182.738737 258.182951 
L 182.968012 255.415328 
L 183.197288 287.152236 
L 183.885116 273.947318 
L 184.114391 286.661985 
L 184.572943 272.540308 
L 185.031495 240.20564 
L 185.26077 283.32637 
L 185.490046 266.412931 
L 185.719322 288.470455 
L 185.948598 257.478184 
L 186.177874 255.013812 
L 186.407149 266.763713 
L 186.636425 286.136003 
L 186.865701 250.563095 
L 187.094977 281.393652 
L 187.324253 284.514323 
L 187.553529 255.894371 
L 187.782804 284.336047 
L 188.01208 264.979667 
L 188.241356 289.776051 
L 188.470632 270.500292 
L 188.699908 212.228106 
L 188.929183 248.183006 
L 189.158459 209.314574 
L 189.387735 264.242445 
L 189.846287 273.703398 
L 190.075562 261.330659 
L 190.304838 262.019069 
L 190.534114 279.58585 
L 190.76339 261.846879 
L 190.992666 274.963122 
L 191.221941 208.483286 
L 191.451217 274.015549 
L 192.139045 214.363439 
L 192.36832 282.701998 
L 192.597596 272.504317 
L 193.285424 284.088663 
L 193.5147 270.574715 
L 193.743975 226.043303 
L 193.973251 276.220244 
L 194.202527 283.580876 
L 194.431803 282.355421 
L 194.661079 280.317645 
L 194.890354 245.713884 
L 195.11963 276.845618 
L 195.348906 273.038201 
L 195.807458 259.243275 
L 196.266009 237.593591 
L 196.495285 274.189472 
L 196.724561 277.984201 
L 196.953837 264.082652 
L 197.183112 213.72793 
L 197.641664 286.712731 
L 198.329492 232.46384 
L 198.788043 286.494701 
L 199.017319 284.311951 
L 199.475871 131.433851 
L 199.705146 280.910403 
L 199.934422 254.218194 
L 200.163698 284.068632 
L 200.392974 171.420683 
L 200.62225 273.680029 
L 200.851525 280.066975 
L 201.080801 279.638765 
L 201.539353 276.636278 
L 201.997904 239.860105 
L 202.456456 241.627427 
L 202.685732 236.692576 
L 202.915008 264.648529 
L 203.373559 271.991511 
L 203.602835 262.186986 
L 203.832111 268.34811 
L 204.061387 250.949795 
L 204.290663 280.46972 
L 204.519938 282.522235 
L 204.97849 260.827151 
L 205.437042 273.776846 
L 205.666317 287.239261 
L 205.895593 244.803086 
L 206.124869 231.584777 
L 206.354145 193.47946 
L 206.812696 258.811565 
L 207.271248 249.411867 
L 207.500524 281.484627 
L 207.7298 208.852754 
L 208.188351 291.599305 
L 208.417627 233.930198 
L 208.876179 286.862964 
L 209.105455 289.297738 
L 209.33473 288.98542 
L 209.564006 276.77254 
L 209.793282 284.431695 
L 210.710385 243.74738 
L 210.939661 270.433329 
L 211.168937 279.031825 
L 211.398213 249.996817 
L 211.627488 286.958566 
L 211.856764 164.41232 
L 212.315316 283.934641 
L 212.544592 247.042667 
L 212.773867 271.269904 
L 213.232419 277.691604 
L 213.461695 251.993528 
L 213.690971 267.436546 
L 214.149522 246.470908 
L 214.83735 238.768412 
L 215.066626 268.27558 
L 215.525177 247.643002 
L 215.754453 260.092054 
L 215.983729 176.507318 
L 216.213005 270.578721 
L 216.44228 287.557373 
L 216.900832 287.432028 
L 217.359384 284.675406 
L 217.588659 262.412563 
L 217.817935 283.219669 
L 218.047211 291.555237 
L 218.505763 276.206445 
L 218.735039 117.567205 
L 219.19359 276.792019 
L 219.652142 291.50349 
L 220.569245 286.694369 
L 220.798521 270.27258 
L 221.027797 285.090216 
L 221.257072 264.703909 
L 221.486348 264.296091 
L 221.715624 284.560506 
L 221.9449 93.284982 
L 222.174176 250.816254 
L 222.632727 284.479269 
L 222.862003 281.414518 
L 223.320555 278.143614 
L 223.549831 280.899553 
L 223.779106 267.42283 
L 224.008382 267.309454 
L 224.237658 291.002714 
L 224.69621 277.355369 
L 225.154761 233.309951 
L 225.384037 289.096426 
L 225.613313 265.141145 
L 225.842589 267.027216 
L 226.30114 261.561744 
L 226.530416 287.7987 
L 226.759692 260.97144 
L 227.218243 286.547475 
L 227.447519 227.982944 
L 227.676795 289.434728 
L 227.906071 286.19983 
L 228.135347 250.246204 
L 228.364622 284.399979 
L 228.593898 237.084135 
L 228.823174 266.116304 
L 229.511002 279.743928 
L 229.740277 255.730419 
L 230.198829 251.624591 
L 230.428105 273.24452 
L 231.345208 289.01472 
L 231.574484 283.483179 
L 232.033035 268.649398 
L 232.491587 283.951784 
L 232.950139 285.042141 
L 233.179414 286.366361 
L 234.096518 268.467783 
L 234.325794 274.721286 
L 234.555069 287.294997 
L 235.013621 276.334143 
L 235.472173 286.417273 
L 235.701448 284.208015 
L 237.077103 267.510108 
L 237.306379 259.291058 
L 237.764931 280.558747 
L 237.994206 222.368825 
L 238.223482 288.654312 
L 238.452758 238.425381 
L 238.91131 283.698968 
L 239.140586 282.048835 
L 239.369861 242.083551 
L 240.51624 283.084607 
L 240.974792 265.987878 
L 241.433344 286.761139 
L 242.121171 280.303705 
L 242.579723 281.830548 
L 243.038274 274.84382 
L 243.26755 280.014656 
L 244.184653 262.74391 
L 244.643205 276.86747 
L 244.872481 276.550311 
L 245.331032 281.309355 
L 245.560308 278.778766 
L 245.789584 272.243079 
L 246.248136 229.443959 
L 246.477411 186.335469 
L 246.706687 227.929688 
L 247.394515 274.189841 
L 248.082342 256.548751 
L 248.770169 281.942609 
L 249.228721 53.568 
L 249.457997 271.002224 
L 249.687273 281.581777 
L 250.3751 257.094319 
L 250.604376 213.818869 
L 251.062928 283.592895 
L 251.521479 289.794174 
L 251.980031 247.065622 
L 252.897134 255.96738 
L 253.12641 286.365526 
L 253.814237 265.542715 
L 254.272789 224.342479 
L 254.502065 287.170106 
L 255.419168 232.172354 
L 257.024099 291.973385 
L 257.253374 277.781029 
L 257.48265 254.542864 
L 257.941202 285.015934 
L 258.170478 264.762456 
L 258.629029 273.730524 
L 260.004684 259.850258 
L 260.23396 270.819062 
L 260.921787 280.267025 
L 262.526718 266.849942 
L 262.98527 233.599567 
L 263.443821 233.832762 
L 264.819476 273.004482 
L 266.882958 119.827041 
L 267.800062 167.071275 
L 271.009923 271.542549 
L 271.69775 207.50662 
L 274.44906 254.295338 
L 277.888197 264.737834 
L 279.034576 222.650094 
L 280.639507 276.114636 
L 282.015162 278.326398 
L 283.849368 260.722443 
L 287.747057 197.360893 
L 289.351988 255.500182 
L 291.186194 266.982564 
L 296.688814 256.11864 
L 297.835193 258.965553 
L 333.143667 275.081368 
L 398.487273 263.101965 
L 398.487273 263.101965 
" style="fill:none;stroke:#0000ff;stroke-linecap:square;stroke-width:1.5;"/>
   </g>
   <g id="patch_3">
    <path d="M 57.6 307.584 
L 57.6 41.472 
" style="fill:none;stroke:#000000;stroke-linecap:square;stroke-linejoin:miter;stroke-width:0.8;"/>
   </g>
   <g id="patch_4">
    <path d="M 414.72 307.584 
L 414.72 41.472 
" style="fill:none;stroke:#000000;stroke-linecap:square;stroke-linejoin:miter;stroke-width:0.8;"/>
   </g>
   <g id="patch_5">
    <path d="M 57.6 307.584 
L 414.72 307.584 
" style="fill:none;stroke:#000000;stroke-linecap:square;stroke-linejoin:miter;stroke-width:0.8;"/>
   </g>
   <g id="patch_6">
    <path d="M 57.6 41.472 
L 414.72 41.472 
" style="fill:none;stroke:#000000;stroke-linecap:square;stroke-linejoin:miter;stroke-width:0.8;"/>
   </g>
   <g id="text_17">
    <!-- wind_speed-&gt;ping_day -->
    <g transform="translate(166.53 35.472)scale(0.12 -0.12)">
     <defs>
      <path d="M 4.890625 31.390625 
L 31.203125 31.390625 
L 31.203125 23.390625 
L 4.890625 23.390625 
z
" id="DejaVuSans-45"/>
      <path d="M 10.59375 49.21875 
L 10.59375 58.109375 
L 73.1875 35.40625 
L 73.1875 27.296875 
L 10.59375 4.59375 
L 10.59375 13.484375 
L 60.890625 31.296875 
z
" id="DejaVuSans-62"/>
     </defs>
     <use xlink:href="#DejaVuSans-119"/>
     <use x="81.787109" xlink:href="#DejaVuSans-105"/>
     <use x="109.570312" xlink:href="#DejaVuSans-110"/>
     <use x="172.949219" xlink:href="#DejaVuSans-100"/>
     <use x="236.425781" xlink:href="#DejaVuSans-95"/>
     <use x="286.425781" xlink:href="#DejaVuSans-115"/>
     <use x="338.525391" xlink:href="#DejaVuSans-112"/>
     <use x="402.001953" xlink:href="#DejaVuSans-101"/>
     <use x="463.525391" xlink:href="#DejaVuSans-101"/>
     <use x="525.048828" xlink:href="#DejaVuSans-100"/>
     <use x="588.525391" xlink:href="#DejaVuSans-45"/>
     <use x="624.609375" xlink:href="#DejaVuSans-62"/>
     <use x="708.398438" xlink:href="#DejaVuSans-112"/>
     <use x="771.875" xlink:href="#DejaVuSans-105"/>
     <use x="799.658203" xlink:href="#DejaVuSans-110"/>
     <use x="863.037109" xlink:href="#DejaVuSans-103"/>
     <use x="926.513672" xlink:href="#DejaVuSans-95"/>
     <use x="976.513672" xlink:href="#DejaVuSans-100"/>
     <use x="1039.990234" xlink:href="#DejaVuSans-97"/>
     <use x="1101.269531" xlink:href="#DejaVuSans-121"/>
    </g>
   </g>
  </g>
  <g id="legend_1">
   <g id="patch_7">
    <path d="M 353.839063 22.95625 
L 453.8 22.95625 
Q 455.8 22.95625 455.8 20.95625 
L 455.8 7 
Q 455.8 5 453.8 5 
L 353.839063 5 
Q 351.839063 5 351.839063 7 
L 351.839063 20.95625 
Q 351.839063 22.95625 353.839063 22.95625 
z
" style="fill:#ffffff;opacity:0.8;stroke:#cccccc;stroke-linejoin:miter;"/>
   </g>
   <g id="line2d_16">
    <path d="M 355.839063 13.098437 
L 375.839063 13.098437 
" style="fill:none;stroke:#0000ff;stroke-linecap:square;stroke-width:1.5;"/>
   </g>
   <g id="line2d_17"/>
   <g id="text_18">
    <!-- ping_day[ms] -->
    <g transform="translate(383.839063 16.598437)scale(0.1 -0.1)">
     <use xlink:href="#DejaVuSans-112"/>
     <use x="63.476562" xlink:href="#DejaVuSans-105"/>
     <use x="91.259766" xlink:href="#DejaVuSans-110"/>
     <use x="154.638672" xlink:href="#DejaVuSans-103"/>
     <use x="218.115234" xlink:href="#DejaVuSans-95"/>
     <use x="268.115234" xlink:href="#DejaVuSans-100"/>
     <use x="331.591797" xlink:href="#DejaVuSans-97"/>
     <use x="392.871094" xlink:href="#DejaVuSans-121"/>
     <use x="452.050781" xlink:href="#DejaVuSans-91"/>
     <use x="491.064453" xlink:href="#DejaVuSans-109"/>
     <use x="588.476562" xlink:href="#DejaVuSans-115"/>
     <use x="640.576172" xlink:href="#DejaVuSans-93"/>
    </g>
   </g>
  </g>
 </g>
 <defs>
  <clipPath id="pebc856face">
   <rect height="266.112" width="357.12" x="57.6" y="41.472"/>
  </clipPath>
 </defs>
</svg>
