<?xml version="1.0" encoding="utf-8" standalone="no"?>
<!DOCTYPE svg PUBLIC "-//W3C//DTD SVG 1.1//EN"
  "http://www.w3.org/Graphics/SVG/1.1/DTD/svg11.dtd">
<!-- Created with matplotlib (https://matplotlib.org/) -->
<svg height="2090.594375pt" version="1.1" viewBox="0 0 2068.621875 2090.594375" width="2068.621875pt" xmlns="http://www.w3.org/2000/svg" xmlns:xlink="http://www.w3.org/1999/xlink">
 <metadata>
  <rdf:RDF xmlns:cc="http://creativecommons.org/ns#" xmlns:dc="http://purl.org/dc/elements/1.1/" xmlns:rdf="http://www.w3.org/1999/02/22-rdf-syntax-ns#">
   <cc:Work>
    <dc:type rdf:resource="http://purl.org/dc/dcmitype/StillImage"/>
    <dc:date>2022-07-23T21:04:02.742189</dc:date>
    <dc:format>image/svg+xml</dc:format>
    <dc:creator>
     <cc:Agent>
      <dc:title>Matplotlib v3.3.2, https://matplotlib.org/</dc:title>
     </cc:Agent>
    </dc:creator>
   </cc:Work>
  </rdf:RDF>
 </metadata>
 <defs>
  <style type="text/css">*{stroke-linecap:butt;stroke-linejoin:round;}</style>
 </defs>
 <g id="figure_1">
  <g id="patch_1">
   <path d="M 0 2090.594375 
L 2068.621875 2090.594375 
L 2068.621875 0 
L 0 0 
z
" style="fill:#ffffff;"/>
  </g>
  <g id="axes_1">
   <g id="patch_2">
    <path d="M 50.421875 2052.76 
L 1836.021875 2052.76 
L 1836.021875 278.68 
L 50.421875 278.68 
z
" style="fill:#ffffff;"/>
   </g>
   <g id="matplotlib.axis_1">
    <g id="xtick_1">
     <g id="line2d_1">
      <defs>
       <path d="M 0 0 
L 0 3.5 
" id="mae7a9c5242" style="stroke:#000000;stroke-width:0.8;"/>
      </defs>
      <g>
       <use style="stroke:#000000;stroke-width:0.8;" x="71.289035" xlink:href="#mae7a9c5242" y="2052.76"/>
      </g>
     </g>
     <g id="text_1">
      <text style="font-family:DejaVu Sans;font-size:10px;font-stretch:normal;font-style:normal;font-weight:normal;text-anchor:middle;" transform="rotate(-0, 71.289035, 2067.358437)" x="71.289035" y="2067.358437">0</text>
     </g>
    </g>
    <g id="xtick_2">
     <g id="line2d_2">
      <g>
       <use style="stroke:#000000;stroke-width:0.8;" x="452.268498" xlink:href="#mae7a9c5242" y="2052.76"/>
      </g>
     </g>
     <g id="text_2">
      <text style="font-family:DejaVu Sans;font-size:10px;font-stretch:normal;font-style:normal;font-weight:normal;text-anchor:middle;" transform="rotate(-0, 452.268498, 2067.358437)" x="452.268498" y="2067.358437">2</text>
     </g>
    </g>
    <g id="xtick_3">
     <g id="line2d_3">
      <g>
       <use style="stroke:#000000;stroke-width:0.8;" x="833.247962" xlink:href="#mae7a9c5242" y="2052.76"/>
      </g>
     </g>
     <g id="text_3">
      <text style="font-family:DejaVu Sans;font-size:10px;font-stretch:normal;font-style:normal;font-weight:normal;text-anchor:middle;" transform="rotate(-0, 833.247962, 2067.358437)" x="833.247962" y="2067.358437">4</text>
     </g>
    </g>
    <g id="xtick_4">
     <g id="line2d_4">
      <g>
       <use style="stroke:#000000;stroke-width:0.8;" x="1214.227426" xlink:href="#mae7a9c5242" y="2052.76"/>
      </g>
     </g>
     <g id="text_4">
      <text style="font-family:DejaVu Sans;font-size:10px;font-stretch:normal;font-style:normal;font-weight:normal;text-anchor:middle;" transform="rotate(-0, 1214.227426, 2067.358437)" x="1214.227426" y="2067.358437">6</text>
     </g>
    </g>
    <g id="xtick_5">
     <g id="line2d_5">
      <g>
       <use style="stroke:#000000;stroke-width:0.8;" x="1595.206889" xlink:href="#mae7a9c5242" y="2052.76"/>
      </g>
     </g>
     <g id="text_5">
      <text style="font-family:DejaVu Sans;font-size:10px;font-stretch:normal;font-style:normal;font-weight:normal;text-anchor:middle;" transform="rotate(-0, 1595.206889, 2067.358437)" x="1595.206889" y="2067.358437">8</text>
     </g>
    </g>
    <g id="text_6">
     <text style="font-family:DejaVu Sans;font-size:10px;font-stretch:normal;font-style:normal;font-weight:normal;text-anchor:middle;" transform="rotate(-0, 943.221875, 2081.036562)" x="943.221875" y="2081.036562">wind_speed from WeatherBitIO</text>
    </g>
   </g>
   <g id="matplotlib.axis_2">
    <g id="ytick_1">
     <g id="line2d_6">
      <defs>
       <path d="M 0 0 
L -3.5 0 
" id="m0fc09dc2a3" style="stroke:#000000;stroke-width:0.8;"/>
      </defs>
      <g>
       <use style="stroke:#000000;stroke-width:0.8;" x="50.421875" xlink:href="#m0fc09dc2a3" y="2035.48784"/>
      </g>
     </g>
     <g id="text_7">
      <text style="font-family:DejaVu Sans;font-size:10px;font-stretch:normal;font-style:normal;font-weight:normal;text-anchor:end;" transform="rotate(-0, 43.421875, 2039.287059)" x="43.421875" y="2039.287059">5.0</text>
     </g>
    </g>
    <g id="ytick_2">
     <g id="line2d_7">
      <g>
       <use style="stroke:#000000;stroke-width:0.8;" x="50.421875" xlink:href="#m0fc09dc2a3" y="1823.79127"/>
      </g>
     </g>
     <g id="text_8">
      <text style="font-family:DejaVu Sans;font-size:10px;font-stretch:normal;font-style:normal;font-weight:normal;text-anchor:end;" transform="rotate(-0, 43.421875, 1827.590489)" x="43.421875" y="1827.590489">7.5</text>
     </g>
    </g>
    <g id="ytick_3">
     <g id="line2d_8">
      <g>
       <use style="stroke:#000000;stroke-width:0.8;" x="50.421875" xlink:href="#m0fc09dc2a3" y="1612.094701"/>
      </g>
     </g>
     <g id="text_9">
      <text style="font-family:DejaVu Sans;font-size:10px;font-stretch:normal;font-style:normal;font-weight:normal;text-anchor:end;" transform="rotate(-0, 43.421875, 1615.89392)" x="43.421875" y="1615.89392">10.0</text>
     </g>
    </g>
    <g id="ytick_4">
     <g id="line2d_9">
      <g>
       <use style="stroke:#000000;stroke-width:0.8;" x="50.421875" xlink:href="#m0fc09dc2a3" y="1400.398132"/>
      </g>
     </g>
     <g id="text_10">
      <text style="font-family:DejaVu Sans;font-size:10px;font-stretch:normal;font-style:normal;font-weight:normal;text-anchor:end;" transform="rotate(-0, 43.421875, 1404.197351)" x="43.421875" y="1404.197351">12.5</text>
     </g>
    </g>
    <g id="ytick_5">
     <g id="line2d_10">
      <g>
       <use style="stroke:#000000;stroke-width:0.8;" x="50.421875" xlink:href="#m0fc09dc2a3" y="1188.701562"/>
      </g>
     </g>
     <g id="text_11">
      <text style="font-family:DejaVu Sans;font-size:10px;font-stretch:normal;font-style:normal;font-weight:normal;text-anchor:end;" transform="rotate(-0, 43.421875, 1192.500781)" x="43.421875" y="1192.500781">15.0</text>
     </g>
    </g>
    <g id="ytick_6">
     <g id="line2d_11">
      <g>
       <use style="stroke:#000000;stroke-width:0.8;" x="50.421875" xlink:href="#m0fc09dc2a3" y="977.004993"/>
      </g>
     </g>
     <g id="text_12">
      <text style="font-family:DejaVu Sans;font-size:10px;font-stretch:normal;font-style:normal;font-weight:normal;text-anchor:end;" transform="rotate(-0, 43.421875, 980.804212)" x="43.421875" y="980.804212">17.5</text>
     </g>
    </g>
    <g id="ytick_7">
     <g id="line2d_12">
      <g>
       <use style="stroke:#000000;stroke-width:0.8;" x="50.421875" xlink:href="#m0fc09dc2a3" y="765.308424"/>
      </g>
     </g>
     <g id="text_13">
      <text style="font-family:DejaVu Sans;font-size:10px;font-stretch:normal;font-style:normal;font-weight:normal;text-anchor:end;" transform="rotate(-0, 43.421875, 769.107643)" x="43.421875" y="769.107643">20.0</text>
     </g>
    </g>
    <g id="ytick_8">
     <g id="line2d_13">
      <g>
       <use style="stroke:#000000;stroke-width:0.8;" x="50.421875" xlink:href="#m0fc09dc2a3" y="553.611854"/>
      </g>
     </g>
     <g id="text_14">
      <text style="font-family:DejaVu Sans;font-size:10px;font-stretch:normal;font-style:normal;font-weight:normal;text-anchor:end;" transform="rotate(-0, 43.421875, 557.411073)" x="43.421875" y="557.411073">22.5</text>
     </g>
    </g>
    <g id="ytick_9">
     <g id="line2d_14">
      <g>
       <use style="stroke:#000000;stroke-width:0.8;" x="50.421875" xlink:href="#m0fc09dc2a3" y="341.915285"/>
      </g>
     </g>
     <g id="text_15">
      <text style="font-family:DejaVu Sans;font-size:10px;font-stretch:normal;font-style:normal;font-weight:normal;text-anchor:end;" transform="rotate(-0, 43.421875, 345.714504)" x="43.421875" y="345.714504">25.0</text>
     </g>
    </g>
    <g id="text_16">
     <text style="font-family:DejaVu Sans;font-size:10px;font-stretch:normal;font-style:normal;font-weight:normal;text-anchor:middle;" transform="rotate(-90, 14.798438, 1165.72)" x="14.798438" y="1165.72">ping_day[ms]</text>
    </g>
   </g>
   <g id="line2d_15">
    <path clip-path="url(#p11e79e8731)" d="M 131.585511 1708.818864 
L 144.608342 1877.235581 
L 149.25953 1798.673472 
L 150.608959 1874.30812 
L 160.00277 1628.014283 
L 174.409508 1817.25408 
L 188.934922 1560.94881 
L 205.549055 1799.220355 
L 221.209025 1560.587001 
L 223.020964 1935.035893 
L 226.846759 1764.480948 
L 226.938385 1935.256571 
L 230.583977 1888.528081 
L 248.131511 1082.119396 
L 248.256662 1888.044203 
L 266.845793 1885.841163 
L 267.27249 1900.61898 
L 269.299301 1668.868464 
L 269.579321 1882.911066 
L 274.551103 1747.213565 
L 274.87684 1794.026733 
L 276.315038 1857.806675 
L 276.332182 1890.574481 
L 278.13612 1746.081694 
L 281.513503 1903.346841 
L 281.789713 1759.336722 
L 285.348061 1683.471086 
L 288.736873 1818.541196 
L 294.668724 1662.13977 
L 296.22312 1916.335602 
L 300.381511 1910.883239 
L 306.24288 1920.07087 
L 314.230114 1867.6548 
L 314.864445 1900.06362 
L 321.716361 1819.275077 
L 323.272662 1793.109381 
L 324.794675 1444.289887 
L 326.175725 1855.037684 
L 327.244373 1901.653269 
L 328.244444 1925.970148 
L 328.587325 1777.421254 
L 329.160699 1910.756221 
L 336.222154 1857.455729 
L 337.616538 1903.876083 
L 341.538722 1849.660591 
L 343.441714 1881.880809 
L 347.131501 1862.696395 
L 348.230626 1867.941404 
L 349.994561 1742.591523 
L 356.532169 1886.375833 
L 357.370324 1913.550616 
L 358.627556 1723.334192 
L 359.861929 1898.315519 
L 360.761041 1858.491362 
L 368.218714 1841.404425 
L 370.089323 1858.932901 
L 370.973195 1900.594786 
L 374.283907 1895.979801 
L 375.377318 1880.344497 
L 386.875278 1843.99418 
L 390.231707 1899.09174 
L 396.348333 1798.133646 
L 396.521678 1925.236266 
L 397.853201 1893.411216 
L 398.628495 1844.283498 
L 401.173438 1835.08432 
L 401.184867 1541.460629 
L 401.360117 1537.859771 
L 404.716547 1368.952119 
L 407.596751 1869.15296 
L 411.934202 1890.405124 
L 413.8391 1905.590825 
L 416.081164 1902.32223 
L 416.843123 1898.740324 
L 420.767211 1677.805316 
L 421.677752 1880.373529 
L 422.622581 1604.600643 
L 424.738922 1889.064379 
L 424.978939 1252.471626 
L 424.999893 1877.999705 
L 428.636342 1323.62002 
L 429.314486 1895.683425 
L 431.105089 1839.922549 
L 432.880453 1821.265025 
L 433.903383 1902.373037 
L 436.130208 1918.532542 
L 439.061845 1266.076659 
L 439.795231 1885.437311 
L 440.378129 1410.344614 
L 443.566927 1873.525851 
L 450.575045 1870.011688 
L 450.742676 1925.829017 
L 451.803703 1894.455585 
L 454.114344 1852.666682 
L 457.049791 1877.616085 
L 457.512681 1857.655665 
L 463.473104 1639.191862 
L 464.080767 1841.580839 
L 468.517272 1707.248075 
L 469.132554 1819.345642 
L 471.100313 1866.151754 
L 474.647232 1912.238097 
L 475.757787 1921.279465 
L 479.712354 1857.47027 
L 480.287633 1927.445609 
L 480.485742 1861.388581 
L 482.57732 1773.788541 
L 484.442214 1165.111508 
L 485.434666 1757.123787 
L 487.204315 1905.963411 
L 492.863765 1881.626773 
L 494.029562 1929.724234 
L 494.07528 1879.919088 
L 494.498167 1744.62381 
L 494.549599 1879.354563 
L 495.620151 1927.099196 
L 495.64682 1831.09245 
L 495.774448 1873.100287 
L 498.256529 1627.252175 
L 501.129115 1923.026924 
L 502.169188 1715.035686 
L 505.622767 1164.243552 
L 505.721822 1894.109814 
L 506.626648 1304.508054 
L 507.33527 1902.055492 
L 507.716249 1839.795531 
L 507.786731 1967.942521 
L 508.546785 1898.029023 
L 508.929669 1790.69604 
L 508.984911 1084.377493 
L 511.621289 1893.799326 
L 512.207997 1705.375266 
L 513.910976 665.326059 
L 514.139563 1746.825454 
L 516.132086 1851.772853 
L 516.918808 1707.562797 
L 518.680838 1907.411415 
L 520.922903 1658.25161 
L 521.170539 1896.208433 
L 521.332455 1768.707823 
L 524.854611 1601.940322 
L 525.87754 1866.654052 
L 527.315738 1945.59442 
L 528.708218 1927.939469 
L 529.338739 1366.907735 
L 530.211182 1578.06692 
L 534.123841 1536.114878 
L 534.160034 1909.749486 
L 535.314402 1860.821234 
L 536.497343 1695.57936 
L 536.804032 1845.370207 
L 537.746956 1861.043353 
L 539.924253 1807.162505 
L 540.35095 1496.135788 
L 544.682687 1843.826234 
L 544.798886 1839.442703 
L 546.47329 1878.204345 
L 546.639016 1864.745484 
L 547.378117 1910.121131 
L 551.12124 1710.039647 
L 553.538554 1916.175653 
L 553.751903 1712.989286 
L 561.232435 1840.854014 
L 561.485786 1319.560835 
L 562.188693 1828.602556 
L 562.786831 1786.158677 
L 563.251626 1848.489204 
L 563.655464 1467.748433 
L 568.674869 1888.401063 
L 571.174094 1958.472628 
L 571.629364 1887.540164 
L 572.494188 1903.360954 
L 574.741967 1901.610929 
L 575.498211 1913.578842 
L 576.797351 1377.796636 
L 577.54407 1892.429347 
L 578.513663 1677.156113 
L 581.146231 1795.985888 
L 582.618717 1876.571459 
L 584.613144 1207.037742 
L 584.708389 1853.958032 
L 585.609406 1896.953605 
L 589.160134 1789.781254 
L 590.036387 1893.358612 
L 593.166133 1898.901213 
L 597.105461 1919.774495 
L 597.8598 1910.53982 
L 601.183846 1568.208078 
L 601.349572 1798.303003 
L 603.189703 1813.601609 
L 604.540275 1691.286154 
L 605.94228 1867.431556 
L 606.450887 1319.388911 
L 608.576753 1899.867961 
L 608.612946 1855.435674 
L 609.531106 1791.027698 
L 611.072168 1722.226313 
L 613.973327 1610.893804 
L 614.00571 1917.38938 
L 615.615348 1871.352433 
L 616.169673 1859.059919 
L 619.655635 1918.292619 
L 621.398617 1660.735516 
L 623.111119 1485.531907 
L 623.486384 1890.136975 
L 624.084522 1891.85407 
L 626.625655 388.936117 
L 626.646609 1898.020555 
L 627.416187 1816.077047 
L 628.566745 1868.953205 
L 628.875339 1727.948091 
L 629.145834 1931.050866 
L 629.618248 1641.393506 
L 629.886839 1900.630069 
L 630.096378 1778.403526 
L 632.27939 1899.653912 
L 632.349871 1858.50104 
L 633.866169 1924.474159 
L 634.298581 1779.217744 
L 634.953866 1629.623177 
L 635.460569 1431.017924 
L 636.666369 1816.988754 
L 636.793997 1817.29411 
L 637.635961 1706.248867 
L 640.348535 1855.430285 
L 641.632436 1700.075795 
L 642.826806 1650.09726 
L 643.141115 1891.918483 
L 644.295482 1721.618038 
L 649.337746 1375.84133 
L 649.385368 1207.506732 
L 650.26543 1789.87748 
L 651.055963 1449.30981 
L 651.275026 1752.551141 
L 651.505519 1841.206842 
L 652.250334 1580.88357 
L 652.941811 1901.272215 
L 654.016173 1867.132615 
L 655.522947 1911.080823 
L 656.159183 1899.465737 
L 656.635407 1912.019344 
L 665.211255 1891.449494 
L 667.194253 1509.20247 
L 669.65538 1905.355606 
L 672.396528 1879.912031 
L 674.488105 1622.025195 
L 675.476747 1814.343555 
L 679.366547 1870.618552 
L 679.58561 1868.909583 
L 682.951564 1759.082686 
L 685.382213 1875.593421 
L 689.291062 1817.047772 
L 690.06064 1590.734517 
L 690.914034 1709.463026 
L 691.169291 1790.412495 
L 692.986563 1356.431107 
L 693.706614 1922.611229 
L 694.613345 1756.254016 
L 697.794523 1813.502817 
L 702.562481 1843.591956 
L 706.39323 1780.01242 
L 707.294246 1657.708255 
L 707.32663 1862.828118 
L 708.841023 1769.215895 
L 713.44897 1856.674804 
L 714.012819 1846.628445 
L 715.75961 1798.324173 
L 717.99596 1821.973937 
L 718.569334 1702.199818 
L 720.203736 1476.62301 
L 720.363747 1221.585096 
L 721.432394 1848.940823 
L 721.558118 1778.629336 
L 723.37539 1780.393474 
L 723.958288 1453.037446 
L 726.15654 1734.335357 
L 726.771822 1902.042021 
L 726.886115 1897.376998 
L 727.931904 1868.466303 
L 728.402414 1784.585066 
L 728.928165 1850.265439 
L 729.66917 1609.68136 
L 730.175873 1287.944914 
L 730.722579 1890.104045 
L 735.069554 1858.348618 
L 735.454343 1864.493464 
L 735.755317 1886.961527 
L 741.620496 1864.286472 
L 743.344428 519.460964 
L 743.910183 1784.726197 
L 745.637925 1721.524892 
L 746.239872 1452.856542 
L 746.384644 1883.372456 
L 747.038024 1427.389444 
L 750.775433 1802.579274 
L 751.224988 1702.559702 
L 753.268943 1754.016081 
L 758.823624 1863.816035 
L 760.898057 1869.845859 
L 761.444762 1640.864265 
L 762.187672 1872.149823 
L 763.050591 1803.121217 
L 764.054472 1891.181345 
L 764.91739 1744.616753 
L 766.3994 1893.735817 
L 766.477501 1924.18104 
L 769.38247 1816.501852 
L 769.732971 1930.740377 
L 770.266342 1853.40762 
L 770.68161 1850.465038 
L 775.855311 1910.784447 
L 780.451828 1494.777167 
L 780.750897 1877.717443 
L 781.912884 1827.74294 
L 783.583479 1410.246256 
L 785.095968 1878.663021 
L 787.223738 1512.046902 
L 787.261836 1677.939391 
L 790.852567 1328.92937 
L 790.930668 1885.361101 
L 793.629908 1188.906202 
L 794.770941 1798.557039 
L 798.028315 1908.215862 
L 802.093366 1879.291054 
L 803.173443 1792.14969 
L 804.238281 1865.915039 
L 805.390744 1780.01242 
L 807.253733 1807.758784 
L 809.604377 1729.868559 
L 809.642474 1809.642883 
L 811.400695 1924.347141 
L 812.836987 1876.327302 
L 814.45996 1867.908835 
L 814.957138 1854.891421 
L 816.016261 1871.651631 
L 818.06593 1915.413546 
L 820.210845 1926.054827 
L 820.500389 1775.482113 
L 821.433789 1581.94911 
L 821.645232 1912.796976 
L 822.125267 1872.868584 
L 823.672043 1078.668742 
L 824.180651 1888.196423 
L 826.559868 1394.750719 
L 826.687496 1925.885469 
L 828.371425 1801.690149 
L 830.706829 1541.098728 
L 830.935417 1795.398527 
L 832.706971 1859.864366 
L 832.946988 1570.277572 
L 838.694063 1800.150537 
L 839.456022 1867.485442 
L 839.707469 1686.428423 
L 841.473309 1868.707234 
L 843.900148 1559.234068 
L 845.812665 1895.429389 
L 848.043299 1554.011676 
L 853.999913 1605.616786 
L 855.104754 1676.891997 
L 855.676223 1796.447772 
L 856.211499 1605.072423 
L 856.4839 1867.139671 
L 857.264907 1289.469129 
L 859.889856 1835.625109 
L 859.895571 1859.042983 
L 860.846114 1880.328368 
L 861.137564 1572.916723 
L 862.364318 1889.812374 
L 866.917022 1951.317284 
L 871.450678 1633.081973 
L 872.61457 1756.027199 
L 874.786153 1740.69331 
L 880.535133 1768.891293 
L 885.459293 1826.69857 
L 885.625019 1387.809242 
L 889.739597 1844.83006 
L 892.673139 1826.550382 
L 895.869556 1575.252441 
L 898.883104 1923.627373 
L 902.881484 1288.722418 
L 903.357708 1895.626973 
L 904.056805 1763.246052 
L 906.176956 1690.295414 
L 906.222673 1509.012585 
L 908.718089 1889.281721 
L 909.693396 1784.436878 
L 911.664965 1604.778468 
L 913.659393 1806.573283 
L 914.223242 919.728369 
L 917.368228 739.227406 
L 918.143521 1158.204229 
L 919.36075 1291.524511 
L 920.122709 1460.336487 
L 921.475186 1862.280964 
L 924.410633 1707.499288 
L 928.302338 1808.718475 
L 928.336626 1529.540096 
L 929.430037 1841.827818 
L 931.874021 1649.590397 
L 932.308337 1353.73251 
L 933.984647 1904.366834 
L 935.243784 1881.093298 
L 935.746677 1903.177484 
L 936.388627 792.257397 
L 937.363935 1825.677294 
L 939.767915 1420.721002 
L 940.50511 1930.274645 
L 940.910854 1867.189067 
L 944.522539 1839.993115 
L 944.60064 1809.395904 
L 946.522681 1533.17422 
L 948.40472 1399.494893 
L 948.557111 1661.077438 
L 948.818082 1899.755056 
L 949.446698 1807.086487 
L 954.428005 1398.704559 
L 954.900419 1868.191098 
L 957.222489 1857.429855 
L 958.195892 1830.389147 
L 962.883844 1780.965054 
L 963.051475 1543.987029 
L 966.524103 1120.323571 
L 967.337494 1711.130205 
L 967.684185 1868.278342 
L 967.758476 1959.446432 
L 984.266317 1683.73282 
L 984.8435 1876.24968 
L 989.009511 1846.908536 
L 990.255314 1163.844536 
L 990.552478 1812.352599 
L 990.708679 1699.631233 
L 992.432611 1815.408086 
L 994.937551 1917.869226 
L 995.185188 1788.675044 
L 997.825376 1893.481781 
L 1000.275074 1182.096629 
L 1001.143707 1765.717128 
L 1002.096155 1892.691447 
L 1005.917379 1737.016847 
L 1005.959287 1340.565625 
L 1008.395651 1901.149901 
L 1011.030124 1841.482047 
L 1011.283475 1943.978469 
L 1013.462678 1623.74648 
L 1014.1713 1930.444002 
L 1015.022789 1777.590611 
L 1015.579019 1865.097505 
L 1015.801892 1879.079358 
L 1016.314309 1703.180678 
L 1016.426698 1855.06591 
L 1023.358619 1769.94272 
L 1024.943494 1034.014879 
L 1025.0235 1478.142521 
L 1025.75879 1736.041118 
L 1026.68457 1853.780532 
L 1027.035071 1761.150256 
L 1028.650424 1873.307098 
L 1029.231418 1795.706192 
L 1029.722881 1822.577543 
L 1033.35552 1593.819514 
L 1039.032114 1710.336022 
L 1039.830266 1795.550948 
L 1041.104643 1887.372823 
L 1042.900961 1084.54685 
L 1043.3829 1714.00543 
L 1045.377327 1673.190331 
L 1045.897364 1576.537376 
L 1046.173575 1893.453555 
L 1046.434545 1839.118102 
L 1047.670824 1801.280869 
L 1047.996561 1554.702133 
L 1049.59858 1802.339351 
L 1049.674776 1593.211367 
L 1050.79295 1810.882484 
L 1052.962629 1853.950975 
L 1055.195168 1816.153258 
L 1056.010464 1363.203045 
L 1058.483021 1840.025373 
L 1059.60691 1581.017645 
L 1061.517522 1739.027964 
L 1061.57086 1769.499243 
L 1062.957625 1920.437811 
L 1063.031916 1185.860979 
L 1064.894905 1839.033423 
L 1066.599788 1972.12 
L 1067.020771 1803.991868 
L 1067.697009 1914.990152 
L 1074.447965 1549.891192 
L 1075.680434 1569.317881 
L 1076.490015 1709.421237 
L 1077.928213 1837.622113 
L 1080.496014 1592.488342 
L 1085.3135 1370.17633 
L 1088.161321 1869.670151 
L 1088.700407 1723.03076 
L 1089.169012 1674.88716 
L 1090.346238 1879.185206 
L 1091.813009 1823.367877 
L 1092.277804 1850.239228 
L 1093.056907 1523.633761 
L 1094.85894 1475.018148 
L 1095.500891 1866.335224 
L 1097.120053 1581.373295 
L 1097.462935 1904.117417 
L 1099.141149 1869.621949 
L 1099.350688 1143.567854 
L 1102.160412 1659.373602 
L 1104.183413 1587.312089 
L 1104.627254 1829.718774 
L 1104.97204 1868.96127 
L 1109.301872 1818.736608 
L 1109.461883 1736.466436 
L 1109.679041 1344.856009 
L 1111.953489 1728.975401 
L 1112.054448 1335.618982 
L 1112.067783 1712.12133 
L 1112.780214 1800.758684 
L 1112.804978 1313.807178 
L 1117.494835 1540.402696 
L 1118.841597 1645.655664 
L 1119.483548 1858.594186 
L 1121.786569 1494.94182 
L 1125.167761 359.32 
L 1128.038442 1606.463572 
L 1131.008177 1629.651403 
L 1132.812114 1852.7937 
L 1133.393108 1526.364647 
L 1134.513188 1736.802126 
L 1136.176163 1374.048965 
L 1137.791516 1797.710253 
L 1138.723011 1827.785279 
L 1141.416536 1634.21464 
L 1144.30436 1840.218924 
L 1145.752082 1927.042744 
L 1145.813039 1711.592089 
L 1148.912306 1804.704708 
L 1154.019336 1807.438887 
L 1159.838798 1848.625203 
L 1163.77241 1864.295881 
L 1163.856226 1827.009058 
L 1165.054406 1165.676032 
L 1168.778481 1829.287683 
L 1170.83958 1204.797558 
L 1172.795909 1830.339751 
L 1175.773264 1864.987423 
L 1177.584821 1729.311092 
L 1179.377329 1835.709787 
L 1185.968274 1911.878213 
L 1186.964535 1880.342481 
L 1198.186285 1864.874518 
L 1199.285411 1796.687053 
L 1201.369369 1775.129286 
L 1208.758466 1104.0935 
L 1210.286193 1893.244681 
L 1210.886236 1803.581305 
L 1217.781964 1407.324844 
L 1219.107773 1312.849839 
L 1225.203444 1888.993814 
L 1226.373051 1836.718874 
L 1232.544918 1740.760027 
L 1234.636496 1758.673406 
L 1238.625351 1695.898316 
L 1240.183557 1769.15662 
L 1240.735977 1428.426758 
L 1240.987423 1372.395561 
L 1246.370663 1927.564929 
L 1247.048807 1857.606269 
L 1248.073641 1584.778787 
L 1258.102926 1671.830769 
L 1262.808022 1355.419667 
L 1265.783472 1845.646054 
L 1266.349226 1407.70872 
L 1267.185476 1333.332659 
L 1269.002748 1928.291754 
L 1270.385704 1816.932302 
L 1275.517497 1838.948745 
L 1277.028081 1563.785544 
L 1277.210951 1706.141864 
L 1284.070486 1736.402927 
L 1285.221044 1822.574977 
L 1288.640335 1616.21855 
L 1291.697695 1353.61319 
L 1298.347691 1628.4906 
L 1298.64295 1850.655565 
L 1303.824271 1736.360587 
L 1306.056811 1454.397041 
L 1307.36357 1926.698897 
L 1316.592798 1878.708617 
L 1317.829076 1901.733243 
L 1318.922487 1848.448147 
L 1322.158908 1303.949175 
L 1324.107618 1911.002559 
L 1324.324776 1882.329606 
L 1328.711755 1411.59688 
L 1330.713802 1031.26988 
L 1332.460593 1451.590211 
L 1335.277936 468.95863 
L 1339.971603 457.489515 
L 1344.408108 1706.627804 
L 1345.013866 1684.544324 
L 1349.421798 1784.084051 
L 1353.843065 1747.105002 
L 1354.789799 1878.239628 
L 1355.016482 1220.041123 
L 1358.182421 1847.120232 
L 1360.521635 1815.939252 
L 1363.321834 1839.60308 
L 1364.998144 1669.552999 
L 1367.223064 1963.807381 
L 1368.887944 1849.637793 
L 1370.642354 1619.989355 
L 1376.01988 1823.668102 
L 1379.286778 1486.996142 
L 1380.448766 1845.892392 
L 1382.043165 1418.808677 
L 1386.635872 1652.818064 
L 1391.605749 1840.642317 
L 1393.737329 1821.073856 
L 1405.084803 1854.021541 
L 1405.41435 1628.122056 
L 1410.302317 1883.800191 
L 1414.205451 1808.337421 
L 1414.733108 1519.99258 
L 1421.297384 1673.101803 
L 1426.695863 1648.004953 
L 1428.631239 1739.282 
L 1435.536491 1779.271482 
L 1440.948305 1783.842499 
L 1441.835987 1816.170194 
L 1442.316021 1881.605604 
L 1452.5377 1567.433782 
L 1476.884193 1654.532807 
L 1480.082515 1790.329099 
L 1481.558811 1478.612958 
L 1482.68651 980.914323 
L 1496.735127 671.330543 
L 1504.246138 1134.77539 
L 1519.658662 1059.832788 
L 1533.842527 1615.6666 
L 1548.466424 1824.422511 
L 1564.911403 1534.819405 
L 1568.673575 864.166873 
L 1624.991864 1740.44796 
L 1653.237681 801.804912 
L 1661.120146 1717.844194 
L 1675.142096 1754.10076 
L 1688.735443 1499.743098 
L 1696.469326 1805.492219 
L 1706.13287 1680.762012 
L 1729.437384 1853.668713 
L 1754.858239 1750.29627 
L 1754.858239 1750.29627 
" style="fill:none;stroke:#0000ff;stroke-linecap:square;stroke-width:1.5;"/>
   </g>
   <g id="patch_3">
    <path d="M 50.421875 2052.76 
L 50.421875 278.68 
" style="fill:none;stroke:#000000;stroke-linecap:square;stroke-linejoin:miter;stroke-width:0.8;"/>
   </g>
   <g id="patch_4">
    <path d="M 1836.021875 2052.76 
L 1836.021875 278.68 
" style="fill:none;stroke:#000000;stroke-linecap:square;stroke-linejoin:miter;stroke-width:0.8;"/>
   </g>
   <g id="patch_5">
    <path d="M 50.421875 2052.76 
L 1836.021875 2052.76 
" style="fill:none;stroke:#000000;stroke-linecap:square;stroke-linejoin:miter;stroke-width:0.8;"/>
   </g>
   <g id="patch_6">
    <path d="M 50.421875 278.68 
L 1836.021875 278.68 
" style="fill:none;stroke:#000000;stroke-linecap:square;stroke-linejoin:miter;stroke-width:0.8;"/>
   </g>
   <g id="text_17">
    <text style="font-family:DejaVu Sans;font-size:12px;font-stretch:normal;font-style:normal;font-weight:normal;text-anchor:middle;" transform="rotate(-0, 943.221875, 272.68)" x="943.221875" y="272.68">wind_speed-&gt;ping_day</text>
   </g>
  </g>
  <g id="legend_1">
   <g id="patch_7">
    <path d="M 1961.660937 22.95625 
L 2061.621875 22.95625 
Q 2063.621875 22.95625 2063.621875 20.95625 
L 2063.621875 7 
Q 2063.621875 5 2061.621875 5 
L 1961.660937 5 
Q 1959.660937 5 1959.660937 7 
L 1959.660937 20.95625 
Q 1959.660937 22.95625 1961.660937 22.95625 
z
" style="fill:#ffffff;opacity:0.8;stroke:#cccccc;stroke-linejoin:miter;"/>
   </g>
   <g id="line2d_16">
    <path d="M 1963.660937 13.098438 
L 1983.660937 13.098438 
" style="fill:none;stroke:#0000ff;stroke-linecap:square;stroke-width:1.5;"/>
   </g>
   <g id="line2d_17"/>
   <g id="text_18">
    <text style="font-family:DejaVu Sans;font-size:10px;font-stretch:normal;font-style:normal;font-weight:normal;text-anchor:start;" transform="rotate(-0, 1991.660937, 16.598438)" x="1991.660937" y="16.598438">ping_day[ms]</text>
   </g>
  </g>
 </g>
 <defs>
  <clipPath id="p11e79e8731">
   <rect height="1774.08" width="1785.6" x="50.421875" y="278.68"/>
  </clipPath>
 </defs>
</svg>
