<?xml version="1.0" encoding="utf-8" standalone="no"?>
<!DOCTYPE svg PUBLIC "-//W3C//DTD SVG 1.1//EN"
  "http://www.w3.org/Graphics/SVG/1.1/DTD/svg11.dtd">
<!-- Created with matplotlib (https://matplotlib.org/) -->
<svg height="2090.594375pt" version="1.1" viewBox="0 0 2074.984375 2090.594375" width="2074.984375pt" xmlns="http://www.w3.org/2000/svg" xmlns:xlink="http://www.w3.org/1999/xlink">
 <metadata>
  <rdf:RDF xmlns:cc="http://creativecommons.org/ns#" xmlns:dc="http://purl.org/dc/elements/1.1/" xmlns:rdf="http://www.w3.org/1999/02/22-rdf-syntax-ns#">
   <cc:Work>
    <dc:type rdf:resource="http://purl.org/dc/dcmitype/StillImage"/>
    <dc:date>2022-07-23T21:21:00.776837</dc:date>
    <dc:format>image/svg+xml</dc:format>
    <dc:creator>
     <cc:Agent>
      <dc:title>Matplotlib v3.3.2, https://matplotlib.org/</dc:title>
     </cc:Agent>
    </dc:creator>
   </cc:Work>
  </rdf:RDF>
 </metadata>
 <defs>
  <style type="text/css">*{stroke-linecap:butt;stroke-linejoin:round;}</style>
 </defs>
 <g id="figure_1">
  <g id="patch_1">
   <path d="M 0 2090.594375 
L 2074.984375 2090.594375 
L 2074.984375 0 
L 0 0 
z
" style="fill:#ffffff;"/>
  </g>
  <g id="axes_1">
   <g id="patch_2">
    <path d="M 56.784375 2052.76 
L 1842.384375 2052.76 
L 1842.384375 278.68 
L 56.784375 278.68 
z
" style="fill:#ffffff;"/>
   </g>
   <g id="matplotlib.axis_1">
    <g id="xtick_1">
     <g id="line2d_1">
      <defs>
       <path d="M 0 0 
L 0 3.5 
" id="m1203fa584d" style="stroke:#000000;stroke-width:0.8;"/>
      </defs>
      <g>
       <use style="stroke:#000000;stroke-width:0.8;" x="231.798897" xlink:href="#m1203fa584d" y="2052.76"/>
      </g>
     </g>
     <g id="text_1">
      <text style="font-family:DejaVu Sans;font-size:10px;font-stretch:normal;font-style:normal;font-weight:normal;text-anchor:middle;" transform="rotate(-0, 231.798897, 2067.358437)" x="231.798897" y="2067.358437">1005.0</text>
     </g>
    </g>
    <g id="xtick_2">
     <g id="line2d_2">
      <g>
       <use style="stroke:#000000;stroke-width:0.8;" x="449.046318" xlink:href="#m1203fa584d" y="2052.76"/>
      </g>
     </g>
     <g id="text_2">
      <text style="font-family:DejaVu Sans;font-size:10px;font-stretch:normal;font-style:normal;font-weight:normal;text-anchor:middle;" transform="rotate(-0, 449.046318, 2067.358437)" x="449.046318" y="2067.358437">1007.5</text>
     </g>
    </g>
    <g id="xtick_3">
     <g id="line2d_3">
      <g>
       <use style="stroke:#000000;stroke-width:0.8;" x="666.293738" xlink:href="#m1203fa584d" y="2052.76"/>
      </g>
     </g>
     <g id="text_3">
      <text style="font-family:DejaVu Sans;font-size:10px;font-stretch:normal;font-style:normal;font-weight:normal;text-anchor:middle;" transform="rotate(-0, 666.293738, 2067.358437)" x="666.293738" y="2067.358437">1010.0</text>
     </g>
    </g>
    <g id="xtick_4">
     <g id="line2d_4">
      <g>
       <use style="stroke:#000000;stroke-width:0.8;" x="883.541159" xlink:href="#m1203fa584d" y="2052.76"/>
      </g>
     </g>
     <g id="text_4">
      <text style="font-family:DejaVu Sans;font-size:10px;font-stretch:normal;font-style:normal;font-weight:normal;text-anchor:middle;" transform="rotate(-0, 883.541159, 2067.358437)" x="883.541159" y="2067.358437">1012.5</text>
     </g>
    </g>
    <g id="xtick_5">
     <g id="line2d_5">
      <g>
       <use style="stroke:#000000;stroke-width:0.8;" x="1100.78858" xlink:href="#m1203fa584d" y="2052.76"/>
      </g>
     </g>
     <g id="text_5">
      <text style="font-family:DejaVu Sans;font-size:10px;font-stretch:normal;font-style:normal;font-weight:normal;text-anchor:middle;" transform="rotate(-0, 1100.78858, 2067.358437)" x="1100.78858" y="2067.358437">1015.0</text>
     </g>
    </g>
    <g id="xtick_6">
     <g id="line2d_6">
      <g>
       <use style="stroke:#000000;stroke-width:0.8;" x="1318.036" xlink:href="#m1203fa584d" y="2052.76"/>
      </g>
     </g>
     <g id="text_6">
      <text style="font-family:DejaVu Sans;font-size:10px;font-stretch:normal;font-style:normal;font-weight:normal;text-anchor:middle;" transform="rotate(-0, 1318.036, 2067.358437)" x="1318.036" y="2067.358437">1017.5</text>
     </g>
    </g>
    <g id="xtick_7">
     <g id="line2d_7">
      <g>
       <use style="stroke:#000000;stroke-width:0.8;" x="1535.283421" xlink:href="#m1203fa584d" y="2052.76"/>
      </g>
     </g>
     <g id="text_7">
      <text style="font-family:DejaVu Sans;font-size:10px;font-stretch:normal;font-style:normal;font-weight:normal;text-anchor:middle;" transform="rotate(-0, 1535.283421, 2067.358437)" x="1535.283421" y="2067.358437">1020.0</text>
     </g>
    </g>
    <g id="xtick_8">
     <g id="line2d_8">
      <g>
       <use style="stroke:#000000;stroke-width:0.8;" x="1752.530842" xlink:href="#m1203fa584d" y="2052.76"/>
      </g>
     </g>
     <g id="text_8">
      <text style="font-family:DejaVu Sans;font-size:10px;font-stretch:normal;font-style:normal;font-weight:normal;text-anchor:middle;" transform="rotate(-0, 1752.530842, 2067.358437)" x="1752.530842" y="2067.358437">1022.5</text>
     </g>
    </g>
    <g id="text_9">
     <text style="font-family:DejaVu Sans;font-size:10px;font-stretch:normal;font-style:normal;font-weight:normal;text-anchor:middle;" transform="rotate(-0, 949.584375, 2081.036562)" x="949.584375" y="2081.036562">air_pressure from WeatherBitIO</text>
    </g>
   </g>
   <g id="matplotlib.axis_2">
    <g id="ytick_1">
     <g id="line2d_9">
      <defs>
       <path d="M 0 0 
L -3.5 0 
" id="mfd5417d3c7" style="stroke:#000000;stroke-width:0.8;"/>
      </defs>
      <g>
       <use style="stroke:#000000;stroke-width:0.8;" x="56.784375" xlink:href="#mfd5417d3c7" y="1978.878521"/>
      </g>
     </g>
     <g id="text_10">
      <text style="font-family:DejaVu Sans;font-size:10px;font-stretch:normal;font-style:normal;font-weight:normal;text-anchor:end;" transform="rotate(-0, 49.784375, 1982.677739)" x="49.784375" y="1982.677739">1.300</text>
     </g>
    </g>
    <g id="ytick_2">
     <g id="line2d_10">
      <g>
       <use style="stroke:#000000;stroke-width:0.8;" x="56.784375" xlink:href="#mfd5417d3c7" y="1776.512828"/>
      </g>
     </g>
     <g id="text_11">
      <text style="font-family:DejaVu Sans;font-size:10px;font-stretch:normal;font-style:normal;font-weight:normal;text-anchor:end;" transform="rotate(-0, 49.784375, 1780.312047)" x="49.784375" y="1780.312047">1.325</text>
     </g>
    </g>
    <g id="ytick_3">
     <g id="line2d_11">
      <g>
       <use style="stroke:#000000;stroke-width:0.8;" x="56.784375" xlink:href="#mfd5417d3c7" y="1574.147135"/>
      </g>
     </g>
     <g id="text_12">
      <text style="font-family:DejaVu Sans;font-size:10px;font-stretch:normal;font-style:normal;font-weight:normal;text-anchor:end;" transform="rotate(-0, 49.784375, 1577.946354)" x="49.784375" y="1577.946354">1.350</text>
     </g>
    </g>
    <g id="ytick_4">
     <g id="line2d_12">
      <g>
       <use style="stroke:#000000;stroke-width:0.8;" x="56.784375" xlink:href="#mfd5417d3c7" y="1371.781442"/>
      </g>
     </g>
     <g id="text_13">
      <text style="font-family:DejaVu Sans;font-size:10px;font-stretch:normal;font-style:normal;font-weight:normal;text-anchor:end;" transform="rotate(-0, 49.784375, 1375.580661)" x="49.784375" y="1375.580661">1.375</text>
     </g>
    </g>
    <g id="ytick_5">
     <g id="line2d_13">
      <g>
       <use style="stroke:#000000;stroke-width:0.8;" x="56.784375" xlink:href="#mfd5417d3c7" y="1169.41575"/>
      </g>
     </g>
     <g id="text_14">
      <text style="font-family:DejaVu Sans;font-size:10px;font-stretch:normal;font-style:normal;font-weight:normal;text-anchor:end;" transform="rotate(-0, 49.784375, 1173.214968)" x="49.784375" y="1173.214968">1.400</text>
     </g>
    </g>
    <g id="ytick_6">
     <g id="line2d_14">
      <g>
       <use style="stroke:#000000;stroke-width:0.8;" x="56.784375" xlink:href="#mfd5417d3c7" y="967.050057"/>
      </g>
     </g>
     <g id="text_15">
      <text style="font-family:DejaVu Sans;font-size:10px;font-stretch:normal;font-style:normal;font-weight:normal;text-anchor:end;" transform="rotate(-0, 49.784375, 970.849276)" x="49.784375" y="970.849276">1.425</text>
     </g>
    </g>
    <g id="ytick_7">
     <g id="line2d_15">
      <g>
       <use style="stroke:#000000;stroke-width:0.8;" x="56.784375" xlink:href="#mfd5417d3c7" y="764.684364"/>
      </g>
     </g>
     <g id="text_16">
      <text style="font-family:DejaVu Sans;font-size:10px;font-stretch:normal;font-style:normal;font-weight:normal;text-anchor:end;" transform="rotate(-0, 49.784375, 768.483583)" x="49.784375" y="768.483583">1.450</text>
     </g>
    </g>
    <g id="ytick_8">
     <g id="line2d_16">
      <g>
       <use style="stroke:#000000;stroke-width:0.8;" x="56.784375" xlink:href="#mfd5417d3c7" y="562.318672"/>
      </g>
     </g>
     <g id="text_17">
      <text style="font-family:DejaVu Sans;font-size:10px;font-stretch:normal;font-style:normal;font-weight:normal;text-anchor:end;" transform="rotate(-0, 49.784375, 566.11789)" x="49.784375" y="566.11789">1.475</text>
     </g>
    </g>
    <g id="ytick_9">
     <g id="line2d_17">
      <g>
       <use style="stroke:#000000;stroke-width:0.8;" x="56.784375" xlink:href="#mfd5417d3c7" y="359.952979"/>
      </g>
     </g>
     <g id="text_18">
      <text style="font-family:DejaVu Sans;font-size:10px;font-stretch:normal;font-style:normal;font-weight:normal;text-anchor:end;" transform="rotate(-0, 49.784375, 363.752198)" x="49.784375" y="363.752198">1.500</text>
     </g>
    </g>
    <g id="text_19">
     <text style="font-family:DejaVu Sans;font-size:10px;font-stretch:normal;font-style:normal;font-weight:normal;text-anchor:middle;" transform="rotate(-90, 14.798438, 1165.72)" x="14.798438" y="1165.72">Throughput_day[Bit/s]</text>
    </g>
    <g id="text_20">
     <text style="font-family:DejaVu Sans;font-size:10px;font-stretch:normal;font-style:normal;font-weight:normal;text-anchor:start;" transform="rotate(-0, 56.784375, 275.68)" x="56.784375" y="275.68">1e7</text>
    </g>
   </g>
   <g id="line2d_18">
    <path clip-path="url(#p42c59adfa5)" d="M 137.948011 1301.963424 
L 138.817001 982.790803 
L 142.29296 1086.179534 
L 150.982857 650.450304 
L 151.851846 1086.003738 
L 177.052547 1320.334657 
L 189.218403 1179.708749 
L 200.515269 1034.754047 
L 217.026072 1273.793132 
L 220.502031 1067.369649 
L 242.226773 1335.787423 
L 264.820505 1348.515672 
L 290.890196 1240.654081 
L 349.981494 1315.70342 
L 356.064422 1259.38133 
L 372.575226 1128.244626 
L 376.920174 1766.24133 
L 388.21704 1428.256015 
L 390.824009 1292.338337 
L 402.120875 1559.493 
L 404.727844 730.16635 
L 432.535514 1696.320234 
L 460.343184 1085.967208 
L 470.77106 1043.756774 
L 486.412874 964.447252 
L 501.185699 1024.992208 
L 547.242152 1433.375919 
L 570.704873 1409.712664 
L 577.656791 1301.732715 
L 580.26376 1465.721156 
L 593.298605 1381.306828 
L 601.119512 1329.684415 
L 602.857492 1348.498942 
L 604.595471 1395.362767 
L 608.07143 1001.505972 
L 616.761327 1329.978229 
L 617.630316 1297.003037 
L 620.237285 743.717922 
L 623.713244 1582.900458 
L 625.451223 1381.320172 
L 628.058192 1568.831258 
L 635.01011 1432.894453 
L 635.8791 1221.871647 
L 639.355058 1329.907849 
L 641.093038 1250.192654 
L 647.175965 1287.550304 
L 654.996873 1245.315342 
L 667.162728 837.681572 
L 668.900707 1137.544951 
L 671.507677 894.122067 
L 674.114646 1297.327958 
L 678.459594 969.105382 
L 681.066563 1222.365678 
L 682.804542 1189.156569 
L 686.280501 936.095365 
L 688.018481 1109.446131 
L 691.494439 1227.043615 
L 692.363429 931.21741 
L 693.232419 444.410271 
L 712.350192 757.873153 
L 715.82615 612.402423 
L 717.56413 1508.262919 
L 719.302109 532.748247 
L 730.598975 1167.631895 
L 762.751593 1030.19555 
L 765.358562 1132.997657 
L 774.917449 1587.633481 
L 779.262397 515.160254 
L 783.607346 1165.8593 
L 784.476335 926.521027 
L 785.345325 1325.012883 
L 787.083304 931.651282 
L 802.725119 1428.22501 
L 820.104912 1405.206482 
L 829.663799 945.582708 
L 838.353696 1217.677594 
L 882.672169 1381.411357 
L 893.100046 1404.784821 
L 895.707015 1446.907299 
L 940.025488 1161.189258 
L 955.667303 1343.812903 
L 1017.36557 1362.826628 
L 1030.400415 1353.157112 
L 1074.718889 1343.801745 
L 1080.801817 1381.33018 
L 1125.989281 1451.702773 
L 1131.203219 1761.240743 
L 1141.631095 1287.545818 
L 1143.369074 1353.191672 
L 1189.425527 1325.020707 
L 1191.163507 1480.107774 
L 1198.115424 1367.227529 
L 1222.447135 1241.208091 
L 1225.923094 1461.369617 
L 1275.455506 1573.932601 
L 1289.359341 1310.933468 
L 1293.704289 1273.477631 
L 1296.311258 1339.221746 
L 1297.180248 1470.555029 
L 1298.918227 1306.257487 
L 1306.739135 1451.711613 
L 1318.90499 1296.93805 
L 1319.77398 1428.470832 
L 1321.511959 1348.534632 
L 1333.677815 1240.646198 
L 1336.284784 1972.12 
L 1338.022763 1442.389322 
L 1338.891753 1428.330205 
L 1342.367712 1465.863516 
L 1363.223464 1357.81865 
L 1380.603258 1423.604326 
L 1383.210227 893.837688 
L 1391.031134 1222.19311 
L 1392.769113 1203.181763 
L 1397.114062 1568.870616 
L 1397.983051 1512.822471 
L 1400.59002 1245.404266 
L 1404.065979 1273.440578 
L 1404.934969 1353.338829 
L 1405.803958 607.799773 
L 1406.672948 893.836527 
L 1409.279917 1296.925725 
L 1411.017897 1362.55707 
L 1413.624866 1325.071001 
L 1414.493855 1292.373085 
L 1416.231835 1798.684223 
L 1417.969814 1283.305154 
L 1419.707793 1479.882938 
L 1420.576783 1723.51855 
L 1422.314762 1184.442293 
L 1426.659711 1367.204147 
L 1428.39769 1376.836598 
L 1430.13567 917.488506 
L 1431.873649 1451.745867 
L 1434.480618 1245.454919 
L 1435.349608 1395.699275 
L 1436.218597 917.189637 
L 1438.825566 1601.830137 
L 1439.694556 1592.758089 
L 1442.301525 1104.666706 
L 1443.170515 1404.82144 
L 1445.777484 1371.963667 
L 1448.384453 1161.008947 
L 1450.122432 1048.3832 
L 1450.991422 1123.632625 
L 1451.860412 1334.600518 
L 1452.729401 1461.085886 
L 1455.33637 1240.664216 
L 1456.20536 1315.667625 
L 1457.07435 1240.610163 
L 1459.681319 1339.09003 
L 1468.371216 982.768917 
L 1469.240205 1147.558435 
L 1470.978185 1372.171786 
L 1471.847174 739.074351 
L 1474.454143 1254.994452 
L 1475.323133 1765.994423 
L 1477.061112 1550.162474 
L 1484.01303 1268.775878 
L 1486.619999 1062.801552 
L 1489.226968 1265.134835 
L 1494.440906 1869.022436 
L 1498.785854 1428.602597 
L 1499.654844 1310.941301 
L 1500.523834 401.480394 
L 1508.344741 847.143024 
L 1513.558679 805.228002 
L 1514.427669 1348.453214 
L 1515.296658 1109.424486 
L 1518.772617 1081.230977 
L 1519.641607 359.32 
L 1520.510597 1400.238658 
L 1523.117566 1133.084057 
L 1524.855545 1761.262223 
L 1525.724535 1306.376157 
L 1529.200493 884.335763 
L 1530.069483 1315.71908 
L 1531.807462 1414.292169 
L 1536.152411 1296.884268 
L 1537.89039 1147.157648 
L 1539.62837 1160.904613 
L 1540.497359 1428.28702 
L 1547.449277 1147.272324 
L 1548.318266 1301.700236 
L 1549.187256 1302.048538 
L 1550.056246 1404.901336 
L 1551.794225 1254.960713 
L 1556.139174 1508.006778 
L 1557.008163 1836.192131 
L 1563.960081 1207.951339 
L 1564.82907 1058.175192 
L 1567.436039 1151.58023 
L 1569.174019 1207.88019 
L 1574.387957 1325.027413 
L 1575.256947 1273.82906 
L 1578.732905 1315.638542 
L 1581.339874 922.081702 
L 1591.767751 772.41874 
L 1593.50573 1334.541334 
L 1594.37472 1128.397025 
L 1596.981689 1025.685352 
L 1597.850678 1236.12352 
L 1603.933606 1250.126271 
L 1606.540575 1601.851936 
L 1609.147544 1484.693447 
L 1615.230472 1550.115383 
L 1619.57542 1475.214563 
L 1624.789358 1475.526596 
L 1626.527338 1423.72175 
L 1627.396328 1526.640053 
L 1630.003297 1404.813672 
L 1642.169152 1255.023692 
L 1643.038142 777.132572 
L 1646.514101 1025.468466 
L 1649.12107 1451.907191 
L 1661.286925 1320.749467 
L 1664.762884 1348.561399 
L 1665.631874 1372.157318 
L 1669.976822 1775.362174 
L 1670.845812 1320.340248 
L 1672.583791 1582.892815 
L 1675.19076 1334.620619 
L 1676.05975 1006.304623 
L 1677.797729 1282.822767 
L 1689.963585 1357.960175 
L 1690.832574 1194.000858 
L 1692.570554 996.907414 
L 1703.86742 1233.023027 
L 1704.736409 664.673125 
L 1712.557316 1170.307269 
L 1716.033275 996.878652 
L 1718.640244 1161.015751 
L 1722.116203 1207.863249 
L 1726.461151 1320.338012 
L 1729.06812 1198.432464 
L 1733.413069 1160.932965 
L 1736.889028 1531.384277 
L 1744.709935 1100.06735 
L 1745.578924 898.380879 
L 1746.447914 1254.735781 
L 1753.399831 1058.032153 
L 1754.268821 1719.119233 
L 1757.74478 1296.892111 
L 1760.351749 1381.33574 
L 1761.220739 1255.073176 
L 1761.220739 1255.073176 
" style="fill:none;stroke:#0000ff;stroke-linecap:square;stroke-width:1.5;"/>
   </g>
   <g id="patch_3">
    <path d="M 56.784375 2052.76 
L 56.784375 278.68 
" style="fill:none;stroke:#000000;stroke-linecap:square;stroke-linejoin:miter;stroke-width:0.8;"/>
   </g>
   <g id="patch_4">
    <path d="M 1842.384375 2052.76 
L 1842.384375 278.68 
" style="fill:none;stroke:#000000;stroke-linecap:square;stroke-linejoin:miter;stroke-width:0.8;"/>
   </g>
   <g id="patch_5">
    <path d="M 56.784375 2052.76 
L 1842.384375 2052.76 
" style="fill:none;stroke:#000000;stroke-linecap:square;stroke-linejoin:miter;stroke-width:0.8;"/>
   </g>
   <g id="patch_6">
    <path d="M 56.784375 278.68 
L 1842.384375 278.68 
" style="fill:none;stroke:#000000;stroke-linecap:square;stroke-linejoin:miter;stroke-width:0.8;"/>
   </g>
   <g id="text_21">
    <text style="font-family:DejaVu Sans;font-size:12px;font-stretch:normal;font-style:normal;font-weight:normal;text-anchor:middle;" transform="rotate(-0, 949.584375, 272.68)" x="949.584375" y="272.68">air_pressure-&gt;Throughput_day</text>
   </g>
  </g>
  <g id="legend_1">
   <g id="patch_7">
    <path d="M 1924.56875 22.95625 
L 2067.984375 22.95625 
Q 2069.984375 22.95625 2069.984375 20.95625 
L 2069.984375 7 
Q 2069.984375 5 2067.984375 5 
L 1924.56875 5 
Q 1922.56875 5 1922.56875 7 
L 1922.56875 20.95625 
Q 1922.56875 22.95625 1924.56875 22.95625 
z
" style="fill:#ffffff;opacity:0.8;stroke:#cccccc;stroke-linejoin:miter;"/>
   </g>
   <g id="line2d_19">
    <path d="M 1926.56875 13.098438 
L 1946.56875 13.098438 
" style="fill:none;stroke:#0000ff;stroke-linecap:square;stroke-width:1.5;"/>
   </g>
   <g id="line2d_20"/>
   <g id="text_22">
    <text style="font-family:DejaVu Sans;font-size:10px;font-stretch:normal;font-style:normal;font-weight:normal;text-anchor:start;" transform="rotate(-0, 1954.56875, 16.598438)" x="1954.56875" y="16.598438">Throughput_day[Bit/s]</text>
   </g>
  </g>
 </g>
 <defs>
  <clipPath id="p42c59adfa5">
   <rect height="1774.08" width="1785.6" x="56.784375" y="278.68"/>
  </clipPath>
 </defs>
</svg>
