<?xml version="1.0" encoding="utf-8" standalone="no"?>
<!DOCTYPE svg PUBLIC "-//W3C//DTD SVG 1.1//EN"
  "http://www.w3.org/Graphics/SVG/1.1/DTD/svg11.dtd">
<!-- Created with matplotlib (https://matplotlib.org/) -->
<svg height="2090.594375pt" version="1.1" viewBox="0 0 2065.165625 2090.594375" width="2065.165625pt" xmlns="http://www.w3.org/2000/svg" xmlns:xlink="http://www.w3.org/1999/xlink">
 <metadata>
  <rdf:RDF xmlns:cc="http://creativecommons.org/ns#" xmlns:dc="http://purl.org/dc/elements/1.1/" xmlns:rdf="http://www.w3.org/1999/02/22-rdf-syntax-ns#">
   <cc:Work>
    <dc:type rdf:resource="http://purl.org/dc/dcmitype/StillImage"/>
    <dc:date>2022-07-23T21:24:30.385854</dc:date>
    <dc:format>image/svg+xml</dc:format>
    <dc:creator>
     <cc:Agent>
      <dc:title>Matplotlib v3.3.2, https://matplotlib.org/</dc:title>
     </cc:Agent>
    </dc:creator>
   </cc:Work>
  </rdf:RDF>
 </metadata>
 <defs>
  <style type="text/css">*{stroke-linecap:butt;stroke-linejoin:round;}</style>
 </defs>
 <g id="figure_1">
  <g id="patch_1">
   <path d="M 0 2090.594375 
L 2065.165625 2090.594375 
L 2065.165625 0 
L 0 0 
z
" style="fill:#ffffff;"/>
  </g>
  <g id="axes_1">
   <g id="patch_2">
    <path d="M 46.965625 2052.76 
L 1832.565625 2052.76 
L 1832.565625 278.68 
L 46.965625 278.68 
z
" style="fill:#ffffff;"/>
   </g>
   <g id="matplotlib.axis_1">
    <g id="xtick_1">
     <g id="line2d_1">
      <defs>
       <path d="M 0 0 
L 0 3.5 
" id="m7d63eb2490" style="stroke:#000000;stroke-width:0.8;"/>
      </defs>
      <g>
       <use style="stroke:#000000;stroke-width:0.8;" x="128.129261" xlink:href="#m7d63eb2490" y="2052.76"/>
      </g>
     </g>
     <g id="text_1">
      <text style="font-family:DejaVu Sans;font-size:10px;font-stretch:normal;font-style:normal;font-weight:normal;text-anchor:middle;" transform="rotate(-0, 128.129261, 2067.358437)" x="128.129261" y="2067.358437">0</text>
     </g>
    </g>
    <g id="xtick_2">
     <g id="line2d_2">
      <g>
       <use style="stroke:#000000;stroke-width:0.8;" x="423.269757" xlink:href="#m7d63eb2490" y="2052.76"/>
      </g>
     </g>
     <g id="text_2">
      <text style="font-family:DejaVu Sans;font-size:10px;font-stretch:normal;font-style:normal;font-weight:normal;text-anchor:middle;" transform="rotate(-0, 423.269757, 2067.358437)" x="423.269757" y="2067.358437">2</text>
     </g>
    </g>
    <g id="xtick_3">
     <g id="line2d_3">
      <g>
       <use style="stroke:#000000;stroke-width:0.8;" x="718.410253" xlink:href="#m7d63eb2490" y="2052.76"/>
      </g>
     </g>
     <g id="text_3">
      <text style="font-family:DejaVu Sans;font-size:10px;font-stretch:normal;font-style:normal;font-weight:normal;text-anchor:middle;" transform="rotate(-0, 718.410253, 2067.358437)" x="718.410253" y="2067.358437">4</text>
     </g>
    </g>
    <g id="xtick_4">
     <g id="line2d_4">
      <g>
       <use style="stroke:#000000;stroke-width:0.8;" x="1013.550749" xlink:href="#m7d63eb2490" y="2052.76"/>
      </g>
     </g>
     <g id="text_4">
      <text style="font-family:DejaVu Sans;font-size:10px;font-stretch:normal;font-style:normal;font-weight:normal;text-anchor:middle;" transform="rotate(-0, 1013.550749, 2067.358437)" x="1013.550749" y="2067.358437">6</text>
     </g>
    </g>
    <g id="xtick_5">
     <g id="line2d_5">
      <g>
       <use style="stroke:#000000;stroke-width:0.8;" x="1308.691245" xlink:href="#m7d63eb2490" y="2052.76"/>
      </g>
     </g>
     <g id="text_5">
      <text style="font-family:DejaVu Sans;font-size:10px;font-stretch:normal;font-style:normal;font-weight:normal;text-anchor:middle;" transform="rotate(-0, 1308.691245, 2067.358437)" x="1308.691245" y="2067.358437">8</text>
     </g>
    </g>
    <g id="xtick_6">
     <g id="line2d_6">
      <g>
       <use style="stroke:#000000;stroke-width:0.8;" x="1603.831741" xlink:href="#m7d63eb2490" y="2052.76"/>
      </g>
     </g>
     <g id="text_6">
      <text style="font-family:DejaVu Sans;font-size:10px;font-stretch:normal;font-style:normal;font-weight:normal;text-anchor:middle;" transform="rotate(-0, 1603.831741, 2067.358437)" x="1603.831741" y="2067.358437">10</text>
     </g>
    </g>
    <g id="text_7">
     <text style="font-family:DejaVu Sans;font-size:10px;font-stretch:normal;font-style:normal;font-weight:normal;text-anchor:middle;" transform="rotate(-0, 939.765625, 2081.036562)" x="939.765625" y="2081.036562">wind_speed from BuienRadar</text>
    </g>
   </g>
   <g id="matplotlib.axis_2">
    <g id="ytick_1">
     <g id="line2d_7">
      <defs>
       <path d="M 0 0 
L -3.5 0 
" id="mfeb3f1f6c2" style="stroke:#000000;stroke-width:0.8;"/>
      </defs>
      <g>
       <use style="stroke:#000000;stroke-width:0.8;" x="46.965625" xlink:href="#mfeb3f1f6c2" y="1972.12"/>
      </g>
     </g>
     <g id="text_8">
      <text style="font-family:DejaVu Sans;font-size:10px;font-stretch:normal;font-style:normal;font-weight:normal;text-anchor:end;" transform="rotate(-0, 39.965625, 1975.919219)" x="39.965625" y="1975.919219">0</text>
     </g>
    </g>
    <g id="ytick_2">
     <g id="line2d_8">
      <g>
       <use style="stroke:#000000;stroke-width:0.8;" x="46.965625" xlink:href="#mfeb3f1f6c2" y="1676.735385"/>
      </g>
     </g>
     <g id="text_9">
      <text style="font-family:DejaVu Sans;font-size:10px;font-stretch:normal;font-style:normal;font-weight:normal;text-anchor:end;" transform="rotate(-0, 39.965625, 1680.534603)" x="39.965625" y="1680.534603">50</text>
     </g>
    </g>
    <g id="ytick_3">
     <g id="line2d_9">
      <g>
       <use style="stroke:#000000;stroke-width:0.8;" x="46.965625" xlink:href="#mfeb3f1f6c2" y="1381.350769"/>
      </g>
     </g>
     <g id="text_10">
      <text style="font-family:DejaVu Sans;font-size:10px;font-stretch:normal;font-style:normal;font-weight:normal;text-anchor:end;" transform="rotate(-0, 39.965625, 1385.149988)" x="39.965625" y="1385.149988">100</text>
     </g>
    </g>
    <g id="ytick_4">
     <g id="line2d_10">
      <g>
       <use style="stroke:#000000;stroke-width:0.8;" x="46.965625" xlink:href="#mfeb3f1f6c2" y="1085.966154"/>
      </g>
     </g>
     <g id="text_11">
      <text style="font-family:DejaVu Sans;font-size:10px;font-stretch:normal;font-style:normal;font-weight:normal;text-anchor:end;" transform="rotate(-0, 39.965625, 1089.765373)" x="39.965625" y="1089.765373">150</text>
     </g>
    </g>
    <g id="ytick_5">
     <g id="line2d_11">
      <g>
       <use style="stroke:#000000;stroke-width:0.8;" x="46.965625" xlink:href="#mfeb3f1f6c2" y="790.581538"/>
      </g>
     </g>
     <g id="text_12">
      <text style="font-family:DejaVu Sans;font-size:10px;font-stretch:normal;font-style:normal;font-weight:normal;text-anchor:end;" transform="rotate(-0, 39.965625, 794.380757)" x="39.965625" y="794.380757">200</text>
     </g>
    </g>
    <g id="ytick_6">
     <g id="line2d_12">
      <g>
       <use style="stroke:#000000;stroke-width:0.8;" x="46.965625" xlink:href="#mfeb3f1f6c2" y="495.196923"/>
      </g>
     </g>
     <g id="text_13">
      <text style="font-family:DejaVu Sans;font-size:10px;font-stretch:normal;font-style:normal;font-weight:normal;text-anchor:end;" transform="rotate(-0, 39.965625, 498.996142)" x="39.965625" y="498.996142">250</text>
     </g>
    </g>
    <g id="text_14">
     <text style="font-family:DejaVu Sans;font-size:10px;font-stretch:normal;font-style:normal;font-weight:normal;text-anchor:middle;" transform="rotate(-90, 14.798437, 1165.72)" x="14.798437" y="1165.72">Retransmission[dimensionless]</text>
    </g>
   </g>
   <g id="line2d_13">
    <path clip-path="url(#pe6c35d55f5)" d="M 128.129261 1972.12 
L 142.886286 1174.581538 
L 157.643311 1966.212308 
L 172.400336 1546.766154 
L 187.157361 1936.673846 
L 201.914385 1966.212308 
L 216.67141 1972.12 
L 231.428435 1966.212308 
L 246.18546 1972.12 
L 260.942485 1972.12 
L 275.699509 1972.12 
L 290.456534 1972.12 
L 305.213559 1972.12 
L 319.970584 1972.12 
L 334.727608 1972.12 
L 349.484633 1972.12 
L 364.241658 1954.396923 
L 378.998683 1972.12 
L 393.755708 1972.12 
L 408.512732 1972.12 
L 423.269757 1966.212308 
L 438.026782 1972.12 
L 452.783807 1972.12 
L 467.540832 1972.12 
L 482.297856 1972.12 
L 497.054881 1972.12 
L 511.811906 1972.12 
L 526.568931 1960.304615 
L 541.325956 1972.12 
L 556.08298 1972.12 
L 570.840005 1972.12 
L 585.59703 1942.581538 
L 600.354055 1972.12 
L 615.11108 1972.12 
L 629.868104 1972.12 
L 644.625129 1972.12 
L 659.382154 1966.212308 
L 674.139179 1972.12 
L 688.896204 1972.12 
L 703.653228 1966.212308 
L 718.410253 1972.12 
L 733.167278 1966.212308 
L 747.924303 1972.12 
L 762.681327 1972.12 
L 777.438352 1972.12 
L 792.195377 1972.12 
L 806.952402 1972.12 
L 821.709427 1800.796923 
L 836.466451 1966.212308 
L 851.223476 1812.612308 
L 865.980501 1972.12 
L 880.737526 1924.858462 
L 895.494551 1948.489231 
L 910.251575 1806.704615 
L 925.0086 1913.043077 
L 939.765625 1972.12 
L 954.52265 1889.412308 
L 969.279675 1972.12 
L 984.036699 1972.12 
L 998.793724 1960.304615 
L 1013.550749 1558.581538 
L 1028.307774 1966.212308 
L 1043.064799 1918.950769 
L 1057.821823 1948.489231 
L 1072.578848 1972.12 
L 1087.335873 1966.212308 
L 1102.092898 1930.766154 
L 1116.849923 1954.396923 
L 1131.606947 1635.381538 
L 1146.363972 1901.227692 
L 1161.120997 1942.581538 
L 1175.878022 1942.581538 
L 1190.635046 1972.12 
L 1205.392071 1960.304615 
L 1220.149096 1954.396923 
L 1234.906121 1966.212308 
L 1249.663146 1582.212308 
L 1264.42017 1653.104615 
L 1279.177195 1972.12 
L 1293.93422 1529.043077 
L 1308.691245 1913.043077 
L 1323.44827 1410.889231 
L 1338.205294 1416.796923 
L 1352.962319 1930.766154 
L 1367.719344 1363.627692 
L 1382.476369 1576.304615 
L 1397.233394 1700.366154 
L 1426.747443 1936.673846 
L 1441.504468 1026.889231 
L 1456.261493 1960.304615 
L 1485.775542 1960.304615 
L 1530.046617 684.243077 
L 1544.803642 359.32 
L 1559.560666 542.458462 
L 1736.644964 371.135385 
L 1751.401989 1966.212308 
" style="fill:none;stroke:#0000ff;stroke-linecap:square;stroke-width:1.5;"/>
   </g>
   <g id="patch_3">
    <path d="M 46.965625 2052.76 
L 46.965625 278.68 
" style="fill:none;stroke:#000000;stroke-linecap:square;stroke-linejoin:miter;stroke-width:0.8;"/>
   </g>
   <g id="patch_4">
    <path d="M 1832.565625 2052.76 
L 1832.565625 278.68 
" style="fill:none;stroke:#000000;stroke-linecap:square;stroke-linejoin:miter;stroke-width:0.8;"/>
   </g>
   <g id="patch_5">
    <path d="M 46.965625 2052.76 
L 1832.565625 2052.76 
" style="fill:none;stroke:#000000;stroke-linecap:square;stroke-linejoin:miter;stroke-width:0.8;"/>
   </g>
   <g id="patch_6">
    <path d="M 46.965625 278.68 
L 1832.565625 278.68 
" style="fill:none;stroke:#000000;stroke-linecap:square;stroke-linejoin:miter;stroke-width:0.8;"/>
   </g>
   <g id="text_15">
    <text style="font-family:DejaVu Sans;font-size:12px;font-stretch:normal;font-style:normal;font-weight:normal;text-anchor:middle;" transform="rotate(-0, 939.765625, 272.68)" x="939.765625" y="272.68">wind_speed-&gt;Retransmission</text>
   </g>
  </g>
  <g id="legend_1">
   <g id="patch_7">
    <path d="M 1870.68125 22.678125 
L 2058.165625 22.678125 
Q 2060.165625 22.678125 2060.165625 20.678125 
L 2060.165625 7 
Q 2060.165625 5 2058.165625 5 
L 1870.68125 5 
Q 1868.68125 5 1868.68125 7 
L 1868.68125 20.678125 
Q 1868.68125 22.678125 1870.68125 22.678125 
z
" style="fill:#ffffff;opacity:0.8;stroke:#cccccc;stroke-linejoin:miter;"/>
   </g>
   <g id="line2d_14">
    <path d="M 1872.68125 13.098437 
L 1892.68125 13.098437 
" style="fill:none;stroke:#0000ff;stroke-linecap:square;stroke-width:1.5;"/>
   </g>
   <g id="line2d_15"/>
   <g id="text_16">
    <text style="font-family:DejaVu Sans;font-size:10px;font-stretch:normal;font-style:normal;font-weight:normal;text-anchor:start;" transform="rotate(-0, 1900.68125, 16.598437)" x="1900.68125" y="16.598437">Retransmission[dimensionless]</text>
   </g>
  </g>
 </g>
 <defs>
  <clipPath id="pe6c35d55f5">
   <rect height="1774.08" width="1785.6" x="46.965625" y="278.68"/>
  </clipPath>
 </defs>
</svg>
