<?xml version="1.0" encoding="utf-8" standalone="no"?>
<!DOCTYPE svg PUBLIC "-//W3C//DTD SVG 1.1//EN"
  "http://www.w3.org/Graphics/SVG/1.1/DTD/svg11.dtd">
<!-- Created with matplotlib (https://matplotlib.org/) -->
<svg height="2090.594375pt" version="1.1" viewBox="0 0 2065.165625 2090.594375" width="2065.165625pt" xmlns="http://www.w3.org/2000/svg" xmlns:xlink="http://www.w3.org/1999/xlink">
 <metadata>
  <rdf:RDF xmlns:cc="http://creativecommons.org/ns#" xmlns:dc="http://purl.org/dc/elements/1.1/" xmlns:rdf="http://www.w3.org/1999/02/22-rdf-syntax-ns#">
   <cc:Work>
    <dc:type rdf:resource="http://purl.org/dc/dcmitype/StillImage"/>
    <dc:date>2022-07-23T21:25:55.089876</dc:date>
    <dc:format>image/svg+xml</dc:format>
    <dc:creator>
     <cc:Agent>
      <dc:title>Matplotlib v3.3.2, https://matplotlib.org/</dc:title>
     </cc:Agent>
    </dc:creator>
   </cc:Work>
  </rdf:RDF>
 </metadata>
 <defs>
  <style type="text/css">*{stroke-linecap:butt;stroke-linejoin:round;}</style>
 </defs>
 <g id="figure_1">
  <g id="patch_1">
   <path d="M 0 2090.594375 
L 2065.165625 2090.594375 
L 2065.165625 0 
L 0 0 
z
" style="fill:#ffffff;"/>
  </g>
  <g id="axes_1">
   <g id="patch_2">
    <path d="M 46.965625 2052.76 
L 1832.565625 2052.76 
L 1832.565625 278.68 
L 46.965625 278.68 
z
" style="fill:#ffffff;"/>
   </g>
   <g id="matplotlib.axis_1">
    <g id="xtick_1">
     <g id="line2d_1">
      <defs>
       <path d="M 0 0 
L 0 3.5 
" id="me82f2ef0b0" style="stroke:#000000;stroke-width:0.8;"/>
      </defs>
      <g>
       <use style="stroke:#000000;stroke-width:0.8;" x="220.157321" xlink:href="#me82f2ef0b0" y="2052.76"/>
      </g>
     </g>
     <g id="text_1">
      <text style="font-family:DejaVu Sans;font-size:10px;font-stretch:normal;font-style:normal;font-weight:normal;text-anchor:middle;" transform="rotate(-0, 220.157321, 2067.358437)" x="220.157321" y="2067.358437">1005.0</text>
     </g>
    </g>
    <g id="xtick_2">
     <g id="line2d_2">
      <g>
       <use style="stroke:#000000;stroke-width:0.8;" x="433.185238" xlink:href="#me82f2ef0b0" y="2052.76"/>
      </g>
     </g>
     <g id="text_2">
      <text style="font-family:DejaVu Sans;font-size:10px;font-stretch:normal;font-style:normal;font-weight:normal;text-anchor:middle;" transform="rotate(-0, 433.185238, 2067.358437)" x="433.185238" y="2067.358437">1007.5</text>
     </g>
    </g>
    <g id="xtick_3">
     <g id="line2d_3">
      <g>
       <use style="stroke:#000000;stroke-width:0.8;" x="646.213155" xlink:href="#me82f2ef0b0" y="2052.76"/>
      </g>
     </g>
     <g id="text_3">
      <text style="font-family:DejaVu Sans;font-size:10px;font-stretch:normal;font-style:normal;font-weight:normal;text-anchor:middle;" transform="rotate(-0, 646.213155, 2067.358437)" x="646.213155" y="2067.358437">1010.0</text>
     </g>
    </g>
    <g id="xtick_4">
     <g id="line2d_4">
      <g>
       <use style="stroke:#000000;stroke-width:0.8;" x="859.241072" xlink:href="#me82f2ef0b0" y="2052.76"/>
      </g>
     </g>
     <g id="text_4">
      <text style="font-family:DejaVu Sans;font-size:10px;font-stretch:normal;font-style:normal;font-weight:normal;text-anchor:middle;" transform="rotate(-0, 859.241072, 2067.358437)" x="859.241072" y="2067.358437">1012.5</text>
     </g>
    </g>
    <g id="xtick_5">
     <g id="line2d_5">
      <g>
       <use style="stroke:#000000;stroke-width:0.8;" x="1072.268989" xlink:href="#me82f2ef0b0" y="2052.76"/>
      </g>
     </g>
     <g id="text_5">
      <text style="font-family:DejaVu Sans;font-size:10px;font-stretch:normal;font-style:normal;font-weight:normal;text-anchor:middle;" transform="rotate(-0, 1072.268989, 2067.358437)" x="1072.268989" y="2067.358437">1015.0</text>
     </g>
    </g>
    <g id="xtick_6">
     <g id="line2d_6">
      <g>
       <use style="stroke:#000000;stroke-width:0.8;" x="1285.296906" xlink:href="#me82f2ef0b0" y="2052.76"/>
      </g>
     </g>
     <g id="text_6">
      <text style="font-family:DejaVu Sans;font-size:10px;font-stretch:normal;font-style:normal;font-weight:normal;text-anchor:middle;" transform="rotate(-0, 1285.296906, 2067.358437)" x="1285.296906" y="2067.358437">1017.5</text>
     </g>
    </g>
    <g id="xtick_7">
     <g id="line2d_7">
      <g>
       <use style="stroke:#000000;stroke-width:0.8;" x="1498.324823" xlink:href="#me82f2ef0b0" y="2052.76"/>
      </g>
     </g>
     <g id="text_7">
      <text style="font-family:DejaVu Sans;font-size:10px;font-stretch:normal;font-style:normal;font-weight:normal;text-anchor:middle;" transform="rotate(-0, 1498.324823, 2067.358437)" x="1498.324823" y="2067.358437">1020.0</text>
     </g>
    </g>
    <g id="xtick_8">
     <g id="line2d_8">
      <g>
       <use style="stroke:#000000;stroke-width:0.8;" x="1711.35274" xlink:href="#me82f2ef0b0" y="2052.76"/>
      </g>
     </g>
     <g id="text_8">
      <text style="font-family:DejaVu Sans;font-size:10px;font-stretch:normal;font-style:normal;font-weight:normal;text-anchor:middle;" transform="rotate(-0, 1711.35274, 2067.358437)" x="1711.35274" y="2067.358437">1022.5</text>
     </g>
    </g>
    <g id="text_9">
     <text style="font-family:DejaVu Sans;font-size:10px;font-stretch:normal;font-style:normal;font-weight:normal;text-anchor:middle;" transform="rotate(-0, 939.765625, 2081.036562)" x="939.765625" y="2081.036562">air_pressure from WeatherBitIO</text>
    </g>
   </g>
   <g id="matplotlib.axis_2">
    <g id="ytick_1">
     <g id="line2d_9">
      <defs>
       <path d="M 0 0 
L -3.5 0 
" id="m8af9b594b9" style="stroke:#000000;stroke-width:0.8;"/>
      </defs>
      <g>
       <use style="stroke:#000000;stroke-width:0.8;" x="46.965625" xlink:href="#m8af9b594b9" y="1972.12"/>
      </g>
     </g>
     <g id="text_10">
      <text style="font-family:DejaVu Sans;font-size:10px;font-stretch:normal;font-style:normal;font-weight:normal;text-anchor:end;" transform="rotate(-0, 39.965625, 1975.919219)" x="39.965625" y="1975.919219">0</text>
     </g>
    </g>
    <g id="ytick_2">
     <g id="line2d_10">
      <g>
       <use style="stroke:#000000;stroke-width:0.8;" x="46.965625" xlink:href="#m8af9b594b9" y="1623.029091"/>
      </g>
     </g>
     <g id="text_11">
      <text style="font-family:DejaVu Sans;font-size:10px;font-stretch:normal;font-style:normal;font-weight:normal;text-anchor:end;" transform="rotate(-0, 39.965625, 1626.82831)" x="39.965625" y="1626.82831">100</text>
     </g>
    </g>
    <g id="ytick_3">
     <g id="line2d_11">
      <g>
       <use style="stroke:#000000;stroke-width:0.8;" x="46.965625" xlink:href="#m8af9b594b9" y="1273.938182"/>
      </g>
     </g>
     <g id="text_12">
      <text style="font-family:DejaVu Sans;font-size:10px;font-stretch:normal;font-style:normal;font-weight:normal;text-anchor:end;" transform="rotate(-0, 39.965625, 1277.737401)" x="39.965625" y="1277.737401">200</text>
     </g>
    </g>
    <g id="ytick_4">
     <g id="line2d_12">
      <g>
       <use style="stroke:#000000;stroke-width:0.8;" x="46.965625" xlink:href="#m8af9b594b9" y="924.847273"/>
      </g>
     </g>
     <g id="text_13">
      <text style="font-family:DejaVu Sans;font-size:10px;font-stretch:normal;font-style:normal;font-weight:normal;text-anchor:end;" transform="rotate(-0, 39.965625, 928.646491)" x="39.965625" y="928.646491">300</text>
     </g>
    </g>
    <g id="ytick_5">
     <g id="line2d_13">
      <g>
       <use style="stroke:#000000;stroke-width:0.8;" x="46.965625" xlink:href="#m8af9b594b9" y="575.756364"/>
      </g>
     </g>
     <g id="text_14">
      <text style="font-family:DejaVu Sans;font-size:10px;font-stretch:normal;font-style:normal;font-weight:normal;text-anchor:end;" transform="rotate(-0, 39.965625, 579.555582)" x="39.965625" y="579.555582">400</text>
     </g>
    </g>
    <g id="text_15">
     <text style="font-family:DejaVu Sans;font-size:10px;font-stretch:normal;font-style:normal;font-weight:normal;text-anchor:middle;" transform="rotate(-90, 14.798437, 1165.72)" x="14.798437" y="1165.72">Retransmission[dimensionless]</text>
    </g>
   </g>
   <g id="line2d_14">
    <path clip-path="url(#p2e95d1f20c)" d="M 128.129261 1350.738182 
L 128.981373 1249.501818 
L 132.38982 1968.629091 
L 140.910936 1972.12 
L 141.763048 1462.447273 
L 166.474286 1088.92 
L 178.40385 1546.229091 
L 189.481301 882.956364 
L 203.115088 1972.12 
L 205.671423 1458.956364 
L 208.227758 1968.629091 
L 209.07987 1190.156364 
L 217.600986 1657.938182 
L 230.382662 1336.774545 
L 242.312225 1947.683636 
L 252.537565 1958.156364 
L 263.615017 1609.065455 
L 278.100915 1636.992727 
L 290.030478 1954.665455 
L 300.255818 1280.92 
L 336.044508 1919.756364 
L 342.00929 1514.810909 
L 358.199412 1511.32 
L 362.45997 1193.647273 
L 373.537422 1968.629091 
L 376.093757 1410.083636 
L 387.171208 1972.12 
L 389.727543 1965.138182 
L 416.995117 1972.12 
L 434.889462 1284.410909 
L 444.26269 1560.192727 
L 454.48803 1968.629091 
L 457.896477 1972.12 
L 459.6007 1972.12 
L 469.82604 1602.083636 
L 484.311939 1410.083636 
L 502.206284 1326.301818 
L 506.466842 1968.629091 
L 528.621745 1647.465455 
L 529.473857 1200.629091 
L 552.480872 1972.12 
L 553.332984 1972.12 
L 556.74143 1465.938182 
L 559.297765 1190.156364 
L 561.8541 1183.174545 
L 570.375217 952.774545 
L 574.635775 1242.52 
L 582.30478 1102.883636 
L 584.009004 1033.065455 
L 584.861115 1155.247273 
L 585.713227 1657.938182 
L 589.121674 1636.992727 
L 597.64279 1469.429091 
L 598.494902 1476.410909 
L 601.051237 1420.556364 
L 604.459684 1630.010909 
L 606.163907 1689.356364 
L 608.720242 1095.901818 
L 609.572354 1190.156364 
L 611.276577 1867.392727 
L 615.537135 1682.374545 
L 616.389247 1773.138182 
L 619.797694 1849.938182 
L 621.501917 1567.174545 
L 627.466699 1703.32 
L 635.135704 1315.829091 
L 647.065267 1905.792727 
L 648.76949 1930.229091 
L 651.325825 1972.12 
L 653.88216 1591.610909 
L 658.142719 1972.12 
L 659.846942 1259.974545 
L 660.699054 1479.901818 
L 662.403277 1626.52 
L 665.811724 1968.629091 
L 667.515947 1364.701818 
L 670.924394 1252.992727 
L 672.628617 1961.647273 
L 680.297622 1193.647273 
L 691.375074 1968.629091 
L 694.78352 1972.12 
L 696.487744 1207.610909 
L 698.191967 1612.556364 
L 706.713084 1064.483636 
L 709.269419 1968.629091 
L 715.234201 1123.829091 
L 723.755317 1071.465455 
L 733.128546 1972.12 
L 740.797551 1947.683636 
L 743.353886 1937.210909 
L 752.727114 1972.12 
L 754.431337 1954.665455 
L 756.987672 1965.138182 
L 761.248231 1368.192727 
L 762.100342 1312.338182 
L 762.952454 1151.756364 
L 764.656677 1965.138182 
L 779.994687 1375.174545 
L 797.036921 1047.029091 
L 806.410149 1343.756364 
L 814.931266 1434.52 
L 858.388961 1518.301818 
L 868.614301 1249.501818 
L 871.170636 820.12 
L 914.628331 1228.556364 
L 929.966341 1120.338182 
L 990.466269 1322.810909 
L 1003.247944 1434.52 
L 1046.705639 1654.447273 
L 1052.670421 1343.756364 
L 1096.980228 1389.138182 
L 1102.092898 1095.901818 
L 1112.318238 1371.683636 
L 1114.022461 1273.938182 
L 1159.184379 1239.029091 
L 1160.888603 1047.029091 
L 1167.705496 1650.956364 
L 1191.564623 1197.138182 
L 1194.97307 1326.301818 
L 1243.543435 1165.72 
L 1257.177221 1109.865455 
L 1261.43778 1259.974545 
L 1264.846226 1710.301818 
L 1266.55045 1221.574545 
L 1274.219455 1165.72 
L 1286.149018 1525.283636 
L 1287.00113 1616.047273 
L 1288.705353 1685.865455 
L 1300.634916 1158.738182 
L 1303.191251 1469.429091 
L 1304.895475 1542.738182 
L 1305.747586 1228.556364 
L 1309.156033 1214.592727 
L 1314.268703 1085.429091 
L 1317.67715 1965.138182 
L 1329.606713 1451.974545 
L 1346.648946 1022.592727 
L 1348.35317 868.992727 
L 1349.205281 1734.738182 
L 1351.761616 1043.538182 
L 1356.022175 1968.629091 
L 1356.874286 1609.065455 
L 1358.57851 1664.92 
L 1360.282733 1965.138182 
L 1361.986956 1057.501818 
L 1362.839068 977.210909 
L 1363.69118 1650.956364 
L 1364.543291 1266.956364 
L 1366.247515 1200.629091 
L 1369.655961 1399.610909 
L 1370.508073 1972.12 
L 1371.360185 1239.029091 
L 1372.212296 1099.392727 
L 1373.91652 1972.12 
L 1374.768631 1923.247273 
L 1376.472855 1214.592727 
L 1377.324966 1916.265455 
L 1379.02919 1207.610909 
L 1380.733413 1738.229091 
L 1383.289748 1284.410909 
L 1384.14186 1902.301818 
L 1384.993971 1392.629091 
L 1385.846083 1657.938182 
L 1387.550306 1612.556364 
L 1390.106641 1165.72 
L 1390.958753 1965.138182 
L 1391.810865 1507.829091 
L 1393.515088 1012.12 
L 1395.219311 1277.429091 
L 1396.923535 1968.629091 
L 1398.627758 1448.483636 
L 1399.47987 1434.52 
L 1400.331981 1699.829091 
L 1401.184093 1239.029091 
L 1402.888316 1137.792727 
L 1403.740428 1877.865455 
L 1404.59254 1134.301818 
L 1407.148875 1120.338182 
L 1410.557321 1972.12 
L 1413.113656 1172.701818 
L 1414.81788 1368.192727 
L 1415.669991 1099.392727 
L 1416.522103 1354.229091 
L 1417.374215 1403.101818 
L 1419.078438 1972.12 
L 1419.93055 1200.629091 
L 1420.782662 1972.12 
L 1421.634773 1787.101818 
L 1423.338997 1636.992727 
L 1424.191108 1186.665455 
L 1430.15589 987.683636 
L 1432.712225 1664.92 
L 1433.564337 1773.138182 
L 1435.26856 565.283636 
L 1436.120672 1378.665455 
L 1437.824895 1012.12 
L 1438.677007 1542.738182 
L 1439.529118 1972.12 
L 1441.233342 1514.810909 
L 1442.085453 792.192727 
L 1442.937565 1022.592727 
L 1448.050235 1605.574545 
L 1448.902347 1441.501818 
L 1450.60657 1420.556364 
L 1453.162905 1451.974545 
L 1454.015017 1724.265455 
L 1454.867128 1088.92 
L 1458.275575 1193.647273 
L 1462.536133 1916.265455 
L 1463.388245 1179.683636 
L 1464.240357 1347.247273 
L 1468.500915 1301.865455 
L 1469.353027 1507.829091 
L 1471.909362 1591.610909 
L 1472.761473 1162.229091 
L 1475.317808 1162.229091 
L 1477.022032 1961.647273 
L 1477.874143 1710.301818 
L 1478.726255 1972.12 
L 1481.28259 523.392727 
L 1482.134702 1357.72 
L 1482.986813 1204.12 
L 1483.838925 1085.429091 
L 1486.39526 1378.665455 
L 1488.099483 1172.701818 
L 1488.951595 1661.429091 
L 1492.360042 1940.701818 
L 1493.212153 1137.792727 
L 1494.916377 1668.410909 
L 1499.176935 1246.010909 
L 1502.585382 1123.829091 
L 1503.437493 1972.12 
L 1510.254387 1699.829091 
L 1511.106498 1340.265455 
L 1511.95861 359.32 
L 1512.810722 1441.501818 
L 1514.514945 1584.629091 
L 1518.775503 1120.338182 
L 1519.627615 1256.483636 
L 1526.444508 1165.72 
L 1527.29662 1944.192727 
L 1529.852955 1399.610909 
L 1531.557178 1881.356364 
L 1536.669848 1183.174545 
L 1537.52196 1120.338182 
L 1540.930407 1661.429091 
L 1543.486742 1867.392727 
L 1552.85997 1958.156364 
L 1553.712082 1183.174545 
L 1555.416305 1015.610909 
L 1556.268417 1612.556364 
L 1557.97264 1483.392727 
L 1558.824752 1036.556364 
L 1559.676863 1968.629091 
L 1565.641645 1190.156364 
L 1566.493757 666.52 
L 1568.19798 1005.138182 
L 1570.754315 558.301818 
L 1572.458538 1828.992727 
L 1576.719097 1026.083636 
L 1580.979655 1120.338182 
L 1586.092325 1204.12 
L 1587.796548 1183.174545 
L 1588.64866 1106.374545 
L 1591.204995 1239.029091 
L 1592.057107 1776.629091 
L 1601.430335 1661.429091 
L 1603.134558 1186.665455 
L 1603.98667 1235.538182 
L 1607.395117 1162.229091 
L 1609.951452 1190.156364 
L 1621.881015 1047.029091 
L 1625.289462 1329.792727 
L 1626.141573 1493.865455 
L 1630.402132 1022.592727 
L 1631.254243 1022.592727 
L 1632.958467 1088.92 
L 1636.366913 1912.774545 
L 1638.071137 1179.683636 
L 1650.0007 1277.429091 
L 1650.852812 1026.083636 
L 1652.557035 1595.101818 
L 1663.634487 1099.392727 
L 1664.486599 1972.12 
L 1667.042934 1972.12 
L 1672.155604 1113.356364 
L 1675.56405 1144.774545 
L 1678.120385 1382.156364 
L 1681.528832 1972.12 
L 1685.78939 1148.265455 
L 1688.345725 1350.738182 
L 1692.606284 1895.32 
L 1695.162619 1972.12 
L 1696.01473 1176.192727 
L 1703.683735 1898.810909 
L 1704.535847 1294.883636 
L 1705.387959 1218.083636 
L 1707.944294 1968.629091 
L 1709.648517 1951.174545 
L 1710.500629 1972.12 
L 1711.35274 1246.010909 
L 1712.204852 1769.647273 
L 1713.056964 879.465455 
L 1716.46541 1165.72 
L 1719.021745 1239.029091 
L 1719.873857 1088.92 
L 1721.57808 1951.174545 
L 1724.986527 1120.338182 
L 1729.247085 1151.756364 
L 1730.951309 1102.883636 
L 1747.14143 1186.665455 
L 1747.993542 1109.865455 
L 1751.401989 1252.992727 
L 1751.401989 1252.992727 
" style="fill:none;stroke:#0000ff;stroke-linecap:square;stroke-width:1.5;"/>
   </g>
   <g id="patch_3">
    <path d="M 46.965625 2052.76 
L 46.965625 278.68 
" style="fill:none;stroke:#000000;stroke-linecap:square;stroke-linejoin:miter;stroke-width:0.8;"/>
   </g>
   <g id="patch_4">
    <path d="M 1832.565625 2052.76 
L 1832.565625 278.68 
" style="fill:none;stroke:#000000;stroke-linecap:square;stroke-linejoin:miter;stroke-width:0.8;"/>
   </g>
   <g id="patch_5">
    <path d="M 46.965625 2052.76 
L 1832.565625 2052.76 
" style="fill:none;stroke:#000000;stroke-linecap:square;stroke-linejoin:miter;stroke-width:0.8;"/>
   </g>
   <g id="patch_6">
    <path d="M 46.965625 278.68 
L 1832.565625 278.68 
" style="fill:none;stroke:#000000;stroke-linecap:square;stroke-linejoin:miter;stroke-width:0.8;"/>
   </g>
   <g id="text_16">
    <text style="font-family:DejaVu Sans;font-size:12px;font-stretch:normal;font-style:normal;font-weight:normal;text-anchor:middle;" transform="rotate(-0, 939.765625, 272.68)" x="939.765625" y="272.68">air_pressure-&gt;Retransmission</text>
   </g>
  </g>
  <g id="legend_1">
   <g id="patch_7">
    <path d="M 1870.68125 22.678125 
L 2058.165625 22.678125 
Q 2060.165625 22.678125 2060.165625 20.678125 
L 2060.165625 7 
Q 2060.165625 5 2058.165625 5 
L 1870.68125 5 
Q 1868.68125 5 1868.68125 7 
L 1868.68125 20.678125 
Q 1868.68125 22.678125 1870.68125 22.678125 
z
" style="fill:#ffffff;opacity:0.8;stroke:#cccccc;stroke-linejoin:miter;"/>
   </g>
   <g id="line2d_15">
    <path d="M 1872.68125 13.098437 
L 1892.68125 13.098437 
" style="fill:none;stroke:#0000ff;stroke-linecap:square;stroke-width:1.5;"/>
   </g>
   <g id="line2d_16"/>
   <g id="text_17">
    <text style="font-family:DejaVu Sans;font-size:10px;font-stretch:normal;font-style:normal;font-weight:normal;text-anchor:start;" transform="rotate(-0, 1900.68125, 16.598437)" x="1900.68125" y="16.598437">Retransmission[dimensionless]</text>
   </g>
  </g>
 </g>
 <defs>
  <clipPath id="p2e95d1f20c">
   <rect height="1774.08" width="1785.6" x="46.965625" y="278.68"/>
  </clipPath>
 </defs>
</svg>
