<?xml version="1.0" encoding="utf-8" standalone="no"?>
<!DOCTYPE svg PUBLIC "-//W3C//DTD SVG 1.1//EN"
  "http://www.w3.org/Graphics/SVG/1.1/DTD/svg11.dtd">
<!-- Created with matplotlib (https://matplotlib.org/) -->
<svg height="2090.594375pt" version="1.1" viewBox="0 0 2062.259375 2090.594375" width="2062.259375pt" xmlns="http://www.w3.org/2000/svg" xmlns:xlink="http://www.w3.org/1999/xlink">
 <metadata>
  <rdf:RDF xmlns:cc="http://creativecommons.org/ns#" xmlns:dc="http://purl.org/dc/elements/1.1/" xmlns:rdf="http://www.w3.org/1999/02/22-rdf-syntax-ns#">
   <cc:Work>
    <dc:type rdf:resource="http://purl.org/dc/dcmitype/StillImage"/>
    <dc:date>2022-07-23T21:21:31.586659</dc:date>
    <dc:format>image/svg+xml</dc:format>
    <dc:creator>
     <cc:Agent>
      <dc:title>Matplotlib v3.3.2, https://matplotlib.org/</dc:title>
     </cc:Agent>
    </dc:creator>
   </cc:Work>
  </rdf:RDF>
 </metadata>
 <defs>
  <style type="text/css">*{stroke-linecap:butt;stroke-linejoin:round;}</style>
 </defs>
 <g id="figure_1">
  <g id="patch_1">
   <path d="M 0 2090.594375 
L 2062.259375 2090.594375 
L 2062.259375 0 
L 0 0 
z
" style="fill:#ffffff;"/>
  </g>
  <g id="axes_1">
   <g id="patch_2">
    <path d="M 44.059375 2052.76 
L 1829.659375 2052.76 
L 1829.659375 278.68 
L 44.059375 278.68 
z
" style="fill:#ffffff;"/>
   </g>
   <g id="matplotlib.axis_1">
    <g id="xtick_1">
     <g id="line2d_1">
      <defs>
       <path d="M 0 0 
L 0 3.5 
" id="m5f70308a59" style="stroke:#000000;stroke-width:0.8;"/>
      </defs>
      <g>
       <use style="stroke:#000000;stroke-width:0.8;" x="231.265953" xlink:href="#m5f70308a59" y="2052.76"/>
      </g>
     </g>
     <g id="text_1">
      <text style="font-family:DejaVu Sans;font-size:10px;font-stretch:normal;font-style:normal;font-weight:normal;text-anchor:middle;" transform="rotate(-0, 231.265953, 2067.358437)" x="231.265953" y="2067.358437">1007.5</text>
     </g>
    </g>
    <g id="xtick_2">
     <g id="line2d_2">
      <g>
       <use style="stroke:#000000;stroke-width:0.8;" x="435.194688" xlink:href="#m5f70308a59" y="2052.76"/>
      </g>
     </g>
     <g id="text_2">
      <text style="font-family:DejaVu Sans;font-size:10px;font-stretch:normal;font-style:normal;font-weight:normal;text-anchor:middle;" transform="rotate(-0, 435.194688, 2067.358437)" x="435.194688" y="2067.358437">1010.0</text>
     </g>
    </g>
    <g id="xtick_3">
     <g id="line2d_3">
      <g>
       <use style="stroke:#000000;stroke-width:0.8;" x="639.123423" xlink:href="#m5f70308a59" y="2052.76"/>
      </g>
     </g>
     <g id="text_3">
      <text style="font-family:DejaVu Sans;font-size:10px;font-stretch:normal;font-style:normal;font-weight:normal;text-anchor:middle;" transform="rotate(-0, 639.123423, 2067.358437)" x="639.123423" y="2067.358437">1012.5</text>
     </g>
    </g>
    <g id="xtick_4">
     <g id="line2d_4">
      <g>
       <use style="stroke:#000000;stroke-width:0.8;" x="843.052157" xlink:href="#m5f70308a59" y="2052.76"/>
      </g>
     </g>
     <g id="text_4">
      <text style="font-family:DejaVu Sans;font-size:10px;font-stretch:normal;font-style:normal;font-weight:normal;text-anchor:middle;" transform="rotate(-0, 843.052157, 2067.358437)" x="843.052157" y="2067.358437">1015.0</text>
     </g>
    </g>
    <g id="xtick_5">
     <g id="line2d_5">
      <g>
       <use style="stroke:#000000;stroke-width:0.8;" x="1046.980892" xlink:href="#m5f70308a59" y="2052.76"/>
      </g>
     </g>
     <g id="text_5">
      <text style="font-family:DejaVu Sans;font-size:10px;font-stretch:normal;font-style:normal;font-weight:normal;text-anchor:middle;" transform="rotate(-0, 1046.980892, 2067.358437)" x="1046.980892" y="2067.358437">1017.5</text>
     </g>
    </g>
    <g id="xtick_6">
     <g id="line2d_6">
      <g>
       <use style="stroke:#000000;stroke-width:0.8;" x="1250.909626" xlink:href="#m5f70308a59" y="2052.76"/>
      </g>
     </g>
     <g id="text_6">
      <text style="font-family:DejaVu Sans;font-size:10px;font-stretch:normal;font-style:normal;font-weight:normal;text-anchor:middle;" transform="rotate(-0, 1250.909626, 2067.358437)" x="1250.909626" y="2067.358437">1020.0</text>
     </g>
    </g>
    <g id="xtick_7">
     <g id="line2d_7">
      <g>
       <use style="stroke:#000000;stroke-width:0.8;" x="1454.838361" xlink:href="#m5f70308a59" y="2052.76"/>
      </g>
     </g>
     <g id="text_7">
      <text style="font-family:DejaVu Sans;font-size:10px;font-stretch:normal;font-style:normal;font-weight:normal;text-anchor:middle;" transform="rotate(-0, 1454.838361, 2067.358437)" x="1454.838361" y="2067.358437">1022.5</text>
     </g>
    </g>
    <g id="xtick_8">
     <g id="line2d_8">
      <g>
       <use style="stroke:#000000;stroke-width:0.8;" x="1658.767095" xlink:href="#m5f70308a59" y="2052.76"/>
      </g>
     </g>
     <g id="text_8">
      <text style="font-family:DejaVu Sans;font-size:10px;font-stretch:normal;font-style:normal;font-weight:normal;text-anchor:middle;" transform="rotate(-0, 1658.767095, 2067.358437)" x="1658.767095" y="2067.358437">1025.0</text>
     </g>
    </g>
    <g id="text_9">
     <text style="font-family:DejaVu Sans;font-size:10px;font-stretch:normal;font-style:normal;font-weight:normal;text-anchor:middle;" transform="rotate(-0, 936.859375, 2081.036562)" x="936.859375" y="2081.036562">air_pressure from Aeris</text>
    </g>
   </g>
   <g id="matplotlib.axis_2">
    <g id="ytick_1">
     <g id="line2d_9">
      <defs>
       <path d="M 0 0 
L -3.5 0 
" id="ma8ac11842a" style="stroke:#000000;stroke-width:0.8;"/>
      </defs>
      <g>
       <use style="stroke:#000000;stroke-width:0.8;" x="44.059375" xlink:href="#ma8ac11842a" y="1990.895422"/>
      </g>
     </g>
     <g id="text_10">
      <text style="font-family:DejaVu Sans;font-size:10px;font-stretch:normal;font-style:normal;font-weight:normal;text-anchor:end;" transform="rotate(-0, 37.059375, 1994.694641)" x="37.059375" y="1994.694641">0.7</text>
     </g>
    </g>
    <g id="ytick_2">
     <g id="line2d_10">
      <g>
       <use style="stroke:#000000;stroke-width:0.8;" x="44.059375" xlink:href="#ma8ac11842a" y="1783.365246"/>
      </g>
     </g>
     <g id="text_11">
      <text style="font-family:DejaVu Sans;font-size:10px;font-stretch:normal;font-style:normal;font-weight:normal;text-anchor:end;" transform="rotate(-0, 37.059375, 1787.164464)" x="37.059375" y="1787.164464">0.8</text>
     </g>
    </g>
    <g id="ytick_3">
     <g id="line2d_11">
      <g>
       <use style="stroke:#000000;stroke-width:0.8;" x="44.059375" xlink:href="#ma8ac11842a" y="1575.835069"/>
      </g>
     </g>
     <g id="text_12">
      <text style="font-family:DejaVu Sans;font-size:10px;font-stretch:normal;font-style:normal;font-weight:normal;text-anchor:end;" transform="rotate(-0, 37.059375, 1579.634288)" x="37.059375" y="1579.634288">0.9</text>
     </g>
    </g>
    <g id="ytick_4">
     <g id="line2d_12">
      <g>
       <use style="stroke:#000000;stroke-width:0.8;" x="44.059375" xlink:href="#ma8ac11842a" y="1368.304892"/>
      </g>
     </g>
     <g id="text_13">
      <text style="font-family:DejaVu Sans;font-size:10px;font-stretch:normal;font-style:normal;font-weight:normal;text-anchor:end;" transform="rotate(-0, 37.059375, 1372.104111)" x="37.059375" y="1372.104111">1.0</text>
     </g>
    </g>
    <g id="ytick_5">
     <g id="line2d_13">
      <g>
       <use style="stroke:#000000;stroke-width:0.8;" x="44.059375" xlink:href="#ma8ac11842a" y="1160.774715"/>
      </g>
     </g>
     <g id="text_14">
      <text style="font-family:DejaVu Sans;font-size:10px;font-stretch:normal;font-style:normal;font-weight:normal;text-anchor:end;" transform="rotate(-0, 37.059375, 1164.573934)" x="37.059375" y="1164.573934">1.1</text>
     </g>
    </g>
    <g id="ytick_6">
     <g id="line2d_14">
      <g>
       <use style="stroke:#000000;stroke-width:0.8;" x="44.059375" xlink:href="#ma8ac11842a" y="953.244538"/>
      </g>
     </g>
     <g id="text_15">
      <text style="font-family:DejaVu Sans;font-size:10px;font-stretch:normal;font-style:normal;font-weight:normal;text-anchor:end;" transform="rotate(-0, 37.059375, 957.043757)" x="37.059375" y="957.043757">1.2</text>
     </g>
    </g>
    <g id="ytick_7">
     <g id="line2d_15">
      <g>
       <use style="stroke:#000000;stroke-width:0.8;" x="44.059375" xlink:href="#ma8ac11842a" y="745.714362"/>
      </g>
     </g>
     <g id="text_16">
      <text style="font-family:DejaVu Sans;font-size:10px;font-stretch:normal;font-style:normal;font-weight:normal;text-anchor:end;" transform="rotate(-0, 37.059375, 749.51358)" x="37.059375" y="749.51358">1.3</text>
     </g>
    </g>
    <g id="ytick_8">
     <g id="line2d_16">
      <g>
       <use style="stroke:#000000;stroke-width:0.8;" x="44.059375" xlink:href="#ma8ac11842a" y="538.184185"/>
      </g>
     </g>
     <g id="text_17">
      <text style="font-family:DejaVu Sans;font-size:10px;font-stretch:normal;font-style:normal;font-weight:normal;text-anchor:end;" transform="rotate(-0, 37.059375, 541.983404)" x="37.059375" y="541.983404">1.4</text>
     </g>
    </g>
    <g id="ytick_9">
     <g id="line2d_17">
      <g>
       <use style="stroke:#000000;stroke-width:0.8;" x="44.059375" xlink:href="#ma8ac11842a" y="330.654008"/>
      </g>
     </g>
     <g id="text_18">
      <text style="font-family:DejaVu Sans;font-size:10px;font-stretch:normal;font-style:normal;font-weight:normal;text-anchor:end;" transform="rotate(-0, 37.059375, 334.453227)" x="37.059375" y="334.453227">1.5</text>
     </g>
    </g>
    <g id="text_19">
     <text style="font-family:DejaVu Sans;font-size:10px;font-stretch:normal;font-style:normal;font-weight:normal;text-anchor:middle;" transform="rotate(-90, 14.798438, 1165.72)" x="14.798438" y="1165.72">Throughput_day[Bit/s]</text>
    </g>
    <g id="text_20">
     <text style="font-family:DejaVu Sans;font-size:10px;font-stretch:normal;font-style:normal;font-weight:normal;text-anchor:start;" transform="rotate(-0, 44.059375, 275.68)" x="44.059375" y="275.68">1e7</text>
    </g>
   </g>
   <g id="line2d_18">
    <path clip-path="url(#p579c1b927e)" d="M 125.223011 768.289951 
L 141.53731 1151.449048 
L 166.008758 618.733404 
L 174.165908 769.251292 
L 198.637356 1519.071141 
L 206.794505 898.793595 
L 223.108804 654.656112 
L 247.580252 656.151121 
L 255.737401 1972.12 
L 272.0517 359.32 
L 280.20885 632.253375 
L 288.365999 611.539658 
L 304.680298 652.89732 
L 312.837447 643.435048 
L 361.780343 644.071177 
L 369.937493 684.524551 
L 378.094642 631.590507 
L 386.251792 695.866599 
L 394.408941 730.110597 
L 418.880389 658.014369 
L 435.194688 678.764709 
L 443.351837 655.337934 
L 451.508987 795.659534 
L 467.823285 661.605478 
L 475.980435 687.25576 
L 500.451883 1033.69846 
L 524.923331 643.848564 
L 533.080481 679.830445 
L 549.394779 652.472331 
L 573.866227 661.512873 
L 582.023377 1308.735555 
L 598.337676 641.017142 
L 606.494825 646.599323 
L 614.651974 713.096045 
L 630.966273 654.142383 
L 639.123423 620.443877 
L 655.437721 769.506052 
L 663.594871 669.013946 
L 679.909169 662.10734 
L 688.066319 656.252872 
L 712.537767 677.356764 
L 720.694916 623.787673 
L 745.166364 716.457168 
L 769.637813 841.117036 
L 777.794962 614.192031 
L 794.109261 868.986022 
L 802.26641 737.833222 
L 818.580709 685.098036 
L 851.209306 659.527768 
L 859.366456 687.322728 
L 875.680755 728.412343 
L 883.837904 645.428589 
L 900.152203 649.011994 
L 908.309352 662.357811 
L 932.7808 829.45025 
L 940.93795 668.617253 
L 957.252248 684.232152 
L 965.409398 708.725046 
L 981.723697 729.592497 
L 989.880846 647.086609 
L 1014.352294 645.892235 
L 1038.823742 653.698701 
L 1071.45234 638.937768 
L 1095.923788 658.711076 
L 1104.080937 911.96713 
L 1120.395236 714.151544 
L 1128.552386 574.484018 
L 1153.023834 642.495029 
L 1177.495282 671.53146 
L 1185.652431 672.937536 
L 1201.96673 667.981753 
L 1210.123879 667.409464 
L 1234.595327 649.048322 
L 1259.066776 646.238272 
L 1267.223925 804.115805 
L 1283.538224 646.424286 
L 1340.638269 1122.96541 
L 1365.109718 953.619959 
L 1389.581166 616.564883 
L 1397.738315 634.721008 
L 1422.209763 764.889087 
L 1446.681211 662.100787 
L 1479.309809 627.428801 
L 1503.781257 668.243352 
L 1528.252705 658.06638 
L 1560.881303 644.209103 
L 1585.352751 684.728235 
L 1609.824199 636.912606 
L 1642.452797 678.96796 
L 1666.924245 658.697191 
L 1691.395693 644.873308 
L 1724.02429 651.401427 
L 1748.495739 635.1373 
" style="fill:none;stroke:#0000ff;stroke-linecap:square;stroke-width:1.5;"/>
   </g>
   <g id="patch_3">
    <path d="M 44.059375 2052.76 
L 44.059375 278.68 
" style="fill:none;stroke:#000000;stroke-linecap:square;stroke-linejoin:miter;stroke-width:0.8;"/>
   </g>
   <g id="patch_4">
    <path d="M 1829.659375 2052.76 
L 1829.659375 278.68 
" style="fill:none;stroke:#000000;stroke-linecap:square;stroke-linejoin:miter;stroke-width:0.8;"/>
   </g>
   <g id="patch_5">
    <path d="M 44.059375 2052.76 
L 1829.659375 2052.76 
" style="fill:none;stroke:#000000;stroke-linecap:square;stroke-linejoin:miter;stroke-width:0.8;"/>
   </g>
   <g id="patch_6">
    <path d="M 44.059375 278.68 
L 1829.659375 278.68 
" style="fill:none;stroke:#000000;stroke-linecap:square;stroke-linejoin:miter;stroke-width:0.8;"/>
   </g>
   <g id="text_21">
    <text style="font-family:DejaVu Sans;font-size:12px;font-stretch:normal;font-style:normal;font-weight:normal;text-anchor:middle;" transform="rotate(-0, 936.859375, 272.68)" x="936.859375" y="272.68">air_pressure-&gt;Throughput_day</text>
   </g>
  </g>
  <g id="legend_1">
   <g id="patch_7">
    <path d="M 1911.84375 22.95625 
L 2055.259375 22.95625 
Q 2057.259375 22.95625 2057.259375 20.95625 
L 2057.259375 7 
Q 2057.259375 5 2055.259375 5 
L 1911.84375 5 
Q 1909.84375 5 1909.84375 7 
L 1909.84375 20.95625 
Q 1909.84375 22.95625 1911.84375 22.95625 
z
" style="fill:#ffffff;opacity:0.8;stroke:#cccccc;stroke-linejoin:miter;"/>
   </g>
   <g id="line2d_19">
    <path d="M 1913.84375 13.098438 
L 1933.84375 13.098438 
" style="fill:none;stroke:#0000ff;stroke-linecap:square;stroke-width:1.5;"/>
   </g>
   <g id="line2d_20"/>
   <g id="text_22">
    <text style="font-family:DejaVu Sans;font-size:10px;font-stretch:normal;font-style:normal;font-weight:normal;text-anchor:start;" transform="rotate(-0, 1941.84375, 16.598438)" x="1941.84375" y="16.598438">Throughput_day[Bit/s]</text>
   </g>
  </g>
 </g>
 <defs>
  <clipPath id="p579c1b927e">
   <rect height="1774.08" width="1785.6" x="44.059375" y="278.68"/>
  </clipPath>
 </defs>
</svg>
