<?xml version="1.0" encoding="utf-8" standalone="no"?>
<!DOCTYPE svg PUBLIC "-//W3C//DTD SVG 1.1//EN"
  "http://www.w3.org/Graphics/SVG/1.1/DTD/svg11.dtd">
<!-- Created with matplotlib (https://matplotlib.org/) -->
<svg height="2090.31625pt" version="1.1" viewBox="0 0 2074.984375 2090.31625" width="2074.984375pt" xmlns="http://www.w3.org/2000/svg" xmlns:xlink="http://www.w3.org/1999/xlink">
 <metadata>
  <rdf:RDF xmlns:cc="http://creativecommons.org/ns#" xmlns:dc="http://purl.org/dc/elements/1.1/" xmlns:rdf="http://www.w3.org/1999/02/22-rdf-syntax-ns#">
   <cc:Work>
    <dc:type rdf:resource="http://purl.org/dc/dcmitype/StillImage"/>
    <dc:date>2022-07-23T21:20:55.229483</dc:date>
    <dc:format>image/svg+xml</dc:format>
    <dc:creator>
     <cc:Agent>
      <dc:title>Matplotlib v3.3.2, https://matplotlib.org/</dc:title>
     </cc:Agent>
    </dc:creator>
   </cc:Work>
  </rdf:RDF>
 </metadata>
 <defs>
  <style type="text/css">*{stroke-linecap:butt;stroke-linejoin:round;}</style>
 </defs>
 <g id="figure_1">
  <g id="patch_1">
   <path d="M 0 2090.31625 
L 2074.984375 2090.31625 
L 2074.984375 0 
L 0 0 
z
" style="fill:#ffffff;"/>
  </g>
  <g id="axes_1">
   <g id="patch_2">
    <path d="M 56.784375 2052.76 
L 1842.384375 2052.76 
L 1842.384375 278.68 
L 56.784375 278.68 
z
" style="fill:#ffffff;"/>
   </g>
   <g id="matplotlib.axis_1">
    <g id="xtick_1">
     <g id="line2d_1">
      <defs>
       <path d="M 0 0 
L 0 3.5 
" id="m3dc98b3298" style="stroke:#000000;stroke-width:0.8;"/>
      </defs>
      <g>
       <use style="stroke:#000000;stroke-width:0.8;" x="217.781096" xlink:href="#m3dc98b3298" y="2052.76"/>
      </g>
     </g>
     <g id="text_1">
      <text style="font-family:DejaVu Sans;font-size:10px;font-stretch:normal;font-style:normal;font-weight:normal;text-anchor:middle;" transform="rotate(-0, 217.781096, 2067.358438)" x="217.781096" y="2067.358438">40</text>
     </g>
    </g>
    <g id="xtick_2">
     <g id="line2d_2">
      <g>
       <use style="stroke:#000000;stroke-width:0.8;" x="483.891379" xlink:href="#m3dc98b3298" y="2052.76"/>
      </g>
     </g>
     <g id="text_2">
      <text style="font-family:DejaVu Sans;font-size:10px;font-stretch:normal;font-style:normal;font-weight:normal;text-anchor:middle;" transform="rotate(-0, 483.891379, 2067.358438)" x="483.891379" y="2067.358438">50</text>
     </g>
    </g>
    <g id="xtick_3">
     <g id="line2d_3">
      <g>
       <use style="stroke:#000000;stroke-width:0.8;" x="750.001663" xlink:href="#m3dc98b3298" y="2052.76"/>
      </g>
     </g>
     <g id="text_3">
      <text style="font-family:DejaVu Sans;font-size:10px;font-stretch:normal;font-style:normal;font-weight:normal;text-anchor:middle;" transform="rotate(-0, 750.001663, 2067.358438)" x="750.001663" y="2067.358438">60</text>
     </g>
    </g>
    <g id="xtick_4">
     <g id="line2d_4">
      <g>
       <use style="stroke:#000000;stroke-width:0.8;" x="1016.111946" xlink:href="#m3dc98b3298" y="2052.76"/>
      </g>
     </g>
     <g id="text_4">
      <text style="font-family:DejaVu Sans;font-size:10px;font-stretch:normal;font-style:normal;font-weight:normal;text-anchor:middle;" transform="rotate(-0, 1016.111946, 2067.358438)" x="1016.111946" y="2067.358438">70</text>
     </g>
    </g>
    <g id="xtick_5">
     <g id="line2d_5">
      <g>
       <use style="stroke:#000000;stroke-width:0.8;" x="1282.222229" xlink:href="#m3dc98b3298" y="2052.76"/>
      </g>
     </g>
     <g id="text_5">
      <text style="font-family:DejaVu Sans;font-size:10px;font-stretch:normal;font-style:normal;font-weight:normal;text-anchor:middle;" transform="rotate(-0, 1282.222229, 2067.358438)" x="1282.222229" y="2067.358438">80</text>
     </g>
    </g>
    <g id="xtick_6">
     <g id="line2d_6">
      <g>
       <use style="stroke:#000000;stroke-width:0.8;" x="1548.332512" xlink:href="#m3dc98b3298" y="2052.76"/>
      </g>
     </g>
     <g id="text_6">
      <text style="font-family:DejaVu Sans;font-size:10px;font-stretch:normal;font-style:normal;font-weight:normal;text-anchor:middle;" transform="rotate(-0, 1548.332512, 2067.358438)" x="1548.332512" y="2067.358438">90</text>
     </g>
    </g>
    <g id="xtick_7">
     <g id="line2d_7">
      <g>
       <use style="stroke:#000000;stroke-width:0.8;" x="1814.442795" xlink:href="#m3dc98b3298" y="2052.76"/>
      </g>
     </g>
     <g id="text_7">
      <text style="font-family:DejaVu Sans;font-size:10px;font-stretch:normal;font-style:normal;font-weight:normal;text-anchor:middle;" transform="rotate(-0, 1814.442795, 2067.358438)" x="1814.442795" y="2067.358438">100</text>
     </g>
    </g>
    <g id="text_8">
     <text style="font-family:DejaVu Sans;font-size:10px;font-stretch:normal;font-style:normal;font-weight:normal;text-anchor:middle;" transform="rotate(-0, 949.584375, 2081.036562)" x="949.584375" y="2081.036562">humidity from WeatherBitIO</text>
    </g>
   </g>
   <g id="matplotlib.axis_2">
    <g id="ytick_1">
     <g id="line2d_8">
      <defs>
       <path d="M 0 0 
L -3.5 0 
" id="m7d85cf5faf" style="stroke:#000000;stroke-width:0.8;"/>
      </defs>
      <g>
       <use style="stroke:#000000;stroke-width:0.8;" x="56.784375" xlink:href="#m7d85cf5faf" y="1995.413271"/>
      </g>
     </g>
     <g id="text_9">
      <text style="font-family:DejaVu Sans;font-size:10px;font-stretch:normal;font-style:normal;font-weight:normal;text-anchor:end;" transform="rotate(-0, 49.784375, 1999.21249)" x="49.784375" y="1999.21249">1.175</text>
     </g>
    </g>
    <g id="ytick_2">
     <g id="line2d_9">
      <g>
       <use style="stroke:#000000;stroke-width:0.8;" x="56.784375" xlink:href="#m7d85cf5faf" y="1773.725996"/>
      </g>
     </g>
     <g id="text_10">
      <text style="font-family:DejaVu Sans;font-size:10px;font-stretch:normal;font-style:normal;font-weight:normal;text-anchor:end;" transform="rotate(-0, 49.784375, 1777.525215)" x="49.784375" y="1777.525215">1.200</text>
     </g>
    </g>
    <g id="ytick_3">
     <g id="line2d_10">
      <g>
       <use style="stroke:#000000;stroke-width:0.8;" x="56.784375" xlink:href="#m7d85cf5faf" y="1552.038722"/>
      </g>
     </g>
     <g id="text_11">
      <text style="font-family:DejaVu Sans;font-size:10px;font-stretch:normal;font-style:normal;font-weight:normal;text-anchor:end;" transform="rotate(-0, 49.784375, 1555.837941)" x="49.784375" y="1555.837941">1.225</text>
     </g>
    </g>
    <g id="ytick_4">
     <g id="line2d_11">
      <g>
       <use style="stroke:#000000;stroke-width:0.8;" x="56.784375" xlink:href="#m7d85cf5faf" y="1330.351448"/>
      </g>
     </g>
     <g id="text_12">
      <text style="font-family:DejaVu Sans;font-size:10px;font-stretch:normal;font-style:normal;font-weight:normal;text-anchor:end;" transform="rotate(-0, 49.784375, 1334.150666)" x="49.784375" y="1334.150666">1.250</text>
     </g>
    </g>
    <g id="ytick_5">
     <g id="line2d_12">
      <g>
       <use style="stroke:#000000;stroke-width:0.8;" x="56.784375" xlink:href="#m7d85cf5faf" y="1108.664173"/>
      </g>
     </g>
     <g id="text_13">
      <text style="font-family:DejaVu Sans;font-size:10px;font-stretch:normal;font-style:normal;font-weight:normal;text-anchor:end;" transform="rotate(-0, 49.784375, 1112.463392)" x="49.784375" y="1112.463392">1.275</text>
     </g>
    </g>
    <g id="ytick_6">
     <g id="line2d_13">
      <g>
       <use style="stroke:#000000;stroke-width:0.8;" x="56.784375" xlink:href="#m7d85cf5faf" y="886.976899"/>
      </g>
     </g>
     <g id="text_14">
      <text style="font-family:DejaVu Sans;font-size:10px;font-stretch:normal;font-style:normal;font-weight:normal;text-anchor:end;" transform="rotate(-0, 49.784375, 890.776118)" x="49.784375" y="890.776118">1.300</text>
     </g>
    </g>
    <g id="ytick_7">
     <g id="line2d_14">
      <g>
       <use style="stroke:#000000;stroke-width:0.8;" x="56.784375" xlink:href="#m7d85cf5faf" y="665.289625"/>
      </g>
     </g>
     <g id="text_15">
      <text style="font-family:DejaVu Sans;font-size:10px;font-stretch:normal;font-style:normal;font-weight:normal;text-anchor:end;" transform="rotate(-0, 49.784375, 669.088843)" x="49.784375" y="669.088843">1.325</text>
     </g>
    </g>
    <g id="ytick_8">
     <g id="line2d_15">
      <g>
       <use style="stroke:#000000;stroke-width:0.8;" x="56.784375" xlink:href="#m7d85cf5faf" y="443.60235"/>
      </g>
     </g>
     <g id="text_16">
      <text style="font-family:DejaVu Sans;font-size:10px;font-stretch:normal;font-style:normal;font-weight:normal;text-anchor:end;" transform="rotate(-0, 49.784375, 447.401569)" x="49.784375" y="447.401569">1.350</text>
     </g>
    </g>
    <g id="text_17">
     <text style="font-family:DejaVu Sans;font-size:10px;font-stretch:normal;font-style:normal;font-weight:normal;text-anchor:middle;" transform="rotate(-90, 14.798438, 1165.72)" x="14.798438" y="1165.72">Throughput_day[Bit/s]</text>
    </g>
    <g id="text_18">
     <text style="font-family:DejaVu Sans;font-size:10px;font-stretch:normal;font-style:normal;font-weight:normal;text-anchor:start;" transform="rotate(-0, 56.784375, 275.68)" x="56.784375" y="275.68">1e7</text>
    </g>
   </g>
   <g id="line2d_16">
    <path clip-path="url(#p85a67592b6)" d="M 137.948011 367.843143 
L 191.170068 471.317356 
L 217.781096 526.137527 
L 244.392125 600.244433 
L 271.003153 596.86539 
L 297.614181 498.236162 
L 324.22521 452.000059 
L 350.836238 441.75594 
L 377.447266 662.143361 
L 404.058295 513.297533 
L 430.669323 509.217854 
L 457.280351 828.194514 
L 483.891379 716.492363 
L 510.502408 509.784228 
L 537.113436 615.322825 
L 563.724464 494.746463 
L 590.335493 446.823453 
L 616.946521 654.608248 
L 643.557549 512.246492 
L 670.168578 603.254758 
L 696.779606 635.257581 
L 723.390634 450.327053 
L 750.001663 419.194513 
L 776.612691 799.808447 
L 803.223719 524.583104 
L 829.834748 668.123785 
L 856.445776 562.671271 
L 883.056804 447.190855 
L 909.667833 838.700779 
L 936.278861 507.802937 
L 962.889889 514.955446 
L 989.500917 400.552803 
L 1016.111946 450.190191 
L 1042.722974 506.558384 
L 1069.334002 493.459236 
L 1095.945031 1093.937543 
L 1122.556059 433.209888 
L 1149.167087 539.409207 
L 1175.778116 689.725352 
L 1202.389144 508.719534 
L 1229.000172 610.446042 
L 1255.611201 359.32 
L 1282.222229 477.702797 
L 1308.833257 520.841701 
L 1335.444286 537.939823 
L 1362.055314 378.782562 
L 1388.666342 548.148103 
L 1415.277371 541.186855 
L 1441.888399 383.816239 
L 1468.499427 594.582727 
L 1495.110455 1241.115477 
L 1521.721484 1972.12 
L 1548.332512 1374.650255 
L 1574.94354 442.715281 
L 1601.554569 399.645223 
L 1628.165597 443.278641 
L 1654.776625 835.799733 
L 1681.387654 519.093635 
L 1707.998682 1269.538178 
L 1734.60971 1595.52669 
L 1761.220739 448.565376 
" style="fill:none;stroke:#0000ff;stroke-linecap:square;stroke-width:1.5;"/>
   </g>
   <g id="patch_3">
    <path d="M 56.784375 2052.76 
L 56.784375 278.68 
" style="fill:none;stroke:#000000;stroke-linecap:square;stroke-linejoin:miter;stroke-width:0.8;"/>
   </g>
   <g id="patch_4">
    <path d="M 1842.384375 2052.76 
L 1842.384375 278.68 
" style="fill:none;stroke:#000000;stroke-linecap:square;stroke-linejoin:miter;stroke-width:0.8;"/>
   </g>
   <g id="patch_5">
    <path d="M 56.784375 2052.76 
L 1842.384375 2052.76 
" style="fill:none;stroke:#000000;stroke-linecap:square;stroke-linejoin:miter;stroke-width:0.8;"/>
   </g>
   <g id="patch_6">
    <path d="M 56.784375 278.68 
L 1842.384375 278.68 
" style="fill:none;stroke:#000000;stroke-linecap:square;stroke-linejoin:miter;stroke-width:0.8;"/>
   </g>
   <g id="text_19">
    <text style="font-family:DejaVu Sans;font-size:12px;font-stretch:normal;font-style:normal;font-weight:normal;text-anchor:middle;" transform="rotate(-0, 949.584375, 272.68)" x="949.584375" y="272.68">humidity-&gt;Throughput_day</text>
   </g>
  </g>
  <g id="legend_1">
   <g id="patch_7">
    <path d="M 1924.56875 22.95625 
L 2067.984375 22.95625 
Q 2069.984375 22.95625 2069.984375 20.95625 
L 2069.984375 7 
Q 2069.984375 5 2067.984375 5 
L 1924.56875 5 
Q 1922.56875 5 1922.56875 7 
L 1922.56875 20.95625 
Q 1922.56875 22.95625 1924.56875 22.95625 
z
" style="fill:#ffffff;opacity:0.8;stroke:#cccccc;stroke-linejoin:miter;"/>
   </g>
   <g id="line2d_17">
    <path d="M 1926.56875 13.098438 
L 1946.56875 13.098438 
" style="fill:none;stroke:#0000ff;stroke-linecap:square;stroke-width:1.5;"/>
   </g>
   <g id="line2d_18"/>
   <g id="text_20">
    <text style="font-family:DejaVu Sans;font-size:10px;font-stretch:normal;font-style:normal;font-weight:normal;text-anchor:start;" transform="rotate(-0, 1954.56875, 16.598438)" x="1954.56875" y="16.598438">Throughput_day[Bit/s]</text>
   </g>
  </g>
 </g>
 <defs>
  <clipPath id="p85a67592b6">
   <rect height="1774.08" width="1785.6" x="56.784375" y="278.68"/>
  </clipPath>
 </defs>
</svg>
