<?xml version="1.0" encoding="utf-8" standalone="no"?>
<!DOCTYPE svg PUBLIC "-//W3C//DTD SVG 1.1//EN"
  "http://www.w3.org/Graphics/SVG/1.1/DTD/svg11.dtd">
<!-- Created with matplotlib (https://matplotlib.org/) -->
<svg height="2090.594375pt" version="1.1" viewBox="0 0 2052.71875 2090.594375" width="2052.71875pt" xmlns="http://www.w3.org/2000/svg" xmlns:xlink="http://www.w3.org/1999/xlink">
 <metadata>
  <rdf:RDF xmlns:cc="http://creativecommons.org/ns#" xmlns:dc="http://purl.org/dc/elements/1.1/" xmlns:rdf="http://www.w3.org/1999/02/22-rdf-syntax-ns#">
   <cc:Work>
    <dc:type rdf:resource="http://purl.org/dc/dcmitype/StillImage"/>
    <dc:date>2022-07-23T21:06:51.319789</dc:date>
    <dc:format>image/svg+xml</dc:format>
    <dc:creator>
     <cc:Agent>
      <dc:title>Matplotlib v3.3.2, https://matplotlib.org/</dc:title>
     </cc:Agent>
    </dc:creator>
   </cc:Work>
  </rdf:RDF>
 </metadata>
 <defs>
  <style type="text/css">*{stroke-linecap:butt;stroke-linejoin:round;}</style>
 </defs>
 <g id="figure_1">
  <g id="patch_1">
   <path d="M 0 2090.594375 
L 2052.71875 2090.594375 
L 2052.71875 0 
L 0 0 
z
" style="fill:#ffffff;"/>
  </g>
  <g id="axes_1">
   <g id="patch_2">
    <path d="M 34.51875 2052.76 
L 1820.11875 2052.76 
L 1820.11875 278.68 
L 34.51875 278.68 
z
" style="fill:#ffffff;"/>
   </g>
   <g id="matplotlib.axis_1">
    <g id="xtick_1">
     <g id="line2d_1">
      <defs>
       <path d="M 0 0 
L 0 3.5 
" id="m5f8170fa70" style="stroke:#000000;stroke-width:0.8;"/>
      </defs>
      <g>
       <use style="stroke:#000000;stroke-width:0.8;" x="115.682386" xlink:href="#m5f8170fa70" y="2052.76"/>
      </g>
     </g>
     <g id="text_1">
      <text style="font-family:DejaVu Sans;font-size:10px;font-stretch:normal;font-style:normal;font-weight:normal;text-anchor:middle;" transform="rotate(-0, 115.682386, 2067.358437)" x="115.682386" y="2067.358437">0</text>
     </g>
    </g>
    <g id="xtick_2">
     <g id="line2d_2">
      <g>
       <use style="stroke:#000000;stroke-width:0.8;" x="342.65005" xlink:href="#m5f8170fa70" y="2052.76"/>
      </g>
     </g>
     <g id="text_2">
      <text style="font-family:DejaVu Sans;font-size:10px;font-stretch:normal;font-style:normal;font-weight:normal;text-anchor:middle;" transform="rotate(-0, 342.65005, 2067.358437)" x="342.65005" y="2067.358437">5</text>
     </g>
    </g>
    <g id="xtick_3">
     <g id="line2d_3">
      <g>
       <use style="stroke:#000000;stroke-width:0.8;" x="569.617713" xlink:href="#m5f8170fa70" y="2052.76"/>
      </g>
     </g>
     <g id="text_3">
      <text style="font-family:DejaVu Sans;font-size:10px;font-stretch:normal;font-style:normal;font-weight:normal;text-anchor:middle;" transform="rotate(-0, 569.617713, 2067.358437)" x="569.617713" y="2067.358437">10</text>
     </g>
    </g>
    <g id="xtick_4">
     <g id="line2d_4">
      <g>
       <use style="stroke:#000000;stroke-width:0.8;" x="796.585376" xlink:href="#m5f8170fa70" y="2052.76"/>
      </g>
     </g>
     <g id="text_4">
      <text style="font-family:DejaVu Sans;font-size:10px;font-stretch:normal;font-style:normal;font-weight:normal;text-anchor:middle;" transform="rotate(-0, 796.585376, 2067.358437)" x="796.585376" y="2067.358437">15</text>
     </g>
    </g>
    <g id="xtick_5">
     <g id="line2d_5">
      <g>
       <use style="stroke:#000000;stroke-width:0.8;" x="1023.553039" xlink:href="#m5f8170fa70" y="2052.76"/>
      </g>
     </g>
     <g id="text_5">
      <text style="font-family:DejaVu Sans;font-size:10px;font-stretch:normal;font-style:normal;font-weight:normal;text-anchor:middle;" transform="rotate(-0, 1023.553039, 2067.358437)" x="1023.553039" y="2067.358437">20</text>
     </g>
    </g>
    <g id="xtick_6">
     <g id="line2d_6">
      <g>
       <use style="stroke:#000000;stroke-width:0.8;" x="1250.520702" xlink:href="#m5f8170fa70" y="2052.76"/>
      </g>
     </g>
     <g id="text_6">
      <text style="font-family:DejaVu Sans;font-size:10px;font-stretch:normal;font-style:normal;font-weight:normal;text-anchor:middle;" transform="rotate(-0, 1250.520702, 2067.358437)" x="1250.520702" y="2067.358437">25</text>
     </g>
    </g>
    <g id="xtick_7">
     <g id="line2d_7">
      <g>
       <use style="stroke:#000000;stroke-width:0.8;" x="1477.488366" xlink:href="#m5f8170fa70" y="2052.76"/>
      </g>
     </g>
     <g id="text_7">
      <text style="font-family:DejaVu Sans;font-size:10px;font-stretch:normal;font-style:normal;font-weight:normal;text-anchor:middle;" transform="rotate(-0, 1477.488366, 2067.358437)" x="1477.488366" y="2067.358437">30</text>
     </g>
    </g>
    <g id="xtick_8">
     <g id="line2d_8">
      <g>
       <use style="stroke:#000000;stroke-width:0.8;" x="1704.456029" xlink:href="#m5f8170fa70" y="2052.76"/>
      </g>
     </g>
     <g id="text_8">
      <text style="font-family:DejaVu Sans;font-size:10px;font-stretch:normal;font-style:normal;font-weight:normal;text-anchor:middle;" transform="rotate(-0, 1704.456029, 2067.358437)" x="1704.456029" y="2067.358437">35</text>
     </g>
    </g>
    <g id="text_9">
     <text style="font-family:DejaVu Sans;font-size:10px;font-stretch:normal;font-style:normal;font-weight:normal;text-anchor:middle;" transform="rotate(-0, 927.31875, 2081.036562)" x="927.31875" y="2081.036562">wind_speed from Aeris</text>
    </g>
   </g>
   <g id="matplotlib.axis_2">
    <g id="ytick_1">
     <g id="line2d_9">
      <defs>
       <path d="M 0 0 
L -3.5 0 
" id="m523fadc649" style="stroke:#000000;stroke-width:0.8;"/>
      </defs>
      <g>
       <use style="stroke:#000000;stroke-width:0.8;" x="34.51875" xlink:href="#m523fadc649" y="2000.039558"/>
      </g>
     </g>
     <g id="text_10">
      <text style="font-family:DejaVu Sans;font-size:10px;font-stretch:normal;font-style:normal;font-weight:normal;text-anchor:end;" transform="rotate(-0, 27.51875, 2003.838777)" x="27.51875" y="2003.838777">4</text>
     </g>
    </g>
    <g id="ytick_2">
     <g id="line2d_10">
      <g>
       <use style="stroke:#000000;stroke-width:0.8;" x="34.51875" xlink:href="#m523fadc649" y="1703.022983"/>
      </g>
     </g>
     <g id="text_11">
      <text style="font-family:DejaVu Sans;font-size:10px;font-stretch:normal;font-style:normal;font-weight:normal;text-anchor:end;" transform="rotate(-0, 27.51875, 1706.822202)" x="27.51875" y="1706.822202">5</text>
     </g>
    </g>
    <g id="ytick_3">
     <g id="line2d_11">
      <g>
       <use style="stroke:#000000;stroke-width:0.8;" x="34.51875" xlink:href="#m523fadc649" y="1406.006409"/>
      </g>
     </g>
     <g id="text_12">
      <text style="font-family:DejaVu Sans;font-size:10px;font-stretch:normal;font-style:normal;font-weight:normal;text-anchor:end;" transform="rotate(-0, 27.51875, 1409.805628)" x="27.51875" y="1409.805628">6</text>
     </g>
    </g>
    <g id="ytick_4">
     <g id="line2d_12">
      <g>
       <use style="stroke:#000000;stroke-width:0.8;" x="34.51875" xlink:href="#m523fadc649" y="1108.989834"/>
      </g>
     </g>
     <g id="text_13">
      <text style="font-family:DejaVu Sans;font-size:10px;font-stretch:normal;font-style:normal;font-weight:normal;text-anchor:end;" transform="rotate(-0, 27.51875, 1112.789053)" x="27.51875" y="1112.789053">7</text>
     </g>
    </g>
    <g id="ytick_5">
     <g id="line2d_13">
      <g>
       <use style="stroke:#000000;stroke-width:0.8;" x="34.51875" xlink:href="#m523fadc649" y="811.97326"/>
      </g>
     </g>
     <g id="text_14">
      <text style="font-family:DejaVu Sans;font-size:10px;font-stretch:normal;font-style:normal;font-weight:normal;text-anchor:end;" transform="rotate(-0, 27.51875, 815.772478)" x="27.51875" y="815.772478">8</text>
     </g>
    </g>
    <g id="ytick_6">
     <g id="line2d_14">
      <g>
       <use style="stroke:#000000;stroke-width:0.8;" x="34.51875" xlink:href="#m523fadc649" y="514.956685"/>
      </g>
     </g>
     <g id="text_15">
      <text style="font-family:DejaVu Sans;font-size:10px;font-stretch:normal;font-style:normal;font-weight:normal;text-anchor:end;" transform="rotate(-0, 27.51875, 518.755904)" x="27.51875" y="518.755904">9</text>
     </g>
    </g>
    <g id="text_16">
     <text style="font-family:DejaVu Sans;font-size:10px;font-stretch:normal;font-style:normal;font-weight:normal;text-anchor:middle;" transform="rotate(-90, 14.798438, 1165.72)" x="14.798438" y="1165.72">ping_day[ms]</text>
    </g>
   </g>
   <g id="line2d_15">
    <path clip-path="url(#p47f5f2e46d)" d="M 115.682386 1763.614365 
L 157.898372 1612.729945 
L 199.660422 1579.167072 
L 224.626865 1597.582099 
L 241.876407 1568.771492 
L 249.593308 1634.115138 
L 283.638457 1574.711823 
L 308.6049 1217.103867 
L 325.854442 1400.363094 
L 333.571343 1636.788287 
L 343.103985 1593.423867 
L 358.083851 1273.834033 
L 368.070428 1570.553591 
L 383.050294 1494.517348 
L 392.582935 1607.08663 
L 409.832478 1640.649503 
L 417.549378 1429.767735 
L 419.819055 1885.39116 
L 427.08202 1638.27337 
L 432.529244 1922.518232 
L 442.515821 1487.982983 
L 452.048463 1514.120442 
L 467.028329 1374.225635 
L 471.567682 1688.766188 
L 476.560971 1431.549834 
L 484.277871 1551.247514 
L 486.547548 1678.667624 
L 491.994772 1633.818122 
L 493.810513 1652.530166 
L 501.527414 1515.011492 
L 503.79709 1851.828287 
L 511.060056 1347.197127 
L 516.50728 1633.224088 
L 516.961215 1645.995801 
L 526.493857 1613.026961 
L 536.026499 1341.553812 
L 541.473723 1020.181878 
L 551.006364 1536.693702 
L 555.545718 1812.919116 
L 560.992942 1475.805304 
L 568.255907 1663.816796 
L 570.525583 1739.259006 
L 575.972807 1443.430497 
L 578.242484 1836.977459 
L 585.505449 1461.251492 
L 587.775126 1705.102099 
L 595.492026 1603.819448 
L 600.485315 1773.712928 
L 600.93925 1676.885525 
L 610.471892 1581.543204 
L 620.004534 1535.802652 
L 625.451758 1462.142541 
L 633.168658 1902.024088 
L 635.438335 1705.993149 
L 639.523753 1767.47558 
L 644.970977 1618.670276 
L 650.418201 1862.520884 
L 652.233942 1749.357569 
L 654.503619 1547.386298 
L 659.950843 1644.807735 
L 669.93742 1421.154254 
L 671.753161 1757.08 
L 679.470062 1657.876464 
L 684.917286 1700.349834 
L 694.449928 1487.38895 
L 703.982569 1648.074917 
L 713.969147 1915.092818 
L 717.146694 1793.613039 
L 719.416371 1186.808177 
L 723.501788 1648.371934 
L 728.949012 1604.710497 
L 736.665913 1753.218785 
L 738.481654 1600.255249 
L 744.382813 1679.855691 
L 746.198555 1764.208398 
L 749.376102 1861.332818 
L 753.915455 1623.719558 
L 755.731197 1668.569061 
L 763.448097 1530.456354 
L 768.895321 1747.57547 
L 775.250416 1749.951602 
L 778.427963 1586.889503 
L 788.41454 1570.850608 
L 803.394406 1327.297017 
L 807.479824 1486.794917 
L 812.927048 830.388287 
L 820.643948 1545.010166 
L 822.45969 1876.480663 
L 826.999043 1775.792044 
L 828.360849 1836.086409 
L 837.893491 1509.07116 
L 840.163167 1724.11116 
L 847.426133 1590.156685 
L 852.873356 1754.406851 
L 859.228451 1813.810166 
L 862.859934 1675.400442 
L 872.392576 1507.289061 
L 877.839799 1753.515801 
L 887.372441 1662.034696 
L 891.911795 1727.378343 
L 896.905083 1599.364199 
L 904.621984 1535.802652 
L 906.89166 1639.758453 
L 912.338884 1580.058122 
L 921.871526 1541.742983 
L 924.141203 1811.137017 
L 931.404168 1675.994475 
L 937.305327 1881.826961 
L 943.660422 1952.516906 
L 946.837969 1621.640442 
L 956.370611 1018.696796 
L 961.817835 1365.018122 
L 962.725705 1776.98011 
L 965.903253 1665.301878 
L 969.0808 1781.435359 
L 971.350477 1549.762431 
L 975.88983 1233.736796 
L 981.337054 1588.374586 
L 986.784278 1834.007293 
L 988.600019 1691.14232 
L 990.869696 1779.059227 
L 996.31692 1623.125525 
L 998.586596 1863.70895 
L 1005.849561 1679.855691 
L 1008.119238 1857.174586 
L 1011.750721 1826.284862 
L 1015.836139 1600.849282 
L 1027.638457 1348.979227 
L 1030.816004 359.32 
L 1040.348646 1535.208619 
L 1045.79587 1806.384751 
L 1049.881288 1778.465193 
L 1053.512771 1771.930829 
L 1055.782447 1616.888177 
L 1059.867865 1705.102099 
L 1065.315089 1618.670276 
L 1072.578054 1737.476906 
L 1074.847731 1810.84 
L 1080.294955 449.613039 
L 1090.281532 1673.321326 
L 1092.097273 1972.12 
L 1099.814174 1710.151381 
L 1105.261398 1765.693481 
L 1111.616493 1919.548066 
L 1114.79404 1499.56663 
L 1124.326682 1638.27337 
L 1137.490806 1887.767293 
L 1139.760483 654.851492 
L 1143.845901 1700.052818 
L 1149.293125 1738.664972 
L 1157.010025 1740.447072 
L 1158.825766 1738.664972 
L 1174.259568 1712.82453 
L 1176.075309 1739.259006 
L 1182.884339 1628.174807 
L 1183.792209 1710.151381 
L 1189.239433 1717.576796 
L 1195.594528 1795.989171 
L 1198.772075 1822.720663 
L 1208.758652 1708.369282 
L 1221.468842 1629.956906 
L 1223.738518 1610.056796 
L 1227.823936 861.278011 
L 1233.27116 1741.338122 
L 1240.988061 1765.396464 
L 1242.803802 1794.207072 
L 1247.343155 1861.926851 
L 1248.704961 1465.70674 
L 1258.237603 1932.022762 
L 1260.50728 1765.693481 
L 1267.770245 1746.387403 
L 1273.217469 1839.353591 
L 1279.572563 1692.627403 
L 1283.204046 1786.187624 
L 1292.736688 1784.108508 
L 1302.26933 1819.453481 
L 1305.446877 1848.561105 
L 1307.716554 1792.721989 
L 1312.255907 1804.008619 
L 1317.249195 1646.292818 
L 1324.966096 1766.287514 
L 1327.235773 1604.116464 
L 1331.321191 1811.434033 
L 1342.215638 1654.312265 
L 1344.485315 1788.563757 
L 1364.004534 1836.383425 
L 1367.182081 1829.552044 
L 1376.714723 1760.050166 
L 1383.069818 1848.264088 
L 1396.233942 1809.354917 
L 1401.681166 1827.769945 
L 1411.213808 1888.955359 
L 1415.299226 1800.44442 
L 1426.193674 1780.247293 
L 1428.46335 1644.510718 
L 1460.692759 1650.748066 
L 1467.047853 1692.92442 
L 1480.211978 1810.542983 
L 1499.731197 1748.763536 
L 1518.79648 1846.779006 
L 1520.158286 1771.633812 
L 1531.960605 1630.253923 
L 1544.670794 1794.207072 
L 1551.479824 1796.880221 
L 1564.190013 1590.750718 
L 1579.169879 1671.539227 
L 1604.136322 1735.39779 
L 1615.93864 1555.999779 
L 1635.457859 1721.438011 
L 1667.687267 1659.06453 
L 1738.955114 1636.194254 
L 1738.955114 1636.194254 
" style="fill:none;stroke:#0000ff;stroke-linecap:square;stroke-width:1.5;"/>
   </g>
   <g id="patch_3">
    <path d="M 34.51875 2052.76 
L 34.51875 278.68 
" style="fill:none;stroke:#000000;stroke-linecap:square;stroke-linejoin:miter;stroke-width:0.8;"/>
   </g>
   <g id="patch_4">
    <path d="M 1820.11875 2052.76 
L 1820.11875 278.68 
" style="fill:none;stroke:#000000;stroke-linecap:square;stroke-linejoin:miter;stroke-width:0.8;"/>
   </g>
   <g id="patch_5">
    <path d="M 34.51875 2052.76 
L 1820.11875 2052.76 
" style="fill:none;stroke:#000000;stroke-linecap:square;stroke-linejoin:miter;stroke-width:0.8;"/>
   </g>
   <g id="patch_6">
    <path d="M 34.51875 278.68 
L 1820.11875 278.68 
" style="fill:none;stroke:#000000;stroke-linecap:square;stroke-linejoin:miter;stroke-width:0.8;"/>
   </g>
   <g id="text_17">
    <text style="font-family:DejaVu Sans;font-size:12px;font-stretch:normal;font-style:normal;font-weight:normal;text-anchor:middle;" transform="rotate(-0, 927.31875, 272.68)" x="927.31875" y="272.68">wind_speed-&gt;ping_day</text>
   </g>
  </g>
  <g id="legend_1">
   <g id="patch_7">
    <path d="M 1945.757812 22.95625 
L 2045.71875 22.95625 
Q 2047.71875 22.95625 2047.71875 20.95625 
L 2047.71875 7 
Q 2047.71875 5 2045.71875 5 
L 1945.757812 5 
Q 1943.757812 5 1943.757812 7 
L 1943.757812 20.95625 
Q 1943.757812 22.95625 1945.757812 22.95625 
z
" style="fill:#ffffff;opacity:0.8;stroke:#cccccc;stroke-linejoin:miter;"/>
   </g>
   <g id="line2d_16">
    <path d="M 1947.757812 13.098438 
L 1967.757812 13.098438 
" style="fill:none;stroke:#0000ff;stroke-linecap:square;stroke-width:1.5;"/>
   </g>
   <g id="line2d_17"/>
   <g id="text_18">
    <text style="font-family:DejaVu Sans;font-size:10px;font-stretch:normal;font-style:normal;font-weight:normal;text-anchor:start;" transform="rotate(-0, 1975.757812, 16.598438)" x="1975.757812" y="16.598438">ping_day[ms]</text>
   </g>
  </g>
 </g>
 <defs>
  <clipPath id="p47f5f2e46d">
   <rect height="1774.08" width="1785.6" x="34.51875" y="278.68"/>
  </clipPath>
 </defs>
</svg>
