<?xml version="1.0" encoding="utf-8" standalone="no"?>
<!DOCTYPE svg PUBLIC "-//W3C//DTD SVG 1.1//EN"
  "http://www.w3.org/Graphics/SVG/1.1/DTD/svg11.dtd">
<!-- Created with matplotlib (https://matplotlib.org/) -->
<svg height="2090.594375pt" version="1.1" viewBox="0 0 2059.08125 2090.594375" width="2059.08125pt" xmlns="http://www.w3.org/2000/svg" xmlns:xlink="http://www.w3.org/1999/xlink">
 <metadata>
  <rdf:RDF xmlns:cc="http://creativecommons.org/ns#" xmlns:dc="http://purl.org/dc/elements/1.1/" xmlns:rdf="http://www.w3.org/1999/02/22-rdf-syntax-ns#">
   <cc:Work>
    <dc:type rdf:resource="http://purl.org/dc/dcmitype/StillImage"/>
    <dc:date>2022-07-23T20:58:57.055492</dc:date>
    <dc:format>image/svg+xml</dc:format>
    <dc:creator>
     <cc:Agent>
      <dc:title>Matplotlib v3.3.2, https://matplotlib.org/</dc:title>
     </cc:Agent>
    </dc:creator>
   </cc:Work>
  </rdf:RDF>
 </metadata>
 <defs>
  <style type="text/css">*{stroke-linecap:butt;stroke-linejoin:round;}</style>
 </defs>
 <g id="figure_1">
  <g id="patch_1">
   <path d="M 0 2090.594375 
L 2059.08125 2090.594375 
L 2059.08125 0 
L 0 0 
z
" style="fill:#ffffff;"/>
  </g>
  <g id="axes_1">
   <g id="patch_2">
    <path d="M 40.88125 2052.76 
L 1826.48125 2052.76 
L 1826.48125 278.68 
L 40.88125 278.68 
z
" style="fill:#ffffff;"/>
   </g>
   <g id="matplotlib.axis_1">
    <g id="xtick_1">
     <g id="line2d_1">
      <defs>
       <path d="M 0 0 
L 0 3.5 
" id="mb4fe9e4ca1" style="stroke:#000000;stroke-width:0.8;"/>
      </defs>
      <g>
       <use style="stroke:#000000;stroke-width:0.8;" x="122.044886" xlink:href="#mb4fe9e4ca1" y="2052.76"/>
      </g>
     </g>
     <g id="text_1">
      <text style="font-family:DejaVu Sans;font-size:10px;font-stretch:normal;font-style:normal;font-weight:normal;text-anchor:middle;" transform="rotate(-0, 122.044886, 2067.358437)" x="122.044886" y="2067.358437">995</text>
     </g>
    </g>
    <g id="xtick_2">
     <g id="line2d_2">
      <g>
       <use style="stroke:#000000;stroke-width:0.8;" x="349.394008" xlink:href="#mb4fe9e4ca1" y="2052.76"/>
      </g>
     </g>
     <g id="text_2">
      <text style="font-family:DejaVu Sans;font-size:10px;font-stretch:normal;font-style:normal;font-weight:normal;text-anchor:middle;" transform="rotate(-0, 349.394008, 2067.358437)" x="349.394008" y="2067.358437">1000</text>
     </g>
    </g>
    <g id="xtick_3">
     <g id="line2d_3">
      <g>
       <use style="stroke:#000000;stroke-width:0.8;" x="576.743129" xlink:href="#mb4fe9e4ca1" y="2052.76"/>
      </g>
     </g>
     <g id="text_3">
      <text style="font-family:DejaVu Sans;font-size:10px;font-stretch:normal;font-style:normal;font-weight:normal;text-anchor:middle;" transform="rotate(-0, 576.743129, 2067.358437)" x="576.743129" y="2067.358437">1005</text>
     </g>
    </g>
    <g id="xtick_4">
     <g id="line2d_4">
      <g>
       <use style="stroke:#000000;stroke-width:0.8;" x="804.092251" xlink:href="#mb4fe9e4ca1" y="2052.76"/>
      </g>
     </g>
     <g id="text_4">
      <text style="font-family:DejaVu Sans;font-size:10px;font-stretch:normal;font-style:normal;font-weight:normal;text-anchor:middle;" transform="rotate(-0, 804.092251, 2067.358437)" x="804.092251" y="2067.358437">1010</text>
     </g>
    </g>
    <g id="xtick_5">
     <g id="line2d_5">
      <g>
       <use style="stroke:#000000;stroke-width:0.8;" x="1031.441372" xlink:href="#mb4fe9e4ca1" y="2052.76"/>
      </g>
     </g>
     <g id="text_5">
      <text style="font-family:DejaVu Sans;font-size:10px;font-stretch:normal;font-style:normal;font-weight:normal;text-anchor:middle;" transform="rotate(-0, 1031.441372, 2067.358437)" x="1031.441372" y="2067.358437">1015</text>
     </g>
    </g>
    <g id="xtick_6">
     <g id="line2d_6">
      <g>
       <use style="stroke:#000000;stroke-width:0.8;" x="1258.790494" xlink:href="#mb4fe9e4ca1" y="2052.76"/>
      </g>
     </g>
     <g id="text_6">
      <text style="font-family:DejaVu Sans;font-size:10px;font-stretch:normal;font-style:normal;font-weight:normal;text-anchor:middle;" transform="rotate(-0, 1258.790494, 2067.358437)" x="1258.790494" y="2067.358437">1020</text>
     </g>
    </g>
    <g id="xtick_7">
     <g id="line2d_7">
      <g>
       <use style="stroke:#000000;stroke-width:0.8;" x="1486.139615" xlink:href="#mb4fe9e4ca1" y="2052.76"/>
      </g>
     </g>
     <g id="text_7">
      <text style="font-family:DejaVu Sans;font-size:10px;font-stretch:normal;font-style:normal;font-weight:normal;text-anchor:middle;" transform="rotate(-0, 1486.139615, 2067.358437)" x="1486.139615" y="2067.358437">1025</text>
     </g>
    </g>
    <g id="xtick_8">
     <g id="line2d_8">
      <g>
       <use style="stroke:#000000;stroke-width:0.8;" x="1713.488737" xlink:href="#mb4fe9e4ca1" y="2052.76"/>
      </g>
     </g>
     <g id="text_8">
      <text style="font-family:DejaVu Sans;font-size:10px;font-stretch:normal;font-style:normal;font-weight:normal;text-anchor:middle;" transform="rotate(-0, 1713.488737, 2067.358437)" x="1713.488737" y="2067.358437">1030</text>
     </g>
    </g>
    <g id="text_9">
     <text style="font-family:DejaVu Sans;font-size:10px;font-stretch:normal;font-style:normal;font-weight:normal;text-anchor:middle;" transform="rotate(-0, 933.68125, 2081.036562)" x="933.68125" y="2081.036562">air_pressure from BuienRadar</text>
    </g>
   </g>
   <g id="matplotlib.axis_2">
    <g id="ytick_1">
     <g id="line2d_9">
      <defs>
       <path d="M 0 0 
L -3.5 0 
" id="md2b6697e13" style="stroke:#000000;stroke-width:0.8;"/>
      </defs>
      <g>
       <use style="stroke:#000000;stroke-width:0.8;" x="40.88125" xlink:href="#md2b6697e13" y="2050.304517"/>
      </g>
     </g>
     <g id="text_10">
      <text style="font-family:DejaVu Sans;font-size:10px;font-stretch:normal;font-style:normal;font-weight:normal;text-anchor:end;" transform="rotate(-0, 33.88125, 2054.103736)" x="33.88125" y="2054.103736">4</text>
     </g>
    </g>
    <g id="ytick_2">
     <g id="line2d_10">
      <g>
       <use style="stroke:#000000;stroke-width:0.8;" x="40.88125" xlink:href="#md2b6697e13" y="1805.9779"/>
      </g>
     </g>
     <g id="text_11">
      <text style="font-family:DejaVu Sans;font-size:10px;font-stretch:normal;font-style:normal;font-weight:normal;text-anchor:end;" transform="rotate(-0, 33.88125, 1809.777119)" x="33.88125" y="1809.777119">5</text>
     </g>
    </g>
    <g id="ytick_3">
     <g id="line2d_11">
      <g>
       <use style="stroke:#000000;stroke-width:0.8;" x="40.88125" xlink:href="#md2b6697e13" y="1561.651283"/>
      </g>
     </g>
     <g id="text_12">
      <text style="font-family:DejaVu Sans;font-size:10px;font-stretch:normal;font-style:normal;font-weight:normal;text-anchor:end;" transform="rotate(-0, 33.88125, 1565.450502)" x="33.88125" y="1565.450502">6</text>
     </g>
    </g>
    <g id="ytick_4">
     <g id="line2d_12">
      <g>
       <use style="stroke:#000000;stroke-width:0.8;" x="40.88125" xlink:href="#md2b6697e13" y="1317.324666"/>
      </g>
     </g>
     <g id="text_13">
      <text style="font-family:DejaVu Sans;font-size:10px;font-stretch:normal;font-style:normal;font-weight:normal;text-anchor:end;" transform="rotate(-0, 33.88125, 1321.123885)" x="33.88125" y="1321.123885">7</text>
     </g>
    </g>
    <g id="ytick_5">
     <g id="line2d_13">
      <g>
       <use style="stroke:#000000;stroke-width:0.8;" x="40.88125" xlink:href="#md2b6697e13" y="1072.998049"/>
      </g>
     </g>
     <g id="text_14">
      <text style="font-family:DejaVu Sans;font-size:10px;font-stretch:normal;font-style:normal;font-weight:normal;text-anchor:end;" transform="rotate(-0, 33.88125, 1076.797268)" x="33.88125" y="1076.797268">8</text>
     </g>
    </g>
    <g id="ytick_6">
     <g id="line2d_14">
      <g>
       <use style="stroke:#000000;stroke-width:0.8;" x="40.88125" xlink:href="#md2b6697e13" y="828.671432"/>
      </g>
     </g>
     <g id="text_15">
      <text style="font-family:DejaVu Sans;font-size:10px;font-stretch:normal;font-style:normal;font-weight:normal;text-anchor:end;" transform="rotate(-0, 33.88125, 832.47065)" x="33.88125" y="832.47065">9</text>
     </g>
    </g>
    <g id="ytick_7">
     <g id="line2d_15">
      <g>
       <use style="stroke:#000000;stroke-width:0.8;" x="40.88125" xlink:href="#md2b6697e13" y="584.344814"/>
      </g>
     </g>
     <g id="text_16">
      <text style="font-family:DejaVu Sans;font-size:10px;font-stretch:normal;font-style:normal;font-weight:normal;text-anchor:end;" transform="rotate(-0, 33.88125, 588.144033)" x="33.88125" y="588.144033">10</text>
     </g>
    </g>
    <g id="ytick_8">
     <g id="line2d_16">
      <g>
       <use style="stroke:#000000;stroke-width:0.8;" x="40.88125" xlink:href="#md2b6697e13" y="340.018197"/>
      </g>
     </g>
     <g id="text_17">
      <text style="font-family:DejaVu Sans;font-size:10px;font-stretch:normal;font-style:normal;font-weight:normal;text-anchor:end;" transform="rotate(-0, 33.88125, 343.817416)" x="33.88125" y="343.817416">11</text>
     </g>
    </g>
    <g id="text_18">
     <text style="font-family:DejaVu Sans;font-size:10px;font-stretch:normal;font-style:normal;font-weight:normal;text-anchor:middle;" transform="rotate(-90, 14.798438, 1165.72)" x="14.798438" y="1165.72">ping_day[ms]</text>
    </g>
   </g>
   <g id="line2d_17">
    <path clip-path="url(#p39b365cc87)" d="M 122.044886 1866.570901 
L 126.591869 1866.326575 
L 131.138851 1891.492216 
L 140.232816 1882.207805 
L 144.779799 1678.928059 
L 149.326781 1913.481612 
L 153.873763 1763.465069 
L 158.420746 1800.358388 
L 162.967728 1850.445345 
L 172.061693 1954.284157 
L 176.608676 1834.319788 
L 185.70264 1924.720636 
L 194.796605 1945.732725 
L 208.437553 1892.225196 
L 212.984535 1962.102609 
L 222.0785 1941.09052 
L 231.172465 1910.549692 
L 240.26643 1818.682884 
L 253.907377 1859.485429 
L 263.001342 1891.98087 
L 285.736254 1945.244072 
L 290.283236 1869.747147 
L 299.377201 1848.002078 
L 313.018148 1870.96878 
L 322.112113 1907.12912 
L 326.659096 1836.274401 
L 331.206078 1821.85913 
L 335.753061 1651.807805 
L 340.300043 1812.574719 
L 344.847025 1816.483945 
L 349.394008 1885.628378 
L 353.94099 1799.625408 
L 358.487973 1867.548208 
L 363.034955 1972.12 
L 367.581938 1912.992959 
L 372.12892 1846.536119 
L 376.675902 1873.9007 
L 381.222885 1851.911304 
L 390.31685 1901.020954 
L 394.863832 1843.359873 
L 399.410815 1921.300064 
L 403.957797 1883.918091 
L 408.504779 1746.850859 
L 417.598744 1764.686702 
L 422.145727 1866.082248 
L 431.239692 1893.202503 
L 435.786674 1896.867402 
L 440.333656 1894.179809 
L 444.880639 1735.123181 
L 453.974604 1938.89158 
L 458.521586 1642.279067 
L 467.615551 1841.40526 
L 472.162533 1903.952874 
L 476.709516 1814.773659 
L 481.256498 1901.753934 
L 485.803481 1938.402927 
L 490.350463 1894.668462 
L 494.897446 1929.118515 
L 499.444428 1856.797837 
L 508.538393 1892.225196 
L 513.085375 1906.640467 
L 517.632358 1785.210138 
L 526.726323 1828.455949 
L 531.273305 1954.03983 
L 535.820287 1897.844708 
L 540.36727 1876.588293 
L 544.914252 1901.509608 
L 549.461235 1768.595928 
L 554.008217 1881.230498 
L 558.5552 1929.851495 
L 563.102182 1862.417349 
L 567.649164 1938.647253 
L 572.196147 1829.677582 
L 576.743129 1743.18596 
L 581.290112 1811.597413 
L 585.837094 1839.20632 
L 590.384077 1738.543754 
L 594.931059 1817.949905 
L 599.478041 1696.030923 
L 604.025024 1829.433256 
L 608.572006 1760.777476 
L 613.118989 1728.282036 
L 617.665971 1719.241951 
L 622.212954 1513.274613 
L 626.759936 1592.436437 
L 631.306918 1729.747996 
L 635.853901 1759.80017 
L 640.400883 1780.567932 
L 644.947866 1790.82965 
L 649.494848 1795.716182 
L 654.041831 1797.182142 
L 658.588813 1777.636013 
L 663.135795 1810.620106 
L 667.682778 1810.620106 
L 672.22976 1764.686702 
L 676.776743 1833.586808 
L 681.323725 1664.024136 
L 685.870708 1809.398473 
L 690.41769 1868.036861 
L 694.964672 1904.1972 
L 699.511655 1660.11491 
L 704.058637 1829.677582 
L 708.60562 1852.399958 
L 713.152602 1781.789565 
L 717.699585 1884.651071 
L 722.246567 1864.616288 
L 726.793549 1406.259555 
L 731.340532 1508.632407 
L 735.887514 1687.235164 
L 740.434497 1691.87737 
L 744.981479 1679.905366 
L 749.528462 1681.126999 
L 754.075444 1724.861463 
L 758.622426 1236.941209 
L 763.169409 1894.912789 
L 767.716391 1884.651071 
L 772.263374 1892.958176 
L 776.810356 1766.152662 
L 781.357339 1918.612471 
L 785.904321 1754.180657 
L 790.451303 1692.366023 
L 794.998286 1842.13824 
L 799.545268 1857.042163 
L 804.092251 1668.422015 
L 808.639233 1797.426469 
L 813.186216 1743.674613 
L 817.733198 1761.021803 
L 822.28018 1850.933998 
L 826.827163 1842.13824 
L 831.374145 1797.670795 
L 835.921128 1727.060403 
L 840.46811 1834.319788 
L 845.015093 1876.343966 
L 849.562075 1793.272916 
L 854.109057 1674.774507 
L 858.65604 1753.447678 
L 863.203022 1745.629226 
L 867.750005 1710.201866 
L 872.296987 1527.93421 
L 876.84397 1683.814592 
L 881.390952 1368.144602 
L 885.937934 700.644284 
L 890.484917 1685.036225 
L 895.031899 1734.878855 
L 899.578882 1113.556267 
L 904.125864 1618.823712 
L 908.672847 1752.226045 
L 913.219829 1641.057434 
L 917.766811 1243.049374 
L 922.313794 1757.356903 
L 926.860776 1539.906214 
L 931.407759 1396.730817 
L 935.954741 1688.212471 
L 940.501724 1708.980233 
L 945.048706 1574.111941 
L 949.595689 1607.096034 
L 954.142671 1735.611835 
L 958.689653 1628.108123 
L 963.236636 1629.085429 
L 967.783618 1619.068038 
L 972.330601 1621.511304 
L 976.877583 1580.464433 
L 981.424566 1656.205684 
L 985.971548 1535.508335 
L 990.51853 1794.005896 
L 995.065513 1630.795716 
L 999.612495 1704.093701 
L 1004.159478 1730.236649 
L 1008.70646 1088.146299 
L 1013.253443 1719.241951 
L 1017.800425 1481.023499 
L 1022.347407 1054.429226 
L 1026.89439 1673.308547 
L 1031.441372 1524.024984 
L 1035.988355 1783.499852 
L 1040.535337 1700.184475 
L 1045.08232 1747.339512 
L 1049.629302 1720.707911 
L 1054.176284 1830.166235 
L 1058.723267 1732.924242 
L 1063.270249 1646.432619 
L 1067.817232 1784.721485 
L 1072.364214 1721.685217 
L 1076.911197 1732.924242 
L 1081.458179 1688.701124 
L 1086.005161 1669.154995 
L 1090.552144 1754.913637 
L 1095.099126 1582.663372 
L 1099.646109 1681.371326 
L 1104.193091 1688.456797 
L 1108.740074 1724.617137 
L 1113.287056 569.685217 
L 1117.834038 1682.837285 
L 1122.381021 1689.434104 
L 1126.928003 1647.898579 
L 1131.474986 1675.99614 
L 1136.021968 359.32 
L 1140.568951 1638.125514 
L 1145.115933 1732.435589 
L 1149.662915 1740.25404 
L 1154.209898 1585.595292 
L 1158.75688 1701.161782 
L 1163.303863 1754.669311 
L 1167.850845 1703.605048 
L 1172.397828 1497.637709 
L 1176.94481 1742.208653 
L 1181.491792 1420.919152 
L 1186.038775 1663.291156 
L 1190.585757 1664.757116 
L 1195.13274 1739.032407 
L 1204.226705 1561.406957 
L 1208.773687 1337.359449 
L 1213.320669 1652.296458 
L 1217.867652 1659.137603 
L 1222.414634 774.919576 
L 1226.961617 1701.650435 
L 1231.508599 1756.86825 
L 1236.055582 1742.941633 
L 1240.602564 1700.428802 
L 1245.149546 1624.68755 
L 1249.696529 1545.2814 
L 1254.243511 1686.257858 
L 1258.790494 1675.018834 
L 1263.337476 1799.136755 
L 1267.884459 1718.753298 
L 1272.431441 1657.671644 
L 1276.978423 1688.212471 
L 1281.525406 1679.905366 
L 1286.072388 1695.297943 
L 1290.619371 1649.364539 
L 1295.166353 1557.009077 
L 1299.713336 1698.962842 
L 1304.260318 1334.427529 
L 1308.8073 1656.450011 
L 1313.354283 1697.008229 
L 1317.901265 1724.128484 
L 1322.448248 1699.695822 
L 1326.99523 1706.048314 
L 1331.542213 1651.319152 
L 1336.089195 1715.821379 
L 1340.636177 1746.606532 
L 1345.18316 1730.969629 
L 1349.730142 1642.279067 
L 1354.277125 1734.634528 
L 1358.824107 1751.004411 
L 1363.37109 1381.33824 
L 1367.918072 1738.543754 
L 1372.465054 1244.271007 
L 1377.012037 1755.402291 
L 1381.559019 1799.625408 
L 1386.106002 1665.001442 
L 1390.652984 1683.325938 
L 1395.199967 1603.186808 
L 1399.746949 1689.678431 
L 1404.293931 1808.90982 
L 1408.840914 1792.539936 
L 1413.387896 1677.950753 
L 1417.934879 1713.622439 
L 1422.481861 1748.072492 
L 1427.028844 1541.127847 
L 1431.575826 1799.869735 
L 1436.122808 1719.486278 
L 1440.669791 1726.327423 
L 1445.216773 1686.990838 
L 1449.763756 1771.039194 
L 1454.310738 1776.658706 
L 1458.857721 1712.400806 
L 1463.404703 1825.768356 
L 1467.951685 1715.332725 
L 1472.498668 1736.344814 
L 1477.04565 1624.443224 
L 1481.592633 1751.493065 
L 1486.139615 1780.567932 
L 1490.686598 1669.399321 
L 1495.23358 1744.407593 
L 1499.780562 1834.564115 
L 1504.327545 1815.017985 
L 1508.874527 1482.978112 
L 1513.42151 1849.468038 
L 1517.968492 1817.461251 
L 1522.515475 1881.230498 
L 1531.609439 1846.536119 
L 1536.156422 1798.892428 
L 1540.703404 1810.620106 
L 1545.250387 1789.119364 
L 1549.797369 1674.774507 
L 1554.344352 1673.7972 
L 1558.891334 1785.943118 
L 1563.438316 1820.881824 
L 1567.985299 1838.961994 
L 1572.532281 1842.13824 
L 1577.079264 1791.806957 
L 1581.626246 1872.923393 
L 1586.173229 1917.635164 
L 1590.720211 1864.860615 
L 1599.814176 1876.099639 
L 1649.830983 1889.293277 
L 1654.377965 1723.884157 
L 1658.924947 1899.066341 
L 1663.47193 1781.300912 
L 1668.018912 1889.293277 
L 1672.565895 1895.157116 
L 1677.112877 1901.265281 
L 1681.65986 1928.629862 
L 1686.206842 1815.506638 
L 1690.753824 1860.707063 
L 1695.300807 1777.147359 
L 1699.847789 1835.297094 
L 1704.394772 1899.799321 
L 1708.941754 1723.63983 
L 1713.488737 1854.843224 
L 1718.035719 1889.04895 
L 1722.582701 1814.285005 
L 1727.129684 1755.157964 
L 1731.676666 1735.367508 
L 1736.223649 1856.797837 
L 1740.770631 1873.9007 
L 1745.317614 1705.803987 
L 1745.317614 1705.803987 
" style="fill:none;stroke:#0000ff;stroke-linecap:square;stroke-width:1.5;"/>
   </g>
   <g id="patch_3">
    <path d="M 40.88125 2052.76 
L 40.88125 278.68 
" style="fill:none;stroke:#000000;stroke-linecap:square;stroke-linejoin:miter;stroke-width:0.8;"/>
   </g>
   <g id="patch_4">
    <path d="M 1826.48125 2052.76 
L 1826.48125 278.68 
" style="fill:none;stroke:#000000;stroke-linecap:square;stroke-linejoin:miter;stroke-width:0.8;"/>
   </g>
   <g id="patch_5">
    <path d="M 40.88125 2052.76 
L 1826.48125 2052.76 
" style="fill:none;stroke:#000000;stroke-linecap:square;stroke-linejoin:miter;stroke-width:0.8;"/>
   </g>
   <g id="patch_6">
    <path d="M 40.88125 278.68 
L 1826.48125 278.68 
" style="fill:none;stroke:#000000;stroke-linecap:square;stroke-linejoin:miter;stroke-width:0.8;"/>
   </g>
   <g id="text_19">
    <text style="font-family:DejaVu Sans;font-size:12px;font-stretch:normal;font-style:normal;font-weight:normal;text-anchor:middle;" transform="rotate(-0, 933.68125, 272.68)" x="933.68125" y="272.68">air_pressure-&gt;ping_day</text>
   </g>
  </g>
  <g id="legend_1">
   <g id="patch_7">
    <path d="M 1952.120312 22.95625 
L 2052.08125 22.95625 
Q 2054.08125 22.95625 2054.08125 20.95625 
L 2054.08125 7 
Q 2054.08125 5 2052.08125 5 
L 1952.120312 5 
Q 1950.120312 5 1950.120312 7 
L 1950.120312 20.95625 
Q 1950.120312 22.95625 1952.120312 22.95625 
z
" style="fill:#ffffff;opacity:0.8;stroke:#cccccc;stroke-linejoin:miter;"/>
   </g>
   <g id="line2d_18">
    <path d="M 1954.120312 13.098438 
L 1974.120312 13.098438 
" style="fill:none;stroke:#0000ff;stroke-linecap:square;stroke-width:1.5;"/>
   </g>
   <g id="line2d_19"/>
   <g id="text_20">
    <text style="font-family:DejaVu Sans;font-size:10px;font-stretch:normal;font-style:normal;font-weight:normal;text-anchor:start;" transform="rotate(-0, 1982.120312, 16.598438)" x="1982.120312" y="16.598438">ping_day[ms]</text>
   </g>
  </g>
 </g>
 <defs>
  <clipPath id="p39b365cc87">
   <rect height="1774.08" width="1785.6" x="40.88125" y="278.68"/>
  </clipPath>
 </defs>
</svg>
