<?xml version="1.0" encoding="utf-8" standalone="no"?>
<!DOCTYPE svg PUBLIC "-//W3C//DTD SVG 1.1//EN"
  "http://www.w3.org/Graphics/SVG/1.1/DTD/svg11.dtd">
<!-- Created with matplotlib (https://matplotlib.org/) -->
<svg height="345.6pt" version="1.1" viewBox="0 0 460.8 345.6" width="460.8pt" xmlns="http://www.w3.org/2000/svg" xmlns:xlink="http://www.w3.org/1999/xlink">
 <metadata>
  <rdf:RDF xmlns:cc="http://creativecommons.org/ns#" xmlns:dc="http://purl.org/dc/elements/1.1/" xmlns:rdf="http://www.w3.org/1999/02/22-rdf-syntax-ns#">
   <cc:Work>
    <dc:type rdf:resource="http://purl.org/dc/dcmitype/StillImage"/>
    <dc:date>2022-07-16T22:10:54.714268</dc:date>
    <dc:format>image/svg+xml</dc:format>
    <dc:creator>
     <cc:Agent>
      <dc:title>Matplotlib v3.3.2, https://matplotlib.org/</dc:title>
     </cc:Agent>
    </dc:creator>
   </cc:Work>
  </rdf:RDF>
 </metadata>
 <defs>
  <style type="text/css">*{stroke-linecap:butt;stroke-linejoin:round;}</style>
 </defs>
 <g id="figure_1">
  <g id="patch_1">
   <path d="M 0 345.6 
L 460.8 345.6 
L 460.8 0 
L 0 0 
z
" style="fill:#ffffff;"/>
  </g>
  <g id="axes_1">
   <g id="patch_2">
    <path d="M 57.6 307.584 
L 414.72 307.584 
L 414.72 41.472 
L 57.6 41.472 
z
" style="fill:#ffffff;"/>
   </g>
   <g id="matplotlib.axis_1">
    <g id="xtick_1">
     <g id="line2d_1">
      <defs>
       <path d="M 0 0 
L 0 3.5 
" id="m822ab5899c" style="stroke:#000000;stroke-width:0.8;"/>
      </defs>
      <g>
       <use style="stroke:#000000;stroke-width:0.8;" x="68.788659" xlink:href="#m822ab5899c" y="307.584"/>
      </g>
     </g>
     <g id="text_1">
      <!-- 0 -->
      <g transform="translate(65.607409 322.182437)scale(0.1 -0.1)">
       <defs>
        <path d="M 31.78125 66.40625 
Q 24.171875 66.40625 20.328125 58.90625 
Q 16.5 51.421875 16.5 36.375 
Q 16.5 21.390625 20.328125 13.890625 
Q 24.171875 6.390625 31.78125 6.390625 
Q 39.453125 6.390625 43.28125 13.890625 
Q 47.125 21.390625 47.125 36.375 
Q 47.125 51.421875 43.28125 58.90625 
Q 39.453125 66.40625 31.78125 66.40625 
z
M 31.78125 74.21875 
Q 44.046875 74.21875 50.515625 64.515625 
Q 56.984375 54.828125 56.984375 36.375 
Q 56.984375 17.96875 50.515625 8.265625 
Q 44.046875 -1.421875 31.78125 -1.421875 
Q 19.53125 -1.421875 13.0625 8.265625 
Q 6.59375 17.96875 6.59375 36.375 
Q 6.59375 54.828125 13.0625 64.515625 
Q 19.53125 74.21875 31.78125 74.21875 
z
" id="DejaVuSans-48"/>
       </defs>
       <use xlink:href="#DejaVuSans-48"/>
      </g>
     </g>
    </g>
    <g id="xtick_2">
     <g id="line2d_2">
      <g>
       <use style="stroke:#000000;stroke-width:0.8;" x="114.643821" xlink:href="#m822ab5899c" y="307.584"/>
      </g>
     </g>
     <g id="text_2">
      <!-- 2 -->
      <g transform="translate(111.462571 322.182437)scale(0.1 -0.1)">
       <defs>
        <path d="M 19.1875 8.296875 
L 53.609375 8.296875 
L 53.609375 0 
L 7.328125 0 
L 7.328125 8.296875 
Q 12.9375 14.109375 22.625 23.890625 
Q 32.328125 33.6875 34.8125 36.53125 
Q 39.546875 41.84375 41.421875 45.53125 
Q 43.3125 49.21875 43.3125 52.78125 
Q 43.3125 58.59375 39.234375 62.25 
Q 35.15625 65.921875 28.609375 65.921875 
Q 23.96875 65.921875 18.8125 64.3125 
Q 13.671875 62.703125 7.8125 59.421875 
L 7.8125 69.390625 
Q 13.765625 71.78125 18.9375 73 
Q 24.125 74.21875 28.421875 74.21875 
Q 39.75 74.21875 46.484375 68.546875 
Q 53.21875 62.890625 53.21875 53.421875 
Q 53.21875 48.921875 51.53125 44.890625 
Q 49.859375 40.875 45.40625 35.40625 
Q 44.1875 33.984375 37.640625 27.21875 
Q 31.109375 20.453125 19.1875 8.296875 
z
" id="DejaVuSans-50"/>
       </defs>
       <use xlink:href="#DejaVuSans-50"/>
      </g>
     </g>
    </g>
    <g id="xtick_3">
     <g id="line2d_3">
      <g>
       <use style="stroke:#000000;stroke-width:0.8;" x="160.498983" xlink:href="#m822ab5899c" y="307.584"/>
      </g>
     </g>
     <g id="text_3">
      <!-- 4 -->
      <g transform="translate(157.317733 322.182437)scale(0.1 -0.1)">
       <defs>
        <path d="M 37.796875 64.3125 
L 12.890625 25.390625 
L 37.796875 25.390625 
z
M 35.203125 72.90625 
L 47.609375 72.90625 
L 47.609375 25.390625 
L 58.015625 25.390625 
L 58.015625 17.1875 
L 47.609375 17.1875 
L 47.609375 0 
L 37.796875 0 
L 37.796875 17.1875 
L 4.890625 17.1875 
L 4.890625 26.703125 
z
" id="DejaVuSans-52"/>
       </defs>
       <use xlink:href="#DejaVuSans-52"/>
      </g>
     </g>
    </g>
    <g id="xtick_4">
     <g id="line2d_4">
      <g>
       <use style="stroke:#000000;stroke-width:0.8;" x="206.354145" xlink:href="#m822ab5899c" y="307.584"/>
      </g>
     </g>
     <g id="text_4">
      <!-- 6 -->
      <g transform="translate(203.172895 322.182437)scale(0.1 -0.1)">
       <defs>
        <path d="M 33.015625 40.375 
Q 26.375 40.375 22.484375 35.828125 
Q 18.609375 31.296875 18.609375 23.390625 
Q 18.609375 15.53125 22.484375 10.953125 
Q 26.375 6.390625 33.015625 6.390625 
Q 39.65625 6.390625 43.53125 10.953125 
Q 47.40625 15.53125 47.40625 23.390625 
Q 47.40625 31.296875 43.53125 35.828125 
Q 39.65625 40.375 33.015625 40.375 
z
M 52.59375 71.296875 
L 52.59375 62.3125 
Q 48.875 64.0625 45.09375 64.984375 
Q 41.3125 65.921875 37.59375 65.921875 
Q 27.828125 65.921875 22.671875 59.328125 
Q 17.53125 52.734375 16.796875 39.40625 
Q 19.671875 43.65625 24.015625 45.921875 
Q 28.375 48.1875 33.59375 48.1875 
Q 44.578125 48.1875 50.953125 41.515625 
Q 57.328125 34.859375 57.328125 23.390625 
Q 57.328125 12.15625 50.6875 5.359375 
Q 44.046875 -1.421875 33.015625 -1.421875 
Q 20.359375 -1.421875 13.671875 8.265625 
Q 6.984375 17.96875 6.984375 36.375 
Q 6.984375 53.65625 15.1875 63.9375 
Q 23.390625 74.21875 37.203125 74.21875 
Q 40.921875 74.21875 44.703125 73.484375 
Q 48.484375 72.75 52.59375 71.296875 
z
" id="DejaVuSans-54"/>
       </defs>
       <use xlink:href="#DejaVuSans-54"/>
      </g>
     </g>
    </g>
    <g id="xtick_5">
     <g id="line2d_5">
      <g>
       <use style="stroke:#000000;stroke-width:0.8;" x="252.209307" xlink:href="#m822ab5899c" y="307.584"/>
      </g>
     </g>
     <g id="text_5">
      <!-- 8 -->
      <g transform="translate(249.028057 322.182437)scale(0.1 -0.1)">
       <defs>
        <path d="M 31.78125 34.625 
Q 24.75 34.625 20.71875 30.859375 
Q 16.703125 27.09375 16.703125 20.515625 
Q 16.703125 13.921875 20.71875 10.15625 
Q 24.75 6.390625 31.78125 6.390625 
Q 38.8125 6.390625 42.859375 10.171875 
Q 46.921875 13.96875 46.921875 20.515625 
Q 46.921875 27.09375 42.890625 30.859375 
Q 38.875 34.625 31.78125 34.625 
z
M 21.921875 38.8125 
Q 15.578125 40.375 12.03125 44.71875 
Q 8.5 49.078125 8.5 55.328125 
Q 8.5 64.0625 14.71875 69.140625 
Q 20.953125 74.21875 31.78125 74.21875 
Q 42.671875 74.21875 48.875 69.140625 
Q 55.078125 64.0625 55.078125 55.328125 
Q 55.078125 49.078125 51.53125 44.71875 
Q 48 40.375 41.703125 38.8125 
Q 48.828125 37.15625 52.796875 32.3125 
Q 56.78125 27.484375 56.78125 20.515625 
Q 56.78125 9.90625 50.3125 4.234375 
Q 43.84375 -1.421875 31.78125 -1.421875 
Q 19.734375 -1.421875 13.25 4.234375 
Q 6.78125 9.90625 6.78125 20.515625 
Q 6.78125 27.484375 10.78125 32.3125 
Q 14.796875 37.15625 21.921875 38.8125 
z
M 18.3125 54.390625 
Q 18.3125 48.734375 21.84375 45.5625 
Q 25.390625 42.390625 31.78125 42.390625 
Q 38.140625 42.390625 41.71875 45.5625 
Q 45.3125 48.734375 45.3125 54.390625 
Q 45.3125 60.0625 41.71875 63.234375 
Q 38.140625 66.40625 31.78125 66.40625 
Q 25.390625 66.40625 21.84375 63.234375 
Q 18.3125 60.0625 18.3125 54.390625 
z
" id="DejaVuSans-56"/>
       </defs>
       <use xlink:href="#DejaVuSans-56"/>
      </g>
     </g>
    </g>
    <g id="xtick_6">
     <g id="line2d_6">
      <g>
       <use style="stroke:#000000;stroke-width:0.8;" x="298.064468" xlink:href="#m822ab5899c" y="307.584"/>
      </g>
     </g>
     <g id="text_6">
      <!-- 10 -->
      <g transform="translate(291.701968 322.182437)scale(0.1 -0.1)">
       <defs>
        <path d="M 12.40625 8.296875 
L 28.515625 8.296875 
L 28.515625 63.921875 
L 10.984375 60.40625 
L 10.984375 69.390625 
L 28.421875 72.90625 
L 38.28125 72.90625 
L 38.28125 8.296875 
L 54.390625 8.296875 
L 54.390625 0 
L 12.40625 0 
z
" id="DejaVuSans-49"/>
       </defs>
       <use xlink:href="#DejaVuSans-49"/>
       <use x="63.623047" xlink:href="#DejaVuSans-48"/>
      </g>
     </g>
    </g>
    <g id="xtick_7">
     <g id="line2d_7">
      <g>
       <use style="stroke:#000000;stroke-width:0.8;" x="343.91963" xlink:href="#m822ab5899c" y="307.584"/>
      </g>
     </g>
     <g id="text_7">
      <!-- 12 -->
      <g transform="translate(337.55713 322.182437)scale(0.1 -0.1)">
       <use xlink:href="#DejaVuSans-49"/>
       <use x="63.623047" xlink:href="#DejaVuSans-50"/>
      </g>
     </g>
    </g>
    <g id="xtick_8">
     <g id="line2d_8">
      <g>
       <use style="stroke:#000000;stroke-width:0.8;" x="389.774792" xlink:href="#m822ab5899c" y="307.584"/>
      </g>
     </g>
     <g id="text_8">
      <!-- 14 -->
      <g transform="translate(383.412292 322.182437)scale(0.1 -0.1)">
       <use xlink:href="#DejaVuSans-49"/>
       <use x="63.623047" xlink:href="#DejaVuSans-52"/>
      </g>
     </g>
    </g>
    <g id="text_9">
     <!-- wind_speed from OpenWeatherMap -->
     <g transform="translate(146.962344 335.860562)scale(0.1 -0.1)">
      <defs>
       <path d="M 4.203125 54.6875 
L 13.1875 54.6875 
L 24.421875 12.015625 
L 35.59375 54.6875 
L 46.1875 54.6875 
L 57.421875 12.015625 
L 68.609375 54.6875 
L 77.59375 54.6875 
L 63.28125 0 
L 52.6875 0 
L 40.921875 44.828125 
L 29.109375 0 
L 18.5 0 
z
" id="DejaVuSans-119"/>
       <path d="M 9.421875 54.6875 
L 18.40625 54.6875 
L 18.40625 0 
L 9.421875 0 
z
M 9.421875 75.984375 
L 18.40625 75.984375 
L 18.40625 64.59375 
L 9.421875 64.59375 
z
" id="DejaVuSans-105"/>
       <path d="M 54.890625 33.015625 
L 54.890625 0 
L 45.90625 0 
L 45.90625 32.71875 
Q 45.90625 40.484375 42.875 44.328125 
Q 39.84375 48.1875 33.796875 48.1875 
Q 26.515625 48.1875 22.3125 43.546875 
Q 18.109375 38.921875 18.109375 30.90625 
L 18.109375 0 
L 9.078125 0 
L 9.078125 54.6875 
L 18.109375 54.6875 
L 18.109375 46.1875 
Q 21.34375 51.125 25.703125 53.5625 
Q 30.078125 56 35.796875 56 
Q 45.21875 56 50.046875 50.171875 
Q 54.890625 44.34375 54.890625 33.015625 
z
" id="DejaVuSans-110"/>
       <path d="M 45.40625 46.390625 
L 45.40625 75.984375 
L 54.390625 75.984375 
L 54.390625 0 
L 45.40625 0 
L 45.40625 8.203125 
Q 42.578125 3.328125 38.25 0.953125 
Q 33.9375 -1.421875 27.875 -1.421875 
Q 17.96875 -1.421875 11.734375 6.484375 
Q 5.515625 14.40625 5.515625 27.296875 
Q 5.515625 40.1875 11.734375 48.09375 
Q 17.96875 56 27.875 56 
Q 33.9375 56 38.25 53.625 
Q 42.578125 51.265625 45.40625 46.390625 
z
M 14.796875 27.296875 
Q 14.796875 17.390625 18.875 11.75 
Q 22.953125 6.109375 30.078125 6.109375 
Q 37.203125 6.109375 41.296875 11.75 
Q 45.40625 17.390625 45.40625 27.296875 
Q 45.40625 37.203125 41.296875 42.84375 
Q 37.203125 48.484375 30.078125 48.484375 
Q 22.953125 48.484375 18.875 42.84375 
Q 14.796875 37.203125 14.796875 27.296875 
z
" id="DejaVuSans-100"/>
       <path d="M 50.984375 -16.609375 
L 50.984375 -23.578125 
L -0.984375 -23.578125 
L -0.984375 -16.609375 
z
" id="DejaVuSans-95"/>
       <path d="M 44.28125 53.078125 
L 44.28125 44.578125 
Q 40.484375 46.53125 36.375 47.5 
Q 32.28125 48.484375 27.875 48.484375 
Q 21.1875 48.484375 17.84375 46.4375 
Q 14.5 44.390625 14.5 40.28125 
Q 14.5 37.15625 16.890625 35.375 
Q 19.28125 33.59375 26.515625 31.984375 
L 29.59375 31.296875 
Q 39.15625 29.25 43.1875 25.515625 
Q 47.21875 21.78125 47.21875 15.09375 
Q 47.21875 7.46875 41.1875 3.015625 
Q 35.15625 -1.421875 24.609375 -1.421875 
Q 20.21875 -1.421875 15.453125 -0.5625 
Q 10.6875 0.296875 5.421875 2 
L 5.421875 11.28125 
Q 10.40625 8.6875 15.234375 7.390625 
Q 20.0625 6.109375 24.8125 6.109375 
Q 31.15625 6.109375 34.5625 8.28125 
Q 37.984375 10.453125 37.984375 14.40625 
Q 37.984375 18.0625 35.515625 20.015625 
Q 33.0625 21.96875 24.703125 23.78125 
L 21.578125 24.515625 
Q 13.234375 26.265625 9.515625 29.90625 
Q 5.8125 33.546875 5.8125 39.890625 
Q 5.8125 47.609375 11.28125 51.796875 
Q 16.75 56 26.8125 56 
Q 31.78125 56 36.171875 55.265625 
Q 40.578125 54.546875 44.28125 53.078125 
z
" id="DejaVuSans-115"/>
       <path d="M 18.109375 8.203125 
L 18.109375 -20.796875 
L 9.078125 -20.796875 
L 9.078125 54.6875 
L 18.109375 54.6875 
L 18.109375 46.390625 
Q 20.953125 51.265625 25.265625 53.625 
Q 29.59375 56 35.59375 56 
Q 45.5625 56 51.78125 48.09375 
Q 58.015625 40.1875 58.015625 27.296875 
Q 58.015625 14.40625 51.78125 6.484375 
Q 45.5625 -1.421875 35.59375 -1.421875 
Q 29.59375 -1.421875 25.265625 0.953125 
Q 20.953125 3.328125 18.109375 8.203125 
z
M 48.6875 27.296875 
Q 48.6875 37.203125 44.609375 42.84375 
Q 40.53125 48.484375 33.40625 48.484375 
Q 26.265625 48.484375 22.1875 42.84375 
Q 18.109375 37.203125 18.109375 27.296875 
Q 18.109375 17.390625 22.1875 11.75 
Q 26.265625 6.109375 33.40625 6.109375 
Q 40.53125 6.109375 44.609375 11.75 
Q 48.6875 17.390625 48.6875 27.296875 
z
" id="DejaVuSans-112"/>
       <path d="M 56.203125 29.59375 
L 56.203125 25.203125 
L 14.890625 25.203125 
Q 15.484375 15.921875 20.484375 11.0625 
Q 25.484375 6.203125 34.421875 6.203125 
Q 39.59375 6.203125 44.453125 7.46875 
Q 49.3125 8.734375 54.109375 11.28125 
L 54.109375 2.78125 
Q 49.265625 0.734375 44.1875 -0.34375 
Q 39.109375 -1.421875 33.890625 -1.421875 
Q 20.796875 -1.421875 13.15625 6.1875 
Q 5.515625 13.8125 5.515625 26.8125 
Q 5.515625 40.234375 12.765625 48.109375 
Q 20.015625 56 32.328125 56 
Q 43.359375 56 49.78125 48.890625 
Q 56.203125 41.796875 56.203125 29.59375 
z
M 47.21875 32.234375 
Q 47.125 39.59375 43.09375 43.984375 
Q 39.0625 48.390625 32.421875 48.390625 
Q 24.90625 48.390625 20.390625 44.140625 
Q 15.875 39.890625 15.1875 32.171875 
z
" id="DejaVuSans-101"/>
       <path id="DejaVuSans-32"/>
       <path d="M 37.109375 75.984375 
L 37.109375 68.5 
L 28.515625 68.5 
Q 23.6875 68.5 21.796875 66.546875 
Q 19.921875 64.59375 19.921875 59.515625 
L 19.921875 54.6875 
L 34.71875 54.6875 
L 34.71875 47.703125 
L 19.921875 47.703125 
L 19.921875 0 
L 10.890625 0 
L 10.890625 47.703125 
L 2.296875 47.703125 
L 2.296875 54.6875 
L 10.890625 54.6875 
L 10.890625 58.5 
Q 10.890625 67.625 15.140625 71.796875 
Q 19.390625 75.984375 28.609375 75.984375 
z
" id="DejaVuSans-102"/>
       <path d="M 41.109375 46.296875 
Q 39.59375 47.171875 37.8125 47.578125 
Q 36.03125 48 33.890625 48 
Q 26.265625 48 22.1875 43.046875 
Q 18.109375 38.09375 18.109375 28.8125 
L 18.109375 0 
L 9.078125 0 
L 9.078125 54.6875 
L 18.109375 54.6875 
L 18.109375 46.1875 
Q 20.953125 51.171875 25.484375 53.578125 
Q 30.03125 56 36.53125 56 
Q 37.453125 56 38.578125 55.875 
Q 39.703125 55.765625 41.0625 55.515625 
z
" id="DejaVuSans-114"/>
       <path d="M 30.609375 48.390625 
Q 23.390625 48.390625 19.1875 42.75 
Q 14.984375 37.109375 14.984375 27.296875 
Q 14.984375 17.484375 19.15625 11.84375 
Q 23.34375 6.203125 30.609375 6.203125 
Q 37.796875 6.203125 41.984375 11.859375 
Q 46.1875 17.53125 46.1875 27.296875 
Q 46.1875 37.015625 41.984375 42.703125 
Q 37.796875 48.390625 30.609375 48.390625 
z
M 30.609375 56 
Q 42.328125 56 49.015625 48.375 
Q 55.71875 40.765625 55.71875 27.296875 
Q 55.71875 13.875 49.015625 6.21875 
Q 42.328125 -1.421875 30.609375 -1.421875 
Q 18.84375 -1.421875 12.171875 6.21875 
Q 5.515625 13.875 5.515625 27.296875 
Q 5.515625 40.765625 12.171875 48.375 
Q 18.84375 56 30.609375 56 
z
" id="DejaVuSans-111"/>
       <path d="M 52 44.1875 
Q 55.375 50.25 60.0625 53.125 
Q 64.75 56 71.09375 56 
Q 79.640625 56 84.28125 50.015625 
Q 88.921875 44.046875 88.921875 33.015625 
L 88.921875 0 
L 79.890625 0 
L 79.890625 32.71875 
Q 79.890625 40.578125 77.09375 44.375 
Q 74.3125 48.1875 68.609375 48.1875 
Q 61.625 48.1875 57.5625 43.546875 
Q 53.515625 38.921875 53.515625 30.90625 
L 53.515625 0 
L 44.484375 0 
L 44.484375 32.71875 
Q 44.484375 40.625 41.703125 44.40625 
Q 38.921875 48.1875 33.109375 48.1875 
Q 26.21875 48.1875 22.15625 43.53125 
Q 18.109375 38.875 18.109375 30.90625 
L 18.109375 0 
L 9.078125 0 
L 9.078125 54.6875 
L 18.109375 54.6875 
L 18.109375 46.1875 
Q 21.1875 51.21875 25.484375 53.609375 
Q 29.78125 56 35.6875 56 
Q 41.65625 56 45.828125 52.96875 
Q 50 49.953125 52 44.1875 
z
" id="DejaVuSans-109"/>
       <path d="M 39.40625 66.21875 
Q 28.65625 66.21875 22.328125 58.203125 
Q 16.015625 50.203125 16.015625 36.375 
Q 16.015625 22.609375 22.328125 14.59375 
Q 28.65625 6.59375 39.40625 6.59375 
Q 50.140625 6.59375 56.421875 14.59375 
Q 62.703125 22.609375 62.703125 36.375 
Q 62.703125 50.203125 56.421875 58.203125 
Q 50.140625 66.21875 39.40625 66.21875 
z
M 39.40625 74.21875 
Q 54.734375 74.21875 63.90625 63.9375 
Q 73.09375 53.65625 73.09375 36.375 
Q 73.09375 19.140625 63.90625 8.859375 
Q 54.734375 -1.421875 39.40625 -1.421875 
Q 24.03125 -1.421875 14.8125 8.828125 
Q 5.609375 19.09375 5.609375 36.375 
Q 5.609375 53.65625 14.8125 63.9375 
Q 24.03125 74.21875 39.40625 74.21875 
z
" id="DejaVuSans-79"/>
       <path d="M 3.328125 72.90625 
L 13.28125 72.90625 
L 28.609375 11.28125 
L 43.890625 72.90625 
L 54.984375 72.90625 
L 70.3125 11.28125 
L 85.59375 72.90625 
L 95.609375 72.90625 
L 77.296875 0 
L 64.890625 0 
L 49.515625 63.28125 
L 33.984375 0 
L 21.578125 0 
z
" id="DejaVuSans-87"/>
       <path d="M 34.28125 27.484375 
Q 23.390625 27.484375 19.1875 25 
Q 14.984375 22.515625 14.984375 16.5 
Q 14.984375 11.71875 18.140625 8.90625 
Q 21.296875 6.109375 26.703125 6.109375 
Q 34.1875 6.109375 38.703125 11.40625 
Q 43.21875 16.703125 43.21875 25.484375 
L 43.21875 27.484375 
z
M 52.203125 31.203125 
L 52.203125 0 
L 43.21875 0 
L 43.21875 8.296875 
Q 40.140625 3.328125 35.546875 0.953125 
Q 30.953125 -1.421875 24.3125 -1.421875 
Q 15.921875 -1.421875 10.953125 3.296875 
Q 6 8.015625 6 15.921875 
Q 6 25.140625 12.171875 29.828125 
Q 18.359375 34.515625 30.609375 34.515625 
L 43.21875 34.515625 
L 43.21875 35.40625 
Q 43.21875 41.609375 39.140625 45 
Q 35.0625 48.390625 27.6875 48.390625 
Q 23 48.390625 18.546875 47.265625 
Q 14.109375 46.140625 10.015625 43.890625 
L 10.015625 52.203125 
Q 14.9375 54.109375 19.578125 55.046875 
Q 24.21875 56 28.609375 56 
Q 40.484375 56 46.34375 49.84375 
Q 52.203125 43.703125 52.203125 31.203125 
z
" id="DejaVuSans-97"/>
       <path d="M 18.3125 70.21875 
L 18.3125 54.6875 
L 36.8125 54.6875 
L 36.8125 47.703125 
L 18.3125 47.703125 
L 18.3125 18.015625 
Q 18.3125 11.328125 20.140625 9.421875 
Q 21.96875 7.515625 27.59375 7.515625 
L 36.8125 7.515625 
L 36.8125 0 
L 27.59375 0 
Q 17.1875 0 13.234375 3.875 
Q 9.28125 7.765625 9.28125 18.015625 
L 9.28125 47.703125 
L 2.6875 47.703125 
L 2.6875 54.6875 
L 9.28125 54.6875 
L 9.28125 70.21875 
z
" id="DejaVuSans-116"/>
       <path d="M 54.890625 33.015625 
L 54.890625 0 
L 45.90625 0 
L 45.90625 32.71875 
Q 45.90625 40.484375 42.875 44.328125 
Q 39.84375 48.1875 33.796875 48.1875 
Q 26.515625 48.1875 22.3125 43.546875 
Q 18.109375 38.921875 18.109375 30.90625 
L 18.109375 0 
L 9.078125 0 
L 9.078125 75.984375 
L 18.109375 75.984375 
L 18.109375 46.1875 
Q 21.34375 51.125 25.703125 53.5625 
Q 30.078125 56 35.796875 56 
Q 45.21875 56 50.046875 50.171875 
Q 54.890625 44.34375 54.890625 33.015625 
z
" id="DejaVuSans-104"/>
       <path d="M 9.8125 72.90625 
L 24.515625 72.90625 
L 43.109375 23.296875 
L 61.8125 72.90625 
L 76.515625 72.90625 
L 76.515625 0 
L 66.890625 0 
L 66.890625 64.015625 
L 48.09375 14.015625 
L 38.1875 14.015625 
L 19.390625 64.015625 
L 19.390625 0 
L 9.8125 0 
z
" id="DejaVuSans-77"/>
      </defs>
      <use xlink:href="#DejaVuSans-119"/>
      <use x="81.787109" xlink:href="#DejaVuSans-105"/>
      <use x="109.570312" xlink:href="#DejaVuSans-110"/>
      <use x="172.949219" xlink:href="#DejaVuSans-100"/>
      <use x="236.425781" xlink:href="#DejaVuSans-95"/>
      <use x="286.425781" xlink:href="#DejaVuSans-115"/>
      <use x="338.525391" xlink:href="#DejaVuSans-112"/>
      <use x="402.001953" xlink:href="#DejaVuSans-101"/>
      <use x="463.525391" xlink:href="#DejaVuSans-101"/>
      <use x="525.048828" xlink:href="#DejaVuSans-100"/>
      <use x="588.525391" xlink:href="#DejaVuSans-32"/>
      <use x="620.3125" xlink:href="#DejaVuSans-102"/>
      <use x="655.517578" xlink:href="#DejaVuSans-114"/>
      <use x="694.380859" xlink:href="#DejaVuSans-111"/>
      <use x="755.5625" xlink:href="#DejaVuSans-109"/>
      <use x="852.974609" xlink:href="#DejaVuSans-32"/>
      <use x="884.761719" xlink:href="#DejaVuSans-79"/>
      <use x="963.472656" xlink:href="#DejaVuSans-112"/>
      <use x="1026.949219" xlink:href="#DejaVuSans-101"/>
      <use x="1088.472656" xlink:href="#DejaVuSans-110"/>
      <use x="1151.851562" xlink:href="#DejaVuSans-87"/>
      <use x="1244.853516" xlink:href="#DejaVuSans-101"/>
      <use x="1306.376953" xlink:href="#DejaVuSans-97"/>
      <use x="1367.65625" xlink:href="#DejaVuSans-116"/>
      <use x="1406.865234" xlink:href="#DejaVuSans-104"/>
      <use x="1470.244141" xlink:href="#DejaVuSans-101"/>
      <use x="1531.767578" xlink:href="#DejaVuSans-114"/>
      <use x="1572.880859" xlink:href="#DejaVuSans-77"/>
      <use x="1659.160156" xlink:href="#DejaVuSans-97"/>
      <use x="1720.439453" xlink:href="#DejaVuSans-112"/>
     </g>
    </g>
   </g>
   <g id="matplotlib.axis_2">
    <g id="ytick_1">
     <g id="line2d_9">
      <defs>
       <path d="M 0 0 
L -3.5 0 
" id="mdd9c7572cb" style="stroke:#000000;stroke-width:0.8;"/>
      </defs>
      <g>
       <use style="stroke:#000000;stroke-width:0.8;" x="57.6" xlink:href="#mdd9c7572cb" y="306.258661"/>
      </g>
     </g>
     <g id="text_10">
      <!-- 4 -->
      <g transform="translate(44.2375 310.05788)scale(0.1 -0.1)">
       <use xlink:href="#DejaVuSans-52"/>
      </g>
     </g>
    </g>
    <g id="ytick_2">
     <g id="line2d_10">
      <g>
       <use style="stroke:#000000;stroke-width:0.8;" x="57.6" xlink:href="#mdd9c7572cb" y="269.747946"/>
      </g>
     </g>
     <g id="text_11">
      <!-- 5 -->
      <g transform="translate(44.2375 273.547164)scale(0.1 -0.1)">
       <defs>
        <path d="M 10.796875 72.90625 
L 49.515625 72.90625 
L 49.515625 64.59375 
L 19.828125 64.59375 
L 19.828125 46.734375 
Q 21.96875 47.46875 24.109375 47.828125 
Q 26.265625 48.1875 28.421875 48.1875 
Q 40.625 48.1875 47.75 41.5 
Q 54.890625 34.8125 54.890625 23.390625 
Q 54.890625 11.625 47.5625 5.09375 
Q 40.234375 -1.421875 26.90625 -1.421875 
Q 22.3125 -1.421875 17.546875 -0.640625 
Q 12.796875 0.140625 7.71875 1.703125 
L 7.71875 11.625 
Q 12.109375 9.234375 16.796875 8.0625 
Q 21.484375 6.890625 26.703125 6.890625 
Q 35.15625 6.890625 40.078125 11.328125 
Q 45.015625 15.765625 45.015625 23.390625 
Q 45.015625 31 40.078125 35.4375 
Q 35.15625 39.890625 26.703125 39.890625 
Q 22.75 39.890625 18.8125 39.015625 
Q 14.890625 38.140625 10.796875 36.28125 
z
" id="DejaVuSans-53"/>
       </defs>
       <use xlink:href="#DejaVuSans-53"/>
      </g>
     </g>
    </g>
    <g id="ytick_3">
     <g id="line2d_11">
      <g>
       <use style="stroke:#000000;stroke-width:0.8;" x="57.6" xlink:href="#mdd9c7572cb" y="233.23723"/>
      </g>
     </g>
     <g id="text_12">
      <!-- 6 -->
      <g transform="translate(44.2375 237.036449)scale(0.1 -0.1)">
       <use xlink:href="#DejaVuSans-54"/>
      </g>
     </g>
    </g>
    <g id="ytick_4">
     <g id="line2d_12">
      <g>
       <use style="stroke:#000000;stroke-width:0.8;" x="57.6" xlink:href="#mdd9c7572cb" y="196.726515"/>
      </g>
     </g>
     <g id="text_13">
      <!-- 7 -->
      <g transform="translate(44.2375 200.525734)scale(0.1 -0.1)">
       <defs>
        <path d="M 8.203125 72.90625 
L 55.078125 72.90625 
L 55.078125 68.703125 
L 28.609375 0 
L 18.3125 0 
L 43.21875 64.59375 
L 8.203125 64.59375 
z
" id="DejaVuSans-55"/>
       </defs>
       <use xlink:href="#DejaVuSans-55"/>
      </g>
     </g>
    </g>
    <g id="ytick_5">
     <g id="line2d_13">
      <g>
       <use style="stroke:#000000;stroke-width:0.8;" x="57.6" xlink:href="#mdd9c7572cb" y="160.2158"/>
      </g>
     </g>
     <g id="text_14">
      <!-- 8 -->
      <g transform="translate(44.2375 164.015018)scale(0.1 -0.1)">
       <use xlink:href="#DejaVuSans-56"/>
      </g>
     </g>
    </g>
    <g id="ytick_6">
     <g id="line2d_14">
      <g>
       <use style="stroke:#000000;stroke-width:0.8;" x="57.6" xlink:href="#mdd9c7572cb" y="123.705084"/>
      </g>
     </g>
     <g id="text_15">
      <!-- 9 -->
      <g transform="translate(44.2375 127.504303)scale(0.1 -0.1)">
       <defs>
        <path d="M 10.984375 1.515625 
L 10.984375 10.5 
Q 14.703125 8.734375 18.5 7.8125 
Q 22.3125 6.890625 25.984375 6.890625 
Q 35.75 6.890625 40.890625 13.453125 
Q 46.046875 20.015625 46.78125 33.40625 
Q 43.953125 29.203125 39.59375 26.953125 
Q 35.25 24.703125 29.984375 24.703125 
Q 19.046875 24.703125 12.671875 31.3125 
Q 6.296875 37.9375 6.296875 49.421875 
Q 6.296875 60.640625 12.9375 67.421875 
Q 19.578125 74.21875 30.609375 74.21875 
Q 43.265625 74.21875 49.921875 64.515625 
Q 56.59375 54.828125 56.59375 36.375 
Q 56.59375 19.140625 48.40625 8.859375 
Q 40.234375 -1.421875 26.421875 -1.421875 
Q 22.703125 -1.421875 18.890625 -0.6875 
Q 15.09375 0.046875 10.984375 1.515625 
z
M 30.609375 32.421875 
Q 37.25 32.421875 41.125 36.953125 
Q 45.015625 41.5 45.015625 49.421875 
Q 45.015625 57.28125 41.125 61.84375 
Q 37.25 66.40625 30.609375 66.40625 
Q 23.96875 66.40625 20.09375 61.84375 
Q 16.21875 57.28125 16.21875 49.421875 
Q 16.21875 41.5 20.09375 36.953125 
Q 23.96875 32.421875 30.609375 32.421875 
z
" id="DejaVuSans-57"/>
       </defs>
       <use xlink:href="#DejaVuSans-57"/>
      </g>
     </g>
    </g>
    <g id="ytick_7">
     <g id="line2d_15">
      <g>
       <use style="stroke:#000000;stroke-width:0.8;" x="57.6" xlink:href="#mdd9c7572cb" y="87.194369"/>
      </g>
     </g>
     <g id="text_16">
      <!-- 10 -->
      <g transform="translate(37.875 90.993588)scale(0.1 -0.1)">
       <use xlink:href="#DejaVuSans-49"/>
       <use x="63.623047" xlink:href="#DejaVuSans-48"/>
      </g>
     </g>
    </g>
    <g id="ytick_8">
     <g id="line2d_16">
      <g>
       <use style="stroke:#000000;stroke-width:0.8;" x="57.6" xlink:href="#mdd9c7572cb" y="50.683653"/>
      </g>
     </g>
     <g id="text_17">
      <!-- 11 -->
      <g transform="translate(37.875 54.482872)scale(0.1 -0.1)">
       <use xlink:href="#DejaVuSans-49"/>
       <use x="63.623047" xlink:href="#DejaVuSans-49"/>
      </g>
     </g>
    </g>
    <g id="text_18">
     <!-- ping_day[ms] -->
     <g transform="translate(31.517187 208.508469)rotate(-90)scale(0.1 -0.1)">
      <defs>
       <path d="M 45.40625 27.984375 
Q 45.40625 37.75 41.375 43.109375 
Q 37.359375 48.484375 30.078125 48.484375 
Q 22.859375 48.484375 18.828125 43.109375 
Q 14.796875 37.75 14.796875 27.984375 
Q 14.796875 18.265625 18.828125 12.890625 
Q 22.859375 7.515625 30.078125 7.515625 
Q 37.359375 7.515625 41.375 12.890625 
Q 45.40625 18.265625 45.40625 27.984375 
z
M 54.390625 6.78125 
Q 54.390625 -7.171875 48.1875 -13.984375 
Q 42 -20.796875 29.203125 -20.796875 
Q 24.46875 -20.796875 20.265625 -20.09375 
Q 16.0625 -19.390625 12.109375 -17.921875 
L 12.109375 -9.1875 
Q 16.0625 -11.328125 19.921875 -12.34375 
Q 23.78125 -13.375 27.78125 -13.375 
Q 36.625 -13.375 41.015625 -8.765625 
Q 45.40625 -4.15625 45.40625 5.171875 
L 45.40625 9.625 
Q 42.625 4.78125 38.28125 2.390625 
Q 33.9375 0 27.875 0 
Q 17.828125 0 11.671875 7.65625 
Q 5.515625 15.328125 5.515625 27.984375 
Q 5.515625 40.671875 11.671875 48.328125 
Q 17.828125 56 27.875 56 
Q 33.9375 56 38.28125 53.609375 
Q 42.625 51.21875 45.40625 46.390625 
L 45.40625 54.6875 
L 54.390625 54.6875 
z
" id="DejaVuSans-103"/>
       <path d="M 32.171875 -5.078125 
Q 28.375 -14.84375 24.75 -17.8125 
Q 21.140625 -20.796875 15.09375 -20.796875 
L 7.90625 -20.796875 
L 7.90625 -13.28125 
L 13.1875 -13.28125 
Q 16.890625 -13.28125 18.9375 -11.515625 
Q 21 -9.765625 23.484375 -3.21875 
L 25.09375 0.875 
L 2.984375 54.6875 
L 12.5 54.6875 
L 29.59375 11.921875 
L 46.6875 54.6875 
L 56.203125 54.6875 
z
" id="DejaVuSans-121"/>
       <path d="M 8.59375 75.984375 
L 29.296875 75.984375 
L 29.296875 69 
L 17.578125 69 
L 17.578125 -6.203125 
L 29.296875 -6.203125 
L 29.296875 -13.1875 
L 8.59375 -13.1875 
z
" id="DejaVuSans-91"/>
       <path d="M 30.421875 75.984375 
L 30.421875 -13.1875 
L 9.71875 -13.1875 
L 9.71875 -6.203125 
L 21.390625 -6.203125 
L 21.390625 69 
L 9.71875 69 
L 9.71875 75.984375 
z
" id="DejaVuSans-93"/>
      </defs>
      <use xlink:href="#DejaVuSans-112"/>
      <use x="63.476562" xlink:href="#DejaVuSans-105"/>
      <use x="91.259766" xlink:href="#DejaVuSans-110"/>
      <use x="154.638672" xlink:href="#DejaVuSans-103"/>
      <use x="218.115234" xlink:href="#DejaVuSans-95"/>
      <use x="268.115234" xlink:href="#DejaVuSans-100"/>
      <use x="331.591797" xlink:href="#DejaVuSans-97"/>
      <use x="392.871094" xlink:href="#DejaVuSans-121"/>
      <use x="452.050781" xlink:href="#DejaVuSans-91"/>
      <use x="491.064453" xlink:href="#DejaVuSans-109"/>
      <use x="588.476562" xlink:href="#DejaVuSans-115"/>
      <use x="640.576172" xlink:href="#DejaVuSans-93"/>
     </g>
    </g>
   </g>
   <g id="line2d_17">
    <path clip-path="url(#pf72c906450)" d="M 73.832727 266.023853 
L 75.208382 270.733735 
L 75.89621 258.648688 
L 78.188968 252.332334 
L 79.564622 260.620267 
L 80.711002 270.295606 
L 82.774484 276.465917 
L 83.462311 274.165742 
L 83.691587 256.20247 
L 85.296518 273.581571 
L 85.984345 276.648471 
L 86.442897 257.954985 
L 86.672173 270.514671 
L 87.818552 267.776367 
L 88.047827 271.244885 
L 88.277103 266.90011 
L 88.506379 270.879778 
L 89.882034 271.354417 
L 90.11131 267.739856 
L 90.340586 278.254942 
L 91.257689 281.139289 
L 91.945516 260.218649 
L 92.862619 274.384807 
L 93.091895 281.540907 
L 93.550447 257.516856 
L 94.008998 266.754067 
L 94.46755 283.329932 
L 94.926102 269.601903 
L 95.155378 272.486249 
L 95.613929 256.531067 
L 95.843205 272.413228 
L 96.072481 242.656995 
L 96.989584 268.470071 
L 97.21886 252.222802 
L 97.906687 273.362506 
L 98.135963 259.342392 
L 98.365239 260.875842 
L 98.594515 255.618299 
L 99.053066 273.070421 
L 99.511618 275.918257 
L 99.740894 275.58966 
L 100.199445 265.731767 
L 100.657997 252.441867 
L 101.345824 285.958703 
L 101.804376 279.861414 
L 102.262928 260.875842 
L 102.492203 210.016415 
L 102.950755 282.380653 
L 103.638582 265.950831 
L 103.867858 282.125078 
L 104.555686 278.510517 
L 105.014237 268.981221 
L 105.243513 257.151749 
L 105.472789 286.250789 
L 106.160616 266.242917 
L 106.848444 253.281613 
L 107.306995 253.245102 
L 107.536271 275.845235 
L 107.994823 269.638414 
L 108.224099 274.640382 
L 108.453374 263.176017 
L 108.68265 245.906449 
L 108.911926 266.060363 
L 109.370478 272.121142 
L 109.599753 269.273306 
L 109.829029 261.27746 
L 110.287581 253.208592 
L 110.516857 236.158088 
L 110.746133 259.707499 
L 110.975408 262.117206 
L 111.663236 249.338456 
L 112.351063 277.196132 
L 112.580339 265.841299 
L 113.038891 271.756035 
L 113.497442 254.048338 
L 113.726718 273.252974 
L 113.955994 267.776367 
L 114.414545 244.007891 
L 114.643821 270.806756 
L 115.560924 268.141474 
L 115.7902 264.526913 
L 116.019476 226.008109 
L 116.248752 264.490403 
L 116.478028 253.427656 
L 116.707304 275.115021 
L 116.936579 252.697442 
L 117.165855 257.881963 
L 117.853683 268.762156 
L 119.000062 260.364692 
L 119.229337 262.774399 
L 119.687889 256.786642 
L 119.917165 274.895957 
L 120.146441 270.551181 
L 120.375716 257.626388 
L 120.604992 279.094689 
L 120.834268 277.962857 
L 121.063544 261.606056 
L 121.29282 274.895957 
L 121.522096 253.829274 
L 121.751371 265.512703 
L 121.980647 227.61458 
L 122.209923 273.837146 
L 122.668475 267.484281 
L 122.89775 268.762156 
L 123.127026 256.275492 
L 123.585578 242.620484 
L 123.814854 254.522977 
L 124.044129 280.1535 
L 124.273405 285.630107 
L 124.502681 282.928314 
L 124.731957 263.906231 
L 125.190508 263.102995 
L 125.419784 241.780738 
L 125.64906 267.447771 
L 125.878336 276.538939 
L 126.107612 274.202253 
L 126.336888 256.640599 
L 126.566163 266.461981 
L 127.024715 270.405139 
L 127.253991 261.606056 
L 127.483267 263.468103 
L 127.712542 273.946678 
L 127.941818 274.713403 
L 128.40037 236.377152 
L 128.858921 276.904046 
L 129.088197 265.695256 
L 129.317473 266.535003 
L 129.546749 280.445585 
L 130.0053 272.595781 
L 130.234576 278.108899 
L 130.463852 263.176017 
L 130.693128 265.147596 
L 130.922404 225.314405 
L 131.15168 268.251006 
L 131.610231 253.975317 
L 131.839507 257.443835 
L 132.068783 257.954985 
L 132.298059 263.83321 
L 132.75661 271.719524 
L 133.215162 254.15787 
L 133.444438 276.758003 
L 133.902989 251.09097 
L 134.132265 250.57982 
L 134.361541 274.676892 
L 135.049368 269.382839 
L 135.278644 266.38896 
L 135.50792 260.839331 
L 135.737196 271.390928 
L 136.195747 253.318124 
L 136.425023 268.762156 
L 136.883575 276.392896 
L 137.112851 258.283581 
L 137.342126 257.553367 
L 137.571402 257.480345 
L 137.800678 295.488 
L 138.488505 255.946895 
L 138.717781 259.378903 
L 138.947057 257.516856 
L 139.176333 274.348296 
L 139.405609 266.863599 
L 139.634884 53.568 
L 139.86416 252.149781 
L 140.093436 261.533035 
L 140.551988 264.672956 
L 140.781263 252.733952 
L 141.010539 266.717556 
L 141.239815 262.84742 
L 141.469091 265.330149 
L 141.698367 255.764342 
L 142.156918 284.388743 
L 142.386194 229.330584 
L 142.61547 256.71362 
L 142.844746 250.616331 
L 143.074022 260.401203 
L 143.303297 242.91257 
L 143.532573 265.804788 
L 143.761849 251.967227 
L 144.220401 274.895957 
L 144.449676 263.650656 
L 144.908228 230.17033 
L 145.36678 272.267185 
L 145.596055 258.539156 
L 145.825331 232.543527 
L 146.054607 268.835178 
L 146.283883 255.800852 
L 146.742435 250.944927 
L 146.97171 243.314188 
L 147.430262 277.378685 
L 147.659538 276.173832 
L 147.888814 276.10081 
L 148.118089 260.401203 
L 148.347365 253.938806 
L 148.576641 280.19001 
L 148.805917 256.859663 
L 149.035193 276.977067 
L 149.264468 265.585724 
L 149.493744 239.444052 
L 149.72302 278.035878 
L 150.181572 245.103213 
L 150.410847 275.407107 
L 150.640123 241.817248 
L 150.869399 264.088785 
L 151.098675 246.782706 
L 151.557227 269.893989 
L 151.786502 260.620267 
L 152.015778 270.624203 
L 152.245054 273.837146 
L 153.162157 252.405356 
L 153.391433 281.540907 
L 153.849985 268.94471 
L 154.07926 272.376717 
L 154.308536 281.248821 
L 154.767088 235.099277 
L 154.996364 259.78052 
L 155.454915 262.153717 
L 155.684191 281.467885 
L 155.913467 266.790578 
L 156.142743 271.829056 
L 156.372018 260.474224 
L 156.601294 281.906014 
L 156.83057 199.282265 
L 157.059846 260.839331 
L 157.289122 261.898142 
L 157.518398 265.111085 
L 157.747673 221.188694 
L 157.976949 278.948646 
L 158.206225 271.025821 
L 158.435501 269.747946 
L 158.664777 271.536971 
L 158.894052 281.102778 
L 159.123328 266.973131 
L 159.58188 263.687167 
L 159.811156 270.98931 
L 160.040431 266.827088 
L 160.498983 263.650656 
L 160.728259 250.324245 
L 160.957535 275.58966 
L 161.18681 262.920442 
L 161.416086 270.149564 
L 161.645362 254.778552 
L 161.874638 274.05621 
L 162.103914 244.117423 
L 162.33319 251.419567 
L 162.562465 253.719742 
L 162.791741 266.352449 
L 163.021017 246.636663 
L 163.250293 253.865784 
L 163.479569 279.021667 
L 163.708844 273.508549 
L 163.93812 259.342392 
L 164.167396 262.84742 
L 164.396672 273.946678 
L 164.855223 248.53522 
L 165.084499 240.028223 
L 165.313775 260.620267 
L 166.001602 273.54506 
L 166.460154 245.687384 
L 167.147982 250.762374 
L 167.377257 244.665084 
L 167.606533 266.863599 
L 167.835809 266.38896 
L 168.294361 255.253192 
L 168.523636 283.475975 
L 168.752912 236.048555 
L 169.211464 281.979035 
L 169.670015 268.835178 
L 169.899291 282.161589 
L 170.128567 273.800635 
L 170.357843 260.437713 
L 170.587119 280.737671 
L 170.816394 268.908199 
L 171.04567 279.16771 
L 171.274946 280.737671 
L 171.504222 268.616113 
L 172.192049 212.061015 
L 172.421325 275.151532 
L 172.650601 272.340206 
L 172.879877 279.094689 
L 173.109153 241.050523 
L 173.338428 261.240949 
L 173.567704 246.709684 
L 173.79698 272.121142 
L 174.026256 233.20072 
L 174.255532 256.786642 
L 174.484807 257.370813 
L 174.943359 262.81091 
L 175.401911 249.301945 
L 176.319014 236.81528 
L 176.777565 276.684982 
L 177.006841 261.533035 
L 177.236117 258.137538 
L 177.465393 259.196349 
L 177.923945 271.062331 
L 178.15322 255.435745 
L 178.382496 267.447771 
L 178.611772 258.75822 
L 178.841048 268.798667 
L 179.070324 251.127481 
L 179.299599 260.656778 
L 179.528875 281.832992 
L 179.758151 264.161806 
L 179.987427 258.831242 
L 180.216703 260.875842 
L 180.445978 288.368411 
L 180.90453 260.474224 
L 181.133806 284.75385 
L 181.592357 246.673174 
L 181.821633 258.539156 
L 182.050909 246.527131 
L 182.280185 274.895957 
L 182.509461 208.592497 
L 182.738737 249.521009 
L 182.968012 247.585941 
L 183.197288 276.977067 
L 183.885116 257.516856 
L 184.114391 273.800635 
L 184.572943 260.182138 
L 184.802219 265.147596 
L 185.031495 230.791012 
L 185.26077 269.638414 
L 185.490046 270.952799 
L 185.719322 281.869503 
L 185.948598 261.715588 
L 186.177874 264.636446 
L 186.407149 247.951049 
L 186.636425 247.403388 
L 186.865701 206.292322 
L 187.094977 256.823152 
L 187.324253 257.005706 
L 187.553529 255.873874 
L 187.782804 275.480128 
L 188.01208 247.805006 
L 188.241356 278.693071 
L 188.699908 255.618299 
L 188.929183 262.993463 
L 189.158459 279.751882 
L 189.387735 248.644752 
L 189.846287 267.009642 
L 190.075562 266.023853 
L 190.304838 258.320092 
L 190.534114 265.658746 
L 190.76339 258.466135 
L 190.992666 257.589877 
L 191.451217 275.115021 
L 191.909769 185.627257 
L 192.139045 166.276578 
L 192.36832 254.778552 
L 192.597596 260.401203 
L 193.285424 281.21231 
L 193.5147 263.86972 
L 193.743975 275.370596 
L 193.973251 252.149781 
L 194.202527 275.115021 
L 194.431803 270.47816 
L 194.661079 258.794731 
L 194.890354 263.431592 
L 195.348906 254.815063 
L 195.807458 267.92241 
L 196.266009 258.064517 
L 196.724561 275.297574 
L 196.953837 247.111302 
L 197.183112 185.809811 
L 197.641664 275.662682 
L 198.329492 249.922627 
L 198.558767 245.906449 
L 198.788043 283.439464 
L 199.017319 278.327964 
L 199.475871 276.10081 
L 199.705146 261.094906 
L 199.934422 266.681046 
L 200.163698 267.630324 
L 200.392974 274.457828 
L 200.62225 265.731767 
L 200.851525 275.151532 
L 201.080801 265.293638 
L 201.539353 265.914321 
L 201.997904 265.257128 
L 202.456456 278.291453 
L 202.685732 162.479464 
L 202.915008 271.244885 
L 203.373559 237.83758 
L 203.832111 272.960889 
L 204.061387 263.577635 
L 204.290663 276.867535 
L 204.519938 258.24707 
L 205.437042 275.334085 
L 205.666317 272.121142 
L 205.895593 263.979253 
L 206.124869 264.380871 
L 206.354145 258.466135 
L 206.583421 265.111085 
L 206.812696 276.977067 
L 207.271248 248.973349 
L 207.500524 274.676892 
L 207.7298 269.96701 
L 207.959076 258.429624 
L 208.188351 273.03391 
L 208.417627 263.102995 
L 208.876179 274.676892 
L 209.33473 267.885899 
L 209.564006 259.853542 
L 209.793282 275.553149 
L 210.710385 216.989962 
L 210.939661 265.914321 
L 211.168937 274.129232 
L 211.398213 266.90011 
L 211.627488 271.792546 
L 211.856764 248.206624 
L 212.315316 256.16596 
L 212.544592 270.149564 
L 212.773867 275.151532 
L 213.232419 267.301728 
L 213.461695 265.87781 
L 213.690971 255.253192 
L 214.149522 253.026038 
L 214.83735 276.575449 
L 215.066626 261.78861 
L 215.525177 212.207058 
L 215.754453 270.514671 
L 215.983729 263.906231 
L 216.900832 282.818782 
L 217.359384 273.325996 
L 217.588659 255.253192 
L 217.817935 265.257128 
L 218.047211 283.402953 
L 218.276487 264.709467 
L 218.505763 269.419349 
L 218.735039 267.338238 
L 219.19359 249.119391 
L 219.422866 249.192413 
L 219.652142 283.25691 
L 220.569245 251.857695 
L 220.798521 283.512485 
L 221.027797 279.934435 
L 221.257072 267.41126 
L 221.486348 85.003726 
L 221.715624 283.512485 
L 221.9449 184.71449 
L 222.174176 266.754067 
L 222.632727 264.490403 
L 222.862003 268.470071 
L 223.320555 271.536971 
L 223.549831 264.015763 
L 223.779106 252.186292 
L 224.237658 282.1981 
L 224.69621 271.756035 
L 224.925485 258.685199 
L 225.384037 281.029757 
L 225.613313 244.701595 
L 225.842589 271.50046 
L 226.30114 267.958921 
L 226.530416 273.252974 
L 226.759692 266.023853 
L 227.218243 260.912353 
L 227.447519 223.671423 
L 227.676795 279.313753 
L 227.906071 259.159838 
L 228.135347 199.720394 
L 228.364622 250.178202 
L 228.593898 272.376717 
L 228.823174 157.440985 
L 229.511002 277.597749 
L 229.740277 259.013795 
L 230.198829 276.61196 
L 230.428105 263.577635 
L 231.345208 267.228706 
L 231.574484 284.534785 
L 232.033035 273.654592 
L 232.491587 278.254942 
L 232.950139 255.581788 
L 233.179414 276.137321 
L 233.40869 256.823152 
L 234.096518 268.543092 
L 234.325794 250.141692 
L 234.555069 262.883931 
L 235.013621 275.808724 
L 235.472173 279.1312 
L 235.701448 273.472039 
L 237.077103 266.352449 
L 237.306379 255.65481 
L 237.764931 271.135353 
L 237.994206 258.137538 
L 238.223482 272.632292 
L 238.452758 259.378903 
L 239.140586 281.139289 
L 239.369861 276.867535 
L 240.51624 274.530849 
L 240.745516 267.812878 
L 240.974792 249.995649 
L 241.433344 283.475975 
L 242.121171 273.362506 
L 242.579723 262.993463 
L 243.038274 257.589877 
L 243.26755 270.259096 
L 244.184653 275.151532 
L 244.643205 242.182356 
L 244.872481 277.196132 
L 245.331032 271.536971 
L 245.560308 275.845235 
L 245.789584 249.228924 
L 246.248136 266.90011 
L 246.477411 250.908417 
L 246.706687 265.768278 
L 247.394515 276.210342 
L 248.082342 264.015763 
L 248.770169 276.392896 
L 249.228721 278.729582 
L 249.687273 259.23286 
L 250.145824 270.405139 
L 250.3751 271.062331 
L 250.604376 254.63251 
L 251.062928 285.338021 
L 251.521479 281.139289 
L 251.980031 256.604088 
L 252.897134 283.293421 
L 253.12641 261.679078 
L 253.355686 273.179953 
L 253.814237 262.153717 
L 254.272789 115.672727 
L 254.502065 286.141257 
L 255.419168 251.492588 
L 255.87772 259.926563 
L 257.024099 256.275492 
L 257.253374 262.007674 
L 257.48265 245.285766 
L 257.941202 259.853542 
L 258.170478 221.48078 
L 258.629029 273.983189 
L 260.23396 259.159838 
L 260.921787 276.392896 
L 262.526718 275.261064 
L 262.98527 277.451707 
L 263.443821 265.987342 
L 264.819476 258.320092 
L 266.195131 262.555335 
L 266.882958 104.573469 
L 267.800062 244.738106 
L 271.009923 281.540907 
L 271.239199 279.313753 
L 271.69775 289.938371 
L 274.44906 277.232642 
L 277.888197 262.774399 
L 279.034576 228.198752 
L 280.639507 272.01161 
L 282.015162 271.208374 
L 283.849368 240.575884 
L 287.747057 260.76631 
L 289.351988 276.904046 
L 291.186194 255.946895 
L 296.688814 251.675142 
L 297.835193 261.715588 
L 333.143667 282.1981 
L 398.487273 265.36666 
L 398.487273 265.36666 
" style="fill:none;stroke:#0000ff;stroke-linecap:square;stroke-width:1.5;"/>
   </g>
   <g id="patch_3">
    <path d="M 57.6 307.584 
L 57.6 41.472 
" style="fill:none;stroke:#000000;stroke-linecap:square;stroke-linejoin:miter;stroke-width:0.8;"/>
   </g>
   <g id="patch_4">
    <path d="M 414.72 307.584 
L 414.72 41.472 
" style="fill:none;stroke:#000000;stroke-linecap:square;stroke-linejoin:miter;stroke-width:0.8;"/>
   </g>
   <g id="patch_5">
    <path d="M 57.6 307.584 
L 414.72 307.584 
" style="fill:none;stroke:#000000;stroke-linecap:square;stroke-linejoin:miter;stroke-width:0.8;"/>
   </g>
   <g id="patch_6">
    <path d="M 57.6 41.472 
L 414.72 41.472 
" style="fill:none;stroke:#000000;stroke-linecap:square;stroke-linejoin:miter;stroke-width:0.8;"/>
   </g>
   <g id="text_19">
    <!-- wind_speed-&gt;ping_day -->
    <g transform="translate(166.53 35.472)scale(0.12 -0.12)">
     <defs>
      <path d="M 4.890625 31.390625 
L 31.203125 31.390625 
L 31.203125 23.390625 
L 4.890625 23.390625 
z
" id="DejaVuSans-45"/>
      <path d="M 10.59375 49.21875 
L 10.59375 58.109375 
L 73.1875 35.40625 
L 73.1875 27.296875 
L 10.59375 4.59375 
L 10.59375 13.484375 
L 60.890625 31.296875 
z
" id="DejaVuSans-62"/>
     </defs>
     <use xlink:href="#DejaVuSans-119"/>
     <use x="81.787109" xlink:href="#DejaVuSans-105"/>
     <use x="109.570312" xlink:href="#DejaVuSans-110"/>
     <use x="172.949219" xlink:href="#DejaVuSans-100"/>
     <use x="236.425781" xlink:href="#DejaVuSans-95"/>
     <use x="286.425781" xlink:href="#DejaVuSans-115"/>
     <use x="338.525391" xlink:href="#DejaVuSans-112"/>
     <use x="402.001953" xlink:href="#DejaVuSans-101"/>
     <use x="463.525391" xlink:href="#DejaVuSans-101"/>
     <use x="525.048828" xlink:href="#DejaVuSans-100"/>
     <use x="588.525391" xlink:href="#DejaVuSans-45"/>
     <use x="624.609375" xlink:href="#DejaVuSans-62"/>
     <use x="708.398438" xlink:href="#DejaVuSans-112"/>
     <use x="771.875" xlink:href="#DejaVuSans-105"/>
     <use x="799.658203" xlink:href="#DejaVuSans-110"/>
     <use x="863.037109" xlink:href="#DejaVuSans-103"/>
     <use x="926.513672" xlink:href="#DejaVuSans-95"/>
     <use x="976.513672" xlink:href="#DejaVuSans-100"/>
     <use x="1039.990234" xlink:href="#DejaVuSans-97"/>
     <use x="1101.269531" xlink:href="#DejaVuSans-121"/>
    </g>
   </g>
  </g>
  <g id="legend_1">
   <g id="patch_7">
    <path d="M 353.839063 22.95625 
L 453.8 22.95625 
Q 455.8 22.95625 455.8 20.95625 
L 455.8 7 
Q 455.8 5 453.8 5 
L 353.839063 5 
Q 351.839063 5 351.839063 7 
L 351.839063 20.95625 
Q 351.839063 22.95625 353.839063 22.95625 
z
" style="fill:#ffffff;opacity:0.8;stroke:#cccccc;stroke-linejoin:miter;"/>
   </g>
   <g id="line2d_18">
    <path d="M 355.839063 13.098437 
L 375.839063 13.098437 
" style="fill:none;stroke:#0000ff;stroke-linecap:square;stroke-width:1.5;"/>
   </g>
   <g id="line2d_19"/>
   <g id="text_20">
    <!-- ping_day[ms] -->
    <g transform="translate(383.839063 16.598437)scale(0.1 -0.1)">
     <use xlink:href="#DejaVuSans-112"/>
     <use x="63.476562" xlink:href="#DejaVuSans-105"/>
     <use x="91.259766" xlink:href="#DejaVuSans-110"/>
     <use x="154.638672" xlink:href="#DejaVuSans-103"/>
     <use x="218.115234" xlink:href="#DejaVuSans-95"/>
     <use x="268.115234" xlink:href="#DejaVuSans-100"/>
     <use x="331.591797" xlink:href="#DejaVuSans-97"/>
     <use x="392.871094" xlink:href="#DejaVuSans-121"/>
     <use x="452.050781" xlink:href="#DejaVuSans-91"/>
     <use x="491.064453" xlink:href="#DejaVuSans-109"/>
     <use x="588.476562" xlink:href="#DejaVuSans-115"/>
     <use x="640.576172" xlink:href="#DejaVuSans-93"/>
    </g>
   </g>
  </g>
 </g>
 <defs>
  <clipPath id="pf72c906450">
   <rect height="266.112" width="357.12" x="57.6" y="41.472"/>
  </clipPath>
 </defs>
</svg>
