<?xml version="1.0" encoding="utf-8" standalone="no"?>
<!DOCTYPE svg PUBLIC "-//W3C//DTD SVG 1.1//EN"
  "http://www.w3.org/Graphics/SVG/1.1/DTD/svg11.dtd">
<!-- Created with matplotlib (https://matplotlib.org/) -->
<svg height="2090.594375pt" version="1.1" viewBox="0 0 2059.08125 2090.594375" width="2059.08125pt" xmlns="http://www.w3.org/2000/svg" xmlns:xlink="http://www.w3.org/1999/xlink">
 <metadata>
  <rdf:RDF xmlns:cc="http://creativecommons.org/ns#" xmlns:dc="http://purl.org/dc/elements/1.1/" xmlns:rdf="http://www.w3.org/1999/02/22-rdf-syntax-ns#">
   <cc:Work>
    <dc:type rdf:resource="http://purl.org/dc/dcmitype/StillImage"/>
    <dc:date>2022-07-23T21:02:11.292969</dc:date>
    <dc:format>image/svg+xml</dc:format>
    <dc:creator>
     <cc:Agent>
      <dc:title>Matplotlib v3.3.2, https://matplotlib.org/</dc:title>
     </cc:Agent>
    </dc:creator>
   </cc:Work>
  </rdf:RDF>
 </metadata>
 <defs>
  <style type="text/css">*{stroke-linecap:butt;stroke-linejoin:round;}</style>
 </defs>
 <g id="figure_1">
  <g id="patch_1">
   <path d="M 0 2090.594375 
L 2059.08125 2090.594375 
L 2059.08125 0 
L 0 0 
z
" style="fill:#ffffff;"/>
  </g>
  <g id="axes_1">
   <g id="patch_2">
    <path d="M 40.88125 2052.76 
L 1826.48125 2052.76 
L 1826.48125 278.68 
L 40.88125 278.68 
z
" style="fill:#ffffff;"/>
   </g>
   <g id="matplotlib.axis_1">
    <g id="xtick_1">
     <g id="line2d_1">
      <defs>
       <path d="M 0 0 
L 0 3.5 
" id="ma7943ef1cc" style="stroke:#000000;stroke-width:0.8;"/>
      </defs>
      <g>
       <use style="stroke:#000000;stroke-width:0.8;" x="328.174756" xlink:href="#ma7943ef1cc" y="2052.76"/>
      </g>
     </g>
     <g id="text_1">
      <text style="font-family:DejaVu Sans;font-size:10px;font-stretch:normal;font-style:normal;font-weight:normal;text-anchor:middle;" transform="rotate(-0, 328.174756, 2067.358437)" x="328.174756" y="2067.358437">10</text>
     </g>
    </g>
    <g id="xtick_2">
     <g id="line2d_2">
      <g>
       <use style="stroke:#000000;stroke-width:0.8;" x="650.252679" xlink:href="#ma7943ef1cc" y="2052.76"/>
      </g>
     </g>
     <g id="text_2">
      <text style="font-family:DejaVu Sans;font-size:10px;font-stretch:normal;font-style:normal;font-weight:normal;text-anchor:middle;" transform="rotate(-0, 650.252679, 2067.358437)" x="650.252679" y="2067.358437">20</text>
     </g>
    </g>
    <g id="xtick_3">
     <g id="line2d_3">
      <g>
       <use style="stroke:#000000;stroke-width:0.8;" x="972.330601" xlink:href="#ma7943ef1cc" y="2052.76"/>
      </g>
     </g>
     <g id="text_3">
      <text style="font-family:DejaVu Sans;font-size:10px;font-stretch:normal;font-style:normal;font-weight:normal;text-anchor:middle;" transform="rotate(-0, 972.330601, 2067.358437)" x="972.330601" y="2067.358437">30</text>
     </g>
    </g>
    <g id="xtick_4">
     <g id="line2d_4">
      <g>
       <use style="stroke:#000000;stroke-width:0.8;" x="1294.408523" xlink:href="#ma7943ef1cc" y="2052.76"/>
      </g>
     </g>
     <g id="text_4">
      <text style="font-family:DejaVu Sans;font-size:10px;font-stretch:normal;font-style:normal;font-weight:normal;text-anchor:middle;" transform="rotate(-0, 1294.408523, 2067.358437)" x="1294.408523" y="2067.358437">40</text>
     </g>
    </g>
    <g id="xtick_5">
     <g id="line2d_5">
      <g>
       <use style="stroke:#000000;stroke-width:0.8;" x="1616.486445" xlink:href="#ma7943ef1cc" y="2052.76"/>
      </g>
     </g>
     <g id="text_5">
      <text style="font-family:DejaVu Sans;font-size:10px;font-stretch:normal;font-style:normal;font-weight:normal;text-anchor:middle;" transform="rotate(-0, 1616.486445, 2067.358437)" x="1616.486445" y="2067.358437">50</text>
     </g>
    </g>
    <g id="text_6">
     <text style="font-family:DejaVu Sans;font-size:10px;font-stretch:normal;font-style:normal;font-weight:normal;text-anchor:middle;" transform="rotate(-0, 933.68125, 2081.036562)" x="933.68125" y="2081.036562">wind_speed from WeatherAPI</text>
    </g>
   </g>
   <g id="matplotlib.axis_2">
    <g id="ytick_1">
     <g id="line2d_6">
      <defs>
       <path d="M 0 0 
L -3.5 0 
" id="ma85b9b4d45" style="stroke:#000000;stroke-width:0.8;"/>
      </defs>
      <g>
       <use style="stroke:#000000;stroke-width:0.8;" x="40.88125" xlink:href="#ma85b9b4d45" y="1920.442903"/>
      </g>
     </g>
     <g id="text_7">
      <text style="font-family:DejaVu Sans;font-size:10px;font-stretch:normal;font-style:normal;font-weight:normal;text-anchor:end;" transform="rotate(-0, 33.88125, 1924.242122)" x="33.88125" y="1924.242122">5</text>
     </g>
    </g>
    <g id="ytick_2">
     <g id="line2d_7">
      <g>
       <use style="stroke:#000000;stroke-width:0.8;" x="40.88125" xlink:href="#ma85b9b4d45" y="1656.784247"/>
      </g>
     </g>
     <g id="text_8">
      <text style="font-family:DejaVu Sans;font-size:10px;font-stretch:normal;font-style:normal;font-weight:normal;text-anchor:end;" transform="rotate(-0, 33.88125, 1660.583466)" x="33.88125" y="1660.583466">6</text>
     </g>
    </g>
    <g id="ytick_3">
     <g id="line2d_8">
      <g>
       <use style="stroke:#000000;stroke-width:0.8;" x="40.88125" xlink:href="#ma85b9b4d45" y="1393.125591"/>
      </g>
     </g>
     <g id="text_9">
      <text style="font-family:DejaVu Sans;font-size:10px;font-stretch:normal;font-style:normal;font-weight:normal;text-anchor:end;" transform="rotate(-0, 33.88125, 1396.92481)" x="33.88125" y="1396.92481">7</text>
     </g>
    </g>
    <g id="ytick_4">
     <g id="line2d_9">
      <g>
       <use style="stroke:#000000;stroke-width:0.8;" x="40.88125" xlink:href="#ma85b9b4d45" y="1129.466935"/>
      </g>
     </g>
     <g id="text_10">
      <text style="font-family:DejaVu Sans;font-size:10px;font-stretch:normal;font-style:normal;font-weight:normal;text-anchor:end;" transform="rotate(-0, 33.88125, 1133.266154)" x="33.88125" y="1133.266154">8</text>
     </g>
    </g>
    <g id="ytick_5">
     <g id="line2d_10">
      <g>
       <use style="stroke:#000000;stroke-width:0.8;" x="40.88125" xlink:href="#ma85b9b4d45" y="865.808279"/>
      </g>
     </g>
     <g id="text_11">
      <text style="font-family:DejaVu Sans;font-size:10px;font-stretch:normal;font-style:normal;font-weight:normal;text-anchor:end;" transform="rotate(-0, 33.88125, 869.607497)" x="33.88125" y="869.607497">9</text>
     </g>
    </g>
    <g id="ytick_6">
     <g id="line2d_11">
      <g>
       <use style="stroke:#000000;stroke-width:0.8;" x="40.88125" xlink:href="#ma85b9b4d45" y="602.149622"/>
      </g>
     </g>
     <g id="text_12">
      <text style="font-family:DejaVu Sans;font-size:10px;font-stretch:normal;font-style:normal;font-weight:normal;text-anchor:end;" transform="rotate(-0, 33.88125, 605.948841)" x="33.88125" y="605.948841">10</text>
     </g>
    </g>
    <g id="ytick_7">
     <g id="line2d_12">
      <g>
       <use style="stroke:#000000;stroke-width:0.8;" x="40.88125" xlink:href="#ma85b9b4d45" y="338.490966"/>
      </g>
     </g>
     <g id="text_13">
      <text style="font-family:DejaVu Sans;font-size:10px;font-stretch:normal;font-style:normal;font-weight:normal;text-anchor:end;" transform="rotate(-0, 33.88125, 342.290185)" x="33.88125" y="342.290185">11</text>
     </g>
    </g>
    <g id="text_14">
     <text style="font-family:DejaVu Sans;font-size:10px;font-stretch:normal;font-style:normal;font-weight:normal;text-anchor:middle;" transform="rotate(-90, 14.798438, 1165.72)" x="14.798438" y="1165.72">ping_day[ms]</text>
    </g>
   </g>
   <g id="line2d_13">
    <path clip-path="url(#p20597b1b97)" d="M 122.044886 1578.477626 
L 134.928003 1845.300186 
L 144.590341 1718.480373 
L 157.473458 1748.273801 
L 167.135795 1768.311859 
L 180.018912 1914.906072 
L 192.902029 1863.756292 
L 202.564367 1840.290672 
L 215.447484 1801.269191 
L 225.109821 1801.532849 
L 237.992938 1604.579833 
L 250.876055 1831.589936 
L 260.538393 1790.722845 
L 273.42151 1616.180814 
L 283.083847 1839.499696 
L 295.966964 1639.119117 
L 308.850081 1785.71333 
L 318.512419 1734.563551 
L 331.395536 1679.458892 
L 341.057873 1503.862227 
L 353.94099 1599.570319 
L 366.824107 1489.097342 
L 376.486445 1754.601609 
L 389.369562 1628.572771 
L 399.031899 1651.774733 
L 411.915016 1753.546974 
L 424.798133 1670.230839 
L 434.460471 1726.653791 
L 447.343588 1109.428877 
L 457.005925 1682.622795 
L 469.889042 1701.606219 
L 482.772159 1656.520589 
L 492.434497 359.32 
L 505.317614 1767.257224 
L 514.979951 1713.2072 
L 527.863068 1735.354527 
L 540.746185 1784.658695 
L 550.408523 1754.074291 
L 563.29164 1759.083806 
L 572.953977 1752.755998 
L 585.837094 1539.456145 
L 598.720211 1748.273801 
L 608.382549 1478.814654 
L 621.265666 1411.581697 
L 630.928003 1812.606513 
L 643.81112 1314.291653 
L 656.694237 1753.810633 
L 666.356575 1462.204159 
L 679.239692 1840.554331 
L 688.902029 1760.402099 
L 701.785146 1817.352369 
L 714.668263 1504.916861 
L 724.330601 1729.026719 
L 737.213718 1880.894105 
L 746.876055 1791.250162 
L 759.759172 1312.973359 
L 772.642289 1587.705679 
L 782.304627 1414.745601 
L 795.187744 1145.813771 
L 804.850081 1306.381893 
L 817.733198 1842.927258 
L 830.616315 1777.80357 
L 840.278653 1771.475763 
L 853.161769 1794.941383 
L 862.824107 1906.468995 
L 875.707224 1784.395037 
L 888.590341 586.330103 
L 898.252679 1825.525787 
L 911.135795 1849.518725 
L 920.798133 1743.791604 
L 933.68125 1844.50921 
L 946.564367 1811.28822 
L 956.226705 807.803374 
L 969.109821 1848.991408 
L 978.772159 1865.601903 
L 991.655276 1571.88616 
L 1004.538393 1942.853889 
L 1014.200731 727.651143 
L 1036.746185 1926.243394 
L 1049.629302 1620.399353 
L 1062.512419 1870.0841 
L 1085.057873 1954.191211 
L 1094.720211 1930.98925 
L 1107.603328 1972.12 
L 1130.148782 1855.582874 
L 1143.031899 1789.931869 
L 1165.577354 1820.779931 
L 1745.317614 1888.803865 
" style="fill:none;stroke:#0000ff;stroke-linecap:square;stroke-width:1.5;"/>
   </g>
   <g id="patch_3">
    <path d="M 40.88125 2052.76 
L 40.88125 278.68 
" style="fill:none;stroke:#000000;stroke-linecap:square;stroke-linejoin:miter;stroke-width:0.8;"/>
   </g>
   <g id="patch_4">
    <path d="M 1826.48125 2052.76 
L 1826.48125 278.68 
" style="fill:none;stroke:#000000;stroke-linecap:square;stroke-linejoin:miter;stroke-width:0.8;"/>
   </g>
   <g id="patch_5">
    <path d="M 40.88125 2052.76 
L 1826.48125 2052.76 
" style="fill:none;stroke:#000000;stroke-linecap:square;stroke-linejoin:miter;stroke-width:0.8;"/>
   </g>
   <g id="patch_6">
    <path d="M 40.88125 278.68 
L 1826.48125 278.68 
" style="fill:none;stroke:#000000;stroke-linecap:square;stroke-linejoin:miter;stroke-width:0.8;"/>
   </g>
   <g id="text_15">
    <text style="font-family:DejaVu Sans;font-size:12px;font-stretch:normal;font-style:normal;font-weight:normal;text-anchor:middle;" transform="rotate(-0, 933.68125, 272.68)" x="933.68125" y="272.68">wind_speed-&gt;ping_day</text>
   </g>
  </g>
  <g id="legend_1">
   <g id="patch_7">
    <path d="M 1952.120312 22.95625 
L 2052.08125 22.95625 
Q 2054.08125 22.95625 2054.08125 20.95625 
L 2054.08125 7 
Q 2054.08125 5 2052.08125 5 
L 1952.120312 5 
Q 1950.120312 5 1950.120312 7 
L 1950.120312 20.95625 
Q 1950.120312 22.95625 1952.120312 22.95625 
z
" style="fill:#ffffff;opacity:0.8;stroke:#cccccc;stroke-linejoin:miter;"/>
   </g>
   <g id="line2d_14">
    <path d="M 1954.120312 13.098438 
L 1974.120312 13.098438 
" style="fill:none;stroke:#0000ff;stroke-linecap:square;stroke-width:1.5;"/>
   </g>
   <g id="line2d_15"/>
   <g id="text_16">
    <text style="font-family:DejaVu Sans;font-size:10px;font-stretch:normal;font-style:normal;font-weight:normal;text-anchor:start;" transform="rotate(-0, 1982.120312, 16.598438)" x="1982.120312" y="16.598438">ping_day[ms]</text>
   </g>
  </g>
 </g>
 <defs>
  <clipPath id="p20597b1b97">
   <rect height="1774.08" width="1785.6" x="40.88125" y="278.68"/>
  </clipPath>
 </defs>
</svg>
