<?xml version="1.0" encoding="utf-8" standalone="no"?>
<!DOCTYPE svg PUBLIC "-//W3C//DTD SVG 1.1//EN"
  "http://www.w3.org/Graphics/SVG/1.1/DTD/svg11.dtd">
<!-- Created with matplotlib (https://matplotlib.org/) -->
<svg height="345.6pt" version="1.1" viewBox="0 0 460.8 345.6" width="460.8pt" xmlns="http://www.w3.org/2000/svg" xmlns:xlink="http://www.w3.org/1999/xlink">
 <metadata>
  <rdf:RDF xmlns:cc="http://creativecommons.org/ns#" xmlns:dc="http://purl.org/dc/elements/1.1/" xmlns:rdf="http://www.w3.org/1999/02/22-rdf-syntax-ns#">
   <cc:Work>
    <dc:type rdf:resource="http://purl.org/dc/dcmitype/StillImage"/>
    <dc:date>2022-07-16T17:53:47.341346</dc:date>
    <dc:format>image/svg+xml</dc:format>
    <dc:creator>
     <cc:Agent>
      <dc:title>Matplotlib v3.3.2, https://matplotlib.org/</dc:title>
     </cc:Agent>
    </dc:creator>
   </cc:Work>
  </rdf:RDF>
 </metadata>
 <defs>
  <style type="text/css">*{stroke-linecap:butt;stroke-linejoin:round;}</style>
 </defs>
 <g id="figure_1">
  <g id="patch_1">
   <path d="M 0 345.6 
L 460.8 345.6 
L 460.8 0 
L 0 0 
z
" style="fill:#ffffff;"/>
  </g>
  <g id="axes_1">
   <g id="patch_2">
    <path d="M 57.6 307.584 
L 414.72 307.584 
L 414.72 41.472 
L 57.6 41.472 
z
" style="fill:#ffffff;"/>
   </g>
   <g id="matplotlib.axis_1">
    <g id="xtick_1">
     <g id="line2d_1">
      <defs>
       <path d="M 0 0 
L 0 3.5 
" id="m7fd022bead" style="stroke:#000000;stroke-width:0.8;"/>
      </defs>
      <g>
       <use style="stroke:#000000;stroke-width:0.8;" x="72.031759" xlink:href="#m7fd022bead" y="307.584"/>
      </g>
     </g>
     <g id="text_1">
      <!-- 5 -->
      <g transform="translate(68.850509 322.182437)scale(0.1 -0.1)">
       <defs>
        <path d="M 10.796875 72.90625 
L 49.515625 72.90625 
L 49.515625 64.59375 
L 19.828125 64.59375 
L 19.828125 46.734375 
Q 21.96875 47.46875 24.109375 47.828125 
Q 26.265625 48.1875 28.421875 48.1875 
Q 40.625 48.1875 47.75 41.5 
Q 54.890625 34.8125 54.890625 23.390625 
Q 54.890625 11.625 47.5625 5.09375 
Q 40.234375 -1.421875 26.90625 -1.421875 
Q 22.3125 -1.421875 17.546875 -0.640625 
Q 12.796875 0.140625 7.71875 1.703125 
L 7.71875 11.625 
Q 12.109375 9.234375 16.796875 8.0625 
Q 21.484375 6.890625 26.703125 6.890625 
Q 35.15625 6.890625 40.078125 11.328125 
Q 45.015625 15.765625 45.015625 23.390625 
Q 45.015625 31 40.078125 35.4375 
Q 35.15625 39.890625 26.703125 39.890625 
Q 22.75 39.890625 18.8125 39.015625 
Q 14.890625 38.140625 10.796875 36.28125 
z
" id="DejaVuSans-53"/>
       </defs>
       <use xlink:href="#DejaVuSans-53"/>
      </g>
     </g>
    </g>
    <g id="xtick_2">
     <g id="line2d_2">
      <g>
       <use style="stroke:#000000;stroke-width:0.8;" x="132.064034" xlink:href="#m7fd022bead" y="307.584"/>
      </g>
     </g>
     <g id="text_2">
      <!-- 10 -->
      <g transform="translate(125.701534 322.182437)scale(0.1 -0.1)">
       <defs>
        <path d="M 12.40625 8.296875 
L 28.515625 8.296875 
L 28.515625 63.921875 
L 10.984375 60.40625 
L 10.984375 69.390625 
L 28.421875 72.90625 
L 38.28125 72.90625 
L 38.28125 8.296875 
L 54.390625 8.296875 
L 54.390625 0 
L 12.40625 0 
z
" id="DejaVuSans-49"/>
        <path d="M 31.78125 66.40625 
Q 24.171875 66.40625 20.328125 58.90625 
Q 16.5 51.421875 16.5 36.375 
Q 16.5 21.390625 20.328125 13.890625 
Q 24.171875 6.390625 31.78125 6.390625 
Q 39.453125 6.390625 43.28125 13.890625 
Q 47.125 21.390625 47.125 36.375 
Q 47.125 51.421875 43.28125 58.90625 
Q 39.453125 66.40625 31.78125 66.40625 
z
M 31.78125 74.21875 
Q 44.046875 74.21875 50.515625 64.515625 
Q 56.984375 54.828125 56.984375 36.375 
Q 56.984375 17.96875 50.515625 8.265625 
Q 44.046875 -1.421875 31.78125 -1.421875 
Q 19.53125 -1.421875 13.0625 8.265625 
Q 6.59375 17.96875 6.59375 36.375 
Q 6.59375 54.828125 13.0625 64.515625 
Q 19.53125 74.21875 31.78125 74.21875 
z
" id="DejaVuSans-48"/>
       </defs>
       <use xlink:href="#DejaVuSans-49"/>
       <use x="63.623047" xlink:href="#DejaVuSans-48"/>
      </g>
     </g>
    </g>
    <g id="xtick_3">
     <g id="line2d_3">
      <g>
       <use style="stroke:#000000;stroke-width:0.8;" x="192.09631" xlink:href="#m7fd022bead" y="307.584"/>
      </g>
     </g>
     <g id="text_3">
      <!-- 15 -->
      <g transform="translate(185.73381 322.182437)scale(0.1 -0.1)">
       <use xlink:href="#DejaVuSans-49"/>
       <use x="63.623047" xlink:href="#DejaVuSans-53"/>
      </g>
     </g>
    </g>
    <g id="xtick_4">
     <g id="line2d_4">
      <g>
       <use style="stroke:#000000;stroke-width:0.8;" x="252.128585" xlink:href="#m7fd022bead" y="307.584"/>
      </g>
     </g>
     <g id="text_4">
      <!-- 20 -->
      <g transform="translate(245.766085 322.182437)scale(0.1 -0.1)">
       <defs>
        <path d="M 19.1875 8.296875 
L 53.609375 8.296875 
L 53.609375 0 
L 7.328125 0 
L 7.328125 8.296875 
Q 12.9375 14.109375 22.625 23.890625 
Q 32.328125 33.6875 34.8125 36.53125 
Q 39.546875 41.84375 41.421875 45.53125 
Q 43.3125 49.21875 43.3125 52.78125 
Q 43.3125 58.59375 39.234375 62.25 
Q 35.15625 65.921875 28.609375 65.921875 
Q 23.96875 65.921875 18.8125 64.3125 
Q 13.671875 62.703125 7.8125 59.421875 
L 7.8125 69.390625 
Q 13.765625 71.78125 18.9375 73 
Q 24.125 74.21875 28.421875 74.21875 
Q 39.75 74.21875 46.484375 68.546875 
Q 53.21875 62.890625 53.21875 53.421875 
Q 53.21875 48.921875 51.53125 44.890625 
Q 49.859375 40.875 45.40625 35.40625 
Q 44.1875 33.984375 37.640625 27.21875 
Q 31.109375 20.453125 19.1875 8.296875 
z
" id="DejaVuSans-50"/>
       </defs>
       <use xlink:href="#DejaVuSans-50"/>
       <use x="63.623047" xlink:href="#DejaVuSans-48"/>
      </g>
     </g>
    </g>
    <g id="xtick_5">
     <g id="line2d_5">
      <g>
       <use style="stroke:#000000;stroke-width:0.8;" x="312.160861" xlink:href="#m7fd022bead" y="307.584"/>
      </g>
     </g>
     <g id="text_5">
      <!-- 25 -->
      <g transform="translate(305.798361 322.182437)scale(0.1 -0.1)">
       <use xlink:href="#DejaVuSans-50"/>
       <use x="63.623047" xlink:href="#DejaVuSans-53"/>
      </g>
     </g>
    </g>
    <g id="xtick_6">
     <g id="line2d_6">
      <g>
       <use style="stroke:#000000;stroke-width:0.8;" x="372.193136" xlink:href="#m7fd022bead" y="307.584"/>
      </g>
     </g>
     <g id="text_6">
      <!-- 30 -->
      <g transform="translate(365.830636 322.182437)scale(0.1 -0.1)">
       <defs>
        <path d="M 40.578125 39.3125 
Q 47.65625 37.796875 51.625 33 
Q 55.609375 28.21875 55.609375 21.1875 
Q 55.609375 10.40625 48.1875 4.484375 
Q 40.765625 -1.421875 27.09375 -1.421875 
Q 22.515625 -1.421875 17.65625 -0.515625 
Q 12.796875 0.390625 7.625 2.203125 
L 7.625 11.71875 
Q 11.71875 9.328125 16.59375 8.109375 
Q 21.484375 6.890625 26.8125 6.890625 
Q 36.078125 6.890625 40.9375 10.546875 
Q 45.796875 14.203125 45.796875 21.1875 
Q 45.796875 27.640625 41.28125 31.265625 
Q 36.765625 34.90625 28.71875 34.90625 
L 20.21875 34.90625 
L 20.21875 43.015625 
L 29.109375 43.015625 
Q 36.375 43.015625 40.234375 45.921875 
Q 44.09375 48.828125 44.09375 54.296875 
Q 44.09375 59.90625 40.109375 62.90625 
Q 36.140625 65.921875 28.71875 65.921875 
Q 24.65625 65.921875 20.015625 65.03125 
Q 15.375 64.15625 9.8125 62.3125 
L 9.8125 71.09375 
Q 15.4375 72.65625 20.34375 73.4375 
Q 25.25 74.21875 29.59375 74.21875 
Q 40.828125 74.21875 47.359375 69.109375 
Q 53.90625 64.015625 53.90625 55.328125 
Q 53.90625 49.265625 50.4375 45.09375 
Q 46.96875 40.921875 40.578125 39.3125 
z
" id="DejaVuSans-51"/>
       </defs>
       <use xlink:href="#DejaVuSans-51"/>
       <use x="63.623047" xlink:href="#DejaVuSans-48"/>
      </g>
     </g>
    </g>
    <g id="text_7">
     <!-- temperature from Aeris -->
     <g transform="translate(177.464687 335.860562)scale(0.1 -0.1)">
      <defs>
       <path d="M 18.3125 70.21875 
L 18.3125 54.6875 
L 36.8125 54.6875 
L 36.8125 47.703125 
L 18.3125 47.703125 
L 18.3125 18.015625 
Q 18.3125 11.328125 20.140625 9.421875 
Q 21.96875 7.515625 27.59375 7.515625 
L 36.8125 7.515625 
L 36.8125 0 
L 27.59375 0 
Q 17.1875 0 13.234375 3.875 
Q 9.28125 7.765625 9.28125 18.015625 
L 9.28125 47.703125 
L 2.6875 47.703125 
L 2.6875 54.6875 
L 9.28125 54.6875 
L 9.28125 70.21875 
z
" id="DejaVuSans-116"/>
       <path d="M 56.203125 29.59375 
L 56.203125 25.203125 
L 14.890625 25.203125 
Q 15.484375 15.921875 20.484375 11.0625 
Q 25.484375 6.203125 34.421875 6.203125 
Q 39.59375 6.203125 44.453125 7.46875 
Q 49.3125 8.734375 54.109375 11.28125 
L 54.109375 2.78125 
Q 49.265625 0.734375 44.1875 -0.34375 
Q 39.109375 -1.421875 33.890625 -1.421875 
Q 20.796875 -1.421875 13.15625 6.1875 
Q 5.515625 13.8125 5.515625 26.8125 
Q 5.515625 40.234375 12.765625 48.109375 
Q 20.015625 56 32.328125 56 
Q 43.359375 56 49.78125 48.890625 
Q 56.203125 41.796875 56.203125 29.59375 
z
M 47.21875 32.234375 
Q 47.125 39.59375 43.09375 43.984375 
Q 39.0625 48.390625 32.421875 48.390625 
Q 24.90625 48.390625 20.390625 44.140625 
Q 15.875 39.890625 15.1875 32.171875 
z
" id="DejaVuSans-101"/>
       <path d="M 52 44.1875 
Q 55.375 50.25 60.0625 53.125 
Q 64.75 56 71.09375 56 
Q 79.640625 56 84.28125 50.015625 
Q 88.921875 44.046875 88.921875 33.015625 
L 88.921875 0 
L 79.890625 0 
L 79.890625 32.71875 
Q 79.890625 40.578125 77.09375 44.375 
Q 74.3125 48.1875 68.609375 48.1875 
Q 61.625 48.1875 57.5625 43.546875 
Q 53.515625 38.921875 53.515625 30.90625 
L 53.515625 0 
L 44.484375 0 
L 44.484375 32.71875 
Q 44.484375 40.625 41.703125 44.40625 
Q 38.921875 48.1875 33.109375 48.1875 
Q 26.21875 48.1875 22.15625 43.53125 
Q 18.109375 38.875 18.109375 30.90625 
L 18.109375 0 
L 9.078125 0 
L 9.078125 54.6875 
L 18.109375 54.6875 
L 18.109375 46.1875 
Q 21.1875 51.21875 25.484375 53.609375 
Q 29.78125 56 35.6875 56 
Q 41.65625 56 45.828125 52.96875 
Q 50 49.953125 52 44.1875 
z
" id="DejaVuSans-109"/>
       <path d="M 18.109375 8.203125 
L 18.109375 -20.796875 
L 9.078125 -20.796875 
L 9.078125 54.6875 
L 18.109375 54.6875 
L 18.109375 46.390625 
Q 20.953125 51.265625 25.265625 53.625 
Q 29.59375 56 35.59375 56 
Q 45.5625 56 51.78125 48.09375 
Q 58.015625 40.1875 58.015625 27.296875 
Q 58.015625 14.40625 51.78125 6.484375 
Q 45.5625 -1.421875 35.59375 -1.421875 
Q 29.59375 -1.421875 25.265625 0.953125 
Q 20.953125 3.328125 18.109375 8.203125 
z
M 48.6875 27.296875 
Q 48.6875 37.203125 44.609375 42.84375 
Q 40.53125 48.484375 33.40625 48.484375 
Q 26.265625 48.484375 22.1875 42.84375 
Q 18.109375 37.203125 18.109375 27.296875 
Q 18.109375 17.390625 22.1875 11.75 
Q 26.265625 6.109375 33.40625 6.109375 
Q 40.53125 6.109375 44.609375 11.75 
Q 48.6875 17.390625 48.6875 27.296875 
z
" id="DejaVuSans-112"/>
       <path d="M 41.109375 46.296875 
Q 39.59375 47.171875 37.8125 47.578125 
Q 36.03125 48 33.890625 48 
Q 26.265625 48 22.1875 43.046875 
Q 18.109375 38.09375 18.109375 28.8125 
L 18.109375 0 
L 9.078125 0 
L 9.078125 54.6875 
L 18.109375 54.6875 
L 18.109375 46.1875 
Q 20.953125 51.171875 25.484375 53.578125 
Q 30.03125 56 36.53125 56 
Q 37.453125 56 38.578125 55.875 
Q 39.703125 55.765625 41.0625 55.515625 
z
" id="DejaVuSans-114"/>
       <path d="M 34.28125 27.484375 
Q 23.390625 27.484375 19.1875 25 
Q 14.984375 22.515625 14.984375 16.5 
Q 14.984375 11.71875 18.140625 8.90625 
Q 21.296875 6.109375 26.703125 6.109375 
Q 34.1875 6.109375 38.703125 11.40625 
Q 43.21875 16.703125 43.21875 25.484375 
L 43.21875 27.484375 
z
M 52.203125 31.203125 
L 52.203125 0 
L 43.21875 0 
L 43.21875 8.296875 
Q 40.140625 3.328125 35.546875 0.953125 
Q 30.953125 -1.421875 24.3125 -1.421875 
Q 15.921875 -1.421875 10.953125 3.296875 
Q 6 8.015625 6 15.921875 
Q 6 25.140625 12.171875 29.828125 
Q 18.359375 34.515625 30.609375 34.515625 
L 43.21875 34.515625 
L 43.21875 35.40625 
Q 43.21875 41.609375 39.140625 45 
Q 35.0625 48.390625 27.6875 48.390625 
Q 23 48.390625 18.546875 47.265625 
Q 14.109375 46.140625 10.015625 43.890625 
L 10.015625 52.203125 
Q 14.9375 54.109375 19.578125 55.046875 
Q 24.21875 56 28.609375 56 
Q 40.484375 56 46.34375 49.84375 
Q 52.203125 43.703125 52.203125 31.203125 
z
" id="DejaVuSans-97"/>
       <path d="M 8.5 21.578125 
L 8.5 54.6875 
L 17.484375 54.6875 
L 17.484375 21.921875 
Q 17.484375 14.15625 20.5 10.265625 
Q 23.53125 6.390625 29.59375 6.390625 
Q 36.859375 6.390625 41.078125 11.03125 
Q 45.3125 15.671875 45.3125 23.6875 
L 45.3125 54.6875 
L 54.296875 54.6875 
L 54.296875 0 
L 45.3125 0 
L 45.3125 8.40625 
Q 42.046875 3.421875 37.71875 1 
Q 33.40625 -1.421875 27.6875 -1.421875 
Q 18.265625 -1.421875 13.375 4.4375 
Q 8.5 10.296875 8.5 21.578125 
z
M 31.109375 56 
z
" id="DejaVuSans-117"/>
       <path id="DejaVuSans-32"/>
       <path d="M 37.109375 75.984375 
L 37.109375 68.5 
L 28.515625 68.5 
Q 23.6875 68.5 21.796875 66.546875 
Q 19.921875 64.59375 19.921875 59.515625 
L 19.921875 54.6875 
L 34.71875 54.6875 
L 34.71875 47.703125 
L 19.921875 47.703125 
L 19.921875 0 
L 10.890625 0 
L 10.890625 47.703125 
L 2.296875 47.703125 
L 2.296875 54.6875 
L 10.890625 54.6875 
L 10.890625 58.5 
Q 10.890625 67.625 15.140625 71.796875 
Q 19.390625 75.984375 28.609375 75.984375 
z
" id="DejaVuSans-102"/>
       <path d="M 30.609375 48.390625 
Q 23.390625 48.390625 19.1875 42.75 
Q 14.984375 37.109375 14.984375 27.296875 
Q 14.984375 17.484375 19.15625 11.84375 
Q 23.34375 6.203125 30.609375 6.203125 
Q 37.796875 6.203125 41.984375 11.859375 
Q 46.1875 17.53125 46.1875 27.296875 
Q 46.1875 37.015625 41.984375 42.703125 
Q 37.796875 48.390625 30.609375 48.390625 
z
M 30.609375 56 
Q 42.328125 56 49.015625 48.375 
Q 55.71875 40.765625 55.71875 27.296875 
Q 55.71875 13.875 49.015625 6.21875 
Q 42.328125 -1.421875 30.609375 -1.421875 
Q 18.84375 -1.421875 12.171875 6.21875 
Q 5.515625 13.875 5.515625 27.296875 
Q 5.515625 40.765625 12.171875 48.375 
Q 18.84375 56 30.609375 56 
z
" id="DejaVuSans-111"/>
       <path d="M 34.1875 63.1875 
L 20.796875 26.90625 
L 47.609375 26.90625 
z
M 28.609375 72.90625 
L 39.796875 72.90625 
L 67.578125 0 
L 57.328125 0 
L 50.6875 18.703125 
L 17.828125 18.703125 
L 11.1875 0 
L 0.78125 0 
z
" id="DejaVuSans-65"/>
       <path d="M 9.421875 54.6875 
L 18.40625 54.6875 
L 18.40625 0 
L 9.421875 0 
z
M 9.421875 75.984375 
L 18.40625 75.984375 
L 18.40625 64.59375 
L 9.421875 64.59375 
z
" id="DejaVuSans-105"/>
       <path d="M 44.28125 53.078125 
L 44.28125 44.578125 
Q 40.484375 46.53125 36.375 47.5 
Q 32.28125 48.484375 27.875 48.484375 
Q 21.1875 48.484375 17.84375 46.4375 
Q 14.5 44.390625 14.5 40.28125 
Q 14.5 37.15625 16.890625 35.375 
Q 19.28125 33.59375 26.515625 31.984375 
L 29.59375 31.296875 
Q 39.15625 29.25 43.1875 25.515625 
Q 47.21875 21.78125 47.21875 15.09375 
Q 47.21875 7.46875 41.1875 3.015625 
Q 35.15625 -1.421875 24.609375 -1.421875 
Q 20.21875 -1.421875 15.453125 -0.5625 
Q 10.6875 0.296875 5.421875 2 
L 5.421875 11.28125 
Q 10.40625 8.6875 15.234375 7.390625 
Q 20.0625 6.109375 24.8125 6.109375 
Q 31.15625 6.109375 34.5625 8.28125 
Q 37.984375 10.453125 37.984375 14.40625 
Q 37.984375 18.0625 35.515625 20.015625 
Q 33.0625 21.96875 24.703125 23.78125 
L 21.578125 24.515625 
Q 13.234375 26.265625 9.515625 29.90625 
Q 5.8125 33.546875 5.8125 39.890625 
Q 5.8125 47.609375 11.28125 51.796875 
Q 16.75 56 26.8125 56 
Q 31.78125 56 36.171875 55.265625 
Q 40.578125 54.546875 44.28125 53.078125 
z
" id="DejaVuSans-115"/>
      </defs>
      <use xlink:href="#DejaVuSans-116"/>
      <use x="39.208984" xlink:href="#DejaVuSans-101"/>
      <use x="100.732422" xlink:href="#DejaVuSans-109"/>
      <use x="198.144531" xlink:href="#DejaVuSans-112"/>
      <use x="261.621094" xlink:href="#DejaVuSans-101"/>
      <use x="323.144531" xlink:href="#DejaVuSans-114"/>
      <use x="364.257812" xlink:href="#DejaVuSans-97"/>
      <use x="425.537109" xlink:href="#DejaVuSans-116"/>
      <use x="464.746094" xlink:href="#DejaVuSans-117"/>
      <use x="528.125" xlink:href="#DejaVuSans-114"/>
      <use x="566.988281" xlink:href="#DejaVuSans-101"/>
      <use x="628.511719" xlink:href="#DejaVuSans-32"/>
      <use x="660.298828" xlink:href="#DejaVuSans-102"/>
      <use x="695.503906" xlink:href="#DejaVuSans-114"/>
      <use x="734.367188" xlink:href="#DejaVuSans-111"/>
      <use x="795.548828" xlink:href="#DejaVuSans-109"/>
      <use x="892.960938" xlink:href="#DejaVuSans-32"/>
      <use x="924.748047" xlink:href="#DejaVuSans-65"/>
      <use x="991.40625" xlink:href="#DejaVuSans-101"/>
      <use x="1052.929688" xlink:href="#DejaVuSans-114"/>
      <use x="1094.042969" xlink:href="#DejaVuSans-105"/>
      <use x="1121.826172" xlink:href="#DejaVuSans-115"/>
     </g>
    </g>
   </g>
   <g id="matplotlib.axis_2">
    <g id="ytick_1">
     <g id="line2d_7">
      <defs>
       <path d="M 0 0 
L -3.5 0 
" id="m3e64bd524b" style="stroke:#000000;stroke-width:0.8;"/>
      </defs>
      <g>
       <use style="stroke:#000000;stroke-width:0.8;" x="57.6" xlink:href="#m3e64bd524b" y="266.783351"/>
      </g>
     </g>
     <g id="text_8">
      <!-- 10 -->
      <g transform="translate(37.875 270.58257)scale(0.1 -0.1)">
       <use xlink:href="#DejaVuSans-49"/>
       <use x="63.623047" xlink:href="#DejaVuSans-48"/>
      </g>
     </g>
    </g>
    <g id="ytick_2">
     <g id="line2d_8">
      <g>
       <use style="stroke:#000000;stroke-width:0.8;" x="57.6" xlink:href="#m3e64bd524b" y="208.404973"/>
      </g>
     </g>
     <g id="text_9">
      <!-- 20 -->
      <g transform="translate(37.875 212.204192)scale(0.1 -0.1)">
       <use xlink:href="#DejaVuSans-50"/>
       <use x="63.623047" xlink:href="#DejaVuSans-48"/>
      </g>
     </g>
    </g>
    <g id="ytick_3">
     <g id="line2d_9">
      <g>
       <use style="stroke:#000000;stroke-width:0.8;" x="57.6" xlink:href="#m3e64bd524b" y="150.026595"/>
      </g>
     </g>
     <g id="text_10">
      <!-- 30 -->
      <g transform="translate(37.875 153.825813)scale(0.1 -0.1)">
       <use xlink:href="#DejaVuSans-51"/>
       <use x="63.623047" xlink:href="#DejaVuSans-48"/>
      </g>
     </g>
    </g>
    <g id="ytick_4">
     <g id="line2d_10">
      <g>
       <use style="stroke:#000000;stroke-width:0.8;" x="57.6" xlink:href="#m3e64bd524b" y="91.648216"/>
      </g>
     </g>
     <g id="text_11">
      <!-- 40 -->
      <g transform="translate(37.875 95.447435)scale(0.1 -0.1)">
       <defs>
        <path d="M 37.796875 64.3125 
L 12.890625 25.390625 
L 37.796875 25.390625 
z
M 35.203125 72.90625 
L 47.609375 72.90625 
L 47.609375 25.390625 
L 58.015625 25.390625 
L 58.015625 17.1875 
L 47.609375 17.1875 
L 47.609375 0 
L 37.796875 0 
L 37.796875 17.1875 
L 4.890625 17.1875 
L 4.890625 26.703125 
z
" id="DejaVuSans-52"/>
       </defs>
       <use xlink:href="#DejaVuSans-52"/>
       <use x="63.623047" xlink:href="#DejaVuSans-48"/>
      </g>
     </g>
    </g>
   </g>
   <g id="line2d_11">
    <path clip-path="url(#p0b0fc93a7f)" d="M 73.832727 284.238486 
L 73.952792 288.727784 
L 74.072856 286.486054 
L 74.192921 290.245622 
L 74.312985 281.124 
L 74.43305 285.549081 
L 74.553115 285.838054 
L 74.673179 289.294054 
L 75.033373 291.582486 
L 76.234018 290.555027 
L 77.434664 288.92627 
L 77.674793 269.375351 
L 77.914922 290.344865 
L 78.275116 188.451243 
L 78.635309 287.63027 
L 78.875438 276.015892 
L 79.115568 286.894703 
L 79.475761 287.583568 
L 79.595826 290.975351 
L 79.71589 286.526919 
L 79.835955 286.999784 
L 79.956019 285.009081 
L 80.316213 286.885946 
L 80.796471 286.716649 
L 80.916536 287.455135 
L 81.156665 289.769838 
L 81.276729 266.208324 
L 81.636923 277.075459 
L 81.877052 287.828757 
L 82.957633 290.134703 
L 83.798085 291.115459 
L 84.158279 287.787892 
L 84.878666 288.038919 
L 84.998731 288.698595 
L 85.118795 278.377297 
L 85.23886 286.894703 
L 85.599053 284.845622 
L 85.839182 289.609297 
L 86.199376 282.164108 
L 86.319441 289.720216 
L 86.439505 274.230486 
L 86.55957 284.247243 
L 86.679634 278.118097 
L 86.799699 279.714162 
L 86.919763 288.227676 
L 87.279957 266.026378 
L 87.520086 278.313081 
L 87.640151 243.770595 
L 87.760215 287.122378 
L 87.88028 268.371243 
L 88.120409 264.693405 
L 88.240473 292.703351 
L 88.600667 290.800216 
L 89.080925 289.083892 
L 89.321054 282.358703 
L 89.681248 276.503351 
L 89.801313 287.256649 
L 90.041442 287.081514 
L 90.281571 285.283459 
L 90.401635 285.829297 
L 90.5217 289.267784 
L 90.641764 285.859459 
L 90.761829 290.193081 
L 91.001958 283.5 
L 91.122023 293.123676 
L 91.242087 285.779676 
L 91.362152 285.546162 
L 91.482216 290.315676 
L 91.722345 274.679027 
L 91.84241 251.635622 
L 91.962474 288.640216 
L 92.322668 284.654141 
L 92.442733 273.070703 
L 92.802926 284.162595 
L 92.922991 284.107135 
L 93.16312 279.515676 
L 93.283185 281.585189 
L 93.403249 274.676108 
L 93.763443 279.959351 
L 93.883507 289.130595 
L 94.003572 287.811243 
L 94.603895 289.238595 
L 94.964088 285.009081 
L 95.084153 287.998054 
L 95.204217 285.233838 
L 95.444346 290.350703 
L 95.564411 278.686703 
L 95.684476 277.851892 
L 95.924605 288.336649 
L 96.044669 263.050054 
L 96.164734 286.112432 
L 96.404863 281.856649 
L 96.524927 282.81739 
L 96.644992 288.721946 
L 96.765056 275.942919 
L 97.005186 230.366919 
L 97.245315 286.416 
L 97.365379 279.494659 
L 97.485444 283.803568 
L 97.605508 276.394768 
L 97.725573 288.479676 
L 97.845637 288.06227 
L 98.085767 258.497124 
L 98.205831 281.233946 
L 98.44596 284.425297 
L 98.566025 273.470595 
L 98.806154 278.248865 
L 100.607122 287.367568 
L 100.967316 288.330811 
L 101.687703 278.961081 
L 102.288026 281.920865 
L 102.528155 290.198919 
L 102.648219 281.950054 
L 102.768284 285.747568 
L 102.888349 168.799914 
L 103.008413 261.254919 
L 103.128478 199.531459 
L 103.248542 281.771027 
L 103.488671 276.153081 
L 103.608736 268.855784 
L 103.848865 279.293838 
L 103.96893 265.828865 
L 104.088994 287.408432 
L 104.209059 267.355459 
L 104.569252 284.82227 
L 104.689317 278.359784 
L 104.809381 285.003243 
L 105.169575 281.669838 
L 105.529769 288.780324 
L 105.889962 287.437622 
L 106.250156 268.044324 
L 106.370221 284.495351 
L 106.61035 273.333405 
L 106.970543 290.368216 
L 107.090608 283.362811 
L 107.210672 284.343568 
L 107.330737 243.986595 
L 107.450802 292.411459 
L 107.570866 276.821514 
L 107.690931 276.439135 
L 107.810995 234.987568 
L 107.93106 282.24278 
L 108.051124 275.224865 
L 108.171189 278.143784 
L 108.291253 253.177297 
L 108.411318 277.452584 
L 108.531382 267.568124 
L 108.651447 286.586757 
L 108.771512 266.77693 
L 108.891576 285.458595 
L 109.131705 278.561189 
L 109.25177 289.048865 
L 109.371834 280.787157 
L 109.491899 263.595892 
L 109.611963 284.213676 
L 109.852093 286.386811 
L 110.092222 276.363243 
L 110.212286 284.483676 
L 110.332351 279.813405 
L 110.452415 211.093297 
L 110.692544 288.342486 
L 110.812609 240.772865 
L 110.932673 269.18387 
L 111.052738 268.683343 
L 111.172803 285.775297 
L 111.292867 261.149838 
L 111.412932 284.882595 
L 111.532996 251.260541 
L 111.653061 284.617946 
L 111.773125 284.904 
L 111.89319 258.461514 
L 112.013254 283.593405 
L 112.133319 282.052216 
L 112.253384 287.618595 
L 112.373448 287.75773 
L 112.613577 284.872865 
L 112.733642 285.986919 
L 112.853706 289.083892 
L 112.973771 278.939189 
L 113.093835 285.347676 
L 113.2139 280.157838 
L 113.333964 290.047135 
L 113.454029 266.771676 
L 113.574094 286.818811 
L 113.814223 280.560649 
L 113.934287 247.926162 
L 114.054352 290.120108 
L 114.174416 276.42329 
L 114.414545 284.705514 
L 114.53461 269.062054 
L 114.654675 281.520973 
L 114.774739 275.281297 
L 114.894804 279.645568 
L 115.014868 261.159178 
L 115.134933 275.718162 
L 115.254997 239.278378 
L 115.375062 280.245405 
L 115.495126 272.463568 
L 115.615191 251.645838 
L 115.735256 281.016 
L 115.975385 278.556324 
L 116.095449 271.582054 
L 116.215514 282.705081 
L 116.575707 275.116865 
L 116.695772 277.982659 
L 116.935901 125.166162 
L 117.055966 282.151459 
L 117.17603 283.195459 
L 117.296095 288.048649 
L 117.536224 271.475027 
L 117.776353 286.783784 
L 117.896417 276.526703 
L 118.016482 243.665514 
L 118.136547 273.648649 
L 118.49674 288.088541 
L 118.736869 284.828108 
L 118.976998 285.030486 
L 119.097063 280.408865 
L 119.217127 282.559135 
L 119.337192 282.341189 
L 119.457257 287.877405 
L 119.577321 242.315514 
L 119.697386 285.209514 
L 119.81745 260.723676 
L 119.937515 287.749946 
L 120.057579 270.353773 
L 120.177644 289.148108 
L 120.417773 285.067459 
L 120.537838 225.352216 
L 120.777967 289.836973 
L 121.018096 289.702703 
L 121.13816 284.415568 
L 121.258225 285.184216 
L 121.378289 290.391568 
L 121.498354 289.588865 
L 121.618419 286.482551 
L 121.858548 262.891459 
L 121.978612 283.574919 
L 122.098677 282.80627 
L 122.218741 229.799481 
L 122.338806 284.026378 
L 122.578935 274.439092 
L 122.698999 281.503459 
L 122.819064 281.746897 
L 122.939129 264.894227 
L 123.179258 289.047405 
L 123.299322 274.362811 
L 123.659516 285.616216 
L 123.77958 288.478703 
L 123.899645 286.530811 
L 124.01971 287.548541 
L 124.259839 282.619459 
L 124.499968 287.583568 
L 124.740097 289.556757 
L 124.860161 249.544216 
L 124.980226 288.920432 
L 125.34042 284.905946 
L 125.580549 284.954205 
L 125.700613 284.384432 
L 125.820678 273.613622 
L 125.940742 216.18973 
L 126.060807 276.033405 
L 126.180871 233.131135 
L 126.300936 286.01027 
L 126.421001 274.464 
L 126.541065 285.861405 
L 126.66113 284.787243 
L 126.781194 282.669568 
L 126.901259 283.586595 
L 127.021323 273.96973 
L 127.141388 281.223827 
L 127.261452 276.610934 
L 127.381517 266.041946 
L 127.501581 285.302919 
L 127.621646 283.18067 
L 127.741711 272.506378 
L 127.861775 287.974703 
L 127.98184 207.811181 
L 128.101904 280.301595 
L 128.221969 282.468324 
L 128.342033 281.835243 
L 128.462098 272.270085 
L 128.702227 283.489297 
L 128.822292 282.464757 
L 128.942356 270.368562 
L 129.062421 278.381968 
L 129.182485 275.75027 
L 129.422614 288.169297 
L 129.662743 273.637807 
L 129.782808 208.562595 
L 130.022937 289.349514 
L 130.143002 283.504865 
L 130.263066 265.715027 
L 130.383131 289.309622 
L 130.503195 252.49427 
L 130.62326 263.893622 
L 130.743324 290.665946 
L 130.983453 283.619676 
L 131.103518 285.211459 
L 131.223583 277.157189 
L 131.343647 283.132216 
L 131.463712 277.812195 
L 131.583776 283.140973 
L 131.703841 270.50122 
L 131.823905 287.938216 
L 131.94397 279.833838 
L 132.064034 279.664541 
L 132.184099 285.653189 
L 132.304164 282.762973 
L 132.424228 267.384649 
L 132.664357 266.595081 
L 132.784422 283.815243 
L 133.024551 262.739676 
L 133.144615 282.452108 
L 133.384744 273.818676 
L 133.504809 273.109232 
L 133.624874 279.559459 
L 133.865003 263.919892 
L 133.985067 280.565514 
L 134.105132 258.12834 
L 134.225196 279.27827 
L 134.465325 282.096 
L 134.58539 261.662734 
L 134.705455 285.153081 
L 134.825519 246.774162 
L 134.945584 272.427081 
L 135.065648 265.425081 
L 135.185713 284.066854 
L 135.305777 280.252216 
L 135.425842 269.014378 
L 135.545906 284.161427 
L 135.665971 275.39027 
L 135.9061 284.752216 
L 136.026165 285.206108 
L 136.146229 283.082595 
L 136.266294 287.265405 
L 136.386358 271.434162 
L 136.506423 279.046703 
L 136.626487 255.025946 
L 136.746552 285.555892 
L 136.866616 262.750378 
L 136.986681 281.872216 
L 137.22681 274.818551 
L 137.346875 283.920324 
L 137.587004 283.197892 
L 137.707068 280.566486 
L 137.827133 233.546595 
L 138.187327 287.749946 
L 138.307391 267.565622 
L 138.427456 274.629405 
L 138.667585 291.856865 
L 138.787649 280.792703 
L 138.907714 285.924162 
L 139.027778 282.55573 
L 139.147843 283.995243 
L 139.267907 278.182703 
L 139.387972 283.523351 
L 139.628101 276.711568 
L 139.748166 284.626703 
L 139.988295 271.598919 
L 140.108359 275.091081 
L 140.228424 284.767395 
L 140.468553 280.415432 
L 140.588618 284.418 
L 140.708682 281.628973 
L 140.828747 284.184778 
L 140.948811 276.039243 
L 141.068876 280.868303 
L 141.18894 279.871784 
L 141.429069 283.38227 
L 141.549134 273.391784 
L 141.669198 279.435892 
L 141.789263 272.798659 
L 141.909328 282.902595 
L 142.149457 270.527528 
L 142.269521 283.347243 
L 142.389586 279.515027 
L 142.50965 281.781924 
L 142.629715 259.459367 
L 142.869844 281.900015 
L 142.989909 225.125514 
L 143.230038 289.369946 
L 143.350102 277.326486 
L 143.470167 283.955768 
L 143.590231 282.232605 
L 143.83036 270.462357 
L 143.950425 282.508541 
L 144.07049 280.445059 
L 144.310619 287.497946 
L 144.430683 279.414486 
L 144.550748 285.361686 
L 144.670812 285.496541 
L 144.790877 283.88413 
L 144.910941 287.19827 
L 145.031006 281.776378 
L 145.15107 281.912108 
L 145.271135 271.4446 
L 145.631329 283.338561 
L 145.751393 286.704973 
L 145.991522 284.061892 
L 146.111587 258.976494 
L 146.351716 284.769281 
L 146.471781 266.132432 
L 146.591845 281.39649 
L 146.71191 282.380386 
L 146.831974 255.286147 
L 146.952039 276.122224 
L 147.072103 277.576346 
L 147.312232 261.492811 
L 147.432297 258.434076 
L 147.552361 287.235632 
L 147.792491 279.186634 
L 148.03262 284.615027 
L 148.152684 283.193514 
L 148.392813 273.868151 
L 148.512878 283.90573 
L 148.632942 280.789992 
L 148.753007 245.711676 
L 148.993136 286.620324 
L 149.113201 282.625297 
L 149.233265 287.688649 
L 149.473394 274.080649 
L 149.713523 282.639892 
L 149.833588 246.430703 
L 150.073717 287.330039 
L 150.193782 287.379243 
L 150.313846 280.871222 
L 150.433911 281.781591 
L 150.553975 285.639568 
L 150.67404 284.129027 
L 150.794104 285.966486 
L 150.914169 282.055135 
L 151.034233 282.665189 
L 151.154298 64.832108 
L 151.274363 280.699297 
L 151.394427 288.383351 
L 151.634556 250.441946 
L 151.754621 276.526703 
L 151.874685 227.008703 
L 151.99475 282.947027 
L 152.114814 191.838857 
L 152.234879 284.574579 
L 152.354944 281.677135 
L 152.475008 275.377179 
L 152.595073 284.318757 
L 152.955266 270.221004 
L 153.075331 279.378486 
L 153.195395 272.425622 
L 153.31546 287.616649 
L 153.435524 282.039081 
L 153.555589 264.496865 
L 153.675654 272.723351 
L 153.795718 267.390486 
L 153.915783 277.71929 
L 154.035847 275.379568 
L 154.275976 287.932378 
L 154.396041 277.13267 
L 154.516105 278.864757 
L 154.63617 275.549838 
L 154.996364 287.815135 
L 155.116428 242.009903 
L 155.356557 286.069622 
L 155.596686 279.223784 
L 155.716751 256.429362 
L 155.836815 281.464346 
L 155.95688 271.4256 
L 156.076945 286.363459 
L 156.317074 273.435568 
L 156.437138 274.298595 
L 156.557203 281.506378 
L 156.677267 278.875849 
L 156.797332 287.595243 
L 156.917396 280.763514 
L 157.037461 256.657205 
L 157.157526 284.058347 
L 157.27759 276.285683 
L 157.397655 286.227892 
L 157.517719 273.449713 
L 157.637784 282.703135 
L 157.757848 256.424108 
L 157.877913 256.4881 
L 157.997977 265.004757 
L 158.118042 255.412077 
L 158.238107 271.077498 
L 158.358171 266.824216 
L 158.478236 242.49461 
L 158.718365 286.204378 
L 158.838429 259.117436 
L 158.958494 268.919027 
L 159.078558 265.360378 
L 159.198623 270.403784 
L 159.318687 282.895784 
L 159.438752 282.294486 
L 159.558817 274.416741 
L 159.678881 280.602681 
L 159.798946 269.927027 
L 159.91901 283.38366 
L 160.039075 264.640865 
L 160.159139 280.980973 
L 160.399268 268.323373 
L 160.759462 281.400324 
L 160.999591 246.866838 
L 161.119656 288.568703 
L 161.23972 286.914162 
L 161.359785 242.359784 
L 161.599914 282.616735 
L 161.719978 247.493968 
L 161.840043 281.091892 
L 161.960108 253.355157 
L 162.080172 279.698595 
L 162.200237 216.083676 
L 162.440366 283.240865 
L 162.56043 282.133529 
L 162.680495 256.952432 
L 162.800559 283.884324 
L 162.920624 199.321297 
L 163.040689 203.100324 
L 163.400882 278.971297 
L 163.520947 271.239081 
L 163.761076 281.331973 
L 163.88114 244.372541 
L 164.001205 280.300281 
L 164.121269 254.395459 
L 164.361399 282.944822 
L 164.481463 287.180027 
L 164.601528 282.265297 
L 164.721592 285.692108 
L 164.841657 249.652216 
L 164.961721 286.124108 
L 165.081786 251.511568 
L 165.321915 284.098378 
L 165.44198 279.228162 
L 165.562044 282.646703 
L 165.682109 267.127784 
L 165.802173 284.358162 
L 165.922238 280.979805 
L 166.042302 285.464432 
L 166.162367 284.972595 
L 166.282431 283.097189 
L 166.402496 284.342838 
L 166.642625 263.237282 
L 166.76269 278.338025 
L 166.882754 277.354216 
L 167.002819 282.2256 
L 167.122883 280.568432 
L 167.242948 250.614876 
L 167.363012 281.971459 
L 167.483077 283.744216 
L 167.723206 272.453059 
L 167.843271 267.896189 
L 167.963335 269.878239 
L 168.0834 223.590023 
L 168.203464 278.838486 
L 168.323529 277.357135 
L 168.443593 247.177557 
L 168.563658 277.19305 
L 168.683722 252.445091 
L 168.923852 280.925097 
L 169.043916 281.82673 
L 169.163981 258.293676 
L 169.284045 285.470801 
L 169.40411 270.738811 
L 169.524174 234.243243 
L 169.644239 278.961081 
L 169.764303 122.596541 
L 169.884368 275.184 
L 170.004432 243.887351 
L 170.124497 285.002076 
L 170.364626 239.710962 
L 170.72482 285.287838 
L 170.844884 286.211676 
L 170.964949 273.619459 
L 171.085013 289.308065 
L 171.205078 260.599784 
L 171.325143 268.685319 
L 171.445207 284.942919 
L 171.565272 217.64627 
L 171.805401 272.956865 
L 171.925465 256.659373 
L 172.04553 278.614703 
L 172.285659 244.115027 
L 172.405724 278.197916 
L 172.525788 218.196973 
L 172.645853 275.264138 
L 172.765917 269.154681 
L 172.885982 287.143784 
L 173.006046 266.497297 
L 173.126111 291.022054 
L 173.36624 253.856043 
L 173.486304 286.715676 
L 173.606369 265.58884 
L 173.726434 264.05027 
L 173.846498 265.638301 
L 173.966563 279.413097 
L 174.086627 260.556324 
L 174.206692 263.557362 
L 174.326756 263.403243 
L 174.446821 265.463166 
L 174.68695 256.170162 
L 174.807015 236.603676 
L 175.047144 281.226162 
L 175.167208 280.462865 
L 175.287273 254.948595 
L 175.527402 284.635459 
L 175.647466 245.441189 
L 175.767531 279.266317 
L 175.887595 269.063611 
L 176.00766 280.603459 
L 176.127725 278.795676 
L 176.247789 264.421362 
L 176.367854 270.048649 
L 176.607983 248.440865 
L 176.728047 288.81827 
L 176.848112 283.212973 
L 176.968176 269.622486 
L 177.088241 274.344519 
L 177.208306 287.534919 
L 177.448435 260.387027 
L 177.568499 279.295297 
L 177.688564 264.333795 
L 177.808628 265.966054 
L 177.928693 278.290459 
L 178.048757 278.523243 
L 178.168822 277.619546 
L 178.408951 282.199413 
L 178.64908 266.846838 
L 178.769145 267.346703 
L 178.889209 274.502919 
L 179.009274 249.573405 
L 179.129338 275.083784 
L 179.249403 265.8528 
L 179.369467 235.111914 
L 179.609597 282.022054 
L 179.729661 246.608757 
L 179.849726 273.600973 
L 180.089855 251.994811 
L 180.329984 272.715178 
L 180.450048 277.525807 
L 180.570113 271.131957 
L 180.690178 278.699838 
L 180.810242 255.961668 
L 180.930307 256.946595 
L 181.050371 272.019243 
L 181.170436 264.659838 
L 181.2905 247.213251 
L 181.410565 280.044486 
L 181.530629 269.764151 
L 181.650694 271.771459 
L 181.890823 279.722919 
L 182.130952 223.783135 
L 182.251017 283.4784 
L 182.371081 284.55373 
L 182.491146 283.688562 
L 182.61121 279.529686 
L 182.731275 254.124 
L 182.851339 282.931784 
L 182.971404 281.050054 
L 183.091469 282.44627 
L 183.211533 252.058865 
L 183.451662 279.918486 
L 183.571727 281.188633 
L 183.691791 258.256216 
L 183.811856 281.677344 
L 183.93192 275.089946 
L 184.051985 276.550054 
L 184.172049 267.739589 
L 184.292114 279.653838 
L 184.412179 275.656031 
L 184.532243 279.322297 
L 184.652308 278.717838 
L 184.772372 281.448834 
L 184.892437 267.330162 
L 185.372695 282.294486 
L 185.49276 279.578432 
L 185.612824 268.261492 
L 185.732889 281.786595 
L 185.852953 281.153773 
L 185.973018 257.128541 
L 186.093082 288.481135 
L 186.213147 268.783784 
L 186.693405 282.314919 
L 186.81347 280.20871 
L 186.933534 285.817622 
L 187.053599 284.739568 
L 187.293728 273.950757 
L 187.413792 242.959135 
L 187.653921 275.190324 
L 188.014115 235.618054 
L 188.254244 277.29613 
L 188.374309 268.708865 
L 188.494373 279.356595 
L 188.614438 269.771351 
L 188.734502 278.352778 
L 188.974632 267.7536 
L 189.094696 279.191481 
L 189.214761 261.125514 
L 189.45489 271.849135 
L 189.574954 278.962332 
L 189.695019 262.471135 
L 189.815083 289.480865 
L 190.055212 280.868108 
L 190.175277 284.361081 
L 190.295342 227.578768 
L 190.535471 274.668973 
L 190.655535 270.031524 
L 190.7756 286.825816 
L 190.895664 282.68173 
L 191.015729 265.933946 
L 191.135793 287.499503 
L 191.375923 281.717375 
L 191.495987 281.982162 
L 191.616052 273.088216 
L 191.736116 282.746502 
L 191.856181 275.385405 
L 192.09631 286.836324 
L 192.216374 286.643676 
L 192.336439 283.133838 
L 192.456503 246.628216 
L 192.576568 288.181946 
L 192.696633 270.290724 
L 192.816697 272.658162 
L 192.936762 283.590486 
L 193.056826 277.289514 
L 193.176891 277.11827 
L 193.296955 288.36 
L 193.41702 224.318919 
L 193.537084 281.039351 
L 193.657149 241.523027 
L 193.897278 281.233168 
L 194.017343 286.534216 
L 194.137407 268.751537 
L 194.257472 272.284346 
L 194.377536 285.907135 
L 194.497601 273.566085 
L 194.617665 285.996405 
L 194.73773 274.938811 
L 194.857795 281.753319 
L 194.977859 274.770973 
L 195.097924 283.730595 
L 195.217988 277.250595 
L 195.338053 242.902216 
L 195.578182 283.475189 
L 195.698246 284.929019 
L 195.818311 283.480541 
L 195.938375 266.472973 
L 196.05844 284.205127 
L 196.178505 279.103784 
L 196.298569 255.983351 
L 196.418634 286.349838 
L 196.538698 278.889081 
L 196.658763 278.492886 
L 196.778827 283.044649 
L 196.898892 268.004919 
L 197.018956 284.372757 
L 197.139021 277.292919 
L 197.259086 281.965232 
L 197.37915 266.592 
L 197.499215 285.325492 
L 197.619279 262.750865 
L 197.859408 279.45613 
L 197.979473 263.790663 
L 198.099537 275.617168 
L 198.219602 268.172757 
L 198.339666 283.697027 
L 198.69986 221.749297 
L 198.819925 282.636584 
L 198.939989 281.374054 
L 199.060054 273.333405 
L 199.300183 283.152649 
L 199.420247 279.676216 
L 199.540312 265.400951 
L 199.660377 281.588108 
L 199.780441 266.916162 
L 199.900506 281.359135 
L 200.02057 277.839382 
L 200.140635 277.743308 
L 200.260699 277.340108 
L 200.380764 278.930432 
L 200.500828 274.563243 
L 200.620893 283.897946 
L 200.740958 275.962378 
L 200.861022 286.126054 
L 200.981087 216.032108 
L 201.101151 284.797459 
L 201.221216 263.125946 
L 201.34128 286.565449 
L 201.461345 283.487351 
L 201.701474 285.012973 
L 201.821538 281.912692 
L 201.941603 287.520519 
L 202.061668 282.24973 
L 202.301797 256.268238 
L 202.421861 282.747892 
L 202.782055 271.595676 
L 202.902119 283.058409 
L 203.022184 276.395935 
L 203.142249 286.248649 
L 203.262313 282.22093 
L 203.502442 261.050011 
L 203.742571 283.622011 
L 203.862636 282.470789 
L 203.9827 280.099459 
L 204.102765 262.340757 
L 204.222829 279.357405 
L 204.342894 271.43027 
L 204.583023 285.881838 
L 204.703088 276.572822 
L 205.063281 287.136 
L 205.30341 282.245538 
L 205.423475 270.478703 
L 205.54354 283.362811 
L 205.663604 283.415351 
L 205.783669 276.763135 
L 205.903733 257.006141 
L 206.023798 283.929081 
L 206.143862 282.067784 
L 206.504056 208.740649 
L 206.62412 276.029319 
L 206.744185 264.103784 
L 206.86425 271.850595 
L 206.984314 260.031308 
L 207.104379 283.687784 
L 207.224443 280.370919 
L 207.344508 242.980151 
L 207.464572 257.102757 
L 207.584637 251.686703 
L 207.704701 281.3184 
L 207.824766 266.07347 
L 207.944831 287.612757 
L 208.064895 270.665514 
L 208.18496 283.302973 
L 208.305024 274.772432 
L 208.425089 280.750378 
L 208.545153 251.279514 
L 208.665218 283.027135 
L 208.785282 281.830378 
L 208.905347 272.469405 
L 209.025412 284.909838 
L 209.265541 262.721189 
L 209.50567 282.132 
L 209.625734 272.393514 
L 209.865863 284.049341 
L 209.985928 282.057789 
L 210.105992 261.798568 
L 210.226057 268.808351 
L 210.346122 259.857553 
L 210.466186 279.541622 
L 210.586251 279.790054 
L 210.706315 253.707892 
L 210.82638 280.733838 
L 210.946444 280.976595 
L 211.186573 275.024432 
L 211.306638 254.180432 
L 211.546767 283.221535 
L 211.666832 276.413838 
L 211.786896 278.187568 
L 211.906961 265.559351 
L 212.027025 282.431676 
L 212.14709 277.176371 
L 212.267154 285.643459 
L 212.387219 261.461578 
L 212.507283 288.435892 
L 212.627348 282.045795 
L 212.747413 255.548432 
L 212.867477 282.80627 
L 212.987542 257.204432 
L 213.227671 287.63027 
L 213.347735 264.96973 
L 213.587864 276.049946 
L 213.707929 282.136865 
L 213.827994 250.673254 
L 214.068123 282.702162 
L 214.188187 255.158548 
L 214.428316 277.702541 
L 214.548381 242.617622 
L 214.78851 281.04227 
L 215.028639 250.066703 
L 215.148704 277.934789 
L 215.268768 277.395707 
L 215.388833 272.902865 
L 215.508897 286.480216 
L 215.628962 283.248556 
L 215.749026 283.419243 
L 215.869091 244.878811 
L 215.989155 278.668022 
L 216.10922 265.677665 
L 216.229285 283.264297 
L 216.349349 257.581946 
L 216.469414 278.010973 
L 216.589478 264.739135 
L 216.709543 285.371861 
L 216.829607 278.424834 
L 216.949672 239.652584 
L 217.069736 286.096865 
L 217.189801 283.907189 
L 217.309866 272.966456 
L 217.42993 285.565135 
L 217.549995 268.176259 
L 217.670059 281.575598 
L 217.790124 266.720303 
L 217.910188 282.761514 
L 218.150317 264.016216 
L 218.390446 285.346842 
L 218.510511 265.916208 
L 218.630576 266.547892 
L 218.75064 269.172973 
L 218.870705 283.276216 
L 219.110834 281.476459 
L 219.230898 274.757838 
L 219.350963 289.216703 
L 219.591092 270.629319 
L 219.831221 283.321946 
L 219.951286 270.342973 
L 220.07135 274.831228 
L 220.191415 265.605568 
L 220.431544 282.079784 
L 220.551608 285.089351 
L 220.671673 276.656595 
L 220.791737 285.543243 
L 220.911802 281.637313 
L 221.031867 283.878876 
L 221.39206 271.05028 
L 221.512125 286.846541 
L 221.752254 269.104216 
L 221.872318 250.091027 
L 221.992383 282.42 
L 222.112448 273.339243 
L 222.232512 235.948541 
L 222.352577 279.495973 
L 222.472641 244.16173 
L 222.592706 281.083135 
L 222.71277 277.281973 
L 222.832835 247.718432 
L 223.072964 276.148911 
L 223.193029 274.600216 
L 223.313093 287.678141 
L 223.433158 270.970249 
L 223.553222 237.200692 
L 223.793351 280.030573 
L 224.153545 253.787157 
L 224.273609 285.048649 
L 224.393674 282.946378 
L 224.513739 272.352649 
L 224.633803 287.824086 
L 224.753868 268.882638 
L 224.873932 285.697946 
L 224.993997 280.282378 
L 225.114061 284.572077 
L 225.234126 283.25773 
L 225.474255 285.903243 
L 225.59432 286.912216 
L 225.714384 271.124514 
L 225.834449 284.223308 
L 226.074578 271.643935 
L 226.314707 260.596541 
L 226.434771 281.628973 
L 226.6749 253.297946 
L 226.794965 279.498162 
L 226.91503 258.495568 
L 227.035094 275.845135 
L 227.155159 272.757795 
L 227.395288 283.410973 
L 227.515352 255.489081 
L 227.755481 278.352778 
L 227.995611 288.146919 
L 228.23574 285.614027 
L 228.355804 285.731514 
L 228.475869 286.169059 
L 228.595933 287.207027 
L 228.836062 280.500324 
L 229.076192 284.724973 
L 229.196256 267.738811 
L 229.316321 282.803838 
L 229.436385 282.698131 
L 229.55645 286.029243 
L 229.796579 278.028619 
L 229.916643 281.399351 
L 230.036708 266.572541 
L 230.156772 268.898108 
L 230.276837 283.283027 
L 230.516966 266.008865 
L 230.637031 286.217514 
L 230.757095 283.429362 
L 230.87716 268.966703 
L 231.117289 283.619676 
L 231.237353 279.388216 
L 231.357418 285.958703 
L 231.477483 281.736973 
L 231.597547 284.658811 
L 231.717612 277.157189 
L 231.837676 276.967459 
L 231.957741 278.76493 
L 232.077805 286.728324 
L 232.317934 280.506649 
L 232.437999 285.063568 
L 232.678128 271.760838 
L 232.798193 231.314595 
L 232.918257 233.595243 
L 233.038322 284.414456 
L 233.158386 287.105699 
L 233.278451 286.705557 
L 233.398515 267.972602 
L 233.51858 267.313297 
L 233.638644 282.252649 
L 233.758709 251.172973 
L 233.998838 286.007351 
L 234.118903 272.133146 
L 234.238967 283.272324 
L 234.359032 260.578897 
L 234.599161 283.752278 
L 234.719225 285.435243 
L 234.83929 251.123351 
L 234.959354 287.186595 
L 235.079419 285.125838 
L 235.319548 271.897297 
L 235.439613 272.682486 
L 235.559677 289.434162 
L 235.799806 284.935135 
L 235.919871 270.894357 
L 236.039935 236.290865 
L 236.280065 288.793168 
L 236.400129 258.801081 
L 236.520194 283.118595 
L 236.640258 284.604324 
L 236.760323 283.475189 
L 236.880387 286.283676 
L 237.120516 262.843784 
L 237.240581 281.070486 
L 237.360646 263.751178 
L 237.600775 282.867243 
L 237.720839 281.016 
L 237.840904 284.064324 
L 237.960968 243.528908 
L 238.201097 276.25983 
L 238.321162 259.256919 
L 238.441226 280.599178 
L 238.561291 280.980973 
L 238.681356 280.764973 
L 238.80142 283.195849 
L 238.921485 290.368216 
L 239.041549 280.101795 
L 239.161614 253.980973 
L 239.281678 282.744 
L 239.521807 278.348108 
L 239.641872 278.607892 
L 239.761937 289.074551 
L 240.002066 283.697514 
L 240.12213 287.516432 
L 240.242195 283.63427 
L 240.362259 243.110919 
L 240.602388 276.007969 
L 240.842517 282.895784 
L 240.962582 268.392843 
L 241.202711 284.495351 
L 241.322776 285.138347 
L 241.44284 273.78 
L 241.562905 286.586465 
L 241.682969 268.692324 
L 241.803034 280.44 
L 241.923098 268.597751 
L 242.163228 273.97907 
L 242.283292 262.31507 
L 242.523421 285.415784 
L 242.643486 254.966108 
L 242.76355 280.997319 
L 242.883615 281.90773 
L 243.003679 287.221622 
L 243.123744 285.543243 
L 243.363873 274.063135 
L 243.483938 282.41583 
L 243.604002 282.805297 
L 243.724067 280.839697 
L 243.844131 283.9968 
L 243.964196 282.123243 
L 244.204325 265.572 
L 244.324389 278.635622 
L 244.564519 280.925514 
L 244.684583 249.295135 
L 244.804648 282.323676 
L 244.924712 282.740108 
L 245.044777 269.190208 
L 245.164841 226.682076 
L 245.284906 280.230811 
L 245.40497 268.321205 
L 245.525035 279.027243 
L 245.6451 228.584432 
L 245.885229 285.296108 
L 246.125358 181.947892 
L 246.365487 289.381622 
L 246.485551 287.256649 
L 246.605616 277.997838 
L 246.72568 286.411622 
L 246.845745 222.091784 
L 246.96581 285.858811 
L 247.085874 281.948108 
L 247.326003 285.677514 
L 247.446068 266.239946 
L 247.566132 267.227027 
L 247.686197 287.243514 
L 247.806261 251.803459 
L 248.166455 282.050965 
L 248.28652 263.835243 
L 248.526649 286.998324 
L 248.886842 256.736432 
L 249.006907 282.134919 
L 249.126971 277.10173 
L 249.247036 283.402216 
L 249.367101 270.852324 
L 249.487165 286.722486 
L 249.60723 241.806162 
L 249.727294 286.725405 
L 249.847359 275.063351 
L 250.087488 177.160865 
L 250.207552 286.532757 
L 250.327617 287.929459 
L 250.447682 149.378595 
L 250.567746 271.131081 
L 250.92794 279.687892 
L 251.048004 259.235027 
L 251.168069 286.780865 
L 251.408198 272.435546 
L 251.528263 284.090205 
L 251.648327 279.445622 
L 251.888456 283.987459 
L 252.008521 268.366573 
L 252.128585 282.94332 
L 252.24865 264.287092 
L 252.368714 284.839784 
L 252.608843 253.562108 
L 252.728908 281.623135 
L 252.848973 265.543784 
L 253.089102 288.161514 
L 253.209166 268.831459 
L 253.329231 280.056259 
L 253.449295 272.38573 
L 253.56936 254.20573 
L 253.689424 291.267243 
L 253.809489 285.696486 
L 253.929554 243.248108 
L 254.049618 287.130551 
L 254.169683 211.201297 
L 254.289747 228.171892 
L 254.409812 284.53427 
L 254.529876 287.815622 
L 254.649941 284.130486 
L 254.89007 242.32573 
L 255.010134 286.232108 
L 255.130199 285.357405 
L 255.250264 226.251243 
L 255.490393 284.232649 
L 255.610457 271.011892 
L 255.850586 290.590054 
L 255.970651 266.316324 
L 256.090715 270.5179 
L 256.21078 265.839568 
L 256.330845 167.154811 
L 256.450909 280.952618 
L 256.570974 277.273946 
L 256.691038 287.322324 
L 256.931167 283.847351 
L 257.051232 269.834205 
L 257.53149 284.680494 
L 257.651555 269.956216 
L 257.771619 286.278811 
L 257.891684 283.615784 
L 258.131813 259.849459 
L 258.251877 281.690854 
L 258.371942 218.136649 
L 258.612071 283.788973 
L 258.8522 285.63373 
L 258.972265 268.139189 
L 259.092329 270.180973 
L 259.212394 285.969989 
L 259.332458 282.253622 
L 259.452523 284.17427 
L 259.572587 283.695568 
L 259.692652 279.194595 
L 259.812717 286.464649 
L 259.932781 265.223189 
L 260.17291 282.091622 
L 260.292975 269.409211 
L 260.413039 284.639351 
L 260.533104 280.455568 
L 260.653168 283.432865 
L 260.773233 196.063784 
L 261.013362 288.422757 
L 261.253491 281.034681 
L 261.373556 277.59373 
L 261.49362 279.920432 
L 261.613685 263.489838 
L 261.733749 280.925514 
L 261.853814 282.039081 
L 262.093943 273.592605 
L 262.214008 273.127622 
L 262.454137 284.859632 
L 262.574201 275.7888 
L 262.694266 275.316324 
L 262.81433 269.357838 
L 263.174524 288.838703 
L 263.294588 53.568 
L 263.414653 274.616562 
L 263.534718 253.990703 
L 263.654782 282.630162 
L 263.774847 281.440216 
L 263.894911 241.880595 
L 264.13504 286.255459 
L 264.375169 282.533838 
L 264.495234 282.505816 
L 264.735363 276.700378 
L 264.855428 284.241405 
L 264.975492 281.814324 
L 265.095557 238.432309 
L 265.215621 271.10773 
L 265.335686 244.224 
L 265.575815 289.013838 
L 265.69588 288.756973 
L 265.815944 276.796703 
L 265.936009 278.714432 
L 266.056073 276.059676 
L 266.176138 289.488649 
L 266.416267 277.561668 
L 266.656396 279.041643 
L 266.77646 258.683351 
L 266.896525 287.169081 
L 267.01659 268.839243 
L 267.136654 272.497135 
L 267.376783 288.126486 
L 267.496848 277.443243 
L 267.616912 284.824216 
L 267.736977 272.606595 
L 267.857041 279.664541 
L 268.097171 278.186984 
L 268.3373 286.873297 
L 268.697493 281.02573 
L 268.817558 281.624595 
L 268.937622 287.326703 
L 269.057687 279.936 
L 269.177751 281.996757 
L 269.297816 279.433946 
L 269.417881 287.925081 
L 269.537945 263.665946 
L 269.778074 288.856216 
L 269.898139 220.784108 
L 270.018203 285.855568 
L 270.138268 273.029838 
L 270.378397 284.004973 
L 270.498462 275.480062 
L 270.618526 285.90227 
L 270.738591 201.767351 
L 270.97872 283.419521 
L 271.098784 274.463027 
L 271.218849 239.536216 
L 271.338913 283.244108 
L 271.579042 275.528432 
L 271.699107 287.86573 
L 271.939236 254.450919 
L 272.179365 288.415459 
L 272.29943 269.13183 
L 272.419494 278.064 
L 272.659623 242.048432 
L 272.899753 285.520476 
L 273.019817 278.657514 
L 273.139882 238.962162 
L 273.259946 282.440432 
L 273.500075 261.879568 
L 273.62014 283.631351 
L 273.740204 281.396627 
L 273.860269 288.599351 
L 273.980334 287.028973 
L 274.100398 268.129946 
L 274.220463 284.384432 
L 274.580656 268.058919 
L 274.700721 269.546984 
L 275.060914 288.681081 
L 275.180979 286.462703 
L 275.301044 261.947676 
L 275.421108 287.352973 
L 275.541173 276.374919 
L 275.661237 275.662703 
L 275.781302 286.827568 
L 275.901366 243.075892 
L 276.021431 286.547935 
L 276.141495 255.487135 
L 276.26156 256.559629 
L 276.381625 284.755135 
L 276.741818 230.885027 
L 276.981947 285.172541 
L 277.102012 283.780216 
L 277.222076 284.209297 
L 277.342141 206.916324 
L 277.462205 287.641946 
L 277.702335 283.909622 
L 277.822399 287.167135 
L 277.942464 283.027135 
L 278.062528 274.557405 
L 278.182593 284.008865 
L 278.542786 252.552649 
L 278.782916 281.235892 
L 278.90298 280.548973 
L 279.263174 232.544432 
L 279.383238 270.346378 
L 279.503303 272.571568 
L 279.623367 270.443676 
L 279.863497 285.534486 
L 280.103626 273.8448 
L 280.463819 289.895351 
L 280.583884 212.935135 
L 280.703948 272.613405 
L 280.824013 267.591892 
L 280.944077 284.658811 
L 281.064142 284.504108 
L 281.184207 286.013189 
L 281.304271 291.068757 
L 281.664465 277.139676 
L 281.784529 259.397757 
L 281.904594 280.872973 
L 282.024658 280.454108 
L 282.384852 289.180216 
L 282.504917 182.954919 
L 282.624981 283.351135 
L 282.745046 288.252973 
L 282.86511 270.537081 
L 283.105239 288.052054 
L 283.225304 282.768324 
L 283.345368 291.687568 
L 283.585498 275.691892 
L 283.825627 286.567784 
L 283.945691 277.727838 
L 284.18582 286.722486 
L 284.425949 285.948973 
L 284.546014 284.728865 
L 284.666079 288.181216 
L 284.786143 283.057784 
L 284.906208 284.492432 
L 285.026272 265.831784 
L 285.266401 283.38227 
L 285.386466 281.141514 
L 285.50653 285.785514 
L 285.626595 283.683892 
L 285.746659 279.241297 
L 286.106853 287.303351 
L 286.346982 287.688649 
L 286.467047 284.652973 
L 286.587111 265.224649 
L 286.707176 265.701892 
L 286.947305 287.026054 
L 287.06737 277.886919 
L 287.187434 282.011351 
L 287.307499 223.329405 
L 287.547628 285.563676 
L 287.667692 280.338811 
L 287.787757 288.716108 
L 287.907821 284.598486 
L 288.027886 269.833622 
L 288.147951 285.63373 
L 288.268015 277.460757 
L 288.38808 289.778595 
L 288.508144 271.368389 
L 288.628209 274.016432 
L 288.748273 284.647135 
L 288.868338 281.553081 
L 288.988402 283.415351 
L 289.108467 282.895784 
L 289.228531 285.135178 
L 289.348596 279.305514 
L 289.468661 287.622486 
L 289.70879 280.175351 
L 289.828854 289.531459 
L 289.948919 249.380757 
L 290.068983 286.249622 
L 290.189048 280.489135 
L 290.429177 286.803243 
L 290.549242 287.196324 
L 290.669306 289.874919 
L 290.789371 286.336216 
L 290.909435 288.684 
L 291.0295 285.915892 
L 291.509758 286.707892 
L 291.629822 285.668757 
L 291.749887 282.71773 
L 291.869952 282.984811 
L 291.990016 275.783351 
L 292.230145 287.046486 
L 292.35021 274.746162 
L 292.470274 285.764108 
L 292.590339 281.558919 
L 292.710403 283.565189 
L 292.830468 254.982162 
L 292.950533 289.273622 
L 293.070597 284.883568 
L 293.190662 274.025189 
L 293.430791 289.118919 
L 293.550855 288.847459 
L 293.790984 285.079135 
L 293.911049 287.732432 
L 294.031114 279.772541 
L 294.271243 289.023568 
L 294.391307 286.042378 
L 294.511372 267.816649 
L 294.631436 295.488 
L 294.871565 279.258811 
L 294.99163 286.369297 
L 295.111694 239.491459 
L 295.351824 287.285838 
L 295.471888 276.987892 
L 295.591953 281.938378 
L 295.712017 194.440865 
L 295.832082 285.703784 
L 295.952146 283.247514 
L 296.072211 278.149622 
L 296.192275 287.896865 
L 296.31234 246.080919 
L 296.672534 285.555892 
L 296.792598 280.204541 
L 297.032727 287.974703 
L 297.152792 284.353297 
L 297.392921 289.212324 
L 297.63305 282.131027 
L 297.753115 286.030703 
L 297.873179 283.356973 
L 297.993244 285.300973 
L 298.233373 286.906378 
L 298.353437 293.398054 
L 298.473502 291.956108 
L 298.593566 170.777189 
L 298.713631 284.316324 
L 298.833696 288.891243 
L 298.95376 278.828757 
L 299.073825 279.933081 
L 299.193889 273.015243 
L 299.313954 293.187892 
L 299.554083 281.240757 
L 299.794212 285.152108 
L 299.914276 266.736649 
L 300.034341 288.651892 
L 300.394535 288.082703 
L 300.514599 282.53773 
L 300.634664 287.110703 
L 300.754728 277.783784 
L 300.874793 287.028973 
L 300.994857 286.918054 
L 301.59518 283.590486 
L 301.715245 287.244973 
L 301.835309 286.237946 
L 301.955374 286.795459 
L 302.315568 280.262919 
L 302.555697 287.770378 
L 302.795826 286.594054 
L 302.91589 290.22227 
L 303.035955 266.555676 
L 303.156019 289.194811 
L 303.396148 283.111784 
L 303.756342 270.443676 
L 303.996471 285.359351 
L 304.116536 281.903351 
L 304.2366 285.485838 
L 304.596794 275.634973 
L 304.716859 285.394378 
L 304.836923 279.825081 
L 304.956988 291.845189 
L 305.197117 280.219135 
L 305.317181 288.832865 
L 305.677375 287.799568 
L 305.797439 271.815568 
L 306.157633 289.626811 
L 306.397762 289.708541 
L 306.757956 290.992865 
L 306.87802 251.780108 
L 306.998085 285.662919 
L 307.11815 233.986378 
L 307.238214 232.235027 
L 307.478343 286.754595 
L 307.598408 281.518054 
L 307.718472 282.691459 
L 307.838537 287.729514 
L 307.958601 252.460216 
L 308.318795 289.317405 
L 308.43886 279.066162 
L 308.558924 288.838703 
L 308.678989 287.706162 
L 308.799053 287.951351 
L 308.919118 289.835514 
L 309.039182 284.524541 
L 309.159247 291.214703 
L 309.399376 284.853405 
L 309.519441 201.101838 
L 309.75957 200.15027 
L 310.119763 285.779676 
L 310.239828 285.172541 
L 310.359892 287.425946 
L 310.600022 287.612757 
L 310.720086 284.796 
L 310.960215 284.331892 
L 311.200344 282.513405 
L 311.680602 286.205838 
L 311.800667 283.497081 
L 312.040796 289.008 
L 312.280925 269.527135 
L 312.521054 288.864 
L 313.001313 285.497514 
L 313.481571 292.177946 
L 313.601635 275.96627 
L 313.7217 275.143135 
L 313.841764 277.565838 
L 314.081893 290.689297 
L 314.442087 285.125838 
L 314.802281 286.795459 
L 315.04241 281.588108 
L 315.162474 286.92973 
L 315.282539 269.968476 
L 315.522668 287.974703 
L 315.642733 284.460324 
L 315.882862 290.511243 
L 316.002926 281.760324 
L 316.122991 292.855135 
L 316.36312 281.576432 
L 317.083507 281.608541 
L 317.563765 291.757622 
L 317.68383 261.651892 
L 318.044024 285.925622 
L 318.284153 280.385514 
L 318.404217 288.821189 
L 318.524282 213.320432 
L 318.644346 289.416649 
L 319.244669 290.274811 
L 319.844992 261.108973 
L 320.205186 217.628757 
L 320.445315 284.343568 
L 320.565379 283.561297 
L 320.685444 284.250162 
L 321.045637 292.125405 
L 321.525896 287.209946 
L 321.766025 283.047568 
L 322.126218 284.419459 
L 322.486412 287.186595 
L 322.726541 283.535027 
L 322.96667 285.41773 
L 323.206799 276.725189 
L 323.326864 289.434162 
L 323.807122 280.788324 
L 323.927187 290.012108 
L 324.647574 283.899892 
L 325.007768 284.641297 
L 325.127832 282.498811 
L 325.488026 289.247351 
L 325.848219 286.129946 
L 326.208413 285.552 
L 327.529123 286.853838 
L 327.769252 290.473297 
L 328.129446 281.483027 
L 328.609704 286.702054 
L 328.729769 284.238486 
L 328.969898 289.364108 
L 329.210027 288.885405 
L 329.330091 284.232649 
L 329.570221 289.177297 
L 329.690285 265.948541 
L 329.81035 286.567784 
L 330.410672 199.71827 
L 330.650802 280.957622 
L 330.890931 276.223135 
L 331.010995 286.042378 
L 331.731382 293.053622 
L 332.45177 283.462054 
L 332.571834 290.236865 
L 332.691899 254.985081 
L 333.292222 254.780757 
L 333.532351 291.115459 
L 333.652415 291.483243 
L 333.892544 200.815784 
L 334.012609 287.852108 
L 334.372803 272.130811 
L 334.612932 290.87027 
L 334.973125 282.247784 
L 335.213254 285.195892 
L 335.453384 285.232865 
L 336.173771 289.048865 
L 336.533964 288.611027 
L 336.654029 286.71373 
L 336.894158 257.631568 
L 337.014223 289.194811 
L 337.254352 285.084973 
L 337.494481 284.442811 
L 337.614545 287.641946 
L 337.73461 286.710811 
L 337.854675 289.151027 
L 338.094804 288.613946 
L 338.575062 289.399135 
L 338.815191 276.851676 
L 338.935256 278.032865 
L 339.05532 289.702703 
L 339.175385 254.605622 
L 339.415514 281.569135 
L 339.535578 232.135784 
L 339.655643 279.317189 
L 339.775707 218.200865 
L 340.015836 284.731784 
L 340.135901 282.913297 
L 340.37603 200.780757 
L 340.616159 291.092108 
L 340.976353 286.042378 
L 341.096417 277.717622 
L 341.336547 240.405081 
L 341.456611 276.056757 
L 341.69674 290.590054 
L 341.816805 275.837838 
L 341.936869 287.420108 
L 342.056934 276.071351 
L 342.176998 287.244973 
L 342.297063 287.857946 
L 342.417127 285.055784 
L 342.537192 292.750054 
L 342.777321 286.672865 
L 343.01745 287.986378 
L 343.137515 195.526703 
L 343.377644 290.093838 
L 343.497708 286.614486 
L 343.617773 209.52 
L 343.737838 286.086162 
L 344.098031 244.068324 
L 344.218096 290.187243 
L 344.33816 288.044757 
L 344.578289 287.417189 
L 344.698354 286.141622 
L 344.818419 289.270703 
L 344.938483 284.563459 
L 345.178612 246.775135 
L 345.538806 283.794811 
L 345.778935 229.04173 
L 345.898999 279.401838 
L 346.139129 278.981514 
L 346.499322 286.398486 
L 346.619387 268.447135 
L 346.739451 288.06373 
L 346.859516 284.939027 
L 347.099645 286.544432 
L 347.459839 277.670919 
L 347.579903 291.121297 
L 348.780549 281.389622 
L 349.020678 288.272432 
L 349.140742 275.026378 
L 349.260807 285.890595 
L 349.741065 284.530378 
L 350.941711 279.007784 
L 351.542033 246.759568 
L 352.742679 290.776865 
L 353.943324 286.906378 
L 354.423583 288.015568 
L 354.543647 286.801297 
L 356.584744 283.608 
L 357.425196 279.930162 
L 359.1061 289.597622 
L 360.066616 286.194162 
L 360.42681 286.964757 
L 362.587972 287.285838 
L 363.548488 290.391568 
L 364.148811 283.818162 
L 364.869198 289.46627 
L 365.469521 289.562595 
L 366.189909 289.083892 
L 366.790231 286.649514 
L 367.150425 289.632649 
L 367.510619 290.233946 
L 368.951393 287.274162 
L 369.791845 294.186162 
L 370.392168 286.632 
L 370.632297 294.915892 
L 370.872426 284.150919 
L 371.112555 278.742162 
L 371.712878 291.862703 
L 371.832942 290.286486 
L 371.953007 293.088649 
L 375.554944 285.989838 
L 376.275331 252.603243 
L 376.755589 285.657081 
L 377.115783 286.188324 
L 377.596041 291.004541 
L 377.83617 287.869622 
L 377.956235 280.922595 
L 378.556557 289.819459 
L 378.676622 289.778595 
L 379.517074 283.456216 
L 379.637138 287.63027 
L 380.717719 81.093405 
L 382.038429 289.761081 
L 384.559785 284.845622 
L 384.679849 287.014378 
L 384.919978 277.341081 
L 385.040043 262.35827 
L 385.160108 289.247351 
L 385.520301 263.146378 
L 385.880495 285.476108 
L 386.120624 289.244432 
L 386.360753 290.718486 
L 386.480818 284.629622 
L 386.841011 285.009081 
L 386.961076 285.312649 
L 387.201205 285.610378 
L 387.681463 287.898811 
L 387.921592 282.326595 
L 388.521915 290.123027 
L 388.64198 258.41773 
L 389.002173 290.569622 
L 389.122238 290.336108 
L 389.602496 253.88173 
L 389.96269 292.796757 
L 390.082754 292.090378 
L 390.202819 290.543351 
L 390.563012 273.911351 
L 390.803141 284.069189 
L 391.163335 288.500108 
L 391.2834 291.348973 
L 391.403464 286.652432 
L 393.084368 289.994595 
L 397.88695 292.195459 
L 398.487273 290.105514 
L 398.487273 290.105514 
" style="fill:none;stroke:#0000ff;stroke-linecap:square;stroke-width:1.5;"/>
   </g>
   <g id="patch_3">
    <path d="M 57.6 307.584 
L 57.6 41.472 
" style="fill:none;stroke:#000000;stroke-linecap:square;stroke-linejoin:miter;stroke-width:0.8;"/>
   </g>
   <g id="patch_4">
    <path d="M 414.72 307.584 
L 414.72 41.472 
" style="fill:none;stroke:#000000;stroke-linecap:square;stroke-linejoin:miter;stroke-width:0.8;"/>
   </g>
   <g id="patch_5">
    <path d="M 57.6 307.584 
L 414.72 307.584 
" style="fill:none;stroke:#000000;stroke-linecap:square;stroke-linejoin:miter;stroke-width:0.8;"/>
   </g>
   <g id="patch_6">
    <path d="M 57.6 41.472 
L 414.72 41.472 
" style="fill:none;stroke:#000000;stroke-linecap:square;stroke-linejoin:miter;stroke-width:0.8;"/>
   </g>
   <g id="text_12">
    <!-- temperature-&gt;ping -->
    <g transform="translate(178.169062 35.472)scale(0.12 -0.12)">
     <defs>
      <path d="M 4.890625 31.390625 
L 31.203125 31.390625 
L 31.203125 23.390625 
L 4.890625 23.390625 
z
" id="DejaVuSans-45"/>
      <path d="M 10.59375 49.21875 
L 10.59375 58.109375 
L 73.1875 35.40625 
L 73.1875 27.296875 
L 10.59375 4.59375 
L 10.59375 13.484375 
L 60.890625 31.296875 
z
" id="DejaVuSans-62"/>
      <path d="M 54.890625 33.015625 
L 54.890625 0 
L 45.90625 0 
L 45.90625 32.71875 
Q 45.90625 40.484375 42.875 44.328125 
Q 39.84375 48.1875 33.796875 48.1875 
Q 26.515625 48.1875 22.3125 43.546875 
Q 18.109375 38.921875 18.109375 30.90625 
L 18.109375 0 
L 9.078125 0 
L 9.078125 54.6875 
L 18.109375 54.6875 
L 18.109375 46.1875 
Q 21.34375 51.125 25.703125 53.5625 
Q 30.078125 56 35.796875 56 
Q 45.21875 56 50.046875 50.171875 
Q 54.890625 44.34375 54.890625 33.015625 
z
" id="DejaVuSans-110"/>
      <path d="M 45.40625 27.984375 
Q 45.40625 37.75 41.375 43.109375 
Q 37.359375 48.484375 30.078125 48.484375 
Q 22.859375 48.484375 18.828125 43.109375 
Q 14.796875 37.75 14.796875 27.984375 
Q 14.796875 18.265625 18.828125 12.890625 
Q 22.859375 7.515625 30.078125 7.515625 
Q 37.359375 7.515625 41.375 12.890625 
Q 45.40625 18.265625 45.40625 27.984375 
z
M 54.390625 6.78125 
Q 54.390625 -7.171875 48.1875 -13.984375 
Q 42 -20.796875 29.203125 -20.796875 
Q 24.46875 -20.796875 20.265625 -20.09375 
Q 16.0625 -19.390625 12.109375 -17.921875 
L 12.109375 -9.1875 
Q 16.0625 -11.328125 19.921875 -12.34375 
Q 23.78125 -13.375 27.78125 -13.375 
Q 36.625 -13.375 41.015625 -8.765625 
Q 45.40625 -4.15625 45.40625 5.171875 
L 45.40625 9.625 
Q 42.625 4.78125 38.28125 2.390625 
Q 33.9375 0 27.875 0 
Q 17.828125 0 11.671875 7.65625 
Q 5.515625 15.328125 5.515625 27.984375 
Q 5.515625 40.671875 11.671875 48.328125 
Q 17.828125 56 27.875 56 
Q 33.9375 56 38.28125 53.609375 
Q 42.625 51.21875 45.40625 46.390625 
L 45.40625 54.6875 
L 54.390625 54.6875 
z
" id="DejaVuSans-103"/>
     </defs>
     <use xlink:href="#DejaVuSans-116"/>
     <use x="39.208984" xlink:href="#DejaVuSans-101"/>
     <use x="100.732422" xlink:href="#DejaVuSans-109"/>
     <use x="198.144531" xlink:href="#DejaVuSans-112"/>
     <use x="261.621094" xlink:href="#DejaVuSans-101"/>
     <use x="323.144531" xlink:href="#DejaVuSans-114"/>
     <use x="364.257812" xlink:href="#DejaVuSans-97"/>
     <use x="425.537109" xlink:href="#DejaVuSans-116"/>
     <use x="464.746094" xlink:href="#DejaVuSans-117"/>
     <use x="528.125" xlink:href="#DejaVuSans-114"/>
     <use x="566.988281" xlink:href="#DejaVuSans-101"/>
     <use x="628.511719" xlink:href="#DejaVuSans-45"/>
     <use x="664.595703" xlink:href="#DejaVuSans-62"/>
     <use x="748.384766" xlink:href="#DejaVuSans-112"/>
     <use x="811.861328" xlink:href="#DejaVuSans-105"/>
     <use x="839.644531" xlink:href="#DejaVuSans-110"/>
     <use x="903.023438" xlink:href="#DejaVuSans-103"/>
    </g>
   </g>
  </g>
  <g id="legend_1">
   <g id="patch_7">
    <path d="M 415.451563 22.678125 
L 453.8 22.678125 
Q 455.8 22.678125 455.8 20.678125 
L 455.8 7 
Q 455.8 5 453.8 5 
L 415.451563 5 
Q 413.451563 5 413.451563 7 
L 413.451563 20.678125 
Q 413.451563 22.678125 415.451563 22.678125 
z
" style="fill:#ffffff;opacity:0.8;stroke:#cccccc;stroke-linejoin:miter;"/>
   </g>
   <g id="line2d_12">
    <path d="M 417.451563 13.098438 
L 437.451563 13.098438 
" style="fill:none;stroke:#0000ff;stroke-linecap:square;stroke-width:1.5;"/>
   </g>
   <g id="line2d_13"/>
   <g id="text_13">
    <!-- p -->
    <g transform="translate(445.451563 16.598438)scale(0.1 -0.1)">
     <use xlink:href="#DejaVuSans-112"/>
    </g>
   </g>
  </g>
 </g>
 <defs>
  <clipPath id="p0b0fc93a7f">
   <rect height="266.112" width="357.12" x="57.6" y="41.472"/>
  </clipPath>
 </defs>
</svg>
