<?xml version="1.0" encoding="utf-8" standalone="no"?>
<!DOCTYPE svg PUBLIC "-//W3C//DTD SVG 1.1//EN"
  "http://www.w3.org/Graphics/SVG/1.1/DTD/svg11.dtd">
<svg height="345.6pt" version="1.1" viewBox="0 0 460.8 345.6" width="460.8pt" xmlns="http://www.w3.org/2000/svg" xmlns:xlink="http://www.w3.org/1999/xlink">
 <metadata>
  <rdf:RDF xmlns:cc="http://creativecommons.org/ns#" xmlns:dc="http://purl.org/dc/elements/1.1/" xmlns:rdf="http://www.w3.org/1999/02/22-rdf-syntax-ns#">
   <cc:Work>
    <dc:type rdf:resource="http://purl.org/dc/dcmitype/StillImage"/>
    <dc:date>2022-06-15T23:44:01.267921</dc:date>
    <dc:format>image/svg+xml</dc:format>
    <dc:creator>
     <cc:Agent>
      <dc:title>Matplotlib v3.4.2, https://matplotlib.org/</dc:title>
     </cc:Agent>
    </dc:creator>
   </cc:Work>
  </rdf:RDF>
 </metadata>
 <defs>
  <style type="text/css">*{stroke-linecap:butt;stroke-linejoin:round;}</style>
 </defs>
 <g id="figure_1">
  <g id="patch_1">
   <path d="M 0 345.6 
L 460.8 345.6 
L 460.8 0 
L 0 0 
z
" style="fill:#ffffff;"/>
  </g>
  <g id="axes_1">
   <g id="patch_2">
    <path d="M 57.6 307.584 
L 414.72 307.584 
L 414.72 41.472 
L 57.6 41.472 
z
" style="fill:#ffffff;"/>
   </g>
   <g id="matplotlib.axis_1">
    <g id="xtick_1">
     <g id="line2d_1">
      <defs>
       <path d="M 0 0 
L 0 3.5 
" id="m0c3f30c4f1" style="stroke:#000000;stroke-width:0.8;"/>
      </defs>
      <g>
       <use style="stroke:#000000;stroke-width:0.8;" x="71.103009" xlink:href="#m0c3f30c4f1" y="307.584"/>
      </g>
     </g>
     <g id="text_1">
      <!-- 5.0 -->
      <g transform="translate(63.151446 322.182437)scale(0.1 -0.1)">
       <defs>
        <path d="M 691 4666 
L 3169 4666 
L 3169 4134 
L 1269 4134 
L 1269 2991 
Q 1406 3038 1543 3061 
Q 1681 3084 1819 3084 
Q 2600 3084 3056 2656 
Q 3513 2228 3513 1497 
Q 3513 744 3044 326 
Q 2575 -91 1722 -91 
Q 1428 -91 1123 -41 
Q 819 9 494 109 
L 494 744 
Q 775 591 1075 516 
Q 1375 441 1709 441 
Q 2250 441 2565 725 
Q 2881 1009 2881 1497 
Q 2881 1984 2565 2268 
Q 2250 2553 1709 2553 
Q 1456 2553 1204 2497 
Q 953 2441 691 2322 
L 691 4666 
z
" id="DejaVuSans-35" transform="scale(0.015625)"/>
        <path d="M 684 794 
L 1344 794 
L 1344 0 
L 684 0 
L 684 794 
z
" id="DejaVuSans-2e" transform="scale(0.015625)"/>
        <path d="M 2034 4250 
Q 1547 4250 1301 3770 
Q 1056 3291 1056 2328 
Q 1056 1369 1301 889 
Q 1547 409 2034 409 
Q 2525 409 2770 889 
Q 3016 1369 3016 2328 
Q 3016 3291 2770 3770 
Q 2525 4250 2034 4250 
z
M 2034 4750 
Q 2819 4750 3233 4129 
Q 3647 3509 3647 2328 
Q 3647 1150 3233 529 
Q 2819 -91 2034 -91 
Q 1250 -91 836 529 
Q 422 1150 422 2328 
Q 422 3509 836 4129 
Q 1250 4750 2034 4750 
z
" id="DejaVuSans-30" transform="scale(0.015625)"/>
       </defs>
       <use xlink:href="#DejaVuSans-35"/>
       <use x="63.623047" xlink:href="#DejaVuSans-2e"/>
       <use x="95.410156" xlink:href="#DejaVuSans-30"/>
      </g>
     </g>
    </g>
    <g id="xtick_2">
     <g id="line2d_2">
      <g>
       <use style="stroke:#000000;stroke-width:0.8;" x="116.59832" xlink:href="#m0c3f30c4f1" y="307.584"/>
      </g>
     </g>
     <g id="text_2">
      <!-- 7.5 -->
      <g transform="translate(108.646758 322.182437)scale(0.1 -0.1)">
       <defs>
        <path d="M 525 4666 
L 3525 4666 
L 3525 4397 
L 1831 0 
L 1172 0 
L 2766 4134 
L 525 4134 
L 525 4666 
z
" id="DejaVuSans-37" transform="scale(0.015625)"/>
       </defs>
       <use xlink:href="#DejaVuSans-37"/>
       <use x="63.623047" xlink:href="#DejaVuSans-2e"/>
       <use x="95.410156" xlink:href="#DejaVuSans-35"/>
      </g>
     </g>
    </g>
    <g id="xtick_3">
     <g id="line2d_3">
      <g>
       <use style="stroke:#000000;stroke-width:0.8;" x="162.093632" xlink:href="#m0c3f30c4f1" y="307.584"/>
      </g>
     </g>
     <g id="text_3">
      <!-- 10.0 -->
      <g transform="translate(150.96082 322.182437)scale(0.1 -0.1)">
       <defs>
        <path d="M 794 531 
L 1825 531 
L 1825 4091 
L 703 3866 
L 703 4441 
L 1819 4666 
L 2450 4666 
L 2450 531 
L 3481 531 
L 3481 0 
L 794 0 
L 794 531 
z
" id="DejaVuSans-31" transform="scale(0.015625)"/>
       </defs>
       <use xlink:href="#DejaVuSans-31"/>
       <use x="63.623047" xlink:href="#DejaVuSans-30"/>
       <use x="127.246094" xlink:href="#DejaVuSans-2e"/>
       <use x="159.033203" xlink:href="#DejaVuSans-30"/>
      </g>
     </g>
    </g>
    <g id="xtick_4">
     <g id="line2d_4">
      <g>
       <use style="stroke:#000000;stroke-width:0.8;" x="207.588944" xlink:href="#m0c3f30c4f1" y="307.584"/>
      </g>
     </g>
     <g id="text_4">
      <!-- 12.5 -->
      <g transform="translate(196.456132 322.182437)scale(0.1 -0.1)">
       <defs>
        <path d="M 1228 531 
L 3431 531 
L 3431 0 
L 469 0 
L 469 531 
Q 828 903 1448 1529 
Q 2069 2156 2228 2338 
Q 2531 2678 2651 2914 
Q 2772 3150 2772 3378 
Q 2772 3750 2511 3984 
Q 2250 4219 1831 4219 
Q 1534 4219 1204 4116 
Q 875 4013 500 3803 
L 500 4441 
Q 881 4594 1212 4672 
Q 1544 4750 1819 4750 
Q 2544 4750 2975 4387 
Q 3406 4025 3406 3419 
Q 3406 3131 3298 2873 
Q 3191 2616 2906 2266 
Q 2828 2175 2409 1742 
Q 1991 1309 1228 531 
z
" id="DejaVuSans-32" transform="scale(0.015625)"/>
       </defs>
       <use xlink:href="#DejaVuSans-31"/>
       <use x="63.623047" xlink:href="#DejaVuSans-32"/>
       <use x="127.246094" xlink:href="#DejaVuSans-2e"/>
       <use x="159.033203" xlink:href="#DejaVuSans-35"/>
      </g>
     </g>
    </g>
    <g id="xtick_5">
     <g id="line2d_5">
      <g>
       <use style="stroke:#000000;stroke-width:0.8;" x="253.084256" xlink:href="#m0c3f30c4f1" y="307.584"/>
      </g>
     </g>
     <g id="text_5">
      <!-- 15.0 -->
      <g transform="translate(241.951444 322.182437)scale(0.1 -0.1)">
       <use xlink:href="#DejaVuSans-31"/>
       <use x="63.623047" xlink:href="#DejaVuSans-35"/>
       <use x="127.246094" xlink:href="#DejaVuSans-2e"/>
       <use x="159.033203" xlink:href="#DejaVuSans-30"/>
      </g>
     </g>
    </g>
    <g id="xtick_6">
     <g id="line2d_6">
      <g>
       <use style="stroke:#000000;stroke-width:0.8;" x="298.579568" xlink:href="#m0c3f30c4f1" y="307.584"/>
      </g>
     </g>
     <g id="text_6">
      <!-- 17.5 -->
      <g transform="translate(287.446755 322.182437)scale(0.1 -0.1)">
       <use xlink:href="#DejaVuSans-31"/>
       <use x="63.623047" xlink:href="#DejaVuSans-37"/>
       <use x="127.246094" xlink:href="#DejaVuSans-2e"/>
       <use x="159.033203" xlink:href="#DejaVuSans-35"/>
      </g>
     </g>
    </g>
    <g id="xtick_7">
     <g id="line2d_7">
      <g>
       <use style="stroke:#000000;stroke-width:0.8;" x="344.07488" xlink:href="#m0c3f30c4f1" y="307.584"/>
      </g>
     </g>
     <g id="text_7">
      <!-- 20.0 -->
      <g transform="translate(332.942067 322.182437)scale(0.1 -0.1)">
       <use xlink:href="#DejaVuSans-32"/>
       <use x="63.623047" xlink:href="#DejaVuSans-30"/>
       <use x="127.246094" xlink:href="#DejaVuSans-2e"/>
       <use x="159.033203" xlink:href="#DejaVuSans-30"/>
      </g>
     </g>
    </g>
    <g id="xtick_8">
     <g id="line2d_8">
      <g>
       <use style="stroke:#000000;stroke-width:0.8;" x="389.570192" xlink:href="#m0c3f30c4f1" y="307.584"/>
      </g>
     </g>
     <g id="text_8">
      <!-- 22.5 -->
      <g transform="translate(378.437379 322.182437)scale(0.1 -0.1)">
       <use xlink:href="#DejaVuSans-32"/>
       <use x="63.623047" xlink:href="#DejaVuSans-32"/>
       <use x="127.246094" xlink:href="#DejaVuSans-2e"/>
       <use x="159.033203" xlink:href="#DejaVuSans-35"/>
      </g>
     </g>
    </g>
    <g id="text_9">
     <!-- temperature from Aeris -->
     <g transform="translate(177.464687 335.860562)scale(0.1 -0.1)">
      <defs>
       <path d="M 1172 4494 
L 1172 3500 
L 2356 3500 
L 2356 3053 
L 1172 3053 
L 1172 1153 
Q 1172 725 1289 603 
Q 1406 481 1766 481 
L 2356 481 
L 2356 0 
L 1766 0 
Q 1100 0 847 248 
Q 594 497 594 1153 
L 594 3053 
L 172 3053 
L 172 3500 
L 594 3500 
L 594 4494 
L 1172 4494 
z
" id="DejaVuSans-74" transform="scale(0.015625)"/>
       <path d="M 3597 1894 
L 3597 1613 
L 953 1613 
Q 991 1019 1311 708 
Q 1631 397 2203 397 
Q 2534 397 2845 478 
Q 3156 559 3463 722 
L 3463 178 
Q 3153 47 2828 -22 
Q 2503 -91 2169 -91 
Q 1331 -91 842 396 
Q 353 884 353 1716 
Q 353 2575 817 3079 
Q 1281 3584 2069 3584 
Q 2775 3584 3186 3129 
Q 3597 2675 3597 1894 
z
M 3022 2063 
Q 3016 2534 2758 2815 
Q 2500 3097 2075 3097 
Q 1594 3097 1305 2825 
Q 1016 2553 972 2059 
L 3022 2063 
z
" id="DejaVuSans-65" transform="scale(0.015625)"/>
       <path d="M 3328 2828 
Q 3544 3216 3844 3400 
Q 4144 3584 4550 3584 
Q 5097 3584 5394 3201 
Q 5691 2819 5691 2113 
L 5691 0 
L 5113 0 
L 5113 2094 
Q 5113 2597 4934 2840 
Q 4756 3084 4391 3084 
Q 3944 3084 3684 2787 
Q 3425 2491 3425 1978 
L 3425 0 
L 2847 0 
L 2847 2094 
Q 2847 2600 2669 2842 
Q 2491 3084 2119 3084 
Q 1678 3084 1418 2786 
Q 1159 2488 1159 1978 
L 1159 0 
L 581 0 
L 581 3500 
L 1159 3500 
L 1159 2956 
Q 1356 3278 1631 3431 
Q 1906 3584 2284 3584 
Q 2666 3584 2933 3390 
Q 3200 3197 3328 2828 
z
" id="DejaVuSans-6d" transform="scale(0.015625)"/>
       <path d="M 1159 525 
L 1159 -1331 
L 581 -1331 
L 581 3500 
L 1159 3500 
L 1159 2969 
Q 1341 3281 1617 3432 
Q 1894 3584 2278 3584 
Q 2916 3584 3314 3078 
Q 3713 2572 3713 1747 
Q 3713 922 3314 415 
Q 2916 -91 2278 -91 
Q 1894 -91 1617 61 
Q 1341 213 1159 525 
z
M 3116 1747 
Q 3116 2381 2855 2742 
Q 2594 3103 2138 3103 
Q 1681 3103 1420 2742 
Q 1159 2381 1159 1747 
Q 1159 1113 1420 752 
Q 1681 391 2138 391 
Q 2594 391 2855 752 
Q 3116 1113 3116 1747 
z
" id="DejaVuSans-70" transform="scale(0.015625)"/>
       <path d="M 2631 2963 
Q 2534 3019 2420 3045 
Q 2306 3072 2169 3072 
Q 1681 3072 1420 2755 
Q 1159 2438 1159 1844 
L 1159 0 
L 581 0 
L 581 3500 
L 1159 3500 
L 1159 2956 
Q 1341 3275 1631 3429 
Q 1922 3584 2338 3584 
Q 2397 3584 2469 3576 
Q 2541 3569 2628 3553 
L 2631 2963 
z
" id="DejaVuSans-72" transform="scale(0.015625)"/>
       <path d="M 2194 1759 
Q 1497 1759 1228 1600 
Q 959 1441 959 1056 
Q 959 750 1161 570 
Q 1363 391 1709 391 
Q 2188 391 2477 730 
Q 2766 1069 2766 1631 
L 2766 1759 
L 2194 1759 
z
M 3341 1997 
L 3341 0 
L 2766 0 
L 2766 531 
Q 2569 213 2275 61 
Q 1981 -91 1556 -91 
Q 1019 -91 701 211 
Q 384 513 384 1019 
Q 384 1609 779 1909 
Q 1175 2209 1959 2209 
L 2766 2209 
L 2766 2266 
Q 2766 2663 2505 2880 
Q 2244 3097 1772 3097 
Q 1472 3097 1187 3025 
Q 903 2953 641 2809 
L 641 3341 
Q 956 3463 1253 3523 
Q 1550 3584 1831 3584 
Q 2591 3584 2966 3190 
Q 3341 2797 3341 1997 
z
" id="DejaVuSans-61" transform="scale(0.015625)"/>
       <path d="M 544 1381 
L 544 3500 
L 1119 3500 
L 1119 1403 
Q 1119 906 1312 657 
Q 1506 409 1894 409 
Q 2359 409 2629 706 
Q 2900 1003 2900 1516 
L 2900 3500 
L 3475 3500 
L 3475 0 
L 2900 0 
L 2900 538 
Q 2691 219 2414 64 
Q 2138 -91 1772 -91 
Q 1169 -91 856 284 
Q 544 659 544 1381 
z
M 1991 3584 
L 1991 3584 
z
" id="DejaVuSans-75" transform="scale(0.015625)"/>
       <path id="DejaVuSans-20" transform="scale(0.015625)"/>
       <path d="M 2375 4863 
L 2375 4384 
L 1825 4384 
Q 1516 4384 1395 4259 
Q 1275 4134 1275 3809 
L 1275 3500 
L 2222 3500 
L 2222 3053 
L 1275 3053 
L 1275 0 
L 697 0 
L 697 3053 
L 147 3053 
L 147 3500 
L 697 3500 
L 697 3744 
Q 697 4328 969 4595 
Q 1241 4863 1831 4863 
L 2375 4863 
z
" id="DejaVuSans-66" transform="scale(0.015625)"/>
       <path d="M 1959 3097 
Q 1497 3097 1228 2736 
Q 959 2375 959 1747 
Q 959 1119 1226 758 
Q 1494 397 1959 397 
Q 2419 397 2687 759 
Q 2956 1122 2956 1747 
Q 2956 2369 2687 2733 
Q 2419 3097 1959 3097 
z
M 1959 3584 
Q 2709 3584 3137 3096 
Q 3566 2609 3566 1747 
Q 3566 888 3137 398 
Q 2709 -91 1959 -91 
Q 1206 -91 779 398 
Q 353 888 353 1747 
Q 353 2609 779 3096 
Q 1206 3584 1959 3584 
z
" id="DejaVuSans-6f" transform="scale(0.015625)"/>
       <path d="M 2188 4044 
L 1331 1722 
L 3047 1722 
L 2188 4044 
z
M 1831 4666 
L 2547 4666 
L 4325 0 
L 3669 0 
L 3244 1197 
L 1141 1197 
L 716 0 
L 50 0 
L 1831 4666 
z
" id="DejaVuSans-41" transform="scale(0.015625)"/>
       <path d="M 603 3500 
L 1178 3500 
L 1178 0 
L 603 0 
L 603 3500 
z
M 603 4863 
L 1178 4863 
L 1178 4134 
L 603 4134 
L 603 4863 
z
" id="DejaVuSans-69" transform="scale(0.015625)"/>
       <path d="M 2834 3397 
L 2834 2853 
Q 2591 2978 2328 3040 
Q 2066 3103 1784 3103 
Q 1356 3103 1142 2972 
Q 928 2841 928 2578 
Q 928 2378 1081 2264 
Q 1234 2150 1697 2047 
L 1894 2003 
Q 2506 1872 2764 1633 
Q 3022 1394 3022 966 
Q 3022 478 2636 193 
Q 2250 -91 1575 -91 
Q 1294 -91 989 -36 
Q 684 19 347 128 
L 347 722 
Q 666 556 975 473 
Q 1284 391 1588 391 
Q 1994 391 2212 530 
Q 2431 669 2431 922 
Q 2431 1156 2273 1281 
Q 2116 1406 1581 1522 
L 1381 1569 
Q 847 1681 609 1914 
Q 372 2147 372 2553 
Q 372 3047 722 3315 
Q 1072 3584 1716 3584 
Q 2034 3584 2315 3537 
Q 2597 3491 2834 3397 
z
" id="DejaVuSans-73" transform="scale(0.015625)"/>
      </defs>
      <use xlink:href="#DejaVuSans-74"/>
      <use x="39.208984" xlink:href="#DejaVuSans-65"/>
      <use x="100.732422" xlink:href="#DejaVuSans-6d"/>
      <use x="198.144531" xlink:href="#DejaVuSans-70"/>
      <use x="261.621094" xlink:href="#DejaVuSans-65"/>
      <use x="323.144531" xlink:href="#DejaVuSans-72"/>
      <use x="364.257812" xlink:href="#DejaVuSans-61"/>
      <use x="425.537109" xlink:href="#DejaVuSans-74"/>
      <use x="464.746094" xlink:href="#DejaVuSans-75"/>
      <use x="528.125" xlink:href="#DejaVuSans-72"/>
      <use x="566.988281" xlink:href="#DejaVuSans-65"/>
      <use x="628.511719" xlink:href="#DejaVuSans-20"/>
      <use x="660.298828" xlink:href="#DejaVuSans-66"/>
      <use x="695.503906" xlink:href="#DejaVuSans-72"/>
      <use x="734.367188" xlink:href="#DejaVuSans-6f"/>
      <use x="795.548828" xlink:href="#DejaVuSans-6d"/>
      <use x="892.960938" xlink:href="#DejaVuSans-20"/>
      <use x="924.748047" xlink:href="#DejaVuSans-41"/>
      <use x="991.40625" xlink:href="#DejaVuSans-65"/>
      <use x="1052.929688" xlink:href="#DejaVuSans-72"/>
      <use x="1094.042969" xlink:href="#DejaVuSans-69"/>
      <use x="1121.826172" xlink:href="#DejaVuSans-73"/>
     </g>
    </g>
   </g>
   <g id="matplotlib.axis_2">
    <g id="ytick_1">
     <g id="line2d_9">
      <defs>
       <path d="M 0 0 
L -3.5 0 
" id="mc451b3c74b" style="stroke:#000000;stroke-width:0.8;"/>
      </defs>
      <g>
       <use style="stroke:#000000;stroke-width:0.8;" x="57.6" xlink:href="#mc451b3c74b" y="297.891886"/>
      </g>
     </g>
     <g id="text_10">
      <!-- 5 -->
      <g transform="translate(44.2375 301.691105)scale(0.1 -0.1)">
       <use xlink:href="#DejaVuSans-35"/>
      </g>
     </g>
    </g>
    <g id="ytick_2">
     <g id="line2d_10">
      <g>
       <use style="stroke:#000000;stroke-width:0.8;" x="57.6" xlink:href="#mc451b3c74b" y="268.214277"/>
      </g>
     </g>
     <g id="text_11">
      <!-- 10 -->
      <g transform="translate(37.875 272.013496)scale(0.1 -0.1)">
       <use xlink:href="#DejaVuSans-31"/>
       <use x="63.623047" xlink:href="#DejaVuSans-30"/>
      </g>
     </g>
    </g>
    <g id="ytick_3">
     <g id="line2d_11">
      <g>
       <use style="stroke:#000000;stroke-width:0.8;" x="57.6" xlink:href="#mc451b3c74b" y="238.536668"/>
      </g>
     </g>
     <g id="text_12">
      <!-- 15 -->
      <g transform="translate(37.875 242.335886)scale(0.1 -0.1)">
       <use xlink:href="#DejaVuSans-31"/>
       <use x="63.623047" xlink:href="#DejaVuSans-35"/>
      </g>
     </g>
    </g>
    <g id="ytick_4">
     <g id="line2d_12">
      <g>
       <use style="stroke:#000000;stroke-width:0.8;" x="57.6" xlink:href="#mc451b3c74b" y="208.859058"/>
      </g>
     </g>
     <g id="text_13">
      <!-- 20 -->
      <g transform="translate(37.875 212.658277)scale(0.1 -0.1)">
       <use xlink:href="#DejaVuSans-32"/>
       <use x="63.623047" xlink:href="#DejaVuSans-30"/>
      </g>
     </g>
    </g>
    <g id="ytick_5">
     <g id="line2d_13">
      <g>
       <use style="stroke:#000000;stroke-width:0.8;" x="57.6" xlink:href="#mc451b3c74b" y="179.181449"/>
      </g>
     </g>
     <g id="text_14">
      <!-- 25 -->
      <g transform="translate(37.875 182.980668)scale(0.1 -0.1)">
       <use xlink:href="#DejaVuSans-32"/>
       <use x="63.623047" xlink:href="#DejaVuSans-35"/>
      </g>
     </g>
    </g>
    <g id="ytick_6">
     <g id="line2d_14">
      <g>
       <use style="stroke:#000000;stroke-width:0.8;" x="57.6" xlink:href="#mc451b3c74b" y="149.50384"/>
      </g>
     </g>
     <g id="text_15">
      <!-- 30 -->
      <g transform="translate(37.875 153.303059)scale(0.1 -0.1)">
       <defs>
        <path d="M 2597 2516 
Q 3050 2419 3304 2112 
Q 3559 1806 3559 1356 
Q 3559 666 3084 287 
Q 2609 -91 1734 -91 
Q 1441 -91 1130 -33 
Q 819 25 488 141 
L 488 750 
Q 750 597 1062 519 
Q 1375 441 1716 441 
Q 2309 441 2620 675 
Q 2931 909 2931 1356 
Q 2931 1769 2642 2001 
Q 2353 2234 1838 2234 
L 1294 2234 
L 1294 2753 
L 1863 2753 
Q 2328 2753 2575 2939 
Q 2822 3125 2822 3475 
Q 2822 3834 2567 4026 
Q 2313 4219 1838 4219 
Q 1578 4219 1281 4162 
Q 984 4106 628 3988 
L 628 4550 
Q 988 4650 1302 4700 
Q 1616 4750 1894 4750 
Q 2613 4750 3031 4423 
Q 3450 4097 3450 3541 
Q 3450 3153 3228 2886 
Q 3006 2619 2597 2516 
z
" id="DejaVuSans-33" transform="scale(0.015625)"/>
       </defs>
       <use xlink:href="#DejaVuSans-33"/>
       <use x="63.623047" xlink:href="#DejaVuSans-30"/>
      </g>
     </g>
    </g>
    <g id="ytick_7">
     <g id="line2d_15">
      <g>
       <use style="stroke:#000000;stroke-width:0.8;" x="57.6" xlink:href="#mc451b3c74b" y="119.826231"/>
      </g>
     </g>
     <g id="text_16">
      <!-- 35 -->
      <g transform="translate(37.875 123.625449)scale(0.1 -0.1)">
       <use xlink:href="#DejaVuSans-33"/>
       <use x="63.623047" xlink:href="#DejaVuSans-35"/>
      </g>
     </g>
    </g>
    <g id="ytick_8">
     <g id="line2d_16">
      <g>
       <use style="stroke:#000000;stroke-width:0.8;" x="57.6" xlink:href="#mc451b3c74b" y="90.148621"/>
      </g>
     </g>
     <g id="text_17">
      <!-- 40 -->
      <g transform="translate(37.875 93.94784)scale(0.1 -0.1)">
       <defs>
        <path d="M 2419 4116 
L 825 1625 
L 2419 1625 
L 2419 4116 
z
M 2253 4666 
L 3047 4666 
L 3047 1625 
L 3713 1625 
L 3713 1100 
L 3047 1100 
L 3047 0 
L 2419 0 
L 2419 1100 
L 313 1100 
L 313 1709 
L 2253 4666 
z
" id="DejaVuSans-34" transform="scale(0.015625)"/>
       </defs>
       <use xlink:href="#DejaVuSans-34"/>
       <use x="63.623047" xlink:href="#DejaVuSans-30"/>
      </g>
     </g>
    </g>
    <g id="ytick_9">
     <g id="line2d_17">
      <g>
       <use style="stroke:#000000;stroke-width:0.8;" x="57.6" xlink:href="#mc451b3c74b" y="60.471012"/>
      </g>
     </g>
     <g id="text_18">
      <!-- 45 -->
      <g transform="translate(37.875 64.270231)scale(0.1 -0.1)">
       <use xlink:href="#DejaVuSans-34"/>
       <use x="63.623047" xlink:href="#DejaVuSans-35"/>
      </g>
     </g>
    </g>
   </g>
   <g id="line2d_18">
    <path clip-path="url(#p65d7d27d02)" d="M 73.832727 285.961487 
L 74.014709 290.525904 
L 74.19669 288.246663 
L 74.378671 292.069139 
L 74.560652 282.794887 
L 74.742634 287.294012 
L 74.924615 287.58782 
L 75.106596 291.101649 
L 75.65254 293.428374 
L 77.472352 292.383722 
L 79.292165 290.727711 
L 79.656127 270.849649 
L 80.02009 292.170043 
L 80.566033 188.571445 
L 81.111977 289.410026 
L 81.47594 277.601305 
L 81.839902 288.66215 
L 82.385846 289.362541 
L 82.567827 292.81108 
L 82.749808 288.288212 
L 82.93179 288.768989 
L 83.113771 286.744976 
L 83.659715 288.653247 
L 84.38764 288.481116 
L 84.569621 289.23196 
L 84.933583 291.585394 
L 85.115565 267.629628 
L 85.661508 278.678602 
L 86.025471 289.611833 
L 87.663302 291.956364 
L 88.937171 292.953532 
L 89.483115 289.570285 
L 90.575002 289.825512 
L 90.756983 291.137262 
L 91.302927 284.299541 
L 91.66689 286.578782 
L 92.030852 291.422168 
L 92.576796 283.852399 
L 92.758777 290.258805 
L 92.940758 275.786024 
L 93.304721 282.077678 
L 93.486702 276.604137 
L 93.668683 290.445774 
L 93.850664 274.446575 
L 94.214627 274.544511 
L 94.578589 279.936933 
L 94.760571 244.81645 
L 94.942552 288.893635 
L 95.124533 269.828739 
L 95.488496 266.08936 
L 96.216421 292.633014 
L 96.944346 290.887971 
L 97.308308 284.050249 
L 98.582177 292.923855 
L 98.764158 286.394781 
L 98.946139 292.662692 
L 99.310102 286.074262 
L 99.492083 292.01572 
L 99.674064 289.237895 
L 99.856046 288.579053 
L 100.583971 289.11325 
L 100.947933 287.101108 
L 101.129914 214.067479 
L 101.311896 290.781131 
L 101.857839 284.985094 
L 102.039821 274.606834 
L 102.585764 285.884326 
L 102.767746 285.827938 
L 103.131708 281.15965 
L 103.313689 282.408088 
L 103.495671 276.239103 
L 104.041614 281.61075 
L 104.223596 290.935455 
L 104.405577 289.594027 
L 105.315483 291.045262 
L 105.497464 288.852087 
L 105.861427 286.744976 
L 106.225389 286.973494 
L 106.953314 279.468026 
L 107.135296 287.967694 
L 107.499258 266.908462 
L 107.681239 288.009242 
L 108.227183 277.309475 
L 108.409164 290.751454 
L 108.591146 264.712319 
L 108.955108 231.188492 
L 109.137089 276.725815 
L 109.319071 288.175437 
L 109.501052 275.570367 
L 109.683033 283.787108 
L 109.865014 277.98652 
L 110.046996 290.273644 
L 110.228977 290.798938 
L 110.410958 280.159515 
L 110.592939 260.990747 
L 110.774921 288.373288 
L 110.956902 287.58782 
L 111.138883 288.69895 
L 111.320864 280.680851 
L 111.684827 279.871642 
L 114.414545 289.142927 
L 114.960489 290.122288 
L 116.052377 280.595776 
L 117.144264 292.318431 
L 117.508227 291.291586 
L 117.690208 290.356741 
L 117.872189 286.964591 
L 119.146058 277.354981 
L 119.51002 250.199968 
L 119.692002 289.184476 
L 119.873983 271.790429 
L 120.419927 286.55504 
L 120.601908 279.984417 
L 120.783889 286.739041 
L 121.329833 283.349858 
L 121.875777 290.579323 
L 122.42172 289.214153 
L 122.967664 269.49635 
L 123.513608 274.873933 
L 123.87757 284.281735 
L 124.059552 292.193785 
L 124.241533 281.388168 
L 124.605495 245.036064 
L 124.787477 294.271218 
L 125.151439 265.549228 
L 125.33342 192.987473 
L 125.515402 281.921771 
L 125.697383 276.797042 
L 125.879364 285.795293 
L 126.061345 254.380554 
L 126.243327 279.624329 
L 126.425308 266.735343 
L 126.607289 287.348421 
L 126.78927 266.473685 
L 126.971252 287.202011 
L 127.335214 280.189192 
L 127.517195 290.852357 
L 127.699177 287.649154 
L 127.881158 264.973482 
L 128.063139 285.95753 
L 128.791064 277.954468 
L 128.973045 286.210779 
L 129.155026 281.462362 
L 129.337008 211.592366 
L 129.518989 271.227741 
L 129.70097 290.134159 
L 129.882951 241.768559 
L 130.064933 269.243101 
L 130.246914 270.146061 
L 130.428895 286.624287 
L 130.610876 262.486498 
L 130.792858 286.616373 
L 130.974839 252.431724 
L 131.15682 287.397884 
L 131.338801 286.638137 
L 131.520783 259.753191 
L 131.702764 285.305612 
L 131.884745 278.037566 
L 132.066726 288.607246 
L 132.248708 288.308986 
L 132.430689 285.694389 
L 132.61267 280.275257 
L 132.976633 290.887971 
L 133.158614 280.573517 
L 133.340595 293.066307 
L 133.522576 283.533859 
L 133.704558 291.867332 
L 134.06852 288.83428 
L 134.250501 281.553373 
L 134.432483 281.21307 
L 134.614464 289.938287 
L 134.796445 291.006681 
L 134.978426 280.300978 
L 135.160408 289.540607 
L 135.342389 288.399008 
L 135.52437 290.030288 
L 135.888333 276.854418 
L 136.070314 281.291716 
L 136.252295 263.356052 
L 136.434276 277.298593 
L 136.616258 240.249066 
L 136.798239 285.830906 
L 136.98022 273.98954 
L 137.162201 235.954716 
L 137.526164 281.604814 
L 137.708145 276.114457 
L 137.890126 245.006387 
L 138.072108 284.402424 
L 138.618051 276.687235 
L 138.800033 276.468609 
L 139.709939 289.835405 
L 140.073901 272.984458 
L 140.255883 287.759951 
L 140.437864 289.962029 
L 140.801826 244.70961 
L 140.983808 272.339465 
L 141.34777 280.13874 
L 141.529751 292.846693 
L 141.893714 286.560975 
L 142.257676 285.495549 
L 142.439658 274.292251 
L 142.621639 284.495414 
L 142.80362 284.032443 
L 142.985601 287.050656 
L 143.167583 243.337021 
L 143.349564 283.759409 
L 143.531545 262.053205 
L 143.713526 289.237895 
L 143.895508 268.509569 
L 144.077489 290.953261 
L 144.25947 289.427832 
L 144.441451 286.804332 
L 144.623433 267.510918 
L 144.805414 286.903257 
L 144.987395 291.653653 
L 145.533339 286.141532 
L 145.71532 286.923042 
L 145.897301 292.217527 
L 146.261264 288.11163 
L 146.625226 253.695991 
L 146.807208 285.286816 
L 146.989189 284.505306 
L 147.17117 140.579783 
L 147.353151 285.780454 
L 147.899095 272.683725 
L 148.081076 282.966027 
L 148.445039 275.461549 
L 148.62702 290.522936 
L 148.809001 269.790158 
L 148.990982 280.816874 
L 149.172964 283.46659 
L 149.536926 291.155069 
L 149.718907 288.086404 
L 149.900889 289.635575 
L 150.264851 283.127276 
L 150.810795 294.093152 
L 150.992776 289.647446 
L 151.174757 250.686681 
L 151.356739 290.721776 
L 151.53872 289.101378 
L 151.902682 288.03892 
L 152.266645 288.353503 
L 152.448626 286.109875 
L 152.812589 216.774077 
L 152.99457 273.8827 
L 153.176551 217.956235 
L 153.358532 287.762918 
L 153.540514 276.025424 
L 153.722495 287.611562 
L 153.904476 283.017469 
L 154.086457 287.520551 
L 154.268439 285.298687 
L 154.45042 272.551165 
L 154.632401 284.934642 
L 154.814382 288.861583 
L 154.996364 261.322288 
L 155.178345 287.043731 
L 155.542307 262.854501 
L 155.724289 287.427561 
L 155.90627 259.46235 
L 156.088251 285.017739 
L 156.270232 282.705854 
L 156.452214 287.010591 
L 156.634195 257.744016 
L 156.816176 287.264334 
L 157.180139 282.242883 
L 157.36212 238.137504 
L 157.544101 277.60823 
L 157.726082 271.117934 
L 157.908064 285.179482 
L 158.272026 279.948804 
L 158.454007 264.682642 
L 158.635989 289.288347 
L 158.81797 268.884991 
L 159.545895 291.665524 
L 159.727876 285.522259 
L 160.27382 292.324367 
L 160.637782 287.887564 
L 161.001745 284.836706 
L 161.183726 287.475045 
L 161.365707 284.527635 
L 161.547689 269.147143 
L 161.72967 291.077907 
L 161.911651 281.483136 
L 162.093632 286.810267 
L 162.457595 285.749787 
L 162.639576 268.825636 
L 163.003539 289.510929 
L 163.18552 285.531162 
L 163.367501 274.436682 
L 163.549482 255.399485 
L 163.731464 288.80757 
L 163.913445 289.412993 
L 164.095426 267.329884 
L 164.277407 284.827803 
L 164.459389 283.177728 
L 165.187313 247.89936 
L 165.369295 251.992496 
L 165.551276 288.219953 
L 165.733257 283.35975 
L 165.915238 231.46944 
L 166.09722 288.967829 
L 166.279201 247.870276 
L 166.461182 288.917377 
L 166.643163 278.313567 
L 166.825145 289.607876 
L 167.007126 277.743757 
L 167.371088 290.674292 
L 167.55307 275.051998 
L 167.917032 286.271618 
L 168.099013 286.396759 
L 168.280995 284.450897 
L 168.462976 284.453865 
L 168.644957 285.928248 
L 168.826938 280.68283 
L 169.00892 265.115935 
L 169.190901 290.672313 
L 169.372882 250.68866 
L 169.554863 283.555623 
L 169.736845 272.535337 
L 170.100807 285.344193 
L 170.46477 285.819035 
L 170.828732 288.520884 
L 171.010713 260.747391 
L 171.192695 285.937745 
L 171.556657 266.611686 
L 171.92062 290.620872 
L 172.648545 285.151289 
L 172.830526 285.201741 
L 173.012507 292.490561 
L 173.194488 280.239644 
L 173.37647 282.545595 
L 173.740432 288.768989 
L 173.922413 277.906984 
L 174.104395 278.348587 
L 174.286376 285.033567 
L 174.468357 283.177728 
L 174.650338 284.854513 
L 174.83232 285.053353 
L 175.014301 290.641646 
L 175.196282 284.174895 
L 175.378263 282.020301 
L 175.560245 274.097863 
L 175.924207 289.807706 
L 176.106188 283.364103 
L 176.28817 284.654189 
L 176.834113 251.241652 
L 177.016095 286.801364 
L 177.198076 263.428268 
L 177.380057 270.587861 
L 177.562038 286.125044 
L 177.74402 284.358897 
L 177.926001 279.358219 
L 178.107982 246.021361 
L 178.289963 256.634074 
L 178.471945 287.577433 
L 178.653926 286.730137 
L 178.835907 281.403007 
L 179.017888 292.16114 
L 179.19987 278.93383 
L 179.381851 285.007847 
L 179.563832 286.434351 
L 179.927795 267.003431 
L 180.109776 284.202594 
L 180.291757 283.615472 
L 180.473738 288.003307 
L 180.65572 289.275487 
L 180.837701 278.761699 
L 181.019682 288.025071 
L 181.201663 287.663498 
L 181.383645 289.223057 
L 181.565626 289.475316 
L 181.747607 277.91292 
L 181.929588 289.374412 
L 182.11157 275.435829 
L 182.293551 287.227237 
L 182.657513 285.714174 
L 182.839494 287.251474 
L 183.021476 284.315369 
L 183.203457 289.795835 
L 183.385438 210.206422 
L 183.567419 237.860018 
L 183.749401 284.335154 
L 183.931382 268.936792 
L 184.113363 280.816049 
L 184.295344 283.420095 
L 184.477326 233.316376 
L 184.659307 269.17138 
L 184.841288 282.851274 
L 185.205251 258.552237 
L 185.387232 259.725294 
L 185.569213 289.480404 
L 185.933176 280.068701 
L 186.297138 289.754286 
L 186.479119 285.393656 
L 186.661101 276.230199 
L 186.843082 285.952584 
L 187.207044 289.129078 
L 187.389026 231.919748 
L 187.571007 272.092151 
L 187.934969 281.693847 
L 188.116951 290.359709 
L 188.298932 277.729908 
L 188.480913 289.872996 
L 188.662894 287.104075 
L 189.026857 234.521287 
L 189.208838 289.57622 
L 189.390819 287.81337 
L 189.572801 290.457645 
L 189.754782 283.49231 
L 189.936763 282.972952 
L 190.118744 289.371445 
L 190.300726 285.850196 
L 190.482707 286.15736 
L 190.664688 283.741602 
L 190.846669 284.361864 
L 191.210632 281.477201 
L 191.392613 287.884596 
L 191.574594 226.33917 
L 191.756576 277.106876 
L 191.938557 276.506201 
L 192.484501 284.412316 
L 192.666482 283.844485 
L 193.030444 264.163877 
L 193.212426 289.17854 
L 193.394407 278.871507 
L 193.576388 291.125391 
L 193.758369 269.44293 
L 193.940351 278.776538 
L 194.304313 287.932081 
L 194.486294 285.400581 
L 194.668276 255.724455 
L 194.850257 254.062014 
L 195.578182 288.216986 
L 195.760163 289.717189 
L 195.942144 286.228586 
L 196.124126 279.634221 
L 196.306107 279.512543 
L 196.488088 280.79239 
L 196.852051 295.488 
L 197.034032 198.629187 
L 197.216013 270.416356 
L 197.397994 285.154256 
L 197.579976 285.961487 
L 197.761957 274.102315 
L 197.943938 247.790146 
L 198.125919 282.584175 
L 198.307901 283.353815 
L 198.671863 279.64906 
L 199.035826 266.292652 
L 199.217807 283.741602 
L 199.399788 283.750506 
L 199.581769 291.333135 
L 199.763751 280.727841 
L 199.945732 184.369095 
L 200.127713 279.002088 
L 200.309694 277.138334 
L 200.491675 288.098275 
L 200.673657 260.627196 
L 200.855638 283.405256 
L 201.037619 210.150034 
L 201.2196 258.911336 
L 201.583563 190.334295 
L 201.765544 255.405421 
L 201.947525 257.233562 
L 202.129507 222.928224 
L 202.311488 284.548833 
L 202.493469 287.166398 
L 202.67545 251.869828 
L 202.857432 285.207676 
L 203.039413 287.8935 
L 203.221394 281.72946 
L 203.585357 287.848983 
L 203.949319 279.62235 
L 204.1313 243.231666 
L 204.313282 269.472608 
L 204.677244 280.969714 
L 204.859225 291.104617 
L 205.041207 267.251239 
L 205.223188 264.213735 
L 205.405169 268.511053 
L 205.58715 280.370226 
L 205.769132 231.546107 
L 205.951113 214.944452 
L 206.133094 291.217392 
L 206.315075 289.822544 
L 206.497057 150.613782 
L 206.679038 265.810391 
L 206.861019 288.60873 
L 207.043 227.155305 
L 207.224982 277.795693 
L 207.406963 289.255702 
L 207.588944 277.387626 
L 207.952907 237.613694 
L 208.134888 280.89453 
L 208.316869 276.616997 
L 208.49885 258.600216 
L 208.680832 286.914732 
L 208.862813 223.867025 
L 209.044794 235.414583 
L 209.226775 263.560828 
L 209.408757 255.852564 
L 209.590738 284.550812 
L 209.772719 253.775131 
L 209.9547 286.810267 
L 210.136682 281.658234 
L 210.318663 254.77032 
L 210.500644 286.575814 
L 210.682625 219.044414 
L 210.864607 281.9283 
L 211.046588 282.718714 
L 211.228569 288.082447 
L 211.592532 289.504994 
L 211.774513 250.796488 
L 211.956494 287.276206 
L 212.320457 264.655932 
L 212.8664 280.916294 
L 213.048382 268.564473 
L 213.230363 291.754557 
L 213.412344 276.779235 
L 213.776307 291.422168 
L 214.140269 286.669793 
L 214.32225 265.979553 
L 214.504232 278.144405 
L 214.686213 279.517885 
L 215.050175 287.617498 
L 215.232157 279.376026 
L 215.414138 237.999503 
L 215.7781 290.003578 
L 215.960082 262.029463 
L 216.142063 291.226295 
L 216.324044 281.661202 
L 216.688007 205.605205 
L 216.869988 274.73979 
L 217.051969 290.116353 
L 217.23395 285.93181 
L 217.415932 287.068462 
L 217.597913 291.11352 
L 217.779894 275.472233 
L 218.143857 283.711925 
L 218.325838 279.996288 
L 218.507819 286.405464 
L 218.6898 280.888595 
L 218.871781 256.996141 
L 219.235744 121.614801 
L 219.417725 274.856126 
L 219.599706 222.347532 
L 219.781688 291.413264 
L 220.14565 229.108091 
L 220.327631 273.726398 
L 220.509613 244.852063 
L 220.691594 286.059424 
L 221.055556 190.797265 
L 221.419519 244.226459 
L 221.6015 246.80485 
L 222.147444 251.469181 
L 222.329425 275.022321 
L 222.693388 273.467214 
L 222.875369 244.941096 
L 223.05735 112.466183 
L 223.239331 281.699783 
L 223.421313 92.321022 
L 223.603294 279.726222 
L 223.785275 256.055954 
L 224.149238 285.840798 
L 224.695181 241.2769 
L 224.877163 289.018281 
L 225.059144 265.42543 
L 225.241125 188.316217 
L 225.605088 281.815525 
L 225.96905 193.391088 
L 226.151031 249.331898 
L 226.333013 252.145335 
L 226.514994 232.931557 
L 226.696975 271.864623 
L 226.878956 286.46205 
L 227.060938 275.225612 
L 227.242919 288.161588 
L 227.4249 284.899029 
L 227.606881 245.803725 
L 227.788863 247.60021 
L 227.970844 286.365103 
L 228.152825 288.863958 
L 228.334806 273.609666 
L 228.516788 278.187932 
L 228.698769 290.395322 
L 228.88075 290.858293 
L 229.062731 290.879067 
L 229.426694 250.004096 
L 229.608675 249.564867 
L 229.790656 290.300354 
L 230.154619 285.240322 
L 230.3366 272.591724 
L 230.518581 289.902674 
L 230.882544 262.759532 
L 231.246506 274.528683 
L 231.428488 268.028297 
L 231.79245 274.959998 
L 231.974431 276.378587 
L 232.156413 283.263793 
L 232.338394 283.332051 
L 232.520375 284.266896 
L 232.702356 267.95905 
L 232.884338 285.601795 
L 233.066319 282.324991 
L 233.2483 204.080963 
L 233.430281 266.783816 
L 233.612263 243.071406 
L 233.794244 263.53115 
L 233.976225 241.872431 
L 234.158206 287.759951 
L 234.340188 63.076706 
L 234.522169 260.864122 
L 234.70415 261.776462 
L 234.886131 240.870812 
L 235.250094 270.866713 
L 235.432075 275.355452 
L 235.614056 258.551247 
L 235.796038 278.067243 
L 235.978019 273.06716 
L 236.16 284.16896 
L 236.523962 263.821991 
L 236.705944 221.4483 
L 236.887925 281.800687 
L 237.069906 253.500118 
L 237.251887 281.06666 
L 237.433869 287.358031 
L 237.61585 282.643531 
L 237.979812 236.531648 
L 238.161794 282.849295 
L 238.343775 291.217392 
L 238.707737 276.338028 
L 238.889719 259.094348 
L 239.0717 287.746101 
L 239.253681 275.758325 
L 239.435662 287.475045 
L 239.617644 244.062639 
L 239.799625 280.082777 
L 240.163587 279.018114 
L 240.345569 248.330279 
L 240.52755 279.915169 
L 240.709531 283.575408 
L 241.073494 248.802153 
L 241.255475 282.760263 
L 241.619437 287.227732 
L 241.801419 276.518072 
L 241.9834 283.30089 
L 242.165381 262.142238 
L 242.529344 275.224128 
L 243.075287 281.333759 
L 243.257269 275.942327 
L 243.43925 281.408942 
L 243.621231 281.668621 
L 243.803212 280.530485 
L 243.985194 289.766157 
L 244.167175 256.847753 
L 244.349156 269.917772 
L 244.531137 263.234374 
L 244.8951 287.902403 
L 245.077081 289.125121 
L 245.259062 286.707385 
L 245.441044 289.461961 
L 245.623025 277.846145 
L 245.805006 276.028392 
L 245.986987 284.220401 
L 246.168969 271.199845 
L 246.35095 274.493317 
L 246.532931 247.004679 
L 246.714912 238.768153 
L 246.896894 185.401876 
L 247.260856 276.913774 
L 247.442837 253.320074 
L 247.624819 279.814265 
L 247.8068 257.097045 
L 247.988781 279.199444 
L 248.170762 279.548156 
L 248.352744 274.286316 
L 248.534725 280.63584 
L 248.716706 274.437672 
L 249.080669 290.389387 
L 249.26265 283.935496 
L 249.444631 239.215296 
L 249.626612 291.291586 
L 249.990575 281.978752 
L 250.354537 90.053653 
L 250.536519 228.034751 
L 250.900481 282.231012 
L 251.082462 285.065224 
L 251.264444 292.900112 
L 251.446425 287.142656 
L 251.628406 290.947326 
L 251.810387 281.076553 
L 251.992369 279.239509 
L 252.17435 281.860042 
L 252.356331 291.974171 
L 252.902275 282.32697 
L 253.084256 288.080469 
L 253.448219 284.192702 
L 253.6302 53.568 
L 254.358125 281.408942 
L 254.540106 277.538982 
L 254.722087 279.25138 
L 254.904068 290.151966 
L 255.08605 292.336238 
L 255.450012 203.327152 
L 255.813975 281.53062 
L 256.359918 262.39153 
L 256.5419 285.50742 
L 256.723881 287.955823 
L 256.905862 287.075882 
L 257.087843 285.240322 
L 257.269825 286.814224 
L 257.633787 284.557736 
L 257.99775 258.824281 
L 258.179731 258.923701 
L 258.361712 286.297834 
L 258.543693 290.031277 
L 258.907656 285.035546 
L 259.089637 286.112843 
L 259.271618 281.572169 
L 259.4536 291.428103 
L 259.635581 287.949887 
L 259.817562 280.160999 
L 259.999543 292.923855 
L 260.545487 287.332593 
L 260.727468 262.130367 
L 261.091431 285.908068 
L 261.273412 285.98523 
L 261.819356 280.447388 
L 262.001337 283.170308 
L 262.3653 263.422827 
L 262.547281 285.569743 
L 262.729262 281.652299 
L 262.911243 210.980018 
L 263.093225 285.756712 
L 263.457187 284.311412 
L 263.639168 290.775196 
L 263.82115 279.570414 
L 264.003131 282.999662 
L 264.185112 288.768989 
L 264.367093 279.791512 
L 264.549075 289.540607 
L 264.731056 221.543269 
L 264.913037 288.047823 
L 265.095018 267.42782 
L 265.458981 285.866519 
L 265.640962 283.774248 
L 265.822943 268.576344 
L 266.004925 292.58553 
L 266.186906 273.099212 
L 266.368887 290.573388 
L 266.550868 273.093276 
L 267.096812 288.31789 
L 267.460775 285.873938 
L 267.642756 288.294148 
L 268.1887 285.694389 
L 268.370681 276.022456 
L 268.552662 212.179983 
L 268.916625 282.272561 
L 269.098606 281.61075 
L 269.280587 288.638408 
L 269.462568 275.906713 
L 269.64455 254.829675 
L 269.826531 289.938287 
L 270.008512 273.734312 
L 270.190493 286.376974 
L 270.372475 287.006139 
L 270.736437 286.783557 
L 270.918418 281.118102 
L 271.1004 282.076688 
L 271.282381 269.552737 
L 271.828325 286.062391 
L 272.192287 284.002765 
L 272.556249 289.926416 
L 273.102193 290.589216 
L 273.284174 286.418523 
L 274.012099 216.263622 
L 275.103987 289.077636 
L 275.467949 288.638408 
L 276.195874 288.252599 
L 276.377856 242.276047 
L 276.559837 277.052269 
L 277.287762 288.027049 
L 277.469743 282.20727 
L 278.015687 287.765886 
L 278.561631 199.908291 
L 278.743612 286.644072 
L 278.925593 268.92654 
L 279.107574 269.336091 
L 279.653518 260.355646 
L 279.835499 289.034109 
L 280.199462 281.828386 
L 280.381443 207.476082 
L 280.563424 271.145238 
L 280.745406 285.731981 
L 280.927387 284.398071 
L 281.109368 287.970662 
L 281.291349 221.022921 
L 281.655312 284.093777 
L 281.837293 271.567847 
L 282.019274 274.056809 
L 282.201256 249.271059 
L 282.383237 286.581749 
L 282.565218 289.632608 
L 282.747199 279.667856 
L 282.929181 286.813235 
L 283.111162 278.634086 
L 283.293143 286.359167 
L 283.475124 277.364873 
L 284.021068 290.015449 
L 284.385031 288.95299 
L 284.748993 286.442265 
L 284.930974 289.053894 
L 285.476918 283.700054 
L 285.658899 288.682924 
L 286.022862 284.827803 
L 286.204843 277.59438 
L 286.568806 276.630847 
L 286.750787 282.367529 
L 286.932768 276.195858 
L 287.114749 236.290073 
L 287.296731 278.288836 
L 287.478712 274.879868 
L 287.660693 277.586466 
L 287.842674 240.722918 
L 288.024656 285.949616 
L 288.388618 282.10142 
L 288.570599 287.86679 
L 288.752581 285.801228 
L 288.934562 286.957171 
L 289.116543 268.721764 
L 289.298524 275.607563 
L 289.480506 249.204779 
L 289.662487 260.420937 
L 289.844468 142.529602 
L 290.026449 232.939471 
L 290.390412 287.299948 
L 290.572393 288.685892 
L 290.936355 285.130514 
L 291.118337 279.147508 
L 291.300318 255.126451 
L 291.482299 286.650008 
L 291.66428 282.429852 
L 291.846262 283.379535 
L 292.028243 270.386678 
L 292.392205 287.949887 
L 292.756168 241.890238 
L 292.938149 289.825512 
L 293.12013 283.949346 
L 293.302112 288.214018 
L 293.484093 264.49864 
L 293.666074 280.450355 
L 293.848055 285.617227 
L 294.030037 279.165315 
L 294.212018 253.713797 
L 294.393999 291.178811 
L 294.57598 285.866519 
L 294.757962 248.716088 
L 294.939943 279.218735 
L 295.303905 182.267921 
L 295.485887 232.939471 
L 296.03183 287.762918 
L 296.395793 287.502745 
L 296.941737 281.462362 
L 297.123718 287.157495 
L 298.033624 289.766157 
L 298.579568 258.551247 
L 298.94353 286.658911 
L 299.489474 288.739312 
L 299.853437 244.317866 
L 300.217399 235.836005 
L 300.39938 289.956094 
L 301.127305 263.453989 
L 301.673249 268.75441 
L 301.85523 276.820784 
L 302.401174 289.754286 
L 302.583155 206.063428 
L 302.765137 288.685892 
L 302.947118 287.700595 
L 303.129099 271.627202 
L 303.493062 288.116082 
L 303.675043 289.17854 
L 303.857024 289.338799 
L 304.039005 294.12283 
L 304.220987 283.527923 
L 304.402968 286.549104 
L 304.584949 276.452781 
L 304.76693 284.786254 
L 304.948912 254.744599 
L 305.130893 286.365103 
L 305.494855 251.505783 
L 305.676837 288.464299 
L 305.858818 234.073155 
L 306.040799 273.342568 
L 306.586743 290.579323 
L 306.950705 283.343922 
L 307.132687 287.112979 
L 307.67863 270.161128 
L 307.860611 292.425271 
L 308.042593 286.626266 
L 308.224574 289.166669 
L 308.406555 288.83428 
L 308.588536 286.994268 
L 308.952499 285.412452 
L 309.13448 288.056727 
L 309.498443 282.198367 
L 310.226368 288.288212 
L 310.408349 292.13443 
L 310.772311 216.272525 
L 311.136274 274.911524 
L 311.500236 289.647446 
L 312.410143 267.941243 
L 312.592124 281.319909 
L 312.774105 284.252057 
L 313.138068 293.44618 
L 313.50203 280.64326 
L 313.865993 279.05254 
L 314.411936 283.211362 
L 314.593918 237.901567 
L 314.775899 233.194698 
L 315.139861 290.300354 
L 315.321843 293.802312 
L 315.867786 282.533724 
L 316.595711 287.510659 
L 316.777693 267.027173 
L 317.141655 260.637583 
L 317.505618 289.160734 
L 317.687599 284.26096 
L 317.86958 143.882901 
L 318.233543 289.214153 
L 318.779486 241.40946 
L 319.32543 284.073991 
L 319.507411 287.299948 
L 319.871374 221.347396 
L 320.235336 244.492964 
L 320.599299 289.166669 
L 320.78128 280.619518 
L 320.963261 283.637731 
L 321.327224 286.056456 
L 321.509205 276.426072 
L 322.055149 287.718402 
L 322.23713 285.937745 
L 322.419111 285.42729 
L 322.601093 258.388021 
L 322.783074 279.96661 
L 322.965055 284.465736 
L 323.147036 291.837654 
L 323.329018 242.691533 
L 323.510999 286.934913 
L 323.69298 289.119185 
L 323.874961 282.913597 
L 324.602886 279.853835 
L 324.966849 286.026778 
L 325.14883 279.343381 
L 325.330811 291.33907 
L 325.876755 288.406922 
L 326.240717 102.749734 
L 326.786661 277.464788 
L 327.150624 207.956859 
L 327.878549 282.049979 
L 328.424492 287.932081 
L 329.334399 287.160463 
L 330.062324 284.002765 
L 330.426286 291.534942 
L 330.608267 286.270135 
L 330.97223 286.412587 
L 331.154211 288.71557 
L 331.336192 282.014365 
L 331.518174 286.181102 
L 332.42808 282.999662 
L 333.337986 285.919939 
L 333.519967 191.830046 
L 334.247892 129.474421 
L 334.611855 278.838861 
L 335.157799 190.595458 
L 335.885724 291.368748 
L 336.067705 155.397813 
L 336.249686 282.501078 
L 336.79563 286.311683 
L 336.977611 292.318431 
L 337.159592 289.220089 
L 338.069499 288.104211 
L 338.433461 288.430665 
L 338.979405 284.703157 
L 339.343367 285.991165 
L 340.071292 287.133753 
L 340.617236 290.662421 
L 340.799217 219.311512 
L 340.981199 64.050132 
L 341.16318 286.299812 
L 341.345161 287.664982 
L 341.527142 148.844997 
L 341.709124 291.831719 
L 341.891105 264.421479 
L 342.073086 280.744164 
L 342.437049 204.158125 
L 342.61903 290.537775 
L 342.801011 283.917689 
L 342.982992 247.000722 
L 343.164974 286.679686 
L 343.346955 285.344193 
L 343.528936 279.070347 
L 343.892898 286.160327 
L 344.07488 278.868539 
L 344.620823 285.908068 
L 344.802805 168.877383 
L 344.984786 285.118643 
L 345.712711 201.54056 
L 345.894692 260.379388 
L 346.076673 254.135219 
L 346.804598 206.288977 
L 346.98658 278.945701 
L 347.350542 166.663434 
L 347.532523 279.806351 
L 347.896486 288.768989 
L 348.078467 227.953632 
L 348.44243 293.469923 
L 348.624411 286.590653 
L 348.806392 169.470935 
L 348.988373 285.142385 
L 349.170355 284.599285 
L 349.352336 277.93963 
L 349.534317 278.981314 
L 349.89828 226.042394 
L 350.080261 273.579989 
L 350.444223 166.918661 
L 350.626205 277.46182 
L 350.990167 284.614124 
L 351.172148 281.408942 
L 351.35413 288.021113 
L 351.536111 262.071012 
L 351.718092 282.471401 
L 351.900073 281.943139 
L 352.082055 283.498246 
L 352.446017 260.857198 
L 352.627998 287.848983 
L 353.719886 279.732157 
L 353.901867 285.065224 
L 354.447811 286.798396 
L 354.993755 269.401381 
L 355.175736 291.250037 
L 355.357717 288.632472 
L 355.539698 250.360227 
L 356.267623 273.977669 
L 356.813567 269.561641 
L 357.723473 280.07345 
L 358.451398 170.159456 
L 358.63338 276.824741 
L 359.179323 246.258782 
L 359.361305 289.083572 
L 359.543286 271.395717 
L 359.725267 288.49002 
L 360.08923 276.049166 
L 360.271211 242.839921 
L 361.181117 230.594939 
L 361.545079 283.290503 
L 361.727061 283.116394 
L 361.909042 158.128153 
L 362.091023 292.08101 
L 362.454986 276.61304 
L 362.636967 284.501349 
L 362.818948 274.416897 
L 363.000929 272.220754 
L 363.182911 275.420001 
L 363.364892 285.789357 
L 363.546873 279.034733 
L 363.910836 217.964149 
L 364.092817 156.881694 
L 364.274798 280.81539 
L 364.820742 262.04727 
L 365.002723 287.66795 
L 365.366686 291.778299 
L 365.730648 267.725586 
L 366.094611 264.32651 
L 366.640554 260.394227 
L 366.822536 222.831277 
L 367.550461 291.813912 
L 368.278386 268.184599 
L 368.642348 285.433226 
L 369.188292 281.78288 
L 369.370273 267.697887 
L 369.552254 289.101378 
L 369.734236 281.587008 
L 369.916217 283.682247 
L 370.098198 278.090985 
L 370.280179 286.213747 
L 370.462161 204.490514 
L 371.008104 150.975849 
L 371.190086 287.605627 
L 371.372067 285.848712 
L 371.736029 285.860584 
L 371.918011 274.993632 
L 372.099992 287.653111 
L 372.281973 116.069045 
L 372.645936 286.955687 
L 373.009898 150.423846 
L 373.191879 288.341632 
L 373.373861 282.474368 
L 374.101786 245.326905 
L 374.829711 275.583227 
L 375.375654 214.405804 
L 375.557636 278.821055 
L 375.921598 291.968236 
L 376.103579 283.053082 
L 376.285561 292.027591 
L 376.831504 281.644385 
L 377.013486 290.383451 
L 377.377448 263.219535 
L 377.559429 281.046875 
L 378.105373 269.511189 
L 378.287354 244.1398 
L 379.19726 263.297686 
L 379.743204 253.933411 
L 379.925185 289.688995 
L 380.107167 244.110123 
L 380.289148 288.558278 
L 380.471129 275.653464 
L 380.65311 244.596836 
L 380.835092 287.3504 
L 381.017073 271.461008 
L 381.199054 284.952449 
L 382.290942 231.485268 
L 383.382829 252.621661 
L 384.110754 184.820195 
L 384.656698 282.210238 
L 385.202642 179.062739 
L 385.748585 279.699512 
L 385.930567 282.800822 
L 386.294529 282.637595 
L 386.47651 243.96767 
L 386.658492 278.743893 
L 386.840473 285.87839 
L 387.568398 294.668898 
L 387.93236 279.868674 
L 388.114342 290.353774 
L 388.478304 286.62033 
L 389.024248 289.433768 
L 390.662079 272.030818 
L 391.208023 276.470588 
L 396.485479 276.298458 
L 397.031423 279.50364 
L 397.577366 264.789481 
L 398.12331 290.018417 
L 398.487273 285.860584 
L 398.487273 285.860584 
" style="fill:none;stroke:#0000ff;stroke-linecap:square;stroke-width:1.5;"/>
   </g>
   <g id="patch_3">
    <path d="M 57.6 307.584 
L 57.6 41.472 
" style="fill:none;stroke:#000000;stroke-linecap:square;stroke-linejoin:miter;stroke-width:0.8;"/>
   </g>
   <g id="patch_4">
    <path d="M 414.72 307.584 
L 414.72 41.472 
" style="fill:none;stroke:#000000;stroke-linecap:square;stroke-linejoin:miter;stroke-width:0.8;"/>
   </g>
   <g id="patch_5">
    <path d="M 57.6 307.584 
L 414.72 307.584 
" style="fill:none;stroke:#000000;stroke-linecap:square;stroke-linejoin:miter;stroke-width:0.8;"/>
   </g>
   <g id="patch_6">
    <path d="M 57.6 41.472 
L 414.72 41.472 
" style="fill:none;stroke:#000000;stroke-linecap:square;stroke-linejoin:miter;stroke-width:0.8;"/>
   </g>
   <g id="text_19">
    <!-- temperature-&gt;ping -->
    <g transform="translate(178.169062 35.472)scale(0.12 -0.12)">
     <defs>
      <path d="M 313 2009 
L 1997 2009 
L 1997 1497 
L 313 1497 
L 313 2009 
z
" id="DejaVuSans-2d" transform="scale(0.015625)"/>
      <path d="M 678 3150 
L 678 3719 
L 4684 2266 
L 4684 1747 
L 678 294 
L 678 863 
L 3897 2003 
L 678 3150 
z
" id="DejaVuSans-3e" transform="scale(0.015625)"/>
      <path d="M 3513 2113 
L 3513 0 
L 2938 0 
L 2938 2094 
Q 2938 2591 2744 2837 
Q 2550 3084 2163 3084 
Q 1697 3084 1428 2787 
Q 1159 2491 1159 1978 
L 1159 0 
L 581 0 
L 581 3500 
L 1159 3500 
L 1159 2956 
Q 1366 3272 1645 3428 
Q 1925 3584 2291 3584 
Q 2894 3584 3203 3211 
Q 3513 2838 3513 2113 
z
" id="DejaVuSans-6e" transform="scale(0.015625)"/>
      <path d="M 2906 1791 
Q 2906 2416 2648 2759 
Q 2391 3103 1925 3103 
Q 1463 3103 1205 2759 
Q 947 2416 947 1791 
Q 947 1169 1205 825 
Q 1463 481 1925 481 
Q 2391 481 2648 825 
Q 2906 1169 2906 1791 
z
M 3481 434 
Q 3481 -459 3084 -895 
Q 2688 -1331 1869 -1331 
Q 1566 -1331 1297 -1286 
Q 1028 -1241 775 -1147 
L 775 -588 
Q 1028 -725 1275 -790 
Q 1522 -856 1778 -856 
Q 2344 -856 2625 -561 
Q 2906 -266 2906 331 
L 2906 616 
Q 2728 306 2450 153 
Q 2172 0 1784 0 
Q 1141 0 747 490 
Q 353 981 353 1791 
Q 353 2603 747 3093 
Q 1141 3584 1784 3584 
Q 2172 3584 2450 3431 
Q 2728 3278 2906 2969 
L 2906 3500 
L 3481 3500 
L 3481 434 
z
" id="DejaVuSans-67" transform="scale(0.015625)"/>
     </defs>
     <use xlink:href="#DejaVuSans-74"/>
     <use x="39.208984" xlink:href="#DejaVuSans-65"/>
     <use x="100.732422" xlink:href="#DejaVuSans-6d"/>
     <use x="198.144531" xlink:href="#DejaVuSans-70"/>
     <use x="261.621094" xlink:href="#DejaVuSans-65"/>
     <use x="323.144531" xlink:href="#DejaVuSans-72"/>
     <use x="364.257812" xlink:href="#DejaVuSans-61"/>
     <use x="425.537109" xlink:href="#DejaVuSans-74"/>
     <use x="464.746094" xlink:href="#DejaVuSans-75"/>
     <use x="528.125" xlink:href="#DejaVuSans-72"/>
     <use x="566.988281" xlink:href="#DejaVuSans-65"/>
     <use x="628.511719" xlink:href="#DejaVuSans-2d"/>
     <use x="664.595703" xlink:href="#DejaVuSans-3e"/>
     <use x="748.384766" xlink:href="#DejaVuSans-70"/>
     <use x="811.861328" xlink:href="#DejaVuSans-69"/>
     <use x="839.644531" xlink:href="#DejaVuSans-6e"/>
     <use x="903.023438" xlink:href="#DejaVuSans-67"/>
    </g>
   </g>
  </g>
  <g id="legend_1">
   <g id="patch_7">
    <path d="M 415.451563 22.678125 
L 453.8 22.678125 
Q 455.8 22.678125 455.8 20.678125 
L 455.8 7 
Q 455.8 5 453.8 5 
L 415.451563 5 
Q 413.451563 5 413.451563 7 
L 413.451563 20.678125 
Q 413.451563 22.678125 415.451563 22.678125 
z
" style="fill:#ffffff;opacity:0.8;stroke:#cccccc;stroke-linejoin:miter;"/>
   </g>
   <g id="line2d_19">
    <path d="M 417.451563 13.098438 
L 437.451563 13.098438 
" style="fill:none;stroke:#0000ff;stroke-linecap:square;stroke-width:1.5;"/>
   </g>
   <g id="line2d_20"/>
   <g id="text_20">
    <!-- p -->
    <g transform="translate(445.451563 16.598438)scale(0.1 -0.1)">
     <use xlink:href="#DejaVuSans-70"/>
    </g>
   </g>
  </g>
 </g>
 <defs>
  <clipPath id="p65d7d27d02">
   <rect height="266.112" width="357.12" x="57.6" y="41.472"/>
  </clipPath>
 </defs>
</svg>
