<?xml version="1.0" encoding="utf-8" standalone="no"?>
<!DOCTYPE svg PUBLIC "-//W3C//DTD SVG 1.1//EN"
  "http://www.w3.org/Graphics/SVG/1.1/DTD/svg11.dtd">
<!-- Created with matplotlib (https://matplotlib.org/) -->
<svg height="2090.594375pt" version="1.1" viewBox="0 0 2068.34375 2090.594375" width="2068.34375pt" xmlns="http://www.w3.org/2000/svg" xmlns:xlink="http://www.w3.org/1999/xlink">
 <metadata>
  <rdf:RDF xmlns:cc="http://creativecommons.org/ns#" xmlns:dc="http://purl.org/dc/elements/1.1/" xmlns:rdf="http://www.w3.org/1999/02/22-rdf-syntax-ns#">
   <cc:Work>
    <dc:type rdf:resource="http://purl.org/dc/dcmitype/StillImage"/>
    <dc:date>2022-07-24T11:30:59.474737</dc:date>
    <dc:format>image/svg+xml</dc:format>
    <dc:creator>
     <cc:Agent>
      <dc:title>Matplotlib v3.3.2, https://matplotlib.org/</dc:title>
     </cc:Agent>
    </dc:creator>
   </cc:Work>
  </rdf:RDF>
 </metadata>
 <defs>
  <style type="text/css">*{stroke-linecap:butt;stroke-linejoin:round;}</style>
 </defs>
 <g id="figure_1">
  <g id="patch_1">
   <path d="M 0 2090.594375 
L 2068.34375 2090.594375 
L 2068.34375 0 
L 0 0 
z
" style="fill:#ffffff;"/>
  </g>
  <g id="axes_1">
   <g id="patch_2">
    <path d="M 50.14375 2052.76 
L 1835.74375 2052.76 
L 1835.74375 278.68 
L 50.14375 278.68 
z
" style="fill:#ffffff;"/>
   </g>
   <g id="matplotlib.axis_1">
    <g id="xtick_1">
     <g id="line2d_1">
      <defs>
       <path d="M 0 0 
L 0 3.5 
" id="m976c6cd402" style="stroke:#000000;stroke-width:0.8;"/>
      </defs>
      <g>
       <use style="stroke:#000000;stroke-width:0.8;" x="74.559776" xlink:href="#m976c6cd402" y="2052.76"/>
      </g>
     </g>
     <g id="text_1">
      <text style="font-family:DejaVu Sans;font-size:10px;font-stretch:normal;font-style:normal;font-weight:normal;text-anchor:middle;" transform="rotate(-0, 74.559776, 2067.358437)" x="74.559776" y="2067.358437">0</text>
     </g>
    </g>
    <g id="xtick_2">
     <g id="line2d_2">
      <g>
       <use style="stroke:#000000;stroke-width:0.8;" x="433.115951" xlink:href="#m976c6cd402" y="2052.76"/>
      </g>
     </g>
     <g id="text_2">
      <text style="font-family:DejaVu Sans;font-size:10px;font-stretch:normal;font-style:normal;font-weight:normal;text-anchor:middle;" transform="rotate(-0, 433.115951, 2067.358437)" x="433.115951" y="2067.358437">2</text>
     </g>
    </g>
    <g id="xtick_3">
     <g id="line2d_3">
      <g>
       <use style="stroke:#000000;stroke-width:0.8;" x="791.672127" xlink:href="#m976c6cd402" y="2052.76"/>
      </g>
     </g>
     <g id="text_3">
      <text style="font-family:DejaVu Sans;font-size:10px;font-stretch:normal;font-style:normal;font-weight:normal;text-anchor:middle;" transform="rotate(-0, 791.672127, 2067.358437)" x="791.672127" y="2067.358437">4</text>
     </g>
    </g>
    <g id="xtick_4">
     <g id="line2d_4">
      <g>
       <use style="stroke:#000000;stroke-width:0.8;" x="1150.228302" xlink:href="#m976c6cd402" y="2052.76"/>
      </g>
     </g>
     <g id="text_4">
      <text style="font-family:DejaVu Sans;font-size:10px;font-stretch:normal;font-style:normal;font-weight:normal;text-anchor:middle;" transform="rotate(-0, 1150.228302, 2067.358437)" x="1150.228302" y="2067.358437">6</text>
     </g>
    </g>
    <g id="xtick_5">
     <g id="line2d_5">
      <g>
       <use style="stroke:#000000;stroke-width:0.8;" x="1508.784477" xlink:href="#m976c6cd402" y="2052.76"/>
      </g>
     </g>
     <g id="text_5">
      <text style="font-family:DejaVu Sans;font-size:10px;font-stretch:normal;font-style:normal;font-weight:normal;text-anchor:middle;" transform="rotate(-0, 1508.784477, 2067.358437)" x="1508.784477" y="2067.358437">8</text>
     </g>
    </g>
    <g id="text_6">
     <text style="font-family:DejaVu Sans;font-size:10px;font-stretch:normal;font-style:normal;font-weight:normal;text-anchor:middle;" transform="rotate(-0, 942.94375, 2081.036562)" x="942.94375" y="2081.036562">wind_speed from WeatherBitIO</text>
    </g>
   </g>
   <g id="matplotlib.axis_2">
    <g id="ytick_1">
     <g id="line2d_6">
      <defs>
       <path d="M 0 0 
L -3.5 0 
" id="m97445e82fd" style="stroke:#000000;stroke-width:0.8;"/>
      </defs>
      <g>
       <use style="stroke:#000000;stroke-width:0.8;" x="50.14375" xlink:href="#m97445e82fd" y="2035.48784"/>
      </g>
     </g>
     <g id="text_7">
      <text style="font-family:DejaVu Sans;font-size:10px;font-stretch:normal;font-style:normal;font-weight:normal;text-anchor:end;" transform="rotate(-0, 43.14375, 2039.287059)" x="43.14375" y="2039.287059">5.0</text>
     </g>
    </g>
    <g id="ytick_2">
     <g id="line2d_7">
      <g>
       <use style="stroke:#000000;stroke-width:0.8;" x="50.14375" xlink:href="#m97445e82fd" y="1823.79127"/>
      </g>
     </g>
     <g id="text_8">
      <text style="font-family:DejaVu Sans;font-size:10px;font-stretch:normal;font-style:normal;font-weight:normal;text-anchor:end;" transform="rotate(-0, 43.14375, 1827.590489)" x="43.14375" y="1827.590489">7.5</text>
     </g>
    </g>
    <g id="ytick_3">
     <g id="line2d_8">
      <g>
       <use style="stroke:#000000;stroke-width:0.8;" x="50.14375" xlink:href="#m97445e82fd" y="1612.094701"/>
      </g>
     </g>
     <g id="text_9">
      <text style="font-family:DejaVu Sans;font-size:10px;font-stretch:normal;font-style:normal;font-weight:normal;text-anchor:end;" transform="rotate(-0, 43.14375, 1615.89392)" x="43.14375" y="1615.89392">10.0</text>
     </g>
    </g>
    <g id="ytick_4">
     <g id="line2d_9">
      <g>
       <use style="stroke:#000000;stroke-width:0.8;" x="50.14375" xlink:href="#m97445e82fd" y="1400.398132"/>
      </g>
     </g>
     <g id="text_10">
      <text style="font-family:DejaVu Sans;font-size:10px;font-stretch:normal;font-style:normal;font-weight:normal;text-anchor:end;" transform="rotate(-0, 43.14375, 1404.197351)" x="43.14375" y="1404.197351">12.5</text>
     </g>
    </g>
    <g id="ytick_5">
     <g id="line2d_10">
      <g>
       <use style="stroke:#000000;stroke-width:0.8;" x="50.14375" xlink:href="#m97445e82fd" y="1188.701562"/>
      </g>
     </g>
     <g id="text_11">
      <text style="font-family:DejaVu Sans;font-size:10px;font-stretch:normal;font-style:normal;font-weight:normal;text-anchor:end;" transform="rotate(-0, 43.14375, 1192.500781)" x="43.14375" y="1192.500781">15.0</text>
     </g>
    </g>
    <g id="ytick_6">
     <g id="line2d_11">
      <g>
       <use style="stroke:#000000;stroke-width:0.8;" x="50.14375" xlink:href="#m97445e82fd" y="977.004993"/>
      </g>
     </g>
     <g id="text_12">
      <text style="font-family:DejaVu Sans;font-size:10px;font-stretch:normal;font-style:normal;font-weight:normal;text-anchor:end;" transform="rotate(-0, 43.14375, 980.804212)" x="43.14375" y="980.804212">17.5</text>
     </g>
    </g>
    <g id="ytick_7">
     <g id="line2d_12">
      <g>
       <use style="stroke:#000000;stroke-width:0.8;" x="50.14375" xlink:href="#m97445e82fd" y="765.308424"/>
      </g>
     </g>
     <g id="text_13">
      <text style="font-family:DejaVu Sans;font-size:10px;font-stretch:normal;font-style:normal;font-weight:normal;text-anchor:end;" transform="rotate(-0, 43.14375, 769.107643)" x="43.14375" y="769.107643">20.0</text>
     </g>
    </g>
    <g id="ytick_8">
     <g id="line2d_13">
      <g>
       <use style="stroke:#000000;stroke-width:0.8;" x="50.14375" xlink:href="#m97445e82fd" y="553.611854"/>
      </g>
     </g>
     <g id="text_14">
      <text style="font-family:DejaVu Sans;font-size:10px;font-stretch:normal;font-style:normal;font-weight:normal;text-anchor:end;" transform="rotate(-0, 43.14375, 557.411073)" x="43.14375" y="557.411073">22.5</text>
     </g>
    </g>
    <g id="ytick_9">
     <g id="line2d_14">
      <g>
       <use style="stroke:#000000;stroke-width:0.8;" x="50.14375" xlink:href="#m97445e82fd" y="341.915285"/>
      </g>
     </g>
     <g id="text_15">
      <text style="font-family:DejaVu Sans;font-size:10px;font-stretch:normal;font-style:normal;font-weight:normal;text-anchor:end;" transform="rotate(-0, 43.14375, 345.714504)" x="43.14375" y="345.714504">25.0</text>
     </g>
    </g>
    <g id="text_16">
     <text style="font-family:DejaVu Sans;font-size:10px;font-stretch:normal;font-style:normal;font-weight:normal;text-anchor:middle;" transform="rotate(-90, 14.798438, 1165.72)" x="14.798438" y="1165.72">ping[ms]</text>
    </g>
   </g>
   <g id="line2d_15">
    <path clip-path="url(#pb675054dad)" d="M 131.307386 1708.818864 
L 143.563733 1877.235581 
L 147.941166 1798.673472 
L 149.211172 1874.30812 
L 149.780559 1798.43387 
L 158.052091 1628.014283 
L 171.610893 1778.855145 
L 179.932265 1632.474024 
L 181.91024 1667.412939 
L 185.281385 1560.94881 
L 200.917662 1799.220355 
L 215.655934 1560.587001 
L 217.361227 1935.035893 
L 217.832191 1775.009324 
L 220.961848 1764.480948 
L 221.048081 1828.053428 
L 224.479105 1733.341469 
L 233.275564 1832.315586 
L 240.993844 1592.442203 
L 241.111629 1888.044203 
L 241.904935 1885.052409 
L 243.133886 1761.848854 
L 247.068861 1797.017428 
L 256.835393 1764.163403 
L 257.817837 1912.139305 
L 258.606661 1885.841163 
L 259.008244 1900.61898 
L 260.010408 1876.389726 
L 260.915763 1668.868464 
L 261.179301 1882.911066 
L 261.252806 1819.769036 
L 264.694945 1383.271879 
L 265.85846 1747.213565 
L 265.874595 1732.359522 
L 266.165025 1794.026733 
L 267.518575 1857.806675 
L 267.53471 1890.574481 
L 269.051402 1576.425458 
L 269.232473 1746.081694 
L 270.232845 1082.055887 
L 272.411074 1886.058288 
L 272.671027 1759.336722 
L 276.019942 1683.471086 
L 277.896983 1538.271873 
L 278.454538 1435.182902 
L 279.209299 1818.541196 
L 280.984152 1202.003164 
L 281.850065 1703.68875 
L 284.792018 1662.13977 
L 284.985639 1683.746933 
L 285.236628 1665.717442 
L 286.254928 1916.335602 
L 290.168568 1910.883239 
L 295.684955 1920.07087 
L 295.946701 1732.578275 
L 301.231819 1918.63839 
L 303.202085 1869.313089 
L 303.799081 1900.06362 
L 305.077334 1829.573611 
L 306.188858 1884.70343 
L 310.247714 1682.411834 
L 310.376794 1858.234302 
L 311.287527 1257.305364 
L 311.712416 1793.109381 
L 313.144848 1444.289887 
L 314.444614 1855.037684 
L 315.116907 1653.721303 
L 315.450364 1901.653269 
L 315.880632 1930.564506 
L 316.391574 1925.970148 
L 316.714275 1820.651105 
L 317.253902 1910.756221 
L 319.340699 1633.113146 
L 323.89974 1857.455729 
L 324.229612 1375.12541 
L 324.330008 1516.310146 
L 324.751311 1912.950809 
L 325.212056 1903.876083 
L 328.903392 1889.794412 
L 329.412542 1646.135509 
L 330.69438 1881.880809 
L 330.914892 1603.817365 
L 332.153704 1829.048402 
L 332.732772 1882.579408 
L 333.561037 1720.807946 
L 334.166997 1862.696395 
L 335.201431 1867.941404 
L 336.861546 1742.591523 
L 337.074887 1818.823458 
L 338.302942 1347.064709 
L 339.095351 1932.264593 
L 339.106108 1589.46669 
L 340.922195 1608.084013 
L 341.820378 1670.091093 
L 343.01437 1886.375833 
L 343.132694 1873.921018 
L 343.803194 1877.040014 
L 343.900004 1693.824973 
L 344.986429 1723.334192 
L 346.148151 1898.315519 
L 346.262889 1891.603455 
L 346.994344 1858.491362 
L 347.112667 1721.612393 
L 351.752384 1022.289241 
L 351.899392 1884.541129 
L 353.070078 1470.463648 
L 354.013081 1841.404425 
L 354.970426 1854.173962 
L 355.104884 1747.671698 
L 355.323604 1735.633121 
L 355.422207 1722.015258 
L 355.560251 1149.057852 
L 355.773592 1858.932901 
L 356.621577 1902.358924 
L 356.860017 1761.213765 
L 359.014939 1283.781548 
L 359.721295 1895.979801 
L 360.750351 1880.344497 
L 361.499734 1858.157766 
L 367.026877 1820.051298 
L 367.114723 1910.332828 
L 367.116516 1891.618851 
L 369.332393 1855.740517 
L 371.571577 1806.891836 
L 372.735092 1850.480434 
L 374.730457 1899.09174 
L 375.653739 1340.699699 
L 376.514274 1892.33862 
L 376.548336 1603.372802 
L 379.603235 1814.074398 
L 380.487076 1742.302204 
L 380.650219 1925.236266 
L 380.791849 1659.366545 
L 381.903373 1893.411216 
L 383.240787 1801.732488 
L 383.931008 1685.214696 
L 385.02819 1835.08432 
L 385.038947 1541.460629 
L 385.203883 1470.773128 
L 388.362762 1368.952119 
L 389.632051 1707.668646 
L 391.073447 1869.15296 
L 391.892748 1516.711284 
L 392.699499 1893.622912 
L 395.155609 1890.405124 
L 395.551814 1645.937926 
L 396.700986 1955.635894 
L 396.94839 1889.219623 
L 398.712486 1817.87788 
L 399.058493 1902.32223 
L 399.178609 1859.271615 
L 399.775605 1898.740324 
L 403.468734 1314.86425 
L 404.325683 1880.373529 
L 405.30992 1685.07998 
L 405.48382 1751.598036 
L 407.206682 1889.064379 
L 407.432573 1252.471626 
L 407.452293 1877.660991 
L 410.017763 1756.531036 
L 410.874712 1323.62002 
L 411.512942 1895.683425 
L 413.198156 1490.954868 
L 414.275617 1573.057854 
L 414.869028 1727.800989 
L 415.259854 1861.600278 
L 415.731355 1758.961313 
L 415.831751 1902.373037 
L 415.92139 1779.927741 
L 417.260597 1704.083917 
L 417.927512 1918.532542 
L 420.686602 1266.076659 
L 421.376822 1885.437311 
L 421.925413 1410.344614 
L 422.504481 1880.391877 
L 424.304433 1416.098961 
L 424.926528 1873.525851 
L 429.677398 1872.523821 
L 431.522169 1870.011688 
L 431.679934 1925.829017 
L 432.678513 1910.488072 
L 433.07651 1930.632604 
L 434.853156 1852.666682 
L 437.585354 1707.301705 
L 437.615831 1877.616085 
L 437.94391 1730.383687 
L 438.051477 1857.655665 
L 442.44379 1892.472694 
L 443.661089 1639.191862 
L 444.12004 1868.8403 
L 444.232986 1841.580839 
L 446.070586 1891.411004 
L 448.408372 1707.248075 
L 448.987441 1808.10153 
L 450.839383 1882.515899 
L 454.177541 1785.33306 
L 455.222732 1921.279465 
L 456.65875 1958.063348 
L 456.803965 1782.993108 
L 457.43861 474.394998 
L 458.507107 1687.747998 
L 458.944546 1857.47027 
L 459.485965 1927.445609 
L 459.672415 1861.388581 
L 461.479538 1752.378961 
L 461.640888 1773.788541 
L 463.39602 1165.111508 
L 463.867522 1751.002933 
L 464.330059 1757.123787 
L 465.995553 1905.963411 
L 470.477505 1929.808912 
L 471.318319 1662.965387 
L 471.321905 1881.626773 
L 472.419087 1929.724234 
L 472.462113 1879.919088 
L 472.860111 1744.62381 
L 472.908516 1879.354563 
L 473.916059 1905.301506 
L 473.941158 1831.09245 
L 474.061274 1873.100287 
L 476.397267 1644.717142 
L 476.881318 1631.101204 
L 477.300829 1708.614224 
L 479.100781 1923.026924 
L 480.079639 1715.035686 
L 480.145972 1816.42423 
L 482.731162 1828.695574 
L 483.247483 1890.376898 
L 483.329951 1164.243552 
L 483.423176 1894.109814 
L 484.274747 1304.508054 
L 484.941661 1902.055492 
L 485.300217 1821.58257 
L 485.36655 1967.942521 
L 486.08187 1898.029023 
L 486.442219 1602.850618 
L 486.494209 1084.377493 
L 488.561286 1869.903488 
L 488.975418 1893.799326 
L 489.237164 1809.840467 
L 489.398514 1528.813271 
L 489.527594 1705.375266 
L 491.130341 665.326059 
L 491.345474 1746.825454 
L 493.220723 1851.772853 
L 493.961142 1707.562797 
L 495.619464 1880.335424 
L 496.707682 1720.412779 
L 497.729567 1658.25161 
L 497.889124 1932.480993 
L 497.962628 1896.208433 
L 498.115015 1768.707823 
L 499.970543 1894.709621 
L 501.429867 1601.940322 
L 502.39259 1866.654052 
L 503.74614 1945.59442 
L 504.181785 1711.299563 
L 505.056662 1927.939469 
L 505.650073 1366.907735 
L 506.25424 1563.450086 
L 506.471167 1578.06692 
L 507.564763 1781.967726 
L 509.063528 1792.530744 
L 509.789604 1755.667314 
L 510.153538 1536.114878 
L 510.187601 1909.749486 
L 511.274027 1860.821234 
L 512.387343 1695.57936 
L 512.675981 1845.370207 
L 513.563408 1861.043353 
L 514.15144 1896.473759 
L 515.612556 1807.162505 
L 516.014139 1663.875682 
L 520.090923 1747.185339 
L 520.200282 1839.442703 
L 520.822377 1848.107064 
L 520.829549 1940.732455 
L 521.037511 1727.596349 
L 521.776137 1878.204345 
L 521.932109 1864.745484 
L 522.627708 1910.121131 
L 526.150522 1726.91892 
L 528.425561 1916.175653 
L 528.626353 1712.989286 
L 535.666603 1840.854014 
L 535.905043 1319.560835 
L 536.566579 1828.602556 
L 537.129512 1786.158677 
L 537.566951 1848.489204 
L 537.94702 1467.748433 
L 539.739801 1195.475853 
L 542.376982 1931.502485 
L 542.670998 1888.401063 
L 542.819799 1922.435823 
L 545.023126 1958.472628 
L 545.451601 1887.540164 
L 546.265524 1898.855617 
L 548.381005 1901.610929 
L 549.092739 1913.578842 
L 550.315416 1377.796636 
L 551.018186 1892.429347 
L 551.930711 1677.156113 
L 552.153016 1682.406188 
L 554.408334 1795.985888 
L 555.794154 1876.571459 
L 556.516645 1842.625209 
L 557.671196 1207.037742 
L 557.84151 1911.058645 
L 557.900672 1874.506712 
L 558.60882 1896.953605 
L 561.950564 1789.781254 
L 562.334219 1612.53349 
L 562.775243 1893.358612 
L 565.720782 1898.901213 
L 569.392397 1458.795593 
L 569.428253 1919.774495 
L 569.854934 1851.763444 
L 570.138194 1910.53982 
L 570.697541 1459.630832 
L 571.013071 1392.426244 
L 571.489951 856.84602 
L 572.775374 1830.438543 
L 573.266596 1568.208078 
L 573.422568 1798.303003 
L 575.154395 1813.601609 
L 576.425476 1691.286154 
L 577.588991 1918.215638 
L 577.744963 1872.375633 
L 578.223636 1357.511664 
L 580.224379 1899.867961 
L 580.258442 1855.435674 
L 581.122562 1791.027698 
L 582.572922 1722.226313 
L 585.303327 1610.893804 
L 585.333804 1917.38938 
L 586.267843 1791.444035 
L 586.796714 1899.917357 
L 586.848704 1871.352433 
L 587.370404 1859.059919 
L 587.727167 1875.783948 
L 590.651193 1918.292619 
L 592.291587 1660.735516 
L 592.481622 1889.493418 
L 593.02842 1855.073975 
L 593.903297 1485.531907 
L 594.256475 1890.136975 
L 594.819408 1891.85407 
L 595.500665 1879.820296 
L 597.210978 388.936117 
L 597.230698 1898.020555 
L 597.954982 1816.077047 
L 599.037822 1868.953205 
L 599.261919 1910.671542 
L 599.328252 1727.948091 
L 599.582827 1931.050866 
L 599.737006 1896.318515 
L 600.027437 1641.393506 
L 600.280219 1900.630069 
L 600.477425 1778.403526 
L 602.531951 1899.653912 
L 602.598284 1858.50104 
L 604.025338 1924.474159 
L 604.287084 1662.005696 
L 604.432299 1779.217744 
L 604.887666 1893.443291 
L 605.049016 1629.623177 
L 605.131484 1919.308763 
L 605.525896 1587.713305 
L 606.038631 1667.135809 
L 606.816698 1859.102258 
L 607.573251 1706.248867 
L 610.126171 1855.430285 
L 610.42198 1903.427671 
L 611.133714 1703.598426 
L 611.334506 1765.735603 
L 611.745052 1630.114313 
L 612.458579 1650.09726 
L 612.754388 1891.918483 
L 613.089638 1897.315413 
L 613.35497 1880.263447 
L 613.397996 1580.874342 
L 614.254946 1868.713282 
L 614.991779 1568.400529 
L 617.449681 1718.249132 
L 617.844093 1827.247698 
L 618.586304 1375.84133 
L 618.631124 1207.506732 
L 619.459388 1789.87748 
L 620.203393 1449.30981 
L 620.409562 1752.551141 
L 620.626489 1841.206842 
L 621.327466 1580.88357 
L 621.978246 1901.272215 
L 622.989374 1867.132615 
L 623.243949 1679.41421 
L 624.109862 1890.979913 
L 624.407464 1911.080823 
L 625.006253 1899.465737 
L 625.454448 1912.019344 
L 631.549903 1793.868923 
L 632.745688 1728.376602 
L 632.980542 1771.057655 
L 633.525547 1900.538333 
L 633.620565 1895.238863 
L 635.391832 1509.20247 
L 636.478257 1840.607035 
L 637.708105 1905.355606 
L 639.283959 1888.993814 
L 640.287917 1879.912031 
L 642.25639 1622.025195 
L 643.525679 1866.412846 
L 646.847702 1870.618552 
L 647.053872 1868.909583 
L 650.221716 1759.082686 
L 651.039224 1868.425375 
L 652.509304 1875.593421 
L 656.18809 1817.047772 
L 656.912374 1590.734517 
L 657.71554 1709.463026 
L 657.955772 1790.412495 
L 659.666085 1356.431107 
L 660.343756 1922.611229 
L 661.19712 1756.254016 
L 664.191064 1813.502817 
L 668.678395 1843.591956 
L 668.732178 1721.251966 
L 669.261048 1847.655247 
L 672.283677 1780.01242 
L 672.751593 1532.877845 
L 673.131662 1657.708255 
L 673.16214 1862.828118 
L 674.5874 1769.215895 
L 678.924137 1856.674804 
L 679.454801 1846.628445 
L 681.098781 1798.324173 
L 683.203505 1821.973937 
L 683.743132 1702.199818 
L 685.281338 1476.62301 
L 685.431932 1221.585096 
L 686.437682 1848.940823 
L 686.556006 1778.629336 
L 688.266319 1809.254773 
L 688.814909 1453.037446 
L 690.883779 1734.335357 
L 691.462847 1902.042021 
L 691.570414 1897.376998 
L 692.55465 1868.466303 
L 692.997467 1784.585066 
L 693.492275 1850.265439 
L 694.189667 1609.68136 
L 694.657582 1874.416993 
L 694.666546 1287.944914 
L 695.181074 1890.104045 
L 695.579072 1290.188898 
L 695.625684 1853.640487 
L 699.2722 1858.348618 
L 699.634342 1864.493464 
L 699.917601 1886.961527 
L 705.437574 1864.286472 
L 707.06004 519.460964 
L 707.592496 1784.726197 
L 709.218549 1721.524892 
L 709.785067 1452.856542 
L 709.921319 1883.372456 
L 710.536243 1427.389444 
L 714.053679 1802.579274 
L 714.476775 1702.559702 
L 715.814189 1581.885601 
L 716.400429 1754.016081 
L 721.628178 1863.816035 
L 723.580516 1869.845859 
L 724.095044 1640.864265 
L 724.794229 1872.149823 
L 725.606359 1803.121217 
L 726.551154 1891.181345 
L 727.363284 1744.616753 
L 728.758067 1893.735817 
L 728.831571 1924.18104 
L 731.565562 1816.501852 
L 731.895434 1930.740377 
L 732.295224 1184.693441 
L 732.397413 1853.40762 
L 732.788239 1850.465038 
L 734.952125 1860.250124 
L 737.657432 1910.784447 
L 741.983412 1494.777167 
L 742.264879 1877.717443 
L 743.358475 1873.904082 
L 744.930744 1410.246256 
L 746.354212 1878.663021 
L 748.356748 1512.046902 
L 748.392604 1677.939391 
L 751.771995 1377.005661 
L 751.8455 1885.361101 
L 754.38587 1188.906202 
L 755.459746 1798.557039 
L 758.525401 1908.215862 
L 759.075785 1174.272324 
L 762.351195 1879.291054 
L 763.367702 1792.14969 
L 764.369867 1865.915039 
L 765.454499 1647.779686 
L 767.207839 1807.758784 
L 768.599037 1823.077551 
L 769.42013 1729.868559 
L 769.455986 1809.642883 
L 771.110723 1924.347141 
L 772.46248 1876.327302 
L 773.989929 1867.908835 
L 774.457845 1854.891421 
L 775.454631 1871.651631 
L 777.383663 1915.413546 
L 779.402334 1926.054827 
L 779.674837 1775.482113 
L 780.5533 1581.94911 
L 780.752298 1912.796976 
L 781.204079 1872.868584 
L 782.659817 1078.668742 
L 783.13849 1888.196423 
L 785.377673 1394.750719 
L 785.497789 1925.885469 
L 786.738394 1802.628127 
L 787.082608 1801.690149 
L 789.280557 1541.098728 
L 789.495691 1795.398527 
L 791.162977 1866.328168 
L 791.388867 1570.277572 
L 796.797687 1800.150537 
L 797.5148 1867.485442 
L 797.751447 1686.428423 
L 799.413354 1868.707234 
L 799.515543 1804.258734 
L 801.697357 1559.234068 
L 802.19575 1692.754943 
L 803.497309 1895.429389 
L 805.596656 1554.011676 
L 811.202682 1605.616786 
L 812.242494 1676.891997 
L 812.780329 1796.447772 
L 813.2841 1605.072423 
L 813.540468 1867.139671 
L 814.275508 1289.469129 
L 816.74596 1835.625109 
L 816.751338 1859.042983 
L 817.645936 1880.328368 
L 817.920231 1572.916723 
L 819.074782 1889.812374 
L 820.577133 1858.283698 
L 823.359529 1951.317284 
L 823.642788 1894.272115 
L 824.203928 1874.570221 
L 825.618433 1853.195924 
L 827.13154 1870.731456 
L 827.626347 1633.081973 
L 828.721736 1756.027199 
L 830.765506 1740.69331 
L 833.763036 1568.999793 
L 836.176119 1768.891293 
L 837.346805 1909.711851 
L 837.37549 1867.273746 
L 840.023427 1910.852997 
L 840.649107 1873.658514 
L 840.810458 1826.69857 
L 840.96643 1387.809242 
L 844.838836 1844.83006 
L 846.018486 1290.28769 
L 847.599719 1826.550382 
L 849.066214 1941.810183 
L 850.608005 1575.252441 
L 853.444185 1911.041049 
L 857.035125 1589.924297 
L 857.207232 1288.722418 
L 857.655427 1895.626973 
L 858.313377 1763.246052 
L 860.308743 1690.295414 
L 860.351769 1509.012585 
L 862.689556 1747.504295 
L 862.700312 1889.281721 
L 862.824014 1859.661137 
L 863.618216 1784.436878 
L 864.358635 1916.309728 
L 864.779938 1780.83098 
L 865.473744 1604.778468 
L 866.841636 1788.706092 
L 867.350786 1806.573283 
L 867.881449 990.728979 
L 870.84133 739.227406 
L 871.570992 1158.204229 
L 872.716579 1291.524511 
L 873.433691 1460.336487 
L 874.706566 1862.280964 
L 876.246565 1807.307164 
L 877.469241 1707.499288 
L 878.593315 1596.403751 
L 881.131892 1808.718475 
L 881.164162 1529.540096 
L 882.193219 1841.827818 
L 884.145557 1888.433632 
L 884.902111 1353.73251 
L 886.479758 1904.366834 
L 887.664786 1881.093298 
L 888.13808 1869.24958 
L 888.742247 792.257397 
L 889.660151 1825.677294 
L 891.92264 1420.721002 
L 892.616447 1930.274645 
L 892.998309 1867.189067 
L 896.397422 1839.993115 
L 896.470926 1809.395904 
L 898.279841 1533.17422 
L 898.290598 1860.259533 
L 899.136791 1336.016971 
L 900.051109 1399.494893 
L 900.194531 1661.077438 
L 900.440142 1899.755056 
L 901.03176 1807.086487 
L 905.719882 1398.704559 
L 906.164492 1868.191098 
L 908.349892 1857.429855 
L 909.266003 1830.389147 
L 910.252032 1916.194471 
L 911.087468 1892.155149 
L 912.907141 917.756009 
L 913.488002 1908.97797 
L 913.678036 1780.965054 
L 913.835801 1543.987029 
L 917.104041 1120.323571 
L 917.869558 1711.130205 
L 918.265763 1928.738882 
L 922.052116 1893.488295 
L 930.517627 1687.705018 
L 933.802002 1683.73282 
L 934.345214 1876.24968 
L 938.266026 1846.908536 
L 938.861229 1902.394207 
L 939.438505 1163.844536 
L 939.779133 1885.888931 
L 939.865187 1699.631233 
L 941.114755 1822.902145 
L 943.84516 1768.463558 
L 944.078222 1788.675044 
L 944.684182 1740.098544 
L 946.563016 1893.481781 
L 948.868532 1182.096629 
L 949.68604 1765.717128 
L 950.582431 1892.691447 
L 954.178749 1737.016847 
L 954.21819 1340.565625 
L 955.982287 1810.412047 
L 956.511157 1901.149901 
L 958.990573 1841.482047 
L 959.229013 1943.978469 
L 961.279954 1623.74648 
L 961.946869 1930.444002 
L 962.748242 1777.590611 
L 963.271734 1865.097505 
L 963.481489 1879.079358 
L 963.963747 1703.180678 
L 964.069521 1855.06591 
L 967.49194 1881.144756 
L 969.885302 1916.906969 
L 970.346047 1659.394771 
L 970.593451 1769.94272 
L 972.085045 1179.406455 
L 972.160341 1478.142521 
L 972.852355 1736.041118 
L 973.723646 1853.780532 
L 974.053518 1761.150256 
L 975.573796 1873.307098 
L 976.120594 1795.706192 
L 976.583132 1822.577543 
L 980.001965 1593.819514 
L 985.344452 1710.336022 
L 986.095627 1795.550948 
L 987.294998 1887.372823 
L 988.98559 1084.54685 
L 989.439163 1714.00543 
L 991.316205 1673.190331 
L 991.805634 1576.537376 
L 992.065587 1893.453555 
L 992.311198 1839.118102 
L 993.474713 1801.280869 
L 993.781279 1554.702133 
L 994.953757 1927.635494 
L 995.289007 1802.339351 
L 995.360719 1593.211367 
L 996.413081 1810.882484 
L 998.455058 1853.950975 
L 1000.556198 1795.500911 
L 1001.323508 1363.203045 
L 1003.650537 1840.025373 
L 1003.774239 1893.721704 
L 1004.708278 1581.017645 
L 1006.506437 1739.027964 
L 1006.556635 1769.499243 
L 1007.86178 1863.875054 
L 1007.931698 1185.860979 
L 1009.685038 1839.033423 
L 1011.289577 1972.12 
L 1011.685781 1803.991868 
L 1012.322219 1865.862435 
L 1014.095279 1871.719374 
L 1016.390038 1949.369675 
L 1017.496184 1716.318696 
L 1018.675834 1549.891192 
L 1019.835763 1569.317881 
L 1020.597695 1709.421237 
L 1021.951245 1837.622113 
L 1022.729312 1846.816159 
L 1024.367913 1592.488342 
L 1028.901856 1370.17633 
L 1031.582064 1869.670151 
L 1032.089421 1723.03076 
L 1032.530445 1674.88716 
L 1033.638383 1879.185206 
L 1034.49354 1820.983848 
L 1035.018824 1823.367877 
L 1035.456263 1850.239228 
L 1036.18951 1523.633761 
L 1037.885481 1475.018148 
L 1038.489648 1866.335224 
L 1040.013512 1581.373295 
L 1040.336213 1904.117417 
L 1041.915652 1869.621949 
L 1042.112858 1143.567854 
L 1044.75721 1659.373602 
L 1046.661143 1587.312089 
L 1047.078861 1829.718774 
L 1047.403355 1868.96127 
L 1051.478346 1818.736608 
L 1051.628939 1736.466436 
L 1051.833316 1344.856009 
L 1053.973897 1728.975401 
L 1054.068914 1335.618982 
L 1054.081464 1712.12133 
L 1054.751964 1800.758684 
L 1054.77527 1313.807178 
L 1057.853474 1876.615338 
L 1059.189096 1540.402696 
L 1060.456592 1645.655664 
L 1061.060759 1858.594186 
L 1063.228232 1494.94182 
L 1066.410418 359.32 
L 1069.112138 1606.463572 
L 1071.846129 1777.830317 
L 1071.907084 1629.651403 
L 1073.470389 1440.920704 
L 1073.604847 1852.7937 
L 1074.151645 1526.364647 
L 1075.205801 1736.802126 
L 1076.770898 1374.048965 
L 1077.40375 1421.471013 
L 1078.291176 1797.710253 
L 1079.167846 1827.785279 
L 1081.702838 1634.21464 
L 1084.420694 1840.218924 
L 1085.783208 1927.042744 
L 1085.840577 1711.592089 
L 1086.218854 1847.40891 
L 1088.757431 1804.704708 
L 1093.563877 1807.438887 
L 1099.040822 1848.625203 
L 1102.742915 1864.295881 
L 1102.821797 1827.009058 
L 1103.949456 1165.676032 
L 1107.454343 1829.287683 
L 1109.394132 1204.797558 
L 1111.235318 1830.339751 
L 1113.089053 1783.297951 
L 1114.037434 1864.987423 
L 1115.742369 1729.311092 
L 1117.429376 1835.709787 
L 1123.632398 1911.878213 
L 1124.570022 1880.342481 
L 1132.996092 1868.670943 
L 1135.131294 1864.874518 
L 1136.165729 1796.687053 
L 1138.127031 1775.129286 
L 1140.900463 1484.639253 
L 1144.597177 1781.141468 
L 1145.081228 1104.0935 
L 1146.519038 1893.244681 
L 1147.083764 1803.581305 
L 1153.573631 1407.324844 
L 1154.821407 1312.849839 
L 1160.558305 1888.993814 
L 1161.659073 1836.718874 
L 1167.467683 1740.760027 
L 1169.436156 1758.673406 
L 1169.821604 823.254009 
L 1173.190239 1695.898316 
L 1174.656734 1769.15662 
L 1175.176641 1428.426758 
L 1175.413288 1372.395561 
L 1180.479686 1927.564929 
L 1181.117916 1857.606269 
L 1182.082433 1584.778787 
L 1191.521424 1671.830769 
L 1195.922701 1880.77293 
L 1195.949593 1355.419667 
L 1198.749916 1845.646054 
L 1199.282372 1407.70872 
L 1200.069403 1333.332659 
L 1201.779716 1928.291754 
L 1203.081275 1816.932302 
L 1207.911027 1148.107931 
L 1209.332702 1563.785544 
L 1209.504809 1706.141864 
L 1215.960613 1736.402927 
L 1217.043452 1822.574977 
L 1220.261494 1616.21855 
L 1223.138907 1353.61319 
L 1229.397505 1628.4906 
L 1229.675386 1850.655565 
L 1234.55175 1736.360587 
L 1236.65289 1454.397041 
L 1237.882737 1926.698897 
L 1246.568761 1878.708617 
L 1247.732275 1901.733243 
L 1248.761332 1848.448147 
L 1251.807266 1303.949175 
L 1253.641281 1911.002559 
L 1253.845658 1882.329606 
L 1257.974433 1411.59688 
L 1259.858645 1031.26988 
L 1261.502625 1451.590211 
L 1264.154148 468.95863 
L 1268.57156 457.489515 
L 1272.746947 1706.627804 
L 1273.317051 1684.544324 
L 1277.465546 1784.084051 
L 1281.626591 1747.105002 
L 1281.642726 1800.766382 
L 1282.517603 1878.239628 
L 1282.730944 1220.041123 
L 1285.710546 1847.120232 
L 1287.91208 1815.939252 
L 1290.547468 1839.60308 
L 1292.125115 1669.552999 
L 1294.219084 1963.807381 
L 1295.785974 1849.637793 
L 1297.437125 1619.989355 
L 1302.498146 1823.668102 
L 1305.572765 1486.996142 
L 1306.666361 1845.892392 
L 1308.166919 1418.808677 
L 1312.489313 1652.818064 
L 1317.166679 1840.642317 
L 1319.172801 1821.073856 
L 1329.852396 1854.021541 
L 1330.162547 1628.122056 
L 1334.762823 1877.844461 
L 1338.436231 1808.337421 
L 1338.932831 1519.99258 
L 1345.110754 1673.101803 
L 1350.191495 1648.004953 
L 1352.012961 1739.282 
L 1358.511791 1779.271482 
L 1361.536213 1764.099894 
L 1363.605082 1783.842499 
L 1364.440518 1816.170194 
L 1364.892298 1881.605604 
L 1374.512361 1567.433782 
L 1397.425893 1654.532807 
L 1400.435972 1790.329099 
L 1401.825377 1478.612958 
L 1402.886704 980.914323 
L 1416.108463 671.330543 
L 1423.177398 1134.77539 
L 1437.682788 1059.832788 
L 1451.031834 1615.6666 
L 1464.795013 1824.422511 
L 1480.27209 1534.819405 
L 1483.812832 864.166873 
L 1536.816399 1740.44796 
L 1563.399754 801.804912 
L 1570.818281 1717.844194 
L 1584.014941 1754.10076 
L 1596.808225 1499.743098 
L 1604.086916 1805.492219 
L 1613.181693 1680.762012 
L 1635.114574 1853.668713 
L 1659.039235 1750.29627 
L 1754.580114 1831.142915 
L 1754.580114 1831.142915 
" style="fill:none;stroke:#0000ff;stroke-linecap:square;stroke-width:1.5;"/>
   </g>
   <g id="patch_3">
    <path d="M 50.14375 2052.76 
L 50.14375 278.68 
" style="fill:none;stroke:#000000;stroke-linecap:square;stroke-linejoin:miter;stroke-width:0.8;"/>
   </g>
   <g id="patch_4">
    <path d="M 1835.74375 2052.76 
L 1835.74375 278.68 
" style="fill:none;stroke:#000000;stroke-linecap:square;stroke-linejoin:miter;stroke-width:0.8;"/>
   </g>
   <g id="patch_5">
    <path d="M 50.14375 2052.76 
L 1835.74375 2052.76 
" style="fill:none;stroke:#000000;stroke-linecap:square;stroke-linejoin:miter;stroke-width:0.8;"/>
   </g>
   <g id="patch_6">
    <path d="M 50.14375 278.68 
L 1835.74375 278.68 
" style="fill:none;stroke:#000000;stroke-linecap:square;stroke-linejoin:miter;stroke-width:0.8;"/>
   </g>
   <g id="text_17">
    <text style="font-family:DejaVu Sans;font-size:12px;font-stretch:normal;font-style:normal;font-weight:normal;text-anchor:middle;" transform="rotate(-0, 942.94375, 272.68)" x="942.94375" y="272.68">wind_speed-&gt;ping</text>
   </g>
  </g>
  <g id="legend_1">
   <g id="patch_7">
    <path d="M 1984.778125 22.678125 
L 2061.34375 22.678125 
Q 2063.34375 22.678125 2063.34375 20.678125 
L 2063.34375 7 
Q 2063.34375 5 2061.34375 5 
L 1984.778125 5 
Q 1982.778125 5 1982.778125 7 
L 1982.778125 20.678125 
Q 1982.778125 22.678125 1984.778125 22.678125 
z
" style="fill:#ffffff;opacity:0.8;stroke:#cccccc;stroke-linejoin:miter;"/>
   </g>
   <g id="line2d_16">
    <path d="M 1986.778125 13.098437 
L 2006.778125 13.098437 
" style="fill:none;stroke:#0000ff;stroke-linecap:square;stroke-width:1.5;"/>
   </g>
   <g id="line2d_17"/>
   <g id="text_18">
    <text style="font-family:DejaVu Sans;font-size:10px;font-stretch:normal;font-style:normal;font-weight:normal;text-anchor:start;" transform="rotate(-0, 2014.778125, 16.598437)" x="2014.778125" y="16.598437">ping[ms]</text>
   </g>
  </g>
 </g>
 <defs>
  <clipPath id="pb675054dad">
   <rect height="1774.08" width="1785.6" x="50.14375" y="278.68"/>
  </clipPath>
 </defs>
</svg>
