<?xml version="1.0" encoding="utf-8" standalone="no"?>
<!DOCTYPE svg PUBLIC "-//W3C//DTD SVG 1.1//EN"
  "http://www.w3.org/Graphics/SVG/1.1/DTD/svg11.dtd">
<!-- Created with matplotlib (https://matplotlib.org/) -->
<svg height="2090.31625pt" version="1.1" viewBox="0 0 2061.98125 2090.31625" width="2061.98125pt" xmlns="http://www.w3.org/2000/svg" xmlns:xlink="http://www.w3.org/1999/xlink">
 <metadata>
  <rdf:RDF xmlns:cc="http://creativecommons.org/ns#" xmlns:dc="http://purl.org/dc/elements/1.1/" xmlns:rdf="http://www.w3.org/1999/02/22-rdf-syntax-ns#">
   <cc:Work>
    <dc:type rdf:resource="http://purl.org/dc/dcmitype/StillImage"/>
    <dc:date>2022-07-23T20:50:46.811881</dc:date>
    <dc:format>image/svg+xml</dc:format>
    <dc:creator>
     <cc:Agent>
      <dc:title>Matplotlib v3.3.2, https://matplotlib.org/</dc:title>
     </cc:Agent>
    </dc:creator>
   </cc:Work>
  </rdf:RDF>
 </metadata>
 <defs>
  <style type="text/css">*{stroke-linecap:butt;stroke-linejoin:round;}</style>
 </defs>
 <g id="figure_1">
  <g id="patch_1">
   <path d="M 0 2090.31625 
L 2061.98125 2090.31625 
L 2061.98125 0 
L 0 0 
z
" style="fill:#ffffff;"/>
  </g>
  <g id="axes_1">
   <g id="patch_2">
    <path d="M 43.78125 2052.76 
L 1829.38125 2052.76 
L 1829.38125 278.68 
L 43.78125 278.68 
z
" style="fill:#ffffff;"/>
   </g>
   <g id="matplotlib.axis_1">
    <g id="xtick_1">
     <g id="line2d_1">
      <defs>
       <path d="M 0 0 
L 0 3.5 
" id="m1445fcadd5" style="stroke:#000000;stroke-width:0.8;"/>
      </defs>
      <g>
       <use style="stroke:#000000;stroke-width:0.8;" x="131.164322" xlink:href="#m1445fcadd5" y="2052.76"/>
      </g>
     </g>
     <g id="text_1">
      <text style="font-family:DejaVu Sans;font-size:10px;font-stretch:normal;font-style:normal;font-weight:normal;text-anchor:middle;" transform="rotate(-0, 131.164322, 2067.358438)" x="131.164322" y="2067.358438">5</text>
     </g>
    </g>
    <g id="xtick_2">
     <g id="line2d_2">
      <g>
       <use style="stroke:#000000;stroke-width:0.8;" x="442.136109" xlink:href="#m1445fcadd5" y="2052.76"/>
      </g>
     </g>
     <g id="text_2">
      <text style="font-family:DejaVu Sans;font-size:10px;font-stretch:normal;font-style:normal;font-weight:normal;text-anchor:middle;" transform="rotate(-0, 442.136109, 2067.358438)" x="442.136109" y="2067.358438">10</text>
     </g>
    </g>
    <g id="xtick_3">
     <g id="line2d_3">
      <g>
       <use style="stroke:#000000;stroke-width:0.8;" x="753.107896" xlink:href="#m1445fcadd5" y="2052.76"/>
      </g>
     </g>
     <g id="text_3">
      <text style="font-family:DejaVu Sans;font-size:10px;font-stretch:normal;font-style:normal;font-weight:normal;text-anchor:middle;" transform="rotate(-0, 753.107896, 2067.358438)" x="753.107896" y="2067.358438">15</text>
     </g>
    </g>
    <g id="xtick_4">
     <g id="line2d_4">
      <g>
       <use style="stroke:#000000;stroke-width:0.8;" x="1064.079683" xlink:href="#m1445fcadd5" y="2052.76"/>
      </g>
     </g>
     <g id="text_4">
      <text style="font-family:DejaVu Sans;font-size:10px;font-stretch:normal;font-style:normal;font-weight:normal;text-anchor:middle;" transform="rotate(-0, 1064.079683, 2067.358438)" x="1064.079683" y="2067.358438">20</text>
     </g>
    </g>
    <g id="xtick_5">
     <g id="line2d_5">
      <g>
       <use style="stroke:#000000;stroke-width:0.8;" x="1375.051469" xlink:href="#m1445fcadd5" y="2052.76"/>
      </g>
     </g>
     <g id="text_5">
      <text style="font-family:DejaVu Sans;font-size:10px;font-stretch:normal;font-style:normal;font-weight:normal;text-anchor:middle;" transform="rotate(-0, 1375.051469, 2067.358438)" x="1375.051469" y="2067.358438">25</text>
     </g>
    </g>
    <g id="xtick_6">
     <g id="line2d_6">
      <g>
       <use style="stroke:#000000;stroke-width:0.8;" x="1686.023256" xlink:href="#m1445fcadd5" y="2052.76"/>
      </g>
     </g>
     <g id="text_6">
      <text style="font-family:DejaVu Sans;font-size:10px;font-stretch:normal;font-style:normal;font-weight:normal;text-anchor:middle;" transform="rotate(-0, 1686.023256, 2067.358438)" x="1686.023256" y="2067.358438">30</text>
     </g>
    </g>
    <g id="text_7">
     <text style="font-family:DejaVu Sans;font-size:10px;font-stretch:normal;font-style:normal;font-weight:normal;text-anchor:middle;" transform="rotate(-0, 936.58125, 2081.036562)" x="936.58125" y="2081.036562">temperature from BuienRadar</text>
    </g>
   </g>
   <g id="matplotlib.axis_2">
    <g id="ytick_1">
     <g id="line2d_7">
      <defs>
       <path d="M 0 0 
L -3.5 0 
" id="m68df755685" style="stroke:#000000;stroke-width:0.8;"/>
      </defs>
      <g>
       <use style="stroke:#000000;stroke-width:0.8;" x="43.78125" xlink:href="#m68df755685" y="1966.628059"/>
      </g>
     </g>
     <g id="text_8">
      <text style="font-family:DejaVu Sans;font-size:10px;font-stretch:normal;font-style:normal;font-weight:normal;text-anchor:end;" transform="rotate(-0, 36.78125, 1970.427278)" x="36.78125" y="1970.427278">4.6</text>
     </g>
    </g>
    <g id="ytick_2">
     <g id="line2d_8">
      <g>
       <use style="stroke:#000000;stroke-width:0.8;" x="43.78125" xlink:href="#m68df755685" y="1600.498661"/>
      </g>
     </g>
     <g id="text_9">
      <text style="font-family:DejaVu Sans;font-size:10px;font-stretch:normal;font-style:normal;font-weight:normal;text-anchor:end;" transform="rotate(-0, 36.78125, 1604.297879)" x="36.78125" y="1604.297879">4.8</text>
     </g>
    </g>
    <g id="ytick_3">
     <g id="line2d_9">
      <g>
       <use style="stroke:#000000;stroke-width:0.8;" x="43.78125" xlink:href="#m68df755685" y="1234.369262"/>
      </g>
     </g>
     <g id="text_10">
      <text style="font-family:DejaVu Sans;font-size:10px;font-stretch:normal;font-style:normal;font-weight:normal;text-anchor:end;" transform="rotate(-0, 36.78125, 1238.168481)" x="36.78125" y="1238.168481">5.0</text>
     </g>
    </g>
    <g id="ytick_4">
     <g id="line2d_10">
      <g>
       <use style="stroke:#000000;stroke-width:0.8;" x="43.78125" xlink:href="#m68df755685" y="868.239864"/>
      </g>
     </g>
     <g id="text_11">
      <text style="font-family:DejaVu Sans;font-size:10px;font-stretch:normal;font-style:normal;font-weight:normal;text-anchor:end;" transform="rotate(-0, 36.78125, 872.039083)" x="36.78125" y="872.039083">5.2</text>
     </g>
    </g>
    <g id="ytick_5">
     <g id="line2d_11">
      <g>
       <use style="stroke:#000000;stroke-width:0.8;" x="43.78125" xlink:href="#m68df755685" y="502.110465"/>
      </g>
     </g>
     <g id="text_12">
      <text style="font-family:DejaVu Sans;font-size:10px;font-stretch:normal;font-style:normal;font-weight:normal;text-anchor:end;" transform="rotate(-0, 36.78125, 505.909684)" x="36.78125" y="505.909684">5.4</text>
     </g>
    </g>
    <g id="text_13">
     <text style="font-family:DejaVu Sans;font-size:10px;font-stretch:normal;font-style:normal;font-weight:normal;text-anchor:middle;" transform="rotate(-90, 14.798437, 1165.72)" x="14.798437" y="1165.72">ping[ms]</text>
    </g>
   </g>
   <g id="line2d_12">
    <path clip-path="url(#p50bea8b9e7)" d="M 124.944886 1397.296844 
L 143.603194 1051.304563 
L 149.822629 1622.466425 
L 156.042065 1595.00672 
L 162.261501 1292.949966 
L 168.480937 1358.853258 
L 174.700372 1051.304563 
L 180.919808 1314.91773 
L 187.139244 1538.256663 
L 193.358679 1283.796731 
L 205.797551 1388.14361 
L 212.016987 1206.909557 
L 218.236422 1278.30479 
L 224.455858 1214.232145 
L 230.675294 1042.151328 
L 236.89473 1545.579251 
L 243.114165 1353.361317 
L 249.333601 1715.829421 
L 255.553037 1499.813076 
L 261.772473 1459.538842 
L 267.991908 1408.280726 
L 274.211344 1422.925902 
L 280.43078 1109.885267 
L 286.650216 1406.450079 
L 292.869651 1399.127491 
L 299.089087 1527.272781 
L 305.308523 1435.740431 
L 311.527958 1377.159728 
L 317.747394 1386.312963 
L 323.96683 1413.772667 
L 330.186266 1402.788785 
L 336.405701 1313.087083 
L 342.625137 1190.433734 
L 348.844573 1525.442134 
L 355.064009 1595.00672 
L 361.283444 1523.611487 
L 367.50288 1419.264608 
L 373.722316 1371.667787 
L 379.941752 1800.039183 
L 386.161187 1518.119546 
L 392.380623 1536.426016 
L 398.600059 1518.119546 
L 404.819495 1166.635323 
L 411.03893 1523.611487 
L 417.258366 1454.046901 
L 423.477802 1688.369716 
L 429.697237 1388.14361 
L 435.916673 1541.917957 
L 442.136109 1411.94202 
L 448.355545 1477.845312 
L 454.57498 1563.885721 
L 460.794416 1670.063246 
L 467.013852 1549.240545 
L 473.233288 1541.917957 
L 479.452723 1465.030783 
L 485.672159 1399.127491 
L 491.891595 1613.31319 
L 498.111031 1422.925902 
L 504.330466 1653.587423 
L 510.549902 1622.466425 
L 516.769338 1803.700477 
L 522.988774 1347.869376 
L 529.208209 1514.458252 
L 535.427645 1421.095255 
L 541.647081 1567.547015 
L 547.866516 1497.982429 
L 554.085952 1525.442134 
L 560.305388 1474.184018 
L 566.524824 1497.982429 
L 572.744259 1706.676186 
L 578.963695 1684.708422 
L 585.183131 1507.135664 
L 591.402567 1607.821249 
L 597.622002 1488.829194 
L 603.841438 1651.756776 
L 610.060874 1703.014892 
L 616.28031 1485.1679 
L 622.499745 1578.530897 
L 628.719181 1461.369489 
L 634.938617 1428.417843 
L 641.158053 1584.022838 
L 647.377488 1655.41807 
L 653.596924 1644.434188 
L 659.81636 1697.522951 
L 666.035795 1386.312963 
L 672.255231 1589.514779 
L 678.474667 1779.902066 
L 684.694103 1503.47437 
L 690.913538 1631.619659 
L 697.132974 1465.030783 
L 703.35241 1712.168127 
L 709.571846 1695.692304 
L 715.791281 1435.740431 
L 722.010717 1715.829421 
L 728.230153 1508.966311 
L 734.449589 1510.796958 
L 740.669024 1549.240545 
L 746.88846 1512.627605 
L 753.107896 1256.337026 
L 759.327332 1972.12 
L 765.546767 1847.636005 
L 771.766203 1638.942247 
L 777.985639 1662.740658 
L 784.205074 1944.660295 
L 790.42451 1675.555187 
L 796.643946 1373.498434 
L 802.863382 1615.143837 
L 809.082817 1704.845539 
L 815.302253 1613.31319 
L 821.521689 1391.804904 
L 827.741125 1563.885721 
L 833.96056 1584.022838 
L 840.179996 1600.498661 
L 846.399432 1618.805131 
L 852.618868 1510.796958 
L 858.838303 1858.619886 
L 865.057739 1587.684132 
L 871.277175 1430.24849 
L 877.496611 1554.732486 
L 883.716046 1721.321362 
L 889.935482 1853.127946 
L 896.154918 1488.829194 
L 902.374353 1503.47437 
L 908.593789 1906.216708 
L 914.813225 1402.788785 
L 921.032661 1814.684359 
L 927.252096 1706.676186 
L 933.471532 1613.31319 
L 939.690968 1726.813303 
L 945.910404 1648.095482 
L 952.129839 1922.692531 
L 958.349275 1633.450306 
L 964.568711 1584.022838 
L 970.788147 1761.595596 
L 977.007582 1739.627832 
L 983.227018 1935.50706 
L 989.446454 1651.756776 
L 995.665889 1721.321362 
L 1001.885325 1770.748831 
L 1008.104761 1567.547015 
L 1014.324197 1710.33748 
L 1020.543632 1558.39378 
L 1026.763068 1834.821476 
L 1032.982504 1616.974484 
L 1039.20194 1633.450306 
L 1045.421375 1622.466425 
L 1051.640811 1432.079137 
L 1057.860247 1540.08731 
L 1064.079683 1508.966311 
L 1070.299118 1898.89412 
L 1076.518554 1494.321135 
L 1082.73799 1496.151782 
L 1088.957426 1552.901839 
L 1095.176861 1558.39378 
L 1101.396297 1961.136118 
L 1107.615733 1415.603314 
L 1113.835168 1567.547015 
L 1120.054604 1620.635778 
L 1126.27404 1397.296844 
L 1132.493476 1635.280953 
L 1138.712911 1615.143837 
L 1144.932347 1801.86983 
L 1151.151783 1529.103428 
L 1157.371219 1712.168127 
L 1163.590654 1411.94202 
L 1169.81009 1580.361544 
L 1176.029526 1637.1116 
L 1182.248962 1629.789012 
L 1188.468397 1241.69185 
L 1194.687833 1823.837594 
L 1200.907269 1351.53067 
L 1207.126705 1886.079591 
L 1213.34614 1746.95042 
L 1219.565576 1382.651669 
L 1225.785012 1360.683905 
L 1232.004447 1519.950193 
L 1238.223883 1565.716368 
L 1244.443319 1397.296844 
L 1250.662755 1316.748377 
L 1256.88219 1353.361317 
L 1263.101626 1382.651669 
L 1269.321062 1556.563133 
L 1275.540498 1563.885721 
L 1281.759933 1476.014665 
L 1287.979369 1574.869603 
L 1294.198805 1415.603314 
L 1300.418241 1609.651896 
L 1306.637676 1765.25689 
L 1312.857112 1476.014665 
L 1319.076548 1388.14361 
L 1325.295984 1618.805131 
L 1331.515419 1655.41807 
L 1337.734855 1285.627378 
L 1343.954291 1510.796958 
L 1350.173726 1366.175846 
L 1356.393162 1454.046901 
L 1362.612598 1812.853712 
L 1368.832034 1153.820795 
L 1375.051469 1712.168127 
L 1381.270905 1349.700023 
L 1387.490341 1368.006493 
L 1393.709777 1474.184018 
L 1399.929212 1197.756322 
L 1406.148648 1886.079591 
L 1412.368084 1437.571078 
L 1418.58752 1593.176073 
L 1424.806955 1946.490942 
L 1431.026391 1173.957911 
L 1437.245827 1609.651896 
L 1443.465263 1721.321362 
L 1449.684698 1291.119319 
L 1455.904134 1303.933848 
L 1462.12357 1230.707968 
L 1468.343005 1726.813303 
L 1474.562441 1062.288445 
L 1480.781877 1505.305017 
L 1487.001313 1549.240545 
L 1493.220748 1243.522497 
L 1499.440184 1377.159728 
L 1505.65962 1565.716368 
L 1511.879056 1007.369035 
L 1536.756799 1296.61126 
L 1542.976234 1391.804904 
L 1567.853977 1124.530443 
L 1574.073413 1754.273008 
L 1586.512284 1735.966538 
L 1592.73172 1774.410125 
L 1605.170592 1056.796504 
L 1611.390027 1095.240091 
L 1642.487206 1313.087083 
L 1654.926078 1521.78084 
L 1661.145513 1518.119546 
L 1667.364949 1082.425562 
L 1686.023256 1080.594915 
L 1692.242692 716.296163 
L 1698.462128 359.32 
L 1704.681563 1503.47437 
L 1717.120435 1876.926356 
L 1723.339871 1490.659841 
L 1729.559306 1490.659841 
L 1735.778742 1633.450306 
L 1741.998178 1435.740431 
L 1748.217614 1056.796504 
L 1748.217614 1056.796504 
" style="fill:none;stroke:#0000ff;stroke-linecap:square;stroke-width:1.5;"/>
   </g>
   <g id="patch_3">
    <path d="M 43.78125 2052.76 
L 43.78125 278.68 
" style="fill:none;stroke:#000000;stroke-linecap:square;stroke-linejoin:miter;stroke-width:0.8;"/>
   </g>
   <g id="patch_4">
    <path d="M 1829.38125 2052.76 
L 1829.38125 278.68 
" style="fill:none;stroke:#000000;stroke-linecap:square;stroke-linejoin:miter;stroke-width:0.8;"/>
   </g>
   <g id="patch_5">
    <path d="M 43.78125 2052.76 
L 1829.38125 2052.76 
" style="fill:none;stroke:#000000;stroke-linecap:square;stroke-linejoin:miter;stroke-width:0.8;"/>
   </g>
   <g id="patch_6">
    <path d="M 43.78125 278.68 
L 1829.38125 278.68 
" style="fill:none;stroke:#000000;stroke-linecap:square;stroke-linejoin:miter;stroke-width:0.8;"/>
   </g>
   <g id="text_14">
    <text style="font-family:DejaVu Sans;font-size:12px;font-stretch:normal;font-style:normal;font-weight:normal;text-anchor:middle;" transform="rotate(-0, 936.58125, 272.68)" x="936.58125" y="272.68">temperature-&gt;ping</text>
   </g>
  </g>
  <g id="legend_1">
   <g id="patch_7">
    <path d="M 1978.415625 22.678125 
L 2054.98125 22.678125 
Q 2056.98125 22.678125 2056.98125 20.678125 
L 2056.98125 7 
Q 2056.98125 5 2054.98125 5 
L 1978.415625 5 
Q 1976.415625 5 1976.415625 7 
L 1976.415625 20.678125 
Q 1976.415625 22.678125 1978.415625 22.678125 
z
" style="fill:#ffffff;opacity:0.8;stroke:#cccccc;stroke-linejoin:miter;"/>
   </g>
   <g id="line2d_13">
    <path d="M 1980.415625 13.098437 
L 2000.415625 13.098437 
" style="fill:none;stroke:#0000ff;stroke-linecap:square;stroke-width:1.5;"/>
   </g>
   <g id="line2d_14"/>
   <g id="text_15">
    <text style="font-family:DejaVu Sans;font-size:10px;font-stretch:normal;font-style:normal;font-weight:normal;text-anchor:start;" transform="rotate(-0, 2008.415625, 16.598437)" x="2008.415625" y="16.598437">ping[ms]</text>
   </g>
  </g>
 </g>
 <defs>
  <clipPath id="p50bea8b9e7">
   <rect height="1774.08" width="1785.6" x="43.78125" y="278.68"/>
  </clipPath>
 </defs>
</svg>
