<?xml version="1.0" encoding="utf-8" standalone="no"?>
<!DOCTYPE svg PUBLIC "-//W3C//DTD SVG 1.1//EN"
  "http://www.w3.org/Graphics/SVG/1.1/DTD/svg11.dtd">
<!-- Created with matplotlib (https://matplotlib.org/) -->
<svg height="2090.31625pt" version="1.1" viewBox="0 0 2058.803125 2090.31625" width="2058.803125pt" xmlns="http://www.w3.org/2000/svg" xmlns:xlink="http://www.w3.org/1999/xlink">
 <metadata>
  <rdf:RDF xmlns:cc="http://creativecommons.org/ns#" xmlns:dc="http://purl.org/dc/elements/1.1/" xmlns:rdf="http://www.w3.org/1999/02/22-rdf-syntax-ns#">
   <cc:Work>
    <dc:type rdf:resource="http://purl.org/dc/dcmitype/StillImage"/>
    <dc:date>2022-07-23T20:52:07.746627</dc:date>
    <dc:format>image/svg+xml</dc:format>
    <dc:creator>
     <cc:Agent>
      <dc:title>Matplotlib v3.3.2, https://matplotlib.org/</dc:title>
     </cc:Agent>
    </dc:creator>
   </cc:Work>
  </rdf:RDF>
 </metadata>
 <defs>
  <style type="text/css">*{stroke-linecap:butt;stroke-linejoin:round;}</style>
 </defs>
 <g id="figure_1">
  <g id="patch_1">
   <path d="M 0 2090.31625 
L 2058.803125 2090.31625 
L 2058.803125 0 
L 0 0 
z
" style="fill:#ffffff;"/>
  </g>
  <g id="axes_1">
   <g id="patch_2">
    <path d="M 40.603125 2052.76 
L 1826.203125 2052.76 
L 1826.203125 278.68 
L 40.603125 278.68 
z
" style="fill:#ffffff;"/>
   </g>
   <g id="matplotlib.axis_1">
    <g id="xtick_1">
     <g id="line2d_1">
      <defs>
       <path d="M 0 0 
L 0 3.5 
" id="m0a58248f05" style="stroke:#000000;stroke-width:0.8;"/>
      </defs>
      <g>
       <use style="stroke:#000000;stroke-width:0.8;" x="84.916784" xlink:href="#m0a58248f05" y="2052.76"/>
      </g>
     </g>
     <g id="text_1">
      <text style="font-family:DejaVu Sans;font-size:10px;font-stretch:normal;font-style:normal;font-weight:normal;text-anchor:middle;" transform="rotate(-0, 84.916784, 2067.358438)" x="84.916784" y="2067.358438">5</text>
     </g>
    </g>
    <g id="xtick_2">
     <g id="line2d_2">
      <g>
       <use style="stroke:#000000;stroke-width:0.8;" x="397.204727" xlink:href="#m0a58248f05" y="2052.76"/>
      </g>
     </g>
     <g id="text_2">
      <text style="font-family:DejaVu Sans;font-size:10px;font-stretch:normal;font-style:normal;font-weight:normal;text-anchor:middle;" transform="rotate(-0, 397.204727, 2067.358438)" x="397.204727" y="2067.358438">10</text>
     </g>
    </g>
    <g id="xtick_3">
     <g id="line2d_3">
      <g>
       <use style="stroke:#000000;stroke-width:0.8;" x="709.49267" xlink:href="#m0a58248f05" y="2052.76"/>
      </g>
     </g>
     <g id="text_3">
      <text style="font-family:DejaVu Sans;font-size:10px;font-stretch:normal;font-style:normal;font-weight:normal;text-anchor:middle;" transform="rotate(-0, 709.49267, 2067.358438)" x="709.49267" y="2067.358438">15</text>
     </g>
    </g>
    <g id="xtick_4">
     <g id="line2d_4">
      <g>
       <use style="stroke:#000000;stroke-width:0.8;" x="1021.780613" xlink:href="#m0a58248f05" y="2052.76"/>
      </g>
     </g>
     <g id="text_4">
      <text style="font-family:DejaVu Sans;font-size:10px;font-stretch:normal;font-style:normal;font-weight:normal;text-anchor:middle;" transform="rotate(-0, 1021.780613, 2067.358438)" x="1021.780613" y="2067.358438">20</text>
     </g>
    </g>
    <g id="xtick_5">
     <g id="line2d_5">
      <g>
       <use style="stroke:#000000;stroke-width:0.8;" x="1334.068556" xlink:href="#m0a58248f05" y="2052.76"/>
      </g>
     </g>
     <g id="text_5">
      <text style="font-family:DejaVu Sans;font-size:10px;font-stretch:normal;font-style:normal;font-weight:normal;text-anchor:middle;" transform="rotate(-0, 1334.068556, 2067.358438)" x="1334.068556" y="2067.358438">25</text>
     </g>
    </g>
    <g id="xtick_6">
     <g id="line2d_6">
      <g>
       <use style="stroke:#000000;stroke-width:0.8;" x="1646.356499" xlink:href="#m0a58248f05" y="2052.76"/>
      </g>
     </g>
     <g id="text_6">
      <text style="font-family:DejaVu Sans;font-size:10px;font-stretch:normal;font-style:normal;font-weight:normal;text-anchor:middle;" transform="rotate(-0, 1646.356499, 2067.358438)" x="1646.356499" y="2067.358438">30</text>
     </g>
    </g>
    <g id="text_7">
     <text style="font-family:DejaVu Sans;font-size:10px;font-stretch:normal;font-style:normal;font-weight:normal;text-anchor:middle;" transform="rotate(-0, 933.403125, 2081.036562)" x="933.403125" y="2081.036562">temperature from OpenWeatherMap</text>
    </g>
   </g>
   <g id="matplotlib.axis_2">
    <g id="ytick_1">
     <g id="line2d_7">
      <defs>
       <path d="M 0 0 
L -3.5 0 
" id="ma5afbcd9dd" style="stroke:#000000;stroke-width:0.8;"/>
      </defs>
      <g>
       <use style="stroke:#000000;stroke-width:0.8;" x="40.603125" xlink:href="#ma5afbcd9dd" y="1698.111959"/>
      </g>
     </g>
     <g id="text_8">
      <text style="font-family:DejaVu Sans;font-size:10px;font-stretch:normal;font-style:normal;font-weight:normal;text-anchor:end;" transform="rotate(-0, 33.603125, 1701.911178)" x="33.603125" y="1701.911178">6</text>
     </g>
    </g>
    <g id="ytick_2">
     <g id="line2d_8">
      <g>
       <use style="stroke:#000000;stroke-width:0.8;" x="40.603125" xlink:href="#ma5afbcd9dd" y="1307.508908"/>
      </g>
     </g>
     <g id="text_9">
      <text style="font-family:DejaVu Sans;font-size:10px;font-stretch:normal;font-style:normal;font-weight:normal;text-anchor:end;" transform="rotate(-0, 33.603125, 1311.308126)" x="33.603125" y="1311.308126">8</text>
     </g>
    </g>
    <g id="ytick_3">
     <g id="line2d_9">
      <g>
       <use style="stroke:#000000;stroke-width:0.8;" x="40.603125" xlink:href="#ma5afbcd9dd" y="916.905856"/>
      </g>
     </g>
     <g id="text_10">
      <text style="font-family:DejaVu Sans;font-size:10px;font-stretch:normal;font-style:normal;font-weight:normal;text-anchor:end;" transform="rotate(-0, 33.603125, 920.705075)" x="33.603125" y="920.705075">10</text>
     </g>
    </g>
    <g id="ytick_4">
     <g id="line2d_10">
      <g>
       <use style="stroke:#000000;stroke-width:0.8;" x="40.603125" xlink:href="#ma5afbcd9dd" y="526.302805"/>
      </g>
     </g>
     <g id="text_11">
      <text style="font-family:DejaVu Sans;font-size:10px;font-stretch:normal;font-style:normal;font-weight:normal;text-anchor:end;" transform="rotate(-0, 33.603125, 530.102023)" x="33.603125" y="530.102023">12</text>
     </g>
    </g>
    <g id="text_12">
     <text style="font-family:DejaVu Sans;font-size:10px;font-stretch:normal;font-style:normal;font-weight:normal;text-anchor:middle;" transform="rotate(-90, 14.798438, 1165.72)" x="14.798438" y="1165.72">ping[ms]</text>
    </g>
   </g>
   <g id="line2d_11">
    <path clip-path="url(#p6a00bcde3f)" d="M 121.766761 1909.818813 
L 123.640489 1905.52218 
L 125.514217 1898.686626 
L 134.258279 1877.789363 
L 136.132007 1902.592657 
L 141.75319 1885.210821 
L 143.002341 1880.132981 
L 143.626917 1850.447149 
L 144.251493 1925.833538 
L 144.876069 1906.693989 
L 148.623524 1902.592657 
L 149.2481 1931.887886 
L 156.743011 506.967953 
L 169.234529 1874.85984 
L 174.855712 1902.006752 
L 175.480288 1872.906825 
L 177.978591 1890.483962 
L 178.603167 1871.149111 
L 185.473502 1837.947852 
L 187.971805 1869.000794 
L 194.84214 1898.100722 
L 195.466716 1805.527798 
L 199.838747 1835.604233 
L 201.087899 1887.554439 
L 201.712475 1847.127023 
L 202.337051 1876.617554 
L 206.084506 1867.828985 
L 206.709082 1911.96713 
L 207.958234 1910.795321 
L 209.207385 1863.33705 
L 211.705689 1860.212226 
L 215.453144 1869.782 
L 216.07772 1875.641046 
L 217.326872 1858.454512 
L 219.825175 1835.994837 
L 220.449751 1892.241676 
L 222.323479 1834.432424 
L 222.948055 1878.765871 
L 224.821783 1913.529542 
L 226.070934 1898.686626 
L 226.69551 1934.817409 
L 227.320086 1897.710119 
L 228.569238 1915.287256 
L 229.81839 1871.344413 
L 231.067541 1868.41489 
L 231.692117 1769.982921 
L 232.316693 1907.475195 
L 232.941269 1831.893504 
L 233.565845 1902.397355 
L 234.190421 1835.604233 
L 235.439573 1555.151242 
L 237.937876 1775.256062 
L 238.562452 1917.435573 
L 240.43618 1911.771829 
L 244.183635 1880.914187 
L 245.432787 1859.626321 
L 246.057363 1835.21363 
L 247.93109 1905.131577 
L 248.555666 1777.794982 
L 249.804818 1894.780596 
L 250.429394 1857.282703 
L 251.678546 1879.93768 
L 252.927697 1853.376672 
L 253.552273 1746.156135 
L 254.801425 1907.475195 
L 257.299729 1864.704161 
L 259.173456 1874.469237 
L 260.422608 1894.585294 
L 261.047184 1760.022543 
L 262.296336 1874.273936 
L 262.920912 1824.86265 
L 264.170063 1801.035863 
L 269.16667 1781.701012 
L 269.791246 1883.062504 
L 270.415822 1702.799196 
L 271.040398 1868.41489 
L 272.914126 1619.014841 
L 274.787853 1816.074081 
L 276.037005 1885.210821 
L 277.286157 1912.553035 
L 281.033612 1892.827581 
L 281.658188 1913.138939 
L 282.282764 1797.129833 
L 282.90734 1804.551291 
L 283.531916 1768.029906 
L 284.781068 1139.940199 
L 286.030219 1627.217505 
L 287.903947 1843.025691 
L 288.528523 1761.389654 
L 289.153099 1885.406123 
L 289.777675 1848.298833 
L 291.026826 1852.790768 
L 291.651402 1891.46047 
L 292.275978 1818.613001 
L 292.900554 1825.057951 
L 293.52513 1882.281298 
L 294.149706 1885.406123 
L 294.774282 1740.101787 
L 295.398858 1877.39876 
L 296.023434 1924.466428 
L 297.272585 1878.765871 
L 297.897161 1895.757103 
L 298.521737 1817.441192 
L 299.146313 1908.647004 
L 299.770889 1879.351775 
L 300.395465 1887.554439 
L 301.020041 1798.692245 
L 302.269192 1883.648409 
L 302.893768 1904.545672 
L 303.518344 1931.887886 
L 304.14292 1907.084592 
L 304.767496 1874.078634 
L 306.016648 1893.804088 
L 306.641224 1913.529542 
L 307.890375 1833.065314 
L 308.514951 1695.768341 
L 310.388679 1875.250443 
L 311.013255 1869.977302 
L 311.637831 1863.141749 
L 312.262407 1877.39876 
L 312.886982 1874.273936 
L 313.511558 1831.112298 
L 314.76071 1926.614744 
L 315.385286 1782.286917 
L 316.009862 1734.633345 
L 316.634438 1908.0611 
L 317.259014 1814.511669 
L 317.88359 1909.623512 
L 318.508165 1881.695394 
L 319.132741 1832.284108 
L 319.757317 1913.138939 
L 320.381893 1896.343008 
L 321.006469 1887.749741 
L 321.631045 1626.631601 
L 322.255621 1904.155069 
L 323.504772 1826.815665 
L 324.753924 1823.886142 
L 326.003076 1880.132981 
L 327.252228 1734.242742 
L 327.876804 1874.85984 
L 328.50138 1884.234313 
L 329.125955 1815.488176 
L 329.750531 1892.436977 
L 330.375107 1894.194691 
L 330.999683 1888.335645 
L 331.624259 1748.890356 
L 332.873411 1836.38544 
L 334.747138 1793.419104 
L 335.371714 1864.899462 
L 337.245442 1924.661729 
L 338.494594 1860.79813 
L 339.11917 1844.588104 
L 340.368321 1876.226951 
L 342.242049 1689.128089 
L 342.866625 1911.381225 
L 344.115777 1923.685222 
L 345.989504 1880.523584 
L 346.61408 1924.271126 
L 347.238656 1887.359138 
L 347.863232 1876.617554 
L 349.112384 1886.187329 
L 351.610687 1840.486772 
L 352.235263 1881.890695 
L 353.484415 1813.535161 
L 354.733567 1836.580741 
L 357.856446 1904.155069 
L 358.481022 1659.246956 
L 359.730174 1868.024287 
L 360.979326 1723.110555 
L 361.603902 1853.181371 
L 362.228477 1864.313558 
L 362.853053 1924.271126 
L 363.477629 1857.478004 
L 364.102205 1866.657176 
L 364.726781 1631.904742 
L 365.975933 1856.306195 
L 366.600509 1727.993093 
L 367.225084 1880.132981 
L 367.84966 1900.834943 
L 369.098812 1905.52218 
L 369.723388 1841.463279 
L 370.347964 1796.934531 
L 370.97254 1869.000794 
L 371.597116 1879.351775 
L 372.846267 1870.95381 
L 374.719995 1920.560397 
L 375.344571 1859.235718 
L 375.969147 1610.226273 
L 376.593723 1920.755699 
L 377.218299 1870.367905 
L 379.092026 1857.673306 
L 379.716602 1793.223802 
L 380.965754 1889.116852 
L 381.59033 1827.206268 
L 382.839482 1869.782 
L 383.464058 1882.085997 
L 384.713209 1921.732206 
L 385.962361 1850.447149 
L 386.586937 1842.83039 
L 387.836089 1871.344413 
L 388.460665 1953.761657 
L 389.08524 1941.848264 
L 389.709816 1889.116852 
L 390.334392 1900.834943 
L 390.958968 1883.648409 
L 391.583544 1559.252574 
L 392.20812 1876.812855 
L 392.832696 1862.751146 
L 394.081848 1892.436977 
L 395.330999 1853.376672 
L 395.955575 1876.617554 
L 396.580151 1916.849668 
L 397.204727 1760.022543 
L 397.829303 1871.930317 
L 398.453879 1912.357733 
L 399.078455 1923.685222 
L 399.703031 1894.194691 
L 400.327606 1875.836348 
L 400.952182 1884.039012 
L 401.576758 1784.435234 
L 402.201334 1775.841967 
L 402.82591 1907.084592 
L 404.075062 1886.577932 
L 404.699638 1919.388588 
L 405.324214 1884.820218 
L 405.948789 1894.780596 
L 406.573365 1817.24589 
L 407.197941 1939.895248 
L 409.071669 1879.156474 
L 409.696245 1887.359138 
L 410.320821 1893.218184 
L 410.945397 1927.005348 
L 411.569972 1898.296023 
L 412.194548 1862.360543 
L 412.819124 1907.865798 
L 413.4437 1910.014115 
L 414.068276 1890.288661 
L 414.692852 1863.727653 
L 415.317428 1880.132981 
L 415.942004 1885.406123 
L 416.566579 1912.162432 
L 417.191155 1860.212226 
L 418.440307 1878.179966 
L 419.064883 1872.32092 
L 419.689459 1875.445745 
L 420.314035 1896.343008 
L 420.938611 1899.858435 
L 421.563187 1779.943299 
L 422.187762 1887.945042 
L 422.812338 1822.519031 
L 423.436914 1903.178561 
L 424.06149 1907.475195 
L 424.686066 1895.757103 
L 425.310642 1928.56776 
L 426.559794 1869.196096 
L 427.18437 1880.914187 
L 427.808945 1896.928913 
L 428.433521 1851.033054 
L 429.058097 1796.153325 
L 429.682673 1829.159283 
L 430.307249 1894.585294 
L 430.931825 1839.705566 
L 431.556401 1798.496944 
L 432.180977 1766.07689 
L 432.805553 1867.243081 
L 433.430128 1913.920145 
L 434.054704 1894.975897 
L 434.67928 1911.576527 
L 435.303856 1907.279893 
L 435.928432 1918.021477 
L 436.553008 1866.657176 
L 437.80216 1860.79813 
L 438.426735 1910.990622 
L 439.675887 1912.748336 
L 440.300463 1824.86265 
L 440.925039 1875.836348 
L 441.549615 1916.459065 
L 442.174191 1890.288661 
L 442.798767 1909.818813 
L 443.423343 1854.548481 
L 444.672494 1931.497283 
L 445.29707 1866.071271 
L 445.921646 1876.617554 
L 446.546222 1898.296023 
L 447.170798 1939.699947 
L 447.795374 1887.945042 
L 448.41995 1887.945042 
L 449.044526 1906.498687 
L 449.669101 1917.630874 
L 450.293677 1897.124214 
L 450.918253 1928.958363 
L 451.542829 1899.272531 
L 452.167405 1761.389654 
L 452.791981 1860.79813 
L 453.416557 1914.896653 
L 454.041133 1885.796726 
L 454.665709 1891.655771 
L 455.290284 1924.271126 
L 455.91486 1934.817409 
L 456.539436 1800.840562 
L 457.164012 1913.920145 
L 457.788588 1933.840901 
L 459.03774 1860.016924 
L 459.662316 1881.695394 
L 460.286891 1890.288661 
L 461.536043 1872.125619 
L 462.160619 1893.022882 
L 462.785195 1893.218184 
L 463.409771 1909.037607 
L 464.034347 1934.622107 
L 464.658923 1837.166646 
L 465.283499 1880.132981 
L 466.53265 1903.569164 
L 467.157226 1900.639642 
L 467.781802 1899.663134 
L 468.406378 1857.087401 
L 469.030954 1904.545672 
L 469.65553 1842.049184 
L 470.280106 1860.407527 
L 470.904682 1850.251848 
L 471.529257 1876.617554 
L 472.153833 1912.162432 
L 472.778409 1907.670496 
L 473.402985 1911.381225 
L 474.027561 1913.334241 
L 474.652137 1909.818813 
L 475.276713 1915.677859 
L 475.901289 1889.898058 
L 476.525865 1859.43102 
L 477.15044 1891.069867 
L 477.775016 1883.062504 
L 478.399592 1913.529542 
L 479.024168 1926.224141 
L 479.648744 1926.224141 
L 480.27332 1923.48992 
L 480.897896 1882.085997 
L 481.522472 1912.357733 
L 482.147047 1859.43102 
L 482.771623 1938.137535 
L 483.396199 1857.087401 
L 484.020775 1862.360543 
L 485.269927 1887.749741 
L 485.894503 1915.873161 
L 486.519079 1900.44434 
L 487.143655 1903.178561 
L 487.76823 1842.049184 
L 488.392806 1876.031649 
L 489.017382 1903.569164 
L 489.641958 1887.163836 
L 490.266534 1897.514817 
L 490.89111 1882.085997 
L 491.515686 1887.359138 
L 492.140262 1857.087401 
L 492.764838 1843.025691 
L 493.389413 1893.218184 
L 494.638565 1954.15226 
L 495.263141 1873.883333 
L 495.887717 1843.416295 
L 496.512293 1906.88929 
L 497.136869 1867.047779 
L 498.386021 1898.100722 
L 499.010596 1767.053398 
L 499.635172 1883.84371 
L 500.884324 1867.047779 
L 501.5089 1895.757103 
L 502.133476 1853.181371 
L 502.758052 1901.030245 
L 503.382628 1881.109489 
L 504.007203 1875.836348 
L 504.631779 1910.990622 
L 505.256355 1852.204863 
L 505.880931 1917.435573 
L 506.505507 1843.416295 
L 507.130083 1857.868607 
L 507.754659 1921.536905 
L 508.379235 1930.716077 
L 509.003811 1836.776043 
L 510.252962 1870.172604 
L 510.877538 1924.466428 
L 511.502114 1850.447149 
L 512.12669 1904.936275 
L 512.751266 1902.592657 
L 513.375842 1926.810046 
L 514.000418 1870.758508 
L 514.624994 1895.952405 
L 515.249569 1908.842306 
L 515.874145 1870.367905 
L 516.498721 1891.655771 
L 517.123297 1907.475195 
L 517.747873 1886.187329 
L 518.372449 1880.328283 
L 518.997025 1921.536905 
L 519.621601 1912.162432 
L 520.246177 1915.677859 
L 520.870752 1900.053737 
L 521.495328 1899.077229 
L 522.119904 1878.961172 
L 522.74448 1892.241676 
L 523.369056 1943.801279 
L 523.993632 1876.422252 
L 524.618208 1889.898058 
L 525.242784 1882.671901 
L 525.867359 1888.92155 
L 526.491935 1796.153325 
L 527.116511 1902.787958 
L 527.741087 1910.600019 
L 528.365663 1920.755699 
L 528.990239 1890.679264 
L 529.614815 1783.263425 
L 530.239391 1913.529542 
L 530.863967 1887.359138 
L 531.488542 1890.093359 
L 532.113118 1911.96713 
L 532.737694 1898.491325 
L 533.36227 1901.420848 
L 533.986846 1905.52218 
L 534.611422 1890.483962 
L 535.235998 1906.88929 
L 535.860574 1687.760978 
L 536.48515 1911.771829 
L 537.109725 1899.858435 
L 537.734301 1867.047779 
L 538.358877 1913.920145 
L 538.983453 1911.381225 
L 539.608029 1850.642451 
L 540.232605 1920.560397 
L 540.857181 1886.968535 
L 541.481757 1921.146302 
L 542.106333 1605.539036 
L 542.730908 1914.115447 
L 543.355484 1902.202054 
L 543.98006 1819.78481 
L 544.604636 1908.647004 
L 545.229212 1893.804088 
L 545.853788 1849.080039 
L 547.10294 1933.254996 
L 547.727515 1926.419443 
L 548.352091 1819.198905 
L 548.976667 1852.009562 
L 549.601243 1905.717481 
L 550.225819 1893.413485 
L 550.850395 1930.130172 
L 551.474971 1910.795321 
L 552.099547 1883.062504 
L 552.724123 1885.406123 
L 553.973274 1898.881928 
L 554.59785 1887.945042 
L 555.222426 1921.927508 
L 555.847002 1903.178561 
L 556.471578 1921.732206 
L 557.096154 1901.420848 
L 557.72073 1887.163836 
L 558.345306 1892.827581 
L 558.969881 1888.530947 
L 560.219033 1918.997985 
L 560.843609 1907.084592 
L 561.468185 1727.993093 
L 562.092761 1877.39876 
L 562.717337 1937.942233 
L 563.341913 1898.100722 
L 563.966489 1875.055142 
L 564.591064 1797.715737 
L 565.840216 1903.764466 
L 566.464792 1877.203458 
L 567.089368 1943.410676 
L 567.713944 1931.692584 
L 568.33852 1875.836348 
L 568.963096 1930.325473 
L 569.587672 1847.90823 
L 570.212247 1854.35318 
L 570.836823 1884.039012 
L 571.461399 1883.453107 
L 572.085975 1892.827581 
L 572.710551 1906.88929 
L 573.335127 1903.178561 
L 573.959703 1897.124214 
L 574.584279 1805.137195 
L 575.208854 1889.116852 
L 575.83343 1919.388588 
L 576.458006 1893.804088 
L 577.082582 1841.658581 
L 577.707158 1887.749741 
L 578.331734 1873.883333 
L 578.95631 1904.155069 
L 579.580886 1906.108084 
L 580.205462 1872.906825 
L 580.830037 1879.547077 
L 581.454613 1942.824771 
L 582.079189 1897.710119 
L 582.703765 1901.225546 
L 583.328341 1899.467832 
L 583.952917 1881.109489 
L 584.577493 1930.716077 
L 585.202069 1890.874565 
L 585.826645 1903.178561 
L 586.45122 1908.451703 
L 587.075796 1890.093359 
L 587.700372 1920.169794 
L 588.324948 1882.085997 
L 588.949524 1880.523584 
L 589.5741 1916.459065 
L 590.198676 1874.273936 
L 590.823252 1886.968535 
L 591.447828 1941.45766 
L 592.072403 1864.899462 
L 592.696979 1875.836348 
L 593.321555 1910.404718 
L 593.946131 1922.513412 
L 594.570707 1874.664539 
L 595.195283 1905.912783 
L 595.819859 1874.273936 
L 596.444435 1857.673306 
L 598.318162 1923.48992 
L 598.942738 1911.576527 
L 599.567314 1892.046374 
L 600.19189 1814.902272 
L 600.816466 1881.500092 
L 601.441042 1904.545672 
L 602.065618 1903.959767 
L 602.690193 1900.44434 
L 603.314769 1937.161027 
L 603.939345 1888.726248 
L 604.563921 1905.131577 
L 605.188497 1898.686626 
L 605.813073 1907.670496 
L 606.437649 1895.952405 
L 607.062225 1913.529542 
L 607.686801 1896.928913 
L 608.311376 1908.647004 
L 608.935952 1902.202054 
L 609.560528 1915.091954 
L 610.185104 1907.670496 
L 610.80968 1862.555844 
L 611.434256 1938.332836 
L 612.058832 1879.156474 
L 612.683408 1888.335645 
L 613.307984 1888.530947 
L 613.932559 1881.304791 
L 614.557135 1905.52218 
L 615.181711 1903.373863 
L 615.806287 1885.992027 
L 617.055439 1885.601424 
L 617.680015 1931.301981 
L 618.929166 1895.3665 
L 619.553742 1881.695394 
L 620.178318 1911.96713 
L 620.802894 1922.122809 
L 621.42747 1929.348966 
L 622.052046 1905.52218 
L 622.676622 1921.536905 
L 623.301198 1878.375268 
L 623.925774 1951.61334 
L 624.550349 1856.501497 
L 625.174925 1907.084592 
L 625.799501 1868.805493 
L 626.424077 1846.73642 
L 627.048653 1854.743783 
L 627.673229 1881.695394 
L 628.922381 1859.040417 
L 629.546957 1918.607382 
L 630.171532 1875.836348 
L 631.420684 1816.659985 
L 632.04526 1881.695394 
L 632.669836 1904.155069 
L 633.294412 1891.069867 
L 634.543564 1896.343008 
L 635.16814 1894.780596 
L 635.792715 1860.016924 
L 636.417291 1865.680668 
L 637.041867 1875.641046 
L 637.666443 1906.88929 
L 638.291019 1918.021477 
L 638.915595 1868.024287 
L 639.540171 1902.397355 
L 640.164747 1884.624916 
L 640.789322 1897.124214 
L 641.413898 1906.108084 
L 642.038474 1895.561802 
L 642.66305 1860.407527 
L 643.287626 1841.658581 
L 643.912202 1944.387183 
L 644.536778 1895.3665 
L 645.161354 1908.256401 
L 645.78593 1868.024287 
L 646.410505 1900.053737 
L 647.035081 1872.711523 
L 648.284233 1922.318111 
L 648.908809 1908.842306 
L 649.533385 1887.554439 
L 650.157961 1883.648409 
L 650.782537 1898.491325 
L 651.407113 1579.17333 
L 652.031688 1906.303386 
L 652.656264 1895.952405 
L 653.28084 1888.140344 
L 653.905416 1855.915592 
L 654.529992 1901.616149 
L 655.154568 1885.796726 
L 655.779144 1654.755021 
L 656.40372 1900.249039 
L 657.028296 1880.132981 
L 657.652871 1896.733611 
L 658.277447 1898.686626 
L 658.902023 1902.202054 
L 659.526599 1863.922955 
L 660.151175 1895.561802 
L 660.775751 1886.773233 
L 661.400327 1868.805493 
L 662.024903 1890.093359 
L 662.649478 1897.124214 
L 663.274054 1892.827581 
L 663.89863 1886.773233 
L 664.523206 1892.827581 
L 665.147782 1893.99939 
L 665.772358 1877.594062 
L 666.396934 1890.874565 
L 667.02151 1933.254996 
L 667.646086 1942.62947 
L 668.270661 1912.162432 
L 668.895237 1858.845115 
L 669.519813 1872.516222 
L 670.144389 1915.091954 
L 671.393541 1821.542524 
L 672.018117 1899.663134 
L 672.642693 1866.071271 
L 673.267269 1879.93768 
L 673.891844 1811.386844 
L 674.51642 1893.99939 
L 675.140996 1898.296023 
L 675.765572 1892.436977 
L 676.390148 1889.312153 
L 677.014724 1864.313558 
L 677.6393 1915.091954 
L 678.263876 1862.751146 
L 678.888452 1861.969939 
L 679.513027 1852.204863 
L 680.137603 1816.269382 
L 681.386755 1895.757103 
L 682.635907 1888.140344 
L 683.260483 1895.171199 
L 683.885059 1913.138939 
L 684.509634 1909.623512 
L 685.13421 1944.777786 
L 685.758786 1801.81707 
L 687.007938 1916.068462 
L 687.632514 1852.790768 
L 688.25709 1860.016924 
L 688.881666 1890.288661 
L 689.506242 1870.563207 
L 690.130817 1911.381225 
L 690.755393 1922.122809 
L 691.379969 1866.266573 
L 692.004545 1920.560397 
L 692.629121 1883.84371 
L 693.253697 1919.779191 
L 693.878273 1916.654367 
L 694.502849 1883.257806 
L 695.127425 1916.849668 
L 695.752 1898.881928 
L 697.001152 1806.504306 
L 697.625728 1883.648409 
L 698.250304 1873.102126 
L 698.87488 1838.924359 
L 699.499456 1909.623512 
L 700.124032 1883.648409 
L 700.748608 1923.099317 
L 701.373183 1925.442935 
L 701.997759 1927.005348 
L 702.622335 1898.296023 
L 703.246911 1853.767275 
L 703.871487 1892.632279 
L 704.496063 1903.373863 
L 705.120639 1879.742378 
L 705.745215 1886.968535 
L 706.369791 1922.708714 
L 706.994366 1910.990622 
L 707.618942 1912.748336 
L 708.243518 1880.328283 
L 708.868094 1881.109489 
L 709.49267 1928.56776 
L 710.117246 1893.99939 
L 710.741822 1848.494134 
L 711.366398 1833.260615 
L 711.990973 1906.88929 
L 712.615549 1834.823027 
L 713.240125 1890.679264 
L 713.864701 1922.904016 
L 714.489277 1923.099317 
L 715.113853 1878.961172 
L 715.738429 1916.849668 
L 716.363005 1935.793916 
L 716.987581 1882.4766 
L 717.612156 1897.710119 
L 718.236732 1881.304791 
L 718.861308 1897.90542 
L 719.485884 1862.751146 
L 720.11046 1884.820218 
L 720.735036 1897.90542 
L 721.359612 1882.867203 
L 721.984188 1900.44434 
L 722.608764 1860.602829 
L 723.233339 1882.4766 
L 723.857915 1924.857031 
L 724.482491 1894.780596 
L 725.107067 1919.779191 
L 725.731643 1910.014115 
L 726.356219 1884.234313 
L 726.980795 1865.290065 
L 728.854522 1921.341603 
L 729.479098 1884.039012 
L 730.103674 1876.226951 
L 730.72825 1838.729058 
L 731.352826 1860.016924 
L 731.977402 1842.635088 
L 732.601978 1812.16805 
L 733.226554 1889.898058 
L 733.851129 1939.114042 
L 734.475705 1905.131577 
L 735.100281 1863.727653 
L 735.724857 1872.32092 
L 736.349433 1889.898058 
L 736.974009 1863.532352 
L 737.598585 1877.789363 
L 738.223161 1828.76868 
L 738.847737 1924.857031 
L 739.472312 1913.334241 
L 740.096888 1895.757103 
L 740.721464 1902.98326 
L 741.34604 1883.453107 
L 741.970616 1958.839496 
L 742.595192 1921.146302 
L 743.219768 1855.915592 
L 743.844344 1907.475195 
L 744.46892 1881.109489 
L 745.093495 1863.141749 
L 745.718071 1918.802683 
L 746.342647 1727.993093 
L 746.967223 1917.435573 
L 747.591799 1917.04497 
L 748.216375 1931.10668 
L 748.840951 1871.344413 
L 749.465527 1849.861245 
L 750.090103 1895.757103 
L 750.714678 1859.235718 
L 751.339254 1969.190477 
L 751.96383 1903.373863 
L 752.588406 1930.911378 
L 753.212982 1929.348966 
L 753.837558 1748.499753 
L 754.462134 1922.318111 
L 755.08671 1896.147706 
L 755.711285 1880.132981 
L 756.335861 1793.223802 
L 756.960437 1900.639642 
L 757.585013 1851.033054 
L 758.209589 1866.657176 
L 758.834165 1853.181371 
L 759.458741 1873.102126 
L 760.083317 1917.04497 
L 760.707893 1876.617554 
L 761.332468 1865.87597 
L 761.957044 1842.83039 
L 762.58162 1972.12 
L 763.206196 1875.250443 
L 763.830772 1875.836348 
L 764.455348 1870.758508 
L 765.079924 1905.912783 
L 765.7045 1908.256401 
L 766.329076 1912.553035 
L 766.953651 1825.643856 
L 767.578227 1895.561802 
L 768.202803 1884.820218 
L 768.827379 1884.039012 
L 769.451955 1874.078634 
L 770.076531 1923.880523 
L 770.701107 1853.767275 
L 771.325683 1895.3665 
L 771.950259 1888.140344 
L 772.574834 1875.250443 
L 773.19941 1938.918741 
L 773.823986 1881.695394 
L 774.448562 1901.225546 
L 775.073138 1911.771829 
L 775.697714 1883.84371 
L 776.32229 1943.605977 
L 776.946866 1899.467832 
L 777.571441 1889.116852 
L 778.196017 1896.343008 
L 778.820593 1864.704161 
L 779.445169 1851.423657 
L 780.069745 1904.740974 
L 780.694321 1883.257806 
L 781.318897 1922.318111 
L 781.943473 1904.155069 
L 782.568049 1880.914187 
L 783.192624 1929.739569 
L 783.8172 1878.179966 
L 784.441776 1918.802683 
L 785.066352 1897.514817 
L 785.690928 1907.670496 
L 786.315504 1937.356328 
L 786.94008 1919.779191 
L 787.564656 1908.451703 
L 788.189232 1882.085997 
L 788.813807 1906.88929 
L 789.438383 1861.384035 
L 790.062959 1886.773233 
L 790.687535 1877.789363 
L 791.312111 1794.590913 
L 791.936687 1877.594062 
L 792.561263 1894.585294 
L 793.185839 1889.116852 
L 793.810415 1902.397355 
L 795.059566 1916.459065 
L 795.684142 1891.265168 
L 796.308718 1902.787958 
L 796.933294 1898.100722 
L 797.55787 1908.256401 
L 798.182446 1908.842306 
L 798.807022 1850.056546 
L 799.431597 1894.389993 
L 800.056173 1885.601424 
L 800.680749 1934.036202 
L 801.305325 1851.423657 
L 801.929901 1898.296023 
L 802.554477 1844.002199 
L 803.179053 1871.539714 
L 803.803629 1905.131577 
L 804.428205 1887.749741 
L 805.05278 1908.256401 
L 805.677356 1863.922955 
L 806.301932 1847.712928 
L 806.926508 1895.952405 
L 807.551084 1903.764466 
L 808.17566 1852.790768 
L 808.800236 1867.047779 
L 809.424812 1855.915592 
L 810.049388 1907.279893 
L 811.298539 1839.314962 
L 811.923115 1918.997985 
L 812.547691 1898.686626 
L 813.172267 1916.459065 
L 813.796843 1914.115447 
L 814.421419 1917.240271 
L 815.045995 1878.765871 
L 815.670571 1900.053737 
L 816.295146 1886.577932 
L 816.919722 1918.216779 
L 817.544298 1880.718886 
L 818.168874 1876.031649 
L 818.79345 1930.130172 
L 819.418026 1901.030245 
L 820.042602 1927.981855 
L 820.667178 1895.561802 
L 821.291753 1856.501497 
L 821.916329 1933.840901 
L 822.540905 1839.314962 
L 823.165481 1889.312153 
L 823.790057 1855.524989 
L 824.414633 1835.21363 
L 825.039209 1891.265168 
L 825.663785 1904.350371 
L 826.288361 1888.92155 
L 826.912936 1769.982921 
L 827.537512 1923.48992 
L 828.162088 1879.351775 
L 828.786664 1823.69084 
L 829.41124 1894.780596 
L 830.035816 1910.990622 
L 830.660392 1884.429615 
L 831.284968 1894.585294 
L 831.909544 1864.313558 
L 832.534119 1854.939085 
L 833.158695 1880.718886 
L 833.783271 1887.554439 
L 834.407847 1934.426806 
L 835.032423 1846.931722 
L 835.656999 1873.688031 
L 836.281575 1857.868607 
L 836.906151 1896.733611 
L 837.530727 1903.373863 
L 838.155302 1852.009562 
L 838.779878 1887.749741 
L 839.404454 1848.689436 
L 840.02903 1901.616149 
L 840.653606 1898.491325 
L 841.278182 1908.647004 
L 841.902758 1896.928913 
L 842.527334 1893.608787 
L 843.151909 1917.240271 
L 843.776485 1928.56776 
L 844.401061 1915.482558 
L 845.025637 1876.422252 
L 845.650213 1903.373863 
L 846.274789 1893.413485 
L 846.899365 1872.32092 
L 847.523941 1914.310748 
L 848.148517 1911.576527 
L 848.773092 1912.943638 
L 849.397668 1893.99939 
L 850.022244 1888.92155 
L 850.64682 1905.326878 
L 851.271396 1892.241676 
L 851.895972 1901.420848 
L 852.520548 1965.089145 
L 853.145124 1866.266573 
L 853.7697 1915.873161 
L 854.394275 1893.608787 
L 855.018851 1906.88929 
L 855.643427 1875.641046 
L 856.268003 1828.378077 
L 857.517155 1908.0611 
L 858.141731 1922.122809 
L 859.390883 1858.25921 
L 860.015458 1900.639642 
L 860.640034 1885.210821 
L 861.26461 1810.410337 
L 861.889186 1904.350371 
L 862.513762 1898.100722 
L 863.138338 1915.873161 
L 863.762914 1883.84371 
L 864.38749 1895.171199 
L 865.012066 1896.147706 
L 865.636641 1903.569164 
L 866.261217 1907.084592 
L 866.885793 1959.425401 
L 867.510369 1916.068462 
L 868.134945 1907.475195 
L 868.759521 1884.234313 
L 869.384097 1922.904016 
L 870.008673 1857.478004 
L 870.633248 1910.404718 
L 871.257824 1873.297428 
L 871.8824 1892.241676 
L 872.506976 1780.724505 
L 873.131552 1918.802683 
L 873.756128 1917.826176 
L 874.380704 1928.763061 
L 875.00528 1945.363691 
L 875.629856 1870.367905 
L 876.254431 1913.529542 
L 876.879007 1930.325473 
L 877.503583 1942.238867 
L 878.752735 1865.094764 
L 879.377311 1855.329688 
L 880.001887 1901.811451 
L 881.251039 1866.852478 
L 882.50019 1890.288661 
L 883.124766 1923.294619 
L 883.749342 1915.482558 
L 884.373918 1898.491325 
L 884.998494 1891.46047 
L 885.62307 1918.607382 
L 886.872222 1885.992027 
L 887.496797 1713.150177 
L 888.121373 1877.39876 
L 888.745949 1888.530947 
L 889.370525 1853.767275 
L 889.995101 1879.547077 
L 890.619677 1899.467832 
L 891.244253 1913.920145 
L 891.868829 1897.514817 
L 892.493404 1893.608787 
L 893.11798 1920.951 
L 893.742556 1881.695394 
L 894.367132 1902.98326 
L 894.991708 1883.84371 
L 895.616284 1892.436977 
L 896.24086 1894.975897 
L 896.865436 1899.663134 
L 897.490012 1860.016924 
L 898.114587 1933.840901 
L 898.739163 1853.376672 
L 899.363739 1894.585294 
L 899.988315 1943.801279 
L 900.612891 1885.601424 
L 901.237467 1924.075825 
L 901.862043 1909.42821 
L 902.486619 1903.178561 
L 903.111195 1912.748336 
L 903.73577 1907.475195 
L 904.360346 1933.450298 
L 904.984922 1880.718886 
L 905.609498 1853.376672 
L 906.234074 1899.272531 
L 906.85865 1879.93768 
L 907.483226 1854.157878 
L 908.107802 1899.663134 
L 908.732378 1889.507455 
L 909.356953 1814.511669 
L 909.981529 1885.796726 
L 910.606105 1922.122809 
L 911.230681 1895.171199 
L 911.855257 1900.639642 
L 912.479833 1876.031649 
L 913.104409 1937.55163 
L 914.35356 1750.452768 
L 914.978136 1870.95381 
L 915.602712 1909.42821 
L 916.227288 1901.225546 
L 916.851864 1903.569164 
L 917.47644 1894.585294 
L 918.101016 1888.335645 
L 918.725592 1884.624916 
L 919.350168 1932.47379 
L 919.974743 1934.426806 
L 920.599319 1899.663134 
L 921.223895 1960.011305 
L 921.848471 1966.846859 
L 922.473047 1901.616149 
L 923.097623 1929.93487 
L 923.722199 1922.904016 
L 924.346775 1883.84371 
L 924.971351 1955.324069 
L 925.595926 1924.466428 
L 926.220502 1919.193287 
L 926.845078 1901.811451 
L 927.469654 1881.109489 
L 928.09423 1900.053737 
L 928.718806 1814.511669 
L 929.343382 1867.828985 
L 929.967958 1931.10668 
L 930.592534 1927.591252 
L 931.217109 1918.802683 
L 931.841685 1877.39876 
L 932.466261 1903.764466 
L 933.090837 1870.758508 
L 933.715413 1863.727653 
L 934.339989 1878.765871 
L 934.964565 1870.95381 
L 935.589141 1891.265168 
L 936.838292 1871.539714 
L 937.462868 1893.022882 
L 938.087444 1871.930317 
L 938.71202 1868.219588 
L 939.336596 1863.141749 
L 939.961172 1759.63194 
L 940.585748 1900.249039 
L 941.210324 1913.334241 
L 941.834899 1884.429615 
L 942.459475 1887.554439 
L 943.084051 1904.740974 
L 943.708627 1888.335645 
L 944.333203 1886.577932 
L 944.957779 1827.792172 
L 945.582355 1792.051993 
L 946.206931 1852.986069 
L 946.831507 1831.112298 
L 947.456082 1838.143153 
L 948.080658 1929.153664 
L 948.705234 1865.290065 
L 949.32981 1879.351775 
L 949.954386 359.32 
L 950.578962 1859.040417 
L 951.203538 1930.716077 
L 951.828114 1864.313558 
L 952.45269 1868.805493 
L 953.077265 1903.178561 
L 953.701841 1894.389993 
L 954.326417 1907.670496 
L 954.950993 1883.648409 
L 955.575569 1945.363691 
L 956.200145 1879.93768 
L 956.824721 1889.702756 
L 957.449297 1862.751146 
L 958.073872 1905.52218 
L 959.323024 1880.132981 
L 959.9476 1941.067057 
L 960.572176 1846.150516 
L 961.196752 1894.780596 
L 961.821328 1899.467832 
L 962.445904 1906.88929 
L 963.07048 1921.732206 
L 963.695055 1898.686626 
L 964.319631 1949.660325 
L 964.944207 1876.422252 
L 965.568783 1914.50605 
L 966.193359 1868.41489 
L 966.817935 1903.764466 
L 967.442511 1887.359138 
L 968.067087 1864.118256 
L 968.691663 1885.601424 
L 969.316238 1843.806898 
L 969.940814 1861.969939 
L 970.56539 1912.748336 
L 971.189966 1908.842306 
L 971.814542 1907.279893 
L 972.439118 1891.069867 
L 973.063694 1914.115447 
L 973.68827 1828.76868 
L 974.312846 1903.373863 
L 974.937421 1903.569164 
L 975.561997 1882.281298 
L 976.811149 1921.341603 
L 977.435725 1855.720291 
L 978.060301 1957.667687 
L 978.684877 1882.4766 
L 979.309453 1902.98326 
L 979.934028 1890.483962 
L 980.558604 1899.077229 
L 981.18318 1891.655771 
L 981.807756 1855.329688 
L 982.432332 1909.623512 
L 983.056908 1876.617554 
L 983.681484 1866.461875 
L 984.30606 1846.150516 
L 984.930636 1894.585294 
L 985.555211 1876.617554 
L 986.179787 1923.099317 
L 986.804363 1887.945042 
L 987.428939 1873.102126 
L 988.053515 1905.52218 
L 988.678091 1880.914187 
L 989.302667 1899.467832 
L 989.927243 1903.569164 
L 990.551819 1863.922955 
L 991.176394 1878.765871 
L 991.80097 1844.197501 
L 992.425546 1945.949596 
L 993.674698 1878.179966 
L 994.299274 1858.845115 
L 994.92385 1906.108084 
L 995.548426 1944.191882 
L 996.173002 1879.351775 
L 996.797577 1912.553035 
L 997.422153 1897.710119 
L 998.046729 1794.20031 
L 998.671305 1893.022882 
L 999.295881 1862.360543 
L 999.920457 1910.014115 
L 1000.545033 1928.763061 
L 1001.169609 1905.52218 
L 1001.794184 1937.942233 
L 1002.41876 1935.989218 
L 1003.043336 1895.952405 
L 1003.667912 1883.453107 
L 1004.292488 1876.422252 
L 1004.917064 1888.335645 
L 1005.54164 1847.712928 
L 1006.166216 1822.714333 
L 1006.790792 1947.316706 
L 1007.415367 1888.92155 
L 1008.039943 1903.178561 
L 1008.664519 1968.213969 
L 1009.289095 1840.486772 
L 1009.913671 1865.87597 
L 1010.538247 1868.024287 
L 1011.162823 1868.805493 
L 1011.787399 1905.912783 
L 1012.411975 1909.623512 
L 1013.03655 1890.288661 
L 1013.661126 1887.945042 
L 1014.285702 1905.131577 
L 1014.910278 1896.343008 
L 1016.15943 1850.447149 
L 1016.784006 1929.153664 
L 1017.408582 1896.53831 
L 1018.033158 1926.810046 
L 1018.657733 1892.241676 
L 1019.282309 1964.307939 
L 1019.906885 1859.626321 
L 1020.531461 1916.459065 
L 1021.156037 1913.334241 
L 1021.780613 1908.647004 
L 1022.405189 1883.062504 
L 1023.029765 1917.826176 
L 1023.654341 1891.851073 
L 1024.278916 1837.557249 
L 1024.903492 1836.38544 
L 1026.152644 1829.354585 
L 1026.77722 1930.716077 
L 1028.026372 1867.438382 
L 1028.650948 1919.193287 
L 1029.275523 1902.202054 
L 1029.900099 1847.517627 
L 1030.524675 1894.389993 
L 1031.149251 1878.765871 
L 1031.773827 1950.636832 
L 1032.398403 1893.022882 
L 1033.022979 1897.124214 
L 1033.647555 1880.328283 
L 1034.272131 1889.898058 
L 1034.896706 1883.257806 
L 1035.521282 1928.958363 
L 1036.145858 1903.959767 
L 1036.770434 1885.210821 
L 1037.39501 1878.765871 
L 1038.019586 1868.610191 
L 1038.644162 1890.679264 
L 1039.268738 1897.514817 
L 1039.893314 1919.58389 
L 1040.517889 1898.686626 
L 1041.142465 1889.507455 
L 1041.767041 1898.491325 
L 1042.391617 1877.39876 
L 1043.016193 1878.179966 
L 1043.640769 1912.748336 
L 1044.265345 1894.389993 
L 1044.889921 1893.413485 
L 1045.514497 1886.187329 
L 1046.139072 1886.773233 
L 1046.763648 1877.789363 
L 1047.388224 1858.25921 
L 1048.0128 1909.232909 
L 1048.637376 1813.33986 
L 1049.261952 1896.147706 
L 1049.886528 1909.037607 
L 1050.511104 1914.50605 
L 1051.135679 1893.413485 
L 1051.760255 1956.495878 
L 1052.384831 1830.331092 
L 1053.009407 1918.997985 
L 1053.633983 1849.27534 
L 1054.258559 1934.231504 
L 1054.883135 1891.069867 
L 1056.132287 1896.928913 
L 1056.756862 1878.375268 
L 1057.381438 1917.630874 
L 1058.006014 1912.357733 
L 1058.63059 1922.122809 
L 1059.255166 1833.84652 
L 1059.879742 1921.146302 
L 1060.504318 1927.981855 
L 1061.128894 1913.138939 
L 1061.75347 1912.748336 
L 1062.378045 1933.059695 
L 1063.002621 1930.716077 
L 1064.251773 1891.265168 
L 1064.876349 1899.272531 
L 1065.500925 1822.32373 
L 1066.125501 1916.849668 
L 1066.750077 1894.975897 
L 1067.374653 1865.290065 
L 1067.999228 1880.328283 
L 1068.623804 1891.069867 
L 1069.24838 1886.773233 
L 1069.872956 1861.969939 
L 1070.497532 1882.281298 
L 1071.122108 1913.529542 
L 1071.746684 1911.381225 
L 1072.37126 1899.272531 
L 1072.995835 1884.039012 
L 1073.620411 1906.108084 
L 1074.244987 1869.977302 
L 1074.869563 1897.710119 
L 1075.494139 1934.817409 
L 1076.118715 1842.244485 
L 1076.743291 1899.077229 
L 1077.367867 1903.569164 
L 1077.992443 1899.858435 
L 1078.617018 1882.4766 
L 1079.241594 1895.171199 
L 1079.86617 1911.185924 
L 1080.490746 1856.8921 
L 1081.115322 1886.968535 
L 1081.739898 1884.820218 
L 1082.364474 1912.748336 
L 1082.98905 1927.395951 
L 1083.613626 1967.432763 
L 1084.238201 1884.820218 
L 1084.862777 1926.02884 
L 1085.487353 1887.554439 
L 1086.111929 1890.679264 
L 1086.736505 1863.532352 
L 1087.361081 1856.696798 
L 1087.985657 1877.39876 
L 1088.610233 1878.765871 
L 1089.234809 1910.795321 
L 1089.859384 1887.945042 
L 1090.48396 1913.724844 
L 1091.108536 1887.554439 
L 1091.733112 1902.98326 
L 1092.357688 1766.272192 
L 1092.982264 1901.616149 
L 1093.60684 1890.288661 
L 1094.231416 1876.812855 
L 1094.855991 1884.624916 
L 1095.480567 1901.030245 
L 1096.105143 1857.673306 
L 1096.729719 1915.482558 
L 1097.354295 1904.155069 
L 1098.603447 1896.733611 
L 1099.228023 1865.290065 
L 1100.477174 1824.86265 
L 1101.10175 1910.014115 
L 1101.726326 1890.679264 
L 1102.350902 1904.155069 
L 1102.975478 1831.3076 
L 1103.600054 1877.594062 
L 1104.22463 1905.326878 
L 1104.849206 1818.613001 
L 1105.473782 1891.069867 
L 1106.098357 1846.345817 
L 1106.722933 1929.153664 
L 1107.347509 1946.144897 
L 1107.972085 1905.52218 
L 1108.596661 1892.241676 
L 1109.221237 1891.069867 
L 1109.845813 1868.41489 
L 1110.470389 1892.436977 
L 1111.094965 1909.818813 
L 1111.71954 1868.805493 
L 1112.344116 1919.779191 
L 1112.968692 1835.21363 
L 1113.593268 1926.224141 
L 1114.217844 1873.297428 
L 1114.84242 1957.472386 
L 1115.466996 1847.127023 
L 1116.091572 1916.849668 
L 1116.716147 1908.647004 
L 1117.340723 1885.601424 
L 1117.965299 1879.156474 
L 1118.589875 1876.422252 
L 1119.214451 1944.387183 
L 1119.839027 1868.610191 
L 1120.463603 1854.743783 
L 1121.088179 1934.622107 
L 1122.33733 1815.878779 
L 1122.961906 1902.787958 
L 1123.586482 1922.318111 
L 1124.211058 1769.787619 
L 1124.835634 1881.890695 
L 1125.46021 1889.507455 
L 1126.084786 1891.069867 
L 1126.709362 1970.948191 
L 1127.958513 1765.881589 
L 1128.583089 1802.598276 
L 1129.207665 1873.492729 
L 1129.832241 1899.077229 
L 1130.456817 1861.579336 
L 1131.081393 1910.600019 
L 1131.705969 1902.592657 
L 1132.330545 1829.940489 
L 1132.955121 1877.984665 
L 1133.579696 1911.771829 
L 1134.204272 1926.419443 
L 1134.828848 1930.325473 
L 1135.453424 1880.132981 
L 1136.078 1904.936275 
L 1136.702576 1840.29147 
L 1137.327152 1927.981855 
L 1137.951728 1894.780596 
L 1138.576303 1882.281298 
L 1139.200879 1877.594062 
L 1139.825455 1894.389993 
L 1140.450031 1866.461875 
L 1142.323759 1924.661729 
L 1142.948335 1858.25921 
L 1143.572911 1910.600019 
L 1144.197486 1902.592657 
L 1144.822062 1852.400165 
L 1145.446638 1877.984665 
L 1146.69579 1936.184519 
L 1147.944942 1826.620363 
L 1148.569518 1854.157878 
L 1149.194094 1897.710119 
L 1149.818669 1906.108084 
L 1150.443245 1851.033054 
L 1151.067821 1885.796726 
L 1151.692397 1851.228356 
L 1152.316973 1866.461875 
L 1152.941549 1912.748336 
L 1153.566125 1885.992027 
L 1154.815277 1883.257806 
L 1155.439852 1840.486772 
L 1156.064428 1898.686626 
L 1156.689004 1918.802683 
L 1157.938156 1869.977302 
L 1159.187308 1882.671901 
L 1159.811884 1906.303386 
L 1160.436459 1858.649814 
L 1161.061035 1895.3665 
L 1161.685611 1867.047779 
L 1162.310187 1894.194691 
L 1163.559339 1880.328283 
L 1164.808491 1873.297428 
L 1165.433067 1902.397355 
L 1166.057642 1867.633684 
L 1166.682218 1884.624916 
L 1167.93137 1873.688031 
L 1168.555946 1887.163836 
L 1169.180522 1895.952405 
L 1169.805098 1908.451703 
L 1170.429674 1876.812855 
L 1171.678825 1894.194691 
L 1172.303401 1882.085997 
L 1172.927977 1889.116852 
L 1173.552553 1866.461875 
L 1174.177129 1871.344413 
L 1174.801705 1794.20031 
L 1175.426281 1905.326878 
L 1176.050857 1877.984665 
L 1177.924584 1851.228356 
L 1179.173736 1856.306195 
L 1179.798312 1865.290065 
L 1180.422888 1832.479409 
L 1181.047464 1767.248699 
L 1181.67204 1928.958363 
L 1182.296616 1915.873161 
L 1182.921191 1869.196096 
L 1183.545767 1873.492729 
L 1184.170343 1918.997985 
L 1184.794919 1953.956958 
L 1185.419495 1898.686626 
L 1186.668647 1882.671901 
L 1187.293223 1855.134386 
L 1187.917798 1863.33705 
L 1188.542374 1934.036202 
L 1189.16695 1898.881928 
L 1189.791526 1911.185924 
L 1190.416102 1906.303386 
L 1191.040678 1598.31288 
L 1191.665254 1905.912783 
L 1192.28983 1891.265168 
L 1192.914406 1956.300576 
L 1193.538981 1835.604233 
L 1194.163557 1896.733611 
L 1194.788133 1837.166646 
L 1195.412709 1828.76868 
L 1196.037285 1905.52218 
L 1197.286437 1909.232909 
L 1197.911013 1898.100722 
L 1199.160164 1871.149111 
L 1199.78474 1881.890695 
L 1200.409316 1878.961172 
L 1201.033892 1903.569164 
L 1202.283044 1877.594062 
L 1202.90762 1891.46047 
L 1204.156772 1905.912783 
L 1204.781347 1935.598615 
L 1205.405923 1802.793577 
L 1206.030499 1932.278489 
L 1206.655075 1850.056546 
L 1207.279651 1885.210821 
L 1208.528803 1878.570569 
L 1209.777954 1769.982921 
L 1211.027106 1875.250443 
L 1211.651682 1939.309344 
L 1212.276258 1891.851073 
L 1212.900834 1893.022882 
L 1213.52541 1872.125619 
L 1214.149986 1865.290065 
L 1214.774562 1899.858435 
L 1216.023713 1869.196096 
L 1216.648289 1803.18418 
L 1217.272865 1886.968535 
L 1217.897441 1915.091954 
L 1218.522017 1875.641046 
L 1219.146593 1887.359138 
L 1220.395745 1859.626321 
L 1221.02032 1884.429615 
L 1221.644896 1615.304112 
L 1222.269472 1894.585294 
L 1223.518624 1913.920145 
L 1224.1432 1933.450298 
L 1224.767776 1858.649814 
L 1225.392352 1943.99658 
L 1226.016928 1893.413485 
L 1227.266079 1924.857031 
L 1227.890655 1912.357733 
L 1228.515231 1890.288661 
L 1229.139807 1909.232909 
L 1229.764383 1875.836348 
L 1230.388959 1890.093359 
L 1231.013535 1909.232909 
L 1231.63811 1756.311814 
L 1232.262686 1805.918402 
L 1232.887262 1902.006752 
L 1233.511838 1927.200649 
L 1234.76099 1795.176818 
L 1235.385566 1835.408932 
L 1236.010142 1888.530947 
L 1236.634718 1909.818813 
L 1237.259293 1883.062504 
L 1237.883869 1846.73642 
L 1238.508445 1846.541119 
L 1239.133021 1923.880523 
L 1240.382173 1860.79813 
L 1241.006749 1902.006752 
L 1241.631325 1885.796726 
L 1242.255901 1890.679264 
L 1242.880476 1850.447149 
L 1243.505052 1902.202054 
L 1244.129628 1919.193287 
L 1244.754204 1919.193287 
L 1246.003356 1843.416295 
L 1247.252508 1914.896653 
L 1248.501659 1884.234313 
L 1249.126235 1878.179966 
L 1250.375387 1923.685222 
L 1250.999963 1838.729058 
L 1252.249115 1920.169794 
L 1252.873691 1914.701351 
L 1253.498266 1916.263764 
L 1254.122842 1906.108084 
L 1255.371994 1834.041821 
L 1257.245722 1925.052332 
L 1258.494874 1901.811451 
L 1259.119449 1910.795321 
L 1259.744025 1875.250443 
L 1260.368601 1888.92155 
L 1260.993177 1854.157878 
L 1261.617753 1886.968535 
L 1262.866905 1869.782 
L 1263.491481 1948.097912 
L 1265.365208 1889.116852 
L 1265.989784 1881.890695 
L 1266.61436 1895.757103 
L 1267.863512 1824.081443 
L 1268.488088 1876.031649 
L 1269.112664 1896.928913 
L 1269.73724 1877.789363 
L 1270.986391 1898.491325 
L 1271.610967 1894.389993 
L 1272.235543 1895.3665 
L 1272.860119 1872.516222 
L 1273.484695 1890.483962 
L 1274.733847 1919.193287 
L 1275.358422 1813.925764 
L 1275.982998 1835.018329 
L 1276.607574 1894.194691 
L 1277.23215 1889.507455 
L 1277.856726 1872.711523 
L 1278.481302 1907.475195 
L 1279.105878 1909.623512 
L 1279.730454 1843.416295 
L 1280.979605 1849.861245 
L 1281.604181 1879.351775 
L 1282.228757 1864.704161 
L 1283.477909 1883.84371 
L 1284.102485 1886.577932 
L 1286.600788 1904.740974 
L 1287.225364 1847.90823 
L 1287.84994 1886.187329 
L 1289.099092 1890.288661 
L 1289.723668 1833.455917 
L 1290.348244 1898.686626 
L 1292.221971 1889.507455 
L 1292.846547 1906.88929 
L 1294.095699 1894.585294 
L 1295.344851 1849.080039 
L 1297.843154 1928.763061 
L 1298.46773 1928.56776 
L 1299.092306 1927.786554 
L 1301.59061 1864.704161 
L 1302.839761 1894.389993 
L 1304.713489 1893.022882 
L 1305.338065 1867.633684 
L 1305.962641 1902.787958 
L 1306.587217 1893.413485 
L 1307.211793 1879.547077 
L 1307.836369 1909.818813 
L 1309.08552 1850.251848 
L 1309.710096 1893.413485 
L 1310.959248 1929.739569 
L 1311.583824 1923.294619 
L 1312.2084 1934.426806 
L 1312.832976 1912.748336 
L 1313.457552 1895.757103 
L 1314.082127 1865.094764 
L 1315.331279 1918.997985 
L 1315.955855 1879.156474 
L 1317.205007 1912.748336 
L 1320.327886 1814.511669 
L 1320.952462 1840.096169 
L 1321.577038 1881.304791 
L 1324.075342 1884.234313 
L 1324.699917 1877.008157 
L 1325.324493 1903.178561 
L 1325.949069 1888.140344 
L 1326.573645 1855.329688 
L 1327.198221 1867.633684 
L 1328.447373 1880.914187 
L 1329.071949 1901.811451 
L 1330.3211 1873.492729 
L 1330.945676 1842.83039 
L 1332.819404 1846.931722 
L 1333.44398 1889.507455 
L 1334.693132 1853.376672 
L 1335.317708 1896.147706 
L 1336.566859 1858.454512 
L 1337.191435 1853.376672 
L 1340.938891 1777.404379 
L 1342.812618 1840.096169 
L 1343.437194 1955.128767 
L 1344.06177 1880.132981 
L 1344.686346 1856.501497 
L 1345.310922 1858.845115 
L 1345.935498 1856.501497 
L 1346.560073 1704.947513 
L 1347.809225 1924.661729 
L 1348.433801 1885.796726 
L 1349.058377 1622.72557 
L 1349.682953 1452.227338 
L 1350.932105 1743.226612 
L 1352.181256 1870.563207 
L 1352.805832 1901.225546 
L 1354.054984 1889.116852 
L 1354.67956 1891.851073 
L 1355.928712 1839.510264 
L 1356.553288 1933.450298 
L 1357.177864 1919.193287 
L 1357.802439 1916.849668 
L 1358.427015 1861.384035 
L 1359.051591 1962.940828 
L 1360.300743 1888.335645 
L 1362.174471 1486.795708 
L 1362.799047 1905.717481 
L 1363.423622 1865.485367 
L 1367.171078 1859.626321 
L 1369.044805 1867.633684 
L 1369.669381 1888.726248 
L 1370.918533 1863.922955 
L 1371.543109 1868.610191 
L 1372.167685 1884.820218 
L 1373.416837 1938.332836 
L 1375.91514 1874.273936 
L 1377.164292 1877.594062 
L 1378.413444 1842.83039 
L 1379.03802 1907.475195 
L 1380.911747 1893.218184 
L 1382.160899 1851.423657 
L 1384.659203 1900.834943 
L 1385.283778 1892.436977 
L 1385.908354 1855.524989 
L 1386.53293 1880.328283 
L 1389.031234 1878.961172 
L 1389.65581 1858.845115 
L 1393.403265 1878.765871 
L 1395.901568 1922.904016 
L 1397.775296 1868.805493 
L 1399.024448 1932.47379 
L 1400.2736 1896.733611 
L 1402.147327 1890.093359 
L 1403.396479 1878.961172 
L 1404.021055 1881.890695 
L 1405.270207 1808.652623 
L 1405.894783 1874.664539 
L 1407.76851 1931.692584 
L 1408.393086 1880.718886 
L 1409.017662 1895.757103 
L 1409.642238 1889.702756 
L 1410.266814 1736.195757 
L 1411.515966 1838.729058 
L 1412.765117 1884.234313 
L 1415.263421 1950.050928 
L 1417.761724 1885.601424 
L 1418.3863 1851.618959 
L 1419.010876 1944.387183 
L 1420.884604 1902.787958 
L 1421.50918 1909.818813 
L 1422.133756 1847.127023 
L 1422.758332 1870.563207 
L 1423.382907 1558.471368 
L 1424.007483 1875.641046 
L 1425.256635 1890.874565 
L 1426.505787 1856.306195 
L 1427.130363 1908.451703 
L 1430.253242 1352.818862 
L 1430.877818 1839.314962 
L 1431.502394 1894.389993 
L 1432.751546 1870.563207 
L 1433.376122 1918.021477 
L 1434.000697 1884.624916 
L 1434.625273 1880.132981 
L 1435.874425 1853.767275 
L 1437.748153 1723.696459 
L 1438.372729 1910.990622 
L 1438.997305 1861.774638 
L 1439.62188 1899.272531 
L 1440.246456 1864.313558 
L 1441.495608 1915.091954 
L 1442.74476 1872.125619 
L 1443.993912 1868.219588 
L 1445.243063 1907.670496 
L 1449.615095 1918.021477 
L 1450.239671 1905.52218 
L 1451.488822 1917.630874 
L 1452.113398 1889.312153 
L 1453.36255 1845.955214 
L 1453.987126 1962.940828 
L 1454.611702 1467.265556 
L 1455.236278 1894.389993 
L 1456.485429 1922.122809 
L 1457.110005 1899.467832 
L 1457.734581 1869.000794 
L 1459.608309 1872.32092 
L 1460.232885 1877.789363 
L 1460.857461 1504.568147 
L 1461.482036 1849.861245 
L 1462.106612 1908.647004 
L 1463.355764 1921.927508 
L 1463.98034 1884.039012 
L 1464.604916 1783.654028 
L 1468.352371 1761.194352 
L 1468.976947 1899.858435 
L 1470.850675 1886.577932 
L 1471.475251 1869.391397 
L 1472.099827 1882.867203 
L 1473.973554 1780.919806 
L 1475.222706 1945.363691 
L 1477.096434 1888.335645 
L 1477.72101 1884.039012 
L 1478.970161 1882.867203 
L 1480.219313 1856.696798 
L 1480.843889 1853.181371 
L 1481.468465 1915.873161 
L 1482.093041 1904.350371 
L 1482.717617 1882.671901 
L 1483.966768 1893.022882 
L 1485.840496 1890.874565 
L 1486.465072 1800.059356 
L 1487.089648 1865.290065 
L 1488.3388 1797.715737 
L 1488.963375 1867.828985 
L 1489.587951 1878.961172 
L 1490.212527 1872.711523 
L 1490.837103 1865.290065 
L 1491.461679 1873.688031 
L 1492.086255 1853.181371 
L 1492.710831 1877.984665 
L 1493.335407 1869.196096 
L 1493.959983 1969.385779 
L 1494.584558 1908.0611 
L 1495.209134 1861.969939 
L 1496.458286 1865.680668 
L 1497.082862 1872.32092 
L 1497.707438 1918.607382 
L 1498.332014 1768.029906 
L 1500.205741 1877.203458 
L 1500.830317 1900.834943 
L 1502.079469 1866.461875 
L 1505.202348 1884.820218 
L 1506.4515 1841.658581 
L 1507.076076 1911.96713 
L 1507.700652 1867.243081 
L 1508.325228 1834.237123 
L 1508.949804 1875.055142 
L 1509.57438 1878.765871 
L 1513.321835 1900.249039 
L 1513.946411 1906.693989 
L 1514.570987 1871.930317 
L 1515.195563 1922.318111 
L 1516.444714 1885.015519 
L 1517.06929 1878.961172 
L 1518.318442 1877.203458 
L 1520.816746 1894.780596 
L 1521.441322 1894.975897 
L 1522.065897 1842.439787 
L 1522.690473 1842.439787 
L 1523.315049 1771.545333 
L 1523.939625 1555.541845 
L 1526.437929 1894.389993 
L 1529.560808 1877.203458 
L 1530.185384 1839.119661 
L 1532.059112 1868.805493 
L 1533.308263 1927.005348 
L 1542.676902 1886.773233 
L 1543.926053 1714.712589 
L 1546.424357 1878.765871 
L 1553.294692 1906.88929 
L 1557.042147 1933.450298 
L 1563.287906 1928.763061 
L 1563.912482 1945.949596 
L 1564.537058 1887.554439 
L 1579.526879 1900.053737 
L 1595.141276 1842.635088 
L 1603.885338 1948.879118 
L 1613.253977 1881.695394 
L 1623.871767 1951.027435 
L 1647.60565 1901.811451 
L 1648.230226 1923.685222 
L 1653.851409 1897.124214 
L 1663.844623 1924.075825 
L 1681.957324 1900.834943 
L 1688.203083 1877.008157 
L 1689.452235 1844.392802 
L 1702.568328 1872.516222 
L 1703.81748 1838.143153 
L 1708.189511 1752.210482 
L 1709.438663 1867.633684 
L 1716.308998 1917.826176 
L 1718.182726 1922.122809 
L 1720.056453 1826.815665 
L 1723.803909 1961.964321 
L 1724.428484 1855.524989 
L 1726.926788 1848.103531 
L 1727.551364 1879.547077 
L 1733.172547 1935.989218 
L 1733.797123 1889.312153 
L 1734.421699 1851.033054 
L 1735.67085 1920.755699 
L 1740.667457 1920.755699 
L 1745.039489 1914.896653 
L 1745.039489 1914.896653 
" style="fill:none;stroke:#0000ff;stroke-linecap:square;stroke-width:1.5;"/>
   </g>
   <g id="patch_3">
    <path d="M 40.603125 2052.76 
L 40.603125 278.68 
" style="fill:none;stroke:#000000;stroke-linecap:square;stroke-linejoin:miter;stroke-width:0.8;"/>
   </g>
   <g id="patch_4">
    <path d="M 1826.203125 2052.76 
L 1826.203125 278.68 
" style="fill:none;stroke:#000000;stroke-linecap:square;stroke-linejoin:miter;stroke-width:0.8;"/>
   </g>
   <g id="patch_5">
    <path d="M 40.603125 2052.76 
L 1826.203125 2052.76 
" style="fill:none;stroke:#000000;stroke-linecap:square;stroke-linejoin:miter;stroke-width:0.8;"/>
   </g>
   <g id="patch_6">
    <path d="M 40.603125 278.68 
L 1826.203125 278.68 
" style="fill:none;stroke:#000000;stroke-linecap:square;stroke-linejoin:miter;stroke-width:0.8;"/>
   </g>
   <g id="text_13">
    <text style="font-family:DejaVu Sans;font-size:12px;font-stretch:normal;font-style:normal;font-weight:normal;text-anchor:middle;" transform="rotate(-0, 933.403125, 272.68)" x="933.403125" y="272.68">temperature-&gt;ping</text>
   </g>
  </g>
  <g id="legend_1">
   <g id="patch_7">
    <path d="M 1975.2375 22.678125 
L 2051.803125 22.678125 
Q 2053.803125 22.678125 2053.803125 20.678125 
L 2053.803125 7 
Q 2053.803125 5 2051.803125 5 
L 1975.2375 5 
Q 1973.2375 5 1973.2375 7 
L 1973.2375 20.678125 
Q 1973.2375 22.678125 1975.2375 22.678125 
z
" style="fill:#ffffff;opacity:0.8;stroke:#cccccc;stroke-linejoin:miter;"/>
   </g>
   <g id="line2d_12">
    <path d="M 1977.2375 13.098437 
L 1997.2375 13.098437 
" style="fill:none;stroke:#0000ff;stroke-linecap:square;stroke-width:1.5;"/>
   </g>
   <g id="line2d_13"/>
   <g id="text_14">
    <text style="font-family:DejaVu Sans;font-size:10px;font-stretch:normal;font-style:normal;font-weight:normal;text-anchor:start;" transform="rotate(-0, 2005.2375, 16.598437)" x="2005.2375" y="16.598437">ping[ms]</text>
   </g>
  </g>
 </g>
 <defs>
  <clipPath id="p6a00bcde3f">
   <rect height="1774.08" width="1785.6" x="40.603125" y="278.68"/>
  </clipPath>
 </defs>
</svg>
