<?xml version="1.0" encoding="utf-8" standalone="no"?>
<!DOCTYPE svg PUBLIC "-//W3C//DTD SVG 1.1//EN"
  "http://www.w3.org/Graphics/SVG/1.1/DTD/svg11.dtd">
<svg height="345.6pt" version="1.1" viewBox="0 0 460.8 345.6" width="460.8pt" xmlns="http://www.w3.org/2000/svg" xmlns:xlink="http://www.w3.org/1999/xlink">
 <metadata>
  <rdf:RDF xmlns:cc="http://creativecommons.org/ns#" xmlns:dc="http://purl.org/dc/elements/1.1/" xmlns:rdf="http://www.w3.org/1999/02/22-rdf-syntax-ns#">
   <cc:Work>
    <dc:type rdf:resource="http://purl.org/dc/dcmitype/StillImage"/>
    <dc:date>2022-06-12T23:16:04.517491</dc:date>
    <dc:format>image/svg+xml</dc:format>
    <dc:creator>
     <cc:Agent>
      <dc:title>Matplotlib v3.4.2, https://matplotlib.org/</dc:title>
     </cc:Agent>
    </dc:creator>
   </cc:Work>
  </rdf:RDF>
 </metadata>
 <defs>
  <style type="text/css">*{stroke-linecap:butt;stroke-linejoin:round;}</style>
 </defs>
 <g id="figure_1">
  <g id="patch_1">
   <path d="M 0 345.6 
L 460.8 345.6 
L 460.8 0 
L 0 0 
z
" style="fill:#ffffff;"/>
  </g>
  <g id="axes_1">
   <g id="patch_2">
    <path d="M 57.6 307.584 
L 414.72 307.584 
L 414.72 41.472 
L 57.6 41.472 
z
" style="fill:#ffffff;"/>
   </g>
   <g id="matplotlib.axis_1">
    <g id="xtick_1">
     <g id="line2d_1">
      <defs>
       <path d="M 0 0 
L 0 3.5 
" id="m6c1f00fc6b" style="stroke:#000000;stroke-width:0.8;"/>
      </defs>
      <g>
       <use style="stroke:#000000;stroke-width:0.8;" x="65.285374" xlink:href="#m6c1f00fc6b" y="307.584"/>
      </g>
     </g>
     <g id="text_1">
      <!-- 5 -->
      <g transform="translate(62.104124 322.182437)scale(0.1 -0.1)">
       <defs>
        <path d="M 691 4666 
L 3169 4666 
L 3169 4134 
L 1269 4134 
L 1269 2991 
Q 1406 3038 1543 3061 
Q 1681 3084 1819 3084 
Q 2600 3084 3056 2656 
Q 3513 2228 3513 1497 
Q 3513 744 3044 326 
Q 2575 -91 1722 -91 
Q 1428 -91 1123 -41 
Q 819 9 494 109 
L 494 744 
Q 775 591 1075 516 
Q 1375 441 1709 441 
Q 2250 441 2565 725 
Q 2881 1009 2881 1497 
Q 2881 1984 2565 2268 
Q 2250 2553 1709 2553 
Q 1456 2553 1204 2497 
Q 953 2441 691 2322 
L 691 4666 
z
" id="DejaVuSans-35" transform="scale(0.015625)"/>
       </defs>
       <use xlink:href="#DejaVuSans-35"/>
      </g>
     </g>
    </g>
    <g id="xtick_2">
     <g id="line2d_2">
      <g>
       <use style="stroke:#000000;stroke-width:0.8;" x="137.72057" xlink:href="#m6c1f00fc6b" y="307.584"/>
      </g>
     </g>
     <g id="text_2">
      <!-- 10 -->
      <g transform="translate(131.35807 322.182437)scale(0.1 -0.1)">
       <defs>
        <path d="M 794 531 
L 1825 531 
L 1825 4091 
L 703 3866 
L 703 4441 
L 1819 4666 
L 2450 4666 
L 2450 531 
L 3481 531 
L 3481 0 
L 794 0 
L 794 531 
z
" id="DejaVuSans-31" transform="scale(0.015625)"/>
        <path d="M 2034 4250 
Q 1547 4250 1301 3770 
Q 1056 3291 1056 2328 
Q 1056 1369 1301 889 
Q 1547 409 2034 409 
Q 2525 409 2770 889 
Q 3016 1369 3016 2328 
Q 3016 3291 2770 3770 
Q 2525 4250 2034 4250 
z
M 2034 4750 
Q 2819 4750 3233 4129 
Q 3647 3509 3647 2328 
Q 3647 1150 3233 529 
Q 2819 -91 2034 -91 
Q 1250 -91 836 529 
Q 422 1150 422 2328 
Q 422 3509 836 4129 
Q 1250 4750 2034 4750 
z
" id="DejaVuSans-30" transform="scale(0.015625)"/>
       </defs>
       <use xlink:href="#DejaVuSans-31"/>
       <use x="63.623047" xlink:href="#DejaVuSans-30"/>
      </g>
     </g>
    </g>
    <g id="xtick_3">
     <g id="line2d_3">
      <g>
       <use style="stroke:#000000;stroke-width:0.8;" x="210.155765" xlink:href="#m6c1f00fc6b" y="307.584"/>
      </g>
     </g>
     <g id="text_3">
      <!-- 15 -->
      <g transform="translate(203.793265 322.182437)scale(0.1 -0.1)">
       <use xlink:href="#DejaVuSans-31"/>
       <use x="63.623047" xlink:href="#DejaVuSans-35"/>
      </g>
     </g>
    </g>
    <g id="xtick_4">
     <g id="line2d_4">
      <g>
       <use style="stroke:#000000;stroke-width:0.8;" x="282.59096" xlink:href="#m6c1f00fc6b" y="307.584"/>
      </g>
     </g>
     <g id="text_4">
      <!-- 20 -->
      <g transform="translate(276.22846 322.182437)scale(0.1 -0.1)">
       <defs>
        <path d="M 1228 531 
L 3431 531 
L 3431 0 
L 469 0 
L 469 531 
Q 828 903 1448 1529 
Q 2069 2156 2228 2338 
Q 2531 2678 2651 2914 
Q 2772 3150 2772 3378 
Q 2772 3750 2511 3984 
Q 2250 4219 1831 4219 
Q 1534 4219 1204 4116 
Q 875 4013 500 3803 
L 500 4441 
Q 881 4594 1212 4672 
Q 1544 4750 1819 4750 
Q 2544 4750 2975 4387 
Q 3406 4025 3406 3419 
Q 3406 3131 3298 2873 
Q 3191 2616 2906 2266 
Q 2828 2175 2409 1742 
Q 1991 1309 1228 531 
z
" id="DejaVuSans-32" transform="scale(0.015625)"/>
       </defs>
       <use xlink:href="#DejaVuSans-32"/>
       <use x="63.623047" xlink:href="#DejaVuSans-30"/>
      </g>
     </g>
    </g>
    <g id="xtick_5">
     <g id="line2d_5">
      <g>
       <use style="stroke:#000000;stroke-width:0.8;" x="355.026156" xlink:href="#m6c1f00fc6b" y="307.584"/>
      </g>
     </g>
     <g id="text_5">
      <!-- 25 -->
      <g transform="translate(348.663656 322.182437)scale(0.1 -0.1)">
       <use xlink:href="#DejaVuSans-32"/>
       <use x="63.623047" xlink:href="#DejaVuSans-35"/>
      </g>
     </g>
    </g>
    <g id="text_6">
     <!-- temperature from OpenWeatherMap -->
     <g transform="translate(144.963906 335.860562)scale(0.1 -0.1)">
      <defs>
       <path d="M 1172 4494 
L 1172 3500 
L 2356 3500 
L 2356 3053 
L 1172 3053 
L 1172 1153 
Q 1172 725 1289 603 
Q 1406 481 1766 481 
L 2356 481 
L 2356 0 
L 1766 0 
Q 1100 0 847 248 
Q 594 497 594 1153 
L 594 3053 
L 172 3053 
L 172 3500 
L 594 3500 
L 594 4494 
L 1172 4494 
z
" id="DejaVuSans-74" transform="scale(0.015625)"/>
       <path d="M 3597 1894 
L 3597 1613 
L 953 1613 
Q 991 1019 1311 708 
Q 1631 397 2203 397 
Q 2534 397 2845 478 
Q 3156 559 3463 722 
L 3463 178 
Q 3153 47 2828 -22 
Q 2503 -91 2169 -91 
Q 1331 -91 842 396 
Q 353 884 353 1716 
Q 353 2575 817 3079 
Q 1281 3584 2069 3584 
Q 2775 3584 3186 3129 
Q 3597 2675 3597 1894 
z
M 3022 2063 
Q 3016 2534 2758 2815 
Q 2500 3097 2075 3097 
Q 1594 3097 1305 2825 
Q 1016 2553 972 2059 
L 3022 2063 
z
" id="DejaVuSans-65" transform="scale(0.015625)"/>
       <path d="M 3328 2828 
Q 3544 3216 3844 3400 
Q 4144 3584 4550 3584 
Q 5097 3584 5394 3201 
Q 5691 2819 5691 2113 
L 5691 0 
L 5113 0 
L 5113 2094 
Q 5113 2597 4934 2840 
Q 4756 3084 4391 3084 
Q 3944 3084 3684 2787 
Q 3425 2491 3425 1978 
L 3425 0 
L 2847 0 
L 2847 2094 
Q 2847 2600 2669 2842 
Q 2491 3084 2119 3084 
Q 1678 3084 1418 2786 
Q 1159 2488 1159 1978 
L 1159 0 
L 581 0 
L 581 3500 
L 1159 3500 
L 1159 2956 
Q 1356 3278 1631 3431 
Q 1906 3584 2284 3584 
Q 2666 3584 2933 3390 
Q 3200 3197 3328 2828 
z
" id="DejaVuSans-6d" transform="scale(0.015625)"/>
       <path d="M 1159 525 
L 1159 -1331 
L 581 -1331 
L 581 3500 
L 1159 3500 
L 1159 2969 
Q 1341 3281 1617 3432 
Q 1894 3584 2278 3584 
Q 2916 3584 3314 3078 
Q 3713 2572 3713 1747 
Q 3713 922 3314 415 
Q 2916 -91 2278 -91 
Q 1894 -91 1617 61 
Q 1341 213 1159 525 
z
M 3116 1747 
Q 3116 2381 2855 2742 
Q 2594 3103 2138 3103 
Q 1681 3103 1420 2742 
Q 1159 2381 1159 1747 
Q 1159 1113 1420 752 
Q 1681 391 2138 391 
Q 2594 391 2855 752 
Q 3116 1113 3116 1747 
z
" id="DejaVuSans-70" transform="scale(0.015625)"/>
       <path d="M 2631 2963 
Q 2534 3019 2420 3045 
Q 2306 3072 2169 3072 
Q 1681 3072 1420 2755 
Q 1159 2438 1159 1844 
L 1159 0 
L 581 0 
L 581 3500 
L 1159 3500 
L 1159 2956 
Q 1341 3275 1631 3429 
Q 1922 3584 2338 3584 
Q 2397 3584 2469 3576 
Q 2541 3569 2628 3553 
L 2631 2963 
z
" id="DejaVuSans-72" transform="scale(0.015625)"/>
       <path d="M 2194 1759 
Q 1497 1759 1228 1600 
Q 959 1441 959 1056 
Q 959 750 1161 570 
Q 1363 391 1709 391 
Q 2188 391 2477 730 
Q 2766 1069 2766 1631 
L 2766 1759 
L 2194 1759 
z
M 3341 1997 
L 3341 0 
L 2766 0 
L 2766 531 
Q 2569 213 2275 61 
Q 1981 -91 1556 -91 
Q 1019 -91 701 211 
Q 384 513 384 1019 
Q 384 1609 779 1909 
Q 1175 2209 1959 2209 
L 2766 2209 
L 2766 2266 
Q 2766 2663 2505 2880 
Q 2244 3097 1772 3097 
Q 1472 3097 1187 3025 
Q 903 2953 641 2809 
L 641 3341 
Q 956 3463 1253 3523 
Q 1550 3584 1831 3584 
Q 2591 3584 2966 3190 
Q 3341 2797 3341 1997 
z
" id="DejaVuSans-61" transform="scale(0.015625)"/>
       <path d="M 544 1381 
L 544 3500 
L 1119 3500 
L 1119 1403 
Q 1119 906 1312 657 
Q 1506 409 1894 409 
Q 2359 409 2629 706 
Q 2900 1003 2900 1516 
L 2900 3500 
L 3475 3500 
L 3475 0 
L 2900 0 
L 2900 538 
Q 2691 219 2414 64 
Q 2138 -91 1772 -91 
Q 1169 -91 856 284 
Q 544 659 544 1381 
z
M 1991 3584 
L 1991 3584 
z
" id="DejaVuSans-75" transform="scale(0.015625)"/>
       <path id="DejaVuSans-20" transform="scale(0.015625)"/>
       <path d="M 2375 4863 
L 2375 4384 
L 1825 4384 
Q 1516 4384 1395 4259 
Q 1275 4134 1275 3809 
L 1275 3500 
L 2222 3500 
L 2222 3053 
L 1275 3053 
L 1275 0 
L 697 0 
L 697 3053 
L 147 3053 
L 147 3500 
L 697 3500 
L 697 3744 
Q 697 4328 969 4595 
Q 1241 4863 1831 4863 
L 2375 4863 
z
" id="DejaVuSans-66" transform="scale(0.015625)"/>
       <path d="M 1959 3097 
Q 1497 3097 1228 2736 
Q 959 2375 959 1747 
Q 959 1119 1226 758 
Q 1494 397 1959 397 
Q 2419 397 2687 759 
Q 2956 1122 2956 1747 
Q 2956 2369 2687 2733 
Q 2419 3097 1959 3097 
z
M 1959 3584 
Q 2709 3584 3137 3096 
Q 3566 2609 3566 1747 
Q 3566 888 3137 398 
Q 2709 -91 1959 -91 
Q 1206 -91 779 398 
Q 353 888 353 1747 
Q 353 2609 779 3096 
Q 1206 3584 1959 3584 
z
" id="DejaVuSans-6f" transform="scale(0.015625)"/>
       <path d="M 2522 4238 
Q 1834 4238 1429 3725 
Q 1025 3213 1025 2328 
Q 1025 1447 1429 934 
Q 1834 422 2522 422 
Q 3209 422 3611 934 
Q 4013 1447 4013 2328 
Q 4013 3213 3611 3725 
Q 3209 4238 2522 4238 
z
M 2522 4750 
Q 3503 4750 4090 4092 
Q 4678 3434 4678 2328 
Q 4678 1225 4090 567 
Q 3503 -91 2522 -91 
Q 1538 -91 948 565 
Q 359 1222 359 2328 
Q 359 3434 948 4092 
Q 1538 4750 2522 4750 
z
" id="DejaVuSans-4f" transform="scale(0.015625)"/>
       <path d="M 3513 2113 
L 3513 0 
L 2938 0 
L 2938 2094 
Q 2938 2591 2744 2837 
Q 2550 3084 2163 3084 
Q 1697 3084 1428 2787 
Q 1159 2491 1159 1978 
L 1159 0 
L 581 0 
L 581 3500 
L 1159 3500 
L 1159 2956 
Q 1366 3272 1645 3428 
Q 1925 3584 2291 3584 
Q 2894 3584 3203 3211 
Q 3513 2838 3513 2113 
z
" id="DejaVuSans-6e" transform="scale(0.015625)"/>
       <path d="M 213 4666 
L 850 4666 
L 1831 722 
L 2809 4666 
L 3519 4666 
L 4500 722 
L 5478 4666 
L 6119 4666 
L 4947 0 
L 4153 0 
L 3169 4050 
L 2175 0 
L 1381 0 
L 213 4666 
z
" id="DejaVuSans-57" transform="scale(0.015625)"/>
       <path d="M 3513 2113 
L 3513 0 
L 2938 0 
L 2938 2094 
Q 2938 2591 2744 2837 
Q 2550 3084 2163 3084 
Q 1697 3084 1428 2787 
Q 1159 2491 1159 1978 
L 1159 0 
L 581 0 
L 581 4863 
L 1159 4863 
L 1159 2956 
Q 1366 3272 1645 3428 
Q 1925 3584 2291 3584 
Q 2894 3584 3203 3211 
Q 3513 2838 3513 2113 
z
" id="DejaVuSans-68" transform="scale(0.015625)"/>
       <path d="M 628 4666 
L 1569 4666 
L 2759 1491 
L 3956 4666 
L 4897 4666 
L 4897 0 
L 4281 0 
L 4281 4097 
L 3078 897 
L 2444 897 
L 1241 4097 
L 1241 0 
L 628 0 
L 628 4666 
z
" id="DejaVuSans-4d" transform="scale(0.015625)"/>
      </defs>
      <use xlink:href="#DejaVuSans-74"/>
      <use x="39.208984" xlink:href="#DejaVuSans-65"/>
      <use x="100.732422" xlink:href="#DejaVuSans-6d"/>
      <use x="198.144531" xlink:href="#DejaVuSans-70"/>
      <use x="261.621094" xlink:href="#DejaVuSans-65"/>
      <use x="323.144531" xlink:href="#DejaVuSans-72"/>
      <use x="364.257812" xlink:href="#DejaVuSans-61"/>
      <use x="425.537109" xlink:href="#DejaVuSans-74"/>
      <use x="464.746094" xlink:href="#DejaVuSans-75"/>
      <use x="528.125" xlink:href="#DejaVuSans-72"/>
      <use x="566.988281" xlink:href="#DejaVuSans-65"/>
      <use x="628.511719" xlink:href="#DejaVuSans-20"/>
      <use x="660.298828" xlink:href="#DejaVuSans-66"/>
      <use x="695.503906" xlink:href="#DejaVuSans-72"/>
      <use x="734.367188" xlink:href="#DejaVuSans-6f"/>
      <use x="795.548828" xlink:href="#DejaVuSans-6d"/>
      <use x="892.960938" xlink:href="#DejaVuSans-20"/>
      <use x="924.748047" xlink:href="#DejaVuSans-4f"/>
      <use x="1003.458984" xlink:href="#DejaVuSans-70"/>
      <use x="1066.935547" xlink:href="#DejaVuSans-65"/>
      <use x="1128.458984" xlink:href="#DejaVuSans-6e"/>
      <use x="1191.837891" xlink:href="#DejaVuSans-57"/>
      <use x="1284.839844" xlink:href="#DejaVuSans-65"/>
      <use x="1346.363281" xlink:href="#DejaVuSans-61"/>
      <use x="1407.642578" xlink:href="#DejaVuSans-74"/>
      <use x="1446.851562" xlink:href="#DejaVuSans-68"/>
      <use x="1510.230469" xlink:href="#DejaVuSans-65"/>
      <use x="1571.753906" xlink:href="#DejaVuSans-72"/>
      <use x="1612.867188" xlink:href="#DejaVuSans-4d"/>
      <use x="1699.146484" xlink:href="#DejaVuSans-61"/>
      <use x="1760.425781" xlink:href="#DejaVuSans-70"/>
     </g>
    </g>
   </g>
   <g id="matplotlib.axis_2">
    <g id="ytick_1">
     <g id="line2d_6">
      <defs>
       <path d="M 0 0 
L -3.5 0 
" id="mc86769b204" style="stroke:#000000;stroke-width:0.8;"/>
      </defs>
      <g>
       <use style="stroke:#000000;stroke-width:0.8;" x="57.6" xlink:href="#mc86769b204" y="307.151869"/>
      </g>
     </g>
     <g id="text_7">
      <!-- 4 -->
      <g transform="translate(44.2375 310.951088)scale(0.1 -0.1)">
       <defs>
        <path d="M 2419 4116 
L 825 1625 
L 2419 1625 
L 2419 4116 
z
M 2253 4666 
L 3047 4666 
L 3047 1625 
L 3713 1625 
L 3713 1100 
L 3047 1100 
L 3047 0 
L 2419 0 
L 2419 1100 
L 313 1100 
L 313 1709 
L 2253 4666 
z
" id="DejaVuSans-34" transform="scale(0.015625)"/>
       </defs>
       <use xlink:href="#DejaVuSans-34"/>
      </g>
     </g>
    </g>
    <g id="ytick_2">
     <g id="line2d_7">
      <g>
       <use style="stroke:#000000;stroke-width:0.8;" x="57.6" xlink:href="#mc86769b204" y="270.530616"/>
      </g>
     </g>
     <g id="text_8">
      <!-- 6 -->
      <g transform="translate(44.2375 274.329835)scale(0.1 -0.1)">
       <defs>
        <path d="M 2113 2584 
Q 1688 2584 1439 2293 
Q 1191 2003 1191 1497 
Q 1191 994 1439 701 
Q 1688 409 2113 409 
Q 2538 409 2786 701 
Q 3034 994 3034 1497 
Q 3034 2003 2786 2293 
Q 2538 2584 2113 2584 
z
M 3366 4563 
L 3366 3988 
Q 3128 4100 2886 4159 
Q 2644 4219 2406 4219 
Q 1781 4219 1451 3797 
Q 1122 3375 1075 2522 
Q 1259 2794 1537 2939 
Q 1816 3084 2150 3084 
Q 2853 3084 3261 2657 
Q 3669 2231 3669 1497 
Q 3669 778 3244 343 
Q 2819 -91 2113 -91 
Q 1303 -91 875 529 
Q 447 1150 447 2328 
Q 447 3434 972 4092 
Q 1497 4750 2381 4750 
Q 2619 4750 2861 4703 
Q 3103 4656 3366 4563 
z
" id="DejaVuSans-36" transform="scale(0.015625)"/>
       </defs>
       <use xlink:href="#DejaVuSans-36"/>
      </g>
     </g>
    </g>
    <g id="ytick_3">
     <g id="line2d_8">
      <g>
       <use style="stroke:#000000;stroke-width:0.8;" x="57.6" xlink:href="#mc86769b204" y="233.909362"/>
      </g>
     </g>
     <g id="text_9">
      <!-- 8 -->
      <g transform="translate(44.2375 237.708581)scale(0.1 -0.1)">
       <defs>
        <path d="M 2034 2216 
Q 1584 2216 1326 1975 
Q 1069 1734 1069 1313 
Q 1069 891 1326 650 
Q 1584 409 2034 409 
Q 2484 409 2743 651 
Q 3003 894 3003 1313 
Q 3003 1734 2745 1975 
Q 2488 2216 2034 2216 
z
M 1403 2484 
Q 997 2584 770 2862 
Q 544 3141 544 3541 
Q 544 4100 942 4425 
Q 1341 4750 2034 4750 
Q 2731 4750 3128 4425 
Q 3525 4100 3525 3541 
Q 3525 3141 3298 2862 
Q 3072 2584 2669 2484 
Q 3125 2378 3379 2068 
Q 3634 1759 3634 1313 
Q 3634 634 3220 271 
Q 2806 -91 2034 -91 
Q 1263 -91 848 271 
Q 434 634 434 1313 
Q 434 1759 690 2068 
Q 947 2378 1403 2484 
z
M 1172 3481 
Q 1172 3119 1398 2916 
Q 1625 2713 2034 2713 
Q 2441 2713 2670 2916 
Q 2900 3119 2900 3481 
Q 2900 3844 2670 4047 
Q 2441 4250 2034 4250 
Q 1625 4250 1398 4047 
Q 1172 3844 1172 3481 
z
" id="DejaVuSans-38" transform="scale(0.015625)"/>
       </defs>
       <use xlink:href="#DejaVuSans-38"/>
      </g>
     </g>
    </g>
    <g id="ytick_4">
     <g id="line2d_9">
      <g>
       <use style="stroke:#000000;stroke-width:0.8;" x="57.6" xlink:href="#mc86769b204" y="197.288109"/>
      </g>
     </g>
     <g id="text_10">
      <!-- 10 -->
      <g transform="translate(37.875 201.087328)scale(0.1 -0.1)">
       <use xlink:href="#DejaVuSans-31"/>
       <use x="63.623047" xlink:href="#DejaVuSans-30"/>
      </g>
     </g>
    </g>
    <g id="ytick_5">
     <g id="line2d_10">
      <g>
       <use style="stroke:#000000;stroke-width:0.8;" x="57.6" xlink:href="#mc86769b204" y="160.666856"/>
      </g>
     </g>
     <g id="text_11">
      <!-- 12 -->
      <g transform="translate(37.875 164.466074)scale(0.1 -0.1)">
       <use xlink:href="#DejaVuSans-31"/>
       <use x="63.623047" xlink:href="#DejaVuSans-32"/>
      </g>
     </g>
    </g>
    <g id="ytick_6">
     <g id="line2d_11">
      <g>
       <use style="stroke:#000000;stroke-width:0.8;" x="57.6" xlink:href="#mc86769b204" y="124.045602"/>
      </g>
     </g>
     <g id="text_12">
      <!-- 14 -->
      <g transform="translate(37.875 127.844821)scale(0.1 -0.1)">
       <use xlink:href="#DejaVuSans-31"/>
       <use x="63.623047" xlink:href="#DejaVuSans-34"/>
      </g>
     </g>
    </g>
    <g id="ytick_7">
     <g id="line2d_12">
      <g>
       <use style="stroke:#000000;stroke-width:0.8;" x="57.6" xlink:href="#mc86769b204" y="87.424349"/>
      </g>
     </g>
     <g id="text_13">
      <!-- 16 -->
      <g transform="translate(37.875 91.223568)scale(0.1 -0.1)">
       <use xlink:href="#DejaVuSans-31"/>
       <use x="63.623047" xlink:href="#DejaVuSans-36"/>
      </g>
     </g>
    </g>
    <g id="ytick_8">
     <g id="line2d_13">
      <g>
       <use style="stroke:#000000;stroke-width:0.8;" x="57.6" xlink:href="#mc86769b204" y="50.803095"/>
      </g>
     </g>
     <g id="text_14">
      <!-- 18 -->
      <g transform="translate(37.875 54.602314)scale(0.1 -0.1)">
       <use xlink:href="#DejaVuSans-31"/>
       <use x="63.623047" xlink:href="#DejaVuSans-38"/>
      </g>
     </g>
    </g>
   </g>
   <g id="line2d_14">
    <path clip-path="url(#p662355bd0b)" d="M 73.832727 290.379335 
L 74.267338 289.976501 
L 74.70195 289.335629 
L 76.730135 287.376392 
L 77.164746 289.701842 
L 78.758321 287.59612 
L 78.903191 284.812905 
L 79.048061 291.880807 
L 79.192932 290.086365 
L 80.062154 289.701842 
L 80.207024 292.448436 
L 81.945469 158.854104 
L 84.842877 287.101733 
L 86.14671 289.64691 
L 86.291581 286.918627 
L 86.871062 288.566583 
L 87.015933 286.753831 
L 88.609507 283.641025 
L 89.188989 286.552414 
L 90.782563 289.280698 
L 90.927433 280.60146 
L 91.941526 283.421297 
L 92.231267 288.291924 
L 92.376137 284.501624 
L 92.521008 287.266529 
L 93.39023 286.44255 
L 93.5351 290.580752 
L 93.824841 290.470888 
L 94.114582 286.021406 
L 94.694064 285.728436 
L 95.708156 287.174975 
L 95.997897 285.56364 
L 96.577379 283.457918 
L 97.15686 283.311433 
L 97.301731 287.248218 
L 97.736342 290.727237 
L 98.026083 289.335629 
L 98.605564 290.892033 
L 98.895305 286.772142 
L 99.185046 286.497482 
L 99.329916 277.268926 
L 99.474786 290.159608 
L 99.619657 283.073395 
L 99.909398 283.421297 
L 101.358101 276.060425 
L 102.517065 285.673504 
L 102.661935 283.384676 
L 103.096546 283.329744 
L 103.531157 288.969417 
L 103.676028 285.453777 
L 103.965769 287.577809 
L 104.40038 275.03503 
L 104.69012 290.159608 
L 105.269602 286.14958 
L 105.993954 287.632741 
L 106.138824 276.335084 
L 106.428565 287.046801 
L 106.863176 280.180316 
L 108.022139 278.367564 
L 108.16701 287.870779 
L 108.31188 270.970071 
L 108.456751 286.497482 
L 108.891362 263.114812 
L 109.325973 281.590234 
L 109.615714 288.072196 
L 109.905455 290.635684 
L 110.774677 288.786311 
L 110.919547 290.690616 
L 111.064418 279.814104 
L 111.354158 277.08582 
L 111.643899 218.198845 
L 111.93364 263.883858 
L 112.368251 284.117101 
L 112.513122 276.463259 
L 112.657992 288.090507 
L 112.802862 284.611488 
L 113.092603 285.032632 
L 113.237474 259.983695 
L 113.382344 281.828272 
L 113.527214 282.432523 
L 113.816955 288.090507 
L 114.106696 283.348054 
L 114.251566 291.752632 
L 114.541307 287.467946 
L 114.686177 289.06097 
L 114.831048 281.718409 
L 114.975918 290.269471 
L 115.120789 287.522877 
L 115.265659 288.291924 
L 115.70027 287.925711 
L 115.990011 292.448436 
L 116.279752 287.02849 
L 116.569493 288.877864 
L 116.714363 290.727237 
L 117.004104 283.183259 
L 117.148974 270.310888 
L 117.583585 287.138354 
L 117.728456 286.643967 
L 118.018196 287.339771 
L 118.163067 287.046801 
L 118.307937 283.000153 
L 118.742548 278.422496 
L 118.887419 273.954703 
L 119.032289 290.21454 
L 119.17716 281.443749 
L 119.32203 290.361025 
L 119.4669 287.742605 
L 119.611771 283.110016 
L 119.756641 290.690616 
L 120.046382 288.310234 
L 120.191252 263.828926 
L 120.336123 289.848327 
L 120.625863 282.597319 
L 121.205345 287.59612 
L 121.495086 273.918082 
L 121.639956 287.101733 
L 121.929697 281.535302 
L 122.074567 288.749689 
L 122.219438 288.914485 
L 122.364308 288.365166 
L 122.509179 275.291379 
L 122.798919 283.49454 
L 123.23353 278.880262 
L 123.378401 286.167891 
L 124.102753 285.783368 
L 124.247623 284.263586 
L 124.537364 287.229907 
L 124.971975 269.688327 
L 125.116846 290.52582 
L 125.406586 291.67939 
L 125.841198 287.632741 
L 126.130938 288.273613 
L 126.275809 287.266529 
L 126.565549 288.163749 
L 127.145031 283.879063 
L 127.289901 287.760916 
L 127.579642 281.352196 
L 127.869383 283.51285 
L 128.593735 289.793395 
L 128.738605 266.886801 
L 129.318087 272.874376 
L 129.462957 285.069253 
L 129.607828 286.112959 
L 129.752698 291.734322 
L 130.042439 286.332687 
L 130.187309 264.323313 
L 130.47705 283.586093 
L 130.62192 273.332142 
L 130.911661 273.222278 
L 131.346272 283.970616 
L 131.491143 279.795793 
L 131.636013 286.552414 
L 131.780884 287.522877 
L 132.505235 291.38642 
L 132.650106 285.636883 
L 132.794976 262.290834 
L 133.084717 286.680589 
L 133.664199 279.447891 
L 133.809069 272.636338 
L 133.953939 288.438409 
L 134.09881 282.63394 
L 134.388551 286.625657 
L 134.533421 275.364621 
L 135.547514 286.772142 
L 135.692384 285.014322 
L 136.126995 289.537046 
L 136.271866 287.138354 
L 137.141088 284.996011 
L 137.285958 285.087564 
L 137.575699 291.038518 
L 137.72057 276.335084 
L 138.01031 290.617373 
L 138.300051 288.914485 
L 138.444922 287.193286 
L 138.589792 287.962332 
L 138.734662 278.623913 
L 138.879533 277.818245 
L 139.459014 291.276556 
L 139.603885 288.035575 
L 139.748755 288.969417 
L 140.038496 293.199172 
L 140.617977 280.546529 
L 140.762848 288.822932 
L 140.907718 289.64691 
L 141.052589 289.299008 
L 141.197459 285.929853 
L 141.342329 287.504567 
L 141.63207 288.072196 
L 141.77694 286.058027 
L 141.921811 266.630452 
L 142.211552 286.058027 
L 142.935904 287.156665 
L 143.080774 289.115902 
L 143.225644 285.435466 
L 143.515385 288.328545 
L 143.660256 278.84364 
L 143.805126 289.756774 
L 144.094867 283.439608 
L 144.239737 284.9777 
L 144.674348 287.486256 
L 145.108959 279.72255 
L 145.25383 282.817046 
L 145.688441 261.997864 
L 145.978182 286.387619 
L 146.123052 290.763858 
L 146.412793 290.544131 
L 146.847404 286.332687 
L 147.137145 285.783368 
L 147.571756 284.629798 
L 147.716627 281.004294 
L 148.151238 288.548272 
L 148.296108 285.27067 
L 148.440978 285.197428 
L 148.730719 292.411815 
L 148.87559 286.277755 
L 149.02046 287.266529 
L 149.16533 285.343913 
L 149.310201 284.95939 
L 149.455071 288.328545 
L 149.599942 284.300207 
L 149.744812 290.068054 
L 149.889682 283.329744 
L 150.469164 276.463259 
L 150.614034 268.278409 
L 150.758905 289.665221 
L 151.048645 285.417155 
L 151.338386 292.723095 
L 151.483257 265.513504 
L 151.628127 290.763858 
L 151.772997 292.631542 
L 152.062738 285.710125 
L 152.207609 287.742605 
L 152.352479 282.231106 
L 152.78709 288.804621 
L 152.931961 287.32146 
L 153.076831 290.306093 
L 153.221701 288.163749 
L 153.366572 283.567782 
L 153.511442 286.863695 
L 153.801183 289.793395 
L 154.090924 276.77454 
L 154.380664 289.884948 
L 154.525535 284.025548 
L 154.670405 285.746747 
L 154.815276 284.794594 
L 155.105016 289.042659 
L 155.394757 289.884948 
L 155.539628 281.297264 
L 155.829368 290.928654 
L 156.40885 287.870779 
L 156.55372 277.799935 
L 156.698591 286.534104 
L 156.843461 287.59612 
L 157.133202 287.779226 
L 157.278072 287.486256 
L 157.712683 282.63394 
L 157.857554 285.929853 
L 158.002424 279.356338 
L 158.147295 288.310234 
L 158.437035 288.420098 
L 158.581906 289.756774 
L 158.726776 284.025548 
L 159.016517 289.793395 
L 159.161387 287.413014 
L 159.595999 287.413014 
L 159.885739 284.117101 
L 160.03061 288.822932 
L 160.17548 286.003095 
L 160.32035 274.851924 
L 160.465221 287.01018 
L 160.610091 278.111215 
L 160.754962 286.479172 
L 160.899832 284.739662 
L 161.044702 284.648109 
L 161.189573 289.280698 
L 161.334443 276.994267 
L 161.479314 283.49454 
L 161.913925 289.06097 
L 162.058795 285.069253 
L 162.203666 287.120044 
L 162.348536 285.25236 
L 162.638277 290.489199 
L 162.783147 277.213995 
L 162.928018 288.749689 
L 163.072888 253.72146 
L 163.217758 278.642223 
L 163.507499 292.338572 
L 163.652369 276.921025 
L 164.086981 287.980643 
L 164.231851 284.812905 
L 164.376721 289.299008 
L 164.521592 274.577264 
L 164.811333 286.71721 
L 165.101073 285.874921 
L 165.245944 285.85661 
L 165.390814 287.486256 
L 165.535685 285.948163 
L 165.825425 287.614431 
L 165.970296 290.910343 
L 166.115166 290.599063 
L 166.260037 280.711324 
L 166.404907 289.35394 
L 166.549777 289.372251 
L 166.839518 288.731379 
L 166.984388 286.13127 
L 167.274129 288.145439 
L 167.419 287.834158 
L 167.70874 277.580207 
L 167.998481 290.452578 
L 168.143352 282.359281 
L 168.288222 287.32146 
L 168.433092 278.514049 
L 168.577963 279.338027 
L 168.722833 288.273613 
L 169.012574 282.652251 
L 169.157444 289.317319 
L 169.302315 283.970616 
L 169.447185 284.611488 
L 169.736926 290.104676 
L 170.171537 286.71721 
L 170.316407 271.134866 
L 170.461278 290.763858 
L 170.606148 289.537046 
L 170.751019 275.91394 
L 170.895889 291.38642 
L 171.040759 288.236992 
L 171.909982 290.269471 
L 172.054852 288.786311 
L 172.199723 284.68473 
L 172.344593 286.405929 
L 172.489463 286.241134 
L 172.634334 290.52582 
L 172.924074 284.95939 
L 173.068945 288.346856 
L 173.503556 289.115902 
L 173.648426 285.948163 
L 173.938167 288.713068 
L 174.083038 287.907401 
L 174.227908 285.581951 
L 174.517649 289.756774 
L 174.80739 289.591978 
L 175.09713 286.021406 
L 175.531742 291.239935 
L 175.676612 290.122986 
L 175.966353 281.480371 
L 176.111223 293.016065 
L 176.400964 287.120044 
L 176.690705 284.556556 
L 176.835575 289.811706 
L 177.125316 286.973559 
L 177.270186 290.434267 
L 177.559927 280.528218 
L 178.139409 287.907401 
L 178.284279 287.01018 
L 178.429149 290.104676 
L 178.57402 286.058027 
L 178.71889 285.362223 
L 178.86376 272.032087 
L 179.153501 290.306093 
L 179.298372 288.639826 
L 179.443242 283.988926 
L 179.877853 289.244076 
L 180.312464 287.541188 
L 180.457335 293.473831 
L 180.602205 288.163749 
L 180.747076 289.573668 
L 180.891946 289.408872 
L 181.036816 287.376392 
L 181.181687 292.338572 
L 181.326557 278.715466 
L 181.471428 289.756774 
L 181.616298 282.066311 
L 181.906039 291.349798 
L 182.195779 282.817046 
L 182.34065 291.001896 
L 182.630391 284.483313 
L 182.775261 288.017264 
L 182.920131 286.167891 
L 183.065002 286.42424 
L 183.209872 290.434267 
L 183.354743 290.782169 
L 183.499613 276.609744 
L 183.644483 290.013123 
L 183.934224 285.069253 
L 184.368835 291.661079 
L 184.513706 290.544131 
L 184.803447 281.480371 
L 185.093187 289.884948 
L 185.238058 289.830016 
L 185.382928 289.500425 
L 185.527798 292.942823 
L 185.672669 287.431324 
L 185.817539 288.493341 
L 186.25215 276.151978 
L 186.397021 289.848327 
L 186.541891 286.186202 
L 186.686762 290.269471 
L 186.831632 289.665221 
L 186.976502 290.873722 
L 187.121373 290.177918 
L 187.411114 293.052687 
L 187.700854 284.043858 
L 187.845725 288.383477 
L 187.990595 287.705984 
L 188.135465 289.976501 
L 188.280336 240.098354 
L 188.425206 288.145439 
L 188.714947 288.108817 
L 188.859817 275.968872 
L 189.004688 289.317319 
L 189.149558 289.024349 
L 189.294429 272.965929 
L 189.439299 290.580752 
L 189.584169 289.463804 
L 189.72904 282.066311 
L 189.87391 289.976501 
L 190.018781 291.477973 
L 190.163651 287.339771 
L 190.308521 291.148381 
L 190.453392 283.183259 
L 190.598262 290.122986 
L 190.743133 286.534104 
L 190.888003 277.909798 
L 191.177744 287.742605 
L 191.322614 286.662278 
L 191.467484 280.107074 
L 191.612355 290.489199 
L 192.046966 278.459117 
L 192.191836 286.643967 
L 192.336707 242.60691 
L 192.481577 288.621515 
L 192.626448 288.877864 
L 193.061059 285.618572 
L 193.3508 287.174975 
L 193.64054 291.148381 
L 194.075152 277.177373 
L 194.220022 286.14958 
L 194.364892 286.369308 
L 194.509763 289.042659 
L 194.799503 283.036774 
L 195.089244 289.024349 
L 195.234115 288.493341 
L 195.378985 286.460861 
L 195.523855 289.463804 
L 195.668726 286.900316 
L 195.958467 291.551215 
L 196.393078 287.925711 
L 196.537948 289.317319 
L 196.827689 290.049744 
L 196.972559 289.079281 
L 197.11743 279.814104 
L 197.552041 287.651052 
L 197.986652 287.59612 
L 198.131522 289.152523 
L 198.276393 288.493341 
L 198.421263 289.665221 
L 198.711004 280.784567 
L 198.855874 288.218681 
L 199.000745 280.58315 
L 199.290486 288.017264 
L 199.435356 288.786311 
L 199.580226 288.218681 
L 199.725097 288.786311 
L 199.869967 287.156665 
L 200.014838 287.358082 
L 200.159708 288.603204 
L 200.304578 286.369308 
L 200.594319 290.599063 
L 200.88406 286.882005 
L 201.173801 281.187401 
L 201.318671 280.198627 
L 201.463541 289.427183 
L 201.608412 283.402986 
L 201.753282 287.577809 
L 202.043023 288.18206 
L 202.187893 288.108817 
L 202.332764 285.398845 
L 202.477634 287.834158 
L 202.622505 284.9777 
L 202.767375 285.54533 
L 202.912245 281.480371 
L 203.201986 284.9777 
L 203.346857 281.608545 
L 203.781468 288.713068 
L 203.926338 286.71721 
L 204.216079 290.690616 
L 204.360949 283.51285 
L 204.50582 293.656937 
L 204.65069 280.052142 
L 204.940431 290.965275 
L 205.085301 285.032632 
L 205.230172 285.710125 
L 205.375042 285.215738 
L 205.519912 286.698899 
L 205.809653 269.505221 
L 206.099394 286.845384 
L 206.244264 285.508708 
L 206.389135 291.313177 
L 206.534005 291.020207 
L 207.113487 284.09879 
L 207.258357 280.693014 
L 207.403227 287.925711 
L 207.548098 277.012578 
L 208.127579 291.624458 
L 208.27245 286.058027 
L 208.41732 285.014322 
L 208.707061 283.933995 
L 208.851931 288.768 
L 209.141672 286.460861 
L 209.286543 282.121243 
L 209.431413 287.413014 
L 209.576283 282.121243 
L 209.721154 290.653995 
L 209.866024 285.032632 
L 210.010894 285.197428 
L 210.155765 282.560698 
L 210.300635 258.885057 
L 210.590376 283.201569 
L 210.735246 290.104676 
L 210.880117 270.219335 
L 211.314728 287.413014 
L 211.459598 279.649308 
L 211.604469 287.101733 
L 211.749339 280.693014 
L 211.89421 287.724294 
L 212.03908 276.902714 
L 212.18395 279.557755 
L 212.328821 284.336828 
L 212.618562 286.790452 
L 212.908302 284.172033 
L 213.053173 287.577809 
L 213.198043 285.765057 
L 213.342913 287.815847 
L 213.487784 286.186202 
L 213.632654 283.128327 
L 213.922395 287.742605 
L 214.067265 287.980643 
L 214.212136 286.204512 
L 214.357006 281.828272 
L 214.501877 289.793395 
L 214.646747 291.459662 
L 214.791617 287.962332 
L 214.936488 281.16909 
L 215.081358 282.414213 
L 215.226229 285.124185 
L 215.371099 280.949362 
L 215.515969 281.224022 
L 215.66084 288.511651 
L 215.80571 283.348054 
L 215.950581 283.110016 
L 216.240321 286.863695 
L 216.385192 273.973014 
L 216.674932 282.762114 
L 216.819803 282.780425 
L 216.964673 289.500425 
L 217.109544 290.23285 
L 217.254414 283.531161 
L 217.399284 284.574866 
L 217.544155 287.907401 
L 217.978766 285.325602 
L 218.123636 277.65345 
L 218.268507 277.909798 
L 218.413377 273.203967 
L 218.558248 290.287782 
L 218.847988 290.80048 
L 218.992859 286.863695 
L 219.282599 286.772142 
L 219.42747 284.757973 
L 219.57234 289.06097 
L 219.717211 285.636883 
L 219.862081 286.021406 
L 220.006951 282.048 
L 220.151822 292.356883 
L 220.296692 292.210398 
L 220.441563 242.277319 
L 220.586433 281.681787 
L 220.876174 287.284839 
L 221.021044 279.447891 
L 221.165915 289.518736 
L 221.310785 284.867837 
L 221.455655 286.332687 
L 221.600526 282.395902 
L 221.745396 283.128327 
L 221.890267 291.056828 
L 222.035137 286.515793 
L 222.180007 286.259444 
L 222.324878 284.09879 
L 222.469748 289.207455 
L 222.759489 284.739662 
L 222.904359 286.405929 
L 223.04923 284.867837 
L 223.1941 280.546529 
L 223.33897 288.749689 
L 223.483841 269.468599 
L 223.773582 288.035575 
L 223.918452 278.294322 
L 224.063322 279.41127 
L 224.497934 280.180316 
L 224.932545 292.887891 
L 225.367156 288.639826 
L 225.512026 287.944022 
L 225.656897 293.547074 
L 225.946637 277.799935 
L 226.381249 284.904458 
L 226.526119 289.903259 
L 226.670989 283.238191 
L 226.81586 291.551215 
L 226.96073 282.835357 
L 227.105601 255.113068 
L 227.250471 292.247019 
L 227.395341 282.762114 
L 227.540212 291.221624 
L 227.685082 282.432523 
L 227.829953 290.177918 
L 228.119693 284.703041 
L 228.264564 274.412469 
L 228.554304 283.732578 
L 228.699175 283.476229 
L 228.844045 288.218681 
L 228.988916 287.376392 
L 229.278656 287.358082 
L 229.423527 288.951106 
L 229.568397 287.998954 
L 229.713268 289.683531 
L 230.003008 285.874921 
L 230.292749 289.720153 
L 230.43762 286.918627 
L 230.72736 285.8383 
L 230.872231 284.776283 
L 231.017101 270.732033 
L 231.306842 280.162005 
L 231.451712 281.187401 
L 231.596583 288.877864 
L 231.741453 280.400044 
L 232.031194 289.93988 
L 232.176064 276.078736 
L 232.320935 290.23285 
L 232.465805 280.729635 
L 232.755546 289.079281 
L 233.045287 283.036774 
L 233.479898 288.072196 
L 233.914509 278.056283 
L 234.34912 288.749689 
L 234.493991 280.509907 
L 234.638861 286.570725 
L 234.783731 285.911542 
L 234.928602 267.106529 
L 235.073472 284.556556 
L 235.363213 281.095847 
L 235.652954 289.555357 
L 235.797824 286.314376 
L 235.942694 289.042659 
L 236.377306 280.564839 
L 236.522176 286.277755 
L 236.667046 285.288981 
L 236.811917 273.075793 
L 236.956787 285.087564 
L 237.101658 270.878518 
L 237.246528 283.677646 
L 237.391398 240.244839 
L 237.536269 283.51285 
L 237.681139 283.51285 
L 237.826009 279.41127 
L 237.97088 286.222823 
L 238.11575 285.472087 
L 238.260621 286.698899 
L 238.405491 288.951106 
L 238.984973 272.032087 
L 239.129843 292.686474 
L 239.274713 284.483313 
L 239.419584 283.348054 
L 239.854195 289.775084 
L 239.999065 282.487455 
L 240.288806 275.273068 
L 240.433677 286.259444 
L 240.578547 281.663477 
L 240.723417 269.285493 
L 241.158028 285.435466 
L 241.302899 281.553613 
L 241.59264 287.248218 
L 241.73751 286.680589 
L 241.88238 285.54533 
L 242.027251 286.863695 
L 242.316992 273.057482 
L 242.461862 287.998954 
L 242.606732 288.896174 
L 242.751603 279.484512 
L 242.896473 289.958191 
L 243.041344 285.508708 
L 243.186214 288.017264 
L 243.475955 286.241134 
L 243.620825 290.946965 
L 243.765696 288.218681 
L 244.055436 287.174975 
L 244.200307 282.743804 
L 244.490047 286.973559 
L 244.634918 274.265984 
L 244.779788 288.731379 
L 245.069529 289.518736 
L 245.214399 286.204512 
L 245.649011 288.18206 
L 245.793881 290.946965 
L 245.938751 287.870779 
L 246.083622 288.47503 
L 246.518233 283.915684 
L 246.663103 279.70424 
L 246.807974 283.78751 
L 247.097714 285.765057 
L 247.387455 285.472087 
L 247.532326 290.434267 
L 247.822066 281.480371 
L 248.256678 291.130071 
L 248.401548 283.750888 
L 248.546418 286.73552 
L 248.691289 286.680589 
L 248.836159 278.294322 
L 248.98103 292.301951 
L 249.1259 293.418899 
L 249.560511 284.281896 
L 249.850252 284.996011 
L 250.284863 288.548272 
L 250.429733 282.908599 
L 251.009215 291.203313 
L 251.298956 286.241134 
L 251.443826 267.948817 
L 251.733567 286.387619 
L 251.878437 285.124185 
L 252.023308 286.039717 
L 252.168178 279.392959 
L 252.457919 289.225766 
L 253.037401 281.114158 
L 253.327141 286.753831 
L 253.616882 289.427183 
L 253.761752 282.981842 
L 253.906623 287.486256 
L 254.486104 288.108817 
L 254.630975 291.716011 
L 254.775845 282.817046 
L 254.920716 284.043858 
L 255.065586 283.824131 
L 255.355327 292.594921 
L 255.645068 282.853668 
L 256.224549 287.760916 
L 256.369419 287.156665 
L 256.51429 281.443749 
L 256.65916 269.944676 
L 256.804031 284.574866 
L 257.093771 281.333886 
L 257.383512 287.522877 
L 257.673253 275.437864 
L 257.818123 286.405929 
L 257.962994 284.336828 
L 258.107864 268.278409 
L 258.397605 282.63394 
L 258.542475 281.645166 
L 258.687346 284.025548 
L 258.832216 289.06097 
L 259.121957 288.877864 
L 259.411698 285.8383 
L 259.556568 289.610289 
L 259.701438 280.070452 
L 260.28092 285.655193 
L 260.42579 290.324403 
L 260.570661 289.628599 
L 260.715531 273.258899 
L 260.860402 282.542387 
L 261.295013 288.548272 
L 261.439883 292.045602 
L 261.584754 283.091706 
L 261.729624 287.339771 
L 261.874494 269.358736 
L 262.019365 281.443749 
L 262.309106 282.377591 
L 262.598846 288.639826 
L 262.743717 287.687673 
L 262.888587 284.025548 
L 263.033457 288.804621 
L 263.178328 286.827074 
L 263.757809 286.14958 
L 263.90268 290.708926 
L 264.04755 287.998954 
L 264.337291 271.720807 
L 264.482161 282.688872 
L 264.771902 282.688872 
L 265.206513 283.000153 
L 265.351384 264.121896 
L 265.496254 284.336828 
L 265.641124 277.36048 
L 266.075736 285.618572 
L 266.220606 290.52582 
L 266.365476 284.739662 
L 266.510347 286.534104 
L 266.655217 281.791651 
L 266.800088 288.932796 
L 266.944958 283.238191 
L 267.234699 293.711869 
L 267.379569 271.299662 
L 267.52444 282.835357 
L 267.81418 289.976501 
L 268.103921 287.01018 
L 268.248792 271.739117 
L 268.393662 282.048 
L 268.538532 282.377591 
L 268.683403 289.408872 
L 268.973143 290.617373 
L 269.118014 256.651161 
L 269.262884 283.49454 
L 269.407755 285.85661 
L 269.552625 290.81879 
L 269.842366 282.450834 
L 269.987236 286.058027 
L 270.132107 286.094649 
L 270.276977 288.108817 
L 270.711588 262.858463 
L 270.856459 288.529962 
L 271.001329 290.141297 
L 271.146199 283.695956 
L 271.43594 282.139553 
L 271.580811 289.775084 
L 271.725681 285.527019 
L 272.160292 291.459662 
L 272.594903 286.680589 
L 272.884644 288.566583 
L 273.319255 284.574866 
L 273.464126 287.229907 
L 273.608996 287.193286 
L 273.753866 284.153722 
L 273.898737 276.701297 
L 274.043607 259.214649 
L 274.188478 284.794594 
L 274.333348 289.207455 
L 275.0577 278.001351 
L 275.20257 281.809962 
L 275.492311 285.105875 
L 275.782052 280.894431 
L 276.361533 286.021406 
L 276.506404 277.232305 
L 276.941015 286.625657 
L 277.085885 279.539444 
L 277.230756 288.804621 
L 277.665367 219.718627 
L 278.099978 279.612687 
L 278.244848 278.312632 
L 278.389719 287.358082 
L 278.67946 277.690071 
L 278.82433 283.714267 
L 278.9692 282.212796 
L 279.114071 279.484512 
L 279.258941 288.420098 
L 279.548682 286.991869 
L 280.997386 283.641025 
L 281.287127 284.245275 
L 281.431997 287.522877 
L 281.576867 286.973559 
L 282.011479 295.488 
L 282.156349 285.673504 
L 282.301219 53.568 
L 282.59096 282.139553 
L 282.880701 283.183259 
L 283.170442 224.754049 
L 283.605053 282.835357 
L 283.749923 286.332687 
L 284.039664 282.597319 
L 284.184535 287.431324 
L 284.764016 281.974757 
L 285.343498 280.30849 
L 285.488368 287.870779 
L 285.633238 283.604403 
L 285.778109 287.30315 
L 286.06785 274.430779 
L 286.647331 289.225766 
L 286.792202 265.183913 
L 287.226813 257.51176 
L 287.951165 288.841243 
L 288.240905 286.534104 
L 288.530646 285.54533 
L 288.675517 287.229907 
L 288.965257 286.42424 
L 289.110128 290.306093 
L 289.254998 284.611488 
L 289.399869 287.779226 
L 289.544739 294.755575 
L 289.83448 268.937591 
L 290.269091 282.157864 
L 291.572924 277.543586 
L 291.717795 285.819989 
L 292.007536 272.471542 
L 292.152406 285.435466 
L 292.587017 286.204512 
L 292.731888 274.760371 
L 293.166499 284.922768 
L 293.311369 284.721351 
L 294.035721 285.490398 
L 294.325462 289.390561 
L 294.470332 282.048 
L 295.339555 286.314376 
L 295.629295 285.343913 
L 296.933129 265.98958 
L 297.22287 287.522877 
L 298.236962 290.470888 
L 299.106185 278.514049 
L 299.685666 287.376392 
L 299.830537 285.490398 
L 299.975407 280.198627 
L 300.120277 288.951106 
L 300.554889 269.706638 
L 301.279241 284.519935 
L 301.568981 281.608545 
L 301.858722 281.828272 
L 302.003593 288.621515 
L 302.148463 279.209853 
L 302.293333 288.255302 
L 302.727945 286.003095 
L 303.597167 288.658136 
L 303.886908 291.917428 
L 304.031778 280.894431 
L 304.466389 288.291924 
L 304.61126 278.056283 
L 305.335612 283.384676 
L 305.480482 275.675902 
L 305.915093 281.571924 
L 306.059963 289.720153 
L 306.204834 291.551215 
L 306.494575 242.423804 
L 306.784315 288.621515 
L 306.929186 287.486256 
L 307.363797 263.993722 
L 307.798408 283.988926 
L 308.667631 291.935738 
L 308.957371 286.790452 
L 309.247112 283.860752 
L 309.536853 283.164948 
L 309.826594 287.358082 
L 310.550946 260.093559 
L 310.840686 279.978899 
L 311.275298 287.394703 
L 311.565038 288.438409 
L 311.709909 287.705984 
L 311.99965 285.160807 
L 312.434261 284.867837 
L 312.579131 280.162005 
L 312.868872 286.314376 
L 313.013742 278.074594 
L 313.158613 281.535302 
L 313.448353 272.10533 
L 313.738094 289.335629 
L 313.882965 281.809962 
L 314.172705 284.611488 
L 314.462446 281.883204 
L 314.607317 285.288981 
L 315.041928 286.369308 
L 315.186798 285.087564 
L 315.476539 270.695411 
L 315.91115 289.683531 
L 316.490632 286.991869 
L 316.635502 285.435466 
L 316.925243 289.701842 
L 317.359854 283.146638 
L 317.794465 286.314376 
L 318.084206 279.539444 
L 318.229076 284.336828 
L 319.243169 286.058027 
L 319.388039 281.498681 
L 319.67778 292.173777 
L 319.967521 272.965929 
L 320.257262 291.239935 
L 320.981614 268.296719 
L 321.416225 289.35394 
L 321.561095 276.151978 
L 322.285447 294.737264 
L 322.575188 277.909798 
L 323.009799 271.903913 
L 323.29954 290.324403 
L 323.734151 286.753831 
L 323.879022 287.760916 
L 324.023892 278.935193 
L 324.603373 288.658136 
L 324.893114 288.529962 
L 325.182855 280.345112 
L 325.327725 292.485057 
L 325.472596 284.776283 
L 325.617466 287.742605 
L 326.052077 282.212796 
L 327.790522 280.381733 
L 328.080263 290.873722 
L 328.804615 287.998954 
L 329.094356 283.164948 
L 329.673837 285.581951 
L 331.702023 292.008981 
L 332.716115 284.465003 
L 333.295597 229.496501 
L 333.440467 289.64691 
L 333.875078 212.852142 
L 334.30969 291.258245 
L 334.45456 286.204512 
L 336.048134 280.912741 
L 336.193005 286.680589 
L 336.337875 287.358082 
L 337.641709 290.470888 
L 337.786579 280.381733 
L 338.22119 288.236992 
L 339.380153 286.607346 
L 339.814765 287.211597 
L 340.104505 287.376392 
L 340.539116 288.932796 
L 341.263468 285.288981 
L 342.712172 284.757973 
L 344.016006 289.903259 
L 344.160876 284.574866 
L 344.595487 288.548272 
L 344.885228 289.335629 
L 348.362118 286.42424 
L 348.651858 288.841243 
L 349.23134 284.794594 
L 350.245433 289.06097 
L 351.839007 281.443749 
L 351.983877 283.842441 
L 355.750507 285.087564 
L 356.61973 277.96473 
L 357.199211 285.801678 
L 357.633823 284.245275 
L 358.647915 247.477537 
L 358.937656 274.760371 
L 360.53123 291.038518 
L 360.676101 283.879063 
L 361.110712 279.228163 
L 361.545323 250.718518 
L 361.690194 289.994812 
L 363.283768 191.007564 
L 367.195268 287.614431 
L 370.382417 289.152523 
L 370.817028 282.139553 
L 371.251639 287.760916 
L 371.54138 280.894431 
L 373.279825 287.980643 
L 375.16314 289.720153 
L 375.452881 284.501624 
L 375.742621 257.438518 
L 375.887492 268.278409 
L 377.336196 238.157428 
L 377.625936 288.932796 
L 377.915677 286.698899 
L 378.205418 288.017264 
L 382.261789 248.448 
L 383.565622 289.408872 
L 384.289974 287.376392 
L 386.897641 234.824894 
L 387.766864 293.711869 
L 388.636086 287.852469 
L 389.360438 289.866638 
L 391.243753 286.900316 
L 391.678364 285.069253 
L 393.127068 277.08582 
L 394.720643 288.035575 
L 395.010383 283.988926 
L 395.444995 283.293123 
L 398.487273 288.987728 
L 398.487273 288.987728 
" style="fill:none;stroke:#0000ff;stroke-linecap:square;stroke-width:1.5;"/>
   </g>
   <g id="patch_3">
    <path d="M 57.6 307.584 
L 57.6 41.472 
" style="fill:none;stroke:#000000;stroke-linecap:square;stroke-linejoin:miter;stroke-width:0.8;"/>
   </g>
   <g id="patch_4">
    <path d="M 414.72 307.584 
L 414.72 41.472 
" style="fill:none;stroke:#000000;stroke-linecap:square;stroke-linejoin:miter;stroke-width:0.8;"/>
   </g>
   <g id="patch_5">
    <path d="M 57.6 307.584 
L 414.72 307.584 
" style="fill:none;stroke:#000000;stroke-linecap:square;stroke-linejoin:miter;stroke-width:0.8;"/>
   </g>
   <g id="patch_6">
    <path d="M 57.6 41.472 
L 414.72 41.472 
" style="fill:none;stroke:#000000;stroke-linecap:square;stroke-linejoin:miter;stroke-width:0.8;"/>
   </g>
   <g id="text_15">
    <!-- temperature-&gt;ping -->
    <g transform="translate(178.169062 35.472)scale(0.12 -0.12)">
     <defs>
      <path d="M 313 2009 
L 1997 2009 
L 1997 1497 
L 313 1497 
L 313 2009 
z
" id="DejaVuSans-2d" transform="scale(0.015625)"/>
      <path d="M 678 3150 
L 678 3719 
L 4684 2266 
L 4684 1747 
L 678 294 
L 678 863 
L 3897 2003 
L 678 3150 
z
" id="DejaVuSans-3e" transform="scale(0.015625)"/>
      <path d="M 603 3500 
L 1178 3500 
L 1178 0 
L 603 0 
L 603 3500 
z
M 603 4863 
L 1178 4863 
L 1178 4134 
L 603 4134 
L 603 4863 
z
" id="DejaVuSans-69" transform="scale(0.015625)"/>
      <path d="M 2906 1791 
Q 2906 2416 2648 2759 
Q 2391 3103 1925 3103 
Q 1463 3103 1205 2759 
Q 947 2416 947 1791 
Q 947 1169 1205 825 
Q 1463 481 1925 481 
Q 2391 481 2648 825 
Q 2906 1169 2906 1791 
z
M 3481 434 
Q 3481 -459 3084 -895 
Q 2688 -1331 1869 -1331 
Q 1566 -1331 1297 -1286 
Q 1028 -1241 775 -1147 
L 775 -588 
Q 1028 -725 1275 -790 
Q 1522 -856 1778 -856 
Q 2344 -856 2625 -561 
Q 2906 -266 2906 331 
L 2906 616 
Q 2728 306 2450 153 
Q 2172 0 1784 0 
Q 1141 0 747 490 
Q 353 981 353 1791 
Q 353 2603 747 3093 
Q 1141 3584 1784 3584 
Q 2172 3584 2450 3431 
Q 2728 3278 2906 2969 
L 2906 3500 
L 3481 3500 
L 3481 434 
z
" id="DejaVuSans-67" transform="scale(0.015625)"/>
     </defs>
     <use xlink:href="#DejaVuSans-74"/>
     <use x="39.208984" xlink:href="#DejaVuSans-65"/>
     <use x="100.732422" xlink:href="#DejaVuSans-6d"/>
     <use x="198.144531" xlink:href="#DejaVuSans-70"/>
     <use x="261.621094" xlink:href="#DejaVuSans-65"/>
     <use x="323.144531" xlink:href="#DejaVuSans-72"/>
     <use x="364.257812" xlink:href="#DejaVuSans-61"/>
     <use x="425.537109" xlink:href="#DejaVuSans-74"/>
     <use x="464.746094" xlink:href="#DejaVuSans-75"/>
     <use x="528.125" xlink:href="#DejaVuSans-72"/>
     <use x="566.988281" xlink:href="#DejaVuSans-65"/>
     <use x="628.511719" xlink:href="#DejaVuSans-2d"/>
     <use x="664.595703" xlink:href="#DejaVuSans-3e"/>
     <use x="748.384766" xlink:href="#DejaVuSans-70"/>
     <use x="811.861328" xlink:href="#DejaVuSans-69"/>
     <use x="839.644531" xlink:href="#DejaVuSans-6e"/>
     <use x="903.023438" xlink:href="#DejaVuSans-67"/>
    </g>
   </g>
  </g>
  <g id="legend_1">
   <g id="patch_7">
    <path d="M 415.451563 22.678125 
L 453.8 22.678125 
Q 455.8 22.678125 455.8 20.678125 
L 455.8 7 
Q 455.8 5 453.8 5 
L 415.451563 5 
Q 413.451563 5 413.451563 7 
L 413.451563 20.678125 
Q 413.451563 22.678125 415.451563 22.678125 
z
" style="fill:#ffffff;opacity:0.8;stroke:#cccccc;stroke-linejoin:miter;"/>
   </g>
   <g id="line2d_15">
    <path d="M 417.451563 13.098438 
L 437.451563 13.098438 
" style="fill:none;stroke:#0000ff;stroke-linecap:square;stroke-width:1.5;"/>
   </g>
   <g id="line2d_16"/>
   <g id="text_16">
    <!-- p -->
    <g transform="translate(445.451563 16.598438)scale(0.1 -0.1)">
     <use xlink:href="#DejaVuSans-70"/>
    </g>
   </g>
  </g>
 </g>
 <defs>
  <clipPath id="p662355bd0b">
   <rect height="266.112" width="357.12" x="57.6" y="41.472"/>
  </clipPath>
 </defs>
</svg>
