<?xml version="1.0" encoding="utf-8" standalone="no"?>
<!DOCTYPE svg PUBLIC "-//W3C//DTD SVG 1.1//EN"
  "http://www.w3.org/Graphics/SVG/1.1/DTD/svg11.dtd">
<!-- Created with matplotlib (https://matplotlib.org/) -->
<svg height="2090.31625pt" version="1.1" viewBox="0 0 2068.34375 2090.31625" width="2068.34375pt" xmlns="http://www.w3.org/2000/svg" xmlns:xlink="http://www.w3.org/1999/xlink">
 <metadata>
  <rdf:RDF xmlns:cc="http://creativecommons.org/ns#" xmlns:dc="http://purl.org/dc/elements/1.1/" xmlns:rdf="http://www.w3.org/1999/02/22-rdf-syntax-ns#">
   <cc:Work>
    <dc:type rdf:resource="http://purl.org/dc/dcmitype/StillImage"/>
    <dc:date>2022-07-24T11:30:41.564895</dc:date>
    <dc:format>image/svg+xml</dc:format>
    <dc:creator>
     <cc:Agent>
      <dc:title>Matplotlib v3.3.2, https://matplotlib.org/</dc:title>
     </cc:Agent>
    </dc:creator>
   </cc:Work>
  </rdf:RDF>
 </metadata>
 <defs>
  <style type="text/css">*{stroke-linecap:butt;stroke-linejoin:round;}</style>
 </defs>
 <g id="figure_1">
  <g id="patch_1">
   <path d="M 0 2090.31625 
L 2068.34375 2090.31625 
L 2068.34375 0 
L 0 0 
z
" style="fill:#ffffff;"/>
  </g>
  <g id="axes_1">
   <g id="patch_2">
    <path d="M 50.14375 2052.76 
L 1835.74375 2052.76 
L 1835.74375 278.68 
L 50.14375 278.68 
z
" style="fill:#ffffff;"/>
   </g>
   <g id="matplotlib.axis_1">
    <g id="xtick_1">
     <g id="line2d_1">
      <defs>
       <path d="M 0 0 
L 0 3.5 
" id="mcd7cdb4632" style="stroke:#000000;stroke-width:0.8;"/>
      </defs>
      <g>
       <use style="stroke:#000000;stroke-width:0.8;" x="208.606088" xlink:href="#mcd7cdb4632" y="2052.76"/>
      </g>
     </g>
     <g id="text_1">
      <text style="font-family:DejaVu Sans;font-size:10px;font-stretch:normal;font-style:normal;font-weight:normal;text-anchor:middle;" transform="rotate(-0, 208.606088, 2067.358438)" x="208.606088" y="2067.358438">5</text>
     </g>
    </g>
    <g id="xtick_2">
     <g id="line2d_2">
      <g>
       <use style="stroke:#000000;stroke-width:0.8;" x="559.963821" xlink:href="#mcd7cdb4632" y="2052.76"/>
      </g>
     </g>
     <g id="text_2">
      <text style="font-family:DejaVu Sans;font-size:10px;font-stretch:normal;font-style:normal;font-weight:normal;text-anchor:middle;" transform="rotate(-0, 559.963821, 2067.358438)" x="559.963821" y="2067.358438">10</text>
     </g>
    </g>
    <g id="xtick_3">
     <g id="line2d_3">
      <g>
       <use style="stroke:#000000;stroke-width:0.8;" x="911.321554" xlink:href="#mcd7cdb4632" y="2052.76"/>
      </g>
     </g>
     <g id="text_3">
      <text style="font-family:DejaVu Sans;font-size:10px;font-stretch:normal;font-style:normal;font-weight:normal;text-anchor:middle;" transform="rotate(-0, 911.321554, 2067.358438)" x="911.321554" y="2067.358438">15</text>
     </g>
    </g>
    <g id="xtick_4">
     <g id="line2d_4">
      <g>
       <use style="stroke:#000000;stroke-width:0.8;" x="1262.679287" xlink:href="#mcd7cdb4632" y="2052.76"/>
      </g>
     </g>
     <g id="text_4">
      <text style="font-family:DejaVu Sans;font-size:10px;font-stretch:normal;font-style:normal;font-weight:normal;text-anchor:middle;" transform="rotate(-0, 1262.679287, 2067.358438)" x="1262.679287" y="2067.358438">20</text>
     </g>
    </g>
    <g id="xtick_5">
     <g id="line2d_5">
      <g>
       <use style="stroke:#000000;stroke-width:0.8;" x="1614.03702" xlink:href="#mcd7cdb4632" y="2052.76"/>
      </g>
     </g>
     <g id="text_5">
      <text style="font-family:DejaVu Sans;font-size:10px;font-stretch:normal;font-style:normal;font-weight:normal;text-anchor:middle;" transform="rotate(-0, 1614.03702, 2067.358438)" x="1614.03702" y="2067.358438">25</text>
     </g>
    </g>
    <g id="text_6">
     <text style="font-family:DejaVu Sans;font-size:10px;font-stretch:normal;font-style:normal;font-weight:normal;text-anchor:middle;" transform="rotate(-0, 942.94375, 2081.036562)" x="942.94375" y="2081.036562">temperature from WeatherBitIO</text>
    </g>
   </g>
   <g id="matplotlib.axis_2">
    <g id="ytick_1">
     <g id="line2d_6">
      <defs>
       <path d="M 0 0 
L -3.5 0 
" id="m1527bfffaf" style="stroke:#000000;stroke-width:0.8;"/>
      </defs>
      <g>
       <use style="stroke:#000000;stroke-width:0.8;" x="50.14375" xlink:href="#m1527bfffaf" y="1863.251183"/>
      </g>
     </g>
     <g id="text_7">
      <text style="font-family:DejaVu Sans;font-size:10px;font-stretch:normal;font-style:normal;font-weight:normal;text-anchor:end;" transform="rotate(-0, 43.14375, 1867.050402)" x="43.14375" y="1867.050402">4.75</text>
     </g>
    </g>
    <g id="ytick_2">
     <g id="line2d_7">
      <g>
       <use style="stroke:#000000;stroke-width:0.8;" x="50.14375" xlink:href="#m1527bfffaf" y="1622.390968"/>
      </g>
     </g>
     <g id="text_8">
      <text style="font-family:DejaVu Sans;font-size:10px;font-stretch:normal;font-style:normal;font-weight:normal;text-anchor:end;" transform="rotate(-0, 43.14375, 1626.190186)" x="43.14375" y="1626.190186">5.00</text>
     </g>
    </g>
    <g id="ytick_3">
     <g id="line2d_8">
      <g>
       <use style="stroke:#000000;stroke-width:0.8;" x="50.14375" xlink:href="#m1527bfffaf" y="1381.530753"/>
      </g>
     </g>
     <g id="text_9">
      <text style="font-family:DejaVu Sans;font-size:10px;font-stretch:normal;font-style:normal;font-weight:normal;text-anchor:end;" transform="rotate(-0, 43.14375, 1385.329971)" x="43.14375" y="1385.329971">5.25</text>
     </g>
    </g>
    <g id="ytick_4">
     <g id="line2d_9">
      <g>
       <use style="stroke:#000000;stroke-width:0.8;" x="50.14375" xlink:href="#m1527bfffaf" y="1140.670538"/>
      </g>
     </g>
     <g id="text_10">
      <text style="font-family:DejaVu Sans;font-size:10px;font-stretch:normal;font-style:normal;font-weight:normal;text-anchor:end;" transform="rotate(-0, 43.14375, 1144.469756)" x="43.14375" y="1144.469756">5.50</text>
     </g>
    </g>
    <g id="ytick_5">
     <g id="line2d_10">
      <g>
       <use style="stroke:#000000;stroke-width:0.8;" x="50.14375" xlink:href="#m1527bfffaf" y="899.810323"/>
      </g>
     </g>
     <g id="text_11">
      <text style="font-family:DejaVu Sans;font-size:10px;font-stretch:normal;font-style:normal;font-weight:normal;text-anchor:end;" transform="rotate(-0, 43.14375, 903.609541)" x="43.14375" y="903.609541">5.75</text>
     </g>
    </g>
    <g id="ytick_6">
     <g id="line2d_11">
      <g>
       <use style="stroke:#000000;stroke-width:0.8;" x="50.14375" xlink:href="#m1527bfffaf" y="658.950108"/>
      </g>
     </g>
     <g id="text_12">
      <text style="font-family:DejaVu Sans;font-size:10px;font-stretch:normal;font-style:normal;font-weight:normal;text-anchor:end;" transform="rotate(-0, 43.14375, 662.749326)" x="43.14375" y="662.749326">6.00</text>
     </g>
    </g>
    <g id="ytick_7">
     <g id="line2d_12">
      <g>
       <use style="stroke:#000000;stroke-width:0.8;" x="50.14375" xlink:href="#m1527bfffaf" y="418.089892"/>
      </g>
     </g>
     <g id="text_13">
      <text style="font-family:DejaVu Sans;font-size:10px;font-stretch:normal;font-style:normal;font-weight:normal;text-anchor:end;" transform="rotate(-0, 43.14375, 421.889111)" x="43.14375" y="421.889111">6.25</text>
     </g>
    </g>
    <g id="text_14">
     <text style="font-family:DejaVu Sans;font-size:10px;font-stretch:normal;font-style:normal;font-weight:normal;text-anchor:middle;" transform="rotate(-90, 14.798438, 1165.72)" x="14.798438" y="1165.72">ping[ms]</text>
    </g>
   </g>
   <g id="line2d_13">
    <path clip-path="url(#p68da6a6dc0)" d="M 131.307386 1703.32 
L 166.44316 1774.614624 
L 208.606088 1667.672688 
L 250.769016 1812.188817 
L 285.904789 1730.296344 
L 328.067717 1740.894194 
L 335.094872 1687.904946 
L 363.20349 1721.625376 
L 370.230645 1558.803871 
L 384.284954 1782.322151 
L 391.312109 359.32 
L 398.339264 1775.578065 
L 405.366418 1757.272688 
L 412.393573 1547.242581 
L 419.420728 1812.188817 
L 426.447882 1711.027527 
L 433.475037 1593.487742 
L 440.502192 1920.094194 
L 454.556501 1636.842581 
L 461.583656 1694.649032 
L 468.61081 1719.698495 
L 475.637965 1300.60172 
L 482.66512 1774.614624 
L 489.692274 1399.836129 
L 496.719429 1738.003871 
L 503.746584 1506.778065 
L 510.773738 837.186667 
L 517.800893 1861.324301 
L 531.855202 1624.317849 
L 538.882357 1659.00172 
L 545.909512 1702.356559 
L 552.936666 1756.309247 
L 559.963821 1826.64043 
L 566.990976 1324.687742 
L 574.01813 1672.489892 
L 581.045285 1459.569462 
L 588.072439 1810.261935 
L 602.126749 1870.95871 
L 609.153903 1821.823226 
L 616.181058 1711.990968 
L 623.208213 1626.244731 
L 630.235367 1732.223226 
L 637.262522 1806.408172 
L 644.289677 1661.892043 
L 651.316831 1723.552258 
L 658.343986 1566.511398 
L 665.371141 1571.328602 
L 672.398295 1518.339355 
L 679.42545 1748.60172 
L 686.452605 1659.00172 
L 693.479759 1706.210323 
L 700.506914 1549.169462 
L 707.534069 1756.309247 
L 714.561223 1859.397419 
L 721.588378 1698.502796 
L 728.615533 1866.141505 
L 735.642687 1731.259785 
L 742.669842 1806.408172 
L 749.696997 1441.264086 
L 756.724151 1842.055484 
L 763.751306 1761.126452 
L 770.778461 1843.982366 
L 777.805615 1838.20172 
L 784.83277 1665.745806 
L 791.859925 1831.457634 
L 798.887079 1631.061935 
L 805.914234 1761.126452 
L 812.941389 1647.44043 
L 819.968543 1717.771613 
L 826.995698 1655.147957 
L 834.022853 1764.980215 
L 841.050007 1685.978065 
L 848.077162 1592.524301 
L 855.104317 1633.952258 
L 862.131471 1760.163011 
L 869.158626 1875.775914 
L 876.185781 1577.109247 
L 883.212935 1604.085591 
L 890.24009 1637.806022 
L 897.267245 1768.833978 
L 904.294399 1807.371613 
L 911.321554 1752.455484 
L 918.348709 1531.827527 
L 925.375863 1753.418925 
L 932.403018 1743.784516 
L 939.430173 1521.229677 
L 946.457327 1611.793118 
L 953.484482 1824.713548 
L 960.511637 1623.354409 
L 967.538791 1456.67914 
L 974.565946 1695.612473 
L 981.593101 1486.545806 
L 988.620255 1869.995269 
L 995.64741 1625.28129 
L 1002.674565 1668.636129 
L 1009.701719 1678.270538 
L 1016.728874 1819.896344 
L 1023.756029 1733.186667 
L 1030.783183 1835.311398 
L 1037.810338 1674.416774 
L 1044.837493 1804.48129 
L 1051.864647 1589.633978 
L 1058.891802 1671.526452 
L 1065.918957 1950.924301 
L 1072.946111 1583.853333 
L 1079.973266 1690.795269 
L 1094.027575 1790.993118 
L 1101.05473 1410.433978 
L 1108.081885 1863.251183 
L 1115.109039 1878.666237 
L 1122.136194 1662.855484 
L 1129.163349 1315.053333 
L 1136.190503 1682.124301 
L 1143.217658 1701.393118 
L 1150.244813 1607.939355 
L 1164.299122 1726.442581 
L 1171.326277 1468.24043 
L 1185.380586 1767.870538 
L 1192.407741 1553.023226 
L 1199.434895 1409.470538 
L 1206.46205 1933.582366 
L 1213.489205 1184.025376 
L 1220.516359 1857.470538 
L 1227.543514 1288.076989 
L 1234.570669 1642.623226 
L 1241.597823 1566.511398 
L 1248.624978 1553.023226 
L 1262.679287 1972.12 
L 1269.706442 1748.60172 
L 1276.733597 1052.033978 
L 1283.760751 1551.096344 
L 1297.815061 1760.163011 
L 1304.842215 1882.52 
L 1325.923679 1622.390968 
L 1339.977988 1784.249032 
L 1347.005143 1651.294194 
L 1361.059452 1708.137204 
L 1375.113762 1252.429677 
L 1382.140916 1797.737204 
L 1389.168071 1708.137204 
L 1396.195226 1593.487742 
L 1403.22238 1715.844731 
L 1410.249535 1729.332903 
L 1417.27669 1749.565161 
L 1424.303844 1785.212473 
L 1431.330999 1932.618925 
L 1452.412463 1668.636129 
L 1459.439618 1830.494194 
L 1466.466772 1749.565161 
L 1494.575391 1795.810323 
L 1515.656855 1684.051183 
L 1529.711164 1678.270538 
L 1536.738319 1466.313548 
L 1564.846938 1789.066237 
L 1585.928402 1606.975914 
L 1621.064175 1683.087742 
L 1656.199948 1566.511398 
L 1698.362876 1627.208172 
L 1705.390031 1738.003871 
L 1719.44434 1652.257634 
L 1733.49865 1630.098495 
L 1740.525804 1878.666237 
L 1754.580114 1565.547957 
L 1754.580114 1565.547957 
" style="fill:none;stroke:#0000ff;stroke-linecap:square;stroke-width:1.5;"/>
   </g>
   <g id="patch_3">
    <path d="M 50.14375 2052.76 
L 50.14375 278.68 
" style="fill:none;stroke:#000000;stroke-linecap:square;stroke-linejoin:miter;stroke-width:0.8;"/>
   </g>
   <g id="patch_4">
    <path d="M 1835.74375 2052.76 
L 1835.74375 278.68 
" style="fill:none;stroke:#000000;stroke-linecap:square;stroke-linejoin:miter;stroke-width:0.8;"/>
   </g>
   <g id="patch_5">
    <path d="M 50.14375 2052.76 
L 1835.74375 2052.76 
" style="fill:none;stroke:#000000;stroke-linecap:square;stroke-linejoin:miter;stroke-width:0.8;"/>
   </g>
   <g id="patch_6">
    <path d="M 50.14375 278.68 
L 1835.74375 278.68 
" style="fill:none;stroke:#000000;stroke-linecap:square;stroke-linejoin:miter;stroke-width:0.8;"/>
   </g>
   <g id="text_15">
    <text style="font-family:DejaVu Sans;font-size:12px;font-stretch:normal;font-style:normal;font-weight:normal;text-anchor:middle;" transform="rotate(-0, 942.94375, 272.68)" x="942.94375" y="272.68">temperature-&gt;ping</text>
   </g>
  </g>
  <g id="legend_1">
   <g id="patch_7">
    <path d="M 1984.778125 22.678125 
L 2061.34375 22.678125 
Q 2063.34375 22.678125 2063.34375 20.678125 
L 2063.34375 7 
Q 2063.34375 5 2061.34375 5 
L 1984.778125 5 
Q 1982.778125 5 1982.778125 7 
L 1982.778125 20.678125 
Q 1982.778125 22.678125 1984.778125 22.678125 
z
" style="fill:#ffffff;opacity:0.8;stroke:#cccccc;stroke-linejoin:miter;"/>
   </g>
   <g id="line2d_14">
    <path d="M 1986.778125 13.098437 
L 2006.778125 13.098437 
" style="fill:none;stroke:#0000ff;stroke-linecap:square;stroke-width:1.5;"/>
   </g>
   <g id="line2d_15"/>
   <g id="text_16">
    <text style="font-family:DejaVu Sans;font-size:10px;font-stretch:normal;font-style:normal;font-weight:normal;text-anchor:start;" transform="rotate(-0, 2014.778125, 16.598437)" x="2014.778125" y="16.598437">ping[ms]</text>
   </g>
  </g>
 </g>
 <defs>
  <clipPath id="p68da6a6dc0">
   <rect height="1774.08" width="1785.6" x="50.14375" y="278.68"/>
  </clipPath>
 </defs>
</svg>
