<?xml version="1.0" encoding="utf-8" standalone="no"?>
<!DOCTYPE svg PUBLIC "-//W3C//DTD SVG 1.1//EN"
  "http://www.w3.org/Graphics/SVG/1.1/DTD/svg11.dtd">
<!-- Created with matplotlib (https://matplotlib.org/) -->
<svg height="345.6pt" version="1.1" viewBox="0 0 460.8 345.6" width="460.8pt" xmlns="http://www.w3.org/2000/svg" xmlns:xlink="http://www.w3.org/1999/xlink">
 <metadata>
  <rdf:RDF xmlns:cc="http://creativecommons.org/ns#" xmlns:dc="http://purl.org/dc/elements/1.1/" xmlns:rdf="http://www.w3.org/1999/02/22-rdf-syntax-ns#">
   <cc:Work>
    <dc:type rdf:resource="http://purl.org/dc/dcmitype/StillImage"/>
    <dc:date>2022-07-16T22:12:42.919105</dc:date>
    <dc:format>image/svg+xml</dc:format>
    <dc:creator>
     <cc:Agent>
      <dc:title>Matplotlib v3.3.2, https://matplotlib.org/</dc:title>
     </cc:Agent>
    </dc:creator>
   </cc:Work>
  </rdf:RDF>
 </metadata>
 <defs>
  <style type="text/css">*{stroke-linecap:butt;stroke-linejoin:round;}</style>
 </defs>
 <g id="figure_1">
  <g id="patch_1">
   <path d="M 0 345.6 
L 460.8 345.6 
L 460.8 0 
L 0 0 
z
" style="fill:#ffffff;"/>
  </g>
  <g id="axes_1">
   <g id="patch_2">
    <path d="M 57.6 307.584 
L 414.72 307.584 
L 414.72 41.472 
L 57.6 41.472 
z
" style="fill:#ffffff;"/>
   </g>
   <g id="matplotlib.axis_1">
    <g id="xtick_1">
     <g id="line2d_1">
      <defs>
       <path d="M 0 0 
L 0 3.5 
" id="mda262446df" style="stroke:#000000;stroke-width:0.8;"/>
      </defs>
      <g>
       <use style="stroke:#000000;stroke-width:0.8;" x="72.031759" xlink:href="#mda262446df" y="307.584"/>
      </g>
     </g>
     <g id="text_1">
      <!-- 5 -->
      <g transform="translate(68.850509 322.182437)scale(0.1 -0.1)">
       <defs>
        <path d="M 10.796875 72.90625 
L 49.515625 72.90625 
L 49.515625 64.59375 
L 19.828125 64.59375 
L 19.828125 46.734375 
Q 21.96875 47.46875 24.109375 47.828125 
Q 26.265625 48.1875 28.421875 48.1875 
Q 40.625 48.1875 47.75 41.5 
Q 54.890625 34.8125 54.890625 23.390625 
Q 54.890625 11.625 47.5625 5.09375 
Q 40.234375 -1.421875 26.90625 -1.421875 
Q 22.3125 -1.421875 17.546875 -0.640625 
Q 12.796875 0.140625 7.71875 1.703125 
L 7.71875 11.625 
Q 12.109375 9.234375 16.796875 8.0625 
Q 21.484375 6.890625 26.703125 6.890625 
Q 35.15625 6.890625 40.078125 11.328125 
Q 45.015625 15.765625 45.015625 23.390625 
Q 45.015625 31 40.078125 35.4375 
Q 35.15625 39.890625 26.703125 39.890625 
Q 22.75 39.890625 18.8125 39.015625 
Q 14.890625 38.140625 10.796875 36.28125 
z
" id="DejaVuSans-53"/>
       </defs>
       <use xlink:href="#DejaVuSans-53"/>
      </g>
     </g>
    </g>
    <g id="xtick_2">
     <g id="line2d_2">
      <g>
       <use style="stroke:#000000;stroke-width:0.8;" x="132.064034" xlink:href="#mda262446df" y="307.584"/>
      </g>
     </g>
     <g id="text_2">
      <!-- 10 -->
      <g transform="translate(125.701534 322.182437)scale(0.1 -0.1)">
       <defs>
        <path d="M 12.40625 8.296875 
L 28.515625 8.296875 
L 28.515625 63.921875 
L 10.984375 60.40625 
L 10.984375 69.390625 
L 28.421875 72.90625 
L 38.28125 72.90625 
L 38.28125 8.296875 
L 54.390625 8.296875 
L 54.390625 0 
L 12.40625 0 
z
" id="DejaVuSans-49"/>
        <path d="M 31.78125 66.40625 
Q 24.171875 66.40625 20.328125 58.90625 
Q 16.5 51.421875 16.5 36.375 
Q 16.5 21.390625 20.328125 13.890625 
Q 24.171875 6.390625 31.78125 6.390625 
Q 39.453125 6.390625 43.28125 13.890625 
Q 47.125 21.390625 47.125 36.375 
Q 47.125 51.421875 43.28125 58.90625 
Q 39.453125 66.40625 31.78125 66.40625 
z
M 31.78125 74.21875 
Q 44.046875 74.21875 50.515625 64.515625 
Q 56.984375 54.828125 56.984375 36.375 
Q 56.984375 17.96875 50.515625 8.265625 
Q 44.046875 -1.421875 31.78125 -1.421875 
Q 19.53125 -1.421875 13.0625 8.265625 
Q 6.59375 17.96875 6.59375 36.375 
Q 6.59375 54.828125 13.0625 64.515625 
Q 19.53125 74.21875 31.78125 74.21875 
z
" id="DejaVuSans-48"/>
       </defs>
       <use xlink:href="#DejaVuSans-49"/>
       <use x="63.623047" xlink:href="#DejaVuSans-48"/>
      </g>
     </g>
    </g>
    <g id="xtick_3">
     <g id="line2d_3">
      <g>
       <use style="stroke:#000000;stroke-width:0.8;" x="192.09631" xlink:href="#mda262446df" y="307.584"/>
      </g>
     </g>
     <g id="text_3">
      <!-- 15 -->
      <g transform="translate(185.73381 322.182437)scale(0.1 -0.1)">
       <use xlink:href="#DejaVuSans-49"/>
       <use x="63.623047" xlink:href="#DejaVuSans-53"/>
      </g>
     </g>
    </g>
    <g id="xtick_4">
     <g id="line2d_4">
      <g>
       <use style="stroke:#000000;stroke-width:0.8;" x="252.128585" xlink:href="#mda262446df" y="307.584"/>
      </g>
     </g>
     <g id="text_4">
      <!-- 20 -->
      <g transform="translate(245.766085 322.182437)scale(0.1 -0.1)">
       <defs>
        <path d="M 19.1875 8.296875 
L 53.609375 8.296875 
L 53.609375 0 
L 7.328125 0 
L 7.328125 8.296875 
Q 12.9375 14.109375 22.625 23.890625 
Q 32.328125 33.6875 34.8125 36.53125 
Q 39.546875 41.84375 41.421875 45.53125 
Q 43.3125 49.21875 43.3125 52.78125 
Q 43.3125 58.59375 39.234375 62.25 
Q 35.15625 65.921875 28.609375 65.921875 
Q 23.96875 65.921875 18.8125 64.3125 
Q 13.671875 62.703125 7.8125 59.421875 
L 7.8125 69.390625 
Q 13.765625 71.78125 18.9375 73 
Q 24.125 74.21875 28.421875 74.21875 
Q 39.75 74.21875 46.484375 68.546875 
Q 53.21875 62.890625 53.21875 53.421875 
Q 53.21875 48.921875 51.53125 44.890625 
Q 49.859375 40.875 45.40625 35.40625 
Q 44.1875 33.984375 37.640625 27.21875 
Q 31.109375 20.453125 19.1875 8.296875 
z
" id="DejaVuSans-50"/>
       </defs>
       <use xlink:href="#DejaVuSans-50"/>
       <use x="63.623047" xlink:href="#DejaVuSans-48"/>
      </g>
     </g>
    </g>
    <g id="xtick_5">
     <g id="line2d_5">
      <g>
       <use style="stroke:#000000;stroke-width:0.8;" x="312.160861" xlink:href="#mda262446df" y="307.584"/>
      </g>
     </g>
     <g id="text_5">
      <!-- 25 -->
      <g transform="translate(305.798361 322.182437)scale(0.1 -0.1)">
       <use xlink:href="#DejaVuSans-50"/>
       <use x="63.623047" xlink:href="#DejaVuSans-53"/>
      </g>
     </g>
    </g>
    <g id="xtick_6">
     <g id="line2d_6">
      <g>
       <use style="stroke:#000000;stroke-width:0.8;" x="372.193136" xlink:href="#mda262446df" y="307.584"/>
      </g>
     </g>
     <g id="text_6">
      <!-- 30 -->
      <g transform="translate(365.830636 322.182437)scale(0.1 -0.1)">
       <defs>
        <path d="M 40.578125 39.3125 
Q 47.65625 37.796875 51.625 33 
Q 55.609375 28.21875 55.609375 21.1875 
Q 55.609375 10.40625 48.1875 4.484375 
Q 40.765625 -1.421875 27.09375 -1.421875 
Q 22.515625 -1.421875 17.65625 -0.515625 
Q 12.796875 0.390625 7.625 2.203125 
L 7.625 11.71875 
Q 11.71875 9.328125 16.59375 8.109375 
Q 21.484375 6.890625 26.8125 6.890625 
Q 36.078125 6.890625 40.9375 10.546875 
Q 45.796875 14.203125 45.796875 21.1875 
Q 45.796875 27.640625 41.28125 31.265625 
Q 36.765625 34.90625 28.71875 34.90625 
L 20.21875 34.90625 
L 20.21875 43.015625 
L 29.109375 43.015625 
Q 36.375 43.015625 40.234375 45.921875 
Q 44.09375 48.828125 44.09375 54.296875 
Q 44.09375 59.90625 40.109375 62.90625 
Q 36.140625 65.921875 28.71875 65.921875 
Q 24.65625 65.921875 20.015625 65.03125 
Q 15.375 64.15625 9.8125 62.3125 
L 9.8125 71.09375 
Q 15.4375 72.65625 20.34375 73.4375 
Q 25.25 74.21875 29.59375 74.21875 
Q 40.828125 74.21875 47.359375 69.109375 
Q 53.90625 64.015625 53.90625 55.328125 
Q 53.90625 49.265625 50.4375 45.09375 
Q 46.96875 40.921875 40.578125 39.3125 
z
" id="DejaVuSans-51"/>
       </defs>
       <use xlink:href="#DejaVuSans-51"/>
       <use x="63.623047" xlink:href="#DejaVuSans-48"/>
      </g>
     </g>
    </g>
    <g id="text_7">
     <!-- temperature from Aeris -->
     <g transform="translate(177.464687 335.860562)scale(0.1 -0.1)">
      <defs>
       <path d="M 18.3125 70.21875 
L 18.3125 54.6875 
L 36.8125 54.6875 
L 36.8125 47.703125 
L 18.3125 47.703125 
L 18.3125 18.015625 
Q 18.3125 11.328125 20.140625 9.421875 
Q 21.96875 7.515625 27.59375 7.515625 
L 36.8125 7.515625 
L 36.8125 0 
L 27.59375 0 
Q 17.1875 0 13.234375 3.875 
Q 9.28125 7.765625 9.28125 18.015625 
L 9.28125 47.703125 
L 2.6875 47.703125 
L 2.6875 54.6875 
L 9.28125 54.6875 
L 9.28125 70.21875 
z
" id="DejaVuSans-116"/>
       <path d="M 56.203125 29.59375 
L 56.203125 25.203125 
L 14.890625 25.203125 
Q 15.484375 15.921875 20.484375 11.0625 
Q 25.484375 6.203125 34.421875 6.203125 
Q 39.59375 6.203125 44.453125 7.46875 
Q 49.3125 8.734375 54.109375 11.28125 
L 54.109375 2.78125 
Q 49.265625 0.734375 44.1875 -0.34375 
Q 39.109375 -1.421875 33.890625 -1.421875 
Q 20.796875 -1.421875 13.15625 6.1875 
Q 5.515625 13.8125 5.515625 26.8125 
Q 5.515625 40.234375 12.765625 48.109375 
Q 20.015625 56 32.328125 56 
Q 43.359375 56 49.78125 48.890625 
Q 56.203125 41.796875 56.203125 29.59375 
z
M 47.21875 32.234375 
Q 47.125 39.59375 43.09375 43.984375 
Q 39.0625 48.390625 32.421875 48.390625 
Q 24.90625 48.390625 20.390625 44.140625 
Q 15.875 39.890625 15.1875 32.171875 
z
" id="DejaVuSans-101"/>
       <path d="M 52 44.1875 
Q 55.375 50.25 60.0625 53.125 
Q 64.75 56 71.09375 56 
Q 79.640625 56 84.28125 50.015625 
Q 88.921875 44.046875 88.921875 33.015625 
L 88.921875 0 
L 79.890625 0 
L 79.890625 32.71875 
Q 79.890625 40.578125 77.09375 44.375 
Q 74.3125 48.1875 68.609375 48.1875 
Q 61.625 48.1875 57.5625 43.546875 
Q 53.515625 38.921875 53.515625 30.90625 
L 53.515625 0 
L 44.484375 0 
L 44.484375 32.71875 
Q 44.484375 40.625 41.703125 44.40625 
Q 38.921875 48.1875 33.109375 48.1875 
Q 26.21875 48.1875 22.15625 43.53125 
Q 18.109375 38.875 18.109375 30.90625 
L 18.109375 0 
L 9.078125 0 
L 9.078125 54.6875 
L 18.109375 54.6875 
L 18.109375 46.1875 
Q 21.1875 51.21875 25.484375 53.609375 
Q 29.78125 56 35.6875 56 
Q 41.65625 56 45.828125 52.96875 
Q 50 49.953125 52 44.1875 
z
" id="DejaVuSans-109"/>
       <path d="M 18.109375 8.203125 
L 18.109375 -20.796875 
L 9.078125 -20.796875 
L 9.078125 54.6875 
L 18.109375 54.6875 
L 18.109375 46.390625 
Q 20.953125 51.265625 25.265625 53.625 
Q 29.59375 56 35.59375 56 
Q 45.5625 56 51.78125 48.09375 
Q 58.015625 40.1875 58.015625 27.296875 
Q 58.015625 14.40625 51.78125 6.484375 
Q 45.5625 -1.421875 35.59375 -1.421875 
Q 29.59375 -1.421875 25.265625 0.953125 
Q 20.953125 3.328125 18.109375 8.203125 
z
M 48.6875 27.296875 
Q 48.6875 37.203125 44.609375 42.84375 
Q 40.53125 48.484375 33.40625 48.484375 
Q 26.265625 48.484375 22.1875 42.84375 
Q 18.109375 37.203125 18.109375 27.296875 
Q 18.109375 17.390625 22.1875 11.75 
Q 26.265625 6.109375 33.40625 6.109375 
Q 40.53125 6.109375 44.609375 11.75 
Q 48.6875 17.390625 48.6875 27.296875 
z
" id="DejaVuSans-112"/>
       <path d="M 41.109375 46.296875 
Q 39.59375 47.171875 37.8125 47.578125 
Q 36.03125 48 33.890625 48 
Q 26.265625 48 22.1875 43.046875 
Q 18.109375 38.09375 18.109375 28.8125 
L 18.109375 0 
L 9.078125 0 
L 9.078125 54.6875 
L 18.109375 54.6875 
L 18.109375 46.1875 
Q 20.953125 51.171875 25.484375 53.578125 
Q 30.03125 56 36.53125 56 
Q 37.453125 56 38.578125 55.875 
Q 39.703125 55.765625 41.0625 55.515625 
z
" id="DejaVuSans-114"/>
       <path d="M 34.28125 27.484375 
Q 23.390625 27.484375 19.1875 25 
Q 14.984375 22.515625 14.984375 16.5 
Q 14.984375 11.71875 18.140625 8.90625 
Q 21.296875 6.109375 26.703125 6.109375 
Q 34.1875 6.109375 38.703125 11.40625 
Q 43.21875 16.703125 43.21875 25.484375 
L 43.21875 27.484375 
z
M 52.203125 31.203125 
L 52.203125 0 
L 43.21875 0 
L 43.21875 8.296875 
Q 40.140625 3.328125 35.546875 0.953125 
Q 30.953125 -1.421875 24.3125 -1.421875 
Q 15.921875 -1.421875 10.953125 3.296875 
Q 6 8.015625 6 15.921875 
Q 6 25.140625 12.171875 29.828125 
Q 18.359375 34.515625 30.609375 34.515625 
L 43.21875 34.515625 
L 43.21875 35.40625 
Q 43.21875 41.609375 39.140625 45 
Q 35.0625 48.390625 27.6875 48.390625 
Q 23 48.390625 18.546875 47.265625 
Q 14.109375 46.140625 10.015625 43.890625 
L 10.015625 52.203125 
Q 14.9375 54.109375 19.578125 55.046875 
Q 24.21875 56 28.609375 56 
Q 40.484375 56 46.34375 49.84375 
Q 52.203125 43.703125 52.203125 31.203125 
z
" id="DejaVuSans-97"/>
       <path d="M 8.5 21.578125 
L 8.5 54.6875 
L 17.484375 54.6875 
L 17.484375 21.921875 
Q 17.484375 14.15625 20.5 10.265625 
Q 23.53125 6.390625 29.59375 6.390625 
Q 36.859375 6.390625 41.078125 11.03125 
Q 45.3125 15.671875 45.3125 23.6875 
L 45.3125 54.6875 
L 54.296875 54.6875 
L 54.296875 0 
L 45.3125 0 
L 45.3125 8.40625 
Q 42.046875 3.421875 37.71875 1 
Q 33.40625 -1.421875 27.6875 -1.421875 
Q 18.265625 -1.421875 13.375 4.4375 
Q 8.5 10.296875 8.5 21.578125 
z
M 31.109375 56 
z
" id="DejaVuSans-117"/>
       <path id="DejaVuSans-32"/>
       <path d="M 37.109375 75.984375 
L 37.109375 68.5 
L 28.515625 68.5 
Q 23.6875 68.5 21.796875 66.546875 
Q 19.921875 64.59375 19.921875 59.515625 
L 19.921875 54.6875 
L 34.71875 54.6875 
L 34.71875 47.703125 
L 19.921875 47.703125 
L 19.921875 0 
L 10.890625 0 
L 10.890625 47.703125 
L 2.296875 47.703125 
L 2.296875 54.6875 
L 10.890625 54.6875 
L 10.890625 58.5 
Q 10.890625 67.625 15.140625 71.796875 
Q 19.390625 75.984375 28.609375 75.984375 
z
" id="DejaVuSans-102"/>
       <path d="M 30.609375 48.390625 
Q 23.390625 48.390625 19.1875 42.75 
Q 14.984375 37.109375 14.984375 27.296875 
Q 14.984375 17.484375 19.15625 11.84375 
Q 23.34375 6.203125 30.609375 6.203125 
Q 37.796875 6.203125 41.984375 11.859375 
Q 46.1875 17.53125 46.1875 27.296875 
Q 46.1875 37.015625 41.984375 42.703125 
Q 37.796875 48.390625 30.609375 48.390625 
z
M 30.609375 56 
Q 42.328125 56 49.015625 48.375 
Q 55.71875 40.765625 55.71875 27.296875 
Q 55.71875 13.875 49.015625 6.21875 
Q 42.328125 -1.421875 30.609375 -1.421875 
Q 18.84375 -1.421875 12.171875 6.21875 
Q 5.515625 13.875 5.515625 27.296875 
Q 5.515625 40.765625 12.171875 48.375 
Q 18.84375 56 30.609375 56 
z
" id="DejaVuSans-111"/>
       <path d="M 34.1875 63.1875 
L 20.796875 26.90625 
L 47.609375 26.90625 
z
M 28.609375 72.90625 
L 39.796875 72.90625 
L 67.578125 0 
L 57.328125 0 
L 50.6875 18.703125 
L 17.828125 18.703125 
L 11.1875 0 
L 0.78125 0 
z
" id="DejaVuSans-65"/>
       <path d="M 9.421875 54.6875 
L 18.40625 54.6875 
L 18.40625 0 
L 9.421875 0 
z
M 9.421875 75.984375 
L 18.40625 75.984375 
L 18.40625 64.59375 
L 9.421875 64.59375 
z
" id="DejaVuSans-105"/>
       <path d="M 44.28125 53.078125 
L 44.28125 44.578125 
Q 40.484375 46.53125 36.375 47.5 
Q 32.28125 48.484375 27.875 48.484375 
Q 21.1875 48.484375 17.84375 46.4375 
Q 14.5 44.390625 14.5 40.28125 
Q 14.5 37.15625 16.890625 35.375 
Q 19.28125 33.59375 26.515625 31.984375 
L 29.59375 31.296875 
Q 39.15625 29.25 43.1875 25.515625 
Q 47.21875 21.78125 47.21875 15.09375 
Q 47.21875 7.46875 41.1875 3.015625 
Q 35.15625 -1.421875 24.609375 -1.421875 
Q 20.21875 -1.421875 15.453125 -0.5625 
Q 10.6875 0.296875 5.421875 2 
L 5.421875 11.28125 
Q 10.40625 8.6875 15.234375 7.390625 
Q 20.0625 6.109375 24.8125 6.109375 
Q 31.15625 6.109375 34.5625 8.28125 
Q 37.984375 10.453125 37.984375 14.40625 
Q 37.984375 18.0625 35.515625 20.015625 
Q 33.0625 21.96875 24.703125 23.78125 
L 21.578125 24.515625 
Q 13.234375 26.265625 9.515625 29.90625 
Q 5.8125 33.546875 5.8125 39.890625 
Q 5.8125 47.609375 11.28125 51.796875 
Q 16.75 56 26.8125 56 
Q 31.78125 56 36.171875 55.265625 
Q 40.578125 54.546875 44.28125 53.078125 
z
" id="DejaVuSans-115"/>
      </defs>
      <use xlink:href="#DejaVuSans-116"/>
      <use x="39.208984" xlink:href="#DejaVuSans-101"/>
      <use x="100.732422" xlink:href="#DejaVuSans-109"/>
      <use x="198.144531" xlink:href="#DejaVuSans-112"/>
      <use x="261.621094" xlink:href="#DejaVuSans-101"/>
      <use x="323.144531" xlink:href="#DejaVuSans-114"/>
      <use x="364.257812" xlink:href="#DejaVuSans-97"/>
      <use x="425.537109" xlink:href="#DejaVuSans-116"/>
      <use x="464.746094" xlink:href="#DejaVuSans-117"/>
      <use x="528.125" xlink:href="#DejaVuSans-114"/>
      <use x="566.988281" xlink:href="#DejaVuSans-101"/>
      <use x="628.511719" xlink:href="#DejaVuSans-32"/>
      <use x="660.298828" xlink:href="#DejaVuSans-102"/>
      <use x="695.503906" xlink:href="#DejaVuSans-114"/>
      <use x="734.367188" xlink:href="#DejaVuSans-111"/>
      <use x="795.548828" xlink:href="#DejaVuSans-109"/>
      <use x="892.960938" xlink:href="#DejaVuSans-32"/>
      <use x="924.748047" xlink:href="#DejaVuSans-65"/>
      <use x="991.40625" xlink:href="#DejaVuSans-101"/>
      <use x="1052.929688" xlink:href="#DejaVuSans-114"/>
      <use x="1094.042969" xlink:href="#DejaVuSans-105"/>
      <use x="1121.826172" xlink:href="#DejaVuSans-115"/>
     </g>
    </g>
   </g>
   <g id="matplotlib.axis_2">
    <g id="ytick_1">
     <g id="line2d_7">
      <defs>
       <path d="M 0 0 
L -3.5 0 
" id="m644602546e" style="stroke:#000000;stroke-width:0.8;"/>
      </defs>
      <g>
       <use style="stroke:#000000;stroke-width:0.8;" x="57.6" xlink:href="#m644602546e" y="302.028146"/>
      </g>
     </g>
     <g id="text_8">
      <!-- 3.5 -->
      <g transform="translate(34.696875 305.827365)scale(0.1 -0.1)">
       <defs>
        <path d="M 10.6875 12.40625 
L 21 12.40625 
L 21 0 
L 10.6875 0 
z
" id="DejaVuSans-46"/>
       </defs>
       <use xlink:href="#DejaVuSans-51"/>
       <use x="63.623047" xlink:href="#DejaVuSans-46"/>
       <use x="95.410156" xlink:href="#DejaVuSans-53"/>
      </g>
     </g>
    </g>
    <g id="ytick_2">
     <g id="line2d_8">
      <g>
       <use style="stroke:#000000;stroke-width:0.8;" x="57.6" xlink:href="#m644602546e" y="269.327416"/>
      </g>
     </g>
     <g id="text_9">
      <!-- 4.0 -->
      <g transform="translate(34.696875 273.126635)scale(0.1 -0.1)">
       <defs>
        <path d="M 37.796875 64.3125 
L 12.890625 25.390625 
L 37.796875 25.390625 
z
M 35.203125 72.90625 
L 47.609375 72.90625 
L 47.609375 25.390625 
L 58.015625 25.390625 
L 58.015625 17.1875 
L 47.609375 17.1875 
L 47.609375 0 
L 37.796875 0 
L 37.796875 17.1875 
L 4.890625 17.1875 
L 4.890625 26.703125 
z
" id="DejaVuSans-52"/>
       </defs>
       <use xlink:href="#DejaVuSans-52"/>
       <use x="63.623047" xlink:href="#DejaVuSans-46"/>
       <use x="95.410156" xlink:href="#DejaVuSans-48"/>
      </g>
     </g>
    </g>
    <g id="ytick_3">
     <g id="line2d_9">
      <g>
       <use style="stroke:#000000;stroke-width:0.8;" x="57.6" xlink:href="#m644602546e" y="236.626686"/>
      </g>
     </g>
     <g id="text_10">
      <!-- 4.5 -->
      <g transform="translate(34.696875 240.425905)scale(0.1 -0.1)">
       <use xlink:href="#DejaVuSans-52"/>
       <use x="63.623047" xlink:href="#DejaVuSans-46"/>
       <use x="95.410156" xlink:href="#DejaVuSans-53"/>
      </g>
     </g>
    </g>
    <g id="ytick_4">
     <g id="line2d_10">
      <g>
       <use style="stroke:#000000;stroke-width:0.8;" x="57.6" xlink:href="#m644602546e" y="203.925956"/>
      </g>
     </g>
     <g id="text_11">
      <!-- 5.0 -->
      <g transform="translate(34.696875 207.725175)scale(0.1 -0.1)">
       <use xlink:href="#DejaVuSans-53"/>
       <use x="63.623047" xlink:href="#DejaVuSans-46"/>
       <use x="95.410156" xlink:href="#DejaVuSans-48"/>
      </g>
     </g>
    </g>
    <g id="ytick_5">
     <g id="line2d_11">
      <g>
       <use style="stroke:#000000;stroke-width:0.8;" x="57.6" xlink:href="#m644602546e" y="171.225226"/>
      </g>
     </g>
     <g id="text_12">
      <!-- 5.5 -->
      <g transform="translate(34.696875 175.024445)scale(0.1 -0.1)">
       <use xlink:href="#DejaVuSans-53"/>
       <use x="63.623047" xlink:href="#DejaVuSans-46"/>
       <use x="95.410156" xlink:href="#DejaVuSans-53"/>
      </g>
     </g>
    </g>
    <g id="ytick_6">
     <g id="line2d_12">
      <g>
       <use style="stroke:#000000;stroke-width:0.8;" x="57.6" xlink:href="#m644602546e" y="138.524496"/>
      </g>
     </g>
     <g id="text_13">
      <!-- 6.0 -->
      <g transform="translate(34.696875 142.323715)scale(0.1 -0.1)">
       <defs>
        <path d="M 33.015625 40.375 
Q 26.375 40.375 22.484375 35.828125 
Q 18.609375 31.296875 18.609375 23.390625 
Q 18.609375 15.53125 22.484375 10.953125 
Q 26.375 6.390625 33.015625 6.390625 
Q 39.65625 6.390625 43.53125 10.953125 
Q 47.40625 15.53125 47.40625 23.390625 
Q 47.40625 31.296875 43.53125 35.828125 
Q 39.65625 40.375 33.015625 40.375 
z
M 52.59375 71.296875 
L 52.59375 62.3125 
Q 48.875 64.0625 45.09375 64.984375 
Q 41.3125 65.921875 37.59375 65.921875 
Q 27.828125 65.921875 22.671875 59.328125 
Q 17.53125 52.734375 16.796875 39.40625 
Q 19.671875 43.65625 24.015625 45.921875 
Q 28.375 48.1875 33.59375 48.1875 
Q 44.578125 48.1875 50.953125 41.515625 
Q 57.328125 34.859375 57.328125 23.390625 
Q 57.328125 12.15625 50.6875 5.359375 
Q 44.046875 -1.421875 33.015625 -1.421875 
Q 20.359375 -1.421875 13.671875 8.265625 
Q 6.984375 17.96875 6.984375 36.375 
Q 6.984375 53.65625 15.1875 63.9375 
Q 23.390625 74.21875 37.203125 74.21875 
Q 40.921875 74.21875 44.703125 73.484375 
Q 48.484375 72.75 52.59375 71.296875 
z
" id="DejaVuSans-54"/>
       </defs>
       <use xlink:href="#DejaVuSans-54"/>
       <use x="63.623047" xlink:href="#DejaVuSans-46"/>
       <use x="95.410156" xlink:href="#DejaVuSans-48"/>
      </g>
     </g>
    </g>
    <g id="ytick_7">
     <g id="line2d_13">
      <g>
       <use style="stroke:#000000;stroke-width:0.8;" x="57.6" xlink:href="#m644602546e" y="105.823766"/>
      </g>
     </g>
     <g id="text_14">
      <!-- 6.5 -->
      <g transform="translate(34.696875 109.622985)scale(0.1 -0.1)">
       <use xlink:href="#DejaVuSans-54"/>
       <use x="63.623047" xlink:href="#DejaVuSans-46"/>
       <use x="95.410156" xlink:href="#DejaVuSans-53"/>
      </g>
     </g>
    </g>
    <g id="ytick_8">
     <g id="line2d_14">
      <g>
       <use style="stroke:#000000;stroke-width:0.8;" x="57.6" xlink:href="#m644602546e" y="73.123036"/>
      </g>
     </g>
     <g id="text_15">
      <!-- 7.0 -->
      <g transform="translate(34.696875 76.922255)scale(0.1 -0.1)">
       <defs>
        <path d="M 8.203125 72.90625 
L 55.078125 72.90625 
L 55.078125 68.703125 
L 28.609375 0 
L 18.3125 0 
L 43.21875 64.59375 
L 8.203125 64.59375 
z
" id="DejaVuSans-55"/>
       </defs>
       <use xlink:href="#DejaVuSans-55"/>
       <use x="63.623047" xlink:href="#DejaVuSans-46"/>
       <use x="95.410156" xlink:href="#DejaVuSans-48"/>
      </g>
     </g>
    </g>
    <g id="text_16">
     <!-- ping_day[ms] -->
     <g transform="translate(28.339062 208.508469)rotate(-90)scale(0.1 -0.1)">
      <defs>
       <path d="M 54.890625 33.015625 
L 54.890625 0 
L 45.90625 0 
L 45.90625 32.71875 
Q 45.90625 40.484375 42.875 44.328125 
Q 39.84375 48.1875 33.796875 48.1875 
Q 26.515625 48.1875 22.3125 43.546875 
Q 18.109375 38.921875 18.109375 30.90625 
L 18.109375 0 
L 9.078125 0 
L 9.078125 54.6875 
L 18.109375 54.6875 
L 18.109375 46.1875 
Q 21.34375 51.125 25.703125 53.5625 
Q 30.078125 56 35.796875 56 
Q 45.21875 56 50.046875 50.171875 
Q 54.890625 44.34375 54.890625 33.015625 
z
" id="DejaVuSans-110"/>
       <path d="M 45.40625 27.984375 
Q 45.40625 37.75 41.375 43.109375 
Q 37.359375 48.484375 30.078125 48.484375 
Q 22.859375 48.484375 18.828125 43.109375 
Q 14.796875 37.75 14.796875 27.984375 
Q 14.796875 18.265625 18.828125 12.890625 
Q 22.859375 7.515625 30.078125 7.515625 
Q 37.359375 7.515625 41.375 12.890625 
Q 45.40625 18.265625 45.40625 27.984375 
z
M 54.390625 6.78125 
Q 54.390625 -7.171875 48.1875 -13.984375 
Q 42 -20.796875 29.203125 -20.796875 
Q 24.46875 -20.796875 20.265625 -20.09375 
Q 16.0625 -19.390625 12.109375 -17.921875 
L 12.109375 -9.1875 
Q 16.0625 -11.328125 19.921875 -12.34375 
Q 23.78125 -13.375 27.78125 -13.375 
Q 36.625 -13.375 41.015625 -8.765625 
Q 45.40625 -4.15625 45.40625 5.171875 
L 45.40625 9.625 
Q 42.625 4.78125 38.28125 2.390625 
Q 33.9375 0 27.875 0 
Q 17.828125 0 11.671875 7.65625 
Q 5.515625 15.328125 5.515625 27.984375 
Q 5.515625 40.671875 11.671875 48.328125 
Q 17.828125 56 27.875 56 
Q 33.9375 56 38.28125 53.609375 
Q 42.625 51.21875 45.40625 46.390625 
L 45.40625 54.6875 
L 54.390625 54.6875 
z
" id="DejaVuSans-103"/>
       <path d="M 50.984375 -16.609375 
L 50.984375 -23.578125 
L -0.984375 -23.578125 
L -0.984375 -16.609375 
z
" id="DejaVuSans-95"/>
       <path d="M 45.40625 46.390625 
L 45.40625 75.984375 
L 54.390625 75.984375 
L 54.390625 0 
L 45.40625 0 
L 45.40625 8.203125 
Q 42.578125 3.328125 38.25 0.953125 
Q 33.9375 -1.421875 27.875 -1.421875 
Q 17.96875 -1.421875 11.734375 6.484375 
Q 5.515625 14.40625 5.515625 27.296875 
Q 5.515625 40.1875 11.734375 48.09375 
Q 17.96875 56 27.875 56 
Q 33.9375 56 38.25 53.625 
Q 42.578125 51.265625 45.40625 46.390625 
z
M 14.796875 27.296875 
Q 14.796875 17.390625 18.875 11.75 
Q 22.953125 6.109375 30.078125 6.109375 
Q 37.203125 6.109375 41.296875 11.75 
Q 45.40625 17.390625 45.40625 27.296875 
Q 45.40625 37.203125 41.296875 42.84375 
Q 37.203125 48.484375 30.078125 48.484375 
Q 22.953125 48.484375 18.875 42.84375 
Q 14.796875 37.203125 14.796875 27.296875 
z
" id="DejaVuSans-100"/>
       <path d="M 32.171875 -5.078125 
Q 28.375 -14.84375 24.75 -17.8125 
Q 21.140625 -20.796875 15.09375 -20.796875 
L 7.90625 -20.796875 
L 7.90625 -13.28125 
L 13.1875 -13.28125 
Q 16.890625 -13.28125 18.9375 -11.515625 
Q 21 -9.765625 23.484375 -3.21875 
L 25.09375 0.875 
L 2.984375 54.6875 
L 12.5 54.6875 
L 29.59375 11.921875 
L 46.6875 54.6875 
L 56.203125 54.6875 
z
" id="DejaVuSans-121"/>
       <path d="M 8.59375 75.984375 
L 29.296875 75.984375 
L 29.296875 69 
L 17.578125 69 
L 17.578125 -6.203125 
L 29.296875 -6.203125 
L 29.296875 -13.1875 
L 8.59375 -13.1875 
z
" id="DejaVuSans-91"/>
       <path d="M 30.421875 75.984375 
L 30.421875 -13.1875 
L 9.71875 -13.1875 
L 9.71875 -6.203125 
L 21.390625 -6.203125 
L 21.390625 69 
L 9.71875 69 
L 9.71875 75.984375 
z
" id="DejaVuSans-93"/>
      </defs>
      <use xlink:href="#DejaVuSans-112"/>
      <use x="63.476562" xlink:href="#DejaVuSans-105"/>
      <use x="91.259766" xlink:href="#DejaVuSans-110"/>
      <use x="154.638672" xlink:href="#DejaVuSans-103"/>
      <use x="218.115234" xlink:href="#DejaVuSans-95"/>
      <use x="268.115234" xlink:href="#DejaVuSans-100"/>
      <use x="331.591797" xlink:href="#DejaVuSans-97"/>
      <use x="392.871094" xlink:href="#DejaVuSans-121"/>
      <use x="452.050781" xlink:href="#DejaVuSans-91"/>
      <use x="491.064453" xlink:href="#DejaVuSans-109"/>
      <use x="588.476562" xlink:href="#DejaVuSans-115"/>
      <use x="640.576172" xlink:href="#DejaVuSans-93"/>
     </g>
    </g>
   </g>
   <g id="line2d_15">
    <path clip-path="url(#pffa74d213e)" d="M 73.832727 244.147854 
L 74.072856 236.36508 
L 74.192921 220.341723 
L 74.312985 220.636029 
L 74.43305 235.645664 
L 74.553115 224.396613 
L 74.673179 248.00654 
L 75.033373 232.898803 
L 76.234018 243.036029 
L 77.434664 239.438949 
L 78.635309 239.765956 
L 79.595826 255.200701 
L 79.835955 237.019095 
L 80.316213 192.153693 
L 80.916536 237.869314 
L 81.156665 244.442161 
L 81.276729 229.236321 
L 81.636923 242.64362 
L 81.877052 234.337635 
L 82.957633 240.943182 
L 83.798085 235.776467 
L 84.158279 219.687708 
L 84.878666 221.518949 
L 84.998731 245.848292 
L 85.358924 230.904058 
L 85.599053 255.985518 
L 85.719118 235.187854 
L 85.839182 263.768292 
L 86.199376 242.752623 
L 86.319441 247.614131 
L 86.439505 223.415591 
L 86.55957 229.759533 
L 86.799699 249.314569 
L 86.919763 247.777635 
L 87.039828 234.926248 
L 87.279957 234.206832 
L 87.760215 251.930628 
L 88.120409 241.27019 
L 88.240473 250.491796 
L 90.041442 240.485372 
L 90.161506 235.253255 
L 90.281571 250.557197 
L 90.5217 223.023182 
L 90.881893 269.392818 
L 91.001958 256.312526 
L 91.362152 230.413547 
L 91.482216 257.457051 
L 91.722345 200.328876 
L 91.962474 266.155445 
L 92.322668 225.443036 
L 93.283185 238.13092 
L 93.763443 235.972672 
L 94.723959 229.040117 
L 95.084153 256.312526 
L 95.80454 238.654131 
L 96.044669 248.333547 
L 96.164734 258.209168 
L 96.524927 239.259095 
L 97.365379 239.896759 
L 97.845637 243.559241 
L 97.965702 259.255591 
L 98.325896 225.14873 
L 101.687703 260.629022 
L 102.648219 214.39019 
L 102.888349 241.466394 
L 104.809381 255.135299 
L 105.169575 236.463182 
L 105.529769 243.395737 
L 105.889962 237.934715 
L 106.370221 224.658219 
L 107.090608 246.306102 
L 107.330737 236.757489 
L 107.690931 259.19019 
L 107.93106 227.339679 
L 108.171189 230.478949 
L 108.291253 275.017343 
L 108.531382 229.236321 
L 108.651447 246.1971 
L 109.011641 222.499971 
L 109.611963 244.736467 
L 109.852093 248.268146 
L 110.57248 229.121869 
L 110.812609 246.633109 
L 110.932673 214.364029 
L 111.052738 247.199922 
L 111.172803 238.392526 
L 111.292867 274.232526 
L 111.653061 205.953401 
L 111.773125 273.709314 
L 112.013254 235.645664 
L 112.133319 248.791358 
L 112.253384 249.527124 
L 112.373448 239.03019 
L 112.493513 248.44255 
L 112.613577 229.258122 
L 112.973771 228.364302 
L 113.333964 236.986394 
L 113.574094 250.589898 
L 113.934287 227.274277 
L 114.054352 233.699971 
L 114.174416 230.54435 
L 114.294481 205.528292 
L 114.654675 258.863182 
L 114.774739 241.27019 
L 114.894804 253.434861 
L 115.134933 213.866978 
L 115.254997 231.85238 
L 115.495126 225.344934 
L 115.975385 262.460263 
L 116.095449 229.269022 
L 116.215514 234.272234 
L 116.575707 236.953693 
L 116.695772 220.439825 
L 117.296095 254.186978 
L 117.776353 231.917781 
L 117.896417 249.314569 
L 118.976998 226.03165 
L 119.337192 251.080409 
L 119.457257 226.424058 
L 119.697386 248.071942 
L 119.937515 244.147854 
L 120.177644 227.601285 
L 120.417773 266.842161 
L 120.537838 242.251212 
L 120.657902 253.260457 
L 120.777967 250.557197 
L 121.018096 240.027562 
L 121.378289 248.398949 
L 121.618419 245.390482 
L 121.858548 243.95165 
L 122.218741 226.816467 
L 122.338806 250.818803 
L 122.578935 227.993693 
L 122.819064 257.555153 
L 122.939129 247.385226 
L 123.179258 275.082745 
L 123.419387 227.535883 
L 123.539451 253.729168 
L 123.659516 231.459971 
L 123.77958 244.245956 
L 123.899645 243.690044 
L 124.01971 242.545518 
L 124.139774 236.397781 
L 124.259839 240.158365 
L 124.379903 235.318657 
L 124.499968 256.835737 
L 124.620032 247.156321 
L 124.740097 223.677197 
L 124.980226 226.620263 
L 125.34042 246.131698 
L 125.580549 241.27019 
L 125.700613 260.236613 
L 126.060807 218.216175 
L 126.300936 250.426394 
L 126.421001 225.900847 
L 126.541065 229.977538 
L 126.66113 256.50873 
L 126.781194 217.921869 
L 127.021323 224.985226 
L 127.141388 249.445372 
L 127.261452 228.418803 
L 127.501581 240.354569 
L 127.621646 236.757489 
L 127.98184 260.99963 
L 128.342033 216.221431 
L 128.582162 239.896759 
L 128.702227 235.057051 
L 128.822292 225.214131 
L 129.062421 241.924204 
L 129.182485 235.089752 
L 129.422614 249.706978 
L 129.542679 214.324788 
L 129.662743 218.379679 
L 129.782808 271.485664 
L 129.902873 246.698511 
L 130.143002 253.958073 
L 130.383131 236.430482 
L 130.863389 256.50873 
L 131.103518 235.972672 
L 131.223583 239.308146 
L 131.343647 257.620555 
L 131.463712 250.818803 
L 131.583776 232.519474 
L 131.703841 240.81238 
L 131.94397 206.215007 
L 132.304164 238.212672 
L 132.424228 213.736175 
L 132.784422 242.839825 
L 132.904486 217.594861 
L 133.024551 244.147854 
L 133.144615 229.563328 
L 133.26468 237.346102 
L 133.384744 217.202453 
L 133.504809 242.512818 
L 133.624874 239.864058 
L 133.744938 256.639533 
L 134.105132 226.06435 
L 134.225196 241.466394 
L 134.345261 231.394569 
L 134.58539 241.760701 
L 134.705455 241.139387 
L 134.825519 248.856759 
L 135.065648 205.299387 
L 135.305777 248.725956 
L 135.425842 238.883036 
L 135.545906 274.232526 
L 135.9061 217.235153 
L 136.026165 238.13092 
L 136.386358 240.452672 
L 136.506423 264.618511 
L 136.746552 237.411504 
L 136.866616 258.078365 
L 137.22681 229.923036 
L 137.587004 225.900847 
L 137.827133 231.372769 
L 138.067262 196.208584 
L 138.307391 208.634861 
L 138.54752 242.992428 
L 138.787649 239.962161 
L 138.907714 253.042453 
L 139.027778 252.355737 
L 139.387972 209.02727 
L 139.508037 239.765956 
L 139.748166 236.757489 
L 139.86823 225.050628 
L 140.108359 246.763912 
L 140.228424 233.291212 
L 140.348488 248.769557 
L 140.588618 246.927416 
L 140.708682 256.933839 
L 140.828747 237.869314 
L 140.948811 251.897927 
L 141.068876 244.932672 
L 141.18894 258.797781 
L 141.549134 234.446637 
L 141.789263 245.259679 
L 142.029392 228.157197 
L 142.389586 249.706978 
L 142.749779 224.462015 
L 143.109973 243.123231 
L 143.350102 219.426102 
L 143.590231 242.61092 
L 143.710296 253.478462 
L 143.83036 241.008584 
L 143.950425 214.226686 
L 144.07049 218.161674 
L 144.190554 252.617343 
L 144.430683 229.301723 
L 144.670812 240.877781 
L 144.790877 230.904058 
L 145.15107 246.109898 
L 145.3912 215.632818 
L 145.631329 239.130628 
L 145.751393 235.220555 
L 145.871458 235.405859 
L 146.111587 242.948827 
L 146.231651 243.690044 
L 146.471781 236.24362 
L 146.591845 243.815816 
L 146.831974 230.037489 
L 146.952039 223.175786 
L 147.192168 240.463572 
L 147.432297 229.040117 
L 147.552361 230.53345 
L 147.792491 230.675153 
L 148.03262 255.026297 
L 148.152684 249.554375 
L 148.272749 227.895591 
L 148.392813 255.102599 
L 148.512878 251.930628 
L 148.632942 230.042939 
L 148.873072 242.294813 
L 149.113201 224.985226 
L 149.35333 247.066394 
L 149.473394 234.163231 
L 149.593459 241.237489 
L 149.953653 222.499971 
L 150.073717 245.194277 
L 150.193782 236.639766 
L 150.313846 243.755445 
L 150.433911 240.877781 
L 150.553975 216.18873 
L 150.67404 217.594861 
L 150.794104 238.741333 
L 151.034233 215.469314 
L 151.154298 238.392526 
L 151.274363 224.745421 
L 151.394427 241.597197 
L 151.514492 216.570238 
L 151.754621 253.500263 
L 151.99475 237.051796 
L 152.114814 236.997294 
L 152.234879 228.163737 
L 152.354944 234.468438 
L 152.475008 234.55019 
L 152.715137 249.576175 
L 152.835202 208.56946 
L 152.955266 240.027562 
L 153.075331 233.574618 
L 153.31546 249.183766 
L 153.555589 222.401869 
L 153.675654 239.190423 
L 153.795718 226.685664 
L 153.915783 248.542832 
L 154.155912 238.58873 
L 154.275976 246.535007 
L 154.516105 224.156808 
L 154.63617 239.438949 
L 154.876299 214.172185 
L 155.116428 247.581431 
L 155.236493 229.269022 
L 155.356557 247.744934 
L 155.596686 233.552818 
L 155.716751 249.837781 
L 155.836815 242.372672 
L 155.95688 243.935299 
L 156.197009 167.301139 
L 156.317074 250.099387 
L 156.557203 226.140652 
L 156.677267 226.227854 
L 156.797332 219.197197 
L 157.037461 257.075543 
L 157.157526 232.081285 
L 157.397655 256.149022 
L 157.637784 231.934131 
L 157.877913 245.995445 
L 158.118042 213.96508 
L 158.238107 243.95165 
L 158.5983 214.586394 
L 158.718365 236.201577 
L 158.838429 219.251698 
L 159.078558 226.868788 
L 159.198623 225.17053 
L 159.318687 227.37238 
L 159.438752 239.286345 
L 159.678881 173.972088 
L 159.91901 230.151942 
L 160.159139 207.424934 
L 160.279204 236.397781 
L 160.399268 226.969071 
L 160.519333 205.462891 
L 160.639398 229.824934 
L 160.759462 198.999046 
L 160.999591 247.630482 
L 161.119656 244.017051 
L 161.23972 239.978511 
L 161.359785 221.355445 
L 161.479849 223.437392 
L 161.599914 245.281479 
L 161.719978 227.099873 
L 161.840043 232.375591 
L 161.960108 221.061139 
L 162.320301 246.469606 
L 162.440366 218.86365 
L 162.56043 245.913693 
L 162.680495 232.166307 
L 162.800559 243.794686 
L 162.920624 235.240175 
L 163.160753 207.429606 
L 163.280818 207.424934 
L 163.520947 238.327124 
L 163.641011 217.872818 
L 163.761076 254.088876 
L 163.88114 220.581528 
L 164.121269 235.279416 
L 164.241334 245.684788 
L 164.361399 244.589314 
L 164.481463 252.687416 
L 164.601528 222.630774 
L 164.721592 246.731212 
L 164.841657 239.128292 
L 164.961721 220.21092 
L 165.20185 249.663377 
L 165.44198 240.84508 
L 165.562044 243.183182 
L 165.682109 197.84362 
L 165.922238 235.743766 
L 166.042302 223.7862 
L 166.162367 230.784156 
L 166.282431 165.339095 
L 166.402496 237.422404 
L 166.522561 227.306978 
L 166.882754 238.523328 
L 167.002819 231.819679 
L 167.122883 244.818219 
L 167.242948 215.981625 
L 167.483077 235.340457 
L 167.603141 235.340457 
L 167.723206 230.591066 
L 167.843271 243.210433 
L 167.963335 217.323912 
L 168.203464 235.260522 
L 168.323529 203.337343 
L 168.443593 238.13092 
L 168.683722 209.133547 
L 168.923852 235.645664 
L 169.043916 239.04654 
L 169.284045 232.579971 
L 169.40411 233.393985 
L 169.524174 224.26581 
L 169.644239 231.634375 
L 169.764303 204.710774 
L 169.884368 245.431358 
L 170.004432 192.703066 
L 170.124497 239.321226 
L 170.244562 227.944642 
L 170.484691 243.598482 
L 170.604755 217.98727 
L 170.844884 254.742891 
L 170.964949 235.580263 
L 171.085013 237.498706 
L 171.205078 223.910774 
L 171.325143 248.43165 
L 171.445207 238.850336 
L 171.565272 212.231942 
L 171.805401 239.91856 
L 171.925465 241.073985 
L 172.04553 256.639533 
L 172.285659 222.063961 
L 172.525788 256.345226 
L 172.645853 233.642745 
L 172.885982 236.757489 
L 173.006046 225.486637 
L 173.126111 253.631066 
L 173.36624 226.162453 
L 173.486304 235.531212 
L 173.606369 228.386102 
L 173.726434 237.967416 
L 173.846498 209.812088 
L 173.966563 239.326832 
L 174.086627 232.103085 
L 174.206692 235.776467 
L 174.326756 249.903182 
L 174.446821 229.18182 
L 174.566885 229.563328 
L 174.68695 235.612964 
L 174.927079 234.494599 
L 175.047144 240.406891 
L 175.167208 231.721577 
L 175.287273 244.017051 
L 175.407337 232.277489 
L 175.527402 256.149022 
L 175.647466 240.877781 
L 175.767531 247.077839 
L 175.887595 231.176564 
L 176.00766 243.95165 
L 176.127725 243.51019 
L 176.247789 236.474083 
L 176.367854 254.568487 
L 176.607983 207.326832 
L 176.848112 238.675932 
L 177.208306 248.529752 
L 177.32837 236.103474 
L 177.448435 246.458706 
L 177.568499 238.784934 
L 177.688564 251.669022 
L 177.808628 231.536273 
L 177.928693 251.747504 
L 178.048757 237.751591 
L 178.168822 242.360214 
L 178.288886 241.327416 
L 178.529016 228.778511 
L 178.64908 241.092672 
L 178.769145 227.960993 
L 178.889209 234.10873 
L 179.009274 182.961155 
L 179.249403 253.107854 
L 179.369467 231.067562 
L 179.489532 231.092088 
L 179.609597 228.582307 
L 179.729661 263.637489 
L 179.849726 234.965489 
L 179.96979 236.598657 
L 180.089855 246.216175 
L 180.209919 243.37238 
L 180.329984 236.096208 
L 180.450048 238.968058 
L 180.570113 236.832234 
L 180.690178 239.329946 
L 180.810242 233.378414 
L 180.930307 240.959533 
L 181.050371 229.413839 
L 181.170436 235.496175 
L 181.2905 230.021139 
L 181.410565 239.736228 
L 181.530629 224.810822 
L 181.650694 243.153752 
L 181.770758 242.619095 
L 181.890823 238.523328 
L 182.010888 219.009168 
L 182.130952 227.713401 
L 182.251017 246.502307 
L 182.371081 238.61053 
L 182.491146 253.674667 
L 182.61121 213.016759 
L 182.731275 248.573353 
L 182.971404 234.468438 
L 183.211533 245.194277 
L 183.331598 232.081285 
L 183.571727 241.29199 
L 183.691791 223.175786 
L 183.811856 235.253255 
L 184.051985 224.004204 
L 184.172049 134.404204 
L 184.412179 253.892672 
L 184.532243 241.662599 
L 184.652308 249.728779 
L 184.892437 221.518949 
L 185.012501 249.723328 
L 185.132566 251.494618 
L 185.372695 230.299095 
L 185.49276 243.908049 
L 185.612824 232.768 
L 185.732889 235.972672 
L 185.852953 225.028827 
L 185.973018 247.401577 
L 186.093082 242.992428 
L 186.213147 222.598073 
L 186.333211 223.789314 
L 186.453276 217.725664 
L 186.573341 238.370725 
L 186.693405 205.233985 
L 186.81347 223.753499 
L 186.933534 215.600117 
L 187.053599 243.243134 
L 187.293728 217.300555 
L 187.413792 238.479727 
L 187.533857 226.440409 
L 187.653921 236.970044 
L 187.773986 234.839046 
L 187.894051 241.466394 
L 188.014115 241.073985 
L 188.13418 233.738122 
L 188.254244 233.709781 
L 188.374309 230.138861 
L 188.614438 241.466394 
L 188.734502 229.105518 
L 188.854567 236.544934 
L 188.974632 250.998657 
L 189.094696 235.340457 
L 189.214761 237.18727 
L 189.334825 228.146297 
L 189.45489 242.120409 
L 189.574954 223.463156 
L 189.815083 250.491796 
L 189.935148 229.105518 
L 190.175277 235.939971 
L 190.535471 223.172672 
L 190.7756 247.826686 
L 191.015729 232.931504 
L 191.135793 240.315328 
L 191.255858 219.949314 
L 191.495987 244.998073 
L 191.616052 229.596029 
L 191.736116 240.801479 
L 191.856181 227.143474 
L 192.09631 240.501723 
L 192.336439 228.026394 
L 192.456503 244.317898 
L 192.696633 232.741839 
L 192.816697 229.977538 
L 192.936762 230.08654 
L 193.056826 227.633985 
L 193.176891 215.698219 
L 193.296955 238.654131 
L 193.41702 239.798657 
L 193.657149 211.032915 
L 193.897278 236.953693 
L 194.137407 232.931504 
L 194.257472 225.02156 
L 194.377536 242.109509 
L 194.497601 221.509606 
L 194.617665 225.286073 
L 194.73773 243.043296 
L 194.857795 226.497635 
L 194.977859 239.722355 
L 195.097924 231.182015 
L 195.217988 245.848292 
L 195.338053 217.006248 
L 195.458117 243.617376 
L 195.698246 222.935981 
L 195.818311 243.08508 
L 195.938375 202.474044 
L 196.05844 240.092964 
L 196.178505 219.569985 
L 196.418634 232.637197 
L 196.538698 235.805534 
L 196.658763 228.696759 
L 196.778827 228.233499 
L 197.018956 257.271747 
L 197.259086 238.091679 
L 197.499215 229.726832 
L 197.739344 225.704642 
L 197.859408 251.625421 
L 198.099537 235.292496 
L 198.219602 245.678248 
L 198.339666 236.266978 
L 198.459731 241.684399 
L 198.579796 224.200409 
L 198.69986 239.602453 
L 198.939989 231.710676 
L 199.180118 247.784175 
L 199.300183 244.583864 
L 199.420247 231.002161 
L 199.660377 245.510384 
L 199.780441 239.94036 
L 199.900506 243.918949 
L 200.02057 238.992039 
L 200.140635 246.973197 
L 200.380764 224.030365 
L 200.500828 247.450628 
L 200.620893 239.831358 
L 200.740958 223.906102 
L 200.861022 240.975883 
L 200.981087 224.772672 
L 201.101151 231.481771 
L 201.221216 223.301139 
L 201.34128 235.514861 
L 201.461345 225.410336 
L 201.581409 231.473051 
L 201.701474 247.56508 
L 201.821538 234.010628 
L 201.941603 245.259679 
L 202.061668 231.503572 
L 202.181732 246.589509 
L 202.421861 226.097051 
L 202.66199 246.515387 
L 202.782055 241.902404 
L 202.902119 260.302015 
L 203.022184 221.715153 
L 203.142249 240.528973 
L 203.262313 227.514083 
L 203.382378 241.815202 
L 203.502442 240.877781 
L 203.622507 237.329752 
L 203.742571 246.1971 
L 203.9827 235.757781 
L 204.102765 210.128195 
L 204.222829 237.2698 
L 204.342894 231.558073 
L 204.462959 232.375591 
L 204.583023 234.56654 
L 204.703088 241.063085 
L 204.943217 231.966832 
L 205.063281 225.933547 
L 205.30341 232.37056 
L 205.54354 222.074861 
L 205.663604 244.180555 
L 205.783669 236.469723 
L 205.903733 240.707737 
L 206.023798 236.713888 
L 206.143862 204.045859 
L 206.263927 215.651504 
L 206.383991 213.95854 
L 206.504056 198.791942 
L 206.744185 248.954861 
L 206.984314 199.033927 
L 207.104379 227.732088 
L 207.344508 177.464526 
L 207.464572 236.35854 
L 207.704701 224.985226 
L 207.824766 228.991066 
L 207.944831 252.846248 
L 208.18496 232.277489 
L 208.305024 217.07165 
L 208.545153 242.635445 
L 208.785282 237.673109 
L 208.905347 213.51381 
L 209.025412 246.044496 
L 209.145476 225.552039 
L 209.265541 230.457148 
L 209.385605 220.014715 
L 209.625734 242.578219 
L 209.745799 233.513577 
L 209.865863 239.210044 
L 209.985928 230.021139 
L 210.105992 235.384058 
L 210.346122 220.570628 
L 210.466186 231.276847 
L 210.586251 226.685664 
L 210.706315 236.997294 
L 210.82638 237.23165 
L 210.946444 241.034745 
L 211.066509 201.963912 
L 211.186573 241.307562 
L 211.306638 223.742599 
L 211.666832 229.694131 
L 211.786896 238.46727 
L 211.906961 222.369168 
L 212.027025 237.171698 
L 212.14709 237.037781 
L 212.267154 244.300457 
L 212.507283 236.277878 
L 212.627348 243.06873 
L 212.867477 198.922745 
L 212.987542 238.043718 
L 213.107606 236.937343 
L 213.227671 233.814423 
L 213.4678 241.97092 
L 213.707929 226.696564 
L 213.827994 216.483036 
L 214.068123 228.833012 
L 214.188187 230.032039 
L 214.308252 245.962745 
L 214.428316 239.906102 
L 214.548381 227.679766 
L 214.668445 237.248 
L 215.148704 208.242453 
L 215.508897 244.605664 
L 215.628962 248.613839 
L 215.989155 230.838657 
L 216.10922 236.871942 
L 216.229285 254.537343 
L 216.349349 226.659504 
L 216.469414 230.642453 
L 216.589478 244.104253 
L 216.709543 241.384642 
L 216.829607 219.507854 
L 216.949672 221.279144 
L 217.069736 227.764788 
L 217.189801 219.099095 
L 217.42993 242.676321 
L 217.549995 241.873337 
L 217.670059 241.544876 
L 217.790124 226.195153 
L 217.910188 225.639241 
L 218.030253 237.71235 
L 218.150317 231.677976 
L 218.390446 240.071163 
L 218.510511 241.603737 
L 218.630576 247.09092 
L 218.75064 235.608292 
L 218.870705 237.476905 
L 218.990769 233.716321 
L 219.110834 240.016662 
L 219.230898 219.112175 
L 219.350963 237.433304 
L 219.471027 231.656175 
L 219.591092 242.839825 
L 219.711157 204.939679 
L 219.951286 243.05238 
L 220.191415 226.467659 
L 220.311479 237.084496 
L 220.431544 235.197197 
L 220.671673 241.647506 
L 220.911802 221.987659 
L 221.031867 229.288642 
L 221.151931 226.48946 
L 221.271996 228.713109 
L 221.39206 239.329946 
L 221.512125 225.050628 
L 221.632189 226.868788 
L 221.752254 238.71019 
L 221.872318 221.175591 
L 221.992383 245.226978 
L 222.112448 235.626978 
L 222.232512 206.77092 
L 222.472641 229.981898 
L 222.592706 227.557684 
L 222.71277 241.531796 
L 222.952899 227.503182 
L 223.072964 235.493061 
L 223.193029 228.27165 
L 223.433158 244.945752 
L 223.553222 222.990482 
L 223.793351 250.753401 
L 223.913416 230.217343 
L 224.153545 245.32508 
L 224.273609 242.372672 
L 224.393674 233.278131 
L 224.513739 244.39856 
L 224.633803 219.066394 
L 224.873932 242.970628 
L 224.993997 228.765431 
L 225.114061 233.696701 
L 225.234126 265.730336 
L 225.35419 236.33238 
L 225.474255 235.527942 
L 225.59432 233.65092 
L 225.714384 238.024642 
L 225.834449 237.476905 
L 226.074578 245.913693 
L 226.314707 235.506686 
L 226.434771 235.057051 
L 226.554836 231.459971 
L 226.6749 222.129363 
L 226.91503 235.718333 
L 227.035094 225.982599 
L 227.155159 250.504876 
L 227.395288 226.227854 
L 227.515352 239.883679 
L 227.635417 233.563718 
L 227.755481 243.50692 
L 227.875546 243.461139 
L 227.995611 255.887416 
L 228.115675 241.083328 
L 228.23574 244.119825 
L 228.355804 229.345324 
L 228.475869 242.480117 
L 228.595933 238.850336 
L 228.715998 222.513051 
L 228.836062 254.503085 
L 229.076192 232.32327 
L 229.196256 234.163231 
L 229.316321 202.334521 
L 229.436385 241.167416 
L 229.55645 233.274861 
L 229.676514 214.520993 
L 229.916643 240.528973 
L 230.036708 233.244496 
L 230.276837 237.476905 
L 230.396902 217.946394 
L 230.516966 243.402277 
L 230.637031 243.902599 
L 230.757095 232.270949 
L 230.87716 249.674277 
L 230.997224 236.593985 
L 231.117289 237.607708 
L 231.237353 234.419387 
L 231.357418 205.299387 
L 231.477483 241.335591 
L 231.597547 240.38727 
L 231.717612 240.361836 
L 231.957741 213.885664 
L 232.077805 240.027562 
L 232.19787 230.067854 
L 232.317934 242.098608 
L 232.558063 230.871358 
L 232.678128 229.118599 
L 232.918257 238.457927 
L 233.038322 234.795445 
L 233.158386 226.48946 
L 233.278451 231.067562 
L 233.398515 213.621723 
L 233.51858 221.044788 
L 233.638644 241.499095 
L 233.998838 222.46727 
L 234.118903 227.38328 
L 234.238967 218.728487 
L 234.359032 245.564886 
L 234.479096 242.839825 
L 234.719225 227.274277 
L 234.83929 212.869606 
L 234.959354 236.430482 
L 235.319548 224.462015 
L 235.439613 243.864448 
L 235.559677 234.99165 
L 235.679742 243.08508 
L 235.799806 228.407903 
L 235.919871 227.392 
L 236.16 247.041869 
L 236.280065 242.499737 
L 236.400129 242.64362 
L 236.520194 238.000117 
L 236.760323 248.513401 
L 236.880387 230.936759 
L 237.000452 246.578608 
L 237.120516 231.538453 
L 237.240581 237.329752 
L 237.48071 215.403912 
L 237.600775 234.490238 
L 237.720839 219.437002 
L 237.840904 219.360701 
L 237.960968 221.093839 
L 238.081033 249.393051 
L 238.201097 215.000603 
L 238.321162 248.712876 
L 238.441226 242.534618 
L 238.561291 250.001285 
L 238.681356 249.739679 
L 238.80142 236.937343 
L 238.921485 236.495883 
L 239.041549 217.54254 
L 239.161614 231.329168 
L 239.281678 227.470482 
L 239.401743 229.647416 
L 239.521807 240.959533 
L 239.641872 238.392526 
L 239.761937 229.589489 
L 240.12213 247.712234 
L 240.242195 208.782015 
L 240.602388 244.923328 
L 240.842517 217.673343 
L 241.202711 246.763912 
L 241.44284 214.079533 
L 241.562905 237.918365 
L 241.682969 234.730044 
L 241.803034 223.698998 
L 241.923098 238.032818 
L 242.043163 197.102404 
L 242.283292 230.577051 
L 242.403357 240.011212 
L 242.523421 240.703377 
L 242.643486 225.126929 
L 242.76355 244.098803 
L 242.883615 229.64508 
L 243.003679 229.62873 
L 243.123744 233.323912 
L 243.243808 227.612185 
L 243.363873 236.517684 
L 243.483938 233.844609 
L 243.604002 238.883036 
L 243.724067 227.445956 
L 243.964196 240.989898 
L 244.204325 226.805567 
L 244.324389 241.826102 
L 244.444454 233.029606 
L 244.564519 244.245956 
L 244.804648 233.356613 
L 244.924712 243.690044 
L 245.284906 209.256175 
L 245.525035 238.872136 
L 245.6451 226.424058 
L 245.765164 225.770044 
L 245.885229 244.540263 
L 246.125358 260.236613 
L 246.245422 221.878657 
L 246.365487 242.316613 
L 246.605616 213.866978 
L 246.72568 240.975883 
L 246.845745 218.314277 
L 246.96581 243.849914 
L 247.085874 227.339679 
L 247.205939 232.467153 
L 247.326003 207.392234 
L 247.446068 230.696954 
L 247.566132 232.244788 
L 247.686197 230.707854 
L 247.806261 250.949606 
L 247.926326 224.247124 
L 248.046391 223.633596 
L 248.166455 242.861625 
L 248.406584 227.496642 
L 248.766778 247.319825 
L 248.886842 223.677197 
L 249.006907 240.583474 
L 249.126971 232.473693 
L 249.487165 245.259679 
L 249.60723 214.695397 
L 249.727294 236.888292 
L 249.847359 236.626686 
L 249.967423 239.700555 
L 250.087488 53.568 
L 250.327617 244.899971 
L 250.447682 244.605664 
L 250.687811 225.33092 
L 250.807875 231.237606 
L 250.92794 218.559533 
L 251.168069 245.76654 
L 251.408198 219.831591 
L 251.528263 237.176058 
L 251.648327 235.929071 
L 251.768392 254.786491 
L 251.888456 230.478949 
L 252.008521 237.869314 
L 252.24865 225.652321 
L 252.368714 210.368 
L 252.608843 245.30873 
L 252.728908 211.787212 
L 252.969037 238.562569 
L 253.089102 227.797489 
L 253.209166 238.741333 
L 253.329231 222.859679 
L 253.449295 239.526151 
L 253.56936 225.900847 
L 253.689424 235.972672 
L 253.809489 236.277878 
L 253.929554 246.077197 
L 254.049618 222.205664 
L 254.169683 239.635153 
L 254.289747 235.874569 
L 254.409812 227.862891 
L 254.529876 248.246345 
L 254.89007 216.057927 
L 255.130199 229.737732 
L 255.250264 233.879825 
L 255.370328 244.357139 
L 255.490393 240.501723 
L 255.730522 224.331212 
L 255.850586 252.126832 
L 255.970651 229.530628 
L 256.21078 255.244302 
L 256.330845 109.420847 
L 256.450909 238.981139 
L 256.570974 212.755153 
L 256.691038 225.60654 
L 256.811103 222.292866 
L 256.931167 243.472039 
L 257.051232 235.161693 
L 257.171296 248.520409 
L 257.291361 226.402258 
L 257.411425 239.384448 
L 257.53149 236.375981 
L 257.651555 257.767708 
L 257.771619 240.714277 
L 257.891684 251.058608 
L 258.131813 237.525956 
L 258.251877 235.90727 
L 258.371942 237.575007 
L 258.492006 242.99441 
L 258.612071 233.356613 
L 258.8522 244.998073 
L 258.972265 229.301723 
L 259.092329 249.510774 
L 259.212394 250.190949 
L 259.332458 245.434083 
L 259.572587 221.600701 
L 259.692652 240.82873 
L 259.812717 225.704642 
L 259.932781 233.013255 
L 260.17291 229.17092 
L 260.292975 231.786978 
L 260.413039 245.237878 
L 260.533104 228.669509 
L 260.653168 230.805956 
L 260.773233 238.654131 
L 260.893297 258.993985 
L 261.133427 231.459971 
L 261.253491 231.623474 
L 261.373556 251.073142 
L 261.49362 245.434083 
L 261.613685 251.352915 
L 261.733749 236.386881 
L 261.973878 240.943182 
L 262.093943 237.934715 
L 262.214008 229.873985 
L 262.334072 236.256078 
L 262.454137 234.363796 
L 262.694266 225.246832 
L 263.054459 251.505518 
L 263.174524 242.807124 
L 263.294588 219.360701 
L 263.534718 245.717489 
L 263.654782 223.775299 
L 263.774847 240.550774 
L 263.894911 210.139095 
L 264.13504 243.799046 
L 264.375169 233.830774 
L 264.495234 238.954978 
L 264.615299 226.195153 
L 264.735363 228.075445 
L 264.855428 242.447416 
L 265.095557 224.799922 
L 265.215621 247.172672 
L 265.335686 230.893158 
L 265.575815 238.632331 
L 265.69588 271.28946 
L 265.815944 234.844496 
L 266.056073 267.790482 
L 266.176138 235.776467 
L 266.416267 239.74727 
L 266.656396 239.661314 
L 266.896525 235.798268 
L 267.01659 208.203212 
L 267.136654 235.694715 
L 267.256719 193.200117 
L 267.496848 244.736467 
L 267.616912 230.98036 
L 267.736977 237.084496 
L 267.857041 224.658219 
L 268.097171 240.276088 
L 268.217235 230.446248 
L 268.3373 242.251212 
L 268.697493 215.665518 
L 268.817558 251.897927 
L 268.937622 210.662307 
L 269.057687 213.670774 
L 269.297816 243.591942 
L 269.417881 229.345324 
L 269.537945 232.942404 
L 269.65801 253.663766 
L 269.778074 236.234277 
L 269.898139 252.94435 
L 270.138268 228.647708 
L 270.258332 239.635153 
L 270.378397 230.380847 
L 270.498462 236.579971 
L 270.618526 258.143766 
L 270.858655 214.542793 
L 270.97872 255.378219 
L 271.218849 211.447124 
L 271.579042 247.483328 
L 271.699107 221.933158 
L 271.939236 250.148438 
L 272.29943 240.504058 
L 272.419494 242.425616 
L 272.539559 238.294423 
L 272.659623 226.860068 
L 272.899753 244.841109 
L 273.019817 215.632818 
L 273.259946 253.859971 
L 273.500075 233.095007 
L 273.62014 232.811601 
L 273.740204 240.079883 
L 274.100398 211.120117 
L 274.220463 236.517684 
L 274.340527 234.424837 
L 274.580656 263.24508 
L 274.700721 246.67235 
L 275.060914 242.349314 
L 275.301044 244.126054 
L 275.421108 280.020555 
L 275.541173 220.112818 
L 275.661237 241.967805 
L 275.781302 243.461139 
L 275.901366 238.523328 
L 276.021431 243.807766 
L 276.141495 243.671358 
L 276.26156 242.634277 
L 276.381625 208.634861 
L 276.501689 226.921109 
L 276.621754 227.127124 
L 276.861883 233.182209 
L 276.981947 225.066978 
L 277.102012 242.480117 
L 277.342141 193.298219 
L 277.462205 261.544642 
L 277.58227 237.051796 
L 277.702335 251.080409 
L 277.942464 218.281577 
L 278.182593 236.234277 
L 278.542786 249.140165 
L 278.662851 225.393985 
L 278.90298 251.342015 
L 279.263174 233.814423 
L 279.383238 244.278657 
L 279.503303 226.227854 
L 279.623367 225.328584 
L 279.743432 227.143474 
L 279.983561 236.724788 
L 280.103626 217.607942 
L 280.22369 228.386102 
L 280.463819 253.271358 
L 280.583884 200.852088 
L 280.703948 242.600019 
L 280.824013 216.025226 
L 281.064142 242.283912 
L 281.184207 225.573839 
L 281.424336 240.289168 
L 281.664465 257.816759 
L 281.904594 230.446248 
L 282.024658 232.555445 
L 282.264788 234.490238 
L 282.384852 228.843912 
L 282.504917 253.663766 
L 282.624981 217.627562 
L 282.86511 253.696467 
L 282.985175 266.547854 
L 283.225304 218.673985 
L 283.345368 251.342015 
L 283.585498 224.363912 
L 283.705562 235.580263 
L 283.825627 225.344934 
L 284.065756 254.154277 
L 284.425949 226.554861 
L 284.546014 231.198365 
L 284.666079 249.996613 
L 284.786143 215.224058 
L 284.906208 233.781723 
L 285.026272 234.99165 
L 285.146337 233.22581 
L 285.266401 221.736954 
L 285.386466 244.780068 
L 285.50653 244.736467 
L 285.626595 242.120409 
L 285.746659 224.036905 
L 285.866724 251.58182 
L 286.106853 227.274277 
L 286.346982 232.179387 
L 286.467047 228.222599 
L 286.587111 239.210044 
L 286.707176 227.813839 
L 286.947305 237.378803 
L 287.187434 223.611796 
L 287.427563 246.477781 
L 287.547628 237.902015 
L 287.667692 238.283523 
L 287.907821 249.924983 
L 288.027886 231.318268 
L 288.147951 235.279416 
L 288.268015 212.59165 
L 288.38808 246.000895 
L 288.508144 236.024993 
L 288.628209 249.020263 
L 288.868338 224.462015 
L 288.988402 256.94474 
L 289.228531 233.389314 
L 289.348596 250.557197 
L 289.468661 229.846735 
L 289.588725 237.830073 
L 289.70879 233.389314 
L 289.828854 235.820068 
L 289.948919 217.709314 
L 290.189048 250.148438 
L 290.549242 225.922647 
L 290.909435 258.536175 
L 291.0295 244.453061 
L 291.269629 241.008584 
L 291.509758 248.627854 
L 291.749887 240.354569 
L 291.869952 234.983474 
L 291.990016 244.093353 
L 292.230145 239.242745 
L 292.35021 229.17092 
L 292.470274 233.356613 
L 292.590339 260.236613 
L 292.830468 211.921285 
L 293.070597 243.493839 
L 293.190662 216.810044 
L 293.430791 265.730336 
L 293.67092 225.443036 
L 293.790984 261.577343 
L 293.911049 224.233109 
L 294.031114 237.585908 
L 294.151178 236.953693 
L 294.271243 237.280701 
L 294.391307 264.880117 
L 294.511372 249.510774 
L 294.751501 259.778803 
L 294.871565 269.719825 
L 294.99163 258.601577 
L 295.111694 228.451504 
L 295.471888 276.063766 
L 295.712017 236.038073 
L 295.832082 243.581041 
L 295.952146 246.306102 
L 296.072211 225.050628 
L 296.31234 247.483328 
L 296.672534 242.349314 
L 296.912663 227.503182 
L 297.032727 237.869314 
L 297.152792 237.673109 
L 297.272856 246.109898 
L 297.392921 230.936759 
L 297.512985 239.994861 
L 297.63305 216.090628 
L 297.753115 241.597197 
L 297.873179 243.232234 
L 297.993244 228.124496 
L 298.233373 234.304934 
L 298.353437 249.837781 
L 298.473502 241.466394 
L 298.593566 221.976759 
L 298.713631 259.408195 
L 299.073825 231.394569 
L 299.193889 242.578219 
L 299.313954 240.877781 
L 299.554083 239.47165 
L 299.794212 245.532185 
L 299.914276 227.208876 
L 300.034341 239.962161 
L 300.394535 231.721577 
L 300.514599 254.154277 
L 300.874793 234.926248 
L 300.994857 234.206832 
L 301.59518 222.369168 
L 301.715245 217.398657 
L 301.835309 264.749314 
L 301.955374 244.40946 
L 302.315568 238.065518 
L 302.555697 223.611796 
L 302.91589 232.702599 
L 303.035955 221.240993 
L 303.156019 251.930628 
L 303.276084 248.497051 
L 303.756342 257.228146 
L 303.996471 269.654423 
L 304.2366 240.768779 
L 304.476729 242.752623 
L 304.596794 238.719533 
L 304.716859 221.061139 
L 304.956988 237.934715 
L 305.077052 225.900847 
L 305.317181 243.166832 
L 305.677375 235.645664 
L 305.797439 225.050628 
L 306.757956 259.582599 
L 306.87802 250.360993 
L 307.11815 223.153985 
L 307.238214 239.722355 
L 307.478343 240.485372 
L 307.598408 220.276321 
L 307.838537 246.66581 
L 307.958601 250.066686 
L 308.198731 249.183766 
L 308.318795 243.755445 
L 308.43886 223.742599 
L 308.558924 241.204788 
L 308.678989 225.443036 
L 308.799053 248.725956 
L 308.919118 249.183766 
L 309.039182 242.382015 
L 309.279311 253.091504 
L 309.519441 232.996905 
L 309.75957 238.981139 
L 310.119763 221.028438 
L 310.239828 241.597197 
L 310.359892 240.485372 
L 310.600022 240.092964 
L 310.720086 245.455883 
L 310.960215 212.035737 
L 311.200344 222.369168 
L 311.680602 229.62873 
L 311.800667 210.858511 
L 312.040796 226.48946 
L 312.40099 229.497927 
L 312.521054 240.485372 
L 312.881248 221.257343 
L 313.001313 236.539484 
L 313.361506 232.440993 
L 313.481571 234.926248 
L 313.601635 189.145226 
L 313.841764 250.622599 
L 314.081893 238.784934 
L 314.201958 252.748146 
L 314.442087 233.291212 
L 314.802281 244.344058 
L 315.04241 244.998073 
L 315.162474 246.829314 
L 315.282539 234.416117 
L 315.522668 232.571796 
L 315.642733 236.561285 
L 316.002926 258.274569 
L 316.243055 242.774423 
L 316.36312 244.801869 
L 317.083507 235.792818 
L 317.323636 224.331212 
L 317.563765 241.400993 
L 317.68383 213.736175 
L 318.044024 246.633109 
L 318.284153 214.782599 
L 318.404217 236.692088 
L 318.524282 234.076029 
L 319.244669 243.624642 
L 319.844992 188.033401 
L 320.205186 229.17092 
L 320.445315 235.122453 
L 320.565379 208.438657 
L 320.685444 240.485372 
L 321.045637 281.16508 
L 321.525896 206.869022 
L 321.766025 241.858803 
L 322.126218 215.829022 
L 322.486412 223.611796 
L 322.606477 248.660555 
L 322.726541 232.015883 
L 322.96667 235.580263 
L 323.206799 236.36508 
L 323.326864 242.970628 
L 323.807122 234.337635 
L 323.927187 248.987562 
L 324.527509 260.694423 
L 324.647574 244.736467 
L 325.007768 233.879825 
L 325.127832 249.903182 
L 325.488026 244.671066 
L 325.848219 234.206832 
L 326.208413 240.027562 
L 327.529123 205.757197 
L 327.769252 250.360993 
L 328.129446 245.717489 
L 328.609704 254.219679 
L 328.729769 240.746978 
L 328.969898 241.597197 
L 329.570221 231.917781 
L 329.690285 226.48946 
L 329.81035 236.201577 
L 330.410672 96.929168 
L 330.650802 251.930628 
L 330.890931 250.033985 
L 331.010995 237.934715 
L 331.731382 245.979095 
L 332.45177 202.356321 
L 332.571834 241.041285 
L 332.691899 177.765372 
L 333.292222 251.897927 
L 333.532351 245.913693 
L 333.892544 224.919825 
L 334.012609 226.620263 
L 334.132673 198.955445 
L 334.372803 255.396905 
L 334.612932 249.052964 
L 334.973125 248.725956 
L 335.213254 240.81238 
L 335.453384 247.287124 
L 336.173771 255.854715 
L 336.533964 239.04654 
L 336.894158 246.240701 
L 337.014223 237.803912 
L 337.254352 257.228146 
L 337.494481 226.424058 
L 337.614545 261.217635 
L 337.854675 227.797489 
L 338.094804 237.803912 
L 338.575062 249.118365 
L 338.695126 227.666686 
L 338.815191 241.161187 
L 338.935256 237.803912 
L 339.175385 245.586686 
L 339.415514 241.090336 
L 339.535578 254.873693 
L 339.775707 214.193985 
L 340.015836 232.702599 
L 340.135901 229.236321 
L 340.37603 198.628438 
L 340.616159 236.103474 
L 340.976353 237.215299 
L 341.096417 217.98727 
L 341.456611 243.657343 
L 341.69674 251.930628 
L 342.056934 228.124496 
L 342.297063 249.903182 
L 342.417127 237.215299 
L 342.537192 246.044496 
L 342.777321 237.019095 
L 343.01745 234.206832 
L 343.137515 183.847708 
L 343.257579 238.261723 
L 343.377644 241.858803 
L 343.497708 235.841869 
L 343.617773 235.841869 
L 343.737838 234.206832 
L 344.218096 224.396613 
L 344.33816 245.194277 
L 344.578289 250.050336 
L 344.818419 215.273109 
L 344.938483 230.914959 
L 345.178612 227.448681 
L 345.418741 252.562842 
L 345.778935 227.862891 
L 345.898999 225.966248 
L 346.139129 235.057051 
L 346.499322 295.488 
L 346.619387 234.337635 
L 346.739451 237.68946 
L 346.859516 248.398949 
L 347.099645 247.810336 
L 347.459839 202.094715 
L 347.579903 243.624642 
L 348.780549 213.474569 
L 349.020678 239.569752 
L 349.140742 235.645664 
L 349.260807 225.966248 
L 349.741065 241.073985 
L 350.941711 238.000117 
L 351.542033 184.894131 
L 352.742679 247.679533 
L 353.943324 203.402745 
L 354.423583 234.533839 
L 354.543647 230.348146 
L 356.584744 198.824642 
L 358.745906 241.139387 
L 359.1061 261.283036 
L 360.066616 269.458219 
L 360.42681 257.228146 
L 362.587972 235.187854 
L 363.548488 236.430482 
L 364.148811 244.86727 
L 364.869198 240.060263 
L 365.469521 226.03165 
L 366.189909 253.631066 
L 366.790231 219.622307 
L 367.510619 268.477197 
L 368.951393 243.101431 
L 369.791845 237.084496 
L 370.392168 241.204788 
L 370.632297 277.633401 
L 370.872426 209.550482 
L 371.112555 247.581431 
L 371.712878 222.107562 
L 371.832942 223.415591 
L 371.953007 247.025518 
L 375.554944 256.247124 
L 376.275331 173.383474 
L 376.755589 237.149898 
L 377.115783 232.440993 
L 377.596041 263.506686 
L 377.716105 248.202745 
L 377.83617 255.069898 
L 377.956235 247.744934 
L 378.556557 241.204788 
L 378.676622 258.73238 
L 379.517074 228.451504 
L 379.637138 245.128876 
L 380.717719 256.901139 
L 382.038429 245.521285 
L 384.559785 238.58873 
L 384.679849 246.927416 
L 384.919978 243.06873 
L 385.040043 237.607708 
L 385.160108 239.962161 
L 385.520301 236.724788 
L 385.880495 238.196321 
L 386.120624 259.778803 
L 386.360753 237.117197 
L 386.480818 208.307854 
L 386.841011 182.212672 
L 386.961076 232.113985 
L 387.201205 268.019387 
L 387.681463 228.059095 
L 387.921592 239.798657 
L 388.521915 262.460263 
L 388.64198 228.647708 
L 389.002173 256.345226 
L 389.242302 239.543591 
L 389.602496 228.974715 
L 389.96269 241.139387 
L 390.082754 254.023474 
L 390.202819 240.485372 
L 390.563012 224.985226 
L 390.803141 243.166832 
L 391.163335 241.466394 
L 391.2834 259.059387 
L 391.403464 235.547562 
L 391.883722 237.280701 
L 392.484045 223.393791 
L 393.084368 273.905518 
L 397.88695 234.076029 
L 398.487273 251.930628 
L 398.487273 251.930628 
" style="fill:none;stroke:#0000ff;stroke-linecap:square;stroke-width:1.5;"/>
   </g>
   <g id="patch_3">
    <path d="M 57.6 307.584 
L 57.6 41.472 
" style="fill:none;stroke:#000000;stroke-linecap:square;stroke-linejoin:miter;stroke-width:0.8;"/>
   </g>
   <g id="patch_4">
    <path d="M 414.72 307.584 
L 414.72 41.472 
" style="fill:none;stroke:#000000;stroke-linecap:square;stroke-linejoin:miter;stroke-width:0.8;"/>
   </g>
   <g id="patch_5">
    <path d="M 57.6 307.584 
L 414.72 307.584 
" style="fill:none;stroke:#000000;stroke-linecap:square;stroke-linejoin:miter;stroke-width:0.8;"/>
   </g>
   <g id="patch_6">
    <path d="M 57.6 41.472 
L 414.72 41.472 
" style="fill:none;stroke:#000000;stroke-linecap:square;stroke-linejoin:miter;stroke-width:0.8;"/>
   </g>
   <g id="text_17">
    <!-- temperature-&gt;ping_day -->
    <g transform="translate(164.131875 35.472)scale(0.12 -0.12)">
     <defs>
      <path d="M 4.890625 31.390625 
L 31.203125 31.390625 
L 31.203125 23.390625 
L 4.890625 23.390625 
z
" id="DejaVuSans-45"/>
      <path d="M 10.59375 49.21875 
L 10.59375 58.109375 
L 73.1875 35.40625 
L 73.1875 27.296875 
L 10.59375 4.59375 
L 10.59375 13.484375 
L 60.890625 31.296875 
z
" id="DejaVuSans-62"/>
     </defs>
     <use xlink:href="#DejaVuSans-116"/>
     <use x="39.208984" xlink:href="#DejaVuSans-101"/>
     <use x="100.732422" xlink:href="#DejaVuSans-109"/>
     <use x="198.144531" xlink:href="#DejaVuSans-112"/>
     <use x="261.621094" xlink:href="#DejaVuSans-101"/>
     <use x="323.144531" xlink:href="#DejaVuSans-114"/>
     <use x="364.257812" xlink:href="#DejaVuSans-97"/>
     <use x="425.537109" xlink:href="#DejaVuSans-116"/>
     <use x="464.746094" xlink:href="#DejaVuSans-117"/>
     <use x="528.125" xlink:href="#DejaVuSans-114"/>
     <use x="566.988281" xlink:href="#DejaVuSans-101"/>
     <use x="628.511719" xlink:href="#DejaVuSans-45"/>
     <use x="664.595703" xlink:href="#DejaVuSans-62"/>
     <use x="748.384766" xlink:href="#DejaVuSans-112"/>
     <use x="811.861328" xlink:href="#DejaVuSans-105"/>
     <use x="839.644531" xlink:href="#DejaVuSans-110"/>
     <use x="903.023438" xlink:href="#DejaVuSans-103"/>
     <use x="966.5" xlink:href="#DejaVuSans-95"/>
     <use x="1016.5" xlink:href="#DejaVuSans-100"/>
     <use x="1079.976562" xlink:href="#DejaVuSans-97"/>
     <use x="1141.255859" xlink:href="#DejaVuSans-121"/>
    </g>
   </g>
  </g>
  <g id="legend_1">
   <g id="patch_7">
    <path d="M 353.839063 22.95625 
L 453.8 22.95625 
Q 455.8 22.95625 455.8 20.95625 
L 455.8 7 
Q 455.8 5 453.8 5 
L 353.839063 5 
Q 351.839063 5 351.839063 7 
L 351.839063 20.95625 
Q 351.839063 22.95625 353.839063 22.95625 
z
" style="fill:#ffffff;opacity:0.8;stroke:#cccccc;stroke-linejoin:miter;"/>
   </g>
   <g id="line2d_16">
    <path d="M 355.839063 13.098437 
L 375.839063 13.098437 
" style="fill:none;stroke:#0000ff;stroke-linecap:square;stroke-width:1.5;"/>
   </g>
   <g id="line2d_17"/>
   <g id="text_18">
    <!-- ping_day[ms] -->
    <g transform="translate(383.839063 16.598437)scale(0.1 -0.1)">
     <use xlink:href="#DejaVuSans-112"/>
     <use x="63.476562" xlink:href="#DejaVuSans-105"/>
     <use x="91.259766" xlink:href="#DejaVuSans-110"/>
     <use x="154.638672" xlink:href="#DejaVuSans-103"/>
     <use x="218.115234" xlink:href="#DejaVuSans-95"/>
     <use x="268.115234" xlink:href="#DejaVuSans-100"/>
     <use x="331.591797" xlink:href="#DejaVuSans-97"/>
     <use x="392.871094" xlink:href="#DejaVuSans-121"/>
     <use x="452.050781" xlink:href="#DejaVuSans-91"/>
     <use x="491.064453" xlink:href="#DejaVuSans-109"/>
     <use x="588.476562" xlink:href="#DejaVuSans-115"/>
     <use x="640.576172" xlink:href="#DejaVuSans-93"/>
    </g>
   </g>
  </g>
 </g>
 <defs>
  <clipPath id="pffa74d213e">
   <rect height="266.112" width="357.12" x="57.6" y="41.472"/>
  </clipPath>
 </defs>
</svg>
