<?xml version="1.0" encoding="utf-8" standalone="no"?>
<!DOCTYPE svg PUBLIC "-//W3C//DTD SVG 1.1//EN"
  "http://www.w3.org/Graphics/SVG/1.1/DTD/svg11.dtd">
<!-- Created with matplotlib (https://matplotlib.org/) -->
<svg height="2090.31625pt" version="1.1" viewBox="0 0 2062.259375 2090.31625" width="2062.259375pt" xmlns="http://www.w3.org/2000/svg" xmlns:xlink="http://www.w3.org/1999/xlink">
 <metadata>
  <rdf:RDF xmlns:cc="http://creativecommons.org/ns#" xmlns:dc="http://purl.org/dc/elements/1.1/" xmlns:rdf="http://www.w3.org/1999/02/22-rdf-syntax-ns#">
   <cc:Work>
    <dc:type rdf:resource="http://purl.org/dc/dcmitype/StillImage"/>
    <dc:date>2022-07-24T11:34:16.028792</dc:date>
    <dc:format>image/svg+xml</dc:format>
    <dc:creator>
     <cc:Agent>
      <dc:title>Matplotlib v3.3.2, https://matplotlib.org/</dc:title>
     </cc:Agent>
    </dc:creator>
   </cc:Work>
  </rdf:RDF>
 </metadata>
 <defs>
  <style type="text/css">*{stroke-linecap:butt;stroke-linejoin:round;}</style>
 </defs>
 <g id="figure_1">
  <g id="patch_1">
   <path d="M 0 2090.31625 
L 2062.259375 2090.31625 
L 2062.259375 0 
L 0 0 
z
" style="fill:#ffffff;"/>
  </g>
  <g id="axes_1">
   <g id="patch_2">
    <path d="M 44.059375 2052.76 
L 1829.659375 2052.76 
L 1829.659375 278.68 
L 44.059375 278.68 
z
" style="fill:#ffffff;"/>
   </g>
   <g id="matplotlib.axis_1">
    <g id="xtick_1">
     <g id="line2d_1">
      <defs>
       <path d="M 0 0 
L 0 3.5 
" id="m1cb4233ba4" style="stroke:#000000;stroke-width:0.8;"/>
      </defs>
      <g>
       <use style="stroke:#000000;stroke-width:0.8;" x="131.442447" xlink:href="#m1cb4233ba4" y="2052.76"/>
      </g>
     </g>
     <g id="text_1">
      <text style="font-family:DejaVu Sans;font-size:10px;font-stretch:normal;font-style:normal;font-weight:normal;text-anchor:middle;" transform="rotate(-0, 131.442447, 2067.358438)" x="131.442447" y="2067.358438">5</text>
     </g>
    </g>
    <g id="xtick_2">
     <g id="line2d_2">
      <g>
       <use style="stroke:#000000;stroke-width:0.8;" x="442.414234" xlink:href="#m1cb4233ba4" y="2052.76"/>
      </g>
     </g>
     <g id="text_2">
      <text style="font-family:DejaVu Sans;font-size:10px;font-stretch:normal;font-style:normal;font-weight:normal;text-anchor:middle;" transform="rotate(-0, 442.414234, 2067.358438)" x="442.414234" y="2067.358438">10</text>
     </g>
    </g>
    <g id="xtick_3">
     <g id="line2d_3">
      <g>
       <use style="stroke:#000000;stroke-width:0.8;" x="753.386021" xlink:href="#m1cb4233ba4" y="2052.76"/>
      </g>
     </g>
     <g id="text_3">
      <text style="font-family:DejaVu Sans;font-size:10px;font-stretch:normal;font-style:normal;font-weight:normal;text-anchor:middle;" transform="rotate(-0, 753.386021, 2067.358438)" x="753.386021" y="2067.358438">15</text>
     </g>
    </g>
    <g id="xtick_4">
     <g id="line2d_4">
      <g>
       <use style="stroke:#000000;stroke-width:0.8;" x="1064.357808" xlink:href="#m1cb4233ba4" y="2052.76"/>
      </g>
     </g>
     <g id="text_4">
      <text style="font-family:DejaVu Sans;font-size:10px;font-stretch:normal;font-style:normal;font-weight:normal;text-anchor:middle;" transform="rotate(-0, 1064.357808, 2067.358438)" x="1064.357808" y="2067.358438">20</text>
     </g>
    </g>
    <g id="xtick_5">
     <g id="line2d_5">
      <g>
       <use style="stroke:#000000;stroke-width:0.8;" x="1375.329594" xlink:href="#m1cb4233ba4" y="2052.76"/>
      </g>
     </g>
     <g id="text_5">
      <text style="font-family:DejaVu Sans;font-size:10px;font-stretch:normal;font-style:normal;font-weight:normal;text-anchor:middle;" transform="rotate(-0, 1375.329594, 2067.358438)" x="1375.329594" y="2067.358438">25</text>
     </g>
    </g>
    <g id="xtick_6">
     <g id="line2d_6">
      <g>
       <use style="stroke:#000000;stroke-width:0.8;" x="1686.301381" xlink:href="#m1cb4233ba4" y="2052.76"/>
      </g>
     </g>
     <g id="text_6">
      <text style="font-family:DejaVu Sans;font-size:10px;font-stretch:normal;font-style:normal;font-weight:normal;text-anchor:middle;" transform="rotate(-0, 1686.301381, 2067.358438)" x="1686.301381" y="2067.358438">30</text>
     </g>
    </g>
    <g id="text_7">
     <text style="font-family:DejaVu Sans;font-size:10px;font-stretch:normal;font-style:normal;font-weight:normal;text-anchor:middle;" transform="rotate(-0, 936.859375, 2081.036562)" x="936.859375" y="2081.036562">temperature from BuienRadar</text>
    </g>
   </g>
   <g id="matplotlib.axis_2">
    <g id="ytick_1">
     <g id="line2d_7">
      <defs>
       <path d="M 0 0 
L -3.5 0 
" id="mfa9027fa29" style="stroke:#000000;stroke-width:0.8;"/>
      </defs>
      <g>
       <use style="stroke:#000000;stroke-width:0.8;" x="44.059375" xlink:href="#mfa9027fa29" y="1996.150258"/>
      </g>
     </g>
     <g id="text_8">
      <text style="font-family:DejaVu Sans;font-size:10px;font-stretch:normal;font-style:normal;font-weight:normal;text-anchor:end;" transform="rotate(-0, 37.059375, 1999.949477)" x="37.059375" y="1999.949477">4.0</text>
     </g>
    </g>
    <g id="ytick_2">
     <g id="line2d_8">
      <g>
       <use style="stroke:#000000;stroke-width:0.8;" x="44.059375" xlink:href="#mfa9027fa29" y="1626.453983"/>
      </g>
     </g>
     <g id="text_9">
      <text style="font-family:DejaVu Sans;font-size:10px;font-stretch:normal;font-style:normal;font-weight:normal;text-anchor:end;" transform="rotate(-0, 37.059375, 1630.253202)" x="37.059375" y="1630.253202">4.2</text>
     </g>
    </g>
    <g id="ytick_3">
     <g id="line2d_9">
      <g>
       <use style="stroke:#000000;stroke-width:0.8;" x="44.059375" xlink:href="#mfa9027fa29" y="1256.757708"/>
      </g>
     </g>
     <g id="text_10">
      <text style="font-family:DejaVu Sans;font-size:10px;font-stretch:normal;font-style:normal;font-weight:normal;text-anchor:end;" transform="rotate(-0, 37.059375, 1260.556926)" x="37.059375" y="1260.556926">4.4</text>
     </g>
    </g>
    <g id="ytick_4">
     <g id="line2d_10">
      <g>
       <use style="stroke:#000000;stroke-width:0.8;" x="44.059375" xlink:href="#mfa9027fa29" y="887.061433"/>
      </g>
     </g>
     <g id="text_11">
      <text style="font-family:DejaVu Sans;font-size:10px;font-stretch:normal;font-style:normal;font-weight:normal;text-anchor:end;" transform="rotate(-0, 37.059375, 890.860651)" x="37.059375" y="890.860651">4.6</text>
     </g>
    </g>
    <g id="ytick_5">
     <g id="line2d_11">
      <g>
       <use style="stroke:#000000;stroke-width:0.8;" x="44.059375" xlink:href="#mfa9027fa29" y="517.365158"/>
      </g>
     </g>
     <g id="text_12">
      <text style="font-family:DejaVu Sans;font-size:10px;font-stretch:normal;font-style:normal;font-weight:normal;text-anchor:end;" transform="rotate(-0, 37.059375, 521.164376)" x="37.059375" y="521.164376">4.8</text>
     </g>
    </g>
    <g id="text_13">
     <text style="font-family:DejaVu Sans;font-size:10px;font-stretch:normal;font-style:normal;font-weight:normal;text-anchor:middle;" transform="rotate(-90, 14.798438, 1165.72)" x="14.798438" y="1165.72">ping_day[ms]</text>
    </g>
   </g>
   <g id="line2d_12">
    <path clip-path="url(#p40a4fe2790)" d="M 125.223011 1501.68149 
L 143.881319 1370.439312 
L 150.100754 1206.848711 
L 156.32019 1213.45043 
L 162.539626 1533.105673 
L 168.759062 1280.787966 
L 174.978497 1103.795874 
L 181.197933 1914.817077 
L 187.417369 1084.84894 
L 193.636804 824.477135 
L 206.075676 1121.202407 
L 212.295112 1196.021891 
L 218.514547 550.268126 
L 230.953419 1472.105788 
L 237.172855 1378.757479 
L 243.39229 1164.333639 
L 249.611726 979.855198 
L 255.831162 1218.86384 
L 262.050598 537.698453 
L 268.270033 1275.242521 
L 274.489469 1059.894441 
L 280.708905 1034.570246 
L 286.928341 994.273352 
L 293.147776 855.021089 
L 299.367212 1135.895464 
L 305.586648 359.32 
L 311.806083 1081.383037 
L 318.025519 1154.166991 
L 324.244955 1271.750946 
L 330.464391 1021.076332 
L 336.683826 1271.261177 
L 342.903262 723.285983 
L 349.122698 1018.611691 
L 355.342134 891.327159 
L 361.561569 1119.549977 
L 367.781005 1107.614447 
L 374.000441 1172.836653 
L 380.219877 1064.298176 
L 386.439312 872.273582 
L 392.658748 1100.032894 
L 398.878184 1004.44 
L 405.09762 1186.251347 
L 411.317055 1038.850192 
L 417.536491 1076.249483 
L 423.755927 1059.325678 
L 429.975362 952.659979 
L 436.194798 1112.840229 
L 442.414234 932.613295 
L 448.63367 895.349785 
L 454.853105 1155.148997 
L 461.072541 1109.61859 
L 467.291977 1062.78642 
L 473.511413 960.16589 
L 479.730848 928.794454 
L 485.950284 971.91553 
L 492.16972 1102.632605 
L 498.389156 1163.184583 
L 504.608591 1033.044064 
L 510.828027 1019.921032 
L 517.047463 988.331805 
L 523.266899 1144.554888 
L 529.486334 889.339793 
L 535.70577 845.321531 
L 541.925206 906.177435 
L 548.144641 925.53723 
L 554.364077 1002.707049 
L 560.583513 874.876545 
L 566.802949 916.6949 
L 573.022384 863.289102 
L 579.24182 1040.169792 
L 585.461256 952.855817 
L 591.680692 748.770981 
L 597.900127 1075.368019 
L 604.119563 861.737238 
L 610.338999 965.608496 
L 622.77787 859.404408 
L 628.997306 774.904225 
L 635.216742 1040.51106 
L 641.436178 1069.3349 
L 647.655613 1033.756915 
L 653.875049 1062.21174 
L 660.094485 944.710946 
L 666.31392 968.301019 
L 672.533356 990.429975 
L 678.752792 993.686815 
L 684.972228 974.890705 
L 691.191663 920.99872 
L 697.411099 908.812741 
L 703.630535 937.505517 
L 709.849971 913.556332 
L 716.069406 1016.853263 
L 722.288842 838.660407 
L 728.508278 1078.379255 
L 734.727714 994.023558 
L 740.947149 959.311952 
L 747.166585 1057.102261 
L 753.386021 1043.415906 
L 759.605457 995.120573 
L 765.824892 915.83103 
L 772.044328 914.940168 
L 778.263764 808.033885 
L 784.483199 983.258222 
L 790.702635 860.566533 
L 796.922071 903.649121 
L 803.141507 750.654381 
L 809.360942 948.438965 
L 815.580378 967.692875 
L 821.799814 868.898094 
L 828.01925 942.562086 
L 834.238685 890.616205 
L 840.458121 935.369383 
L 846.677557 1004.261935 
L 852.896993 899.747852 
L 859.116428 999.158625 
L 865.335864 1005.8542 
L 871.5553 1008.31225 
L 877.774736 975.480458 
L 883.994171 968.815406 
L 890.213607 978.319792 
L 896.433043 1042.333868 
L 902.652478 949.384251 
L 908.871914 942.725929 
L 915.09135 920.56759 
L 921.310786 963.77341 
L 927.530221 927.366825 
L 933.749657 806.229242 
L 939.969093 925.31598 
L 946.188529 983.336504 
L 952.407964 936.869604 
L 958.6274 851.025019 
L 964.846836 1051.057799 
L 971.066272 912.390623 
L 977.285707 898.853469 
L 983.505143 912.185375 
L 989.724579 954.367902 
L 995.944014 958.996166 
L 1002.16345 958.967358 
L 1008.382886 993.527176 
L 1014.602322 1000.632128 
L 1020.821757 973.844775 
L 1027.041193 952.095595 
L 1033.260629 1018.629813 
L 1039.480065 965.473556 
L 1045.6995 1048.980933 
L 1051.918936 957.570728 
L 1058.138372 1099.163924 
L 1064.357808 946.553819 
L 1070.577243 1074.851239 
L 1076.796679 1038.948697 
L 1083.016115 912.04954 
L 1089.235551 1100.573692 
L 1095.454986 958.8358 
L 1101.674422 1086.797882 
L 1107.893858 1085.951543 
L 1114.113293 974.635526 
L 1120.332729 828.724614 
L 1126.552165 776.768711 
L 1132.771601 1067.937833 
L 1138.991036 1001.840573 
L 1145.210472 1090.441181 
L 1151.429908 1102.292356 
L 1157.649344 1080.029685 
L 1163.868779 1107.411286 
L 1170.088215 1006.144711 
L 1176.307651 1058.710765 
L 1182.527087 975.761355 
L 1188.746522 1008.414235 
L 1194.965958 866.797892 
L 1201.185394 1223.321942 
L 1207.40483 1162.369628 
L 1213.624265 1064.452984 
L 1219.843701 1137.966622 
L 1226.063137 956.744882 
L 1232.282572 996.527598 
L 1238.502008 993.319298 
L 1244.721444 1083.28484 
L 1250.94088 1188.685372 
L 1257.160315 1082.618014 
L 1263.379751 895.877267 
L 1269.599187 1021.409059 
L 1275.818623 1096.700967 
L 1282.038058 1091.962792 
L 1288.257494 1126.271727 
L 1294.47693 1009.569536 
L 1300.696366 775.770106 
L 1306.915801 1068.660724 
L 1313.135237 987.341547 
L 1319.354673 994.273352 
L 1325.574109 1164.680229 
L 1331.793544 1198.407312 
L 1338.01298 919.208935 
L 1344.232416 858.178911 
L 1350.451851 914.260516 
L 1356.671287 994.504413 
L 1362.890723 924.295129 
L 1369.110159 1022.103266 
L 1375.329594 979.221433 
L 1381.54903 1152.78063 
L 1387.768466 957.303725 
L 1393.987902 939.024298 
L 1400.207337 1009.843253 
L 1406.426773 1098.437776 
L 1412.646209 1073.700287 
L 1418.865645 884.881173 
L 1425.08508 1157.527867 
L 1431.304516 964.600362 
L 1437.523952 964.657466 
L 1443.743388 1066.125612 
L 1449.962823 1038.77383 
L 1456.182259 1068.674728 
L 1462.401695 937.340126 
L 1468.62113 1216.751289 
L 1474.840566 424.478968 
L 1481.060002 1149.237708 
L 1487.279438 1036.788424 
L 1493.498873 1118.781777 
L 1499.718309 803.351633 
L 1505.937745 1347.795415 
L 1512.157181 1049.727794 
L 1537.034924 1227.798166 
L 1543.254359 934.505788 
L 1568.132102 1654.181203 
L 1574.351538 1192.06086 
L 1586.790409 1972.12 
L 1593.009845 1882.468653 
L 1605.448717 484.092493 
L 1611.668152 1031.24298 
L 1642.765331 1106.106476 
L 1655.204203 1580.704069 
L 1661.423638 1179.12149 
L 1667.643074 1205.000229 
L 1686.301381 1305.61043 
L 1692.520817 1330.696963 
L 1698.740253 1152.31851 
L 1704.959688 960.261295 
L 1717.39856 1216.707278 
L 1723.617996 1082.858268 
L 1729.837431 1366.927198 
L 1736.056867 946.674957 
L 1742.276303 1273.39404 
L 1748.495739 1787.271862 
L 1748.495739 1787.271862 
" style="fill:none;stroke:#0000ff;stroke-linecap:square;stroke-width:1.5;"/>
   </g>
   <g id="patch_3">
    <path d="M 44.059375 2052.76 
L 44.059375 278.68 
" style="fill:none;stroke:#000000;stroke-linecap:square;stroke-linejoin:miter;stroke-width:0.8;"/>
   </g>
   <g id="patch_4">
    <path d="M 1829.659375 2052.76 
L 1829.659375 278.68 
" style="fill:none;stroke:#000000;stroke-linecap:square;stroke-linejoin:miter;stroke-width:0.8;"/>
   </g>
   <g id="patch_5">
    <path d="M 44.059375 2052.76 
L 1829.659375 2052.76 
" style="fill:none;stroke:#000000;stroke-linecap:square;stroke-linejoin:miter;stroke-width:0.8;"/>
   </g>
   <g id="patch_6">
    <path d="M 44.059375 278.68 
L 1829.659375 278.68 
" style="fill:none;stroke:#000000;stroke-linecap:square;stroke-linejoin:miter;stroke-width:0.8;"/>
   </g>
   <g id="text_14">
    <text style="font-family:DejaVu Sans;font-size:12px;font-stretch:normal;font-style:normal;font-weight:normal;text-anchor:middle;" transform="rotate(-0, 936.859375, 272.68)" x="936.859375" y="272.68">temperature-&gt;ping_day</text>
   </g>
  </g>
  <g id="legend_1">
   <g id="patch_7">
    <path d="M 1955.298437 22.95625 
L 2055.259375 22.95625 
Q 2057.259375 22.95625 2057.259375 20.95625 
L 2057.259375 7 
Q 2057.259375 5 2055.259375 5 
L 1955.298437 5 
Q 1953.298437 5 1953.298437 7 
L 1953.298437 20.95625 
Q 1953.298437 22.95625 1955.298437 22.95625 
z
" style="fill:#ffffff;opacity:0.8;stroke:#cccccc;stroke-linejoin:miter;"/>
   </g>
   <g id="line2d_13">
    <path d="M 1957.298437 13.098438 
L 1977.298437 13.098438 
" style="fill:none;stroke:#0000ff;stroke-linecap:square;stroke-width:1.5;"/>
   </g>
   <g id="line2d_14"/>
   <g id="text_15">
    <text style="font-family:DejaVu Sans;font-size:10px;font-stretch:normal;font-style:normal;font-weight:normal;text-anchor:start;" transform="rotate(-0, 1985.298437, 16.598438)" x="1985.298437" y="16.598438">ping_day[ms]</text>
   </g>
  </g>
 </g>
 <defs>
  <clipPath id="p40a4fe2790">
   <rect height="1774.08" width="1785.6" x="44.059375" y="278.68"/>
  </clipPath>
 </defs>
</svg>
