<?xml version="1.0" encoding="utf-8" standalone="no"?>
<!DOCTYPE svg PUBLIC "-//W3C//DTD SVG 1.1//EN"
  "http://www.w3.org/Graphics/SVG/1.1/DTD/svg11.dtd">
<!-- Created with matplotlib (https://matplotlib.org/) -->
<svg height="2090.31625pt" version="1.1" viewBox="0 0 2052.71875 2090.31625" width="2052.71875pt" xmlns="http://www.w3.org/2000/svg" xmlns:xlink="http://www.w3.org/1999/xlink">
 <metadata>
  <rdf:RDF xmlns:cc="http://creativecommons.org/ns#" xmlns:dc="http://purl.org/dc/elements/1.1/" xmlns:rdf="http://www.w3.org/1999/02/22-rdf-syntax-ns#">
   <cc:Work>
    <dc:type rdf:resource="http://purl.org/dc/dcmitype/StillImage"/>
    <dc:date>2022-07-23T21:07:55.764672</dc:date>
    <dc:format>image/svg+xml</dc:format>
    <dc:creator>
     <cc:Agent>
      <dc:title>Matplotlib v3.3.2, https://matplotlib.org/</dc:title>
     </cc:Agent>
    </dc:creator>
   </cc:Work>
  </rdf:RDF>
 </metadata>
 <defs>
  <style type="text/css">*{stroke-linecap:butt;stroke-linejoin:round;}</style>
 </defs>
 <g id="figure_1">
  <g id="patch_1">
   <path d="M 0 2090.31625 
L 2052.71875 2090.31625 
L 2052.71875 0 
L 0 0 
z
" style="fill:#ffffff;"/>
  </g>
  <g id="axes_1">
   <g id="patch_2">
    <path d="M 34.51875 2052.76 
L 1820.11875 2052.76 
L 1820.11875 278.68 
L 34.51875 278.68 
z
" style="fill:#ffffff;"/>
   </g>
   <g id="matplotlib.axis_1">
    <g id="xtick_1">
     <g id="line2d_1">
      <defs>
       <path d="M 0 0 
L 0 3.5 
" id="mee5266267d" style="stroke:#000000;stroke-width:0.8;"/>
      </defs>
      <g>
       <use style="stroke:#000000;stroke-width:0.8;" x="115.682386" xlink:href="#mee5266267d" y="2052.76"/>
      </g>
     </g>
     <g id="text_1">
      <text style="font-family:DejaVu Sans;font-size:10px;font-stretch:normal;font-style:normal;font-weight:normal;text-anchor:middle;" transform="rotate(-0, 115.682386, 2067.358438)" x="115.682386" y="2067.358438">0.0</text>
     </g>
    </g>
    <g id="xtick_2">
     <g id="line2d_2">
      <g>
       <use style="stroke:#000000;stroke-width:0.8;" x="354.398964" xlink:href="#mee5266267d" y="2052.76"/>
      </g>
     </g>
     <g id="text_2">
      <text style="font-family:DejaVu Sans;font-size:10px;font-stretch:normal;font-style:normal;font-weight:normal;text-anchor:middle;" transform="rotate(-0, 354.398964, 2067.358438)" x="354.398964" y="2067.358438">2.5</text>
     </g>
    </g>
    <g id="xtick_3">
     <g id="line2d_3">
      <g>
       <use style="stroke:#000000;stroke-width:0.8;" x="593.115541" xlink:href="#mee5266267d" y="2052.76"/>
      </g>
     </g>
     <g id="text_3">
      <text style="font-family:DejaVu Sans;font-size:10px;font-stretch:normal;font-style:normal;font-weight:normal;text-anchor:middle;" transform="rotate(-0, 593.115541, 2067.358438)" x="593.115541" y="2067.358438">5.0</text>
     </g>
    </g>
    <g id="xtick_4">
     <g id="line2d_4">
      <g>
       <use style="stroke:#000000;stroke-width:0.8;" x="831.832119" xlink:href="#mee5266267d" y="2052.76"/>
      </g>
     </g>
     <g id="text_4">
      <text style="font-family:DejaVu Sans;font-size:10px;font-stretch:normal;font-style:normal;font-weight:normal;text-anchor:middle;" transform="rotate(-0, 831.832119, 2067.358438)" x="831.832119" y="2067.358438">7.5</text>
     </g>
    </g>
    <g id="xtick_5">
     <g id="line2d_5">
      <g>
       <use style="stroke:#000000;stroke-width:0.8;" x="1070.548697" xlink:href="#mee5266267d" y="2052.76"/>
      </g>
     </g>
     <g id="text_5">
      <text style="font-family:DejaVu Sans;font-size:10px;font-stretch:normal;font-style:normal;font-weight:normal;text-anchor:middle;" transform="rotate(-0, 1070.548697, 2067.358438)" x="1070.548697" y="2067.358438">10.0</text>
     </g>
    </g>
    <g id="xtick_6">
     <g id="line2d_6">
      <g>
       <use style="stroke:#000000;stroke-width:0.8;" x="1309.265274" xlink:href="#mee5266267d" y="2052.76"/>
      </g>
     </g>
     <g id="text_6">
      <text style="font-family:DejaVu Sans;font-size:10px;font-stretch:normal;font-style:normal;font-weight:normal;text-anchor:middle;" transform="rotate(-0, 1309.265274, 2067.358438)" x="1309.265274" y="2067.358438">12.5</text>
     </g>
    </g>
    <g id="xtick_7">
     <g id="line2d_7">
      <g>
       <use style="stroke:#000000;stroke-width:0.8;" x="1547.981852" xlink:href="#mee5266267d" y="2052.76"/>
      </g>
     </g>
     <g id="text_7">
      <text style="font-family:DejaVu Sans;font-size:10px;font-stretch:normal;font-style:normal;font-weight:normal;text-anchor:middle;" transform="rotate(-0, 1547.981852, 2067.358438)" x="1547.981852" y="2067.358438">15.0</text>
     </g>
    </g>
    <g id="xtick_8">
     <g id="line2d_8">
      <g>
       <use style="stroke:#000000;stroke-width:0.8;" x="1786.698429" xlink:href="#mee5266267d" y="2052.76"/>
      </g>
     </g>
     <g id="text_8">
      <text style="font-family:DejaVu Sans;font-size:10px;font-stretch:normal;font-style:normal;font-weight:normal;text-anchor:middle;" transform="rotate(-0, 1786.698429, 2067.358438)" x="1786.698429" y="2067.358438">17.5</text>
     </g>
    </g>
    <g id="text_9">
     <text style="font-family:DejaVu Sans;font-size:10px;font-stretch:normal;font-style:normal;font-weight:normal;text-anchor:middle;" transform="rotate(-0, 927.31875, 2081.036562)" x="927.31875" y="2081.036562">rain from Foreca</text>
    </g>
   </g>
   <g id="matplotlib.axis_2">
    <g id="ytick_1">
     <g id="line2d_9">
      <defs>
       <path d="M 0 0 
L -3.5 0 
" id="m55c3478a2f" style="stroke:#000000;stroke-width:0.8;"/>
      </defs>
      <g>
       <use style="stroke:#000000;stroke-width:0.8;" x="34.51875" xlink:href="#m55c3478a2f" y="2033.373689"/>
      </g>
     </g>
     <g id="text_10">
      <text style="font-family:DejaVu Sans;font-size:10px;font-stretch:normal;font-style:normal;font-weight:normal;text-anchor:end;" transform="rotate(-0, 27.51875, 2037.172907)" x="27.51875" y="2037.172907">4</text>
     </g>
    </g>
    <g id="ytick_2">
     <g id="line2d_10">
      <g>
       <use style="stroke:#000000;stroke-width:0.8;" x="34.51875" xlink:href="#m55c3478a2f" y="1712.673748"/>
      </g>
     </g>
     <g id="text_11">
      <text style="font-family:DejaVu Sans;font-size:10px;font-stretch:normal;font-style:normal;font-weight:normal;text-anchor:end;" transform="rotate(-0, 27.51875, 1716.472967)" x="27.51875" y="1716.472967">5</text>
     </g>
    </g>
    <g id="ytick_3">
     <g id="line2d_11">
      <g>
       <use style="stroke:#000000;stroke-width:0.8;" x="34.51875" xlink:href="#m55c3478a2f" y="1391.973808"/>
      </g>
     </g>
     <g id="text_12">
      <text style="font-family:DejaVu Sans;font-size:10px;font-stretch:normal;font-style:normal;font-weight:normal;text-anchor:end;" transform="rotate(-0, 27.51875, 1395.773027)" x="27.51875" y="1395.773027">6</text>
     </g>
    </g>
    <g id="ytick_4">
     <g id="line2d_12">
      <g>
       <use style="stroke:#000000;stroke-width:0.8;" x="34.51875" xlink:href="#m55c3478a2f" y="1071.273868"/>
      </g>
     </g>
     <g id="text_13">
      <text style="font-family:DejaVu Sans;font-size:10px;font-stretch:normal;font-style:normal;font-weight:normal;text-anchor:end;" transform="rotate(-0, 27.51875, 1075.073086)" x="27.51875" y="1075.073086">7</text>
     </g>
    </g>
    <g id="ytick_5">
     <g id="line2d_13">
      <g>
       <use style="stroke:#000000;stroke-width:0.8;" x="34.51875" xlink:href="#m55c3478a2f" y="750.573927"/>
      </g>
     </g>
     <g id="text_14">
      <text style="font-family:DejaVu Sans;font-size:10px;font-stretch:normal;font-style:normal;font-weight:normal;text-anchor:end;" transform="rotate(-0, 27.51875, 754.373146)" x="27.51875" y="754.373146">8</text>
     </g>
    </g>
    <g id="ytick_6">
     <g id="line2d_14">
      <g>
       <use style="stroke:#000000;stroke-width:0.8;" x="34.51875" xlink:href="#m55c3478a2f" y="429.873987"/>
      </g>
     </g>
     <g id="text_15">
      <text style="font-family:DejaVu Sans;font-size:10px;font-stretch:normal;font-style:normal;font-weight:normal;text-anchor:end;" transform="rotate(-0, 27.51875, 433.673206)" x="27.51875" y="433.673206">9</text>
     </g>
    </g>
    <g id="text_16">
     <text style="font-family:DejaVu Sans;font-size:10px;font-stretch:normal;font-style:normal;font-weight:normal;text-anchor:middle;" transform="rotate(-90, 14.798438, 1165.72)" x="14.798438" y="1165.72">ping_day[ms]</text>
    </g>
   </g>
   <g id="line2d_15">
    <path clip-path="url(#p3bf5dbb990)" d="M 115.682386 1866.328939 
L 116.637253 1842.660201 
L 117.592119 1841.864872 
L 118.546985 1861.713971 
L 119.501852 1823.662653 
L 120.456718 1868.098684 
L 121.411584 1823.467942 
L 122.366451 1834.150304 
L 123.321317 1879.378328 
L 124.276183 1878.458738 
L 125.231049 1875.883293 
L 126.185916 1858.099438 
L 127.140782 1824.174245 
L 128.095648 1801.245241 
L 129.050515 1813.881304 
L 130.005381 1843.538189 
L 130.960247 1864.36482 
L 131.915114 1856.001952 
L 132.86998 1906.162712 
L 133.824846 1889.660028 
L 134.779713 1769.295104 
L 135.734579 1829.622327 
L 136.689445 1817.702979 
L 137.644311 1803.218031 
L 138.599178 1895.365814 
L 139.554044 1840.055765 
L 140.50891 1826.393947 
L 141.463777 1876.284168 
L 142.418643 1901.726363 
L 143.373509 1910.331811 
L 144.328376 1866.522256 
L 145.283242 1569.000175 
L 146.238108 1946.731255 
L 147.192975 1902.167326 
L 148.147841 1832.936226 
L 149.102707 1848.907083 
L 150.057574 1848.971223 
L 151.01244 1834.753526 
L 151.967306 1738.067353 
L 152.922172 1891.367755 
L 153.877039 1794.559133 
L 154.831905 1947.105405 
L 155.786771 1844.55269 
L 156.741638 1843.423114 
L 157.696504 1868.961519 
L 158.65137 1877.65096 
L 159.606237 1838.94935 
L 160.561103 1828.446427 
L 161.515969 1728.281145 
L 162.470836 1894.029565 
L 164.380568 1843.479236 
L 165.335434 1833.852511 
L 166.290301 1907.338612 
L 167.245167 1849.772973 
L 168.200033 1829.408527 
L 169.1549 1820.348753 
L 170.109766 1822.124056 
L 171.064632 1847.830956 
L 172.019499 1769.998863 
L 173.929231 1941.412981 
L 174.884098 1913.111211 
L 175.838964 1777.348236 
L 176.79383 1932.433382 
L 177.748697 1908.407612 
L 178.703563 1856.668021 
L 179.658429 1869.175319 
L 180.613295 1871.847819 
L 183.477894 1825.239427 
L 184.432761 1893.411072 
L 186.342493 1829.248177 
L 187.29736 1846.084923 
L 188.252226 1819.787528 
L 189.207092 1835.341475 
L 190.161959 1708.825349 
L 192.071691 1898.198664 
L 193.026557 1945.982955 
L 193.981424 1803.752531 
L 194.93629 1879.437717 
L 195.891156 1828.446427 
L 196.846023 1867.617634 
L 197.800889 1890.501865 
L 198.755755 1709.650006 
L 199.710622 1767.513438 
L 201.620354 1755.11304 
L 202.575221 1882.644717 
L 203.530087 1800.866232 
L 205.43982 1890.58204 
L 206.394686 1859.233621 
L 208.304418 1664.248057 
L 211.169017 1884.889616 
L 213.07875 1874.306518 
L 214.033616 1870.057244 
L 215.943349 1893.976115 
L 216.898215 1924.763309 
L 219.762814 1972.12 
L 222.627413 1839.884725 
L 225.492012 1792.528033 
L 226.446878 1887.695741 
L 229.311477 1784.350185 
L 234.085809 1687.017753 
L 235.040675 1856.454222 
L 242.679606 1925.137459 
L 245.544205 1644.043961 
L 257.0026 1816.420179 
L 258.912333 1926.740958 
L 260.822066 1780.127636 
L 261.776932 1914.714711 
L 266.551263 1814.977029 
L 272.280461 1871.420219 
L 273.235328 1794.612583 
L 274.190194 1897.076214 
L 277.054793 1871.420219 
L 281.829124 1812.73213 
L 282.783991 1727.746645 
L 284.693723 1751.157741 
L 314.294579 1880.560167 
L 320.023777 1827.003277 
L 352.489231 1681.886554 
L 402.142279 1752.440541 
L 459.434258 1830.370626 
L 482.351049 1774.408487 
L 702.925167 1830.370626 
L 713.428697 1884.087866 
L 749.713616 1892.586415 
L 1738.955114 359.32 
L 1738.955114 359.32 
" style="fill:none;stroke:#0000ff;stroke-linecap:square;stroke-width:1.5;"/>
   </g>
   <g id="patch_3">
    <path d="M 34.51875 2052.76 
L 34.51875 278.68 
" style="fill:none;stroke:#000000;stroke-linecap:square;stroke-linejoin:miter;stroke-width:0.8;"/>
   </g>
   <g id="patch_4">
    <path d="M 1820.11875 2052.76 
L 1820.11875 278.68 
" style="fill:none;stroke:#000000;stroke-linecap:square;stroke-linejoin:miter;stroke-width:0.8;"/>
   </g>
   <g id="patch_5">
    <path d="M 34.51875 2052.76 
L 1820.11875 2052.76 
" style="fill:none;stroke:#000000;stroke-linecap:square;stroke-linejoin:miter;stroke-width:0.8;"/>
   </g>
   <g id="patch_6">
    <path d="M 34.51875 278.68 
L 1820.11875 278.68 
" style="fill:none;stroke:#000000;stroke-linecap:square;stroke-linejoin:miter;stroke-width:0.8;"/>
   </g>
   <g id="text_17">
    <text style="font-family:DejaVu Sans;font-size:12px;font-stretch:normal;font-style:normal;font-weight:normal;text-anchor:middle;" transform="rotate(-0, 927.31875, 272.68)" x="927.31875" y="272.68">rain-&gt;ping_day</text>
   </g>
  </g>
  <g id="legend_1">
   <g id="patch_7">
    <path d="M 1945.757812 22.95625 
L 2045.71875 22.95625 
Q 2047.71875 22.95625 2047.71875 20.95625 
L 2047.71875 7 
Q 2047.71875 5 2045.71875 5 
L 1945.757812 5 
Q 1943.757812 5 1943.757812 7 
L 1943.757812 20.95625 
Q 1943.757812 22.95625 1945.757812 22.95625 
z
" style="fill:#ffffff;opacity:0.8;stroke:#cccccc;stroke-linejoin:miter;"/>
   </g>
   <g id="line2d_16">
    <path d="M 1947.757812 13.098438 
L 1967.757812 13.098438 
" style="fill:none;stroke:#0000ff;stroke-linecap:square;stroke-width:1.5;"/>
   </g>
   <g id="line2d_17"/>
   <g id="text_18">
    <text style="font-family:DejaVu Sans;font-size:10px;font-stretch:normal;font-style:normal;font-weight:normal;text-anchor:start;" transform="rotate(-0, 1975.757812, 16.598438)" x="1975.757812" y="16.598438">ping_day[ms]</text>
   </g>
  </g>
 </g>
 <defs>
  <clipPath id="p3bf5dbb990">
   <rect height="1774.08" width="1785.6" x="34.51875" y="278.68"/>
  </clipPath>
 </defs>
</svg>
