<?xml version="1.0" encoding="utf-8" standalone="no"?>
<!DOCTYPE svg PUBLIC "-//W3C//DTD SVG 1.1//EN"
  "http://www.w3.org/Graphics/SVG/1.1/DTD/svg11.dtd">
<svg height="345.6pt" version="1.1" viewBox="0 0 460.8 345.6" width="460.8pt" xmlns="http://www.w3.org/2000/svg" xmlns:xlink="http://www.w3.org/1999/xlink">
 <metadata>
  <rdf:RDF xmlns:cc="http://creativecommons.org/ns#" xmlns:dc="http://purl.org/dc/elements/1.1/" xmlns:rdf="http://www.w3.org/1999/02/22-rdf-syntax-ns#">
   <cc:Work>
    <dc:type rdf:resource="http://purl.org/dc/dcmitype/StillImage"/>
    <dc:date>2022-06-13T13:11:49.220761</dc:date>
    <dc:format>image/svg+xml</dc:format>
    <dc:creator>
     <cc:Agent>
      <dc:title>Matplotlib v3.4.2, https://matplotlib.org/</dc:title>
     </cc:Agent>
    </dc:creator>
   </cc:Work>
  </rdf:RDF>
 </metadata>
 <defs>
  <style type="text/css">*{stroke-linecap:butt;stroke-linejoin:round;}</style>
 </defs>
 <g id="figure_1">
  <g id="patch_1">
   <path d="M 0 345.6 
L 460.8 345.6 
L 460.8 0 
L 0 0 
z
" style="fill:#ffffff;"/>
  </g>
  <g id="axes_1">
   <g id="patch_2">
    <path d="M 57.6 307.584 
L 414.72 307.584 
L 414.72 41.472 
L 57.6 41.472 
z
" style="fill:#ffffff;"/>
   </g>
   <g id="matplotlib.axis_1">
    <g id="xtick_1">
     <g id="line2d_1">
      <defs>
       <path d="M 0 0 
L 0 3.5 
" id="m981cc2a3a8" style="stroke:#000000;stroke-width:0.8;"/>
      </defs>
      <g>
       <use style="stroke:#000000;stroke-width:0.8;" x="88.781942" xlink:href="#m981cc2a3a8" y="307.584"/>
      </g>
     </g>
     <g id="text_1">
      <!-- 995 -->
      <g transform="translate(79.238192 322.182437)scale(0.1 -0.1)">
       <defs>
        <path d="M 703 97 
L 703 672 
Q 941 559 1184 500 
Q 1428 441 1663 441 
Q 2288 441 2617 861 
Q 2947 1281 2994 2138 
Q 2813 1869 2534 1725 
Q 2256 1581 1919 1581 
Q 1219 1581 811 2004 
Q 403 2428 403 3163 
Q 403 3881 828 4315 
Q 1253 4750 1959 4750 
Q 2769 4750 3195 4129 
Q 3622 3509 3622 2328 
Q 3622 1225 3098 567 
Q 2575 -91 1691 -91 
Q 1453 -91 1209 -44 
Q 966 3 703 97 
z
M 1959 2075 
Q 2384 2075 2632 2365 
Q 2881 2656 2881 3163 
Q 2881 3666 2632 3958 
Q 2384 4250 1959 4250 
Q 1534 4250 1286 3958 
Q 1038 3666 1038 3163 
Q 1038 2656 1286 2365 
Q 1534 2075 1959 2075 
z
" id="DejaVuSans-39" transform="scale(0.015625)"/>
        <path d="M 691 4666 
L 3169 4666 
L 3169 4134 
L 1269 4134 
L 1269 2991 
Q 1406 3038 1543 3061 
Q 1681 3084 1819 3084 
Q 2600 3084 3056 2656 
Q 3513 2228 3513 1497 
Q 3513 744 3044 326 
Q 2575 -91 1722 -91 
Q 1428 -91 1123 -41 
Q 819 9 494 109 
L 494 744 
Q 775 591 1075 516 
Q 1375 441 1709 441 
Q 2250 441 2565 725 
Q 2881 1009 2881 1497 
Q 2881 1984 2565 2268 
Q 2250 2553 1709 2553 
Q 1456 2553 1204 2497 
Q 953 2441 691 2322 
L 691 4666 
z
" id="DejaVuSans-35" transform="scale(0.015625)"/>
       </defs>
       <use xlink:href="#DejaVuSans-39"/>
       <use x="63.623047" xlink:href="#DejaVuSans-39"/>
       <use x="127.246094" xlink:href="#DejaVuSans-35"/>
      </g>
     </g>
    </g>
    <g id="xtick_2">
     <g id="line2d_2">
      <g>
       <use style="stroke:#000000;stroke-width:0.8;" x="149.012462" xlink:href="#m981cc2a3a8" y="307.584"/>
      </g>
     </g>
     <g id="text_2">
      <!-- 1000 -->
      <g transform="translate(136.287462 322.182437)scale(0.1 -0.1)">
       <defs>
        <path d="M 794 531 
L 1825 531 
L 1825 4091 
L 703 3866 
L 703 4441 
L 1819 4666 
L 2450 4666 
L 2450 531 
L 3481 531 
L 3481 0 
L 794 0 
L 794 531 
z
" id="DejaVuSans-31" transform="scale(0.015625)"/>
        <path d="M 2034 4250 
Q 1547 4250 1301 3770 
Q 1056 3291 1056 2328 
Q 1056 1369 1301 889 
Q 1547 409 2034 409 
Q 2525 409 2770 889 
Q 3016 1369 3016 2328 
Q 3016 3291 2770 3770 
Q 2525 4250 2034 4250 
z
M 2034 4750 
Q 2819 4750 3233 4129 
Q 3647 3509 3647 2328 
Q 3647 1150 3233 529 
Q 2819 -91 2034 -91 
Q 1250 -91 836 529 
Q 422 1150 422 2328 
Q 422 3509 836 4129 
Q 1250 4750 2034 4750 
z
" id="DejaVuSans-30" transform="scale(0.015625)"/>
       </defs>
       <use xlink:href="#DejaVuSans-31"/>
       <use x="63.623047" xlink:href="#DejaVuSans-30"/>
       <use x="127.246094" xlink:href="#DejaVuSans-30"/>
       <use x="190.869141" xlink:href="#DejaVuSans-30"/>
      </g>
     </g>
    </g>
    <g id="xtick_3">
     <g id="line2d_3">
      <g>
       <use style="stroke:#000000;stroke-width:0.8;" x="209.242981" xlink:href="#m981cc2a3a8" y="307.584"/>
      </g>
     </g>
     <g id="text_3">
      <!-- 1005 -->
      <g transform="translate(196.517981 322.182437)scale(0.1 -0.1)">
       <use xlink:href="#DejaVuSans-31"/>
       <use x="63.623047" xlink:href="#DejaVuSans-30"/>
       <use x="127.246094" xlink:href="#DejaVuSans-30"/>
       <use x="190.869141" xlink:href="#DejaVuSans-35"/>
      </g>
     </g>
    </g>
    <g id="xtick_4">
     <g id="line2d_4">
      <g>
       <use style="stroke:#000000;stroke-width:0.8;" x="269.4735" xlink:href="#m981cc2a3a8" y="307.584"/>
      </g>
     </g>
     <g id="text_4">
      <!-- 1010 -->
      <g transform="translate(256.7485 322.182437)scale(0.1 -0.1)">
       <use xlink:href="#DejaVuSans-31"/>
       <use x="63.623047" xlink:href="#DejaVuSans-30"/>
       <use x="127.246094" xlink:href="#DejaVuSans-31"/>
       <use x="190.869141" xlink:href="#DejaVuSans-30"/>
      </g>
     </g>
    </g>
    <g id="xtick_5">
     <g id="line2d_5">
      <g>
       <use style="stroke:#000000;stroke-width:0.8;" x="329.70402" xlink:href="#m981cc2a3a8" y="307.584"/>
      </g>
     </g>
     <g id="text_5">
      <!-- 1015 -->
      <g transform="translate(316.97902 322.182437)scale(0.1 -0.1)">
       <use xlink:href="#DejaVuSans-31"/>
       <use x="63.623047" xlink:href="#DejaVuSans-30"/>
       <use x="127.246094" xlink:href="#DejaVuSans-31"/>
       <use x="190.869141" xlink:href="#DejaVuSans-35"/>
      </g>
     </g>
    </g>
    <g id="xtick_6">
     <g id="line2d_6">
      <g>
       <use style="stroke:#000000;stroke-width:0.8;" x="389.934539" xlink:href="#m981cc2a3a8" y="307.584"/>
      </g>
     </g>
     <g id="text_6">
      <!-- 1020 -->
      <g transform="translate(377.209539 322.182437)scale(0.1 -0.1)">
       <defs>
        <path d="M 1228 531 
L 3431 531 
L 3431 0 
L 469 0 
L 469 531 
Q 828 903 1448 1529 
Q 2069 2156 2228 2338 
Q 2531 2678 2651 2914 
Q 2772 3150 2772 3378 
Q 2772 3750 2511 3984 
Q 2250 4219 1831 4219 
Q 1534 4219 1204 4116 
Q 875 4013 500 3803 
L 500 4441 
Q 881 4594 1212 4672 
Q 1544 4750 1819 4750 
Q 2544 4750 2975 4387 
Q 3406 4025 3406 3419 
Q 3406 3131 3298 2873 
Q 3191 2616 2906 2266 
Q 2828 2175 2409 1742 
Q 1991 1309 1228 531 
z
" id="DejaVuSans-32" transform="scale(0.015625)"/>
       </defs>
       <use xlink:href="#DejaVuSans-31"/>
       <use x="63.623047" xlink:href="#DejaVuSans-30"/>
       <use x="127.246094" xlink:href="#DejaVuSans-32"/>
       <use x="190.869141" xlink:href="#DejaVuSans-30"/>
      </g>
     </g>
    </g>
    <g id="text_7">
     <!-- air_pressure from WeatherBitIO -->
     <g transform="translate(157.506875 335.860562)scale(0.1 -0.1)">
      <defs>
       <path d="M 2194 1759 
Q 1497 1759 1228 1600 
Q 959 1441 959 1056 
Q 959 750 1161 570 
Q 1363 391 1709 391 
Q 2188 391 2477 730 
Q 2766 1069 2766 1631 
L 2766 1759 
L 2194 1759 
z
M 3341 1997 
L 3341 0 
L 2766 0 
L 2766 531 
Q 2569 213 2275 61 
Q 1981 -91 1556 -91 
Q 1019 -91 701 211 
Q 384 513 384 1019 
Q 384 1609 779 1909 
Q 1175 2209 1959 2209 
L 2766 2209 
L 2766 2266 
Q 2766 2663 2505 2880 
Q 2244 3097 1772 3097 
Q 1472 3097 1187 3025 
Q 903 2953 641 2809 
L 641 3341 
Q 956 3463 1253 3523 
Q 1550 3584 1831 3584 
Q 2591 3584 2966 3190 
Q 3341 2797 3341 1997 
z
" id="DejaVuSans-61" transform="scale(0.015625)"/>
       <path d="M 603 3500 
L 1178 3500 
L 1178 0 
L 603 0 
L 603 3500 
z
M 603 4863 
L 1178 4863 
L 1178 4134 
L 603 4134 
L 603 4863 
z
" id="DejaVuSans-69" transform="scale(0.015625)"/>
       <path d="M 2631 2963 
Q 2534 3019 2420 3045 
Q 2306 3072 2169 3072 
Q 1681 3072 1420 2755 
Q 1159 2438 1159 1844 
L 1159 0 
L 581 0 
L 581 3500 
L 1159 3500 
L 1159 2956 
Q 1341 3275 1631 3429 
Q 1922 3584 2338 3584 
Q 2397 3584 2469 3576 
Q 2541 3569 2628 3553 
L 2631 2963 
z
" id="DejaVuSans-72" transform="scale(0.015625)"/>
       <path d="M 3263 -1063 
L 3263 -1509 
L -63 -1509 
L -63 -1063 
L 3263 -1063 
z
" id="DejaVuSans-5f" transform="scale(0.015625)"/>
       <path d="M 1159 525 
L 1159 -1331 
L 581 -1331 
L 581 3500 
L 1159 3500 
L 1159 2969 
Q 1341 3281 1617 3432 
Q 1894 3584 2278 3584 
Q 2916 3584 3314 3078 
Q 3713 2572 3713 1747 
Q 3713 922 3314 415 
Q 2916 -91 2278 -91 
Q 1894 -91 1617 61 
Q 1341 213 1159 525 
z
M 3116 1747 
Q 3116 2381 2855 2742 
Q 2594 3103 2138 3103 
Q 1681 3103 1420 2742 
Q 1159 2381 1159 1747 
Q 1159 1113 1420 752 
Q 1681 391 2138 391 
Q 2594 391 2855 752 
Q 3116 1113 3116 1747 
z
" id="DejaVuSans-70" transform="scale(0.015625)"/>
       <path d="M 3597 1894 
L 3597 1613 
L 953 1613 
Q 991 1019 1311 708 
Q 1631 397 2203 397 
Q 2534 397 2845 478 
Q 3156 559 3463 722 
L 3463 178 
Q 3153 47 2828 -22 
Q 2503 -91 2169 -91 
Q 1331 -91 842 396 
Q 353 884 353 1716 
Q 353 2575 817 3079 
Q 1281 3584 2069 3584 
Q 2775 3584 3186 3129 
Q 3597 2675 3597 1894 
z
M 3022 2063 
Q 3016 2534 2758 2815 
Q 2500 3097 2075 3097 
Q 1594 3097 1305 2825 
Q 1016 2553 972 2059 
L 3022 2063 
z
" id="DejaVuSans-65" transform="scale(0.015625)"/>
       <path d="M 2834 3397 
L 2834 2853 
Q 2591 2978 2328 3040 
Q 2066 3103 1784 3103 
Q 1356 3103 1142 2972 
Q 928 2841 928 2578 
Q 928 2378 1081 2264 
Q 1234 2150 1697 2047 
L 1894 2003 
Q 2506 1872 2764 1633 
Q 3022 1394 3022 966 
Q 3022 478 2636 193 
Q 2250 -91 1575 -91 
Q 1294 -91 989 -36 
Q 684 19 347 128 
L 347 722 
Q 666 556 975 473 
Q 1284 391 1588 391 
Q 1994 391 2212 530 
Q 2431 669 2431 922 
Q 2431 1156 2273 1281 
Q 2116 1406 1581 1522 
L 1381 1569 
Q 847 1681 609 1914 
Q 372 2147 372 2553 
Q 372 3047 722 3315 
Q 1072 3584 1716 3584 
Q 2034 3584 2315 3537 
Q 2597 3491 2834 3397 
z
" id="DejaVuSans-73" transform="scale(0.015625)"/>
       <path d="M 544 1381 
L 544 3500 
L 1119 3500 
L 1119 1403 
Q 1119 906 1312 657 
Q 1506 409 1894 409 
Q 2359 409 2629 706 
Q 2900 1003 2900 1516 
L 2900 3500 
L 3475 3500 
L 3475 0 
L 2900 0 
L 2900 538 
Q 2691 219 2414 64 
Q 2138 -91 1772 -91 
Q 1169 -91 856 284 
Q 544 659 544 1381 
z
M 1991 3584 
L 1991 3584 
z
" id="DejaVuSans-75" transform="scale(0.015625)"/>
       <path id="DejaVuSans-20" transform="scale(0.015625)"/>
       <path d="M 2375 4863 
L 2375 4384 
L 1825 4384 
Q 1516 4384 1395 4259 
Q 1275 4134 1275 3809 
L 1275 3500 
L 2222 3500 
L 2222 3053 
L 1275 3053 
L 1275 0 
L 697 0 
L 697 3053 
L 147 3053 
L 147 3500 
L 697 3500 
L 697 3744 
Q 697 4328 969 4595 
Q 1241 4863 1831 4863 
L 2375 4863 
z
" id="DejaVuSans-66" transform="scale(0.015625)"/>
       <path d="M 1959 3097 
Q 1497 3097 1228 2736 
Q 959 2375 959 1747 
Q 959 1119 1226 758 
Q 1494 397 1959 397 
Q 2419 397 2687 759 
Q 2956 1122 2956 1747 
Q 2956 2369 2687 2733 
Q 2419 3097 1959 3097 
z
M 1959 3584 
Q 2709 3584 3137 3096 
Q 3566 2609 3566 1747 
Q 3566 888 3137 398 
Q 2709 -91 1959 -91 
Q 1206 -91 779 398 
Q 353 888 353 1747 
Q 353 2609 779 3096 
Q 1206 3584 1959 3584 
z
" id="DejaVuSans-6f" transform="scale(0.015625)"/>
       <path d="M 3328 2828 
Q 3544 3216 3844 3400 
Q 4144 3584 4550 3584 
Q 5097 3584 5394 3201 
Q 5691 2819 5691 2113 
L 5691 0 
L 5113 0 
L 5113 2094 
Q 5113 2597 4934 2840 
Q 4756 3084 4391 3084 
Q 3944 3084 3684 2787 
Q 3425 2491 3425 1978 
L 3425 0 
L 2847 0 
L 2847 2094 
Q 2847 2600 2669 2842 
Q 2491 3084 2119 3084 
Q 1678 3084 1418 2786 
Q 1159 2488 1159 1978 
L 1159 0 
L 581 0 
L 581 3500 
L 1159 3500 
L 1159 2956 
Q 1356 3278 1631 3431 
Q 1906 3584 2284 3584 
Q 2666 3584 2933 3390 
Q 3200 3197 3328 2828 
z
" id="DejaVuSans-6d" transform="scale(0.015625)"/>
       <path d="M 213 4666 
L 850 4666 
L 1831 722 
L 2809 4666 
L 3519 4666 
L 4500 722 
L 5478 4666 
L 6119 4666 
L 4947 0 
L 4153 0 
L 3169 4050 
L 2175 0 
L 1381 0 
L 213 4666 
z
" id="DejaVuSans-57" transform="scale(0.015625)"/>
       <path d="M 1172 4494 
L 1172 3500 
L 2356 3500 
L 2356 3053 
L 1172 3053 
L 1172 1153 
Q 1172 725 1289 603 
Q 1406 481 1766 481 
L 2356 481 
L 2356 0 
L 1766 0 
Q 1100 0 847 248 
Q 594 497 594 1153 
L 594 3053 
L 172 3053 
L 172 3500 
L 594 3500 
L 594 4494 
L 1172 4494 
z
" id="DejaVuSans-74" transform="scale(0.015625)"/>
       <path d="M 3513 2113 
L 3513 0 
L 2938 0 
L 2938 2094 
Q 2938 2591 2744 2837 
Q 2550 3084 2163 3084 
Q 1697 3084 1428 2787 
Q 1159 2491 1159 1978 
L 1159 0 
L 581 0 
L 581 4863 
L 1159 4863 
L 1159 2956 
Q 1366 3272 1645 3428 
Q 1925 3584 2291 3584 
Q 2894 3584 3203 3211 
Q 3513 2838 3513 2113 
z
" id="DejaVuSans-68" transform="scale(0.015625)"/>
       <path d="M 1259 2228 
L 1259 519 
L 2272 519 
Q 2781 519 3026 730 
Q 3272 941 3272 1375 
Q 3272 1813 3026 2020 
Q 2781 2228 2272 2228 
L 1259 2228 
z
M 1259 4147 
L 1259 2741 
L 2194 2741 
Q 2656 2741 2882 2914 
Q 3109 3088 3109 3444 
Q 3109 3797 2882 3972 
Q 2656 4147 2194 4147 
L 1259 4147 
z
M 628 4666 
L 2241 4666 
Q 2963 4666 3353 4366 
Q 3744 4066 3744 3513 
Q 3744 3084 3544 2831 
Q 3344 2578 2956 2516 
Q 3422 2416 3680 2098 
Q 3938 1781 3938 1306 
Q 3938 681 3513 340 
Q 3088 0 2303 0 
L 628 0 
L 628 4666 
z
" id="DejaVuSans-42" transform="scale(0.015625)"/>
       <path d="M 628 4666 
L 1259 4666 
L 1259 0 
L 628 0 
L 628 4666 
z
" id="DejaVuSans-49" transform="scale(0.015625)"/>
       <path d="M 2522 4238 
Q 1834 4238 1429 3725 
Q 1025 3213 1025 2328 
Q 1025 1447 1429 934 
Q 1834 422 2522 422 
Q 3209 422 3611 934 
Q 4013 1447 4013 2328 
Q 4013 3213 3611 3725 
Q 3209 4238 2522 4238 
z
M 2522 4750 
Q 3503 4750 4090 4092 
Q 4678 3434 4678 2328 
Q 4678 1225 4090 567 
Q 3503 -91 2522 -91 
Q 1538 -91 948 565 
Q 359 1222 359 2328 
Q 359 3434 948 4092 
Q 1538 4750 2522 4750 
z
" id="DejaVuSans-4f" transform="scale(0.015625)"/>
      </defs>
      <use xlink:href="#DejaVuSans-61"/>
      <use x="61.279297" xlink:href="#DejaVuSans-69"/>
      <use x="89.0625" xlink:href="#DejaVuSans-72"/>
      <use x="130.175781" xlink:href="#DejaVuSans-5f"/>
      <use x="180.175781" xlink:href="#DejaVuSans-70"/>
      <use x="243.652344" xlink:href="#DejaVuSans-72"/>
      <use x="282.515625" xlink:href="#DejaVuSans-65"/>
      <use x="344.039062" xlink:href="#DejaVuSans-73"/>
      <use x="396.138672" xlink:href="#DejaVuSans-73"/>
      <use x="448.238281" xlink:href="#DejaVuSans-75"/>
      <use x="511.617188" xlink:href="#DejaVuSans-72"/>
      <use x="550.480469" xlink:href="#DejaVuSans-65"/>
      <use x="612.003906" xlink:href="#DejaVuSans-20"/>
      <use x="643.791016" xlink:href="#DejaVuSans-66"/>
      <use x="678.996094" xlink:href="#DejaVuSans-72"/>
      <use x="717.859375" xlink:href="#DejaVuSans-6f"/>
      <use x="779.041016" xlink:href="#DejaVuSans-6d"/>
      <use x="876.453125" xlink:href="#DejaVuSans-20"/>
      <use x="908.240234" xlink:href="#DejaVuSans-57"/>
      <use x="1001.242188" xlink:href="#DejaVuSans-65"/>
      <use x="1062.765625" xlink:href="#DejaVuSans-61"/>
      <use x="1124.044922" xlink:href="#DejaVuSans-74"/>
      <use x="1163.253906" xlink:href="#DejaVuSans-68"/>
      <use x="1226.632812" xlink:href="#DejaVuSans-65"/>
      <use x="1288.15625" xlink:href="#DejaVuSans-72"/>
      <use x="1329.269531" xlink:href="#DejaVuSans-42"/>
      <use x="1397.873047" xlink:href="#DejaVuSans-69"/>
      <use x="1425.65625" xlink:href="#DejaVuSans-74"/>
      <use x="1464.865234" xlink:href="#DejaVuSans-49"/>
      <use x="1494.357422" xlink:href="#DejaVuSans-4f"/>
     </g>
    </g>
   </g>
   <g id="matplotlib.axis_2">
    <g id="ytick_1">
     <g id="line2d_7">
      <defs>
       <path d="M 0 0 
L -3.5 0 
" id="m8874ff9638" style="stroke:#000000;stroke-width:0.8;"/>
      </defs>
      <g>
       <use style="stroke:#000000;stroke-width:0.8;" x="57.6" xlink:href="#m8874ff9638" y="298.750079"/>
      </g>
     </g>
     <g id="text_8">
      <!-- 4.0 -->
      <g transform="translate(34.696875 302.549298)scale(0.1 -0.1)">
       <defs>
        <path d="M 2419 4116 
L 825 1625 
L 2419 1625 
L 2419 4116 
z
M 2253 4666 
L 3047 4666 
L 3047 1625 
L 3713 1625 
L 3713 1100 
L 3047 1100 
L 3047 0 
L 2419 0 
L 2419 1100 
L 313 1100 
L 313 1709 
L 2253 4666 
z
" id="DejaVuSans-34" transform="scale(0.015625)"/>
        <path d="M 684 794 
L 1344 794 
L 1344 0 
L 684 0 
L 684 794 
z
" id="DejaVuSans-2e" transform="scale(0.015625)"/>
       </defs>
       <use xlink:href="#DejaVuSans-34"/>
       <use x="63.623047" xlink:href="#DejaVuSans-2e"/>
       <use x="95.410156" xlink:href="#DejaVuSans-30"/>
      </g>
     </g>
    </g>
    <g id="ytick_2">
     <g id="line2d_8">
      <g>
       <use style="stroke:#000000;stroke-width:0.8;" x="57.6" xlink:href="#m8874ff9638" y="246.135899"/>
      </g>
     </g>
     <g id="text_9">
      <!-- 4.5 -->
      <g transform="translate(34.696875 249.935118)scale(0.1 -0.1)">
       <use xlink:href="#DejaVuSans-34"/>
       <use x="63.623047" xlink:href="#DejaVuSans-2e"/>
       <use x="95.410156" xlink:href="#DejaVuSans-35"/>
      </g>
     </g>
    </g>
    <g id="ytick_3">
     <g id="line2d_9">
      <g>
       <use style="stroke:#000000;stroke-width:0.8;" x="57.6" xlink:href="#m8874ff9638" y="193.521719"/>
      </g>
     </g>
     <g id="text_10">
      <!-- 5.0 -->
      <g transform="translate(34.696875 197.320938)scale(0.1 -0.1)">
       <use xlink:href="#DejaVuSans-35"/>
       <use x="63.623047" xlink:href="#DejaVuSans-2e"/>
       <use x="95.410156" xlink:href="#DejaVuSans-30"/>
      </g>
     </g>
    </g>
    <g id="ytick_4">
     <g id="line2d_10">
      <g>
       <use style="stroke:#000000;stroke-width:0.8;" x="57.6" xlink:href="#m8874ff9638" y="140.907539"/>
      </g>
     </g>
     <g id="text_11">
      <!-- 5.5 -->
      <g transform="translate(34.696875 144.706758)scale(0.1 -0.1)">
       <use xlink:href="#DejaVuSans-35"/>
       <use x="63.623047" xlink:href="#DejaVuSans-2e"/>
       <use x="95.410156" xlink:href="#DejaVuSans-35"/>
      </g>
     </g>
    </g>
    <g id="ytick_5">
     <g id="line2d_11">
      <g>
       <use style="stroke:#000000;stroke-width:0.8;" x="57.6" xlink:href="#m8874ff9638" y="88.293359"/>
      </g>
     </g>
     <g id="text_12">
      <!-- 6.0 -->
      <g transform="translate(34.696875 92.092578)scale(0.1 -0.1)">
       <defs>
        <path d="M 2113 2584 
Q 1688 2584 1439 2293 
Q 1191 2003 1191 1497 
Q 1191 994 1439 701 
Q 1688 409 2113 409 
Q 2538 409 2786 701 
Q 3034 994 3034 1497 
Q 3034 2003 2786 2293 
Q 2538 2584 2113 2584 
z
M 3366 4563 
L 3366 3988 
Q 3128 4100 2886 4159 
Q 2644 4219 2406 4219 
Q 1781 4219 1451 3797 
Q 1122 3375 1075 2522 
Q 1259 2794 1537 2939 
Q 1816 3084 2150 3084 
Q 2853 3084 3261 2657 
Q 3669 2231 3669 1497 
Q 3669 778 3244 343 
Q 2819 -91 2113 -91 
Q 1303 -91 875 529 
Q 447 1150 447 2328 
Q 447 3434 972 4092 
Q 1497 4750 2381 4750 
Q 2619 4750 2861 4703 
Q 3103 4656 3366 4563 
z
" id="DejaVuSans-36" transform="scale(0.015625)"/>
       </defs>
       <use xlink:href="#DejaVuSans-36"/>
       <use x="63.623047" xlink:href="#DejaVuSans-2e"/>
       <use x="95.410156" xlink:href="#DejaVuSans-30"/>
      </g>
     </g>
    </g>
   </g>
   <g id="line2d_12">
    <path clip-path="url(#pe51749a82c)" d="M 73.832727 223.377875 
L 76.603331 254.273559 
L 83.68644 238.7173 
L 85.336756 239.249288 
L 89.697446 251.18686 
L 99.647528 253.396656 
L 114.199221 247.045373 
L 127.028322 264.65609 
L 127.28129 236.507504 
L 129.365266 245.58345 
L 137.665032 235.139535 
L 138.219152 248.83676 
L 140.544051 232.132433 
L 144.181974 243.278544 
L 149.855689 246.315406 
L 152.023988 232.421136 
L 159.974416 236.981032 
L 165.154241 240.094037 
L 166.23839 236.393507 
L 166.479312 245.390532 
L 172.140981 242.47719 
L 172.863747 251.741701 
L 180.09141 229.968996 
L 182.982474 229.347928 
L 189.125987 253.674076 
L 193.101202 226.844033 
L 196.474111 222.933046 
L 196.715033 239.830292 
L 198.281026 248.345695 
L 202.256241 243.589373 
L 203.099468 222.995226 
L 206.110994 238.199927 
L 209.12252 237.551019 
L 217.072948 232.421136 
L 222.493695 231.328766 
L 232.491961 225.160379 
L 238.033169 230.325338 
L 242.369767 217.312097 
L 244.538065 230.078051 
L 252.970338 244.557474 
L 256.222786 247.283845 
L 263.570909 247.503868 
L 266.823357 251.239475 
L 269.834883 250.157961 
L 270.196266 212.386294 
L 272.485026 235.507835 
L 272.846409 199.740715 
L 273.087331 248.706478 
L 274.171481 231.439005 
L 275.978396 295.488 
L 276.580702 220.460179 
L 276.821624 241.690001 
L 278.387617 214.725234 
L 279.230844 248.653285 
L 279.471766 253.838615 
L 279.953611 247.463633 
L 280.796838 244.750392 
L 281.03776 237.296717 
L 281.399143 210.875629 
L 281.760526 243.252642 
L 282.001448 205.967364 
L 282.844676 230.071036 
L 283.206059 212.04191 
L 283.928825 237.980701 
L 284.53113 221.126625 
L 285.012974 246.556813 
L 285.494818 229.053829 
L 285.73574 239.993194 
L 285.856202 223.503033 
L 286.097124 258.637028 
L 286.217585 255.116735 
L 286.81989 259.570053 
L 287.301734 255.045234 
L 287.542656 244.011288 
L 287.663117 246.910762 
L 287.904039 214.614159 
L 288.0245 213.269575 
L 288.144961 223.082119 
L 288.265422 255.466147 
L 288.385883 222.015221 
L 288.867727 247.837091 
L 288.988189 235.412173 
L 289.10865 241.69877 
L 289.831416 233.744353 
L 289.951877 234.07511 
L 290.31326 256.763963 
L 290.554182 236.630271 
L 290.795104 247.899859 
L 291.036026 239.160136 
L 291.156487 229.499295 
L 291.638331 262.481371 
L 291.999714 249.029679 
L 292.361098 192.356691 
L 292.60202 248.249235 
L 292.722481 234.900748 
L 292.963403 234.321624 
L 293.204325 241.898704 
L 293.565708 243.198655 
L 293.686169 238.239388 
L 294.168013 236.409792 
L 294.529396 246.825326 
L 294.649857 237.419483 
L 294.890779 53.568 
L 295.252163 248.575284 
L 295.493085 238.854097 
L 295.734007 241.56057 
L 295.854468 244.355786 
L 296.09539 258.587922 
L 296.215851 238.524381 
L 296.938617 236.314585 
L 297.059078 244.183328 
L 297.902305 247.398639 
L 298.38415 247.626634 
L 298.865994 215.522541 
L 299.106916 256.542984 
L 299.227377 224.439724 
L 299.468299 224.942907 
L 300.431987 225.015064 
L 300.672909 227.580632 
L 300.79337 256.123824 
L 301.154753 243.917334 
L 301.516137 247.913089 
L 302.118442 252.660057 
L 302.720747 230.541056 
L 302.841208 231.745921 
L 303.323052 238.783067 
L 303.443513 234.196527 
L 303.563974 257.219953 
L 303.804896 247.617865 
L 304.527663 226.678219 
L 304.768585 255.198692 
L 306.334578 218.46084 
L 306.936883 248.170314 
L 307.418727 264.573411 
L 308.261955 266.106739 
L 308.86426 249.880275 
L 310.430253 224.564085 
L 310.550714 203.962711 
L 311.032559 258.184546 
L 311.15302 243.119353 
L 311.393942 227.899824 
L 311.514403 205.517752 
L 312.237169 282.790445 
L 313.080396 241.225242 
L 314.285007 242.405075 
L 314.405468 202.137291 
L 314.64639 227.395229 
L 317.055611 251.373933 
L 318.13976 268.268931 
L 320.308059 244.732854 
L 320.910364 164.39977 
L 321.151286 249.345364 
L 321.753591 231.892489 
L 323.560507 201.624303 
L 324.042351 257.851323 
L 325.608344 239.726535 
L 326.090188 244.168129 
L 327.294799 221.504368 
L 327.41526 238.50206 
L 328.258487 226.537117 
L 329.944942 236.017788 
L 330.547247 229.55191 
L 330.90863 217.513785 
L 331.390474 253.849138 
L 332.595085 241.565982 
L 333.19739 231.522311 
L 333.920156 217.583937 
L 334.763383 211.23516 
L 335.004305 233.603201 
L 335.365688 252.528522 
L 336.088455 236.269193 
L 336.329377 249.164137 
L 336.570299 231.193472 
L 337.293065 251.221936 
L 337.89537 220.63556 
L 338.136292 241.989902 
L 338.859059 249.098077 
L 339.461364 193.521719 
L 339.581825 226.259431 
L 340.545513 259.447287 
L 340.786435 221.617691 
L 341.268279 244.197943 
L 342.231968 243.957053 
L 342.593351 240.821867 
L 343.075195 240.300508 
L 343.195656 242.265834 
L 343.436578 235.297378 
L 343.557039 254.585736 
L 344.038883 241.620646 
L 345.243494 242.256175 
L 345.363955 186.404455 
L 346.448104 245.269789 
L 346.689026 238.208696 
L 346.929948 247.285317 
L 347.050409 248.494768 
L 347.17087 260.446956 
L 347.532253 223.143502 
L 347.893636 246.530505 
L 348.977786 238.598225 
L 349.218708 209.018987 
L 349.580091 241.362358 
L 349.821013 241.505851 
L 349.941474 240.398448 
L 350.061935 242.715977 
L 350.423318 244.053881 
L 350.905162 219.863885 
L 351.025623 222.669975 
L 351.989312 233.613724 
L 352.230234 244.711809 
L 352.712078 239.094368 
L 353.193922 245.03977 
L 353.555305 216.286121 
L 354.15761 256.816578 
L 355.121299 228.878448 
L 355.964526 220.881093 
L 356.687292 254.477638 
L 356.807753 232.869031 
L 356.928214 235.402606 
L 357.289597 232.517595 
L 357.53052 217.019212 
L 358.012364 209.384894 
L 358.132825 151.911419 
L 358.253286 239.095165 
L 358.855591 254.601999 
L 360.421584 238.913407 
L 360.542046 245.676721 
L 360.782968 246.937254 
L 361.264812 228.352306 
L 361.505734 256.334956 
L 361.746656 247.408206 
L 361.867117 225.405912 
L 361.987578 255.9891 
L 362.2285 243.604572 
L 362.469422 255.387226 
L 362.589883 227.343868 
L 362.830805 279.317909 
L 363.43311 237.410714 
L 363.794494 293.59389 
L 363.914955 251.141763 
L 364.155877 229.843041 
L 364.276338 259.510424 
L 364.396799 235.937166 
L 364.51726 242.277526 
L 364.637721 256.437756 
L 364.999104 219.558875 
L 365.119565 254.286314 
L 365.480948 216.74211 
L 365.962792 241.146321 
L 366.083253 233.338512 
L 366.324175 235.121997 
L 366.685559 246.762885 
L 367.046942 235.638117 
L 367.528786 263.39335 
L 367.890169 255.88706 
L 368.01063 259.228061 
L 368.131091 232.210679 
L 368.251552 243.294733 
L 368.492474 227.984007 
L 368.733396 246.985242 
L 368.974318 257.15857 
L 369.21524 225.079704 
L 369.335701 226.802579 
L 369.456162 239.401284 
L 369.697084 238.601548 
L 369.817546 255.405561 
L 369.938007 240.654458 
L 370.29939 247.055673 
L 370.419851 244.375716 
L 370.781234 263.75288 
L 370.901695 231.111628 
L 371.022156 244.808403 
L 371.142617 245.451915 
L 371.624461 253.501884 
L 371.744922 235.608679 
L 372.347227 246.346356 
L 373.190455 240.970143 
L 373.431377 249.848957 
L 373.913221 246.097634 
L 374.154143 223.320477 
L 374.395065 248.443908 
L 374.515526 238.349 
L 374.756448 255.122401 
L 375.720136 247.57402 
L 376.201981 251.96555 
L 376.563364 235.724868 
L 376.683825 236.016438 
L 376.924747 239.801152 
L 377.888435 249.994272 
L 378.008896 222.049127 
L 378.370279 250.126482 
L 378.611201 250.440696 
L 379.213507 236.840727 
L 379.333968 242.400292 
L 379.57489 222.249061 
L 379.695351 246.258666 
L 379.936273 254.908118 
L 380.056734 250.961371 
L 380.659039 245.683807 
L 381.140883 219.430445 
L 381.381805 232.245756 
L 381.622727 182.588492 
L 381.743188 243.461345 
L 381.863649 237.859144 
L 382.586416 229.815937 
L 382.947799 244.318318 
L 383.429643 238.664686 
L 383.550104 257.675943 
L 383.791026 241.190166 
L 383.911487 264.435111 
L 384.27287 204.202398 
L 385.236558 245.151262 
L 385.597942 232.719283 
L 385.718403 241.562513 
L 386.079786 279.317909 
L 386.441169 233.670386 
L 386.682091 253.87603 
L 387.886701 239.26098 
L 388.248084 230.092621 
L 388.489007 234.701084 
L 388.609468 210.77917 
L 389.091312 239.130697 
L 389.332234 232.504779 
L 390.175461 250.625642 
L 390.295922 240.751715 
L 392.34376 247.015991 
L 392.464221 262.323528 
L 392.946065 241.751384 
L 393.427909 245.554638 
L 394.752981 247.188183 
L 394.993903 243.891027 
L 396.078052 248.61686 
L 396.680357 253.234766 
L 396.921279 242.866304 
L 398.005429 252.639012 
L 398.487273 237.321 
L 398.487273 237.321 
" style="fill:none;stroke:#0000ff;stroke-linecap:square;stroke-width:1.5;"/>
   </g>
   <g id="patch_3">
    <path d="M 57.6 307.584 
L 57.6 41.472 
" style="fill:none;stroke:#000000;stroke-linecap:square;stroke-linejoin:miter;stroke-width:0.8;"/>
   </g>
   <g id="patch_4">
    <path d="M 414.72 307.584 
L 414.72 41.472 
" style="fill:none;stroke:#000000;stroke-linecap:square;stroke-linejoin:miter;stroke-width:0.8;"/>
   </g>
   <g id="patch_5">
    <path d="M 57.6 307.584 
L 414.72 307.584 
" style="fill:none;stroke:#000000;stroke-linecap:square;stroke-linejoin:miter;stroke-width:0.8;"/>
   </g>
   <g id="patch_6">
    <path d="M 57.6 41.472 
L 414.72 41.472 
" style="fill:none;stroke:#000000;stroke-linecap:square;stroke-linejoin:miter;stroke-width:0.8;"/>
   </g>
   <g id="text_13">
    <!-- air_pressure-&gt;ping_day -->
    <g transform="translate(165.122813 35.472)scale(0.12 -0.12)">
     <defs>
      <path d="M 313 2009 
L 1997 2009 
L 1997 1497 
L 313 1497 
L 313 2009 
z
" id="DejaVuSans-2d" transform="scale(0.015625)"/>
      <path d="M 678 3150 
L 678 3719 
L 4684 2266 
L 4684 1747 
L 678 294 
L 678 863 
L 3897 2003 
L 678 3150 
z
" id="DejaVuSans-3e" transform="scale(0.015625)"/>
      <path d="M 3513 2113 
L 3513 0 
L 2938 0 
L 2938 2094 
Q 2938 2591 2744 2837 
Q 2550 3084 2163 3084 
Q 1697 3084 1428 2787 
Q 1159 2491 1159 1978 
L 1159 0 
L 581 0 
L 581 3500 
L 1159 3500 
L 1159 2956 
Q 1366 3272 1645 3428 
Q 1925 3584 2291 3584 
Q 2894 3584 3203 3211 
Q 3513 2838 3513 2113 
z
" id="DejaVuSans-6e" transform="scale(0.015625)"/>
      <path d="M 2906 1791 
Q 2906 2416 2648 2759 
Q 2391 3103 1925 3103 
Q 1463 3103 1205 2759 
Q 947 2416 947 1791 
Q 947 1169 1205 825 
Q 1463 481 1925 481 
Q 2391 481 2648 825 
Q 2906 1169 2906 1791 
z
M 3481 434 
Q 3481 -459 3084 -895 
Q 2688 -1331 1869 -1331 
Q 1566 -1331 1297 -1286 
Q 1028 -1241 775 -1147 
L 775 -588 
Q 1028 -725 1275 -790 
Q 1522 -856 1778 -856 
Q 2344 -856 2625 -561 
Q 2906 -266 2906 331 
L 2906 616 
Q 2728 306 2450 153 
Q 2172 0 1784 0 
Q 1141 0 747 490 
Q 353 981 353 1791 
Q 353 2603 747 3093 
Q 1141 3584 1784 3584 
Q 2172 3584 2450 3431 
Q 2728 3278 2906 2969 
L 2906 3500 
L 3481 3500 
L 3481 434 
z
" id="DejaVuSans-67" transform="scale(0.015625)"/>
      <path d="M 2906 2969 
L 2906 4863 
L 3481 4863 
L 3481 0 
L 2906 0 
L 2906 525 
Q 2725 213 2448 61 
Q 2172 -91 1784 -91 
Q 1150 -91 751 415 
Q 353 922 353 1747 
Q 353 2572 751 3078 
Q 1150 3584 1784 3584 
Q 2172 3584 2448 3432 
Q 2725 3281 2906 2969 
z
M 947 1747 
Q 947 1113 1208 752 
Q 1469 391 1925 391 
Q 2381 391 2643 752 
Q 2906 1113 2906 1747 
Q 2906 2381 2643 2742 
Q 2381 3103 1925 3103 
Q 1469 3103 1208 2742 
Q 947 2381 947 1747 
z
" id="DejaVuSans-64" transform="scale(0.015625)"/>
      <path d="M 2059 -325 
Q 1816 -950 1584 -1140 
Q 1353 -1331 966 -1331 
L 506 -1331 
L 506 -850 
L 844 -850 
Q 1081 -850 1212 -737 
Q 1344 -625 1503 -206 
L 1606 56 
L 191 3500 
L 800 3500 
L 1894 763 
L 2988 3500 
L 3597 3500 
L 2059 -325 
z
" id="DejaVuSans-79" transform="scale(0.015625)"/>
     </defs>
     <use xlink:href="#DejaVuSans-61"/>
     <use x="61.279297" xlink:href="#DejaVuSans-69"/>
     <use x="89.0625" xlink:href="#DejaVuSans-72"/>
     <use x="130.175781" xlink:href="#DejaVuSans-5f"/>
     <use x="180.175781" xlink:href="#DejaVuSans-70"/>
     <use x="243.652344" xlink:href="#DejaVuSans-72"/>
     <use x="282.515625" xlink:href="#DejaVuSans-65"/>
     <use x="344.039062" xlink:href="#DejaVuSans-73"/>
     <use x="396.138672" xlink:href="#DejaVuSans-73"/>
     <use x="448.238281" xlink:href="#DejaVuSans-75"/>
     <use x="511.617188" xlink:href="#DejaVuSans-72"/>
     <use x="550.480469" xlink:href="#DejaVuSans-65"/>
     <use x="612.003906" xlink:href="#DejaVuSans-2d"/>
     <use x="648.087891" xlink:href="#DejaVuSans-3e"/>
     <use x="731.876953" xlink:href="#DejaVuSans-70"/>
     <use x="795.353516" xlink:href="#DejaVuSans-69"/>
     <use x="823.136719" xlink:href="#DejaVuSans-6e"/>
     <use x="886.515625" xlink:href="#DejaVuSans-67"/>
     <use x="949.992188" xlink:href="#DejaVuSans-5f"/>
     <use x="999.992188" xlink:href="#DejaVuSans-64"/>
     <use x="1063.46875" xlink:href="#DejaVuSans-61"/>
     <use x="1124.748047" xlink:href="#DejaVuSans-79"/>
    </g>
   </g>
  </g>
  <g id="legend_1">
   <g id="patch_7">
    <path d="M 415.451563 22.678125 
L 453.8 22.678125 
Q 455.8 22.678125 455.8 20.678125 
L 455.8 7 
Q 455.8 5 453.8 5 
L 415.451563 5 
Q 413.451563 5 413.451563 7 
L 413.451563 20.678125 
Q 413.451563 22.678125 415.451563 22.678125 
z
" style="fill:#ffffff;opacity:0.8;stroke:#cccccc;stroke-linejoin:miter;"/>
   </g>
   <g id="line2d_13">
    <path d="M 417.451563 13.098438 
L 437.451563 13.098438 
" style="fill:none;stroke:#0000ff;stroke-linecap:square;stroke-width:1.5;"/>
   </g>
   <g id="line2d_14"/>
   <g id="text_14">
    <!-- p -->
    <g transform="translate(445.451563 16.598438)scale(0.1 -0.1)">
     <use xlink:href="#DejaVuSans-70"/>
    </g>
   </g>
  </g>
 </g>
 <defs>
  <clipPath id="pe51749a82c">
   <rect height="266.112" width="357.12" x="57.6" y="41.472"/>
  </clipPath>
 </defs>
</svg>
