<?xml version="1.0" encoding="utf-8" standalone="no"?>
<!DOCTYPE svg PUBLIC "-//W3C//DTD SVG 1.1//EN"
  "http://www.w3.org/Graphics/SVG/1.1/DTD/svg11.dtd">
<!-- Created with matplotlib (https://matplotlib.org/) -->
<svg height="2090.31625pt" version="1.1" viewBox="0 0 2059.08125 2090.31625" width="2059.08125pt" xmlns="http://www.w3.org/2000/svg" xmlns:xlink="http://www.w3.org/1999/xlink">
 <metadata>
  <rdf:RDF xmlns:cc="http://creativecommons.org/ns#" xmlns:dc="http://purl.org/dc/elements/1.1/" xmlns:rdf="http://www.w3.org/1999/02/22-rdf-syntax-ns#">
   <cc:Work>
    <dc:type rdf:resource="http://purl.org/dc/dcmitype/StillImage"/>
    <dc:date>2022-07-24T11:49:49.441134</dc:date>
    <dc:format>image/svg+xml</dc:format>
    <dc:creator>
     <cc:Agent>
      <dc:title>Matplotlib v3.3.2, https://matplotlib.org/</dc:title>
     </cc:Agent>
    </dc:creator>
   </cc:Work>
  </rdf:RDF>
 </metadata>
 <defs>
  <style type="text/css">*{stroke-linecap:butt;stroke-linejoin:round;}</style>
 </defs>
 <g id="figure_1">
  <g id="patch_1">
   <path d="M 0 2090.31625 
L 2059.08125 2090.31625 
L 2059.08125 0 
L 0 0 
z
" style="fill:#ffffff;"/>
  </g>
  <g id="axes_1">
   <g id="patch_2">
    <path d="M 40.88125 2052.76 
L 1826.48125 2052.76 
L 1826.48125 278.68 
L 40.88125 278.68 
z
" style="fill:#ffffff;"/>
   </g>
   <g id="matplotlib.axis_1">
    <g id="xtick_1">
     <g id="line2d_1">
      <defs>
       <path d="M 0 0 
L 0 3.5 
" id="maa93868988" style="stroke:#000000;stroke-width:0.8;"/>
      </defs>
      <g>
       <use style="stroke:#000000;stroke-width:0.8;" x="122.044886" xlink:href="#maa93868988" y="2052.76"/>
      </g>
     </g>
     <g id="text_1">
      <text style="font-family:DejaVu Sans;font-size:10px;font-stretch:normal;font-style:normal;font-weight:normal;text-anchor:middle;" transform="rotate(-0, 122.044886, 2067.358438)" x="122.044886" y="2067.358438">60</text>
     </g>
    </g>
    <g id="xtick_2">
     <g id="line2d_2">
      <g>
       <use style="stroke:#000000;stroke-width:0.8;" x="335.633403" xlink:href="#maa93868988" y="2052.76"/>
      </g>
     </g>
     <g id="text_2">
      <text style="font-family:DejaVu Sans;font-size:10px;font-stretch:normal;font-style:normal;font-weight:normal;text-anchor:middle;" transform="rotate(-0, 335.633403, 2067.358438)" x="335.633403" y="2067.358438">65</text>
     </g>
    </g>
    <g id="xtick_3">
     <g id="line2d_3">
      <g>
       <use style="stroke:#000000;stroke-width:0.8;" x="549.22192" xlink:href="#maa93868988" y="2052.76"/>
      </g>
     </g>
     <g id="text_3">
      <text style="font-family:DejaVu Sans;font-size:10px;font-stretch:normal;font-style:normal;font-weight:normal;text-anchor:middle;" transform="rotate(-0, 549.22192, 2067.358438)" x="549.22192" y="2067.358438">70</text>
     </g>
    </g>
    <g id="xtick_4">
     <g id="line2d_4">
      <g>
       <use style="stroke:#000000;stroke-width:0.8;" x="762.810437" xlink:href="#maa93868988" y="2052.76"/>
      </g>
     </g>
     <g id="text_4">
      <text style="font-family:DejaVu Sans;font-size:10px;font-stretch:normal;font-style:normal;font-weight:normal;text-anchor:middle;" transform="rotate(-0, 762.810437, 2067.358438)" x="762.810437" y="2067.358438">75</text>
     </g>
    </g>
    <g id="xtick_5">
     <g id="line2d_5">
      <g>
       <use style="stroke:#000000;stroke-width:0.8;" x="976.398953" xlink:href="#maa93868988" y="2052.76"/>
      </g>
     </g>
     <g id="text_5">
      <text style="font-family:DejaVu Sans;font-size:10px;font-stretch:normal;font-style:normal;font-weight:normal;text-anchor:middle;" transform="rotate(-0, 976.398953, 2067.358438)" x="976.398953" y="2067.358438">80</text>
     </g>
    </g>
    <g id="xtick_6">
     <g id="line2d_6">
      <g>
       <use style="stroke:#000000;stroke-width:0.8;" x="1189.98747" xlink:href="#maa93868988" y="2052.76"/>
      </g>
     </g>
     <g id="text_6">
      <text style="font-family:DejaVu Sans;font-size:10px;font-stretch:normal;font-style:normal;font-weight:normal;text-anchor:middle;" transform="rotate(-0, 1189.98747, 2067.358438)" x="1189.98747" y="2067.358438">85</text>
     </g>
    </g>
    <g id="xtick_7">
     <g id="line2d_7">
      <g>
       <use style="stroke:#000000;stroke-width:0.8;" x="1403.575987" xlink:href="#maa93868988" y="2052.76"/>
      </g>
     </g>
     <g id="text_7">
      <text style="font-family:DejaVu Sans;font-size:10px;font-stretch:normal;font-style:normal;font-weight:normal;text-anchor:middle;" transform="rotate(-0, 1403.575987, 2067.358438)" x="1403.575987" y="2067.358438">90</text>
     </g>
    </g>
    <g id="xtick_8">
     <g id="line2d_8">
      <g>
       <use style="stroke:#000000;stroke-width:0.8;" x="1617.164504" xlink:href="#maa93868988" y="2052.76"/>
      </g>
     </g>
     <g id="text_8">
      <text style="font-family:DejaVu Sans;font-size:10px;font-stretch:normal;font-style:normal;font-weight:normal;text-anchor:middle;" transform="rotate(-0, 1617.164504, 2067.358438)" x="1617.164504" y="2067.358438">95</text>
     </g>
    </g>
    <g id="text_9">
     <text style="font-family:DejaVu Sans;font-size:10px;font-stretch:normal;font-style:normal;font-weight:normal;text-anchor:middle;" transform="rotate(-0, 933.68125, 2081.036562)" x="933.68125" y="2081.036562">humidity from WeatherBitIO</text>
    </g>
   </g>
   <g id="matplotlib.axis_2">
    <g id="ytick_1">
     <g id="line2d_9">
      <defs>
       <path d="M 0 0 
L -3.5 0 
" id="md89eb1c527" style="stroke:#000000;stroke-width:0.8;"/>
      </defs>
      <g>
       <use style="stroke:#000000;stroke-width:0.8;" x="40.88125" xlink:href="#md89eb1c527" y="1974.181675"/>
      </g>
     </g>
     <g id="text_10">
      <text style="font-family:DejaVu Sans;font-size:10px;font-stretch:normal;font-style:normal;font-weight:normal;text-anchor:end;" transform="rotate(-0, 33.88125, 1977.980894)" x="33.88125" y="1977.980894">6</text>
     </g>
    </g>
    <g id="ytick_2">
     <g id="line2d_10">
      <g>
       <use style="stroke:#000000;stroke-width:0.8;" x="40.88125" xlink:href="#md89eb1c527" y="1731.631652"/>
      </g>
     </g>
     <g id="text_11">
      <text style="font-family:DejaVu Sans;font-size:10px;font-stretch:normal;font-style:normal;font-weight:normal;text-anchor:end;" transform="rotate(-0, 33.88125, 1735.43087)" x="33.88125" y="1735.43087">8</text>
     </g>
    </g>
    <g id="ytick_3">
     <g id="line2d_11">
      <g>
       <use style="stroke:#000000;stroke-width:0.8;" x="40.88125" xlink:href="#md89eb1c527" y="1489.081628"/>
      </g>
     </g>
     <g id="text_12">
      <text style="font-family:DejaVu Sans;font-size:10px;font-stretch:normal;font-style:normal;font-weight:normal;text-anchor:end;" transform="rotate(-0, 33.88125, 1492.880847)" x="33.88125" y="1492.880847">10</text>
     </g>
    </g>
    <g id="ytick_4">
     <g id="line2d_12">
      <g>
       <use style="stroke:#000000;stroke-width:0.8;" x="40.88125" xlink:href="#md89eb1c527" y="1246.531604"/>
      </g>
     </g>
     <g id="text_13">
      <text style="font-family:DejaVu Sans;font-size:10px;font-stretch:normal;font-style:normal;font-weight:normal;text-anchor:end;" transform="rotate(-0, 33.88125, 1250.330823)" x="33.88125" y="1250.330823">12</text>
     </g>
    </g>
    <g id="ytick_5">
     <g id="line2d_13">
      <g>
       <use style="stroke:#000000;stroke-width:0.8;" x="40.88125" xlink:href="#md89eb1c527" y="1003.98158"/>
      </g>
     </g>
     <g id="text_14">
      <text style="font-family:DejaVu Sans;font-size:10px;font-stretch:normal;font-style:normal;font-weight:normal;text-anchor:end;" transform="rotate(-0, 33.88125, 1007.780799)" x="33.88125" y="1007.780799">14</text>
     </g>
    </g>
    <g id="ytick_6">
     <g id="line2d_14">
      <g>
       <use style="stroke:#000000;stroke-width:0.8;" x="40.88125" xlink:href="#md89eb1c527" y="761.431557"/>
      </g>
     </g>
     <g id="text_15">
      <text style="font-family:DejaVu Sans;font-size:10px;font-stretch:normal;font-style:normal;font-weight:normal;text-anchor:end;" transform="rotate(-0, 33.88125, 765.230776)" x="33.88125" y="765.230776">16</text>
     </g>
    </g>
    <g id="ytick_7">
     <g id="line2d_15">
      <g>
       <use style="stroke:#000000;stroke-width:0.8;" x="40.88125" xlink:href="#md89eb1c527" y="518.881533"/>
      </g>
     </g>
     <g id="text_16">
      <text style="font-family:DejaVu Sans;font-size:10px;font-stretch:normal;font-style:normal;font-weight:normal;text-anchor:end;" transform="rotate(-0, 33.88125, 522.680752)" x="33.88125" y="522.680752">18</text>
     </g>
    </g>
    <g id="text_17">
     <text style="font-family:DejaVu Sans;font-size:10px;font-stretch:normal;font-style:normal;font-weight:normal;text-anchor:middle;" transform="rotate(-90, 14.798438, 1165.72)" x="14.798438" y="1165.72">ping_night[ms]</text>
    </g>
   </g>
   <g id="line2d_16">
    <path clip-path="url(#pa8caf54817)" d="M 122.044886 1812.784847 
L 164.76259 961.939576 
L 378.351106 1868.935177 
L 463.786513 1816.352354 
L 506.504217 494.663846 
L 507.930988 1897.568943 
L 523.031696 1783.537357 
L 536.355348 1847.655455 
L 548.961342 1449.242786 
L 549.22192 1504.901953 
L 585.89934 1837.071612 
L 591.939623 1760.677017 
L 627.288523 1798.575458 
L 634.657327 1896.141205 
L 651.022479 1589.780313 
L 653.982816 1747.195278 
L 677.37503 1811.788051 
L 683.539194 1929.067371 
L 708.422257 1885.650917 
L 710.519696 1620.131406 
L 720.092733 1520.936531 
L 732.890957 1489.710053 
L 750.272791 1641.113848 
L 757.846639 1892.023367 
L 762.810437 1888.495367 
L 774.47237 1927.501821 
L 779.158502 1801.789246 
L 788.590571 1243.929704 
L 791.525277 1427.361976 
L 796.694119 1797.219383 
L 805.52814 1723.061551 
L 844.251738 729.970797 
L 848.245843 1778.58782 
L 848.514965 1645.414447 
L 852.462081 1140.852559 
L 852.667126 1606.134064 
L 884.551619 1826.446661 
L 886.354306 742.118511 
L 890.963547 1536.679979 
L 917.093966 1835.018599 
L 929.012205 1638.349117 
L 933.68125 1311.708261 
L 935.432676 1109.511053 
L 958.286647 1457.329625 
L 966.163792 1856.193216 
L 976.398953 1889.410442 
L 983.26796 1856.544914 
L 1002.345686 1483.337602 
L 1002.965093 1668.29302 
L 1019.116657 1760.858929 
L 1019.193549 1005.639006 
L 1021.581468 1749.863328 
L 1052.556075 1625.960691 
L 1061.83436 1566.012937 
L 1065.345755 1704.560374 
L 1080.339669 1830.492836 
L 1082.027018 1826.093861 
L 1089.331746 1859.495939 
L 1104.552063 1527.925463 
L 1109.938766 1842.840837 
L 1128.19204 1269.529756 
L 1146.906666 1565.879029 
L 1147.269767 1773.550135 
L 1151.896094 1455.97355 
L 1157.564733 644.37422 
L 1167.543589 1433.173847 
L 1176.736439 1216.074251 
L 1183.47302 1516.302355 
L 1185.724243 1722.404644 
L 1187.52693 1655.618207 
L 1192.507815 1885.747937 
L 1192.554804 1841.668512 
L 1194.998257 1645.930643 
L 1200.43622 1597.369188 
L 1202.255994 1892.422105 
L 1209.334318 1913.220769 
L 1212.576592 1694.70341 
L 1225.669568 359.32 
L 1228.71534 1755.952804 
L 1229.642314 1764.295055 
L 1229.659401 1028.196158 
L 1230.799964 1841.488155 
L 1232.705173 1662.260357 
L 1235.285323 1834.381905 
L 1235.780848 1730.742301 
L 1241.637445 1703.556486 
L 1244.042452 1556.783403 
L 1244.973698 1873.877134 
L 1264.880148 1867.922715 
L 1266.037797 1286.240508 
L 1268.62649 1568.307286 
L 1272.039635 1802.798033 
L 1275.422877 1616.598995 
L 1277.853514 1445.816767 
L 1281.505878 1518.268481 
L 1282.54819 1593.802601 
L 1282.98391 1924.772214 
L 1285.508527 892.40857 
L 1290.309996 1785.154357 
L 1292.591122 1860.910814 
L 1307.418437 1799.293002 
L 1312.429223 1972.12 
L 1315.05209 1873.147463 
L 1316.9573 1270.725969 
L 1318.14058 1354.24807 
L 1318.413973 1631.160817 
L 1328.140794 1940.992747 
L 1328.328752 1876.464334 
L 1330.370659 1456.67425 
L 1331.878594 1306.542523 
L 1332.98071 1375.628854 
L 1338.162368 1939.739572 
L 1342.80151 1716.745144 
L 1357.662999 1947.622448 
L 1360.260236 1161.366227 
L 1360.858283 1426.604557 
L 1365.1685 1726.444813 
L 1365.548687 1855.041104 
L 1376.62966 1928.107277 
L 1379.444756 1699.421008 
L 1380.722016 1919.961639 
L 1382.669943 1745.942103 
L 1384.160791 1827.093744 
L 1385.916488 1761.959733 
L 1386.095903 1729.448701 
L 1386.168523 1879.506316 
L 1390.935818 1925.62757 
L 1391.298919 1627.314929 
L 1398.872768 1918.79942 
L 1402.392706 1369.807654 
L 1402.512316 1683.252251 
L 1403.575987 1563.304361 
L 1403.832293 1819.242741 
L 1405.032661 1844.498263 
L 1405.092465 1537.551208 
L 1434.238754 1899.570593 
L 1438.23286 1788.248424 
L 1441.167566 1733.838857 
L 1446.29369 1706.461889 
L 1449.420626 1896.363543 
L 1450.740603 1961.293449 
L 1452.611639 1892.087821 
L 1455.977794 1938.175124 
L 1462.697288 1924.607145 
L 1463.133009 1901.295393 
L 1470.13444 1904.842687 
L 1478.767688 1661.635757 
L 1482.373062 1846.126288 
L 1489.011394 1673.392382 
L 1491.672706 1768.660955 
L 1495.346429 1825.244936 
L 1504.51792 1881.204166 
L 1511.109261 1947.932373 
L 1514.407068 1946.530973 
L 1514.624928 1914.271819 
L 1515.299868 1674.125246 
L 1525.509399 1683.012499 
L 1526.705495 1884.848636 
L 1531.729097 1372.076507 
L 1532.818398 1945.285147 
L 1546.535053 1933.545884 
L 1564.207367 1867.599597 
L 1567.42401 1880.006116 
L 1569.777755 1747.498466 
L 1572.73382 1749.414978 
L 1574.4468 1767.577565 
L 1579.124389 1783.800119 
L 1580.730574 1846.41845 
L 1590.970008 1444.368464 
L 1593.16997 1864.902783 
L 1594.323348 1906.322794 
L 1598.249105 1889.112767 
L 1599.261514 1732.370327 
L 1609.582111 1864.77429 
L 1617.164504 1597.178088 
L 1620.91939 1945.187619 
L 1633.657809 1916.69732 
L 1646.656806 1897.839055 
L 1648.254448 1622.318766 
L 1659.882207 1466.076861 
L 1662.633227 1921.026838 
L 1682.86006 1719.571525 
L 1702.59991 1713.914086 
L 1745.317614 1498.203618 
L 1745.317614 1498.203618 
" style="fill:none;stroke:#0000ff;stroke-linecap:square;stroke-width:1.5;"/>
   </g>
   <g id="patch_3">
    <path d="M 40.88125 2052.76 
L 40.88125 278.68 
" style="fill:none;stroke:#000000;stroke-linecap:square;stroke-linejoin:miter;stroke-width:0.8;"/>
   </g>
   <g id="patch_4">
    <path d="M 1826.48125 2052.76 
L 1826.48125 278.68 
" style="fill:none;stroke:#000000;stroke-linecap:square;stroke-linejoin:miter;stroke-width:0.8;"/>
   </g>
   <g id="patch_5">
    <path d="M 40.88125 2052.76 
L 1826.48125 2052.76 
" style="fill:none;stroke:#000000;stroke-linecap:square;stroke-linejoin:miter;stroke-width:0.8;"/>
   </g>
   <g id="patch_6">
    <path d="M 40.88125 278.68 
L 1826.48125 278.68 
" style="fill:none;stroke:#000000;stroke-linecap:square;stroke-linejoin:miter;stroke-width:0.8;"/>
   </g>
   <g id="text_18">
    <text style="font-family:DejaVu Sans;font-size:12px;font-stretch:normal;font-style:normal;font-weight:normal;text-anchor:middle;" transform="rotate(-0, 933.68125, 272.68)" x="933.68125" y="272.68">humidity-&gt;ping_night</text>
   </g>
  </g>
  <g id="legend_1">
   <g id="patch_7">
    <path d="M 1944.79375 22.95625 
L 2052.08125 22.95625 
Q 2054.08125 22.95625 2054.08125 20.95625 
L 2054.08125 7 
Q 2054.08125 5 2052.08125 5 
L 1944.79375 5 
Q 1942.79375 5 1942.79375 7 
L 1942.79375 20.95625 
Q 1942.79375 22.95625 1944.79375 22.95625 
z
" style="fill:#ffffff;opacity:0.8;stroke:#cccccc;stroke-linejoin:miter;"/>
   </g>
   <g id="line2d_17">
    <path d="M 1946.79375 13.098438 
L 1966.79375 13.098438 
" style="fill:none;stroke:#0000ff;stroke-linecap:square;stroke-width:1.5;"/>
   </g>
   <g id="line2d_18"/>
   <g id="text_19">
    <text style="font-family:DejaVu Sans;font-size:10px;font-stretch:normal;font-style:normal;font-weight:normal;text-anchor:start;" transform="rotate(-0, 1974.79375, 16.598438)" x="1974.79375" y="16.598438">ping_night[ms]</text>
   </g>
  </g>
 </g>
 <defs>
  <clipPath id="pa8caf54817">
   <rect height="1774.08" width="1785.6" x="40.88125" y="278.68"/>
  </clipPath>
 </defs>
</svg>
