<?xml version="1.0" encoding="utf-8" standalone="no"?>
<!DOCTYPE svg PUBLIC "-//W3C//DTD SVG 1.1//EN"
  "http://www.w3.org/Graphics/SVG/1.1/DTD/svg11.dtd">
<!-- Created with matplotlib (https://matplotlib.org/) -->
<svg height="345.6pt" version="1.1" viewBox="0 0 460.8 345.6" width="460.8pt" xmlns="http://www.w3.org/2000/svg" xmlns:xlink="http://www.w3.org/1999/xlink">
 <metadata>
  <rdf:RDF xmlns:cc="http://creativecommons.org/ns#" xmlns:dc="http://purl.org/dc/elements/1.1/" xmlns:rdf="http://www.w3.org/1999/02/22-rdf-syntax-ns#">
   <cc:Work>
    <dc:type rdf:resource="http://purl.org/dc/dcmitype/StillImage"/>
    <dc:date>2022-07-08T16:18:58.882961</dc:date>
    <dc:format>image/svg+xml</dc:format>
    <dc:creator>
     <cc:Agent>
      <dc:title>Matplotlib v3.3.2, https://matplotlib.org/</dc:title>
     </cc:Agent>
    </dc:creator>
   </cc:Work>
  </rdf:RDF>
 </metadata>
 <defs>
  <style type="text/css">*{stroke-linecap:butt;stroke-linejoin:round;}</style>
 </defs>
 <g id="figure_1">
  <g id="patch_1">
   <path d="M 0 345.6 
L 460.8 345.6 
L 460.8 0 
L 0 0 
z
" style="fill:#ffffff;"/>
  </g>
  <g id="axes_1">
   <g id="patch_2">
    <path d="M 57.6 307.584 
L 414.72 307.584 
L 414.72 41.472 
L 57.6 41.472 
z
" style="fill:#ffffff;"/>
   </g>
   <g id="matplotlib.axis_1">
    <g id="xtick_1">
     <g id="line2d_1">
      <defs>
       <path d="M 0 0 
L 0 3.5 
" id="me56a6d550e" style="stroke:#000000;stroke-width:0.8;"/>
      </defs>
      <g>
       <use style="stroke:#000000;stroke-width:0.8;" x="89.799344" xlink:href="#me56a6d550e" y="307.584"/>
      </g>
     </g>
     <g id="text_1">
      <!-- 40 -->
      <g transform="translate(83.436844 322.182437)scale(0.1 -0.1)">
       <defs>
        <path d="M 37.796875 64.3125 
L 12.890625 25.390625 
L 37.796875 25.390625 
z
M 35.203125 72.90625 
L 47.609375 72.90625 
L 47.609375 25.390625 
L 58.015625 25.390625 
L 58.015625 17.1875 
L 47.609375 17.1875 
L 47.609375 0 
L 37.796875 0 
L 37.796875 17.1875 
L 4.890625 17.1875 
L 4.890625 26.703125 
z
" id="DejaVuSans-52"/>
        <path d="M 31.78125 66.40625 
Q 24.171875 66.40625 20.328125 58.90625 
Q 16.5 51.421875 16.5 36.375 
Q 16.5 21.390625 20.328125 13.890625 
Q 24.171875 6.390625 31.78125 6.390625 
Q 39.453125 6.390625 43.28125 13.890625 
Q 47.125 21.390625 47.125 36.375 
Q 47.125 51.421875 43.28125 58.90625 
Q 39.453125 66.40625 31.78125 66.40625 
z
M 31.78125 74.21875 
Q 44.046875 74.21875 50.515625 64.515625 
Q 56.984375 54.828125 56.984375 36.375 
Q 56.984375 17.96875 50.515625 8.265625 
Q 44.046875 -1.421875 31.78125 -1.421875 
Q 19.53125 -1.421875 13.0625 8.265625 
Q 6.59375 17.96875 6.59375 36.375 
Q 6.59375 54.828125 13.0625 64.515625 
Q 19.53125 74.21875 31.78125 74.21875 
z
" id="DejaVuSans-48"/>
       </defs>
       <use xlink:href="#DejaVuSans-52"/>
       <use x="63.623047" xlink:href="#DejaVuSans-48"/>
      </g>
     </g>
    </g>
    <g id="xtick_2">
     <g id="line2d_2">
      <g>
       <use style="stroke:#000000;stroke-width:0.8;" x="143.021401" xlink:href="#me56a6d550e" y="307.584"/>
      </g>
     </g>
     <g id="text_2">
      <!-- 50 -->
      <g transform="translate(136.658901 322.182437)scale(0.1 -0.1)">
       <defs>
        <path d="M 10.796875 72.90625 
L 49.515625 72.90625 
L 49.515625 64.59375 
L 19.828125 64.59375 
L 19.828125 46.734375 
Q 21.96875 47.46875 24.109375 47.828125 
Q 26.265625 48.1875 28.421875 48.1875 
Q 40.625 48.1875 47.75 41.5 
Q 54.890625 34.8125 54.890625 23.390625 
Q 54.890625 11.625 47.5625 5.09375 
Q 40.234375 -1.421875 26.90625 -1.421875 
Q 22.3125 -1.421875 17.546875 -0.640625 
Q 12.796875 0.140625 7.71875 1.703125 
L 7.71875 11.625 
Q 12.109375 9.234375 16.796875 8.0625 
Q 21.484375 6.890625 26.703125 6.890625 
Q 35.15625 6.890625 40.078125 11.328125 
Q 45.015625 15.765625 45.015625 23.390625 
Q 45.015625 31 40.078125 35.4375 
Q 35.15625 39.890625 26.703125 39.890625 
Q 22.75 39.890625 18.8125 39.015625 
Q 14.890625 38.140625 10.796875 36.28125 
z
" id="DejaVuSans-53"/>
       </defs>
       <use xlink:href="#DejaVuSans-53"/>
       <use x="63.623047" xlink:href="#DejaVuSans-48"/>
      </g>
     </g>
    </g>
    <g id="xtick_3">
     <g id="line2d_3">
      <g>
       <use style="stroke:#000000;stroke-width:0.8;" x="196.243458" xlink:href="#me56a6d550e" y="307.584"/>
      </g>
     </g>
     <g id="text_3">
      <!-- 60 -->
      <g transform="translate(189.880958 322.182437)scale(0.1 -0.1)">
       <defs>
        <path d="M 33.015625 40.375 
Q 26.375 40.375 22.484375 35.828125 
Q 18.609375 31.296875 18.609375 23.390625 
Q 18.609375 15.53125 22.484375 10.953125 
Q 26.375 6.390625 33.015625 6.390625 
Q 39.65625 6.390625 43.53125 10.953125 
Q 47.40625 15.53125 47.40625 23.390625 
Q 47.40625 31.296875 43.53125 35.828125 
Q 39.65625 40.375 33.015625 40.375 
z
M 52.59375 71.296875 
L 52.59375 62.3125 
Q 48.875 64.0625 45.09375 64.984375 
Q 41.3125 65.921875 37.59375 65.921875 
Q 27.828125 65.921875 22.671875 59.328125 
Q 17.53125 52.734375 16.796875 39.40625 
Q 19.671875 43.65625 24.015625 45.921875 
Q 28.375 48.1875 33.59375 48.1875 
Q 44.578125 48.1875 50.953125 41.515625 
Q 57.328125 34.859375 57.328125 23.390625 
Q 57.328125 12.15625 50.6875 5.359375 
Q 44.046875 -1.421875 33.015625 -1.421875 
Q 20.359375 -1.421875 13.671875 8.265625 
Q 6.984375 17.96875 6.984375 36.375 
Q 6.984375 53.65625 15.1875 63.9375 
Q 23.390625 74.21875 37.203125 74.21875 
Q 40.921875 74.21875 44.703125 73.484375 
Q 48.484375 72.75 52.59375 71.296875 
z
" id="DejaVuSans-54"/>
       </defs>
       <use xlink:href="#DejaVuSans-54"/>
       <use x="63.623047" xlink:href="#DejaVuSans-48"/>
      </g>
     </g>
    </g>
    <g id="xtick_4">
     <g id="line2d_4">
      <g>
       <use style="stroke:#000000;stroke-width:0.8;" x="249.465514" xlink:href="#me56a6d550e" y="307.584"/>
      </g>
     </g>
     <g id="text_4">
      <!-- 70 -->
      <g transform="translate(243.103014 322.182437)scale(0.1 -0.1)">
       <defs>
        <path d="M 8.203125 72.90625 
L 55.078125 72.90625 
L 55.078125 68.703125 
L 28.609375 0 
L 18.3125 0 
L 43.21875 64.59375 
L 8.203125 64.59375 
z
" id="DejaVuSans-55"/>
       </defs>
       <use xlink:href="#DejaVuSans-55"/>
       <use x="63.623047" xlink:href="#DejaVuSans-48"/>
      </g>
     </g>
    </g>
    <g id="xtick_5">
     <g id="line2d_5">
      <g>
       <use style="stroke:#000000;stroke-width:0.8;" x="302.687571" xlink:href="#me56a6d550e" y="307.584"/>
      </g>
     </g>
     <g id="text_5">
      <!-- 80 -->
      <g transform="translate(296.325071 322.182437)scale(0.1 -0.1)">
       <defs>
        <path d="M 31.78125 34.625 
Q 24.75 34.625 20.71875 30.859375 
Q 16.703125 27.09375 16.703125 20.515625 
Q 16.703125 13.921875 20.71875 10.15625 
Q 24.75 6.390625 31.78125 6.390625 
Q 38.8125 6.390625 42.859375 10.171875 
Q 46.921875 13.96875 46.921875 20.515625 
Q 46.921875 27.09375 42.890625 30.859375 
Q 38.875 34.625 31.78125 34.625 
z
M 21.921875 38.8125 
Q 15.578125 40.375 12.03125 44.71875 
Q 8.5 49.078125 8.5 55.328125 
Q 8.5 64.0625 14.71875 69.140625 
Q 20.953125 74.21875 31.78125 74.21875 
Q 42.671875 74.21875 48.875 69.140625 
Q 55.078125 64.0625 55.078125 55.328125 
Q 55.078125 49.078125 51.53125 44.71875 
Q 48 40.375 41.703125 38.8125 
Q 48.828125 37.15625 52.796875 32.3125 
Q 56.78125 27.484375 56.78125 20.515625 
Q 56.78125 9.90625 50.3125 4.234375 
Q 43.84375 -1.421875 31.78125 -1.421875 
Q 19.734375 -1.421875 13.25 4.234375 
Q 6.78125 9.90625 6.78125 20.515625 
Q 6.78125 27.484375 10.78125 32.3125 
Q 14.796875 37.15625 21.921875 38.8125 
z
M 18.3125 54.390625 
Q 18.3125 48.734375 21.84375 45.5625 
Q 25.390625 42.390625 31.78125 42.390625 
Q 38.140625 42.390625 41.71875 45.5625 
Q 45.3125 48.734375 45.3125 54.390625 
Q 45.3125 60.0625 41.71875 63.234375 
Q 38.140625 66.40625 31.78125 66.40625 
Q 25.390625 66.40625 21.84375 63.234375 
Q 18.3125 60.0625 18.3125 54.390625 
z
" id="DejaVuSans-56"/>
       </defs>
       <use xlink:href="#DejaVuSans-56"/>
       <use x="63.623047" xlink:href="#DejaVuSans-48"/>
      </g>
     </g>
    </g>
    <g id="xtick_6">
     <g id="line2d_6">
      <g>
       <use style="stroke:#000000;stroke-width:0.8;" x="355.909627" xlink:href="#me56a6d550e" y="307.584"/>
      </g>
     </g>
     <g id="text_6">
      <!-- 90 -->
      <g transform="translate(349.547127 322.182437)scale(0.1 -0.1)">
       <defs>
        <path d="M 10.984375 1.515625 
L 10.984375 10.5 
Q 14.703125 8.734375 18.5 7.8125 
Q 22.3125 6.890625 25.984375 6.890625 
Q 35.75 6.890625 40.890625 13.453125 
Q 46.046875 20.015625 46.78125 33.40625 
Q 43.953125 29.203125 39.59375 26.953125 
Q 35.25 24.703125 29.984375 24.703125 
Q 19.046875 24.703125 12.671875 31.3125 
Q 6.296875 37.9375 6.296875 49.421875 
Q 6.296875 60.640625 12.9375 67.421875 
Q 19.578125 74.21875 30.609375 74.21875 
Q 43.265625 74.21875 49.921875 64.515625 
Q 56.59375 54.828125 56.59375 36.375 
Q 56.59375 19.140625 48.40625 8.859375 
Q 40.234375 -1.421875 26.421875 -1.421875 
Q 22.703125 -1.421875 18.890625 -0.6875 
Q 15.09375 0.046875 10.984375 1.515625 
z
M 30.609375 32.421875 
Q 37.25 32.421875 41.125 36.953125 
Q 45.015625 41.5 45.015625 49.421875 
Q 45.015625 57.28125 41.125 61.84375 
Q 37.25 66.40625 30.609375 66.40625 
Q 23.96875 66.40625 20.09375 61.84375 
Q 16.21875 57.28125 16.21875 49.421875 
Q 16.21875 41.5 20.09375 36.953125 
Q 23.96875 32.421875 30.609375 32.421875 
z
" id="DejaVuSans-57"/>
       </defs>
       <use xlink:href="#DejaVuSans-57"/>
       <use x="63.623047" xlink:href="#DejaVuSans-48"/>
      </g>
     </g>
    </g>
    <g id="xtick_7">
     <g id="line2d_7">
      <g>
       <use style="stroke:#000000;stroke-width:0.8;" x="409.131684" xlink:href="#me56a6d550e" y="307.584"/>
      </g>
     </g>
     <g id="text_7">
      <!-- 100 -->
      <g transform="translate(399.587934 322.182437)scale(0.1 -0.1)">
       <defs>
        <path d="M 12.40625 8.296875 
L 28.515625 8.296875 
L 28.515625 63.921875 
L 10.984375 60.40625 
L 10.984375 69.390625 
L 28.421875 72.90625 
L 38.28125 72.90625 
L 38.28125 8.296875 
L 54.390625 8.296875 
L 54.390625 0 
L 12.40625 0 
z
" id="DejaVuSans-49"/>
       </defs>
       <use xlink:href="#DejaVuSans-49"/>
       <use x="63.623047" xlink:href="#DejaVuSans-48"/>
       <use x="127.246094" xlink:href="#DejaVuSans-48"/>
      </g>
     </g>
    </g>
    <g id="text_8">
     <!-- humidity from WeatherBitIO -->
     <g transform="translate(166.027187 335.860562)scale(0.1 -0.1)">
      <defs>
       <path d="M 54.890625 33.015625 
L 54.890625 0 
L 45.90625 0 
L 45.90625 32.71875 
Q 45.90625 40.484375 42.875 44.328125 
Q 39.84375 48.1875 33.796875 48.1875 
Q 26.515625 48.1875 22.3125 43.546875 
Q 18.109375 38.921875 18.109375 30.90625 
L 18.109375 0 
L 9.078125 0 
L 9.078125 75.984375 
L 18.109375 75.984375 
L 18.109375 46.1875 
Q 21.34375 51.125 25.703125 53.5625 
Q 30.078125 56 35.796875 56 
Q 45.21875 56 50.046875 50.171875 
Q 54.890625 44.34375 54.890625 33.015625 
z
" id="DejaVuSans-104"/>
       <path d="M 8.5 21.578125 
L 8.5 54.6875 
L 17.484375 54.6875 
L 17.484375 21.921875 
Q 17.484375 14.15625 20.5 10.265625 
Q 23.53125 6.390625 29.59375 6.390625 
Q 36.859375 6.390625 41.078125 11.03125 
Q 45.3125 15.671875 45.3125 23.6875 
L 45.3125 54.6875 
L 54.296875 54.6875 
L 54.296875 0 
L 45.3125 0 
L 45.3125 8.40625 
Q 42.046875 3.421875 37.71875 1 
Q 33.40625 -1.421875 27.6875 -1.421875 
Q 18.265625 -1.421875 13.375 4.4375 
Q 8.5 10.296875 8.5 21.578125 
z
M 31.109375 56 
z
" id="DejaVuSans-117"/>
       <path d="M 52 44.1875 
Q 55.375 50.25 60.0625 53.125 
Q 64.75 56 71.09375 56 
Q 79.640625 56 84.28125 50.015625 
Q 88.921875 44.046875 88.921875 33.015625 
L 88.921875 0 
L 79.890625 0 
L 79.890625 32.71875 
Q 79.890625 40.578125 77.09375 44.375 
Q 74.3125 48.1875 68.609375 48.1875 
Q 61.625 48.1875 57.5625 43.546875 
Q 53.515625 38.921875 53.515625 30.90625 
L 53.515625 0 
L 44.484375 0 
L 44.484375 32.71875 
Q 44.484375 40.625 41.703125 44.40625 
Q 38.921875 48.1875 33.109375 48.1875 
Q 26.21875 48.1875 22.15625 43.53125 
Q 18.109375 38.875 18.109375 30.90625 
L 18.109375 0 
L 9.078125 0 
L 9.078125 54.6875 
L 18.109375 54.6875 
L 18.109375 46.1875 
Q 21.1875 51.21875 25.484375 53.609375 
Q 29.78125 56 35.6875 56 
Q 41.65625 56 45.828125 52.96875 
Q 50 49.953125 52 44.1875 
z
" id="DejaVuSans-109"/>
       <path d="M 9.421875 54.6875 
L 18.40625 54.6875 
L 18.40625 0 
L 9.421875 0 
z
M 9.421875 75.984375 
L 18.40625 75.984375 
L 18.40625 64.59375 
L 9.421875 64.59375 
z
" id="DejaVuSans-105"/>
       <path d="M 45.40625 46.390625 
L 45.40625 75.984375 
L 54.390625 75.984375 
L 54.390625 0 
L 45.40625 0 
L 45.40625 8.203125 
Q 42.578125 3.328125 38.25 0.953125 
Q 33.9375 -1.421875 27.875 -1.421875 
Q 17.96875 -1.421875 11.734375 6.484375 
Q 5.515625 14.40625 5.515625 27.296875 
Q 5.515625 40.1875 11.734375 48.09375 
Q 17.96875 56 27.875 56 
Q 33.9375 56 38.25 53.625 
Q 42.578125 51.265625 45.40625 46.390625 
z
M 14.796875 27.296875 
Q 14.796875 17.390625 18.875 11.75 
Q 22.953125 6.109375 30.078125 6.109375 
Q 37.203125 6.109375 41.296875 11.75 
Q 45.40625 17.390625 45.40625 27.296875 
Q 45.40625 37.203125 41.296875 42.84375 
Q 37.203125 48.484375 30.078125 48.484375 
Q 22.953125 48.484375 18.875 42.84375 
Q 14.796875 37.203125 14.796875 27.296875 
z
" id="DejaVuSans-100"/>
       <path d="M 18.3125 70.21875 
L 18.3125 54.6875 
L 36.8125 54.6875 
L 36.8125 47.703125 
L 18.3125 47.703125 
L 18.3125 18.015625 
Q 18.3125 11.328125 20.140625 9.421875 
Q 21.96875 7.515625 27.59375 7.515625 
L 36.8125 7.515625 
L 36.8125 0 
L 27.59375 0 
Q 17.1875 0 13.234375 3.875 
Q 9.28125 7.765625 9.28125 18.015625 
L 9.28125 47.703125 
L 2.6875 47.703125 
L 2.6875 54.6875 
L 9.28125 54.6875 
L 9.28125 70.21875 
z
" id="DejaVuSans-116"/>
       <path d="M 32.171875 -5.078125 
Q 28.375 -14.84375 24.75 -17.8125 
Q 21.140625 -20.796875 15.09375 -20.796875 
L 7.90625 -20.796875 
L 7.90625 -13.28125 
L 13.1875 -13.28125 
Q 16.890625 -13.28125 18.9375 -11.515625 
Q 21 -9.765625 23.484375 -3.21875 
L 25.09375 0.875 
L 2.984375 54.6875 
L 12.5 54.6875 
L 29.59375 11.921875 
L 46.6875 54.6875 
L 56.203125 54.6875 
z
" id="DejaVuSans-121"/>
       <path id="DejaVuSans-32"/>
       <path d="M 37.109375 75.984375 
L 37.109375 68.5 
L 28.515625 68.5 
Q 23.6875 68.5 21.796875 66.546875 
Q 19.921875 64.59375 19.921875 59.515625 
L 19.921875 54.6875 
L 34.71875 54.6875 
L 34.71875 47.703125 
L 19.921875 47.703125 
L 19.921875 0 
L 10.890625 0 
L 10.890625 47.703125 
L 2.296875 47.703125 
L 2.296875 54.6875 
L 10.890625 54.6875 
L 10.890625 58.5 
Q 10.890625 67.625 15.140625 71.796875 
Q 19.390625 75.984375 28.609375 75.984375 
z
" id="DejaVuSans-102"/>
       <path d="M 41.109375 46.296875 
Q 39.59375 47.171875 37.8125 47.578125 
Q 36.03125 48 33.890625 48 
Q 26.265625 48 22.1875 43.046875 
Q 18.109375 38.09375 18.109375 28.8125 
L 18.109375 0 
L 9.078125 0 
L 9.078125 54.6875 
L 18.109375 54.6875 
L 18.109375 46.1875 
Q 20.953125 51.171875 25.484375 53.578125 
Q 30.03125 56 36.53125 56 
Q 37.453125 56 38.578125 55.875 
Q 39.703125 55.765625 41.0625 55.515625 
z
" id="DejaVuSans-114"/>
       <path d="M 30.609375 48.390625 
Q 23.390625 48.390625 19.1875 42.75 
Q 14.984375 37.109375 14.984375 27.296875 
Q 14.984375 17.484375 19.15625 11.84375 
Q 23.34375 6.203125 30.609375 6.203125 
Q 37.796875 6.203125 41.984375 11.859375 
Q 46.1875 17.53125 46.1875 27.296875 
Q 46.1875 37.015625 41.984375 42.703125 
Q 37.796875 48.390625 30.609375 48.390625 
z
M 30.609375 56 
Q 42.328125 56 49.015625 48.375 
Q 55.71875 40.765625 55.71875 27.296875 
Q 55.71875 13.875 49.015625 6.21875 
Q 42.328125 -1.421875 30.609375 -1.421875 
Q 18.84375 -1.421875 12.171875 6.21875 
Q 5.515625 13.875 5.515625 27.296875 
Q 5.515625 40.765625 12.171875 48.375 
Q 18.84375 56 30.609375 56 
z
" id="DejaVuSans-111"/>
       <path d="M 3.328125 72.90625 
L 13.28125 72.90625 
L 28.609375 11.28125 
L 43.890625 72.90625 
L 54.984375 72.90625 
L 70.3125 11.28125 
L 85.59375 72.90625 
L 95.609375 72.90625 
L 77.296875 0 
L 64.890625 0 
L 49.515625 63.28125 
L 33.984375 0 
L 21.578125 0 
z
" id="DejaVuSans-87"/>
       <path d="M 56.203125 29.59375 
L 56.203125 25.203125 
L 14.890625 25.203125 
Q 15.484375 15.921875 20.484375 11.0625 
Q 25.484375 6.203125 34.421875 6.203125 
Q 39.59375 6.203125 44.453125 7.46875 
Q 49.3125 8.734375 54.109375 11.28125 
L 54.109375 2.78125 
Q 49.265625 0.734375 44.1875 -0.34375 
Q 39.109375 -1.421875 33.890625 -1.421875 
Q 20.796875 -1.421875 13.15625 6.1875 
Q 5.515625 13.8125 5.515625 26.8125 
Q 5.515625 40.234375 12.765625 48.109375 
Q 20.015625 56 32.328125 56 
Q 43.359375 56 49.78125 48.890625 
Q 56.203125 41.796875 56.203125 29.59375 
z
M 47.21875 32.234375 
Q 47.125 39.59375 43.09375 43.984375 
Q 39.0625 48.390625 32.421875 48.390625 
Q 24.90625 48.390625 20.390625 44.140625 
Q 15.875 39.890625 15.1875 32.171875 
z
" id="DejaVuSans-101"/>
       <path d="M 34.28125 27.484375 
Q 23.390625 27.484375 19.1875 25 
Q 14.984375 22.515625 14.984375 16.5 
Q 14.984375 11.71875 18.140625 8.90625 
Q 21.296875 6.109375 26.703125 6.109375 
Q 34.1875 6.109375 38.703125 11.40625 
Q 43.21875 16.703125 43.21875 25.484375 
L 43.21875 27.484375 
z
M 52.203125 31.203125 
L 52.203125 0 
L 43.21875 0 
L 43.21875 8.296875 
Q 40.140625 3.328125 35.546875 0.953125 
Q 30.953125 -1.421875 24.3125 -1.421875 
Q 15.921875 -1.421875 10.953125 3.296875 
Q 6 8.015625 6 15.921875 
Q 6 25.140625 12.171875 29.828125 
Q 18.359375 34.515625 30.609375 34.515625 
L 43.21875 34.515625 
L 43.21875 35.40625 
Q 43.21875 41.609375 39.140625 45 
Q 35.0625 48.390625 27.6875 48.390625 
Q 23 48.390625 18.546875 47.265625 
Q 14.109375 46.140625 10.015625 43.890625 
L 10.015625 52.203125 
Q 14.9375 54.109375 19.578125 55.046875 
Q 24.21875 56 28.609375 56 
Q 40.484375 56 46.34375 49.84375 
Q 52.203125 43.703125 52.203125 31.203125 
z
" id="DejaVuSans-97"/>
       <path d="M 19.671875 34.8125 
L 19.671875 8.109375 
L 35.5 8.109375 
Q 43.453125 8.109375 47.28125 11.40625 
Q 51.125 14.703125 51.125 21.484375 
Q 51.125 28.328125 47.28125 31.5625 
Q 43.453125 34.8125 35.5 34.8125 
z
M 19.671875 64.796875 
L 19.671875 42.828125 
L 34.28125 42.828125 
Q 41.5 42.828125 45.03125 45.53125 
Q 48.578125 48.25 48.578125 53.8125 
Q 48.578125 59.328125 45.03125 62.0625 
Q 41.5 64.796875 34.28125 64.796875 
z
M 9.8125 72.90625 
L 35.015625 72.90625 
Q 46.296875 72.90625 52.390625 68.21875 
Q 58.5 63.53125 58.5 54.890625 
Q 58.5 48.1875 55.375 44.234375 
Q 52.25 40.28125 46.1875 39.3125 
Q 53.46875 37.75 57.5 32.78125 
Q 61.53125 27.828125 61.53125 20.40625 
Q 61.53125 10.640625 54.890625 5.3125 
Q 48.25 0 35.984375 0 
L 9.8125 0 
z
" id="DejaVuSans-66"/>
       <path d="M 9.8125 72.90625 
L 19.671875 72.90625 
L 19.671875 0 
L 9.8125 0 
z
" id="DejaVuSans-73"/>
       <path d="M 39.40625 66.21875 
Q 28.65625 66.21875 22.328125 58.203125 
Q 16.015625 50.203125 16.015625 36.375 
Q 16.015625 22.609375 22.328125 14.59375 
Q 28.65625 6.59375 39.40625 6.59375 
Q 50.140625 6.59375 56.421875 14.59375 
Q 62.703125 22.609375 62.703125 36.375 
Q 62.703125 50.203125 56.421875 58.203125 
Q 50.140625 66.21875 39.40625 66.21875 
z
M 39.40625 74.21875 
Q 54.734375 74.21875 63.90625 63.9375 
Q 73.09375 53.65625 73.09375 36.375 
Q 73.09375 19.140625 63.90625 8.859375 
Q 54.734375 -1.421875 39.40625 -1.421875 
Q 24.03125 -1.421875 14.8125 8.828125 
Q 5.609375 19.09375 5.609375 36.375 
Q 5.609375 53.65625 14.8125 63.9375 
Q 24.03125 74.21875 39.40625 74.21875 
z
" id="DejaVuSans-79"/>
      </defs>
      <use xlink:href="#DejaVuSans-104"/>
      <use x="63.378906" xlink:href="#DejaVuSans-117"/>
      <use x="126.757812" xlink:href="#DejaVuSans-109"/>
      <use x="224.169922" xlink:href="#DejaVuSans-105"/>
      <use x="251.953125" xlink:href="#DejaVuSans-100"/>
      <use x="315.429688" xlink:href="#DejaVuSans-105"/>
      <use x="343.212891" xlink:href="#DejaVuSans-116"/>
      <use x="382.421875" xlink:href="#DejaVuSans-121"/>
      <use x="441.601562" xlink:href="#DejaVuSans-32"/>
      <use x="473.388672" xlink:href="#DejaVuSans-102"/>
      <use x="508.59375" xlink:href="#DejaVuSans-114"/>
      <use x="547.457031" xlink:href="#DejaVuSans-111"/>
      <use x="608.638672" xlink:href="#DejaVuSans-109"/>
      <use x="706.050781" xlink:href="#DejaVuSans-32"/>
      <use x="737.837891" xlink:href="#DejaVuSans-87"/>
      <use x="830.839844" xlink:href="#DejaVuSans-101"/>
      <use x="892.363281" xlink:href="#DejaVuSans-97"/>
      <use x="953.642578" xlink:href="#DejaVuSans-116"/>
      <use x="992.851562" xlink:href="#DejaVuSans-104"/>
      <use x="1056.230469" xlink:href="#DejaVuSans-101"/>
      <use x="1117.753906" xlink:href="#DejaVuSans-114"/>
      <use x="1158.867188" xlink:href="#DejaVuSans-66"/>
      <use x="1227.470703" xlink:href="#DejaVuSans-105"/>
      <use x="1255.253906" xlink:href="#DejaVuSans-116"/>
      <use x="1294.462891" xlink:href="#DejaVuSans-73"/>
      <use x="1323.955078" xlink:href="#DejaVuSans-79"/>
     </g>
    </g>
   </g>
   <g id="matplotlib.axis_2">
    <g id="ytick_1">
     <g id="line2d_8">
      <defs>
       <path d="M 0 0 
L -3.5 0 
" id="m0a96b7918d" style="stroke:#000000;stroke-width:0.8;"/>
      </defs>
      <g>
       <use style="stroke:#000000;stroke-width:0.8;" x="57.6" xlink:href="#m0a96b7918d" y="306.041025"/>
      </g>
     </g>
     <g id="text_9">
      <!-- 5.0 -->
      <g transform="translate(34.696875 309.840244)scale(0.1 -0.1)">
       <defs>
        <path d="M 10.6875 12.40625 
L 21 12.40625 
L 21 0 
L 10.6875 0 
z
" id="DejaVuSans-46"/>
       </defs>
       <use xlink:href="#DejaVuSans-53"/>
       <use x="63.623047" xlink:href="#DejaVuSans-46"/>
       <use x="95.410156" xlink:href="#DejaVuSans-48"/>
      </g>
     </g>
    </g>
    <g id="ytick_2">
     <g id="line2d_9">
      <g>
       <use style="stroke:#000000;stroke-width:0.8;" x="57.6" xlink:href="#m0a96b7918d" y="270.785929"/>
      </g>
     </g>
     <g id="text_10">
      <!-- 7.5 -->
      <g transform="translate(34.696875 274.585148)scale(0.1 -0.1)">
       <use xlink:href="#DejaVuSans-55"/>
       <use x="63.623047" xlink:href="#DejaVuSans-46"/>
       <use x="95.410156" xlink:href="#DejaVuSans-53"/>
      </g>
     </g>
    </g>
    <g id="ytick_3">
     <g id="line2d_10">
      <g>
       <use style="stroke:#000000;stroke-width:0.8;" x="57.6" xlink:href="#m0a96b7918d" y="235.530833"/>
      </g>
     </g>
     <g id="text_11">
      <!-- 10.0 -->
      <g transform="translate(28.334375 239.330052)scale(0.1 -0.1)">
       <use xlink:href="#DejaVuSans-49"/>
       <use x="63.623047" xlink:href="#DejaVuSans-48"/>
       <use x="127.246094" xlink:href="#DejaVuSans-46"/>
       <use x="159.033203" xlink:href="#DejaVuSans-48"/>
      </g>
     </g>
    </g>
    <g id="ytick_4">
     <g id="line2d_11">
      <g>
       <use style="stroke:#000000;stroke-width:0.8;" x="57.6" xlink:href="#m0a96b7918d" y="200.275737"/>
      </g>
     </g>
     <g id="text_12">
      <!-- 12.5 -->
      <g transform="translate(28.334375 204.074956)scale(0.1 -0.1)">
       <defs>
        <path d="M 19.1875 8.296875 
L 53.609375 8.296875 
L 53.609375 0 
L 7.328125 0 
L 7.328125 8.296875 
Q 12.9375 14.109375 22.625 23.890625 
Q 32.328125 33.6875 34.8125 36.53125 
Q 39.546875 41.84375 41.421875 45.53125 
Q 43.3125 49.21875 43.3125 52.78125 
Q 43.3125 58.59375 39.234375 62.25 
Q 35.15625 65.921875 28.609375 65.921875 
Q 23.96875 65.921875 18.8125 64.3125 
Q 13.671875 62.703125 7.8125 59.421875 
L 7.8125 69.390625 
Q 13.765625 71.78125 18.9375 73 
Q 24.125 74.21875 28.421875 74.21875 
Q 39.75 74.21875 46.484375 68.546875 
Q 53.21875 62.890625 53.21875 53.421875 
Q 53.21875 48.921875 51.53125 44.890625 
Q 49.859375 40.875 45.40625 35.40625 
Q 44.1875 33.984375 37.640625 27.21875 
Q 31.109375 20.453125 19.1875 8.296875 
z
" id="DejaVuSans-50"/>
       </defs>
       <use xlink:href="#DejaVuSans-49"/>
       <use x="63.623047" xlink:href="#DejaVuSans-50"/>
       <use x="127.246094" xlink:href="#DejaVuSans-46"/>
       <use x="159.033203" xlink:href="#DejaVuSans-53"/>
      </g>
     </g>
    </g>
    <g id="ytick_5">
     <g id="line2d_12">
      <g>
       <use style="stroke:#000000;stroke-width:0.8;" x="57.6" xlink:href="#m0a96b7918d" y="165.020641"/>
      </g>
     </g>
     <g id="text_13">
      <!-- 15.0 -->
      <g transform="translate(28.334375 168.819859)scale(0.1 -0.1)">
       <use xlink:href="#DejaVuSans-49"/>
       <use x="63.623047" xlink:href="#DejaVuSans-53"/>
       <use x="127.246094" xlink:href="#DejaVuSans-46"/>
       <use x="159.033203" xlink:href="#DejaVuSans-48"/>
      </g>
     </g>
    </g>
    <g id="ytick_6">
     <g id="line2d_13">
      <g>
       <use style="stroke:#000000;stroke-width:0.8;" x="57.6" xlink:href="#m0a96b7918d" y="129.765545"/>
      </g>
     </g>
     <g id="text_14">
      <!-- 17.5 -->
      <g transform="translate(28.334375 133.564763)scale(0.1 -0.1)">
       <use xlink:href="#DejaVuSans-49"/>
       <use x="63.623047" xlink:href="#DejaVuSans-55"/>
       <use x="127.246094" xlink:href="#DejaVuSans-46"/>
       <use x="159.033203" xlink:href="#DejaVuSans-53"/>
      </g>
     </g>
    </g>
    <g id="ytick_7">
     <g id="line2d_14">
      <g>
       <use style="stroke:#000000;stroke-width:0.8;" x="57.6" xlink:href="#m0a96b7918d" y="94.510448"/>
      </g>
     </g>
     <g id="text_15">
      <!-- 20.0 -->
      <g transform="translate(28.334375 98.309667)scale(0.1 -0.1)">
       <use xlink:href="#DejaVuSans-50"/>
       <use x="63.623047" xlink:href="#DejaVuSans-48"/>
       <use x="127.246094" xlink:href="#DejaVuSans-46"/>
       <use x="159.033203" xlink:href="#DejaVuSans-48"/>
      </g>
     </g>
    </g>
    <g id="ytick_8">
     <g id="line2d_15">
      <g>
       <use style="stroke:#000000;stroke-width:0.8;" x="57.6" xlink:href="#m0a96b7918d" y="59.255352"/>
      </g>
     </g>
     <g id="text_16">
      <!-- 22.5 -->
      <g transform="translate(28.334375 63.054571)scale(0.1 -0.1)">
       <use xlink:href="#DejaVuSans-50"/>
       <use x="63.623047" xlink:href="#DejaVuSans-50"/>
       <use x="127.246094" xlink:href="#DejaVuSans-46"/>
       <use x="159.033203" xlink:href="#DejaVuSans-53"/>
      </g>
     </g>
    </g>
   </g>
   <g id="line2d_16">
    <path clip-path="url(#pb960caec18)" d="M 73.832727 281.780819 
L 79.272554 196.186146 
L 84.477139 275.718117 
L 89.799344 229.439881 
L 95.12155 244.533026 
L 100.443756 247.258905 
L 102.173472 216.820248 
L 105.765961 267.876347 
L 108.171066 246.966411 
L 111.088167 272.192373 
L 111.407499 256.906269 
L 116.242723 267.738479 
L 116.410373 228.331742 
L 117.840981 278.138515 
L 120.822481 100.588427 
L 121.732578 227.132456 
L 124.311719 275.761599 
L 127.054784 278.206344 
L 130.107069 274.379599 
L 131.168317 143.559353 
L 131.709053 247.461158 
L 132.37699 257.226215 
L 135.714013 77.859787 
L 136.534164 263.371783 
L 137.292046 168.152378 
L 137.699195 258.246397 
L 138.002561 286.044335 
L 138.979186 280.70834 
L 139.544936 257.844489 
L 139.973374 184.306589 
L 141.991554 285.08853 
L 143.021401 254.746271 
L 144.233799 268.016641 
L 144.518005 280.414096 
L 146.023125 201.932184 
L 146.746413 208.80106 
L 146.98538 276.952751 
L 147.597966 275.594724 
L 147.870995 253.77041 
L 148.276015 280.132055 
L 148.343607 251.355059 
L 148.967901 285.738791 
L 149.345246 60.374114 
L 149.40858 209.01195 
L 150.444281 286.819947 
L 151.528947 266.602912 
L 152.167611 258.546367 
L 153.292193 280.02864 
L 153.665812 221.961147 
L 154.326298 279.198803 
L 154.750478 264.133021 
L 156.577591 279.92405 
L 156.743112 276.989741 
L 156.755353 228.093183 
L 156.77877 236.845577 
L 157.290234 165.054721 
L 158.30784 281.208511 
L 158.33658 195.038844 
L 158.988018 245.697286 
L 159.285529 214.453574 
L 159.454243 252.674211 
L 160.379775 271.587181 
L 160.390951 258.014906 
L 160.752329 187.489419 
L 161.081774 270.333382 
L 162.13557 273.592235 
L 162.38465 53.568 
L 162.395294 278.266053 
L 163.209591 288.427579 
L 163.825903 251.746163 
L 164.310224 266.192857 
L 164.860007 261.612553 
L 165.623212 185.695796 
L 166.240588 251.273996 
L 166.242184 287.504438 
L 167.434358 270.765417 
L 167.551979 247.596302 
L 169.327999 276.566355 
L 169.632429 248.838457 
L 170.966706 260.908626 
L 171.768763 277.195848 
L 172.121093 138.802601 
L 172.472358 261.221927 
L 173.371811 230.333057 
L 173.490496 248.719059 
L 173.960979 265.329616 
L 174.04507 192.484361 
L 174.946119 280.459928 
L 174.954635 268.159552 
L 176.322974 288.519243 
L 176.915868 276.055861 
L 177.4582 175.640651 
L 177.649268 246.365899 
L 178.660487 259.179952 
L 180.201265 271.876487 
L 180.719116 241.859626 
L 181.730867 234.361371 
L 181.786218 213.30132 
L 181.947481 294.10365 
L 182.100228 275.194831 
L 182.131097 240.410138 
L 182.152386 276.540971 
L 182.552083 284.470547 
L 183.433973 78.85975 
L 183.687842 268.275766 
L 184.750154 275.80978 
L 185.222766 266.108753 
L 185.599046 255.998382 
L 186.208439 177.906378 
L 186.617716 271.773072 
L 188.427799 281.879533 
L 189.104251 258.032986 
L 189.223468 276.417343 
L 190.921252 275.224154 
L 191.484873 285.608582 
L 192.099056 201.493213 
L 192.324185 269.478286 
L 192.604133 236.217602 
L 194.379089 275.820357 
L 194.489791 251.19307 
L 195.106634 262.681958 
L 195.284396 196.511775 
L 195.639387 161.092048 
L 195.641516 282.496497 
L 196.243458 258.830854 
L 196.270601 281.119469 
L 199.939729 264.173248 
L 200.3043 195.887653 
L 201.012154 279.68633 
L 201.105825 275.44587 
L 201.147338 231.403636 
L 201.394288 283.582354 
L 201.565663 229.17266 
L 202.601364 232.487357 
L 203.017029 185.855227 
L 203.508268 288.130352 
L 204.995293 168.074274 
L 205.013388 238.182016 
L 206.887869 254.927973 
L 207.793176 273.089262 
L 208.322203 164.547581 
L 208.908178 201.429284 
L 209.52449 267.488616 
L 211.103588 228.566776 
L 211.406421 254.995675 
L 212.104163 194.081416 
L 212.210075 235.571156 
L 214.253801 272.756689 
L 215.117063 285.455575 
L 215.20488 250.699926 
L 215.667912 276.394695 
L 216.231001 269.703918 
L 216.53277 252.188866 
L 217.53228 257.11792 
L 218.666974 257.968351 
L 218.971937 243.688221 
L 222.414339 259.683394 
L 222.854486 259.767537 
L 223.542647 253.754897 
L 223.759793 225.972905 
L 224.675212 279.85354 
L 224.936 225.857919 
L 224.937065 230.98175 
L 225.287266 192.504232 
L 225.296314 259.538546 
L 225.822148 160.881051 
L 226.466667 251.638887 
L 227.055303 278.706574 
L 227.520464 278.584357 
L 228.176692 262.731127 
L 228.213415 266.848897 
L 228.761602 263.97263 
L 228.886674 261.687294 
L 229.858508 269.516746 
L 230.873985 238.199964 
L 231.653156 227.013202 
L 232.501516 241.511182 
L 233.41321 270.891054 
L 233.418532 161.186061 
L 233.498897 269.257781 
L 233.745315 280.534668 
L 235.338784 267.343622 
L 235.909856 211.491985 
L 236.469752 278.997655 
L 237.489487 222.387733 
L 238.326138 270.583373 
L 238.821103 258.115635 
L 239.310214 256.172371 
L 241.676466 223.591535 
L 243.224164 257.600523 
L 243.913921 287.923752 
L 244.143308 245.71811 
L 244.32107 283.030345 
L 246.20247 227.429754 
L 246.609086 288.596804 
L 247.83479 159.941737 
L 247.862466 278.356374 
L 248.349448 189.487677 
L 248.447908 284.369326 
L 249.053575 275.615877 
L 249.433049 267.971565 
L 249.465514 257.477981 
L 250.914219 198.179234 
L 251.840282 232.265669 
L 253.683362 189.106922 
L 253.822804 269.628555 
L 254.03516 275.995625 
L 254.78772 264.871299 
L 255.354535 270.483278 
L 259.191845 254.653197 
L 259.713421 281.545785 
L 260.109925 250.802239 
L 260.582005 274.466561 
L 261.812499 265.829063 
L 262.148862 247.240226 
L 262.856716 288.648511 
L 263.646531 279.931644 
L 263.686448 274.921673 
L 264.770049 263.362833 
L 264.946214 277.924125 
L 265.425212 285.309747 
L 265.432131 260.073711 
L 265.594991 278.756401 
L 266.200125 286.693029 
L 269.227396 212.969922 
L 269.30031 281.644499 
L 269.561631 250.769496 
L 270.754337 259.920309 
L 270.911874 222.877459 
L 271.265269 256.95824 
L 272.34887 235.603907 
L 272.685233 249.48715 
L 273.216389 153.633245 
L 273.825249 264.232007 
L 274.514475 253.209365 
L 275.458102 282.385497 
L 276.076542 240.923618 
L 277.529505 286.510984 
L 277.867465 273.419164 
L 278.113351 271.892939 
L 278.535934 268.462618 
L 279.288494 207.024203 
L 279.654129 228.35398 
L 280.088421 218.395574 
L 280.298116 271.361549 
L 280.44288 278.299752 
L 281.398748 237.765184 
L 286.223328 147.260298 
L 286.613445 283.752754 
L 286.720954 250.088236 
L 286.754484 253.709445 
L 287.246255 193.133597 
L 287.346313 275.190466 
L 287.625729 266.583522 
L 288.538487 286.19789 
L 290.269801 266.541216 
L 290.397001 226.952948 
L 291.244296 274.76014 
L 291.468893 158.26034 
L 292.043159 241.413322 
L 292.182601 283.86416 
L 292.550898 282.120834 
L 292.823927 283.147776 
L 293.87453 273.338398 
L 294.554176 254.824591 
L 294.834124 286.373382 
L 295.298753 275.756898 
L 296.335518 288.067977 
L 296.783648 252.887878 
L 297.365365 232.849252 
L 297.583576 191.393803 
L 298.949786 278.455675 
L 300.430956 231.838663 
L 301.039816 293.215221 
L 301.355423 278.194627 
L 301.41237 278.219114 
L 302.537485 275.989581 
L 302.687571 250.351135 
L 303.543381 278.26001 
L 303.839296 276.659428 
L 305.920279 234.862909 
L 305.99745 257.215068 
L 306.525413 262.740716 
L 306.908612 282.749159 
L 307.995939 256.225575 
L 308.019356 186.031268 
L 308.254066 271.10002 
L 308.316868 268.703528 
L 309.154583 257.26325 
L 309.78899 285.268723 
L 311.379265 282.391907 
L 311.553833 283.766072 
L 311.787478 281.692446 
L 312.175999 251.447334 
L 313.331982 262.365591 
L 313.769467 232.257985 
L 314.709901 282.44479 
L 315.637562 275.230635 
L 315.847789 274.719116 
L 316.757886 278.603159 
L 317.422097 252.333412 
L 317.610503 287.981015 
L 318.654188 247.11691 
L 319.124671 199.993696 
L 319.218874 282.131562 
L 319.325318 276.666479 
L 321.599496 210.001015 
L 323.014139 273.489492 
L 323.931155 244.460949 
L 323.976393 267.759543 
L 324.45007 275.965223 
L 324.552788 266.074566 
L 325.259045 137.307001 
L 325.526752 269.944146 
L 325.585296 251.065404 
L 325.689079 278.959068 
L 325.727931 245.988037 
L 326.351162 260.009622 
L 326.502312 229.029793 
L 327.647651 203.78513 
L 328.486963 238.6961 
L 328.570521 291.070536 
L 328.767443 262.66198 
L 329.298599 246.28471 
L 329.612609 280.565693 
L 329.618464 276.53016 
L 329.922894 253.76947 
L 330.600411 248.122671 
L 330.827137 282.431863 
L 331.709026 285.316157 
L 332.112981 259.440839 
L 332.211974 285.273423 
L 333.744237 104.160473 
L 334.123711 266.56301 
L 334.239203 267.533059 
L 334.241332 181.938386 
L 334.383434 276.509187 
L 334.620805 260.464834 
L 334.765037 281.374546 
L 334.942266 275.682862 
L 335.004004 263.631495 
L 335.640539 289.312162 
L 335.733678 260.470288 
L 336.033318 243.403296 
L 336.149342 280.275426 
L 336.604923 283.576478 
L 336.620357 269.212545 
L 337.922701 284.163123 
L 338.62949 279.583037 
L 338.773722 211.944166 
L 339.096248 244.74331 
L 339.175548 283.196898 
L 339.521492 272.010243 
L 340.245844 230.499931 
L 340.310243 280.20139 
L 340.700893 238.924724 
L 340.760501 287.5321 
L 340.830754 247.707943 
L 340.885041 286.193581 
L 341.199583 166.148804 
L 341.797799 269.95861 
L 342.082005 278.767683 
L 342.261895 260.051928 
L 343.929342 271.602672 
L 344.011837 295.488 
L 344.553637 291.699252 
L 344.805378 202.140731 
L 344.880421 280.190579 
L 345.117791 210.140113 
L 345.265216 208.646995 
L 345.299278 252.052012 
L 346.511144 288.079729 
L 346.534562 280.576269 
L 346.622911 282.387206 
L 346.778851 272.666628 
L 346.788964 231.762455 
L 346.976837 214.304915 
L 347.11415 222.338376 
L 347.759734 278.876974 
L 348.337725 262.003885 
L 350.122793 246.496343 
L 350.189321 288.850641 
L 350.512911 197.4236 
L 350.587422 211.247989 
L 351.1718 277.869853 
L 352.026546 283.419789 
L 352.505012 282.216639 
L 352.55238 286.581388 
L 352.903113 259.989409 
L 353.062247 285.634201 
L 353.30494 265.398951 
L 353.490685 274.835384 
L 353.731781 263.481073 
L 353.740829 280.929996 
L 354.334787 286.293044 
L 354.380026 251.604807 
L 355.021351 278.013224 
L 355.323653 285.499056 
L 355.762202 221.661478 
L 355.777105 258.109281 
L 355.909627 233.409484 
L 355.941561 273.922458 
L 356.091115 276.859207 
L 356.098566 241.166948 
L 356.241733 273.484119 
L 358.115149 245.479038 
L 358.806504 283.668925 
L 358.811294 242.598305 
L 359.027908 280.208911 
L 359.729907 281.777827 
L 360.593168 263.991567 
L 361.231833 262.13513 
L 361.274411 274.635786 
L 361.492621 251.377294 
L 361.621419 282.890179 
L 361.785875 290.440325 
L 362.018987 282.392992 
L 362.438377 288.263483 
L 363.100992 278.307016 
L 363.27556 286.174387 
L 363.329847 283.463662 
L 363.464498 267.60733 
L 363.677919 294.792299 
L 364.202156 283.876146 
L 365.277774 255.595683 
L 365.726968 277.792292 
L 366.554039 259.641376 
L 366.885612 268.040732 
L 367.343322 274.620402 
L 367.692459 282.970091 
L 368.070867 276.581867 
L 368.31835 285.289876 
L 368.485999 281.127424 
L 368.930936 266.442501 
L 369.307216 288.886679 
L 369.71809 288.723722 
L 369.829324 261.571874 
L 371.101331 258.081403 
L 371.250353 281.551208 
L 371.876244 259.667032 
L 372.011961 288.578856 
L 373.720921 287.213797 
L 374.167454 250.596511 
L 374.599085 284.20466 
L 375.922717 279.545465 
L 376.323479 280.988113 
L 376.616733 265.579927 
L 376.963209 276.450718 
L 376.98503 265.802782 
L 377.19845 252.284636 
L 377.703527 280.631502 
L 377.716301 263.495175 
L 377.781232 269.801137 
L 377.981347 277.082489 
L 379.257079 230.33152 
L 379.28848 266.155333 
L 379.674872 284.048255 
L 379.809524 280.204076 
L 380.163983 282.047048 
L 380.290119 263.820804 
L 380.647239 283.580507 
L 381.575964 279.216934 
L 382.520656 256.722296 
L 382.771864 287.312236 
L 382.988478 288.567515 
L 384.575559 285.254621 
L 385.7837 281.907737 
L 386.195107 283.286844 
L 386.394157 255.722783 
L 387.412295 265.840814 
L 387.842861 230.845616 
L 388.185611 285.224066 
L 390.705676 261.117572 
L 393.165067 261.776934 
L 393.991606 265.227162 
L 398.487273 255.569459 
L 398.487273 255.569459 
" style="fill:none;stroke:#0000ff;stroke-linecap:square;stroke-width:1.5;"/>
   </g>
   <g id="patch_3">
    <path d="M 57.6 307.584 
L 57.6 41.472 
" style="fill:none;stroke:#000000;stroke-linecap:square;stroke-linejoin:miter;stroke-width:0.8;"/>
   </g>
   <g id="patch_4">
    <path d="M 414.72 307.584 
L 414.72 41.472 
" style="fill:none;stroke:#000000;stroke-linecap:square;stroke-linejoin:miter;stroke-width:0.8;"/>
   </g>
   <g id="patch_5">
    <path d="M 57.6 307.584 
L 414.72 307.584 
" style="fill:none;stroke:#000000;stroke-linecap:square;stroke-linejoin:miter;stroke-width:0.8;"/>
   </g>
   <g id="patch_6">
    <path d="M 57.6 41.472 
L 414.72 41.472 
" style="fill:none;stroke:#000000;stroke-linecap:square;stroke-linejoin:miter;stroke-width:0.8;"/>
   </g>
   <g id="text_17">
    <!-- humidity-&gt;ping_night -->
    <g transform="translate(171.05625 35.472)scale(0.12 -0.12)">
     <defs>
      <path d="M 4.890625 31.390625 
L 31.203125 31.390625 
L 31.203125 23.390625 
L 4.890625 23.390625 
z
" id="DejaVuSans-45"/>
      <path d="M 10.59375 49.21875 
L 10.59375 58.109375 
L 73.1875 35.40625 
L 73.1875 27.296875 
L 10.59375 4.59375 
L 10.59375 13.484375 
L 60.890625 31.296875 
z
" id="DejaVuSans-62"/>
      <path d="M 18.109375 8.203125 
L 18.109375 -20.796875 
L 9.078125 -20.796875 
L 9.078125 54.6875 
L 18.109375 54.6875 
L 18.109375 46.390625 
Q 20.953125 51.265625 25.265625 53.625 
Q 29.59375 56 35.59375 56 
Q 45.5625 56 51.78125 48.09375 
Q 58.015625 40.1875 58.015625 27.296875 
Q 58.015625 14.40625 51.78125 6.484375 
Q 45.5625 -1.421875 35.59375 -1.421875 
Q 29.59375 -1.421875 25.265625 0.953125 
Q 20.953125 3.328125 18.109375 8.203125 
z
M 48.6875 27.296875 
Q 48.6875 37.203125 44.609375 42.84375 
Q 40.53125 48.484375 33.40625 48.484375 
Q 26.265625 48.484375 22.1875 42.84375 
Q 18.109375 37.203125 18.109375 27.296875 
Q 18.109375 17.390625 22.1875 11.75 
Q 26.265625 6.109375 33.40625 6.109375 
Q 40.53125 6.109375 44.609375 11.75 
Q 48.6875 17.390625 48.6875 27.296875 
z
" id="DejaVuSans-112"/>
      <path d="M 54.890625 33.015625 
L 54.890625 0 
L 45.90625 0 
L 45.90625 32.71875 
Q 45.90625 40.484375 42.875 44.328125 
Q 39.84375 48.1875 33.796875 48.1875 
Q 26.515625 48.1875 22.3125 43.546875 
Q 18.109375 38.921875 18.109375 30.90625 
L 18.109375 0 
L 9.078125 0 
L 9.078125 54.6875 
L 18.109375 54.6875 
L 18.109375 46.1875 
Q 21.34375 51.125 25.703125 53.5625 
Q 30.078125 56 35.796875 56 
Q 45.21875 56 50.046875 50.171875 
Q 54.890625 44.34375 54.890625 33.015625 
z
" id="DejaVuSans-110"/>
      <path d="M 45.40625 27.984375 
Q 45.40625 37.75 41.375 43.109375 
Q 37.359375 48.484375 30.078125 48.484375 
Q 22.859375 48.484375 18.828125 43.109375 
Q 14.796875 37.75 14.796875 27.984375 
Q 14.796875 18.265625 18.828125 12.890625 
Q 22.859375 7.515625 30.078125 7.515625 
Q 37.359375 7.515625 41.375 12.890625 
Q 45.40625 18.265625 45.40625 27.984375 
z
M 54.390625 6.78125 
Q 54.390625 -7.171875 48.1875 -13.984375 
Q 42 -20.796875 29.203125 -20.796875 
Q 24.46875 -20.796875 20.265625 -20.09375 
Q 16.0625 -19.390625 12.109375 -17.921875 
L 12.109375 -9.1875 
Q 16.0625 -11.328125 19.921875 -12.34375 
Q 23.78125 -13.375 27.78125 -13.375 
Q 36.625 -13.375 41.015625 -8.765625 
Q 45.40625 -4.15625 45.40625 5.171875 
L 45.40625 9.625 
Q 42.625 4.78125 38.28125 2.390625 
Q 33.9375 0 27.875 0 
Q 17.828125 0 11.671875 7.65625 
Q 5.515625 15.328125 5.515625 27.984375 
Q 5.515625 40.671875 11.671875 48.328125 
Q 17.828125 56 27.875 56 
Q 33.9375 56 38.28125 53.609375 
Q 42.625 51.21875 45.40625 46.390625 
L 45.40625 54.6875 
L 54.390625 54.6875 
z
" id="DejaVuSans-103"/>
      <path d="M 50.984375 -16.609375 
L 50.984375 -23.578125 
L -0.984375 -23.578125 
L -0.984375 -16.609375 
z
" id="DejaVuSans-95"/>
     </defs>
     <use xlink:href="#DejaVuSans-104"/>
     <use x="63.378906" xlink:href="#DejaVuSans-117"/>
     <use x="126.757812" xlink:href="#DejaVuSans-109"/>
     <use x="224.169922" xlink:href="#DejaVuSans-105"/>
     <use x="251.953125" xlink:href="#DejaVuSans-100"/>
     <use x="315.429688" xlink:href="#DejaVuSans-105"/>
     <use x="343.212891" xlink:href="#DejaVuSans-116"/>
     <use x="382.421875" xlink:href="#DejaVuSans-121"/>
     <use x="439.851562" xlink:href="#DejaVuSans-45"/>
     <use x="475.935547" xlink:href="#DejaVuSans-62"/>
     <use x="559.724609" xlink:href="#DejaVuSans-112"/>
     <use x="623.201172" xlink:href="#DejaVuSans-105"/>
     <use x="650.984375" xlink:href="#DejaVuSans-110"/>
     <use x="714.363281" xlink:href="#DejaVuSans-103"/>
     <use x="777.839844" xlink:href="#DejaVuSans-95"/>
     <use x="827.839844" xlink:href="#DejaVuSans-110"/>
     <use x="891.21875" xlink:href="#DejaVuSans-105"/>
     <use x="919.001953" xlink:href="#DejaVuSans-103"/>
     <use x="982.478516" xlink:href="#DejaVuSans-104"/>
     <use x="1045.857422" xlink:href="#DejaVuSans-116"/>
    </g>
   </g>
  </g>
  <g id="legend_1">
   <g id="patch_7">
    <path d="M 415.451563 22.678125 
L 453.8 22.678125 
Q 455.8 22.678125 455.8 20.678125 
L 455.8 7 
Q 455.8 5 453.8 5 
L 415.451563 5 
Q 413.451563 5 413.451563 7 
L 413.451563 20.678125 
Q 413.451563 22.678125 415.451563 22.678125 
z
" style="fill:#ffffff;opacity:0.8;stroke:#cccccc;stroke-linejoin:miter;"/>
   </g>
   <g id="line2d_17">
    <path d="M 417.451563 13.098438 
L 437.451563 13.098438 
" style="fill:none;stroke:#0000ff;stroke-linecap:square;stroke-width:1.5;"/>
   </g>
   <g id="line2d_18"/>
   <g id="text_18">
    <!-- p -->
    <g transform="translate(445.451563 16.598438)scale(0.1 -0.1)">
     <use xlink:href="#DejaVuSans-112"/>
    </g>
   </g>
  </g>
 </g>
 <defs>
  <clipPath id="pb960caec18">
   <rect height="266.112" width="357.12" x="57.6" y="41.472"/>
  </clipPath>
 </defs>
</svg>
