<?xml version="1.0" encoding="utf-8" standalone="no"?>
<!DOCTYPE svg PUBLIC "-//W3C//DTD SVG 1.1//EN"
  "http://www.w3.org/Graphics/SVG/1.1/DTD/svg11.dtd">
<!-- Created with matplotlib (https://matplotlib.org/) -->
<svg height="2090.594375pt" version="1.1" viewBox="0 0 2068.621875 2090.594375" width="2068.621875pt" xmlns="http://www.w3.org/2000/svg" xmlns:xlink="http://www.w3.org/1999/xlink">
 <metadata>
  <rdf:RDF xmlns:cc="http://creativecommons.org/ns#" xmlns:dc="http://purl.org/dc/elements/1.1/" xmlns:rdf="http://www.w3.org/1999/02/22-rdf-syntax-ns#">
   <cc:Work>
    <dc:type rdf:resource="http://purl.org/dc/dcmitype/StillImage"/>
    <dc:date>2022-07-24T11:59:09.331512</dc:date>
    <dc:format>image/svg+xml</dc:format>
    <dc:creator>
     <cc:Agent>
      <dc:title>Matplotlib v3.3.2, https://matplotlib.org/</dc:title>
     </cc:Agent>
    </dc:creator>
   </cc:Work>
  </rdf:RDF>
 </metadata>
 <defs>
  <style type="text/css">*{stroke-linecap:butt;stroke-linejoin:round;}</style>
 </defs>
 <g id="figure_1">
  <g id="patch_1">
   <path d="M 0 2090.594375 
L 2068.621875 2090.594375 
L 2068.621875 0 
L 0 0 
z
" style="fill:#ffffff;"/>
  </g>
  <g id="axes_1">
   <g id="patch_2">
    <path d="M 50.421875 2052.76 
L 1836.021875 2052.76 
L 1836.021875 278.68 
L 50.421875 278.68 
z
" style="fill:#ffffff;"/>
   </g>
   <g id="matplotlib.axis_1">
    <g id="xtick_1">
     <g id="line2d_1">
      <defs>
       <path d="M 0 0 
L 0 3.5 
" id="mad9dd4ba5f" style="stroke:#000000;stroke-width:0.8;"/>
      </defs>
      <g>
       <use style="stroke:#000000;stroke-width:0.8;" x="243.757928" xlink:href="#mad9dd4ba5f" y="2052.76"/>
      </g>
     </g>
     <g id="text_1">
      <text style="font-family:DejaVu Sans;font-size:10px;font-stretch:normal;font-style:normal;font-weight:normal;text-anchor:middle;" transform="rotate(-0, 243.757928, 2067.358437)" x="243.757928" y="2067.358437">1</text>
     </g>
    </g>
    <g id="xtick_2">
     <g id="line2d_2">
      <g>
       <use style="stroke:#000000;stroke-width:0.8;" x="488.325571" xlink:href="#mad9dd4ba5f" y="2052.76"/>
      </g>
     </g>
     <g id="text_2">
      <text style="font-family:DejaVu Sans;font-size:10px;font-stretch:normal;font-style:normal;font-weight:normal;text-anchor:middle;" transform="rotate(-0, 488.325571, 2067.358437)" x="488.325571" y="2067.358437">2</text>
     </g>
    </g>
    <g id="xtick_3">
     <g id="line2d_3">
      <g>
       <use style="stroke:#000000;stroke-width:0.8;" x="732.893213" xlink:href="#mad9dd4ba5f" y="2052.76"/>
      </g>
     </g>
     <g id="text_3">
      <text style="font-family:DejaVu Sans;font-size:10px;font-stretch:normal;font-style:normal;font-weight:normal;text-anchor:middle;" transform="rotate(-0, 732.893213, 2067.358437)" x="732.893213" y="2067.358437">3</text>
     </g>
    </g>
    <g id="xtick_4">
     <g id="line2d_4">
      <g>
       <use style="stroke:#000000;stroke-width:0.8;" x="977.460856" xlink:href="#mad9dd4ba5f" y="2052.76"/>
      </g>
     </g>
     <g id="text_4">
      <text style="font-family:DejaVu Sans;font-size:10px;font-stretch:normal;font-style:normal;font-weight:normal;text-anchor:middle;" transform="rotate(-0, 977.460856, 2067.358437)" x="977.460856" y="2067.358437">4</text>
     </g>
    </g>
    <g id="xtick_5">
     <g id="line2d_5">
      <g>
       <use style="stroke:#000000;stroke-width:0.8;" x="1222.028498" xlink:href="#mad9dd4ba5f" y="2052.76"/>
      </g>
     </g>
     <g id="text_5">
      <text style="font-family:DejaVu Sans;font-size:10px;font-stretch:normal;font-style:normal;font-weight:normal;text-anchor:middle;" transform="rotate(-0, 1222.028498, 2067.358437)" x="1222.028498" y="2067.358437">5</text>
     </g>
    </g>
    <g id="xtick_6">
     <g id="line2d_6">
      <g>
       <use style="stroke:#000000;stroke-width:0.8;" x="1466.596141" xlink:href="#mad9dd4ba5f" y="2052.76"/>
      </g>
     </g>
     <g id="text_6">
      <text style="font-family:DejaVu Sans;font-size:10px;font-stretch:normal;font-style:normal;font-weight:normal;text-anchor:middle;" transform="rotate(-0, 1466.596141, 2067.358437)" x="1466.596141" y="2067.358437">6</text>
     </g>
    </g>
    <g id="xtick_7">
     <g id="line2d_7">
      <g>
       <use style="stroke:#000000;stroke-width:0.8;" x="1711.163784" xlink:href="#mad9dd4ba5f" y="2052.76"/>
      </g>
     </g>
     <g id="text_7">
      <text style="font-family:DejaVu Sans;font-size:10px;font-stretch:normal;font-style:normal;font-weight:normal;text-anchor:middle;" transform="rotate(-0, 1711.163784, 2067.358437)" x="1711.163784" y="2067.358437">7</text>
     </g>
    </g>
    <g id="text_8">
     <text style="font-family:DejaVu Sans;font-size:10px;font-stretch:normal;font-style:normal;font-weight:normal;text-anchor:middle;" transform="rotate(-0, 943.221875, 2081.036562)" x="943.221875" y="2081.036562">wind_speed from WeatherBitIO</text>
    </g>
   </g>
   <g id="matplotlib.axis_2">
    <g id="ytick_1">
     <g id="line2d_8">
      <defs>
       <path d="M 0 0 
L -3.5 0 
" id="mceb21a8f23" style="stroke:#000000;stroke-width:0.8;"/>
      </defs>
      <g>
       <use style="stroke:#000000;stroke-width:0.8;" x="50.421875" xlink:href="#mceb21a8f23" y="1873.931989"/>
      </g>
     </g>
     <g id="text_9">
      <text style="font-family:DejaVu Sans;font-size:10px;font-stretch:normal;font-style:normal;font-weight:normal;text-anchor:end;" transform="rotate(-0, 43.421875, 1877.731207)" x="43.421875" y="1877.731207">1.10</text>
     </g>
    </g>
    <g id="ytick_2">
     <g id="line2d_9">
      <g>
       <use style="stroke:#000000;stroke-width:0.8;" x="50.421875" xlink:href="#mceb21a8f23" y="1622.819617"/>
      </g>
     </g>
     <g id="text_10">
      <text style="font-family:DejaVu Sans;font-size:10px;font-stretch:normal;font-style:normal;font-weight:normal;text-anchor:end;" transform="rotate(-0, 43.421875, 1626.618835)" x="43.421875" y="1626.618835">1.15</text>
     </g>
    </g>
    <g id="ytick_3">
     <g id="line2d_10">
      <g>
       <use style="stroke:#000000;stroke-width:0.8;" x="50.421875" xlink:href="#mceb21a8f23" y="1371.707245"/>
      </g>
     </g>
     <g id="text_11">
      <text style="font-family:DejaVu Sans;font-size:10px;font-stretch:normal;font-style:normal;font-weight:normal;text-anchor:end;" transform="rotate(-0, 43.421875, 1375.506464)" x="43.421875" y="1375.506464">1.20</text>
     </g>
    </g>
    <g id="ytick_4">
     <g id="line2d_11">
      <g>
       <use style="stroke:#000000;stroke-width:0.8;" x="50.421875" xlink:href="#mceb21a8f23" y="1120.594873"/>
      </g>
     </g>
     <g id="text_12">
      <text style="font-family:DejaVu Sans;font-size:10px;font-stretch:normal;font-style:normal;font-weight:normal;text-anchor:end;" transform="rotate(-0, 43.421875, 1124.394092)" x="43.421875" y="1124.394092">1.25</text>
     </g>
    </g>
    <g id="ytick_5">
     <g id="line2d_12">
      <g>
       <use style="stroke:#000000;stroke-width:0.8;" x="50.421875" xlink:href="#mceb21a8f23" y="869.482501"/>
      </g>
     </g>
     <g id="text_13">
      <text style="font-family:DejaVu Sans;font-size:10px;font-stretch:normal;font-style:normal;font-weight:normal;text-anchor:end;" transform="rotate(-0, 43.421875, 873.28172)" x="43.421875" y="873.28172">1.30</text>
     </g>
    </g>
    <g id="ytick_6">
     <g id="line2d_13">
      <g>
       <use style="stroke:#000000;stroke-width:0.8;" x="50.421875" xlink:href="#mceb21a8f23" y="618.370129"/>
      </g>
     </g>
     <g id="text_14">
      <text style="font-family:DejaVu Sans;font-size:10px;font-stretch:normal;font-style:normal;font-weight:normal;text-anchor:end;" transform="rotate(-0, 43.421875, 622.169348)" x="43.421875" y="622.169348">1.35</text>
     </g>
    </g>
    <g id="ytick_7">
     <g id="line2d_14">
      <g>
       <use style="stroke:#000000;stroke-width:0.8;" x="50.421875" xlink:href="#mceb21a8f23" y="367.257757"/>
      </g>
     </g>
     <g id="text_15">
      <text style="font-family:DejaVu Sans;font-size:10px;font-stretch:normal;font-style:normal;font-weight:normal;text-anchor:end;" transform="rotate(-0, 43.421875, 371.056976)" x="43.421875" y="371.056976">1.40</text>
     </g>
    </g>
    <g id="text_16">
     <text style="font-family:DejaVu Sans;font-size:10px;font-stretch:normal;font-style:normal;font-weight:normal;text-anchor:middle;" transform="rotate(-90, 14.798438, 1165.72)" x="14.798438" y="1165.72">Throughput_night[Bit/s]</text>
    </g>
    <g id="text_17">
     <text style="font-family:DejaVu Sans;font-size:10px;font-stretch:normal;font-style:normal;font-weight:normal;text-anchor:start;" transform="rotate(-0, 50.421875, 275.68)" x="50.421875" y="275.68">1e7</text>
    </g>
   </g>
   <g id="line2d_15">
    <path clip-path="url(#p56db307ed7)" d="M 131.585511 657.136548 
L 215.707242 1055.997361 
L 234.523788 524.196977 
L 247.847099 554.663551 
L 253.873246 1972.12 
L 260.1782 877.691466 
L 264.511938 614.54008 
L 269.095136 528.135822 
L 276.578906 1495.117583 
L 277.339511 665.049414 
L 280.79036 1676.985655 
L 281.971622 1372.548644 
L 286.24911 1836.928698 
L 311.099628 472.171211 
L 320.711137 677.120471 
L 320.887225 493.975049 
L 322.129629 1200.690642 
L 327.353594 1081.179945 
L 329.532692 598.631576 
L 333.115608 1747.775478 
L 339.784967 1478.366016 
L 346.855418 783.982071 
L 348.904895 744.962174 
L 352.514713 955.629859 
L 365.572179 359.32 
L 377.531537 600.154971 
L 381.720981 439.757647 
L 382.525608 1676.27291 
L 383.973449 602.338678 
L 384.298724 830.433155 
L 387.238427 1739.06223 
L 398.168155 823.673757 
L 398.287993 597.484159 
L 398.290439 671.911376 
L 401.313295 776.601239 
L 409.93675 490.021663 
L 411.110675 606.388101 
L 411.157142 746.088037 
L 420.286852 645.228699 
L 422.46595 570.86132 
L 422.964868 1180.052115 
L 432.089687 1483.2175 
L 433.190241 608.12089 
L 438.648991 504.584751 
L 438.986494 564.689324 
L 442.028916 699.761521 
L 450.393129 768.582509 
L 450.63036 641.701429 
L 453.315713 612.23504 
L 456.815476 721.220235 
L 461.154106 623.226627 
L 463.433476 898.471384 
L 466.696008 1242.508629 
L 471.954213 1280.158851 
L 472.191443 459.433168 
L 473.849612 678.307584 
L 476.305071 670.919386 
L 483.634763 554.357068 
L 494.422642 580.679804 
L 494.911777 632.918346 
L 501.050425 641.907896 
L 503.337133 608.930139 
L 517.057377 629.689926 
L 520.442193 675.325354 
L 521.506063 714.838639 
L 522.846293 860.405115 
L 522.963686 596.76716 
L 527.018617 1691.425616 
L 530.276258 903.379164 
L 539.293467 571.523835 
L 540.44049 998.995372 
L 543.984275 679.499635 
L 547.369091 685.033079 
L 552.483 699.335664 
L 556.714021 649.106348 
L 559.51432 767.774964 
L 561.072216 955.915855 
L 563.963005 608.722054 
L 573.591634 596.027074 
L 575.076159 1223.199967 
L 579.52729 563.029154 
L 601.413649 1134.293601 
L 606.975117 539.177013 
L 607.982735 626.803105 
L 608.266434 835.095812 
L 676.44211 1391.523751 
L 677.09266 545.326414 
L 704.484236 1202.076156 
L 709.847604 575.699503 
L 715.626738 619.048228 
L 716.362886 606.460723 
L 721.833864 1447.153058 
L 724.22329 1184.07557 
L 732.007878 1080.702512 
L 747.694447 1056.491639 
L 748.875709 621.032128 
L 761.720401 674.694966 
L 761.850022 724.99124 
L 765.74843 648.333908 
L 775.362384 663.590503 
L 836.396685 648.274175 
L 846.372599 992.934274 
L 896.460053 634.585501 
L 900.084545 625.171589 
L 923.029881 1114.036458 
L 932.993567 1103.878099 
L 940.853971 633.225104 
L 941.695284 810.675474 
L 945.985 603.175735 
L 991.816976 632.93748 
L 1017.034346 703.147394 
L 1080.005623 591.333893 
L 1081.424115 791.69411 
L 1096.037032 666.961519 
L 1124.062038 1097.251676 
L 1140.364917 562.772795 
L 1181.327551 526.489989 
L 1186.196893 550.979242 
L 1201.609546 584.967463 
L 1217.310789 577.668966 
L 1221.204305 1083.741415 
L 1272.38253 624.658931 
L 1415.931508 501.77251 
L 1458.914271 495.998999 
L 1645.869114 571.555188 
L 1718.334507 611.256346 
L 1754.858239 489.383474 
" style="fill:none;stroke:#0000ff;stroke-linecap:square;stroke-width:1.5;"/>
   </g>
   <g id="patch_3">
    <path d="M 50.421875 2052.76 
L 50.421875 278.68 
" style="fill:none;stroke:#000000;stroke-linecap:square;stroke-linejoin:miter;stroke-width:0.8;"/>
   </g>
   <g id="patch_4">
    <path d="M 1836.021875 2052.76 
L 1836.021875 278.68 
" style="fill:none;stroke:#000000;stroke-linecap:square;stroke-linejoin:miter;stroke-width:0.8;"/>
   </g>
   <g id="patch_5">
    <path d="M 50.421875 2052.76 
L 1836.021875 2052.76 
" style="fill:none;stroke:#000000;stroke-linecap:square;stroke-linejoin:miter;stroke-width:0.8;"/>
   </g>
   <g id="patch_6">
    <path d="M 50.421875 278.68 
L 1836.021875 278.68 
" style="fill:none;stroke:#000000;stroke-linecap:square;stroke-linejoin:miter;stroke-width:0.8;"/>
   </g>
   <g id="text_18">
    <text style="font-family:DejaVu Sans;font-size:12px;font-stretch:normal;font-style:normal;font-weight:normal;text-anchor:middle;" transform="rotate(-0, 943.221875, 272.68)" x="943.221875" y="272.68">wind_speed-&gt;Throughput_night</text>
   </g>
  </g>
  <g id="legend_1">
   <g id="patch_7">
    <path d="M 1910.879687 22.95625 
L 2061.621875 22.95625 
Q 2063.621875 22.95625 2063.621875 20.95625 
L 2063.621875 7 
Q 2063.621875 5 2061.621875 5 
L 1910.879687 5 
Q 1908.879687 5 1908.879687 7 
L 1908.879687 20.95625 
Q 1908.879687 22.95625 1910.879687 22.95625 
z
" style="fill:#ffffff;opacity:0.8;stroke:#cccccc;stroke-linejoin:miter;"/>
   </g>
   <g id="line2d_16">
    <path d="M 1912.879687 13.098438 
L 1932.879687 13.098438 
" style="fill:none;stroke:#0000ff;stroke-linecap:square;stroke-width:1.5;"/>
   </g>
   <g id="line2d_17"/>
   <g id="text_19">
    <text style="font-family:DejaVu Sans;font-size:10px;font-stretch:normal;font-style:normal;font-weight:normal;text-anchor:start;" transform="rotate(-0, 1940.879687, 16.598438)" x="1940.879687" y="16.598438">Throughput_night[Bit/s]</text>
   </g>
  </g>
 </g>
 <defs>
  <clipPath id="p56db307ed7">
   <rect height="1774.08" width="1785.6" x="50.421875" y="278.68"/>
  </clipPath>
 </defs>
</svg>
