<?xml version="1.0" encoding="utf-8" standalone="no"?>
<!DOCTYPE svg PUBLIC "-//W3C//DTD SVG 1.1//EN"
  "http://www.w3.org/Graphics/SVG/1.1/DTD/svg11.dtd">
<!-- Created with matplotlib (https://matplotlib.org/) -->
<svg height="2090.31625pt" version="1.1" viewBox="0 0 2062.259375 2090.31625" width="2062.259375pt" xmlns="http://www.w3.org/2000/svg" xmlns:xlink="http://www.w3.org/1999/xlink">
 <metadata>
  <rdf:RDF xmlns:cc="http://creativecommons.org/ns#" xmlns:dc="http://purl.org/dc/elements/1.1/" xmlns:rdf="http://www.w3.org/1999/02/22-rdf-syntax-ns#">
   <cc:Work>
    <dc:type rdf:resource="http://purl.org/dc/dcmitype/StillImage"/>
    <dc:date>2022-07-24T11:58:43.000201</dc:date>
    <dc:format>image/svg+xml</dc:format>
    <dc:creator>
     <cc:Agent>
      <dc:title>Matplotlib v3.3.2, https://matplotlib.org/</dc:title>
     </cc:Agent>
    </dc:creator>
   </cc:Work>
  </rdf:RDF>
 </metadata>
 <defs>
  <style type="text/css">*{stroke-linecap:butt;stroke-linejoin:round;}</style>
 </defs>
 <g id="figure_1">
  <g id="patch_1">
   <path d="M 0 2090.31625 
L 2062.259375 2090.31625 
L 2062.259375 0 
L 0 0 
z
" style="fill:#ffffff;"/>
  </g>
  <g id="axes_1">
   <g id="patch_2">
    <path d="M 44.059375 2052.76 
L 1829.659375 2052.76 
L 1829.659375 278.68 
L 44.059375 278.68 
z
" style="fill:#ffffff;"/>
   </g>
   <g id="matplotlib.axis_1">
    <g id="xtick_1">
     <g id="line2d_1">
      <defs>
       <path d="M 0 0 
L 0 3.5 
" id="m32887415d4" style="stroke:#000000;stroke-width:0.8;"/>
      </defs>
      <g>
       <use style="stroke:#000000;stroke-width:0.8;" x="96.235998" xlink:href="#m32887415d4" y="2052.76"/>
      </g>
     </g>
     <g id="text_1">
      <text style="font-family:DejaVu Sans;font-size:10px;font-stretch:normal;font-style:normal;font-weight:normal;text-anchor:middle;" transform="rotate(-0, 96.235998, 2067.358438)" x="96.235998" y="2067.358438">7.5</text>
     </g>
    </g>
    <g id="xtick_2">
     <g id="line2d_2">
      <g>
       <use style="stroke:#000000;stroke-width:0.8;" x="337.79444" xlink:href="#m32887415d4" y="2052.76"/>
      </g>
     </g>
     <g id="text_2">
      <text style="font-family:DejaVu Sans;font-size:10px;font-stretch:normal;font-style:normal;font-weight:normal;text-anchor:middle;" transform="rotate(-0, 337.79444, 2067.358438)" x="337.79444" y="2067.358438">10.0</text>
     </g>
    </g>
    <g id="xtick_3">
     <g id="line2d_3">
      <g>
       <use style="stroke:#000000;stroke-width:0.8;" x="579.352881" xlink:href="#m32887415d4" y="2052.76"/>
      </g>
     </g>
     <g id="text_3">
      <text style="font-family:DejaVu Sans;font-size:10px;font-stretch:normal;font-style:normal;font-weight:normal;text-anchor:middle;" transform="rotate(-0, 579.352881, 2067.358438)" x="579.352881" y="2067.358438">12.5</text>
     </g>
    </g>
    <g id="xtick_4">
     <g id="line2d_4">
      <g>
       <use style="stroke:#000000;stroke-width:0.8;" x="820.911323" xlink:href="#m32887415d4" y="2052.76"/>
      </g>
     </g>
     <g id="text_4">
      <text style="font-family:DejaVu Sans;font-size:10px;font-stretch:normal;font-style:normal;font-weight:normal;text-anchor:middle;" transform="rotate(-0, 820.911323, 2067.358438)" x="820.911323" y="2067.358438">15.0</text>
     </g>
    </g>
    <g id="xtick_5">
     <g id="line2d_5">
      <g>
       <use style="stroke:#000000;stroke-width:0.8;" x="1062.469765" xlink:href="#m32887415d4" y="2052.76"/>
      </g>
     </g>
     <g id="text_5">
      <text style="font-family:DejaVu Sans;font-size:10px;font-stretch:normal;font-style:normal;font-weight:normal;text-anchor:middle;" transform="rotate(-0, 1062.469765, 2067.358438)" x="1062.469765" y="2067.358438">17.5</text>
     </g>
    </g>
    <g id="xtick_6">
     <g id="line2d_6">
      <g>
       <use style="stroke:#000000;stroke-width:0.8;" x="1304.028206" xlink:href="#m32887415d4" y="2052.76"/>
      </g>
     </g>
     <g id="text_6">
      <text style="font-family:DejaVu Sans;font-size:10px;font-stretch:normal;font-style:normal;font-weight:normal;text-anchor:middle;" transform="rotate(-0, 1304.028206, 2067.358438)" x="1304.028206" y="2067.358438">20.0</text>
     </g>
    </g>
    <g id="xtick_7">
     <g id="line2d_7">
      <g>
       <use style="stroke:#000000;stroke-width:0.8;" x="1545.586648" xlink:href="#m32887415d4" y="2052.76"/>
      </g>
     </g>
     <g id="text_7">
      <text style="font-family:DejaVu Sans;font-size:10px;font-stretch:normal;font-style:normal;font-weight:normal;text-anchor:middle;" transform="rotate(-0, 1545.586648, 2067.358438)" x="1545.586648" y="2067.358438">22.5</text>
     </g>
    </g>
    <g id="xtick_8">
     <g id="line2d_8">
      <g>
       <use style="stroke:#000000;stroke-width:0.8;" x="1787.145089" xlink:href="#m32887415d4" y="2052.76"/>
      </g>
     </g>
     <g id="text_8">
      <text style="font-family:DejaVu Sans;font-size:10px;font-stretch:normal;font-style:normal;font-weight:normal;text-anchor:middle;" transform="rotate(-0, 1787.145089, 2067.358438)" x="1787.145089" y="2067.358438">25.0</text>
     </g>
    </g>
    <g id="text_9">
     <text style="font-family:DejaVu Sans;font-size:10px;font-stretch:normal;font-style:normal;font-weight:normal;text-anchor:middle;" transform="rotate(-0, 936.859375, 2081.036562)" x="936.859375" y="2081.036562">temperature from WeatherAPI</text>
    </g>
   </g>
   <g id="matplotlib.axis_2">
    <g id="ytick_1">
     <g id="line2d_9">
      <defs>
       <path d="M 0 0 
L -3.5 0 
" id="m0da507e4f9" style="stroke:#000000;stroke-width:0.8;"/>
      </defs>
      <g>
       <use style="stroke:#000000;stroke-width:0.8;" x="44.059375" xlink:href="#m0da507e4f9" y="1956.348801"/>
      </g>
     </g>
     <g id="text_10">
      <text style="font-family:DejaVu Sans;font-size:10px;font-stretch:normal;font-style:normal;font-weight:normal;text-anchor:end;" transform="rotate(-0, 37.059375, 1960.14802)" x="37.059375" y="1960.14802">0.4</text>
     </g>
    </g>
    <g id="ytick_2">
     <g id="line2d_10">
      <g>
       <use style="stroke:#000000;stroke-width:0.8;" x="44.059375" xlink:href="#m0da507e4f9" y="1633.821864"/>
      </g>
     </g>
     <g id="text_11">
      <text style="font-family:DejaVu Sans;font-size:10px;font-stretch:normal;font-style:normal;font-weight:normal;text-anchor:end;" transform="rotate(-0, 37.059375, 1637.621083)" x="37.059375" y="1637.621083">0.6</text>
     </g>
    </g>
    <g id="ytick_3">
     <g id="line2d_11">
      <g>
       <use style="stroke:#000000;stroke-width:0.8;" x="44.059375" xlink:href="#m0da507e4f9" y="1311.294927"/>
      </g>
     </g>
     <g id="text_12">
      <text style="font-family:DejaVu Sans;font-size:10px;font-stretch:normal;font-style:normal;font-weight:normal;text-anchor:end;" transform="rotate(-0, 37.059375, 1315.094146)" x="37.059375" y="1315.094146">0.8</text>
     </g>
    </g>
    <g id="ytick_4">
     <g id="line2d_12">
      <g>
       <use style="stroke:#000000;stroke-width:0.8;" x="44.059375" xlink:href="#m0da507e4f9" y="988.76799"/>
      </g>
     </g>
     <g id="text_13">
      <text style="font-family:DejaVu Sans;font-size:10px;font-stretch:normal;font-style:normal;font-weight:normal;text-anchor:end;" transform="rotate(-0, 37.059375, 992.567209)" x="37.059375" y="992.567209">1.0</text>
     </g>
    </g>
    <g id="ytick_5">
     <g id="line2d_13">
      <g>
       <use style="stroke:#000000;stroke-width:0.8;" x="44.059375" xlink:href="#m0da507e4f9" y="666.241053"/>
      </g>
     </g>
     <g id="text_14">
      <text style="font-family:DejaVu Sans;font-size:10px;font-stretch:normal;font-style:normal;font-weight:normal;text-anchor:end;" transform="rotate(-0, 37.059375, 670.040272)" x="37.059375" y="670.040272">1.2</text>
     </g>
    </g>
    <g id="ytick_6">
     <g id="line2d_14">
      <g>
       <use style="stroke:#000000;stroke-width:0.8;" x="44.059375" xlink:href="#m0da507e4f9" y="343.714116"/>
      </g>
     </g>
     <g id="text_15">
      <text style="font-family:DejaVu Sans;font-size:10px;font-stretch:normal;font-style:normal;font-weight:normal;text-anchor:end;" transform="rotate(-0, 37.059375, 347.513335)" x="37.059375" y="347.513335">1.4</text>
     </g>
    </g>
    <g id="text_16">
     <text style="font-family:DejaVu Sans;font-size:10px;font-stretch:normal;font-style:normal;font-weight:normal;text-anchor:middle;" transform="rotate(-90, 14.798438, 1165.72)" x="14.798438" y="1165.72">Throughput_night[Bit/s]</text>
    </g>
    <g id="text_17">
     <text style="font-family:DejaVu Sans;font-size:10px;font-stretch:normal;font-style:normal;font-weight:normal;text-anchor:start;" transform="rotate(-0, 44.059375, 275.68)" x="44.059375" y="275.68">1e7</text>
    </g>
   </g>
   <g id="line2d_15">
    <path clip-path="url(#pd6522330ea)" d="M 125.223011 414.478026 
L 154.210024 414.418987 
L 163.872362 429.472275 
L 192.859375 584.60635 
L 202.521713 739.321997 
L 221.846388 634.507464 
L 231.508726 420.123519 
L 241.171063 535.412699 
L 250.833401 436.27089 
L 270.158076 427.576203 
L 289.482752 414.929626 
L 299.145089 508.538565 
L 308.807427 474.118833 
L 318.469765 511.310029 
L 328.132102 417.763576 
L 337.79444 448.338519 
L 347.456778 604.542981 
L 357.119115 427.769422 
L 366.781453 543.607979 
L 376.443791 520.872871 
L 386.106128 474.291331 
L 395.768466 514.266113 
L 405.430804 378.968108 
L 415.093141 389.684719 
L 424.755479 456.250292 
L 434.417817 535.493721 
L 444.080154 440.744013 
L 453.742492 526.713147 
L 463.40483 448.981815 
L 473.067167 497.827888 
L 482.729505 446.597581 
L 492.391843 583.663559 
L 502.05418 693.853865 
L 511.716518 470.557126 
L 521.378856 439.246542 
L 531.041193 459.179679 
L 540.703531 458.781464 
L 550.365869 412.745521 
L 569.690544 478.289609 
L 579.352881 497.685875 
L 589.015219 438.338278 
L 598.677557 545.36497 
L 608.339894 413.514361 
L 618.002232 493.139766 
L 627.66457 407.152576 
L 637.326907 521.955026 
L 646.989245 489.260088 
L 656.651583 488.045934 
L 666.31392 527.756691 
L 675.976258 451.057714 
L 685.638596 457.392271 
L 695.300933 400.37904 
L 704.963271 495.925143 
L 714.625609 412.626624 
L 724.287946 474.940724 
L 733.950284 535.342557 
L 743.612622 453.137567 
L 753.274959 436.444247 
L 762.937297 1972.12 
L 772.599635 457.220495 
L 782.261972 359.32 
L 791.92431 466.444571 
L 801.586648 586.538466 
L 811.248985 558.721404 
L 820.911323 835.395477 
L 830.573661 531.139934 
L 840.235998 868.877352 
L 849.898336 580.038931 
L 859.560674 479.264917 
L 869.223011 658.995192 
L 878.885349 483.707268 
L 888.547687 416.55376 
L 898.210024 745.614254 
L 907.872362 420.835022 
L 917.5347 843.3508 
L 927.197037 524.042479 
L 936.859375 407.583701 
L 946.521713 600.397129 
L 956.18405 1679.760322 
L 965.846388 1055.378925 
L 975.508726 554.142718 
L 985.171063 451.767871 
L 994.833401 450.030319 
L 1004.495739 601.17743 
L 1014.158076 410.743295 
L 1023.820414 646.385759 
L 1033.482752 569.321088 
L 1043.145089 417.398607 
L 1052.807427 713.254658 
L 1062.469765 424.252904 
L 1081.79444 434.080991 
L 1091.456778 628.991709 
L 1101.119115 441.383316 
L 1110.781453 434.025119 
L 1130.106128 412.454006 
L 1139.768466 424.422491 
L 1149.430804 527.645122 
L 1159.093141 419.211717 
L 1178.417817 429.169182 
L 1188.080154 682.019418 
L 1207.40483 755.518811 
L 1226.729505 434.929294 
L 1246.05418 424.753243 
L 1265.378856 513.174568 
L 1275.041193 540.764777 
L 1294.365869 442.422538 
L 1304.028206 514.570264 
L 1313.690544 398.864831 
L 1323.352881 430.139253 
L 1333.015219 465.93715 
L 1352.339894 481.52266 
L 1381.326907 452.401451 
L 1400.651583 458.872243 
L 1487.612622 544.72728 
L 1593.898336 423.748036 
L 1642.210024 438.625654 
L 1700.18405 439.03435 
L 1748.495739 414.002901 
" style="fill:none;stroke:#0000ff;stroke-linecap:square;stroke-width:1.5;"/>
   </g>
   <g id="patch_3">
    <path d="M 44.059375 2052.76 
L 44.059375 278.68 
" style="fill:none;stroke:#000000;stroke-linecap:square;stroke-linejoin:miter;stroke-width:0.8;"/>
   </g>
   <g id="patch_4">
    <path d="M 1829.659375 2052.76 
L 1829.659375 278.68 
" style="fill:none;stroke:#000000;stroke-linecap:square;stroke-linejoin:miter;stroke-width:0.8;"/>
   </g>
   <g id="patch_5">
    <path d="M 44.059375 2052.76 
L 1829.659375 2052.76 
" style="fill:none;stroke:#000000;stroke-linecap:square;stroke-linejoin:miter;stroke-width:0.8;"/>
   </g>
   <g id="patch_6">
    <path d="M 44.059375 278.68 
L 1829.659375 278.68 
" style="fill:none;stroke:#000000;stroke-linecap:square;stroke-linejoin:miter;stroke-width:0.8;"/>
   </g>
   <g id="text_18">
    <text style="font-family:DejaVu Sans;font-size:12px;font-stretch:normal;font-style:normal;font-weight:normal;text-anchor:middle;" transform="rotate(-0, 936.859375, 272.68)" x="936.859375" y="272.68">temperature-&gt;Throughput_night</text>
   </g>
  </g>
  <g id="legend_1">
   <g id="patch_7">
    <path d="M 1904.517187 22.95625 
L 2055.259375 22.95625 
Q 2057.259375 22.95625 2057.259375 20.95625 
L 2057.259375 7 
Q 2057.259375 5 2055.259375 5 
L 1904.517187 5 
Q 1902.517187 5 1902.517187 7 
L 1902.517187 20.95625 
Q 1902.517187 22.95625 1904.517187 22.95625 
z
" style="fill:#ffffff;opacity:0.8;stroke:#cccccc;stroke-linejoin:miter;"/>
   </g>
   <g id="line2d_16">
    <path d="M 1906.517187 13.098438 
L 1926.517187 13.098438 
" style="fill:none;stroke:#0000ff;stroke-linecap:square;stroke-width:1.5;"/>
   </g>
   <g id="line2d_17"/>
   <g id="text_19">
    <text style="font-family:DejaVu Sans;font-size:10px;font-stretch:normal;font-style:normal;font-weight:normal;text-anchor:start;" transform="rotate(-0, 1934.517187, 16.598438)" x="1934.517187" y="16.598438">Throughput_night[Bit/s]</text>
   </g>
  </g>
 </g>
 <defs>
  <clipPath id="pd6522330ea">
   <rect height="1774.08" width="1785.6" x="44.059375" y="278.68"/>
  </clipPath>
 </defs>
</svg>
