<?xml version="1.0" encoding="utf-8" standalone="no"?>
<!DOCTYPE svg PUBLIC "-//W3C//DTD SVG 1.1//EN"
  "http://www.w3.org/Graphics/SVG/1.1/DTD/svg11.dtd">
<!-- Created with matplotlib (https://matplotlib.org/) -->
<svg height="2090.594375pt" version="1.1" viewBox="0 0 2062.259375 2090.594375" width="2062.259375pt" xmlns="http://www.w3.org/2000/svg" xmlns:xlink="http://www.w3.org/1999/xlink">
 <metadata>
  <rdf:RDF xmlns:cc="http://creativecommons.org/ns#" xmlns:dc="http://purl.org/dc/elements/1.1/" xmlns:rdf="http://www.w3.org/1999/02/22-rdf-syntax-ns#">
   <cc:Work>
    <dc:type rdf:resource="http://purl.org/dc/dcmitype/StillImage"/>
    <dc:date>2022-07-24T11:45:35.846127</dc:date>
    <dc:format>image/svg+xml</dc:format>
    <dc:creator>
     <cc:Agent>
      <dc:title>Matplotlib v3.3.2, https://matplotlib.org/</dc:title>
     </cc:Agent>
    </dc:creator>
   </cc:Work>
  </rdf:RDF>
 </metadata>
 <defs>
  <style type="text/css">*{stroke-linecap:butt;stroke-linejoin:round;}</style>
 </defs>
 <g id="figure_1">
  <g id="patch_1">
   <path d="M 0 2090.594375 
L 2062.259375 2090.594375 
L 2062.259375 0 
L 0 0 
z
" style="fill:#ffffff;"/>
  </g>
  <g id="axes_1">
   <g id="patch_2">
    <path d="M 44.059375 2052.76 
L 1829.659375 2052.76 
L 1829.659375 278.68 
L 44.059375 278.68 
z
" style="fill:#ffffff;"/>
   </g>
   <g id="matplotlib.axis_1">
    <g id="xtick_1">
     <g id="line2d_1">
      <defs>
       <path d="M 0 0 
L 0 3.5 
" id="m14c95dbc3f" style="stroke:#000000;stroke-width:0.8;"/>
      </defs>
      <g>
       <use style="stroke:#000000;stroke-width:0.8;" x="76.622032" xlink:href="#m14c95dbc3f" y="2052.76"/>
      </g>
     </g>
     <g id="text_1">
      <text style="font-family:DejaVu Sans;font-size:10px;font-stretch:normal;font-style:normal;font-weight:normal;text-anchor:middle;" transform="rotate(-0, 76.622032, 2067.358437)" x="76.622032" y="2067.358437">995</text>
     </g>
    </g>
    <g id="xtick_2">
     <g id="line2d_2">
      <g>
       <use style="stroke:#000000;stroke-width:0.8;" x="319.626931" xlink:href="#m14c95dbc3f" y="2052.76"/>
      </g>
     </g>
     <g id="text_2">
      <text style="font-family:DejaVu Sans;font-size:10px;font-stretch:normal;font-style:normal;font-weight:normal;text-anchor:middle;" transform="rotate(-0, 319.626931, 2067.358437)" x="319.626931" y="2067.358437">1000</text>
     </g>
    </g>
    <g id="xtick_3">
     <g id="line2d_3">
      <g>
       <use style="stroke:#000000;stroke-width:0.8;" x="562.63183" xlink:href="#m14c95dbc3f" y="2052.76"/>
      </g>
     </g>
     <g id="text_3">
      <text style="font-family:DejaVu Sans;font-size:10px;font-stretch:normal;font-style:normal;font-weight:normal;text-anchor:middle;" transform="rotate(-0, 562.63183, 2067.358437)" x="562.63183" y="2067.358437">1005</text>
     </g>
    </g>
    <g id="xtick_4">
     <g id="line2d_4">
      <g>
       <use style="stroke:#000000;stroke-width:0.8;" x="805.636729" xlink:href="#m14c95dbc3f" y="2052.76"/>
      </g>
     </g>
     <g id="text_4">
      <text style="font-family:DejaVu Sans;font-size:10px;font-stretch:normal;font-style:normal;font-weight:normal;text-anchor:middle;" transform="rotate(-0, 805.636729, 2067.358437)" x="805.636729" y="2067.358437">1010</text>
     </g>
    </g>
    <g id="xtick_5">
     <g id="line2d_5">
      <g>
       <use style="stroke:#000000;stroke-width:0.8;" x="1048.641629" xlink:href="#m14c95dbc3f" y="2052.76"/>
      </g>
     </g>
     <g id="text_5">
      <text style="font-family:DejaVu Sans;font-size:10px;font-stretch:normal;font-style:normal;font-weight:normal;text-anchor:middle;" transform="rotate(-0, 1048.641629, 2067.358437)" x="1048.641629" y="2067.358437">1015</text>
     </g>
    </g>
    <g id="xtick_6">
     <g id="line2d_6">
      <g>
       <use style="stroke:#000000;stroke-width:0.8;" x="1291.646528" xlink:href="#m14c95dbc3f" y="2052.76"/>
      </g>
     </g>
     <g id="text_6">
      <text style="font-family:DejaVu Sans;font-size:10px;font-stretch:normal;font-style:normal;font-weight:normal;text-anchor:middle;" transform="rotate(-0, 1291.646528, 2067.358437)" x="1291.646528" y="2067.358437">1020</text>
     </g>
    </g>
    <g id="xtick_7">
     <g id="line2d_7">
      <g>
       <use style="stroke:#000000;stroke-width:0.8;" x="1534.651427" xlink:href="#m14c95dbc3f" y="2052.76"/>
      </g>
     </g>
     <g id="text_7">
      <text style="font-family:DejaVu Sans;font-size:10px;font-stretch:normal;font-style:normal;font-weight:normal;text-anchor:middle;" transform="rotate(-0, 1534.651427, 2067.358437)" x="1534.651427" y="2067.358437">1025</text>
     </g>
    </g>
    <g id="xtick_8">
     <g id="line2d_8">
      <g>
       <use style="stroke:#000000;stroke-width:0.8;" x="1777.656327" xlink:href="#m14c95dbc3f" y="2052.76"/>
      </g>
     </g>
     <g id="text_8">
      <text style="font-family:DejaVu Sans;font-size:10px;font-stretch:normal;font-style:normal;font-weight:normal;text-anchor:middle;" transform="rotate(-0, 1777.656327, 2067.358437)" x="1777.656327" y="2067.358437">1030</text>
     </g>
    </g>
    <g id="text_9">
     <text style="font-family:DejaVu Sans;font-size:10px;font-stretch:normal;font-style:normal;font-weight:normal;text-anchor:middle;" transform="rotate(-0, 936.859375, 2081.036562)" x="936.859375" y="2081.036562">air_pressure from BuienRadar</text>
    </g>
   </g>
   <g id="matplotlib.axis_2">
    <g id="ytick_1">
     <g id="line2d_9">
      <defs>
       <path d="M 0 0 
L -3.5 0 
" id="me2b86559d6" style="stroke:#000000;stroke-width:0.8;"/>
      </defs>
      <g>
       <use style="stroke:#000000;stroke-width:0.8;" x="44.059375" xlink:href="#me2b86559d6" y="2009.397193"/>
      </g>
     </g>
     <g id="text_10">
      <text style="font-family:DejaVu Sans;font-size:10px;font-stretch:normal;font-style:normal;font-weight:normal;text-anchor:end;" transform="rotate(-0, 37.059375, 2013.196412)" x="37.059375" y="2013.196412">5.0</text>
     </g>
    </g>
    <g id="ytick_2">
     <g id="line2d_10">
      <g>
       <use style="stroke:#000000;stroke-width:0.8;" x="44.059375" xlink:href="#me2b86559d6" y="1784.835789"/>
      </g>
     </g>
     <g id="text_11">
      <text style="font-family:DejaVu Sans;font-size:10px;font-stretch:normal;font-style:normal;font-weight:normal;text-anchor:end;" transform="rotate(-0, 37.059375, 1788.635008)" x="37.059375" y="1788.635008">5.5</text>
     </g>
    </g>
    <g id="ytick_3">
     <g id="line2d_11">
      <g>
       <use style="stroke:#000000;stroke-width:0.8;" x="44.059375" xlink:href="#me2b86559d6" y="1560.274386"/>
      </g>
     </g>
     <g id="text_12">
      <text style="font-family:DejaVu Sans;font-size:10px;font-stretch:normal;font-style:normal;font-weight:normal;text-anchor:end;" transform="rotate(-0, 37.059375, 1564.073605)" x="37.059375" y="1564.073605">6.0</text>
     </g>
    </g>
    <g id="ytick_4">
     <g id="line2d_12">
      <g>
       <use style="stroke:#000000;stroke-width:0.8;" x="44.059375" xlink:href="#me2b86559d6" y="1335.712982"/>
      </g>
     </g>
     <g id="text_13">
      <text style="font-family:DejaVu Sans;font-size:10px;font-stretch:normal;font-style:normal;font-weight:normal;text-anchor:end;" transform="rotate(-0, 37.059375, 1339.512201)" x="37.059375" y="1339.512201">6.5</text>
     </g>
    </g>
    <g id="ytick_5">
     <g id="line2d_13">
      <g>
       <use style="stroke:#000000;stroke-width:0.8;" x="44.059375" xlink:href="#me2b86559d6" y="1111.151579"/>
      </g>
     </g>
     <g id="text_14">
      <text style="font-family:DejaVu Sans;font-size:10px;font-stretch:normal;font-style:normal;font-weight:normal;text-anchor:end;" transform="rotate(-0, 37.059375, 1114.950798)" x="37.059375" y="1114.950798">7.0</text>
     </g>
    </g>
    <g id="ytick_6">
     <g id="line2d_14">
      <g>
       <use style="stroke:#000000;stroke-width:0.8;" x="44.059375" xlink:href="#me2b86559d6" y="886.590175"/>
      </g>
     </g>
     <g id="text_15">
      <text style="font-family:DejaVu Sans;font-size:10px;font-stretch:normal;font-style:normal;font-weight:normal;text-anchor:end;" transform="rotate(-0, 37.059375, 890.389394)" x="37.059375" y="890.389394">7.5</text>
     </g>
    </g>
    <g id="ytick_7">
     <g id="line2d_15">
      <g>
       <use style="stroke:#000000;stroke-width:0.8;" x="44.059375" xlink:href="#me2b86559d6" y="662.028772"/>
      </g>
     </g>
     <g id="text_16">
      <text style="font-family:DejaVu Sans;font-size:10px;font-stretch:normal;font-style:normal;font-weight:normal;text-anchor:end;" transform="rotate(-0, 37.059375, 665.827991)" x="37.059375" y="665.827991">8.0</text>
     </g>
    </g>
    <g id="ytick_8">
     <g id="line2d_16">
      <g>
       <use style="stroke:#000000;stroke-width:0.8;" x="44.059375" xlink:href="#me2b86559d6" y="437.467368"/>
      </g>
     </g>
     <g id="text_17">
      <text style="font-family:DejaVu Sans;font-size:10px;font-stretch:normal;font-style:normal;font-weight:normal;text-anchor:end;" transform="rotate(-0, 37.059375, 441.266587)" x="37.059375" y="441.266587">8.5</text>
     </g>
    </g>
    <g id="text_18">
     <text style="font-family:DejaVu Sans;font-size:10px;font-stretch:normal;font-style:normal;font-weight:normal;text-anchor:middle;" transform="rotate(-90, 14.798438, 1165.72)" x="14.798438" y="1165.72">ping_night[ms]</text>
    </g>
   </g>
   <g id="line2d_17">
    <path clip-path="url(#pb820e0c8c5)" d="M 125.223011 1432.723509 
L 130.083109 1657.734035 
L 139.803305 1130.912982 
L 149.523501 1305.172632 
L 164.103795 1713.874386 
L 173.823991 1467.755088 
L 188.404285 810.239298 
L 198.124481 1686.477895 
L 212.704775 1253.523509 
L 227.285069 1603.839298 
L 246.725461 1465.958596 
L 251.585559 809.341053 
L 256.445657 1101.270877 
L 261.305755 1284.06386 
L 266.165853 1441.256842 
L 275.886049 1270.141053 
L 280.746147 1640.218246 
L 285.606245 1706.688421 
L 290.466343 1778.098947 
L 295.326441 1776.302456 
L 300.186539 1885.888421 
L 305.046637 1732.288421 
L 582.072222 1818.52 
L 586.93232 1271.488421 
L 591.792418 1518.955088 
L 596.652516 1626.744561 
L 601.512614 1886.786667 
L 606.372712 359.32 
L 611.23281 1742.169123 
L 616.092908 1366.253333 
L 620.953006 1625.846316 
L 625.813104 1289.004211 
L 630.673202 1506.379649 
L 635.5333 432.077895 
L 640.393398 1358.169123 
L 645.253496 1610.127018 
L 650.113594 1355.923509 
L 654.973692 1556.681404 
L 659.83379 1699.502456 
L 664.693888 1508.625263 
L 669.553986 1309.66386 
L 674.414084 1289.902456 
L 679.274182 1688.723509 
L 684.13428 1738.57614 
L 688.994378 1666.716491 
L 693.854476 1682.884912 
L 698.714574 1190.646316 
L 703.574672 1596.653333 
L 708.43477 1647.404211 
L 713.294868 1575.095439 
L 718.154966 1562.070877 
L 723.015064 1721.060351 
L 727.875162 1972.12 
L 732.73526 1575.993684 
L 737.595358 1704.89193 
L 742.455456 1492.905965 
L 747.315554 1678.842807 
L 752.175652 1664.470877 
L 757.03575 1589.018246 
L 761.895848 1341.551579 
L 766.755945 1515.362105 
L 771.616043 1491.109474 
L 776.476141 1434.969123 
L 781.336239 1284.06386 
L 786.196337 1558.477895 
L 791.056435 1609.677895 
L 795.916533 1585.874386 
L 800.776631 1472.695439 
L 805.636729 1577.790175 
L 810.496827 1499.193684 
L 815.356925 1774.955088 
L 820.217023 1630.786667 
L 825.077121 1372.990175 
L 829.937219 1833.790175 
L 834.797317 1597.551579 
L 839.657415 1502.786667 
L 844.517513 1632.583158 
L 849.377611 1364.007719 
L 854.237709 1688.723509 
L 859.097807 1358.618246 
L 863.957905 1749.804211 
L 868.818003 1442.604211 
L 873.678101 1756.09193 
L 878.538199 1702.197193 
L 883.398297 1728.695439 
L 888.258395 1784.835789 
L 893.118493 1620.905965 
L 897.978591 1748.007719 
L 902.838689 1862.534035 
L 907.698787 1802.351579 
L 912.558885 1346.941053 
L 917.418983 1301.130526 
L 922.279081 1748.905965 
L 927.139179 1473.593684 
L 931.999277 1527.937544 
L 936.859375 1611.474386 
L 941.719473 1665.369123 
L 946.579571 1762.828772 
L 951.439669 1801.453333 
L 956.299767 1587.670877 
L 961.159865 1714.323509 
L 966.019963 1744.414737 
L 970.880061 1310.562105 
L 975.740159 1524.344561 
L 980.600257 1623.151579 
L 985.460355 1619.109474 
L 990.320453 1671.656842 
L 995.180551 1465.060351 
L 1000.040649 1571.951579 
L 1004.900747 1466.407719 
L 1009.760845 1799.207719 
L 1014.620943 1820.765614 
L 1019.481041 1838.730526 
L 1024.341139 1677.944561 
L 1029.201237 1504.583158 
L 1034.061335 1801.004211 
L 1038.921433 1712.077895 
L 1043.781531 1597.102456 
L 1048.641629 1634.379649 
L 1053.501727 1493.355088 
L 1058.361825 1662.674386 
L 1063.221923 1443.053333 
L 1068.082021 1443.053333 
L 1072.942119 1496.94807 
L 1077.802217 1689.621754 
L 1082.662315 1630.786667 
L 1087.522413 1685.130526 
L 1092.382511 1752.498947 
L 1097.242609 1697.256842 
L 1102.102707 1562.969123 
L 1106.962805 1592.611228 
L 1111.822902 1505.930526 
L 1116.683 1729.593684 
L 1121.543098 1790.225263 
L 1126.403196 1735.432281 
L 1131.263294 1754.295439 
L 1136.123392 1782.141053 
L 1140.98349 1685.130526 
L 1145.843588 1625.846316 
L 1150.703686 1861.635789 
L 1155.563784 1823.909474 
L 1160.423882 1651.895439 
L 1165.28398 1870.169123 
L 1170.144078 1842.772632 
L 1175.004176 1743.516491 
L 1179.864274 1727.797193 
L 1184.724372 1685.579649 
L 1189.58447 1598.898947 
L 1194.444568 1748.905965 
L 1199.304666 1691.418246 
L 1204.164764 1653.69193 
L 1209.024862 1622.702456 
L 1213.88496 1644.260351 
L 1218.745058 1682.884912 
L 1223.605156 1512.667368 
L 1228.465254 1732.737544 
L 1233.325352 1627.642807 
L 1238.18545 1716.569123 
L 1243.045548 1509.972632 
L 1247.905646 1757.439298 
L 1252.765744 1836.934035 
L 1257.625842 1759.235789 
L 1262.48594 1613.72 
L 1267.346038 1655.488421 
L 1272.206136 1789.327018 
L 1277.066234 1858.941053 
L 1281.926332 1731.839298 
L 1286.78643 1744.86386 
L 1291.646528 1784.386667 
L 1296.506626 1621.804211 
L 1301.366724 1653.242807 
L 1306.226822 1698.604211 
L 1311.08692 1939.783158 
L 1315.947018 1729.144561 
L 1320.807116 1691.867368 
L 1325.667214 1770.014737 
L 1330.527312 1756.990175 
L 1335.38741 1778.54807 
L 1340.247508 1755.193684 
L 1345.107606 1783.937544 
L 1349.967704 1777.649825 
L 1354.827802 1798.758596 
L 1359.6879 1649.649825 
L 1364.547998 1789.327018 
L 1369.408096 1656.386667 
L 1374.268194 1796.06386 
L 1379.128292 1762.379649 
L 1383.98839 1832.89193 
L 1388.848488 1726.000702 
L 1393.708586 1664.470877 
L 1398.568684 1702.646316 
L 1403.428782 1538.716491 
L 1408.28888 1361.762105 
L 1413.148978 1690.070877 
L 1452.029761 1476.288421 
L 1456.889859 1796.06386 
L 1461.749957 1318.197193 
L 1466.610055 1668.512982 
L 1471.470153 1874.211228 
L 1476.330251 1741.72 
L 1481.190349 1639.769123 
L 1486.050447 1681.537544 
L 1490.910545 1481.228772 
L 1495.770643 1764.625263 
L 1500.630741 1680.639298 
L 1505.490839 1746.660351 
L 1510.350937 1953.705965 
L 1515.211035 1743.965614 
L 1520.071133 1788.428772 
L 1524.931231 1717.018246 
L 1529.791329 1824.358596 
L 1549.231721 1802.800702 
L 1554.091819 1769.116491 
L 1558.951917 1549.046316 
L 1563.812015 1873.312982 
L 1568.672113 1727.34807 
L 1573.532211 1405.327018 
L 1578.392309 1527.039298 
L 1583.252407 1574.646316 
L 1592.972603 1754.295439 
L 1597.832701 1616.86386 
L 1602.692799 1580.484912 
L 1612.412995 1593.509474 
L 1622.133191 1468.653333 
L 1626.993289 1765.972632 
L 1631.853387 1291.249825 
L 1636.713485 1869.72 
L 1641.573583 1553.986667 
L 1646.433681 1629.888421 
L 1651.293779 1771.811228 
L 1656.153877 1865.228772 
L 1661.013975 1631.235789 
L 1665.874073 1637.074386 
L 1670.734171 1564.316491 
L 1675.594269 1810.884912 
L 1680.454367 1843.670877 
L 1685.314465 1830.197193 
L 1690.174563 1600.695439 
L 1695.034661 1543.207719 
L 1699.894759 1648.751579 
L 1704.754857 1806.842807 
L 1709.614955 1656.835789 
L 1714.475053 1635.727018 
L 1719.335151 1146.183158 
L 1724.195249 1716.12 
L 1733.915445 1924.512982 
L 1738.775543 1754.295439 
L 1743.635641 1840.527018 
L 1748.495739 1601.144561 
L 1748.495739 1601.144561 
" style="fill:none;stroke:#0000ff;stroke-linecap:square;stroke-width:1.5;"/>
   </g>
   <g id="patch_3">
    <path d="M 44.059375 2052.76 
L 44.059375 278.68 
" style="fill:none;stroke:#000000;stroke-linecap:square;stroke-linejoin:miter;stroke-width:0.8;"/>
   </g>
   <g id="patch_4">
    <path d="M 1829.659375 2052.76 
L 1829.659375 278.68 
" style="fill:none;stroke:#000000;stroke-linecap:square;stroke-linejoin:miter;stroke-width:0.8;"/>
   </g>
   <g id="patch_5">
    <path d="M 44.059375 2052.76 
L 1829.659375 2052.76 
" style="fill:none;stroke:#000000;stroke-linecap:square;stroke-linejoin:miter;stroke-width:0.8;"/>
   </g>
   <g id="patch_6">
    <path d="M 44.059375 278.68 
L 1829.659375 278.68 
" style="fill:none;stroke:#000000;stroke-linecap:square;stroke-linejoin:miter;stroke-width:0.8;"/>
   </g>
   <g id="text_19">
    <text style="font-family:DejaVu Sans;font-size:12px;font-stretch:normal;font-style:normal;font-weight:normal;text-anchor:middle;" transform="rotate(-0, 936.859375, 272.68)" x="936.859375" y="272.68">air_pressure-&gt;ping_night</text>
   </g>
  </g>
  <g id="legend_1">
   <g id="patch_7">
    <path d="M 1947.971875 22.95625 
L 2055.259375 22.95625 
Q 2057.259375 22.95625 2057.259375 20.95625 
L 2057.259375 7 
Q 2057.259375 5 2055.259375 5 
L 1947.971875 5 
Q 1945.971875 5 1945.971875 7 
L 1945.971875 20.95625 
Q 1945.971875 22.95625 1947.971875 22.95625 
z
" style="fill:#ffffff;opacity:0.8;stroke:#cccccc;stroke-linejoin:miter;"/>
   </g>
   <g id="line2d_18">
    <path d="M 1949.971875 13.098438 
L 1969.971875 13.098438 
" style="fill:none;stroke:#0000ff;stroke-linecap:square;stroke-width:1.5;"/>
   </g>
   <g id="line2d_19"/>
   <g id="text_20">
    <text style="font-family:DejaVu Sans;font-size:10px;font-stretch:normal;font-style:normal;font-weight:normal;text-anchor:start;" transform="rotate(-0, 1977.971875, 16.598438)" x="1977.971875" y="16.598438">ping_night[ms]</text>
   </g>
  </g>
 </g>
 <defs>
  <clipPath id="pb820e0c8c5">
   <rect height="1774.08" width="1785.6" x="44.059375" y="278.68"/>
  </clipPath>
 </defs>
</svg>
