<?xml version="1.0" encoding="utf-8" standalone="no"?>
<!DOCTYPE svg PUBLIC "-//W3C//DTD SVG 1.1//EN"
  "http://www.w3.org/Graphics/SVG/1.1/DTD/svg11.dtd">
<!-- Created with matplotlib (https://matplotlib.org/) -->
<svg height="345.6pt" version="1.1" viewBox="0 0 460.8 345.6" width="460.8pt" xmlns="http://www.w3.org/2000/svg" xmlns:xlink="http://www.w3.org/1999/xlink">
 <metadata>
  <rdf:RDF xmlns:cc="http://creativecommons.org/ns#" xmlns:dc="http://purl.org/dc/elements/1.1/" xmlns:rdf="http://www.w3.org/1999/02/22-rdf-syntax-ns#">
   <cc:Work>
    <dc:type rdf:resource="http://purl.org/dc/dcmitype/StillImage"/>
    <dc:date>2022-07-16T17:59:24.264818</dc:date>
    <dc:format>image/svg+xml</dc:format>
    <dc:creator>
     <cc:Agent>
      <dc:title>Matplotlib v3.3.2, https://matplotlib.org/</dc:title>
     </cc:Agent>
    </dc:creator>
   </cc:Work>
  </rdf:RDF>
 </metadata>
 <defs>
  <style type="text/css">*{stroke-linecap:butt;stroke-linejoin:round;}</style>
 </defs>
 <g id="figure_1">
  <g id="patch_1">
   <path d="M 0 345.6 
L 460.8 345.6 
L 460.8 0 
L 0 0 
z
" style="fill:#ffffff;"/>
  </g>
  <g id="axes_1">
   <g id="patch_2">
    <path d="M 57.6 307.584 
L 414.72 307.584 
L 414.72 41.472 
L 57.6 41.472 
z
" style="fill:#ffffff;"/>
   </g>
   <g id="matplotlib.axis_1">
    <g id="xtick_1">
     <g id="line2d_1">
      <defs>
       <path d="M 0 0 
L 0 3.5 
" id="mea33333955" style="stroke:#000000;stroke-width:0.8;"/>
      </defs>
      <g>
       <use style="stroke:#000000;stroke-width:0.8;" x="83.609256" xlink:href="#mea33333955" y="307.584"/>
      </g>
     </g>
     <g id="text_1">
      <!-- 1007.5 -->
      <g transform="translate(66.113944 322.182437)scale(0.1 -0.1)">
       <defs>
        <path d="M 12.40625 8.296875 
L 28.515625 8.296875 
L 28.515625 63.921875 
L 10.984375 60.40625 
L 10.984375 69.390625 
L 28.421875 72.90625 
L 38.28125 72.90625 
L 38.28125 8.296875 
L 54.390625 8.296875 
L 54.390625 0 
L 12.40625 0 
z
" id="DejaVuSans-49"/>
        <path d="M 31.78125 66.40625 
Q 24.171875 66.40625 20.328125 58.90625 
Q 16.5 51.421875 16.5 36.375 
Q 16.5 21.390625 20.328125 13.890625 
Q 24.171875 6.390625 31.78125 6.390625 
Q 39.453125 6.390625 43.28125 13.890625 
Q 47.125 21.390625 47.125 36.375 
Q 47.125 51.421875 43.28125 58.90625 
Q 39.453125 66.40625 31.78125 66.40625 
z
M 31.78125 74.21875 
Q 44.046875 74.21875 50.515625 64.515625 
Q 56.984375 54.828125 56.984375 36.375 
Q 56.984375 17.96875 50.515625 8.265625 
Q 44.046875 -1.421875 31.78125 -1.421875 
Q 19.53125 -1.421875 13.0625 8.265625 
Q 6.59375 17.96875 6.59375 36.375 
Q 6.59375 54.828125 13.0625 64.515625 
Q 19.53125 74.21875 31.78125 74.21875 
z
" id="DejaVuSans-48"/>
        <path d="M 8.203125 72.90625 
L 55.078125 72.90625 
L 55.078125 68.703125 
L 28.609375 0 
L 18.3125 0 
L 43.21875 64.59375 
L 8.203125 64.59375 
z
" id="DejaVuSans-55"/>
        <path d="M 10.6875 12.40625 
L 21 12.40625 
L 21 0 
L 10.6875 0 
z
" id="DejaVuSans-46"/>
        <path d="M 10.796875 72.90625 
L 49.515625 72.90625 
L 49.515625 64.59375 
L 19.828125 64.59375 
L 19.828125 46.734375 
Q 21.96875 47.46875 24.109375 47.828125 
Q 26.265625 48.1875 28.421875 48.1875 
Q 40.625 48.1875 47.75 41.5 
Q 54.890625 34.8125 54.890625 23.390625 
Q 54.890625 11.625 47.5625 5.09375 
Q 40.234375 -1.421875 26.90625 -1.421875 
Q 22.3125 -1.421875 17.546875 -0.640625 
Q 12.796875 0.140625 7.71875 1.703125 
L 7.71875 11.625 
Q 12.109375 9.234375 16.796875 8.0625 
Q 21.484375 6.890625 26.703125 6.890625 
Q 35.15625 6.890625 40.078125 11.328125 
Q 45.015625 15.765625 45.015625 23.390625 
Q 45.015625 31 40.078125 35.4375 
Q 35.15625 39.890625 26.703125 39.890625 
Q 22.75 39.890625 18.8125 39.015625 
Q 14.890625 38.140625 10.796875 36.28125 
z
" id="DejaVuSans-53"/>
       </defs>
       <use xlink:href="#DejaVuSans-49"/>
       <use x="63.623047" xlink:href="#DejaVuSans-48"/>
       <use x="127.246094" xlink:href="#DejaVuSans-48"/>
       <use x="190.869141" xlink:href="#DejaVuSans-55"/>
       <use x="254.492188" xlink:href="#DejaVuSans-46"/>
       <use x="286.279297" xlink:href="#DejaVuSans-53"/>
      </g>
     </g>
    </g>
    <g id="xtick_2">
     <g id="line2d_2">
      <g>
       <use style="stroke:#000000;stroke-width:0.8;" x="129.724959" xlink:href="#mea33333955" y="307.584"/>
      </g>
     </g>
     <g id="text_2">
      <!-- 1010.0 -->
      <g transform="translate(112.229646 322.182437)scale(0.1 -0.1)">
       <use xlink:href="#DejaVuSans-49"/>
       <use x="63.623047" xlink:href="#DejaVuSans-48"/>
       <use x="127.246094" xlink:href="#DejaVuSans-49"/>
       <use x="190.869141" xlink:href="#DejaVuSans-48"/>
       <use x="254.492188" xlink:href="#DejaVuSans-46"/>
       <use x="286.279297" xlink:href="#DejaVuSans-48"/>
      </g>
     </g>
    </g>
    <g id="xtick_3">
     <g id="line2d_3">
      <g>
       <use style="stroke:#000000;stroke-width:0.8;" x="175.840661" xlink:href="#mea33333955" y="307.584"/>
      </g>
     </g>
     <g id="text_3">
      <!-- 1012.5 -->
      <g transform="translate(158.345349 322.182437)scale(0.1 -0.1)">
       <defs>
        <path d="M 19.1875 8.296875 
L 53.609375 8.296875 
L 53.609375 0 
L 7.328125 0 
L 7.328125 8.296875 
Q 12.9375 14.109375 22.625 23.890625 
Q 32.328125 33.6875 34.8125 36.53125 
Q 39.546875 41.84375 41.421875 45.53125 
Q 43.3125 49.21875 43.3125 52.78125 
Q 43.3125 58.59375 39.234375 62.25 
Q 35.15625 65.921875 28.609375 65.921875 
Q 23.96875 65.921875 18.8125 64.3125 
Q 13.671875 62.703125 7.8125 59.421875 
L 7.8125 69.390625 
Q 13.765625 71.78125 18.9375 73 
Q 24.125 74.21875 28.421875 74.21875 
Q 39.75 74.21875 46.484375 68.546875 
Q 53.21875 62.890625 53.21875 53.421875 
Q 53.21875 48.921875 51.53125 44.890625 
Q 49.859375 40.875 45.40625 35.40625 
Q 44.1875 33.984375 37.640625 27.21875 
Q 31.109375 20.453125 19.1875 8.296875 
z
" id="DejaVuSans-50"/>
       </defs>
       <use xlink:href="#DejaVuSans-49"/>
       <use x="63.623047" xlink:href="#DejaVuSans-48"/>
       <use x="127.246094" xlink:href="#DejaVuSans-49"/>
       <use x="190.869141" xlink:href="#DejaVuSans-50"/>
       <use x="254.492188" xlink:href="#DejaVuSans-46"/>
       <use x="286.279297" xlink:href="#DejaVuSans-53"/>
      </g>
     </g>
    </g>
    <g id="xtick_4">
     <g id="line2d_4">
      <g>
       <use style="stroke:#000000;stroke-width:0.8;" x="221.956364" xlink:href="#mea33333955" y="307.584"/>
      </g>
     </g>
     <g id="text_4">
      <!-- 1015.0 -->
      <g transform="translate(204.461051 322.182437)scale(0.1 -0.1)">
       <use xlink:href="#DejaVuSans-49"/>
       <use x="63.623047" xlink:href="#DejaVuSans-48"/>
       <use x="127.246094" xlink:href="#DejaVuSans-49"/>
       <use x="190.869141" xlink:href="#DejaVuSans-53"/>
       <use x="254.492188" xlink:href="#DejaVuSans-46"/>
       <use x="286.279297" xlink:href="#DejaVuSans-48"/>
      </g>
     </g>
    </g>
    <g id="xtick_5">
     <g id="line2d_5">
      <g>
       <use style="stroke:#000000;stroke-width:0.8;" x="268.072066" xlink:href="#mea33333955" y="307.584"/>
      </g>
     </g>
     <g id="text_5">
      <!-- 1017.5 -->
      <g transform="translate(250.576754 322.182437)scale(0.1 -0.1)">
       <use xlink:href="#DejaVuSans-49"/>
       <use x="63.623047" xlink:href="#DejaVuSans-48"/>
       <use x="127.246094" xlink:href="#DejaVuSans-49"/>
       <use x="190.869141" xlink:href="#DejaVuSans-55"/>
       <use x="254.492188" xlink:href="#DejaVuSans-46"/>
       <use x="286.279297" xlink:href="#DejaVuSans-53"/>
      </g>
     </g>
    </g>
    <g id="xtick_6">
     <g id="line2d_6">
      <g>
       <use style="stroke:#000000;stroke-width:0.8;" x="314.187769" xlink:href="#mea33333955" y="307.584"/>
      </g>
     </g>
     <g id="text_6">
      <!-- 1020.0 -->
      <g transform="translate(296.692456 322.182437)scale(0.1 -0.1)">
       <use xlink:href="#DejaVuSans-49"/>
       <use x="63.623047" xlink:href="#DejaVuSans-48"/>
       <use x="127.246094" xlink:href="#DejaVuSans-50"/>
       <use x="190.869141" xlink:href="#DejaVuSans-48"/>
       <use x="254.492188" xlink:href="#DejaVuSans-46"/>
       <use x="286.279297" xlink:href="#DejaVuSans-48"/>
      </g>
     </g>
    </g>
    <g id="xtick_7">
     <g id="line2d_7">
      <g>
       <use style="stroke:#000000;stroke-width:0.8;" x="360.303471" xlink:href="#mea33333955" y="307.584"/>
      </g>
     </g>
     <g id="text_7">
      <!-- 1022.5 -->
      <g transform="translate(342.808159 322.182437)scale(0.1 -0.1)">
       <use xlink:href="#DejaVuSans-49"/>
       <use x="63.623047" xlink:href="#DejaVuSans-48"/>
       <use x="127.246094" xlink:href="#DejaVuSans-50"/>
       <use x="190.869141" xlink:href="#DejaVuSans-50"/>
       <use x="254.492188" xlink:href="#DejaVuSans-46"/>
       <use x="286.279297" xlink:href="#DejaVuSans-53"/>
      </g>
     </g>
    </g>
    <g id="xtick_8">
     <g id="line2d_8">
      <g>
       <use style="stroke:#000000;stroke-width:0.8;" x="406.419174" xlink:href="#mea33333955" y="307.584"/>
      </g>
     </g>
     <g id="text_8">
      <!-- 1025.0 -->
      <g transform="translate(388.923861 322.182437)scale(0.1 -0.1)">
       <use xlink:href="#DejaVuSans-49"/>
       <use x="63.623047" xlink:href="#DejaVuSans-48"/>
       <use x="127.246094" xlink:href="#DejaVuSans-50"/>
       <use x="190.869141" xlink:href="#DejaVuSans-53"/>
       <use x="254.492188" xlink:href="#DejaVuSans-46"/>
       <use x="286.279297" xlink:href="#DejaVuSans-48"/>
      </g>
     </g>
    </g>
    <g id="text_9">
     <!-- air_pressure from Foreca -->
     <g transform="translate(174.162344 335.860562)scale(0.1 -0.1)">
      <defs>
       <path d="M 34.28125 27.484375 
Q 23.390625 27.484375 19.1875 25 
Q 14.984375 22.515625 14.984375 16.5 
Q 14.984375 11.71875 18.140625 8.90625 
Q 21.296875 6.109375 26.703125 6.109375 
Q 34.1875 6.109375 38.703125 11.40625 
Q 43.21875 16.703125 43.21875 25.484375 
L 43.21875 27.484375 
z
M 52.203125 31.203125 
L 52.203125 0 
L 43.21875 0 
L 43.21875 8.296875 
Q 40.140625 3.328125 35.546875 0.953125 
Q 30.953125 -1.421875 24.3125 -1.421875 
Q 15.921875 -1.421875 10.953125 3.296875 
Q 6 8.015625 6 15.921875 
Q 6 25.140625 12.171875 29.828125 
Q 18.359375 34.515625 30.609375 34.515625 
L 43.21875 34.515625 
L 43.21875 35.40625 
Q 43.21875 41.609375 39.140625 45 
Q 35.0625 48.390625 27.6875 48.390625 
Q 23 48.390625 18.546875 47.265625 
Q 14.109375 46.140625 10.015625 43.890625 
L 10.015625 52.203125 
Q 14.9375 54.109375 19.578125 55.046875 
Q 24.21875 56 28.609375 56 
Q 40.484375 56 46.34375 49.84375 
Q 52.203125 43.703125 52.203125 31.203125 
z
" id="DejaVuSans-97"/>
       <path d="M 9.421875 54.6875 
L 18.40625 54.6875 
L 18.40625 0 
L 9.421875 0 
z
M 9.421875 75.984375 
L 18.40625 75.984375 
L 18.40625 64.59375 
L 9.421875 64.59375 
z
" id="DejaVuSans-105"/>
       <path d="M 41.109375 46.296875 
Q 39.59375 47.171875 37.8125 47.578125 
Q 36.03125 48 33.890625 48 
Q 26.265625 48 22.1875 43.046875 
Q 18.109375 38.09375 18.109375 28.8125 
L 18.109375 0 
L 9.078125 0 
L 9.078125 54.6875 
L 18.109375 54.6875 
L 18.109375 46.1875 
Q 20.953125 51.171875 25.484375 53.578125 
Q 30.03125 56 36.53125 56 
Q 37.453125 56 38.578125 55.875 
Q 39.703125 55.765625 41.0625 55.515625 
z
" id="DejaVuSans-114"/>
       <path d="M 50.984375 -16.609375 
L 50.984375 -23.578125 
L -0.984375 -23.578125 
L -0.984375 -16.609375 
z
" id="DejaVuSans-95"/>
       <path d="M 18.109375 8.203125 
L 18.109375 -20.796875 
L 9.078125 -20.796875 
L 9.078125 54.6875 
L 18.109375 54.6875 
L 18.109375 46.390625 
Q 20.953125 51.265625 25.265625 53.625 
Q 29.59375 56 35.59375 56 
Q 45.5625 56 51.78125 48.09375 
Q 58.015625 40.1875 58.015625 27.296875 
Q 58.015625 14.40625 51.78125 6.484375 
Q 45.5625 -1.421875 35.59375 -1.421875 
Q 29.59375 -1.421875 25.265625 0.953125 
Q 20.953125 3.328125 18.109375 8.203125 
z
M 48.6875 27.296875 
Q 48.6875 37.203125 44.609375 42.84375 
Q 40.53125 48.484375 33.40625 48.484375 
Q 26.265625 48.484375 22.1875 42.84375 
Q 18.109375 37.203125 18.109375 27.296875 
Q 18.109375 17.390625 22.1875 11.75 
Q 26.265625 6.109375 33.40625 6.109375 
Q 40.53125 6.109375 44.609375 11.75 
Q 48.6875 17.390625 48.6875 27.296875 
z
" id="DejaVuSans-112"/>
       <path d="M 56.203125 29.59375 
L 56.203125 25.203125 
L 14.890625 25.203125 
Q 15.484375 15.921875 20.484375 11.0625 
Q 25.484375 6.203125 34.421875 6.203125 
Q 39.59375 6.203125 44.453125 7.46875 
Q 49.3125 8.734375 54.109375 11.28125 
L 54.109375 2.78125 
Q 49.265625 0.734375 44.1875 -0.34375 
Q 39.109375 -1.421875 33.890625 -1.421875 
Q 20.796875 -1.421875 13.15625 6.1875 
Q 5.515625 13.8125 5.515625 26.8125 
Q 5.515625 40.234375 12.765625 48.109375 
Q 20.015625 56 32.328125 56 
Q 43.359375 56 49.78125 48.890625 
Q 56.203125 41.796875 56.203125 29.59375 
z
M 47.21875 32.234375 
Q 47.125 39.59375 43.09375 43.984375 
Q 39.0625 48.390625 32.421875 48.390625 
Q 24.90625 48.390625 20.390625 44.140625 
Q 15.875 39.890625 15.1875 32.171875 
z
" id="DejaVuSans-101"/>
       <path d="M 44.28125 53.078125 
L 44.28125 44.578125 
Q 40.484375 46.53125 36.375 47.5 
Q 32.28125 48.484375 27.875 48.484375 
Q 21.1875 48.484375 17.84375 46.4375 
Q 14.5 44.390625 14.5 40.28125 
Q 14.5 37.15625 16.890625 35.375 
Q 19.28125 33.59375 26.515625 31.984375 
L 29.59375 31.296875 
Q 39.15625 29.25 43.1875 25.515625 
Q 47.21875 21.78125 47.21875 15.09375 
Q 47.21875 7.46875 41.1875 3.015625 
Q 35.15625 -1.421875 24.609375 -1.421875 
Q 20.21875 -1.421875 15.453125 -0.5625 
Q 10.6875 0.296875 5.421875 2 
L 5.421875 11.28125 
Q 10.40625 8.6875 15.234375 7.390625 
Q 20.0625 6.109375 24.8125 6.109375 
Q 31.15625 6.109375 34.5625 8.28125 
Q 37.984375 10.453125 37.984375 14.40625 
Q 37.984375 18.0625 35.515625 20.015625 
Q 33.0625 21.96875 24.703125 23.78125 
L 21.578125 24.515625 
Q 13.234375 26.265625 9.515625 29.90625 
Q 5.8125 33.546875 5.8125 39.890625 
Q 5.8125 47.609375 11.28125 51.796875 
Q 16.75 56 26.8125 56 
Q 31.78125 56 36.171875 55.265625 
Q 40.578125 54.546875 44.28125 53.078125 
z
" id="DejaVuSans-115"/>
       <path d="M 8.5 21.578125 
L 8.5 54.6875 
L 17.484375 54.6875 
L 17.484375 21.921875 
Q 17.484375 14.15625 20.5 10.265625 
Q 23.53125 6.390625 29.59375 6.390625 
Q 36.859375 6.390625 41.078125 11.03125 
Q 45.3125 15.671875 45.3125 23.6875 
L 45.3125 54.6875 
L 54.296875 54.6875 
L 54.296875 0 
L 45.3125 0 
L 45.3125 8.40625 
Q 42.046875 3.421875 37.71875 1 
Q 33.40625 -1.421875 27.6875 -1.421875 
Q 18.265625 -1.421875 13.375 4.4375 
Q 8.5 10.296875 8.5 21.578125 
z
M 31.109375 56 
z
" id="DejaVuSans-117"/>
       <path id="DejaVuSans-32"/>
       <path d="M 37.109375 75.984375 
L 37.109375 68.5 
L 28.515625 68.5 
Q 23.6875 68.5 21.796875 66.546875 
Q 19.921875 64.59375 19.921875 59.515625 
L 19.921875 54.6875 
L 34.71875 54.6875 
L 34.71875 47.703125 
L 19.921875 47.703125 
L 19.921875 0 
L 10.890625 0 
L 10.890625 47.703125 
L 2.296875 47.703125 
L 2.296875 54.6875 
L 10.890625 54.6875 
L 10.890625 58.5 
Q 10.890625 67.625 15.140625 71.796875 
Q 19.390625 75.984375 28.609375 75.984375 
z
" id="DejaVuSans-102"/>
       <path d="M 30.609375 48.390625 
Q 23.390625 48.390625 19.1875 42.75 
Q 14.984375 37.109375 14.984375 27.296875 
Q 14.984375 17.484375 19.15625 11.84375 
Q 23.34375 6.203125 30.609375 6.203125 
Q 37.796875 6.203125 41.984375 11.859375 
Q 46.1875 17.53125 46.1875 27.296875 
Q 46.1875 37.015625 41.984375 42.703125 
Q 37.796875 48.390625 30.609375 48.390625 
z
M 30.609375 56 
Q 42.328125 56 49.015625 48.375 
Q 55.71875 40.765625 55.71875 27.296875 
Q 55.71875 13.875 49.015625 6.21875 
Q 42.328125 -1.421875 30.609375 -1.421875 
Q 18.84375 -1.421875 12.171875 6.21875 
Q 5.515625 13.875 5.515625 27.296875 
Q 5.515625 40.765625 12.171875 48.375 
Q 18.84375 56 30.609375 56 
z
" id="DejaVuSans-111"/>
       <path d="M 52 44.1875 
Q 55.375 50.25 60.0625 53.125 
Q 64.75 56 71.09375 56 
Q 79.640625 56 84.28125 50.015625 
Q 88.921875 44.046875 88.921875 33.015625 
L 88.921875 0 
L 79.890625 0 
L 79.890625 32.71875 
Q 79.890625 40.578125 77.09375 44.375 
Q 74.3125 48.1875 68.609375 48.1875 
Q 61.625 48.1875 57.5625 43.546875 
Q 53.515625 38.921875 53.515625 30.90625 
L 53.515625 0 
L 44.484375 0 
L 44.484375 32.71875 
Q 44.484375 40.625 41.703125 44.40625 
Q 38.921875 48.1875 33.109375 48.1875 
Q 26.21875 48.1875 22.15625 43.53125 
Q 18.109375 38.875 18.109375 30.90625 
L 18.109375 0 
L 9.078125 0 
L 9.078125 54.6875 
L 18.109375 54.6875 
L 18.109375 46.1875 
Q 21.1875 51.21875 25.484375 53.609375 
Q 29.78125 56 35.6875 56 
Q 41.65625 56 45.828125 52.96875 
Q 50 49.953125 52 44.1875 
z
" id="DejaVuSans-109"/>
       <path d="M 9.8125 72.90625 
L 51.703125 72.90625 
L 51.703125 64.59375 
L 19.671875 64.59375 
L 19.671875 43.109375 
L 48.578125 43.109375 
L 48.578125 34.8125 
L 19.671875 34.8125 
L 19.671875 0 
L 9.8125 0 
z
" id="DejaVuSans-70"/>
       <path d="M 48.78125 52.59375 
L 48.78125 44.1875 
Q 44.96875 46.296875 41.140625 47.34375 
Q 37.3125 48.390625 33.40625 48.390625 
Q 24.65625 48.390625 19.8125 42.84375 
Q 14.984375 37.3125 14.984375 27.296875 
Q 14.984375 17.28125 19.8125 11.734375 
Q 24.65625 6.203125 33.40625 6.203125 
Q 37.3125 6.203125 41.140625 7.25 
Q 44.96875 8.296875 48.78125 10.40625 
L 48.78125 2.09375 
Q 45.015625 0.34375 40.984375 -0.53125 
Q 36.96875 -1.421875 32.421875 -1.421875 
Q 20.0625 -1.421875 12.78125 6.34375 
Q 5.515625 14.109375 5.515625 27.296875 
Q 5.515625 40.671875 12.859375 48.328125 
Q 20.21875 56 33.015625 56 
Q 37.15625 56 41.109375 55.140625 
Q 45.0625 54.296875 48.78125 52.59375 
z
" id="DejaVuSans-99"/>
      </defs>
      <use xlink:href="#DejaVuSans-97"/>
      <use x="61.279297" xlink:href="#DejaVuSans-105"/>
      <use x="89.0625" xlink:href="#DejaVuSans-114"/>
      <use x="130.175781" xlink:href="#DejaVuSans-95"/>
      <use x="180.175781" xlink:href="#DejaVuSans-112"/>
      <use x="243.652344" xlink:href="#DejaVuSans-114"/>
      <use x="282.515625" xlink:href="#DejaVuSans-101"/>
      <use x="344.039062" xlink:href="#DejaVuSans-115"/>
      <use x="396.138672" xlink:href="#DejaVuSans-115"/>
      <use x="448.238281" xlink:href="#DejaVuSans-117"/>
      <use x="511.617188" xlink:href="#DejaVuSans-114"/>
      <use x="550.480469" xlink:href="#DejaVuSans-101"/>
      <use x="612.003906" xlink:href="#DejaVuSans-32"/>
      <use x="643.791016" xlink:href="#DejaVuSans-102"/>
      <use x="678.996094" xlink:href="#DejaVuSans-114"/>
      <use x="717.859375" xlink:href="#DejaVuSans-111"/>
      <use x="779.041016" xlink:href="#DejaVuSans-109"/>
      <use x="876.453125" xlink:href="#DejaVuSans-32"/>
      <use x="908.240234" xlink:href="#DejaVuSans-70"/>
      <use x="962.134766" xlink:href="#DejaVuSans-111"/>
      <use x="1023.316406" xlink:href="#DejaVuSans-114"/>
      <use x="1062.179688" xlink:href="#DejaVuSans-101"/>
      <use x="1123.703125" xlink:href="#DejaVuSans-99"/>
      <use x="1178.683594" xlink:href="#DejaVuSans-97"/>
     </g>
    </g>
   </g>
   <g id="matplotlib.axis_2">
    <g id="ytick_1">
     <g id="line2d_9">
      <defs>
       <path d="M 0 0 
L -3.5 0 
" id="m4557aa7ed4" style="stroke:#000000;stroke-width:0.8;"/>
      </defs>
      <g>
       <use style="stroke:#000000;stroke-width:0.8;" x="57.6" xlink:href="#m4557aa7ed4" y="259.277452"/>
      </g>
     </g>
     <g id="text_10">
      <!-- 20 -->
      <g transform="translate(37.875 263.076671)scale(0.1 -0.1)">
       <use xlink:href="#DejaVuSans-50"/>
       <use x="63.623047" xlink:href="#DejaVuSans-48"/>
      </g>
     </g>
    </g>
    <g id="ytick_2">
     <g id="line2d_10">
      <g>
       <use style="stroke:#000000;stroke-width:0.8;" x="57.6" xlink:href="#m4557aa7ed4" y="210.101723"/>
      </g>
     </g>
     <g id="text_11">
      <!-- 40 -->
      <g transform="translate(37.875 213.900941)scale(0.1 -0.1)">
       <defs>
        <path d="M 37.796875 64.3125 
L 12.890625 25.390625 
L 37.796875 25.390625 
z
M 35.203125 72.90625 
L 47.609375 72.90625 
L 47.609375 25.390625 
L 58.015625 25.390625 
L 58.015625 17.1875 
L 47.609375 17.1875 
L 47.609375 0 
L 37.796875 0 
L 37.796875 17.1875 
L 4.890625 17.1875 
L 4.890625 26.703125 
z
" id="DejaVuSans-52"/>
       </defs>
       <use xlink:href="#DejaVuSans-52"/>
       <use x="63.623047" xlink:href="#DejaVuSans-48"/>
      </g>
     </g>
    </g>
    <g id="ytick_3">
     <g id="line2d_11">
      <g>
       <use style="stroke:#000000;stroke-width:0.8;" x="57.6" xlink:href="#m4557aa7ed4" y="160.925993"/>
      </g>
     </g>
     <g id="text_12">
      <!-- 60 -->
      <g transform="translate(37.875 164.725212)scale(0.1 -0.1)">
       <defs>
        <path d="M 33.015625 40.375 
Q 26.375 40.375 22.484375 35.828125 
Q 18.609375 31.296875 18.609375 23.390625 
Q 18.609375 15.53125 22.484375 10.953125 
Q 26.375 6.390625 33.015625 6.390625 
Q 39.65625 6.390625 43.53125 10.953125 
Q 47.40625 15.53125 47.40625 23.390625 
Q 47.40625 31.296875 43.53125 35.828125 
Q 39.65625 40.375 33.015625 40.375 
z
M 52.59375 71.296875 
L 52.59375 62.3125 
Q 48.875 64.0625 45.09375 64.984375 
Q 41.3125 65.921875 37.59375 65.921875 
Q 27.828125 65.921875 22.671875 59.328125 
Q 17.53125 52.734375 16.796875 39.40625 
Q 19.671875 43.65625 24.015625 45.921875 
Q 28.375 48.1875 33.59375 48.1875 
Q 44.578125 48.1875 50.953125 41.515625 
Q 57.328125 34.859375 57.328125 23.390625 
Q 57.328125 12.15625 50.6875 5.359375 
Q 44.046875 -1.421875 33.015625 -1.421875 
Q 20.359375 -1.421875 13.671875 8.265625 
Q 6.984375 17.96875 6.984375 36.375 
Q 6.984375 53.65625 15.1875 63.9375 
Q 23.390625 74.21875 37.203125 74.21875 
Q 40.921875 74.21875 44.703125 73.484375 
Q 48.484375 72.75 52.59375 71.296875 
z
" id="DejaVuSans-54"/>
       </defs>
       <use xlink:href="#DejaVuSans-54"/>
       <use x="63.623047" xlink:href="#DejaVuSans-48"/>
      </g>
     </g>
    </g>
    <g id="ytick_4">
     <g id="line2d_12">
      <g>
       <use style="stroke:#000000;stroke-width:0.8;" x="57.6" xlink:href="#m4557aa7ed4" y="111.750264"/>
      </g>
     </g>
     <g id="text_13">
      <!-- 80 -->
      <g transform="translate(37.875 115.549483)scale(0.1 -0.1)">
       <defs>
        <path d="M 31.78125 34.625 
Q 24.75 34.625 20.71875 30.859375 
Q 16.703125 27.09375 16.703125 20.515625 
Q 16.703125 13.921875 20.71875 10.15625 
Q 24.75 6.390625 31.78125 6.390625 
Q 38.8125 6.390625 42.859375 10.171875 
Q 46.921875 13.96875 46.921875 20.515625 
Q 46.921875 27.09375 42.890625 30.859375 
Q 38.875 34.625 31.78125 34.625 
z
M 21.921875 38.8125 
Q 15.578125 40.375 12.03125 44.71875 
Q 8.5 49.078125 8.5 55.328125 
Q 8.5 64.0625 14.71875 69.140625 
Q 20.953125 74.21875 31.78125 74.21875 
Q 42.671875 74.21875 48.875 69.140625 
Q 55.078125 64.0625 55.078125 55.328125 
Q 55.078125 49.078125 51.53125 44.71875 
Q 48 40.375 41.703125 38.8125 
Q 48.828125 37.15625 52.796875 32.3125 
Q 56.78125 27.484375 56.78125 20.515625 
Q 56.78125 9.90625 50.3125 4.234375 
Q 43.84375 -1.421875 31.78125 -1.421875 
Q 19.734375 -1.421875 13.25 4.234375 
Q 6.78125 9.90625 6.78125 20.515625 
Q 6.78125 27.484375 10.78125 32.3125 
Q 14.796875 37.15625 21.921875 38.8125 
z
M 18.3125 54.390625 
Q 18.3125 48.734375 21.84375 45.5625 
Q 25.390625 42.390625 31.78125 42.390625 
Q 38.140625 42.390625 41.71875 45.5625 
Q 45.3125 48.734375 45.3125 54.390625 
Q 45.3125 60.0625 41.71875 63.234375 
Q 38.140625 66.40625 31.78125 66.40625 
Q 25.390625 66.40625 21.84375 63.234375 
Q 18.3125 60.0625 18.3125 54.390625 
z
" id="DejaVuSans-56"/>
       </defs>
       <use xlink:href="#DejaVuSans-56"/>
       <use x="63.623047" xlink:href="#DejaVuSans-48"/>
      </g>
     </g>
    </g>
    <g id="ytick_5">
     <g id="line2d_13">
      <g>
       <use style="stroke:#000000;stroke-width:0.8;" x="57.6" xlink:href="#m4557aa7ed4" y="62.574535"/>
      </g>
     </g>
     <g id="text_14">
      <!-- 100 -->
      <g transform="translate(31.5125 66.373754)scale(0.1 -0.1)">
       <use xlink:href="#DejaVuSans-49"/>
       <use x="63.623047" xlink:href="#DejaVuSans-48"/>
       <use x="127.246094" xlink:href="#DejaVuSans-48"/>
      </g>
     </g>
    </g>
   </g>
   <g id="line2d_14">
    <path clip-path="url(#pe6e638ba82)" d="M 73.832727 287.38384 
L 74.01719 291.128572 
L 74.201653 289.867214 
L 74.386116 289.901637 
L 74.570579 281.93271 
L 74.755041 292.215355 
L 74.939504 287.964113 
L 75.123967 291.428544 
L 75.30843 289.358245 
L 75.492893 283.014576 
L 75.861818 290.592556 
L 76.230744 276.771717 
L 76.599669 287.750199 
L 76.968595 285.60122 
L 77.337521 289.397586 
L 77.890909 289.51069 
L 78.259835 289.073026 
L 78.62876 280.659059 
L 78.997686 276.611896 
L 79.182149 295.114264 
L 79.366612 287.523991 
L 79.735537 292.594008 
L 80.288926 293.973388 
L 81.395702 292.581714 
L 81.764628 289.999989 
L 82.133554 294.064363 
L 82.318017 291.167912 
L 82.502479 295.488 
L 82.686942 293.680792 
L 83.055868 294.696271 
L 83.424793 293.552935 
L 83.793719 294.462686 
L 84.162645 289.444303 
L 84.716033 293.31935 
L 84.900496 289.417256 
L 85.269421 293.174282 
L 85.453884 292.596467 
L 85.82281 294.059445 
L 86.191736 293.417702 
L 86.560661 287.563331 
L 86.745124 293.636534 
L 87.482975 288.59848 
L 87.667438 293.405408 
L 87.851901 294.403675 
L 88.036364 293.336562 
L 88.220826 293.225916 
L 88.958678 291.824408 
L 89.512066 292.778417 
L 89.880992 292.035864 
L 90.43438 292.18585 
L 90.803306 294.371711 
L 91.356694 290.516334 
L 91.541157 292.001441 
L 91.72562 279.464089 
L 92.279008 292.328459 
L 92.463471 291.45559 
L 92.647934 291.989147 
L 93.385785 293.28001 
L 94.308099 291.194959 
L 94.677025 292.726783 
L 95.414876 291.003173 
L 95.968264 293.506218 
L 96.706116 291.364615 
L 97.443967 288.573892 
L 97.997355 290.344219 
L 98.735207 288.379648 
L 99.288595 292.945615 
L 100.026446 282.660511 
L 100.579835 293.872577 
L 101.317686 292.318624 
L 102.055537 292.333377 
L 103.346777 291.45559 
L 103.900165 293.88733 
L 104.638017 292.12438 
L 105.375868 291.676881 
L 105.929256 293.899624 
L 106.667107 289.985236 
L 107.220496 292.903815 
L 107.404959 242.358542 
L 107.958347 292.879228 
L 108.696198 292.498116 
L 109.249587 264.780216 
L 109.802975 286.968305 
L 110.356364 282.835085 
L 111.094215 289.857379 
L 111.46314 287.413345 
L 112.016529 288.684538 
L 112.569917 292.766123 
L 113.123306 117.233358 
L 113.676694 288.229662 
L 114.230083 291.158077 
L 114.967934 282.68264 
L 115.521322 290.022118 
L 116.074711 284.834078 
L 116.628099 291.096607 
L 117.181488 288.832065 
L 117.734876 290.368807 
L 118.288264 291.020385 
L 118.841653 290.110634 
L 119.395041 285.261907 
L 119.94843 285.483198 
L 120.686281 293.983223 
L 121.239669 293.670957 
L 121.793058 245.014032 
L 122.530909 291.01055 
L 123.26876 292.291578 
L 123.822149 293.752097 
L 124.56 291.165453 
L 125.113388 287.482191 
L 125.297851 292.852181 
L 125.482314 290.051623 
L 125.85124 289.609042 
L 126.589091 293.78652 
L 126.958017 285.657772 
L 127.142479 289.331199 
L 127.511405 292.360424 
L 127.880331 290.885152 
L 128.064793 284.374285 
L 128.618182 291.145783 
L 129.17157 293.454584 
L 129.724959 286.156905 
L 129.909421 292.500574 
L 130.278347 290.103258 
L 130.647273 292.42927 
L 130.831736 291.777691 
L 131.200661 293.115271 
L 131.385124 280.420557 
L 131.938512 292.643184 
L 132.307438 288.241956 
L 132.676364 289.326281 
L 132.860826 290.890069 
L 133.229752 292.46861 
L 133.414215 287.941984 
L 133.967603 294.492191 
L 134.520992 284.207088 
L 134.705455 293.946341 
L 135.07438 286.210999 
L 135.258843 293.127565 
L 135.443306 283.430111 
L 135.627769 284.448049 
L 135.812231 291.708845 
L 135.996694 289.616418 
L 136.181157 289.213177 
L 136.734545 291.772774 
L 137.103471 288.895993 
L 137.287934 284.116113 
L 137.841322 289.641006 
L 138.025785 293.847989 
L 138.394711 285.852016 
L 138.763636 291.858831 
L 139.132562 222.924294 
L 139.317025 294.349582 
L 139.501488 293.260339 
L 139.68595 291.044973 
L 139.870413 291.492472 
L 140.054876 292.984955 
L 140.423802 291.691634 
L 140.792727 292.999708 
L 140.97719 290.956457 
L 141.346116 291.753103 
L 141.530579 287.012563 
L 141.715041 291.389203 
L 142.083967 293.857825 
L 142.26843 291.804738 
L 142.637355 281.293426 
L 142.821818 292.503033 
L 143.190744 281.165569 
L 143.375207 293.811108 
L 143.744132 277.993734 
L 143.928595 292.183391 
L 144.113058 291.431002 
L 144.481983 292.193226 
L 144.850909 289.736898 
L 145.404298 292.928403 
L 145.773223 284.60787 
L 145.957686 293.014461 
L 146.326612 291.625246 
L 146.511074 293.004626 
L 146.88 291.477719 
L 147.248926 280.79921 
L 147.433388 293.432455 
L 147.617851 287.150255 
L 147.986777 294.339747 
L 148.17124 289.552489 
L 148.540165 291.853914 
L 148.724628 290.92941 
L 149.093554 283.678449 
L 149.278017 286.987975 
L 149.462479 287.462521 
L 149.831405 293.211164 
L 150.384793 290.772048 
L 150.569256 242.965862 
L 150.753719 282.456432 
L 150.938182 289.14679 
L 151.122645 288.895993 
L 151.49157 292.171097 
L 151.676033 291.167912 
L 152.044959 287.649389 
L 152.229421 290.804012 
L 152.413884 285.409434 
L 152.598347 287.760034 
L 152.78281 292.235026 
L 152.967273 292.714489 
L 153.336198 287.192054 
L 153.705124 292.785794 
L 153.889587 291.057267 
L 154.258512 292.53008 
L 154.627438 292.984955 
L 155.549752 289.338575 
L 155.734215 293.690627 
L 155.918678 291.541648 
L 156.287603 281.453247 
L 156.472066 289.81558 
L 156.840992 294.425804 
L 157.763306 285.446316 
L 158.132231 288.401777 
L 159.792397 293.796355 
L 160.345785 292.198144 
L 160.530248 293.28001 
L 160.714711 293.626699 
L 160.899174 292.689901 
L 161.083636 292.453858 
L 161.452562 294.73807 
L 161.821488 292.480904 
L 162.00595 294.403675 
L 162.190413 294.06928 
L 162.559339 294.875762 
L 162.743802 291.076937 
L 162.928264 291.470343 
L 163.112727 293.739803 
L 163.666116 292.977579 
L 163.850579 291.064643 
L 164.035041 293.100518 
L 164.403967 290.073752 
L 164.58843 293.142318 
L 164.772893 291.871125 
L 164.957355 292.338295 
L 165.141818 294.622507 
L 165.510744 233.62985 
L 165.695207 292.195685 
L 165.879669 287.602672 
L 166.248595 292.645643 
L 166.617521 291.344945 
L 166.801983 293.764391 
L 166.986446 289.486102 
L 167.170909 293.732426 
L 167.355372 288.359978 
L 167.539835 294.597919 
L 167.724298 287.553496 
L 168.093223 291.976853 
L 168.277686 293.233293 
L 168.646612 293.039049 
L 168.831074 288.738631 
L 169.015537 290.865481 
L 169.2 291.394121 
L 169.937851 292.399764 
L 170.122314 290.083587 
L 170.860165 286.002002 
L 171.044628 292.092416 
L 171.413554 290.944163 
L 171.782479 292.724324 
L 172.151405 292.876769 
L 172.335868 293.385738 
L 172.704793 290.926951 
L 173.073719 289.326281 
L 173.258182 284.361991 
L 173.442645 291.303145 
L 173.81157 291.802279 
L 174.364959 284.799655 
L 174.549421 292.810382 
L 174.733884 293.980764 
L 174.918347 294.101244 
L 175.10281 292.997249 
L 175.287273 294.066821 
L 175.471736 293.479171 
L 175.656198 293.850448 
L 175.840661 294.543826 
L 176.025124 291.701469 
L 176.209587 293.503759 
L 176.39405 292.370259 
L 176.578512 290.36143 
L 176.762975 290.066376 
L 176.947438 288.232121 
L 177.131901 289.889343 
L 177.316364 292.928403 
L 177.500826 292.207979 
L 177.685289 292.035864 
L 177.869752 292.134215 
L 178.238678 291.379368 
L 178.42314 288.677162 
L 178.607603 292.534997 
L 178.792066 292.940697 
L 178.976529 292.26699 
L 179.160992 293.766849 
L 179.345455 294.337288 
L 179.529917 292.441564 
L 179.898843 293.769308 
L 180.083306 291.684257 
L 180.267769 291.558859 
L 180.452231 295.020831 
L 180.636694 292.687442 
L 180.821157 294.83888 
L 181.190083 292.579256 
L 181.374545 294.794622 
L 181.559008 293.579982 
L 181.743471 293.275092 
L 181.927934 291.991606 
L 182.112397 294.502027 
L 182.481322 289.877049 
L 182.665785 294.084033 
L 183.034711 291.824408 
L 183.219174 292.810382 
L 183.403636 289.616418 
L 183.588099 291.610494 
L 183.772562 292.382553 
L 184.141488 294.809375 
L 184.32595 278.891191 
L 184.510413 294.418428 
L 184.694876 292.18585 
L 184.879339 293.154612 
L 185.063802 293.255422 
L 185.248264 292.952991 
L 185.432727 292.871851 
L 185.61719 294.708565 
L 185.801653 291.315439 
L 186.170579 294.165173 
L 186.355041 288.662409 
L 186.539504 292.93578 
L 186.723967 293.422619 
L 186.90843 294.275818 
L 187.461818 292.571879 
L 188.015207 292.714489 
L 188.568595 293.07593 
L 188.753058 291.546565 
L 189.121983 292.625973 
L 189.306446 288.300967 
L 189.675372 292.655478 
L 189.859835 288.490294 
L 190.22876 293.52343 
L 190.413223 290.973668 
L 190.597686 293.122647 
L 190.782149 293.879954 
L 190.966612 293.818484 
L 191.151074 292.463693 
L 191.335537 293.203787 
L 191.52 292.746453 
L 191.704463 294.022563 
L 191.888926 294.268442 
L 192.073388 292.38747 
L 192.257851 293.732426 
L 192.442314 292.589091 
L 192.626777 294.912644 
L 192.81124 291.362156 
L 192.995702 295.22491 
L 193.364628 291.482637 
L 193.549091 293.292304 
L 193.733554 292.416976 
L 193.918017 293.727509 
L 194.102479 293.186576 
L 194.286942 293.102977 
L 194.471405 290.592556 
L 194.655868 294.344664 
L 194.840331 293.211164 
L 195.393719 293.363608 
L 195.762645 292.667772 
L 195.947107 294.032398 
L 196.13157 291.701469 
L 196.316033 292.222732 
L 196.500496 293.326727 
L 196.684959 291.932595 
L 197.053884 293.139859 
L 197.238347 291.180206 
L 197.42281 293.793896 
L 197.607273 294.165173 
L 197.791736 294.21189 
L 198.160661 293.82586 
L 198.345124 291.266264 
L 198.529587 293.970929 
L 198.71405 290.049164 
L 198.898512 291.485096 
L 199.267438 293.368526 
L 199.451901 293.07593 
L 199.636364 285.74137 
L 200.005289 293.034131 
L 200.189752 290.833517 
L 200.374215 292.254696 
L 200.558678 292.099792 
L 200.74314 291.723598 
L 200.927603 293.619322 
L 201.296529 291.883419 
L 201.480992 292.805464 
L 201.665455 291.158077 
L 202.03438 291.357239 
L 202.218843 290.467158 
L 202.403306 295.126558 
L 202.772231 290.528628 
L 202.956694 291.472802 
L 203.32562 292.441564 
L 203.510083 295.008537 
L 203.694545 290.464699 
L 203.879008 293.073472 
L 204.063471 291.974394 
L 204.432397 293.946341 
L 204.61686 292.239943 
L 204.801322 291.755562 
L 204.985785 289.736898 
L 205.170248 292.918568 
L 205.354711 292.195685 
L 205.723636 289.011556 
L 205.908099 291.745727 
L 206.092562 292.28666 
L 206.461488 291.750645 
L 207.014876 290.081129 
L 207.752727 291.684257 
L 208.306116 289.776239 
L 208.859504 290.420441 
L 209.22843 293.860283 
L 209.412893 291.126113 
L 209.781818 293.043966 
L 209.966281 292.586632 
L 210.150744 292.466151 
L 210.335207 293.058719 
L 210.519669 291.499848 
L 211.073058 290.506499 
L 211.626446 292.195685 
L 212.179835 288.686997 
L 212.364298 289.95573 
L 212.733223 288.930417 
L 213.102149 293.243128 
L 213.471074 288.165734 
L 213.655537 291.185124 
L 214.024463 280.892644 
L 214.393388 294.384005 
L 214.577851 284.674257 
L 215.13124 292.249778 
L 215.684628 293.235752 
L 216.238017 268.913436 
L 216.422479 291.585906 
L 216.791405 281.908122 
L 217.160331 289.47135 
L 217.344793 284.143159 
L 217.898182 291.35478 
L 218.45157 293.72505 
L 219.189421 292.67269 
L 219.74281 280.907396 
L 219.927273 289.547572 
L 220.296198 281.052465 
L 220.480661 294.450392 
L 220.849587 288.17311 
L 221.218512 291.706386 
L 221.402975 287.531367 
L 221.587438 292.244861 
L 221.771901 291.539189 
L 221.956364 291.462967 
L 222.325289 287.944443 
L 222.509752 293.012002 
L 222.694215 292.397305 
L 222.878678 292.244861 
L 223.06314 293.058719 
L 223.247603 292.834969 
L 223.432066 290.641732 
L 223.616529 293.798814 
L 223.800992 291.932595 
L 223.985455 295.018372 
L 224.35438 286.513429 
L 224.723306 291.647376 
L 224.907769 287.595295 
L 225.092231 291.362156 
L 225.276694 292.520245 
L 225.461157 291.939971 
L 225.64562 292.203061 
L 225.830083 294.086492 
L 226.014545 293.798814 
L 226.199008 292.215355 
L 226.383471 293.715215 
L 226.567934 288.72142 
L 226.752397 289.048438 
L 226.93686 286.71505 
L 227.121322 282.707228 
L 227.305785 290.668779 
L 227.490248 291.585906 
L 227.859174 287.226477 
L 228.043636 294.659389 
L 228.228099 281.155734 
L 228.597025 280.872973 
L 228.781488 293.425078 
L 228.96595 282.90639 
L 229.150413 282.749027 
L 229.334876 280.356628 
L 229.519339 292.227649 
L 229.888264 289.114825 
L 230.072727 292.436646 
L 230.25719 289.331199 
L 230.441653 291.61787 
L 230.810579 292.889063 
L 231.54843 293.260339 
L 232.101818 292.756288 
L 232.839669 291.084313 
L 233.577521 240.448065 
L 234.130909 294.155338 
L 234.86876 292.308789 
L 235.606612 293.995517 
L 236.344463 289.444303 
L 237.082314 292.362882 
L 237.820165 293.230834 
L 238.373554 293.58244 
L 239.111405 295.14377 
L 239.849256 293.641451 
L 240.587107 290.609768 
L 241.878347 293.31935 
L 242.616198 293.56277 
L 243.35405 288.527176 
L 244.091901 291.101525 
L 244.829752 291.866208 
L 245.38314 295.210157 
L 245.567603 293.985681 
L 245.752066 288.878782 
L 245.936529 287.696106 
L 246.120992 292.805464 
L 246.305455 294.054527 
L 246.489917 293.661122 
L 246.67438 293.70538 
L 246.858843 291.399038 
L 247.043306 291.025303 
L 247.227769 292.680066 
L 247.412231 289.395127 
L 247.596694 294.386464 
L 247.781157 290.452405 
L 247.96562 290.24095 
L 248.150083 292.016194 
L 248.334545 291.829326 
L 248.519008 53.568 
L 248.703471 288.512423 
L 248.887934 293.727509 
L 249.072397 289.141872 
L 249.25686 293.348856 
L 249.810248 289.995071 
L 249.994711 291.967018 
L 250.179174 288.244415 
L 250.363636 292.166179 
L 250.548099 292.950532 
L 250.732562 292.817758 
L 250.917025 289.208259 
L 251.28595 294.17009 
L 251.470413 291.858831 
L 251.839339 289.712311 
L 254.606281 288.271462 
L 254.790744 294.152879 
L 254.975207 291.41625 
L 255.159669 292.259613 
L 255.713058 292.357965 
L 256.266446 293.068554 
L 256.819835 292.158803 
L 257.373223 294.054527 
L 257.926612 293.211164 
L 258.48 292.699736 
L 259.033388 292.761206 
L 259.402314 292.26699 
L 259.955702 292.416976 
L 261.062479 294.120915 
L 261.615868 290.654026 
L 262.169256 291.588365 
L 262.722645 293.835695 
L 263.276033 293.924212 
L 263.829421 293.112812 
L 264.38281 293.877495 
L 264.936198 192.715643 
L 265.489587 291.094149 
L 265.858512 294.627425 
L 266.411901 294.157797 
L 266.965289 289.763945 
L 268.072066 293.417702 
L 268.625455 292.891521 
L 269.178843 293.855366 
L 269.732231 292.375176 
L 270.28562 292.34813 
L 270.839008 291.839161 
L 271.392397 290.427817 
L 271.57686 292.458775 
L 271.761322 292.584173 
L 272.130248 289.451679 
L 272.314711 292.648102 
L 272.499174 293.803731 
L 272.683636 288.138687 
L 272.868099 293.980764 
L 273.052562 293.710297 
L 273.237025 291.261346 
L 273.421488 294.915103 
L 273.60595 292.055534 
L 273.790413 292.407141 
L 273.974876 285.111921 
L 274.159339 292.726783 
L 274.343802 294.615131 
L 274.528264 292.85464 
L 274.712727 292.788252 
L 275.081653 293.636534 
L 275.266116 291.762939 
L 275.450579 293.216081 
L 275.635041 291.128572 
L 275.819504 292.901357 
L 276.003967 291.017926 
L 276.18843 292.89398 
L 276.372893 285.212731 
L 276.557355 292.42927 
L 277.110744 289.323822 
L 277.295207 293.139859 
L 277.479669 292.343212 
L 277.664132 292.827593 
L 278.033058 294.779869 
L 278.217521 293.336562 
L 278.586446 286.801107 
L 278.955372 293.154612 
L 279.139835 282.522819 
L 279.693223 291.762939 
L 280.062149 276.402899 
L 280.431074 292.446481 
L 280.615537 289.284482 
L 280.984463 289.119743 
L 281.168926 291.949806 
L 281.537851 279.82553 
L 281.906777 293.019378 
L 282.09124 252.702657 
L 282.460165 291.249052 
L 283.013554 290.521251 
L 283.198017 293.331644 
L 283.566942 257.62023 
L 283.935868 291.595741 
L 284.489256 286.191328 
L 284.673719 294.025022 
L 285.042645 290.690908 
L 285.41157 293.670957 
L 285.964959 293.919294 
L 286.149421 289.759028 
L 286.887273 293.953717 
L 287.071736 277.865877 
L 287.440661 292.800546 
L 287.625124 291.202335 
L 288.178512 292.060452 
L 288.547438 291.143324 
L 288.731901 205.063669 
L 288.916364 290.823682 
L 289.100826 291.465425 
L 289.285289 287.101079 
L 289.654215 293.201329 
L 289.838678 293.341479 
L 290.207603 292.065369 
L 290.392066 293.683251 
L 290.760992 288.527176 
L 290.945455 288.537011 
L 291.129917 292.81284 
L 291.498843 291.170371 
L 291.867769 292.222732 
L 292.052231 282.635923 
L 292.421157 292.984955 
L 292.60562 290.056541 
L 292.974545 292.301413 
L 293.159008 290.737625 
L 293.527934 289.700017 
L 293.712397 285.210273 
L 294.081322 292.20552 
L 294.450248 293.993058 
L 295.003636 292.827593 
L 295.557025 288.608315 
L 296.110413 292.375176 
L 296.663802 291.831785 
L 296.848264 293.107895 
L 297.21719 293.506218 
L 297.586116 289.188589 
L 297.770579 292.30633 
L 298.139504 291.53673 
L 298.323967 292.048158 
L 298.50843 292.102251 
L 298.692893 293.378361 
L 298.877355 293.602111 
L 299.061818 292.997249 
L 299.430744 293.594734 
L 299.615207 293.223458 
L 299.799669 285.249613 
L 299.984132 292.51041 
L 300.353058 290.882693 
L 300.537521 294.39384 
L 300.721983 290.823682 
L 300.906446 292.453858 
L 301.275372 291.135948 
L 301.459835 293.788979 
L 301.82876 292.633349 
L 302.382149 294.725776 
L 302.566612 292.682525 
L 302.751074 292.842346 
L 302.935537 293.823402 
L 303.12 293.823402 
L 303.304463 292.308789 
L 303.673388 293.897165 
L 303.857851 293.19887 
L 304.042314 293.102977 
L 304.226777 293.921753 
L 304.595702 292.394847 
L 304.780165 294.639719 
L 304.964628 292.7735 
L 305.149091 292.488281 
L 305.333554 293.82586 
L 305.702479 292.168638 
L 305.886942 295.335555 
L 306.071405 293.752097 
L 306.255868 294.457768 
L 306.440331 293.329185 
L 306.624793 293.956176 
L 306.993719 293.120189 
L 307.178182 291.9621 
L 307.362645 293.378361 
L 307.547107 293.243128 
L 307.73157 292.660396 
L 307.916033 293.715215 
L 308.100496 293.432455 
L 308.284959 294.059445 
L 308.469421 292.881686 
L 308.653884 292.95545 
L 308.838347 293.980764 
L 309.02281 294.034857 
L 309.391736 293.518512 
L 309.576198 294.189761 
L 309.760661 293.348856 
L 309.945124 294.221725 
L 310.129587 294.101244 
L 310.31405 293.130024 
L 310.498512 287.317453 
L 310.682975 292.321083 
L 310.867438 292.965285 
L 311.051901 290.870399 
L 311.236364 293.892248 
L 311.420826 291.858831 
L 311.605289 292.923486 
L 312.158678 292.050617 
L 312.34314 292.948074 
L 312.527603 293.181658 
L 312.712066 290.088505 
L 312.896529 290.039329 
L 313.080992 293.066095 
L 313.449917 293.911918 
L 313.818843 293.191493 
L 314.003306 288.876323 
L 314.187769 290.882693 
L 314.372231 280.024692 
L 314.556694 293.390655 
L 314.92562 282.648217 
L 315.110083 292.69236 
L 315.294545 285.694654 
L 315.479008 292.394847 
L 315.663471 290.985962 
L 316.032397 292.670231 
L 316.401322 287.410886 
L 316.770248 292.094875 
L 316.954711 275.984906 
L 317.139174 289.744275 
L 317.508099 294.015187 
L 318.061488 284.209546 
L 318.24595 291.546565 
L 318.430413 290.004906 
L 318.614876 291.158077 
L 318.983802 288.750925 
L 319.168264 289.901637 
L 319.53719 283.063752 
L 319.721653 286.30935 
L 320.090579 284.165288 
L 320.643967 293.216081 
L 320.82843 290.363889 
L 321.012893 294.209431 
L 321.381818 283.95875 
L 321.566281 293.366067 
L 321.750744 293.577523 
L 321.935207 292.753829 
L 322.119669 292.869392 
L 322.304132 290.413065 
L 322.488595 292.212896 
L 322.673058 291.226923 
L 322.857521 293.363608 
L 323.041983 291.5982 
L 323.410909 293.921753 
L 323.595372 293.255422 
L 323.779835 293.164447 
L 324.14876 294.954443 
L 324.333223 293.897165 
L 324.517686 294.41351 
L 324.702149 290.779424 
L 325.071074 292.709571 
L 325.255537 290.732707 
L 325.44 290.049164 
L 325.808926 292.889063 
L 325.993388 292.060452 
L 326.177851 293.907 
L 326.362314 289.547572 
L 326.546777 293.405408 
L 326.73124 294.420887 
L 326.915702 292.576797 
L 327.100165 292.67269 
L 327.284628 291.426085 
L 327.469091 291.199876 
L 327.653554 289.837709 
L 327.838017 292.397305 
L 328.206942 293.651287 
L 328.391405 292.805464 
L 328.575868 294.391381 
L 328.760331 285.188144 
L 328.944793 258.928304 
L 329.129256 292.480904 
L 329.313719 289.459056 
L 329.498182 294.012728 
L 329.682645 291.204794 
L 330.05157 292.682525 
L 330.236033 291.27364 
L 330.604959 294.275818 
L 330.789421 287.418263 
L 330.973884 291.831785 
L 331.34281 286.488842 
L 331.527273 293.892248 
L 331.896198 287.38384 
L 332.080661 274.770265 
L 332.265124 291.812114 
L 332.449587 288.104264 
L 332.63405 291.971935 
L 332.818512 280.445144 
L 333.002975 292.557127 
L 333.187438 293.090683 
L 333.371901 291.967018 
L 333.740826 286.405243 
L 333.925289 294.954443 
L 334.294215 291.502307 
L 334.66314 291.868666 
L 335.216529 272.960598 
L 335.585455 293.142318 
L 335.95438 248.262088 
L 336.507769 293.607028 
L 336.876694 291.040055 
L 337.24562 291.502307 
L 337.614545 294.391381 
L 338.167934 287.061739 
L 338.53686 263.076277 
L 341.119339 289.301693 
L 341.303802 276.228326 
L 341.488264 284.170206 
L 341.85719 291.057267 
L 342.041653 286.737179 
L 342.226116 287.774787 
L 342.595041 283.904657 
L 342.963967 272.318855 
L 343.332893 286.466712 
L 343.701818 288.554222 
L 343.886281 286.255257 
L 344.255207 288.096888 
L 344.624132 287.428098 
L 344.993058 270.710809 
L 345.361983 290.196692 
L 345.730909 285.37747 
L 346.099835 284.24397 
L 346.284298 289.412339 
L 346.653223 281.544222 
L 347.022149 284.937347 
L 347.391074 286.383114 
L 347.76 279.365737 
L 348.128926 258.918469 
L 348.497851 292.640725 
L 348.682314 289.894261 
L 349.05124 292.739077 
L 349.420165 291.487554 
L 349.789091 292.517786 
L 350.158017 291.521977 
L 350.526942 288.015748 
L 350.895868 289.486102 
L 351.080331 292.859557 
L 351.449256 293.828319 
L 351.818182 292.380094 
L 352.002645 293.80619 
L 352.187107 292.775959 
L 352.37157 293.934047 
L 352.556033 294.327453 
L 352.924959 290.826141 
L 353.109421 290.961374 
L 353.293884 293.550476 
L 353.478347 294.06928 
L 353.66281 292.094875 
L 353.847273 292.028487 
L 354.031736 291.689175 
L 354.400661 293.189035 
L 354.585124 292.862016 
L 355.322975 294.897891 
L 355.507438 293.38082 
L 355.691901 293.757014 
L 355.876364 291.276099 
L 356.060826 291.92276 
L 356.245289 293.44229 
L 356.429752 289.972942 
L 356.614215 292.780876 
L 356.798678 291.332651 
L 356.98314 292.416976 
L 357.167603 292.112086 
L 357.352066 292.970203 
L 357.536529 295.185569 
L 357.720992 293.21854 
L 357.905455 292.490739 
L 358.27438 294.093868 
L 358.458843 292.203061 
L 358.643306 294.270901 
L 359.196694 291.662128 
L 359.56562 293.66358 
L 359.750083 293.398032 
L 359.934545 274.047382 
L 360.119008 293.09806 
L 360.303471 292.670231 
L 360.487934 289.680346 
L 360.672397 294.479898 
L 378.749752 286.021672 
L 378.934215 289.031227 
L 379.118678 281.318014 
L 379.30314 288.195239 
L 379.487603 280.499238 
L 379.672066 291.040055 
L 379.856529 287.782163 
L 380.040992 288.918123 
L 380.225455 291.180206 
L 380.409917 283.924327 
L 380.59438 288.667326 
L 380.963306 290.52371 
L 381.147769 289.601665 
L 381.332231 289.830332 
L 381.516694 291.064643 
L 381.701157 290.132763 
L 381.88562 285.050451 
L 382.070083 295.234745 
L 382.254545 293.186576 
L 382.439008 293.383279 
L 382.623471 293.009543 
L 382.807934 293.791437 
L 382.992397 292.335836 
L 383.17686 293.602111 
L 383.361322 293.491465 
L 394.798017 293.088224 
L 394.982479 292.839887 
L 395.166942 293.520971 
L 395.351405 291.337568 
L 395.535868 293.373444 
L 395.720331 292.451399 
L 395.904793 293.024296 
L 396.089256 292.136674 
L 396.458182 291.5564 
L 396.642645 293.96847 
L 396.827107 292.198144 
L 397.01157 293.193952 
L 397.196033 292.259613 
L 397.380496 291.991606 
L 397.564959 294.216807 
L 397.749421 293.009543 
L 397.933884 293.216081 
L 398.118347 292.960368 
L 398.487273 294.627425 
L 398.487273 294.627425 
" style="fill:none;stroke:#0000ff;stroke-linecap:square;stroke-width:1.5;"/>
   </g>
   <g id="patch_3">
    <path d="M 57.6 307.584 
L 57.6 41.472 
" style="fill:none;stroke:#000000;stroke-linecap:square;stroke-linejoin:miter;stroke-width:0.8;"/>
   </g>
   <g id="patch_4">
    <path d="M 414.72 307.584 
L 414.72 41.472 
" style="fill:none;stroke:#000000;stroke-linecap:square;stroke-linejoin:miter;stroke-width:0.8;"/>
   </g>
   <g id="patch_5">
    <path d="M 57.6 307.584 
L 414.72 307.584 
" style="fill:none;stroke:#000000;stroke-linecap:square;stroke-linejoin:miter;stroke-width:0.8;"/>
   </g>
   <g id="patch_6">
    <path d="M 57.6 41.472 
L 414.72 41.472 
" style="fill:none;stroke:#000000;stroke-linecap:square;stroke-linejoin:miter;stroke-width:0.8;"/>
   </g>
   <g id="text_15">
    <!-- air_pressure-&gt;ping_night -->
    <g transform="translate(160.726875 35.472)scale(0.12 -0.12)">
     <defs>
      <path d="M 4.890625 31.390625 
L 31.203125 31.390625 
L 31.203125 23.390625 
L 4.890625 23.390625 
z
" id="DejaVuSans-45"/>
      <path d="M 10.59375 49.21875 
L 10.59375 58.109375 
L 73.1875 35.40625 
L 73.1875 27.296875 
L 10.59375 4.59375 
L 10.59375 13.484375 
L 60.890625 31.296875 
z
" id="DejaVuSans-62"/>
      <path d="M 54.890625 33.015625 
L 54.890625 0 
L 45.90625 0 
L 45.90625 32.71875 
Q 45.90625 40.484375 42.875 44.328125 
Q 39.84375 48.1875 33.796875 48.1875 
Q 26.515625 48.1875 22.3125 43.546875 
Q 18.109375 38.921875 18.109375 30.90625 
L 18.109375 0 
L 9.078125 0 
L 9.078125 54.6875 
L 18.109375 54.6875 
L 18.109375 46.1875 
Q 21.34375 51.125 25.703125 53.5625 
Q 30.078125 56 35.796875 56 
Q 45.21875 56 50.046875 50.171875 
Q 54.890625 44.34375 54.890625 33.015625 
z
" id="DejaVuSans-110"/>
      <path d="M 45.40625 27.984375 
Q 45.40625 37.75 41.375 43.109375 
Q 37.359375 48.484375 30.078125 48.484375 
Q 22.859375 48.484375 18.828125 43.109375 
Q 14.796875 37.75 14.796875 27.984375 
Q 14.796875 18.265625 18.828125 12.890625 
Q 22.859375 7.515625 30.078125 7.515625 
Q 37.359375 7.515625 41.375 12.890625 
Q 45.40625 18.265625 45.40625 27.984375 
z
M 54.390625 6.78125 
Q 54.390625 -7.171875 48.1875 -13.984375 
Q 42 -20.796875 29.203125 -20.796875 
Q 24.46875 -20.796875 20.265625 -20.09375 
Q 16.0625 -19.390625 12.109375 -17.921875 
L 12.109375 -9.1875 
Q 16.0625 -11.328125 19.921875 -12.34375 
Q 23.78125 -13.375 27.78125 -13.375 
Q 36.625 -13.375 41.015625 -8.765625 
Q 45.40625 -4.15625 45.40625 5.171875 
L 45.40625 9.625 
Q 42.625 4.78125 38.28125 2.390625 
Q 33.9375 0 27.875 0 
Q 17.828125 0 11.671875 7.65625 
Q 5.515625 15.328125 5.515625 27.984375 
Q 5.515625 40.671875 11.671875 48.328125 
Q 17.828125 56 27.875 56 
Q 33.9375 56 38.28125 53.609375 
Q 42.625 51.21875 45.40625 46.390625 
L 45.40625 54.6875 
L 54.390625 54.6875 
z
" id="DejaVuSans-103"/>
      <path d="M 54.890625 33.015625 
L 54.890625 0 
L 45.90625 0 
L 45.90625 32.71875 
Q 45.90625 40.484375 42.875 44.328125 
Q 39.84375 48.1875 33.796875 48.1875 
Q 26.515625 48.1875 22.3125 43.546875 
Q 18.109375 38.921875 18.109375 30.90625 
L 18.109375 0 
L 9.078125 0 
L 9.078125 75.984375 
L 18.109375 75.984375 
L 18.109375 46.1875 
Q 21.34375 51.125 25.703125 53.5625 
Q 30.078125 56 35.796875 56 
Q 45.21875 56 50.046875 50.171875 
Q 54.890625 44.34375 54.890625 33.015625 
z
" id="DejaVuSans-104"/>
      <path d="M 18.3125 70.21875 
L 18.3125 54.6875 
L 36.8125 54.6875 
L 36.8125 47.703125 
L 18.3125 47.703125 
L 18.3125 18.015625 
Q 18.3125 11.328125 20.140625 9.421875 
Q 21.96875 7.515625 27.59375 7.515625 
L 36.8125 7.515625 
L 36.8125 0 
L 27.59375 0 
Q 17.1875 0 13.234375 3.875 
Q 9.28125 7.765625 9.28125 18.015625 
L 9.28125 47.703125 
L 2.6875 47.703125 
L 2.6875 54.6875 
L 9.28125 54.6875 
L 9.28125 70.21875 
z
" id="DejaVuSans-116"/>
     </defs>
     <use xlink:href="#DejaVuSans-97"/>
     <use x="61.279297" xlink:href="#DejaVuSans-105"/>
     <use x="89.0625" xlink:href="#DejaVuSans-114"/>
     <use x="130.175781" xlink:href="#DejaVuSans-95"/>
     <use x="180.175781" xlink:href="#DejaVuSans-112"/>
     <use x="243.652344" xlink:href="#DejaVuSans-114"/>
     <use x="282.515625" xlink:href="#DejaVuSans-101"/>
     <use x="344.039062" xlink:href="#DejaVuSans-115"/>
     <use x="396.138672" xlink:href="#DejaVuSans-115"/>
     <use x="448.238281" xlink:href="#DejaVuSans-117"/>
     <use x="511.617188" xlink:href="#DejaVuSans-114"/>
     <use x="550.480469" xlink:href="#DejaVuSans-101"/>
     <use x="612.003906" xlink:href="#DejaVuSans-45"/>
     <use x="648.087891" xlink:href="#DejaVuSans-62"/>
     <use x="731.876953" xlink:href="#DejaVuSans-112"/>
     <use x="795.353516" xlink:href="#DejaVuSans-105"/>
     <use x="823.136719" xlink:href="#DejaVuSans-110"/>
     <use x="886.515625" xlink:href="#DejaVuSans-103"/>
     <use x="949.992188" xlink:href="#DejaVuSans-95"/>
     <use x="999.992188" xlink:href="#DejaVuSans-110"/>
     <use x="1063.371094" xlink:href="#DejaVuSans-105"/>
     <use x="1091.154297" xlink:href="#DejaVuSans-103"/>
     <use x="1154.630859" xlink:href="#DejaVuSans-104"/>
     <use x="1218.009766" xlink:href="#DejaVuSans-116"/>
    </g>
   </g>
  </g>
  <g id="legend_1">
   <g id="patch_7">
    <path d="M 415.451563 22.678125 
L 453.8 22.678125 
Q 455.8 22.678125 455.8 20.678125 
L 455.8 7 
Q 455.8 5 453.8 5 
L 415.451563 5 
Q 413.451563 5 413.451563 7 
L 413.451563 20.678125 
Q 413.451563 22.678125 415.451563 22.678125 
z
" style="fill:#ffffff;opacity:0.8;stroke:#cccccc;stroke-linejoin:miter;"/>
   </g>
   <g id="line2d_15">
    <path d="M 417.451563 13.098438 
L 437.451563 13.098438 
" style="fill:none;stroke:#0000ff;stroke-linecap:square;stroke-width:1.5;"/>
   </g>
   <g id="line2d_16"/>
   <g id="text_16">
    <!-- p -->
    <g transform="translate(445.451563 16.598438)scale(0.1 -0.1)">
     <use xlink:href="#DejaVuSans-112"/>
    </g>
   </g>
  </g>
 </g>
 <defs>
  <clipPath id="pe6e638ba82">
   <rect height="266.112" width="357.12" x="57.6" y="41.472"/>
  </clipPath>
 </defs>
</svg>
