<?xml version="1.0" encoding="utf-8" standalone="no"?>
<!DOCTYPE svg PUBLIC "-//W3C//DTD SVG 1.1//EN"
  "http://www.w3.org/Graphics/SVG/1.1/DTD/svg11.dtd">
<!-- Created with matplotlib (https://matplotlib.org/) -->
<svg height="2090.594375pt" version="1.1" viewBox="0 0 2062.259375 2090.594375" width="2062.259375pt" xmlns="http://www.w3.org/2000/svg" xmlns:xlink="http://www.w3.org/1999/xlink">
 <metadata>
  <rdf:RDF xmlns:cc="http://creativecommons.org/ns#" xmlns:dc="http://purl.org/dc/elements/1.1/" xmlns:rdf="http://www.w3.org/1999/02/22-rdf-syntax-ns#">
   <cc:Work>
    <dc:type rdf:resource="http://purl.org/dc/dcmitype/StillImage"/>
    <dc:date>2022-07-24T11:48:48.333377</dc:date>
    <dc:format>image/svg+xml</dc:format>
    <dc:creator>
     <cc:Agent>
      <dc:title>Matplotlib v3.3.2, https://matplotlib.org/</dc:title>
     </cc:Agent>
    </dc:creator>
   </cc:Work>
  </rdf:RDF>
 </metadata>
 <defs>
  <style type="text/css">*{stroke-linecap:butt;stroke-linejoin:round;}</style>
 </defs>
 <g id="figure_1">
  <g id="patch_1">
   <path d="M 0 2090.594375 
L 2062.259375 2090.594375 
L 2062.259375 0 
L 0 0 
z
" style="fill:#ffffff;"/>
  </g>
  <g id="axes_1">
   <g id="patch_2">
    <path d="M 44.059375 2052.76 
L 1829.659375 2052.76 
L 1829.659375 278.68 
L 44.059375 278.68 
z
" style="fill:#ffffff;"/>
   </g>
   <g id="matplotlib.axis_1">
    <g id="xtick_1">
     <g id="line2d_1">
      <defs>
       <path d="M 0 0 
L 0 3.5 
" id="m0b9e177f4d" style="stroke:#000000;stroke-width:0.8;"/>
      </defs>
      <g>
       <use style="stroke:#000000;stroke-width:0.8;" x="207.265676" xlink:href="#m0b9e177f4d" y="2052.76"/>
      </g>
     </g>
     <g id="text_1">
      <text style="font-family:DejaVu Sans;font-size:10px;font-stretch:normal;font-style:normal;font-weight:normal;text-anchor:middle;" transform="rotate(-0, 207.265676, 2067.358437)" x="207.265676" y="2067.358437">5</text>
     </g>
    </g>
    <g id="xtick_2">
     <g id="line2d_2">
      <g>
       <use style="stroke:#000000;stroke-width:0.8;" x="500.275194" xlink:href="#m0b9e177f4d" y="2052.76"/>
      </g>
     </g>
     <g id="text_2">
      <text style="font-family:DejaVu Sans;font-size:10px;font-stretch:normal;font-style:normal;font-weight:normal;text-anchor:middle;" transform="rotate(-0, 500.275194, 2067.358437)" x="500.275194" y="2067.358437">10</text>
     </g>
    </g>
    <g id="xtick_3">
     <g id="line2d_3">
      <g>
       <use style="stroke:#000000;stroke-width:0.8;" x="793.284711" xlink:href="#m0b9e177f4d" y="2052.76"/>
      </g>
     </g>
     <g id="text_3">
      <text style="font-family:DejaVu Sans;font-size:10px;font-stretch:normal;font-style:normal;font-weight:normal;text-anchor:middle;" transform="rotate(-0, 793.284711, 2067.358437)" x="793.284711" y="2067.358437">15</text>
     </g>
    </g>
    <g id="xtick_4">
     <g id="line2d_4">
      <g>
       <use style="stroke:#000000;stroke-width:0.8;" x="1086.294229" xlink:href="#m0b9e177f4d" y="2052.76"/>
      </g>
     </g>
     <g id="text_4">
      <text style="font-family:DejaVu Sans;font-size:10px;font-stretch:normal;font-style:normal;font-weight:normal;text-anchor:middle;" transform="rotate(-0, 1086.294229, 2067.358437)" x="1086.294229" y="2067.358437">20</text>
     </g>
    </g>
    <g id="xtick_5">
     <g id="line2d_5">
      <g>
       <use style="stroke:#000000;stroke-width:0.8;" x="1379.303747" xlink:href="#m0b9e177f4d" y="2052.76"/>
      </g>
     </g>
     <g id="text_5">
      <text style="font-family:DejaVu Sans;font-size:10px;font-stretch:normal;font-style:normal;font-weight:normal;text-anchor:middle;" transform="rotate(-0, 1379.303747, 2067.358437)" x="1379.303747" y="2067.358437">25</text>
     </g>
    </g>
    <g id="xtick_6">
     <g id="line2d_6">
      <g>
       <use style="stroke:#000000;stroke-width:0.8;" x="1672.313264" xlink:href="#m0b9e177f4d" y="2052.76"/>
      </g>
     </g>
     <g id="text_6">
      <text style="font-family:DejaVu Sans;font-size:10px;font-stretch:normal;font-style:normal;font-weight:normal;text-anchor:middle;" transform="rotate(-0, 1672.313264, 2067.358437)" x="1672.313264" y="2067.358437">30</text>
     </g>
    </g>
    <g id="text_7">
     <text style="font-family:DejaVu Sans;font-size:10px;font-stretch:normal;font-style:normal;font-weight:normal;text-anchor:middle;" transform="rotate(-0, 936.859375, 2081.036562)" x="936.859375" y="2081.036562">wind_speed from WeatherAPI</text>
    </g>
   </g>
   <g id="matplotlib.axis_2">
    <g id="ytick_1">
     <g id="line2d_7">
      <defs>
       <path d="M 0 0 
L -3.5 0 
" id="md462af58f8" style="stroke:#000000;stroke-width:0.8;"/>
      </defs>
      <g>
       <use style="stroke:#000000;stroke-width:0.8;" x="44.059375" xlink:href="#md462af58f8" y="2005.164285"/>
      </g>
     </g>
     <g id="text_8">
      <text style="font-family:DejaVu Sans;font-size:10px;font-stretch:normal;font-style:normal;font-weight:normal;text-anchor:end;" transform="rotate(-0, 37.059375, 2008.963504)" x="37.059375" y="2008.963504">5.0</text>
     </g>
    </g>
    <g id="ytick_2">
     <g id="line2d_8">
      <g>
       <use style="stroke:#000000;stroke-width:0.8;" x="44.059375" xlink:href="#md462af58f8" y="1806.102325"/>
      </g>
     </g>
     <g id="text_9">
      <text style="font-family:DejaVu Sans;font-size:10px;font-stretch:normal;font-style:normal;font-weight:normal;text-anchor:end;" transform="rotate(-0, 37.059375, 1809.901544)" x="37.059375" y="1809.901544">5.5</text>
     </g>
    </g>
    <g id="ytick_3">
     <g id="line2d_9">
      <g>
       <use style="stroke:#000000;stroke-width:0.8;" x="44.059375" xlink:href="#md462af58f8" y="1607.040365"/>
      </g>
     </g>
     <g id="text_10">
      <text style="font-family:DejaVu Sans;font-size:10px;font-stretch:normal;font-style:normal;font-weight:normal;text-anchor:end;" transform="rotate(-0, 37.059375, 1610.839584)" x="37.059375" y="1610.839584">6.0</text>
     </g>
    </g>
    <g id="ytick_4">
     <g id="line2d_10">
      <g>
       <use style="stroke:#000000;stroke-width:0.8;" x="44.059375" xlink:href="#md462af58f8" y="1407.978405"/>
      </g>
     </g>
     <g id="text_11">
      <text style="font-family:DejaVu Sans;font-size:10px;font-stretch:normal;font-style:normal;font-weight:normal;text-anchor:end;" transform="rotate(-0, 37.059375, 1411.777624)" x="37.059375" y="1411.777624">6.5</text>
     </g>
    </g>
    <g id="ytick_5">
     <g id="line2d_11">
      <g>
       <use style="stroke:#000000;stroke-width:0.8;" x="44.059375" xlink:href="#md462af58f8" y="1208.916445"/>
      </g>
     </g>
     <g id="text_12">
      <text style="font-family:DejaVu Sans;font-size:10px;font-stretch:normal;font-style:normal;font-weight:normal;text-anchor:end;" transform="rotate(-0, 37.059375, 1212.715664)" x="37.059375" y="1212.715664">7.0</text>
     </g>
    </g>
    <g id="ytick_6">
     <g id="line2d_12">
      <g>
       <use style="stroke:#000000;stroke-width:0.8;" x="44.059375" xlink:href="#md462af58f8" y="1009.854485"/>
      </g>
     </g>
     <g id="text_13">
      <text style="font-family:DejaVu Sans;font-size:10px;font-stretch:normal;font-style:normal;font-weight:normal;text-anchor:end;" transform="rotate(-0, 37.059375, 1013.653704)" x="37.059375" y="1013.653704">7.5</text>
     </g>
    </g>
    <g id="ytick_7">
     <g id="line2d_13">
      <g>
       <use style="stroke:#000000;stroke-width:0.8;" x="44.059375" xlink:href="#md462af58f8" y="810.792525"/>
      </g>
     </g>
     <g id="text_14">
      <text style="font-family:DejaVu Sans;font-size:10px;font-stretch:normal;font-style:normal;font-weight:normal;text-anchor:end;" transform="rotate(-0, 37.059375, 814.591744)" x="37.059375" y="814.591744">8.0</text>
     </g>
    </g>
    <g id="ytick_8">
     <g id="line2d_14">
      <g>
       <use style="stroke:#000000;stroke-width:0.8;" x="44.059375" xlink:href="#md462af58f8" y="611.730565"/>
      </g>
     </g>
     <g id="text_15">
      <text style="font-family:DejaVu Sans;font-size:10px;font-stretch:normal;font-style:normal;font-weight:normal;text-anchor:end;" transform="rotate(-0, 37.059375, 615.529784)" x="37.059375" y="615.529784">8.5</text>
     </g>
    </g>
    <g id="ytick_9">
     <g id="line2d_15">
      <g>
       <use style="stroke:#000000;stroke-width:0.8;" x="44.059375" xlink:href="#md462af58f8" y="412.668605"/>
      </g>
     </g>
     <g id="text_16">
      <text style="font-family:DejaVu Sans;font-size:10px;font-stretch:normal;font-style:normal;font-weight:normal;text-anchor:end;" transform="rotate(-0, 37.059375, 416.467824)" x="37.059375" y="416.467824">9.0</text>
     </g>
    </g>
    <g id="text_17">
     <text style="font-family:DejaVu Sans;font-size:10px;font-stretch:normal;font-style:normal;font-weight:normal;text-anchor:middle;" transform="rotate(-90, 14.798438, 1165.72)" x="14.798438" y="1165.72">ping_night[ms]</text>
    </g>
   </g>
   <g id="line2d_16">
    <path clip-path="url(#p87329221d6)" d="M 125.223011 1955.796919 
L 148.663773 1643.269642 
L 166.244344 1874.181516 
L 189.685105 1853.877196 
L 207.265676 1770.271173 
L 230.706438 1733.245648 
L 254.147199 1752.75372 
L 271.72777 1881.347746 
L 295.168532 1896.476455 
L 312.749103 1846.312841 
L 336.189864 1818.444167 
L 359.630625 1674.323308 
L 377.211196 1855.469691 
L 400.651958 1759.919951 
L 418.232529 1800.52859 
L 441.67329 1871.792772 
L 465.114052 1874.977764 
L 482.694623 1848.701585 
L 506.135384 1877.366507 
L 523.715955 1885.328985 
L 547.156717 1838.748487 
L 570.597478 1847.507213 
L 588.178049 1805.306078 
L 611.618811 1852.2847 
L 629.199382 1929.918864 
L 652.640143 1972.12 
L 676.080904 1765.095562 
L 693.661475 1767.882429 
L 717.102237 1884.532738 
L 734.682808 1770.271173 
L 758.123569 1805.704201 
L 781.564331 1803.713582 
L 799.144902 1840.739106 
L 822.585663 1849.497833 
L 840.166234 1943.455078 
L 863.606996 1531.396821 
L 887.047757 1865.024666 
L 904.628328 1669.943945 
L 928.069089 1686.267025 
L 945.649661 1730.458781 
L 969.090422 1489.593809 
L 992.531183 359.32 
L 1010.111754 1668.749573 
L 1033.552516 1653.620864 
L 1051.133087 1858.256559 
L 1074.573848 1781.816766 
L 1098.01461 1773.05804 
L 1115.595181 1755.142464 
L 1139.035942 1800.130467 
L 1180.057275 1857.460311 
L 1203.498036 1736.828763 
L 1221.078607 1677.906423 
L 1244.519368 1895.680207 
L 1262.099939 1661.583342 
L 1285.540701 1472.47448 
L 1308.981462 1743.198746 
L 1326.562033 1794.556732 
L 1350.002795 1697.812619 
L 1367.583366 1632.520296 
L 1391.024127 1756.734959 
L 1414.464889 1665.166458 
L 1432.04546 1505.120642 
L 1455.486221 1752.355596 
L 1473.066792 1547.719901 
L 1496.507554 1543.340538 
L 1519.948315 1636.501535 
L 1537.528886 1701.793858 
L 1560.969647 1572.403584 
L 1625.431741 1484.816322 
L 1643.012312 1511.092501 
L 1707.474406 1718.913187 
L 1730.915168 1622.567198 
L 1748.495739 1797.343599 
" style="fill:none;stroke:#0000ff;stroke-linecap:square;stroke-width:1.5;"/>
   </g>
   <g id="patch_3">
    <path d="M 44.059375 2052.76 
L 44.059375 278.68 
" style="fill:none;stroke:#000000;stroke-linecap:square;stroke-linejoin:miter;stroke-width:0.8;"/>
   </g>
   <g id="patch_4">
    <path d="M 1829.659375 2052.76 
L 1829.659375 278.68 
" style="fill:none;stroke:#000000;stroke-linecap:square;stroke-linejoin:miter;stroke-width:0.8;"/>
   </g>
   <g id="patch_5">
    <path d="M 44.059375 2052.76 
L 1829.659375 2052.76 
" style="fill:none;stroke:#000000;stroke-linecap:square;stroke-linejoin:miter;stroke-width:0.8;"/>
   </g>
   <g id="patch_6">
    <path d="M 44.059375 278.68 
L 1829.659375 278.68 
" style="fill:none;stroke:#000000;stroke-linecap:square;stroke-linejoin:miter;stroke-width:0.8;"/>
   </g>
   <g id="text_18">
    <text style="font-family:DejaVu Sans;font-size:12px;font-stretch:normal;font-style:normal;font-weight:normal;text-anchor:middle;" transform="rotate(-0, 936.859375, 272.68)" x="936.859375" y="272.68">wind_speed-&gt;ping_night</text>
   </g>
  </g>
  <g id="legend_1">
   <g id="patch_7">
    <path d="M 1947.971875 22.95625 
L 2055.259375 22.95625 
Q 2057.259375 22.95625 2057.259375 20.95625 
L 2057.259375 7 
Q 2057.259375 5 2055.259375 5 
L 1947.971875 5 
Q 1945.971875 5 1945.971875 7 
L 1945.971875 20.95625 
Q 1945.971875 22.95625 1947.971875 22.95625 
z
" style="fill:#ffffff;opacity:0.8;stroke:#cccccc;stroke-linejoin:miter;"/>
   </g>
   <g id="line2d_17">
    <path d="M 1949.971875 13.098438 
L 1969.971875 13.098438 
" style="fill:none;stroke:#0000ff;stroke-linecap:square;stroke-width:1.5;"/>
   </g>
   <g id="line2d_18"/>
   <g id="text_19">
    <text style="font-family:DejaVu Sans;font-size:10px;font-stretch:normal;font-style:normal;font-weight:normal;text-anchor:start;" transform="rotate(-0, 1977.971875, 16.598438)" x="1977.971875" y="16.598438">ping_night[ms]</text>
   </g>
  </g>
 </g>
 <defs>
  <clipPath id="p87329221d6">
   <rect height="1774.08" width="1785.6" x="44.059375" y="278.68"/>
  </clipPath>
 </defs>
</svg>
