<?xml version="1.0" encoding="utf-8" standalone="no"?>
<!DOCTYPE svg PUBLIC "-//W3C//DTD SVG 1.1//EN"
  "http://www.w3.org/Graphics/SVG/1.1/DTD/svg11.dtd">
<!-- Created with matplotlib (https://matplotlib.org/) -->
<svg height="2090.31625pt" version="1.1" viewBox="0 0 2059.08125 2090.31625" width="2059.08125pt" xmlns="http://www.w3.org/2000/svg" xmlns:xlink="http://www.w3.org/1999/xlink">
 <metadata>
  <rdf:RDF xmlns:cc="http://creativecommons.org/ns#" xmlns:dc="http://purl.org/dc/elements/1.1/" xmlns:rdf="http://www.w3.org/1999/02/22-rdf-syntax-ns#">
   <cc:Work>
    <dc:type rdf:resource="http://purl.org/dc/dcmitype/StillImage"/>
    <dc:date>2022-07-23T21:13:35.217293</dc:date>
    <dc:format>image/svg+xml</dc:format>
    <dc:creator>
     <cc:Agent>
      <dc:title>Matplotlib v3.3.2, https://matplotlib.org/</dc:title>
     </cc:Agent>
    </dc:creator>
   </cc:Work>
  </rdf:RDF>
 </metadata>
 <defs>
  <style type="text/css">*{stroke-linecap:butt;stroke-linejoin:round;}</style>
 </defs>
 <g id="figure_1">
  <g id="patch_1">
   <path d="M 0 2090.31625 
L 2059.08125 2090.31625 
L 2059.08125 0 
L 0 0 
z
" style="fill:#ffffff;"/>
  </g>
  <g id="axes_1">
   <g id="patch_2">
    <path d="M 40.88125 2052.76 
L 1826.48125 2052.76 
L 1826.48125 278.68 
L 40.88125 278.68 
z
" style="fill:#ffffff;"/>
   </g>
   <g id="matplotlib.axis_1">
    <g id="xtick_1">
     <g id="line2d_1">
      <defs>
       <path d="M 0 0 
L 0 3.5 
" id="m8d6ed47ca5" style="stroke:#000000;stroke-width:0.8;"/>
      </defs>
      <g>
       <use style="stroke:#000000;stroke-width:0.8;" x="122.044886" xlink:href="#m8d6ed47ca5" y="2052.76"/>
      </g>
     </g>
     <g id="text_1">
      <text style="font-family:DejaVu Sans;font-size:10px;font-stretch:normal;font-style:normal;font-weight:normal;text-anchor:middle;" transform="rotate(-0, 122.044886, 2067.358438)" x="122.044886" y="2067.358438">60</text>
     </g>
    </g>
    <g id="xtick_2">
     <g id="line2d_2">
      <g>
       <use style="stroke:#000000;stroke-width:0.8;" x="335.633403" xlink:href="#m8d6ed47ca5" y="2052.76"/>
      </g>
     </g>
     <g id="text_2">
      <text style="font-family:DejaVu Sans;font-size:10px;font-stretch:normal;font-style:normal;font-weight:normal;text-anchor:middle;" transform="rotate(-0, 335.633403, 2067.358438)" x="335.633403" y="2067.358438">65</text>
     </g>
    </g>
    <g id="xtick_3">
     <g id="line2d_3">
      <g>
       <use style="stroke:#000000;stroke-width:0.8;" x="549.22192" xlink:href="#m8d6ed47ca5" y="2052.76"/>
      </g>
     </g>
     <g id="text_3">
      <text style="font-family:DejaVu Sans;font-size:10px;font-stretch:normal;font-style:normal;font-weight:normal;text-anchor:middle;" transform="rotate(-0, 549.22192, 2067.358438)" x="549.22192" y="2067.358438">70</text>
     </g>
    </g>
    <g id="xtick_4">
     <g id="line2d_4">
      <g>
       <use style="stroke:#000000;stroke-width:0.8;" x="762.810437" xlink:href="#m8d6ed47ca5" y="2052.76"/>
      </g>
     </g>
     <g id="text_4">
      <text style="font-family:DejaVu Sans;font-size:10px;font-stretch:normal;font-style:normal;font-weight:normal;text-anchor:middle;" transform="rotate(-0, 762.810437, 2067.358438)" x="762.810437" y="2067.358438">75</text>
     </g>
    </g>
    <g id="xtick_5">
     <g id="line2d_5">
      <g>
       <use style="stroke:#000000;stroke-width:0.8;" x="976.398953" xlink:href="#m8d6ed47ca5" y="2052.76"/>
      </g>
     </g>
     <g id="text_5">
      <text style="font-family:DejaVu Sans;font-size:10px;font-stretch:normal;font-style:normal;font-weight:normal;text-anchor:middle;" transform="rotate(-0, 976.398953, 2067.358438)" x="976.398953" y="2067.358438">80</text>
     </g>
    </g>
    <g id="xtick_6">
     <g id="line2d_6">
      <g>
       <use style="stroke:#000000;stroke-width:0.8;" x="1189.98747" xlink:href="#m8d6ed47ca5" y="2052.76"/>
      </g>
     </g>
     <g id="text_6">
      <text style="font-family:DejaVu Sans;font-size:10px;font-stretch:normal;font-style:normal;font-weight:normal;text-anchor:middle;" transform="rotate(-0, 1189.98747, 2067.358438)" x="1189.98747" y="2067.358438">85</text>
     </g>
    </g>
    <g id="xtick_7">
     <g id="line2d_7">
      <g>
       <use style="stroke:#000000;stroke-width:0.8;" x="1403.575987" xlink:href="#m8d6ed47ca5" y="2052.76"/>
      </g>
     </g>
     <g id="text_7">
      <text style="font-family:DejaVu Sans;font-size:10px;font-stretch:normal;font-style:normal;font-weight:normal;text-anchor:middle;" transform="rotate(-0, 1403.575987, 2067.358438)" x="1403.575987" y="2067.358438">90</text>
     </g>
    </g>
    <g id="xtick_8">
     <g id="line2d_8">
      <g>
       <use style="stroke:#000000;stroke-width:0.8;" x="1617.164504" xlink:href="#m8d6ed47ca5" y="2052.76"/>
      </g>
     </g>
     <g id="text_8">
      <text style="font-family:DejaVu Sans;font-size:10px;font-stretch:normal;font-style:normal;font-weight:normal;text-anchor:middle;" transform="rotate(-0, 1617.164504, 2067.358438)" x="1617.164504" y="2067.358438">95</text>
     </g>
    </g>
    <g id="text_9">
     <text style="font-family:DejaVu Sans;font-size:10px;font-stretch:normal;font-style:normal;font-weight:normal;text-anchor:middle;" transform="rotate(-0, 933.68125, 2081.036562)" x="933.68125" y="2081.036562">humidity from WeatherBitIO</text>
    </g>
   </g>
   <g id="matplotlib.axis_2">
    <g id="ytick_1">
     <g id="line2d_9">
      <defs>
       <path d="M 0 0 
L -3.5 0 
" id="mabfa5d1c6d" style="stroke:#000000;stroke-width:0.8;"/>
      </defs>
      <g>
       <use style="stroke:#000000;stroke-width:0.8;" x="40.88125" xlink:href="#mabfa5d1c6d" y="1738.17042"/>
      </g>
     </g>
     <g id="text_10">
      <text style="font-family:DejaVu Sans;font-size:10px;font-stretch:normal;font-style:normal;font-weight:normal;text-anchor:end;" transform="rotate(-0, 33.88125, 1741.969639)" x="33.88125" y="1741.969639">6</text>
     </g>
    </g>
    <g id="ytick_2">
     <g id="line2d_10">
      <g>
       <use style="stroke:#000000;stroke-width:0.8;" x="40.88125" xlink:href="#mabfa5d1c6d" y="1415.481345"/>
      </g>
     </g>
     <g id="text_11">
      <text style="font-family:DejaVu Sans;font-size:10px;font-stretch:normal;font-style:normal;font-weight:normal;text-anchor:end;" transform="rotate(-0, 33.88125, 1419.280563)" x="33.88125" y="1419.280563">7</text>
     </g>
    </g>
    <g id="ytick_3">
     <g id="line2d_11">
      <g>
       <use style="stroke:#000000;stroke-width:0.8;" x="40.88125" xlink:href="#mabfa5d1c6d" y="1092.792269"/>
      </g>
     </g>
     <g id="text_12">
      <text style="font-family:DejaVu Sans;font-size:10px;font-stretch:normal;font-style:normal;font-weight:normal;text-anchor:end;" transform="rotate(-0, 33.88125, 1096.591488)" x="33.88125" y="1096.591488">8</text>
     </g>
    </g>
    <g id="ytick_4">
     <g id="line2d_12">
      <g>
       <use style="stroke:#000000;stroke-width:0.8;" x="40.88125" xlink:href="#mabfa5d1c6d" y="770.103193"/>
      </g>
     </g>
     <g id="text_13">
      <text style="font-family:DejaVu Sans;font-size:10px;font-stretch:normal;font-style:normal;font-weight:normal;text-anchor:end;" transform="rotate(-0, 33.88125, 773.902412)" x="33.88125" y="773.902412">9</text>
     </g>
    </g>
    <g id="ytick_5">
     <g id="line2d_13">
      <g>
       <use style="stroke:#000000;stroke-width:0.8;" x="40.88125" xlink:href="#mabfa5d1c6d" y="447.414118"/>
      </g>
     </g>
     <g id="text_14">
      <text style="font-family:DejaVu Sans;font-size:10px;font-stretch:normal;font-style:normal;font-weight:normal;text-anchor:end;" transform="rotate(-0, 33.88125, 451.213336)" x="33.88125" y="451.213336">10</text>
     </g>
    </g>
    <g id="text_15">
     <text style="font-family:DejaVu Sans;font-size:10px;font-stretch:normal;font-style:normal;font-weight:normal;text-anchor:middle;" transform="rotate(-90, 14.798438, 1165.72)" x="14.798438" y="1165.72">ping_night[ms]</text>
    </g>
   </g>
   <g id="line2d_14">
    <path clip-path="url(#p662e989fcf)" d="M 122.044886 1691.057815 
L 164.76259 1707.514958 
L 378.351106 1594.896471 
L 463.786513 1899.192269 
L 506.504217 1888.22084 
L 507.930988 1814.647731 
L 523.031696 1230.903193 
L 536.355348 1859.501513 
L 548.961342 1032.126723 
L 549.22192 1712.677983 
L 585.89934 1934.688067 
L 591.939623 1729.780504 
L 627.288523 1311.252773 
L 634.657327 1741.397311 
L 651.022479 1705.578824 
L 653.982816 1559.400672 
L 677.37503 1825.941849 
L 683.539194 1773.666218 
L 708.422257 1689.767059 
L 710.519696 1724.29479 
L 720.092733 1540.362017 
L 732.890957 1738.17042 
L 750.272791 1593.283025 
L 757.846639 1739.461176 
L 762.810437 1754.304874 
L 774.47237 1866.277983 
L 779.158502 1869.182185 
L 788.590571 1762.049412 
L 791.525277 1678.472941 
L 796.694119 1502.284706 
L 805.52814 1805.935126 
L 844.251738 1454.204034 
L 848.245843 1859.824202 
L 848.514965 1636.523361 
L 852.462081 1786.573782 
L 852.667126 1785.605714 
L 884.551619 1870.472941 
L 886.354306 1715.582185 
L 890.963547 1829.168739 
L 917.093966 1453.558655 
L 929.012205 1710.096471 
L 933.68125 1861.437647 
L 935.432676 1424.839328 
L 958.286647 1784.637647 
L 966.163792 1859.178824 
L 976.398953 1518.741849 
L 983.26796 1814.97042 
L 1002.345686 1171.205714 
L 1002.965093 1709.128403 
L 1019.116657 1773.343529 
L 1019.193549 1818.197311 
L 1021.581468 1525.19563 
L 1052.556075 1266.076303 
L 1061.83436 1872.731765 
L 1065.345755 1591.992269 
L 1080.339669 1756.563697 
L 1082.027018 1686.540168 
L 1089.331746 1735.911597 
L 1104.552063 1933.074622 
L 1109.938766 1795.286387 
L 1128.19204 1798.513277 
L 1146.906666 1612.64437 
L 1147.269767 1837.558655 
L 1151.896094 359.32 
L 1157.564733 1164.751933 
L 1167.543589 1464.852773 
L 1176.736439 1418.385546 
L 1183.47302 1151.198992 
L 1185.724243 1603.286387 
L 1187.52693 1828.200672 
L 1189.98747 1902.741849 
L 1192.507815 1911.131765 
L 1192.554804 1879.830924 
L 1194.998257 1669.760336 
L 1200.43622 1470.338487 
L 1202.255994 1832.39563 
L 1209.334318 1807.871261 
L 1212.576592 1589.733445 
L 1225.669568 1022.768739 
L 1228.71534 1561.336807 
L 1229.642314 1571.340168 
L 1229.659401 1766.889748 
L 1230.799964 1821.424202 
L 1232.705173 1825.941849 
L 1235.285323 1801.740168 
L 1235.780848 1565.854454 
L 1241.637445 1825.61916 
L 1244.042452 1656.207395 
L 1244.973698 1795.609076 
L 1264.880148 1764.630924 
L 1266.037797 1517.128403 
L 1268.62649 1686.217479 
L 1272.039635 1769.471261 
L 1275.422877 1840.462857 
L 1277.853514 1471.951933 
L 1281.505878 1225.740168 
L 1282.54819 1396.12 
L 1282.98391 1858.210756 
L 1285.508527 991.790588 
L 1290.309996 1638.459496 
L 1292.591122 1862.083025 
L 1307.418437 1832.39563 
L 1312.429223 1972.12 
L 1315.05209 1730.425882 
L 1316.9573 1920.167059 
L 1318.14058 1806.580504 
L 1318.413973 1431.293109 
L 1328.140794 1694.284706 
L 1328.328752 1870.472941 
L 1330.370659 1585.215798 
L 1331.878594 1700.415798 
L 1332.98071 1546.17042 
L 1338.162368 1646.526723 
L 1342.80151 1927.588908 
L 1357.662999 1725.262857 
L 1360.260236 1856.274622 
L 1360.858283 1802.385546 
L 1365.1685 1758.822521 
L 1365.548687 1751.723361 
L 1376.62966 1843.367059 
L 1379.444756 1632.973782 
L 1380.722016 1790.768739 
L 1382.669943 1624.583866 
L 1384.160791 1811.098151 
L 1385.916488 1690.089748 
L 1386.095903 1231.871261 
L 1386.168523 1848.852773 
L 1390.935818 1791.414118 
L 1391.298919 1850.466218 
L 1398.872768 1665.242689 
L 1402.392706 1084.725042 
L 1402.512316 1925.975462 
L 1403.832293 1762.69479 
L 1405.032661 1516.483025 
L 1405.092465 1726.876303 
L 1434.238754 1774.956975 
L 1438.23286 1732.039328 
L 1441.167566 1664.274622 
L 1446.29369 1892.415798 
L 1449.420626 1803.030924 
L 1450.740603 1890.156975 
L 1452.611639 1789.155294 
L 1455.977794 1894.674622 
L 1462.697288 1941.141849 
L 1463.133009 1864.01916 
L 1470.13444 1831.104874 
L 1478.767688 1821.746891 
L 1482.373062 1660.402353 
L 1489.011394 1939.528403 
L 1491.672706 1599.736807 
L 1495.346429 1785.283025 
L 1504.51792 1803.998992 
L 1511.109261 1936.946891 
L 1514.407068 1857.565378 
L 1514.624928 1634.264538 
L 1515.299868 1876.281345 
L 1525.509399 1667.501513 
L 1526.705495 1869.827563 
L 1531.729097 1804.967059 
L 1532.818398 1911.454454 
L 1546.535053 1905.000672 
L 1564.207367 1740.429244 
L 1567.42401 1788.187227 
L 1569.777755 1827.555294 
L 1572.73382 1808.19395 
L 1574.4468 1750.109916 
L 1579.124389 1934.042689 
L 1580.730574 1560.04605 
L 1590.970008 1878.862857 
L 1593.16997 1836.590588 
L 1594.323348 1855.629244 
L 1598.249105 1883.703193 
L 1599.261514 1881.121681 
L 1609.582111 1848.530084 
L 1617.164504 1611.030924 
L 1620.91939 1878.540168 
L 1633.657809 1899.514958 
L 1646.656806 1827.877983 
L 1659.882207 1598.768739 
L 1662.633227 1813.679664 
L 1682.86006 1643.622521 
L 1702.59991 1952.758655 
L 1745.317614 1830.459496 
L 1745.317614 1830.459496 
" style="fill:none;stroke:#0000ff;stroke-linecap:square;stroke-width:1.5;"/>
   </g>
   <g id="patch_3">
    <path d="M 40.88125 2052.76 
L 40.88125 278.68 
" style="fill:none;stroke:#000000;stroke-linecap:square;stroke-linejoin:miter;stroke-width:0.8;"/>
   </g>
   <g id="patch_4">
    <path d="M 1826.48125 2052.76 
L 1826.48125 278.68 
" style="fill:none;stroke:#000000;stroke-linecap:square;stroke-linejoin:miter;stroke-width:0.8;"/>
   </g>
   <g id="patch_5">
    <path d="M 40.88125 2052.76 
L 1826.48125 2052.76 
" style="fill:none;stroke:#000000;stroke-linecap:square;stroke-linejoin:miter;stroke-width:0.8;"/>
   </g>
   <g id="patch_6">
    <path d="M 40.88125 278.68 
L 1826.48125 278.68 
" style="fill:none;stroke:#000000;stroke-linecap:square;stroke-linejoin:miter;stroke-width:0.8;"/>
   </g>
   <g id="text_16">
    <text style="font-family:DejaVu Sans;font-size:12px;font-stretch:normal;font-style:normal;font-weight:normal;text-anchor:middle;" transform="rotate(-0, 933.68125, 272.68)" x="933.68125" y="272.68">humidity-&gt;ping_night</text>
   </g>
  </g>
  <g id="legend_1">
   <g id="patch_7">
    <path d="M 1944.79375 22.95625 
L 2052.08125 22.95625 
Q 2054.08125 22.95625 2054.08125 20.95625 
L 2054.08125 7 
Q 2054.08125 5 2052.08125 5 
L 1944.79375 5 
Q 1942.79375 5 1942.79375 7 
L 1942.79375 20.95625 
Q 1942.79375 22.95625 1944.79375 22.95625 
z
" style="fill:#ffffff;opacity:0.8;stroke:#cccccc;stroke-linejoin:miter;"/>
   </g>
   <g id="line2d_15">
    <path d="M 1946.79375 13.098438 
L 1966.79375 13.098438 
" style="fill:none;stroke:#0000ff;stroke-linecap:square;stroke-width:1.5;"/>
   </g>
   <g id="line2d_16"/>
   <g id="text_17">
    <text style="font-family:DejaVu Sans;font-size:10px;font-stretch:normal;font-style:normal;font-weight:normal;text-anchor:start;" transform="rotate(-0, 1974.79375, 16.598438)" x="1974.79375" y="16.598438">ping_night[ms]</text>
   </g>
  </g>
 </g>
 <defs>
  <clipPath id="p662e989fcf">
   <rect height="1774.08" width="1785.6" x="40.88125" y="278.68"/>
  </clipPath>
 </defs>
</svg>
