<?xml version="1.0" encoding="utf-8" standalone="no"?>
<!DOCTYPE svg PUBLIC "-//W3C//DTD SVG 1.1//EN"
  "http://www.w3.org/Graphics/SVG/1.1/DTD/svg11.dtd">
<!-- Created with matplotlib (https://matplotlib.org/) -->
<svg height="345.6pt" version="1.1" viewBox="0 0 460.8 345.6" width="460.8pt" xmlns="http://www.w3.org/2000/svg" xmlns:xlink="http://www.w3.org/1999/xlink">
 <metadata>
  <rdf:RDF xmlns:cc="http://creativecommons.org/ns#" xmlns:dc="http://purl.org/dc/elements/1.1/" xmlns:rdf="http://www.w3.org/1999/02/22-rdf-syntax-ns#">
   <cc:Work>
    <dc:type rdf:resource="http://purl.org/dc/dcmitype/StillImage"/>
    <dc:date>2022-07-16T17:58:58.489947</dc:date>
    <dc:format>image/svg+xml</dc:format>
    <dc:creator>
     <cc:Agent>
      <dc:title>Matplotlib v3.3.2, https://matplotlib.org/</dc:title>
     </cc:Agent>
    </dc:creator>
   </cc:Work>
  </rdf:RDF>
 </metadata>
 <defs>
  <style type="text/css">*{stroke-linecap:butt;stroke-linejoin:round;}</style>
 </defs>
 <g id="figure_1">
  <g id="patch_1">
   <path d="M 0 345.6 
L 460.8 345.6 
L 460.8 0 
L 0 0 
z
" style="fill:#ffffff;"/>
  </g>
  <g id="axes_1">
   <g id="patch_2">
    <path d="M 57.6 307.584 
L 414.72 307.584 
L 414.72 41.472 
L 57.6 41.472 
z
" style="fill:#ffffff;"/>
   </g>
   <g id="matplotlib.axis_1">
    <g id="xtick_1">
     <g id="line2d_1">
      <defs>
       <path d="M 0 0 
L 0 3.5 
" id="mc270aa3b55" style="stroke:#000000;stroke-width:0.8;"/>
      </defs>
      <g>
       <use style="stroke:#000000;stroke-width:0.8;" x="70.501932" xlink:href="#mc270aa3b55" y="307.584"/>
      </g>
     </g>
     <g id="text_1">
      <!-- 5.0 -->
      <g transform="translate(62.55037 322.182437)scale(0.1 -0.1)">
       <defs>
        <path d="M 10.796875 72.90625 
L 49.515625 72.90625 
L 49.515625 64.59375 
L 19.828125 64.59375 
L 19.828125 46.734375 
Q 21.96875 47.46875 24.109375 47.828125 
Q 26.265625 48.1875 28.421875 48.1875 
Q 40.625 48.1875 47.75 41.5 
Q 54.890625 34.8125 54.890625 23.390625 
Q 54.890625 11.625 47.5625 5.09375 
Q 40.234375 -1.421875 26.90625 -1.421875 
Q 22.3125 -1.421875 17.546875 -0.640625 
Q 12.796875 0.140625 7.71875 1.703125 
L 7.71875 11.625 
Q 12.109375 9.234375 16.796875 8.0625 
Q 21.484375 6.890625 26.703125 6.890625 
Q 35.15625 6.890625 40.078125 11.328125 
Q 45.015625 15.765625 45.015625 23.390625 
Q 45.015625 31 40.078125 35.4375 
Q 35.15625 39.890625 26.703125 39.890625 
Q 22.75 39.890625 18.8125 39.015625 
Q 14.890625 38.140625 10.796875 36.28125 
z
" id="DejaVuSans-53"/>
        <path d="M 10.6875 12.40625 
L 21 12.40625 
L 21 0 
L 10.6875 0 
z
" id="DejaVuSans-46"/>
        <path d="M 31.78125 66.40625 
Q 24.171875 66.40625 20.328125 58.90625 
Q 16.5 51.421875 16.5 36.375 
Q 16.5 21.390625 20.328125 13.890625 
Q 24.171875 6.390625 31.78125 6.390625 
Q 39.453125 6.390625 43.28125 13.890625 
Q 47.125 21.390625 47.125 36.375 
Q 47.125 51.421875 43.28125 58.90625 
Q 39.453125 66.40625 31.78125 66.40625 
z
M 31.78125 74.21875 
Q 44.046875 74.21875 50.515625 64.515625 
Q 56.984375 54.828125 56.984375 36.375 
Q 56.984375 17.96875 50.515625 8.265625 
Q 44.046875 -1.421875 31.78125 -1.421875 
Q 19.53125 -1.421875 13.0625 8.265625 
Q 6.59375 17.96875 6.59375 36.375 
Q 6.59375 54.828125 13.0625 64.515625 
Q 19.53125 74.21875 31.78125 74.21875 
z
" id="DejaVuSans-48"/>
       </defs>
       <use xlink:href="#DejaVuSans-53"/>
       <use x="63.623047" xlink:href="#DejaVuSans-46"/>
       <use x="95.410156" xlink:href="#DejaVuSans-48"/>
      </g>
     </g>
    </g>
    <g id="xtick_2">
     <g id="line2d_2">
      <g>
       <use style="stroke:#000000;stroke-width:0.8;" x="119.484211" xlink:href="#mc270aa3b55" y="307.584"/>
      </g>
     </g>
     <g id="text_2">
      <!-- 7.5 -->
      <g transform="translate(111.532649 322.182437)scale(0.1 -0.1)">
       <defs>
        <path d="M 8.203125 72.90625 
L 55.078125 72.90625 
L 55.078125 68.703125 
L 28.609375 0 
L 18.3125 0 
L 43.21875 64.59375 
L 8.203125 64.59375 
z
" id="DejaVuSans-55"/>
       </defs>
       <use xlink:href="#DejaVuSans-55"/>
       <use x="63.623047" xlink:href="#DejaVuSans-46"/>
       <use x="95.410156" xlink:href="#DejaVuSans-53"/>
      </g>
     </g>
    </g>
    <g id="xtick_3">
     <g id="line2d_3">
      <g>
       <use style="stroke:#000000;stroke-width:0.8;" x="168.46649" xlink:href="#mc270aa3b55" y="307.584"/>
      </g>
     </g>
     <g id="text_3">
      <!-- 10.0 -->
      <g transform="translate(157.333678 322.182437)scale(0.1 -0.1)">
       <defs>
        <path d="M 12.40625 8.296875 
L 28.515625 8.296875 
L 28.515625 63.921875 
L 10.984375 60.40625 
L 10.984375 69.390625 
L 28.421875 72.90625 
L 38.28125 72.90625 
L 38.28125 8.296875 
L 54.390625 8.296875 
L 54.390625 0 
L 12.40625 0 
z
" id="DejaVuSans-49"/>
       </defs>
       <use xlink:href="#DejaVuSans-49"/>
       <use x="63.623047" xlink:href="#DejaVuSans-48"/>
       <use x="127.246094" xlink:href="#DejaVuSans-46"/>
       <use x="159.033203" xlink:href="#DejaVuSans-48"/>
      </g>
     </g>
    </g>
    <g id="xtick_4">
     <g id="line2d_4">
      <g>
       <use style="stroke:#000000;stroke-width:0.8;" x="217.448769" xlink:href="#mc270aa3b55" y="307.584"/>
      </g>
     </g>
     <g id="text_4">
      <!-- 12.5 -->
      <g transform="translate(206.315957 322.182437)scale(0.1 -0.1)">
       <defs>
        <path d="M 19.1875 8.296875 
L 53.609375 8.296875 
L 53.609375 0 
L 7.328125 0 
L 7.328125 8.296875 
Q 12.9375 14.109375 22.625 23.890625 
Q 32.328125 33.6875 34.8125 36.53125 
Q 39.546875 41.84375 41.421875 45.53125 
Q 43.3125 49.21875 43.3125 52.78125 
Q 43.3125 58.59375 39.234375 62.25 
Q 35.15625 65.921875 28.609375 65.921875 
Q 23.96875 65.921875 18.8125 64.3125 
Q 13.671875 62.703125 7.8125 59.421875 
L 7.8125 69.390625 
Q 13.765625 71.78125 18.9375 73 
Q 24.125 74.21875 28.421875 74.21875 
Q 39.75 74.21875 46.484375 68.546875 
Q 53.21875 62.890625 53.21875 53.421875 
Q 53.21875 48.921875 51.53125 44.890625 
Q 49.859375 40.875 45.40625 35.40625 
Q 44.1875 33.984375 37.640625 27.21875 
Q 31.109375 20.453125 19.1875 8.296875 
z
" id="DejaVuSans-50"/>
       </defs>
       <use xlink:href="#DejaVuSans-49"/>
       <use x="63.623047" xlink:href="#DejaVuSans-50"/>
       <use x="127.246094" xlink:href="#DejaVuSans-46"/>
       <use x="159.033203" xlink:href="#DejaVuSans-53"/>
      </g>
     </g>
    </g>
    <g id="xtick_5">
     <g id="line2d_5">
      <g>
       <use style="stroke:#000000;stroke-width:0.8;" x="266.431048" xlink:href="#mc270aa3b55" y="307.584"/>
      </g>
     </g>
     <g id="text_5">
      <!-- 15.0 -->
      <g transform="translate(255.298236 322.182437)scale(0.1 -0.1)">
       <use xlink:href="#DejaVuSans-49"/>
       <use x="63.623047" xlink:href="#DejaVuSans-53"/>
       <use x="127.246094" xlink:href="#DejaVuSans-46"/>
       <use x="159.033203" xlink:href="#DejaVuSans-48"/>
      </g>
     </g>
    </g>
    <g id="xtick_6">
     <g id="line2d_6">
      <g>
       <use style="stroke:#000000;stroke-width:0.8;" x="315.413327" xlink:href="#mc270aa3b55" y="307.584"/>
      </g>
     </g>
     <g id="text_6">
      <!-- 17.5 -->
      <g transform="translate(304.280515 322.182437)scale(0.1 -0.1)">
       <use xlink:href="#DejaVuSans-49"/>
       <use x="63.623047" xlink:href="#DejaVuSans-55"/>
       <use x="127.246094" xlink:href="#DejaVuSans-46"/>
       <use x="159.033203" xlink:href="#DejaVuSans-53"/>
      </g>
     </g>
    </g>
    <g id="xtick_7">
     <g id="line2d_7">
      <g>
       <use style="stroke:#000000;stroke-width:0.8;" x="364.395607" xlink:href="#mc270aa3b55" y="307.584"/>
      </g>
     </g>
     <g id="text_7">
      <!-- 20.0 -->
      <g transform="translate(353.262794 322.182437)scale(0.1 -0.1)">
       <use xlink:href="#DejaVuSans-50"/>
       <use x="63.623047" xlink:href="#DejaVuSans-48"/>
       <use x="127.246094" xlink:href="#DejaVuSans-46"/>
       <use x="159.033203" xlink:href="#DejaVuSans-48"/>
      </g>
     </g>
    </g>
    <g id="xtick_8">
     <g id="line2d_8">
      <g>
       <use style="stroke:#000000;stroke-width:0.8;" x="413.377886" xlink:href="#mc270aa3b55" y="307.584"/>
      </g>
     </g>
     <g id="text_8">
      <!-- 22.5 -->
      <g transform="translate(402.245073 322.182437)scale(0.1 -0.1)">
       <use xlink:href="#DejaVuSans-50"/>
       <use x="63.623047" xlink:href="#DejaVuSans-50"/>
       <use x="127.246094" xlink:href="#DejaVuSans-46"/>
       <use x="159.033203" xlink:href="#DejaVuSans-53"/>
      </g>
     </g>
    </g>
    <g id="text_9">
     <!-- temperature from Aeris -->
     <g transform="translate(177.464687 335.860562)scale(0.1 -0.1)">
      <defs>
       <path d="M 18.3125 70.21875 
L 18.3125 54.6875 
L 36.8125 54.6875 
L 36.8125 47.703125 
L 18.3125 47.703125 
L 18.3125 18.015625 
Q 18.3125 11.328125 20.140625 9.421875 
Q 21.96875 7.515625 27.59375 7.515625 
L 36.8125 7.515625 
L 36.8125 0 
L 27.59375 0 
Q 17.1875 0 13.234375 3.875 
Q 9.28125 7.765625 9.28125 18.015625 
L 9.28125 47.703125 
L 2.6875 47.703125 
L 2.6875 54.6875 
L 9.28125 54.6875 
L 9.28125 70.21875 
z
" id="DejaVuSans-116"/>
       <path d="M 56.203125 29.59375 
L 56.203125 25.203125 
L 14.890625 25.203125 
Q 15.484375 15.921875 20.484375 11.0625 
Q 25.484375 6.203125 34.421875 6.203125 
Q 39.59375 6.203125 44.453125 7.46875 
Q 49.3125 8.734375 54.109375 11.28125 
L 54.109375 2.78125 
Q 49.265625 0.734375 44.1875 -0.34375 
Q 39.109375 -1.421875 33.890625 -1.421875 
Q 20.796875 -1.421875 13.15625 6.1875 
Q 5.515625 13.8125 5.515625 26.8125 
Q 5.515625 40.234375 12.765625 48.109375 
Q 20.015625 56 32.328125 56 
Q 43.359375 56 49.78125 48.890625 
Q 56.203125 41.796875 56.203125 29.59375 
z
M 47.21875 32.234375 
Q 47.125 39.59375 43.09375 43.984375 
Q 39.0625 48.390625 32.421875 48.390625 
Q 24.90625 48.390625 20.390625 44.140625 
Q 15.875 39.890625 15.1875 32.171875 
z
" id="DejaVuSans-101"/>
       <path d="M 52 44.1875 
Q 55.375 50.25 60.0625 53.125 
Q 64.75 56 71.09375 56 
Q 79.640625 56 84.28125 50.015625 
Q 88.921875 44.046875 88.921875 33.015625 
L 88.921875 0 
L 79.890625 0 
L 79.890625 32.71875 
Q 79.890625 40.578125 77.09375 44.375 
Q 74.3125 48.1875 68.609375 48.1875 
Q 61.625 48.1875 57.5625 43.546875 
Q 53.515625 38.921875 53.515625 30.90625 
L 53.515625 0 
L 44.484375 0 
L 44.484375 32.71875 
Q 44.484375 40.625 41.703125 44.40625 
Q 38.921875 48.1875 33.109375 48.1875 
Q 26.21875 48.1875 22.15625 43.53125 
Q 18.109375 38.875 18.109375 30.90625 
L 18.109375 0 
L 9.078125 0 
L 9.078125 54.6875 
L 18.109375 54.6875 
L 18.109375 46.1875 
Q 21.1875 51.21875 25.484375 53.609375 
Q 29.78125 56 35.6875 56 
Q 41.65625 56 45.828125 52.96875 
Q 50 49.953125 52 44.1875 
z
" id="DejaVuSans-109"/>
       <path d="M 18.109375 8.203125 
L 18.109375 -20.796875 
L 9.078125 -20.796875 
L 9.078125 54.6875 
L 18.109375 54.6875 
L 18.109375 46.390625 
Q 20.953125 51.265625 25.265625 53.625 
Q 29.59375 56 35.59375 56 
Q 45.5625 56 51.78125 48.09375 
Q 58.015625 40.1875 58.015625 27.296875 
Q 58.015625 14.40625 51.78125 6.484375 
Q 45.5625 -1.421875 35.59375 -1.421875 
Q 29.59375 -1.421875 25.265625 0.953125 
Q 20.953125 3.328125 18.109375 8.203125 
z
M 48.6875 27.296875 
Q 48.6875 37.203125 44.609375 42.84375 
Q 40.53125 48.484375 33.40625 48.484375 
Q 26.265625 48.484375 22.1875 42.84375 
Q 18.109375 37.203125 18.109375 27.296875 
Q 18.109375 17.390625 22.1875 11.75 
Q 26.265625 6.109375 33.40625 6.109375 
Q 40.53125 6.109375 44.609375 11.75 
Q 48.6875 17.390625 48.6875 27.296875 
z
" id="DejaVuSans-112"/>
       <path d="M 41.109375 46.296875 
Q 39.59375 47.171875 37.8125 47.578125 
Q 36.03125 48 33.890625 48 
Q 26.265625 48 22.1875 43.046875 
Q 18.109375 38.09375 18.109375 28.8125 
L 18.109375 0 
L 9.078125 0 
L 9.078125 54.6875 
L 18.109375 54.6875 
L 18.109375 46.1875 
Q 20.953125 51.171875 25.484375 53.578125 
Q 30.03125 56 36.53125 56 
Q 37.453125 56 38.578125 55.875 
Q 39.703125 55.765625 41.0625 55.515625 
z
" id="DejaVuSans-114"/>
       <path d="M 34.28125 27.484375 
Q 23.390625 27.484375 19.1875 25 
Q 14.984375 22.515625 14.984375 16.5 
Q 14.984375 11.71875 18.140625 8.90625 
Q 21.296875 6.109375 26.703125 6.109375 
Q 34.1875 6.109375 38.703125 11.40625 
Q 43.21875 16.703125 43.21875 25.484375 
L 43.21875 27.484375 
z
M 52.203125 31.203125 
L 52.203125 0 
L 43.21875 0 
L 43.21875 8.296875 
Q 40.140625 3.328125 35.546875 0.953125 
Q 30.953125 -1.421875 24.3125 -1.421875 
Q 15.921875 -1.421875 10.953125 3.296875 
Q 6 8.015625 6 15.921875 
Q 6 25.140625 12.171875 29.828125 
Q 18.359375 34.515625 30.609375 34.515625 
L 43.21875 34.515625 
L 43.21875 35.40625 
Q 43.21875 41.609375 39.140625 45 
Q 35.0625 48.390625 27.6875 48.390625 
Q 23 48.390625 18.546875 47.265625 
Q 14.109375 46.140625 10.015625 43.890625 
L 10.015625 52.203125 
Q 14.9375 54.109375 19.578125 55.046875 
Q 24.21875 56 28.609375 56 
Q 40.484375 56 46.34375 49.84375 
Q 52.203125 43.703125 52.203125 31.203125 
z
" id="DejaVuSans-97"/>
       <path d="M 8.5 21.578125 
L 8.5 54.6875 
L 17.484375 54.6875 
L 17.484375 21.921875 
Q 17.484375 14.15625 20.5 10.265625 
Q 23.53125 6.390625 29.59375 6.390625 
Q 36.859375 6.390625 41.078125 11.03125 
Q 45.3125 15.671875 45.3125 23.6875 
L 45.3125 54.6875 
L 54.296875 54.6875 
L 54.296875 0 
L 45.3125 0 
L 45.3125 8.40625 
Q 42.046875 3.421875 37.71875 1 
Q 33.40625 -1.421875 27.6875 -1.421875 
Q 18.265625 -1.421875 13.375 4.4375 
Q 8.5 10.296875 8.5 21.578125 
z
M 31.109375 56 
z
" id="DejaVuSans-117"/>
       <path id="DejaVuSans-32"/>
       <path d="M 37.109375 75.984375 
L 37.109375 68.5 
L 28.515625 68.5 
Q 23.6875 68.5 21.796875 66.546875 
Q 19.921875 64.59375 19.921875 59.515625 
L 19.921875 54.6875 
L 34.71875 54.6875 
L 34.71875 47.703125 
L 19.921875 47.703125 
L 19.921875 0 
L 10.890625 0 
L 10.890625 47.703125 
L 2.296875 47.703125 
L 2.296875 54.6875 
L 10.890625 54.6875 
L 10.890625 58.5 
Q 10.890625 67.625 15.140625 71.796875 
Q 19.390625 75.984375 28.609375 75.984375 
z
" id="DejaVuSans-102"/>
       <path d="M 30.609375 48.390625 
Q 23.390625 48.390625 19.1875 42.75 
Q 14.984375 37.109375 14.984375 27.296875 
Q 14.984375 17.484375 19.15625 11.84375 
Q 23.34375 6.203125 30.609375 6.203125 
Q 37.796875 6.203125 41.984375 11.859375 
Q 46.1875 17.53125 46.1875 27.296875 
Q 46.1875 37.015625 41.984375 42.703125 
Q 37.796875 48.390625 30.609375 48.390625 
z
M 30.609375 56 
Q 42.328125 56 49.015625 48.375 
Q 55.71875 40.765625 55.71875 27.296875 
Q 55.71875 13.875 49.015625 6.21875 
Q 42.328125 -1.421875 30.609375 -1.421875 
Q 18.84375 -1.421875 12.171875 6.21875 
Q 5.515625 13.875 5.515625 27.296875 
Q 5.515625 40.765625 12.171875 48.375 
Q 18.84375 56 30.609375 56 
z
" id="DejaVuSans-111"/>
       <path d="M 34.1875 63.1875 
L 20.796875 26.90625 
L 47.609375 26.90625 
z
M 28.609375 72.90625 
L 39.796875 72.90625 
L 67.578125 0 
L 57.328125 0 
L 50.6875 18.703125 
L 17.828125 18.703125 
L 11.1875 0 
L 0.78125 0 
z
" id="DejaVuSans-65"/>
       <path d="M 9.421875 54.6875 
L 18.40625 54.6875 
L 18.40625 0 
L 9.421875 0 
z
M 9.421875 75.984375 
L 18.40625 75.984375 
L 18.40625 64.59375 
L 9.421875 64.59375 
z
" id="DejaVuSans-105"/>
       <path d="M 44.28125 53.078125 
L 44.28125 44.578125 
Q 40.484375 46.53125 36.375 47.5 
Q 32.28125 48.484375 27.875 48.484375 
Q 21.1875 48.484375 17.84375 46.4375 
Q 14.5 44.390625 14.5 40.28125 
Q 14.5 37.15625 16.890625 35.375 
Q 19.28125 33.59375 26.515625 31.984375 
L 29.59375 31.296875 
Q 39.15625 29.25 43.1875 25.515625 
Q 47.21875 21.78125 47.21875 15.09375 
Q 47.21875 7.46875 41.1875 3.015625 
Q 35.15625 -1.421875 24.609375 -1.421875 
Q 20.21875 -1.421875 15.453125 -0.5625 
Q 10.6875 0.296875 5.421875 2 
L 5.421875 11.28125 
Q 10.40625 8.6875 15.234375 7.390625 
Q 20.0625 6.109375 24.8125 6.109375 
Q 31.15625 6.109375 34.5625 8.28125 
Q 37.984375 10.453125 37.984375 14.40625 
Q 37.984375 18.0625 35.515625 20.015625 
Q 33.0625 21.96875 24.703125 23.78125 
L 21.578125 24.515625 
Q 13.234375 26.265625 9.515625 29.90625 
Q 5.8125 33.546875 5.8125 39.890625 
Q 5.8125 47.609375 11.28125 51.796875 
Q 16.75 56 26.8125 56 
Q 31.78125 56 36.171875 55.265625 
Q 40.578125 54.546875 44.28125 53.078125 
z
" id="DejaVuSans-115"/>
      </defs>
      <use xlink:href="#DejaVuSans-116"/>
      <use x="39.208984" xlink:href="#DejaVuSans-101"/>
      <use x="100.732422" xlink:href="#DejaVuSans-109"/>
      <use x="198.144531" xlink:href="#DejaVuSans-112"/>
      <use x="261.621094" xlink:href="#DejaVuSans-101"/>
      <use x="323.144531" xlink:href="#DejaVuSans-114"/>
      <use x="364.257812" xlink:href="#DejaVuSans-97"/>
      <use x="425.537109" xlink:href="#DejaVuSans-116"/>
      <use x="464.746094" xlink:href="#DejaVuSans-117"/>
      <use x="528.125" xlink:href="#DejaVuSans-114"/>
      <use x="566.988281" xlink:href="#DejaVuSans-101"/>
      <use x="628.511719" xlink:href="#DejaVuSans-32"/>
      <use x="660.298828" xlink:href="#DejaVuSans-102"/>
      <use x="695.503906" xlink:href="#DejaVuSans-114"/>
      <use x="734.367188" xlink:href="#DejaVuSans-111"/>
      <use x="795.548828" xlink:href="#DejaVuSans-109"/>
      <use x="892.960938" xlink:href="#DejaVuSans-32"/>
      <use x="924.748047" xlink:href="#DejaVuSans-65"/>
      <use x="991.40625" xlink:href="#DejaVuSans-101"/>
      <use x="1052.929688" xlink:href="#DejaVuSans-114"/>
      <use x="1094.042969" xlink:href="#DejaVuSans-105"/>
      <use x="1121.826172" xlink:href="#DejaVuSans-115"/>
     </g>
    </g>
   </g>
   <g id="matplotlib.axis_2">
    <g id="ytick_1">
     <g id="line2d_9">
      <defs>
       <path d="M 0 0 
L -3.5 0 
" id="ma44e25118c" style="stroke:#000000;stroke-width:0.8;"/>
      </defs>
      <g>
       <use style="stroke:#000000;stroke-width:0.8;" x="57.6" xlink:href="#ma44e25118c" y="296.93952"/>
      </g>
     </g>
     <g id="text_10">
      <!-- 3.75 -->
      <g transform="translate(28.334375 300.738739)scale(0.1 -0.1)">
       <defs>
        <path d="M 40.578125 39.3125 
Q 47.65625 37.796875 51.625 33 
Q 55.609375 28.21875 55.609375 21.1875 
Q 55.609375 10.40625 48.1875 4.484375 
Q 40.765625 -1.421875 27.09375 -1.421875 
Q 22.515625 -1.421875 17.65625 -0.515625 
Q 12.796875 0.390625 7.625 2.203125 
L 7.625 11.71875 
Q 11.71875 9.328125 16.59375 8.109375 
Q 21.484375 6.890625 26.8125 6.890625 
Q 36.078125 6.890625 40.9375 10.546875 
Q 45.796875 14.203125 45.796875 21.1875 
Q 45.796875 27.640625 41.28125 31.265625 
Q 36.765625 34.90625 28.71875 34.90625 
L 20.21875 34.90625 
L 20.21875 43.015625 
L 29.109375 43.015625 
Q 36.375 43.015625 40.234375 45.921875 
Q 44.09375 48.828125 44.09375 54.296875 
Q 44.09375 59.90625 40.109375 62.90625 
Q 36.140625 65.921875 28.71875 65.921875 
Q 24.65625 65.921875 20.015625 65.03125 
Q 15.375 64.15625 9.8125 62.3125 
L 9.8125 71.09375 
Q 15.4375 72.65625 20.34375 73.4375 
Q 25.25 74.21875 29.59375 74.21875 
Q 40.828125 74.21875 47.359375 69.109375 
Q 53.90625 64.015625 53.90625 55.328125 
Q 53.90625 49.265625 50.4375 45.09375 
Q 46.96875 40.921875 40.578125 39.3125 
z
" id="DejaVuSans-51"/>
       </defs>
       <use xlink:href="#DejaVuSans-51"/>
       <use x="63.623047" xlink:href="#DejaVuSans-46"/>
       <use x="95.410156" xlink:href="#DejaVuSans-55"/>
       <use x="159.033203" xlink:href="#DejaVuSans-53"/>
      </g>
     </g>
    </g>
    <g id="ytick_2">
     <g id="line2d_10">
      <g>
       <use style="stroke:#000000;stroke-width:0.8;" x="57.6" xlink:href="#ma44e25118c" y="266.69952"/>
      </g>
     </g>
     <g id="text_11">
      <!-- 4.00 -->
      <g transform="translate(28.334375 270.498739)scale(0.1 -0.1)">
       <defs>
        <path d="M 37.796875 64.3125 
L 12.890625 25.390625 
L 37.796875 25.390625 
z
M 35.203125 72.90625 
L 47.609375 72.90625 
L 47.609375 25.390625 
L 58.015625 25.390625 
L 58.015625 17.1875 
L 47.609375 17.1875 
L 47.609375 0 
L 37.796875 0 
L 37.796875 17.1875 
L 4.890625 17.1875 
L 4.890625 26.703125 
z
" id="DejaVuSans-52"/>
       </defs>
       <use xlink:href="#DejaVuSans-52"/>
       <use x="63.623047" xlink:href="#DejaVuSans-46"/>
       <use x="95.410156" xlink:href="#DejaVuSans-48"/>
       <use x="159.033203" xlink:href="#DejaVuSans-48"/>
      </g>
     </g>
    </g>
    <g id="ytick_3">
     <g id="line2d_11">
      <g>
       <use style="stroke:#000000;stroke-width:0.8;" x="57.6" xlink:href="#ma44e25118c" y="236.45952"/>
      </g>
     </g>
     <g id="text_12">
      <!-- 4.25 -->
      <g transform="translate(28.334375 240.258739)scale(0.1 -0.1)">
       <use xlink:href="#DejaVuSans-52"/>
       <use x="63.623047" xlink:href="#DejaVuSans-46"/>
       <use x="95.410156" xlink:href="#DejaVuSans-50"/>
       <use x="159.033203" xlink:href="#DejaVuSans-53"/>
      </g>
     </g>
    </g>
    <g id="ytick_4">
     <g id="line2d_12">
      <g>
       <use style="stroke:#000000;stroke-width:0.8;" x="57.6" xlink:href="#ma44e25118c" y="206.21952"/>
      </g>
     </g>
     <g id="text_13">
      <!-- 4.50 -->
      <g transform="translate(28.334375 210.018739)scale(0.1 -0.1)">
       <use xlink:href="#DejaVuSans-52"/>
       <use x="63.623047" xlink:href="#DejaVuSans-46"/>
       <use x="95.410156" xlink:href="#DejaVuSans-53"/>
       <use x="159.033203" xlink:href="#DejaVuSans-48"/>
      </g>
     </g>
    </g>
    <g id="ytick_5">
     <g id="line2d_13">
      <g>
       <use style="stroke:#000000;stroke-width:0.8;" x="57.6" xlink:href="#ma44e25118c" y="175.97952"/>
      </g>
     </g>
     <g id="text_14">
      <!-- 4.75 -->
      <g transform="translate(28.334375 179.778739)scale(0.1 -0.1)">
       <use xlink:href="#DejaVuSans-52"/>
       <use x="63.623047" xlink:href="#DejaVuSans-46"/>
       <use x="95.410156" xlink:href="#DejaVuSans-55"/>
       <use x="159.033203" xlink:href="#DejaVuSans-53"/>
      </g>
     </g>
    </g>
    <g id="ytick_6">
     <g id="line2d_14">
      <g>
       <use style="stroke:#000000;stroke-width:0.8;" x="57.6" xlink:href="#ma44e25118c" y="145.73952"/>
      </g>
     </g>
     <g id="text_15">
      <!-- 5.00 -->
      <g transform="translate(28.334375 149.538739)scale(0.1 -0.1)">
       <use xlink:href="#DejaVuSans-53"/>
       <use x="63.623047" xlink:href="#DejaVuSans-46"/>
       <use x="95.410156" xlink:href="#DejaVuSans-48"/>
       <use x="159.033203" xlink:href="#DejaVuSans-48"/>
      </g>
     </g>
    </g>
    <g id="ytick_7">
     <g id="line2d_15">
      <g>
       <use style="stroke:#000000;stroke-width:0.8;" x="57.6" xlink:href="#ma44e25118c" y="115.49952"/>
      </g>
     </g>
     <g id="text_16">
      <!-- 5.25 -->
      <g transform="translate(28.334375 119.298739)scale(0.1 -0.1)">
       <use xlink:href="#DejaVuSans-53"/>
       <use x="63.623047" xlink:href="#DejaVuSans-46"/>
       <use x="95.410156" xlink:href="#DejaVuSans-50"/>
       <use x="159.033203" xlink:href="#DejaVuSans-53"/>
      </g>
     </g>
    </g>
    <g id="ytick_8">
     <g id="line2d_16">
      <g>
       <use style="stroke:#000000;stroke-width:0.8;" x="57.6" xlink:href="#ma44e25118c" y="85.25952"/>
      </g>
     </g>
     <g id="text_17">
      <!-- 5.50 -->
      <g transform="translate(28.334375 89.058739)scale(0.1 -0.1)">
       <use xlink:href="#DejaVuSans-53"/>
       <use x="63.623047" xlink:href="#DejaVuSans-46"/>
       <use x="95.410156" xlink:href="#DejaVuSans-53"/>
       <use x="159.033203" xlink:href="#DejaVuSans-48"/>
      </g>
     </g>
    </g>
    <g id="ytick_9">
     <g id="line2d_17">
      <g>
       <use style="stroke:#000000;stroke-width:0.8;" x="57.6" xlink:href="#ma44e25118c" y="55.01952"/>
      </g>
     </g>
     <g id="text_18">
      <!-- 5.75 -->
      <g transform="translate(28.334375 58.818739)scale(0.1 -0.1)">
       <use xlink:href="#DejaVuSans-53"/>
       <use x="63.623047" xlink:href="#DejaVuSans-46"/>
       <use x="95.410156" xlink:href="#DejaVuSans-55"/>
       <use x="159.033203" xlink:href="#DejaVuSans-53"/>
      </g>
     </g>
    </g>
   </g>
   <g id="line2d_18">
    <path clip-path="url(#p506b34d290)" d="M 73.832727 193.33728 
L 74.028656 172.35072 
L 74.420515 235.12896 
L 74.616444 183.6 
L 74.812373 227.26656 
L 79.710601 187.10784 
L 80.102459 225.45216 
L 80.690246 154.5696 
L 81.082105 211.29984 
L 81.669892 216.50112 
L 82.06175 230.35104 
L 82.649537 203.92128 
L 83.041396 256.41792 
L 83.433254 196.66368 
L 84.021041 181.05984 
L 84.804758 192.79296 
L 91.858206 181.1808 
L 92.054135 216.50112 
L 92.250064 150.21504 
L 92.837852 199.3248 
L 93.033781 256.41792 
L 93.425639 193.33728 
L 93.817497 228.17376 
L 94.013426 197.208 
L 94.405284 249.5232 
L 94.797143 207.1872 
L 94.993072 239.2416 
L 95.38493 148.03776 
L 95.972717 222.3072 
L 96.364576 222.912 
L 96.756434 181.1808 
L 97.54015 232.10496 
L 98.323867 223.75872 
L 98.715725 237.54816 
L 99.303512 216.13824 
L 99.499441 193.63968 
L 100.087229 225.6336 
L 100.283158 179.72928 
L 100.479087 201.38112 
L 100.675016 139.20768 
L 100.870945 210.53376 
L 101.066874 238.75776 
L 101.262804 238.15296 
L 101.458733 207.30816 
L 101.654662 194.12352 
L 101.850591 208.51776 
L 102.242449 228.6576 
L 102.634307 146.46528 
L 102.830236 199.476 
L 103.026166 181.7856 
L 103.613953 241.812 
L 103.809882 195.0912 
L 104.397669 207.30816 
L 104.593599 195.87744 
L 104.985457 218.79936 
L 105.181386 213.77952 
L 105.377315 164.60928 
L 106.161031 173.68128 
L 106.356961 254.48256 
L 106.748819 221.0976 
L 107.336606 191.70432 
L 107.532535 225.3312 
L 107.924393 223.87968 
L 108.316252 213.93072 
L 108.70811 292.10112 
L 108.904039 247.46688 
L 109.099968 232.34688 
L 109.295897 250.24896 
L 109.687756 203.43744 
L 109.883685 195.87744 
L 110.275543 138.60288 
L 110.471472 220.21056 
L 110.667401 191.34144 
L 110.86333 183.53952 
L 111.255188 174.89088 
L 111.451118 209.36448 
L 111.647047 198.72 
L 111.842976 200.41344 
L 112.038905 205.79616 
L 112.234834 193.76064 
L 112.430763 232.77024 
L 112.626692 215.57376 
L 112.822621 218.73888 
L 113.018551 148.618368 
L 113.21448 199.44576 
L 113.410409 203.95152 
L 113.606338 226.50048 
L 113.802267 174.40704 
L 114.194125 210.93696 
L 117.133062 204.52608 
L 117.720849 213.59808 
L 119.87607 159.408 
L 120.071999 168.92352 
L 120.267928 157.83552 
L 120.463857 206.52192 
L 120.659786 207.42912 
L 120.855715 171.29232 
L 121.051644 199.20384 
L 121.247573 210.2112 
L 121.443502 175.49568 
L 121.835361 183.84192 
L 122.03129 245.41056 
L 122.227219 160.25472 
L 122.423148 223.94016 
L 122.619077 206.8848 
L 122.815006 295.488 
L 123.010935 200.21184 
L 123.598723 224.7264 
L 123.794652 169.93152 
L 123.990581 240.4512 
L 124.578368 208.51776 
L 126.34173 133.15968 
L 126.929518 243.59616 
L 127.321376 148.27968 
L 127.517305 198.35712 
L 127.713234 176.52384 
L 127.909163 176.22144 
L 128.105092 157.9968 
L 128.301022 202.46976 
L 128.496951 209.0016 
L 128.69288 209.36448 
L 128.888809 144.288 
L 129.280667 194.36544 
L 129.476596 185.4144 
L 129.672525 205.79616 
L 130.064384 162.020736 
L 130.456242 207.09648 
L 130.652171 202.6512 
L 130.8481 191.4624 
L 131.044029 228.6576 
L 131.239958 203.07456 
L 131.435887 207.646848 
L 131.631817 74.736 
L 131.827746 223.83936 
L 132.415533 215.0496 
L 132.611462 190.49472 
L 133.00332 195.93792 
L 133.199249 135.69984 
L 133.395179 184.74048 
L 133.982966 183.624192 
L 134.374824 231.31872 
L 134.766682 200.29248 
L 134.962612 202.71168 
L 135.158541 185.0112 
L 135.550399 188.59968 
L 135.746328 214.20288 
L 135.942257 166.18176 
L 136.138186 166.78656 
L 136.334115 240.4512 
L 136.530044 178.39872 
L 136.921903 227.38752 
L 137.50969 116.22528 
L 137.705619 190.57536 
L 138.097477 175.4352 
L 138.293406 215.77536 
L 138.489336 158.8032 
L 138.685265 163.35936 
L 138.881194 197.32896 
L 139.273052 181.858176 
L 139.468981 201.01824 
L 139.66491 204.94944 
L 139.860839 170.95968 
L 140.056769 214.38432 
L 140.252698 172.7136 
L 140.448627 220.4928 
L 140.644556 214.60608 
L 140.840485 215.21088 
L 141.036414 152.39232 
L 141.232343 222.67008 
L 141.428272 157.71456 
L 142.01606 246.74112 
L 142.211989 211.05792 
L 142.603847 226.66176 
L 142.995705 183.78144 
L 143.191634 215.77536 
L 143.387564 192.73248 
L 143.779422 235.43136 
L 143.975351 226.50048 
L 144.17128 192.0672 
L 144.367209 218.0736 
L 144.563138 179.89056 
L 144.954996 231.25824 
L 145.346855 201.1392 
L 145.738713 233.7984 
L 146.130571 242.2656 
L 146.3265 251.57952 
L 147.306146 200.29248 
L 147.502075 204.28416 
L 147.893933 179.9712 
L 148.089862 232.10496 
L 148.285791 227.38752 
L 148.873579 241.53984 
L 149.657295 209.48544 
L 150.441012 212.50944 
L 150.83287 149.85216 
L 151.224728 208.3968 
L 151.420657 205.46352 
L 151.812515 228.23424 
L 152.008445 202.46976 
L 152.204374 200.82168 
L 152.400303 250.24896 
L 152.596232 157.83552 
L 152.792161 131.82912 
L 152.98809 197.75232 
L 153.184019 218.55744 
L 153.575878 192.63168 
L 153.771807 191.78496 
L 153.967736 216.29952 
L 154.163665 215.57376 
L 154.359594 232.50816 
L 154.555523 199.56672 
L 154.947381 260.04672 
L 155.535169 218.896128 
L 155.731098 206.70336 
L 156.318885 222.3072 
L 156.514814 205.00992 
L 157.102602 223.5168 
L 157.886318 209.6064 
L 158.278176 210.2112 
L 158.474105 146.7072 
L 158.670035 172.1088 
L 158.865964 239.48352 
L 159.061893 191.34144 
L 159.257822 197.44992 
L 159.64968 188.92224 
L 159.845609 210.78144 
L 160.041538 195.87744 
L 160.237467 217.10592 
L 160.433397 214.68672 
L 160.825255 194.099328 
L 161.021184 205.05024 
L 161.217113 178.180992 
L 161.413042 214.5456 
L 161.608971 207.91296 
L 161.8049 249.24096 
L 162.196759 191.244672 
L 162.392688 216.57672 
L 162.588617 180.69696 
L 162.784546 185.328 
L 162.980475 206.43456 
L 163.176404 187.688448 
L 163.372333 210.888576 
L 163.568262 216.210816 
L 163.764192 195.865344 
L 163.960121 202.8528 
L 164.351979 234.4032 
L 164.547908 228.83904 
L 164.743837 260.83296 
L 164.939766 163.46016 
L 165.135695 238.81824 
L 165.331625 174.2256 
L 165.527554 206.09856 
L 165.723483 186.38208 
L 165.919412 235.06848 
L 166.115341 197.5104 
L 166.507199 190.31328 
L 166.703128 215.53344 
L 166.899057 205.85664 
L 167.486845 203.95152 
L 167.682774 227.28384 
L 167.878703 223.24464 
L 168.074632 197.29872 
L 168.270561 212.0256 
L 168.46649 176.3424 
L 169.446136 198.96192 
L 169.642065 201.744 
L 169.837994 209.56608 
L 170.033923 169.56864 
L 170.229852 193.09536 
L 170.425782 184.8096 
L 170.621711 195.33312 
L 170.81764 225.77472 
L 171.013569 186.333696 
L 171.209498 210.380544 
L 171.405427 206.46144 
L 171.601356 195.13152 
L 171.797285 201.1392 
L 171.993214 202.40928 
L 172.189144 216.5616 
L 172.581002 201.2904 
L 172.776931 216.89424 
L 172.97286 179.48736 
L 173.168789 222.42816 
L 173.364718 214.4448 
L 173.560647 217.759104 
L 173.756577 209.66688 
L 173.952506 213.0336 
L 174.148435 189.13392 
L 174.344364 197.34912 
L 174.540293 196.3008 
L 174.736222 210.33216 
L 174.932151 232.95168 
L 175.12808 215.2512 
L 175.324009 219.64608 
L 175.519939 200.65536 
L 175.715868 199.20384 
L 175.911797 206.025984 
L 176.107726 205.61472 
L 176.303655 208.27584 
L 176.499584 179.48736 
L 176.891442 238.51584 
L 177.087371 190.91808 
L 177.47923 239.8464 
L 177.675159 211.60224 
L 178.262946 195.45408 
L 178.458875 204.4656 
L 179.046663 241.90272 
L 179.242592 206.5824 
L 179.438521 203.80032 
L 179.63445 197.93376 
L 179.830379 225.45216 
L 180.222237 157.04928 
L 180.418166 278.91648 
L 180.614096 214.88832 
L 180.810025 225.65376 
L 181.005954 159.28704 
L 181.201883 202.77216 
L 181.397812 200.47392 
L 181.593741 201.56928 
L 181.78967 232.75008 
L 181.985599 200.57472 
L 182.181529 204.5664 
L 182.377458 248.19264 
L 182.573387 159.408 
L 182.769316 180.81792 
L 182.965245 171.98784 
L 183.357103 202.97376 
L 183.748961 171.2016 
L 183.944891 188.25696 
L 184.14082 228.47616 
L 184.336749 200.01024 
L 184.728607 218.0736 
L 184.924536 183.47232 
L 185.120465 216.67392 
L 185.316394 206.80416 
L 185.512323 184.26528 
L 185.708253 188.136 
L 185.904182 209.6928 
L 186.29604 204.58656 
L 186.491969 211.05792 
L 186.687898 209.64672 
L 186.883827 201.35088 
L 187.079756 145.86048 
L 187.275686 215.13024 
L 187.471615 196.98624 
L 187.667544 223.15392 
L 187.863473 233.31456 
L 188.45126 193.809024 
L 188.647189 206.52192 
L 188.843118 196.48224 
L 189.039048 221.21856 
L 189.234977 205.08552 
L 189.430906 247.22496 
L 189.626835 220.0896 
L 189.822764 217.22688 
L 190.214622 202.97376 
L 190.410551 185.7672 
L 190.60648 202.45248 
L 190.80241 151.42464 
L 191.194268 223.15392 
L 191.390197 179.535744 
L 191.586126 219.2832 
L 191.782055 196.02864 
L 191.977984 217.71072 
L 192.173913 211.36032 
L 192.369843 188.86176 
L 192.565772 203.256 
L 193.349488 130.61952 
L 193.545417 213.27552 
L 193.741346 214.48512 
L 193.937275 225.51264 
L 194.133205 178.92792 
L 194.525063 220.85568 
L 195.11285 153.5616 
L 195.308779 229.38336 
L 195.700638 205.85664 
L 195.896567 194.97024 
L 196.092496 207.24768 
L 196.484354 154.08576 
L 196.680283 177.06816 
L 196.876212 146.34432 
L 197.072141 181.87632 
L 197.26807 196.84512 
L 197.464 167.75424 
L 197.659929 168.92352 
L 197.855858 235.58256 
L 198.443645 208.3968 
L 198.639574 194.4864 
L 198.835503 199.60704 
L 199.031432 147.79584 
L 199.227362 154.93248 
L 199.423291 223.03296 
L 199.815149 211.05792 
L 200.011078 211.44096 
L 200.598865 219.60576 
L 200.794795 211.25952 
L 200.990724 214.7472 
L 201.186653 213.27552 
L 201.382582 203.19552 
L 201.578511 170.2944 
L 201.77444 211.856256 
L 201.970369 180.63648 
L 202.166298 207.1872 
L 202.754086 172.95552 
L 202.950015 204.1632 
L 203.145944 198.23616 
L 203.537802 176.01984 
L 203.733731 172.83456 
L 203.92966 176.04 
L 204.12559 252.5472 
L 204.517448 197.34912 
L 204.713377 201.68352 
L 204.909306 279.52128 
L 205.105235 160.25472 
L 205.497093 209.18304 
L 205.693022 104.25024 
L 205.888952 141.62688 
L 206.084881 132.55488 
L 206.28081 213.62832 
L 206.476739 195.63552 
L 207.064526 190.01088 
L 207.260455 215.47296 
L 207.652314 168.11712 
L 207.848243 205.49376 
L 208.044172 182.75328 
L 208.240101 204.88896 
L 208.631959 202.71168 
L 208.827888 202.3488 
L 209.023817 222.97248 
L 209.219747 213.75936 
L 209.415676 216.38016 
L 209.611605 202.07664 
L 209.807534 210.71232 
L 210.003463 202.79808 
L 210.199392 221.750784 
L 210.395321 208.63872 
L 210.59125 211.23936 
L 210.787179 105.5808 
L 210.983109 212.328 
L 211.179038 177.18912 
L 211.374967 199.68768 
L 212.158683 202.3488 
L 212.746471 192.91392 
L 212.9424 192.18816 
L 213.138329 213.77952 
L 213.334258 160.278912 
L 213.530187 201.50208 
L 213.726116 205.00992 
L 213.922045 205.70544 
L 214.117974 211.4208 
L 214.313904 196.74432 
L 214.509833 208.47744 
L 214.901691 180.39456 
L 215.293549 194.06304 
L 215.489478 215.37216 
L 215.685407 189.76896 
L 216.273195 239.8464 
L 216.469124 226.70208 
L 216.665053 183.11616 
L 216.860982 204.768 
L 217.056911 178.92792 
L 217.448769 203.92128 
L 217.644699 115.49952 
L 217.840628 189.28512 
L 218.036557 180.25344 
L 218.232486 190.37376 
L 218.428415 186.624 
L 219.016202 216.5616 
L 219.408061 224.24256 
L 219.799919 269.84448 
L 220.191777 182.63232 
L 220.387706 188.01504 
L 220.583635 118.2816 
L 220.975493 175.97952 
L 221.367352 194.12352 
L 222.151068 194.72832 
L 222.738856 243.83808 
L 223.718501 198.23616 
L 224.306288 184.68864 
L 224.502218 200.988 
L 224.698147 198.23616 
L 224.894076 218.19456 
L 225.090005 250.7328 
L 225.285934 241.78176 
L 225.481863 199.3248 
L 225.873721 234.28224 
L 226.069651 189.76896 
L 226.461509 166.30272 
L 226.657438 170.37504 
L 226.853367 143.62272 
L 227.049296 214.08192 
L 227.637083 194.4864 
L 227.833013 196.54272 
L 228.028942 187.39008 
L 228.224871 195.73632 
L 228.4208 194.24448 
L 228.616729 152.39232 
L 229.008587 204.5664 
L 229.204516 207.85248 
L 229.400445 144.77184 
L 229.596375 192.0672 
L 230.380091 189.76896 
L 230.771949 148.34016 
L 231.359737 223.35552 
L 231.555666 189.16416 
L 231.751595 174.528 
L 232.143453 229.5648 
L 232.535311 222.79104 
L 232.73124 223.09344 
L 233.123099 206.46144 
L 233.514957 159.89184 
L 233.710886 223.27488 
L 234.102744 203.67936 
L 234.298673 199.68768 
L 234.690532 207.91296 
L 235.08239 229.08096 
L 235.278319 213.84 
L 235.670177 174.1248 
L 236.062035 259.2 
L 236.453894 185.35392 
L 236.649823 212.75136 
L 237.041681 209.08224 
L 237.629468 179.00352 
L 237.825397 199.68768 
L 238.217256 182.87424 
L 238.609114 199.9296 
L 239.196901 165.09312 
L 239.58876 201.38112 
L 239.980618 180.45504 
L 240.176547 212.56992 
L 240.568405 154.44864 
L 240.764334 146.64672 
L 240.960263 197.02656 
L 243.115484 200.89728 
L 243.311413 273.35232 
L 243.703271 182.87424 
L 243.8992 188.55936 
L 244.095129 227.02464 
L 244.682917 208.51776 
L 244.878846 219.04128 
L 245.662562 203.92128 
L 245.858491 186.86592 
L 246.05442 192.43008 
L 246.838137 189.52704 
L 247.034066 174.16512 
L 247.229995 212.26752 
L 247.425924 220.65408 
L 247.621853 164.30688 
L 248.013712 126.144 
L 248.209641 222.54912 
L 248.40557 188.80128 
L 248.601499 208.63872 
L 249.189286 196.17984 
L 249.385215 196.33104 
L 250.364861 204.28416 
L 250.756719 210.02976 
L 250.952648 216.74304 
L 251.344507 201.01824 
L 251.540436 166.24224 
L 251.736365 182.14848 
L 251.932294 179.60832 
L 252.324152 198.84096 
L 252.520081 171.02016 
L 252.911939 232.5888 
L 253.107869 128.01888 
L 253.303798 118.40256 
L 253.499727 187.8336 
L 253.695656 192.18816 
L 253.891585 148.40064 
L 254.087514 234.52416 
L 254.479372 171.26208 
L 254.675301 175.61664 
L 254.871231 243.53568 
L 255.06716 234.04032 
L 255.459018 229.68576 
L 256.046805 216.2592 
L 256.242734 199.68768 
L 256.830522 205.3728 
L 257.026451 219.76704 
L 258.006096 168.11712 
L 259.3776 170.05248 
L 260.357246 235.97568 
L 260.749104 209.52576 
L 261.140962 91.18656 
L 261.336891 194.04288 
L 261.924679 164.94192 
L 262.120608 179.3664 
L 262.316537 167.51232 
L 264.079899 211.17888 
L 264.275828 197.26848 
L 269.174056 238.81824 
L 269.957773 194.36544 
L 270.54556 215.29152 
L 270.741489 165.57696 
L 270.937418 230.41152 
L 271.525205 212.14656 
L 272.112993 202.83264 
L 272.308922 228.71808 
L 272.896709 174.76992 
L 273.092638 180.81792 
L 273.288568 182.63232 
L 273.680426 179.30592 
L 273.876355 222.912 
L 274.268213 259.56288 
L 274.464142 204.94944 
L 274.660071 249.16032 
L 275.05193 284.23872 
L 275.247859 204.1632 
L 275.835646 238.75776 
L 276.423433 220.25088 
L 276.815292 193.51872 
L 277.011221 53.568 
L 277.20715 241.17696 
L 277.990866 159.1056 
L 278.382725 188.92224 
L 278.578654 180.45504 
L 278.774583 163.52064 
L 278.970512 185.77728 
L 279.166441 226.2384 
L 279.36237 242.50752 
L 279.754228 217.22688 
L 279.950157 212.6304 
L 280.146087 229.44384 
L 280.342016 216.68256 
L 280.537945 221.0976 
L 280.733874 202.0464 
L 281.125732 196.48224 
L 281.321661 198.90144 
L 281.51759 253.9584 
L 281.909449 194.12352 
L 282.105378 181.66464 
L 282.497236 202.3488 
L 282.693165 239.36256 
L 282.889094 197.38944 
L 283.085023 194.84928 
L 283.476882 136.4256 
L 283.672811 210.87648 
L 284.064669 178.80192 
L 284.260598 196.05888 
L 284.652456 167.60304 
L 284.848385 201.30048 
L 285.044314 213.084 
L 285.240244 181.87632 
L 285.436173 204.58656 
L 285.632102 193.2768 
L 285.828031 149.06592 
L 286.219889 181.9872 
L 286.415818 161.49456 
L 286.611747 223.2144 
L 287.003606 180.49536 
L 287.199535 213.35616 
L 287.395464 206.09856 
L 287.591393 252.5472 
L 288.17918 207.55008 
L 291.509975 231.3792 
L 291.705904 167.02848 
L 291.901834 200.95776 
L 292.097763 204.04224 
L 292.293692 226.17792 
L 292.489621 217.95264 
L 294.84077 232.34688 
L 295.624487 218.0736 
L 295.820416 120.78144 
L 296.016345 240.20928 
L 296.212274 180.63648 
L 296.408203 212.6304 
L 296.604132 169.81056 
L 296.995991 216.38016 
L 297.19192 116.4672 
L 297.779707 120.57984 
L 298.171565 154.32768 
L 298.367494 202.10688 
L 298.563423 144.288 
L 298.759353 195.45408 
L 299.934927 255.81312 
L 300.130856 152.87616 
L 300.326786 202.71168 
L 300.522715 195.45408 
L 301.894218 161.46432 
L 303.461651 146.22336 
L 303.657581 118.76544 
L 304.245368 184.8096 
L 304.637226 185.4144 
L 305.225013 202.37904 
L 305.420943 199.29456 
L 305.616872 231.86304 
L 306.00873 100.01664 
L 306.204659 229.44384 
L 306.400588 180.61632 
L 306.596517 197.02656 
L 306.792446 228.6576 
L 306.988375 234.88704 
L 307.380234 232.34688 
L 307.968021 189.648 
L 308.16395 197.75232 
L 308.359879 185.89824 
L 308.751738 246.25728 
L 308.947667 208.27584 
L 309.143596 237.30624 
L 309.535454 195.33312 
L 309.927312 179.18496 
L 310.123241 191.22048 
L 310.5151 184.2048 
L 310.711029 246.13632 
L 310.906958 241.41888 
L 311.298816 183.31776 
L 311.690674 176.98176 
L 311.886603 222.42816 
L 312.082533 182.20896 
L 312.278462 248.55552 
L 312.67032 178.03584 
L 313.062178 215.89632 
L 313.454036 214.56576 
L 313.845895 215.77536 
L 314.041824 205.3728 
L 314.237753 232.22592 
L 314.433682 195.81696 
L 314.629611 191.70432 
L 314.82554 213.77952 
L 315.021469 169.87104 
L 315.609257 218.0736 
L 316.197044 162.91584 
L 316.392973 202.16736 
L 317.17669 212.26752 
L 317.372619 227.38752 
L 317.764477 240.81408 
L 318.156335 215.0496 
L 318.744122 218.31552 
L 318.940052 195.85728 
L 319.33191 254.84544 
L 319.527839 186.50304 
L 319.919697 225.57312 
L 320.115626 196.05888 
L 320.507485 260.77248 
L 320.703414 214.20288 
L 320.899343 233.67744 
L 321.095272 210.25152 
L 321.48713 266.09472 
L 322.074917 241.056 
L 322.270847 160.0128 
L 322.466776 209.24352 
L 322.662705 217.10592 
L 322.858634 200.57472 
L 323.054563 207.42912 
L 323.838279 182.71296 
L 324.034209 233.1936 
L 324.230138 206.34048 
L 324.817925 209.96928 
L 325.405712 214.56576 
L 325.797571 169.50816 
L 326.189429 275.65056 
L 326.581287 214.80768 
L 326.777216 214.92864 
L 327.169074 208.88064 
L 327.952791 152.02944 
L 328.736507 201.86496 
L 328.932436 222.42816 
L 329.128366 221.94432 
L 330.108011 205.49376 
L 330.30394 132.31296 
L 330.499869 180.33408 
L 331.479515 202.30848 
L 331.675444 199.68768 
L 332.067302 213.84 
L 332.65509 224.40384 
L 333.242877 203.49792 
L 333.438806 209.04192 
L 333.634735 203.43744 
L 333.830664 208.75968 
L 334.026594 206.09856 
L 334.418452 196.54272 
L 334.81031 220.1904 
L 335.006239 256.176 
L 335.202168 209.96928 
L 335.398097 208.03392 
L 335.594026 247.95072 
L 335.985885 221.7024 
L 338.337034 200.17152 
L 340.100396 219.64608 
L 340.884113 217.71072 
L 341.667829 180.33408 
L 341.863758 187.59168 
L 342.059687 208.63872 
L 342.647475 165.33504 
L 343.235262 237.54816 
L 348.917206 174.528 
L 349.504994 196.42176 
L 349.896852 198.84096 
L 350.28871 235.24992 
L 350.680568 173.13696 
L 351.072427 162.432 
L 351.856143 229.44384 
L 352.44393 181.42272 
L 352.63986 193.8816 
L 361.064812 210.816 
L 363.024103 246.13632 
L 364.787465 215.89632 
L 373.212417 216.98496 
L 374.975779 138.24 
L 382.029227 228.83904 
L 383.988518 191.82528 
L 388.690817 208.03392 
L 389.866392 223.15392 
L 390.062321 197.75232 
L 391.237895 211.1184 
L 392.609399 217.34784 
L 394.76462 233.07264 
L 398.487273 205.85664 
L 398.487273 205.85664 
" style="fill:none;stroke:#0000ff;stroke-linecap:square;stroke-width:1.5;"/>
   </g>
   <g id="patch_3">
    <path d="M 57.6 307.584 
L 57.6 41.472 
" style="fill:none;stroke:#000000;stroke-linecap:square;stroke-linejoin:miter;stroke-width:0.8;"/>
   </g>
   <g id="patch_4">
    <path d="M 414.72 307.584 
L 414.72 41.472 
" style="fill:none;stroke:#000000;stroke-linecap:square;stroke-linejoin:miter;stroke-width:0.8;"/>
   </g>
   <g id="patch_5">
    <path d="M 57.6 307.584 
L 414.72 307.584 
" style="fill:none;stroke:#000000;stroke-linecap:square;stroke-linejoin:miter;stroke-width:0.8;"/>
   </g>
   <g id="patch_6">
    <path d="M 57.6 41.472 
L 414.72 41.472 
" style="fill:none;stroke:#000000;stroke-linecap:square;stroke-linejoin:miter;stroke-width:0.8;"/>
   </g>
   <g id="text_19">
    <!-- temperature-&gt;ping_night -->
    <g transform="translate(159.735938 35.472)scale(0.12 -0.12)">
     <defs>
      <path d="M 4.890625 31.390625 
L 31.203125 31.390625 
L 31.203125 23.390625 
L 4.890625 23.390625 
z
" id="DejaVuSans-45"/>
      <path d="M 10.59375 49.21875 
L 10.59375 58.109375 
L 73.1875 35.40625 
L 73.1875 27.296875 
L 10.59375 4.59375 
L 10.59375 13.484375 
L 60.890625 31.296875 
z
" id="DejaVuSans-62"/>
      <path d="M 54.890625 33.015625 
L 54.890625 0 
L 45.90625 0 
L 45.90625 32.71875 
Q 45.90625 40.484375 42.875 44.328125 
Q 39.84375 48.1875 33.796875 48.1875 
Q 26.515625 48.1875 22.3125 43.546875 
Q 18.109375 38.921875 18.109375 30.90625 
L 18.109375 0 
L 9.078125 0 
L 9.078125 54.6875 
L 18.109375 54.6875 
L 18.109375 46.1875 
Q 21.34375 51.125 25.703125 53.5625 
Q 30.078125 56 35.796875 56 
Q 45.21875 56 50.046875 50.171875 
Q 54.890625 44.34375 54.890625 33.015625 
z
" id="DejaVuSans-110"/>
      <path d="M 45.40625 27.984375 
Q 45.40625 37.75 41.375 43.109375 
Q 37.359375 48.484375 30.078125 48.484375 
Q 22.859375 48.484375 18.828125 43.109375 
Q 14.796875 37.75 14.796875 27.984375 
Q 14.796875 18.265625 18.828125 12.890625 
Q 22.859375 7.515625 30.078125 7.515625 
Q 37.359375 7.515625 41.375 12.890625 
Q 45.40625 18.265625 45.40625 27.984375 
z
M 54.390625 6.78125 
Q 54.390625 -7.171875 48.1875 -13.984375 
Q 42 -20.796875 29.203125 -20.796875 
Q 24.46875 -20.796875 20.265625 -20.09375 
Q 16.0625 -19.390625 12.109375 -17.921875 
L 12.109375 -9.1875 
Q 16.0625 -11.328125 19.921875 -12.34375 
Q 23.78125 -13.375 27.78125 -13.375 
Q 36.625 -13.375 41.015625 -8.765625 
Q 45.40625 -4.15625 45.40625 5.171875 
L 45.40625 9.625 
Q 42.625 4.78125 38.28125 2.390625 
Q 33.9375 0 27.875 0 
Q 17.828125 0 11.671875 7.65625 
Q 5.515625 15.328125 5.515625 27.984375 
Q 5.515625 40.671875 11.671875 48.328125 
Q 17.828125 56 27.875 56 
Q 33.9375 56 38.28125 53.609375 
Q 42.625 51.21875 45.40625 46.390625 
L 45.40625 54.6875 
L 54.390625 54.6875 
z
" id="DejaVuSans-103"/>
      <path d="M 50.984375 -16.609375 
L 50.984375 -23.578125 
L -0.984375 -23.578125 
L -0.984375 -16.609375 
z
" id="DejaVuSans-95"/>
      <path d="M 54.890625 33.015625 
L 54.890625 0 
L 45.90625 0 
L 45.90625 32.71875 
Q 45.90625 40.484375 42.875 44.328125 
Q 39.84375 48.1875 33.796875 48.1875 
Q 26.515625 48.1875 22.3125 43.546875 
Q 18.109375 38.921875 18.109375 30.90625 
L 18.109375 0 
L 9.078125 0 
L 9.078125 75.984375 
L 18.109375 75.984375 
L 18.109375 46.1875 
Q 21.34375 51.125 25.703125 53.5625 
Q 30.078125 56 35.796875 56 
Q 45.21875 56 50.046875 50.171875 
Q 54.890625 44.34375 54.890625 33.015625 
z
" id="DejaVuSans-104"/>
     </defs>
     <use xlink:href="#DejaVuSans-116"/>
     <use x="39.208984" xlink:href="#DejaVuSans-101"/>
     <use x="100.732422" xlink:href="#DejaVuSans-109"/>
     <use x="198.144531" xlink:href="#DejaVuSans-112"/>
     <use x="261.621094" xlink:href="#DejaVuSans-101"/>
     <use x="323.144531" xlink:href="#DejaVuSans-114"/>
     <use x="364.257812" xlink:href="#DejaVuSans-97"/>
     <use x="425.537109" xlink:href="#DejaVuSans-116"/>
     <use x="464.746094" xlink:href="#DejaVuSans-117"/>
     <use x="528.125" xlink:href="#DejaVuSans-114"/>
     <use x="566.988281" xlink:href="#DejaVuSans-101"/>
     <use x="628.511719" xlink:href="#DejaVuSans-45"/>
     <use x="664.595703" xlink:href="#DejaVuSans-62"/>
     <use x="748.384766" xlink:href="#DejaVuSans-112"/>
     <use x="811.861328" xlink:href="#DejaVuSans-105"/>
     <use x="839.644531" xlink:href="#DejaVuSans-110"/>
     <use x="903.023438" xlink:href="#DejaVuSans-103"/>
     <use x="966.5" xlink:href="#DejaVuSans-95"/>
     <use x="1016.5" xlink:href="#DejaVuSans-110"/>
     <use x="1079.878906" xlink:href="#DejaVuSans-105"/>
     <use x="1107.662109" xlink:href="#DejaVuSans-103"/>
     <use x="1171.138672" xlink:href="#DejaVuSans-104"/>
     <use x="1234.517578" xlink:href="#DejaVuSans-116"/>
    </g>
   </g>
  </g>
  <g id="legend_1">
   <g id="patch_7">
    <path d="M 415.451563 22.678125 
L 453.8 22.678125 
Q 455.8 22.678125 455.8 20.678125 
L 455.8 7 
Q 455.8 5 453.8 5 
L 415.451563 5 
Q 413.451563 5 413.451563 7 
L 413.451563 20.678125 
Q 413.451563 22.678125 415.451563 22.678125 
z
" style="fill:#ffffff;opacity:0.8;stroke:#cccccc;stroke-linejoin:miter;"/>
   </g>
   <g id="line2d_19">
    <path d="M 417.451563 13.098438 
L 437.451563 13.098438 
" style="fill:none;stroke:#0000ff;stroke-linecap:square;stroke-width:1.5;"/>
   </g>
   <g id="line2d_20"/>
   <g id="text_20">
    <!-- p -->
    <g transform="translate(445.451563 16.598438)scale(0.1 -0.1)">
     <use xlink:href="#DejaVuSans-112"/>
    </g>
   </g>
  </g>
 </g>
 <defs>
  <clipPath id="p506b34d290">
   <rect height="266.112" width="357.12" x="57.6" y="41.472"/>
  </clipPath>
 </defs>
</svg>
