<?xml version="1.0" encoding="utf-8" standalone="no"?>
<!DOCTYPE svg PUBLIC "-//W3C//DTD SVG 1.1//EN"
  "http://www.w3.org/Graphics/SVG/1.1/DTD/svg11.dtd">
<!-- Created with matplotlib (https://matplotlib.org/) -->
<svg height="345.6pt" version="1.1" viewBox="0 0 460.8 345.6" width="460.8pt" xmlns="http://www.w3.org/2000/svg" xmlns:xlink="http://www.w3.org/1999/xlink">
 <metadata>
  <rdf:RDF xmlns:cc="http://creativecommons.org/ns#" xmlns:dc="http://purl.org/dc/elements/1.1/" xmlns:rdf="http://www.w3.org/1999/02/22-rdf-syntax-ns#">
   <cc:Work>
    <dc:type rdf:resource="http://purl.org/dc/dcmitype/StillImage"/>
    <dc:date>2022-07-16T17:57:38.560091</dc:date>
    <dc:format>image/svg+xml</dc:format>
    <dc:creator>
     <cc:Agent>
      <dc:title>Matplotlib v3.3.2, https://matplotlib.org/</dc:title>
     </cc:Agent>
    </dc:creator>
   </cc:Work>
  </rdf:RDF>
 </metadata>
 <defs>
  <style type="text/css">*{stroke-linecap:butt;stroke-linejoin:round;}</style>
 </defs>
 <g id="figure_1">
  <g id="patch_1">
   <path d="M 0 345.6 
L 460.8 345.6 
L 460.8 0 
L 0 0 
z
" style="fill:#ffffff;"/>
  </g>
  <g id="axes_1">
   <g id="patch_2">
    <path d="M 57.6 307.584 
L 414.72 307.584 
L 414.72 41.472 
L 57.6 41.472 
z
" style="fill:#ffffff;"/>
   </g>
   <g id="matplotlib.axis_1">
    <g id="xtick_1">
     <g id="line2d_1">
      <defs>
       <path d="M 0 0 
L 0 3.5 
" id="m08471d37fe" style="stroke:#000000;stroke-width:0.8;"/>
      </defs>
      <g>
       <use style="stroke:#000000;stroke-width:0.8;" x="62.798961" xlink:href="#m08471d37fe" y="307.584"/>
      </g>
     </g>
     <g id="text_1">
      <!-- 5.0 -->
      <g transform="translate(54.847399 322.182437)scale(0.1 -0.1)">
       <defs>
        <path d="M 10.796875 72.90625 
L 49.515625 72.90625 
L 49.515625 64.59375 
L 19.828125 64.59375 
L 19.828125 46.734375 
Q 21.96875 47.46875 24.109375 47.828125 
Q 26.265625 48.1875 28.421875 48.1875 
Q 40.625 48.1875 47.75 41.5 
Q 54.890625 34.8125 54.890625 23.390625 
Q 54.890625 11.625 47.5625 5.09375 
Q 40.234375 -1.421875 26.90625 -1.421875 
Q 22.3125 -1.421875 17.546875 -0.640625 
Q 12.796875 0.140625 7.71875 1.703125 
L 7.71875 11.625 
Q 12.109375 9.234375 16.796875 8.0625 
Q 21.484375 6.890625 26.703125 6.890625 
Q 35.15625 6.890625 40.078125 11.328125 
Q 45.015625 15.765625 45.015625 23.390625 
Q 45.015625 31 40.078125 35.4375 
Q 35.15625 39.890625 26.703125 39.890625 
Q 22.75 39.890625 18.8125 39.015625 
Q 14.890625 38.140625 10.796875 36.28125 
z
" id="DejaVuSans-53"/>
        <path d="M 10.6875 12.40625 
L 21 12.40625 
L 21 0 
L 10.6875 0 
z
" id="DejaVuSans-46"/>
        <path d="M 31.78125 66.40625 
Q 24.171875 66.40625 20.328125 58.90625 
Q 16.5 51.421875 16.5 36.375 
Q 16.5 21.390625 20.328125 13.890625 
Q 24.171875 6.390625 31.78125 6.390625 
Q 39.453125 6.390625 43.28125 13.890625 
Q 47.125 21.390625 47.125 36.375 
Q 47.125 51.421875 43.28125 58.90625 
Q 39.453125 66.40625 31.78125 66.40625 
z
M 31.78125 74.21875 
Q 44.046875 74.21875 50.515625 64.515625 
Q 56.984375 54.828125 56.984375 36.375 
Q 56.984375 17.96875 50.515625 8.265625 
Q 44.046875 -1.421875 31.78125 -1.421875 
Q 19.53125 -1.421875 13.0625 8.265625 
Q 6.59375 17.96875 6.59375 36.375 
Q 6.59375 54.828125 13.0625 64.515625 
Q 19.53125 74.21875 31.78125 74.21875 
z
" id="DejaVuSans-48"/>
       </defs>
       <use xlink:href="#DejaVuSans-53"/>
       <use x="63.623047" xlink:href="#DejaVuSans-46"/>
       <use x="95.410156" xlink:href="#DejaVuSans-48"/>
      </g>
     </g>
    </g>
    <g id="xtick_2">
     <g id="line2d_2">
      <g>
       <use style="stroke:#000000;stroke-width:0.8;" x="109.552208" xlink:href="#m08471d37fe" y="307.584"/>
      </g>
     </g>
     <g id="text_2">
      <!-- 7.5 -->
      <g transform="translate(101.600645 322.182437)scale(0.1 -0.1)">
       <defs>
        <path d="M 8.203125 72.90625 
L 55.078125 72.90625 
L 55.078125 68.703125 
L 28.609375 0 
L 18.3125 0 
L 43.21875 64.59375 
L 8.203125 64.59375 
z
" id="DejaVuSans-55"/>
       </defs>
       <use xlink:href="#DejaVuSans-55"/>
       <use x="63.623047" xlink:href="#DejaVuSans-46"/>
       <use x="95.410156" xlink:href="#DejaVuSans-53"/>
      </g>
     </g>
    </g>
    <g id="xtick_3">
     <g id="line2d_3">
      <g>
       <use style="stroke:#000000;stroke-width:0.8;" x="156.305455" xlink:href="#m08471d37fe" y="307.584"/>
      </g>
     </g>
     <g id="text_3">
      <!-- 10.0 -->
      <g transform="translate(145.172642 322.182437)scale(0.1 -0.1)">
       <defs>
        <path d="M 12.40625 8.296875 
L 28.515625 8.296875 
L 28.515625 63.921875 
L 10.984375 60.40625 
L 10.984375 69.390625 
L 28.421875 72.90625 
L 38.28125 72.90625 
L 38.28125 8.296875 
L 54.390625 8.296875 
L 54.390625 0 
L 12.40625 0 
z
" id="DejaVuSans-49"/>
       </defs>
       <use xlink:href="#DejaVuSans-49"/>
       <use x="63.623047" xlink:href="#DejaVuSans-48"/>
       <use x="127.246094" xlink:href="#DejaVuSans-46"/>
       <use x="159.033203" xlink:href="#DejaVuSans-48"/>
      </g>
     </g>
    </g>
    <g id="xtick_4">
     <g id="line2d_4">
      <g>
       <use style="stroke:#000000;stroke-width:0.8;" x="203.058701" xlink:href="#m08471d37fe" y="307.584"/>
      </g>
     </g>
     <g id="text_4">
      <!-- 12.5 -->
      <g transform="translate(191.925889 322.182437)scale(0.1 -0.1)">
       <defs>
        <path d="M 19.1875 8.296875 
L 53.609375 8.296875 
L 53.609375 0 
L 7.328125 0 
L 7.328125 8.296875 
Q 12.9375 14.109375 22.625 23.890625 
Q 32.328125 33.6875 34.8125 36.53125 
Q 39.546875 41.84375 41.421875 45.53125 
Q 43.3125 49.21875 43.3125 52.78125 
Q 43.3125 58.59375 39.234375 62.25 
Q 35.15625 65.921875 28.609375 65.921875 
Q 23.96875 65.921875 18.8125 64.3125 
Q 13.671875 62.703125 7.8125 59.421875 
L 7.8125 69.390625 
Q 13.765625 71.78125 18.9375 73 
Q 24.125 74.21875 28.421875 74.21875 
Q 39.75 74.21875 46.484375 68.546875 
Q 53.21875 62.890625 53.21875 53.421875 
Q 53.21875 48.921875 51.53125 44.890625 
Q 49.859375 40.875 45.40625 35.40625 
Q 44.1875 33.984375 37.640625 27.21875 
Q 31.109375 20.453125 19.1875 8.296875 
z
" id="DejaVuSans-50"/>
       </defs>
       <use xlink:href="#DejaVuSans-49"/>
       <use x="63.623047" xlink:href="#DejaVuSans-50"/>
       <use x="127.246094" xlink:href="#DejaVuSans-46"/>
       <use x="159.033203" xlink:href="#DejaVuSans-53"/>
      </g>
     </g>
    </g>
    <g id="xtick_5">
     <g id="line2d_5">
      <g>
       <use style="stroke:#000000;stroke-width:0.8;" x="249.811948" xlink:href="#m08471d37fe" y="307.584"/>
      </g>
     </g>
     <g id="text_5">
      <!-- 15.0 -->
      <g transform="translate(238.679136 322.182437)scale(0.1 -0.1)">
       <use xlink:href="#DejaVuSans-49"/>
       <use x="63.623047" xlink:href="#DejaVuSans-53"/>
       <use x="127.246094" xlink:href="#DejaVuSans-46"/>
       <use x="159.033203" xlink:href="#DejaVuSans-48"/>
      </g>
     </g>
    </g>
    <g id="xtick_6">
     <g id="line2d_6">
      <g>
       <use style="stroke:#000000;stroke-width:0.8;" x="296.565195" xlink:href="#m08471d37fe" y="307.584"/>
      </g>
     </g>
     <g id="text_6">
      <!-- 17.5 -->
      <g transform="translate(285.432382 322.182437)scale(0.1 -0.1)">
       <use xlink:href="#DejaVuSans-49"/>
       <use x="63.623047" xlink:href="#DejaVuSans-55"/>
       <use x="127.246094" xlink:href="#DejaVuSans-46"/>
       <use x="159.033203" xlink:href="#DejaVuSans-53"/>
      </g>
     </g>
    </g>
    <g id="xtick_7">
     <g id="line2d_7">
      <g>
       <use style="stroke:#000000;stroke-width:0.8;" x="343.318442" xlink:href="#m08471d37fe" y="307.584"/>
      </g>
     </g>
     <g id="text_7">
      <!-- 20.0 -->
      <g transform="translate(332.185629 322.182437)scale(0.1 -0.1)">
       <use xlink:href="#DejaVuSans-50"/>
       <use x="63.623047" xlink:href="#DejaVuSans-48"/>
       <use x="127.246094" xlink:href="#DejaVuSans-46"/>
       <use x="159.033203" xlink:href="#DejaVuSans-48"/>
      </g>
     </g>
    </g>
    <g id="xtick_8">
     <g id="line2d_8">
      <g>
       <use style="stroke:#000000;stroke-width:0.8;" x="390.071688" xlink:href="#m08471d37fe" y="307.584"/>
      </g>
     </g>
     <g id="text_8">
      <!-- 22.5 -->
      <g transform="translate(378.938876 322.182437)scale(0.1 -0.1)">
       <use xlink:href="#DejaVuSans-50"/>
       <use x="63.623047" xlink:href="#DejaVuSans-50"/>
       <use x="127.246094" xlink:href="#DejaVuSans-46"/>
       <use x="159.033203" xlink:href="#DejaVuSans-53"/>
      </g>
     </g>
    </g>
    <g id="text_9">
     <!-- temperature from OpenWeatherMap -->
     <g transform="translate(144.963906 335.860562)scale(0.1 -0.1)">
      <defs>
       <path d="M 18.3125 70.21875 
L 18.3125 54.6875 
L 36.8125 54.6875 
L 36.8125 47.703125 
L 18.3125 47.703125 
L 18.3125 18.015625 
Q 18.3125 11.328125 20.140625 9.421875 
Q 21.96875 7.515625 27.59375 7.515625 
L 36.8125 7.515625 
L 36.8125 0 
L 27.59375 0 
Q 17.1875 0 13.234375 3.875 
Q 9.28125 7.765625 9.28125 18.015625 
L 9.28125 47.703125 
L 2.6875 47.703125 
L 2.6875 54.6875 
L 9.28125 54.6875 
L 9.28125 70.21875 
z
" id="DejaVuSans-116"/>
       <path d="M 56.203125 29.59375 
L 56.203125 25.203125 
L 14.890625 25.203125 
Q 15.484375 15.921875 20.484375 11.0625 
Q 25.484375 6.203125 34.421875 6.203125 
Q 39.59375 6.203125 44.453125 7.46875 
Q 49.3125 8.734375 54.109375 11.28125 
L 54.109375 2.78125 
Q 49.265625 0.734375 44.1875 -0.34375 
Q 39.109375 -1.421875 33.890625 -1.421875 
Q 20.796875 -1.421875 13.15625 6.1875 
Q 5.515625 13.8125 5.515625 26.8125 
Q 5.515625 40.234375 12.765625 48.109375 
Q 20.015625 56 32.328125 56 
Q 43.359375 56 49.78125 48.890625 
Q 56.203125 41.796875 56.203125 29.59375 
z
M 47.21875 32.234375 
Q 47.125 39.59375 43.09375 43.984375 
Q 39.0625 48.390625 32.421875 48.390625 
Q 24.90625 48.390625 20.390625 44.140625 
Q 15.875 39.890625 15.1875 32.171875 
z
" id="DejaVuSans-101"/>
       <path d="M 52 44.1875 
Q 55.375 50.25 60.0625 53.125 
Q 64.75 56 71.09375 56 
Q 79.640625 56 84.28125 50.015625 
Q 88.921875 44.046875 88.921875 33.015625 
L 88.921875 0 
L 79.890625 0 
L 79.890625 32.71875 
Q 79.890625 40.578125 77.09375 44.375 
Q 74.3125 48.1875 68.609375 48.1875 
Q 61.625 48.1875 57.5625 43.546875 
Q 53.515625 38.921875 53.515625 30.90625 
L 53.515625 0 
L 44.484375 0 
L 44.484375 32.71875 
Q 44.484375 40.625 41.703125 44.40625 
Q 38.921875 48.1875 33.109375 48.1875 
Q 26.21875 48.1875 22.15625 43.53125 
Q 18.109375 38.875 18.109375 30.90625 
L 18.109375 0 
L 9.078125 0 
L 9.078125 54.6875 
L 18.109375 54.6875 
L 18.109375 46.1875 
Q 21.1875 51.21875 25.484375 53.609375 
Q 29.78125 56 35.6875 56 
Q 41.65625 56 45.828125 52.96875 
Q 50 49.953125 52 44.1875 
z
" id="DejaVuSans-109"/>
       <path d="M 18.109375 8.203125 
L 18.109375 -20.796875 
L 9.078125 -20.796875 
L 9.078125 54.6875 
L 18.109375 54.6875 
L 18.109375 46.390625 
Q 20.953125 51.265625 25.265625 53.625 
Q 29.59375 56 35.59375 56 
Q 45.5625 56 51.78125 48.09375 
Q 58.015625 40.1875 58.015625 27.296875 
Q 58.015625 14.40625 51.78125 6.484375 
Q 45.5625 -1.421875 35.59375 -1.421875 
Q 29.59375 -1.421875 25.265625 0.953125 
Q 20.953125 3.328125 18.109375 8.203125 
z
M 48.6875 27.296875 
Q 48.6875 37.203125 44.609375 42.84375 
Q 40.53125 48.484375 33.40625 48.484375 
Q 26.265625 48.484375 22.1875 42.84375 
Q 18.109375 37.203125 18.109375 27.296875 
Q 18.109375 17.390625 22.1875 11.75 
Q 26.265625 6.109375 33.40625 6.109375 
Q 40.53125 6.109375 44.609375 11.75 
Q 48.6875 17.390625 48.6875 27.296875 
z
" id="DejaVuSans-112"/>
       <path d="M 41.109375 46.296875 
Q 39.59375 47.171875 37.8125 47.578125 
Q 36.03125 48 33.890625 48 
Q 26.265625 48 22.1875 43.046875 
Q 18.109375 38.09375 18.109375 28.8125 
L 18.109375 0 
L 9.078125 0 
L 9.078125 54.6875 
L 18.109375 54.6875 
L 18.109375 46.1875 
Q 20.953125 51.171875 25.484375 53.578125 
Q 30.03125 56 36.53125 56 
Q 37.453125 56 38.578125 55.875 
Q 39.703125 55.765625 41.0625 55.515625 
z
" id="DejaVuSans-114"/>
       <path d="M 34.28125 27.484375 
Q 23.390625 27.484375 19.1875 25 
Q 14.984375 22.515625 14.984375 16.5 
Q 14.984375 11.71875 18.140625 8.90625 
Q 21.296875 6.109375 26.703125 6.109375 
Q 34.1875 6.109375 38.703125 11.40625 
Q 43.21875 16.703125 43.21875 25.484375 
L 43.21875 27.484375 
z
M 52.203125 31.203125 
L 52.203125 0 
L 43.21875 0 
L 43.21875 8.296875 
Q 40.140625 3.328125 35.546875 0.953125 
Q 30.953125 -1.421875 24.3125 -1.421875 
Q 15.921875 -1.421875 10.953125 3.296875 
Q 6 8.015625 6 15.921875 
Q 6 25.140625 12.171875 29.828125 
Q 18.359375 34.515625 30.609375 34.515625 
L 43.21875 34.515625 
L 43.21875 35.40625 
Q 43.21875 41.609375 39.140625 45 
Q 35.0625 48.390625 27.6875 48.390625 
Q 23 48.390625 18.546875 47.265625 
Q 14.109375 46.140625 10.015625 43.890625 
L 10.015625 52.203125 
Q 14.9375 54.109375 19.578125 55.046875 
Q 24.21875 56 28.609375 56 
Q 40.484375 56 46.34375 49.84375 
Q 52.203125 43.703125 52.203125 31.203125 
z
" id="DejaVuSans-97"/>
       <path d="M 8.5 21.578125 
L 8.5 54.6875 
L 17.484375 54.6875 
L 17.484375 21.921875 
Q 17.484375 14.15625 20.5 10.265625 
Q 23.53125 6.390625 29.59375 6.390625 
Q 36.859375 6.390625 41.078125 11.03125 
Q 45.3125 15.671875 45.3125 23.6875 
L 45.3125 54.6875 
L 54.296875 54.6875 
L 54.296875 0 
L 45.3125 0 
L 45.3125 8.40625 
Q 42.046875 3.421875 37.71875 1 
Q 33.40625 -1.421875 27.6875 -1.421875 
Q 18.265625 -1.421875 13.375 4.4375 
Q 8.5 10.296875 8.5 21.578125 
z
M 31.109375 56 
z
" id="DejaVuSans-117"/>
       <path id="DejaVuSans-32"/>
       <path d="M 37.109375 75.984375 
L 37.109375 68.5 
L 28.515625 68.5 
Q 23.6875 68.5 21.796875 66.546875 
Q 19.921875 64.59375 19.921875 59.515625 
L 19.921875 54.6875 
L 34.71875 54.6875 
L 34.71875 47.703125 
L 19.921875 47.703125 
L 19.921875 0 
L 10.890625 0 
L 10.890625 47.703125 
L 2.296875 47.703125 
L 2.296875 54.6875 
L 10.890625 54.6875 
L 10.890625 58.5 
Q 10.890625 67.625 15.140625 71.796875 
Q 19.390625 75.984375 28.609375 75.984375 
z
" id="DejaVuSans-102"/>
       <path d="M 30.609375 48.390625 
Q 23.390625 48.390625 19.1875 42.75 
Q 14.984375 37.109375 14.984375 27.296875 
Q 14.984375 17.484375 19.15625 11.84375 
Q 23.34375 6.203125 30.609375 6.203125 
Q 37.796875 6.203125 41.984375 11.859375 
Q 46.1875 17.53125 46.1875 27.296875 
Q 46.1875 37.015625 41.984375 42.703125 
Q 37.796875 48.390625 30.609375 48.390625 
z
M 30.609375 56 
Q 42.328125 56 49.015625 48.375 
Q 55.71875 40.765625 55.71875 27.296875 
Q 55.71875 13.875 49.015625 6.21875 
Q 42.328125 -1.421875 30.609375 -1.421875 
Q 18.84375 -1.421875 12.171875 6.21875 
Q 5.515625 13.875 5.515625 27.296875 
Q 5.515625 40.765625 12.171875 48.375 
Q 18.84375 56 30.609375 56 
z
" id="DejaVuSans-111"/>
       <path d="M 39.40625 66.21875 
Q 28.65625 66.21875 22.328125 58.203125 
Q 16.015625 50.203125 16.015625 36.375 
Q 16.015625 22.609375 22.328125 14.59375 
Q 28.65625 6.59375 39.40625 6.59375 
Q 50.140625 6.59375 56.421875 14.59375 
Q 62.703125 22.609375 62.703125 36.375 
Q 62.703125 50.203125 56.421875 58.203125 
Q 50.140625 66.21875 39.40625 66.21875 
z
M 39.40625 74.21875 
Q 54.734375 74.21875 63.90625 63.9375 
Q 73.09375 53.65625 73.09375 36.375 
Q 73.09375 19.140625 63.90625 8.859375 
Q 54.734375 -1.421875 39.40625 -1.421875 
Q 24.03125 -1.421875 14.8125 8.828125 
Q 5.609375 19.09375 5.609375 36.375 
Q 5.609375 53.65625 14.8125 63.9375 
Q 24.03125 74.21875 39.40625 74.21875 
z
" id="DejaVuSans-79"/>
       <path d="M 54.890625 33.015625 
L 54.890625 0 
L 45.90625 0 
L 45.90625 32.71875 
Q 45.90625 40.484375 42.875 44.328125 
Q 39.84375 48.1875 33.796875 48.1875 
Q 26.515625 48.1875 22.3125 43.546875 
Q 18.109375 38.921875 18.109375 30.90625 
L 18.109375 0 
L 9.078125 0 
L 9.078125 54.6875 
L 18.109375 54.6875 
L 18.109375 46.1875 
Q 21.34375 51.125 25.703125 53.5625 
Q 30.078125 56 35.796875 56 
Q 45.21875 56 50.046875 50.171875 
Q 54.890625 44.34375 54.890625 33.015625 
z
" id="DejaVuSans-110"/>
       <path d="M 3.328125 72.90625 
L 13.28125 72.90625 
L 28.609375 11.28125 
L 43.890625 72.90625 
L 54.984375 72.90625 
L 70.3125 11.28125 
L 85.59375 72.90625 
L 95.609375 72.90625 
L 77.296875 0 
L 64.890625 0 
L 49.515625 63.28125 
L 33.984375 0 
L 21.578125 0 
z
" id="DejaVuSans-87"/>
       <path d="M 54.890625 33.015625 
L 54.890625 0 
L 45.90625 0 
L 45.90625 32.71875 
Q 45.90625 40.484375 42.875 44.328125 
Q 39.84375 48.1875 33.796875 48.1875 
Q 26.515625 48.1875 22.3125 43.546875 
Q 18.109375 38.921875 18.109375 30.90625 
L 18.109375 0 
L 9.078125 0 
L 9.078125 75.984375 
L 18.109375 75.984375 
L 18.109375 46.1875 
Q 21.34375 51.125 25.703125 53.5625 
Q 30.078125 56 35.796875 56 
Q 45.21875 56 50.046875 50.171875 
Q 54.890625 44.34375 54.890625 33.015625 
z
" id="DejaVuSans-104"/>
       <path d="M 9.8125 72.90625 
L 24.515625 72.90625 
L 43.109375 23.296875 
L 61.8125 72.90625 
L 76.515625 72.90625 
L 76.515625 0 
L 66.890625 0 
L 66.890625 64.015625 
L 48.09375 14.015625 
L 38.1875 14.015625 
L 19.390625 64.015625 
L 19.390625 0 
L 9.8125 0 
z
" id="DejaVuSans-77"/>
      </defs>
      <use xlink:href="#DejaVuSans-116"/>
      <use x="39.208984" xlink:href="#DejaVuSans-101"/>
      <use x="100.732422" xlink:href="#DejaVuSans-109"/>
      <use x="198.144531" xlink:href="#DejaVuSans-112"/>
      <use x="261.621094" xlink:href="#DejaVuSans-101"/>
      <use x="323.144531" xlink:href="#DejaVuSans-114"/>
      <use x="364.257812" xlink:href="#DejaVuSans-97"/>
      <use x="425.537109" xlink:href="#DejaVuSans-116"/>
      <use x="464.746094" xlink:href="#DejaVuSans-117"/>
      <use x="528.125" xlink:href="#DejaVuSans-114"/>
      <use x="566.988281" xlink:href="#DejaVuSans-101"/>
      <use x="628.511719" xlink:href="#DejaVuSans-32"/>
      <use x="660.298828" xlink:href="#DejaVuSans-102"/>
      <use x="695.503906" xlink:href="#DejaVuSans-114"/>
      <use x="734.367188" xlink:href="#DejaVuSans-111"/>
      <use x="795.548828" xlink:href="#DejaVuSans-109"/>
      <use x="892.960938" xlink:href="#DejaVuSans-32"/>
      <use x="924.748047" xlink:href="#DejaVuSans-79"/>
      <use x="1003.458984" xlink:href="#DejaVuSans-112"/>
      <use x="1066.935547" xlink:href="#DejaVuSans-101"/>
      <use x="1128.458984" xlink:href="#DejaVuSans-110"/>
      <use x="1191.837891" xlink:href="#DejaVuSans-87"/>
      <use x="1284.839844" xlink:href="#DejaVuSans-101"/>
      <use x="1346.363281" xlink:href="#DejaVuSans-97"/>
      <use x="1407.642578" xlink:href="#DejaVuSans-116"/>
      <use x="1446.851562" xlink:href="#DejaVuSans-104"/>
      <use x="1510.230469" xlink:href="#DejaVuSans-101"/>
      <use x="1571.753906" xlink:href="#DejaVuSans-114"/>
      <use x="1612.867188" xlink:href="#DejaVuSans-77"/>
      <use x="1699.146484" xlink:href="#DejaVuSans-97"/>
      <use x="1760.425781" xlink:href="#DejaVuSans-112"/>
     </g>
    </g>
   </g>
   <g id="matplotlib.axis_2">
    <g id="ytick_1">
     <g id="line2d_9">
      <defs>
       <path d="M 0 0 
L -3.5 0 
" id="m82bc0596ff" style="stroke:#000000;stroke-width:0.8;"/>
      </defs>
      <g>
       <use style="stroke:#000000;stroke-width:0.8;" x="57.6" xlink:href="#m82bc0596ff" y="275.969756"/>
      </g>
     </g>
     <g id="text_10">
      <!-- 3.75 -->
      <g transform="translate(28.334375 279.768975)scale(0.1 -0.1)">
       <defs>
        <path d="M 40.578125 39.3125 
Q 47.65625 37.796875 51.625 33 
Q 55.609375 28.21875 55.609375 21.1875 
Q 55.609375 10.40625 48.1875 4.484375 
Q 40.765625 -1.421875 27.09375 -1.421875 
Q 22.515625 -1.421875 17.65625 -0.515625 
Q 12.796875 0.390625 7.625 2.203125 
L 7.625 11.71875 
Q 11.71875 9.328125 16.59375 8.109375 
Q 21.484375 6.890625 26.8125 6.890625 
Q 36.078125 6.890625 40.9375 10.546875 
Q 45.796875 14.203125 45.796875 21.1875 
Q 45.796875 27.640625 41.28125 31.265625 
Q 36.765625 34.90625 28.71875 34.90625 
L 20.21875 34.90625 
L 20.21875 43.015625 
L 29.109375 43.015625 
Q 36.375 43.015625 40.234375 45.921875 
Q 44.09375 48.828125 44.09375 54.296875 
Q 44.09375 59.90625 40.109375 62.90625 
Q 36.140625 65.921875 28.71875 65.921875 
Q 24.65625 65.921875 20.015625 65.03125 
Q 15.375 64.15625 9.8125 62.3125 
L 9.8125 71.09375 
Q 15.4375 72.65625 20.34375 73.4375 
Q 25.25 74.21875 29.59375 74.21875 
Q 40.828125 74.21875 47.359375 69.109375 
Q 53.90625 64.015625 53.90625 55.328125 
Q 53.90625 49.265625 50.4375 45.09375 
Q 46.96875 40.921875 40.578125 39.3125 
z
" id="DejaVuSans-51"/>
       </defs>
       <use xlink:href="#DejaVuSans-51"/>
       <use x="63.623047" xlink:href="#DejaVuSans-46"/>
       <use x="95.410156" xlink:href="#DejaVuSans-55"/>
       <use x="159.033203" xlink:href="#DejaVuSans-53"/>
      </g>
     </g>
    </g>
    <g id="ytick_2">
     <g id="line2d_10">
      <g>
       <use style="stroke:#000000;stroke-width:0.8;" x="57.6" xlink:href="#m82bc0596ff" y="242.775464"/>
      </g>
     </g>
     <g id="text_11">
      <!-- 4.00 -->
      <g transform="translate(28.334375 246.574683)scale(0.1 -0.1)">
       <defs>
        <path d="M 37.796875 64.3125 
L 12.890625 25.390625 
L 37.796875 25.390625 
z
M 35.203125 72.90625 
L 47.609375 72.90625 
L 47.609375 25.390625 
L 58.015625 25.390625 
L 58.015625 17.1875 
L 47.609375 17.1875 
L 47.609375 0 
L 37.796875 0 
L 37.796875 17.1875 
L 4.890625 17.1875 
L 4.890625 26.703125 
z
" id="DejaVuSans-52"/>
       </defs>
       <use xlink:href="#DejaVuSans-52"/>
       <use x="63.623047" xlink:href="#DejaVuSans-46"/>
       <use x="95.410156" xlink:href="#DejaVuSans-48"/>
       <use x="159.033203" xlink:href="#DejaVuSans-48"/>
      </g>
     </g>
    </g>
    <g id="ytick_3">
     <g id="line2d_11">
      <g>
       <use style="stroke:#000000;stroke-width:0.8;" x="57.6" xlink:href="#m82bc0596ff" y="209.581172"/>
      </g>
     </g>
     <g id="text_12">
      <!-- 4.25 -->
      <g transform="translate(28.334375 213.380391)scale(0.1 -0.1)">
       <use xlink:href="#DejaVuSans-52"/>
       <use x="63.623047" xlink:href="#DejaVuSans-46"/>
       <use x="95.410156" xlink:href="#DejaVuSans-50"/>
       <use x="159.033203" xlink:href="#DejaVuSans-53"/>
      </g>
     </g>
    </g>
    <g id="ytick_4">
     <g id="line2d_12">
      <g>
       <use style="stroke:#000000;stroke-width:0.8;" x="57.6" xlink:href="#m82bc0596ff" y="176.38688"/>
      </g>
     </g>
     <g id="text_13">
      <!-- 4.50 -->
      <g transform="translate(28.334375 180.186099)scale(0.1 -0.1)">
       <use xlink:href="#DejaVuSans-52"/>
       <use x="63.623047" xlink:href="#DejaVuSans-46"/>
       <use x="95.410156" xlink:href="#DejaVuSans-53"/>
       <use x="159.033203" xlink:href="#DejaVuSans-48"/>
      </g>
     </g>
    </g>
    <g id="ytick_5">
     <g id="line2d_13">
      <g>
       <use style="stroke:#000000;stroke-width:0.8;" x="57.6" xlink:href="#m82bc0596ff" y="143.192588"/>
      </g>
     </g>
     <g id="text_14">
      <!-- 4.75 -->
      <g transform="translate(28.334375 146.991807)scale(0.1 -0.1)">
       <use xlink:href="#DejaVuSans-52"/>
       <use x="63.623047" xlink:href="#DejaVuSans-46"/>
       <use x="95.410156" xlink:href="#DejaVuSans-55"/>
       <use x="159.033203" xlink:href="#DejaVuSans-53"/>
      </g>
     </g>
    </g>
    <g id="ytick_6">
     <g id="line2d_14">
      <g>
       <use style="stroke:#000000;stroke-width:0.8;" x="57.6" xlink:href="#m82bc0596ff" y="109.998296"/>
      </g>
     </g>
     <g id="text_15">
      <!-- 5.00 -->
      <g transform="translate(28.334375 113.797515)scale(0.1 -0.1)">
       <use xlink:href="#DejaVuSans-53"/>
       <use x="63.623047" xlink:href="#DejaVuSans-46"/>
       <use x="95.410156" xlink:href="#DejaVuSans-48"/>
       <use x="159.033203" xlink:href="#DejaVuSans-48"/>
      </g>
     </g>
    </g>
    <g id="ytick_7">
     <g id="line2d_15">
      <g>
       <use style="stroke:#000000;stroke-width:0.8;" x="57.6" xlink:href="#m82bc0596ff" y="76.804004"/>
      </g>
     </g>
     <g id="text_16">
      <!-- 5.25 -->
      <g transform="translate(28.334375 80.603223)scale(0.1 -0.1)">
       <use xlink:href="#DejaVuSans-53"/>
       <use x="63.623047" xlink:href="#DejaVuSans-46"/>
       <use x="95.410156" xlink:href="#DejaVuSans-50"/>
       <use x="159.033203" xlink:href="#DejaVuSans-53"/>
      </g>
     </g>
    </g>
    <g id="ytick_8">
     <g id="line2d_16">
      <g>
       <use style="stroke:#000000;stroke-width:0.8;" x="57.6" xlink:href="#m82bc0596ff" y="43.609712"/>
      </g>
     </g>
     <g id="text_17">
      <!-- 5.50 -->
      <g transform="translate(28.334375 47.408931)scale(0.1 -0.1)">
       <use xlink:href="#DejaVuSans-53"/>
       <use x="63.623047" xlink:href="#DejaVuSans-46"/>
       <use x="95.410156" xlink:href="#DejaVuSans-53"/>
       <use x="159.033203" xlink:href="#DejaVuSans-48"/>
      </g>
     </g>
    </g>
   </g>
   <g id="line2d_17">
    <path clip-path="url(#pd1f0b85669)" d="M 73.832727 175.523829 
L 77.572987 154.567166 
L 80.191169 208.120623 
L 80.565195 207.500997 
L 81.874286 165.233598 
L 82.061299 177.913818 
L 84.305455 119.69103 
L 88.045714 164.481194 
L 89.728831 196.214937 
L 89.915844 202.411205 
L 90.663896 206.195355 
L 90.850909 189.664597 
L 92.908052 149.167561 
L 93.656104 190.549778 
L 95.713247 206.571557 
L 95.90026 131.906529 
L 97.209351 148.238121 
L 97.583377 177.891688 
L 100.014545 160.055289 
L 101.884675 195.108461 
L 102.071688 190.859592 
L 102.445714 200.552325 
L 103.193766 172.492083 
L 103.380779 173.333005 
L 103.941818 189.487561 
L 104.128831 199.702551 
L 104.68987 198.162336 
L 105.063896 191.213664 
L 105.437922 212.236716 
L 105.811948 183.069998 
L 106.747013 137.350393 
L 106.934026 219.716496 
L 107.121039 181.897133 
L 107.308052 180.131196 
L 107.495065 190.239965 
L 107.869091 100.305563 
L 108.617143 137.173357 
L 108.804156 168.154696 
L 109.365195 186.728746 
L 110.487273 150.495333 
L 111.048312 174.55013 
L 111.609351 189.620338 
L 111.796364 132.526156 
L 112.17039 181.963521 
L 112.357403 174.182779 
L 112.731429 169.00447 
L 113.105455 165.986002 
L 113.292468 157.532523 
L 113.666494 167.1987 
L 114.414545 162.82148 
L 114.975584 163.950086 
L 115.34961 187.938494 
L 115.536623 142.462314 
L 115.910649 173.731337 
L 116.097662 120.045102 
L 116.471688 196.657528 
L 117.967792 110.131074 
L 118.341818 177.183543 
L 119.08987 169.039877 
L 121.521039 238.792149 
L 121.708052 173.292151 
L 122.082078 144.631008 
L 122.269091 136.996321 
L 122.643117 67.952193 
L 123.017143 117.920667 
L 123.952208 110.817089 
L 124.139221 195.15272 
L 124.70026 108.006639 
L 124.887273 147.441458 
L 125.448312 161.84778 
L 125.635325 198.560667 
L 125.822338 112.963653 
L 126.009351 169.216913 
L 126.383377 173.642819 
L 126.57039 189.432237 
L 126.757403 157.001414 
L 126.944416 186.477945 
L 127.131429 177.392193 
L 127.505455 149.964224 
L 127.879481 197.055859 
L 128.253506 191.434959 
L 128.440519 147.272469 
L 128.627532 172.801897 
L 129.188571 186.345168 
L 129.562597 151.159218 
L 129.74961 179.971864 
L 130.310649 154.85485 
L 130.497662 179.971864 
L 130.871688 167.889142 
L 131.058701 168.176825 
L 131.806753 144.343324 
L 131.993766 147.043126 
L 132.180779 169.449273 
L 132.367792 151.0707 
L 132.554805 188.336825 
L 132.741818 164.791008 
L 133.302857 184.796101 
L 133.48987 173.333005 
L 133.676883 136.819284 
L 133.863896 177.847429 
L 134.237922 207.722292 
L 134.611948 173.067451 
L 135.36 84.106749 
L 135.547013 179.507144 
L 135.734026 176.165585 
L 135.921039 149.167561 
L 137.604156 179.175201 
L 137.791169 198.162336 
L 138.352208 94.905958 
L 138.913247 170.843434 
L 139.287273 160.619592 
L 139.661299 158.096825 
L 139.848312 180.370195 
L 140.97039 172.447824 
L 141.905455 177.006507 
L 142.653506 141.023895 
L 142.840519 193.116804 
L 144.523636 169.644751 
L 144.710649 131.109866 
L 145.458701 97.517243 
L 145.645714 189.332654 
L 146.01974 173.775596 
L 146.206753 155.142533 
L 146.393766 165.941743 
L 146.580779 103.757769 
L 147.515844 193.116804 
L 147.88987 181.609449 
L 149.76 179.086683 
L 150.882078 187.578099 
L 151.256104 159.833993 
L 151.443117 206.128966 
L 151.63013 160.94047 
L 152.004156 110.573664 
L 152.191169 214.892259 
L 152.565195 186.101743 
L 152.939221 191.324312 
L 153.126234 175.767254 
L 153.50026 157.222709 
L 153.874286 221.221304 
L 154.061299 179.70631 
L 154.248312 174.050002 
L 154.435325 173.147117 
L 154.622338 53.568 
L 154.809351 172.226529 
L 154.996364 135.491513 
L 155.37039 182.388408 
L 155.557403 146.157945 
L 155.744416 163.733216 
L 156.118442 173.465783 
L 156.492468 172.846156 
L 156.679481 183.689625 
L 156.866494 182.64216 
L 157.240519 172.619328 
L 157.427532 175.419504 
L 157.614545 182.848703 
L 157.801558 163.507495 
L 157.988571 191.868698 
L 158.362597 155.559833 
L 158.54961 195.462533 
L 158.736623 186.367297 
L 159.297662 197.277155 
L 160.232727 182.574296 
L 160.41974 188.690898 
L 160.793766 137.704465 
L 160.980779 158.830788 
L 161.541818 185.249756 
L 161.728831 224.850547 
L 161.915844 187.18609 
L 162.102857 215.556145 
L 162.663896 172.757638 
L 163.037922 186.964795 
L 163.411948 137.516364 
L 163.598961 181.742226 
L 163.785974 144.431842 
L 163.972987 155.452347 
L 164.16 177.26321 
L 164.534026 194.931425 
L 165.282078 183.866661 
L 165.469091 184.951008 
L 165.656104 142.794257 
L 165.843117 167.579328 
L 166.03013 150.805146 
L 166.217143 153.88115 
L 166.404156 139.297791 
L 166.778182 99.774454 
L 166.965195 160.099548 
L 167.152208 183.663069 
L 167.339221 158.506222 
L 167.526234 163.300031 
L 167.713247 185.533752 
L 167.90026 169.382885 
L 168.461299 219.273906 
L 168.648312 164.813137 
L 169.022338 169.267981 
L 169.209351 164.503324 
L 169.396364 171.872457 
L 169.583377 174.583324 
L 169.77039 185.249756 
L 169.957403 179.130942 
L 170.331429 162.79935 
L 170.518442 185.760948 
L 170.705455 132.415508 
L 170.892468 207.766551 
L 171.079481 156.470305 
L 171.266494 184.317298 
L 171.453506 153.41643 
L 171.640519 172.115881 
L 171.827532 170.087341 
L 172.014545 210.333576 
L 172.388571 158.604953 
L 172.94961 203.473423 
L 173.510649 149.831447 
L 173.697662 185.282951 
L 173.884675 182.49463 
L 174.258701 125.931557 
L 174.445714 185.415728 
L 174.81974 146.777572 
L 175.006753 186.920536 
L 175.567792 151.955881 
L 175.941818 172.66912 
L 176.128831 173.436277 
L 176.315844 189.930151 
L 176.68987 172.868285 
L 176.876883 180.178406 
L 177.063896 164.93485 
L 177.250909 199.729106 
L 177.437922 190.195706 
L 177.624935 140.470656 
L 177.811948 150.794081 
L 178.185974 186.079614 
L 178.56 122.877682 
L 178.747013 204.690547 
L 179.121039 179.529273 
L 179.308052 197.874652 
L 179.495065 188.978582 
L 179.682078 154.744202 
L 179.869091 176.298362 
L 180.056104 146.135816 
L 180.243117 180.399701 
L 180.43013 146.069427 
L 180.804156 165.215895 
L 180.991169 168.234362 
L 181.178182 182.428241 
L 181.365195 154.63798 
L 181.552208 165.027056 
L 181.739221 128.852654 
L 182.30026 196.480492 
L 182.487273 193.028285 
L 182.861299 154.279482 
L 183.048312 178.876452 
L 183.235325 149.23395 
L 183.609351 177.382709 
L 183.983377 152.411117 
L 184.17039 167.933401 
L 184.357403 161.589603 
L 184.544416 198.604926 
L 184.731429 129.472281 
L 185.105455 155.408088 
L 185.292468 179.07193 
L 185.479481 161.38306 
L 185.666494 169.681633 
L 185.853506 145.93665 
L 186.040519 176.87373 
L 186.227532 175.059109 
L 186.414545 178.776869 
L 186.601558 170.824992 
L 186.975584 183.313423 
L 187.34961 170.611074 
L 187.536623 160.143807 
L 187.723636 132.526156 
L 187.910649 169.916206 
L 188.097662 171.844004 
L 188.284675 187.075442 
L 188.471688 161.220777 
L 188.658701 160.232325 
L 188.845714 165.897484 
L 189.032727 154.810591 
L 189.21974 178.909647 
L 189.406753 149.012654 
L 189.593766 185.637023 
L 189.780779 161.737133 
L 189.967792 211.926902 
L 190.154805 160.520009 
L 190.341818 185.017396 
L 190.528831 151.823104 
L 190.715844 203.6062 
L 190.902857 167.95553 
L 191.08987 184.769546 
L 191.276883 151.09283 
L 191.650909 186.566463 
L 191.837922 171.606902 
L 192.024935 175.966419 
L 192.398961 142.263148 
L 192.772987 180.370195 
L 192.96 186.231359 
L 193.147013 168.774323 
L 193.334026 163.042775 
L 193.521039 181.063587 
L 193.895065 172.294929 
L 194.082078 177.75733 
L 194.456104 164.082863 
L 194.643117 177.704438 
L 194.83013 149.322468 
L 195.204156 151.106108 
L 195.391169 162.902621 
L 195.578182 103.647122 
L 195.765195 178.179372 
L 196.139221 193.780689 
L 196.326234 194.444575 
L 196.513247 175.950613 
L 196.70026 173.59856 
L 196.887273 167.579328 
L 197.074286 149.822595 
L 197.261299 182.772255 
L 197.635325 161.648615 
L 198.009351 184.043697 
L 198.196364 160.652786 
L 198.57039 144.977704 
L 198.757403 166.708124 
L 198.944416 164.259899 
L 199.131429 159.833993 
L 199.505455 194.477769 
L 200.066494 163.596013 
L 200.253506 133.665827 
L 200.440519 162.290371 
L 200.814545 182.450371 
L 201.001558 118.872237 
L 201.188571 184.368263 
L 201.375584 171.739679 
L 201.562597 168.154696 
L 201.74961 169.438209 
L 201.936623 168.316979 
L 202.123636 61.401853 
L 202.310649 183.025739 
L 202.497662 186.663833 
L 202.684675 201.348988 
L 202.871688 182.715925 
L 203.245714 178.558735 
L 203.432727 124.515267 
L 203.61974 166.140909 
L 203.806753 151.55755 
L 204.741818 187.55676 
L 204.928831 153.372171 
L 205.302857 193.470876 
L 205.48987 146.689054 
L 205.863896 164.70249 
L 206.050909 160.586397 
L 206.237922 159.833993 
L 206.424935 97.65002 
L 206.611948 195.019943 
L 206.798961 158.424026 
L 206.985974 147.087385 
L 207.172987 182.793379 
L 207.36 180.525102 
L 207.734026 170.751227 
L 208.108052 164.348417 
L 208.295065 177.935947 
L 208.482078 143.790086 
L 208.669091 164.263304 
L 208.856104 160.121677 
L 209.23013 170.279131 
L 209.417143 128.764136 
L 209.791169 179.374367 
L 210.726234 157.864465 
L 210.913247 163.950086 
L 211.287273 168.862841 
L 211.474286 200.109734 
L 211.661299 165.764707 
L 212.035325 158.172267 
L 212.222338 190.594037 
L 212.409351 152.811557 
L 212.97039 130.822182 
L 213.157403 197.321414 
L 213.531429 146.140241 
L 213.718442 167.517366 
L 213.905455 161.471578 
L 214.092468 194.754389 
L 214.279481 158.993071 
L 214.466494 169.570986 
L 214.653506 148.105344 
L 214.840519 161.730324 
L 215.401558 173.040896 
L 215.962597 158.329186 
L 216.14961 177.515486 
L 216.710649 170.445102 
L 217.084675 139.474828 
L 217.645714 174.04115 
L 218.01974 147.946011 
L 218.206753 172.575395 
L 218.393766 170.199464 
L 218.580779 161.436171 
L 218.767792 186.20032 
L 218.954805 156.337528 
L 219.141818 157.881063 
L 219.328831 170.898757 
L 219.515844 200.906397 
L 219.702857 149.831447 
L 219.88987 185.991095 
L 220.076883 189.310525 
L 220.263896 141.555003 
L 220.450909 191.479218 
L 220.824935 174.926332 
L 221.011948 151.911622 
L 221.198961 180.502973 
L 221.385974 174.859943 
L 221.76 172.787144 
L 221.947013 188.735157 
L 222.134026 147.79553 
L 222.321039 170.528088 
L 222.508052 209.979504 
L 222.695065 163.817308 
L 222.882078 164.186134 
L 223.069091 167.999789 
L 223.256104 167.247385 
L 223.443117 171.651161 
L 223.63013 166.331223 
L 223.817143 166.435969 
L 224.004156 146.512018 
L 224.378182 168.254279 
L 224.565195 168.718999 
L 224.752208 177.36058 
L 225.313247 109.555706 
L 225.50026 161.670744 
L 225.687273 143.059811 
L 225.874286 177.864026 
L 226.435325 185.814059 
L 226.622338 172.858801 
L 226.809351 143.236847 
L 226.996364 172.403565 
L 227.183377 151.230714 
L 227.744416 148.238121 
L 227.931429 134.562072 
L 228.305455 183.009142 
L 228.866494 161.604356 
L 229.053506 175.059109 
L 229.240519 197.786134 
L 229.427532 154.080316 
L 229.614545 173.996891 
L 229.801558 165.499153 
L 229.988571 206.571557 
L 230.175584 177.316321 
L 230.736623 126.462665 
L 230.923636 196.117568 
L 231.484675 207.943587 
L 231.858701 121.284356 
L 232.045714 185.814059 
L 232.232727 183.822402 
L 232.793766 163.002942 
L 233.167792 183.955179 
L 233.354805 139.965082 
L 234.102857 144.03351 
L 234.28987 205.996189 
L 234.663896 141.377967 
L 235.224935 180.038252 
L 235.598961 180.237418 
L 235.785974 174.23294 
L 235.972987 206.748593 
L 237.282078 144.564619 
L 237.469091 148.769229 
L 237.656104 158.10789 
L 238.03013 191.700514 
L 238.217143 157.311227 
L 238.778182 169.216913 
L 239.152208 149.610151 
L 239.339221 170.727254 
L 239.526234 177.581875 
L 239.713247 193.028285 
L 241.022338 149.433115 
L 241.396364 169.681633 
L 241.583377 169.482468 
L 242.331429 138.257704 
L 242.518442 198.693445 
L 242.705455 142.484443 
L 242.892468 188.381085 
L 243.079481 175.258274 
L 243.266494 179.015868 
L 244.014545 149.18969 
L 244.388571 162.578055 
L 244.575584 159.391403 
L 244.762597 183.689625 
L 245.136623 150.611513 
L 245.510649 182.98148 
L 246.445714 149.300338 
L 246.632727 181.963521 
L 247.006753 171.031535 
L 247.193766 172.868285 
L 247.567792 194.842907 
L 247.754805 158.860294 
L 248.502857 150.39575 
L 248.68987 176.143456 
L 248.876883 181.919262 
L 249.063896 178.947583 
L 249.437922 121.667934 
L 249.624935 118.124259 
L 249.811948 200.77362 
L 250.185974 98.313906 
L 250.372987 156.354125 
L 251.121039 179.573532 
L 251.308052 173.996891 
L 251.682078 172.270788 
L 251.869091 177.090599 
L 252.056104 195.440404 
L 252.43013 162.909998 
L 252.617143 159.178959 
L 252.804156 170.898757 
L 252.991169 167.739767 
L 253.178182 148.680711 
L 253.552208 162.206279 
L 253.739221 184.751842 
L 253.926234 164.259899 
L 254.113247 163.861568 
L 254.30026 155.262033 
L 254.674286 208.563214 
L 254.861299 186.389427 
L 255.609351 185.725541 
L 255.983377 178.467056 
L 256.17039 163.817308 
L 256.918442 119.491864 
L 257.105455 170.987276 
L 258.040519 172.801897 
L 258.227532 170.845647 
L 258.601558 129.98126 
L 258.788571 219.141128 
L 258.975584 162.445278 
L 259.34961 136.907802 
L 259.536623 177.006507 
L 259.723636 159.178959 
L 260.284675 197.055859 
L 260.471688 175.1089 
L 260.658701 130.392869 
L 261.21974 193.515135 
L 261.406753 182.49463 
L 262.715844 210.422094 
L 262.902857 138.987978 
L 263.463896 181.697967 
L 264.024935 196.259196 
L 264.211948 143.10407 
L 264.772987 185.194432 
L 265.521039 181.963521 
L 265.895065 70.165146 
L 266.082078 148.857748 
L 266.269091 169.160009 
L 266.456104 143.148329 
L 266.643117 158.329186 
L 267.017143 141.864817 
L 267.204156 127.949769 
L 267.765195 164.636101 
L 268.326234 148.990525 
L 268.513247 205.819153 
L 268.70026 182.05204 
L 269.074286 166.09665 
L 269.261299 191.302182 
L 269.448312 180.527114 
L 269.635325 106.579284 
L 270.009351 160.121677 
L 270.196364 147.884048 
L 270.944416 174.99272 
L 271.131429 149.224465 
L 271.318442 169.261172 
L 271.505455 169.956672 
L 271.692468 150.941947 
L 271.879481 148.149603 
L 272.066494 165.897484 
L 272.253506 134.030964 
L 272.440519 173.687078 
L 272.627532 154.655684 
L 272.814545 156.123042 
L 273.001558 110.617923 
L 273.188571 167.49081 
L 273.375584 126.3889 
L 273.562597 150.62811 
L 273.74961 134.938274 
L 273.936623 134.668294 
L 274.497662 185.482116 
L 275.058701 133.411337 
L 275.432727 129.350569 
L 275.61974 112.175842 
L 276.180779 195.905124 
L 276.367792 186.371723 
L 277.48987 151.203477 
L 277.676883 193.470876 
L 278.050909 204.978231 
L 278.424935 179.396496 
L 278.985974 153.655429 
L 279.172987 176.353686 
L 279.547013 179.440755 
L 279.921039 134.296518 
L 280.295065 217.813357 
L 280.669091 164.613971 
L 280.856104 163.852716 
L 282.352208 162.046946 
L 282.726234 184.35351 
L 283.661299 116.415859 
L 284.596364 181.786485 
L 285.157403 94.684663 
L 285.344416 158.528351 
L 285.531429 141.997594 
L 285.905455 151.358384 
L 286.092468 165.764707 
L 286.840519 193.780689 
L 287.027532 158.993071 
L 287.214545 160.099548 
L 287.401558 155.054015 
L 287.775584 165.322116 
L 288.710649 158.816035 
L 289.084675 142.484443 
L 289.832727 178.157243 
L 290.01974 211.705607 
L 290.206753 176.563917 
L 290.580779 171.075794 
L 291.328831 146.489888 
L 291.702857 201.70306 
L 292.263896 155.629383 
L 292.450909 179.307978 
L 292.637922 187.739328 
L 293.011948 193.515135 
L 293.572987 138.943719 
L 294.134026 181.277506 
L 294.321039 143.922863 
L 294.695065 175.94429 
L 295.069091 161.781392 
L 295.256104 69.235706 
L 295.817143 175.147627 
L 296.004156 158.417704 
L 296.565195 120.487693 
L 297.50026 171.518384 
L 297.874286 156.6916 
L 298.248312 168.464509 
L 298.435325 167.933401 
L 299.183377 200.242512 
L 299.37039 193.426617 
L 299.744416 172.115881 
L 299.931429 171.651161 
L 300.118442 166.583499 
L 300.305455 205.996189 
L 300.866494 191.257923 
L 301.053506 204.314345 
L 301.614545 167.402292 
L 302.175584 184.84036 
L 302.362597 165.598735 
L 302.54961 175.767254 
L 302.736623 201.658801 
L 302.923636 180.768527 
L 303.110649 146.445629 
L 303.297662 135.447254 
L 304.045714 179.573532 
L 304.232727 153.283653 
L 304.41974 155.585124 
L 304.606753 236.269383 
L 304.980779 169.770151 
L 306.28987 140.802599 
L 306.663896 189.222007 
L 307.037922 139.032237 
L 307.411948 187.761458 
L 307.785974 156.558823 
L 308.16 169.913993 
L 309.282078 150.030613 
L 310.03013 202.278428 
L 310.217143 164.304158 
L 310.404156 173.775596 
L 310.591169 194.798648 
L 310.778182 184.530547 
L 311.526234 165.624941 
L 311.90026 187.009054 
L 312.461299 200.950656 
L 313.583377 186.477945 
L 313.957403 172.801897 
L 314.144416 295.488 
L 314.518442 177.449098 
L 314.705455 201.924356 
L 315.079481 163.905827 
L 316.014545 205.288044 
L 317.884675 182.096299 
L 318.258701 170.987276 
L 321.437922 204.579899 
L 322.185974 193.205322 
L 323.121039 182.95935 
L 323.495065 159.258626 
L 324.617143 182.937221 
L 325.178182 174.616518 
L 325.365195 202.278428 
L 325.926234 166.07452 
L 328.17039 184.442029 
L 330.601558 154.168834 
L 331.162597 182.671666 
L 331.723636 154.080316 
L 333.780779 186.212391 
L 334.154805 208.253401 
L 334.715844 152.354213 
L 335.650909 134.783368 
L 336.024935 122.03676 
L 336.398961 217.481414 
L 337.147013 133.322819 
L 339.017143 145.980909 
L 339.952208 80.322599 
L 340.887273 165.565541 
L 341.074286 162.312501 
L 341.261299 108.537748 
L 342.57039 136.288176 
L 342.757403 169.548856 
L 343.131429 125.666002 
L 344.066494 108.40497 
L 344.253506 171.164312 
L 344.814545 129.383763 
L 345.562597 148.689563 
L 346.684675 155.275311 
L 347.245714 169.172654 
L 347.432727 170.633203 
L 347.61974 189.133488 
L 347.806753 164.171381 
L 348.928831 142.130371 
L 349.302857 194.754389 
L 350.424935 181.919262 
L 353.978182 150.495333 
L 356.035325 160.586397 
L 357.718442 184.796101 
L 359.962597 196.214937 
L 374.175584 163.72879 
L 385.583377 185.017396 
L 394.934026 180.502973 
L 398.487273 179.485014 
L 398.487273 179.485014 
" style="fill:none;stroke:#0000ff;stroke-linecap:square;stroke-width:1.5;"/>
   </g>
   <g id="patch_3">
    <path d="M 57.6 307.584 
L 57.6 41.472 
" style="fill:none;stroke:#000000;stroke-linecap:square;stroke-linejoin:miter;stroke-width:0.8;"/>
   </g>
   <g id="patch_4">
    <path d="M 414.72 307.584 
L 414.72 41.472 
" style="fill:none;stroke:#000000;stroke-linecap:square;stroke-linejoin:miter;stroke-width:0.8;"/>
   </g>
   <g id="patch_5">
    <path d="M 57.6 307.584 
L 414.72 307.584 
" style="fill:none;stroke:#000000;stroke-linecap:square;stroke-linejoin:miter;stroke-width:0.8;"/>
   </g>
   <g id="patch_6">
    <path d="M 57.6 41.472 
L 414.72 41.472 
" style="fill:none;stroke:#000000;stroke-linecap:square;stroke-linejoin:miter;stroke-width:0.8;"/>
   </g>
   <g id="text_18">
    <!-- temperature-&gt;ping_night -->
    <g transform="translate(159.735938 35.472)scale(0.12 -0.12)">
     <defs>
      <path d="M 4.890625 31.390625 
L 31.203125 31.390625 
L 31.203125 23.390625 
L 4.890625 23.390625 
z
" id="DejaVuSans-45"/>
      <path d="M 10.59375 49.21875 
L 10.59375 58.109375 
L 73.1875 35.40625 
L 73.1875 27.296875 
L 10.59375 4.59375 
L 10.59375 13.484375 
L 60.890625 31.296875 
z
" id="DejaVuSans-62"/>
      <path d="M 9.421875 54.6875 
L 18.40625 54.6875 
L 18.40625 0 
L 9.421875 0 
z
M 9.421875 75.984375 
L 18.40625 75.984375 
L 18.40625 64.59375 
L 9.421875 64.59375 
z
" id="DejaVuSans-105"/>
      <path d="M 45.40625 27.984375 
Q 45.40625 37.75 41.375 43.109375 
Q 37.359375 48.484375 30.078125 48.484375 
Q 22.859375 48.484375 18.828125 43.109375 
Q 14.796875 37.75 14.796875 27.984375 
Q 14.796875 18.265625 18.828125 12.890625 
Q 22.859375 7.515625 30.078125 7.515625 
Q 37.359375 7.515625 41.375 12.890625 
Q 45.40625 18.265625 45.40625 27.984375 
z
M 54.390625 6.78125 
Q 54.390625 -7.171875 48.1875 -13.984375 
Q 42 -20.796875 29.203125 -20.796875 
Q 24.46875 -20.796875 20.265625 -20.09375 
Q 16.0625 -19.390625 12.109375 -17.921875 
L 12.109375 -9.1875 
Q 16.0625 -11.328125 19.921875 -12.34375 
Q 23.78125 -13.375 27.78125 -13.375 
Q 36.625 -13.375 41.015625 -8.765625 
Q 45.40625 -4.15625 45.40625 5.171875 
L 45.40625 9.625 
Q 42.625 4.78125 38.28125 2.390625 
Q 33.9375 0 27.875 0 
Q 17.828125 0 11.671875 7.65625 
Q 5.515625 15.328125 5.515625 27.984375 
Q 5.515625 40.671875 11.671875 48.328125 
Q 17.828125 56 27.875 56 
Q 33.9375 56 38.28125 53.609375 
Q 42.625 51.21875 45.40625 46.390625 
L 45.40625 54.6875 
L 54.390625 54.6875 
z
" id="DejaVuSans-103"/>
      <path d="M 50.984375 -16.609375 
L 50.984375 -23.578125 
L -0.984375 -23.578125 
L -0.984375 -16.609375 
z
" id="DejaVuSans-95"/>
     </defs>
     <use xlink:href="#DejaVuSans-116"/>
     <use x="39.208984" xlink:href="#DejaVuSans-101"/>
     <use x="100.732422" xlink:href="#DejaVuSans-109"/>
     <use x="198.144531" xlink:href="#DejaVuSans-112"/>
     <use x="261.621094" xlink:href="#DejaVuSans-101"/>
     <use x="323.144531" xlink:href="#DejaVuSans-114"/>
     <use x="364.257812" xlink:href="#DejaVuSans-97"/>
     <use x="425.537109" xlink:href="#DejaVuSans-116"/>
     <use x="464.746094" xlink:href="#DejaVuSans-117"/>
     <use x="528.125" xlink:href="#DejaVuSans-114"/>
     <use x="566.988281" xlink:href="#DejaVuSans-101"/>
     <use x="628.511719" xlink:href="#DejaVuSans-45"/>
     <use x="664.595703" xlink:href="#DejaVuSans-62"/>
     <use x="748.384766" xlink:href="#DejaVuSans-112"/>
     <use x="811.861328" xlink:href="#DejaVuSans-105"/>
     <use x="839.644531" xlink:href="#DejaVuSans-110"/>
     <use x="903.023438" xlink:href="#DejaVuSans-103"/>
     <use x="966.5" xlink:href="#DejaVuSans-95"/>
     <use x="1016.5" xlink:href="#DejaVuSans-110"/>
     <use x="1079.878906" xlink:href="#DejaVuSans-105"/>
     <use x="1107.662109" xlink:href="#DejaVuSans-103"/>
     <use x="1171.138672" xlink:href="#DejaVuSans-104"/>
     <use x="1234.517578" xlink:href="#DejaVuSans-116"/>
    </g>
   </g>
  </g>
  <g id="legend_1">
   <g id="patch_7">
    <path d="M 415.451563 22.678125 
L 453.8 22.678125 
Q 455.8 22.678125 455.8 20.678125 
L 455.8 7 
Q 455.8 5 453.8 5 
L 415.451563 5 
Q 413.451563 5 413.451563 7 
L 413.451563 20.678125 
Q 413.451563 22.678125 415.451563 22.678125 
z
" style="fill:#ffffff;opacity:0.8;stroke:#cccccc;stroke-linejoin:miter;"/>
   </g>
   <g id="line2d_18">
    <path d="M 417.451563 13.098438 
L 437.451563 13.098438 
" style="fill:none;stroke:#0000ff;stroke-linecap:square;stroke-width:1.5;"/>
   </g>
   <g id="line2d_19"/>
   <g id="text_19">
    <!-- p -->
    <g transform="translate(445.451563 16.598438)scale(0.1 -0.1)">
     <use xlink:href="#DejaVuSans-112"/>
    </g>
   </g>
  </g>
 </g>
 <defs>
  <clipPath id="pd1f0b85669">
   <rect height="266.112" width="357.12" x="57.6" y="41.472"/>
  </clipPath>
 </defs>
</svg>
