<?xml version="1.0" encoding="utf-8" standalone="no"?>
<!DOCTYPE svg PUBLIC "-//W3C//DTD SVG 1.1//EN"
  "http://www.w3.org/Graphics/SVG/1.1/DTD/svg11.dtd">
<svg height="345.6pt" version="1.1" viewBox="0 0 460.8 345.6" width="460.8pt" xmlns="http://www.w3.org/2000/svg" xmlns:xlink="http://www.w3.org/1999/xlink">
 <metadata>
  <rdf:RDF xmlns:cc="http://creativecommons.org/ns#" xmlns:dc="http://purl.org/dc/elements/1.1/" xmlns:rdf="http://www.w3.org/1999/02/22-rdf-syntax-ns#">
   <cc:Work>
    <dc:type rdf:resource="http://purl.org/dc/dcmitype/StillImage"/>
    <dc:date>2022-06-13T13:12:02.514789</dc:date>
    <dc:format>image/svg+xml</dc:format>
    <dc:creator>
     <cc:Agent>
      <dc:title>Matplotlib v3.4.2, https://matplotlib.org/</dc:title>
     </cc:Agent>
    </dc:creator>
   </cc:Work>
  </rdf:RDF>
 </metadata>
 <defs>
  <style type="text/css">*{stroke-linecap:butt;stroke-linejoin:round;}</style>
 </defs>
 <g id="figure_1">
  <g id="patch_1">
   <path d="M 0 345.6 
L 460.8 345.6 
L 460.8 0 
L 0 0 
z
" style="fill:#ffffff;"/>
  </g>
  <g id="axes_1">
   <g id="patch_2">
    <path d="M 57.6 307.584 
L 414.72 307.584 
L 414.72 41.472 
L 57.6 41.472 
z
" style="fill:#ffffff;"/>
   </g>
   <g id="matplotlib.axis_1">
    <g id="xtick_1">
     <g id="line2d_1">
      <defs>
       <path d="M 0 0 
L 0 3.5 
" id="m3e73c07612" style="stroke:#000000;stroke-width:0.8;"/>
      </defs>
      <g>
       <use style="stroke:#000000;stroke-width:0.8;" x="78.668008" xlink:href="#m3e73c07612" y="307.584"/>
      </g>
     </g>
     <g id="text_1">
      <!-- 6 -->
      <g transform="translate(75.486758 322.182437)scale(0.1 -0.1)">
       <defs>
        <path d="M 2113 2584 
Q 1688 2584 1439 2293 
Q 1191 2003 1191 1497 
Q 1191 994 1439 701 
Q 1688 409 2113 409 
Q 2538 409 2786 701 
Q 3034 994 3034 1497 
Q 3034 2003 2786 2293 
Q 2538 2584 2113 2584 
z
M 3366 4563 
L 3366 3988 
Q 3128 4100 2886 4159 
Q 2644 4219 2406 4219 
Q 1781 4219 1451 3797 
Q 1122 3375 1075 2522 
Q 1259 2794 1537 2939 
Q 1816 3084 2150 3084 
Q 2853 3084 3261 2657 
Q 3669 2231 3669 1497 
Q 3669 778 3244 343 
Q 2819 -91 2113 -91 
Q 1303 -91 875 529 
Q 447 1150 447 2328 
Q 447 3434 972 4092 
Q 1497 4750 2381 4750 
Q 2619 4750 2861 4703 
Q 3103 4656 3366 4563 
z
" id="DejaVuSans-36" transform="scale(0.015625)"/>
       </defs>
       <use xlink:href="#DejaVuSans-36"/>
      </g>
     </g>
    </g>
    <g id="xtick_2">
     <g id="line2d_2">
      <g>
       <use style="stroke:#000000;stroke-width:0.8;" x="124.718298" xlink:href="#m3e73c07612" y="307.584"/>
      </g>
     </g>
     <g id="text_2">
      <!-- 8 -->
      <g transform="translate(121.537048 322.182437)scale(0.1 -0.1)">
       <defs>
        <path d="M 2034 2216 
Q 1584 2216 1326 1975 
Q 1069 1734 1069 1313 
Q 1069 891 1326 650 
Q 1584 409 2034 409 
Q 2484 409 2743 651 
Q 3003 894 3003 1313 
Q 3003 1734 2745 1975 
Q 2488 2216 2034 2216 
z
M 1403 2484 
Q 997 2584 770 2862 
Q 544 3141 544 3541 
Q 544 4100 942 4425 
Q 1341 4750 2034 4750 
Q 2731 4750 3128 4425 
Q 3525 4100 3525 3541 
Q 3525 3141 3298 2862 
Q 3072 2584 2669 2484 
Q 3125 2378 3379 2068 
Q 3634 1759 3634 1313 
Q 3634 634 3220 271 
Q 2806 -91 2034 -91 
Q 1263 -91 848 271 
Q 434 634 434 1313 
Q 434 1759 690 2068 
Q 947 2378 1403 2484 
z
M 1172 3481 
Q 1172 3119 1398 2916 
Q 1625 2713 2034 2713 
Q 2441 2713 2670 2916 
Q 2900 3119 2900 3481 
Q 2900 3844 2670 4047 
Q 2441 4250 2034 4250 
Q 1625 4250 1398 4047 
Q 1172 3844 1172 3481 
z
" id="DejaVuSans-38" transform="scale(0.015625)"/>
       </defs>
       <use xlink:href="#DejaVuSans-38"/>
      </g>
     </g>
    </g>
    <g id="xtick_3">
     <g id="line2d_3">
      <g>
       <use style="stroke:#000000;stroke-width:0.8;" x="170.768588" xlink:href="#m3e73c07612" y="307.584"/>
      </g>
     </g>
     <g id="text_3">
      <!-- 10 -->
      <g transform="translate(164.406088 322.182437)scale(0.1 -0.1)">
       <defs>
        <path d="M 794 531 
L 1825 531 
L 1825 4091 
L 703 3866 
L 703 4441 
L 1819 4666 
L 2450 4666 
L 2450 531 
L 3481 531 
L 3481 0 
L 794 0 
L 794 531 
z
" id="DejaVuSans-31" transform="scale(0.015625)"/>
        <path d="M 2034 4250 
Q 1547 4250 1301 3770 
Q 1056 3291 1056 2328 
Q 1056 1369 1301 889 
Q 1547 409 2034 409 
Q 2525 409 2770 889 
Q 3016 1369 3016 2328 
Q 3016 3291 2770 3770 
Q 2525 4250 2034 4250 
z
M 2034 4750 
Q 2819 4750 3233 4129 
Q 3647 3509 3647 2328 
Q 3647 1150 3233 529 
Q 2819 -91 2034 -91 
Q 1250 -91 836 529 
Q 422 1150 422 2328 
Q 422 3509 836 4129 
Q 1250 4750 2034 4750 
z
" id="DejaVuSans-30" transform="scale(0.015625)"/>
       </defs>
       <use xlink:href="#DejaVuSans-31"/>
       <use x="63.623047" xlink:href="#DejaVuSans-30"/>
      </g>
     </g>
    </g>
    <g id="xtick_4">
     <g id="line2d_4">
      <g>
       <use style="stroke:#000000;stroke-width:0.8;" x="216.818878" xlink:href="#m3e73c07612" y="307.584"/>
      </g>
     </g>
     <g id="text_4">
      <!-- 12 -->
      <g transform="translate(210.456378 322.182437)scale(0.1 -0.1)">
       <defs>
        <path d="M 1228 531 
L 3431 531 
L 3431 0 
L 469 0 
L 469 531 
Q 828 903 1448 1529 
Q 2069 2156 2228 2338 
Q 2531 2678 2651 2914 
Q 2772 3150 2772 3378 
Q 2772 3750 2511 3984 
Q 2250 4219 1831 4219 
Q 1534 4219 1204 4116 
Q 875 4013 500 3803 
L 500 4441 
Q 881 4594 1212 4672 
Q 1544 4750 1819 4750 
Q 2544 4750 2975 4387 
Q 3406 4025 3406 3419 
Q 3406 3131 3298 2873 
Q 3191 2616 2906 2266 
Q 2828 2175 2409 1742 
Q 1991 1309 1228 531 
z
" id="DejaVuSans-32" transform="scale(0.015625)"/>
       </defs>
       <use xlink:href="#DejaVuSans-31"/>
       <use x="63.623047" xlink:href="#DejaVuSans-32"/>
      </g>
     </g>
    </g>
    <g id="xtick_5">
     <g id="line2d_5">
      <g>
       <use style="stroke:#000000;stroke-width:0.8;" x="262.869168" xlink:href="#m3e73c07612" y="307.584"/>
      </g>
     </g>
     <g id="text_5">
      <!-- 14 -->
      <g transform="translate(256.506668 322.182437)scale(0.1 -0.1)">
       <defs>
        <path d="M 2419 4116 
L 825 1625 
L 2419 1625 
L 2419 4116 
z
M 2253 4666 
L 3047 4666 
L 3047 1625 
L 3713 1625 
L 3713 1100 
L 3047 1100 
L 3047 0 
L 2419 0 
L 2419 1100 
L 313 1100 
L 313 1709 
L 2253 4666 
z
" id="DejaVuSans-34" transform="scale(0.015625)"/>
       </defs>
       <use xlink:href="#DejaVuSans-31"/>
       <use x="63.623047" xlink:href="#DejaVuSans-34"/>
      </g>
     </g>
    </g>
    <g id="xtick_6">
     <g id="line2d_6">
      <g>
       <use style="stroke:#000000;stroke-width:0.8;" x="308.919458" xlink:href="#m3e73c07612" y="307.584"/>
      </g>
     </g>
     <g id="text_6">
      <!-- 16 -->
      <g transform="translate(302.556958 322.182437)scale(0.1 -0.1)">
       <use xlink:href="#DejaVuSans-31"/>
       <use x="63.623047" xlink:href="#DejaVuSans-36"/>
      </g>
     </g>
    </g>
    <g id="xtick_7">
     <g id="line2d_7">
      <g>
       <use style="stroke:#000000;stroke-width:0.8;" x="354.969749" xlink:href="#m3e73c07612" y="307.584"/>
      </g>
     </g>
     <g id="text_7">
      <!-- 18 -->
      <g transform="translate(348.607249 322.182437)scale(0.1 -0.1)">
       <use xlink:href="#DejaVuSans-31"/>
       <use x="63.623047" xlink:href="#DejaVuSans-38"/>
      </g>
     </g>
    </g>
    <g id="xtick_8">
     <g id="line2d_8">
      <g>
       <use style="stroke:#000000;stroke-width:0.8;" x="401.020039" xlink:href="#m3e73c07612" y="307.584"/>
      </g>
     </g>
     <g id="text_8">
      <!-- 20 -->
      <g transform="translate(394.657539 322.182437)scale(0.1 -0.1)">
       <use xlink:href="#DejaVuSans-32"/>
       <use x="63.623047" xlink:href="#DejaVuSans-30"/>
      </g>
     </g>
    </g>
    <g id="text_9">
     <!-- temperature from OpenWeatherMap -->
     <g transform="translate(144.963906 335.860562)scale(0.1 -0.1)">
      <defs>
       <path d="M 1172 4494 
L 1172 3500 
L 2356 3500 
L 2356 3053 
L 1172 3053 
L 1172 1153 
Q 1172 725 1289 603 
Q 1406 481 1766 481 
L 2356 481 
L 2356 0 
L 1766 0 
Q 1100 0 847 248 
Q 594 497 594 1153 
L 594 3053 
L 172 3053 
L 172 3500 
L 594 3500 
L 594 4494 
L 1172 4494 
z
" id="DejaVuSans-74" transform="scale(0.015625)"/>
       <path d="M 3597 1894 
L 3597 1613 
L 953 1613 
Q 991 1019 1311 708 
Q 1631 397 2203 397 
Q 2534 397 2845 478 
Q 3156 559 3463 722 
L 3463 178 
Q 3153 47 2828 -22 
Q 2503 -91 2169 -91 
Q 1331 -91 842 396 
Q 353 884 353 1716 
Q 353 2575 817 3079 
Q 1281 3584 2069 3584 
Q 2775 3584 3186 3129 
Q 3597 2675 3597 1894 
z
M 3022 2063 
Q 3016 2534 2758 2815 
Q 2500 3097 2075 3097 
Q 1594 3097 1305 2825 
Q 1016 2553 972 2059 
L 3022 2063 
z
" id="DejaVuSans-65" transform="scale(0.015625)"/>
       <path d="M 3328 2828 
Q 3544 3216 3844 3400 
Q 4144 3584 4550 3584 
Q 5097 3584 5394 3201 
Q 5691 2819 5691 2113 
L 5691 0 
L 5113 0 
L 5113 2094 
Q 5113 2597 4934 2840 
Q 4756 3084 4391 3084 
Q 3944 3084 3684 2787 
Q 3425 2491 3425 1978 
L 3425 0 
L 2847 0 
L 2847 2094 
Q 2847 2600 2669 2842 
Q 2491 3084 2119 3084 
Q 1678 3084 1418 2786 
Q 1159 2488 1159 1978 
L 1159 0 
L 581 0 
L 581 3500 
L 1159 3500 
L 1159 2956 
Q 1356 3278 1631 3431 
Q 1906 3584 2284 3584 
Q 2666 3584 2933 3390 
Q 3200 3197 3328 2828 
z
" id="DejaVuSans-6d" transform="scale(0.015625)"/>
       <path d="M 1159 525 
L 1159 -1331 
L 581 -1331 
L 581 3500 
L 1159 3500 
L 1159 2969 
Q 1341 3281 1617 3432 
Q 1894 3584 2278 3584 
Q 2916 3584 3314 3078 
Q 3713 2572 3713 1747 
Q 3713 922 3314 415 
Q 2916 -91 2278 -91 
Q 1894 -91 1617 61 
Q 1341 213 1159 525 
z
M 3116 1747 
Q 3116 2381 2855 2742 
Q 2594 3103 2138 3103 
Q 1681 3103 1420 2742 
Q 1159 2381 1159 1747 
Q 1159 1113 1420 752 
Q 1681 391 2138 391 
Q 2594 391 2855 752 
Q 3116 1113 3116 1747 
z
" id="DejaVuSans-70" transform="scale(0.015625)"/>
       <path d="M 2631 2963 
Q 2534 3019 2420 3045 
Q 2306 3072 2169 3072 
Q 1681 3072 1420 2755 
Q 1159 2438 1159 1844 
L 1159 0 
L 581 0 
L 581 3500 
L 1159 3500 
L 1159 2956 
Q 1341 3275 1631 3429 
Q 1922 3584 2338 3584 
Q 2397 3584 2469 3576 
Q 2541 3569 2628 3553 
L 2631 2963 
z
" id="DejaVuSans-72" transform="scale(0.015625)"/>
       <path d="M 2194 1759 
Q 1497 1759 1228 1600 
Q 959 1441 959 1056 
Q 959 750 1161 570 
Q 1363 391 1709 391 
Q 2188 391 2477 730 
Q 2766 1069 2766 1631 
L 2766 1759 
L 2194 1759 
z
M 3341 1997 
L 3341 0 
L 2766 0 
L 2766 531 
Q 2569 213 2275 61 
Q 1981 -91 1556 -91 
Q 1019 -91 701 211 
Q 384 513 384 1019 
Q 384 1609 779 1909 
Q 1175 2209 1959 2209 
L 2766 2209 
L 2766 2266 
Q 2766 2663 2505 2880 
Q 2244 3097 1772 3097 
Q 1472 3097 1187 3025 
Q 903 2953 641 2809 
L 641 3341 
Q 956 3463 1253 3523 
Q 1550 3584 1831 3584 
Q 2591 3584 2966 3190 
Q 3341 2797 3341 1997 
z
" id="DejaVuSans-61" transform="scale(0.015625)"/>
       <path d="M 544 1381 
L 544 3500 
L 1119 3500 
L 1119 1403 
Q 1119 906 1312 657 
Q 1506 409 1894 409 
Q 2359 409 2629 706 
Q 2900 1003 2900 1516 
L 2900 3500 
L 3475 3500 
L 3475 0 
L 2900 0 
L 2900 538 
Q 2691 219 2414 64 
Q 2138 -91 1772 -91 
Q 1169 -91 856 284 
Q 544 659 544 1381 
z
M 1991 3584 
L 1991 3584 
z
" id="DejaVuSans-75" transform="scale(0.015625)"/>
       <path id="DejaVuSans-20" transform="scale(0.015625)"/>
       <path d="M 2375 4863 
L 2375 4384 
L 1825 4384 
Q 1516 4384 1395 4259 
Q 1275 4134 1275 3809 
L 1275 3500 
L 2222 3500 
L 2222 3053 
L 1275 3053 
L 1275 0 
L 697 0 
L 697 3053 
L 147 3053 
L 147 3500 
L 697 3500 
L 697 3744 
Q 697 4328 969 4595 
Q 1241 4863 1831 4863 
L 2375 4863 
z
" id="DejaVuSans-66" transform="scale(0.015625)"/>
       <path d="M 1959 3097 
Q 1497 3097 1228 2736 
Q 959 2375 959 1747 
Q 959 1119 1226 758 
Q 1494 397 1959 397 
Q 2419 397 2687 759 
Q 2956 1122 2956 1747 
Q 2956 2369 2687 2733 
Q 2419 3097 1959 3097 
z
M 1959 3584 
Q 2709 3584 3137 3096 
Q 3566 2609 3566 1747 
Q 3566 888 3137 398 
Q 2709 -91 1959 -91 
Q 1206 -91 779 398 
Q 353 888 353 1747 
Q 353 2609 779 3096 
Q 1206 3584 1959 3584 
z
" id="DejaVuSans-6f" transform="scale(0.015625)"/>
       <path d="M 2522 4238 
Q 1834 4238 1429 3725 
Q 1025 3213 1025 2328 
Q 1025 1447 1429 934 
Q 1834 422 2522 422 
Q 3209 422 3611 934 
Q 4013 1447 4013 2328 
Q 4013 3213 3611 3725 
Q 3209 4238 2522 4238 
z
M 2522 4750 
Q 3503 4750 4090 4092 
Q 4678 3434 4678 2328 
Q 4678 1225 4090 567 
Q 3503 -91 2522 -91 
Q 1538 -91 948 565 
Q 359 1222 359 2328 
Q 359 3434 948 4092 
Q 1538 4750 2522 4750 
z
" id="DejaVuSans-4f" transform="scale(0.015625)"/>
       <path d="M 3513 2113 
L 3513 0 
L 2938 0 
L 2938 2094 
Q 2938 2591 2744 2837 
Q 2550 3084 2163 3084 
Q 1697 3084 1428 2787 
Q 1159 2491 1159 1978 
L 1159 0 
L 581 0 
L 581 3500 
L 1159 3500 
L 1159 2956 
Q 1366 3272 1645 3428 
Q 1925 3584 2291 3584 
Q 2894 3584 3203 3211 
Q 3513 2838 3513 2113 
z
" id="DejaVuSans-6e" transform="scale(0.015625)"/>
       <path d="M 213 4666 
L 850 4666 
L 1831 722 
L 2809 4666 
L 3519 4666 
L 4500 722 
L 5478 4666 
L 6119 4666 
L 4947 0 
L 4153 0 
L 3169 4050 
L 2175 0 
L 1381 0 
L 213 4666 
z
" id="DejaVuSans-57" transform="scale(0.015625)"/>
       <path d="M 3513 2113 
L 3513 0 
L 2938 0 
L 2938 2094 
Q 2938 2591 2744 2837 
Q 2550 3084 2163 3084 
Q 1697 3084 1428 2787 
Q 1159 2491 1159 1978 
L 1159 0 
L 581 0 
L 581 4863 
L 1159 4863 
L 1159 2956 
Q 1366 3272 1645 3428 
Q 1925 3584 2291 3584 
Q 2894 3584 3203 3211 
Q 3513 2838 3513 2113 
z
" id="DejaVuSans-68" transform="scale(0.015625)"/>
       <path d="M 628 4666 
L 1569 4666 
L 2759 1491 
L 3956 4666 
L 4897 4666 
L 4897 0 
L 4281 0 
L 4281 4097 
L 3078 897 
L 2444 897 
L 1241 4097 
L 1241 0 
L 628 0 
L 628 4666 
z
" id="DejaVuSans-4d" transform="scale(0.015625)"/>
      </defs>
      <use xlink:href="#DejaVuSans-74"/>
      <use x="39.208984" xlink:href="#DejaVuSans-65"/>
      <use x="100.732422" xlink:href="#DejaVuSans-6d"/>
      <use x="198.144531" xlink:href="#DejaVuSans-70"/>
      <use x="261.621094" xlink:href="#DejaVuSans-65"/>
      <use x="323.144531" xlink:href="#DejaVuSans-72"/>
      <use x="364.257812" xlink:href="#DejaVuSans-61"/>
      <use x="425.537109" xlink:href="#DejaVuSans-74"/>
      <use x="464.746094" xlink:href="#DejaVuSans-75"/>
      <use x="528.125" xlink:href="#DejaVuSans-72"/>
      <use x="566.988281" xlink:href="#DejaVuSans-65"/>
      <use x="628.511719" xlink:href="#DejaVuSans-20"/>
      <use x="660.298828" xlink:href="#DejaVuSans-66"/>
      <use x="695.503906" xlink:href="#DejaVuSans-72"/>
      <use x="734.367188" xlink:href="#DejaVuSans-6f"/>
      <use x="795.548828" xlink:href="#DejaVuSans-6d"/>
      <use x="892.960938" xlink:href="#DejaVuSans-20"/>
      <use x="924.748047" xlink:href="#DejaVuSans-4f"/>
      <use x="1003.458984" xlink:href="#DejaVuSans-70"/>
      <use x="1066.935547" xlink:href="#DejaVuSans-65"/>
      <use x="1128.458984" xlink:href="#DejaVuSans-6e"/>
      <use x="1191.837891" xlink:href="#DejaVuSans-57"/>
      <use x="1284.839844" xlink:href="#DejaVuSans-65"/>
      <use x="1346.363281" xlink:href="#DejaVuSans-61"/>
      <use x="1407.642578" xlink:href="#DejaVuSans-74"/>
      <use x="1446.851562" xlink:href="#DejaVuSans-68"/>
      <use x="1510.230469" xlink:href="#DejaVuSans-65"/>
      <use x="1571.753906" xlink:href="#DejaVuSans-72"/>
      <use x="1612.867188" xlink:href="#DejaVuSans-4d"/>
      <use x="1699.146484" xlink:href="#DejaVuSans-61"/>
      <use x="1760.425781" xlink:href="#DejaVuSans-70"/>
     </g>
    </g>
   </g>
   <g id="matplotlib.axis_2">
    <g id="ytick_1">
     <g id="line2d_9">
      <defs>
       <path d="M 0 0 
L -3.5 0 
" id="mf932b6c21a" style="stroke:#000000;stroke-width:0.8;"/>
      </defs>
      <g>
       <use style="stroke:#000000;stroke-width:0.8;" x="57.6" xlink:href="#mf932b6c21a" y="277.127639"/>
      </g>
     </g>
     <g id="text_10">
      <!-- 4.0 -->
      <g transform="translate(34.696875 280.926858)scale(0.1 -0.1)">
       <defs>
        <path d="M 684 794 
L 1344 794 
L 1344 0 
L 684 0 
L 684 794 
z
" id="DejaVuSans-2e" transform="scale(0.015625)"/>
       </defs>
       <use xlink:href="#DejaVuSans-34"/>
       <use x="63.623047" xlink:href="#DejaVuSans-2e"/>
       <use x="95.410156" xlink:href="#DejaVuSans-30"/>
      </g>
     </g>
    </g>
    <g id="ytick_2">
     <g id="line2d_10">
      <g>
       <use style="stroke:#000000;stroke-width:0.8;" x="57.6" xlink:href="#mf932b6c21a" y="244.77458"/>
      </g>
     </g>
     <g id="text_11">
      <!-- 4.2 -->
      <g transform="translate(34.696875 248.573798)scale(0.1 -0.1)">
       <use xlink:href="#DejaVuSans-34"/>
       <use x="63.623047" xlink:href="#DejaVuSans-2e"/>
       <use x="95.410156" xlink:href="#DejaVuSans-32"/>
      </g>
     </g>
    </g>
    <g id="ytick_3">
     <g id="line2d_11">
      <g>
       <use style="stroke:#000000;stroke-width:0.8;" x="57.6" xlink:href="#mf932b6c21a" y="212.421521"/>
      </g>
     </g>
     <g id="text_12">
      <!-- 4.4 -->
      <g transform="translate(34.696875 216.220739)scale(0.1 -0.1)">
       <use xlink:href="#DejaVuSans-34"/>
       <use x="63.623047" xlink:href="#DejaVuSans-2e"/>
       <use x="95.410156" xlink:href="#DejaVuSans-34"/>
      </g>
     </g>
    </g>
    <g id="ytick_4">
     <g id="line2d_12">
      <g>
       <use style="stroke:#000000;stroke-width:0.8;" x="57.6" xlink:href="#mf932b6c21a" y="180.068461"/>
      </g>
     </g>
     <g id="text_13">
      <!-- 4.6 -->
      <g transform="translate(34.696875 183.86768)scale(0.1 -0.1)">
       <use xlink:href="#DejaVuSans-34"/>
       <use x="63.623047" xlink:href="#DejaVuSans-2e"/>
       <use x="95.410156" xlink:href="#DejaVuSans-36"/>
      </g>
     </g>
    </g>
    <g id="ytick_5">
     <g id="line2d_13">
      <g>
       <use style="stroke:#000000;stroke-width:0.8;" x="57.6" xlink:href="#mf932b6c21a" y="147.715402"/>
      </g>
     </g>
     <g id="text_14">
      <!-- 4.8 -->
      <g transform="translate(34.696875 151.514621)scale(0.1 -0.1)">
       <use xlink:href="#DejaVuSans-34"/>
       <use x="63.623047" xlink:href="#DejaVuSans-2e"/>
       <use x="95.410156" xlink:href="#DejaVuSans-38"/>
      </g>
     </g>
    </g>
    <g id="ytick_6">
     <g id="line2d_14">
      <g>
       <use style="stroke:#000000;stroke-width:0.8;" x="57.6" xlink:href="#mf932b6c21a" y="115.362343"/>
      </g>
     </g>
     <g id="text_15">
      <!-- 5.0 -->
      <g transform="translate(34.696875 119.161562)scale(0.1 -0.1)">
       <defs>
        <path d="M 691 4666 
L 3169 4666 
L 3169 4134 
L 1269 4134 
L 1269 2991 
Q 1406 3038 1543 3061 
Q 1681 3084 1819 3084 
Q 2600 3084 3056 2656 
Q 3513 2228 3513 1497 
Q 3513 744 3044 326 
Q 2575 -91 1722 -91 
Q 1428 -91 1123 -41 
Q 819 9 494 109 
L 494 744 
Q 775 591 1075 516 
Q 1375 441 1709 441 
Q 2250 441 2565 725 
Q 2881 1009 2881 1497 
Q 2881 1984 2565 2268 
Q 2250 2553 1709 2553 
Q 1456 2553 1204 2497 
Q 953 2441 691 2322 
L 691 4666 
z
" id="DejaVuSans-35" transform="scale(0.015625)"/>
       </defs>
       <use xlink:href="#DejaVuSans-35"/>
       <use x="63.623047" xlink:href="#DejaVuSans-2e"/>
       <use x="95.410156" xlink:href="#DejaVuSans-30"/>
      </g>
     </g>
    </g>
    <g id="ytick_7">
     <g id="line2d_15">
      <g>
       <use style="stroke:#000000;stroke-width:0.8;" x="57.6" xlink:href="#mf932b6c21a" y="83.009284"/>
      </g>
     </g>
     <g id="text_16">
      <!-- 5.2 -->
      <g transform="translate(34.696875 86.808503)scale(0.1 -0.1)">
       <use xlink:href="#DejaVuSans-35"/>
       <use x="63.623047" xlink:href="#DejaVuSans-2e"/>
       <use x="95.410156" xlink:href="#DejaVuSans-32"/>
      </g>
     </g>
    </g>
    <g id="ytick_8">
     <g id="line2d_16">
      <g>
       <use style="stroke:#000000;stroke-width:0.8;" x="57.6" xlink:href="#mf932b6c21a" y="50.656225"/>
      </g>
     </g>
     <g id="text_17">
      <!-- 5.4 -->
      <g transform="translate(34.696875 54.455443)scale(0.1 -0.1)">
       <use xlink:href="#DejaVuSans-35"/>
       <use x="63.623047" xlink:href="#DejaVuSans-2e"/>
       <use x="95.410156" xlink:href="#DejaVuSans-34"/>
      </g>
     </g>
    </g>
   </g>
   <g id="line2d_17">
    <path clip-path="url(#p44f693a4f2)" d="M 73.832727 169.661561 
L 77.056248 234.906897 
L 77.51675 227.789224 
L 79.128511 182.656706 
L 79.358762 198.105292 
L 82.121779 127.17121 
L 86.726809 181.740036 
L 88.799072 220.401942 
L 89.029323 227.950989 
L 89.950329 232.5613 
L 90.18058 212.421521 
L 92.713346 163.083105 
L 93.634352 213.499956 
L 96.167118 233.019635 
L 96.397369 142.053617 
L 98.00913 161.950748 
L 98.469632 198.078331 
L 101.462901 176.34786 
L 103.995667 213.877408 
L 104.45617 225.686275 
L 105.377176 191.499876 
L 106.298182 212.205834 
L 106.528433 209.941119 
L 107.219188 222.774499 
L 107.679691 214.308782 
L 108.600696 204.387178 
L 109.751954 148.685994 
L 109.982205 249.034399 
L 110.212456 202.958251 
L 110.672959 213.122504 
L 112.975474 191.715563 
L 114.817485 185.123627 
L 115.047737 181.901801 
L 115.738491 219.943607 
L 117.12 187.250841 
L 117.810754 173.274319 
L 118.271257 200.747458 
L 119.192263 189.019474 
L 120.34352 210.318572 
L 120.573772 154.913958 
L 121.034275 193.009685 
L 121.725029 220.941159 
L 123.567041 115.524108 
L 123.797292 211.666616 
L 124.027544 197.215583 
L 124.948549 187.293978 
L 127.941818 272.27468 
L 128.17207 200.095005 
L 128.632573 149.009525 
L 128.862824 148.25462 
L 129.323327 64.136666 
L 129.78383 125.014339 
L 130.935087 116.359896 
L 131.165338 192.605272 
L 131.856093 112.935864 
L 132.086344 160.980156 
L 132.777099 178.531691 
L 133.237602 123.288843 
L 133.467853 228.112754 
L 133.928356 192.901842 
L 134.158607 212.138431 
L 134.388859 172.627258 
L 134.61911 208.539153 
L 134.849362 184.678772 
L 135.770368 221.426455 
L 136.23087 214.578391 
L 136.461122 159.793878 
L 136.691373 191.877328 
L 137.151876 209.078371 
L 137.382128 208.377388 
L 137.842631 165.509585 
L 138.072882 200.612654 
L 138.763636 213.607799 
L 138.993888 200.612654 
L 139.454391 185.892012 
L 139.684642 186.242504 
L 140.605648 157.205633 
L 140.835899 160.494861 
L 141.066151 187.792754 
L 141.296402 165.401741 
L 141.526654 210.803868 
L 141.756905 173.980204 
L 142.44766 206.490126 
L 142.677911 192.524389 
L 142.908162 148.038933 
L 143.138414 198.024409 
L 143.598917 234.421601 
L 144.980426 83.81811 
L 145.210677 199.925151 
L 145.67118 163.083105 
L 147.743443 181.524349 
L 149.815706 177.035362 
L 150.276209 177.237569 
L 150.50646 201.09795 
L 150.736712 208.485232 
L 151.887969 202.93129 
L 152.348472 196.056265 
L 152.578723 207.568562 
L 153.039226 213.909761 
L 153.960232 153.161501 
L 154.190484 181.75082 
L 154.650986 204.279334 
L 156.262747 188.030909 
L 156.492998 141.083025 
L 157.414004 124.340317 
L 157.644255 211.806812 
L 157.874507 188.426335 
L 158.104758 193.063607 
L 158.565261 183.519454 
L 158.795513 107.759374 
L 159.256015 184.59789 
L 159.486267 101.774058 
L 159.94677 178.936104 
L 160.867776 187.752313 
L 161.328279 177.776786 
L 162.479536 203.362664 
L 162.709787 197.086171 
L 162.940039 102.313276 
L 164.78205 188.803787 
L 165.012302 175.75472 
L 165.703056 158.931129 
L 166.854313 195.490086 
L 167.314816 196.029304 
L 167.545068 210.965633 
L 168.235822 208.781801 
L 168.466074 198.740798 
L 169.847582 174.083145 
L 170.077834 124.151591 
L 170.538337 217.328401 
L 170.768588 151.489926 
L 171.229091 177.911591 
L 171.459342 211.343085 
L 171.919845 220.093817 
L 172.150097 203.039133 
L 172.380348 206.921501 
L 173.301354 205.546495 
L 173.761857 231.887278 
L 173.992108 217.112714 
L 174.452611 221.696064 
L 175.603868 210.642102 
L 175.83412 212.367599 
L 176.294623 149.117368 
L 176.985377 195.894499 
L 177.215629 221.803908 
L 177.906383 243.965753 
L 179.05764 209.132293 
L 179.518143 200.774419 
L 180.208897 159.524269 
L 180.439149 197.312642 
L 181.129903 170.308622 
L 181.820658 205.357769 
L 182.511412 189.18124 
L 183.432418 181.901801 
L 183.662669 88.476951 
L 183.892921 176.401781 
L 184.123172 206.011571 
L 184.813926 207.784249 
L 185.734932 248.495182 
L 186.425687 145.288923 
L 186.655938 172.195884 
L 187.116441 175.781681 
L 187.346692 178.666495 
L 187.576944 71.523948 
L 188.037447 176.725312 
L 188.49795 177.911591 
L 188.728201 234.475523 
L 189.188704 209.401902 
L 189.418956 215.495061 
L 189.649207 189.666536 
L 189.879458 203.281781 
L 191.030716 209.833276 
L 191.260967 199.156766 
L 191.491219 217.436245 
L 192.181973 200.450889 
L 192.872727 134.774179 
L 193.102979 203.872847 
L 193.563482 172.08804 
L 193.793733 214.750941 
L 194.023985 149.764429 
L 194.714739 194.195964 
L 194.94499 154.994841 
L 195.175242 202.392072 
L 195.405493 212.745051 
L 196.326499 200.666576 
L 197.017253 152.487478 
L 197.247505 186.808682 
L 197.477756 200.50481 
L 197.708008 192.066054 
L 198.398762 282.870307 
L 199.089516 171.818431 
L 199.550019 216.411731 
L 200.240774 200.073436 
L 200.701277 138.764389 
L 200.931528 192.589095 
L 201.622282 158.58603 
L 201.852534 220.34802 
L 202.082785 185.406716 
L 202.313037 124.615318 
L 202.543288 95.060798 
L 202.77354 220.725472 
L 203.234043 138.009484 
L 203.694545 228.436285 
L 203.924797 163.163988 
L 204.615551 182.926315 
L 205.766809 157.960538 
L 206.227311 187.779274 
L 206.457563 184.058672 
L 207.148317 138.225172 
L 207.60882 194.627338 
L 207.839072 201.947218 
L 209.681083 116.4947 
L 210.141586 209.267097 
L 210.371838 177.372373 
L 210.83234 175.970407 
L 211.753346 207.51464 
L 211.983598 178.396887 
L 212.674352 200.855302 
L 212.904603 159.901721 
L 213.134855 184.490046 
L 213.595358 150.896786 
L 214.286112 157.529163 
L 214.516364 192.84792 
L 214.976867 175.053737 
L 215.897872 222.882343 
L 216.128124 179.987579 
L 216.358375 179.461842 
L 217.04913 174.999815 
L 217.509632 214.794078 
L 217.739884 70.876887 
L 217.970135 231.34806 
L 218.430638 164.377228 
L 218.66089 172.195884 
L 218.891141 198.995001 
L 220.042398 218.245071 
L 220.27265 174.568441 
L 220.733153 210.156806 
L 220.963404 180.230227 
L 221.654159 162.328201 
L 222.344913 187.509665 
L 222.575164 134.450648 
L 222.805416 182.494941 
L 223.035667 185.002303 
L 223.49617 196.083226 
L 223.726422 164.161541 
L 224.417176 178.235121 
L 224.647427 144.91147 
L 225.10793 187.887117 
L 225.338182 153.107579 
L 225.568433 203.632273 
L 226.028936 145.82814 
L 226.719691 187.779274 
L 226.949942 223.69117 
L 227.870948 216.627418 
L 228.101199 203.955803 
L 228.561702 192.632233 
L 229.252456 154.212975 
L 229.712959 192.955763 
L 230.633965 193.387137 
L 231.094468 190.852814 
L 231.554971 171.414018 
L 231.785222 190.70453 
L 232.245725 195.59793 
L 232.706228 218.946054 
L 232.93648 168.313517 
L 233.396983 198.887157 
L 233.627234 131.592794 
L 234.087737 182.279254 
L 235.008743 165.67135 
L 235.238994 180.755964 
L 235.699497 149.440899 
L 235.929749 177.210608 
L 236.16 219.296546 
L 236.390251 176.833155 
L 236.850754 184.058672 
L 237.77176 183.142002 
L 238.462515 187.078291 
L 238.692766 225.147057 
L 239.153269 215.171531 
L 239.38352 189.936144 
L 239.844023 167.522664 
L 240.074275 184.328281 
L 240.534778 118.32804 
L 240.765029 221.749986 
L 240.99528 190.825854 
L 241.225532 208.636213 
L 241.686035 190.259675 
L 242.146538 186.539073 
L 242.376789 178.127278 
L 242.607041 214.632313 
L 242.837292 182.393838 
L 243.067544 185.924365 
L 243.528046 173.92138 
L 243.758298 220.833316 
L 244.218801 174.244911 
L 244.909555 203.308742 
L 245.139807 197.323426 
L 245.600309 151.274239 
L 245.830561 210.372493 
L 246.751567 161.594865 
L 246.981818 168.277569 
L 247.21207 209.725432 
L 247.442321 183.950828 
L 248.133075 173.698953 
L 248.363327 127.764349 
L 248.593578 226.117649 
L 248.82383 163.891932 
L 249.054081 207.946014 
L 249.284333 161.896826 
L 249.744836 213.371892 
L 250.43559 166.426255 
L 250.665841 190.213456 
L 250.896093 188.102804 
L 251.356596 207.820197 
L 251.817099 161.411531 
L 252.968356 209.941119 
L 253.198607 160.279174 
L 253.428859 194.303807 
L 253.65911 178.005954 
L 253.889362 179.194929 
L 254.119613 149.063446 
L 254.810368 177.731852 
L 255.040619 197.43127 
L 255.731373 132.509464 
L 255.961625 178.316004 
L 256.422128 203.686195 
L 257.112882 107.840257 
L 258.033888 158.022162 
L 259.415397 216.303888 
L 260.336402 214.578391 
L 260.566654 169.594158 
L 261.027157 193.333216 
L 261.48766 233.019635 
L 261.948162 121.185894 
L 262.638917 220.698512 
L 263.559923 177.426295 
L 264.941431 187.186134 
L 266.553191 156.828181 
L 266.783443 232.318652 
L 267.474197 148.416385 
L 267.9347 169.877248 
L 268.625455 192.335663 
L 268.855706 174.568441 
L 269.085957 53.568 
L 270.697718 193.980277 
L 272.079226 195.840578 
L 273.000232 206.651892 
L 273.230484 197.700879 
L 274.381741 185.487599 
L 274.611992 121.07805 
L 275.072495 163.406636 
L 275.532998 179.367478 
L 275.76325 223.960778 
L 276.223752 172.896867 
L 276.454004 168.42136 
L 276.684255 139.08792 
L 276.914507 223.421561 
L 277.144758 154.940919 
L 277.835513 202.445994 
L 278.296015 161.419234 
L 278.526267 169.715482 
L 279.677524 205.142082 
L 280.138027 173.662556 
L 281.749787 194.142042 
L 282.440542 209.240136 
L 282.670793 220.186255 
L 283.131296 195.166556 
L 284.282553 164.579434 
L 284.512805 192.093015 
L 284.973308 225.84804 
L 285.43381 152.119013 
L 286.124565 111.91135 
L 286.585068 171.838652 
L 286.815319 180.02802 
L 287.736325 129.41795 
L 287.966576 148.362463 
L 288.427079 158.014459 
L 288.657331 195.565577 
L 289.348085 168.219153 
L 289.808588 207.245031 
L 291.190097 180.985131 
L 291.420348 191.068502 
L 292.111103 208.43131 
L 292.571605 202.958251 
L 292.801857 152.325713 
L 293.032108 207.622483 
L 293.26236 184.840538 
L 293.492611 187.833196 
L 293.722863 180.93121 
L 294.643868 191.607719 
L 294.87412 225.794118 
L 295.564874 167.612534 
L 295.795126 196.892052 
L 296.025377 191.877328 
L 296.255629 199.88471 
L 296.48588 112.693216 
L 296.716132 125.014339 
L 297.637137 129.435924 
L 299.018646 117.195683 
L 299.7094 213.877408 
L 300.400155 150.303647 
L 300.630406 152.730126 
L 301.090909 204.387178 
L 302.011915 150.681099 
L 303.393424 220.455864 
L 304.084178 112.935864 
L 305.235435 203.039133 
L 305.92619 175.316606 
L 306.156441 192.200859 
L 307.077447 154.186014 
L 307.53795 162.058592 
L 307.998453 181.928762 
L 308.689207 295.488 
L 309.840464 214.416626 
L 310.070716 187.186134 
L 310.300967 111.196887 
L 310.76147 176.078251 
L 310.991721 130.460437 
L 311.912727 203.416586 
L 312.142979 170.686074 
L 312.603482 171.883137 
L 312.833733 197.458231 
L 313.294236 211.612694 
L 313.524487 89.156365 
L 313.754739 161.303687 
L 314.445493 119.783928 
L 314.675745 185.191029 
L 315.366499 145.747258 
L 315.59675 103.607398 
L 316.287505 197.970487 
L 317.438762 134.046235 
L 317.669014 178.531691 
L 318.590019 174.746383 
L 319.511025 198.294018 
L 320.662282 231.078451 
L 321.122785 199.911671 
L 321.353037 138.548702 
L 322.964797 245.313797 
L 323.655551 134.288883 
L 325.497563 205.843065 
L 326.879072 202.553838 
L 327.109323 157.259555 
L 327.569826 123.180999 
L 330.332843 163.047157 
L 330.563095 190.070949 
L 332.635358 182.76455 
L 333.786615 160.899274 
L 335.168124 198.401862 
L 335.398375 103.715242 
L 335.858878 172.546375 
L 337.010135 191.823406 
L 337.470638 227.088241 
L 339.773153 150.627178 
L 340.694159 156.693376 
L 345.759691 185.945934 
L 347.601702 190.475362 
L 347.831954 184.92142 
L 349.673965 156.073276 
L 351.285725 198.455783 
L 352.897485 168.097829 
L 353.818491 198.186175 
L 354.969749 174.730207 
L 357.732766 181.578271 
L 359.114275 222.531852 
L 359.574778 177.318451 
L 360.495783 185.972895 
L 361.416789 163.784088 
L 362.568046 191.122423 
L 363.258801 189.127318 
L 364.179807 148.632072 
L 364.410058 198.995001 
L 364.640309 274.054098 
L 368.094081 159.955643 
L 369.245338 190.313597 
L 372.008356 183.465533 
L 374.080619 215.872514 
L 376.152882 206.058752 
L 378.225145 85.597529 
L 378.685648 142.943326 
L 380.757911 203.200899 
L 382.830174 212.583286 
L 386.9747 198.995001 
L 391.119226 192.308702 
L 398.487273 178.558652 
L 398.487273 178.558652 
" style="fill:none;stroke:#0000ff;stroke-linecap:square;stroke-width:1.5;"/>
   </g>
   <g id="patch_3">
    <path d="M 57.6 307.584 
L 57.6 41.472 
" style="fill:none;stroke:#000000;stroke-linecap:square;stroke-linejoin:miter;stroke-width:0.8;"/>
   </g>
   <g id="patch_4">
    <path d="M 414.72 307.584 
L 414.72 41.472 
" style="fill:none;stroke:#000000;stroke-linecap:square;stroke-linejoin:miter;stroke-width:0.8;"/>
   </g>
   <g id="patch_5">
    <path d="M 57.6 307.584 
L 414.72 307.584 
" style="fill:none;stroke:#000000;stroke-linecap:square;stroke-linejoin:miter;stroke-width:0.8;"/>
   </g>
   <g id="patch_6">
    <path d="M 57.6 41.472 
L 414.72 41.472 
" style="fill:none;stroke:#000000;stroke-linecap:square;stroke-linejoin:miter;stroke-width:0.8;"/>
   </g>
   <g id="text_18">
    <!-- temperature-&gt;ping_night -->
    <g transform="translate(159.735938 35.472)scale(0.12 -0.12)">
     <defs>
      <path d="M 313 2009 
L 1997 2009 
L 1997 1497 
L 313 1497 
L 313 2009 
z
" id="DejaVuSans-2d" transform="scale(0.015625)"/>
      <path d="M 678 3150 
L 678 3719 
L 4684 2266 
L 4684 1747 
L 678 294 
L 678 863 
L 3897 2003 
L 678 3150 
z
" id="DejaVuSans-3e" transform="scale(0.015625)"/>
      <path d="M 603 3500 
L 1178 3500 
L 1178 0 
L 603 0 
L 603 3500 
z
M 603 4863 
L 1178 4863 
L 1178 4134 
L 603 4134 
L 603 4863 
z
" id="DejaVuSans-69" transform="scale(0.015625)"/>
      <path d="M 2906 1791 
Q 2906 2416 2648 2759 
Q 2391 3103 1925 3103 
Q 1463 3103 1205 2759 
Q 947 2416 947 1791 
Q 947 1169 1205 825 
Q 1463 481 1925 481 
Q 2391 481 2648 825 
Q 2906 1169 2906 1791 
z
M 3481 434 
Q 3481 -459 3084 -895 
Q 2688 -1331 1869 -1331 
Q 1566 -1331 1297 -1286 
Q 1028 -1241 775 -1147 
L 775 -588 
Q 1028 -725 1275 -790 
Q 1522 -856 1778 -856 
Q 2344 -856 2625 -561 
Q 2906 -266 2906 331 
L 2906 616 
Q 2728 306 2450 153 
Q 2172 0 1784 0 
Q 1141 0 747 490 
Q 353 981 353 1791 
Q 353 2603 747 3093 
Q 1141 3584 1784 3584 
Q 2172 3584 2450 3431 
Q 2728 3278 2906 2969 
L 2906 3500 
L 3481 3500 
L 3481 434 
z
" id="DejaVuSans-67" transform="scale(0.015625)"/>
      <path d="M 3263 -1063 
L 3263 -1509 
L -63 -1509 
L -63 -1063 
L 3263 -1063 
z
" id="DejaVuSans-5f" transform="scale(0.015625)"/>
     </defs>
     <use xlink:href="#DejaVuSans-74"/>
     <use x="39.208984" xlink:href="#DejaVuSans-65"/>
     <use x="100.732422" xlink:href="#DejaVuSans-6d"/>
     <use x="198.144531" xlink:href="#DejaVuSans-70"/>
     <use x="261.621094" xlink:href="#DejaVuSans-65"/>
     <use x="323.144531" xlink:href="#DejaVuSans-72"/>
     <use x="364.257812" xlink:href="#DejaVuSans-61"/>
     <use x="425.537109" xlink:href="#DejaVuSans-74"/>
     <use x="464.746094" xlink:href="#DejaVuSans-75"/>
     <use x="528.125" xlink:href="#DejaVuSans-72"/>
     <use x="566.988281" xlink:href="#DejaVuSans-65"/>
     <use x="628.511719" xlink:href="#DejaVuSans-2d"/>
     <use x="664.595703" xlink:href="#DejaVuSans-3e"/>
     <use x="748.384766" xlink:href="#DejaVuSans-70"/>
     <use x="811.861328" xlink:href="#DejaVuSans-69"/>
     <use x="839.644531" xlink:href="#DejaVuSans-6e"/>
     <use x="903.023438" xlink:href="#DejaVuSans-67"/>
     <use x="966.5" xlink:href="#DejaVuSans-5f"/>
     <use x="1016.5" xlink:href="#DejaVuSans-6e"/>
     <use x="1079.878906" xlink:href="#DejaVuSans-69"/>
     <use x="1107.662109" xlink:href="#DejaVuSans-67"/>
     <use x="1171.138672" xlink:href="#DejaVuSans-68"/>
     <use x="1234.517578" xlink:href="#DejaVuSans-74"/>
    </g>
   </g>
  </g>
  <g id="legend_1">
   <g id="patch_7">
    <path d="M 415.451563 22.678125 
L 453.8 22.678125 
Q 455.8 22.678125 455.8 20.678125 
L 455.8 7 
Q 455.8 5 453.8 5 
L 415.451563 5 
Q 413.451563 5 413.451563 7 
L 413.451563 20.678125 
Q 413.451563 22.678125 415.451563 22.678125 
z
" style="fill:#ffffff;opacity:0.8;stroke:#cccccc;stroke-linejoin:miter;"/>
   </g>
   <g id="line2d_18">
    <path d="M 417.451563 13.098438 
L 437.451563 13.098438 
" style="fill:none;stroke:#0000ff;stroke-linecap:square;stroke-width:1.5;"/>
   </g>
   <g id="line2d_19"/>
   <g id="text_19">
    <!-- p -->
    <g transform="translate(445.451563 16.598438)scale(0.1 -0.1)">
     <use xlink:href="#DejaVuSans-70"/>
    </g>
   </g>
  </g>
 </g>
 <defs>
  <clipPath id="p44f693a4f2">
   <rect height="266.112" width="357.12" x="57.6" y="41.472"/>
  </clipPath>
 </defs>
</svg>
