<?xml version="1.0" encoding="utf-8" standalone="no"?>
<!DOCTYPE svg PUBLIC "-//W3C//DTD SVG 1.1//EN"
  "http://www.w3.org/Graphics/SVG/1.1/DTD/svg11.dtd">
<!-- Created with matplotlib (https://matplotlib.org/) -->
<svg height="2090.594375pt" version="1.1" viewBox="0 0 2062.259375 2090.594375" width="2062.259375pt" xmlns="http://www.w3.org/2000/svg" xmlns:xlink="http://www.w3.org/1999/xlink">
 <metadata>
  <rdf:RDF xmlns:cc="http://creativecommons.org/ns#" xmlns:dc="http://purl.org/dc/elements/1.1/" xmlns:rdf="http://www.w3.org/1999/02/22-rdf-syntax-ns#">
   <cc:Work>
    <dc:type rdf:resource="http://purl.org/dc/dcmitype/StillImage"/>
    <dc:date>2022-07-23T21:13:38.466088</dc:date>
    <dc:format>image/svg+xml</dc:format>
    <dc:creator>
     <cc:Agent>
      <dc:title>Matplotlib v3.3.2, https://matplotlib.org/</dc:title>
     </cc:Agent>
    </dc:creator>
   </cc:Work>
  </rdf:RDF>
 </metadata>
 <defs>
  <style type="text/css">*{stroke-linecap:butt;stroke-linejoin:round;}</style>
 </defs>
 <g id="figure_1">
  <g id="patch_1">
   <path d="M 0 2090.594375 
L 2062.259375 2090.594375 
L 2062.259375 0 
L 0 0 
z
" style="fill:#ffffff;"/>
  </g>
  <g id="axes_1">
   <g id="patch_2">
    <path d="M 44.059375 2052.76 
L 1829.659375 2052.76 
L 1829.659375 278.68 
L 44.059375 278.68 
z
" style="fill:#ffffff;"/>
   </g>
   <g id="matplotlib.axis_1">
    <g id="xtick_1">
     <g id="line2d_1">
      <defs>
       <path d="M 0 0 
L 0 3.5 
" id="m0d34798430" style="stroke:#000000;stroke-width:0.8;"/>
      </defs>
      <g>
       <use style="stroke:#000000;stroke-width:0.8;" x="49.136347" xlink:href="#m0d34798430" y="2052.76"/>
      </g>
     </g>
     <g id="text_1">
      <text style="font-family:DejaVu Sans;font-size:10px;font-stretch:normal;font-style:normal;font-weight:normal;text-anchor:middle;" transform="rotate(-0, 49.136347, 2067.358437)" x="49.136347" y="2067.358437">0</text>
     </g>
    </g>
    <g id="xtick_2">
     <g id="line2d_2">
      <g>
       <use style="stroke:#000000;stroke-width:0.8;" x="411.819935" xlink:href="#m0d34798430" y="2052.76"/>
      </g>
     </g>
     <g id="text_2">
      <text style="font-family:DejaVu Sans;font-size:10px;font-stretch:normal;font-style:normal;font-weight:normal;text-anchor:middle;" transform="rotate(-0, 411.819935, 2067.358437)" x="411.819935" y="2067.358437">2</text>
     </g>
    </g>
    <g id="xtick_3">
     <g id="line2d_3">
      <g>
       <use style="stroke:#000000;stroke-width:0.8;" x="774.503523" xlink:href="#m0d34798430" y="2052.76"/>
      </g>
     </g>
     <g id="text_3">
      <text style="font-family:DejaVu Sans;font-size:10px;font-stretch:normal;font-style:normal;font-weight:normal;text-anchor:middle;" transform="rotate(-0, 774.503523, 2067.358437)" x="774.503523" y="2067.358437">4</text>
     </g>
    </g>
    <g id="xtick_4">
     <g id="line2d_4">
      <g>
       <use style="stroke:#000000;stroke-width:0.8;" x="1137.187111" xlink:href="#m0d34798430" y="2052.76"/>
      </g>
     </g>
     <g id="text_4">
      <text style="font-family:DejaVu Sans;font-size:10px;font-stretch:normal;font-style:normal;font-weight:normal;text-anchor:middle;" transform="rotate(-0, 1137.187111, 2067.358437)" x="1137.187111" y="2067.358437">6</text>
     </g>
    </g>
    <g id="xtick_5">
     <g id="line2d_5">
      <g>
       <use style="stroke:#000000;stroke-width:0.8;" x="1499.870699" xlink:href="#m0d34798430" y="2052.76"/>
      </g>
     </g>
     <g id="text_5">
      <text style="font-family:DejaVu Sans;font-size:10px;font-stretch:normal;font-style:normal;font-weight:normal;text-anchor:middle;" transform="rotate(-0, 1499.870699, 2067.358437)" x="1499.870699" y="2067.358437">8</text>
     </g>
    </g>
    <g id="text_6">
     <text style="font-family:DejaVu Sans;font-size:10px;font-stretch:normal;font-style:normal;font-weight:normal;text-anchor:middle;" transform="rotate(-0, 936.859375, 2081.036562)" x="936.859375" y="2081.036562">wind_speed from WeatherBitIO</text>
    </g>
   </g>
   <g id="matplotlib.axis_2">
    <g id="ytick_1">
     <g id="line2d_6">
      <defs>
       <path d="M 0 0 
L -3.5 0 
" id="m483c584229" style="stroke:#000000;stroke-width:0.8;"/>
      </defs>
      <g>
       <use style="stroke:#000000;stroke-width:0.8;" x="44.059375" xlink:href="#m483c584229" y="1844.630292"/>
      </g>
     </g>
     <g id="text_7">
      <text style="font-family:DejaVu Sans;font-size:10px;font-stretch:normal;font-style:normal;font-weight:normal;text-anchor:end;" transform="rotate(-0, 37.059375, 1848.42951)" x="37.059375" y="1848.42951">4.2</text>
     </g>
    </g>
    <g id="ytick_2">
     <g id="line2d_7">
      <g>
       <use style="stroke:#000000;stroke-width:0.8;" x="44.059375" xlink:href="#m483c584229" y="1513.488192"/>
      </g>
     </g>
     <g id="text_8">
      <text style="font-family:DejaVu Sans;font-size:10px;font-stretch:normal;font-style:normal;font-weight:normal;text-anchor:end;" transform="rotate(-0, 37.059375, 1517.287411)" x="37.059375" y="1517.287411">4.4</text>
     </g>
    </g>
    <g id="ytick_3">
     <g id="line2d_8">
      <g>
       <use style="stroke:#000000;stroke-width:0.8;" x="44.059375" xlink:href="#m483c584229" y="1182.346093"/>
      </g>
     </g>
     <g id="text_9">
      <text style="font-family:DejaVu Sans;font-size:10px;font-stretch:normal;font-style:normal;font-weight:normal;text-anchor:end;" transform="rotate(-0, 37.059375, 1186.145312)" x="37.059375" y="1186.145312">4.6</text>
     </g>
    </g>
    <g id="ytick_4">
     <g id="line2d_9">
      <g>
       <use style="stroke:#000000;stroke-width:0.8;" x="44.059375" xlink:href="#m483c584229" y="851.203993"/>
      </g>
     </g>
     <g id="text_10">
      <text style="font-family:DejaVu Sans;font-size:10px;font-stretch:normal;font-style:normal;font-weight:normal;text-anchor:end;" transform="rotate(-0, 37.059375, 855.003212)" x="37.059375" y="855.003212">4.8</text>
     </g>
    </g>
    <g id="ytick_5">
     <g id="line2d_10">
      <g>
       <use style="stroke:#000000;stroke-width:0.8;" x="44.059375" xlink:href="#m483c584229" y="520.061894"/>
      </g>
     </g>
     <g id="text_11">
      <text style="font-family:DejaVu Sans;font-size:10px;font-stretch:normal;font-style:normal;font-weight:normal;text-anchor:end;" transform="rotate(-0, 37.059375, 523.861113)" x="37.059375" y="523.861113">5.0</text>
     </g>
    </g>
    <g id="text_12">
     <text style="font-family:DejaVu Sans;font-size:10px;font-stretch:normal;font-style:normal;font-weight:normal;text-anchor:middle;" transform="rotate(-90, 14.798438, 1165.72)" x="14.798438" y="1165.72">ping_night[ms]</text>
    </g>
   </g>
   <g id="line2d_11">
    <path clip-path="url(#pdf5ffa817b)" d="M 125.223011 971.769822 
L 147.304639 1184.001803 
L 155.7218 1381.031353 
L 157.722544 1151.038113 
L 194.057999 1164.409229 
L 197.310908 1295.48631 
L 200.781427 1352.884274 
L 209.679144 1633.251252 
L 217.486271 1129.547325 
L 218.40785 1592.36022 
L 219.650948 1324.323268 
L 223.631219 1548.408632 
L 233.510176 1380.065521 
L 234.503929 1201.110812 
L 236.721739 1327.66653 
L 237.978437 914.120992 
L 241.4602 1227.050276 
L 242.653429 1360.886875 
L 245.866805 1409.305793 
L 247.061848 1273.962074 
L 249.265151 1484.306295 
L 254.81421 1063.466079 
L 255.378183 1423.606765 
L 257.936915 904.048754 
L 258.812796 1122.556547 
L 261.984464 1106.597338 
L 262.238343 1141.505234 
L 273.071701 1419.802573 
L 278.417657 1276.169688 
L 280.410604 1579.992564 
L 282.307439 1382.805328 
L 283.431758 1381.583256 
L 287.537336 1401.136409 
L 287.667902 1157.37246 
L 288.589119 939.646529 
L 292.462579 1336.051217 
L 293.235095 1431.084755 
L 294.078335 1230.834757 
L 296.734992 922.636075 
L 301.680183 1039.95499 
L 301.781734 568.841673 
L 302.207887 1403.935348 
L 306.407763 1549.545888 
L 306.922774 1303.664517 
L 308.442418 773.247624 
L 309.69549 1416.215201 
L 310.281224 1367.647693 
L 311.119023 1006.012925 
L 314.673322 1106.18341 
L 315.915514 643.826254 
L 316.717044 1972.12 
L 316.727925 1268.443039 
L 318.564917 1119.730132 
L 319.47344 1261.489055 
L 320.800862 794.909837 
L 321.47908 1402.058876 
L 321.577004 1294.33233 
L 323.967089 1428.44488 
L 324.826649 1341.708228 
L 329.519775 890.757078 
L 329.668475 1464.920684 
L 330.852637 1120.138684 
L 332.77486 1655.713724 
L 332.910867 1262.966458 
L 333.132104 1104.5277 
L 333.231842 1366.581515 
L 333.371475 875.07382 
L 334.445018 1180.000503 
L 334.686203 1495.275377 
L 336.865931 1130.329188 
L 339.379328 860.628807 
L 344.970096 1054.994361 
L 345.058953 1340.052518 
L 345.060767 1067.274213 
L 347.302151 1156.351438 
L 349.56711 1080.519897 
L 350.522782 741.927101 
L 350.744019 905.691921 
L 353.696263 993.595096 
L 354.566704 1418.615981 
L 354.601159 1204.698185 
L 358.585238 1116.418711 
L 358.893519 1354.264033 
L 361.370648 1262.786028 
L 362.068814 1148.679979 
L 362.986403 1505.761543 
L 363.35634 1184.829659 
L 367.835483 873.280133 
L 370.122203 359.32 
L 370.938241 1374.408511 
L 373.823389 1054.166505 
L 374.98579 1302.385104 
L 375.236041 1216.288158 
L 377.020445 1439.809075 
L 377.491933 1435.669799 
L 381.831442 1317.010547 
L 383.597711 1367.785669 
L 383.693823 1603.047078 
L 383.869724 1477.982401 
L 385.860857 1092.109871 
L 388.455858 1283.178862 
L 391.672861 1709.068995 
L 392.762726 1167.444698 
L 393.362967 1525.354118 
L 393.758292 1015.119333 
L 394.235221 1235.659971 
L 394.427443 1410.006286 
L 395.782067 1112.254349 
L 399.680915 1213.095002 
L 399.856817 1039.95499 
L 401.086314 1354.402009 
L 402.906986 1283.068481 
L 408.341799 1498.91794 
L 411.377461 1438.484507 
L 411.78004 1314.501894 
L 416.340786 1258.508776 
L 416.703469 1220.427434 
L 421.255148 1450.295242 
L 424.923693 1594.01593 
L 427.874124 961.805455 
L 429.747385 1587.33288 
L 433.123969 1513.695156 
L 435.633739 1596.273717 
L 435.780626 617.2521 
L 436.422576 1127.845622 
L 437.416329 1192.731913 
L 437.503373 1317.700426 
L 440.51002 1414.697466 
L 442.925493 1297.417972 
L 449.611565 1352.884274 
L 450.462058 1085.073101 
L 453.0897 1476.44167 
L 455.599471 1045.868242 
L 456.513433 1408.488552 
L 459.391328 812.8467 
L 462.006276 1146.748317 
L 462.528541 1361.162827 
L 464.604904 1464.000845 
L 465.760051 535.23924 
L 467.903511 1248.206577 
L 468.750378 1462.161167 
L 475.042938 1362.197646 
L 476.143683 810.777062 
L 477.338725 1262.740036 
L 479.444103 1310.387705 
L 483.703822 1484.588518 
L 485.800133 899.219598 
L 487.125742 1217.116013 
L 488.641759 720.816792 
L 489.376193 991.773815 
L 493.788239 1270.236725 
L 495.67238 945.027588 
L 499.796093 495.226237 
L 500.535967 1165.279539 
L 500.543221 1914.170133 
L 500.753577 1218.440582 
L 505.925445 1371.09709 
L 519.671153 1130.687925 
L 522.338691 1372.7528 
L 522.786605 1209.783581 
L 526.271995 1535.840284 
L 532.227259 1049.475326 
L 536.641118 1079.554066 
L 537.981234 1305.223465 
L 538.041077 1446.431917 
L 542.52566 1250.079704 
L 549.665086 1208.98798 
L 550.031397 1394.82894 
L 550.132948 1310.525681 
L 551.304416 718.983684 
L 551.786785 1187.313224 
L 553.087006 1268.856966 
L 557.956033 1209.740576 
L 558.1138 866.105388 
L 558.597983 1167.941412 
L 566.734789 1663.329992 
L 567.269747 1206.685037 
L 568.210911 1599.088425 
L 572.097066 1394.644972 
L 573.020096 1415.635702 
L 573.573188 1342.003891 
L 576.073892 1452.088928 
L 579.878442 1441.109991 
L 580.358998 1558.606303 
L 580.904837 1489.572374 
L 584.961453 1009.876249 
L 585.568948 1302.610883 
L 585.815573 1262.004165 
L 586.214525 1271.202556 
L 586.733162 892.412788 
L 587.362418 710.468601 
L 587.520186 1326.806834 
L 591.166969 1307.126457 
L 591.886896 1234.997687 
L 592.089999 981.453219 
L 592.505272 781.333011 
L 594.133721 1370.931519 
L 594.177243 936.536765 
L 595.044057 1217.116013 
L 595.789371 1303.764863 
L 598.275567 1191.134095 
L 598.674519 1336.778727 
L 604.136534 449.97015 
L 605.012415 1417.155945 
L 612.538099 865.954869 
L 613.747649 1106.301675 
L 613.985207 1294.658455 
L 614.536486 1220.979338 
L 614.632597 1288.173589 
L 617.523185 1295.624286 
L 620.361184 1430.150764 
L 624.651731 789.390802 
L 632.251766 1483.023119 
L 650.148388 1167.062611 
L 650.683346 1280.334051 
L 654.214071 1219.461603 
L 669.907389 1629.387927 
L 676.372224 1118.128179 
L 677.304321 1192.418332 
L 677.35147 1587.167309 
L 697.77237 670.179646 
L 714.443121 1485.893017 
L 717.130606 1315.722772 
L 725.633723 1681.661073 
L 734.144093 1087.639452 
L 741.531958 942.268071 
L 747.360283 1160.940121 
L 747.984099 886.893753 
L 751.164834 1284.290554 
L 769.512997 908.389687 
L 773.988512 1449.246625 
L 782.437226 1340.190494 
L 785.148286 1261.519158 
L 803.74126 1209.389364 
L 803.846438 1526.733876 
L 806.842205 1500.426476 
L 807.409805 1389.999784 
L 808.840591 1425.735536 
L 810.371116 1659.74262 
L 817.078949 957.678915 
L 820.703972 1318.666257 
L 820.732986 1438.153365 
L 823.411405 1471.977165 
L 824.044288 1348.413856 
L 829.475474 1269.362878 
L 832.558285 1268.744077 
L 836.986651 1392.069423 
L 840.618927 1100.91524 
L 846.338448 789.777134 
L 846.474454 1426.563391 
L 848.02674 1385.032653 
L 848.452893 1280.860867 
L 850.538324 1277.457463 
L 851.590106 415.752133 
L 860.051514 1147.576172 
L 862.425278 737.291111 
L 868.041434 1441.14638 
L 872.079915 1381.196924 
L 882.349301 1536.668139 
L 883.205234 691.262359 
L 894.448426 1336.879073 
L 897.134098 954.494856 
L 897.721645 1482.029693 
L 902.554404 1435.83537 
L 906.384342 957.42419 
L 914.947302 889.435854 
L 923.386949 1271.892436 
L 924.315419 1210.493171 
L 925.666415 1453.882614 
L 928.428251 928.570829 
L 929.276931 1087.85233 
L 940.70509 1420.147513 
L 952.347234 1302.576147 
L 954.768147 1282.441318 
L 955.234195 948.339009 
L 956.99321 1218.587756 
L 980.12517 1254.093548 
L 985.792101 899.219598 
L 989.047186 1313.423174 
L 993.181779 1293.071732 
L 997.693563 1177.077923 
L 999.487033 1127.858166 
L 1001.808208 1326.543425 
L 1002.927087 712.575869 
L 1008.220454 1059.974035 
L 1020.120102 1247.300889 
L 1043.748938 1198.903198 
L 1057.902665 1333.14311 
L 1059.545622 1207.332269 
L 1063.524261 1171.46571 
L 1072.440837 1160.069261 
L 1099.620345 993.595096 
L 1119.756538 1476.09673 
L 1127.751897 966.137897 
L 1131.491165 562.00656 
L 1157.005955 469.728295 
L 1183.407507 1104.665675 
L 1195.533833 884.456179 
L 1270.114273 1445.152505 
L 1323.845846 1544.21082 
L 1350.92743 1528.665539 
L 1748.495739 1391.116135 
L 1748.495739 1391.116135 
" style="fill:none;stroke:#0000ff;stroke-linecap:square;stroke-width:1.5;"/>
   </g>
   <g id="patch_3">
    <path d="M 44.059375 2052.76 
L 44.059375 278.68 
" style="fill:none;stroke:#000000;stroke-linecap:square;stroke-linejoin:miter;stroke-width:0.8;"/>
   </g>
   <g id="patch_4">
    <path d="M 1829.659375 2052.76 
L 1829.659375 278.68 
" style="fill:none;stroke:#000000;stroke-linecap:square;stroke-linejoin:miter;stroke-width:0.8;"/>
   </g>
   <g id="patch_5">
    <path d="M 44.059375 2052.76 
L 1829.659375 2052.76 
" style="fill:none;stroke:#000000;stroke-linecap:square;stroke-linejoin:miter;stroke-width:0.8;"/>
   </g>
   <g id="patch_6">
    <path d="M 44.059375 278.68 
L 1829.659375 278.68 
" style="fill:none;stroke:#000000;stroke-linecap:square;stroke-linejoin:miter;stroke-width:0.8;"/>
   </g>
   <g id="text_13">
    <text style="font-family:DejaVu Sans;font-size:12px;font-stretch:normal;font-style:normal;font-weight:normal;text-anchor:middle;" transform="rotate(-0, 936.859375, 272.68)" x="936.859375" y="272.68">wind_speed-&gt;ping_night</text>
   </g>
  </g>
  <g id="legend_1">
   <g id="patch_7">
    <path d="M 1947.971875 22.95625 
L 2055.259375 22.95625 
Q 2057.259375 22.95625 2057.259375 20.95625 
L 2057.259375 7 
Q 2057.259375 5 2055.259375 5 
L 1947.971875 5 
Q 1945.971875 5 1945.971875 7 
L 1945.971875 20.95625 
Q 1945.971875 22.95625 1947.971875 22.95625 
z
" style="fill:#ffffff;opacity:0.8;stroke:#cccccc;stroke-linejoin:miter;"/>
   </g>
   <g id="line2d_12">
    <path d="M 1949.971875 13.098438 
L 1969.971875 13.098438 
" style="fill:none;stroke:#0000ff;stroke-linecap:square;stroke-width:1.5;"/>
   </g>
   <g id="line2d_13"/>
   <g id="text_14">
    <text style="font-family:DejaVu Sans;font-size:10px;font-stretch:normal;font-style:normal;font-weight:normal;text-anchor:start;" transform="rotate(-0, 1977.971875, 16.598438)" x="1977.971875" y="16.598438">ping_night[ms]</text>
   </g>
  </g>
 </g>
 <defs>
  <clipPath id="pdf5ffa817b">
   <rect height="1774.08" width="1785.6" x="44.059375" y="278.68"/>
  </clipPath>
 </defs>
</svg>
