<?xml version="1.0" encoding="utf-8" standalone="no"?>
<!DOCTYPE svg PUBLIC "-//W3C//DTD SVG 1.1//EN"
  "http://www.w3.org/Graphics/SVG/1.1/DTD/svg11.dtd">
<!-- Created with matplotlib (https://matplotlib.org/) -->
<svg height="345.6pt" version="1.1" viewBox="0 0 460.8 345.6" width="460.8pt" xmlns="http://www.w3.org/2000/svg" xmlns:xlink="http://www.w3.org/1999/xlink">
 <metadata>
  <rdf:RDF xmlns:cc="http://creativecommons.org/ns#" xmlns:dc="http://purl.org/dc/elements/1.1/" xmlns:rdf="http://www.w3.org/1999/02/22-rdf-syntax-ns#">
   <cc:Work>
    <dc:type rdf:resource="http://purl.org/dc/dcmitype/StillImage"/>
    <dc:date>2022-07-16T13:55:30.736625</dc:date>
    <dc:format>image/svg+xml</dc:format>
    <dc:creator>
     <cc:Agent>
      <dc:title>Matplotlib v3.3.2, https://matplotlib.org/</dc:title>
     </cc:Agent>
    </dc:creator>
   </cc:Work>
  </rdf:RDF>
 </metadata>
 <defs>
  <style type="text/css">*{stroke-linecap:butt;stroke-linejoin:round;}</style>
 </defs>
 <g id="figure_1">
  <g id="patch_1">
   <path d="M 0 345.6 
L 460.8 345.6 
L 460.8 0 
L 0 0 
z
" style="fill:#ffffff;"/>
  </g>
  <g id="axes_1">
   <g id="patch_2">
    <path d="M 57.6 307.584 
L 414.72 307.584 
L 414.72 41.472 
L 57.6 41.472 
z
" style="fill:#ffffff;"/>
   </g>
   <g id="matplotlib.axis_1">
    <g id="xtick_1">
     <g id="line2d_1">
      <defs>
       <path d="M 0 0 
L 0 3.5 
" id="m9bf288e6c3" style="stroke:#000000;stroke-width:0.8;"/>
      </defs>
      <g>
       <use style="stroke:#000000;stroke-width:0.8;" x="89.413493" xlink:href="#m9bf288e6c3" y="307.584"/>
      </g>
     </g>
     <g id="text_1">
      <!-- 995 -->
      <g transform="translate(79.869743 322.182437)scale(0.1 -0.1)">
       <defs>
        <path d="M 10.984375 1.515625 
L 10.984375 10.5 
Q 14.703125 8.734375 18.5 7.8125 
Q 22.3125 6.890625 25.984375 6.890625 
Q 35.75 6.890625 40.890625 13.453125 
Q 46.046875 20.015625 46.78125 33.40625 
Q 43.953125 29.203125 39.59375 26.953125 
Q 35.25 24.703125 29.984375 24.703125 
Q 19.046875 24.703125 12.671875 31.3125 
Q 6.296875 37.9375 6.296875 49.421875 
Q 6.296875 60.640625 12.9375 67.421875 
Q 19.578125 74.21875 30.609375 74.21875 
Q 43.265625 74.21875 49.921875 64.515625 
Q 56.59375 54.828125 56.59375 36.375 
Q 56.59375 19.140625 48.40625 8.859375 
Q 40.234375 -1.421875 26.421875 -1.421875 
Q 22.703125 -1.421875 18.890625 -0.6875 
Q 15.09375 0.046875 10.984375 1.515625 
z
M 30.609375 32.421875 
Q 37.25 32.421875 41.125 36.953125 
Q 45.015625 41.5 45.015625 49.421875 
Q 45.015625 57.28125 41.125 61.84375 
Q 37.25 66.40625 30.609375 66.40625 
Q 23.96875 66.40625 20.09375 61.84375 
Q 16.21875 57.28125 16.21875 49.421875 
Q 16.21875 41.5 20.09375 36.953125 
Q 23.96875 32.421875 30.609375 32.421875 
z
" id="DejaVuSans-57"/>
        <path d="M 10.796875 72.90625 
L 49.515625 72.90625 
L 49.515625 64.59375 
L 19.828125 64.59375 
L 19.828125 46.734375 
Q 21.96875 47.46875 24.109375 47.828125 
Q 26.265625 48.1875 28.421875 48.1875 
Q 40.625 48.1875 47.75 41.5 
Q 54.890625 34.8125 54.890625 23.390625 
Q 54.890625 11.625 47.5625 5.09375 
Q 40.234375 -1.421875 26.90625 -1.421875 
Q 22.3125 -1.421875 17.546875 -0.640625 
Q 12.796875 0.140625 7.71875 1.703125 
L 7.71875 11.625 
Q 12.109375 9.234375 16.796875 8.0625 
Q 21.484375 6.890625 26.703125 6.890625 
Q 35.15625 6.890625 40.078125 11.328125 
Q 45.015625 15.765625 45.015625 23.390625 
Q 45.015625 31 40.078125 35.4375 
Q 35.15625 39.890625 26.703125 39.890625 
Q 22.75 39.890625 18.8125 39.015625 
Q 14.890625 38.140625 10.796875 36.28125 
z
" id="DejaVuSans-53"/>
       </defs>
       <use xlink:href="#DejaVuSans-57"/>
       <use x="63.623047" xlink:href="#DejaVuSans-57"/>
       <use x="127.246094" xlink:href="#DejaVuSans-53"/>
      </g>
     </g>
    </g>
    <g id="xtick_2">
     <g id="line2d_2">
      <g>
       <use style="stroke:#000000;stroke-width:0.8;" x="144.664437" xlink:href="#m9bf288e6c3" y="307.584"/>
      </g>
     </g>
     <g id="text_2">
      <!-- 1000 -->
      <g transform="translate(131.939437 322.182437)scale(0.1 -0.1)">
       <defs>
        <path d="M 12.40625 8.296875 
L 28.515625 8.296875 
L 28.515625 63.921875 
L 10.984375 60.40625 
L 10.984375 69.390625 
L 28.421875 72.90625 
L 38.28125 72.90625 
L 38.28125 8.296875 
L 54.390625 8.296875 
L 54.390625 0 
L 12.40625 0 
z
" id="DejaVuSans-49"/>
        <path d="M 31.78125 66.40625 
Q 24.171875 66.40625 20.328125 58.90625 
Q 16.5 51.421875 16.5 36.375 
Q 16.5 21.390625 20.328125 13.890625 
Q 24.171875 6.390625 31.78125 6.390625 
Q 39.453125 6.390625 43.28125 13.890625 
Q 47.125 21.390625 47.125 36.375 
Q 47.125 51.421875 43.28125 58.90625 
Q 39.453125 66.40625 31.78125 66.40625 
z
M 31.78125 74.21875 
Q 44.046875 74.21875 50.515625 64.515625 
Q 56.984375 54.828125 56.984375 36.375 
Q 56.984375 17.96875 50.515625 8.265625 
Q 44.046875 -1.421875 31.78125 -1.421875 
Q 19.53125 -1.421875 13.0625 8.265625 
Q 6.59375 17.96875 6.59375 36.375 
Q 6.59375 54.828125 13.0625 64.515625 
Q 19.53125 74.21875 31.78125 74.21875 
z
" id="DejaVuSans-48"/>
       </defs>
       <use xlink:href="#DejaVuSans-49"/>
       <use x="63.623047" xlink:href="#DejaVuSans-48"/>
       <use x="127.246094" xlink:href="#DejaVuSans-48"/>
       <use x="190.869141" xlink:href="#DejaVuSans-48"/>
      </g>
     </g>
    </g>
    <g id="xtick_3">
     <g id="line2d_3">
      <g>
       <use style="stroke:#000000;stroke-width:0.8;" x="199.915381" xlink:href="#m9bf288e6c3" y="307.584"/>
      </g>
     </g>
     <g id="text_3">
      <!-- 1005 -->
      <g transform="translate(187.190381 322.182437)scale(0.1 -0.1)">
       <use xlink:href="#DejaVuSans-49"/>
       <use x="63.623047" xlink:href="#DejaVuSans-48"/>
       <use x="127.246094" xlink:href="#DejaVuSans-48"/>
       <use x="190.869141" xlink:href="#DejaVuSans-53"/>
      </g>
     </g>
    </g>
    <g id="xtick_4">
     <g id="line2d_4">
      <g>
       <use style="stroke:#000000;stroke-width:0.8;" x="255.166325" xlink:href="#m9bf288e6c3" y="307.584"/>
      </g>
     </g>
     <g id="text_4">
      <!-- 1010 -->
      <g transform="translate(242.441325 322.182437)scale(0.1 -0.1)">
       <use xlink:href="#DejaVuSans-49"/>
       <use x="63.623047" xlink:href="#DejaVuSans-48"/>
       <use x="127.246094" xlink:href="#DejaVuSans-49"/>
       <use x="190.869141" xlink:href="#DejaVuSans-48"/>
      </g>
     </g>
    </g>
    <g id="xtick_5">
     <g id="line2d_5">
      <g>
       <use style="stroke:#000000;stroke-width:0.8;" x="310.417268" xlink:href="#m9bf288e6c3" y="307.584"/>
      </g>
     </g>
     <g id="text_5">
      <!-- 1015 -->
      <g transform="translate(297.692268 322.182437)scale(0.1 -0.1)">
       <use xlink:href="#DejaVuSans-49"/>
       <use x="63.623047" xlink:href="#DejaVuSans-48"/>
       <use x="127.246094" xlink:href="#DejaVuSans-49"/>
       <use x="190.869141" xlink:href="#DejaVuSans-53"/>
      </g>
     </g>
    </g>
    <g id="xtick_6">
     <g id="line2d_6">
      <g>
       <use style="stroke:#000000;stroke-width:0.8;" x="365.668212" xlink:href="#m9bf288e6c3" y="307.584"/>
      </g>
     </g>
     <g id="text_6">
      <!-- 1020 -->
      <g transform="translate(352.943212 322.182437)scale(0.1 -0.1)">
       <defs>
        <path d="M 19.1875 8.296875 
L 53.609375 8.296875 
L 53.609375 0 
L 7.328125 0 
L 7.328125 8.296875 
Q 12.9375 14.109375 22.625 23.890625 
Q 32.328125 33.6875 34.8125 36.53125 
Q 39.546875 41.84375 41.421875 45.53125 
Q 43.3125 49.21875 43.3125 52.78125 
Q 43.3125 58.59375 39.234375 62.25 
Q 35.15625 65.921875 28.609375 65.921875 
Q 23.96875 65.921875 18.8125 64.3125 
Q 13.671875 62.703125 7.8125 59.421875 
L 7.8125 69.390625 
Q 13.765625 71.78125 18.9375 73 
Q 24.125 74.21875 28.421875 74.21875 
Q 39.75 74.21875 46.484375 68.546875 
Q 53.21875 62.890625 53.21875 53.421875 
Q 53.21875 48.921875 51.53125 44.890625 
Q 49.859375 40.875 45.40625 35.40625 
Q 44.1875 33.984375 37.640625 27.21875 
Q 31.109375 20.453125 19.1875 8.296875 
z
" id="DejaVuSans-50"/>
       </defs>
       <use xlink:href="#DejaVuSans-49"/>
       <use x="63.623047" xlink:href="#DejaVuSans-48"/>
       <use x="127.246094" xlink:href="#DejaVuSans-50"/>
       <use x="190.869141" xlink:href="#DejaVuSans-48"/>
      </g>
     </g>
    </g>
    <g id="text_7">
     <!-- air_pressure from WeatherBitIO -->
     <g transform="translate(157.506875 335.860562)scale(0.1 -0.1)">
      <defs>
       <path d="M 34.28125 27.484375 
Q 23.390625 27.484375 19.1875 25 
Q 14.984375 22.515625 14.984375 16.5 
Q 14.984375 11.71875 18.140625 8.90625 
Q 21.296875 6.109375 26.703125 6.109375 
Q 34.1875 6.109375 38.703125 11.40625 
Q 43.21875 16.703125 43.21875 25.484375 
L 43.21875 27.484375 
z
M 52.203125 31.203125 
L 52.203125 0 
L 43.21875 0 
L 43.21875 8.296875 
Q 40.140625 3.328125 35.546875 0.953125 
Q 30.953125 -1.421875 24.3125 -1.421875 
Q 15.921875 -1.421875 10.953125 3.296875 
Q 6 8.015625 6 15.921875 
Q 6 25.140625 12.171875 29.828125 
Q 18.359375 34.515625 30.609375 34.515625 
L 43.21875 34.515625 
L 43.21875 35.40625 
Q 43.21875 41.609375 39.140625 45 
Q 35.0625 48.390625 27.6875 48.390625 
Q 23 48.390625 18.546875 47.265625 
Q 14.109375 46.140625 10.015625 43.890625 
L 10.015625 52.203125 
Q 14.9375 54.109375 19.578125 55.046875 
Q 24.21875 56 28.609375 56 
Q 40.484375 56 46.34375 49.84375 
Q 52.203125 43.703125 52.203125 31.203125 
z
" id="DejaVuSans-97"/>
       <path d="M 9.421875 54.6875 
L 18.40625 54.6875 
L 18.40625 0 
L 9.421875 0 
z
M 9.421875 75.984375 
L 18.40625 75.984375 
L 18.40625 64.59375 
L 9.421875 64.59375 
z
" id="DejaVuSans-105"/>
       <path d="M 41.109375 46.296875 
Q 39.59375 47.171875 37.8125 47.578125 
Q 36.03125 48 33.890625 48 
Q 26.265625 48 22.1875 43.046875 
Q 18.109375 38.09375 18.109375 28.8125 
L 18.109375 0 
L 9.078125 0 
L 9.078125 54.6875 
L 18.109375 54.6875 
L 18.109375 46.1875 
Q 20.953125 51.171875 25.484375 53.578125 
Q 30.03125 56 36.53125 56 
Q 37.453125 56 38.578125 55.875 
Q 39.703125 55.765625 41.0625 55.515625 
z
" id="DejaVuSans-114"/>
       <path d="M 50.984375 -16.609375 
L 50.984375 -23.578125 
L -0.984375 -23.578125 
L -0.984375 -16.609375 
z
" id="DejaVuSans-95"/>
       <path d="M 18.109375 8.203125 
L 18.109375 -20.796875 
L 9.078125 -20.796875 
L 9.078125 54.6875 
L 18.109375 54.6875 
L 18.109375 46.390625 
Q 20.953125 51.265625 25.265625 53.625 
Q 29.59375 56 35.59375 56 
Q 45.5625 56 51.78125 48.09375 
Q 58.015625 40.1875 58.015625 27.296875 
Q 58.015625 14.40625 51.78125 6.484375 
Q 45.5625 -1.421875 35.59375 -1.421875 
Q 29.59375 -1.421875 25.265625 0.953125 
Q 20.953125 3.328125 18.109375 8.203125 
z
M 48.6875 27.296875 
Q 48.6875 37.203125 44.609375 42.84375 
Q 40.53125 48.484375 33.40625 48.484375 
Q 26.265625 48.484375 22.1875 42.84375 
Q 18.109375 37.203125 18.109375 27.296875 
Q 18.109375 17.390625 22.1875 11.75 
Q 26.265625 6.109375 33.40625 6.109375 
Q 40.53125 6.109375 44.609375 11.75 
Q 48.6875 17.390625 48.6875 27.296875 
z
" id="DejaVuSans-112"/>
       <path d="M 56.203125 29.59375 
L 56.203125 25.203125 
L 14.890625 25.203125 
Q 15.484375 15.921875 20.484375 11.0625 
Q 25.484375 6.203125 34.421875 6.203125 
Q 39.59375 6.203125 44.453125 7.46875 
Q 49.3125 8.734375 54.109375 11.28125 
L 54.109375 2.78125 
Q 49.265625 0.734375 44.1875 -0.34375 
Q 39.109375 -1.421875 33.890625 -1.421875 
Q 20.796875 -1.421875 13.15625 6.1875 
Q 5.515625 13.8125 5.515625 26.8125 
Q 5.515625 40.234375 12.765625 48.109375 
Q 20.015625 56 32.328125 56 
Q 43.359375 56 49.78125 48.890625 
Q 56.203125 41.796875 56.203125 29.59375 
z
M 47.21875 32.234375 
Q 47.125 39.59375 43.09375 43.984375 
Q 39.0625 48.390625 32.421875 48.390625 
Q 24.90625 48.390625 20.390625 44.140625 
Q 15.875 39.890625 15.1875 32.171875 
z
" id="DejaVuSans-101"/>
       <path d="M 44.28125 53.078125 
L 44.28125 44.578125 
Q 40.484375 46.53125 36.375 47.5 
Q 32.28125 48.484375 27.875 48.484375 
Q 21.1875 48.484375 17.84375 46.4375 
Q 14.5 44.390625 14.5 40.28125 
Q 14.5 37.15625 16.890625 35.375 
Q 19.28125 33.59375 26.515625 31.984375 
L 29.59375 31.296875 
Q 39.15625 29.25 43.1875 25.515625 
Q 47.21875 21.78125 47.21875 15.09375 
Q 47.21875 7.46875 41.1875 3.015625 
Q 35.15625 -1.421875 24.609375 -1.421875 
Q 20.21875 -1.421875 15.453125 -0.5625 
Q 10.6875 0.296875 5.421875 2 
L 5.421875 11.28125 
Q 10.40625 8.6875 15.234375 7.390625 
Q 20.0625 6.109375 24.8125 6.109375 
Q 31.15625 6.109375 34.5625 8.28125 
Q 37.984375 10.453125 37.984375 14.40625 
Q 37.984375 18.0625 35.515625 20.015625 
Q 33.0625 21.96875 24.703125 23.78125 
L 21.578125 24.515625 
Q 13.234375 26.265625 9.515625 29.90625 
Q 5.8125 33.546875 5.8125 39.890625 
Q 5.8125 47.609375 11.28125 51.796875 
Q 16.75 56 26.8125 56 
Q 31.78125 56 36.171875 55.265625 
Q 40.578125 54.546875 44.28125 53.078125 
z
" id="DejaVuSans-115"/>
       <path d="M 8.5 21.578125 
L 8.5 54.6875 
L 17.484375 54.6875 
L 17.484375 21.921875 
Q 17.484375 14.15625 20.5 10.265625 
Q 23.53125 6.390625 29.59375 6.390625 
Q 36.859375 6.390625 41.078125 11.03125 
Q 45.3125 15.671875 45.3125 23.6875 
L 45.3125 54.6875 
L 54.296875 54.6875 
L 54.296875 0 
L 45.3125 0 
L 45.3125 8.40625 
Q 42.046875 3.421875 37.71875 1 
Q 33.40625 -1.421875 27.6875 -1.421875 
Q 18.265625 -1.421875 13.375 4.4375 
Q 8.5 10.296875 8.5 21.578125 
z
M 31.109375 56 
z
" id="DejaVuSans-117"/>
       <path id="DejaVuSans-32"/>
       <path d="M 37.109375 75.984375 
L 37.109375 68.5 
L 28.515625 68.5 
Q 23.6875 68.5 21.796875 66.546875 
Q 19.921875 64.59375 19.921875 59.515625 
L 19.921875 54.6875 
L 34.71875 54.6875 
L 34.71875 47.703125 
L 19.921875 47.703125 
L 19.921875 0 
L 10.890625 0 
L 10.890625 47.703125 
L 2.296875 47.703125 
L 2.296875 54.6875 
L 10.890625 54.6875 
L 10.890625 58.5 
Q 10.890625 67.625 15.140625 71.796875 
Q 19.390625 75.984375 28.609375 75.984375 
z
" id="DejaVuSans-102"/>
       <path d="M 30.609375 48.390625 
Q 23.390625 48.390625 19.1875 42.75 
Q 14.984375 37.109375 14.984375 27.296875 
Q 14.984375 17.484375 19.15625 11.84375 
Q 23.34375 6.203125 30.609375 6.203125 
Q 37.796875 6.203125 41.984375 11.859375 
Q 46.1875 17.53125 46.1875 27.296875 
Q 46.1875 37.015625 41.984375 42.703125 
Q 37.796875 48.390625 30.609375 48.390625 
z
M 30.609375 56 
Q 42.328125 56 49.015625 48.375 
Q 55.71875 40.765625 55.71875 27.296875 
Q 55.71875 13.875 49.015625 6.21875 
Q 42.328125 -1.421875 30.609375 -1.421875 
Q 18.84375 -1.421875 12.171875 6.21875 
Q 5.515625 13.875 5.515625 27.296875 
Q 5.515625 40.765625 12.171875 48.375 
Q 18.84375 56 30.609375 56 
z
" id="DejaVuSans-111"/>
       <path d="M 52 44.1875 
Q 55.375 50.25 60.0625 53.125 
Q 64.75 56 71.09375 56 
Q 79.640625 56 84.28125 50.015625 
Q 88.921875 44.046875 88.921875 33.015625 
L 88.921875 0 
L 79.890625 0 
L 79.890625 32.71875 
Q 79.890625 40.578125 77.09375 44.375 
Q 74.3125 48.1875 68.609375 48.1875 
Q 61.625 48.1875 57.5625 43.546875 
Q 53.515625 38.921875 53.515625 30.90625 
L 53.515625 0 
L 44.484375 0 
L 44.484375 32.71875 
Q 44.484375 40.625 41.703125 44.40625 
Q 38.921875 48.1875 33.109375 48.1875 
Q 26.21875 48.1875 22.15625 43.53125 
Q 18.109375 38.875 18.109375 30.90625 
L 18.109375 0 
L 9.078125 0 
L 9.078125 54.6875 
L 18.109375 54.6875 
L 18.109375 46.1875 
Q 21.1875 51.21875 25.484375 53.609375 
Q 29.78125 56 35.6875 56 
Q 41.65625 56 45.828125 52.96875 
Q 50 49.953125 52 44.1875 
z
" id="DejaVuSans-109"/>
       <path d="M 3.328125 72.90625 
L 13.28125 72.90625 
L 28.609375 11.28125 
L 43.890625 72.90625 
L 54.984375 72.90625 
L 70.3125 11.28125 
L 85.59375 72.90625 
L 95.609375 72.90625 
L 77.296875 0 
L 64.890625 0 
L 49.515625 63.28125 
L 33.984375 0 
L 21.578125 0 
z
" id="DejaVuSans-87"/>
       <path d="M 18.3125 70.21875 
L 18.3125 54.6875 
L 36.8125 54.6875 
L 36.8125 47.703125 
L 18.3125 47.703125 
L 18.3125 18.015625 
Q 18.3125 11.328125 20.140625 9.421875 
Q 21.96875 7.515625 27.59375 7.515625 
L 36.8125 7.515625 
L 36.8125 0 
L 27.59375 0 
Q 17.1875 0 13.234375 3.875 
Q 9.28125 7.765625 9.28125 18.015625 
L 9.28125 47.703125 
L 2.6875 47.703125 
L 2.6875 54.6875 
L 9.28125 54.6875 
L 9.28125 70.21875 
z
" id="DejaVuSans-116"/>
       <path d="M 54.890625 33.015625 
L 54.890625 0 
L 45.90625 0 
L 45.90625 32.71875 
Q 45.90625 40.484375 42.875 44.328125 
Q 39.84375 48.1875 33.796875 48.1875 
Q 26.515625 48.1875 22.3125 43.546875 
Q 18.109375 38.921875 18.109375 30.90625 
L 18.109375 0 
L 9.078125 0 
L 9.078125 75.984375 
L 18.109375 75.984375 
L 18.109375 46.1875 
Q 21.34375 51.125 25.703125 53.5625 
Q 30.078125 56 35.796875 56 
Q 45.21875 56 50.046875 50.171875 
Q 54.890625 44.34375 54.890625 33.015625 
z
" id="DejaVuSans-104"/>
       <path d="M 19.671875 34.8125 
L 19.671875 8.109375 
L 35.5 8.109375 
Q 43.453125 8.109375 47.28125 11.40625 
Q 51.125 14.703125 51.125 21.484375 
Q 51.125 28.328125 47.28125 31.5625 
Q 43.453125 34.8125 35.5 34.8125 
z
M 19.671875 64.796875 
L 19.671875 42.828125 
L 34.28125 42.828125 
Q 41.5 42.828125 45.03125 45.53125 
Q 48.578125 48.25 48.578125 53.8125 
Q 48.578125 59.328125 45.03125 62.0625 
Q 41.5 64.796875 34.28125 64.796875 
z
M 9.8125 72.90625 
L 35.015625 72.90625 
Q 46.296875 72.90625 52.390625 68.21875 
Q 58.5 63.53125 58.5 54.890625 
Q 58.5 48.1875 55.375 44.234375 
Q 52.25 40.28125 46.1875 39.3125 
Q 53.46875 37.75 57.5 32.78125 
Q 61.53125 27.828125 61.53125 20.40625 
Q 61.53125 10.640625 54.890625 5.3125 
Q 48.25 0 35.984375 0 
L 9.8125 0 
z
" id="DejaVuSans-66"/>
       <path d="M 9.8125 72.90625 
L 19.671875 72.90625 
L 19.671875 0 
L 9.8125 0 
z
" id="DejaVuSans-73"/>
       <path d="M 39.40625 66.21875 
Q 28.65625 66.21875 22.328125 58.203125 
Q 16.015625 50.203125 16.015625 36.375 
Q 16.015625 22.609375 22.328125 14.59375 
Q 28.65625 6.59375 39.40625 6.59375 
Q 50.140625 6.59375 56.421875 14.59375 
Q 62.703125 22.609375 62.703125 36.375 
Q 62.703125 50.203125 56.421875 58.203125 
Q 50.140625 66.21875 39.40625 66.21875 
z
M 39.40625 74.21875 
Q 54.734375 74.21875 63.90625 63.9375 
Q 73.09375 53.65625 73.09375 36.375 
Q 73.09375 19.140625 63.90625 8.859375 
Q 54.734375 -1.421875 39.40625 -1.421875 
Q 24.03125 -1.421875 14.8125 8.828125 
Q 5.609375 19.09375 5.609375 36.375 
Q 5.609375 53.65625 14.8125 63.9375 
Q 24.03125 74.21875 39.40625 74.21875 
z
" id="DejaVuSans-79"/>
      </defs>
      <use xlink:href="#DejaVuSans-97"/>
      <use x="61.279297" xlink:href="#DejaVuSans-105"/>
      <use x="89.0625" xlink:href="#DejaVuSans-114"/>
      <use x="130.175781" xlink:href="#DejaVuSans-95"/>
      <use x="180.175781" xlink:href="#DejaVuSans-112"/>
      <use x="243.652344" xlink:href="#DejaVuSans-114"/>
      <use x="282.515625" xlink:href="#DejaVuSans-101"/>
      <use x="344.039062" xlink:href="#DejaVuSans-115"/>
      <use x="396.138672" xlink:href="#DejaVuSans-115"/>
      <use x="448.238281" xlink:href="#DejaVuSans-117"/>
      <use x="511.617188" xlink:href="#DejaVuSans-114"/>
      <use x="550.480469" xlink:href="#DejaVuSans-101"/>
      <use x="612.003906" xlink:href="#DejaVuSans-32"/>
      <use x="643.791016" xlink:href="#DejaVuSans-102"/>
      <use x="678.996094" xlink:href="#DejaVuSans-114"/>
      <use x="717.859375" xlink:href="#DejaVuSans-111"/>
      <use x="779.041016" xlink:href="#DejaVuSans-109"/>
      <use x="876.453125" xlink:href="#DejaVuSans-32"/>
      <use x="908.240234" xlink:href="#DejaVuSans-87"/>
      <use x="1001.242188" xlink:href="#DejaVuSans-101"/>
      <use x="1062.765625" xlink:href="#DejaVuSans-97"/>
      <use x="1124.044922" xlink:href="#DejaVuSans-116"/>
      <use x="1163.253906" xlink:href="#DejaVuSans-104"/>
      <use x="1226.632812" xlink:href="#DejaVuSans-101"/>
      <use x="1288.15625" xlink:href="#DejaVuSans-114"/>
      <use x="1329.269531" xlink:href="#DejaVuSans-66"/>
      <use x="1397.873047" xlink:href="#DejaVuSans-105"/>
      <use x="1425.65625" xlink:href="#DejaVuSans-116"/>
      <use x="1464.865234" xlink:href="#DejaVuSans-73"/>
      <use x="1494.357422" xlink:href="#DejaVuSans-79"/>
     </g>
    </g>
   </g>
   <g id="matplotlib.axis_2">
    <g id="ytick_1">
     <g id="line2d_7">
      <defs>
       <path d="M 0 0 
L -3.5 0 
" id="m9543dc2f4a" style="stroke:#000000;stroke-width:0.8;"/>
      </defs>
      <g>
       <use style="stroke:#000000;stroke-width:0.8;" x="57.6" xlink:href="#m9543dc2f4a" y="301.77302"/>
      </g>
     </g>
     <g id="text_8">
      <!-- 4.0 -->
      <g transform="translate(34.696875 305.572239)scale(0.1 -0.1)">
       <defs>
        <path d="M 37.796875 64.3125 
L 12.890625 25.390625 
L 37.796875 25.390625 
z
M 35.203125 72.90625 
L 47.609375 72.90625 
L 47.609375 25.390625 
L 58.015625 25.390625 
L 58.015625 17.1875 
L 47.609375 17.1875 
L 47.609375 0 
L 37.796875 0 
L 37.796875 17.1875 
L 4.890625 17.1875 
L 4.890625 26.703125 
z
" id="DejaVuSans-52"/>
        <path d="M 10.6875 12.40625 
L 21 12.40625 
L 21 0 
L 10.6875 0 
z
" id="DejaVuSans-46"/>
       </defs>
       <use xlink:href="#DejaVuSans-52"/>
       <use x="63.623047" xlink:href="#DejaVuSans-46"/>
       <use x="95.410156" xlink:href="#DejaVuSans-48"/>
      </g>
     </g>
    </g>
    <g id="ytick_2">
     <g id="line2d_8">
      <g>
       <use style="stroke:#000000;stroke-width:0.8;" x="57.6" xlink:href="#m9543dc2f4a" y="248.51014"/>
      </g>
     </g>
     <g id="text_9">
      <!-- 4.5 -->
      <g transform="translate(34.696875 252.309359)scale(0.1 -0.1)">
       <use xlink:href="#DejaVuSans-52"/>
       <use x="63.623047" xlink:href="#DejaVuSans-46"/>
       <use x="95.410156" xlink:href="#DejaVuSans-53"/>
      </g>
     </g>
    </g>
    <g id="ytick_3">
     <g id="line2d_9">
      <g>
       <use style="stroke:#000000;stroke-width:0.8;" x="57.6" xlink:href="#m9543dc2f4a" y="195.24726"/>
      </g>
     </g>
     <g id="text_10">
      <!-- 5.0 -->
      <g transform="translate(34.696875 199.046479)scale(0.1 -0.1)">
       <use xlink:href="#DejaVuSans-53"/>
       <use x="63.623047" xlink:href="#DejaVuSans-46"/>
       <use x="95.410156" xlink:href="#DejaVuSans-48"/>
      </g>
     </g>
    </g>
    <g id="ytick_4">
     <g id="line2d_10">
      <g>
       <use style="stroke:#000000;stroke-width:0.8;" x="57.6" xlink:href="#m9543dc2f4a" y="141.98438"/>
      </g>
     </g>
     <g id="text_11">
      <!-- 5.5 -->
      <g transform="translate(34.696875 145.783599)scale(0.1 -0.1)">
       <use xlink:href="#DejaVuSans-53"/>
       <use x="63.623047" xlink:href="#DejaVuSans-46"/>
       <use x="95.410156" xlink:href="#DejaVuSans-53"/>
      </g>
     </g>
    </g>
    <g id="ytick_5">
     <g id="line2d_11">
      <g>
       <use style="stroke:#000000;stroke-width:0.8;" x="57.6" xlink:href="#m9543dc2f4a" y="88.721501"/>
      </g>
     </g>
     <g id="text_12">
      <!-- 6.0 -->
      <g transform="translate(34.696875 92.520719)scale(0.1 -0.1)">
       <defs>
        <path d="M 33.015625 40.375 
Q 26.375 40.375 22.484375 35.828125 
Q 18.609375 31.296875 18.609375 23.390625 
Q 18.609375 15.53125 22.484375 10.953125 
Q 26.375 6.390625 33.015625 6.390625 
Q 39.65625 6.390625 43.53125 10.953125 
Q 47.40625 15.53125 47.40625 23.390625 
Q 47.40625 31.296875 43.53125 35.828125 
Q 39.65625 40.375 33.015625 40.375 
z
M 52.59375 71.296875 
L 52.59375 62.3125 
Q 48.875 64.0625 45.09375 64.984375 
Q 41.3125 65.921875 37.59375 65.921875 
Q 27.828125 65.921875 22.671875 59.328125 
Q 17.53125 52.734375 16.796875 39.40625 
Q 19.671875 43.65625 24.015625 45.921875 
Q 28.375 48.1875 33.59375 48.1875 
Q 44.578125 48.1875 50.953125 41.515625 
Q 57.328125 34.859375 57.328125 23.390625 
Q 57.328125 12.15625 50.6875 5.359375 
Q 44.046875 -1.421875 33.015625 -1.421875 
Q 20.359375 -1.421875 13.671875 8.265625 
Q 6.984375 17.96875 6.984375 36.375 
Q 6.984375 53.65625 15.1875 63.9375 
Q 23.390625 74.21875 37.203125 74.21875 
Q 40.921875 74.21875 44.703125 73.484375 
Q 48.484375 72.75 52.59375 71.296875 
z
" id="DejaVuSans-54"/>
       </defs>
       <use xlink:href="#DejaVuSans-54"/>
       <use x="63.623047" xlink:href="#DejaVuSans-46"/>
       <use x="95.410156" xlink:href="#DejaVuSans-48"/>
      </g>
     </g>
    </g>
   </g>
   <g id="line2d_12">
    <path clip-path="url(#pce292aee82)" d="M 73.832727 233.725886 
L 75.700209 225.471523 
L 78.241753 256.748132 
L 81.457358 217.50146 
L 84.739264 241.000074 
L 86.253139 241.538621 
L 90.253308 253.623376 
L 91.667732 251.289494 
L 99.380764 255.860417 
L 110.198898 232.859731 
L 112.729392 249.430827 
L 122.166253 234.351898 
L 124.497843 255.356841 
L 124.729897 238.763033 
L 125.879116 242.47368 
L 126.387425 243.416272 
L 126.641579 247.95088 
L 134.255159 237.378198 
L 134.763468 251.244301 
L 136.896154 234.33402 
L 140.233311 245.617556 
L 145.43795 248.69186 
L 147.426984 234.626283 
L 154.720109 239.242399 
L 159.47169 242.393786 
L 160.466207 238.64763 
L 160.687211 247.755583 
L 165.8808 244.806321 
L 166.543811 254.185058 
L 173.173924 232.14391 
L 175.825969 231.515184 
L 181.461566 256.141258 
L 185.108128 228.980417 
L 187.981177 247.0672 
L 188.091679 267.748692 
L 188.202181 225.02121 
L 188.533686 243.736454 
L 189.638705 221.50586 
L 189.859709 250.747181 
L 192.953762 247.594018 
L 193.506271 245.932217 
L 194.279785 225.084157 
L 194.500788 208.62512 
L 195.937313 213.676217 
L 197.042332 240.476322 
L 197.705343 208.045569 
L 198.036849 239.482082 
L 198.368354 212.057025 
L 198.478856 250.718128 
L 199.583875 190.73767 
L 199.804879 239.819413 
L 201.241404 246.624634 
L 202.78843 226.761131 
L 204.114453 227.53425 
L 205.550977 212.57545 
L 207.429509 237.955896 
L 207.982019 239.620081 
L 208.976536 251.516534 
L 210.302558 244.666336 
L 212.070589 233.520444 
L 214.943638 232.723022 
L 215.717151 240.254394 
L 217.816687 236.947253 
L 218.369196 251.244301 
L 219.363713 245.595208 
L 219.805721 225.979942 
L 220.137226 244.098198 
L 221.242245 227.276005 
L 221.573751 229.859938 
L 221.905257 231.088336 
L 223.783789 253.800919 
L 225.441317 217.922029 
L 226.325332 232.504645 
L 227.761857 253.379889 
L 227.98286 242.982637 
L 228.977377 253.774288 
L 230.745408 209.22344 
L 230.966411 213.951408 
L 232.292434 230.400761 
L 234.170966 235.061263 
L 235.828494 220.058078 
L 236.491506 239.8359 
L 237.044015 233.347974 
L 237.486023 248.129691 
L 239.917064 197.945913 
L 240.027566 231.440452 
L 241.685094 201.500322 
L 242.458608 242.476908 
L 243.011117 249.672239 
L 243.121619 221.148238 
L 243.563626 225.713627 
L 244.226638 263.423746 
L 245.331657 266.868079 
L 245.884166 239.339241 
L 246.878683 255.753892 
L 247.099687 272.2557 
L 247.210189 254.766107 
L 247.320691 254.781265 
L 247.762698 245.012544 
L 248.867717 256.28652 
L 248.978219 235.080285 
L 249.309725 221.636596 
L 249.751732 258.328264 
L 249.972736 257.618092 
L 250.304242 232.946727 
L 250.414743 261.409441 
L 250.635747 234.010801 
L 251.188257 248.403614 
L 251.298759 216.499149 
L 251.740766 242.080245 
L 251.96177 238.230404 
L 252.735283 253.676639 
L 253.7298 246.282783 
L 254.613815 222.042586 
L 255.276827 242.692195 
L 255.49783 239.055979 
L 255.718834 241.245083 
L 255.829336 213.846658 
L 256.160842 223.698515 
L 256.381845 245.885733 
L 256.713351 115.651213 
L 257.044857 260.796111 
L 257.265861 237.518618 
L 257.707868 242.464803 
L 257.928872 265.802822 
L 258.260377 201.542933 
L 258.481381 251.112412 
L 258.591883 232.584539 
L 259.475898 233.632042 
L 259.5864 253.157326 
L 260.691419 254.506018 
L 261.022925 227.218883 
L 261.133427 232.286267 
L 261.464932 221.461474 
L 261.685936 222.517855 
L 261.90694 244.009427 
L 263.011959 255.327789 
L 263.343464 198.2142 
L 264.116978 248.962875 
L 264.337981 256.307826 
L 264.779989 248.991028 
L 265.221996 231.777987 
L 265.553502 247.107551 
L 265.774506 239.561976 
L 266.106012 212.815133 
L 266.437517 229.504691 
L 266.658521 207.846352 
L 267.432034 237.274209 
L 267.76354 215.29693 
L 268.426551 240.254394 
L 268.979061 195.599615 
L 269.200064 206.262024 
L 269.421068 248.936243 
L 269.863076 231.217458 
L 270.084079 242.291699 
L 270.305083 200.672465 
L 270.415585 261.369321 
L 270.526087 252.499249 
L 270.636589 253.135133 
L 270.747091 246.360257 
L 271.078596 262.109929 
L 271.520604 257.529321 
L 271.741608 247.289936 
L 271.85211 249.294557 
L 272.073113 220.689162 
L 272.183615 215.238594 
L 272.294117 225.172122 
L 272.404619 257.955424 
L 272.515121 224.092069 
L 272.846627 253.064116 
L 272.957129 250.232306 
L 273.06763 237.654197 
L 273.178132 244.018304 
L 273.399136 248.110668 
L 273.509638 227.098462 
L 273.841144 235.965814 
L 273.951646 243.891183 
L 274.283151 259.269242 
L 274.504155 238.887313 
L 274.725159 250.295848 
L 274.946163 241.44837 
L 275.056664 231.668417 
L 275.498672 265.057141 
L 275.830178 250.016719 
L 275.940679 236.670563 
L 276.161683 194.067868 
L 276.382687 256.081078 
L 276.493189 237.136467 
L 276.714193 236.550202 
L 276.824695 243.396904 
L 277.045698 239.215768 
L 277.266702 245.813707 
L 277.377204 240.516269 
L 277.598208 250.75479 
L 277.819212 238.664116 
L 278.150717 249.208067 
L 278.261219 239.686256 
L 278.482223 53.568 
L 278.592725 236.703535 
L 278.813729 250.979601 
L 279.034732 245.656371 
L 279.255736 243.8784 
L 279.366238 246.708079 
L 279.587242 261.115688 
L 279.697744 240.804777 
L 280.360755 238.567736 
L 280.471257 246.533495 
L 281.24477 249.788449 
L 281.686778 250.019255 
L 282.128785 217.519338 
L 282.349789 259.045538 
L 282.460291 226.546465 
L 282.681295 227.055852 
L 283.56531 227.128898 
L 283.786314 229.726098 
L 284.007317 261.346494 
L 284.338823 244.036058 
L 284.559827 250.309242 
L 285.112336 255.114737 
L 285.33334 236.424308 
L 285.443842 239.465135 
L 285.664846 232.723022 
L 285.775347 233.942742 
L 286.217355 249.854003 
L 286.327857 236.423563 
L 286.438359 259.730853 
L 286.659363 250.010378 
L 287.322374 243.392272 
L 287.543378 257.684671 
L 288.979902 220.493865 
L 289.090404 248.875371 
L 289.532412 250.569638 
L 289.974419 267.174975 
L 290.195423 219.097194 
L 290.747932 268.727207 
L 291.300442 244.599757 
L 291.852951 237.157538 
L 291.963453 240.92018 
L 292.073955 255.860417 
L 292.294959 242.602802 
L 292.626465 238.922822 
L 292.847468 205.816983 
L 293.289476 260.707339 
L 293.399978 245.216719 
L 293.620981 230.049226 
L 293.731483 207.391197 
L 293.952487 203.210061 
L 294.394495 285.616613 
L 295.168008 243.958212 
L 296.273027 244.733318 
L 296.383529 203.969057 
L 296.604532 229.53841 
L 298.483065 220.231648 
L 298.81457 253.812756 
L 299.809087 270.916058 
L 301.466616 237.067498 
L 301.798121 247.089797 
L 302.350631 165.766256 
L 302.571634 226.180702 
L 303.124144 234.091118 
L 304.781672 203.449744 
L 305.22368 260.547551 
L 306.4392 207.633301 
L 306.660204 242.021753 
L 307.102212 246.518108 
L 307.875725 242.136349 
L 308.207231 223.574918 
L 308.317733 240.78218 
L 309.091246 233.557797 
L 309.975261 254.848423 
L 310.638272 238.267279 
L 311.190782 231.72168 
L 311.522287 236.019995 
L 311.964295 256.318478 
L 313.069314 246.998806 
L 314.284834 219.606151 
L 315.058348 224.39981 
L 315.610857 254.98158 
L 315.721359 245.083561 
L 315.831861 257.005569 
L 316.273868 233.020506 
L 316.494872 248.555794 
L 316.715876 233.383482 
L 317.378887 253.658885 
L 317.820895 212.600306 
L 318.152401 244.313025 
L 318.594408 260.654077 
L 318.815412 251.50884 
L 319.146918 247.799968 
L 319.367921 241.150178 
L 319.478423 223.165886 
L 320.141434 192.008877 
L 320.362438 255.988248 
L 320.693944 230.785892 
L 321.02545 235.247683 
L 321.135951 223.386449 
L 321.688461 246.734711 
L 321.909465 246.30443 
L 322.24097 243.130589 
L 322.461974 254.50836 
L 322.682978 242.602802 
L 322.79348 244.592359 
L 323.014484 235.330332 
L 323.124985 257.064159 
L 323.456491 239.668502 
L 323.566993 243.939217 
L 324.009001 232.850853 
L 324.230004 243.044549 
L 324.56151 252.904328 
L 324.672012 235.705744 
L 324.782514 188.042245 
L 325.003518 247.559602 
L 325.556027 239.57166 
L 325.777031 247.633351 
L 325.887533 230.436269 
L 326.108536 247.076884 
L 326.32954 250.898092 
L 326.440042 262.997643 
L 326.771548 225.234262 
L 327.103053 248.909612 
L 328.09757 240.879532 
L 328.318574 210.935599 
L 328.65008 243.677744 
L 328.871084 243.823007 
L 328.981585 242.70195 
L 329.092087 245.048053 
L 329.423593 246.402452 
L 329.865601 221.914209 
L 329.976102 224.754896 
L 330.860118 235.833575 
L 331.081121 243.013411 
L 331.523129 241.381791 
L 331.854635 241.287694 
L 331.965136 247.400497 
L 332.296642 218.292333 
L 332.628148 261.879123 
L 332.849152 243.992479 
L 333.512163 252.504856 
L 333.733167 231.039915 
L 333.95417 264.237216 
L 334.064672 263.903112 
L 334.396178 253.712148 
L 334.50668 222.943958 
L 334.838186 235.56726 
L 334.948687 264.904454 
L 335.059189 252.407207 
L 335.169691 256.954728 
L 335.390695 229.95529 
L 335.611699 247.027657 
L 335.943204 219.419345 
L 336.164208 198.385673 
L 336.27471 257.202642 
L 336.495714 153.123931 
L 336.606216 245.808951 
L 337.158725 246.344116 
L 337.269227 247.151937 
L 338.153242 228.885728 
L 338.263744 250.063641 
L 338.484748 250.840391 
L 338.59525 241.198599 
L 338.705752 248.0453 
L 338.926755 249.321375 
L 339.368763 230.507287 
L 339.589767 258.834944 
L 339.81077 249.798133 
L 339.921272 227.524565 
L 340.031774 253.365939 
L 340.36328 244.00055 
L 340.473782 246.954864 
L 340.694786 235.856402 
L 340.915789 268.572491 
L 341.026291 233.828954 
L 341.136793 253.019731 
L 341.247295 209.521712 
L 341.357797 238.481501 
L 341.689303 251.883456 
L 342.020808 232.016402 
L 342.13131 262.049564 
L 342.241812 232.272159 
L 342.462816 258.939012 
L 342.794321 227.077749 
L 342.904823 249.037443 
L 343.236329 218.753945 
L 343.788838 249.0333 
L 344.009842 245.438647 
L 344.230846 249.710976 
L 344.341348 249.144856 
L 344.45185 235.69154 
L 344.672854 239.554875 
L 345.004359 233.855239 
L 345.114861 246.805728 
L 345.335865 243.639008 
L 345.446367 245.546787 
L 345.556869 261.76372 
L 345.667371 233.55485 
L 345.777872 245.633945 
L 345.998876 245.21228 
L 346.330382 248.365084 
L 346.440884 259.668713 
L 346.772389 235.279641 
L 346.882891 241.692491 
L 346.993393 240.094605 
L 347.103895 242.528309 
L 347.214397 233.707691 
L 347.324899 249.651487 
L 347.435401 223.197981 
L 347.656404 248.964276 
L 347.766906 233.953163 
L 347.98791 244.416507 
L 348.098412 263.677769 
L 348.208914 244.398246 
L 348.429918 248.469169 
L 348.54042 254.244777 
L 348.871925 255.966943 
L 348.982427 247.832518 
L 349.092929 249.607819 
L 349.313933 242.127472 
L 349.534937 213.913479 
L 349.645438 253.019731 
L 349.866442 259.200761 
L 350.197948 234.004882 
L 350.30845 244.232066 
L 350.418952 240.179826 
L 350.750457 258.108672 
L 350.860959 236.18511 
L 350.971461 239.365313 
L 351.192465 225.413419 
L 351.413469 250.768486 
L 351.523971 240.627234 
L 351.634472 255.430053 
L 351.744974 249.765853 
L 351.855476 231.767841 
L 352.07648 217.511144 
L 352.297484 240.336337 
L 352.518488 234.137357 
L 352.628989 249.965992 
L 352.739491 245.261104 
L 353.070997 259.425897 
L 353.292001 252.964854 
L 353.623506 219.012189 
L 353.84451 261.550668 
L 353.955012 235.842452 
L 354.286518 235.860206 
L 354.618023 253.213252 
L 354.728525 224.126394 
L 354.839027 242.719704 
L 354.949529 241.807894 
L 355.060031 239.902859 
L 355.170533 260.476534 
L 355.61254 231.940819 
L 355.723042 269.806415 
L 355.833544 239.100365 
L 355.944046 247.018779 
L 356.054548 246.495028 
L 356.16505 224.328793 
L 356.275552 248.63442 
L 356.386054 235.229929 
L 356.496555 257.390515 
L 356.607057 253.395107 
L 356.828061 264.489004 
L 356.938563 254.751296 
L 357.159567 248.288061 
L 357.270069 270.265067 
L 357.491072 252.238542 
L 357.601574 228.208789 
L 357.712076 251.21767 
L 357.822578 236.820713 
L 357.93308 241.85228 
L 358.043582 184.179234 
L 358.154084 245.80261 
L 358.264586 240.946811 
L 358.375088 258.088581 
L 358.485589 242.094922 
L 358.596091 244.195847 
L 358.927597 231.988963 
L 359.148601 205.598013 
L 359.259103 251.263831 
L 359.369605 248.542098 
L 359.480106 255.998506 
L 359.70111 240.946811 
L 359.811612 250.525252 
L 359.922114 234.351091 
L 360.143118 267.03497 
L 360.25362 245.314367 
L 360.474623 227.48018 
L 361.027133 227.870774 
L 361.248137 256.481818 
L 361.358639 247.513363 
L 361.690144 246.81638 
L 361.911148 232.892537 
L 362.132152 282.101263 
L 362.353156 214.084565 
L 362.463657 235.890935 
L 362.684661 251.392254 
L 362.905665 242.207366 
L 363.016167 248.790981 
L 363.126669 235.636912 
L 363.458174 248.829717 
L 363.568676 257.706864 
L 363.78968 239.668502 
L 363.900182 204.905596 
L 364.121186 246.971908 
L 364.342189 236.934341 
L 364.452691 247.274441 
L 364.894699 243.345771 
L 365.005201 257.618092 
L 365.115703 234.710957 
L 365.226205 245.323244 
L 365.336706 240.245517 
L 365.668212 231.24409 
L 365.778714 256.89178 
L 366.11022 240.094605 
L 366.220722 240.014711 
L 366.331223 241.227652 
L 366.441725 257.501883 
L 367.215239 250.836663 
L 367.32574 219.526256 
L 367.546744 253.383694 
L 367.767748 245.589559 
L 367.988752 264.897353 
L 368.320257 237.005358 
L 368.430759 244.071567 
L 368.872767 247.921712 
L 369.204273 245.763297 
L 369.314774 249.206108 
L 369.425276 241.414341 
L 369.756782 249.415609 
L 369.977786 236.943218 
L 370.088288 249.575398 
L 370.309291 246.23759 
L 370.640797 249.158172 
L 370.751299 261.82586 
L 371.193307 259.721976 
L 371.303808 251.02169 
L 371.524812 245.649162 
L 371.856318 255.696532 
L 372.077322 245.200232 
L 372.740333 259.313627 
L 372.850835 248.039651 
L 373.403344 268.313279 
L 373.513846 244.835001 
L 373.624348 246.850114 
L 374.397861 256.153363 
L 374.508363 212.930536 
L 375.060873 295.488 
L 375.281876 256.796322 
L 375.834386 225.749136 
L 376.386895 258.512909 
L 376.939405 236.250801 
L 377.049907 257.715741 
L 377.27091 246.656592 
L 377.381412 258.523561 
L 377.712918 249.273575 
L 377.82342 258.225289 
L 379.038941 250.578515 
L 379.259944 263.601289 
L 379.370446 255.168 
L 379.812454 249.779572 
L 380.143959 247.338357 
L 381.690986 260.174711 
L 382.243495 245.932217 
L 382.796005 251.066758 
L 382.906507 248.32372 
L 383.12751 222.730906 
L 383.459016 254.777406 
L 383.569518 216.712201 
L 383.790522 249.353469 
L 385.337548 246.23759 
L 385.44805 212.291382 
L 385.669054 249.300206 
L 387.105578 263.636798 
L 387.21608 258.62121 
L 388.210597 231.998647 
L 388.652605 252.744539 
L 388.98411 251.599387 
L 389.426118 237.496303 
L 389.978627 240.405305 
L 390.310133 248.279334 
L 390.862642 245.449945 
L 391.194148 234.51088 
L 391.30465 244.829083 
L 392.299167 255.514209 
L 392.409669 249.872782 
L 392.520171 253.387167 
L 393.07268 220.600391 
L 393.183182 230.209015 
L 393.293684 257.990933 
L 393.514688 236.153152 
L 393.956695 243.645464 
L 394.288201 231.203255 
L 394.398703 238.070616 
L 394.619707 228.696349 
L 395.614224 250.214552 
L 395.835227 256.03796 
L 397.934763 230.454024 
L 398.045265 248.004143 
L 398.487273 253.05879 
L 398.487273 253.05879 
" style="fill:none;stroke:#0000ff;stroke-linecap:square;stroke-width:1.5;"/>
   </g>
   <g id="patch_3">
    <path d="M 57.6 307.584 
L 57.6 41.472 
" style="fill:none;stroke:#000000;stroke-linecap:square;stroke-linejoin:miter;stroke-width:0.8;"/>
   </g>
   <g id="patch_4">
    <path d="M 414.72 307.584 
L 414.72 41.472 
" style="fill:none;stroke:#000000;stroke-linecap:square;stroke-linejoin:miter;stroke-width:0.8;"/>
   </g>
   <g id="patch_5">
    <path d="M 57.6 307.584 
L 414.72 307.584 
" style="fill:none;stroke:#000000;stroke-linecap:square;stroke-linejoin:miter;stroke-width:0.8;"/>
   </g>
   <g id="patch_6">
    <path d="M 57.6 41.472 
L 414.72 41.472 
" style="fill:none;stroke:#000000;stroke-linecap:square;stroke-linejoin:miter;stroke-width:0.8;"/>
   </g>
   <g id="text_13">
    <!-- air_pressure-&gt;ping_night -->
    <g transform="translate(160.726875 35.472)scale(0.12 -0.12)">
     <defs>
      <path d="M 4.890625 31.390625 
L 31.203125 31.390625 
L 31.203125 23.390625 
L 4.890625 23.390625 
z
" id="DejaVuSans-45"/>
      <path d="M 10.59375 49.21875 
L 10.59375 58.109375 
L 73.1875 35.40625 
L 73.1875 27.296875 
L 10.59375 4.59375 
L 10.59375 13.484375 
L 60.890625 31.296875 
z
" id="DejaVuSans-62"/>
      <path d="M 54.890625 33.015625 
L 54.890625 0 
L 45.90625 0 
L 45.90625 32.71875 
Q 45.90625 40.484375 42.875 44.328125 
Q 39.84375 48.1875 33.796875 48.1875 
Q 26.515625 48.1875 22.3125 43.546875 
Q 18.109375 38.921875 18.109375 30.90625 
L 18.109375 0 
L 9.078125 0 
L 9.078125 54.6875 
L 18.109375 54.6875 
L 18.109375 46.1875 
Q 21.34375 51.125 25.703125 53.5625 
Q 30.078125 56 35.796875 56 
Q 45.21875 56 50.046875 50.171875 
Q 54.890625 44.34375 54.890625 33.015625 
z
" id="DejaVuSans-110"/>
      <path d="M 45.40625 27.984375 
Q 45.40625 37.75 41.375 43.109375 
Q 37.359375 48.484375 30.078125 48.484375 
Q 22.859375 48.484375 18.828125 43.109375 
Q 14.796875 37.75 14.796875 27.984375 
Q 14.796875 18.265625 18.828125 12.890625 
Q 22.859375 7.515625 30.078125 7.515625 
Q 37.359375 7.515625 41.375 12.890625 
Q 45.40625 18.265625 45.40625 27.984375 
z
M 54.390625 6.78125 
Q 54.390625 -7.171875 48.1875 -13.984375 
Q 42 -20.796875 29.203125 -20.796875 
Q 24.46875 -20.796875 20.265625 -20.09375 
Q 16.0625 -19.390625 12.109375 -17.921875 
L 12.109375 -9.1875 
Q 16.0625 -11.328125 19.921875 -12.34375 
Q 23.78125 -13.375 27.78125 -13.375 
Q 36.625 -13.375 41.015625 -8.765625 
Q 45.40625 -4.15625 45.40625 5.171875 
L 45.40625 9.625 
Q 42.625 4.78125 38.28125 2.390625 
Q 33.9375 0 27.875 0 
Q 17.828125 0 11.671875 7.65625 
Q 5.515625 15.328125 5.515625 27.984375 
Q 5.515625 40.671875 11.671875 48.328125 
Q 17.828125 56 27.875 56 
Q 33.9375 56 38.28125 53.609375 
Q 42.625 51.21875 45.40625 46.390625 
L 45.40625 54.6875 
L 54.390625 54.6875 
z
" id="DejaVuSans-103"/>
     </defs>
     <use xlink:href="#DejaVuSans-97"/>
     <use x="61.279297" xlink:href="#DejaVuSans-105"/>
     <use x="89.0625" xlink:href="#DejaVuSans-114"/>
     <use x="130.175781" xlink:href="#DejaVuSans-95"/>
     <use x="180.175781" xlink:href="#DejaVuSans-112"/>
     <use x="243.652344" xlink:href="#DejaVuSans-114"/>
     <use x="282.515625" xlink:href="#DejaVuSans-101"/>
     <use x="344.039062" xlink:href="#DejaVuSans-115"/>
     <use x="396.138672" xlink:href="#DejaVuSans-115"/>
     <use x="448.238281" xlink:href="#DejaVuSans-117"/>
     <use x="511.617188" xlink:href="#DejaVuSans-114"/>
     <use x="550.480469" xlink:href="#DejaVuSans-101"/>
     <use x="612.003906" xlink:href="#DejaVuSans-45"/>
     <use x="648.087891" xlink:href="#DejaVuSans-62"/>
     <use x="731.876953" xlink:href="#DejaVuSans-112"/>
     <use x="795.353516" xlink:href="#DejaVuSans-105"/>
     <use x="823.136719" xlink:href="#DejaVuSans-110"/>
     <use x="886.515625" xlink:href="#DejaVuSans-103"/>
     <use x="949.992188" xlink:href="#DejaVuSans-95"/>
     <use x="999.992188" xlink:href="#DejaVuSans-110"/>
     <use x="1063.371094" xlink:href="#DejaVuSans-105"/>
     <use x="1091.154297" xlink:href="#DejaVuSans-103"/>
     <use x="1154.630859" xlink:href="#DejaVuSans-104"/>
     <use x="1218.009766" xlink:href="#DejaVuSans-116"/>
    </g>
   </g>
  </g>
  <g id="legend_1">
   <g id="patch_7">
    <path d="M 415.451563 22.678125 
L 453.8 22.678125 
Q 455.8 22.678125 455.8 20.678125 
L 455.8 7 
Q 455.8 5 453.8 5 
L 415.451563 5 
Q 413.451563 5 413.451563 7 
L 413.451563 20.678125 
Q 413.451563 22.678125 415.451563 22.678125 
z
" style="fill:#ffffff;opacity:0.8;stroke:#cccccc;stroke-linejoin:miter;"/>
   </g>
   <g id="line2d_13">
    <path d="M 417.451563 13.098438 
L 437.451563 13.098438 
" style="fill:none;stroke:#0000ff;stroke-linecap:square;stroke-width:1.5;"/>
   </g>
   <g id="line2d_14"/>
   <g id="text_14">
    <!-- p -->
    <g transform="translate(445.451563 16.598438)scale(0.1 -0.1)">
     <use xlink:href="#DejaVuSans-112"/>
    </g>
   </g>
  </g>
 </g>
 <defs>
  <clipPath id="pce292aee82">
   <rect height="266.112" width="357.12" x="57.6" y="41.472"/>
  </clipPath>
 </defs>
</svg>
