<?xml version="1.0" encoding="utf-8" standalone="no"?>
<!DOCTYPE svg PUBLIC "-//W3C//DTD SVG 1.1//EN"
  "http://www.w3.org/Graphics/SVG/1.1/DTD/svg11.dtd">
<!-- Created with matplotlib (https://matplotlib.org/) -->
<svg height="2090.594375pt" version="1.1" viewBox="0 0 2065.165625 2090.594375" width="2065.165625pt" xmlns="http://www.w3.org/2000/svg" xmlns:xlink="http://www.w3.org/1999/xlink">
 <metadata>
  <rdf:RDF xmlns:cc="http://creativecommons.org/ns#" xmlns:dc="http://purl.org/dc/elements/1.1/" xmlns:rdf="http://www.w3.org/1999/02/22-rdf-syntax-ns#">
   <cc:Work>
    <dc:type rdf:resource="http://purl.org/dc/dcmitype/StillImage"/>
    <dc:date>2022-07-24T12:01:57.087998</dc:date>
    <dc:format>image/svg+xml</dc:format>
    <dc:creator>
     <cc:Agent>
      <dc:title>Matplotlib v3.3.2, https://matplotlib.org/</dc:title>
     </cc:Agent>
    </dc:creator>
   </cc:Work>
  </rdf:RDF>
 </metadata>
 <defs>
  <style type="text/css">*{stroke-linecap:butt;stroke-linejoin:round;}</style>
 </defs>
 <g id="figure_1">
  <g id="patch_1">
   <path d="M 0 2090.594375 
L 2065.165625 2090.594375 
L 2065.165625 0 
L 0 0 
z
" style="fill:#ffffff;"/>
  </g>
  <g id="axes_1">
   <g id="patch_2">
    <path d="M 46.965625 2052.76 
L 1832.565625 2052.76 
L 1832.565625 278.68 
L 46.965625 278.68 
z
" style="fill:#ffffff;"/>
   </g>
   <g id="matplotlib.axis_1">
    <g id="xtick_1">
     <g id="line2d_1">
      <defs>
       <path d="M 0 0 
L 0 3.5 
" id="m636af7b38d" style="stroke:#000000;stroke-width:0.8;"/>
      </defs>
      <g>
       <use style="stroke:#000000;stroke-width:0.8;" x="413.705019" xlink:href="#m636af7b38d" y="2052.76"/>
      </g>
     </g>
     <g id="text_1">
      <text style="font-family:DejaVu Sans;font-size:10px;font-stretch:normal;font-style:normal;font-weight:normal;text-anchor:middle;" transform="rotate(-0, 413.705019, 2067.358437)" x="413.705019" y="2067.358437">1010</text>
     </g>
    </g>
    <g id="xtick_2">
     <g id="line2d_2">
      <g>
       <use style="stroke:#000000;stroke-width:0.8;" x="789.462595" xlink:href="#m636af7b38d" y="2052.76"/>
      </g>
     </g>
     <g id="text_2">
      <text style="font-family:DejaVu Sans;font-size:10px;font-stretch:normal;font-style:normal;font-weight:normal;text-anchor:middle;" transform="rotate(-0, 789.462595, 2067.358437)" x="789.462595" y="2067.358437">1015</text>
     </g>
    </g>
    <g id="xtick_3">
     <g id="line2d_3">
      <g>
       <use style="stroke:#000000;stroke-width:0.8;" x="1165.22017" xlink:href="#m636af7b38d" y="2052.76"/>
      </g>
     </g>
     <g id="text_3">
      <text style="font-family:DejaVu Sans;font-size:10px;font-stretch:normal;font-style:normal;font-weight:normal;text-anchor:middle;" transform="rotate(-0, 1165.22017, 2067.358437)" x="1165.22017" y="2067.358437">1020</text>
     </g>
    </g>
    <g id="xtick_4">
     <g id="line2d_4">
      <g>
       <use style="stroke:#000000;stroke-width:0.8;" x="1540.977746" xlink:href="#m636af7b38d" y="2052.76"/>
      </g>
     </g>
     <g id="text_4">
      <text style="font-family:DejaVu Sans;font-size:10px;font-stretch:normal;font-style:normal;font-weight:normal;text-anchor:middle;" transform="rotate(-0, 1540.977746, 2067.358437)" x="1540.977746" y="2067.358437">1025</text>
     </g>
    </g>
    <g id="text_5">
     <text style="font-family:DejaVu Sans;font-size:10px;font-stretch:normal;font-style:normal;font-weight:normal;text-anchor:middle;" transform="rotate(-0, 939.765625, 2081.036562)" x="939.765625" y="2081.036562">air_pressure from Aeris</text>
    </g>
   </g>
   <g id="matplotlib.axis_2">
    <g id="ytick_1">
     <g id="line2d_5">
      <defs>
       <path d="M 0 0 
L -3.5 0 
" id="ma8f94a19c8" style="stroke:#000000;stroke-width:0.8;"/>
      </defs>
      <g>
       <use style="stroke:#000000;stroke-width:0.8;" x="46.965625" xlink:href="#ma8f94a19c8" y="1980.698723"/>
      </g>
     </g>
     <g id="text_6">
      <text style="font-family:DejaVu Sans;font-size:10px;font-stretch:normal;font-style:normal;font-weight:normal;text-anchor:end;" transform="rotate(-0, 39.965625, 1984.497942)" x="39.965625" y="1984.497942">0</text>
     </g>
    </g>
    <g id="ytick_2">
     <g id="line2d_6">
      <g>
       <use style="stroke:#000000;stroke-width:0.8;" x="46.965625" xlink:href="#ma8f94a19c8" y="1637.549787"/>
      </g>
     </g>
     <g id="text_7">
      <text style="font-family:DejaVu Sans;font-size:10px;font-stretch:normal;font-style:normal;font-weight:normal;text-anchor:end;" transform="rotate(-0, 39.965625, 1641.349006)" x="39.965625" y="1641.349006">200</text>
     </g>
    </g>
    <g id="ytick_3">
     <g id="line2d_7">
      <g>
       <use style="stroke:#000000;stroke-width:0.8;" x="46.965625" xlink:href="#ma8f94a19c8" y="1294.400851"/>
      </g>
     </g>
     <g id="text_8">
      <text style="font-family:DejaVu Sans;font-size:10px;font-stretch:normal;font-style:normal;font-weight:normal;text-anchor:end;" transform="rotate(-0, 39.965625, 1298.20007)" x="39.965625" y="1298.20007">400</text>
     </g>
    </g>
    <g id="ytick_4">
     <g id="line2d_8">
      <g>
       <use style="stroke:#000000;stroke-width:0.8;" x="46.965625" xlink:href="#ma8f94a19c8" y="951.251915"/>
      </g>
     </g>
     <g id="text_9">
      <text style="font-family:DejaVu Sans;font-size:10px;font-stretch:normal;font-style:normal;font-weight:normal;text-anchor:end;" transform="rotate(-0, 39.965625, 955.051134)" x="39.965625" y="955.051134">600</text>
     </g>
    </g>
    <g id="ytick_5">
     <g id="line2d_9">
      <g>
       <use style="stroke:#000000;stroke-width:0.8;" x="46.965625" xlink:href="#ma8f94a19c8" y="608.102979"/>
      </g>
     </g>
     <g id="text_10">
      <text style="font-family:DejaVu Sans;font-size:10px;font-stretch:normal;font-style:normal;font-weight:normal;text-anchor:end;" transform="rotate(-0, 39.965625, 611.902197)" x="39.965625" y="611.902197">800</text>
     </g>
    </g>
    <g id="text_11">
     <text style="font-family:DejaVu Sans;font-size:10px;font-stretch:normal;font-style:normal;font-weight:normal;text-anchor:middle;" transform="rotate(-90, 14.798437, 1165.72)" x="14.798437" y="1165.72">Retransmission[dimensionless]</text>
    </g>
   </g>
   <g id="line2d_10">
    <path clip-path="url(#p1de91508f5)" d="M 128.129261 1179.445957 
L 143.159564 1972.12 
L 150.674716 1433.37617 
L 165.705019 1328.715745 
L 173.22017 1299.548085 
L 180.735322 1304.695319 
L 195.765625 1038.754894 
L 203.280777 741.931064 
L 218.31108 783.108936 
L 225.826231 1105.668936 
L 240.856534 1102.237447 
L 248.371686 1160.572766 
L 263.401989 1136.55234 
L 270.91714 1050.765106 
L 278.432292 896.348085 
L 293.462595 1019.881702 
L 300.977746 1067.922553 
L 316.008049 1191.45617 
L 323.523201 1869.175319 
L 346.068655 1177.730213 
L 353.583807 1042.186383 
L 361.098958 1484.848511 
L 368.61411 892.916596 
L 376.129261 1085.08 
L 391.159564 1465.975319 
L 398.674716 1131.405106 
L 413.705019 1390.482553 
L 421.22017 916.937021 
L 428.735322 1019.881702 
L 443.765625 999.292766 
L 451.280777 1268.664681 
L 466.31108 1153.709787 
L 473.826231 1529.457872 
L 496.371686 1169.151489 
L 503.886837 1019.881702 
L 518.91714 935.810213 
L 541.462595 1146.846809 
L 548.977746 1073.069787 
L 564.008049 1009.587234 
L 571.523201 1009.587234 
L 579.038352 1174.298723 
L 594.068655 999.292766 
L 601.583807 1320.137021 
L 616.61411 1023.313191 
L 624.129261 1194.88766 
L 639.159564 1164.004255 
L 646.674716 805.413617 
L 669.22017 1045.617872 
L 676.735322 1345.873191 
L 691.765625 1103.953191 
L 699.280777 1110.81617 
L 721.826231 910.074043 
L 729.341383 1344.157447 
L 744.371686 769.382979 
L 751.886837 935.810213 
L 766.91714 971.840851 
L 796.977746 771.098723 
L 804.492898 1126.257872 
L 819.523201 685.311489 
L 827.038352 1479.701277 
L 842.068655 1013.018723 
L 849.583807 1148.562553 
L 864.61411 1124.542128 
L 872.129261 1059.34383 
L 879.644413 1224.055319 
L 894.674716 1004.44 
L 902.189867 1004.44 
L 917.22017 980.419574 
L 924.735322 1179.445957 
L 947.280777 1023.313191 
L 969.826231 740.215319 
L 999.886837 1306.411064 
L 1022.432292 964.977872 
L 1029.947443 1055.91234 
L 1044.977746 822.571064 
L 1052.492898 1289.253617 
L 1075.038352 1318.421277 
L 1097.583807 1083.364255 
L 1105.098958 1069.638298 
L 1120.129261 1189.740426 
L 1127.644413 1174.298723 
L 1150.189867 1157.141277 
L 1172.735322 582.366809 
L 1180.250473 1366.462128 
L 1195.280777 1052.480851 
L 1247.886837 1052.480851 
L 1270.432292 1074.785532 
L 1292.977746 1455.680851 
L 1300.492898 1222.339574 
L 1323.038352 623.544681 
L 1345.583807 793.403404 
L 1375.644413 1399.061277 
L 1398.189867 815.708085 
L 1420.735322 874.043404 
L 1450.795928 1297.83234 
L 1473.341383 359.32 
L 1495.886837 1071.354043 
L 1525.947443 1124.542128 
L 1548.492898 867.180426 
L 1571.038352 644.133617 
L 1601.098958 1438.523404 
L 1623.644413 666.438298 
L 1646.189867 1196.603404 
L 1698.795928 1339.010213 
L 1751.401989 1481.417021 
" style="fill:none;stroke:#0000ff;stroke-linecap:square;stroke-width:1.5;"/>
   </g>
   <g id="patch_3">
    <path d="M 46.965625 2052.76 
L 46.965625 278.68 
" style="fill:none;stroke:#000000;stroke-linecap:square;stroke-linejoin:miter;stroke-width:0.8;"/>
   </g>
   <g id="patch_4">
    <path d="M 1832.565625 2052.76 
L 1832.565625 278.68 
" style="fill:none;stroke:#000000;stroke-linecap:square;stroke-linejoin:miter;stroke-width:0.8;"/>
   </g>
   <g id="patch_5">
    <path d="M 46.965625 2052.76 
L 1832.565625 2052.76 
" style="fill:none;stroke:#000000;stroke-linecap:square;stroke-linejoin:miter;stroke-width:0.8;"/>
   </g>
   <g id="patch_6">
    <path d="M 46.965625 278.68 
L 1832.565625 278.68 
" style="fill:none;stroke:#000000;stroke-linecap:square;stroke-linejoin:miter;stroke-width:0.8;"/>
   </g>
   <g id="text_12">
    <text style="font-family:DejaVu Sans;font-size:12px;font-stretch:normal;font-style:normal;font-weight:normal;text-anchor:middle;" transform="rotate(-0, 939.765625, 272.68)" x="939.765625" y="272.68">air_pressure-&gt;Retransmission</text>
   </g>
  </g>
  <g id="legend_1">
   <g id="patch_7">
    <path d="M 1870.68125 22.678125 
L 2058.165625 22.678125 
Q 2060.165625 22.678125 2060.165625 20.678125 
L 2060.165625 7 
Q 2060.165625 5 2058.165625 5 
L 1870.68125 5 
Q 1868.68125 5 1868.68125 7 
L 1868.68125 20.678125 
Q 1868.68125 22.678125 1870.68125 22.678125 
z
" style="fill:#ffffff;opacity:0.8;stroke:#cccccc;stroke-linejoin:miter;"/>
   </g>
   <g id="line2d_11">
    <path d="M 1872.68125 13.098437 
L 1892.68125 13.098437 
" style="fill:none;stroke:#0000ff;stroke-linecap:square;stroke-width:1.5;"/>
   </g>
   <g id="line2d_12"/>
   <g id="text_13">
    <text style="font-family:DejaVu Sans;font-size:10px;font-stretch:normal;font-style:normal;font-weight:normal;text-anchor:start;" transform="rotate(-0, 1900.68125, 16.598437)" x="1900.68125" y="16.598437">Retransmission[dimensionless]</text>
   </g>
  </g>
 </g>
 <defs>
  <clipPath id="p1de91508f5">
   <rect height="1774.08" width="1785.6" x="46.965625" y="278.68"/>
  </clipPath>
 </defs>
</svg>
