<?xml version="1.0" encoding="utf-8" standalone="no"?>
<!DOCTYPE svg PUBLIC "-//W3C//DTD SVG 1.1//EN"
  "http://www.w3.org/Graphics/SVG/1.1/DTD/svg11.dtd">
<!-- Created with matplotlib (https://matplotlib.org/) -->
<svg height="345.6pt" version="1.1" viewBox="0 0 460.8 345.6" width="460.8pt" xmlns="http://www.w3.org/2000/svg" xmlns:xlink="http://www.w3.org/1999/xlink">
 <metadata>
  <rdf:RDF xmlns:cc="http://creativecommons.org/ns#" xmlns:dc="http://purl.org/dc/elements/1.1/" xmlns:rdf="http://www.w3.org/1999/02/22-rdf-syntax-ns#">
   <cc:Work>
    <dc:type rdf:resource="http://purl.org/dc/dcmitype/StillImage"/>
    <dc:date>2022-07-16T22:25:38.914228</dc:date>
    <dc:format>image/svg+xml</dc:format>
    <dc:creator>
     <cc:Agent>
      <dc:title>Matplotlib v3.3.2, https://matplotlib.org/</dc:title>
     </cc:Agent>
    </dc:creator>
   </cc:Work>
  </rdf:RDF>
 </metadata>
 <defs>
  <style type="text/css">*{stroke-linecap:butt;stroke-linejoin:round;}</style>
 </defs>
 <g id="figure_1">
  <g id="patch_1">
   <path d="M 0 345.6 
L 460.8 345.6 
L 460.8 0 
L 0 0 
z
" style="fill:#ffffff;"/>
  </g>
  <g id="axes_1">
   <g id="patch_2">
    <path d="M 57.6 307.584 
L 414.72 307.584 
L 414.72 41.472 
L 57.6 41.472 
z
" style="fill:#ffffff;"/>
   </g>
   <g id="matplotlib.axis_1">
    <g id="xtick_1">
     <g id="line2d_1">
      <defs>
       <path d="M 0 0 
L 0 3.5 
" id="meee7689ff3" style="stroke:#000000;stroke-width:0.8;"/>
      </defs>
      <g>
       <use style="stroke:#000000;stroke-width:0.8;" x="69.218348" xlink:href="#meee7689ff3" y="307.584"/>
      </g>
     </g>
     <g id="text_1">
      <!-- 0 -->
      <g transform="translate(66.037098 322.182437)scale(0.1 -0.1)">
       <defs>
        <path d="M 31.78125 66.40625 
Q 24.171875 66.40625 20.328125 58.90625 
Q 16.5 51.421875 16.5 36.375 
Q 16.5 21.390625 20.328125 13.890625 
Q 24.171875 6.390625 31.78125 6.390625 
Q 39.453125 6.390625 43.28125 13.890625 
Q 47.125 21.390625 47.125 36.375 
Q 47.125 51.421875 43.28125 58.90625 
Q 39.453125 66.40625 31.78125 66.40625 
z
M 31.78125 74.21875 
Q 44.046875 74.21875 50.515625 64.515625 
Q 56.984375 54.828125 56.984375 36.375 
Q 56.984375 17.96875 50.515625 8.265625 
Q 44.046875 -1.421875 31.78125 -1.421875 
Q 19.53125 -1.421875 13.0625 8.265625 
Q 6.59375 17.96875 6.59375 36.375 
Q 6.59375 54.828125 13.0625 64.515625 
Q 19.53125 74.21875 31.78125 74.21875 
z
" id="DejaVuSans-48"/>
       </defs>
       <use xlink:href="#DejaVuSans-48"/>
      </g>
     </g>
    </g>
    <g id="xtick_2">
     <g id="line2d_2">
      <g>
       <use style="stroke:#000000;stroke-width:0.8;" x="135.138053" xlink:href="#meee7689ff3" y="307.584"/>
      </g>
     </g>
     <g id="text_2">
      <!-- 2 -->
      <g transform="translate(131.956803 322.182437)scale(0.1 -0.1)">
       <defs>
        <path d="M 19.1875 8.296875 
L 53.609375 8.296875 
L 53.609375 0 
L 7.328125 0 
L 7.328125 8.296875 
Q 12.9375 14.109375 22.625 23.890625 
Q 32.328125 33.6875 34.8125 36.53125 
Q 39.546875 41.84375 41.421875 45.53125 
Q 43.3125 49.21875 43.3125 52.78125 
Q 43.3125 58.59375 39.234375 62.25 
Q 35.15625 65.921875 28.609375 65.921875 
Q 23.96875 65.921875 18.8125 64.3125 
Q 13.671875 62.703125 7.8125 59.421875 
L 7.8125 69.390625 
Q 13.765625 71.78125 18.9375 73 
Q 24.125 74.21875 28.421875 74.21875 
Q 39.75 74.21875 46.484375 68.546875 
Q 53.21875 62.890625 53.21875 53.421875 
Q 53.21875 48.921875 51.53125 44.890625 
Q 49.859375 40.875 45.40625 35.40625 
Q 44.1875 33.984375 37.640625 27.21875 
Q 31.109375 20.453125 19.1875 8.296875 
z
" id="DejaVuSans-50"/>
       </defs>
       <use xlink:href="#DejaVuSans-50"/>
      </g>
     </g>
    </g>
    <g id="xtick_3">
     <g id="line2d_3">
      <g>
       <use style="stroke:#000000;stroke-width:0.8;" x="201.057757" xlink:href="#meee7689ff3" y="307.584"/>
      </g>
     </g>
     <g id="text_3">
      <!-- 4 -->
      <g transform="translate(197.876507 322.182437)scale(0.1 -0.1)">
       <defs>
        <path d="M 37.796875 64.3125 
L 12.890625 25.390625 
L 37.796875 25.390625 
z
M 35.203125 72.90625 
L 47.609375 72.90625 
L 47.609375 25.390625 
L 58.015625 25.390625 
L 58.015625 17.1875 
L 47.609375 17.1875 
L 47.609375 0 
L 37.796875 0 
L 37.796875 17.1875 
L 4.890625 17.1875 
L 4.890625 26.703125 
z
" id="DejaVuSans-52"/>
       </defs>
       <use xlink:href="#DejaVuSans-52"/>
      </g>
     </g>
    </g>
    <g id="xtick_4">
     <g id="line2d_4">
      <g>
       <use style="stroke:#000000;stroke-width:0.8;" x="266.977462" xlink:href="#meee7689ff3" y="307.584"/>
      </g>
     </g>
     <g id="text_4">
      <!-- 6 -->
      <g transform="translate(263.796212 322.182437)scale(0.1 -0.1)">
       <defs>
        <path d="M 33.015625 40.375 
Q 26.375 40.375 22.484375 35.828125 
Q 18.609375 31.296875 18.609375 23.390625 
Q 18.609375 15.53125 22.484375 10.953125 
Q 26.375 6.390625 33.015625 6.390625 
Q 39.65625 6.390625 43.53125 10.953125 
Q 47.40625 15.53125 47.40625 23.390625 
Q 47.40625 31.296875 43.53125 35.828125 
Q 39.65625 40.375 33.015625 40.375 
z
M 52.59375 71.296875 
L 52.59375 62.3125 
Q 48.875 64.0625 45.09375 64.984375 
Q 41.3125 65.921875 37.59375 65.921875 
Q 27.828125 65.921875 22.671875 59.328125 
Q 17.53125 52.734375 16.796875 39.40625 
Q 19.671875 43.65625 24.015625 45.921875 
Q 28.375 48.1875 33.59375 48.1875 
Q 44.578125 48.1875 50.953125 41.515625 
Q 57.328125 34.859375 57.328125 23.390625 
Q 57.328125 12.15625 50.6875 5.359375 
Q 44.046875 -1.421875 33.015625 -1.421875 
Q 20.359375 -1.421875 13.671875 8.265625 
Q 6.984375 17.96875 6.984375 36.375 
Q 6.984375 53.65625 15.1875 63.9375 
Q 23.390625 74.21875 37.203125 74.21875 
Q 40.921875 74.21875 44.703125 73.484375 
Q 48.484375 72.75 52.59375 71.296875 
z
" id="DejaVuSans-54"/>
       </defs>
       <use xlink:href="#DejaVuSans-54"/>
      </g>
     </g>
    </g>
    <g id="xtick_5">
     <g id="line2d_5">
      <g>
       <use style="stroke:#000000;stroke-width:0.8;" x="332.897167" xlink:href="#meee7689ff3" y="307.584"/>
      </g>
     </g>
     <g id="text_5">
      <!-- 8 -->
      <g transform="translate(329.715917 322.182437)scale(0.1 -0.1)">
       <defs>
        <path d="M 31.78125 34.625 
Q 24.75 34.625 20.71875 30.859375 
Q 16.703125 27.09375 16.703125 20.515625 
Q 16.703125 13.921875 20.71875 10.15625 
Q 24.75 6.390625 31.78125 6.390625 
Q 38.8125 6.390625 42.859375 10.171875 
Q 46.921875 13.96875 46.921875 20.515625 
Q 46.921875 27.09375 42.890625 30.859375 
Q 38.875 34.625 31.78125 34.625 
z
M 21.921875 38.8125 
Q 15.578125 40.375 12.03125 44.71875 
Q 8.5 49.078125 8.5 55.328125 
Q 8.5 64.0625 14.71875 69.140625 
Q 20.953125 74.21875 31.78125 74.21875 
Q 42.671875 74.21875 48.875 69.140625 
Q 55.078125 64.0625 55.078125 55.328125 
Q 55.078125 49.078125 51.53125 44.71875 
Q 48 40.375 41.703125 38.8125 
Q 48.828125 37.15625 52.796875 32.3125 
Q 56.78125 27.484375 56.78125 20.515625 
Q 56.78125 9.90625 50.3125 4.234375 
Q 43.84375 -1.421875 31.78125 -1.421875 
Q 19.734375 -1.421875 13.25 4.234375 
Q 6.78125 9.90625 6.78125 20.515625 
Q 6.78125 27.484375 10.78125 32.3125 
Q 14.796875 37.15625 21.921875 38.8125 
z
M 18.3125 54.390625 
Q 18.3125 48.734375 21.84375 45.5625 
Q 25.390625 42.390625 31.78125 42.390625 
Q 38.140625 42.390625 41.71875 45.5625 
Q 45.3125 48.734375 45.3125 54.390625 
Q 45.3125 60.0625 41.71875 63.234375 
Q 38.140625 66.40625 31.78125 66.40625 
Q 25.390625 66.40625 21.84375 63.234375 
Q 18.3125 60.0625 18.3125 54.390625 
z
" id="DejaVuSans-56"/>
       </defs>
       <use xlink:href="#DejaVuSans-56"/>
      </g>
     </g>
    </g>
    <g id="xtick_6">
     <g id="line2d_6">
      <g>
       <use style="stroke:#000000;stroke-width:0.8;" x="398.816871" xlink:href="#meee7689ff3" y="307.584"/>
      </g>
     </g>
     <g id="text_6">
      <!-- 10 -->
      <g transform="translate(392.454371 322.182437)scale(0.1 -0.1)">
       <defs>
        <path d="M 12.40625 8.296875 
L 28.515625 8.296875 
L 28.515625 63.921875 
L 10.984375 60.40625 
L 10.984375 69.390625 
L 28.421875 72.90625 
L 38.28125 72.90625 
L 38.28125 8.296875 
L 54.390625 8.296875 
L 54.390625 0 
L 12.40625 0 
z
" id="DejaVuSans-49"/>
       </defs>
       <use xlink:href="#DejaVuSans-49"/>
       <use x="63.623047" xlink:href="#DejaVuSans-48"/>
      </g>
     </g>
    </g>
    <g id="text_7">
     <!-- wind_speed from OpenWeatherMap -->
     <g transform="translate(146.962344 335.860562)scale(0.1 -0.1)">
      <defs>
       <path d="M 4.203125 54.6875 
L 13.1875 54.6875 
L 24.421875 12.015625 
L 35.59375 54.6875 
L 46.1875 54.6875 
L 57.421875 12.015625 
L 68.609375 54.6875 
L 77.59375 54.6875 
L 63.28125 0 
L 52.6875 0 
L 40.921875 44.828125 
L 29.109375 0 
L 18.5 0 
z
" id="DejaVuSans-119"/>
       <path d="M 9.421875 54.6875 
L 18.40625 54.6875 
L 18.40625 0 
L 9.421875 0 
z
M 9.421875 75.984375 
L 18.40625 75.984375 
L 18.40625 64.59375 
L 9.421875 64.59375 
z
" id="DejaVuSans-105"/>
       <path d="M 54.890625 33.015625 
L 54.890625 0 
L 45.90625 0 
L 45.90625 32.71875 
Q 45.90625 40.484375 42.875 44.328125 
Q 39.84375 48.1875 33.796875 48.1875 
Q 26.515625 48.1875 22.3125 43.546875 
Q 18.109375 38.921875 18.109375 30.90625 
L 18.109375 0 
L 9.078125 0 
L 9.078125 54.6875 
L 18.109375 54.6875 
L 18.109375 46.1875 
Q 21.34375 51.125 25.703125 53.5625 
Q 30.078125 56 35.796875 56 
Q 45.21875 56 50.046875 50.171875 
Q 54.890625 44.34375 54.890625 33.015625 
z
" id="DejaVuSans-110"/>
       <path d="M 45.40625 46.390625 
L 45.40625 75.984375 
L 54.390625 75.984375 
L 54.390625 0 
L 45.40625 0 
L 45.40625 8.203125 
Q 42.578125 3.328125 38.25 0.953125 
Q 33.9375 -1.421875 27.875 -1.421875 
Q 17.96875 -1.421875 11.734375 6.484375 
Q 5.515625 14.40625 5.515625 27.296875 
Q 5.515625 40.1875 11.734375 48.09375 
Q 17.96875 56 27.875 56 
Q 33.9375 56 38.25 53.625 
Q 42.578125 51.265625 45.40625 46.390625 
z
M 14.796875 27.296875 
Q 14.796875 17.390625 18.875 11.75 
Q 22.953125 6.109375 30.078125 6.109375 
Q 37.203125 6.109375 41.296875 11.75 
Q 45.40625 17.390625 45.40625 27.296875 
Q 45.40625 37.203125 41.296875 42.84375 
Q 37.203125 48.484375 30.078125 48.484375 
Q 22.953125 48.484375 18.875 42.84375 
Q 14.796875 37.203125 14.796875 27.296875 
z
" id="DejaVuSans-100"/>
       <path d="M 50.984375 -16.609375 
L 50.984375 -23.578125 
L -0.984375 -23.578125 
L -0.984375 -16.609375 
z
" id="DejaVuSans-95"/>
       <path d="M 44.28125 53.078125 
L 44.28125 44.578125 
Q 40.484375 46.53125 36.375 47.5 
Q 32.28125 48.484375 27.875 48.484375 
Q 21.1875 48.484375 17.84375 46.4375 
Q 14.5 44.390625 14.5 40.28125 
Q 14.5 37.15625 16.890625 35.375 
Q 19.28125 33.59375 26.515625 31.984375 
L 29.59375 31.296875 
Q 39.15625 29.25 43.1875 25.515625 
Q 47.21875 21.78125 47.21875 15.09375 
Q 47.21875 7.46875 41.1875 3.015625 
Q 35.15625 -1.421875 24.609375 -1.421875 
Q 20.21875 -1.421875 15.453125 -0.5625 
Q 10.6875 0.296875 5.421875 2 
L 5.421875 11.28125 
Q 10.40625 8.6875 15.234375 7.390625 
Q 20.0625 6.109375 24.8125 6.109375 
Q 31.15625 6.109375 34.5625 8.28125 
Q 37.984375 10.453125 37.984375 14.40625 
Q 37.984375 18.0625 35.515625 20.015625 
Q 33.0625 21.96875 24.703125 23.78125 
L 21.578125 24.515625 
Q 13.234375 26.265625 9.515625 29.90625 
Q 5.8125 33.546875 5.8125 39.890625 
Q 5.8125 47.609375 11.28125 51.796875 
Q 16.75 56 26.8125 56 
Q 31.78125 56 36.171875 55.265625 
Q 40.578125 54.546875 44.28125 53.078125 
z
" id="DejaVuSans-115"/>
       <path d="M 18.109375 8.203125 
L 18.109375 -20.796875 
L 9.078125 -20.796875 
L 9.078125 54.6875 
L 18.109375 54.6875 
L 18.109375 46.390625 
Q 20.953125 51.265625 25.265625 53.625 
Q 29.59375 56 35.59375 56 
Q 45.5625 56 51.78125 48.09375 
Q 58.015625 40.1875 58.015625 27.296875 
Q 58.015625 14.40625 51.78125 6.484375 
Q 45.5625 -1.421875 35.59375 -1.421875 
Q 29.59375 -1.421875 25.265625 0.953125 
Q 20.953125 3.328125 18.109375 8.203125 
z
M 48.6875 27.296875 
Q 48.6875 37.203125 44.609375 42.84375 
Q 40.53125 48.484375 33.40625 48.484375 
Q 26.265625 48.484375 22.1875 42.84375 
Q 18.109375 37.203125 18.109375 27.296875 
Q 18.109375 17.390625 22.1875 11.75 
Q 26.265625 6.109375 33.40625 6.109375 
Q 40.53125 6.109375 44.609375 11.75 
Q 48.6875 17.390625 48.6875 27.296875 
z
" id="DejaVuSans-112"/>
       <path d="M 56.203125 29.59375 
L 56.203125 25.203125 
L 14.890625 25.203125 
Q 15.484375 15.921875 20.484375 11.0625 
Q 25.484375 6.203125 34.421875 6.203125 
Q 39.59375 6.203125 44.453125 7.46875 
Q 49.3125 8.734375 54.109375 11.28125 
L 54.109375 2.78125 
Q 49.265625 0.734375 44.1875 -0.34375 
Q 39.109375 -1.421875 33.890625 -1.421875 
Q 20.796875 -1.421875 13.15625 6.1875 
Q 5.515625 13.8125 5.515625 26.8125 
Q 5.515625 40.234375 12.765625 48.109375 
Q 20.015625 56 32.328125 56 
Q 43.359375 56 49.78125 48.890625 
Q 56.203125 41.796875 56.203125 29.59375 
z
M 47.21875 32.234375 
Q 47.125 39.59375 43.09375 43.984375 
Q 39.0625 48.390625 32.421875 48.390625 
Q 24.90625 48.390625 20.390625 44.140625 
Q 15.875 39.890625 15.1875 32.171875 
z
" id="DejaVuSans-101"/>
       <path id="DejaVuSans-32"/>
       <path d="M 37.109375 75.984375 
L 37.109375 68.5 
L 28.515625 68.5 
Q 23.6875 68.5 21.796875 66.546875 
Q 19.921875 64.59375 19.921875 59.515625 
L 19.921875 54.6875 
L 34.71875 54.6875 
L 34.71875 47.703125 
L 19.921875 47.703125 
L 19.921875 0 
L 10.890625 0 
L 10.890625 47.703125 
L 2.296875 47.703125 
L 2.296875 54.6875 
L 10.890625 54.6875 
L 10.890625 58.5 
Q 10.890625 67.625 15.140625 71.796875 
Q 19.390625 75.984375 28.609375 75.984375 
z
" id="DejaVuSans-102"/>
       <path d="M 41.109375 46.296875 
Q 39.59375 47.171875 37.8125 47.578125 
Q 36.03125 48 33.890625 48 
Q 26.265625 48 22.1875 43.046875 
Q 18.109375 38.09375 18.109375 28.8125 
L 18.109375 0 
L 9.078125 0 
L 9.078125 54.6875 
L 18.109375 54.6875 
L 18.109375 46.1875 
Q 20.953125 51.171875 25.484375 53.578125 
Q 30.03125 56 36.53125 56 
Q 37.453125 56 38.578125 55.875 
Q 39.703125 55.765625 41.0625 55.515625 
z
" id="DejaVuSans-114"/>
       <path d="M 30.609375 48.390625 
Q 23.390625 48.390625 19.1875 42.75 
Q 14.984375 37.109375 14.984375 27.296875 
Q 14.984375 17.484375 19.15625 11.84375 
Q 23.34375 6.203125 30.609375 6.203125 
Q 37.796875 6.203125 41.984375 11.859375 
Q 46.1875 17.53125 46.1875 27.296875 
Q 46.1875 37.015625 41.984375 42.703125 
Q 37.796875 48.390625 30.609375 48.390625 
z
M 30.609375 56 
Q 42.328125 56 49.015625 48.375 
Q 55.71875 40.765625 55.71875 27.296875 
Q 55.71875 13.875 49.015625 6.21875 
Q 42.328125 -1.421875 30.609375 -1.421875 
Q 18.84375 -1.421875 12.171875 6.21875 
Q 5.515625 13.875 5.515625 27.296875 
Q 5.515625 40.765625 12.171875 48.375 
Q 18.84375 56 30.609375 56 
z
" id="DejaVuSans-111"/>
       <path d="M 52 44.1875 
Q 55.375 50.25 60.0625 53.125 
Q 64.75 56 71.09375 56 
Q 79.640625 56 84.28125 50.015625 
Q 88.921875 44.046875 88.921875 33.015625 
L 88.921875 0 
L 79.890625 0 
L 79.890625 32.71875 
Q 79.890625 40.578125 77.09375 44.375 
Q 74.3125 48.1875 68.609375 48.1875 
Q 61.625 48.1875 57.5625 43.546875 
Q 53.515625 38.921875 53.515625 30.90625 
L 53.515625 0 
L 44.484375 0 
L 44.484375 32.71875 
Q 44.484375 40.625 41.703125 44.40625 
Q 38.921875 48.1875 33.109375 48.1875 
Q 26.21875 48.1875 22.15625 43.53125 
Q 18.109375 38.875 18.109375 30.90625 
L 18.109375 0 
L 9.078125 0 
L 9.078125 54.6875 
L 18.109375 54.6875 
L 18.109375 46.1875 
Q 21.1875 51.21875 25.484375 53.609375 
Q 29.78125 56 35.6875 56 
Q 41.65625 56 45.828125 52.96875 
Q 50 49.953125 52 44.1875 
z
" id="DejaVuSans-109"/>
       <path d="M 39.40625 66.21875 
Q 28.65625 66.21875 22.328125 58.203125 
Q 16.015625 50.203125 16.015625 36.375 
Q 16.015625 22.609375 22.328125 14.59375 
Q 28.65625 6.59375 39.40625 6.59375 
Q 50.140625 6.59375 56.421875 14.59375 
Q 62.703125 22.609375 62.703125 36.375 
Q 62.703125 50.203125 56.421875 58.203125 
Q 50.140625 66.21875 39.40625 66.21875 
z
M 39.40625 74.21875 
Q 54.734375 74.21875 63.90625 63.9375 
Q 73.09375 53.65625 73.09375 36.375 
Q 73.09375 19.140625 63.90625 8.859375 
Q 54.734375 -1.421875 39.40625 -1.421875 
Q 24.03125 -1.421875 14.8125 8.828125 
Q 5.609375 19.09375 5.609375 36.375 
Q 5.609375 53.65625 14.8125 63.9375 
Q 24.03125 74.21875 39.40625 74.21875 
z
" id="DejaVuSans-79"/>
       <path d="M 3.328125 72.90625 
L 13.28125 72.90625 
L 28.609375 11.28125 
L 43.890625 72.90625 
L 54.984375 72.90625 
L 70.3125 11.28125 
L 85.59375 72.90625 
L 95.609375 72.90625 
L 77.296875 0 
L 64.890625 0 
L 49.515625 63.28125 
L 33.984375 0 
L 21.578125 0 
z
" id="DejaVuSans-87"/>
       <path d="M 34.28125 27.484375 
Q 23.390625 27.484375 19.1875 25 
Q 14.984375 22.515625 14.984375 16.5 
Q 14.984375 11.71875 18.140625 8.90625 
Q 21.296875 6.109375 26.703125 6.109375 
Q 34.1875 6.109375 38.703125 11.40625 
Q 43.21875 16.703125 43.21875 25.484375 
L 43.21875 27.484375 
z
M 52.203125 31.203125 
L 52.203125 0 
L 43.21875 0 
L 43.21875 8.296875 
Q 40.140625 3.328125 35.546875 0.953125 
Q 30.953125 -1.421875 24.3125 -1.421875 
Q 15.921875 -1.421875 10.953125 3.296875 
Q 6 8.015625 6 15.921875 
Q 6 25.140625 12.171875 29.828125 
Q 18.359375 34.515625 30.609375 34.515625 
L 43.21875 34.515625 
L 43.21875 35.40625 
Q 43.21875 41.609375 39.140625 45 
Q 35.0625 48.390625 27.6875 48.390625 
Q 23 48.390625 18.546875 47.265625 
Q 14.109375 46.140625 10.015625 43.890625 
L 10.015625 52.203125 
Q 14.9375 54.109375 19.578125 55.046875 
Q 24.21875 56 28.609375 56 
Q 40.484375 56 46.34375 49.84375 
Q 52.203125 43.703125 52.203125 31.203125 
z
" id="DejaVuSans-97"/>
       <path d="M 18.3125 70.21875 
L 18.3125 54.6875 
L 36.8125 54.6875 
L 36.8125 47.703125 
L 18.3125 47.703125 
L 18.3125 18.015625 
Q 18.3125 11.328125 20.140625 9.421875 
Q 21.96875 7.515625 27.59375 7.515625 
L 36.8125 7.515625 
L 36.8125 0 
L 27.59375 0 
Q 17.1875 0 13.234375 3.875 
Q 9.28125 7.765625 9.28125 18.015625 
L 9.28125 47.703125 
L 2.6875 47.703125 
L 2.6875 54.6875 
L 9.28125 54.6875 
L 9.28125 70.21875 
z
" id="DejaVuSans-116"/>
       <path d="M 54.890625 33.015625 
L 54.890625 0 
L 45.90625 0 
L 45.90625 32.71875 
Q 45.90625 40.484375 42.875 44.328125 
Q 39.84375 48.1875 33.796875 48.1875 
Q 26.515625 48.1875 22.3125 43.546875 
Q 18.109375 38.921875 18.109375 30.90625 
L 18.109375 0 
L 9.078125 0 
L 9.078125 75.984375 
L 18.109375 75.984375 
L 18.109375 46.1875 
Q 21.34375 51.125 25.703125 53.5625 
Q 30.078125 56 35.796875 56 
Q 45.21875 56 50.046875 50.171875 
Q 54.890625 44.34375 54.890625 33.015625 
z
" id="DejaVuSans-104"/>
       <path d="M 9.8125 72.90625 
L 24.515625 72.90625 
L 43.109375 23.296875 
L 61.8125 72.90625 
L 76.515625 72.90625 
L 76.515625 0 
L 66.890625 0 
L 66.890625 64.015625 
L 48.09375 14.015625 
L 38.1875 14.015625 
L 19.390625 64.015625 
L 19.390625 0 
L 9.8125 0 
z
" id="DejaVuSans-77"/>
      </defs>
      <use xlink:href="#DejaVuSans-119"/>
      <use x="81.787109" xlink:href="#DejaVuSans-105"/>
      <use x="109.570312" xlink:href="#DejaVuSans-110"/>
      <use x="172.949219" xlink:href="#DejaVuSans-100"/>
      <use x="236.425781" xlink:href="#DejaVuSans-95"/>
      <use x="286.425781" xlink:href="#DejaVuSans-115"/>
      <use x="338.525391" xlink:href="#DejaVuSans-112"/>
      <use x="402.001953" xlink:href="#DejaVuSans-101"/>
      <use x="463.525391" xlink:href="#DejaVuSans-101"/>
      <use x="525.048828" xlink:href="#DejaVuSans-100"/>
      <use x="588.525391" xlink:href="#DejaVuSans-32"/>
      <use x="620.3125" xlink:href="#DejaVuSans-102"/>
      <use x="655.517578" xlink:href="#DejaVuSans-114"/>
      <use x="694.380859" xlink:href="#DejaVuSans-111"/>
      <use x="755.5625" xlink:href="#DejaVuSans-109"/>
      <use x="852.974609" xlink:href="#DejaVuSans-32"/>
      <use x="884.761719" xlink:href="#DejaVuSans-79"/>
      <use x="963.472656" xlink:href="#DejaVuSans-112"/>
      <use x="1026.949219" xlink:href="#DejaVuSans-101"/>
      <use x="1088.472656" xlink:href="#DejaVuSans-110"/>
      <use x="1151.851562" xlink:href="#DejaVuSans-87"/>
      <use x="1244.853516" xlink:href="#DejaVuSans-101"/>
      <use x="1306.376953" xlink:href="#DejaVuSans-97"/>
      <use x="1367.65625" xlink:href="#DejaVuSans-116"/>
      <use x="1406.865234" xlink:href="#DejaVuSans-104"/>
      <use x="1470.244141" xlink:href="#DejaVuSans-101"/>
      <use x="1531.767578" xlink:href="#DejaVuSans-114"/>
      <use x="1572.880859" xlink:href="#DejaVuSans-77"/>
      <use x="1659.160156" xlink:href="#DejaVuSans-97"/>
      <use x="1720.439453" xlink:href="#DejaVuSans-112"/>
     </g>
    </g>
   </g>
   <g id="matplotlib.axis_2">
    <g id="ytick_1">
     <g id="line2d_7">
      <defs>
       <path d="M 0 0 
L -3.5 0 
" id="m735812be30" style="stroke:#000000;stroke-width:0.8;"/>
      </defs>
      <g>
       <use style="stroke:#000000;stroke-width:0.8;" x="57.6" xlink:href="#m735812be30" y="256.074067"/>
      </g>
     </g>
     <g id="text_8">
      <!-- 200 -->
      <g transform="translate(31.5125 259.873286)scale(0.1 -0.1)">
       <use xlink:href="#DejaVuSans-50"/>
       <use x="63.623047" xlink:href="#DejaVuSans-48"/>
       <use x="127.246094" xlink:href="#DejaVuSans-48"/>
      </g>
     </g>
    </g>
    <g id="ytick_2">
     <g id="line2d_8">
      <g>
       <use style="stroke:#000000;stroke-width:0.8;" x="57.6" xlink:href="#m735812be30" y="201.710022"/>
      </g>
     </g>
     <g id="text_9">
      <!-- 400 -->
      <g transform="translate(31.5125 205.509241)scale(0.1 -0.1)">
       <use xlink:href="#DejaVuSans-52"/>
       <use x="63.623047" xlink:href="#DejaVuSans-48"/>
       <use x="127.246094" xlink:href="#DejaVuSans-48"/>
      </g>
     </g>
    </g>
    <g id="ytick_3">
     <g id="line2d_9">
      <g>
       <use style="stroke:#000000;stroke-width:0.8;" x="57.6" xlink:href="#m735812be30" y="147.345978"/>
      </g>
     </g>
     <g id="text_10">
      <!-- 600 -->
      <g transform="translate(31.5125 151.145196)scale(0.1 -0.1)">
       <use xlink:href="#DejaVuSans-54"/>
       <use x="63.623047" xlink:href="#DejaVuSans-48"/>
       <use x="127.246094" xlink:href="#DejaVuSans-48"/>
      </g>
     </g>
    </g>
    <g id="ytick_4">
     <g id="line2d_10">
      <g>
       <use style="stroke:#000000;stroke-width:0.8;" x="57.6" xlink:href="#m735812be30" y="92.981933"/>
      </g>
     </g>
     <g id="text_11">
      <!-- 800 -->
      <g transform="translate(31.5125 96.781151)scale(0.1 -0.1)">
       <use xlink:href="#DejaVuSans-56"/>
       <use x="63.623047" xlink:href="#DejaVuSans-48"/>
       <use x="127.246094" xlink:href="#DejaVuSans-48"/>
      </g>
     </g>
    </g>
    <g id="text_12">
     <!-- Retransmission[dimensionless] -->
     <g transform="translate(25.432812 252.270187)rotate(-90)scale(0.1 -0.1)">
      <defs>
       <path d="M 44.390625 34.1875 
Q 47.5625 33.109375 50.5625 29.59375 
Q 53.5625 26.078125 56.59375 19.921875 
L 66.609375 0 
L 56 0 
L 46.6875 18.703125 
Q 43.0625 26.03125 39.671875 28.421875 
Q 36.28125 30.8125 30.421875 30.8125 
L 19.671875 30.8125 
L 19.671875 0 
L 9.8125 0 
L 9.8125 72.90625 
L 32.078125 72.90625 
Q 44.578125 72.90625 50.734375 67.671875 
Q 56.890625 62.453125 56.890625 51.90625 
Q 56.890625 45.015625 53.6875 40.46875 
Q 50.484375 35.9375 44.390625 34.1875 
z
M 19.671875 64.796875 
L 19.671875 38.921875 
L 32.078125 38.921875 
Q 39.203125 38.921875 42.84375 42.21875 
Q 46.484375 45.515625 46.484375 51.90625 
Q 46.484375 58.296875 42.84375 61.546875 
Q 39.203125 64.796875 32.078125 64.796875 
z
" id="DejaVuSans-82"/>
       <path d="M 8.59375 75.984375 
L 29.296875 75.984375 
L 29.296875 69 
L 17.578125 69 
L 17.578125 -6.203125 
L 29.296875 -6.203125 
L 29.296875 -13.1875 
L 8.59375 -13.1875 
z
" id="DejaVuSans-91"/>
       <path d="M 9.421875 75.984375 
L 18.40625 75.984375 
L 18.40625 0 
L 9.421875 0 
z
" id="DejaVuSans-108"/>
       <path d="M 30.421875 75.984375 
L 30.421875 -13.1875 
L 9.71875 -13.1875 
L 9.71875 -6.203125 
L 21.390625 -6.203125 
L 21.390625 69 
L 9.71875 69 
L 9.71875 75.984375 
z
" id="DejaVuSans-93"/>
      </defs>
      <use xlink:href="#DejaVuSans-82"/>
      <use x="64.982422" xlink:href="#DejaVuSans-101"/>
      <use x="126.505859" xlink:href="#DejaVuSans-116"/>
      <use x="165.714844" xlink:href="#DejaVuSans-114"/>
      <use x="206.828125" xlink:href="#DejaVuSans-97"/>
      <use x="268.107422" xlink:href="#DejaVuSans-110"/>
      <use x="331.486328" xlink:href="#DejaVuSans-115"/>
      <use x="383.585938" xlink:href="#DejaVuSans-109"/>
      <use x="480.998047" xlink:href="#DejaVuSans-105"/>
      <use x="508.78125" xlink:href="#DejaVuSans-115"/>
      <use x="560.880859" xlink:href="#DejaVuSans-115"/>
      <use x="612.980469" xlink:href="#DejaVuSans-105"/>
      <use x="640.763672" xlink:href="#DejaVuSans-111"/>
      <use x="701.945312" xlink:href="#DejaVuSans-110"/>
      <use x="765.324219" xlink:href="#DejaVuSans-91"/>
      <use x="804.337891" xlink:href="#DejaVuSans-100"/>
      <use x="867.814453" xlink:href="#DejaVuSans-105"/>
      <use x="895.597656" xlink:href="#DejaVuSans-109"/>
      <use x="993.009766" xlink:href="#DejaVuSans-101"/>
      <use x="1054.533203" xlink:href="#DejaVuSans-110"/>
      <use x="1117.912109" xlink:href="#DejaVuSans-115"/>
      <use x="1170.011719" xlink:href="#DejaVuSans-105"/>
      <use x="1197.794922" xlink:href="#DejaVuSans-111"/>
      <use x="1258.976562" xlink:href="#DejaVuSans-110"/>
      <use x="1322.355469" xlink:href="#DejaVuSans-108"/>
      <use x="1350.138672" xlink:href="#DejaVuSans-101"/>
      <use x="1411.662109" xlink:href="#DejaVuSans-115"/>
      <use x="1463.761719" xlink:href="#DejaVuSans-115"/>
      <use x="1515.861328" xlink:href="#DejaVuSans-93"/>
     </g>
    </g>
   </g>
   <g id="line2d_11">
    <path clip-path="url(#p08d0d73d48)" d="M 73.832727 167.732494 
L 79.435902 180.779865 
L 80.754296 179.148944 
L 84.709479 210.136449 
L 86.357471 186.75991 
L 89.323858 169.907056 
L 90.312653 170.450697 
L 90.642252 262.869573 
L 92.290245 162.29609 
L 92.619843 246.016719 
L 93.608639 174.25618 
L 93.938237 183.226247 
L 94.597434 185.128989 
L 94.927033 167.188854 
L 96.575025 203.069124 
L 97.234222 113.91209 
L 99.871011 158.218787 
L 100.200609 166.373393 
L 101.519003 193.283596 
L 102.1782 189.749933 
L 103.496594 187.03173 
L 103.826193 174.528 
L 104.155791 218.019236 
L 104.814988 178.605303 
L 105.803784 176.430742 
L 106.133383 164.470652 
L 106.79258 170.178876 
L 107.451777 233.784809 
L 107.781375 204.971865 
L 109.099769 221.009258 
L 109.758966 161.480629 
L 110.088565 174.528 
L 110.747762 216.388315 
L 111.07736 179.148944 
L 111.406959 259.06409 
L 111.736557 176.974382 
L 112.066156 210.136449 
L 112.725353 207.690067 
L 113.054952 190.021753 
L 113.714149 216.116494 
L 114.043747 197.904539 
L 115.032543 168.276135 
L 116.021338 175.07164 
L 116.680535 218.562876 
L 117.010134 142.181393 
L 117.339732 217.747416 
L 117.669331 167.188854 
L 118.328528 267.762337 
L 119.317323 169.363416 
L 119.646922 184.585348 
L 120.635718 141.909573 
L 120.965316 199.535461 
L 121.294915 208.777348 
L 121.954112 193.011775 
L 122.942907 219.921978 
L 123.931703 170.178876 
L 124.920498 176.158921 
L 125.579695 174.79982 
L 125.909294 172.353438 
L 126.238892 218.019236 
L 126.568491 191.652674 
L 126.89809 128.046742 
L 127.227688 165.829753 
L 127.557287 164.470652 
L 128.216484 198.44818 
L 128.875681 153.869663 
L 129.205279 166.645213 
L 129.534878 189.478112 
L 129.864476 167.732494 
L 130.194075 200.079101 
L 130.523673 217.747416 
L 130.853272 138.64773 
L 131.512469 186.21627 
L 131.842067 183.769888 
L 132.171666 246.016719 
L 132.501264 191.109034 
L 132.830863 185.672629 
L 133.49006 171.537978 
L 133.819659 268.305978 
L 134.149257 204.700045 
L 134.478856 175.615281 
L 134.808454 164.470652 
L 135.138053 178.333483 
L 135.467651 201.710022 
L 135.79725 174.79982 
L 136.126848 163.655191 
L 136.456447 168.547955 
L 136.786045 175.887101 
L 137.115644 165.557933 
L 137.445242 179.964404 
L 137.774841 169.363416 
L 138.104439 189.206292 
L 138.434038 176.702562 
L 138.763636 248.463101 
L 139.093235 257.976809 
L 139.422833 176.974382 
L 139.752432 155.772404 
L 140.741228 181.323506 
L 141.070826 235.687551 
L 141.400425 180.236225 
L 142.059622 188.390831 
L 142.38922 158.762427 
L 143.048417 183.226247 
L 143.378016 160.393348 
L 143.707614 170.994337 
L 144.037213 174.79982 
L 144.366811 233.241169 
L 145.026008 102.22382 
L 145.355607 201.710022 
L 145.685205 196.817258 
L 146.014804 163.111551 
L 146.344402 195.729978 
L 146.674001 181.867146 
L 147.003599 178.605303 
L 147.333198 193.011775 
L 147.662796 171.266157 
L 147.992395 184.313528 
L 148.321994 173.98436 
L 148.651592 188.934472 
L 148.981191 175.07164 
L 149.310789 191.652674 
L 149.640388 176.430742 
L 149.969986 209.049169 
L 150.299585 173.440719 
L 150.629183 90.807371 
L 150.958782 174.25618 
L 151.28838 203.884584 
L 151.617979 205.787326 
L 151.947577 162.29609 
L 152.277176 175.887101 
L 152.936373 170.994337 
L 153.265971 239.221213 
L 153.59557 167.188854 
L 153.925168 176.974382 
L 154.254767 165.014292 
L 154.584365 180.779865 
L 154.913964 185.672629 
L 155.243563 202.525483 
L 155.573161 164.198831 
L 155.90276 164.742472 
L 156.232358 175.887101 
L 156.561957 103.311101 
L 157.550752 193.011775 
L 158.209949 134.026787 
L 158.539548 225.902022 
L 158.869146 172.081618 
L 159.528343 169.635236 
L 159.857942 175.343461 
L 160.18754 167.188854 
L 160.517139 163.383371 
L 160.846737 251.724944 
L 161.505934 183.498067 
L 161.835533 116.902112 
L 162.165132 155.772404 
L 162.49473 179.692584 
L 162.824329 138.10409 
L 163.153927 118.804854 
L 163.483526 138.919551 
L 163.813124 171.266157 
L 164.142723 161.752449 
L 164.472321 167.188854 
L 164.80192 166.917034 
L 165.131518 153.869663 
L 165.790715 176.702562 
L 166.120314 183.498067 
L 166.449912 271.296 
L 166.779511 244.657618 
L 167.109109 179.148944 
L 167.438708 161.752449 
L 167.768306 173.440719 
L 168.097905 114.18391 
L 168.427503 160.121528 
L 169.086701 171.537978 
L 169.416299 169.635236 
L 169.745898 134.026787 
L 170.075496 193.555416 
L 170.405095 85.914607 
L 171.064292 178.333483 
L 171.39389 180.508045 
L 171.723489 179.692584 
L 172.382686 180.508045 
L 172.712284 154.956944 
L 173.041883 189.749933 
L 173.371481 146.258697 
L 173.70108 198.99182 
L 174.030678 130.764944 
L 174.360277 179.964404 
L 174.689875 169.091596 
L 175.019474 184.313528 
L 175.349072 168.819775 
L 175.678671 134.026787 
L 176.008269 252.268584 
L 176.337868 170.178876 
L 176.667467 202.253663 
L 176.997065 183.769888 
L 177.326664 95.428315 
L 177.656262 184.313528 
L 177.985861 215.844674 
L 178.315459 105.213843 
L 178.645058 169.635236 
L 178.974656 257.976809 
L 179.304255 166.917034 
L 179.633853 186.21627 
L 179.963452 147.889618 
L 180.622649 193.283596 
L 180.952247 184.313528 
L 181.281846 237.046652 
L 181.611444 181.051685 
L 181.941043 181.323506 
L 182.270641 145.715056 
L 182.60024 195.458157 
L 182.929838 155.772404 
L 183.259437 174.79982 
L 183.589036 137.83227 
L 183.918634 176.430742 
L 184.248233 172.353438 
L 184.577831 223.999281 
L 184.90743 214.757393 
L 185.237028 164.742472 
L 185.566627 188.662652 
L 185.896225 179.420764 
L 186.225824 181.051685 
L 186.555422 163.655191 
L 186.885021 197.904539 
L 187.214619 258.248629 
L 187.544218 173.440719 
L 188.203415 263.141393 
L 188.533013 178.061663 
L 189.19221 163.383371 
L 189.851407 151.966921 
L 190.181006 165.829753 
L 190.510605 186.48809 
L 190.840203 175.615281 
L 191.169802 250.365843 
L 191.828999 171.266157 
L 192.158597 247.919461 
L 192.817794 169.363416 
L 193.147393 98.690157 
L 193.476991 197.360899 
L 193.80659 253.084045 
L 194.136188 126.959461 
L 194.465787 196.817258 
L 194.795385 150.06418 
L 195.454582 255.802247 
L 195.784181 157.403326 
L 196.113779 177.789843 
L 196.443378 166.917034 
L 196.772976 53.568 
L 197.102575 196.001798 
L 197.432174 208.505528 
L 197.761772 178.605303 
L 198.091371 173.98436 
L 198.420969 158.762427 
L 198.750568 88.904629 
L 199.080166 178.061663 
L 199.739363 166.101573 
L 200.068962 179.964404 
L 200.39856 173.440719 
L 201.057757 168.276135 
L 201.387356 184.585348 
L 202.046553 202.525483 
L 202.376151 173.98436 
L 203.035348 194.914517 
L 203.364947 147.074157 
L 204.024144 198.72 
L 204.683341 169.091596 
L 205.01294 197.360899 
L 205.342538 207.961888 
L 205.672137 142.996854 
L 206.001735 154.956944 
L 206.331334 263.956854 
L 206.660932 242.211236 
L 206.990531 155.772404 
L 207.320129 172.897079 
L 207.649728 174.528 
L 207.979326 187.575371 
L 208.968122 271.56782 
L 209.627319 176.974382 
L 209.956917 274.286022 
L 210.945713 177.789843 
L 211.60491 191.652674 
L 211.934509 133.754966 
L 212.264107 109.019326 
L 212.923304 267.490517 
L 214.241698 191.380854 
L 214.900895 207.418247 
L 215.230494 149.79236 
L 215.560092 269.936899 
L 215.889691 181.595326 
L 216.219289 179.420764 
L 216.548888 257.704989 
L 216.878486 211.22373 
L 218.19688 149.520539 
L 218.526479 208.505528 
L 218.856078 197.904539 
L 219.185676 156.044225 
L 219.844873 122.338517 
L 220.50407 128.590382 
L 220.833669 179.692584 
L 221.163267 175.07164 
L 221.822464 205.787326 
L 222.481661 214.213753 
L 223.140858 196.817258 
L 223.470457 261.782292 
L 223.800055 170.994337 
L 224.129654 190.565393 
L 224.459252 267.490517 
L 224.788851 140.822292 
L 225.118449 142.453213 
L 225.448048 175.07164 
L 226.107245 165.557933 
L 226.436844 163.383371 
L 226.766442 181.323506 
L 227.096041 178.877124 
L 227.425639 184.313528 
L 227.755238 179.692584 
L 228.084836 215.301034 
L 228.744033 221.009258 
L 229.073632 158.218787 
L 229.40323 206.602787 
L 230.392026 190.021753 
L 230.721624 220.193798 
L 231.051223 162.83973 
L 231.71042 194.642697 
L 232.040018 183.769888 
L 232.369617 192.739955 
L 232.699216 190.021753 
L 233.028814 189.206292 
L 233.358413 185.944449 
L 233.688011 157.675146 
L 234.347208 203.340944 
L 234.676807 162.02427 
L 235.006405 217.203775 
L 235.665602 168.819775 
L 235.995201 185.944449 
L 236.324799 191.380854 
L 236.654398 211.767371 
L 236.983996 170.722517 
L 237.313595 175.07164 
L 237.643193 167.732494 
L 237.972792 153.597843 
L 238.631989 214.485573 
L 238.961587 184.041708 
L 239.291186 239.764854 
L 239.950383 189.206292 
L 240.279982 183.769888 
L 240.60958 169.363416 
L 240.939179 228.620225 
L 241.268777 131.308584 
L 241.598376 150.60782 
L 241.927974 196.817258 
L 242.257573 260.423191 
L 242.587171 170.994337 
L 243.246368 163.927011 
L 243.575967 200.622742 
L 244.235164 161.752449 
L 244.894361 181.323506 
L 245.553558 245.744899 
L 246.212755 150.336 
L 246.542353 230.522966 
L 246.871952 212.854652 
L 247.201551 184.857169 
L 248.190346 175.615281 
L 248.519945 218.834697 
L 248.849543 217.747416 
L 249.179142 172.353438 
L 249.50874 190.565393 
L 249.838339 266.946876 
L 250.167937 186.75991 
L 250.497536 180.508045 
L 251.156733 188.119011 
L 251.486331 260.423191 
L 251.81593 187.575371 
L 252.475127 144.899596 
L 252.804725 135.114067 
L 253.134324 250.094022 
L 253.463922 158.218787 
L 255.111915 179.964404 
L 255.441514 204.156404 
L 255.771112 191.109034 
L 256.100711 232.697528 
L 256.430309 245.201258 
L 257.089506 231.338427 
L 257.419105 245.744899 
L 257.748703 213.126472 
L 258.078302 248.463101 
L 258.4079 193.555416 
L 258.737499 177.246202 
L 259.067097 170.178876 
L 259.396696 159.306067 
L 260.71509 203.884584 
L 261.044689 179.420764 
L 261.374287 265.587775 
L 261.703886 151.966921 
L 262.033484 209.864629 
L 262.692681 161.208809 
L 263.02228 150.60782 
L 263.351878 167.732494 
L 264.011075 165.829753 
L 266.318265 125.87218 
L 266.647863 262.054112 
L 267.30706 169.635236 
L 268.295856 222.912 
L 268.625455 140.006831 
L 268.955053 135.114067 
L 269.61425 260.423191 
L 269.943849 186.21627 
L 270.603046 274.829663 
L 271.262243 245.744899 
L 271.591841 170.722517 
L 272.251038 170.994337 
L 273.239834 124.784899 
L 273.569432 149.248719 
L 274.228629 188.390831 
L 274.558228 149.520539 
L 274.887826 200.350921 
L 275.547024 191.924494 
L 275.876622 244.929438 
L 276.535819 225.902022 
L 276.865418 140.822292 
L 277.195016 187.303551 
L 277.524615 160.121528 
L 278.183812 184.857169 
L 279.172607 287.605213 
L 279.502206 184.041708 
L 280.161403 293.585258 
L 280.491001 182.138966 
L 280.8206 124.241258 
L 281.150198 147.889618 
L 282.138994 204.156404 
L 282.468593 168.819775 
L 282.798191 163.111551 
L 283.12779 171.537978 
L 283.457388 199.535461 
L 284.116585 118.533034 
L 284.446184 196.273618 
L 284.775782 228.076584 
L 285.764578 165.829753 
L 286.094176 181.323506 
L 287.41257 164.742472 
L 288.071767 282.440629 
L 288.401366 204.428225 
L 288.730964 182.682607 
L 289.060563 175.615281 
L 289.390162 176.974382 
L 289.71976 163.927011 
L 290.378957 168.276135 
L 290.708556 190.293573 
L 291.697351 179.420764 
L 292.02695 274.286022 
L 292.356548 176.974382 
L 292.686147 217.747416 
L 293.345344 174.79982 
L 293.674942 120.707596 
L 294.004541 213.398292 
L 294.663738 163.927011 
L 294.993336 188.934472 
L 295.652533 216.660135 
L 295.982132 169.363416 
L 296.311731 171.266157 
L 297.630125 250.637663 
L 297.959723 168.547955 
L 298.61892 194.642697 
L 298.948519 163.927011 
L 299.278117 194.370876 
L 300.266913 157.946966 
L 301.585307 207.418247 
L 302.244504 195.458157 
L 302.903701 174.25618 
L 303.233299 169.363416 
L 303.892497 187.303551 
L 304.551694 276.732404 
L 305.210891 250.637663 
L 305.540489 265.587775 
L 305.870088 164.742472 
L 306.858883 223.45564 
L 307.188482 228.348404 
L 307.51808 180.236225 
L 308.836474 159.577888 
L 311.473263 185.944449 
L 312.791657 162.83973 
L 313.780452 246.56036 
L 316.087642 158.490607 
L 316.41724 180.236225 
L 316.746839 267.218697 
L 317.406036 146.530517 
L 319.713226 271.296 
L 320.042824 185.672629 
L 321.361218 259.60773 
L 323.009211 178.333483 
L 323.668408 268.577798 
L 324.986802 170.450697 
L 325.975598 258.248629 
L 326.964393 266.131416 
L 328.612386 159.306067 
L 329.93078 158.218787 
L 331.249174 205.243685 
L 336.193152 213.670112 
L 337.511546 184.313528 
L 340.477933 165.286112 
L 341.466728 216.388315 
L 342.125925 187.575371 
L 344.433115 208.505528 
L 347.7291 231.066607 
L 348.388297 183.498067 
L 349.047494 210.68009 
L 353.002677 219.378337 
L 353.332275 179.148944 
L 353.991472 269.936899 
L 355.309866 265.859596 
L 357.946654 201.438202 
L 359.924246 278.091506 
L 360.253844 275.916944 
L 360.913041 295.488 
L 371.460194 200.622742 
L 373.767383 201.710022 
L 383.984938 216.660135 
L 388.928916 183.498067 
L 396.83928 181.051685 
L 398.487273 156.587865 
L 398.487273 156.587865 
" style="fill:none;stroke:#0000ff;stroke-linecap:square;stroke-width:1.5;"/>
   </g>
   <g id="patch_3">
    <path d="M 57.6 307.584 
L 57.6 41.472 
" style="fill:none;stroke:#000000;stroke-linecap:square;stroke-linejoin:miter;stroke-width:0.8;"/>
   </g>
   <g id="patch_4">
    <path d="M 414.72 307.584 
L 414.72 41.472 
" style="fill:none;stroke:#000000;stroke-linecap:square;stroke-linejoin:miter;stroke-width:0.8;"/>
   </g>
   <g id="patch_5">
    <path d="M 57.6 307.584 
L 414.72 307.584 
" style="fill:none;stroke:#000000;stroke-linecap:square;stroke-linejoin:miter;stroke-width:0.8;"/>
   </g>
   <g id="patch_6">
    <path d="M 57.6 41.472 
L 414.72 41.472 
" style="fill:none;stroke:#000000;stroke-linecap:square;stroke-linejoin:miter;stroke-width:0.8;"/>
   </g>
   <g id="text_13">
    <!-- wind_speed-&gt;Retransmission -->
    <g transform="translate(147.736875 35.472)scale(0.12 -0.12)">
     <defs>
      <path d="M 4.890625 31.390625 
L 31.203125 31.390625 
L 31.203125 23.390625 
L 4.890625 23.390625 
z
" id="DejaVuSans-45"/>
      <path d="M 10.59375 49.21875 
L 10.59375 58.109375 
L 73.1875 35.40625 
L 73.1875 27.296875 
L 10.59375 4.59375 
L 10.59375 13.484375 
L 60.890625 31.296875 
z
" id="DejaVuSans-62"/>
     </defs>
     <use xlink:href="#DejaVuSans-119"/>
     <use x="81.787109" xlink:href="#DejaVuSans-105"/>
     <use x="109.570312" xlink:href="#DejaVuSans-110"/>
     <use x="172.949219" xlink:href="#DejaVuSans-100"/>
     <use x="236.425781" xlink:href="#DejaVuSans-95"/>
     <use x="286.425781" xlink:href="#DejaVuSans-115"/>
     <use x="338.525391" xlink:href="#DejaVuSans-112"/>
     <use x="402.001953" xlink:href="#DejaVuSans-101"/>
     <use x="463.525391" xlink:href="#DejaVuSans-101"/>
     <use x="525.048828" xlink:href="#DejaVuSans-100"/>
     <use x="588.525391" xlink:href="#DejaVuSans-45"/>
     <use x="624.609375" xlink:href="#DejaVuSans-62"/>
     <use x="708.398438" xlink:href="#DejaVuSans-82"/>
     <use x="773.380859" xlink:href="#DejaVuSans-101"/>
     <use x="834.904297" xlink:href="#DejaVuSans-116"/>
     <use x="874.113281" xlink:href="#DejaVuSans-114"/>
     <use x="915.226562" xlink:href="#DejaVuSans-97"/>
     <use x="976.505859" xlink:href="#DejaVuSans-110"/>
     <use x="1039.884766" xlink:href="#DejaVuSans-115"/>
     <use x="1091.984375" xlink:href="#DejaVuSans-109"/>
     <use x="1189.396484" xlink:href="#DejaVuSans-105"/>
     <use x="1217.179688" xlink:href="#DejaVuSans-115"/>
     <use x="1269.279297" xlink:href="#DejaVuSans-115"/>
     <use x="1321.378906" xlink:href="#DejaVuSans-105"/>
     <use x="1349.162109" xlink:href="#DejaVuSans-111"/>
     <use x="1410.34375" xlink:href="#DejaVuSans-110"/>
    </g>
   </g>
  </g>
  <g id="legend_1">
   <g id="patch_7">
    <path d="M 266.315625 22.678125 
L 453.8 22.678125 
Q 455.8 22.678125 455.8 20.678125 
L 455.8 7 
Q 455.8 5 453.8 5 
L 266.315625 5 
Q 264.315625 5 264.315625 7 
L 264.315625 20.678125 
Q 264.315625 22.678125 266.315625 22.678125 
z
" style="fill:#ffffff;opacity:0.8;stroke:#cccccc;stroke-linejoin:miter;"/>
   </g>
   <g id="line2d_12">
    <path d="M 268.315625 13.098438 
L 288.315625 13.098438 
" style="fill:none;stroke:#0000ff;stroke-linecap:square;stroke-width:1.5;"/>
   </g>
   <g id="line2d_13"/>
   <g id="text_14">
    <!-- Retransmission[dimensionless] -->
    <g transform="translate(296.315625 16.598438)scale(0.1 -0.1)">
     <use xlink:href="#DejaVuSans-82"/>
     <use x="64.982422" xlink:href="#DejaVuSans-101"/>
     <use x="126.505859" xlink:href="#DejaVuSans-116"/>
     <use x="165.714844" xlink:href="#DejaVuSans-114"/>
     <use x="206.828125" xlink:href="#DejaVuSans-97"/>
     <use x="268.107422" xlink:href="#DejaVuSans-110"/>
     <use x="331.486328" xlink:href="#DejaVuSans-115"/>
     <use x="383.585938" xlink:href="#DejaVuSans-109"/>
     <use x="480.998047" xlink:href="#DejaVuSans-105"/>
     <use x="508.78125" xlink:href="#DejaVuSans-115"/>
     <use x="560.880859" xlink:href="#DejaVuSans-115"/>
     <use x="612.980469" xlink:href="#DejaVuSans-105"/>
     <use x="640.763672" xlink:href="#DejaVuSans-111"/>
     <use x="701.945312" xlink:href="#DejaVuSans-110"/>
     <use x="765.324219" xlink:href="#DejaVuSans-91"/>
     <use x="804.337891" xlink:href="#DejaVuSans-100"/>
     <use x="867.814453" xlink:href="#DejaVuSans-105"/>
     <use x="895.597656" xlink:href="#DejaVuSans-109"/>
     <use x="993.009766" xlink:href="#DejaVuSans-101"/>
     <use x="1054.533203" xlink:href="#DejaVuSans-110"/>
     <use x="1117.912109" xlink:href="#DejaVuSans-115"/>
     <use x="1170.011719" xlink:href="#DejaVuSans-105"/>
     <use x="1197.794922" xlink:href="#DejaVuSans-111"/>
     <use x="1258.976562" xlink:href="#DejaVuSans-110"/>
     <use x="1322.355469" xlink:href="#DejaVuSans-108"/>
     <use x="1350.138672" xlink:href="#DejaVuSans-101"/>
     <use x="1411.662109" xlink:href="#DejaVuSans-115"/>
     <use x="1463.761719" xlink:href="#DejaVuSans-115"/>
     <use x="1515.861328" xlink:href="#DejaVuSans-93"/>
    </g>
   </g>
  </g>
 </g>
 <defs>
  <clipPath id="p08d0d73d48">
   <rect height="266.112" width="357.12" x="57.6" y="41.472"/>
  </clipPath>
 </defs>
</svg>
