<?xml version="1.0" encoding="utf-8" standalone="no"?>
<!DOCTYPE svg PUBLIC "-//W3C//DTD SVG 1.1//EN"
  "http://www.w3.org/Graphics/SVG/1.1/DTD/svg11.dtd">
<!-- Created with matplotlib (https://matplotlib.org/) -->
<svg height="2090.31625pt" version="1.1" viewBox="0 0 2065.165625 2090.31625" width="2065.165625pt" xmlns="http://www.w3.org/2000/svg" xmlns:xlink="http://www.w3.org/1999/xlink">
 <metadata>
  <rdf:RDF xmlns:cc="http://creativecommons.org/ns#" xmlns:dc="http://purl.org/dc/elements/1.1/" xmlns:rdf="http://www.w3.org/1999/02/22-rdf-syntax-ns#">
   <cc:Work>
    <dc:type rdf:resource="http://purl.org/dc/dcmitype/StillImage"/>
    <dc:date>2022-07-23T21:25:26.849420</dc:date>
    <dc:format>image/svg+xml</dc:format>
    <dc:creator>
     <cc:Agent>
      <dc:title>Matplotlib v3.3.2, https://matplotlib.org/</dc:title>
     </cc:Agent>
    </dc:creator>
   </cc:Work>
  </rdf:RDF>
 </metadata>
 <defs>
  <style type="text/css">*{stroke-linecap:butt;stroke-linejoin:round;}</style>
 </defs>
 <g id="figure_1">
  <g id="patch_1">
   <path d="M 0 2090.31625 
L 2065.165625 2090.31625 
L 2065.165625 0 
L 0 0 
z
" style="fill:#ffffff;"/>
  </g>
  <g id="axes_1">
   <g id="patch_2">
    <path d="M 46.965625 2052.76 
L 1832.565625 2052.76 
L 1832.565625 278.68 
L 46.965625 278.68 
z
" style="fill:#ffffff;"/>
   </g>
   <g id="matplotlib.axis_1">
    <g id="xtick_1">
     <g id="line2d_1">
      <defs>
       <path d="M 0 0 
L 0 3.5 
" id="m5178c25543" style="stroke:#000000;stroke-width:0.8;"/>
      </defs>
      <g>
       <use style="stroke:#000000;stroke-width:0.8;" x="282.060296" xlink:href="#m5178c25543" y="2052.76"/>
      </g>
     </g>
     <g id="text_1">
      <text style="font-family:DejaVu Sans;font-size:10px;font-stretch:normal;font-style:normal;font-weight:normal;text-anchor:middle;" transform="rotate(-0, 282.060296, 2067.358438)" x="282.060296" y="2067.358438">10</text>
     </g>
    </g>
    <g id="xtick_2">
     <g id="line2d_2">
      <g>
       <use style="stroke:#000000;stroke-width:0.8;" x="631.903556" xlink:href="#m5178c25543" y="2052.76"/>
      </g>
     </g>
     <g id="text_2">
      <text style="font-family:DejaVu Sans;font-size:10px;font-stretch:normal;font-style:normal;font-weight:normal;text-anchor:middle;" transform="rotate(-0, 631.903556, 2067.358438)" x="631.903556" y="2067.358438">15</text>
     </g>
    </g>
    <g id="xtick_3">
     <g id="line2d_3">
      <g>
       <use style="stroke:#000000;stroke-width:0.8;" x="981.746816" xlink:href="#m5178c25543" y="2052.76"/>
      </g>
     </g>
     <g id="text_3">
      <text style="font-family:DejaVu Sans;font-size:10px;font-stretch:normal;font-style:normal;font-weight:normal;text-anchor:middle;" transform="rotate(-0, 981.746816, 2067.358438)" x="981.746816" y="2067.358438">20</text>
     </g>
    </g>
    <g id="xtick_4">
     <g id="line2d_4">
      <g>
       <use style="stroke:#000000;stroke-width:0.8;" x="1331.590076" xlink:href="#m5178c25543" y="2052.76"/>
      </g>
     </g>
     <g id="text_4">
      <text style="font-family:DejaVu Sans;font-size:10px;font-stretch:normal;font-style:normal;font-weight:normal;text-anchor:middle;" transform="rotate(-0, 1331.590076, 2067.358438)" x="1331.590076" y="2067.358438">25</text>
     </g>
    </g>
    <g id="xtick_5">
     <g id="line2d_5">
      <g>
       <use style="stroke:#000000;stroke-width:0.8;" x="1681.433337" xlink:href="#m5178c25543" y="2052.76"/>
      </g>
     </g>
     <g id="text_5">
      <text style="font-family:DejaVu Sans;font-size:10px;font-stretch:normal;font-style:normal;font-weight:normal;text-anchor:middle;" transform="rotate(-0, 1681.433337, 2067.358438)" x="1681.433337" y="2067.358438">30</text>
     </g>
    </g>
    <g id="text_6">
     <text style="font-family:DejaVu Sans;font-size:10px;font-stretch:normal;font-style:normal;font-weight:normal;text-anchor:middle;" transform="rotate(-0, 939.765625, 2081.036562)" x="939.765625" y="2081.036562">temperature from WeatherAPI</text>
    </g>
   </g>
   <g id="matplotlib.axis_2">
    <g id="ytick_1">
     <g id="line2d_6">
      <defs>
       <path d="M 0 0 
L -3.5 0 
" id="md800b039dd" style="stroke:#000000;stroke-width:0.8;"/>
      </defs>
      <g>
       <use style="stroke:#000000;stroke-width:0.8;" x="46.965625" xlink:href="#md800b039dd" y="1919.756364"/>
      </g>
     </g>
     <g id="text_7">
      <text style="font-family:DejaVu Sans;font-size:10px;font-stretch:normal;font-style:normal;font-weight:normal;text-anchor:end;" transform="rotate(-0, 39.965625, 1923.555582)" x="39.965625" y="1923.555582">200</text>
     </g>
    </g>
    <g id="ytick_2">
     <g id="line2d_7">
      <g>
       <use style="stroke:#000000;stroke-width:0.8;" x="46.965625" xlink:href="#md800b039dd" y="1710.301818"/>
      </g>
     </g>
     <g id="text_8">
      <text style="font-family:DejaVu Sans;font-size:10px;font-stretch:normal;font-style:normal;font-weight:normal;text-anchor:end;" transform="rotate(-0, 39.965625, 1714.101037)" x="39.965625" y="1714.101037">300</text>
     </g>
    </g>
    <g id="ytick_3">
     <g id="line2d_8">
      <g>
       <use style="stroke:#000000;stroke-width:0.8;" x="46.965625" xlink:href="#md800b039dd" y="1500.847273"/>
      </g>
     </g>
     <g id="text_9">
      <text style="font-family:DejaVu Sans;font-size:10px;font-stretch:normal;font-style:normal;font-weight:normal;text-anchor:end;" transform="rotate(-0, 39.965625, 1504.646491)" x="39.965625" y="1504.646491">400</text>
     </g>
    </g>
    <g id="ytick_4">
     <g id="line2d_9">
      <g>
       <use style="stroke:#000000;stroke-width:0.8;" x="46.965625" xlink:href="#md800b039dd" y="1291.392727"/>
      </g>
     </g>
     <g id="text_10">
      <text style="font-family:DejaVu Sans;font-size:10px;font-stretch:normal;font-style:normal;font-weight:normal;text-anchor:end;" transform="rotate(-0, 39.965625, 1295.191946)" x="39.965625" y="1295.191946">500</text>
     </g>
    </g>
    <g id="ytick_5">
     <g id="line2d_10">
      <g>
       <use style="stroke:#000000;stroke-width:0.8;" x="46.965625" xlink:href="#md800b039dd" y="1081.938182"/>
      </g>
     </g>
     <g id="text_11">
      <text style="font-family:DejaVu Sans;font-size:10px;font-stretch:normal;font-style:normal;font-weight:normal;text-anchor:end;" transform="rotate(-0, 39.965625, 1085.737401)" x="39.965625" y="1085.737401">600</text>
     </g>
    </g>
    <g id="ytick_6">
     <g id="line2d_11">
      <g>
       <use style="stroke:#000000;stroke-width:0.8;" x="46.965625" xlink:href="#md800b039dd" y="872.483636"/>
      </g>
     </g>
     <g id="text_12">
      <text style="font-family:DejaVu Sans;font-size:10px;font-stretch:normal;font-style:normal;font-weight:normal;text-anchor:end;" transform="rotate(-0, 39.965625, 876.282855)" x="39.965625" y="876.282855">700</text>
     </g>
    </g>
    <g id="ytick_7">
     <g id="line2d_12">
      <g>
       <use style="stroke:#000000;stroke-width:0.8;" x="46.965625" xlink:href="#md800b039dd" y="663.029091"/>
      </g>
     </g>
     <g id="text_13">
      <text style="font-family:DejaVu Sans;font-size:10px;font-stretch:normal;font-style:normal;font-weight:normal;text-anchor:end;" transform="rotate(-0, 39.965625, 666.82831)" x="39.965625" y="666.82831">800</text>
     </g>
    </g>
    <g id="ytick_8">
     <g id="line2d_13">
      <g>
       <use style="stroke:#000000;stroke-width:0.8;" x="46.965625" xlink:href="#md800b039dd" y="453.574545"/>
      </g>
     </g>
     <g id="text_14">
      <text style="font-family:DejaVu Sans;font-size:10px;font-stretch:normal;font-style:normal;font-weight:normal;text-anchor:end;" transform="rotate(-0, 39.965625, 457.373764)" x="39.965625" y="457.373764">900</text>
     </g>
    </g>
    <g id="text_15">
     <text style="font-family:DejaVu Sans;font-size:10px;font-stretch:normal;font-style:normal;font-weight:normal;text-anchor:middle;" transform="rotate(-90, 14.798437, 1165.72)" x="14.798437" y="1165.72">Retransmission[dimensionless]</text>
    </g>
   </g>
   <g id="line2d_14">
    <path clip-path="url(#p874a1065d7)" d="M 128.129261 1452.672727 
L 135.126127 1808.745455 
L 142.122992 1754.287273 
L 149.119857 1446.389091 
L 156.116722 1293.487273 
L 163.113587 1366.796364 
L 170.110453 1611.858182 
L 177.107318 1484.090909 
L 184.104183 1716.585455 
L 198.097913 1280.92 
L 205.094779 1373.08 
L 212.091644 1243.218182 
L 219.088509 1180.381818 
L 233.082239 1264.163636 
L 247.07597 1192.949091 
L 254.072835 1324.905455 
L 261.0697 1253.690909 
L 268.066565 1197.138182 
L 275.063431 1207.610909 
L 282.060296 1086.127273 
L 289.057161 681.88 
L 296.054026 608.570909 
L 303.050891 826.403636 
L 310.047757 1069.370909 
L 317.044622 742.621818 
L 324.041487 1073.56 
L 331.038352 1624.425455 
L 338.035217 1295.581818 
L 345.032083 855.727273 
L 352.028948 1017.007273 
L 359.025813 1264.163636 
L 366.022678 1247.407273 
L 373.019543 1192.949091 
L 380.016409 1025.385455 
L 387.013274 1297.676364 
L 394.010139 1203.421818 
L 401.007004 1253.690909 
L 408.00387 1169.909091 
L 415.000735 1132.207273 
L 421.9976 734.243636 
L 428.994465 1241.123636 
L 435.99133 757.283636 
L 442.988196 1226.461818 
L 449.985061 1209.705455 
L 456.981926 1297.676364 
L 463.978791 1224.367273 
L 470.975656 1419.16 
L 477.972522 1207.610909 
L 484.969387 1107.072727 
L 491.966252 1370.985455 
L 498.963117 979.305455 
L 505.959982 1613.952727 
L 512.956848 979.305455 
L 519.953713 1287.203636 
L 526.950578 1327 
L 533.947443 1253.690909 
L 540.944308 1268.352727 
L 547.941174 359.32 
L 554.938039 1262.069091 
L 561.934904 1283.014545 
L 568.931769 1211.8 
L 575.928634 1255.785455 
L 582.9255 847.349091 
L 589.922365 1373.08 
L 596.91923 1169.909091 
L 603.916095 1197.138182 
L 610.91296 1565.778182 
L 617.909826 1063.087273 
L 624.906691 1266.258182 
L 631.903556 1165.72 
L 638.900421 916.469091 
L 645.897286 1264.163636 
L 652.894152 1146.869091 
L 659.891017 1448.483636 
L 666.887882 1048.425455 
L 673.884747 824.309091 
L 680.881612 1375.174545 
L 687.878478 954.170909 
L 694.875343 1215.989091 
L 701.872208 1295.581818 
L 708.869073 1203.421818 
L 715.865938 1222.272727 
L 722.862804 1176.192727 
L 729.859669 1251.596364 
L 736.856534 1303.96 
L 743.853399 1165.72 
L 750.850264 1239.029091 
L 757.84713 1270.447273 
L 764.843995 903.901818 
L 771.84086 1218.083636 
L 778.837725 1098.694545 
L 785.834591 1075.654545 
L 792.831456 1270.447273 
L 799.828321 1318.621818 
L 806.825186 987.683636 
L 813.822051 1180.381818 
L 820.818917 924.847273 
L 827.815782 1010.723636 
L 834.812647 1234.84 
L 841.809512 1268.352727 
L 848.806377 1031.669091 
L 855.803243 1243.218182 
L 862.800108 646.272727 
L 869.796973 1192.949091 
L 876.793838 1027.48 
L 883.790703 707.014545 
L 890.787569 1228.556364 
L 897.784434 979.305455 
L 904.781299 876.672727 
L 911.778164 1100.789091 
L 918.775029 1266.258182 
L 925.771895 1291.392727 
L 932.76876 1098.694545 
L 939.765625 1213.894545 
L 946.76249 1188.76 
L 953.759355 1190.854545 
L 960.756221 1140.585455 
L 967.753086 1322.810909 
L 974.749951 859.916364 
L 981.746816 1161.530909 
L 988.743681 631.610909 
L 995.740547 1104.978182 
L 1002.737412 1159.436364 
L 1009.734277 1205.516364 
L 1016.731142 1209.705455 
L 1023.728007 1557.4 
L 1030.724873 1107.072727 
L 1037.721738 1243.218182 
L 1044.718603 1251.596364 
L 1051.715468 1337.472727 
L 1058.712333 1266.258182 
L 1065.709199 1255.785455 
L 1072.706064 1370.985455 
L 1079.702929 1205.516364 
L 1086.699794 1218.083636 
L 1093.696659 1215.989091 
L 1100.693525 1295.581818 
L 1107.69039 1354.229091 
L 1114.687255 1086.127273 
L 1121.68412 1224.367273 
L 1128.680986 1079.843636 
L 1135.677851 1163.625455 
L 1142.674716 1148.963636 
L 1149.671581 958.36 
L 1156.668446 1096.6 
L 1170.662177 1008.629091 
L 1177.659042 1205.516364 
L 1184.655907 1972.12 
L 1191.652772 1117.545455 
L 1198.649638 1169.909091 
L 1205.646503 1257.88 
L 1212.643368 1253.690909 
L 1219.640233 1205.516364 
L 1226.637098 1505.036364 
L 1233.633964 1222.272727 
L 1240.630829 1354.229091 
L 1247.627694 1278.825455 
L 1254.624559 1310.243636 
L 1261.621424 1044.236364 
L 1268.61829 1310.243636 
L 1275.615155 1230.650909 
L 1282.61202 862.010909 
L 1289.608885 1312.338182 
L 1296.60575 1492.469091 
L 1303.602616 1140.585455 
L 1310.599481 1195.043636 
L 1317.596346 1102.883636 
L 1324.593211 1481.996364 
L 1331.590076 1329.094545 
L 1338.586942 1488.28 
L 1352.580672 1821.312727 
L 1366.574402 1691.450909 
L 1373.571268 1337.472727 
L 1394.561863 1040.047273 
L 1401.558728 1473.618182 
L 1408.555594 1471.523636 
L 1415.552459 1360.512727 
L 1422.549324 1331.189091 
L 1429.546189 1230.650909 
L 1436.543054 1775.232727 
L 1450.536785 1031.669091 
L 1457.53365 1308.149091 
L 1464.530515 1301.865455 
L 1471.52738 1710.301818 
L 1478.524246 1856.92 
L 1485.521111 1748.003636 
L 1492.517976 1329.094545 
L 1499.514841 1668.410909 
L 1520.505437 1362.607273 
L 1541.496033 1668.410909 
L 1569.483493 1798.272727 
L 1576.480359 1538.549091 
L 1583.477224 1358.418182 
L 1590.474089 1335.378182 
L 1597.470954 1182.476364 
L 1604.467819 1327 
L 1611.464685 1502.941818 
L 1618.46155 1259.974545 
L 1646.449011 1140.585455 
L 1667.439606 1473.618182 
L 1674.436471 1316.527273 
L 1688.430202 1063.087273 
L 1716.417663 1454.767273 
L 1737.408258 1364.701818 
L 1751.401989 1595.101818 
L 1751.401989 1595.101818 
" style="fill:none;stroke:#0000ff;stroke-linecap:square;stroke-width:1.5;"/>
   </g>
   <g id="patch_3">
    <path d="M 46.965625 2052.76 
L 46.965625 278.68 
" style="fill:none;stroke:#000000;stroke-linecap:square;stroke-linejoin:miter;stroke-width:0.8;"/>
   </g>
   <g id="patch_4">
    <path d="M 1832.565625 2052.76 
L 1832.565625 278.68 
" style="fill:none;stroke:#000000;stroke-linecap:square;stroke-linejoin:miter;stroke-width:0.8;"/>
   </g>
   <g id="patch_5">
    <path d="M 46.965625 2052.76 
L 1832.565625 2052.76 
" style="fill:none;stroke:#000000;stroke-linecap:square;stroke-linejoin:miter;stroke-width:0.8;"/>
   </g>
   <g id="patch_6">
    <path d="M 46.965625 278.68 
L 1832.565625 278.68 
" style="fill:none;stroke:#000000;stroke-linecap:square;stroke-linejoin:miter;stroke-width:0.8;"/>
   </g>
   <g id="text_16">
    <text style="font-family:DejaVu Sans;font-size:12px;font-stretch:normal;font-style:normal;font-weight:normal;text-anchor:middle;" transform="rotate(-0, 939.765625, 272.68)" x="939.765625" y="272.68">temperature-&gt;Retransmission</text>
   </g>
  </g>
  <g id="legend_1">
   <g id="patch_7">
    <path d="M 1870.68125 22.678125 
L 2058.165625 22.678125 
Q 2060.165625 22.678125 2060.165625 20.678125 
L 2060.165625 7 
Q 2060.165625 5 2058.165625 5 
L 1870.68125 5 
Q 1868.68125 5 1868.68125 7 
L 1868.68125 20.678125 
Q 1868.68125 22.678125 1870.68125 22.678125 
z
" style="fill:#ffffff;opacity:0.8;stroke:#cccccc;stroke-linejoin:miter;"/>
   </g>
   <g id="line2d_15">
    <path d="M 1872.68125 13.098437 
L 1892.68125 13.098437 
" style="fill:none;stroke:#0000ff;stroke-linecap:square;stroke-width:1.5;"/>
   </g>
   <g id="line2d_16"/>
   <g id="text_17">
    <text style="font-family:DejaVu Sans;font-size:10px;font-stretch:normal;font-style:normal;font-weight:normal;text-anchor:start;" transform="rotate(-0, 1900.68125, 16.598437)" x="1900.68125" y="16.598437">Retransmission[dimensionless]</text>
   </g>
  </g>
 </g>
 <defs>
  <clipPath id="p874a1065d7">
   <rect height="1774.08" width="1785.6" x="46.965625" y="278.68"/>
  </clipPath>
 </defs>
</svg>
