<?xml version="1.0" encoding="utf-8" standalone="no"?>
<!DOCTYPE svg PUBLIC "-//W3C//DTD SVG 1.1//EN"
  "http://www.w3.org/Graphics/SVG/1.1/DTD/svg11.dtd">
<!-- Created with matplotlib (https://matplotlib.org/) -->
<svg height="345.6pt" version="1.1" viewBox="0 0 460.8 345.6" width="460.8pt" xmlns="http://www.w3.org/2000/svg" xmlns:xlink="http://www.w3.org/1999/xlink">
 <metadata>
  <rdf:RDF xmlns:cc="http://creativecommons.org/ns#" xmlns:dc="http://purl.org/dc/elements/1.1/" xmlns:rdf="http://www.w3.org/1999/02/22-rdf-syntax-ns#">
   <cc:Work>
    <dc:type rdf:resource="http://purl.org/dc/dcmitype/StillImage"/>
    <dc:date>2022-07-20T23:23:28.305965</dc:date>
    <dc:format>image/svg+xml</dc:format>
    <dc:creator>
     <cc:Agent>
      <dc:title>Matplotlib v3.3.2, https://matplotlib.org/</dc:title>
     </cc:Agent>
    </dc:creator>
   </cc:Work>
  </rdf:RDF>
 </metadata>
 <defs>
  <style type="text/css">*{stroke-linecap:butt;stroke-linejoin:round;}</style>
 </defs>
 <g id="figure_1">
  <g id="patch_1">
   <path d="M 0 345.6 
L 460.8 345.6 
L 460.8 0 
L 0 0 
z
" style="fill:#ffffff;"/>
  </g>
  <g id="axes_1">
   <g id="patch_2">
    <path d="M 57.6 307.584 
L 414.72 307.584 
L 414.72 41.472 
L 57.6 41.472 
z
" style="fill:#ffffff;"/>
   </g>
   <g id="matplotlib.axis_1">
    <g id="xtick_1">
     <g id="line2d_1">
      <defs>
       <path d="M 0 0 
L 0 3.5 
" id="m5146d9d3b4" style="stroke:#000000;stroke-width:0.8;"/>
      </defs>
      <g>
       <use style="stroke:#000000;stroke-width:0.8;" x="60.403891" xlink:href="#m5146d9d3b4" y="307.584"/>
      </g>
     </g>
     <g id="text_1">
      <!-- 5 -->
      <g transform="translate(57.222641 322.182437)scale(0.1 -0.1)">
       <defs>
        <path d="M 10.796875 72.90625 
L 49.515625 72.90625 
L 49.515625 64.59375 
L 19.828125 64.59375 
L 19.828125 46.734375 
Q 21.96875 47.46875 24.109375 47.828125 
Q 26.265625 48.1875 28.421875 48.1875 
Q 40.625 48.1875 47.75 41.5 
Q 54.890625 34.8125 54.890625 23.390625 
Q 54.890625 11.625 47.5625 5.09375 
Q 40.234375 -1.421875 26.90625 -1.421875 
Q 22.3125 -1.421875 17.546875 -0.640625 
Q 12.796875 0.140625 7.71875 1.703125 
L 7.71875 11.625 
Q 12.109375 9.234375 16.796875 8.0625 
Q 21.484375 6.890625 26.703125 6.890625 
Q 35.15625 6.890625 40.078125 11.328125 
Q 45.015625 15.765625 45.015625 23.390625 
Q 45.015625 31 40.078125 35.4375 
Q 35.15625 39.890625 26.703125 39.890625 
Q 22.75 39.890625 18.8125 39.015625 
Q 14.890625 38.140625 10.796875 36.28125 
z
" id="DejaVuSans-53"/>
       </defs>
       <use xlink:href="#DejaVuSans-53"/>
      </g>
     </g>
    </g>
    <g id="xtick_2">
     <g id="line2d_2">
      <g>
       <use style="stroke:#000000;stroke-width:0.8;" x="122.574428" xlink:href="#m5146d9d3b4" y="307.584"/>
      </g>
     </g>
     <g id="text_2">
      <!-- 10 -->
      <g transform="translate(116.211928 322.182437)scale(0.1 -0.1)">
       <defs>
        <path d="M 12.40625 8.296875 
L 28.515625 8.296875 
L 28.515625 63.921875 
L 10.984375 60.40625 
L 10.984375 69.390625 
L 28.421875 72.90625 
L 38.28125 72.90625 
L 38.28125 8.296875 
L 54.390625 8.296875 
L 54.390625 0 
L 12.40625 0 
z
" id="DejaVuSans-49"/>
        <path d="M 31.78125 66.40625 
Q 24.171875 66.40625 20.328125 58.90625 
Q 16.5 51.421875 16.5 36.375 
Q 16.5 21.390625 20.328125 13.890625 
Q 24.171875 6.390625 31.78125 6.390625 
Q 39.453125 6.390625 43.28125 13.890625 
Q 47.125 21.390625 47.125 36.375 
Q 47.125 51.421875 43.28125 58.90625 
Q 39.453125 66.40625 31.78125 66.40625 
z
M 31.78125 74.21875 
Q 44.046875 74.21875 50.515625 64.515625 
Q 56.984375 54.828125 56.984375 36.375 
Q 56.984375 17.96875 50.515625 8.265625 
Q 44.046875 -1.421875 31.78125 -1.421875 
Q 19.53125 -1.421875 13.0625 8.265625 
Q 6.59375 17.96875 6.59375 36.375 
Q 6.59375 54.828125 13.0625 64.515625 
Q 19.53125 74.21875 31.78125 74.21875 
z
" id="DejaVuSans-48"/>
       </defs>
       <use xlink:href="#DejaVuSans-49"/>
       <use x="63.623047" xlink:href="#DejaVuSans-48"/>
      </g>
     </g>
    </g>
    <g id="xtick_3">
     <g id="line2d_3">
      <g>
       <use style="stroke:#000000;stroke-width:0.8;" x="184.744966" xlink:href="#m5146d9d3b4" y="307.584"/>
      </g>
     </g>
     <g id="text_3">
      <!-- 15 -->
      <g transform="translate(178.382466 322.182437)scale(0.1 -0.1)">
       <use xlink:href="#DejaVuSans-49"/>
       <use x="63.623047" xlink:href="#DejaVuSans-53"/>
      </g>
     </g>
    </g>
    <g id="xtick_4">
     <g id="line2d_4">
      <g>
       <use style="stroke:#000000;stroke-width:0.8;" x="246.915503" xlink:href="#m5146d9d3b4" y="307.584"/>
      </g>
     </g>
     <g id="text_4">
      <!-- 20 -->
      <g transform="translate(240.553003 322.182437)scale(0.1 -0.1)">
       <defs>
        <path d="M 19.1875 8.296875 
L 53.609375 8.296875 
L 53.609375 0 
L 7.328125 0 
L 7.328125 8.296875 
Q 12.9375 14.109375 22.625 23.890625 
Q 32.328125 33.6875 34.8125 36.53125 
Q 39.546875 41.84375 41.421875 45.53125 
Q 43.3125 49.21875 43.3125 52.78125 
Q 43.3125 58.59375 39.234375 62.25 
Q 35.15625 65.921875 28.609375 65.921875 
Q 23.96875 65.921875 18.8125 64.3125 
Q 13.671875 62.703125 7.8125 59.421875 
L 7.8125 69.390625 
Q 13.765625 71.78125 18.9375 73 
Q 24.125 74.21875 28.421875 74.21875 
Q 39.75 74.21875 46.484375 68.546875 
Q 53.21875 62.890625 53.21875 53.421875 
Q 53.21875 48.921875 51.53125 44.890625 
Q 49.859375 40.875 45.40625 35.40625 
Q 44.1875 33.984375 37.640625 27.21875 
Q 31.109375 20.453125 19.1875 8.296875 
z
" id="DejaVuSans-50"/>
       </defs>
       <use xlink:href="#DejaVuSans-50"/>
       <use x="63.623047" xlink:href="#DejaVuSans-48"/>
      </g>
     </g>
    </g>
    <g id="xtick_5">
     <g id="line2d_5">
      <g>
       <use style="stroke:#000000;stroke-width:0.8;" x="309.08604" xlink:href="#m5146d9d3b4" y="307.584"/>
      </g>
     </g>
     <g id="text_5">
      <!-- 25 -->
      <g transform="translate(302.72354 322.182437)scale(0.1 -0.1)">
       <use xlink:href="#DejaVuSans-50"/>
       <use x="63.623047" xlink:href="#DejaVuSans-53"/>
      </g>
     </g>
    </g>
    <g id="xtick_6">
     <g id="line2d_6">
      <g>
       <use style="stroke:#000000;stroke-width:0.8;" x="371.256577" xlink:href="#m5146d9d3b4" y="307.584"/>
      </g>
     </g>
     <g id="text_6">
      <!-- 30 -->
      <g transform="translate(364.894077 322.182437)scale(0.1 -0.1)">
       <defs>
        <path d="M 40.578125 39.3125 
Q 47.65625 37.796875 51.625 33 
Q 55.609375 28.21875 55.609375 21.1875 
Q 55.609375 10.40625 48.1875 4.484375 
Q 40.765625 -1.421875 27.09375 -1.421875 
Q 22.515625 -1.421875 17.65625 -0.515625 
Q 12.796875 0.390625 7.625 2.203125 
L 7.625 11.71875 
Q 11.71875 9.328125 16.59375 8.109375 
Q 21.484375 6.890625 26.8125 6.890625 
Q 36.078125 6.890625 40.9375 10.546875 
Q 45.796875 14.203125 45.796875 21.1875 
Q 45.796875 27.640625 41.28125 31.265625 
Q 36.765625 34.90625 28.71875 34.90625 
L 20.21875 34.90625 
L 20.21875 43.015625 
L 29.109375 43.015625 
Q 36.375 43.015625 40.234375 45.921875 
Q 44.09375 48.828125 44.09375 54.296875 
Q 44.09375 59.90625 40.109375 62.90625 
Q 36.140625 65.921875 28.71875 65.921875 
Q 24.65625 65.921875 20.015625 65.03125 
Q 15.375 64.15625 9.8125 62.3125 
L 9.8125 71.09375 
Q 15.4375 72.65625 20.34375 73.4375 
Q 25.25 74.21875 29.59375 74.21875 
Q 40.828125 74.21875 47.359375 69.109375 
Q 53.90625 64.015625 53.90625 55.328125 
Q 53.90625 49.265625 50.4375 45.09375 
Q 46.96875 40.921875 40.578125 39.3125 
z
" id="DejaVuSans-51"/>
       </defs>
       <use xlink:href="#DejaVuSans-51"/>
       <use x="63.623047" xlink:href="#DejaVuSans-48"/>
      </g>
     </g>
    </g>
    <g id="text_7">
     <!-- temperature from Aeris -->
     <g transform="translate(177.464687 335.860562)scale(0.1 -0.1)">
      <defs>
       <path d="M 18.3125 70.21875 
L 18.3125 54.6875 
L 36.8125 54.6875 
L 36.8125 47.703125 
L 18.3125 47.703125 
L 18.3125 18.015625 
Q 18.3125 11.328125 20.140625 9.421875 
Q 21.96875 7.515625 27.59375 7.515625 
L 36.8125 7.515625 
L 36.8125 0 
L 27.59375 0 
Q 17.1875 0 13.234375 3.875 
Q 9.28125 7.765625 9.28125 18.015625 
L 9.28125 47.703125 
L 2.6875 47.703125 
L 2.6875 54.6875 
L 9.28125 54.6875 
L 9.28125 70.21875 
z
" id="DejaVuSans-116"/>
       <path d="M 56.203125 29.59375 
L 56.203125 25.203125 
L 14.890625 25.203125 
Q 15.484375 15.921875 20.484375 11.0625 
Q 25.484375 6.203125 34.421875 6.203125 
Q 39.59375 6.203125 44.453125 7.46875 
Q 49.3125 8.734375 54.109375 11.28125 
L 54.109375 2.78125 
Q 49.265625 0.734375 44.1875 -0.34375 
Q 39.109375 -1.421875 33.890625 -1.421875 
Q 20.796875 -1.421875 13.15625 6.1875 
Q 5.515625 13.8125 5.515625 26.8125 
Q 5.515625 40.234375 12.765625 48.109375 
Q 20.015625 56 32.328125 56 
Q 43.359375 56 49.78125 48.890625 
Q 56.203125 41.796875 56.203125 29.59375 
z
M 47.21875 32.234375 
Q 47.125 39.59375 43.09375 43.984375 
Q 39.0625 48.390625 32.421875 48.390625 
Q 24.90625 48.390625 20.390625 44.140625 
Q 15.875 39.890625 15.1875 32.171875 
z
" id="DejaVuSans-101"/>
       <path d="M 52 44.1875 
Q 55.375 50.25 60.0625 53.125 
Q 64.75 56 71.09375 56 
Q 79.640625 56 84.28125 50.015625 
Q 88.921875 44.046875 88.921875 33.015625 
L 88.921875 0 
L 79.890625 0 
L 79.890625 32.71875 
Q 79.890625 40.578125 77.09375 44.375 
Q 74.3125 48.1875 68.609375 48.1875 
Q 61.625 48.1875 57.5625 43.546875 
Q 53.515625 38.921875 53.515625 30.90625 
L 53.515625 0 
L 44.484375 0 
L 44.484375 32.71875 
Q 44.484375 40.625 41.703125 44.40625 
Q 38.921875 48.1875 33.109375 48.1875 
Q 26.21875 48.1875 22.15625 43.53125 
Q 18.109375 38.875 18.109375 30.90625 
L 18.109375 0 
L 9.078125 0 
L 9.078125 54.6875 
L 18.109375 54.6875 
L 18.109375 46.1875 
Q 21.1875 51.21875 25.484375 53.609375 
Q 29.78125 56 35.6875 56 
Q 41.65625 56 45.828125 52.96875 
Q 50 49.953125 52 44.1875 
z
" id="DejaVuSans-109"/>
       <path d="M 18.109375 8.203125 
L 18.109375 -20.796875 
L 9.078125 -20.796875 
L 9.078125 54.6875 
L 18.109375 54.6875 
L 18.109375 46.390625 
Q 20.953125 51.265625 25.265625 53.625 
Q 29.59375 56 35.59375 56 
Q 45.5625 56 51.78125 48.09375 
Q 58.015625 40.1875 58.015625 27.296875 
Q 58.015625 14.40625 51.78125 6.484375 
Q 45.5625 -1.421875 35.59375 -1.421875 
Q 29.59375 -1.421875 25.265625 0.953125 
Q 20.953125 3.328125 18.109375 8.203125 
z
M 48.6875 27.296875 
Q 48.6875 37.203125 44.609375 42.84375 
Q 40.53125 48.484375 33.40625 48.484375 
Q 26.265625 48.484375 22.1875 42.84375 
Q 18.109375 37.203125 18.109375 27.296875 
Q 18.109375 17.390625 22.1875 11.75 
Q 26.265625 6.109375 33.40625 6.109375 
Q 40.53125 6.109375 44.609375 11.75 
Q 48.6875 17.390625 48.6875 27.296875 
z
" id="DejaVuSans-112"/>
       <path d="M 41.109375 46.296875 
Q 39.59375 47.171875 37.8125 47.578125 
Q 36.03125 48 33.890625 48 
Q 26.265625 48 22.1875 43.046875 
Q 18.109375 38.09375 18.109375 28.8125 
L 18.109375 0 
L 9.078125 0 
L 9.078125 54.6875 
L 18.109375 54.6875 
L 18.109375 46.1875 
Q 20.953125 51.171875 25.484375 53.578125 
Q 30.03125 56 36.53125 56 
Q 37.453125 56 38.578125 55.875 
Q 39.703125 55.765625 41.0625 55.515625 
z
" id="DejaVuSans-114"/>
       <path d="M 34.28125 27.484375 
Q 23.390625 27.484375 19.1875 25 
Q 14.984375 22.515625 14.984375 16.5 
Q 14.984375 11.71875 18.140625 8.90625 
Q 21.296875 6.109375 26.703125 6.109375 
Q 34.1875 6.109375 38.703125 11.40625 
Q 43.21875 16.703125 43.21875 25.484375 
L 43.21875 27.484375 
z
M 52.203125 31.203125 
L 52.203125 0 
L 43.21875 0 
L 43.21875 8.296875 
Q 40.140625 3.328125 35.546875 0.953125 
Q 30.953125 -1.421875 24.3125 -1.421875 
Q 15.921875 -1.421875 10.953125 3.296875 
Q 6 8.015625 6 15.921875 
Q 6 25.140625 12.171875 29.828125 
Q 18.359375 34.515625 30.609375 34.515625 
L 43.21875 34.515625 
L 43.21875 35.40625 
Q 43.21875 41.609375 39.140625 45 
Q 35.0625 48.390625 27.6875 48.390625 
Q 23 48.390625 18.546875 47.265625 
Q 14.109375 46.140625 10.015625 43.890625 
L 10.015625 52.203125 
Q 14.9375 54.109375 19.578125 55.046875 
Q 24.21875 56 28.609375 56 
Q 40.484375 56 46.34375 49.84375 
Q 52.203125 43.703125 52.203125 31.203125 
z
" id="DejaVuSans-97"/>
       <path d="M 8.5 21.578125 
L 8.5 54.6875 
L 17.484375 54.6875 
L 17.484375 21.921875 
Q 17.484375 14.15625 20.5 10.265625 
Q 23.53125 6.390625 29.59375 6.390625 
Q 36.859375 6.390625 41.078125 11.03125 
Q 45.3125 15.671875 45.3125 23.6875 
L 45.3125 54.6875 
L 54.296875 54.6875 
L 54.296875 0 
L 45.3125 0 
L 45.3125 8.40625 
Q 42.046875 3.421875 37.71875 1 
Q 33.40625 -1.421875 27.6875 -1.421875 
Q 18.265625 -1.421875 13.375 4.4375 
Q 8.5 10.296875 8.5 21.578125 
z
M 31.109375 56 
z
" id="DejaVuSans-117"/>
       <path id="DejaVuSans-32"/>
       <path d="M 37.109375 75.984375 
L 37.109375 68.5 
L 28.515625 68.5 
Q 23.6875 68.5 21.796875 66.546875 
Q 19.921875 64.59375 19.921875 59.515625 
L 19.921875 54.6875 
L 34.71875 54.6875 
L 34.71875 47.703125 
L 19.921875 47.703125 
L 19.921875 0 
L 10.890625 0 
L 10.890625 47.703125 
L 2.296875 47.703125 
L 2.296875 54.6875 
L 10.890625 54.6875 
L 10.890625 58.5 
Q 10.890625 67.625 15.140625 71.796875 
Q 19.390625 75.984375 28.609375 75.984375 
z
" id="DejaVuSans-102"/>
       <path d="M 30.609375 48.390625 
Q 23.390625 48.390625 19.1875 42.75 
Q 14.984375 37.109375 14.984375 27.296875 
Q 14.984375 17.484375 19.15625 11.84375 
Q 23.34375 6.203125 30.609375 6.203125 
Q 37.796875 6.203125 41.984375 11.859375 
Q 46.1875 17.53125 46.1875 27.296875 
Q 46.1875 37.015625 41.984375 42.703125 
Q 37.796875 48.390625 30.609375 48.390625 
z
M 30.609375 56 
Q 42.328125 56 49.015625 48.375 
Q 55.71875 40.765625 55.71875 27.296875 
Q 55.71875 13.875 49.015625 6.21875 
Q 42.328125 -1.421875 30.609375 -1.421875 
Q 18.84375 -1.421875 12.171875 6.21875 
Q 5.515625 13.875 5.515625 27.296875 
Q 5.515625 40.765625 12.171875 48.375 
Q 18.84375 56 30.609375 56 
z
" id="DejaVuSans-111"/>
       <path d="M 34.1875 63.1875 
L 20.796875 26.90625 
L 47.609375 26.90625 
z
M 28.609375 72.90625 
L 39.796875 72.90625 
L 67.578125 0 
L 57.328125 0 
L 50.6875 18.703125 
L 17.828125 18.703125 
L 11.1875 0 
L 0.78125 0 
z
" id="DejaVuSans-65"/>
       <path d="M 9.421875 54.6875 
L 18.40625 54.6875 
L 18.40625 0 
L 9.421875 0 
z
M 9.421875 75.984375 
L 18.40625 75.984375 
L 18.40625 64.59375 
L 9.421875 64.59375 
z
" id="DejaVuSans-105"/>
       <path d="M 44.28125 53.078125 
L 44.28125 44.578125 
Q 40.484375 46.53125 36.375 47.5 
Q 32.28125 48.484375 27.875 48.484375 
Q 21.1875 48.484375 17.84375 46.4375 
Q 14.5 44.390625 14.5 40.28125 
Q 14.5 37.15625 16.890625 35.375 
Q 19.28125 33.59375 26.515625 31.984375 
L 29.59375 31.296875 
Q 39.15625 29.25 43.1875 25.515625 
Q 47.21875 21.78125 47.21875 15.09375 
Q 47.21875 7.46875 41.1875 3.015625 
Q 35.15625 -1.421875 24.609375 -1.421875 
Q 20.21875 -1.421875 15.453125 -0.5625 
Q 10.6875 0.296875 5.421875 2 
L 5.421875 11.28125 
Q 10.40625 8.6875 15.234375 7.390625 
Q 20.0625 6.109375 24.8125 6.109375 
Q 31.15625 6.109375 34.5625 8.28125 
Q 37.984375 10.453125 37.984375 14.40625 
Q 37.984375 18.0625 35.515625 20.015625 
Q 33.0625 21.96875 24.703125 23.78125 
L 21.578125 24.515625 
Q 13.234375 26.265625 9.515625 29.90625 
Q 5.8125 33.546875 5.8125 39.890625 
Q 5.8125 47.609375 11.28125 51.796875 
Q 16.75 56 26.8125 56 
Q 31.78125 56 36.171875 55.265625 
Q 40.578125 54.546875 44.28125 53.078125 
z
" id="DejaVuSans-115"/>
      </defs>
      <use xlink:href="#DejaVuSans-116"/>
      <use x="39.208984" xlink:href="#DejaVuSans-101"/>
      <use x="100.732422" xlink:href="#DejaVuSans-109"/>
      <use x="198.144531" xlink:href="#DejaVuSans-112"/>
      <use x="261.621094" xlink:href="#DejaVuSans-101"/>
      <use x="323.144531" xlink:href="#DejaVuSans-114"/>
      <use x="364.257812" xlink:href="#DejaVuSans-97"/>
      <use x="425.537109" xlink:href="#DejaVuSans-116"/>
      <use x="464.746094" xlink:href="#DejaVuSans-117"/>
      <use x="528.125" xlink:href="#DejaVuSans-114"/>
      <use x="566.988281" xlink:href="#DejaVuSans-101"/>
      <use x="628.511719" xlink:href="#DejaVuSans-32"/>
      <use x="660.298828" xlink:href="#DejaVuSans-102"/>
      <use x="695.503906" xlink:href="#DejaVuSans-114"/>
      <use x="734.367188" xlink:href="#DejaVuSans-111"/>
      <use x="795.548828" xlink:href="#DejaVuSans-109"/>
      <use x="892.960938" xlink:href="#DejaVuSans-32"/>
      <use x="924.748047" xlink:href="#DejaVuSans-65"/>
      <use x="991.40625" xlink:href="#DejaVuSans-101"/>
      <use x="1052.929688" xlink:href="#DejaVuSans-114"/>
      <use x="1094.042969" xlink:href="#DejaVuSans-105"/>
      <use x="1121.826172" xlink:href="#DejaVuSans-115"/>
     </g>
    </g>
   </g>
   <g id="matplotlib.axis_2">
    <g id="ytick_1">
     <g id="line2d_7">
      <defs>
       <path d="M 0 0 
L -3.5 0 
" id="m397bbd4327" style="stroke:#000000;stroke-width:0.8;"/>
      </defs>
      <g>
       <use style="stroke:#000000;stroke-width:0.8;" x="57.6" xlink:href="#m397bbd4327" y="296.453659"/>
      </g>
     </g>
     <g id="text_8">
      <!-- 0.0 -->
      <g transform="translate(34.696875 300.252877)scale(0.1 -0.1)">
       <defs>
        <path d="M 10.6875 12.40625 
L 21 12.40625 
L 21 0 
L 10.6875 0 
z
" id="DejaVuSans-46"/>
       </defs>
       <use xlink:href="#DejaVuSans-48"/>
       <use x="63.623047" xlink:href="#DejaVuSans-46"/>
       <use x="95.410156" xlink:href="#DejaVuSans-48"/>
      </g>
     </g>
    </g>
    <g id="ytick_2">
     <g id="line2d_8">
      <g>
       <use style="stroke:#000000;stroke-width:0.8;" x="57.6" xlink:href="#m397bbd4327" y="263.104981"/>
      </g>
     </g>
     <g id="text_9">
      <!-- 0.2 -->
      <g transform="translate(34.696875 266.9042)scale(0.1 -0.1)">
       <use xlink:href="#DejaVuSans-48"/>
       <use x="63.623047" xlink:href="#DejaVuSans-46"/>
       <use x="95.410156" xlink:href="#DejaVuSans-50"/>
      </g>
     </g>
    </g>
    <g id="ytick_3">
     <g id="line2d_9">
      <g>
       <use style="stroke:#000000;stroke-width:0.8;" x="57.6" xlink:href="#m397bbd4327" y="229.756304"/>
      </g>
     </g>
     <g id="text_10">
      <!-- 0.4 -->
      <g transform="translate(34.696875 233.555523)scale(0.1 -0.1)">
       <defs>
        <path d="M 37.796875 64.3125 
L 12.890625 25.390625 
L 37.796875 25.390625 
z
M 35.203125 72.90625 
L 47.609375 72.90625 
L 47.609375 25.390625 
L 58.015625 25.390625 
L 58.015625 17.1875 
L 47.609375 17.1875 
L 47.609375 0 
L 37.796875 0 
L 37.796875 17.1875 
L 4.890625 17.1875 
L 4.890625 26.703125 
z
" id="DejaVuSans-52"/>
       </defs>
       <use xlink:href="#DejaVuSans-48"/>
       <use x="63.623047" xlink:href="#DejaVuSans-46"/>
       <use x="95.410156" xlink:href="#DejaVuSans-52"/>
      </g>
     </g>
    </g>
    <g id="ytick_4">
     <g id="line2d_10">
      <g>
       <use style="stroke:#000000;stroke-width:0.8;" x="57.6" xlink:href="#m397bbd4327" y="196.407626"/>
      </g>
     </g>
     <g id="text_11">
      <!-- 0.6 -->
      <g transform="translate(34.696875 200.206845)scale(0.1 -0.1)">
       <defs>
        <path d="M 33.015625 40.375 
Q 26.375 40.375 22.484375 35.828125 
Q 18.609375 31.296875 18.609375 23.390625 
Q 18.609375 15.53125 22.484375 10.953125 
Q 26.375 6.390625 33.015625 6.390625 
Q 39.65625 6.390625 43.53125 10.953125 
Q 47.40625 15.53125 47.40625 23.390625 
Q 47.40625 31.296875 43.53125 35.828125 
Q 39.65625 40.375 33.015625 40.375 
z
M 52.59375 71.296875 
L 52.59375 62.3125 
Q 48.875 64.0625 45.09375 64.984375 
Q 41.3125 65.921875 37.59375 65.921875 
Q 27.828125 65.921875 22.671875 59.328125 
Q 17.53125 52.734375 16.796875 39.40625 
Q 19.671875 43.65625 24.015625 45.921875 
Q 28.375 48.1875 33.59375 48.1875 
Q 44.578125 48.1875 50.953125 41.515625 
Q 57.328125 34.859375 57.328125 23.390625 
Q 57.328125 12.15625 50.6875 5.359375 
Q 44.046875 -1.421875 33.015625 -1.421875 
Q 20.359375 -1.421875 13.671875 8.265625 
Q 6.984375 17.96875 6.984375 36.375 
Q 6.984375 53.65625 15.1875 63.9375 
Q 23.390625 74.21875 37.203125 74.21875 
Q 40.921875 74.21875 44.703125 73.484375 
Q 48.484375 72.75 52.59375 71.296875 
z
" id="DejaVuSans-54"/>
       </defs>
       <use xlink:href="#DejaVuSans-48"/>
       <use x="63.623047" xlink:href="#DejaVuSans-46"/>
       <use x="95.410156" xlink:href="#DejaVuSans-54"/>
      </g>
     </g>
    </g>
    <g id="ytick_5">
     <g id="line2d_11">
      <g>
       <use style="stroke:#000000;stroke-width:0.8;" x="57.6" xlink:href="#m397bbd4327" y="163.058949"/>
      </g>
     </g>
     <g id="text_12">
      <!-- 0.8 -->
      <g transform="translate(34.696875 166.858168)scale(0.1 -0.1)">
       <defs>
        <path d="M 31.78125 34.625 
Q 24.75 34.625 20.71875 30.859375 
Q 16.703125 27.09375 16.703125 20.515625 
Q 16.703125 13.921875 20.71875 10.15625 
Q 24.75 6.390625 31.78125 6.390625 
Q 38.8125 6.390625 42.859375 10.171875 
Q 46.921875 13.96875 46.921875 20.515625 
Q 46.921875 27.09375 42.890625 30.859375 
Q 38.875 34.625 31.78125 34.625 
z
M 21.921875 38.8125 
Q 15.578125 40.375 12.03125 44.71875 
Q 8.5 49.078125 8.5 55.328125 
Q 8.5 64.0625 14.71875 69.140625 
Q 20.953125 74.21875 31.78125 74.21875 
Q 42.671875 74.21875 48.875 69.140625 
Q 55.078125 64.0625 55.078125 55.328125 
Q 55.078125 49.078125 51.53125 44.71875 
Q 48 40.375 41.703125 38.8125 
Q 48.828125 37.15625 52.796875 32.3125 
Q 56.78125 27.484375 56.78125 20.515625 
Q 56.78125 9.90625 50.3125 4.234375 
Q 43.84375 -1.421875 31.78125 -1.421875 
Q 19.734375 -1.421875 13.25 4.234375 
Q 6.78125 9.90625 6.78125 20.515625 
Q 6.78125 27.484375 10.78125 32.3125 
Q 14.796875 37.15625 21.921875 38.8125 
z
M 18.3125 54.390625 
Q 18.3125 48.734375 21.84375 45.5625 
Q 25.390625 42.390625 31.78125 42.390625 
Q 38.140625 42.390625 41.71875 45.5625 
Q 45.3125 48.734375 45.3125 54.390625 
Q 45.3125 60.0625 41.71875 63.234375 
Q 38.140625 66.40625 31.78125 66.40625 
Q 25.390625 66.40625 21.84375 63.234375 
Q 18.3125 60.0625 18.3125 54.390625 
z
" id="DejaVuSans-56"/>
       </defs>
       <use xlink:href="#DejaVuSans-48"/>
       <use x="63.623047" xlink:href="#DejaVuSans-46"/>
       <use x="95.410156" xlink:href="#DejaVuSans-56"/>
      </g>
     </g>
    </g>
    <g id="ytick_6">
     <g id="line2d_12">
      <g>
       <use style="stroke:#000000;stroke-width:0.8;" x="57.6" xlink:href="#m397bbd4327" y="129.710272"/>
      </g>
     </g>
     <g id="text_13">
      <!-- 1.0 -->
      <g transform="translate(34.696875 133.50949)scale(0.1 -0.1)">
       <use xlink:href="#DejaVuSans-49"/>
       <use x="63.623047" xlink:href="#DejaVuSans-46"/>
       <use x="95.410156" xlink:href="#DejaVuSans-48"/>
      </g>
     </g>
    </g>
    <g id="ytick_7">
     <g id="line2d_13">
      <g>
       <use style="stroke:#000000;stroke-width:0.8;" x="57.6" xlink:href="#m397bbd4327" y="96.361594"/>
      </g>
     </g>
     <g id="text_14">
      <!-- 1.2 -->
      <g transform="translate(34.696875 100.160813)scale(0.1 -0.1)">
       <use xlink:href="#DejaVuSans-49"/>
       <use x="63.623047" xlink:href="#DejaVuSans-46"/>
       <use x="95.410156" xlink:href="#DejaVuSans-50"/>
      </g>
     </g>
    </g>
    <g id="ytick_8">
     <g id="line2d_14">
      <g>
       <use style="stroke:#000000;stroke-width:0.8;" x="57.6" xlink:href="#m397bbd4327" y="63.012917"/>
      </g>
     </g>
     <g id="text_15">
      <!-- 1.4 -->
      <g transform="translate(34.696875 66.812136)scale(0.1 -0.1)">
       <use xlink:href="#DejaVuSans-49"/>
       <use x="63.623047" xlink:href="#DejaVuSans-46"/>
       <use x="95.410156" xlink:href="#DejaVuSans-52"/>
      </g>
     </g>
    </g>
    <g id="text_16">
     <!-- Throughput[Bit/s] -->
     <g transform="translate(28.617187 218.538156)rotate(-90)scale(0.1 -0.1)">
      <defs>
       <path d="M -0.296875 72.90625 
L 61.375 72.90625 
L 61.375 64.59375 
L 35.5 64.59375 
L 35.5 0 
L 25.59375 0 
L 25.59375 64.59375 
L -0.296875 64.59375 
z
" id="DejaVuSans-84"/>
       <path d="M 54.890625 33.015625 
L 54.890625 0 
L 45.90625 0 
L 45.90625 32.71875 
Q 45.90625 40.484375 42.875 44.328125 
Q 39.84375 48.1875 33.796875 48.1875 
Q 26.515625 48.1875 22.3125 43.546875 
Q 18.109375 38.921875 18.109375 30.90625 
L 18.109375 0 
L 9.078125 0 
L 9.078125 75.984375 
L 18.109375 75.984375 
L 18.109375 46.1875 
Q 21.34375 51.125 25.703125 53.5625 
Q 30.078125 56 35.796875 56 
Q 45.21875 56 50.046875 50.171875 
Q 54.890625 44.34375 54.890625 33.015625 
z
" id="DejaVuSans-104"/>
       <path d="M 45.40625 27.984375 
Q 45.40625 37.75 41.375 43.109375 
Q 37.359375 48.484375 30.078125 48.484375 
Q 22.859375 48.484375 18.828125 43.109375 
Q 14.796875 37.75 14.796875 27.984375 
Q 14.796875 18.265625 18.828125 12.890625 
Q 22.859375 7.515625 30.078125 7.515625 
Q 37.359375 7.515625 41.375 12.890625 
Q 45.40625 18.265625 45.40625 27.984375 
z
M 54.390625 6.78125 
Q 54.390625 -7.171875 48.1875 -13.984375 
Q 42 -20.796875 29.203125 -20.796875 
Q 24.46875 -20.796875 20.265625 -20.09375 
Q 16.0625 -19.390625 12.109375 -17.921875 
L 12.109375 -9.1875 
Q 16.0625 -11.328125 19.921875 -12.34375 
Q 23.78125 -13.375 27.78125 -13.375 
Q 36.625 -13.375 41.015625 -8.765625 
Q 45.40625 -4.15625 45.40625 5.171875 
L 45.40625 9.625 
Q 42.625 4.78125 38.28125 2.390625 
Q 33.9375 0 27.875 0 
Q 17.828125 0 11.671875 7.65625 
Q 5.515625 15.328125 5.515625 27.984375 
Q 5.515625 40.671875 11.671875 48.328125 
Q 17.828125 56 27.875 56 
Q 33.9375 56 38.28125 53.609375 
Q 42.625 51.21875 45.40625 46.390625 
L 45.40625 54.6875 
L 54.390625 54.6875 
z
" id="DejaVuSans-103"/>
       <path d="M 8.59375 75.984375 
L 29.296875 75.984375 
L 29.296875 69 
L 17.578125 69 
L 17.578125 -6.203125 
L 29.296875 -6.203125 
L 29.296875 -13.1875 
L 8.59375 -13.1875 
z
" id="DejaVuSans-91"/>
       <path d="M 19.671875 34.8125 
L 19.671875 8.109375 
L 35.5 8.109375 
Q 43.453125 8.109375 47.28125 11.40625 
Q 51.125 14.703125 51.125 21.484375 
Q 51.125 28.328125 47.28125 31.5625 
Q 43.453125 34.8125 35.5 34.8125 
z
M 19.671875 64.796875 
L 19.671875 42.828125 
L 34.28125 42.828125 
Q 41.5 42.828125 45.03125 45.53125 
Q 48.578125 48.25 48.578125 53.8125 
Q 48.578125 59.328125 45.03125 62.0625 
Q 41.5 64.796875 34.28125 64.796875 
z
M 9.8125 72.90625 
L 35.015625 72.90625 
Q 46.296875 72.90625 52.390625 68.21875 
Q 58.5 63.53125 58.5 54.890625 
Q 58.5 48.1875 55.375 44.234375 
Q 52.25 40.28125 46.1875 39.3125 
Q 53.46875 37.75 57.5 32.78125 
Q 61.53125 27.828125 61.53125 20.40625 
Q 61.53125 10.640625 54.890625 5.3125 
Q 48.25 0 35.984375 0 
L 9.8125 0 
z
" id="DejaVuSans-66"/>
       <path d="M 25.390625 72.90625 
L 33.6875 72.90625 
L 8.296875 -9.28125 
L 0 -9.28125 
z
" id="DejaVuSans-47"/>
       <path d="M 30.421875 75.984375 
L 30.421875 -13.1875 
L 9.71875 -13.1875 
L 9.71875 -6.203125 
L 21.390625 -6.203125 
L 21.390625 69 
L 9.71875 69 
L 9.71875 75.984375 
z
" id="DejaVuSans-93"/>
      </defs>
      <use xlink:href="#DejaVuSans-84"/>
      <use x="61.083984" xlink:href="#DejaVuSans-104"/>
      <use x="124.462891" xlink:href="#DejaVuSans-114"/>
      <use x="163.326172" xlink:href="#DejaVuSans-111"/>
      <use x="224.507812" xlink:href="#DejaVuSans-117"/>
      <use x="287.886719" xlink:href="#DejaVuSans-103"/>
      <use x="351.363281" xlink:href="#DejaVuSans-104"/>
      <use x="414.742188" xlink:href="#DejaVuSans-112"/>
      <use x="478.21875" xlink:href="#DejaVuSans-117"/>
      <use x="541.597656" xlink:href="#DejaVuSans-116"/>
      <use x="580.806641" xlink:href="#DejaVuSans-91"/>
      <use x="619.820312" xlink:href="#DejaVuSans-66"/>
      <use x="688.423828" xlink:href="#DejaVuSans-105"/>
      <use x="716.207031" xlink:href="#DejaVuSans-116"/>
      <use x="755.416016" xlink:href="#DejaVuSans-47"/>
      <use x="789.107422" xlink:href="#DejaVuSans-115"/>
      <use x="841.207031" xlink:href="#DejaVuSans-93"/>
     </g>
    </g>
    <g id="text_17">
     <!-- 1e7 -->
     <g transform="translate(57.6 38.472)scale(0.1 -0.1)">
      <defs>
       <path d="M 8.203125 72.90625 
L 55.078125 72.90625 
L 55.078125 68.703125 
L 28.609375 0 
L 18.3125 0 
L 43.21875 64.59375 
L 8.203125 64.59375 
z
" id="DejaVuSans-55"/>
      </defs>
      <use xlink:href="#DejaVuSans-49"/>
      <use x="63.623047" xlink:href="#DejaVuSans-101"/>
      <use x="125.146484" xlink:href="#DejaVuSans-55"/>
     </g>
    </g>
   </g>
   <g id="line2d_15">
    <path clip-path="url(#p4203cc18f8)" d="M 73.832727 74.529328 
L 73.957068 62.366701 
L 74.20575 72.302393 
L 75.200479 72.400649 
L 75.449161 79.986698 
L 75.822184 62.259523 
L 75.946526 59.459372 
L 76.195208 67.766442 
L 77.189936 72.691357 
L 78.682029 66.326346 
L 79.055052 70.569911 
L 79.179393 73.388171 
L 79.428076 66.896794 
L 79.92544 77.425985 
L 80.049781 72.014104 
L 80.174122 75.491256 
L 80.298463 75.59291 
L 80.422804 67.765435 
L 80.547145 75.351626 
L 80.920169 68.53656 
L 81.04451 73.949892 
L 81.417533 74.431313 
L 82.412261 67.475827 
L 83.904354 64.389809 
L 84.277378 75.498813 
L 84.650401 65.73645 
L 84.774742 65.737903 
L 85.023424 68.640164 
L 85.147765 72.312098 
L 85.272106 67.76962 
L 85.645129 71.920916 
L 85.76947 70.907911 
L 85.893811 66.411875 
L 86.018153 72.403942 
L 86.639858 73.466041 
L 86.764199 66.710353 
L 87.137222 65.543989 
L 87.261563 71.438391 
L 87.385904 133.581324 
L 87.510245 74.146238 
L 87.758928 70.278021 
L 87.883269 130.833085 
L 91.862183 77.139828 
L 91.986524 74.333984 
L 92.110865 66.994051 
L 92.235206 74.434405 
L 92.359547 70.569322 
L 92.483888 79.162303 
L 92.60823 76.938644 
L 92.732571 93.648819 
L 92.981253 90.65563 
L 93.105594 107.082396 
L 93.229935 167.148412 
L 93.354276 66.995876 
L 93.478617 107.648461 
L 93.727299 91.046731 
L 95.965439 69.890412 
L 96.711485 67.377695 
L 96.835826 76.215454 
L 97.208849 72.308467 
L 97.457531 66.416062 
L 97.830555 82.645359 
L 98.079237 89.833297 
L 98.203578 135.756429 
L 98.45226 82.447949 
L 98.700942 92.202475 
L 99.073965 96.306327 
L 99.322648 97.615162 
L 99.57133 65.742517 
L 99.695671 107.167211 
L 100.690399 66.70824 
L 100.939082 72.400604 
L 101.436446 66.992289 
L 101.93381 64.290033 
L 102.058151 66.604864 
L 102.306833 72.403693 
L 102.431174 74.239997 
L 102.928539 70.274968 
L 103.05288 71.100041 
L 103.425903 66.812574 
L 103.550244 69.31292 
L 103.674585 87.664974 
L 103.923267 69.893811 
L 104.047608 72.792986 
L 104.171949 67.623463 
L 104.296291 123.152873 
L 104.420632 111.512611 
L 104.544973 78.39078 
L 105.291019 124.46382 
L 105.539701 76.074912 
L 105.664042 76.750371 
L 105.912724 74.238521 
L 106.037066 69.457289 
L 106.658771 68.102072 
L 106.907453 67.96572 
L 107.031794 68.6503 
L 107.156135 75.781862 
L 107.6535 68.248513 
L 107.777841 73.178939 
L 107.902182 71.433733 
L 108.150864 69.893561 
L 108.399546 74.82082 
L 108.523887 73.1778 
L 108.648228 73.948868 
L 109.021251 73.462835 
L 109.145592 72.21185 
L 109.269933 72.691411 
L 109.518616 70.088314 
L 109.767298 73.946554 
L 110.01598 75.590989 
L 110.140321 81.098929 
L 110.637685 66.610197 
L 110.762026 72.019714 
L 111.13505 75.213413 
L 111.632414 75.686547 
L 112.005437 67.969391 
L 112.37846 72.694646 
L 112.502801 70.563925 
L 112.627143 72.593731 
L 112.751484 115.583446 
L 112.875825 76.36309 
L 113.124507 68.103291 
L 113.248848 68.349147 
L 113.373189 69.118751 
L 113.621871 113.058071 
L 113.870553 62.841378 
L 113.994894 70.95769 
L 114.119235 71.241641 
L 114.243576 70.858682 
L 114.367918 66.702493 
L 114.492259 68.83374 
L 114.6166 65.257113 
L 114.740941 72.216133 
L 114.865282 67.957762 
L 114.989623 77.04213 
L 115.611328 65.737026 
L 115.86001 57.6245 
L 116.108693 85.540633 
L 116.357375 59.363342 
L 116.481716 87.369791 
L 116.730398 72.595071 
L 116.97908 94.127763 
L 117.103421 119.343718 
L 117.352103 97.420065 
L 117.476444 99.255637 
L 117.725127 73.759708 
L 117.973809 72.786724 
L 118.09815 73.079508 
L 118.222491 56.964475 
L 118.471173 72.593507 
L 118.719855 66.701072 
L 118.844196 66.749794 
L 118.968537 70.808819 
L 119.217219 71.005397 
L 119.341561 69.602119 
L 119.465902 70.858186 
L 119.590243 70.958367 
L 119.714584 70.23245 
L 119.838925 73.756479 
L 119.963266 62.798305 
L 120.211948 75.497465 
L 120.336289 104.465249 
L 120.46063 71.339895 
L 120.584971 78.678279 
L 120.833653 72.206844 
L 120.957994 72.401823 
L 121.082336 76.267969 
L 121.206677 70.279107 
L 121.331018 80.428263 
L 121.455359 80.901173 
L 121.704041 65.257645 
L 121.952723 60.956637 
L 122.077064 72.113538 
L 122.201405 71.242903 
L 122.325746 78.394661 
L 122.574428 81.381633 
L 122.823111 95.970438 
L 123.444816 77.424213 
L 123.569157 89.795955 
L 123.693498 71.677833 
L 123.94218 90.708375 
L 124.066521 72.885586 
L 124.190862 83.607429 
L 124.315204 80.99598 
L 124.439545 81.634695 
L 124.688227 72.114439 
L 124.812568 64.973064 
L 124.936909 74.76781 
L 125.06125 69.411105 
L 125.185591 73.512604 
L 125.309932 70.08445 
L 125.682955 79.081206 
L 125.807296 100.467794 
L 125.931637 71.291714 
L 126.055979 69.603933 
L 126.18032 70.56781 
L 126.304661 80.087044 
L 126.429002 65.445409 
L 126.677684 73.371325 
L 126.926366 80.899384 
L 127.050707 69.893743 
L 127.299389 72.835721 
L 127.42373 87.857858 
L 127.548071 76.458079 
L 127.796754 73.563155 
L 127.921095 67.7685 
L 128.045436 67.765412 
L 128.294118 70.087273 
L 128.418459 98.42819 
L 128.5428 70.769353 
L 128.791482 68.346752 
L 128.915823 68.681895 
L 129.040164 70.099925 
L 129.288846 69.841688 
L 129.413188 69.216392 
L 129.537529 74.721881 
L 129.786211 66.994367 
L 129.910552 69.214093 
L 130.034893 88.145671 
L 130.159234 62.938045 
L 130.283575 70.374211 
L 130.407916 109.695447 
L 130.532257 71.921711 
L 130.656598 68.441912 
L 130.90528 69.984677 
L 131.029622 70.081863 
L 131.402645 75.357808 
L 131.526986 68.539358 
L 131.651327 69.504093 
L 131.775668 68.738514 
L 132.148691 81.187407 
L 132.273032 78.778492 
L 132.397373 79.504298 
L 132.521714 69.892089 
L 132.646055 72.39973 
L 132.770397 88.049528 
L 133.019079 71.048109 
L 133.14342 70.274516 
L 133.267761 78.052721 
L 133.392102 72.013408 
L 133.516443 76.556742 
L 133.765125 70.371882 
L 134.013807 73.659776 
L 134.138148 73.085218 
L 134.386831 68.634263 
L 134.511172 91.962346 
L 134.635513 59.168129 
L 134.759854 70.082157 
L 135.008536 80.920635 
L 135.381559 70.51916 
L 135.5059 72.454406 
L 135.630241 72.303552 
L 135.754582 73.898113 
L 135.878923 73.657366 
L 136.003265 66.218656 
L 136.127606 73.80641 
L 136.251947 71.870547 
L 136.376288 78.1539 
L 136.500629 71.632865 
L 136.62497 72.98023 
L 136.749311 71.73038 
L 136.873652 72.690105 
L 136.997993 71.82675 
L 137.122334 72.988387 
L 137.246675 70.856879 
L 137.371016 73.077743 
L 137.495357 70.521782 
L 137.619698 72.208957 
L 137.74404 79.068599 
L 137.868381 68.924624 
L 137.992722 72.406586 
L 138.117063 87.757592 
L 138.490086 71.241484 
L 138.614427 70.90448 
L 138.738768 67.667877 
L 138.863109 72.065616 
L 138.98745 69.505137 
L 139.236132 72.695743 
L 139.360474 80.4191 
L 139.484815 78.48671 
L 139.609156 71.92303 
L 139.733497 76.07305 
L 139.857838 73.561483 
L 139.982179 77.472308 
L 140.230861 71.530196 
L 140.355202 70.859516 
L 140.479543 68.348341 
L 140.603884 80.614596 
L 140.852566 72.985806 
L 140.976907 107.469087 
L 141.22559 70.762018 
L 141.349931 70.854553 
L 141.474272 78.299071 
L 141.722954 67.088726 
L 141.971636 71.486102 
L 142.095977 73.562508 
L 142.344659 72.791658 
L 142.469 71.725745 
L 142.593341 72.403811 
L 142.717683 71.819764 
L 142.842024 83.507319 
L 142.966365 72.505308 
L 143.090706 72.644424 
L 143.215047 70.663706 
L 143.339388 74.526389 
L 143.463729 71.921906 
L 143.58807 94.134136 
L 143.836752 71.146682 
L 143.961093 73.027695 
L 144.085434 72.69619 
L 144.209775 70.665897 
L 144.334117 73.465841 
L 144.458458 69.841857 
L 144.582799 73.706288 
L 144.70714 95.917296 
L 144.831481 72.015616 
L 144.955822 70.662623 
L 145.080163 78.828239 
L 145.204504 72.984901 
L 145.453186 71.436097 
L 145.701868 67.043205 
L 145.95055 88.434711 
L 146.199233 72.404234 
L 146.323574 68.63653 
L 146.447915 104.172472 
L 146.572256 72.40206 
L 146.696597 79.935166 
L 146.945279 72.258162 
L 147.06962 72.786858 
L 147.193961 79.548035 
L 147.442643 64.004286 
L 147.566984 75.782679 
L 147.815667 69.11991 
L 147.940008 61.584391 
L 148.064349 72.205975 
L 148.18869 69.84223 
L 148.313031 76.89458 
L 148.561713 70.757392 
L 148.686054 70.084896 
L 148.934736 72.601722 
L 149.059077 73.027691 
L 149.183418 74.38242 
L 149.307759 70.863531 
L 149.432101 74.672585 
L 149.556442 72.404682 
L 149.805124 80.421878 
L 149.929465 74.625401 
L 150.053806 81.534401 
L 150.178147 76.459025 
L 150.426829 77.620971 
L 150.55117 68.886481 
L 150.675511 78.29473 
L 150.799852 71.827985 
L 150.924193 72.64443 
L 151.048535 68.827526 
L 151.172876 72.017707 
L 151.297217 71.433463 
L 151.421558 68.686288 
L 151.794581 79.452805 
L 151.918922 68.059685 
L 152.043263 69.749151 
L 152.167604 69.606179 
L 152.291945 73.759084 
L 152.416286 68.247783 
L 152.540627 72.501974 
L 152.664968 67.669355 
L 152.913651 70.758988 
L 153.037992 81.527914 
L 153.162333 74.138102 
L 153.286674 73.754739 
L 153.411015 71.051422 
L 153.535356 71.679552 
L 153.659697 72.983466 
L 153.784038 67.966238 
L 153.908379 69.214895 
L 154.03272 71.776605 
L 154.157061 68.731204 
L 154.281402 68.590896 
L 154.405744 71.636618 
L 154.530085 71.143084 
L 154.654426 74.041616 
L 154.778767 81.014227 
L 154.903108 77.240206 
L 155.027449 148.796186 
L 155.15179 70.180135 
L 155.276131 78.728698 
L 155.400472 70.950136 
L 155.649154 78.678258 
L 155.773495 92.302707 
L 155.897836 73.41653 
L 156.022178 89.206217 
L 156.146519 65.977691 
L 156.27086 72.788099 
L 156.395201 69.897096 
L 156.643883 67.186058 
L 156.768224 90.70631 
L 156.892565 72.611822 
L 157.016906 76.894277 
L 157.141247 72.693013 
L 157.265588 77.281342 
L 157.51427 59.465794 
L 157.762953 73.56779 
L 157.887294 68.632691 
L 158.011635 100.94995 
L 158.135976 71.437941 
L 158.260317 70.184864 
L 158.384658 76.556216 
L 158.508999 71.916249 
L 158.757681 75.982793 
L 158.882022 70.807061 
L 159.130704 72.839948 
L 159.255045 67.478421 
L 159.379387 75.489356 
L 159.628069 69.556732 
L 159.876751 72.401676 
L 160.001092 75.110625 
L 160.125433 75.205073 
L 160.249774 72.695828 
L 160.498456 81.140283 
L 160.622797 73.572894 
L 160.747138 73.75414 
L 160.871479 70.602093 
L 160.99582 76.169282 
L 161.244503 72.497537 
L 161.368844 72.109759 
L 161.493185 67.236789 
L 161.741867 73.273335 
L 161.866208 70.759852 
L 161.990549 91.236918 
L 162.239231 74.721255 
L 162.363572 72.989057 
L 162.487913 75.540505 
L 162.612254 73.90121 
L 162.736596 70.279485 
L 162.860937 70.955954 
L 162.985278 72.691514 
L 163.109619 71.728357 
L 163.23396 74.482219 
L 163.358301 71.151443 
L 163.482642 59.026793 
L 163.731324 76.556302 
L 163.855665 79.550833 
L 164.104347 68.247281 
L 164.228688 74.238166 
L 164.353029 69.893811 
L 164.477371 78.774896 
L 164.726053 68.343536 
L 164.974735 73.090742 
L 165.099076 70.664948 
L 165.223417 73.17367 
L 165.347758 66.317172 
L 165.472099 69.796037 
L 165.59644 79.065883 
L 165.720781 71.051963 
L 165.845122 73.466961 
L 165.969463 81.091499 
L 166.218146 70.711256 
L 166.342487 75.350724 
L 166.466828 71.91708 
L 166.591169 72.353213 
L 166.71551 70.854192 
L 166.839851 75.491968 
L 166.964192 75.399156 
L 167.088533 67.960477 
L 167.212874 71.14964 
L 167.337215 61.293938 
L 167.461556 73.51177 
L 167.710239 73.658147 
L 167.83458 70.084862 
L 167.958921 91.669003 
L 168.083262 71.919323 
L 168.331944 78.011039 
L 168.580626 73.753072 
L 168.829308 63.369996 
L 168.953649 68.396179 
L 169.07799 67.377992 
L 169.202331 63.224035 
L 169.326672 72.0177 
L 169.575355 59.465296 
L 169.824037 79.938014 
L 170.072719 70.864253 
L 170.19706 70.471869 
L 170.321401 68.247942 
L 170.445742 69.556091 
L 170.570083 69.118364 
L 170.694424 82.010325 
L 170.818765 73.513589 
L 170.943106 76.268234 
L 171.067448 68.251748 
L 171.31613 77.86075 
L 171.440471 71.533345 
L 171.564812 88.291194 
L 171.689153 72.597536 
L 171.813494 72.890564 
L 171.937835 68.636086 
L 172.062176 73.66073 
L 172.186517 73.08297 
L 172.310858 69.987915 
L 172.435199 72.987984 
L 172.55954 69.890412 
L 172.683881 73.849624 
L 172.808223 70.669351 
L 172.932564 71.002073 
L 173.056905 82.110406 
L 173.181246 71.048222 
L 173.67861 76.363728 
L 173.802951 73.562129 
L 173.927292 73.754319 
L 174.051633 75.009602 
L 174.175974 65.689096 
L 174.300315 72.50056 
L 174.424657 88.291552 
L 174.673339 70.279944 
L 174.79768 73.708581 
L 174.922021 71.916586 
L 175.046362 80.035093 
L 175.295044 73.324111 
L 175.419385 68.153742 
L 175.543726 75.831467 
L 175.668067 69.889246 
L 175.792408 80.129384 
L 175.916749 73.324076 
L 176.04109 82.642038 
L 176.165432 73.274261 
L 176.414114 86.311082 
L 176.538455 74.137613 
L 176.662796 74.82082 
L 176.787137 87.175763 
L 176.911478 72.303043 
L 177.035819 73.559321 
L 177.284501 89.548023 
L 177.408842 67.693298 
L 177.533183 89.593838 
L 177.657524 67.280822 
L 177.906207 73.849512 
L 178.154889 69.553347 
L 178.27923 71.389082 
L 178.403571 78.726767 
L 178.527912 74.671209 
L 178.652253 83.607939 
L 178.900935 72.496641 
L 179.025276 73.752827 
L 179.273958 72.500986 
L 179.3983 95.386191 
L 179.522641 71.537105 
L 179.646982 74.384477 
L 179.771323 71.198101 
L 180.020005 81.094643 
L 180.144346 73.850826 
L 180.268687 74.819069 
L 180.393028 149.954338 
L 180.517369 75.687209 
L 180.766051 68.307064 
L 180.890392 75.494512 
L 181.014733 74.383933 
L 181.139075 76.459712 
L 181.263416 69.023859 
L 181.387757 70.183574 
L 181.512098 75.688026 
L 181.636439 70.765689 
L 181.76078 76.845517 
L 182.009462 72.693707 
L 182.133803 72.30255 
L 182.258144 68.25278 
L 182.631167 71.485385 
L 182.755509 76.459865 
L 182.87985 68.788044 
L 183.004191 71.537761 
L 183.128532 70.762041 
L 183.252873 68.829985 
L 183.377214 69.02003 
L 183.501555 74.912443 
L 183.625896 69.794672 
L 183.750237 71.291369 
L 183.874578 83.904332 
L 183.998919 71.536673 
L 184.12326 73.657812 
L 184.247601 71.965837 
L 184.371942 68.737464 
L 184.496284 72.111297 
L 184.620625 69.11625 
L 184.869307 76.314355 
L 184.993648 71.678737 
L 185.24233 77.186324 
L 185.366671 68.15324 
L 185.491012 72.210187 
L 185.615353 65.349665 
L 185.739694 69.553176 
L 185.864035 68.924806 
L 186.112718 74.627676 
L 186.237059 68.443919 
L 186.3614 80.271188 
L 186.485741 72.450604 
L 186.610082 72.352286 
L 186.858764 69.513556 
L 186.983105 71.972253 
L 187.107446 69.657901 
L 187.231787 70.280229 
L 187.356128 72.982673 
L 187.60481 72.934427 
L 187.729151 67.774945 
L 187.977834 72.404368 
L 188.226516 69.165014 
L 188.350857 64.099767 
L 188.72388 75.884193 
L 188.848221 69.408131 
L 188.972562 74.242213 
L 189.096903 68.343741 
L 189.345585 72.404077 
L 189.594268 74.863961 
L 189.718609 70.956857 
L 189.84295 70.856978 
L 189.967291 67.670976 
L 190.340314 71.399692 
L 190.464655 72.978219 
L 190.588996 68.245637 
L 190.837678 72.400873 
L 190.962019 70.276257 
L 191.086361 72.450564 
L 191.210702 69.166755 
L 191.335043 72.015071 
L 191.583725 67.915231 
L 191.708066 73.758527 
L 191.832407 73.270266 
L 191.956748 61.445423 
L 192.20543 73.077631 
L 192.454112 69.214233 
L 192.578453 71.208874 
L 192.702794 68.778315 
L 192.827136 70.715366 
L 192.951477 78.245705 
L 193.075818 69.794879 
L 193.200159 83.942591 
L 193.448841 68.053103 
L 193.573182 79.166104 
L 193.697523 68.831066 
L 193.821864 68.205018 
L 193.946205 68.440327 
L 194.070546 71.483303 
L 194.194887 68.443371 
L 194.567911 71.536987 
L 194.816593 72.013161 
L 194.940934 70.276348 
L 195.065275 73.802431 
L 195.189616 67.814798 
L 195.313957 73.419283 
L 195.562639 71.338599 
L 195.68698 71.876768 
L 195.811321 75.299257 
L 195.935662 72.598633 
L 196.060003 63.326369 
L 196.184345 65.06038 
L 196.308686 69.600327 
L 196.433027 69.460441 
L 196.557368 76.167626 
L 196.80605 72.599439 
L 196.930391 82.543915 
L 197.054732 70.957441 
L 197.179073 77.911386 
L 197.427755 69.700133 
L 197.552096 69.98556 
L 197.676437 80.22659 
L 197.92512 70.180361 
L 198.173802 75.590172 
L 198.422484 68.923464 
L 198.546825 72.504614 
L 198.671166 70.956811 
L 198.795507 66.269615 
L 198.919848 73.225513 
L 199.044189 63.903459 
L 199.16853 70.762966 
L 199.417212 68.247303 
L 199.541554 72.351106 
L 199.665895 137.154955 
L 199.790236 72.888038 
L 200.038918 68.297861 
L 200.163259 85.63029 
L 200.411941 68.635592 
L 200.660623 75.2513 
L 200.909305 69.123865 
L 201.157988 71.102124 
L 201.40667 67.477298 
L 201.531011 74.141361 
L 201.655352 70.37266 
L 201.779693 76.651007 
L 201.904034 67.140832 
L 202.028375 73.318217 
L 202.152716 73.36751 
L 202.401398 72.888623 
L 202.525739 72.401344 
L 202.65008 116.247956 
L 202.898763 69.023177 
L 203.023104 71.440033 
L 203.147445 69.221255 
L 203.396127 78.291742 
L 203.644809 69.988766 
L 203.76915 74.144682 
L 203.893491 73.088487 
L 204.017832 74.479293 
L 204.266514 69.987598 
L 204.390855 76.410324 
L 204.515197 70.953699 
L 204.639538 92.117105 
L 204.763879 72.788638 
L 204.88822 87.76032 
L 205.012561 70.569979 
L 205.261243 74.238632 
L 205.385584 71.336978 
L 205.509925 71.823406 
L 205.634266 65.639021 
L 205.758607 74.864138 
L 205.882948 67.958013 
L 206.007289 68.536868 
L 206.131631 76.368745 
L 206.255972 69.703499 
L 206.380313 69.603762 
L 206.504654 76.367403 
L 206.628995 69.406111 
L 206.753336 68.9279 
L 207.002018 78.683636 
L 207.126359 73.559588 
L 207.2507 76.565564 
L 207.375041 71.248713 
L 207.623723 71.824346 
L 207.748064 80.143378 
L 207.872406 71.194621 
L 207.996747 75.548358 
L 208.121088 73.856502 
L 208.245429 70.180658 
L 208.36977 76.266648 
L 208.494111 72.014732 
L 208.618452 73.369094 
L 208.742793 73.468677 
L 208.867134 71.056043 
L 208.991475 76.654172 
L 209.115816 68.490518 
L 209.240157 72.983985 
L 209.364498 70.66426 
L 209.48884 74.624792 
L 209.613181 69.989251 
L 209.861863 73.849481 
L 209.986204 70.135075 
L 210.234886 73.176483 
L 210.359227 74.04513 
L 210.483568 69.409879 
L 210.607909 75.397423 
L 210.856591 70.668832 
L 211.105273 73.175191 
L 211.353956 71.051107 
L 211.478297 73.756991 
L 211.602638 70.374731 
L 211.726979 70.086504 
L 211.85132 70.280589 
L 211.975661 75.011108 
L 212.100002 74.526088 
L 212.224343 81.780919 
L 212.348684 69.1165 
L 212.473025 76.746131 
L 212.597366 69.798008 
L 212.846049 73.99911 
L 212.97039 72.354924 
L 213.094731 66.422134 
L 213.343413 76.705556 
L 213.467754 291.915066 
L 213.592095 69.16781 
L 213.716436 73.172285 
L 213.840777 71.003535 
L 213.965118 78.489971 
L 214.089459 76.656832 
L 214.2138 72.064265 
L 214.338141 73.562285 
L 214.462483 73.562085 
L 214.586824 70.763508 
L 214.711165 71.72775 
L 214.835506 77.569553 
L 215.084188 70.855884 
L 215.208529 71.77367 
L 215.33287 70.758508 
L 215.457211 75.782318 
L 215.581552 70.952481 
L 215.830234 73.171616 
L 215.954575 71.725526 
L 216.078916 80.225459 
L 216.327599 73.029296 
L 216.45194 70.563518 
L 216.576281 75.544154 
L 216.700622 112.575065 
L 216.824963 75.296006 
L 216.949304 81.968438 
L 217.197986 69.792365 
L 217.322327 74.045086 
L 217.446668 68.735137 
L 217.69535 72.064517 
L 217.819692 75.299102 
L 217.944033 68.73307 
L 218.068374 72.596999 
L 218.192715 71.682158 
L 218.317056 69.747441 
L 218.441397 75.396051 
L 218.565738 71.246145 
L 218.690079 73.029792 
L 218.938761 72.304097 
L 219.187443 71.046869 
L 219.311784 67.48261 
L 219.436125 73.561862 
L 219.684808 69.844503 
L 219.809149 71.156413 
L 219.93349 76.508613 
L 220.057831 71.77217 
L 220.182172 72.508197 
L 220.306513 74.484021 
L 220.555195 86.215463 
L 220.679536 71.62803 
L 220.803877 74.335605 
L 220.928218 63.374735 
L 221.176901 77.041077 
L 221.425583 72.302483 
L 221.549924 72.209697 
L 221.674265 72.645186 
L 221.922947 68.975146 
L 222.047288 74.242987 
L 222.420311 68.489844 
L 222.544652 74.430358 
L 222.793334 68.649321 
L 222.917676 71.292494 
L 223.042017 71.144684 
L 223.166358 69.796898 
L 223.290699 71.82046 
L 223.41504 68.442026 
L 223.539381 71.871657 
L 223.663722 90.511249 
L 223.788063 71.242655 
L 223.912404 76.605706 
L 224.161086 74.042463 
L 224.285427 74.72396 
L 224.409768 72.598854 
L 224.658451 76.460697 
L 224.907133 67.978333 
L 225.031474 69.892565 
L 225.155815 73.65995 
L 225.404497 71.677759 
L 225.528838 70.570295 
L 225.653179 70.761939 
L 225.77752 72.792533 
L 225.901861 104.51318 
L 226.026202 73.566832 
L 226.150544 71.580113 
L 226.399226 71.785915 
L 226.523567 70.092049 
L 226.647908 71.92047 
L 226.772249 69.361149 
L 226.89659 73.900296 
L 227.145272 72.310955 
L 227.269613 69.018768 
L 227.393954 73.565963 
L 227.518295 91.629271 
L 227.766977 71.583161 
L 227.891319 72.453042 
L 228.01566 69.560786 
L 228.264342 73.856677 
L 228.388683 72.45109 
L 228.513024 75.010799 
L 228.761706 70.522825 
L 228.886047 74.718727 
L 229.134729 68.006413 
L 229.25907 77.232688 
L 229.383411 71.055705 
L 229.507753 73.081473 
L 229.632094 69.504841 
L 229.756435 71.530691 
L 229.880776 68.393429 
L 230.005117 174.9146 
L 230.129458 72.302304 
L 230.253799 75.15359 
L 230.502481 70.668674 
L 230.626822 106.108852 
L 230.751163 71.144594 
L 230.875504 82.253439 
L 230.999845 71.055863 
L 231.124186 70.854418 
L 231.248528 72.742278 
L 231.372869 70.038721 
L 231.49721 72.496945 
L 231.621551 71.145788 
L 231.745892 75.683623 
L 231.870233 71.724694 
L 231.994574 74.335228 
L 232.118915 81.529718 
L 232.243256 76.168798 
L 232.367597 110.838795 
L 232.616279 75.017662 
L 232.74062 71.729481 
L 232.864962 71.62767 
L 232.989303 79.269345 
L 233.113644 70.757053 
L 233.237985 75.588383 
L 233.362326 72.50495 
L 233.486667 72.840454 
L 233.611008 76.216703 
L 233.735349 72.549411 
L 233.85969 74.335361 
L 234.108372 67.092327 
L 234.232713 68.441491 
L 234.481395 74.624841 
L 234.605737 69.019503 
L 234.730078 72.309454 
L 234.854419 70.324438 
L 234.97876 70.860419 
L 235.103101 69.315555 
L 235.227442 73.417077 
L 235.600465 69.700827 
L 235.724806 71.820595 
L 235.849147 69.892061 
L 235.973488 74.333495 
L 236.097829 71.340401 
L 236.222171 65.351029 
L 236.346512 73.867853 
L 236.470853 73.465489 
L 236.595194 72.309835 
L 236.719535 75.886399 
L 237.34124 69.98907 
L 237.714263 73.420093 
L 237.838605 68.248604 
L 237.962946 68.923805 
L 238.087287 73.563935 
L 238.211628 72.113886 
L 238.335969 66.607928 
L 238.46031 71.337113 
L 238.584651 70.278134 
L 238.708992 70.421158 
L 238.833333 71.436696 
L 238.957674 70.662374 
L 239.082015 75.202159 
L 239.206356 75.591409 
L 239.455038 66.801184 
L 239.57938 75.394991 
L 239.703721 95.48163 
L 239.828062 72.447459 
L 239.952403 70.8569 
L 240.076744 75.20848 
L 240.201085 71.644522 
L 240.325426 72.985661 
L 240.449767 70.952414 
L 240.698449 72.017807 
L 240.82279 70.856381 
L 240.947131 67.091754 
L 241.071472 71.340799 
L 241.195814 69.989999 
L 241.320155 71.001662 
L 241.444496 89.601545 
L 241.568837 72.406004 
L 241.693178 74.446186 
L 241.817519 71.05566 
L 241.94186 62.783101 
L 242.314883 73.178646 
L 242.439224 64.286667 
L 242.563565 71.53728 
L 242.687906 67.673391 
L 242.936589 73.762043 
L 243.06093 70.663851 
L 243.309612 76.023344 
L 243.433953 70.999872 
L 243.558294 71.19535 
L 243.682635 70.085273 
L 243.806976 73.661166 
L 243.931317 71.001273 
L 244.055658 71.34202 
L 244.30434 69.071307 
L 244.428681 71.049214 
L 244.553023 69.361901 
L 244.677364 72.978286 
L 244.801705 66.512474 
L 245.050387 74.332074 
L 245.174728 75.689041 
L 245.299069 74.52853 
L 245.42341 71.150879 
L 245.547751 73.127209 
L 245.672092 72.206437 
L 245.796433 75.303857 
L 245.920774 66.283565 
L 246.045115 80.033351 
L 246.169456 74.089482 
L 246.293798 81.386069 
L 246.418139 73.225163 
L 246.666821 74.914313 
L 246.791162 81.630429 
L 246.915503 68.833374 
L 247.039844 76.939788 
L 247.164185 72.212792 
L 247.288526 75.112196 
L 247.412867 70.854656 
L 247.537208 75.20529 
L 247.78589 75.493996 
L 247.910232 74.865592 
L 248.034573 76.462089 
L 248.158914 70.47214 
L 248.283255 70.857916 
L 248.407596 74.047662 
L 248.531937 69.79105 
L 248.656278 72.98559 
L 248.780619 93.557196 
L 248.90496 71.450563 
L 249.029301 76.410223 
L 249.153642 75.736463 
L 249.277983 67.861499 
L 249.402324 73.367055 
L 249.526666 73.559678 
L 249.651007 71.047455 
L 249.899689 73.464909 
L 250.02403 73.752225 
L 250.148371 65.26497 
L 250.272712 75.636483 
L 250.397053 69.505999 
L 250.521394 107.557323 
L 250.770076 73.558875 
L 250.894417 72.707793 
L 251.018758 75.879142 
L 251.391782 67.287948 
L 251.516123 86.513259 
L 251.764805 70.281097 
L 251.889146 77.038072 
L 252.013487 72.495566 
L 252.137828 73.076649 
L 252.262169 72.310193 
L 252.38651 73.127392 
L 252.510851 72.211558 
L 252.635192 79.451851 
L 252.759533 79.836524 
L 252.883875 71.05433 
L 253.008216 87.954268 
L 253.132557 72.259752 
L 253.256898 75.492767 
L 253.381239 69.219838 
L 253.50558 72.305845 
L 253.629921 69.796513 
L 253.878603 68.924169 
L 254.127285 74.045197 
L 254.375967 72.258085 
L 254.500308 75.931146 
L 254.748991 70.32608 
L 254.873332 69.407427 
L 254.997673 73.323682 
L 255.246355 74.237471 
L 255.495037 76.941629 
L 255.743719 68.828209 
L 255.86806 71.820325 
L 255.992401 70.569482 
L 256.116742 71.967 
L 256.241084 81.284671 
L 256.489766 69.799844 
L 256.614107 69.503434 
L 256.738448 67.52647 
L 256.862789 71.340305 
L 256.98713 71.725276 
L 257.111471 68.454041 
L 257.235812 72.887893 
L 257.484494 68.494024 
L 257.733176 72.309655 
L 257.857517 70.56772 
L 257.981859 73.851275 
L 258.479223 69.41022 
L 258.603564 71.343175 
L 258.727905 70.855185 
L 258.852246 72.786162 
L 258.976587 87.612382 
L 259.100928 70.327145 
L 259.225269 73.173536 
L 259.34961 70.325729 
L 259.598293 70.472512 
L 259.722634 72.305236 
L 259.846975 80.377555 
L 259.971316 71.340284 
L 260.095657 77.758798 
L 260.344339 70.761883 
L 260.46868 74.915453 
L 260.593021 66.899296 
L 260.841703 77.13368 
L 260.966044 64.010213 
L 261.090385 74.238091 
L 261.214727 74.191762 
L 261.339068 75.54512 
L 261.463409 72.1094 
L 261.712091 73.662223 
L 261.960773 74.144549 
L 262.085114 74.717708 
L 262.209455 69.890865 
L 262.333796 78.969825 
L 262.458137 71.435722 
L 262.582478 90.653264 
L 262.83116 73.272699 
L 262.955502 71.047414 
L 263.204184 75.107304 
L 263.577207 71.53141 
L 263.701548 67.962857 
L 263.825889 73.751802 
L 263.95023 71.243421 
L 264.074571 75.298505 
L 264.198912 70.671879 
L 264.323253 91.424876 
L 264.447594 84.665048 
L 264.571936 70.85602 
L 264.696277 73.561283 
L 264.820618 70.468299 
L 265.0693 74.767736 
L 265.317982 71.678373 
L 265.566664 74.091846 
L 265.691005 72.013902 
L 265.815346 77.713956 
L 265.939687 73.946977 
L 266.064028 79.73867 
L 266.312711 72.355499 
L 266.437052 74.527642 
L 266.561393 73.997522 
L 266.685734 75.298328 
L 266.810075 78.149417 
L 266.934416 72.931307 
L 267.058757 73.753651 
L 267.183098 63.724413 
L 267.307439 71.53258 
L 267.43178 70.57073 
L 267.680462 72.459025 
L 267.804803 73.579981 
L 267.929145 70.276044 
L 268.053486 71.919122 
L 268.302168 70.324466 
L 268.55085 78.105623 
L 268.675191 71.828951 
L 268.799532 74.719601 
L 268.923873 71.581175 
L 269.048214 72.014337 
L 269.172555 70.665197 
L 269.296896 72.689053 
L 269.421237 71.627828 
L 269.545578 75.007852 
L 269.794261 72.543732 
L 269.918602 80.803003 
L 270.167284 64.964198 
L 270.291625 73.369451 
L 270.788989 67.333139 
L 270.91333 74.431479 
L 271.037671 67.044022 
L 271.162012 71.725042 
L 271.286354 72.162122 
L 271.410695 71.826876 
L 271.535036 69.60965 
L 271.783718 72.791688 
L 271.908059 73.756456 
L 272.0324 82.158376 
L 272.281082 69.213688 
L 272.529764 74.141437 
L 272.654105 66.363897 
L 272.778446 73.465902 
L 272.902788 69.022245 
L 273.027129 72.403405 
L 273.15147 70.760709 
L 273.275811 73.852428 
L 273.400152 71.529319 
L 273.524493 76.363398 
L 273.648834 71.631753 
L 273.773175 89.59516 
L 273.897516 71.730177 
L 274.270539 71.969563 
L 274.39488 72.839904 
L 274.519221 67.281647 
L 275.016586 77.907366 
L 275.140927 70.183529 
L 275.265268 74.528862 
L 275.389609 71.098503 
L 275.51395 71.729076 
L 275.638291 69.022699 
L 275.886973 70.37408 
L 276.011314 74.821108 
L 276.135655 65.156515 
L 276.384338 84.284371 
L 276.63302 70.472366 
L 276.881702 71.830357 
L 277.006043 58.207903 
L 277.130384 73.660173 
L 277.254725 67.386788 
L 277.503407 67.958881 
L 277.627748 73.945976 
L 277.752089 72.741658 
L 277.87643 69.702842 
L 278.125113 66.416016 
L 278.498136 83.506632 
L 278.622477 71.820595 
L 278.871159 70.084906 
L 278.9955 71.674767 
L 279.119841 69.598966 
L 279.244182 70.179592 
L 279.492864 71.485536 
L 279.617206 72.209871 
L 279.741547 71.775293 
L 279.990229 76.747669 
L 280.11457 75.492508 
L 280.363252 74.431109 
L 280.487593 71.5321 
L 280.611934 72.932233 
L 280.736275 70.323918 
L 280.860616 70.616819 
L 280.984957 70.468321 
L 281.109298 75.060721 
L 281.233639 71.920538 
L 281.357981 73.462936 
L 281.482322 78.58079 
L 281.606663 72.109375 
L 281.731004 73.658095 
L 281.855345 70.815892 
L 282.104027 69.555199 
L 282.352709 74.236365 
L 282.47705 65.882407 
L 282.601391 71.389911 
L 282.725732 70.757143 
L 282.850073 73.566966 
L 282.974415 70.614311 
L 283.223097 72.736781 
L 283.347438 71.437159 
L 283.471779 72.502486 
L 283.59612 69.597684 
L 283.720461 74.045174 
L 283.844802 72.594089 
L 283.969143 72.703193 
L 284.093484 72.406788 
L 284.217825 71.822341 
L 284.342166 85.730764 
L 284.466507 71.725706 
L 284.590849 73.757236 
L 284.71519 67.767439 
L 284.963872 71.92166 
L 285.088213 70.275918 
L 285.336895 75.393333 
L 285.461236 69.702286 
L 285.709918 72.399887 
L 286.082941 67.431218 
L 286.207282 69.701754 
L 286.331624 69.79433 
L 286.580306 75.975584 
L 286.704647 72.592836 
L 286.828988 74.235325 
L 287.202011 67.379962 
L 287.450693 72.884327 
L 287.699375 71.103043 
L 287.948058 76.555381 
L 288.072399 72.163037 
L 288.19674 71.72663 
L 288.569763 66.125789 
L 288.694104 70.576596 
L 288.818445 93.755244 
L 288.942786 69.408199 
L 289.067127 71.387869 
L 289.315809 69.505897 
L 289.44015 73.221991 
L 289.564491 70.182172 
L 289.688833 71.142791 
L 289.937515 73.559633 
L 290.061856 65.932876 
L 290.186197 75.011763 
L 290.434879 72.259878 
L 290.55922 76.262421 
L 290.683561 72.78584 
L 290.807902 77.521203 
L 291.180925 71.152209 
L 291.305267 72.688739 
L 291.429608 70.326474 
L 291.67829 73.370923 
L 291.802631 71.262696 
L 291.926972 89.594895 
L 292.175654 70.275194 
L 292.424336 74.236455 
L 292.673018 69.892635 
L 293.046042 76.458101 
L 293.170383 70.764162 
L 293.294724 74.042606 
L 293.419065 67.764726 
L 293.543406 76.367711 
L 293.667747 69.359498 
L 293.792088 72.598656 
L 293.916429 71.440435 
L 294.04077 66.803159 
L 294.165111 76.942112 
L 294.289452 75.973754 
L 294.413793 72.205941 
L 294.662476 73.944796 
L 294.786817 77.909639 
L 294.911158 67.090584 
L 295.284181 73.464867 
L 295.532863 71.241958 
L 295.657204 68.729267 
L 295.781545 71.056358 
L 296.030227 78.532128 
L 296.27891 69.939247 
L 296.403251 74.528463 
L 296.527592 66.702359 
L 297.149297 74.43098 
L 297.273638 73.36693 
L 297.397979 66.799025 
L 297.52232 76.652656 
L 298.144026 76.266186 
L 298.268367 69.119091 
L 298.517049 73.753539 
L 298.890072 71.91799 
L 299.138754 59.458779 
L 299.387436 73.849034 
L 299.636119 68.44117 
L 299.76046 70.371746 
L 299.884801 75.830909 
L 300.009142 74.138636 
L 300.382165 73.657388 
L 300.630847 71.921526 
L 300.755188 72.116399 
L 300.879529 71.245335 
L 301.128211 71.922132 
L 301.252552 71.490209 
L 301.376894 75.10819 
L 301.501235 73.515519 
L 301.625576 68.445743 
L 301.874258 78.872177 
L 301.998599 69.989339 
L 302.371622 70.951647 
L 302.495963 71.820842 
L 302.868986 71.723121 
L 303.117669 68.248536 
L 303.490692 75.494129 
L 303.615033 110.357899 
L 303.739374 75.348826 
L 303.863715 79.465196 
L 303.988056 71.14768 
L 304.236738 71.433598 
L 304.361079 72.012937 
L 304.48542 74.23721 
L 304.609761 69.313223 
L 304.734103 74.528132 
L 304.982785 72.692536 
L 305.107126 73.94607 
L 305.355808 80.994386 
L 305.480149 61.298806 
L 305.728831 72.158862 
L 305.853172 65.059736 
L 305.977513 72.886652 
L 306.101854 72.983758 
L 306.226195 72.304747 
L 306.350537 70.570125 
L 306.599219 69.117477 
L 306.972242 64.528818 
L 307.096583 69.994686 
L 307.220924 66.315415 
L 307.469606 67.280982 
L 307.593947 72.063416 
L 307.842629 68.057329 
L 308.091312 73.130451 
L 308.713017 77.519474 
L 308.961699 75.689306 
L 309.334722 65.355891 
L 309.459063 72.690798 
L 309.832087 71.92633 
L 309.956428 70.757753 
L 310.329451 72.501568 
L 310.453792 78.194229 
L 310.826815 69.938819 
L 311.199838 73.754424 
L 311.448521 72.20889 
L 311.821544 75.114498 
L 312.194567 70.46998 
L 312.318908 70.565009 
L 312.56759 78.486111 
L 312.691931 70.278315 
L 312.940613 70.373547 
L 313.189296 72.307593 
L 313.313637 74.187706 
L 313.437978 68.92608 
L 314.184024 70.760471 
L 314.681389 74.432534 
L 314.80573 78.099968 
L 315.178753 72.979515 
L 315.427435 71.820752 
L 315.676117 80.317624 
L 315.800458 61.395661 
L 316.422164 69.991561 
L 317.043869 72.017493 
L 317.416892 93.760919 
L 317.665574 66.703232 
L 317.789915 70.951827 
L 317.914256 70.950948 
L 318.28728 74.6265 
L 318.784644 74.718173 
L 319.406349 64.206163 
L 319.903714 74.623927 
L 320.028055 69.604332 
L 320.276737 72.399327 
L 320.525419 68.544252 
L 320.64976 70.199925 
L 321.147124 74.626123 
L 321.271465 74.04453 
L 321.893171 73.999131 
L 322.390535 67.480726 
L 322.514876 71.923412 
L 322.887899 72.310171 
L 323.260923 75.690807 
L 323.633946 70.182488 
L 325.001698 74.155708 
L 325.25038 67.094758 
L 325.623403 78.20047 
L 326.120767 65.638513 
L 326.245108 67.675106 
L 326.493791 68.35729 
L 326.866814 72.304993 
L 327.115496 77.615982 
L 327.239837 76.846505 
L 327.364178 79.451941 
L 327.985883 117.127032 
L 328.234566 80.512157 
L 328.607589 70.75782 
L 329.353635 72.309902 
L 330.099682 71.723413 
L 330.224023 72.788129 
L 330.348364 88.436188 
L 330.970069 186.022881 
L 331.218751 284.189169 
L 331.343093 72.405399 
L 331.591775 295.488 
L 331.716116 79.357275 
L 331.840457 71.14759 
L 332.089139 289.162392 
L 332.337821 294.329202 
L 332.710844 292.783784 
L 332.959526 294.329203 
L 333.208209 73.659171 
L 333.954255 73.270869 
L 334.327278 72.504546 
L 334.451619 69.119978 
L 334.824643 75.012835 
L 335.073325 70.274493 
L 335.322007 68.732637 
L 335.446348 290.659377 
L 335.69503 178.00628 
L 335.943712 68.352127 
L 336.441077 69.458976 
L 336.565418 67.959749 
L 336.8141 77.039607 
L 336.938441 67.572126 
L 337.311464 74.235809 
L 337.435805 74.916705 
L 337.560146 70.08282 
L 337.684487 73.368938 
L 337.933169 72.694879 
L 338.057511 295.101732 
L 338.306193 77.521159 
L 338.554875 293.942727 
L 339.052239 71.631874 
L 339.300921 72.64672 
L 339.425262 183.993929 
L 339.673945 66.041058 
L 339.922627 75.252 
L 340.171309 69.021449 
L 340.29565 294.329201 
L 340.419991 67.089965 
L 340.544332 74.144371 
L 340.793014 76.940993 
L 341.041696 75.68818 
L 341.290378 67.475208 
L 341.539061 286.216963 
L 341.663402 283.319756 
L 341.787743 173.658603 
L 342.160766 211.758425 
L 342.409448 53.568 
L 342.65813 149.324337 
L 342.782471 70.517711 
L 342.906812 78.631876 
L 343.031154 73.46754 
L 343.279836 80.125987 
L 343.404177 66.026958 
L 343.528518 73.850982 
L 343.652859 58.014113 
L 344.025882 70.233547 
L 344.274564 67.910787 
L 344.647587 60.909264 
L 344.771929 71.342978 
L 344.89627 181.385831 
L 345.020611 66.025828 
L 345.269293 295.101731 
L 345.642316 292.880728 
L 345.766657 69.604614 
L 347.010068 77.614844 
L 347.25875 65.928055 
L 347.383091 119.725169 
L 347.507432 70.182013 
L 348.004796 70.856806 
L 349.248207 73.560324 
L 349.869913 72.694355 
L 351.113323 69.891613 
L 352.356734 78.777749 
L 352.854098 73.559009 
L 352.978439 70.081954 
L 355.092238 75.204033 
L 355.962625 74.527287 
L 357.330377 71.149573 
L 357.7034 71.723638 
L 358.698129 71.048244 
L 359.071152 75.878789 
L 361.309291 61.592446 
L 362.30402 73.174027 
L 362.925725 65.637659 
L 363.671772 68.537283 
L 364.293477 72.887971 
L 365.039524 65.560663 
L 365.661229 71.723099 
L 366.034252 67.860318 
L 366.407276 73.661153 
L 367.899368 71.631148 
L 368.769756 75.300142 
L 369.391461 92.197068 
L 369.640143 75.107592 
L 369.888826 70.475259 
L 370.137508 70.667473 
L 370.759213 68.541426 
L 370.883554 70.472073 
L 371.007895 63.135929 
L 374.738128 74.536762 
L 375.484174 73.756412 
L 375.981538 61.875053 
L 376.354561 74.330452 
L 376.851926 68.441069 
L 377.100608 74.816964 
L 377.224949 72.012308 
L 377.846654 74.432312 
L 377.970995 71.433328 
L 378.841383 72.693953 
L 378.965724 69.601824 
L 380.084794 72.592365 
L 381.452546 75.300783 
L 384.063708 69.503003 
L 384.188049 70.61656 
L 384.436731 75.154074 
L 384.561072 65.835238 
L 384.685413 71.529544 
L 385.058437 73.901334 
L 385.680142 72.405749 
L 385.928824 72.017726 
L 386.053165 74.7207 
L 386.426189 65.64186 
L 386.55053 70.666145 
L 386.799212 71.826547 
L 387.296576 72.495656 
L 387.545258 72.641688 
L 388.166964 71.72384 
L 388.291305 73.0779 
L 388.539987 67.378886 
L 388.664328 75.83231 
L 388.788669 64.484589 
L 388.91301 70.667093 
L 389.286033 75.490726 
L 389.659056 76.457793 
L 389.907739 70.468299 
L 390.280762 76.174965 
L 390.529444 69.791322 
L 391.026808 75.107127 
L 391.151149 67.863554 
L 391.648514 77.52499 
L 392.270219 70.858005 
L 392.891924 70.6654 
L 397.865567 67.669296 
L 398.487273 69.313783 
L 398.487273 69.313783 
" style="fill:none;stroke:#0000ff;stroke-linecap:square;stroke-width:1.5;"/>
   </g>
   <g id="patch_3">
    <path d="M 57.6 307.584 
L 57.6 41.472 
" style="fill:none;stroke:#000000;stroke-linecap:square;stroke-linejoin:miter;stroke-width:0.8;"/>
   </g>
   <g id="patch_4">
    <path d="M 414.72 307.584 
L 414.72 41.472 
" style="fill:none;stroke:#000000;stroke-linecap:square;stroke-linejoin:miter;stroke-width:0.8;"/>
   </g>
   <g id="patch_5">
    <path d="M 57.6 307.584 
L 414.72 307.584 
" style="fill:none;stroke:#000000;stroke-linecap:square;stroke-linejoin:miter;stroke-width:0.8;"/>
   </g>
   <g id="patch_6">
    <path d="M 57.6 41.472 
L 414.72 41.472 
" style="fill:none;stroke:#000000;stroke-linecap:square;stroke-linejoin:miter;stroke-width:0.8;"/>
   </g>
   <g id="text_18">
    <!-- temperature-&gt;Throughput -->
    <g transform="translate(156.40875 35.472)scale(0.12 -0.12)">
     <defs>
      <path d="M 4.890625 31.390625 
L 31.203125 31.390625 
L 31.203125 23.390625 
L 4.890625 23.390625 
z
" id="DejaVuSans-45"/>
      <path d="M 10.59375 49.21875 
L 10.59375 58.109375 
L 73.1875 35.40625 
L 73.1875 27.296875 
L 10.59375 4.59375 
L 10.59375 13.484375 
L 60.890625 31.296875 
z
" id="DejaVuSans-62"/>
     </defs>
     <use xlink:href="#DejaVuSans-116"/>
     <use x="39.208984" xlink:href="#DejaVuSans-101"/>
     <use x="100.732422" xlink:href="#DejaVuSans-109"/>
     <use x="198.144531" xlink:href="#DejaVuSans-112"/>
     <use x="261.621094" xlink:href="#DejaVuSans-101"/>
     <use x="323.144531" xlink:href="#DejaVuSans-114"/>
     <use x="364.257812" xlink:href="#DejaVuSans-97"/>
     <use x="425.537109" xlink:href="#DejaVuSans-116"/>
     <use x="464.746094" xlink:href="#DejaVuSans-117"/>
     <use x="528.125" xlink:href="#DejaVuSans-114"/>
     <use x="566.988281" xlink:href="#DejaVuSans-101"/>
     <use x="628.511719" xlink:href="#DejaVuSans-45"/>
     <use x="664.595703" xlink:href="#DejaVuSans-62"/>
     <use x="748.384766" xlink:href="#DejaVuSans-84"/>
     <use x="809.46875" xlink:href="#DejaVuSans-104"/>
     <use x="872.847656" xlink:href="#DejaVuSans-114"/>
     <use x="911.710938" xlink:href="#DejaVuSans-111"/>
     <use x="972.892578" xlink:href="#DejaVuSans-117"/>
     <use x="1036.271484" xlink:href="#DejaVuSans-103"/>
     <use x="1099.748047" xlink:href="#DejaVuSans-104"/>
     <use x="1163.126953" xlink:href="#DejaVuSans-112"/>
     <use x="1226.603516" xlink:href="#DejaVuSans-117"/>
     <use x="1289.982422" xlink:href="#DejaVuSans-116"/>
    </g>
   </g>
  </g>
  <g id="legend_1">
   <g id="patch_7">
    <path d="M 333.779688 22.678125 
L 453.8 22.678125 
Q 455.8 22.678125 455.8 20.678125 
L 455.8 7 
Q 455.8 5 453.8 5 
L 333.779688 5 
Q 331.779688 5 331.779688 7 
L 331.779688 20.678125 
Q 331.779688 22.678125 333.779688 22.678125 
z
" style="fill:#ffffff;opacity:0.8;stroke:#cccccc;stroke-linejoin:miter;"/>
   </g>
   <g id="line2d_16">
    <path d="M 335.779688 13.098438 
L 355.779688 13.098438 
" style="fill:none;stroke:#0000ff;stroke-linecap:square;stroke-width:1.5;"/>
   </g>
   <g id="line2d_17"/>
   <g id="text_19">
    <!-- Throughput[Bit/s] -->
    <g transform="translate(363.779688 16.598438)scale(0.1 -0.1)">
     <use xlink:href="#DejaVuSans-84"/>
     <use x="61.083984" xlink:href="#DejaVuSans-104"/>
     <use x="124.462891" xlink:href="#DejaVuSans-114"/>
     <use x="163.326172" xlink:href="#DejaVuSans-111"/>
     <use x="224.507812" xlink:href="#DejaVuSans-117"/>
     <use x="287.886719" xlink:href="#DejaVuSans-103"/>
     <use x="351.363281" xlink:href="#DejaVuSans-104"/>
     <use x="414.742188" xlink:href="#DejaVuSans-112"/>
     <use x="478.21875" xlink:href="#DejaVuSans-117"/>
     <use x="541.597656" xlink:href="#DejaVuSans-116"/>
     <use x="580.806641" xlink:href="#DejaVuSans-91"/>
     <use x="619.820312" xlink:href="#DejaVuSans-66"/>
     <use x="688.423828" xlink:href="#DejaVuSans-105"/>
     <use x="716.207031" xlink:href="#DejaVuSans-116"/>
     <use x="755.416016" xlink:href="#DejaVuSans-47"/>
     <use x="789.107422" xlink:href="#DejaVuSans-115"/>
     <use x="841.207031" xlink:href="#DejaVuSans-93"/>
    </g>
   </g>
  </g>
 </g>
 <defs>
  <clipPath id="p4203cc18f8">
   <rect height="266.112" width="357.12" x="57.6" y="41.472"/>
  </clipPath>
 </defs>
</svg>
