<?xml version="1.0" encoding="utf-8" standalone="no"?>
<!DOCTYPE svg PUBLIC "-//W3C//DTD SVG 1.1//EN"
  "http://www.w3.org/Graphics/SVG/1.1/DTD/svg11.dtd">
<!-- Created with matplotlib (https://matplotlib.org/) -->
<svg height="2090.594375pt" version="1.1" viewBox="0 0 2061.98125 2090.594375" width="2061.98125pt" xmlns="http://www.w3.org/2000/svg" xmlns:xlink="http://www.w3.org/1999/xlink">
 <metadata>
  <rdf:RDF xmlns:cc="http://creativecommons.org/ns#" xmlns:dc="http://purl.org/dc/elements/1.1/" xmlns:rdf="http://www.w3.org/1999/02/22-rdf-syntax-ns#">
   <cc:Work>
    <dc:type rdf:resource="http://purl.org/dc/dcmitype/StillImage"/>
    <dc:date>2022-07-24T11:55:02.924838</dc:date>
    <dc:format>image/svg+xml</dc:format>
    <dc:creator>
     <cc:Agent>
      <dc:title>Matplotlib v3.3.2, https://matplotlib.org/</dc:title>
     </cc:Agent>
    </dc:creator>
   </cc:Work>
  </rdf:RDF>
 </metadata>
 <defs>
  <style type="text/css">*{stroke-linecap:butt;stroke-linejoin:round;}</style>
 </defs>
 <g id="figure_1">
  <g id="patch_1">
   <path d="M 0 2090.594375 
L 2061.98125 2090.594375 
L 2061.98125 0 
L 0 0 
z
" style="fill:#ffffff;"/>
  </g>
  <g id="axes_1">
   <g id="patch_2">
    <path d="M 43.78125 2052.76 
L 1829.38125 2052.76 
L 1829.38125 278.68 
L 43.78125 278.68 
z
" style="fill:#ffffff;"/>
   </g>
   <g id="matplotlib.axis_1">
    <g id="xtick_1">
     <g id="line2d_1">
      <defs>
       <path d="M 0 0 
L 0 3.5 
" id="m6267a28cdd" style="stroke:#000000;stroke-width:0.8;"/>
      </defs>
      <g>
       <use style="stroke:#000000;stroke-width:0.8;" x="71.835172" xlink:href="#m6267a28cdd" y="2052.76"/>
      </g>
     </g>
     <g id="text_1">
      <text style="font-family:DejaVu Sans;font-size:10px;font-stretch:normal;font-style:normal;font-weight:normal;text-anchor:middle;" transform="rotate(-0, 71.835172, 2067.358437)" x="71.835172" y="2067.358437">1005.0</text>
     </g>
    </g>
    <g id="xtick_2">
     <g id="line2d_2">
      <g>
       <use style="stroke:#000000;stroke-width:0.8;" x="285.987247" xlink:href="#m6267a28cdd" y="2052.76"/>
      </g>
     </g>
     <g id="text_2">
      <text style="font-family:DejaVu Sans;font-size:10px;font-stretch:normal;font-style:normal;font-weight:normal;text-anchor:middle;" transform="rotate(-0, 285.987247, 2067.358437)" x="285.987247" y="2067.358437">1007.5</text>
     </g>
    </g>
    <g id="xtick_3">
     <g id="line2d_3">
      <g>
       <use style="stroke:#000000;stroke-width:0.8;" x="500.139321" xlink:href="#m6267a28cdd" y="2052.76"/>
      </g>
     </g>
     <g id="text_3">
      <text style="font-family:DejaVu Sans;font-size:10px;font-stretch:normal;font-style:normal;font-weight:normal;text-anchor:middle;" transform="rotate(-0, 500.139321, 2067.358437)" x="500.139321" y="2067.358437">1010.0</text>
     </g>
    </g>
    <g id="xtick_4">
     <g id="line2d_4">
      <g>
       <use style="stroke:#000000;stroke-width:0.8;" x="714.291396" xlink:href="#m6267a28cdd" y="2052.76"/>
      </g>
     </g>
     <g id="text_4">
      <text style="font-family:DejaVu Sans;font-size:10px;font-stretch:normal;font-style:normal;font-weight:normal;text-anchor:middle;" transform="rotate(-0, 714.291396, 2067.358437)" x="714.291396" y="2067.358437">1012.5</text>
     </g>
    </g>
    <g id="xtick_5">
     <g id="line2d_5">
      <g>
       <use style="stroke:#000000;stroke-width:0.8;" x="928.443471" xlink:href="#m6267a28cdd" y="2052.76"/>
      </g>
     </g>
     <g id="text_5">
      <text style="font-family:DejaVu Sans;font-size:10px;font-stretch:normal;font-style:normal;font-weight:normal;text-anchor:middle;" transform="rotate(-0, 928.443471, 2067.358437)" x="928.443471" y="2067.358437">1015.0</text>
     </g>
    </g>
    <g id="xtick_6">
     <g id="line2d_6">
      <g>
       <use style="stroke:#000000;stroke-width:0.8;" x="1142.595546" xlink:href="#m6267a28cdd" y="2052.76"/>
      </g>
     </g>
     <g id="text_6">
      <text style="font-family:DejaVu Sans;font-size:10px;font-stretch:normal;font-style:normal;font-weight:normal;text-anchor:middle;" transform="rotate(-0, 1142.595546, 2067.358437)" x="1142.595546" y="2067.358437">1017.5</text>
     </g>
    </g>
    <g id="xtick_7">
     <g id="line2d_7">
      <g>
       <use style="stroke:#000000;stroke-width:0.8;" x="1356.747621" xlink:href="#m6267a28cdd" y="2052.76"/>
      </g>
     </g>
     <g id="text_7">
      <text style="font-family:DejaVu Sans;font-size:10px;font-stretch:normal;font-style:normal;font-weight:normal;text-anchor:middle;" transform="rotate(-0, 1356.747621, 2067.358437)" x="1356.747621" y="2067.358437">1020.0</text>
     </g>
    </g>
    <g id="xtick_8">
     <g id="line2d_8">
      <g>
       <use style="stroke:#000000;stroke-width:0.8;" x="1570.899696" xlink:href="#m6267a28cdd" y="2052.76"/>
      </g>
     </g>
     <g id="text_8">
      <text style="font-family:DejaVu Sans;font-size:10px;font-stretch:normal;font-style:normal;font-weight:normal;text-anchor:middle;" transform="rotate(-0, 1570.899696, 2067.358437)" x="1570.899696" y="2067.358437">1022.5</text>
     </g>
    </g>
    <g id="xtick_9">
     <g id="line2d_9">
      <g>
       <use style="stroke:#000000;stroke-width:0.8;" x="1785.051771" xlink:href="#m6267a28cdd" y="2052.76"/>
      </g>
     </g>
     <g id="text_9">
      <text style="font-family:DejaVu Sans;font-size:10px;font-stretch:normal;font-style:normal;font-weight:normal;text-anchor:middle;" transform="rotate(-0, 1785.051771, 2067.358437)" x="1785.051771" y="2067.358437">1025.0</text>
     </g>
    </g>
    <g id="text_10">
     <text style="font-family:DejaVu Sans;font-size:10px;font-stretch:normal;font-style:normal;font-weight:normal;text-anchor:middle;" transform="rotate(-0, 936.58125, 2081.036562)" x="936.58125" y="2081.036562">air_pressure from Foreca</text>
    </g>
   </g>
   <g id="matplotlib.axis_2">
    <g id="ytick_1">
     <g id="line2d_10">
      <defs>
       <path d="M 0 0 
L -3.5 0 
" id="m85624b5cc0" style="stroke:#000000;stroke-width:0.8;"/>
      </defs>
      <g>
       <use style="stroke:#000000;stroke-width:0.8;" x="43.78125" xlink:href="#m85624b5cc0" y="1861.192875"/>
      </g>
     </g>
     <g id="text_11">
      <text style="font-family:DejaVu Sans;font-size:10px;font-stretch:normal;font-style:normal;font-weight:normal;text-anchor:end;" transform="rotate(-0, 36.78125, 1864.992093)" x="36.78125" y="1864.992093">0.2</text>
     </g>
    </g>
    <g id="ytick_2">
     <g id="line2d_11">
      <g>
       <use style="stroke:#000000;stroke-width:0.8;" x="43.78125" xlink:href="#m85624b5cc0" y="1625.205357"/>
      </g>
     </g>
     <g id="text_12">
      <text style="font-family:DejaVu Sans;font-size:10px;font-stretch:normal;font-style:normal;font-weight:normal;text-anchor:end;" transform="rotate(-0, 36.78125, 1629.004575)" x="36.78125" y="1629.004575">0.4</text>
     </g>
    </g>
    <g id="ytick_3">
     <g id="line2d_12">
      <g>
       <use style="stroke:#000000;stroke-width:0.8;" x="43.78125" xlink:href="#m85624b5cc0" y="1389.217838"/>
      </g>
     </g>
     <g id="text_13">
      <text style="font-family:DejaVu Sans;font-size:10px;font-stretch:normal;font-style:normal;font-weight:normal;text-anchor:end;" transform="rotate(-0, 36.78125, 1393.017057)" x="36.78125" y="1393.017057">0.6</text>
     </g>
    </g>
    <g id="ytick_4">
     <g id="line2d_13">
      <g>
       <use style="stroke:#000000;stroke-width:0.8;" x="43.78125" xlink:href="#m85624b5cc0" y="1153.23032"/>
      </g>
     </g>
     <g id="text_14">
      <text style="font-family:DejaVu Sans;font-size:10px;font-stretch:normal;font-style:normal;font-weight:normal;text-anchor:end;" transform="rotate(-0, 36.78125, 1157.029539)" x="36.78125" y="1157.029539">0.8</text>
     </g>
    </g>
    <g id="ytick_5">
     <g id="line2d_14">
      <g>
       <use style="stroke:#000000;stroke-width:0.8;" x="43.78125" xlink:href="#m85624b5cc0" y="917.242802"/>
      </g>
     </g>
     <g id="text_15">
      <text style="font-family:DejaVu Sans;font-size:10px;font-stretch:normal;font-style:normal;font-weight:normal;text-anchor:end;" transform="rotate(-0, 36.78125, 921.042021)" x="36.78125" y="921.042021">1.0</text>
     </g>
    </g>
    <g id="ytick_6">
     <g id="line2d_15">
      <g>
       <use style="stroke:#000000;stroke-width:0.8;" x="43.78125" xlink:href="#m85624b5cc0" y="681.255284"/>
      </g>
     </g>
     <g id="text_16">
      <text style="font-family:DejaVu Sans;font-size:10px;font-stretch:normal;font-style:normal;font-weight:normal;text-anchor:end;" transform="rotate(-0, 36.78125, 685.054503)" x="36.78125" y="685.054503">1.2</text>
     </g>
    </g>
    <g id="ytick_7">
     <g id="line2d_16">
      <g>
       <use style="stroke:#000000;stroke-width:0.8;" x="43.78125" xlink:href="#m85624b5cc0" y="445.267766"/>
      </g>
     </g>
     <g id="text_17">
      <text style="font-family:DejaVu Sans;font-size:10px;font-stretch:normal;font-style:normal;font-weight:normal;text-anchor:end;" transform="rotate(-0, 36.78125, 449.066985)" x="36.78125" y="449.066985">1.4</text>
     </g>
    </g>
    <g id="text_18">
     <text style="font-family:DejaVu Sans;font-size:10px;font-stretch:normal;font-style:normal;font-weight:normal;text-anchor:middle;" transform="rotate(-90, 14.798437, 1165.72)" x="14.798437" y="1165.72">Throughput[Bit/s]</text>
    </g>
    <g id="text_19">
     <text style="font-family:DejaVu Sans;font-size:10px;font-stretch:normal;font-style:normal;font-weight:normal;text-anchor:start;" transform="rotate(-0, 43.78125, 275.68)" x="43.78125" y="275.68">1e7</text>
    </g>
   </g>
   <g id="line2d_17">
    <path clip-path="url(#p6d50313b80)" d="M 124.944886 526.415552 
L 125.801495 489.842961 
L 126.658103 494.60982 
L 128.37132 554.075615 
L 129.227928 504.197226 
L 130.084536 586.247584 
L 130.941144 516.50574 
L 131.797753 504.209161 
L 132.654361 506.252636 
L 133.510969 490.200624 
L 134.367578 558.221995 
L 135.224186 467.380342 
L 136.080794 588.621374 
L 136.937403 555.228482 
L 137.794011 720.846169 
L 138.650619 493.246127 
L 139.507227 508.313287 
L 140.363836 482.319516 
L 141.220444 515.140468 
L 142.077052 1253.262263 
L 142.933661 487.122274 
L 143.790269 506.279521 
L 144.646877 891.695689 
L 145.503486 501.498757 
L 146.360094 467.314176 
L 147.216702 474.814885 
L 148.07331 491.557274 
L 148.929919 511.736057 
L 149.786527 494.278821 
L 150.643135 480.270628 
L 151.499744 511.738291 
L 152.356352 501.481684 
L 153.21296 464.588974 
L 154.069569 518.182299 
L 154.926177 481.880669 
L 155.782785 495.302727 
L 156.639393 493.229767 
L 157.496002 520.600005 
L 159.209218 532.577795 
L 160.065827 463.851045 
L 160.922435 473.457633 
L 161.779043 477.52539 
L 162.635652 477.518587 
L 163.49226 526.758837 
L 164.348868 479.593541 
L 165.205476 500.762383 
L 166.062085 433.108965 
L 166.918693 467.266911 
L 167.775301 487.800833 
L 168.63191 482.308212 
L 169.488518 507.969468 
L 171.201735 500.109968 
L 172.058343 487.098124 
L 172.914951 513.083509 
L 173.771559 492.923496 
L 175.484776 502.149914 
L 176.341384 499.39351 
L 177.197993 479.633007 
L 178.054601 479.258534 
L 179.767818 490.503057 
L 180.624426 490.871726 
L 182.337642 518.905506 
L 184.050859 457.749942 
L 184.907467 499.762472 
L 187.477292 478.896395 
L 189.190509 470.372717 
L 190.903725 498.750743 
L 191.760334 479.583835 
L 193.47355 510.368313 
L 194.330159 456.675174 
L 195.186767 532.876151 
L 196.043375 430.392711 
L 197.756592 484.397185 
L 198.6132 491.217614 
L 199.469808 513.065451 
L 200.326417 540.407725 
L 202.896242 461.132654 
L 203.75285 523.336082 
L 204.609458 521.983639 
L 205.466067 471.371387 
L 206.322675 507.617187 
L 207.179283 500.783775 
L 208.035891 525.387663 
L 208.8925 1052.964458 
L 210.605716 547.926149 
L 212.318933 1138.374172 
L 214.888758 471.369761 
L 215.745366 1372.091579 
L 217.458583 558.857223 
L 218.315191 1153.773083 
L 220.028408 1886.012696 
L 220.885016 502.838087 
L 221.741624 1174.938535 
L 223.454841 1849.109852 
L 224.311449 1151.714798 
L 225.168057 1002.382432 
L 226.024666 911.480504 
L 226.881274 783.701289 
L 227.737882 632.999343 
L 228.594491 613.521738 
L 229.451099 476.873048 
L 230.307707 359.32 
L 231.164315 474.453645 
L 232.020924 487.516515 
L 232.877532 502.806679 
L 234.590749 519.899108 
L 236.303965 498.050265 
L 237.160574 421.512665 
L 238.017182 487.117864 
L 238.87379 466.32311 
L 239.730398 578.756317 
L 240.587007 634.729036 
L 241.443615 480.946934 
L 242.300223 568.827333 
L 243.156832 482.712284 
L 244.01344 606.362439 
L 244.870048 534.285212 
L 245.726657 676.454973 
L 246.583265 679.862235 
L 247.439873 519.897531 
L 248.296481 611.155583 
L 249.15309 462.485714 
L 250.009698 502.827453 
L 250.866306 504.873918 
L 251.722915 557.49077 
L 252.579523 500.068285 
L 253.436131 506.240923 
L 254.29274 540.448199 
L 255.149348 648.400046 
L 256.862564 566.390187 
L 257.719173 546.573161 
L 258.575781 588.328475 
L 259.432389 640.874143 
L 261.145606 540.430139 
L 262.002214 469.51943 
L 262.858823 1113.779151 
L 264.572039 677.420372 
L 265.428647 497.021763 
L 266.285256 482.312734 
L 267.998472 530.166366 
L 269.711689 526.067752 
L 270.568297 523.316639 
L 271.424906 518.521737 
L 273.138122 502.123119 
L 273.99473 508.278626 
L 274.851339 493.930326 
L 275.707947 496.671198 
L 276.564555 547.984242 
L 277.421164 506.903584 
L 278.277772 533.576282 
L 279.13438 509.681324 
L 279.990989 558.859838 
L 280.847597 516.851466 
L 281.704205 528.784479 
L 283.417422 511.407867 
L 284.27403 533.588477 
L 285.130638 511.004156 
L 286.843855 528.832676 
L 287.700463 594.408781 
L 288.557072 582.795263 
L 289.41368 517.881764 
L 291.126896 557.504367 
L 291.983505 518.53473 
L 292.840113 529.466033 
L 293.696721 501.451047 
L 294.55333 532.20214 
L 295.409938 517.175983 
L 296.266546 504.867071 
L 297.979763 526.783669 
L 298.836371 576.628124 
L 299.692979 470.697886 
L 300.549588 513.802839 
L 302.262804 523.31704 
L 303.119413 463.161762 
L 303.976021 540.41224 
L 304.832629 532.186803 
L 305.689238 516.161384 
L 306.545846 529.463223 
L 307.402454 478.22174 
L 309.115671 553.054851 
L 309.972279 501.444026 
L 310.828887 477.874526 
L 312.542104 641.565911 
L 313.398712 495.303354 
L 315.111929 517.863904 
L 315.968537 531.217107 
L 317.681754 526.74486 
L 318.538362 500.774675 
L 319.39497 560.261513 
L 321.964795 495.30702 
L 322.821404 783.730772 
L 323.678012 535.637861 
L 324.53462 465.238084 
L 326.247837 780.323119 
L 327.104445 518.541153 
L 327.961053 494.618972 
L 329.67427 681.250423 
L 330.530878 478.216235 
L 331.387487 518.556954 
L 333.100703 1129.499105 
L 333.957311 525.419726 
L 334.81392 487.813063 
L 335.670528 758.411958 
L 336.527136 474.792119 
L 337.383745 482.339216 
L 338.240353 647.767622 
L 339.096961 485.03536 
L 339.95357 474.822943 
L 340.810178 817.905143 
L 342.523394 466.591825 
L 343.380003 567.096678 
L 345.949828 847.239189 
L 346.806436 512.402655 
L 347.663044 547.946598 
L 348.519652 745.799 
L 350.232869 477.559401 
L 351.946086 504.229122 
L 352.802694 491.254709 
L 353.659302 460.466281 
L 355.372519 493.246608 
L 356.229127 496.00725 
L 357.085735 1117.206989 
L 357.942344 500.792075 
L 358.798952 470.031922 
L 359.65556 638.513255 
L 361.368777 489.13352 
L 362.225385 520.582348 
L 363.938602 484.387928 
L 364.79521 505.540759 
L 367.365035 535.63224 
L 368.221643 490.174588 
L 369.93486 532.26583 
L 371.648077 493.270987 
L 372.504685 533.590197 
L 373.361293 624.512814 
L 374.217901 478.922771 
L 375.931118 595.07292 
L 377.644335 489.828496 
L 379.357551 503.535975 
L 380.21416 480.605369 
L 381.927376 500.784253 
L 383.640593 1006.828643 
L 384.497201 524.701759 
L 385.353809 485.735843 
L 387.067026 532.222171 
L 387.923634 485.764686 
L 388.780243 517.889028 
L 389.636851 532.225144 
L 391.350067 501.454877 
L 393.063284 555.806607 
L 393.919892 517.219231 
L 395.633109 509.640209 
L 396.489717 669.272167 
L 397.346326 607.39871 
L 399.059542 559.211919 
L 400.772759 447.818687 
L 402.485975 897.162627 
L 403.342584 487.105047 
L 405.0558 510.322817 
L 406.769017 453.665763 
L 407.625625 660.073471 
L 408.482233 531.542227 
L 409.338842 538.039088 
L 410.19545 810.426655 
L 411.052058 493.267779 
L 412.765275 458.051015 
L 413.621883 673.007904 
L 414.478492 507.585397 
L 415.3351 621.441775 
L 417.048316 510.362765 
L 417.904925 955.919911 
L 418.761533 488.471352 
L 420.47475 465.228292 
L 421.331358 532.239521 
L 423.044575 1199.243031 
L 424.757791 496.009979 
L 425.614399 643.622223 
L 426.471008 587.579456 
L 428.184224 503.493824 
L 429.897441 538.716429 
L 431.610658 611.871253 
L 433.323874 493.930903 
L 434.180482 709.938806 
L 435.037091 590.998498 
L 435.893699 808.310741 
L 436.750307 450.944119 
L 437.606916 619.6741 
L 438.463524 659.385079 
L 439.320132 951.425589 
L 440.176741 596.481939 
L 441.889957 515.845371 
L 443.603174 517.159843 
L 444.459782 474.142154 
L 445.31639 518.885509 
L 446.172999 752.295254 
L 447.029607 491.20951 
L 447.886215 487.7952 
L 448.742824 656.601757 
L 449.599432 480.298011 
L 450.45604 531.536591 
L 451.312648 502.156897 
L 452.169257 500.069403 
L 453.025865 511.058558 
L 453.882473 513.396798 
L 454.739082 517.849074 
L 455.59569 547.945359 
L 456.452298 502.838087 
L 458.165515 548.650186 
L 459.878731 652.489536 
L 460.73534 457.743549 
L 461.591948 512.407163 
L 462.448556 550.687252 
L 463.305165 512.391086 
L 465.018381 773.770087 
L 466.731598 573.894955 
L 468.444814 628.231278 
L 470.158031 494.644972 
L 471.871248 454.425684 
L 472.727856 479.630904 
L 473.584464 610.452942 
L 475.297681 545.926927 
L 476.154289 453.267362 
L 477.010897 548.622547 
L 478.724114 594.065269 
L 479.580722 447.500055 
L 480.437331 532.221232 
L 482.150547 532.261387 
L 483.007155 528.824835 
L 483.863764 573.215538 
L 484.720372 463.871134 
L 485.57698 476.174478 
L 486.433589 499.424825 
L 487.290197 804.213129 
L 488.146805 469.325229 
L 489.860022 496.657673 
L 491.573238 462.500925 
L 492.429847 642.902067 
L 493.286455 530.171224 
L 494.999672 507.965807 
L 496.712888 540.408659 
L 497.569497 469.326233 
L 498.426105 538.407265 
L 499.282713 519.930337 
L 500.139321 554.054321 
L 500.99593 515.130645 
L 501.852538 511.360751 
L 502.709146 513.77008 
L 503.565755 536.336077 
L 504.422363 461.260252 
L 505.278971 505.537894 
L 506.13558 524.34123 
L 506.992188 484.049565 
L 507.848796 519.220602 
L 508.705404 505.559976 
L 509.562013 544.557464 
L 510.418621 479.62217 
L 511.275229 479.614568 
L 512.131838 578.349678 
L 512.988446 482.660321 
L 513.845054 479.60875 
L 514.701663 513.757081 
L 515.558271 619.720664 
L 516.414879 502.187076 
L 517.271487 545.916408 
L 518.128096 546.2133 
L 518.984704 516.478802 
L 519.841312 561.341331 
L 520.697921 546.588628 
L 521.554529 527.455143 
L 522.411137 527.780316 
L 523.267746 493.602467 
L 524.124354 504.88586 
L 524.980962 522.643404 
L 525.83757 528.119961 
L 526.694179 519.917877 
L 527.550787 491.873071 
L 528.407395 478.202637 
L 529.264004 532.216537 
L 530.120612 495.005427 
L 530.97722 487.098607 
L 531.833829 496.697684 
L 532.690437 490.52314 
L 534.403653 530.875599 
L 535.260262 517.545277 
L 536.11687 515.839837 
L 536.973478 461.124439 
L 537.830087 479.248325 
L 538.686695 482.299169 
L 539.543303 585.16476 
L 540.399912 532.914162 
L 541.25652 534.264989 
L 542.113128 506.909468 
L 542.969736 493.945242 
L 543.826345 575.935733 
L 544.682953 512.736049 
L 545.539561 519.264309 
L 546.39617 511.715791 
L 547.252778 476.918303 
L 548.109386 503.50483 
L 548.965995 472.115888 
L 549.822603 496.706808 
L 550.679211 500.114759 
L 551.535819 444.076211 
L 552.392428 537.047383 
L 553.249036 499.453263 
L 554.105644 530.168716 
L 554.962253 542.4904 
L 555.818861 496.001661 
L 556.675469 541.099874 
L 557.532078 533.565337 
L 558.388686 497.400502 
L 560.101902 469.378329 
L 560.958511 512.411203 
L 562.671727 509.687356 
L 563.528336 521.272049 
L 564.384944 476.162969 
L 565.241552 810.36232 
L 566.098161 486.769421 
L 566.954769 488.477304 
L 567.811377 505.23476 
L 568.667985 508.322661 
L 569.524594 520.632638 
L 570.381202 518.874945 
L 571.23781 519.917561 
L 572.094419 497.357934 
L 572.951027 496.387085 
L 573.807635 501.456792 
L 574.664244 476.169777 
L 575.520852 524.684463 
L 576.37746 513.834662 
L 577.234068 497.034319 
L 578.090677 499.742933 
L 578.947285 528.804366 
L 579.803893 514.820501 
L 580.660502 523.675881 
L 581.51711 520.941462 
L 582.373718 529.820674 
L 583.230327 783.354461 
L 584.086935 502.854986 
L 584.943543 511.373397 
L 585.800151 629.603419 
L 586.65676 501.456175 
L 587.513368 530.859093 
L 588.369976 513.110595 
L 589.226585 480.6165 
L 590.083193 638.465405 
L 590.939801 506.230682 
L 591.79641 500.775633 
L 592.653018 550.681566 
L 593.509626 541.122706 
L 595.222843 488.448026 
L 596.079451 506.287952 
L 596.936059 517.846073 
L 597.792668 560.9667 
L 598.649276 508.312334 
L 599.505884 537.026791 
L 600.362493 491.893297 
L 601.219101 482.296424 
L 602.075709 484.722622 
L 602.932317 499.068691 
L 603.788926 507.618459 
L 604.645534 506.266795 
L 605.502142 554.806359 
L 606.358751 504.853696 
L 607.215359 508.313128 
L 608.071967 490.524898 
L 608.928575 539.0507 
L 610.641792 496.347924 
L 611.4984 513.429825 
L 612.355009 475.47341 
L 613.211617 511.703729 
L 614.068225 528.121216 
L 614.924834 521.636393 
L 615.781442 467.267563 
L 616.63805 513.751684 
L 617.494658 505.59828 
L 618.351267 487.810906 
L 619.207875 415.708139 
L 620.064483 479.922557 
L 620.921092 512.774944 
L 621.7777 487.088214 
L 622.634308 502.847364 
L 623.490917 507.044149 
L 624.347525 538.363763 
L 625.204133 509.672752 
L 626.060741 517.224295 
L 626.91735 497.334994 
L 627.773958 521.993112 
L 628.630566 714.689082 
L 629.487175 499.108218 
L 630.343783 489.181116 
L 631.200391 486.43794 
L 632.057 485.744679 
L 632.913608 464.568255 
L 633.770216 539.055123 
L 634.626824 488.470548 
L 635.483433 624.458032 
L 636.340041 503.875027 
L 637.196649 531.534243 
L 638.053258 541.775914 
L 638.909866 587.546699 
L 639.766474 502.824695 
L 640.623083 515.839521 
L 641.479691 536.98342 
L 642.336299 509.637669 
L 643.192907 487.150937 
L 644.049516 506.564111 
L 644.906124 492.572433 
L 645.762732 501.123384 
L 647.475949 521.276619 
L 648.332557 502.155816 
L 649.189166 511.70912 
L 650.045774 517.53966 
L 651.75899 489.150565 
L 652.615599 494.632793 
L 653.472207 508.303913 
L 654.328815 494.601704 
L 655.185424 509.6745 
L 656.042032 450.564356 
L 656.89864 510.008749 
L 657.755249 498.03071 
L 658.611857 498.050059 
L 659.468465 501.458547 
L 660.325073 540.405857 
L 661.181682 521.294268 
L 662.03829 511.028582 
L 662.894898 522.672846 
L 663.751507 480.295465 
L 664.608115 504.172524 
L 665.464723 511.378591 
L 666.321332 505.539551 
L 667.17794 498.730371 
L 668.034548 510.02666 
L 668.891156 519.219024 
L 669.747765 507.595252 
L 670.604373 502.845739 
L 671.460981 530.179215 
L 672.31759 499.398303 
L 673.174198 528.102702 
L 674.030806 526.747687 
L 674.887415 509.668863 
L 675.744023 506.904379 
L 676.600631 487.477295 
L 677.457239 517.869762 
L 678.313848 515.827458 
L 679.170456 521.277742 
L 680.027064 492.560665 
L 680.883673 506.942385 
L 681.740281 514.781376 
L 682.596889 560.901963 
L 683.453498 487.149965 
L 684.310106 469.323319 
L 685.166714 500.067805 
L 686.023322 493.943953 
L 686.879931 522.647892 
L 687.736539 500.087929 
L 688.593147 541.091742 
L 689.449756 511.702451 
L 690.306364 514.431929 
L 691.162972 765.238788 
L 692.019581 521.960012 
L 692.876189 505.922899 
L 693.732797 666.49726 
L 694.589405 516.505356 
L 695.446014 505.568611 
L 697.15923 516.486073 
L 698.015839 516.500772 
L 698.872447 519.21145 
L 699.729055 521.423631 
L 700.585664 477.529601 
L 701.442272 472.739649 
L 702.29888 494.631832 
L 703.155488 1972.12 
L 704.012097 534.955722 
L 704.868705 528.125452 
L 705.725313 507.63483 
L 706.581922 534.299103 
L 707.43853 711.952072 
L 708.295138 514.79091 
L 709.151747 514.432878 
L 710.008355 618.324754 
L 710.864963 684.604244 
L 711.721571 641.238426 
L 712.57818 487.467745 
L 713.434788 996.237801 
L 714.291396 514.089653 
L 715.148005 517.184608 
L 716.004613 525.723461 
L 716.861221 570.145882 
L 717.71783 481.642583 
L 718.574438 502.831709 
L 719.431046 606.750151 
L 720.287654 541.792089 
L 721.144263 490.870103 
L 722.000871 503.50984 
L 722.857479 645.67321 
L 723.714088 514.45074 
L 724.570696 528.469807 
L 725.427304 442.724499 
L 726.283913 504.90019 
L 727.140521 971.297748 
L 727.997129 496.019579 
L 728.853737 581.466717 
L 729.710346 519.658748 
L 730.566954 486.415749 
L 731.423562 511.056655 
L 732.280171 494.625422 
L 733.136779 550.670241 
L 733.993387 506.950495 
L 734.849996 488.511084 
L 735.706604 557.549391 
L 736.563212 1247.047328 
L 737.41982 534.598764 
L 738.276429 500.771004 
L 739.133037 558.177829 
L 739.989645 506.234957 
L 740.846254 534.642312 
L 741.702862 507.266095 
L 742.55947 538.340863 
L 743.416078 630.293654 
L 744.272687 513.067917 
L 745.129295 533.925929 
L 745.985903 622.118262 
L 746.842512 621.041929 
L 747.69912 531.873589 
L 748.555728 627.551328 
L 749.412337 526.748627 
L 750.268945 533.923415 
L 751.125553 548.969774 
L 751.982161 532.905013 
L 752.83877 491.907905 
L 753.695378 521.31365 
L 754.551986 501.445143 
L 755.408595 501.510085 
L 756.265203 514.462791 
L 757.121811 493.243598 
L 757.97842 501.45025 
L 758.835028 497.705325 
L 759.691636 528.805553 
L 760.548244 492.21019 
L 761.404853 508.320913 
L 762.261461 521.272994 
L 763.118069 493.280449 
L 763.974678 508.321072 
L 764.831286 534.260457 
L 765.687894 539.739501 
L 766.544503 504.538972 
L 767.401111 502.491688 
L 768.257719 515.790026 
L 769.114327 558.883681 
L 769.970936 476.155675 
L 770.827544 520.625071 
L 771.684152 511.373212 
L 772.540761 519.900212 
L 774.253977 513.778931 
L 775.110586 539.747536 
L 775.967194 502.829796 
L 776.823802 507.597001 
L 777.68041 519.902578 
L 778.537019 512.729229 
L 779.393627 475.467572 
L 780.250235 543.499455 
L 781.106844 500.124021 
L 781.963452 514.472296 
L 782.82006 509.639098 
L 783.676669 516.508324 
L 784.533277 521.28891 
L 785.389885 504.202153 
L 786.246493 515.843158 
L 787.103102 515.811771 
L 787.95971 518.548498 
L 788.816318 507.27646 
L 789.672927 512.439419 
L 790.529535 505.596829 
L 791.386143 520.626175 
L 792.242752 510.325197 
L 793.09936 470.697796 
L 793.955968 504.305048 
L 794.812576 528.799428 
L 795.669185 504.196281 
L 796.525793 499.763489 
L 797.382401 521.636498 
L 798.23901 525.39057 
L 799.095618 530.17091 
L 799.952226 519.922924 
L 800.808835 516.189991 
L 801.665443 539.028939 
L 802.522051 530.860883 
L 803.378659 532.210434 
L 804.235268 500.42973 
L 805.091876 487.124367 
L 805.948484 547.922741 
L 806.805093 525.713174 
L 807.661701 523.331991 
L 808.518309 500.797184 
L 809.374918 505.550149 
L 810.231526 500.801174 
L 811.088134 511.710446 
L 811.944742 526.410703 
L 812.801351 495.347417 
L 813.657959 507.948002 
L 814.514567 494.644823 
L 815.371176 508.33581 
L 816.227784 535.289857 
L 817.084392 509.343821 
L 817.941001 520.25397 
L 818.797609 513.789381 
L 819.654217 488.502076 
L 820.510825 529.134227 
L 821.367434 516.483069 
L 822.224042 519.23859 
L 823.08065 508.273407 
L 823.937259 505.882073 
L 824.793867 521.300019 
L 825.650475 531.535025 
L 826.507084 511.727352 
L 827.363692 515.828768 
L 828.2203 526.074508 
L 829.076908 528.824835 
L 829.933517 511.061096 
L 830.790125 519.241272 
L 831.646733 513.067351 
L 832.503342 503.489601 
L 833.35995 506.292247 
L 834.216558 520.590861 
L 835.073167 508.644253 
L 835.929775 520.0442 
L 836.786383 500.797184 
L 837.642991 519.252475 
L 838.4996 500.068125 
L 839.356208 496.677039 
L 840.212816 516.143389 
L 841.069425 515.797575 
L 841.926033 677.755542 
L 842.782641 476.843125 
L 843.63925 532.993462 
L 844.495858 521.326571 
L 845.352466 637.141899 
L 846.209074 979.142745 
L 847.065683 848.963277 
L 847.922291 839.042776 
L 848.778899 1064.277409 
L 849.635508 533.922261 
L 850.492116 513.753123 
L 851.348724 549.319714 
L 852.205333 526.055376 
L 853.061941 490.529321 
L 853.918549 554.104161 
L 854.775157 557.525227 
L 855.631766 500.098214 
L 856.488374 827.428959 
L 857.344982 523.992728 
L 858.201591 500.788883 
L 859.058199 508.981742 
L 859.914807 551.678105 
L 860.771416 499.40789 
L 861.628024 523.367557 
L 862.484632 499.388078 
L 863.34124 516.826664 
L 864.197849 527.431549 
L 865.054457 821.660244 
L 865.911065 479.638506 
L 866.767674 505.550261 
L 867.624282 507.95385 
L 868.48089 511.894888 
L 869.337499 502.84255 
L 870.194107 489.166035 
L 871.050715 575.286481 
L 871.907323 528.478281 
L 872.763932 505.217457 
L 873.62054 505.569492 
L 874.477148 497.689141 
L 875.333757 511.402199 
L 876.190365 516.492647 
L 877.046973 519.935857 
L 877.903581 500.799578 
L 878.76019 505.219155 
L 879.616798 528.813073 
L 880.473406 540.429207 
L 881.330015 506.224955 
L 882.186623 531.570094 
L 883.043231 526.393375 
L 883.89984 513.073308 
L 884.756448 540.417277 
L 885.613056 518.88987 
L 886.469664 502.152361 
L 887.326273 506.904379 
L 888.182881 493.586168 
L 889.039489 440.64157 
L 889.896098 517.856812 
L 891.609314 533.610992 
L 892.465923 489.146706 
L 893.322531 491.90646 
L 894.179139 1148.629777 
L 895.035747 472.058037 
L 895.892356 497.337874 
L 896.748964 629.621049 
L 897.605572 515.123078 
L 898.462181 508.982536 
L 899.318789 524.04291 
L 900.175397 484.015861 
L 901.032006 530.844588 
L 901.888614 534.965766 
L 902.745222 414.649846 
L 903.60183 538.417708 
L 904.458439 518.573514 
L 905.315047 487.786349 
L 907.028264 563.728735 
L 907.884872 558.17075 
L 909.598089 497.720095 
L 911.311305 519.269267 
L 912.167913 556.808731 
L 913.024522 524.038033 
L 913.88113 476.169939 
L 914.737738 485.037617 
L 915.594347 538.384352 
L 916.450955 497.016404 
L 917.307563 543.82796 
L 918.164172 619.710149 
L 919.02078 577.999284 
L 919.877388 500.784573 
L 920.733996 521.310296 
L 921.590605 471.388457 
L 922.447213 512.393622 
L 923.303821 542.820061 
L 924.16043 475.484113 
L 925.017038 496.652072 
L 925.873646 526.101529 
L 926.730255 536.305485 
L 928.443471 500.102302 
L 929.300079 478.229834 
L 931.013296 501.467642 
L 931.869904 540.07039 
L 932.726513 548.596381 
L 933.583121 912.879991 
L 934.439729 519.904155 
L 935.296338 689.399128 
L 936.152946 538.349436 
L 937.009554 491.535677 
L 938.722771 626.564402 
L 939.579379 628.91621 
L 940.435987 522.643877 
L 941.292596 594.403104 
L 943.005812 500.783455 
L 943.862421 673.327169 
L 944.719029 567.727599 
L 945.575637 529.480959 
L 946.432245 512.408518 
L 947.288854 523.334138 
L 948.145462 516.531436 
L 949.00207 531.506531 
L 949.858679 602.609926 
L 950.715287 502.834529 
L 951.571895 495.295839 
L 952.428504 605.026102 
L 953.285112 576.619119 
L 954.14172 501.84402 
L 954.998328 562.286632 
L 955.854937 510.345082 
L 956.711545 475.506329 
L 959.28137 513.095055 
L 960.994587 489.192188 
L 961.851195 519.583825 
L 963.564411 487.793591 
L 964.42102 507.614644 
L 965.277628 535.622316 
L 966.134236 492.243087 
L 966.990845 519.227072 
L 967.847453 482.661015 
L 968.704061 494.300239 
L 969.56067 547.933806 
L 970.417278 529.149833 
L 971.273886 507.266146 
L 972.130494 532.191968 
L 972.987103 497.360493 
L 973.843711 521.94426 
L 974.700319 501.45743 
L 975.556928 499.077133 
L 976.413536 519.93491 
L 977.270144 512.402021 
L 978.126753 532.221075 
L 978.983361 519.245217 
L 979.839969 518.525683 
L 980.696577 490.56973 
L 981.553186 492.238026 
L 982.409794 507.272171 
L 983.266402 508.985871 
L 984.123011 515.146333 
L 984.979619 563.646205 
L 985.836227 501.804269 
L 986.692836 515.118806 
L 987.549444 521.946623 
L 988.406052 511.04509 
L 989.26266 524.030007 
L 990.119269 532.227022 
L 990.975877 510.356068 
L 991.832485 493.939625 
L 992.689094 482.329309 
L 993.545702 494.05781 
L 994.40231 480.937858 
L 995.258919 476.158106 
L 996.115527 502.209564 
L 998.685352 529.129886 
L 999.54196 518.554413 
L 1000.398568 501.459664 
L 1002.111785 528.114783 
L 1002.968393 513.758031 
L 1004.68161 524.040236 
L 1005.538218 508.300894 
L 1006.394826 562.633198 
L 1008.108043 467.26903 
L 1010.677868 530.863696 
L 1011.534476 528.816993 
L 1012.391084 504.168223 
L 1014.104301 511.700281 
L 1015.817518 548.604433 
L 1018.387343 518.202053 
L 1020.100559 508.980631 
L 1021.813776 489.478791 
L 1023.526992 534.244046 
L 1024.383601 547.233146 
L 1025.240209 493.273713 
L 1026.096817 528.09266 
L 1027.810034 494.633594 
L 1029.52325 512.407567 
L 1030.379859 540.415353 
L 1031.236467 487.802764 
L 1032.093075 532.194315 
L 1032.949684 540.396984 
L 1033.806292 510.0012 
L 1034.6629 534.288431 
L 1035.519509 520.578091 
L 1036.376117 542.824123 
L 1037.232725 505.544729 
L 1038.089333 525.046609 
L 1038.945942 478.562447 
L 1039.80255 542.454263 
L 1040.659158 481.305272 
L 1041.515767 529.827775 
L 1042.372375 516.824461 
L 1043.228983 506.934844 
L 1044.085592 508.963479 
L 1044.9422 517.536483 
L 1045.798808 509.647512 
L 1046.655416 496.311891 
L 1047.512025 496.678159 
L 1048.368633 526.754912 
L 1049.225241 537.66648 
L 1050.08185 498.027991 
L 1050.938458 526.449112 
L 1051.795066 513.787165 
L 1052.651675 515.836383 
L 1053.508283 562.964844 
L 1054.364891 496.000852 
L 1055.221499 526.039473 
L 1056.078108 515.479774 
L 1056.934716 550.307536 
L 1057.791324 531.543479 
L 1058.647933 506.952403 
L 1059.504541 518.188228 
L 1060.361149 517.512832 
L 1061.217758 502.148957 
L 1062.074366 513.062679 
L 1062.930974 496.656713 
L 1063.787582 499.773055 
L 1064.644191 511.74162 
L 1065.500799 485.733587 
L 1066.357407 523.331518 
L 1067.214016 481.964956 
L 1068.070624 522.982148 
L 1069.783841 513.093646 
L 1070.640449 543.847997 
L 1072.353665 487.441168 
L 1074.066882 506.257886 
L 1074.92349 492.561285 
L 1076.636707 511.021286 
L 1077.493315 494.277573 
L 1079.206532 508.663555 
L 1080.06314 504.871355 
L 1080.919748 521.961114 
L 1081.776357 500.10342 
L 1082.632965 519.898004 
L 1083.489573 507.645501 
L 1084.346182 610.123284 
L 1085.20279 525.372926 
L 1086.059398 575.296912 
L 1086.916007 535.639422 
L 1087.772615 532.22771 
L 1088.629223 545.880416 
L 1089.485831 511.038416 
L 1090.34244 550.310537 
L 1091.199048 623.129266 
L 1092.055656 521.257236 
L 1093.768873 465.924219 
L 1094.625481 480.944969 
L 1095.48209 508.277538 
L 1096.338698 507.026235 
L 1097.195306 518.554887 
L 1098.051914 495.328997 
L 1098.908523 540.44851 
L 1099.765131 483.374496 
L 1100.621739 542.143346 
L 1101.478348 475.519464 
L 1102.334956 514.819101 
L 1103.191564 494.688718 
L 1104.048173 514.783438 
L 1104.904781 490.88324 
L 1105.761389 451.920805 
L 1106.617997 485.414303 
L 1107.474606 494.633114 
L 1108.331214 505.207813 
L 1109.187822 522.660251 
L 1110.044431 511.718315 
L 1110.901039 529.130098 
L 1111.757647 525.728587 
L 1112.614256 482.343593 
L 1113.470864 509.34024 
L 1114.327472 526.752241 
L 1115.18408 533.926816 
L 1116.040689 518.541806 
L 1116.897297 542.133031 
L 1117.753905 504.170135 
L 1118.610514 501.130893 
L 1119.467122 517.865656 
L 1120.32373 561.630881 
L 1121.180339 780.298288 
L 1122.036947 521.941731 
L 1122.893555 498.386377 
L 1123.750163 470.687662 
L 1125.46338 508.276267 
L 1127.176597 522.651592 
L 1128.033205 482.324729 
L 1129.746422 514.490803 
L 1130.60303 528.121373 
L 1132.316246 503.537409 
L 1133.172855 678.441922 
L 1134.029463 507.617664 
L 1134.886071 535.625369 
L 1136.599288 488.482934 
L 1137.455896 502.854029 
L 1139.169113 508.95792 
L 1140.025721 524.356366 
L 1142.595546 489.188673 
L 1143.452154 519.234488 
L 1144.308763 501.449133 
L 1145.165371 502.128223 
L 1146.878587 474.796337 
L 1147.735196 512.427851 
L 1150.305021 533.584881 
L 1152.874846 504.539453 
L 1155.44467 504.540205 
L 1156.301279 531.536904 
L 1158.014495 491.915609 
L 1159.727712 549.98515 
L 1160.58432 514.46416 
L 1162.297537 471.36781 
L 1163.154145 696.928729 
L 1164.867362 508.982868 
L 1165.72397 500.109009 
L 1166.580578 493.951029 
L 1167.437187 493.926554 
L 1168.293795 516.50093 
L 1169.150403 488.484382 
L 1170.007012 475.48541 
L 1171.720228 483.000005 
L 1172.576836 508.278651 
L 1173.433445 541.798697 
L 1174.290053 545.88 
L 1175.146661 538.368297 
L 1176.00327 494.994511 
L 1176.859878 500.456324 
L 1177.716486 494.658593 
L 1178.573095 474.79293 
L 1179.429703 506.274908 
L 1180.286311 468.644463 
L 1181.142919 460.436657 
L 1181.999528 482.317255 
L 1183.712744 533.571187 
L 1185.425961 503.494064 
L 1186.282569 527.432491 
L 1187.139178 501.435888 
L 1187.995786 510.011584 
L 1188.852394 504.233373 
L 1189.709002 570.13995 
L 1190.565611 510.019338 
L 1191.422219 488.49902 
L 1193.135436 512.419452 
L 1193.992044 542.117263 
L 1194.848652 508.279763 
L 1195.705261 494.982596 
L 1196.561869 464.546038 
L 1197.418477 533.245835 
L 1198.275085 485.050675 
L 1199.131694 506.256388 
L 1199.988302 494.642337 
L 1201.701519 530.523788 
L 1202.558127 810.742073 
L 1203.414735 502.810027 
L 1204.271344 490.535189 
L 1205.127952 501.482801 
L 1205.98456 485.060992 
L 1206.841168 517.519117 
L 1207.697777 566.362633 
L 1208.554385 539.05231 
L 1209.410993 526.75601 
L 1210.267602 486.431479 
L 1211.12421 511.743205 
L 1211.980818 511.358644 
L 1212.837427 482.66766 
L 1213.694035 519.903051 
L 1215.407251 462.848671 
L 1216.26386 506.245269 
L 1217.977076 527.445833 
L 1218.833685 534.268896 
L 1219.690293 509.637828 
L 1220.546901 511.721486 
L 1221.40351 481.63517 
L 1222.260118 519.23149 
L 1223.116726 475.836931 
L 1223.973334 501.801971 
L 1225.686551 506.937214 
L 1226.543159 525.401494 
L 1227.399768 518.56862 
L 1228.256376 524.723967 
L 1229.969593 494.284828 
L 1230.826201 532.229056 
L 1232.539417 495.998527 
L 1234.252634 504.533455 
L 1235.965851 564.34321 
L 1236.822459 542.495686 
L 1237.679067 530.192064 
L 1238.535676 495.279981 
L 1239.392284 542.841637 
L 1240.248892 483.009366 
L 1241.1055 529.485797 
L 1241.962109 506.937249 
L 1242.818717 503.490239 
L 1244.531934 529.504468 
L 1245.388542 495.295839 
L 1246.24515 529.5311 
L 1247.101759 694.184675 
L 1248.814975 512.421303 
L 1249.671583 503.491514 
L 1250.528192 537.033811 
L 1251.3848 496.665705 
L 1253.098017 509.655425 
L 1253.954625 703.724101 
L 1254.811233 490.515268 
L 1255.667842 491.569832 
L 1256.52445 484.020214 
L 1257.381058 529.476235 
L 1258.237666 515.833196 
L 1259.094275 482.317416 
L 1259.950883 487.091523 
L 1260.807491 530.840515 
L 1261.6641 670.250254 
L 1262.520708 504.169179 
L 1263.377316 519.573192 
L 1265.090533 545.224697 
L 1265.947141 542.454022 
L 1266.803749 487.825294 
L 1267.660358 504.898597 
L 1268.516966 531.213996 
L 1269.373574 506.965442 
L 1270.230183 531.914547 
L 1271.086791 530.940713 
L 1271.943399 540.070575 
L 1273.656616 505.598373 
L 1274.513224 520.59496 
L 1275.369832 517.178316 
L 1276.226441 508.644371 
L 1277.083049 566.392023 
L 1277.939657 528.792528 
L 1278.796266 499.412683 
L 1279.652874 535.643794 
L 1280.509482 500.099414 
L 1281.36609 542.474699 
L 1282.222699 513.048659 
L 1283.079307 512.379676 
L 1284.792524 516.845736 
L 1285.649132 562.968252 
L 1286.50574 508.962049 
L 1287.362349 568.41146 
L 1288.218957 532.205113 
L 1289.075565 504.18718 
L 1289.932173 634.718709 
L 1290.788782 474.145562 
L 1291.64539 575.259272 
L 1293.358607 516.85213 
L 1294.215215 506.922508 
L 1295.071823 549.989018 
L 1295.928432 567.045881 
L 1296.78504 515.803928 
L 1297.641648 553.393919 
L 1298.498256 496.656638 
L 1299.354865 505.540441 
L 1300.211473 493.603521 
L 1301.068081 518.586342 
L 1301.92469 496.689997 
L 1302.781298 505.55785 
L 1303.637906 495.313459 
L 1304.494515 526.069738 
L 1305.351123 522.651906 
L 1306.207731 511.683594 
L 1307.064339 480.949256 
L 1307.920948 485.404133 
L 1308.777556 490.500326 
L 1309.634164 482.644098 
L 1310.490773 499.38648 
L 1311.347381 500.126576 
L 1312.203989 493.939945 
L 1313.060598 527.097696 
L 1313.917206 491.209102 
L 1314.773814 506.265363 
L 1315.630422 508.991906 
L 1316.487031 496.325794 
L 1318.200247 511.367398 
L 1319.056856 513.770805 
L 1319.913464 537.318658 
L 1320.770072 516.491605 
L 1321.626681 508.644055 
L 1322.483289 507.593662 
L 1323.339897 512.057111 
L 1324.196505 523.341265 
L 1325.053114 516.474217 
L 1325.909722 526.747813 
L 1326.76633 502.133965 
L 1327.622939 509.648305 
L 1328.479547 513.436891 
L 1329.336155 506.56602 
L 1330.192764 503.149004 
L 1331.049372 497.430497 
L 1331.90598 534.951036 
L 1332.762588 501.485673 
L 1333.619197 508.977772 
L 1334.475805 523.33923 
L 1335.332413 516.489076 
L 1336.189022 516.499099 
L 1337.04563 511.376218 
L 1337.902238 469.346417 
L 1338.758847 492.255999 
L 1339.615455 519.246322 
L 1340.472063 517.860657 
L 1341.328671 533.904693 
L 1343.041888 533.243672 
L 1343.898496 533.604269 
L 1344.755105 575.278759 
L 1345.611713 537.699254 
L 1346.468321 578.696589 
L 1347.32493 559.539542 
L 1348.181538 485.735843 
L 1349.038146 514.430821 
L 1349.894754 509.002388 
L 1350.751363 493.244718 
L 1351.607971 556.132271 
L 1352.464579 534.279868 
L 1353.321188 498.743922 
L 1354.177796 512.406942 
L 1355.034404 513.777981 
L 1355.891013 491.916251 
L 1356.747621 478.899955 
L 1357.604229 410.552314 
L 1358.460837 483.012449 
L 1359.317446 505.042916 
L 1360.174054 552.727204 
L 1361.030662 514.785812 
L 1361.887271 549.31213 
L 1362.743879 470.041034 
L 1363.600487 597.477651 
L 1364.457096 476.190849 
L 1365.313704 590.321139 
L 1366.170312 612.891921 
L 1367.02692 496.313734 
L 1367.883529 524.699086 
L 1368.740137 502.118972 
L 1369.596745 493.937936 
L 1370.453354 502.163472 
L 1371.309962 512.040247 
L 1372.16657 509.992952 
L 1373.023179 505.554313 
L 1373.879787 521.282449 
L 1374.736395 502.11961 
L 1375.593003 515.818638 
L 1376.449612 494.277748 
L 1377.30622 502.519763 
L 1378.162828 519.931125 
L 1379.019437 487.087659 
L 1379.876045 567.777426 
L 1380.732653 490.544989 
L 1381.589262 509.003182 
L 1382.44587 478.884096 
L 1383.302478 509.654179 
L 1384.159086 557.485247 
L 1385.015695 508.974723 
L 1385.872303 507.676791 
L 1386.728911 524.005396 
L 1387.58552 485.159966 
L 1388.442128 602.256971 
L 1389.298736 502.126628 
L 1390.155345 511.740669 
L 1391.011953 595.064264 
L 1391.868561 546.563237 
L 1392.725169 526.038216 
L 1393.581778 517.20628 
L 1394.438386 519.913303 
L 1395.294994 527.428805 
L 1396.151603 574.251523 
L 1397.008211 509.982456 
L 1397.864819 582.782878 
L 1398.721428 515.783543 
L 1399.578036 506.977527 
L 1400.434644 535.628748 
L 1401.291252 503.857803 
L 1402.147861 520.264946 
L 1403.004469 520.281272 
L 1403.861077 513.098874 
L 1404.717686 627.914764 
L 1405.574294 515.503359 
L 1406.430902 599.857535 
L 1407.28751 558.873682 
L 1408.144119 489.819816 
L 1409.000727 500.871727 
L 1409.857335 522.6412 
L 1410.713944 490.513661 
L 1411.570552 530.883587 
L 1412.42716 524.698483 
L 1413.283769 525.719143 
L 1414.140377 509.323828 
L 1414.996985 523.680354 
L 1415.853593 512.745389 
L 1416.710202 517.87041 
L 1417.56681 534.959478 
L 1418.423418 502.841753 
L 1419.280027 515.829401 
L 1420.136635 521.316014 
L 1420.993243 508.296734 
L 1421.849852 517.519517 
L 1422.70646 491.890729 
L 1423.563068 495.325473 
L 1424.419676 532.892887 
L 1425.276285 488.489047 
L 1426.132893 521.964544 
L 1426.989501 514.444242 
L 1427.84611 508.269435 
L 1428.702718 518.879002 
L 1429.559326 525.371946 
L 1430.415935 508.271024 
L 1431.272543 498.754215 
L 1432.129151 493.243196 
L 1432.985759 522.694888 
L 1433.842368 524.730062 
L 1434.698976 527.417108 
L 1435.555584 528.143098 
L 1436.412193 461.828641 
L 1437.268801 517.159198 
L 1438.125409 515.46722 
L 1438.982018 542.472171 
L 1439.838626 486.43325 
L 1440.695234 543.142498 
L 1441.551842 529.465732 
L 1442.408451 513.771015 
L 1443.265059 500.769211 
L 1444.121667 531.8684 
L 1444.978276 497.687847 
L 1445.834884 538.374376 
L 1446.691492 518.895341 
L 1447.548101 531.544732 
L 1448.404709 510.715274 
L 1449.261317 529.516836 
L 1450.117925 532.911659 
L 1450.974534 504.537277 
L 1451.831142 521.296789 
L 1452.68775 493.589701 
L 1453.544359 750.224113 
L 1454.400967 504.896209 
L 1455.257575 506.921395 
L 1456.114184 497.340434 
L 1456.970792 513.748373 
L 1457.8274 521.986316 
L 1458.684008 479.583985 
L 1459.540617 510.33805 
L 1460.397225 511.767827 
L 1461.253833 494.301358 
L 1462.110442 511.06062 
L 1462.96705 478.887818 
L 1463.823658 506.954629 
L 1465.536875 510.35205 
L 1466.393483 521.961902 
L 1467.250091 498.719542 
L 1468.1067 510.701628 
L 1468.963308 475.836314 
L 1469.819916 478.238576 
L 1470.676525 478.556851 
L 1471.533133 597.127368 
L 1472.389741 493.26161 
L 1473.24635 532.218466 
L 1474.959566 485.765008 
L 1475.816174 517.214422 
L 1476.672783 517.529822 
L 1477.529391 510.527965 
L 1478.385999 487.789246 
L 1479.242608 486.434648 
L 1480.099216 515.791133 
L 1480.955824 520.975102 
L 1481.812433 515.829875 
L 1482.669041 489.186906 
L 1483.525649 496.696459 
L 1484.382257 477.556162 
L 1485.238866 511.045236 
L 1486.095474 493.938663 
L 1486.952082 499.465405 
L 1487.808691 486.416177 
L 1488.665299 512.386807 
L 1489.521907 508.657283 
L 1490.378516 500.756772 
L 1491.235124 514.797377 
L 1492.091732 465.232209 
L 1492.94834 529.471662 
L 1493.804949 504.226555 
L 1494.661557 503.530086 
L 1495.518165 506.230364 
L 1496.374774 442.081669 
L 1497.231382 532.916124 
L 1498.08799 525.403537 
L 1498.944599 507.6334 
L 1499.801207 476.85225 
L 1500.657815 489.171147 
L 1501.514423 570.468693 
L 1503.22764 447.458155 
L 1504.084248 501.437324 
L 1504.940857 510.36677 
L 1505.797465 552.721434 
L 1506.654073 498.229293 
L 1507.510682 568.470313 
L 1509.223898 499.419057 
L 1510.080506 506.924715 
L 1510.937115 492.250808 
L 1511.793723 507.984894 
L 1512.650331 515.801783 
L 1514.363548 457.746663 
L 1515.220156 511.036512 
L 1516.076765 490.591751 
L 1516.933373 491.227891 
L 1517.789981 469.369714 
L 1518.646589 504.999218 
L 1519.503198 495.673046 
L 1520.359806 487.791981 
L 1521.216414 491.214254 
L 1522.073023 522.310797 
L 1522.929631 486.447908 
L 1523.786239 498.746554 
L 1524.642848 519.57443 
L 1525.499456 503.869182 
L 1526.356064 481.682484 
L 1527.212672 496.671437 
L 1528.069281 520.58487 
L 1528.925889 511.027947 
L 1529.782497 510.677208 
L 1530.639106 493.25935 
L 1531.495714 497.3914 
L 1532.352322 508.983648 
L 1533.20893 488.484609 
L 1534.065539 489.506092 
L 1534.922147 530.163859 
L 1535.778755 517.86076 
L 1536.635364 490.215094 
L 1537.491972 511.380725 
L 1538.34858 528.124511 
L 1539.205189 522.983367 
L 1540.061797 527.458076 
L 1540.918405 520.579099 
L 1541.775013 521.976396 
L 1542.631622 522.647498 
L 1543.48823 529.492538 
L 1544.344838 558.869991 
L 1545.201447 506.255335 
L 1546.058055 514.117403 
L 1546.914663 505.927375 
L 1548.62788 479.581247 
L 1549.484488 496.029696 
L 1550.341096 499.061908 
L 1551.197705 529.154984 
L 1552.054313 487.125011 
L 1552.910921 455.655645 
L 1553.76753 489.862775 
L 1554.624138 490.542277 
L 1555.480746 480.292332 
L 1556.337355 489.511059 
L 1557.193963 505.228534 
L 1558.050571 499.399673 
L 1558.907179 582.132378 
L 1559.763788 502.467897 
L 1560.620396 499.431218 
L 1561.477004 498.732489 
L 1562.333613 473.442696 
L 1563.190221 483.002749 
L 1564.046829 488.152987 
L 1564.903438 483.023094 
L 1565.760046 493.94732 
L 1566.616654 501.858083 
L 1567.473262 472.063075 
L 1568.329871 482.33744 
L 1569.186479 496.679515 
L 1570.043087 478.242807 
L 1570.899696 509.331831 
L 1571.756304 498.021275 
L 1572.612912 513.10315 
L 1573.469521 835.286995 
L 1574.326129 524.005785 
L 1575.182737 513.763397 
L 1576.039345 491.225161 
L 1576.895954 481.634752 
L 1577.752562 506.266317 
L 1578.60917 490.922448 
L 1579.465779 508.301371 
L 1580.322387 508.304971 
L 1582.035604 501.44642 
L 1582.892212 495.433376 
L 1583.74882 492.572517 
L 1584.605428 518.551572 
L 1585.462037 486.432928 
L 1586.318645 505.575947 
L 1587.175253 578.398671 
L 1588.031862 525.748128 
L 1588.88847 517.154143 
L 1589.745078 655.226508 
L 1590.601687 502.822622 
L 1591.458295 507.653268 
L 1592.314903 515.114377 
L 1593.171511 572.519688 
L 1594.884728 503.489283 
L 1595.741336 510.34757 
L 1597.454553 433.823465 
L 1599.16777 517.186216 
L 1601.737594 512.376982 
L 1602.594203 489.172059 
L 1603.450811 531.5571 
L 1605.164028 580.038708 
L 1606.877244 527.080704 
L 1608.590461 434.87861 
L 1611.160286 485.392613 
L 1612.016894 535.290609 
L 1613.730111 526.081734 
L 1614.586719 489.888928 
L 1615.443327 962.748361 
L 1616.299936 500.800057 
L 1617.156544 499.418914 
L 1618.013152 495.656946 
L 1618.86976 485.757435 
L 1621.439585 493.578239 
L 1622.296194 489.18962 
L 1624.00941 526.061782 
L 1624.866019 376.666597 
L 1625.722627 545.191487 
L 1626.579235 454.539671 
L 1627.435843 483.719672 
L 1629.14906 459.064778 
L 1630.005668 485.741483 
L 1630.862277 736.527932 
L 1631.718885 495.639218 
L 1633.432102 517.168046 
L 1634.28871 873.219622 
L 1635.145318 528.829853 
L 1636.858535 489.136093 
L 1637.715143 515.149339 
L 1640.284968 641.564014 
L 1641.141576 506.228614 
L 1641.998185 470.703601 
L 1642.854793 489.152977 
L 1643.711401 1044.073472 
L 1645.424618 519.583509 
L 1647.137834 433.490116 
L 1647.994443 485.742611 
L 1648.851051 509.648464 
L 1649.707659 602.65192 
L 1650.564268 445.397721 
L 1652.277484 513.429088 
L 1653.134092 811.049376 
L 1654.847309 632.348353 
L 1655.703917 652.488901 
L 1656.560526 628.275415 
L 1657.417134 614.202764 
L 1658.273742 628.562524 
L 1659.130351 717.102084 
L 1659.986959 500.80293 
L 1660.843567 518.589243 
L 1661.700175 658.64533 
L 1662.556784 737.597846 
L 1663.413392 582.110865 
L 1664.27 577.665743 
L 1665.126609 510.384859 
L 1665.983217 717.796031 
L 1666.839825 702.385331 
L 1667.696433 526.117081 
L 1668.553042 551.679054 
L 1669.40965 710.935286 
L 1670.266258 815.146499 
L 1671.122867 777.543109 
L 1671.979475 483.335625 
L 1672.836083 487.779266 
L 1673.692692 504.216489 
L 1674.5493 505.585163 
L 1675.405908 481.003323 
L 1676.262516 460.140746 
L 1677.119125 504.873679 
L 1677.975733 484.035927 
L 1678.832341 511.74923 
L 1680.545558 420.121573 
L 1681.402166 487.822075 
L 1682.258775 476.848958 
L 1683.115383 515.137648 
L 1683.971991 502.854667 
L 1684.828599 595.161698 
L 1685.685208 471.417232 
L 1686.541816 467.288306 
L 1687.398424 459.093826 
L 1688.255033 492.235584 
L 1689.111641 485.052938 
L 1689.968249 431.412089 
L 1690.824858 536.314226 
L 1691.681466 465.5796 
L 1692.538074 477.192385 
L 1693.394682 500.908894 
L 1694.251291 468.679149 
L 1695.107899 493.968382 
L 1695.964507 478.915004 
L 1696.821116 504.901145 
L 1697.677724 518.244362 
L 1698.534332 513.750431 
L 1699.390941 497.014965 
L 1701.104157 523.347423 
L 1701.960765 505.923035 
L 1702.817374 465.929469 
L 1703.673982 494.614835 
L 1704.53059 535.631615 
L 1705.387199 444.043315 
L 1706.243807 519.222214 
L 1707.100415 500.755998 
L 1707.957024 519.224389 
L 1708.813632 513.746473 
L 1709.67024 542.45335 
L 1710.526848 499.391593 
L 1711.383457 519.926394 
L 1712.240065 468.635181 
L 1713.096673 459.850511 
L 1713.953282 521.959783 
L 1714.80989 541.886491 
L 1716.523107 457.704695 
L 1717.379715 513.412893 
L 1718.236323 496.688242 
L 1719.092931 511.695168 
L 1719.94954 509.002705 
L 1720.806148 490.176221 
L 1721.662756 558.3294 
L 1722.519365 498.03119 
L 1723.375973 523.329 
L 1724.232581 530.187676 
L 1725.08919 530.163098 
L 1725.945798 517.196643 
L 1726.802406 520.587708 
L 1727.659014 539.772297 
L 1728.515623 492.235689 
L 1729.372231 494.629588 
L 1730.228839 517.847179 
L 1731.085448 505.539167 
L 1731.942056 507.646433 
L 1732.798664 496.765218 
L 1733.655273 506.949408 
L 1734.511881 511.708921 
L 1735.368489 488.826829 
L 1736.225097 537.00729 
L 1737.081706 486.071012 
L 1737.938314 491.207378 
L 1738.794922 517.85239 
L 1739.651531 510.691893 
L 1740.508139 509.675772 
L 1741.364747 478.550503 
L 1742.221356 492.570752 
L 1743.077964 519.221233 
L 1743.934572 526.055339 
L 1744.79118 513.476418 
L 1745.647789 475.821502 
L 1746.504397 492.948323 
L 1747.361005 501.457614 
L 1748.217614 505.203265 
L 1748.217614 505.203265 
" style="fill:none;stroke:#0000ff;stroke-linecap:square;stroke-width:1.5;"/>
   </g>
   <g id="patch_3">
    <path d="M 43.78125 2052.76 
L 43.78125 278.68 
" style="fill:none;stroke:#000000;stroke-linecap:square;stroke-linejoin:miter;stroke-width:0.8;"/>
   </g>
   <g id="patch_4">
    <path d="M 1829.38125 2052.76 
L 1829.38125 278.68 
" style="fill:none;stroke:#000000;stroke-linecap:square;stroke-linejoin:miter;stroke-width:0.8;"/>
   </g>
   <g id="patch_5">
    <path d="M 43.78125 2052.76 
L 1829.38125 2052.76 
" style="fill:none;stroke:#000000;stroke-linecap:square;stroke-linejoin:miter;stroke-width:0.8;"/>
   </g>
   <g id="patch_6">
    <path d="M 43.78125 278.68 
L 1829.38125 278.68 
" style="fill:none;stroke:#000000;stroke-linecap:square;stroke-linejoin:miter;stroke-width:0.8;"/>
   </g>
   <g id="text_20">
    <text style="font-family:DejaVu Sans;font-size:12px;font-stretch:normal;font-style:normal;font-weight:normal;text-anchor:middle;" transform="rotate(-0, 936.58125, 272.68)" x="936.58125" y="272.68">air_pressure-&gt;Throughput</text>
   </g>
  </g>
  <g id="legend_1">
   <g id="patch_7">
    <path d="M 1934.960937 22.678125 
L 2054.98125 22.678125 
Q 2056.98125 22.678125 2056.98125 20.678125 
L 2056.98125 7 
Q 2056.98125 5 2054.98125 5 
L 1934.960937 5 
Q 1932.960937 5 1932.960937 7 
L 1932.960937 20.678125 
Q 1932.960937 22.678125 1934.960937 22.678125 
z
" style="fill:#ffffff;opacity:0.8;stroke:#cccccc;stroke-linejoin:miter;"/>
   </g>
   <g id="line2d_18">
    <path d="M 1936.960937 13.098437 
L 1956.960937 13.098437 
" style="fill:none;stroke:#0000ff;stroke-linecap:square;stroke-width:1.5;"/>
   </g>
   <g id="line2d_19"/>
   <g id="text_21">
    <text style="font-family:DejaVu Sans;font-size:10px;font-stretch:normal;font-style:normal;font-weight:normal;text-anchor:start;" transform="rotate(-0, 1964.960937, 16.598437)" x="1964.960937" y="16.598437">Throughput[Bit/s]</text>
   </g>
  </g>
 </g>
 <defs>
  <clipPath id="p6d50313b80">
   <rect height="1774.08" width="1785.6" x="43.78125" y="278.68"/>
  </clipPath>
 </defs>
</svg>
