<?xml version="1.0" encoding="utf-8" standalone="no"?>
<!DOCTYPE svg PUBLIC "-//W3C//DTD SVG 1.1//EN"
  "http://www.w3.org/Graphics/SVG/1.1/DTD/svg11.dtd">
<!-- Created with matplotlib (https://matplotlib.org/) -->
<svg height="345.6pt" version="1.1" viewBox="0 0 460.8 345.6" width="460.8pt" xmlns="http://www.w3.org/2000/svg" xmlns:xlink="http://www.w3.org/1999/xlink">
 <metadata>
  <rdf:RDF xmlns:cc="http://creativecommons.org/ns#" xmlns:dc="http://purl.org/dc/elements/1.1/" xmlns:rdf="http://www.w3.org/1999/02/22-rdf-syntax-ns#">
   <cc:Work>
    <dc:type rdf:resource="http://purl.org/dc/dcmitype/StillImage"/>
    <dc:date>2022-07-16T22:18:42.711934</dc:date>
    <dc:format>image/svg+xml</dc:format>
    <dc:creator>
     <cc:Agent>
      <dc:title>Matplotlib v3.3.2, https://matplotlib.org/</dc:title>
     </cc:Agent>
    </dc:creator>
   </cc:Work>
  </rdf:RDF>
 </metadata>
 <defs>
  <style type="text/css">*{stroke-linecap:butt;stroke-linejoin:round;}</style>
 </defs>
 <g id="figure_1">
  <g id="patch_1">
   <path d="M 0 345.6 
L 460.8 345.6 
L 460.8 0 
L 0 0 
z
" style="fill:#ffffff;"/>
  </g>
  <g id="axes_1">
   <g id="patch_2">
    <path d="M 57.6 307.584 
L 414.72 307.584 
L 414.72 41.472 
L 57.6 41.472 
z
" style="fill:#ffffff;"/>
   </g>
   <g id="matplotlib.axis_1">
    <g id="xtick_1">
     <g id="line2d_1">
      <defs>
       <path d="M 0 0 
L 0 3.5 
" id="m088b57ef8d" style="stroke:#000000;stroke-width:0.8;"/>
      </defs>
      <g>
       <use style="stroke:#000000;stroke-width:0.8;" x="112.409482" xlink:href="#m088b57ef8d" y="307.584"/>
      </g>
     </g>
     <g id="text_1">
      <!-- 10 -->
      <g transform="translate(106.046982 322.182437)scale(0.1 -0.1)">
       <defs>
        <path d="M 12.40625 8.296875 
L 28.515625 8.296875 
L 28.515625 63.921875 
L 10.984375 60.40625 
L 10.984375 69.390625 
L 28.421875 72.90625 
L 38.28125 72.90625 
L 38.28125 8.296875 
L 54.390625 8.296875 
L 54.390625 0 
L 12.40625 0 
z
" id="DejaVuSans-49"/>
        <path d="M 31.78125 66.40625 
Q 24.171875 66.40625 20.328125 58.90625 
Q 16.5 51.421875 16.5 36.375 
Q 16.5 21.390625 20.328125 13.890625 
Q 24.171875 6.390625 31.78125 6.390625 
Q 39.453125 6.390625 43.28125 13.890625 
Q 47.125 21.390625 47.125 36.375 
Q 47.125 51.421875 43.28125 58.90625 
Q 39.453125 66.40625 31.78125 66.40625 
z
M 31.78125 74.21875 
Q 44.046875 74.21875 50.515625 64.515625 
Q 56.984375 54.828125 56.984375 36.375 
Q 56.984375 17.96875 50.515625 8.265625 
Q 44.046875 -1.421875 31.78125 -1.421875 
Q 19.53125 -1.421875 13.0625 8.265625 
Q 6.59375 17.96875 6.59375 36.375 
Q 6.59375 54.828125 13.0625 64.515625 
Q 19.53125 74.21875 31.78125 74.21875 
z
" id="DejaVuSans-48"/>
       </defs>
       <use xlink:href="#DejaVuSans-49"/>
       <use x="63.623047" xlink:href="#DejaVuSans-48"/>
      </g>
     </g>
    </g>
    <g id="xtick_2">
     <g id="line2d_2">
      <g>
       <use style="stroke:#000000;stroke-width:0.8;" x="178.692566" xlink:href="#m088b57ef8d" y="307.584"/>
      </g>
     </g>
     <g id="text_2">
      <!-- 15 -->
      <g transform="translate(172.330066 322.182437)scale(0.1 -0.1)">
       <defs>
        <path d="M 10.796875 72.90625 
L 49.515625 72.90625 
L 49.515625 64.59375 
L 19.828125 64.59375 
L 19.828125 46.734375 
Q 21.96875 47.46875 24.109375 47.828125 
Q 26.265625 48.1875 28.421875 48.1875 
Q 40.625 48.1875 47.75 41.5 
Q 54.890625 34.8125 54.890625 23.390625 
Q 54.890625 11.625 47.5625 5.09375 
Q 40.234375 -1.421875 26.90625 -1.421875 
Q 22.3125 -1.421875 17.546875 -0.640625 
Q 12.796875 0.140625 7.71875 1.703125 
L 7.71875 11.625 
Q 12.109375 9.234375 16.796875 8.0625 
Q 21.484375 6.890625 26.703125 6.890625 
Q 35.15625 6.890625 40.078125 11.328125 
Q 45.015625 15.765625 45.015625 23.390625 
Q 45.015625 31 40.078125 35.4375 
Q 35.15625 39.890625 26.703125 39.890625 
Q 22.75 39.890625 18.8125 39.015625 
Q 14.890625 38.140625 10.796875 36.28125 
z
" id="DejaVuSans-53"/>
       </defs>
       <use xlink:href="#DejaVuSans-49"/>
       <use x="63.623047" xlink:href="#DejaVuSans-53"/>
      </g>
     </g>
    </g>
    <g id="xtick_3">
     <g id="line2d_3">
      <g>
       <use style="stroke:#000000;stroke-width:0.8;" x="244.97565" xlink:href="#m088b57ef8d" y="307.584"/>
      </g>
     </g>
     <g id="text_3">
      <!-- 20 -->
      <g transform="translate(238.61315 322.182437)scale(0.1 -0.1)">
       <defs>
        <path d="M 19.1875 8.296875 
L 53.609375 8.296875 
L 53.609375 0 
L 7.328125 0 
L 7.328125 8.296875 
Q 12.9375 14.109375 22.625 23.890625 
Q 32.328125 33.6875 34.8125 36.53125 
Q 39.546875 41.84375 41.421875 45.53125 
Q 43.3125 49.21875 43.3125 52.78125 
Q 43.3125 58.59375 39.234375 62.25 
Q 35.15625 65.921875 28.609375 65.921875 
Q 23.96875 65.921875 18.8125 64.3125 
Q 13.671875 62.703125 7.8125 59.421875 
L 7.8125 69.390625 
Q 13.765625 71.78125 18.9375 73 
Q 24.125 74.21875 28.421875 74.21875 
Q 39.75 74.21875 46.484375 68.546875 
Q 53.21875 62.890625 53.21875 53.421875 
Q 53.21875 48.921875 51.53125 44.890625 
Q 49.859375 40.875 45.40625 35.40625 
Q 44.1875 33.984375 37.640625 27.21875 
Q 31.109375 20.453125 19.1875 8.296875 
z
" id="DejaVuSans-50"/>
       </defs>
       <use xlink:href="#DejaVuSans-50"/>
       <use x="63.623047" xlink:href="#DejaVuSans-48"/>
      </g>
     </g>
    </g>
    <g id="xtick_4">
     <g id="line2d_4">
      <g>
       <use style="stroke:#000000;stroke-width:0.8;" x="311.258734" xlink:href="#m088b57ef8d" y="307.584"/>
      </g>
     </g>
     <g id="text_4">
      <!-- 25 -->
      <g transform="translate(304.896234 322.182437)scale(0.1 -0.1)">
       <use xlink:href="#DejaVuSans-50"/>
       <use x="63.623047" xlink:href="#DejaVuSans-53"/>
      </g>
     </g>
    </g>
    <g id="xtick_5">
     <g id="line2d_5">
      <g>
       <use style="stroke:#000000;stroke-width:0.8;" x="377.541818" xlink:href="#m088b57ef8d" y="307.584"/>
      </g>
     </g>
     <g id="text_5">
      <!-- 30 -->
      <g transform="translate(371.179318 322.182437)scale(0.1 -0.1)">
       <defs>
        <path d="M 40.578125 39.3125 
Q 47.65625 37.796875 51.625 33 
Q 55.609375 28.21875 55.609375 21.1875 
Q 55.609375 10.40625 48.1875 4.484375 
Q 40.765625 -1.421875 27.09375 -1.421875 
Q 22.515625 -1.421875 17.65625 -0.515625 
Q 12.796875 0.390625 7.625 2.203125 
L 7.625 11.71875 
Q 11.71875 9.328125 16.59375 8.109375 
Q 21.484375 6.890625 26.8125 6.890625 
Q 36.078125 6.890625 40.9375 10.546875 
Q 45.796875 14.203125 45.796875 21.1875 
Q 45.796875 27.640625 41.28125 31.265625 
Q 36.765625 34.90625 28.71875 34.90625 
L 20.21875 34.90625 
L 20.21875 43.015625 
L 29.109375 43.015625 
Q 36.375 43.015625 40.234375 45.921875 
Q 44.09375 48.828125 44.09375 54.296875 
Q 44.09375 59.90625 40.109375 62.90625 
Q 36.140625 65.921875 28.71875 65.921875 
Q 24.65625 65.921875 20.015625 65.03125 
Q 15.375 64.15625 9.8125 62.3125 
L 9.8125 71.09375 
Q 15.4375 72.65625 20.34375 73.4375 
Q 25.25 74.21875 29.59375 74.21875 
Q 40.828125 74.21875 47.359375 69.109375 
Q 53.90625 64.015625 53.90625 55.328125 
Q 53.90625 49.265625 50.4375 45.09375 
Q 46.96875 40.921875 40.578125 39.3125 
z
" id="DejaVuSans-51"/>
       </defs>
       <use xlink:href="#DejaVuSans-51"/>
       <use x="63.623047" xlink:href="#DejaVuSans-48"/>
      </g>
     </g>
    </g>
    <g id="text_6">
     <!-- temperature from OpenWeatherMap -->
     <g transform="translate(144.963906 335.860562)scale(0.1 -0.1)">
      <defs>
       <path d="M 18.3125 70.21875 
L 18.3125 54.6875 
L 36.8125 54.6875 
L 36.8125 47.703125 
L 18.3125 47.703125 
L 18.3125 18.015625 
Q 18.3125 11.328125 20.140625 9.421875 
Q 21.96875 7.515625 27.59375 7.515625 
L 36.8125 7.515625 
L 36.8125 0 
L 27.59375 0 
Q 17.1875 0 13.234375 3.875 
Q 9.28125 7.765625 9.28125 18.015625 
L 9.28125 47.703125 
L 2.6875 47.703125 
L 2.6875 54.6875 
L 9.28125 54.6875 
L 9.28125 70.21875 
z
" id="DejaVuSans-116"/>
       <path d="M 56.203125 29.59375 
L 56.203125 25.203125 
L 14.890625 25.203125 
Q 15.484375 15.921875 20.484375 11.0625 
Q 25.484375 6.203125 34.421875 6.203125 
Q 39.59375 6.203125 44.453125 7.46875 
Q 49.3125 8.734375 54.109375 11.28125 
L 54.109375 2.78125 
Q 49.265625 0.734375 44.1875 -0.34375 
Q 39.109375 -1.421875 33.890625 -1.421875 
Q 20.796875 -1.421875 13.15625 6.1875 
Q 5.515625 13.8125 5.515625 26.8125 
Q 5.515625 40.234375 12.765625 48.109375 
Q 20.015625 56 32.328125 56 
Q 43.359375 56 49.78125 48.890625 
Q 56.203125 41.796875 56.203125 29.59375 
z
M 47.21875 32.234375 
Q 47.125 39.59375 43.09375 43.984375 
Q 39.0625 48.390625 32.421875 48.390625 
Q 24.90625 48.390625 20.390625 44.140625 
Q 15.875 39.890625 15.1875 32.171875 
z
" id="DejaVuSans-101"/>
       <path d="M 52 44.1875 
Q 55.375 50.25 60.0625 53.125 
Q 64.75 56 71.09375 56 
Q 79.640625 56 84.28125 50.015625 
Q 88.921875 44.046875 88.921875 33.015625 
L 88.921875 0 
L 79.890625 0 
L 79.890625 32.71875 
Q 79.890625 40.578125 77.09375 44.375 
Q 74.3125 48.1875 68.609375 48.1875 
Q 61.625 48.1875 57.5625 43.546875 
Q 53.515625 38.921875 53.515625 30.90625 
L 53.515625 0 
L 44.484375 0 
L 44.484375 32.71875 
Q 44.484375 40.625 41.703125 44.40625 
Q 38.921875 48.1875 33.109375 48.1875 
Q 26.21875 48.1875 22.15625 43.53125 
Q 18.109375 38.875 18.109375 30.90625 
L 18.109375 0 
L 9.078125 0 
L 9.078125 54.6875 
L 18.109375 54.6875 
L 18.109375 46.1875 
Q 21.1875 51.21875 25.484375 53.609375 
Q 29.78125 56 35.6875 56 
Q 41.65625 56 45.828125 52.96875 
Q 50 49.953125 52 44.1875 
z
" id="DejaVuSans-109"/>
       <path d="M 18.109375 8.203125 
L 18.109375 -20.796875 
L 9.078125 -20.796875 
L 9.078125 54.6875 
L 18.109375 54.6875 
L 18.109375 46.390625 
Q 20.953125 51.265625 25.265625 53.625 
Q 29.59375 56 35.59375 56 
Q 45.5625 56 51.78125 48.09375 
Q 58.015625 40.1875 58.015625 27.296875 
Q 58.015625 14.40625 51.78125 6.484375 
Q 45.5625 -1.421875 35.59375 -1.421875 
Q 29.59375 -1.421875 25.265625 0.953125 
Q 20.953125 3.328125 18.109375 8.203125 
z
M 48.6875 27.296875 
Q 48.6875 37.203125 44.609375 42.84375 
Q 40.53125 48.484375 33.40625 48.484375 
Q 26.265625 48.484375 22.1875 42.84375 
Q 18.109375 37.203125 18.109375 27.296875 
Q 18.109375 17.390625 22.1875 11.75 
Q 26.265625 6.109375 33.40625 6.109375 
Q 40.53125 6.109375 44.609375 11.75 
Q 48.6875 17.390625 48.6875 27.296875 
z
" id="DejaVuSans-112"/>
       <path d="M 41.109375 46.296875 
Q 39.59375 47.171875 37.8125 47.578125 
Q 36.03125 48 33.890625 48 
Q 26.265625 48 22.1875 43.046875 
Q 18.109375 38.09375 18.109375 28.8125 
L 18.109375 0 
L 9.078125 0 
L 9.078125 54.6875 
L 18.109375 54.6875 
L 18.109375 46.1875 
Q 20.953125 51.171875 25.484375 53.578125 
Q 30.03125 56 36.53125 56 
Q 37.453125 56 38.578125 55.875 
Q 39.703125 55.765625 41.0625 55.515625 
z
" id="DejaVuSans-114"/>
       <path d="M 34.28125 27.484375 
Q 23.390625 27.484375 19.1875 25 
Q 14.984375 22.515625 14.984375 16.5 
Q 14.984375 11.71875 18.140625 8.90625 
Q 21.296875 6.109375 26.703125 6.109375 
Q 34.1875 6.109375 38.703125 11.40625 
Q 43.21875 16.703125 43.21875 25.484375 
L 43.21875 27.484375 
z
M 52.203125 31.203125 
L 52.203125 0 
L 43.21875 0 
L 43.21875 8.296875 
Q 40.140625 3.328125 35.546875 0.953125 
Q 30.953125 -1.421875 24.3125 -1.421875 
Q 15.921875 -1.421875 10.953125 3.296875 
Q 6 8.015625 6 15.921875 
Q 6 25.140625 12.171875 29.828125 
Q 18.359375 34.515625 30.609375 34.515625 
L 43.21875 34.515625 
L 43.21875 35.40625 
Q 43.21875 41.609375 39.140625 45 
Q 35.0625 48.390625 27.6875 48.390625 
Q 23 48.390625 18.546875 47.265625 
Q 14.109375 46.140625 10.015625 43.890625 
L 10.015625 52.203125 
Q 14.9375 54.109375 19.578125 55.046875 
Q 24.21875 56 28.609375 56 
Q 40.484375 56 46.34375 49.84375 
Q 52.203125 43.703125 52.203125 31.203125 
z
" id="DejaVuSans-97"/>
       <path d="M 8.5 21.578125 
L 8.5 54.6875 
L 17.484375 54.6875 
L 17.484375 21.921875 
Q 17.484375 14.15625 20.5 10.265625 
Q 23.53125 6.390625 29.59375 6.390625 
Q 36.859375 6.390625 41.078125 11.03125 
Q 45.3125 15.671875 45.3125 23.6875 
L 45.3125 54.6875 
L 54.296875 54.6875 
L 54.296875 0 
L 45.3125 0 
L 45.3125 8.40625 
Q 42.046875 3.421875 37.71875 1 
Q 33.40625 -1.421875 27.6875 -1.421875 
Q 18.265625 -1.421875 13.375 4.4375 
Q 8.5 10.296875 8.5 21.578125 
z
M 31.109375 56 
z
" id="DejaVuSans-117"/>
       <path id="DejaVuSans-32"/>
       <path d="M 37.109375 75.984375 
L 37.109375 68.5 
L 28.515625 68.5 
Q 23.6875 68.5 21.796875 66.546875 
Q 19.921875 64.59375 19.921875 59.515625 
L 19.921875 54.6875 
L 34.71875 54.6875 
L 34.71875 47.703125 
L 19.921875 47.703125 
L 19.921875 0 
L 10.890625 0 
L 10.890625 47.703125 
L 2.296875 47.703125 
L 2.296875 54.6875 
L 10.890625 54.6875 
L 10.890625 58.5 
Q 10.890625 67.625 15.140625 71.796875 
Q 19.390625 75.984375 28.609375 75.984375 
z
" id="DejaVuSans-102"/>
       <path d="M 30.609375 48.390625 
Q 23.390625 48.390625 19.1875 42.75 
Q 14.984375 37.109375 14.984375 27.296875 
Q 14.984375 17.484375 19.15625 11.84375 
Q 23.34375 6.203125 30.609375 6.203125 
Q 37.796875 6.203125 41.984375 11.859375 
Q 46.1875 17.53125 46.1875 27.296875 
Q 46.1875 37.015625 41.984375 42.703125 
Q 37.796875 48.390625 30.609375 48.390625 
z
M 30.609375 56 
Q 42.328125 56 49.015625 48.375 
Q 55.71875 40.765625 55.71875 27.296875 
Q 55.71875 13.875 49.015625 6.21875 
Q 42.328125 -1.421875 30.609375 -1.421875 
Q 18.84375 -1.421875 12.171875 6.21875 
Q 5.515625 13.875 5.515625 27.296875 
Q 5.515625 40.765625 12.171875 48.375 
Q 18.84375 56 30.609375 56 
z
" id="DejaVuSans-111"/>
       <path d="M 39.40625 66.21875 
Q 28.65625 66.21875 22.328125 58.203125 
Q 16.015625 50.203125 16.015625 36.375 
Q 16.015625 22.609375 22.328125 14.59375 
Q 28.65625 6.59375 39.40625 6.59375 
Q 50.140625 6.59375 56.421875 14.59375 
Q 62.703125 22.609375 62.703125 36.375 
Q 62.703125 50.203125 56.421875 58.203125 
Q 50.140625 66.21875 39.40625 66.21875 
z
M 39.40625 74.21875 
Q 54.734375 74.21875 63.90625 63.9375 
Q 73.09375 53.65625 73.09375 36.375 
Q 73.09375 19.140625 63.90625 8.859375 
Q 54.734375 -1.421875 39.40625 -1.421875 
Q 24.03125 -1.421875 14.8125 8.828125 
Q 5.609375 19.09375 5.609375 36.375 
Q 5.609375 53.65625 14.8125 63.9375 
Q 24.03125 74.21875 39.40625 74.21875 
z
" id="DejaVuSans-79"/>
       <path d="M 54.890625 33.015625 
L 54.890625 0 
L 45.90625 0 
L 45.90625 32.71875 
Q 45.90625 40.484375 42.875 44.328125 
Q 39.84375 48.1875 33.796875 48.1875 
Q 26.515625 48.1875 22.3125 43.546875 
Q 18.109375 38.921875 18.109375 30.90625 
L 18.109375 0 
L 9.078125 0 
L 9.078125 54.6875 
L 18.109375 54.6875 
L 18.109375 46.1875 
Q 21.34375 51.125 25.703125 53.5625 
Q 30.078125 56 35.796875 56 
Q 45.21875 56 50.046875 50.171875 
Q 54.890625 44.34375 54.890625 33.015625 
z
" id="DejaVuSans-110"/>
       <path d="M 3.328125 72.90625 
L 13.28125 72.90625 
L 28.609375 11.28125 
L 43.890625 72.90625 
L 54.984375 72.90625 
L 70.3125 11.28125 
L 85.59375 72.90625 
L 95.609375 72.90625 
L 77.296875 0 
L 64.890625 0 
L 49.515625 63.28125 
L 33.984375 0 
L 21.578125 0 
z
" id="DejaVuSans-87"/>
       <path d="M 54.890625 33.015625 
L 54.890625 0 
L 45.90625 0 
L 45.90625 32.71875 
Q 45.90625 40.484375 42.875 44.328125 
Q 39.84375 48.1875 33.796875 48.1875 
Q 26.515625 48.1875 22.3125 43.546875 
Q 18.109375 38.921875 18.109375 30.90625 
L 18.109375 0 
L 9.078125 0 
L 9.078125 75.984375 
L 18.109375 75.984375 
L 18.109375 46.1875 
Q 21.34375 51.125 25.703125 53.5625 
Q 30.078125 56 35.796875 56 
Q 45.21875 56 50.046875 50.171875 
Q 54.890625 44.34375 54.890625 33.015625 
z
" id="DejaVuSans-104"/>
       <path d="M 9.8125 72.90625 
L 24.515625 72.90625 
L 43.109375 23.296875 
L 61.8125 72.90625 
L 76.515625 72.90625 
L 76.515625 0 
L 66.890625 0 
L 66.890625 64.015625 
L 48.09375 14.015625 
L 38.1875 14.015625 
L 19.390625 64.015625 
L 19.390625 0 
L 9.8125 0 
z
" id="DejaVuSans-77"/>
      </defs>
      <use xlink:href="#DejaVuSans-116"/>
      <use x="39.208984" xlink:href="#DejaVuSans-101"/>
      <use x="100.732422" xlink:href="#DejaVuSans-109"/>
      <use x="198.144531" xlink:href="#DejaVuSans-112"/>
      <use x="261.621094" xlink:href="#DejaVuSans-101"/>
      <use x="323.144531" xlink:href="#DejaVuSans-114"/>
      <use x="364.257812" xlink:href="#DejaVuSans-97"/>
      <use x="425.537109" xlink:href="#DejaVuSans-116"/>
      <use x="464.746094" xlink:href="#DejaVuSans-117"/>
      <use x="528.125" xlink:href="#DejaVuSans-114"/>
      <use x="566.988281" xlink:href="#DejaVuSans-101"/>
      <use x="628.511719" xlink:href="#DejaVuSans-32"/>
      <use x="660.298828" xlink:href="#DejaVuSans-102"/>
      <use x="695.503906" xlink:href="#DejaVuSans-114"/>
      <use x="734.367188" xlink:href="#DejaVuSans-111"/>
      <use x="795.548828" xlink:href="#DejaVuSans-109"/>
      <use x="892.960938" xlink:href="#DejaVuSans-32"/>
      <use x="924.748047" xlink:href="#DejaVuSans-79"/>
      <use x="1003.458984" xlink:href="#DejaVuSans-112"/>
      <use x="1066.935547" xlink:href="#DejaVuSans-101"/>
      <use x="1128.458984" xlink:href="#DejaVuSans-110"/>
      <use x="1191.837891" xlink:href="#DejaVuSans-87"/>
      <use x="1284.839844" xlink:href="#DejaVuSans-101"/>
      <use x="1346.363281" xlink:href="#DejaVuSans-97"/>
      <use x="1407.642578" xlink:href="#DejaVuSans-116"/>
      <use x="1446.851562" xlink:href="#DejaVuSans-104"/>
      <use x="1510.230469" xlink:href="#DejaVuSans-101"/>
      <use x="1571.753906" xlink:href="#DejaVuSans-114"/>
      <use x="1612.867188" xlink:href="#DejaVuSans-77"/>
      <use x="1699.146484" xlink:href="#DejaVuSans-97"/>
      <use x="1760.425781" xlink:href="#DejaVuSans-112"/>
     </g>
    </g>
   </g>
   <g id="matplotlib.axis_2">
    <g id="ytick_1">
     <g id="line2d_6">
      <defs>
       <path d="M 0 0 
L -3.5 0 
" id="mba0ec12c98" style="stroke:#000000;stroke-width:0.8;"/>
      </defs>
      <g>
       <use style="stroke:#000000;stroke-width:0.8;" x="57.6" xlink:href="#mba0ec12c98" y="297.27854"/>
      </g>
     </g>
     <g id="text_7">
      <!-- 0.0 -->
      <g transform="translate(34.696875 301.077758)scale(0.1 -0.1)">
       <defs>
        <path d="M 10.6875 12.40625 
L 21 12.40625 
L 21 0 
L 10.6875 0 
z
" id="DejaVuSans-46"/>
       </defs>
       <use xlink:href="#DejaVuSans-48"/>
       <use x="63.623047" xlink:href="#DejaVuSans-46"/>
       <use x="95.410156" xlink:href="#DejaVuSans-48"/>
      </g>
     </g>
    </g>
    <g id="ytick_2">
     <g id="line2d_7">
      <g>
       <use style="stroke:#000000;stroke-width:0.8;" x="57.6" xlink:href="#mba0ec12c98" y="262.925523"/>
      </g>
     </g>
     <g id="text_8">
      <!-- 0.2 -->
      <g transform="translate(34.696875 266.724741)scale(0.1 -0.1)">
       <use xlink:href="#DejaVuSans-48"/>
       <use x="63.623047" xlink:href="#DejaVuSans-46"/>
       <use x="95.410156" xlink:href="#DejaVuSans-50"/>
      </g>
     </g>
    </g>
    <g id="ytick_3">
     <g id="line2d_8">
      <g>
       <use style="stroke:#000000;stroke-width:0.8;" x="57.6" xlink:href="#mba0ec12c98" y="228.572506"/>
      </g>
     </g>
     <g id="text_9">
      <!-- 0.4 -->
      <g transform="translate(34.696875 232.371725)scale(0.1 -0.1)">
       <defs>
        <path d="M 37.796875 64.3125 
L 12.890625 25.390625 
L 37.796875 25.390625 
z
M 35.203125 72.90625 
L 47.609375 72.90625 
L 47.609375 25.390625 
L 58.015625 25.390625 
L 58.015625 17.1875 
L 47.609375 17.1875 
L 47.609375 0 
L 37.796875 0 
L 37.796875 17.1875 
L 4.890625 17.1875 
L 4.890625 26.703125 
z
" id="DejaVuSans-52"/>
       </defs>
       <use xlink:href="#DejaVuSans-48"/>
       <use x="63.623047" xlink:href="#DejaVuSans-46"/>
       <use x="95.410156" xlink:href="#DejaVuSans-52"/>
      </g>
     </g>
    </g>
    <g id="ytick_4">
     <g id="line2d_9">
      <g>
       <use style="stroke:#000000;stroke-width:0.8;" x="57.6" xlink:href="#mba0ec12c98" y="194.219489"/>
      </g>
     </g>
     <g id="text_10">
      <!-- 0.6 -->
      <g transform="translate(34.696875 198.018708)scale(0.1 -0.1)">
       <defs>
        <path d="M 33.015625 40.375 
Q 26.375 40.375 22.484375 35.828125 
Q 18.609375 31.296875 18.609375 23.390625 
Q 18.609375 15.53125 22.484375 10.953125 
Q 26.375 6.390625 33.015625 6.390625 
Q 39.65625 6.390625 43.53125 10.953125 
Q 47.40625 15.53125 47.40625 23.390625 
Q 47.40625 31.296875 43.53125 35.828125 
Q 39.65625 40.375 33.015625 40.375 
z
M 52.59375 71.296875 
L 52.59375 62.3125 
Q 48.875 64.0625 45.09375 64.984375 
Q 41.3125 65.921875 37.59375 65.921875 
Q 27.828125 65.921875 22.671875 59.328125 
Q 17.53125 52.734375 16.796875 39.40625 
Q 19.671875 43.65625 24.015625 45.921875 
Q 28.375 48.1875 33.59375 48.1875 
Q 44.578125 48.1875 50.953125 41.515625 
Q 57.328125 34.859375 57.328125 23.390625 
Q 57.328125 12.15625 50.6875 5.359375 
Q 44.046875 -1.421875 33.015625 -1.421875 
Q 20.359375 -1.421875 13.671875 8.265625 
Q 6.984375 17.96875 6.984375 36.375 
Q 6.984375 53.65625 15.1875 63.9375 
Q 23.390625 74.21875 37.203125 74.21875 
Q 40.921875 74.21875 44.703125 73.484375 
Q 48.484375 72.75 52.59375 71.296875 
z
" id="DejaVuSans-54"/>
       </defs>
       <use xlink:href="#DejaVuSans-48"/>
       <use x="63.623047" xlink:href="#DejaVuSans-46"/>
       <use x="95.410156" xlink:href="#DejaVuSans-54"/>
      </g>
     </g>
    </g>
    <g id="ytick_5">
     <g id="line2d_10">
      <g>
       <use style="stroke:#000000;stroke-width:0.8;" x="57.6" xlink:href="#mba0ec12c98" y="159.866472"/>
      </g>
     </g>
     <g id="text_11">
      <!-- 0.8 -->
      <g transform="translate(34.696875 163.665691)scale(0.1 -0.1)">
       <defs>
        <path d="M 31.78125 34.625 
Q 24.75 34.625 20.71875 30.859375 
Q 16.703125 27.09375 16.703125 20.515625 
Q 16.703125 13.921875 20.71875 10.15625 
Q 24.75 6.390625 31.78125 6.390625 
Q 38.8125 6.390625 42.859375 10.171875 
Q 46.921875 13.96875 46.921875 20.515625 
Q 46.921875 27.09375 42.890625 30.859375 
Q 38.875 34.625 31.78125 34.625 
z
M 21.921875 38.8125 
Q 15.578125 40.375 12.03125 44.71875 
Q 8.5 49.078125 8.5 55.328125 
Q 8.5 64.0625 14.71875 69.140625 
Q 20.953125 74.21875 31.78125 74.21875 
Q 42.671875 74.21875 48.875 69.140625 
Q 55.078125 64.0625 55.078125 55.328125 
Q 55.078125 49.078125 51.53125 44.71875 
Q 48 40.375 41.703125 38.8125 
Q 48.828125 37.15625 52.796875 32.3125 
Q 56.78125 27.484375 56.78125 20.515625 
Q 56.78125 9.90625 50.3125 4.234375 
Q 43.84375 -1.421875 31.78125 -1.421875 
Q 19.734375 -1.421875 13.25 4.234375 
Q 6.78125 9.90625 6.78125 20.515625 
Q 6.78125 27.484375 10.78125 32.3125 
Q 14.796875 37.15625 21.921875 38.8125 
z
M 18.3125 54.390625 
Q 18.3125 48.734375 21.84375 45.5625 
Q 25.390625 42.390625 31.78125 42.390625 
Q 38.140625 42.390625 41.71875 45.5625 
Q 45.3125 48.734375 45.3125 54.390625 
Q 45.3125 60.0625 41.71875 63.234375 
Q 38.140625 66.40625 31.78125 66.40625 
Q 25.390625 66.40625 21.84375 63.234375 
Q 18.3125 60.0625 18.3125 54.390625 
z
" id="DejaVuSans-56"/>
       </defs>
       <use xlink:href="#DejaVuSans-48"/>
       <use x="63.623047" xlink:href="#DejaVuSans-46"/>
       <use x="95.410156" xlink:href="#DejaVuSans-56"/>
      </g>
     </g>
    </g>
    <g id="ytick_6">
     <g id="line2d_11">
      <g>
       <use style="stroke:#000000;stroke-width:0.8;" x="57.6" xlink:href="#mba0ec12c98" y="125.513455"/>
      </g>
     </g>
     <g id="text_12">
      <!-- 1.0 -->
      <g transform="translate(34.696875 129.312674)scale(0.1 -0.1)">
       <use xlink:href="#DejaVuSans-49"/>
       <use x="63.623047" xlink:href="#DejaVuSans-46"/>
       <use x="95.410156" xlink:href="#DejaVuSans-48"/>
      </g>
     </g>
    </g>
    <g id="ytick_7">
     <g id="line2d_12">
      <g>
       <use style="stroke:#000000;stroke-width:0.8;" x="57.6" xlink:href="#mba0ec12c98" y="91.160438"/>
      </g>
     </g>
     <g id="text_13">
      <!-- 1.2 -->
      <g transform="translate(34.696875 94.959657)scale(0.1 -0.1)">
       <use xlink:href="#DejaVuSans-49"/>
       <use x="63.623047" xlink:href="#DejaVuSans-46"/>
       <use x="95.410156" xlink:href="#DejaVuSans-50"/>
      </g>
     </g>
    </g>
    <g id="ytick_8">
     <g id="line2d_13">
      <g>
       <use style="stroke:#000000;stroke-width:0.8;" x="57.6" xlink:href="#mba0ec12c98" y="56.807421"/>
      </g>
     </g>
     <g id="text_14">
      <!-- 1.4 -->
      <g transform="translate(34.696875 60.60664)scale(0.1 -0.1)">
       <use xlink:href="#DejaVuSans-49"/>
       <use x="63.623047" xlink:href="#DejaVuSans-46"/>
       <use x="95.410156" xlink:href="#DejaVuSans-52"/>
      </g>
     </g>
    </g>
    <g id="text_15">
     <!-- Throughput[Bit/s] -->
     <g transform="translate(28.617187 218.538156)rotate(-90)scale(0.1 -0.1)">
      <defs>
       <path d="M -0.296875 72.90625 
L 61.375 72.90625 
L 61.375 64.59375 
L 35.5 64.59375 
L 35.5 0 
L 25.59375 0 
L 25.59375 64.59375 
L -0.296875 64.59375 
z
" id="DejaVuSans-84"/>
       <path d="M 45.40625 27.984375 
Q 45.40625 37.75 41.375 43.109375 
Q 37.359375 48.484375 30.078125 48.484375 
Q 22.859375 48.484375 18.828125 43.109375 
Q 14.796875 37.75 14.796875 27.984375 
Q 14.796875 18.265625 18.828125 12.890625 
Q 22.859375 7.515625 30.078125 7.515625 
Q 37.359375 7.515625 41.375 12.890625 
Q 45.40625 18.265625 45.40625 27.984375 
z
M 54.390625 6.78125 
Q 54.390625 -7.171875 48.1875 -13.984375 
Q 42 -20.796875 29.203125 -20.796875 
Q 24.46875 -20.796875 20.265625 -20.09375 
Q 16.0625 -19.390625 12.109375 -17.921875 
L 12.109375 -9.1875 
Q 16.0625 -11.328125 19.921875 -12.34375 
Q 23.78125 -13.375 27.78125 -13.375 
Q 36.625 -13.375 41.015625 -8.765625 
Q 45.40625 -4.15625 45.40625 5.171875 
L 45.40625 9.625 
Q 42.625 4.78125 38.28125 2.390625 
Q 33.9375 0 27.875 0 
Q 17.828125 0 11.671875 7.65625 
Q 5.515625 15.328125 5.515625 27.984375 
Q 5.515625 40.671875 11.671875 48.328125 
Q 17.828125 56 27.875 56 
Q 33.9375 56 38.28125 53.609375 
Q 42.625 51.21875 45.40625 46.390625 
L 45.40625 54.6875 
L 54.390625 54.6875 
z
" id="DejaVuSans-103"/>
       <path d="M 8.59375 75.984375 
L 29.296875 75.984375 
L 29.296875 69 
L 17.578125 69 
L 17.578125 -6.203125 
L 29.296875 -6.203125 
L 29.296875 -13.1875 
L 8.59375 -13.1875 
z
" id="DejaVuSans-91"/>
       <path d="M 19.671875 34.8125 
L 19.671875 8.109375 
L 35.5 8.109375 
Q 43.453125 8.109375 47.28125 11.40625 
Q 51.125 14.703125 51.125 21.484375 
Q 51.125 28.328125 47.28125 31.5625 
Q 43.453125 34.8125 35.5 34.8125 
z
M 19.671875 64.796875 
L 19.671875 42.828125 
L 34.28125 42.828125 
Q 41.5 42.828125 45.03125 45.53125 
Q 48.578125 48.25 48.578125 53.8125 
Q 48.578125 59.328125 45.03125 62.0625 
Q 41.5 64.796875 34.28125 64.796875 
z
M 9.8125 72.90625 
L 35.015625 72.90625 
Q 46.296875 72.90625 52.390625 68.21875 
Q 58.5 63.53125 58.5 54.890625 
Q 58.5 48.1875 55.375 44.234375 
Q 52.25 40.28125 46.1875 39.3125 
Q 53.46875 37.75 57.5 32.78125 
Q 61.53125 27.828125 61.53125 20.40625 
Q 61.53125 10.640625 54.890625 5.3125 
Q 48.25 0 35.984375 0 
L 9.8125 0 
z
" id="DejaVuSans-66"/>
       <path d="M 9.421875 54.6875 
L 18.40625 54.6875 
L 18.40625 0 
L 9.421875 0 
z
M 9.421875 75.984375 
L 18.40625 75.984375 
L 18.40625 64.59375 
L 9.421875 64.59375 
z
" id="DejaVuSans-105"/>
       <path d="M 25.390625 72.90625 
L 33.6875 72.90625 
L 8.296875 -9.28125 
L 0 -9.28125 
z
" id="DejaVuSans-47"/>
       <path d="M 44.28125 53.078125 
L 44.28125 44.578125 
Q 40.484375 46.53125 36.375 47.5 
Q 32.28125 48.484375 27.875 48.484375 
Q 21.1875 48.484375 17.84375 46.4375 
Q 14.5 44.390625 14.5 40.28125 
Q 14.5 37.15625 16.890625 35.375 
Q 19.28125 33.59375 26.515625 31.984375 
L 29.59375 31.296875 
Q 39.15625 29.25 43.1875 25.515625 
Q 47.21875 21.78125 47.21875 15.09375 
Q 47.21875 7.46875 41.1875 3.015625 
Q 35.15625 -1.421875 24.609375 -1.421875 
Q 20.21875 -1.421875 15.453125 -0.5625 
Q 10.6875 0.296875 5.421875 2 
L 5.421875 11.28125 
Q 10.40625 8.6875 15.234375 7.390625 
Q 20.0625 6.109375 24.8125 6.109375 
Q 31.15625 6.109375 34.5625 8.28125 
Q 37.984375 10.453125 37.984375 14.40625 
Q 37.984375 18.0625 35.515625 20.015625 
Q 33.0625 21.96875 24.703125 23.78125 
L 21.578125 24.515625 
Q 13.234375 26.265625 9.515625 29.90625 
Q 5.8125 33.546875 5.8125 39.890625 
Q 5.8125 47.609375 11.28125 51.796875 
Q 16.75 56 26.8125 56 
Q 31.78125 56 36.171875 55.265625 
Q 40.578125 54.546875 44.28125 53.078125 
z
" id="DejaVuSans-115"/>
       <path d="M 30.421875 75.984375 
L 30.421875 -13.1875 
L 9.71875 -13.1875 
L 9.71875 -6.203125 
L 21.390625 -6.203125 
L 21.390625 69 
L 9.71875 69 
L 9.71875 75.984375 
z
" id="DejaVuSans-93"/>
      </defs>
      <use xlink:href="#DejaVuSans-84"/>
      <use x="61.083984" xlink:href="#DejaVuSans-104"/>
      <use x="124.462891" xlink:href="#DejaVuSans-114"/>
      <use x="163.326172" xlink:href="#DejaVuSans-111"/>
      <use x="224.507812" xlink:href="#DejaVuSans-117"/>
      <use x="287.886719" xlink:href="#DejaVuSans-103"/>
      <use x="351.363281" xlink:href="#DejaVuSans-104"/>
      <use x="414.742188" xlink:href="#DejaVuSans-112"/>
      <use x="478.21875" xlink:href="#DejaVuSans-117"/>
      <use x="541.597656" xlink:href="#DejaVuSans-116"/>
      <use x="580.806641" xlink:href="#DejaVuSans-91"/>
      <use x="619.820312" xlink:href="#DejaVuSans-66"/>
      <use x="688.423828" xlink:href="#DejaVuSans-105"/>
      <use x="716.207031" xlink:href="#DejaVuSans-116"/>
      <use x="755.416016" xlink:href="#DejaVuSans-47"/>
      <use x="789.107422" xlink:href="#DejaVuSans-115"/>
      <use x="841.207031" xlink:href="#DejaVuSans-93"/>
     </g>
    </g>
    <g id="text_16">
     <!-- 1e7 -->
     <g transform="translate(57.6 38.472)scale(0.1 -0.1)">
      <defs>
       <path d="M 8.203125 72.90625 
L 55.078125 72.90625 
L 55.078125 68.703125 
L 28.609375 0 
L 18.3125 0 
L 43.21875 64.59375 
L 8.203125 64.59375 
z
" id="DejaVuSans-55"/>
      </defs>
      <use xlink:href="#DejaVuSans-49"/>
      <use x="63.623047" xlink:href="#DejaVuSans-101"/>
      <use x="125.146484" xlink:href="#DejaVuSans-55"/>
     </g>
    </g>
   </g>
   <g id="line2d_14">
    <path clip-path="url(#p3f3ddc54a4)" d="M 73.832727 64.317702 
L 74.893257 69.76423 
L 75.423521 66.477877 
L 76.218918 66.079691 
L 76.351484 69.271223 
L 78.074845 63.349095 
L 78.605109 69.270767 
L 78.737675 65.936941 
L 79.135374 64.888982 
L 79.930771 61.803257 
L 80.32847 68.276037 
L 80.726168 66.48127 
L 80.858734 68.579531 
L 81.256433 61.90055 
L 81.786697 66.179266 
L 82.184396 66.830967 
L 82.714661 105.576784 
L 83.112359 63.348048 
L 83.377491 65.190423 
L 83.907756 64.192704 
L 85.365984 153.824994 
L 87.884741 85.282632 
L 88.149873 67.480566 
L 90.0058 59.619227 
L 90.403498 64.287845 
L 90.668631 82.055191 
L 90.801197 56.928711 
L 91.72916 92.451759 
L 91.994292 77.231933 
L 92.391991 66.781881 
L 92.657123 102.787224 
L 93.054822 102.5925 
L 93.982785 64.288179 
L 94.247917 58.122999 
L 94.910748 69.366692 
L 97.031807 62.698085 
L 97.827204 66.484108 
L 99.152865 66.283392 
L 99.68313 76.926816 
L 100.080829 68.12328 
L 100.611093 90.504045 
L 101.539056 104.0957 
L 101.671623 67.28278 
L 104.057814 64.590515 
L 104.455512 59.613571 
L 104.985777 64.094388 
L 105.250909 65.285473 
L 105.383475 59.119204 
L 105.781174 64.889472 
L 106.046306 66.876639 
L 106.178872 62.614582 
L 107.239402 68.072723 
L 108.034799 65.935553 
L 108.565063 72.944567 
L 108.830196 67.77219 
L 109.095328 69.27063 
L 109.493026 66.379941 
L 109.758159 65.53554 
L 110.023291 67.329297 
L 110.42099 64.494152 
L 110.686122 67.87454 
L 110.818688 66.903868 
L 111.08382 69.858663 
L 111.216387 81.810922 
L 111.348953 64.592769 
L 111.481519 64.387289 
L 111.746651 69.661744 
L 111.879217 69.714886 
L 112.011784 72.751506 
L 112.14435 65.487115 
L 112.542048 72.098718 
L 112.807181 66.677281 
L 113.072313 83.39485 
L 113.204879 74.688904 
L 113.337445 90.757502 
L 113.470012 55.340349 
L 113.602578 63.996993 
L 113.86771 68.270702 
L 114.132842 68.772134 
L 114.397975 60.308317 
L 114.928239 67.477786 
L 115.325938 62.900003 
L 115.723636 80.755914 
L 115.856203 64.486727 
L 115.988769 64.78881 
L 116.121335 71.654402 
L 116.253901 62.70226 
L 116.386467 65.685973 
L 116.519033 65.283965 
L 116.6516 70.709564 
L 116.916732 62.748495 
L 117.31443 65.288149 
L 117.446997 64.893817 
L 117.844695 87.182524 
L 118.242394 61.011744 
L 118.37496 65.337222 
L 118.772658 63.892042 
L 119.302923 83.60129 
L 119.568055 62.501678 
L 119.965754 67.675393 
L 120.09832 62.745623 
L 120.230886 64.045406 
L 120.363452 67.07771 
L 120.496018 65.03613 
L 120.628585 68.616454 
L 121.423982 64.940165 
L 121.556548 61.653785 
L 121.689114 65.038747 
L 121.82168 65.487112 
L 121.954246 72.152733 
L 122.086812 67.075558 
L 122.351945 66.029309 
L 122.484511 64.192408 
L 122.617077 66.09585 
L 122.749643 64.107864 
L 123.014776 65.586249 
L 123.147342 63.498506 
L 123.279908 64.838707 
L 123.412474 73.442116 
L 123.54504 64.941499 
L 123.810173 69.565495 
L 123.942739 66.530564 
L 124.207871 68.023821 
L 124.340437 67.030708 
L 124.60557 61.555021 
L 125.003268 67.976383 
L 125.2684 67.175064 
L 125.798665 63.100137 
L 126.063797 67.326175 
L 126.196364 63.989775 
L 126.32893 65.879279 
L 126.461496 65.832166 
L 126.594062 64.892818 
L 126.859194 68.868851 
L 127.124327 58.716554 
L 127.256893 63.94197 
L 127.389459 61.753469 
L 127.522025 66.778255 
L 127.654591 65.333103 
L 127.919724 67.074269 
L 128.184856 66.729969 
L 128.317422 66.977017 
L 128.449988 62.798505 
L 128.582555 68.366407 
L 128.715121 68.768661 
L 128.847687 68.124139 
L 128.980253 80.306208 
L 129.112819 66.278853 
L 129.245386 68.868156 
L 129.510518 65.935889 
L 129.643084 74.534489 
L 129.77565 65.483592 
L 129.908216 64.986352 
L 130.040783 75.034375 
L 130.173349 65.086827 
L 130.305915 69.26672 
L 130.438481 65.087692 
L 130.571047 65.831106 
L 130.703613 62.250988 
L 130.83618 69.665568 
L 130.968746 63.543409 
L 131.101312 70.957941 
L 131.233878 70.411916 
L 131.366444 68.073365 
L 131.49901 71.652088 
L 131.631577 99.307282 
L 131.764143 63.200648 
L 131.896709 65.49095 
L 132.029275 70.560491 
L 132.294407 63.495934 
L 132.426974 65.182787 
L 132.55954 89.756266 
L 132.824672 77.620835 
L 132.957238 63.991361 
L 133.222371 81.45477 
L 133.354937 64.142872 
L 133.620069 65.287526 
L 133.752635 72.150483 
L 133.885201 67.126735 
L 134.150334 67.473328 
L 134.415466 66.830592 
L 134.548032 68.370459 
L 134.680598 65.581024 
L 134.813165 65.13892 
L 135.078297 62.703878 
L 135.210863 66.179035 
L 135.343429 73.841119 
L 135.475995 72.25597 
L 135.608562 61.658239 
L 135.741128 62.49736 
L 135.873694 75.034955 
L 136.00626 64.791018 
L 136.138826 68.220914 
L 136.403959 60.707269 
L 136.801657 75.234852 
L 136.934223 66.585688 
L 137.066789 65.288604 
L 137.199356 62.802491 
L 137.331922 75.33098 
L 137.597054 64.785643 
L 137.72962 69.664266 
L 137.862186 66.42923 
L 137.994753 66.777605 
L 138.127319 77.12089 
L 138.259885 67.378627 
L 138.392451 65.889558 
L 138.657583 69.16579 
L 138.79015 70.606433 
L 138.922716 63.694135 
L 139.055282 62.695528 
L 139.45298 74.937982 
L 139.585547 65.788881 
L 139.718113 69.863553 
L 139.850679 59.71625 
L 139.983245 70.060619 
L 140.115811 64.689462 
L 140.248377 66.185205 
L 140.646076 75.134882 
L 140.911208 66.28268 
L 141.176341 75.532586 
L 141.308907 68.171672 
L 141.441473 95.328525 
L 141.574039 67.525149 
L 141.706605 68.073548 
L 141.839171 66.978263 
L 141.971738 73.443168 
L 142.104304 67.626189 
L 142.23687 69.313966 
L 142.634568 64.685857 
L 142.767135 64.88841 
L 142.899701 73.742554 
L 143.032267 74.335499 
L 143.164833 65.186733 
L 143.297399 69.863212 
L 143.429965 68.667019 
L 143.562532 69.214517 
L 143.695098 66.979842 
L 143.827664 66.97985 
L 143.96023 67.422897 
L 144.092796 77.719132 
L 144.225362 66.08213 
L 144.357929 65.184366 
L 144.490495 69.663793 
L 144.623061 66.17892 
L 144.755627 66.677097 
L 144.888193 64.591446 
L 145.153326 71.855417 
L 145.285892 69.958965 
L 145.418458 61.005199 
L 145.551024 109.155747 
L 145.68359 71.953185 
L 145.816157 101.745383 
L 146.081289 68.274434 
L 146.213855 74.734369 
L 146.346421 75.084783 
L 146.478987 67.273443 
L 146.611554 71.352665 
L 146.74412 68.573003 
L 146.876686 68.766152 
L 147.009252 86.970495 
L 147.141818 63.992317 
L 147.274384 138.902832 
L 147.406951 65.389593 
L 147.539517 64.841305 
L 147.672083 75.682524 
L 147.804649 75.927593 
L 147.937215 70.562304 
L 148.202348 64.840173 
L 148.334914 74.93338 
L 148.46748 68.667224 
L 148.600046 68.419768 
L 148.865178 66.184258 
L 148.997745 71.704863 
L 149.130311 63.993111 
L 149.262877 67.376604 
L 149.660575 66.476585 
L 149.925708 69.864274 
L 150.058274 150.838693 
L 150.19084 64.895656 
L 150.323406 64.591339 
L 150.455972 79.163658 
L 150.588539 69.667321 
L 150.721105 86.874538 
L 150.853671 67.174328 
L 150.986237 68.568349 
L 151.118803 67.677988 
L 151.251369 68.673316 
L 151.383936 61.701537 
L 151.516502 60.61162 
L 151.649068 61.60744 
L 151.9142 67.877223 
L 152.046766 67.724583 
L 152.311899 66.690518 
L 152.577031 70.558972 
L 152.709597 70.556886 
L 152.842163 67.378995 
L 152.97473 68.368419 
L 153.107296 68.021487 
L 153.239862 62.996837 
L 153.504994 79.111962 
L 153.63756 67.577906 
L 153.770127 70.857644 
L 153.902693 63.098404 
L 154.167825 60.415506 
L 154.300391 68.36659 
L 154.432957 91.944366 
L 154.69809 66.928033 
L 154.830656 67.482841 
L 155.228354 97.76706 
L 155.360921 67.274179 
L 155.493487 63.743842 
L 155.626053 73.341737 
L 155.891185 65.486987 
L 156.023751 69.067715 
L 156.288884 69.511165 
L 156.42145 66.728178 
L 156.554016 68.471931 
L 156.686582 68.615848 
L 156.819148 73.245681 
L 156.951715 67.083384 
L 157.084281 69.711925 
L 157.216847 88.76235 
L 157.349413 65.785339 
L 157.481979 64.19289 
L 157.614545 70.309699 
L 157.747112 63.695318 
L 157.879678 64.390422 
L 158.14481 71.450449 
L 158.409942 67.77056 
L 158.542509 70.961381 
L 158.675075 64.625155 
L 158.807641 65.779829 
L 158.940207 71.171058 
L 159.072773 69.763139 
L 159.205339 74.733735 
L 159.470472 57.87195 
L 159.603038 68.928389 
L 160.000736 63.794146 
L 160.133303 74.292243 
L 160.265869 68.565946 
L 160.398435 67.777766 
L 160.531001 70.954727 
L 160.663567 65.984209 
L 160.796133 70.508086 
L 160.9287 66.331104 
L 161.193832 73.543165 
L 161.326398 67.474684 
L 161.59153 71.158701 
L 161.724097 70.557725 
L 161.856663 66.9755 
L 161.989229 75.834199 
L 162.121795 66.876293 
L 162.254361 68.567067 
L 162.386928 67.87103 
L 162.519494 70.057449 
L 162.65206 63.496142 
L 162.917192 82.195983 
L 163.049758 69.611183 
L 163.182325 70.074162 
L 163.314891 79.759535 
L 163.447457 68.770455 
L 163.580023 70.85514 
L 163.845155 62.499142 
L 163.977722 64.737967 
L 164.110288 64.39367 
L 164.242854 71.359617 
L 164.37542 70.015309 
L 164.507986 66.580621 
L 164.640552 60.126092 
L 164.773119 74.337118 
L 164.905685 64.895211 
L 165.303383 70.807766 
L 165.435949 74.939844 
L 165.568516 120.003265 
L 165.701082 66.177926 
L 165.833648 64.788687 
L 166.09878 69.164261 
L 166.231346 75.084674 
L 166.629045 65.683078 
L 166.894177 70.359147 
L 167.15931 64.386894 
L 167.291876 70.860769 
L 167.424442 64.993901 
L 167.557008 66.98029 
L 167.82214 66.779506 
L 168.087273 61.405419 
L 168.219839 68.222044 
L 168.352405 66.583151 
L 168.484971 62.505951 
L 168.617537 63.89747 
L 168.750104 67.273995 
L 168.88267 99.007366 
L 169.015236 65.583735 
L 169.147802 66.875141 
L 169.280368 69.563506 
L 169.412934 63.001242 
L 169.678067 71.257651 
L 169.810633 66.379549 
L 169.943199 69.464401 
L 170.208331 58.920932 
L 170.340898 72.049964 
L 170.473464 62.001117 
L 170.60603 66.183726 
L 170.871162 63.298536 
L 171.268861 73.841991 
L 171.401427 60.658741 
L 171.533993 62.599034 
L 171.666559 72.747285 
L 171.799125 69.465535 
L 171.931692 63.003519 
L 172.064258 74.932046 
L 172.196824 74.436365 
L 172.32939 73.142121 
L 172.594522 66.390769 
L 172.727089 67.376535 
L 172.859655 72.050684 
L 172.992221 69.616514 
L 173.124787 76.226928 
L 173.257353 71.005063 
L 173.389919 71.949107 
L 173.522486 59.562827 
L 173.655052 62.496372 
L 173.920184 75.829793 
L 174.185316 64.6414 
L 174.317883 68.767381 
L 174.583015 83.693933 
L 174.715581 65.782595 
L 174.848147 65.637066 
L 174.980713 70.356715 
L 175.11328 64.637742 
L 175.245846 69.217812 
L 175.378412 68.970719 
L 175.510978 66.28397 
L 175.643544 68.964255 
L 175.77611 62.601395 
L 175.908677 72.496468 
L 176.306375 74.38961 
L 176.571507 66.882422 
L 176.83664 73.938011 
L 177.101772 68.465593 
L 177.366904 74.139053 
L 177.632037 72.048998 
L 177.764603 72.153463 
L 177.897169 65.979236 
L 178.029735 70.010291 
L 178.162301 66.481616 
L 178.294868 67.673121 
L 178.427434 73.99416 
L 178.692566 66.179256 
L 178.825132 71.752824 
L 178.957699 69.067928 
L 179.090265 62.81833 
L 179.222831 72.448382 
L 179.355397 67.178043 
L 179.620529 72.546568 
L 179.753096 64.989627 
L 180.018228 66.478108 
L 180.150794 71.750321 
L 180.28336 66.13394 
L 180.415926 69.709824 
L 180.548493 69.362452 
L 180.681059 65.387088 
L 180.813625 73.641506 
L 180.946191 68.765919 
L 181.078757 71.552829 
L 181.211323 64.885707 
L 181.34389 65.536311 
L 181.476456 63.101663 
L 181.741588 70.307839 
L 181.874154 67.076088 
L 182.00672 67.281745 
L 182.139287 62.703314 
L 182.271853 71.652101 
L 182.404419 62.996979 
L 182.536985 64.990236 
L 182.669551 68.817318 
L 182.934684 63.602987 
L 183.06725 65.104199 
L 183.199816 64.189933 
L 183.332382 64.639226 
L 183.464948 68.670276 
L 183.597514 101.055656 
L 183.862647 67.18323 
L 183.995213 72.346516 
L 184.127779 65.889239 
L 184.260345 68.616181 
L 184.392911 64.835499 
L 184.79061 69.661926 
L 184.923176 70.757449 
L 185.055742 67.426345 
L 185.188308 67.970375 
L 185.320875 69.514398 
L 185.453441 64.88903 
L 185.586007 70.606684 
L 185.718573 63.702068 
L 185.851139 69.460569 
L 185.983705 65.382172 
L 186.116272 66.825296 
L 186.248838 72.941852 
L 186.381404 69.858754 
L 186.51397 64.090735 
L 186.646536 70.065767 
L 186.779102 69.666856 
L 186.911669 69.960806 
L 187.044235 69.766596 
L 187.176801 60.515861 
L 187.441933 68.914518 
L 187.574499 68.57261 
L 187.707066 72.944118 
L 187.839632 61.207166 
L 187.972198 67.27948 
L 188.104764 65.979745 
L 188.23733 73.444846 
L 188.369896 66.925205 
L 188.502463 76.04134 
L 188.767595 67.074487 
L 188.900161 69.765686 
L 189.165293 71.750975 
L 189.430426 67.772901 
L 189.828124 71.652293 
L 189.96069 67.132675 
L 190.093257 71.450291 
L 190.225823 65.091456 
L 190.358389 68.325242 
L 190.490955 68.119713 
L 190.623521 69.563354 
L 190.756087 69.761045 
L 190.888654 63.796411 
L 191.02122 68.764217 
L 191.153786 65.381639 
L 191.286352 66.577406 
L 191.551484 61.608723 
L 191.684051 75.634861 
L 191.949183 67.481279 
L 192.214315 75.137545 
L 192.346881 71.752238 
L 192.479448 73.340371 
L 192.612014 70.259323 
L 192.74458 63.548351 
L 192.877146 83.39085 
L 193.142278 64.78913 
L 193.274845 62.546807 
L 193.407411 75.232141 
L 193.539977 60.711551 
L 193.672543 72.247489 
L 193.805109 66.975638 
L 193.937675 70.860914 
L 194.070242 69.363306 
L 194.202808 108.460194 
L 194.335374 68.917345 
L 194.46794 73.441287 
L 194.733072 66.178689 
L 194.998205 78.117678 
L 195.130771 68.36986 
L 195.263337 73.242958 
L 195.52847 64.288947 
L 195.661036 69.364406 
L 195.793602 68.767655 
L 195.926168 65.78726 
L 196.058734 78.333349 
L 196.1913 62.701345 
L 196.323867 67.274662 
L 196.456433 66.776303 
L 196.588999 295.488 
L 196.854131 67.473626 
L 196.986697 76.09489 
L 197.516962 66.675783 
L 197.649528 249.330468 
L 197.782094 74.984658 
L 197.914661 61.50224 
L 198.047227 64.394741 
L 198.179793 63.596327 
L 198.312359 64.495783 
L 198.444925 70.060857 
L 198.577491 62.13721 
L 198.710058 68.17224 
L 198.842624 68.870769 
L 199.107756 75.231976 
L 199.240322 63.245278 
L 199.372888 101.407662 
L 199.505455 64.694741 
L 199.903153 71.454288 
L 200.168285 67.427089 
L 200.300852 70.059221 
L 200.565984 64.489823 
L 200.831116 72.298691 
L 200.963682 74.88441 
L 201.096249 64.294997 
L 201.228815 72.950085 
L 201.361381 69.912636 
L 201.626513 73.840248 
L 201.759079 67.181368 
L 201.891646 74.137283 
L 202.024212 68.179329 
L 202.156778 74.835654 
L 202.289344 65.690859 
L 202.554476 67.578071 
L 202.687043 66.774736 
L 202.819609 66.879519 
L 202.952175 79.611968 
L 203.084741 75.831896 
L 203.217307 66.381558 
L 203.349873 67.476108 
L 203.48244 63.495499 
L 203.615006 73.291506 
L 203.747572 67.874498 
L 203.880138 204.858052 
L 204.012704 64.838545 
L 204.277837 73.740832 
L 204.410403 65.98133 
L 204.675535 73.539562 
L 204.940667 65.73375 
L 205.2058 72.797069 
L 205.338366 70.604746 
L 205.470932 65.433349 
L 205.603498 78.117108 
L 205.736064 71.008405 
L 205.868631 71.152337 
L 206.133763 68.96767 
L 206.266329 64.491336 
L 206.398895 67.870502 
L 206.531461 67.771547 
L 206.664028 66.329228 
L 206.796594 69.265667 
L 206.92916 66.678112 
L 207.061726 70.112019 
L 207.194292 64.788316 
L 207.326858 69.56069 
L 207.459425 65.985018 
L 207.857123 70.655712 
L 207.989689 65.832665 
L 208.122255 66.927736 
L 208.387388 70.211625 
L 208.519954 68.317387 
L 208.65252 68.573858 
L 208.785086 66.679841 
L 209.182785 72.996063 
L 209.447917 67.372742 
L 209.580483 65.881789 
L 209.713049 67.175386 
L 209.978182 64.692881 
L 210.243314 66.485529 
L 210.37588 69.716871 
L 210.508446 66.629042 
L 210.641013 73.640888 
L 210.773579 66.38225 
L 210.906145 70.161191 
L 211.038711 63.898773 
L 211.171277 67.676037 
L 211.303843 67.373179 
L 211.43641 66.777341 
L 211.568976 68.267793 
L 211.701542 75.231497 
L 211.834108 144.522223 
L 211.966674 65.583294 
L 212.099241 75.233651 
L 212.231807 67.128901 
L 212.364373 70.509389 
L 212.496939 63.697129 
L 212.629505 69.268624 
L 212.762071 91.259456 
L 212.894638 64.388431 
L 213.027204 66.428184 
L 213.15977 64.593191 
L 213.292336 67.179675 
L 213.424902 73.641877 
L 213.557468 66.080338 
L 213.822601 69.465284 
L 213.955167 246.544511 
L 214.087733 65.485921 
L 214.220299 74.435563 
L 214.352865 65.587303 
L 214.485432 70.80343 
L 214.617998 257.088382 
L 214.750564 68.468847 
L 214.88313 69.162847 
L 215.015696 63.893072 
L 215.148262 63.894095 
L 215.413395 70.556636 
L 215.678527 65.286053 
L 215.811093 68.371809 
L 215.943659 66.727686 
L 216.076226 66.478639 
L 216.208792 67.481348 
L 216.341358 62.799795 
L 216.473924 138.362138 
L 216.60649 69.468064 
L 217.004189 67.67328 
L 217.136755 68.169627 
L 217.269321 65.53347 
L 217.401887 66.177602 
L 217.66702 76.225049 
L 217.799586 64.341557 
L 217.932152 67.276823 
L 218.064718 67.720785 
L 218.197284 74.335678 
L 218.32985 71.856408 
L 218.462417 73.143196 
L 218.594983 65.879035 
L 218.727549 67.079241 
L 218.992681 63.699289 
L 219.125247 73.741056 
L 219.257814 61.802527 
L 219.788078 71.202779 
L 219.920644 63.94216 
L 220.053211 104.88016 
L 220.185777 67.127319 
L 220.318343 66.481524 
L 220.450909 70.265941 
L 220.583475 65.984995 
L 220.716041 90.950872 
L 220.848608 67.873589 
L 220.981174 74.589426 
L 221.11374 65.592793 
L 221.246306 68.865767 
L 221.378872 60.310355 
L 221.511438 69.063866 
L 221.644005 68.570731 
L 221.776571 70.061709 
L 221.909137 73.657539 
L 222.041703 63.642321 
L 222.306835 63.496531 
L 222.439402 66.876823 
L 222.571968 64.88989 
L 222.704534 65.336186 
L 222.8371 64.388588 
L 222.969666 68.865813 
L 223.102232 69.314232 
L 223.234799 65.443189 
L 223.367365 68.667304 
L 223.499931 68.467641 
L 223.632497 62.798458 
L 223.765063 70.608698 
L 223.897629 70.058849 
L 224.030196 75.13288 
L 224.162762 67.473796 
L 224.295328 66.482655 
L 224.427894 70.109981 
L 224.56046 69.414546 
L 224.693026 71.851832 
L 224.825593 66.680039 
L 225.090725 70.015177 
L 225.223291 67.077699 
L 225.355857 66.927764 
L 225.488423 64.544557 
L 225.753556 71.852126 
L 225.886122 65.782422 
L 226.018688 69.217914 
L 226.28382 63.844521 
L 226.548953 68.272602 
L 226.814085 69.06544 
L 226.946651 66.479354 
L 227.079217 68.222908 
L 227.211784 65.385684 
L 227.34435 72.160432 
L 227.476916 67.819927 
L 227.609482 70.163499 
L 227.742048 69.809445 
L 228.007181 62.105421 
L 228.272313 73.539428 
L 228.404879 66.874565 
L 228.537445 67.177209 
L 228.670012 73.443973 
L 228.935144 63.99353 
L 229.06771 66.206931 
L 229.200276 65.783602 
L 229.332842 62.399706 
L 229.465409 68.571138 
L 229.597975 68.071096 
L 229.730541 146.068017 
L 229.995673 65.483209 
L 230.128239 70.755716 
L 230.393372 68.915195 
L 230.525938 61.703492 
L 230.658504 65.189448 
L 230.79107 101.498327 
L 230.923636 66.079204 
L 231.056203 61.901351 
L 231.188769 65.383378 
L 231.453901 65.785245 
L 231.586467 68.375746 
L 231.719033 63.003959 
L 231.8516 81.102972 
L 231.984166 65.637934 
L 232.249298 62.904925 
L 232.381864 69.523539 
L 232.51443 70.45577 
L 232.646997 66.377448 
L 232.779563 67.774003 
L 232.912129 65.783129 
L 233.044695 72.05145 
L 233.177261 61.254615 
L 233.309827 68.371533 
L 233.442394 68.221167 
L 233.57496 66.580244 
L 233.707526 73.744699 
L 233.840092 65.285867 
L 233.972658 66.577637 
L 234.105224 64.387266 
L 234.370357 70.058176 
L 234.502923 68.769758 
L 234.635489 68.96872 
L 234.768055 66.281374 
L 234.900621 66.384143 
L 235.033188 73.939686 
L 235.29832 67.622449 
L 235.430886 72.248838 
L 235.696018 63.100347 
L 235.828585 67.773429 
L 235.961151 66.484224 
L 236.093717 71.649394 
L 236.358849 65.884684 
L 236.491415 66.925253 
L 236.623982 65.685613 
L 237.02168 71.160518 
L 237.154246 66.278888 
L 237.286812 65.930146 
L 237.419379 68.068895 
L 237.551945 67.523356 
L 237.684511 68.130992 
L 237.817077 64.739353 
L 237.949643 71.152269 
L 238.082209 63.501381 
L 238.214776 68.717662 
L 238.347342 69.462824 
L 238.479908 67.67638 
L 238.612474 74.335633 
L 238.74504 74.436877 
L 239.142739 61.802245 
L 239.275305 65.137985 
L 239.407871 64.887101 
L 239.540437 70.357217 
L 239.673003 67.228536 
L 239.80557 68.37261 
L 240.070702 66.4773 
L 240.203268 71.255581 
L 240.335834 66.543261 
L 240.600967 71.305575 
L 240.733533 65.984428 
L 240.866099 69.562831 
L 240.998665 64.489543 
L 241.131231 68.768429 
L 241.263797 64.786397 
L 241.396364 65.684864 
L 241.52893 56.136319 
L 241.794062 71.301933 
L 241.926628 70.208619 
L 242.059194 71.90262 
L 242.324327 64.983889 
L 242.456893 67.095284 
L 242.589459 63.294116 
L 242.722025 69.364914 
L 242.854591 64.686485 
L 242.987158 67.373374 
L 243.119724 63.892112 
L 243.25229 68.021445 
L 243.517422 64.589899 
L 243.782555 70.554732 
L 243.915121 70.955785 
L 244.180253 64.148333 
L 244.445386 69.46025 
L 244.577952 65.48756 
L 244.710518 68.867572 
L 244.97565 67.17442 
L 245.108216 71.056789 
L 245.240783 70.612758 
L 245.373349 68.068391 
L 245.505915 75.433503 
L 245.638481 70.25653 
L 246.168746 69.364232 
L 246.301312 62.699515 
L 246.433878 70.260117 
L 246.69901 63.894456 
L 246.831577 71.355506 
L 246.964143 66.9752 
L 247.096709 69.06592 
L 247.229275 66.483462 
L 247.494407 68.665681 
L 247.626974 64.691648 
L 247.892106 72.147578 
L 248.024672 66.777248 
L 248.157238 68.020117 
L 248.289804 66.28718 
L 248.422371 73.940111 
L 248.554937 67.476292 
L 248.687503 68.915659 
L 248.820069 73.740274 
L 248.952635 66.678803 
L 249.085201 68.318691 
L 249.217768 66.578168 
L 249.350334 67.182864 
L 249.4829 65.931107 
L 249.748032 70.509167 
L 249.880598 59.721439 
L 250.013165 69.068909 
L 250.145731 68.965413 
L 250.278297 64.939885 
L 250.410863 68.468069 
L 250.543429 67.775447 
L 250.675995 87.667095 
L 250.808562 65.335812 
L 250.941128 69.262468 
L 251.073694 68.271755 
L 251.20626 65.58246 
L 251.338826 65.182903 
L 251.471392 66.330906 
L 251.603959 66.378625 
L 251.736525 73.738083 
L 251.869091 68.219209 
L 252.001657 71.75023 
L 252.266789 65.093427 
L 252.399356 70.706101 
L 252.664488 64.989464 
L 252.92962 68.715276 
L 253.062186 67.772763 
L 253.194753 74.885962 
L 253.327319 65.82919 
L 253.459885 66.730654 
L 253.725017 71.750625 
L 253.857583 68.370092 
L 253.99015 68.121834 
L 254.122716 70.515542 
L 254.255282 70.86455 
L 254.387848 67.474408 
L 254.520414 67.98067 
L 254.65298 67.92047 
L 254.785547 65.930489 
L 254.918113 67.969183 
L 255.050679 66.576057 
L 255.580944 73.044536 
L 255.71351 67.869722 
L 255.846076 71.955483 
L 256.111208 66.08584 
L 256.243774 71.55252 
L 256.376341 65.737581 
L 256.508907 65.987701 
L 256.641473 64.144128 
L 256.774039 67.721438 
L 256.906605 65.636519 
L 257.039171 60.209047 
L 257.171738 65.978797 
L 257.304304 65.185247 
L 257.43687 60.707317 
L 257.569436 70.256936 
L 257.702002 67.3715 
L 257.967135 73.143319 
L 258.099701 73.543534 
L 258.232267 66.629037 
L 258.364833 67.971809 
L 258.497399 67.471674 
L 258.762532 68.568917 
L 258.895098 65.580908 
L 259.027664 67.475327 
L 259.16023 71.154259 
L 259.292796 69.224137 
L 259.425362 65.385911 
L 259.557929 64.994086 
L 259.690495 63.398154 
L 259.823061 59.524786 
L 259.955627 71.352027 
L 260.088193 63.894469 
L 260.353326 66.929097 
L 260.485892 68.669179 
L 260.618458 68.616393 
L 260.751024 62.497898 
L 260.88359 69.662382 
L 261.016157 64.497178 
L 261.413855 68.070411 
L 261.678987 68.370024 
L 261.811554 68.070018 
L 261.94412 64.79006 
L 262.076686 73.44075 
L 262.209252 71.953974 
L 262.341818 72.348221 
L 262.474384 67.471099 
L 262.739517 69.067505 
L 263.004649 73.738773 
L 263.137215 68.669842 
L 263.269781 69.118433 
L 263.402348 75.4842 
L 263.534914 66.378094 
L 263.66748 66.377817 
L 263.800046 68.269593 
L 263.932612 65.58202 
L 264.065178 65.633001 
L 264.197745 66.079483 
L 264.330311 61.999446 
L 264.462877 62.705211 
L 264.728009 66.874151 
L 264.860575 67.622403 
L 264.993142 62.399172 
L 265.125708 68.768569 
L 265.258274 68.021918 
L 265.523406 64.196713 
L 265.655972 66.534452 
L 265.788539 74.136621 
L 265.921105 66.48068 
L 266.053671 72.5489 
L 266.318803 77.832791 
L 266.583936 66.52976 
L 266.716502 70.259368 
L 266.849068 64.83817 
L 266.981634 66.382735 
L 267.1142 62.847445 
L 267.379333 69.264987 
L 267.511899 62.896325 
L 267.777031 69.760522 
L 267.909597 65.488656 
L 268.042163 65.580769 
L 268.17473 66.032427 
L 268.307296 60.757963 
L 268.572428 70.70798 
L 268.83756 63.642141 
L 268.970127 68.972168 
L 269.102693 68.665521 
L 269.235259 64.939434 
L 269.632957 67.127828 
L 269.765524 65.681457 
L 269.89809 68.070775 
L 270.030656 65.386605 
L 270.163222 67.276777 
L 270.560921 64.935997 
L 270.693487 67.67776 
L 270.826053 66.725665 
L 270.958619 68.270061 
L 271.091185 67.172993 
L 271.488884 67.029956 
L 271.754016 64.786456 
L 272.019148 65.980786 
L 272.151715 67.275536 
L 272.284281 56.781117 
L 272.416847 65.33386 
L 272.549413 64.986816 
L 272.681979 67.474914 
L 272.814545 65.383652 
L 272.947112 66.380079 
L 273.212244 64.09384 
L 273.34481 63.991338 
L 273.477376 68.224521 
L 273.609942 67.5735 
L 273.875075 69.91374 
L 274.140207 63.594925 
L 274.272773 64.392133 
L 274.405339 67.770216 
L 274.537906 61.105439 
L 274.670472 66.477093 
L 274.935604 64.487332 
L 275.06817 66.380842 
L 275.333303 63.44605 
L 275.465869 66.777963 
L 275.598435 62.90462 
L 275.731001 68.170601 
L 275.996133 70.257892 
L 276.1287 68.568073 
L 276.393832 62.702466 
L 276.658964 62.900094 
L 276.924097 73.346036 
L 277.056663 63.789687 
L 277.189229 64.985515 
L 277.321795 67.523277 
L 277.719494 64.991508 
L 278.117192 64.697044 
L 278.382325 61.453779 
L 278.647457 71.504488 
L 278.780023 73.839377 
L 279.177722 67.775334 
L 279.310288 68.519912 
L 279.442854 65.283501 
L 279.57542 65.582988 
L 279.707986 71.749351 
L 279.973119 70.657479 
L 280.105685 86.330525 
L 280.238251 70.06163 
L 280.370817 74.189107 
L 280.503383 63.096578 
L 280.768516 69.367005 
L 280.901082 60.410406 
L 281.166214 66.277571 
L 281.29878 71.755237 
L 281.431346 68.865402 
L 281.563913 72.796739 
L 281.696479 65.978542 
L 281.829045 69.374463 
L 281.961611 65.484105 
L 282.226743 66.973358 
L 282.35931 63.992877 
L 282.491876 69.662232 
L 282.757008 67.27868 
L 282.889574 69.8646 
L 283.02214 65.635459 
L 283.287273 64.145125 
L 283.419839 65.983943 
L 283.684971 65.388664 
L 283.817537 67.872911 
L 284.08267 66.080755 
L 284.215236 63.997263 
L 284.347802 68.466806 
L 284.612934 70.759725 
L 284.745501 68.269786 
L 284.878067 61.205418 
L 285.143199 64.194452 
L 285.408331 68.66863 
L 285.673464 70.159749 
L 285.80603 73.443548 
L 285.938596 67.324439 
L 286.203728 68.277159 
L 286.601427 64.193527 
L 286.733993 65.936077 
L 286.866559 62.152813 
L 287.131692 64.042589 
L 287.396824 56.827084 
L 287.52939 68.021917 
L 287.927089 65.687061 
L 288.324787 67.869745 
L 288.722486 63.394511 
L 288.987618 70.062629 
L 289.120184 67.771201 
L 289.25275 68.570303 
L 289.385316 65.586723 
L 289.517883 68.865379 
L 289.783015 60.459607 
L 290.048147 65.184899 
L 290.180713 70.162906 
L 290.31328 66.481178 
L 290.445846 68.767861 
L 290.578412 66.529894 
L 290.710978 68.470581 
L 290.97611 62.998196 
L 291.108677 67.774791 
L 291.373809 62.201799 
L 291.506375 67.175516 
L 291.638941 64.88989 
L 291.904074 70.809249 
L 292.03664 65.979213 
L 292.169206 66.87551 
L 292.301772 64.792105 
L 292.434338 69.417996 
L 292.566904 63.794357 
L 292.832037 68.970273 
L 293.097169 65.087176 
L 293.229735 67.679319 
L 293.494868 68.366201 
L 293.627434 69.365347 
L 293.892566 63.295496 
L 294.157699 69.81286 
L 294.290265 65.73731 
L 294.422831 65.431949 
L 294.555397 67.373937 
L 294.687963 63.601047 
L 295.218228 70.755671 
L 295.350794 67.672179 
L 295.48336 68.071096 
L 295.615926 66.033928 
L 295.748493 70.022605 
L 295.881059 100.403544 
L 296.146191 67.076433 
L 296.278757 65.634189 
L 296.676456 67.824855 
L 296.941588 64.397932 
L 297.20672 65.886139 
L 297.339287 68.868462 
L 297.471853 62.500175 
L 297.604419 66.27764 
L 297.869551 65.183762 
L 298.002117 63.193766 
L 298.134684 65.689539 
L 298.26725 73.244852 
L 298.399816 66.976881 
L 298.664948 66.774044 
L 298.797514 67.772465 
L 298.930081 58.122407 
L 299.062647 66.579345 
L 299.195213 59.513663 
L 299.327779 69.464738 
L 299.460345 64.992623 
L 299.592911 71.954402 
L 299.725478 66.57653 
L 300.123176 71.850335 
L 300.255742 62.198132 
L 300.520875 65.830037 
L 300.653441 64.691148 
L 301.448838 68.473052 
L 301.846536 68.869977 
L 302.111669 70.010094 
L 302.509367 66.629951 
L 302.774499 66.681847 
L 302.907066 69.215956 
L 303.039632 64.592446 
L 303.569896 60.906354 
L 303.702463 68.375906 
L 303.835029 65.932619 
L 304.365293 61.30339 
L 304.630426 67.871512 
L 305.028124 62.8978 
L 305.293257 63.493862 
L 305.558389 65.785454 
L 305.690955 74.735348 
L 306.088654 65.787908 
L 306.353786 62.802116 
L 306.486352 67.572191 
L 306.618918 64.043272 
L 306.884051 66.379087 
L 307.016617 63.097491 
L 307.281749 64.487122 
L 307.414315 71.848451 
L 307.679448 65.635943 
L 308.342278 69.364299 
L 308.607411 64.593912 
L 309.137675 63.989518 
L 309.270242 61.104612 
L 309.535374 72.348479 
L 309.66794 66.631095 
L 309.800506 71.849826 
L 310.065639 64.390736 
L 310.198205 66.825832 
L 310.463337 65.143029 
L 310.595903 67.875021 
L 310.993602 66.476516 
L 311.126168 65.339347 
L 311.3913 65.790616 
L 311.523867 64.785503 
L 311.788999 66.078489 
L 313.114661 74.834564 
L 313.379793 66.527854 
L 313.512359 68.768112 
L 313.910058 53.568 
L 314.17519 67.323756 
L 314.307756 67.280917 
L 314.440322 77.321427 
L 315.103153 63.996236 
L 315.235719 66.581836 
L 315.500852 66.874012 
L 315.633418 66.679518 
L 315.89855 63.303574 
L 316.296249 68.270816 
L 316.428815 72.497725 
L 316.693947 68.075382 
L 316.826513 74.387659 
L 317.356778 68.47049 
L 317.489344 63.401153 
L 318.284741 67.374666 
L 318.815006 65.036702 
L 319.080138 64.441475 
L 319.212704 66.231466 
L 319.34527 75.133702 
L 319.610403 78.815937 
L 320.140667 62.051541 
L 320.4058 65.533709 
L 320.670932 65.585403 
L 320.803498 69.463337 
L 321.201197 70.456292 
L 321.466329 69.163897 
L 321.996594 70.855946 
L 322.12916 62.299824 
L 322.261726 72.452368 
L 322.394292 62.898667 
L 322.924557 66.278264 
L 323.057123 72.347894 
L 323.85252 71.701583 
L 324.382785 71.55195 
L 324.780483 73.644011 
L 325.045616 70.907137 
L 325.310748 64.192914 
L 325.708446 67.574672 
L 325.973579 64.142123 
L 326.106145 65.581117 
L 326.503843 68.169089 
L 326.901542 65.686783 
L 327.034108 66.583312 
L 327.166674 73.641529 
L 327.431807 59.017793 
L 327.696939 64.690276 
L 328.492336 62.399921 
L 329.022601 61.503937 
L 329.155167 69.959659 
L 329.287733 69.764026 
L 329.817998 66.381869 
L 330.08313 70.061483 
L 330.348262 183.223076 
L 330.613395 71.456026 
L 330.878527 69.86187 
L 331.011093 68.368305 
L 331.80649 68.46911 
L 331.939056 70.857463 
L 332.336755 64.591539 
L 332.601887 67.473363 
L 332.86702 66.381765 
L 333.264718 67.475327 
L 333.52985 69.564356 
L 333.662417 59.926759 
L 333.794983 66.875763 
L 334.060115 68.617661 
L 334.325247 66.083182 
L 334.59038 76.725006 
L 334.855512 68.173007 
L 335.783475 66.27868 
L 335.916041 69.067878 
L 336.181174 61.605753 
L 336.711438 70.756305 
L 336.844005 69.616641 
L 336.976571 71.055274 
L 337.241703 70.458223 
L 337.506835 67.872865 
L 337.904534 71.155841 
L 338.169666 71.752598 
L 338.302232 74.140794 
L 338.434799 64.784968 
L 338.699931 67.770239 
L 338.832497 62.301845 
L 338.965063 64.986851 
L 339.893026 68.175008 
L 340.423291 71.949918 
L 340.555857 64.396907 
L 340.953556 68.969793 
L 341.616387 68.817249 
L 341.748953 69.115134 
L 342.279217 69.168732 
L 342.411784 65.295517 
L 342.54435 69.871011 
L 342.676916 66.078835 
L 342.809482 293.498142 
L 343.074614 65.484234 
L 343.472313 63.893979 
L 343.604879 66.281085 
L 343.737445 71.15254 
L 344.002578 75.432195 
L 344.26771 64.884522 
L 344.532842 66.775773 
L 344.665409 295.090095 
L 344.930541 63.796855 
L 345.063107 76.52476 
L 345.195673 64.6897 
L 345.328239 278.178034 
L 345.460806 67.174259 
L 345.725938 61.304794 
L 345.858504 75.678419 
L 345.99107 182.28325 
L 346.521335 75.430508 
L 346.653901 294.691988 
L 346.919033 69.862961 
L 347.581864 74.138763 
L 347.979563 67.575855 
L 348.112129 71.056653 
L 348.377261 73.540994 
L 348.509827 88.066572 
L 349.305224 63.098404 
L 349.437791 68.120168 
L 349.570357 65.784945 
L 349.968055 68.814015 
L 350.100621 71.750591 
L 350.365754 55.785153 
L 351.028585 62.502523 
L 351.161151 61.309117 
L 351.293717 58.725881 
L 351.426283 79.907393 
L 351.558849 72.945279 
L 352.354246 64.142245 
L 352.751945 77.918954 
L 352.884511 68.568192 
L 353.282209 67.075114 
L 353.547342 68.367414 
L 355.535834 68.26958 
L 355.800967 79.111526 
L 356.331231 66.928842 
L 357.789459 69.664146 
L 358.584856 68.07144 
L 359.910518 66.527512 
L 360.043084 63.99689 
L 360.17565 69.268647 
L 363.357238 59.511211 
L 366.671392 66.676959 
L 368.527319 65.879429 
L 370.515811 61.800808 
L 372.769436 65.093055 
L 377.806951 65.779922 
L 377.939517 69.464692 
L 379.132612 56.934138 
L 381.253671 65.683006 
L 385.09809 67.026075 
L 386.423751 68.465799 
L 386.688884 65.135065 
L 389.472773 65.580537 
L 389.737906 66.278149 
L 390.665869 66.97702 
L 390.931001 66.578652 
L 392.389229 63.995327 
L 392.786928 61.304877 
L 393.184626 66.575745 
L 393.980023 66.630327 
L 394.112589 64.691136 
L 394.642854 64.692113 
L 394.77542 63.789967 
L 395.968516 69.16693 
L 396.101082 67.377143 
L 396.233648 69.164033 
L 396.49878 65.384932 
L 397.55931 63.298046 
L 398.487273 64.888774 
L 398.487273 64.888774 
" style="fill:none;stroke:#0000ff;stroke-linecap:square;stroke-width:1.5;"/>
   </g>
   <g id="patch_3">
    <path d="M 57.6 307.584 
L 57.6 41.472 
" style="fill:none;stroke:#000000;stroke-linecap:square;stroke-linejoin:miter;stroke-width:0.8;"/>
   </g>
   <g id="patch_4">
    <path d="M 414.72 307.584 
L 414.72 41.472 
" style="fill:none;stroke:#000000;stroke-linecap:square;stroke-linejoin:miter;stroke-width:0.8;"/>
   </g>
   <g id="patch_5">
    <path d="M 57.6 307.584 
L 414.72 307.584 
" style="fill:none;stroke:#000000;stroke-linecap:square;stroke-linejoin:miter;stroke-width:0.8;"/>
   </g>
   <g id="patch_6">
    <path d="M 57.6 41.472 
L 414.72 41.472 
" style="fill:none;stroke:#000000;stroke-linecap:square;stroke-linejoin:miter;stroke-width:0.8;"/>
   </g>
   <g id="text_17">
    <!-- temperature-&gt;Throughput -->
    <g transform="translate(156.40875 35.472)scale(0.12 -0.12)">
     <defs>
      <path d="M 4.890625 31.390625 
L 31.203125 31.390625 
L 31.203125 23.390625 
L 4.890625 23.390625 
z
" id="DejaVuSans-45"/>
      <path d="M 10.59375 49.21875 
L 10.59375 58.109375 
L 73.1875 35.40625 
L 73.1875 27.296875 
L 10.59375 4.59375 
L 10.59375 13.484375 
L 60.890625 31.296875 
z
" id="DejaVuSans-62"/>
     </defs>
     <use xlink:href="#DejaVuSans-116"/>
     <use x="39.208984" xlink:href="#DejaVuSans-101"/>
     <use x="100.732422" xlink:href="#DejaVuSans-109"/>
     <use x="198.144531" xlink:href="#DejaVuSans-112"/>
     <use x="261.621094" xlink:href="#DejaVuSans-101"/>
     <use x="323.144531" xlink:href="#DejaVuSans-114"/>
     <use x="364.257812" xlink:href="#DejaVuSans-97"/>
     <use x="425.537109" xlink:href="#DejaVuSans-116"/>
     <use x="464.746094" xlink:href="#DejaVuSans-117"/>
     <use x="528.125" xlink:href="#DejaVuSans-114"/>
     <use x="566.988281" xlink:href="#DejaVuSans-101"/>
     <use x="628.511719" xlink:href="#DejaVuSans-45"/>
     <use x="664.595703" xlink:href="#DejaVuSans-62"/>
     <use x="748.384766" xlink:href="#DejaVuSans-84"/>
     <use x="809.46875" xlink:href="#DejaVuSans-104"/>
     <use x="872.847656" xlink:href="#DejaVuSans-114"/>
     <use x="911.710938" xlink:href="#DejaVuSans-111"/>
     <use x="972.892578" xlink:href="#DejaVuSans-117"/>
     <use x="1036.271484" xlink:href="#DejaVuSans-103"/>
     <use x="1099.748047" xlink:href="#DejaVuSans-104"/>
     <use x="1163.126953" xlink:href="#DejaVuSans-112"/>
     <use x="1226.603516" xlink:href="#DejaVuSans-117"/>
     <use x="1289.982422" xlink:href="#DejaVuSans-116"/>
    </g>
   </g>
  </g>
  <g id="legend_1">
   <g id="patch_7">
    <path d="M 333.779688 22.678125 
L 453.8 22.678125 
Q 455.8 22.678125 455.8 20.678125 
L 455.8 7 
Q 455.8 5 453.8 5 
L 333.779688 5 
Q 331.779688 5 331.779688 7 
L 331.779688 20.678125 
Q 331.779688 22.678125 333.779688 22.678125 
z
" style="fill:#ffffff;opacity:0.8;stroke:#cccccc;stroke-linejoin:miter;"/>
   </g>
   <g id="line2d_15">
    <path d="M 335.779688 13.098438 
L 355.779688 13.098438 
" style="fill:none;stroke:#0000ff;stroke-linecap:square;stroke-width:1.5;"/>
   </g>
   <g id="line2d_16"/>
   <g id="text_18">
    <!-- Throughput[Bit/s] -->
    <g transform="translate(363.779688 16.598438)scale(0.1 -0.1)">
     <use xlink:href="#DejaVuSans-84"/>
     <use x="61.083984" xlink:href="#DejaVuSans-104"/>
     <use x="124.462891" xlink:href="#DejaVuSans-114"/>
     <use x="163.326172" xlink:href="#DejaVuSans-111"/>
     <use x="224.507812" xlink:href="#DejaVuSans-117"/>
     <use x="287.886719" xlink:href="#DejaVuSans-103"/>
     <use x="351.363281" xlink:href="#DejaVuSans-104"/>
     <use x="414.742188" xlink:href="#DejaVuSans-112"/>
     <use x="478.21875" xlink:href="#DejaVuSans-117"/>
     <use x="541.597656" xlink:href="#DejaVuSans-116"/>
     <use x="580.806641" xlink:href="#DejaVuSans-91"/>
     <use x="619.820312" xlink:href="#DejaVuSans-66"/>
     <use x="688.423828" xlink:href="#DejaVuSans-105"/>
     <use x="716.207031" xlink:href="#DejaVuSans-116"/>
     <use x="755.416016" xlink:href="#DejaVuSans-47"/>
     <use x="789.107422" xlink:href="#DejaVuSans-115"/>
     <use x="841.207031" xlink:href="#DejaVuSans-93"/>
    </g>
   </g>
  </g>
 </g>
 <defs>
  <clipPath id="p3f3ddc54a4">
   <rect height="266.112" width="357.12" x="57.6" y="41.472"/>
  </clipPath>
 </defs>
</svg>
