<?xml version="1.0" encoding="utf-8" standalone="no"?>
<!DOCTYPE svg PUBLIC "-//W3C//DTD SVG 1.1//EN"
  "http://www.w3.org/Graphics/SVG/1.1/DTD/svg11.dtd">
<!-- Created with matplotlib (https://matplotlib.org/) -->
<svg height="2090.594375pt" version="1.1" viewBox="0 0 2065.44375 2090.594375" width="2065.44375pt" xmlns="http://www.w3.org/2000/svg" xmlns:xlink="http://www.w3.org/1999/xlink">
 <metadata>
  <rdf:RDF xmlns:cc="http://creativecommons.org/ns#" xmlns:dc="http://purl.org/dc/elements/1.1/" xmlns:rdf="http://www.w3.org/1999/02/22-rdf-syntax-ns#">
   <cc:Work>
    <dc:type rdf:resource="http://purl.org/dc/dcmitype/StillImage"/>
    <dc:date>2022-07-24T12:02:41.614721</dc:date>
    <dc:format>image/svg+xml</dc:format>
    <dc:creator>
     <cc:Agent>
      <dc:title>Matplotlib v3.3.2, https://matplotlib.org/</dc:title>
     </cc:Agent>
    </dc:creator>
   </cc:Work>
  </rdf:RDF>
 </metadata>
 <defs>
  <style type="text/css">*{stroke-linecap:butt;stroke-linejoin:round;}</style>
 </defs>
 <g id="figure_1">
  <g id="patch_1">
   <path d="M 0 2090.594375 
L 2065.44375 2090.594375 
L 2065.44375 0 
L 0 0 
z
" style="fill:#ffffff;"/>
  </g>
  <g id="axes_1">
   <g id="patch_2">
    <path d="M 47.24375 2052.76 
L 1832.84375 2052.76 
L 1832.84375 278.68 
L 47.24375 278.68 
z
" style="fill:#ffffff;"/>
   </g>
   <g id="matplotlib.axis_1">
    <g id="xtick_1">
     <g id="line2d_1">
      <defs>
       <path d="M 0 0 
L 0 3.5 
" id="md5dc015b6c" style="stroke:#000000;stroke-width:0.8;"/>
      </defs>
      <g>
       <use style="stroke:#000000;stroke-width:0.8;" x="76.422413" xlink:href="#md5dc015b6c" y="2052.76"/>
      </g>
     </g>
     <g id="text_1">
      <text style="font-family:DejaVu Sans;font-size:10px;font-stretch:normal;font-style:normal;font-weight:normal;text-anchor:middle;" transform="rotate(-0, 76.422413, 2067.358437)" x="76.422413" y="2067.358437">0</text>
     </g>
    </g>
    <g id="xtick_2">
     <g id="line2d_2">
      <g>
       <use style="stroke:#000000;stroke-width:0.8;" x="411.80934" xlink:href="#md5dc015b6c" y="2052.76"/>
      </g>
     </g>
     <g id="text_2">
      <text style="font-family:DejaVu Sans;font-size:10px;font-stretch:normal;font-style:normal;font-weight:normal;text-anchor:middle;" transform="rotate(-0, 411.80934, 2067.358437)" x="411.80934" y="2067.358437">2</text>
     </g>
    </g>
    <g id="xtick_3">
     <g id="line2d_3">
      <g>
       <use style="stroke:#000000;stroke-width:0.8;" x="747.196267" xlink:href="#md5dc015b6c" y="2052.76"/>
      </g>
     </g>
     <g id="text_3">
      <text style="font-family:DejaVu Sans;font-size:10px;font-stretch:normal;font-style:normal;font-weight:normal;text-anchor:middle;" transform="rotate(-0, 747.196267, 2067.358437)" x="747.196267" y="2067.358437">4</text>
     </g>
    </g>
    <g id="xtick_4">
     <g id="line2d_4">
      <g>
       <use style="stroke:#000000;stroke-width:0.8;" x="1082.583194" xlink:href="#md5dc015b6c" y="2052.76"/>
      </g>
     </g>
     <g id="text_4">
      <text style="font-family:DejaVu Sans;font-size:10px;font-stretch:normal;font-style:normal;font-weight:normal;text-anchor:middle;" transform="rotate(-0, 1082.583194, 2067.358437)" x="1082.583194" y="2067.358437">6</text>
     </g>
    </g>
    <g id="xtick_5">
     <g id="line2d_5">
      <g>
       <use style="stroke:#000000;stroke-width:0.8;" x="1417.970121" xlink:href="#md5dc015b6c" y="2052.76"/>
      </g>
     </g>
     <g id="text_5">
      <text style="font-family:DejaVu Sans;font-size:10px;font-stretch:normal;font-style:normal;font-weight:normal;text-anchor:middle;" transform="rotate(-0, 1417.970121, 2067.358437)" x="1417.970121" y="2067.358437">8</text>
     </g>
    </g>
    <g id="xtick_6">
     <g id="line2d_6">
      <g>
       <use style="stroke:#000000;stroke-width:0.8;" x="1753.357048" xlink:href="#md5dc015b6c" y="2052.76"/>
      </g>
     </g>
     <g id="text_6">
      <text style="font-family:DejaVu Sans;font-size:10px;font-stretch:normal;font-style:normal;font-weight:normal;text-anchor:middle;" transform="rotate(-0, 1753.357048, 2067.358437)" x="1753.357048" y="2067.358437">10</text>
     </g>
    </g>
    <g id="text_7">
     <text style="font-family:DejaVu Sans;font-size:10px;font-stretch:normal;font-style:normal;font-weight:normal;text-anchor:middle;" transform="rotate(-0, 940.04375, 2081.036562)" x="940.04375" y="2081.036562">wind_speed from OpenWeatherMap</text>
    </g>
   </g>
   <g id="matplotlib.axis_2">
    <g id="ytick_1">
     <g id="line2d_7">
      <defs>
       <path d="M 0 0 
L -3.5 0 
" id="m45345ea7a1" style="stroke:#000000;stroke-width:0.8;"/>
      </defs>
      <g>
       <use style="stroke:#000000;stroke-width:0.8;" x="47.24375" xlink:href="#m45345ea7a1" y="1972.12"/>
      </g>
     </g>
     <g id="text_8">
      <text style="font-family:DejaVu Sans;font-size:10px;font-stretch:normal;font-style:normal;font-weight:normal;text-anchor:end;" transform="rotate(-0, 40.24375, 1975.919219)" x="40.24375" y="1975.919219">0</text>
     </g>
    </g>
    <g id="ytick_2">
     <g id="line2d_8">
      <g>
       <use style="stroke:#000000;stroke-width:0.8;" x="47.24375" xlink:href="#m45345ea7a1" y="1726.266341"/>
      </g>
     </g>
     <g id="text_9">
      <text style="font-family:DejaVu Sans;font-size:10px;font-stretch:normal;font-style:normal;font-weight:normal;text-anchor:end;" transform="rotate(-0, 40.24375, 1730.06556)" x="40.24375" y="1730.06556">50</text>
     </g>
    </g>
    <g id="ytick_3">
     <g id="line2d_9">
      <g>
       <use style="stroke:#000000;stroke-width:0.8;" x="47.24375" xlink:href="#m45345ea7a1" y="1480.412683"/>
      </g>
     </g>
     <g id="text_10">
      <text style="font-family:DejaVu Sans;font-size:10px;font-stretch:normal;font-style:normal;font-weight:normal;text-anchor:end;" transform="rotate(-0, 40.24375, 1484.211902)" x="40.24375" y="1484.211902">100</text>
     </g>
    </g>
    <g id="ytick_4">
     <g id="line2d_10">
      <g>
       <use style="stroke:#000000;stroke-width:0.8;" x="47.24375" xlink:href="#m45345ea7a1" y="1234.559024"/>
      </g>
     </g>
     <g id="text_11">
      <text style="font-family:DejaVu Sans;font-size:10px;font-stretch:normal;font-style:normal;font-weight:normal;text-anchor:end;" transform="rotate(-0, 40.24375, 1238.358243)" x="40.24375" y="1238.358243">150</text>
     </g>
    </g>
    <g id="ytick_5">
     <g id="line2d_11">
      <g>
       <use style="stroke:#000000;stroke-width:0.8;" x="47.24375" xlink:href="#m45345ea7a1" y="988.705366"/>
      </g>
     </g>
     <g id="text_12">
      <text style="font-family:DejaVu Sans;font-size:10px;font-stretch:normal;font-style:normal;font-weight:normal;text-anchor:end;" transform="rotate(-0, 40.24375, 992.504585)" x="40.24375" y="992.504585">200</text>
     </g>
    </g>
    <g id="ytick_6">
     <g id="line2d_12">
      <g>
       <use style="stroke:#000000;stroke-width:0.8;" x="47.24375" xlink:href="#m45345ea7a1" y="742.851707"/>
      </g>
     </g>
     <g id="text_13">
      <text style="font-family:DejaVu Sans;font-size:10px;font-stretch:normal;font-style:normal;font-weight:normal;text-anchor:end;" transform="rotate(-0, 40.24375, 746.650926)" x="40.24375" y="746.650926">250</text>
     </g>
    </g>
    <g id="ytick_7">
     <g id="line2d_13">
      <g>
       <use style="stroke:#000000;stroke-width:0.8;" x="47.24375" xlink:href="#m45345ea7a1" y="496.998049"/>
      </g>
     </g>
     <g id="text_14">
      <text style="font-family:DejaVu Sans;font-size:10px;font-stretch:normal;font-style:normal;font-weight:normal;text-anchor:end;" transform="rotate(-0, 40.24375, 500.797268)" x="40.24375" y="500.797268">300</text>
     </g>
    </g>
    <g id="text_15">
     <text style="font-family:DejaVu Sans;font-size:10px;font-stretch:normal;font-style:normal;font-weight:normal;text-anchor:middle;" transform="rotate(-90, 14.798438, 1165.72)" x="14.798438" y="1165.72">Retransmission_day[dimensionless]</text>
    </g>
   </g>
   <g id="line2d_14">
    <path clip-path="url(#p9b58fe4dfd)" d="M 128.407386 841.193171 
L 155.238341 1942.617561 
L 163.623014 816.607805 
L 178.715425 1800.022439 
L 183.746229 1155.885854 
L 185.423164 1495.163902 
L 202.19251 1032.959024 
L 205.54638 674.012683 
L 207.223314 713.349268 
L 215.607987 1209.973659 
L 218.961857 737.934634 
L 232.377334 570.754146 
L 234.054268 688.763902 
L 240.762007 674.012683 
L 244.115876 777.27122 
L 252.500549 1972.12 
L 254.177484 1465.661463 
L 257.531353 1209.973659 
L 262.562157 1608.256585 
L 264.239092 905.115122 
L 267.592961 757.602927 
L 269.269896 855.94439 
L 272.623765 752.685854 
L 282.685373 895.280976 
L 284.362307 1406.656585 
L 289.393111 787.105366 
L 291.070046 1686.929756 
L 292.746981 1972.12 
L 294.423915 1431.241951 
L 297.777785 914.949268 
L 302.808588 1903.280976 
L 309.516327 1391.905366 
L 314.547131 482.246829 
L 317.901 762.52 
L 321.254869 1229.641951 
L 322.931804 1972.12 
L 326.285673 1347.651707 
L 331.316477 634.676098 
L 332.993412 713.349268 
L 338.024216 1495.163902 
L 341.378085 1868.861463 
L 344.731954 359.32 
L 349.762758 1962.285854 
L 354.793562 1962.285854 
L 359.824366 1863.94439 
L 363.178235 733.017561 
L 364.85517 1942.617561 
L 366.532105 1032.959024 
L 368.209039 1401.739512 
L 369.885974 1441.076098 
L 373.239843 836.276098 
L 374.916778 644.510244 
L 376.593712 1455.827317 
L 379.947582 1686.929756 
L 381.624516 865.778537 
L 383.301451 703.515122 
L 384.978386 1141.134634 
L 390.00919 1642.676098 
L 395.039993 1677.09561 
L 400.070797 964.12 
L 403.424667 762.52 
L 405.101601 1967.202927 
L 406.778536 1391.905366 
L 408.455471 1972.12 
L 410.132405 1500.080976 
L 411.80934 1096.880976 
L 418.517078 880.529756 
L 420.194013 1859.027317 
L 423.547882 1018.207805 
L 425.224817 821.524878 
L 426.901752 1627.924878 
L 428.578686 1972.12 
L 435.286425 1416.490732 
L 443.671098 1475.49561 
L 445.348032 900.198049 
L 448.701902 1234.559024 
L 450.378836 1637.759024 
L 453.732706 796.939512 
L 455.40964 1209.973659 
L 458.76351 1431.241951 
L 460.440444 698.598049 
L 462.117379 978.87122 
L 465.471248 1972.12 
L 467.148183 1391.905366 
L 470.502052 816.607805 
L 472.178987 1465.661463 
L 477.209791 1642.676098 
L 478.886725 1455.827317 
L 480.56366 1485.329756 
L 482.240594 851.027317 
L 483.917529 1077.212683 
L 485.594464 1082.129756 
L 488.948333 880.529756 
L 490.625268 723.183415 
L 492.302202 939.534634 
L 493.979137 1116.549268 
L 497.333006 1588.588293 
L 499.009941 836.276098 
L 502.36381 742.851707 
L 504.040745 1588.588293 
L 505.717679 895.280976 
L 509.071549 1844.276098 
L 510.748483 1465.661463 
L 512.425418 1711.515122 
L 514.102353 954.285854 
L 515.779287 1303.398049 
L 517.456222 1268.978537 
L 519.133156 900.198049 
L 524.16396 1052.627317 
L 525.840895 914.949268 
L 529.194764 1878.69561 
L 530.871699 1972.12 
L 532.548634 910.032195 
L 535.902503 870.69561 
L 537.579437 1583.67122 
L 539.256372 777.27122 
L 540.933307 1470.578537 
L 545.964111 1411.573659 
L 547.641045 1018.207805 
L 549.31798 1868.861463 
L 550.994915 1539.417561 
L 552.671849 1967.202927 
L 554.348784 1726.266341 
L 556.025718 1824.607805 
L 557.702653 1731.183415 
L 561.056522 1568.92 
L 562.733457 949.36878 
L 564.410392 1323.066341 
L 567.764261 841.193171 
L 569.441196 1096.880976 
L 571.11813 1903.280976 
L 574.471999 1922.949268 
L 576.148934 1627.924878 
L 577.825869 1057.54439 
L 579.502803 1962.285854 
L 581.179738 1598.422439 
L 584.533607 1273.89561 
L 586.210542 1652.510244 
L 587.887477 1844.276098 
L 589.564411 1711.515122 
L 591.241346 1377.154146 
L 592.91828 821.524878 
L 594.595215 1972.12 
L 596.27215 1814.773659 
L 597.949084 1952.451707 
L 601.302954 910.032195 
L 602.979888 865.778537 
L 604.656823 1549.251707 
L 606.333758 949.36878 
L 609.687627 1445.993171 
L 611.364561 777.27122 
L 613.041496 1342.734634 
L 614.718431 929.700488 
L 616.395365 924.783415 
L 618.0723 1888.529756 
L 619.749235 1396.822439 
L 621.426169 1618.090732 
L 624.780039 1421.407805 
L 628.133908 895.280976 
L 633.164712 1800.022439 
L 634.841646 1716.432195 
L 636.518581 708.432195 
L 638.195516 1918.032195 
L 639.87245 1426.324878 
L 641.549385 851.027317 
L 643.226319 801.856585 
L 644.903254 767.437073 
L 646.580189 1686.929756 
L 648.257123 1524.666341 
L 649.934058 1642.676098 
L 651.610993 964.12 
L 653.287927 1278.812683 
L 654.964862 1623.007805 
L 656.641797 1524.666341 
L 658.318731 1972.12 
L 659.995666 615.007805 
L 661.6726 1686.929756 
L 663.349535 1391.905366 
L 665.02647 1480.412683 
L 666.703404 1903.280976 
L 668.380339 885.446829 
L 670.057274 1573.837073 
L 671.734208 1967.202927 
L 673.411143 806.773659 
L 675.088078 905.115122 
L 676.765012 1657.427317 
L 678.441947 1386.988293 
L 681.795816 1598.422439 
L 683.472751 1539.417561 
L 686.82662 1509.915122 
L 690.180489 880.529756 
L 691.857424 934.617561 
L 693.534359 1957.36878 
L 695.211293 664.178537 
L 696.888228 1544.334634 
L 698.565162 1696.763902 
L 700.242097 880.529756 
L 701.919032 1795.105366 
L 705.272901 1519.749268 
L 706.949836 910.032195 
L 708.62677 1972.12 
L 710.303705 1637.759024 
L 711.98064 787.105366 
L 713.657574 1883.612683 
L 715.334509 1470.578537 
L 717.011443 1908.198049 
L 718.688378 1445.993171 
L 720.365313 1352.56878 
L 722.042247 1972.12 
L 723.719182 1180.47122 
L 725.396117 654.34439 
L 727.073051 723.183415 
L 728.749986 1303.398049 
L 730.426921 1539.417561 
L 732.103855 1972.12 
L 733.78079 1259.14439 
L 735.457724 905.115122 
L 737.134659 851.027317 
L 740.488528 1529.583415 
L 742.165463 772.354146 
L 743.842398 944.451707 
L 752.227071 1583.67122 
L 753.904005 1967.202927 
L 755.58094 1485.329756 
L 757.257875 1824.607805 
L 758.934809 1608.256585 
L 760.611744 1131.300488 
L 762.288679 1544.334634 
L 765.642548 1844.276098 
L 767.319483 1888.529756 
L 768.996417 1588.588293 
L 770.673352 964.12 
L 772.350286 1814.773659 
L 774.027221 1677.09561 
L 775.704156 1308.315122 
L 777.38109 816.607805 
L 779.058025 1972.12 
L 780.73496 919.866341 
L 782.411894 1303.398049 
L 787.442698 1667.261463 
L 790.796567 1972.12 
L 797.504306 1972.12 
L 800.858175 1918.032195 
L 802.53511 954.285854 
L 804.212045 767.437073 
L 807.565914 1804.939512 
L 814.273652 1549.251707 
L 817.627522 1903.280976 
L 819.304456 1972.12 
L 820.981391 1519.749268 
L 822.658326 1544.334634 
L 824.33526 1741.017561 
L 827.689129 1972.12 
L 832.719933 1972.12 
L 834.396868 1450.910244 
L 836.073803 1062.461463 
L 837.750737 1691.846829 
L 839.427672 1716.432195 
L 842.781541 1524.666341 
L 846.13541 1972.12 
L 847.812345 924.783415 
L 849.48928 1701.680976 
L 852.843149 1903.280976 
L 856.197018 1431.241951 
L 862.904757 1972.12 
L 864.581691 1519.749268 
L 866.258626 1519.749268 
L 867.935561 1460.74439 
L 869.612495 1927.866341 
L 871.28943 1972.12 
L 874.643299 1490.246829 
L 876.320234 836.276098 
L 877.997168 1116.549268 
L 879.674103 1972.12 
L 881.351038 1264.061463 
L 883.027972 1967.202927 
L 884.704907 1514.832195 
L 888.058776 1957.36878 
L 889.735711 1200.139512 
L 891.412646 1032.959024 
L 896.443449 806.773659 
L 898.120384 1500.080976 
L 899.797319 1731.183415 
L 901.474253 1455.827317 
L 903.151188 1942.617561 
L 904.828123 1441.076098 
L 906.505057 624.841951 
L 908.181992 1239.476098 
L 909.858927 1091.963902 
L 911.535861 1972.12 
L 913.212796 1534.500488 
L 916.566665 1972.12 
L 918.2436 1313.232195 
L 919.920534 1662.34439 
L 923.274404 1564.002927 
L 924.951338 1327.983415 
L 926.628273 1765.602927 
L 928.305208 1254.227317 
L 929.982142 1342.734634 
L 931.659077 1126.383415 
L 933.336011 1637.759024 
L 935.012946 1323.066341 
L 938.366815 1509.915122 
L 940.04375 1972.12 
L 941.720685 1396.822439 
L 945.074554 860.861463 
L 946.751489 1554.16878 
L 948.428423 1952.451707 
L 950.105358 1667.261463 
L 951.782292 1662.34439 
L 953.459227 1652.510244 
L 955.136162 1180.47122 
L 956.813096 1888.529756 
L 958.490031 983.788293 
L 961.8439 792.022439 
L 963.520835 1229.641951 
L 966.874704 1598.422439 
L 970.228573 1583.67122 
L 971.905508 1972.12 
L 973.582443 1431.241951 
L 976.936312 1962.285854 
L 978.613247 1967.202927 
L 980.290181 1593.505366 
L 981.967116 1839.359024 
L 986.99792 718.266341 
L 988.674854 1293.563902 
L 990.351789 496.998049 
L 992.028724 1544.334634 
L 993.705658 1126.383415 
L 995.382593 1642.676098 
L 997.059528 1259.14439 
L 998.736462 1529.583415 
L 1002.090332 565.837073 
L 1005.444201 747.76878 
L 1008.79807 1657.427317 
L 1010.475005 1165.72 
L 1012.151939 1332.900488 
L 1013.828874 959.202927 
L 1022.213547 1967.202927 
L 1023.890482 1859.027317 
L 1025.567416 1559.085854 
L 1027.244351 1431.241951 
L 1028.921286 1568.92 
L 1032.275155 1583.67122 
L 1033.95209 1613.173659 
L 1035.629024 1318.149268 
L 1037.305959 1534.500488 
L 1038.982894 1962.285854 
L 1040.659828 1903.280976 
L 1042.336763 895.280976 
L 1044.013697 1534.500488 
L 1050.721436 1534.500488 
L 1054.075305 1642.676098 
L 1055.75224 1598.422439 
L 1057.429174 1927.866341 
L 1060.783044 1554.16878 
L 1062.459978 1952.451707 
L 1064.136913 1367.32 
L 1067.490782 1214.890732 
L 1079.229325 1849.193171 
L 1080.906259 1893.446829 
L 1084.260129 1957.36878 
L 1085.937063 1106.715122 
L 1089.290933 1834.441951 
L 1090.967867 924.783415 
L 1092.644802 860.861463 
L 1094.321736 1146.051707 
L 1095.998671 1588.588293 
L 1097.675606 870.69561 
L 1101.029475 1529.583415 
L 1104.383344 1367.32 
L 1106.060279 1588.588293 
L 1114.444952 1967.202927 
L 1116.121887 1485.329756 
L 1119.475756 1185.388293 
L 1121.152691 1603.339512 
L 1122.829625 1967.202927 
L 1126.183495 1500.080976 
L 1127.860429 1573.837073 
L 1132.891233 1962.285854 
L 1134.568168 1072.29561 
L 1136.245102 1706.598049 
L 1139.598972 1775.437073 
L 1144.629776 1780.354146 
L 1146.30671 1932.783415 
L 1149.660579 1947.534634 
L 1151.337514 1327.983415 
L 1153.014449 1972.12 
L 1154.691383 1583.67122 
L 1159.722187 1603.339512 
L 1163.076057 728.100488 
L 1164.752991 1790.188293 
L 1166.429926 1691.846829 
L 1169.783795 1087.046829 
L 1171.46073 1465.661463 
L 1173.137664 1947.534634 
L 1176.491534 1249.310244 
L 1178.168468 1401.739512 
L 1179.845403 688.763902 
L 1186.553141 846.110244 
L 1189.907011 1549.251707 
L 1191.583945 1229.641951 
L 1193.26088 1057.54439 
L 1194.937815 782.188293 
L 1196.614749 1937.700488 
L 1198.291684 1332.900488 
L 1201.645553 713.349268 
L 1203.322488 1529.583415 
L 1208.353292 1504.998049 
L 1210.030226 1834.441951 
L 1211.707161 1608.256585 
L 1213.384096 506.832195 
L 1216.737965 1588.588293 
L 1218.4149 870.69561 
L 1220.091834 1126.383415 
L 1223.445703 1922.949268 
L 1225.122638 1111.632195 
L 1228.476507 1214.890732 
L 1230.153442 1028.041951 
L 1231.830377 1893.446829 
L 1238.538115 1682.012683 
L 1240.21505 1544.334634 
L 1243.568919 772.354146 
L 1245.245854 669.09561 
L 1246.922788 644.510244 
L 1251.953592 1023.124878 
L 1258.661331 1760.685854 
L 1265.369069 1549.251707 
L 1267.046004 1264.061463 
L 1270.399873 1057.54439 
L 1273.753742 1519.749268 
L 1277.107612 1485.329756 
L 1278.784546 1657.427317 
L 1280.461481 796.939512 
L 1287.16922 1731.183415 
L 1288.846154 860.861463 
L 1295.553893 1711.515122 
L 1308.96937 875.612683 
L 1315.677108 1018.207805 
L 1320.707912 1475.49561 
L 1332.446455 1603.339512 
L 1334.123389 1087.046829 
L 1335.800324 1819.690732 
L 1339.154193 1195.222439 
L 1350.892736 1760.685854 
L 1352.56967 772.354146 
L 1359.277409 1578.754146 
L 1367.662082 1259.14439 
L 1371.015951 1716.432195 
L 1377.72369 1573.837073 
L 1382.754494 1819.690732 
L 1387.785298 1706.598049 
L 1396.169971 905.115122 
L 1402.877709 1465.661463 
L 1409.585448 1278.812683 
L 1434.739468 846.110244 
L 1441.447206 959.202927 
L 1456.539618 1967.202927 
L 1461.570422 1947.534634 
L 1464.924291 1445.993171 
L 1476.662833 1485.329756 
L 1496.786049 1878.69561 
L 1500.139918 1436.159024 
L 1520.263134 1972.12 
L 1525.293938 1972.12 
L 1532.001676 1962.285854 
L 1555.478761 1745.934634 
L 1557.155696 1834.441951 
L 1560.509565 1859.027317 
L 1614.171474 1957.36878 
L 1625.910016 1937.700488 
L 1677.89499 1962.285854 
L 1703.049009 1922.949268 
L 1743.29544 1962.285854 
L 1751.680114 1942.617561 
L 1751.680114 1942.617561 
" style="fill:none;stroke:#0000ff;stroke-linecap:square;stroke-width:1.5;"/>
   </g>
   <g id="patch_3">
    <path d="M 47.24375 2052.76 
L 47.24375 278.68 
" style="fill:none;stroke:#000000;stroke-linecap:square;stroke-linejoin:miter;stroke-width:0.8;"/>
   </g>
   <g id="patch_4">
    <path d="M 1832.84375 2052.76 
L 1832.84375 278.68 
" style="fill:none;stroke:#000000;stroke-linecap:square;stroke-linejoin:miter;stroke-width:0.8;"/>
   </g>
   <g id="patch_5">
    <path d="M 47.24375 2052.76 
L 1832.84375 2052.76 
" style="fill:none;stroke:#000000;stroke-linecap:square;stroke-linejoin:miter;stroke-width:0.8;"/>
   </g>
   <g id="patch_6">
    <path d="M 47.24375 278.68 
L 1832.84375 278.68 
" style="fill:none;stroke:#000000;stroke-linecap:square;stroke-linejoin:miter;stroke-width:0.8;"/>
   </g>
   <g id="text_16">
    <text style="font-family:DejaVu Sans;font-size:12px;font-stretch:normal;font-style:normal;font-weight:normal;text-anchor:middle;" transform="rotate(-0, 940.04375, 272.68)" x="940.04375" y="272.68">wind_speed-&gt;Retransmission_day</text>
   </g>
  </g>
  <g id="legend_1">
   <g id="patch_7">
    <path d="M 1847.564062 22.95625 
L 2058.44375 22.95625 
Q 2060.44375 22.95625 2060.44375 20.95625 
L 2060.44375 7 
Q 2060.44375 5 2058.44375 5 
L 1847.564062 5 
Q 1845.564062 5 1845.564062 7 
L 1845.564062 20.95625 
Q 1845.564062 22.95625 1847.564062 22.95625 
z
" style="fill:#ffffff;opacity:0.8;stroke:#cccccc;stroke-linejoin:miter;"/>
   </g>
   <g id="line2d_15">
    <path d="M 1849.564062 13.098438 
L 1869.564062 13.098438 
" style="fill:none;stroke:#0000ff;stroke-linecap:square;stroke-width:1.5;"/>
   </g>
   <g id="line2d_16"/>
   <g id="text_17">
    <text style="font-family:DejaVu Sans;font-size:10px;font-stretch:normal;font-style:normal;font-weight:normal;text-anchor:start;" transform="rotate(-0, 1877.564062, 16.598438)" x="1877.564062" y="16.598438">Retransmission_day[dimensionless]</text>
   </g>
  </g>
 </g>
 <defs>
  <clipPath id="p9b58fe4dfd">
   <rect height="1774.08" width="1785.6" x="47.24375" y="278.68"/>
  </clipPath>
 </defs>
</svg>
