<?xml version="1.0" encoding="utf-8" standalone="no"?>
<!DOCTYPE svg PUBLIC "-//W3C//DTD SVG 1.1//EN"
  "http://www.w3.org/Graphics/SVG/1.1/DTD/svg11.dtd">
<!-- Created with matplotlib (https://matplotlib.org/) -->
<svg height="345.6pt" version="1.1" viewBox="0 0 460.8 345.6" width="460.8pt" xmlns="http://www.w3.org/2000/svg" xmlns:xlink="http://www.w3.org/1999/xlink">
 <metadata>
  <rdf:RDF xmlns:cc="http://creativecommons.org/ns#" xmlns:dc="http://purl.org/dc/elements/1.1/" xmlns:rdf="http://www.w3.org/1999/02/22-rdf-syntax-ns#">
   <cc:Work>
    <dc:type rdf:resource="http://purl.org/dc/dcmitype/StillImage"/>
    <dc:date>2022-07-20T23:30:24.089002</dc:date>
    <dc:format>image/svg+xml</dc:format>
    <dc:creator>
     <cc:Agent>
      <dc:title>Matplotlib v3.3.2, https://matplotlib.org/</dc:title>
     </cc:Agent>
    </dc:creator>
   </cc:Work>
  </rdf:RDF>
 </metadata>
 <defs>
  <style type="text/css">*{stroke-linecap:butt;stroke-linejoin:round;}</style>
 </defs>
 <g id="figure_1">
  <g id="patch_1">
   <path d="M 0 345.6 
L 460.8 345.6 
L 460.8 0 
L 0 0 
z
" style="fill:#ffffff;"/>
  </g>
  <g id="axes_1">
   <g id="patch_2">
    <path d="M 57.6 307.584 
L 414.72 307.584 
L 414.72 41.472 
L 57.6 41.472 
z
" style="fill:#ffffff;"/>
   </g>
   <g id="matplotlib.axis_1">
    <g id="xtick_1">
     <g id="line2d_1">
      <defs>
       <path d="M 0 0 
L 0 3.5 
" id="m72515a4974" style="stroke:#000000;stroke-width:0.8;"/>
      </defs>
      <g>
       <use style="stroke:#000000;stroke-width:0.8;" x="63.435733" xlink:href="#m72515a4974" y="307.584"/>
      </g>
     </g>
     <g id="text_1">
      <!-- 0 -->
      <g transform="translate(60.254483 322.182437)scale(0.1 -0.1)">
       <defs>
        <path d="M 31.78125 66.40625 
Q 24.171875 66.40625 20.328125 58.90625 
Q 16.5 51.421875 16.5 36.375 
Q 16.5 21.390625 20.328125 13.890625 
Q 24.171875 6.390625 31.78125 6.390625 
Q 39.453125 6.390625 43.28125 13.890625 
Q 47.125 21.390625 47.125 36.375 
Q 47.125 51.421875 43.28125 58.90625 
Q 39.453125 66.40625 31.78125 66.40625 
z
M 31.78125 74.21875 
Q 44.046875 74.21875 50.515625 64.515625 
Q 56.984375 54.828125 56.984375 36.375 
Q 56.984375 17.96875 50.515625 8.265625 
Q 44.046875 -1.421875 31.78125 -1.421875 
Q 19.53125 -1.421875 13.0625 8.265625 
Q 6.59375 17.96875 6.59375 36.375 
Q 6.59375 54.828125 13.0625 64.515625 
Q 19.53125 74.21875 31.78125 74.21875 
z
" id="DejaVuSans-48"/>
       </defs>
       <use xlink:href="#DejaVuSans-48"/>
      </g>
     </g>
    </g>
    <g id="xtick_2">
     <g id="line2d_2">
      <g>
       <use style="stroke:#000000;stroke-width:0.8;" x="130.513118" xlink:href="#m72515a4974" y="307.584"/>
      </g>
     </g>
     <g id="text_2">
      <!-- 2 -->
      <g transform="translate(127.331868 322.182437)scale(0.1 -0.1)">
       <defs>
        <path d="M 19.1875 8.296875 
L 53.609375 8.296875 
L 53.609375 0 
L 7.328125 0 
L 7.328125 8.296875 
Q 12.9375 14.109375 22.625 23.890625 
Q 32.328125 33.6875 34.8125 36.53125 
Q 39.546875 41.84375 41.421875 45.53125 
Q 43.3125 49.21875 43.3125 52.78125 
Q 43.3125 58.59375 39.234375 62.25 
Q 35.15625 65.921875 28.609375 65.921875 
Q 23.96875 65.921875 18.8125 64.3125 
Q 13.671875 62.703125 7.8125 59.421875 
L 7.8125 69.390625 
Q 13.765625 71.78125 18.9375 73 
Q 24.125 74.21875 28.421875 74.21875 
Q 39.75 74.21875 46.484375 68.546875 
Q 53.21875 62.890625 53.21875 53.421875 
Q 53.21875 48.921875 51.53125 44.890625 
Q 49.859375 40.875 45.40625 35.40625 
Q 44.1875 33.984375 37.640625 27.21875 
Q 31.109375 20.453125 19.1875 8.296875 
z
" id="DejaVuSans-50"/>
       </defs>
       <use xlink:href="#DejaVuSans-50"/>
      </g>
     </g>
    </g>
    <g id="xtick_3">
     <g id="line2d_3">
      <g>
       <use style="stroke:#000000;stroke-width:0.8;" x="197.590503" xlink:href="#m72515a4974" y="307.584"/>
      </g>
     </g>
     <g id="text_3">
      <!-- 4 -->
      <g transform="translate(194.409253 322.182437)scale(0.1 -0.1)">
       <defs>
        <path d="M 37.796875 64.3125 
L 12.890625 25.390625 
L 37.796875 25.390625 
z
M 35.203125 72.90625 
L 47.609375 72.90625 
L 47.609375 25.390625 
L 58.015625 25.390625 
L 58.015625 17.1875 
L 47.609375 17.1875 
L 47.609375 0 
L 37.796875 0 
L 37.796875 17.1875 
L 4.890625 17.1875 
L 4.890625 26.703125 
z
" id="DejaVuSans-52"/>
       </defs>
       <use xlink:href="#DejaVuSans-52"/>
      </g>
     </g>
    </g>
    <g id="xtick_4">
     <g id="line2d_4">
      <g>
       <use style="stroke:#000000;stroke-width:0.8;" x="264.667889" xlink:href="#m72515a4974" y="307.584"/>
      </g>
     </g>
     <g id="text_4">
      <!-- 6 -->
      <g transform="translate(261.486639 322.182437)scale(0.1 -0.1)">
       <defs>
        <path d="M 33.015625 40.375 
Q 26.375 40.375 22.484375 35.828125 
Q 18.609375 31.296875 18.609375 23.390625 
Q 18.609375 15.53125 22.484375 10.953125 
Q 26.375 6.390625 33.015625 6.390625 
Q 39.65625 6.390625 43.53125 10.953125 
Q 47.40625 15.53125 47.40625 23.390625 
Q 47.40625 31.296875 43.53125 35.828125 
Q 39.65625 40.375 33.015625 40.375 
z
M 52.59375 71.296875 
L 52.59375 62.3125 
Q 48.875 64.0625 45.09375 64.984375 
Q 41.3125 65.921875 37.59375 65.921875 
Q 27.828125 65.921875 22.671875 59.328125 
Q 17.53125 52.734375 16.796875 39.40625 
Q 19.671875 43.65625 24.015625 45.921875 
Q 28.375 48.1875 33.59375 48.1875 
Q 44.578125 48.1875 50.953125 41.515625 
Q 57.328125 34.859375 57.328125 23.390625 
Q 57.328125 12.15625 50.6875 5.359375 
Q 44.046875 -1.421875 33.015625 -1.421875 
Q 20.359375 -1.421875 13.671875 8.265625 
Q 6.984375 17.96875 6.984375 36.375 
Q 6.984375 53.65625 15.1875 63.9375 
Q 23.390625 74.21875 37.203125 74.21875 
Q 40.921875 74.21875 44.703125 73.484375 
Q 48.484375 72.75 52.59375 71.296875 
z
" id="DejaVuSans-54"/>
       </defs>
       <use xlink:href="#DejaVuSans-54"/>
      </g>
     </g>
    </g>
    <g id="xtick_5">
     <g id="line2d_5">
      <g>
       <use style="stroke:#000000;stroke-width:0.8;" x="331.745274" xlink:href="#m72515a4974" y="307.584"/>
      </g>
     </g>
     <g id="text_5">
      <!-- 8 -->
      <g transform="translate(328.564024 322.182437)scale(0.1 -0.1)">
       <defs>
        <path d="M 31.78125 34.625 
Q 24.75 34.625 20.71875 30.859375 
Q 16.703125 27.09375 16.703125 20.515625 
Q 16.703125 13.921875 20.71875 10.15625 
Q 24.75 6.390625 31.78125 6.390625 
Q 38.8125 6.390625 42.859375 10.171875 
Q 46.921875 13.96875 46.921875 20.515625 
Q 46.921875 27.09375 42.890625 30.859375 
Q 38.875 34.625 31.78125 34.625 
z
M 21.921875 38.8125 
Q 15.578125 40.375 12.03125 44.71875 
Q 8.5 49.078125 8.5 55.328125 
Q 8.5 64.0625 14.71875 69.140625 
Q 20.953125 74.21875 31.78125 74.21875 
Q 42.671875 74.21875 48.875 69.140625 
Q 55.078125 64.0625 55.078125 55.328125 
Q 55.078125 49.078125 51.53125 44.71875 
Q 48 40.375 41.703125 38.8125 
Q 48.828125 37.15625 52.796875 32.3125 
Q 56.78125 27.484375 56.78125 20.515625 
Q 56.78125 9.90625 50.3125 4.234375 
Q 43.84375 -1.421875 31.78125 -1.421875 
Q 19.734375 -1.421875 13.25 4.234375 
Q 6.78125 9.90625 6.78125 20.515625 
Q 6.78125 27.484375 10.78125 32.3125 
Q 14.796875 37.15625 21.921875 38.8125 
z
M 18.3125 54.390625 
Q 18.3125 48.734375 21.84375 45.5625 
Q 25.390625 42.390625 31.78125 42.390625 
Q 38.140625 42.390625 41.71875 45.5625 
Q 45.3125 48.734375 45.3125 54.390625 
Q 45.3125 60.0625 41.71875 63.234375 
Q 38.140625 66.40625 31.78125 66.40625 
Q 25.390625 66.40625 21.84375 63.234375 
Q 18.3125 60.0625 18.3125 54.390625 
z
" id="DejaVuSans-56"/>
       </defs>
       <use xlink:href="#DejaVuSans-56"/>
      </g>
     </g>
    </g>
    <g id="xtick_6">
     <g id="line2d_6">
      <g>
       <use style="stroke:#000000;stroke-width:0.8;" x="398.82266" xlink:href="#m72515a4974" y="307.584"/>
      </g>
     </g>
     <g id="text_6">
      <!-- 10 -->
      <g transform="translate(392.46016 322.182437)scale(0.1 -0.1)">
       <defs>
        <path d="M 12.40625 8.296875 
L 28.515625 8.296875 
L 28.515625 63.921875 
L 10.984375 60.40625 
L 10.984375 69.390625 
L 28.421875 72.90625 
L 38.28125 72.90625 
L 38.28125 8.296875 
L 54.390625 8.296875 
L 54.390625 0 
L 12.40625 0 
z
" id="DejaVuSans-49"/>
       </defs>
       <use xlink:href="#DejaVuSans-49"/>
       <use x="63.623047" xlink:href="#DejaVuSans-48"/>
      </g>
     </g>
    </g>
    <g id="text_7">
     <!-- wind_speed from OpenWeatherMap -->
     <g transform="translate(146.962344 335.860562)scale(0.1 -0.1)">
      <defs>
       <path d="M 4.203125 54.6875 
L 13.1875 54.6875 
L 24.421875 12.015625 
L 35.59375 54.6875 
L 46.1875 54.6875 
L 57.421875 12.015625 
L 68.609375 54.6875 
L 77.59375 54.6875 
L 63.28125 0 
L 52.6875 0 
L 40.921875 44.828125 
L 29.109375 0 
L 18.5 0 
z
" id="DejaVuSans-119"/>
       <path d="M 9.421875 54.6875 
L 18.40625 54.6875 
L 18.40625 0 
L 9.421875 0 
z
M 9.421875 75.984375 
L 18.40625 75.984375 
L 18.40625 64.59375 
L 9.421875 64.59375 
z
" id="DejaVuSans-105"/>
       <path d="M 54.890625 33.015625 
L 54.890625 0 
L 45.90625 0 
L 45.90625 32.71875 
Q 45.90625 40.484375 42.875 44.328125 
Q 39.84375 48.1875 33.796875 48.1875 
Q 26.515625 48.1875 22.3125 43.546875 
Q 18.109375 38.921875 18.109375 30.90625 
L 18.109375 0 
L 9.078125 0 
L 9.078125 54.6875 
L 18.109375 54.6875 
L 18.109375 46.1875 
Q 21.34375 51.125 25.703125 53.5625 
Q 30.078125 56 35.796875 56 
Q 45.21875 56 50.046875 50.171875 
Q 54.890625 44.34375 54.890625 33.015625 
z
" id="DejaVuSans-110"/>
       <path d="M 45.40625 46.390625 
L 45.40625 75.984375 
L 54.390625 75.984375 
L 54.390625 0 
L 45.40625 0 
L 45.40625 8.203125 
Q 42.578125 3.328125 38.25 0.953125 
Q 33.9375 -1.421875 27.875 -1.421875 
Q 17.96875 -1.421875 11.734375 6.484375 
Q 5.515625 14.40625 5.515625 27.296875 
Q 5.515625 40.1875 11.734375 48.09375 
Q 17.96875 56 27.875 56 
Q 33.9375 56 38.25 53.625 
Q 42.578125 51.265625 45.40625 46.390625 
z
M 14.796875 27.296875 
Q 14.796875 17.390625 18.875 11.75 
Q 22.953125 6.109375 30.078125 6.109375 
Q 37.203125 6.109375 41.296875 11.75 
Q 45.40625 17.390625 45.40625 27.296875 
Q 45.40625 37.203125 41.296875 42.84375 
Q 37.203125 48.484375 30.078125 48.484375 
Q 22.953125 48.484375 18.875 42.84375 
Q 14.796875 37.203125 14.796875 27.296875 
z
" id="DejaVuSans-100"/>
       <path d="M 50.984375 -16.609375 
L 50.984375 -23.578125 
L -0.984375 -23.578125 
L -0.984375 -16.609375 
z
" id="DejaVuSans-95"/>
       <path d="M 44.28125 53.078125 
L 44.28125 44.578125 
Q 40.484375 46.53125 36.375 47.5 
Q 32.28125 48.484375 27.875 48.484375 
Q 21.1875 48.484375 17.84375 46.4375 
Q 14.5 44.390625 14.5 40.28125 
Q 14.5 37.15625 16.890625 35.375 
Q 19.28125 33.59375 26.515625 31.984375 
L 29.59375 31.296875 
Q 39.15625 29.25 43.1875 25.515625 
Q 47.21875 21.78125 47.21875 15.09375 
Q 47.21875 7.46875 41.1875 3.015625 
Q 35.15625 -1.421875 24.609375 -1.421875 
Q 20.21875 -1.421875 15.453125 -0.5625 
Q 10.6875 0.296875 5.421875 2 
L 5.421875 11.28125 
Q 10.40625 8.6875 15.234375 7.390625 
Q 20.0625 6.109375 24.8125 6.109375 
Q 31.15625 6.109375 34.5625 8.28125 
Q 37.984375 10.453125 37.984375 14.40625 
Q 37.984375 18.0625 35.515625 20.015625 
Q 33.0625 21.96875 24.703125 23.78125 
L 21.578125 24.515625 
Q 13.234375 26.265625 9.515625 29.90625 
Q 5.8125 33.546875 5.8125 39.890625 
Q 5.8125 47.609375 11.28125 51.796875 
Q 16.75 56 26.8125 56 
Q 31.78125 56 36.171875 55.265625 
Q 40.578125 54.546875 44.28125 53.078125 
z
" id="DejaVuSans-115"/>
       <path d="M 18.109375 8.203125 
L 18.109375 -20.796875 
L 9.078125 -20.796875 
L 9.078125 54.6875 
L 18.109375 54.6875 
L 18.109375 46.390625 
Q 20.953125 51.265625 25.265625 53.625 
Q 29.59375 56 35.59375 56 
Q 45.5625 56 51.78125 48.09375 
Q 58.015625 40.1875 58.015625 27.296875 
Q 58.015625 14.40625 51.78125 6.484375 
Q 45.5625 -1.421875 35.59375 -1.421875 
Q 29.59375 -1.421875 25.265625 0.953125 
Q 20.953125 3.328125 18.109375 8.203125 
z
M 48.6875 27.296875 
Q 48.6875 37.203125 44.609375 42.84375 
Q 40.53125 48.484375 33.40625 48.484375 
Q 26.265625 48.484375 22.1875 42.84375 
Q 18.109375 37.203125 18.109375 27.296875 
Q 18.109375 17.390625 22.1875 11.75 
Q 26.265625 6.109375 33.40625 6.109375 
Q 40.53125 6.109375 44.609375 11.75 
Q 48.6875 17.390625 48.6875 27.296875 
z
" id="DejaVuSans-112"/>
       <path d="M 56.203125 29.59375 
L 56.203125 25.203125 
L 14.890625 25.203125 
Q 15.484375 15.921875 20.484375 11.0625 
Q 25.484375 6.203125 34.421875 6.203125 
Q 39.59375 6.203125 44.453125 7.46875 
Q 49.3125 8.734375 54.109375 11.28125 
L 54.109375 2.78125 
Q 49.265625 0.734375 44.1875 -0.34375 
Q 39.109375 -1.421875 33.890625 -1.421875 
Q 20.796875 -1.421875 13.15625 6.1875 
Q 5.515625 13.8125 5.515625 26.8125 
Q 5.515625 40.234375 12.765625 48.109375 
Q 20.015625 56 32.328125 56 
Q 43.359375 56 49.78125 48.890625 
Q 56.203125 41.796875 56.203125 29.59375 
z
M 47.21875 32.234375 
Q 47.125 39.59375 43.09375 43.984375 
Q 39.0625 48.390625 32.421875 48.390625 
Q 24.90625 48.390625 20.390625 44.140625 
Q 15.875 39.890625 15.1875 32.171875 
z
" id="DejaVuSans-101"/>
       <path id="DejaVuSans-32"/>
       <path d="M 37.109375 75.984375 
L 37.109375 68.5 
L 28.515625 68.5 
Q 23.6875 68.5 21.796875 66.546875 
Q 19.921875 64.59375 19.921875 59.515625 
L 19.921875 54.6875 
L 34.71875 54.6875 
L 34.71875 47.703125 
L 19.921875 47.703125 
L 19.921875 0 
L 10.890625 0 
L 10.890625 47.703125 
L 2.296875 47.703125 
L 2.296875 54.6875 
L 10.890625 54.6875 
L 10.890625 58.5 
Q 10.890625 67.625 15.140625 71.796875 
Q 19.390625 75.984375 28.609375 75.984375 
z
" id="DejaVuSans-102"/>
       <path d="M 41.109375 46.296875 
Q 39.59375 47.171875 37.8125 47.578125 
Q 36.03125 48 33.890625 48 
Q 26.265625 48 22.1875 43.046875 
Q 18.109375 38.09375 18.109375 28.8125 
L 18.109375 0 
L 9.078125 0 
L 9.078125 54.6875 
L 18.109375 54.6875 
L 18.109375 46.1875 
Q 20.953125 51.171875 25.484375 53.578125 
Q 30.03125 56 36.53125 56 
Q 37.453125 56 38.578125 55.875 
Q 39.703125 55.765625 41.0625 55.515625 
z
" id="DejaVuSans-114"/>
       <path d="M 30.609375 48.390625 
Q 23.390625 48.390625 19.1875 42.75 
Q 14.984375 37.109375 14.984375 27.296875 
Q 14.984375 17.484375 19.15625 11.84375 
Q 23.34375 6.203125 30.609375 6.203125 
Q 37.796875 6.203125 41.984375 11.859375 
Q 46.1875 17.53125 46.1875 27.296875 
Q 46.1875 37.015625 41.984375 42.703125 
Q 37.796875 48.390625 30.609375 48.390625 
z
M 30.609375 56 
Q 42.328125 56 49.015625 48.375 
Q 55.71875 40.765625 55.71875 27.296875 
Q 55.71875 13.875 49.015625 6.21875 
Q 42.328125 -1.421875 30.609375 -1.421875 
Q 18.84375 -1.421875 12.171875 6.21875 
Q 5.515625 13.875 5.515625 27.296875 
Q 5.515625 40.765625 12.171875 48.375 
Q 18.84375 56 30.609375 56 
z
" id="DejaVuSans-111"/>
       <path d="M 52 44.1875 
Q 55.375 50.25 60.0625 53.125 
Q 64.75 56 71.09375 56 
Q 79.640625 56 84.28125 50.015625 
Q 88.921875 44.046875 88.921875 33.015625 
L 88.921875 0 
L 79.890625 0 
L 79.890625 32.71875 
Q 79.890625 40.578125 77.09375 44.375 
Q 74.3125 48.1875 68.609375 48.1875 
Q 61.625 48.1875 57.5625 43.546875 
Q 53.515625 38.921875 53.515625 30.90625 
L 53.515625 0 
L 44.484375 0 
L 44.484375 32.71875 
Q 44.484375 40.625 41.703125 44.40625 
Q 38.921875 48.1875 33.109375 48.1875 
Q 26.21875 48.1875 22.15625 43.53125 
Q 18.109375 38.875 18.109375 30.90625 
L 18.109375 0 
L 9.078125 0 
L 9.078125 54.6875 
L 18.109375 54.6875 
L 18.109375 46.1875 
Q 21.1875 51.21875 25.484375 53.609375 
Q 29.78125 56 35.6875 56 
Q 41.65625 56 45.828125 52.96875 
Q 50 49.953125 52 44.1875 
z
" id="DejaVuSans-109"/>
       <path d="M 39.40625 66.21875 
Q 28.65625 66.21875 22.328125 58.203125 
Q 16.015625 50.203125 16.015625 36.375 
Q 16.015625 22.609375 22.328125 14.59375 
Q 28.65625 6.59375 39.40625 6.59375 
Q 50.140625 6.59375 56.421875 14.59375 
Q 62.703125 22.609375 62.703125 36.375 
Q 62.703125 50.203125 56.421875 58.203125 
Q 50.140625 66.21875 39.40625 66.21875 
z
M 39.40625 74.21875 
Q 54.734375 74.21875 63.90625 63.9375 
Q 73.09375 53.65625 73.09375 36.375 
Q 73.09375 19.140625 63.90625 8.859375 
Q 54.734375 -1.421875 39.40625 -1.421875 
Q 24.03125 -1.421875 14.8125 8.828125 
Q 5.609375 19.09375 5.609375 36.375 
Q 5.609375 53.65625 14.8125 63.9375 
Q 24.03125 74.21875 39.40625 74.21875 
z
" id="DejaVuSans-79"/>
       <path d="M 3.328125 72.90625 
L 13.28125 72.90625 
L 28.609375 11.28125 
L 43.890625 72.90625 
L 54.984375 72.90625 
L 70.3125 11.28125 
L 85.59375 72.90625 
L 95.609375 72.90625 
L 77.296875 0 
L 64.890625 0 
L 49.515625 63.28125 
L 33.984375 0 
L 21.578125 0 
z
" id="DejaVuSans-87"/>
       <path d="M 34.28125 27.484375 
Q 23.390625 27.484375 19.1875 25 
Q 14.984375 22.515625 14.984375 16.5 
Q 14.984375 11.71875 18.140625 8.90625 
Q 21.296875 6.109375 26.703125 6.109375 
Q 34.1875 6.109375 38.703125 11.40625 
Q 43.21875 16.703125 43.21875 25.484375 
L 43.21875 27.484375 
z
M 52.203125 31.203125 
L 52.203125 0 
L 43.21875 0 
L 43.21875 8.296875 
Q 40.140625 3.328125 35.546875 0.953125 
Q 30.953125 -1.421875 24.3125 -1.421875 
Q 15.921875 -1.421875 10.953125 3.296875 
Q 6 8.015625 6 15.921875 
Q 6 25.140625 12.171875 29.828125 
Q 18.359375 34.515625 30.609375 34.515625 
L 43.21875 34.515625 
L 43.21875 35.40625 
Q 43.21875 41.609375 39.140625 45 
Q 35.0625 48.390625 27.6875 48.390625 
Q 23 48.390625 18.546875 47.265625 
Q 14.109375 46.140625 10.015625 43.890625 
L 10.015625 52.203125 
Q 14.9375 54.109375 19.578125 55.046875 
Q 24.21875 56 28.609375 56 
Q 40.484375 56 46.34375 49.84375 
Q 52.203125 43.703125 52.203125 31.203125 
z
" id="DejaVuSans-97"/>
       <path d="M 18.3125 70.21875 
L 18.3125 54.6875 
L 36.8125 54.6875 
L 36.8125 47.703125 
L 18.3125 47.703125 
L 18.3125 18.015625 
Q 18.3125 11.328125 20.140625 9.421875 
Q 21.96875 7.515625 27.59375 7.515625 
L 36.8125 7.515625 
L 36.8125 0 
L 27.59375 0 
Q 17.1875 0 13.234375 3.875 
Q 9.28125 7.765625 9.28125 18.015625 
L 9.28125 47.703125 
L 2.6875 47.703125 
L 2.6875 54.6875 
L 9.28125 54.6875 
L 9.28125 70.21875 
z
" id="DejaVuSans-116"/>
       <path d="M 54.890625 33.015625 
L 54.890625 0 
L 45.90625 0 
L 45.90625 32.71875 
Q 45.90625 40.484375 42.875 44.328125 
Q 39.84375 48.1875 33.796875 48.1875 
Q 26.515625 48.1875 22.3125 43.546875 
Q 18.109375 38.921875 18.109375 30.90625 
L 18.109375 0 
L 9.078125 0 
L 9.078125 75.984375 
L 18.109375 75.984375 
L 18.109375 46.1875 
Q 21.34375 51.125 25.703125 53.5625 
Q 30.078125 56 35.796875 56 
Q 45.21875 56 50.046875 50.171875 
Q 54.890625 44.34375 54.890625 33.015625 
z
" id="DejaVuSans-104"/>
       <path d="M 9.8125 72.90625 
L 24.515625 72.90625 
L 43.109375 23.296875 
L 61.8125 72.90625 
L 76.515625 72.90625 
L 76.515625 0 
L 66.890625 0 
L 66.890625 64.015625 
L 48.09375 14.015625 
L 38.1875 14.015625 
L 19.390625 64.015625 
L 19.390625 0 
L 9.8125 0 
z
" id="DejaVuSans-77"/>
      </defs>
      <use xlink:href="#DejaVuSans-119"/>
      <use x="81.787109" xlink:href="#DejaVuSans-105"/>
      <use x="109.570312" xlink:href="#DejaVuSans-110"/>
      <use x="172.949219" xlink:href="#DejaVuSans-100"/>
      <use x="236.425781" xlink:href="#DejaVuSans-95"/>
      <use x="286.425781" xlink:href="#DejaVuSans-115"/>
      <use x="338.525391" xlink:href="#DejaVuSans-112"/>
      <use x="402.001953" xlink:href="#DejaVuSans-101"/>
      <use x="463.525391" xlink:href="#DejaVuSans-101"/>
      <use x="525.048828" xlink:href="#DejaVuSans-100"/>
      <use x="588.525391" xlink:href="#DejaVuSans-32"/>
      <use x="620.3125" xlink:href="#DejaVuSans-102"/>
      <use x="655.517578" xlink:href="#DejaVuSans-114"/>
      <use x="694.380859" xlink:href="#DejaVuSans-111"/>
      <use x="755.5625" xlink:href="#DejaVuSans-109"/>
      <use x="852.974609" xlink:href="#DejaVuSans-32"/>
      <use x="884.761719" xlink:href="#DejaVuSans-79"/>
      <use x="963.472656" xlink:href="#DejaVuSans-112"/>
      <use x="1026.949219" xlink:href="#DejaVuSans-101"/>
      <use x="1088.472656" xlink:href="#DejaVuSans-110"/>
      <use x="1151.851562" xlink:href="#DejaVuSans-87"/>
      <use x="1244.853516" xlink:href="#DejaVuSans-101"/>
      <use x="1306.376953" xlink:href="#DejaVuSans-97"/>
      <use x="1367.65625" xlink:href="#DejaVuSans-116"/>
      <use x="1406.865234" xlink:href="#DejaVuSans-104"/>
      <use x="1470.244141" xlink:href="#DejaVuSans-101"/>
      <use x="1531.767578" xlink:href="#DejaVuSans-114"/>
      <use x="1572.880859" xlink:href="#DejaVuSans-77"/>
      <use x="1659.160156" xlink:href="#DejaVuSans-97"/>
      <use x="1720.439453" xlink:href="#DejaVuSans-112"/>
     </g>
    </g>
   </g>
   <g id="matplotlib.axis_2">
    <g id="ytick_1">
     <g id="line2d_7">
      <defs>
       <path d="M 0 0 
L -3.5 0 
" id="m8d79a62902" style="stroke:#000000;stroke-width:0.8;"/>
      </defs>
      <g>
       <use style="stroke:#000000;stroke-width:0.8;" x="57.6" xlink:href="#m8d79a62902" y="295.488"/>
      </g>
     </g>
     <g id="text_8">
      <!-- 0 -->
      <g transform="translate(44.2375 299.287219)scale(0.1 -0.1)">
       <use xlink:href="#DejaVuSans-48"/>
      </g>
     </g>
    </g>
    <g id="ytick_2">
     <g id="line2d_8">
      <g>
       <use style="stroke:#000000;stroke-width:0.8;" x="57.6" xlink:href="#m8d79a62902" y="258.609951"/>
      </g>
     </g>
     <g id="text_9">
      <!-- 50 -->
      <g transform="translate(37.875 262.40917)scale(0.1 -0.1)">
       <defs>
        <path d="M 10.796875 72.90625 
L 49.515625 72.90625 
L 49.515625 64.59375 
L 19.828125 64.59375 
L 19.828125 46.734375 
Q 21.96875 47.46875 24.109375 47.828125 
Q 26.265625 48.1875 28.421875 48.1875 
Q 40.625 48.1875 47.75 41.5 
Q 54.890625 34.8125 54.890625 23.390625 
Q 54.890625 11.625 47.5625 5.09375 
Q 40.234375 -1.421875 26.90625 -1.421875 
Q 22.3125 -1.421875 17.546875 -0.640625 
Q 12.796875 0.140625 7.71875 1.703125 
L 7.71875 11.625 
Q 12.109375 9.234375 16.796875 8.0625 
Q 21.484375 6.890625 26.703125 6.890625 
Q 35.15625 6.890625 40.078125 11.328125 
Q 45.015625 15.765625 45.015625 23.390625 
Q 45.015625 31 40.078125 35.4375 
Q 35.15625 39.890625 26.703125 39.890625 
Q 22.75 39.890625 18.8125 39.015625 
Q 14.890625 38.140625 10.796875 36.28125 
z
" id="DejaVuSans-53"/>
       </defs>
       <use xlink:href="#DejaVuSans-53"/>
       <use x="63.623047" xlink:href="#DejaVuSans-48"/>
      </g>
     </g>
    </g>
    <g id="ytick_3">
     <g id="line2d_9">
      <g>
       <use style="stroke:#000000;stroke-width:0.8;" x="57.6" xlink:href="#m8d79a62902" y="221.731902"/>
      </g>
     </g>
     <g id="text_10">
      <!-- 100 -->
      <g transform="translate(31.5125 225.531121)scale(0.1 -0.1)">
       <use xlink:href="#DejaVuSans-49"/>
       <use x="63.623047" xlink:href="#DejaVuSans-48"/>
       <use x="127.246094" xlink:href="#DejaVuSans-48"/>
      </g>
     </g>
    </g>
    <g id="ytick_4">
     <g id="line2d_10">
      <g>
       <use style="stroke:#000000;stroke-width:0.8;" x="57.6" xlink:href="#m8d79a62902" y="184.853854"/>
      </g>
     </g>
     <g id="text_11">
      <!-- 150 -->
      <g transform="translate(31.5125 188.653072)scale(0.1 -0.1)">
       <use xlink:href="#DejaVuSans-49"/>
       <use x="63.623047" xlink:href="#DejaVuSans-53"/>
       <use x="127.246094" xlink:href="#DejaVuSans-48"/>
      </g>
     </g>
    </g>
    <g id="ytick_5">
     <g id="line2d_11">
      <g>
       <use style="stroke:#000000;stroke-width:0.8;" x="57.6" xlink:href="#m8d79a62902" y="147.975805"/>
      </g>
     </g>
     <g id="text_12">
      <!-- 200 -->
      <g transform="translate(31.5125 151.775024)scale(0.1 -0.1)">
       <use xlink:href="#DejaVuSans-50"/>
       <use x="63.623047" xlink:href="#DejaVuSans-48"/>
       <use x="127.246094" xlink:href="#DejaVuSans-48"/>
      </g>
     </g>
    </g>
    <g id="ytick_6">
     <g id="line2d_12">
      <g>
       <use style="stroke:#000000;stroke-width:0.8;" x="57.6" xlink:href="#m8d79a62902" y="111.097756"/>
      </g>
     </g>
     <g id="text_13">
      <!-- 250 -->
      <g transform="translate(31.5125 114.896975)scale(0.1 -0.1)">
       <use xlink:href="#DejaVuSans-50"/>
       <use x="63.623047" xlink:href="#DejaVuSans-53"/>
       <use x="127.246094" xlink:href="#DejaVuSans-48"/>
      </g>
     </g>
    </g>
    <g id="ytick_7">
     <g id="line2d_13">
      <g>
       <use style="stroke:#000000;stroke-width:0.8;" x="57.6" xlink:href="#m8d79a62902" y="74.219707"/>
      </g>
     </g>
     <g id="text_14">
      <!-- 300 -->
      <g transform="translate(31.5125 78.018926)scale(0.1 -0.1)">
       <defs>
        <path d="M 40.578125 39.3125 
Q 47.65625 37.796875 51.625 33 
Q 55.609375 28.21875 55.609375 21.1875 
Q 55.609375 10.40625 48.1875 4.484375 
Q 40.765625 -1.421875 27.09375 -1.421875 
Q 22.515625 -1.421875 17.65625 -0.515625 
Q 12.796875 0.390625 7.625 2.203125 
L 7.625 11.71875 
Q 11.71875 9.328125 16.59375 8.109375 
Q 21.484375 6.890625 26.8125 6.890625 
Q 36.078125 6.890625 40.9375 10.546875 
Q 45.796875 14.203125 45.796875 21.1875 
Q 45.796875 27.640625 41.28125 31.265625 
Q 36.765625 34.90625 28.71875 34.90625 
L 20.21875 34.90625 
L 20.21875 43.015625 
L 29.109375 43.015625 
Q 36.375 43.015625 40.234375 45.921875 
Q 44.09375 48.828125 44.09375 54.296875 
Q 44.09375 59.90625 40.109375 62.90625 
Q 36.140625 65.921875 28.71875 65.921875 
Q 24.65625 65.921875 20.015625 65.03125 
Q 15.375 64.15625 9.8125 62.3125 
L 9.8125 71.09375 
Q 15.4375 72.65625 20.34375 73.4375 
Q 25.25 74.21875 29.59375 74.21875 
Q 40.828125 74.21875 47.359375 69.109375 
Q 53.90625 64.015625 53.90625 55.328125 
Q 53.90625 49.265625 50.4375 45.09375 
Q 46.96875 40.921875 40.578125 39.3125 
z
" id="DejaVuSans-51"/>
       </defs>
       <use xlink:href="#DejaVuSans-51"/>
       <use x="63.623047" xlink:href="#DejaVuSans-48"/>
       <use x="127.246094" xlink:href="#DejaVuSans-48"/>
      </g>
     </g>
    </g>
    <g id="text_15">
     <!-- Retransmission_day[dimensionless] -->
     <g transform="translate(25.154687 263.967844)rotate(-90)scale(0.1 -0.1)">
      <defs>
       <path d="M 44.390625 34.1875 
Q 47.5625 33.109375 50.5625 29.59375 
Q 53.5625 26.078125 56.59375 19.921875 
L 66.609375 0 
L 56 0 
L 46.6875 18.703125 
Q 43.0625 26.03125 39.671875 28.421875 
Q 36.28125 30.8125 30.421875 30.8125 
L 19.671875 30.8125 
L 19.671875 0 
L 9.8125 0 
L 9.8125 72.90625 
L 32.078125 72.90625 
Q 44.578125 72.90625 50.734375 67.671875 
Q 56.890625 62.453125 56.890625 51.90625 
Q 56.890625 45.015625 53.6875 40.46875 
Q 50.484375 35.9375 44.390625 34.1875 
z
M 19.671875 64.796875 
L 19.671875 38.921875 
L 32.078125 38.921875 
Q 39.203125 38.921875 42.84375 42.21875 
Q 46.484375 45.515625 46.484375 51.90625 
Q 46.484375 58.296875 42.84375 61.546875 
Q 39.203125 64.796875 32.078125 64.796875 
z
" id="DejaVuSans-82"/>
       <path d="M 32.171875 -5.078125 
Q 28.375 -14.84375 24.75 -17.8125 
Q 21.140625 -20.796875 15.09375 -20.796875 
L 7.90625 -20.796875 
L 7.90625 -13.28125 
L 13.1875 -13.28125 
Q 16.890625 -13.28125 18.9375 -11.515625 
Q 21 -9.765625 23.484375 -3.21875 
L 25.09375 0.875 
L 2.984375 54.6875 
L 12.5 54.6875 
L 29.59375 11.921875 
L 46.6875 54.6875 
L 56.203125 54.6875 
z
" id="DejaVuSans-121"/>
       <path d="M 8.59375 75.984375 
L 29.296875 75.984375 
L 29.296875 69 
L 17.578125 69 
L 17.578125 -6.203125 
L 29.296875 -6.203125 
L 29.296875 -13.1875 
L 8.59375 -13.1875 
z
" id="DejaVuSans-91"/>
       <path d="M 9.421875 75.984375 
L 18.40625 75.984375 
L 18.40625 0 
L 9.421875 0 
z
" id="DejaVuSans-108"/>
       <path d="M 30.421875 75.984375 
L 30.421875 -13.1875 
L 9.71875 -13.1875 
L 9.71875 -6.203125 
L 21.390625 -6.203125 
L 21.390625 69 
L 9.71875 69 
L 9.71875 75.984375 
z
" id="DejaVuSans-93"/>
      </defs>
      <use xlink:href="#DejaVuSans-82"/>
      <use x="64.982422" xlink:href="#DejaVuSans-101"/>
      <use x="126.505859" xlink:href="#DejaVuSans-116"/>
      <use x="165.714844" xlink:href="#DejaVuSans-114"/>
      <use x="206.828125" xlink:href="#DejaVuSans-97"/>
      <use x="268.107422" xlink:href="#DejaVuSans-110"/>
      <use x="331.486328" xlink:href="#DejaVuSans-115"/>
      <use x="383.585938" xlink:href="#DejaVuSans-109"/>
      <use x="480.998047" xlink:href="#DejaVuSans-105"/>
      <use x="508.78125" xlink:href="#DejaVuSans-115"/>
      <use x="560.880859" xlink:href="#DejaVuSans-115"/>
      <use x="612.980469" xlink:href="#DejaVuSans-105"/>
      <use x="640.763672" xlink:href="#DejaVuSans-111"/>
      <use x="701.945312" xlink:href="#DejaVuSans-110"/>
      <use x="765.324219" xlink:href="#DejaVuSans-95"/>
      <use x="815.324219" xlink:href="#DejaVuSans-100"/>
      <use x="878.800781" xlink:href="#DejaVuSans-97"/>
      <use x="940.080078" xlink:href="#DejaVuSans-121"/>
      <use x="999.259766" xlink:href="#DejaVuSans-91"/>
      <use x="1038.273438" xlink:href="#DejaVuSans-100"/>
      <use x="1101.75" xlink:href="#DejaVuSans-105"/>
      <use x="1129.533203" xlink:href="#DejaVuSans-109"/>
      <use x="1226.945312" xlink:href="#DejaVuSans-101"/>
      <use x="1288.46875" xlink:href="#DejaVuSans-110"/>
      <use x="1351.847656" xlink:href="#DejaVuSans-115"/>
      <use x="1403.947266" xlink:href="#DejaVuSans-105"/>
      <use x="1431.730469" xlink:href="#DejaVuSans-111"/>
      <use x="1492.912109" xlink:href="#DejaVuSans-110"/>
      <use x="1556.291016" xlink:href="#DejaVuSans-108"/>
      <use x="1584.074219" xlink:href="#DejaVuSans-101"/>
      <use x="1645.597656" xlink:href="#DejaVuSans-115"/>
      <use x="1697.697266" xlink:href="#DejaVuSans-115"/>
      <use x="1749.796875" xlink:href="#DejaVuSans-93"/>
     </g>
    </g>
   </g>
   <g id="line2d_14">
    <path clip-path="url(#pcf5bd6667b)" d="M 73.832727 125.848976 
L 79.198918 291.062634 
L 80.875853 122.161171 
L 83.894335 269.673366 
L 84.900496 173.052878 
L 85.235883 223.944585 
L 88.589752 154.613854 
L 89.260526 100.771902 
L 89.595913 106.67239 
L 91.272847 181.166049 
L 91.943621 110.360195 
L 94.626717 85.283122 
L 94.962104 102.984585 
L 96.303651 100.771902 
L 96.974425 116.260683 
L 98.65136 295.488 
L 98.986747 219.51922 
L 99.657521 181.166049 
L 100.663681 240.908488 
L 100.999068 135.437268 
L 101.669842 113.310439 
L 102.005229 128.061659 
L 102.676003 112.572878 
L 104.688325 133.962146 
L 105.023711 210.668488 
L 106.029872 117.735805 
L 106.365259 252.709463 
L 106.700646 295.488 
L 107.036033 214.356293 
L 107.706807 136.91239 
L 108.712968 285.162146 
L 110.054515 208.455805 
L 111.060676 72.007024 
L 111.73145 114.048 
L 112.402224 184.116293 
L 112.737611 295.488 
L 113.408385 201.817756 
L 114.414545 94.871415 
L 114.749932 106.67239 
L 115.756093 223.944585 
L 116.426867 279.99922 
L 117.097641 53.568 
L 118.103802 294.012878 
L 119.109962 294.012878 
L 120.116123 279.261659 
L 120.786897 109.622634 
L 121.122284 291.062634 
L 121.457671 154.613854 
L 121.793058 209.930927 
L 122.128445 215.831415 
L 122.799219 125.111415 
L 123.134606 96.346537 
L 123.469992 218.044098 
L 124.140766 252.709463 
L 124.476153 129.53678 
L 124.81154 105.197268 
L 125.146927 170.840195 
L 126.153088 246.071415 
L 127.159249 251.234341 
L 128.165409 144.288 
L 128.836183 114.048 
L 129.17157 294.750439 
L 129.506957 208.455805 
L 129.842344 295.488 
L 130.513118 164.202146 
L 131.854666 131.749463 
L 132.190053 278.524098 
L 132.860826 152.401171 
L 133.196213 122.898732 
L 133.5316 243.858732 
L 133.866987 295.488 
L 135.208535 212.14361 
L 136.88547 220.994341 
L 137.220856 134.699707 
L 137.89163 184.853854 
L 138.227017 245.333854 
L 138.897791 119.210927 
L 139.233178 181.166049 
L 139.903952 214.356293 
L 140.239339 104.459707 
L 140.574726 146.500683 
L 141.2455 295.488 
L 141.580887 208.455805 
L 142.25166 122.161171 
L 142.587047 219.51922 
L 143.593208 246.071415 
L 143.928595 218.044098 
L 144.263982 222.469463 
L 144.599369 127.324098 
L 144.934756 161.251902 
L 145.270143 161.989463 
L 145.940917 131.749463 
L 146.276304 108.147512 
L 147.617851 237.958244 
L 147.953238 125.111415 
L 148.624012 111.097756 
L 148.959399 237.958244 
L 149.294786 133.962146 
L 149.96556 276.311415 
L 150.300947 219.51922 
L 150.636334 256.397268 
L 150.971721 142.812878 
L 151.307107 195.179707 
L 151.642494 190.01678 
L 151.977881 134.699707 
L 152.984042 157.564098 
L 153.319429 136.91239 
L 153.990203 281.474341 
L 154.32559 295.488 
L 154.660977 136.174829 
L 155.331751 130.274341 
L 155.667137 237.220683 
L 156.002524 116.260683 
L 156.337911 220.25678 
L 157.344072 211.406049 
L 157.679459 152.401171 
L 158.014846 279.99922 
L 158.350233 230.582634 
L 158.68562 294.750439 
L 159.021007 258.609951 
L 159.356394 273.361171 
L 160.362554 235.008 
L 160.697941 142.075317 
L 161.033328 198.129951 
L 161.704102 125.848976 
L 162.039489 164.202146 
L 162.374876 285.162146 
L 163.04565 288.11239 
L 163.381037 243.858732 
L 163.716424 158.301659 
L 164.051811 294.012878 
L 164.387198 239.433366 
L 165.057971 190.754341 
L 165.393358 247.546537 
L 165.728745 276.311415 
L 166.064132 256.397268 
L 166.399519 206.243122 
L 166.734906 122.898732 
L 167.070293 295.488 
L 167.40568 271.886049 
L 167.741067 292.537756 
L 168.411841 136.174829 
L 168.747228 129.53678 
L 169.082615 232.057756 
L 169.418002 142.075317 
L 170.088775 216.568976 
L 170.424162 116.260683 
L 170.759549 201.080195 
L 171.094936 139.125073 
L 171.430323 138.387512 
L 171.76571 282.949463 
L 172.101097 209.193366 
L 172.436484 242.38361 
L 173.107258 212.881171 
L 173.778032 133.962146 
L 174.784192 269.673366 
L 175.119579 257.134829 
L 175.454966 105.934829 
L 175.790353 287.374829 
L 176.461127 127.324098 
L 177.131901 114.785561 
L 177.467288 252.709463 
L 177.802675 228.369951 
L 178.138062 246.071415 
L 178.473449 144.288 
L 179.144222 243.121171 
L 179.479609 228.369951 
L 179.814996 295.488 
L 180.150383 91.921171 
L 180.48577 252.709463 
L 180.821157 208.455805 
L 181.156544 221.731902 
L 181.491931 285.162146 
L 181.827318 132.487024 
L 182.162705 235.745561 
L 182.498092 294.750439 
L 182.833479 120.686049 
L 183.168866 135.437268 
L 183.504252 248.284098 
L 183.839639 207.718244 
L 184.510413 239.433366 
L 184.8458 230.582634 
L 185.516574 226.157268 
L 186.187348 131.749463 
L 186.522735 139.862634 
L 186.858122 293.275317 
L 187.193509 99.29678 
L 187.528896 231.320195 
L 187.864282 254.184585 
L 188.199669 131.749463 
L 188.535056 268.935805 
L 189.20583 227.63239 
L 189.541217 136.174829 
L 189.876604 295.488 
L 190.211991 245.333854 
L 190.547378 117.735805 
L 190.882765 282.211902 
L 191.218152 220.25678 
L 191.553539 285.899707 
L 191.888926 216.568976 
L 192.224313 202.555317 
L 192.559699 295.488 
L 192.895086 176.740683 
L 193.230473 97.821659 
L 193.56586 108.147512 
L 193.901247 195.179707 
L 194.236634 230.582634 
L 194.572021 295.488 
L 194.907408 188.541659 
L 195.242795 135.437268 
L 195.578182 127.324098 
L 196.248956 229.107512 
L 196.584343 115.523122 
L 196.91973 141.337756 
L 198.596664 237.220683 
L 198.932051 294.750439 
L 199.267438 222.469463 
L 199.602825 273.361171 
L 199.938212 240.908488 
L 200.273599 169.365073 
L 200.608986 231.320195 
L 201.27976 276.311415 
L 201.615147 282.949463 
L 201.950533 237.958244 
L 202.28592 144.288 
L 202.621307 271.886049 
L 202.956694 251.234341 
L 203.292081 195.917268 
L 203.627468 122.161171 
L 203.962855 295.488 
L 204.298242 137.649951 
L 204.633629 195.179707 
L 205.63979 249.75922 
L 206.310563 295.488 
L 207.652111 295.488 
L 208.322885 287.374829 
L 208.658272 142.812878 
L 208.993659 114.785561 
L 209.664433 270.410927 
L 211.00598 232.057756 
L 211.676754 285.162146 
L 212.012141 295.488 
L 212.347528 227.63239 
L 212.682915 231.320195 
L 213.018302 260.822634 
L 213.689076 295.488 
L 214.695237 295.488 
L 215.366011 159.03922 
L 215.701397 253.447024 
L 216.036784 257.134829 
L 216.707558 228.369951 
L 217.378332 295.488 
L 217.713719 138.387512 
L 218.049106 254.922146 
L 218.71988 285.162146 
L 219.390654 214.356293 
L 220.732201 295.488 
L 221.067588 227.63239 
L 221.402975 227.63239 
L 221.738362 218.781659 
L 222.073749 288.849951 
L 222.409136 295.488 
L 223.07991 223.207024 
L 223.415297 125.111415 
L 223.750684 167.15239 
L 224.086071 295.488 
L 224.421458 189.27922 
L 224.756844 294.750439 
L 225.092231 226.894829 
L 225.763005 293.275317 
L 226.098392 179.690927 
L 226.433779 154.613854 
L 227.43994 120.686049 
L 227.775327 224.682146 
L 228.110714 259.347512 
L 228.446101 218.044098 
L 228.781488 291.062634 
L 229.116875 215.831415 
L 229.452261 93.396293 
L 229.787648 185.591415 
L 230.123035 163.464585 
L 230.458422 295.488 
L 230.793809 229.845073 
L 231.464583 295.488 
L 231.79997 196.654829 
L 232.135357 249.021659 
L 232.806131 234.270439 
L 233.141518 198.867512 
L 233.476905 264.510439 
L 233.812292 187.804098 
L 234.147678 201.080195 
L 234.483065 168.627512 
L 234.818452 245.333854 
L 235.153839 198.129951 
L 235.824613 226.157268 
L 236.16 295.488 
L 236.495387 209.193366 
L 237.166161 128.79922 
L 237.501548 232.795317 
L 237.836935 292.537756 
L 238.172322 249.75922 
L 238.507708 249.021659 
L 238.843095 247.546537 
L 239.178482 176.740683 
L 239.513869 282.949463 
L 239.849256 147.238244 
L 240.52003 118.473366 
L 240.855417 184.116293 
L 241.526191 239.433366 
L 242.196965 237.220683 
L 242.532352 295.488 
L 242.867739 214.356293 
L 243.538512 294.012878 
L 243.873899 294.750439 
L 244.209286 238.695805 
L 244.544673 275.573854 
L 245.550834 107.409951 
L 245.886221 193.704585 
L 246.221608 74.219707 
L 246.556995 231.320195 
L 246.892382 168.627512 
L 247.227769 246.071415 
L 247.563156 188.541659 
L 247.898542 229.107512 
L 248.569316 84.545561 
L 249.24009 111.835317 
L 249.910864 248.284098 
L 250.246251 174.528 
L 250.581638 199.605073 
L 250.917025 143.550439 
L 252.593959 294.750439 
L 252.929346 278.524098 
L 253.264733 233.532878 
L 253.60012 214.356293 
L 253.935507 235.008 
L 254.606281 237.220683 
L 254.941668 241.646049 
L 255.277055 197.39239 
L 255.612442 229.845073 
L 255.947829 294.012878 
L 256.283216 285.162146 
L 256.618603 133.962146 
L 256.953989 229.845073 
L 258.295537 229.845073 
L 258.966311 246.071415 
L 259.301698 239.433366 
L 259.637085 288.849951 
L 260.307859 232.795317 
L 260.643246 292.537756 
L 260.978633 204.768 
L 261.649406 181.90361 
L 263.997115 277.048976 
L 264.332502 283.687024 
L 265.003276 293.275317 
L 265.338663 165.677268 
L 266.009437 274.836293 
L 266.344823 138.387512 
L 266.68021 128.79922 
L 267.015597 171.577756 
L 267.350984 237.958244 
L 267.686371 130.274341 
L 268.357145 229.107512 
L 269.027919 204.768 
L 269.363306 237.958244 
L 271.04024 294.750439 
L 271.375627 222.469463 
L 272.046401 177.478244 
L 272.717175 294.750439 
L 273.387949 224.682146 
L 273.723336 235.745561 
L 274.729497 294.012878 
L 275.064884 160.514341 
L 275.40027 255.659707 
L 276.071044 265.985561 
L 277.077205 266.723122 
L 277.412592 289.587512 
L 278.083366 291.800195 
L 278.418753 198.867512 
L 278.75414 295.488 
L 279.089527 237.220683 
L 280.095687 240.170927 
L 280.766461 108.885073 
L 281.101848 268.198244 
L 281.437235 253.447024 
L 282.108009 162.727024 
L 282.778783 291.800195 
L 283.449557 187.066537 
L 283.784944 209.930927 
L 284.120331 102.984585 
L 285.461878 126.586537 
L 286.132652 232.057756 
L 286.468039 184.116293 
L 286.803426 158.301659 
L 287.138813 116.998244 
L 287.4742 290.325073 
L 287.809587 199.605073 
L 288.480361 106.67239 
L 288.815748 229.107512 
L 289.821908 225.419707 
L 290.157295 274.836293 
L 290.492682 240.908488 
L 290.828069 75.694829 
L 291.498843 237.958244 
L 291.83423 130.274341 
L 292.169617 168.627512 
L 292.840391 288.11239 
L 293.175778 166.414829 
L 293.846551 181.90361 
L 294.181938 153.876293 
L 294.517325 283.687024 
L 295.858873 251.971902 
L 296.19426 231.320195 
L 296.865034 115.523122 
L 297.200421 100.034341 
L 297.535808 96.346537 
L 298.541968 153.138732 
L 299.883516 263.772878 
L 301.225064 232.057756 
L 301.560451 189.27922 
L 302.231225 158.301659 
L 302.901998 227.63239 
L 303.572772 222.469463 
L 303.908159 248.284098 
L 304.243546 119.210927 
L 305.585094 259.347512 
L 305.920481 128.79922 
L 307.262029 256.397268 
L 309.945124 131.011902 
L 311.286672 152.401171 
L 312.292832 220.994341 
L 314.640541 240.170927 
L 314.975928 162.727024 
L 315.311315 272.62361 
L 315.982089 178.953366 
L 318.329797 263.772878 
L 318.665184 115.523122 
L 320.006732 236.483122 
L 321.683666 188.541659 
L 322.35444 257.134829 
L 323.695988 235.745561 
L 324.702149 272.62361 
L 325.70831 255.659707 
L 327.385244 135.437268 
L 328.726792 219.51922 
L 330.06834 191.491902 
L 335.099144 126.586537 
L 336.440691 143.550439 
L 339.459174 294.750439 
L 340.465334 291.800195 
L 341.136108 216.568976 
L 343.483817 222.469463 
L 347.50846 281.474341 
L 348.179234 215.093854 
L 352.203877 295.488 
L 353.210038 295.488 
L 354.551585 294.012878 
L 359.247002 261.560195 
L 359.582389 274.836293 
L 360.253163 278.524098 
L 370.985545 293.275317 
L 373.333253 290.325073 
L 383.730248 294.012878 
L 388.761052 288.11239 
L 396.810338 294.012878 
L 398.487273 291.062634 
L 398.487273 291.062634 
" style="fill:none;stroke:#0000ff;stroke-linecap:square;stroke-width:1.5;"/>
   </g>
   <g id="patch_3">
    <path d="M 57.6 307.584 
L 57.6 41.472 
" style="fill:none;stroke:#000000;stroke-linecap:square;stroke-linejoin:miter;stroke-width:0.8;"/>
   </g>
   <g id="patch_4">
    <path d="M 414.72 307.584 
L 414.72 41.472 
" style="fill:none;stroke:#000000;stroke-linecap:square;stroke-linejoin:miter;stroke-width:0.8;"/>
   </g>
   <g id="patch_5">
    <path d="M 57.6 307.584 
L 414.72 307.584 
" style="fill:none;stroke:#000000;stroke-linecap:square;stroke-linejoin:miter;stroke-width:0.8;"/>
   </g>
   <g id="patch_6">
    <path d="M 57.6 41.472 
L 414.72 41.472 
" style="fill:none;stroke:#000000;stroke-linecap:square;stroke-linejoin:miter;stroke-width:0.8;"/>
   </g>
   <g id="text_16">
    <!-- wind_speed-&gt;Retransmission_day -->
    <g transform="translate(133.699687 35.472)scale(0.12 -0.12)">
     <defs>
      <path d="M 4.890625 31.390625 
L 31.203125 31.390625 
L 31.203125 23.390625 
L 4.890625 23.390625 
z
" id="DejaVuSans-45"/>
      <path d="M 10.59375 49.21875 
L 10.59375 58.109375 
L 73.1875 35.40625 
L 73.1875 27.296875 
L 10.59375 4.59375 
L 10.59375 13.484375 
L 60.890625 31.296875 
z
" id="DejaVuSans-62"/>
     </defs>
     <use xlink:href="#DejaVuSans-119"/>
     <use x="81.787109" xlink:href="#DejaVuSans-105"/>
     <use x="109.570312" xlink:href="#DejaVuSans-110"/>
     <use x="172.949219" xlink:href="#DejaVuSans-100"/>
     <use x="236.425781" xlink:href="#DejaVuSans-95"/>
     <use x="286.425781" xlink:href="#DejaVuSans-115"/>
     <use x="338.525391" xlink:href="#DejaVuSans-112"/>
     <use x="402.001953" xlink:href="#DejaVuSans-101"/>
     <use x="463.525391" xlink:href="#DejaVuSans-101"/>
     <use x="525.048828" xlink:href="#DejaVuSans-100"/>
     <use x="588.525391" xlink:href="#DejaVuSans-45"/>
     <use x="624.609375" xlink:href="#DejaVuSans-62"/>
     <use x="708.398438" xlink:href="#DejaVuSans-82"/>
     <use x="773.380859" xlink:href="#DejaVuSans-101"/>
     <use x="834.904297" xlink:href="#DejaVuSans-116"/>
     <use x="874.113281" xlink:href="#DejaVuSans-114"/>
     <use x="915.226562" xlink:href="#DejaVuSans-97"/>
     <use x="976.505859" xlink:href="#DejaVuSans-110"/>
     <use x="1039.884766" xlink:href="#DejaVuSans-115"/>
     <use x="1091.984375" xlink:href="#DejaVuSans-109"/>
     <use x="1189.396484" xlink:href="#DejaVuSans-105"/>
     <use x="1217.179688" xlink:href="#DejaVuSans-115"/>
     <use x="1269.279297" xlink:href="#DejaVuSans-115"/>
     <use x="1321.378906" xlink:href="#DejaVuSans-105"/>
     <use x="1349.162109" xlink:href="#DejaVuSans-111"/>
     <use x="1410.34375" xlink:href="#DejaVuSans-110"/>
     <use x="1473.722656" xlink:href="#DejaVuSans-95"/>
     <use x="1523.722656" xlink:href="#DejaVuSans-100"/>
     <use x="1587.199219" xlink:href="#DejaVuSans-97"/>
     <use x="1648.478516" xlink:href="#DejaVuSans-121"/>
    </g>
   </g>
  </g>
  <g id="legend_1">
   <g id="patch_7">
    <path d="M 242.920312 22.95625 
L 453.8 22.95625 
Q 455.8 22.95625 455.8 20.95625 
L 455.8 7 
Q 455.8 5 453.8 5 
L 242.920312 5 
Q 240.920312 5 240.920312 7 
L 240.920312 20.95625 
Q 240.920312 22.95625 242.920312 22.95625 
z
" style="fill:#ffffff;opacity:0.8;stroke:#cccccc;stroke-linejoin:miter;"/>
   </g>
   <g id="line2d_15">
    <path d="M 244.920312 13.098437 
L 264.920313 13.098437 
" style="fill:none;stroke:#0000ff;stroke-linecap:square;stroke-width:1.5;"/>
   </g>
   <g id="line2d_16"/>
   <g id="text_17">
    <!-- Retransmission_day[dimensionless] -->
    <g transform="translate(272.920313 16.598437)scale(0.1 -0.1)">
     <use xlink:href="#DejaVuSans-82"/>
     <use x="64.982422" xlink:href="#DejaVuSans-101"/>
     <use x="126.505859" xlink:href="#DejaVuSans-116"/>
     <use x="165.714844" xlink:href="#DejaVuSans-114"/>
     <use x="206.828125" xlink:href="#DejaVuSans-97"/>
     <use x="268.107422" xlink:href="#DejaVuSans-110"/>
     <use x="331.486328" xlink:href="#DejaVuSans-115"/>
     <use x="383.585938" xlink:href="#DejaVuSans-109"/>
     <use x="480.998047" xlink:href="#DejaVuSans-105"/>
     <use x="508.78125" xlink:href="#DejaVuSans-115"/>
     <use x="560.880859" xlink:href="#DejaVuSans-115"/>
     <use x="612.980469" xlink:href="#DejaVuSans-105"/>
     <use x="640.763672" xlink:href="#DejaVuSans-111"/>
     <use x="701.945312" xlink:href="#DejaVuSans-110"/>
     <use x="765.324219" xlink:href="#DejaVuSans-95"/>
     <use x="815.324219" xlink:href="#DejaVuSans-100"/>
     <use x="878.800781" xlink:href="#DejaVuSans-97"/>
     <use x="940.080078" xlink:href="#DejaVuSans-121"/>
     <use x="999.259766" xlink:href="#DejaVuSans-91"/>
     <use x="1038.273438" xlink:href="#DejaVuSans-100"/>
     <use x="1101.75" xlink:href="#DejaVuSans-105"/>
     <use x="1129.533203" xlink:href="#DejaVuSans-109"/>
     <use x="1226.945312" xlink:href="#DejaVuSans-101"/>
     <use x="1288.46875" xlink:href="#DejaVuSans-110"/>
     <use x="1351.847656" xlink:href="#DejaVuSans-115"/>
     <use x="1403.947266" xlink:href="#DejaVuSans-105"/>
     <use x="1431.730469" xlink:href="#DejaVuSans-111"/>
     <use x="1492.912109" xlink:href="#DejaVuSans-110"/>
     <use x="1556.291016" xlink:href="#DejaVuSans-108"/>
     <use x="1584.074219" xlink:href="#DejaVuSans-101"/>
     <use x="1645.597656" xlink:href="#DejaVuSans-115"/>
     <use x="1697.697266" xlink:href="#DejaVuSans-115"/>
     <use x="1749.796875" xlink:href="#DejaVuSans-93"/>
    </g>
   </g>
  </g>
 </g>
 <defs>
  <clipPath id="pcf5bd6667b">
   <rect height="266.112" width="357.12" x="57.6" y="41.472"/>
  </clipPath>
 </defs>
</svg>
