<?xml version="1.0" encoding="utf-8" standalone="no"?>
<!DOCTYPE svg PUBLIC "-//W3C//DTD SVG 1.1//EN"
  "http://www.w3.org/Graphics/SVG/1.1/DTD/svg11.dtd">
<!-- Created with matplotlib (https://matplotlib.org/) -->
<svg height="2090.594375pt" version="1.1" viewBox="0 0 2065.44375 2090.594375" width="2065.44375pt" xmlns="http://www.w3.org/2000/svg" xmlns:xlink="http://www.w3.org/1999/xlink">
 <metadata>
  <rdf:RDF xmlns:cc="http://creativecommons.org/ns#" xmlns:dc="http://purl.org/dc/elements/1.1/" xmlns:rdf="http://www.w3.org/1999/02/22-rdf-syntax-ns#">
   <cc:Work>
    <dc:type rdf:resource="http://purl.org/dc/dcmitype/StillImage"/>
    <dc:date>2022-07-24T11:42:11.171499</dc:date>
    <dc:format>image/svg+xml</dc:format>
    <dc:creator>
     <cc:Agent>
      <dc:title>Matplotlib v3.3.2, https://matplotlib.org/</dc:title>
     </cc:Agent>
    </dc:creator>
   </cc:Work>
  </rdf:RDF>
 </metadata>
 <defs>
  <style type="text/css">*{stroke-linecap:butt;stroke-linejoin:round;}</style>
 </defs>
 <g id="figure_1">
  <g id="patch_1">
   <path d="M 0 2090.594375 
L 2065.44375 2090.594375 
L 2065.44375 0 
L 0 0 
z
" style="fill:#ffffff;"/>
  </g>
  <g id="axes_1">
   <g id="patch_2">
    <path d="M 47.24375 2052.76 
L 1832.84375 2052.76 
L 1832.84375 278.68 
L 47.24375 278.68 
z
" style="fill:#ffffff;"/>
   </g>
   <g id="matplotlib.axis_1">
    <g id="xtick_1">
     <g id="line2d_1">
      <defs>
       <path d="M 0 0 
L 0 3.5 
" id="mc3ac803d86" style="stroke:#000000;stroke-width:0.8;"/>
      </defs>
      <g>
       <use style="stroke:#000000;stroke-width:0.8;" x="234.450328" xlink:href="#mc3ac803d86" y="2052.76"/>
      </g>
     </g>
     <g id="text_1">
      <text style="font-family:DejaVu Sans;font-size:10px;font-stretch:normal;font-style:normal;font-weight:normal;text-anchor:middle;" transform="rotate(-0, 234.450328, 2067.358437)" x="234.450328" y="2067.358437">1007.5</text>
     </g>
    </g>
    <g id="xtick_2">
     <g id="line2d_2">
      <g>
       <use style="stroke:#000000;stroke-width:0.8;" x="438.379063" xlink:href="#mc3ac803d86" y="2052.76"/>
      </g>
     </g>
     <g id="text_2">
      <text style="font-family:DejaVu Sans;font-size:10px;font-stretch:normal;font-style:normal;font-weight:normal;text-anchor:middle;" transform="rotate(-0, 438.379063, 2067.358437)" x="438.379063" y="2067.358437">1010.0</text>
     </g>
    </g>
    <g id="xtick_3">
     <g id="line2d_3">
      <g>
       <use style="stroke:#000000;stroke-width:0.8;" x="642.307798" xlink:href="#mc3ac803d86" y="2052.76"/>
      </g>
     </g>
     <g id="text_3">
      <text style="font-family:DejaVu Sans;font-size:10px;font-stretch:normal;font-style:normal;font-weight:normal;text-anchor:middle;" transform="rotate(-0, 642.307798, 2067.358437)" x="642.307798" y="2067.358437">1012.5</text>
     </g>
    </g>
    <g id="xtick_4">
     <g id="line2d_4">
      <g>
       <use style="stroke:#000000;stroke-width:0.8;" x="846.236532" xlink:href="#mc3ac803d86" y="2052.76"/>
      </g>
     </g>
     <g id="text_4">
      <text style="font-family:DejaVu Sans;font-size:10px;font-stretch:normal;font-style:normal;font-weight:normal;text-anchor:middle;" transform="rotate(-0, 846.236532, 2067.358437)" x="846.236532" y="2067.358437">1015.0</text>
     </g>
    </g>
    <g id="xtick_5">
     <g id="line2d_5">
      <g>
       <use style="stroke:#000000;stroke-width:0.8;" x="1050.165267" xlink:href="#mc3ac803d86" y="2052.76"/>
      </g>
     </g>
     <g id="text_5">
      <text style="font-family:DejaVu Sans;font-size:10px;font-stretch:normal;font-style:normal;font-weight:normal;text-anchor:middle;" transform="rotate(-0, 1050.165267, 2067.358437)" x="1050.165267" y="2067.358437">1017.5</text>
     </g>
    </g>
    <g id="xtick_6">
     <g id="line2d_6">
      <g>
       <use style="stroke:#000000;stroke-width:0.8;" x="1254.094001" xlink:href="#mc3ac803d86" y="2052.76"/>
      </g>
     </g>
     <g id="text_6">
      <text style="font-family:DejaVu Sans;font-size:10px;font-stretch:normal;font-style:normal;font-weight:normal;text-anchor:middle;" transform="rotate(-0, 1254.094001, 2067.358437)" x="1254.094001" y="2067.358437">1020.0</text>
     </g>
    </g>
    <g id="xtick_7">
     <g id="line2d_7">
      <g>
       <use style="stroke:#000000;stroke-width:0.8;" x="1458.022736" xlink:href="#mc3ac803d86" y="2052.76"/>
      </g>
     </g>
     <g id="text_7">
      <text style="font-family:DejaVu Sans;font-size:10px;font-stretch:normal;font-style:normal;font-weight:normal;text-anchor:middle;" transform="rotate(-0, 1458.022736, 2067.358437)" x="1458.022736" y="2067.358437">1022.5</text>
     </g>
    </g>
    <g id="xtick_8">
     <g id="line2d_8">
      <g>
       <use style="stroke:#000000;stroke-width:0.8;" x="1661.95147" xlink:href="#mc3ac803d86" y="2052.76"/>
      </g>
     </g>
     <g id="text_8">
      <text style="font-family:DejaVu Sans;font-size:10px;font-stretch:normal;font-style:normal;font-weight:normal;text-anchor:middle;" transform="rotate(-0, 1661.95147, 2067.358437)" x="1661.95147" y="2067.358437">1025.0</text>
     </g>
    </g>
    <g id="text_9">
     <text style="font-family:DejaVu Sans;font-size:10px;font-stretch:normal;font-style:normal;font-weight:normal;text-anchor:middle;" transform="rotate(-0, 940.04375, 2081.036562)" x="940.04375" y="2081.036562">air_pressure from Aeris</text>
    </g>
   </g>
   <g id="matplotlib.axis_2">
    <g id="ytick_1">
     <g id="line2d_9">
      <defs>
       <path d="M 0 0 
L -3.5 0 
" id="mc868c66215" style="stroke:#000000;stroke-width:0.8;"/>
      </defs>
      <g>
       <use style="stroke:#000000;stroke-width:0.8;" x="47.24375" xlink:href="#mc868c66215" y="1750.798519"/>
      </g>
     </g>
     <g id="text_10">
      <text style="font-family:DejaVu Sans;font-size:10px;font-stretch:normal;font-style:normal;font-weight:normal;text-anchor:end;" transform="rotate(-0, 40.24375, 1754.597738)" x="40.24375" y="1754.597738">20</text>
     </g>
    </g>
    <g id="ytick_2">
     <g id="line2d_10">
      <g>
       <use style="stroke:#000000;stroke-width:0.8;" x="47.24375" xlink:href="#mc868c66215" y="1433.605427"/>
      </g>
     </g>
     <g id="text_11">
      <text style="font-family:DejaVu Sans;font-size:10px;font-stretch:normal;font-style:normal;font-weight:normal;text-anchor:end;" transform="rotate(-0, 40.24375, 1437.404645)" x="40.24375" y="1437.404645">40</text>
     </g>
    </g>
    <g id="ytick_3">
     <g id="line2d_11">
      <g>
       <use style="stroke:#000000;stroke-width:0.8;" x="47.24375" xlink:href="#mc868c66215" y="1116.412334"/>
      </g>
     </g>
     <g id="text_12">
      <text style="font-family:DejaVu Sans;font-size:10px;font-stretch:normal;font-style:normal;font-weight:normal;text-anchor:end;" transform="rotate(-0, 40.24375, 1120.211552)" x="40.24375" y="1120.211552">60</text>
     </g>
    </g>
    <g id="ytick_4">
     <g id="line2d_12">
      <g>
       <use style="stroke:#000000;stroke-width:0.8;" x="47.24375" xlink:href="#mc868c66215" y="799.219241"/>
      </g>
     </g>
     <g id="text_13">
      <text style="font-family:DejaVu Sans;font-size:10px;font-stretch:normal;font-style:normal;font-weight:normal;text-anchor:end;" transform="rotate(-0, 40.24375, 803.01846)" x="40.24375" y="803.01846">80</text>
     </g>
    </g>
    <g id="ytick_5">
     <g id="line2d_13">
      <g>
       <use style="stroke:#000000;stroke-width:0.8;" x="47.24375" xlink:href="#mc868c66215" y="482.026148"/>
      </g>
     </g>
     <g id="text_14">
      <text style="font-family:DejaVu Sans;font-size:10px;font-stretch:normal;font-style:normal;font-weight:normal;text-anchor:end;" transform="rotate(-0, 40.24375, 485.825367)" x="40.24375" y="485.825367">100</text>
     </g>
    </g>
    <g id="text_15">
     <text style="font-family:DejaVu Sans;font-size:10px;font-stretch:normal;font-style:normal;font-weight:normal;text-anchor:middle;" transform="rotate(-90, 14.798438, 1165.72)" x="14.798438" y="1165.72">ping_day[ms]</text>
    </g>
   </g>
   <g id="line2d_14">
    <path clip-path="url(#p64fd27d8c6)" d="M 128.407386 1342.142798 
L 144.721685 1942.494165 
L 169.193133 1957.957328 
L 177.350283 1688.961726 
L 201.821731 1724.931423 
L 209.97888 1815.331454 
L 226.293179 1328.551074 
L 250.764627 1634.721707 
L 258.921776 1537.137252 
L 275.236075 1968.821192 
L 283.393225 1703.568468 
L 291.550374 1827.495809 
L 307.864673 1484.927269 
L 316.021822 1474.697792 
L 364.964718 1899.403483 
L 373.121868 1577.18288 
L 381.279017 1949.488273 
L 389.436167 1727.199353 
L 397.593316 1443.470132 
L 422.064764 1855.297784 
L 438.379063 1949.710308 
L 446.536212 1870.871965 
L 454.693362 1325.712196 
L 471.00766 1837.265357 
L 479.16481 1775.12723 
L 503.636258 1639.495463 
L 528.107706 1828.669424 
L 536.264856 1467.005859 
L 552.579154 1582.559303 
L 577.050602 1886.350988 
L 585.207752 988.123587 
L 601.522051 1763.105611 
L 609.6792 1344.283852 
L 617.836349 1844.989008 
L 634.150648 1623.57237 
L 642.307798 1808.480083 
L 658.622096 1596.02415 
L 666.779246 1927.015142 
L 683.093544 1932.16953 
L 691.250694 1409.11812 
L 715.722142 1290.836815 
L 723.879291 1961.462312 
L 748.350739 359.32 
L 772.822188 1102.550996 
L 780.979337 1972.12 
L 797.293636 1655.212381 
L 805.450785 1893.107201 
L 821.765084 1965.871296 
L 854.393681 1474.348879 
L 862.550831 1573.566879 
L 878.86513 1611.852085 
L 887.022279 1881.67239 
L 903.336578 1959.908066 
L 911.493727 1340.985043 
L 935.965175 1394.019729 
L 944.122325 1953.833818 
L 960.436623 1615.182613 
L 968.593773 1894.312534 
L 984.908072 1500.295274 
L 993.065221 1375.067441 
L 1017.536669 1395.209203 
L 1042.008117 1896.199833 
L 1074.636715 1222.814757 
L 1099.108163 1774.762458 
L 1107.265312 1659.954418 
L 1123.579611 1662.254068 
L 1131.736761 1957.576697 
L 1156.208209 1901.4018 
L 1180.679657 1682.253092 
L 1188.836806 1587.142743 
L 1205.151105 1572.345685 
L 1213.308254 1657.480312 
L 1237.779702 1955.213608 
L 1262.251151 1658.860101 
L 1270.4083 1933.787215 
L 1286.722599 1512.174156 
L 1343.822644 1387.358674 
L 1368.294093 1653.769152 
L 1392.765541 1753.780135 
L 1400.92269 1228.682829 
L 1425.394138 1330.152899 
L 1449.865586 1597.245343 
L 1482.494184 1415.668157 
L 1506.965632 1439.41006 
L 1531.43708 1414.906894 
L 1564.065678 1927.237177 
L 1588.537126 1363.870525 
L 1613.008574 1532.379356 
L 1645.637172 1451.733012 
L 1670.10862 1335.053533 
L 1694.580068 1575.485897 
L 1727.208665 1950.170238 
L 1751.680114 1076.461864 
" style="fill:none;stroke:#0000ff;stroke-linecap:square;stroke-width:1.5;"/>
   </g>
   <g id="patch_3">
    <path d="M 47.24375 2052.76 
L 47.24375 278.68 
" style="fill:none;stroke:#000000;stroke-linecap:square;stroke-linejoin:miter;stroke-width:0.8;"/>
   </g>
   <g id="patch_4">
    <path d="M 1832.84375 2052.76 
L 1832.84375 278.68 
" style="fill:none;stroke:#000000;stroke-linecap:square;stroke-linejoin:miter;stroke-width:0.8;"/>
   </g>
   <g id="patch_5">
    <path d="M 47.24375 2052.76 
L 1832.84375 2052.76 
" style="fill:none;stroke:#000000;stroke-linecap:square;stroke-linejoin:miter;stroke-width:0.8;"/>
   </g>
   <g id="patch_6">
    <path d="M 47.24375 278.68 
L 1832.84375 278.68 
" style="fill:none;stroke:#000000;stroke-linecap:square;stroke-linejoin:miter;stroke-width:0.8;"/>
   </g>
   <g id="text_16">
    <text style="font-family:DejaVu Sans;font-size:12px;font-stretch:normal;font-style:normal;font-weight:normal;text-anchor:middle;" transform="rotate(-0, 940.04375, 272.68)" x="940.04375" y="272.68">air_pressure-&gt;ping_day</text>
   </g>
  </g>
  <g id="legend_1">
   <g id="patch_7">
    <path d="M 1958.482812 22.95625 
L 2058.44375 22.95625 
Q 2060.44375 22.95625 2060.44375 20.95625 
L 2060.44375 7 
Q 2060.44375 5 2058.44375 5 
L 1958.482812 5 
Q 1956.482812 5 1956.482812 7 
L 1956.482812 20.95625 
Q 1956.482812 22.95625 1958.482812 22.95625 
z
" style="fill:#ffffff;opacity:0.8;stroke:#cccccc;stroke-linejoin:miter;"/>
   </g>
   <g id="line2d_15">
    <path d="M 1960.482812 13.098438 
L 1980.482812 13.098438 
" style="fill:none;stroke:#0000ff;stroke-linecap:square;stroke-width:1.5;"/>
   </g>
   <g id="line2d_16"/>
   <g id="text_17">
    <text style="font-family:DejaVu Sans;font-size:10px;font-stretch:normal;font-style:normal;font-weight:normal;text-anchor:start;" transform="rotate(-0, 1988.482812, 16.598438)" x="1988.482812" y="16.598438">ping_day[ms]</text>
   </g>
  </g>
 </g>
 <defs>
  <clipPath id="p64fd27d8c6">
   <rect height="1774.08" width="1785.6" x="47.24375" y="278.68"/>
  </clipPath>
 </defs>
</svg>
