<?xml version="1.0" encoding="utf-8" standalone="no"?>
<!DOCTYPE svg PUBLIC "-//W3C//DTD SVG 1.1//EN"
  "http://www.w3.org/Graphics/SVG/1.1/DTD/svg11.dtd">
<!-- Created with matplotlib (https://matplotlib.org/) -->
<svg height="2090.594375pt" version="1.1" viewBox="0 0 2065.44375 2090.594375" width="2065.44375pt" xmlns="http://www.w3.org/2000/svg" xmlns:xlink="http://www.w3.org/1999/xlink">
 <metadata>
  <rdf:RDF xmlns:cc="http://creativecommons.org/ns#" xmlns:dc="http://purl.org/dc/elements/1.1/" xmlns:rdf="http://www.w3.org/1999/02/22-rdf-syntax-ns#">
   <cc:Work>
    <dc:type rdf:resource="http://purl.org/dc/dcmitype/StillImage"/>
    <dc:date>2022-07-23T20:59:58.487037</dc:date>
    <dc:format>image/svg+xml</dc:format>
    <dc:creator>
     <cc:Agent>
      <dc:title>Matplotlib v3.3.2, https://matplotlib.org/</dc:title>
     </cc:Agent>
    </dc:creator>
   </cc:Work>
  </rdf:RDF>
 </metadata>
 <defs>
  <style type="text/css">*{stroke-linecap:butt;stroke-linejoin:round;}</style>
 </defs>
 <g id="figure_1">
  <g id="patch_1">
   <path d="M 0 2090.594375 
L 2065.44375 2090.594375 
L 2065.44375 0 
L 0 0 
z
" style="fill:#ffffff;"/>
  </g>
  <g id="axes_1">
   <g id="patch_2">
    <path d="M 47.24375 2052.76 
L 1832.84375 2052.76 
L 1832.84375 278.68 
L 47.24375 278.68 
z
" style="fill:#ffffff;"/>
   </g>
   <g id="matplotlib.axis_1">
    <g id="xtick_1">
     <g id="line2d_1">
      <defs>
       <path d="M 0 0 
L 0 3.5 
" id="m8332285e97" style="stroke:#000000;stroke-width:0.8;"/>
      </defs>
      <g>
       <use style="stroke:#000000;stroke-width:0.8;" x="103.187047" xlink:href="#m8332285e97" y="2052.76"/>
      </g>
     </g>
     <g id="text_1">
      <text style="font-family:DejaVu Sans;font-size:10px;font-stretch:normal;font-style:normal;font-weight:normal;text-anchor:middle;" transform="rotate(-0, 103.187047, 2067.358437)" x="103.187047" y="2067.358437">0</text>
     </g>
    </g>
    <g id="xtick_2">
     <g id="line2d_2">
      <g>
       <use style="stroke:#000000;stroke-width:0.8;" x="332.462856" xlink:href="#m8332285e97" y="2052.76"/>
      </g>
     </g>
     <g id="text_2">
      <text style="font-family:DejaVu Sans;font-size:10px;font-stretch:normal;font-style:normal;font-weight:normal;text-anchor:middle;" transform="rotate(-0, 332.462856, 2067.358437)" x="332.462856" y="2067.358437">2</text>
     </g>
    </g>
    <g id="xtick_3">
     <g id="line2d_3">
      <g>
       <use style="stroke:#000000;stroke-width:0.8;" x="561.738665" xlink:href="#m8332285e97" y="2052.76"/>
      </g>
     </g>
     <g id="text_3">
      <text style="font-family:DejaVu Sans;font-size:10px;font-stretch:normal;font-style:normal;font-weight:normal;text-anchor:middle;" transform="rotate(-0, 561.738665, 2067.358437)" x="561.738665" y="2067.358437">4</text>
     </g>
    </g>
    <g id="xtick_4">
     <g id="line2d_4">
      <g>
       <use style="stroke:#000000;stroke-width:0.8;" x="791.014474" xlink:href="#m8332285e97" y="2052.76"/>
      </g>
     </g>
     <g id="text_4">
      <text style="font-family:DejaVu Sans;font-size:10px;font-stretch:normal;font-style:normal;font-weight:normal;text-anchor:middle;" transform="rotate(-0, 791.014474, 2067.358437)" x="791.014474" y="2067.358437">6</text>
     </g>
    </g>
    <g id="xtick_5">
     <g id="line2d_5">
      <g>
       <use style="stroke:#000000;stroke-width:0.8;" x="1020.290283" xlink:href="#m8332285e97" y="2052.76"/>
      </g>
     </g>
     <g id="text_5">
      <text style="font-family:DejaVu Sans;font-size:10px;font-stretch:normal;font-style:normal;font-weight:normal;text-anchor:middle;" transform="rotate(-0, 1020.290283, 2067.358437)" x="1020.290283" y="2067.358437">8</text>
     </g>
    </g>
    <g id="xtick_6">
     <g id="line2d_6">
      <g>
       <use style="stroke:#000000;stroke-width:0.8;" x="1249.566092" xlink:href="#m8332285e97" y="2052.76"/>
      </g>
     </g>
     <g id="text_6">
      <text style="font-family:DejaVu Sans;font-size:10px;font-stretch:normal;font-style:normal;font-weight:normal;text-anchor:middle;" transform="rotate(-0, 1249.566092, 2067.358437)" x="1249.566092" y="2067.358437">10</text>
     </g>
    </g>
    <g id="xtick_7">
     <g id="line2d_7">
      <g>
       <use style="stroke:#000000;stroke-width:0.8;" x="1478.841901" xlink:href="#m8332285e97" y="2052.76"/>
      </g>
     </g>
     <g id="text_7">
      <text style="font-family:DejaVu Sans;font-size:10px;font-stretch:normal;font-style:normal;font-weight:normal;text-anchor:middle;" transform="rotate(-0, 1478.841901, 2067.358437)" x="1478.841901" y="2067.358437">12</text>
     </g>
    </g>
    <g id="xtick_8">
     <g id="line2d_8">
      <g>
       <use style="stroke:#000000;stroke-width:0.8;" x="1708.11771" xlink:href="#m8332285e97" y="2052.76"/>
      </g>
     </g>
     <g id="text_8">
      <text style="font-family:DejaVu Sans;font-size:10px;font-stretch:normal;font-style:normal;font-weight:normal;text-anchor:middle;" transform="rotate(-0, 1708.11771, 2067.358437)" x="1708.11771" y="2067.358437">14</text>
     </g>
    </g>
    <g id="text_9">
     <text style="font-family:DejaVu Sans;font-size:10px;font-stretch:normal;font-style:normal;font-weight:normal;text-anchor:middle;" transform="rotate(-0, 940.04375, 2081.036562)" x="940.04375" y="2081.036562">wind_speed from OpenWeatherMap</text>
    </g>
   </g>
   <g id="matplotlib.axis_2">
    <g id="ytick_1">
     <g id="line2d_9">
      <defs>
       <path d="M 0 0 
L -3.5 0 
" id="mea4195eb1f" style="stroke:#000000;stroke-width:0.8;"/>
      </defs>
      <g>
       <use style="stroke:#000000;stroke-width:0.8;" x="47.24375" xlink:href="#mea4195eb1f" y="2021.302653"/>
      </g>
     </g>
     <g id="text_10">
      <text style="font-family:DejaVu Sans;font-size:10px;font-stretch:normal;font-style:normal;font-weight:normal;text-anchor:end;" transform="rotate(-0, 40.24375, 2025.101871)" x="40.24375" y="2025.101871">0</text>
     </g>
    </g>
    <g id="ytick_2">
     <g id="line2d_10">
      <g>
       <use style="stroke:#000000;stroke-width:0.8;" x="47.24375" xlink:href="#mea4195eb1f" y="1637.961634"/>
      </g>
     </g>
     <g id="text_11">
      <text style="font-family:DejaVu Sans;font-size:10px;font-stretch:normal;font-style:normal;font-weight:normal;text-anchor:end;" transform="rotate(-0, 40.24375, 1641.760853)" x="40.24375" y="1641.760853">50</text>
     </g>
    </g>
    <g id="ytick_3">
     <g id="line2d_11">
      <g>
       <use style="stroke:#000000;stroke-width:0.8;" x="47.24375" xlink:href="#mea4195eb1f" y="1254.620616"/>
      </g>
     </g>
     <g id="text_12">
      <text style="font-family:DejaVu Sans;font-size:10px;font-stretch:normal;font-style:normal;font-weight:normal;text-anchor:end;" transform="rotate(-0, 40.24375, 1258.419834)" x="40.24375" y="1258.419834">100</text>
     </g>
    </g>
    <g id="ytick_4">
     <g id="line2d_12">
      <g>
       <use style="stroke:#000000;stroke-width:0.8;" x="47.24375" xlink:href="#mea4195eb1f" y="871.279597"/>
      </g>
     </g>
     <g id="text_13">
      <text style="font-family:DejaVu Sans;font-size:10px;font-stretch:normal;font-style:normal;font-weight:normal;text-anchor:end;" transform="rotate(-0, 40.24375, 875.078816)" x="40.24375" y="875.078816">150</text>
     </g>
    </g>
    <g id="ytick_5">
     <g id="line2d_13">
      <g>
       <use style="stroke:#000000;stroke-width:0.8;" x="47.24375" xlink:href="#mea4195eb1f" y="487.938579"/>
      </g>
     </g>
     <g id="text_14">
      <text style="font-family:DejaVu Sans;font-size:10px;font-stretch:normal;font-style:normal;font-weight:normal;text-anchor:end;" transform="rotate(-0, 40.24375, 491.737797)" x="40.24375" y="491.737797">200</text>
     </g>
    </g>
    <g id="text_15">
     <text style="font-family:DejaVu Sans;font-size:10px;font-stretch:normal;font-style:normal;font-weight:normal;text-anchor:middle;" transform="rotate(-90, 14.798438, 1165.72)" x="14.798438" y="1165.72">ping_day[ms]</text>
    </g>
   </g>
   <g id="line2d_14">
    <path clip-path="url(#p16d43c2db7)" d="M 128.407386 1924.585714 
L 135.285661 1782.458198 
L 138.724798 1908.393389 
L 150.188588 1714.369166 
L 157.066862 1865.198523 
L 162.798758 1959.837754 
L 173.116169 1914.097503 
L 176.555306 1944.488779 
L 177.701685 1893.243752 
L 185.726339 1948.674863 
L 189.165476 1919.970288 
L 191.458234 1923.619694 
L 192.604613 1614.301826 
L 198.336508 1953.497293 
L 199.482887 1953.274956 
L 200.629266 1962.068798 
L 201.775645 1680.221148 
L 208.653919 1964.046838 
L 209.800299 1807.137692 
L 210.946678 1964.867188 
L 215.532194 1850.309558 
L 217.824952 1957.438039 
L 218.971331 1945.66947 
L 223.556847 1916.880559 
L 224.703226 1969.099273 
L 226.995984 1864.585177 
L 229.288742 1913.721829 
L 230.435121 1892.377401 
L 231.5815 1969.068605 
L 233.874258 1960.251762 
L 235.020638 1944.84912 
L 237.313396 1952.753612 
L 238.459775 1948.168853 
L 239.606154 1818.890928 
L 244.19167 1696.068466 
L 245.338049 1946.781159 
L 248.777186 1944.251108 
L 249.923565 1845.755467 
L 251.069944 1631.92018 
L 252.216323 1962.942816 
L 254.509081 1843.125747 
L 256.801839 1950.261895 
L 257.948218 1783.217213 
L 260.240977 1877.496103 
L 262.533735 1897.199831 
L 263.680114 1951.051578 
L 264.826493 1949.380211 
L 265.972872 1965.82554 
L 268.26563 1960.412765 
L 270.558388 1958.940736 
L 271.704767 1856.558017 
L 273.997525 1971.077312 
L 277.436662 1912.58714 
L 278.583041 1961.348117 
L 282.022178 1967.665577 
L 284.314936 1541.98071 
L 285.461315 1927.598774 
L 286.607695 1954.271642 
L 290.046832 1941.560054 
L 293.485969 1663.84482 
L 295.778727 1844.122434 
L 296.925106 1956.004344 
L 299.217864 1930.098158 
L 300.364243 1961.562788 
L 301.510622 1942.947748 
L 302.657001 1947.064831 
L 303.80338 1692.748733 
L 307.242517 1935.250261 
L 308.388896 1942.357403 
L 310.681654 1810.610762 
L 311.828034 1911.904793 
L 312.974413 1790.447024 
L 314.120792 1852.647938 
L 317.559929 1906.92136 
L 320.999066 1951.963929 
L 322.145445 1768.872592 
L 324.438203 1916.090877 
L 326.730961 1728.146442 
L 327.87734 1966.569222 
L 329.023719 1953.397625 
L 330.170098 1756.720682 
L 331.316477 1949.656216 
L 332.462856 1959.82242 
L 337.048372 1954.118306 
L 338.194752 1955.943009 
L 339.341131 1821.275309 
L 340.48751 1912.487471 
L 341.633889 1786.452611 
L 342.780268 1872.336333 
L 343.926647 1886.726955 
L 345.073026 1739.462669 
L 348.512163 1954.110639 
L 354.244058 1839.59901 
L 355.390437 1830.728499 
L 357.683195 1793.145745 
L 358.829574 1918.268254 
L 359.975953 1780.303821 
L 361.122332 1933.647895 
L 362.268711 1962.889148 
L 363.415091 1880.578165 
L 364.56147 1910.731769 
L 365.707849 1968.14092 
L 366.854228 1950.530234 
L 368.000607 1963.778499 
L 369.146986 1938.278655 
L 370.293365 1963.525494 
L 372.586123 1949.50288 
L 373.732502 1938.600661 
L 374.878881 1855.07832 
L 377.171639 1837.214629 
L 378.318018 1738.542651 
L 379.464397 1965.756539 
L 380.610776 1964.184841 
L 381.757155 1967.182568 
L 382.903534 1811.032437 
L 385.196292 1943.438425 
L 387.48905 1865.934538 
L 388.63543 1930.113491 
L 389.781809 1963.901169 
L 390.928188 1867.506236 
L 392.074567 1919.257274 
L 394.367325 1925.199059 
L 395.513704 1536.061925 
L 396.660083 1959.876088 
L 397.806462 1821.405645 
L 398.952841 1880.83117 
L 400.09922 1743.395748 
L 401.245599 1915.216859 
L 402.391978 1907.688042 
L 403.538357 1961.677791 
L 404.684736 1834.830248 
L 405.831115 1795.821466 
L 406.977494 1968.079586 
L 409.270252 1958.043718 
L 410.416631 1917.102897 
L 411.56301 1750.824897 
L 412.709389 1890.759702 
L 413.855768 1797.646169 
L 415.002148 1959.546415 
L 417.294906 1916.090877 
L 418.441285 1719.436934 
L 419.587664 1875.809403 
L 420.734043 1926.755424 
L 423.026801 1921.518986 
L 424.17318 1840.10502 
L 425.319559 1958.319723 
L 426.465938 1943.967436 
L 427.612317 1959.262742 
L 428.758696 1899.162537 
L 429.905075 1857.125361 
L 431.051454 1357.816018 
L 432.197833 1759.733742 
L 434.490591 1912.725143 
L 435.63697 1757.058022 
L 436.783349 1752.611266 
L 437.929728 1809.790412 
L 439.076107 1764.249499 
L 440.222487 1959.807086 
L 441.368866 1941.153713 
L 443.661624 1857.999379 
L 444.808003 1960.489433 
L 445.954382 1910.455764 
L 447.100761 1886.021607 
L 448.24714 1961.417119 
L 450.539898 1862.208463 
L 451.686277 1926.832092 
L 452.832656 1692.27339 
L 453.979035 1735.874597 
L 455.125414 1839.177335 
L 456.271793 1885.6536 
L 457.418172 1741.816383 
L 458.564551 1744.875444 
L 459.71093 1710.857762 
L 462.003688 1734.325899 
L 463.150067 1859.049733 
L 464.296446 1904.789984 
L 465.442826 1848.032512 
L 466.589205 1944.580781 
L 467.735584 1576.811075 
L 468.881963 1956.824693 
L 471.174721 1855.691666 
L 472.3211 1950.583902 
L 473.467479 1835.681265 
L 474.613858 1814.421172 
L 475.760237 1902.566606 
L 476.906616 1913.353822 
L 478.052995 1942.372737 
L 480.345753 1955.582668 
L 481.492132 1959.554081 
L 483.78489 1921.334982 
L 484.931269 1508.637708 
L 486.077648 1910.003421 
L 487.224027 1871.830323 
L 488.370406 1748.969526 
L 489.516785 1968.033585 
L 490.663164 1934.874587 
L 491.809544 1951.097579 
L 492.955923 1908.217052 
L 494.102302 1811.730118 
L 495.248681 1966.592223 
L 496.39506 1958.258389 
L 497.541439 1855.032319 
L 498.687818 1941.031043 
L 499.834197 1925.41373 
L 500.980576 1848.415853 
L 502.126955 1966.362218 
L 503.273334 1846.269144 
L 504.419713 1958.342724 
L 505.566092 1956.901362 
L 506.712471 1952.109599 
L 507.85885 1969.007271 
L 509.005229 1732.17919 
L 510.151608 1670.415285 
L 511.297987 1910.869772 
L 512.444366 1837.950644 
L 513.590745 1784.2139 
L 514.737124 1785.149252 
L 517.029883 1853.046613 
L 518.176262 1937.895314 
L 519.322641 1960.512434 
L 520.46902 1826.082406 
L 522.761778 1939.735351 
L 523.908157 1880.164156 
L 525.054536 1773.564686 
L 526.200915 1951.243248 
L 527.347294 1824.602709 
L 528.493673 1948.774532 
L 529.640052 1965.196861 
L 530.786431 1958.580395 
L 533.079189 1791.137038 
L 534.225568 1941.820726 
L 535.371947 1894.554778 
L 537.664705 1957.691044 
L 538.811084 1847.649171 
L 539.957463 1889.134336 
L 541.103842 1936.170279 
L 542.250221 1956.150013 
L 543.396601 1899.13187 
L 544.54298 1948.728531 
L 545.689359 1793.222413 
L 546.835738 1939.658683 
L 547.982117 1770.566959 
L 549.128496 1946.321149 
L 550.274875 1917.555239 
L 551.421254 1655.940328 
L 552.567633 1951.281582 
L 553.714012 1958.657063 
L 554.860391 1942.541407 
L 557.153149 1900.956573 
L 558.299528 1940.180026 
L 559.445907 1781.131838 
L 561.738665 1695.493454 
L 562.885044 1798.987862 
L 564.031423 1948.391191 
L 565.177802 1612.730128 
L 566.324181 1881.904525 
L 567.47056 1791.56638 
L 568.61694 1923.021682 
L 569.763319 1715.289184 
L 570.909698 1893.366421 
L 572.056077 1776.25574 
L 573.202456 1800.797232 
L 574.348835 1915.515865 
L 575.495214 1944.557781 
L 576.641593 1964.269176 
L 577.787972 1927.690776 
L 578.934351 1774.001695 
L 580.08073 1948.138186 
L 581.227109 1964.47618 
L 582.373488 1700.768227 
L 583.519867 1799.194867 
L 584.666246 1771.60198 
L 585.812625 1924.624048 
L 589.251762 1940.770372 
L 591.54452 1730.906497 
L 594.983658 1965.503534 
L 596.130037 1823.253349 
L 597.276416 1949.341877 
L 598.422795 1779.061796 
L 599.569174 1898.549192 
L 600.715553 1960.098426 
L 603.008311 1744.062761 
L 605.301069 1960.550768 
L 607.593827 1960.121426 
L 608.740206 1823.521688 
L 609.886585 1818.683924 
L 611.032964 1905.610333 
L 612.179343 1926.034743 
L 613.325722 1957.99005 
L 614.472101 1960.190428 
L 615.61848 1930.757504 
L 616.764859 1890.552698 
L 620.203997 1654.659969 
L 621.350376 1905.042989 
L 622.496755 1931.232847 
L 623.643134 1960.826774 
L 625.935892 1765.920866 
L 627.082271 1896.318147 
L 628.22865 1966.530888 
L 629.375029 1777.352095 
L 630.521408 1846.238476 
L 631.667787 1948.65953 
L 633.960545 1840.189355 
L 636.253303 1855.492329 
L 640.838819 1703.842622 
L 641.985198 1966.11688 
L 643.131577 1872.834676 
L 644.277956 1585.19091 
L 645.424336 1666.988216 
L 646.570715 1884.986586 
L 648.863473 1847.557169 
L 650.009852 1761.949453 
L 651.156231 1852.831942 
L 652.30261 1820.692631 
L 653.448989 1890.000687 
L 654.595368 1719.3986 
L 655.741747 1868.663926 
L 656.888126 1963.63283 
L 658.034505 1794.978115 
L 659.180884 1739.439669 
L 660.327263 1874.421708 
L 661.473642 1957.959383 
L 663.7664 1874.529044 
L 664.912779 1907.143697 
L 666.059158 1857.140695 
L 667.205537 1922.784011 
L 668.351916 1851.05324 
L 669.498295 1821.980657 
L 670.644674 1945.485466 
L 672.937433 1793.73609 
L 674.083812 1575.852722 
L 675.230191 1953.995637 
L 677.522949 1937.833979 
L 678.669328 1888.191317 
L 679.815707 1935.978609 
L 682.108465 1864.684846 
L 683.254844 1793.199413 
L 684.401223 1843.348085 
L 685.547602 1935.158259 
L 686.693981 1843.041412 
L 687.84036 1960.129093 
L 688.986739 1852.724606 
L 690.133118 1808.134379 
L 691.279497 1862.323465 
L 692.425876 1957.131366 
L 693.572255 1748.110842 
L 694.718634 1884.595579 
L 695.865013 1945.424131 
L 697.011393 1762.378795 
L 698.157772 1931.432184 
L 699.304151 1367.529879 
L 700.45053 1963.027151 
L 701.596909 1876.70642 
L 702.743288 1835.443593 
L 703.889667 1786.636615 
L 705.036046 1418.184561 
L 706.182425 1801.050237 
L 708.475183 1925.329395 
L 709.621562 1738.987326 
L 710.767941 1879.627479 
L 713.060699 1829.478807 
L 714.207078 1771.885652 
L 715.353457 1789.933348 
L 716.499836 1843.723759 
L 718.792594 1499.27652 
L 719.938973 1733.421215 
L 721.085352 1872.765675 
L 722.231732 1877.542104 
L 725.670869 1949.855554 
L 727.963627 1714.507169 
L 729.110006 1861.073774 
L 730.256385 1929.906487 
L 731.402764 1916.152211 
L 732.549143 1929.185806 
L 733.695522 1669.855607 
L 734.841901 1945.424131 
L 735.98828 1864.646512 
L 738.281038 1693.147407 
L 740.573796 1681.225501 
L 741.720175 1905.717669 
L 742.866554 1941.345383 
L 744.012933 1730.776162 
L 745.159312 1680.918829 
L 747.45207 1964.437846 
L 749.744829 1723.393014 
L 750.891208 1686.331604 
L 752.037587 1796.488479 
L 753.183966 1942.886414 
L 754.330345 1957.99005 
L 756.623103 1183.219517 
L 757.769482 1936.085944 
L 758.915861 1827.968443 
L 760.06224 1950.185227 
L 761.208619 1561.109427 
L 762.354998 1904.820651 
L 763.501377 1919.901286 
L 764.647756 1843.440087 
L 766.940514 1884.196904 
L 769.233272 1833.220215 
L 771.52603 1800.03055 
L 772.672409 1635.722923 
L 773.818789 1881.467516 
L 776.111547 1867.582904 
L 777.257926 1774.001695 
L 778.404305 1869.223604 
L 779.550684 1719.099594 
L 780.697063 1947.701177 
L 781.843442 1956.403018 
L 784.1362 1829.172134 
L 786.428958 1865.834869 
L 787.575337 1917.76991 
L 788.721716 1723.830022 
L 789.868095 1707.821701 
L 791.014474 1680.581489 
L 792.160853 1738.427648 
L 793.307232 1717.435894 
L 795.59999 1671.450306 
L 796.746369 1934.322576 
L 797.892748 1776.769417 
L 799.039128 1782.5732 
L 800.185507 1968.355591 
L 801.331886 1778.755123 
L 803.624644 1962.628476 
L 804.771023 1951.833593 
L 805.917402 1945.592802 
L 807.063781 1874.115035 
L 808.21016 1955.544334 
L 812.795676 1813.462819 
L 813.942055 1882.272532 
L 815.088434 1920.077623 
L 816.234813 1664.619169 
L 817.381192 1947.271835 
L 818.527571 1195.302426 
L 820.820329 1924.302041 
L 821.966708 1409.919729 
L 823.113087 1902.512938 
L 825.405846 1955.321997 
L 827.698604 1693.967757 
L 829.991362 1765.529858 
L 833.430499 1915.247526 
L 834.576878 1779.958814 
L 836.869636 1692.212055 
L 838.016015 1831.533515 
L 839.162394 1702.792267 
L 840.308773 1790.033016 
L 841.455152 1963.303157 
L 843.74791 1950.82924 
L 846.040668 1954.97699 
L 847.187047 1809.453072 
L 848.333426 1944.971789 
L 849.479805 1972.12 
L 850.626185 1954.51698 
L 851.772564 1950.5149 
L 852.918943 1214.829818 
L 855.211701 1885.599932 
L 856.35808 1956.104012 
L 857.504459 1970.885642 
L 862.089975 1957.062365 
L 863.236354 1827.293763 
L 864.382733 1965.534201 
L 865.529112 1788.852326 
L 866.675491 1822.854674 
L 867.82187 1948.291522 
L 868.968249 359.32 
L 870.114628 1824.050698 
L 872.407386 1959.393078 
L 873.553765 1959.607749 
L 875.846523 1932.858213 
L 876.992903 1936.668623 
L 878.139282 1854.786981 
L 879.285661 1792.271728 
L 880.43204 1969.022605 
L 882.724798 1924.072037 
L 883.871177 1459.807729 
L 886.163935 1969.352278 
L 887.310314 1849.274537 
L 888.456693 1783.439551 
L 890.749451 1908.470057 
L 891.89583 1962.298803 
L 893.042209 1811.852787 
L 895.334967 1942.1734 
L 896.481346 1883.092882 
L 897.627725 1961.80046 
L 898.774104 1940.770372 
L 899.920483 1848.139848 
L 901.066862 1933.387223 
L 902.213242 1819.780279 
L 903.359621 1816.383878 
L 906.798758 1901.048575 
L 907.945137 1892.630406 
L 910.237895 1816.491213 
L 911.384274 1872.781008 
L 915.96979 1957.277036 
L 917.116169 1948.65953 
L 919.408927 1878.063448 
L 921.701685 1961.026111 
L 923.994443 1937.780312 
L 925.140822 1955.436999 
L 926.287201 1928.971135 
L 929.726339 1853.307285 
L 930.872718 1895.083789 
L 932.019097 1957.430372 
L 934.311855 1923.980035 
L 936.604613 1954.463313 
L 937.750992 1935.050924 
L 944.629266 1939.497679 
L 945.775645 1879.550811 
L 948.068403 1934.123238 
L 949.214782 1731.067501 
L 950.361161 1960.274763 
L 951.50754 1778.034442 
L 953.800299 1917.010895 
L 954.946678 1919.134604 
L 956.093057 1887.80031 
L 961.824952 1953.259622 
L 962.971331 1890.445363 
L 964.11771 1846.023805 
L 966.410468 1953.198287 
L 969.849605 1944.757118 
L 972.142363 1947.739511 
L 974.435121 1842.159728 
L 975.5815 1949.180873 
L 980.167017 1768.113577 
L 982.459775 1946.282815 
L 983.606154 1938.562327 
L 985.898912 1946.36715 
L 987.045291 1920.721636 
L 988.19167 1835.098586 
L 990.484428 1615.566852 
L 991.630807 1737.967639 
L 992.777186 1486.78727 
L 996.216323 1884.49591 
L 999.65546 1834.155567 
L 1003.094597 1921.702989 
L 1005.387356 1625.763723 
L 1006.533735 1914.013168 
L 1007.680114 1927.568107 
L 1009.972872 1884.35024 
L 1011.119251 1859.617078 
L 1012.26563 1705.958664 
L 1014.558388 1931.884527 
L 1016.851146 1961.677791 
L 1019.143904 1740.528357 
L 1023.72942 1797.745837 
L 1024.875799 1947.708844 
L 1026.022178 1957.622043 
L 1028.314936 1796.488479 
L 1030.607695 1753.477617 
L 1031.754074 1959.232075 
L 1036.33959 1800.153219 
L 1038.632348 1791.068037 
L 1044.364243 1960.282429 
L 1045.510622 1913.246486 
L 1046.657001 1786.513946 
L 1048.949759 1955.966009 
L 1050.096138 1742.291726 
L 1052.388896 1887.432302 
L 1059.267171 1787.909307 
L 1060.41355 1796.120472 
L 1063.852687 1955.782006 
L 1071.87734 1915.814871 
L 1074.170098 1784.972915 
L 1076.462856 1645.613121 
L 1083.341131 1936.791292 
L 1090.219405 1662.472459 
L 1093.658542 1683.732552 
L 1098.244058 1554.592629 
L 1114.293365 1946.259815 
L 1115.439744 1764.885845 
L 1117.732502 1843.984431 
L 1131.48905 1806.930688 
L 1148.684736 1915.331862 
L 1154.416631 1845.502462 
L 1162.441285 1927.345769 
L 1169.319559 1936.929294 
L 1178.490591 1822.916009 
L 1197.979035 1703.397946 
L 1206.003688 1870.327626 
L 1215.174721 1801.01957 
L 1242.687818 1867.966245 
L 1248.419713 1873.915698 
L 1424.962086 1948.168853 
L 1751.680114 1891.695054 
L 1751.680114 1891.695054 
" style="fill:none;stroke:#0000ff;stroke-linecap:square;stroke-width:1.5;"/>
   </g>
   <g id="patch_3">
    <path d="M 47.24375 2052.76 
L 47.24375 278.68 
" style="fill:none;stroke:#000000;stroke-linecap:square;stroke-linejoin:miter;stroke-width:0.8;"/>
   </g>
   <g id="patch_4">
    <path d="M 1832.84375 2052.76 
L 1832.84375 278.68 
" style="fill:none;stroke:#000000;stroke-linecap:square;stroke-linejoin:miter;stroke-width:0.8;"/>
   </g>
   <g id="patch_5">
    <path d="M 47.24375 2052.76 
L 1832.84375 2052.76 
" style="fill:none;stroke:#000000;stroke-linecap:square;stroke-linejoin:miter;stroke-width:0.8;"/>
   </g>
   <g id="patch_6">
    <path d="M 47.24375 278.68 
L 1832.84375 278.68 
" style="fill:none;stroke:#000000;stroke-linecap:square;stroke-linejoin:miter;stroke-width:0.8;"/>
   </g>
   <g id="text_16">
    <text style="font-family:DejaVu Sans;font-size:12px;font-stretch:normal;font-style:normal;font-weight:normal;text-anchor:middle;" transform="rotate(-0, 940.04375, 272.68)" x="940.04375" y="272.68">wind_speed-&gt;ping_day</text>
   </g>
  </g>
  <g id="legend_1">
   <g id="patch_7">
    <path d="M 1958.482812 22.95625 
L 2058.44375 22.95625 
Q 2060.44375 22.95625 2060.44375 20.95625 
L 2060.44375 7 
Q 2060.44375 5 2058.44375 5 
L 1958.482812 5 
Q 1956.482812 5 1956.482812 7 
L 1956.482812 20.95625 
Q 1956.482812 22.95625 1958.482812 22.95625 
z
" style="fill:#ffffff;opacity:0.8;stroke:#cccccc;stroke-linejoin:miter;"/>
   </g>
   <g id="line2d_15">
    <path d="M 1960.482812 13.098438 
L 1980.482812 13.098438 
" style="fill:none;stroke:#0000ff;stroke-linecap:square;stroke-width:1.5;"/>
   </g>
   <g id="line2d_16"/>
   <g id="text_17">
    <text style="font-family:DejaVu Sans;font-size:10px;font-stretch:normal;font-style:normal;font-weight:normal;text-anchor:start;" transform="rotate(-0, 1988.482812, 16.598438)" x="1988.482812" y="16.598438">ping_day[ms]</text>
   </g>
  </g>
 </g>
 <defs>
  <clipPath id="p16d43c2db7">
   <rect height="1774.08" width="1785.6" x="47.24375" y="278.68"/>
  </clipPath>
 </defs>
</svg>
