<?xml version="1.0" encoding="utf-8" standalone="no"?>
<!DOCTYPE svg PUBLIC "-//W3C//DTD SVG 1.1//EN"
  "http://www.w3.org/Graphics/SVG/1.1/DTD/svg11.dtd">
<svg height="345.6pt" version="1.1" viewBox="0 0 460.8 345.6" width="460.8pt" xmlns="http://www.w3.org/2000/svg" xmlns:xlink="http://www.w3.org/1999/xlink">
 <metadata>
  <rdf:RDF xmlns:cc="http://creativecommons.org/ns#" xmlns:dc="http://purl.org/dc/elements/1.1/" xmlns:rdf="http://www.w3.org/1999/02/22-rdf-syntax-ns#">
   <cc:Work>
    <dc:type rdf:resource="http://purl.org/dc/dcmitype/StillImage"/>
    <dc:date>2022-06-13T13:11:48.571282</dc:date>
    <dc:format>image/svg+xml</dc:format>
    <dc:creator>
     <cc:Agent>
      <dc:title>Matplotlib v3.4.2, https://matplotlib.org/</dc:title>
     </cc:Agent>
    </dc:creator>
   </cc:Work>
  </rdf:RDF>
 </metadata>
 <defs>
  <style type="text/css">*{stroke-linecap:butt;stroke-linejoin:round;}</style>
 </defs>
 <g id="figure_1">
  <g id="patch_1">
   <path d="M 0 345.6 
L 460.8 345.6 
L 460.8 0 
L 0 0 
z
" style="fill:#ffffff;"/>
  </g>
  <g id="axes_1">
   <g id="patch_2">
    <path d="M 57.6 307.584 
L 414.72 307.584 
L 414.72 41.472 
L 57.6 41.472 
z
" style="fill:#ffffff;"/>
   </g>
   <g id="matplotlib.axis_1">
    <g id="xtick_1">
     <g id="line2d_1">
      <defs>
       <path d="M 0 0 
L 0 3.5 
" id="ma554cc373e" style="stroke:#000000;stroke-width:0.8;"/>
      </defs>
      <g>
       <use style="stroke:#000000;stroke-width:0.8;" x="84.691842" xlink:href="#ma554cc373e" y="307.584"/>
      </g>
     </g>
     <g id="text_1">
      <!-- 40 -->
      <g transform="translate(78.329342 322.182437)scale(0.1 -0.1)">
       <defs>
        <path d="M 2419 4116 
L 825 1625 
L 2419 1625 
L 2419 4116 
z
M 2253 4666 
L 3047 4666 
L 3047 1625 
L 3713 1625 
L 3713 1100 
L 3047 1100 
L 3047 0 
L 2419 0 
L 2419 1100 
L 313 1100 
L 313 1709 
L 2253 4666 
z
" id="DejaVuSans-34" transform="scale(0.015625)"/>
        <path d="M 2034 4250 
Q 1547 4250 1301 3770 
Q 1056 3291 1056 2328 
Q 1056 1369 1301 889 
Q 1547 409 2034 409 
Q 2525 409 2770 889 
Q 3016 1369 3016 2328 
Q 3016 3291 2770 3770 
Q 2525 4250 2034 4250 
z
M 2034 4750 
Q 2819 4750 3233 4129 
Q 3647 3509 3647 2328 
Q 3647 1150 3233 529 
Q 2819 -91 2034 -91 
Q 1250 -91 836 529 
Q 422 1150 422 2328 
Q 422 3509 836 4129 
Q 1250 4750 2034 4750 
z
" id="DejaVuSans-30" transform="scale(0.015625)"/>
       </defs>
       <use xlink:href="#DejaVuSans-34"/>
       <use x="63.623047" xlink:href="#DejaVuSans-30"/>
      </g>
     </g>
    </g>
    <g id="xtick_2">
     <g id="line2d_2">
      <g>
       <use style="stroke:#000000;stroke-width:0.8;" x="139.594088" xlink:href="#ma554cc373e" y="307.584"/>
      </g>
     </g>
     <g id="text_2">
      <!-- 50 -->
      <g transform="translate(133.231588 322.182437)scale(0.1 -0.1)">
       <defs>
        <path d="M 691 4666 
L 3169 4666 
L 3169 4134 
L 1269 4134 
L 1269 2991 
Q 1406 3038 1543 3061 
Q 1681 3084 1819 3084 
Q 2600 3084 3056 2656 
Q 3513 2228 3513 1497 
Q 3513 744 3044 326 
Q 2575 -91 1722 -91 
Q 1428 -91 1123 -41 
Q 819 9 494 109 
L 494 744 
Q 775 591 1075 516 
Q 1375 441 1709 441 
Q 2250 441 2565 725 
Q 2881 1009 2881 1497 
Q 2881 1984 2565 2268 
Q 2250 2553 1709 2553 
Q 1456 2553 1204 2497 
Q 953 2441 691 2322 
L 691 4666 
z
" id="DejaVuSans-35" transform="scale(0.015625)"/>
       </defs>
       <use xlink:href="#DejaVuSans-35"/>
       <use x="63.623047" xlink:href="#DejaVuSans-30"/>
      </g>
     </g>
    </g>
    <g id="xtick_3">
     <g id="line2d_3">
      <g>
       <use style="stroke:#000000;stroke-width:0.8;" x="194.496333" xlink:href="#ma554cc373e" y="307.584"/>
      </g>
     </g>
     <g id="text_3">
      <!-- 60 -->
      <g transform="translate(188.133833 322.182437)scale(0.1 -0.1)">
       <defs>
        <path d="M 2113 2584 
Q 1688 2584 1439 2293 
Q 1191 2003 1191 1497 
Q 1191 994 1439 701 
Q 1688 409 2113 409 
Q 2538 409 2786 701 
Q 3034 994 3034 1497 
Q 3034 2003 2786 2293 
Q 2538 2584 2113 2584 
z
M 3366 4563 
L 3366 3988 
Q 3128 4100 2886 4159 
Q 2644 4219 2406 4219 
Q 1781 4219 1451 3797 
Q 1122 3375 1075 2522 
Q 1259 2794 1537 2939 
Q 1816 3084 2150 3084 
Q 2853 3084 3261 2657 
Q 3669 2231 3669 1497 
Q 3669 778 3244 343 
Q 2819 -91 2113 -91 
Q 1303 -91 875 529 
Q 447 1150 447 2328 
Q 447 3434 972 4092 
Q 1497 4750 2381 4750 
Q 2619 4750 2861 4703 
Q 3103 4656 3366 4563 
z
" id="DejaVuSans-36" transform="scale(0.015625)"/>
       </defs>
       <use xlink:href="#DejaVuSans-36"/>
       <use x="63.623047" xlink:href="#DejaVuSans-30"/>
      </g>
     </g>
    </g>
    <g id="xtick_4">
     <g id="line2d_4">
      <g>
       <use style="stroke:#000000;stroke-width:0.8;" x="249.398578" xlink:href="#ma554cc373e" y="307.584"/>
      </g>
     </g>
     <g id="text_4">
      <!-- 70 -->
      <g transform="translate(243.036078 322.182437)scale(0.1 -0.1)">
       <defs>
        <path d="M 525 4666 
L 3525 4666 
L 3525 4397 
L 1831 0 
L 1172 0 
L 2766 4134 
L 525 4134 
L 525 4666 
z
" id="DejaVuSans-37" transform="scale(0.015625)"/>
       </defs>
       <use xlink:href="#DejaVuSans-37"/>
       <use x="63.623047" xlink:href="#DejaVuSans-30"/>
      </g>
     </g>
    </g>
    <g id="xtick_5">
     <g id="line2d_5">
      <g>
       <use style="stroke:#000000;stroke-width:0.8;" x="304.300824" xlink:href="#ma554cc373e" y="307.584"/>
      </g>
     </g>
     <g id="text_5">
      <!-- 80 -->
      <g transform="translate(297.938324 322.182437)scale(0.1 -0.1)">
       <defs>
        <path d="M 2034 2216 
Q 1584 2216 1326 1975 
Q 1069 1734 1069 1313 
Q 1069 891 1326 650 
Q 1584 409 2034 409 
Q 2484 409 2743 651 
Q 3003 894 3003 1313 
Q 3003 1734 2745 1975 
Q 2488 2216 2034 2216 
z
M 1403 2484 
Q 997 2584 770 2862 
Q 544 3141 544 3541 
Q 544 4100 942 4425 
Q 1341 4750 2034 4750 
Q 2731 4750 3128 4425 
Q 3525 4100 3525 3541 
Q 3525 3141 3298 2862 
Q 3072 2584 2669 2484 
Q 3125 2378 3379 2068 
Q 3634 1759 3634 1313 
Q 3634 634 3220 271 
Q 2806 -91 2034 -91 
Q 1263 -91 848 271 
Q 434 634 434 1313 
Q 434 1759 690 2068 
Q 947 2378 1403 2484 
z
M 1172 3481 
Q 1172 3119 1398 2916 
Q 1625 2713 2034 2713 
Q 2441 2713 2670 2916 
Q 2900 3119 2900 3481 
Q 2900 3844 2670 4047 
Q 2441 4250 2034 4250 
Q 1625 4250 1398 4047 
Q 1172 3844 1172 3481 
z
" id="DejaVuSans-38" transform="scale(0.015625)"/>
       </defs>
       <use xlink:href="#DejaVuSans-38"/>
       <use x="63.623047" xlink:href="#DejaVuSans-30"/>
      </g>
     </g>
    </g>
    <g id="xtick_6">
     <g id="line2d_6">
      <g>
       <use style="stroke:#000000;stroke-width:0.8;" x="359.203069" xlink:href="#ma554cc373e" y="307.584"/>
      </g>
     </g>
     <g id="text_6">
      <!-- 90 -->
      <g transform="translate(352.840569 322.182437)scale(0.1 -0.1)">
       <defs>
        <path d="M 703 97 
L 703 672 
Q 941 559 1184 500 
Q 1428 441 1663 441 
Q 2288 441 2617 861 
Q 2947 1281 2994 2138 
Q 2813 1869 2534 1725 
Q 2256 1581 1919 1581 
Q 1219 1581 811 2004 
Q 403 2428 403 3163 
Q 403 3881 828 4315 
Q 1253 4750 1959 4750 
Q 2769 4750 3195 4129 
Q 3622 3509 3622 2328 
Q 3622 1225 3098 567 
Q 2575 -91 1691 -91 
Q 1453 -91 1209 -44 
Q 966 3 703 97 
z
M 1959 2075 
Q 2384 2075 2632 2365 
Q 2881 2656 2881 3163 
Q 2881 3666 2632 3958 
Q 2384 4250 1959 4250 
Q 1534 4250 1286 3958 
Q 1038 3666 1038 3163 
Q 1038 2656 1286 2365 
Q 1534 2075 1959 2075 
z
" id="DejaVuSans-39" transform="scale(0.015625)"/>
       </defs>
       <use xlink:href="#DejaVuSans-39"/>
       <use x="63.623047" xlink:href="#DejaVuSans-30"/>
      </g>
     </g>
    </g>
    <g id="xtick_7">
     <g id="line2d_7">
      <g>
       <use style="stroke:#000000;stroke-width:0.8;" x="414.105314" xlink:href="#ma554cc373e" y="307.584"/>
      </g>
     </g>
     <g id="text_7">
      <!-- 100 -->
      <g transform="translate(404.561564 322.182437)scale(0.1 -0.1)">
       <defs>
        <path d="M 794 531 
L 1825 531 
L 1825 4091 
L 703 3866 
L 703 4441 
L 1819 4666 
L 2450 4666 
L 2450 531 
L 3481 531 
L 3481 0 
L 794 0 
L 794 531 
z
" id="DejaVuSans-31" transform="scale(0.015625)"/>
       </defs>
       <use xlink:href="#DejaVuSans-31"/>
       <use x="63.623047" xlink:href="#DejaVuSans-30"/>
       <use x="127.246094" xlink:href="#DejaVuSans-30"/>
      </g>
     </g>
    </g>
    <g id="text_8">
     <!-- humidity from WeatherBitIO -->
     <g transform="translate(166.027187 335.860562)scale(0.1 -0.1)">
      <defs>
       <path d="M 3513 2113 
L 3513 0 
L 2938 0 
L 2938 2094 
Q 2938 2591 2744 2837 
Q 2550 3084 2163 3084 
Q 1697 3084 1428 2787 
Q 1159 2491 1159 1978 
L 1159 0 
L 581 0 
L 581 4863 
L 1159 4863 
L 1159 2956 
Q 1366 3272 1645 3428 
Q 1925 3584 2291 3584 
Q 2894 3584 3203 3211 
Q 3513 2838 3513 2113 
z
" id="DejaVuSans-68" transform="scale(0.015625)"/>
       <path d="M 544 1381 
L 544 3500 
L 1119 3500 
L 1119 1403 
Q 1119 906 1312 657 
Q 1506 409 1894 409 
Q 2359 409 2629 706 
Q 2900 1003 2900 1516 
L 2900 3500 
L 3475 3500 
L 3475 0 
L 2900 0 
L 2900 538 
Q 2691 219 2414 64 
Q 2138 -91 1772 -91 
Q 1169 -91 856 284 
Q 544 659 544 1381 
z
M 1991 3584 
L 1991 3584 
z
" id="DejaVuSans-75" transform="scale(0.015625)"/>
       <path d="M 3328 2828 
Q 3544 3216 3844 3400 
Q 4144 3584 4550 3584 
Q 5097 3584 5394 3201 
Q 5691 2819 5691 2113 
L 5691 0 
L 5113 0 
L 5113 2094 
Q 5113 2597 4934 2840 
Q 4756 3084 4391 3084 
Q 3944 3084 3684 2787 
Q 3425 2491 3425 1978 
L 3425 0 
L 2847 0 
L 2847 2094 
Q 2847 2600 2669 2842 
Q 2491 3084 2119 3084 
Q 1678 3084 1418 2786 
Q 1159 2488 1159 1978 
L 1159 0 
L 581 0 
L 581 3500 
L 1159 3500 
L 1159 2956 
Q 1356 3278 1631 3431 
Q 1906 3584 2284 3584 
Q 2666 3584 2933 3390 
Q 3200 3197 3328 2828 
z
" id="DejaVuSans-6d" transform="scale(0.015625)"/>
       <path d="M 603 3500 
L 1178 3500 
L 1178 0 
L 603 0 
L 603 3500 
z
M 603 4863 
L 1178 4863 
L 1178 4134 
L 603 4134 
L 603 4863 
z
" id="DejaVuSans-69" transform="scale(0.015625)"/>
       <path d="M 2906 2969 
L 2906 4863 
L 3481 4863 
L 3481 0 
L 2906 0 
L 2906 525 
Q 2725 213 2448 61 
Q 2172 -91 1784 -91 
Q 1150 -91 751 415 
Q 353 922 353 1747 
Q 353 2572 751 3078 
Q 1150 3584 1784 3584 
Q 2172 3584 2448 3432 
Q 2725 3281 2906 2969 
z
M 947 1747 
Q 947 1113 1208 752 
Q 1469 391 1925 391 
Q 2381 391 2643 752 
Q 2906 1113 2906 1747 
Q 2906 2381 2643 2742 
Q 2381 3103 1925 3103 
Q 1469 3103 1208 2742 
Q 947 2381 947 1747 
z
" id="DejaVuSans-64" transform="scale(0.015625)"/>
       <path d="M 1172 4494 
L 1172 3500 
L 2356 3500 
L 2356 3053 
L 1172 3053 
L 1172 1153 
Q 1172 725 1289 603 
Q 1406 481 1766 481 
L 2356 481 
L 2356 0 
L 1766 0 
Q 1100 0 847 248 
Q 594 497 594 1153 
L 594 3053 
L 172 3053 
L 172 3500 
L 594 3500 
L 594 4494 
L 1172 4494 
z
" id="DejaVuSans-74" transform="scale(0.015625)"/>
       <path d="M 2059 -325 
Q 1816 -950 1584 -1140 
Q 1353 -1331 966 -1331 
L 506 -1331 
L 506 -850 
L 844 -850 
Q 1081 -850 1212 -737 
Q 1344 -625 1503 -206 
L 1606 56 
L 191 3500 
L 800 3500 
L 1894 763 
L 2988 3500 
L 3597 3500 
L 2059 -325 
z
" id="DejaVuSans-79" transform="scale(0.015625)"/>
       <path id="DejaVuSans-20" transform="scale(0.015625)"/>
       <path d="M 2375 4863 
L 2375 4384 
L 1825 4384 
Q 1516 4384 1395 4259 
Q 1275 4134 1275 3809 
L 1275 3500 
L 2222 3500 
L 2222 3053 
L 1275 3053 
L 1275 0 
L 697 0 
L 697 3053 
L 147 3053 
L 147 3500 
L 697 3500 
L 697 3744 
Q 697 4328 969 4595 
Q 1241 4863 1831 4863 
L 2375 4863 
z
" id="DejaVuSans-66" transform="scale(0.015625)"/>
       <path d="M 2631 2963 
Q 2534 3019 2420 3045 
Q 2306 3072 2169 3072 
Q 1681 3072 1420 2755 
Q 1159 2438 1159 1844 
L 1159 0 
L 581 0 
L 581 3500 
L 1159 3500 
L 1159 2956 
Q 1341 3275 1631 3429 
Q 1922 3584 2338 3584 
Q 2397 3584 2469 3576 
Q 2541 3569 2628 3553 
L 2631 2963 
z
" id="DejaVuSans-72" transform="scale(0.015625)"/>
       <path d="M 1959 3097 
Q 1497 3097 1228 2736 
Q 959 2375 959 1747 
Q 959 1119 1226 758 
Q 1494 397 1959 397 
Q 2419 397 2687 759 
Q 2956 1122 2956 1747 
Q 2956 2369 2687 2733 
Q 2419 3097 1959 3097 
z
M 1959 3584 
Q 2709 3584 3137 3096 
Q 3566 2609 3566 1747 
Q 3566 888 3137 398 
Q 2709 -91 1959 -91 
Q 1206 -91 779 398 
Q 353 888 353 1747 
Q 353 2609 779 3096 
Q 1206 3584 1959 3584 
z
" id="DejaVuSans-6f" transform="scale(0.015625)"/>
       <path d="M 213 4666 
L 850 4666 
L 1831 722 
L 2809 4666 
L 3519 4666 
L 4500 722 
L 5478 4666 
L 6119 4666 
L 4947 0 
L 4153 0 
L 3169 4050 
L 2175 0 
L 1381 0 
L 213 4666 
z
" id="DejaVuSans-57" transform="scale(0.015625)"/>
       <path d="M 3597 1894 
L 3597 1613 
L 953 1613 
Q 991 1019 1311 708 
Q 1631 397 2203 397 
Q 2534 397 2845 478 
Q 3156 559 3463 722 
L 3463 178 
Q 3153 47 2828 -22 
Q 2503 -91 2169 -91 
Q 1331 -91 842 396 
Q 353 884 353 1716 
Q 353 2575 817 3079 
Q 1281 3584 2069 3584 
Q 2775 3584 3186 3129 
Q 3597 2675 3597 1894 
z
M 3022 2063 
Q 3016 2534 2758 2815 
Q 2500 3097 2075 3097 
Q 1594 3097 1305 2825 
Q 1016 2553 972 2059 
L 3022 2063 
z
" id="DejaVuSans-65" transform="scale(0.015625)"/>
       <path d="M 2194 1759 
Q 1497 1759 1228 1600 
Q 959 1441 959 1056 
Q 959 750 1161 570 
Q 1363 391 1709 391 
Q 2188 391 2477 730 
Q 2766 1069 2766 1631 
L 2766 1759 
L 2194 1759 
z
M 3341 1997 
L 3341 0 
L 2766 0 
L 2766 531 
Q 2569 213 2275 61 
Q 1981 -91 1556 -91 
Q 1019 -91 701 211 
Q 384 513 384 1019 
Q 384 1609 779 1909 
Q 1175 2209 1959 2209 
L 2766 2209 
L 2766 2266 
Q 2766 2663 2505 2880 
Q 2244 3097 1772 3097 
Q 1472 3097 1187 3025 
Q 903 2953 641 2809 
L 641 3341 
Q 956 3463 1253 3523 
Q 1550 3584 1831 3584 
Q 2591 3584 2966 3190 
Q 3341 2797 3341 1997 
z
" id="DejaVuSans-61" transform="scale(0.015625)"/>
       <path d="M 1259 2228 
L 1259 519 
L 2272 519 
Q 2781 519 3026 730 
Q 3272 941 3272 1375 
Q 3272 1813 3026 2020 
Q 2781 2228 2272 2228 
L 1259 2228 
z
M 1259 4147 
L 1259 2741 
L 2194 2741 
Q 2656 2741 2882 2914 
Q 3109 3088 3109 3444 
Q 3109 3797 2882 3972 
Q 2656 4147 2194 4147 
L 1259 4147 
z
M 628 4666 
L 2241 4666 
Q 2963 4666 3353 4366 
Q 3744 4066 3744 3513 
Q 3744 3084 3544 2831 
Q 3344 2578 2956 2516 
Q 3422 2416 3680 2098 
Q 3938 1781 3938 1306 
Q 3938 681 3513 340 
Q 3088 0 2303 0 
L 628 0 
L 628 4666 
z
" id="DejaVuSans-42" transform="scale(0.015625)"/>
       <path d="M 628 4666 
L 1259 4666 
L 1259 0 
L 628 0 
L 628 4666 
z
" id="DejaVuSans-49" transform="scale(0.015625)"/>
       <path d="M 2522 4238 
Q 1834 4238 1429 3725 
Q 1025 3213 1025 2328 
Q 1025 1447 1429 934 
Q 1834 422 2522 422 
Q 3209 422 3611 934 
Q 4013 1447 4013 2328 
Q 4013 3213 3611 3725 
Q 3209 4238 2522 4238 
z
M 2522 4750 
Q 3503 4750 4090 4092 
Q 4678 3434 4678 2328 
Q 4678 1225 4090 567 
Q 3503 -91 2522 -91 
Q 1538 -91 948 565 
Q 359 1222 359 2328 
Q 359 3434 948 4092 
Q 1538 4750 2522 4750 
z
" id="DejaVuSans-4f" transform="scale(0.015625)"/>
      </defs>
      <use xlink:href="#DejaVuSans-68"/>
      <use x="63.378906" xlink:href="#DejaVuSans-75"/>
      <use x="126.757812" xlink:href="#DejaVuSans-6d"/>
      <use x="224.169922" xlink:href="#DejaVuSans-69"/>
      <use x="251.953125" xlink:href="#DejaVuSans-64"/>
      <use x="315.429688" xlink:href="#DejaVuSans-69"/>
      <use x="343.212891" xlink:href="#DejaVuSans-74"/>
      <use x="382.421875" xlink:href="#DejaVuSans-79"/>
      <use x="441.601562" xlink:href="#DejaVuSans-20"/>
      <use x="473.388672" xlink:href="#DejaVuSans-66"/>
      <use x="508.59375" xlink:href="#DejaVuSans-72"/>
      <use x="547.457031" xlink:href="#DejaVuSans-6f"/>
      <use x="608.638672" xlink:href="#DejaVuSans-6d"/>
      <use x="706.050781" xlink:href="#DejaVuSans-20"/>
      <use x="737.837891" xlink:href="#DejaVuSans-57"/>
      <use x="830.839844" xlink:href="#DejaVuSans-65"/>
      <use x="892.363281" xlink:href="#DejaVuSans-61"/>
      <use x="953.642578" xlink:href="#DejaVuSans-74"/>
      <use x="992.851562" xlink:href="#DejaVuSans-68"/>
      <use x="1056.230469" xlink:href="#DejaVuSans-65"/>
      <use x="1117.753906" xlink:href="#DejaVuSans-72"/>
      <use x="1158.867188" xlink:href="#DejaVuSans-42"/>
      <use x="1227.470703" xlink:href="#DejaVuSans-69"/>
      <use x="1255.253906" xlink:href="#DejaVuSans-74"/>
      <use x="1294.462891" xlink:href="#DejaVuSans-49"/>
      <use x="1323.955078" xlink:href="#DejaVuSans-4f"/>
     </g>
    </g>
   </g>
   <g id="matplotlib.axis_2">
    <g id="ytick_1">
     <g id="line2d_8">
      <defs>
       <path d="M 0 0 
L -3.5 0 
" id="m74b0200987" style="stroke:#000000;stroke-width:0.8;"/>
      </defs>
      <g>
       <use style="stroke:#000000;stroke-width:0.8;" x="57.6" xlink:href="#m74b0200987" y="280.751282"/>
      </g>
     </g>
     <g id="text_9">
      <!-- 10 -->
      <g transform="translate(37.875 284.550501)scale(0.1 -0.1)">
       <use xlink:href="#DejaVuSans-31"/>
       <use x="63.623047" xlink:href="#DejaVuSans-30"/>
      </g>
     </g>
    </g>
    <g id="ytick_2">
     <g id="line2d_9">
      <g>
       <use style="stroke:#000000;stroke-width:0.8;" x="57.6" xlink:href="#m74b0200987" y="244.825593"/>
      </g>
     </g>
     <g id="text_10">
      <!-- 20 -->
      <g transform="translate(37.875 248.624812)scale(0.1 -0.1)">
       <defs>
        <path d="M 1228 531 
L 3431 531 
L 3431 0 
L 469 0 
L 469 531 
Q 828 903 1448 1529 
Q 2069 2156 2228 2338 
Q 2531 2678 2651 2914 
Q 2772 3150 2772 3378 
Q 2772 3750 2511 3984 
Q 2250 4219 1831 4219 
Q 1534 4219 1204 4116 
Q 875 4013 500 3803 
L 500 4441 
Q 881 4594 1212 4672 
Q 1544 4750 1819 4750 
Q 2544 4750 2975 4387 
Q 3406 4025 3406 3419 
Q 3406 3131 3298 2873 
Q 3191 2616 2906 2266 
Q 2828 2175 2409 1742 
Q 1991 1309 1228 531 
z
" id="DejaVuSans-32" transform="scale(0.015625)"/>
       </defs>
       <use xlink:href="#DejaVuSans-32"/>
       <use x="63.623047" xlink:href="#DejaVuSans-30"/>
      </g>
     </g>
    </g>
    <g id="ytick_3">
     <g id="line2d_10">
      <g>
       <use style="stroke:#000000;stroke-width:0.8;" x="57.6" xlink:href="#m74b0200987" y="208.899903"/>
      </g>
     </g>
     <g id="text_11">
      <!-- 30 -->
      <g transform="translate(37.875 212.699122)scale(0.1 -0.1)">
       <defs>
        <path d="M 2597 2516 
Q 3050 2419 3304 2112 
Q 3559 1806 3559 1356 
Q 3559 666 3084 287 
Q 2609 -91 1734 -91 
Q 1441 -91 1130 -33 
Q 819 25 488 141 
L 488 750 
Q 750 597 1062 519 
Q 1375 441 1716 441 
Q 2309 441 2620 675 
Q 2931 909 2931 1356 
Q 2931 1769 2642 2001 
Q 2353 2234 1838 2234 
L 1294 2234 
L 1294 2753 
L 1863 2753 
Q 2328 2753 2575 2939 
Q 2822 3125 2822 3475 
Q 2822 3834 2567 4026 
Q 2313 4219 1838 4219 
Q 1578 4219 1281 4162 
Q 984 4106 628 3988 
L 628 4550 
Q 988 4650 1302 4700 
Q 1616 4750 1894 4750 
Q 2613 4750 3031 4423 
Q 3450 4097 3450 3541 
Q 3450 3153 3228 2886 
Q 3006 2619 2597 2516 
z
" id="DejaVuSans-33" transform="scale(0.015625)"/>
       </defs>
       <use xlink:href="#DejaVuSans-33"/>
       <use x="63.623047" xlink:href="#DejaVuSans-30"/>
      </g>
     </g>
    </g>
    <g id="ytick_4">
     <g id="line2d_11">
      <g>
       <use style="stroke:#000000;stroke-width:0.8;" x="57.6" xlink:href="#m74b0200987" y="172.974214"/>
      </g>
     </g>
     <g id="text_12">
      <!-- 40 -->
      <g transform="translate(37.875 176.773433)scale(0.1 -0.1)">
       <use xlink:href="#DejaVuSans-34"/>
       <use x="63.623047" xlink:href="#DejaVuSans-30"/>
      </g>
     </g>
    </g>
    <g id="ytick_5">
     <g id="line2d_12">
      <g>
       <use style="stroke:#000000;stroke-width:0.8;" x="57.6" xlink:href="#m74b0200987" y="137.048525"/>
      </g>
     </g>
     <g id="text_13">
      <!-- 50 -->
      <g transform="translate(37.875 140.847743)scale(0.1 -0.1)">
       <use xlink:href="#DejaVuSans-35"/>
       <use x="63.623047" xlink:href="#DejaVuSans-30"/>
      </g>
     </g>
    </g>
    <g id="ytick_6">
     <g id="line2d_13">
      <g>
       <use style="stroke:#000000;stroke-width:0.8;" x="57.6" xlink:href="#m74b0200987" y="101.122835"/>
      </g>
     </g>
     <g id="text_14">
      <!-- 60 -->
      <g transform="translate(37.875 104.922054)scale(0.1 -0.1)">
       <use xlink:href="#DejaVuSans-36"/>
       <use x="63.623047" xlink:href="#DejaVuSans-30"/>
      </g>
     </g>
    </g>
    <g id="ytick_7">
     <g id="line2d_14">
      <g>
       <use style="stroke:#000000;stroke-width:0.8;" x="57.6" xlink:href="#m74b0200987" y="65.197146"/>
      </g>
     </g>
     <g id="text_15">
      <!-- 70 -->
      <g transform="translate(37.875 68.996364)scale(0.1 -0.1)">
       <use xlink:href="#DejaVuSans-37"/>
       <use x="63.623047" xlink:href="#DejaVuSans-30"/>
      </g>
     </g>
    </g>
   </g>
   <g id="line2d_15">
    <path clip-path="url(#pe3e04a2789)" d="M 73.832727 270.728015 
L 84.691842 226.790897 
L 90.182067 266.075638 
L 95.672291 204.402007 
L 97.456614 216.225151 
L 101.162516 242.181462 
L 103.643548 223.715658 
L 106.982154 270.857347 
L 111.970023 275.44865 
L 112.142965 251.119774 
L 113.618737 280.514173 
L 116.694361 245.932104 
L 117.63319 280.438729 
L 120.293752 286.010803 
L 126.272058 282.407456 
L 127.366809 191.177761 
L 127.924615 211.019519 
L 132.056009 184.610545 
L 132.902053 281.915275 
L 133.683861 217.737623 
L 134.103863 209.79086 
L 134.416806 290.127887 
L 135.424262 287.562793 
L 136.007873 269.298172 
L 136.449836 230.415799 
L 138.531729 291.065548 
L 139.594088 188.662963 
L 141.137939 289.136338 
L 142.690574 198.391639 
L 143.436696 231.694753 
L 143.683207 282.612233 
L 144.315132 290.4117 
L 144.59678 253.975866 
L 145.084312 287.487349 
L 145.728316 292.039134 
L 145.750276 266.043305 
L 146.182906 177.931959 
L 147.251304 293.458199 
L 148.370212 281.890127 
L 149.029039 269.18321 
L 150.189123 286.610762 
L 150.574537 157.177688 
L 151.255874 272.768594 
L 151.693445 277.183861 
L 153.578239 290.016518 
L 153.748985 284.13189 
L 153.761612 185.109912 
L 153.785769 211.921254 
L 154.31338 210.41956 
L 155.363111 283.388228 
L 155.392758 156.850765 
L 156.064761 213.365467 
L 156.371665 219.735091 
L 156.545705 264.864942 
L 157.500455 253.286093 
L 157.511985 266.402562 
L 158.04783 207.311988 
L 158.224616 272.355449 
L 159.31168 289.606965 
L 159.568623 112.320872 
L 159.579603 276.677309 
L 160.419607 290.066813 
L 161.055375 230.254133 
L 161.554986 243.873562 
L 162.122126 271.356714 
L 162.909424 66.21025 
L 163.547937 288.863303 
L 164.777748 281.494944 
L 164.899082 211.332073 
L 166.73117 285.396474 
L 167.04521 289.168671 
L 168.42161 234.856214 
L 169.248987 275.847426 
L 169.612439 183.909994 
L 169.974794 243.826859 
L 170.902642 145.473099 
L 171.025074 241.40906 
L 171.313311 278.584963 
L 171.51041 265.335569 
L 171.597156 126.554631 
L 172.526651 286.671836 
L 172.535435 284.889922 
L 173.946972 291.011659 
L 174.558583 276.745568 
L 175.118037 189.934732 
L 175.315136 268.910175 
L 176.358278 273.519441 
L 177.947698 272.754224 
L 178.025659 243.27001 
L 178.481897 218.844134 
L 179.525589 220.428457 
L 179.644727 289.23693 
L 179.749041 295.319149 
L 179.90661 285.831175 
L 179.938454 182.929222 
L 179.960415 261.606482 
L 180.37273 285.249179 
L 181.282461 168.911018 
L 181.544344 284.774959 
L 182.640193 278.028115 
L 183.127725 282.130829 
L 183.515884 279.666326 
L 184.144515 235.463358 
L 184.566713 285.974877 
L 186.433938 292.017578 
L 187.131746 267.376148 
L 187.254727 286.046729 
L 189.587523 287.023908 
L 190.221095 244.498669 
L 190.453332 280.808763 
L 190.742118 232.733006 
L 191.860476 247.577501 
L 192.573107 284.386962 
L 192.687304 233.893405 
L 193.323621 259.256942 
L 193.873193 164.007162 
L 193.875389 287.641829 
L 194.496333 233.46589 
L 194.524333 277.92393 
L 198.309294 275.82587 
L 198.685374 151.993611 
L 199.415574 286.050321 
L 199.512202 282.34279 
L 199.555026 250.28989 
L 199.809772 287.243054 
L 199.986558 167.405732 
L 201.054955 248.123571 
L 201.483742 230.282874 
L 201.99049 290.558995 
L 203.524458 171.20667 
L 203.543125 172.852067 
L 205.476782 274.442731 
L 206.410669 285.550954 
L 206.956398 177.285297 
L 207.396165 180.676682 
L 207.560871 202.684759 
L 207.958913 228.939253 
L 208.196639 269.54606 
L 209.825589 175.068682 
L 210.137983 257.277437 
L 210.857751 238.937372 
L 210.967007 207.753874 
L 213.075253 252.129285 
L 213.965767 289.093227 
L 214.056356 220.654789 
L 214.534006 283.758262 
L 215.114871 264.311687 
L 215.426167 225.767015 
L 217.627747 223.880916 
L 217.942337 226.647194 
L 222.657342 258.110913 
L 222.881343 211.332073 
L 223.825662 287.961568 
L 224.094683 231.809715 
L 224.095781 235.535209 
L 224.457037 251.913731 
L 224.466371 230.760685 
L 225.008805 162.907836 
L 225.673671 204.757671 
L 226.28089 282.95712 
L 226.760736 286.714947 
L 227.43768 249.312711 
L 227.475563 281.121317 
L 228.041056 273.09911 
L 228.170076 273.411664 
L 229.172591 286.061099 
L 230.220126 232.927004 
L 231.023895 233.652703 
L 231.899037 240.913285 
L 232.839512 267.246816 
L 232.845002 159.714042 
L 233.182102 286.107802 
L 234.825875 261.038856 
L 235.139367 227.804001 
L 235.414977 182.203524 
L 235.992548 286.916131 
L 237.044475 251.205995 
L 237.907538 282.206273 
L 238.418129 206.582696 
L 238.922681 259.249757 
L 241.363635 249.585747 
L 242.960192 252.431061 
L 243.671725 288.083715 
L 243.908354 286.150913 
L 246.032522 218.808208 
L 246.451975 294.230601 
L 247.716374 196.825279 
L 247.744923 292.76124 
L 248.247278 162.469542 
L 248.348847 288.457343 
L 248.832536 276.353978 
L 248.973635 282.597863 
L 249.365088 269.919687 
L 249.398578 213.455281 
L 250.893018 197.0085 
L 251.848317 208.792126 
L 253.749581 237.956601 
L 253.893425 278.743036 
L 254.888803 273.512256 
L 255.473512 279.235218 
L 259.431964 267.803664 
L 259.970006 291.223621 
L 260.379027 214.105536 
L 260.86601 286.711354 
L 262.13535 216.322151 
L 262.862805 294.363526 
L 264.027282 282.191902 
L 264.068458 287.135277 
L 265.186268 264.929609 
L 265.367995 287.480164 
L 265.862115 288.223826 
L 265.869252 271.500417 
L 266.037253 280.611172 
L 271.521987 204.876226 
L 271.886538 240.058254 
L 273.35133 244.376522 
L 273.899254 157.019615 
L 274.527336 261.286744 
L 276.849701 204.678635 
L 278.697162 270.005908 
L 279.386734 280.190841 
L 280.988232 199.670594 
L 281.353881 283.499597 
L 282.339926 174.289094 
L 287.719248 288.884858 
L 287.83015 214.119906 
L 288.372035 223.999471 
L 288.475252 286.265876 
L 288.763488 267.706664 
L 289.705062 290.508699 
L 291.491032 278.595741 
L 291.622248 203.748159 
L 292.727979 290.375774 
L 293.320375 238.980483 
L 293.464219 285.687472 
L 293.844142 289.254893 
L 294.125791 279.432809 
L 295.209561 288.421417 
L 295.910663 218.312434 
L 296.199448 290.429663 
L 297.748241 288.554342 
L 298.810599 210.04234 
L 300.445039 282.766713 
L 302.60105 294.507229 
L 302.926621 281.121317 
L 304.145999 289.075264 
L 304.300824 219.095614 
L 305.488908 286.944871 
L 307.715194 288.644156 
L 308.259825 286.564059 
L 308.655121 289.47404 
L 309.776774 268.802398 
L 309.791048 125.22538 
L 309.800931 283.539116 
L 310.04305 264.419464 
L 310.107834 278.196966 
L 310.971996 233.185669 
L 311.62643 292.344502 
L 313.266909 284.810885 
L 313.446989 287.947198 
L 313.68801 287.993901 
L 315.281273 288.450157 
L 315.732569 223.17318 
L 316.702692 286.513763 
L 319.50051 245.127369 
L 319.694864 292.463057 
L 321.256833 228.982364 
L 321.35401 283.262488 
L 325.269089 279.598068 
L 326.261722 213.351096 
L 326.856313 280.140545 
L 327.861024 252.73643 
L 327.921417 208.501128 
L 328.028476 287.393942 
L 328.068555 220.705085 
L 328.71146 266.909114 
L 331.000884 291.611618 
L 331.751946 219.28602 
L 332.07587 286.829909 
L 334.238469 292.560056 
L 334.757295 293.01272 
L 337.242171 274.471472 
L 337.390956 286.528133 
L 338.294098 287.397535 
L 339.288927 291.58647 
L 339.304848 255.150636 
L 340.648306 286.377245 
L 341.940705 286.592799 
L 342.732396 252.502913 
L 343.111221 290.318293 
L 343.575694 288.457343 
L 345.124486 249.291156 
L 346.929672 294.715598 
L 347.748265 53.568 
L 348.22262 285.295882 
L 349.623176 284.124704 
L 349.78404 282.691269 
L 350.795888 266.093601 
L 353.233548 246.467397 
L 353.712845 175.208792 
L 354.315671 286.995167 
L 355.197401 289.678816 
L 355.690972 288.209455 
L 358.286751 268.162921 
L 359.203069 205.497741 
L 359.545659 289.650075 
L 360.552017 236.06691 
L 361.478218 255.944594 
L 362.191398 286.819131 
L 362.19634 202.36502 
L 362.419792 282.975082 
L 363.143952 286.862242 
L 364.693294 287.591533 
L 364.737215 287.458608 
L 364.962315 223.007922 
L 365.937928 295.488 
L 366.621461 291.331398 
L 366.996443 277.14075 
L 367.216601 295.117965 
L 369.330337 293.601901 
L 370.183518 234.658623 
L 371.357877 287.009537 
L 372.003528 292.833092 
L 372.635452 275.233096 
L 373.562202 292.696574 
L 378.037284 280.431544 
L 378.482542 289.811741 
L 380.921299 281.236279 
L 381.163967 243.133493 
L 381.68499 285.565325 
L 381.698166 284.900699 
L 383.319978 247.807425 
L 383.857471 267.376148 
L 384.721633 284.800107 
L 386.654192 245.993178 
L 386.91333 289.779408 
L 390.020248 282.644566 
L 390.444643 291.360138 
L 390.649977 290.814068 
L 391.700257 264.37276 
L 392.144416 262.199256 
L 392.497987 291.252361 
L 395.097608 284.483961 
L 397.634641 289.549484 
L 398.487273 279.274736 
L 398.487273 279.274736 
" style="fill:none;stroke:#0000ff;stroke-linecap:square;stroke-width:1.5;"/>
   </g>
   <g id="patch_3">
    <path d="M 57.6 307.584 
L 57.6 41.472 
" style="fill:none;stroke:#000000;stroke-linecap:square;stroke-linejoin:miter;stroke-width:0.8;"/>
   </g>
   <g id="patch_4">
    <path d="M 414.72 307.584 
L 414.72 41.472 
" style="fill:none;stroke:#000000;stroke-linecap:square;stroke-linejoin:miter;stroke-width:0.8;"/>
   </g>
   <g id="patch_5">
    <path d="M 57.6 307.584 
L 414.72 307.584 
" style="fill:none;stroke:#000000;stroke-linecap:square;stroke-linejoin:miter;stroke-width:0.8;"/>
   </g>
   <g id="patch_6">
    <path d="M 57.6 41.472 
L 414.72 41.472 
" style="fill:none;stroke:#000000;stroke-linecap:square;stroke-linejoin:miter;stroke-width:0.8;"/>
   </g>
   <g id="text_16">
    <!-- humidity-&gt;ping_day -->
    <g transform="translate(175.452188 35.472)scale(0.12 -0.12)">
     <defs>
      <path d="M 313 2009 
L 1997 2009 
L 1997 1497 
L 313 1497 
L 313 2009 
z
" id="DejaVuSans-2d" transform="scale(0.015625)"/>
      <path d="M 678 3150 
L 678 3719 
L 4684 2266 
L 4684 1747 
L 678 294 
L 678 863 
L 3897 2003 
L 678 3150 
z
" id="DejaVuSans-3e" transform="scale(0.015625)"/>
      <path d="M 1159 525 
L 1159 -1331 
L 581 -1331 
L 581 3500 
L 1159 3500 
L 1159 2969 
Q 1341 3281 1617 3432 
Q 1894 3584 2278 3584 
Q 2916 3584 3314 3078 
Q 3713 2572 3713 1747 
Q 3713 922 3314 415 
Q 2916 -91 2278 -91 
Q 1894 -91 1617 61 
Q 1341 213 1159 525 
z
M 3116 1747 
Q 3116 2381 2855 2742 
Q 2594 3103 2138 3103 
Q 1681 3103 1420 2742 
Q 1159 2381 1159 1747 
Q 1159 1113 1420 752 
Q 1681 391 2138 391 
Q 2594 391 2855 752 
Q 3116 1113 3116 1747 
z
" id="DejaVuSans-70" transform="scale(0.015625)"/>
      <path d="M 3513 2113 
L 3513 0 
L 2938 0 
L 2938 2094 
Q 2938 2591 2744 2837 
Q 2550 3084 2163 3084 
Q 1697 3084 1428 2787 
Q 1159 2491 1159 1978 
L 1159 0 
L 581 0 
L 581 3500 
L 1159 3500 
L 1159 2956 
Q 1366 3272 1645 3428 
Q 1925 3584 2291 3584 
Q 2894 3584 3203 3211 
Q 3513 2838 3513 2113 
z
" id="DejaVuSans-6e" transform="scale(0.015625)"/>
      <path d="M 2906 1791 
Q 2906 2416 2648 2759 
Q 2391 3103 1925 3103 
Q 1463 3103 1205 2759 
Q 947 2416 947 1791 
Q 947 1169 1205 825 
Q 1463 481 1925 481 
Q 2391 481 2648 825 
Q 2906 1169 2906 1791 
z
M 3481 434 
Q 3481 -459 3084 -895 
Q 2688 -1331 1869 -1331 
Q 1566 -1331 1297 -1286 
Q 1028 -1241 775 -1147 
L 775 -588 
Q 1028 -725 1275 -790 
Q 1522 -856 1778 -856 
Q 2344 -856 2625 -561 
Q 2906 -266 2906 331 
L 2906 616 
Q 2728 306 2450 153 
Q 2172 0 1784 0 
Q 1141 0 747 490 
Q 353 981 353 1791 
Q 353 2603 747 3093 
Q 1141 3584 1784 3584 
Q 2172 3584 2450 3431 
Q 2728 3278 2906 2969 
L 2906 3500 
L 3481 3500 
L 3481 434 
z
" id="DejaVuSans-67" transform="scale(0.015625)"/>
      <path d="M 3263 -1063 
L 3263 -1509 
L -63 -1509 
L -63 -1063 
L 3263 -1063 
z
" id="DejaVuSans-5f" transform="scale(0.015625)"/>
     </defs>
     <use xlink:href="#DejaVuSans-68"/>
     <use x="63.378906" xlink:href="#DejaVuSans-75"/>
     <use x="126.757812" xlink:href="#DejaVuSans-6d"/>
     <use x="224.169922" xlink:href="#DejaVuSans-69"/>
     <use x="251.953125" xlink:href="#DejaVuSans-64"/>
     <use x="315.429688" xlink:href="#DejaVuSans-69"/>
     <use x="343.212891" xlink:href="#DejaVuSans-74"/>
     <use x="382.421875" xlink:href="#DejaVuSans-79"/>
     <use x="439.851562" xlink:href="#DejaVuSans-2d"/>
     <use x="475.935547" xlink:href="#DejaVuSans-3e"/>
     <use x="559.724609" xlink:href="#DejaVuSans-70"/>
     <use x="623.201172" xlink:href="#DejaVuSans-69"/>
     <use x="650.984375" xlink:href="#DejaVuSans-6e"/>
     <use x="714.363281" xlink:href="#DejaVuSans-67"/>
     <use x="777.839844" xlink:href="#DejaVuSans-5f"/>
     <use x="827.839844" xlink:href="#DejaVuSans-64"/>
     <use x="891.316406" xlink:href="#DejaVuSans-61"/>
     <use x="952.595703" xlink:href="#DejaVuSans-79"/>
    </g>
   </g>
  </g>
  <g id="legend_1">
   <g id="patch_7">
    <path d="M 415.451563 22.678125 
L 453.8 22.678125 
Q 455.8 22.678125 455.8 20.678125 
L 455.8 7 
Q 455.8 5 453.8 5 
L 415.451563 5 
Q 413.451563 5 413.451563 7 
L 413.451563 20.678125 
Q 413.451563 22.678125 415.451563 22.678125 
z
" style="fill:#ffffff;opacity:0.8;stroke:#cccccc;stroke-linejoin:miter;"/>
   </g>
   <g id="line2d_16">
    <path d="M 417.451563 13.098438 
L 437.451563 13.098438 
" style="fill:none;stroke:#0000ff;stroke-linecap:square;stroke-width:1.5;"/>
   </g>
   <g id="line2d_17"/>
   <g id="text_17">
    <!-- p -->
    <g transform="translate(445.451563 16.598438)scale(0.1 -0.1)">
     <use xlink:href="#DejaVuSans-70"/>
    </g>
   </g>
  </g>
 </g>
 <defs>
  <clipPath id="pe3e04a2789">
   <rect height="266.112" width="357.12" x="57.6" y="41.472"/>
  </clipPath>
 </defs>
</svg>
