<?xml version="1.0" encoding="utf-8" standalone="no"?>
<!DOCTYPE svg PUBLIC "-//W3C//DTD SVG 1.1//EN"
  "http://www.w3.org/Graphics/SVG/1.1/DTD/svg11.dtd">
<!-- Created with matplotlib (https://matplotlib.org/) -->
<svg height="2090.31625pt" version="1.1" viewBox="0 0 2065.44375 2090.31625" width="2065.44375pt" xmlns="http://www.w3.org/2000/svg" xmlns:xlink="http://www.w3.org/1999/xlink">
 <metadata>
  <rdf:RDF xmlns:cc="http://creativecommons.org/ns#" xmlns:dc="http://purl.org/dc/elements/1.1/" xmlns:rdf="http://www.w3.org/1999/02/22-rdf-syntax-ns#">
   <cc:Work>
    <dc:type rdf:resource="http://purl.org/dc/dcmitype/StillImage"/>
    <dc:date>2022-07-23T21:29:46.412816</dc:date>
    <dc:format>image/svg+xml</dc:format>
    <dc:creator>
     <cc:Agent>
      <dc:title>Matplotlib v3.3.2, https://matplotlib.org/</dc:title>
     </cc:Agent>
    </dc:creator>
   </cc:Work>
  </rdf:RDF>
 </metadata>
 <defs>
  <style type="text/css">*{stroke-linecap:butt;stroke-linejoin:round;}</style>
 </defs>
 <g id="figure_1">
  <g id="patch_1">
   <path d="M 0 2090.31625 
L 2065.44375 2090.31625 
L 2065.44375 0 
L 0 0 
z
" style="fill:#ffffff;"/>
  </g>
  <g id="axes_1">
   <g id="patch_2">
    <path d="M 47.24375 2052.76 
L 1832.84375 2052.76 
L 1832.84375 278.68 
L 47.24375 278.68 
z
" style="fill:#ffffff;"/>
   </g>
   <g id="matplotlib.axis_1">
    <g id="xtick_1">
     <g id="line2d_1">
      <defs>
       <path d="M 0 0 
L 0 3.5 
" id="mc15f542b3c" style="stroke:#000000;stroke-width:0.8;"/>
      </defs>
      <g>
       <use style="stroke:#000000;stroke-width:0.8;" x="165.116808" xlink:href="#mc15f542b3c" y="2052.76"/>
      </g>
     </g>
     <g id="text_1">
      <text style="font-family:DejaVu Sans;font-size:10px;font-stretch:normal;font-style:normal;font-weight:normal;text-anchor:middle;" transform="rotate(-0, 165.116808, 2067.358438)" x="165.116808" y="2067.358438">7.5</text>
     </g>
    </g>
    <g id="xtick_2">
     <g id="line2d_2">
      <g>
       <use style="stroke:#000000;stroke-width:0.8;" x="388.954746" xlink:href="#mc15f542b3c" y="2052.76"/>
      </g>
     </g>
     <g id="text_2">
      <text style="font-family:DejaVu Sans;font-size:10px;font-stretch:normal;font-style:normal;font-weight:normal;text-anchor:middle;" transform="rotate(-0, 388.954746, 2067.358438)" x="388.954746" y="2067.358438">10.0</text>
     </g>
    </g>
    <g id="xtick_3">
     <g id="line2d_3">
      <g>
       <use style="stroke:#000000;stroke-width:0.8;" x="612.792684" xlink:href="#mc15f542b3c" y="2052.76"/>
      </g>
     </g>
     <g id="text_3">
      <text style="font-family:DejaVu Sans;font-size:10px;font-stretch:normal;font-style:normal;font-weight:normal;text-anchor:middle;" transform="rotate(-0, 612.792684, 2067.358438)" x="612.792684" y="2067.358438">12.5</text>
     </g>
    </g>
    <g id="xtick_4">
     <g id="line2d_4">
      <g>
       <use style="stroke:#000000;stroke-width:0.8;" x="836.630623" xlink:href="#mc15f542b3c" y="2052.76"/>
      </g>
     </g>
     <g id="text_4">
      <text style="font-family:DejaVu Sans;font-size:10px;font-stretch:normal;font-style:normal;font-weight:normal;text-anchor:middle;" transform="rotate(-0, 836.630623, 2067.358438)" x="836.630623" y="2067.358438">15.0</text>
     </g>
    </g>
    <g id="xtick_5">
     <g id="line2d_5">
      <g>
       <use style="stroke:#000000;stroke-width:0.8;" x="1060.468561" xlink:href="#mc15f542b3c" y="2052.76"/>
      </g>
     </g>
     <g id="text_5">
      <text style="font-family:DejaVu Sans;font-size:10px;font-stretch:normal;font-style:normal;font-weight:normal;text-anchor:middle;" transform="rotate(-0, 1060.468561, 2067.358438)" x="1060.468561" y="2067.358438">17.5</text>
     </g>
    </g>
    <g id="xtick_6">
     <g id="line2d_6">
      <g>
       <use style="stroke:#000000;stroke-width:0.8;" x="1284.306499" xlink:href="#mc15f542b3c" y="2052.76"/>
      </g>
     </g>
     <g id="text_6">
      <text style="font-family:DejaVu Sans;font-size:10px;font-stretch:normal;font-style:normal;font-weight:normal;text-anchor:middle;" transform="rotate(-0, 1284.306499, 2067.358438)" x="1284.306499" y="2067.358438">20.0</text>
     </g>
    </g>
    <g id="xtick_7">
     <g id="line2d_7">
      <g>
       <use style="stroke:#000000;stroke-width:0.8;" x="1508.144437" xlink:href="#mc15f542b3c" y="2052.76"/>
      </g>
     </g>
     <g id="text_7">
      <text style="font-family:DejaVu Sans;font-size:10px;font-stretch:normal;font-style:normal;font-weight:normal;text-anchor:middle;" transform="rotate(-0, 1508.144437, 2067.358438)" x="1508.144437" y="2067.358438">22.5</text>
     </g>
    </g>
    <g id="xtick_8">
     <g id="line2d_8">
      <g>
       <use style="stroke:#000000;stroke-width:0.8;" x="1731.982375" xlink:href="#mc15f542b3c" y="2052.76"/>
      </g>
     </g>
     <g id="text_8">
      <text style="font-family:DejaVu Sans;font-size:10px;font-stretch:normal;font-style:normal;font-weight:normal;text-anchor:middle;" transform="rotate(-0, 1731.982375, 2067.358438)" x="1731.982375" y="2067.358438">25.0</text>
     </g>
    </g>
    <g id="text_9">
     <text style="font-family:DejaVu Sans;font-size:10px;font-stretch:normal;font-style:normal;font-weight:normal;text-anchor:middle;" transform="rotate(-0, 940.04375, 2081.036562)" x="940.04375" y="2081.036562">temperature from OpenWeatherMap</text>
    </g>
   </g>
   <g id="matplotlib.axis_2">
    <g id="ytick_1">
     <g id="line2d_9">
      <defs>
       <path d="M 0 0 
L -3.5 0 
" id="ma996c24502" style="stroke:#000000;stroke-width:0.8;"/>
      </defs>
      <g>
       <use style="stroke:#000000;stroke-width:0.8;" x="47.24375" xlink:href="#ma996c24502" y="1972.936194"/>
      </g>
     </g>
     <g id="text_10">
      <text style="font-family:DejaVu Sans;font-size:10px;font-stretch:normal;font-style:normal;font-weight:normal;text-anchor:end;" transform="rotate(-0, 40.24375, 1976.735413)" x="40.24375" y="1976.735413">0</text>
     </g>
    </g>
    <g id="ytick_2">
     <g id="line2d_10">
      <g>
       <use style="stroke:#000000;stroke-width:0.8;" x="47.24375" xlink:href="#ma996c24502" y="1728.077895"/>
      </g>
     </g>
     <g id="text_11">
      <text style="font-family:DejaVu Sans;font-size:10px;font-stretch:normal;font-style:normal;font-weight:normal;text-anchor:end;" transform="rotate(-0, 40.24375, 1731.877113)" x="40.24375" y="1731.877113">100</text>
     </g>
    </g>
    <g id="ytick_3">
     <g id="line2d_11">
      <g>
       <use style="stroke:#000000;stroke-width:0.8;" x="47.24375" xlink:href="#ma996c24502" y="1483.219595"/>
      </g>
     </g>
     <g id="text_12">
      <text style="font-family:DejaVu Sans;font-size:10px;font-stretch:normal;font-style:normal;font-weight:normal;text-anchor:end;" transform="rotate(-0, 40.24375, 1487.018814)" x="40.24375" y="1487.018814">200</text>
     </g>
    </g>
    <g id="ytick_4">
     <g id="line2d_12">
      <g>
       <use style="stroke:#000000;stroke-width:0.8;" x="47.24375" xlink:href="#ma996c24502" y="1238.361296"/>
      </g>
     </g>
     <g id="text_13">
      <text style="font-family:DejaVu Sans;font-size:10px;font-stretch:normal;font-style:normal;font-weight:normal;text-anchor:end;" transform="rotate(-0, 40.24375, 1242.160514)" x="40.24375" y="1242.160514">300</text>
     </g>
    </g>
    <g id="ytick_5">
     <g id="line2d_13">
      <g>
       <use style="stroke:#000000;stroke-width:0.8;" x="47.24375" xlink:href="#ma996c24502" y="993.502996"/>
      </g>
     </g>
     <g id="text_14">
      <text style="font-family:DejaVu Sans;font-size:10px;font-stretch:normal;font-style:normal;font-weight:normal;text-anchor:end;" transform="rotate(-0, 40.24375, 997.302215)" x="40.24375" y="997.302215">400</text>
     </g>
    </g>
    <g id="ytick_6">
     <g id="line2d_14">
      <g>
       <use style="stroke:#000000;stroke-width:0.8;" x="47.24375" xlink:href="#ma996c24502" y="748.644696"/>
      </g>
     </g>
     <g id="text_15">
      <text style="font-family:DejaVu Sans;font-size:10px;font-stretch:normal;font-style:normal;font-weight:normal;text-anchor:end;" transform="rotate(-0, 40.24375, 752.443915)" x="40.24375" y="752.443915">500</text>
     </g>
    </g>
    <g id="ytick_7">
     <g id="line2d_15">
      <g>
       <use style="stroke:#000000;stroke-width:0.8;" x="47.24375" xlink:href="#ma996c24502" y="503.786397"/>
      </g>
     </g>
     <g id="text_16">
      <text style="font-family:DejaVu Sans;font-size:10px;font-stretch:normal;font-style:normal;font-weight:normal;text-anchor:end;" transform="rotate(-0, 40.24375, 507.585616)" x="40.24375" y="507.585616">600</text>
     </g>
    </g>
    <g id="text_17">
     <text style="font-family:DejaVu Sans;font-size:10px;font-stretch:normal;font-style:normal;font-weight:normal;text-anchor:middle;" transform="rotate(-90, 14.798438, 1165.72)" x="14.798438" y="1165.72">Retransmission_night[dimensionless]</text>
    </g>
   </g>
   <g id="line2d_16">
    <path clip-path="url(#p1b72c88d54)" d="M 128.407386 1344.874656 
L 135.5702 1180.411498 
L 145.41907 1135.52081 
L 154.372587 1146.131336 
L 157.058642 896.783968 
L 160.640049 1426.902186 
L 161.535401 1173.065749 
L 164.221456 1188.165344 
L 169.593567 1124.502186 
L 172.279622 1524.029312 
L 174.965677 1071.041457 
L 175.861029 1257.94996 
L 178.547085 1406.089231 
L 182.128492 1266.111903 
L 184.814547 1125.726478 
L 188.395954 1643.193684 
L 191.082009 1550.963725 
L 196.45412 1238.361296 
L 206.302989 1728.894089 
L 223.314672 1501.17587 
L 225.105376 1216.324049 
L 242.117059 1481.995304 
L 249.279873 1636.990607 
L 251.070576 1460.774251 
L 255.547335 1678.29004 
L 258.23339 1720.732146 
L 264.500853 1271.825263 
L 285.093943 1075.122429 
L 290.466054 1044.107045 
L 299.419571 1080.835789 
L 303.000978 1825.20502 
L 305.687033 1401.192065 
L 309.26844 1755.012308 
L 315.535903 1668.495709 
L 340.605752 1304.473036 
L 348.663917 1026.150769 
L 362.989546 1503.507854 
L 366.570953 1388.541053 
L 369.257008 1040.842267 
L 371.047711 1060.430931 
L 372.838415 1106.62753 
L 375.52447 1007.3783 
L 377.315174 1250.604211 
L 378.210525 1177.962915 
L 379.105877 1070.63336 
L 380.001229 1561.574251 
L 380.896581 1142.866559 
L 381.791932 1231.015547 
L 382.687284 1235.096518 
L 384.477988 1396.907045 
L 385.373339 1438.328907 
L 386.268691 1203.731336 
L 387.164043 1120.339595 
L 389.850098 1109.810688 
L 391.640802 1271.417166 
L 394.326857 1476.485992 
L 395.222209 1157.558057 
L 396.11756 1168.984777 
L 397.012912 1241.299595 
L 398.803616 987.789636 
L 401.489671 1506.073036 
L 402.385023 1053.085182 
L 410.443188 1581.162915 
L 411.33854 1233.46413 
L 412.233892 1104.913522 
L 414.024595 1333.856032 
L 414.919947 1191.838219 
L 415.815299 1325.694089 
L 419.396706 1235.096518 
L 422.082761 1387.724858 
L 422.978113 1094.711093 
L 423.873465 1493.830121 
L 424.768816 1370.584777 
L 425.664168 1525.6617 
L 428.350223 1368.136194 
L 432.826982 1339.569393 
L 433.722334 1308.554008 
L 435.513037 965.752389 
L 436.408389 1099.608259 
L 437.303741 1306.921619 
L 440.885148 1238.361296 
L 441.7805 1113.483563 
L 442.675851 1367.677085 
L 443.571203 1427.718381 
L 444.466555 1348.54753 
L 448.047962 1317.940243 
L 449.838666 1160.986073 
L 450.734017 1308.145911 
L 452.524721 1086.957247 
L 453.420073 1456.285182 
L 454.315424 1176.330526 
L 456.106128 1098.792065 
L 457.00148 1065.491336 
L 457.896831 1291.413927 
L 458.792183 1928.8617 
L 460.582887 1070.939433 
L 461.478238 1113.483563 
L 462.37359 1076.754818 
L 463.268942 1592.589636 
L 464.164294 1017.988826 
L 465.954997 1421.628315 
L 466.850349 1697.06251 
L 468.641052 1142.866559 
L 469.536404 1235.912713 
L 471.327108 1058.390445 
L 472.222459 1202.856842 
L 473.117811 1213.875466 
L 474.013163 1231.831741 
L 475.803866 1231.015547 
L 476.699218 1042.474656 
L 478.489922 1269.37668 
L 481.175977 1428.126478 
L 482.071329 1659.517571 
L 482.96668 1290.189636 
L 483.862032 1310.186397 
L 486.548087 1532.191255 
L 487.443439 1114.027692 
L 488.338791 1260.398543 
L 489.234143 1112.014413 
L 490.129494 1333.856032 
L 491.920198 359.32 
L 493.710901 1231.015547 
L 495.501605 1257.94996 
L 496.396957 1282.435789 
L 498.18766 1454.380729 
L 499.083012 1432.615547 
L 499.978364 1243.258462 
L 500.873715 1289.781538 
L 501.769067 1227.750769 
L 502.664419 1334.26413 
L 503.559771 1295.494899 
L 504.455122 1062.471417 
L 506.245826 1049.295709 
L 507.141178 1101.044761 
L 508.036529 1485.178462 
L 508.931881 1050.310121 
L 509.827233 1314.879514 
L 510.722585 1156.741862 
L 511.617936 1241.054737 
L 512.513288 1203.673036 
L 513.40864 1239.993684 
L 514.303992 818.021215 
L 515.199343 1565.655223 
L 516.094695 1279.171012 
L 516.990047 1068.796923 
L 518.78075 1559.125668 
L 519.676102 1035.128907 
L 520.571454 1291.00583 
L 521.466806 1356.709474 
L 522.362157 1156.741862 
L 523.257509 1345.399352 
L 524.152861 1251.420405 
L 525.048213 1479.138623 
L 526.838916 1226.118381 
L 527.734268 1039.754008 
L 528.62962 1174.698138 
L 529.524971 1229.791255 
L 530.420323 1270.192874 
L 531.315675 1102.873036 
L 533.106378 1584.427692 
L 534.00173 1292.230121 
L 535.792434 1426.902186 
L 537.583137 1150.212308 
L 538.478489 1194.286802 
L 539.373841 1146.94753 
L 540.269193 1327.326478 
L 541.164544 1132.66413 
L 542.059896 1310.594494 
L 542.955248 1348.54753 
L 544.745951 1493.013927 
L 545.641303 1364.055223 
L 547.432007 1634.623644 
L 549.22271 1163.271417 
L 550.118062 1404.048745 
L 551.013414 853.933765 
L 551.908765 1279.171012 
L 552.804117 1553.004211 
L 553.699469 1620.340243 
L 554.594821 1332.019595 
L 555.490172 1290.911654 
L 556.385524 1412.210688 
L 558.176228 1082.060081 
L 559.071579 1198.367773 
L 559.966931 1404.252794 
L 560.862283 1456.557247 
L 561.757635 1373.305425 
L 563.548338 1361.315142 
L 564.44369 1290.597733 
L 565.339042 1231.015547 
L 566.234393 1367.127954 
L 567.129745 1560.145911 
L 568.025097 1244.482753 
L 568.920449 1031.047935 
L 569.8158 1196.429312 
L 570.711152 1316.715951 
L 571.606504 1198.77587 
L 572.501856 1253.297652 
L 573.397207 1520.356437 
L 575.187911 1642.37749 
L 576.083263 1191.294089 
L 576.978614 1326.510283 
L 577.873966 1375.726802 
L 579.66467 1426.085992 
L 580.560021 1148.988016 
L 582.350725 1365.075466 
L 583.246077 1533.823644 
L 584.141428 1417.107854 
L 585.03678 1719.841752 
L 585.932132 1338.753198 
L 586.827484 1516.683563 
L 587.722835 1120.829312 
L 588.618187 1692.981538 
L 589.513539 1322.837409 
L 590.408891 1420.474656 
L 591.304242 1244.618785 
L 592.199594 1380.868826 
L 593.094946 1242.442267 
L 593.990298 867.809069 
L 595.781001 1595.854413 
L 596.676353 1397.51919 
L 597.571705 1625.237409 
L 598.467056 1690.532955 
L 599.362408 1407.313522 
L 600.25776 1298.351579 
L 601.153112 1242.908664 
L 602.048463 1288.14915 
L 602.943815 1687.268178 
L 603.839167 1416.563725 
L 604.734519 1257.573254 
L 605.62987 1271.553198 
L 606.525222 1088.181538 
L 608.315926 1581.162915 
L 609.211277 1555.860891 
L 610.106629 1564.512551 
L 611.001981 1662.782348 
L 612.792684 1971.711903 
L 613.688036 1567.139212 
L 614.583388 1558.309474 
L 615.47874 1758.685182 
L 616.374091 1170.209069 
L 617.269443 1768.071417 
L 618.164795 1539.537004 
L 619.060147 1657.068988 
L 619.955498 1416.699757 
L 620.85085 1392.622024 
L 621.746202 1522.396923 
L 622.641554 1397.51919 
L 624.432257 1942.737004 
L 625.327609 1302.568583 
L 627.118313 1764.80664 
L 628.013664 1712.570202 
L 628.909016 1302.840648 
L 630.69972 1402.416356 
L 631.595071 1678.29004 
L 632.490423 1051.656842 
L 633.385775 1326.102186 
L 634.281127 1108.586397 
L 635.176478 1127.358866 
L 636.967182 1280.803401 
L 638.757885 1395.070607 
L 639.653237 1404.592874 
L 640.548589 1472.44583 
L 641.443941 1325.694089 
L 642.339292 1491.964534 
L 643.234644 1695.266883 
L 644.129996 1377.930526 
L 645.920699 1173.065749 
L 648.606755 1230.199352 
L 649.502106 1345.180729 
L 650.397458 1230.199352 
L 651.29281 1349.771822 
L 653.083513 1266.52 
L 654.874217 1218.772632 
L 655.769569 1336.032551 
L 656.66492 1282.843887 
L 658.455624 1008.194494 
L 660.246327 1353.444696 
L 661.141679 1430.166964 
L 662.932383 1543.617976 
L 663.827734 1307.533765 
L 664.723086 1339.365344 
L 665.618438 1637.480324 
L 667.409141 1216.324049 
L 668.304493 1318.674818 
L 669.199845 1518.968907 
L 670.990548 1344.874656 
L 671.8859 1328.958866 
L 674.571955 1127.358866 
L 675.467307 1302.432551 
L 678.153362 1629.318381 
L 681.734769 1062.675466 
L 682.630121 1211.916599 
L 683.525473 1210.882753 
L 685.316176 1620.585101 
L 686.211528 1728.077895 
L 688.002232 1447.432613 
L 688.897583 1843.161296 
L 690.688287 1440.505425 
L 691.583639 1513.418785 
L 693.374342 1186.532955 
L 694.269694 1268.560486 
L 695.165046 1059.614737 
L 697.851101 1689.308664 
L 699.641804 1184.764534 
L 700.537156 1707.673036 
L 702.32786 1358.341862 
L 703.223211 1785.211498 
L 704.118563 1528.518381 
L 705.013915 1691.043077 
L 705.909267 1142.050364 
L 706.804618 1200.000162 
L 707.69997 1289.53668 
L 708.595322 1201.632551 
L 709.490674 1246.523239 
L 711.281377 987.789636 
L 712.176729 1695.430121 
L 713.072081 1221.443813 
L 713.967432 1137.969393 
L 714.862784 979.627692 
L 715.758136 1267.438219 
L 717.54884 1163.271417 
L 718.444191 1033.904615 
L 719.339543 1057.982348 
L 721.130247 1339.569393 
L 722.025598 1302.589511 
L 722.92095 1434.247935 
L 724.711654 1291.00583 
L 725.607005 1172.8617 
L 726.502357 1260.888259 
L 727.397709 1273.865749 
L 728.293061 1223.669798 
L 729.188412 1593.40583 
L 730.979116 1515.051174 
L 731.874468 1575.041457 
L 733.665171 1226.526478 
L 734.560523 1336.304615 
L 736.351226 1065.124049 
L 737.246578 1155.109474 
L 738.14193 1211.426883 
L 739.037282 1415.772264 
L 740.827985 1172.249555 
L 741.723337 1179.595304 
L 742.618689 1703.183968 
L 744.409392 1451.388016 
L 745.304744 1291.822024 
L 748.886151 1134.704615 
L 750.676854 1131.031741 
L 751.572206 1345.486802 
L 752.467558 1639.316761 
L 753.36291 1244.482753 
L 755.153613 1531.885182 
L 756.048965 1425.677895 
L 756.944317 1111.524696 
L 757.839668 1238.361296 
L 761.421075 1200.000162 
L 763.211779 1228.566964 
L 764.107131 1173.881943 
L 765.897834 1651.355628 
L 766.793186 1311.002591 
L 767.688538 1477.098138 
L 768.583889 1164.903806 
L 769.479241 1135.031093 
L 770.374593 1380.379109 
L 771.269945 1085.324858 
L 775.746703 1688.900567 
L 776.642055 1005.133765 
L 777.537407 1265.785425 
L 778.432759 1331.407449 
L 780.223462 1417.597571 
L 781.118814 1272.641457 
L 782.014166 1500.359676 
L 783.804869 1184.900567 
L 785.595573 1281.89166 
L 786.490924 1289.781538 
L 788.281628 1026.733765 
L 789.17698 1538.72081 
L 790.072331 1173.881943 
L 790.967683 1417.924049 
L 791.863035 1613.973927 
L 792.758387 1660.333765 
L 793.653738 1692.165344 
L 796.339794 1378.420243 
L 797.235145 1324.0617 
L 798.130497 1329.366964 
L 799.025849 1731.750769 
L 799.921201 1502.400162 
L 800.816552 1643.193684 
L 801.711904 1178.779109 
L 803.502608 1663.802591 
L 804.397959 1609.321619 
L 807.084015 1424.14753 
L 808.874718 1328.142672 
L 809.77007 982.076275 
L 810.665422 1115.013927 
L 811.560774 1583.339433 
L 812.456125 1216.732146 
L 814.246829 1315.083563 
L 816.037532 1543.617976 
L 817.828236 1674.209069 
L 820.514291 1352.95498 
L 821.409643 1093.894899 
L 822.304995 1118.380729 
L 823.200346 1442.409879 
L 824.095698 1563.288259 
L 824.99105 1446.49085 
L 825.886402 1150.212308 
L 827.677105 1679.106235 
L 829.467809 1345.180729 
L 830.36316 1574.63336 
L 831.258512 1308.281943 
L 832.153864 1604.016356 
L 833.049216 1218.228502 
L 834.839919 1182.962105 
L 835.735271 1389.765344 
L 837.525974 1525.6617 
L 838.421326 1207.019433 
L 840.21203 1589.324858 
L 841.107381 1252.644696 
L 842.002733 1631.766964 
L 842.898085 1055.533765 
L 843.793437 1262.030931 
L 844.688788 1202.244696 
L 845.58414 1491.055061 
L 846.479492 1669.067045 
L 847.374844 1074.306235 
L 848.270195 1606.464939 
L 849.165547 1375.481943 
L 850.060899 1339.97749 
L 850.956251 1596.670607 
L 851.851602 1419.012308 
L 852.746954 1119.360162 
L 853.642306 1283.251984 
L 854.537658 1049.004211 
L 856.328361 1525.6617 
L 858.119065 1389.765344 
L 859.014416 1622.788826 
L 859.909768 1333.039838 
L 860.80512 1291.413927 
L 862.595823 1561.574251 
L 863.491175 1569.409717 
L 864.386527 1188.573441 
L 866.17723 1080.427692 
L 867.072582 1190.20583 
L 868.863286 931.472227 
L 869.758637 1506.073036 
L 870.653989 1455.741053 
L 871.549341 1302.759028 
L 872.444693 1679.106235 
L 875.130748 1105.321619 
L 876.921451 1332.631741 
L 878.712155 1610.545911 
L 879.607507 1288.557247 
L 880.502858 1625.237409 
L 881.39821 1353.444696 
L 882.293562 1386.500567 
L 883.188914 1615.851174 
L 884.084265 1330.917733 
L 885.874969 1736.647935 
L 886.770321 1523.213117 
L 887.665672 1822.654413 
L 888.561024 1439.757247 
L 890.351728 1624.124417 
L 891.247079 1953.34753 
L 892.142431 910.251174 
L 893.037783 1195.91919 
L 895.723838 1603.200162 
L 898.409894 1271.825263 
L 901.095949 1627.685992 
L 901.991301 1285.700567 
L 902.886652 1195.102996 
L 904.677356 1348.955628 
L 905.572708 1205.305425 
L 908.258763 1287.945101 
L 909.154115 1452.055812 
L 913.630873 1358.341862 
L 914.526225 1090.630121 
L 916.316929 1604.016356 
L 917.21228 1424.453603 
L 918.107632 1692.165344 
L 921.689039 895.559676 
L 922.584391 1176.657004 
L 923.479743 1208.162105 
L 925.270446 1656.252794 
L 926.165798 1193.878704 
L 927.06115 1314.267368 
L 927.956501 1489.515951 
L 928.851853 1137.969393 
L 929.747205 1645.642267 
L 930.642557 1628.175709 
L 931.537908 1249.243887 
L 932.43326 1523.485182 
L 933.328612 1709.713522 
L 934.223964 1213.430269 
L 938.700722 1465.26332 
L 939.596074 1533.007449 
L 940.491426 1433.941862 
L 941.386778 1632.360559 
L 942.282129 1508.113522 
L 943.177481 1830.612308 
L 944.968185 1386.09247 
L 945.863536 1337.12081 
L 946.758888 1760.662884 
L 947.65424 1802.351579 
L 948.549592 1791.741053 
L 949.444943 1279.171012 
L 950.340295 1415.475466 
L 951.235647 1506.073036 
L 952.130999 1538.557571 
L 953.02635 1311.818785 
L 954.817054 1150.212308 
L 955.712406 1249.379919 
L 957.503109 1797.250364 
L 959.293813 1512.296518 
L 960.189164 1413.843077 
L 961.979868 1743.585587 
L 962.87522 1413.843077 
L 963.770571 1319.77668 
L 964.665923 1899.478704 
L 967.351978 1033.496518 
L 969.142682 1385.820405 
L 970.038034 1681.554818 
L 971.828737 1454.652794 
L 972.724089 1648.498947 
L 976.305496 1609.892955 
L 977.200848 1402.066559 
L 978.991551 1379.971012 
L 980.782255 1519.94834 
L 981.677606 1109.402591 
L 982.572958 1692.165344 
L 983.46831 1412.210688 
L 984.363662 1050.636599 
L 987.945069 1849.69085 
L 988.840421 1497.911093 
L 990.631124 1365.687611 
L 992.421828 1092.670607 
L 993.317179 1610.545911 
L 994.212531 1323.245506 
L 998.68929 1124.910283 
L 999.584642 1435.880324 
L 1000.479993 1868.871417 
L 1003.166049 1169.392874 
L 1004.0614 1218.772632 
L 1004.956752 1729.710283 
L 1005.852104 1193.470607 
L 1006.747456 1668.26251 
L 1007.642807 1244.89085 
L 1008.538159 1486.647611 
L 1009.433511 1395.886802 
L 1010.328863 857.198543 
L 1013.91027 957.386397 
L 1014.805621 1196.067589 
L 1015.700973 1222.037409 
L 1016.596325 1262.030931 
L 1021.073084 983.708664 
L 1021.968435 982.484372 
L 1022.863787 1195.102996 
L 1024.654491 1350.506397 
L 1029.131249 1246.31919 
L 1030.026601 1275.906235 
L 1030.921953 1002.481134 
L 1031.817305 1210.610688 
L 1035.398712 1302.024453 
L 1038.980119 1182.043887 
L 1039.87547 1078.387206 
L 1040.770822 1354.260891 
L 1041.666174 1340.385587 
L 1043.456877 946.979919 
L 1045.247581 1763.174251 
L 1047.933636 1368.952389 
L 1048.828988 1356.165344 
L 1049.72434 1642.37749 
L 1051.515043 1489.74915 
L 1052.410395 1581.162915 
L 1053.305747 1107.770202 
L 1054.201098 1158.782348 
L 1056.887154 1276.722429 
L 1057.782505 1208.9783 
L 1058.677857 1041.658462 
L 1059.573209 950.244696 
L 1062.259264 1506.073036 
L 1063.154616 1366.095709 
L 1064.945319 1054.717571 
L 1066.736023 1693.797733 
L 1068.526726 1088.181538 
L 1070.31743 1355.893279 
L 1073.003485 1128.583158 
L 1073.898837 1480.158866 
L 1075.689541 1237.953198 
L 1077.480244 1146.131336 
L 1078.375596 1490.915142 
L 1081.061651 687.430121 
L 1081.957003 1113.483563 
L 1082.852355 1076.754818 
L 1084.643058 1208.162105 
L 1086.433762 1119.60502 
L 1087.329113 1162.727287 
L 1088.224465 1294.950769 
L 1089.119817 1306.105425 
L 1090.015169 998.400162 
L 1090.91052 1027.783158 
L 1091.805872 1970.487611 
L 1092.701224 1233.46413 
L 1093.596576 1259.582348 
L 1095.387279 991.054413 
L 1096.282631 1576.265749 
L 1098.073334 1433.431741 
L 1098.968686 1142.866559 
L 1100.75939 1217.956437 
L 1105.236148 1363.239028 
L 1107.026852 1353.794494 
L 1108.817555 1154.293279 
L 1110.608259 912.699757 
L 1112.398962 906.5783 
L 1113.294314 1284.884372 
L 1114.189666 1356.709474 
L 1117.771073 1361.60664 
L 1118.666425 1648.498947 
L 1121.35248 1449.988826 
L 1122.247832 1833.979109 
L 1124.038535 1411.394494 
L 1124.933887 969.017166 
L 1125.829239 1300.392065 
L 1126.72459 1470.160486 
L 1127.619942 1102.873036 
L 1128.515294 1213.875466 
L 1132.096701 1396.230462 
L 1133.887404 1135.928907 
L 1136.57346 1108.586397 
L 1139.259515 1111.851174 
L 1141.94557 1140.417976 
L 1143.736274 1041.658462 
L 1144.631625 776.803401 
L 1146.422329 993.502996 
L 1147.317681 1274.273846 
L 1148.213032 1022.069798 
L 1149.108384 924.126478 
L 1153.585143 1081.651984 
L 1154.480495 1337.937004 
L 1156.271198 863.728097 
L 1162.53866 1276.722429 
L 1164.329364 1228.566964 
L 1179.550344 1074.306235 
L 1181.341047 1972.12 
L 1183.131751 1177.146721 
L 1187.60851 937.185587 
L 1189.399213 1264.479514 
L 1194.771324 578.876275 
L 1195.666675 1963.141862 
L 1197.457379 1196.735385 
L 1198.352731 996.767773 
L 1201.038786 1058.798543 
L 1202.829489 1271.009069 
L 1203.724841 1959.877085 
L 1207.306248 1968.039028 
L 1209.992303 1968.039028 
L 1210.887655 1276.314332 
L 1211.783007 1231.015547 
L 1218.050469 1600.751579 
L 1220.736524 1130.623644 
L 1223.42258 1064.511903 
L 1226.108635 1650.539433 
L 1227.003987 1272.641457 
L 1227.899338 372.787206 
L 1228.79469 982.89247 
L 1235.062152 1212.651174 
L 1238.643559 1164.087611 
L 1240.434263 1385.276275 
L 1243.120318 1691.34915 
L 1247.597077 1673.392874 
L 1249.38778 1297.943482 
L 1251.178484 1144.09085 
L 1254.759891 1153.010688 
L 1256.550595 1136.745101 
L 1260.132002 971.465749 
L 1263.713409 1682.779109 
L 1264.60876 1795.00583 
L 1265.504112 1245.707045 
L 1268.190167 1660.741862 
L 1272.666926 1594.630121 
L 1273.562278 1646.050364 
L 1274.45763 1065.328097 
L 1280.725092 1635.031741 
L 1281.620444 1178.371012 
L 1283.411147 1398.498623 
L 1286.097202 1124.502186 
L 1287.887906 1851.731336 
L 1288.783258 1501.992065 
L 1291.469313 1459.958057 
L 1295.05072 1398.98834 
L 1300.42283 1413.843077 
L 1303.108886 1481.995304 
L 1304.004237 1621.156437 
L 1304.899589 1709.958381 
L 1305.794941 1326.510283 
L 1306.690293 1119.60502 
L 1308.480996 1208.366154 
L 1309.376348 990.238219 
L 1311.167051 1442.409879 
L 1312.062403 1593.40583 
L 1312.957755 1661.966154 
L 1318.329865 1422.00502 
L 1325.492679 890.66251 
L 1329.969438 1696.246316 
L 1334.446197 1726.241457 
L 1335.341549 1119.196923 
L 1336.2369 1206.529717 
L 1339.818307 1779.498138 
L 1343.399714 1768.887611 
L 1345.190418 1267.744291 
L 1347.876473 927.391255 
L 1351.45788 1267.744291 
L 1353.248584 1053.085182 
L 1354.143936 1697.06251 
L 1355.934639 1702.77587 
L 1363.992805 1486.076275 
L 1372.946322 1231.015547 
L 1381.89984 1447.307045 
L 1410.551096 1229.383158 
L 1432.039538 983.708664 
L 1432.93489 1008.194494 
L 1450.841925 1068.184777 
L 1486.655995 1133.072227 
L 1494.714161 1216.324049 
L 1528.737527 1272.641457 
L 1531.423583 1223.669798 
L 1548.435266 1226.934575 
L 1594.993557 1208.9783 
L 1602.156371 1363.239028 
L 1624.540165 1303.656842 
L 1649.610014 1120.829312 
L 1732.877727 1339.569393 
L 1745.412651 1257.94996 
L 1751.680114 987.381538 
L 1751.680114 987.381538 
" style="fill:none;stroke:#0000ff;stroke-linecap:square;stroke-width:1.5;"/>
   </g>
   <g id="patch_3">
    <path d="M 47.24375 2052.76 
L 47.24375 278.68 
" style="fill:none;stroke:#000000;stroke-linecap:square;stroke-linejoin:miter;stroke-width:0.8;"/>
   </g>
   <g id="patch_4">
    <path d="M 1832.84375 2052.76 
L 1832.84375 278.68 
" style="fill:none;stroke:#000000;stroke-linecap:square;stroke-linejoin:miter;stroke-width:0.8;"/>
   </g>
   <g id="patch_5">
    <path d="M 47.24375 2052.76 
L 1832.84375 2052.76 
" style="fill:none;stroke:#000000;stroke-linecap:square;stroke-linejoin:miter;stroke-width:0.8;"/>
   </g>
   <g id="patch_6">
    <path d="M 47.24375 278.68 
L 1832.84375 278.68 
" style="fill:none;stroke:#000000;stroke-linecap:square;stroke-linejoin:miter;stroke-width:0.8;"/>
   </g>
   <g id="text_18">
    <text style="font-family:DejaVu Sans;font-size:12px;font-stretch:normal;font-style:normal;font-weight:normal;text-anchor:middle;" transform="rotate(-0, 940.04375, 272.68)" x="940.04375" y="272.68">temperature-&gt;Retransmission_night</text>
   </g>
  </g>
  <g id="legend_1">
   <g id="patch_7">
    <path d="M 1840.2375 22.95625 
L 2058.44375 22.95625 
Q 2060.44375 22.95625 2060.44375 20.95625 
L 2060.44375 7 
Q 2060.44375 5 2058.44375 5 
L 1840.2375 5 
Q 1838.2375 5 1838.2375 7 
L 1838.2375 20.95625 
Q 1838.2375 22.95625 1840.2375 22.95625 
z
" style="fill:#ffffff;opacity:0.8;stroke:#cccccc;stroke-linejoin:miter;"/>
   </g>
   <g id="line2d_17">
    <path d="M 1842.2375 13.098438 
L 1862.2375 13.098438 
" style="fill:none;stroke:#0000ff;stroke-linecap:square;stroke-width:1.5;"/>
   </g>
   <g id="line2d_18"/>
   <g id="text_19">
    <text style="font-family:DejaVu Sans;font-size:10px;font-stretch:normal;font-style:normal;font-weight:normal;text-anchor:start;" transform="rotate(-0, 1870.2375, 16.598438)" x="1870.2375" y="16.598438">Retransmission_night[dimensionless]</text>
   </g>
  </g>
 </g>
 <defs>
  <clipPath id="p1b72c88d54">
   <rect height="1774.08" width="1785.6" x="47.24375" y="278.68"/>
  </clipPath>
 </defs>
</svg>
