<?xml version="1.0" encoding="utf-8" standalone="no"?>
<!DOCTYPE svg PUBLIC "-//W3C//DTD SVG 1.1//EN"
  "http://www.w3.org/Graphics/SVG/1.1/DTD/svg11.dtd">
<!-- Created with matplotlib (https://matplotlib.org/) -->
<svg height="345.6pt" version="1.1" viewBox="0 0 460.8 345.6" width="460.8pt" xmlns="http://www.w3.org/2000/svg" xmlns:xlink="http://www.w3.org/1999/xlink">
 <metadata>
  <rdf:RDF xmlns:cc="http://creativecommons.org/ns#" xmlns:dc="http://purl.org/dc/elements/1.1/" xmlns:rdf="http://www.w3.org/1999/02/22-rdf-syntax-ns#">
   <cc:Work>
    <dc:type rdf:resource="http://purl.org/dc/dcmitype/StillImage"/>
    <dc:date>2022-07-16T22:30:42.843512</dc:date>
    <dc:format>image/svg+xml</dc:format>
    <dc:creator>
     <cc:Agent>
      <dc:title>Matplotlib v3.3.2, https://matplotlib.org/</dc:title>
     </cc:Agent>
    </dc:creator>
   </cc:Work>
  </rdf:RDF>
 </metadata>
 <defs>
  <style type="text/css">*{stroke-linecap:butt;stroke-linejoin:round;}</style>
 </defs>
 <g id="figure_1">
  <g id="patch_1">
   <path d="M 0 345.6 
L 460.8 345.6 
L 460.8 0 
L 0 0 
z
" style="fill:#ffffff;"/>
  </g>
  <g id="axes_1">
   <g id="patch_2">
    <path d="M 57.6 307.584 
L 414.72 307.584 
L 414.72 41.472 
L 57.6 41.472 
z
" style="fill:#ffffff;"/>
   </g>
   <g id="matplotlib.axis_1">
    <g id="xtick_1">
     <g id="line2d_1">
      <defs>
       <path d="M 0 0 
L 0 3.5 
" id="mb13144ffb6" style="stroke:#000000;stroke-width:0.8;"/>
      </defs>
      <g>
       <use style="stroke:#000000;stroke-width:0.8;" x="81.174612" xlink:href="#mb13144ffb6" y="307.584"/>
      </g>
     </g>
     <g id="text_1">
      <!-- 7.5 -->
      <g transform="translate(73.223049 322.182437)scale(0.1 -0.1)">
       <defs>
        <path d="M 8.203125 72.90625 
L 55.078125 72.90625 
L 55.078125 68.703125 
L 28.609375 0 
L 18.3125 0 
L 43.21875 64.59375 
L 8.203125 64.59375 
z
" id="DejaVuSans-55"/>
        <path d="M 10.6875 12.40625 
L 21 12.40625 
L 21 0 
L 10.6875 0 
z
" id="DejaVuSans-46"/>
        <path d="M 10.796875 72.90625 
L 49.515625 72.90625 
L 49.515625 64.59375 
L 19.828125 64.59375 
L 19.828125 46.734375 
Q 21.96875 47.46875 24.109375 47.828125 
Q 26.265625 48.1875 28.421875 48.1875 
Q 40.625 48.1875 47.75 41.5 
Q 54.890625 34.8125 54.890625 23.390625 
Q 54.890625 11.625 47.5625 5.09375 
Q 40.234375 -1.421875 26.90625 -1.421875 
Q 22.3125 -1.421875 17.546875 -0.640625 
Q 12.796875 0.140625 7.71875 1.703125 
L 7.71875 11.625 
Q 12.109375 9.234375 16.796875 8.0625 
Q 21.484375 6.890625 26.703125 6.890625 
Q 35.15625 6.890625 40.078125 11.328125 
Q 45.015625 15.765625 45.015625 23.390625 
Q 45.015625 31 40.078125 35.4375 
Q 35.15625 39.890625 26.703125 39.890625 
Q 22.75 39.890625 18.8125 39.015625 
Q 14.890625 38.140625 10.796875 36.28125 
z
" id="DejaVuSans-53"/>
       </defs>
       <use xlink:href="#DejaVuSans-55"/>
       <use x="63.623047" xlink:href="#DejaVuSans-46"/>
       <use x="95.410156" xlink:href="#DejaVuSans-53"/>
      </g>
     </g>
    </g>
    <g id="xtick_2">
     <g id="line2d_2">
      <g>
       <use style="stroke:#000000;stroke-width:0.8;" x="125.942199" xlink:href="#mb13144ffb6" y="307.584"/>
      </g>
     </g>
     <g id="text_2">
      <!-- 10.0 -->
      <g transform="translate(114.809387 322.182437)scale(0.1 -0.1)">
       <defs>
        <path d="M 12.40625 8.296875 
L 28.515625 8.296875 
L 28.515625 63.921875 
L 10.984375 60.40625 
L 10.984375 69.390625 
L 28.421875 72.90625 
L 38.28125 72.90625 
L 38.28125 8.296875 
L 54.390625 8.296875 
L 54.390625 0 
L 12.40625 0 
z
" id="DejaVuSans-49"/>
        <path d="M 31.78125 66.40625 
Q 24.171875 66.40625 20.328125 58.90625 
Q 16.5 51.421875 16.5 36.375 
Q 16.5 21.390625 20.328125 13.890625 
Q 24.171875 6.390625 31.78125 6.390625 
Q 39.453125 6.390625 43.28125 13.890625 
Q 47.125 21.390625 47.125 36.375 
Q 47.125 51.421875 43.28125 58.90625 
Q 39.453125 66.40625 31.78125 66.40625 
z
M 31.78125 74.21875 
Q 44.046875 74.21875 50.515625 64.515625 
Q 56.984375 54.828125 56.984375 36.375 
Q 56.984375 17.96875 50.515625 8.265625 
Q 44.046875 -1.421875 31.78125 -1.421875 
Q 19.53125 -1.421875 13.0625 8.265625 
Q 6.59375 17.96875 6.59375 36.375 
Q 6.59375 54.828125 13.0625 64.515625 
Q 19.53125 74.21875 31.78125 74.21875 
z
" id="DejaVuSans-48"/>
       </defs>
       <use xlink:href="#DejaVuSans-49"/>
       <use x="63.623047" xlink:href="#DejaVuSans-48"/>
       <use x="127.246094" xlink:href="#DejaVuSans-46"/>
       <use x="159.033203" xlink:href="#DejaVuSans-48"/>
      </g>
     </g>
    </g>
    <g id="xtick_3">
     <g id="line2d_3">
      <g>
       <use style="stroke:#000000;stroke-width:0.8;" x="170.709787" xlink:href="#mb13144ffb6" y="307.584"/>
      </g>
     </g>
     <g id="text_3">
      <!-- 12.5 -->
      <g transform="translate(159.576974 322.182437)scale(0.1 -0.1)">
       <defs>
        <path d="M 19.1875 8.296875 
L 53.609375 8.296875 
L 53.609375 0 
L 7.328125 0 
L 7.328125 8.296875 
Q 12.9375 14.109375 22.625 23.890625 
Q 32.328125 33.6875 34.8125 36.53125 
Q 39.546875 41.84375 41.421875 45.53125 
Q 43.3125 49.21875 43.3125 52.78125 
Q 43.3125 58.59375 39.234375 62.25 
Q 35.15625 65.921875 28.609375 65.921875 
Q 23.96875 65.921875 18.8125 64.3125 
Q 13.671875 62.703125 7.8125 59.421875 
L 7.8125 69.390625 
Q 13.765625 71.78125 18.9375 73 
Q 24.125 74.21875 28.421875 74.21875 
Q 39.75 74.21875 46.484375 68.546875 
Q 53.21875 62.890625 53.21875 53.421875 
Q 53.21875 48.921875 51.53125 44.890625 
Q 49.859375 40.875 45.40625 35.40625 
Q 44.1875 33.984375 37.640625 27.21875 
Q 31.109375 20.453125 19.1875 8.296875 
z
" id="DejaVuSans-50"/>
       </defs>
       <use xlink:href="#DejaVuSans-49"/>
       <use x="63.623047" xlink:href="#DejaVuSans-50"/>
       <use x="127.246094" xlink:href="#DejaVuSans-46"/>
       <use x="159.033203" xlink:href="#DejaVuSans-53"/>
      </g>
     </g>
    </g>
    <g id="xtick_4">
     <g id="line2d_4">
      <g>
       <use style="stroke:#000000;stroke-width:0.8;" x="215.477375" xlink:href="#mb13144ffb6" y="307.584"/>
      </g>
     </g>
     <g id="text_4">
      <!-- 15.0 -->
      <g transform="translate(204.344562 322.182437)scale(0.1 -0.1)">
       <use xlink:href="#DejaVuSans-49"/>
       <use x="63.623047" xlink:href="#DejaVuSans-53"/>
       <use x="127.246094" xlink:href="#DejaVuSans-46"/>
       <use x="159.033203" xlink:href="#DejaVuSans-48"/>
      </g>
     </g>
    </g>
    <g id="xtick_5">
     <g id="line2d_5">
      <g>
       <use style="stroke:#000000;stroke-width:0.8;" x="260.244962" xlink:href="#mb13144ffb6" y="307.584"/>
      </g>
     </g>
     <g id="text_5">
      <!-- 17.5 -->
      <g transform="translate(249.11215 322.182437)scale(0.1 -0.1)">
       <use xlink:href="#DejaVuSans-49"/>
       <use x="63.623047" xlink:href="#DejaVuSans-55"/>
       <use x="127.246094" xlink:href="#DejaVuSans-46"/>
       <use x="159.033203" xlink:href="#DejaVuSans-53"/>
      </g>
     </g>
    </g>
    <g id="xtick_6">
     <g id="line2d_6">
      <g>
       <use style="stroke:#000000;stroke-width:0.8;" x="305.01255" xlink:href="#mb13144ffb6" y="307.584"/>
      </g>
     </g>
     <g id="text_6">
      <!-- 20.0 -->
      <g transform="translate(293.879737 322.182437)scale(0.1 -0.1)">
       <use xlink:href="#DejaVuSans-50"/>
       <use x="63.623047" xlink:href="#DejaVuSans-48"/>
       <use x="127.246094" xlink:href="#DejaVuSans-46"/>
       <use x="159.033203" xlink:href="#DejaVuSans-48"/>
      </g>
     </g>
    </g>
    <g id="xtick_7">
     <g id="line2d_7">
      <g>
       <use style="stroke:#000000;stroke-width:0.8;" x="349.780137" xlink:href="#mb13144ffb6" y="307.584"/>
      </g>
     </g>
     <g id="text_7">
      <!-- 22.5 -->
      <g transform="translate(338.647325 322.182437)scale(0.1 -0.1)">
       <use xlink:href="#DejaVuSans-50"/>
       <use x="63.623047" xlink:href="#DejaVuSans-50"/>
       <use x="127.246094" xlink:href="#DejaVuSans-46"/>
       <use x="159.033203" xlink:href="#DejaVuSans-53"/>
      </g>
     </g>
    </g>
    <g id="xtick_8">
     <g id="line2d_8">
      <g>
       <use style="stroke:#000000;stroke-width:0.8;" x="394.547725" xlink:href="#mb13144ffb6" y="307.584"/>
      </g>
     </g>
     <g id="text_8">
      <!-- 25.0 -->
      <g transform="translate(383.414913 322.182437)scale(0.1 -0.1)">
       <use xlink:href="#DejaVuSans-50"/>
       <use x="63.623047" xlink:href="#DejaVuSans-53"/>
       <use x="127.246094" xlink:href="#DejaVuSans-46"/>
       <use x="159.033203" xlink:href="#DejaVuSans-48"/>
      </g>
     </g>
    </g>
    <g id="text_9">
     <!-- temperature from OpenWeatherMap -->
     <g transform="translate(144.963906 335.860562)scale(0.1 -0.1)">
      <defs>
       <path d="M 18.3125 70.21875 
L 18.3125 54.6875 
L 36.8125 54.6875 
L 36.8125 47.703125 
L 18.3125 47.703125 
L 18.3125 18.015625 
Q 18.3125 11.328125 20.140625 9.421875 
Q 21.96875 7.515625 27.59375 7.515625 
L 36.8125 7.515625 
L 36.8125 0 
L 27.59375 0 
Q 17.1875 0 13.234375 3.875 
Q 9.28125 7.765625 9.28125 18.015625 
L 9.28125 47.703125 
L 2.6875 47.703125 
L 2.6875 54.6875 
L 9.28125 54.6875 
L 9.28125 70.21875 
z
" id="DejaVuSans-116"/>
       <path d="M 56.203125 29.59375 
L 56.203125 25.203125 
L 14.890625 25.203125 
Q 15.484375 15.921875 20.484375 11.0625 
Q 25.484375 6.203125 34.421875 6.203125 
Q 39.59375 6.203125 44.453125 7.46875 
Q 49.3125 8.734375 54.109375 11.28125 
L 54.109375 2.78125 
Q 49.265625 0.734375 44.1875 -0.34375 
Q 39.109375 -1.421875 33.890625 -1.421875 
Q 20.796875 -1.421875 13.15625 6.1875 
Q 5.515625 13.8125 5.515625 26.8125 
Q 5.515625 40.234375 12.765625 48.109375 
Q 20.015625 56 32.328125 56 
Q 43.359375 56 49.78125 48.890625 
Q 56.203125 41.796875 56.203125 29.59375 
z
M 47.21875 32.234375 
Q 47.125 39.59375 43.09375 43.984375 
Q 39.0625 48.390625 32.421875 48.390625 
Q 24.90625 48.390625 20.390625 44.140625 
Q 15.875 39.890625 15.1875 32.171875 
z
" id="DejaVuSans-101"/>
       <path d="M 52 44.1875 
Q 55.375 50.25 60.0625 53.125 
Q 64.75 56 71.09375 56 
Q 79.640625 56 84.28125 50.015625 
Q 88.921875 44.046875 88.921875 33.015625 
L 88.921875 0 
L 79.890625 0 
L 79.890625 32.71875 
Q 79.890625 40.578125 77.09375 44.375 
Q 74.3125 48.1875 68.609375 48.1875 
Q 61.625 48.1875 57.5625 43.546875 
Q 53.515625 38.921875 53.515625 30.90625 
L 53.515625 0 
L 44.484375 0 
L 44.484375 32.71875 
Q 44.484375 40.625 41.703125 44.40625 
Q 38.921875 48.1875 33.109375 48.1875 
Q 26.21875 48.1875 22.15625 43.53125 
Q 18.109375 38.875 18.109375 30.90625 
L 18.109375 0 
L 9.078125 0 
L 9.078125 54.6875 
L 18.109375 54.6875 
L 18.109375 46.1875 
Q 21.1875 51.21875 25.484375 53.609375 
Q 29.78125 56 35.6875 56 
Q 41.65625 56 45.828125 52.96875 
Q 50 49.953125 52 44.1875 
z
" id="DejaVuSans-109"/>
       <path d="M 18.109375 8.203125 
L 18.109375 -20.796875 
L 9.078125 -20.796875 
L 9.078125 54.6875 
L 18.109375 54.6875 
L 18.109375 46.390625 
Q 20.953125 51.265625 25.265625 53.625 
Q 29.59375 56 35.59375 56 
Q 45.5625 56 51.78125 48.09375 
Q 58.015625 40.1875 58.015625 27.296875 
Q 58.015625 14.40625 51.78125 6.484375 
Q 45.5625 -1.421875 35.59375 -1.421875 
Q 29.59375 -1.421875 25.265625 0.953125 
Q 20.953125 3.328125 18.109375 8.203125 
z
M 48.6875 27.296875 
Q 48.6875 37.203125 44.609375 42.84375 
Q 40.53125 48.484375 33.40625 48.484375 
Q 26.265625 48.484375 22.1875 42.84375 
Q 18.109375 37.203125 18.109375 27.296875 
Q 18.109375 17.390625 22.1875 11.75 
Q 26.265625 6.109375 33.40625 6.109375 
Q 40.53125 6.109375 44.609375 11.75 
Q 48.6875 17.390625 48.6875 27.296875 
z
" id="DejaVuSans-112"/>
       <path d="M 41.109375 46.296875 
Q 39.59375 47.171875 37.8125 47.578125 
Q 36.03125 48 33.890625 48 
Q 26.265625 48 22.1875 43.046875 
Q 18.109375 38.09375 18.109375 28.8125 
L 18.109375 0 
L 9.078125 0 
L 9.078125 54.6875 
L 18.109375 54.6875 
L 18.109375 46.1875 
Q 20.953125 51.171875 25.484375 53.578125 
Q 30.03125 56 36.53125 56 
Q 37.453125 56 38.578125 55.875 
Q 39.703125 55.765625 41.0625 55.515625 
z
" id="DejaVuSans-114"/>
       <path d="M 34.28125 27.484375 
Q 23.390625 27.484375 19.1875 25 
Q 14.984375 22.515625 14.984375 16.5 
Q 14.984375 11.71875 18.140625 8.90625 
Q 21.296875 6.109375 26.703125 6.109375 
Q 34.1875 6.109375 38.703125 11.40625 
Q 43.21875 16.703125 43.21875 25.484375 
L 43.21875 27.484375 
z
M 52.203125 31.203125 
L 52.203125 0 
L 43.21875 0 
L 43.21875 8.296875 
Q 40.140625 3.328125 35.546875 0.953125 
Q 30.953125 -1.421875 24.3125 -1.421875 
Q 15.921875 -1.421875 10.953125 3.296875 
Q 6 8.015625 6 15.921875 
Q 6 25.140625 12.171875 29.828125 
Q 18.359375 34.515625 30.609375 34.515625 
L 43.21875 34.515625 
L 43.21875 35.40625 
Q 43.21875 41.609375 39.140625 45 
Q 35.0625 48.390625 27.6875 48.390625 
Q 23 48.390625 18.546875 47.265625 
Q 14.109375 46.140625 10.015625 43.890625 
L 10.015625 52.203125 
Q 14.9375 54.109375 19.578125 55.046875 
Q 24.21875 56 28.609375 56 
Q 40.484375 56 46.34375 49.84375 
Q 52.203125 43.703125 52.203125 31.203125 
z
" id="DejaVuSans-97"/>
       <path d="M 8.5 21.578125 
L 8.5 54.6875 
L 17.484375 54.6875 
L 17.484375 21.921875 
Q 17.484375 14.15625 20.5 10.265625 
Q 23.53125 6.390625 29.59375 6.390625 
Q 36.859375 6.390625 41.078125 11.03125 
Q 45.3125 15.671875 45.3125 23.6875 
L 45.3125 54.6875 
L 54.296875 54.6875 
L 54.296875 0 
L 45.3125 0 
L 45.3125 8.40625 
Q 42.046875 3.421875 37.71875 1 
Q 33.40625 -1.421875 27.6875 -1.421875 
Q 18.265625 -1.421875 13.375 4.4375 
Q 8.5 10.296875 8.5 21.578125 
z
M 31.109375 56 
z
" id="DejaVuSans-117"/>
       <path id="DejaVuSans-32"/>
       <path d="M 37.109375 75.984375 
L 37.109375 68.5 
L 28.515625 68.5 
Q 23.6875 68.5 21.796875 66.546875 
Q 19.921875 64.59375 19.921875 59.515625 
L 19.921875 54.6875 
L 34.71875 54.6875 
L 34.71875 47.703125 
L 19.921875 47.703125 
L 19.921875 0 
L 10.890625 0 
L 10.890625 47.703125 
L 2.296875 47.703125 
L 2.296875 54.6875 
L 10.890625 54.6875 
L 10.890625 58.5 
Q 10.890625 67.625 15.140625 71.796875 
Q 19.390625 75.984375 28.609375 75.984375 
z
" id="DejaVuSans-102"/>
       <path d="M 30.609375 48.390625 
Q 23.390625 48.390625 19.1875 42.75 
Q 14.984375 37.109375 14.984375 27.296875 
Q 14.984375 17.484375 19.15625 11.84375 
Q 23.34375 6.203125 30.609375 6.203125 
Q 37.796875 6.203125 41.984375 11.859375 
Q 46.1875 17.53125 46.1875 27.296875 
Q 46.1875 37.015625 41.984375 42.703125 
Q 37.796875 48.390625 30.609375 48.390625 
z
M 30.609375 56 
Q 42.328125 56 49.015625 48.375 
Q 55.71875 40.765625 55.71875 27.296875 
Q 55.71875 13.875 49.015625 6.21875 
Q 42.328125 -1.421875 30.609375 -1.421875 
Q 18.84375 -1.421875 12.171875 6.21875 
Q 5.515625 13.875 5.515625 27.296875 
Q 5.515625 40.765625 12.171875 48.375 
Q 18.84375 56 30.609375 56 
z
" id="DejaVuSans-111"/>
       <path d="M 39.40625 66.21875 
Q 28.65625 66.21875 22.328125 58.203125 
Q 16.015625 50.203125 16.015625 36.375 
Q 16.015625 22.609375 22.328125 14.59375 
Q 28.65625 6.59375 39.40625 6.59375 
Q 50.140625 6.59375 56.421875 14.59375 
Q 62.703125 22.609375 62.703125 36.375 
Q 62.703125 50.203125 56.421875 58.203125 
Q 50.140625 66.21875 39.40625 66.21875 
z
M 39.40625 74.21875 
Q 54.734375 74.21875 63.90625 63.9375 
Q 73.09375 53.65625 73.09375 36.375 
Q 73.09375 19.140625 63.90625 8.859375 
Q 54.734375 -1.421875 39.40625 -1.421875 
Q 24.03125 -1.421875 14.8125 8.828125 
Q 5.609375 19.09375 5.609375 36.375 
Q 5.609375 53.65625 14.8125 63.9375 
Q 24.03125 74.21875 39.40625 74.21875 
z
" id="DejaVuSans-79"/>
       <path d="M 54.890625 33.015625 
L 54.890625 0 
L 45.90625 0 
L 45.90625 32.71875 
Q 45.90625 40.484375 42.875 44.328125 
Q 39.84375 48.1875 33.796875 48.1875 
Q 26.515625 48.1875 22.3125 43.546875 
Q 18.109375 38.921875 18.109375 30.90625 
L 18.109375 0 
L 9.078125 0 
L 9.078125 54.6875 
L 18.109375 54.6875 
L 18.109375 46.1875 
Q 21.34375 51.125 25.703125 53.5625 
Q 30.078125 56 35.796875 56 
Q 45.21875 56 50.046875 50.171875 
Q 54.890625 44.34375 54.890625 33.015625 
z
" id="DejaVuSans-110"/>
       <path d="M 3.328125 72.90625 
L 13.28125 72.90625 
L 28.609375 11.28125 
L 43.890625 72.90625 
L 54.984375 72.90625 
L 70.3125 11.28125 
L 85.59375 72.90625 
L 95.609375 72.90625 
L 77.296875 0 
L 64.890625 0 
L 49.515625 63.28125 
L 33.984375 0 
L 21.578125 0 
z
" id="DejaVuSans-87"/>
       <path d="M 54.890625 33.015625 
L 54.890625 0 
L 45.90625 0 
L 45.90625 32.71875 
Q 45.90625 40.484375 42.875 44.328125 
Q 39.84375 48.1875 33.796875 48.1875 
Q 26.515625 48.1875 22.3125 43.546875 
Q 18.109375 38.921875 18.109375 30.90625 
L 18.109375 0 
L 9.078125 0 
L 9.078125 75.984375 
L 18.109375 75.984375 
L 18.109375 46.1875 
Q 21.34375 51.125 25.703125 53.5625 
Q 30.078125 56 35.796875 56 
Q 45.21875 56 50.046875 50.171875 
Q 54.890625 44.34375 54.890625 33.015625 
z
" id="DejaVuSans-104"/>
       <path d="M 9.8125 72.90625 
L 24.515625 72.90625 
L 43.109375 23.296875 
L 61.8125 72.90625 
L 76.515625 72.90625 
L 76.515625 0 
L 66.890625 0 
L 66.890625 64.015625 
L 48.09375 14.015625 
L 38.1875 14.015625 
L 19.390625 64.015625 
L 19.390625 0 
L 9.8125 0 
z
" id="DejaVuSans-77"/>
      </defs>
      <use xlink:href="#DejaVuSans-116"/>
      <use x="39.208984" xlink:href="#DejaVuSans-101"/>
      <use x="100.732422" xlink:href="#DejaVuSans-109"/>
      <use x="198.144531" xlink:href="#DejaVuSans-112"/>
      <use x="261.621094" xlink:href="#DejaVuSans-101"/>
      <use x="323.144531" xlink:href="#DejaVuSans-114"/>
      <use x="364.257812" xlink:href="#DejaVuSans-97"/>
      <use x="425.537109" xlink:href="#DejaVuSans-116"/>
      <use x="464.746094" xlink:href="#DejaVuSans-117"/>
      <use x="528.125" xlink:href="#DejaVuSans-114"/>
      <use x="566.988281" xlink:href="#DejaVuSans-101"/>
      <use x="628.511719" xlink:href="#DejaVuSans-32"/>
      <use x="660.298828" xlink:href="#DejaVuSans-102"/>
      <use x="695.503906" xlink:href="#DejaVuSans-114"/>
      <use x="734.367188" xlink:href="#DejaVuSans-111"/>
      <use x="795.548828" xlink:href="#DejaVuSans-109"/>
      <use x="892.960938" xlink:href="#DejaVuSans-32"/>
      <use x="924.748047" xlink:href="#DejaVuSans-79"/>
      <use x="1003.458984" xlink:href="#DejaVuSans-112"/>
      <use x="1066.935547" xlink:href="#DejaVuSans-101"/>
      <use x="1128.458984" xlink:href="#DejaVuSans-110"/>
      <use x="1191.837891" xlink:href="#DejaVuSans-87"/>
      <use x="1284.839844" xlink:href="#DejaVuSans-101"/>
      <use x="1346.363281" xlink:href="#DejaVuSans-97"/>
      <use x="1407.642578" xlink:href="#DejaVuSans-116"/>
      <use x="1446.851562" xlink:href="#DejaVuSans-104"/>
      <use x="1510.230469" xlink:href="#DejaVuSans-101"/>
      <use x="1571.753906" xlink:href="#DejaVuSans-114"/>
      <use x="1612.867188" xlink:href="#DejaVuSans-77"/>
      <use x="1699.146484" xlink:href="#DejaVuSans-97"/>
      <use x="1760.425781" xlink:href="#DejaVuSans-112"/>
     </g>
    </g>
   </g>
   <g id="matplotlib.axis_2">
    <g id="ytick_1">
     <g id="line2d_9">
      <defs>
       <path d="M 0 0 
L -3.5 0 
" id="m3e1ea9873b" style="stroke:#000000;stroke-width:0.8;"/>
      </defs>
      <g>
       <use style="stroke:#000000;stroke-width:0.8;" x="57.6" xlink:href="#m3e1ea9873b" y="295.610429"/>
      </g>
     </g>
     <g id="text_10">
      <!-- 0 -->
      <g transform="translate(44.2375 299.409648)scale(0.1 -0.1)">
       <use xlink:href="#DejaVuSans-48"/>
      </g>
     </g>
    </g>
    <g id="ytick_2">
     <g id="line2d_10">
      <g>
       <use style="stroke:#000000;stroke-width:0.8;" x="57.6" xlink:href="#m3e1ea9873b" y="258.881684"/>
      </g>
     </g>
     <g id="text_11">
      <!-- 100 -->
      <g transform="translate(31.5125 262.680903)scale(0.1 -0.1)">
       <use xlink:href="#DejaVuSans-49"/>
       <use x="63.623047" xlink:href="#DejaVuSans-48"/>
       <use x="127.246094" xlink:href="#DejaVuSans-48"/>
      </g>
     </g>
    </g>
    <g id="ytick_3">
     <g id="line2d_11">
      <g>
       <use style="stroke:#000000;stroke-width:0.8;" x="57.6" xlink:href="#m3e1ea9873b" y="222.152939"/>
      </g>
     </g>
     <g id="text_12">
      <!-- 200 -->
      <g transform="translate(31.5125 225.952158)scale(0.1 -0.1)">
       <use xlink:href="#DejaVuSans-50"/>
       <use x="63.623047" xlink:href="#DejaVuSans-48"/>
       <use x="127.246094" xlink:href="#DejaVuSans-48"/>
      </g>
     </g>
    </g>
    <g id="ytick_4">
     <g id="line2d_12">
      <g>
       <use style="stroke:#000000;stroke-width:0.8;" x="57.6" xlink:href="#m3e1ea9873b" y="185.424194"/>
      </g>
     </g>
     <g id="text_13">
      <!-- 300 -->
      <g transform="translate(31.5125 189.223413)scale(0.1 -0.1)">
       <defs>
        <path d="M 40.578125 39.3125 
Q 47.65625 37.796875 51.625 33 
Q 55.609375 28.21875 55.609375 21.1875 
Q 55.609375 10.40625 48.1875 4.484375 
Q 40.765625 -1.421875 27.09375 -1.421875 
Q 22.515625 -1.421875 17.65625 -0.515625 
Q 12.796875 0.390625 7.625 2.203125 
L 7.625 11.71875 
Q 11.71875 9.328125 16.59375 8.109375 
Q 21.484375 6.890625 26.8125 6.890625 
Q 36.078125 6.890625 40.9375 10.546875 
Q 45.796875 14.203125 45.796875 21.1875 
Q 45.796875 27.640625 41.28125 31.265625 
Q 36.765625 34.90625 28.71875 34.90625 
L 20.21875 34.90625 
L 20.21875 43.015625 
L 29.109375 43.015625 
Q 36.375 43.015625 40.234375 45.921875 
Q 44.09375 48.828125 44.09375 54.296875 
Q 44.09375 59.90625 40.109375 62.90625 
Q 36.140625 65.921875 28.71875 65.921875 
Q 24.65625 65.921875 20.015625 65.03125 
Q 15.375 64.15625 9.8125 62.3125 
L 9.8125 71.09375 
Q 15.4375 72.65625 20.34375 73.4375 
Q 25.25 74.21875 29.59375 74.21875 
Q 40.828125 74.21875 47.359375 69.109375 
Q 53.90625 64.015625 53.90625 55.328125 
Q 53.90625 49.265625 50.4375 45.09375 
Q 46.96875 40.921875 40.578125 39.3125 
z
" id="DejaVuSans-51"/>
       </defs>
       <use xlink:href="#DejaVuSans-51"/>
       <use x="63.623047" xlink:href="#DejaVuSans-48"/>
       <use x="127.246094" xlink:href="#DejaVuSans-48"/>
      </g>
     </g>
    </g>
    <g id="ytick_5">
     <g id="line2d_13">
      <g>
       <use style="stroke:#000000;stroke-width:0.8;" x="57.6" xlink:href="#m3e1ea9873b" y="148.695449"/>
      </g>
     </g>
     <g id="text_14">
      <!-- 400 -->
      <g transform="translate(31.5125 152.494668)scale(0.1 -0.1)">
       <defs>
        <path d="M 37.796875 64.3125 
L 12.890625 25.390625 
L 37.796875 25.390625 
z
M 35.203125 72.90625 
L 47.609375 72.90625 
L 47.609375 25.390625 
L 58.015625 25.390625 
L 58.015625 17.1875 
L 47.609375 17.1875 
L 47.609375 0 
L 37.796875 0 
L 37.796875 17.1875 
L 4.890625 17.1875 
L 4.890625 26.703125 
z
" id="DejaVuSans-52"/>
       </defs>
       <use xlink:href="#DejaVuSans-52"/>
       <use x="63.623047" xlink:href="#DejaVuSans-48"/>
       <use x="127.246094" xlink:href="#DejaVuSans-48"/>
      </g>
     </g>
    </g>
    <g id="ytick_6">
     <g id="line2d_14">
      <g>
       <use style="stroke:#000000;stroke-width:0.8;" x="57.6" xlink:href="#m3e1ea9873b" y="111.966704"/>
      </g>
     </g>
     <g id="text_15">
      <!-- 500 -->
      <g transform="translate(31.5125 115.765923)scale(0.1 -0.1)">
       <use xlink:href="#DejaVuSans-53"/>
       <use x="63.623047" xlink:href="#DejaVuSans-48"/>
       <use x="127.246094" xlink:href="#DejaVuSans-48"/>
      </g>
     </g>
    </g>
    <g id="ytick_7">
     <g id="line2d_15">
      <g>
       <use style="stroke:#000000;stroke-width:0.8;" x="57.6" xlink:href="#m3e1ea9873b" y="75.23796"/>
      </g>
     </g>
     <g id="text_16">
      <!-- 600 -->
      <g transform="translate(31.5125 79.037178)scale(0.1 -0.1)">
       <defs>
        <path d="M 33.015625 40.375 
Q 26.375 40.375 22.484375 35.828125 
Q 18.609375 31.296875 18.609375 23.390625 
Q 18.609375 15.53125 22.484375 10.953125 
Q 26.375 6.390625 33.015625 6.390625 
Q 39.65625 6.390625 43.53125 10.953125 
Q 47.40625 15.53125 47.40625 23.390625 
Q 47.40625 31.296875 43.53125 35.828125 
Q 39.65625 40.375 33.015625 40.375 
z
M 52.59375 71.296875 
L 52.59375 62.3125 
Q 48.875 64.0625 45.09375 64.984375 
Q 41.3125 65.921875 37.59375 65.921875 
Q 27.828125 65.921875 22.671875 59.328125 
Q 17.53125 52.734375 16.796875 39.40625 
Q 19.671875 43.65625 24.015625 45.921875 
Q 28.375 48.1875 33.59375 48.1875 
Q 44.578125 48.1875 50.953125 41.515625 
Q 57.328125 34.859375 57.328125 23.390625 
Q 57.328125 12.15625 50.6875 5.359375 
Q 44.046875 -1.421875 33.015625 -1.421875 
Q 20.359375 -1.421875 13.671875 8.265625 
Q 6.984375 17.96875 6.984375 36.375 
Q 6.984375 53.65625 15.1875 63.9375 
Q 23.390625 74.21875 37.203125 74.21875 
Q 40.921875 74.21875 44.703125 73.484375 
Q 48.484375 72.75 52.59375 71.296875 
z
" id="DejaVuSans-54"/>
       </defs>
       <use xlink:href="#DejaVuSans-54"/>
       <use x="63.623047" xlink:href="#DejaVuSans-48"/>
       <use x="127.246094" xlink:href="#DejaVuSans-48"/>
      </g>
     </g>
    </g>
    <g id="text_17">
     <!-- Retransmission_night[dimensionless] -->
     <g transform="translate(25.154687 267.631125)rotate(-90)scale(0.1 -0.1)">
      <defs>
       <path d="M 44.390625 34.1875 
Q 47.5625 33.109375 50.5625 29.59375 
Q 53.5625 26.078125 56.59375 19.921875 
L 66.609375 0 
L 56 0 
L 46.6875 18.703125 
Q 43.0625 26.03125 39.671875 28.421875 
Q 36.28125 30.8125 30.421875 30.8125 
L 19.671875 30.8125 
L 19.671875 0 
L 9.8125 0 
L 9.8125 72.90625 
L 32.078125 72.90625 
Q 44.578125 72.90625 50.734375 67.671875 
Q 56.890625 62.453125 56.890625 51.90625 
Q 56.890625 45.015625 53.6875 40.46875 
Q 50.484375 35.9375 44.390625 34.1875 
z
M 19.671875 64.796875 
L 19.671875 38.921875 
L 32.078125 38.921875 
Q 39.203125 38.921875 42.84375 42.21875 
Q 46.484375 45.515625 46.484375 51.90625 
Q 46.484375 58.296875 42.84375 61.546875 
Q 39.203125 64.796875 32.078125 64.796875 
z
" id="DejaVuSans-82"/>
       <path d="M 44.28125 53.078125 
L 44.28125 44.578125 
Q 40.484375 46.53125 36.375 47.5 
Q 32.28125 48.484375 27.875 48.484375 
Q 21.1875 48.484375 17.84375 46.4375 
Q 14.5 44.390625 14.5 40.28125 
Q 14.5 37.15625 16.890625 35.375 
Q 19.28125 33.59375 26.515625 31.984375 
L 29.59375 31.296875 
Q 39.15625 29.25 43.1875 25.515625 
Q 47.21875 21.78125 47.21875 15.09375 
Q 47.21875 7.46875 41.1875 3.015625 
Q 35.15625 -1.421875 24.609375 -1.421875 
Q 20.21875 -1.421875 15.453125 -0.5625 
Q 10.6875 0.296875 5.421875 2 
L 5.421875 11.28125 
Q 10.40625 8.6875 15.234375 7.390625 
Q 20.0625 6.109375 24.8125 6.109375 
Q 31.15625 6.109375 34.5625 8.28125 
Q 37.984375 10.453125 37.984375 14.40625 
Q 37.984375 18.0625 35.515625 20.015625 
Q 33.0625 21.96875 24.703125 23.78125 
L 21.578125 24.515625 
Q 13.234375 26.265625 9.515625 29.90625 
Q 5.8125 33.546875 5.8125 39.890625 
Q 5.8125 47.609375 11.28125 51.796875 
Q 16.75 56 26.8125 56 
Q 31.78125 56 36.171875 55.265625 
Q 40.578125 54.546875 44.28125 53.078125 
z
" id="DejaVuSans-115"/>
       <path d="M 9.421875 54.6875 
L 18.40625 54.6875 
L 18.40625 0 
L 9.421875 0 
z
M 9.421875 75.984375 
L 18.40625 75.984375 
L 18.40625 64.59375 
L 9.421875 64.59375 
z
" id="DejaVuSans-105"/>
       <path d="M 50.984375 -16.609375 
L 50.984375 -23.578125 
L -0.984375 -23.578125 
L -0.984375 -16.609375 
z
" id="DejaVuSans-95"/>
       <path d="M 45.40625 27.984375 
Q 45.40625 37.75 41.375 43.109375 
Q 37.359375 48.484375 30.078125 48.484375 
Q 22.859375 48.484375 18.828125 43.109375 
Q 14.796875 37.75 14.796875 27.984375 
Q 14.796875 18.265625 18.828125 12.890625 
Q 22.859375 7.515625 30.078125 7.515625 
Q 37.359375 7.515625 41.375 12.890625 
Q 45.40625 18.265625 45.40625 27.984375 
z
M 54.390625 6.78125 
Q 54.390625 -7.171875 48.1875 -13.984375 
Q 42 -20.796875 29.203125 -20.796875 
Q 24.46875 -20.796875 20.265625 -20.09375 
Q 16.0625 -19.390625 12.109375 -17.921875 
L 12.109375 -9.1875 
Q 16.0625 -11.328125 19.921875 -12.34375 
Q 23.78125 -13.375 27.78125 -13.375 
Q 36.625 -13.375 41.015625 -8.765625 
Q 45.40625 -4.15625 45.40625 5.171875 
L 45.40625 9.625 
Q 42.625 4.78125 38.28125 2.390625 
Q 33.9375 0 27.875 0 
Q 17.828125 0 11.671875 7.65625 
Q 5.515625 15.328125 5.515625 27.984375 
Q 5.515625 40.671875 11.671875 48.328125 
Q 17.828125 56 27.875 56 
Q 33.9375 56 38.28125 53.609375 
Q 42.625 51.21875 45.40625 46.390625 
L 45.40625 54.6875 
L 54.390625 54.6875 
z
" id="DejaVuSans-103"/>
       <path d="M 8.59375 75.984375 
L 29.296875 75.984375 
L 29.296875 69 
L 17.578125 69 
L 17.578125 -6.203125 
L 29.296875 -6.203125 
L 29.296875 -13.1875 
L 8.59375 -13.1875 
z
" id="DejaVuSans-91"/>
       <path d="M 45.40625 46.390625 
L 45.40625 75.984375 
L 54.390625 75.984375 
L 54.390625 0 
L 45.40625 0 
L 45.40625 8.203125 
Q 42.578125 3.328125 38.25 0.953125 
Q 33.9375 -1.421875 27.875 -1.421875 
Q 17.96875 -1.421875 11.734375 6.484375 
Q 5.515625 14.40625 5.515625 27.296875 
Q 5.515625 40.1875 11.734375 48.09375 
Q 17.96875 56 27.875 56 
Q 33.9375 56 38.25 53.625 
Q 42.578125 51.265625 45.40625 46.390625 
z
M 14.796875 27.296875 
Q 14.796875 17.390625 18.875 11.75 
Q 22.953125 6.109375 30.078125 6.109375 
Q 37.203125 6.109375 41.296875 11.75 
Q 45.40625 17.390625 45.40625 27.296875 
Q 45.40625 37.203125 41.296875 42.84375 
Q 37.203125 48.484375 30.078125 48.484375 
Q 22.953125 48.484375 18.875 42.84375 
Q 14.796875 37.203125 14.796875 27.296875 
z
" id="DejaVuSans-100"/>
       <path d="M 9.421875 75.984375 
L 18.40625 75.984375 
L 18.40625 0 
L 9.421875 0 
z
" id="DejaVuSans-108"/>
       <path d="M 30.421875 75.984375 
L 30.421875 -13.1875 
L 9.71875 -13.1875 
L 9.71875 -6.203125 
L 21.390625 -6.203125 
L 21.390625 69 
L 9.71875 69 
L 9.71875 75.984375 
z
" id="DejaVuSans-93"/>
      </defs>
      <use xlink:href="#DejaVuSans-82"/>
      <use x="64.982422" xlink:href="#DejaVuSans-101"/>
      <use x="126.505859" xlink:href="#DejaVuSans-116"/>
      <use x="165.714844" xlink:href="#DejaVuSans-114"/>
      <use x="206.828125" xlink:href="#DejaVuSans-97"/>
      <use x="268.107422" xlink:href="#DejaVuSans-110"/>
      <use x="331.486328" xlink:href="#DejaVuSans-115"/>
      <use x="383.585938" xlink:href="#DejaVuSans-109"/>
      <use x="480.998047" xlink:href="#DejaVuSans-105"/>
      <use x="508.78125" xlink:href="#DejaVuSans-115"/>
      <use x="560.880859" xlink:href="#DejaVuSans-115"/>
      <use x="612.980469" xlink:href="#DejaVuSans-105"/>
      <use x="640.763672" xlink:href="#DejaVuSans-111"/>
      <use x="701.945312" xlink:href="#DejaVuSans-110"/>
      <use x="765.324219" xlink:href="#DejaVuSans-95"/>
      <use x="815.324219" xlink:href="#DejaVuSans-110"/>
      <use x="878.703125" xlink:href="#DejaVuSans-105"/>
      <use x="906.486328" xlink:href="#DejaVuSans-103"/>
      <use x="969.962891" xlink:href="#DejaVuSans-104"/>
      <use x="1033.341797" xlink:href="#DejaVuSans-116"/>
      <use x="1072.550781" xlink:href="#DejaVuSans-91"/>
      <use x="1111.564453" xlink:href="#DejaVuSans-100"/>
      <use x="1175.041016" xlink:href="#DejaVuSans-105"/>
      <use x="1202.824219" xlink:href="#DejaVuSans-109"/>
      <use x="1300.236328" xlink:href="#DejaVuSans-101"/>
      <use x="1361.759766" xlink:href="#DejaVuSans-110"/>
      <use x="1425.138672" xlink:href="#DejaVuSans-115"/>
      <use x="1477.238281" xlink:href="#DejaVuSans-105"/>
      <use x="1505.021484" xlink:href="#DejaVuSans-111"/>
      <use x="1566.203125" xlink:href="#DejaVuSans-110"/>
      <use x="1629.582031" xlink:href="#DejaVuSans-108"/>
      <use x="1657.365234" xlink:href="#DejaVuSans-101"/>
      <use x="1718.888672" xlink:href="#DejaVuSans-115"/>
      <use x="1770.988281" xlink:href="#DejaVuSans-115"/>
      <use x="1823.087891" xlink:href="#DejaVuSans-93"/>
     </g>
    </g>
   </g>
   <g id="line2d_16">
    <path clip-path="url(#pe6a1cca6a6)" d="M 73.832727 201.401198 
L 75.26529 176.731725 
L 77.235064 169.998121 
L 79.025767 171.5897 
L 79.562978 134.187595 
L 80.27926 213.705328 
L 80.45833 175.629862 
L 80.995541 177.894802 
L 82.069963 168.345328 
L 82.607174 228.274397 
L 83.144385 160.326219 
L 83.323456 188.362494 
L 83.860667 210.583385 
L 84.576948 189.586785 
L 85.114159 168.528972 
L 85.830441 246.149053 
L 86.367652 232.314559 
L 87.442074 185.424194 
L 89.411848 259.004113 
L 92.814184 224.846381 
L 93.172325 182.118607 
L 96.574662 221.969296 
L 98.007225 245.218591 
L 98.365365 218.786138 
L 99.260717 251.413506 
L 99.797928 257.779822 
L 101.051421 190.443789 
L 105.170039 160.938364 
L 106.244461 156.286057 
L 108.035164 161.795368 
L 108.751446 273.450753 
L 109.288657 209.84881 
L 110.004938 262.921846 
L 111.258431 249.944356 
L 116.2724 195.340955 
L 117.884033 153.592615 
L 120.749159 225.196178 
L 121.465441 207.951158 
L 122.002652 155.79634 
L 122.360792 158.73464 
L 122.718933 165.66413 
L 123.256144 150.776745 
L 123.614285 187.260632 
L 123.972425 160.265004 
L 124.151496 233.906138 
L 124.330566 171.099984 
L 124.509636 184.322332 
L 124.688707 184.934478 
L 125.225918 215.419336 
L 125.404988 180.2297 
L 125.584059 167.720939 
L 126.12127 166.141603 
L 127.016621 221.142899 
L 127.195692 173.303709 
L 127.374762 175.017717 
L 127.553832 185.864939 
L 127.911973 147.838445 
L 128.449184 225.580955 
L 128.628255 157.632777 
L 130.239888 236.844437 
L 130.418958 184.689619 
L 130.598028 165.407028 
L 130.956169 199.748405 
L 131.135239 178.445733 
L 131.31431 198.524113 
L 132.030591 184.934478 
L 132.567802 207.828729 
L 132.746873 163.876664 
L 132.925943 223.744518 
L 133.105013 205.257717 
L 133.284084 228.519255 
L 133.821295 204.890429 
L 134.716646 200.605409 
L 134.895717 195.953101 
L 135.253857 144.532858 
L 135.611998 195.708243 
L 136.32828 185.424194 
L 136.50735 166.692534 
L 136.68642 204.821563 
L 136.865491 213.827757 
L 137.044561 201.95213 
L 137.760842 197.361036 
L 138.118983 173.817911 
L 138.298053 195.891887 
L 138.656194 162.713587 
L 138.835265 218.112777 
L 139.014335 176.119579 
L 139.551546 159.4937 
L 139.730616 193.382089 
L 139.909687 288.999255 
L 140.267827 160.310915 
L 140.446898 166.692534 
L 140.625968 161.183223 
L 140.805038 238.558445 
L 140.984109 152.368324 
L 141.52132 254.229377 
L 141.87946 171.099984 
L 142.058531 185.056907 
L 142.416672 158.428567 
L 142.595742 180.098526 
L 142.774812 181.75132 
L 142.953883 184.444761 
L 143.312023 184.322332 
L 143.491094 156.041198 
L 143.849234 190.076502 
L 144.386445 213.888972 
L 144.565516 248.597636 
L 144.744586 193.198445 
L 144.923656 196.19796 
L 145.460867 229.498688 
L 145.639938 166.774154 
L 145.819008 188.729781 
L 145.998079 166.472162 
L 146.177149 199.748405 
L 146.53529 53.568 
L 146.89343 184.322332 
L 147.251571 188.362494 
L 147.430641 192.035368 
L 147.788782 217.827109 
L 147.967852 214.562332 
L 148.146923 186.158769 
L 148.325993 193.137231 
L 148.505063 183.832615 
L 148.684134 199.809619 
L 148.863204 193.994235 
L 149.042274 159.040713 
L 149.400415 157.064356 
L 149.579486 164.826714 
L 149.758556 222.446769 
L 149.937626 157.216518 
L 150.116697 196.901927 
L 150.295767 173.181279 
L 150.474837 185.828211 
L 150.653908 180.220955 
L 150.832978 185.669053 
L 151.012048 122.373182 
L 151.191119 234.518283 
L 151.549259 159.989538 
L 151.9074 233.53885 
L 152.08647 154.939336 
L 152.265541 193.320874 
L 152.444611 203.176421 
L 152.623681 173.181279 
L 152.802752 201.479903 
L 152.981822 187.383061 
L 153.160893 221.540794 
L 153.698104 155.633101 
L 154.056244 184.138688 
L 154.235315 190.198931 
L 154.414385 165.100955 
L 154.772526 237.334154 
L 154.951596 193.504518 
L 155.309737 213.705328 
L 155.667877 172.201846 
L 155.846948 178.81302 
L 156.026018 171.71213 
L 156.205089 198.768972 
L 156.384159 169.569619 
L 156.563229 196.259174 
L 156.7423 201.95213 
L 157.10044 223.622089 
L 157.279511 204.278283 
L 157.637651 244.863547 
L 157.995792 174.160713 
L 158.174862 210.277312 
L 158.353933 127.760065 
L 158.712073 232.620632 
L 158.891144 242.721036 
L 159.070214 199.472939 
L 159.249284 193.306748 
L 159.428355 211.501603 
L 159.786496 161.979012 
L 159.965566 179.425166 
L 160.144636 210.307919 
L 160.323707 218.153587 
L 160.502777 205.665814 
L 160.860918 203.867271 
L 161.219058 184.322332 
L 161.577199 233.691887 
L 161.93534 154.32719 
L 162.29348 197.177393 
L 162.472551 179.486381 
L 162.651621 187.664648 
L 162.830691 227.723466 
L 163.188832 246.026623 
L 163.367903 178.364113 
L 163.546973 198.646543 
L 163.726043 206.02902 
L 164.084184 213.582899 
L 164.263254 172.018202 
L 164.800465 229.743547 
L 164.979536 212.236178 
L 165.158606 257.646263 
L 165.337676 200.48298 
L 165.516747 227.172534 
L 165.695817 167.794397 
L 165.874887 253.617231 
L 166.053958 198.095611 
L 166.233028 212.741198 
L 166.412098 186.362818 
L 166.591169 206.800324 
L 166.770239 186.03634 
L 166.94931 129.84136 
L 167.30745 239.048162 
L 167.486521 209.297879 
L 167.665591 243.455611 
L 167.844661 253.249943 
L 168.202802 194.422737 
L 168.381872 186.1063 
L 168.560943 192.892372 
L 168.740013 252.760227 
L 169.098154 188.305988 
L 169.277224 190.40298 
L 169.456294 162.897231 
L 169.814435 236.844437 
L 169.993505 233.049134 
L 170.172576 234.346883 
L 170.351646 249.087352 
L 170.709787 295.426785 
L 170.888857 234.740882 
L 171.067928 233.416421 
L 171.246998 263.472777 
L 171.426068 175.20136 
L 171.605139 264.880713 
L 171.784209 230.600551 
L 171.963279 248.230348 
L 172.14235 212.174964 
L 172.32142 208.563304 
L 172.50049 228.029538 
L 172.679561 209.297879 
L 173.037701 291.080551 
L 173.216772 195.055287 
L 173.574913 264.390996 
L 173.753983 256.55553 
L 173.933053 195.096097 
L 174.291194 210.032453 
L 174.470264 251.413506 
L 174.649335 157.418526 
L 174.828405 198.585328 
L 175.007475 165.95796 
L 175.186546 168.77383 
L 175.902827 208.930591 
L 176.081897 210.358931 
L 176.260968 220.536874 
L 176.440038 198.524113 
L 176.798179 253.960032 
L 176.977249 206.359579 
L 177.33539 175.629862 
L 177.872601 184.199903 
L 178.051671 201.447109 
L 178.230742 184.199903 
L 178.409812 202.135773 
L 178.767953 189.648 
L 179.126093 182.485895 
L 179.305164 200.074883 
L 179.484234 192.096583 
L 179.842375 150.899174 
L 180.379586 214.195045 
L 180.737727 231.212696 
L 180.916797 195.800065 
L 181.095867 200.574802 
L 181.274938 245.292049 
L 181.633078 182.118607 
L 181.812149 197.471223 
L 181.991219 227.515336 
L 182.34936 201.401198 
L 182.52843 199.01383 
L 183.065641 168.77383 
L 183.244711 195.034883 
L 183.781922 244.067757 
L 184.498204 159.07132 
L 184.677274 181.45749 
L 184.856345 181.302413 
L 185.393556 258.881684 
L 185.751696 216.784892 
L 185.930767 276.144194 
L 186.288907 215.745814 
L 186.467978 226.682818 
L 186.826118 177.649943 
L 187.005189 189.954073 
L 187.184259 158.612211 
L 187.72147 253.0663 
L 188.079611 177.38468 
L 188.258681 255.820955 
L 188.616822 203.421279 
L 188.795892 267.451725 
L 188.974963 228.947757 
L 189.154033 253.326462 
L 189.333103 170.977555 
L 189.691244 193.100502 
L 189.870314 179.914883 
L 190.049385 186.648486 
L 190.407525 147.838445 
L 190.586596 253.984518 
L 190.765666 182.886572 
L 190.944736 170.365409 
L 191.123807 146.614154 
L 191.302877 189.785733 
L 191.661018 174.160713 
L 191.840088 154.755692 
L 192.019159 158.367352 
L 192.377299 200.605409 
L 192.55637 195.058427 
L 192.73544 214.80719 
L 193.093581 193.320874 
L 193.272651 175.599255 
L 193.451721 188.803239 
L 193.630792 190.749862 
L 193.809862 183.22047 
L 193.988932 238.680874 
L 194.347073 226.927676 
L 194.526144 235.926219 
L 194.884284 183.648972 
L 195.063355 200.115692 
L 195.421495 159.438607 
L 195.779636 181.384032 
L 195.958706 212.03584 
L 196.316847 175.507433 
L 196.495917 176.609296 
L 196.674988 255.147595 
L 197.212199 193.443304 
L 197.92848 169.875692 
L 198.286621 169.324761 
L 198.644762 245.567514 
L 198.823832 186.342413 
L 199.181973 229.452777 
L 199.361043 213.521684 
L 199.540113 166.398704 
L 199.719184 185.424194 
L 200.435465 179.670024 
L 200.793606 183.955045 
L 200.972676 175.752291 
L 201.330817 247.373344 
L 201.509887 196.320389 
L 201.688958 221.234721 
L 201.868028 174.405571 
L 202.047098 169.924664 
L 202.226169 206.726866 
L 202.405239 162.468729 
L 203.300591 253.005085 
L 203.479661 150.440065 
L 203.658731 189.537814 
L 203.837802 199.381117 
L 204.195942 212.309636 
L 204.375013 190.566219 
L 204.554083 224.723951 
L 204.912224 177.405085 
L 205.270365 191.953749 
L 205.449435 193.137231 
L 205.807576 153.680065 
L 205.986646 230.478121 
L 206.165716 175.752291 
L 206.523857 241.766089 
L 206.881998 253.494802 
L 207.598279 198.279255 
L 207.777349 199.075045 
L 207.95642 259.432615 
L 208.13549 225.030024 
L 208.31456 246.149053 
L 208.493631 176.486866 
L 208.851772 249.240389 
L 209.926194 198.891401 
L 210.105264 146.981441 
L 210.284334 166.922089 
L 210.463405 237.170915 
L 210.642475 182.179822 
L 211.000616 196.932534 
L 211.358756 231.212696 
L 211.716897 250.80136 
L 212.254108 202.613247 
L 212.433179 163.754235 
L 212.612249 167.427109 
L 212.791319 216.031482 
L 212.97039 234.163239 
L 213.14946 216.643628 
L 213.32853 172.201846 
L 213.686671 251.535935 
L 214.044812 201.447109 
L 214.223882 235.865004 
L 214.402952 195.912291 
L 214.582023 240.272453 
L 214.761093 182.404275 
L 215.119234 177.114316 
L 215.298304 208.134802 
L 215.656445 228.519255 
L 215.835515 180.722915 
L 216.193656 238.068729 
L 216.372726 187.566704 
L 216.551797 244.435045 
L 216.730867 158.000065 
L 216.909937 188.97464 
L 217.089008 180.006704 
L 217.447148 250.030057 
L 217.626219 160.815935 
L 217.805289 240.639741 
L 217.984359 205.992291 
L 218.16343 200.666623 
L 218.3425 239.170591 
L 218.52157 212.521846 
L 218.700641 167.574024 
L 218.879711 192.157798 
L 219.058782 157.020632 
L 219.416922 228.519255 
L 219.775063 208.134802 
L 219.954133 243.088324 
L 220.133204 199.625976 
L 220.312274 193.382089 
L 220.670415 233.906138 
L 220.849485 235.081457 
L 221.028555 177.956016 
L 221.386696 161.734154 
L 221.565766 178.200874 
L 221.923907 139.390834 
L 222.102977 225.580955 
L 222.282048 218.031158 
L 222.461118 195.083854 
L 222.640189 251.535935 
L 223.1774 165.468243 
L 223.893681 241.251887 
L 224.072751 192.953587 
L 224.251822 243.455611 
L 224.430892 202.686704 
L 224.609962 207.645085 
L 224.789033 242.047676 
L 224.968103 199.30766 
L 225.326244 260.16719 
L 225.505314 228.151968 
L 225.684384 273.068162 
L 225.863455 215.633587 
L 226.221596 243.288662 
L 226.400666 292.67213 
L 226.579736 136.207676 
L 226.758807 179.057879 
L 227.296018 240.150024 
L 227.833229 190.443789 
L 228.37044 243.822899 
L 228.54951 192.525085 
L 228.72858 178.935449 
L 229.086721 202.013344 
L 229.265792 180.465814 
L 229.803003 192.861765 
L 229.982073 217.478372 
L 230.877425 203.421279 
L 231.056495 163.264518 
L 231.414636 240.272453 
L 231.593706 213.33804 
L 231.772776 253.494802 
L 232.489058 134.003951 
L 232.668128 176.168551 
L 232.847199 180.894316 
L 233.205339 248.107919 
L 233.38441 178.751806 
L 233.74255 223.097393 
L 233.921621 170.365409 
L 234.100691 246.51634 
L 234.279761 243.896356 
L 234.458832 187.056583 
L 234.816972 256.127028 
L 234.996043 181.68454 
L 236.070465 229.621117 
L 236.249535 214.761279 
L 236.428606 244.524084 
L 236.607676 225.887028 
L 236.786746 274.261846 
L 237.144887 207.58387 
L 237.323957 200.238121 
L 237.503028 263.769433 
L 237.682098 270.022737 
L 237.861168 268.431158 
L 238.040239 191.545652 
L 238.398379 225.580955 
L 238.57745 230.453636 
L 238.75652 196.442818 
L 239.114661 172.201846 
L 239.293731 187.076988 
L 239.651872 269.257555 
L 240.189083 211.746462 
L 240.547224 261.207838 
L 240.726294 211.746462 
L 240.905364 197.636502 
L 241.084435 284.591806 
L 241.621646 154.694478 
L 241.979786 207.543061 
L 242.158857 251.903223 
L 242.516997 217.867919 
L 242.696068 246.944842 
L 243.412349 241.153943 
L 243.59142 209.979984 
L 243.94956 206.665652 
L 244.307701 227.662251 
L 244.486771 166.080389 
L 244.665842 253.494802 
L 245.023982 157.26549 
L 245.740264 277.123628 
L 245.919334 224.356664 
L 246.277475 204.523142 
L 246.635616 163.570591 
L 246.814686 241.251887 
L 246.993756 198.156826 
L 247.889108 168.406543 
L 248.247249 280.000713 
L 248.78446 175.078931 
L 248.96353 182.485895 
L 249.1426 259.126543 
L 249.321671 178.690591 
L 249.500741 249.909377 
L 249.679811 186.403628 
L 249.858882 222.667142 
L 250.037952 209.05302 
L 250.217023 128.249781 
L 250.933304 143.27796 
L 251.112374 179.080138 
L 251.470515 188.97464 
L 252.365867 147.2263 
L 252.544937 147.042656 
L 252.724007 178.935449 
L 253.082148 202.24596 
L 253.9775 186.617879 
L 254.15657 191.055935 
L 254.335641 150.04217 
L 254.514711 181.261603 
L 255.230992 194.973668 
L 255.947274 176.976583 
L 256.126344 161.428081 
L 256.305414 202.809134 
L 256.484485 200.727838 
L 256.842625 141.716988 
L 257.200766 264.146138 
L 257.737977 205.012858 
L 257.917048 203.094802 
L 258.096118 246.026623 
L 258.454259 223.132372 
L 258.633329 236.844437 
L 258.812399 165.83553 
L 258.99147 173.487352 
L 259.528681 191.178364 
L 259.707751 181.016745 
L 260.065892 142.206704 
L 260.603103 225.580955 
L 261.140314 157.877636 
L 261.498455 253.73966 
L 261.856595 162.897231 
L 262.214736 203.053992 
L 262.751947 168.957474 
L 262.931017 221.69383 
L 263.289158 185.36298 
L 263.647299 171.5897 
L 263.826369 223.307271 
L 264.36358 102.784518 
L 264.542651 166.692534 
L 264.721721 161.183223 
L 265.079862 180.894316 
L 265.438002 167.610753 
L 265.617073 174.079093 
L 265.796143 193.912615 
L 265.975213 195.585814 
L 266.154284 149.430024 
L 266.333354 153.837474 
L 266.512424 295.243142 
L 266.691495 184.689619 
L 266.870565 188.607352 
L 267.228706 148.328162 
L 267.407776 236.109862 
L 267.765917 214.684761 
L 267.944987 171.099984 
L 268.303128 182.363466 
L 269.19848 204.155854 
L 269.55662 202.739174 
L 270.272902 136.574964 
L 270.631042 135.656745 
L 270.810113 192.402656 
L 270.989183 203.176421 
L 271.705465 203.910996 
L 271.884535 246.944842 
L 272.421746 217.168324 
L 272.600816 274.766866 
L 272.958957 211.379174 
L 273.138027 145.022575 
L 273.496168 220.194073 
L 273.675238 165.100955 
L 273.854309 181.75132 
L 274.57059 209.104569 
L 274.928731 170.059336 
L 275.465942 165.95796 
L 276.003153 166.447676 
L 276.540364 170.732696 
L 276.898505 155.918769 
L 277.077575 116.19051 
L 277.435716 148.695449 
L 277.614786 190.811077 
L 277.972927 138.288972 
L 278.868279 161.917798 
L 279.047349 200.360551 
L 279.40549 129.229215 
L 280.658982 191.178364 
L 281.017123 183.955045 
L 284.061319 160.815935 
L 284.419459 295.488 
L 284.7776 176.242008 
L 285.672952 140.247838 
L 286.031093 189.341927 
L 287.105515 86.501441 
L 287.284585 294.141279 
L 287.821796 149.185166 
L 288.359007 158.489781 
L 288.717148 190.32136 
L 288.896218 293.651563 
L 289.6125 294.875854 
L 290.149711 294.875854 
L 290.328781 191.11715 
L 290.507851 184.322332 
L 291.761344 239.782737 
L 292.298555 169.263547 
L 292.835766 159.346785 
L 293.372977 247.250915 
L 293.552047 190.566219 
L 293.731118 55.588081 
L 293.910188 147.10387 
L 295.16368 181.567676 
L 295.879962 174.283142 
L 296.775314 253.372372 
L 297.670665 250.678931 
L 298.028806 194.361522 
L 298.386947 171.283628 
L 299.103228 172.621603 
L 299.461369 170.181765 
L 300.17765 145.389862 
L 301.073002 268.920874 
L 301.252072 186.526057 
L 301.789283 248.781279 
L 302.684635 238.864518 
L 302.863706 246.577555 
L 303.042776 159.469215 
L 304.296268 244.924761 
L 304.475339 176.425652 
L 304.833479 209.444794 
L 305.37069 168.345328 
L 305.728831 277.4297 
L 305.907902 224.96881 
L 307.161394 209.518251 
L 308.235816 211.746462 
L 308.773027 221.969296 
L 309.131168 256.163757 
L 309.489309 167.610753 
L 309.847449 180.924923 
L 310.02652 148.205733 
L 310.563731 238.680874 
L 310.742801 248.964923 
L 311.817223 212.970753 
L 313.249786 133.269377 
L 314.145138 254.106947 
L 315.040489 258.606219 
L 315.21956 167.549538 
L 315.39863 180.649457 
L 316.114911 266.594721 
L 316.831193 265.003142 
L 317.189334 189.831644 
L 317.726545 138.778688 
L 318.442826 189.831644 
L 318.800967 157.632777 
L 318.980037 254.229377 
L 319.338178 255.086381 
L 322.740514 184.322332 
L 324.531218 216.766057 
L 330.261469 184.077474 
L 334.559158 147.2263 
L 334.738228 150.899174 
L 338.319635 159.897717 
L 345.482449 169.630834 
L 347.094082 182.118607 
L 353.898755 190.566219 
L 354.435967 183.22047 
L 357.838303 183.710186 
L 367.149961 181.016745 
L 368.582524 204.155854 
L 373.059283 195.218526 
L 378.073253 167.794397 
L 394.726795 200.605409 
L 397.23378 188.362494 
L 398.487273 147.777231 
L 398.487273 147.777231 
" style="fill:none;stroke:#0000ff;stroke-linecap:square;stroke-width:1.5;"/>
   </g>
   <g id="patch_3">
    <path d="M 57.6 307.584 
L 57.6 41.472 
" style="fill:none;stroke:#000000;stroke-linecap:square;stroke-linejoin:miter;stroke-width:0.8;"/>
   </g>
   <g id="patch_4">
    <path d="M 414.72 307.584 
L 414.72 41.472 
" style="fill:none;stroke:#000000;stroke-linecap:square;stroke-linejoin:miter;stroke-width:0.8;"/>
   </g>
   <g id="patch_5">
    <path d="M 57.6 307.584 
L 414.72 307.584 
" style="fill:none;stroke:#000000;stroke-linecap:square;stroke-linejoin:miter;stroke-width:0.8;"/>
   </g>
   <g id="patch_6">
    <path d="M 57.6 41.472 
L 414.72 41.472 
" style="fill:none;stroke:#000000;stroke-linecap:square;stroke-linejoin:miter;stroke-width:0.8;"/>
   </g>
   <g id="text_18">
    <!-- temperature-&gt;Retransmission_night -->
    <g transform="translate(126.905625 35.472)scale(0.12 -0.12)">
     <defs>
      <path d="M 4.890625 31.390625 
L 31.203125 31.390625 
L 31.203125 23.390625 
L 4.890625 23.390625 
z
" id="DejaVuSans-45"/>
      <path d="M 10.59375 49.21875 
L 10.59375 58.109375 
L 73.1875 35.40625 
L 73.1875 27.296875 
L 10.59375 4.59375 
L 10.59375 13.484375 
L 60.890625 31.296875 
z
" id="DejaVuSans-62"/>
     </defs>
     <use xlink:href="#DejaVuSans-116"/>
     <use x="39.208984" xlink:href="#DejaVuSans-101"/>
     <use x="100.732422" xlink:href="#DejaVuSans-109"/>
     <use x="198.144531" xlink:href="#DejaVuSans-112"/>
     <use x="261.621094" xlink:href="#DejaVuSans-101"/>
     <use x="323.144531" xlink:href="#DejaVuSans-114"/>
     <use x="364.257812" xlink:href="#DejaVuSans-97"/>
     <use x="425.537109" xlink:href="#DejaVuSans-116"/>
     <use x="464.746094" xlink:href="#DejaVuSans-117"/>
     <use x="528.125" xlink:href="#DejaVuSans-114"/>
     <use x="566.988281" xlink:href="#DejaVuSans-101"/>
     <use x="628.511719" xlink:href="#DejaVuSans-45"/>
     <use x="664.595703" xlink:href="#DejaVuSans-62"/>
     <use x="748.384766" xlink:href="#DejaVuSans-82"/>
     <use x="813.367188" xlink:href="#DejaVuSans-101"/>
     <use x="874.890625" xlink:href="#DejaVuSans-116"/>
     <use x="914.099609" xlink:href="#DejaVuSans-114"/>
     <use x="955.212891" xlink:href="#DejaVuSans-97"/>
     <use x="1016.492188" xlink:href="#DejaVuSans-110"/>
     <use x="1079.871094" xlink:href="#DejaVuSans-115"/>
     <use x="1131.970703" xlink:href="#DejaVuSans-109"/>
     <use x="1229.382812" xlink:href="#DejaVuSans-105"/>
     <use x="1257.166016" xlink:href="#DejaVuSans-115"/>
     <use x="1309.265625" xlink:href="#DejaVuSans-115"/>
     <use x="1361.365234" xlink:href="#DejaVuSans-105"/>
     <use x="1389.148438" xlink:href="#DejaVuSans-111"/>
     <use x="1450.330078" xlink:href="#DejaVuSans-110"/>
     <use x="1513.708984" xlink:href="#DejaVuSans-95"/>
     <use x="1563.708984" xlink:href="#DejaVuSans-110"/>
     <use x="1627.087891" xlink:href="#DejaVuSans-105"/>
     <use x="1654.871094" xlink:href="#DejaVuSans-103"/>
     <use x="1718.347656" xlink:href="#DejaVuSans-104"/>
     <use x="1781.726562" xlink:href="#DejaVuSans-116"/>
    </g>
   </g>
  </g>
  <g id="legend_1">
   <g id="patch_7">
    <path d="M 235.59375 22.95625 
L 453.8 22.95625 
Q 455.8 22.95625 455.8 20.95625 
L 455.8 7 
Q 455.8 5 453.8 5 
L 235.59375 5 
Q 233.59375 5 233.59375 7 
L 233.59375 20.95625 
Q 233.59375 22.95625 235.59375 22.95625 
z
" style="fill:#ffffff;opacity:0.8;stroke:#cccccc;stroke-linejoin:miter;"/>
   </g>
   <g id="line2d_17">
    <path d="M 237.59375 13.098437 
L 257.59375 13.098437 
" style="fill:none;stroke:#0000ff;stroke-linecap:square;stroke-width:1.5;"/>
   </g>
   <g id="line2d_18"/>
   <g id="text_19">
    <!-- Retransmission_night[dimensionless] -->
    <g transform="translate(265.59375 16.598437)scale(0.1 -0.1)">
     <use xlink:href="#DejaVuSans-82"/>
     <use x="64.982422" xlink:href="#DejaVuSans-101"/>
     <use x="126.505859" xlink:href="#DejaVuSans-116"/>
     <use x="165.714844" xlink:href="#DejaVuSans-114"/>
     <use x="206.828125" xlink:href="#DejaVuSans-97"/>
     <use x="268.107422" xlink:href="#DejaVuSans-110"/>
     <use x="331.486328" xlink:href="#DejaVuSans-115"/>
     <use x="383.585938" xlink:href="#DejaVuSans-109"/>
     <use x="480.998047" xlink:href="#DejaVuSans-105"/>
     <use x="508.78125" xlink:href="#DejaVuSans-115"/>
     <use x="560.880859" xlink:href="#DejaVuSans-115"/>
     <use x="612.980469" xlink:href="#DejaVuSans-105"/>
     <use x="640.763672" xlink:href="#DejaVuSans-111"/>
     <use x="701.945312" xlink:href="#DejaVuSans-110"/>
     <use x="765.324219" xlink:href="#DejaVuSans-95"/>
     <use x="815.324219" xlink:href="#DejaVuSans-110"/>
     <use x="878.703125" xlink:href="#DejaVuSans-105"/>
     <use x="906.486328" xlink:href="#DejaVuSans-103"/>
     <use x="969.962891" xlink:href="#DejaVuSans-104"/>
     <use x="1033.341797" xlink:href="#DejaVuSans-116"/>
     <use x="1072.550781" xlink:href="#DejaVuSans-91"/>
     <use x="1111.564453" xlink:href="#DejaVuSans-100"/>
     <use x="1175.041016" xlink:href="#DejaVuSans-105"/>
     <use x="1202.824219" xlink:href="#DejaVuSans-109"/>
     <use x="1300.236328" xlink:href="#DejaVuSans-101"/>
     <use x="1361.759766" xlink:href="#DejaVuSans-110"/>
     <use x="1425.138672" xlink:href="#DejaVuSans-115"/>
     <use x="1477.238281" xlink:href="#DejaVuSans-105"/>
     <use x="1505.021484" xlink:href="#DejaVuSans-111"/>
     <use x="1566.203125" xlink:href="#DejaVuSans-110"/>
     <use x="1629.582031" xlink:href="#DejaVuSans-108"/>
     <use x="1657.365234" xlink:href="#DejaVuSans-101"/>
     <use x="1718.888672" xlink:href="#DejaVuSans-115"/>
     <use x="1770.988281" xlink:href="#DejaVuSans-115"/>
     <use x="1823.087891" xlink:href="#DejaVuSans-93"/>
    </g>
   </g>
  </g>
 </g>
 <defs>
  <clipPath id="pe6a1cca6a6">
   <rect height="266.112" width="357.12" x="57.6" y="41.472"/>
  </clipPath>
 </defs>
</svg>
