<?xml version="1.0" encoding="utf-8" standalone="no"?>
<!DOCTYPE svg PUBLIC "-//W3C//DTD SVG 1.1//EN"
  "http://www.w3.org/Graphics/SVG/1.1/DTD/svg11.dtd">
<!-- Created with matplotlib (https://matplotlib.org/) -->
<svg height="345.6pt" version="1.1" viewBox="0 0 460.8 345.6" width="460.8pt" xmlns="http://www.w3.org/2000/svg" xmlns:xlink="http://www.w3.org/1999/xlink">
 <metadata>
  <rdf:RDF xmlns:cc="http://creativecommons.org/ns#" xmlns:dc="http://purl.org/dc/elements/1.1/" xmlns:rdf="http://www.w3.org/1999/02/22-rdf-syntax-ns#">
   <cc:Work>
    <dc:type rdf:resource="http://purl.org/dc/dcmitype/StillImage"/>
    <dc:date>2022-07-16T14:01:08.697060</dc:date>
    <dc:format>image/svg+xml</dc:format>
    <dc:creator>
     <cc:Agent>
      <dc:title>Matplotlib v3.3.2, https://matplotlib.org/</dc:title>
     </cc:Agent>
    </dc:creator>
   </cc:Work>
  </rdf:RDF>
 </metadata>
 <defs>
  <style type="text/css">*{stroke-linecap:butt;stroke-linejoin:round;}</style>
 </defs>
 <g id="figure_1">
  <g id="patch_1">
   <path d="M 0 345.6 
L 460.8 345.6 
L 460.8 0 
L 0 0 
z
" style="fill:#ffffff;"/>
  </g>
  <g id="axes_1">
   <g id="patch_2">
    <path d="M 57.6 307.584 
L 414.72 307.584 
L 414.72 41.472 
L 57.6 41.472 
z
" style="fill:#ffffff;"/>
   </g>
   <g id="matplotlib.axis_1">
    <g id="xtick_1">
     <g id="line2d_1">
      <defs>
       <path d="M 0 0 
L 0 3.5 
" id="ma6a2324ff7" style="stroke:#000000;stroke-width:0.8;"/>
      </defs>
      <g>
       <use style="stroke:#000000;stroke-width:0.8;" x="69.218348" xlink:href="#ma6a2324ff7" y="307.584"/>
      </g>
     </g>
     <g id="text_1">
      <!-- 0 -->
      <g transform="translate(66.037098 322.182437)scale(0.1 -0.1)">
       <defs>
        <path d="M 31.78125 66.40625 
Q 24.171875 66.40625 20.328125 58.90625 
Q 16.5 51.421875 16.5 36.375 
Q 16.5 21.390625 20.328125 13.890625 
Q 24.171875 6.390625 31.78125 6.390625 
Q 39.453125 6.390625 43.28125 13.890625 
Q 47.125 21.390625 47.125 36.375 
Q 47.125 51.421875 43.28125 58.90625 
Q 39.453125 66.40625 31.78125 66.40625 
z
M 31.78125 74.21875 
Q 44.046875 74.21875 50.515625 64.515625 
Q 56.984375 54.828125 56.984375 36.375 
Q 56.984375 17.96875 50.515625 8.265625 
Q 44.046875 -1.421875 31.78125 -1.421875 
Q 19.53125 -1.421875 13.0625 8.265625 
Q 6.59375 17.96875 6.59375 36.375 
Q 6.59375 54.828125 13.0625 64.515625 
Q 19.53125 74.21875 31.78125 74.21875 
z
" id="DejaVuSans-48"/>
       </defs>
       <use xlink:href="#DejaVuSans-48"/>
      </g>
     </g>
    </g>
    <g id="xtick_2">
     <g id="line2d_2">
      <g>
       <use style="stroke:#000000;stroke-width:0.8;" x="135.138053" xlink:href="#ma6a2324ff7" y="307.584"/>
      </g>
     </g>
     <g id="text_2">
      <!-- 2 -->
      <g transform="translate(131.956803 322.182437)scale(0.1 -0.1)">
       <defs>
        <path d="M 19.1875 8.296875 
L 53.609375 8.296875 
L 53.609375 0 
L 7.328125 0 
L 7.328125 8.296875 
Q 12.9375 14.109375 22.625 23.890625 
Q 32.328125 33.6875 34.8125 36.53125 
Q 39.546875 41.84375 41.421875 45.53125 
Q 43.3125 49.21875 43.3125 52.78125 
Q 43.3125 58.59375 39.234375 62.25 
Q 35.15625 65.921875 28.609375 65.921875 
Q 23.96875 65.921875 18.8125 64.3125 
Q 13.671875 62.703125 7.8125 59.421875 
L 7.8125 69.390625 
Q 13.765625 71.78125 18.9375 73 
Q 24.125 74.21875 28.421875 74.21875 
Q 39.75 74.21875 46.484375 68.546875 
Q 53.21875 62.890625 53.21875 53.421875 
Q 53.21875 48.921875 51.53125 44.890625 
Q 49.859375 40.875 45.40625 35.40625 
Q 44.1875 33.984375 37.640625 27.21875 
Q 31.109375 20.453125 19.1875 8.296875 
z
" id="DejaVuSans-50"/>
       </defs>
       <use xlink:href="#DejaVuSans-50"/>
      </g>
     </g>
    </g>
    <g id="xtick_3">
     <g id="line2d_3">
      <g>
       <use style="stroke:#000000;stroke-width:0.8;" x="201.057757" xlink:href="#ma6a2324ff7" y="307.584"/>
      </g>
     </g>
     <g id="text_3">
      <!-- 4 -->
      <g transform="translate(197.876507 322.182437)scale(0.1 -0.1)">
       <defs>
        <path d="M 37.796875 64.3125 
L 12.890625 25.390625 
L 37.796875 25.390625 
z
M 35.203125 72.90625 
L 47.609375 72.90625 
L 47.609375 25.390625 
L 58.015625 25.390625 
L 58.015625 17.1875 
L 47.609375 17.1875 
L 47.609375 0 
L 37.796875 0 
L 37.796875 17.1875 
L 4.890625 17.1875 
L 4.890625 26.703125 
z
" id="DejaVuSans-52"/>
       </defs>
       <use xlink:href="#DejaVuSans-52"/>
      </g>
     </g>
    </g>
    <g id="xtick_4">
     <g id="line2d_4">
      <g>
       <use style="stroke:#000000;stroke-width:0.8;" x="266.977462" xlink:href="#ma6a2324ff7" y="307.584"/>
      </g>
     </g>
     <g id="text_4">
      <!-- 6 -->
      <g transform="translate(263.796212 322.182437)scale(0.1 -0.1)">
       <defs>
        <path d="M 33.015625 40.375 
Q 26.375 40.375 22.484375 35.828125 
Q 18.609375 31.296875 18.609375 23.390625 
Q 18.609375 15.53125 22.484375 10.953125 
Q 26.375 6.390625 33.015625 6.390625 
Q 39.65625 6.390625 43.53125 10.953125 
Q 47.40625 15.53125 47.40625 23.390625 
Q 47.40625 31.296875 43.53125 35.828125 
Q 39.65625 40.375 33.015625 40.375 
z
M 52.59375 71.296875 
L 52.59375 62.3125 
Q 48.875 64.0625 45.09375 64.984375 
Q 41.3125 65.921875 37.59375 65.921875 
Q 27.828125 65.921875 22.671875 59.328125 
Q 17.53125 52.734375 16.796875 39.40625 
Q 19.671875 43.65625 24.015625 45.921875 
Q 28.375 48.1875 33.59375 48.1875 
Q 44.578125 48.1875 50.953125 41.515625 
Q 57.328125 34.859375 57.328125 23.390625 
Q 57.328125 12.15625 50.6875 5.359375 
Q 44.046875 -1.421875 33.015625 -1.421875 
Q 20.359375 -1.421875 13.671875 8.265625 
Q 6.984375 17.96875 6.984375 36.375 
Q 6.984375 53.65625 15.1875 63.9375 
Q 23.390625 74.21875 37.203125 74.21875 
Q 40.921875 74.21875 44.703125 73.484375 
Q 48.484375 72.75 52.59375 71.296875 
z
" id="DejaVuSans-54"/>
       </defs>
       <use xlink:href="#DejaVuSans-54"/>
      </g>
     </g>
    </g>
    <g id="xtick_5">
     <g id="line2d_5">
      <g>
       <use style="stroke:#000000;stroke-width:0.8;" x="332.897167" xlink:href="#ma6a2324ff7" y="307.584"/>
      </g>
     </g>
     <g id="text_5">
      <!-- 8 -->
      <g transform="translate(329.715917 322.182437)scale(0.1 -0.1)">
       <defs>
        <path d="M 31.78125 34.625 
Q 24.75 34.625 20.71875 30.859375 
Q 16.703125 27.09375 16.703125 20.515625 
Q 16.703125 13.921875 20.71875 10.15625 
Q 24.75 6.390625 31.78125 6.390625 
Q 38.8125 6.390625 42.859375 10.171875 
Q 46.921875 13.96875 46.921875 20.515625 
Q 46.921875 27.09375 42.890625 30.859375 
Q 38.875 34.625 31.78125 34.625 
z
M 21.921875 38.8125 
Q 15.578125 40.375 12.03125 44.71875 
Q 8.5 49.078125 8.5 55.328125 
Q 8.5 64.0625 14.71875 69.140625 
Q 20.953125 74.21875 31.78125 74.21875 
Q 42.671875 74.21875 48.875 69.140625 
Q 55.078125 64.0625 55.078125 55.328125 
Q 55.078125 49.078125 51.53125 44.71875 
Q 48 40.375 41.703125 38.8125 
Q 48.828125 37.15625 52.796875 32.3125 
Q 56.78125 27.484375 56.78125 20.515625 
Q 56.78125 9.90625 50.3125 4.234375 
Q 43.84375 -1.421875 31.78125 -1.421875 
Q 19.734375 -1.421875 13.25 4.234375 
Q 6.78125 9.90625 6.78125 20.515625 
Q 6.78125 27.484375 10.78125 32.3125 
Q 14.796875 37.15625 21.921875 38.8125 
z
M 18.3125 54.390625 
Q 18.3125 48.734375 21.84375 45.5625 
Q 25.390625 42.390625 31.78125 42.390625 
Q 38.140625 42.390625 41.71875 45.5625 
Q 45.3125 48.734375 45.3125 54.390625 
Q 45.3125 60.0625 41.71875 63.234375 
Q 38.140625 66.40625 31.78125 66.40625 
Q 25.390625 66.40625 21.84375 63.234375 
Q 18.3125 60.0625 18.3125 54.390625 
z
" id="DejaVuSans-56"/>
       </defs>
       <use xlink:href="#DejaVuSans-56"/>
      </g>
     </g>
    </g>
    <g id="xtick_6">
     <g id="line2d_6">
      <g>
       <use style="stroke:#000000;stroke-width:0.8;" x="398.816871" xlink:href="#ma6a2324ff7" y="307.584"/>
      </g>
     </g>
     <g id="text_6">
      <!-- 10 -->
      <g transform="translate(392.454371 322.182437)scale(0.1 -0.1)">
       <defs>
        <path d="M 12.40625 8.296875 
L 28.515625 8.296875 
L 28.515625 63.921875 
L 10.984375 60.40625 
L 10.984375 69.390625 
L 28.421875 72.90625 
L 38.28125 72.90625 
L 38.28125 8.296875 
L 54.390625 8.296875 
L 54.390625 0 
L 12.40625 0 
z
" id="DejaVuSans-49"/>
       </defs>
       <use xlink:href="#DejaVuSans-49"/>
       <use x="63.623047" xlink:href="#DejaVuSans-48"/>
      </g>
     </g>
    </g>
    <g id="text_7">
     <!-- wind_speed from OpenWeatherMap -->
     <g transform="translate(146.962344 335.860562)scale(0.1 -0.1)">
      <defs>
       <path d="M 4.203125 54.6875 
L 13.1875 54.6875 
L 24.421875 12.015625 
L 35.59375 54.6875 
L 46.1875 54.6875 
L 57.421875 12.015625 
L 68.609375 54.6875 
L 77.59375 54.6875 
L 63.28125 0 
L 52.6875 0 
L 40.921875 44.828125 
L 29.109375 0 
L 18.5 0 
z
" id="DejaVuSans-119"/>
       <path d="M 9.421875 54.6875 
L 18.40625 54.6875 
L 18.40625 0 
L 9.421875 0 
z
M 9.421875 75.984375 
L 18.40625 75.984375 
L 18.40625 64.59375 
L 9.421875 64.59375 
z
" id="DejaVuSans-105"/>
       <path d="M 54.890625 33.015625 
L 54.890625 0 
L 45.90625 0 
L 45.90625 32.71875 
Q 45.90625 40.484375 42.875 44.328125 
Q 39.84375 48.1875 33.796875 48.1875 
Q 26.515625 48.1875 22.3125 43.546875 
Q 18.109375 38.921875 18.109375 30.90625 
L 18.109375 0 
L 9.078125 0 
L 9.078125 54.6875 
L 18.109375 54.6875 
L 18.109375 46.1875 
Q 21.34375 51.125 25.703125 53.5625 
Q 30.078125 56 35.796875 56 
Q 45.21875 56 50.046875 50.171875 
Q 54.890625 44.34375 54.890625 33.015625 
z
" id="DejaVuSans-110"/>
       <path d="M 45.40625 46.390625 
L 45.40625 75.984375 
L 54.390625 75.984375 
L 54.390625 0 
L 45.40625 0 
L 45.40625 8.203125 
Q 42.578125 3.328125 38.25 0.953125 
Q 33.9375 -1.421875 27.875 -1.421875 
Q 17.96875 -1.421875 11.734375 6.484375 
Q 5.515625 14.40625 5.515625 27.296875 
Q 5.515625 40.1875 11.734375 48.09375 
Q 17.96875 56 27.875 56 
Q 33.9375 56 38.25 53.625 
Q 42.578125 51.265625 45.40625 46.390625 
z
M 14.796875 27.296875 
Q 14.796875 17.390625 18.875 11.75 
Q 22.953125 6.109375 30.078125 6.109375 
Q 37.203125 6.109375 41.296875 11.75 
Q 45.40625 17.390625 45.40625 27.296875 
Q 45.40625 37.203125 41.296875 42.84375 
Q 37.203125 48.484375 30.078125 48.484375 
Q 22.953125 48.484375 18.875 42.84375 
Q 14.796875 37.203125 14.796875 27.296875 
z
" id="DejaVuSans-100"/>
       <path d="M 50.984375 -16.609375 
L 50.984375 -23.578125 
L -0.984375 -23.578125 
L -0.984375 -16.609375 
z
" id="DejaVuSans-95"/>
       <path d="M 44.28125 53.078125 
L 44.28125 44.578125 
Q 40.484375 46.53125 36.375 47.5 
Q 32.28125 48.484375 27.875 48.484375 
Q 21.1875 48.484375 17.84375 46.4375 
Q 14.5 44.390625 14.5 40.28125 
Q 14.5 37.15625 16.890625 35.375 
Q 19.28125 33.59375 26.515625 31.984375 
L 29.59375 31.296875 
Q 39.15625 29.25 43.1875 25.515625 
Q 47.21875 21.78125 47.21875 15.09375 
Q 47.21875 7.46875 41.1875 3.015625 
Q 35.15625 -1.421875 24.609375 -1.421875 
Q 20.21875 -1.421875 15.453125 -0.5625 
Q 10.6875 0.296875 5.421875 2 
L 5.421875 11.28125 
Q 10.40625 8.6875 15.234375 7.390625 
Q 20.0625 6.109375 24.8125 6.109375 
Q 31.15625 6.109375 34.5625 8.28125 
Q 37.984375 10.453125 37.984375 14.40625 
Q 37.984375 18.0625 35.515625 20.015625 
Q 33.0625 21.96875 24.703125 23.78125 
L 21.578125 24.515625 
Q 13.234375 26.265625 9.515625 29.90625 
Q 5.8125 33.546875 5.8125 39.890625 
Q 5.8125 47.609375 11.28125 51.796875 
Q 16.75 56 26.8125 56 
Q 31.78125 56 36.171875 55.265625 
Q 40.578125 54.546875 44.28125 53.078125 
z
" id="DejaVuSans-115"/>
       <path d="M 18.109375 8.203125 
L 18.109375 -20.796875 
L 9.078125 -20.796875 
L 9.078125 54.6875 
L 18.109375 54.6875 
L 18.109375 46.390625 
Q 20.953125 51.265625 25.265625 53.625 
Q 29.59375 56 35.59375 56 
Q 45.5625 56 51.78125 48.09375 
Q 58.015625 40.1875 58.015625 27.296875 
Q 58.015625 14.40625 51.78125 6.484375 
Q 45.5625 -1.421875 35.59375 -1.421875 
Q 29.59375 -1.421875 25.265625 0.953125 
Q 20.953125 3.328125 18.109375 8.203125 
z
M 48.6875 27.296875 
Q 48.6875 37.203125 44.609375 42.84375 
Q 40.53125 48.484375 33.40625 48.484375 
Q 26.265625 48.484375 22.1875 42.84375 
Q 18.109375 37.203125 18.109375 27.296875 
Q 18.109375 17.390625 22.1875 11.75 
Q 26.265625 6.109375 33.40625 6.109375 
Q 40.53125 6.109375 44.609375 11.75 
Q 48.6875 17.390625 48.6875 27.296875 
z
" id="DejaVuSans-112"/>
       <path d="M 56.203125 29.59375 
L 56.203125 25.203125 
L 14.890625 25.203125 
Q 15.484375 15.921875 20.484375 11.0625 
Q 25.484375 6.203125 34.421875 6.203125 
Q 39.59375 6.203125 44.453125 7.46875 
Q 49.3125 8.734375 54.109375 11.28125 
L 54.109375 2.78125 
Q 49.265625 0.734375 44.1875 -0.34375 
Q 39.109375 -1.421875 33.890625 -1.421875 
Q 20.796875 -1.421875 13.15625 6.1875 
Q 5.515625 13.8125 5.515625 26.8125 
Q 5.515625 40.234375 12.765625 48.109375 
Q 20.015625 56 32.328125 56 
Q 43.359375 56 49.78125 48.890625 
Q 56.203125 41.796875 56.203125 29.59375 
z
M 47.21875 32.234375 
Q 47.125 39.59375 43.09375 43.984375 
Q 39.0625 48.390625 32.421875 48.390625 
Q 24.90625 48.390625 20.390625 44.140625 
Q 15.875 39.890625 15.1875 32.171875 
z
" id="DejaVuSans-101"/>
       <path id="DejaVuSans-32"/>
       <path d="M 37.109375 75.984375 
L 37.109375 68.5 
L 28.515625 68.5 
Q 23.6875 68.5 21.796875 66.546875 
Q 19.921875 64.59375 19.921875 59.515625 
L 19.921875 54.6875 
L 34.71875 54.6875 
L 34.71875 47.703125 
L 19.921875 47.703125 
L 19.921875 0 
L 10.890625 0 
L 10.890625 47.703125 
L 2.296875 47.703125 
L 2.296875 54.6875 
L 10.890625 54.6875 
L 10.890625 58.5 
Q 10.890625 67.625 15.140625 71.796875 
Q 19.390625 75.984375 28.609375 75.984375 
z
" id="DejaVuSans-102"/>
       <path d="M 41.109375 46.296875 
Q 39.59375 47.171875 37.8125 47.578125 
Q 36.03125 48 33.890625 48 
Q 26.265625 48 22.1875 43.046875 
Q 18.109375 38.09375 18.109375 28.8125 
L 18.109375 0 
L 9.078125 0 
L 9.078125 54.6875 
L 18.109375 54.6875 
L 18.109375 46.1875 
Q 20.953125 51.171875 25.484375 53.578125 
Q 30.03125 56 36.53125 56 
Q 37.453125 56 38.578125 55.875 
Q 39.703125 55.765625 41.0625 55.515625 
z
" id="DejaVuSans-114"/>
       <path d="M 30.609375 48.390625 
Q 23.390625 48.390625 19.1875 42.75 
Q 14.984375 37.109375 14.984375 27.296875 
Q 14.984375 17.484375 19.15625 11.84375 
Q 23.34375 6.203125 30.609375 6.203125 
Q 37.796875 6.203125 41.984375 11.859375 
Q 46.1875 17.53125 46.1875 27.296875 
Q 46.1875 37.015625 41.984375 42.703125 
Q 37.796875 48.390625 30.609375 48.390625 
z
M 30.609375 56 
Q 42.328125 56 49.015625 48.375 
Q 55.71875 40.765625 55.71875 27.296875 
Q 55.71875 13.875 49.015625 6.21875 
Q 42.328125 -1.421875 30.609375 -1.421875 
Q 18.84375 -1.421875 12.171875 6.21875 
Q 5.515625 13.875 5.515625 27.296875 
Q 5.515625 40.765625 12.171875 48.375 
Q 18.84375 56 30.609375 56 
z
" id="DejaVuSans-111"/>
       <path d="M 52 44.1875 
Q 55.375 50.25 60.0625 53.125 
Q 64.75 56 71.09375 56 
Q 79.640625 56 84.28125 50.015625 
Q 88.921875 44.046875 88.921875 33.015625 
L 88.921875 0 
L 79.890625 0 
L 79.890625 32.71875 
Q 79.890625 40.578125 77.09375 44.375 
Q 74.3125 48.1875 68.609375 48.1875 
Q 61.625 48.1875 57.5625 43.546875 
Q 53.515625 38.921875 53.515625 30.90625 
L 53.515625 0 
L 44.484375 0 
L 44.484375 32.71875 
Q 44.484375 40.625 41.703125 44.40625 
Q 38.921875 48.1875 33.109375 48.1875 
Q 26.21875 48.1875 22.15625 43.53125 
Q 18.109375 38.875 18.109375 30.90625 
L 18.109375 0 
L 9.078125 0 
L 9.078125 54.6875 
L 18.109375 54.6875 
L 18.109375 46.1875 
Q 21.1875 51.21875 25.484375 53.609375 
Q 29.78125 56 35.6875 56 
Q 41.65625 56 45.828125 52.96875 
Q 50 49.953125 52 44.1875 
z
" id="DejaVuSans-109"/>
       <path d="M 39.40625 66.21875 
Q 28.65625 66.21875 22.328125 58.203125 
Q 16.015625 50.203125 16.015625 36.375 
Q 16.015625 22.609375 22.328125 14.59375 
Q 28.65625 6.59375 39.40625 6.59375 
Q 50.140625 6.59375 56.421875 14.59375 
Q 62.703125 22.609375 62.703125 36.375 
Q 62.703125 50.203125 56.421875 58.203125 
Q 50.140625 66.21875 39.40625 66.21875 
z
M 39.40625 74.21875 
Q 54.734375 74.21875 63.90625 63.9375 
Q 73.09375 53.65625 73.09375 36.375 
Q 73.09375 19.140625 63.90625 8.859375 
Q 54.734375 -1.421875 39.40625 -1.421875 
Q 24.03125 -1.421875 14.8125 8.828125 
Q 5.609375 19.09375 5.609375 36.375 
Q 5.609375 53.65625 14.8125 63.9375 
Q 24.03125 74.21875 39.40625 74.21875 
z
" id="DejaVuSans-79"/>
       <path d="M 3.328125 72.90625 
L 13.28125 72.90625 
L 28.609375 11.28125 
L 43.890625 72.90625 
L 54.984375 72.90625 
L 70.3125 11.28125 
L 85.59375 72.90625 
L 95.609375 72.90625 
L 77.296875 0 
L 64.890625 0 
L 49.515625 63.28125 
L 33.984375 0 
L 21.578125 0 
z
" id="DejaVuSans-87"/>
       <path d="M 34.28125 27.484375 
Q 23.390625 27.484375 19.1875 25 
Q 14.984375 22.515625 14.984375 16.5 
Q 14.984375 11.71875 18.140625 8.90625 
Q 21.296875 6.109375 26.703125 6.109375 
Q 34.1875 6.109375 38.703125 11.40625 
Q 43.21875 16.703125 43.21875 25.484375 
L 43.21875 27.484375 
z
M 52.203125 31.203125 
L 52.203125 0 
L 43.21875 0 
L 43.21875 8.296875 
Q 40.140625 3.328125 35.546875 0.953125 
Q 30.953125 -1.421875 24.3125 -1.421875 
Q 15.921875 -1.421875 10.953125 3.296875 
Q 6 8.015625 6 15.921875 
Q 6 25.140625 12.171875 29.828125 
Q 18.359375 34.515625 30.609375 34.515625 
L 43.21875 34.515625 
L 43.21875 35.40625 
Q 43.21875 41.609375 39.140625 45 
Q 35.0625 48.390625 27.6875 48.390625 
Q 23 48.390625 18.546875 47.265625 
Q 14.109375 46.140625 10.015625 43.890625 
L 10.015625 52.203125 
Q 14.9375 54.109375 19.578125 55.046875 
Q 24.21875 56 28.609375 56 
Q 40.484375 56 46.34375 49.84375 
Q 52.203125 43.703125 52.203125 31.203125 
z
" id="DejaVuSans-97"/>
       <path d="M 18.3125 70.21875 
L 18.3125 54.6875 
L 36.8125 54.6875 
L 36.8125 47.703125 
L 18.3125 47.703125 
L 18.3125 18.015625 
Q 18.3125 11.328125 20.140625 9.421875 
Q 21.96875 7.515625 27.59375 7.515625 
L 36.8125 7.515625 
L 36.8125 0 
L 27.59375 0 
Q 17.1875 0 13.234375 3.875 
Q 9.28125 7.765625 9.28125 18.015625 
L 9.28125 47.703125 
L 2.6875 47.703125 
L 2.6875 54.6875 
L 9.28125 54.6875 
L 9.28125 70.21875 
z
" id="DejaVuSans-116"/>
       <path d="M 54.890625 33.015625 
L 54.890625 0 
L 45.90625 0 
L 45.90625 32.71875 
Q 45.90625 40.484375 42.875 44.328125 
Q 39.84375 48.1875 33.796875 48.1875 
Q 26.515625 48.1875 22.3125 43.546875 
Q 18.109375 38.921875 18.109375 30.90625 
L 18.109375 0 
L 9.078125 0 
L 9.078125 75.984375 
L 18.109375 75.984375 
L 18.109375 46.1875 
Q 21.34375 51.125 25.703125 53.5625 
Q 30.078125 56 35.796875 56 
Q 45.21875 56 50.046875 50.171875 
Q 54.890625 44.34375 54.890625 33.015625 
z
" id="DejaVuSans-104"/>
       <path d="M 9.8125 72.90625 
L 24.515625 72.90625 
L 43.109375 23.296875 
L 61.8125 72.90625 
L 76.515625 72.90625 
L 76.515625 0 
L 66.890625 0 
L 66.890625 64.015625 
L 48.09375 14.015625 
L 38.1875 14.015625 
L 19.390625 64.015625 
L 19.390625 0 
L 9.8125 0 
z
" id="DejaVuSans-77"/>
      </defs>
      <use xlink:href="#DejaVuSans-119"/>
      <use x="81.787109" xlink:href="#DejaVuSans-105"/>
      <use x="109.570312" xlink:href="#DejaVuSans-110"/>
      <use x="172.949219" xlink:href="#DejaVuSans-100"/>
      <use x="236.425781" xlink:href="#DejaVuSans-95"/>
      <use x="286.425781" xlink:href="#DejaVuSans-115"/>
      <use x="338.525391" xlink:href="#DejaVuSans-112"/>
      <use x="402.001953" xlink:href="#DejaVuSans-101"/>
      <use x="463.525391" xlink:href="#DejaVuSans-101"/>
      <use x="525.048828" xlink:href="#DejaVuSans-100"/>
      <use x="588.525391" xlink:href="#DejaVuSans-32"/>
      <use x="620.3125" xlink:href="#DejaVuSans-102"/>
      <use x="655.517578" xlink:href="#DejaVuSans-114"/>
      <use x="694.380859" xlink:href="#DejaVuSans-111"/>
      <use x="755.5625" xlink:href="#DejaVuSans-109"/>
      <use x="852.974609" xlink:href="#DejaVuSans-32"/>
      <use x="884.761719" xlink:href="#DejaVuSans-79"/>
      <use x="963.472656" xlink:href="#DejaVuSans-112"/>
      <use x="1026.949219" xlink:href="#DejaVuSans-101"/>
      <use x="1088.472656" xlink:href="#DejaVuSans-110"/>
      <use x="1151.851562" xlink:href="#DejaVuSans-87"/>
      <use x="1244.853516" xlink:href="#DejaVuSans-101"/>
      <use x="1306.376953" xlink:href="#DejaVuSans-97"/>
      <use x="1367.65625" xlink:href="#DejaVuSans-116"/>
      <use x="1406.865234" xlink:href="#DejaVuSans-104"/>
      <use x="1470.244141" xlink:href="#DejaVuSans-101"/>
      <use x="1531.767578" xlink:href="#DejaVuSans-114"/>
      <use x="1572.880859" xlink:href="#DejaVuSans-77"/>
      <use x="1659.160156" xlink:href="#DejaVuSans-97"/>
      <use x="1720.439453" xlink:href="#DejaVuSans-112"/>
     </g>
    </g>
   </g>
   <g id="matplotlib.axis_2">
    <g id="ytick_1">
     <g id="line2d_7">
      <defs>
       <path d="M 0 0 
L -3.5 0 
" id="m364fda522e" style="stroke:#000000;stroke-width:0.8;"/>
      </defs>
      <g>
       <use style="stroke:#000000;stroke-width:0.8;" x="57.6" xlink:href="#m364fda522e" y="260.065658"/>
      </g>
     </g>
     <g id="text_8">
      <!-- 100 -->
      <g transform="translate(31.5125 263.864877)scale(0.1 -0.1)">
       <use xlink:href="#DejaVuSans-49"/>
       <use x="63.623047" xlink:href="#DejaVuSans-48"/>
       <use x="127.246094" xlink:href="#DejaVuSans-48"/>
      </g>
     </g>
    </g>
    <g id="ytick_2">
     <g id="line2d_8">
      <g>
       <use style="stroke:#000000;stroke-width:0.8;" x="57.6" xlink:href="#m364fda522e" y="205.340131"/>
      </g>
     </g>
     <g id="text_9">
      <!-- 200 -->
      <g transform="translate(31.5125 209.139349)scale(0.1 -0.1)">
       <use xlink:href="#DejaVuSans-50"/>
       <use x="63.623047" xlink:href="#DejaVuSans-48"/>
       <use x="127.246094" xlink:href="#DejaVuSans-48"/>
      </g>
     </g>
    </g>
    <g id="ytick_3">
     <g id="line2d_9">
      <g>
       <use style="stroke:#000000;stroke-width:0.8;" x="57.6" xlink:href="#m364fda522e" y="150.614603"/>
      </g>
     </g>
     <g id="text_10">
      <!-- 300 -->
      <g transform="translate(31.5125 154.413821)scale(0.1 -0.1)">
       <defs>
        <path d="M 40.578125 39.3125 
Q 47.65625 37.796875 51.625 33 
Q 55.609375 28.21875 55.609375 21.1875 
Q 55.609375 10.40625 48.1875 4.484375 
Q 40.765625 -1.421875 27.09375 -1.421875 
Q 22.515625 -1.421875 17.65625 -0.515625 
Q 12.796875 0.390625 7.625 2.203125 
L 7.625 11.71875 
Q 11.71875 9.328125 16.59375 8.109375 
Q 21.484375 6.890625 26.8125 6.890625 
Q 36.078125 6.890625 40.9375 10.546875 
Q 45.796875 14.203125 45.796875 21.1875 
Q 45.796875 27.640625 41.28125 31.265625 
Q 36.765625 34.90625 28.71875 34.90625 
L 20.21875 34.90625 
L 20.21875 43.015625 
L 29.109375 43.015625 
Q 36.375 43.015625 40.234375 45.921875 
Q 44.09375 48.828125 44.09375 54.296875 
Q 44.09375 59.90625 40.109375 62.90625 
Q 36.140625 65.921875 28.71875 65.921875 
Q 24.65625 65.921875 20.015625 65.03125 
Q 15.375 64.15625 9.8125 62.3125 
L 9.8125 71.09375 
Q 15.4375 72.65625 20.34375 73.4375 
Q 25.25 74.21875 29.59375 74.21875 
Q 40.828125 74.21875 47.359375 69.109375 
Q 53.90625 64.015625 53.90625 55.328125 
Q 53.90625 49.265625 50.4375 45.09375 
Q 46.96875 40.921875 40.578125 39.3125 
z
" id="DejaVuSans-51"/>
       </defs>
       <use xlink:href="#DejaVuSans-51"/>
       <use x="63.623047" xlink:href="#DejaVuSans-48"/>
       <use x="127.246094" xlink:href="#DejaVuSans-48"/>
      </g>
     </g>
    </g>
    <g id="ytick_4">
     <g id="line2d_10">
      <g>
       <use style="stroke:#000000;stroke-width:0.8;" x="57.6" xlink:href="#m364fda522e" y="95.889075"/>
      </g>
     </g>
     <g id="text_11">
      <!-- 400 -->
      <g transform="translate(31.5125 99.688294)scale(0.1 -0.1)">
       <use xlink:href="#DejaVuSans-52"/>
       <use x="63.623047" xlink:href="#DejaVuSans-48"/>
       <use x="127.246094" xlink:href="#DejaVuSans-48"/>
      </g>
     </g>
    </g>
   </g>
   <g id="line2d_11">
    <path clip-path="url(#p8654eddd56)" d="M 73.832727 122.339747 
L 79.435902 142.451378 
L 80.754296 143.819516 
L 84.709479 210.315179 
L 86.357471 153.168461 
L 89.323858 154.202165 
L 90.312653 128.450764 
L 90.642252 242.599094 
L 92.290245 80.809152 
L 92.619843 231.973221 
L 93.608639 133.376061 
L 93.938237 135.689459 
L 94.597434 120.333144 
L 94.927033 116.365543 
L 95.256631 124.939209 
L 96.575025 171.638326 
L 97.234222 116.000706 
L 99.871011 134.014526 
L 100.200609 131.376475 
L 101.519003 139.851916 
L 102.1782 118.326541 
L 103.496594 191.962779 
L 103.826193 149.875808 
L 104.155791 239.878019 
L 104.814988 141.6761 
L 105.803784 148.425582 
L 106.133383 122.957163 
L 107.122178 135.382664 
L 107.451777 210.08301 
L 107.781375 129.636484 
L 109.099769 159.370687 
L 109.758966 136.243203 
L 110.088565 155.587488 
L 110.747762 217.421843 
L 111.07736 121.2733 
L 111.406959 252.176061 
L 112.066156 160.082119 
L 112.725353 183.199094 
L 113.054952 166.302587 
L 113.714149 166.256983 
L 114.043747 162.882242 
L 115.032543 151.070649 
L 116.021338 82.025274 
L 116.680535 152.393182 
L 117.010134 88.470726 
L 117.339732 169.426503 
L 117.669331 139.437966 
L 118.328528 237.263355 
L 119.317323 98.78171 
L 119.646922 133.148038 
L 120.635718 135.050663 
L 120.965316 155.676714 
L 121.294915 206.756556 
L 121.954112 148.516791 
L 122.942907 236.622425 
L 123.931703 149.987747 
L 124.920498 166.074564 
L 125.579695 107.694153 
L 126.238892 205.496489 
L 126.568491 153.031647 
L 126.89809 160.73143 
L 127.227688 96.217428 
L 127.886885 173.115214 
L 128.875681 141.287469 
L 129.205279 147.395454 
L 129.534878 139.461019 
L 129.864476 141.387271 
L 130.194075 157.774526 
L 130.523673 212.509175 
L 130.853272 198.49944 
L 131.512469 110.883869 
L 132.171666 218.77276 
L 132.501264 154.160817 
L 132.830863 140.764008 
L 133.49006 176.672373 
L 133.819659 292.627347 
L 134.149257 158.612949 
L 134.478856 225.457235 
L 135.138053 142.953029 
L 135.467651 144.138749 
L 135.79725 139.251008 
L 136.126848 166.682018 
L 136.456447 154.087569 
L 136.786045 152.746018 
L 137.115644 158.362585 
L 137.445242 122.47656 
L 137.774841 116.827538 
L 138.434038 206.745245 
L 138.763636 231.581021 
L 139.093235 229.036284 
L 139.422833 142.455524 
L 139.752432 156.138461 
L 140.741228 153.350879 
L 141.070826 215.737981 
L 141.400425 158.083028 
L 141.730023 137.318326 
L 142.059622 191.2594 
L 142.38922 140.873459 
L 142.718819 147.844123 
L 143.048417 204.24562 
L 143.378016 202.994751 
L 143.707614 153.624507 
L 144.037213 122.658979 
L 144.366811 215.63848 
L 145.355607 122.795793 
L 145.685205 230.294971 
L 146.014804 163.576735 
L 146.344402 188.01038 
L 146.674001 140.855217 
L 147.003599 135.886298 
L 147.333198 136.933221 
L 147.662796 186.492659 
L 147.992395 166.619577 
L 148.321994 162.654219 
L 148.651592 198.955486 
L 148.981191 132.815776 
L 149.310789 163.400476 
L 149.640388 149.424917 
L 149.969986 233.648154 
L 150.629183 106.83418 
L 150.958782 156.588806 
L 151.617979 177.039215 
L 152.277176 134.04259 
L 152.936373 136.659593 
L 153.265971 235.745634 
L 153.59557 143.620413 
L 153.925168 183.597257 
L 154.254767 143.218838 
L 154.584365 155.414813 
L 154.913964 191.111493 
L 155.243563 187.330457 
L 155.573161 168.788038 
L 155.90276 137.247893 
L 156.232358 151.243364 
L 156.561957 117.516603 
L 157.221154 143.333728 
L 157.550752 138.939823 
L 158.209949 140.307962 
L 158.539548 190.390111 
L 158.869146 212.568461 
L 159.528343 130.667148 
L 159.857942 191.699286 
L 160.18754 128.255316 
L 160.517139 134.712928 
L 160.846737 229.742741 
L 161.505934 172.790338 
L 161.835533 121.040927 
L 162.165132 211.734376 
L 162.49473 127.040529 
L 162.824329 160.676637 
L 163.153927 178.788814 
L 163.483526 168.711769 
L 163.813124 167.92976 
L 164.142723 161.415694 
L 164.472321 173.987699 
L 164.80192 175.888676 
L 165.131518 133.772542 
L 165.790715 124.25514 
L 166.120314 166.741168 
L 166.449912 276.574526 
L 167.109109 197.634776 
L 167.438708 150.962856 
L 167.768306 147.134059 
L 168.097905 174.627501 
L 168.427503 232.052104 
L 169.086701 140.169845 
L 169.416299 184.966598 
L 169.745898 155.403086 
L 170.075496 180.92323 
L 170.405095 135.305487 
L 170.734693 143.203468 
L 171.064292 165.423167 
L 171.39389 228.007444 
L 171.723489 176.707734 
L 172.382686 141.192937 
L 172.712284 144.893298 
L 173.041883 161.994293 
L 173.371481 135.022313 
L 173.70108 215.912107 
L 174.030678 210.053227 
L 174.360277 160.775802 
L 174.689875 160.465198 
L 175.019474 148.80866 
L 175.349072 148.351628 
L 175.678671 135.084385 
L 176.008269 230.741896 
L 176.337868 120.738518 
L 176.667467 225.432217 
L 176.997065 193.202008 
L 177.326664 141.062511 
L 177.656262 133.056829 
L 177.985861 220.822894 
L 178.315459 190.519866 
L 178.645058 203.4521 
L 178.974656 256.660514 
L 179.304255 114.9518 
L 179.633853 185.379714 
L 179.963452 153.370659 
L 180.622649 131.688691 
L 180.952247 133.430787 
L 181.281846 234.34466 
L 181.611444 134.912586 
L 181.941043 181.02636 
L 182.270641 124.711186 
L 182.60024 174.468495 
L 182.929838 111.661754 
L 183.259437 160.568453 
L 183.589036 139.958326 
L 183.918634 127.050434 
L 184.248233 157.702862 
L 184.577831 230.513873 
L 185.237028 146.88039 
L 185.566627 155.451948 
L 185.896225 182.3876 
L 186.225824 158.767303 
L 186.555422 149.207375 
L 186.885021 165.738749 
L 187.214619 252.869251 
L 187.544218 164.421397 
L 188.203415 239.543585 
L 188.533013 186.186196 
L 189.19221 190.57944 
L 189.851407 121.929305 
L 190.181006 139.971431 
L 190.510605 222.557624 
L 190.840203 134.470572 
L 191.169802 241.699771 
L 191.4994 198.657856 
L 191.828999 124.189991 
L 192.158597 248.374296 
L 193.147393 132.007923 
L 193.80659 244.970534 
L 194.136188 132.303737 
L 194.465787 162.49786 
L 194.795385 134.407427 
L 195.124984 206.677866 
L 195.454582 241.139747 
L 195.784181 133.783711 
L 196.113779 206.297827 
L 196.772976 111.56403 
L 197.102575 133.740898 
L 197.432174 196.616238 
L 197.761772 154.171762 
L 198.091371 188.12068 
L 198.420969 131.799445 
L 198.750568 133.312917 
L 199.080166 138.798864 
L 200.068962 177.870956 
L 200.39856 142.86182 
L 201.057757 53.568 
L 201.387356 140.262357 
L 202.046553 161.676977 
L 202.376151 156.204424 
L 202.70575 176.819711 
L 203.035348 224.565446 
L 203.364947 153.806925 
L 203.694545 149.725313 
L 204.024144 206.52585 
L 204.683341 162.950649 
L 205.01294 191.310495 
L 205.342538 202.216215 
L 205.672137 105.128032 
L 206.001735 135.396696 
L 206.331334 249.295674 
L 206.660932 214.096215 
L 206.990531 145.08909 
L 207.320129 157.728921 
L 207.649728 139.367067 
L 207.979326 142.405774 
L 208.968122 253.179363 
L 209.627319 191.278049 
L 209.956917 261.296983 
L 210.945713 248.390879 
L 211.934509 116.838007 
L 212.264107 116.528417 
L 212.923304 256.668115 
L 214.241698 161.696522 
L 214.900895 185.000476 
L 215.230494 156.856271 
L 215.560092 250.364315 
L 215.889691 184.392415 
L 216.219289 196.766464 
L 216.548888 240.747547 
L 216.878486 194.851071 
L 217.867282 181.762549 
L 218.19688 149.082288 
L 218.526479 166.713029 
L 218.856078 172.210138 
L 219.185676 183.88987 
L 219.844873 168.051288 
L 220.50407 141.995332 
L 220.833669 138.362165 
L 221.163267 155.878677 
L 221.822464 156.315179 
L 222.481661 186.976676 
L 223.140858 171.241917 
L 223.470457 241.823816 
L 223.800055 237.002757 
L 224.129654 200.962088 
L 224.459252 251.148616 
L 224.788851 175.487355 
L 225.118449 167.182955 
L 225.448048 180.4995 
L 226.436844 130.745026 
L 226.766442 126.833873 
L 227.096041 166.535913 
L 227.425639 160.629374 
L 227.755238 216.088224 
L 228.084836 209.980855 
L 228.744033 201.837697 
L 229.073632 137.941323 
L 229.40323 153.798633 
L 230.392026 137.250053 
L 230.721624 199.897981 
L 231.380821 163.034918 
L 231.71042 162.75372 
L 232.040018 193.673643 
L 232.369617 137.589927 
L 232.699216 162.152568 
L 233.028814 143.36347 
L 233.358413 155.843931 
L 233.688011 198.112587 
L 234.347208 189.560937 
L 234.676807 149.075447 
L 235.006405 223.180653 
L 235.665602 155.758802 
L 235.995201 148.516791 
L 236.324799 189.712952 
L 236.654398 179.011071 
L 236.983996 136.249152 
L 237.313595 156.018749 
L 237.643193 152.298465 
L 237.972792 141.501613 
L 238.631989 175.697136 
L 238.961587 163.885543 
L 239.291186 220.252837 
L 239.950383 140.764008 
L 240.60958 199.411532 
L 240.939179 239.901406 
L 241.268777 134.196944 
L 241.927974 164.594488 
L 242.257573 250.665744 
L 242.587171 136.613988 
L 243.246368 134.516177 
L 243.575967 160.017443 
L 244.235164 186.596637 
L 244.894361 187.691148 
L 245.223959 198.574065 
L 245.553558 232.292453 
L 246.212755 206.900821 
L 246.542353 245.133407 
L 246.871952 222.90205 
L 247.201551 161.308883 
L 248.190346 123.588611 
L 248.519945 175.788345 
L 248.849543 137.298058 
L 249.179142 181.4798 
L 249.50874 138.793889 
L 249.838339 258.651916 
L 250.167937 161.302176 
L 251.156733 124.407155 
L 251.486331 266.085466 
L 251.81593 137.754104 
L 252.475127 178.231449 
L 252.804725 120.389273 
L 253.134324 222.031417 
L 253.463922 143.301282 
L 255.111915 154.126157 
L 255.441514 191.111493 
L 255.771112 179.035393 
L 256.100711 234.572683 
L 256.430309 235.165543 
L 257.089506 231.280031 
L 257.419105 235.986426 
L 257.748703 165.162472 
L 258.078302 246.156253 
L 258.4079 163.383893 
L 258.737499 184.225198 
L 259.067097 129.172146 
L 259.396696 197.227876 
L 260.71509 183.744595 
L 261.044689 144.468505 
L 261.374287 256.599708 
L 261.703886 202.665641 
L 262.033484 176.198787 
L 262.692681 182.042692 
L 263.02228 210.48433 
L 263.351878 147.58365 
L 264.011075 146.82942 
L 266.318265 185.046081 
L 266.647863 266.727897 
L 267.636659 140.383308 
L 268.295856 217.617684 
L 268.625455 154.906236 
L 268.955053 124.22908 
L 269.284652 157.12086 
L 269.61425 252.404084 
L 269.943849 125.805697 
L 270.603046 255.140361 
L 271.262243 218.428653 
L 271.591841 153.42226 
L 272.251038 136.522779 
L 273.239834 173.15848 
L 273.569432 143.04059 
L 274.228629 138.574987 
L 274.887826 206.61706 
L 275.547024 189.907532 
L 275.876622 239.041935 
L 276.535819 209.763777 
L 276.865418 152.490906 
L 277.524615 130.225435 
L 279.172607 290.711954 
L 279.502206 180.987271 
L 280.161403 295.488 
L 280.491001 141.600986 
L 280.8206 182.788653 
L 281.150198 140.909942 
L 282.138994 198.723317 
L 282.468593 144.138749 
L 282.798191 141.949727 
L 283.12779 201.862411 
L 283.457388 184.54443 
L 284.116585 130.0795 
L 284.446184 159.072184 
L 284.775782 266.736961 
L 285.434979 155.51384 
L 285.764578 146.464583 
L 286.094176 145.871724 
L 287.41257 133.056829 
L 288.071767 263.075562 
L 288.401366 148.972837 
L 288.730964 145.394629 
L 289.060563 129.089228 
L 289.390162 181.397712 
L 289.71976 156.543202 
L 290.378957 122.643777 
L 290.708556 154.582203 
L 291.697351 159.644315 
L 292.02695 270.189881 
L 292.686147 143.500284 
L 293.345344 133.884227 
L 293.674942 125.188281 
L 294.004541 168.734833 
L 294.663738 162.579593 
L 294.993336 135.83871 
L 295.652533 158.385628 
L 295.982132 137.636835 
L 296.311731 201.93763 
L 297.630125 242.006234 
L 297.959723 203.277399 
L 298.61892 146.190956 
L 298.948519 106.92539 
L 299.278117 136.264353 
L 300.266913 128.541973 
L 301.585307 231.352998 
L 302.244504 212.910495 
L 302.903701 185.120488 
L 303.233299 117.033029 
L 303.892497 153.971102 
L 304.551694 253.498595 
L 305.210891 240.227655 
L 305.540489 252.540898 
L 305.870088 150.340975 
L 306.858883 194.759862 
L 307.188482 246.814263 
L 307.51808 126.124929 
L 308.836474 135.884315 
L 311.473263 141.6761 
L 312.791657 128.450764 
L 313.780452 239.916714 
L 316.41724 135.038876 
L 316.746839 265.538211 
L 317.406036 125.714488 
L 319.713226 260.808362 
L 320.042824 138.53289 
L 321.361218 250.260668 
L 323.009211 153.761321 
L 323.668408 267.408 
L 324.986802 159.331597 
L 325.975598 251.520057 
L 326.964393 257.13038 
L 328.612386 123.251839 
L 329.93078 123.297443 
L 331.249174 169.152875 
L 336.193152 158.112 
L 337.511546 131.962319 
L 340.477933 165.572914 
L 341.466728 215.897597 
L 342.125925 150.546196 
L 344.433115 164.524008 
L 347.7291 162.4718 
L 348.388297 173.55372 
L 349.047494 155.758802 
L 353.002677 201.87418 
L 353.332275 148.425582 
L 353.991472 290.821405 
L 355.309866 290.996527 
L 357.946654 140.764008 
L 359.924246 269.673029 
L 360.253844 266.523271 
L 360.913041 291.441628 
L 371.460194 215.616369 
L 373.767383 188.420821 
L 383.984938 215.23633 
L 388.928916 175.058672 
L 396.83928 183.267501 
L 398.487273 137.708499 
L 398.487273 137.708499 
" style="fill:none;stroke:#0000ff;stroke-linecap:square;stroke-width:1.5;"/>
   </g>
   <g id="patch_3">
    <path d="M 57.6 307.584 
L 57.6 41.472 
" style="fill:none;stroke:#000000;stroke-linecap:square;stroke-linejoin:miter;stroke-width:0.8;"/>
   </g>
   <g id="patch_4">
    <path d="M 414.72 307.584 
L 414.72 41.472 
" style="fill:none;stroke:#000000;stroke-linecap:square;stroke-linejoin:miter;stroke-width:0.8;"/>
   </g>
   <g id="patch_5">
    <path d="M 57.6 307.584 
L 414.72 307.584 
" style="fill:none;stroke:#000000;stroke-linecap:square;stroke-linejoin:miter;stroke-width:0.8;"/>
   </g>
   <g id="patch_6">
    <path d="M 57.6 41.472 
L 414.72 41.472 
" style="fill:none;stroke:#000000;stroke-linecap:square;stroke-linejoin:miter;stroke-width:0.8;"/>
   </g>
   <g id="text_12">
    <!-- wind_speed-&gt;Retransmission_night -->
    <g transform="translate(129.30375 35.472)scale(0.12 -0.12)">
     <defs>
      <path d="M 4.890625 31.390625 
L 31.203125 31.390625 
L 31.203125 23.390625 
L 4.890625 23.390625 
z
" id="DejaVuSans-45"/>
      <path d="M 10.59375 49.21875 
L 10.59375 58.109375 
L 73.1875 35.40625 
L 73.1875 27.296875 
L 10.59375 4.59375 
L 10.59375 13.484375 
L 60.890625 31.296875 
z
" id="DejaVuSans-62"/>
      <path d="M 44.390625 34.1875 
Q 47.5625 33.109375 50.5625 29.59375 
Q 53.5625 26.078125 56.59375 19.921875 
L 66.609375 0 
L 56 0 
L 46.6875 18.703125 
Q 43.0625 26.03125 39.671875 28.421875 
Q 36.28125 30.8125 30.421875 30.8125 
L 19.671875 30.8125 
L 19.671875 0 
L 9.8125 0 
L 9.8125 72.90625 
L 32.078125 72.90625 
Q 44.578125 72.90625 50.734375 67.671875 
Q 56.890625 62.453125 56.890625 51.90625 
Q 56.890625 45.015625 53.6875 40.46875 
Q 50.484375 35.9375 44.390625 34.1875 
z
M 19.671875 64.796875 
L 19.671875 38.921875 
L 32.078125 38.921875 
Q 39.203125 38.921875 42.84375 42.21875 
Q 46.484375 45.515625 46.484375 51.90625 
Q 46.484375 58.296875 42.84375 61.546875 
Q 39.203125 64.796875 32.078125 64.796875 
z
" id="DejaVuSans-82"/>
      <path d="M 45.40625 27.984375 
Q 45.40625 37.75 41.375 43.109375 
Q 37.359375 48.484375 30.078125 48.484375 
Q 22.859375 48.484375 18.828125 43.109375 
Q 14.796875 37.75 14.796875 27.984375 
Q 14.796875 18.265625 18.828125 12.890625 
Q 22.859375 7.515625 30.078125 7.515625 
Q 37.359375 7.515625 41.375 12.890625 
Q 45.40625 18.265625 45.40625 27.984375 
z
M 54.390625 6.78125 
Q 54.390625 -7.171875 48.1875 -13.984375 
Q 42 -20.796875 29.203125 -20.796875 
Q 24.46875 -20.796875 20.265625 -20.09375 
Q 16.0625 -19.390625 12.109375 -17.921875 
L 12.109375 -9.1875 
Q 16.0625 -11.328125 19.921875 -12.34375 
Q 23.78125 -13.375 27.78125 -13.375 
Q 36.625 -13.375 41.015625 -8.765625 
Q 45.40625 -4.15625 45.40625 5.171875 
L 45.40625 9.625 
Q 42.625 4.78125 38.28125 2.390625 
Q 33.9375 0 27.875 0 
Q 17.828125 0 11.671875 7.65625 
Q 5.515625 15.328125 5.515625 27.984375 
Q 5.515625 40.671875 11.671875 48.328125 
Q 17.828125 56 27.875 56 
Q 33.9375 56 38.28125 53.609375 
Q 42.625 51.21875 45.40625 46.390625 
L 45.40625 54.6875 
L 54.390625 54.6875 
z
" id="DejaVuSans-103"/>
     </defs>
     <use xlink:href="#DejaVuSans-119"/>
     <use x="81.787109" xlink:href="#DejaVuSans-105"/>
     <use x="109.570312" xlink:href="#DejaVuSans-110"/>
     <use x="172.949219" xlink:href="#DejaVuSans-100"/>
     <use x="236.425781" xlink:href="#DejaVuSans-95"/>
     <use x="286.425781" xlink:href="#DejaVuSans-115"/>
     <use x="338.525391" xlink:href="#DejaVuSans-112"/>
     <use x="402.001953" xlink:href="#DejaVuSans-101"/>
     <use x="463.525391" xlink:href="#DejaVuSans-101"/>
     <use x="525.048828" xlink:href="#DejaVuSans-100"/>
     <use x="588.525391" xlink:href="#DejaVuSans-45"/>
     <use x="624.609375" xlink:href="#DejaVuSans-62"/>
     <use x="708.398438" xlink:href="#DejaVuSans-82"/>
     <use x="773.380859" xlink:href="#DejaVuSans-101"/>
     <use x="834.904297" xlink:href="#DejaVuSans-116"/>
     <use x="874.113281" xlink:href="#DejaVuSans-114"/>
     <use x="915.226562" xlink:href="#DejaVuSans-97"/>
     <use x="976.505859" xlink:href="#DejaVuSans-110"/>
     <use x="1039.884766" xlink:href="#DejaVuSans-115"/>
     <use x="1091.984375" xlink:href="#DejaVuSans-109"/>
     <use x="1189.396484" xlink:href="#DejaVuSans-105"/>
     <use x="1217.179688" xlink:href="#DejaVuSans-115"/>
     <use x="1269.279297" xlink:href="#DejaVuSans-115"/>
     <use x="1321.378906" xlink:href="#DejaVuSans-105"/>
     <use x="1349.162109" xlink:href="#DejaVuSans-111"/>
     <use x="1410.34375" xlink:href="#DejaVuSans-110"/>
     <use x="1473.722656" xlink:href="#DejaVuSans-95"/>
     <use x="1523.722656" xlink:href="#DejaVuSans-110"/>
     <use x="1587.101562" xlink:href="#DejaVuSans-105"/>
     <use x="1614.884766" xlink:href="#DejaVuSans-103"/>
     <use x="1678.361328" xlink:href="#DejaVuSans-104"/>
     <use x="1741.740234" xlink:href="#DejaVuSans-116"/>
    </g>
   </g>
  </g>
  <g id="legend_1">
   <g id="patch_7">
    <path d="M 414.851562 22.678125 
L 453.8 22.678125 
Q 455.8 22.678125 455.8 20.678125 
L 455.8 7 
Q 455.8 5 453.8 5 
L 414.851562 5 
Q 412.851562 5 412.851562 7 
L 412.851562 20.678125 
Q 412.851562 22.678125 414.851562 22.678125 
z
" style="fill:#ffffff;opacity:0.8;stroke:#cccccc;stroke-linejoin:miter;"/>
   </g>
   <g id="line2d_12">
    <path d="M 416.851562 13.098438 
L 436.851562 13.098438 
" style="fill:none;stroke:#0000ff;stroke-linecap:square;stroke-width:1.5;"/>
   </g>
   <g id="line2d_13"/>
   <g id="text_13">
    <!-- R -->
    <g transform="translate(444.851562 16.598438)scale(0.1 -0.1)">
     <use xlink:href="#DejaVuSans-82"/>
    </g>
   </g>
  </g>
 </g>
 <defs>
  <clipPath id="p8654eddd56">
   <rect height="266.112" width="357.12" x="57.6" y="41.472"/>
  </clipPath>
 </defs>
</svg>
