<?xml version="1.0" encoding="utf-8" standalone="no"?>
<!DOCTYPE svg PUBLIC "-//W3C//DTD SVG 1.1//EN"
  "http://www.w3.org/Graphics/SVG/1.1/DTD/svg11.dtd">
<!-- Created with matplotlib (https://matplotlib.org/) -->
<svg height="2090.594375pt" version="1.1" viewBox="0 0 2061.98125 2090.594375" width="2061.98125pt" xmlns="http://www.w3.org/2000/svg" xmlns:xlink="http://www.w3.org/1999/xlink">
 <metadata>
  <rdf:RDF xmlns:cc="http://creativecommons.org/ns#" xmlns:dc="http://purl.org/dc/elements/1.1/" xmlns:rdf="http://www.w3.org/1999/02/22-rdf-syntax-ns#">
   <cc:Work>
    <dc:type rdf:resource="http://purl.org/dc/dcmitype/StillImage"/>
    <dc:date>2022-07-23T20:56:49.020597</dc:date>
    <dc:format>image/svg+xml</dc:format>
    <dc:creator>
     <cc:Agent>
      <dc:title>Matplotlib v3.3.2, https://matplotlib.org/</dc:title>
     </cc:Agent>
    </dc:creator>
   </cc:Work>
  </rdf:RDF>
 </metadata>
 <defs>
  <style type="text/css">*{stroke-linecap:butt;stroke-linejoin:round;}</style>
 </defs>
 <g id="figure_1">
  <g id="patch_1">
   <path d="M 0 2090.594375 
L 2061.98125 2090.594375 
L 2061.98125 0 
L 0 0 
z
" style="fill:#ffffff;"/>
  </g>
  <g id="axes_1">
   <g id="patch_2">
    <path d="M 43.78125 2052.76 
L 1829.38125 2052.76 
L 1829.38125 278.68 
L 43.78125 278.68 
z
" style="fill:#ffffff;"/>
   </g>
   <g id="matplotlib.axis_1">
    <g id="xtick_1">
     <g id="line2d_1">
      <defs>
       <path d="M 0 0 
L 0 3.5 
" id="maf2ba9a748" style="stroke:#000000;stroke-width:0.8;"/>
      </defs>
      <g>
       <use style="stroke:#000000;stroke-width:0.8;" x="410.520644" xlink:href="#maf2ba9a748" y="2052.76"/>
      </g>
     </g>
     <g id="text_1">
      <text style="font-family:DejaVu Sans;font-size:10px;font-stretch:normal;font-style:normal;font-weight:normal;text-anchor:middle;" transform="rotate(-0, 410.520644, 2067.358437)" x="410.520644" y="2067.358437">1010</text>
     </g>
    </g>
    <g id="xtick_2">
     <g id="line2d_2">
      <g>
       <use style="stroke:#000000;stroke-width:0.8;" x="786.27822" xlink:href="#maf2ba9a748" y="2052.76"/>
      </g>
     </g>
     <g id="text_2">
      <text style="font-family:DejaVu Sans;font-size:10px;font-stretch:normal;font-style:normal;font-weight:normal;text-anchor:middle;" transform="rotate(-0, 786.27822, 2067.358437)" x="786.27822" y="2067.358437">1015</text>
     </g>
    </g>
    <g id="xtick_3">
     <g id="line2d_3">
      <g>
       <use style="stroke:#000000;stroke-width:0.8;" x="1162.035795" xlink:href="#maf2ba9a748" y="2052.76"/>
      </g>
     </g>
     <g id="text_3">
      <text style="font-family:DejaVu Sans;font-size:10px;font-stretch:normal;font-style:normal;font-weight:normal;text-anchor:middle;" transform="rotate(-0, 1162.035795, 2067.358437)" x="1162.035795" y="2067.358437">1020</text>
     </g>
    </g>
    <g id="xtick_4">
     <g id="line2d_4">
      <g>
       <use style="stroke:#000000;stroke-width:0.8;" x="1537.793371" xlink:href="#maf2ba9a748" y="2052.76"/>
      </g>
     </g>
     <g id="text_4">
      <text style="font-family:DejaVu Sans;font-size:10px;font-stretch:normal;font-style:normal;font-weight:normal;text-anchor:middle;" transform="rotate(-0, 1537.793371, 2067.358437)" x="1537.793371" y="2067.358437">1025</text>
     </g>
    </g>
    <g id="text_5">
     <text style="font-family:DejaVu Sans;font-size:10px;font-stretch:normal;font-style:normal;font-weight:normal;text-anchor:middle;" transform="rotate(-0, 936.58125, 2081.036562)" x="936.58125" y="2081.036562">air_pressure from Aeris</text>
    </g>
   </g>
   <g id="matplotlib.axis_2">
    <g id="ytick_1">
     <g id="line2d_5">
      <defs>
       <path d="M 0 0 
L -3.5 0 
" id="m257e84da74" style="stroke:#000000;stroke-width:0.8;"/>
      </defs>
      <g>
       <use style="stroke:#000000;stroke-width:0.8;" x="43.78125" xlink:href="#m257e84da74" y="2019.421201"/>
      </g>
     </g>
     <g id="text_6">
      <text style="font-family:DejaVu Sans;font-size:10px;font-stretch:normal;font-style:normal;font-weight:normal;text-anchor:end;" transform="rotate(-0, 36.78125, 2023.22042)" x="36.78125" y="2023.22042">5.0</text>
     </g>
    </g>
    <g id="ytick_2">
     <g id="line2d_6">
      <g>
       <use style="stroke:#000000;stroke-width:0.8;" x="43.78125" xlink:href="#m257e84da74" y="1734.474205"/>
      </g>
     </g>
     <g id="text_7">
      <text style="font-family:DejaVu Sans;font-size:10px;font-stretch:normal;font-style:normal;font-weight:normal;text-anchor:end;" transform="rotate(-0, 36.78125, 1738.273424)" x="36.78125" y="1738.273424">5.5</text>
     </g>
    </g>
    <g id="ytick_3">
     <g id="line2d_7">
      <g>
       <use style="stroke:#000000;stroke-width:0.8;" x="43.78125" xlink:href="#m257e84da74" y="1449.527208"/>
      </g>
     </g>
     <g id="text_8">
      <text style="font-family:DejaVu Sans;font-size:10px;font-stretch:normal;font-style:normal;font-weight:normal;text-anchor:end;" transform="rotate(-0, 36.78125, 1453.326427)" x="36.78125" y="1453.326427">6.0</text>
     </g>
    </g>
    <g id="ytick_4">
     <g id="line2d_8">
      <g>
       <use style="stroke:#000000;stroke-width:0.8;" x="43.78125" xlink:href="#m257e84da74" y="1164.580212"/>
      </g>
     </g>
     <g id="text_9">
      <text style="font-family:DejaVu Sans;font-size:10px;font-stretch:normal;font-style:normal;font-weight:normal;text-anchor:end;" transform="rotate(-0, 36.78125, 1168.379431)" x="36.78125" y="1168.379431">6.5</text>
     </g>
    </g>
    <g id="ytick_5">
     <g id="line2d_9">
      <g>
       <use style="stroke:#000000;stroke-width:0.8;" x="43.78125" xlink:href="#m257e84da74" y="879.633216"/>
      </g>
     </g>
     <g id="text_10">
      <text style="font-family:DejaVu Sans;font-size:10px;font-stretch:normal;font-style:normal;font-weight:normal;text-anchor:end;" transform="rotate(-0, 36.78125, 883.432434)" x="36.78125" y="883.432434">7.0</text>
     </g>
    </g>
    <g id="ytick_6">
     <g id="line2d_10">
      <g>
       <use style="stroke:#000000;stroke-width:0.8;" x="43.78125" xlink:href="#m257e84da74" y="594.686219"/>
      </g>
     </g>
     <g id="text_11">
      <text style="font-family:DejaVu Sans;font-size:10px;font-stretch:normal;font-style:normal;font-weight:normal;text-anchor:end;" transform="rotate(-0, 36.78125, 598.485438)" x="36.78125" y="598.485438">7.5</text>
     </g>
    </g>
    <g id="ytick_7">
     <g id="line2d_11">
      <g>
       <use style="stroke:#000000;stroke-width:0.8;" x="43.78125" xlink:href="#m257e84da74" y="309.739223"/>
      </g>
     </g>
     <g id="text_12">
      <text style="font-family:DejaVu Sans;font-size:10px;font-stretch:normal;font-style:normal;font-weight:normal;text-anchor:end;" transform="rotate(-0, 36.78125, 313.538441)" x="36.78125" y="313.538441">8.0</text>
     </g>
    </g>
    <g id="text_13">
     <text style="font-family:DejaVu Sans;font-size:10px;font-stretch:normal;font-style:normal;font-weight:normal;text-anchor:middle;" transform="rotate(-90, 14.798437, 1165.72)" x="14.798437" y="1165.72">ping[ms]</text>
    </g>
   </g>
   <g id="line2d_12">
    <path clip-path="url(#pf613b61fdf)" d="M 124.944886 1592.570601 
L 139.975189 359.32 
L 147.490341 834.041696 
L 162.520644 1353.215124 
L 170.035795 1034.074488 
L 177.550947 937.762403 
L 192.58125 1448.38742 
L 200.096402 1581.742615 
L 215.126705 1708.828975 
L 222.641856 1023.246502 
L 237.672159 1689.45258 
L 245.187311 1347.516184 
L 260.217614 1863.840141 
L 267.732765 1617.645936 
L 275.247917 813.525512 
L 290.27822 1659.818092 
L 297.793371 1721.936537 
L 312.823674 1532.731731 
L 320.338826 418.588975 
L 342.88428 1512.785442 
L 350.399432 1743.592509 
L 357.914583 893.310671 
L 365.429735 1845.03364 
L 372.944886 1673.495548 
L 387.975189 1495.688622 
L 395.490341 1136.655406 
L 410.520644 1585.161979 
L 418.035795 1833.065866 
L 425.550947 1668.936396 
L 440.58125 1972.12 
L 448.096402 1037.493852 
L 463.126705 1506.516608 
L 470.641856 1434.709965 
L 493.187311 1699.710671 
L 500.702462 1670.076184 
L 515.732765 1759.549541 
L 538.27822 1525.893004 
L 545.793371 1527.602686 
L 560.823674 1256.333145 
L 568.338826 1545.269399 
L 575.853977 1533.871519 
L 590.88428 1916.270389 
L 598.399432 1450.666996 
L 613.429735 1623.91477 
L 620.944886 1079.666007 
L 635.975189 1019.827138 
L 643.490341 1725.925795 
L 666.035795 1896.324099 
L 673.550947 1256.903039 
L 688.58125 1589.721131 
L 696.096402 1617.645936 
L 718.641856 1650.699788 
L 726.157008 1423.881979 
L 741.187311 1747.581767 
L 748.702462 1823.377668 
L 763.732765 1199.343746 
L 793.793371 1761.829117 
L 801.308523 1651.269682 
L 816.338826 1696.291307 
L 823.853977 1466.054134 
L 838.88428 1458.075618 
L 846.399432 1707.119293 
L 861.429735 1302.494558 
L 868.944886 1812.549682 
L 876.460038 1568.635053 
L 891.490341 1802.861484 
L 899.005492 1385.699081 
L 914.035795 1473.462756 
L 921.550947 1794.882968 
L 944.096402 1819.38841 
L 966.641856 1745.302191 
L 996.702462 1627.904028 
L 1019.247917 1691.732155 
L 1026.763068 1244.365371 
L 1041.793371 1911.141343 
L 1049.308523 901.289187 
L 1071.853977 1696.291307 
L 1094.399432 1829.076608 
L 1101.914583 1440.978799 
L 1116.944886 1745.302191 
L 1124.460038 1641.581484 
L 1147.005492 1665.517032 
L 1169.550947 1709.968763 
L 1177.066098 1157.17159 
L 1192.096402 1639.871802 
L 1222.157008 819.224452 
L 1244.702462 1605.678163 
L 1267.247917 1828.506714 
L 1289.793371 1272.290177 
L 1297.308523 1558.376961 
L 1319.853977 1740.173145 
L 1342.399432 1695.151519 
L 1372.460038 1577.183463 
L 1395.005492 1740.173145 
L 1417.550947 1668.366502 
L 1447.611553 1509.366078 
L 1470.157008 1727.065583 
L 1492.702462 1793.74318 
L 1522.763068 1554.957597 
L 1545.308523 1910.001555 
L 1567.853977 1654.119152 
L 1597.914583 635.148693 
L 1620.460038 1805.14106 
L 1643.005492 1511.645654 
L 1695.611553 1664.377244 
L 1748.217614 916.676325 
" style="fill:none;stroke:#0000ff;stroke-linecap:square;stroke-width:1.5;"/>
   </g>
   <g id="patch_3">
    <path d="M 43.78125 2052.76 
L 43.78125 278.68 
" style="fill:none;stroke:#000000;stroke-linecap:square;stroke-linejoin:miter;stroke-width:0.8;"/>
   </g>
   <g id="patch_4">
    <path d="M 1829.38125 2052.76 
L 1829.38125 278.68 
" style="fill:none;stroke:#000000;stroke-linecap:square;stroke-linejoin:miter;stroke-width:0.8;"/>
   </g>
   <g id="patch_5">
    <path d="M 43.78125 2052.76 
L 1829.38125 2052.76 
" style="fill:none;stroke:#000000;stroke-linecap:square;stroke-linejoin:miter;stroke-width:0.8;"/>
   </g>
   <g id="patch_6">
    <path d="M 43.78125 278.68 
L 1829.38125 278.68 
" style="fill:none;stroke:#000000;stroke-linecap:square;stroke-linejoin:miter;stroke-width:0.8;"/>
   </g>
   <g id="text_14">
    <text style="font-family:DejaVu Sans;font-size:12px;font-stretch:normal;font-style:normal;font-weight:normal;text-anchor:middle;" transform="rotate(-0, 936.58125, 272.68)" x="936.58125" y="272.68">air_pressure-&gt;ping</text>
   </g>
  </g>
  <g id="legend_1">
   <g id="patch_7">
    <path d="M 1978.415625 22.678125 
L 2054.98125 22.678125 
Q 2056.98125 22.678125 2056.98125 20.678125 
L 2056.98125 7 
Q 2056.98125 5 2054.98125 5 
L 1978.415625 5 
Q 1976.415625 5 1976.415625 7 
L 1976.415625 20.678125 
Q 1976.415625 22.678125 1978.415625 22.678125 
z
" style="fill:#ffffff;opacity:0.8;stroke:#cccccc;stroke-linejoin:miter;"/>
   </g>
   <g id="line2d_13">
    <path d="M 1980.415625 13.098437 
L 2000.415625 13.098437 
" style="fill:none;stroke:#0000ff;stroke-linecap:square;stroke-width:1.5;"/>
   </g>
   <g id="line2d_14"/>
   <g id="text_15">
    <text style="font-family:DejaVu Sans;font-size:10px;font-stretch:normal;font-style:normal;font-weight:normal;text-anchor:start;" transform="rotate(-0, 2008.415625, 16.598437)" x="2008.415625" y="16.598437">ping[ms]</text>
   </g>
  </g>
 </g>
 <defs>
  <clipPath id="pf613b61fdf">
   <rect height="1774.08" width="1785.6" x="43.78125" y="278.68"/>
  </clipPath>
 </defs>
</svg>
