<?xml version="1.0" encoding="utf-8" standalone="no"?>
<!DOCTYPE svg PUBLIC "-//W3C//DTD SVG 1.1//EN"
  "http://www.w3.org/Graphics/SVG/1.1/DTD/svg11.dtd">
<!-- Created with matplotlib (https://matplotlib.org/) -->
<svg height="2090.31625pt" version="1.1" viewBox="0 0 2058.803125 2090.31625" width="2058.803125pt" xmlns="http://www.w3.org/2000/svg" xmlns:xlink="http://www.w3.org/1999/xlink">
 <metadata>
  <rdf:RDF xmlns:cc="http://creativecommons.org/ns#" xmlns:dc="http://purl.org/dc/elements/1.1/" xmlns:rdf="http://www.w3.org/1999/02/22-rdf-syntax-ns#">
   <cc:Work>
    <dc:type rdf:resource="http://purl.org/dc/dcmitype/StillImage"/>
    <dc:date>2022-07-23T20:58:07.801070</dc:date>
    <dc:format>image/svg+xml</dc:format>
    <dc:creator>
     <cc:Agent>
      <dc:title>Matplotlib v3.3.2, https://matplotlib.org/</dc:title>
     </cc:Agent>
    </dc:creator>
   </cc:Work>
  </rdf:RDF>
 </metadata>
 <defs>
  <style type="text/css">*{stroke-linecap:butt;stroke-linejoin:round;}</style>
 </defs>
 <g id="figure_1">
  <g id="patch_1">
   <path d="M 0 2090.31625 
L 2058.803125 2090.31625 
L 2058.803125 0 
L 0 0 
z
" style="fill:#ffffff;"/>
  </g>
  <g id="axes_1">
   <g id="patch_2">
    <path d="M 40.603125 2052.76 
L 1826.203125 2052.76 
L 1826.203125 278.68 
L 40.603125 278.68 
z
" style="fill:#ffffff;"/>
   </g>
   <g id="matplotlib.axis_1">
    <g id="xtick_1">
     <g id="line2d_1">
      <defs>
       <path d="M 0 0 
L 0 3.5 
" id="me57ce13c1e" style="stroke:#000000;stroke-width:0.8;"/>
      </defs>
      <g>
       <use style="stroke:#000000;stroke-width:0.8;" x="121.766761" xlink:href="#me57ce13c1e" y="2052.76"/>
      </g>
     </g>
     <g id="text_1">
      <text style="font-family:DejaVu Sans;font-size:10px;font-stretch:normal;font-style:normal;font-weight:normal;text-anchor:middle;" transform="rotate(-0, 121.766761, 2067.358438)" x="121.766761" y="2067.358438">0.0</text>
     </g>
    </g>
    <g id="xtick_2">
     <g id="line2d_2">
      <g>
       <use style="stroke:#000000;stroke-width:0.8;" x="360.483339" xlink:href="#me57ce13c1e" y="2052.76"/>
      </g>
     </g>
     <g id="text_2">
      <text style="font-family:DejaVu Sans;font-size:10px;font-stretch:normal;font-style:normal;font-weight:normal;text-anchor:middle;" transform="rotate(-0, 360.483339, 2067.358438)" x="360.483339" y="2067.358438">2.5</text>
     </g>
    </g>
    <g id="xtick_3">
     <g id="line2d_3">
      <g>
       <use style="stroke:#000000;stroke-width:0.8;" x="599.199916" xlink:href="#me57ce13c1e" y="2052.76"/>
      </g>
     </g>
     <g id="text_3">
      <text style="font-family:DejaVu Sans;font-size:10px;font-stretch:normal;font-style:normal;font-weight:normal;text-anchor:middle;" transform="rotate(-0, 599.199916, 2067.358438)" x="599.199916" y="2067.358438">5.0</text>
     </g>
    </g>
    <g id="xtick_4">
     <g id="line2d_4">
      <g>
       <use style="stroke:#000000;stroke-width:0.8;" x="837.916494" xlink:href="#me57ce13c1e" y="2052.76"/>
      </g>
     </g>
     <g id="text_4">
      <text style="font-family:DejaVu Sans;font-size:10px;font-stretch:normal;font-style:normal;font-weight:normal;text-anchor:middle;" transform="rotate(-0, 837.916494, 2067.358438)" x="837.916494" y="2067.358438">7.5</text>
     </g>
    </g>
    <g id="xtick_5">
     <g id="line2d_5">
      <g>
       <use style="stroke:#000000;stroke-width:0.8;" x="1076.633072" xlink:href="#me57ce13c1e" y="2052.76"/>
      </g>
     </g>
     <g id="text_5">
      <text style="font-family:DejaVu Sans;font-size:10px;font-stretch:normal;font-style:normal;font-weight:normal;text-anchor:middle;" transform="rotate(-0, 1076.633072, 2067.358438)" x="1076.633072" y="2067.358438">10.0</text>
     </g>
    </g>
    <g id="xtick_6">
     <g id="line2d_6">
      <g>
       <use style="stroke:#000000;stroke-width:0.8;" x="1315.349649" xlink:href="#me57ce13c1e" y="2052.76"/>
      </g>
     </g>
     <g id="text_6">
      <text style="font-family:DejaVu Sans;font-size:10px;font-stretch:normal;font-style:normal;font-weight:normal;text-anchor:middle;" transform="rotate(-0, 1315.349649, 2067.358438)" x="1315.349649" y="2067.358438">12.5</text>
     </g>
    </g>
    <g id="xtick_7">
     <g id="line2d_7">
      <g>
       <use style="stroke:#000000;stroke-width:0.8;" x="1554.066227" xlink:href="#me57ce13c1e" y="2052.76"/>
      </g>
     </g>
     <g id="text_7">
      <text style="font-family:DejaVu Sans;font-size:10px;font-stretch:normal;font-style:normal;font-weight:normal;text-anchor:middle;" transform="rotate(-0, 1554.066227, 2067.358438)" x="1554.066227" y="2067.358438">15.0</text>
     </g>
    </g>
    <g id="xtick_8">
     <g id="line2d_8">
      <g>
       <use style="stroke:#000000;stroke-width:0.8;" x="1792.782804" xlink:href="#me57ce13c1e" y="2052.76"/>
      </g>
     </g>
     <g id="text_8">
      <text style="font-family:DejaVu Sans;font-size:10px;font-stretch:normal;font-style:normal;font-weight:normal;text-anchor:middle;" transform="rotate(-0, 1792.782804, 2067.358438)" x="1792.782804" y="2067.358438">17.5</text>
     </g>
    </g>
    <g id="text_9">
     <text style="font-family:DejaVu Sans;font-size:10px;font-stretch:normal;font-style:normal;font-weight:normal;text-anchor:middle;" transform="rotate(-0, 933.403125, 2081.036562)" x="933.403125" y="2081.036562">rain from Foreca</text>
    </g>
   </g>
   <g id="matplotlib.axis_2">
    <g id="ytick_1">
     <g id="line2d_9">
      <defs>
       <path d="M 0 0 
L -3.5 0 
" id="ma16b756374" style="stroke:#000000;stroke-width:0.8;"/>
      </defs>
      <g>
       <use style="stroke:#000000;stroke-width:0.8;" x="40.603125" xlink:href="#ma16b756374" y="1975.401746"/>
      </g>
     </g>
     <g id="text_10">
      <text style="font-family:DejaVu Sans;font-size:10px;font-stretch:normal;font-style:normal;font-weight:normal;text-anchor:end;" transform="rotate(-0, 33.603125, 1979.200964)" x="33.603125" y="1979.200964">5</text>
     </g>
    </g>
    <g id="ytick_2">
     <g id="line2d_10">
      <g>
       <use style="stroke:#000000;stroke-width:0.8;" x="40.603125" xlink:href="#ma16b756374" y="1777.706232"/>
      </g>
     </g>
     <g id="text_11">
      <text style="font-family:DejaVu Sans;font-size:10px;font-stretch:normal;font-style:normal;font-weight:normal;text-anchor:end;" transform="rotate(-0, 33.603125, 1781.505451)" x="33.603125" y="1781.505451">10</text>
     </g>
    </g>
    <g id="ytick_3">
     <g id="line2d_11">
      <g>
       <use style="stroke:#000000;stroke-width:0.8;" x="40.603125" xlink:href="#ma16b756374" y="1580.010718"/>
      </g>
     </g>
     <g id="text_12">
      <text style="font-family:DejaVu Sans;font-size:10px;font-stretch:normal;font-style:normal;font-weight:normal;text-anchor:end;" transform="rotate(-0, 33.603125, 1583.809937)" x="33.603125" y="1583.809937">15</text>
     </g>
    </g>
    <g id="ytick_4">
     <g id="line2d_12">
      <g>
       <use style="stroke:#000000;stroke-width:0.8;" x="40.603125" xlink:href="#ma16b756374" y="1382.315205"/>
      </g>
     </g>
     <g id="text_13">
      <text style="font-family:DejaVu Sans;font-size:10px;font-stretch:normal;font-style:normal;font-weight:normal;text-anchor:end;" transform="rotate(-0, 33.603125, 1386.114423)" x="33.603125" y="1386.114423">20</text>
     </g>
    </g>
    <g id="ytick_5">
     <g id="line2d_13">
      <g>
       <use style="stroke:#000000;stroke-width:0.8;" x="40.603125" xlink:href="#ma16b756374" y="1184.619691"/>
      </g>
     </g>
     <g id="text_14">
      <text style="font-family:DejaVu Sans;font-size:10px;font-stretch:normal;font-style:normal;font-weight:normal;text-anchor:end;" transform="rotate(-0, 33.603125, 1188.41891)" x="33.603125" y="1188.41891">25</text>
     </g>
    </g>
    <g id="ytick_6">
     <g id="line2d_14">
      <g>
       <use style="stroke:#000000;stroke-width:0.8;" x="40.603125" xlink:href="#ma16b756374" y="986.924177"/>
      </g>
     </g>
     <g id="text_15">
      <text style="font-family:DejaVu Sans;font-size:10px;font-stretch:normal;font-style:normal;font-weight:normal;text-anchor:end;" transform="rotate(-0, 33.603125, 990.723396)" x="33.603125" y="990.723396">30</text>
     </g>
    </g>
    <g id="ytick_7">
     <g id="line2d_15">
      <g>
       <use style="stroke:#000000;stroke-width:0.8;" x="40.603125" xlink:href="#ma16b756374" y="789.228664"/>
      </g>
     </g>
     <g id="text_16">
      <text style="font-family:DejaVu Sans;font-size:10px;font-stretch:normal;font-style:normal;font-weight:normal;text-anchor:end;" transform="rotate(-0, 33.603125, 793.027883)" x="33.603125" y="793.027883">35</text>
     </g>
    </g>
    <g id="ytick_8">
     <g id="line2d_16">
      <g>
       <use style="stroke:#000000;stroke-width:0.8;" x="40.603125" xlink:href="#ma16b756374" y="591.53315"/>
      </g>
     </g>
     <g id="text_17">
      <text style="font-family:DejaVu Sans;font-size:10px;font-stretch:normal;font-style:normal;font-weight:normal;text-anchor:end;" transform="rotate(-0, 33.603125, 595.332369)" x="33.603125" y="595.332369">40</text>
     </g>
    </g>
    <g id="ytick_9">
     <g id="line2d_17">
      <g>
       <use style="stroke:#000000;stroke-width:0.8;" x="40.603125" xlink:href="#ma16b756374" y="393.837637"/>
      </g>
     </g>
     <g id="text_18">
      <text style="font-family:DejaVu Sans;font-size:10px;font-stretch:normal;font-style:normal;font-weight:normal;text-anchor:end;" transform="rotate(-0, 33.603125, 397.636855)" x="33.603125" y="397.636855">45</text>
     </g>
    </g>
    <g id="text_19">
     <text style="font-family:DejaVu Sans;font-size:10px;font-stretch:normal;font-style:normal;font-weight:normal;text-anchor:middle;" transform="rotate(-90, 14.798438, 1165.72)" x="14.798438" y="1165.72">ping[ms]</text>
    </g>
   </g>
   <g id="line2d_18">
    <path clip-path="url(#p0d84402e49)" d="M 121.766761 1972.12 
L 122.721628 1957.530071 
L 123.676494 1949.18732 
L 124.63136 1955.434499 
L 125.586227 1954.248326 
L 126.541093 1951.559667 
L 127.495959 1950.571189 
L 128.450826 1960.376886 
L 129.405692 1944.838019 
L 130.360558 1947.803452 
L 131.315424 1935.98126 
L 132.270291 1944.126315 
L 133.225157 1959.388409 
L 134.180023 1948.75239 
L 135.13489 1954.169247 
L 136.089756 1942.030743 
L 137.044622 1957.095141 
L 137.999489 1928.231596 
L 138.954355 1933.846149 
L 139.909221 1934.834626 
L 140.864088 1922.696122 
L 141.818954 1908.620201 
L 142.77382 1936.930199 
L 143.728686 1920.719166 
L 144.683553 1946.10327 
L 145.638419 1938.19545 
L 146.593285 1941.595813 
L 147.548152 1922.617043 
L 148.503018 1916.251248 
L 149.457884 1921.8658 
L 150.412751 1938.511763 
L 151.367617 1871.097593 
L 152.322483 1934.518313 
L 153.27735 1923.961373 
L 154.232216 1917.358343 
L 155.187082 1938.788536 
L 156.141949 1926.847727 
L 157.096815 1934.281079 
L 158.051681 1934.083383 
L 159.006547 1934.716009 
L 159.961414 1916.646639 
L 160.91628 1909.015592 
L 161.871146 1936.060338 
L 162.826013 1936.178956 
L 163.780879 1933.33214 
L 164.735745 1941.398117 
L 165.690612 1889.246041 
L 166.645478 1929.536386 
L 167.600344 1942.070282 
L 168.555211 1930.366708 
L 169.510077 1927.994361 
L 170.464943 1939.816553 
L 171.419809 1930.801638 
L 172.374676 1939.93517 
L 173.329542 1912.218259 
L 174.284408 1879.12403 
L 175.239275 1936.099877 
L 176.194141 1950.254876 
L 177.149007 1942.14936 
L 178.103874 1948.950086 
L 179.05874 1736.625104 
L 180.013606 1905.496612 
L 180.968473 1921.984418 
L 181.923339 1866.669213 
L 182.878205 1926.966345 
L 183.833072 1892.409169 
L 184.787938 1834.919314 
L 185.742804 1890.313596 
L 186.69767 1933.371679 
L 189.562269 1911.269321 
L 190.517136 1922.814739 
L 192.426868 1789.923815 
L 194.336601 1867.815847 
L 195.291467 1906.999098 
L 196.246334 1562.020427 
L 198.156066 1935.150939 
L 199.110932 1864.13871 
L 200.065799 1887.545859 
L 201.020665 1448.147811 
L 201.975531 1915.104614 
L 202.930398 1931.394724 
L 203.885264 1829.265222 
L 204.84013 1900.672841 
L 205.794997 1903.321961 
L 207.704729 1898.142339 
L 208.659596 1811.670321 
L 209.614462 1931.15749 
L 211.524195 1922.972895 
L 212.479061 1919.69115 
L 213.433927 1810.563226 
L 214.388793 1872.639618 
L 215.34366 1901.859014 
L 217.253392 1876.198137 
L 219.163125 1931.829654 
L 220.117991 1923.763677 
L 222.027724 1910.280843 
L 222.98259 1935.427713 
L 223.937457 1915.500005 
L 224.892323 1808.507193 
L 225.847189 1913.206737 
L 227.756922 1940.291022 
L 228.711788 1911.348399 
L 231.576387 1774.424486 
L 232.531253 1916.962952 
L 234.440986 1724.605217 
L 235.395852 1908.65974 
L 240.170184 1890.906683 
L 241.12505 1882.129002 
L 242.079916 1457.834891 
L 248.763981 1877.937857 
L 251.62858 1837.805668 
L 263.086975 1936.653425 
L 264.996708 1906.959559 
L 266.906441 1907.671263 
L 267.861307 1911.071625 
L 269.771039 1856.072734 
L 272.635638 1888.969267 
L 278.364836 1889.562354 
L 279.319703 1930.841177 
L 280.274569 1885.845678 
L 283.139168 1946.221888 
L 284.094034 1903.440579 
L 287.913499 1899.605286 
L 288.868366 1883.631488 
L 290.778098 1905.852464 
L 320.378954 1879.12403 
L 326.108152 1894.148889 
L 329.927617 1900.475146 
L 358.573606 1904.587213 
L 408.226654 1888.613415 
L 465.518633 1699.142035 
L 488.435424 1888.613415 
L 530.449542 1917.951429 
L 537.133606 1911.664712 
L 545.727403 1850.023251 
L 608.74858 1910.280843 
L 641.214034 359.32 
L 643.123767 1917.990968 
L 672.724622 1883.11748 
L 709.009542 1899.486668 
L 719.513072 1947.01267 
L 755.797991 1491.601285 
L 802.586441 1904.508134 
L 837.916494 1872.758235 
L 892.343874 1903.440579 
L 1745.039489 1371.362873 
L 1745.039489 1371.362873 
" style="fill:none;stroke:#0000ff;stroke-linecap:square;stroke-width:1.5;"/>
   </g>
   <g id="patch_3">
    <path d="M 40.603125 2052.76 
L 40.603125 278.68 
" style="fill:none;stroke:#000000;stroke-linecap:square;stroke-linejoin:miter;stroke-width:0.8;"/>
   </g>
   <g id="patch_4">
    <path d="M 1826.203125 2052.76 
L 1826.203125 278.68 
" style="fill:none;stroke:#000000;stroke-linecap:square;stroke-linejoin:miter;stroke-width:0.8;"/>
   </g>
   <g id="patch_5">
    <path d="M 40.603125 2052.76 
L 1826.203125 2052.76 
" style="fill:none;stroke:#000000;stroke-linecap:square;stroke-linejoin:miter;stroke-width:0.8;"/>
   </g>
   <g id="patch_6">
    <path d="M 40.603125 278.68 
L 1826.203125 278.68 
" style="fill:none;stroke:#000000;stroke-linecap:square;stroke-linejoin:miter;stroke-width:0.8;"/>
   </g>
   <g id="text_20">
    <text style="font-family:DejaVu Sans;font-size:12px;font-stretch:normal;font-style:normal;font-weight:normal;text-anchor:middle;" transform="rotate(-0, 933.403125, 272.68)" x="933.403125" y="272.68">rain-&gt;ping</text>
   </g>
  </g>
  <g id="legend_1">
   <g id="patch_7">
    <path d="M 1975.2375 22.678125 
L 2051.803125 22.678125 
Q 2053.803125 22.678125 2053.803125 20.678125 
L 2053.803125 7 
Q 2053.803125 5 2051.803125 5 
L 1975.2375 5 
Q 1973.2375 5 1973.2375 7 
L 1973.2375 20.678125 
Q 1973.2375 22.678125 1975.2375 22.678125 
z
" style="fill:#ffffff;opacity:0.8;stroke:#cccccc;stroke-linejoin:miter;"/>
   </g>
   <g id="line2d_19">
    <path d="M 1977.2375 13.098437 
L 1997.2375 13.098437 
" style="fill:none;stroke:#0000ff;stroke-linecap:square;stroke-width:1.5;"/>
   </g>
   <g id="line2d_20"/>
   <g id="text_21">
    <text style="font-family:DejaVu Sans;font-size:10px;font-stretch:normal;font-style:normal;font-weight:normal;text-anchor:start;" transform="rotate(-0, 2005.2375, 16.598437)" x="2005.2375" y="16.598437">ping[ms]</text>
   </g>
  </g>
 </g>
 <defs>
  <clipPath id="p0d84402e49">
   <rect height="1774.08" width="1785.6" x="40.603125" y="278.68"/>
  </clipPath>
 </defs>
</svg>
