<?xml version="1.0" encoding="utf-8" standalone="no"?>
<!DOCTYPE svg PUBLIC "-//W3C//DTD SVG 1.1//EN"
  "http://www.w3.org/Graphics/SVG/1.1/DTD/svg11.dtd">
<!-- Created with matplotlib (https://matplotlib.org/) -->
<svg height="2090.31625pt" version="1.1" viewBox="0 0 2058.803125 2090.31625" width="2058.803125pt" xmlns="http://www.w3.org/2000/svg" xmlns:xlink="http://www.w3.org/1999/xlink">
 <metadata>
  <rdf:RDF xmlns:cc="http://creativecommons.org/ns#" xmlns:dc="http://purl.org/dc/elements/1.1/" xmlns:rdf="http://www.w3.org/1999/02/22-rdf-syntax-ns#">
   <cc:Work>
    <dc:type rdf:resource="http://purl.org/dc/dcmitype/StillImage"/>
    <dc:date>2022-07-24T11:31:32.881927</dc:date>
    <dc:format>image/svg+xml</dc:format>
    <dc:creator>
     <cc:Agent>
      <dc:title>Matplotlib v3.3.2, https://matplotlib.org/</dc:title>
     </cc:Agent>
    </dc:creator>
   </cc:Work>
  </rdf:RDF>
 </metadata>
 <defs>
  <style type="text/css">*{stroke-linecap:butt;stroke-linejoin:round;}</style>
 </defs>
 <g id="figure_1">
  <g id="patch_1">
   <path d="M 0 2090.31625 
L 2058.803125 2090.31625 
L 2058.803125 0 
L 0 0 
z
" style="fill:#ffffff;"/>
  </g>
  <g id="axes_1">
   <g id="patch_2">
    <path d="M 40.603125 2052.76 
L 1826.203125 2052.76 
L 1826.203125 278.68 
L 40.603125 278.68 
z
" style="fill:#ffffff;"/>
   </g>
   <g id="matplotlib.axis_1">
    <g id="xtick_1">
     <g id="line2d_1">
      <defs>
       <path d="M 0 0 
L 0 3.5 
" id="mc514c240f4" style="stroke:#000000;stroke-width:0.8;"/>
      </defs>
      <g>
       <use style="stroke:#000000;stroke-width:0.8;" x="89.301307" xlink:href="#mc514c240f4" y="2052.76"/>
      </g>
     </g>
     <g id="text_1">
      <text style="font-family:DejaVu Sans;font-size:10px;font-stretch:normal;font-style:normal;font-weight:normal;text-anchor:middle;" transform="rotate(-0, 89.301307, 2067.358438)" x="89.301307" y="2067.358438">6</text>
     </g>
    </g>
    <g id="xtick_2">
     <g id="line2d_2">
      <g>
       <use style="stroke:#000000;stroke-width:0.8;" x="413.955852" xlink:href="#mc514c240f4" y="2052.76"/>
      </g>
     </g>
     <g id="text_2">
      <text style="font-family:DejaVu Sans;font-size:10px;font-stretch:normal;font-style:normal;font-weight:normal;text-anchor:middle;" transform="rotate(-0, 413.955852, 2067.358438)" x="413.955852" y="2067.358438">8</text>
     </g>
    </g>
    <g id="xtick_3">
     <g id="line2d_3">
      <g>
       <use style="stroke:#000000;stroke-width:0.8;" x="738.610398" xlink:href="#mc514c240f4" y="2052.76"/>
      </g>
     </g>
     <g id="text_3">
      <text style="font-family:DejaVu Sans;font-size:10px;font-stretch:normal;font-style:normal;font-weight:normal;text-anchor:middle;" transform="rotate(-0, 738.610398, 2067.358438)" x="738.610398" y="2067.358438">10</text>
     </g>
    </g>
    <g id="xtick_4">
     <g id="line2d_4">
      <g>
       <use style="stroke:#000000;stroke-width:0.8;" x="1063.264943" xlink:href="#mc514c240f4" y="2052.76"/>
      </g>
     </g>
     <g id="text_4">
      <text style="font-family:DejaVu Sans;font-size:10px;font-stretch:normal;font-style:normal;font-weight:normal;text-anchor:middle;" transform="rotate(-0, 1063.264943, 2067.358438)" x="1063.264943" y="2067.358438">12</text>
     </g>
    </g>
    <g id="xtick_5">
     <g id="line2d_5">
      <g>
       <use style="stroke:#000000;stroke-width:0.8;" x="1387.919489" xlink:href="#mc514c240f4" y="2052.76"/>
      </g>
     </g>
     <g id="text_5">
      <text style="font-family:DejaVu Sans;font-size:10px;font-stretch:normal;font-style:normal;font-weight:normal;text-anchor:middle;" transform="rotate(-0, 1387.919489, 2067.358438)" x="1387.919489" y="2067.358438">14</text>
     </g>
    </g>
    <g id="xtick_6">
     <g id="line2d_6">
      <g>
       <use style="stroke:#000000;stroke-width:0.8;" x="1712.574034" xlink:href="#mc514c240f4" y="2052.76"/>
      </g>
     </g>
     <g id="text_6">
      <text style="font-family:DejaVu Sans;font-size:10px;font-stretch:normal;font-style:normal;font-weight:normal;text-anchor:middle;" transform="rotate(-0, 1712.574034, 2067.358438)" x="1712.574034" y="2067.358438">16</text>
     </g>
    </g>
    <g id="text_7">
     <text style="font-family:DejaVu Sans;font-size:10px;font-stretch:normal;font-style:normal;font-weight:normal;text-anchor:middle;" transform="rotate(-0, 933.403125, 2081.036562)" x="933.403125" y="2081.036562">temperature from Meteomatics</text>
    </g>
   </g>
   <g id="matplotlib.axis_2">
    <g id="ytick_1">
     <g id="line2d_7">
      <defs>
       <path d="M 0 0 
L -3.5 0 
" id="m12dd6f1ede" style="stroke:#000000;stroke-width:0.8;"/>
      </defs>
      <g>
       <use style="stroke:#000000;stroke-width:0.8;" x="40.603125" xlink:href="#m12dd6f1ede" y="1855.8311"/>
      </g>
     </g>
     <g id="text_8">
      <text style="font-family:DejaVu Sans;font-size:10px;font-stretch:normal;font-style:normal;font-weight:normal;text-anchor:end;" transform="rotate(-0, 33.603125, 1859.630319)" x="33.603125" y="1859.630319">6</text>
     </g>
    </g>
    <g id="ytick_2">
     <g id="line2d_8">
      <g>
       <use style="stroke:#000000;stroke-width:0.8;" x="40.603125" xlink:href="#m12dd6f1ede" y="1464.944043"/>
      </g>
     </g>
     <g id="text_9">
      <text style="font-family:DejaVu Sans;font-size:10px;font-stretch:normal;font-style:normal;font-weight:normal;text-anchor:end;" transform="rotate(-0, 33.603125, 1468.743261)" x="33.603125" y="1468.743261">8</text>
     </g>
    </g>
    <g id="ytick_3">
     <g id="line2d_9">
      <g>
       <use style="stroke:#000000;stroke-width:0.8;" x="40.603125" xlink:href="#m12dd6f1ede" y="1074.056985"/>
      </g>
     </g>
     <g id="text_10">
      <text style="font-family:DejaVu Sans;font-size:10px;font-stretch:normal;font-style:normal;font-weight:normal;text-anchor:end;" transform="rotate(-0, 33.603125, 1077.856204)" x="33.603125" y="1077.856204">10</text>
     </g>
    </g>
    <g id="ytick_4">
     <g id="line2d_10">
      <g>
       <use style="stroke:#000000;stroke-width:0.8;" x="40.603125" xlink:href="#m12dd6f1ede" y="683.169927"/>
      </g>
     </g>
     <g id="text_11">
      <text style="font-family:DejaVu Sans;font-size:10px;font-stretch:normal;font-style:normal;font-weight:normal;text-anchor:end;" transform="rotate(-0, 33.603125, 686.969146)" x="33.603125" y="686.969146">12</text>
     </g>
    </g>
    <g id="ytick_5">
     <g id="line2d_11">
      <g>
       <use style="stroke:#000000;stroke-width:0.8;" x="40.603125" xlink:href="#m12dd6f1ede" y="292.28287"/>
      </g>
     </g>
     <g id="text_12">
      <text style="font-family:DejaVu Sans;font-size:10px;font-stretch:normal;font-style:normal;font-weight:normal;text-anchor:end;" transform="rotate(-0, 33.603125, 296.082088)" x="33.603125" y="296.082088">14</text>
     </g>
    </g>
    <g id="text_13">
     <text style="font-family:DejaVu Sans;font-size:10px;font-stretch:normal;font-style:normal;font-weight:normal;text-anchor:middle;" transform="rotate(-90, 14.798438, 1165.72)" x="14.798438" y="1165.72">ping[ms]</text>
    </g>
   </g>
   <g id="line2d_12">
    <path clip-path="url(#pcad5633d62)" d="M 121.766761 1705.73047 
L 137.999489 1806.188444 
L 154.232216 1731.333572 
L 170.464943 1794.461832 
L 186.69767 1552.893631 
L 202.930398 1789.771188 
L 219.163125 359.32 
L 235.395852 1501.101095 
L 251.62858 1814.397072 
L 284.094034 790.663868 
L 300.326761 1466.703034 
L 316.559489 1884.952186 
L 332.792216 1848.013359 
L 349.024943 1922.868231 
L 365.25767 1887.688396 
L 381.490398 1857.785536 
L 397.723125 1915.441377 
L 413.955852 1932.054077 
L 430.18858 1833.941425 
L 446.421307 1818.892273 
L 462.654034 1910.164401 
L 478.886761 1820.846709 
L 495.119489 1819.478604 
L 511.352216 1736.219661 
L 527.584943 1891.988153 
L 543.81767 1879.284324 
L 560.050398 1757.718449 
L 576.283125 1866.580494 
L 592.515852 1970.556452 
L 608.74858 1910.359845 
L 624.981307 1928.536093 
L 641.214034 1868.53493 
L 657.446761 1880.652429 
L 673.679489 1941.63081 
L 689.912216 1888.665613 
L 706.144943 1766.317964 
L 722.37767 1828.859893 
L 738.610398 1854.267552 
L 754.843125 1873.225574 
L 771.075852 1854.462996 
L 787.30858 1824.951023 
L 803.541307 1883.974968 
L 819.774034 1919.545691 
L 836.006761 1891.597266 
L 852.239489 1829.055337 
L 868.472216 1960.393388 
L 884.704943 1823.582918 
L 900.93767 1909.773514 
L 917.170398 1909.382627 
L 933.403125 1783.712438 
L 949.635852 1907.428192 
L 965.86858 1929.317867 
L 982.101307 1839.413844 
L 998.334034 1858.762753 
L 1014.566761 1878.111663 
L 1030.799489 1926.190771 
L 1047.032216 1873.811905 
L 1063.264943 1895.70158 
L 1079.49767 1694.785633 
L 1095.730398 1839.804731 
L 1111.963125 1838.63207 
L 1128.195852 1870.293921 
L 1144.42858 1868.925817 
L 1160.661307 1528.267746 
L 1176.894034 1931.66319 
L 1193.126761 1790.943849 
L 1209.359489 1909.382627 
L 1225.592216 1732.701677 
L 1241.824943 1858.958197 
L 1258.05767 1803.647678 
L 1274.290398 1894.919806 
L 1290.523125 1856.417431 
L 1306.755852 1812.63808 
L 1322.98858 1906.841861 
L 1339.221307 1846.840698 
L 1355.454034 1788.207639 
L 1371.686761 1972.12 
L 1387.919489 1869.707591 
L 1404.152216 1908.40541 
L 1420.384943 1822.996587 
L 1436.61767 1944.171575 
L 1452.850398 1840.000175 
L 1469.083125 1890.229161 
L 1485.315852 1803.256791 
L 1501.54858 1882.41142 
L 1517.781307 1849.576907 
L 1534.014034 1851.335899 
L 1550.246761 1795.243606 
L 1566.479489 1706.316801 
L 1582.712216 1529.831294 
L 1615.17767 1117.836335 
L 1631.410398 1711.78922 
L 1647.643125 1852.704004 
L 1663.875852 419.321163 
L 1680.10858 1591.982336 
L 1696.341307 1299.598817 
L 1712.574034 1585.337256 
L 1728.806761 1755.764014 
L 1745.039489 1640.647775 
" style="fill:none;stroke:#0000ff;stroke-linecap:square;stroke-width:1.5;"/>
   </g>
   <g id="patch_3">
    <path d="M 40.603125 2052.76 
L 40.603125 278.68 
" style="fill:none;stroke:#000000;stroke-linecap:square;stroke-linejoin:miter;stroke-width:0.8;"/>
   </g>
   <g id="patch_4">
    <path d="M 1826.203125 2052.76 
L 1826.203125 278.68 
" style="fill:none;stroke:#000000;stroke-linecap:square;stroke-linejoin:miter;stroke-width:0.8;"/>
   </g>
   <g id="patch_5">
    <path d="M 40.603125 2052.76 
L 1826.203125 2052.76 
" style="fill:none;stroke:#000000;stroke-linecap:square;stroke-linejoin:miter;stroke-width:0.8;"/>
   </g>
   <g id="patch_6">
    <path d="M 40.603125 278.68 
L 1826.203125 278.68 
" style="fill:none;stroke:#000000;stroke-linecap:square;stroke-linejoin:miter;stroke-width:0.8;"/>
   </g>
   <g id="text_14">
    <text style="font-family:DejaVu Sans;font-size:12px;font-stretch:normal;font-style:normal;font-weight:normal;text-anchor:middle;" transform="rotate(-0, 933.403125, 272.68)" x="933.403125" y="272.68">temperature-&gt;ping</text>
   </g>
  </g>
  <g id="legend_1">
   <g id="patch_7">
    <path d="M 1975.2375 22.678125 
L 2051.803125 22.678125 
Q 2053.803125 22.678125 2053.803125 20.678125 
L 2053.803125 7 
Q 2053.803125 5 2051.803125 5 
L 1975.2375 5 
Q 1973.2375 5 1973.2375 7 
L 1973.2375 20.678125 
Q 1973.2375 22.678125 1975.2375 22.678125 
z
" style="fill:#ffffff;opacity:0.8;stroke:#cccccc;stroke-linejoin:miter;"/>
   </g>
   <g id="line2d_13">
    <path d="M 1977.2375 13.098437 
L 1997.2375 13.098437 
" style="fill:none;stroke:#0000ff;stroke-linecap:square;stroke-width:1.5;"/>
   </g>
   <g id="line2d_14"/>
   <g id="text_15">
    <text style="font-family:DejaVu Sans;font-size:10px;font-stretch:normal;font-style:normal;font-weight:normal;text-anchor:start;" transform="rotate(-0, 2005.2375, 16.598437)" x="2005.2375" y="16.598437">ping[ms]</text>
   </g>
  </g>
 </g>
 <defs>
  <clipPath id="pcad5633d62">
   <rect height="1774.08" width="1785.6" x="40.603125" y="278.68"/>
  </clipPath>
 </defs>
</svg>
