<?xml version="1.0" encoding="utf-8" standalone="no"?>
<!DOCTYPE svg PUBLIC "-//W3C//DTD SVG 1.1//EN"
  "http://www.w3.org/Graphics/SVG/1.1/DTD/svg11.dtd">
<!-- Created with matplotlib (https://matplotlib.org/) -->
<svg height="2090.594375pt" version="1.1" viewBox="0 0 2061.98125 2090.594375" width="2061.98125pt" xmlns="http://www.w3.org/2000/svg" xmlns:xlink="http://www.w3.org/1999/xlink">
 <metadata>
  <rdf:RDF xmlns:cc="http://creativecommons.org/ns#" xmlns:dc="http://purl.org/dc/elements/1.1/" xmlns:rdf="http://www.w3.org/1999/02/22-rdf-syntax-ns#">
   <cc:Work>
    <dc:type rdf:resource="http://purl.org/dc/dcmitype/StillImage"/>
    <dc:date>2022-07-24T11:32:33.765400</dc:date>
    <dc:format>image/svg+xml</dc:format>
    <dc:creator>
     <cc:Agent>
      <dc:title>Matplotlib v3.3.2, https://matplotlib.org/</dc:title>
     </cc:Agent>
    </dc:creator>
   </cc:Work>
  </rdf:RDF>
 </metadata>
 <defs>
  <style type="text/css">*{stroke-linecap:butt;stroke-linejoin:round;}</style>
 </defs>
 <g id="figure_1">
  <g id="patch_1">
   <path d="M 0 2090.594375 
L 2061.98125 2090.594375 
L 2061.98125 0 
L 0 0 
z
" style="fill:#ffffff;"/>
  </g>
  <g id="axes_1">
   <g id="patch_2">
    <path d="M 43.78125 2052.76 
L 1829.38125 2052.76 
L 1829.38125 278.68 
L 43.78125 278.68 
z
" style="fill:#ffffff;"/>
   </g>
   <g id="matplotlib.axis_1">
    <g id="xtick_1">
     <g id="line2d_1">
      <defs>
       <path d="M 0 0 
L 0 3.5 
" id="ma51b5afbe7" style="stroke:#000000;stroke-width:0.8;"/>
      </defs>
      <g>
       <use style="stroke:#000000;stroke-width:0.8;" x="410.520644" xlink:href="#ma51b5afbe7" y="2052.76"/>
      </g>
     </g>
     <g id="text_1">
      <text style="font-family:DejaVu Sans;font-size:10px;font-stretch:normal;font-style:normal;font-weight:normal;text-anchor:middle;" transform="rotate(-0, 410.520644, 2067.358437)" x="410.520644" y="2067.358437">1010</text>
     </g>
    </g>
    <g id="xtick_2">
     <g id="line2d_2">
      <g>
       <use style="stroke:#000000;stroke-width:0.8;" x="786.27822" xlink:href="#ma51b5afbe7" y="2052.76"/>
      </g>
     </g>
     <g id="text_2">
      <text style="font-family:DejaVu Sans;font-size:10px;font-stretch:normal;font-style:normal;font-weight:normal;text-anchor:middle;" transform="rotate(-0, 786.27822, 2067.358437)" x="786.27822" y="2067.358437">1015</text>
     </g>
    </g>
    <g id="xtick_3">
     <g id="line2d_3">
      <g>
       <use style="stroke:#000000;stroke-width:0.8;" x="1162.035795" xlink:href="#ma51b5afbe7" y="2052.76"/>
      </g>
     </g>
     <g id="text_3">
      <text style="font-family:DejaVu Sans;font-size:10px;font-stretch:normal;font-style:normal;font-weight:normal;text-anchor:middle;" transform="rotate(-0, 1162.035795, 2067.358437)" x="1162.035795" y="2067.358437">1020</text>
     </g>
    </g>
    <g id="xtick_4">
     <g id="line2d_4">
      <g>
       <use style="stroke:#000000;stroke-width:0.8;" x="1537.793371" xlink:href="#ma51b5afbe7" y="2052.76"/>
      </g>
     </g>
     <g id="text_4">
      <text style="font-family:DejaVu Sans;font-size:10px;font-stretch:normal;font-style:normal;font-weight:normal;text-anchor:middle;" transform="rotate(-0, 1537.793371, 2067.358437)" x="1537.793371" y="2067.358437">1025</text>
     </g>
    </g>
    <g id="text_5">
     <text style="font-family:DejaVu Sans;font-size:10px;font-stretch:normal;font-style:normal;font-weight:normal;text-anchor:middle;" transform="rotate(-0, 936.58125, 2081.036562)" x="936.58125" y="2081.036562">air_pressure from Aeris</text>
    </g>
   </g>
   <g id="matplotlib.axis_2">
    <g id="ytick_1">
     <g id="line2d_5">
      <defs>
       <path d="M 0 0 
L -3.5 0 
" id="m4e5bb7e116" style="stroke:#000000;stroke-width:0.8;"/>
      </defs>
      <g>
       <use style="stroke:#000000;stroke-width:0.8;" x="43.78125" xlink:href="#m4e5bb7e116" y="1797.391911"/>
      </g>
     </g>
     <g id="text_6">
      <text style="font-family:DejaVu Sans;font-size:10px;font-stretch:normal;font-style:normal;font-weight:normal;text-anchor:end;" transform="rotate(-0, 36.78125, 1801.191129)" x="36.78125" y="1801.191129">4.2</text>
     </g>
    </g>
    <g id="ytick_2">
     <g id="line2d_6">
      <g>
       <use style="stroke:#000000;stroke-width:0.8;" x="43.78125" xlink:href="#m4e5bb7e116" y="1498.711416"/>
      </g>
     </g>
     <g id="text_7">
      <text style="font-family:DejaVu Sans;font-size:10px;font-stretch:normal;font-style:normal;font-weight:normal;text-anchor:end;" transform="rotate(-0, 36.78125, 1502.510635)" x="36.78125" y="1502.510635">4.4</text>
     </g>
    </g>
    <g id="ytick_3">
     <g id="line2d_7">
      <g>
       <use style="stroke:#000000;stroke-width:0.8;" x="43.78125" xlink:href="#m4e5bb7e116" y="1200.030922"/>
      </g>
     </g>
     <g id="text_8">
      <text style="font-family:DejaVu Sans;font-size:10px;font-stretch:normal;font-style:normal;font-weight:normal;text-anchor:end;" transform="rotate(-0, 36.78125, 1203.830141)" x="36.78125" y="1203.830141">4.6</text>
     </g>
    </g>
    <g id="ytick_4">
     <g id="line2d_8">
      <g>
       <use style="stroke:#000000;stroke-width:0.8;" x="43.78125" xlink:href="#m4e5bb7e116" y="901.350427"/>
      </g>
     </g>
     <g id="text_9">
      <text style="font-family:DejaVu Sans;font-size:10px;font-stretch:normal;font-style:normal;font-weight:normal;text-anchor:end;" transform="rotate(-0, 36.78125, 905.149646)" x="36.78125" y="905.149646">4.8</text>
     </g>
    </g>
    <g id="ytick_5">
     <g id="line2d_9">
      <g>
       <use style="stroke:#000000;stroke-width:0.8;" x="43.78125" xlink:href="#m4e5bb7e116" y="602.669933"/>
      </g>
     </g>
     <g id="text_10">
      <text style="font-family:DejaVu Sans;font-size:10px;font-stretch:normal;font-style:normal;font-weight:normal;text-anchor:end;" transform="rotate(-0, 36.78125, 606.469152)" x="36.78125" y="606.469152">5.0</text>
     </g>
    </g>
    <g id="ytick_6">
     <g id="line2d_10">
      <g>
       <use style="stroke:#000000;stroke-width:0.8;" x="43.78125" xlink:href="#m4e5bb7e116" y="303.989438"/>
      </g>
     </g>
     <g id="text_11">
      <text style="font-family:DejaVu Sans;font-size:10px;font-stretch:normal;font-style:normal;font-weight:normal;text-anchor:end;" transform="rotate(-0, 36.78125, 307.788657)" x="36.78125" y="307.788657">5.2</text>
     </g>
    </g>
    <g id="text_12">
     <text style="font-family:DejaVu Sans;font-size:10px;font-stretch:normal;font-style:normal;font-weight:normal;text-anchor:middle;" transform="rotate(-90, 14.798437, 1165.72)" x="14.798437" y="1165.72">ping[ms]</text>
    </g>
   </g>
   <g id="line2d_11">
    <path clip-path="url(#p2e9d08c49c)" d="M 124.944886 1181.761632 
L 139.975189 1972.12 
L 147.490341 703.367928 
L 162.520644 1413.587475 
L 170.035795 1178.376586 
L 177.550947 626.713713 
L 192.58125 1213.222644 
L 200.096402 1095.134332 
L 215.126705 1221.091726 
L 222.641856 1035.75665 
L 237.672159 1296.604282 
L 245.187311 915.687091 
L 260.217614 1474.472345 
L 267.732765 1133.999107 
L 275.247917 1129.611251 
L 290.27822 1107.605902 
L 297.793371 1312.19167 
L 312.823674 1466.354363 
L 320.338826 713.928417 
L 342.88428 1308.302601 
L 350.399432 1293.321487 
L 357.914583 941.672294 
L 365.429735 1102.013238 
L 372.944886 1388.785281 
L 387.975189 1309.646663 
L 395.490341 1188.61706 
L 410.520644 1452.042589 
L 418.035795 1147.388485 
L 425.550947 1055.422579 
L 440.58125 1309.25211 
L 448.096402 1293.741927 
L 463.126705 1038.743455 
L 470.641856 1009.472766 
L 493.187311 1407.812986 
L 500.702462 1014.683082 
L 515.732765 1316.054071 
L 538.27822 1431.420458 
L 545.793371 359.32 
L 560.823674 1076.078517 
L 568.338826 1292.98612 
L 575.853977 1334.223801 
L 590.88428 1369.080152 
L 598.399432 1780.964484 
L 613.429735 1307.076884 
L 620.944886 1279.181253 
L 635.975189 1357.691554 
L 643.490341 1384.416347 
L 666.035795 1303.149623 
L 673.550947 1152.988744 
L 688.58125 1357.667849 
L 696.096402 1328.829841 
L 718.641856 1148.411562 
L 726.157008 1382.226023 
L 741.187311 1336.361974 
L 748.702462 1283.554789 
L 763.732765 981.807486 
L 793.793371 1312.307364 
L 801.308523 1185.096897 
L 816.338826 1303.950282 
L 823.853977 1275.341075 
L 838.88428 1333.254867 
L 846.399432 1312.630257 
L 861.429735 1241.597291 
L 868.944886 1293.611586 
L 876.460038 1332.264923 
L 891.490341 1364.623944 
L 899.005492 1263.78772 
L 914.035795 815.547667 
L 921.550947 1202.895317 
L 944.096402 1307.878264 
L 966.641856 1375.584775 
L 996.702462 1193.269127 
L 1019.247917 1334.550091 
L 1026.763068 1011.675535 
L 1041.793371 1369.167434 
L 1049.308523 1246.923759 
L 1071.853977 1202.768826 
L 1094.399432 1257.093349 
L 1101.914583 1202.457701 
L 1116.944886 1340.742621 
L 1124.460038 1601.96953 
L 1147.005492 1037.648293 
L 1169.550947 1243.860319 
L 1177.066098 1418.067683 
L 1192.096402 1356.791145 
L 1222.157008 977.513953 
L 1244.702462 1179.3921 
L 1267.247917 1304.418385 
L 1289.793371 1848.914296 
L 1297.308523 1413.465565 
L 1319.853977 1296.454002 
L 1342.399432 1309.535424 
L 1372.460038 1299.102175 
L 1395.005492 1309.958678 
L 1417.550947 1316.866416 
L 1447.611553 1328.996892 
L 1470.157008 1355.958382 
L 1492.702462 1418.697712 
L 1522.763068 1514.035024 
L 1545.308523 1370.416035 
L 1567.853977 1375.81532 
L 1597.914583 1168.66947 
L 1620.460038 1260.424118 
L 1643.005492 1362.531778 
L 1695.611553 1372.104073 
L 1748.217614 1456.896147 
" style="fill:none;stroke:#0000ff;stroke-linecap:square;stroke-width:1.5;"/>
   </g>
   <g id="patch_3">
    <path d="M 43.78125 2052.76 
L 43.78125 278.68 
" style="fill:none;stroke:#000000;stroke-linecap:square;stroke-linejoin:miter;stroke-width:0.8;"/>
   </g>
   <g id="patch_4">
    <path d="M 1829.38125 2052.76 
L 1829.38125 278.68 
" style="fill:none;stroke:#000000;stroke-linecap:square;stroke-linejoin:miter;stroke-width:0.8;"/>
   </g>
   <g id="patch_5">
    <path d="M 43.78125 2052.76 
L 1829.38125 2052.76 
" style="fill:none;stroke:#000000;stroke-linecap:square;stroke-linejoin:miter;stroke-width:0.8;"/>
   </g>
   <g id="patch_6">
    <path d="M 43.78125 278.68 
L 1829.38125 278.68 
" style="fill:none;stroke:#000000;stroke-linecap:square;stroke-linejoin:miter;stroke-width:0.8;"/>
   </g>
   <g id="text_13">
    <text style="font-family:DejaVu Sans;font-size:12px;font-stretch:normal;font-style:normal;font-weight:normal;text-anchor:middle;" transform="rotate(-0, 936.58125, 272.68)" x="936.58125" y="272.68">air_pressure-&gt;ping</text>
   </g>
  </g>
  <g id="legend_1">
   <g id="patch_7">
    <path d="M 1978.415625 22.678125 
L 2054.98125 22.678125 
Q 2056.98125 22.678125 2056.98125 20.678125 
L 2056.98125 7 
Q 2056.98125 5 2054.98125 5 
L 1978.415625 5 
Q 1976.415625 5 1976.415625 7 
L 1976.415625 20.678125 
Q 1976.415625 22.678125 1978.415625 22.678125 
z
" style="fill:#ffffff;opacity:0.8;stroke:#cccccc;stroke-linejoin:miter;"/>
   </g>
   <g id="line2d_12">
    <path d="M 1980.415625 13.098437 
L 2000.415625 13.098437 
" style="fill:none;stroke:#0000ff;stroke-linecap:square;stroke-width:1.5;"/>
   </g>
   <g id="line2d_13"/>
   <g id="text_14">
    <text style="font-family:DejaVu Sans;font-size:10px;font-stretch:normal;font-style:normal;font-weight:normal;text-anchor:start;" transform="rotate(-0, 2008.415625, 16.598437)" x="2008.415625" y="16.598437">ping[ms]</text>
   </g>
  </g>
 </g>
 <defs>
  <clipPath id="p2e9d08c49c">
   <rect height="1774.08" width="1785.6" x="43.78125" y="278.68"/>
  </clipPath>
 </defs>
</svg>
