<?xml version="1.0" encoding="utf-8" standalone="no"?>
<!DOCTYPE svg PUBLIC "-//W3C//DTD SVG 1.1//EN"
  "http://www.w3.org/Graphics/SVG/1.1/DTD/svg11.dtd">
<!-- Created with matplotlib (https://matplotlib.org/) -->
<svg height="345.6pt" version="1.1" viewBox="0 0 460.8 345.6" width="460.8pt" xmlns="http://www.w3.org/2000/svg" xmlns:xlink="http://www.w3.org/1999/xlink">
 <metadata>
  <rdf:RDF xmlns:cc="http://creativecommons.org/ns#" xmlns:dc="http://purl.org/dc/elements/1.1/" xmlns:rdf="http://www.w3.org/1999/02/22-rdf-syntax-ns#">
   <cc:Work>
    <dc:type rdf:resource="http://purl.org/dc/dcmitype/StillImage"/>
    <dc:date>2022-07-16T22:10:08.526003</dc:date>
    <dc:format>image/svg+xml</dc:format>
    <dc:creator>
     <cc:Agent>
      <dc:title>Matplotlib v3.3.2, https://matplotlib.org/</dc:title>
     </cc:Agent>
    </dc:creator>
   </cc:Work>
  </rdf:RDF>
 </metadata>
 <defs>
  <style type="text/css">*{stroke-linecap:butt;stroke-linejoin:round;}</style>
 </defs>
 <g id="figure_1">
  <g id="patch_1">
   <path d="M 0 345.6 
L 460.8 345.6 
L 460.8 0 
L 0 0 
z
" style="fill:#ffffff;"/>
  </g>
  <g id="axes_1">
   <g id="patch_2">
    <path d="M 57.6 307.584 
L 414.72 307.584 
L 414.72 41.472 
L 57.6 41.472 
z
" style="fill:#ffffff;"/>
   </g>
   <g id="matplotlib.axis_1">
    <g id="xtick_1">
     <g id="line2d_1">
      <defs>
       <path d="M 0 0 
L 0 3.5 
" id="m963b6932b7" style="stroke:#000000;stroke-width:0.8;"/>
      </defs>
      <g>
       <use style="stroke:#000000;stroke-width:0.8;" x="63.210784" xlink:href="#m963b6932b7" y="307.584"/>
      </g>
     </g>
     <g id="text_1">
      <!-- 1005.0 -->
      <g transform="translate(45.715472 322.182437)scale(0.1 -0.1)">
       <defs>
        <path d="M 12.40625 8.296875 
L 28.515625 8.296875 
L 28.515625 63.921875 
L 10.984375 60.40625 
L 10.984375 69.390625 
L 28.421875 72.90625 
L 38.28125 72.90625 
L 38.28125 8.296875 
L 54.390625 8.296875 
L 54.390625 0 
L 12.40625 0 
z
" id="DejaVuSans-49"/>
        <path d="M 31.78125 66.40625 
Q 24.171875 66.40625 20.328125 58.90625 
Q 16.5 51.421875 16.5 36.375 
Q 16.5 21.390625 20.328125 13.890625 
Q 24.171875 6.390625 31.78125 6.390625 
Q 39.453125 6.390625 43.28125 13.890625 
Q 47.125 21.390625 47.125 36.375 
Q 47.125 51.421875 43.28125 58.90625 
Q 39.453125 66.40625 31.78125 66.40625 
z
M 31.78125 74.21875 
Q 44.046875 74.21875 50.515625 64.515625 
Q 56.984375 54.828125 56.984375 36.375 
Q 56.984375 17.96875 50.515625 8.265625 
Q 44.046875 -1.421875 31.78125 -1.421875 
Q 19.53125 -1.421875 13.0625 8.265625 
Q 6.59375 17.96875 6.59375 36.375 
Q 6.59375 54.828125 13.0625 64.515625 
Q 19.53125 74.21875 31.78125 74.21875 
z
" id="DejaVuSans-48"/>
        <path d="M 10.796875 72.90625 
L 49.515625 72.90625 
L 49.515625 64.59375 
L 19.828125 64.59375 
L 19.828125 46.734375 
Q 21.96875 47.46875 24.109375 47.828125 
Q 26.265625 48.1875 28.421875 48.1875 
Q 40.625 48.1875 47.75 41.5 
Q 54.890625 34.8125 54.890625 23.390625 
Q 54.890625 11.625 47.5625 5.09375 
Q 40.234375 -1.421875 26.90625 -1.421875 
Q 22.3125 -1.421875 17.546875 -0.640625 
Q 12.796875 0.140625 7.71875 1.703125 
L 7.71875 11.625 
Q 12.109375 9.234375 16.796875 8.0625 
Q 21.484375 6.890625 26.703125 6.890625 
Q 35.15625 6.890625 40.078125 11.328125 
Q 45.015625 15.765625 45.015625 23.390625 
Q 45.015625 31 40.078125 35.4375 
Q 35.15625 39.890625 26.703125 39.890625 
Q 22.75 39.890625 18.8125 39.015625 
Q 14.890625 38.140625 10.796875 36.28125 
z
" id="DejaVuSans-53"/>
        <path d="M 10.6875 12.40625 
L 21 12.40625 
L 21 0 
L 10.6875 0 
z
" id="DejaVuSans-46"/>
       </defs>
       <use xlink:href="#DejaVuSans-49"/>
       <use x="63.623047" xlink:href="#DejaVuSans-48"/>
       <use x="127.246094" xlink:href="#DejaVuSans-48"/>
       <use x="190.869141" xlink:href="#DejaVuSans-53"/>
       <use x="254.492188" xlink:href="#DejaVuSans-46"/>
       <use x="286.279297" xlink:href="#DejaVuSans-48"/>
      </g>
     </g>
    </g>
    <g id="xtick_2">
     <g id="line2d_2">
      <g>
       <use style="stroke:#000000;stroke-width:0.8;" x="106.041199" xlink:href="#m963b6932b7" y="307.584"/>
      </g>
     </g>
     <g id="text_2">
      <!-- 1007.5 -->
      <g transform="translate(88.545887 322.182437)scale(0.1 -0.1)">
       <defs>
        <path d="M 8.203125 72.90625 
L 55.078125 72.90625 
L 55.078125 68.703125 
L 28.609375 0 
L 18.3125 0 
L 43.21875 64.59375 
L 8.203125 64.59375 
z
" id="DejaVuSans-55"/>
       </defs>
       <use xlink:href="#DejaVuSans-49"/>
       <use x="63.623047" xlink:href="#DejaVuSans-48"/>
       <use x="127.246094" xlink:href="#DejaVuSans-48"/>
       <use x="190.869141" xlink:href="#DejaVuSans-55"/>
       <use x="254.492188" xlink:href="#DejaVuSans-46"/>
       <use x="286.279297" xlink:href="#DejaVuSans-53"/>
      </g>
     </g>
    </g>
    <g id="xtick_3">
     <g id="line2d_3">
      <g>
       <use style="stroke:#000000;stroke-width:0.8;" x="148.871614" xlink:href="#m963b6932b7" y="307.584"/>
      </g>
     </g>
     <g id="text_3">
      <!-- 1010.0 -->
      <g transform="translate(131.376302 322.182437)scale(0.1 -0.1)">
       <use xlink:href="#DejaVuSans-49"/>
       <use x="63.623047" xlink:href="#DejaVuSans-48"/>
       <use x="127.246094" xlink:href="#DejaVuSans-49"/>
       <use x="190.869141" xlink:href="#DejaVuSans-48"/>
       <use x="254.492188" xlink:href="#DejaVuSans-46"/>
       <use x="286.279297" xlink:href="#DejaVuSans-48"/>
      </g>
     </g>
    </g>
    <g id="xtick_4">
     <g id="line2d_4">
      <g>
       <use style="stroke:#000000;stroke-width:0.8;" x="191.702029" xlink:href="#m963b6932b7" y="307.584"/>
      </g>
     </g>
     <g id="text_4">
      <!-- 1012.5 -->
      <g transform="translate(174.206717 322.182437)scale(0.1 -0.1)">
       <defs>
        <path d="M 19.1875 8.296875 
L 53.609375 8.296875 
L 53.609375 0 
L 7.328125 0 
L 7.328125 8.296875 
Q 12.9375 14.109375 22.625 23.890625 
Q 32.328125 33.6875 34.8125 36.53125 
Q 39.546875 41.84375 41.421875 45.53125 
Q 43.3125 49.21875 43.3125 52.78125 
Q 43.3125 58.59375 39.234375 62.25 
Q 35.15625 65.921875 28.609375 65.921875 
Q 23.96875 65.921875 18.8125 64.3125 
Q 13.671875 62.703125 7.8125 59.421875 
L 7.8125 69.390625 
Q 13.765625 71.78125 18.9375 73 
Q 24.125 74.21875 28.421875 74.21875 
Q 39.75 74.21875 46.484375 68.546875 
Q 53.21875 62.890625 53.21875 53.421875 
Q 53.21875 48.921875 51.53125 44.890625 
Q 49.859375 40.875 45.40625 35.40625 
Q 44.1875 33.984375 37.640625 27.21875 
Q 31.109375 20.453125 19.1875 8.296875 
z
" id="DejaVuSans-50"/>
       </defs>
       <use xlink:href="#DejaVuSans-49"/>
       <use x="63.623047" xlink:href="#DejaVuSans-48"/>
       <use x="127.246094" xlink:href="#DejaVuSans-49"/>
       <use x="190.869141" xlink:href="#DejaVuSans-50"/>
       <use x="254.492188" xlink:href="#DejaVuSans-46"/>
       <use x="286.279297" xlink:href="#DejaVuSans-53"/>
      </g>
     </g>
    </g>
    <g id="xtick_5">
     <g id="line2d_5">
      <g>
       <use style="stroke:#000000;stroke-width:0.8;" x="234.532444" xlink:href="#m963b6932b7" y="307.584"/>
      </g>
     </g>
     <g id="text_5">
      <!-- 1015.0 -->
      <g transform="translate(217.037132 322.182437)scale(0.1 -0.1)">
       <use xlink:href="#DejaVuSans-49"/>
       <use x="63.623047" xlink:href="#DejaVuSans-48"/>
       <use x="127.246094" xlink:href="#DejaVuSans-49"/>
       <use x="190.869141" xlink:href="#DejaVuSans-53"/>
       <use x="254.492188" xlink:href="#DejaVuSans-46"/>
       <use x="286.279297" xlink:href="#DejaVuSans-48"/>
      </g>
     </g>
    </g>
    <g id="xtick_6">
     <g id="line2d_6">
      <g>
       <use style="stroke:#000000;stroke-width:0.8;" x="277.362859" xlink:href="#m963b6932b7" y="307.584"/>
      </g>
     </g>
     <g id="text_6">
      <!-- 1017.5 -->
      <g transform="translate(259.867547 322.182437)scale(0.1 -0.1)">
       <use xlink:href="#DejaVuSans-49"/>
       <use x="63.623047" xlink:href="#DejaVuSans-48"/>
       <use x="127.246094" xlink:href="#DejaVuSans-49"/>
       <use x="190.869141" xlink:href="#DejaVuSans-55"/>
       <use x="254.492188" xlink:href="#DejaVuSans-46"/>
       <use x="286.279297" xlink:href="#DejaVuSans-53"/>
      </g>
     </g>
    </g>
    <g id="xtick_7">
     <g id="line2d_7">
      <g>
       <use style="stroke:#000000;stroke-width:0.8;" x="320.193274" xlink:href="#m963b6932b7" y="307.584"/>
      </g>
     </g>
     <g id="text_7">
      <!-- 1020.0 -->
      <g transform="translate(302.697962 322.182437)scale(0.1 -0.1)">
       <use xlink:href="#DejaVuSans-49"/>
       <use x="63.623047" xlink:href="#DejaVuSans-48"/>
       <use x="127.246094" xlink:href="#DejaVuSans-50"/>
       <use x="190.869141" xlink:href="#DejaVuSans-48"/>
       <use x="254.492188" xlink:href="#DejaVuSans-46"/>
       <use x="286.279297" xlink:href="#DejaVuSans-48"/>
      </g>
     </g>
    </g>
    <g id="xtick_8">
     <g id="line2d_8">
      <g>
       <use style="stroke:#000000;stroke-width:0.8;" x="363.023689" xlink:href="#m963b6932b7" y="307.584"/>
      </g>
     </g>
     <g id="text_8">
      <!-- 1022.5 -->
      <g transform="translate(345.528377 322.182437)scale(0.1 -0.1)">
       <use xlink:href="#DejaVuSans-49"/>
       <use x="63.623047" xlink:href="#DejaVuSans-48"/>
       <use x="127.246094" xlink:href="#DejaVuSans-50"/>
       <use x="190.869141" xlink:href="#DejaVuSans-50"/>
       <use x="254.492188" xlink:href="#DejaVuSans-46"/>
       <use x="286.279297" xlink:href="#DejaVuSans-53"/>
      </g>
     </g>
    </g>
    <g id="xtick_9">
     <g id="line2d_9">
      <g>
       <use style="stroke:#000000;stroke-width:0.8;" x="405.854104" xlink:href="#m963b6932b7" y="307.584"/>
      </g>
     </g>
     <g id="text_9">
      <!-- 1025.0 -->
      <g transform="translate(388.358792 322.182437)scale(0.1 -0.1)">
       <use xlink:href="#DejaVuSans-49"/>
       <use x="63.623047" xlink:href="#DejaVuSans-48"/>
       <use x="127.246094" xlink:href="#DejaVuSans-50"/>
       <use x="190.869141" xlink:href="#DejaVuSans-53"/>
       <use x="254.492188" xlink:href="#DejaVuSans-46"/>
       <use x="286.279297" xlink:href="#DejaVuSans-48"/>
      </g>
     </g>
    </g>
    <g id="text_10">
     <!-- air_pressure from Foreca -->
     <g transform="translate(174.162344 335.860562)scale(0.1 -0.1)">
      <defs>
       <path d="M 34.28125 27.484375 
Q 23.390625 27.484375 19.1875 25 
Q 14.984375 22.515625 14.984375 16.5 
Q 14.984375 11.71875 18.140625 8.90625 
Q 21.296875 6.109375 26.703125 6.109375 
Q 34.1875 6.109375 38.703125 11.40625 
Q 43.21875 16.703125 43.21875 25.484375 
L 43.21875 27.484375 
z
M 52.203125 31.203125 
L 52.203125 0 
L 43.21875 0 
L 43.21875 8.296875 
Q 40.140625 3.328125 35.546875 0.953125 
Q 30.953125 -1.421875 24.3125 -1.421875 
Q 15.921875 -1.421875 10.953125 3.296875 
Q 6 8.015625 6 15.921875 
Q 6 25.140625 12.171875 29.828125 
Q 18.359375 34.515625 30.609375 34.515625 
L 43.21875 34.515625 
L 43.21875 35.40625 
Q 43.21875 41.609375 39.140625 45 
Q 35.0625 48.390625 27.6875 48.390625 
Q 23 48.390625 18.546875 47.265625 
Q 14.109375 46.140625 10.015625 43.890625 
L 10.015625 52.203125 
Q 14.9375 54.109375 19.578125 55.046875 
Q 24.21875 56 28.609375 56 
Q 40.484375 56 46.34375 49.84375 
Q 52.203125 43.703125 52.203125 31.203125 
z
" id="DejaVuSans-97"/>
       <path d="M 9.421875 54.6875 
L 18.40625 54.6875 
L 18.40625 0 
L 9.421875 0 
z
M 9.421875 75.984375 
L 18.40625 75.984375 
L 18.40625 64.59375 
L 9.421875 64.59375 
z
" id="DejaVuSans-105"/>
       <path d="M 41.109375 46.296875 
Q 39.59375 47.171875 37.8125 47.578125 
Q 36.03125 48 33.890625 48 
Q 26.265625 48 22.1875 43.046875 
Q 18.109375 38.09375 18.109375 28.8125 
L 18.109375 0 
L 9.078125 0 
L 9.078125 54.6875 
L 18.109375 54.6875 
L 18.109375 46.1875 
Q 20.953125 51.171875 25.484375 53.578125 
Q 30.03125 56 36.53125 56 
Q 37.453125 56 38.578125 55.875 
Q 39.703125 55.765625 41.0625 55.515625 
z
" id="DejaVuSans-114"/>
       <path d="M 50.984375 -16.609375 
L 50.984375 -23.578125 
L -0.984375 -23.578125 
L -0.984375 -16.609375 
z
" id="DejaVuSans-95"/>
       <path d="M 18.109375 8.203125 
L 18.109375 -20.796875 
L 9.078125 -20.796875 
L 9.078125 54.6875 
L 18.109375 54.6875 
L 18.109375 46.390625 
Q 20.953125 51.265625 25.265625 53.625 
Q 29.59375 56 35.59375 56 
Q 45.5625 56 51.78125 48.09375 
Q 58.015625 40.1875 58.015625 27.296875 
Q 58.015625 14.40625 51.78125 6.484375 
Q 45.5625 -1.421875 35.59375 -1.421875 
Q 29.59375 -1.421875 25.265625 0.953125 
Q 20.953125 3.328125 18.109375 8.203125 
z
M 48.6875 27.296875 
Q 48.6875 37.203125 44.609375 42.84375 
Q 40.53125 48.484375 33.40625 48.484375 
Q 26.265625 48.484375 22.1875 42.84375 
Q 18.109375 37.203125 18.109375 27.296875 
Q 18.109375 17.390625 22.1875 11.75 
Q 26.265625 6.109375 33.40625 6.109375 
Q 40.53125 6.109375 44.609375 11.75 
Q 48.6875 17.390625 48.6875 27.296875 
z
" id="DejaVuSans-112"/>
       <path d="M 56.203125 29.59375 
L 56.203125 25.203125 
L 14.890625 25.203125 
Q 15.484375 15.921875 20.484375 11.0625 
Q 25.484375 6.203125 34.421875 6.203125 
Q 39.59375 6.203125 44.453125 7.46875 
Q 49.3125 8.734375 54.109375 11.28125 
L 54.109375 2.78125 
Q 49.265625 0.734375 44.1875 -0.34375 
Q 39.109375 -1.421875 33.890625 -1.421875 
Q 20.796875 -1.421875 13.15625 6.1875 
Q 5.515625 13.8125 5.515625 26.8125 
Q 5.515625 40.234375 12.765625 48.109375 
Q 20.015625 56 32.328125 56 
Q 43.359375 56 49.78125 48.890625 
Q 56.203125 41.796875 56.203125 29.59375 
z
M 47.21875 32.234375 
Q 47.125 39.59375 43.09375 43.984375 
Q 39.0625 48.390625 32.421875 48.390625 
Q 24.90625 48.390625 20.390625 44.140625 
Q 15.875 39.890625 15.1875 32.171875 
z
" id="DejaVuSans-101"/>
       <path d="M 44.28125 53.078125 
L 44.28125 44.578125 
Q 40.484375 46.53125 36.375 47.5 
Q 32.28125 48.484375 27.875 48.484375 
Q 21.1875 48.484375 17.84375 46.4375 
Q 14.5 44.390625 14.5 40.28125 
Q 14.5 37.15625 16.890625 35.375 
Q 19.28125 33.59375 26.515625 31.984375 
L 29.59375 31.296875 
Q 39.15625 29.25 43.1875 25.515625 
Q 47.21875 21.78125 47.21875 15.09375 
Q 47.21875 7.46875 41.1875 3.015625 
Q 35.15625 -1.421875 24.609375 -1.421875 
Q 20.21875 -1.421875 15.453125 -0.5625 
Q 10.6875 0.296875 5.421875 2 
L 5.421875 11.28125 
Q 10.40625 8.6875 15.234375 7.390625 
Q 20.0625 6.109375 24.8125 6.109375 
Q 31.15625 6.109375 34.5625 8.28125 
Q 37.984375 10.453125 37.984375 14.40625 
Q 37.984375 18.0625 35.515625 20.015625 
Q 33.0625 21.96875 24.703125 23.78125 
L 21.578125 24.515625 
Q 13.234375 26.265625 9.515625 29.90625 
Q 5.8125 33.546875 5.8125 39.890625 
Q 5.8125 47.609375 11.28125 51.796875 
Q 16.75 56 26.8125 56 
Q 31.78125 56 36.171875 55.265625 
Q 40.578125 54.546875 44.28125 53.078125 
z
" id="DejaVuSans-115"/>
       <path d="M 8.5 21.578125 
L 8.5 54.6875 
L 17.484375 54.6875 
L 17.484375 21.921875 
Q 17.484375 14.15625 20.5 10.265625 
Q 23.53125 6.390625 29.59375 6.390625 
Q 36.859375 6.390625 41.078125 11.03125 
Q 45.3125 15.671875 45.3125 23.6875 
L 45.3125 54.6875 
L 54.296875 54.6875 
L 54.296875 0 
L 45.3125 0 
L 45.3125 8.40625 
Q 42.046875 3.421875 37.71875 1 
Q 33.40625 -1.421875 27.6875 -1.421875 
Q 18.265625 -1.421875 13.375 4.4375 
Q 8.5 10.296875 8.5 21.578125 
z
M 31.109375 56 
z
" id="DejaVuSans-117"/>
       <path id="DejaVuSans-32"/>
       <path d="M 37.109375 75.984375 
L 37.109375 68.5 
L 28.515625 68.5 
Q 23.6875 68.5 21.796875 66.546875 
Q 19.921875 64.59375 19.921875 59.515625 
L 19.921875 54.6875 
L 34.71875 54.6875 
L 34.71875 47.703125 
L 19.921875 47.703125 
L 19.921875 0 
L 10.890625 0 
L 10.890625 47.703125 
L 2.296875 47.703125 
L 2.296875 54.6875 
L 10.890625 54.6875 
L 10.890625 58.5 
Q 10.890625 67.625 15.140625 71.796875 
Q 19.390625 75.984375 28.609375 75.984375 
z
" id="DejaVuSans-102"/>
       <path d="M 30.609375 48.390625 
Q 23.390625 48.390625 19.1875 42.75 
Q 14.984375 37.109375 14.984375 27.296875 
Q 14.984375 17.484375 19.15625 11.84375 
Q 23.34375 6.203125 30.609375 6.203125 
Q 37.796875 6.203125 41.984375 11.859375 
Q 46.1875 17.53125 46.1875 27.296875 
Q 46.1875 37.015625 41.984375 42.703125 
Q 37.796875 48.390625 30.609375 48.390625 
z
M 30.609375 56 
Q 42.328125 56 49.015625 48.375 
Q 55.71875 40.765625 55.71875 27.296875 
Q 55.71875 13.875 49.015625 6.21875 
Q 42.328125 -1.421875 30.609375 -1.421875 
Q 18.84375 -1.421875 12.171875 6.21875 
Q 5.515625 13.875 5.515625 27.296875 
Q 5.515625 40.765625 12.171875 48.375 
Q 18.84375 56 30.609375 56 
z
" id="DejaVuSans-111"/>
       <path d="M 52 44.1875 
Q 55.375 50.25 60.0625 53.125 
Q 64.75 56 71.09375 56 
Q 79.640625 56 84.28125 50.015625 
Q 88.921875 44.046875 88.921875 33.015625 
L 88.921875 0 
L 79.890625 0 
L 79.890625 32.71875 
Q 79.890625 40.578125 77.09375 44.375 
Q 74.3125 48.1875 68.609375 48.1875 
Q 61.625 48.1875 57.5625 43.546875 
Q 53.515625 38.921875 53.515625 30.90625 
L 53.515625 0 
L 44.484375 0 
L 44.484375 32.71875 
Q 44.484375 40.625 41.703125 44.40625 
Q 38.921875 48.1875 33.109375 48.1875 
Q 26.21875 48.1875 22.15625 43.53125 
Q 18.109375 38.875 18.109375 30.90625 
L 18.109375 0 
L 9.078125 0 
L 9.078125 54.6875 
L 18.109375 54.6875 
L 18.109375 46.1875 
Q 21.1875 51.21875 25.484375 53.609375 
Q 29.78125 56 35.6875 56 
Q 41.65625 56 45.828125 52.96875 
Q 50 49.953125 52 44.1875 
z
" id="DejaVuSans-109"/>
       <path d="M 9.8125 72.90625 
L 51.703125 72.90625 
L 51.703125 64.59375 
L 19.671875 64.59375 
L 19.671875 43.109375 
L 48.578125 43.109375 
L 48.578125 34.8125 
L 19.671875 34.8125 
L 19.671875 0 
L 9.8125 0 
z
" id="DejaVuSans-70"/>
       <path d="M 48.78125 52.59375 
L 48.78125 44.1875 
Q 44.96875 46.296875 41.140625 47.34375 
Q 37.3125 48.390625 33.40625 48.390625 
Q 24.65625 48.390625 19.8125 42.84375 
Q 14.984375 37.3125 14.984375 27.296875 
Q 14.984375 17.28125 19.8125 11.734375 
Q 24.65625 6.203125 33.40625 6.203125 
Q 37.3125 6.203125 41.140625 7.25 
Q 44.96875 8.296875 48.78125 10.40625 
L 48.78125 2.09375 
Q 45.015625 0.34375 40.984375 -0.53125 
Q 36.96875 -1.421875 32.421875 -1.421875 
Q 20.0625 -1.421875 12.78125 6.34375 
Q 5.515625 14.109375 5.515625 27.296875 
Q 5.515625 40.671875 12.859375 48.328125 
Q 20.21875 56 33.015625 56 
Q 37.15625 56 41.109375 55.140625 
Q 45.0625 54.296875 48.78125 52.59375 
z
" id="DejaVuSans-99"/>
      </defs>
      <use xlink:href="#DejaVuSans-97"/>
      <use x="61.279297" xlink:href="#DejaVuSans-105"/>
      <use x="89.0625" xlink:href="#DejaVuSans-114"/>
      <use x="130.175781" xlink:href="#DejaVuSans-95"/>
      <use x="180.175781" xlink:href="#DejaVuSans-112"/>
      <use x="243.652344" xlink:href="#DejaVuSans-114"/>
      <use x="282.515625" xlink:href="#DejaVuSans-101"/>
      <use x="344.039062" xlink:href="#DejaVuSans-115"/>
      <use x="396.138672" xlink:href="#DejaVuSans-115"/>
      <use x="448.238281" xlink:href="#DejaVuSans-117"/>
      <use x="511.617188" xlink:href="#DejaVuSans-114"/>
      <use x="550.480469" xlink:href="#DejaVuSans-101"/>
      <use x="612.003906" xlink:href="#DejaVuSans-32"/>
      <use x="643.791016" xlink:href="#DejaVuSans-102"/>
      <use x="678.996094" xlink:href="#DejaVuSans-114"/>
      <use x="717.859375" xlink:href="#DejaVuSans-111"/>
      <use x="779.041016" xlink:href="#DejaVuSans-109"/>
      <use x="876.453125" xlink:href="#DejaVuSans-32"/>
      <use x="908.240234" xlink:href="#DejaVuSans-70"/>
      <use x="962.134766" xlink:href="#DejaVuSans-111"/>
      <use x="1023.316406" xlink:href="#DejaVuSans-114"/>
      <use x="1062.179688" xlink:href="#DejaVuSans-101"/>
      <use x="1123.703125" xlink:href="#DejaVuSans-99"/>
      <use x="1178.683594" xlink:href="#DejaVuSans-97"/>
     </g>
    </g>
   </g>
   <g id="matplotlib.axis_2">
    <g id="ytick_1">
     <g id="line2d_10">
      <defs>
       <path d="M 0 0 
L -3.5 0 
" id="m6030168b3a" style="stroke:#000000;stroke-width:0.8;"/>
      </defs>
      <g>
       <use style="stroke:#000000;stroke-width:0.8;" x="57.6" xlink:href="#m6030168b3a" y="303.83946"/>
      </g>
     </g>
     <g id="text_11">
      <!-- 3.5 -->
      <g transform="translate(34.696875 307.638678)scale(0.1 -0.1)">
       <defs>
        <path d="M 40.578125 39.3125 
Q 47.65625 37.796875 51.625 33 
Q 55.609375 28.21875 55.609375 21.1875 
Q 55.609375 10.40625 48.1875 4.484375 
Q 40.765625 -1.421875 27.09375 -1.421875 
Q 22.515625 -1.421875 17.65625 -0.515625 
Q 12.796875 0.390625 7.625 2.203125 
L 7.625 11.71875 
Q 11.71875 9.328125 16.59375 8.109375 
Q 21.484375 6.890625 26.8125 6.890625 
Q 36.078125 6.890625 40.9375 10.546875 
Q 45.796875 14.203125 45.796875 21.1875 
Q 45.796875 27.640625 41.28125 31.265625 
Q 36.765625 34.90625 28.71875 34.90625 
L 20.21875 34.90625 
L 20.21875 43.015625 
L 29.109375 43.015625 
Q 36.375 43.015625 40.234375 45.921875 
Q 44.09375 48.828125 44.09375 54.296875 
Q 44.09375 59.90625 40.109375 62.90625 
Q 36.140625 65.921875 28.71875 65.921875 
Q 24.65625 65.921875 20.015625 65.03125 
Q 15.375 64.15625 9.8125 62.3125 
L 9.8125 71.09375 
Q 15.4375 72.65625 20.34375 73.4375 
Q 25.25 74.21875 29.59375 74.21875 
Q 40.828125 74.21875 47.359375 69.109375 
Q 53.90625 64.015625 53.90625 55.328125 
Q 53.90625 49.265625 50.4375 45.09375 
Q 46.96875 40.921875 40.578125 39.3125 
z
" id="DejaVuSans-51"/>
       </defs>
       <use xlink:href="#DejaVuSans-51"/>
       <use x="63.623047" xlink:href="#DejaVuSans-46"/>
       <use x="95.410156" xlink:href="#DejaVuSans-53"/>
      </g>
     </g>
    </g>
    <g id="ytick_2">
     <g id="line2d_11">
      <g>
       <use style="stroke:#000000;stroke-width:0.8;" x="57.6" xlink:href="#m6030168b3a" y="258.451092"/>
      </g>
     </g>
     <g id="text_12">
      <!-- 4.0 -->
      <g transform="translate(34.696875 262.250311)scale(0.1 -0.1)">
       <defs>
        <path d="M 37.796875 64.3125 
L 12.890625 25.390625 
L 37.796875 25.390625 
z
M 35.203125 72.90625 
L 47.609375 72.90625 
L 47.609375 25.390625 
L 58.015625 25.390625 
L 58.015625 17.1875 
L 47.609375 17.1875 
L 47.609375 0 
L 37.796875 0 
L 37.796875 17.1875 
L 4.890625 17.1875 
L 4.890625 26.703125 
z
" id="DejaVuSans-52"/>
       </defs>
       <use xlink:href="#DejaVuSans-52"/>
       <use x="63.623047" xlink:href="#DejaVuSans-46"/>
       <use x="95.410156" xlink:href="#DejaVuSans-48"/>
      </g>
     </g>
    </g>
    <g id="ytick_3">
     <g id="line2d_12">
      <g>
       <use style="stroke:#000000;stroke-width:0.8;" x="57.6" xlink:href="#m6030168b3a" y="213.062724"/>
      </g>
     </g>
     <g id="text_13">
      <!-- 4.5 -->
      <g transform="translate(34.696875 216.861943)scale(0.1 -0.1)">
       <use xlink:href="#DejaVuSans-52"/>
       <use x="63.623047" xlink:href="#DejaVuSans-46"/>
       <use x="95.410156" xlink:href="#DejaVuSans-53"/>
      </g>
     </g>
    </g>
    <g id="ytick_4">
     <g id="line2d_13">
      <g>
       <use style="stroke:#000000;stroke-width:0.8;" x="57.6" xlink:href="#m6030168b3a" y="167.674356"/>
      </g>
     </g>
     <g id="text_14">
      <!-- 5.0 -->
      <g transform="translate(34.696875 171.473575)scale(0.1 -0.1)">
       <use xlink:href="#DejaVuSans-53"/>
       <use x="63.623047" xlink:href="#DejaVuSans-46"/>
       <use x="95.410156" xlink:href="#DejaVuSans-48"/>
      </g>
     </g>
    </g>
    <g id="ytick_5">
     <g id="line2d_14">
      <g>
       <use style="stroke:#000000;stroke-width:0.8;" x="57.6" xlink:href="#m6030168b3a" y="122.285989"/>
      </g>
     </g>
     <g id="text_15">
      <!-- 5.5 -->
      <g transform="translate(34.696875 126.085207)scale(0.1 -0.1)">
       <use xlink:href="#DejaVuSans-53"/>
       <use x="63.623047" xlink:href="#DejaVuSans-46"/>
       <use x="95.410156" xlink:href="#DejaVuSans-53"/>
      </g>
     </g>
    </g>
    <g id="ytick_6">
     <g id="line2d_15">
      <g>
       <use style="stroke:#000000;stroke-width:0.8;" x="57.6" xlink:href="#m6030168b3a" y="76.897621"/>
      </g>
     </g>
     <g id="text_16">
      <!-- 6.0 -->
      <g transform="translate(34.696875 80.69684)scale(0.1 -0.1)">
       <defs>
        <path d="M 33.015625 40.375 
Q 26.375 40.375 22.484375 35.828125 
Q 18.609375 31.296875 18.609375 23.390625 
Q 18.609375 15.53125 22.484375 10.953125 
Q 26.375 6.390625 33.015625 6.390625 
Q 39.65625 6.390625 43.53125 10.953125 
Q 47.40625 15.53125 47.40625 23.390625 
Q 47.40625 31.296875 43.53125 35.828125 
Q 39.65625 40.375 33.015625 40.375 
z
M 52.59375 71.296875 
L 52.59375 62.3125 
Q 48.875 64.0625 45.09375 64.984375 
Q 41.3125 65.921875 37.59375 65.921875 
Q 27.828125 65.921875 22.671875 59.328125 
Q 17.53125 52.734375 16.796875 39.40625 
Q 19.671875 43.65625 24.015625 45.921875 
Q 28.375 48.1875 33.59375 48.1875 
Q 44.578125 48.1875 50.953125 41.515625 
Q 57.328125 34.859375 57.328125 23.390625 
Q 57.328125 12.15625 50.6875 5.359375 
Q 44.046875 -1.421875 33.015625 -1.421875 
Q 20.359375 -1.421875 13.671875 8.265625 
Q 6.984375 17.96875 6.984375 36.375 
Q 6.984375 53.65625 15.1875 63.9375 
Q 23.390625 74.21875 37.203125 74.21875 
Q 40.921875 74.21875 44.703125 73.484375 
Q 48.484375 72.75 52.59375 71.296875 
z
" id="DejaVuSans-54"/>
       </defs>
       <use xlink:href="#DejaVuSans-54"/>
       <use x="63.623047" xlink:href="#DejaVuSans-46"/>
       <use x="95.410156" xlink:href="#DejaVuSans-48"/>
      </g>
     </g>
    </g>
    <g id="text_17">
     <!-- ping[ms] -->
     <g transform="translate(28.617187 196.810812)rotate(-90)scale(0.1 -0.1)">
      <defs>
       <path d="M 54.890625 33.015625 
L 54.890625 0 
L 45.90625 0 
L 45.90625 32.71875 
Q 45.90625 40.484375 42.875 44.328125 
Q 39.84375 48.1875 33.796875 48.1875 
Q 26.515625 48.1875 22.3125 43.546875 
Q 18.109375 38.921875 18.109375 30.90625 
L 18.109375 0 
L 9.078125 0 
L 9.078125 54.6875 
L 18.109375 54.6875 
L 18.109375 46.1875 
Q 21.34375 51.125 25.703125 53.5625 
Q 30.078125 56 35.796875 56 
Q 45.21875 56 50.046875 50.171875 
Q 54.890625 44.34375 54.890625 33.015625 
z
" id="DejaVuSans-110"/>
       <path d="M 45.40625 27.984375 
Q 45.40625 37.75 41.375 43.109375 
Q 37.359375 48.484375 30.078125 48.484375 
Q 22.859375 48.484375 18.828125 43.109375 
Q 14.796875 37.75 14.796875 27.984375 
Q 14.796875 18.265625 18.828125 12.890625 
Q 22.859375 7.515625 30.078125 7.515625 
Q 37.359375 7.515625 41.375 12.890625 
Q 45.40625 18.265625 45.40625 27.984375 
z
M 54.390625 6.78125 
Q 54.390625 -7.171875 48.1875 -13.984375 
Q 42 -20.796875 29.203125 -20.796875 
Q 24.46875 -20.796875 20.265625 -20.09375 
Q 16.0625 -19.390625 12.109375 -17.921875 
L 12.109375 -9.1875 
Q 16.0625 -11.328125 19.921875 -12.34375 
Q 23.78125 -13.375 27.78125 -13.375 
Q 36.625 -13.375 41.015625 -8.765625 
Q 45.40625 -4.15625 45.40625 5.171875 
L 45.40625 9.625 
Q 42.625 4.78125 38.28125 2.390625 
Q 33.9375 0 27.875 0 
Q 17.828125 0 11.671875 7.65625 
Q 5.515625 15.328125 5.515625 27.984375 
Q 5.515625 40.671875 11.671875 48.328125 
Q 17.828125 56 27.875 56 
Q 33.9375 56 38.28125 53.609375 
Q 42.625 51.21875 45.40625 46.390625 
L 45.40625 54.6875 
L 54.390625 54.6875 
z
" id="DejaVuSans-103"/>
       <path d="M 8.59375 75.984375 
L 29.296875 75.984375 
L 29.296875 69 
L 17.578125 69 
L 17.578125 -6.203125 
L 29.296875 -6.203125 
L 29.296875 -13.1875 
L 8.59375 -13.1875 
z
" id="DejaVuSans-91"/>
       <path d="M 30.421875 75.984375 
L 30.421875 -13.1875 
L 9.71875 -13.1875 
L 9.71875 -6.203125 
L 21.390625 -6.203125 
L 21.390625 69 
L 9.71875 69 
L 9.71875 75.984375 
z
" id="DejaVuSans-93"/>
      </defs>
      <use xlink:href="#DejaVuSans-112"/>
      <use x="63.476562" xlink:href="#DejaVuSans-105"/>
      <use x="91.259766" xlink:href="#DejaVuSans-110"/>
      <use x="154.638672" xlink:href="#DejaVuSans-103"/>
      <use x="218.115234" xlink:href="#DejaVuSans-91"/>
      <use x="257.128906" xlink:href="#DejaVuSans-109"/>
      <use x="354.541016" xlink:href="#DejaVuSans-115"/>
      <use x="406.640625" xlink:href="#DejaVuSans-93"/>
     </g>
    </g>
   </g>
   <g id="line2d_16">
    <path clip-path="url(#p59910db416)" d="M 73.832727 209.386266 
L 74.004049 210.103403 
L 74.175371 221.073771 
L 74.346692 191.566793 
L 74.518014 190.459317 
L 74.689336 194.430799 
L 74.860657 176.923497 
L 75.031979 202.496312 
L 75.203301 180.283245 
L 75.374622 203.71272 
L 75.545944 199.26466 
L 75.717266 204.874663 
L 75.888587 198.317989 
L 76.059909 178.862589 
L 76.231231 184.619347 
L 76.402552 198.72 
L 76.573874 193.72728 
L 76.745195 221.293148 
L 76.916517 209.098807 
L 77.087839 234.917223 
L 77.25916 196.314417 
L 77.430482 235.000435 
L 77.601804 190.035692 
L 77.773125 226.611152 
L 77.944447 195.240225 
L 78.115769 216.088615 
L 78.28709 204.983595 
L 78.629734 241.657396 
L 78.801055 195.95131 
L 78.972377 219.825591 
L 79.143699 210.430199 
L 79.31502 216.966124 
L 79.486342 212.06418 
L 79.657664 161.45615 
L 80.000307 243.291377 
L 80.34295 176.388923 
L 80.685594 242.065891 
L 80.856915 222.503505 
L 81.028237 84.15976 
L 81.199559 187.372908 
L 81.37088 216.693794 
L 81.542202 154.057846 
L 81.713524 183.378732 
L 82.056167 253.821478 
L 82.227489 176.570477 
L 82.39881 208.977771 
L 82.570132 178.930672 
L 82.741454 203.077283 
L 83.084097 213.970492 
L 83.255419 204.711265 
L 83.42674 239.660308 
L 83.598062 227.314672 
L 83.940705 211.973403 
L 84.112027 188.371452 
L 84.283349 205.255925 
L 84.45467 199.491602 
L 84.797314 242.11128 
L 84.968635 217.465396 
L 85.311278 127.369486 
L 85.653922 140.169006 
L 85.825243 207.434567 
L 86.167887 211.837238 
L 86.339208 172.485523 
L 86.681852 223.865156 
L 87.024495 206.980683 
L 87.195817 248.647205 
L 87.53846 202.941118 
L 87.709782 206.345246 
L 87.881103 201.261749 
L 88.052425 229.31176 
L 88.395068 238.661764 
L 88.56639 223.229719 
L 88.737712 218.146221 
L 88.909033 199.26466 
L 89.422998 228.857876 
L 89.59432 260.17585 
L 89.936963 181.290867 
L 90.108285 184.831159 
L 90.279607 220.052533 
L 90.450928 221.323407 
L 90.62225 141.43988 
L 90.964893 207.495084 
L 91.307537 216.51224 
L 91.65018 183.061013 
L 91.821502 222.866612 
L 91.992823 142.619977 
L 92.335467 188.371452 
L 92.506788 184.785771 
L 92.849432 184.195722 
L 93.020753 193.545726 
L 93.192075 178.567565 
L 93.534718 177.659797 
L 93.70604 192.002522 
L 93.877361 194.861989 
L 94.048683 171.940863 
L 94.220005 234.939917 
L 94.391326 233.850597 
L 94.562648 194.907377 
L 94.73397 192.819512 
L 94.905291 214.152045 
L 95.076613 219.235542 
L 95.247935 188.189899 
L 95.419256 205.709809 
L 95.7619 162.046199 
L 96.104543 215.513696 
L 96.447186 189.778492 
L 96.618508 182.607129 
L 96.78983 212.681462 
L 96.961151 166.970837 
L 97.132473 166.471565 
L 97.303795 172.372053 
L 97.475116 197.903009 
L 97.646438 195.542814 
L 97.989081 205.255925 
L 98.160403 213.085418 
L 98.331725 202.314759 
L 98.503046 237.027782 
L 98.674368 135.085508 
L 98.84569 227.950109 
L 99.017011 194.483752 
L 99.188333 196.178251 
L 99.359655 214.605929 
L 99.87362 180.337711 
L 100.216263 207.525343 
L 100.387585 243.109824 
L 100.558906 210.157869 
L 100.730228 204.620488 
L 101.072871 175.118049 
L 101.244193 236.301568 
L 101.415515 211.337966 
L 101.758158 220.869523 
L 101.929479 198.17534 
L 102.100801 195.542814 
L 102.443444 233.457231 
L 102.786088 190.913201 
L 103.128731 220.14331 
L 103.300053 218.917824 
L 103.471374 197.539902 
L 103.642696 242.565163 
L 103.985339 196.314417 
L 104.156661 182.017081 
L 104.327983 179.293779 
L 104.499304 243.472931 
L 104.670626 225.40836 
L 104.841948 169.036008 
L 105.013269 182.743295 
L 105.184591 233.169771 
L 105.527234 228.857876 
L 105.698556 204.166604 
L 106.212521 225.862244 
L 106.383843 208.251557 
L 106.726486 225.953021 
L 107.069129 219.644038 
L 107.240451 205.982139 
L 107.411773 221.595737 
L 107.583094 207.07146 
L 107.754416 229.493313 
L 107.925738 190.822424 
L 108.097059 227.768555 
L 108.439703 196.722912 
L 108.611024 204.802041 
L 108.782346 179.929216 
L 108.953668 295.488 
L 109.296311 183.15179 
L 109.467633 222.321951 
L 109.638954 186.737471 
L 109.810276 223.048165 
L 109.981598 202.827647 
L 110.152919 202.714176 
L 110.324241 181.018537 
L 110.666884 166.993531 
L 110.838206 231.944285 
L 111.009527 219.598649 
L 111.352171 155.147167 
L 111.523492 205.66442 
L 111.866136 213.607385 
L 112.037457 183.15179 
L 112.380101 230.854964 
L 112.551422 169.399114 
L 112.722744 231.550919 
L 113.236709 211.51952 
L 113.408031 170.533824 
L 113.579352 214.515152 
L 113.750674 219.144765 
L 114.093317 221.414184 
L 114.435961 197.403737 
L 114.778604 191.003977 
L 114.949926 233.215159 
L 115.121247 190.686259 
L 115.463891 188.916113 
L 115.635212 221.958844 
L 115.806534 208.523887 
L 115.977856 158.460518 
L 116.149177 158.596683 
L 116.320499 208.251557 
L 116.491821 177.659797 
L 116.663142 186.465141 
L 116.834464 235.575355 
L 117.005786 171.804698 
L 117.348429 222.140398 
L 117.519751 208.100263 
L 118.033716 124.736961 
L 118.205037 189.27922 
L 118.376359 201.624856 
L 118.54768 163.271685 
L 118.890324 187.826792 
L 119.232967 189.460773 
L 119.404289 194.453493 
L 119.57561 245.379242 
L 119.918254 217.964668 
L 120.089575 214.152045 
L 120.260897 153.331632 
L 120.432219 204.166604 
L 120.60354 216.51224 
L 120.774862 206.118304 
L 121.117505 247.64866 
L 121.63147 233.169771 
L 121.802792 220.324863 
L 122.316757 229.947197 
L 122.488079 226.316128 
L 122.830722 210.884083 
L 123.173365 162.046199 
L 123.344687 204.802041 
L 123.516009 205.346702 
L 123.68733 230.037974 
L 124.029974 213.244278 
L 124.372617 202.260293 
L 124.71526 215.96758 
L 124.886582 211.973403 
L 125.229225 216.603017 
L 125.571869 186.328976 
L 125.74319 206.799129 
L 125.914512 202.260293 
L 126.257155 206.708353 
L 126.428477 176.4797 
L 126.77112 228.131662 
L 127.113763 187.100578 
L 127.456407 209.159325 
L 127.627728 196.904465 
L 127.970372 214.424375 
L 128.141693 190.822424 
L 128.313015 218.509328 
L 128.655658 207.843062 
L 129.512267 194.725824 
L 129.85491 198.17534 
L 130.197553 226.043797 
L 130.368875 169.852998 
L 130.540197 213.425831 
L 130.711518 211.428743 
L 130.88284 180.65543 
L 131.396805 212.699617 
L 131.739448 176.842807 
L 131.91077 223.411272 
L 132.253413 193.908833 
L 132.424735 133.36075 
L 132.596057 189.27922 
L 133.110022 242.610552 
L 133.452665 191.548638 
L 133.795308 193.72728 
L 134.137952 238.117103 
L 134.480595 199.582379 
L 134.823238 176.161981 
L 135.165882 168.264405 
L 135.508525 235.257636 
L 135.851168 155.691827 
L 136.02249 241.657396 
L 136.193811 232.398169 
L 136.536455 199.446214 
L 136.707776 232.852053 
L 136.879098 196.087475 
L 137.221741 215.574214 
L 137.564385 211.79185 
L 137.735706 237.390889 
L 138.07835 150.88066 
L 138.249671 221.368795 
L 138.420993 220.869523 
L 138.592315 203.71272 
L 138.763636 212.412158 
L 138.934958 185.323947 
L 139.10628 212.676923 
L 139.277601 208.186717 
L 139.448923 179.112225 
L 139.620245 219.341448 
L 139.791566 220.843587 
L 139.962888 200.444758 
L 140.476853 215.150589 
L 140.819496 202.759565 
L 140.990818 250.462739 
L 141.16214 163.544015 
L 141.333461 230.401081 
L 141.504783 189.642326 
L 141.847426 223.910544 
L 142.19007 212.676923 
L 142.532713 223.910544 
L 142.875356 216.935865 
L 143.218 204.136345 
L 143.389321 210.430199 
L 143.560643 180.428488 
L 144.074608 226.588458 
L 144.245929 198.17534 
L 144.588573 209.29549 
L 144.759894 204.983595 
L 144.931216 211.216931 
L 145.273859 147.158814 
L 145.445181 246.377786 
L 145.616503 224.500593 
L 145.787824 137.53648 
L 145.959146 197.539902 
L 146.130468 206.799129 
L 146.301789 157.779692 
L 146.473111 211.51952 
L 146.815754 234.30448 
L 147.158398 192.819512 
L 147.501041 248.193321 
L 147.843684 173.098266 
L 148.357649 229.735385 
L 148.528971 211.337966 
L 148.700293 207.313531 
L 148.871614 188.946371 
L 149.214258 237.66322 
L 149.385579 221.39149 
L 149.556901 228.131662 
L 149.728223 213.092983 
L 149.899544 211.035377 
L 150.070866 242.338221 
L 150.413509 191.972263 
L 150.584831 206.163692 
L 150.756153 200.777606 
L 150.927474 227.163377 
L 151.098796 221.656255 
L 151.270118 208.841606 
L 151.441439 208.024615 
L 151.612761 229.03943 
L 151.784083 204.499452 
L 151.955404 216.739182 
L 152.126726 206.163692 
L 152.298047 184.468053 
L 152.640691 197.116278 
L 152.812012 180.292323 
L 152.983334 184.694994 
L 153.154656 227.63239 
L 153.325977 202.925989 
L 153.497299 206.821824 
L 153.668621 224.621629 
L 153.839942 202.314759 
L 154.011264 214.031009 
L 154.182586 211.900782 
L 154.353907 179.717403 
L 154.525229 228.440303 
L 154.696551 202.04848 
L 154.867872 206.935295 
L 155.210516 239.236683 
L 155.381837 199.682233 
L 155.553159 193.818056 
L 155.724481 213.577126 
L 155.895802 204.575099 
L 156.067124 215.241366 
L 156.238446 216.012968 
L 156.409767 219.144765 
L 156.581089 206.708353 
L 156.752411 244.108368 
L 157.095054 176.842807 
L 157.266376 218.454862 
L 157.437697 223.955932 
L 157.609019 224.137486 
L 157.951662 197.656615 
L 158.122984 173.018837 
L 158.465627 199.373592 
L 158.636949 176.679409 
L 158.808271 198.890206 
L 158.979592 201.957704 
L 159.322236 219.526028 
L 159.493557 241.415325 
L 159.836201 180.364944 
L 160.007522 202.078739 
L 160.178844 201.874492 
L 160.350166 201.352525 
L 160.521487 209.431655 
L 160.86413 219.734814 
L 161.035452 201.534079 
L 161.549417 211.428743 
L 161.720739 209.431655 
L 161.89206 166.948143 
L 162.063382 206.662964 
L 162.234704 205.649291 
L 162.406025 206.889906 
L 162.748669 231.187812 
L 162.91999 190.156728 
L 163.262634 224.841006 
L 163.433955 191.911745 
L 163.605277 217.111367 
L 163.776599 213.166469 
L 164.119242 253.730702 
L 164.461885 204.915512 
L 164.804529 203.682462 
L 164.97585 217.261148 
L 165.147172 198.107257 
L 165.318494 214.757223 
L 165.489815 183.42412 
L 165.661137 201.927445 
L 165.832459 207.048765 
L 166.175102 188.356323 
L 166.517745 222.473246 
L 166.860389 210.11248 
L 167.03171 209.582949 
L 167.203032 204.750169 
L 167.374354 179.021448 
L 167.716997 200.853253 
L 167.888319 195.724368 
L 168.05964 231.599334 
L 168.230962 230.273993 
L 168.402284 189.27922 
L 168.573605 214.515152 
L 168.744927 204.681006 
L 168.916249 226.891047 
L 169.08757 204.075827 
L 169.258892 227.155812 
L 169.601535 203.513012 
L 169.944178 206.544955 
L 170.1155 207.507188 
L 170.286822 210.048937 
L 170.458143 217.283842 
L 170.629465 202.6234 
L 170.800787 213.868368 
L 171.14343 196.813689 
L 171.314752 219.961756 
L 171.486073 226.243506 
L 171.657395 212.318355 
L 171.828717 182.7206 
L 172.000038 229.079775 
L 172.342682 214.651317 
L 172.514003 222.458116 
L 172.685325 208.59197 
L 172.856647 207.676638 
L 173.027968 178.522176 
L 173.19929 214.083962 
L 173.370612 211.224495 
L 173.541933 200.535535 
L 173.713255 228.562852 
L 173.884577 198.919709 
L 174.055898 220.249216 
L 174.22722 200.928901 
L 174.398542 200.807865 
L 174.569863 207.706897 
L 174.741185 230.174139 
L 174.912507 213.952336 
L 175.083828 179.021448 
L 175.25515 218.702229 
L 175.426472 223.048165 
L 175.597793 189.914657 
L 175.769115 231.996158 
L 175.940437 207.827932 
L 176.111758 235.212248 
L 176.28308 230.818654 
L 176.454402 212.820653 
L 176.625723 217.268713 
L 176.797045 234.771332 
L 176.968367 222.564023 
L 177.139688 227.556743 
L 177.482331 201.564338 
L 177.653653 217.079595 
L 177.824975 213.153501 
L 177.996296 202.873036 
L 178.167618 218.19161 
L 178.33894 218.17826 
L 178.510261 209.316671 
L 178.681583 224.08302 
L 178.852905 204.542679 
L 179.195548 198.942816 
L 179.36687 214.399618 
L 179.538191 211.812798 
L 179.709513 198.185426 
L 179.880835 217.374619 
L 180.052156 204.552405 
L 180.223478 211.474131 
L 180.3948 213.324968 
L 180.566121 195.996698 
L 180.737443 216.391205 
L 181.080086 214.911269 
L 181.251408 210.180563 
L 181.42273 219.301562 
L 181.594051 200.43568 
L 181.765373 226.921306 
L 181.936695 212.33651 
L 182.108016 217.924323 
L 182.279338 229.826161 
L 182.621981 202.478157 
L 182.793303 227.718124 
L 182.964625 203.587902 
L 183.135946 207.901418 
L 183.307268 221.659281 
L 183.47859 201.019677 
L 183.649911 207.07146 
L 183.821233 218.154474 
L 183.992555 218.107317 
L 184.163876 223.562567 
L 184.50652 196.057216 
L 184.677841 193.681891 
L 185.020485 222.376417 
L 185.53445 203.64788 
L 185.705771 239.569531 
L 186.219736 194.120645 
L 186.391058 198.01648 
L 186.905023 220.097921 
L 187.076344 205.346702 
L 187.247666 227.950109 
L 187.418988 195.429343 
L 187.590309 234.017021 
L 187.761631 211.79185 
L 187.932953 220.309734 
L 188.446918 211.31203 
L 188.618239 205.619032 
L 188.789561 220.188698 
L 188.960883 213.280588 
L 189.132204 214.888345 
L 189.303526 214.932725 
L 189.646169 204.22107 
L 189.817491 199.436128 
L 190.160134 222.518634 
L 190.331456 212.132263 
L 190.502778 214.56054 
L 190.674099 226.648976 
L 190.845421 210.520976 
L 191.016743 207.434567 
L 191.188064 199.703415 
L 191.359386 209.947947 
L 191.530708 213.139535 
L 191.702029 224.59137 
L 191.873351 195.898356 
L 192.044673 209.95816 
L 192.215994 214.003501 
L 192.387316 194.861989 
L 192.558638 195.24779 
L 192.729959 211.131655 
L 192.901281 210.028188 
L 193.072603 220.195182 
L 193.243924 200.771554 
L 193.415246 213.298744 
L 193.586568 210.952165 
L 193.757889 180.019992 
L 193.929211 211.685944 
L 194.100533 198.356893 
L 194.271854 199.067977 
L 194.443176 220.846829 
L 194.614497 204.179572 
L 194.957141 217.374619 
L 195.128462 206.212572 
L 195.299784 206.148563 
L 195.471106 200.263205 
L 195.813749 206.215565 
L 195.985071 230.70367 
L 196.156392 207.561654 
L 196.327714 206.370003 
L 196.499036 214.010837 
L 196.670357 203.16806 
L 196.841679 202.532623 
L 197.013001 208.330987 
L 197.184322 207.010942 
L 197.355644 212.06418 
L 197.526966 204.096 
L 197.698287 217.523752 
L 197.869609 192.949193 
L 198.040931 212.709704 
L 198.212252 214.896414 
L 198.383574 219.950409 
L 198.554896 187.890335 
L 198.726217 206.962528 
L 199.068861 213.925103 
L 199.240182 194.261854 
L 199.411504 197.116278 
L 199.582826 209.250101 
L 199.754147 209.268257 
L 199.925469 198.801699 
L 200.096791 197.880315 
L 200.268112 181.66406 
L 200.439434 212.946011 
L 200.610756 207.134305 
L 200.782077 182.595782 
L 201.124721 222.390034 
L 201.296042 195.626608 
L 201.467364 197.252443 
L 201.638686 205.245839 
L 201.810007 205.800585 
L 201.981329 216.103745 
L 202.152651 212.891257 
L 202.323972 214.657801 
L 202.495294 211.670814 
L 202.837937 224.440075 
L 203.009259 208.841606 
L 203.18058 143.060893 
L 203.351902 208.744345 
L 203.694545 204.130293 
L 203.865867 205.455634 
L 204.037189 193.854367 
L 204.20851 205.646265 
L 204.379832 198.979362 
L 204.551154 212.180893 
L 204.722475 200.524188 
L 204.893797 210.443167 
L 205.065119 211.258537 
L 205.23644 215.978927 
L 205.407762 212.654229 
L 205.579084 189.171938 
L 205.750405 206.993651 
L 205.921727 193.748228 
L 206.093049 212.921516 
L 206.26437 211.030722 
L 206.607014 199.052848 
L 206.778335 207.176202 
L 206.949657 222.031466 
L 207.120979 214.927773 
L 207.2923 215.568162 
L 207.463622 210.904255 
L 207.634944 212.673681 
L 207.806265 197.04063 
L 207.977587 203.998019 
L 208.148909 216.088615 
L 208.32023 198.493058 
L 208.491552 208.531452 
L 208.662874 194.076421 
L 209.005517 210.012626 
L 209.176839 179.52072 
L 209.519482 228.60824 
L 209.690804 199.655 
L 209.862125 205.855051 
L 210.033447 190.749803 
L 210.204769 189.702844 
L 210.37609 199.735049 
L 210.547412 185.998289 
L 210.718734 201.63242 
L 210.890055 198.873186 
L 211.061377 208.053984 
L 211.40402 199.613802 
L 211.575342 210.004247 
L 211.746663 206.980683 
L 211.917985 197.643647 
L 212.260628 206.962528 
L 212.43195 209.199039 
L 212.603272 216.636027 
L 212.774593 211.937093 
L 212.945915 195.361261 
L 213.117237 197.146537 
L 213.288558 207.948968 
L 213.45988 205.322495 
L 213.802523 217.745291 
L 213.973845 208.011647 
L 214.145167 216.826933 
L 214.48781 201.320105 
L 214.659132 204.705925 
L 214.830453 214.817741 
L 215.001775 212.833112 
L 215.173097 208.542043 
L 215.344418 207.609137 
L 215.51574 209.578294 
L 215.687062 207.389178 
L 215.858383 212.154957 
L 216.029705 213.569561 
L 216.201027 195.928615 
L 216.372348 198.402281 
L 216.54367 214.932725 
L 216.714992 214.197433 
L 216.886313 211.210879 
L 217.057635 211.040879 
L 217.400278 203.7616 
L 217.5716 216.389043 
L 217.742922 199.526311 
L 217.914243 200.528552 
L 218.256887 196.340353 
L 218.59953 182.077598 
L 218.770852 219.689426 
L 219.113495 207.061373 
L 219.284817 223.241066 
L 219.62746 194.120645 
L 219.798781 214.206511 
L 219.970103 216.829959 
L 220.141425 209.56782 
L 220.312746 219.417096 
L 220.65539 178.966982 
L 220.998033 223.123812 
L 221.169355 198.795647 
L 221.340676 210.702529 
L 221.511998 205.00175 
L 221.68332 208.281816 
L 221.854641 196.88631 
L 222.025963 220.646708 
L 222.197285 214.626877 
L 222.368606 214.848 
L 222.539928 193.790823 
L 222.71125 203.319355 
L 222.882571 220.675002 
L 223.053893 212.608841 
L 223.225215 221.840835 
L 223.396536 208.932383 
L 223.567858 204.677223 
L 223.73918 214.177981 
L 223.910501 204.55997 
L 224.081823 211.383355 
L 224.253145 209.55269 
L 224.424466 228.131662 
L 224.595788 209.129066 
L 224.76711 215.624645 
L 224.938431 194.671358 
L 225.109753 212.574799 
L 225.452396 196.707782 
L 225.623718 213.017336 
L 225.79504 208.7357 
L 225.966361 214.726964 
L 226.137683 228.204284 
L 226.309005 212.245734 
L 226.480326 219.644038 
L 226.82297 206.599421 
L 226.994291 212.06418 
L 227.165613 208.387722 
L 227.336935 199.718544 
L 227.508256 225.61585 
L 227.679578 176.161981 
L 227.850899 209.477043 
L 228.022221 210.475587 
L 228.193543 196.420323 
L 228.364864 210.539131 
L 228.536186 246.014679 
L 228.707508 200.898642 
L 228.878829 237.300113 
L 229.221473 190.429058 
L 229.392794 217.76042 
L 229.564116 216.78457 
L 229.735438 208.728135 
L 229.906759 221.577582 
L 230.249403 168.740983 
L 230.420724 204.552405 
L 230.592046 215.664991 
L 230.763368 213.135346 
L 230.934689 224.545981 
L 231.277333 201.461457 
L 231.448654 203.137801 
L 231.619976 195.361261 
L 231.791298 216.398769 
L 231.962619 215.604473 
L 232.133941 221.459572 
L 232.305263 213.607385 
L 232.476584 225.880399 
L 232.647906 210.452893 
L 232.819228 212.699617 
L 232.990549 216.898041 
L 233.161871 238.698074 
L 233.504514 205.497996 
L 233.675836 218.46394 
L 233.847158 219.689426 
L 234.018479 210.27134 
L 234.189801 226.770011 
L 234.361123 223.275107 
L 234.532444 223.03001 
L 234.703766 202.941118 
L 234.875088 225.771467 
L 235.389053 198.220728 
L 235.560374 237.980938 
L 235.731696 215.672555 
L 235.903018 208.206169 
L 236.074339 208.142625 
L 236.245661 226.588458 
L 236.416982 208.917253 
L 236.588304 210.566364 
L 236.759626 195.512555 
L 236.930947 194.604788 
L 237.102269 206.490489 
L 237.273591 234.849141 
L 237.444912 174.875977 
L 237.616234 209.032237 
L 237.787556 215.023502 
L 237.958877 216.74826 
L 238.301521 202.230034 
L 238.472842 215.256495 
L 238.644164 190.345846 
L 238.986807 225.241936 
L 239.329451 176.842807 
L 239.672094 205.709809 
L 239.843416 203.16806 
L 240.014737 189.188443 
L 240.357381 227.677779 
L 240.700024 232.779431 
L 240.871346 209.159325 
L 241.042667 204.227122 
L 241.213989 225.166289 
L 241.385311 213.909974 
L 241.556632 191.962176 
L 241.727954 201.77615 
L 241.899276 219.870979 
L 242.070597 187.666598 
L 242.241919 196.00275 
L 242.413241 216.23991 
L 242.584562 213.804068 
L 242.927206 199.044203 
L 243.098527 180.171287 
L 243.269849 189.266251 
L 243.441171 218.993471 
L 243.612492 205.956203 
L 243.783814 223.18433 
L 243.955136 214.605929 
L 244.126457 200.276173 
L 244.297779 200.39937 
L 244.469101 198.655159 
L 244.640422 205.316443 
L 244.811744 201.836668 
L 244.983065 209.703985 
L 245.154387 198.302427 
L 245.325709 210.443167 
L 245.49703 192.676863 
L 245.668352 195.667632 
L 245.839674 176.449441 
L 246.010995 214.590799 
L 246.182317 209.431655 
L 246.353639 209.17748 
L 246.52496 190.107557 
L 246.696282 209.870409 
L 246.867604 214.642239 
L 247.210247 204.711265 
L 247.381569 212.200345 
L 247.55289 186.737471 
L 247.724212 213.123242 
L 247.895534 220.815057 
L 248.066855 200.596053 
L 248.409499 208.251557 
L 248.58082 209.098807 
L 248.752142 277.151099 
L 248.923464 194.249246 
L 249.266107 195.966439 
L 249.437429 233.850597 
L 249.60875 214.969036 
L 249.780072 210.581493 
L 249.951394 236.937006 
L 250.122715 177.02436 
L 250.294037 212.971947 
L 250.465359 191.639415 
L 250.808002 169.489891 
L 250.979324 209.310619 
L 251.150645 195.860533 
L 251.321967 213.698161 
L 251.66461 166.040375 
L 252.007254 220.022274 
L 252.178575 182.470964 
L 252.521219 222.957388 
L 252.69254 182.198634 
L 253.035183 244.017591 
L 253.206505 215.786026 
L 253.549148 208.614664 
L 253.72047 201.942574 
L 253.891792 199.900098 
L 254.063113 180.564653 
L 254.577078 213.244278 
L 254.7484 241.748173 
L 254.919722 207.162236 
L 255.091043 236.301568 
L 255.262365 196.22364 
L 255.433687 201.806409 
L 255.605008 214.969036 
L 255.77633 215.180848 
L 255.947652 214.569618 
L 256.118973 199.854709 
L 256.461617 214.439505 
L 256.632938 212.33651 
L 256.80426 188.507617 
L 256.975582 214.447069 
L 257.146903 186.124728 
L 257.489547 215.96758 
L 257.660868 213.289666 
L 257.83219 213.970492 
L 258.003512 209.219842 
L 258.174833 220.756053 
L 258.346155 200.154272 
L 258.517477 215.286754 
L 258.688798 203.939662 
L 258.86012 201.692938 
L 259.031442 197.116278 
L 259.202763 201.279904 
L 259.374085 218.146221 
L 259.545407 211.210879 
L 259.716728 209.227407 
L 259.88805 192.758994 
L 260.059372 213.062724 
L 260.230693 216.330687 
L 260.402015 198.871295 
L 260.573337 205.376961 
L 260.744658 187.645238 
L 260.91598 201.987962 
L 261.087302 203.16806 
L 261.258623 193.454949 
L 261.429945 199.219272 
L 261.601266 196.773343 
L 262.115231 230.219527 
L 262.286553 195.93618 
L 262.457875 217.556173 
L 262.629196 197.721456 
L 262.800518 218.146221 
L 262.97184 179.656886 
L 263.314483 208.637358 
L 263.657126 206.481411 
L 263.828448 202.405535 
L 264.171091 229.58409 
L 264.342413 212.548323 
L 264.513735 210.157869 
L 264.685056 205.687114 
L 264.856378 212.435539 
L 265.0277 210.346987 
L 265.199021 233.203812 
L 265.541665 205.324008 
L 265.712986 193.515467 
L 265.884308 219.217387 
L 266.05563 203.71272 
L 266.226951 218.085704 
L 266.398273 191.972263 
L 266.569595 227.223895 
L 266.740916 219.29606 
L 266.912238 198.538447 
L 267.08356 232.579722 
L 267.426203 205.376961 
L 267.597525 219.114507 
L 267.768846 218.373163 
L 267.940168 193.863445 
L 268.11149 214.764788 
L 268.282811 211.156413 
L 268.454133 166.721201 
L 268.796776 213.988647 
L 268.968098 207.416411 
L 269.13942 227.90472 
L 269.310741 218.872435 
L 269.482063 184.165463 
L 269.653385 221.625996 
L 269.824706 205.376961 
L 270.167349 221.958844 
L 270.338671 223.356806 
L 270.509993 203.591685 
L 270.681314 199.597508 
L 270.852636 218.827047 
L 271.023958 219.356578 
L 271.195279 183.492203 
L 271.366601 210.702529 
L 271.537923 211.882627 
L 271.709244 217.193066 
L 271.880566 212.245734 
L 272.051888 212.790394 
L 272.223209 219.489717 
L 272.394531 211.474131 
L 272.565853 220.461028 
L 272.737174 209.386266 
L 272.908496 210.935955 
L 273.079818 218.100833 
L 273.251139 230.280045 
L 273.422461 226.64432 
L 273.593783 211.51952 
L 273.765104 206.538146 
L 273.936426 214.596851 
L 274.107748 206.653887 
L 274.279069 206.889906 
L 274.450391 220.506417 
L 274.793034 224.924218 
L 275.135678 182.470964 
L 275.306999 217.63182 
L 275.478321 197.131407 
L 275.649643 202.018221 
L 275.820964 231.218071 
L 275.992286 206.163692 
L 276.334929 215.241366 
L 276.506251 196.964983 
L 276.677573 222.564023 
L 276.848894 209.976315 
L 277.020216 187.554462 
L 277.191538 215.69525 
L 277.362859 219.0086 
L 277.534181 195.603332 
L 277.705503 209.946056 
L 277.876824 210.611752 
L 278.048146 230.461598 
L 278.219467 218.418552 
L 278.390789 222.533764 
L 278.562111 217.177936 
L 278.733432 224.954477 
L 279.076076 166.131152 
L 279.247397 200.535535 
L 279.418719 188.522747 
L 279.590041 208.433111 
L 279.761362 256.393486 
L 279.932684 200.898642 
L 280.104006 221.051077 
L 280.275327 222.548893 
L 280.446649 177.591715 
L 280.617971 225.090642 
L 281.131936 214.832871 
L 281.303257 203.228578 
L 281.474579 161.229208 
L 281.817222 230.242221 
L 281.988544 222.213019 
L 282.159866 208.841606 
L 282.331187 227.042341 
L 282.502509 226.061953 
L 282.673831 198.931812 
L 283.016474 221.014766 
L 283.187796 137.881432 
L 283.359117 207.041201 
L 283.530439 53.568 
L 283.701761 209.903694 
L 283.873082 202.859419 
L 284.044404 204.112138 
L 284.215726 242.769411 
L 284.387047 184.445358 
L 284.558369 217.643458 
L 284.729691 202.363173 
L 284.901012 217.450266 
L 285.072334 212.600588 
L 285.243656 190.679775 
L 285.586299 237.590598 
L 285.757621 196.761816 
L 286.100264 219.659167 
L 286.442907 212.132263 
L 286.614229 223.281591 
L 286.78555 213.622514 
L 286.956872 197.410221 
L 287.470837 225.650432 
L 287.642159 203.621944 
L 287.81348 215.037118 
L 287.984802 218.418552 
L 288.156124 245.220383 
L 288.498767 189.797944 
L 288.670089 192.501794 
L 288.84141 230.249786 
L 289.012732 229.493313 
L 289.184054 201.307137 
L 289.355375 198.901553 
L 289.526697 217.329231 
L 289.698019 206.163692 
L 290.040662 208.660053 
L 290.211984 217.722597 
L 290.554627 195.656285 
L 290.725949 212.990103 
L 290.89727 217.183988 
L 291.068592 204.393546 
L 291.239914 216.915692 
L 291.582557 210.316728 
L 291.753879 185.179137 
L 292.096522 219.29606 
L 292.267844 214.024958 
L 292.439165 201.974994 
L 292.610487 200.366949 
L 292.781809 219.084248 
L 292.95313 225.559655 
L 293.124452 205.891362 
L 293.295774 214.537846 
L 293.467095 234.191009 
L 293.638417 219.598649 
L 293.809739 219.598649 
L 293.98106 218.491173 
L 294.323704 214.424375 
L 294.495025 216.330687 
L 294.666347 241.385066 
L 294.837669 220.506417 
L 295.00899 214.863129 
L 295.180312 173.665621 
L 295.351633 205.785456 
L 295.522955 177.478244 
L 295.865598 232.216615 
L 296.03692 192.471535 
L 296.208242 207.979227 
L 296.379563 205.165148 
L 296.550885 241.142994 
L 296.722207 168.854454 
L 296.893528 193.273396 
L 297.06485 194.514011 
L 297.236172 219.84072 
L 297.407493 207.05633 
L 297.578815 204.484323 
L 297.750137 236.710064 
L 297.921458 182.561741 
L 298.09278 223.123812 
L 298.264102 193.273396 
L 298.435423 232.670499 
L 298.606745 217.83985 
L 298.778067 224.621629 
L 298.949388 221.493614 
L 299.12071 210.235677 
L 299.292032 214.265516 
L 299.463353 215.645735 
L 299.805997 193.327862 
L 299.977318 198.572488 
L 300.14864 209.113936 
L 300.319962 250.644293 
L 300.491283 208.070004 
L 300.662605 231.762732 
L 300.833927 207.933839 
L 301.005248 237.572443 
L 301.17657 173.030184 
L 301.347892 178.022904 
L 301.519213 223.502049 
L 301.690535 188.189899 
L 301.861857 192.274852 
L 302.033178 233.669043 
L 302.2045 167.462544 
L 302.375822 205.921621 
L 302.547143 216.557629 
L 302.718465 218.804353 
L 302.889787 196.7683 
L 303.23243 229.879114 
L 303.403751 177.932128 
L 303.575073 222.117704 
L 303.746395 196.692653 
L 303.917716 206.799129 
L 304.089038 196.677523 
L 304.431681 213.758679 
L 304.603003 199.786627 
L 304.774325 242.958529 
L 304.945646 193.400483 
L 305.116968 221.595737 
L 305.28829 204.469193 
L 305.459611 214.424375 
L 305.630933 234.939917 
L 305.802255 222.866612 
L 305.973576 222.957388 
L 306.144898 211.897756 
L 306.31622 218.146221 
L 306.487541 209.431655 
L 306.830185 204.408675 
L 307.001506 207.101719 
L 307.172828 220.914912 
L 307.34415 206.708353 
L 307.515471 212.949253 
L 307.686793 197.751715 
L 307.858115 202.441846 
L 308.200758 213.788938 
L 308.37208 249.010311 
L 308.543401 197.290266 
L 308.886045 227.965238 
L 309.057366 204.511556 
L 309.228688 214.043113 
L 309.40001 206.109226 
L 309.571331 210.048937 
L 309.742653 202.60827 
L 309.913975 220.524572 
L 310.085296 218.917824 
L 310.256618 209.231946 
L 310.42794 216.300428 
L 310.599261 209.219842 
L 310.770583 215.205055 
L 310.941905 192.03278 
L 311.113226 220.633504 
L 311.284548 219.825591 
L 311.45587 206.829388 
L 311.627191 224.518748 
L 311.798513 225.831985 
L 311.969834 208.923305 
L 312.141156 211.229034 
L 312.312478 190.572788 
L 312.826443 213.970492 
L 312.997764 200.675191 
L 313.169086 208.660053 
L 313.340408 224.643242 
L 313.683051 191.160774 
L 313.854373 218.19161 
L 314.025694 214.297288 
L 314.197016 205.655343 
L 314.368338 220.612323 
L 314.539659 216.71973 
L 314.710981 215.441075 
L 314.882303 221.486805 
L 315.053624 215.195977 
L 315.224946 202.850341 
L 315.396268 229.729333 
L 315.567589 202.593141 
L 315.738911 219.205283 
L 315.910233 207.332443 
L 316.081554 205.513126 
L 316.252876 212.33651 
L 316.424198 194.793906 
L 316.595519 219.925445 
L 316.766841 210.899212 
L 316.938163 225.444671 
L 317.109484 188.961501 
L 317.280806 205.573644 
L 317.452128 190.973719 
L 317.623449 230.491857 
L 317.966093 198.931812 
L 318.137414 187.403167 
L 318.308736 218.811917 
L 318.480058 191.38524 
L 318.822701 219.644038 
L 319.165344 198.614094 
L 319.336666 201.806409 
L 319.507988 220.706125 
L 319.679309 215.044683 
L 319.850631 228.449381 
L 320.021953 213.280588 
L 320.193274 226.429598 
L 320.364596 208.417981 
L 320.535917 212.154957 
L 320.707239 201.761021 
L 320.878561 216.285298 
L 321.049882 202.547752 
L 321.392526 224.700302 
L 321.563847 215.649861 
L 321.735169 200.293463 
L 321.906491 219.749944 
L 322.077812 215.362402 
L 322.249134 225.753312 
L 322.420456 212.926559 
L 322.591777 225.890175 
L 322.763099 223.848135 
L 322.934421 219.436207 
L 323.105742 220.131962 
L 323.277064 206.2824 
L 323.448386 221.182199 
L 323.619707 217.407039 
L 323.962351 200.57588 
L 324.133672 215.362402 
L 324.304994 218.600105 
L 324.476316 218.781659 
L 324.647637 219.553261 
L 324.818959 208.070004 
L 324.990281 221.164548 
L 325.161602 225.698846 
L 325.332924 216.312531 
L 325.675567 229.822379 
L 325.846889 227.882026 
L 326.018211 211.973403 
L 326.189532 218.670709 
L 326.360854 216.730104 
L 326.532176 224.228263 
L 326.874819 204.610402 
L 327.217462 213.087481 
L 327.388784 205.541223 
L 327.560106 213.410702 
L 327.731427 203.031895 
L 327.902749 232.64024 
L 328.074071 199.668113 
L 328.245392 199.481128 
L 328.416714 212.463598 
L 328.759357 216.538176 
L 328.930679 210.86463 
L 329.102 213.52266 
L 329.273322 213.092983 
L 329.444644 190.386696 
L 329.787287 200.838124 
L 329.958609 200.414499 
L 330.12993 212.941689 
L 330.301252 213.207967 
L 330.643895 208.44824 
L 330.815217 209.310619 
L 330.986539 226.391775 
L 331.15786 216.671099 
L 331.329182 225.589914 
L 331.500504 207.661508 
L 331.671825 215.594386 
L 331.843147 213.768765 
L 332.014469 219.226465 
L 332.357112 189.067407 
L 332.528434 223.592826 
L 332.871077 193.398214 
L 333.042399 201.453388 
L 333.21372 183.832615 
L 333.385042 211.210879 
L 333.556364 197.04063 
L 333.727685 197.005328 
L 334.070329 217.901124 
L 334.24165 198.01648 
L 334.412972 191.921831 
L 334.584294 200.555707 
L 334.755615 195.011122 
L 334.926937 206.190925 
L 335.098259 196.302038 
L 335.26958 207.507188 
L 335.440902 192.109803 
L 335.783545 221.323407 
L 335.954867 213.163587 
L 336.126189 199.498086 
L 336.29751 206.08048 
L 336.468832 204.620488 
L 336.640154 204.84743 
L 336.811475 216.485007 
L 336.982797 196.836383 
L 337.154118 221.414184 
L 337.32544 211.099677 
L 337.496762 209.477043 
L 337.668083 212.563452 
L 338.010727 209.492173 
L 338.182048 210.566364 
L 338.35337 185.897786 
L 338.696013 220.036028 
L 338.867335 218.935979 
L 339.038657 210.162646 
L 339.209978 211.398484 
L 339.3813 205.800585 
L 339.552622 193.545726 
L 339.723943 238.534676 
L 339.895265 206.526799 
L 340.066587 213.902409 
L 340.237908 203.304225 
L 340.580552 220.203827 
L 340.751873 204.892818 
L 340.923195 215.786026 
L 341.094517 205.600877 
L 341.265838 208.762176 
L 341.43716 208.977771 
L 341.608482 208.085133 
L 341.951125 217.347386 
L 342.122447 210.793306 
L 342.293768 214.450311 
L 342.46509 211.301656 
L 342.636412 199.954564 
L 342.979055 219.526028 
L 343.150377 210.085247 
L 343.321698 223.116248 
L 343.49302 206.920165 
L 343.664342 213.546867 
L 343.835663 204.584177 
L 344.006985 213.916026 
L 344.178307 204.393546 
L 344.52095 217.011512 
L 344.692272 229.788338 
L 345.034915 213.546867 
L 345.206237 194.889222 
L 345.377558 198.758904 
L 345.720201 216.94343 
L 345.891523 207.754955 
L 346.062845 217.048648 
L 346.234166 214.763275 
L 346.405488 217.662079 
L 346.57681 205.764275 
L 346.748131 205.142454 
L 346.919453 195.667632 
L 347.090775 215.826371 
L 347.262096 217.651076 
L 347.433418 179.13038 
L 347.60474 215.141511 
L 347.776061 224.319039 
L 347.947383 205.93675 
L 348.118705 212.191268 
L 348.290026 243.498867 
L 348.461348 217.208195 
L 348.63267 215.922191 
L 348.803991 210.717659 
L 348.975313 228.476614 
L 349.146635 205.134889 
L 349.317956 201.931227 
L 349.489278 215.127895 
L 349.6606 213.902409 
L 349.831921 204.771782 
L 350.003243 208.469421 
L 350.174565 186.283587 
L 350.345886 228.118694 
L 350.517208 193.228008 
L 351.031173 227.042341 
L 351.373816 200.308593 
L 351.545138 237.814514 
L 351.71646 235.666131 
L 351.887781 195.05262 
L 352.059103 217.601561 
L 352.230425 192.501794 
L 352.401746 226.648976 
L 352.573068 207.827932 
L 352.74439 226.225351 
L 352.915711 196.790994 
L 353.087033 210.440285 
L 353.258355 207.172323 
L 353.429676 215.251452 
L 353.600998 209.496495 
L 353.77232 215.26406 
L 353.943641 202.572968 
L 354.114963 210.741433 
L 354.286284 212.954657 
L 354.457606 218.947193 
L 354.628928 217.828503 
L 354.971571 209.131393 
L 355.142893 211.128045 
L 355.314214 208.186717 
L 355.485536 223.099227 
L 355.656858 207.201141 
L 355.828179 215.816285 
L 355.999501 209.496495 
L 356.170823 225.902589 
L 356.342144 211.120102 
L 356.513466 215.672555 
L 356.684788 212.054094 
L 356.856109 233.691737 
L 357.027431 201.181058 
L 357.370074 221.724338 
L 357.541396 214.726964 
L 357.712718 195.165742 
L 358.055361 221.383925 
L 358.226683 207.861217 
L 358.398004 223.381013 
L 358.569326 224.545981 
L 358.740648 206.375505 
L 358.911969 205.183304 
L 359.083291 193.318784 
L 359.254613 226.248045 
L 359.425934 185.37582 
L 359.597256 224.614064 
L 359.939899 198.742694 
L 360.111221 209.84015 
L 360.282543 229.58409 
L 360.796508 185.148878 
L 360.967829 233.941373 
L 361.139151 206.581265 
L 361.310473 224.258522 
L 361.481794 225.831985 
L 361.653116 231.354236 
L 361.824438 218.849741 
L 361.995759 219.02373 
L 362.167081 226.293433 
L 362.338402 215.69525 
L 362.509724 218.539587 
L 362.852367 236.868923 
L 363.023689 192.479099 
L 363.195011 216.23991 
L 363.537654 200.6717 
L 363.708976 238.298657 
L 363.880297 223.229719 
L 364.051619 228.676323 
L 364.222941 214.424375 
L 364.394262 277.514206 
L 364.565584 217.056901 
L 364.736906 218.509328 
L 364.908227 205.165148 
L 365.250871 208.402852 
L 365.422192 191.911745 
L 365.593514 195.270484 
L 365.936157 231.853508 
L 366.107479 193.409561 
L 366.278801 224.046709 
L 366.450122 206.935295 
L 366.621444 241.838949 
L 366.792766 120.107347 
L 366.964087 202.078739 
L 367.135409 204.166604 
L 367.306731 208.251557 
L 367.478052 238.253268 
L 367.820696 237.300113 
L 367.992017 211.247189 
L 368.334661 211.882627 
L 369.191269 195.996698 
L 369.362591 219.0086 
L 369.533912 211.337966 
L 369.876556 242.338221 
L 370.219199 210.929471 
L 370.561842 219.553261 
L 371.075807 203.803497 
L 371.247129 212.835782 
L 371.589772 240.114191 
L 371.761094 233.850597 
L 371.932415 190.640871 
L 372.275059 234.122927 
L 372.44638 223.093553 
L 373.131667 246.967835 
L 373.302989 204.257381 
L 373.816954 234.576811 
L 373.988275 201.443302 
L 374.159597 239.841861 
L 374.330919 205.39209 
L 374.844884 236.392345 
L 375.187527 214.106657 
L 375.53017 230.037974 
L 375.872814 212.06418 
L 376.215457 202.532623 
L 376.386779 217.480525 
L 376.900744 205.346702 
L 377.072065 235.303024 
L 377.243387 199.26466 
L 377.414709 234.939917 
L 377.58603 182.107857 
L 377.928674 225.998409 
L 378.271317 160.866101 
L 378.442639 262.536045 
L 378.61396 232.761276 
L 378.785282 242.38361 
L 378.956604 198.99233 
L 379.299247 220.914912 
L 379.470568 219.326319 
L 379.813212 204.529711 
L 379.984533 175.935039 
L 380.155855 172.712465 
L 380.327177 218.055445 
L 380.498498 212.813088 
L 380.66982 223.275107 
L 380.841142 185.315302 
L 381.012463 217.76042 
L 381.183785 192.153816 
L 381.355107 187.145966 
L 381.526428 189.233831 
L 381.69775 213.04003 
L 381.869072 215.846544 
L 382.040393 214.378987 
L 382.211715 180.700818 
L 382.383037 208.360489 
L 382.554358 207.61612 
L 382.897002 186.442447 
L 383.068323 201.987962 
L 383.239645 206.390634 
L 383.410967 214.356293 
L 383.582288 231.52066 
L 383.75361 212.282044 
L 383.924932 233.600961 
L 384.267575 201.48869 
L 384.438897 189.869268 
L 384.610218 197.903009 
L 384.78154 224.827389 
L 385.124183 203.016765 
L 385.295505 222.866612 
L 385.466827 229.402537 
L 385.638148 220.718229 
L 385.980792 230.219527 
L 386.152113 207.61612 
L 386.323435 227.314672 
L 386.494757 231.898897 
L 386.666078 214.152045 
L 386.8374 220.461028 
L 387.008722 207.289324 
L 387.351365 229.345801 
L 387.86533 201.454649 
L 388.036651 216.395527 
L 388.207973 209.304567 
L 388.379295 220.68797 
L 388.550616 195.452038 
L 388.721938 213.788938 
L 389.064581 212.608841 
L 389.235903 177.795962 
L 389.407225 187.736015 
L 389.578546 208.433111 
L 389.749868 260.902064 
L 389.92119 182.470964 
L 390.092511 215.831415 
L 390.263833 214.152045 
L 390.435155 202.078739 
L 390.777798 154.2394 
L 391.120441 246.014679 
L 391.291763 202.441846 
L 391.463085 215.059812 
L 391.634406 201.080195 
L 391.805728 248.374874 
L 391.97705 230.037974 
L 392.148371 232.125839 
L 392.491015 189.460773 
L 392.662336 208.342334 
L 392.833658 165.404938 
L 393.00498 202.89573 
L 393.176301 199.718544 
L 393.518945 216.149133 
L 393.690266 191.367084 
L 393.861588 221.731902 
L 394.03291 226.770011 
L 394.204231 203.16806 
L 394.375553 201.080195 
L 394.546875 195.588203 
L 394.718196 254.456916 
L 395.06084 196.394719 
L 395.232161 213.879715 
L 395.403483 219.539911 
L 395.574805 234.213704 
L 395.746126 196.632135 
L 395.917448 208.024615 
L 396.088769 203.349614 
L 396.260091 212.200345 
L 396.431413 210.135174 
L 396.602734 218.078139 
L 396.774056 212.835782 
L 396.945378 202.759565 
L 397.116699 224.046709 
L 397.459343 209.794762 
L 397.630664 226.679235 
L 397.973308 208.773523 
L 398.144629 208.59197 
L 398.315951 207.321096 
L 398.487273 221.981538 
L 398.487273 221.981538 
" style="fill:none;stroke:#0000ff;stroke-linecap:square;stroke-width:1.5;"/>
   </g>
   <g id="patch_3">
    <path d="M 57.6 307.584 
L 57.6 41.472 
" style="fill:none;stroke:#000000;stroke-linecap:square;stroke-linejoin:miter;stroke-width:0.8;"/>
   </g>
   <g id="patch_4">
    <path d="M 414.72 307.584 
L 414.72 41.472 
" style="fill:none;stroke:#000000;stroke-linecap:square;stroke-linejoin:miter;stroke-width:0.8;"/>
   </g>
   <g id="patch_5">
    <path d="M 57.6 307.584 
L 414.72 307.584 
" style="fill:none;stroke:#000000;stroke-linecap:square;stroke-linejoin:miter;stroke-width:0.8;"/>
   </g>
   <g id="patch_6">
    <path d="M 57.6 41.472 
L 414.72 41.472 
" style="fill:none;stroke:#000000;stroke-linecap:square;stroke-linejoin:miter;stroke-width:0.8;"/>
   </g>
   <g id="text_18">
    <!-- air_pressure-&gt;ping -->
    <g transform="translate(179.16 35.472)scale(0.12 -0.12)">
     <defs>
      <path d="M 4.890625 31.390625 
L 31.203125 31.390625 
L 31.203125 23.390625 
L 4.890625 23.390625 
z
" id="DejaVuSans-45"/>
      <path d="M 10.59375 49.21875 
L 10.59375 58.109375 
L 73.1875 35.40625 
L 73.1875 27.296875 
L 10.59375 4.59375 
L 10.59375 13.484375 
L 60.890625 31.296875 
z
" id="DejaVuSans-62"/>
     </defs>
     <use xlink:href="#DejaVuSans-97"/>
     <use x="61.279297" xlink:href="#DejaVuSans-105"/>
     <use x="89.0625" xlink:href="#DejaVuSans-114"/>
     <use x="130.175781" xlink:href="#DejaVuSans-95"/>
     <use x="180.175781" xlink:href="#DejaVuSans-112"/>
     <use x="243.652344" xlink:href="#DejaVuSans-114"/>
     <use x="282.515625" xlink:href="#DejaVuSans-101"/>
     <use x="344.039062" xlink:href="#DejaVuSans-115"/>
     <use x="396.138672" xlink:href="#DejaVuSans-115"/>
     <use x="448.238281" xlink:href="#DejaVuSans-117"/>
     <use x="511.617188" xlink:href="#DejaVuSans-114"/>
     <use x="550.480469" xlink:href="#DejaVuSans-101"/>
     <use x="612.003906" xlink:href="#DejaVuSans-45"/>
     <use x="648.087891" xlink:href="#DejaVuSans-62"/>
     <use x="731.876953" xlink:href="#DejaVuSans-112"/>
     <use x="795.353516" xlink:href="#DejaVuSans-105"/>
     <use x="823.136719" xlink:href="#DejaVuSans-110"/>
     <use x="886.515625" xlink:href="#DejaVuSans-103"/>
    </g>
   </g>
  </g>
  <g id="legend_1">
   <g id="patch_7">
    <path d="M 377.234375 22.678125 
L 453.8 22.678125 
Q 455.8 22.678125 455.8 20.678125 
L 455.8 7 
Q 455.8 5 453.8 5 
L 377.234375 5 
Q 375.234375 5 375.234375 7 
L 375.234375 20.678125 
Q 375.234375 22.678125 377.234375 22.678125 
z
" style="fill:#ffffff;opacity:0.8;stroke:#cccccc;stroke-linejoin:miter;"/>
   </g>
   <g id="line2d_17">
    <path d="M 379.234375 13.098438 
L 399.234375 13.098438 
" style="fill:none;stroke:#0000ff;stroke-linecap:square;stroke-width:1.5;"/>
   </g>
   <g id="line2d_18"/>
   <g id="text_19">
    <!-- ping[ms] -->
    <g transform="translate(407.234375 16.598438)scale(0.1 -0.1)">
     <use xlink:href="#DejaVuSans-112"/>
     <use x="63.476562" xlink:href="#DejaVuSans-105"/>
     <use x="91.259766" xlink:href="#DejaVuSans-110"/>
     <use x="154.638672" xlink:href="#DejaVuSans-103"/>
     <use x="218.115234" xlink:href="#DejaVuSans-91"/>
     <use x="257.128906" xlink:href="#DejaVuSans-109"/>
     <use x="354.541016" xlink:href="#DejaVuSans-115"/>
     <use x="406.640625" xlink:href="#DejaVuSans-93"/>
    </g>
   </g>
  </g>
 </g>
 <defs>
  <clipPath id="p59910db416">
   <rect height="266.112" width="357.12" x="57.6" y="41.472"/>
  </clipPath>
 </defs>
</svg>
