<?xml version="1.0" encoding="utf-8" standalone="no"?>
<!DOCTYPE svg PUBLIC "-//W3C//DTD SVG 1.1//EN"
  "http://www.w3.org/Graphics/SVG/1.1/DTD/svg11.dtd">
<svg height="345.6pt" version="1.1" viewBox="0 0 460.8 345.6" width="460.8pt" xmlns="http://www.w3.org/2000/svg" xmlns:xlink="http://www.w3.org/1999/xlink">
 <metadata>
  <rdf:RDF xmlns:cc="http://creativecommons.org/ns#" xmlns:dc="http://purl.org/dc/elements/1.1/" xmlns:rdf="http://www.w3.org/1999/02/22-rdf-syntax-ns#">
   <cc:Work>
    <dc:type rdf:resource="http://purl.org/dc/dcmitype/StillImage"/>
    <dc:date>2022-06-13T13:11:25.483356</dc:date>
    <dc:format>image/svg+xml</dc:format>
    <dc:creator>
     <cc:Agent>
      <dc:title>Matplotlib v3.4.2, https://matplotlib.org/</dc:title>
     </cc:Agent>
    </dc:creator>
   </cc:Work>
  </rdf:RDF>
 </metadata>
 <defs>
  <style type="text/css">*{stroke-linecap:butt;stroke-linejoin:round;}</style>
 </defs>
 <g id="figure_1">
  <g id="patch_1">
   <path d="M 0 345.6 
L 460.8 345.6 
L 460.8 0 
L 0 0 
z
" style="fill:#ffffff;"/>
  </g>
  <g id="axes_1">
   <g id="patch_2">
    <path d="M 57.6 307.584 
L 414.72 307.584 
L 414.72 41.472 
L 57.6 41.472 
z
" style="fill:#ffffff;"/>
   </g>
   <g id="matplotlib.axis_1">
    <g id="xtick_1">
     <g id="line2d_1">
      <defs>
       <path d="M 0 0 
L 0 3.5 
" id="m1cb5e34f90" style="stroke:#000000;stroke-width:0.8;"/>
      </defs>
      <g>
       <use style="stroke:#000000;stroke-width:0.8;" x="90.711891" xlink:href="#m1cb5e34f90" y="307.584"/>
      </g>
     </g>
     <g id="text_1">
      <!-- 995 -->
      <g transform="translate(81.168141 322.182437)scale(0.1 -0.1)">
       <defs>
        <path d="M 703 97 
L 703 672 
Q 941 559 1184 500 
Q 1428 441 1663 441 
Q 2288 441 2617 861 
Q 2947 1281 2994 2138 
Q 2813 1869 2534 1725 
Q 2256 1581 1919 1581 
Q 1219 1581 811 2004 
Q 403 2428 403 3163 
Q 403 3881 828 4315 
Q 1253 4750 1959 4750 
Q 2769 4750 3195 4129 
Q 3622 3509 3622 2328 
Q 3622 1225 3098 567 
Q 2575 -91 1691 -91 
Q 1453 -91 1209 -44 
Q 966 3 703 97 
z
M 1959 2075 
Q 2384 2075 2632 2365 
Q 2881 2656 2881 3163 
Q 2881 3666 2632 3958 
Q 2384 4250 1959 4250 
Q 1534 4250 1286 3958 
Q 1038 3666 1038 3163 
Q 1038 2656 1286 2365 
Q 1534 2075 1959 2075 
z
" id="DejaVuSans-39" transform="scale(0.015625)"/>
        <path d="M 691 4666 
L 3169 4666 
L 3169 4134 
L 1269 4134 
L 1269 2991 
Q 1406 3038 1543 3061 
Q 1681 3084 1819 3084 
Q 2600 3084 3056 2656 
Q 3513 2228 3513 1497 
Q 3513 744 3044 326 
Q 2575 -91 1722 -91 
Q 1428 -91 1123 -41 
Q 819 9 494 109 
L 494 744 
Q 775 591 1075 516 
Q 1375 441 1709 441 
Q 2250 441 2565 725 
Q 2881 1009 2881 1497 
Q 2881 1984 2565 2268 
Q 2250 2553 1709 2553 
Q 1456 2553 1204 2497 
Q 953 2441 691 2322 
L 691 4666 
z
" id="DejaVuSans-35" transform="scale(0.015625)"/>
       </defs>
       <use xlink:href="#DejaVuSans-39"/>
       <use x="63.623047" xlink:href="#DejaVuSans-39"/>
       <use x="127.246094" xlink:href="#DejaVuSans-35"/>
      </g>
     </g>
    </g>
    <g id="xtick_2">
     <g id="line2d_2">
      <g>
       <use style="stroke:#000000;stroke-width:0.8;" x="150.56708" xlink:href="#m1cb5e34f90" y="307.584"/>
      </g>
     </g>
     <g id="text_2">
      <!-- 1000 -->
      <g transform="translate(137.84208 322.182437)scale(0.1 -0.1)">
       <defs>
        <path d="M 794 531 
L 1825 531 
L 1825 4091 
L 703 3866 
L 703 4441 
L 1819 4666 
L 2450 4666 
L 2450 531 
L 3481 531 
L 3481 0 
L 794 0 
L 794 531 
z
" id="DejaVuSans-31" transform="scale(0.015625)"/>
        <path d="M 2034 4250 
Q 1547 4250 1301 3770 
Q 1056 3291 1056 2328 
Q 1056 1369 1301 889 
Q 1547 409 2034 409 
Q 2525 409 2770 889 
Q 3016 1369 3016 2328 
Q 3016 3291 2770 3770 
Q 2525 4250 2034 4250 
z
M 2034 4750 
Q 2819 4750 3233 4129 
Q 3647 3509 3647 2328 
Q 3647 1150 3233 529 
Q 2819 -91 2034 -91 
Q 1250 -91 836 529 
Q 422 1150 422 2328 
Q 422 3509 836 4129 
Q 1250 4750 2034 4750 
z
" id="DejaVuSans-30" transform="scale(0.015625)"/>
       </defs>
       <use xlink:href="#DejaVuSans-31"/>
       <use x="63.623047" xlink:href="#DejaVuSans-30"/>
       <use x="127.246094" xlink:href="#DejaVuSans-30"/>
       <use x="190.869141" xlink:href="#DejaVuSans-30"/>
      </g>
     </g>
    </g>
    <g id="xtick_3">
     <g id="line2d_3">
      <g>
       <use style="stroke:#000000;stroke-width:0.8;" x="210.422269" xlink:href="#m1cb5e34f90" y="307.584"/>
      </g>
     </g>
     <g id="text_3">
      <!-- 1005 -->
      <g transform="translate(197.697269 322.182437)scale(0.1 -0.1)">
       <use xlink:href="#DejaVuSans-31"/>
       <use x="63.623047" xlink:href="#DejaVuSans-30"/>
       <use x="127.246094" xlink:href="#DejaVuSans-30"/>
       <use x="190.869141" xlink:href="#DejaVuSans-35"/>
      </g>
     </g>
    </g>
    <g id="xtick_4">
     <g id="line2d_4">
      <g>
       <use style="stroke:#000000;stroke-width:0.8;" x="270.277458" xlink:href="#m1cb5e34f90" y="307.584"/>
      </g>
     </g>
     <g id="text_4">
      <!-- 1010 -->
      <g transform="translate(257.552458 322.182437)scale(0.1 -0.1)">
       <use xlink:href="#DejaVuSans-31"/>
       <use x="63.623047" xlink:href="#DejaVuSans-30"/>
       <use x="127.246094" xlink:href="#DejaVuSans-31"/>
       <use x="190.869141" xlink:href="#DejaVuSans-30"/>
      </g>
     </g>
    </g>
    <g id="xtick_5">
     <g id="line2d_5">
      <g>
       <use style="stroke:#000000;stroke-width:0.8;" x="330.132647" xlink:href="#m1cb5e34f90" y="307.584"/>
      </g>
     </g>
     <g id="text_5">
      <!-- 1015 -->
      <g transform="translate(317.407647 322.182437)scale(0.1 -0.1)">
       <use xlink:href="#DejaVuSans-31"/>
       <use x="63.623047" xlink:href="#DejaVuSans-30"/>
       <use x="127.246094" xlink:href="#DejaVuSans-31"/>
       <use x="190.869141" xlink:href="#DejaVuSans-35"/>
      </g>
     </g>
    </g>
    <g id="xtick_6">
     <g id="line2d_6">
      <g>
       <use style="stroke:#000000;stroke-width:0.8;" x="389.987836" xlink:href="#m1cb5e34f90" y="307.584"/>
      </g>
     </g>
     <g id="text_6">
      <!-- 1020 -->
      <g transform="translate(377.262836 322.182437)scale(0.1 -0.1)">
       <defs>
        <path d="M 1228 531 
L 3431 531 
L 3431 0 
L 469 0 
L 469 531 
Q 828 903 1448 1529 
Q 2069 2156 2228 2338 
Q 2531 2678 2651 2914 
Q 2772 3150 2772 3378 
Q 2772 3750 2511 3984 
Q 2250 4219 1831 4219 
Q 1534 4219 1204 4116 
Q 875 4013 500 3803 
L 500 4441 
Q 881 4594 1212 4672 
Q 1544 4750 1819 4750 
Q 2544 4750 2975 4387 
Q 3406 4025 3406 3419 
Q 3406 3131 3298 2873 
Q 3191 2616 2906 2266 
Q 2828 2175 2409 1742 
Q 1991 1309 1228 531 
z
" id="DejaVuSans-32" transform="scale(0.015625)"/>
       </defs>
       <use xlink:href="#DejaVuSans-31"/>
       <use x="63.623047" xlink:href="#DejaVuSans-30"/>
       <use x="127.246094" xlink:href="#DejaVuSans-32"/>
       <use x="190.869141" xlink:href="#DejaVuSans-30"/>
      </g>
     </g>
    </g>
    <g id="text_7">
     <!-- air_pressure from WeatherBitIO -->
     <g transform="translate(157.506875 335.860562)scale(0.1 -0.1)">
      <defs>
       <path d="M 2194 1759 
Q 1497 1759 1228 1600 
Q 959 1441 959 1056 
Q 959 750 1161 570 
Q 1363 391 1709 391 
Q 2188 391 2477 730 
Q 2766 1069 2766 1631 
L 2766 1759 
L 2194 1759 
z
M 3341 1997 
L 3341 0 
L 2766 0 
L 2766 531 
Q 2569 213 2275 61 
Q 1981 -91 1556 -91 
Q 1019 -91 701 211 
Q 384 513 384 1019 
Q 384 1609 779 1909 
Q 1175 2209 1959 2209 
L 2766 2209 
L 2766 2266 
Q 2766 2663 2505 2880 
Q 2244 3097 1772 3097 
Q 1472 3097 1187 3025 
Q 903 2953 641 2809 
L 641 3341 
Q 956 3463 1253 3523 
Q 1550 3584 1831 3584 
Q 2591 3584 2966 3190 
Q 3341 2797 3341 1997 
z
" id="DejaVuSans-61" transform="scale(0.015625)"/>
       <path d="M 603 3500 
L 1178 3500 
L 1178 0 
L 603 0 
L 603 3500 
z
M 603 4863 
L 1178 4863 
L 1178 4134 
L 603 4134 
L 603 4863 
z
" id="DejaVuSans-69" transform="scale(0.015625)"/>
       <path d="M 2631 2963 
Q 2534 3019 2420 3045 
Q 2306 3072 2169 3072 
Q 1681 3072 1420 2755 
Q 1159 2438 1159 1844 
L 1159 0 
L 581 0 
L 581 3500 
L 1159 3500 
L 1159 2956 
Q 1341 3275 1631 3429 
Q 1922 3584 2338 3584 
Q 2397 3584 2469 3576 
Q 2541 3569 2628 3553 
L 2631 2963 
z
" id="DejaVuSans-72" transform="scale(0.015625)"/>
       <path d="M 3263 -1063 
L 3263 -1509 
L -63 -1509 
L -63 -1063 
L 3263 -1063 
z
" id="DejaVuSans-5f" transform="scale(0.015625)"/>
       <path d="M 1159 525 
L 1159 -1331 
L 581 -1331 
L 581 3500 
L 1159 3500 
L 1159 2969 
Q 1341 3281 1617 3432 
Q 1894 3584 2278 3584 
Q 2916 3584 3314 3078 
Q 3713 2572 3713 1747 
Q 3713 922 3314 415 
Q 2916 -91 2278 -91 
Q 1894 -91 1617 61 
Q 1341 213 1159 525 
z
M 3116 1747 
Q 3116 2381 2855 2742 
Q 2594 3103 2138 3103 
Q 1681 3103 1420 2742 
Q 1159 2381 1159 1747 
Q 1159 1113 1420 752 
Q 1681 391 2138 391 
Q 2594 391 2855 752 
Q 3116 1113 3116 1747 
z
" id="DejaVuSans-70" transform="scale(0.015625)"/>
       <path d="M 3597 1894 
L 3597 1613 
L 953 1613 
Q 991 1019 1311 708 
Q 1631 397 2203 397 
Q 2534 397 2845 478 
Q 3156 559 3463 722 
L 3463 178 
Q 3153 47 2828 -22 
Q 2503 -91 2169 -91 
Q 1331 -91 842 396 
Q 353 884 353 1716 
Q 353 2575 817 3079 
Q 1281 3584 2069 3584 
Q 2775 3584 3186 3129 
Q 3597 2675 3597 1894 
z
M 3022 2063 
Q 3016 2534 2758 2815 
Q 2500 3097 2075 3097 
Q 1594 3097 1305 2825 
Q 1016 2553 972 2059 
L 3022 2063 
z
" id="DejaVuSans-65" transform="scale(0.015625)"/>
       <path d="M 2834 3397 
L 2834 2853 
Q 2591 2978 2328 3040 
Q 2066 3103 1784 3103 
Q 1356 3103 1142 2972 
Q 928 2841 928 2578 
Q 928 2378 1081 2264 
Q 1234 2150 1697 2047 
L 1894 2003 
Q 2506 1872 2764 1633 
Q 3022 1394 3022 966 
Q 3022 478 2636 193 
Q 2250 -91 1575 -91 
Q 1294 -91 989 -36 
Q 684 19 347 128 
L 347 722 
Q 666 556 975 473 
Q 1284 391 1588 391 
Q 1994 391 2212 530 
Q 2431 669 2431 922 
Q 2431 1156 2273 1281 
Q 2116 1406 1581 1522 
L 1381 1569 
Q 847 1681 609 1914 
Q 372 2147 372 2553 
Q 372 3047 722 3315 
Q 1072 3584 1716 3584 
Q 2034 3584 2315 3537 
Q 2597 3491 2834 3397 
z
" id="DejaVuSans-73" transform="scale(0.015625)"/>
       <path d="M 544 1381 
L 544 3500 
L 1119 3500 
L 1119 1403 
Q 1119 906 1312 657 
Q 1506 409 1894 409 
Q 2359 409 2629 706 
Q 2900 1003 2900 1516 
L 2900 3500 
L 3475 3500 
L 3475 0 
L 2900 0 
L 2900 538 
Q 2691 219 2414 64 
Q 2138 -91 1772 -91 
Q 1169 -91 856 284 
Q 544 659 544 1381 
z
M 1991 3584 
L 1991 3584 
z
" id="DejaVuSans-75" transform="scale(0.015625)"/>
       <path id="DejaVuSans-20" transform="scale(0.015625)"/>
       <path d="M 2375 4863 
L 2375 4384 
L 1825 4384 
Q 1516 4384 1395 4259 
Q 1275 4134 1275 3809 
L 1275 3500 
L 2222 3500 
L 2222 3053 
L 1275 3053 
L 1275 0 
L 697 0 
L 697 3053 
L 147 3053 
L 147 3500 
L 697 3500 
L 697 3744 
Q 697 4328 969 4595 
Q 1241 4863 1831 4863 
L 2375 4863 
z
" id="DejaVuSans-66" transform="scale(0.015625)"/>
       <path d="M 1959 3097 
Q 1497 3097 1228 2736 
Q 959 2375 959 1747 
Q 959 1119 1226 758 
Q 1494 397 1959 397 
Q 2419 397 2687 759 
Q 2956 1122 2956 1747 
Q 2956 2369 2687 2733 
Q 2419 3097 1959 3097 
z
M 1959 3584 
Q 2709 3584 3137 3096 
Q 3566 2609 3566 1747 
Q 3566 888 3137 398 
Q 2709 -91 1959 -91 
Q 1206 -91 779 398 
Q 353 888 353 1747 
Q 353 2609 779 3096 
Q 1206 3584 1959 3584 
z
" id="DejaVuSans-6f" transform="scale(0.015625)"/>
       <path d="M 3328 2828 
Q 3544 3216 3844 3400 
Q 4144 3584 4550 3584 
Q 5097 3584 5394 3201 
Q 5691 2819 5691 2113 
L 5691 0 
L 5113 0 
L 5113 2094 
Q 5113 2597 4934 2840 
Q 4756 3084 4391 3084 
Q 3944 3084 3684 2787 
Q 3425 2491 3425 1978 
L 3425 0 
L 2847 0 
L 2847 2094 
Q 2847 2600 2669 2842 
Q 2491 3084 2119 3084 
Q 1678 3084 1418 2786 
Q 1159 2488 1159 1978 
L 1159 0 
L 581 0 
L 581 3500 
L 1159 3500 
L 1159 2956 
Q 1356 3278 1631 3431 
Q 1906 3584 2284 3584 
Q 2666 3584 2933 3390 
Q 3200 3197 3328 2828 
z
" id="DejaVuSans-6d" transform="scale(0.015625)"/>
       <path d="M 213 4666 
L 850 4666 
L 1831 722 
L 2809 4666 
L 3519 4666 
L 4500 722 
L 5478 4666 
L 6119 4666 
L 4947 0 
L 4153 0 
L 3169 4050 
L 2175 0 
L 1381 0 
L 213 4666 
z
" id="DejaVuSans-57" transform="scale(0.015625)"/>
       <path d="M 1172 4494 
L 1172 3500 
L 2356 3500 
L 2356 3053 
L 1172 3053 
L 1172 1153 
Q 1172 725 1289 603 
Q 1406 481 1766 481 
L 2356 481 
L 2356 0 
L 1766 0 
Q 1100 0 847 248 
Q 594 497 594 1153 
L 594 3053 
L 172 3053 
L 172 3500 
L 594 3500 
L 594 4494 
L 1172 4494 
z
" id="DejaVuSans-74" transform="scale(0.015625)"/>
       <path d="M 3513 2113 
L 3513 0 
L 2938 0 
L 2938 2094 
Q 2938 2591 2744 2837 
Q 2550 3084 2163 3084 
Q 1697 3084 1428 2787 
Q 1159 2491 1159 1978 
L 1159 0 
L 581 0 
L 581 4863 
L 1159 4863 
L 1159 2956 
Q 1366 3272 1645 3428 
Q 1925 3584 2291 3584 
Q 2894 3584 3203 3211 
Q 3513 2838 3513 2113 
z
" id="DejaVuSans-68" transform="scale(0.015625)"/>
       <path d="M 1259 2228 
L 1259 519 
L 2272 519 
Q 2781 519 3026 730 
Q 3272 941 3272 1375 
Q 3272 1813 3026 2020 
Q 2781 2228 2272 2228 
L 1259 2228 
z
M 1259 4147 
L 1259 2741 
L 2194 2741 
Q 2656 2741 2882 2914 
Q 3109 3088 3109 3444 
Q 3109 3797 2882 3972 
Q 2656 4147 2194 4147 
L 1259 4147 
z
M 628 4666 
L 2241 4666 
Q 2963 4666 3353 4366 
Q 3744 4066 3744 3513 
Q 3744 3084 3544 2831 
Q 3344 2578 2956 2516 
Q 3422 2416 3680 2098 
Q 3938 1781 3938 1306 
Q 3938 681 3513 340 
Q 3088 0 2303 0 
L 628 0 
L 628 4666 
z
" id="DejaVuSans-42" transform="scale(0.015625)"/>
       <path d="M 628 4666 
L 1259 4666 
L 1259 0 
L 628 0 
L 628 4666 
z
" id="DejaVuSans-49" transform="scale(0.015625)"/>
       <path d="M 2522 4238 
Q 1834 4238 1429 3725 
Q 1025 3213 1025 2328 
Q 1025 1447 1429 934 
Q 1834 422 2522 422 
Q 3209 422 3611 934 
Q 4013 1447 4013 2328 
Q 4013 3213 3611 3725 
Q 3209 4238 2522 4238 
z
M 2522 4750 
Q 3503 4750 4090 4092 
Q 4678 3434 4678 2328 
Q 4678 1225 4090 567 
Q 3503 -91 2522 -91 
Q 1538 -91 948 565 
Q 359 1222 359 2328 
Q 359 3434 948 4092 
Q 1538 4750 2522 4750 
z
" id="DejaVuSans-4f" transform="scale(0.015625)"/>
      </defs>
      <use xlink:href="#DejaVuSans-61"/>
      <use x="61.279297" xlink:href="#DejaVuSans-69"/>
      <use x="89.0625" xlink:href="#DejaVuSans-72"/>
      <use x="130.175781" xlink:href="#DejaVuSans-5f"/>
      <use x="180.175781" xlink:href="#DejaVuSans-70"/>
      <use x="243.652344" xlink:href="#DejaVuSans-72"/>
      <use x="282.515625" xlink:href="#DejaVuSans-65"/>
      <use x="344.039062" xlink:href="#DejaVuSans-73"/>
      <use x="396.138672" xlink:href="#DejaVuSans-73"/>
      <use x="448.238281" xlink:href="#DejaVuSans-75"/>
      <use x="511.617188" xlink:href="#DejaVuSans-72"/>
      <use x="550.480469" xlink:href="#DejaVuSans-65"/>
      <use x="612.003906" xlink:href="#DejaVuSans-20"/>
      <use x="643.791016" xlink:href="#DejaVuSans-66"/>
      <use x="678.996094" xlink:href="#DejaVuSans-72"/>
      <use x="717.859375" xlink:href="#DejaVuSans-6f"/>
      <use x="779.041016" xlink:href="#DejaVuSans-6d"/>
      <use x="876.453125" xlink:href="#DejaVuSans-20"/>
      <use x="908.240234" xlink:href="#DejaVuSans-57"/>
      <use x="1001.242188" xlink:href="#DejaVuSans-65"/>
      <use x="1062.765625" xlink:href="#DejaVuSans-61"/>
      <use x="1124.044922" xlink:href="#DejaVuSans-74"/>
      <use x="1163.253906" xlink:href="#DejaVuSans-68"/>
      <use x="1226.632812" xlink:href="#DejaVuSans-65"/>
      <use x="1288.15625" xlink:href="#DejaVuSans-72"/>
      <use x="1329.269531" xlink:href="#DejaVuSans-42"/>
      <use x="1397.873047" xlink:href="#DejaVuSans-69"/>
      <use x="1425.65625" xlink:href="#DejaVuSans-74"/>
      <use x="1464.865234" xlink:href="#DejaVuSans-49"/>
      <use x="1494.357422" xlink:href="#DejaVuSans-4f"/>
     </g>
    </g>
   </g>
   <g id="matplotlib.axis_2">
    <g id="ytick_1">
     <g id="line2d_7">
      <defs>
       <path d="M 0 0 
L -3.5 0 
" id="meb543b42d9" style="stroke:#000000;stroke-width:0.8;"/>
      </defs>
      <g>
       <use style="stroke:#000000;stroke-width:0.8;" x="57.6" xlink:href="#meb543b42d9" y="256.803011"/>
      </g>
     </g>
     <g id="text_8">
      <!-- 4.5 -->
      <g transform="translate(34.696875 260.60223)scale(0.1 -0.1)">
       <defs>
        <path d="M 2419 4116 
L 825 1625 
L 2419 1625 
L 2419 4116 
z
M 2253 4666 
L 3047 4666 
L 3047 1625 
L 3713 1625 
L 3713 1100 
L 3047 1100 
L 3047 0 
L 2419 0 
L 2419 1100 
L 313 1100 
L 313 1709 
L 2253 4666 
z
" id="DejaVuSans-34" transform="scale(0.015625)"/>
        <path d="M 684 794 
L 1344 794 
L 1344 0 
L 684 0 
L 684 794 
z
" id="DejaVuSans-2e" transform="scale(0.015625)"/>
       </defs>
       <use xlink:href="#DejaVuSans-34"/>
       <use x="63.623047" xlink:href="#DejaVuSans-2e"/>
       <use x="95.410156" xlink:href="#DejaVuSans-35"/>
      </g>
     </g>
    </g>
    <g id="ytick_2">
     <g id="line2d_8">
      <g>
       <use style="stroke:#000000;stroke-width:0.8;" x="57.6" xlink:href="#meb543b42d9" y="201.27432"/>
      </g>
     </g>
     <g id="text_9">
      <!-- 5.0 -->
      <g transform="translate(34.696875 205.073539)scale(0.1 -0.1)">
       <use xlink:href="#DejaVuSans-35"/>
       <use x="63.623047" xlink:href="#DejaVuSans-2e"/>
       <use x="95.410156" xlink:href="#DejaVuSans-30"/>
      </g>
     </g>
    </g>
    <g id="ytick_3">
     <g id="line2d_9">
      <g>
       <use style="stroke:#000000;stroke-width:0.8;" x="57.6" xlink:href="#meb543b42d9" y="145.745628"/>
      </g>
     </g>
     <g id="text_10">
      <!-- 5.5 -->
      <g transform="translate(34.696875 149.544847)scale(0.1 -0.1)">
       <use xlink:href="#DejaVuSans-35"/>
       <use x="63.623047" xlink:href="#DejaVuSans-2e"/>
       <use x="95.410156" xlink:href="#DejaVuSans-35"/>
      </g>
     </g>
    </g>
    <g id="ytick_4">
     <g id="line2d_10">
      <g>
       <use style="stroke:#000000;stroke-width:0.8;" x="57.6" xlink:href="#meb543b42d9" y="90.216936"/>
      </g>
     </g>
     <g id="text_11">
      <!-- 6.0 -->
      <g transform="translate(34.696875 94.016155)scale(0.1 -0.1)">
       <defs>
        <path d="M 2113 2584 
Q 1688 2584 1439 2293 
Q 1191 2003 1191 1497 
Q 1191 994 1439 701 
Q 1688 409 2113 409 
Q 2538 409 2786 701 
Q 3034 994 3034 1497 
Q 3034 2003 2786 2293 
Q 2538 2584 2113 2584 
z
M 3366 4563 
L 3366 3988 
Q 3128 4100 2886 4159 
Q 2644 4219 2406 4219 
Q 1781 4219 1451 3797 
Q 1122 3375 1075 2522 
Q 1259 2794 1537 2939 
Q 1816 3084 2150 3084 
Q 2853 3084 3261 2657 
Q 3669 2231 3669 1497 
Q 3669 778 3244 343 
Q 2819 -91 2113 -91 
Q 1303 -91 875 529 
Q 447 1150 447 2328 
Q 447 3434 972 4092 
Q 1497 4750 2381 4750 
Q 2619 4750 2861 4703 
Q 3103 4656 3366 4563 
z
" id="DejaVuSans-36" transform="scale(0.015625)"/>
       </defs>
       <use xlink:href="#DejaVuSans-36"/>
       <use x="63.623047" xlink:href="#DejaVuSans-2e"/>
       <use x="95.410156" xlink:href="#DejaVuSans-30"/>
      </g>
     </g>
    </g>
   </g>
   <g id="line2d_11">
    <path clip-path="url(#p3b02c5657f)" d="M 73.832727 241.389833 
L 75.855833 232.784328 
L 78.609171 265.391449 
L 82.092743 224.475217 
L 85.648142 248.973466 
L 87.288174 249.534923 
L 91.621689 262.133766 
L 93.153982 259.7006 
L 101.509767 264.465971 
L 113.229413 240.486831 
L 115.97078 257.762865 
L 126.194047 242.042476 
L 128.719936 263.940972 
L 128.971327 246.641261 
L 130.216315 250.50976 
L 130.766983 251.492449 
L 131.042317 256.21996 
L 139.290362 245.197515 
L 139.84103 259.653484 
L 142.15144 242.023837 
L 145.766693 253.787376 
L 151.405052 256.992462 
L 153.559839 242.328533 
L 161.460724 247.141019 
L 166.60827 250.426467 
L 167.685664 246.520949 
L 167.925084 256.016355 
L 173.551472 252.941632 
L 174.269735 262.719341 
L 181.452357 239.740559 
L 184.325406 239.085087 
L 190.430636 264.758759 
L 194.381078 236.442491 
L 197.732969 232.314858 
L 197.972389 250.148111 
L 199.528624 259.135217 
L 203.479067 254.115423 
L 204.317039 232.380483 
L 207.309799 248.427434 
L 210.302558 247.74258 
L 218.203443 242.328533 
L 219.161126 247.534768 
L 223.59041 241.175651 
L 231.491295 253.764078 
L 233.526372 234.665573 
L 236.27971 262.318862 
L 239.033049 240.11664 
L 240.589284 261.87992 
L 240.828705 251.040367 
L 243.342623 226.382543 
L 243.821464 215.845049 
L 245.497409 237.923256 
L 249.328142 227.140594 
L 251.123797 256.406378 
L 253.757426 204.087774 
L 253.877136 239.007176 
L 255.672792 207.793388 
L 256.510764 250.513125 
L 257.109316 258.014547 
L 257.707868 233.036731 
L 261.658311 263.325109 
L 261.778021 268.926776 
L 263.932808 214.740028 
L 264.411649 267.0388 
L 266.805857 246.286732 
L 267.643829 262.189295 
L 269.678906 229.209523 
L 270.636589 261.047871 
L 270.87601 249.228898 
L 270.99572 221.18388 
L 271.594272 254.066961 
L 273.270217 245.586216 
L 273.629348 207.837811 
L 273.868769 259.515985 
L 274.946163 241.291997 
L 276.262977 263.053956 
L 276.741818 239.888972 
L 277.34037 229.70501 
L 277.579791 252.110837 
L 279.136026 223.652383 
L 279.614867 236.784918 
L 279.973998 259.459846 
L 280.213419 264.932412 
L 280.692261 257.304356 
L 281.530233 255.340756 
L 281.769654 247.474191 
L 282.128785 219.589533 
L 282.487916 253.760039 
L 282.727337 214.409379 
L 283.56531 239.848251 
L 283.924441 220.820419 
L 284.642703 248.196064 
L 285.241255 247.674095 
L 285.720097 257.247241 
L 286.198938 238.774696 
L 286.438359 250.320037 
L 286.558069 232.916419 
L 286.79749 270.209224 
L 287.036911 261.624753 
L 287.156621 254.561672 
L 287.515752 270.981337 
L 287.994594 266.20587 
L 288.234014 255.5309 
L 288.353725 257.620798 
L 288.593146 227.798525 
L 288.712856 222.116089 
L 288.832566 232.47219 
L 288.952277 266.650099 
L 289.071987 231.346191 
L 289.431118 261.550715 
L 289.550829 258.598439 
L 289.670539 245.485255 
L 289.790249 252.120092 
L 290.02967 256.386546 
L 290.149381 234.480477 
L 290.508512 243.725047 
L 290.628222 251.987563 
L 290.987353 268.019807 
L 291.226774 246.770828 
L 291.466195 258.664684 
L 291.705615 249.440832 
L 291.825326 239.244839 
L 292.184457 273.310177 
L 292.304167 274.053925 
L 292.663298 258.37368 
L 293.02243 200.044756 
L 293.26185 264.696018 
L 293.381561 244.9455 
L 293.620981 244.334296 
L 293.740692 251.472257 
L 293.860402 248.515354 
L 294.219533 253.991871 
L 294.339244 248.46908 
L 294.578665 259.143149 
L 294.818085 246.538136 
L 295.177216 257.530629 
L 295.296927 247.603758 
L 295.536348 53.568 
L 295.656058 244.494151 
L 295.895479 259.377524 
L 296.134899 253.827843 
L 296.37432 251.974236 
L 296.494031 254.924291 
L 296.733451 269.944802 
L 296.853162 248.769861 
L 297.571424 246.437656 
L 297.691134 254.74228 
L 298.529107 258.1357 
L 299.007949 258.376324 
L 299.48679 224.493856 
L 299.726211 267.786587 
L 299.845921 233.904998 
L 300.085342 234.436054 
L 301.043025 234.512208 
L 301.282446 237.219893 
L 301.402156 267.344208 
L 301.761287 254.461552 
L 302.120418 258.678647 
L 302.71897 263.688569 
L 302.958391 244.203047 
L 303.078101 247.37323 
L 303.317522 240.344307 
L 303.437233 241.615914 
L 303.916074 258.204043 
L 304.035784 244.20227 
L 304.155495 268.501056 
L 304.394916 258.36707 
L 305.113178 251.467428 
L 305.352599 266.367829 
L 306.908833 227.59492 
L 307.028544 257.18378 
L 307.507385 258.950121 
L 307.986227 276.261852 
L 308.225648 226.138834 
L 308.8242 277.880116 
L 309.422751 252.72628 
L 310.021303 244.967467 
L 310.260724 264.465971 
L 310.500145 250.644375 
L 310.859276 246.807847 
L 311.098697 212.29368 
L 311.577538 269.519082 
L 311.697249 253.369487 
L 311.936669 237.556767 
L 312.05638 213.934862 
L 312.2958 209.575859 
L 312.774642 295.488 
L 313.612615 252.057444 
L 314.809718 252.865522 
L 314.929429 210.367143 
L 315.16885 237.02422 
L 317.203926 227.321548 
L 317.563057 262.331201 
L 318.640451 280.162081 
L 320.795237 255.322246 
L 321.393789 170.539189 
L 321.63321 233.523675 
L 322.231762 241.770601 
L 324.027418 209.825738 
L 324.506259 269.352496 
L 325.823073 214.187265 
L 326.062494 250.038607 
L 326.541335 254.726238 
L 327.738439 230.807041 
L 327.85815 248.746303 
L 328.696122 241.214593 
L 329.653805 263.410926 
L 330.372068 246.124417 
L 330.970619 239.300368 
L 331.329751 243.781533 
L 331.808592 264.943518 
L 333.005696 255.227385 
L 334.32251 226.669441 
L 335.160483 231.667024 
L 335.759035 263.549748 
L 335.878745 253.230666 
L 336.477297 240.654445 
L 336.716718 256.850607 
L 336.956138 241.032863 
L 337.674401 262.170785 
L 338.153242 219.365568 
L 338.512373 252.427351 
L 338.991215 269.463553 
L 339.230636 259.929277 
L 339.589767 256.062629 
L 339.829187 249.129956 
L 339.948898 230.380609 
L 340.66716 197.898175 
L 340.906581 264.59924 
L 341.265712 238.324771 
L 341.624843 242.976367 
L 341.744553 230.610555 
L 342.582526 254.50347 
L 342.941657 251.194614 
L 343.181078 263.056396 
L 343.420499 250.644375 
L 343.540209 252.718568 
L 343.77963 243.062532 
L 343.89934 265.720919 
L 344.258471 247.585249 
L 344.378182 252.03764 
L 344.857023 240.477576 
L 345.096444 251.104913 
L 345.455575 261.384129 
L 345.575286 243.453914 
L 345.694996 193.762802 
L 345.934417 255.812038 
L 346.532969 247.484287 
L 346.772389 255.888924 
L 347.01181 248.436689 
L 347.251231 258.0161 
L 347.370941 259.292548 
L 347.490652 271.906816 
L 347.849783 232.536973 
L 348.208914 257.219477 
L 349.286307 248.847796 
L 349.525728 217.630044 
L 349.884859 251.765045 
L 350.12428 251.916487 
L 350.24399 250.74774 
L 350.363701 253.193647 
L 350.722832 254.605662 
L 351.201673 229.075685 
L 351.321384 232.037215 
L 352.279067 243.587183 
L 352.518488 251.07245 
L 352.997329 249.371422 
L 353.35646 249.273321 
L 353.476171 255.646164 
L 353.835302 225.299734 
L 354.314143 255.081622 
L 354.433854 252.093169 
L 355.152116 260.967663 
L 355.391537 238.589601 
L 355.630957 273.19912 
L 355.750668 272.850803 
L 356.229509 230.149239 
L 356.58864 243.309539 
L 356.947772 265.606833 
L 357.187192 237.458835 
L 357.546323 242.430335 
L 358.025165 204.546241 
L 358.144875 265.865294 
L 358.384296 157.359057 
L 358.504006 249.372263 
L 359.222269 255.38703 
L 360.658793 249.180437 
L 360.778504 256.318397 
L 361.017924 257.648756 
L 361.496766 238.034314 
L 361.736187 267.567035 
L 361.975607 258.145796 
L 362.095318 234.924707 
L 362.215028 259.379543 
L 362.574159 251.007835 
L 362.69387 255.181574 
L 362.81358 236.970014 
L 362.93329 268.241922 
L 363.053001 260.745549 
L 363.172711 277.718819 
L 363.292422 241.497285 
L 363.531842 216.156009 
L 363.651553 246.347752 
L 364.010684 260.319829 
L 364.130394 248.660284 
L 364.369815 239.607627 
L 364.489525 270.918405 
L 364.609236 246.03933 
L 364.728946 251.004891 
L 364.848656 267.675529 
L 364.968367 251.561103 
L 365.207788 234.458883 
L 365.327498 257.352746 
L 365.686629 225.780982 
L 366.285181 254.454474 
L 366.524602 253.600857 
L 366.764023 258.054931 
L 366.883733 257.464728 
L 367.003443 243.439106 
L 367.242864 247.466787 
L 367.601995 241.524689 
L 367.721706 255.026093 
L 367.961126 251.72466 
L 368.080837 253.713597 
L 368.200547 270.620401 
L 368.320257 241.211521 
L 368.439968 253.804462 
L 368.679389 237.645613 
L 368.918809 257.699403 
L 369.03852 251.546295 
L 369.15823 268.436272 
L 369.517361 243.009684 
L 369.637072 249.695339 
L 369.756782 248.029478 
L 369.876492 250.566712 
L 369.996203 266.586157 
L 370.115913 255.335123 
L 370.235623 230.414069 
L 370.355334 230.627641 
L 370.475044 257.276467 
L 370.594755 254.945324 
L 370.834175 252.535235 
L 370.953886 275.395868 
L 371.073596 244.9585 
L 371.313017 256.760297 
L 371.791858 264.577028 
L 371.911569 245.692646 
L 372.510121 257.025126 
L 373.348093 251.351104 
L 373.587514 260.721751 
L 374.066356 256.762627 
L 374.305776 232.723752 
L 374.545197 259.157428 
L 374.664907 248.584765 
L 374.784618 264.072643 
L 375.50288 244.26146 
L 375.862011 258.320796 
L 376.340853 262.955591 
L 376.699984 245.815272 
L 376.819694 246.122993 
L 376.939405 226.050212 
L 377.059115 250.117357 
L 378.016798 260.875116 
L 378.136508 231.381976 
L 378.49564 261.014649 
L 378.73506 261.346268 
L 379.333612 246.992943 
L 379.453323 252.860474 
L 379.692743 231.592985 
L 379.812454 256.932578 
L 379.932164 242.957858 
L 380.051874 266.061159 
L 380.171585 261.895786 
L 380.530716 263.309668 
L 380.770137 256.325876 
L 381.248978 228.618234 
L 381.368689 259.62572 
L 381.72782 189.735458 
L 381.84753 253.980303 
L 381.967241 248.917937 
L 382.086951 266.788921 
L 382.326372 252.305187 
L 382.685503 239.579021 
L 383.164344 256.836329 
L 383.523475 248.917937 
L 383.643186 261.411893 
L 384.002317 276.11589 
L 384.122027 253.47129 
L 384.361448 234.878433 
L 385.319131 255.763832 
L 385.678262 255.037199 
L 385.797973 249.286648 
L 385.917683 235.137567 
L 386.157104 291.823106 
L 386.516235 243.646983 
L 386.755656 259.807731 
L 387.952759 249.547262 
L 388.07247 211.343523 
L 388.311891 239.871032 
L 388.551311 244.734776 
L 388.671022 251.344114 
L 389.149863 249.409763 
L 389.389284 242.416809 
L 389.628705 248.186809 
L 389.987836 238.802461 
L 390.107546 261.345258 
L 390.466677 248.029478 
L 390.825809 266.177264 
L 391.663781 262.381509 
L 392.382043 260.463077 
L 392.501754 273.887339 
L 392.980595 252.175621 
L 393.459437 256.189552 
L 393.818568 253.939318 
L 394.776251 257.913585 
L 395.015672 254.433787 
L 396.093065 259.421403 
L 396.691617 264.295113 
L 396.931038 253.3523 
L 398.008431 263.666358 
L 398.487273 247.49982 
L 398.487273 247.49982 
" style="fill:none;stroke:#0000ff;stroke-linecap:square;stroke-width:1.5;"/>
   </g>
   <g id="patch_3">
    <path d="M 57.6 307.584 
L 57.6 41.472 
" style="fill:none;stroke:#000000;stroke-linecap:square;stroke-linejoin:miter;stroke-width:0.8;"/>
   </g>
   <g id="patch_4">
    <path d="M 414.72 307.584 
L 414.72 41.472 
" style="fill:none;stroke:#000000;stroke-linecap:square;stroke-linejoin:miter;stroke-width:0.8;"/>
   </g>
   <g id="patch_5">
    <path d="M 57.6 307.584 
L 414.72 307.584 
" style="fill:none;stroke:#000000;stroke-linecap:square;stroke-linejoin:miter;stroke-width:0.8;"/>
   </g>
   <g id="patch_6">
    <path d="M 57.6 41.472 
L 414.72 41.472 
" style="fill:none;stroke:#000000;stroke-linecap:square;stroke-linejoin:miter;stroke-width:0.8;"/>
   </g>
   <g id="text_12">
    <!-- air_pressure-&gt;ping -->
    <g transform="translate(179.16 35.472)scale(0.12 -0.12)">
     <defs>
      <path d="M 313 2009 
L 1997 2009 
L 1997 1497 
L 313 1497 
L 313 2009 
z
" id="DejaVuSans-2d" transform="scale(0.015625)"/>
      <path d="M 678 3150 
L 678 3719 
L 4684 2266 
L 4684 1747 
L 678 294 
L 678 863 
L 3897 2003 
L 678 3150 
z
" id="DejaVuSans-3e" transform="scale(0.015625)"/>
      <path d="M 3513 2113 
L 3513 0 
L 2938 0 
L 2938 2094 
Q 2938 2591 2744 2837 
Q 2550 3084 2163 3084 
Q 1697 3084 1428 2787 
Q 1159 2491 1159 1978 
L 1159 0 
L 581 0 
L 581 3500 
L 1159 3500 
L 1159 2956 
Q 1366 3272 1645 3428 
Q 1925 3584 2291 3584 
Q 2894 3584 3203 3211 
Q 3513 2838 3513 2113 
z
" id="DejaVuSans-6e" transform="scale(0.015625)"/>
      <path d="M 2906 1791 
Q 2906 2416 2648 2759 
Q 2391 3103 1925 3103 
Q 1463 3103 1205 2759 
Q 947 2416 947 1791 
Q 947 1169 1205 825 
Q 1463 481 1925 481 
Q 2391 481 2648 825 
Q 2906 1169 2906 1791 
z
M 3481 434 
Q 3481 -459 3084 -895 
Q 2688 -1331 1869 -1331 
Q 1566 -1331 1297 -1286 
Q 1028 -1241 775 -1147 
L 775 -588 
Q 1028 -725 1275 -790 
Q 1522 -856 1778 -856 
Q 2344 -856 2625 -561 
Q 2906 -266 2906 331 
L 2906 616 
Q 2728 306 2450 153 
Q 2172 0 1784 0 
Q 1141 0 747 490 
Q 353 981 353 1791 
Q 353 2603 747 3093 
Q 1141 3584 1784 3584 
Q 2172 3584 2450 3431 
Q 2728 3278 2906 2969 
L 2906 3500 
L 3481 3500 
L 3481 434 
z
" id="DejaVuSans-67" transform="scale(0.015625)"/>
     </defs>
     <use xlink:href="#DejaVuSans-61"/>
     <use x="61.279297" xlink:href="#DejaVuSans-69"/>
     <use x="89.0625" xlink:href="#DejaVuSans-72"/>
     <use x="130.175781" xlink:href="#DejaVuSans-5f"/>
     <use x="180.175781" xlink:href="#DejaVuSans-70"/>
     <use x="243.652344" xlink:href="#DejaVuSans-72"/>
     <use x="282.515625" xlink:href="#DejaVuSans-65"/>
     <use x="344.039062" xlink:href="#DejaVuSans-73"/>
     <use x="396.138672" xlink:href="#DejaVuSans-73"/>
     <use x="448.238281" xlink:href="#DejaVuSans-75"/>
     <use x="511.617188" xlink:href="#DejaVuSans-72"/>
     <use x="550.480469" xlink:href="#DejaVuSans-65"/>
     <use x="612.003906" xlink:href="#DejaVuSans-2d"/>
     <use x="648.087891" xlink:href="#DejaVuSans-3e"/>
     <use x="731.876953" xlink:href="#DejaVuSans-70"/>
     <use x="795.353516" xlink:href="#DejaVuSans-69"/>
     <use x="823.136719" xlink:href="#DejaVuSans-6e"/>
     <use x="886.515625" xlink:href="#DejaVuSans-67"/>
    </g>
   </g>
  </g>
  <g id="legend_1">
   <g id="patch_7">
    <path d="M 415.451563 22.678125 
L 453.8 22.678125 
Q 455.8 22.678125 455.8 20.678125 
L 455.8 7 
Q 455.8 5 453.8 5 
L 415.451563 5 
Q 413.451563 5 413.451563 7 
L 413.451563 20.678125 
Q 413.451563 22.678125 415.451563 22.678125 
z
" style="fill:#ffffff;opacity:0.8;stroke:#cccccc;stroke-linejoin:miter;"/>
   </g>
   <g id="line2d_12">
    <path d="M 417.451563 13.098438 
L 437.451563 13.098438 
" style="fill:none;stroke:#0000ff;stroke-linecap:square;stroke-width:1.5;"/>
   </g>
   <g id="line2d_13"/>
   <g id="text_13">
    <!-- p -->
    <g transform="translate(445.451563 16.598438)scale(0.1 -0.1)">
     <use xlink:href="#DejaVuSans-70"/>
    </g>
   </g>
  </g>
 </g>
 <defs>
  <clipPath id="p3b02c5657f">
   <rect height="266.112" width="357.12" x="57.6" y="41.472"/>
  </clipPath>
 </defs>
</svg>
