<?xml version="1.0" encoding="utf-8" standalone="no"?>
<!DOCTYPE svg PUBLIC "-//W3C//DTD SVG 1.1//EN"
  "http://www.w3.org/Graphics/SVG/1.1/DTD/svg11.dtd">
<!-- Created with matplotlib (https://matplotlib.org/) -->
<svg height="2090.31625pt" version="1.1" viewBox="0 0 2062.259375 2090.31625" width="2062.259375pt" xmlns="http://www.w3.org/2000/svg" xmlns:xlink="http://www.w3.org/1999/xlink">
 <metadata>
  <rdf:RDF xmlns:cc="http://creativecommons.org/ns#" xmlns:dc="http://purl.org/dc/elements/1.1/" xmlns:rdf="http://www.w3.org/1999/02/22-rdf-syntax-ns#">
   <cc:Work>
    <dc:type rdf:resource="http://purl.org/dc/dcmitype/StillImage"/>
    <dc:date>2022-07-24T11:48:31.825012</dc:date>
    <dc:format>image/svg+xml</dc:format>
    <dc:creator>
     <cc:Agent>
      <dc:title>Matplotlib v3.3.2, https://matplotlib.org/</dc:title>
     </cc:Agent>
    </dc:creator>
   </cc:Work>
  </rdf:RDF>
 </metadata>
 <defs>
  <style type="text/css">*{stroke-linecap:butt;stroke-linejoin:round;}</style>
 </defs>
 <g id="figure_1">
  <g id="patch_1">
   <path d="M 0 2090.31625 
L 2062.259375 2090.31625 
L 2062.259375 0 
L 0 0 
z
" style="fill:#ffffff;"/>
  </g>
  <g id="axes_1">
   <g id="patch_2">
    <path d="M 44.059375 2052.76 
L 1829.659375 2052.76 
L 1829.659375 278.68 
L 44.059375 278.68 
z
" style="fill:#ffffff;"/>
   </g>
   <g id="matplotlib.axis_1">
    <g id="xtick_1">
     <g id="line2d_1">
      <defs>
       <path d="M 0 0 
L 0 3.5 
" id="m401f4eefa7" style="stroke:#000000;stroke-width:0.8;"/>
      </defs>
      <g>
       <use style="stroke:#000000;stroke-width:0.8;" x="248.065272" xlink:href="#m401f4eefa7" y="2052.76"/>
      </g>
     </g>
     <g id="text_1">
      <text style="font-family:DejaVu Sans;font-size:10px;font-stretch:normal;font-style:normal;font-weight:normal;text-anchor:middle;" transform="rotate(-0, 248.065272, 2067.358438)" x="248.065272" y="2067.358438">7.5</text>
     </g>
    </g>
    <g id="xtick_2">
     <g id="line2d_2">
      <g>
       <use style="stroke:#000000;stroke-width:0.8;" x="467.426451" xlink:href="#m401f4eefa7" y="2052.76"/>
      </g>
     </g>
     <g id="text_2">
      <text style="font-family:DejaVu Sans;font-size:10px;font-stretch:normal;font-style:normal;font-weight:normal;text-anchor:middle;" transform="rotate(-0, 467.426451, 2067.358438)" x="467.426451" y="2067.358438">10.0</text>
     </g>
    </g>
    <g id="xtick_3">
     <g id="line2d_3">
      <g>
       <use style="stroke:#000000;stroke-width:0.8;" x="686.787631" xlink:href="#m401f4eefa7" y="2052.76"/>
      </g>
     </g>
     <g id="text_3">
      <text style="font-family:DejaVu Sans;font-size:10px;font-stretch:normal;font-style:normal;font-weight:normal;text-anchor:middle;" transform="rotate(-0, 686.787631, 2067.358438)" x="686.787631" y="2067.358438">12.5</text>
     </g>
    </g>
    <g id="xtick_4">
     <g id="line2d_4">
      <g>
       <use style="stroke:#000000;stroke-width:0.8;" x="906.14881" xlink:href="#m401f4eefa7" y="2052.76"/>
      </g>
     </g>
     <g id="text_4">
      <text style="font-family:DejaVu Sans;font-size:10px;font-stretch:normal;font-style:normal;font-weight:normal;text-anchor:middle;" transform="rotate(-0, 906.14881, 2067.358438)" x="906.14881" y="2067.358438">15.0</text>
     </g>
    </g>
    <g id="xtick_5">
     <g id="line2d_5">
      <g>
       <use style="stroke:#000000;stroke-width:0.8;" x="1125.509989" xlink:href="#m401f4eefa7" y="2052.76"/>
      </g>
     </g>
     <g id="text_5">
      <text style="font-family:DejaVu Sans;font-size:10px;font-stretch:normal;font-style:normal;font-weight:normal;text-anchor:middle;" transform="rotate(-0, 1125.509989, 2067.358438)" x="1125.509989" y="2067.358438">17.5</text>
     </g>
    </g>
    <g id="xtick_6">
     <g id="line2d_6">
      <g>
       <use style="stroke:#000000;stroke-width:0.8;" x="1344.871169" xlink:href="#m401f4eefa7" y="2052.76"/>
      </g>
     </g>
     <g id="text_6">
      <text style="font-family:DejaVu Sans;font-size:10px;font-stretch:normal;font-style:normal;font-weight:normal;text-anchor:middle;" transform="rotate(-0, 1344.871169, 2067.358438)" x="1344.871169" y="2067.358438">20.0</text>
     </g>
    </g>
    <g id="xtick_7">
     <g id="line2d_7">
      <g>
       <use style="stroke:#000000;stroke-width:0.8;" x="1564.232348" xlink:href="#m401f4eefa7" y="2052.76"/>
      </g>
     </g>
     <g id="text_7">
      <text style="font-family:DejaVu Sans;font-size:10px;font-stretch:normal;font-style:normal;font-weight:normal;text-anchor:middle;" transform="rotate(-0, 1564.232348, 2067.358438)" x="1564.232348" y="2067.358438">22.5</text>
     </g>
    </g>
    <g id="xtick_8">
     <g id="line2d_8">
      <g>
       <use style="stroke:#000000;stroke-width:0.8;" x="1783.593527" xlink:href="#m401f4eefa7" y="2052.76"/>
      </g>
     </g>
     <g id="text_8">
      <text style="font-family:DejaVu Sans;font-size:10px;font-stretch:normal;font-style:normal;font-weight:normal;text-anchor:middle;" transform="rotate(-0, 1783.593527, 2067.358438)" x="1783.593527" y="2067.358438">25.0</text>
     </g>
    </g>
    <g id="text_9">
     <text style="font-family:DejaVu Sans;font-size:10px;font-stretch:normal;font-style:normal;font-weight:normal;text-anchor:middle;" transform="rotate(-0, 936.859375, 2081.036562)" x="936.859375" y="2081.036562">temperature from WeatherAPI</text>
    </g>
   </g>
   <g id="matplotlib.axis_2">
    <g id="ytick_1">
     <g id="line2d_9">
      <defs>
       <path d="M 0 0 
L -3.5 0 
" id="mbb98bccac6" style="stroke:#000000;stroke-width:0.8;"/>
      </defs>
      <g>
       <use style="stroke:#000000;stroke-width:0.8;" x="44.059375" xlink:href="#mbb98bccac6" y="2020.706444"/>
      </g>
     </g>
     <g id="text_10">
      <text style="font-family:DejaVu Sans;font-size:10px;font-stretch:normal;font-style:normal;font-weight:normal;text-anchor:end;" transform="rotate(-0, 37.059375, 2024.505662)" x="37.059375" y="2024.505662">4.2</text>
     </g>
    </g>
    <g id="ytick_2">
     <g id="line2d_10">
      <g>
       <use style="stroke:#000000;stroke-width:0.8;" x="44.059375" xlink:href="#mbb98bccac6" y="1750.781757"/>
      </g>
     </g>
     <g id="text_11">
      <text style="font-family:DejaVu Sans;font-size:10px;font-stretch:normal;font-style:normal;font-weight:normal;text-anchor:end;" transform="rotate(-0, 37.059375, 1754.580976)" x="37.059375" y="1754.580976">4.3</text>
     </g>
    </g>
    <g id="ytick_3">
     <g id="line2d_11">
      <g>
       <use style="stroke:#000000;stroke-width:0.8;" x="44.059375" xlink:href="#mbb98bccac6" y="1480.857071"/>
      </g>
     </g>
     <g id="text_12">
      <text style="font-family:DejaVu Sans;font-size:10px;font-stretch:normal;font-style:normal;font-weight:normal;text-anchor:end;" transform="rotate(-0, 37.059375, 1484.65629)" x="37.059375" y="1484.65629">4.4</text>
     </g>
    </g>
    <g id="ytick_4">
     <g id="line2d_12">
      <g>
       <use style="stroke:#000000;stroke-width:0.8;" x="44.059375" xlink:href="#mbb98bccac6" y="1210.932385"/>
      </g>
     </g>
     <g id="text_13">
      <text style="font-family:DejaVu Sans;font-size:10px;font-stretch:normal;font-style:normal;font-weight:normal;text-anchor:end;" transform="rotate(-0, 37.059375, 1214.731604)" x="37.059375" y="1214.731604">4.5</text>
     </g>
    </g>
    <g id="ytick_5">
     <g id="line2d_13">
      <g>
       <use style="stroke:#000000;stroke-width:0.8;" x="44.059375" xlink:href="#mbb98bccac6" y="941.007699"/>
      </g>
     </g>
     <g id="text_14">
      <text style="font-family:DejaVu Sans;font-size:10px;font-stretch:normal;font-style:normal;font-weight:normal;text-anchor:end;" transform="rotate(-0, 37.059375, 944.806917)" x="37.059375" y="944.806917">4.6</text>
     </g>
    </g>
    <g id="ytick_6">
     <g id="line2d_14">
      <g>
       <use style="stroke:#000000;stroke-width:0.8;" x="44.059375" xlink:href="#mbb98bccac6" y="671.083013"/>
      </g>
     </g>
     <g id="text_15">
      <text style="font-family:DejaVu Sans;font-size:10px;font-stretch:normal;font-style:normal;font-weight:normal;text-anchor:end;" transform="rotate(-0, 37.059375, 674.882231)" x="37.059375" y="674.882231">4.7</text>
     </g>
    </g>
    <g id="ytick_7">
     <g id="line2d_15">
      <g>
       <use style="stroke:#000000;stroke-width:0.8;" x="44.059375" xlink:href="#mbb98bccac6" y="401.158326"/>
      </g>
     </g>
     <g id="text_16">
      <text style="font-family:DejaVu Sans;font-size:10px;font-stretch:normal;font-style:normal;font-weight:normal;text-anchor:end;" transform="rotate(-0, 37.059375, 404.957545)" x="37.059375" y="404.957545">4.8</text>
     </g>
    </g>
    <g id="text_17">
     <text style="font-family:DejaVu Sans;font-size:10px;font-stretch:normal;font-style:normal;font-weight:normal;text-anchor:middle;" transform="rotate(-90, 14.798438, 1165.72)" x="14.798438" y="1165.72">ping_night[ms]</text>
    </g>
   </g>
   <g id="line2d_16">
    <path clip-path="url(#p66529a1655)" d="M 125.223011 1883.044854 
L 160.3208 1216.330879 
L 186.644142 923.462594 
L 195.418589 1623.917155 
L 204.193036 1386.383431 
L 212.967483 1182.590293 
L 221.74193 1283.81205 
L 230.516377 814.143096 
L 239.290825 1224.428619 
L 248.065272 1329.699247 
L 256.839719 1295.958661 
L 265.614166 1491.654059 
L 274.388613 1372.887197 
L 291.937508 584.707113 
L 300.711955 1256.819582 
L 309.486402 1224.428619 
L 318.260849 1372.887197 
L 327.035296 505.079331 
L 335.809744 1105.661757 
L 344.584191 1251.421088 
L 353.358638 1102.96251 
L 362.133085 951.804686 
L 370.907532 1128.605356 
L 379.681979 1235.225607 
L 388.456427 1053.026444 
L 397.230874 815.49272 
L 406.005321 1345.894728 
L 414.779768 1111.060251 
L 423.554215 1224.428619 
L 432.328662 1321.601506 
L 441.10311 1348.593975 
L 449.877557 1231.176736 
L 458.652004 932.909958 
L 467.426451 1314.853389 
L 476.200898 978.797155 
L 484.975346 1050.327197 
L 493.749793 1248.721841 
L 502.52424 1165.045188 
L 511.298687 1057.075314 
L 520.073134 1127.255732 
L 528.847581 919.413724 
L 537.622029 1166.394812 
L 546.396476 900.518996 
L 555.170923 889.722008 
L 563.94537 1189.33841 
L 572.719817 1044.928703 
L 581.494264 1140.751967 
L 590.268712 876.225774 
L 599.043159 1065.173054 
L 607.817606 945.056569 
L 616.592053 1009.838494 
L 625.3665 1094.86477 
L 634.140947 1038.180586 
L 642.915395 1015.236987 
L 651.689842 868.128033 
L 660.464289 1213.631632 
L 669.238736 368.767364 
L 678.013183 803.346109 
L 686.787631 1156.947448 
L 695.562078 1214.981255 
L 704.336525 1016.586611 
L 713.110972 1070.571548 
L 721.885419 810.094226 
L 730.659866 1003.090377 
L 739.434314 753.410042 
L 748.208761 770.955146 
L 756.983208 1035.481339 
L 765.757655 1030.082845 
L 774.532102 1011.188117 
L 783.306549 1013.887364 
L 792.080997 916.714477 
L 800.855444 1038.180586 
L 809.629891 1127.255732 
L 818.404338 1038.180586 
L 827.178785 984.195649 
L 835.953232 1271.665439 
L 844.72768 1117.808368 
L 853.502127 1391.781925 
L 862.276574 955.853556 
L 871.051021 1024.684351 
L 879.825468 1252.770711 
L 888.599916 978.797155 
L 897.374363 873.526527 
L 906.14881 1156.947448 
L 914.923257 1116.458745 
L 923.697704 997.691883 
L 932.472151 1086.767029 
L 941.246599 722.368703 
L 950.021046 1021.985105 
L 958.795493 1136.703096 
L 967.56994 1107.011381 
L 976.344387 1109.710628 
L 985.118834 1102.96251 
L 993.893282 428.150795 
L 1002.667729 922.112971 
L 1011.442176 398.459079 
L 1020.216623 949.105439 
L 1028.99107 904.567866 
L 1037.765518 830.338577 
L 1046.539965 757.458912 
L 1055.314412 1154.248201 
L 1064.088859 1244.672971 
L 1072.863306 1127.255732 
L 1081.637753 842.485188 
L 1090.412201 681.88 
L 1099.186648 1129.954979 
L 1107.961095 981.496402 
L 1116.735542 915.364854 
L 1125.509989 604.951464 
L 1143.058884 1367.488703 
L 1151.833331 583.35749 
L 1160.607778 900.518996 
L 1169.382225 1077.319665 
L 1186.931119 1294.609038 
L 1195.705567 908.616736 
L 1204.480014 827.639331 
L 1213.254461 1394.481172 
L 1230.803355 1394.481172 
L 1239.577803 673.782259 
L 1248.35225 1100.263264 
L 1257.126697 811.443849 
L 1274.675591 1252.770711 
L 1292.224486 935.609205 
L 1309.77338 897.819749 
L 1318.547827 568.511632 
L 1336.096721 1370.18795 
L 1344.871169 1081.368536 
L 1353.645616 1683.300586 
L 1362.420063 1139.402343 
L 1371.19451 951.804686 
L 1388.743404 1012.537741 
L 1415.066746 1534.842008 
L 1432.61564 1972.12 
L 1511.585665 1129.954979 
L 1608.104584 359.32 
L 1651.97682 981.496402 
L 1704.623503 976.097908 
L 1748.495739 1100.263264 
L 1748.495739 1100.263264 
" style="fill:none;stroke:#0000ff;stroke-linecap:square;stroke-width:1.5;"/>
   </g>
   <g id="patch_3">
    <path d="M 44.059375 2052.76 
L 44.059375 278.68 
" style="fill:none;stroke:#000000;stroke-linecap:square;stroke-linejoin:miter;stroke-width:0.8;"/>
   </g>
   <g id="patch_4">
    <path d="M 1829.659375 2052.76 
L 1829.659375 278.68 
" style="fill:none;stroke:#000000;stroke-linecap:square;stroke-linejoin:miter;stroke-width:0.8;"/>
   </g>
   <g id="patch_5">
    <path d="M 44.059375 2052.76 
L 1829.659375 2052.76 
" style="fill:none;stroke:#000000;stroke-linecap:square;stroke-linejoin:miter;stroke-width:0.8;"/>
   </g>
   <g id="patch_6">
    <path d="M 44.059375 278.68 
L 1829.659375 278.68 
" style="fill:none;stroke:#000000;stroke-linecap:square;stroke-linejoin:miter;stroke-width:0.8;"/>
   </g>
   <g id="text_18">
    <text style="font-family:DejaVu Sans;font-size:12px;font-stretch:normal;font-style:normal;font-weight:normal;text-anchor:middle;" transform="rotate(-0, 936.859375, 272.68)" x="936.859375" y="272.68">temperature-&gt;ping_night</text>
   </g>
  </g>
  <g id="legend_1">
   <g id="patch_7">
    <path d="M 1947.971875 22.95625 
L 2055.259375 22.95625 
Q 2057.259375 22.95625 2057.259375 20.95625 
L 2057.259375 7 
Q 2057.259375 5 2055.259375 5 
L 1947.971875 5 
Q 1945.971875 5 1945.971875 7 
L 1945.971875 20.95625 
Q 1945.971875 22.95625 1947.971875 22.95625 
z
" style="fill:#ffffff;opacity:0.8;stroke:#cccccc;stroke-linejoin:miter;"/>
   </g>
   <g id="line2d_17">
    <path d="M 1949.971875 13.098438 
L 1969.971875 13.098438 
" style="fill:none;stroke:#0000ff;stroke-linecap:square;stroke-width:1.5;"/>
   </g>
   <g id="line2d_18"/>
   <g id="text_19">
    <text style="font-family:DejaVu Sans;font-size:10px;font-stretch:normal;font-style:normal;font-weight:normal;text-anchor:start;" transform="rotate(-0, 1977.971875, 16.598438)" x="1977.971875" y="16.598438">ping_night[ms]</text>
   </g>
  </g>
 </g>
 <defs>
  <clipPath id="p66529a1655">
   <rect height="1774.08" width="1785.6" x="44.059375" y="278.68"/>
  </clipPath>
 </defs>
</svg>
