<?xml version="1.0" encoding="utf-8" standalone="no"?>
<!DOCTYPE svg PUBLIC "-//W3C//DTD SVG 1.1//EN"
  "http://www.w3.org/Graphics/SVG/1.1/DTD/svg11.dtd">
<!-- Created with matplotlib (https://matplotlib.org/) -->
<svg height="2090.594375pt" version="1.1" viewBox="0 0 2068.621875 2090.594375" width="2068.621875pt" xmlns="http://www.w3.org/2000/svg" xmlns:xlink="http://www.w3.org/1999/xlink">
 <metadata>
  <rdf:RDF xmlns:cc="http://creativecommons.org/ns#" xmlns:dc="http://purl.org/dc/elements/1.1/" xmlns:rdf="http://www.w3.org/1999/02/22-rdf-syntax-ns#">
   <cc:Work>
    <dc:type rdf:resource="http://purl.org/dc/dcmitype/StillImage"/>
    <dc:date>2022-07-23T21:19:56.857252</dc:date>
    <dc:format>image/svg+xml</dc:format>
    <dc:creator>
     <cc:Agent>
      <dc:title>Matplotlib v3.3.2, https://matplotlib.org/</dc:title>
     </cc:Agent>
    </dc:creator>
   </cc:Work>
  </rdf:RDF>
 </metadata>
 <defs>
  <style type="text/css">*{stroke-linecap:butt;stroke-linejoin:round;}</style>
 </defs>
 <g id="figure_1">
  <g id="patch_1">
   <path d="M 0 2090.594375 
L 2068.621875 2090.594375 
L 2068.621875 0 
L 0 0 
z
" style="fill:#ffffff;"/>
  </g>
  <g id="axes_1">
   <g id="patch_2">
    <path d="M 50.421875 2052.76 
L 1836.021875 2052.76 
L 1836.021875 278.68 
L 50.421875 278.68 
z
" style="fill:#ffffff;"/>
   </g>
   <g id="matplotlib.axis_1">
    <g id="xtick_1">
     <g id="line2d_1">
      <defs>
       <path d="M 0 0 
L 0 3.5 
" id="m0c6f663064" style="stroke:#000000;stroke-width:0.8;"/>
      </defs>
      <g>
       <use style="stroke:#000000;stroke-width:0.8;" x="150.315581" xlink:href="#m0c6f663064" y="2052.76"/>
      </g>
     </g>
     <g id="text_1">
      <text style="font-family:DejaVu Sans;font-size:10px;font-stretch:normal;font-style:normal;font-weight:normal;text-anchor:middle;" transform="rotate(-0, 150.315581, 2067.358437)" x="150.315581" y="2067.358437">1005</text>
     </g>
    </g>
    <g id="xtick_2">
     <g id="line2d_2">
      <g>
       <use style="stroke:#000000;stroke-width:0.8;" x="462.483413" xlink:href="#m0c6f663064" y="2052.76"/>
      </g>
     </g>
     <g id="text_2">
      <text style="font-family:DejaVu Sans;font-size:10px;font-stretch:normal;font-style:normal;font-weight:normal;text-anchor:middle;" transform="rotate(-0, 462.483413, 2067.358437)" x="462.483413" y="2067.358437">1010</text>
     </g>
    </g>
    <g id="xtick_3">
     <g id="line2d_3">
      <g>
       <use style="stroke:#000000;stroke-width:0.8;" x="774.651246" xlink:href="#m0c6f663064" y="2052.76"/>
      </g>
     </g>
     <g id="text_3">
      <text style="font-family:DejaVu Sans;font-size:10px;font-stretch:normal;font-style:normal;font-weight:normal;text-anchor:middle;" transform="rotate(-0, 774.651246, 2067.358437)" x="774.651246" y="2067.358437">1015</text>
     </g>
    </g>
    <g id="xtick_4">
     <g id="line2d_4">
      <g>
       <use style="stroke:#000000;stroke-width:0.8;" x="1086.819078" xlink:href="#m0c6f663064" y="2052.76"/>
      </g>
     </g>
     <g id="text_4">
      <text style="font-family:DejaVu Sans;font-size:10px;font-stretch:normal;font-style:normal;font-weight:normal;text-anchor:middle;" transform="rotate(-0, 1086.819078, 2067.358437)" x="1086.819078" y="2067.358437">1020</text>
     </g>
    </g>
    <g id="xtick_5">
     <g id="line2d_5">
      <g>
       <use style="stroke:#000000;stroke-width:0.8;" x="1398.98691" xlink:href="#m0c6f663064" y="2052.76"/>
      </g>
     </g>
     <g id="text_5">
      <text style="font-family:DejaVu Sans;font-size:10px;font-stretch:normal;font-style:normal;font-weight:normal;text-anchor:middle;" transform="rotate(-0, 1398.98691, 2067.358437)" x="1398.98691" y="2067.358437">1025</text>
     </g>
    </g>
    <g id="xtick_6">
     <g id="line2d_6">
      <g>
       <use style="stroke:#000000;stroke-width:0.8;" x="1711.154742" xlink:href="#m0c6f663064" y="2052.76"/>
      </g>
     </g>
     <g id="text_6">
      <text style="font-family:DejaVu Sans;font-size:10px;font-stretch:normal;font-style:normal;font-weight:normal;text-anchor:middle;" transform="rotate(-0, 1711.154742, 2067.358437)" x="1711.154742" y="2067.358437">1030</text>
     </g>
    </g>
    <g id="text_7">
     <text style="font-family:DejaVu Sans;font-size:10px;font-stretch:normal;font-style:normal;font-weight:normal;text-anchor:middle;" transform="rotate(-0, 943.221875, 2081.036562)" x="943.221875" y="2081.036562">air_pressure from BuienRadar</text>
    </g>
   </g>
   <g id="matplotlib.axis_2">
    <g id="ytick_1">
     <g id="line2d_7">
      <defs>
       <path d="M 0 0 
L -3.5 0 
" id="md84eeb6154" style="stroke:#000000;stroke-width:0.8;"/>
      </defs>
      <g>
       <use style="stroke:#000000;stroke-width:0.8;" x="50.421875" xlink:href="#md84eeb6154" y="1997.058413"/>
      </g>
     </g>
     <g id="text_8">
      <text style="font-family:DejaVu Sans;font-size:10px;font-stretch:normal;font-style:normal;font-weight:normal;text-anchor:end;" transform="rotate(-0, 43.421875, 2000.857632)" x="43.421875" y="2000.857632">1.15</text>
     </g>
    </g>
    <g id="ytick_2">
     <g id="line2d_8">
      <g>
       <use style="stroke:#000000;stroke-width:0.8;" x="50.421875" xlink:href="#md84eeb6154" y="1661.542337"/>
      </g>
     </g>
     <g id="text_9">
      <text style="font-family:DejaVu Sans;font-size:10px;font-stretch:normal;font-style:normal;font-weight:normal;text-anchor:end;" transform="rotate(-0, 43.421875, 1665.341556)" x="43.421875" y="1665.341556">1.20</text>
     </g>
    </g>
    <g id="ytick_3">
     <g id="line2d_9">
      <g>
       <use style="stroke:#000000;stroke-width:0.8;" x="50.421875" xlink:href="#md84eeb6154" y="1326.026261"/>
      </g>
     </g>
     <g id="text_10">
      <text style="font-family:DejaVu Sans;font-size:10px;font-stretch:normal;font-style:normal;font-weight:normal;text-anchor:end;" transform="rotate(-0, 43.421875, 1329.82548)" x="43.421875" y="1329.82548">1.25</text>
     </g>
    </g>
    <g id="ytick_4">
     <g id="line2d_10">
      <g>
       <use style="stroke:#000000;stroke-width:0.8;" x="50.421875" xlink:href="#md84eeb6154" y="990.510185"/>
      </g>
     </g>
     <g id="text_11">
      <text style="font-family:DejaVu Sans;font-size:10px;font-stretch:normal;font-style:normal;font-weight:normal;text-anchor:end;" transform="rotate(-0, 43.421875, 994.309404)" x="43.421875" y="994.309404">1.30</text>
     </g>
    </g>
    <g id="ytick_5">
     <g id="line2d_11">
      <g>
       <use style="stroke:#000000;stroke-width:0.8;" x="50.421875" xlink:href="#md84eeb6154" y="654.994109"/>
      </g>
     </g>
     <g id="text_12">
      <text style="font-family:DejaVu Sans;font-size:10px;font-stretch:normal;font-style:normal;font-weight:normal;text-anchor:end;" transform="rotate(-0, 43.421875, 658.793328)" x="43.421875" y="658.793328">1.35</text>
     </g>
    </g>
    <g id="ytick_6">
     <g id="line2d_12">
      <g>
       <use style="stroke:#000000;stroke-width:0.8;" x="50.421875" xlink:href="#md84eeb6154" y="319.478033"/>
      </g>
     </g>
     <g id="text_13">
      <text style="font-family:DejaVu Sans;font-size:10px;font-stretch:normal;font-style:normal;font-weight:normal;text-anchor:end;" transform="rotate(-0, 43.421875, 323.277252)" x="43.421875" y="323.277252">1.40</text>
     </g>
    </g>
    <g id="text_14">
     <text style="font-family:DejaVu Sans;font-size:10px;font-stretch:normal;font-style:normal;font-weight:normal;text-anchor:middle;" transform="rotate(-90, 14.798438, 1165.72)" x="14.798438" y="1165.72">Throughput_day[Bit/s]</text>
    </g>
    <g id="text_15">
     <text style="font-family:DejaVu Sans;font-size:10px;font-stretch:normal;font-style:normal;font-weight:normal;text-anchor:start;" transform="rotate(-0, 50.421875, 275.68)" x="50.421875" y="275.68">1e7</text>
    </g>
   </g>
   <g id="line2d_13">
    <path clip-path="url(#p109bc32b75)" d="M 131.585511 817.774859 
L 144.072225 359.32 
L 156.558938 592.430149 
L 162.802295 629.429418 
L 169.045651 1972.12 
L 175.289008 546.438113 
L 181.532365 578.730614 
L 187.775721 592.238602 
L 194.019078 609.978317 
L 200.262434 611.76774 
L 206.505791 619.66258 
L 212.749148 658.682706 
L 218.992504 623.676575 
L 225.235861 678.018789 
L 231.479218 705.04441 
L 237.722574 660.479258 
L 243.965931 714.751161 
L 250.209288 689.561618 
L 256.452644 670.178138 
L 268.939358 608.100693 
L 275.182714 689.464303 
L 281.426071 502.978457 
L 287.669427 512.70271 
L 293.912784 541.890714 
L 300.156141 578.838236 
L 312.642854 806.126998 
L 318.886211 711.055466 
L 325.129567 744.242074 
L 331.372924 676.070228 
L 337.616281 462.322397 
L 343.859637 534.05262 
L 350.102994 670.005408 
L 356.346351 771.22026 
L 362.589707 1109.412312 
L 368.833064 985.020074 
L 375.07642 705.142582 
L 381.319777 611.812339 
L 387.563134 802.212006 
L 393.80649 623.602649 
L 400.049847 802.325179 
L 406.293204 674.303216 
L 412.53656 695.257831 
L 418.779917 761.575109 
L 425.023274 609.909018 
L 431.26663 559.37875 
L 437.509987 533.996625 
L 443.753344 648.871057 
L 449.9967 576.960872 
L 456.240057 662.388023 
L 462.483413 732.337856 
L 468.72677 608.168983 
L 474.970127 670.107979 
L 481.213483 697.347617 
L 487.45684 619.54163 
L 493.700197 687.626079 
L 499.943553 720.751751 
L 506.18691 549.660872 
L 512.430267 689.517401 
L 518.673623 631.243646 
L 524.91698 623.599922 
L 531.160337 674.165821 
L 537.403693 650.88912 
L 543.64705 693.702441 
L 549.890406 631.310995 
L 556.133763 670.018069 
L 562.37712 646.977353 
L 568.620476 675.983408 
L 574.863833 699.36431 
L 581.10719 615.756789 
L 587.350546 724.497535 
L 593.593903 866.496985 
L 599.83726 759.964733 
L 606.080616 580.651158 
L 612.323973 652.627578 
L 618.56733 771.340979 
L 624.810686 689.521913 
L 631.054043 670.054698 
L 637.297399 782.727769 
L 643.540756 722.690874 
L 649.784113 693.460709 
L 656.027469 748.042353 
L 662.270826 674.146839 
L 668.514183 646.79 
L 674.757539 767.27656 
L 681.000896 703.114246 
L 687.244253 679.907909 
L 693.487609 703.063775 
L 699.730966 724.777986 
L 705.974323 697.511259 
L 712.217679 699.285006 
L 718.461036 755.579529 
L 724.704392 755.860803 
L 730.947749 709.057864 
L 737.191106 728.401537 
L 743.434462 708.947108 
L 749.677819 732.195053 
L 755.921176 718.722203 
L 762.164532 681.645989 
L 768.407889 648.82623 
L 774.651246 705.057022 
L 780.894602 631.267402 
L 787.137959 596.472009 
L 793.381316 681.860083 
L 799.624672 643.058309 
L 805.868029 635.241923 
L 812.111385 635.203192 
L 818.354742 746.379883 
L 824.598099 617.719316 
L 830.841455 658.677224 
L 837.084812 786.772285 
L 843.328169 747.942837 
L 849.571525 699.452502 
L 855.814882 716.701181 
L 862.058239 662.424263 
L 868.301595 668.294979 
L 874.544952 749.785196 
L 880.788309 693.348859 
L 887.031665 678.02421 
L 893.275022 650.569203 
L 899.518378 689.752021 
L 905.761735 771.156769 
L 912.005092 724.629274 
L 918.248448 619.788983 
L 924.491805 767.457271 
L 930.735162 730.28858 
L 936.978518 759.594952 
L 943.221875 748.168763 
L 949.465232 650.558327 
L 955.708588 849.268791 
L 961.951945 953.831451 
L 968.195302 856.585633 
L 974.438658 926.568187 
L 980.682015 623.669004 
L 986.925372 852.826725 
L 993.168728 732.400433 
L 999.412085 893.585032 
L 1005.655441 720.650623 
L 1011.898798 823.653894 
L 1018.142155 730.297635 
L 1024.385511 742.074629 
L 1030.628868 707.144017 
L 1036.872225 736.146205 
L 1043.115581 681.645989 
L 1049.358938 697.298959 
L 1055.602295 677.815939 
L 1061.845651 685.609252 
L 1068.089008 712.987502 
L 1074.332365 775.129944 
L 1080.575721 709.030851 
L 1086.819078 699.34471 
L 1093.062434 666.273603 
L 1099.305791 662.273107 
L 1105.549148 650.611799 
L 1111.792504 695.55544 
L 1118.035861 650.707866 
L 1124.279218 678.006139 
L 1130.522574 691.656875 
L 1136.765931 664.355295 
L 1143.009288 652.726302 
L 1149.252644 695.446324 
L 1155.496001 658.457691 
L 1161.739358 623.399941 
L 1167.982714 747.895767 
L 1174.226071 623.520978 
L 1180.469427 732.20667 
L 1186.712784 647.21909 
L 1192.956141 658.637432 
L 1199.199497 646.932021 
L 1205.442854 635.76477 
L 1211.686211 709.079475 
L 1217.929567 685.63453 
L 1224.172924 869.099531 
L 1230.416281 880.10345 
L 1236.659637 856.616842 
L 1242.902994 786.726653 
L 1249.146351 778.851087 
L 1255.389707 725.049432 
L 1261.633064 708.965118 
L 1267.87642 732.374679 
L 1274.119777 753.570887 
L 1280.363134 720.569686 
L 1286.60649 843.005058 
L 1292.849847 738.140617 
L 1299.093204 777.077059 
L 1305.33656 701.320141 
L 1311.579917 846.934536 
L 1317.823274 845.055188 
L 1324.06663 654.438507 
L 1330.309987 852.701788 
L 1336.553344 722.570457 
L 1342.7967 823.568139 
L 1349.040057 810.008131 
L 1355.283413 883.869746 
L 1361.52677 899.379485 
L 1367.770127 1523.253175 
L 1374.013483 930.500352 
L 1380.25684 934.356975 
L 1386.500197 1010.155178 
L 1392.743553 996.593551 
L 1398.98691 1035.455551 
L 1405.230267 926.690326 
L 1411.473623 953.704432 
L 1417.71698 961.509875 
L 1423.960337 979.113218 
L 1430.203693 1361.829382 
L 1436.44705 1006.279809 
L 1442.690406 907.139303 
L 1448.933763 868.339076 
L 1461.420476 986.74904 
L 1467.663833 899.331888 
L 1473.90719 973.224454 
L 1480.150546 996.473624 
L 1486.393903 940.158619 
L 1492.63726 944.070993 
L 1498.880616 881.899999 
L 1505.123973 957.711351 
L 1511.36733 907.098736 
L 1517.610686 942.264148 
L 1523.854043 916.862554 
L 1530.097399 1043.139141 
L 1536.340756 818.079642 
L 1542.584113 947.888238 
L 1555.070826 1015.970566 
L 1623.747749 930.479868 
L 1629.991106 914.996696 
L 1636.234462 930.47848 
L 1642.477819 938.168854 
L 1648.721176 980.928435 
L 1654.964532 977.152874 
L 1661.207889 794.415376 
L 1667.451246 907.152507 
L 1673.694602 934.29113 
L 1679.937959 856.691031 
L 1686.181316 864.550667 
L 1692.424672 957.874645 
L 1698.668029 1010.168572 
L 1704.911385 1006.500554 
L 1711.154742 934.420186 
L 1717.398099 942.133455 
L 1723.641455 990.738119 
L 1729.884812 1025.731933 
L 1736.128169 1019.88835 
L 1742.371525 884.37566 
L 1748.614882 905.311843 
L 1754.858239 885.7878 
L 1754.858239 885.7878 
" style="fill:none;stroke:#0000ff;stroke-linecap:square;stroke-width:1.5;"/>
   </g>
   <g id="patch_3">
    <path d="M 50.421875 2052.76 
L 50.421875 278.68 
" style="fill:none;stroke:#000000;stroke-linecap:square;stroke-linejoin:miter;stroke-width:0.8;"/>
   </g>
   <g id="patch_4">
    <path d="M 1836.021875 2052.76 
L 1836.021875 278.68 
" style="fill:none;stroke:#000000;stroke-linecap:square;stroke-linejoin:miter;stroke-width:0.8;"/>
   </g>
   <g id="patch_5">
    <path d="M 50.421875 2052.76 
L 1836.021875 2052.76 
" style="fill:none;stroke:#000000;stroke-linecap:square;stroke-linejoin:miter;stroke-width:0.8;"/>
   </g>
   <g id="patch_6">
    <path d="M 50.421875 278.68 
L 1836.021875 278.68 
" style="fill:none;stroke:#000000;stroke-linecap:square;stroke-linejoin:miter;stroke-width:0.8;"/>
   </g>
   <g id="text_16">
    <text style="font-family:DejaVu Sans;font-size:12px;font-stretch:normal;font-style:normal;font-weight:normal;text-anchor:middle;" transform="rotate(-0, 943.221875, 272.68)" x="943.221875" y="272.68">air_pressure-&gt;Throughput_day</text>
   </g>
  </g>
  <g id="legend_1">
   <g id="patch_7">
    <path d="M 1918.20625 22.95625 
L 2061.621875 22.95625 
Q 2063.621875 22.95625 2063.621875 20.95625 
L 2063.621875 7 
Q 2063.621875 5 2061.621875 5 
L 1918.20625 5 
Q 1916.20625 5 1916.20625 7 
L 1916.20625 20.95625 
Q 1916.20625 22.95625 1918.20625 22.95625 
z
" style="fill:#ffffff;opacity:0.8;stroke:#cccccc;stroke-linejoin:miter;"/>
   </g>
   <g id="line2d_14">
    <path d="M 1920.20625 13.098438 
L 1940.20625 13.098438 
" style="fill:none;stroke:#0000ff;stroke-linecap:square;stroke-width:1.5;"/>
   </g>
   <g id="line2d_15"/>
   <g id="text_17">
    <text style="font-family:DejaVu Sans;font-size:10px;font-stretch:normal;font-style:normal;font-weight:normal;text-anchor:start;" transform="rotate(-0, 1948.20625, 16.598438)" x="1948.20625" y="16.598438">Throughput_day[Bit/s]</text>
   </g>
  </g>
 </g>
 <defs>
  <clipPath id="p109bc32b75">
   <rect height="1774.08" width="1785.6" x="50.421875" y="278.68"/>
  </clipPath>
 </defs>
</svg>
