<?xml version="1.0" encoding="utf-8" standalone="no"?>
<!DOCTYPE svg PUBLIC "-//W3C//DTD SVG 1.1//EN"
  "http://www.w3.org/Graphics/SVG/1.1/DTD/svg11.dtd">
<!-- Created with matplotlib (https://matplotlib.org/) -->
<svg height="2090.594375pt" version="1.1" viewBox="0 0 2062.259375 2090.594375" width="2062.259375pt" xmlns="http://www.w3.org/2000/svg" xmlns:xlink="http://www.w3.org/1999/xlink">
 <metadata>
  <rdf:RDF xmlns:cc="http://creativecommons.org/ns#" xmlns:dc="http://purl.org/dc/elements/1.1/" xmlns:rdf="http://www.w3.org/1999/02/22-rdf-syntax-ns#">
   <cc:Work>
    <dc:type rdf:resource="http://purl.org/dc/dcmitype/StillImage"/>
    <dc:date>2022-07-24T11:55:16.591976</dc:date>
    <dc:format>image/svg+xml</dc:format>
    <dc:creator>
     <cc:Agent>
      <dc:title>Matplotlib v3.3.2, https://matplotlib.org/</dc:title>
     </cc:Agent>
    </dc:creator>
   </cc:Work>
  </rdf:RDF>
 </metadata>
 <defs>
  <style type="text/css">*{stroke-linecap:butt;stroke-linejoin:round;}</style>
 </defs>
 <g id="figure_1">
  <g id="patch_1">
   <path d="M 0 2090.594375 
L 2062.259375 2090.594375 
L 2062.259375 0 
L 0 0 
z
" style="fill:#ffffff;"/>
  </g>
  <g id="axes_1">
   <g id="patch_2">
    <path d="M 44.059375 2052.76 
L 1829.659375 2052.76 
L 1829.659375 278.68 
L 44.059375 278.68 
z
" style="fill:#ffffff;"/>
   </g>
   <g id="matplotlib.axis_1">
    <g id="xtick_1">
     <g id="line2d_1">
      <defs>
       <path d="M 0 0 
L 0 3.5 
" id="mdb1b2ea6e1" style="stroke:#000000;stroke-width:0.8;"/>
      </defs>
      <g>
       <use style="stroke:#000000;stroke-width:0.8;" x="110.330601" xlink:href="#mdb1b2ea6e1" y="2052.76"/>
      </g>
     </g>
     <g id="text_1">
      <text style="font-family:DejaVu Sans;font-size:10px;font-stretch:normal;font-style:normal;font-weight:normal;text-anchor:middle;" transform="rotate(-0, 110.330601, 2067.358437)" x="110.330601" y="2067.358437">0</text>
     </g>
    </g>
    <g id="xtick_2">
     <g id="line2d_2">
      <g>
       <use style="stroke:#000000;stroke-width:0.8;" x="408.178808" xlink:href="#mdb1b2ea6e1" y="2052.76"/>
      </g>
     </g>
     <g id="text_2">
      <text style="font-family:DejaVu Sans;font-size:10px;font-stretch:normal;font-style:normal;font-weight:normal;text-anchor:middle;" transform="rotate(-0, 408.178808, 2067.358437)" x="408.178808" y="2067.358437">2</text>
     </g>
    </g>
    <g id="xtick_3">
     <g id="line2d_3">
      <g>
       <use style="stroke:#000000;stroke-width:0.8;" x="706.027015" xlink:href="#mdb1b2ea6e1" y="2052.76"/>
      </g>
     </g>
     <g id="text_3">
      <text style="font-family:DejaVu Sans;font-size:10px;font-stretch:normal;font-style:normal;font-weight:normal;text-anchor:middle;" transform="rotate(-0, 706.027015, 2067.358437)" x="706.027015" y="2067.358437">4</text>
     </g>
    </g>
    <g id="xtick_4">
     <g id="line2d_4">
      <g>
       <use style="stroke:#000000;stroke-width:0.8;" x="1003.875222" xlink:href="#mdb1b2ea6e1" y="2052.76"/>
      </g>
     </g>
     <g id="text_4">
      <text style="font-family:DejaVu Sans;font-size:10px;font-stretch:normal;font-style:normal;font-weight:normal;text-anchor:middle;" transform="rotate(-0, 1003.875222, 2067.358437)" x="1003.875222" y="2067.358437">6</text>
     </g>
    </g>
    <g id="xtick_5">
     <g id="line2d_5">
      <g>
       <use style="stroke:#000000;stroke-width:0.8;" x="1301.723428" xlink:href="#mdb1b2ea6e1" y="2052.76"/>
      </g>
     </g>
     <g id="text_5">
      <text style="font-family:DejaVu Sans;font-size:10px;font-stretch:normal;font-style:normal;font-weight:normal;text-anchor:middle;" transform="rotate(-0, 1301.723428, 2067.358437)" x="1301.723428" y="2067.358437">8</text>
     </g>
    </g>
    <g id="xtick_6">
     <g id="line2d_6">
      <g>
       <use style="stroke:#000000;stroke-width:0.8;" x="1599.571635" xlink:href="#mdb1b2ea6e1" y="2052.76"/>
      </g>
     </g>
     <g id="text_6">
      <text style="font-family:DejaVu Sans;font-size:10px;font-stretch:normal;font-style:normal;font-weight:normal;text-anchor:middle;" transform="rotate(-0, 1599.571635, 2067.358437)" x="1599.571635" y="2067.358437">10</text>
     </g>
    </g>
    <g id="text_7">
     <text style="font-family:DejaVu Sans;font-size:10px;font-stretch:normal;font-style:normal;font-weight:normal;text-anchor:middle;" transform="rotate(-0, 936.859375, 2081.036562)" x="936.859375" y="2081.036562">wind_speed from BuienRadar</text>
    </g>
   </g>
   <g id="matplotlib.axis_2">
    <g id="ytick_1">
     <g id="line2d_7">
      <defs>
       <path d="M 0 0 
L -3.5 0 
" id="ma3376c5e18" style="stroke:#000000;stroke-width:0.8;"/>
      </defs>
      <g>
       <use style="stroke:#000000;stroke-width:0.8;" x="44.059375" xlink:href="#ma3376c5e18" y="1759.506702"/>
      </g>
     </g>
     <g id="text_8">
      <text style="font-family:DejaVu Sans;font-size:10px;font-stretch:normal;font-style:normal;font-weight:normal;text-anchor:end;" transform="rotate(-0, 37.059375, 1763.30592)" x="37.059375" y="1763.30592">1.0</text>
     </g>
    </g>
    <g id="ytick_2">
     <g id="line2d_8">
      <g>
       <use style="stroke:#000000;stroke-width:0.8;" x="44.059375" xlink:href="#ma3376c5e18" y="1383.471197"/>
      </g>
     </g>
     <g id="text_9">
      <text style="font-family:DejaVu Sans;font-size:10px;font-stretch:normal;font-style:normal;font-weight:normal;text-anchor:end;" transform="rotate(-0, 37.059375, 1387.270416)" x="37.059375" y="1387.270416">1.1</text>
     </g>
    </g>
    <g id="ytick_3">
     <g id="line2d_9">
      <g>
       <use style="stroke:#000000;stroke-width:0.8;" x="44.059375" xlink:href="#ma3376c5e18" y="1007.435692"/>
      </g>
     </g>
     <g id="text_10">
      <text style="font-family:DejaVu Sans;font-size:10px;font-stretch:normal;font-style:normal;font-weight:normal;text-anchor:end;" transform="rotate(-0, 37.059375, 1011.234911)" x="37.059375" y="1011.234911">1.2</text>
     </g>
    </g>
    <g id="ytick_4">
     <g id="line2d_10">
      <g>
       <use style="stroke:#000000;stroke-width:0.8;" x="44.059375" xlink:href="#ma3376c5e18" y="631.400188"/>
      </g>
     </g>
     <g id="text_11">
      <text style="font-family:DejaVu Sans;font-size:10px;font-stretch:normal;font-style:normal;font-weight:normal;text-anchor:end;" transform="rotate(-0, 37.059375, 635.199406)" x="37.059375" y="635.199406">1.3</text>
     </g>
    </g>
    <g id="text_12">
     <text style="font-family:DejaVu Sans;font-size:10px;font-stretch:normal;font-style:normal;font-weight:normal;text-anchor:middle;" transform="rotate(-90, 14.798438, 1165.72)" x="14.798438" y="1165.72">Throughput_day[Bit/s]</text>
    </g>
    <g id="text_13">
     <text style="font-family:DejaVu Sans;font-size:10px;font-stretch:normal;font-style:normal;font-weight:normal;text-anchor:start;" transform="rotate(-0, 44.059375, 275.68)" x="44.059375" y="275.68">1e7</text>
    </g>
   </g>
   <g id="line2d_11">
    <path clip-path="url(#p04da5197aa)" d="M 125.223011 632.606252 
L 140.115422 519.34483 
L 155.007832 528.077344 
L 169.900242 504.103712 
L 184.792653 412.6442 
L 199.685063 438.880323 
L 214.577473 467.096695 
L 229.469884 460.646421 
L 244.362294 434.486944 
L 259.254704 464.904626 
L 274.147115 480.20854 
L 289.039525 473.754596 
L 303.931935 465.164176 
L 318.824346 455.108509 
L 333.716756 454.093532 
L 348.609166 443.169571 
L 363.501577 459.531902 
L 378.393987 460.542458 
L 393.286398 482.515889 
L 408.178808 470.35297 
L 423.071218 491.091988 
L 437.963629 483.457508 
L 452.856039 497.6787 
L 467.748449 478.084082 
L 482.64086 493.228671 
L 497.53327 497.629202 
L 512.42568 500.83055 
L 527.318091 494.382697 
L 542.210501 482.423207 
L 557.102911 519.302674 
L 571.995322 477.966108 
L 586.887732 491.080422 
L 601.780142 495.379964 
L 616.672553 461.610181 
L 631.564963 498.822589 
L 646.457373 494.373935 
L 661.349784 469.441774 
L 676.242194 475.804324 
L 691.134604 526.962664 
L 706.027015 491.057039 
L 720.919425 486.841878 
L 735.811835 475.840135 
L 750.704246 476.951776 
L 765.596656 491.067851 
L 780.489066 499.841234 
L 795.381477 464.969832 
L 810.273887 491.054541 
L 825.166297 497.628448 
L 840.058708 475.972279 
L 854.951118 467.103769 
L 869.843528 521.520603 
L 884.735939 484.597563 
L 899.628349 499.715235 
L 914.520759 523.726507 
L 929.41317 482.39248 
L 944.30558 493.249782 
L 959.197991 478.123704 
L 974.090401 525.850488 
L 988.982811 523.796699 
L 1003.875222 509.567814 
L 1018.767632 541.153306 
L 1033.660042 521.574583 
L 1048.552453 525.892713 
L 1063.444863 525.936896 
L 1078.337273 559.713678 
L 1093.229684 505.222761 
L 1108.122094 545.448943 
L 1123.014504 491.087211 
L 1137.906915 508.622419 
L 1152.799325 574.882487 
L 1167.691735 500.802199 
L 1182.584146 541.189882 
L 1197.476556 571.603528 
L 1212.368966 453.987154 
L 1227.261377 500.905558 
L 1242.153787 499.9602 
L 1257.046197 468.183149 
L 1271.938608 510.704102 
L 1286.831018 532.421338 
L 1301.723428 441.078511 
L 1316.615839 444.237218 
L 1331.508249 359.32 
L 1346.400659 789.500631 
L 1361.29307 508.623421 
L 1376.18548 639.172086 
L 1391.07789 741.575267 
L 1420.862711 425.808491 
L 1435.755121 441.056166 
L 1450.647532 608.687819 
L 1480.432352 724.240398 
L 1525.109584 571.792025 
L 1540.001994 391.936153 
L 1554.894404 395.37356 
L 1733.603328 457.428711 
L 1748.495739 1972.12 
" style="fill:none;stroke:#0000ff;stroke-linecap:square;stroke-width:1.5;"/>
   </g>
   <g id="patch_3">
    <path d="M 44.059375 2052.76 
L 44.059375 278.68 
" style="fill:none;stroke:#000000;stroke-linecap:square;stroke-linejoin:miter;stroke-width:0.8;"/>
   </g>
   <g id="patch_4">
    <path d="M 1829.659375 2052.76 
L 1829.659375 278.68 
" style="fill:none;stroke:#000000;stroke-linecap:square;stroke-linejoin:miter;stroke-width:0.8;"/>
   </g>
   <g id="patch_5">
    <path d="M 44.059375 2052.76 
L 1829.659375 2052.76 
" style="fill:none;stroke:#000000;stroke-linecap:square;stroke-linejoin:miter;stroke-width:0.8;"/>
   </g>
   <g id="patch_6">
    <path d="M 44.059375 278.68 
L 1829.659375 278.68 
" style="fill:none;stroke:#000000;stroke-linecap:square;stroke-linejoin:miter;stroke-width:0.8;"/>
   </g>
   <g id="text_14">
    <text style="font-family:DejaVu Sans;font-size:12px;font-stretch:normal;font-style:normal;font-weight:normal;text-anchor:middle;" transform="rotate(-0, 936.859375, 272.68)" x="936.859375" y="272.68">wind_speed-&gt;Throughput_day</text>
   </g>
  </g>
  <g id="legend_1">
   <g id="patch_7">
    <path d="M 1911.84375 22.95625 
L 2055.259375 22.95625 
Q 2057.259375 22.95625 2057.259375 20.95625 
L 2057.259375 7 
Q 2057.259375 5 2055.259375 5 
L 1911.84375 5 
Q 1909.84375 5 1909.84375 7 
L 1909.84375 20.95625 
Q 1909.84375 22.95625 1911.84375 22.95625 
z
" style="fill:#ffffff;opacity:0.8;stroke:#cccccc;stroke-linejoin:miter;"/>
   </g>
   <g id="line2d_12">
    <path d="M 1913.84375 13.098438 
L 1933.84375 13.098438 
" style="fill:none;stroke:#0000ff;stroke-linecap:square;stroke-width:1.5;"/>
   </g>
   <g id="line2d_13"/>
   <g id="text_15">
    <text style="font-family:DejaVu Sans;font-size:10px;font-stretch:normal;font-style:normal;font-weight:normal;text-anchor:start;" transform="rotate(-0, 1941.84375, 16.598438)" x="1941.84375" y="16.598438">Throughput_day[Bit/s]</text>
   </g>
  </g>
 </g>
 <defs>
  <clipPath id="p04da5197aa">
   <rect height="1774.08" width="1785.6" x="44.059375" y="278.68"/>
  </clipPath>
 </defs>
</svg>
