<?xml version="1.0" encoding="utf-8" standalone="no"?>
<!DOCTYPE svg PUBLIC "-//W3C//DTD SVG 1.1//EN"
  "http://www.w3.org/Graphics/SVG/1.1/DTD/svg11.dtd">
<!-- Created with matplotlib (https://matplotlib.org/) -->
<svg height="2090.31625pt" version="1.1" viewBox="0 0 2062.259375 2090.31625" width="2062.259375pt" xmlns="http://www.w3.org/2000/svg" xmlns:xlink="http://www.w3.org/1999/xlink">
 <metadata>
  <rdf:RDF xmlns:cc="http://creativecommons.org/ns#" xmlns:dc="http://purl.org/dc/elements/1.1/" xmlns:rdf="http://www.w3.org/1999/02/22-rdf-syntax-ns#">
   <cc:Work>
    <dc:type rdf:resource="http://purl.org/dc/dcmitype/StillImage"/>
    <dc:date>2022-07-23T21:20:06.910313</dc:date>
    <dc:format>image/svg+xml</dc:format>
    <dc:creator>
     <cc:Agent>
      <dc:title>Matplotlib v3.3.2, https://matplotlib.org/</dc:title>
     </cc:Agent>
    </dc:creator>
   </cc:Work>
  </rdf:RDF>
 </metadata>
 <defs>
  <style type="text/css">*{stroke-linecap:butt;stroke-linejoin:round;}</style>
 </defs>
 <g id="figure_1">
  <g id="patch_1">
   <path d="M 0 2090.31625 
L 2062.259375 2090.31625 
L 2062.259375 0 
L 0 0 
z
" style="fill:#ffffff;"/>
  </g>
  <g id="axes_1">
   <g id="patch_2">
    <path d="M 44.059375 2052.76 
L 1829.659375 2052.76 
L 1829.659375 278.68 
L 44.059375 278.68 
z
" style="fill:#ffffff;"/>
   </g>
   <g id="matplotlib.axis_1">
    <g id="xtick_1">
     <g id="line2d_1">
      <defs>
       <path d="M 0 0 
L 0 3.5 
" id="m5478145446" style="stroke:#000000;stroke-width:0.8;"/>
      </defs>
      <g>
       <use style="stroke:#000000;stroke-width:0.8;" x="311.063426" xlink:href="#m5478145446" y="2052.76"/>
      </g>
     </g>
     <g id="text_1">
      <text style="font-family:DejaVu Sans;font-size:10px;font-stretch:normal;font-style:normal;font-weight:normal;text-anchor:middle;" transform="rotate(-0, 311.063426, 2067.358438)" x="311.063426" y="2067.358438">10</text>
     </g>
    </g>
    <g id="xtick_2">
     <g id="line2d_2">
      <g>
       <use style="stroke:#000000;stroke-width:0.8;" x="644.110765" xlink:href="#m5478145446" y="2052.76"/>
      </g>
     </g>
     <g id="text_2">
      <text style="font-family:DejaVu Sans;font-size:10px;font-stretch:normal;font-style:normal;font-weight:normal;text-anchor:middle;" transform="rotate(-0, 644.110765, 2067.358438)" x="644.110765" y="2067.358438">15</text>
     </g>
    </g>
    <g id="xtick_3">
     <g id="line2d_3">
      <g>
       <use style="stroke:#000000;stroke-width:0.8;" x="977.158103" xlink:href="#m5478145446" y="2052.76"/>
      </g>
     </g>
     <g id="text_3">
      <text style="font-family:DejaVu Sans;font-size:10px;font-stretch:normal;font-style:normal;font-weight:normal;text-anchor:middle;" transform="rotate(-0, 977.158103, 2067.358438)" x="977.158103" y="2067.358438">20</text>
     </g>
    </g>
    <g id="xtick_4">
     <g id="line2d_4">
      <g>
       <use style="stroke:#000000;stroke-width:0.8;" x="1310.205441" xlink:href="#m5478145446" y="2052.76"/>
      </g>
     </g>
     <g id="text_4">
      <text style="font-family:DejaVu Sans;font-size:10px;font-stretch:normal;font-style:normal;font-weight:normal;text-anchor:middle;" transform="rotate(-0, 1310.205441, 2067.358438)" x="1310.205441" y="2067.358438">25</text>
     </g>
    </g>
    <g id="xtick_5">
     <g id="line2d_5">
      <g>
       <use style="stroke:#000000;stroke-width:0.8;" x="1643.25278" xlink:href="#m5478145446" y="2052.76"/>
      </g>
     </g>
     <g id="text_5">
      <text style="font-family:DejaVu Sans;font-size:10px;font-stretch:normal;font-style:normal;font-weight:normal;text-anchor:middle;" transform="rotate(-0, 1643.25278, 2067.358438)" x="1643.25278" y="2067.358438">30</text>
     </g>
    </g>
    <g id="text_6">
     <text style="font-family:DejaVu Sans;font-size:10px;font-stretch:normal;font-style:normal;font-weight:normal;text-anchor:middle;" transform="rotate(-0, 936.859375, 2081.036562)" x="936.859375" y="2081.036562">temperature from OpenWeatherMap</text>
    </g>
   </g>
   <g id="matplotlib.axis_2">
    <g id="ytick_1">
     <g id="line2d_6">
      <defs>
       <path d="M 0 0 
L -3.5 0 
" id="m31433d9da4" style="stroke:#000000;stroke-width:0.8;"/>
      </defs>
      <g>
       <use style="stroke:#000000;stroke-width:0.8;" x="44.059375" xlink:href="#m31433d9da4" y="1978.729877"/>
      </g>
     </g>
     <g id="text_7">
      <text style="font-family:DejaVu Sans;font-size:10px;font-stretch:normal;font-style:normal;font-weight:normal;text-anchor:end;" transform="rotate(-0, 37.059375, 1982.529096)" x="37.059375" y="1982.529096">0.0</text>
     </g>
    </g>
    <g id="ytick_2">
     <g id="line2d_7">
      <g>
       <use style="stroke:#000000;stroke-width:0.8;" x="44.059375" xlink:href="#m31433d9da4" y="1750.460657"/>
      </g>
     </g>
     <g id="text_8">
      <text style="font-family:DejaVu Sans;font-size:10px;font-stretch:normal;font-style:normal;font-weight:normal;text-anchor:end;" transform="rotate(-0, 37.059375, 1754.259876)" x="37.059375" y="1754.259876">0.2</text>
     </g>
    </g>
    <g id="ytick_3">
     <g id="line2d_8">
      <g>
       <use style="stroke:#000000;stroke-width:0.8;" x="44.059375" xlink:href="#m31433d9da4" y="1522.191436"/>
      </g>
     </g>
     <g id="text_9">
      <text style="font-family:DejaVu Sans;font-size:10px;font-stretch:normal;font-style:normal;font-weight:normal;text-anchor:end;" transform="rotate(-0, 37.059375, 1525.990655)" x="37.059375" y="1525.990655">0.4</text>
     </g>
    </g>
    <g id="ytick_4">
     <g id="line2d_9">
      <g>
       <use style="stroke:#000000;stroke-width:0.8;" x="44.059375" xlink:href="#m31433d9da4" y="1293.922216"/>
      </g>
     </g>
     <g id="text_10">
      <text style="font-family:DejaVu Sans;font-size:10px;font-stretch:normal;font-style:normal;font-weight:normal;text-anchor:end;" transform="rotate(-0, 37.059375, 1297.721434)" x="37.059375" y="1297.721434">0.6</text>
     </g>
    </g>
    <g id="ytick_5">
     <g id="line2d_10">
      <g>
       <use style="stroke:#000000;stroke-width:0.8;" x="44.059375" xlink:href="#m31433d9da4" y="1065.652995"/>
      </g>
     </g>
     <g id="text_11">
      <text style="font-family:DejaVu Sans;font-size:10px;font-stretch:normal;font-style:normal;font-weight:normal;text-anchor:end;" transform="rotate(-0, 37.059375, 1069.452214)" x="37.059375" y="1069.452214">0.8</text>
     </g>
    </g>
    <g id="ytick_6">
     <g id="line2d_11">
      <g>
       <use style="stroke:#000000;stroke-width:0.8;" x="44.059375" xlink:href="#m31433d9da4" y="837.383774"/>
      </g>
     </g>
     <g id="text_12">
      <text style="font-family:DejaVu Sans;font-size:10px;font-stretch:normal;font-style:normal;font-weight:normal;text-anchor:end;" transform="rotate(-0, 37.059375, 841.182993)" x="37.059375" y="841.182993">1.0</text>
     </g>
    </g>
    <g id="ytick_7">
     <g id="line2d_12">
      <g>
       <use style="stroke:#000000;stroke-width:0.8;" x="44.059375" xlink:href="#m31433d9da4" y="609.114554"/>
      </g>
     </g>
     <g id="text_13">
      <text style="font-family:DejaVu Sans;font-size:10px;font-stretch:normal;font-style:normal;font-weight:normal;text-anchor:end;" transform="rotate(-0, 37.059375, 612.913772)" x="37.059375" y="612.913772">1.2</text>
     </g>
    </g>
    <g id="ytick_8">
     <g id="line2d_13">
      <g>
       <use style="stroke:#000000;stroke-width:0.8;" x="44.059375" xlink:href="#m31433d9da4" y="380.845333"/>
      </g>
     </g>
     <g id="text_14">
      <text style="font-family:DejaVu Sans;font-size:10px;font-stretch:normal;font-style:normal;font-weight:normal;text-anchor:end;" transform="rotate(-0, 37.059375, 384.644552)" x="37.059375" y="384.644552">1.4</text>
     </g>
    </g>
    <g id="text_15">
     <text style="font-family:DejaVu Sans;font-size:10px;font-stretch:normal;font-style:normal;font-weight:normal;text-anchor:middle;" transform="rotate(-90, 14.798438, 1165.72)" x="14.798438" y="1165.72">Throughput_day[Bit/s]</text>
    </g>
    <g id="text_16">
     <text style="font-family:DejaVu Sans;font-size:10px;font-stretch:normal;font-style:normal;font-weight:normal;text-anchor:start;" transform="rotate(-0, 44.059375, 275.68)" x="44.059375" y="275.68">1e7</text>
    </g>
   </g>
   <g id="line2d_14">
    <path clip-path="url(#p8ae7db9397)" d="M 125.223011 445.103663 
L 129.219579 442.45779 
L 129.885674 437.85399 
L 136.546621 420.001288 
L 141.875378 445.152429 
L 147.87023 444.43111 
L 159.19384 440.512489 
L 163.856503 411.393619 
L 165.188692 436.548775 
L 198.493426 399.529245 
L 200.49171 430.551319 
L 202.489994 381.651282 
L 210.48313 447.12371 
L 219.808455 389.587099 
L 223.138929 464.29928 
L 247.118337 436.542915 
L 257.109757 450.452088 
L 269.099462 432.562501 
L 271.097746 399.491661 
L 273.762124 429.265833 
L 275.094314 424.966057 
L 275.760408 396.206689 
L 277.758692 434.549011 
L 279.090882 447.753357 
L 279.756976 396.90379 
L 281.089166 419.995999 
L 285.085734 455.701108 
L 289.082302 441.500023 
L 293.07887 453.70412 
L 297.741533 455.685269 
L 299.073722 454.406318 
L 301.738101 447.435222 
L 303.07029 432.531423 
L 303.736385 459.009179 
L 305.734669 424.641702 
L 307.732953 466.25985 
L 309.731237 474.22097 
L 313.06171 396.210328 
L 317.058278 457.65182 
L 319.722657 446.419012 
L 323.719225 451.747866 
L 324.38532 443.106244 
L 325.717509 421.329375 
L 328.381888 431.872847 
L 329.047982 433.880135 
L 331.712361 437.170342 
L 332.378456 473.222413 
L 333.710645 445.103356 
L 336.375024 425.600139 
L 339.705497 464.356824 
L 341.037687 437.524228 
L 343.035971 427.92128 
L 343.702065 450.403185 
L 347.032539 440.495903 
L 347.698633 428.582943 
L 349.030823 453.060927 
L 357.690054 435.540916 
L 361.686622 453.020955 
L 363.684906 433.240538 
L 365.017095 400.800499 
L 365.68319 428.568992 
L 367.681474 458.362434 
L 369.013663 440.50203 
L 370.345852 442.469772 
L 371.011947 441.173365 
L 372.344136 412.392225 
L 373.676326 441.796897 
L 378.338989 422.659226 
L 379.671178 447.42557 
L 382.335557 434.571246 
L 383.667746 449.738322 
L 385.66603 428.573333 
L 386.332125 411.063327 
L 386.998219 447.099614 
L 387.664314 438.486428 
L 390.328693 444.445072 
L 391.660882 420.65494 
L 392.993071 435.176554 
L 394.325261 499.961442 
L 394.991355 445.109337 
L 396.323545 468.916006 
L 397.655734 498.638307 
L 398.321829 441.147622 
L 400.320113 421.291063 
L 400.986208 475.174064 
L 401.652302 429.934611 
L 404.316681 423.960459 
L 405.64887 471.244596 
L 406.314965 455.705372 
L 406.98106 479.4853 
L 408.313249 417.353621 
L 408.979344 414.729025 
L 409.645438 453.710067 
L 410.311533 442.474135 
L 410.977628 426.624789 
L 414.974196 485.417749 
L 416.306385 451.720992 
L 417.638574 437.194004 
L 418.304669 471.57021 
L 418.970764 451.084085 
L 420.302953 440.525102 
L 422.967332 427.260752 
L 423.633427 433.195256 
L 424.965616 414.708694 
L 425.631711 437.489846 
L 426.297805 494.030998 
L 426.9639 479.154939 
L 427.629995 410.762992 
L 428.296089 418.653886 
L 428.962184 495.68743 
L 429.628279 433.894803 
L 430.294373 459.663531 
L 431.626563 392.872958 
L 432.292657 398.820347 
L 432.958752 459.017689 
L 434.290941 443.791548 
L 434.957036 449.417135 
L 435.623131 447.879902 
L 436.289225 503.930838 
L 436.95532 488.112696 
L 438.287509 442.83118 
L 438.953604 434.555187 
L 439.619699 421.990566 
L 440.285793 515.824444 
L 440.951888 424.676045 
L 441.617983 463.989357 
L 442.284078 462.293886 
L 442.950172 470.293655 
L 443.616267 474.851754 
L 445.614551 445.097375 
L 446.94674 505.905883 
L 448.27893 439.802524 
L 448.945024 400.173943 
L 449.611119 458.345559 
L 450.943308 412.710853 
L 451.609403 468.91415 
L 452.941592 531.054447 
L 454.273782 441.133236 
L 458.27035 451.057046 
L 461.600823 437.85658 
L 462.933012 428.251467 
L 463.599107 455.041899 
L 464.265202 493.376046 
L 465.597391 423.643232 
L 466.263486 450.785445 
L 466.929581 433.239765 
L 469.593959 455.019045 
L 470.260054 439.151017 
L 470.926149 429.904411 
L 474.256622 432.568685 
L 474.922717 424.299423 
L 475.588811 471.565589 
L 476.921001 408.738766 
L 479.585379 506.662323 
L 480.251474 482.134797 
L 481.583663 524.764046 
L 484.248042 417.346297 
L 484.914137 718.174311 
L 485.580231 428.587594 
L 487.578516 430.264813 
L 491.575084 456.685364 
L 492.241178 484.790564 
L 494.239462 438.483655 
L 494.905557 607.0917 
L 496.237746 451.07553 
L 496.903841 443.783106 
L 497.569936 449.090082 
L 498.23603 658.976975 
L 498.902125 483.117836 
L 499.56822 441.138157 
L 500.900409 420.003718 
L 501.566504 452.058382 
L 502.232598 665.888884 
L 502.898693 466.296903 
L 503.564788 580.635571 
L 504.896977 406.133411 
L 506.229166 459.691936 
L 506.895261 413.365795 
L 507.561356 457.022268 
L 508.227451 412.740541 
L 508.893545 416.051088 
L 511.557924 410.065099 
L 512.890113 435.219617 
L 514.222303 451.091417 
L 514.888397 442.49005 
L 516.220587 433.217202 
L 517.552776 529.054737 
L 518.218871 445.113324 
L 519.55106 422.64989 
L 522.215439 614.323606 
L 523.547628 406.097715 
L 524.213723 422.624994 
L 526.212007 504.588054 
L 526.878101 450.394933 
L 527.544196 426.936525 
L 528.210291 490.712697 
L 528.876385 494.046141 
L 529.54248 415.693953 
L 530.208575 470.270766 
L 531.540764 431.904015 
L 532.206859 438.517772 
L 532.872954 458.353768 
L 533.539048 457.658817 
L 534.205143 488.076538 
L 534.871238 449.127142 
L 535.537332 457.014964 
L 536.869522 440.501876 
L 537.535616 446.426367 
L 538.201711 466.927395 
L 539.5339 431.232925 
L 540.86609 449.767524 
L 542.864374 412.726048 
L 543.530468 432.79268 
L 546.860942 384.946008 
L 547.527036 361.145187 
L 548.859226 431.244988 
L 549.52532 431.901308 
L 550.191415 427.270785 
L 550.85751 587.959644 
L 551.523604 385.954389 
L 552.855794 475.869549 
L 554.854078 444.128383 
L 556.186267 574.036526 
L 556.852362 441.508533 
L 558.184551 489.401953 
L 558.850646 422.309253 
L 560.182835 507.274631 
L 560.84893 529.066479 
L 561.515025 536.994937 
L 562.181119 448.072825 
L 562.847214 549.598771 
L 563.513309 419.987352 
L 564.179403 451.387009 
L 564.845498 549.547467 
L 565.511593 410.757034 
L 566.177687 435.889787 
L 566.843782 533.357739 
L 567.509877 468.940968 
L 569.508161 418.665731 
L 570.174255 432.911595 
L 572.172539 468.609223 
L 572.838634 415.032881 
L 574.836918 434.58715 
L 575.503013 447.085488 
L 576.169108 462.963267 
L 576.835202 473.874947 
L 577.501297 501.33181 
L 578.167392 800.769618 
L 578.833486 448.81048 
L 579.499581 433.879319 
L 580.165676 421.986309 
L 583.496149 431.270444 
L 584.162244 444.814949 
L 584.828338 527.06463 
L 585.494433 438.492281 
L 586.160528 431.209476 
L 586.826622 474.227138 
L 587.492717 435.242922 
L 589.491001 433.22292 
L 590.82319 411.398152 
L 591.489285 424.608757 
L 592.15538 453.056361 
L 592.821474 471.576992 
L 593.487569 429.257467 
L 595.485853 439.162256 
L 596.151948 447.743406 
L 596.818043 465.607077 
L 597.484137 422.002085 
L 598.150232 466.278456 
L 598.816327 476.868552 
L 599.482421 449.75988 
L 600.148516 471.550919 
L 600.814611 408.111327 
L 601.480705 394.889207 
L 602.812895 401.160532 
L 603.478989 443.149086 
L 604.145084 433.88504 
L 604.811179 427.338054 
L 606.143368 429.267073 
L 606.809463 490.047779 
L 607.475557 406.436619 
L 608.141652 420.66273 
L 609.473841 425.956781 
L 610.139936 384.282348 
L 612.804315 461.006248 
L 613.470409 444.524847 
L 615.468693 445.433928 
L 616.134788 509.88424 
L 616.800883 442.141604 
L 617.466977 466.595247 
L 618.133072 371.715689 
L 618.799167 418.647323 
L 619.465262 427.651228 
L 620.131356 457.675092 
L 621.463546 432.900621 
L 622.12964 447.735445 
L 623.46183 451.060865 
L 624.127924 439.821759 
L 624.794019 444.137411 
L 625.460114 420.029435 
L 626.792303 463.310005 
L 627.458398 461.022183 
L 628.124492 443.815184 
L 628.790587 446.441536 
L 629.456682 419.345179 
L 632.12106 493.344112 
L 632.787155 486.079396 
L 634.785439 446.416867 
L 636.117628 472.231999 
L 636.783723 497.322287 
L 637.449818 496.666709 
L 638.782007 478.812133 
L 640.780291 443.146476 
L 641.446386 466.604329 
L 642.112481 453.04583 
L 642.778575 485.096897 
L 643.44467 466.279662 
L 644.110765 427.614308 
L 645.442954 497.314658 
L 646.109049 420.786675 
L 648.773427 492.70431 
L 649.439522 416.673071 
L 650.105617 435.316075 
L 650.771711 438.841888 
L 651.437806 440.518488 
L 652.103901 480.797595 
L 653.43609 428.2724 
L 654.102185 435.24817 
L 656.100469 498.668499 
L 656.766563 423.626977 
L 658.098753 429.309835 
L 659.430942 470.553026 
L 660.097037 444.428655 
L 660.763131 444.43717 
L 661.429226 416.082965 
L 662.095321 484.785474 
L 662.761416 421.973757 
L 663.42751 420.642632 
L 664.093605 448.444852 
L 665.425794 426.000566 
L 666.091889 435.837759 
L 666.757984 469.740411 
L 667.424078 432.886176 
L 668.090173 463.291981 
L 668.756268 1005.022682 
L 669.422362 489.713232 
L 670.088457 460.631183 
L 670.754552 484.099642 
L 671.420646 441.192276 
L 672.086741 459.312284 
L 672.752836 449.737557 
L 673.41893 448.474996 
L 674.085025 490.062298 
L 674.75112 466.26106 
L 675.417214 473.531942 
L 676.083309 443.777904 
L 677.415498 467.599921 
L 678.081593 413.392092 
L 679.413782 422.629506 
L 680.079877 464.923077 
L 680.745972 418.671503 
L 681.412066 437.5014 
L 682.078161 433.249501 
L 682.744256 467.580126 
L 683.41035 429.241561 
L 684.076445 439.829915 
L 684.74254 457.366767 
L 685.408635 469.570506 
L 686.740824 405.487206 
L 687.406919 449.057088 
L 688.073013 449.067796 
L 688.739108 459.022758 
L 689.405203 488.070595 
L 690.071297 408.107244 
L 690.737392 450.430158 
L 691.403487 441.793669 
L 692.069581 499.302542 
L 692.735676 431.225724 
L 693.401771 552.868954 
L 694.73396 461.30671 
L 695.400055 486.075515 
L 696.732244 480.142386 
L 697.398339 457.017247 
L 698.064433 448.41279 
L 698.730528 460.994501 
L 700.062717 479.486665 
L 700.728812 449.45467 
L 701.394907 470.873292 
L 702.061001 450.429318 
L 702.727096 462.3277 
L 703.393191 448.410575 
L 704.059285 374.40048 
L 704.72538 433.577603 
L 705.391475 427.285834 
L 706.05757 711.519031 
L 706.723664 437.81937 
L 707.389759 417.449026 
L 708.055854 414.037953 
L 708.721948 448.089263 
L 709.388043 505.950065 
L 710.054138 437.848645 
L 711.386327 466.93571 
L 712.718516 552.848564 
L 713.384611 489.711671 
L 714.050706 474.524495 
L 714.7168 435.237212 
L 715.382895 733.649573 
L 716.04899 478.165753 
L 716.715084 444.497681 
L 717.381179 418.982454 
L 718.047274 503.274068 
L 718.713368 406.787529 
L 719.379463 483.441626 
L 720.045558 437.192155 
L 720.711652 460.343977 
L 721.377747 461.951682 
L 722.043842 452.387834 
L 722.709936 458.366148 
L 723.376031 482.790004 
L 724.042126 482.817079 
L 724.70822 431.210714 
L 725.374315 480.13742 
L 726.04041 511.209335 
L 726.706504 442.485595 
L 727.372599 449.782214 
L 728.038694 428.282575 
L 728.704789 417.332401 
L 729.370883 480.799985 
L 730.036978 460.3188 
L 730.703073 426.615352 
L 731.369167 523.881003 
L 732.035262 425.948574 
L 732.701357 466.932535 
L 733.367451 447.086647 
L 735.365735 434.916012 
L 736.03183 494.712814 
L 737.364019 447.755391 
L 738.030114 449.11026 
L 738.696209 457.041441 
L 740.028398 501.629592 
L 740.694493 412.041504 
L 741.360587 422.6652 
L 742.026682 425.956313 
L 742.692777 521.84718 
L 743.358871 435.548631 
L 744.024966 416.26076 
L 744.691061 442.451337 
L 745.357155 439.80791 
L 746.02325 476.851682 
L 746.689345 503.272971 
L 747.355439 423.623662 
L 748.021534 533.688132 
L 748.687629 393.865162 
L 749.353723 447.115746 
L 750.019818 452.388019 
L 750.685913 478.170957 
L 751.352008 438.537657 
L 752.018102 448.439802 
L 752.684197 464.605577 
L 753.350292 459.997829 
L 754.016386 430.229578 
L 754.682481 960.053743 
L 755.348576 483.781857 
L 756.01467 500.963466 
L 756.680765 414.048436 
L 757.34686 476.196103 
L 758.012954 467.926976 
L 758.679049 483.445413 
L 759.345144 494.025207 
L 760.011238 490.094819 
L 762.009522 500.63949 
L 762.675617 439.874079 
L 764.007806 452.414239 
L 765.339996 382.9577 
L 766.00609 490.064749 
L 766.672185 507.259329 
L 767.33828 444.463636 
L 768.004374 453.054901 
L 768.670469 425.286331 
L 769.336564 482.119383 
L 770.002658 445.82219 
L 771.334848 442.468697 
L 772.000943 480.79669 
L 772.667037 501.296179 
L 773.333132 442.452413 
L 774.665321 492.027209 
L 775.997511 446.128545 
L 776.663605 503.933493 
L 777.3297 491.073509 
L 777.995795 505.251462 
L 778.661889 438.162975 
L 779.327984 522.444126 
L 779.994079 475.208151 
L 780.660173 476.16455 
L 781.326268 474.848166 
L 781.992363 461.64786 
L 782.658457 455.689182 
L 783.324552 454.357389 
L 783.990647 455.346299 
L 784.656741 444.115917 
L 785.322836 463.627992 
L 785.988931 446.434181 
L 786.655025 469.251836 
L 787.32112 431.207619 
L 787.987215 470.54691 
L 788.653309 465.612337 
L 789.319404 455.697757 
L 789.985499 470.25719 
L 790.651593 472.864574 
L 791.317688 440.816351 
L 791.983783 442.471615 
L 792.649877 462.281911 
L 793.315972 469.913701 
L 793.982067 457.326854 
L 795.314256 446.461914 
L 795.980351 478.178609 
L 796.646446 489.41559 
L 797.31254 488.41576 
L 797.978635 488.72434 
L 798.64473 451.049867 
L 799.310824 437.197869 
L 799.976919 449.738475 
L 800.643014 437.86128 
L 801.309108 433.242702 
L 801.975203 433.889365 
L 802.641298 425.263435 
L 803.307392 466.626159 
L 803.973487 434.524151 
L 804.639582 476.163348 
L 805.305676 431.566821 
L 805.971771 501.670976 
L 806.637866 427.96601 
L 807.30396 453.065205 
L 807.970055 453.043877 
L 809.302244 456.997313 
L 809.968339 530.034904 
L 810.634434 963.693396 
L 811.300528 439.159331 
L 811.966623 602.449349 
L 812.632718 439.197565 
L 813.298812 471.892287 
L 813.964907 438.518309 
L 814.631002 463.647639 
L 815.963191 431.219689 
L 816.629286 429.240268 
L 817.295381 432.580281 
L 817.961475 435.223443 
L 818.62757 492.707073 
L 819.293665 442.462091 
L 819.959759 460.971892 
L 820.625854 488.064036 
L 821.291949 1641.611968 
L 821.958043 438.512303 
L 822.624138 497.980958 
L 823.290233 441.150397 
L 823.956327 1635.65065 
L 824.622422 1711.673978 
L 825.288517 458.333277 
L 825.954611 473.876208 
L 826.620706 430.55694 
L 827.286801 459.679098 
L 828.61899 505.926944 
L 829.285085 455.720297 
L 829.951179 441.488538 
L 831.283369 453.036517 
L 831.949463 429.90386 
L 832.615558 458.360777 
L 833.281653 416.662918 
L 834.613842 689.688985 
L 835.279937 453.704727 
L 836.612126 428.592834 
L 837.278221 456.336569 
L 837.944316 438.828258 
L 838.61041 418.386232 
L 839.276505 477.50953 
L 839.9426 509.871755 
L 840.608694 426.618127 
L 841.274789 450.412508 
L 841.940884 453.362546 
L 842.606978 497.317243 
L 843.273073 480.842973 
L 843.939168 489.393432 
L 844.605262 441.124472 
L 845.271357 444.12674 
L 845.937452 437.188994 
L 847.269641 493.366094 
L 848.60183 429.263509 
L 849.267925 445.805943 
L 849.93402 480.140138 
L 850.600114 492.69569 
L 851.266209 428.254306 
L 851.932304 700.279479 
L 852.598398 449.419082 
L 853.264493 457.998396 
L 853.930588 455.68421 
L 854.596682 441.828556 
L 855.262777 607.722025 
L 855.928872 425.296988 
L 856.594966 462.973651 
L 857.261061 439.222448 
L 858.59325 404.790412 
L 859.92544 466.936163 
L 860.591535 487.420733 
L 861.257629 511.900822 
L 861.923724 426.261933 
L 863.255913 425.293185 
L 863.922008 435.862784 
L 864.588103 434.55179 
L 865.254197 492.754252 
L 865.920292 431.220738 
L 866.586387 460.971038 
L 867.252481 474.860648 
L 867.918576 438.228357 
L 868.584671 459.651986 
L 869.250765 466.936314 
L 869.91686 420.654628 
L 870.582955 472.552178 
L 871.915144 502.614501 
L 872.581239 456.025551 
L 873.247333 448.408432 
L 873.913428 469.238297 
L 874.579523 484.124942 
L 875.245617 1972.12 
L 875.911712 441.824714 
L 876.577807 458.362586 
L 877.243901 468.608342 
L 877.909996 449.089363 
L 878.576091 448.093073 
L 879.242185 432.257121 
L 879.90828 441.139848 
L 880.574375 479.815381 
L 881.240469 440.482495 
L 881.906564 463.635822 
L 882.572659 449.123138 
L 883.238754 427.605517 
L 883.904848 439.813757 
L 884.570943 457.029268 
L 885.903132 462.297519 
L 886.569227 411.392835 
L 887.235322 456.699058 
L 887.901416 438.526626 
L 888.567511 482.863149 
L 889.233606 454.021324 
L 889.8997 469.593917 
L 890.565795 467.24129 
L 891.23189 435.178869 
L 891.897984 416.049526 
L 893.230174 492.026317 
L 893.896268 447.739579 
L 894.562363 449.750587 
L 895.228458 491.392038 
L 895.894552 443.123913 
L 896.560647 428.595654 
L 897.226742 443.303279 
L 897.892836 440.49034 
L 898.558931 418.004994 
L 899.225026 462.303017 
L 899.89112 455.690294 
L 901.889404 437.518907 
L 902.555499 473.529083 
L 903.887689 461.299171 
L 904.553783 413.378787 
L 905.219878 433.203602 
L 905.885973 677.807849 
L 906.552067 450.388514 
L 907.218162 414.693523 
L 907.884257 437.830926 
L 909.216446 440.501256 
L 909.882541 457.714637 
L 910.548635 429.260555 
L 911.21473 429.927487 
L 911.880825 439.522401 
L 913.879109 465.341501 
L 914.545203 471.535999 
L 915.211298 444.7657 
L 915.877393 453.716171 
L 916.543487 437.859277 
L 917.209582 455.36122 
L 917.875677 410.396087 
L 918.541771 457.686644 
L 919.207866 456.687487 
L 919.873961 444.801983 
L 920.540055 493.390305 
L 921.20615 437.182983 
L 921.872245 435.184271 
L 922.538339 427.963769 
L 923.204434 453.086099 
L 923.870529 468.894064 
L 924.536623 460.332768 
L 925.202718 461.654838 
L 925.868813 443.797934 
L 926.534908 444.480818 
L 927.201002 494.685955 
L 927.867097 457.670529 
L 928.533192 452.709125 
L 929.199286 483.450589 
L 929.865381 434.536813 
L 930.531476 422.66062 
L 931.19757 453.712355 
L 931.863665 429.898897 
L 932.52976 479.467399 
L 933.861949 414.044211 
L 934.528044 449.056935 
L 935.194138 452.715223 
L 935.860233 463.006502 
L 936.526328 468.892705 
L 937.192422 476.218913 
L 937.858517 443.781417 
L 938.524612 441.464091 
L 939.190706 455.675674 
L 939.856801 452.050672 
L 940.522896 465.30153 
L 941.18899 433.551505 
L 941.855085 476.1641 
L 942.52118 425.325414 
L 943.187274 470.245727 
L 943.853369 464.938063 
L 944.519464 455.707055 
L 945.185558 497.316947 
L 945.851653 497.989694 
L 946.517748 466.923464 
L 947.183842 470.222047 
L 947.849937 414.03498 
L 948.516032 436.200334 
L 949.182127 434.533261 
L 949.848221 460.325427 
L 950.514316 450.091646 
L 951.180411 462.314755 
L 952.5126 443.110083 
L 953.178695 476.85059 
L 953.844789 445.538128 
L 954.510884 458.993989 
L 955.176979 488.728065 
L 955.843073 441.824788 
L 956.509168 465.602587 
L 957.175263 431.891564 
L 957.841357 460.323943 
L 958.507452 433.864098 
L 959.173547 439.834241 
L 959.839641 376.385986 
L 960.505736 416.363369 
L 961.171831 477.158588 
L 962.50402 463.601278 
L 963.170115 460.970127 
L 963.836209 435.1764 
L 964.502304 449.206213 
L 965.168399 419.971765 
L 965.834493 464.287468 
L 966.500588 433.200202 
L 967.166683 451.054068 
L 967.832777 427.921745 
L 968.498872 449.429801 
L 969.164967 410.075922 
L 969.831061 437.158164 
L 971.163251 472.193584 
L 971.829346 474.858506 
L 972.49544 438.845253 
L 973.161535 429.624285 
L 973.82763 444.141559 
L 974.493724 422.633241 
L 975.159819 451.069996 
L 975.825914 460.982724 
L 976.492008 458.378701 
L 977.158103 449.732053 
L 977.824198 475.529656 
L 978.490292 452.078999 
L 979.156387 455.672323 
L 979.822482 491.381478 
L 981.820766 466.954787 
L 982.48686 477.487368 
L 983.152955 464.282936 
L 983.81905 419.997172 
L 984.485144 470.235922 
L 985.151239 445.750605 
L 985.817334 427.937322 
L 986.483428 477.514571 
L 987.149523 448.408279 
L 987.815618 462.300709 
L 988.481712 445.140774 
L 989.147807 448.101528 
L 989.813902 459.641201 
L 990.479996 433.234511 
L 991.812186 477.489427 
L 992.478281 438.829713 
L 993.144375 454.361352 
L 993.81047 443.836518 
L 994.476565 494.688774 
L 995.142659 433.23482 
L 996.474849 493.360896 
L 997.140943 443.783705 
L 997.807038 453.691768 
L 998.473133 441.81735 
L 999.139227 449.788164 
L 999.805322 441.47048 
L 1000.471417 462.319967 
L 1001.137511 471.890814 
L 1001.803606 400.208427 
L 1002.469701 457.021621 
L 1003.135795 461.632864 
L 1003.80189 434.883995 
L 1004.467985 458.328104 
L 1005.134079 453.725764 
L 1005.800174 585.90196 
L 1006.466269 423.303972 
L 1007.132363 463.606733 
L 1007.798458 469.552849 
L 1008.464553 439.153789 
L 1009.130647 436.498809 
L 1009.796742 444.127066 
L 1010.462837 444.444151 
L 1011.795026 456.674481 
L 1012.461121 480.137441 
L 1013.79331 435.904253 
L 1014.459405 452.061666 
L 1015.1255 459.660341 
L 1015.791594 435.213443 
L 1016.457689 453.03667 
L 1017.123784 459.970752 
L 1017.789878 453.707933 
L 1018.455973 499.976821 
L 1019.122068 440.793258 
L 1019.788162 446.783317 
L 1020.454257 460.996231 
L 1021.120352 478.172607 
L 1021.786446 457.677069 
L 1022.452541 456.356664 
L 1023.118636 471.933169 
L 1023.78473 474.252261 
L 1024.450825 470.559575 
L 1025.11692 455.089434 
L 1025.783014 454.689415 
L 1026.449109 441.466372 
L 1027.115204 456.678798 
L 1027.781298 445.756045 
L 1029.113488 453.053318 
L 1029.779582 470.938727 
L 1030.445677 485.445822 
L 1031.111772 454.352206 
L 1031.777866 481.501305 
L 1033.110056 442.498652 
L 1033.77615 478.823693 
L 1034.442245 440.184538 
L 1035.10834 441.846536 
L 1035.774434 429.596343 
L 1036.440529 446.429136 
L 1037.106624 439.512999 
L 1037.772719 403.448484 
L 1038.438813 441.787368 
L 1039.104908 436.514385 
L 1039.771003 406.759392 
L 1040.437097 470.214786 
L 1041.103192 451.041617 
L 1042.435381 489.394249 
L 1043.101476 492.71159 
L 1043.767571 446.108093 
L 1044.433665 455.030554 
L 1045.09976 451.707249 
L 1045.765855 457.045701 
L 1046.431949 458.998219 
L 1047.098044 439.143474 
L 1047.764139 451.731528 
L 1048.430233 476.177322 
L 1049.096328 463.352032 
L 1049.762423 425.943428 
L 1050.428517 435.244157 
L 1051.094612 424.639494 
L 1051.760707 398.901706 
L 1052.426801 477.491453 
L 1053.092896 427.937407 
L 1053.758991 435.226408 
L 1055.09118 459.664445 
L 1055.757275 459.313693 
L 1056.423369 418.657463 
L 1057.089464 466.264085 
L 1057.755559 431.942296 
L 1059.087748 446.757578 
L 1059.753843 455.685741 
L 1061.086032 457.676613 
L 1061.752127 455.683131 
L 1062.418222 433.888438 
L 1063.084316 491.370621 
L 1063.750411 481.491274 
L 1064.416506 484.110971 
L 1065.0826 451.703432 
L 1066.41479 462.311246 
L 1067.080884 475.841901 
L 1067.746979 493.350925 
L 1068.413074 459.668847 
L 1069.079168 462.649652 
L 1069.745263 504.948955 
L 1070.411358 444.440622 
L 1071.077452 445.105048 
L 1071.743547 457.009268 
L 1072.409642 439.150864 
L 1073.075736 439.489624 
L 1073.741831 442.456407 
L 1074.407926 415.345346 
L 1075.07402 420.035016 
L 1075.740115 439.823317 
L 1076.40621 447.736823 
L 1077.072304 452.708815 
L 1077.738399 418.001445 
L 1078.404494 460.324873 
L 1079.070588 455.363518 
L 1080.402778 429.945762 
L 1081.068873 445.479589 
L 1081.734967 495.99455 
L 1082.401062 445.122284 
L 1083.067157 485.444447 
L 1084.399346 520.55489 
L 1085.731535 445.448417 
L 1086.39763 470.230944 
L 1087.063725 441.79536 
L 1087.729819 444.47146 
L 1088.395914 420.980134 
L 1089.062009 447.088485 
L 1089.728103 463.623474 
L 1090.394198 421.304932 
L 1091.060293 451.383291 
L 1091.726387 466.916208 
L 1092.392482 438.530476 
L 1093.058577 439.14255 
L 1093.724671 442.143734 
L 1094.390766 407.095931 
L 1095.056861 435.190908 
L 1095.722955 473.211883 
L 1096.38905 439.838225 
L 1097.055145 426.260736 
L 1097.721239 461.677744 
L 1098.387334 459.640138 
L 1099.053429 434.881004 
L 1100.385618 446.413187 
L 1101.717807 439.811603 
L 1102.383902 455.688162 
L 1103.049997 437.852371 
L 1103.716092 450.412202 
L 1105.714376 434.858166 
L 1106.38047 453.076656 
L 1107.046565 446.750163 
L 1107.71266 457.012377 
L 1108.378754 449.722574 
L 1110.377038 448.772121 
L 1111.709228 433.864494 
L 1113.041417 441.80059 
L 1113.707512 450.403949 
L 1114.373606 380.670544 
L 1115.039701 437.501886 
L 1115.705796 435.195848 
L 1116.37189 451.728779 
L 1117.037985 437.832744 
L 1117.70408 444.453811 
L 1119.036269 429.26219 
L 1119.702364 428.581083 
L 1120.368458 456.709778 
L 1121.034553 452.383866 
L 1121.700648 458.346319 
L 1122.366742 467.934314 
L 1123.698932 425.946998 
L 1124.365027 431.244294 
L 1125.031121 453.691005 
L 1125.697216 409.404836 
L 1126.363311 445.098448 
L 1127.029405 438.822649 
L 1128.361595 444.458879 
L 1129.693784 424.957748 
L 1130.359879 447.097674 
L 1131.025973 421.360053 
L 1131.692068 456.351488 
L 1133.024257 470.22114 
L 1133.690352 455.720601 
L 1134.356447 429.927642 
L 1135.022541 420.016781 
L 1136.354731 421.32998 
L 1137.020825 451.058574 
L 1137.68692 490.741265 
L 1138.353015 427.241153 
L 1139.019109 435.187204 
L 1139.685204 452.050143 
L 1141.017393 442.158917 
L 1141.683488 435.227025 
L 1143.681772 433.270364 
L 1145.013961 411.719493 
L 1145.680056 453.387705 
L 1146.346151 478.504526 
L 1147.012246 494.019417 
L 1148.344435 468.266395 
L 1149.01053 453.725012 
L 1149.676624 458.672591 
L 1150.342719 437.167259 
L 1151.008814 439.157295 
L 1151.674908 480.131596 
L 1153.007098 472.876317 
L 1153.673192 577.020705 
L 1154.339287 468.917012 
L 1155.005382 496.34331 
L 1155.671476 422.635575 
L 1156.337571 446.788378 
L 1157.003666 464.301367 
L 1157.66976 404.78648 
L 1159.00195 466.263047 
L 1159.668044 480.170708 
L 1160.334139 460.968306 
L 1161.000234 509.223928 
L 1161.666328 441.785677 
L 1162.332423 464.350918 
L 1162.998518 438.500235 
L 1164.330707 448.396037 
L 1164.996802 428.591314 
L 1165.662896 466.263093 
L 1166.995086 450.424841 
L 1167.66118 467.607784 
L 1168.327275 439.505953 
L 1169.659465 429.602971 
L 1170.325559 441.821563 
L 1171.657749 437.866048 
L 1172.323843 454.373395 
L 1173.656033 441.817337 
L 1174.322127 428.620455 
L 1174.988222 458.319713 
L 1176.320411 473.555723 
L 1176.986506 457.010551 
L 1177.652601 410.069177 
L 1178.98479 429.930739 
L 1179.650885 448.40277 
L 1180.316979 459.660796 
L 1180.983074 463.657638 
L 1181.649169 469.568997 
L 1182.315263 491.389212 
L 1182.981358 450.728903 
L 1184.313547 457.059547 
L 1185.645737 435.513564 
L 1186.311831 429.92459 
L 1186.977926 441.503501 
L 1187.644021 416.36444 
L 1188.97621 428.921636 
L 1190.3084 380.975991 
L 1190.974494 455.36351 
L 1192.306684 446.424528 
L 1192.972778 439.848843 
L 1194.971062 454.352359 
L 1196.303252 438.484426 
L 1196.969346 424.615284 
L 1197.635441 455.676892 
L 1198.301536 468.923655 
L 1198.96763 453.697553 
L 1199.633725 459.00743 
L 1200.29982 439.182115 
L 1200.965914 460.968154 
L 1202.298104 405.11341 
L 1203.630293 436.512072 
L 1204.296388 469.589973 
L 1204.962482 445.125592 
L 1205.628577 460.320169 
L 1206.294672 445.449301 
L 1206.960766 458.344799 
L 1208.95905 453.721405 
L 1210.29124 416.68994 
L 1210.957334 449.739341 
L 1211.623429 434.55179 
L 1212.289524 458.337501 
L 1212.955619 473.884799 
L 1213.621713 442.455485 
L 1214.287808 447.745855 
L 1214.953903 433.902032 
L 1215.619997 464.640192 
L 1216.286092 427.272182 
L 1217.618281 461.665154 
L 1218.950471 435.862722 
L 1219.616565 453.087014 
L 1220.948755 457.651212 
L 1221.614849 464.290346 
L 1222.947039 423.957349 
L 1223.613133 440.80613 
L 1224.279228 467.263984 
L 1224.945323 440.182736 
L 1225.611417 438.153667 
L 1226.277512 451.05781 
L 1226.943607 425.987679 
L 1228.275796 446.416023 
L 1229.607985 473.528782 
L 1230.27408 449.093085 
L 1230.940175 455.690294 
L 1231.606269 442.153703 
L 1232.272364 468.657697 
L 1232.938459 670.533225 
L 1234.270648 449.08095 
L 1234.936743 439.497515 
L 1236.935027 454.054074 
L 1237.601122 441.163679 
L 1238.267216 431.282823 
L 1239.599406 441.171674 
L 1240.2655 460.988643 
L 1240.931595 418.672595 
L 1241.59769 443.773125 
L 1242.929879 436.504516 
L 1243.595974 423.281375 
L 1244.262068 439.865308 
L 1244.928163 490.068918 
L 1245.594258 448.41945 
L 1246.926447 447.071637 
L 1247.592542 453.70595 
L 1248.258636 389.583163 
L 1248.924731 481.501904 
L 1249.590826 398.827792 
L 1250.25692 464.950779 
L 1250.923015 435.234433 
L 1251.58911 481.494119 
L 1252.255204 445.75919 
L 1254.253488 480.802614 
L 1254.919583 416.665573 
L 1256.251773 440.798888 
L 1256.917867 433.231188 
L 1260.914435 458.361218 
L 1262.912719 460.99871 
L 1264.244909 468.574569 
L 1265.577098 451.762066 
L 1266.243193 446.114166 
L 1267.575382 446.459003 
L 1268.241477 463.29767 
L 1268.907571 432.575333 
L 1271.57195 408.081958 
L 1272.238045 457.715701 
L 1272.904139 441.480528 
L 1275.568518 410.720188 
L 1276.900707 454.364096 
L 1278.898992 421.314736 
L 1280.231181 425.275452 
L 1281.56337 440.502645 
L 1282.229465 499.972976 
L 1284.227749 440.518949 
L 1285.559938 420.678933 
L 1286.226033 452.375166 
L 1286.892128 428.926179 
L 1287.558222 441.801984 
L 1288.224317 444.447219 
L 1288.890412 422.641643 
L 1290.222601 431.875477 
L 1290.888696 480.790099 
L 1291.55479 465.945955 
L 1292.220885 439.50917 
L 1295.551358 464.283379 
L 1296.883548 432.585073 
L 1299.547926 428.568992 
L 1300.214021 409.399344 
L 1300.880116 441.172597 
L 1301.546211 484.112687 
L 1302.212305 446.121768 
L 1302.8784 480.799236 
L 1304.210589 431.235009 
L 1304.876684 447.415758 
L 1306.208873 436.233853 
L 1306.874968 454.387417 
L 1308.873252 445.094614 
L 1309.539347 437.538344 
L 1310.871536 407.743108 
L 1311.537631 433.85816 
L 1312.86982 442.449801 
L 1319.530767 500.632247 
L 1320.862956 445.435748 
L 1321.529051 460.321836 
L 1322.195146 416.706341 
L 1322.86124 399.167434 
L 1323.527335 359.32 
L 1324.859524 463.288428 
L 1325.525619 450.43971 
L 1326.191714 517.156978 
L 1329.522187 428.613634 
L 1330.188282 445.794446 
L 1331.520471 447.735904 
L 1332.186566 446.443528 
L 1333.518755 424.011025 
L 1334.18485 435.177017 
L 1334.850944 444.455351 
L 1335.517039 457.017399 
L 1336.183134 485.104402 
L 1336.849228 460.339449 
L 1337.515323 455.718774 
L 1338.181418 497.662645 
L 1340.845796 458.34419 
L 1341.511891 424.659418 
L 1345.508459 451.06265 
L 1347.506743 437.878845 
L 1348.172838 435.527328 
L 1349.505027 431.572162 
L 1350.171122 443.466308 
L 1350.837217 502.619959 
L 1352.169406 527.08771 
L 1354.833785 415.691504 
L 1356.165974 438.829846 
L 1357.498163 439.17334 
L 1358.164258 464.941469 
L 1360.162542 471.539465 
L 1361.494731 462.951747 
L 1364.15911 474.195093 
L 1364.825205 417.3413 
L 1365.491299 484.803009 
L 1366.157394 421.320498 
L 1368.821773 443.777273 
L 1369.487868 484.108801 
L 1373.484436 479.814184 
L 1376.148814 478.819907 
L 1378.147098 492.721248 
L 1379.479288 474.535246 
L 1380.811477 429.920518 
L 1382.809761 452.391654 
L 1384.14195 429.583022 
L 1384.808045 439.144859 
L 1386.806329 456.341441 
L 1388.804613 439.846996 
L 1389.470708 445.804256 
L 1390.136803 492.704754 
L 1390.802897 449.443888 
L 1391.468992 395.532828 
L 1392.801181 433.225393 
L 1396.797749 418.006425 
L 1399.462128 412.052783 
L 1400.128223 468.239436 
L 1400.794317 466.939489 
L 1403.458696 444.465706 
L 1404.790885 468.916034 
L 1406.123075 1220.853156 
L 1407.455264 478.18251 
L 1408.787453 467.589646 
L 1409.453548 457.665193 
L 1413.450116 458.335022 
L 1414.116211 474.205173 
L 1416.114495 432.569303 
L 1417.446684 451.718473 
L 1418.778874 444.465016 
L 1420.777158 451.731528 
L 1421.443252 462.277054 
L 1422.109347 465.612726 
L 1422.775442 401.572737 
L 1423.441536 447.747539 
L 1424.773726 459.322118 
L 1426.105915 442.480986 
L 1427.438104 513.193869 
L 1428.770294 456.367472 
L 1433.432957 443.780036 
L 1434.099051 462.313722 
L 1435.431241 412.729331 
L 1436.097335 429.247705 
L 1437.429525 465.618022 
L 1438.095619 473.532996 
L 1438.761714 465.960145 
L 1439.427809 475.519585 
L 1440.759998 471.552297 
L 1442.092187 454.373087 
L 1444.090471 476.187839 
L 1445.422661 480.153175 
L 1446.088755 496.022276 
L 1446.75485 433.854607 
L 1448.087039 453.691158 
L 1448.753134 417.354728 
L 1449.419229 435.196079 
L 1454.081892 456.380774 
L 1456.080176 477.489041 
L 1456.74627 481.464325 
L 1457.412365 431.276015 
L 1459.410649 461.661968 
L 1462.741122 460.648341 
L 1463.407217 462.627731 
L 1466.071596 462.98388 
L 1466.73769 437.247106 
L 1467.403785 467.650389 
L 1468.06988 442.452106 
L 1468.735974 1953.609856 
L 1470.068164 438.501092 
L 1472.066448 427.934151 
L 1472.732542 443.796015 
L 1473.398637 476.165903 
L 1474.730826 504.603393 
L 1475.396921 463.312812 
L 1476.063016 434.516121 
L 1477.395205 447.083124 
L 1478.0613 1964.188079 
L 1479.393489 427.288781 
L 1480.059584 511.863273 
L 1480.725679 433.221566 
L 1481.391773 1851.810674 
L 1482.057868 449.730983 
L 1483.390057 410.729518 
L 1484.056152 506.239503 
L 1484.722247 1214.60819 
L 1487.386625 504.592181 
L 1488.05272 1961.542735 
L 1489.384909 467.596899 
L 1492.715383 496.008784 
L 1494.713667 452.399513 
L 1495.379761 475.528754 
L 1496.711951 492.036724 
L 1497.378045 588.556408 
L 1501.374614 422.647712 
L 1502.040708 456.016369 
L 1502.706803 440.499261 
L 1503.372898 445.756431 
L 1504.705087 460.626852 
L 1505.371182 480.139838 
L 1506.703371 374.052556 
L 1510.033844 418.688195 
L 1510.699939 410.758239 
L 1511.366034 393.593131 
L 1512.032128 534.340221 
L 1512.698223 488.078307 
L 1515.362602 444.486341 
L 1516.694791 429.583831 
L 1518.693075 521.127426 
L 1519.35917 458.993402 
L 1521.357454 449.072185 
L 1522.689643 457.659274 
L 1532.681063 457.009182 
L 1534.013253 529.051838 
L 1536.677631 448.10024 
L 1544.004673 466.27581 
L 1548.001241 455.692579 
L 1554.662188 445.433476 
L 1555.328282 428.617975 
L 1555.994377 463.64779 
L 1571.980649 398.811499 
L 1588.633016 446.42652 
L 1597.958342 441.127086 
L 1607.949762 414.025436 
L 1619.273371 435.901785 
L 1644.584969 440.465882 
L 1645.251064 464.950476 
L 1651.245916 381.687344 
L 1661.903431 439.821893 
L 1681.220176 448.746333 
L 1687.881123 458.313023 
L 1689.213312 436.18093 
L 1703.201301 439.14101 
L 1704.53349 443.776506 
L 1709.196153 448.420368 
L 1710.528342 445.773293 
L 1717.855384 428.607589 
L 1719.853668 410.730066 
L 1721.851952 445.753978 
L 1725.84852 446.116665 
L 1726.514614 433.231111 
L 1729.178993 433.237602 
L 1729.845088 427.243015 
L 1735.83994 462.971906 
L 1736.506034 451.079111 
L 1737.172129 462.952657 
L 1738.504318 437.84125 
L 1743.833076 423.974295 
L 1748.495739 434.544379 
L 1748.495739 434.544379 
" style="fill:none;stroke:#0000ff;stroke-linecap:square;stroke-width:1.5;"/>
   </g>
   <g id="patch_3">
    <path d="M 44.059375 2052.76 
L 44.059375 278.68 
" style="fill:none;stroke:#000000;stroke-linecap:square;stroke-linejoin:miter;stroke-width:0.8;"/>
   </g>
   <g id="patch_4">
    <path d="M 1829.659375 2052.76 
L 1829.659375 278.68 
" style="fill:none;stroke:#000000;stroke-linecap:square;stroke-linejoin:miter;stroke-width:0.8;"/>
   </g>
   <g id="patch_5">
    <path d="M 44.059375 2052.76 
L 1829.659375 2052.76 
" style="fill:none;stroke:#000000;stroke-linecap:square;stroke-linejoin:miter;stroke-width:0.8;"/>
   </g>
   <g id="patch_6">
    <path d="M 44.059375 278.68 
L 1829.659375 278.68 
" style="fill:none;stroke:#000000;stroke-linecap:square;stroke-linejoin:miter;stroke-width:0.8;"/>
   </g>
   <g id="text_17">
    <text style="font-family:DejaVu Sans;font-size:12px;font-stretch:normal;font-style:normal;font-weight:normal;text-anchor:middle;" transform="rotate(-0, 936.859375, 272.68)" x="936.859375" y="272.68">temperature-&gt;Throughput_day</text>
   </g>
  </g>
  <g id="legend_1">
   <g id="patch_7">
    <path d="M 1911.84375 22.95625 
L 2055.259375 22.95625 
Q 2057.259375 22.95625 2057.259375 20.95625 
L 2057.259375 7 
Q 2057.259375 5 2055.259375 5 
L 1911.84375 5 
Q 1909.84375 5 1909.84375 7 
L 1909.84375 20.95625 
Q 1909.84375 22.95625 1911.84375 22.95625 
z
" style="fill:#ffffff;opacity:0.8;stroke:#cccccc;stroke-linejoin:miter;"/>
   </g>
   <g id="line2d_15">
    <path d="M 1913.84375 13.098438 
L 1933.84375 13.098438 
" style="fill:none;stroke:#0000ff;stroke-linecap:square;stroke-width:1.5;"/>
   </g>
   <g id="line2d_16"/>
   <g id="text_18">
    <text style="font-family:DejaVu Sans;font-size:10px;font-stretch:normal;font-style:normal;font-weight:normal;text-anchor:start;" transform="rotate(-0, 1941.84375, 16.598438)" x="1941.84375" y="16.598438">Throughput_day[Bit/s]</text>
   </g>
  </g>
 </g>
 <defs>
  <clipPath id="p8ae7db9397">
   <rect height="1774.08" width="1785.6" x="44.059375" y="278.68"/>
  </clipPath>
 </defs>
</svg>
