<?xml version="1.0" encoding="utf-8" standalone="no"?>
<!DOCTYPE svg PUBLIC "-//W3C//DTD SVG 1.1//EN"
  "http://www.w3.org/Graphics/SVG/1.1/DTD/svg11.dtd">
<!-- Created with matplotlib (https://matplotlib.org/) -->
<svg height="2090.31625pt" version="1.1" viewBox="0 0 2062.259375 2090.31625" width="2062.259375pt" xmlns="http://www.w3.org/2000/svg" xmlns:xlink="http://www.w3.org/1999/xlink">
 <metadata>
  <rdf:RDF xmlns:cc="http://creativecommons.org/ns#" xmlns:dc="http://purl.org/dc/elements/1.1/" xmlns:rdf="http://www.w3.org/1999/02/22-rdf-syntax-ns#">
   <cc:Work>
    <dc:type rdf:resource="http://purl.org/dc/dcmitype/StillImage"/>
    <dc:date>2022-07-24T11:55:34.379455</dc:date>
    <dc:format>image/svg+xml</dc:format>
    <dc:creator>
     <cc:Agent>
      <dc:title>Matplotlib v3.3.2, https://matplotlib.org/</dc:title>
     </cc:Agent>
    </dc:creator>
   </cc:Work>
  </rdf:RDF>
 </metadata>
 <defs>
  <style type="text/css">*{stroke-linecap:butt;stroke-linejoin:round;}</style>
 </defs>
 <g id="figure_1">
  <g id="patch_1">
   <path d="M 0 2090.31625 
L 2062.259375 2090.31625 
L 2062.259375 0 
L 0 0 
z
" style="fill:#ffffff;"/>
  </g>
  <g id="axes_1">
   <g id="patch_2">
    <path d="M 44.059375 2052.76 
L 1829.659375 2052.76 
L 1829.659375 278.68 
L 44.059375 278.68 
z
" style="fill:#ffffff;"/>
   </g>
   <g id="matplotlib.axis_1">
    <g id="xtick_1">
     <g id="line2d_1">
      <defs>
       <path d="M 0 0 
L 0 3.5 
" id="m9720a1ac44" style="stroke:#000000;stroke-width:0.8;"/>
      </defs>
      <g>
       <use style="stroke:#000000;stroke-width:0.8;" x="100.249585" xlink:href="#m9720a1ac44" y="2052.76"/>
      </g>
     </g>
     <g id="text_1">
      <text style="font-family:DejaVu Sans;font-size:10px;font-stretch:normal;font-style:normal;font-weight:normal;text-anchor:middle;" transform="rotate(-0, 100.249585, 2067.358438)" x="100.249585" y="2067.358438">30</text>
     </g>
    </g>
    <g id="xtick_2">
     <g id="line2d_2">
      <g>
       <use style="stroke:#000000;stroke-width:0.8;" x="349.983851" xlink:href="#m9720a1ac44" y="2052.76"/>
      </g>
     </g>
     <g id="text_2">
      <text style="font-family:DejaVu Sans;font-size:10px;font-stretch:normal;font-style:normal;font-weight:normal;text-anchor:middle;" transform="rotate(-0, 349.983851, 2067.358438)" x="349.983851" y="2067.358438">40</text>
     </g>
    </g>
    <g id="xtick_3">
     <g id="line2d_3">
      <g>
       <use style="stroke:#000000;stroke-width:0.8;" x="599.718116" xlink:href="#m9720a1ac44" y="2052.76"/>
      </g>
     </g>
     <g id="text_3">
      <text style="font-family:DejaVu Sans;font-size:10px;font-stretch:normal;font-style:normal;font-weight:normal;text-anchor:middle;" transform="rotate(-0, 599.718116, 2067.358438)" x="599.718116" y="2067.358438">50</text>
     </g>
    </g>
    <g id="xtick_4">
     <g id="line2d_4">
      <g>
       <use style="stroke:#000000;stroke-width:0.8;" x="849.452382" xlink:href="#m9720a1ac44" y="2052.76"/>
      </g>
     </g>
     <g id="text_4">
      <text style="font-family:DejaVu Sans;font-size:10px;font-stretch:normal;font-style:normal;font-weight:normal;text-anchor:middle;" transform="rotate(-0, 849.452382, 2067.358438)" x="849.452382" y="2067.358438">60</text>
     </g>
    </g>
    <g id="xtick_5">
     <g id="line2d_5">
      <g>
       <use style="stroke:#000000;stroke-width:0.8;" x="1099.186648" xlink:href="#m9720a1ac44" y="2052.76"/>
      </g>
     </g>
     <g id="text_5">
      <text style="font-family:DejaVu Sans;font-size:10px;font-stretch:normal;font-style:normal;font-weight:normal;text-anchor:middle;" transform="rotate(-0, 1099.186648, 2067.358438)" x="1099.186648" y="2067.358438">70</text>
     </g>
    </g>
    <g id="xtick_6">
     <g id="line2d_6">
      <g>
       <use style="stroke:#000000;stroke-width:0.8;" x="1348.920913" xlink:href="#m9720a1ac44" y="2052.76"/>
      </g>
     </g>
     <g id="text_6">
      <text style="font-family:DejaVu Sans;font-size:10px;font-stretch:normal;font-style:normal;font-weight:normal;text-anchor:middle;" transform="rotate(-0, 1348.920913, 2067.358438)" x="1348.920913" y="2067.358438">80</text>
     </g>
    </g>
    <g id="xtick_7">
     <g id="line2d_7">
      <g>
       <use style="stroke:#000000;stroke-width:0.8;" x="1598.655179" xlink:href="#m9720a1ac44" y="2052.76"/>
      </g>
     </g>
     <g id="text_7">
      <text style="font-family:DejaVu Sans;font-size:10px;font-stretch:normal;font-style:normal;font-weight:normal;text-anchor:middle;" transform="rotate(-0, 1598.655179, 2067.358438)" x="1598.655179" y="2067.358438">90</text>
     </g>
    </g>
    <g id="text_8">
     <text style="font-family:DejaVu Sans;font-size:10px;font-stretch:normal;font-style:normal;font-weight:normal;text-anchor:middle;" transform="rotate(-0, 936.859375, 2081.036562)" x="936.859375" y="2081.036562">humidity from OpenWeatherMap</text>
    </g>
   </g>
   <g id="matplotlib.axis_2">
    <g id="ytick_1">
     <g id="line2d_8">
      <defs>
       <path d="M 0 0 
L -3.5 0 
" id="m69ddfcc60d" style="stroke:#000000;stroke-width:0.8;"/>
      </defs>
      <g>
       <use style="stroke:#000000;stroke-width:0.8;" x="44.059375" xlink:href="#m69ddfcc60d" y="1820.258121"/>
      </g>
     </g>
     <g id="text_9">
      <text style="font-family:DejaVu Sans;font-size:10px;font-stretch:normal;font-style:normal;font-weight:normal;text-anchor:end;" transform="rotate(-0, 37.059375, 1824.05734)" x="37.059375" y="1824.05734">0.2</text>
     </g>
    </g>
    <g id="ytick_2">
     <g id="line2d_9">
      <g>
       <use style="stroke:#000000;stroke-width:0.8;" x="44.059375" xlink:href="#m69ddfcc60d" y="1569.728845"/>
      </g>
     </g>
     <g id="text_10">
      <text style="font-family:DejaVu Sans;font-size:10px;font-stretch:normal;font-style:normal;font-weight:normal;text-anchor:end;" transform="rotate(-0, 37.059375, 1573.528064)" x="37.059375" y="1573.528064">0.4</text>
     </g>
    </g>
    <g id="ytick_3">
     <g id="line2d_10">
      <g>
       <use style="stroke:#000000;stroke-width:0.8;" x="44.059375" xlink:href="#m69ddfcc60d" y="1319.19957"/>
      </g>
     </g>
     <g id="text_11">
      <text style="font-family:DejaVu Sans;font-size:10px;font-stretch:normal;font-style:normal;font-weight:normal;text-anchor:end;" transform="rotate(-0, 37.059375, 1322.998789)" x="37.059375" y="1322.998789">0.6</text>
     </g>
    </g>
    <g id="ytick_4">
     <g id="line2d_11">
      <g>
       <use style="stroke:#000000;stroke-width:0.8;" x="44.059375" xlink:href="#m69ddfcc60d" y="1068.670294"/>
      </g>
     </g>
     <g id="text_12">
      <text style="font-family:DejaVu Sans;font-size:10px;font-stretch:normal;font-style:normal;font-weight:normal;text-anchor:end;" transform="rotate(-0, 37.059375, 1072.469513)" x="37.059375" y="1072.469513">0.8</text>
     </g>
    </g>
    <g id="ytick_5">
     <g id="line2d_12">
      <g>
       <use style="stroke:#000000;stroke-width:0.8;" x="44.059375" xlink:href="#m69ddfcc60d" y="818.141019"/>
      </g>
     </g>
     <g id="text_13">
      <text style="font-family:DejaVu Sans;font-size:10px;font-stretch:normal;font-style:normal;font-weight:normal;text-anchor:end;" transform="rotate(-0, 37.059375, 821.940237)" x="37.059375" y="821.940237">1.0</text>
     </g>
    </g>
    <g id="ytick_6">
     <g id="line2d_13">
      <g>
       <use style="stroke:#000000;stroke-width:0.8;" x="44.059375" xlink:href="#m69ddfcc60d" y="567.611743"/>
      </g>
     </g>
     <g id="text_14">
      <text style="font-family:DejaVu Sans;font-size:10px;font-stretch:normal;font-style:normal;font-weight:normal;text-anchor:end;" transform="rotate(-0, 37.059375, 571.410962)" x="37.059375" y="571.410962">1.2</text>
     </g>
    </g>
    <g id="ytick_7">
     <g id="line2d_14">
      <g>
       <use style="stroke:#000000;stroke-width:0.8;" x="44.059375" xlink:href="#m69ddfcc60d" y="317.082467"/>
      </g>
     </g>
     <g id="text_15">
      <text style="font-family:DejaVu Sans;font-size:10px;font-stretch:normal;font-style:normal;font-weight:normal;text-anchor:end;" transform="rotate(-0, 37.059375, 320.881686)" x="37.059375" y="320.881686">1.4</text>
     </g>
    </g>
    <g id="text_16">
     <text style="font-family:DejaVu Sans;font-size:10px;font-stretch:normal;font-style:normal;font-weight:normal;text-anchor:middle;" transform="rotate(-90, 14.798438, 1165.72)" x="14.798438" y="1165.72">Throughput_day[Bit/s]</text>
    </g>
    <g id="text_17">
     <text style="font-family:DejaVu Sans;font-size:10px;font-stretch:normal;font-style:normal;font-weight:normal;text-anchor:start;" transform="rotate(-0, 44.059375, 275.68)" x="44.059375" y="275.68">1e7</text>
    </g>
   </g>
   <g id="line2d_15">
    <path clip-path="url(#p60094d856b)" d="M 125.223011 399.257317 
L 150.196438 379.677698 
L 275.063571 388.320787 
L 300.036997 379.277782 
L 325.010424 386.15848 
L 349.983851 383.98609 
L 374.957277 389.79983 
L 399.930704 386.929535 
L 424.90413 397.048209 
L 449.877557 1972.12 
L 474.850983 396.331077 
L 499.82441 385.455471 
L 524.797837 378.160462 
L 549.771263 390.155247 
L 574.74469 392.33857 
L 599.718116 376.766773 
L 624.691543 392.674206 
L 649.664969 380.342332 
L 674.638396 388.715681 
L 699.611823 396.327058 
L 724.585249 391.243668 
L 749.558676 391.957254 
L 774.532102 398.168827 
L 799.505529 391.248035 
L 824.478955 391.235943 
L 849.452382 389.459392 
L 874.425809 387.265433 
L 899.399235 390.513881 
L 924.372662 396.331244 
L 949.346088 390.510266 
L 974.319515 387.627589 
L 999.292941 399.934355 
L 1024.266368 402.836735 
L 1049.239795 396.30864 
L 1074.213221 400.660702 
L 1099.186648 398.483834 
L 1124.160074 391.993179 
L 1149.133501 407.2091 
L 1174.106927 400.684916 
L 1199.080354 395.638742 
L 1224.053781 393.417325 
L 1249.027207 407.205773 
L 1274.000634 393.764825 
L 1298.97406 402.841071 
L 1323.947487 398.132368 
L 1348.920913 396.328063 
L 1373.89434 398.843329 
L 1398.867767 410.823336 
L 1423.841193 400.312483 
L 1448.81462 387.605709 
L 1473.788046 399.24954 
L 1498.761473 384.01645 
L 1523.734899 401.01561 
L 1548.708326 391.946006 
L 1573.681753 402.121243 
L 1598.655179 420.251484 
L 1623.628606 392.013827 
L 1648.602032 385.852758 
L 1673.575459 381.814808 
L 1698.548885 395.634554 
L 1723.522312 404.311934 
L 1748.495739 359.32 
" style="fill:none;stroke:#0000ff;stroke-linecap:square;stroke-width:1.5;"/>
   </g>
   <g id="patch_3">
    <path d="M 44.059375 2052.76 
L 44.059375 278.68 
" style="fill:none;stroke:#000000;stroke-linecap:square;stroke-linejoin:miter;stroke-width:0.8;"/>
   </g>
   <g id="patch_4">
    <path d="M 1829.659375 2052.76 
L 1829.659375 278.68 
" style="fill:none;stroke:#000000;stroke-linecap:square;stroke-linejoin:miter;stroke-width:0.8;"/>
   </g>
   <g id="patch_5">
    <path d="M 44.059375 2052.76 
L 1829.659375 2052.76 
" style="fill:none;stroke:#000000;stroke-linecap:square;stroke-linejoin:miter;stroke-width:0.8;"/>
   </g>
   <g id="patch_6">
    <path d="M 44.059375 278.68 
L 1829.659375 278.68 
" style="fill:none;stroke:#000000;stroke-linecap:square;stroke-linejoin:miter;stroke-width:0.8;"/>
   </g>
   <g id="text_18">
    <text style="font-family:DejaVu Sans;font-size:12px;font-stretch:normal;font-style:normal;font-weight:normal;text-anchor:middle;" transform="rotate(-0, 936.859375, 272.68)" x="936.859375" y="272.68">humidity-&gt;Throughput_day</text>
   </g>
  </g>
  <g id="legend_1">
   <g id="patch_7">
    <path d="M 1911.84375 22.95625 
L 2055.259375 22.95625 
Q 2057.259375 22.95625 2057.259375 20.95625 
L 2057.259375 7 
Q 2057.259375 5 2055.259375 5 
L 1911.84375 5 
Q 1909.84375 5 1909.84375 7 
L 1909.84375 20.95625 
Q 1909.84375 22.95625 1911.84375 22.95625 
z
" style="fill:#ffffff;opacity:0.8;stroke:#cccccc;stroke-linejoin:miter;"/>
   </g>
   <g id="line2d_16">
    <path d="M 1913.84375 13.098438 
L 1933.84375 13.098438 
" style="fill:none;stroke:#0000ff;stroke-linecap:square;stroke-width:1.5;"/>
   </g>
   <g id="line2d_17"/>
   <g id="text_19">
    <text style="font-family:DejaVu Sans;font-size:10px;font-stretch:normal;font-style:normal;font-weight:normal;text-anchor:start;" transform="rotate(-0, 1941.84375, 16.598438)" x="1941.84375" y="16.598438">Throughput_day[Bit/s]</text>
   </g>
  </g>
 </g>
 <defs>
  <clipPath id="p60094d856b">
   <rect height="1774.08" width="1785.6" x="44.059375" y="278.68"/>
  </clipPath>
 </defs>
</svg>
