<?xml version="1.0" encoding="utf-8" standalone="no"?>
<!DOCTYPE svg PUBLIC "-//W3C//DTD SVG 1.1//EN"
  "http://www.w3.org/Graphics/SVG/1.1/DTD/svg11.dtd">
<!-- Created with matplotlib (https://matplotlib.org/) -->
<svg height="2090.594375pt" version="1.1" viewBox="0 0 2052.71875 2090.594375" width="2052.71875pt" xmlns="http://www.w3.org/2000/svg" xmlns:xlink="http://www.w3.org/1999/xlink">
 <metadata>
  <rdf:RDF xmlns:cc="http://creativecommons.org/ns#" xmlns:dc="http://purl.org/dc/elements/1.1/" xmlns:rdf="http://www.w3.org/1999/02/22-rdf-syntax-ns#">
   <cc:Work>
    <dc:type rdf:resource="http://purl.org/dc/dcmitype/StillImage"/>
    <dc:date>2022-07-23T21:07:02.952944</dc:date>
    <dc:format>image/svg+xml</dc:format>
    <dc:creator>
     <cc:Agent>
      <dc:title>Matplotlib v3.3.2, https://matplotlib.org/</dc:title>
     </cc:Agent>
    </dc:creator>
   </cc:Work>
  </rdf:RDF>
 </metadata>
 <defs>
  <style type="text/css">*{stroke-linecap:butt;stroke-linejoin:round;}</style>
 </defs>
 <g id="figure_1">
  <g id="patch_1">
   <path d="M 0 2090.594375 
L 2052.71875 2090.594375 
L 2052.71875 0 
L 0 0 
z
" style="fill:#ffffff;"/>
  </g>
  <g id="axes_1">
   <g id="patch_2">
    <path d="M 34.51875 2052.76 
L 1820.11875 2052.76 
L 1820.11875 278.68 
L 34.51875 278.68 
z
" style="fill:#ffffff;"/>
   </g>
   <g id="matplotlib.axis_1">
    <g id="xtick_1">
     <g id="line2d_1">
      <defs>
       <path d="M 0 0 
L 0 3.5 
" id="m6e50e50294" style="stroke:#000000;stroke-width:0.8;"/>
      </defs>
      <g>
       <use style="stroke:#000000;stroke-width:0.8;" x="221.725328" xlink:href="#m6e50e50294" y="2052.76"/>
      </g>
     </g>
     <g id="text_1">
      <text style="font-family:DejaVu Sans;font-size:10px;font-stretch:normal;font-style:normal;font-weight:normal;text-anchor:middle;" transform="rotate(-0, 221.725328, 2067.358437)" x="221.725328" y="2067.358437">1007.5</text>
     </g>
    </g>
    <g id="xtick_2">
     <g id="line2d_2">
      <g>
       <use style="stroke:#000000;stroke-width:0.8;" x="425.654063" xlink:href="#m6e50e50294" y="2052.76"/>
      </g>
     </g>
     <g id="text_2">
      <text style="font-family:DejaVu Sans;font-size:10px;font-stretch:normal;font-style:normal;font-weight:normal;text-anchor:middle;" transform="rotate(-0, 425.654063, 2067.358437)" x="425.654063" y="2067.358437">1010.0</text>
     </g>
    </g>
    <g id="xtick_3">
     <g id="line2d_3">
      <g>
       <use style="stroke:#000000;stroke-width:0.8;" x="629.582798" xlink:href="#m6e50e50294" y="2052.76"/>
      </g>
     </g>
     <g id="text_3">
      <text style="font-family:DejaVu Sans;font-size:10px;font-stretch:normal;font-style:normal;font-weight:normal;text-anchor:middle;" transform="rotate(-0, 629.582798, 2067.358437)" x="629.582798" y="2067.358437">1012.5</text>
     </g>
    </g>
    <g id="xtick_4">
     <g id="line2d_4">
      <g>
       <use style="stroke:#000000;stroke-width:0.8;" x="833.511532" xlink:href="#m6e50e50294" y="2052.76"/>
      </g>
     </g>
     <g id="text_4">
      <text style="font-family:DejaVu Sans;font-size:10px;font-stretch:normal;font-style:normal;font-weight:normal;text-anchor:middle;" transform="rotate(-0, 833.511532, 2067.358437)" x="833.511532" y="2067.358437">1015.0</text>
     </g>
    </g>
    <g id="xtick_5">
     <g id="line2d_5">
      <g>
       <use style="stroke:#000000;stroke-width:0.8;" x="1037.440267" xlink:href="#m6e50e50294" y="2052.76"/>
      </g>
     </g>
     <g id="text_5">
      <text style="font-family:DejaVu Sans;font-size:10px;font-stretch:normal;font-style:normal;font-weight:normal;text-anchor:middle;" transform="rotate(-0, 1037.440267, 2067.358437)" x="1037.440267" y="2067.358437">1017.5</text>
     </g>
    </g>
    <g id="xtick_6">
     <g id="line2d_6">
      <g>
       <use style="stroke:#000000;stroke-width:0.8;" x="1241.369001" xlink:href="#m6e50e50294" y="2052.76"/>
      </g>
     </g>
     <g id="text_6">
      <text style="font-family:DejaVu Sans;font-size:10px;font-stretch:normal;font-style:normal;font-weight:normal;text-anchor:middle;" transform="rotate(-0, 1241.369001, 2067.358437)" x="1241.369001" y="2067.358437">1020.0</text>
     </g>
    </g>
    <g id="xtick_7">
     <g id="line2d_7">
      <g>
       <use style="stroke:#000000;stroke-width:0.8;" x="1445.297736" xlink:href="#m6e50e50294" y="2052.76"/>
      </g>
     </g>
     <g id="text_7">
      <text style="font-family:DejaVu Sans;font-size:10px;font-stretch:normal;font-style:normal;font-weight:normal;text-anchor:middle;" transform="rotate(-0, 1445.297736, 2067.358437)" x="1445.297736" y="2067.358437">1022.5</text>
     </g>
    </g>
    <g id="xtick_8">
     <g id="line2d_8">
      <g>
       <use style="stroke:#000000;stroke-width:0.8;" x="1649.22647" xlink:href="#m6e50e50294" y="2052.76"/>
      </g>
     </g>
     <g id="text_8">
      <text style="font-family:DejaVu Sans;font-size:10px;font-stretch:normal;font-style:normal;font-weight:normal;text-anchor:middle;" transform="rotate(-0, 1649.22647, 2067.358437)" x="1649.22647" y="2067.358437">1025.0</text>
     </g>
    </g>
    <g id="text_9">
     <text style="font-family:DejaVu Sans;font-size:10px;font-stretch:normal;font-style:normal;font-weight:normal;text-anchor:middle;" transform="rotate(-0, 927.31875, 2081.036562)" x="927.31875" y="2081.036562">air_pressure from Aeris</text>
    </g>
   </g>
   <g id="matplotlib.axis_2">
    <g id="ytick_1">
     <g id="line2d_9">
      <defs>
       <path d="M 0 0 
L -3.5 0 
" id="m2f10b87f5c" style="stroke:#000000;stroke-width:0.8;"/>
      </defs>
      <g>
       <use style="stroke:#000000;stroke-width:0.8;" x="34.51875" xlink:href="#m2f10b87f5c" y="1920.887253"/>
      </g>
     </g>
     <g id="text_10">
      <text style="font-family:DejaVu Sans;font-size:10px;font-stretch:normal;font-style:normal;font-weight:normal;text-anchor:end;" transform="rotate(-0, 27.51875, 1924.686472)" x="27.51875" y="1924.686472">5</text>
     </g>
    </g>
    <g id="ytick_2">
     <g id="line2d_10">
      <g>
       <use style="stroke:#000000;stroke-width:0.8;" x="34.51875" xlink:href="#m2f10b87f5c" y="1577.043313"/>
      </g>
     </g>
     <g id="text_11">
      <text style="font-family:DejaVu Sans;font-size:10px;font-stretch:normal;font-style:normal;font-weight:normal;text-anchor:end;" transform="rotate(-0, 27.51875, 1580.842532)" x="27.51875" y="1580.842532">6</text>
     </g>
    </g>
    <g id="ytick_3">
     <g id="line2d_11">
      <g>
       <use style="stroke:#000000;stroke-width:0.8;" x="34.51875" xlink:href="#m2f10b87f5c" y="1233.199373"/>
      </g>
     </g>
     <g id="text_12">
      <text style="font-family:DejaVu Sans;font-size:10px;font-stretch:normal;font-style:normal;font-weight:normal;text-anchor:end;" transform="rotate(-0, 27.51875, 1236.998592)" x="27.51875" y="1236.998592">7</text>
     </g>
    </g>
    <g id="ytick_4">
     <g id="line2d_12">
      <g>
       <use style="stroke:#000000;stroke-width:0.8;" x="34.51875" xlink:href="#m2f10b87f5c" y="889.355433"/>
      </g>
     </g>
     <g id="text_13">
      <text style="font-family:DejaVu Sans;font-size:10px;font-stretch:normal;font-style:normal;font-weight:normal;text-anchor:end;" transform="rotate(-0, 27.51875, 893.154652)" x="27.51875" y="893.154652">8</text>
     </g>
    </g>
    <g id="ytick_5">
     <g id="line2d_13">
      <g>
       <use style="stroke:#000000;stroke-width:0.8;" x="34.51875" xlink:href="#m2f10b87f5c" y="545.511493"/>
      </g>
     </g>
     <g id="text_14">
      <text style="font-family:DejaVu Sans;font-size:10px;font-stretch:normal;font-style:normal;font-weight:normal;text-anchor:end;" transform="rotate(-0, 27.51875, 549.310712)" x="27.51875" y="549.310712">9</text>
     </g>
    </g>
    <g id="text_15">
     <text style="font-family:DejaVu Sans;font-size:10px;font-stretch:normal;font-style:normal;font-weight:normal;text-anchor:middle;" transform="rotate(-90, 14.798438, 1165.72)" x="14.798438" y="1165.72">ping_day[ms]</text>
    </g>
   </g>
   <g id="line2d_14">
    <path clip-path="url(#p326804f66b)" d="M 115.682386 1595.95473 
L 131.996685 1604.206984 
L 156.468133 1858.6515 
L 164.625283 1593.032056 
L 189.096731 1729.5381 
L 197.25388 1335.664867 
L 213.568179 1770.283607 
L 238.039627 1808.106441 
L 246.196776 1637.559846 
L 262.511075 1787.475804 
L 270.668225 1763.750572 
L 278.825374 1388.960678 
L 295.139673 1716.987797 
L 303.296822 1765.29787 
L 352.239718 1818.765603 
L 360.396868 1722.661222 
L 368.554017 1699.451756 
L 376.711167 1767.704778 
L 384.868316 1741.056872 
L 409.339764 1756.873694 
L 425.654063 1821.688276 
L 433.811212 1853.837685 
L 441.968362 1573.26103 
L 458.28266 1837.333176 
L 466.43981 1485.752747 
L 490.911258 1105.633272 
L 515.382706 1849.367713 
L 523.539856 1583.576348 
L 539.854154 1805.871455 
L 564.325602 1838.708551 
L 572.482752 359.32 
L 588.797051 1598.877403 
L 596.9542 1737.274589 
L 605.111349 1622.774557 
L 621.425648 1823.923262 
L 629.582798 1773.034359 
L 645.897096 1664.03583 
L 654.054246 1784.381209 
L 670.368544 1690.167969 
L 678.525694 1752.403722 
L 702.997142 1790.5704 
L 711.154291 1767.532856 
L 735.625739 1724.552363 
L 760.097188 1710.454762 
L 768.254337 1869.310662 
L 784.568636 1825.986326 
L 792.725785 1818.421759 
L 809.040084 1972.12 
L 841.668681 1794.008839 
L 849.825831 1740.369185 
L 866.14013 1839.396239 
L 874.297279 1779.22355 
L 890.611578 1797.447279 
L 898.768727 1727.990803 
L 923.240175 1781.286613 
L 931.397325 1877.562917 
L 947.711623 1805.355689 
L 955.868773 1716.472031 
L 972.183072 1808.450285 
L 980.340221 1639.966754 
L 1004.811669 1775.441266 
L 1029.283117 1791.945776 
L 1061.911715 1629.651436 
L 1086.383163 1774.409735 
L 1094.540312 1520.137141 
L 1110.854611 1823.75134 
L 1119.011761 1857.963812 
L 1143.483209 1777.848174 
L 1167.954657 1811.716802 
L 1176.111806 1611.943473 
L 1192.426105 1731.429242 
L 1200.583254 1799.166498 
L 1225.054702 1820.828666 
L 1249.526151 1733.83615 
L 1257.6833 1785.756585 
L 1273.997599 1816.702539 
L 1331.097644 1710.798606 
L 1355.569093 1824.954794 
L 1380.040541 1621.571103 
L 1388.19769 1715.612421 
L 1412.669138 1765.813636 
L 1437.140586 1776.128954 
L 1469.769184 1678.477275 
L 1494.240632 1783.693521 
L 1518.71208 1751.200269 
L 1551.340678 1845.069664 
L 1575.812126 1778.192018 
L 1600.283574 1836.129722 
L 1632.912172 1825.986326 
L 1657.38362 1808.794129 
L 1681.855068 1805.355689 
L 1714.483665 1816.702539 
L 1738.955114 1818.077915 
" style="fill:none;stroke:#0000ff;stroke-linecap:square;stroke-width:1.5;"/>
   </g>
   <g id="patch_3">
    <path d="M 34.51875 2052.76 
L 34.51875 278.68 
" style="fill:none;stroke:#000000;stroke-linecap:square;stroke-linejoin:miter;stroke-width:0.8;"/>
   </g>
   <g id="patch_4">
    <path d="M 1820.11875 2052.76 
L 1820.11875 278.68 
" style="fill:none;stroke:#000000;stroke-linecap:square;stroke-linejoin:miter;stroke-width:0.8;"/>
   </g>
   <g id="patch_5">
    <path d="M 34.51875 2052.76 
L 1820.11875 2052.76 
" style="fill:none;stroke:#000000;stroke-linecap:square;stroke-linejoin:miter;stroke-width:0.8;"/>
   </g>
   <g id="patch_6">
    <path d="M 34.51875 278.68 
L 1820.11875 278.68 
" style="fill:none;stroke:#000000;stroke-linecap:square;stroke-linejoin:miter;stroke-width:0.8;"/>
   </g>
   <g id="text_16">
    <text style="font-family:DejaVu Sans;font-size:12px;font-stretch:normal;font-style:normal;font-weight:normal;text-anchor:middle;" transform="rotate(-0, 927.31875, 272.68)" x="927.31875" y="272.68">air_pressure-&gt;ping_day</text>
   </g>
  </g>
  <g id="legend_1">
   <g id="patch_7">
    <path d="M 1945.757812 22.95625 
L 2045.71875 22.95625 
Q 2047.71875 22.95625 2047.71875 20.95625 
L 2047.71875 7 
Q 2047.71875 5 2045.71875 5 
L 1945.757812 5 
Q 1943.757812 5 1943.757812 7 
L 1943.757812 20.95625 
Q 1943.757812 22.95625 1945.757812 22.95625 
z
" style="fill:#ffffff;opacity:0.8;stroke:#cccccc;stroke-linejoin:miter;"/>
   </g>
   <g id="line2d_15">
    <path d="M 1947.757812 13.098438 
L 1967.757812 13.098438 
" style="fill:none;stroke:#0000ff;stroke-linecap:square;stroke-width:1.5;"/>
   </g>
   <g id="line2d_16"/>
   <g id="text_17">
    <text style="font-family:DejaVu Sans;font-size:10px;font-stretch:normal;font-style:normal;font-weight:normal;text-anchor:start;" transform="rotate(-0, 1975.757812, 16.598438)" x="1975.757812" y="16.598438">ping_day[ms]</text>
   </g>
  </g>
 </g>
 <defs>
  <clipPath id="p326804f66b">
   <rect height="1774.08" width="1785.6" x="34.51875" y="278.68"/>
  </clipPath>
 </defs>
</svg>
