<?xml version="1.0" encoding="utf-8" standalone="no"?>
<!DOCTYPE svg PUBLIC "-//W3C//DTD SVG 1.1//EN"
  "http://www.w3.org/Graphics/SVG/1.1/DTD/svg11.dtd">
<!-- Created with matplotlib (https://matplotlib.org/) -->
<svg height="2090.31625pt" version="1.1" viewBox="0 0 2059.08125 2090.31625" width="2059.08125pt" xmlns="http://www.w3.org/2000/svg" xmlns:xlink="http://www.w3.org/1999/xlink">
 <metadata>
  <rdf:RDF xmlns:cc="http://creativecommons.org/ns#" xmlns:dc="http://purl.org/dc/elements/1.1/" xmlns:rdf="http://www.w3.org/1999/02/22-rdf-syntax-ns#">
   <cc:Work>
    <dc:type rdf:resource="http://purl.org/dc/dcmitype/StillImage"/>
    <dc:date>2022-07-23T21:07:59.360505</dc:date>
    <dc:format>image/svg+xml</dc:format>
    <dc:creator>
     <cc:Agent>
      <dc:title>Matplotlib v3.3.2, https://matplotlib.org/</dc:title>
     </cc:Agent>
    </dc:creator>
   </cc:Work>
  </rdf:RDF>
 </metadata>
 <defs>
  <style type="text/css">*{stroke-linecap:butt;stroke-linejoin:round;}</style>
 </defs>
 <g id="figure_1">
  <g id="patch_1">
   <path d="M 0 2090.31625 
L 2059.08125 2090.31625 
L 2059.08125 0 
L 0 0 
z
" style="fill:#ffffff;"/>
  </g>
  <g id="axes_1">
   <g id="patch_2">
    <path d="M 40.88125 2052.76 
L 1826.48125 2052.76 
L 1826.48125 278.68 
L 40.88125 278.68 
z
" style="fill:#ffffff;"/>
   </g>
   <g id="matplotlib.axis_1">
    <g id="xtick_1">
     <g id="line2d_1">
      <defs>
       <path d="M 0 0 
L 0 3.5 
" id="m17cd3235d8" style="stroke:#000000;stroke-width:0.8;"/>
      </defs>
      <g>
       <use style="stroke:#000000;stroke-width:0.8;" x="122.044886" xlink:href="#m17cd3235d8" y="2052.76"/>
      </g>
     </g>
     <g id="text_1">
      <text style="font-family:DejaVu Sans;font-size:10px;font-stretch:normal;font-style:normal;font-weight:normal;text-anchor:middle;" transform="rotate(-0, 122.044886, 2067.358438)" x="122.044886" y="2067.358438">0.0</text>
     </g>
    </g>
    <g id="xtick_2">
     <g id="line2d_2">
      <g>
       <use style="stroke:#000000;stroke-width:0.8;" x="360.761464" xlink:href="#m17cd3235d8" y="2052.76"/>
      </g>
     </g>
     <g id="text_2">
      <text style="font-family:DejaVu Sans;font-size:10px;font-stretch:normal;font-style:normal;font-weight:normal;text-anchor:middle;" transform="rotate(-0, 360.761464, 2067.358438)" x="360.761464" y="2067.358438">2.5</text>
     </g>
    </g>
    <g id="xtick_3">
     <g id="line2d_3">
      <g>
       <use style="stroke:#000000;stroke-width:0.8;" x="599.478041" xlink:href="#m17cd3235d8" y="2052.76"/>
      </g>
     </g>
     <g id="text_3">
      <text style="font-family:DejaVu Sans;font-size:10px;font-stretch:normal;font-style:normal;font-weight:normal;text-anchor:middle;" transform="rotate(-0, 599.478041, 2067.358438)" x="599.478041" y="2067.358438">5.0</text>
     </g>
    </g>
    <g id="xtick_4">
     <g id="line2d_4">
      <g>
       <use style="stroke:#000000;stroke-width:0.8;" x="838.194619" xlink:href="#m17cd3235d8" y="2052.76"/>
      </g>
     </g>
     <g id="text_4">
      <text style="font-family:DejaVu Sans;font-size:10px;font-stretch:normal;font-style:normal;font-weight:normal;text-anchor:middle;" transform="rotate(-0, 838.194619, 2067.358438)" x="838.194619" y="2067.358438">7.5</text>
     </g>
    </g>
    <g id="xtick_5">
     <g id="line2d_5">
      <g>
       <use style="stroke:#000000;stroke-width:0.8;" x="1076.911197" xlink:href="#m17cd3235d8" y="2052.76"/>
      </g>
     </g>
     <g id="text_5">
      <text style="font-family:DejaVu Sans;font-size:10px;font-stretch:normal;font-style:normal;font-weight:normal;text-anchor:middle;" transform="rotate(-0, 1076.911197, 2067.358438)" x="1076.911197" y="2067.358438">10.0</text>
     </g>
    </g>
    <g id="xtick_6">
     <g id="line2d_6">
      <g>
       <use style="stroke:#000000;stroke-width:0.8;" x="1315.627774" xlink:href="#m17cd3235d8" y="2052.76"/>
      </g>
     </g>
     <g id="text_6">
      <text style="font-family:DejaVu Sans;font-size:10px;font-stretch:normal;font-style:normal;font-weight:normal;text-anchor:middle;" transform="rotate(-0, 1315.627774, 2067.358438)" x="1315.627774" y="2067.358438">12.5</text>
     </g>
    </g>
    <g id="xtick_7">
     <g id="line2d_7">
      <g>
       <use style="stroke:#000000;stroke-width:0.8;" x="1554.344352" xlink:href="#m17cd3235d8" y="2052.76"/>
      </g>
     </g>
     <g id="text_7">
      <text style="font-family:DejaVu Sans;font-size:10px;font-stretch:normal;font-style:normal;font-weight:normal;text-anchor:middle;" transform="rotate(-0, 1554.344352, 2067.358438)" x="1554.344352" y="2067.358438">15.0</text>
     </g>
    </g>
    <g id="xtick_8">
     <g id="line2d_8">
      <g>
       <use style="stroke:#000000;stroke-width:0.8;" x="1793.060929" xlink:href="#m17cd3235d8" y="2052.76"/>
      </g>
     </g>
     <g id="text_8">
      <text style="font-family:DejaVu Sans;font-size:10px;font-stretch:normal;font-style:normal;font-weight:normal;text-anchor:middle;" transform="rotate(-0, 1793.060929, 2067.358438)" x="1793.060929" y="2067.358438">17.5</text>
     </g>
    </g>
    <g id="text_9">
     <text style="font-family:DejaVu Sans;font-size:10px;font-stretch:normal;font-style:normal;font-weight:normal;text-anchor:middle;" transform="rotate(-0, 933.68125, 2081.036562)" x="933.68125" y="2081.036562">rain from Foreca</text>
    </g>
   </g>
   <g id="matplotlib.axis_2">
    <g id="ytick_1">
     <g id="line2d_9">
      <defs>
       <path d="M 0 0 
L -3.5 0 
" id="m367c26599a" style="stroke:#000000;stroke-width:0.8;"/>
      </defs>
      <g>
       <use style="stroke:#000000;stroke-width:0.8;" x="40.88125" xlink:href="#m367c26599a" y="1790.494497"/>
      </g>
     </g>
     <g id="text_10">
      <text style="font-family:DejaVu Sans;font-size:10px;font-stretch:normal;font-style:normal;font-weight:normal;text-anchor:end;" transform="rotate(-0, 33.88125, 1794.293716)" x="33.88125" y="1794.293716">6</text>
     </g>
    </g>
    <g id="ytick_2">
     <g id="line2d_10">
      <g>
       <use style="stroke:#000000;stroke-width:0.8;" x="40.88125" xlink:href="#m367c26599a" y="1407.520321"/>
      </g>
     </g>
     <g id="text_11">
      <text style="font-family:DejaVu Sans;font-size:10px;font-stretch:normal;font-style:normal;font-weight:normal;text-anchor:end;" transform="rotate(-0, 33.88125, 1411.319539)" x="33.88125" y="1411.319539">8</text>
     </g>
    </g>
    <g id="ytick_3">
     <g id="line2d_11">
      <g>
       <use style="stroke:#000000;stroke-width:0.8;" x="40.88125" xlink:href="#m367c26599a" y="1024.546144"/>
      </g>
     </g>
     <g id="text_12">
      <text style="font-family:DejaVu Sans;font-size:10px;font-stretch:normal;font-style:normal;font-weight:normal;text-anchor:end;" transform="rotate(-0, 33.88125, 1028.345363)" x="33.88125" y="1028.345363">10</text>
     </g>
    </g>
    <g id="ytick_4">
     <g id="line2d_12">
      <g>
       <use style="stroke:#000000;stroke-width:0.8;" x="40.88125" xlink:href="#m367c26599a" y="641.571968"/>
      </g>
     </g>
     <g id="text_13">
      <text style="font-family:DejaVu Sans;font-size:10px;font-stretch:normal;font-style:normal;font-weight:normal;text-anchor:end;" transform="rotate(-0, 33.88125, 645.371187)" x="33.88125" y="645.371187">12</text>
     </g>
    </g>
    <g id="text_14">
     <text style="font-family:DejaVu Sans;font-size:10px;font-stretch:normal;font-style:normal;font-weight:normal;text-anchor:middle;" transform="rotate(-90, 14.798438, 1165.72)" x="14.798438" y="1165.72">ping_day[ms]</text>
    </g>
   </g>
   <g id="line2d_13">
    <path clip-path="url(#p5779413800)" d="M 122.044886 1903.854853 
L 122.999753 1882.599786 
L 123.954619 1878.004096 
L 124.909485 1905.578237 
L 125.864352 1870.5361 
L 126.819218 1901.844239 
L 127.774084 1824.196224 
L 128.728951 1855.600107 
L 129.683817 1851.770365 
L 130.638683 1915.535565 
L 131.593549 1876.280712 
L 132.548416 1861.919181 
L 133.503282 1793.079573 
L 134.458148 1711.889047 
L 135.413015 1813.855922 
L 136.367881 1847.940623 
L 137.322747 1851.291647 
L 138.277614 1865.94041 
L 139.23248 1907.397364 
L 140.187346 1874.270098 
L 141.142213 1805.621977 
L 142.097079 1804.09008 
L 143.051945 1811.175102 
L 144.006811 1796.047622 
L 144.961678 1937.652324 
L 145.916544 1862.876616 
L 146.87141 1843.440677 
L 147.826277 1901.365521 
L 148.781143 1873.599893 
L 149.736009 1963.024363 
L 150.690876 1939.854426 
L 151.645742 1368.552698 
L 152.600608 1961.875441 
L 153.555475 1920.897204 
L 154.510341 1696.378593 
L 155.465207 1905.003776 
L 156.420074 1856.461799 
L 157.37494 1873.79138 
L 158.329806 1758.324666 
L 159.284672 1909.407979 
L 160.239539 1905.961211 
L 161.194405 1908.833517 
L 162.149271 1899.259163 
L 163.104138 1916.397257 
L 164.059004 1911.897311 
L 165.01387 1942.918219 
L 165.968737 1818.547355 
L 166.923603 1915.535565 
L 167.878469 1852.919288 
L 168.833336 1952.013856 
L 169.788202 1923.003562 
L 170.743068 1829.557863 
L 171.697934 1899.833624 
L 172.652801 1924.439715 
L 173.607667 1864.695744 
L 174.562533 1743.867391 
L 175.5174 1782.930757 
L 176.472266 1892.940089 
L 177.427132 1854.642671 
L 178.381999 1873.599893 
L 179.336865 1852.153339 
L 180.291731 1947.80114 
L 181.246598 1925.10992 
L 182.201464 1819.026073 
L 183.15633 1916.971719 
L 184.111197 1795.090187 
L 185.066063 1862.302155 
L 186.020929 1856.366055 
L 186.975795 1837.025859 
L 189.840394 1854.642671 
L 190.795261 1900.025111 
L 192.704993 1760.239537 
L 193.65986 1801.792235 
L 194.614726 1337.81902 
L 195.569592 1542.997435 
L 196.524459 1423.509492 
L 198.434191 1949.524524 
L 199.389057 1848.898059 
L 200.343924 1845.451291 
L 201.29879 1529.88057 
L 202.253656 1863.642565 
L 203.208523 1917.067462 
L 204.163389 1827.642992 
L 205.118255 1792.217881 
L 206.073122 1835.302476 
L 207.982854 1842.578985 
L 208.937721 1822.664328 
L 209.892587 1905.195263 
L 211.80232 1854.259697 
L 212.757186 1851.578878 
L 214.666918 1789.632805 
L 217.531517 1919.365307 
L 219.44125 1927.312021 
L 220.396116 1584.645877 
L 222.305849 1651.091897 
L 223.260715 1967.045592 
L 228.035047 1897.727266 
L 228.989913 1824.770686 
L 231.854512 1798.536955 
L 232.809378 1908.3548 
L 235.673977 1835.876937 
L 240.448309 1683.836189 
L 241.403175 1842.196011 
L 249.042106 1874.844559 
L 251.906705 1798.536955 
L 263.3651 1954.886162 
L 265.274833 1899.929368 
L 267.184566 1866.706358 
L 268.139432 1837.217346 
L 270.049164 1910.365414 
L 272.913763 1880.493428 
L 278.642961 1914.961104 
L 279.597828 1311.202315 
L 280.552694 1933.152378 
L 283.417293 1687.474443 
L 288.191624 1735.920677 
L 289.146491 1818.643099 
L 291.056223 1823.334533 
L 320.657079 1826.972787 
L 326.386277 1844.972573 
L 358.851731 1808.111309 
L 408.504779 1885.472093 
L 465.796758 1520.68919 
L 488.713549 1650.996153 
L 709.287667 1881.833838 
L 719.791197 1972.12 
L 756.076116 1454.817631 
L 1745.317614 359.32 
L 1745.317614 359.32 
" style="fill:none;stroke:#0000ff;stroke-linecap:square;stroke-width:1.5;"/>
   </g>
   <g id="patch_3">
    <path d="M 40.88125 2052.76 
L 40.88125 278.68 
" style="fill:none;stroke:#000000;stroke-linecap:square;stroke-linejoin:miter;stroke-width:0.8;"/>
   </g>
   <g id="patch_4">
    <path d="M 1826.48125 2052.76 
L 1826.48125 278.68 
" style="fill:none;stroke:#000000;stroke-linecap:square;stroke-linejoin:miter;stroke-width:0.8;"/>
   </g>
   <g id="patch_5">
    <path d="M 40.88125 2052.76 
L 1826.48125 2052.76 
" style="fill:none;stroke:#000000;stroke-linecap:square;stroke-linejoin:miter;stroke-width:0.8;"/>
   </g>
   <g id="patch_6">
    <path d="M 40.88125 278.68 
L 1826.48125 278.68 
" style="fill:none;stroke:#000000;stroke-linecap:square;stroke-linejoin:miter;stroke-width:0.8;"/>
   </g>
   <g id="text_15">
    <text style="font-family:DejaVu Sans;font-size:12px;font-stretch:normal;font-style:normal;font-weight:normal;text-anchor:middle;" transform="rotate(-0, 933.68125, 272.68)" x="933.68125" y="272.68">rain-&gt;ping_day</text>
   </g>
  </g>
  <g id="legend_1">
   <g id="patch_7">
    <path d="M 1952.120312 22.95625 
L 2052.08125 22.95625 
Q 2054.08125 22.95625 2054.08125 20.95625 
L 2054.08125 7 
Q 2054.08125 5 2052.08125 5 
L 1952.120312 5 
Q 1950.120312 5 1950.120312 7 
L 1950.120312 20.95625 
Q 1950.120312 22.95625 1952.120312 22.95625 
z
" style="fill:#ffffff;opacity:0.8;stroke:#cccccc;stroke-linejoin:miter;"/>
   </g>
   <g id="line2d_14">
    <path d="M 1954.120312 13.098438 
L 1974.120312 13.098438 
" style="fill:none;stroke:#0000ff;stroke-linecap:square;stroke-width:1.5;"/>
   </g>
   <g id="line2d_15"/>
   <g id="text_16">
    <text style="font-family:DejaVu Sans;font-size:10px;font-stretch:normal;font-style:normal;font-weight:normal;text-anchor:start;" transform="rotate(-0, 1982.120312, 16.598438)" x="1982.120312" y="16.598438">ping_day[ms]</text>
   </g>
  </g>
 </g>
 <defs>
  <clipPath id="p5779413800">
   <rect height="1774.08" width="1785.6" x="40.88125" y="278.68"/>
  </clipPath>
 </defs>
</svg>
