<?xml version="1.0" encoding="utf-8" standalone="no"?>
<!DOCTYPE svg PUBLIC "-//W3C//DTD SVG 1.1//EN"
  "http://www.w3.org/Graphics/SVG/1.1/DTD/svg11.dtd">
<!-- Created with matplotlib (https://matplotlib.org/) -->
<svg height="2090.31625pt" version="1.1" viewBox="0 0 2061.98125 2090.31625" width="2061.98125pt" xmlns="http://www.w3.org/2000/svg" xmlns:xlink="http://www.w3.org/1999/xlink">
 <metadata>
  <rdf:RDF xmlns:cc="http://creativecommons.org/ns#" xmlns:dc="http://purl.org/dc/elements/1.1/" xmlns:rdf="http://www.w3.org/1999/02/22-rdf-syntax-ns#">
   <cc:Work>
    <dc:type rdf:resource="http://purl.org/dc/dcmitype/StillImage"/>
    <dc:date>2022-07-24T11:54:38.676439</dc:date>
    <dc:format>image/svg+xml</dc:format>
    <dc:creator>
     <cc:Agent>
      <dc:title>Matplotlib v3.3.2, https://matplotlib.org/</dc:title>
     </cc:Agent>
    </dc:creator>
   </cc:Work>
  </rdf:RDF>
 </metadata>
 <defs>
  <style type="text/css">*{stroke-linecap:butt;stroke-linejoin:round;}</style>
 </defs>
 <g id="figure_1">
  <g id="patch_1">
   <path d="M 0 2090.31625 
L 2061.98125 2090.31625 
L 2061.98125 0 
L 0 0 
z
" style="fill:#ffffff;"/>
  </g>
  <g id="axes_1">
   <g id="patch_2">
    <path d="M 43.78125 2052.76 
L 1829.38125 2052.76 
L 1829.38125 278.68 
L 43.78125 278.68 
z
" style="fill:#ffffff;"/>
   </g>
   <g id="matplotlib.axis_1">
    <g id="xtick_1">
     <g id="line2d_1">
      <defs>
       <path d="M 0 0 
L 0 3.5 
" id="m61b56f7110" style="stroke:#000000;stroke-width:0.8;"/>
      </defs>
      <g>
       <use style="stroke:#000000;stroke-width:0.8;" x="57.800706" xlink:href="#m61b56f7110" y="2052.76"/>
      </g>
     </g>
     <g id="text_1">
      <text style="font-family:DejaVu Sans;font-size:10px;font-stretch:normal;font-style:normal;font-weight:normal;text-anchor:middle;" transform="rotate(-0, 57.800706, 2067.358438)" x="57.800706" y="2067.358438">5</text>
     </g>
    </g>
    <g id="xtick_2">
     <g id="line2d_2">
      <g>
       <use style="stroke:#000000;stroke-width:0.8;" x="368.653392" xlink:href="#m61b56f7110" y="2052.76"/>
      </g>
     </g>
     <g id="text_2">
      <text style="font-family:DejaVu Sans;font-size:10px;font-stretch:normal;font-style:normal;font-weight:normal;text-anchor:middle;" transform="rotate(-0, 368.653392, 2067.358438)" x="368.653392" y="2067.358438">10</text>
     </g>
    </g>
    <g id="xtick_3">
     <g id="line2d_3">
      <g>
       <use style="stroke:#000000;stroke-width:0.8;" x="679.506079" xlink:href="#m61b56f7110" y="2052.76"/>
      </g>
     </g>
     <g id="text_3">
      <text style="font-family:DejaVu Sans;font-size:10px;font-stretch:normal;font-style:normal;font-weight:normal;text-anchor:middle;" transform="rotate(-0, 679.506079, 2067.358438)" x="679.506079" y="2067.358438">15</text>
     </g>
    </g>
    <g id="xtick_4">
     <g id="line2d_4">
      <g>
       <use style="stroke:#000000;stroke-width:0.8;" x="990.358765" xlink:href="#m61b56f7110" y="2052.76"/>
      </g>
     </g>
     <g id="text_4">
      <text style="font-family:DejaVu Sans;font-size:10px;font-stretch:normal;font-style:normal;font-weight:normal;text-anchor:middle;" transform="rotate(-0, 990.358765, 2067.358438)" x="990.358765" y="2067.358438">20</text>
     </g>
    </g>
    <g id="xtick_5">
     <g id="line2d_5">
      <g>
       <use style="stroke:#000000;stroke-width:0.8;" x="1301.211451" xlink:href="#m61b56f7110" y="2052.76"/>
      </g>
     </g>
     <g id="text_5">
      <text style="font-family:DejaVu Sans;font-size:10px;font-stretch:normal;font-style:normal;font-weight:normal;text-anchor:middle;" transform="rotate(-0, 1301.211451, 2067.358438)" x="1301.211451" y="2067.358438">25</text>
     </g>
    </g>
    <g id="xtick_6">
     <g id="line2d_6">
      <g>
       <use style="stroke:#000000;stroke-width:0.8;" x="1612.064137" xlink:href="#m61b56f7110" y="2052.76"/>
      </g>
     </g>
     <g id="text_6">
      <text style="font-family:DejaVu Sans;font-size:10px;font-stretch:normal;font-style:normal;font-weight:normal;text-anchor:middle;" transform="rotate(-0, 1612.064137, 2067.358438)" x="1612.064137" y="2067.358438">30</text>
     </g>
    </g>
    <g id="text_7">
     <text style="font-family:DejaVu Sans;font-size:10px;font-stretch:normal;font-style:normal;font-weight:normal;text-anchor:middle;" transform="rotate(-0, 936.58125, 2081.036562)" x="936.58125" y="2081.036562">temperature from Aeris</text>
    </g>
   </g>
   <g id="matplotlib.axis_2">
    <g id="ytick_1">
     <g id="line2d_7">
      <defs>
       <path d="M 0 0 
L -3.5 0 
" id="m7c9fe53279" style="stroke:#000000;stroke-width:0.8;"/>
      </defs>
      <g>
       <use style="stroke:#000000;stroke-width:0.8;" x="43.78125" xlink:href="#m7c9fe53279" y="1978.370598"/>
      </g>
     </g>
     <g id="text_8">
      <text style="font-family:DejaVu Sans;font-size:10px;font-stretch:normal;font-style:normal;font-weight:normal;text-anchor:end;" transform="rotate(-0, 36.78125, 1982.169817)" x="36.78125" y="1982.169817">0.0</text>
     </g>
    </g>
    <g id="ytick_2">
     <g id="line2d_8">
      <g>
       <use style="stroke:#000000;stroke-width:0.8;" x="43.78125" xlink:href="#m7c9fe53279" y="1762.508438"/>
      </g>
     </g>
     <g id="text_9">
      <text style="font-family:DejaVu Sans;font-size:10px;font-stretch:normal;font-style:normal;font-weight:normal;text-anchor:end;" transform="rotate(-0, 36.78125, 1766.307657)" x="36.78125" y="1766.307657">0.2</text>
     </g>
    </g>
    <g id="ytick_3">
     <g id="line2d_9">
      <g>
       <use style="stroke:#000000;stroke-width:0.8;" x="43.78125" xlink:href="#m7c9fe53279" y="1546.646278"/>
      </g>
     </g>
     <g id="text_10">
      <text style="font-family:DejaVu Sans;font-size:10px;font-stretch:normal;font-style:normal;font-weight:normal;text-anchor:end;" transform="rotate(-0, 36.78125, 1550.445497)" x="36.78125" y="1550.445497">0.4</text>
     </g>
    </g>
    <g id="ytick_4">
     <g id="line2d_10">
      <g>
       <use style="stroke:#000000;stroke-width:0.8;" x="43.78125" xlink:href="#m7c9fe53279" y="1330.784119"/>
      </g>
     </g>
     <g id="text_11">
      <text style="font-family:DejaVu Sans;font-size:10px;font-stretch:normal;font-style:normal;font-weight:normal;text-anchor:end;" transform="rotate(-0, 36.78125, 1334.583337)" x="36.78125" y="1334.583337">0.6</text>
     </g>
    </g>
    <g id="ytick_5">
     <g id="line2d_11">
      <g>
       <use style="stroke:#000000;stroke-width:0.8;" x="43.78125" xlink:href="#m7c9fe53279" y="1114.921959"/>
      </g>
     </g>
     <g id="text_12">
      <text style="font-family:DejaVu Sans;font-size:10px;font-stretch:normal;font-style:normal;font-weight:normal;text-anchor:end;" transform="rotate(-0, 36.78125, 1118.721177)" x="36.78125" y="1118.721177">0.8</text>
     </g>
    </g>
    <g id="ytick_6">
     <g id="line2d_12">
      <g>
       <use style="stroke:#000000;stroke-width:0.8;" x="43.78125" xlink:href="#m7c9fe53279" y="899.059799"/>
      </g>
     </g>
     <g id="text_13">
      <text style="font-family:DejaVu Sans;font-size:10px;font-stretch:normal;font-style:normal;font-weight:normal;text-anchor:end;" transform="rotate(-0, 36.78125, 902.859018)" x="36.78125" y="902.859018">1.0</text>
     </g>
    </g>
    <g id="ytick_7">
     <g id="line2d_13">
      <g>
       <use style="stroke:#000000;stroke-width:0.8;" x="43.78125" xlink:href="#m7c9fe53279" y="683.197639"/>
      </g>
     </g>
     <g id="text_14">
      <text style="font-family:DejaVu Sans;font-size:10px;font-stretch:normal;font-style:normal;font-weight:normal;text-anchor:end;" transform="rotate(-0, 36.78125, 686.996858)" x="36.78125" y="686.996858">1.2</text>
     </g>
    </g>
    <g id="ytick_8">
     <g id="line2d_14">
      <g>
       <use style="stroke:#000000;stroke-width:0.8;" x="43.78125" xlink:href="#m7c9fe53279" y="467.335479"/>
      </g>
     </g>
     <g id="text_15">
      <text style="font-family:DejaVu Sans;font-size:10px;font-stretch:normal;font-style:normal;font-weight:normal;text-anchor:end;" transform="rotate(-0, 36.78125, 471.134698)" x="36.78125" y="471.134698">1.4</text>
     </g>
    </g>
    <g id="text_16">
     <text style="font-family:DejaVu Sans;font-size:10px;font-stretch:normal;font-style:normal;font-weight:normal;text-anchor:middle;" transform="rotate(-90, 14.798437, 1165.72)" x="14.798437" y="1165.72">Throughput[Bit/s]</text>
    </g>
    <g id="text_17">
     <text style="font-family:DejaVu Sans;font-size:10px;font-stretch:normal;font-style:normal;font-weight:normal;text-anchor:start;" transform="rotate(-0, 43.78125, 275.68)" x="43.78125" y="275.68">1e7</text>
    </g>
   </g>
   <g id="line2d_15">
    <path clip-path="url(#p2ef91e089b)" d="M 124.944886 541.879889 
L 125.566592 463.1526 
L 126.188297 498.72754 
L 126.810002 527.465194 
L 131.783645 528.101191 
L 133.027056 530.011444 
L 133.648762 528.147307 
L 134.270467 473.736401 
L 134.892172 462.458845 
L 135.513878 444.33379 
L 136.757288 498.104499 
L 141.730931 529.982913 
L 149.191396 488.782926 
L 151.056512 516.251033 
L 151.678217 528.714711 
L 152.299923 499.964905 
L 152.921628 492.475367 
L 154.165039 536.870259 
L 155.40845 548.142092 
L 156.030155 525.599129 
L 156.65186 548.106338 
L 157.273566 548.764333 
L 157.895271 498.097986 
L 158.516976 545.653583 
L 159.760387 506.260695 
L 160.382093 496.837533 
L 161.003798 538.129261 
L 162.868914 521.25697 
L 167.842557 496.223382 
L 175.303022 476.247947 
L 177.168138 548.155249 
L 179.033254 484.964595 
L 179.654959 484.974003 
L 180.89837 503.760001 
L 181.520075 527.528014 
L 182.141781 498.125073 
L 182.763486 495.648084 
L 184.006897 518.756998 
L 184.628602 501.229322 
L 185.250307 489.336547 
L 185.872013 528.122509 
L 188.98054 523.741234 
L 189.602245 491.268562 
L 191.467361 441.212817 
L 192.089067 510.608214 
L 192.710772 526.854443 
L 193.332477 498.708453 
L 193.954183 514.33956 
L 194.575888 514.361666 
L 195.197593 906.327642 
L 214.47046 574.993882 
L 215.092165 541.307235 
L 215.713871 540.615447 
L 216.335576 470.613576 
L 216.957281 536.880205 
L 217.578987 513.741974 
L 218.200692 571.868603 
L 218.822398 557.475113 
L 219.444103 510.63067 
L 220.687514 646.263591 
L 221.309219 752.59216 
L 221.930924 1141.392585 
L 222.55263 486.858591 
L 223.174335 756.256234 
L 224.417746 648.795137 
L 235.608443 511.852718 
L 239.338675 495.588184 
L 239.96038 546.228557 
L 241.825496 527.504511 
L 242.447202 498.099466 
L 243.068907 489.363646 
L 243.690612 525.08504 
L 244.934023 510.616433 
L 246.177434 526.848782 
L 246.799139 938.195883 
L 248.04255 520.005744 
L 249.285961 526.256191 
L 251.151077 491.245959 
L 252.394488 691.311841 
L 253.637898 485.003869 
L 254.259604 753.141158 
L 259.233247 491.254881 
L 260.476658 528.100901 
L 262.963479 493.0935 
L 265.450301 475.602106 
L 266.072006 490.585744 
L 266.693711 516.241676 
L 267.315417 498.718514 
L 267.937122 533.158915 
L 270.423943 514.341902 
L 271.045649 511.22467 
L 272.28906 500.607608 
L 272.910765 487.459847 
L 273.53247 508.114677 
L 274.154176 537.481535 
L 274.775881 541.268868 
L 275.397586 511.874715 
L 276.019292 530.640743 
L 276.640997 484.352027 
L 277.262703 512.489119 
L 277.884408 781.268433 
L 278.506113 566.874623 
L 282.236346 865.100121 
L 283.479756 551.884276 
L 284.101462 556.256445 
L 285.344872 539.997528 
L 285.966578 497.473019 
L 289.075105 472.461941 
L 290.318515 482.521114 
L 290.940221 503.825615 
L 291.561926 508.087037 
L 294.048748 483.079373 
L 294.670453 522.465974 
L 295.292158 484.962952 
L 296.535569 511.873102 
L 297.77898 543.76668 
L 298.400685 533.131602 
L 299.022391 538.122636 
L 300.887507 534.976603 
L 301.509212 526.879117 
L 302.130917 515.589507 
L 303.374328 513.133716 
L 304.617739 538.107658 
L 305.86115 548.751896 
L 306.482855 584.404157 
L 308.969677 490.620259 
L 309.591382 525.635446 
L 311.456498 546.30789 
L 313.94332 549.370429 
L 314.565025 529.33534 
L 315.808436 499.418168 
L 317.673552 508.751395 
L 318.295257 516.212288 
L 318.916963 529.350989 
L 319.538668 807.618478 
L 320.160373 553.749614 
L 320.782079 517.789254 
L 321.403784 474.996538 
L 322.025489 501.876286 
L 322.647195 485.594191 
L 323.2689 656.86507 
L 323.890606 497.463838 
L 325.134016 466.225129 
L 325.755722 518.761085 
L 326.377427 520.599069 
L 326.999132 518.120214 
L 327.620838 469.332127 
L 328.242543 505.013 
L 328.864249 481.861903 
L 329.485954 526.906839 
L 330.107659 499.342892 
L 330.729365 558.144968 
L 333.837891 484.968328 
L 335.081302 432.456879 
L 336.324713 613.154799 
L 337.568124 443.712203 
L 338.189829 624.994732 
L 339.43324 507.479272 
L 340.676651 668.738307 
L 341.298356 545.649859 
L 342.541767 558.78483 
L 343.163472 701.930445 
L 343.785177 406.258098 
L 344.406883 486.84308 
L 345.650294 427.584036 
L 346.271999 374.940205 
L 346.893704 428.184611 
L 347.51541 495.607015 
L 348.137115 482.488806 
L 348.75882 449.982614 
L 349.380526 458.116917 
L 350.002231 476.856984 
L 350.623937 461.230303 
L 351.245642 423.751104 
L 351.867347 479.980735 
L 352.489053 493.743113 
L 353.110758 466.261267 
L 353.732463 501.839522 
L 354.354169 509.379878 
L 354.975874 496.211673 
L 355.59758 433.744336 
L 356.84099 548.146526 
L 357.462696 670.009093 
L 358.084401 509.984864 
L 358.706106 541.250905 
L 359.327812 535.026108 
L 360.571222 500.622237 
L 361.192928 553.133913 
L 361.814633 514.368693 
L 362.436339 580.063014 
L 363.058044 583.124107 
L 364.301455 481.865344 
L 365.544865 435.580611 
L 366.166571 494.97686 
L 366.788276 520.607232 
L 367.409982 566.899746 
L 368.653392 586.234068 
L 369.275098 478.741761 
L 369.896803 539.366664 
L 371.761919 590.68399 
L 373.00533 494.992287 
L 373.627035 640.699007 
L 374.248741 512.482083 
L 374.870446 523.760288 
L 375.492151 540.624648 
L 376.113857 441.924738 
L 376.735562 544.99022 
L 377.357268 431.209275 
L 378.600678 462.486281 
L 379.222384 491.868537 
L 379.844089 468.085513 
L 380.465794 489.333867 
L 381.0875 493.097808 
L 381.709205 502.47881 
L 382.330911 458.702209 
L 383.574321 491.845645 
L 384.196027 571.343667 
L 384.817732 489.996047 
L 385.439437 489.964941 
L 386.061143 493.718172 
L 386.682848 512.466839 
L 387.304554 538.76545 
L 387.926259 483.080719 
L 388.547964 512.478419 
L 389.791375 558.127074 
L 390.41308 583.112526 
L 391.034786 511.874275 
L 392.278196 501.22947 
L 393.521607 540.639312 
L 394.765018 535.625957 
L 395.386723 498.117821 
L 396.008429 498.097838 
L 397.251839 513.126976 
L 397.873545 540.621054 
L 398.49525 517.541998 
L 399.738661 501.860784 
L 400.360366 481.215536 
L 400.982072 513.208873 
L 402.225482 496.217601 
L 403.468893 517.497006 
L 404.090599 515.641579 
L 404.712304 464.992914 
L 405.334009 479.331791 
L 405.955715 486.865899 
L 406.57742 466.850845 
L 407.199125 482.070028 
L 407.820831 536.897357 
L 409.064242 499.350878 
L 409.685947 494.385581 
L 410.307652 462.491435 
L 410.929358 466.832556 
L 411.551063 516.879792 
L 412.172768 473.728426 
L 412.794474 512.513452 
L 413.416179 498.11708 
L 414.037885 503.097137 
L 414.65959 473.789058 
L 415.281295 501.236708 
L 415.903001 458.7209 
L 416.524706 555.619817 
L 417.146411 524.995812 
L 417.768117 512.465959 
L 418.389822 454.951637 
L 419.011527 506.223746 
L 419.633233 513.757645 
L 420.254938 503.735081 
L 420.876644 489.333122 
L 421.498349 481.246975 
L 422.120054 523.131113 
L 422.74176 519.964036 
L 423.363465 521.221563 
L 423.98517 480.589371 
L 424.606876 487.462233 
L 425.228581 458.775755 
L 425.850287 523.120781 
L 426.471992 487.459549 
L 427.715403 503.72181 
L 428.337108 575.011564 
L 428.958813 442.44861 
L 429.580519 513.093862 
L 430.82393 583.250081 
L 432.689046 490.59229 
L 433.310751 518.149417 
L 433.932456 519.963307 
L 434.554162 494.343585 
L 435.175867 536.235777 
L 435.797573 482.483271 
L 436.419278 490.593331 
L 437.662689 515.049697 
L 438.284394 482.460534 
L 438.906099 504.981324 
L 439.527805 503.091531 
L 440.14951 493.10761 
L 440.771216 491.218597 
L 441.392921 510.009679 
L 442.014626 498.719846 
L 442.636332 491.848916 
L 443.258037 456.83202 
L 443.879742 499.354576 
L 444.501448 507.488391 
L 445.123153 503.73287 
L 445.744859 519.36576 
L 446.366564 627.504921 
L 447.609975 477.486596 
L 448.23168 512.476806 
L 448.853385 483.789983 
L 449.475091 486.229602 
L 450.096796 484.343511 
L 450.718501 394.383838 
L 451.340207 484.332754 
L 451.961912 506.857544 
L 452.583618 490.597646 
L 453.205323 523.771488 
L 453.827028 508.76947 
L 454.448734 506.229193 
L 455.070439 514.960875 
L 455.692144 527.481443 
L 456.31385 519.356131 
L 456.935555 522.466848 
L 457.557261 518.125617 
L 458.178966 489.97015 
L 458.800671 530.726534 
L 459.422377 473.07863 
L 460.044082 501.210415 
L 460.665787 755.095163 
L 461.287493 526.223375 
L 461.909198 503.118675 
L 462.530904 508.783871 
L 463.152609 491.84074 
L 463.774314 516.252349 
L 464.39602 481.85891 
L 465.017725 503.08917 
L 465.63943 505.582873 
L 466.261136 535.621773 
L 467.504547 517.522716 
L 468.126252 491.846983 
L 468.747957 506.267466 
L 469.369663 509.337425 
L 469.991368 519.342563 
L 470.613073 431.829442 
L 471.234779 501.218539 
L 471.856484 486.208563 
L 472.47819 490.584405 
L 473.099895 512.482816 
L 473.7216 518.734375 
L 474.343306 506.221833 
L 474.965011 429.329126 
L 475.586716 497.467095 
L 476.208422 511.236553 
L 476.830127 516.872338 
L 477.451833 503.143457 
L 478.073538 492.474327 
L 478.695243 534.988005 
L 479.316949 501.852515 
L 479.938654 508.710541 
L 480.560359 508.762123 
L 481.182065 504.989428 
L 481.80377 472.459231 
L 483.047181 495.592188 
L 483.668886 500.597116 
L 484.290592 456.827607 
L 484.912297 499.401605 
L 485.534002 631.887837 
L 486.155708 490.595563 
L 486.777413 520.587553 
L 487.399118 471.859119 
L 488.020824 542.54175 
L 488.642529 482.484019 
L 489.264235 569.370832 
L 489.88594 524.346569 
L 490.507645 504.35238 
L 491.129351 529.348671 
L 491.751056 544.99108 
L 492.372761 478.723316 
L 492.994467 473.752499 
L 493.616172 549.992682 
L 494.859583 482.511841 
L 495.481288 458.088794 
L 496.102994 483.713762 
L 496.724699 501.842771 
L 497.346404 530.026072 
L 497.96811 491.836429 
L 498.589815 500.601993 
L 499.211521 457.506717 
L 499.833226 478.70937 
L 500.454931 508.756832 
L 501.076637 469.954833 
L 501.698342 481.217482 
L 502.320047 496.227383 
L 502.941753 500.589137 
L 503.563458 485.612551 
L 504.185164 491.83301 
L 504.806869 539.992925 
L 505.428574 475.068241 
L 506.05028 545.607165 
L 506.671985 504.365498 
L 507.29369 505.623078 
L 507.915396 519.99189 
L 508.537101 408.767422 
L 509.158806 525.644307 
L 509.780512 508.728029 
L 510.402217 471.207335 
L 511.023923 476.837465 
L 511.645628 478.088601 
L 512.267333 458.128927 
L 512.889039 496.85383 
L 513.510744 491.861253 
L 514.132449 516.840771 
L 514.754155 498.727836 
L 515.37586 494.987985 
L 515.997566 498.120337 
L 516.619271 404.584718 
L 517.240976 488.093163 
L 517.862682 487.683593 
L 518.484387 489.967024 
L 519.106092 484.966387 
L 519.727798 466.214544 
L 520.349503 506.862546 
L 520.971209 476.839417 
L 521.592914 508.113795 
L 522.214619 506.864901 
L 522.836325 493.735541 
L 523.45803 487.466109 
L 524.079735 511.263547 
L 524.701441 495.62629 
L 525.323146 500.591649 
L 525.944852 490.596902 
L 526.566557 482.482673 
L 527.188262 488.082285 
L 527.809968 523.155704 
L 528.431673 519.961119 
L 529.053378 503.095071 
L 529.675084 466.241005 
L 530.296789 514.967899 
L 530.918495 1022.600731 
L 531.5402 488.10434 
L 532.161905 514.362691 
L 532.783611 493.09053 
L 533.405316 476.833111 
L 534.027021 506.222716 
L 534.648727 500.627705 
L 535.270432 510.604398 
L 535.892138 570.013124 
L 536.513843 484.963102 
L 537.135548 518.740943 
L 537.757254 511.895978 
L 539.000664 494.34774 
L 539.62237 506.853571 
L 540.244075 503.7224 
L 540.86578 555.630629 
L 541.487486 529.99363 
L 542.109191 491.239713 
L 543.352602 444.37536 
L 543.974307 499.424231 
L 544.596013 498.092213 
L 545.217718 493.118452 
L 545.839423 530.029692 
L 546.461129 479.331191 
L 547.082834 513.75867 
L 547.70454 525.629636 
L 548.326245 492.508501 
L 548.94795 513.113203 
L 549.569656 544.999393 
L 550.191361 486.84472 
L 550.813066 503.164994 
L 551.434772 456.86184 
L 552.056477 490.586785 
L 552.678183 477.455679 
L 553.299888 486.833982 
L 553.921593 483.112418 
L 554.543299 466.245542 
L 555.165004 504.334397 
L 555.786709 516.219014 
L 556.408415 495.584774 
L 557.03012 468.764975 
L 557.651826 479.968299 
L 558.273531 509.361957 
L 558.895236 509.415424 
L 559.516942 478.106004 
L 560.138647 489.982801 
L 560.760352 469.986056 
L 561.382058 485.08271 
L 562.003763 509.982809 
L 562.625469 499.144814 
L 563.247174 478.766353 
L 564.490585 498.753136 
L 565.11229 503.761623 
L 565.733995 547.507263 
L 566.355701 468.705045 
L 566.977406 543.122205 
L 567.599111 400.034773 
L 568.220817 488.094356 
L 568.842522 484.32887 
L 570.707638 515.004775 
L 571.329344 452.48396 
L 571.951049 503.100825 
L 572.572754 505.617187 
L 573.19446 438.097562 
L 574.437871 521.887752 
L 575.681281 543.773852 
L 576.302987 501.216915 
L 576.924692 537.555447 
L 577.546397 493.085332 
L 578.168103 500.606722 
L 579.411514 466.841323 
L 580.033219 502.498733 
L 580.654924 502.46715 
L 581.27663 516.8662 
L 581.898335 496.847163 
L 582.52004 444.946947 
L 583.141746 483.730202 
L 584.385157 491.249379 
L 585.628567 575.651676 
L 586.250273 456.229732 
L 586.871978 465.588823 
L 587.493683 509.356228 
L 588.115389 477.491849 
L 588.737094 489.99307 
L 589.3588 466.203657 
L 589.980505 521.87479 
L 590.60221 489.366475 
L 591.223916 478.705171 
L 591.845621 498.744259 
L 592.467326 456.208728 
L 593.089032 482.491498 
L 594.332443 481.964103 
L 594.954148 491.847875 
L 595.575853 516.227202 
L 596.197559 512.489706 
L 596.819264 519.998161 
L 597.440969 542.492072 
L 598.062675 484.333202 
L 598.68438 464.329052 
L 599.927791 448.70609 
L 600.549496 489.982056 
L 601.171202 495.590112 
L 601.792907 468.702026 
L 602.414612 500.60746 
L 603.036318 478.088601 
L 603.658023 444.372139 
L 604.279728 467.471424 
L 604.901434 503.712815 
L 605.523139 423.103145 
L 606.144845 430.590815 
L 606.76655 489.342205 
L 607.388255 493.106125 
L 608.009961 415.613887 
L 608.631666 448.711903 
L 609.253371 473.206114 
L 609.875077 529.996816 
L 610.496782 506.255249 
L 611.118488 410.574343 
L 611.740193 479.966501 
L 612.361898 511.234059 
L 612.983604 476.85248 
L 613.605309 544.391493 
L 614.227014 476.835513 
L 614.84872 495.586257 
L 615.470425 464.421097 
L 616.092131 479.332091 
L 616.713836 532.517776 
L 617.335541 486.831148 
L 617.957247 507.486332 
L 618.578952 494.331416 
L 619.200657 493.762412 
L 619.822363 495.026402 
L 621.065774 534.982809 
L 621.687479 491.835686 
L 622.309184 458.702057 
L 622.93089 525.639804 
L 623.552595 500.652677 
L 624.1743 494.965884 
L 624.796006 495.591594 
L 625.417711 489.338483 
L 626.039416 526.90771 
L 626.661122 463.085933 
L 627.282827 494.970482 
L 627.904533 504.350022 
L 628.526238 507.490009 
L 629.147943 494.993325 
L 629.769649 512.490585 
L 630.391354 514.380551 
L 631.013059 531.894124 
L 631.634765 506.870786 
L 632.25647 513.095767 
L 632.878176 484.40745 
L 633.499881 508.72024 
L 634.121586 487.469538 
L 634.743292 578.128404 
L 635.364997 508.090859 
L 635.986702 544.396655 
L 636.608408 478.756756 
L 637.230113 448.078523 
L 637.851819 445.613145 
L 638.473524 515.587021 
L 639.095229 491.839105 
L 639.716935 435.574903 
L 640.33864 478.0799 
L 640.960345 535.601142 
L 641.582051 533.103999 
L 642.203756 523.73527 
L 642.825462 474.977295 
L 643.447167 554.991575 
L 644.068872 485.579263 
L 644.690578 481.83347 
L 645.312283 537.479518 
L 645.933988 497.534916 
L 646.555694 498.089993 
L 647.177399 502.46597 
L 647.799105 532.465148 
L 648.42081 539.997959 
L 649.042515 538.729749 
L 649.664221 495.589222 
L 650.285926 509.979725 
L 650.907631 528.722684 
L 651.529337 498.713336 
L 652.151042 451.197401 
L 652.772748 546.226838 
L 653.394453 481.258502 
L 654.016158 533.138106 
L 654.637864 485.006408 
L 655.259569 508.718624 
L 655.881274 548.126217 
L 656.50298 494.977305 
L 657.124685 523.092986 
L 657.74639 1030.097317 
L 658.368096 549.374716 
L 658.989801 370.665654 
L 659.611507 475.712397 
L 660.233212 530.60209 
L 660.854917 520.641633 
L 661.476623 538.733924 
L 662.098328 459.971278 
L 662.720033 427.476571 
L 663.341739 488.750306 
L 663.963444 398.138349 
L 664.58515 488.118795 
L 665.206855 453.728838 
L 665.82856 411.911829 
L 666.450266 456.237038 
L 667.071971 491.892914 
L 668.315382 484.390869 
L 668.937087 509.370917 
L 669.558793 529.34302 
L 670.180498 468.107864 
L 670.802203 495.606422 
L 671.423909 475.005557 
L 672.045614 483.086551 
L 672.667319 467.456316 
L 673.289025 540.614728 
L 673.91073 502.476743 
L 674.532436 503.105693 
L 675.154141 494.502354 
L 675.775846 507.722067 
L 676.397552 536.238661 
L 677.019257 498.723989 
L 677.640962 481.205805 
L 678.262668 447.45172 
L 678.884373 494.360948 
L 679.506079 523.144063 
L 680.127784 546.249608 
L 680.749489 451.242603 
L 681.9929 541.271023 
L 682.614605 436.225313 
L 683.236311 518.112913 
L 683.858016 472.464351 
L 684.479722 469.967654 
L 685.101427 505.60246 
L 686.344838 487.479974 
L 686.966543 502.489731 
L 687.588248 475.57656 
L 688.209954 431.196589 
L 688.831659 508.710982 
L 689.453364 506.270705 
L 690.07507 468.707914 
L 690.696775 490.017627 
L 691.318481 455.588482 
L 691.940186 501.894593 
L 692.561891 518.129267 
L 693.183597 493.721141 
L 693.805302 445.586783 
L 694.427007 464.592486 
L 695.048713 501.232572 
L 695.670418 526.855894 
L 696.292124 489.341609 
L 696.913829 459.339329 
L 697.535534 448.77232 
L 698.15724 452.469465 
L 698.778945 479.956312 
L 699.40065 472.461489 
L 700.022356 489.976847 
L 700.644061 405.611144 
L 701.265767 491.848916 
L 701.887472 512.466399 
L 702.509177 466.207588 
L 703.130883 503.242579 
L 703.752588 519.469483 
L 704.374293 503.150243 
L 704.995999 479.999014 
L 705.617704 442.451528 
L 706.23941 486.915413 
L 706.861115 500.615588 
L 707.48282 481.238142 
L 708.104526 485.581502 
L 708.726231 501.206279 
L 709.969642 446.836861 
L 710.591347 480.583829 
L 711.213053 525.003515 
L 711.834758 501.88795 
L 712.456463 469.329109 
L 713.078169 503.711193 
L 713.699874 487.50174 
L 714.321579 461.230909 
L 714.943285 482.46203 
L 715.56499 415.029742 
L 716.186695 447.484174 
L 716.808401 532.483221 
L 717.430106 497.48916 
L 718.051812 470.616893 
L 718.673517 484.960861 
L 719.295222 453.119896 
L 719.916928 457.483905 
L 720.538633 488.734963 
L 721.160338 473.721204 
L 721.782044 545.592408 
L 722.403749 382.444347 
L 723.025455 478.146808 
L 723.64716 548.763761 
L 724.268865 477.502805 
L 724.890571 473.094886 
L 725.512276 484.34381 
L 726.133981 461.206636 
L 726.755687 474.954294 
L 727.377392 481.847088 
L 727.999098 499.983088 
L 728.620803 446.868256 
L 729.242508 493.120531 
L 729.864214 486.857398 
L 730.485919 476.209794 
L 731.107624 495.593967 
L 731.72933 475.017283 
L 732.351035 481.207152 
L 732.972741 494.407542 
L 733.594446 480.587424 
L 734.216151 380.099222 
L 734.837857 500.616474 
L 735.459562 486.890358 
L 736.081267 440.600619 
L 736.702973 480.588472 
L 737.324678 434.356778 
L 737.946384 480.591617 
L 738.568089 436.863525 
L 739.189794 412.496829 
L 739.8115 505.588911 
L 740.433205 531.878937 
L 741.05491 466.837998 
L 741.676616 512.514184 
L 742.298321 440.601695 
L 742.920027 460.60231 
L 743.541732 471.238683 
L 744.163437 574.37242 
L 744.785143 480.57679 
L 745.406848 435.638153 
L 746.028553 481.257603 
L 746.650259 501.888983 
L 747.893669 454.983932 
L 748.515375 442.474719 
L 749.13708 500.586181 
L 749.758786 486.235421 
L 750.380491 452.489758 
L 751.002196 456.213598 
L 751.623902 436.215444 
L 752.245607 458.720748 
L 752.867312 364.941527 
L 753.489018 485.008946 
L 754.110723 505.604816 
L 754.732429 504.98103 
L 755.354134 498.733902 
L 755.975839 457.51356 
L 756.597545 470.617798 
L 757.21925 477.467386 
L 758.462661 498.770003 
L 759.084366 481.248172 
L 759.706072 433.712982 
L 760.327777 449.966414 
L 760.949482 440.626759 
L 761.571188 480.016394 
L 762.192893 475.605863 
L 762.814598 483.75277 
L 763.436304 503.719156 
L 764.058009 511.841133 
L 764.679715 489.352777 
L 765.30142 473.098499 
L 765.923125 515.609839 
L 766.544831 486.844124 
L 767.788241 505.60246 
L 768.409947 474.328571 
L 769.031652 811.919775 
L 769.653358 489.413226 
L 770.275063 506.239203 
L 770.896768 507.477213 
L 771.518474 487.460444 
L 772.140179 461.845858 
L 772.761884 516.249279 
L 773.38359 501.22814 
L 774.005295 475.59279 
L 774.627 515.678437 
L 775.248706 495.595746 
L 775.870411 486.834877 
L 776.492117 470.620964 
L 777.113822 491.208336 
L 777.735527 499.340378 
L 778.357233 450.582973 
L 778.978938 493.743113 
L 779.600643 511.246823 
L 780.844054 471.832153 
L 781.46576 455.577214 
L 782.087465 504.366235 
L 782.70917 451.278945 
L 783.330876 507.490892 
L 783.952581 461.205119 
L 784.574286 480.623069 
L 785.195992 474.963314 
L 785.817697 480.592067 
L 786.439403 507.502658 
L 787.061108 498.768079 
L 787.682813 469.377396 
L 788.304519 511.207211 
L 788.926224 508.717889 
L 789.547929 503.108053 
L 790.169635 507.503835 
L 790.79134 531.84509 
L 791.413046 494.994512 
L 792.034751 512.505976 
L 792.656456 459.367126 
L 793.278162 506.851952 
L 793.899867 449.380135 
L 794.521572 512.487654 
L 795.143278 496.836052 
L 795.764983 500.741624 
L 796.386689 360.602263 
L 797.008394 419.98571 
L 797.630099 504.392618 
L 798.251805 462.479612 
L 798.87351 525.609443 
L 799.495215 521.244439 
L 800.116921 496.247539 
L 800.738626 497.495675 
L 801.360332 483.757852 
L 801.982037 500.625193 
L 802.603742 472.527745 
L 803.225448 519.373055 
L 803.847153 480.731792 
L 804.468858 513.108514 
L 805.090564 513.130053 
L 805.712269 467.454351 
L 806.333974 468.100162 
L 806.95568 480.098344 
L 807.577385 478.747309 
L 808.199091 494.973449 
L 808.820796 497.488568 
L 809.442501 520.010702 
L 810.064207 440.00566 
L 810.685912 501.251035 
L 811.307617 484.954291 
L 811.929323 486.863215 
L 812.551028 414.401215 
L 813.172734 536.880637 
L 813.794439 506.230665 
L 814.416144 484.331858 
L 815.03785 504.968948 
L 815.659555 493.104342 
L 816.28126 484.964744 
L 816.902966 588.818603 
L 817.524671 471.204472 
L 818.146377 532.499559 
L 818.768082 472.074209 
L 819.389787 504.371541 
L 820.011493 481.830926 
L 820.633198 522.505136 
L 821.254903 475.590535 
L 823.12002 539.36911 
L 823.741725 474.395647 
L 824.36343 488.794693 
L 824.985136 492.509838 
L 825.606841 491.207741 
L 826.228546 464.367658 
L 826.850252 517.5084 
L 827.471957 491.213838 
L 828.093663 531.870258 
L 828.715368 436.921326 
L 829.337073 503.127083 
L 829.958779 416.846163 
L 830.580484 476.213249 
L 831.202189 493.747418 
L 831.823895 517.463845 
L 832.4456 493.087708 
L 833.067305 462.471881 
L 833.689011 412.461755 
L 834.310716 478.750158 
L 834.932422 392.451468 
L 835.554127 499.385781 
L 836.175832 519.346794 
L 836.797538 496.914271 
L 837.419243 504.35238 
L 838.040948 488.710087 
L 838.662654 521.252453 
L 839.284359 530.035051 
L 839.906065 513.130199 
L 840.52777 499.343927 
L 841.149475 525.611768 
L 841.771181 478.097152 
L 842.392886 518.74503 
L 843.014591 478.751658 
L 843.636297 500.587216 
L 844.258002 478.753157 
L 844.879708 534.406644 
L 845.501413 483.715107 
L 846.123118 500.013098 
L 846.744824 487.459251 
L 847.366529 463.148055 
L 847.988234 498.10065 
L 848.60994 511.248877 
L 849.231645 513.767897 
L 849.853351 504.977052 
L 850.475056 481.847387 
L 851.096761 520.589302 
L 851.718467 495.593967 
L 852.340172 476.230072 
L 852.961877 486.836219 
L 853.583583 393.065171 
L 854.205288 488.744347 
L 854.826994 477.770047 
L 855.448699 499.99935 
L 856.070404 481.266436 
L 856.69211 483.705392 
L 857.313815 519.372034 
L 857.93552 523.111759 
L 858.557226 486.829656 
L 859.178931 500.618248 
L 859.800637 429.950218 
L 860.422342 448.142026 
L 861.044047 453.728991 
L 862.287458 526.909596 
L 862.909163 484.409094 
L 863.530869 409.955185 
L 864.152574 525.005259 
L 864.774279 461.866179 
L 865.395985 502.474235 
L 866.01769 497.543504 
L 866.639396 504.372131 
L 867.261101 519.365906 
L 867.882806 473.079382 
L 868.504512 503.118527 
L 869.126217 489.346672 
L 869.747922 498.725024 
L 870.369628 491.839551 
L 870.991333 359.32 
L 871.613039 494.35798 
L 872.234744 446.236718 
L 872.856449 494.974932 
L 873.478155 475.816662 
L 874.09986 521.250559 
L 874.721565 483.710175 
L 875.343271 536.241978 
L 875.964976 451.828018 
L 876.586682 503.109971 
L 877.208387 496.232126 
L 877.830092 514.380404 
L 878.451798 484.969672 
L 879.073503 520.611605 
L 879.695208 493.083846 
L 880.316914 496.837385 
L 880.938619 495.588332 
L 881.560325 523.724797 
L 882.18203 518.765609 
L 882.803735 498.722953 
L 883.425441 491.231534 
L 884.047146 512.491904 
L 885.290557 523.749961 
L 885.912262 496.843163 
L 886.533968 506.237731 
L 887.155673 511.222616 
L 887.777378 510.005127 
L 888.399084 501.833321 
L 889.020789 486.840992 
L 889.642494 435.632754 
L 890.2642 489.37392 
L 890.885905 533.099375 
L 891.507611 510.613057 
L 892.129316 483.734836 
L 892.751021 518.124595 
L 893.372727 488.712321 
L 893.994432 437.490324 
L 894.616137 490.590058 
L 895.237843 512.490878 
L 895.859548 479.955862 
L 896.481253 513.144265 
L 897.102959 453.700786 
L 897.724664 488.128481 
L 898.34637 488.718578 
L 898.968075 506.221833 
L 899.58978 494.976119 
L 900.211486 488.737049 
L 900.833191 493.75202 
L 901.454896 433.704486 
L 902.076602 559.378424 
L 902.698307 481.870582 
L 903.320013 491.859172 
L 903.941718 430.628733 
L 904.563423 508.774026 
L 905.185129 487.513815 
L 905.806834 477.467536 
L 906.428539 494.370148 
L 907.050245 526.25198 
L 907.67195 506.252452 
L 908.293656 515.606329 
L 908.915361 514.399435 
L 909.537066 507.483391 
L 910.158772 522.473254 
L 910.780477 497.487827 
L 911.402182 494.345811 
L 912.023888 487.458953 
L 913.267299 501.245422 
L 913.889004 493.742519 
L 914.510709 527.468531 
L 915.132415 491.844605 
L 915.75412 527.514812 
L 916.375825 524.349332 
L 916.997531 526.88739 
L 917.619236 523.715633 
L 918.240942 518.742548 
L 918.862647 494.350411 
L 919.484352 497.474055 
L 920.106058 499.354724 
L 920.727763 531.884433 
L 921.349468 514.960729 
L 921.971174 548.735027 
L 922.592879 507.494716 
L 923.214584 515.618177 
L 923.83629 534.994211 
L 924.457995 493.757067 
L 925.079701 525.623825 
L 925.701406 516.21185 
L 926.323111 476.834162 
L 926.944817 466.200633 
L 927.566522 483.703449 
L 928.188227 509.9809 
L 928.809933 491.841037 
L 929.431638 518.129267 
L 930.053344 474.372637 
L 930.675049 493.088302 
L 931.296754 473.770553 
L 932.540165 508.087919 
L 933.16187 487.562263 
L 933.783576 506.855042 
L 934.405281 516.877453 
L 935.026987 494.364954 
L 935.648692 518.720947 
L 936.270397 519.999036 
L 936.892103 482.469809 
L 937.513808 509.994261 
L 938.135513 494.334236 
L 938.757219 482.466967 
L 939.378924 508.734054 
L 940.00063 526.257934 
L 940.622335 488.087053 
L 941.24404 523.132422 
L 941.865746 510.615552 
L 942.487451 509.376058 
L 943.109156 488.717237 
L 943.730862 527.494066 
L 944.352567 485.593743 
L 944.974273 399.339902 
L 945.595978 374.312841 
L 946.217683 508.121881 
L 946.839389 496.873237 
L 947.461094 419.960154 
L 948.082799 388.717464 
L 948.704505 503.117199 
L 949.32621 483.085055 
L 949.947916 498.723693 
L 950.569621 498.169477 
L 951.191326 492.465561 
L 951.813032 546.8813 
L 952.434737 509.400589 
L 953.056442 489.972978 
L 953.678148 483.71152 
L 954.299853 534.395382 
L 954.921558 524.969216 
L 955.543264 377.45573 
L 956.164969 536.244429 
L 956.786675 519.348399 
L 957.40838 467.097626 
L 959.273496 525.623099 
L 959.895201 514.370742 
L 960.516907 493.737323 
L 961.138612 508.109237 
L 961.760318 512.497328 
L 962.382023 489.34965 
L 963.003728 515.048965 
L 963.625434 479.970996 
L 964.247139 500.5816 
L 964.868844 493.714757 
L 965.49055 465.847909 
L 966.112255 445.606248 
L 966.733961 503.723875 
L 967.355666 498.11264 
L 967.977371 439.3287 
L 968.599077 481.252813 
L 969.220782 462.495982 
L 969.842487 439.980124 
L 970.464193 498.726652 
L 971.085898 505.64178 
L 971.707604 502.49283 
L 972.329309 535.59869 
L 972.951014 501.235969 
L 973.57272 498.734346 
L 974.81613 518.121675 
L 975.437836 497.470798 
L 976.059541 471.895875 
L 976.681247 513.105144 
L 977.302952 464.95735 
L 977.924657 519.353505 
L 978.546363 486.856205 
L 979.168068 531.840172 
L 979.789773 489.987712 
L 980.411479 534.363038 
L 981.033184 481.258053 
L 981.654889 549.386576 
L 982.276595 506.225807 
L 982.8983 506.225219 
L 983.520006 524.971105 
L 984.141711 480.591917 
L 984.763416 521.247207 
L 985.385122 483.244581 
L 986.006827 536.227124 
L 986.628532 530.645231 
L 987.250238 504.355328 
L 987.871943 521.858332 
L 988.493649 496.84657 
L 989.115354 538.116875 
L 989.737059 478.711769 
L 990.358765 471.837727 
L 990.98047 484.973854 
L 991.602175 522.468304 
L 992.223881 518.713503 
L 992.845586 434.948703 
L 993.467292 506.887413 
L 994.088997 494.338094 
L 994.710702 527.564717 
L 995.332408 540.61329 
L 996.575818 488.744496 
L 997.197524 517.511468 
L 997.819229 529.381851 
L 998.440935 511.209559 
L 999.06264 526.853862 
L 999.684345 495.03011 
L 1000.306051 478.0823 
L 1000.927756 533.128712 
L 1001.549461 481.260448 
L 1002.171167 495.603753 
L 1002.792872 506.239056 
L 1003.414578 493.707928 
L 1004.036283 519.342125 
L 1004.657988 472.473687 
L 1005.279694 498.126554 
L 1005.901399 506.852099 
L 1006.523104 476.95217 
L 1007.766515 508.766825 
L 1008.388221 558.749058 
L 1009.009926 527.486957 
L 1009.631631 535.598257 
L 1010.875042 495.611759 
L 1011.496747 526.225698 
L 1012.118453 511.895098 
L 1012.740158 430.59066 
L 1013.361863 619.450493 
L 1013.983569 511.256212 
L 1014.605274 488.090034 
L 1015.22698 558.118695 
L 1015.848685 494.968257 
L 1016.47039 515.588484 
L 1017.092096 496.870274 
L 1017.713801 514.339706 
L 1018.335506 495.595005 
L 1018.957212 527.477526 
L 1019.578917 501.224005 
L 1020.200623 506.23464 
L 1020.822328 494.336165 
L 1021.444033 462.529784 
L 1022.065739 520.591635 
L 1022.687444 480.674587 
L 1023.309149 477.47429 
L 1023.930855 418.075137 
L 1025.174266 505.598336 
L 1025.795971 504.964086 
L 1026.417676 538.74616 
L 1027.039382 519.344022 
L 1027.661087 512.48824 
L 1028.282792 486.847405 
L 1029.526203 501.849858 
L 1030.147909 488.710087 
L 1030.769614 478.746259 
L 1032.013025 518.748679 
L 1032.63473 488.70681 
L 1033.256435 544.363962 
L 1033.878141 527.009443 
L 1034.499846 504.977199 
L 1035.121552 522.508776 
L 1035.743257 516.248256 
L 1036.364962 512.479445 
L 1036.986668 499.960322 
L 1037.608373 516.226617 
L 1038.230078 483.088345 
L 1038.851784 503.094776 
L 1039.473489 489.965238 
L 1040.095195 508.088066 
L 1040.7169 476.833411 
L 1041.338605 482.456795 
L 1041.960311 498.711116 
L 1042.582016 499.372027 
L 1043.203721 493.086371 
L 1043.825427 493.713421 
L 1044.447132 506.866519 
L 1045.068837 466.861274 
L 1045.690543 484.975198 
L 1046.312248 498.120337 
L 1046.933954 501.217358 
L 1047.555659 514.997898 
L 1048.177364 508.744488 
L 1048.79907 504.357539 
L 1049.420775 502.47453 
L 1050.04248 501.844247 
L 1050.664186 550.002395 
L 1051.285891 489.334313 
L 1051.907597 497.476869 
L 1052.529302 508.096005 
L 1053.151007 486.204982 
L 1053.772713 493.713421 
L 1054.394418 516.843548 
L 1055.016123 560.018139 
L 1055.637829 493.750535 
L 1056.259534 521.210634 
L 1056.88124 489.335356 
L 1057.502945 429.32386 
L 1058.746356 487.459251 
L 1059.368061 486.857994 
L 1059.989766 527.474189 
L 1060.611472 473.790864 
L 1061.233177 478.120105 
L 1061.854883 494.974932 
L 1062.476588 536.264762 
L 1063.098293 464.382948 
L 1064.341704 476.837015 
L 1065.585115 511.848026 
L 1066.20682 479.334039 
L 1066.828526 472.459381 
L 1067.450231 523.09968 
L 1068.071936 487.510237 
L 1068.693642 646.248272 
L 1069.315347 546.252329 
L 1069.937052 533.745872 
L 1070.558758 504.341472 
L 1071.180463 521.261195 
L 1071.802168 544.367833 
L 1073.045579 488.732282 
L 1073.667285 486.219306 
L 1074.28899 485.584637 
L 1074.910695 511.241981 
L 1075.532401 483.093578 
L 1076.154106 466.238586 
L 1076.775811 516.214774 
L 1077.397517 651.242831 
L 1078.019222 607.487238 
L 1078.640928 518.102984 
L 1079.262633 523.732215 
L 1079.884338 495.585515 
L 1080.506044 524.338572 
L 1081.127749 542.495949 
L 1081.749454 514.984289 
L 1082.37116 480.595811 
L 1083.614571 492.456497 
L 1084.236276 520.59178 
L 1084.857981 559.367356 
L 1085.479687 522.464519 
L 1086.101392 575.599356 
L 1086.723097 541.852166 
L 1087.344803 467.456164 
L 1087.966508 518.091594 
L 1088.588214 538.14107 
L 1089.209919 543.731533 
L 1089.831624 556.253459 
L 1090.45333 529.980885 
L 1091.075035 536.859015 
L 1091.69674 466.215451 
L 1092.318446 508.151284 
L 1092.940151 498.775033 
L 1093.561857 424.364703 
L 1094.183562 508.722739 
L 1094.805267 427.452223 
L 1095.426973 506.224777 
L 1096.048678 491.842227 
L 1096.670383 452.503032 
L 1097.292089 461.326479 
L 1097.913794 476.248547 
L 1098.5355 524.35413 
L 1099.157205 454.328345 
L 1099.77891 534.369536 
L 1100.400616 511.86181 
L 1101.022321 484.337236 
L 1101.644026 486.834728 
L 1102.265732 517.472903 
L 1102.887437 487.458058 
L 1103.509142 544.97732 
L 1104.130848 523.782542 
L 1104.752553 510.606012 
L 1105.374259 514.397678 
L 1106.617669 479.965901 
L 1107.239375 513.735823 
L 1109.104491 500.008663 
L 1109.726196 471.875841 
L 1110.347902 518.113059 
L 1110.969607 464.335713 
L 1111.591312 509.349764 
L 1112.213018 520.001077 
L 1112.834723 486.235123 
L 1113.456428 510.035373 
L 1114.078134 495.60227 
L 1114.699839 436.236416 
L 1115.321545 496.218935 
L 1115.94325 519.393188 
L 1116.564955 509.364601 
L 1117.186661 438.061064 
L 1117.808366 489.975359 
L 1118.430071 529.977843 
L 1119.051777 459.336443 
L 1119.673482 511.224963 
L 1120.295188 506.233168 
L 1120.916893 528.119029 
L 1121.538598 517.48605 
L 1122.160304 526.85212 
L 1122.782009 480.006955 
L 1123.403714 532.478595 
L 1124.02542 520.632596 
L 1124.647125 525.638061 
L 1125.268831 498.103315 
L 1127.133947 515.641287 
L 1127.755652 518.097435 
L 1128.377357 462.491132 
L 1130.864179 563.745542 
L 1131.485884 473.104218 
L 1132.10759 510.642117 
L 1132.729295 493.121274 
L 1133.351 523.754179 
L 1133.972706 506.236112 
L 1135.216116 491.835389 
L 1135.837822 543.768545 
L 1136.459527 479.331041 
L 1137.702938 605.023159 
L 1138.324643 516.251033 
L 1138.946349 515.619639 
L 1139.568054 494.970927 
L 1140.189759 504.363434 
L 1140.811465 436.233178 
L 1141.43317 536.253947 
L 1142.054876 495.647047 
L 1143.298286 467.459035 
L 1143.919992 474.351883 
L 1144.541697 502.479695 
L 1145.163402 418.775893 
L 1147.028519 523.100554 
L 1147.650224 544.362528 
L 1148.893635 511.285112 
L 1150.137045 501.877024 
L 1150.758751 508.724208 
L 1151.380456 484.33888 
L 1152.002162 492.464521 
L 1152.623867 519.960244 
L 1153.245572 503.7398 
L 1153.867278 498.722657 
L 1154.488983 503.725644 
L 1155.110688 519.369407 
L 1155.732394 556.238954 
L 1156.354099 539.966747 
L 1157.59751 534.987428 
L 1158.840921 489.958689 
L 1159.462626 483.712417 
L 1160.084331 501.225334 
L 1160.706037 515.593457 
L 1161.327742 543.12608 
L 1161.949447 519.996119 
L 1162.571153 515.617153 
L 1163.192858 568.104534 
L 1163.814564 518.087068 
L 1164.436269 522.47602 
L 1165.057974 474.99774 
L 1166.301385 496.864348 
L 1167.544796 539.344504 
L 1168.166501 471.218789 
L 1168.788207 508.109384 
L 1169.409912 495.000593 
L 1170.031617 510.636247 
L 1170.653323 491.228858 
L 1171.896733 484.332007 
L 1172.518439 501.858421 
L 1173.140144 487.454927 
L 1173.76185 479.972194 
L 1174.383555 537.500698 
L 1175.00526 506.248036 
L 1175.626966 529.351279 
L 1176.248671 491.208038 
L 1176.870376 495.59797 
L 1177.492082 533.746594 
L 1178.113787 486.207668 
L 1178.735493 529.341571 
L 1179.357198 494.368367 
L 1179.978903 507.502952 
L 1180.600609 525.000753 
L 1181.222314 468.176122 
L 1182.465725 524.382918 
L 1183.08743 497.515962 
L 1183.709136 455.595944 
L 1184.330841 494.338094 
L 1184.952546 516.272818 
L 1185.574252 485.581502 
L 1186.195957 468.731916 
L 1186.817662 510.024214 
L 1187.439368 486.230945 
L 1188.061073 543.1024 
L 1188.682778 550.630071 
L 1189.304484 521.894306 
L 1189.926189 518.71467 
L 1190.547895 505.610854 
L 1191.1696 516.213019 
L 1191.791305 462.459451 
L 1193.034716 531.231982 
L 1194.278127 518.132918 
L 1194.899832 533.163829 
L 1195.521538 551.874719 
L 1196.143243 496.864052 
L 1196.764948 519.963307 
L 1197.386654 505.605405 
L 1198.008359 505.598484 
L 1198.630064 487.484744 
L 1199.25177 508.726413 
L 1199.873475 666.327032 
L 1200.495181 479.331191 
L 1201.116886 476.831459 
L 1201.738591 490.61282 
L 1202.360297 507.492216 
L 1202.982002 532.482788 
L 1203.603707 500.669374 
L 1204.225413 519.959223 
L 1204.847118 523.751706 
L 1205.468824 515.613789 
L 1206.090529 464.358726 
L 1206.712234 543.769262 
L 1207.33394 531.235889 
L 1207.955645 523.780215 
L 1208.57735 538.773223 
L 1209.199056 529.345483 
L 1209.820761 561.24595 
L 1210.442467 543.727803 
L 1211.064172 496.838422 
L 1211.685877 520.020181 
L 1212.307583 529.965967 
L 1212.929288 501.20879 
L 1214.172699 534.381665 
L 1214.794404 520.735354 
L 1215.41611 639.397569 
L 1216.037815 539.370405 
L 1216.65952 510.611883 
L 1217.281226 514.378648 
L 1217.902931 539.984151 
L 1218.524636 483.735433 
L 1219.146342 479.98508 
L 1221.011458 546.869133 
L 1221.633163 506.216533 
L 1222.254869 531.214616 
L 1222.876574 498.093397 
L 1223.498279 482.098303 
L 1224.119985 503.715617 
L 1224.74169 529.382866 
L 1225.363395 490.663846 
L 1225.985101 491.86928 
L 1226.606806 557.497563 
L 1227.228512 551.229489 
L 1227.850217 521.214569 
L 1229.093628 501.908619 
L 1229.715333 563.760253 
L 1230.337038 493.729751 
L 1230.958744 504.366677 
L 1231.580449 524.96442 
L 1232.202155 530.01492 
L 1232.82386 514.995117 
L 1233.445565 515.602672 
L 1234.067271 481.832572 
L 1234.688976 519.399753 
L 1235.932387 538.098441 
L 1237.175798 506.866814 
L 1237.797503 541.874287 
L 1238.419208 485.589414 
L 1240.284324 507.474713 
L 1241.527735 541.243288 
L 1242.149441 526.247334 
L 1242.771146 491.842524 
L 1243.392851 555.623942 
L 1246.501378 553.122369 
L 1247.123084 506.860045 
L 1247.744789 496.856793 
L 1248.366494 525.597095 
L 1250.23161 518.727223 
L 1251.475021 444.329955 
L 1252.718432 534.977469 
L 1253.340137 516.837117 
L 1253.961843 488.105532 
L 1254.583548 514.968338 
L 1255.205253 534.988871 
L 1255.826959 539.350979 
L 1257.692075 536.235921 
L 1258.935486 524.999881 
L 1259.557191 526.261273 
L 1260.178896 510.619222 
L 1261.422307 476.20739 
L 1262.044012 489.337291 
L 1262.665718 545.626793 
L 1263.909129 502.501537 
L 1264.530834 528.721524 
L 1265.152539 514.367815 
L 1265.774245 504.988396 
L 1267.639361 518.721968 
L 1268.261066 524.348168 
L 1270.126182 523.715633 
L 1271.369593 501.225039 
L 1273.234709 548.12493 
L 1273.856415 773.794112 
L 1274.47812 546.238438 
L 1275.099825 573.829191 
L 1275.721531 482.466518 
L 1276.964941 521.841583 
L 1277.586647 525.591575 
L 1278.208352 539.989041 
L 1278.830057 503.732132 
L 1279.451763 540.638162 
L 1280.695174 510.030528 
L 1281.316879 533.716835 
L 1281.938584 562.513726 
L 1282.56029 583.727462 
L 1283.181995 456.240235 
L 1283.8037 498.081407 
L 1284.425406 516.849686 
L 1285.047111 426.195467 
L 1285.668817 531.247031 
L 1286.290522 478.090701 
L 1286.912227 500.626523 
L 1287.533933 505.605258 
L 1288.777343 506.849598 
L 1290.64246 439.951511 
L 1291.264165 512.527669 
L 1291.88587 488.712172 
L 1293.129281 493.704958 
L 1293.750986 510.612324 
L 1294.994397 473.075469 
L 1296.237808 527.510895 
L 1298.724629 556.87487 
L 1299.346335 561.234755 
L 1300.589746 549.388291 
L 1301.833156 507.462652 
L 1302.454862 474.400459 
L 1303.076567 489.969257 
L 1304.941683 506.246858 
L 1305.563389 515.585851 
L 1307.428505 528.754429 
L 1308.05021 565.602367 
L 1309.915326 493.716539 
L 1311.158737 531.859988 
L 1311.780442 534.381376 
L 1313.023853 526.859958 
L 1314.888969 545.667623 
L 1316.13238 494.365696 
L 1316.754085 514.339853 
L 1317.375791 492.558272 
L 1318.619201 567.49169 
L 1319.240907 514.363569 
L 1320.484317 502.471873 
L 1321.727728 527.498853 
L 1322.349434 518.729704 
L 1322.971139 505.610707 
L 1326.701371 511.223643 
L 1327.944782 528.721524 
L 1329.188193 541.253348 
L 1329.809898 564.992229 
L 1331.675014 531.848127 
L 1332.918425 524.347587 
L 1333.54013 547.49553 
L 1334.161836 579.346864 
L 1334.783541 456.867165 
L 1337.892068 512.507442 
L 1341.000595 525.621065 
L 1342.865711 666.363765 
L 1344.109122 491.222463 
L 1344.730827 518.723136 
L 1345.352532 518.717444 
L 1347.217648 542.508871 
L 1349.70447 543.102256 
L 1352.812997 475.059223 
L 1354.678113 518.726785 
L 1355.299818 542.492216 
L 1355.921524 501.876434 
L 1357.164934 528.092635 
L 1358.408345 503.139179 
L 1359.030051 513.856159 
L 1361.516872 542.50643 
L 1362.138577 538.741842 
L 1365.247104 533.753528 
L 1365.86881 526.846895 
L 1367.733926 496.255098 
L 1368.355631 525.012089 
L 1370.220747 527.515537 
L 1372.085863 549.398007 
L 1373.950979 513.743292 
L 1380.789739 539.461484 
L 1382.033149 493.75677 
L 1383.898265 565.64277 
L 1386.385087 484.330663 
L 1387.006792 497.513297 
L 1388.250203 501.928992 
L 1390.115319 527.482024 
L 1391.35873 561.859445 
L 1391.980435 556.878708 
L 1392.602141 540.62206 
L 1395.710667 817.60993 
L 1396.954078 580.606054 
L 1398.197489 525.593318 
L 1398.819194 517.467351 
L 1402.549427 527.513796 
L 1406.279659 523.717524 
L 1406.901364 517.463553 
L 1407.52307 631.897397 
L 1410.631596 555.009651 
L 1411.875007 1898.983962 
L 1412.496713 528.131935 
L 1413.740123 1972.12 
L 1414.361829 573.13063 
L 1414.983534 519.990286 
L 1416.226945 1895.855715 
L 1417.470356 1964.619233 
L 1419.335472 1954.615919 
L 1420.578882 1964.619237 
L 1421.822293 518.091594 
L 1425.552525 533.734026 
L 1427.417641 528.773708 
L 1428.039347 506.865784 
L 1429.282758 506.243031 
L 1429.904463 545.00957 
L 1431.147874 514.338828 
L 1432.391284 504.35857 
L 1433.01299 1940.864876 
L 1433.634695 636.873946 
L 1434.256401 501.235674 
L 1435.499811 488.712768 
L 1437.986633 491.22856 
L 1438.608338 499.355759 
L 1439.230044 514.337657 
L 1439.851749 558.128636 
L 1440.473454 496.846719 
L 1441.09516 494.971372 
L 1442.960276 544.387335 
L 1443.581981 491.85174 
L 1444.203687 534.368814 
L 1445.447097 527.497257 
L 1446.068803 1969.619734 
L 1447.312213 561.245667 
L 1448.555624 1962.117624 
L 1450.42074 605.670634 
L 1451.042446 523.125001 
L 1452.285856 494.995253 
L 1452.907562 528.743268 
L 1454.150973 486.936291 
L 1454.772678 531.233429 
L 1455.394383 498.724137 
L 1456.016089 513.107049 
L 1456.637794 506.228016 
L 1457.259499 1964.619226 
L 1457.881205 493.725743 
L 1458.50291 539.388104 
L 1459.746321 557.490316 
L 1460.989732 549.381004 
L 1461.611437 528.71848 
L 1462.233142 496.21938 
L 1462.854848 497.486494 
L 1463.476553 1912.109641 
L 1464.098258 1893.356352 
L 1464.719964 508.714803 
L 1466.58508 1045.080532 
L 1467.206785 554.993995 
L 1467.828491 406.199617 
L 1469.071901 546.25505 
L 1469.693607 511.86489 
L 1470.315312 549.39515 
L 1470.937018 504.355328 
L 1472.180428 525.614818 
L 1472.802134 486.845019 
L 1473.423839 527.517423 
L 1474.045544 434.978798 
L 1475.288955 497.494491 
L 1475.910661 510.60748 
L 1477.154071 496.845978 
L 1479.019187 453.718776 
L 1479.640893 511.254598 
L 1480.262598 493.732127 
L 1480.884304 486.837711 
L 1482.127714 1969.619724 
L 1483.99283 1955.243425 
L 1484.614536 510.002778 
L 1490.831589 561.85208 
L 1492.075 486.204833 
L 1492.696706 465.625279 
L 1493.318411 513.740217 
L 1495.805232 503.735966 
L 1502.022286 535.607634 
L 1505.130813 530.00232 
L 1511.347867 511.860491 
L 1517.56492 569.379426 
L 1520.051742 535.599122 
L 1520.673447 513.092544 
L 1531.242439 546.247174 
L 1535.594376 541.866674 
L 1542.433135 520.003119 
L 1544.298251 523.718978 
L 1549.271894 519.347231 
L 1551.137011 550.614795 
L 1562.327707 458.140936 
L 1567.30135 533.107179 
L 1570.409877 484.325135 
L 1574.140109 481.847387 
L 1577.248636 531.255569 
L 1580.978868 483.826746 
L 1584.087395 523.715487 
L 1585.952511 498.712152 
L 1587.817628 536.260292 
L 1595.278092 494.337501 
L 1599.63003 546.869276 
L 1602.738557 656.241139 
L 1603.981967 545.622925 
L 1605.225378 515.638361 
L 1606.468789 514.365619 
L 1609.577316 503.120887 
L 1610.199021 515.617738 
L 1610.820726 468.131725 
L 1629.471888 541.928008 
L 1633.20212 536.876889 
L 1635.688941 459.970215 
L 1637.554057 540.592587 
L 1640.040879 502.471283 
L 1640.662584 528.734425 
L 1641.28429 543.741719 
L 1641.905995 525.587507 
L 1645.014522 541.251911 
L 1645.636227 521.839835 
L 1649.988165 529.999713 
L 1650.60987 509.984717 
L 1656.205219 529.34215 
L 1663.043978 546.873427 
L 1676.09979 509.345064 
L 1676.721496 504.979114 
L 1677.964907 526.846169 
L 1678.586612 485.604043 
L 1679.208317 522.462626 
L 1681.073433 516.8719 
L 1682.93855 531.237625 
L 1684.18196 512.501725 
L 1685.425371 509.36225 
L 1686.047076 543.118618 
L 1687.912193 484.352325 
L 1688.533898 516.873946 
L 1689.777309 524.385098 
L 1692.26413 528.71616 
L 1693.507541 514.342781 
L 1696.616068 523.720287 
L 1697.237773 532.484956 
L 1698.481184 495.595894 
L 1699.102889 544.998247 
L 1699.724595 419.324906 
L 1700.3463 492.462143 
L 1702.211416 548.102905 
L 1704.076532 554.362619 
L 1704.698238 521.233511 
L 1705.319943 515.593311 
L 1707.185059 552.531906 
L 1708.42847 511.211319 
L 1710.293586 543.121918 
L 1710.915291 545.619916 
L 1711.536997 498.128626 
L 1714.023818 561.270465 
L 1717.132345 498.729611 
L 1720.240872 516.869123 
L 1745.109087 497.475684 
L 1748.217614 508.120264 
L 1748.217614 508.120264 
" style="fill:none;stroke:#0000ff;stroke-linecap:square;stroke-width:1.5;"/>
   </g>
   <g id="patch_3">
    <path d="M 43.78125 2052.76 
L 43.78125 278.68 
" style="fill:none;stroke:#000000;stroke-linecap:square;stroke-linejoin:miter;stroke-width:0.8;"/>
   </g>
   <g id="patch_4">
    <path d="M 1829.38125 2052.76 
L 1829.38125 278.68 
" style="fill:none;stroke:#000000;stroke-linecap:square;stroke-linejoin:miter;stroke-width:0.8;"/>
   </g>
   <g id="patch_5">
    <path d="M 43.78125 2052.76 
L 1829.38125 2052.76 
" style="fill:none;stroke:#000000;stroke-linecap:square;stroke-linejoin:miter;stroke-width:0.8;"/>
   </g>
   <g id="patch_6">
    <path d="M 43.78125 278.68 
L 1829.38125 278.68 
" style="fill:none;stroke:#000000;stroke-linecap:square;stroke-linejoin:miter;stroke-width:0.8;"/>
   </g>
   <g id="text_18">
    <text style="font-family:DejaVu Sans;font-size:12px;font-stretch:normal;font-style:normal;font-weight:normal;text-anchor:middle;" transform="rotate(-0, 936.58125, 272.68)" x="936.58125" y="272.68">temperature-&gt;Throughput</text>
   </g>
  </g>
  <g id="legend_1">
   <g id="patch_7">
    <path d="M 1934.960937 22.678125 
L 2054.98125 22.678125 
Q 2056.98125 22.678125 2056.98125 20.678125 
L 2056.98125 7 
Q 2056.98125 5 2054.98125 5 
L 1934.960937 5 
Q 1932.960937 5 1932.960937 7 
L 1932.960937 20.678125 
Q 1932.960937 22.678125 1934.960937 22.678125 
z
" style="fill:#ffffff;opacity:0.8;stroke:#cccccc;stroke-linejoin:miter;"/>
   </g>
   <g id="line2d_16">
    <path d="M 1936.960937 13.098437 
L 1956.960937 13.098437 
" style="fill:none;stroke:#0000ff;stroke-linecap:square;stroke-width:1.5;"/>
   </g>
   <g id="line2d_17"/>
   <g id="text_19">
    <text style="font-family:DejaVu Sans;font-size:10px;font-stretch:normal;font-style:normal;font-weight:normal;text-anchor:start;" transform="rotate(-0, 1964.960937, 16.598437)" x="1964.960937" y="16.598437">Throughput[Bit/s]</text>
   </g>
  </g>
 </g>
 <defs>
  <clipPath id="p2ef91e089b">
   <rect height="1774.08" width="1785.6" x="43.78125" y="278.68"/>
  </clipPath>
 </defs>
</svg>
