<?xml version="1.0" encoding="utf-8" standalone="no"?>
<!DOCTYPE svg PUBLIC "-//W3C//DTD SVG 1.1//EN"
  "http://www.w3.org/Graphics/SVG/1.1/DTD/svg11.dtd">
<!-- Created with matplotlib (https://matplotlib.org/) -->
<svg height="2090.594375pt" version="1.1" viewBox="0 0 2061.98125 2090.594375" width="2061.98125pt" xmlns="http://www.w3.org/2000/svg" xmlns:xlink="http://www.w3.org/1999/xlink">
 <metadata>
  <rdf:RDF xmlns:cc="http://creativecommons.org/ns#" xmlns:dc="http://purl.org/dc/elements/1.1/" xmlns:rdf="http://www.w3.org/1999/02/22-rdf-syntax-ns#">
   <cc:Work>
    <dc:type rdf:resource="http://purl.org/dc/dcmitype/StillImage"/>
    <dc:date>2022-07-23T21:19:20.913525</dc:date>
    <dc:format>image/svg+xml</dc:format>
    <dc:creator>
     <cc:Agent>
      <dc:title>Matplotlib v3.3.2, https://matplotlib.org/</dc:title>
     </cc:Agent>
    </dc:creator>
   </cc:Work>
  </rdf:RDF>
 </metadata>
 <defs>
  <style type="text/css">*{stroke-linecap:butt;stroke-linejoin:round;}</style>
 </defs>
 <g id="figure_1">
  <g id="patch_1">
   <path d="M 0 2090.594375 
L 2061.98125 2090.594375 
L 2061.98125 0 
L 0 0 
z
" style="fill:#ffffff;"/>
  </g>
  <g id="axes_1">
   <g id="patch_2">
    <path d="M 43.78125 2052.76 
L 1829.38125 2052.76 
L 1829.38125 278.68 
L 43.78125 278.68 
z
" style="fill:#ffffff;"/>
   </g>
   <g id="matplotlib.axis_1">
    <g id="xtick_1">
     <g id="line2d_1">
      <defs>
       <path d="M 0 0 
L 0 3.5 
" id="m5cd4ddc6d0" style="stroke:#000000;stroke-width:0.8;"/>
      </defs>
      <g>
       <use style="stroke:#000000;stroke-width:0.8;" x="410.520644" xlink:href="#m5cd4ddc6d0" y="2052.76"/>
      </g>
     </g>
     <g id="text_1">
      <text style="font-family:DejaVu Sans;font-size:10px;font-stretch:normal;font-style:normal;font-weight:normal;text-anchor:middle;" transform="rotate(-0, 410.520644, 2067.358437)" x="410.520644" y="2067.358437">1010</text>
     </g>
    </g>
    <g id="xtick_2">
     <g id="line2d_2">
      <g>
       <use style="stroke:#000000;stroke-width:0.8;" x="786.27822" xlink:href="#m5cd4ddc6d0" y="2052.76"/>
      </g>
     </g>
     <g id="text_2">
      <text style="font-family:DejaVu Sans;font-size:10px;font-stretch:normal;font-style:normal;font-weight:normal;text-anchor:middle;" transform="rotate(-0, 786.27822, 2067.358437)" x="786.27822" y="2067.358437">1015</text>
     </g>
    </g>
    <g id="xtick_3">
     <g id="line2d_3">
      <g>
       <use style="stroke:#000000;stroke-width:0.8;" x="1162.035795" xlink:href="#m5cd4ddc6d0" y="2052.76"/>
      </g>
     </g>
     <g id="text_3">
      <text style="font-family:DejaVu Sans;font-size:10px;font-stretch:normal;font-style:normal;font-weight:normal;text-anchor:middle;" transform="rotate(-0, 1162.035795, 2067.358437)" x="1162.035795" y="2067.358437">1020</text>
     </g>
    </g>
    <g id="xtick_4">
     <g id="line2d_4">
      <g>
       <use style="stroke:#000000;stroke-width:0.8;" x="1537.793371" xlink:href="#m5cd4ddc6d0" y="2052.76"/>
      </g>
     </g>
     <g id="text_4">
      <text style="font-family:DejaVu Sans;font-size:10px;font-stretch:normal;font-style:normal;font-weight:normal;text-anchor:middle;" transform="rotate(-0, 1537.793371, 2067.358437)" x="1537.793371" y="2067.358437">1025</text>
     </g>
    </g>
    <g id="text_5">
     <text style="font-family:DejaVu Sans;font-size:10px;font-stretch:normal;font-style:normal;font-weight:normal;text-anchor:middle;" transform="rotate(-0, 936.58125, 2081.036562)" x="936.58125" y="2081.036562">air_pressure from Aeris</text>
    </g>
   </g>
   <g id="matplotlib.axis_2">
    <g id="ytick_1">
     <g id="line2d_5">
      <defs>
       <path d="M 0 0 
L -3.5 0 
" id="mbb4dfd2928" style="stroke:#000000;stroke-width:0.8;"/>
      </defs>
      <g>
       <use style="stroke:#000000;stroke-width:0.8;" x="43.78125" xlink:href="#mbb4dfd2928" y="1935.025186"/>
      </g>
     </g>
     <g id="text_6">
      <text style="font-family:DejaVu Sans;font-size:10px;font-stretch:normal;font-style:normal;font-weight:normal;text-anchor:end;" transform="rotate(-0, 36.78125, 1938.824405)" x="36.78125" y="1938.824405">1.1</text>
     </g>
    </g>
    <g id="ytick_2">
     <g id="line2d_6">
      <g>
       <use style="stroke:#000000;stroke-width:0.8;" x="43.78125" xlink:href="#mbb4dfd2928" y="1541.175885"/>
      </g>
     </g>
     <g id="text_7">
      <text style="font-family:DejaVu Sans;font-size:10px;font-stretch:normal;font-style:normal;font-weight:normal;text-anchor:end;" transform="rotate(-0, 36.78125, 1544.975103)" x="36.78125" y="1544.975103">1.2</text>
     </g>
    </g>
    <g id="ytick_3">
     <g id="line2d_7">
      <g>
       <use style="stroke:#000000;stroke-width:0.8;" x="43.78125" xlink:href="#mbb4dfd2928" y="1147.326583"/>
      </g>
     </g>
     <g id="text_8">
      <text style="font-family:DejaVu Sans;font-size:10px;font-stretch:normal;font-style:normal;font-weight:normal;text-anchor:end;" transform="rotate(-0, 36.78125, 1151.125802)" x="36.78125" y="1151.125802">1.3</text>
     </g>
    </g>
    <g id="ytick_4">
     <g id="line2d_8">
      <g>
       <use style="stroke:#000000;stroke-width:0.8;" x="43.78125" xlink:href="#mbb4dfd2928" y="753.477281"/>
      </g>
     </g>
     <g id="text_9">
      <text style="font-family:DejaVu Sans;font-size:10px;font-stretch:normal;font-style:normal;font-weight:normal;text-anchor:end;" transform="rotate(-0, 36.78125, 757.2765)" x="36.78125" y="757.2765">1.4</text>
     </g>
    </g>
    <g id="ytick_5">
     <g id="line2d_9">
      <g>
       <use style="stroke:#000000;stroke-width:0.8;" x="43.78125" xlink:href="#mbb4dfd2928" y="359.62798"/>
      </g>
     </g>
     <g id="text_10">
      <text style="font-family:DejaVu Sans;font-size:10px;font-stretch:normal;font-style:normal;font-weight:normal;text-anchor:end;" transform="rotate(-0, 36.78125, 363.427199)" x="36.78125" y="363.427199">1.5</text>
     </g>
    </g>
    <g id="text_11">
     <text style="font-family:DejaVu Sans;font-size:10px;font-stretch:normal;font-style:normal;font-weight:normal;text-anchor:middle;" transform="rotate(-90, 14.798437, 1165.72)" x="14.798437" y="1165.72">Throughput[Bit/s]</text>
    </g>
    <g id="text_12">
     <text style="font-family:DejaVu Sans;font-size:10px;font-stretch:normal;font-style:normal;font-weight:normal;text-anchor:start;" transform="rotate(-0, 43.78125, 275.68)" x="43.78125" y="275.68">1e7</text>
    </g>
   </g>
   <g id="line2d_10">
    <path clip-path="url(#p4d4213140e)" d="M 124.944886 733.445207 
L 139.975189 1917.327 
L 147.490341 840.591279 
L 162.520644 813.234788 
L 170.035795 922.848824 
L 177.550947 681.038252 
L 192.58125 909.142652 
L 200.096402 539.757669 
L 215.126705 466.593739 
L 222.641856 1041.584022 
L 237.672159 834.426486 
L 245.187311 827.286463 
L 260.217614 414.030097 
L 267.732765 505.355881 
L 275.247917 363.999082 
L 290.27822 744.895935 
L 297.793371 546.351274 
L 312.823674 826.910564 
L 320.338826 1972.12 
L 342.88428 788.138748 
L 350.399432 592.06989 
L 357.914583 833.781616 
L 365.429735 425.498755 
L 372.944886 639.953752 
L 387.975189 913.590755 
L 395.490341 808.857061 
L 410.520644 925.125074 
L 418.035795 719.925644 
L 425.550947 482.458876 
L 440.58125 569.237655 
L 448.096402 815.780291 
L 463.126705 728.907397 
L 470.641856 925.240459 
L 493.187311 630.78605 
L 500.702462 735.757825 
L 515.732765 578.282789 
L 538.27822 655.923526 
L 545.793371 897.72336 
L 560.823674 435.145075 
L 568.338826 692.337101 
L 575.853977 856.625104 
L 590.88428 528.240153 
L 598.399432 749.474629 
L 613.429735 443.702626 
L 620.944886 870.395286 
L 635.975189 836.058917 
L 643.490341 674.210716 
L 666.035795 553.238592 
L 673.550947 890.834445 
L 688.58125 869.552134 
L 696.096402 635.322893 
L 718.641856 400.721217 
L 726.157008 897.724434 
L 741.187311 644.56988 
L 748.702462 669.693937 
L 763.732765 815.503358 
L 793.793371 603.354027 
L 801.308523 836.022528 
L 816.338826 614.789004 
L 823.853977 895.529308 
L 838.88428 817.959939 
L 846.399432 842.912535 
L 861.429735 879.384268 
L 868.944886 712.951507 
L 876.460038 849.723871 
L 891.490341 580.694119 
L 899.005492 753.918223 
L 914.035795 863.708823 
L 921.550947 852.002276 
L 944.096402 573.72228 
L 966.641856 756.267672 
L 996.702462 842.894092 
L 1019.247917 813.229879 
L 1026.763068 977.5355 
L 1041.793371 676.486184 
L 1049.308523 822.366848 
L 1071.853977 856.585606 
L 1094.399432 792.723963 
L 1101.914583 781.362891 
L 1116.944886 817.825888 
L 1124.460038 838.325906 
L 1147.005492 895.376753 
L 1169.550947 653.655363 
L 1177.066098 984.535643 
L 1192.096402 781.66185 
L 1244.702462 726.60471 
L 1267.247917 416.319401 
L 1289.793371 890.846811 
L 1297.308523 788.134913 
L 1319.853977 480.219427 
L 1342.399432 530.387541 
L 1372.460038 922.845083 
L 1395.005492 379.83341 
L 1417.550947 359.32 
L 1447.611553 847.459559 
L 1470.157008 623.91286 
L 1492.702462 669.542244 
L 1522.763068 813.403856 
L 1545.308523 562.609386 
L 1567.853977 507.891521 
L 1597.914583 968.340163 
L 1620.460038 487.2708 
L 1643.005492 829.197116 
L 1695.611553 838.314505 
L 1748.217614 936.414165 
" style="fill:none;stroke:#0000ff;stroke-linecap:square;stroke-width:1.5;"/>
   </g>
   <g id="patch_3">
    <path d="M 43.78125 2052.76 
L 43.78125 278.68 
" style="fill:none;stroke:#000000;stroke-linecap:square;stroke-linejoin:miter;stroke-width:0.8;"/>
   </g>
   <g id="patch_4">
    <path d="M 1829.38125 2052.76 
L 1829.38125 278.68 
" style="fill:none;stroke:#000000;stroke-linecap:square;stroke-linejoin:miter;stroke-width:0.8;"/>
   </g>
   <g id="patch_5">
    <path d="M 43.78125 2052.76 
L 1829.38125 2052.76 
" style="fill:none;stroke:#000000;stroke-linecap:square;stroke-linejoin:miter;stroke-width:0.8;"/>
   </g>
   <g id="patch_6">
    <path d="M 43.78125 278.68 
L 1829.38125 278.68 
" style="fill:none;stroke:#000000;stroke-linecap:square;stroke-linejoin:miter;stroke-width:0.8;"/>
   </g>
   <g id="text_13">
    <text style="font-family:DejaVu Sans;font-size:12px;font-stretch:normal;font-style:normal;font-weight:normal;text-anchor:middle;" transform="rotate(-0, 936.58125, 272.68)" x="936.58125" y="272.68">air_pressure-&gt;Throughput</text>
   </g>
  </g>
  <g id="legend_1">
   <g id="patch_7">
    <path d="M 1934.960937 22.678125 
L 2054.98125 22.678125 
Q 2056.98125 22.678125 2056.98125 20.678125 
L 2056.98125 7 
Q 2056.98125 5 2054.98125 5 
L 1934.960937 5 
Q 1932.960937 5 1932.960937 7 
L 1932.960937 20.678125 
Q 1932.960937 22.678125 1934.960937 22.678125 
z
" style="fill:#ffffff;opacity:0.8;stroke:#cccccc;stroke-linejoin:miter;"/>
   </g>
   <g id="line2d_11">
    <path d="M 1936.960937 13.098437 
L 1956.960937 13.098437 
" style="fill:none;stroke:#0000ff;stroke-linecap:square;stroke-width:1.5;"/>
   </g>
   <g id="line2d_12"/>
   <g id="text_14">
    <text style="font-family:DejaVu Sans;font-size:10px;font-stretch:normal;font-style:normal;font-weight:normal;text-anchor:start;" transform="rotate(-0, 1964.960937, 16.598437)" x="1964.960937" y="16.598437">Throughput[Bit/s]</text>
   </g>
  </g>
 </g>
 <defs>
  <clipPath id="p4d4213140e">
   <rect height="1774.08" width="1785.6" x="43.78125" y="278.68"/>
  </clipPath>
 </defs>
</svg>
