<?xml version="1.0" encoding="utf-8" standalone="no"?>
<!DOCTYPE svg PUBLIC "-//W3C//DTD SVG 1.1//EN"
  "http://www.w3.org/Graphics/SVG/1.1/DTD/svg11.dtd">
<!-- Created with matplotlib (https://matplotlib.org/) -->
<svg height="2090.31625pt" version="1.1" viewBox="0 0 2074.70625 2090.31625" width="2074.70625pt" xmlns="http://www.w3.org/2000/svg" xmlns:xlink="http://www.w3.org/1999/xlink">
 <metadata>
  <rdf:RDF xmlns:cc="http://creativecommons.org/ns#" xmlns:dc="http://purl.org/dc/elements/1.1/" xmlns:rdf="http://www.w3.org/1999/02/22-rdf-syntax-ns#">
   <cc:Work>
    <dc:type rdf:resource="http://purl.org/dc/dcmitype/StillImage"/>
    <dc:date>2022-07-24T11:53:05.948872</dc:date>
    <dc:format>image/svg+xml</dc:format>
    <dc:creator>
     <cc:Agent>
      <dc:title>Matplotlib v3.3.2, https://matplotlib.org/</dc:title>
     </cc:Agent>
    </dc:creator>
   </cc:Work>
  </rdf:RDF>
 </metadata>
 <defs>
  <style type="text/css">*{stroke-linecap:butt;stroke-linejoin:round;}</style>
 </defs>
 <g id="figure_1">
  <g id="patch_1">
   <path d="M 0 2090.31625 
L 2074.70625 2090.31625 
L 2074.70625 0 
L 0 0 
z
" style="fill:#ffffff;"/>
  </g>
  <g id="axes_1">
   <g id="patch_2">
    <path d="M 56.50625 2052.76 
L 1842.10625 2052.76 
L 1842.10625 278.68 
L 56.50625 278.68 
z
" style="fill:#ffffff;"/>
   </g>
   <g id="matplotlib.axis_1">
    <g id="xtick_1">
     <g id="line2d_1">
      <defs>
       <path d="M 0 0 
L 0 3.5 
" id="m12b1fe320d" style="stroke:#000000;stroke-width:0.8;"/>
      </defs>
      <g>
       <use style="stroke:#000000;stroke-width:0.8;" x="118.721177" xlink:href="#m12b1fe320d" y="2052.76"/>
      </g>
     </g>
     <g id="text_1">
      <text style="font-family:DejaVu Sans;font-size:10px;font-stretch:normal;font-style:normal;font-weight:normal;text-anchor:middle;" transform="rotate(-0, 118.721177, 2067.358438)" x="118.721177" y="2067.358438">5</text>
     </g>
    </g>
    <g id="xtick_2">
     <g id="line2d_2">
      <g>
       <use style="stroke:#000000;stroke-width:0.8;" x="434.532992" xlink:href="#m12b1fe320d" y="2052.76"/>
      </g>
     </g>
     <g id="text_2">
      <text style="font-family:DejaVu Sans;font-size:10px;font-stretch:normal;font-style:normal;font-weight:normal;text-anchor:middle;" transform="rotate(-0, 434.532992, 2067.358438)" x="434.532992" y="2067.358438">10</text>
     </g>
    </g>
    <g id="xtick_3">
     <g id="line2d_3">
      <g>
       <use style="stroke:#000000;stroke-width:0.8;" x="750.344807" xlink:href="#m12b1fe320d" y="2052.76"/>
      </g>
     </g>
     <g id="text_3">
      <text style="font-family:DejaVu Sans;font-size:10px;font-stretch:normal;font-style:normal;font-weight:normal;text-anchor:middle;" transform="rotate(-0, 750.344807, 2067.358438)" x="750.344807" y="2067.358438">15</text>
     </g>
    </g>
    <g id="xtick_4">
     <g id="line2d_4">
      <g>
       <use style="stroke:#000000;stroke-width:0.8;" x="1066.156621" xlink:href="#m12b1fe320d" y="2052.76"/>
      </g>
     </g>
     <g id="text_4">
      <text style="font-family:DejaVu Sans;font-size:10px;font-stretch:normal;font-style:normal;font-weight:normal;text-anchor:middle;" transform="rotate(-0, 1066.156621, 2067.358438)" x="1066.156621" y="2067.358438">20</text>
     </g>
    </g>
    <g id="xtick_5">
     <g id="line2d_5">
      <g>
       <use style="stroke:#000000;stroke-width:0.8;" x="1381.968436" xlink:href="#m12b1fe320d" y="2052.76"/>
      </g>
     </g>
     <g id="text_5">
      <text style="font-family:DejaVu Sans;font-size:10px;font-stretch:normal;font-style:normal;font-weight:normal;text-anchor:middle;" transform="rotate(-0, 1381.968436, 2067.358438)" x="1381.968436" y="2067.358438">25</text>
     </g>
    </g>
    <g id="xtick_6">
     <g id="line2d_6">
      <g>
       <use style="stroke:#000000;stroke-width:0.8;" x="1697.780251" xlink:href="#m12b1fe320d" y="2052.76"/>
      </g>
     </g>
     <g id="text_6">
      <text style="font-family:DejaVu Sans;font-size:10px;font-stretch:normal;font-style:normal;font-weight:normal;text-anchor:middle;" transform="rotate(-0, 1697.780251, 2067.358438)" x="1697.780251" y="2067.358438">30</text>
     </g>
    </g>
    <g id="text_7">
     <text style="font-family:DejaVu Sans;font-size:10px;font-stretch:normal;font-style:normal;font-weight:normal;text-anchor:middle;" transform="rotate(-0, 949.30625, 2081.036562)" x="949.30625" y="2081.036562">temperature from BuienRadar</text>
    </g>
   </g>
   <g id="matplotlib.axis_2">
    <g id="ytick_1">
     <g id="line2d_7">
      <defs>
       <path d="M 0 0 
L -3.5 0 
" id="m673de4d16c" style="stroke:#000000;stroke-width:0.8;"/>
      </defs>
      <g>
       <use style="stroke:#000000;stroke-width:0.8;" x="56.50625" xlink:href="#m673de4d16c" y="1955.034415"/>
      </g>
     </g>
     <g id="text_8">
      <text style="font-family:DejaVu Sans;font-size:10px;font-stretch:normal;font-style:normal;font-weight:normal;text-anchor:end;" transform="rotate(-0, 49.50625, 1958.833634)" x="49.50625" y="1958.833634">1.325</text>
     </g>
    </g>
    <g id="ytick_2">
     <g id="line2d_8">
      <g>
       <use style="stroke:#000000;stroke-width:0.8;" x="56.50625" xlink:href="#m673de4d16c" y="1757.25866"/>
      </g>
     </g>
     <g id="text_9">
      <text style="font-family:DejaVu Sans;font-size:10px;font-stretch:normal;font-style:normal;font-weight:normal;text-anchor:end;" transform="rotate(-0, 49.50625, 1761.057879)" x="49.50625" y="1761.057879">1.350</text>
     </g>
    </g>
    <g id="ytick_3">
     <g id="line2d_9">
      <g>
       <use style="stroke:#000000;stroke-width:0.8;" x="56.50625" xlink:href="#m673de4d16c" y="1559.482904"/>
      </g>
     </g>
     <g id="text_10">
      <text style="font-family:DejaVu Sans;font-size:10px;font-stretch:normal;font-style:normal;font-weight:normal;text-anchor:end;" transform="rotate(-0, 49.50625, 1563.282123)" x="49.50625" y="1563.282123">1.375</text>
     </g>
    </g>
    <g id="ytick_4">
     <g id="line2d_10">
      <g>
       <use style="stroke:#000000;stroke-width:0.8;" x="56.50625" xlink:href="#m673de4d16c" y="1361.707149"/>
      </g>
     </g>
     <g id="text_11">
      <text style="font-family:DejaVu Sans;font-size:10px;font-stretch:normal;font-style:normal;font-weight:normal;text-anchor:end;" transform="rotate(-0, 49.50625, 1365.506368)" x="49.50625" y="1365.506368">1.400</text>
     </g>
    </g>
    <g id="ytick_5">
     <g id="line2d_11">
      <g>
       <use style="stroke:#000000;stroke-width:0.8;" x="56.50625" xlink:href="#m673de4d16c" y="1163.931393"/>
      </g>
     </g>
     <g id="text_12">
      <text style="font-family:DejaVu Sans;font-size:10px;font-stretch:normal;font-style:normal;font-weight:normal;text-anchor:end;" transform="rotate(-0, 49.50625, 1167.730612)" x="49.50625" y="1167.730612">1.425</text>
     </g>
    </g>
    <g id="ytick_6">
     <g id="line2d_12">
      <g>
       <use style="stroke:#000000;stroke-width:0.8;" x="56.50625" xlink:href="#m673de4d16c" y="966.155638"/>
      </g>
     </g>
     <g id="text_13">
      <text style="font-family:DejaVu Sans;font-size:10px;font-stretch:normal;font-style:normal;font-weight:normal;text-anchor:end;" transform="rotate(-0, 49.50625, 969.954857)" x="49.50625" y="969.954857">1.450</text>
     </g>
    </g>
    <g id="ytick_7">
     <g id="line2d_13">
      <g>
       <use style="stroke:#000000;stroke-width:0.8;" x="56.50625" xlink:href="#m673de4d16c" y="768.379882"/>
      </g>
     </g>
     <g id="text_14">
      <text style="font-family:DejaVu Sans;font-size:10px;font-stretch:normal;font-style:normal;font-weight:normal;text-anchor:end;" transform="rotate(-0, 49.50625, 772.179101)" x="49.50625" y="772.179101">1.475</text>
     </g>
    </g>
    <g id="ytick_8">
     <g id="line2d_14">
      <g>
       <use style="stroke:#000000;stroke-width:0.8;" x="56.50625" xlink:href="#m673de4d16c" y="570.604127"/>
      </g>
     </g>
     <g id="text_15">
      <text style="font-family:DejaVu Sans;font-size:10px;font-stretch:normal;font-style:normal;font-weight:normal;text-anchor:end;" transform="rotate(-0, 49.50625, 574.403346)" x="49.50625" y="574.403346">1.500</text>
     </g>
    </g>
    <g id="ytick_9">
     <g id="line2d_15">
      <g>
       <use style="stroke:#000000;stroke-width:0.8;" x="56.50625" xlink:href="#m673de4d16c" y="372.828371"/>
      </g>
     </g>
     <g id="text_16">
      <text style="font-family:DejaVu Sans;font-size:10px;font-stretch:normal;font-style:normal;font-weight:normal;text-anchor:end;" transform="rotate(-0, 49.50625, 376.62759)" x="49.50625" y="376.62759">1.525</text>
     </g>
    </g>
    <g id="text_17">
     <text style="font-family:DejaVu Sans;font-size:10px;font-stretch:normal;font-style:normal;font-weight:normal;text-anchor:middle;" transform="rotate(-90, 14.798438, 1165.72)" x="14.798438" y="1165.72">Throughput[Bit/s]</text>
    </g>
    <g id="text_18">
     <text style="font-family:DejaVu Sans;font-size:10px;font-stretch:normal;font-style:normal;font-weight:normal;text-anchor:start;" transform="rotate(-0, 56.50625, 275.68)" x="56.50625" y="275.68">1e7</text>
    </g>
   </g>
   <g id="line2d_16">
    <path clip-path="url(#pc017d3c816)" d="M 137.669886 1600.871225 
L 150.302359 1577.948516 
L 156.618595 1788.762539 
L 169.251068 1866.650986 
L 175.567304 1820.894381 
L 181.88354 1587.187261 
L 207.148486 1486.433429 
L 226.097194 1628.688166 
L 232.413431 1522.968494 
L 238.729667 1495.538125 
L 245.045903 1880.446373 
L 251.36214 1715.44428 
L 257.678376 1331.047877 
L 263.994612 1193.111543 
L 270.310849 1738.57857 
L 276.627085 1170.23573 
L 282.943321 1541.527234 
L 289.259557 1568.791154 
L 295.575794 1463.443876 
L 301.89203 1385.734633 
L 308.208266 1422.299091 
L 314.524503 1564.185295 
L 320.840739 1610.106553 
L 327.156975 1234.51576 
L 333.473211 1399.282605 
L 339.789448 1376.341991 
L 346.105684 1747.764674 
L 352.42192 1591.735551 
L 358.738157 1793.257184 
L 365.054393 1417.860451 
L 371.370629 1473.013382 
L 377.686865 1175.453903 
L 384.003102 1463.381328 
L 390.319338 1490.911333 
L 396.635574 1316.958002 
L 402.951811 1573.361143 
L 409.268047 1454.393149 
L 415.584283 1115.183763 
L 421.90052 1042.246517 
L 428.216756 1353.568607 
L 434.532992 1070.340777 
L 440.849228 914.027935 
L 447.165465 827.126613 
L 453.481701 1096.912716 
L 459.797937 1358.020871 
L 466.114174 1399.343311 
L 472.43041 1147.285544 
L 478.746646 1101.458357 
L 485.062882 1128.95332 
L 491.379119 684.477008 
L 497.695355 1284.719884 
L 504.011591 1239.257737 
L 510.327828 1289.665216 
L 516.644064 964.407772 
L 522.9603 1083.131778 
L 529.276537 1097.071472 
L 535.592773 1326.201732 
L 541.909009 826.993107 
L 548.225245 831.167516 
L 554.541482 836.228529 
L 560.857718 1293.931668 
L 567.173954 1431.368214 
L 573.490191 1298.430046 
L 579.806427 1344.807472 
L 586.122663 1147.401825 
L 592.438899 1523.012149 
L 598.755136 1280.305297 
L 605.071372 1105.965502 
L 611.387608 1156.672741 
L 617.703845 901.762551 
L 624.020081 1037.497166 
L 630.336317 1165.9401 
L 636.652554 868.412794 
L 642.96879 1280.151337 
L 649.285026 1353.684978 
L 655.601262 1252.849888 
L 661.917499 1326.421713 
L 668.233735 1284.938461 
L 674.549971 1197.774387 
L 680.866208 1128.911481 
L 687.182444 1124.377049 
L 693.49868 982.603116 
L 699.814916 1092.379583 
L 706.131153 1243.751103 
L 712.447389 1472.572636 
L 718.763625 1129.375087 
L 725.079862 1385.530188 
L 731.396098 1221.236758 
L 737.712334 978.321503 
L 744.02857 1069.553093 
L 750.344807 653.14581 
L 756.661043 735.187256 
L 762.977279 854.512566 
L 769.293516 1083.865178 
L 775.609752 1211.688431 
L 781.925988 739.480157 
L 788.242225 722.291084 
L 794.558461 758.338082 
L 800.874697 1014.647292 
L 807.190933 538.07867 
L 813.50717 611.189642 
L 819.823406 1115.264146 
L 826.139642 1271.173944 
L 832.455879 1234.356688 
L 838.772115 579.384114 
L 845.088351 1316.773412 
L 857.720824 959.755998 
L 864.03706 991.635336 
L 870.353296 1307.990132 
L 876.669533 941.126496 
L 882.985769 1184.138993 
L 889.302005 1161.387623 
L 895.618242 1238.916212 
L 901.934478 959.498914 
L 908.250714 569.985505 
L 914.56695 1248.042027 
L 920.883187 679.87861 
L 927.199423 1403.838055 
L 933.515659 1362.75231 
L 939.831896 1206.798915 
L 946.148132 1207.059446 
L 952.464368 1230.099763 
L 958.780604 973.714587 
L 965.096841 1330.497029 
L 971.413077 1011.740592 
L 977.729313 359.32 
L 984.04555 1129.335512 
L 990.361786 1174.773717 
L 996.678022 501.268691 
L 1002.994258 1330.599206 
L 1009.310495 1376.360794 
L 1015.626731 1385.499244 
L 1021.942967 794.738079 
L 1028.259204 785.460253 
L 1034.57544 1202.438287 
L 1040.891676 1355.151053 
L 1047.207913 1115.35585 
L 1053.524149 863.319596 
L 1059.840385 1161.200454 
L 1066.156621 1092.378448 
L 1072.472858 1243.605595 
L 1078.789094 1344.440331 
L 1085.10533 1092.657512 
L 1091.421567 1000.64335 
L 1097.737803 1353.636213 
L 1104.054039 1266.981912 
L 1110.370275 1174.730922 
L 1116.686512 1115.22905 
L 1123.002748 977.873481 
L 1129.318984 1303.076571 
L 1135.635221 1381.05218 
L 1141.951457 1326.482817 
L 1148.267693 1046.74402 
L 1154.58393 1133.760178 
L 1160.900166 1005.779689 
L 1167.216402 1317.662947 
L 1173.532638 1339.708651 
L 1179.848875 1170.514007 
L 1186.165111 1404.103944 
L 1192.481347 1133.736442 
L 1198.797584 1289.568238 
L 1205.11382 1316.826788 
L 1211.430056 1243.710809 
L 1217.746292 1469.914297 
L 1224.062529 1124.321618 
L 1230.378765 1367.868812 
L 1236.695001 1193.083434 
L 1243.011238 1188.652226 
L 1249.327474 1339.888421 
L 1255.64371 1495.503113 
L 1261.959946 1536.755734 
L 1268.276183 1518.39638 
L 1274.592419 1559.624013 
L 1280.908655 1280.382275 
L 1287.224892 1160.990727 
L 1293.541128 1060.162979 
L 1299.857364 1403.77958 
L 1306.173601 1555.36743 
L 1312.489837 1477.145806 
L 1318.806073 1467.966567 
L 1325.122309 1367.178108 
L 1331.438546 1500.013953 
L 1337.754782 1472.613204 
L 1344.071018 1527.560252 
L 1350.387255 1463.425221 
L 1356.703491 1633.136002 
L 1363.019727 1394.956847 
L 1375.6522 1064.846142 
L 1381.968436 1189.020024 
L 1388.284672 1564.445146 
L 1394.600909 1523.016515 
L 1400.917145 1532.244691 
L 1407.233381 1431.485971 
L 1413.549618 1212.508268 
L 1419.865854 1422.377293 
L 1426.18209 1078.685012 
L 1432.498326 1477.092104 
L 1438.814563 1165.881493 
L 1445.130799 1284.977491 
L 1451.447035 1624.137724 
L 1457.763272 1688.094612 
L 1464.079508 1688.062366 
L 1470.395744 913.599288 
L 1476.71198 1683.391235 
L 1483.028217 1802.809247 
L 1489.344453 1261.900726 
L 1495.660689 1711.020024 
L 1501.976926 1124.542208 
L 1508.293162 1729.131164 
L 1514.609398 1349.171883 
L 1520.925635 1939.940775 
L 1546.19058 1468.075158 
L 1552.506816 1628.511995 
L 1577.771761 1972.12 
L 1584.087997 1482.583276 
L 1596.72047 1866.905721 
L 1603.036706 1743.320798 
L 1615.669179 1624.003649 
L 1621.985415 1294.313854 
L 1653.566597 1591.688917 
L 1666.199069 1619.242239 
L 1672.515306 1307.72193 
L 1678.831542 1559.624013 
L 1697.780251 1674.313501 
L 1704.096487 1797.902977 
L 1710.412723 1669.625027 
L 1716.72896 1495.610337 
L 1729.361432 1009.803789 
L 1735.677668 1486.435619 
L 1741.993905 1582.625974 
L 1748.310141 1591.816888 
L 1754.626377 1587.411843 
L 1760.942614 1930.952357 
L 1760.942614 1930.952357 
" style="fill:none;stroke:#0000ff;stroke-linecap:square;stroke-width:1.5;"/>
   </g>
   <g id="patch_3">
    <path d="M 56.50625 2052.76 
L 56.50625 278.68 
" style="fill:none;stroke:#000000;stroke-linecap:square;stroke-linejoin:miter;stroke-width:0.8;"/>
   </g>
   <g id="patch_4">
    <path d="M 1842.10625 2052.76 
L 1842.10625 278.68 
" style="fill:none;stroke:#000000;stroke-linecap:square;stroke-linejoin:miter;stroke-width:0.8;"/>
   </g>
   <g id="patch_5">
    <path d="M 56.50625 2052.76 
L 1842.10625 2052.76 
" style="fill:none;stroke:#000000;stroke-linecap:square;stroke-linejoin:miter;stroke-width:0.8;"/>
   </g>
   <g id="patch_6">
    <path d="M 56.50625 278.68 
L 1842.10625 278.68 
" style="fill:none;stroke:#000000;stroke-linecap:square;stroke-linejoin:miter;stroke-width:0.8;"/>
   </g>
   <g id="text_19">
    <text style="font-family:DejaVu Sans;font-size:12px;font-stretch:normal;font-style:normal;font-weight:normal;text-anchor:middle;" transform="rotate(-0, 949.30625, 272.68)" x="949.30625" y="272.68">temperature-&gt;Throughput</text>
   </g>
  </g>
  <g id="legend_1">
   <g id="patch_7">
    <path d="M 1947.685937 22.678125 
L 2067.70625 22.678125 
Q 2069.70625 22.678125 2069.70625 20.678125 
L 2069.70625 7 
Q 2069.70625 5 2067.70625 5 
L 1947.685937 5 
Q 1945.685937 5 1945.685937 7 
L 1945.685937 20.678125 
Q 1945.685937 22.678125 1947.685937 22.678125 
z
" style="fill:#ffffff;opacity:0.8;stroke:#cccccc;stroke-linejoin:miter;"/>
   </g>
   <g id="line2d_17">
    <path d="M 1949.685937 13.098437 
L 1969.685937 13.098437 
" style="fill:none;stroke:#0000ff;stroke-linecap:square;stroke-width:1.5;"/>
   </g>
   <g id="line2d_18"/>
   <g id="text_20">
    <text style="font-family:DejaVu Sans;font-size:10px;font-stretch:normal;font-style:normal;font-weight:normal;text-anchor:start;" transform="rotate(-0, 1977.685937, 16.598437)" x="1977.685937" y="16.598437">Throughput[Bit/s]</text>
   </g>
  </g>
 </g>
 <defs>
  <clipPath id="pc017d3c816">
   <rect height="1774.08" width="1785.6" x="56.50625" y="278.68"/>
  </clipPath>
 </defs>
</svg>
