<?xml version="1.0" encoding="utf-8" standalone="no"?>
<!DOCTYPE svg PUBLIC "-//W3C//DTD SVG 1.1//EN"
  "http://www.w3.org/Graphics/SVG/1.1/DTD/svg11.dtd">
<!-- Created with matplotlib (https://matplotlib.org/) -->
<svg height="2090.31625pt" version="1.1" viewBox="0 0 2061.98125 2090.31625" width="2061.98125pt" xmlns="http://www.w3.org/2000/svg" xmlns:xlink="http://www.w3.org/1999/xlink">
 <metadata>
  <rdf:RDF xmlns:cc="http://creativecommons.org/ns#" xmlns:dc="http://purl.org/dc/elements/1.1/" xmlns:rdf="http://www.w3.org/1999/02/22-rdf-syntax-ns#">
   <cc:Work>
    <dc:type rdf:resource="http://purl.org/dc/dcmitype/StillImage"/>
    <dc:date>2022-07-23T21:18:50.003540</dc:date>
    <dc:format>image/svg+xml</dc:format>
    <dc:creator>
     <cc:Agent>
      <dc:title>Matplotlib v3.3.2, https://matplotlib.org/</dc:title>
     </cc:Agent>
    </dc:creator>
   </cc:Work>
  </rdf:RDF>
 </metadata>
 <defs>
  <style type="text/css">*{stroke-linecap:butt;stroke-linejoin:round;}</style>
 </defs>
 <g id="figure_1">
  <g id="patch_1">
   <path d="M 0 2090.31625 
L 2061.98125 2090.31625 
L 2061.98125 0 
L 0 0 
z
" style="fill:#ffffff;"/>
  </g>
  <g id="axes_1">
   <g id="patch_2">
    <path d="M 43.78125 2052.76 
L 1829.38125 2052.76 
L 1829.38125 278.68 
L 43.78125 278.68 
z
" style="fill:#ffffff;"/>
   </g>
   <g id="matplotlib.axis_1">
    <g id="xtick_1">
     <g id="line2d_1">
      <defs>
       <path d="M 0 0 
L 0 3.5 
" id="mf514ec5f49" style="stroke:#000000;stroke-width:0.8;"/>
      </defs>
      <g>
       <use style="stroke:#000000;stroke-width:0.8;" x="124.944886" xlink:href="#mf514ec5f49" y="2052.76"/>
      </g>
     </g>
     <g id="text_1">
      <text style="font-family:DejaVu Sans;font-size:10px;font-stretch:normal;font-style:normal;font-weight:normal;text-anchor:middle;" transform="rotate(-0, 124.944886, 2067.358438)" x="124.944886" y="2067.358438">0</text>
     </g>
    </g>
    <g id="xtick_2">
     <g id="line2d_2">
      <g>
       <use style="stroke:#000000;stroke-width:0.8;" x="402.993959" xlink:href="#mf514ec5f49" y="2052.76"/>
      </g>
     </g>
     <g id="text_2">
      <text style="font-family:DejaVu Sans;font-size:10px;font-stretch:normal;font-style:normal;font-weight:normal;text-anchor:middle;" transform="rotate(-0, 402.993959, 2067.358438)" x="402.993959" y="2067.358438">10</text>
     </g>
    </g>
    <g id="xtick_3">
     <g id="line2d_3">
      <g>
       <use style="stroke:#000000;stroke-width:0.8;" x="681.043031" xlink:href="#mf514ec5f49" y="2052.76"/>
      </g>
     </g>
     <g id="text_3">
      <text style="font-family:DejaVu Sans;font-size:10px;font-stretch:normal;font-style:normal;font-weight:normal;text-anchor:middle;" transform="rotate(-0, 681.043031, 2067.358438)" x="681.043031" y="2067.358438">20</text>
     </g>
    </g>
    <g id="xtick_4">
     <g id="line2d_4">
      <g>
       <use style="stroke:#000000;stroke-width:0.8;" x="959.092103" xlink:href="#mf514ec5f49" y="2052.76"/>
      </g>
     </g>
     <g id="text_4">
      <text style="font-family:DejaVu Sans;font-size:10px;font-stretch:normal;font-style:normal;font-weight:normal;text-anchor:middle;" transform="rotate(-0, 959.092103, 2067.358438)" x="959.092103" y="2067.358438">30</text>
     </g>
    </g>
    <g id="xtick_5">
     <g id="line2d_5">
      <g>
       <use style="stroke:#000000;stroke-width:0.8;" x="1237.141175" xlink:href="#mf514ec5f49" y="2052.76"/>
      </g>
     </g>
     <g id="text_5">
      <text style="font-family:DejaVu Sans;font-size:10px;font-stretch:normal;font-style:normal;font-weight:normal;text-anchor:middle;" transform="rotate(-0, 1237.141175, 2067.358438)" x="1237.141175" y="2067.358438">40</text>
     </g>
    </g>
    <g id="xtick_6">
     <g id="line2d_6">
      <g>
       <use style="stroke:#000000;stroke-width:0.8;" x="1515.190247" xlink:href="#mf514ec5f49" y="2052.76"/>
      </g>
     </g>
     <g id="text_6">
      <text style="font-family:DejaVu Sans;font-size:10px;font-stretch:normal;font-style:normal;font-weight:normal;text-anchor:middle;" transform="rotate(-0, 1515.190247, 2067.358438)" x="1515.190247" y="2067.358438">50</text>
     </g>
    </g>
    <g id="xtick_7">
     <g id="line2d_7">
      <g>
       <use style="stroke:#000000;stroke-width:0.8;" x="1793.239319" xlink:href="#mf514ec5f49" y="2052.76"/>
      </g>
     </g>
     <g id="text_7">
      <text style="font-family:DejaVu Sans;font-size:10px;font-stretch:normal;font-style:normal;font-weight:normal;text-anchor:middle;" transform="rotate(-0, 1793.239319, 2067.358438)" x="1793.239319" y="2067.358438">60</text>
     </g>
    </g>
    <g id="text_8">
     <text style="font-family:DejaVu Sans;font-size:10px;font-stretch:normal;font-style:normal;font-weight:normal;text-anchor:middle;" transform="rotate(-0, 936.58125, 2081.036562)" x="936.58125" y="2081.036562">rain from WeatherBitIO</text>
    </g>
   </g>
   <g id="matplotlib.axis_2">
    <g id="ytick_1">
     <g id="line2d_8">
      <defs>
       <path d="M 0 0 
L -3.5 0 
" id="mccb2d99151" style="stroke:#000000;stroke-width:0.8;"/>
      </defs>
      <g>
       <use style="stroke:#000000;stroke-width:0.8;" x="43.78125" xlink:href="#mccb2d99151" y="1960.97727"/>
      </g>
     </g>
     <g id="text_9">
      <text style="font-family:DejaVu Sans;font-size:10px;font-stretch:normal;font-style:normal;font-weight:normal;text-anchor:end;" transform="rotate(-0, 36.78125, 1964.776489)" x="36.78125" y="1964.776489">0.7</text>
     </g>
    </g>
    <g id="ytick_2">
     <g id="line2d_9">
      <g>
       <use style="stroke:#000000;stroke-width:0.8;" x="43.78125" xlink:href="#mccb2d99151" y="1760.789679"/>
      </g>
     </g>
     <g id="text_10">
      <text style="font-family:DejaVu Sans;font-size:10px;font-stretch:normal;font-style:normal;font-weight:normal;text-anchor:end;" transform="rotate(-0, 36.78125, 1764.588898)" x="36.78125" y="1764.588898">0.8</text>
     </g>
    </g>
    <g id="ytick_3">
     <g id="line2d_10">
      <g>
       <use style="stroke:#000000;stroke-width:0.8;" x="43.78125" xlink:href="#mccb2d99151" y="1560.602088"/>
      </g>
     </g>
     <g id="text_11">
      <text style="font-family:DejaVu Sans;font-size:10px;font-stretch:normal;font-style:normal;font-weight:normal;text-anchor:end;" transform="rotate(-0, 36.78125, 1564.401307)" x="36.78125" y="1564.401307">0.9</text>
     </g>
    </g>
    <g id="ytick_4">
     <g id="line2d_11">
      <g>
       <use style="stroke:#000000;stroke-width:0.8;" x="43.78125" xlink:href="#mccb2d99151" y="1360.414497"/>
      </g>
     </g>
     <g id="text_12">
      <text style="font-family:DejaVu Sans;font-size:10px;font-stretch:normal;font-style:normal;font-weight:normal;text-anchor:end;" transform="rotate(-0, 36.78125, 1364.213716)" x="36.78125" y="1364.213716">1.0</text>
     </g>
    </g>
    <g id="ytick_5">
     <g id="line2d_12">
      <g>
       <use style="stroke:#000000;stroke-width:0.8;" x="43.78125" xlink:href="#mccb2d99151" y="1160.226906"/>
      </g>
     </g>
     <g id="text_13">
      <text style="font-family:DejaVu Sans;font-size:10px;font-stretch:normal;font-style:normal;font-weight:normal;text-anchor:end;" transform="rotate(-0, 36.78125, 1164.026125)" x="36.78125" y="1164.026125">1.1</text>
     </g>
    </g>
    <g id="ytick_6">
     <g id="line2d_13">
      <g>
       <use style="stroke:#000000;stroke-width:0.8;" x="43.78125" xlink:href="#mccb2d99151" y="960.039315"/>
      </g>
     </g>
     <g id="text_14">
      <text style="font-family:DejaVu Sans;font-size:10px;font-stretch:normal;font-style:normal;font-weight:normal;text-anchor:end;" transform="rotate(-0, 36.78125, 963.838534)" x="36.78125" y="963.838534">1.2</text>
     </g>
    </g>
    <g id="ytick_7">
     <g id="line2d_14">
      <g>
       <use style="stroke:#000000;stroke-width:0.8;" x="43.78125" xlink:href="#mccb2d99151" y="759.851724"/>
      </g>
     </g>
     <g id="text_15">
      <text style="font-family:DejaVu Sans;font-size:10px;font-stretch:normal;font-style:normal;font-weight:normal;text-anchor:end;" transform="rotate(-0, 36.78125, 763.650942)" x="36.78125" y="763.650942">1.3</text>
     </g>
    </g>
    <g id="ytick_8">
     <g id="line2d_15">
      <g>
       <use style="stroke:#000000;stroke-width:0.8;" x="43.78125" xlink:href="#mccb2d99151" y="559.664133"/>
      </g>
     </g>
     <g id="text_16">
      <text style="font-family:DejaVu Sans;font-size:10px;font-stretch:normal;font-style:normal;font-weight:normal;text-anchor:end;" transform="rotate(-0, 36.78125, 563.463351)" x="36.78125" y="563.463351">1.4</text>
     </g>
    </g>
    <g id="ytick_9">
     <g id="line2d_16">
      <g>
       <use style="stroke:#000000;stroke-width:0.8;" x="43.78125" xlink:href="#mccb2d99151" y="359.476541"/>
      </g>
     </g>
     <g id="text_17">
      <text style="font-family:DejaVu Sans;font-size:10px;font-stretch:normal;font-style:normal;font-weight:normal;text-anchor:end;" transform="rotate(-0, 36.78125, 363.27576)" x="36.78125" y="363.27576">1.5</text>
     </g>
    </g>
    <g id="text_18">
     <text style="font-family:DejaVu Sans;font-size:10px;font-stretch:normal;font-style:normal;font-weight:normal;text-anchor:middle;" transform="rotate(-90, 14.798437, 1165.72)" x="14.798437" y="1165.72">Throughput[Bit/s]</text>
    </g>
    <g id="text_19">
     <text style="font-family:DejaVu Sans;font-size:10px;font-stretch:normal;font-style:normal;font-weight:normal;text-anchor:start;" transform="rotate(-0, 43.78125, 275.68)" x="43.78125" y="275.68">1e7</text>
    </g>
   </g>
   <g id="line2d_17">
    <path clip-path="url(#p878bbec8a1)" d="M 124.944886 359.32 
L 127.789273 672.440096 
L 127.840017 590.081206 
L 127.932857 612.264467 
L 127.982322 623.715229 
L 128.258175 539.035575 
L 128.38249 673.577468 
L 128.388747 622.49443 
L 128.758135 528.587512 
L 129.157747 517.072362 
L 129.314539 600.540424 
L 129.666799 615.577517 
L 130.081426 612.137148 
L 130.307396 656.130578 
L 130.571877 577.500906 
L 130.628154 638.77067 
L 130.720855 619.032519 
L 131.025792 585.487338 
L 131.064329 629.472485 
L 131.182333 609.858759 
L 131.19162 743.18556 
L 131.54794 652.697744 
L 131.7344 739.633379 
L 131.980334 628.342836 
L 132.138099 626.039563 
L 132.551697 1381.943661 
L 133.346222 598.144735 
L 133.538049 689.770173 
L 133.620935 601.643535 
L 134.073432 630.615543 
L 134.772142 579.598987 
L 134.77495 534.427193 
L 135.101546 709.451023 
L 135.342865 554.576505 
L 135.425529 675.889071 
L 136.402315 689.761888 
L 136.652754 579.017881 
L 136.882868 847.461202 
L 137.064851 623.781498 
L 137.208129 708.347562 
L 137.679895 668.978808 
L 138.464911 635.298628 
L 138.865024 577.271166 
L 138.947299 578.487691 
L 139.348913 904.254431 
L 139.426961 732.683303 
L 139.678874 777.862133 
L 139.970742 606.267274 
L 140.283936 600.480496 
L 140.856717 586.599293 
L 141.064197 663.093226 
L 142.051911 648.195171 
L 142.551009 539.079051 
L 142.592466 678.283886 
L 144.602483 617.96802 
L 144.754854 583.152108 
L 144.758524 584.309588 
L 145.986083 1273.002657 
L 146.270555 656.118672 
L 147.232299 596.987767 
L 151.876692 513.510066 
L 155.056211 603.951399 
L 155.751055 601.644363 
L 156.323002 361.698306 
L 156.341353 605.214515 
L 156.467032 499.594033 
L 160.126157 667.778713 
L 164.75484 804.709167 
L 164.972275 583.151275 
L 166.331379 521.643861 
L 166.51072 586.580419 
L 166.56494 646.968735 
L 167.745258 537.876127 
L 168.2552 707.225829 
L 171.360174 601.65154 
L 174.718173 592.581208 
L 175.736945 544.88775 
L 176.578877 555.349239 
L 177.032653 431.319203 
L 182.707913 711.850245 
L 183.952182 612.060145 
L 186.144599 508.973537 
L 187.953031 838.236652 
L 188.013367 609.787198 
L 190.71795 720.123668 
L 209.175682 580.865802 
L 211.283572 380.363607 
L 211.876929 562.285564 
L 212.499203 456.865874 
L 218.862078 651.493315 
L 220.229801 603.942848 
L 223.634512 491.581472 
L 230.340777 645.71453 
L 234.282123 702.598002 
L 234.403909 790.738556 
L 237.361516 501.961855 
L 239.689621 592.444392 
L 239.925963 565.752086 
L 243.015922 532.128698 
L 244.651407 485.734929 
L 247.156073 621.781391 
L 256.662293 621.377456 
L 257.922411 562.209686 
L 260.621434 547.175635 
L 261.362712 559.222969 
L 261.836786 570.424133 
L 265.962756 584.251252 
L 275.621903 844.073277 
L 279.86799 510.125536 
L 279.89802 1234.756878 
L 284.6268 558.741417 
L 287.611657 918.173708 
L 295.730134 522.844479 
L 318.335801 607.43637 
L 319.364861 809.276466 
L 323.628187 884.490253 
L 325.230028 610.91362 
L 325.369331 1972.12 
L 338.802994 563.550213 
L 349.064395 710.648664 
L 395.535014 612.165472 
L 398.691427 825.444999 
L 405.757766 613.362267 
L 484.704239 526.361055 
L 491.435807 510.079047 
L 1140.727659 636.41009 
L 1748.217614 421.909612 
L 1748.217614 421.909612 
" style="fill:none;stroke:#0000ff;stroke-linecap:square;stroke-width:1.5;"/>
   </g>
   <g id="patch_3">
    <path d="M 43.78125 2052.76 
L 43.78125 278.68 
" style="fill:none;stroke:#000000;stroke-linecap:square;stroke-linejoin:miter;stroke-width:0.8;"/>
   </g>
   <g id="patch_4">
    <path d="M 1829.38125 2052.76 
L 1829.38125 278.68 
" style="fill:none;stroke:#000000;stroke-linecap:square;stroke-linejoin:miter;stroke-width:0.8;"/>
   </g>
   <g id="patch_5">
    <path d="M 43.78125 2052.76 
L 1829.38125 2052.76 
" style="fill:none;stroke:#000000;stroke-linecap:square;stroke-linejoin:miter;stroke-width:0.8;"/>
   </g>
   <g id="patch_6">
    <path d="M 43.78125 278.68 
L 1829.38125 278.68 
" style="fill:none;stroke:#000000;stroke-linecap:square;stroke-linejoin:miter;stroke-width:0.8;"/>
   </g>
   <g id="text_20">
    <text style="font-family:DejaVu Sans;font-size:12px;font-stretch:normal;font-style:normal;font-weight:normal;text-anchor:middle;" transform="rotate(-0, 936.58125, 272.68)" x="936.58125" y="272.68">rain-&gt;Throughput</text>
   </g>
  </g>
  <g id="legend_1">
   <g id="patch_7">
    <path d="M 1934.960937 22.678125 
L 2054.98125 22.678125 
Q 2056.98125 22.678125 2056.98125 20.678125 
L 2056.98125 7 
Q 2056.98125 5 2054.98125 5 
L 1934.960937 5 
Q 1932.960937 5 1932.960937 7 
L 1932.960937 20.678125 
Q 1932.960937 22.678125 1934.960937 22.678125 
z
" style="fill:#ffffff;opacity:0.8;stroke:#cccccc;stroke-linejoin:miter;"/>
   </g>
   <g id="line2d_18">
    <path d="M 1936.960937 13.098437 
L 1956.960937 13.098437 
" style="fill:none;stroke:#0000ff;stroke-linecap:square;stroke-width:1.5;"/>
   </g>
   <g id="line2d_19"/>
   <g id="text_21">
    <text style="font-family:DejaVu Sans;font-size:10px;font-stretch:normal;font-style:normal;font-weight:normal;text-anchor:start;" transform="rotate(-0, 1964.960937, 16.598437)" x="1964.960937" y="16.598437">Throughput[Bit/s]</text>
   </g>
  </g>
 </g>
 <defs>
  <clipPath id="p878bbec8a1">
   <rect height="1774.08" width="1785.6" x="43.78125" y="278.68"/>
  </clipPath>
 </defs>
</svg>
