<?xml version="1.0" encoding="utf-8" standalone="no"?>
<!DOCTYPE svg PUBLIC "-//W3C//DTD SVG 1.1//EN"
  "http://www.w3.org/Graphics/SVG/1.1/DTD/svg11.dtd">
<!-- Created with matplotlib (https://matplotlib.org/) -->
<svg height="2090.31625pt" version="1.1" viewBox="0 0 2068.34375 2090.31625" width="2068.34375pt" xmlns="http://www.w3.org/2000/svg" xmlns:xlink="http://www.w3.org/1999/xlink">
 <metadata>
  <rdf:RDF xmlns:cc="http://creativecommons.org/ns#" xmlns:dc="http://purl.org/dc/elements/1.1/" xmlns:rdf="http://www.w3.org/1999/02/22-rdf-syntax-ns#">
   <cc:Work>
    <dc:type rdf:resource="http://purl.org/dc/dcmitype/StillImage"/>
    <dc:date>2022-07-24T11:53:54.150864</dc:date>
    <dc:format>image/svg+xml</dc:format>
    <dc:creator>
     <cc:Agent>
      <dc:title>Matplotlib v3.3.2, https://matplotlib.org/</dc:title>
     </cc:Agent>
    </dc:creator>
   </cc:Work>
  </rdf:RDF>
 </metadata>
 <defs>
  <style type="text/css">*{stroke-linecap:butt;stroke-linejoin:round;}</style>
 </defs>
 <g id="figure_1">
  <g id="patch_1">
   <path d="M 0 2090.31625 
L 2068.34375 2090.31625 
L 2068.34375 0 
L 0 0 
z
" style="fill:#ffffff;"/>
  </g>
  <g id="axes_1">
   <g id="patch_2">
    <path d="M 50.14375 2052.76 
L 1835.74375 2052.76 
L 1835.74375 278.68 
L 50.14375 278.68 
z
" style="fill:#ffffff;"/>
   </g>
   <g id="matplotlib.axis_1">
    <g id="xtick_1">
     <g id="line2d_1">
      <defs>
       <path d="M 0 0 
L 0 3.5 
" id="m8a15a78be9" style="stroke:#000000;stroke-width:0.8;"/>
      </defs>
      <g>
       <use style="stroke:#000000;stroke-width:0.8;" x="259.460496" xlink:href="#m8a15a78be9" y="2052.76"/>
      </g>
     </g>
     <g id="text_1">
      <text style="font-family:DejaVu Sans;font-size:10px;font-stretch:normal;font-style:normal;font-weight:normal;text-anchor:middle;" transform="rotate(-0, 259.460496, 2067.358438)" x="259.460496" y="2067.358438">30</text>
     </g>
    </g>
    <g id="xtick_2">
     <g id="line2d_2">
      <g>
       <use style="stroke:#000000;stroke-width:0.8;" x="473.049013" xlink:href="#m8a15a78be9" y="2052.76"/>
      </g>
     </g>
     <g id="text_2">
      <text style="font-family:DejaVu Sans;font-size:10px;font-stretch:normal;font-style:normal;font-weight:normal;text-anchor:middle;" transform="rotate(-0, 473.049013, 2067.358438)" x="473.049013" y="2067.358438">40</text>
     </g>
    </g>
    <g id="xtick_3">
     <g id="line2d_3">
      <g>
       <use style="stroke:#000000;stroke-width:0.8;" x="686.63753" xlink:href="#m8a15a78be9" y="2052.76"/>
      </g>
     </g>
     <g id="text_3">
      <text style="font-family:DejaVu Sans;font-size:10px;font-stretch:normal;font-style:normal;font-weight:normal;text-anchor:middle;" transform="rotate(-0, 686.63753, 2067.358438)" x="686.63753" y="2067.358438">50</text>
     </g>
    </g>
    <g id="xtick_4">
     <g id="line2d_4">
      <g>
       <use style="stroke:#000000;stroke-width:0.8;" x="900.226047" xlink:href="#m8a15a78be9" y="2052.76"/>
      </g>
     </g>
     <g id="text_4">
      <text style="font-family:DejaVu Sans;font-size:10px;font-stretch:normal;font-style:normal;font-weight:normal;text-anchor:middle;" transform="rotate(-0, 900.226047, 2067.358438)" x="900.226047" y="2067.358438">60</text>
     </g>
    </g>
    <g id="xtick_5">
     <g id="line2d_5">
      <g>
       <use style="stroke:#000000;stroke-width:0.8;" x="1113.814563" xlink:href="#m8a15a78be9" y="2052.76"/>
      </g>
     </g>
     <g id="text_5">
      <text style="font-family:DejaVu Sans;font-size:10px;font-stretch:normal;font-style:normal;font-weight:normal;text-anchor:middle;" transform="rotate(-0, 1113.814563, 2067.358438)" x="1113.814563" y="2067.358438">70</text>
     </g>
    </g>
    <g id="xtick_6">
     <g id="line2d_6">
      <g>
       <use style="stroke:#000000;stroke-width:0.8;" x="1327.40308" xlink:href="#m8a15a78be9" y="2052.76"/>
      </g>
     </g>
     <g id="text_6">
      <text style="font-family:DejaVu Sans;font-size:10px;font-stretch:normal;font-style:normal;font-weight:normal;text-anchor:middle;" transform="rotate(-0, 1327.40308, 2067.358438)" x="1327.40308" y="2067.358438">80</text>
     </g>
    </g>
    <g id="xtick_7">
     <g id="line2d_7">
      <g>
       <use style="stroke:#000000;stroke-width:0.8;" x="1540.991597" xlink:href="#m8a15a78be9" y="2052.76"/>
      </g>
     </g>
     <g id="text_7">
      <text style="font-family:DejaVu Sans;font-size:10px;font-stretch:normal;font-style:normal;font-weight:normal;text-anchor:middle;" transform="rotate(-0, 1540.991597, 2067.358438)" x="1540.991597" y="2067.358438">90</text>
     </g>
    </g>
    <g id="xtick_8">
     <g id="line2d_8">
      <g>
       <use style="stroke:#000000;stroke-width:0.8;" x="1754.580114" xlink:href="#m8a15a78be9" y="2052.76"/>
      </g>
     </g>
     <g id="text_8">
      <text style="font-family:DejaVu Sans;font-size:10px;font-stretch:normal;font-style:normal;font-weight:normal;text-anchor:middle;" transform="rotate(-0, 1754.580114, 2067.358438)" x="1754.580114" y="2067.358438">100</text>
     </g>
    </g>
    <g id="text_9">
     <text style="font-family:DejaVu Sans;font-size:10px;font-stretch:normal;font-style:normal;font-weight:normal;text-anchor:middle;" transform="rotate(-0, 942.94375, 2081.036562)" x="942.94375" y="2081.036562">humidity from WeatherAPI</text>
    </g>
   </g>
   <g id="matplotlib.axis_2">
    <g id="ytick_1">
     <g id="line2d_9">
      <defs>
       <path d="M 0 0 
L -3.5 0 
" id="mc58eeb1104" style="stroke:#000000;stroke-width:0.8;"/>
      </defs>
      <g>
       <use style="stroke:#000000;stroke-width:0.8;" x="50.14375" xlink:href="#mc58eeb1104" y="2042.742937"/>
      </g>
     </g>
     <g id="text_10">
      <text style="font-family:DejaVu Sans;font-size:10px;font-stretch:normal;font-style:normal;font-weight:normal;text-anchor:end;" transform="rotate(-0, 43.14375, 2046.542155)" x="43.14375" y="2046.542155">1.30</text>
     </g>
    </g>
    <g id="ytick_2">
     <g id="line2d_10">
      <g>
       <use style="stroke:#000000;stroke-width:0.8;" x="50.14375" xlink:href="#mc58eeb1104" y="1671.466586"/>
      </g>
     </g>
     <g id="text_11">
      <text style="font-family:DejaVu Sans;font-size:10px;font-stretch:normal;font-style:normal;font-weight:normal;text-anchor:end;" transform="rotate(-0, 43.14375, 1675.265804)" x="43.14375" y="1675.265804">1.35</text>
     </g>
    </g>
    <g id="ytick_3">
     <g id="line2d_11">
      <g>
       <use style="stroke:#000000;stroke-width:0.8;" x="50.14375" xlink:href="#mc58eeb1104" y="1300.190235"/>
      </g>
     </g>
     <g id="text_12">
      <text style="font-family:DejaVu Sans;font-size:10px;font-stretch:normal;font-style:normal;font-weight:normal;text-anchor:end;" transform="rotate(-0, 43.14375, 1303.989453)" x="43.14375" y="1303.989453">1.40</text>
     </g>
    </g>
    <g id="ytick_4">
     <g id="line2d_12">
      <g>
       <use style="stroke:#000000;stroke-width:0.8;" x="50.14375" xlink:href="#mc58eeb1104" y="928.913883"/>
      </g>
     </g>
     <g id="text_13">
      <text style="font-family:DejaVu Sans;font-size:10px;font-stretch:normal;font-style:normal;font-weight:normal;text-anchor:end;" transform="rotate(-0, 43.14375, 932.713102)" x="43.14375" y="932.713102">1.45</text>
     </g>
    </g>
    <g id="ytick_5">
     <g id="line2d_13">
      <g>
       <use style="stroke:#000000;stroke-width:0.8;" x="50.14375" xlink:href="#mc58eeb1104" y="557.637532"/>
      </g>
     </g>
     <g id="text_14">
      <text style="font-family:DejaVu Sans;font-size:10px;font-stretch:normal;font-style:normal;font-weight:normal;text-anchor:end;" transform="rotate(-0, 43.14375, 561.436751)" x="43.14375" y="561.436751">1.50</text>
     </g>
    </g>
    <g id="text_15">
     <text style="font-family:DejaVu Sans;font-size:10px;font-stretch:normal;font-style:normal;font-weight:normal;text-anchor:middle;" transform="rotate(-90, 14.798438, 1165.72)" x="14.798438" y="1165.72">Throughput[Bit/s]</text>
    </g>
    <g id="text_16">
     <text style="font-family:DejaVu Sans;font-size:10px;font-stretch:normal;font-style:normal;font-weight:normal;text-anchor:start;" transform="rotate(-0, 50.14375, 275.68)" x="50.14375" y="275.68">1e7</text>
    </g>
   </g>
   <g id="line2d_14">
    <path clip-path="url(#p83aaabfe5b)" d="M 131.307386 1700.957101 
L 174.02509 1972.12 
L 216.742793 1671.24673 
L 238.101645 1774.384561 
L 366.254755 1602.050677 
L 387.613606 1232.478519 
L 408.972458 1481.690757 
L 430.33131 1017.151956 
L 451.690161 969.88333 
L 473.049013 879.582939 
L 494.407865 1228.169508 
L 515.766717 1021.547711 
L 537.125568 1327.16096 
L 558.48442 1279.541794 
L 579.843272 1111.791863 
L 601.202123 1189.435379 
L 622.560975 1266.861714 
L 643.919827 1068.838598 
L 665.278678 1038.674916 
L 686.63753 936.008937 
L 707.996382 1004.556523 
L 729.355233 1068.957617 
L 750.714085 1086.088177 
L 772.072937 1034.537283 
L 793.431788 789.219544 
L 814.79064 712.120127 
L 836.149492 700.015398 
L 857.508343 492.557241 
L 878.867195 1025.79828 
L 900.226047 1047.390348 
L 921.584898 1111.988719 
L 942.94375 1232.616627 
L 964.302602 961.285071 
L 985.661453 635.113598 
L 1007.020305 974.429584 
L 1028.379157 1288.217161 
L 1049.738008 1202.310053 
L 1071.09686 940.333124 
L 1092.455712 1142.227407 
L 1113.814563 1068.813094 
L 1135.173415 1039.39954 
L 1156.532267 1111.871241 
L 1177.891118 1154.770864 
L 1199.24997 1176.721708 
L 1220.608822 1073.300781 
L 1241.967673 557.056875 
L 1263.326525 905.42079 
L 1284.685377 1047.391413 
L 1306.044228 359.32 
L 1327.40308 971.70127 
L 1348.761932 1258.036019 
L 1370.120783 664.521988 
L 1391.479635 595.732298 
L 1412.838487 768.016291 
L 1434.197339 798.291815 
L 1455.55619 879.98528 
L 1476.915042 784.997348 
L 1498.273894 974.253758 
L 1519.632745 527.108177 
L 1540.991597 759.307849 
L 1562.350449 888.470795 
L 1583.7093 1077.373152 
L 1605.068152 798.417128 
L 1626.427004 660.205795 
L 1647.785855 565.878688 
L 1669.144707 824.122393 
L 1690.503559 1025.965794 
L 1711.86241 1116.265053 
L 1754.580114 1227.897353 
" style="fill:none;stroke:#0000ff;stroke-linecap:square;stroke-width:1.5;"/>
   </g>
   <g id="patch_3">
    <path d="M 50.14375 2052.76 
L 50.14375 278.68 
" style="fill:none;stroke:#000000;stroke-linecap:square;stroke-linejoin:miter;stroke-width:0.8;"/>
   </g>
   <g id="patch_4">
    <path d="M 1835.74375 2052.76 
L 1835.74375 278.68 
" style="fill:none;stroke:#000000;stroke-linecap:square;stroke-linejoin:miter;stroke-width:0.8;"/>
   </g>
   <g id="patch_5">
    <path d="M 50.14375 2052.76 
L 1835.74375 2052.76 
" style="fill:none;stroke:#000000;stroke-linecap:square;stroke-linejoin:miter;stroke-width:0.8;"/>
   </g>
   <g id="patch_6">
    <path d="M 50.14375 278.68 
L 1835.74375 278.68 
" style="fill:none;stroke:#000000;stroke-linecap:square;stroke-linejoin:miter;stroke-width:0.8;"/>
   </g>
   <g id="text_17">
    <text style="font-family:DejaVu Sans;font-size:12px;font-stretch:normal;font-style:normal;font-weight:normal;text-anchor:middle;" transform="rotate(-0, 942.94375, 272.68)" x="942.94375" y="272.68">humidity-&gt;Throughput</text>
   </g>
  </g>
  <g id="legend_1">
   <g id="patch_7">
    <path d="M 1941.323437 22.678125 
L 2061.34375 22.678125 
Q 2063.34375 22.678125 2063.34375 20.678125 
L 2063.34375 7 
Q 2063.34375 5 2061.34375 5 
L 1941.323437 5 
Q 1939.323437 5 1939.323437 7 
L 1939.323437 20.678125 
Q 1939.323437 22.678125 1941.323437 22.678125 
z
" style="fill:#ffffff;opacity:0.8;stroke:#cccccc;stroke-linejoin:miter;"/>
   </g>
   <g id="line2d_15">
    <path d="M 1943.323437 13.098437 
L 1963.323437 13.098437 
" style="fill:none;stroke:#0000ff;stroke-linecap:square;stroke-width:1.5;"/>
   </g>
   <g id="line2d_16"/>
   <g id="text_18">
    <text style="font-family:DejaVu Sans;font-size:10px;font-stretch:normal;font-style:normal;font-weight:normal;text-anchor:start;" transform="rotate(-0, 1971.323437, 16.598437)" x="1971.323437" y="16.598437">Throughput[Bit/s]</text>
   </g>
  </g>
 </g>
 <defs>
  <clipPath id="p83aaabfe5b">
   <rect height="1774.08" width="1785.6" x="50.14375" y="278.68"/>
  </clipPath>
 </defs>
</svg>
