<?xml version="1.0" encoding="utf-8" standalone="no"?>
<!DOCTYPE svg PUBLIC "-//W3C//DTD SVG 1.1//EN"
  "http://www.w3.org/Graphics/SVG/1.1/DTD/svg11.dtd">
<!-- Created with matplotlib (https://matplotlib.org/) -->
<svg height="2090.31625pt" version="1.1" viewBox="0 0 2061.98125 2090.31625" width="2061.98125pt" xmlns="http://www.w3.org/2000/svg" xmlns:xlink="http://www.w3.org/1999/xlink">
 <metadata>
  <rdf:RDF xmlns:cc="http://creativecommons.org/ns#" xmlns:dc="http://purl.org/dc/elements/1.1/" xmlns:rdf="http://www.w3.org/1999/02/22-rdf-syntax-ns#">
   <cc:Work>
    <dc:type rdf:resource="http://purl.org/dc/dcmitype/StillImage"/>
    <dc:date>2022-07-23T20:51:04.800128</dc:date>
    <dc:format>image/svg+xml</dc:format>
    <dc:creator>
     <cc:Agent>
      <dc:title>Matplotlib v3.3.2, https://matplotlib.org/</dc:title>
     </cc:Agent>
    </dc:creator>
   </cc:Work>
  </rdf:RDF>
 </metadata>
 <defs>
  <style type="text/css">*{stroke-linecap:butt;stroke-linejoin:round;}</style>
 </defs>
 <g id="figure_1">
  <g id="patch_1">
   <path d="M 0 2090.31625 
L 2061.98125 2090.31625 
L 2061.98125 0 
L 0 0 
z
" style="fill:#ffffff;"/>
  </g>
  <g id="axes_1">
   <g id="patch_2">
    <path d="M 43.78125 2052.76 
L 1829.38125 2052.76 
L 1829.38125 278.68 
L 43.78125 278.68 
z
" style="fill:#ffffff;"/>
   </g>
   <g id="matplotlib.axis_1">
    <g id="xtick_1">
     <g id="line2d_1">
      <defs>
       <path d="M 0 0 
L 0 3.5 
" id="mc66676c356" style="stroke:#000000;stroke-width:0.8;"/>
      </defs>
      <g>
       <use style="stroke:#000000;stroke-width:0.8;" x="124.944886" xlink:href="#mc66676c356" y="2052.76"/>
      </g>
     </g>
     <g id="text_1">
      <text style="font-family:DejaVu Sans;font-size:10px;font-stretch:normal;font-style:normal;font-weight:normal;text-anchor:middle;" transform="rotate(-0, 124.944886, 2067.358438)" x="124.944886" y="2067.358438">30</text>
     </g>
    </g>
    <g id="xtick_2">
     <g id="line2d_2">
      <g>
       <use style="stroke:#000000;stroke-width:0.8;" x="356.84099" xlink:href="#mc66676c356" y="2052.76"/>
      </g>
     </g>
     <g id="text_2">
      <text style="font-family:DejaVu Sans;font-size:10px;font-stretch:normal;font-style:normal;font-weight:normal;text-anchor:middle;" transform="rotate(-0, 356.84099, 2067.358438)" x="356.84099" y="2067.358438">40</text>
     </g>
    </g>
    <g id="xtick_3">
     <g id="line2d_3">
      <g>
       <use style="stroke:#000000;stroke-width:0.8;" x="588.737094" xlink:href="#mc66676c356" y="2052.76"/>
      </g>
     </g>
     <g id="text_3">
      <text style="font-family:DejaVu Sans;font-size:10px;font-stretch:normal;font-style:normal;font-weight:normal;text-anchor:middle;" transform="rotate(-0, 588.737094, 2067.358438)" x="588.737094" y="2067.358438">50</text>
     </g>
    </g>
    <g id="xtick_4">
     <g id="line2d_4">
      <g>
       <use style="stroke:#000000;stroke-width:0.8;" x="820.633198" xlink:href="#mc66676c356" y="2052.76"/>
      </g>
     </g>
     <g id="text_4">
      <text style="font-family:DejaVu Sans;font-size:10px;font-stretch:normal;font-style:normal;font-weight:normal;text-anchor:middle;" transform="rotate(-0, 820.633198, 2067.358438)" x="820.633198" y="2067.358438">60</text>
     </g>
    </g>
    <g id="xtick_5">
     <g id="line2d_5">
      <g>
       <use style="stroke:#000000;stroke-width:0.8;" x="1052.529302" xlink:href="#mc66676c356" y="2052.76"/>
      </g>
     </g>
     <g id="text_5">
      <text style="font-family:DejaVu Sans;font-size:10px;font-stretch:normal;font-style:normal;font-weight:normal;text-anchor:middle;" transform="rotate(-0, 1052.529302, 2067.358438)" x="1052.529302" y="2067.358438">70</text>
     </g>
    </g>
    <g id="xtick_6">
     <g id="line2d_6">
      <g>
       <use style="stroke:#000000;stroke-width:0.8;" x="1284.425406" xlink:href="#mc66676c356" y="2052.76"/>
      </g>
     </g>
     <g id="text_6">
      <text style="font-family:DejaVu Sans;font-size:10px;font-stretch:normal;font-style:normal;font-weight:normal;text-anchor:middle;" transform="rotate(-0, 1284.425406, 2067.358438)" x="1284.425406" y="2067.358438">80</text>
     </g>
    </g>
    <g id="xtick_7">
     <g id="line2d_7">
      <g>
       <use style="stroke:#000000;stroke-width:0.8;" x="1516.32151" xlink:href="#mc66676c356" y="2052.76"/>
      </g>
     </g>
     <g id="text_7">
      <text style="font-family:DejaVu Sans;font-size:10px;font-stretch:normal;font-style:normal;font-weight:normal;text-anchor:middle;" transform="rotate(-0, 1516.32151, 2067.358438)" x="1516.32151" y="2067.358438">90</text>
     </g>
    </g>
    <g id="xtick_8">
     <g id="line2d_8">
      <g>
       <use style="stroke:#000000;stroke-width:0.8;" x="1748.217614" xlink:href="#mc66676c356" y="2052.76"/>
      </g>
     </g>
     <g id="text_8">
      <text style="font-family:DejaVu Sans;font-size:10px;font-stretch:normal;font-style:normal;font-weight:normal;text-anchor:middle;" transform="rotate(-0, 1748.217614, 2067.358438)" x="1748.217614" y="2067.358438">100</text>
     </g>
    </g>
    <g id="text_9">
     <text style="font-family:DejaVu Sans;font-size:10px;font-stretch:normal;font-style:normal;font-weight:normal;text-anchor:middle;" transform="rotate(-0, 936.58125, 2081.036562)" x="936.58125" y="2081.036562">humidity from BuienRadar</text>
    </g>
   </g>
   <g id="matplotlib.axis_2">
    <g id="ytick_1">
     <g id="line2d_9">
      <defs>
       <path d="M 0 0 
L -3.5 0 
" id="m8ce12ce3b3" style="stroke:#000000;stroke-width:0.8;"/>
      </defs>
      <g>
       <use style="stroke:#000000;stroke-width:0.8;" x="43.78125" xlink:href="#m8ce12ce3b3" y="1819.312495"/>
      </g>
     </g>
     <g id="text_10">
      <text style="font-family:DejaVu Sans;font-size:10px;font-stretch:normal;font-style:normal;font-weight:normal;text-anchor:end;" transform="rotate(-0, 36.78125, 1823.111714)" x="36.78125" y="1823.111714">5.1</text>
     </g>
    </g>
    <g id="ytick_2">
     <g id="line2d_10">
      <g>
       <use style="stroke:#000000;stroke-width:0.8;" x="43.78125" xlink:href="#m8ce12ce3b3" y="1516.723377"/>
      </g>
     </g>
     <g id="text_11">
      <text style="font-family:DejaVu Sans;font-size:10px;font-stretch:normal;font-style:normal;font-weight:normal;text-anchor:end;" transform="rotate(-0, 36.78125, 1520.522596)" x="36.78125" y="1520.522596">5.2</text>
     </g>
    </g>
    <g id="ytick_3">
     <g id="line2d_11">
      <g>
       <use style="stroke:#000000;stroke-width:0.8;" x="43.78125" xlink:href="#m8ce12ce3b3" y="1214.134259"/>
      </g>
     </g>
     <g id="text_12">
      <text style="font-family:DejaVu Sans;font-size:10px;font-stretch:normal;font-style:normal;font-weight:normal;text-anchor:end;" transform="rotate(-0, 36.78125, 1217.933478)" x="36.78125" y="1217.933478">5.3</text>
     </g>
    </g>
    <g id="ytick_4">
     <g id="line2d_12">
      <g>
       <use style="stroke:#000000;stroke-width:0.8;" x="43.78125" xlink:href="#m8ce12ce3b3" y="911.545141"/>
      </g>
     </g>
     <g id="text_13">
      <text style="font-family:DejaVu Sans;font-size:10px;font-stretch:normal;font-style:normal;font-weight:normal;text-anchor:end;" transform="rotate(-0, 36.78125, 915.344359)" x="36.78125" y="915.344359">5.4</text>
     </g>
    </g>
    <g id="ytick_5">
     <g id="line2d_13">
      <g>
       <use style="stroke:#000000;stroke-width:0.8;" x="43.78125" xlink:href="#m8ce12ce3b3" y="608.956023"/>
      </g>
     </g>
     <g id="text_14">
      <text style="font-family:DejaVu Sans;font-size:10px;font-stretch:normal;font-style:normal;font-weight:normal;text-anchor:end;" transform="rotate(-0, 36.78125, 612.755241)" x="36.78125" y="612.755241">5.5</text>
     </g>
    </g>
    <g id="ytick_6">
     <g id="line2d_14">
      <g>
       <use style="stroke:#000000;stroke-width:0.8;" x="43.78125" xlink:href="#m8ce12ce3b3" y="306.366904"/>
      </g>
     </g>
     <g id="text_15">
      <text style="font-family:DejaVu Sans;font-size:10px;font-stretch:normal;font-style:normal;font-weight:normal;text-anchor:end;" transform="rotate(-0, 36.78125, 310.166123)" x="36.78125" y="310.166123">5.6</text>
     </g>
    </g>
    <g id="text_16">
     <text style="font-family:DejaVu Sans;font-size:10px;font-stretch:normal;font-style:normal;font-weight:normal;text-anchor:middle;" transform="rotate(-90, 14.798437, 1165.72)" x="14.798437" y="1165.72">ping[ms]</text>
    </g>
   </g>
   <g id="line2d_15">
    <path clip-path="url(#pc729239a78)" d="M 124.944886 1265.574409 
L 148.134497 1972.12 
L 171.324107 1926.731632 
L 194.513718 1749.716998 
L 217.703328 1500.080976 
L 240.892938 1442.589043 
L 264.082549 1489.490356 
L 287.272159 890.363902 
L 310.461769 1822.338386 
L 333.65138 969.037073 
L 356.84099 1519.749268 
L 380.030601 1678.608555 
L 403.220211 996.270094 
L 426.409821 1267.087355 
L 449.599432 1274.652083 
L 472.789042 876.747392 
L 495.978653 599.878349 
L 519.168263 808.664841 
L 542.357873 1041.658462 
L 565.547484 987.19242 
L 588.737094 1188.414184 
L 611.926705 1195.978912 
L 635.116315 813.203677 
L 658.305925 993.244203 
L 681.495536 1009.886604 
L 704.685146 929.700488 
L 727.874756 887.338011 
L 751.064367 838.923752 
L 774.253977 835.897861 
L 797.443588 733.017561 
L 820.633198 695.193921 
L 843.822808 854.053208 
L 867.012419 908.51925 
L 890.202029 937.265216 
L 913.39164 1003.834822 
L 936.58125 1006.860713 
L 959.77086 863.130882 
L 982.960471 811.690732 
L 1006.150081 1011.39955 
L 1029.339692 793.535385 
L 1052.529302 669.473846 
L 1075.718912 848.001426 
L 1098.908523 804.126004 
L 1122.098133 878.260338 
L 1145.287744 775.380038 
L 1168.477354 1031.067842 
L 1191.666964 776.892983 
L 1214.856575 657.370281 
L 1238.046185 734.530507 
L 1261.235795 760.250582 
L 1284.425406 841.949644 
L 1307.615016 884.31212 
L 1330.804627 605.930131 
L 1353.994237 814.716623 
L 1377.183847 1129.409306 
L 1400.373458 890.363902 
L 1423.563068 984.166529 
L 1446.752679 636.189043 
L 1469.942289 1035.606679 
L 1493.131899 972.062964 
L 1516.32151 695.193921 
L 1539.51112 866.156773 
L 1562.700731 693.680976 
L 1585.890341 872.208555 
L 1609.079951 758.737636 
L 1632.269562 595.339512 
L 1655.459172 599.878349 
L 1678.648782 359.32 
L 1701.838393 917.596923 
L 1725.028003 1071.917373 
L 1748.217614 1825.364278 
" style="fill:none;stroke:#0000ff;stroke-linecap:square;stroke-width:1.5;"/>
   </g>
   <g id="patch_3">
    <path d="M 43.78125 2052.76 
L 43.78125 278.68 
" style="fill:none;stroke:#000000;stroke-linecap:square;stroke-linejoin:miter;stroke-width:0.8;"/>
   </g>
   <g id="patch_4">
    <path d="M 1829.38125 2052.76 
L 1829.38125 278.68 
" style="fill:none;stroke:#000000;stroke-linecap:square;stroke-linejoin:miter;stroke-width:0.8;"/>
   </g>
   <g id="patch_5">
    <path d="M 43.78125 2052.76 
L 1829.38125 2052.76 
" style="fill:none;stroke:#000000;stroke-linecap:square;stroke-linejoin:miter;stroke-width:0.8;"/>
   </g>
   <g id="patch_6">
    <path d="M 43.78125 278.68 
L 1829.38125 278.68 
" style="fill:none;stroke:#000000;stroke-linecap:square;stroke-linejoin:miter;stroke-width:0.8;"/>
   </g>
   <g id="text_17">
    <text style="font-family:DejaVu Sans;font-size:12px;font-stretch:normal;font-style:normal;font-weight:normal;text-anchor:middle;" transform="rotate(-0, 936.58125, 272.68)" x="936.58125" y="272.68">humidity-&gt;ping</text>
   </g>
  </g>
  <g id="legend_1">
   <g id="patch_7">
    <path d="M 1978.415625 22.678125 
L 2054.98125 22.678125 
Q 2056.98125 22.678125 2056.98125 20.678125 
L 2056.98125 7 
Q 2056.98125 5 2054.98125 5 
L 1978.415625 5 
Q 1976.415625 5 1976.415625 7 
L 1976.415625 20.678125 
Q 1976.415625 22.678125 1978.415625 22.678125 
z
" style="fill:#ffffff;opacity:0.8;stroke:#cccccc;stroke-linejoin:miter;"/>
   </g>
   <g id="line2d_16">
    <path d="M 1980.415625 13.098437 
L 2000.415625 13.098437 
" style="fill:none;stroke:#0000ff;stroke-linecap:square;stroke-width:1.5;"/>
   </g>
   <g id="line2d_17"/>
   <g id="text_18">
    <text style="font-family:DejaVu Sans;font-size:10px;font-stretch:normal;font-style:normal;font-weight:normal;text-anchor:start;" transform="rotate(-0, 2008.415625, 16.598437)" x="2008.415625" y="16.598437">ping[ms]</text>
   </g>
  </g>
 </g>
 <defs>
  <clipPath id="pc729239a78">
   <rect height="1774.08" width="1785.6" x="43.78125" y="278.68"/>
  </clipPath>
 </defs>
</svg>
