<?xml version="1.0" encoding="utf-8" standalone="no"?>
<!DOCTYPE svg PUBLIC "-//W3C//DTD SVG 1.1//EN"
  "http://www.w3.org/Graphics/SVG/1.1/DTD/svg11.dtd">
<!-- Created with matplotlib (https://matplotlib.org/) -->
<svg height="2090.594375pt" version="1.1" viewBox="0 0 2058.803125 2090.594375" width="2058.803125pt" xmlns="http://www.w3.org/2000/svg" xmlns:xlink="http://www.w3.org/1999/xlink">
 <metadata>
  <rdf:RDF xmlns:cc="http://creativecommons.org/ns#" xmlns:dc="http://purl.org/dc/elements/1.1/" xmlns:rdf="http://www.w3.org/1999/02/22-rdf-syntax-ns#">
   <cc:Work>
    <dc:type rdf:resource="http://purl.org/dc/dcmitype/StillImage"/>
    <dc:date>2022-07-24T11:27:43.775120</dc:date>
    <dc:format>image/svg+xml</dc:format>
    <dc:creator>
     <cc:Agent>
      <dc:title>Matplotlib v3.3.2, https://matplotlib.org/</dc:title>
     </cc:Agent>
    </dc:creator>
   </cc:Work>
  </rdf:RDF>
 </metadata>
 <defs>
  <style type="text/css">*{stroke-linecap:butt;stroke-linejoin:round;}</style>
 </defs>
 <g id="figure_1">
  <g id="patch_1">
   <path d="M 0 2090.594375 
L 2058.803125 2090.594375 
L 2058.803125 0 
L 0 0 
z
" style="fill:#ffffff;"/>
  </g>
  <g id="axes_1">
   <g id="patch_2">
    <path d="M 40.603125 2052.76 
L 1826.203125 2052.76 
L 1826.203125 278.68 
L 40.603125 278.68 
z
" style="fill:#ffffff;"/>
   </g>
   <g id="matplotlib.axis_1">
    <g id="xtick_1">
     <g id="line2d_1">
      <defs>
       <path d="M 0 0 
L 0 3.5 
" id="m7ee10cb032" style="stroke:#000000;stroke-width:0.8;"/>
      </defs>
      <g>
       <use style="stroke:#000000;stroke-width:0.8;" x="105.807619" xlink:href="#m7ee10cb032" y="2052.76"/>
      </g>
     </g>
     <g id="text_1">
      <text style="font-family:DejaVu Sans;font-size:10px;font-stretch:normal;font-style:normal;font-weight:normal;text-anchor:middle;" transform="rotate(-0, 105.807619, 2067.358437)" x="105.807619" y="2067.358437">0</text>
     </g>
    </g>
    <g id="xtick_2">
     <g id="line2d_2">
      <g>
       <use style="stroke:#000000;stroke-width:0.8;" x="333.795362" xlink:href="#m7ee10cb032" y="2052.76"/>
      </g>
     </g>
     <g id="text_2">
      <text style="font-family:DejaVu Sans;font-size:10px;font-stretch:normal;font-style:normal;font-weight:normal;text-anchor:middle;" transform="rotate(-0, 333.795362, 2067.358437)" x="333.795362" y="2067.358437">2</text>
     </g>
    </g>
    <g id="xtick_3">
     <g id="line2d_3">
      <g>
       <use style="stroke:#000000;stroke-width:0.8;" x="561.783105" xlink:href="#m7ee10cb032" y="2052.76"/>
      </g>
     </g>
     <g id="text_3">
      <text style="font-family:DejaVu Sans;font-size:10px;font-stretch:normal;font-style:normal;font-weight:normal;text-anchor:middle;" transform="rotate(-0, 561.783105, 2067.358437)" x="561.783105" y="2067.358437">4</text>
     </g>
    </g>
    <g id="xtick_4">
     <g id="line2d_4">
      <g>
       <use style="stroke:#000000;stroke-width:0.8;" x="789.770847" xlink:href="#m7ee10cb032" y="2052.76"/>
      </g>
     </g>
     <g id="text_4">
      <text style="font-family:DejaVu Sans;font-size:10px;font-stretch:normal;font-style:normal;font-weight:normal;text-anchor:middle;" transform="rotate(-0, 789.770847, 2067.358437)" x="789.770847" y="2067.358437">6</text>
     </g>
    </g>
    <g id="xtick_5">
     <g id="line2d_5">
      <g>
       <use style="stroke:#000000;stroke-width:0.8;" x="1017.75859" xlink:href="#m7ee10cb032" y="2052.76"/>
      </g>
     </g>
     <g id="text_5">
      <text style="font-family:DejaVu Sans;font-size:10px;font-stretch:normal;font-style:normal;font-weight:normal;text-anchor:middle;" transform="rotate(-0, 1017.75859, 2067.358437)" x="1017.75859" y="2067.358437">8</text>
     </g>
    </g>
    <g id="xtick_6">
     <g id="line2d_6">
      <g>
       <use style="stroke:#000000;stroke-width:0.8;" x="1245.746332" xlink:href="#m7ee10cb032" y="2052.76"/>
      </g>
     </g>
     <g id="text_6">
      <text style="font-family:DejaVu Sans;font-size:10px;font-stretch:normal;font-style:normal;font-weight:normal;text-anchor:middle;" transform="rotate(-0, 1245.746332, 2067.358437)" x="1245.746332" y="2067.358437">10</text>
     </g>
    </g>
    <g id="xtick_7">
     <g id="line2d_7">
      <g>
       <use style="stroke:#000000;stroke-width:0.8;" x="1473.734075" xlink:href="#m7ee10cb032" y="2052.76"/>
      </g>
     </g>
     <g id="text_7">
      <text style="font-family:DejaVu Sans;font-size:10px;font-stretch:normal;font-style:normal;font-weight:normal;text-anchor:middle;" transform="rotate(-0, 1473.734075, 2067.358437)" x="1473.734075" y="2067.358437">12</text>
     </g>
    </g>
    <g id="xtick_8">
     <g id="line2d_8">
      <g>
       <use style="stroke:#000000;stroke-width:0.8;" x="1701.721818" xlink:href="#m7ee10cb032" y="2052.76"/>
      </g>
     </g>
     <g id="text_8">
      <text style="font-family:DejaVu Sans;font-size:10px;font-stretch:normal;font-style:normal;font-weight:normal;text-anchor:middle;" transform="rotate(-0, 1701.721818, 2067.358437)" x="1701.721818" y="2067.358437">14</text>
     </g>
    </g>
    <g id="text_9">
     <text style="font-family:DejaVu Sans;font-size:10px;font-stretch:normal;font-style:normal;font-weight:normal;text-anchor:middle;" transform="rotate(-0, 933.403125, 2081.036562)" x="933.403125" y="2081.036562">wind_speed from OpenWeatherMap</text>
    </g>
   </g>
   <g id="matplotlib.axis_2">
    <g id="ytick_1">
     <g id="line2d_9">
      <defs>
       <path d="M 0 0 
L -3.5 0 
" id="m672fb2ab63" style="stroke:#000000;stroke-width:0.8;"/>
      </defs>
      <g>
       <use style="stroke:#000000;stroke-width:0.8;" x="40.603125" xlink:href="#m672fb2ab63" y="1976.896671"/>
      </g>
     </g>
     <g id="text_10">
      <text style="font-family:DejaVu Sans;font-size:10px;font-stretch:normal;font-style:normal;font-weight:normal;text-anchor:end;" transform="rotate(-0, 33.603125, 1980.695889)" x="33.603125" y="1980.695889">5</text>
     </g>
    </g>
    <g id="ytick_2">
     <g id="line2d_10">
      <g>
       <use style="stroke:#000000;stroke-width:0.8;" x="40.603125" xlink:href="#m672fb2ab63" y="1731.939198"/>
      </g>
     </g>
     <g id="text_11">
      <text style="font-family:DejaVu Sans;font-size:10px;font-stretch:normal;font-style:normal;font-weight:normal;text-anchor:end;" transform="rotate(-0, 33.603125, 1735.738417)" x="33.603125" y="1735.738417">6</text>
     </g>
    </g>
    <g id="ytick_3">
     <g id="line2d_11">
      <g>
       <use style="stroke:#000000;stroke-width:0.8;" x="40.603125" xlink:href="#m672fb2ab63" y="1486.981725"/>
      </g>
     </g>
     <g id="text_12">
      <text style="font-family:DejaVu Sans;font-size:10px;font-stretch:normal;font-style:normal;font-weight:normal;text-anchor:end;" transform="rotate(-0, 33.603125, 1490.780944)" x="33.603125" y="1490.780944">7</text>
     </g>
    </g>
    <g id="ytick_4">
     <g id="line2d_12">
      <g>
       <use style="stroke:#000000;stroke-width:0.8;" x="40.603125" xlink:href="#m672fb2ab63" y="1242.024253"/>
      </g>
     </g>
     <g id="text_13">
      <text style="font-family:DejaVu Sans;font-size:10px;font-stretch:normal;font-style:normal;font-weight:normal;text-anchor:end;" transform="rotate(-0, 33.603125, 1245.823471)" x="33.603125" y="1245.823471">8</text>
     </g>
    </g>
    <g id="ytick_5">
     <g id="line2d_13">
      <g>
       <use style="stroke:#000000;stroke-width:0.8;" x="40.603125" xlink:href="#m672fb2ab63" y="997.06678"/>
      </g>
     </g>
     <g id="text_14">
      <text style="font-family:DejaVu Sans;font-size:10px;font-stretch:normal;font-style:normal;font-weight:normal;text-anchor:end;" transform="rotate(-0, 33.603125, 1000.865999)" x="33.603125" y="1000.865999">9</text>
     </g>
    </g>
    <g id="ytick_6">
     <g id="line2d_14">
      <g>
       <use style="stroke:#000000;stroke-width:0.8;" x="40.603125" xlink:href="#m672fb2ab63" y="752.109307"/>
      </g>
     </g>
     <g id="text_15">
      <text style="font-family:DejaVu Sans;font-size:10px;font-stretch:normal;font-style:normal;font-weight:normal;text-anchor:end;" transform="rotate(-0, 33.603125, 755.908526)" x="33.603125" y="755.908526">10</text>
     </g>
    </g>
    <g id="ytick_7">
     <g id="line2d_15">
      <g>
       <use style="stroke:#000000;stroke-width:0.8;" x="40.603125" xlink:href="#m672fb2ab63" y="507.151835"/>
      </g>
     </g>
     <g id="text_16">
      <text style="font-family:DejaVu Sans;font-size:10px;font-stretch:normal;font-style:normal;font-weight:normal;text-anchor:end;" transform="rotate(-0, 33.603125, 510.951054)" x="33.603125" y="510.951054">11</text>
     </g>
    </g>
    <g id="text_17">
     <text style="font-family:DejaVu Sans;font-size:10px;font-stretch:normal;font-style:normal;font-weight:normal;text-anchor:middle;" transform="rotate(-90, 14.798438, 1165.72)" x="14.798438" y="1165.72">ping[ms]</text>
    </g>
   </g>
   <g id="line2d_16">
    <path clip-path="url(#p44ef4a8749)" d="M 121.766761 1946.521944 
L 130.886271 1842.415018 
L 137.725903 1879.158639 
L 141.145719 1860.174435 
L 144.565536 1880.628384 
L 145.705474 1898.387801 
L 152.545107 1894.835917 
L 159.384739 1625.872612 
L 165.084432 1956.442722 
L 169.644187 1882.588044 
L 175.343881 1863.971276 
L 178.763697 1901.204812 
L 179.903636 1947.624253 
L 185.603329 1916.637132 
L 186.743268 1795.873098 
L 187.883207 1896.060705 
L 190.163084 1871.197521 
L 191.303023 1861.031786 
L 193.5829 1925.210644 
L 194.722839 1905.736525 
L 195.862778 1859.929478 
L 200.422533 1873.769575 
L 201.562471 1914.92243 
L 202.70241 1917.249526 
L 203.842349 1848.04904 
L 206.122226 1892.018906 
L 210.681981 1969.302989 
L 211.82192 1871.687436 
L 212.961858 1935.2539 
L 217.521613 1947.011859 
L 218.661552 1900.469939 
L 219.801491 1947.134338 
L 220.941429 1878.791203 
L 224.361246 1733.408943 
L 225.501184 1909.655844 
L 226.641123 1898.142843 
L 228.921 1906.961312 
L 231.200878 1831.881847 
L 232.340817 1870.462649 
L 233.480755 1903.409429 
L 235.760633 1928.395091 
L 236.900571 1819.633973 
L 238.04051 1808.978323 
L 239.180449 1892.6313 
L 240.320388 1880.383426 
L 241.460326 1580.55548 
L 243.740204 1884.180267 
L 246.020081 1865.685978 
L 247.16002 1774.071883 
L 249.439897 1721.161069 
L 250.579836 1934.029113 
L 251.719775 1875.361798 
L 252.859713 1881.853171 
L 253.999652 1884.547704 
L 256.279529 1917.494484 
L 257.419468 1529.604326 
L 258.559407 1915.167388 
L 259.699346 1905.614046 
L 260.839284 1863.971276 
L 261.979223 1906.716355 
L 264.2591 1736.348433 
L 265.399039 1886.507363 
L 266.538978 1927.415261 
L 267.678917 1914.677473 
L 269.958794 1916.759611 
L 271.098733 1841.680146 
L 272.238671 1897.775407 
L 273.37861 1919.82158 
L 275.658488 1861.521701 
L 279.078304 1915.90226 
L 280.218242 1883.567874 
L 283.638059 1934.763985 
L 284.777997 1938.928262 
L 285.917936 1857.847339 
L 287.057875 1906.348919 
L 288.197813 1806.651227 
L 291.61763 1844.619635 
L 295.037446 1876.954022 
L 297.317323 1805.42644 
L 298.457262 1899.857546 
L 300.737139 1849.02887 
L 301.877078 1841.680146 
L 303.017017 1793.423524 
L 304.156955 1892.018906 
L 305.296894 1873.034702 
L 306.436833 1923.863378 
L 307.576772 1926.067995 
L 308.71671 1814.734824 
L 309.856649 1824.410644 
L 312.136526 1845.10955 
L 313.276465 1920.311495 
L 314.416404 1901.204812 
L 315.556343 1894.346002 
L 316.696281 1932.804326 
L 317.83622 1734.756209 
L 318.976159 1781.053171 
L 321.256036 1945.297157 
L 322.395975 1914.065079 
L 323.535914 1854.172977 
L 324.675852 1943.827412 
L 325.815791 1897.53045 
L 328.095668 1682.580267 
L 329.235607 1849.886221 
L 330.375546 1870.585128 
L 331.515485 1798.567631 
L 332.655423 1854.662892 
L 333.795362 1863.481361 
L 334.935301 1941.867752 
L 336.075239 1815.714654 
L 337.215178 1908.063621 
L 338.355117 1915.167388 
L 339.495056 1921.536282 
L 340.634994 1903.164471 
L 341.774933 1888.344544 
L 342.914872 1940.887922 
L 344.05481 1886.8748 
L 345.194749 1895.448311 
L 346.334688 1903.164471 
L 347.474627 1936.23373 
L 348.614565 1737.083305 
L 349.754504 1908.063621 
L 350.894443 1828.452442 
L 352.034381 1935.866294 
L 353.17432 1828.452442 
L 354.314259 1018.37808 
L 355.454198 1939.663135 
L 356.594136 1947.746731 
L 357.734075 1864.216233 
L 358.874014 1889.814289 
L 360.013952 1910.390717 
L 361.153891 1815.10226 
L 362.29383 1845.599465 
L 363.433769 1887.242236 
L 364.573707 1891.896428 
L 365.713646 1923.985857 
L 366.853585 1740.635188 
L 367.993523 1900.469939 
L 369.133462 1886.139927 
L 370.273401 1768.682819 
L 371.41334 1934.27407 
L 372.553278 1838.985614 
L 373.693217 1921.046367 
L 375.973094 1813.877473 
L 377.113033 1716.996792 
L 378.252972 1886.139927 
L 379.39291 1931.824496 
L 380.532849 1887.854629 
L 381.672788 1933.539198 
L 382.812727 1913.452685 
L 383.952665 1901.449769 
L 385.092604 1852.458275 
L 386.232543 1841.925103 
L 387.372481 1902.552078 
L 388.51242 1854.785371 
L 389.652359 1862.746488 
L 390.792298 1919.699101 
L 391.932236 1880.260948 
L 394.212114 1949.338955 
L 395.352052 1904.389259 
L 396.491991 1920.801409 
L 397.63193 1910.758153 
L 398.771869 1929.007485 
L 399.911807 1909.533366 
L 401.051746 1870.830085 
L 402.191685 1874.871883 
L 403.331623 1867.890595 
L 404.471562 1899.245152 
L 405.611501 1910.023281 
L 406.75144 1911.370547 
L 407.891378 1895.203354 
L 409.031317 1914.554994 
L 410.171256 1866.665808 
L 411.311194 1870.217691 
L 412.451133 1715.404569 
L 413.591072 1884.792661 
L 414.731011 1870.462649 
L 415.870949 1909.288408 
L 418.150827 1920.311495 
L 419.290765 1899.245152 
L 420.430704 1865.930936 
L 421.570643 1855.642722 
L 422.710582 1911.737983 
L 423.85052 1880.628384 
L 424.990459 1766.478202 
L 426.130398 1876.464107 
L 427.270336 1838.740656 
L 428.410275 1873.769575 
L 429.550214 1875.974192 
L 430.690153 1903.531908 
L 431.830091 1880.99582 
L 432.97003 1929.129964 
L 434.109969 1918.964228 
L 435.249907 1852.580753 
L 436.389846 1795.505662 
L 437.529785 1870.34017 
L 438.669724 1878.423767 
L 439.809662 1918.351835 
L 440.949601 1877.933852 
L 442.08954 1856.010158 
L 443.229478 1743.207242 
L 444.369417 1900.469939 
L 445.509356 1916.392175 
L 446.649295 1919.82158 
L 447.789233 1859.68452 
L 448.929172 1784.11514 
L 451.209049 1888.711981 
L 452.348988 1840.945273 
L 453.488927 1878.668724 
L 454.628866 1853.683062 
L 455.768804 1904.021823 
L 456.908743 1917.127047 
L 458.048682 1905.859004 
L 459.18862 1873.524617 
L 460.328559 1816.939441 
L 462.608437 1836.291081 
L 463.748375 1841.680146 
L 464.888314 1895.693269 
L 466.028253 1881.853171 
L 467.168191 1794.893269 
L 468.30813 1928.150134 
L 469.448069 1861.521701 
L 470.588008 1865.196063 
L 471.727946 1833.963985 
L 472.867885 1841.435188 
L 474.007824 1857.847339 
L 475.147762 1890.916598 
L 476.287701 1892.6313 
L 477.42764 1875.974192 
L 478.567579 1936.846124 
L 479.707517 1810.448068 
L 480.847456 1863.60384 
L 481.987395 1926.190474 
L 483.127333 1787.789502 
L 484.267272 1905.124131 
L 485.407211 1756.679903 
L 486.54715 1786.0748 
L 487.687088 1920.678931 
L 488.827027 1871.932394 
L 489.966966 1898.755237 
L 491.106904 1896.795577 
L 492.246843 1895.693269 
L 493.386782 1905.614046 
L 494.526721 1858.337254 
L 495.666659 1827.962527 
L 496.806598 1901.082333 
L 497.946537 1802.976865 
L 499.086475 1928.762527 
L 500.226414 1909.288408 
L 501.366353 1885.037618 
L 502.506291 1921.536282 
L 503.64623 1859.929478 
L 504.786169 1936.478688 
L 505.926108 1911.615504 
L 507.066046 1883.812831 
L 508.205985 1894.346002 
L 509.345924 1911.248068 
L 510.485862 1831.881847 
L 511.625801 1906.348919 
L 512.76574 1863.726318 
L 513.905679 1944.562284 
L 515.045617 1909.043451 
L 516.185556 1925.945516 
L 517.325495 1893.243694 
L 518.465433 1905.24661 
L 519.605372 1874.994362 
L 520.745311 1898.755237 
L 523.025188 1882.098129 
L 524.165127 1901.204812 
L 525.305066 1906.593876 
L 526.445004 1939.418177 
L 527.584943 1867.768117 
L 528.724882 1902.919514 
L 529.864821 1941.745273 
L 531.004759 1923.006027 
L 533.284637 1911.125589 
L 534.424575 1925.333123 
L 535.564514 1850.498615 
L 536.704453 1918.84175 
L 537.844392 1950.441264 
L 538.98433 1715.037132 
L 540.124269 1930.599708 
L 541.264208 1898.755237 
L 542.404146 1947.134338 
L 543.544085 1911.248068 
L 544.684024 1918.474313 
L 545.823963 1865.930936 
L 546.963901 1933.294241 
L 548.10384 1904.879174 
L 549.243779 1923.006027 
L 550.383717 1875.361798 
L 551.523656 1801.752078 
L 552.663595 1895.080875 
L 553.803534 1892.141385 
L 554.943472 1904.144301 
L 557.22335 1891.528991 
L 558.363288 1894.835917 
L 559.503227 1872.544787 
L 561.783105 1698.869939 
L 562.923043 1796.73045 
L 564.062982 1914.432515 
L 565.202921 1844.374678 
L 566.342859 1870.095213 
L 567.482798 1881.118299 
L 568.622737 1912.227898 
L 569.762676 1877.688894 
L 570.902614 1895.938226 
L 572.042553 1952.523402 
L 573.182492 1928.762527 
L 574.32243 1727.285006 
L 575.462369 1911.737983 
L 576.602308 1912.227898 
L 577.742247 1914.187558 
L 578.882185 1931.946974 
L 580.022124 1932.314411 
L 581.162063 1972.12 
L 582.302001 1774.806756 
L 583.44194 1870.952564 
L 584.581879 1911.98294 
L 585.721818 1882.343086 
L 589.141634 1901.204812 
L 591.421511 1825.880389 
L 592.56145 1910.268238 
L 594.841327 1928.027655 
L 595.981266 1889.201896 
L 597.121205 1886.017448 
L 598.261143 1893.978566 
L 599.401082 1929.129964 
L 600.541021 1937.948433 
L 601.68096 1863.726318 
L 602.820898 1782.15548 
L 605.100776 1878.913682 
L 607.380653 1878.423767 
L 608.520592 1797.832758 
L 609.660531 1859.562041 
L 610.800469 1839.965443 
L 611.940408 1910.023281 
L 613.080347 1907.818663 
L 614.220285 1914.677473 
L 615.360224 1938.560826 
L 616.500163 1890.181725 
L 619.919979 1733.776379 
L 621.059918 1740.022795 
L 622.199856 1842.659976 
L 623.339795 1888.222066 
L 624.479734 1897.040535 
L 625.619672 1613.379781 
L 626.759611 1867.40068 
L 627.89955 1864.951106 
L 629.039489 1838.985614 
L 630.179427 1885.89497 
L 631.319366 1898.510279 
L 633.599243 1871.32 
L 635.879121 1821.838591 
L 638.158998 1656.002382 
L 639.298937 1934.641507 
L 640.438876 1653.920243 
L 641.578814 1944.929721 
L 642.718753 1945.174678 
L 643.858692 1900.959854 
L 644.998631 1901.204812 
L 646.138569 1910.268238 
L 648.418447 1828.452442 
L 649.558385 1890.059247 
L 650.698324 1438.235188 
L 651.838263 1813.020122 
L 652.978202 1917.86192 
L 654.11814 1882.343086 
L 655.258079 1896.305662 
L 656.398018 1865.808457 
L 657.537956 1875.851713 
L 658.677895 1875.729235 
L 659.817834 1839.230571 
L 660.957773 1923.006027 
L 663.23765 1818.04175 
L 664.377589 1897.897886 
L 665.517527 1899.490109 
L 666.657466 1941.622795 
L 667.797405 1818.654143 
L 668.937344 1862.868967 
L 670.077282 1902.062163 
L 671.217221 1757.782211 
L 672.35716 1857.112467 
L 673.497098 1834.821337 
L 674.637037 1894.59096 
L 676.916915 1843.639806 
L 678.056853 1894.346002 
L 679.196792 1939.295699 
L 681.476669 1829.432272 
L 682.616608 1806.40627 
L 683.756547 1888.711981 
L 686.036424 1840.455358 
L 687.176363 1938.070911 
L 688.316302 1795.873098 
L 689.45624 1797.955237 
L 690.596179 1817.674313 
L 691.736118 1853.683062 
L 692.876057 1810.325589 
L 694.015995 1938.683305 
L 695.155934 1925.57808 
L 696.295873 1859.194605 
L 697.435811 1898.265322 
L 698.57575 1899.612588 
L 699.715689 1889.69181 
L 700.855628 1869.482819 
L 701.995566 1692.623524 
L 704.275444 1910.758153 
L 705.415382 1875.729235 
L 707.69526 1822.573463 
L 708.835199 1826.002868 
L 709.975137 1836.046124 
L 711.115076 1880.138469 
L 712.255015 1859.806999 
L 713.394953 1887.977108 
L 714.534892 1856.622552 
L 715.674831 1911.248068 
L 717.954708 1787.544544 
L 719.094647 1785.339927 
L 720.234586 1941.622795 
L 721.374524 1884.302746 
L 724.794341 1905.369089 
L 725.934279 1827.472612 
L 727.074218 1837.025954 
L 728.214157 1910.268238 
L 729.354095 1892.386343 
L 730.494034 1892.263864 
L 731.633973 1865.318542 
L 732.773912 1849.763742 
L 733.91385 1845.844423 
L 735.053789 1851.478445 
L 736.193728 1679.763256 
L 737.333666 1860.296914 
L 738.473605 1913.9426 
L 739.613544 1677.558639 
L 740.753483 1864.461191 
L 741.893421 1852.335796 
L 744.173299 1815.837132 
L 746.453176 1835.311252 
L 747.593115 1922.026197 
L 748.733053 1907.083791 
L 749.872992 1796.852928 
L 751.012931 1849.273827 
L 752.15287 1938.19339 
L 753.292808 1898.755237 
L 755.572686 1886.507363 
L 756.712624 1924.965687 
L 757.852563 1805.42644 
L 758.992502 1908.1861 
L 760.132441 1630.404326 
L 761.272379 1860.66435 
L 762.412318 1863.971276 
L 763.552257 1906.838834 
L 764.692195 1884.792661 
L 765.832134 1846.211859 
L 768.112012 1854.172977 
L 769.25195 1749.331179 
L 770.391889 1787.911981 
L 771.531828 1840.577837 
L 772.671766 1852.458275 
L 774.951644 1855.152807 
L 776.091583 1706.953536 
L 777.231521 1811.795334 
L 778.37146 1904.634216 
L 780.651337 1810.325589 
L 782.931215 1850.0087 
L 785.211092 1902.674557 
L 786.351031 1952.76836 
L 787.49097 1790.728991 
L 788.630908 1747.371519 
L 789.770847 1805.671397 
L 790.910786 1747.738955 
L 792.050725 1812.040292 
L 794.330602 1893.61113 
L 795.470541 1738.798007 
L 796.610479 1677.681118 
L 797.750418 1839.230571 
L 798.890357 1911.98294 
L 800.030296 1867.645638 
L 802.310173 1895.203354 
L 803.450112 1911.737983 
L 804.59005 1920.923888 
L 806.869928 1852.458275 
L 808.009867 1857.847339 
L 810.289744 1803.834216 
L 811.429683 1731.326804 
L 812.569621 1811.795334 
L 813.70956 1922.026197 
L 814.849499 1816.204569 
L 815.989438 1923.985857 
L 817.129376 1710.627898 
L 819.409254 1888.956938 
L 820.549192 1887.732151 
L 821.689131 1831.881847 
L 822.82907 1742.349891 
L 823.969009 1737.695699 
L 825.108947 1834.331422 
L 826.248886 1882.220608 
L 828.528763 1858.827169 
L 831.94858 1225.612102 
L 833.088518 1849.273827 
L 835.368396 1753.128019 
L 836.508334 1817.429356 
L 837.648273 1428.926804 
L 838.788212 1874.994362 
L 839.928151 1943.337497 
L 842.208028 1916.759611 
L 843.347967 1879.403597 
L 844.487905 1861.889137 
L 845.627844 1799.914897 
L 846.767783 1877.443937 
L 847.907722 1862.011616 
L 849.04766 1857.112467 
L 850.187599 1834.331422 
L 851.327538 1744.921944 
L 853.607415 1849.02887 
L 854.747354 1855.030328 
L 855.887293 1882.343086 
L 859.307109 1752.515626 
L 860.447047 1891.406513 
L 861.586986 1906.593876 
L 862.726925 1894.223524 
L 863.866864 1847.559125 
L 865.006802 1819.389016 
L 866.146741 1905.124131 
L 867.28668 1804.079174 
L 868.426618 1726.795091 
L 870.706496 1890.181725 
L 871.846434 1822.450984 
L 874.126312 1798.935067 
L 875.266251 1884.057789 
L 876.406189 1765.988287 
L 877.546128 1815.714654 
L 878.686067 1936.23373 
L 880.965944 1845.232029 
L 882.105883 1844.129721 
L 883.245822 1798.322673 
L 884.38576 1841.680146 
L 885.525699 1792.688651 
L 886.665638 1907.941142 
L 888.945515 1722.875772 
L 890.085454 1928.150134 
L 891.225393 1844.742114 
L 892.365331 1845.599465 
L 893.50527 1885.037618 
L 894.645209 1337.067752 
L 895.785147 1883.567874 
L 896.925086 1909.655844 
L 898.065025 1759.374435 
L 899.204964 1914.799951 
L 900.344902 1742.104933 
L 901.484841 1787.299587 
L 904.904657 1866.665808 
L 906.044596 1654.532637 
L 907.184535 1920.678931 
L 908.324473 1824.655601 
L 909.464412 1883.322916 
L 910.604351 1268.969575 
L 911.744289 1473.386586 
L 912.884228 1868.870425 
L 914.024167 1925.210644 
L 915.164106 1877.688894 
L 917.443983 1829.432272 
L 919.72386 1872.054872 
L 922.003738 1854.050498 
L 923.143677 1918.229356 
L 924.283615 1916.269696 
L 927.703431 1855.397764 
L 928.84337 1838.985614 
L 929.983309 1887.487193 
L 932.263186 1907.818663 
L 934.543064 1897.040535 
L 935.683002 1905.001652 
L 941.382696 1871.932394 
L 942.522635 1803.956695 
L 943.662573 1756.679903 
L 945.942451 1822.328505 
L 947.08239 1782.890352 
L 948.222328 1923.985857 
L 949.362267 1799.669939 
L 950.502206 1835.801166 
L 951.642144 1896.060705 
L 952.782083 1898.265322 
L 953.922022 1608.235674 
L 959.621715 1856.622552 
L 960.761654 1822.81842 
L 961.901593 1749.576136 
L 964.18147 1893.856087 
L 967.601286 1858.827169 
L 969.881164 1864.216233 
L 971.021103 1820.491324 
L 973.30098 1877.198979 
L 977.860735 1902.674557 
L 980.140612 1737.083305 
L 981.280551 1819.878931 
L 983.560428 1758.88452 
L 984.700367 1895.57079 
L 985.840306 1805.181482 
L 988.120183 1839.475529 
L 989.260122 1636.160826 
L 990.400061 1799.302503 
L 993.819877 1861.031786 
L 997.239693 1858.70469 
L 1000.659509 1893.366173 
L 1002.939386 582.598736 
L 1004.079325 1834.331422 
L 1005.219264 1839.475529 
L 1007.499141 1757.169818 
L 1008.63908 1822.083548 
L 1009.779019 1818.899101 
L 1012.058896 1945.664593 
L 1014.338774 1924.475772 
L 1016.618651 1818.654143 
L 1021.178406 1835.556209 
L 1022.318345 1916.024739 
L 1023.458283 1829.187315 
L 1025.738161 1890.181725 
L 1028.018038 1739.165443 
L 1029.157977 1927.415261 
L 1033.717732 1666.535553 
L 1035.997609 1837.148433 
L 1041.697303 1957.177594 
L 1043.97718 1765.988287 
L 1046.257058 1872.544787 
L 1047.396996 1871.197521 
L 1049.676874 1812.285249 
L 1056.516506 1778.726075 
L 1057.656445 1807.141142 
L 1061.076261 1839.230571 
L 1069.055832 1836.046124 
L 1071.335709 1769.172734 
L 1073.615587 1739.53288 
L 1080.455219 1740.880146 
L 1087.294851 1625.505176 
L 1088.43479 1833.596549 
L 1090.714667 359.32 
L 1095.274422 1472.03932 
L 1104.393932 1809.345759 
L 1111.233564 1787.054629 
L 1112.373503 1899.000194 
L 1114.65338 1576.391203 
L 1128.332645 1804.201652 
L 1145.431726 1726.550134 
L 1151.131419 1743.697157 
L 1159.11099 1833.596549 
L 1165.950622 1856.377594 
L 1175.070132 1771.132394 
L 1194.44909 1453.422552 
L 1202.428661 1791.708821 
L 1211.548171 1789.504204 
L 1238.9067 1784.850012 
L 1244.606394 1747.493998 
L 1420.156955 1851.723402 
L 1745.039489 1796.240535 
L 1745.039489 1796.240535 
" style="fill:none;stroke:#0000ff;stroke-linecap:square;stroke-width:1.5;"/>
   </g>
   <g id="patch_3">
    <path d="M 40.603125 2052.76 
L 40.603125 278.68 
" style="fill:none;stroke:#000000;stroke-linecap:square;stroke-linejoin:miter;stroke-width:0.8;"/>
   </g>
   <g id="patch_4">
    <path d="M 1826.203125 2052.76 
L 1826.203125 278.68 
" style="fill:none;stroke:#000000;stroke-linecap:square;stroke-linejoin:miter;stroke-width:0.8;"/>
   </g>
   <g id="patch_5">
    <path d="M 40.603125 2052.76 
L 1826.203125 2052.76 
" style="fill:none;stroke:#000000;stroke-linecap:square;stroke-linejoin:miter;stroke-width:0.8;"/>
   </g>
   <g id="patch_6">
    <path d="M 40.603125 278.68 
L 1826.203125 278.68 
" style="fill:none;stroke:#000000;stroke-linecap:square;stroke-linejoin:miter;stroke-width:0.8;"/>
   </g>
   <g id="text_18">
    <text style="font-family:DejaVu Sans;font-size:12px;font-stretch:normal;font-style:normal;font-weight:normal;text-anchor:middle;" transform="rotate(-0, 933.403125, 272.68)" x="933.403125" y="272.68">wind_speed-&gt;ping</text>
   </g>
  </g>
  <g id="legend_1">
   <g id="patch_7">
    <path d="M 1975.2375 22.678125 
L 2051.803125 22.678125 
Q 2053.803125 22.678125 2053.803125 20.678125 
L 2053.803125 7 
Q 2053.803125 5 2051.803125 5 
L 1975.2375 5 
Q 1973.2375 5 1973.2375 7 
L 1973.2375 20.678125 
Q 1973.2375 22.678125 1975.2375 22.678125 
z
" style="fill:#ffffff;opacity:0.8;stroke:#cccccc;stroke-linejoin:miter;"/>
   </g>
   <g id="line2d_17">
    <path d="M 1977.2375 13.098437 
L 1997.2375 13.098437 
" style="fill:none;stroke:#0000ff;stroke-linecap:square;stroke-width:1.5;"/>
   </g>
   <g id="line2d_18"/>
   <g id="text_19">
    <text style="font-family:DejaVu Sans;font-size:10px;font-stretch:normal;font-style:normal;font-weight:normal;text-anchor:start;" transform="rotate(-0, 2005.2375, 16.598437)" x="2005.2375" y="16.598437">ping[ms]</text>
   </g>
  </g>
 </g>
 <defs>
  <clipPath id="p44ef4a8749">
   <rect height="1774.08" width="1785.6" x="40.603125" y="278.68"/>
  </clipPath>
 </defs>
</svg>
