<?xml version="1.0" encoding="utf-8" standalone="no"?>
<!DOCTYPE svg PUBLIC "-//W3C//DTD SVG 1.1//EN"
  "http://www.w3.org/Graphics/SVG/1.1/DTD/svg11.dtd">
<!-- Created with matplotlib (https://matplotlib.org/) -->
<svg height="2090.594375pt" version="1.1" viewBox="0 0 2065.44375 2090.594375" width="2065.44375pt" xmlns="http://www.w3.org/2000/svg" xmlns:xlink="http://www.w3.org/1999/xlink">
 <metadata>
  <rdf:RDF xmlns:cc="http://creativecommons.org/ns#" xmlns:dc="http://purl.org/dc/elements/1.1/" xmlns:rdf="http://www.w3.org/1999/02/22-rdf-syntax-ns#">
   <cc:Work>
    <dc:type rdf:resource="http://purl.org/dc/dcmitype/StillImage"/>
    <dc:date>2022-07-23T21:31:08.965934</dc:date>
    <dc:format>image/svg+xml</dc:format>
    <dc:creator>
     <cc:Agent>
      <dc:title>Matplotlib v3.3.2, https://matplotlib.org/</dc:title>
     </cc:Agent>
    </dc:creator>
   </cc:Work>
  </rdf:RDF>
 </metadata>
 <defs>
  <style type="text/css">*{stroke-linecap:butt;stroke-linejoin:round;}</style>
 </defs>
 <g id="figure_1">
  <g id="patch_1">
   <path d="M 0 2090.594375 
L 2065.44375 2090.594375 
L 2065.44375 0 
L 0 0 
z
" style="fill:#ffffff;"/>
  </g>
  <g id="axes_1">
   <g id="patch_2">
    <path d="M 47.24375 2052.76 
L 1832.84375 2052.76 
L 1832.84375 278.68 
L 47.24375 278.68 
z
" style="fill:#ffffff;"/>
   </g>
   <g id="matplotlib.axis_1">
    <g id="xtick_1">
     <g id="line2d_1">
      <defs>
       <path d="M 0 0 
L 0 3.5 
" id="m1d53b8252e" style="stroke:#000000;stroke-width:0.8;"/>
      </defs>
      <g>
       <use style="stroke:#000000;stroke-width:0.8;" x="395.142342" xlink:href="#m1d53b8252e" y="2052.76"/>
      </g>
     </g>
     <g id="text_1">
      <text style="font-family:DejaVu Sans;font-size:10px;font-stretch:normal;font-style:normal;font-weight:normal;text-anchor:middle;" transform="rotate(-0, 395.142342, 2067.358437)" x="395.142342" y="2067.358437">1010</text>
     </g>
    </g>
    <g id="xtick_2">
     <g id="line2d_2">
      <g>
       <use style="stroke:#000000;stroke-width:0.8;" x="776.192278" xlink:href="#m1d53b8252e" y="2052.76"/>
      </g>
     </g>
     <g id="text_2">
      <text style="font-family:DejaVu Sans;font-size:10px;font-stretch:normal;font-style:normal;font-weight:normal;text-anchor:middle;" transform="rotate(-0, 776.192278, 2067.358437)" x="776.192278" y="2067.358437">1015</text>
     </g>
    </g>
    <g id="xtick_3">
     <g id="line2d_3">
      <g>
       <use style="stroke:#000000;stroke-width:0.8;" x="1157.242214" xlink:href="#m1d53b8252e" y="2052.76"/>
      </g>
     </g>
     <g id="text_3">
      <text style="font-family:DejaVu Sans;font-size:10px;font-stretch:normal;font-style:normal;font-weight:normal;text-anchor:middle;" transform="rotate(-0, 1157.242214, 2067.358437)" x="1157.242214" y="2067.358437">1020</text>
     </g>
    </g>
    <g id="xtick_4">
     <g id="line2d_4">
      <g>
       <use style="stroke:#000000;stroke-width:0.8;" x="1538.292149" xlink:href="#m1d53b8252e" y="2052.76"/>
      </g>
     </g>
     <g id="text_4">
      <text style="font-family:DejaVu Sans;font-size:10px;font-stretch:normal;font-style:normal;font-weight:normal;text-anchor:middle;" transform="rotate(-0, 1538.292149, 2067.358437)" x="1538.292149" y="2067.358437">1025</text>
     </g>
    </g>
    <g id="text_5">
     <text style="font-family:DejaVu Sans;font-size:10px;font-stretch:normal;font-style:normal;font-weight:normal;text-anchor:middle;" transform="rotate(-0, 940.04375, 2081.036562)" x="940.04375" y="2081.036562">air_pressure from Aeris</text>
    </g>
   </g>
   <g id="matplotlib.axis_2">
    <g id="ytick_1">
     <g id="line2d_5">
      <defs>
       <path d="M 0 0 
L -3.5 0 
" id="mf737a01ded" style="stroke:#000000;stroke-width:0.8;"/>
      </defs>
      <g>
       <use style="stroke:#000000;stroke-width:0.8;" x="47.24375" xlink:href="#mf737a01ded" y="1972.12"/>
      </g>
     </g>
     <g id="text_6">
      <text style="font-family:DejaVu Sans;font-size:10px;font-stretch:normal;font-style:normal;font-weight:normal;text-anchor:end;" transform="rotate(-0, 40.24375, 1975.919219)" x="40.24375" y="1975.919219">0</text>
     </g>
    </g>
    <g id="ytick_2">
     <g id="line2d_6">
      <g>
       <use style="stroke:#000000;stroke-width:0.8;" x="47.24375" xlink:href="#mf737a01ded" y="1688.67536"/>
      </g>
     </g>
     <g id="text_7">
      <text style="font-family:DejaVu Sans;font-size:10px;font-stretch:normal;font-style:normal;font-weight:normal;text-anchor:end;" transform="rotate(-0, 40.24375, 1692.474579)" x="40.24375" y="1692.474579">100</text>
     </g>
    </g>
    <g id="ytick_3">
     <g id="line2d_7">
      <g>
       <use style="stroke:#000000;stroke-width:0.8;" x="47.24375" xlink:href="#mf737a01ded" y="1405.230721"/>
      </g>
     </g>
     <g id="text_8">
      <text style="font-family:DejaVu Sans;font-size:10px;font-stretch:normal;font-style:normal;font-weight:normal;text-anchor:end;" transform="rotate(-0, 40.24375, 1409.029939)" x="40.24375" y="1409.029939">200</text>
     </g>
    </g>
    <g id="ytick_4">
     <g id="line2d_8">
      <g>
       <use style="stroke:#000000;stroke-width:0.8;" x="47.24375" xlink:href="#mf737a01ded" y="1121.786081"/>
      </g>
     </g>
     <g id="text_9">
      <text style="font-family:DejaVu Sans;font-size:10px;font-stretch:normal;font-style:normal;font-weight:normal;text-anchor:end;" transform="rotate(-0, 40.24375, 1125.5853)" x="40.24375" y="1125.5853">300</text>
     </g>
    </g>
    <g id="ytick_5">
     <g id="line2d_9">
      <g>
       <use style="stroke:#000000;stroke-width:0.8;" x="47.24375" xlink:href="#mf737a01ded" y="838.341441"/>
      </g>
     </g>
     <g id="text_10">
      <text style="font-family:DejaVu Sans;font-size:10px;font-stretch:normal;font-style:normal;font-weight:normal;text-anchor:end;" transform="rotate(-0, 40.24375, 842.14066)" x="40.24375" y="842.14066">400</text>
     </g>
    </g>
    <g id="ytick_6">
     <g id="line2d_10">
      <g>
       <use style="stroke:#000000;stroke-width:0.8;" x="47.24375" xlink:href="#mf737a01ded" y="554.896801"/>
      </g>
     </g>
     <g id="text_11">
      <text style="font-family:DejaVu Sans;font-size:10px;font-stretch:normal;font-style:normal;font-weight:normal;text-anchor:end;" transform="rotate(-0, 40.24375, 558.69602)" x="40.24375" y="558.69602">500</text>
     </g>
    </g>
    <g id="text_12">
     <text style="font-family:DejaVu Sans;font-size:10px;font-stretch:normal;font-style:normal;font-weight:normal;text-anchor:middle;" transform="rotate(-90, 14.798438, 1165.72)" x="14.798438" y="1165.72">Retransmission_night[dimensionless]</text>
    </g>
   </g>
   <g id="line2d_11">
    <path clip-path="url(#pb477fe3eaf)" d="M 128.407386 1972.12 
L 158.891381 1708.516485 
L 181.754377 1972.12 
L 196.996375 1969.285554 
L 204.617374 526.552337 
L 227.48037 1972.12 
L 242.722367 1671.668682 
L 250.343366 1972.12 
L 257.964365 1969.285554 
L 273.206362 1960.782214 
L 280.827361 1694.344253 
L 296.069358 1294.687311 
L 303.690357 1972.12 
L 326.553353 1957.947768 
L 334.174352 1957.947768 
L 349.416349 1969.285554 
L 357.037348 1340.038453 
L 372.279345 1240.83283 
L 379.900344 917.70594 
L 402.76334 1972.12 
L 410.384339 1393.892935 
L 425.626336 1972.12 
L 448.489333 1337.204007 
L 478.973327 1096.276063 
L 486.594326 1306.025097 
L 501.836324 1561.125272 
L 524.69932 1561.125272 
L 532.320319 1929.603304 
L 578.046311 1535.615255 
L 600.909307 1833.232127 
L 631.393302 1887.086608 
L 654.256298 1972.12 
L 677.119294 1294.687311 
L 684.740293 1872.914376 
L 707.603289 1739.695395 
L 730.466285 1169.97167 
L 753.329281 1773.708752 
L 783.813276 1972.12 
L 806.676272 1963.616661 
L 829.539269 1481.760773 
L 852.402265 1056.593814 
L 860.023263 1742.529842 
L 882.88626 1478.926327 
L 890.507258 359.32 
L 905.749256 909.202601 
L 936.233251 1583.800844 
L 1035.306234 1422.237399 
L 1042.927233 1323.031775 
L 1088.653225 1592.304183 
L 1096.274224 1595.138629 
L 1111.516221 1297.521757 
L 1142.000216 1546.95304 
L 1164.863212 1291.852865 
L 1187.726208 1439.244077 
L 1241.073199 1966.451107 
L 1263.936196 1969.285554 
L 1317.283187 1972.12 
L 1340.146183 1972.12 
L 1393.493174 1972.12 
L 1416.35617 1887.086608 
L 1469.703161 1855.907698 
L 1492.566157 1960.782214 
L 1568.776144 1969.285554 
L 1622.123135 1972.12 
L 1644.986132 1388.224042 
L 1698.333123 1272.01174 
L 1751.680114 1147.296098 
" style="fill:none;stroke:#0000ff;stroke-linecap:square;stroke-width:1.5;"/>
   </g>
   <g id="patch_3">
    <path d="M 47.24375 2052.76 
L 47.24375 278.68 
" style="fill:none;stroke:#000000;stroke-linecap:square;stroke-linejoin:miter;stroke-width:0.8;"/>
   </g>
   <g id="patch_4">
    <path d="M 1832.84375 2052.76 
L 1832.84375 278.68 
" style="fill:none;stroke:#000000;stroke-linecap:square;stroke-linejoin:miter;stroke-width:0.8;"/>
   </g>
   <g id="patch_5">
    <path d="M 47.24375 2052.76 
L 1832.84375 2052.76 
" style="fill:none;stroke:#000000;stroke-linecap:square;stroke-linejoin:miter;stroke-width:0.8;"/>
   </g>
   <g id="patch_6">
    <path d="M 47.24375 278.68 
L 1832.84375 278.68 
" style="fill:none;stroke:#000000;stroke-linecap:square;stroke-linejoin:miter;stroke-width:0.8;"/>
   </g>
   <g id="text_13">
    <text style="font-family:DejaVu Sans;font-size:12px;font-stretch:normal;font-style:normal;font-weight:normal;text-anchor:middle;" transform="rotate(-0, 940.04375, 272.68)" x="940.04375" y="272.68">air_pressure-&gt;Retransmission_night</text>
   </g>
  </g>
  <g id="legend_1">
   <g id="patch_7">
    <path d="M 1840.2375 22.95625 
L 2058.44375 22.95625 
Q 2060.44375 22.95625 2060.44375 20.95625 
L 2060.44375 7 
Q 2060.44375 5 2058.44375 5 
L 1840.2375 5 
Q 1838.2375 5 1838.2375 7 
L 1838.2375 20.95625 
Q 1838.2375 22.95625 1840.2375 22.95625 
z
" style="fill:#ffffff;opacity:0.8;stroke:#cccccc;stroke-linejoin:miter;"/>
   </g>
   <g id="line2d_12">
    <path d="M 1842.2375 13.098438 
L 1862.2375 13.098438 
" style="fill:none;stroke:#0000ff;stroke-linecap:square;stroke-width:1.5;"/>
   </g>
   <g id="line2d_13"/>
   <g id="text_14">
    <text style="font-family:DejaVu Sans;font-size:10px;font-stretch:normal;font-style:normal;font-weight:normal;text-anchor:start;" transform="rotate(-0, 1870.2375, 16.598438)" x="1870.2375" y="16.598438">Retransmission_night[dimensionless]</text>
   </g>
  </g>
 </g>
 <defs>
  <clipPath id="pb477fe3eaf">
   <rect height="1774.08" width="1785.6" x="47.24375" y="278.68"/>
  </clipPath>
 </defs>
</svg>
