<?xml version="1.0" encoding="utf-8" standalone="no"?>
<!DOCTYPE svg PUBLIC "-//W3C//DTD SVG 1.1//EN"
  "http://www.w3.org/Graphics/SVG/1.1/DTD/svg11.dtd">
<!-- Created with matplotlib (https://matplotlib.org/) -->
<svg height="2090.31625pt" version="1.1" viewBox="0 0 2065.44375 2090.31625" width="2065.44375pt" xmlns="http://www.w3.org/2000/svg" xmlns:xlink="http://www.w3.org/1999/xlink">
 <metadata>
  <rdf:RDF xmlns:cc="http://creativecommons.org/ns#" xmlns:dc="http://purl.org/dc/elements/1.1/" xmlns:rdf="http://www.w3.org/1999/02/22-rdf-syntax-ns#">
   <cc:Work>
    <dc:type rdf:resource="http://purl.org/dc/dcmitype/StillImage"/>
    <dc:date>2022-07-24T12:06:37.328774</dc:date>
    <dc:format>image/svg+xml</dc:format>
    <dc:creator>
     <cc:Agent>
      <dc:title>Matplotlib v3.3.2, https://matplotlib.org/</dc:title>
     </cc:Agent>
    </dc:creator>
   </cc:Work>
  </rdf:RDF>
 </metadata>
 <defs>
  <style type="text/css">*{stroke-linecap:butt;stroke-linejoin:round;}</style>
 </defs>
 <g id="figure_1">
  <g id="patch_1">
   <path d="M 0 2090.31625 
L 2065.44375 2090.31625 
L 2065.44375 0 
L 0 0 
z
" style="fill:#ffffff;"/>
  </g>
  <g id="axes_1">
   <g id="patch_2">
    <path d="M 47.24375 2052.76 
L 1832.84375 2052.76 
L 1832.84375 278.68 
L 47.24375 278.68 
z
" style="fill:#ffffff;"/>
   </g>
   <g id="matplotlib.axis_1">
    <g id="xtick_1">
     <g id="line2d_1">
      <defs>
       <path d="M 0 0 
L 0 3.5 
" id="m250de2cb54" style="stroke:#000000;stroke-width:0.8;"/>
      </defs>
      <g>
       <use style="stroke:#000000;stroke-width:0.8;" x="254.304776" xlink:href="#m250de2cb54" y="2052.76"/>
      </g>
     </g>
     <g id="text_1">
      <text style="font-family:DejaVu Sans;font-size:10px;font-stretch:normal;font-style:normal;font-weight:normal;text-anchor:middle;" transform="rotate(-0, 254.304776, 2067.358438)" x="254.304776" y="2067.358438">7.5</text>
     </g>
    </g>
    <g id="xtick_2">
     <g id="line2d_2">
      <g>
       <use style="stroke:#000000;stroke-width:0.8;" x="477.527098" xlink:href="#m250de2cb54" y="2052.76"/>
      </g>
     </g>
     <g id="text_2">
      <text style="font-family:DejaVu Sans;font-size:10px;font-stretch:normal;font-style:normal;font-weight:normal;text-anchor:middle;" transform="rotate(-0, 477.527098, 2067.358438)" x="477.527098" y="2067.358438">10.0</text>
     </g>
    </g>
    <g id="xtick_3">
     <g id="line2d_3">
      <g>
       <use style="stroke:#000000;stroke-width:0.8;" x="700.749421" xlink:href="#m250de2cb54" y="2052.76"/>
      </g>
     </g>
     <g id="text_3">
      <text style="font-family:DejaVu Sans;font-size:10px;font-stretch:normal;font-style:normal;font-weight:normal;text-anchor:middle;" transform="rotate(-0, 700.749421, 2067.358438)" x="700.749421" y="2067.358438">12.5</text>
     </g>
    </g>
    <g id="xtick_4">
     <g id="line2d_4">
      <g>
       <use style="stroke:#000000;stroke-width:0.8;" x="923.971743" xlink:href="#m250de2cb54" y="2052.76"/>
      </g>
     </g>
     <g id="text_4">
      <text style="font-family:DejaVu Sans;font-size:10px;font-stretch:normal;font-style:normal;font-weight:normal;text-anchor:middle;" transform="rotate(-0, 923.971743, 2067.358438)" x="923.971743" y="2067.358438">15.0</text>
     </g>
    </g>
    <g id="xtick_5">
     <g id="line2d_5">
      <g>
       <use style="stroke:#000000;stroke-width:0.8;" x="1147.194065" xlink:href="#m250de2cb54" y="2052.76"/>
      </g>
     </g>
     <g id="text_5">
      <text style="font-family:DejaVu Sans;font-size:10px;font-stretch:normal;font-style:normal;font-weight:normal;text-anchor:middle;" transform="rotate(-0, 1147.194065, 2067.358438)" x="1147.194065" y="2067.358438">17.5</text>
     </g>
    </g>
    <g id="xtick_6">
     <g id="line2d_6">
      <g>
       <use style="stroke:#000000;stroke-width:0.8;" x="1370.416387" xlink:href="#m250de2cb54" y="2052.76"/>
      </g>
     </g>
     <g id="text_6">
      <text style="font-family:DejaVu Sans;font-size:10px;font-stretch:normal;font-style:normal;font-weight:normal;text-anchor:middle;" transform="rotate(-0, 1370.416387, 2067.358438)" x="1370.416387" y="2067.358438">20.0</text>
     </g>
    </g>
    <g id="xtick_7">
     <g id="line2d_7">
      <g>
       <use style="stroke:#000000;stroke-width:0.8;" x="1593.638709" xlink:href="#m250de2cb54" y="2052.76"/>
      </g>
     </g>
     <g id="text_7">
      <text style="font-family:DejaVu Sans;font-size:10px;font-stretch:normal;font-style:normal;font-weight:normal;text-anchor:middle;" transform="rotate(-0, 1593.638709, 2067.358438)" x="1593.638709" y="2067.358438">22.5</text>
     </g>
    </g>
    <g id="xtick_8">
     <g id="line2d_8">
      <g>
       <use style="stroke:#000000;stroke-width:0.8;" x="1816.861032" xlink:href="#m250de2cb54" y="2052.76"/>
      </g>
     </g>
     <g id="text_8">
      <text style="font-family:DejaVu Sans;font-size:10px;font-stretch:normal;font-style:normal;font-weight:normal;text-anchor:middle;" transform="rotate(-0, 1816.861032, 2067.358438)" x="1816.861032" y="2067.358438">25.0</text>
     </g>
    </g>
    <g id="text_9">
     <text style="font-family:DejaVu Sans;font-size:10px;font-stretch:normal;font-style:normal;font-weight:normal;text-anchor:middle;" transform="rotate(-0, 940.04375, 2081.036562)" x="940.04375" y="2081.036562">temperature from Aeris</text>
    </g>
   </g>
   <g id="matplotlib.axis_2">
    <g id="ytick_1">
     <g id="line2d_9">
      <defs>
       <path d="M 0 0 
L -3.5 0 
" id="m8501b885f7" style="stroke:#000000;stroke-width:0.8;"/>
      </defs>
      <g>
       <use style="stroke:#000000;stroke-width:0.8;" x="47.24375" xlink:href="#m8501b885f7" y="1972.12"/>
      </g>
     </g>
     <g id="text_10">
      <text style="font-family:DejaVu Sans;font-size:10px;font-stretch:normal;font-style:normal;font-weight:normal;text-anchor:end;" transform="rotate(-0, 40.24375, 1975.919219)" x="40.24375" y="1975.919219">0</text>
     </g>
    </g>
    <g id="ytick_2">
     <g id="line2d_10">
      <g>
       <use style="stroke:#000000;stroke-width:0.8;" x="47.24375" xlink:href="#m8501b885f7" y="1774.230429"/>
      </g>
     </g>
     <g id="text_11">
      <text style="font-family:DejaVu Sans;font-size:10px;font-stretch:normal;font-style:normal;font-weight:normal;text-anchor:end;" transform="rotate(-0, 40.24375, 1778.029648)" x="40.24375" y="1778.029648">100</text>
     </g>
    </g>
    <g id="ytick_3">
     <g id="line2d_11">
      <g>
       <use style="stroke:#000000;stroke-width:0.8;" x="47.24375" xlink:href="#m8501b885f7" y="1576.340859"/>
      </g>
     </g>
     <g id="text_12">
      <text style="font-family:DejaVu Sans;font-size:10px;font-stretch:normal;font-style:normal;font-weight:normal;text-anchor:end;" transform="rotate(-0, 40.24375, 1580.140078)" x="40.24375" y="1580.140078">200</text>
     </g>
    </g>
    <g id="ytick_4">
     <g id="line2d_12">
      <g>
       <use style="stroke:#000000;stroke-width:0.8;" x="47.24375" xlink:href="#m8501b885f7" y="1378.451288"/>
      </g>
     </g>
     <g id="text_13">
      <text style="font-family:DejaVu Sans;font-size:10px;font-stretch:normal;font-style:normal;font-weight:normal;text-anchor:end;" transform="rotate(-0, 40.24375, 1382.250507)" x="40.24375" y="1382.250507">300</text>
     </g>
    </g>
    <g id="ytick_5">
     <g id="line2d_13">
      <g>
       <use style="stroke:#000000;stroke-width:0.8;" x="47.24375" xlink:href="#m8501b885f7" y="1180.561718"/>
      </g>
     </g>
     <g id="text_14">
      <text style="font-family:DejaVu Sans;font-size:10px;font-stretch:normal;font-style:normal;font-weight:normal;text-anchor:end;" transform="rotate(-0, 40.24375, 1184.360937)" x="40.24375" y="1184.360937">400</text>
     </g>
    </g>
    <g id="ytick_6">
     <g id="line2d_14">
      <g>
       <use style="stroke:#000000;stroke-width:0.8;" x="47.24375" xlink:href="#m8501b885f7" y="982.672147"/>
      </g>
     </g>
     <g id="text_15">
      <text style="font-family:DejaVu Sans;font-size:10px;font-stretch:normal;font-style:normal;font-weight:normal;text-anchor:end;" transform="rotate(-0, 40.24375, 986.471366)" x="40.24375" y="986.471366">500</text>
     </g>
    </g>
    <g id="ytick_7">
     <g id="line2d_15">
      <g>
       <use style="stroke:#000000;stroke-width:0.8;" x="47.24375" xlink:href="#m8501b885f7" y="784.782577"/>
      </g>
     </g>
     <g id="text_16">
      <text style="font-family:DejaVu Sans;font-size:10px;font-stretch:normal;font-style:normal;font-weight:normal;text-anchor:end;" transform="rotate(-0, 40.24375, 788.581795)" x="40.24375" y="788.581795">600</text>
     </g>
    </g>
    <g id="ytick_8">
     <g id="line2d_16">
      <g>
       <use style="stroke:#000000;stroke-width:0.8;" x="47.24375" xlink:href="#m8501b885f7" y="586.893006"/>
      </g>
     </g>
     <g id="text_17">
      <text style="font-family:DejaVu Sans;font-size:10px;font-stretch:normal;font-style:normal;font-weight:normal;text-anchor:end;" transform="rotate(-0, 40.24375, 590.692225)" x="40.24375" y="590.692225">700</text>
     </g>
    </g>
    <g id="ytick_9">
     <g id="line2d_17">
      <g>
       <use style="stroke:#000000;stroke-width:0.8;" x="47.24375" xlink:href="#m8501b885f7" y="389.003436"/>
      </g>
     </g>
     <g id="text_18">
      <text style="font-family:DejaVu Sans;font-size:10px;font-stretch:normal;font-style:normal;font-weight:normal;text-anchor:end;" transform="rotate(-0, 40.24375, 392.802654)" x="40.24375" y="392.802654">800</text>
     </g>
    </g>
    <g id="text_19">
     <text style="font-family:DejaVu Sans;font-size:10px;font-stretch:normal;font-style:normal;font-weight:normal;text-anchor:middle;" transform="rotate(-90, 14.798438, 1165.72)" x="14.798438" y="1165.72">Retransmission_night[dimensionless]</text>
    </g>
   </g>
   <g id="line2d_18">
    <path clip-path="url(#p86890c8951)" d="M 128.407386 1370.535706 
L 129.300276 1202.329571 
L 162.337179 1350.746748 
L 165.908736 1578.319755 
L 169.480294 1443.754847 
L 171.266072 1295.337669 
L 173.051851 1404.176933 
L 173.94474 1317.105521 
L 175.730519 1233.991902 
L 178.409187 1752.462577 
L 179.302076 1283.464294 
L 181.980744 1665.391166 
L 205.195865 1350.746748 
L 206.088755 1224.097423 
L 208.767422 1235.970798 
L 209.660312 1194.413988 
L 210.553201 1228.055215 
L 212.33898 1386.366871 
L 213.231869 984.651043 
L 214.124758 1275.548712 
L 215.017647 1358.662331 
L 219.482094 1400.219141 
L 220.374983 1182.540613 
L 223.053651 1439.797055 
L 223.94654 1952.331043 
L 224.83943 1968.162209 
L 225.732319 1972.12 
L 226.625208 1536.762945 
L 227.518097 1340.85227 
L 228.410987 1827.660613 
L 256.090555 1410.11362 
L 256.983444 1702.990184 
L 257.876333 1423.96589 
L 258.769223 1425.944785 
L 259.662112 1358.662331 
L 260.555001 1431.881472 
L 261.44789 1752.462577 
L 262.34078 1972.12 
L 263.233669 1970.141104 
L 265.019448 1416.050307 
L 265.912337 1404.176933 
L 266.805226 1948.373252 
L 267.698115 1746.52589 
L 268.591005 1453.649325 
L 270.376783 1799.956074 
L 292.699016 1528.847362 
L 295.377683 1362.620123 
L 297.163462 1146.920491 
L 298.056351 1461.564908 
L 299.84213 1776.209325 
L 301.627908 1560.509693 
L 302.520798 1968.162209 
L 304.306576 1714.863558 
L 306.092355 1544.678528 
L 308.771023 1908.795337 
L 310.556801 1576.340859 
L 313.235469 1580.29865 
L 336.450591 1380.430184 
L 337.34348 1431.881472 
L 339.129259 1384.387975 
L 340.022148 1309.189939 
L 341.807926 1835.576196 
L 342.700816 1807.871656 
L 345.379484 1617.897669 
L 346.272373 1944.41546 
L 347.165262 1784.124908 
L 348.058151 1560.509693 
L 350.736819 1552.59411 
L 353.415487 1960.246626 
L 363.237269 1431.881472 
L 365.915937 1111.300368 
L 366.808827 1617.897669 
L 370.380384 1089.532515 
L 371.273273 1382.40908 
L 372.166162 1600.087607 
L 373.951941 1184.519509 
L 375.737719 1144.941595 
L 376.630609 1135.047117 
L 381.095055 1423.96589 
L 401.631509 1144.941595 
L 404.310177 1540.720736 
L 406.095955 1366.577914 
L 406.988845 1619.876564 
L 407.881734 1410.11362 
L 408.774623 1303.253252 
L 409.667512 1402.198037 
L 410.560402 1216.18184 
L 411.453291 1368.55681 
L 412.34618 1782.146012 
L 413.23907 1970.141104 
L 418.596405 1194.413988 
L 423.060852 1388.345767 
L 429.311077 788.740368 
L 431.096855 1635.70773 
L 433.775523 1455.628221 
L 435.561302 1374.493497 
L 437.34708 1790.061595 
L 438.23997 1845.470675 
L 440.025748 1629.771043 
L 440.918637 1566.44638 
L 441.811527 1966.183313 
L 442.704416 1588.214233 
L 444.490195 1451.670429 
L 445.383084 1738.610307 
L 446.275973 1142.962699 
L 447.168863 1425.944785 
L 448.061752 1916.71092 
L 448.954641 1948.373252 
L 449.84753 1410.11362 
L 451.633309 1855.365153 
L 452.526198 1518.952883 
L 453.419088 1495.206135 
L 454.311977 1744.546994 
L 455.204866 1380.430184 
L 456.097755 1439.797055 
L 456.990645 1245.865276 
L 457.883534 1530.826258 
L 458.776423 1420.008098 
L 459.669313 1414.071411 
L 460.562202 1420.008098 
L 461.455091 1972.12 
L 462.34798 1410.11362 
L 463.24087 1843.491779 
L 464.133759 1425.944785 
L 465.919538 1522.910675 
L 466.812427 1340.85227 
L 468.598205 1538.74184 
L 469.491095 1457.607117 
L 473.062652 1869.217423 
L 475.74132 1746.52589 
L 477.527098 1427.923681 
L 479.312877 1972.12 
L 481.991545 1344.810061 
L 483.777323 1643.623313 
L 484.670213 1485.311656 
L 485.563102 1453.649325 
L 486.455991 1631.749939 
L 487.348881 1940.457669 
L 488.24177 1530.826258 
L 489.134659 1627.792147 
L 490.027548 1588.214233 
L 490.920438 1606.024294 
L 491.813327 1932.542086 
L 492.706216 1455.628221 
L 493.599106 1679.243436 
L 494.491995 1514.995092 
L 495.384884 1875.15411 
L 496.277773 1485.311656 
L 497.170663 1465.522699 
L 498.956441 1566.44638 
L 499.849331 1463.543804 
L 500.74222 1968.162209 
L 501.635109 1224.097423 
L 502.527998 1972.12 
L 503.420888 1720.800245 
L 504.313777 721.457914 
L 505.206666 1380.430184 
L 506.099556 1091.511411 
L 508.778223 1671.327853 
L 509.671113 1507.079509 
L 511.456891 1374.493497 
L 512.349781 1970.141104 
L 513.24267 1608.00319 
L 516.814227 1301.274356 
L 518.600006 1358.662331 
L 519.492895 1970.141104 
L 522.171563 1277.527607 
L 523.064452 1443.754847 
L 523.957341 1936.499877 
L 525.74312 1423.96589 
L 526.636009 1336.894479 
L 527.528899 1904.837546 
L 528.421788 1465.522699 
L 529.314677 1594.15092 
L 530.207566 1396.26135 
L 531.100456 1243.88638 
L 531.993345 968.819877 
L 532.886234 1435.839264 
L 533.779124 1495.206135 
L 534.672013 1617.897669 
L 535.564902 1503.121718 
L 536.457791 1861.30184 
L 537.350681 1451.670429 
L 538.24357 1283.464294 
L 540.029349 1511.037301 
L 540.922238 1758.399264 
L 541.815127 1362.620123 
L 542.708016 1289.400982 
L 543.600906 1455.628221 
L 544.493795 1693.095706 
L 545.386684 1615.918773 
L 546.279574 1726.736933 
L 547.172463 1469.480491 
L 548.065352 1503.121718 
L 549.851131 1890.985276 
L 550.74402 1338.873374 
L 551.636909 1437.81816 
L 552.529799 1970.141104 
L 553.422688 1968.162209 
L 554.315577 1481.353865 
L 555.208466 1507.079509 
L 556.101356 1463.543804 
L 556.994245 1912.753129 
L 557.887134 1301.274356 
L 558.780024 1637.686626 
L 559.672913 1346.788957 
L 560.565802 1427.923681 
L 563.24447 1556.551902 
L 569.494695 1485.311656 
L 570.387584 1435.839264 
L 571.280474 1461.564908 
L 572.173363 1570.404172 
L 573.066252 1453.649325 
L 573.959142 1528.847362 
L 574.852031 1827.660613 
L 575.74492 1477.396074 
L 576.637809 1469.480491 
L 577.530699 1813.808344 
L 578.423588 1962.225521 
L 579.316477 1257.73865 
L 580.209367 1507.079509 
L 581.102256 1323.042209 
L 581.995145 1956.288834 
L 582.888034 1532.805153 
L 583.780924 1972.12 
L 584.673813 1887.027485 
L 586.459592 1121.194847 
L 587.352481 1396.26135 
L 588.24537 1388.345767 
L 589.138259 1932.542086 
L 590.924038 1441.775951 
L 591.816927 1445.733742 
L 592.709817 1406.155828 
L 593.602706 1259.717546 
L 594.495595 1453.649325 
L 595.388484 1354.70454 
L 596.281374 1435.839264 
L 597.174263 1418.029202 
L 598.067152 1338.873374 
L 598.960042 1459.586012 
L 599.852931 1311.168834 
L 600.74582 1362.620123 
L 602.531599 1596.129816 
L 603.424488 1372.514601 
L 606.103156 1269.612025 
L 606.996045 1966.183313 
L 607.888935 1831.618405 
L 608.781824 1495.206135 
L 609.674713 1477.396074 
L 610.567602 1972.12 
L 611.460492 1400.219141 
L 613.24627 1513.016196 
L 614.13916 1396.26135 
L 615.032049 1394.282454 
L 615.924938 1578.319755 
L 616.817827 1431.881472 
L 617.710717 1481.353865 
L 619.496495 1010.376687 
L 620.389385 1103.384785 
L 621.282274 1600.087607 
L 622.175163 1538.74184 
L 623.068052 1968.162209 
L 623.960942 1392.303558 
L 624.853831 1970.141104 
L 625.74672 1582.277546 
L 626.63961 1483.332761 
L 627.532499 1362.620123 
L 628.425388 1968.162209 
L 629.318277 1546.657423 
L 630.211167 1469.480491 
L 631.104056 1958.26773 
L 631.996945 1580.29865 
L 632.889835 1437.81816 
L 633.782724 889.664049 
L 634.675613 1386.366871 
L 635.568502 1315.126626 
L 636.461392 1970.141104 
L 637.354281 1598.108712 
L 638.24717 1471.459387 
L 639.14006 1972.12 
L 640.032949 1220.139632 
L 641.818727 1453.649325 
L 642.711617 1139.004908 
L 643.604506 1410.11362 
L 644.497395 1445.733742 
L 646.283174 1354.70454 
L 647.176063 1972.12 
L 648.068953 1245.865276 
L 648.961842 1972.12 
L 649.854731 1972.12 
L 650.74762 1178.582822 
L 651.64051 1459.586012 
L 653.426288 1513.016196 
L 654.319178 1469.480491 
L 655.212067 1412.092515 
L 656.104956 1232.013006 
L 656.997845 1463.543804 
L 657.890735 1273.569816 
L 658.783624 1479.374969 
L 660.569403 1435.839264 
L 661.462292 1344.810061 
L 662.355181 1805.892761 
L 663.24807 1321.063313 
L 664.14096 1366.577914 
L 665.033849 1445.733742 
L 665.926738 1501.142822 
L 666.819628 1594.15092 
L 667.712517 1528.847362 
L 668.605406 1972.12 
L 669.498295 1538.74184 
L 670.391185 1570.404172 
L 671.284074 1491.248344 
L 672.176963 1811.829448 
L 673.069853 1627.792147 
L 673.962742 1356.683436 
L 675.74852 1962.225521 
L 677.534299 986.629939 
L 678.427188 1972.12 
L 680.212967 1325.021104 
L 681.105856 1530.826258 
L 681.998745 1471.459387 
L 682.891635 1457.607117 
L 683.784524 1516.973988 
L 684.677413 1568.425276 
L 685.570303 1528.847362 
L 686.463192 1390.324663 
L 687.356081 1706.947975 
L 688.248971 1313.14773 
L 689.14186 1303.253252 
L 690.034749 1457.607117 
L 690.927638 1465.522699 
L 691.820528 1552.59411 
L 692.713417 1942.436564 
L 693.606306 1507.079509 
L 694.499196 1471.459387 
L 695.392085 1453.649325 
L 696.284974 1730.694724 
L 697.177863 1505.100613 
L 698.070753 1520.931779 
L 698.963642 1797.977178 
L 699.856531 1499.163926 
L 700.749421 1427.923681 
L 701.64231 1507.079509 
L 702.535199 1040.060123 
L 703.428088 1473.438282 
L 704.320978 1237.949693 
L 706.106756 1257.73865 
L 707.892535 1592.172025 
L 708.785424 1323.042209 
L 709.678313 1443.754847 
L 711.464092 1604.045399 
L 713.249871 1412.092515 
L 714.14276 1558.530798 
L 715.035649 1414.071411 
L 715.928538 1972.12 
L 716.821428 1410.11362 
L 717.714317 1853.386258 
L 718.607206 1051.933497 
L 719.500096 1530.826258 
L 722.178764 1224.097423 
L 723.071653 1706.947975 
L 723.964542 921.32638 
L 724.857431 1487.290552 
L 726.64321 1330.957791 
L 729.321878 1024.228957 
L 731.107656 1376.472393 
L 732.000546 1479.374969 
L 732.893435 1600.087607 
L 733.786324 1437.81816 
L 734.679214 1218.160736 
L 735.572103 1449.691534 
L 736.464992 1473.438282 
L 737.357881 1801.934969 
L 738.250771 1273.569816 
L 739.14366 1966.183313 
L 740.036549 1509.058405 
L 741.822328 1418.029202 
L 742.715217 1330.957791 
L 743.608106 1400.219141 
L 744.500996 1538.74184 
L 745.393885 1461.564908 
L 746.286774 1374.493497 
L 747.179664 1542.699632 
L 748.072553 1435.839264 
L 748.965442 1532.805153 
L 749.858331 1596.129816 
L 750.751221 1503.121718 
L 751.64411 1334.915583 
L 752.536999 1386.366871 
L 753.429889 1463.543804 
L 754.322778 1465.522699 
L 755.215667 1671.327853 
L 756.108556 1439.797055 
L 757.001446 1503.121718 
L 759.680114 1376.472393 
L 761.465892 1639.665521 
L 763.251671 1542.699632 
L 764.14456 1712.884663 
L 765.037449 1518.952883 
L 765.930339 1400.219141 
L 766.823228 1509.058405 
L 767.716117 1580.29865 
L 768.609007 1327 
L 769.501896 1445.733742 
L 770.394785 1473.438282 
L 771.287674 952.988712 
L 772.180564 1431.881472 
L 773.073453 1972.12 
L 773.966342 1902.85865 
L 774.859232 1243.88638 
L 775.752121 1239.928589 
L 776.64501 1216.18184 
L 777.537899 1226.076319 
L 778.430789 1410.11362 
L 779.323678 1554.573006 
L 780.216567 1964.204417 
L 781.109457 1507.079509 
L 782.002346 1760.37816 
L 783.788124 1766.314847 
L 785.573903 1218.160736 
L 786.466792 1503.121718 
L 787.359682 1321.063313 
L 788.252571 1536.762945 
L 790.038349 1481.353865 
L 791.824128 1281.485399 
L 792.717017 1425.944785 
L 793.609907 1285.44319 
L 794.502796 1396.26135 
L 795.395685 1489.269448 
L 797.181464 1184.519509 
L 799.860132 1479.374969 
L 801.64591 1489.269448 
L 802.5388 1239.928589 
L 803.431689 1833.597301 
L 804.324578 1453.649325 
L 805.217467 1493.227239 
L 806.110357 1400.219141 
L 807.003246 1518.952883 
L 807.896135 1328.978896 
L 812.360582 1055.891288 
L 815.932139 1564.467485 
L 816.825028 1972.12 
L 817.717917 1819.745031 
L 818.610807 1420.008098 
L 820.396585 1131.089325 
L 821.289475 1374.493497 
L 822.182364 1528.847362 
L 823.075253 1421.986994 
L 823.968142 1497.185031 
L 824.861032 1877.133006 
L 827.5397 1200.350675 
L 828.432589 1348.767853 
L 829.325478 1962.225521 
L 830.218367 1034.123436 
L 831.111257 1514.995092 
L 832.004146 1406.155828 
L 832.897035 1237.949693 
L 834.682814 1344.810061 
L 835.575703 1346.788957 
L 836.468592 1115.25816 
L 837.361482 1966.183313 
L 838.254371 1491.248344 
L 839.14726 1475.417178 
L 840.04015 1439.797055 
L 840.933039 1491.248344 
L 841.825928 1085.574724 
L 842.718818 1022.250061 
L 843.611707 1509.058405 
L 844.504596 1067.764663 
L 845.397485 962.88319 
L 846.290375 1859.322945 
L 847.183264 1427.923681 
L 849.861932 1940.457669 
L 852.5406 1431.881472 
L 853.433489 1408.134724 
L 855.219268 1693.095706 
L 856.112157 1336.894479 
L 857.005046 1406.155828 
L 857.897935 1594.15092 
L 859.683714 1356.683436 
L 860.576603 1518.952883 
L 862.362382 1778.188221 
L 863.255271 1485.311656 
L 864.14816 1900.879755 
L 865.04105 1964.204417 
L 865.933939 1795.998282 
L 866.826828 1522.910675 
L 867.719718 1958.26773 
L 869.505496 1538.74184 
L 870.398385 1014.334479 
L 871.291275 1390.324663 
L 872.184164 1423.96589 
L 873.077053 1301.274356 
L 875.755721 1374.493497 
L 876.64861 1429.902577 
L 877.5415 1380.430184 
L 878.434389 1445.733742 
L 879.327278 1445.733742 
L 880.220168 1524.889571 
L 881.113057 1103.384785 
L 882.898836 1530.826258 
L 884.684614 1546.657423 
L 885.577503 1526.868466 
L 888.256171 1358.662331 
L 891.827728 1346.788957 
L 896.292175 1467.501595 
L 898.077953 1524.889571 
L 898.970843 1673.306748 
L 899.863732 1853.386258 
L 900.756621 1970.141104 
L 901.649511 1968.162209 
L 902.5424 1972.12 
L 903.435289 1972.12 
L 904.328178 1483.332761 
L 905.221068 1794.019387 
L 907.899736 1336.894479 
L 908.792625 1354.70454 
L 909.685514 1764.335951 
L 912.364182 1384.387975 
L 913.257071 1396.26135 
L 914.149961 1507.079509 
L 919.507296 1437.81816 
L 920.400186 1447.712638 
L 921.293075 1386.366871 
L 922.185964 1055.891288 
L 925.757521 1423.96589 
L 931.114857 1380.430184 
L 936.472193 1481.353865 
L 937.365082 1388.345767 
L 938.257971 1255.759755 
L 939.150861 1425.944785 
L 940.04375 1514.995092 
L 942.722418 1412.092515 
L 943.615307 1667.370061 
L 944.508196 1423.96589 
L 945.401086 1085.574724 
L 946.293975 1418.029202 
L 947.186864 1410.11362 
L 949.865532 1441.775951 
L 950.758421 1497.185031 
L 951.651311 1447.712638 
L 952.5442 1459.586012 
L 953.437089 1237.949693 
L 954.329979 1509.058405 
L 955.222868 1384.387975 
L 957.008646 1332.936687 
L 957.901536 1022.250061 
L 958.794425 1479.374969 
L 959.687314 1133.068221 
L 960.580204 1507.079509 
L 961.473093 1273.569816 
L 963.258872 1445.733742 
L 964.151761 1178.582822 
L 966.830429 1477.396074 
L 967.723318 1303.253252 
L 969.509097 1327 
L 971.294875 1788.082699 
L 972.187764 1538.74184 
L 973.080654 1503.121718 
L 975.759322 1192.435092 
L 976.652211 1376.472393 
L 978.437989 1370.535706 
L 979.330879 1443.754847 
L 980.223768 1675.285644 
L 981.116657 1406.155828 
L 982.009547 1479.374969 
L 982.902436 1164.730552 
L 984.688214 1386.366871 
L 985.581104 1578.319755 
L 986.473993 1516.973988 
L 987.366882 1633.728834 
L 988.259772 1384.387975 
L 989.152661 1235.970798 
L 990.938439 1382.40908 
L 991.831329 1530.826258 
L 992.724218 1443.754847 
L 993.617107 1370.535706 
L 994.509997 1386.366871 
L 995.402886 1511.037301 
L 996.295775 1425.944785 
L 997.188664 1453.649325 
L 998.081554 1378.451288 
L 998.974443 1471.459387 
L 999.867332 1839.533988 
L 1000.760222 1447.712638 
L 1001.653111 1344.810061 
L 1002.546 1457.607117 
L 1003.43889 1485.311656 
L 1004.331779 1685.180123 
L 1005.224668 1410.11362 
L 1007.903336 1639.665521 
L 1008.796225 1477.396074 
L 1009.689115 1609.982086 
L 1010.582004 1518.952883 
L 1011.474893 1522.910675 
L 1012.367782 1465.522699 
L 1013.260672 1303.253252 
L 1014.153561 1275.548712 
L 1015.04645 1528.847362 
L 1015.93934 1578.319755 
L 1018.618007 1972.12 
L 1019.510897 1267.633129 
L 1020.403786 1414.071411 
L 1023.082454 1716.842454 
L 1023.975343 1309.189939 
L 1025.761122 1348.767853 
L 1030.225568 1297.316564 
L 1032.011347 1388.345767 
L 1032.904236 1554.573006 
L 1036.475793 1230.03411 
L 1038.261572 1685.180123 
L 1039.154461 1360.641227 
L 1040.04735 1463.543804 
L 1040.94024 1364.599018 
L 1041.833129 1113.279264 
L 1042.726018 1526.868466 
L 1048.976243 1477.396074 
L 1050.762022 1516.973988 
L 1053.44069 1778.188221 
L 1055.226468 1414.071411 
L 1056.119358 1380.430184 
L 1057.012247 1958.26773 
L 1057.905136 1970.141104 
L 1058.798025 1578.319755 
L 1059.690915 1972.12 
L 1060.583804 1762.357055 
L 1061.476693 1972.12 
L 1062.369583 1699.032393 
L 1063.262472 1307.211043 
L 1064.155361 1946.394356 
L 1065.04825 1384.387975 
L 1065.94114 1497.185031 
L 1066.834029 1972.12 
L 1067.726918 1330.957791 
L 1068.619808 1972.12 
L 1069.512697 1972.12 
L 1070.405586 1766.314847 
L 1071.298475 1295.337669 
L 1072.191365 1277.527607 
L 1076.655811 1144.941595 
L 1077.5487 1566.44638 
L 1078.44159 1131.089325 
L 1079.334479 1433.860368 
L 1080.227368 1505.100613 
L 1082.906036 1481.353865 
L 1083.798926 1453.649325 
L 1084.691815 1295.337669 
L 1085.584704 1968.162209 
L 1088.263372 1966.183313 
L 1089.156261 1574.361963 
L 1090.049151 1544.678528 
L 1090.94204 1530.826258 
L 1091.834929 800.613742 
L 1092.727818 1801.934969 
L 1098.085154 1277.527607 
L 1100.763822 1968.162209 
L 1101.656711 1972.12 
L 1102.549601 1465.522699 
L 1103.44249 1972.12 
L 1104.335379 1932.542086 
L 1105.228268 1702.990184 
L 1106.121158 1645.602209 
L 1107.014047 1477.396074 
L 1107.906936 1447.712638 
L 1108.799826 1291.379877 
L 1110.585604 1497.185031 
L 1112.371383 1503.121718 
L 1113.264272 1447.712638 
L 1114.157161 1445.733742 
L 1115.050051 1028.186748 
L 1116.835829 1228.055215 
L 1117.728718 1275.548712 
L 1118.621608 1232.013006 
L 1119.514497 1295.337669 
L 1120.407386 1477.396074 
L 1122.193165 1497.185031 
L 1123.086054 1548.636319 
L 1123.978944 1441.775951 
L 1124.871833 1364.599018 
L 1125.764722 1427.923681 
L 1126.657611 909.453006 
L 1127.550501 1182.540613 
L 1128.44339 1801.934969 
L 1130.229169 1904.837546 
L 1131.122058 1530.826258 
L 1132.014947 1817.766135 
L 1132.907836 1139.004908 
L 1134.693615 1827.660613 
L 1136.479394 1908.795337 
L 1138.265172 1113.279264 
L 1140.050951 1509.058405 
L 1140.94384 1924.626503 
L 1141.836729 1568.425276 
L 1142.729619 1012.355583 
L 1143.622508 1293.358773 
L 1144.515397 1972.12 
L 1145.408286 1423.96589 
L 1147.194065 1406.155828 
L 1148.086954 1437.81816 
L 1148.979844 1509.058405 
L 1150.765622 1952.331043 
L 1151.658511 1651.538896 
L 1154.337179 1224.097423 
L 1155.230069 1463.543804 
L 1156.122958 1336.894479 
L 1157.908736 1449.691534 
L 1159.694515 933.199755 
L 1161.480294 1469.480491 
L 1162.373183 1245.865276 
L 1163.266072 1394.282454 
L 1164.158962 1160.772761 
L 1165.94474 1180.561718 
L 1166.837629 1184.519509 
L 1167.730519 1499.163926 
L 1168.623408 1336.894479 
L 1169.516297 1398.240245 
L 1170.409187 1301.274356 
L 1171.302076 1493.227239 
L 1172.194965 1465.522699 
L 1173.087854 1477.396074 
L 1174.873633 1018.29227 
L 1175.766522 1420.008098 
L 1177.552301 1433.860368 
L 1178.44519 905.495215 
L 1179.338079 893.62184 
L 1180.230969 1918.689816 
L 1181.123858 1966.183313 
L 1182.016747 1144.941595 
L 1185.588304 1972.12 
L 1186.481194 1291.379877 
L 1187.374083 1536.762945 
L 1190.052751 937.157546 
L 1192.731419 1168.688344 
L 1193.624308 1305.232147 
L 1194.517197 1516.973988 
L 1195.410087 1516.973988 
L 1196.302976 1269.612025 
L 1198.088755 1418.029202 
L 1198.981644 1404.176933 
L 1200.767422 636.365399 
L 1204.33898 1271.59092 
L 1206.124758 1970.141104 
L 1207.910537 1378.451288 
L 1208.803426 1325.021104 
L 1209.696315 1194.413988 
L 1212.374983 1075.680245 
L 1213.267872 1325.021104 
L 1214.160762 1398.240245 
L 1215.053651 1495.206135 
L 1215.94654 1243.88638 
L 1220.410987 1518.952883 
L 1221.303876 1071.722454 
L 1223.089655 1055.891288 
L 1225.768322 1469.480491 
L 1226.661212 1972.12 
L 1228.44699 1285.44319 
L 1229.33988 1445.733742 
L 1230.232769 1416.050307 
L 1231.125658 1972.12 
L 1232.018547 1220.139632 
L 1233.804326 1241.907485 
L 1234.697215 1421.986994 
L 1235.590105 1429.902577 
L 1236.482994 1386.366871 
L 1237.375883 1202.329571 
L 1238.268773 1972.12 
L 1239.161662 1572.383067 
L 1240.054551 1402.198037 
L 1240.94744 1588.214233 
L 1251.662112 1297.316564 
L 1254.34078 1291.379877 
L 1258.805226 1952.331043 
L 1259.698115 1362.620123 
L 1263.269673 1443.754847 
L 1265.055451 1968.162209 
L 1266.84123 1315.126626 
L 1267.734119 1968.162209 
L 1268.627008 1473.438282 
L 1270.412787 1972.12 
L 1271.305676 1344.810061 
L 1273.984344 1206.287362 
L 1275.770123 1792.040491 
L 1283.806126 1499.163926 
L 1286.484794 1243.88638 
L 1288.270573 1319.084417 
L 1291.84213 1380.430184 
L 1294.520798 1471.459387 
L 1297.199466 1063.806871 
L 1299.878133 1443.754847 
L 1300.771023 998.503313 
L 1302.556801 1362.620123 
L 1304.34258 1093.490307 
L 1305.235469 1259.717546 
L 1306.128358 1497.185031 
L 1307.914137 1429.902577 
L 1309.699916 1311.168834 
L 1313.271473 1481.353865 
L 1315.057251 1970.141104 
L 1315.950141 1214.202945 
L 1316.84303 1453.649325 
L 1318.628809 1608.00319 
L 1320.414587 717.500123 
L 1340.951041 359.32 
L 1341.84393 1429.902577 
L 1343.629709 1412.092515 
L 1345.415487 1327 
L 1347.201266 1313.14773 
L 1349.879934 858.001718 
L 1350.772823 1372.514601 
L 1351.665712 986.629939 
L 1355.237269 1249.823067 
L 1364.166162 1406.155828 
L 1372.202166 1453.649325 
L 1374.880834 1435.839264 
L 1379.34528 1281.485399 
L 1381.131059 1249.823067 
L 1382.916837 1348.767853 
L 1384.702616 1198.371779 
L 1385.595505 1449.691534 
L 1388.274173 1243.88638 
L 1389.167062 1477.396074 
L 1410.596405 1067.764663 
L 1418.632409 1139.004908 
L 1438.275973 1232.013006 
L 1449.883534 1501.142822 
L 1450.776423 1311.168834 
L 1455.24087 1297.316564 
L 1457.919538 1548.636319 
L 1459.705316 927.263067 
L 1460.598205 1408.134724 
L 1466.84843 1249.823067 
L 1481.134659 1493.227239 
L 1483.813327 1485.311656 
L 1486.491995 1214.202945 
L 1487.384884 1396.26135 
L 1491.849331 1184.519509 
L 1492.74222 1404.176933 
L 1493.635109 1449.691534 
L 1498.992445 1431.881472 
L 1499.885334 1503.121718 
L 1504.349781 1414.071411 
L 1508.814227 1520.931779 
L 1525.779124 1299.29546 
L 1532.922238 1384.387975 
L 1534.708016 1483.332761 
L 1550.780024 1097.448098 
L 1560.601806 1451.670429 
L 1561.494695 1301.274356 
L 1568.637809 1392.303558 
L 1573.102256 1420.008098 
L 1576.673813 1241.907485 
L 1612.389385 1429.902577 
L 1638.283174 1453.649325 
L 1646.319178 1461.564908 
L 1654.355181 1378.451288 
L 1674.891635 1283.464294 
L 1684.713417 1340.85227 
L 1686.499196 1433.860368 
L 1691.856531 1358.662331 
L 1696.320978 1010.376687 
L 1701.678313 1695.074601 
L 1713.285874 1465.522699 
L 1729.357881 1307.211043 
L 1740.072553 1184.519509 
L 1751.680114 1408.134724 
L 1751.680114 1408.134724 
" style="fill:none;stroke:#0000ff;stroke-linecap:square;stroke-width:1.5;"/>
   </g>
   <g id="patch_3">
    <path d="M 47.24375 2052.76 
L 47.24375 278.68 
" style="fill:none;stroke:#000000;stroke-linecap:square;stroke-linejoin:miter;stroke-width:0.8;"/>
   </g>
   <g id="patch_4">
    <path d="M 1832.84375 2052.76 
L 1832.84375 278.68 
" style="fill:none;stroke:#000000;stroke-linecap:square;stroke-linejoin:miter;stroke-width:0.8;"/>
   </g>
   <g id="patch_5">
    <path d="M 47.24375 2052.76 
L 1832.84375 2052.76 
" style="fill:none;stroke:#000000;stroke-linecap:square;stroke-linejoin:miter;stroke-width:0.8;"/>
   </g>
   <g id="patch_6">
    <path d="M 47.24375 278.68 
L 1832.84375 278.68 
" style="fill:none;stroke:#000000;stroke-linecap:square;stroke-linejoin:miter;stroke-width:0.8;"/>
   </g>
   <g id="text_20">
    <text style="font-family:DejaVu Sans;font-size:12px;font-stretch:normal;font-style:normal;font-weight:normal;text-anchor:middle;" transform="rotate(-0, 940.04375, 272.68)" x="940.04375" y="272.68">temperature-&gt;Retransmission_night</text>
   </g>
  </g>
  <g id="legend_1">
   <g id="patch_7">
    <path d="M 1840.2375 22.95625 
L 2058.44375 22.95625 
Q 2060.44375 22.95625 2060.44375 20.95625 
L 2060.44375 7 
Q 2060.44375 5 2058.44375 5 
L 1840.2375 5 
Q 1838.2375 5 1838.2375 7 
L 1838.2375 20.95625 
Q 1838.2375 22.95625 1840.2375 22.95625 
z
" style="fill:#ffffff;opacity:0.8;stroke:#cccccc;stroke-linejoin:miter;"/>
   </g>
   <g id="line2d_19">
    <path d="M 1842.2375 13.098438 
L 1862.2375 13.098438 
" style="fill:none;stroke:#0000ff;stroke-linecap:square;stroke-width:1.5;"/>
   </g>
   <g id="line2d_20"/>
   <g id="text_21">
    <text style="font-family:DejaVu Sans;font-size:10px;font-stretch:normal;font-style:normal;font-weight:normal;text-anchor:start;" transform="rotate(-0, 1870.2375, 16.598438)" x="1870.2375" y="16.598438">Retransmission_night[dimensionless]</text>
   </g>
  </g>
 </g>
 <defs>
  <clipPath id="p86890c8951">
   <rect height="1774.08" width="1785.6" x="47.24375" y="278.68"/>
  </clipPath>
 </defs>
</svg>
