<?xml version="1.0" encoding="utf-8" standalone="no"?>
<!DOCTYPE svg PUBLIC "-//W3C//DTD SVG 1.1//EN"
  "http://www.w3.org/Graphics/SVG/1.1/DTD/svg11.dtd">
<!-- Created with matplotlib (https://matplotlib.org/) -->
<svg height="2090.31625pt" version="1.1" viewBox="0 0 2065.44375 2090.31625" width="2065.44375pt" xmlns="http://www.w3.org/2000/svg" xmlns:xlink="http://www.w3.org/1999/xlink">
 <metadata>
  <rdf:RDF xmlns:cc="http://creativecommons.org/ns#" xmlns:dc="http://purl.org/dc/elements/1.1/" xmlns:rdf="http://www.w3.org/1999/02/22-rdf-syntax-ns#">
   <cc:Work>
    <dc:type rdf:resource="http://purl.org/dc/dcmitype/StillImage"/>
    <dc:date>2022-07-23T21:30:16.002179</dc:date>
    <dc:format>image/svg+xml</dc:format>
    <dc:creator>
     <cc:Agent>
      <dc:title>Matplotlib v3.3.2, https://matplotlib.org/</dc:title>
     </cc:Agent>
    </dc:creator>
   </cc:Work>
  </rdf:RDF>
 </metadata>
 <defs>
  <style type="text/css">*{stroke-linecap:butt;stroke-linejoin:round;}</style>
 </defs>
 <g id="figure_1">
  <g id="patch_1">
   <path d="M 0 2090.31625 
L 2065.44375 2090.31625 
L 2065.44375 0 
L 0 0 
z
" style="fill:#ffffff;"/>
  </g>
  <g id="axes_1">
   <g id="patch_2">
    <path d="M 47.24375 2052.76 
L 1832.84375 2052.76 
L 1832.84375 278.68 
L 47.24375 278.68 
z
" style="fill:#ffffff;"/>
   </g>
   <g id="matplotlib.axis_1">
    <g id="xtick_1">
     <g id="line2d_1">
      <defs>
       <path d="M 0 0 
L 0 3.5 
" id="m017ee8b4ea" style="stroke:#000000;stroke-width:0.8;"/>
      </defs>
      <g>
       <use style="stroke:#000000;stroke-width:0.8;" x="99.420373" xlink:href="#m017ee8b4ea" y="2052.76"/>
      </g>
     </g>
     <g id="text_1">
      <text style="font-family:DejaVu Sans;font-size:10px;font-stretch:normal;font-style:normal;font-weight:normal;text-anchor:middle;" transform="rotate(-0, 99.420373, 2067.358438)" x="99.420373" y="2067.358438">7.5</text>
     </g>
    </g>
    <g id="xtick_2">
     <g id="line2d_2">
      <g>
       <use style="stroke:#000000;stroke-width:0.8;" x="340.978815" xlink:href="#m017ee8b4ea" y="2052.76"/>
      </g>
     </g>
     <g id="text_2">
      <text style="font-family:DejaVu Sans;font-size:10px;font-stretch:normal;font-style:normal;font-weight:normal;text-anchor:middle;" transform="rotate(-0, 340.978815, 2067.358438)" x="340.978815" y="2067.358438">10.0</text>
     </g>
    </g>
    <g id="xtick_3">
     <g id="line2d_3">
      <g>
       <use style="stroke:#000000;stroke-width:0.8;" x="582.537256" xlink:href="#m017ee8b4ea" y="2052.76"/>
      </g>
     </g>
     <g id="text_3">
      <text style="font-family:DejaVu Sans;font-size:10px;font-stretch:normal;font-style:normal;font-weight:normal;text-anchor:middle;" transform="rotate(-0, 582.537256, 2067.358438)" x="582.537256" y="2067.358438">12.5</text>
     </g>
    </g>
    <g id="xtick_4">
     <g id="line2d_4">
      <g>
       <use style="stroke:#000000;stroke-width:0.8;" x="824.095698" xlink:href="#m017ee8b4ea" y="2052.76"/>
      </g>
     </g>
     <g id="text_4">
      <text style="font-family:DejaVu Sans;font-size:10px;font-stretch:normal;font-style:normal;font-weight:normal;text-anchor:middle;" transform="rotate(-0, 824.095698, 2067.358438)" x="824.095698" y="2067.358438">15.0</text>
     </g>
    </g>
    <g id="xtick_5">
     <g id="line2d_5">
      <g>
       <use style="stroke:#000000;stroke-width:0.8;" x="1065.65414" xlink:href="#m017ee8b4ea" y="2052.76"/>
      </g>
     </g>
     <g id="text_5">
      <text style="font-family:DejaVu Sans;font-size:10px;font-stretch:normal;font-style:normal;font-weight:normal;text-anchor:middle;" transform="rotate(-0, 1065.65414, 2067.358438)" x="1065.65414" y="2067.358438">17.5</text>
     </g>
    </g>
    <g id="xtick_6">
     <g id="line2d_6">
      <g>
       <use style="stroke:#000000;stroke-width:0.8;" x="1307.212581" xlink:href="#m017ee8b4ea" y="2052.76"/>
      </g>
     </g>
     <g id="text_6">
      <text style="font-family:DejaVu Sans;font-size:10px;font-stretch:normal;font-style:normal;font-weight:normal;text-anchor:middle;" transform="rotate(-0, 1307.212581, 2067.358438)" x="1307.212581" y="2067.358438">20.0</text>
     </g>
    </g>
    <g id="xtick_7">
     <g id="line2d_7">
      <g>
       <use style="stroke:#000000;stroke-width:0.8;" x="1548.771023" xlink:href="#m017ee8b4ea" y="2052.76"/>
      </g>
     </g>
     <g id="text_7">
      <text style="font-family:DejaVu Sans;font-size:10px;font-stretch:normal;font-style:normal;font-weight:normal;text-anchor:middle;" transform="rotate(-0, 1548.771023, 2067.358438)" x="1548.771023" y="2067.358438">22.5</text>
     </g>
    </g>
    <g id="xtick_8">
     <g id="line2d_8">
      <g>
       <use style="stroke:#000000;stroke-width:0.8;" x="1790.329464" xlink:href="#m017ee8b4ea" y="2052.76"/>
      </g>
     </g>
     <g id="text_8">
      <text style="font-family:DejaVu Sans;font-size:10px;font-stretch:normal;font-style:normal;font-weight:normal;text-anchor:middle;" transform="rotate(-0, 1790.329464, 2067.358438)" x="1790.329464" y="2067.358438">25.0</text>
     </g>
    </g>
    <g id="text_9">
     <text style="font-family:DejaVu Sans;font-size:10px;font-stretch:normal;font-style:normal;font-weight:normal;text-anchor:middle;" transform="rotate(-0, 940.04375, 2081.036562)" x="940.04375" y="2081.036562">temperature from WeatherAPI</text>
    </g>
   </g>
   <g id="matplotlib.axis_2">
    <g id="ytick_1">
     <g id="line2d_9">
      <defs>
       <path d="M 0 0 
L -3.5 0 
" id="m9a74f1dc54" style="stroke:#000000;stroke-width:0.8;"/>
      </defs>
      <g>
       <use style="stroke:#000000;stroke-width:0.8;" x="47.24375" xlink:href="#m9a74f1dc54" y="1972.12"/>
      </g>
     </g>
     <g id="text_10">
      <text style="font-family:DejaVu Sans;font-size:10px;font-stretch:normal;font-style:normal;font-weight:normal;text-anchor:end;" transform="rotate(-0, 40.24375, 1975.919219)" x="40.24375" y="1975.919219">0</text>
     </g>
    </g>
    <g id="ytick_2">
     <g id="line2d_10">
      <g>
       <use style="stroke:#000000;stroke-width:0.8;" x="47.24375" xlink:href="#m9a74f1dc54" y="1640.268148"/>
      </g>
     </g>
     <g id="text_11">
      <text style="font-family:DejaVu Sans;font-size:10px;font-stretch:normal;font-style:normal;font-weight:normal;text-anchor:end;" transform="rotate(-0, 40.24375, 1644.067367)" x="40.24375" y="1644.067367">100</text>
     </g>
    </g>
    <g id="ytick_3">
     <g id="line2d_11">
      <g>
       <use style="stroke:#000000;stroke-width:0.8;" x="47.24375" xlink:href="#m9a74f1dc54" y="1308.416296"/>
      </g>
     </g>
     <g id="text_12">
      <text style="font-family:DejaVu Sans;font-size:10px;font-stretch:normal;font-style:normal;font-weight:normal;text-anchor:end;" transform="rotate(-0, 40.24375, 1312.215515)" x="40.24375" y="1312.215515">200</text>
     </g>
    </g>
    <g id="ytick_4">
     <g id="line2d_12">
      <g>
       <use style="stroke:#000000;stroke-width:0.8;" x="47.24375" xlink:href="#m9a74f1dc54" y="976.564444"/>
      </g>
     </g>
     <g id="text_13">
      <text style="font-family:DejaVu Sans;font-size:10px;font-stretch:normal;font-style:normal;font-weight:normal;text-anchor:end;" transform="rotate(-0, 40.24375, 980.363663)" x="40.24375" y="980.363663">300</text>
     </g>
    </g>
    <g id="ytick_5">
     <g id="line2d_13">
      <g>
       <use style="stroke:#000000;stroke-width:0.8;" x="47.24375" xlink:href="#m9a74f1dc54" y="644.712593"/>
      </g>
     </g>
     <g id="text_14">
      <text style="font-family:DejaVu Sans;font-size:10px;font-stretch:normal;font-style:normal;font-weight:normal;text-anchor:end;" transform="rotate(-0, 40.24375, 648.511811)" x="40.24375" y="648.511811">400</text>
     </g>
    </g>
    <g id="ytick_6">
     <g id="line2d_14">
      <g>
       <use style="stroke:#000000;stroke-width:0.8;" x="47.24375" xlink:href="#m9a74f1dc54" y="312.860741"/>
      </g>
     </g>
     <g id="text_15">
      <text style="font-family:DejaVu Sans;font-size:10px;font-stretch:normal;font-style:normal;font-weight:normal;text-anchor:end;" transform="rotate(-0, 40.24375, 316.659959)" x="40.24375" y="316.659959">500</text>
     </g>
    </g>
    <g id="text_16">
     <text style="font-family:DejaVu Sans;font-size:10px;font-stretch:normal;font-style:normal;font-weight:normal;text-anchor:middle;" transform="rotate(-90, 14.798438, 1165.72)" x="14.798438" y="1165.72">Retransmission_night[dimensionless]</text>
    </g>
   </g>
   <g id="line2d_15">
    <path clip-path="url(#p40c9be813b)" d="M 128.407386 963.29037 
L 157.394399 1603.764444 
L 167.056737 1086.075556 
L 196.04375 1972.12 
L 205.706088 1972.12 
L 225.030763 1968.801481 
L 234.693101 1052.89037 
L 244.355438 1125.897778 
L 254.017776 1371.468148 
L 273.342451 1178.994074 
L 292.667127 959.971852 
L 302.329464 1776.327407 
L 311.991802 1822.786667 
L 321.65414 1889.157037 
L 331.316477 1394.697778 
L 340.978815 1398.016296 
L 350.641153 1972.12 
L 360.30349 1351.557037 
L 369.965828 1972.12 
L 379.628166 1968.801481 
L 389.290503 1972.12 
L 398.952841 1955.527407 
L 408.615179 989.838519 
L 418.277516 1278.54963 
L 427.939854 1958.845926 
L 437.602192 1972.12 
L 447.264529 1872.564444 
L 456.926867 1958.845926 
L 466.589205 1972.12 
L 476.251542 1955.527407 
L 485.91388 1972.12 
L 495.576218 1972.12 
L 505.238555 1968.801481 
L 514.900893 1972.12 
L 524.563231 1862.608889 
L 534.225568 1334.964444 
L 543.887906 1905.74963 
L 553.550244 1836.060741 
L 572.874919 1968.801481 
L 582.537256 1972.12 
L 592.199594 1570.579259 
L 601.861932 1965.482963 
L 611.524269 1145.808889 
L 621.186607 1962.164444 
L 630.848945 1693.364444 
L 640.511282 1972.12 
L 650.17362 1666.816296 
L 659.835958 1643.586667 
L 669.498295 1968.801481 
L 679.160633 1693.364444 
L 688.822971 1743.142222 
L 698.485308 1550.668148 
L 708.147646 1550.668148 
L 717.809984 1676.771852 
L 727.472321 1865.927407 
L 737.134659 1968.801481 
L 746.796997 1232.09037 
L 756.459334 1646.905185 
L 766.121672 1952.208889 
L 775.78401 1656.860741 
L 785.446347 1149.127407 
L 795.108685 1626.994074 
L 804.771023 1965.482963 
L 814.43336 1882.52 
L 824.095698 1872.564444 
L 833.758036 1948.89037 
L 843.420373 1872.564444 
L 853.082711 1869.245926 
L 862.745049 1680.09037 
L 872.407386 1122.579259 
L 882.069724 1829.423704 
L 891.732062 1145.808889 
L 901.394399 1962.164444 
L 911.056737 1733.186667 
L 920.719075 1972.12 
L 930.381412 1965.482963 
L 940.04375 1972.12 
L 949.706088 1972.12 
L 959.368425 1972.12 
L 969.030763 1935.616296 
L 978.693101 1972.12 
L 988.355438 1955.527407 
L 998.017776 1620.357037 
L 1007.680114 1972.12 
L 1017.342451 1490.934815 
L 1027.004789 1972.12 
L 1036.667127 1819.468148 
L 1046.329464 1540.712593 
L 1055.991802 1972.12 
L 1065.65414 1188.94963 
L 1084.978815 1301.779259 
L 1094.641153 1972.12 
L 1104.30349 1826.105185 
L 1113.965828 1733.186667 
L 1133.290503 1195.586667 
L 1142.952841 1454.431111 
L 1152.615179 1434.52 
L 1162.277516 1135.853333 
L 1181.602192 1328.327407 
L 1191.264529 1859.29037 
L 1210.589205 1972.12 
L 1229.91388 1132.534815 
L 1249.238555 1242.045926 
L 1268.563231 1809.512593 
L 1278.225568 1875.882963 
L 1297.550244 1620.357037 
L 1307.212581 1726.54963 
L 1316.874919 1175.675556 
L 1326.537256 1215.497778 
L 1336.199594 1623.675556 
L 1355.524269 1580.534815 
L 1384.511282 1182.312593 
L 1403.835958 823.912593 
L 1490.796997 1683.408889 
L 1597.082711 1115.942222 
L 1645.394399 1261.957037 
L 1703.368425 1507.527407 
L 1751.680114 359.32 
" style="fill:none;stroke:#0000ff;stroke-linecap:square;stroke-width:1.5;"/>
   </g>
   <g id="patch_3">
    <path d="M 47.24375 2052.76 
L 47.24375 278.68 
" style="fill:none;stroke:#000000;stroke-linecap:square;stroke-linejoin:miter;stroke-width:0.8;"/>
   </g>
   <g id="patch_4">
    <path d="M 1832.84375 2052.76 
L 1832.84375 278.68 
" style="fill:none;stroke:#000000;stroke-linecap:square;stroke-linejoin:miter;stroke-width:0.8;"/>
   </g>
   <g id="patch_5">
    <path d="M 47.24375 2052.76 
L 1832.84375 2052.76 
" style="fill:none;stroke:#000000;stroke-linecap:square;stroke-linejoin:miter;stroke-width:0.8;"/>
   </g>
   <g id="patch_6">
    <path d="M 47.24375 278.68 
L 1832.84375 278.68 
" style="fill:none;stroke:#000000;stroke-linecap:square;stroke-linejoin:miter;stroke-width:0.8;"/>
   </g>
   <g id="text_17">
    <text style="font-family:DejaVu Sans;font-size:12px;font-stretch:normal;font-style:normal;font-weight:normal;text-anchor:middle;" transform="rotate(-0, 940.04375, 272.68)" x="940.04375" y="272.68">temperature-&gt;Retransmission_night</text>
   </g>
  </g>
  <g id="legend_1">
   <g id="patch_7">
    <path d="M 1840.2375 22.95625 
L 2058.44375 22.95625 
Q 2060.44375 22.95625 2060.44375 20.95625 
L 2060.44375 7 
Q 2060.44375 5 2058.44375 5 
L 1840.2375 5 
Q 1838.2375 5 1838.2375 7 
L 1838.2375 20.95625 
Q 1838.2375 22.95625 1840.2375 22.95625 
z
" style="fill:#ffffff;opacity:0.8;stroke:#cccccc;stroke-linejoin:miter;"/>
   </g>
   <g id="line2d_16">
    <path d="M 1842.2375 13.098438 
L 1862.2375 13.098438 
" style="fill:none;stroke:#0000ff;stroke-linecap:square;stroke-width:1.5;"/>
   </g>
   <g id="line2d_17"/>
   <g id="text_18">
    <text style="font-family:DejaVu Sans;font-size:10px;font-stretch:normal;font-style:normal;font-weight:normal;text-anchor:start;" transform="rotate(-0, 1870.2375, 16.598438)" x="1870.2375" y="16.598438">Retransmission_night[dimensionless]</text>
   </g>
  </g>
 </g>
 <defs>
  <clipPath id="p40c9be813b">
   <rect height="1774.08" width="1785.6" x="47.24375" y="278.68"/>
  </clipPath>
 </defs>
</svg>
