<?xml version="1.0" encoding="utf-8" standalone="no"?>
<!DOCTYPE svg PUBLIC "-//W3C//DTD SVG 1.1//EN"
  "http://www.w3.org/Graphics/SVG/1.1/DTD/svg11.dtd">
<!-- Created with matplotlib (https://matplotlib.org/) -->
<svg height="2090.594375pt" version="1.1" viewBox="0 0 2052.440625 2090.594375" width="2052.440625pt" xmlns="http://www.w3.org/2000/svg" xmlns:xlink="http://www.w3.org/1999/xlink">
 <metadata>
  <rdf:RDF xmlns:cc="http://creativecommons.org/ns#" xmlns:dc="http://purl.org/dc/elements/1.1/" xmlns:rdf="http://www.w3.org/1999/02/22-rdf-syntax-ns#">
   <cc:Work>
    <dc:type rdf:resource="http://purl.org/dc/dcmitype/StillImage"/>
    <dc:date>2022-07-24T11:32:27.631811</dc:date>
    <dc:format>image/svg+xml</dc:format>
    <dc:creator>
     <cc:Agent>
      <dc:title>Matplotlib v3.3.2, https://matplotlib.org/</dc:title>
     </cc:Agent>
    </dc:creator>
   </cc:Work>
  </rdf:RDF>
 </metadata>
 <defs>
  <style type="text/css">*{stroke-linecap:butt;stroke-linejoin:round;}</style>
 </defs>
 <g id="figure_1">
  <g id="patch_1">
   <path d="M 0 2090.594375 
L 2052.440625 2090.594375 
L 2052.440625 0 
L 0 0 
z
" style="fill:#ffffff;"/>
  </g>
  <g id="axes_1">
   <g id="patch_2">
    <path d="M 34.240625 2052.76 
L 1819.840625 2052.76 
L 1819.840625 278.68 
L 34.240625 278.68 
z
" style="fill:#ffffff;"/>
   </g>
   <g id="matplotlib.axis_1">
    <g id="xtick_1">
     <g id="line2d_1">
      <defs>
       <path d="M 0 0 
L 0 3.5 
" id="m4cf0d363eb" style="stroke:#000000;stroke-width:0.8;"/>
      </defs>
      <g>
       <use style="stroke:#000000;stroke-width:0.8;" x="115.404261" xlink:href="#m4cf0d363eb" y="2052.76"/>
      </g>
     </g>
     <g id="text_1">
      <text style="font-family:DejaVu Sans;font-size:10px;font-stretch:normal;font-style:normal;font-weight:normal;text-anchor:middle;" transform="rotate(-0, 115.404261, 2067.358437)" x="115.404261" y="2067.358437">0</text>
     </g>
    </g>
    <g id="xtick_2">
     <g id="line2d_2">
      <g>
       <use style="stroke:#000000;stroke-width:0.8;" x="342.371925" xlink:href="#m4cf0d363eb" y="2052.76"/>
      </g>
     </g>
     <g id="text_2">
      <text style="font-family:DejaVu Sans;font-size:10px;font-stretch:normal;font-style:normal;font-weight:normal;text-anchor:middle;" transform="rotate(-0, 342.371925, 2067.358437)" x="342.371925" y="2067.358437">5</text>
     </g>
    </g>
    <g id="xtick_3">
     <g id="line2d_3">
      <g>
       <use style="stroke:#000000;stroke-width:0.8;" x="569.339588" xlink:href="#m4cf0d363eb" y="2052.76"/>
      </g>
     </g>
     <g id="text_3">
      <text style="font-family:DejaVu Sans;font-size:10px;font-stretch:normal;font-style:normal;font-weight:normal;text-anchor:middle;" transform="rotate(-0, 569.339588, 2067.358437)" x="569.339588" y="2067.358437">10</text>
     </g>
    </g>
    <g id="xtick_4">
     <g id="line2d_4">
      <g>
       <use style="stroke:#000000;stroke-width:0.8;" x="796.307251" xlink:href="#m4cf0d363eb" y="2052.76"/>
      </g>
     </g>
     <g id="text_4">
      <text style="font-family:DejaVu Sans;font-size:10px;font-stretch:normal;font-style:normal;font-weight:normal;text-anchor:middle;" transform="rotate(-0, 796.307251, 2067.358437)" x="796.307251" y="2067.358437">15</text>
     </g>
    </g>
    <g id="xtick_5">
     <g id="line2d_5">
      <g>
       <use style="stroke:#000000;stroke-width:0.8;" x="1023.274914" xlink:href="#m4cf0d363eb" y="2052.76"/>
      </g>
     </g>
     <g id="text_5">
      <text style="font-family:DejaVu Sans;font-size:10px;font-stretch:normal;font-style:normal;font-weight:normal;text-anchor:middle;" transform="rotate(-0, 1023.274914, 2067.358437)" x="1023.274914" y="2067.358437">20</text>
     </g>
    </g>
    <g id="xtick_6">
     <g id="line2d_6">
      <g>
       <use style="stroke:#000000;stroke-width:0.8;" x="1250.242577" xlink:href="#m4cf0d363eb" y="2052.76"/>
      </g>
     </g>
     <g id="text_6">
      <text style="font-family:DejaVu Sans;font-size:10px;font-stretch:normal;font-style:normal;font-weight:normal;text-anchor:middle;" transform="rotate(-0, 1250.242577, 2067.358437)" x="1250.242577" y="2067.358437">25</text>
     </g>
    </g>
    <g id="xtick_7">
     <g id="line2d_7">
      <g>
       <use style="stroke:#000000;stroke-width:0.8;" x="1477.210241" xlink:href="#m4cf0d363eb" y="2052.76"/>
      </g>
     </g>
     <g id="text_7">
      <text style="font-family:DejaVu Sans;font-size:10px;font-stretch:normal;font-style:normal;font-weight:normal;text-anchor:middle;" transform="rotate(-0, 1477.210241, 2067.358437)" x="1477.210241" y="2067.358437">30</text>
     </g>
    </g>
    <g id="xtick_8">
     <g id="line2d_8">
      <g>
       <use style="stroke:#000000;stroke-width:0.8;" x="1704.177904" xlink:href="#m4cf0d363eb" y="2052.76"/>
      </g>
     </g>
     <g id="text_8">
      <text style="font-family:DejaVu Sans;font-size:10px;font-stretch:normal;font-style:normal;font-weight:normal;text-anchor:middle;" transform="rotate(-0, 1704.177904, 2067.358437)" x="1704.177904" y="2067.358437">35</text>
     </g>
    </g>
    <g id="text_9">
     <text style="font-family:DejaVu Sans;font-size:10px;font-stretch:normal;font-style:normal;font-weight:normal;text-anchor:middle;" transform="rotate(-0, 927.040625, 2081.036562)" x="927.040625" y="2081.036562">wind_speed from Aeris</text>
    </g>
   </g>
   <g id="matplotlib.axis_2">
    <g id="ytick_1">
     <g id="line2d_9">
      <defs>
       <path d="M 0 0 
L -3.5 0 
" id="m0f4c4ed6ea" style="stroke:#000000;stroke-width:0.8;"/>
      </defs>
      <g>
       <use style="stroke:#000000;stroke-width:0.8;" x="34.240625" xlink:href="#m0f4c4ed6ea" y="2000.039558"/>
      </g>
     </g>
     <g id="text_10">
      <text style="font-family:DejaVu Sans;font-size:10px;font-stretch:normal;font-style:normal;font-weight:normal;text-anchor:end;" transform="rotate(-0, 27.240625, 2003.838777)" x="27.240625" y="2003.838777">4</text>
     </g>
    </g>
    <g id="ytick_2">
     <g id="line2d_10">
      <g>
       <use style="stroke:#000000;stroke-width:0.8;" x="34.240625" xlink:href="#m0f4c4ed6ea" y="1703.022983"/>
      </g>
     </g>
     <g id="text_11">
      <text style="font-family:DejaVu Sans;font-size:10px;font-stretch:normal;font-style:normal;font-weight:normal;text-anchor:end;" transform="rotate(-0, 27.240625, 1706.822202)" x="27.240625" y="1706.822202">5</text>
     </g>
    </g>
    <g id="ytick_3">
     <g id="line2d_11">
      <g>
       <use style="stroke:#000000;stroke-width:0.8;" x="34.240625" xlink:href="#m0f4c4ed6ea" y="1406.006409"/>
      </g>
     </g>
     <g id="text_12">
      <text style="font-family:DejaVu Sans;font-size:10px;font-stretch:normal;font-style:normal;font-weight:normal;text-anchor:end;" transform="rotate(-0, 27.240625, 1409.805628)" x="27.240625" y="1409.805628">6</text>
     </g>
    </g>
    <g id="ytick_4">
     <g id="line2d_12">
      <g>
       <use style="stroke:#000000;stroke-width:0.8;" x="34.240625" xlink:href="#m0f4c4ed6ea" y="1108.989834"/>
      </g>
     </g>
     <g id="text_13">
      <text style="font-family:DejaVu Sans;font-size:10px;font-stretch:normal;font-style:normal;font-weight:normal;text-anchor:end;" transform="rotate(-0, 27.240625, 1112.789053)" x="27.240625" y="1112.789053">7</text>
     </g>
    </g>
    <g id="ytick_5">
     <g id="line2d_13">
      <g>
       <use style="stroke:#000000;stroke-width:0.8;" x="34.240625" xlink:href="#m0f4c4ed6ea" y="811.97326"/>
      </g>
     </g>
     <g id="text_14">
      <text style="font-family:DejaVu Sans;font-size:10px;font-stretch:normal;font-style:normal;font-weight:normal;text-anchor:end;" transform="rotate(-0, 27.240625, 815.772478)" x="27.240625" y="815.772478">8</text>
     </g>
    </g>
    <g id="ytick_6">
     <g id="line2d_14">
      <g>
       <use style="stroke:#000000;stroke-width:0.8;" x="34.240625" xlink:href="#m0f4c4ed6ea" y="514.956685"/>
      </g>
     </g>
     <g id="text_15">
      <text style="font-family:DejaVu Sans;font-size:10px;font-stretch:normal;font-style:normal;font-weight:normal;text-anchor:end;" transform="rotate(-0, 27.240625, 518.755904)" x="27.240625" y="518.755904">9</text>
     </g>
    </g>
    <g id="text_16">
     <text style="font-family:DejaVu Sans;font-size:10px;font-stretch:normal;font-style:normal;font-weight:normal;text-anchor:middle;" transform="rotate(-90, 14.798438, 1165.72)" x="14.798438" y="1165.72">ping[ms]</text>
    </g>
   </g>
   <g id="line2d_15">
    <path clip-path="url(#p276f74aae9)" d="M 115.404261 1763.614365 
L 157.620247 1612.729945 
L 199.382297 1517.981657 
L 224.34874 1525.110055 
L 231.611705 1700.646851 
L 241.598282 1433.331934 
L 249.315183 1291.655028 
L 264.295048 1792.721989 
L 283.360332 1389.967514 
L 308.326775 1217.103867 
L 316.043676 1615.403094 
L 325.576317 1400.363094 
L 333.293218 1385.512265 
L 335.108959 1865.49105 
L 342.82586 1593.423867 
L 357.805726 1273.834033 
L 367.792303 1570.553591 
L 380.502492 1578.870055 
L 382.772169 1494.517348 
L 392.30481 1571.147624 
L 400.021711 1862.520884 
L 409.554353 1640.649503 
L 417.271253 1429.767735 
L 419.54093 1623.125525 
L 426.803895 1638.27337 
L 432.251119 1776.386077 
L 442.237696 1485.012818 
L 451.770338 1472.241105 
L 466.750204 1374.225635 
L 471.289557 1688.766188 
L 476.282846 1431.549834 
L 483.999746 1377.789834 
L 486.269423 1678.667624 
L 491.716647 1633.818122 
L 493.532388 1378.977901 
L 501.249289 1427.391602 
L 503.518965 1766.58453 
L 510.781931 1347.197127 
L 516.229155 1633.224088 
L 516.68309 1645.995801 
L 526.215732 1613.026961 
L 535.748374 1341.553812 
L 541.195598 1020.181878 
L 550.728239 1474.914254 
L 555.267593 1812.919116 
L 560.714817 1475.805304 
L 567.977782 1663.816796 
L 570.247458 1739.259006 
L 575.694682 1443.430497 
L 577.964359 1836.977459 
L 585.227324 1461.251492 
L 587.497001 1705.102099 
L 595.213901 1567.880442 
L 600.20719 1773.712928 
L 600.661125 1676.885525 
L 610.193767 1581.543204 
L 613.371314 1643.322652 
L 619.726409 1535.802652 
L 625.173633 1462.142541 
L 632.890533 1902.024088 
L 635.16021 1705.993149 
L 639.245628 1767.47558 
L 644.692852 1618.670276 
L 650.140076 1862.520884 
L 651.955817 1749.357569 
L 654.225494 1547.386298 
L 659.672718 1577.384972 
L 669.659295 1421.154254 
L 671.475036 1757.08 
L 679.191937 1657.876464 
L 684.639161 1700.349834 
L 694.171803 1487.38895 
L 697.34935 1539.960884 
L 703.704444 1648.074917 
L 709.605604 1683.122873 
L 713.691022 1915.092818 
L 716.868569 1793.613039 
L 719.138246 1186.808177 
L 723.223663 1648.371934 
L 728.670887 1604.710497 
L 729.578758 1809.057901 
L 736.387788 1753.218785 
L 738.203529 1600.255249 
L 744.104688 1679.855691 
L 745.92043 1764.208398 
L 749.097977 1861.332818 
L 753.63733 1595.205967 
L 755.453072 1668.569061 
L 762.262102 1712.230497 
L 763.169972 1530.456354 
L 768.617196 1745.496354 
L 774.972291 1749.951602 
L 778.149838 1586.889503 
L 788.136415 1570.850608 
L 803.116281 1327.297017 
L 807.201699 1486.794917 
L 812.648923 830.388287 
L 814.010729 1476.696354 
L 820.365823 1378.383867 
L 822.181565 1876.480663 
L 826.720918 1775.792044 
L 828.082724 1836.086409 
L 837.615366 1509.07116 
L 839.885042 1724.11116 
L 847.148008 1590.156685 
L 852.595231 1754.406851 
L 858.950326 1716.091713 
L 862.581809 1675.400442 
L 872.114451 1507.289061 
L 877.561674 1753.515801 
L 887.094316 1662.034696 
L 891.63367 1727.378343 
L 896.626958 1599.364199 
L 904.343859 1535.802652 
L 906.613535 1639.758453 
L 910.698953 1649.56 
L 912.060759 1580.058122 
L 921.593401 1541.742983 
L 923.863078 1604.413481 
L 931.126043 1675.994475 
L 937.027202 1881.826961 
L 943.382297 1825.393812 
L 946.559844 1621.640442 
L 956.092486 1018.696796 
L 961.53971 1365.018122 
L 962.44758 1776.98011 
L 965.625128 1665.301878 
L 968.802675 1781.435359 
L 971.072352 1549.762431 
L 975.611705 1233.736796 
L 981.058929 1588.374586 
L 986.506153 1834.007293 
L 988.321894 1691.14232 
L 990.591571 1605.007514 
L 994.676989 1689.657238 
L 996.038795 1623.125525 
L 998.308471 1863.70895 
L 1005.571436 1679.855691 
L 1007.841113 1716.388729 
L 1011.472596 1826.284862 
L 1015.558014 1600.849282 
L 1025.090656 1771.039779 
L 1027.360332 1348.979227 
L 1030.537879 359.32 
L 1040.070521 1535.208619 
L 1045.517745 1806.384751 
L 1049.603163 1778.465193 
L 1053.234646 1771.930829 
L 1055.504322 1616.888177 
L 1059.58974 1625.798674 
L 1065.036964 1618.670276 
L 1072.299929 1737.476906 
L 1074.569606 1810.84 
L 1080.01683 449.613039 
L 1090.003407 1673.321326 
L 1091.819148 1972.12 
L 1099.536049 1710.151381 
L 1104.983273 1765.693481 
L 1111.338368 1919.548066 
L 1114.515915 1499.56663 
L 1124.048557 1638.27337 
L 1137.212681 1887.767293 
L 1139.482358 654.851492 
L 1143.567776 1700.052818 
L 1149.015 1738.664972 
L 1156.7319 1740.447072 
L 1158.547641 1738.664972 
L 1173.981443 1712.82453 
L 1175.797184 1739.259006 
L 1182.606214 1628.174807 
L 1183.514084 1710.151381 
L 1188.961308 1717.576796 
L 1195.316403 1795.989171 
L 1198.49395 1822.720663 
L 1208.480527 1708.369282 
L 1221.190717 1629.956906 
L 1223.460393 1610.056796 
L 1227.545811 861.278011 
L 1232.993035 1741.338122 
L 1240.709936 1765.396464 
L 1242.525677 1794.207072 
L 1247.06503 1861.926851 
L 1248.426836 1465.70674 
L 1257.959478 1932.022762 
L 1260.229155 1765.693481 
L 1267.49212 1746.387403 
L 1272.939344 1839.353591 
L 1279.294438 1692.627403 
L 1282.925921 1786.187624 
L 1292.458563 1784.108508 
L 1301.991205 1819.453481 
L 1305.168752 1848.561105 
L 1307.438429 1792.721989 
L 1311.977782 1804.008619 
L 1316.97107 1646.292818 
L 1324.687971 1766.287514 
L 1326.957648 1604.116464 
L 1331.043066 1765.099448 
L 1341.937513 1654.312265 
L 1344.20719 1788.563757 
L 1363.726409 1836.383425 
L 1366.903956 1829.552044 
L 1376.436598 1760.050166 
L 1382.791693 1848.264088 
L 1395.955817 1809.354917 
L 1401.403041 1827.769945 
L 1410.935683 1888.955359 
L 1415.021101 1750.248619 
L 1425.915549 1780.247293 
L 1428.185225 1644.510718 
L 1460.414634 1650.748066 
L 1466.769728 1692.92442 
L 1479.933853 1810.542983 
L 1499.453072 1748.763536 
L 1518.518355 1846.779006 
L 1519.880161 1771.633812 
L 1531.68248 1630.253923 
L 1544.392669 1794.207072 
L 1551.201699 1796.880221 
L 1563.911888 1590.750718 
L 1570.266983 1765.099448 
L 1578.891754 1671.539227 
L 1603.858197 1735.39779 
L 1615.660515 1555.999779 
L 1635.179734 1721.438011 
L 1667.409142 1659.06453 
L 1738.676989 1636.194254 
L 1738.676989 1636.194254 
" style="fill:none;stroke:#0000ff;stroke-linecap:square;stroke-width:1.5;"/>
   </g>
   <g id="patch_3">
    <path d="M 34.240625 2052.76 
L 34.240625 278.68 
" style="fill:none;stroke:#000000;stroke-linecap:square;stroke-linejoin:miter;stroke-width:0.8;"/>
   </g>
   <g id="patch_4">
    <path d="M 1819.840625 2052.76 
L 1819.840625 278.68 
" style="fill:none;stroke:#000000;stroke-linecap:square;stroke-linejoin:miter;stroke-width:0.8;"/>
   </g>
   <g id="patch_5">
    <path d="M 34.240625 2052.76 
L 1819.840625 2052.76 
" style="fill:none;stroke:#000000;stroke-linecap:square;stroke-linejoin:miter;stroke-width:0.8;"/>
   </g>
   <g id="patch_6">
    <path d="M 34.240625 278.68 
L 1819.840625 278.68 
" style="fill:none;stroke:#000000;stroke-linecap:square;stroke-linejoin:miter;stroke-width:0.8;"/>
   </g>
   <g id="text_17">
    <text style="font-family:DejaVu Sans;font-size:12px;font-stretch:normal;font-style:normal;font-weight:normal;text-anchor:middle;" transform="rotate(-0, 927.040625, 272.68)" x="927.040625" y="272.68">wind_speed-&gt;ping</text>
   </g>
  </g>
  <g id="legend_1">
   <g id="patch_7">
    <path d="M 1968.875 22.678125 
L 2045.440625 22.678125 
Q 2047.440625 22.678125 2047.440625 20.678125 
L 2047.440625 7 
Q 2047.440625 5 2045.440625 5 
L 1968.875 5 
Q 1966.875 5 1966.875 7 
L 1966.875 20.678125 
Q 1966.875 22.678125 1968.875 22.678125 
z
" style="fill:#ffffff;opacity:0.8;stroke:#cccccc;stroke-linejoin:miter;"/>
   </g>
   <g id="line2d_16">
    <path d="M 1970.875 13.098437 
L 1990.875 13.098437 
" style="fill:none;stroke:#0000ff;stroke-linecap:square;stroke-width:1.5;"/>
   </g>
   <g id="line2d_17"/>
   <g id="text_18">
    <text style="font-family:DejaVu Sans;font-size:10px;font-stretch:normal;font-style:normal;font-weight:normal;text-anchor:start;" transform="rotate(-0, 1998.875, 16.598437)" x="1998.875" y="16.598437">ping[ms]</text>
   </g>
  </g>
 </g>
 <defs>
  <clipPath id="p276f74aae9">
   <rect height="1774.08" width="1785.6" x="34.240625" y="278.68"/>
  </clipPath>
 </defs>
</svg>
