<?xml version="1.0" encoding="utf-8" standalone="no"?>
<!DOCTYPE svg PUBLIC "-//W3C//DTD SVG 1.1//EN"
  "http://www.w3.org/Graphics/SVG/1.1/DTD/svg11.dtd">
<!-- Created with matplotlib (https://matplotlib.org/) -->
<svg height="2090.31625pt" version="1.1" viewBox="0 0 2052.440625 2090.31625" width="2052.440625pt" xmlns="http://www.w3.org/2000/svg" xmlns:xlink="http://www.w3.org/1999/xlink">
 <metadata>
  <rdf:RDF xmlns:cc="http://creativecommons.org/ns#" xmlns:dc="http://purl.org/dc/elements/1.1/" xmlns:rdf="http://www.w3.org/1999/02/22-rdf-syntax-ns#">
   <cc:Work>
    <dc:type rdf:resource="http://purl.org/dc/dcmitype/StillImage"/>
    <dc:date>2022-07-23T20:56:30.764013</dc:date>
    <dc:format>image/svg+xml</dc:format>
    <dc:creator>
     <cc:Agent>
      <dc:title>Matplotlib v3.3.2, https://matplotlib.org/</dc:title>
     </cc:Agent>
    </dc:creator>
   </cc:Work>
  </rdf:RDF>
 </metadata>
 <defs>
  <style type="text/css">*{stroke-linecap:butt;stroke-linejoin:round;}</style>
 </defs>
 <g id="figure_1">
  <g id="patch_1">
   <path d="M 0 2090.31625 
L 2052.440625 2090.31625 
L 2052.440625 0 
L 0 0 
z
" style="fill:#ffffff;"/>
  </g>
  <g id="axes_1">
   <g id="patch_2">
    <path d="M 34.240625 2052.76 
L 1819.840625 2052.76 
L 1819.840625 278.68 
L 34.240625 278.68 
z
" style="fill:#ffffff;"/>
   </g>
   <g id="matplotlib.axis_1">
    <g id="xtick_1">
     <g id="line2d_1">
      <defs>
       <path d="M 0 0 
L 0 3.5 
" id="mf51e763525" style="stroke:#000000;stroke-width:0.8;"/>
      </defs>
      <g>
       <use style="stroke:#000000;stroke-width:0.8;" x="66.948359" xlink:href="#mf51e763525" y="2052.76"/>
      </g>
     </g>
     <g id="text_1">
      <text style="font-family:DejaVu Sans;font-size:10px;font-stretch:normal;font-style:normal;font-weight:normal;text-anchor:middle;" transform="rotate(-0, 66.948359, 2067.358438)" x="66.948359" y="2067.358438">30</text>
     </g>
    </g>
    <g id="xtick_2">
     <g id="line2d_2">
      <g>
       <use style="stroke:#000000;stroke-width:0.8;" x="309.227871" xlink:href="#mf51e763525" y="2052.76"/>
      </g>
     </g>
     <g id="text_2">
      <text style="font-family:DejaVu Sans;font-size:10px;font-stretch:normal;font-style:normal;font-weight:normal;text-anchor:middle;" transform="rotate(-0, 309.227871, 2067.358438)" x="309.227871" y="2067.358438">40</text>
     </g>
    </g>
    <g id="xtick_3">
     <g id="line2d_3">
      <g>
       <use style="stroke:#000000;stroke-width:0.8;" x="551.507382" xlink:href="#mf51e763525" y="2052.76"/>
      </g>
     </g>
     <g id="text_3">
      <text style="font-family:DejaVu Sans;font-size:10px;font-stretch:normal;font-style:normal;font-weight:normal;text-anchor:middle;" transform="rotate(-0, 551.507382, 2067.358438)" x="551.507382" y="2067.358438">50</text>
     </g>
    </g>
    <g id="xtick_4">
     <g id="line2d_4">
      <g>
       <use style="stroke:#000000;stroke-width:0.8;" x="793.786894" xlink:href="#mf51e763525" y="2052.76"/>
      </g>
     </g>
     <g id="text_4">
      <text style="font-family:DejaVu Sans;font-size:10px;font-stretch:normal;font-style:normal;font-weight:normal;text-anchor:middle;" transform="rotate(-0, 793.786894, 2067.358438)" x="793.786894" y="2067.358438">60</text>
     </g>
    </g>
    <g id="xtick_5">
     <g id="line2d_5">
      <g>
       <use style="stroke:#000000;stroke-width:0.8;" x="1036.066405" xlink:href="#mf51e763525" y="2052.76"/>
      </g>
     </g>
     <g id="text_5">
      <text style="font-family:DejaVu Sans;font-size:10px;font-stretch:normal;font-style:normal;font-weight:normal;text-anchor:middle;" transform="rotate(-0, 1036.066405, 2067.358438)" x="1036.066405" y="2067.358438">70</text>
     </g>
    </g>
    <g id="xtick_6">
     <g id="line2d_6">
      <g>
       <use style="stroke:#000000;stroke-width:0.8;" x="1278.345917" xlink:href="#mf51e763525" y="2052.76"/>
      </g>
     </g>
     <g id="text_6">
      <text style="font-family:DejaVu Sans;font-size:10px;font-stretch:normal;font-style:normal;font-weight:normal;text-anchor:middle;" transform="rotate(-0, 1278.345917, 2067.358438)" x="1278.345917" y="2067.358438">80</text>
     </g>
    </g>
    <g id="xtick_7">
     <g id="line2d_7">
      <g>
       <use style="stroke:#000000;stroke-width:0.8;" x="1520.625428" xlink:href="#mf51e763525" y="2052.76"/>
      </g>
     </g>
     <g id="text_7">
      <text style="font-family:DejaVu Sans;font-size:10px;font-stretch:normal;font-style:normal;font-weight:normal;text-anchor:middle;" transform="rotate(-0, 1520.625428, 2067.358438)" x="1520.625428" y="2067.358438">90</text>
     </g>
    </g>
    <g id="xtick_8">
     <g id="line2d_8">
      <g>
       <use style="stroke:#000000;stroke-width:0.8;" x="1762.90494" xlink:href="#mf51e763525" y="2052.76"/>
      </g>
     </g>
     <g id="text_8">
      <text style="font-family:DejaVu Sans;font-size:10px;font-stretch:normal;font-style:normal;font-weight:normal;text-anchor:middle;" transform="rotate(-0, 1762.90494, 2067.358438)" x="1762.90494" y="2067.358438">100</text>
     </g>
    </g>
    <g id="text_9">
     <text style="font-family:DejaVu Sans;font-size:10px;font-stretch:normal;font-style:normal;font-weight:normal;text-anchor:middle;" transform="rotate(-0, 927.040625, 2081.036562)" x="927.040625" y="2081.036562">humidity from Aeris</text>
    </g>
   </g>
   <g id="matplotlib.axis_2">
    <g id="ytick_1">
     <g id="line2d_9">
      <defs>
       <path d="M 0 0 
L -3.5 0 
" id="ma7f35ad83b" style="stroke:#000000;stroke-width:0.8;"/>
      </defs>
      <g>
       <use style="stroke:#000000;stroke-width:0.8;" x="34.240625" xlink:href="#ma7f35ad83b" y="1794.753248"/>
      </g>
     </g>
     <g id="text_10">
      <text style="font-family:DejaVu Sans;font-size:10px;font-stretch:normal;font-style:normal;font-weight:normal;text-anchor:end;" transform="rotate(-0, 27.240625, 1798.552467)" x="27.240625" y="1798.552467">5</text>
     </g>
    </g>
    <g id="ytick_2">
     <g id="line2d_10">
      <g>
       <use style="stroke:#000000;stroke-width:0.8;" x="34.240625" xlink:href="#ma7f35ad83b" y="1477.460311"/>
      </g>
     </g>
     <g id="text_11">
      <text style="font-family:DejaVu Sans;font-size:10px;font-stretch:normal;font-style:normal;font-weight:normal;text-anchor:end;" transform="rotate(-0, 27.240625, 1481.25953)" x="27.240625" y="1481.25953">6</text>
     </g>
    </g>
    <g id="ytick_3">
     <g id="line2d_11">
      <g>
       <use style="stroke:#000000;stroke-width:0.8;" x="34.240625" xlink:href="#ma7f35ad83b" y="1160.167374"/>
      </g>
     </g>
     <g id="text_12">
      <text style="font-family:DejaVu Sans;font-size:10px;font-stretch:normal;font-style:normal;font-weight:normal;text-anchor:end;" transform="rotate(-0, 27.240625, 1163.966592)" x="27.240625" y="1163.966592">7</text>
     </g>
    </g>
    <g id="ytick_4">
     <g id="line2d_12">
      <g>
       <use style="stroke:#000000;stroke-width:0.8;" x="34.240625" xlink:href="#ma7f35ad83b" y="842.874436"/>
      </g>
     </g>
     <g id="text_13">
      <text style="font-family:DejaVu Sans;font-size:10px;font-stretch:normal;font-style:normal;font-weight:normal;text-anchor:end;" transform="rotate(-0, 27.240625, 846.673655)" x="27.240625" y="846.673655">8</text>
     </g>
    </g>
    <g id="ytick_5">
     <g id="line2d_13">
      <g>
       <use style="stroke:#000000;stroke-width:0.8;" x="34.240625" xlink:href="#ma7f35ad83b" y="525.581499"/>
      </g>
     </g>
     <g id="text_14">
      <text style="font-family:DejaVu Sans;font-size:10px;font-stretch:normal;font-style:normal;font-weight:normal;text-anchor:end;" transform="rotate(-0, 27.240625, 529.380718)" x="27.240625" y="529.380718">9</text>
     </g>
    </g>
    <g id="text_15">
     <text style="font-family:DejaVu Sans;font-size:10px;font-stretch:normal;font-style:normal;font-weight:normal;text-anchor:middle;" transform="rotate(-90, 14.798438, 1165.72)" x="14.798438" y="1165.72">ping[ms]</text>
    </g>
   </g>
   <g id="line2d_14">
    <path clip-path="url(#pc93d9784ae)" d="M 115.404261 1743.034499 
L 139.632213 1747.159307 
L 163.860164 1689.411993 
L 188.088115 1815.059996 
L 212.316066 1847.423876 
L 236.544017 1728.121731 
L 260.771968 1646.577446 
L 284.999919 1792.214905 
L 309.227871 1702.421003 
L 333.455822 1816.646461 
L 357.683773 1592.95494 
L 381.911724 1704.642054 
L 406.139675 1667.836073 
L 430.367626 1275.662003 
L 454.595578 1726.535267 
L 478.823529 1688.460114 
L 503.05148 1653.240598 
L 527.279431 1768.735227 
L 551.507382 1672.278174 
L 575.735333 1731.611954 
L 599.963284 1243.298123 
L 624.191236 1493.642251 
L 648.419187 1670.69171 
L 672.647138 1651.33684 
L 696.875089 1541.236191 
L 721.10304 1065.296785 
L 745.330991 455.777053 
L 769.558943 1631.030092 
L 793.786894 1572.013606 
L 818.014845 1552.024151 
L 842.242796 1692.267629 
L 866.470747 1663.393972 
L 890.698698 1628.491749 
L 914.926649 1448.586654 
L 939.154601 1744.620964 
L 963.382552 1651.33684 
L 987.610503 1616.117324 
L 1011.838454 1414.636309 
L 1036.066405 862.546598 
L 1060.294356 359.32 
L 1084.522307 1226.164305 
L 1108.750259 1625.953405 
L 1132.97821 1556.466252 
L 1157.206161 1661.490214 
L 1181.434112 1433.673886 
L 1205.662063 1563.76399 
L 1229.890014 1684.652599 
L 1254.117966 1551.072272 
L 1278.345917 1443.509967 
L 1302.573868 1553.927909 
L 1326.801819 1610.406052 
L 1351.02977 1452.076876 
L 1375.257721 1637.058658 
L 1399.485672 1519.977564 
L 1423.713624 1593.906819 
L 1447.941575 1355.30253 
L 1472.169526 1601.204556 
L 1496.397477 895.545064 
L 1520.625428 1063.710321 
L 1544.853379 1293.430407 
L 1569.081331 1447.317482 
L 1593.309282 1517.439221 
L 1617.537233 1620.559426 
L 1641.765184 1597.079748 
L 1665.993135 1380.685965 
L 1690.221086 1408.607743 
L 1714.449037 1720.189408 
L 1738.676989 1972.12 
" style="fill:none;stroke:#0000ff;stroke-linecap:square;stroke-width:1.5;"/>
   </g>
   <g id="patch_3">
    <path d="M 34.240625 2052.76 
L 34.240625 278.68 
" style="fill:none;stroke:#000000;stroke-linecap:square;stroke-linejoin:miter;stroke-width:0.8;"/>
   </g>
   <g id="patch_4">
    <path d="M 1819.840625 2052.76 
L 1819.840625 278.68 
" style="fill:none;stroke:#000000;stroke-linecap:square;stroke-linejoin:miter;stroke-width:0.8;"/>
   </g>
   <g id="patch_5">
    <path d="M 34.240625 2052.76 
L 1819.840625 2052.76 
" style="fill:none;stroke:#000000;stroke-linecap:square;stroke-linejoin:miter;stroke-width:0.8;"/>
   </g>
   <g id="patch_6">
    <path d="M 34.240625 278.68 
L 1819.840625 278.68 
" style="fill:none;stroke:#000000;stroke-linecap:square;stroke-linejoin:miter;stroke-width:0.8;"/>
   </g>
   <g id="text_16">
    <text style="font-family:DejaVu Sans;font-size:12px;font-stretch:normal;font-style:normal;font-weight:normal;text-anchor:middle;" transform="rotate(-0, 927.040625, 272.68)" x="927.040625" y="272.68">humidity-&gt;ping</text>
   </g>
  </g>
  <g id="legend_1">
   <g id="patch_7">
    <path d="M 1968.875 22.678125 
L 2045.440625 22.678125 
Q 2047.440625 22.678125 2047.440625 20.678125 
L 2047.440625 7 
Q 2047.440625 5 2045.440625 5 
L 1968.875 5 
Q 1966.875 5 1966.875 7 
L 1966.875 20.678125 
Q 1966.875 22.678125 1968.875 22.678125 
z
" style="fill:#ffffff;opacity:0.8;stroke:#cccccc;stroke-linejoin:miter;"/>
   </g>
   <g id="line2d_15">
    <path d="M 1970.875 13.098437 
L 1990.875 13.098437 
" style="fill:none;stroke:#0000ff;stroke-linecap:square;stroke-width:1.5;"/>
   </g>
   <g id="line2d_16"/>
   <g id="text_17">
    <text style="font-family:DejaVu Sans;font-size:10px;font-stretch:normal;font-style:normal;font-weight:normal;text-anchor:start;" transform="rotate(-0, 1998.875, 16.598437)" x="1998.875" y="16.598437">ping[ms]</text>
   </g>
  </g>
 </g>
 <defs>
  <clipPath id="pc93d9784ae">
   <rect height="1774.08" width="1785.6" x="34.240625" y="278.68"/>
  </clipPath>
 </defs>
</svg>
