<?xml version="1.0" encoding="utf-8" standalone="no"?>
<!DOCTYPE svg PUBLIC "-//W3C//DTD SVG 1.1//EN"
  "http://www.w3.org/Graphics/SVG/1.1/DTD/svg11.dtd">
<!-- Created with matplotlib (https://matplotlib.org/) -->
<svg height="2090.594375pt" version="1.1" viewBox="0 0 2052.440625 2090.594375" width="2052.440625pt" xmlns="http://www.w3.org/2000/svg" xmlns:xlink="http://www.w3.org/1999/xlink">
 <metadata>
  <rdf:RDF xmlns:cc="http://creativecommons.org/ns#" xmlns:dc="http://purl.org/dc/elements/1.1/" xmlns:rdf="http://www.w3.org/1999/02/22-rdf-syntax-ns#">
   <cc:Work>
    <dc:type rdf:resource="http://purl.org/dc/dcmitype/StillImage"/>
    <dc:date>2022-07-24T11:33:20.901142</dc:date>
    <dc:format>image/svg+xml</dc:format>
    <dc:creator>
     <cc:Agent>
      <dc:title>Matplotlib v3.3.2, https://matplotlib.org/</dc:title>
     </cc:Agent>
    </dc:creator>
   </cc:Work>
  </rdf:RDF>
 </metadata>
 <defs>
  <style type="text/css">*{stroke-linecap:butt;stroke-linejoin:round;}</style>
 </defs>
 <g id="figure_1">
  <g id="patch_1">
   <path d="M 0 2090.594375 
L 2052.440625 2090.594375 
L 2052.440625 0 
L 0 0 
z
" style="fill:#ffffff;"/>
  </g>
  <g id="axes_1">
   <g id="patch_2">
    <path d="M 34.240625 2052.76 
L 1819.840625 2052.76 
L 1819.840625 278.68 
L 34.240625 278.68 
z
" style="fill:#ffffff;"/>
   </g>
   <g id="matplotlib.axis_1">
    <g id="xtick_1">
     <g id="line2d_1">
      <defs>
       <path d="M 0 0 
L 0 3.5 
" id="m9eae64e594" style="stroke:#000000;stroke-width:0.8;"/>
      </defs>
      <g>
       <use style="stroke:#000000;stroke-width:0.8;" x="62.294547" xlink:href="#m9eae64e594" y="2052.76"/>
      </g>
     </g>
     <g id="text_1">
      <text style="font-family:DejaVu Sans;font-size:10px;font-stretch:normal;font-style:normal;font-weight:normal;text-anchor:middle;" transform="rotate(-0, 62.294547, 2067.358437)" x="62.294547" y="2067.358437">1005.0</text>
     </g>
    </g>
    <g id="xtick_2">
     <g id="line2d_2">
      <g>
       <use style="stroke:#000000;stroke-width:0.8;" x="276.446622" xlink:href="#m9eae64e594" y="2052.76"/>
      </g>
     </g>
     <g id="text_2">
      <text style="font-family:DejaVu Sans;font-size:10px;font-stretch:normal;font-style:normal;font-weight:normal;text-anchor:middle;" transform="rotate(-0, 276.446622, 2067.358437)" x="276.446622" y="2067.358437">1007.5</text>
     </g>
    </g>
    <g id="xtick_3">
     <g id="line2d_3">
      <g>
       <use style="stroke:#000000;stroke-width:0.8;" x="490.598696" xlink:href="#m9eae64e594" y="2052.76"/>
      </g>
     </g>
     <g id="text_3">
      <text style="font-family:DejaVu Sans;font-size:10px;font-stretch:normal;font-style:normal;font-weight:normal;text-anchor:middle;" transform="rotate(-0, 490.598696, 2067.358437)" x="490.598696" y="2067.358437">1010.0</text>
     </g>
    </g>
    <g id="xtick_4">
     <g id="line2d_4">
      <g>
       <use style="stroke:#000000;stroke-width:0.8;" x="704.750771" xlink:href="#m9eae64e594" y="2052.76"/>
      </g>
     </g>
     <g id="text_4">
      <text style="font-family:DejaVu Sans;font-size:10px;font-stretch:normal;font-style:normal;font-weight:normal;text-anchor:middle;" transform="rotate(-0, 704.750771, 2067.358437)" x="704.750771" y="2067.358437">1012.5</text>
     </g>
    </g>
    <g id="xtick_5">
     <g id="line2d_5">
      <g>
       <use style="stroke:#000000;stroke-width:0.8;" x="918.902846" xlink:href="#m9eae64e594" y="2052.76"/>
      </g>
     </g>
     <g id="text_5">
      <text style="font-family:DejaVu Sans;font-size:10px;font-stretch:normal;font-style:normal;font-weight:normal;text-anchor:middle;" transform="rotate(-0, 918.902846, 2067.358437)" x="918.902846" y="2067.358437">1015.0</text>
     </g>
    </g>
    <g id="xtick_6">
     <g id="line2d_6">
      <g>
       <use style="stroke:#000000;stroke-width:0.8;" x="1133.054921" xlink:href="#m9eae64e594" y="2052.76"/>
      </g>
     </g>
     <g id="text_6">
      <text style="font-family:DejaVu Sans;font-size:10px;font-stretch:normal;font-style:normal;font-weight:normal;text-anchor:middle;" transform="rotate(-0, 1133.054921, 2067.358437)" x="1133.054921" y="2067.358437">1017.5</text>
     </g>
    </g>
    <g id="xtick_7">
     <g id="line2d_7">
      <g>
       <use style="stroke:#000000;stroke-width:0.8;" x="1347.206996" xlink:href="#m9eae64e594" y="2052.76"/>
      </g>
     </g>
     <g id="text_7">
      <text style="font-family:DejaVu Sans;font-size:10px;font-stretch:normal;font-style:normal;font-weight:normal;text-anchor:middle;" transform="rotate(-0, 1347.206996, 2067.358437)" x="1347.206996" y="2067.358437">1020.0</text>
     </g>
    </g>
    <g id="xtick_8">
     <g id="line2d_8">
      <g>
       <use style="stroke:#000000;stroke-width:0.8;" x="1561.359071" xlink:href="#m9eae64e594" y="2052.76"/>
      </g>
     </g>
     <g id="text_8">
      <text style="font-family:DejaVu Sans;font-size:10px;font-stretch:normal;font-style:normal;font-weight:normal;text-anchor:middle;" transform="rotate(-0, 1561.359071, 2067.358437)" x="1561.359071" y="2067.358437">1022.5</text>
     </g>
    </g>
    <g id="xtick_9">
     <g id="line2d_9">
      <g>
       <use style="stroke:#000000;stroke-width:0.8;" x="1775.511146" xlink:href="#m9eae64e594" y="2052.76"/>
      </g>
     </g>
     <g id="text_9">
      <text style="font-family:DejaVu Sans;font-size:10px;font-stretch:normal;font-style:normal;font-weight:normal;text-anchor:middle;" transform="rotate(-0, 1775.511146, 2067.358437)" x="1775.511146" y="2067.358437">1025.0</text>
     </g>
    </g>
    <g id="text_10">
     <text style="font-family:DejaVu Sans;font-size:10px;font-stretch:normal;font-style:normal;font-weight:normal;text-anchor:middle;" transform="rotate(-0, 927.040625, 2081.036562)" x="927.040625" y="2081.036562">air_pressure from Foreca</text>
    </g>
   </g>
   <g id="matplotlib.axis_2">
    <g id="ytick_1">
     <g id="line2d_10">
      <defs>
       <path d="M 0 0 
L -3.5 0 
" id="m890b6302b6" style="stroke:#000000;stroke-width:0.8;"/>
      </defs>
      <g>
       <use style="stroke:#000000;stroke-width:0.8;" x="34.240625" xlink:href="#m890b6302b6" y="1861.192421"/>
      </g>
     </g>
     <g id="text_11">
      <text style="font-family:DejaVu Sans;font-size:10px;font-stretch:normal;font-style:normal;font-weight:normal;text-anchor:end;" transform="rotate(-0, 27.240625, 1864.99164)" x="27.240625" y="1864.99164">4</text>
     </g>
    </g>
    <g id="ytick_2">
     <g id="line2d_11">
      <g>
       <use style="stroke:#000000;stroke-width:0.8;" x="34.240625" xlink:href="#m890b6302b6" y="1589.311099"/>
      </g>
     </g>
     <g id="text_12">
      <text style="font-family:DejaVu Sans;font-size:10px;font-stretch:normal;font-style:normal;font-weight:normal;text-anchor:end;" transform="rotate(-0, 27.240625, 1593.110318)" x="27.240625" y="1593.110318">5</text>
     </g>
    </g>
    <g id="ytick_3">
     <g id="line2d_12">
      <g>
       <use style="stroke:#000000;stroke-width:0.8;" x="34.240625" xlink:href="#m890b6302b6" y="1317.429777"/>
      </g>
     </g>
     <g id="text_13">
      <text style="font-family:DejaVu Sans;font-size:10px;font-stretch:normal;font-style:normal;font-weight:normal;text-anchor:end;" transform="rotate(-0, 27.240625, 1321.228996)" x="27.240625" y="1321.228996">6</text>
     </g>
    </g>
    <g id="ytick_4">
     <g id="line2d_13">
      <g>
       <use style="stroke:#000000;stroke-width:0.8;" x="34.240625" xlink:href="#m890b6302b6" y="1045.548456"/>
      </g>
     </g>
     <g id="text_14">
      <text style="font-family:DejaVu Sans;font-size:10px;font-stretch:normal;font-style:normal;font-weight:normal;text-anchor:end;" transform="rotate(-0, 27.240625, 1049.347675)" x="27.240625" y="1049.347675">7</text>
     </g>
    </g>
    <g id="ytick_5">
     <g id="line2d_14">
      <g>
       <use style="stroke:#000000;stroke-width:0.8;" x="34.240625" xlink:href="#m890b6302b6" y="773.667134"/>
      </g>
     </g>
     <g id="text_15">
      <text style="font-family:DejaVu Sans;font-size:10px;font-stretch:normal;font-style:normal;font-weight:normal;text-anchor:end;" transform="rotate(-0, 27.240625, 777.466353)" x="27.240625" y="777.466353">8</text>
     </g>
    </g>
    <g id="ytick_6">
     <g id="line2d_15">
      <g>
       <use style="stroke:#000000;stroke-width:0.8;" x="34.240625" xlink:href="#m890b6302b6" y="501.785813"/>
      </g>
     </g>
     <g id="text_16">
      <text style="font-family:DejaVu Sans;font-size:10px;font-stretch:normal;font-style:normal;font-weight:normal;text-anchor:end;" transform="rotate(-0, 27.240625, 505.585031)" x="27.240625" y="505.585031">9</text>
     </g>
    </g>
    <g id="text_17">
     <text style="font-family:DejaVu Sans;font-size:10px;font-stretch:normal;font-style:normal;font-weight:normal;text-anchor:middle;" transform="rotate(-90, 14.798438, 1165.72)" x="14.798438" y="1165.72">ping[ms]</text>
    </g>
   </g>
   <g id="line2d_16">
    <path clip-path="url(#p653a108592)" d="M 115.404261 1662.990937 
L 116.26087 1669.244208 
L 117.117478 1682.566392 
L 117.974086 1572.182576 
L 118.830695 1577.892084 
L 119.687303 1337.005233 
L 120.543911 1391.109616 
L 121.400519 1566.201187 
L 122.257128 1419.929036 
L 123.113736 1627.374484 
L 123.970344 1637.434093 
L 124.826953 1566.201187 
L 125.683561 1578.707728 
L 126.540169 1519.437599 
L 127.396778 1351.686824 
L 128.253386 1504.484127 
L 129.966602 1696.976102 
L 130.823211 1629.821416 
L 131.679819 1738.573945 
L 132.536427 1620.577451 
L 133.393036 1728.242454 
L 134.249644 1502.852839 
L 135.106252 1699.966797 
L 135.962861 1613.780418 
L 136.819469 1622.48062 
L 137.676077 1667.069157 
L 138.532685 1752.983655 
L 139.389294 1775.006042 
L 140.245902 1671.147377 
L 141.10251 1739.933351 
L 141.959119 1717.367202 
L 142.815727 1734.223844 
L 143.672335 1722.261065 
L 144.528944 1466.964504 
L 145.385552 1677.400647 
L 146.24216 1815.78824 
L 147.098768 1651.028159 
L 147.955377 1615.411706 
L 149.668593 1788.056345 
L 150.525202 1753.527417 
L 151.38181 1339.180283 
L 152.238418 1648.309346 
L 153.095027 1736.127013 
L 153.951635 1548.528901 
L 154.808243 1636.346568 
L 155.664851 1783.162481 
L 156.52146 1847.326473 
L 157.378068 1615.955469 
L 158.234676 1713.0171 
L 159.091285 1623.024383 
L 159.947893 1693.713527 
L 161.66111 1727.970573 
L 162.517718 1700.238678 
L 163.374326 1804.912987 
L 164.230934 1747.81791 
L 165.944151 1721.989184 
L 166.800759 1651.30004 
L 167.657368 1701.869966 
L 168.513976 1633.083992 
L 170.227193 1812.253783 
L 171.083801 1728.514336 
L 172.797017 1263.597276 
L 174.510234 1506.931059 
L 175.366842 1695.888577 
L 177.080059 1701.054322 
L 177.936667 1603.720809 
L 179.649884 1726.339285 
L 181.3631 1622.48062 
L 182.219709 1831.829238 
L 183.932925 1662.719056 
L 184.789534 1705.132542 
L 185.646142 1689.907188 
L 186.50275 1773.918517 
L 188.215967 1791.862684 
L 189.072575 1755.702468 
L 189.929183 1740.477114 
L 190.785792 1683.925799 
L 192.499008 1543.091274 
L 193.355617 1772.55911 
L 194.212225 1866.358166 
L 195.925442 1630.093297 
L 196.78205 1640.696669 
L 197.638658 1746.186622 
L 198.495266 1749.99296 
L 199.351875 1510.737397 
L 201.065091 1604.808334 
L 202.778308 1735.58325 
L 204.491524 1587.40793 
L 205.348133 1754.614943 
L 206.204741 1514.271854 
L 207.917958 1651.30004 
L 208.774566 1564.569899 
L 210.487783 1638.7935 
L 211.344391 1666.797276 
L 212.200999 1597.195657 
L 213.914216 1619.218045 
L 214.770824 1561.035442 
L 215.627432 1629.821416 
L 216.484041 1602.089521 
L 217.340649 1790.775158 
L 218.197257 1736.398894 
L 219.053866 1670.875496 
L 219.910474 1658.368955 
L 220.767082 1728.514336 
L 221.62369 1728.514336 
L 222.480299 1641.240432 
L 223.336907 1703.229373 
L 225.050124 1572.454457 
L 227.619949 1688.2759 
L 228.476557 1581.698422 
L 229.333165 1492.79323 
L 230.189773 1526.506514 
L 231.046382 1466.692623 
L 231.90299 1389.750209 
L 232.759598 1537.925529 
L 233.616207 1609.97408 
L 234.472815 1637.705974 
L 235.329423 1539.828699 
L 237.04264 1675.497478 
L 237.899248 1583.601591 
L 238.755856 1787.784464 
L 239.612465 1491.705705 
L 240.469073 1729.32998 
L 241.325681 1579.523372 
L 242.18229 1612.964774 
L 243.038898 1626.286959 
L 243.895506 1485.996197 
L 244.752115 1689.363425 
L 245.608723 1527.86592 
L 247.321939 1708.666999 
L 248.178548 1815.244477 
L 249.035156 1716.551558 
L 249.891764 1699.966797 
L 251.604981 1557.772866 
L 252.461589 1794.853378 
L 253.318198 1720.086015 
L 255.031414 1730.417505 
L 255.888022 1642.327957 
L 256.744631 1672.778665 
L 258.457847 1737.758301 
L 260.171064 1658.912717 
L 261.027672 1713.288982 
L 261.884281 1746.458503 
L 262.740889 1685.557087 
L 263.597497 1678.760054 
L 264.454105 1751.080486 
L 265.310714 1721.989184 
L 266.167322 1667.069157 
L 267.02393 1632.268348 
L 267.880539 1624.111908 
L 268.737147 1816.332003 
L 269.593755 1762.22762 
L 270.450364 1593.389319 
L 271.306972 1537.925529 
L 272.16358 1776.63733 
L 273.876797 1759.236925 
L 274.733405 1698.60739 
L 275.590013 1676.856885 
L 277.30323 1763.587026 
L 278.159838 1565.657424 
L 279.016447 1725.795523 
L 279.873055 1763.858908 
L 281.586271 1712.745219 
L 282.44288 1673.594309 
L 283.299488 1715.464032 
L 284.156096 1707.307593 
L 285.012705 1774.462279 
L 285.869313 1624.111908 
L 286.725921 1716.007795 
L 288.439138 1650.212515 
L 289.295746 1671.963021 
L 290.152354 1600.458233 
L 291.008963 1972.12 
L 292.722179 1487.899366 
L 293.578788 1752.983655 
L 294.435396 1646.406177 
L 295.292004 1755.158705 
L 296.148613 1594.476844 
L 297.005221 1694.257289 
L 297.861829 1629.277653 
L 299.575046 1295.679272 
L 300.431654 1781.803075 
L 301.288262 1711.385813 
L 303.001479 1354.9494 
L 303.858087 1661.631531 
L 305.571304 1708.938881 
L 306.427912 1633.355873 
L 308.141129 1778.540499 
L 308.997737 1594.476844 
L 309.854345 1720.629777 
L 312.42417 1703.229373 
L 313.280779 1461.254997 
L 314.137387 1729.601861 
L 314.993995 1743.467808 
L 316.707212 1723.620472 
L 317.56382 1723.076709 
L 318.420428 1571.095051 
L 320.133645 1659.184599 
L 320.990253 1785.609413 
L 321.846862 1547.169494 
L 323.560078 1652.931328 
L 324.416686 1751.896129 
L 325.273295 1711.657694 
L 326.129903 1505.299771 
L 326.986511 1562.122967 
L 327.84312 1710.84205 
L 328.699728 1619.218045 
L 329.556336 1645.590533 
L 330.412945 1792.678328 
L 331.269553 1519.981362 
L 332.982769 1752.439892 
L 333.839378 1696.43234 
L 336.409203 1297.31056 
L 337.265811 1654.018854 
L 338.122419 1690.994713 
L 338.979027 1431.348051 
L 340.692244 1649.668753 
L 342.405461 1593.117438 
L 343.262069 1669.516089 
L 344.118677 1822.04151 
L 346.688502 1697.519865 
L 347.54511 1546.35385 
L 348.401719 1698.60739 
L 349.258327 1735.58325 
L 350.114935 1698.879272 
L 351.828152 1828.838543 
L 352.68476 1814.972596 
L 354.397977 1744.555334 
L 355.254585 1747.002266 
L 357.82441 1775.821686 
L 358.681018 1749.449198 
L 360.394235 1718.726608 
L 362.107452 1572.454457 
L 362.96406 1700.51056 
L 363.820668 1702.141848 
L 364.677276 1776.093567 
L 366.390493 1716.823439 
L 368.10371 1692.897883 
L 369.816926 1733.951962 
L 370.673535 1693.713527 
L 372.386751 1735.855131 
L 374.099968 1504.756008 
L 374.956576 1706.491949 
L 375.813184 1692.897883 
L 377.526401 1706.220067 
L 378.383009 1615.683587 
L 379.239618 1725.795523 
L 380.096226 1770.384059 
L 381.809442 1647.493702 
L 383.522659 1702.68561 
L 384.379267 1640.96855 
L 386.092484 1729.32998 
L 386.949092 1599.370708 
L 387.805701 1741.564639 
L 389.518917 1655.922023 
L 391.232134 1690.994713 
L 392.94535 1643.415482 
L 393.801959 1670.331733 
L 395.515175 1579.795253 
L 397.228392 1764.130789 
L 398.085 1595.836251 
L 398.941608 1726.339285 
L 399.798217 1631.724585 
L 400.654825 1628.190128 
L 401.511433 1660.815887 
L 403.22465 1710.026406 
L 404.937867 1616.771113 
L 405.794475 1677.400647 
L 407.507691 1651.028159 
L 408.3643 1486.53996 
L 409.220908 1654.018854 
L 410.934125 1782.8906 
L 411.790733 1758.693163 
L 413.50395 1660.815887 
L 415.217166 1667.341038 
L 416.073774 1667.069157 
L 416.930383 1800.291005 
L 418.643599 1668.700445 
L 420.356816 1457.176777 
L 422.070033 1466.14886 
L 423.783249 1771.199703 
L 424.639857 1637.705974 
L 425.496466 1553.422765 
L 426.353074 1810.894376 
L 427.209682 1783.162481 
L 428.066291 1720.086015 
L 428.922899 1684.469562 
L 429.779507 1784.521888 
L 430.636116 1674.409953 
L 432.349332 1681.478867 
L 434.062549 1705.948186 
L 434.919157 1798.115954 
L 435.775765 1632.540229 
L 436.632374 1539.013055 
L 437.488982 1746.730384 
L 438.34559 1748.633554 
L 439.202199 1646.134295 
L 440.058807 1654.562616 
L 440.915415 1258.431531 
L 441.772023 1690.450951 
L 442.628632 1480.55857 
L 443.48524 1144.513257 
L 444.341848 1676.585003 
L 445.198457 1671.147377 
L 446.055065 1582.514066 
L 446.911673 1642.327957 
L 448.62489 1639.065381 
L 450.338106 1680.935105 
L 451.194715 1837.266864 
L 452.051323 1462.342522 
L 452.907931 1777.181092 
L 453.76454 1525.418989 
L 455.477756 1744.011571 
L 457.190973 1680.663223 
L 458.904189 1679.031935 
L 460.617406 1676.313122 
L 462.330623 1643.415482 
L 463.187231 1717.367202 
L 464.043839 1607.527148 
L 465.757056 1626.830722 
L 466.613664 1694.801052 
L 467.470272 1662.447175 
L 469.183489 1693.713527 
L 470.040097 1701.054322 
L 470.896706 1695.344815 
L 472.609922 1450.379744 
L 473.46653 1825.032205 
L 474.323139 1759.508806 
L 475.179747 1499.0465 
L 476.036355 1619.489926 
L 476.892964 1706.491949 
L 477.749572 1559.676035 
L 478.60618 1689.635307 
L 480.319397 1759.780688 
L 482.032613 1637.162212 
L 482.889222 1760.596332 
L 483.74583 1830.469831 
L 485.459047 1291.601052 
L 487.172263 1744.011571 
L 488.028872 1625.743196 
L 488.88548 1676.856885 
L 489.742088 1658.368955 
L 490.598696 1475.664707 
L 491.455305 1675.225597 
L 492.311913 1750.264842 
L 493.168521 1730.145624 
L 494.02513 1677.672529 
L 494.881738 1678.760054 
L 495.738346 1695.616696 
L 496.594955 1803.281699 
L 497.451563 1544.994444 
L 498.308171 1541.188105 
L 499.164779 1546.625732 
L 500.021388 1656.465786 
L 500.877996 1723.076709 
L 501.734604 1714.648388 
L 502.591213 1689.907188 
L 503.447821 1639.337262 
L 504.304429 1749.449198 
L 505.161038 1565.385543 
L 506.017646 1702.413729 
L 506.874254 1672.778665 
L 507.730862 1590.670506 
L 508.587471 1632.540229 
L 509.444079 1646.949939 
L 510.300687 1495.783924 
L 512.013904 1751.352367 
L 512.870512 1481.374214 
L 513.727121 1655.37826 
L 514.583729 1688.819663 
L 515.440337 1538.469292 
L 516.296945 1680.119461 
L 517.153554 1676.313122 
L 518.010162 1530.856615 
L 518.86677 1659.184599 
L 519.723379 1617.042994 
L 520.579987 1643.143601 
L 521.436595 1772.015347 
L 522.293204 1732.048793 
L 523.149812 1440.048254 
L 524.863028 1699.694916 
L 525.719637 1626.55884 
L 526.576245 1692.082239 
L 527.432853 1667.069157 
L 528.289462 1686.10085 
L 529.14607 1599.098827 
L 530.002678 1788.871989 
L 530.859287 1602.089521 
L 531.715895 1515.631261 
L 532.572503 1624.38379 
L 533.429111 1755.430587 
L 534.28572 1736.670775 
L 535.142328 1617.314875 
L 535.998936 1579.523372 
L 536.855545 1498.502738 
L 538.568761 1382.137532 
L 539.42537 1571.095051 
L 540.281978 1645.590533 
L 541.138586 1666.797276 
L 541.995194 1596.108132 
L 542.851803 1685.828968 
L 543.708411 1708.938881 
L 544.565019 1680.935105 
L 545.421628 1428.901119 
L 546.278236 1577.348321 
L 547.134844 1551.519595 
L 547.991453 1657.28143 
L 548.848061 1645.862414 
L 550.561277 1686.644612 
L 551.417886 1575.17327 
L 553.131102 1641.512313 
L 553.987711 1634.443399 
L 554.844319 1660.544005 
L 555.700927 1587.136049 
L 556.557536 1670.059852 
L 557.414144 1645.318651 
L 558.270752 1631.996467 
L 559.12736 1642.599838 
L 559.983969 1740.205233 
L 560.840577 1488.171247 
L 561.697185 1673.594309 
L 562.553794 1720.629777 
L 563.410402 1509.106109 
L 564.26701 1664.078463 
L 565.123619 1623.024383 
L 566.836835 1773.646635 
L 567.693443 1646.134295 
L 568.550052 1558.58851 
L 569.40666 1638.7935 
L 570.263268 1632.540229 
L 571.119877 1613.508537 
L 571.976485 1644.774889 
L 572.833093 1555.597815 
L 573.689702 1557.772866 
L 574.54631 1636.346568 
L 575.402918 1591.214268 
L 576.259526 1587.136049 
L 577.116135 1545.810088 
L 577.972743 1654.018854 
L 578.829351 1716.279676 
L 579.68596 1686.644612 
L 580.542568 1693.713527 
L 581.399176 1667.341038 
L 582.255785 1561.307323 
L 583.112393 1598.283183 
L 583.969001 1531.94414 
L 584.825609 1655.650142 
L 585.682218 1673.322428 
L 586.538826 1730.689386 
L 587.395434 1685.285206 
L 588.252043 1553.966527 
L 589.108651 1696.160459 
L 589.965259 1627.102603 
L 590.821868 1750.536723 
L 591.678476 1564.026136 
L 592.535084 1620.033688 
L 593.391692 1708.666999 
L 594.248301 1531.672259 
L 595.104909 1576.260796 
L 595.961517 1669.244208 
L 596.818126 1523.515819 
L 597.674734 1635.259042 
L 598.531342 1677.94441 
L 599.38795 1674.409953 
L 600.244559 1655.922023 
L 601.101167 1593.117438 
L 601.957775 1621.121214 
L 602.814384 1637.977856 
L 603.670992 1635.802805 
L 604.5276 1634.443399 
L 605.384209 1516.175024 
L 606.240817 1647.493702 
L 607.097425 1690.450951 
L 607.954033 1668.156682 
L 608.810642 1658.640836 
L 609.66725 1658.368955 
L 611.380467 1490.618179 
L 612.237075 1713.560863 
L 613.093683 1612.692893 
L 613.950292 1663.5347 
L 614.8069 1603.99269 
L 615.663508 1611.605367 
L 616.520116 1664.894107 
L 617.376725 1519.981362 
L 618.233333 1539.284936 
L 619.089941 1640.96855 
L 619.94655 1677.94441 
L 620.803158 1682.02263 
L 621.659766 1584.145354 
L 622.516375 1671.419258 
L 623.372983 1717.09532 
L 624.229591 1539.556817 
L 625.086199 1626.015078 
L 625.942808 1601.81764 
L 626.799416 1697.791746 
L 627.656024 1678.488173 
L 628.512633 1699.966797 
L 629.369241 1733.951962 
L 630.225849 1549.072664 
L 631.082458 1723.620472 
L 631.939066 1712.745219 
L 632.795674 1705.404423 
L 633.652282 1391.92526 
L 634.508891 1657.28143 
L 635.365499 1654.562616 
L 636.222107 1436.241915 
L 637.078716 1557.500984 
L 637.935324 1623.024383 
L 638.791932 1611.605367 
L 639.648541 1612.421011 
L 640.505149 1579.795253 
L 641.361757 1510.465516 
L 642.218365 1453.370438 
L 643.074974 1646.406177 
L 643.931582 1571.095051 
L 644.78819 1518.621955 
L 645.644799 1668.428564 
L 646.501407 1580.067134 
L 647.358015 1672.234902 
L 648.214624 1636.346568 
L 649.071232 1615.411706 
L 649.92784 1683.382036 
L 650.784448 1640.96855 
L 651.641057 1561.307323 
L 652.497665 1614.867943 
L 653.354273 1633.899636 
L 654.210882 1525.962751 
L 655.06749 1680.935105 
L 655.924098 1571.366932 
L 656.780707 1632.268348 
L 657.637315 1711.385813 
L 658.493923 1568.104356 
L 659.350531 1604.264572 
L 660.20714 1634.443399 
L 661.063748 1482.733621 
L 661.920356 1580.610897 
L 662.776965 1664.078463 
L 663.633573 1575.717033 
L 664.490181 1634.443399 
L 665.34679 1623.568146 
L 667.060006 1689.363425 
L 667.916614 1468.595792 
L 668.773223 1587.136049 
L 669.629831 1411.772596 
L 670.486439 1724.436116 
L 671.343048 1729.058098 
L 672.199656 1644.774889 
L 673.056264 1667.61292 
L 673.912873 1565.113661 
L 674.769481 1698.063628 
L 675.626089 1503.940364 
L 676.482697 1708.395118 
L 677.339306 1580.067134 
L 678.195914 1666.525394 
L 679.052522 1671.419258 
L 679.909131 1591.214268 
L 680.765739 1668.972326 
L 681.622347 1512.368685 
L 682.478956 1672.778665 
L 683.335564 1510.193635 
L 684.192172 1727.154929 
L 685.04878 1652.387566 
L 685.905389 1528.681564 
L 686.761997 1671.69114 
L 687.618605 1632.812111 
L 688.475214 1635.259042 
L 689.331822 1634.171517 
L 690.18843 1626.55884 
L 691.045039 1661.087768 
L 691.901647 1667.341038 
L 692.758255 1692.35412 
L 693.614863 1652.931328 
L 694.471472 1562.122967 
L 695.32808 1331.295725 
L 696.184688 1622.752502 
L 697.041297 1654.018854 
L 697.897905 1651.843803 
L 698.754513 1568.376237 
L 699.611122 1530.040971 
L 700.46773 1618.130519 
L 701.324338 1567.016831 
L 702.180946 1543.091274 
L 703.037555 1548.800782 
L 703.894163 1557.772866 
L 704.750771 1710.298287 
L 705.60738 1544.994444 
L 706.463988 1642.056076 
L 707.320596 1629.277653 
L 708.177205 1588.495455 
L 709.033813 1497.958975 
L 709.890421 1649.940634 
L 710.747029 1570.279407 
L 711.603638 1626.55884 
L 712.460246 1622.208739 
L 713.316854 1646.678058 
L 714.173463 1423.463493 
L 715.030071 1288.338476 
L 715.886679 1588.223574 
L 716.743288 1528.681564 
L 717.599896 1421.016561 
L 718.456504 1681.478867 
L 719.313112 1561.035442 
L 720.169721 1595.292488 
L 721.026329 1662.447175 
L 721.882937 1576.260796 
L 722.739546 1670.331733 
L 723.596154 1410.141308 
L 724.452762 1394.372192 
L 725.309371 1588.767336 
L 726.165979 1584.417235 
L 727.022587 1670.875496 
L 727.879195 1637.162212 
L 728.735804 1652.387566 
L 729.592412 1589.58298 
L 730.44902 1545.266325 
L 731.305629 1598.283183 
L 732.162237 1641.512313 
L 733.018845 1512.368685 
L 733.875453 1560.219798 
L 734.732062 1649.940634 
L 735.58867 1514.543736 
L 736.445278 1630.093297 
L 737.301887 1664.350344 
L 738.158495 1641.784194 
L 739.015103 1279.910155 
L 739.871712 1651.571922 
L 740.72832 1530.312852 
L 741.584928 1611.605367 
L 742.441536 1565.657424 
L 743.298145 1403.072394 
L 744.154753 1594.204963 
L 745.011361 1566.744949 
L 745.86797 1503.12472 
L 746.724578 1591.758031 
L 747.581186 1353.861875 
L 748.437795 1609.702198 
L 749.294403 1605.89586 
L 750.151011 1102.099771 
L 751.007619 1631.996467 
L 751.864228 1631.180823 
L 752.720836 1216.018045 
L 753.577444 1577.07644 
L 754.434053 1602.361403 
L 755.290661 1550.975833 
L 756.147269 1651.843803 
L 757.003878 1580.882778 
L 757.860486 1639.609144 
L 758.717094 1605.080216 
L 759.573702 1606.167741 
L 760.430311 1608.886554 
L 761.286919 1613.236655 
L 762.143527 359.32 
L 763.000136 1522.700175 
L 763.856744 1651.30004 
L 764.713352 1598.283183 
L 765.569961 1574.357626 
L 766.426569 1486.53996 
L 767.283177 1514.815617 
L 768.139785 1617.586757 
L 768.996394 1528.137802 
L 769.853002 1529.76909 
L 770.70961 1546.35385 
L 771.566219 1663.806581 
L 772.422827 1499.0465 
L 773.279435 1647.493702 
L 774.136044 818.799434 
L 774.992652 1535.750479 
L 775.84926 1481.374214 
L 776.705868 1667.884801 
L 777.562477 1586.864167 
L 778.419085 1605.080216 
L 779.275693 1510.737397 
L 780.132302 1544.450681 
L 780.98891 1685.828968 
L 781.845518 1627.102603 
L 782.702127 1494.968281 
L 783.558735 1609.430317 
L 784.415343 1592.573675 
L 785.271951 1475.936588 
L 786.12856 1581.970303 
L 786.985168 1620.577451 
L 787.841776 1564.298018 
L 788.698385 1575.988914 
L 789.554993 1339.180283 
L 790.411601 1547.713257 
L 791.26821 1652.387566 
L 792.124818 962.896534 
L 792.981426 1464.789454 
L 793.838034 1657.553311 
L 794.694643 1293.23234 
L 795.551251 1621.664976 
L 797.264468 1190.189319 
L 798.121076 1519.165718 
L 798.977684 1196.442589 
L 799.834293 1364.465246 
L 800.690901 1159.738611 
L 801.547509 1590.126743 
L 802.404117 1265.228564 
L 803.260726 1524.331463 
L 804.117334 1549.072664 
L 804.973942 1541.459987 
L 805.830551 1454.729845 
L 806.687159 1420.74468 
L 807.543767 1629.549535 
L 808.400376 1392.469022 
L 809.256984 1628.190128 
L 810.113592 1549.616426 
L 810.9702 1437.601322 
L 811.826809 790.523776 
L 812.683417 1292.144815 
L 813.540025 1460.439353 
L 814.396634 1518.893837 
L 815.253242 1608.886554 
L 816.10985 1555.597815 
L 816.966459 1645.862414 
L 817.823067 1563.210492 
L 818.679675 1398.450411 
L 819.536283 1471.858368 
L 820.392892 1457.176777 
L 821.2495 1507.746703 
L 822.106108 1505.299771 
L 822.962717 1527.594039 
L 823.819325 1622.208739 
L 824.675933 1501.493432 
L 825.532542 1659.45648 
L 826.38915 1646.406177 
L 827.245758 1581.970303 
L 828.102366 1543.635037 
L 828.958975 1636.618449 
L 829.815583 1660.544005 
L 830.672191 1608.886554 
L 831.5288 1653.20321 
L 832.385408 1544.450681 
L 833.242016 1505.843533 
L 834.098625 1582.514066 
L 834.955233 1275.560054 
L 835.811841 1557.229103 
L 837.525058 1494.424518 
L 838.381666 1391.381497 
L 839.238274 1517.53443 
L 840.094883 1667.069157 
L 840.951491 1674.681834 
L 841.808099 1600.186352 
L 842.664708 1645.590533 
L 843.521316 1607.799029 
L 844.377924 1589.311099 
L 845.234532 1614.324181 
L 846.091141 1643.415482 
L 846.947749 1620.577451 
L 847.804357 1704.316898 
L 848.660966 1381.321888 
L 850.374182 1492.79323 
L 851.230791 1657.009548 
L 852.087399 1618.946163 
L 852.944007 1630.63706 
L 853.800615 1614.052299 
L 854.657224 1505.027889 
L 855.513832 1564.026136 
L 856.37044 1631.724585 
L 857.227049 1558.58851 
L 858.083657 1515.35938 
L 858.940265 1597.73942 
L 859.796874 1589.039218 
L 860.653482 1700.51056 
L 861.51009 1658.097073 
L 862.366698 1711.113931 
L 863.223307 1596.923776 
L 864.079915 1641.784194 
L 864.936523 1582.785947 
L 865.793132 1515.903142 
L 866.64974 1535.206716 
L 867.506348 1664.894107 
L 868.362956 1617.586757 
L 869.219565 1703.501254 
L 870.076173 1567.016831 
L 870.932781 1601.545759 
L 871.78939 1624.111908 
L 872.645998 1640.152906 
L 873.502606 1484.364909 
L 874.359215 1645.590533 
L 875.215823 1580.882778 
L 876.072431 1469.955199 
L 876.929039 1713.0171 
L 877.785648 1647.493702 
L 878.642256 1662.990937 
L 879.498864 1645.04677 
L 880.355473 1620.033688 
L 881.212081 1671.147377 
L 882.068689 1627.374484 
L 882.925298 1609.702198 
L 883.781906 1642.599838 
L 884.638514 1475.664707 
L 885.495122 1669.516089 
L 886.351731 1466.420742 
L 887.208339 1437.057559 
L 888.064947 1618.130519 
L 888.921556 1774.190398 
L 889.778164 1534.934835 
L 890.634772 1684.741443 
L 891.491381 1651.028159 
L 892.347989 1631.452704 
L 893.204597 1687.460256 
L 894.061205 1711.929575 
L 894.917814 1656.193904 
L 895.774422 1673.050546 
L 896.63103 1657.28143 
L 897.487639 1382.681295 
L 898.344247 1508.018584 
L 899.200855 1676.585003 
L 900.057464 1620.033688 
L 900.914072 1730.145624 
L 901.77068 1689.907188 
L 902.627288 1571.638813 
L 903.483897 1631.180823 
L 904.340505 1672.234902 
L 905.197113 1660.272124 
L 906.053722 1716.823439 
L 906.91033 1739.933351 
L 907.766938 1726.883048 
L 908.623547 1680.391342 
L 909.480155 1657.825192 
L 910.336763 1681.750748 
L 911.193371 1732.864437 
L 912.04998 1752.983655 
L 912.906588 1736.942657 
L 913.763196 1647.765583 
L 914.619805 1710.026406 
L 915.476413 1718.726608 
L 916.333021 1688.547782 
L 917.18963 1708.123237 
L 918.046238 1709.482643 
L 918.902846 1585.776642 
L 919.759454 1663.262819 
L 920.616063 1763.315145 
L 921.472671 1596.108132 
L 922.329279 1683.925799 
L 923.185888 1629.005772 
L 924.042496 1795.940904 
L 924.899104 1556.685341 
L 925.755713 1687.188375 
L 926.612321 1661.903412 
L 927.468929 1713.832744 
L 928.325537 1682.838274 
L 929.182146 1707.851355 
L 930.038754 1627.918247 
L 930.895362 1662.447175 
L 931.751971 1604.536453 
L 932.608579 1790.503277 
L 933.465187 1485.996197 
L 934.321796 1574.901389 
L 935.178404 1652.115684 
L 936.035012 1612.692893 
L 936.89162 1496.599568 
L 937.748229 1531.400378 
L 938.604837 1632.812111 
L 939.461445 1620.033688 
L 941.174662 1640.152906 
L 942.03127 1534.934835 
L 942.887879 1486.53996 
L 943.744487 1475.936588 
L 944.601095 1664.894107 
L 945.457703 1637.705974 
L 946.314312 1595.020607 
L 947.17092 1631.724585 
L 948.027528 1769.024653 
L 949.740745 1713.288982 
L 950.597353 1661.359649 
L 951.453962 1659.728361 
L 952.31057 1710.298287 
L 953.167178 1704.58878 
L 954.023786 1426.454187 
L 954.880395 1671.419258 
L 955.737003 1655.106379 
L 956.593611 1379.962481 
L 957.45022 1212.755469 
L 958.306828 1586.592286 
L 959.163436 1639.337262 
L 960.020045 1640.152906 
L 960.876653 1541.731868 
L 961.733261 1460.439353 
L 963.446478 1599.642589 
L 964.303086 1644.503007 
L 965.159694 1602.089521 
L 966.016303 1663.806581 
L 966.872911 1466.692623 
L 967.729519 1627.918247 
L 968.586128 1521.340769 
L 969.442736 1611.333486 
L 970.299344 1609.97408 
L 971.155952 1650.484396 
L 972.012561 1498.774619 
L 972.869169 1633.627755 
L 973.725777 1236.681025 
L 974.582386 1594.204963 
L 975.438994 1398.17853 
L 976.295602 1671.419258 
L 977.152211 1622.208739 
L 978.008819 1667.069157 
L 978.865427 1464.789454 
L 979.722035 1533.575428 
L 980.578644 1655.106379 
L 981.435252 1437.057559 
L 982.29186 1679.575698 
L 983.148469 1667.069157 
L 984.005077 1584.960998 
L 984.861685 1640.424788 
L 985.718294 1592.845556 
L 986.574902 1652.931328 
L 988.288118 1710.84205 
L 989.144727 1636.89033 
L 990.001335 1917.199973 
L 990.857943 1617.314875 
L 992.57116 1538.469292 
L 993.427768 1787.512583 
L 994.284376 1676.856885 
L 995.140985 1683.925799 
L 995.997593 1796.756548 
L 996.854201 1581.154659 
L 997.71081 1724.979879 
L 998.567418 1589.854862 
L 1000.280635 1594.748726 
L 1001.137243 1674.953715 
L 1001.993851 1637.162212 
L 1002.850459 1727.154929 
L 1003.707068 1651.843803 
L 1004.563676 1506.659177 
L 1005.420284 1673.050546 
L 1006.276893 1664.894107 
L 1007.133501 1633.627755 
L 1008.846718 1696.704221 
L 1009.703326 1632.812111 
L 1010.559934 1660.544005 
L 1011.416542 1817.963291 
L 1012.273151 1722.261065 
L 1013.129759 1723.892353 
L 1013.986367 1711.929575 
L 1014.842976 1636.618449 
L 1015.699584 1660.544005 
L 1016.556192 1627.918247 
L 1018.269409 1654.018854 
L 1019.126017 1725.795523 
L 1019.982625 1811.166258 
L 1020.839234 1707.579474 
L 1021.695842 1769.024653 
L 1022.55245 1586.048523 
L 1023.409059 1691.538476 
L 1024.265667 1694.257289 
L 1025.122275 1677.94441 
L 1025.978884 1685.285206 
L 1026.835492 1684.19768 
L 1027.6921 1698.063628 
L 1028.548708 1612.421011 
L 1029.405317 1628.190128 
L 1030.261925 1419.929036 
L 1031.118533 1632.540229 
L 1031.975142 1567.288712 
L 1033.688358 1631.996467 
L 1034.544967 1653.20321 
L 1035.401575 1640.424788 
L 1036.258183 1662.990937 
L 1037.114791 1724.436116 
L 1037.9714 1547.441376 
L 1038.828008 1662.990937 
L 1039.684616 1620.033688 
L 1040.541225 1657.825192 
L 1041.397833 1600.186352 
L 1042.254441 1575.717033 
L 1043.11105 1736.127013 
L 1043.967658 1616.499231 
L 1044.824266 1530.856615 
L 1045.680874 1611.877249 
L 1046.537483 1634.443399 
L 1047.394091 1681.206986 
L 1048.250699 1619.218045 
L 1049.107308 1693.713527 
L 1049.963916 1454.186082 
L 1050.820524 1603.448928 
L 1051.677133 1647.765583 
L 1052.533741 1640.696669 
L 1053.390349 1522.972057 
L 1054.246957 1471.314606 
L 1055.103566 1521.61265 
L 1055.960174 1703.773136 
L 1056.816782 1776.63733 
L 1057.673391 1665.165988 
L 1058.529999 1720.901659 
L 1059.386607 1679.303817 
L 1060.243216 1694.257289 
L 1061.099824 1585.776642 
L 1062.81304 1581.970303 
L 1064.526257 1573.270101 
L 1065.382865 1568.104356 
L 1067.096082 1774.73416 
L 1067.95269 1631.724585 
L 1068.809299 1699.151153 
L 1070.522515 1498.230856 
L 1071.379123 1511.553041 
L 1072.235732 1702.413729 
L 1073.09234 1574.357626 
L 1073.948948 1647.765583 
L 1075.662165 1630.093297 
L 1076.518773 1697.247984 
L 1077.375382 1719.542252 
L 1078.23199 1647.765583 
L 1079.088598 1711.113931 
L 1079.945206 1728.514336 
L 1080.801815 1621.393095 
L 1081.658423 1666.797276 
L 1082.515031 1730.961268 
L 1084.228248 1596.380013 
L 1085.084856 1705.676305 
L 1085.941465 1340.811571 
L 1086.798073 1680.663223 
L 1087.654681 1652.659447 
L 1088.511289 1475.120944 
L 1089.367898 1560.76356 
L 1091.081114 1670.059852 
L 1091.937723 1722.804828 
L 1092.794331 1685.013324 
L 1093.650939 1566.201187 
L 1094.507548 1608.342792 
L 1095.364156 1666.525394 
L 1096.220764 1614.052299 
L 1097.077372 1743.195927 
L 1097.933981 1681.750748 
L 1098.790589 1515.087498 
L 1099.647197 1630.093297 
L 1100.503806 1673.86619 
L 1101.360414 1671.963021 
L 1102.217022 1557.229103 
L 1103.073631 1711.657694 
L 1103.930239 1680.391342 
L 1104.786847 1601.545759 
L 1105.643455 1603.448928 
L 1106.500064 1693.441645 
L 1107.356672 1668.428564 
L 1108.21328 1623.568146 
L 1109.069889 1690.450951 
L 1109.926497 1668.428564 
L 1110.783105 1605.623978 
L 1111.639714 1698.335509 
L 1112.496322 1754.886824 
L 1113.35293 1610.517842 
L 1114.209538 1595.836251 
L 1115.066147 1568.104356 
L 1115.922755 1649.668753 
L 1116.779363 1629.005772 
L 1117.635972 1675.497478 
L 1118.49258 1737.214538 
L 1120.205797 1727.154929 
L 1121.062405 1675.225597 
L 1121.919013 1633.627755 
L 1122.775621 1690.179069 
L 1123.63223 1663.806581 
L 1124.488838 1539.828699 
L 1125.345446 1653.475091 
L 1126.202055 1632.268348 
L 1127.058663 1649.12499 
L 1127.915271 1657.009548 
L 1128.771879 1596.380013 
L 1129.628488 1683.925799 
L 1130.485096 1539.556817 
L 1131.341704 1648.853109 
L 1132.198313 1688.819663 
L 1133.054921 1676.585003 
L 1133.911529 1658.640836 
L 1134.768138 1653.20321 
L 1135.624746 1702.68561 
L 1136.481354 1744.555334 
L 1137.337962 1686.916494 
L 1138.194571 1721.17354 
L 1139.051179 1681.750748 
L 1139.907787 1750.264842 
L 1140.764396 1509.377991 
L 1141.621004 1416.394579 
L 1142.477612 1652.659447 
L 1143.334221 1552.607121 
L 1145.047437 1805.184869 
L 1145.904045 1601.545759 
L 1146.760654 1705.132542 
L 1147.617262 1711.113931 
L 1148.47387 1475.392825 
L 1149.330479 1721.445421 
L 1150.187087 1715.192151 
L 1151.043695 1699.694916 
L 1151.900304 1704.58878 
L 1152.756912 1435.698152 
L 1153.61352 1444.670236 
L 1154.470128 1574.629508 
L 1155.326737 1686.10085 
L 1156.183345 1686.916494 
L 1157.039953 1672.234902 
L 1157.896562 1734.223844 
L 1158.75317 1718.454727 
L 1159.609778 1592.029912 
L 1160.466387 1643.143601 
L 1161.322995 1676.313122 
L 1162.179603 441.971922 
L 1163.036211 1672.234902 
L 1163.89282 629.841915 
L 1164.749428 1562.122967 
L 1165.606036 1621.936858 
L 1167.319253 1679.303817 
L 1168.175861 1372.077923 
L 1169.03247 1600.186352 
L 1169.889078 1563.754255 
L 1170.745686 1618.946163 
L 1171.602294 1504.212245 
L 1172.458903 1537.653648 
L 1174.172119 1729.32998 
L 1175.028728 1449.020337 
L 1175.885336 1636.618449 
L 1176.741944 1681.750748 
L 1177.598553 1570.279407 
L 1178.455161 1660.000243 
L 1179.311769 1631.724585 
L 1180.168377 1616.771113 
L 1181.024986 1574.629508 
L 1181.881594 1644.231126 
L 1182.738202 1732.864437 
L 1183.594811 1715.464032 
L 1184.451419 1429.716763 
L 1185.308027 1653.746972 
L 1186.164636 1643.687363 
L 1187.021244 1760.596332 
L 1187.877852 1499.318382 
L 1188.73446 1425.910425 
L 1189.591069 1574.629508 
L 1190.447677 1746.730384 
L 1191.304285 1774.462279 
L 1192.160894 1494.424518 
L 1193.017502 1598.826945 
L 1193.87411 1724.707997 
L 1194.730719 1617.314875 
L 1195.587327 1604.808334 
L 1196.443935 1679.575698 
L 1197.300543 1714.92027 
L 1198.157152 1537.109885 
L 1199.01376 1608.886554 
L 1199.870368 1585.232879 
L 1200.726977 1686.10085 
L 1201.583585 1632.268348 
L 1202.440193 1595.020607 
L 1203.296802 1551.791477 
L 1204.15341 1634.987161 
L 1205.010018 1234.505974 
L 1205.866626 1580.339016 
L 1206.723235 1674.953715 
L 1207.579843 1619.761807 
L 1208.436451 1621.121214 
L 1209.29306 1512.096804 
L 1210.149668 1653.475091 
L 1211.006276 1716.551558 
L 1211.862885 1615.955469 
L 1212.719493 1690.179069 
L 1213.576101 1752.168011 
L 1214.432709 1722.261065 
L 1215.289318 1744.827215 
L 1217.002534 1633.355873 
L 1217.859143 1729.32998 
L 1218.715751 1586.592286 
L 1219.572359 1810.078732 
L 1220.428968 1636.89033 
L 1221.285576 1565.929305 
L 1222.142184 1607.255266 
L 1222.998792 1635.259042 
L 1223.855401 1592.845556 
L 1224.712009 1567.832475 
L 1225.568617 1782.618719 
L 1226.425226 1590.126743 
L 1227.281834 1710.026406 
L 1228.138442 1568.92 
L 1228.995051 1703.773136 
L 1229.851659 1468.323911 
L 1230.708267 1616.771113 
L 1231.564875 1476.752232 
L 1232.421484 1712.201457 
L 1233.278092 1654.562616 
L 1234.1347 1688.819663 
L 1234.991309 1767.665246 
L 1235.847917 1498.774619 
L 1236.704525 1663.5347 
L 1237.561134 1512.096804 
L 1238.417742 1783.978125 
L 1239.27435 1564.026136 
L 1240.130958 1663.262819 
L 1240.987567 1608.614673 
L 1241.844175 1601.273877 
L 1242.700783 1707.035711 
L 1243.557392 1665.437869 
L 1244.414 1635.802805 
L 1245.270608 1480.830452 
L 1246.127217 1577.07644 
L 1246.983825 1442.223304 
L 1247.840433 1837.810627 
L 1248.697041 1678.216291 
L 1249.55365 1736.670775 
L 1250.410258 1652.931328 
L 1251.266866 1752.439892 
L 1252.123475 1572.182576 
L 1252.980083 1292.688577 
L 1253.836691 1670.875496 
L 1254.6933 1650.756278 
L 1255.549908 1608.342792 
L 1256.406516 1718.99849 
L 1257.263124 1380.506244 
L 1258.119733 1620.577451 
L 1258.976341 1651.843803 
L 1260.689558 1598.283183 
L 1261.546166 1711.385813 
L 1262.402774 1705.676305 
L 1263.259382 1603.720809 
L 1264.115991 1634.443399 
L 1264.972599 1584.145354 
L 1265.829207 1694.529171 
L 1266.685816 1531.128496 
L 1267.542424 1636.618449 
L 1268.399032 1695.072933 
L 1269.255641 1566.201187 
L 1270.112249 1727.970573 
L 1270.968857 1518.621955 
L 1271.825465 1680.935105 
L 1272.682074 1657.009548 
L 1273.538682 1692.897883 
L 1274.39529 1780.71555 
L 1275.251899 1698.879272 
L 1276.108507 1712.201457 
L 1276.965115 1645.590533 
L 1277.821724 1740.477114 
L 1278.678332 1606.167741 
L 1279.53494 1537.925529 
L 1280.391548 1611.605367 
L 1281.248157 1628.190128 
L 1282.104765 1734.767606 
L 1282.961373 1643.415482 
L 1283.817982 1685.013324 
L 1284.67459 1630.365179 
L 1285.531198 1609.158436 
L 1286.387807 1717.910964 
L 1287.244415 1637.705974 
L 1288.101023 1768.48089 
L 1288.957631 1570.551288 
L 1289.81424 1606.439622 
L 1290.670848 1682.294511 
L 1291.527456 1378.059312 
L 1292.384065 1599.370708 
L 1293.240673 1621.121214 
L 1294.097281 1601.001996 
L 1294.95389 1535.478597 
L 1295.810498 1680.935105 
L 1296.667106 1643.959245 
L 1297.523714 1631.452704 
L 1298.380323 1643.415482 
L 1299.236931 1685.285206 
L 1300.093539 1649.396871 
L 1300.950148 1583.601591 
L 1301.806756 1704.045017 
L 1302.663364 1682.566392 
L 1303.519973 1571.095051 
L 1304.376581 1674.409953 
L 1305.233189 1646.949939 
L 1306.089797 1556.957222 
L 1306.946406 1651.571922 
L 1307.803014 1618.130519 
L 1308.659622 1640.152906 
L 1309.516231 1549.344545 
L 1310.372839 1688.2759 
L 1311.229447 1527.86592 
L 1312.086056 1629.549535 
L 1312.942664 1644.503007 
L 1313.799272 1611.605367 
L 1314.65588 1557.500984 
L 1315.512489 1564.026136 
L 1316.369097 1630.093297 
L 1317.225705 1598.011301 
L 1318.082314 1638.7935 
L 1318.938922 1623.296264 
L 1319.79553 1699.151153 
L 1320.652139 1667.884801 
L 1321.508747 1619.761807 
L 1322.365355 1578.979609 
L 1323.221963 1708.123237 
L 1324.078572 1541.731868 
L 1324.93518 1674.138071 
L 1325.791788 1633.083992 
L 1326.648397 1495.240162 
L 1327.505005 1636.074686 
L 1328.361613 1436.241915 
L 1329.218222 1688.547782 
L 1330.07483 1580.882778 
L 1330.931438 1705.948186 
L 1331.788046 1436.785678 
L 1332.644655 1542.27563 
L 1333.501263 1531.672259 
L 1334.357871 1724.436116 
L 1335.21448 1585.232879 
L 1336.071088 1556.413459 
L 1336.927696 1545.266325 
L 1337.784305 1679.847579 
L 1338.640913 1434.610627 
L 1339.497521 1630.365179 
L 1341.210738 1657.553311 
L 1342.067346 1516.990668 
L 1343.780563 1675.497478 
L 1344.637171 1694.257289 
L 1345.493779 1742.652165 
L 1346.350388 1597.195657 
L 1347.206996 1701.054322 
L 1348.063604 1636.074686 
L 1348.920212 1668.972326 
L 1349.776821 1580.067134 
L 1350.633429 1705.676305 
L 1351.490037 1627.646365 
L 1352.346646 1686.10085 
L 1353.203254 1638.521618 
L 1354.059862 1627.918247 
L 1354.916471 1516.990668 
L 1355.773079 1658.640836 
L 1356.629687 1676.041241 
L 1357.486295 1585.504761 
L 1358.342904 1629.277653 
L 1359.199512 1697.519865 
L 1360.05612 1667.069157 
L 1360.912729 1648.309346 
L 1361.769337 1685.828968 
L 1362.625945 1591.48615 
L 1363.482554 1693.441645 
L 1364.339162 1654.018854 
L 1365.19577 1542.003749 
L 1366.052378 1550.160189 
L 1366.908987 1627.918247 
L 1367.765595 1652.931328 
L 1368.622203 1626.55884 
L 1369.478812 1559.676035 
L 1370.33542 1382.953176 
L 1371.192028 1684.469562 
L 1372.048637 1585.232879 
L 1372.905245 1669.244208 
L 1373.761853 1698.60739 
L 1374.618461 1692.897883 
L 1375.47507 1741.292758 
L 1376.331678 1431.348051 
L 1377.188286 1662.719056 
L 1378.044895 1662.719056 
L 1378.901503 1667.884801 
L 1379.758111 1592.573675 
L 1380.61472 1470.22708 
L 1381.471328 1608.614673 
L 1382.327936 1527.322158 
L 1383.184544 1652.387566 
L 1384.041153 1628.190128 
L 1384.897761 1621.936858 
L 1385.754369 1664.894107 
L 1386.610978 1478.111639 
L 1387.467586 1619.761807 
L 1388.324194 1539.284936 
L 1389.180803 1597.195657 
L 1390.037411 1568.92 
L 1390.894019 1581.698422 
L 1391.750627 1639.337262 
L 1392.607236 1555.054053 
L 1393.463844 1302.748186 
L 1394.320452 1298.669966 
L 1395.177061 1450.107862 
L 1396.033669 1342.442859 
L 1396.890277 1606.983385 
L 1397.746885 1654.018854 
L 1398.603494 1657.28143 
L 1399.460102 1534.119191 
L 1401.173319 1722.532947 
L 1402.029927 1648.037465 
L 1402.886535 1686.372731 
L 1403.743144 1594.204963 
L 1404.599752 1658.368955 
L 1405.45636 1663.5347 
L 1406.312968 1625.199434 
L 1407.169577 1609.97408 
L 1408.026185 1466.420742 
L 1408.882793 1681.750748 
L 1409.739402 1639.065381 
L 1410.59601 1519.709481 
L 1411.452618 1368.815347 
L 1412.309227 1245.381227 
L 1413.165835 1462.614403 
L 1414.022443 1116.781362 
L 1414.879051 1312.264032 
L 1415.73566 1647.493702 
L 1416.592268 1595.020607 
L 1417.448876 1461.798759 
L 1418.305485 1625.743196 
L 1419.162093 1385.128227 
L 1420.018701 1449.835981 
L 1420.87531 1568.104356 
L 1421.731918 1502.309076 
L 1422.588526 1663.806581 
L 1423.445134 1438.688847 
L 1424.301743 1631.180823 
L 1425.158351 1619.489926 
L 1426.014959 1559.404154 
L 1426.871568 1548.528901 
L 1427.728176 1581.970303 
L 1428.584784 1576.260796 
L 1429.441393 1641.512313 
L 1430.298001 1621.936858 
L 1431.154609 1531.672259 
L 1432.011217 1668.972326 
L 1432.867826 1617.314875 
L 1433.724434 1653.475091 
L 1434.581042 1677.128766 
L 1435.437651 1600.458233 
L 1436.294259 1613.236655 
L 1437.150867 1575.17327 
L 1438.007476 1468.05203 
L 1439.720692 1592.301794 
L 1440.5773 1621.936858 
L 1441.433909 1539.828699 
L 1442.290517 964.255941 
L 1443.147125 1590.942387 
L 1444.003734 1606.711504 
L 1444.860342 1775.821686 
L 1445.71695 1554.782171 
L 1446.573559 1619.218045 
L 1447.430167 1580.610897 
L 1448.286775 1609.97408 
L 1449.999992 1592.301794 
L 1450.8566 1667.61292 
L 1451.713208 1577.07644 
L 1452.569817 1664.894107 
L 1453.426425 1632.268348 
L 1454.283033 1607.255266 
L 1455.139642 1676.856885 
L 1455.99625 1642.056076 
L 1456.852858 1555.869697 
L 1457.709466 1595.836251 
L 1458.566075 1624.38379 
L 1459.422683 1588.495455 
L 1460.279291 1656.465786 
L 1461.1359 1591.214268 
L 1461.992508 1540.372461 
L 1462.849116 1716.823439 
L 1463.705725 1570.007525 
L 1464.562333 1548.528901 
L 1465.418941 1483.005502 
L 1466.275549 1626.55884 
L 1467.132158 1643.143601 
L 1467.988766 1624.655671 
L 1468.845374 1642.599838 
L 1469.701983 1733.951962 
L 1470.558591 1654.562616 
L 1471.415199 1661.087768 
L 1472.271808 1505.843533 
L 1473.128416 1493.336993 
L 1473.985024 1658.912717 
L 1474.841632 1653.475091 
L 1475.698241 1543.906918 
L 1476.554849 1625.743196 
L 1477.411457 1498.230856 
L 1478.268066 1594.204963 
L 1479.124674 1552.607121 
L 1479.981282 1592.573675 
L 1480.837891 1581.970303 
L 1481.694499 1656.737667 
L 1482.551107 1579.795253 
L 1483.407715 1554.782171 
L 1484.264324 1660.272124 
L 1485.120932 1672.506784 
L 1485.97754 1545.810088 
L 1486.834149 1597.467539 
L 1487.690757 1727.698692 
L 1488.547365 1709.482643 
L 1490.260582 1522.156413 
L 1491.11719 1676.585003 
L 1491.973798 1519.709481 
L 1492.830407 1488.986891 
L 1493.687015 1716.007795 
L 1494.543623 1678.760054 
L 1495.400232 1565.385543 
L 1496.25684 1622.48062 
L 1497.113448 1505.843533 
L 1497.970057 1702.413729 
L 1498.826665 1644.503007 
L 1499.683273 1568.92 
L 1501.39649 1734.767606 
L 1502.253098 1699.423034 
L 1503.109706 1505.843533 
L 1503.966315 1795.12526 
L 1504.822923 1719.814134 
L 1505.679531 1544.722562 
L 1506.53614 1658.368955 
L 1507.392748 1572.182576 
L 1508.249356 1654.018854 
L 1509.105964 1598.555064 
L 1509.962573 1718.454727 
L 1510.819181 1598.555064 
L 1511.675789 1620.033688 
L 1512.532398 1509.921753 
L 1513.389006 1681.478867 
L 1514.245614 1664.894107 
L 1515.102223 1679.575698 
L 1515.958831 1552.063358 
L 1516.815439 1556.685341 
L 1517.672047 1602.633284 
L 1518.528656 1604.264572 
L 1519.385264 1623.024383 
L 1520.241872 1481.646096 
L 1521.098481 1624.111908 
L 1521.955089 1521.61265 
L 1522.811697 1511.824922 
L 1523.668305 1615.683587 
L 1524.524914 1547.985138 
L 1525.381522 1565.657424 
L 1526.23813 1669.244208 
L 1527.094739 1663.5347 
L 1527.951347 1653.475091 
L 1528.807955 1571.366932 
L 1530.521172 1716.007795 
L 1531.37778 1417.210223 
L 1532.234388 1668.156682 
L 1533.090997 1644.503007 
L 1533.947605 1553.150883 
L 1534.804213 1510.193635 
L 1535.660822 1631.724585 
L 1536.51743 1642.056076 
L 1537.374038 1629.005772 
L 1538.230647 1693.169764 
L 1539.087255 1701.054322 
L 1539.943863 1653.20321 
L 1540.800471 1656.737667 
L 1541.65708 1530.856615 
L 1542.513688 1645.590533 
L 1543.370296 1542.003749 
L 1544.226905 1697.791746 
L 1545.083513 1580.067134 
L 1545.940121 1629.277653 
L 1546.79673 1639.609144 
L 1547.653338 1738.573945 
L 1548.509946 1633.627755 
L 1549.366554 1671.147377 
L 1550.223163 1610.245961 
L 1551.079771 1717.910964 
L 1551.936379 1655.106379 
L 1552.792988 1689.635307 
L 1553.649596 1746.730384 
L 1554.506204 1642.599838 
L 1555.362813 1667.341038 
L 1556.219421 1709.210762 
L 1557.076029 1713.288982 
L 1557.932637 1590.398624 
L 1558.789246 1668.700445 
L 1559.645854 1773.918517 
L 1560.502462 1764.674552 
L 1561.359071 1459.89559 
L 1562.215679 1668.428564 
L 1563.072287 1710.570169 
L 1563.928896 1661.903412 
L 1564.785504 1800.834767 
L 1565.642112 1754.886824 
L 1566.49872 1772.015347 
L 1567.355329 1648.853109 
L 1568.211937 1918.287498 
L 1569.068545 1716.551558 
L 1569.925154 1741.564639 
L 1570.781762 1649.668753 
L 1572.494979 1608.07091 
L 1573.351587 1576.260796 
L 1574.208195 1671.963021 
L 1575.064803 1734.495725 
L 1575.921412 1781.531194 
L 1576.77802 1601.273877 
L 1577.634628 1694.257289 
L 1578.491237 1646.406177 
L 1579.347845 1811.438139 
L 1580.204453 1446.845287 
L 1581.061062 1692.35412 
L 1581.91767 1698.60739 
L 1582.774278 1523.243938 
L 1583.630886 1755.158705 
L 1585.344103 1797.844073 
L 1586.200711 1667.341038 
L 1587.913928 1721.717303 
L 1589.627145 1595.020607 
L 1592.196969 1674.138071 
L 1593.053578 1733.4082 
L 1593.910186 1720.086015 
L 1595.623403 1806.544275 
L 1597.336619 1712.201457 
L 1599.049836 1674.953715 
L 1601.619661 1658.640836 
L 1602.476269 1714.648388 
L 1604.189486 1806.272394 
L 1605.046094 1787.512583 
L 1605.902702 1658.097073 
L 1606.759311 1708.123237 
L 1607.615919 1788.328227 
L 1608.472527 1697.791746 
L 1609.329135 1775.549804 
L 1611.89896 1759.508806 
L 1612.755569 1614.324181 
L 1614.468785 1754.07118 
L 1615.325394 1789.687633 
L 1616.182002 1690.450951 
L 1617.03861 1805.45675 
L 1617.895218 1644.774889 
L 1619.608435 1753.527417 
L 1620.465043 1795.12526 
L 1621.321652 1763.043264 
L 1622.17826 1697.519865 
L 1623.891477 1776.093567 
L 1624.748085 1736.942657 
L 1627.31791 1693.713527 
L 1628.174518 1735.58325 
L 1630.744343 1699.694916 
L 1631.600951 1791.862684 
L 1632.45756 1683.925799 
L 1633.314168 1790.775158 
L 1634.170776 1632.540229 
L 1635.883993 1722.261065 
L 1637.597209 1509.377991 
L 1638.453818 1873.42708 
L 1639.310426 1784.250007 
L 1640.167034 1813.069427 
L 1641.023643 1683.110155 
L 1642.736859 1676.585003 
L 1643.593467 1699.966797 
L 1645.306684 1614.596062 
L 1646.163292 1508.562347 
L 1647.019901 1446.029643 
L 1647.876509 1658.097073 
L 1648.733117 1533.575428 
L 1649.589726 1749.449198 
L 1650.446334 1523.787701 
L 1651.302942 1536.838004 
L 1652.15955 1492.521349 
L 1653.016159 1464.517572 
L 1653.872767 1596.380013 
L 1654.729375 1685.285206 
L 1655.585984 1684.741443 
L 1656.442592 1677.94441 
L 1657.2992 1476.208469 
L 1658.155808 1669.516089 
L 1659.012417 1619.489926 
L 1659.869025 1613.236655 
L 1660.725633 1468.867674 
L 1661.582242 1588.223574 
L 1662.43885 1597.195657 
L 1664.152067 1760.32445 
L 1665.008675 1649.940634 
L 1665.865283 1701.598085 
L 1666.721891 1668.972326 
L 1667.5785 1599.370708 
L 1668.435108 1574.629508 
L 1669.291716 1651.30004 
L 1670.148325 1689.907188 
L 1671.004933 1718.182846 
L 1671.861541 1574.357626 
L 1672.71815 1693.713527 
L 1673.574758 1721.17354 
L 1674.431366 1632.812111 
L 1675.287974 1755.702468 
L 1676.144583 1698.879272 
L 1677.001191 1670.875496 
L 1677.857799 1730.689386 
L 1678.714408 1722.532947 
L 1679.571016 1707.307593 
L 1680.427624 1671.147377 
L 1681.284233 1647.493702 
L 1682.140841 1721.717303 
L 1682.997449 1718.726608 
L 1683.854057 1620.577451 
L 1684.710666 1661.903412 
L 1685.567274 1526.234633 
L 1686.423882 1634.71528 
L 1687.280491 1656.193904 
L 1688.137099 1743.467808 
L 1688.993707 1672.506784 
L 1691.563532 1710.84205 
L 1692.42014 1585.232879 
L 1693.276749 1649.396871 
L 1694.133357 1625.471315 
L 1694.989965 1868.533216 
L 1695.846574 1633.627755 
L 1696.703182 1727.698692 
L 1697.55979 1728.514336 
L 1698.416399 1692.35412 
L 1699.273007 1629.549535 
L 1700.129615 1500.134026 
L 1700.986223 1694.801052 
L 1701.842832 1823.94468 
L 1702.69944 1693.441645 
L 1703.556048 1731.233149 
L 1704.412657 1659.184599 
L 1705.269265 1831.013594 
L 1706.125873 1776.093567 
L 1706.982482 1782.346837 
L 1707.83909 1684.19768 
L 1708.695698 1654.562616 
L 1709.552306 1711.113931 
L 1710.408915 1582.514066 
L 1711.265523 1679.575698 
L 1712.122131 1685.285206 
L 1712.97874 1711.929575 
L 1713.835348 1734.495725 
L 1714.691956 1660.272124 
L 1716.405173 1766.30584 
L 1717.261781 1695.616696 
L 1718.118389 1689.363425 
L 1718.974998 1633.083992 
L 1719.831606 1849.229643 
L 1720.688214 1736.670775 
L 1721.544823 1500.677788 
L 1722.401431 1471.858368 
L 1723.258039 1633.355873 
L 1724.114648 1713.832744 
L 1724.971256 1599.370708 
L 1725.827864 1698.879272 
L 1726.684472 1696.160459 
L 1727.541081 1721.17354 
L 1728.397689 1624.655671 
L 1729.254297 1713.0171 
L 1730.110906 1688.004019 
L 1730.967514 1677.128766 
L 1731.824122 1698.063628 
L 1732.680731 1657.28143 
L 1733.537339 1687.188375 
L 1734.393947 1710.570169 
L 1735.250555 1676.856885 
L 1736.107164 1654.018854 
L 1736.963772 1661.359649 
L 1737.82038 1593.933082 
L 1738.676989 1665.165988 
L 1738.676989 1665.165988 
" style="fill:none;stroke:#0000ff;stroke-linecap:square;stroke-width:1.5;"/>
   </g>
   <g id="patch_3">
    <path d="M 34.240625 2052.76 
L 34.240625 278.68 
" style="fill:none;stroke:#000000;stroke-linecap:square;stroke-linejoin:miter;stroke-width:0.8;"/>
   </g>
   <g id="patch_4">
    <path d="M 1819.840625 2052.76 
L 1819.840625 278.68 
" style="fill:none;stroke:#000000;stroke-linecap:square;stroke-linejoin:miter;stroke-width:0.8;"/>
   </g>
   <g id="patch_5">
    <path d="M 34.240625 2052.76 
L 1819.840625 2052.76 
" style="fill:none;stroke:#000000;stroke-linecap:square;stroke-linejoin:miter;stroke-width:0.8;"/>
   </g>
   <g id="patch_6">
    <path d="M 34.240625 278.68 
L 1819.840625 278.68 
" style="fill:none;stroke:#000000;stroke-linecap:square;stroke-linejoin:miter;stroke-width:0.8;"/>
   </g>
   <g id="text_18">
    <text style="font-family:DejaVu Sans;font-size:12px;font-stretch:normal;font-style:normal;font-weight:normal;text-anchor:middle;" transform="rotate(-0, 927.040625, 272.68)" x="927.040625" y="272.68">air_pressure-&gt;ping</text>
   </g>
  </g>
  <g id="legend_1">
   <g id="patch_7">
    <path d="M 1968.875 22.678125 
L 2045.440625 22.678125 
Q 2047.440625 22.678125 2047.440625 20.678125 
L 2047.440625 7 
Q 2047.440625 5 2045.440625 5 
L 1968.875 5 
Q 1966.875 5 1966.875 7 
L 1966.875 20.678125 
Q 1966.875 22.678125 1968.875 22.678125 
z
" style="fill:#ffffff;opacity:0.8;stroke:#cccccc;stroke-linejoin:miter;"/>
   </g>
   <g id="line2d_17">
    <path d="M 1970.875 13.098437 
L 1990.875 13.098437 
" style="fill:none;stroke:#0000ff;stroke-linecap:square;stroke-width:1.5;"/>
   </g>
   <g id="line2d_18"/>
   <g id="text_19">
    <text style="font-family:DejaVu Sans;font-size:10px;font-stretch:normal;font-style:normal;font-weight:normal;text-anchor:start;" transform="rotate(-0, 1998.875, 16.598437)" x="1998.875" y="16.598437">ping[ms]</text>
   </g>
  </g>
 </g>
 <defs>
  <clipPath id="p653a108592">
   <rect height="1774.08" width="1785.6" x="34.240625" y="278.68"/>
  </clipPath>
 </defs>
</svg>
