<?xml version="1.0" encoding="utf-8" standalone="no"?>
<!DOCTYPE svg PUBLIC "-//W3C//DTD SVG 1.1//EN"
  "http://www.w3.org/Graphics/SVG/1.1/DTD/svg11.dtd">
<svg height="345.6pt" version="1.1" viewBox="0 0 460.8 345.6" width="460.8pt" xmlns="http://www.w3.org/2000/svg" xmlns:xlink="http://www.w3.org/1999/xlink">
 <metadata>
  <rdf:RDF xmlns:cc="http://creativecommons.org/ns#" xmlns:dc="http://purl.org/dc/elements/1.1/" xmlns:rdf="http://www.w3.org/1999/02/22-rdf-syntax-ns#">
   <cc:Work>
    <dc:type rdf:resource="http://purl.org/dc/dcmitype/StillImage"/>
    <dc:date>2022-06-13T13:11:34.211598</dc:date>
    <dc:format>image/svg+xml</dc:format>
    <dc:creator>
     <cc:Agent>
      <dc:title>Matplotlib v3.4.2, https://matplotlib.org/</dc:title>
     </cc:Agent>
    </dc:creator>
   </cc:Work>
  </rdf:RDF>
 </metadata>
 <defs>
  <style type="text/css">*{stroke-linecap:butt;stroke-linejoin:round;}</style>
 </defs>
 <g id="figure_1">
  <g id="patch_1">
   <path d="M 0 345.6 
L 460.8 345.6 
L 460.8 0 
L 0 0 
z
" style="fill:#ffffff;"/>
  </g>
  <g id="axes_1">
   <g id="patch_2">
    <path d="M 57.6 307.584 
L 414.72 307.584 
L 414.72 41.472 
L 57.6 41.472 
z
" style="fill:#ffffff;"/>
   </g>
   <g id="matplotlib.axis_1">
    <g id="xtick_1">
     <g id="line2d_1">
      <defs>
       <path d="M 0 0 
L 0 3.5 
" id="m16d93016b7" style="stroke:#000000;stroke-width:0.8;"/>
      </defs>
      <g>
       <use style="stroke:#000000;stroke-width:0.8;" x="59.513782" xlink:href="#m16d93016b7" y="307.584"/>
      </g>
     </g>
     <g id="text_1">
      <!-- 1010 -->
      <g transform="translate(46.788782 322.182437)scale(0.1 -0.1)">
       <defs>
        <path d="M 794 531 
L 1825 531 
L 1825 4091 
L 703 3866 
L 703 4441 
L 1819 4666 
L 2450 4666 
L 2450 531 
L 3481 531 
L 3481 0 
L 794 0 
L 794 531 
z
" id="DejaVuSans-31" transform="scale(0.015625)"/>
        <path d="M 2034 4250 
Q 1547 4250 1301 3770 
Q 1056 3291 1056 2328 
Q 1056 1369 1301 889 
Q 1547 409 2034 409 
Q 2525 409 2770 889 
Q 3016 1369 3016 2328 
Q 3016 3291 2770 3770 
Q 2525 4250 2034 4250 
z
M 2034 4750 
Q 2819 4750 3233 4129 
Q 3647 3509 3647 2328 
Q 3647 1150 3233 529 
Q 2819 -91 2034 -91 
Q 1250 -91 836 529 
Q 422 1150 422 2328 
Q 422 3509 836 4129 
Q 1250 4750 2034 4750 
z
" id="DejaVuSans-30" transform="scale(0.015625)"/>
       </defs>
       <use xlink:href="#DejaVuSans-31"/>
       <use x="63.623047" xlink:href="#DejaVuSans-30"/>
       <use x="127.246094" xlink:href="#DejaVuSans-31"/>
       <use x="190.869141" xlink:href="#DejaVuSans-30"/>
      </g>
     </g>
    </g>
    <g id="xtick_2">
     <g id="line2d_2">
      <g>
       <use style="stroke:#000000;stroke-width:0.8;" x="114.586648" xlink:href="#m16d93016b7" y="307.584"/>
      </g>
     </g>
     <g id="text_2">
      <!-- 1012 -->
      <g transform="translate(101.861648 322.182437)scale(0.1 -0.1)">
       <defs>
        <path d="M 1228 531 
L 3431 531 
L 3431 0 
L 469 0 
L 469 531 
Q 828 903 1448 1529 
Q 2069 2156 2228 2338 
Q 2531 2678 2651 2914 
Q 2772 3150 2772 3378 
Q 2772 3750 2511 3984 
Q 2250 4219 1831 4219 
Q 1534 4219 1204 4116 
Q 875 4013 500 3803 
L 500 4441 
Q 881 4594 1212 4672 
Q 1544 4750 1819 4750 
Q 2544 4750 2975 4387 
Q 3406 4025 3406 3419 
Q 3406 3131 3298 2873 
Q 3191 2616 2906 2266 
Q 2828 2175 2409 1742 
Q 1991 1309 1228 531 
z
" id="DejaVuSans-32" transform="scale(0.015625)"/>
       </defs>
       <use xlink:href="#DejaVuSans-31"/>
       <use x="63.623047" xlink:href="#DejaVuSans-30"/>
       <use x="127.246094" xlink:href="#DejaVuSans-31"/>
       <use x="190.869141" xlink:href="#DejaVuSans-32"/>
      </g>
     </g>
    </g>
    <g id="xtick_3">
     <g id="line2d_3">
      <g>
       <use style="stroke:#000000;stroke-width:0.8;" x="169.659514" xlink:href="#m16d93016b7" y="307.584"/>
      </g>
     </g>
     <g id="text_3">
      <!-- 1014 -->
      <g transform="translate(156.934514 322.182437)scale(0.1 -0.1)">
       <defs>
        <path d="M 2419 4116 
L 825 1625 
L 2419 1625 
L 2419 4116 
z
M 2253 4666 
L 3047 4666 
L 3047 1625 
L 3713 1625 
L 3713 1100 
L 3047 1100 
L 3047 0 
L 2419 0 
L 2419 1100 
L 313 1100 
L 313 1709 
L 2253 4666 
z
" id="DejaVuSans-34" transform="scale(0.015625)"/>
       </defs>
       <use xlink:href="#DejaVuSans-31"/>
       <use x="63.623047" xlink:href="#DejaVuSans-30"/>
       <use x="127.246094" xlink:href="#DejaVuSans-31"/>
       <use x="190.869141" xlink:href="#DejaVuSans-34"/>
      </g>
     </g>
    </g>
    <g id="xtick_4">
     <g id="line2d_4">
      <g>
       <use style="stroke:#000000;stroke-width:0.8;" x="224.73238" xlink:href="#m16d93016b7" y="307.584"/>
      </g>
     </g>
     <g id="text_4">
      <!-- 1016 -->
      <g transform="translate(212.00738 322.182437)scale(0.1 -0.1)">
       <defs>
        <path d="M 2113 2584 
Q 1688 2584 1439 2293 
Q 1191 2003 1191 1497 
Q 1191 994 1439 701 
Q 1688 409 2113 409 
Q 2538 409 2786 701 
Q 3034 994 3034 1497 
Q 3034 2003 2786 2293 
Q 2538 2584 2113 2584 
z
M 3366 4563 
L 3366 3988 
Q 3128 4100 2886 4159 
Q 2644 4219 2406 4219 
Q 1781 4219 1451 3797 
Q 1122 3375 1075 2522 
Q 1259 2794 1537 2939 
Q 1816 3084 2150 3084 
Q 2853 3084 3261 2657 
Q 3669 2231 3669 1497 
Q 3669 778 3244 343 
Q 2819 -91 2113 -91 
Q 1303 -91 875 529 
Q 447 1150 447 2328 
Q 447 3434 972 4092 
Q 1497 4750 2381 4750 
Q 2619 4750 2861 4703 
Q 3103 4656 3366 4563 
z
" id="DejaVuSans-36" transform="scale(0.015625)"/>
       </defs>
       <use xlink:href="#DejaVuSans-31"/>
       <use x="63.623047" xlink:href="#DejaVuSans-30"/>
       <use x="127.246094" xlink:href="#DejaVuSans-31"/>
       <use x="190.869141" xlink:href="#DejaVuSans-36"/>
      </g>
     </g>
    </g>
    <g id="xtick_5">
     <g id="line2d_5">
      <g>
       <use style="stroke:#000000;stroke-width:0.8;" x="279.805246" xlink:href="#m16d93016b7" y="307.584"/>
      </g>
     </g>
     <g id="text_5">
      <!-- 1018 -->
      <g transform="translate(267.080246 322.182437)scale(0.1 -0.1)">
       <defs>
        <path d="M 2034 2216 
Q 1584 2216 1326 1975 
Q 1069 1734 1069 1313 
Q 1069 891 1326 650 
Q 1584 409 2034 409 
Q 2484 409 2743 651 
Q 3003 894 3003 1313 
Q 3003 1734 2745 1975 
Q 2488 2216 2034 2216 
z
M 1403 2484 
Q 997 2584 770 2862 
Q 544 3141 544 3541 
Q 544 4100 942 4425 
Q 1341 4750 2034 4750 
Q 2731 4750 3128 4425 
Q 3525 4100 3525 3541 
Q 3525 3141 3298 2862 
Q 3072 2584 2669 2484 
Q 3125 2378 3379 2068 
Q 3634 1759 3634 1313 
Q 3634 634 3220 271 
Q 2806 -91 2034 -91 
Q 1263 -91 848 271 
Q 434 634 434 1313 
Q 434 1759 690 2068 
Q 947 2378 1403 2484 
z
M 1172 3481 
Q 1172 3119 1398 2916 
Q 1625 2713 2034 2713 
Q 2441 2713 2670 2916 
Q 2900 3119 2900 3481 
Q 2900 3844 2670 4047 
Q 2441 4250 2034 4250 
Q 1625 4250 1398 4047 
Q 1172 3844 1172 3481 
z
" id="DejaVuSans-38" transform="scale(0.015625)"/>
       </defs>
       <use xlink:href="#DejaVuSans-31"/>
       <use x="63.623047" xlink:href="#DejaVuSans-30"/>
       <use x="127.246094" xlink:href="#DejaVuSans-31"/>
       <use x="190.869141" xlink:href="#DejaVuSans-38"/>
      </g>
     </g>
    </g>
    <g id="xtick_6">
     <g id="line2d_6">
      <g>
       <use style="stroke:#000000;stroke-width:0.8;" x="334.878112" xlink:href="#m16d93016b7" y="307.584"/>
      </g>
     </g>
     <g id="text_6">
      <!-- 1020 -->
      <g transform="translate(322.153112 322.182437)scale(0.1 -0.1)">
       <use xlink:href="#DejaVuSans-31"/>
       <use x="63.623047" xlink:href="#DejaVuSans-30"/>
       <use x="127.246094" xlink:href="#DejaVuSans-32"/>
       <use x="190.869141" xlink:href="#DejaVuSans-30"/>
      </g>
     </g>
    </g>
    <g id="xtick_7">
     <g id="line2d_7">
      <g>
       <use style="stroke:#000000;stroke-width:0.8;" x="389.950978" xlink:href="#m16d93016b7" y="307.584"/>
      </g>
     </g>
     <g id="text_7">
      <!-- 1022 -->
      <g transform="translate(377.225978 322.182437)scale(0.1 -0.1)">
       <use xlink:href="#DejaVuSans-31"/>
       <use x="63.623047" xlink:href="#DejaVuSans-30"/>
       <use x="127.246094" xlink:href="#DejaVuSans-32"/>
       <use x="190.869141" xlink:href="#DejaVuSans-32"/>
      </g>
     </g>
    </g>
    <g id="text_8">
     <!-- air_pressure from Foreca -->
     <g transform="translate(174.162344 335.860562)scale(0.1 -0.1)">
      <defs>
       <path d="M 2194 1759 
Q 1497 1759 1228 1600 
Q 959 1441 959 1056 
Q 959 750 1161 570 
Q 1363 391 1709 391 
Q 2188 391 2477 730 
Q 2766 1069 2766 1631 
L 2766 1759 
L 2194 1759 
z
M 3341 1997 
L 3341 0 
L 2766 0 
L 2766 531 
Q 2569 213 2275 61 
Q 1981 -91 1556 -91 
Q 1019 -91 701 211 
Q 384 513 384 1019 
Q 384 1609 779 1909 
Q 1175 2209 1959 2209 
L 2766 2209 
L 2766 2266 
Q 2766 2663 2505 2880 
Q 2244 3097 1772 3097 
Q 1472 3097 1187 3025 
Q 903 2953 641 2809 
L 641 3341 
Q 956 3463 1253 3523 
Q 1550 3584 1831 3584 
Q 2591 3584 2966 3190 
Q 3341 2797 3341 1997 
z
" id="DejaVuSans-61" transform="scale(0.015625)"/>
       <path d="M 603 3500 
L 1178 3500 
L 1178 0 
L 603 0 
L 603 3500 
z
M 603 4863 
L 1178 4863 
L 1178 4134 
L 603 4134 
L 603 4863 
z
" id="DejaVuSans-69" transform="scale(0.015625)"/>
       <path d="M 2631 2963 
Q 2534 3019 2420 3045 
Q 2306 3072 2169 3072 
Q 1681 3072 1420 2755 
Q 1159 2438 1159 1844 
L 1159 0 
L 581 0 
L 581 3500 
L 1159 3500 
L 1159 2956 
Q 1341 3275 1631 3429 
Q 1922 3584 2338 3584 
Q 2397 3584 2469 3576 
Q 2541 3569 2628 3553 
L 2631 2963 
z
" id="DejaVuSans-72" transform="scale(0.015625)"/>
       <path d="M 3263 -1063 
L 3263 -1509 
L -63 -1509 
L -63 -1063 
L 3263 -1063 
z
" id="DejaVuSans-5f" transform="scale(0.015625)"/>
       <path d="M 1159 525 
L 1159 -1331 
L 581 -1331 
L 581 3500 
L 1159 3500 
L 1159 2969 
Q 1341 3281 1617 3432 
Q 1894 3584 2278 3584 
Q 2916 3584 3314 3078 
Q 3713 2572 3713 1747 
Q 3713 922 3314 415 
Q 2916 -91 2278 -91 
Q 1894 -91 1617 61 
Q 1341 213 1159 525 
z
M 3116 1747 
Q 3116 2381 2855 2742 
Q 2594 3103 2138 3103 
Q 1681 3103 1420 2742 
Q 1159 2381 1159 1747 
Q 1159 1113 1420 752 
Q 1681 391 2138 391 
Q 2594 391 2855 752 
Q 3116 1113 3116 1747 
z
" id="DejaVuSans-70" transform="scale(0.015625)"/>
       <path d="M 3597 1894 
L 3597 1613 
L 953 1613 
Q 991 1019 1311 708 
Q 1631 397 2203 397 
Q 2534 397 2845 478 
Q 3156 559 3463 722 
L 3463 178 
Q 3153 47 2828 -22 
Q 2503 -91 2169 -91 
Q 1331 -91 842 396 
Q 353 884 353 1716 
Q 353 2575 817 3079 
Q 1281 3584 2069 3584 
Q 2775 3584 3186 3129 
Q 3597 2675 3597 1894 
z
M 3022 2063 
Q 3016 2534 2758 2815 
Q 2500 3097 2075 3097 
Q 1594 3097 1305 2825 
Q 1016 2553 972 2059 
L 3022 2063 
z
" id="DejaVuSans-65" transform="scale(0.015625)"/>
       <path d="M 2834 3397 
L 2834 2853 
Q 2591 2978 2328 3040 
Q 2066 3103 1784 3103 
Q 1356 3103 1142 2972 
Q 928 2841 928 2578 
Q 928 2378 1081 2264 
Q 1234 2150 1697 2047 
L 1894 2003 
Q 2506 1872 2764 1633 
Q 3022 1394 3022 966 
Q 3022 478 2636 193 
Q 2250 -91 1575 -91 
Q 1294 -91 989 -36 
Q 684 19 347 128 
L 347 722 
Q 666 556 975 473 
Q 1284 391 1588 391 
Q 1994 391 2212 530 
Q 2431 669 2431 922 
Q 2431 1156 2273 1281 
Q 2116 1406 1581 1522 
L 1381 1569 
Q 847 1681 609 1914 
Q 372 2147 372 2553 
Q 372 3047 722 3315 
Q 1072 3584 1716 3584 
Q 2034 3584 2315 3537 
Q 2597 3491 2834 3397 
z
" id="DejaVuSans-73" transform="scale(0.015625)"/>
       <path d="M 544 1381 
L 544 3500 
L 1119 3500 
L 1119 1403 
Q 1119 906 1312 657 
Q 1506 409 1894 409 
Q 2359 409 2629 706 
Q 2900 1003 2900 1516 
L 2900 3500 
L 3475 3500 
L 3475 0 
L 2900 0 
L 2900 538 
Q 2691 219 2414 64 
Q 2138 -91 1772 -91 
Q 1169 -91 856 284 
Q 544 659 544 1381 
z
M 1991 3584 
L 1991 3584 
z
" id="DejaVuSans-75" transform="scale(0.015625)"/>
       <path id="DejaVuSans-20" transform="scale(0.015625)"/>
       <path d="M 2375 4863 
L 2375 4384 
L 1825 4384 
Q 1516 4384 1395 4259 
Q 1275 4134 1275 3809 
L 1275 3500 
L 2222 3500 
L 2222 3053 
L 1275 3053 
L 1275 0 
L 697 0 
L 697 3053 
L 147 3053 
L 147 3500 
L 697 3500 
L 697 3744 
Q 697 4328 969 4595 
Q 1241 4863 1831 4863 
L 2375 4863 
z
" id="DejaVuSans-66" transform="scale(0.015625)"/>
       <path d="M 1959 3097 
Q 1497 3097 1228 2736 
Q 959 2375 959 1747 
Q 959 1119 1226 758 
Q 1494 397 1959 397 
Q 2419 397 2687 759 
Q 2956 1122 2956 1747 
Q 2956 2369 2687 2733 
Q 2419 3097 1959 3097 
z
M 1959 3584 
Q 2709 3584 3137 3096 
Q 3566 2609 3566 1747 
Q 3566 888 3137 398 
Q 2709 -91 1959 -91 
Q 1206 -91 779 398 
Q 353 888 353 1747 
Q 353 2609 779 3096 
Q 1206 3584 1959 3584 
z
" id="DejaVuSans-6f" transform="scale(0.015625)"/>
       <path d="M 3328 2828 
Q 3544 3216 3844 3400 
Q 4144 3584 4550 3584 
Q 5097 3584 5394 3201 
Q 5691 2819 5691 2113 
L 5691 0 
L 5113 0 
L 5113 2094 
Q 5113 2597 4934 2840 
Q 4756 3084 4391 3084 
Q 3944 3084 3684 2787 
Q 3425 2491 3425 1978 
L 3425 0 
L 2847 0 
L 2847 2094 
Q 2847 2600 2669 2842 
Q 2491 3084 2119 3084 
Q 1678 3084 1418 2786 
Q 1159 2488 1159 1978 
L 1159 0 
L 581 0 
L 581 3500 
L 1159 3500 
L 1159 2956 
Q 1356 3278 1631 3431 
Q 1906 3584 2284 3584 
Q 2666 3584 2933 3390 
Q 3200 3197 3328 2828 
z
" id="DejaVuSans-6d" transform="scale(0.015625)"/>
       <path d="M 628 4666 
L 3309 4666 
L 3309 4134 
L 1259 4134 
L 1259 2759 
L 3109 2759 
L 3109 2228 
L 1259 2228 
L 1259 0 
L 628 0 
L 628 4666 
z
" id="DejaVuSans-46" transform="scale(0.015625)"/>
       <path d="M 3122 3366 
L 3122 2828 
Q 2878 2963 2633 3030 
Q 2388 3097 2138 3097 
Q 1578 3097 1268 2742 
Q 959 2388 959 1747 
Q 959 1106 1268 751 
Q 1578 397 2138 397 
Q 2388 397 2633 464 
Q 2878 531 3122 666 
L 3122 134 
Q 2881 22 2623 -34 
Q 2366 -91 2075 -91 
Q 1284 -91 818 406 
Q 353 903 353 1747 
Q 353 2603 823 3093 
Q 1294 3584 2113 3584 
Q 2378 3584 2631 3529 
Q 2884 3475 3122 3366 
z
" id="DejaVuSans-63" transform="scale(0.015625)"/>
      </defs>
      <use xlink:href="#DejaVuSans-61"/>
      <use x="61.279297" xlink:href="#DejaVuSans-69"/>
      <use x="89.0625" xlink:href="#DejaVuSans-72"/>
      <use x="130.175781" xlink:href="#DejaVuSans-5f"/>
      <use x="180.175781" xlink:href="#DejaVuSans-70"/>
      <use x="243.652344" xlink:href="#DejaVuSans-72"/>
      <use x="282.515625" xlink:href="#DejaVuSans-65"/>
      <use x="344.039062" xlink:href="#DejaVuSans-73"/>
      <use x="396.138672" xlink:href="#DejaVuSans-73"/>
      <use x="448.238281" xlink:href="#DejaVuSans-75"/>
      <use x="511.617188" xlink:href="#DejaVuSans-72"/>
      <use x="550.480469" xlink:href="#DejaVuSans-65"/>
      <use x="612.003906" xlink:href="#DejaVuSans-20"/>
      <use x="643.791016" xlink:href="#DejaVuSans-66"/>
      <use x="678.996094" xlink:href="#DejaVuSans-72"/>
      <use x="717.859375" xlink:href="#DejaVuSans-6f"/>
      <use x="779.041016" xlink:href="#DejaVuSans-6d"/>
      <use x="876.453125" xlink:href="#DejaVuSans-20"/>
      <use x="908.240234" xlink:href="#DejaVuSans-46"/>
      <use x="962.134766" xlink:href="#DejaVuSans-6f"/>
      <use x="1023.316406" xlink:href="#DejaVuSans-72"/>
      <use x="1062.179688" xlink:href="#DejaVuSans-65"/>
      <use x="1123.703125" xlink:href="#DejaVuSans-63"/>
      <use x="1178.683594" xlink:href="#DejaVuSans-61"/>
     </g>
    </g>
   </g>
   <g id="matplotlib.axis_2">
    <g id="ytick_1">
     <g id="line2d_8">
      <defs>
       <path d="M 0 0 
L -3.5 0 
" id="m8d035d8300" style="stroke:#000000;stroke-width:0.8;"/>
      </defs>
      <g>
       <use style="stroke:#000000;stroke-width:0.8;" x="57.6" xlink:href="#m8d035d8300" y="286.303422"/>
      </g>
     </g>
     <g id="text_9">
      <!-- 4 -->
      <g transform="translate(44.2375 290.102641)scale(0.1 -0.1)">
       <use xlink:href="#DejaVuSans-34"/>
      </g>
     </g>
    </g>
    <g id="ytick_2">
     <g id="line2d_9">
      <g>
       <use style="stroke:#000000;stroke-width:0.8;" x="57.6" xlink:href="#m8d035d8300" y="241.718092"/>
      </g>
     </g>
     <g id="text_10">
      <!-- 5 -->
      <g transform="translate(44.2375 245.517311)scale(0.1 -0.1)">
       <defs>
        <path d="M 691 4666 
L 3169 4666 
L 3169 4134 
L 1269 4134 
L 1269 2991 
Q 1406 3038 1543 3061 
Q 1681 3084 1819 3084 
Q 2600 3084 3056 2656 
Q 3513 2228 3513 1497 
Q 3513 744 3044 326 
Q 2575 -91 1722 -91 
Q 1428 -91 1123 -41 
Q 819 9 494 109 
L 494 744 
Q 775 591 1075 516 
Q 1375 441 1709 441 
Q 2250 441 2565 725 
Q 2881 1009 2881 1497 
Q 2881 1984 2565 2268 
Q 2250 2553 1709 2553 
Q 1456 2553 1204 2497 
Q 953 2441 691 2322 
L 691 4666 
z
" id="DejaVuSans-35" transform="scale(0.015625)"/>
       </defs>
       <use xlink:href="#DejaVuSans-35"/>
      </g>
     </g>
    </g>
    <g id="ytick_3">
     <g id="line2d_10">
      <g>
       <use style="stroke:#000000;stroke-width:0.8;" x="57.6" xlink:href="#m8d035d8300" y="197.132762"/>
      </g>
     </g>
     <g id="text_11">
      <!-- 6 -->
      <g transform="translate(44.2375 200.931981)scale(0.1 -0.1)">
       <use xlink:href="#DejaVuSans-36"/>
      </g>
     </g>
    </g>
    <g id="ytick_4">
     <g id="line2d_11">
      <g>
       <use style="stroke:#000000;stroke-width:0.8;" x="57.6" xlink:href="#m8d035d8300" y="152.547432"/>
      </g>
     </g>
     <g id="text_12">
      <!-- 7 -->
      <g transform="translate(44.2375 156.346651)scale(0.1 -0.1)">
       <defs>
        <path d="M 525 4666 
L 3525 4666 
L 3525 4397 
L 1831 0 
L 1172 0 
L 2766 4134 
L 525 4134 
L 525 4666 
z
" id="DejaVuSans-37" transform="scale(0.015625)"/>
       </defs>
       <use xlink:href="#DejaVuSans-37"/>
      </g>
     </g>
    </g>
    <g id="ytick_5">
     <g id="line2d_12">
      <g>
       <use style="stroke:#000000;stroke-width:0.8;" x="57.6" xlink:href="#m8d035d8300" y="107.962102"/>
      </g>
     </g>
     <g id="text_13">
      <!-- 8 -->
      <g transform="translate(44.2375 111.761321)scale(0.1 -0.1)">
       <use xlink:href="#DejaVuSans-38"/>
      </g>
     </g>
    </g>
    <g id="ytick_6">
     <g id="line2d_13">
      <g>
       <use style="stroke:#000000;stroke-width:0.8;" x="57.6" xlink:href="#m8d035d8300" y="63.376773"/>
      </g>
     </g>
     <g id="text_14">
      <!-- 9 -->
      <g transform="translate(44.2375 67.175991)scale(0.1 -0.1)">
       <defs>
        <path d="M 703 97 
L 703 672 
Q 941 559 1184 500 
Q 1428 441 1663 441 
Q 2288 441 2617 861 
Q 2947 1281 2994 2138 
Q 2813 1869 2534 1725 
Q 2256 1581 1919 1581 
Q 1219 1581 811 2004 
Q 403 2428 403 3163 
Q 403 3881 828 4315 
Q 1253 4750 1959 4750 
Q 2769 4750 3195 4129 
Q 3622 3509 3622 2328 
Q 3622 1225 3098 567 
Q 2575 -91 1691 -91 
Q 1453 -91 1209 -44 
Q 966 3 703 97 
z
M 1959 2075 
Q 2384 2075 2632 2365 
Q 2881 2656 2881 3163 
Q 2881 3666 2632 3958 
Q 2384 4250 1959 4250 
Q 1534 4250 1286 3958 
Q 1038 3666 1038 3163 
Q 1038 2656 1286 2365 
Q 1534 2075 1959 2075 
z
" id="DejaVuSans-39" transform="scale(0.015625)"/>
       </defs>
       <use xlink:href="#DejaVuSans-39"/>
      </g>
     </g>
    </g>
   </g>
   <g id="line2d_14">
    <path clip-path="url(#p738972b697)" d="M 73.832727 256.877104 
L 74.108092 240.11302 
L 74.383456 230.928442 
L 74.934185 207.744071 
L 75.209549 238.730875 
L 75.484913 250.947255 
L 76.311006 259.998077 
L 77.412464 257.768811 
L 78.238557 250.991841 
L 79.06465 259.329297 
L 79.890743 260.756028 
L 80.716836 254.959935 
L 81.542929 286.392593 
L 82.644386 263.252806 
L 83.470479 279.838549 
L 84.296572 251.036426 
L 85.122665 248.80716 
L 85.948758 269.494753 
L 87.050215 269.896021 
L 87.876308 270.698557 
L 88.702401 254.514082 
L 89.528494 254.157399 
L 90.354587 284.832106 
L 91.18068 269.182655 
L 92.282137 280.106061 
L 92.832866 267.577583 
L 93.10823 251.972718 
L 93.383595 257.412128 
L 93.658959 274.48831 
L 93.934323 249.253013 
L 94.209688 277.653868 
L 94.485052 255.6733 
L 94.760416 257.144616 
L 95.035781 278.188892 
L 95.311145 246.934576 
L 95.586509 260.488516 
L 95.861874 283.984985 
L 96.137238 271.679434 
L 96.412602 229.724638 
L 96.963331 279.125184 
L 97.238695 254.647838 
L 97.51406 272.348214 
L 98.064788 238.507948 
L 98.340153 248.316721 
L 98.615517 267.80051 
L 99.166246 259.641395 
L 99.44161 244.1257 
L 99.716974 265.749585 
L 99.992339 264.412025 
L 100.267703 230.348833 
L 100.543067 233.514391 
L 100.818432 262.271929 
L 101.093796 256.25291 
L 101.36916 260.756028 
L 101.644525 240.870971 
L 101.919889 258.437591 
L 102.195253 262.673197 
L 102.470618 233.558977 
L 102.745982 271.946946 
L 103.021346 243.769017 
L 103.296711 270.431045 
L 103.572075 256.34208 
L 103.847439 259.864321 
L 104.122804 265.437488 
L 104.398168 278.679331 
L 104.673532 266.685877 
L 105.224261 272.080702 
L 105.77499 257.724226 
L 106.325718 271.055239 
L 107.151811 251.036426 
L 107.70254 268.781387 
L 107.977904 255.138276 
L 108.528633 271.634849 
L 108.803997 263.564904 
L 109.354726 263.297392 
L 109.905455 255.316618 
L 110.180819 268.736802 
L 110.731548 260.978955 
L 111.006912 261.736905 
L 111.833005 249.030086 
L 112.108369 231.32971 
L 112.383734 270.297289 
L 112.659098 238.77546 
L 112.934462 248.762574 
L 113.209827 264.857878 
L 113.760555 250.545987 
L 114.03592 274.399139 
L 114.586648 240.291362 
L 114.862012 264.36744 
L 115.137377 239.488826 
L 115.412741 258.615932 
L 115.688105 253.934473 
L 115.96347 252.641498 
L 116.238834 269.405582 
L 116.514198 259.864321 
L 117.064927 212.603872 
L 117.340291 263.877001 
L 117.615656 266.596706 
L 117.89102 251.972718 
L 118.166384 266.329194 
L 118.441749 246.756234 
L 118.992477 227.718299 
L 119.267842 261.513979 
L 119.543206 240.202191 
L 119.81857 259.819736 
L 120.093935 256.520422 
L 120.369299 242.030189 
L 120.644663 269.851435 
L 120.920028 272.526555 
L 121.195392 268.870558 
L 121.470756 261.335637 
L 121.746121 264.322854 
L 122.021485 252.061889 
L 122.296849 268.870558 
L 122.572214 255.227447 
L 122.847578 257.59047 
L 123.122942 249.253013 
L 123.398307 249.074672 
L 123.673671 263.743245 
L 123.949035 253.488619 
L 124.2244 259.106371 
L 124.499764 258.615932 
L 124.775128 252.151059 
L 125.050493 237.259559 
L 125.325857 254.380326 
L 125.601221 247.202088 
L 125.876586 252.329401 
L 126.15195 252.819839 
L 126.427314 238.285022 
L 126.702679 264.36744 
L 127.253407 238.062095 
L 127.528772 234.138586 
L 127.804136 235.074878 
L 128.0795 236.546194 
L 128.354865 261.558564 
L 128.630229 239.711752 
L 128.905593 255.539544 
L 129.456322 241.584336 
L 129.731686 254.647838 
L 130.007051 252.90901 
L 130.282415 244.883651 
L 130.557779 247.826282 
L 130.833144 263.431148 
L 131.108508 251.125597 
L 131.383872 214.521041 
L 131.659237 238.68629 
L 131.934601 241.539751 
L 132.209965 231.775564 
L 132.48533 262.049003 
L 132.760694 263.475733 
L 133.036058 237.081218 
L 133.311423 242.698969 
L 133.586787 253.711546 
L 133.862151 244.304041 
L 134.137516 255.00452 
L 134.41288 212.33636 
L 134.688244 254.514082 
L 134.963609 241.628921 
L 135.238973 240.915556 
L 135.514337 255.093691 
L 135.789702 249.56511 
L 136.065066 252.061889 
L 136.34043 241.762677 
L 136.615795 257.857982 
L 136.891159 256.698763 
L 137.166523 250.278475 
L 137.441888 229.100444 
L 137.717252 236.947462 
L 137.992616 251.660621 
L 138.267981 229.457126 
L 138.818709 261.781491 
L 139.094074 258.883444 
L 139.369438 248.628818 
L 139.644802 254.291155 
L 139.920167 242.565213 
L 140.195531 245.374089 
L 140.470895 237.839168 
L 140.74626 248.584233 
L 141.021624 242.520628 
L 141.296988 255.00452 
L 141.572353 227.584543 
L 141.847717 242.11936 
L 142.123081 217.508258 
L 142.398446 245.061992 
L 142.67381 246.399552 
L 142.949174 245.195748 
L 143.224539 255.093691 
L 143.499903 248.584233 
L 143.775267 253.488619 
L 144.050632 239.711752 
L 144.60136 257.67964 
L 144.876724 259.463053 
L 145.152089 263.208221 
L 145.427453 261.246467 
L 145.702817 244.304041 
L 145.978182 244.482383 
L 146.253546 244.928236 
L 146.52891 245.641601 
L 146.804275 258.972615 
L 147.079639 230.794686 
L 147.630368 266.997974 
L 147.905732 263.208221 
L 148.181096 237.660827 
L 148.456461 258.170079 
L 148.731825 247.826282 
L 149.007189 231.686393 
L 149.282554 271.590263 
L 149.557918 234.67361 
L 149.833282 265.482073 
L 150.108647 279.571037 
L 150.384011 251.259353 
L 150.659375 243.367749 
L 150.93474 265.749585 
L 151.210104 236.055755 
L 151.485468 258.303835 
L 151.760833 259.730565 
L 152.036197 244.304041 
L 152.311561 272.660311 
L 152.586926 234.941122 
L 152.86229 257.545884 
L 153.413019 257.768811 
L 153.688383 270.743142 
L 153.963747 258.393006 
L 154.239112 259.150956 
L 154.514476 258.928029 
L 155.065205 237.616242 
L 155.340569 254.24657 
L 155.891298 239.890094 
L 156.166662 257.144616 
L 156.442026 245.106577 
L 156.717391 221.298011 
L 156.992755 280.819426 
L 157.268119 233.960245 
L 157.543484 254.335741 
L 158.094212 265.392902 
L 158.369577 230.215077 
L 158.644941 177.29229 
L 158.920305 252.775254 
L 159.19567 276.227137 
L 159.746398 267.13173 
L 160.021763 253.444034 
L 160.297127 260.35476 
L 160.572491 236.546194 
L 160.847856 258.080908 
L 161.12322 265.749585 
L 161.398584 248.316721 
L 161.673949 256.208324 
L 161.949313 257.724226 
L 162.224677 253.979058 
L 162.500042 237.036633 
L 162.775406 259.596809 
L 163.05077 267.220901 
L 163.326135 242.342287 
L 163.601499 255.985398 
L 163.876863 263.341977 
L 164.152228 246.80082 
L 164.427592 250.991841 
L 164.702956 261.424808 
L 164.978321 210.419191 
L 165.253685 260.533101 
L 165.529049 251.705206 
L 165.804414 269.450167 
L 166.079778 255.494959 
L 166.355142 258.660518 
L 166.905871 240.648044 
L 167.181235 253.221107 
L 167.4566 251.081011 
L 167.731964 240.514288 
L 168.007328 234.227757 
L 168.282693 249.47594 
L 168.558057 253.399449 
L 168.833421 244.928236 
L 169.38415 257.857982 
L 169.659514 233.692733 
L 169.934879 254.068229 
L 170.210243 256.654178 
L 170.485607 246.711649 
L 170.760972 251.125597 
L 171.036336 258.838859 
L 171.3117 209.259972 
L 171.587065 251.883547 
L 171.862429 266.017097 
L 172.413158 247.425014 
L 172.688522 268.513875 
L 173.239251 241.718092 
L 173.514615 245.819942 
L 173.789979 270.787727 
L 174.065344 246.845405 
L 174.340708 260.577687 
L 174.616072 207.610315 
L 174.891437 257.144616 
L 175.166801 256.832519 
L 175.442165 252.819839 
L 175.717529 246.577893 
L 175.992894 261.068125 
L 176.543622 227.89664 
L 176.818987 237.571656 
L 177.094351 254.335741 
L 177.369715 260.889784 
L 177.920444 243.100237 
L 178.195808 255.985398 
L 178.471173 259.953492 
L 178.746537 255.896227 
L 179.021901 263.78783 
L 179.297266 254.24657 
L 179.57263 256.431251 
L 179.847994 265.79417 
L 180.123359 266.864218 
L 180.398723 267.04256 
L 180.949452 246.354966 
L 181.224816 260.443931 
L 181.50018 247.737112 
L 181.775545 243.724432 
L 182.050909 254.870764 
L 182.326273 250.055549 
L 182.601638 251.214767 
L 182.877002 250.947255 
L 183.152366 240.335947 
L 183.427731 248.940916 
L 183.703095 262.004417 
L 183.978459 257.857982 
L 184.253824 257.813396 
L 184.529188 250.858085 
L 184.804552 260.35476 
L 185.630645 245.061992 
L 185.90601 250.456817 
L 186.181374 268.692217 
L 186.456738 257.189202 
L 186.732103 221.565523 
L 187.282831 261.335637 
L 187.558196 272.036116 
L 187.83356 246.934576 
L 188.108924 279.25894 
L 188.659653 251.838962 
L 188.935017 257.813396 
L 189.210382 269.851435 
L 189.485746 259.864321 
L 189.76111 255.450374 
L 190.036475 252.864425 
L 190.311839 229.813809 
L 190.587203 279.92772 
L 190.862568 256.029983 
L 191.137932 265.303732 
L 191.413296 264.813293 
L 191.688661 258.214664 
L 191.964025 267.80051 
L 192.239389 248.584233 
L 192.790118 261.02354 
L 193.065482 262.628612 
L 193.340847 266.418365 
L 193.891575 263.564904 
L 194.16694 252.953595 
L 194.442304 270.787727 
L 194.717668 265.705 
L 194.993033 268.692217 
L 195.268397 265.927926 
L 195.543761 267.310072 
L 195.819126 261.513979 
L 196.09449 271.590263 
L 196.369854 262.940709 
L 196.645219 261.201881 
L 196.920583 261.424808 
L 197.195947 266.908804 
L 197.471312 253.845302 
L 197.746676 270.252703 
L 198.02204 253.889887 
L 198.848133 276.895917 
L 199.123498 236.367853 
L 199.398862 257.768811 
L 199.674226 254.201985 
L 199.949591 262.138173 
L 200.224955 257.055446 
L 200.500319 264.412025 
L 200.775684 248.049209 
L 201.051048 253.711546 
L 201.326412 271.456507 
L 201.601777 274.711236 
L 201.877141 224.775667 
L 202.42787 252.017303 
L 202.703234 278.188892 
L 203.253963 232.221417 
L 203.529327 254.469496 
L 203.804691 246.845405 
L 204.080056 255.272032 
L 204.35542 250.055549 
L 204.630784 270.163533 
L 204.906149 238.062095 
L 205.181513 223.12601 
L 205.456877 262.3611 
L 205.732241 268.647631 
L 206.007606 251.705206 
L 206.28297 248.673404 
L 206.558334 271.188995 
L 207.109063 270.876898 
L 207.384427 253.533205 
L 207.659792 253.265693 
L 207.935156 266.685877 
L 208.21052 260.622272 
L 208.485885 215.01148 
L 208.761249 261.558564 
L 209.036613 252.507742 
L 209.587342 179.96741 
L 209.862706 241.272239 
L 210.413435 262.896124 
L 210.688799 233.915659 
L 211.514892 243.412335 
L 211.790257 276.58382 
L 212.065621 260.978955 
L 212.340985 265.972512 
L 212.891714 263.654074 
L 213.167078 258.794273 
L 213.442443 257.233787 
L 213.717807 258.34842 
L 214.268536 270.876898 
L 214.5439 268.513875 
L 215.094629 255.405788 
L 215.369993 269.271826 
L 215.920722 262.851539 
L 216.47145 250.323061 
L 217.297543 216.750307 
L 217.572908 265.12539 
L 218.123636 241.004727 
L 218.674365 242.297701 
L 219.500458 261.647735 
L 219.775822 249.520525 
L 220.051187 295.488 
L 220.326551 246.310381 
L 220.87728 233.380635 
L 221.428008 273.81953 
L 221.703373 261.915247 
L 222.529466 263.966172 
L 222.80483 242.030189 
L 223.355559 242.609799 
L 223.906287 261.558564 
L 224.457016 251.972718 
L 225.007745 255.450374 
L 225.558473 248.985501 
L 226.109202 270.47563 
L 226.384566 248.851745 
L 226.935295 279.214355 
L 228.036752 249.47594 
L 228.312117 253.399449 
L 229.13821 266.953389 
L 229.413574 264.099928 
L 230.239667 279.660208 
L 230.515031 270.297289 
L 231.341124 256.25291 
L 232.442582 245.507845 
L 233.268675 248.80716 
L 234.370132 257.67964 
L 234.645496 250.323061 
L 235.471589 260.488516 
L 236.297682 252.953595 
L 236.573046 257.233787 
L 237.399139 266.641292 
L 237.674504 271.545678 
L 238.225232 261.736905 
L 238.775961 255.049106 
L 239.32669 269.316411 
L 239.602054 249.253013 
L 240.428147 266.418365 
L 240.703511 255.450374 
L 241.25424 260.889784 
L 241.804969 254.157399 
L 242.355697 256.475836 
L 242.906426 254.068229 
L 243.457155 240.514288 
L 244.007883 239.087558 
L 244.283248 267.889681 
L 245.109341 264.233684 
L 245.384705 259.730565 
L 245.935434 243.590676 
L 246.210798 228.966688 
L 246.486162 271.055239 
L 247.312255 255.361203 
L 247.58762 267.934266 
L 248.138348 265.348317 
L 248.413713 251.303938 
L 248.689077 266.46295 
L 249.239806 259.418468 
L 249.51517 278.322648 
L 250.341263 242.877311 
L 250.616627 260.800613 
L 250.891992 244.660724 
L 251.44272 274.042456 
L 251.718085 236.055755 
L 251.993449 237.036633 
L 252.268813 246.533308 
L 252.544178 264.857878 
L 252.819542 263.609489 
L 253.094906 257.412128 
L 253.370271 237.928339 
L 253.645635 244.839065 
L 253.920999 265.12539 
L 254.196364 245.775357 
L 254.471728 266.953389 
L 254.747092 256.877104 
L 255.022457 229.546297 
L 255.573185 265.526658 
L 255.84855 255.272032 
L 256.123914 236.457023 
L 256.399278 261.781491 
L 256.674643 262.405685 
L 256.950007 261.424808 
L 257.225371 259.106371 
L 257.500736 265.437488 
L 257.7761 254.692423 
L 258.051464 271.188995 
L 258.326829 258.303835 
L 258.602193 254.692423 
L 258.877557 244.393212 
L 259.428286 268.870558 
L 259.70365 265.526658 
L 259.979015 242.78814 
L 260.254379 238.240436 
L 260.529743 251.616035 
L 260.805108 248.22755 
L 261.355836 265.972512 
L 261.906565 264.322854 
L 262.457294 248.985501 
L 262.732658 258.25925 
L 263.008022 253.934473 
L 263.283387 260.35476 
L 263.558751 252.24023 
L 263.834115 248.762574 
L 264.10948 251.526865 
L 264.384844 252.819839 
L 264.660208 242.877311 
L 264.935573 257.233787 
L 265.210937 233.558977 
L 265.486301 251.482279 
L 266.03703 261.959832 
L 266.312394 253.087351 
L 266.587759 261.513979 
L 266.863123 260.978955 
L 267.138487 267.176316 
L 267.413851 257.724226 
L 267.689216 263.341977 
L 267.96458 256.877104 
L 268.239944 268.112607 
L 268.515309 228.610005 
L 268.790673 213.361822 
L 269.066037 252.106474 
L 269.341402 235.699073 
L 269.89213 277.118844 
L 270.167495 243.724432 
L 270.442859 260.711443 
L 270.718223 261.69232 
L 270.993588 223.036839 
L 271.268952 263.386562 
L 271.544316 262.3611 
L 271.819681 259.819736 
L 272.095045 260.622272 
L 272.370409 216.527381 
L 272.645774 217.998697 
L 273.196502 257.59047 
L 273.471867 257.724226 
L 273.747231 255.316618 
L 274.022595 268.46929 
L 274.29796 262.896124 
L 274.573324 242.163945 
L 275.124053 255.985398 
L 275.399417 53.568 
L 275.674781 258.571347 
L 275.950146 84.376463 
L 276.22551 237.259559 
L 276.500874 247.068332 
L 277.051603 256.475836 
L 277.326967 206.094414 
L 277.602332 243.501505 
L 277.877696 237.527071 
L 278.15306 246.577893 
L 278.428425 227.762884 
L 278.703789 233.246879 
L 279.254518 267.443827 
L 279.529882 218.712062 
L 279.805246 249.47594 
L 280.080611 258.25925 
L 280.355975 259.106371 
L 280.906704 248.673404 
L 281.182068 246.22121 
L 281.457432 239.310484 
L 282.008161 265.259146 
L 282.283525 264.545781 
L 282.55889 215.546504 
L 282.834254 266.685877 
L 283.109618 250.635158 
L 283.384983 279.125184 
L 283.660347 292.010344 
L 283.935711 214.922309 
L 284.211076 268.513875 
L 284.48644 267.532998 
L 284.761804 272.080702 
L 285.037169 226.157812 
L 285.312533 243.278579 
L 285.587897 268.290949 
L 285.863262 260.443931 
L 286.138626 244.259456 
L 286.689355 267.577583 
L 286.964719 233.157709 
L 287.240083 244.928236 
L 287.515448 241.049312 
L 288.066176 270.743142 
L 288.341541 242.654384 
L 288.616905 235.565317 
L 288.892269 249.208428 
L 289.167634 183.534237 
L 289.442998 240.246776 
L 289.718362 259.641395 
L 289.993727 246.711649 
L 290.269091 246.934576 
L 290.544455 229.055858 
L 291.095184 263.564904 
L 291.370548 256.074568 
L 291.645913 263.78783 
L 291.921277 277.787624 
L 292.196641 263.520318 
L 292.472006 267.220901 
L 293.022734 253.265693 
L 293.573463 267.666754 
L 293.848827 277.92138 
L 294.124192 249.520525 
L 294.399556 237.883754 
L 294.950285 249.253013 
L 295.225649 242.297701 
L 295.501013 267.532998 
L 295.776378 273.418262 
L 296.051742 241.851848 
L 296.602471 238.374192 
L 296.877835 279.348111 
L 297.153199 221.87762 
L 297.428563 262.3611 
L 297.703928 223.259766 
L 297.979292 263.743245 
L 298.254656 258.705103 
L 298.530021 258.036323 
L 298.805385 280.284403 
L 299.080749 226.871177 
L 299.631478 279.526452 
L 299.906842 273.641188 
L 300.182207 237.571656 
L 300.457571 253.845302 
L 300.732935 244.883651 
L 301.283664 261.02354 
L 301.834393 249.342184 
L 302.109757 223.928546 
L 302.385121 239.711752 
L 302.660486 217.597429 
L 303.486579 270.341874 
L 303.761943 252.151059 
L 304.037307 283.628302 
L 304.588036 193.075497 
L 304.8634 257.189202 
L 305.414129 244.883651 
L 305.689493 265.526658 
L 305.964858 207.476559 
L 306.240222 246.845405 
L 306.790951 247.335844 
L 307.066315 251.303938 
L 307.341679 261.736905 
L 307.617044 267.622169 
L 307.892408 244.081115 
L 308.167772 249.119257 
L 308.443137 240.870971 
L 308.718501 258.972615 
L 308.993865 256.787934 
L 309.26923 249.47594 
L 309.544594 259.061785 
L 309.819958 247.023746 
L 310.095323 264.45661 
L 310.370687 230.125906 
L 310.921416 252.819839 
L 311.19678 258.705103 
L 311.472144 273.106164 
L 311.747509 259.68598 
L 312.022873 269.896021 
L 312.298237 264.768708 
L 312.573602 266.507536 
L 312.848966 265.03622 
L 313.12433 266.596706 
L 313.399695 245.374089 
L 313.675059 259.953492 
L 314.225788 250.590573 
L 314.501152 257.412128 
L 314.776516 254.514082 
L 315.051881 244.972821 
L 315.602609 255.316618 
L 315.877974 271.099825 
L 316.428702 244.526968 
L 316.704067 256.966275 
L 316.979431 207.075291 
L 317.254795 277.698453 
L 317.53016 252.730669 
L 318.080888 232.890197 
L 318.356253 263.921586 
L 318.631617 269.405582 
L 318.906981 248.628818 
L 319.182346 250.590573 
L 319.733074 259.240127 
L 320.008439 240.7818 
L 320.283803 261.870661 
L 320.559167 271.010654 
L 320.834532 252.106474 
L 321.109896 255.6733 
L 321.38526 268.915143 
L 321.660625 260.399345 
L 322.211353 256.029983 
L 322.486718 251.526865 
L 322.762082 265.660414 
L 323.312811 255.940812 
L 324.138904 269.316411 
L 324.414268 249.877208 
L 324.964997 267.755925 
L 325.240361 268.290949 
L 325.515725 264.590366 
L 325.79109 253.310278 
L 326.341818 267.532998 
L 326.617183 278.902257 
L 326.892547 240.02385 
L 327.167911 271.768604 
L 327.443276 278.010551 
L 328.544733 249.386769 
L 328.820097 265.437488 
L 329.095461 266.150853 
L 329.370826 263.341977 
L 329.64619 274.622066 
L 329.921554 216.705722 
L 330.196919 279.749379 
L 330.472283 241.896433 
L 330.747647 277.92138 
L 331.023012 260.666857 
L 331.57374 269.182655 
L 331.849105 264.322854 
L 332.124469 272.526555 
L 332.399833 270.074362 
L 332.675198 288.933957 
L 332.950562 252.90901 
L 333.225926 242.698969 
L 333.776655 276.182552 
L 334.052019 258.928029 
L 334.327384 266.864218 
L 334.878112 266.195438 
L 335.153477 266.329194 
L 335.428841 270.653971 
L 335.704205 277.386356 
L 335.97957 269.182655 
L 336.254934 256.966275 
L 336.530298 275.469187 
L 336.805663 279.169769 
L 337.356391 262.182759 
L 337.631756 260.221004 
L 338.182484 269.13807 
L 338.457849 263.475733 
L 338.733213 268.380119 
L 339.283942 260.443931 
L 339.83467 242.654384 
L 340.110035 282.825766 
L 340.660763 248.272136 
L 341.211492 279.660208 
L 341.486856 253.622375 
L 341.762221 282.201572 
L 342.037585 266.953389 
L 342.312949 264.278269 
L 342.588314 267.399242 
L 343.139042 257.278372 
L 343.414407 276.672991 
L 343.689771 267.220901 
L 343.965135 266.641292 
L 344.2405 215.814015 
L 344.515864 260.622272 
L 344.791228 253.756131 
L 345.066593 254.603252 
L 345.617321 233.692733 
L 345.892686 270.564801 
L 346.16805 254.870764 
L 346.443414 252.418571 
L 346.718779 248.093794 
L 346.994143 247.068332 
L 347.269507 254.112814 
L 347.544872 223.482692 
L 347.820236 252.596913 
L 348.0956 233.514391 
L 348.370965 257.635055 
L 348.646329 238.374192 
L 349.197058 252.463157 
L 349.472422 236.100341 
L 350.023151 264.055342 
L 350.298515 263.743245 
L 350.573879 260.533101 
L 350.849244 262.271929 
L 351.124608 252.329401 
L 351.399972 260.087248 
L 351.675337 248.584233 
L 351.950701 266.775048 
L 352.226065 275.469187 
L 352.50143 265.12539 
L 352.776794 264.501196 
L 353.052158 242.520628 
L 353.602887 260.399345 
L 353.878251 247.603356 
L 354.153616 245.106577 
L 354.42898 237.393315 
L 354.704344 268.736802 
L 354.979709 258.170079 
L 355.805802 185.31765 
L 356.081166 251.616035 
L 356.35653 164.228789 
L 356.631895 242.78814 
L 357.182623 261.781491 
L 357.457988 234.896537 
L 358.008716 262.049003 
L 358.559445 255.361203 
L 358.834809 227.450787 
L 359.110173 253.934473 
L 359.385538 217.017819 
L 359.660902 248.584233 
L 359.936266 261.469393 
L 360.211631 236.813706 
L 360.486995 235.030293 
L 360.762359 240.514288 
L 361.037724 239.577996 
L 361.313088 261.291052 
L 361.588452 247.068332 
L 361.863817 242.654384 
L 362.139181 261.068125 
L 362.414545 257.545884 
L 362.965274 259.552224 
L 363.240638 243.546091 
L 363.516003 258.838859 
L 364.066731 244.036529 
L 364.342096 244.1257 
L 364.61746 275.513772 
L 364.892824 256.698763 
L 365.168189 254.112814 
L 365.443553 139.216419 
L 365.718917 248.80716 
L 366.269646 275.469187 
L 366.54501 266.017097 
L 366.820375 246.622478 
L 367.095739 240.291362 
L 367.371103 245.106577 
L 367.921832 242.208531 
L 368.197196 261.469393 
L 368.472561 239.711752 
L 368.747925 254.335741 
L 369.023289 248.762574 
L 369.298654 261.558564 
L 369.574018 267.666754 
L 369.849382 263.743245 
L 370.124747 255.138276 
L 370.400111 242.78814 
L 370.675475 251.036426 
L 370.95084 241.584336 
L 371.226204 263.252806 
L 371.501568 254.157399 
L 371.776933 233.692733 
L 372.327661 265.392902 
L 372.603026 262.940709 
L 372.87839 250.323061 
L 373.153754 260.399345 
L 373.704483 247.514185 
L 373.979847 282.959522 
L 374.530576 256.565007 
L 374.80594 265.615829 
L 375.081305 228.030396 
L 375.356669 225.979471 
L 375.632033 254.692423 
L 375.907398 263.877001 
L 376.182762 234.272342 
L 376.458126 260.666857 
L 376.733491 226.782007 
L 377.008855 266.997974 
L 377.284219 235.699073 
L 377.559584 257.947152 
L 377.834948 240.514288 
L 378.110312 252.775254 
L 378.385677 240.157606 
L 378.661041 236.323267 
L 378.936405 253.354863 
L 379.21177 255.361203 
L 379.487134 262.049003 
L 379.762498 257.501299 
L 380.037863 266.284609 
L 380.313227 267.577583 
L 380.588591 257.724226 
L 380.863956 230.705516 
L 381.414684 230.304248 
L 381.690049 225.266105 
L 381.965413 262.494856 
L 382.240777 269.717679 
L 382.516142 246.13204 
L 382.791506 254.603252 
L 383.06687 228.030396 
L 383.342235 265.79417 
L 383.617599 250.768914 
L 384.168328 258.749688 
L 384.443692 265.571244 
L 384.719056 260.310175 
L 384.994421 264.902464 
L 385.269785 275.469187 
L 385.545149 263.11905 
L 385.820514 259.68598 
L 386.095878 253.042766 
L 386.371242 238.909216 
L 386.646607 252.329401 
L 386.921971 243.233993 
L 387.197335 262.896124 
L 387.4727 243.233993 
L 387.748064 260.934369 
L 388.023428 228.699176 
L 388.298793 260.131833 
L 388.574157 263.564904 
L 389.124885 247.870868 
L 389.40025 272.036116 
L 389.675614 243.902773 
L 389.950978 257.768811 
L 390.226343 254.737008 
L 390.501707 233.514391 
L 390.777071 257.724226 
L 391.052436 250.010964 
L 391.3278 254.335741 
L 391.603164 263.163636 
L 391.878529 234.941122 
L 392.153893 253.488619 
L 392.429257 256.565007 
L 392.979986 252.24023 
L 393.25535 264.501196 
L 393.530715 251.393109 
L 393.806079 268.290949 
L 394.081443 277.475527 
L 394.356808 259.641395 
L 394.632172 250.768914 
L 394.907536 262.3611 
L 395.182901 256.163739 
L 395.733629 275.558358 
L 396.559722 262.851539 
L 397.110451 258.34842 
L 397.66118 250.947255 
L 398.487273 250.545987 
L 398.487273 250.545987 
" style="fill:none;stroke:#0000ff;stroke-linecap:square;stroke-width:1.5;"/>
   </g>
   <g id="patch_3">
    <path d="M 57.6 307.584 
L 57.6 41.472 
" style="fill:none;stroke:#000000;stroke-linecap:square;stroke-linejoin:miter;stroke-width:0.8;"/>
   </g>
   <g id="patch_4">
    <path d="M 414.72 307.584 
L 414.72 41.472 
" style="fill:none;stroke:#000000;stroke-linecap:square;stroke-linejoin:miter;stroke-width:0.8;"/>
   </g>
   <g id="patch_5">
    <path d="M 57.6 307.584 
L 414.72 307.584 
" style="fill:none;stroke:#000000;stroke-linecap:square;stroke-linejoin:miter;stroke-width:0.8;"/>
   </g>
   <g id="patch_6">
    <path d="M 57.6 41.472 
L 414.72 41.472 
" style="fill:none;stroke:#000000;stroke-linecap:square;stroke-linejoin:miter;stroke-width:0.8;"/>
   </g>
   <g id="text_15">
    <!-- air_pressure-&gt;ping -->
    <g transform="translate(179.16 35.472)scale(0.12 -0.12)">
     <defs>
      <path d="M 313 2009 
L 1997 2009 
L 1997 1497 
L 313 1497 
L 313 2009 
z
" id="DejaVuSans-2d" transform="scale(0.015625)"/>
      <path d="M 678 3150 
L 678 3719 
L 4684 2266 
L 4684 1747 
L 678 294 
L 678 863 
L 3897 2003 
L 678 3150 
z
" id="DejaVuSans-3e" transform="scale(0.015625)"/>
      <path d="M 3513 2113 
L 3513 0 
L 2938 0 
L 2938 2094 
Q 2938 2591 2744 2837 
Q 2550 3084 2163 3084 
Q 1697 3084 1428 2787 
Q 1159 2491 1159 1978 
L 1159 0 
L 581 0 
L 581 3500 
L 1159 3500 
L 1159 2956 
Q 1366 3272 1645 3428 
Q 1925 3584 2291 3584 
Q 2894 3584 3203 3211 
Q 3513 2838 3513 2113 
z
" id="DejaVuSans-6e" transform="scale(0.015625)"/>
      <path d="M 2906 1791 
Q 2906 2416 2648 2759 
Q 2391 3103 1925 3103 
Q 1463 3103 1205 2759 
Q 947 2416 947 1791 
Q 947 1169 1205 825 
Q 1463 481 1925 481 
Q 2391 481 2648 825 
Q 2906 1169 2906 1791 
z
M 3481 434 
Q 3481 -459 3084 -895 
Q 2688 -1331 1869 -1331 
Q 1566 -1331 1297 -1286 
Q 1028 -1241 775 -1147 
L 775 -588 
Q 1028 -725 1275 -790 
Q 1522 -856 1778 -856 
Q 2344 -856 2625 -561 
Q 2906 -266 2906 331 
L 2906 616 
Q 2728 306 2450 153 
Q 2172 0 1784 0 
Q 1141 0 747 490 
Q 353 981 353 1791 
Q 353 2603 747 3093 
Q 1141 3584 1784 3584 
Q 2172 3584 2450 3431 
Q 2728 3278 2906 2969 
L 2906 3500 
L 3481 3500 
L 3481 434 
z
" id="DejaVuSans-67" transform="scale(0.015625)"/>
     </defs>
     <use xlink:href="#DejaVuSans-61"/>
     <use x="61.279297" xlink:href="#DejaVuSans-69"/>
     <use x="89.0625" xlink:href="#DejaVuSans-72"/>
     <use x="130.175781" xlink:href="#DejaVuSans-5f"/>
     <use x="180.175781" xlink:href="#DejaVuSans-70"/>
     <use x="243.652344" xlink:href="#DejaVuSans-72"/>
     <use x="282.515625" xlink:href="#DejaVuSans-65"/>
     <use x="344.039062" xlink:href="#DejaVuSans-73"/>
     <use x="396.138672" xlink:href="#DejaVuSans-73"/>
     <use x="448.238281" xlink:href="#DejaVuSans-75"/>
     <use x="511.617188" xlink:href="#DejaVuSans-72"/>
     <use x="550.480469" xlink:href="#DejaVuSans-65"/>
     <use x="612.003906" xlink:href="#DejaVuSans-2d"/>
     <use x="648.087891" xlink:href="#DejaVuSans-3e"/>
     <use x="731.876953" xlink:href="#DejaVuSans-70"/>
     <use x="795.353516" xlink:href="#DejaVuSans-69"/>
     <use x="823.136719" xlink:href="#DejaVuSans-6e"/>
     <use x="886.515625" xlink:href="#DejaVuSans-67"/>
    </g>
   </g>
  </g>
  <g id="legend_1">
   <g id="patch_7">
    <path d="M 415.451563 22.678125 
L 453.8 22.678125 
Q 455.8 22.678125 455.8 20.678125 
L 455.8 7 
Q 455.8 5 453.8 5 
L 415.451563 5 
Q 413.451563 5 413.451563 7 
L 413.451563 20.678125 
Q 413.451563 22.678125 415.451563 22.678125 
z
" style="fill:#ffffff;opacity:0.8;stroke:#cccccc;stroke-linejoin:miter;"/>
   </g>
   <g id="line2d_15">
    <path d="M 417.451563 13.098438 
L 437.451563 13.098438 
" style="fill:none;stroke:#0000ff;stroke-linecap:square;stroke-width:1.5;"/>
   </g>
   <g id="line2d_16"/>
   <g id="text_16">
    <!-- p -->
    <g transform="translate(445.451563 16.598438)scale(0.1 -0.1)">
     <use xlink:href="#DejaVuSans-70"/>
    </g>
   </g>
  </g>
 </g>
 <defs>
  <clipPath id="p738972b697">
   <rect height="266.112" width="357.12" x="57.6" y="41.472"/>
  </clipPath>
 </defs>
</svg>
