<?xml version="1.0" encoding="utf-8" standalone="no"?>
<!DOCTYPE svg PUBLIC "-//W3C//DTD SVG 1.1//EN"
  "http://www.w3.org/Graphics/SVG/1.1/DTD/svg11.dtd">
<!-- Created with matplotlib (https://matplotlib.org/) -->
<svg height="345.6pt" version="1.1" viewBox="0 0 460.8 345.6" width="460.8pt" xmlns="http://www.w3.org/2000/svg" xmlns:xlink="http://www.w3.org/1999/xlink">
 <metadata>
  <rdf:RDF xmlns:cc="http://creativecommons.org/ns#" xmlns:dc="http://purl.org/dc/elements/1.1/" xmlns:rdf="http://www.w3.org/1999/02/22-rdf-syntax-ns#">
   <cc:Work>
    <dc:type rdf:resource="http://purl.org/dc/dcmitype/StillImage"/>
    <dc:date>2022-07-16T13:49:37.197294</dc:date>
    <dc:format>image/svg+xml</dc:format>
    <dc:creator>
     <cc:Agent>
      <dc:title>Matplotlib v3.3.2, https://matplotlib.org/</dc:title>
     </cc:Agent>
    </dc:creator>
   </cc:Work>
  </rdf:RDF>
 </metadata>
 <defs>
  <style type="text/css">*{stroke-linecap:butt;stroke-linejoin:round;}</style>
 </defs>
 <g id="figure_1">
  <g id="patch_1">
   <path d="M 0 345.6 
L 460.8 345.6 
L 460.8 0 
L 0 0 
z
" style="fill:#ffffff;"/>
  </g>
  <g id="axes_1">
   <g id="patch_2">
    <path d="M 57.6 307.584 
L 414.72 307.584 
L 414.72 41.472 
L 57.6 41.472 
z
" style="fill:#ffffff;"/>
   </g>
   <g id="matplotlib.axis_1">
    <g id="xtick_1">
     <g id="line2d_1">
      <defs>
       <path d="M 0 0 
L 0 3.5 
" id="m1eb4845841" style="stroke:#000000;stroke-width:0.8;"/>
      </defs>
      <g>
       <use style="stroke:#000000;stroke-width:0.8;" x="70.640899" xlink:href="#m1eb4845841" y="307.584"/>
      </g>
     </g>
     <g id="text_1">
      <!-- 0 -->
      <g transform="translate(67.459649 322.182437)scale(0.1 -0.1)">
       <defs>
        <path d="M 31.78125 66.40625 
Q 24.171875 66.40625 20.328125 58.90625 
Q 16.5 51.421875 16.5 36.375 
Q 16.5 21.390625 20.328125 13.890625 
Q 24.171875 6.390625 31.78125 6.390625 
Q 39.453125 6.390625 43.28125 13.890625 
Q 47.125 21.390625 47.125 36.375 
Q 47.125 51.421875 43.28125 58.90625 
Q 39.453125 66.40625 31.78125 66.40625 
z
M 31.78125 74.21875 
Q 44.046875 74.21875 50.515625 64.515625 
Q 56.984375 54.828125 56.984375 36.375 
Q 56.984375 17.96875 50.515625 8.265625 
Q 44.046875 -1.421875 31.78125 -1.421875 
Q 19.53125 -1.421875 13.0625 8.265625 
Q 6.59375 17.96875 6.59375 36.375 
Q 6.59375 54.828125 13.0625 64.515625 
Q 19.53125 74.21875 31.78125 74.21875 
z
" id="DejaVuSans-48"/>
       </defs>
       <use xlink:href="#DejaVuSans-48"/>
      </g>
     </g>
    </g>
    <g id="xtick_2">
     <g id="line2d_2">
      <g>
       <use style="stroke:#000000;stroke-width:0.8;" x="116.238447" xlink:href="#m1eb4845841" y="307.584"/>
      </g>
     </g>
     <g id="text_2">
      <!-- 2 -->
      <g transform="translate(113.057197 322.182437)scale(0.1 -0.1)">
       <defs>
        <path d="M 19.1875 8.296875 
L 53.609375 8.296875 
L 53.609375 0 
L 7.328125 0 
L 7.328125 8.296875 
Q 12.9375 14.109375 22.625 23.890625 
Q 32.328125 33.6875 34.8125 36.53125 
Q 39.546875 41.84375 41.421875 45.53125 
Q 43.3125 49.21875 43.3125 52.78125 
Q 43.3125 58.59375 39.234375 62.25 
Q 35.15625 65.921875 28.609375 65.921875 
Q 23.96875 65.921875 18.8125 64.3125 
Q 13.671875 62.703125 7.8125 59.421875 
L 7.8125 69.390625 
Q 13.765625 71.78125 18.9375 73 
Q 24.125 74.21875 28.421875 74.21875 
Q 39.75 74.21875 46.484375 68.546875 
Q 53.21875 62.890625 53.21875 53.421875 
Q 53.21875 48.921875 51.53125 44.890625 
Q 49.859375 40.875 45.40625 35.40625 
Q 44.1875 33.984375 37.640625 27.21875 
Q 31.109375 20.453125 19.1875 8.296875 
z
" id="DejaVuSans-50"/>
       </defs>
       <use xlink:href="#DejaVuSans-50"/>
      </g>
     </g>
    </g>
    <g id="xtick_3">
     <g id="line2d_3">
      <g>
       <use style="stroke:#000000;stroke-width:0.8;" x="161.835996" xlink:href="#m1eb4845841" y="307.584"/>
      </g>
     </g>
     <g id="text_3">
      <!-- 4 -->
      <g transform="translate(158.654746 322.182437)scale(0.1 -0.1)">
       <defs>
        <path d="M 37.796875 64.3125 
L 12.890625 25.390625 
L 37.796875 25.390625 
z
M 35.203125 72.90625 
L 47.609375 72.90625 
L 47.609375 25.390625 
L 58.015625 25.390625 
L 58.015625 17.1875 
L 47.609375 17.1875 
L 47.609375 0 
L 37.796875 0 
L 37.796875 17.1875 
L 4.890625 17.1875 
L 4.890625 26.703125 
z
" id="DejaVuSans-52"/>
       </defs>
       <use xlink:href="#DejaVuSans-52"/>
      </g>
     </g>
    </g>
    <g id="xtick_4">
     <g id="line2d_4">
      <g>
       <use style="stroke:#000000;stroke-width:0.8;" x="207.433544" xlink:href="#m1eb4845841" y="307.584"/>
      </g>
     </g>
     <g id="text_4">
      <!-- 6 -->
      <g transform="translate(204.252294 322.182437)scale(0.1 -0.1)">
       <defs>
        <path d="M 33.015625 40.375 
Q 26.375 40.375 22.484375 35.828125 
Q 18.609375 31.296875 18.609375 23.390625 
Q 18.609375 15.53125 22.484375 10.953125 
Q 26.375 6.390625 33.015625 6.390625 
Q 39.65625 6.390625 43.53125 10.953125 
Q 47.40625 15.53125 47.40625 23.390625 
Q 47.40625 31.296875 43.53125 35.828125 
Q 39.65625 40.375 33.015625 40.375 
z
M 52.59375 71.296875 
L 52.59375 62.3125 
Q 48.875 64.0625 45.09375 64.984375 
Q 41.3125 65.921875 37.59375 65.921875 
Q 27.828125 65.921875 22.671875 59.328125 
Q 17.53125 52.734375 16.796875 39.40625 
Q 19.671875 43.65625 24.015625 45.921875 
Q 28.375 48.1875 33.59375 48.1875 
Q 44.578125 48.1875 50.953125 41.515625 
Q 57.328125 34.859375 57.328125 23.390625 
Q 57.328125 12.15625 50.6875 5.359375 
Q 44.046875 -1.421875 33.015625 -1.421875 
Q 20.359375 -1.421875 13.671875 8.265625 
Q 6.984375 17.96875 6.984375 36.375 
Q 6.984375 53.65625 15.1875 63.9375 
Q 23.390625 74.21875 37.203125 74.21875 
Q 40.921875 74.21875 44.703125 73.484375 
Q 48.484375 72.75 52.59375 71.296875 
z
" id="DejaVuSans-54"/>
       </defs>
       <use xlink:href="#DejaVuSans-54"/>
      </g>
     </g>
    </g>
    <g id="xtick_5">
     <g id="line2d_5">
      <g>
       <use style="stroke:#000000;stroke-width:0.8;" x="253.031093" xlink:href="#m1eb4845841" y="307.584"/>
      </g>
     </g>
     <g id="text_5">
      <!-- 8 -->
      <g transform="translate(249.849843 322.182437)scale(0.1 -0.1)">
       <defs>
        <path d="M 31.78125 34.625 
Q 24.75 34.625 20.71875 30.859375 
Q 16.703125 27.09375 16.703125 20.515625 
Q 16.703125 13.921875 20.71875 10.15625 
Q 24.75 6.390625 31.78125 6.390625 
Q 38.8125 6.390625 42.859375 10.171875 
Q 46.921875 13.96875 46.921875 20.515625 
Q 46.921875 27.09375 42.890625 30.859375 
Q 38.875 34.625 31.78125 34.625 
z
M 21.921875 38.8125 
Q 15.578125 40.375 12.03125 44.71875 
Q 8.5 49.078125 8.5 55.328125 
Q 8.5 64.0625 14.71875 69.140625 
Q 20.953125 74.21875 31.78125 74.21875 
Q 42.671875 74.21875 48.875 69.140625 
Q 55.078125 64.0625 55.078125 55.328125 
Q 55.078125 49.078125 51.53125 44.71875 
Q 48 40.375 41.703125 38.8125 
Q 48.828125 37.15625 52.796875 32.3125 
Q 56.78125 27.484375 56.78125 20.515625 
Q 56.78125 9.90625 50.3125 4.234375 
Q 43.84375 -1.421875 31.78125 -1.421875 
Q 19.734375 -1.421875 13.25 4.234375 
Q 6.78125 9.90625 6.78125 20.515625 
Q 6.78125 27.484375 10.78125 32.3125 
Q 14.796875 37.15625 21.921875 38.8125 
z
M 18.3125 54.390625 
Q 18.3125 48.734375 21.84375 45.5625 
Q 25.390625 42.390625 31.78125 42.390625 
Q 38.140625 42.390625 41.71875 45.5625 
Q 45.3125 48.734375 45.3125 54.390625 
Q 45.3125 60.0625 41.71875 63.234375 
Q 38.140625 66.40625 31.78125 66.40625 
Q 25.390625 66.40625 21.84375 63.234375 
Q 18.3125 60.0625 18.3125 54.390625 
z
" id="DejaVuSans-56"/>
       </defs>
       <use xlink:href="#DejaVuSans-56"/>
      </g>
     </g>
    </g>
    <g id="xtick_6">
     <g id="line2d_6">
      <g>
       <use style="stroke:#000000;stroke-width:0.8;" x="298.628641" xlink:href="#m1eb4845841" y="307.584"/>
      </g>
     </g>
     <g id="text_6">
      <!-- 10 -->
      <g transform="translate(292.266141 322.182437)scale(0.1 -0.1)">
       <defs>
        <path d="M 12.40625 8.296875 
L 28.515625 8.296875 
L 28.515625 63.921875 
L 10.984375 60.40625 
L 10.984375 69.390625 
L 28.421875 72.90625 
L 38.28125 72.90625 
L 38.28125 8.296875 
L 54.390625 8.296875 
L 54.390625 0 
L 12.40625 0 
z
" id="DejaVuSans-49"/>
       </defs>
       <use xlink:href="#DejaVuSans-49"/>
       <use x="63.623047" xlink:href="#DejaVuSans-48"/>
      </g>
     </g>
    </g>
    <g id="xtick_7">
     <g id="line2d_7">
      <g>
       <use style="stroke:#000000;stroke-width:0.8;" x="344.22619" xlink:href="#m1eb4845841" y="307.584"/>
      </g>
     </g>
     <g id="text_7">
      <!-- 12 -->
      <g transform="translate(337.86369 322.182437)scale(0.1 -0.1)">
       <use xlink:href="#DejaVuSans-49"/>
       <use x="63.623047" xlink:href="#DejaVuSans-50"/>
      </g>
     </g>
    </g>
    <g id="xtick_8">
     <g id="line2d_8">
      <g>
       <use style="stroke:#000000;stroke-width:0.8;" x="389.823739" xlink:href="#m1eb4845841" y="307.584"/>
      </g>
     </g>
     <g id="text_8">
      <!-- 14 -->
      <g transform="translate(383.461239 322.182437)scale(0.1 -0.1)">
       <use xlink:href="#DejaVuSans-49"/>
       <use x="63.623047" xlink:href="#DejaVuSans-52"/>
      </g>
     </g>
    </g>
    <g id="text_9">
     <!-- wind_speed from OpenWeatherMap -->
     <g transform="translate(146.962344 335.860562)scale(0.1 -0.1)">
      <defs>
       <path d="M 4.203125 54.6875 
L 13.1875 54.6875 
L 24.421875 12.015625 
L 35.59375 54.6875 
L 46.1875 54.6875 
L 57.421875 12.015625 
L 68.609375 54.6875 
L 77.59375 54.6875 
L 63.28125 0 
L 52.6875 0 
L 40.921875 44.828125 
L 29.109375 0 
L 18.5 0 
z
" id="DejaVuSans-119"/>
       <path d="M 9.421875 54.6875 
L 18.40625 54.6875 
L 18.40625 0 
L 9.421875 0 
z
M 9.421875 75.984375 
L 18.40625 75.984375 
L 18.40625 64.59375 
L 9.421875 64.59375 
z
" id="DejaVuSans-105"/>
       <path d="M 54.890625 33.015625 
L 54.890625 0 
L 45.90625 0 
L 45.90625 32.71875 
Q 45.90625 40.484375 42.875 44.328125 
Q 39.84375 48.1875 33.796875 48.1875 
Q 26.515625 48.1875 22.3125 43.546875 
Q 18.109375 38.921875 18.109375 30.90625 
L 18.109375 0 
L 9.078125 0 
L 9.078125 54.6875 
L 18.109375 54.6875 
L 18.109375 46.1875 
Q 21.34375 51.125 25.703125 53.5625 
Q 30.078125 56 35.796875 56 
Q 45.21875 56 50.046875 50.171875 
Q 54.890625 44.34375 54.890625 33.015625 
z
" id="DejaVuSans-110"/>
       <path d="M 45.40625 46.390625 
L 45.40625 75.984375 
L 54.390625 75.984375 
L 54.390625 0 
L 45.40625 0 
L 45.40625 8.203125 
Q 42.578125 3.328125 38.25 0.953125 
Q 33.9375 -1.421875 27.875 -1.421875 
Q 17.96875 -1.421875 11.734375 6.484375 
Q 5.515625 14.40625 5.515625 27.296875 
Q 5.515625 40.1875 11.734375 48.09375 
Q 17.96875 56 27.875 56 
Q 33.9375 56 38.25 53.625 
Q 42.578125 51.265625 45.40625 46.390625 
z
M 14.796875 27.296875 
Q 14.796875 17.390625 18.875 11.75 
Q 22.953125 6.109375 30.078125 6.109375 
Q 37.203125 6.109375 41.296875 11.75 
Q 45.40625 17.390625 45.40625 27.296875 
Q 45.40625 37.203125 41.296875 42.84375 
Q 37.203125 48.484375 30.078125 48.484375 
Q 22.953125 48.484375 18.875 42.84375 
Q 14.796875 37.203125 14.796875 27.296875 
z
" id="DejaVuSans-100"/>
       <path d="M 50.984375 -16.609375 
L 50.984375 -23.578125 
L -0.984375 -23.578125 
L -0.984375 -16.609375 
z
" id="DejaVuSans-95"/>
       <path d="M 44.28125 53.078125 
L 44.28125 44.578125 
Q 40.484375 46.53125 36.375 47.5 
Q 32.28125 48.484375 27.875 48.484375 
Q 21.1875 48.484375 17.84375 46.4375 
Q 14.5 44.390625 14.5 40.28125 
Q 14.5 37.15625 16.890625 35.375 
Q 19.28125 33.59375 26.515625 31.984375 
L 29.59375 31.296875 
Q 39.15625 29.25 43.1875 25.515625 
Q 47.21875 21.78125 47.21875 15.09375 
Q 47.21875 7.46875 41.1875 3.015625 
Q 35.15625 -1.421875 24.609375 -1.421875 
Q 20.21875 -1.421875 15.453125 -0.5625 
Q 10.6875 0.296875 5.421875 2 
L 5.421875 11.28125 
Q 10.40625 8.6875 15.234375 7.390625 
Q 20.0625 6.109375 24.8125 6.109375 
Q 31.15625 6.109375 34.5625 8.28125 
Q 37.984375 10.453125 37.984375 14.40625 
Q 37.984375 18.0625 35.515625 20.015625 
Q 33.0625 21.96875 24.703125 23.78125 
L 21.578125 24.515625 
Q 13.234375 26.265625 9.515625 29.90625 
Q 5.8125 33.546875 5.8125 39.890625 
Q 5.8125 47.609375 11.28125 51.796875 
Q 16.75 56 26.8125 56 
Q 31.78125 56 36.171875 55.265625 
Q 40.578125 54.546875 44.28125 53.078125 
z
" id="DejaVuSans-115"/>
       <path d="M 18.109375 8.203125 
L 18.109375 -20.796875 
L 9.078125 -20.796875 
L 9.078125 54.6875 
L 18.109375 54.6875 
L 18.109375 46.390625 
Q 20.953125 51.265625 25.265625 53.625 
Q 29.59375 56 35.59375 56 
Q 45.5625 56 51.78125 48.09375 
Q 58.015625 40.1875 58.015625 27.296875 
Q 58.015625 14.40625 51.78125 6.484375 
Q 45.5625 -1.421875 35.59375 -1.421875 
Q 29.59375 -1.421875 25.265625 0.953125 
Q 20.953125 3.328125 18.109375 8.203125 
z
M 48.6875 27.296875 
Q 48.6875 37.203125 44.609375 42.84375 
Q 40.53125 48.484375 33.40625 48.484375 
Q 26.265625 48.484375 22.1875 42.84375 
Q 18.109375 37.203125 18.109375 27.296875 
Q 18.109375 17.390625 22.1875 11.75 
Q 26.265625 6.109375 33.40625 6.109375 
Q 40.53125 6.109375 44.609375 11.75 
Q 48.6875 17.390625 48.6875 27.296875 
z
" id="DejaVuSans-112"/>
       <path d="M 56.203125 29.59375 
L 56.203125 25.203125 
L 14.890625 25.203125 
Q 15.484375 15.921875 20.484375 11.0625 
Q 25.484375 6.203125 34.421875 6.203125 
Q 39.59375 6.203125 44.453125 7.46875 
Q 49.3125 8.734375 54.109375 11.28125 
L 54.109375 2.78125 
Q 49.265625 0.734375 44.1875 -0.34375 
Q 39.109375 -1.421875 33.890625 -1.421875 
Q 20.796875 -1.421875 13.15625 6.1875 
Q 5.515625 13.8125 5.515625 26.8125 
Q 5.515625 40.234375 12.765625 48.109375 
Q 20.015625 56 32.328125 56 
Q 43.359375 56 49.78125 48.890625 
Q 56.203125 41.796875 56.203125 29.59375 
z
M 47.21875 32.234375 
Q 47.125 39.59375 43.09375 43.984375 
Q 39.0625 48.390625 32.421875 48.390625 
Q 24.90625 48.390625 20.390625 44.140625 
Q 15.875 39.890625 15.1875 32.171875 
z
" id="DejaVuSans-101"/>
       <path id="DejaVuSans-32"/>
       <path d="M 37.109375 75.984375 
L 37.109375 68.5 
L 28.515625 68.5 
Q 23.6875 68.5 21.796875 66.546875 
Q 19.921875 64.59375 19.921875 59.515625 
L 19.921875 54.6875 
L 34.71875 54.6875 
L 34.71875 47.703125 
L 19.921875 47.703125 
L 19.921875 0 
L 10.890625 0 
L 10.890625 47.703125 
L 2.296875 47.703125 
L 2.296875 54.6875 
L 10.890625 54.6875 
L 10.890625 58.5 
Q 10.890625 67.625 15.140625 71.796875 
Q 19.390625 75.984375 28.609375 75.984375 
z
" id="DejaVuSans-102"/>
       <path d="M 41.109375 46.296875 
Q 39.59375 47.171875 37.8125 47.578125 
Q 36.03125 48 33.890625 48 
Q 26.265625 48 22.1875 43.046875 
Q 18.109375 38.09375 18.109375 28.8125 
L 18.109375 0 
L 9.078125 0 
L 9.078125 54.6875 
L 18.109375 54.6875 
L 18.109375 46.1875 
Q 20.953125 51.171875 25.484375 53.578125 
Q 30.03125 56 36.53125 56 
Q 37.453125 56 38.578125 55.875 
Q 39.703125 55.765625 41.0625 55.515625 
z
" id="DejaVuSans-114"/>
       <path d="M 30.609375 48.390625 
Q 23.390625 48.390625 19.1875 42.75 
Q 14.984375 37.109375 14.984375 27.296875 
Q 14.984375 17.484375 19.15625 11.84375 
Q 23.34375 6.203125 30.609375 6.203125 
Q 37.796875 6.203125 41.984375 11.859375 
Q 46.1875 17.53125 46.1875 27.296875 
Q 46.1875 37.015625 41.984375 42.703125 
Q 37.796875 48.390625 30.609375 48.390625 
z
M 30.609375 56 
Q 42.328125 56 49.015625 48.375 
Q 55.71875 40.765625 55.71875 27.296875 
Q 55.71875 13.875 49.015625 6.21875 
Q 42.328125 -1.421875 30.609375 -1.421875 
Q 18.84375 -1.421875 12.171875 6.21875 
Q 5.515625 13.875 5.515625 27.296875 
Q 5.515625 40.765625 12.171875 48.375 
Q 18.84375 56 30.609375 56 
z
" id="DejaVuSans-111"/>
       <path d="M 52 44.1875 
Q 55.375 50.25 60.0625 53.125 
Q 64.75 56 71.09375 56 
Q 79.640625 56 84.28125 50.015625 
Q 88.921875 44.046875 88.921875 33.015625 
L 88.921875 0 
L 79.890625 0 
L 79.890625 32.71875 
Q 79.890625 40.578125 77.09375 44.375 
Q 74.3125 48.1875 68.609375 48.1875 
Q 61.625 48.1875 57.5625 43.546875 
Q 53.515625 38.921875 53.515625 30.90625 
L 53.515625 0 
L 44.484375 0 
L 44.484375 32.71875 
Q 44.484375 40.625 41.703125 44.40625 
Q 38.921875 48.1875 33.109375 48.1875 
Q 26.21875 48.1875 22.15625 43.53125 
Q 18.109375 38.875 18.109375 30.90625 
L 18.109375 0 
L 9.078125 0 
L 9.078125 54.6875 
L 18.109375 54.6875 
L 18.109375 46.1875 
Q 21.1875 51.21875 25.484375 53.609375 
Q 29.78125 56 35.6875 56 
Q 41.65625 56 45.828125 52.96875 
Q 50 49.953125 52 44.1875 
z
" id="DejaVuSans-109"/>
       <path d="M 39.40625 66.21875 
Q 28.65625 66.21875 22.328125 58.203125 
Q 16.015625 50.203125 16.015625 36.375 
Q 16.015625 22.609375 22.328125 14.59375 
Q 28.65625 6.59375 39.40625 6.59375 
Q 50.140625 6.59375 56.421875 14.59375 
Q 62.703125 22.609375 62.703125 36.375 
Q 62.703125 50.203125 56.421875 58.203125 
Q 50.140625 66.21875 39.40625 66.21875 
z
M 39.40625 74.21875 
Q 54.734375 74.21875 63.90625 63.9375 
Q 73.09375 53.65625 73.09375 36.375 
Q 73.09375 19.140625 63.90625 8.859375 
Q 54.734375 -1.421875 39.40625 -1.421875 
Q 24.03125 -1.421875 14.8125 8.828125 
Q 5.609375 19.09375 5.609375 36.375 
Q 5.609375 53.65625 14.8125 63.9375 
Q 24.03125 74.21875 39.40625 74.21875 
z
" id="DejaVuSans-79"/>
       <path d="M 3.328125 72.90625 
L 13.28125 72.90625 
L 28.609375 11.28125 
L 43.890625 72.90625 
L 54.984375 72.90625 
L 70.3125 11.28125 
L 85.59375 72.90625 
L 95.609375 72.90625 
L 77.296875 0 
L 64.890625 0 
L 49.515625 63.28125 
L 33.984375 0 
L 21.578125 0 
z
" id="DejaVuSans-87"/>
       <path d="M 34.28125 27.484375 
Q 23.390625 27.484375 19.1875 25 
Q 14.984375 22.515625 14.984375 16.5 
Q 14.984375 11.71875 18.140625 8.90625 
Q 21.296875 6.109375 26.703125 6.109375 
Q 34.1875 6.109375 38.703125 11.40625 
Q 43.21875 16.703125 43.21875 25.484375 
L 43.21875 27.484375 
z
M 52.203125 31.203125 
L 52.203125 0 
L 43.21875 0 
L 43.21875 8.296875 
Q 40.140625 3.328125 35.546875 0.953125 
Q 30.953125 -1.421875 24.3125 -1.421875 
Q 15.921875 -1.421875 10.953125 3.296875 
Q 6 8.015625 6 15.921875 
Q 6 25.140625 12.171875 29.828125 
Q 18.359375 34.515625 30.609375 34.515625 
L 43.21875 34.515625 
L 43.21875 35.40625 
Q 43.21875 41.609375 39.140625 45 
Q 35.0625 48.390625 27.6875 48.390625 
Q 23 48.390625 18.546875 47.265625 
Q 14.109375 46.140625 10.015625 43.890625 
L 10.015625 52.203125 
Q 14.9375 54.109375 19.578125 55.046875 
Q 24.21875 56 28.609375 56 
Q 40.484375 56 46.34375 49.84375 
Q 52.203125 43.703125 52.203125 31.203125 
z
" id="DejaVuSans-97"/>
       <path d="M 18.3125 70.21875 
L 18.3125 54.6875 
L 36.8125 54.6875 
L 36.8125 47.703125 
L 18.3125 47.703125 
L 18.3125 18.015625 
Q 18.3125 11.328125 20.140625 9.421875 
Q 21.96875 7.515625 27.59375 7.515625 
L 36.8125 7.515625 
L 36.8125 0 
L 27.59375 0 
Q 17.1875 0 13.234375 3.875 
Q 9.28125 7.765625 9.28125 18.015625 
L 9.28125 47.703125 
L 2.6875 47.703125 
L 2.6875 54.6875 
L 9.28125 54.6875 
L 9.28125 70.21875 
z
" id="DejaVuSans-116"/>
       <path d="M 54.890625 33.015625 
L 54.890625 0 
L 45.90625 0 
L 45.90625 32.71875 
Q 45.90625 40.484375 42.875 44.328125 
Q 39.84375 48.1875 33.796875 48.1875 
Q 26.515625 48.1875 22.3125 43.546875 
Q 18.109375 38.921875 18.109375 30.90625 
L 18.109375 0 
L 9.078125 0 
L 9.078125 75.984375 
L 18.109375 75.984375 
L 18.109375 46.1875 
Q 21.34375 51.125 25.703125 53.5625 
Q 30.078125 56 35.796875 56 
Q 45.21875 56 50.046875 50.171875 
Q 54.890625 44.34375 54.890625 33.015625 
z
" id="DejaVuSans-104"/>
       <path d="M 9.8125 72.90625 
L 24.515625 72.90625 
L 43.109375 23.296875 
L 61.8125 72.90625 
L 76.515625 72.90625 
L 76.515625 0 
L 66.890625 0 
L 66.890625 64.015625 
L 48.09375 14.015625 
L 38.1875 14.015625 
L 19.390625 64.015625 
L 19.390625 0 
L 9.8125 0 
z
" id="DejaVuSans-77"/>
      </defs>
      <use xlink:href="#DejaVuSans-119"/>
      <use x="81.787109" xlink:href="#DejaVuSans-105"/>
      <use x="109.570312" xlink:href="#DejaVuSans-110"/>
      <use x="172.949219" xlink:href="#DejaVuSans-100"/>
      <use x="236.425781" xlink:href="#DejaVuSans-95"/>
      <use x="286.425781" xlink:href="#DejaVuSans-115"/>
      <use x="338.525391" xlink:href="#DejaVuSans-112"/>
      <use x="402.001953" xlink:href="#DejaVuSans-101"/>
      <use x="463.525391" xlink:href="#DejaVuSans-101"/>
      <use x="525.048828" xlink:href="#DejaVuSans-100"/>
      <use x="588.525391" xlink:href="#DejaVuSans-32"/>
      <use x="620.3125" xlink:href="#DejaVuSans-102"/>
      <use x="655.517578" xlink:href="#DejaVuSans-114"/>
      <use x="694.380859" xlink:href="#DejaVuSans-111"/>
      <use x="755.5625" xlink:href="#DejaVuSans-109"/>
      <use x="852.974609" xlink:href="#DejaVuSans-32"/>
      <use x="884.761719" xlink:href="#DejaVuSans-79"/>
      <use x="963.472656" xlink:href="#DejaVuSans-112"/>
      <use x="1026.949219" xlink:href="#DejaVuSans-101"/>
      <use x="1088.472656" xlink:href="#DejaVuSans-110"/>
      <use x="1151.851562" xlink:href="#DejaVuSans-87"/>
      <use x="1244.853516" xlink:href="#DejaVuSans-101"/>
      <use x="1306.376953" xlink:href="#DejaVuSans-97"/>
      <use x="1367.65625" xlink:href="#DejaVuSans-116"/>
      <use x="1406.865234" xlink:href="#DejaVuSans-104"/>
      <use x="1470.244141" xlink:href="#DejaVuSans-101"/>
      <use x="1531.767578" xlink:href="#DejaVuSans-114"/>
      <use x="1572.880859" xlink:href="#DejaVuSans-77"/>
      <use x="1659.160156" xlink:href="#DejaVuSans-97"/>
      <use x="1720.439453" xlink:href="#DejaVuSans-112"/>
     </g>
    </g>
   </g>
   <g id="matplotlib.axis_2">
    <g id="ytick_1">
     <g id="line2d_9">
      <defs>
       <path d="M 0 0 
L -3.5 0 
" id="m8a55715dec" style="stroke:#000000;stroke-width:0.8;"/>
      </defs>
      <g>
       <use style="stroke:#000000;stroke-width:0.8;" x="57.6" xlink:href="#m8a55715dec" y="274.516376"/>
      </g>
     </g>
     <g id="text_10">
      <!-- 5 -->
      <g transform="translate(44.2375 278.315595)scale(0.1 -0.1)">
       <defs>
        <path d="M 10.796875 72.90625 
L 49.515625 72.90625 
L 49.515625 64.59375 
L 19.828125 64.59375 
L 19.828125 46.734375 
Q 21.96875 47.46875 24.109375 47.828125 
Q 26.265625 48.1875 28.421875 48.1875 
Q 40.625 48.1875 47.75 41.5 
Q 54.890625 34.8125 54.890625 23.390625 
Q 54.890625 11.625 47.5625 5.09375 
Q 40.234375 -1.421875 26.90625 -1.421875 
Q 22.3125 -1.421875 17.546875 -0.640625 
Q 12.796875 0.140625 7.71875 1.703125 
L 7.71875 11.625 
Q 12.109375 9.234375 16.796875 8.0625 
Q 21.484375 6.890625 26.703125 6.890625 
Q 35.15625 6.890625 40.078125 11.328125 
Q 45.015625 15.765625 45.015625 23.390625 
Q 45.015625 31 40.078125 35.4375 
Q 35.15625 39.890625 26.703125 39.890625 
Q 22.75 39.890625 18.8125 39.015625 
Q 14.890625 38.140625 10.796875 36.28125 
z
" id="DejaVuSans-53"/>
       </defs>
       <use xlink:href="#DejaVuSans-53"/>
      </g>
     </g>
    </g>
    <g id="ytick_2">
     <g id="line2d_10">
      <g>
       <use style="stroke:#000000;stroke-width:0.8;" x="57.6" xlink:href="#m8a55715dec" y="237.200318"/>
      </g>
     </g>
     <g id="text_11">
      <!-- 6 -->
      <g transform="translate(44.2375 240.999537)scale(0.1 -0.1)">
       <use xlink:href="#DejaVuSans-54"/>
      </g>
     </g>
    </g>
    <g id="ytick_3">
     <g id="line2d_11">
      <g>
       <use style="stroke:#000000;stroke-width:0.8;" x="57.6" xlink:href="#m8a55715dec" y="199.884261"/>
      </g>
     </g>
     <g id="text_12">
      <!-- 7 -->
      <g transform="translate(44.2375 203.68348)scale(0.1 -0.1)">
       <defs>
        <path d="M 8.203125 72.90625 
L 55.078125 72.90625 
L 55.078125 68.703125 
L 28.609375 0 
L 18.3125 0 
L 43.21875 64.59375 
L 8.203125 64.59375 
z
" id="DejaVuSans-55"/>
       </defs>
       <use xlink:href="#DejaVuSans-55"/>
      </g>
     </g>
    </g>
    <g id="ytick_4">
     <g id="line2d_12">
      <g>
       <use style="stroke:#000000;stroke-width:0.8;" x="57.6" xlink:href="#m8a55715dec" y="162.568204"/>
      </g>
     </g>
     <g id="text_13">
      <!-- 8 -->
      <g transform="translate(44.2375 166.367422)scale(0.1 -0.1)">
       <use xlink:href="#DejaVuSans-56"/>
      </g>
     </g>
    </g>
    <g id="ytick_5">
     <g id="line2d_13">
      <g>
       <use style="stroke:#000000;stroke-width:0.8;" x="57.6" xlink:href="#m8a55715dec" y="125.252146"/>
      </g>
     </g>
     <g id="text_14">
      <!-- 9 -->
      <g transform="translate(44.2375 129.051365)scale(0.1 -0.1)">
       <defs>
        <path d="M 10.984375 1.515625 
L 10.984375 10.5 
Q 14.703125 8.734375 18.5 7.8125 
Q 22.3125 6.890625 25.984375 6.890625 
Q 35.75 6.890625 40.890625 13.453125 
Q 46.046875 20.015625 46.78125 33.40625 
Q 43.953125 29.203125 39.59375 26.953125 
Q 35.25 24.703125 29.984375 24.703125 
Q 19.046875 24.703125 12.671875 31.3125 
Q 6.296875 37.9375 6.296875 49.421875 
Q 6.296875 60.640625 12.9375 67.421875 
Q 19.578125 74.21875 30.609375 74.21875 
Q 43.265625 74.21875 49.921875 64.515625 
Q 56.59375 54.828125 56.59375 36.375 
Q 56.59375 19.140625 48.40625 8.859375 
Q 40.234375 -1.421875 26.421875 -1.421875 
Q 22.703125 -1.421875 18.890625 -0.6875 
Q 15.09375 0.046875 10.984375 1.515625 
z
M 30.609375 32.421875 
Q 37.25 32.421875 41.125 36.953125 
Q 45.015625 41.5 45.015625 49.421875 
Q 45.015625 57.28125 41.125 61.84375 
Q 37.25 66.40625 30.609375 66.40625 
Q 23.96875 66.40625 20.09375 61.84375 
Q 16.21875 57.28125 16.21875 49.421875 
Q 16.21875 41.5 20.09375 36.953125 
Q 23.96875 32.421875 30.609375 32.421875 
z
" id="DejaVuSans-57"/>
       </defs>
       <use xlink:href="#DejaVuSans-57"/>
      </g>
     </g>
    </g>
    <g id="ytick_6">
     <g id="line2d_14">
      <g>
       <use style="stroke:#000000;stroke-width:0.8;" x="57.6" xlink:href="#m8a55715dec" y="87.936089"/>
      </g>
     </g>
     <g id="text_15">
      <!-- 10 -->
      <g transform="translate(37.875 91.735308)scale(0.1 -0.1)">
       <use xlink:href="#DejaVuSans-49"/>
       <use x="63.623047" xlink:href="#DejaVuSans-48"/>
      </g>
     </g>
    </g>
    <g id="ytick_7">
     <g id="line2d_15">
      <g>
       <use style="stroke:#000000;stroke-width:0.8;" x="57.6" xlink:href="#m8a55715dec" y="50.620031"/>
      </g>
     </g>
     <g id="text_16">
      <!-- 11 -->
      <g transform="translate(37.875 54.41925)scale(0.1 -0.1)">
       <use xlink:href="#DejaVuSans-49"/>
       <use x="63.623047" xlink:href="#DejaVuSans-49"/>
      </g>
     </g>
    </g>
   </g>
   <g id="line2d_16">
    <path clip-path="url(#p5d1bda639b)" d="M 73.832727 286.12167 
L 75.656629 270.710138 
L 77.024556 275.523909 
L 77.708519 263.172294 
L 78.62047 281.979587 
L 79.988396 256.716616 
L 81.356323 265.187361 
L 82.496261 275.076117 
L 83.408212 257.462938 
L 84.548151 281.38253 
L 85.232114 271.866936 
L 85.460102 260.672118 
L 86.600041 277.576292 
L 86.828029 269.105547 
L 87.056016 278.434562 
L 87.73998 281.569111 
L 88.195955 262.463289 
L 88.423943 275.300013 
L 88.651931 275.486593 
L 89.563882 272.501309 
L 89.791869 276.046334 
L 90.019857 271.605723 
L 90.247845 275.673174 
L 90.70382 276.680707 
L 91.615771 276.158282 
L 91.843759 272.463993 
L 92.071747 283.211017 
L 92.983698 286.158986 
L 93.211685 290.972757 
L 93.439673 270.299661 
L 93.667661 264.776885 
L 94.351624 258.134627 
L 94.579612 279.255515 
L 94.8076 259.403373 
L 95.263575 262.015497 
L 95.719551 271.456459 
L 95.947538 281.942271 
L 96.175526 270.150397 
L 96.859489 277.31508 
L 97.315465 261.007963 
L 97.543453 277.240448 
L 97.77144 246.827861 
L 98.227416 277.464344 
L 98.683391 273.210314 
L 98.911379 256.604668 
L 99.367354 262.537921 
L 99.595342 278.210665 
L 99.82333 263.881299 
L 100.051318 265.448574 
L 100.279305 260.075062 
L 100.735281 262.500605 
L 100.963269 246.156172 
L 101.191256 280.822789 
L 101.419244 280.486945 
L 101.647232 283.770758 
L 101.87522 270.411609 
L 102.331195 256.828565 
L 103.015158 291.084705 
L 103.471134 284.852924 
L 103.699122 248.283187 
L 103.927109 265.448574 
L 104.155097 213.467306 
L 104.611073 243.506732 
L 105.523023 282.688592 
L 106.206987 278.285298 
L 106.434974 275.150749 
L 106.662962 273.732739 
L 106.89095 261.642336 
L 107.118938 258.171943 
L 107.802901 253.208907 
L 108.486864 257.686834 
L 108.94284 257.649518 
L 109.170827 280.748157 
L 109.626803 274.404428 
L 109.854791 272.837153 
L 110.082778 205.183141 
L 110.310766 250.14899 
L 110.538754 234.62551 
L 110.766742 283.65881 
L 111.222717 266.530739 
L 111.450705 265.85905 
L 111.90668 257.612202 
L 112.134668 240.185603 
L 112.362656 264.25446 
L 112.590644 266.71732 
L 112.818631 281.755691 
L 113.046619 246.193488 
L 113.274607 253.6567 
L 113.730582 284.405131 
L 113.95857 282.128851 
L 114.186558 269.851869 
L 114.414545 264.888833 
L 114.642533 269.73992 
L 115.098509 258.470471 
L 115.326496 278.098717 
L 115.554484 272.501309 
L 116.01046 248.208555 
L 116.238447 275.598541 
L 116.466435 275.150749 
L 116.694423 251.268472 
L 117.150398 271.232563 
L 117.378386 269.18018 
L 117.606374 229.811739 
L 117.834362 268.471174 
L 118.062349 257.836098 
L 118.290337 280.001836 
L 118.518325 251.00726 
L 118.746313 262.388657 
L 118.9743 261.7916 
L 119.430276 271.157931 
L 119.658264 264.25446 
L 119.886251 274.553692 
L 120.114239 274.180531 
L 120.342227 237.760059 
L 120.570215 264.926149 
L 120.798202 267.389009 
L 121.02619 259.478005 
L 121.254178 261.269175 
L 121.482165 257.388305 
L 121.710153 261.7916 
L 121.938141 262.127445 
L 122.166129 275.89707 
L 122.394116 260.075062 
L 122.622104 266.194895 
L 122.850092 239.887075 
L 123.306067 270.187713 
L 123.534055 231.453646 
L 123.762043 275.747806 
L 123.990031 264.590304 
L 124.218018 272.20278 
L 124.446006 225.818921 
L 124.673994 253.432803 
L 124.901982 254.850814 
L 125.129969 246.790545 
L 125.585945 269.963817 
L 125.813933 276.009018 
L 126.04192 287.987472 
L 126.269908 268.545807 
L 126.725884 258.395839 
L 126.953871 245.932276 
L 127.409847 278.956987 
L 127.637835 276.494127 
L 127.865822 252.835746 
L 128.321798 281.084002 
L 128.777773 266.194895 
L 129.005761 265.187361 
L 129.233749 275.150749 
L 129.461736 279.59136 
L 129.917712 240.409499 
L 130.1457 261.269175 
L 130.373687 260.18701 
L 130.601675 270.374293 
L 130.829663 258.918264 
L 131.057651 270.672822 
L 131.285638 265.448574 
L 131.513626 266.045631 
L 131.741614 283.061753 
L 132.197589 245.783012 
L 132.425577 229.102734 
L 132.653565 255.037394 
L 133.10954 258.395839 
L 133.337528 261.940864 
L 133.565516 262.463289 
L 133.793504 253.768648 
L 134.021491 276.755339 
L 134.249479 276.531443 
L 134.477467 222.833636 
L 134.705455 258.582419 
L 134.933442 260.858699 
L 135.16143 266.530739 
L 135.389418 233.655293 
L 135.617406 251.529684 
L 135.845393 260.410906 
L 136.073381 277.762873 
L 136.301369 265.747102 
L 136.529356 260.37359 
L 136.757344 249.813146 
L 137.21332 276.195598 
L 137.669295 257.72415 
L 137.897283 258.022678 
L 138.125271 230.707324 
L 138.353258 270.299661 
L 138.581246 262.799134 
L 138.809234 262.052813 
L 139.037222 258.470471 
L 139.265209 234.43893 
L 139.721185 267.389009 
L 139.949173 260.410906 
L 140.17716 263.918615 
L 140.633136 250.14899 
L 140.861124 263.470823 
L 141.089111 53.568 
L 141.317099 256.530036 
L 141.545087 266.120263 
L 142.001062 263.134978 
L 142.457038 254.02986 
L 142.685026 267.463641 
L 142.913013 254.738865 
L 143.141001 260.224326 
L 143.368989 242.20067 
L 143.596977 264.366408 
L 143.824964 233.2075 
L 144.052952 253.432803 
L 144.28094 254.962762 
L 144.508927 264.963465 
L 144.736915 247.089074 
L 144.964903 260.410906 
L 145.192891 256.343456 
L 145.648866 279.77794 
L 145.876854 268.284594 
L 146.104842 214.624104 
L 146.788805 263.657403 
L 147.016793 263.060346 
L 147.24478 236.491313 
L 147.472768 268.023382 
L 147.700756 260.261642 
L 148.156731 255.298606 
L 148.384719 247.49955 
L 148.612707 257.948046 
L 148.840695 282.315432 
L 149.068682 265.29931 
L 149.29667 278.919671 
L 149.524658 264.963465 
L 149.752646 258.358523 
L 149.980633 283.47223 
L 150.208621 261.343807 
L 150.436609 281.904955 
L 150.664597 270.262345 
L 150.892584 243.544048 
L 151.120572 264.142512 
L 151.34856 263.358875 
L 151.576547 249.328037 
L 151.804535 245.745696 
L 152.032523 245.969592 
L 152.260511 268.732387 
L 152.488498 251.044576 
L 152.716486 267.650221 
L 152.944474 274.66564 
L 153.172462 256.119559 
L 153.628437 278.695774 
L 154.084413 234.774775 
L 154.3124 264.552988 
L 154.540388 256.791248 
L 154.768376 270.038449 
L 154.996364 263.955932 
L 155.224351 273.695422 
L 155.452339 277.203132 
L 155.680327 286.270934 
L 156.136302 239.103437 
L 156.36429 264.329092 
L 156.592278 265.784418 
L 156.820266 258.95558 
L 157.048253 276.456811 
L 157.276241 271.493775 
L 157.504229 272.314728 
L 157.732217 265.038097 
L 157.960204 286.942623 
L 158.188192 202.496385 
L 158.41618 265.411258 
L 158.644168 266.493423 
L 158.872155 269.777236 
L 159.100143 224.886019 
L 159.328131 283.920022 
L 159.556118 275.822438 
L 159.784106 247.12639 
L 160.240082 269.217496 
L 160.468069 271.680355 
L 160.924045 268.32191 
L 161.152033 263.321559 
L 161.38002 240.185603 
L 161.835996 268.284594 
L 162.063984 254.664233 
L 162.291971 280.486945 
L 162.519959 250.335571 
L 162.747947 274.926852 
L 162.975935 259.216792 
L 163.203922 275.076117 
L 163.43191 248.320503 
L 163.659898 255.783715 
L 163.887886 258.134627 
L 164.115873 271.045982 
L 164.343861 250.895311 
L 164.571849 258.283891 
L 164.799837 274.889536 
L 165.027824 278.35993 
L 165.255812 263.881299 
L 165.4838 267.463641 
L 165.711788 278.807722 
L 165.939775 245.521799 
L 166.167763 252.835746 
L 166.395751 244.141105 
L 166.623739 265.187361 
L 167.307702 266.530739 
L 167.763677 249.925094 
L 167.991665 274.255163 
L 168.675628 248.880244 
L 168.903616 271.568407 
L 169.131604 271.083298 
L 169.359591 265.597838 
L 169.587579 252.835746 
L 169.815567 288.547213 
L 170.043555 240.073655 
L 170.49953 287.017255 
L 170.955506 273.583474 
L 171.183493 277.1285 
L 171.411481 278.658458 
L 171.639469 265.000781 
L 171.867457 279.218199 
L 172.095444 273.658106 
L 172.323432 284.143919 
L 172.55142 284.143919 
L 172.779408 273.359578 
L 173.463371 215.557005 
L 173.691359 264.478356 
L 174.147334 284.069286 
L 174.375322 245.185955 
L 174.603309 265.821734 
L 174.831297 250.969944 
L 175.059285 254.88813 
L 175.287273 237.163002 
L 175.51526 261.269175 
L 175.743248 260.634802 
L 176.199224 267.426325 
L 176.655199 253.619384 
L 177.111175 267.463641 
L 177.56715 240.857292 
L 178.023126 279.255515 
L 178.251113 266.120263 
L 178.479101 262.64987 
L 178.707089 263.732035 
L 179.163064 275.859754 
L 179.391052 259.888481 
L 179.61904 272.165464 
L 179.847028 260.336274 
L 180.075015 273.546158 
L 180.303003 255.485186 
L 180.530991 265.224677 
L 180.758979 286.867991 
L 180.986966 268.807019 
L 181.214954 263.358875 
L 181.442942 265.448574 
L 181.67093 289.069638 
L 182.126905 262.388657 
L 182.354893 281.755691 
L 182.58288 260.821383 
L 182.810868 250.932627 
L 183.038856 263.060346 
L 183.266844 250.783363 
L 183.494831 279.77794 
L 183.722819 212.01198 
L 183.950807 253.84328 
L 184.178795 247.387602 
L 184.406782 273.06105 
L 184.862758 267.687537 
L 185.090746 262.015497 
L 185.318733 276.120966 
L 185.774709 264.739569 
L 186.002697 269.814553 
L 186.230684 234.700143 
L 186.458672 274.404428 
L 186.68666 275.747806 
L 186.914648 286.905307 
L 187.142635 266.306843 
L 187.370623 269.292128 
L 187.598611 252.238689 
L 187.826599 251.678949 
L 188.054586 209.661068 
L 188.282574 261.306491 
L 188.510562 261.493072 
L 188.73855 260.336274 
L 188.966537 280.374997 
L 189.194525 252.089425 
L 189.422513 283.65881 
L 189.878488 260.075062 
L 190.106476 267.612905 
L 190.334464 284.740975 
L 190.562451 252.947695 
L 191.018427 271.717671 
L 191.246415 245.857644 
L 191.474402 262.83645 
L 191.70239 270.336977 
L 191.930378 262.985714 
L 192.158366 262.090129 
L 192.614341 280.001836 
L 193.070317 188.54018 
L 193.298304 168.762669 
L 193.526292 259.216792 
L 193.75428 264.963465 
L 194.438243 286.233618 
L 194.666231 216.228694 
L 194.894219 280.263049 
L 195.122206 256.530036 
L 195.350194 280.001836 
L 195.578182 275.262697 
L 195.80617 263.321559 
L 196.034157 268.060698 
L 196.490133 259.254108 
L 196.718121 263.20961 
L 196.946108 254.328389 
L 197.174096 281.046686 
L 197.402084 262.575237 
L 197.858059 280.188416 
L 198.314035 188.72676 
L 198.77001 280.561577 
L 198.997998 281.942271 
L 199.225986 259.925797 
L 199.681961 250.14899 
L 200.137937 283.285649 
L 200.593912 281.00937 
L 200.8219 265.67247 
L 201.049888 271.381827 
L 201.277875 272.352044 
L 201.505863 279.330147 
L 201.733851 270.411609 
L 201.961839 280.039152 
L 202.189826 254.104492 
L 202.417814 285.636561 
L 202.645802 270.59819 
L 203.101777 269.926501 
L 203.329765 246.08154 
L 203.557753 283.248333 
L 203.785741 164.881799 
L 204.013728 276.046334 
L 204.469704 241.902142 
L 204.697692 254.477653 
L 204.925679 277.800189 
L 205.153667 254.104492 
L 205.381655 281.793007 
L 205.609642 262.761818 
L 206.521593 280.225733 
L 206.749581 276.941919 
L 207.205557 256.380772 
L 207.433544 259.627269 
L 207.661532 233.804557 
L 207.88952 277.203132 
L 208.345495 253.283539 
L 208.573483 256.380772 
L 208.801471 274.740272 
L 209.029459 262.948398 
L 209.257446 277.874821 
L 209.485434 265.411258 
L 209.94141 279.554043 
L 210.397385 272.613257 
L 210.625373 264.403724 
L 210.853361 265.970999 
L 211.081348 282.42738 
L 211.537324 258.694367 
L 211.765312 220.594673 
L 211.993299 260.970647 
L 212.221287 278.994303 
L 212.449275 271.605723 
L 212.677263 271.941568 
L 212.90525 252.499902 
L 213.361226 260.634802 
L 213.589213 274.926852 
L 213.817201 280.039152 
L 214.045189 258.731683 
L 214.273177 272.0162 
L 214.501164 270.560874 
L 214.729152 259.701901 
L 215.185128 257.425621 
L 215.869091 263.284242 
L 216.097079 266.381475 
L 216.553054 215.706269 
L 216.781042 275.300013 
L 217.00903 268.545807 
L 217.465005 280.263049 
L 217.920981 254.88813 
L 218.148968 278.807722 
L 218.376956 278.173349 
L 218.604944 259.701901 
L 218.832932 269.926501 
L 219.060919 288.472581 
L 219.288907 265.48589 
L 219.516895 274.180531 
L 219.744883 271.792304 
L 220.200858 253.432803 
L 220.428846 253.507435 
L 220.656834 264.814201 
L 221.340797 278.583826 
L 221.568784 256.231508 
L 221.796772 288.584529 
L 222.02476 284.927556 
L 222.252748 256.30614 
L 222.480735 85.697125 
L 222.708723 288.584529 
L 222.936711 187.607278 
L 223.164699 255.895663 
L 223.620674 263.246926 
L 223.848662 273.210314 
L 224.304637 276.344863 
L 224.532625 268.657755 
L 224.760613 256.567352 
L 224.988601 262.127445 
L 225.216588 287.241151 
L 225.672564 276.568759 
L 225.900552 263.20961 
L 226.128539 277.986769 
L 226.356527 277.837505 
L 226.584515 248.91756 
L 226.812503 276.307547 
L 227.268478 272.687889 
L 227.496466 278.098717 
L 227.724454 270.710138 
L 227.952441 248.395136 
L 228.180429 265.48589 
L 228.408417 227.423511 
L 228.636404 284.293183 
L 228.864392 263.694719 
L 229.09238 202.944178 
L 229.320368 254.514969 
L 229.548355 277.203132 
L 229.776343 159.732183 
L 230.460306 282.539328 
L 230.688294 263.545455 
L 230.916282 278.434562 
L 231.14427 281.531795 
L 231.600245 250.484835 
L 231.828233 268.098014 
L 232.056221 295.488 
L 232.284208 271.941568 
L 232.512196 289.629379 
L 232.968172 278.509194 
L 233.424147 283.211017 
L 233.880123 260.037745 
L 234.10811 281.046686 
L 234.336098 261.306491 
L 235.020061 273.284946 
L 235.248049 254.477653 
L 235.476037 267.500957 
L 235.932012 280.710841 
L 236.387988 266.530739 
L 236.615975 278.322614 
L 237.755914 276.718023 
L 237.983902 271.045982 
L 238.21189 260.112378 
L 238.667865 244.290369 
L 239.123841 277.464344 
L 239.351828 263.918615 
L 239.579816 279.665992 
L 239.807804 280.710841 
L 240.035792 286.158986 
L 240.263779 281.793007 
L 241.403718 279.404779 
L 241.631706 272.538625 
L 241.859694 254.328389 
L 242.315669 276.232914 
L 242.999632 278.210665 
L 243.455608 267.612905 
L 243.683596 278.247981 
L 243.911583 262.090129 
L 244.139571 275.038801 
L 245.051522 280.039152 
L 245.507497 246.342752 
L 245.735485 282.128851 
L 246.191461 276.344863 
L 246.419448 280.748157 
L 246.647436 253.544752 
L 247.103412 271.605723 
L 247.331399 255.26129 
L 247.559387 270.448925 
L 248.24335 281.121318 
L 248.927314 268.657755 
L 249.611277 281.307898 
L 250.067252 283.696126 
L 250.523228 263.769351 
L 250.979203 275.188065 
L 251.207191 275.859754 
L 251.435179 259.067528 
L 251.891154 290.450332 
L 252.34713 286.158986 
L 252.803105 261.082595 
L 253.715056 288.360633 
L 253.943044 266.269527 
L 254.171032 278.024085 
L 254.627007 266.754636 
L 255.082983 117.042614 
L 255.31097 282.315432 
L 256.222921 255.858347 
L 256.678897 264.478356 
L 257.818836 260.746751 
L 258.046823 266.605372 
L 258.274811 249.514617 
L 258.730787 264.403724 
L 258.958774 225.184548 
L 259.41475 278.845038 
L 261.010664 263.694719 
L 261.694627 281.307898 
L 263.290541 280.1511 
L 263.746517 282.390064 
L 264.202492 270.672822 
L 265.570419 262.83645 
L 266.938345 267.165112 
L 267.166333 280.636209 
L 267.622308 105.698532 
L 268.534259 248.954876 
L 270.358161 280.449629 
L 271.726088 286.569462 
L 271.954076 284.293183 
L 272.410051 295.152155 
L 275.145904 282.166168 
L 278.56572 267.389009 
L 279.705659 232.050702 
L 281.301573 276.829971 
L 282.669499 276.009018 
L 284.493401 244.700846 
L 288.369193 265.336626 
L 289.965107 281.830323 
L 291.789009 260.410906 
L 297.260715 256.044927 
L 298.400654 266.306843 
L 333.510766 287.241151 
L 398.487273 270.038449 
L 398.487273 270.038449 
" style="fill:none;stroke:#0000ff;stroke-linecap:square;stroke-width:1.5;"/>
   </g>
   <g id="patch_3">
    <path d="M 57.6 307.584 
L 57.6 41.472 
" style="fill:none;stroke:#000000;stroke-linecap:square;stroke-linejoin:miter;stroke-width:0.8;"/>
   </g>
   <g id="patch_4">
    <path d="M 414.72 307.584 
L 414.72 41.472 
" style="fill:none;stroke:#000000;stroke-linecap:square;stroke-linejoin:miter;stroke-width:0.8;"/>
   </g>
   <g id="patch_5">
    <path d="M 57.6 307.584 
L 414.72 307.584 
" style="fill:none;stroke:#000000;stroke-linecap:square;stroke-linejoin:miter;stroke-width:0.8;"/>
   </g>
   <g id="patch_6">
    <path d="M 57.6 41.472 
L 414.72 41.472 
" style="fill:none;stroke:#000000;stroke-linecap:square;stroke-linejoin:miter;stroke-width:0.8;"/>
   </g>
   <g id="text_17">
    <!-- wind_speed-&gt;ping -->
    <g transform="translate(180.567187 35.472)scale(0.12 -0.12)">
     <defs>
      <path d="M 4.890625 31.390625 
L 31.203125 31.390625 
L 31.203125 23.390625 
L 4.890625 23.390625 
z
" id="DejaVuSans-45"/>
      <path d="M 10.59375 49.21875 
L 10.59375 58.109375 
L 73.1875 35.40625 
L 73.1875 27.296875 
L 10.59375 4.59375 
L 10.59375 13.484375 
L 60.890625 31.296875 
z
" id="DejaVuSans-62"/>
      <path d="M 45.40625 27.984375 
Q 45.40625 37.75 41.375 43.109375 
Q 37.359375 48.484375 30.078125 48.484375 
Q 22.859375 48.484375 18.828125 43.109375 
Q 14.796875 37.75 14.796875 27.984375 
Q 14.796875 18.265625 18.828125 12.890625 
Q 22.859375 7.515625 30.078125 7.515625 
Q 37.359375 7.515625 41.375 12.890625 
Q 45.40625 18.265625 45.40625 27.984375 
z
M 54.390625 6.78125 
Q 54.390625 -7.171875 48.1875 -13.984375 
Q 42 -20.796875 29.203125 -20.796875 
Q 24.46875 -20.796875 20.265625 -20.09375 
Q 16.0625 -19.390625 12.109375 -17.921875 
L 12.109375 -9.1875 
Q 16.0625 -11.328125 19.921875 -12.34375 
Q 23.78125 -13.375 27.78125 -13.375 
Q 36.625 -13.375 41.015625 -8.765625 
Q 45.40625 -4.15625 45.40625 5.171875 
L 45.40625 9.625 
Q 42.625 4.78125 38.28125 2.390625 
Q 33.9375 0 27.875 0 
Q 17.828125 0 11.671875 7.65625 
Q 5.515625 15.328125 5.515625 27.984375 
Q 5.515625 40.671875 11.671875 48.328125 
Q 17.828125 56 27.875 56 
Q 33.9375 56 38.28125 53.609375 
Q 42.625 51.21875 45.40625 46.390625 
L 45.40625 54.6875 
L 54.390625 54.6875 
z
" id="DejaVuSans-103"/>
     </defs>
     <use xlink:href="#DejaVuSans-119"/>
     <use x="81.787109" xlink:href="#DejaVuSans-105"/>
     <use x="109.570312" xlink:href="#DejaVuSans-110"/>
     <use x="172.949219" xlink:href="#DejaVuSans-100"/>
     <use x="236.425781" xlink:href="#DejaVuSans-95"/>
     <use x="286.425781" xlink:href="#DejaVuSans-115"/>
     <use x="338.525391" xlink:href="#DejaVuSans-112"/>
     <use x="402.001953" xlink:href="#DejaVuSans-101"/>
     <use x="463.525391" xlink:href="#DejaVuSans-101"/>
     <use x="525.048828" xlink:href="#DejaVuSans-100"/>
     <use x="588.525391" xlink:href="#DejaVuSans-45"/>
     <use x="624.609375" xlink:href="#DejaVuSans-62"/>
     <use x="708.398438" xlink:href="#DejaVuSans-112"/>
     <use x="771.875" xlink:href="#DejaVuSans-105"/>
     <use x="799.658203" xlink:href="#DejaVuSans-110"/>
     <use x="863.037109" xlink:href="#DejaVuSans-103"/>
    </g>
   </g>
  </g>
  <g id="legend_1">
   <g id="patch_7">
    <path d="M 415.451563 22.678125 
L 453.8 22.678125 
Q 455.8 22.678125 455.8 20.678125 
L 455.8 7 
Q 455.8 5 453.8 5 
L 415.451563 5 
Q 413.451563 5 413.451563 7 
L 413.451563 20.678125 
Q 413.451563 22.678125 415.451563 22.678125 
z
" style="fill:#ffffff;opacity:0.8;stroke:#cccccc;stroke-linejoin:miter;"/>
   </g>
   <g id="line2d_17">
    <path d="M 417.451563 13.098438 
L 437.451563 13.098438 
" style="fill:none;stroke:#0000ff;stroke-linecap:square;stroke-width:1.5;"/>
   </g>
   <g id="line2d_18"/>
   <g id="text_18">
    <!-- p -->
    <g transform="translate(445.451563 16.598438)scale(0.1 -0.1)">
     <use xlink:href="#DejaVuSans-112"/>
    </g>
   </g>
  </g>
 </g>
 <defs>
  <clipPath id="p5d1bda639b">
   <rect height="266.112" width="357.12" x="57.6" y="41.472"/>
  </clipPath>
 </defs>
</svg>
