<?xml version="1.0" encoding="utf-8" standalone="no"?>
<!DOCTYPE svg PUBLIC "-//W3C//DTD SVG 1.1//EN"
  "http://www.w3.org/Graphics/SVG/1.1/DTD/svg11.dtd">
<!-- Created with matplotlib (https://matplotlib.org/) -->
<svg height="345.6pt" version="1.1" viewBox="0 0 460.8 345.6" width="460.8pt" xmlns="http://www.w3.org/2000/svg" xmlns:xlink="http://www.w3.org/1999/xlink">
 <metadata>
  <rdf:RDF xmlns:cc="http://creativecommons.org/ns#" xmlns:dc="http://purl.org/dc/elements/1.1/" xmlns:rdf="http://www.w3.org/1999/02/22-rdf-syntax-ns#">
   <cc:Work>
    <dc:type rdf:resource="http://purl.org/dc/dcmitype/StillImage"/>
    <dc:date>2022-07-16T22:08:51.782027</dc:date>
    <dc:format>image/svg+xml</dc:format>
    <dc:creator>
     <cc:Agent>
      <dc:title>Matplotlib v3.3.2, https://matplotlib.org/</dc:title>
     </cc:Agent>
    </dc:creator>
   </cc:Work>
  </rdf:RDF>
 </metadata>
 <defs>
  <style type="text/css">*{stroke-linecap:butt;stroke-linejoin:round;}</style>
 </defs>
 <g id="figure_1">
  <g id="patch_1">
   <path d="M 0 345.6 
L 460.8 345.6 
L 460.8 0 
L 0 0 
z
" style="fill:#ffffff;"/>
  </g>
  <g id="axes_1">
   <g id="patch_2">
    <path d="M 57.6 307.584 
L 414.72 307.584 
L 414.72 41.472 
L 57.6 41.472 
z
" style="fill:#ffffff;"/>
   </g>
   <g id="matplotlib.axis_1">
    <g id="xtick_1">
     <g id="line2d_1">
      <defs>
       <path d="M 0 0 
L 0 3.5 
" id="mb16595e6a2" style="stroke:#000000;stroke-width:0.8;"/>
      </defs>
      <g>
       <use style="stroke:#000000;stroke-width:0.8;" x="62.483205" xlink:href="#mb16595e6a2" y="307.584"/>
      </g>
     </g>
     <g id="text_1">
      <!-- 0 -->
      <g transform="translate(59.301955 322.182437)scale(0.1 -0.1)">
       <defs>
        <path d="M 31.78125 66.40625 
Q 24.171875 66.40625 20.328125 58.90625 
Q 16.5 51.421875 16.5 36.375 
Q 16.5 21.390625 20.328125 13.890625 
Q 24.171875 6.390625 31.78125 6.390625 
Q 39.453125 6.390625 43.28125 13.890625 
Q 47.125 21.390625 47.125 36.375 
Q 47.125 51.421875 43.28125 58.90625 
Q 39.453125 66.40625 31.78125 66.40625 
z
M 31.78125 74.21875 
Q 44.046875 74.21875 50.515625 64.515625 
Q 56.984375 54.828125 56.984375 36.375 
Q 56.984375 17.96875 50.515625 8.265625 
Q 44.046875 -1.421875 31.78125 -1.421875 
Q 19.53125 -1.421875 13.0625 8.265625 
Q 6.59375 17.96875 6.59375 36.375 
Q 6.59375 54.828125 13.0625 64.515625 
Q 19.53125 74.21875 31.78125 74.21875 
z
" id="DejaVuSans-48"/>
       </defs>
       <use xlink:href="#DejaVuSans-48"/>
      </g>
     </g>
    </g>
    <g id="xtick_2">
     <g id="line2d_2">
      <g>
       <use style="stroke:#000000;stroke-width:0.8;" x="134.19444" xlink:href="#mb16595e6a2" y="307.584"/>
      </g>
     </g>
     <g id="text_2">
      <!-- 2 -->
      <g transform="translate(131.01319 322.182437)scale(0.1 -0.1)">
       <defs>
        <path d="M 19.1875 8.296875 
L 53.609375 8.296875 
L 53.609375 0 
L 7.328125 0 
L 7.328125 8.296875 
Q 12.9375 14.109375 22.625 23.890625 
Q 32.328125 33.6875 34.8125 36.53125 
Q 39.546875 41.84375 41.421875 45.53125 
Q 43.3125 49.21875 43.3125 52.78125 
Q 43.3125 58.59375 39.234375 62.25 
Q 35.15625 65.921875 28.609375 65.921875 
Q 23.96875 65.921875 18.8125 64.3125 
Q 13.671875 62.703125 7.8125 59.421875 
L 7.8125 69.390625 
Q 13.765625 71.78125 18.9375 73 
Q 24.125 74.21875 28.421875 74.21875 
Q 39.75 74.21875 46.484375 68.546875 
Q 53.21875 62.890625 53.21875 53.421875 
Q 53.21875 48.921875 51.53125 44.890625 
Q 49.859375 40.875 45.40625 35.40625 
Q 44.1875 33.984375 37.640625 27.21875 
Q 31.109375 20.453125 19.1875 8.296875 
z
" id="DejaVuSans-50"/>
       </defs>
       <use xlink:href="#DejaVuSans-50"/>
      </g>
     </g>
    </g>
    <g id="xtick_3">
     <g id="line2d_3">
      <g>
       <use style="stroke:#000000;stroke-width:0.8;" x="205.905675" xlink:href="#mb16595e6a2" y="307.584"/>
      </g>
     </g>
     <g id="text_3">
      <!-- 4 -->
      <g transform="translate(202.724425 322.182437)scale(0.1 -0.1)">
       <defs>
        <path d="M 37.796875 64.3125 
L 12.890625 25.390625 
L 37.796875 25.390625 
z
M 35.203125 72.90625 
L 47.609375 72.90625 
L 47.609375 25.390625 
L 58.015625 25.390625 
L 58.015625 17.1875 
L 47.609375 17.1875 
L 47.609375 0 
L 37.796875 0 
L 37.796875 17.1875 
L 4.890625 17.1875 
L 4.890625 26.703125 
z
" id="DejaVuSans-52"/>
       </defs>
       <use xlink:href="#DejaVuSans-52"/>
      </g>
     </g>
    </g>
    <g id="xtick_4">
     <g id="line2d_4">
      <g>
       <use style="stroke:#000000;stroke-width:0.8;" x="277.61691" xlink:href="#mb16595e6a2" y="307.584"/>
      </g>
     </g>
     <g id="text_4">
      <!-- 6 -->
      <g transform="translate(274.43566 322.182437)scale(0.1 -0.1)">
       <defs>
        <path d="M 33.015625 40.375 
Q 26.375 40.375 22.484375 35.828125 
Q 18.609375 31.296875 18.609375 23.390625 
Q 18.609375 15.53125 22.484375 10.953125 
Q 26.375 6.390625 33.015625 6.390625 
Q 39.65625 6.390625 43.53125 10.953125 
Q 47.40625 15.53125 47.40625 23.390625 
Q 47.40625 31.296875 43.53125 35.828125 
Q 39.65625 40.375 33.015625 40.375 
z
M 52.59375 71.296875 
L 52.59375 62.3125 
Q 48.875 64.0625 45.09375 64.984375 
Q 41.3125 65.921875 37.59375 65.921875 
Q 27.828125 65.921875 22.671875 59.328125 
Q 17.53125 52.734375 16.796875 39.40625 
Q 19.671875 43.65625 24.015625 45.921875 
Q 28.375 48.1875 33.59375 48.1875 
Q 44.578125 48.1875 50.953125 41.515625 
Q 57.328125 34.859375 57.328125 23.390625 
Q 57.328125 12.15625 50.6875 5.359375 
Q 44.046875 -1.421875 33.015625 -1.421875 
Q 20.359375 -1.421875 13.671875 8.265625 
Q 6.984375 17.96875 6.984375 36.375 
Q 6.984375 53.65625 15.1875 63.9375 
Q 23.390625 74.21875 37.203125 74.21875 
Q 40.921875 74.21875 44.703125 73.484375 
Q 48.484375 72.75 52.59375 71.296875 
z
" id="DejaVuSans-54"/>
       </defs>
       <use xlink:href="#DejaVuSans-54"/>
      </g>
     </g>
    </g>
    <g id="xtick_5">
     <g id="line2d_5">
      <g>
       <use style="stroke:#000000;stroke-width:0.8;" x="349.328145" xlink:href="#mb16595e6a2" y="307.584"/>
      </g>
     </g>
     <g id="text_5">
      <!-- 8 -->
      <g transform="translate(346.146895 322.182437)scale(0.1 -0.1)">
       <defs>
        <path d="M 31.78125 34.625 
Q 24.75 34.625 20.71875 30.859375 
Q 16.703125 27.09375 16.703125 20.515625 
Q 16.703125 13.921875 20.71875 10.15625 
Q 24.75 6.390625 31.78125 6.390625 
Q 38.8125 6.390625 42.859375 10.171875 
Q 46.921875 13.96875 46.921875 20.515625 
Q 46.921875 27.09375 42.890625 30.859375 
Q 38.875 34.625 31.78125 34.625 
z
M 21.921875 38.8125 
Q 15.578125 40.375 12.03125 44.71875 
Q 8.5 49.078125 8.5 55.328125 
Q 8.5 64.0625 14.71875 69.140625 
Q 20.953125 74.21875 31.78125 74.21875 
Q 42.671875 74.21875 48.875 69.140625 
Q 55.078125 64.0625 55.078125 55.328125 
Q 55.078125 49.078125 51.53125 44.71875 
Q 48 40.375 41.703125 38.8125 
Q 48.828125 37.15625 52.796875 32.3125 
Q 56.78125 27.484375 56.78125 20.515625 
Q 56.78125 9.90625 50.3125 4.234375 
Q 43.84375 -1.421875 31.78125 -1.421875 
Q 19.734375 -1.421875 13.25 4.234375 
Q 6.78125 9.90625 6.78125 20.515625 
Q 6.78125 27.484375 10.78125 32.3125 
Q 14.796875 37.15625 21.921875 38.8125 
z
M 18.3125 54.390625 
Q 18.3125 48.734375 21.84375 45.5625 
Q 25.390625 42.390625 31.78125 42.390625 
Q 38.140625 42.390625 41.71875 45.5625 
Q 45.3125 48.734375 45.3125 54.390625 
Q 45.3125 60.0625 41.71875 63.234375 
Q 38.140625 66.40625 31.78125 66.40625 
Q 25.390625 66.40625 21.84375 63.234375 
Q 18.3125 60.0625 18.3125 54.390625 
z
" id="DejaVuSans-56"/>
       </defs>
       <use xlink:href="#DejaVuSans-56"/>
      </g>
     </g>
    </g>
    <g id="text_6">
     <!-- wind_speed from WeatherBitIO -->
     <g transform="translate(158.679531 335.860562)scale(0.1 -0.1)">
      <defs>
       <path d="M 4.203125 54.6875 
L 13.1875 54.6875 
L 24.421875 12.015625 
L 35.59375 54.6875 
L 46.1875 54.6875 
L 57.421875 12.015625 
L 68.609375 54.6875 
L 77.59375 54.6875 
L 63.28125 0 
L 52.6875 0 
L 40.921875 44.828125 
L 29.109375 0 
L 18.5 0 
z
" id="DejaVuSans-119"/>
       <path d="M 9.421875 54.6875 
L 18.40625 54.6875 
L 18.40625 0 
L 9.421875 0 
z
M 9.421875 75.984375 
L 18.40625 75.984375 
L 18.40625 64.59375 
L 9.421875 64.59375 
z
" id="DejaVuSans-105"/>
       <path d="M 54.890625 33.015625 
L 54.890625 0 
L 45.90625 0 
L 45.90625 32.71875 
Q 45.90625 40.484375 42.875 44.328125 
Q 39.84375 48.1875 33.796875 48.1875 
Q 26.515625 48.1875 22.3125 43.546875 
Q 18.109375 38.921875 18.109375 30.90625 
L 18.109375 0 
L 9.078125 0 
L 9.078125 54.6875 
L 18.109375 54.6875 
L 18.109375 46.1875 
Q 21.34375 51.125 25.703125 53.5625 
Q 30.078125 56 35.796875 56 
Q 45.21875 56 50.046875 50.171875 
Q 54.890625 44.34375 54.890625 33.015625 
z
" id="DejaVuSans-110"/>
       <path d="M 45.40625 46.390625 
L 45.40625 75.984375 
L 54.390625 75.984375 
L 54.390625 0 
L 45.40625 0 
L 45.40625 8.203125 
Q 42.578125 3.328125 38.25 0.953125 
Q 33.9375 -1.421875 27.875 -1.421875 
Q 17.96875 -1.421875 11.734375 6.484375 
Q 5.515625 14.40625 5.515625 27.296875 
Q 5.515625 40.1875 11.734375 48.09375 
Q 17.96875 56 27.875 56 
Q 33.9375 56 38.25 53.625 
Q 42.578125 51.265625 45.40625 46.390625 
z
M 14.796875 27.296875 
Q 14.796875 17.390625 18.875 11.75 
Q 22.953125 6.109375 30.078125 6.109375 
Q 37.203125 6.109375 41.296875 11.75 
Q 45.40625 17.390625 45.40625 27.296875 
Q 45.40625 37.203125 41.296875 42.84375 
Q 37.203125 48.484375 30.078125 48.484375 
Q 22.953125 48.484375 18.875 42.84375 
Q 14.796875 37.203125 14.796875 27.296875 
z
" id="DejaVuSans-100"/>
       <path d="M 50.984375 -16.609375 
L 50.984375 -23.578125 
L -0.984375 -23.578125 
L -0.984375 -16.609375 
z
" id="DejaVuSans-95"/>
       <path d="M 44.28125 53.078125 
L 44.28125 44.578125 
Q 40.484375 46.53125 36.375 47.5 
Q 32.28125 48.484375 27.875 48.484375 
Q 21.1875 48.484375 17.84375 46.4375 
Q 14.5 44.390625 14.5 40.28125 
Q 14.5 37.15625 16.890625 35.375 
Q 19.28125 33.59375 26.515625 31.984375 
L 29.59375 31.296875 
Q 39.15625 29.25 43.1875 25.515625 
Q 47.21875 21.78125 47.21875 15.09375 
Q 47.21875 7.46875 41.1875 3.015625 
Q 35.15625 -1.421875 24.609375 -1.421875 
Q 20.21875 -1.421875 15.453125 -0.5625 
Q 10.6875 0.296875 5.421875 2 
L 5.421875 11.28125 
Q 10.40625 8.6875 15.234375 7.390625 
Q 20.0625 6.109375 24.8125 6.109375 
Q 31.15625 6.109375 34.5625 8.28125 
Q 37.984375 10.453125 37.984375 14.40625 
Q 37.984375 18.0625 35.515625 20.015625 
Q 33.0625 21.96875 24.703125 23.78125 
L 21.578125 24.515625 
Q 13.234375 26.265625 9.515625 29.90625 
Q 5.8125 33.546875 5.8125 39.890625 
Q 5.8125 47.609375 11.28125 51.796875 
Q 16.75 56 26.8125 56 
Q 31.78125 56 36.171875 55.265625 
Q 40.578125 54.546875 44.28125 53.078125 
z
" id="DejaVuSans-115"/>
       <path d="M 18.109375 8.203125 
L 18.109375 -20.796875 
L 9.078125 -20.796875 
L 9.078125 54.6875 
L 18.109375 54.6875 
L 18.109375 46.390625 
Q 20.953125 51.265625 25.265625 53.625 
Q 29.59375 56 35.59375 56 
Q 45.5625 56 51.78125 48.09375 
Q 58.015625 40.1875 58.015625 27.296875 
Q 58.015625 14.40625 51.78125 6.484375 
Q 45.5625 -1.421875 35.59375 -1.421875 
Q 29.59375 -1.421875 25.265625 0.953125 
Q 20.953125 3.328125 18.109375 8.203125 
z
M 48.6875 27.296875 
Q 48.6875 37.203125 44.609375 42.84375 
Q 40.53125 48.484375 33.40625 48.484375 
Q 26.265625 48.484375 22.1875 42.84375 
Q 18.109375 37.203125 18.109375 27.296875 
Q 18.109375 17.390625 22.1875 11.75 
Q 26.265625 6.109375 33.40625 6.109375 
Q 40.53125 6.109375 44.609375 11.75 
Q 48.6875 17.390625 48.6875 27.296875 
z
" id="DejaVuSans-112"/>
       <path d="M 56.203125 29.59375 
L 56.203125 25.203125 
L 14.890625 25.203125 
Q 15.484375 15.921875 20.484375 11.0625 
Q 25.484375 6.203125 34.421875 6.203125 
Q 39.59375 6.203125 44.453125 7.46875 
Q 49.3125 8.734375 54.109375 11.28125 
L 54.109375 2.78125 
Q 49.265625 0.734375 44.1875 -0.34375 
Q 39.109375 -1.421875 33.890625 -1.421875 
Q 20.796875 -1.421875 13.15625 6.1875 
Q 5.515625 13.8125 5.515625 26.8125 
Q 5.515625 40.234375 12.765625 48.109375 
Q 20.015625 56 32.328125 56 
Q 43.359375 56 49.78125 48.890625 
Q 56.203125 41.796875 56.203125 29.59375 
z
M 47.21875 32.234375 
Q 47.125 39.59375 43.09375 43.984375 
Q 39.0625 48.390625 32.421875 48.390625 
Q 24.90625 48.390625 20.390625 44.140625 
Q 15.875 39.890625 15.1875 32.171875 
z
" id="DejaVuSans-101"/>
       <path id="DejaVuSans-32"/>
       <path d="M 37.109375 75.984375 
L 37.109375 68.5 
L 28.515625 68.5 
Q 23.6875 68.5 21.796875 66.546875 
Q 19.921875 64.59375 19.921875 59.515625 
L 19.921875 54.6875 
L 34.71875 54.6875 
L 34.71875 47.703125 
L 19.921875 47.703125 
L 19.921875 0 
L 10.890625 0 
L 10.890625 47.703125 
L 2.296875 47.703125 
L 2.296875 54.6875 
L 10.890625 54.6875 
L 10.890625 58.5 
Q 10.890625 67.625 15.140625 71.796875 
Q 19.390625 75.984375 28.609375 75.984375 
z
" id="DejaVuSans-102"/>
       <path d="M 41.109375 46.296875 
Q 39.59375 47.171875 37.8125 47.578125 
Q 36.03125 48 33.890625 48 
Q 26.265625 48 22.1875 43.046875 
Q 18.109375 38.09375 18.109375 28.8125 
L 18.109375 0 
L 9.078125 0 
L 9.078125 54.6875 
L 18.109375 54.6875 
L 18.109375 46.1875 
Q 20.953125 51.171875 25.484375 53.578125 
Q 30.03125 56 36.53125 56 
Q 37.453125 56 38.578125 55.875 
Q 39.703125 55.765625 41.0625 55.515625 
z
" id="DejaVuSans-114"/>
       <path d="M 30.609375 48.390625 
Q 23.390625 48.390625 19.1875 42.75 
Q 14.984375 37.109375 14.984375 27.296875 
Q 14.984375 17.484375 19.15625 11.84375 
Q 23.34375 6.203125 30.609375 6.203125 
Q 37.796875 6.203125 41.984375 11.859375 
Q 46.1875 17.53125 46.1875 27.296875 
Q 46.1875 37.015625 41.984375 42.703125 
Q 37.796875 48.390625 30.609375 48.390625 
z
M 30.609375 56 
Q 42.328125 56 49.015625 48.375 
Q 55.71875 40.765625 55.71875 27.296875 
Q 55.71875 13.875 49.015625 6.21875 
Q 42.328125 -1.421875 30.609375 -1.421875 
Q 18.84375 -1.421875 12.171875 6.21875 
Q 5.515625 13.875 5.515625 27.296875 
Q 5.515625 40.765625 12.171875 48.375 
Q 18.84375 56 30.609375 56 
z
" id="DejaVuSans-111"/>
       <path d="M 52 44.1875 
Q 55.375 50.25 60.0625 53.125 
Q 64.75 56 71.09375 56 
Q 79.640625 56 84.28125 50.015625 
Q 88.921875 44.046875 88.921875 33.015625 
L 88.921875 0 
L 79.890625 0 
L 79.890625 32.71875 
Q 79.890625 40.578125 77.09375 44.375 
Q 74.3125 48.1875 68.609375 48.1875 
Q 61.625 48.1875 57.5625 43.546875 
Q 53.515625 38.921875 53.515625 30.90625 
L 53.515625 0 
L 44.484375 0 
L 44.484375 32.71875 
Q 44.484375 40.625 41.703125 44.40625 
Q 38.921875 48.1875 33.109375 48.1875 
Q 26.21875 48.1875 22.15625 43.53125 
Q 18.109375 38.875 18.109375 30.90625 
L 18.109375 0 
L 9.078125 0 
L 9.078125 54.6875 
L 18.109375 54.6875 
L 18.109375 46.1875 
Q 21.1875 51.21875 25.484375 53.609375 
Q 29.78125 56 35.6875 56 
Q 41.65625 56 45.828125 52.96875 
Q 50 49.953125 52 44.1875 
z
" id="DejaVuSans-109"/>
       <path d="M 3.328125 72.90625 
L 13.28125 72.90625 
L 28.609375 11.28125 
L 43.890625 72.90625 
L 54.984375 72.90625 
L 70.3125 11.28125 
L 85.59375 72.90625 
L 95.609375 72.90625 
L 77.296875 0 
L 64.890625 0 
L 49.515625 63.28125 
L 33.984375 0 
L 21.578125 0 
z
" id="DejaVuSans-87"/>
       <path d="M 34.28125 27.484375 
Q 23.390625 27.484375 19.1875 25 
Q 14.984375 22.515625 14.984375 16.5 
Q 14.984375 11.71875 18.140625 8.90625 
Q 21.296875 6.109375 26.703125 6.109375 
Q 34.1875 6.109375 38.703125 11.40625 
Q 43.21875 16.703125 43.21875 25.484375 
L 43.21875 27.484375 
z
M 52.203125 31.203125 
L 52.203125 0 
L 43.21875 0 
L 43.21875 8.296875 
Q 40.140625 3.328125 35.546875 0.953125 
Q 30.953125 -1.421875 24.3125 -1.421875 
Q 15.921875 -1.421875 10.953125 3.296875 
Q 6 8.015625 6 15.921875 
Q 6 25.140625 12.171875 29.828125 
Q 18.359375 34.515625 30.609375 34.515625 
L 43.21875 34.515625 
L 43.21875 35.40625 
Q 43.21875 41.609375 39.140625 45 
Q 35.0625 48.390625 27.6875 48.390625 
Q 23 48.390625 18.546875 47.265625 
Q 14.109375 46.140625 10.015625 43.890625 
L 10.015625 52.203125 
Q 14.9375 54.109375 19.578125 55.046875 
Q 24.21875 56 28.609375 56 
Q 40.484375 56 46.34375 49.84375 
Q 52.203125 43.703125 52.203125 31.203125 
z
" id="DejaVuSans-97"/>
       <path d="M 18.3125 70.21875 
L 18.3125 54.6875 
L 36.8125 54.6875 
L 36.8125 47.703125 
L 18.3125 47.703125 
L 18.3125 18.015625 
Q 18.3125 11.328125 20.140625 9.421875 
Q 21.96875 7.515625 27.59375 7.515625 
L 36.8125 7.515625 
L 36.8125 0 
L 27.59375 0 
Q 17.1875 0 13.234375 3.875 
Q 9.28125 7.765625 9.28125 18.015625 
L 9.28125 47.703125 
L 2.6875 47.703125 
L 2.6875 54.6875 
L 9.28125 54.6875 
L 9.28125 70.21875 
z
" id="DejaVuSans-116"/>
       <path d="M 54.890625 33.015625 
L 54.890625 0 
L 45.90625 0 
L 45.90625 32.71875 
Q 45.90625 40.484375 42.875 44.328125 
Q 39.84375 48.1875 33.796875 48.1875 
Q 26.515625 48.1875 22.3125 43.546875 
Q 18.109375 38.921875 18.109375 30.90625 
L 18.109375 0 
L 9.078125 0 
L 9.078125 75.984375 
L 18.109375 75.984375 
L 18.109375 46.1875 
Q 21.34375 51.125 25.703125 53.5625 
Q 30.078125 56 35.796875 56 
Q 45.21875 56 50.046875 50.171875 
Q 54.890625 44.34375 54.890625 33.015625 
z
" id="DejaVuSans-104"/>
       <path d="M 19.671875 34.8125 
L 19.671875 8.109375 
L 35.5 8.109375 
Q 43.453125 8.109375 47.28125 11.40625 
Q 51.125 14.703125 51.125 21.484375 
Q 51.125 28.328125 47.28125 31.5625 
Q 43.453125 34.8125 35.5 34.8125 
z
M 19.671875 64.796875 
L 19.671875 42.828125 
L 34.28125 42.828125 
Q 41.5 42.828125 45.03125 45.53125 
Q 48.578125 48.25 48.578125 53.8125 
Q 48.578125 59.328125 45.03125 62.0625 
Q 41.5 64.796875 34.28125 64.796875 
z
M 9.8125 72.90625 
L 35.015625 72.90625 
Q 46.296875 72.90625 52.390625 68.21875 
Q 58.5 63.53125 58.5 54.890625 
Q 58.5 48.1875 55.375 44.234375 
Q 52.25 40.28125 46.1875 39.3125 
Q 53.46875 37.75 57.5 32.78125 
Q 61.53125 27.828125 61.53125 20.40625 
Q 61.53125 10.640625 54.890625 5.3125 
Q 48.25 0 35.984375 0 
L 9.8125 0 
z
" id="DejaVuSans-66"/>
       <path d="M 9.8125 72.90625 
L 19.671875 72.90625 
L 19.671875 0 
L 9.8125 0 
z
" id="DejaVuSans-73"/>
       <path d="M 39.40625 66.21875 
Q 28.65625 66.21875 22.328125 58.203125 
Q 16.015625 50.203125 16.015625 36.375 
Q 16.015625 22.609375 22.328125 14.59375 
Q 28.65625 6.59375 39.40625 6.59375 
Q 50.140625 6.59375 56.421875 14.59375 
Q 62.703125 22.609375 62.703125 36.375 
Q 62.703125 50.203125 56.421875 58.203125 
Q 50.140625 66.21875 39.40625 66.21875 
z
M 39.40625 74.21875 
Q 54.734375 74.21875 63.90625 63.9375 
Q 73.09375 53.65625 73.09375 36.375 
Q 73.09375 19.140625 63.90625 8.859375 
Q 54.734375 -1.421875 39.40625 -1.421875 
Q 24.03125 -1.421875 14.8125 8.828125 
Q 5.609375 19.09375 5.609375 36.375 
Q 5.609375 53.65625 14.8125 63.9375 
Q 24.03125 74.21875 39.40625 74.21875 
z
" id="DejaVuSans-79"/>
      </defs>
      <use xlink:href="#DejaVuSans-119"/>
      <use x="81.787109" xlink:href="#DejaVuSans-105"/>
      <use x="109.570312" xlink:href="#DejaVuSans-110"/>
      <use x="172.949219" xlink:href="#DejaVuSans-100"/>
      <use x="236.425781" xlink:href="#DejaVuSans-95"/>
      <use x="286.425781" xlink:href="#DejaVuSans-115"/>
      <use x="338.525391" xlink:href="#DejaVuSans-112"/>
      <use x="402.001953" xlink:href="#DejaVuSans-101"/>
      <use x="463.525391" xlink:href="#DejaVuSans-101"/>
      <use x="525.048828" xlink:href="#DejaVuSans-100"/>
      <use x="588.525391" xlink:href="#DejaVuSans-32"/>
      <use x="620.3125" xlink:href="#DejaVuSans-102"/>
      <use x="655.517578" xlink:href="#DejaVuSans-114"/>
      <use x="694.380859" xlink:href="#DejaVuSans-111"/>
      <use x="755.5625" xlink:href="#DejaVuSans-109"/>
      <use x="852.974609" xlink:href="#DejaVuSans-32"/>
      <use x="884.761719" xlink:href="#DejaVuSans-87"/>
      <use x="977.763672" xlink:href="#DejaVuSans-101"/>
      <use x="1039.287109" xlink:href="#DejaVuSans-97"/>
      <use x="1100.566406" xlink:href="#DejaVuSans-116"/>
      <use x="1139.775391" xlink:href="#DejaVuSans-104"/>
      <use x="1203.154297" xlink:href="#DejaVuSans-101"/>
      <use x="1264.677734" xlink:href="#DejaVuSans-114"/>
      <use x="1305.791016" xlink:href="#DejaVuSans-66"/>
      <use x="1374.394531" xlink:href="#DejaVuSans-105"/>
      <use x="1402.177734" xlink:href="#DejaVuSans-116"/>
      <use x="1441.386719" xlink:href="#DejaVuSans-73"/>
      <use x="1470.878906" xlink:href="#DejaVuSans-79"/>
     </g>
    </g>
   </g>
   <g id="matplotlib.axis_2">
    <g id="ytick_1">
     <g id="line2d_6">
      <defs>
       <path d="M 0 0 
L -3.5 0 
" id="m9fc21fd8a7" style="stroke:#000000;stroke-width:0.8;"/>
      </defs>
      <g>
       <use style="stroke:#000000;stroke-width:0.8;" x="57.6" xlink:href="#m9fc21fd8a7" y="299.21733"/>
      </g>
     </g>
     <g id="text_7">
      <!-- 4 -->
      <g transform="translate(44.2375 303.016549)scale(0.1 -0.1)">
       <use xlink:href="#DejaVuSans-52"/>
      </g>
     </g>
    </g>
    <g id="ytick_2">
     <g id="line2d_7">
      <g>
       <use style="stroke:#000000;stroke-width:0.8;" x="57.6" xlink:href="#m9fc21fd8a7" y="258.681137"/>
      </g>
     </g>
     <g id="text_8">
      <!-- 5 -->
      <g transform="translate(44.2375 262.480355)scale(0.1 -0.1)">
       <defs>
        <path d="M 10.796875 72.90625 
L 49.515625 72.90625 
L 49.515625 64.59375 
L 19.828125 64.59375 
L 19.828125 46.734375 
Q 21.96875 47.46875 24.109375 47.828125 
Q 26.265625 48.1875 28.421875 48.1875 
Q 40.625 48.1875 47.75 41.5 
Q 54.890625 34.8125 54.890625 23.390625 
Q 54.890625 11.625 47.5625 5.09375 
Q 40.234375 -1.421875 26.90625 -1.421875 
Q 22.3125 -1.421875 17.546875 -0.640625 
Q 12.796875 0.140625 7.71875 1.703125 
L 7.71875 11.625 
Q 12.109375 9.234375 16.796875 8.0625 
Q 21.484375 6.890625 26.703125 6.890625 
Q 35.15625 6.890625 40.078125 11.328125 
Q 45.015625 15.765625 45.015625 23.390625 
Q 45.015625 31 40.078125 35.4375 
Q 35.15625 39.890625 26.703125 39.890625 
Q 22.75 39.890625 18.8125 39.015625 
Q 14.890625 38.140625 10.796875 36.28125 
z
" id="DejaVuSans-53"/>
       </defs>
       <use xlink:href="#DejaVuSans-53"/>
      </g>
     </g>
    </g>
    <g id="ytick_3">
     <g id="line2d_8">
      <g>
       <use style="stroke:#000000;stroke-width:0.8;" x="57.6" xlink:href="#m9fc21fd8a7" y="218.144944"/>
      </g>
     </g>
     <g id="text_9">
      <!-- 6 -->
      <g transform="translate(44.2375 221.944162)scale(0.1 -0.1)">
       <use xlink:href="#DejaVuSans-54"/>
      </g>
     </g>
    </g>
    <g id="ytick_4">
     <g id="line2d_9">
      <g>
       <use style="stroke:#000000;stroke-width:0.8;" x="57.6" xlink:href="#m9fc21fd8a7" y="177.608751"/>
      </g>
     </g>
     <g id="text_10">
      <!-- 7 -->
      <g transform="translate(44.2375 181.407969)scale(0.1 -0.1)">
       <defs>
        <path d="M 8.203125 72.90625 
L 55.078125 72.90625 
L 55.078125 68.703125 
L 28.609375 0 
L 18.3125 0 
L 43.21875 64.59375 
L 8.203125 64.59375 
z
" id="DejaVuSans-55"/>
       </defs>
       <use xlink:href="#DejaVuSans-55"/>
      </g>
     </g>
    </g>
    <g id="ytick_5">
     <g id="line2d_10">
      <g>
       <use style="stroke:#000000;stroke-width:0.8;" x="57.6" xlink:href="#m9fc21fd8a7" y="137.072558"/>
      </g>
     </g>
     <g id="text_11">
      <!-- 8 -->
      <g transform="translate(44.2375 140.871776)scale(0.1 -0.1)">
       <use xlink:href="#DejaVuSans-56"/>
      </g>
     </g>
    </g>
    <g id="ytick_6">
     <g id="line2d_11">
      <g>
       <use style="stroke:#000000;stroke-width:0.8;" x="57.6" xlink:href="#m9fc21fd8a7" y="96.536365"/>
      </g>
     </g>
     <g id="text_12">
      <!-- 9 -->
      <g transform="translate(44.2375 100.335583)scale(0.1 -0.1)">
       <defs>
        <path d="M 10.984375 1.515625 
L 10.984375 10.5 
Q 14.703125 8.734375 18.5 7.8125 
Q 22.3125 6.890625 25.984375 6.890625 
Q 35.75 6.890625 40.890625 13.453125 
Q 46.046875 20.015625 46.78125 33.40625 
Q 43.953125 29.203125 39.59375 26.953125 
Q 35.25 24.703125 29.984375 24.703125 
Q 19.046875 24.703125 12.671875 31.3125 
Q 6.296875 37.9375 6.296875 49.421875 
Q 6.296875 60.640625 12.9375 67.421875 
Q 19.578125 74.21875 30.609375 74.21875 
Q 43.265625 74.21875 49.921875 64.515625 
Q 56.59375 54.828125 56.59375 36.375 
Q 56.59375 19.140625 48.40625 8.859375 
Q 40.234375 -1.421875 26.421875 -1.421875 
Q 22.703125 -1.421875 18.890625 -0.6875 
Q 15.09375 0.046875 10.984375 1.515625 
z
M 30.609375 32.421875 
Q 37.25 32.421875 41.125 36.953125 
Q 45.015625 41.5 45.015625 49.421875 
Q 45.015625 57.28125 41.125 61.84375 
Q 37.25 66.40625 30.609375 66.40625 
Q 23.96875 66.40625 20.09375 61.84375 
Q 16.21875 57.28125 16.21875 49.421875 
Q 16.21875 41.5 20.09375 36.953125 
Q 23.96875 32.421875 30.609375 32.421875 
z
" id="DejaVuSans-57"/>
       </defs>
       <use xlink:href="#DejaVuSans-57"/>
      </g>
     </g>
    </g>
    <g id="ytick_7">
     <g id="line2d_12">
      <g>
       <use style="stroke:#000000;stroke-width:0.8;" x="57.6" xlink:href="#m9fc21fd8a7" y="56.000172"/>
      </g>
     </g>
     <g id="text_13">
      <!-- 10 -->
      <g transform="translate(37.875 59.79939)scale(0.1 -0.1)">
       <defs>
        <path d="M 12.40625 8.296875 
L 28.515625 8.296875 
L 28.515625 63.921875 
L 10.984375 60.40625 
L 10.984375 69.390625 
L 28.421875 72.90625 
L 38.28125 72.90625 
L 38.28125 8.296875 
L 54.390625 8.296875 
L 54.390625 0 
L 12.40625 0 
z
" id="DejaVuSans-49"/>
       </defs>
       <use xlink:href="#DejaVuSans-49"/>
       <use x="63.623047" xlink:href="#DejaVuSans-48"/>
      </g>
     </g>
    </g>
    <g id="text_14">
     <!-- ping[ms] -->
     <g transform="translate(31.795312 196.810812)rotate(-90)scale(0.1 -0.1)">
      <defs>
       <path d="M 45.40625 27.984375 
Q 45.40625 37.75 41.375 43.109375 
Q 37.359375 48.484375 30.078125 48.484375 
Q 22.859375 48.484375 18.828125 43.109375 
Q 14.796875 37.75 14.796875 27.984375 
Q 14.796875 18.265625 18.828125 12.890625 
Q 22.859375 7.515625 30.078125 7.515625 
Q 37.359375 7.515625 41.375 12.890625 
Q 45.40625 18.265625 45.40625 27.984375 
z
M 54.390625 6.78125 
Q 54.390625 -7.171875 48.1875 -13.984375 
Q 42 -20.796875 29.203125 -20.796875 
Q 24.46875 -20.796875 20.265625 -20.09375 
Q 16.0625 -19.390625 12.109375 -17.921875 
L 12.109375 -9.1875 
Q 16.0625 -11.328125 19.921875 -12.34375 
Q 23.78125 -13.375 27.78125 -13.375 
Q 36.625 -13.375 41.015625 -8.765625 
Q 45.40625 -4.15625 45.40625 5.171875 
L 45.40625 9.625 
Q 42.625 4.78125 38.28125 2.390625 
Q 33.9375 0 27.875 0 
Q 17.828125 0 11.671875 7.65625 
Q 5.515625 15.328125 5.515625 27.984375 
Q 5.515625 40.671875 11.671875 48.328125 
Q 17.828125 56 27.875 56 
Q 33.9375 56 38.28125 53.609375 
Q 42.625 51.21875 45.40625 46.390625 
L 45.40625 54.6875 
L 54.390625 54.6875 
z
" id="DejaVuSans-103"/>
       <path d="M 8.59375 75.984375 
L 29.296875 75.984375 
L 29.296875 69 
L 17.578125 69 
L 17.578125 -6.203125 
L 29.296875 -6.203125 
L 29.296875 -13.1875 
L 8.59375 -13.1875 
z
" id="DejaVuSans-91"/>
       <path d="M 30.421875 75.984375 
L 30.421875 -13.1875 
L 9.71875 -13.1875 
L 9.71875 -6.203125 
L 21.390625 -6.203125 
L 21.390625 69 
L 9.71875 69 
L 9.71875 75.984375 
z
" id="DejaVuSans-93"/>
      </defs>
      <use xlink:href="#DejaVuSans-112"/>
      <use x="63.476562" xlink:href="#DejaVuSans-105"/>
      <use x="91.259766" xlink:href="#DejaVuSans-110"/>
      <use x="154.638672" xlink:href="#DejaVuSans-103"/>
      <use x="218.115234" xlink:href="#DejaVuSans-91"/>
      <use x="257.128906" xlink:href="#DejaVuSans-109"/>
      <use x="354.541016" xlink:href="#DejaVuSans-115"/>
      <use x="406.640625" xlink:href="#DejaVuSans-93"/>
     </g>
    </g>
   </g>
   <g id="line2d_13">
    <path clip-path="url(#p236e756aee)" d="M 73.832727 259.775614 
L 76.283997 258.681137 
L 77.159483 232.211003 
L 77.413484 244.69615 
L 77.527362 224.99556 
L 79.181668 254.546445 
L 81.893429 240.926284 
L 83.557703 277.854756 
L 83.953298 253.492504 
L 84.627527 240.358777 
L 87.754782 276.517062 
L 90.702437 259.572933 
L 91.043495 260.464729 
L 91.137688 256.857008 
L 91.76362 239.345373 
L 91.780866 253.816794 
L 92.467071 265.085855 
L 94.226363 277.408858 
L 95.770019 254.343764 
L 95.793576 248.303871 
L 95.952237 276.557598 
L 96.198027 245.54741 
L 96.985022 261.640279 
L 98.938329 268.734113 
L 99.134817 270.233952 
L 99.292582 257.58666 
L 99.372899 260.343121 
L 99.573332 263.22119 
L 99.754403 243.723282 
L 99.80711 253.654649 
L 99.821811 247.493147 
L 100.510239 240.156097 
L 100.742942 263.22119 
L 100.804255 259.81615 
L 101.074965 248.10119 
L 101.078192 262.937437 
L 101.38153 258.721673 
L 101.417745 255.357169 
L 101.617819 255.032879 
L 102.053465 256.492182 
L 102.105455 254.222155 
L 102.775238 272.868804 
L 103.150647 240.723603 
L 103.262158 263.423871 
L 103.41311 256.451646 
L 103.76808 250.006391 
L 103.941263 250.128 
L 104.529654 265.166928 
L 104.568378 241.81808 
L 104.618576 255.276097 
L 104.822236 261.51867 
L 105.604964 263.302263 
L 106.708241 279.678885 
L 106.76059 265.815507 
L 107.817614 258.721673 
L 108.331066 268.247678 
L 108.809022 256.857008 
L 109.620793 269.747517 
L 109.646609 251.627839 
L 109.828755 249.438885 
L 109.913733 272.868804 
L 110.20022 267.355882 
L 110.460173 266.42355 
L 110.594631 247.898509 
L 110.661323 269.423228 
L 110.849565 251.384622 
L 110.914105 256.492182 
L 111.02203 278.260118 
L 111.43939 246.72296 
L 112.351198 264.031914 
L 112.437252 205.781405 
L 112.521512 261.234917 
L 112.613661 258.843282 
L 113.351928 255.55985 
L 113.453758 258.11363 
L 113.710126 281.908375 
L 113.754228 250.087464 
L 114.001991 253.735721 
L 114.117804 261.032236 
L 114.283457 227.914166 
L 114.404649 263.342799 
L 114.611536 256.127357 
L 114.943559 262.36993 
L 115.231838 227.468268 
L 115.39032 293.339582 
L 115.392472 258.518992 
L 115.755689 261.275453 
L 115.935326 255.640922 
L 116.331889 267.599099 
L 116.351251 252.560172 
L 116.568536 256.127357 
L 116.80088 268.896257 
L 116.970119 253.208751 
L 116.993783 256.897544 
L 117.921727 202.538509 
L 117.951128 268.328751 
L 118.185266 253.695185 
L 118.373866 249.27674 
L 118.565335 271.166284 
L 118.6833 237.318563 
L 118.725968 265.450681 
L 118.892338 271.693255 
L 118.895565 260.180976 
L 118.943253 282.556954 
L 119.374238 246.763496 
L 119.72132 267.761244 
L 119.871197 233.143335 
L 120.976625 247.898509 
L 120.994553 271.774327 
L 121.437729 264.39674 
L 121.885565 260.180976 
L 122.074524 260.829555 
L 122.118268 247.533684 
L 122.517341 251.911592 
L 122.701998 270.274488 
L 122.874105 271.733791 
L 122.880917 266.869448 
L 123.491897 266.788375 
L 123.668665 240.764139 
L 123.701294 281.016579 
L 123.72962 252.641244 
L 123.951925 241.169501 
L 124.219407 245.385265 
L 124.538881 270.477169 
L 124.576888 267.27481 
L 124.612027 235.616043 
L 125.243802 259.937759 
L 125.49766 252.235882 
L 125.785939 264.234595 
L 125.9498 215.347946 
L 126.11115 274.611861 
L 126.602372 268.166606 
L 126.681613 237.196954 
L 126.911447 271.895936 
L 126.960928 253.614113 
L 127.406972 281.097651 
L 127.526371 263.22119 
L 128.264997 265.369609 
L 128.420969 253.978938 
L 128.436387 269.585373 
L 128.614231 269.382692 
L 128.668014 275.341512 
L 129.012586 252.519635 
L 129.015455 259.856686 
L 129.057765 251.384622 
L 129.061709 258.073094 
L 129.574803 251.668375 
L 129.746192 240.318241 
L 129.873838 272.666123 
L 130.210881 269.625909 
L 130.426373 258.275775 
L 130.545056 266.95052 
L 130.623221 258.154166 
L 130.717521 260.059367 
L 130.755528 276.760279 
L 131.023369 260.586338 
L 131.156752 270.598777 
L 131.70857 261.599743 
L 131.829045 265.207464 
L 131.846614 274.490252 
L 132.072146 264.721029 
L 132.432137 262.207786 
L 132.556556 271.287893 
L 133.50673 270.315024 
L 133.875684 272.666123 
L 133.907237 274.247035 
L 134.106953 271.693255 
L 134.186552 258.600064 
L 134.541881 261.397062 
L 135.088321 257.951485 
L 135.094416 265.248 
L 135.181545 257.302906 
L 136.303468 272.301298 
L 136.417847 251.30355 
L 136.785367 276.922424 
L 137.252924 263.342799 
L 137.368738 247.087786 
L 137.739127 272.625587 
L 138.406758 264.39674 
L 138.615796 265.126391 
L 138.903 278.462799 
L 138.932043 235.778188 
L 139.058972 256.573255 
L 139.255461 250.087464 
L 139.272671 270.315024 
L 139.360159 252.843925 
L 139.468443 274.814542 
L 139.505733 270.558241 
L 139.867158 278.503335 
L 139.899428 240.601995 
L 140.250454 251.911592 
L 140.437262 267.80178 
L 140.770361 258.11363 
L 141.666751 279.070842 
L 141.834914 250.45229 
L 141.835631 260.951164 
L 142.055067 262.248322 
L 142.143272 264.842638 
L 142.152953 255.154488 
L 142.354462 263.748161 
L 142.359482 273.23363 
L 142.383505 254.992343 
L 142.850703 247.776901 
L 143.031416 268.207142 
L 143.363797 270.760922 
L 143.391406 263.626552 
L 143.587178 269.342155 
L 143.600444 237.88607 
L 144.117482 248.547088 
L 144.220747 267.27481 
L 144.255885 267.234273 
L 144.426199 251.789984 
L 144.64456 278.827625 
L 144.773282 258.559528 
L 144.787624 266.464086 
L 144.870092 200.106338 
L 145.366334 266.626231 
L 145.418683 252.114273 
L 145.450953 279.151914 
L 145.476769 247.533684 
L 145.797318 245.506874 
L 145.840345 261.032236 
L 146.215395 263.667088 
L 146.363478 254.951807 
L 146.695143 268.207142 
L 147.117163 239.791271 
L 147.163776 260.66741 
L 147.194253 254.546445 
L 147.565359 266.828912 
L 148.049768 261.84296 
L 148.320478 265.248 
L 148.582582 259.856686 
L 148.701265 275.138831 
L 149.084203 224.833416 
L 149.383956 227.468268 
L 149.60877 262.856365 
L 149.826055 261.194381 
L 150.048719 248.263335 
L 150.106446 258.681137 
L 150.283932 228.887035 
L 150.401538 266.139796 
L 150.693761 249.641566 
L 150.774078 214.294005 
L 151.589435 233.427088 
L 151.611306 266.058724 
L 151.735725 250.938724 
L 151.73716 290.05615 
L 151.778752 259.856686 
L 151.926477 245.466338 
L 151.957672 246.844568 
L 152.096792 269.017866 
L 152.801354 266.09926 
L 153.256362 281.624622 
L 153.296521 248.668697 
L 154.704571 266.869448 
L 154.752259 233.954059 
L 154.884566 241.372182 
L 155.08464 268.450359 
L 155.160654 268.612504 
L 155.51921 240.156097 
L 156.046646 277.48993 
L 156.10545 277.449394 
L 156.13521 248.830842 
L 156.575875 283.367678 
L 156.635396 267.518027 
L 156.66157 269.625909 
L 156.824355 273.152558 
L 157.247451 257.667732 
L 157.389798 274.571324 
L 157.634333 241.169501 
L 157.774887 237.602316 
L 157.957392 228.603282 
L 158.001853 215.510091 
L 158.452917 268.774649 
L 158.730081 266.220869 
L 158.874579 236.143013 
L 159.123417 264.558885 
L 159.139552 251.222477 
L 159.151384 263.423871 
L 159.293014 257.748804 
L 159.961363 275.057759 
L 160.038094 242.547732 
L 160.126299 265.126391 
L 160.715406 277.003496 
L 161.449729 253.53304 
L 161.456901 285.921458 
L 161.542237 266.707303 
L 161.598889 269.261083 
L 161.773864 221.06355 
L 161.86924 275.017223 
L 162.224569 249.155131 
L 162.255764 275.706338 
L 162.602129 253.53304 
L 162.856345 257.708268 
L 163.089048 270.517705 
L 163.120243 267.153201 
L 163.215977 247.614756 
L 163.795762 264.761566 
L 164.085834 235.85926 
L 164.631915 246.885105 
L 164.638011 262.572611 
L 164.824819 280.408536 
L 164.930593 241.777544 
L 164.940991 255.478777 
L 165.045331 276.435989 
L 165.116683 266.909984 
L 165.701489 272.05808 
L 165.885069 270.031271 
L 166.029567 237.440172 
L 166.176934 269.544836 
L 166.351909 261.802424 
L 166.422545 271.004139 
L 166.535132 260.505265 
L 166.671383 268.409823 
L 166.958945 261.356525 
L 167.013446 231.967786 
L 167.01739 247.614756 
L 167.378814 272.70666 
L 167.4369 254.749126 
L 167.518651 255.884139 
L 167.576737 252.641244 
L 167.626577 271.287893 
L 167.627294 250.736043 
L 167.666735 267.153201 
L 168.07764 272.260761 
L 168.090907 252.519635 
L 168.376318 291.353308 
L 168.428667 243.277383 
L 168.45771 264.964247 
L 168.548783 263.464408 
L 168.581053 274.571324 
L 168.597547 250.006391 
L 168.676429 244.371861 
L 168.778976 251.30355 
L 168.903395 245.506874 
L 168.93459 256.857008 
L 169.0859 261.275453 
L 169.596484 270.274488 
L 169.655646 264.275131 
L 169.797993 265.856043 
L 169.92026 228.927571 
L 170.062966 230.224729 
L 170.189178 267.963925 
L 170.242244 262.126713 
L 170.250849 241.250574 
L 170.339413 272.220225 
L 170.422239 271.368965 
L 170.569606 248.668697 
L 171.061186 242.385587 
L 171.140069 263.383335 
L 171.288511 204.768 
L 171.297475 245.02044 
L 171.463128 249.965855 
L 171.611929 209.34859 
L 171.696548 271.936472 
L 171.836743 261.437598 
L 171.966899 263.950842 
L 172.169125 274.814542 
L 172.22004 251.019796 
L 172.572501 270.274488 
L 172.66214 263.869769 
L 173.881231 238.899475 
L 174.276359 262.977973 
L 174.295363 259.086499 
L 174.649616 269.342155 
L 174.866901 255.23556 
L 175.112871 251.627839 
L 175.428042 273.030949 
L 175.628833 265.57229 
L 176.022528 265.329072 
L 176.208619 266.383013 
L 176.276386 259.28918 
L 176.94079 276.517062 
L 177.615593 53.568 
L 177.779095 272.544515 
L 178.073111 260.9917 
L 178.808868 264.234595 
L 178.953725 233.021727 
L 179.114358 262.937437 
L 179.162404 231.319206 
L 179.504467 247.168858 
L 179.640001 282.962316 
L 179.787726 259.451324 
L 179.810674 227.670949 
L 180.409463 264.275131 
L 181.306929 268.328751 
L 181.317686 261.234917 
L 181.42346 261.84296 
L 182.027985 243.682745 
L 182.197582 271.044676 
L 182.203678 240.43985 
L 182.48873 235.129609 
L 183.356077 269.058402 
L 183.646508 253.046606 
L 183.791006 260.180976 
L 184.211951 252.479099 
L 184.319876 258.275775 
L 184.627518 245.952772 
L 184.657636 259.248643 
L 184.858786 269.139475 
L 184.882451 259.81615 
L 185.224514 255.478777 
L 185.334232 262.613147 
L 185.748006 248.344408 
L 185.863819 265.126391 
L 185.885333 263.180654 
L 186.08218 265.288536 
L 186.170743 259.654005 
L 186.409183 269.5043 
L 186.502766 246.439206 
L 186.504559 275.503657 
L 186.607465 269.058402 
L 186.687064 251.384622 
L 186.696387 284.705373 
L 187.498118 272.90934 
L 187.55477 268.409823 
L 188.658765 255.154488 
L 188.983258 254.70859 
L 189.089749 273.476847 
L 189.41496 233.102799 
L 189.555514 270.801458 
L 189.678499 265.085855 
L 190.381986 267.234273 
L 190.466605 241.128965 
L 190.734088 246.885105 
L 190.851336 230.873308 
L 191.896886 261.113308 
L 192.287353 267.112665 
L 192.390259 237.115882 
L 192.692522 274.08489 
L 192.881481 266.018188 
L 193.043907 272.098617 
L 193.322863 272.544515 
L 193.337564 263.667088 
L 193.884362 256.451646 
L 193.950337 284.502692 
L 194.030295 271.571646 
L 194.128898 264.477812 
L 194.561675 263.950842 
L 195.102736 254.303228 
L 195.967932 229.170788 
L 196.024226 262.856365 
L 196.242945 259.572933 
L 196.557399 238.980547 
L 196.842092 263.099582 
L 197.2426 243.277383 
L 197.249771 190.783013 
L 197.925649 245.709555 
L 197.94035 262.653684 
L 198.448424 250.573898 
L 198.663199 259.127035 
L 199.27633 240.642531 
L 199.386407 256.857008 
L 200.24479 261.559206 
L 200.445223 262.126713 
L 200.538807 252.479099 
L 200.66215 227.184515 
L 201.012818 265.653362 
L 201.291057 235.129609 
L 201.462447 262.856365 
L 202.063746 269.017866 
L 202.369236 257.424515 
L 202.662176 269.869126 
L 203.047983 273.395775 
L 203.451717 268.166606 
L 203.506217 254.424836 
L 203.68191 251.181941 
L 203.72171 263.383335 
L 203.812066 250.97926 
L 204.103213 269.706981 
L 204.198948 259.532397 
L 204.646785 251.100869 
L 204.670808 273.638992 
L 204.918929 241.493791 
L 204.987772 251.587303 
L 205.427361 236.224086 
L 205.470388 251.263013 
L 205.803845 273.112021 
L 205.849023 263.869769 
L 206.930787 253.897866 
L 207.07421 264.39674 
L 207.121539 248.587625 
L 207.453921 267.80178 
L 207.474359 277.692611 
L 207.910721 264.153523 
L 208.0104 235.940332 
L 208.270712 269.058402 
L 208.690581 239.142692 
L 209.811786 283.651432 
L 210.019749 248.303871 
L 210.127316 260.829555 
L 210.22807 221.266231 
L 210.279344 264.07245 
L 210.903231 281.827303 
L 210.920442 257.829877 
L 210.921518 259.491861 
L 211.100437 261.721351 
L 211.155296 235.980869 
L 211.386206 272.017544 
L 211.686677 256.492182 
L 211.707473 275.503657 
L 212.243156 279.922102 
L 212.412036 257.829877 
L 212.694937 265.085855 
L 212.997558 276.719743 
L 213.096519 251.019796 
L 213.315597 245.263657 
L 213.724351 265.977651 
L 214.323857 236.751056 
L 214.806474 286.529501 
L 215.040611 275.017223 
L 215.046348 279.476204 
L 215.575935 257.140761 
L 215.733342 270.517705 
L 215.764536 249.236204 
L 216.539017 261.113308 
L 216.774947 255.195024 
L 217.091194 272.585051 
L 217.384493 255.884139 
L 217.692851 247.128322 
L 218.978275 227.54934 
L 219.012696 254.870735 
L 219.102335 252.560172 
L 219.222452 264.883174 
L 219.233925 277.571003 
L 219.641604 267.396418 
L 220.109161 195.363603 
L 220.136053 270.760922 
L 220.442977 259.086499 
L 220.527238 237.359099 
L 220.665999 266.585694 
L 220.939577 268.896257 
L 221.041407 277.368322 
L 221.14754 214.375078 
L 221.739516 194.633952 
L 221.885448 240.11556 
L 222.114566 262.896901 
L 222.257988 261.599743 
L 222.512563 257.627196 
L 222.820563 266.383013 
L 223.065098 237.115882 
L 223.289913 248.871378 
L 223.797628 251.83052 
L 224.009894 272.220225 
L 224.400361 269.261083 
L 224.551672 207.524461 
L 225.104207 279.51674 
L 225.50328 239.142692 
L 225.955778 253.289823 
L 226.170912 261.315989 
L 226.850734 268.247678 
L 226.865435 276.152236 
L 227.227218 279.314059 
L 227.22937 277.854756 
L 227.398608 238.980547 
L 227.581472 229.251861 
L 227.659278 265.531753 
L 227.777602 243.601673 
L 228.715226 264.842638 
L 228.795184 234.481029 
L 228.804148 265.126391 
L 229.241228 246.114917 
L 229.424451 251.789984 
L 229.621656 265.774971 
L 229.788744 263.342799 
L 230.152678 214.45615 
L 230.26885 279.922102 
L 230.306857 267.031592 
L 230.33841 246.155453 
L 230.992058 246.155453 
L 231.145162 242.101834 
L 231.224403 247.939046 
L 231.981673 243.601673 
L 233.674775 229.211324 
L 234.440293 260.951164 
L 235.224455 238.007678 
L 235.343496 262.896901 
L 235.514886 255.965212 
L 235.527077 236.507839 
L 235.544287 270.477169 
L 235.794201 279.314059 
L 235.868781 263.54548 
L 236.340282 236.507839 
L 236.386894 250.898188 
L 236.508086 245.223121 
L 236.883853 242.061298 
L 237.344956 268.409823 
L 237.508458 268.65304 
L 237.687736 277.935828 
L 238.407 259.167571 
L 238.414888 247.857973 
L 238.767707 271.085212 
L 238.873481 269.342155 
L 239.369365 251.871056 
L 239.417053 272.747196 
L 239.827241 255.357169 
L 239.960624 270.35556 
L 240.120898 259.167571 
L 240.267548 271.044676 
L 240.363999 133.991807 
L 240.385154 261.356525 
L 241.069638 260.505265 
L 241.54831 265.004783 
L 241.640459 241.534327 
L 241.68994 255.640922 
L 241.988259 242.507196 
L 242.003318 264.92371 
L 242.141721 256.005748 
L 242.315979 272.666123 
L 242.381954 259.410788 
L 242.686009 252.843925 
L 242.795369 272.463442 
L 242.887876 266.504622 
L 243.571643 270.477169 
L 244.64014 264.639957 
L 244.790375 264.680493 
L 245.03025 252.073737 
L 245.368368 264.112987 
L 245.459083 260.343121 
L 245.834491 272.503979 
L 245.932377 234.318885 
L 245.984367 262.491539 
L 246.03349 258.843282 
L 246.266193 269.301619 
L 246.327506 232.211003 
L 246.562001 268.409823 
L 246.629051 264.356204 
L 246.643394 253.127678 
L 246.853866 254.222155 
L 247.262262 268.288214 
L 247.68249 241.372182 
L 247.835952 255.924676 
L 248.301357 248.871378 
L 248.326098 262.937437 
L 248.512906 253.573576 
L 248.872537 246.39867 
L 248.882577 252.600708 
L 249.143606 248.141727 
L 249.15759 252.276418 
L 249.508258 269.950198 
L 249.829165 275.503657 
L 249.908406 228.076311 
L 250.035694 261.883496 
L 250.390306 237.359099 
L 250.849258 263.586016 
L 251.070487 230.305802 
L 251.306417 253.816794 
L 251.538403 254.3843 
L 251.690789 246.763496 
L 251.961499 268.288214 
L 252.117112 249.398349 
L 252.444833 247.776901 
L 253.351621 188.229233 
L 253.887663 271.814863 
L 253.989134 255.276097 
L 254.077339 266.301941 
L 254.298927 259.694542 
L 254.575015 266.220869 
L 254.662503 245.912236 
L 254.809152 264.234595 
L 255.148346 258.96489 
L 255.26918 278.219582 
L 255.638493 260.424193 
L 255.95438 235.85926 
L 255.993822 165.488429 
L 256.522692 235.778188 
L 256.903479 245.993308 
L 256.987022 266.058724 
L 257.051921 264.964247 
L 257.866919 265.166928 
L 257.937913 253.53304 
L 258.366029 235.899796 
L 258.385033 194.796097 
L 258.387543 276.233308 
L 258.521643 268.085534 
L 258.526304 268.166606 
L 259.141945 259.897223 
L 259.409069 250.736043 
L 259.662568 253.695185 
L 259.783402 260.748483 
L 260.216896 242.831485 
L 260.853334 143.801566 
L 261.393678 259.086499 
L 261.940476 262.288858 
L 261.952667 260.626874 
L 262.265328 262.734756 
L 262.292219 251.83052 
L 262.401579 255.519314 
L 262.61241 271.368965 
L 262.92543 258.96489 
L 263.052 225.84682 
L 263.229485 260.66741 
L 263.404819 254.911271 
L 263.911818 266.707303 
L 264.455389 242.628804 
L 264.727892 268.65304 
L 264.739365 263.018509 
L 264.815021 264.275131 
L 265.322736 262.491539 
L 267.379414 253.087142 
L 268.119833 271.287893 
L 268.135609 252.033201 
L 268.361141 236.669984 
L 269.062119 257.26237 
L 269.450076 258.924354 
L 269.818314 247.006713 
L 270.189061 259.81615 
L 270.378737 273.23363 
L 270.719724 266.747839 
L 271.057125 265.329072 
L 272.29773 251.060332 
L 272.485254 273.922745 
L 274.170468 260.545802 
L 274.597509 275.017223 
L 274.804396 256.694863 
L 275.196656 257.829877 
L 275.751343 230.7517 
L 276.490685 227.792558 
L 276.587496 255.113952 
L 276.988003 269.747517 
L 278.285976 247.168858 
L 278.535531 254.262692 
L 279.682911 272.747196 
L 279.903065 268.693576 
L 281.064787 261.599743 
L 281.458481 265.815507 
L 281.535571 232.575828 
L 282.209298 231.521887 
L 282.502597 269.180011 
L 282.606578 262.451003 
L 282.653908 245.790627 
L 283.667187 246.925641 
L 283.794833 264.477812 
L 283.987737 180.932718 
L 285.875535 253.816794 
L 286.75579 252.398027 
L 286.761169 251.30355 
L 287.427724 267.842316 
L 287.585131 257.343442 
L 287.927193 244.331324 
L 288.187505 263.383335 
L 289.153455 250.006391 
L 289.43779 281.259796 
L 289.472212 259.654005 
L 290.763373 267.234273 
L 290.97994 251.181941 
L 291.623549 245.182584 
L 292.199031 255.519314 
L 293.450751 259.410788 
L 293.506327 257.302906 
L 294.4816 274.247035 
L 294.901828 267.234273 
L 295.147797 243.723282 
L 296.885002 249.722638 
L 297.117705 271.328429 
L 297.323516 262.815828 
L 297.932703 249.844247 
L 298.299506 264.315668 
L 298.340382 247.695828 
L 299.166137 257.465051 
L 299.542979 237.764461 
L 299.871775 264.599421 
L 300.40208 75.295399 
L 301.285562 230.913845 
L 302.23466 264.031914 
L 303.896568 256.492182 
L 303.899795 265.126391 
L 304.074771 295.488 
L 304.117439 257.302906 
L 305.680744 266.058724 
L 305.996273 246.925641 
L 306.415067 277.246713 
L 306.728445 249.925319 
L 307.058675 273.720064 
L 308.070879 254.870735 
L 308.685803 254.505909 
L 308.904522 268.97733 
L 309.204634 238.41304 
L 310.069113 248.871378 
L 311.004586 256.08682 
L 311.40581 260.505265 
L 313.541729 265.856043 
L 313.603759 255.23556 
L 314.523815 267.153201 
L 315.258496 250.087464 
L 315.357816 266.261405 
L 316.593401 250.249609 
L 317.609549 260.14044 
L 317.973842 267.355882 
L 319.273608 258.721673 
L 319.878493 265.329072 
L 320.292266 256.492182 
L 320.459354 265.531753 
L 320.54971 255.600386 
L 322.473722 244.088107 
L 327.056429 248.060654 
L 327.658444 261.194381 
L 327.936325 282.881244 
L 328.148591 212.550949 
L 330.792943 241.899153 
L 332.20673 248.709233 
L 335.107808 87.618402 
L 337.777617 249.763174 
L 340.530253 261.924032 
L 343.625668 238.615721 
L 344.333816 250.695507 
L 354.93453 245.993308 
L 360.251201 282.07052 
L 361.734906 251.546767 
L 364.374238 250.938724 
L 366.932895 266.991056 
L 368.388633 263.099582 
L 370.207589 226.292718 
L 374.594165 269.220547 
L 379.379097 252.033201 
L 398.487273 248.790306 
L 398.487273 248.790306 
" style="fill:none;stroke:#0000ff;stroke-linecap:square;stroke-width:1.5;"/>
   </g>
   <g id="patch_3">
    <path d="M 57.6 307.584 
L 57.6 41.472 
" style="fill:none;stroke:#000000;stroke-linecap:square;stroke-linejoin:miter;stroke-width:0.8;"/>
   </g>
   <g id="patch_4">
    <path d="M 414.72 307.584 
L 414.72 41.472 
" style="fill:none;stroke:#000000;stroke-linecap:square;stroke-linejoin:miter;stroke-width:0.8;"/>
   </g>
   <g id="patch_5">
    <path d="M 57.6 307.584 
L 414.72 307.584 
" style="fill:none;stroke:#000000;stroke-linecap:square;stroke-linejoin:miter;stroke-width:0.8;"/>
   </g>
   <g id="patch_6">
    <path d="M 57.6 41.472 
L 414.72 41.472 
" style="fill:none;stroke:#000000;stroke-linecap:square;stroke-linejoin:miter;stroke-width:0.8;"/>
   </g>
   <g id="text_15">
    <!-- wind_speed-&gt;ping -->
    <g transform="translate(180.567187 35.472)scale(0.12 -0.12)">
     <defs>
      <path d="M 4.890625 31.390625 
L 31.203125 31.390625 
L 31.203125 23.390625 
L 4.890625 23.390625 
z
" id="DejaVuSans-45"/>
      <path d="M 10.59375 49.21875 
L 10.59375 58.109375 
L 73.1875 35.40625 
L 73.1875 27.296875 
L 10.59375 4.59375 
L 10.59375 13.484375 
L 60.890625 31.296875 
z
" id="DejaVuSans-62"/>
     </defs>
     <use xlink:href="#DejaVuSans-119"/>
     <use x="81.787109" xlink:href="#DejaVuSans-105"/>
     <use x="109.570312" xlink:href="#DejaVuSans-110"/>
     <use x="172.949219" xlink:href="#DejaVuSans-100"/>
     <use x="236.425781" xlink:href="#DejaVuSans-95"/>
     <use x="286.425781" xlink:href="#DejaVuSans-115"/>
     <use x="338.525391" xlink:href="#DejaVuSans-112"/>
     <use x="402.001953" xlink:href="#DejaVuSans-101"/>
     <use x="463.525391" xlink:href="#DejaVuSans-101"/>
     <use x="525.048828" xlink:href="#DejaVuSans-100"/>
     <use x="588.525391" xlink:href="#DejaVuSans-45"/>
     <use x="624.609375" xlink:href="#DejaVuSans-62"/>
     <use x="708.398438" xlink:href="#DejaVuSans-112"/>
     <use x="771.875" xlink:href="#DejaVuSans-105"/>
     <use x="799.658203" xlink:href="#DejaVuSans-110"/>
     <use x="863.037109" xlink:href="#DejaVuSans-103"/>
    </g>
   </g>
  </g>
  <g id="legend_1">
   <g id="patch_7">
    <path d="M 377.234375 22.678125 
L 453.8 22.678125 
Q 455.8 22.678125 455.8 20.678125 
L 455.8 7 
Q 455.8 5 453.8 5 
L 377.234375 5 
Q 375.234375 5 375.234375 7 
L 375.234375 20.678125 
Q 375.234375 22.678125 377.234375 22.678125 
z
" style="fill:#ffffff;opacity:0.8;stroke:#cccccc;stroke-linejoin:miter;"/>
   </g>
   <g id="line2d_14">
    <path d="M 379.234375 13.098438 
L 399.234375 13.098438 
" style="fill:none;stroke:#0000ff;stroke-linecap:square;stroke-width:1.5;"/>
   </g>
   <g id="line2d_15"/>
   <g id="text_16">
    <!-- ping[ms] -->
    <g transform="translate(407.234375 16.598438)scale(0.1 -0.1)">
     <use xlink:href="#DejaVuSans-112"/>
     <use x="63.476562" xlink:href="#DejaVuSans-105"/>
     <use x="91.259766" xlink:href="#DejaVuSans-110"/>
     <use x="154.638672" xlink:href="#DejaVuSans-103"/>
     <use x="218.115234" xlink:href="#DejaVuSans-91"/>
     <use x="257.128906" xlink:href="#DejaVuSans-109"/>
     <use x="354.541016" xlink:href="#DejaVuSans-115"/>
     <use x="406.640625" xlink:href="#DejaVuSans-93"/>
    </g>
   </g>
  </g>
 </g>
 <defs>
  <clipPath id="p236e756aee">
   <rect height="266.112" width="357.12" x="57.6" y="41.472"/>
  </clipPath>
 </defs>
</svg>
