<?xml version="1.0" encoding="utf-8" standalone="no"?>
<!DOCTYPE svg PUBLIC "-//W3C//DTD SVG 1.1//EN"
  "http://www.w3.org/Graphics/SVG/1.1/DTD/svg11.dtd">
<!-- Created with matplotlib (https://matplotlib.org/) -->
<svg height="345.6pt" version="1.1" viewBox="0 0 460.8 345.6" width="460.8pt" xmlns="http://www.w3.org/2000/svg" xmlns:xlink="http://www.w3.org/1999/xlink">
 <metadata>
  <rdf:RDF xmlns:cc="http://creativecommons.org/ns#" xmlns:dc="http://purl.org/dc/elements/1.1/" xmlns:rdf="http://www.w3.org/1999/02/22-rdf-syntax-ns#">
   <cc:Work>
    <dc:type rdf:resource="http://purl.org/dc/dcmitype/StillImage"/>
    <dc:date>2022-07-16T17:56:29.823849</dc:date>
    <dc:format>image/svg+xml</dc:format>
    <dc:creator>
     <cc:Agent>
      <dc:title>Matplotlib v3.3.2, https://matplotlib.org/</dc:title>
     </cc:Agent>
    </dc:creator>
   </cc:Work>
  </rdf:RDF>
 </metadata>
 <defs>
  <style type="text/css">*{stroke-linecap:butt;stroke-linejoin:round;}</style>
 </defs>
 <g id="figure_1">
  <g id="patch_1">
   <path d="M 0 345.6 
L 460.8 345.6 
L 460.8 0 
L 0 0 
z
" style="fill:#ffffff;"/>
  </g>
  <g id="axes_1">
   <g id="patch_2">
    <path d="M 57.6 307.584 
L 414.72 307.584 
L 414.72 41.472 
L 57.6 41.472 
z
" style="fill:#ffffff;"/>
   </g>
   <g id="matplotlib.axis_1">
    <g id="xtick_1">
     <g id="line2d_1">
      <defs>
       <path d="M 0 0 
L 0 3.5 
" id="m82b9098e63" style="stroke:#000000;stroke-width:0.8;"/>
      </defs>
      <g>
       <use style="stroke:#000000;stroke-width:0.8;" x="72.031759" xlink:href="#m82b9098e63" y="307.584"/>
      </g>
     </g>
     <g id="text_1">
      <!-- 5 -->
      <g transform="translate(68.850509 322.182437)scale(0.1 -0.1)">
       <defs>
        <path d="M 10.796875 72.90625 
L 49.515625 72.90625 
L 49.515625 64.59375 
L 19.828125 64.59375 
L 19.828125 46.734375 
Q 21.96875 47.46875 24.109375 47.828125 
Q 26.265625 48.1875 28.421875 48.1875 
Q 40.625 48.1875 47.75 41.5 
Q 54.890625 34.8125 54.890625 23.390625 
Q 54.890625 11.625 47.5625 5.09375 
Q 40.234375 -1.421875 26.90625 -1.421875 
Q 22.3125 -1.421875 17.546875 -0.640625 
Q 12.796875 0.140625 7.71875 1.703125 
L 7.71875 11.625 
Q 12.109375 9.234375 16.796875 8.0625 
Q 21.484375 6.890625 26.703125 6.890625 
Q 35.15625 6.890625 40.078125 11.328125 
Q 45.015625 15.765625 45.015625 23.390625 
Q 45.015625 31 40.078125 35.4375 
Q 35.15625 39.890625 26.703125 39.890625 
Q 22.75 39.890625 18.8125 39.015625 
Q 14.890625 38.140625 10.796875 36.28125 
z
" id="DejaVuSans-53"/>
       </defs>
       <use xlink:href="#DejaVuSans-53"/>
      </g>
     </g>
    </g>
    <g id="xtick_2">
     <g id="line2d_2">
      <g>
       <use style="stroke:#000000;stroke-width:0.8;" x="132.064034" xlink:href="#m82b9098e63" y="307.584"/>
      </g>
     </g>
     <g id="text_2">
      <!-- 10 -->
      <g transform="translate(125.701534 322.182437)scale(0.1 -0.1)">
       <defs>
        <path d="M 12.40625 8.296875 
L 28.515625 8.296875 
L 28.515625 63.921875 
L 10.984375 60.40625 
L 10.984375 69.390625 
L 28.421875 72.90625 
L 38.28125 72.90625 
L 38.28125 8.296875 
L 54.390625 8.296875 
L 54.390625 0 
L 12.40625 0 
z
" id="DejaVuSans-49"/>
        <path d="M 31.78125 66.40625 
Q 24.171875 66.40625 20.328125 58.90625 
Q 16.5 51.421875 16.5 36.375 
Q 16.5 21.390625 20.328125 13.890625 
Q 24.171875 6.390625 31.78125 6.390625 
Q 39.453125 6.390625 43.28125 13.890625 
Q 47.125 21.390625 47.125 36.375 
Q 47.125 51.421875 43.28125 58.90625 
Q 39.453125 66.40625 31.78125 66.40625 
z
M 31.78125 74.21875 
Q 44.046875 74.21875 50.515625 64.515625 
Q 56.984375 54.828125 56.984375 36.375 
Q 56.984375 17.96875 50.515625 8.265625 
Q 44.046875 -1.421875 31.78125 -1.421875 
Q 19.53125 -1.421875 13.0625 8.265625 
Q 6.59375 17.96875 6.59375 36.375 
Q 6.59375 54.828125 13.0625 64.515625 
Q 19.53125 74.21875 31.78125 74.21875 
z
" id="DejaVuSans-48"/>
       </defs>
       <use xlink:href="#DejaVuSans-49"/>
       <use x="63.623047" xlink:href="#DejaVuSans-48"/>
      </g>
     </g>
    </g>
    <g id="xtick_3">
     <g id="line2d_3">
      <g>
       <use style="stroke:#000000;stroke-width:0.8;" x="192.09631" xlink:href="#m82b9098e63" y="307.584"/>
      </g>
     </g>
     <g id="text_3">
      <!-- 15 -->
      <g transform="translate(185.73381 322.182437)scale(0.1 -0.1)">
       <use xlink:href="#DejaVuSans-49"/>
       <use x="63.623047" xlink:href="#DejaVuSans-53"/>
      </g>
     </g>
    </g>
    <g id="xtick_4">
     <g id="line2d_4">
      <g>
       <use style="stroke:#000000;stroke-width:0.8;" x="252.128585" xlink:href="#m82b9098e63" y="307.584"/>
      </g>
     </g>
     <g id="text_4">
      <!-- 20 -->
      <g transform="translate(245.766085 322.182437)scale(0.1 -0.1)">
       <defs>
        <path d="M 19.1875 8.296875 
L 53.609375 8.296875 
L 53.609375 0 
L 7.328125 0 
L 7.328125 8.296875 
Q 12.9375 14.109375 22.625 23.890625 
Q 32.328125 33.6875 34.8125 36.53125 
Q 39.546875 41.84375 41.421875 45.53125 
Q 43.3125 49.21875 43.3125 52.78125 
Q 43.3125 58.59375 39.234375 62.25 
Q 35.15625 65.921875 28.609375 65.921875 
Q 23.96875 65.921875 18.8125 64.3125 
Q 13.671875 62.703125 7.8125 59.421875 
L 7.8125 69.390625 
Q 13.765625 71.78125 18.9375 73 
Q 24.125 74.21875 28.421875 74.21875 
Q 39.75 74.21875 46.484375 68.546875 
Q 53.21875 62.890625 53.21875 53.421875 
Q 53.21875 48.921875 51.53125 44.890625 
Q 49.859375 40.875 45.40625 35.40625 
Q 44.1875 33.984375 37.640625 27.21875 
Q 31.109375 20.453125 19.1875 8.296875 
z
" id="DejaVuSans-50"/>
       </defs>
       <use xlink:href="#DejaVuSans-50"/>
       <use x="63.623047" xlink:href="#DejaVuSans-48"/>
      </g>
     </g>
    </g>
    <g id="xtick_5">
     <g id="line2d_5">
      <g>
       <use style="stroke:#000000;stroke-width:0.8;" x="312.160861" xlink:href="#m82b9098e63" y="307.584"/>
      </g>
     </g>
     <g id="text_5">
      <!-- 25 -->
      <g transform="translate(305.798361 322.182437)scale(0.1 -0.1)">
       <use xlink:href="#DejaVuSans-50"/>
       <use x="63.623047" xlink:href="#DejaVuSans-53"/>
      </g>
     </g>
    </g>
    <g id="xtick_6">
     <g id="line2d_6">
      <g>
       <use style="stroke:#000000;stroke-width:0.8;" x="372.193136" xlink:href="#m82b9098e63" y="307.584"/>
      </g>
     </g>
     <g id="text_6">
      <!-- 30 -->
      <g transform="translate(365.830636 322.182437)scale(0.1 -0.1)">
       <defs>
        <path d="M 40.578125 39.3125 
Q 47.65625 37.796875 51.625 33 
Q 55.609375 28.21875 55.609375 21.1875 
Q 55.609375 10.40625 48.1875 4.484375 
Q 40.765625 -1.421875 27.09375 -1.421875 
Q 22.515625 -1.421875 17.65625 -0.515625 
Q 12.796875 0.390625 7.625 2.203125 
L 7.625 11.71875 
Q 11.71875 9.328125 16.59375 8.109375 
Q 21.484375 6.890625 26.8125 6.890625 
Q 36.078125 6.890625 40.9375 10.546875 
Q 45.796875 14.203125 45.796875 21.1875 
Q 45.796875 27.640625 41.28125 31.265625 
Q 36.765625 34.90625 28.71875 34.90625 
L 20.21875 34.90625 
L 20.21875 43.015625 
L 29.109375 43.015625 
Q 36.375 43.015625 40.234375 45.921875 
Q 44.09375 48.828125 44.09375 54.296875 
Q 44.09375 59.90625 40.109375 62.90625 
Q 36.140625 65.921875 28.71875 65.921875 
Q 24.65625 65.921875 20.015625 65.03125 
Q 15.375 64.15625 9.8125 62.3125 
L 9.8125 71.09375 
Q 15.4375 72.65625 20.34375 73.4375 
Q 25.25 74.21875 29.59375 74.21875 
Q 40.828125 74.21875 47.359375 69.109375 
Q 53.90625 64.015625 53.90625 55.328125 
Q 53.90625 49.265625 50.4375 45.09375 
Q 46.96875 40.921875 40.578125 39.3125 
z
" id="DejaVuSans-51"/>
       </defs>
       <use xlink:href="#DejaVuSans-51"/>
       <use x="63.623047" xlink:href="#DejaVuSans-48"/>
      </g>
     </g>
    </g>
    <g id="text_7">
     <!-- temperature from Aeris -->
     <g transform="translate(177.464687 335.860562)scale(0.1 -0.1)">
      <defs>
       <path d="M 18.3125 70.21875 
L 18.3125 54.6875 
L 36.8125 54.6875 
L 36.8125 47.703125 
L 18.3125 47.703125 
L 18.3125 18.015625 
Q 18.3125 11.328125 20.140625 9.421875 
Q 21.96875 7.515625 27.59375 7.515625 
L 36.8125 7.515625 
L 36.8125 0 
L 27.59375 0 
Q 17.1875 0 13.234375 3.875 
Q 9.28125 7.765625 9.28125 18.015625 
L 9.28125 47.703125 
L 2.6875 47.703125 
L 2.6875 54.6875 
L 9.28125 54.6875 
L 9.28125 70.21875 
z
" id="DejaVuSans-116"/>
       <path d="M 56.203125 29.59375 
L 56.203125 25.203125 
L 14.890625 25.203125 
Q 15.484375 15.921875 20.484375 11.0625 
Q 25.484375 6.203125 34.421875 6.203125 
Q 39.59375 6.203125 44.453125 7.46875 
Q 49.3125 8.734375 54.109375 11.28125 
L 54.109375 2.78125 
Q 49.265625 0.734375 44.1875 -0.34375 
Q 39.109375 -1.421875 33.890625 -1.421875 
Q 20.796875 -1.421875 13.15625 6.1875 
Q 5.515625 13.8125 5.515625 26.8125 
Q 5.515625 40.234375 12.765625 48.109375 
Q 20.015625 56 32.328125 56 
Q 43.359375 56 49.78125 48.890625 
Q 56.203125 41.796875 56.203125 29.59375 
z
M 47.21875 32.234375 
Q 47.125 39.59375 43.09375 43.984375 
Q 39.0625 48.390625 32.421875 48.390625 
Q 24.90625 48.390625 20.390625 44.140625 
Q 15.875 39.890625 15.1875 32.171875 
z
" id="DejaVuSans-101"/>
       <path d="M 52 44.1875 
Q 55.375 50.25 60.0625 53.125 
Q 64.75 56 71.09375 56 
Q 79.640625 56 84.28125 50.015625 
Q 88.921875 44.046875 88.921875 33.015625 
L 88.921875 0 
L 79.890625 0 
L 79.890625 32.71875 
Q 79.890625 40.578125 77.09375 44.375 
Q 74.3125 48.1875 68.609375 48.1875 
Q 61.625 48.1875 57.5625 43.546875 
Q 53.515625 38.921875 53.515625 30.90625 
L 53.515625 0 
L 44.484375 0 
L 44.484375 32.71875 
Q 44.484375 40.625 41.703125 44.40625 
Q 38.921875 48.1875 33.109375 48.1875 
Q 26.21875 48.1875 22.15625 43.53125 
Q 18.109375 38.875 18.109375 30.90625 
L 18.109375 0 
L 9.078125 0 
L 9.078125 54.6875 
L 18.109375 54.6875 
L 18.109375 46.1875 
Q 21.1875 51.21875 25.484375 53.609375 
Q 29.78125 56 35.6875 56 
Q 41.65625 56 45.828125 52.96875 
Q 50 49.953125 52 44.1875 
z
" id="DejaVuSans-109"/>
       <path d="M 18.109375 8.203125 
L 18.109375 -20.796875 
L 9.078125 -20.796875 
L 9.078125 54.6875 
L 18.109375 54.6875 
L 18.109375 46.390625 
Q 20.953125 51.265625 25.265625 53.625 
Q 29.59375 56 35.59375 56 
Q 45.5625 56 51.78125 48.09375 
Q 58.015625 40.1875 58.015625 27.296875 
Q 58.015625 14.40625 51.78125 6.484375 
Q 45.5625 -1.421875 35.59375 -1.421875 
Q 29.59375 -1.421875 25.265625 0.953125 
Q 20.953125 3.328125 18.109375 8.203125 
z
M 48.6875 27.296875 
Q 48.6875 37.203125 44.609375 42.84375 
Q 40.53125 48.484375 33.40625 48.484375 
Q 26.265625 48.484375 22.1875 42.84375 
Q 18.109375 37.203125 18.109375 27.296875 
Q 18.109375 17.390625 22.1875 11.75 
Q 26.265625 6.109375 33.40625 6.109375 
Q 40.53125 6.109375 44.609375 11.75 
Q 48.6875 17.390625 48.6875 27.296875 
z
" id="DejaVuSans-112"/>
       <path d="M 41.109375 46.296875 
Q 39.59375 47.171875 37.8125 47.578125 
Q 36.03125 48 33.890625 48 
Q 26.265625 48 22.1875 43.046875 
Q 18.109375 38.09375 18.109375 28.8125 
L 18.109375 0 
L 9.078125 0 
L 9.078125 54.6875 
L 18.109375 54.6875 
L 18.109375 46.1875 
Q 20.953125 51.171875 25.484375 53.578125 
Q 30.03125 56 36.53125 56 
Q 37.453125 56 38.578125 55.875 
Q 39.703125 55.765625 41.0625 55.515625 
z
" id="DejaVuSans-114"/>
       <path d="M 34.28125 27.484375 
Q 23.390625 27.484375 19.1875 25 
Q 14.984375 22.515625 14.984375 16.5 
Q 14.984375 11.71875 18.140625 8.90625 
Q 21.296875 6.109375 26.703125 6.109375 
Q 34.1875 6.109375 38.703125 11.40625 
Q 43.21875 16.703125 43.21875 25.484375 
L 43.21875 27.484375 
z
M 52.203125 31.203125 
L 52.203125 0 
L 43.21875 0 
L 43.21875 8.296875 
Q 40.140625 3.328125 35.546875 0.953125 
Q 30.953125 -1.421875 24.3125 -1.421875 
Q 15.921875 -1.421875 10.953125 3.296875 
Q 6 8.015625 6 15.921875 
Q 6 25.140625 12.171875 29.828125 
Q 18.359375 34.515625 30.609375 34.515625 
L 43.21875 34.515625 
L 43.21875 35.40625 
Q 43.21875 41.609375 39.140625 45 
Q 35.0625 48.390625 27.6875 48.390625 
Q 23 48.390625 18.546875 47.265625 
Q 14.109375 46.140625 10.015625 43.890625 
L 10.015625 52.203125 
Q 14.9375 54.109375 19.578125 55.046875 
Q 24.21875 56 28.609375 56 
Q 40.484375 56 46.34375 49.84375 
Q 52.203125 43.703125 52.203125 31.203125 
z
" id="DejaVuSans-97"/>
       <path d="M 8.5 21.578125 
L 8.5 54.6875 
L 17.484375 54.6875 
L 17.484375 21.921875 
Q 17.484375 14.15625 20.5 10.265625 
Q 23.53125 6.390625 29.59375 6.390625 
Q 36.859375 6.390625 41.078125 11.03125 
Q 45.3125 15.671875 45.3125 23.6875 
L 45.3125 54.6875 
L 54.296875 54.6875 
L 54.296875 0 
L 45.3125 0 
L 45.3125 8.40625 
Q 42.046875 3.421875 37.71875 1 
Q 33.40625 -1.421875 27.6875 -1.421875 
Q 18.265625 -1.421875 13.375 4.4375 
Q 8.5 10.296875 8.5 21.578125 
z
M 31.109375 56 
z
" id="DejaVuSans-117"/>
       <path id="DejaVuSans-32"/>
       <path d="M 37.109375 75.984375 
L 37.109375 68.5 
L 28.515625 68.5 
Q 23.6875 68.5 21.796875 66.546875 
Q 19.921875 64.59375 19.921875 59.515625 
L 19.921875 54.6875 
L 34.71875 54.6875 
L 34.71875 47.703125 
L 19.921875 47.703125 
L 19.921875 0 
L 10.890625 0 
L 10.890625 47.703125 
L 2.296875 47.703125 
L 2.296875 54.6875 
L 10.890625 54.6875 
L 10.890625 58.5 
Q 10.890625 67.625 15.140625 71.796875 
Q 19.390625 75.984375 28.609375 75.984375 
z
" id="DejaVuSans-102"/>
       <path d="M 30.609375 48.390625 
Q 23.390625 48.390625 19.1875 42.75 
Q 14.984375 37.109375 14.984375 27.296875 
Q 14.984375 17.484375 19.15625 11.84375 
Q 23.34375 6.203125 30.609375 6.203125 
Q 37.796875 6.203125 41.984375 11.859375 
Q 46.1875 17.53125 46.1875 27.296875 
Q 46.1875 37.015625 41.984375 42.703125 
Q 37.796875 48.390625 30.609375 48.390625 
z
M 30.609375 56 
Q 42.328125 56 49.015625 48.375 
Q 55.71875 40.765625 55.71875 27.296875 
Q 55.71875 13.875 49.015625 6.21875 
Q 42.328125 -1.421875 30.609375 -1.421875 
Q 18.84375 -1.421875 12.171875 6.21875 
Q 5.515625 13.875 5.515625 27.296875 
Q 5.515625 40.765625 12.171875 48.375 
Q 18.84375 56 30.609375 56 
z
" id="DejaVuSans-111"/>
       <path d="M 34.1875 63.1875 
L 20.796875 26.90625 
L 47.609375 26.90625 
z
M 28.609375 72.90625 
L 39.796875 72.90625 
L 67.578125 0 
L 57.328125 0 
L 50.6875 18.703125 
L 17.828125 18.703125 
L 11.1875 0 
L 0.78125 0 
z
" id="DejaVuSans-65"/>
       <path d="M 9.421875 54.6875 
L 18.40625 54.6875 
L 18.40625 0 
L 9.421875 0 
z
M 9.421875 75.984375 
L 18.40625 75.984375 
L 18.40625 64.59375 
L 9.421875 64.59375 
z
" id="DejaVuSans-105"/>
       <path d="M 44.28125 53.078125 
L 44.28125 44.578125 
Q 40.484375 46.53125 36.375 47.5 
Q 32.28125 48.484375 27.875 48.484375 
Q 21.1875 48.484375 17.84375 46.4375 
Q 14.5 44.390625 14.5 40.28125 
Q 14.5 37.15625 16.890625 35.375 
Q 19.28125 33.59375 26.515625 31.984375 
L 29.59375 31.296875 
Q 39.15625 29.25 43.1875 25.515625 
Q 47.21875 21.78125 47.21875 15.09375 
Q 47.21875 7.46875 41.1875 3.015625 
Q 35.15625 -1.421875 24.609375 -1.421875 
Q 20.21875 -1.421875 15.453125 -0.5625 
Q 10.6875 0.296875 5.421875 2 
L 5.421875 11.28125 
Q 10.40625 8.6875 15.234375 7.390625 
Q 20.0625 6.109375 24.8125 6.109375 
Q 31.15625 6.109375 34.5625 8.28125 
Q 37.984375 10.453125 37.984375 14.40625 
Q 37.984375 18.0625 35.515625 20.015625 
Q 33.0625 21.96875 24.703125 23.78125 
L 21.578125 24.515625 
Q 13.234375 26.265625 9.515625 29.90625 
Q 5.8125 33.546875 5.8125 39.890625 
Q 5.8125 47.609375 11.28125 51.796875 
Q 16.75 56 26.8125 56 
Q 31.78125 56 36.171875 55.265625 
Q 40.578125 54.546875 44.28125 53.078125 
z
" id="DejaVuSans-115"/>
      </defs>
      <use xlink:href="#DejaVuSans-116"/>
      <use x="39.208984" xlink:href="#DejaVuSans-101"/>
      <use x="100.732422" xlink:href="#DejaVuSans-109"/>
      <use x="198.144531" xlink:href="#DejaVuSans-112"/>
      <use x="261.621094" xlink:href="#DejaVuSans-101"/>
      <use x="323.144531" xlink:href="#DejaVuSans-114"/>
      <use x="364.257812" xlink:href="#DejaVuSans-97"/>
      <use x="425.537109" xlink:href="#DejaVuSans-116"/>
      <use x="464.746094" xlink:href="#DejaVuSans-117"/>
      <use x="528.125" xlink:href="#DejaVuSans-114"/>
      <use x="566.988281" xlink:href="#DejaVuSans-101"/>
      <use x="628.511719" xlink:href="#DejaVuSans-32"/>
      <use x="660.298828" xlink:href="#DejaVuSans-102"/>
      <use x="695.503906" xlink:href="#DejaVuSans-114"/>
      <use x="734.367188" xlink:href="#DejaVuSans-111"/>
      <use x="795.548828" xlink:href="#DejaVuSans-109"/>
      <use x="892.960938" xlink:href="#DejaVuSans-32"/>
      <use x="924.748047" xlink:href="#DejaVuSans-65"/>
      <use x="991.40625" xlink:href="#DejaVuSans-101"/>
      <use x="1052.929688" xlink:href="#DejaVuSans-114"/>
      <use x="1094.042969" xlink:href="#DejaVuSans-105"/>
      <use x="1121.826172" xlink:href="#DejaVuSans-115"/>
     </g>
    </g>
   </g>
   <g id="matplotlib.axis_2">
    <g id="ytick_1">
     <g id="line2d_7">
      <defs>
       <path d="M 0 0 
L -3.5 0 
" id="ma41bebbde3" style="stroke:#000000;stroke-width:0.8;"/>
      </defs>
      <g>
       <use style="stroke:#000000;stroke-width:0.8;" x="57.6" xlink:href="#ma41bebbde3" y="307.286295"/>
      </g>
     </g>
     <g id="text_8">
      <!-- 4 -->
      <g transform="translate(44.2375 311.085513)scale(0.1 -0.1)">
       <defs>
        <path d="M 37.796875 64.3125 
L 12.890625 25.390625 
L 37.796875 25.390625 
z
M 35.203125 72.90625 
L 47.609375 72.90625 
L 47.609375 25.390625 
L 58.015625 25.390625 
L 58.015625 17.1875 
L 47.609375 17.1875 
L 47.609375 0 
L 37.796875 0 
L 37.796875 17.1875 
L 4.890625 17.1875 
L 4.890625 26.703125 
z
" id="DejaVuSans-52"/>
       </defs>
       <use xlink:href="#DejaVuSans-52"/>
      </g>
     </g>
    </g>
    <g id="ytick_2">
     <g id="line2d_8">
      <g>
       <use style="stroke:#000000;stroke-width:0.8;" x="57.6" xlink:href="#ma41bebbde3" y="270.645628"/>
      </g>
     </g>
     <g id="text_9">
      <!-- 6 -->
      <g transform="translate(44.2375 274.444847)scale(0.1 -0.1)">
       <defs>
        <path d="M 33.015625 40.375 
Q 26.375 40.375 22.484375 35.828125 
Q 18.609375 31.296875 18.609375 23.390625 
Q 18.609375 15.53125 22.484375 10.953125 
Q 26.375 6.390625 33.015625 6.390625 
Q 39.65625 6.390625 43.53125 10.953125 
Q 47.40625 15.53125 47.40625 23.390625 
Q 47.40625 31.296875 43.53125 35.828125 
Q 39.65625 40.375 33.015625 40.375 
z
M 52.59375 71.296875 
L 52.59375 62.3125 
Q 48.875 64.0625 45.09375 64.984375 
Q 41.3125 65.921875 37.59375 65.921875 
Q 27.828125 65.921875 22.671875 59.328125 
Q 17.53125 52.734375 16.796875 39.40625 
Q 19.671875 43.65625 24.015625 45.921875 
Q 28.375 48.1875 33.59375 48.1875 
Q 44.578125 48.1875 50.953125 41.515625 
Q 57.328125 34.859375 57.328125 23.390625 
Q 57.328125 12.15625 50.6875 5.359375 
Q 44.046875 -1.421875 33.015625 -1.421875 
Q 20.359375 -1.421875 13.671875 8.265625 
Q 6.984375 17.96875 6.984375 36.375 
Q 6.984375 53.65625 15.1875 63.9375 
Q 23.390625 74.21875 37.203125 74.21875 
Q 40.921875 74.21875 44.703125 73.484375 
Q 48.484375 72.75 52.59375 71.296875 
z
" id="DejaVuSans-54"/>
       </defs>
       <use xlink:href="#DejaVuSans-54"/>
      </g>
     </g>
    </g>
    <g id="ytick_3">
     <g id="line2d_9">
      <g>
       <use style="stroke:#000000;stroke-width:0.8;" x="57.6" xlink:href="#ma41bebbde3" y="234.004962"/>
      </g>
     </g>
     <g id="text_10">
      <!-- 8 -->
      <g transform="translate(44.2375 237.804181)scale(0.1 -0.1)">
       <defs>
        <path d="M 31.78125 34.625 
Q 24.75 34.625 20.71875 30.859375 
Q 16.703125 27.09375 16.703125 20.515625 
Q 16.703125 13.921875 20.71875 10.15625 
Q 24.75 6.390625 31.78125 6.390625 
Q 38.8125 6.390625 42.859375 10.171875 
Q 46.921875 13.96875 46.921875 20.515625 
Q 46.921875 27.09375 42.890625 30.859375 
Q 38.875 34.625 31.78125 34.625 
z
M 21.921875 38.8125 
Q 15.578125 40.375 12.03125 44.71875 
Q 8.5 49.078125 8.5 55.328125 
Q 8.5 64.0625 14.71875 69.140625 
Q 20.953125 74.21875 31.78125 74.21875 
Q 42.671875 74.21875 48.875 69.140625 
Q 55.078125 64.0625 55.078125 55.328125 
Q 55.078125 49.078125 51.53125 44.71875 
Q 48 40.375 41.703125 38.8125 
Q 48.828125 37.15625 52.796875 32.3125 
Q 56.78125 27.484375 56.78125 20.515625 
Q 56.78125 9.90625 50.3125 4.234375 
Q 43.84375 -1.421875 31.78125 -1.421875 
Q 19.734375 -1.421875 13.25 4.234375 
Q 6.78125 9.90625 6.78125 20.515625 
Q 6.78125 27.484375 10.78125 32.3125 
Q 14.796875 37.15625 21.921875 38.8125 
z
M 18.3125 54.390625 
Q 18.3125 48.734375 21.84375 45.5625 
Q 25.390625 42.390625 31.78125 42.390625 
Q 38.140625 42.390625 41.71875 45.5625 
Q 45.3125 48.734375 45.3125 54.390625 
Q 45.3125 60.0625 41.71875 63.234375 
Q 38.140625 66.40625 31.78125 66.40625 
Q 25.390625 66.40625 21.84375 63.234375 
Q 18.3125 60.0625 18.3125 54.390625 
z
" id="DejaVuSans-56"/>
       </defs>
       <use xlink:href="#DejaVuSans-56"/>
      </g>
     </g>
    </g>
    <g id="ytick_4">
     <g id="line2d_10">
      <g>
       <use style="stroke:#000000;stroke-width:0.8;" x="57.6" xlink:href="#ma41bebbde3" y="197.364295"/>
      </g>
     </g>
     <g id="text_11">
      <!-- 10 -->
      <g transform="translate(37.875 201.163514)scale(0.1 -0.1)">
       <use xlink:href="#DejaVuSans-49"/>
       <use x="63.623047" xlink:href="#DejaVuSans-48"/>
      </g>
     </g>
    </g>
    <g id="ytick_5">
     <g id="line2d_11">
      <g>
       <use style="stroke:#000000;stroke-width:0.8;" x="57.6" xlink:href="#ma41bebbde3" y="160.723629"/>
      </g>
     </g>
     <g id="text_12">
      <!-- 12 -->
      <g transform="translate(37.875 164.522848)scale(0.1 -0.1)">
       <use xlink:href="#DejaVuSans-49"/>
       <use x="63.623047" xlink:href="#DejaVuSans-50"/>
      </g>
     </g>
    </g>
    <g id="ytick_6">
     <g id="line2d_12">
      <g>
       <use style="stroke:#000000;stroke-width:0.8;" x="57.6" xlink:href="#ma41bebbde3" y="124.082963"/>
      </g>
     </g>
     <g id="text_13">
      <!-- 14 -->
      <g transform="translate(37.875 127.882181)scale(0.1 -0.1)">
       <use xlink:href="#DejaVuSans-49"/>
       <use x="63.623047" xlink:href="#DejaVuSans-52"/>
      </g>
     </g>
    </g>
    <g id="ytick_7">
     <g id="line2d_13">
      <g>
       <use style="stroke:#000000;stroke-width:0.8;" x="57.6" xlink:href="#ma41bebbde3" y="87.442296"/>
      </g>
     </g>
     <g id="text_14">
      <!-- 16 -->
      <g transform="translate(37.875 91.241515)scale(0.1 -0.1)">
       <use xlink:href="#DejaVuSans-49"/>
       <use x="63.623047" xlink:href="#DejaVuSans-54"/>
      </g>
     </g>
    </g>
    <g id="ytick_8">
     <g id="line2d_14">
      <g>
       <use style="stroke:#000000;stroke-width:0.8;" x="57.6" xlink:href="#ma41bebbde3" y="50.80163"/>
      </g>
     </g>
     <g id="text_15">
      <!-- 18 -->
      <g transform="translate(37.875 54.600848)scale(0.1 -0.1)">
       <use xlink:href="#DejaVuSans-49"/>
       <use x="63.623047" xlink:href="#DejaVuSans-56"/>
      </g>
     </g>
    </g>
   </g>
   <g id="line2d_15">
    <path clip-path="url(#p1a0fe8cd85)" d="M 73.832727 287.317131 
L 73.952792 290.101822 
L 74.072856 288.416351 
L 74.312985 280.65769 
L 74.43305 289.46061 
L 75.033373 288.141546 
L 76.234018 289.827017 
L 77.434664 285.833184 
L 78.635309 289.827017 
L 79.115568 282.334001 
L 79.595826 292.575067 
L 80.316213 277.204307 
L 80.916536 286.950725 
L 81.156665 285.494258 
L 81.276729 269.601369 
L 81.636923 275.244032 
L 81.877052 281.088218 
L 82.957633 286.620959 
L 83.798085 285.210293 
L 84.158279 281.930953 
L 84.878666 283.781307 
L 84.998731 287.527815 
L 85.599053 282.31568 
L 85.719118 288.196507 
L 86.199376 282.443923 
L 86.439505 281.069898 
L 86.55957 281.417984 
L 86.679634 280.08976 
L 86.799699 287.463694 
L 87.039828 282.553845 
L 87.279957 272.862388 
L 87.760215 286.511037 
L 88.120409 272.257817 
L 88.240473 290.01022 
L 90.161506 277.863839 
L 90.281571 287.527815 
L 90.5217 292.849872 
L 91.001958 278.578332 
L 91.362152 282.169118 
L 91.482216 286.620959 
L 91.722345 250.071894 
L 91.962474 290.129303 
L 92.322668 280.465327 
L 93.283185 283.524822 
L 93.763443 282.901931 
L 94.723959 285.686622 
L 95.084153 292.080418 
L 95.80454 287.738499 
L 96.044669 278.523371 
L 96.164734 283.909549 
L 96.524927 285.03167 
L 97.365379 290.156783 
L 97.845637 286.895764 
L 97.965702 289.075883 
L 98.325896 282.095836 
L 101.687703 282.480563 
L 102.648219 274.474578 
L 102.888349 287.188889 
L 105.169575 277.973761 
L 105.529769 284.47748 
L 105.889962 285.851505 
L 106.370221 285.173652 
L 107.090608 291.897215 
L 107.330737 238.072076 
L 107.690931 287.79346 
L 107.93106 281.014937 
L 108.171189 285.155332 
L 108.291253 223.892138 
L 108.651447 284.880527 
L 108.771512 287.674378 
L 109.011641 276.911182 
L 109.611963 276.636377 
L 109.852093 288.782758 
L 110.212286 282.682087 
L 110.57248 278.46841 
L 110.692544 285.191973 
L 110.812609 241.827744 
L 110.932673 280.190522 
L 111.052738 271.950036 
L 111.172803 284.853047 
L 111.292867 270.874632 
L 111.412932 279.54931 
L 111.653061 279.54931 
L 111.773125 287.683538 
L 111.89319 237.290408 
L 112.013254 285.61334 
L 112.133319 285.759903 
L 112.253384 287.26217 
L 112.373448 285.558379 
L 112.493513 290.394947 
L 112.613577 283.353833 
L 112.853706 288.214828 
L 112.973771 277.639415 
L 113.093835 288.398031 
L 113.333964 287.619417 
L 113.574094 287.958343 
L 113.694158 280.941655 
L 113.814223 289.240766 
L 113.934287 283.625584 
L 114.054352 285.952267 
L 114.174416 263.821304 
L 114.414545 282.779796 
L 114.53461 288.32475 
L 114.654675 284.083593 
L 114.774739 288.489633 
L 115.014868 281.042417 
L 115.134933 270.853259 
L 115.254997 281.692789 
L 115.495126 274.779917 
L 115.615191 273.430319 
L 115.735256 289.130844 
L 115.975385 286.428595 
L 116.095449 271.549431 
L 116.215514 279.824115 
L 116.575707 277.027211 
L 116.695772 278.956953 
L 117.055966 287.646897 
L 117.17603 275.793642 
L 117.296095 290.339986 
L 117.536224 269.363205 
L 117.656288 280.856161 
L 117.776353 281.509586 
L 117.896417 289.570532 
L 118.016482 257.198504 
L 118.136547 276.727979 
L 118.376676 268.080782 
L 118.49674 286.767521 
L 118.616805 285.833184 
L 118.736869 281.472945 
L 118.976998 284.172141 
L 119.217127 285.439297 
L 119.337192 282.767582 
L 119.457257 284.972129 
L 119.577321 250.847455 
L 119.697386 280.66685 
L 119.81745 264.792282 
L 119.937515 285.558379 
L 120.057579 282.485144 
L 120.177644 284.587402 
L 120.297708 284.196568 
L 120.417773 286.346154 
L 120.537838 247.855134 
L 120.777967 287.885062 
L 121.13816 283.653065 
L 121.258225 286.895764 
L 121.378289 282.773689 
L 121.498354 282.608806 
L 121.618419 286.859123 
L 121.858548 266.944921 
L 121.978612 277.479112 
L 122.098677 270.1693 
L 122.218741 244.239921 
L 122.338806 283.991991 
L 122.45887 285.819444 
L 122.819064 253.332913 
L 122.939129 278.294367 
L 123.059193 263.738863 
L 123.179258 293.784209 
L 123.419387 268.190704 
L 123.659516 283.94619 
L 123.899645 286.969045 
L 124.01971 273.247115 
L 124.259839 285.59502 
L 124.379903 285.924786 
L 124.499968 283.323299 
L 124.620032 291.512488 
L 124.740097 287.390413 
L 124.860161 264.471676 
L 124.980226 286.639279 
L 125.580549 282.114157 
L 125.700613 286.034708 
L 126.421001 277.479112 
L 126.66113 281.76607 
L 126.781194 277.680636 
L 126.901259 282.388962 
L 127.021323 267.390716 
L 127.141388 278.724895 
L 127.261452 267.329648 
L 127.381517 273.265436 
L 127.741711 280.09892 
L 127.98184 175.856224 
L 128.101904 269.802893 
L 128.221969 276.279131 
L 128.342033 274.456257 
L 128.462098 270.876464 
L 128.582162 287.115608 
L 128.822292 275.940204 
L 128.942356 246.843851 
L 129.062421 272.759795 
L 129.182485 259.134352 
L 129.422614 283.213377 
L 129.542679 271.735688 
L 129.662743 271.387602 
L 129.782808 288.672836 
L 129.902873 260.532804 
L 130.143002 288.764438 
L 130.503195 285.100371 
L 130.743324 289.314048 
L 130.863389 287.24385 
L 131.103518 280.978296 
L 131.223583 274.126491 
L 131.343647 275.830282 
L 131.463712 284.092753 
L 131.94397 261.851868 
L 132.064034 282.352321 
L 132.304164 278.315741 
L 132.424228 265.460974 
L 132.784422 274.914266 
L 133.024551 257.152703 
L 133.144615 279.375267 
L 133.384744 267.915899 
L 133.504809 277.653156 
L 133.744938 274.525875 
L 134.105132 236.565228 
L 134.345261 286.043868 
L 134.465325 264.508317 
L 134.705455 281.830192 
L 134.825519 238.87817 
L 135.065648 267.686894 
L 135.305777 275.628759 
L 135.425842 275.866923 
L 135.545906 286.987365 
L 135.665971 262.822846 
L 135.786036 285.155332 
L 135.9061 276.755459 
L 136.026165 276.553936 
L 136.146229 272.862388 
L 136.266294 274.62114 
L 136.386358 268.932677 
L 136.506423 272.844068 
L 136.626487 267.686894 
L 136.746552 284.898847 
L 136.866616 263.363296 
L 136.986681 283.304978 
L 137.22681 264.807549 
L 137.587004 275.225711 
L 137.827133 252.914599 
L 137.947197 253.543597 
L 138.067262 279.164583 
L 138.307391 257.967958 
L 138.54752 285.998067 
L 138.787649 271.900571 
L 138.907714 274.153972 
L 139.027778 281.711109 
L 139.147843 282.205758 
L 139.267907 284.972129 
L 139.387972 275.335633 
L 139.748166 283.231697 
L 139.86823 267.842617 
L 140.108359 278.645507 
L 140.348488 282.622546 
L 140.468553 280.09892 
L 140.588618 287.22553 
L 140.828747 279.924877 
L 140.948811 276.444014 
L 141.068876 277.689796 
L 141.18894 284.294276 
L 141.309005 279.92793 
L 141.429069 280.905015 
L 141.549134 274.492898 
L 141.789263 275.463876 
L 141.909328 278.395129 
L 142.029392 269.326564 
L 142.149457 283.602684 
L 142.269521 277.306901 
L 142.389586 281.381343 
L 142.50965 278.138644 
L 142.629715 258.671458 
L 142.749779 261.888509 
L 142.869844 281.069898 
L 142.989909 281.669889 
L 143.109973 277.433312 
L 143.350102 255.677916 
L 143.590231 286.67592 
L 143.710296 276.538669 
L 143.83036 275.990585 
L 143.950425 276.123408 
L 144.07049 270.74639 
L 144.190554 284.972129 
L 144.310619 284.660683 
L 144.430683 275.596698 
L 144.550748 285.833184 
L 144.670812 283.469861 
L 144.790877 285.814864 
L 144.910941 285.558379 
L 145.031006 269.583049 
L 145.15107 283.790467 
L 145.3912 264.622819 
L 145.511264 266.376991 
L 145.631329 282.993533 
L 145.751393 283.295818 
L 145.991522 278.86413 
L 146.111587 240.068992 
L 146.231651 253.827562 
L 146.351716 280.817484 
L 146.471781 264.768132 
L 146.71191 281.613401 
L 146.831974 264.548621 
L 146.952039 273.343952 
L 147.312232 268.143594 
L 147.432297 258.618329 
L 147.672426 287.372092 
L 147.792491 275.677613 
L 147.912555 276.025699 
L 148.03262 285.979747 
L 148.152684 283.726346 
L 148.272749 271.222719 
L 148.512878 288.837719 
L 148.632942 282.694301 
L 148.753007 247.151633 
L 148.993136 283.341619 
L 149.113201 277.121866 
L 149.233265 284.843886 
L 149.473394 274.685262 
L 149.713523 284.4958 
L 149.833588 253.030628 
L 150.073717 284.434732 
L 150.193782 284.550761 
L 150.313846 274.676101 
L 150.553975 279.979838 
L 150.794104 283.952297 
L 151.034233 272.477661 
L 151.154298 219.806704 
L 151.274363 275.280672 
L 151.514492 236.482787 
L 151.754621 272.670025 
L 151.874685 269.949456 
L 151.99475 281.149286 
L 152.114814 229.401978 
L 152.234879 278.68459 
L 152.354944 279.115729 
L 152.475008 269.189162 
L 152.715137 277.906587 
L 152.835202 263.537339 
L 153.31546 289.616333 
L 153.435524 275.074569 
L 153.555589 234.743882 
L 153.675654 274.115499 
L 153.795718 268.703673 
L 154.155912 283.030173 
L 154.275976 288.480473 
L 154.63617 268.447188 
L 154.996364 288.187347 
L 155.116428 260.926691 
L 155.356557 283.488182 
L 155.476622 276.405541 
L 155.596686 282.237819 
L 155.716751 270.242581 
L 155.836815 282.056906 
L 155.95688 280.735552 
L 156.197009 248.862752 
L 156.317074 283.286658 
L 156.677267 269.729612 
L 156.797332 284.358398 
L 156.917396 273.708177 
L 157.037461 243.027726 
L 157.157526 279.856176 
L 157.27759 275.689827 
L 157.397655 285.649981 
L 157.517719 265.699138 
L 157.637784 278.321848 
L 157.757848 249.804941 
L 157.997977 266.373326 
L 158.118042 244.638083 
L 158.238107 269.63801 
L 158.358171 265.163268 
L 158.478236 239.650242 
L 158.718365 283.566043 
L 158.838429 257.974064 
L 158.958494 256.767976 
L 159.078558 265.749519 
L 159.198623 266.14249 
L 159.318687 279.54015 
L 159.438752 279.207331 
L 159.558817 275.234872 
L 159.798946 238.145357 
L 159.91901 279.940144 
L 160.039075 281.161499 
L 160.159139 273.622682 
L 160.279204 274.419617 
L 160.519333 249.568085 
L 160.759462 272.592164 
L 160.879527 231.939344 
L 160.999591 231.143326 
L 161.119656 283.048494 
L 161.23972 284.473816 
L 161.359785 224.808154 
L 161.599914 277.286749 
L 161.719978 238.30108 
L 161.840043 279.121836 
L 161.960108 249.389462 
L 162.080172 279.027181 
L 162.200237 225.421886 
L 162.440366 277.097439 
L 162.56043 280.707155 
L 162.680495 255.850127 
L 162.800559 282.601478 
L 163.040689 196.076638 
L 163.280818 260.583694 
L 163.400882 273.338717 
L 163.641011 266.630422 
L 163.761076 280.980913 
L 163.88114 256.138541 
L 164.001205 280.140141 
L 164.121269 260.174249 
L 164.481463 287.683538 
L 164.601528 276.462334 
L 164.721592 283.827108 
L 164.841657 267.059423 
L 164.961721 281.143179 
L 165.081786 248.679549 
L 165.20185 279.228704 
L 165.321915 269.949456 
L 165.562044 279.74778 
L 165.682109 259.103818 
L 165.802173 279.320306 
L 165.922238 273.764665 
L 166.162367 281.17066 
L 166.282431 266.816679 
L 166.402496 282.617966 
L 166.642625 259.464118 
L 166.76269 275.031516 
L 166.882754 269.992203 
L 167.002819 277.121866 
L 167.122883 277.270261 
L 167.242948 246.169663 
L 167.483077 280.520288 
L 167.603141 266.166307 
L 167.723206 277.316847 
L 167.843271 275.607385 
L 168.0834 256.470925 
L 168.203464 277.017033 
L 168.323529 273.416579 
L 168.443593 255.405728 
L 168.563658 270.638758 
L 168.683722 219.717392 
L 168.923852 282.608806 
L 169.043916 280.023349 
L 169.163981 238.251615 
L 169.284045 281.841387 
L 169.40411 272.583003 
L 169.524174 244.901896 
L 169.644239 279.178323 
L 169.764303 169.981504 
L 169.884368 278.028722 
L 170.004432 211.12653 
L 170.124497 280.062279 
L 170.364626 253.871531 
L 170.604755 258.535888 
L 170.844884 285.5767 
L 170.964949 271.500577 
L 171.085013 286.627066 
L 171.205078 256.610217 
L 171.445207 276.856221 
L 171.565272 226.823391 
L 171.685336 272.560936 
L 171.805401 270.425784 
L 171.925465 265.305251 
L 172.04553 278.944739 
L 172.285659 251.616909 
L 172.405724 277.464863 
L 172.525788 251.250502 
L 172.645853 272.98656 
L 172.765917 271.405922 
L 172.885982 284.449999 
L 173.006046 271.83645 
L 173.126111 289.46061 
L 173.36624 263.046354 
L 173.486304 283.29765 
L 173.606369 268.578249 
L 173.726434 268.154063 
L 173.966563 276.929502 
L 174.086627 260.64578 
L 174.206692 273.038264 
L 174.326756 272.673951 
L 174.446821 271.723474 
L 174.566885 233.311842 
L 174.68695 266.330172 
L 174.807015 234.063254 
L 175.047144 281.137072 
L 175.287273 267.508271 
L 175.527402 277.982922 
L 175.647466 274.57534 
L 176.00766 286.12631 
L 176.127725 277.138354 
L 176.247789 283.721766 
L 176.367854 275.386014 
L 176.487918 257.487965 
L 176.607983 256.520651 
L 176.728047 286.300353 
L 177.088241 271.202566 
L 177.208306 281.863779 
L 177.32837 276.764619 
L 177.448435 255.909973 
L 177.568499 276.448594 
L 177.808628 266.702176 
L 178.048757 278.380473 
L 178.168822 272.074614 
L 178.408951 277.068737 
L 178.529016 267.955593 
L 178.64908 267.664648 
L 178.769145 276.35343 
L 178.889209 274.606484 
L 179.009274 237.952994 
L 179.129338 273.329557 
L 179.249403 275.738681 
L 179.369467 223.864657 
L 179.609597 276.54844 
L 179.729661 253.595505 
L 179.849726 270.02579 
L 179.96979 268.616651 
L 180.089855 270.295252 
L 180.209919 276.832666 
L 180.329984 274.700529 
L 180.450048 276.563096 
L 180.570113 274.696712 
L 180.690178 274.561599 
L 180.810242 270.199833 
L 181.050371 273.773825 
L 181.170436 271.182152 
L 181.2905 248.726658 
L 181.410565 275.839443 
L 181.530629 271.470043 
L 181.770758 280.660744 
L 181.890823 280.575249 
L 182.130952 251.114117 
L 182.371081 280.428686 
L 182.491146 280.556928 
L 182.61121 277.969181 
L 182.731275 259.891593 
L 182.851339 285.343115 
L 183.091469 275.592118 
L 183.211533 261.003026 
L 183.331598 274.02573 
L 183.571727 276.755459 
L 183.691791 252.661168 
L 183.811856 280.615554 
L 183.93192 274.479812 
L 184.051985 275.335633 
L 184.172049 230.316468 
L 184.412179 281.046997 
L 184.532243 281.825612 
L 184.652308 279.848542 
L 184.772372 283.803291 
L 184.892437 263.482378 
L 185.012501 267.42125 
L 185.132566 278.747796 
L 185.25263 275.329527 
L 185.372695 279.669701 
L 185.49276 277.937121 
L 185.612824 270.968066 
L 185.732889 271.84561 
L 185.852953 275.986005 
L 185.973018 267.082323 
L 186.093082 285.732423 
L 186.213147 266.789198 
L 186.333211 272.294458 
L 186.453276 266.32203 
L 186.573341 277.534073 
L 186.693405 274.263894 
L 187.053599 280.593569 
L 187.413792 266.404471 
L 187.533857 269.729612 
L 187.653921 278.114217 
L 187.773986 259.631444 
L 187.894051 269.912815 
L 188.014115 263.509858 
L 188.254244 278.094676 
L 188.374309 268.579095 
L 188.494373 277.703537 
L 188.614438 257.283998 
L 188.734502 275.359188 
L 188.854567 261.903498 
L 188.974632 265.824763 
L 189.094696 275.816848 
L 189.214761 262.390791 
L 189.574954 272.635216 
L 189.695019 270.868526 
L 189.815083 285.143119 
L 189.935148 276.835865 
L 190.055212 280.349298 
L 190.175277 278.876038 
L 190.295342 255.260212 
L 190.415406 268.473651 
L 190.535471 263.354136 
L 190.7756 283.93245 
L 191.015729 276.361572 
L 191.135793 284.660683 
L 191.255858 277.924907 
L 191.375923 278.316613 
L 191.495987 278.285207 
L 191.616052 271.290504 
L 191.736116 280.198373 
L 191.856181 279.421068 
L 191.976245 280.959976 
L 192.09631 286.552257 
L 192.216374 285.564486 
L 192.456503 260.316014 
L 192.576568 283.94619 
L 192.696633 272.261482 
L 192.816697 272.355526 
L 192.936762 278.578332 
L 193.056826 272.666972 
L 193.296955 284.990449 
L 193.41702 257.672542 
L 193.537084 272.294458 
L 193.657149 253.913057 
L 193.897278 280.582577 
L 194.017343 279.121836 
L 194.257472 271.61457 
L 194.377536 282.327894 
L 194.497601 266.047225 
L 194.617665 278.374192 
L 194.73773 269.927471 
L 194.977859 276.292871 
L 195.097924 280.908679 
L 195.338053 257.029041 
L 195.578182 279.286719 
L 195.698246 278.607645 
L 195.818311 281.763017 
L 195.938375 258.767945 
L 196.05844 282.224079 
L 196.298569 267.921133 
L 196.418634 283.115668 
L 196.658763 274.268474 
L 196.778827 277.921854 
L 196.898892 261.656451 
L 197.018956 285.388916 
L 197.139021 284.721751 
L 197.259086 279.98167 
L 197.37915 261.833548 
L 197.499215 278.949319 
L 197.739344 265.827381 
L 197.859408 282.382855 
L 197.979473 261.492124 
L 198.219602 272.081942 
L 198.339666 278.569172 
L 198.579796 250.314638 
L 198.69986 247.859714 
L 198.819925 278.35116 
L 198.939989 278.108111 
L 199.060054 224.185263 
L 199.300183 285.924786 
L 199.540312 273.769245 
L 199.660377 282.82865 
L 199.780441 261.60149 
L 199.900506 276.387744 
L 200.02057 275.7112 
L 200.260699 276.489814 
L 200.380764 276.193025 
L 200.620893 288.123226 
L 200.740958 267.329648 
L 200.861022 284.843886 
L 200.981087 253.69016 
L 201.101151 273.897487 
L 201.221216 267.586133 
L 201.34128 280.025639 
L 201.461345 273.027271 
L 201.701474 285.880817 
L 201.821538 278.437877 
L 201.941603 289.240766 
L 202.301797 270.047164 
L 202.421861 284.669843 
L 202.541926 278.98367 
L 202.66199 282.141637 
L 202.782055 276.398213 
L 202.902119 288.938481 
L 203.022184 267.915899 
L 203.142249 285.185866 
L 203.262313 282.407282 
L 203.502442 262.010644 
L 203.622507 283.914129 
L 203.742571 283.433221 
L 203.862636 277.735597 
L 203.9827 279.606561 
L 204.102765 265.597068 
L 204.222829 280.407312 
L 204.342894 268.16933 
L 204.583023 280.859214 
L 204.703088 276.704424 
L 204.943217 282.897351 
L 205.30341 279.309737 
L 205.423475 269.352213 
L 205.663604 283.717186 
L 205.903733 270.810511 
L 206.023798 279.683659 
L 206.143862 274.211986 
L 206.504056 188.364432 
L 206.62412 271.994005 
L 206.86425 259.050893 
L 206.984314 258.360013 
L 207.104379 280.0806 
L 207.224443 278.184445 
L 207.344508 236.522176 
L 207.464572 269.41267 
L 207.584637 264.528927 
L 207.704701 273.839473 
L 207.824766 264.361754 
L 207.944831 282.29736 
L 208.064895 270.861808 
L 208.18496 279.920297 
L 208.305024 272.734146 
L 208.425089 280.813413 
L 208.545153 262.827426 
L 208.665218 284.679003 
L 208.785282 284.010311 
L 208.905347 270.758604 
L 209.025412 284.651523 
L 209.145476 272.555523 
L 209.385605 275.189071 
L 209.50567 280.556928 
L 209.745799 275.264969 
L 209.865863 276.947823 
L 209.985928 275.293497 
L 210.105992 264.515645 
L 210.226057 273.453874 
L 210.346122 252.162448 
L 210.466186 278.43177 
L 210.706315 264.819762 
L 210.82638 278.669934 
L 210.946444 274.587117 
L 211.066509 275.198231 
L 211.186573 274.686279 
L 211.306638 273.232459 
L 211.426703 276.370732 
L 211.546767 282.535524 
L 211.666832 275.16617 
L 211.786896 276.552627 
L 211.906961 266.157147 
L 212.027025 276.700498 
L 212.14709 274.03489 
L 212.267154 282.163011 
L 212.387219 273.239787 
L 212.507283 285.204186 
L 212.627348 278.679094 
L 212.747413 262.452775 
L 212.867477 273.411998 
L 212.987542 267.981852 
L 213.227671 285.649981 
L 213.347735 271.024248 
L 213.4678 272.086828 
L 213.587864 271.740777 
L 213.707929 276.937354 
L 213.827994 249.696327 
L 214.068123 278.416503 
L 214.188187 252.568694 
L 214.428316 276.966143 
L 214.548381 257.109955 
L 214.668445 264.127661 
L 214.78851 277.790558 
L 215.028639 263.109864 
L 215.268768 275.219605 
L 215.388833 269.832663 
L 215.508897 283.808788 
L 215.628962 281.294976 
L 215.749026 281.451571 
L 216.10922 269.853783 
L 216.229285 281.881227 
L 216.349349 266.662788 
L 216.589478 283.097348 
L 216.709543 283.41948 
L 216.829607 277.446136 
L 216.949672 281.76607 
L 217.069736 280.63937 
L 217.309866 268.994181 
L 217.42993 280.770666 
L 217.549995 273.935146 
L 217.670059 277.52186 
L 217.790124 257.377127 
L 217.910188 283.799627 
L 218.150317 264.764801 
L 218.270382 285.151668 
L 218.390446 282.700407 
L 218.510511 272.362743 
L 218.630576 272.477661 
L 218.75064 271.658481 
L 218.870705 281.76149 
L 218.990769 277.830863 
L 219.110834 278.792942 
L 219.230898 272.037973 
L 219.350963 289.430076 
L 219.471027 275.71578 
L 219.591092 277.286749 
L 219.711157 274.850145 
L 219.831221 281.111119 
L 220.07135 271.799809 
L 220.191415 257.314532 
L 220.431544 277.60212 
L 220.551608 284.50496 
L 220.671673 276.616648 
L 220.791737 280.676011 
L 220.911802 270.71891 
L 221.031867 283.667721 
L 221.151931 270.165635 
L 221.271996 272.528958 
L 221.39206 269.216642 
L 221.512125 279.482136 
L 221.872318 263.161772 
L 221.992383 282.046982 
L 222.112448 270.531126 
L 222.232512 240.552191 
L 222.352577 274.657781 
L 222.472641 267.095148 
L 222.592706 277.448579 
L 222.71277 273.732604 
L 222.832835 266.088445 
L 223.072964 275.198231 
L 223.193029 270.421204 
L 223.313093 284.885107 
L 223.433158 276.66569 
L 223.553222 255.819899 
L 223.793351 278.541692 
L 224.03348 271.973852 
L 224.273609 281.869886 
L 224.513739 280.054951 
L 224.633803 280.433266 
L 224.753868 263.445737 
L 224.873932 280.788986 
L 224.993997 276.031806 
L 225.114061 277.079729 
L 225.234126 288.645356 
L 225.35419 278.738635 
L 225.474255 283.444213 
L 225.59432 283.262231 
L 225.714384 272.37919 
L 225.954513 283.109562 
L 226.074578 271.290504 
L 226.194642 272.464576 
L 226.314707 267.141864 
L 226.554836 283.40574 
L 226.6749 266.930672 
L 226.794965 277.810914 
L 226.91503 271.229843 
L 227.035094 274.822664 
L 227.155159 274.009241 
L 227.275223 275.3509 
L 227.395288 274.401296 
L 227.515352 254.71793 
L 227.635417 276.245543 
L 227.755481 276.420197 
L 227.875546 285.155332 
L 227.995611 283.240857 
L 228.115675 283.168885 
L 228.23574 283.757752 
L 228.355804 279.921824 
L 228.595933 284.349237 
L 228.715998 279.402747 
L 228.836062 282.706514 
L 228.956127 279.801215 
L 229.076192 280.410366 
L 229.316321 275.231818 
L 229.436385 280.850054 
L 229.55645 279.320306 
L 229.676514 272.596744 
L 229.796579 277.550562 
L 229.916643 276.257757 
L 230.036708 263.407061 
L 230.156772 268.575431 
L 230.276837 282.883611 
L 230.396902 268.328106 
L 230.757095 281.681797 
L 230.87716 280.850054 
L 230.997224 284.692744 
L 231.357418 276.315771 
L 231.477483 281.995075 
L 231.597547 281.289742 
L 231.837676 272.285298 
L 231.957741 272.613755 
L 232.077805 280.599676 
L 232.19787 279.797943 
L 232.317934 276.135621 
L 232.437999 284.587402 
L 232.558063 277.726437 
L 232.678128 261.730954 
L 232.798193 221.274366 
L 233.038322 280.212506 
L 233.278451 280.808833 
L 233.398515 260.343494 
L 233.638644 277.115759 
L 233.758709 242.615518 
L 233.998838 282.027135 
L 234.118903 269.627832 
L 234.238967 278.712682 
L 234.359032 232.348804 
L 234.599161 282.480563 
L 234.719225 280.318764 
L 234.83929 247.795593 
L 234.959354 283.552303 
L 235.319548 273.979929 
L 235.559677 283.836268 
L 235.679742 281.381343 
L 235.799806 278.694361 
L 236.039935 256.401569 
L 236.280065 287.855749 
L 236.400129 261.955683 
L 236.640258 281.308062 
L 236.760323 282.398122 
L 236.880387 281.54012 
L 237.000452 279.213437 
L 237.120516 262.636589 
L 237.240581 277.753917 
L 237.360646 267.974524 
L 237.600775 279.176797 
L 237.720839 275.244032 
L 237.840904 278.245513 
L 237.960968 228.179096 
L 238.201097 276.58447 
L 238.321162 242.403526 
L 238.441226 280.95794 
L 238.561291 280.376778 
L 238.681356 274.831824 
L 238.921485 289.387329 
L 239.041549 273.70146 
L 239.161614 228.325658 
L 239.281678 282.196598 
L 239.401743 276.134858 
L 239.521807 278.44093 
L 239.641872 273.375358 
L 239.761937 284.737628 
L 239.882001 277.634835 
L 240.12213 283.300398 
L 240.242195 277.222628 
L 240.362259 240.420742 
L 240.602388 278.494582 
L 240.842517 276.816527 
L 240.962582 270.726238 
L 241.202711 285.906466 
L 241.44284 273.453219 
L 241.562905 283.601768 
L 241.682969 277.213468 
L 241.803034 277.16156 
L 242.043163 266.279282 
L 242.163228 273.012615 
L 242.283292 267.256367 
L 242.403357 282.526364 
L 242.523421 282.67598 
L 242.643486 251.422364 
L 242.76355 282.055532 
L 242.883615 279.114202 
L 243.003679 282.073852 
L 243.123744 281.363023 
L 243.243808 274.108171 
L 243.363873 276.23333 
L 243.604002 281.706529 
L 243.844131 279.190232 
L 243.964196 280.179072 
L 244.08426 265.100674 
L 244.204325 269.946402 
L 244.324389 281.262261 
L 244.444454 277.436365 
L 244.564519 278.834817 
L 244.684583 257.723686 
L 244.804648 284.166034 
L 244.924712 284.010311 
L 245.164841 250.137847 
L 245.284906 274.502058 
L 245.40497 271.511918 
L 245.525035 276.642484 
L 245.6451 246.841409 
L 245.765164 259.734038 
L 245.885229 285.439297 
L 246.245422 231.247752 
L 246.365487 282.462243 
L 246.485551 282.434763 
L 246.605616 270.334183 
L 246.72568 283.433221 
L 246.845745 173.932589 
L 246.96581 283.714133 
L 247.085874 276.245543 
L 247.205939 279.53099 
L 247.326003 277.433312 
L 247.446068 273.160094 
L 247.566132 274.35157 
L 247.686197 282.810329 
L 247.806261 264.758694 
L 248.166455 282.218844 
L 248.28652 263.404516 
L 248.526649 285.361436 
L 248.766778 271.722864 
L 248.886842 241.113251 
L 249.006907 282.382855 
L 249.126971 277.213468 
L 249.247036 282.320261 
L 249.367101 268.53879 
L 249.487165 281.912633 
L 249.60723 260.180138 
L 249.727294 284.862207 
L 249.847359 274.236413 
L 249.967423 249.503964 
L 250.087488 53.568 
L 250.207552 284.166034 
L 250.327617 285.824024 
L 250.447682 209.547317 
L 250.567746 273.691384 
L 250.687811 272.974928 
L 250.807875 279.446716 
L 251.048004 274.60282 
L 251.168069 283.822528 
L 251.288133 282.31568 
L 251.408198 269.432822 
L 251.648327 281.985914 
L 251.768392 281.650042 
L 251.888456 280.202735 
L 252.008521 266.875304 
L 252.128585 279.957592 
L 252.24865 268.912525 
L 252.368714 274.236413 
L 252.488779 271.179971 
L 252.728908 275.540211 
L 252.848973 272.721933 
L 253.089102 282.901931 
L 253.209166 269.671597 
L 253.329231 278.827489 
L 253.56936 274.236413 
L 253.689424 289.97358 
L 253.809489 281.014937 
L 253.929554 250.713106 
L 254.049618 281.725766 
L 254.289747 232.914902 
L 254.529876 283.016433 
L 254.649941 282.714148 
L 254.770005 260.111437 
L 254.89007 263.290014 
L 255.010134 281.445465 
L 255.130199 282.437816 
L 255.250264 242.542237 
L 255.490393 282.636286 
L 255.610457 266.786145 
L 255.730522 273.924968 
L 255.850586 290.743034 
L 255.970651 273.567721 
L 256.090715 278.732747 
L 256.21078 278.065363 
L 256.330845 98.251293 
L 256.450909 277.50005 
L 256.570974 260.954172 
L 256.691038 281.321802 
L 256.811103 280.517671 
L 256.931167 282.340108 
L 257.051232 271.470043 
L 257.171296 273.524538 
L 257.291361 277.985975 
L 257.411425 276.950876 
L 257.53149 282.868344 
L 257.771619 276.618057 
L 257.891684 279.469922 
L 258.131813 269.564729 
L 258.251877 279.626256 
L 258.371942 261.650345 
L 258.492006 276.666356 
L 258.612071 277.054081 
L 258.8522 286.639279 
L 258.972265 270.496775 
L 259.092329 274.676101 
L 259.212394 285.92845 
L 259.452523 279.828695 
L 259.572587 277.8959 
L 259.692652 281.161499 
L 259.812717 278.541692 
L 259.932781 270.17846 
L 260.17291 281.019517 
L 260.292975 274.093515 
L 260.413039 280.850054 
L 260.653168 274.804344 
L 260.773233 217.693758 
L 261.013362 287.944603 
L 261.253491 280.11724 
L 261.373556 278.997665 
L 261.49362 281.399664 
L 261.613685 267.97086 
L 261.853814 282.650027 
L 261.973878 279.476029 
L 262.214008 266.720497 
L 262.454137 282.407282 
L 262.694266 271.341801 
L 262.934395 276.031806 
L 263.054459 287.976663 
L 263.174524 287.674378 
L 263.294588 128.90121 
L 263.414653 279.248857 
L 263.534718 276.978357 
L 263.774847 279.543203 
L 263.894911 251.51004 
L 264.13504 285.082051 
L 264.255105 281.68232 
L 264.375169 281.619508 
L 264.495234 280.736468 
L 264.615299 273.943288 
L 264.735363 273.892907 
L 264.855428 279.595111 
L 264.975492 275.001287 
L 265.095557 236.232191 
L 265.215621 278.349328 
L 265.335686 266.254855 
L 265.575815 286.688133 
L 265.69588 284.330917 
L 265.815944 277.987502 
L 266.176138 286.071349 
L 266.416267 279.439388 
L 266.656396 281.641492 
L 266.77646 265.305251 
L 266.896525 282.712621 
L 267.01659 255.201587 
L 267.136654 280.570669 
L 267.256719 273.228795 
L 267.376783 286.474396 
L 267.736977 270.004417 
L 268.097171 279.717857 
L 268.217235 279.764574 
L 268.3373 283.598104 
L 268.457364 281.833245 
L 268.577429 271.500577 
L 268.697493 273.564668 
L 268.817558 279.054661 
L 268.937622 274.969227 
L 269.057687 276.050126 
L 269.177751 275.958525 
L 269.297816 280.63937 
L 269.417881 279.726407 
L 269.537945 272.816588 
L 269.778074 285.704942 
L 269.898139 257.244304 
L 270.018203 279.787474 
L 270.138268 276.483708 
L 270.258332 283.455205 
L 270.378397 277.634835 
L 270.498462 278.900247 
L 270.618526 287.646897 
L 270.738591 222.115066 
L 270.97872 284.152948 
L 271.098784 276.517295 
L 271.218849 209.974791 
L 271.338913 280.227162 
L 271.458978 280.135561 
L 271.579042 284.074432 
L 271.699107 279.976785 
L 271.819172 261.534316 
L 272.179365 285.06831 
L 272.29943 271.7527 
L 272.419494 276.563096 
L 272.539559 268.447188 
L 272.659623 244.746784 
L 272.899753 282.154461 
L 273.019817 269.297252 
L 273.139882 270.792191 
L 273.259946 285.979747 
L 273.500075 260.670207 
L 273.62014 280.465327 
L 273.740204 279.366107 
L 273.980334 289.094204 
L 274.100398 270.94486 
L 274.220463 282.984373 
L 274.580656 271.955532 
L 275.060914 288.636195 
L 275.180979 284.413359 
L 275.301044 274.480685 
L 275.421108 283.991991 
L 275.541173 272.615064 
L 275.781302 283.91871 
L 275.901366 268.0075 
L 276.021431 285.301895 
L 276.26156 269.826448 
L 276.381625 279.430228 
L 276.621754 256.859577 
L 276.741818 256.946599 
L 276.981947 278.701995 
L 277.102012 284.770605 
L 277.222076 277.863839 
L 277.342141 234.600373 
L 277.462205 290.101822 
L 277.58227 281.124859 
L 277.702335 281.014937 
L 277.822399 283.421007 
L 278.062528 268.551003 
L 278.182593 276.575309 
L 278.542786 269.509768 
L 278.782916 278.645507 
L 278.90298 278.028722 
L 279.263174 251.986369 
L 279.383238 278.767643 
L 279.503303 277.149346 
L 279.623367 266.825839 
L 279.863497 281.088218 
L 279.983561 281.811871 
L 280.103626 272.693841 
L 280.22369 272.960097 
L 280.343755 285.562959 
L 280.463819 286.007228 
L 280.583884 255.787838 
L 280.703948 271.13417 
L 280.824013 263.967867 
L 281.064142 285.805704 
L 281.184207 282.672927 
L 281.304271 286.69424 
L 281.664465 273.439479 
L 281.784529 270.792191 
L 282.024658 280.048539 
L 282.264788 285.607234 
L 282.384852 282.462243 
L 282.504917 207.889327 
L 282.624981 281.628668 
L 282.745046 285.008769 
L 282.86511 279.970678 
L 282.985175 287.280491 
L 283.105239 283.506502 
L 283.225304 274.666941 
L 283.345368 288.843826 
L 283.465433 284.037792 
L 283.585498 271.708207 
L 283.825627 281.839352 
L 283.945691 277.076065 
L 284.065756 279.274505 
L 284.18582 288.755278 
L 284.425949 277.698956 
L 284.546014 278.349328 
L 284.666079 286.870573 
L 284.786143 275.550897 
L 284.906208 284.028632 
L 285.026272 271.470043 
L 285.146337 279.274505 
L 285.266401 278.682148 
L 285.50653 284.239315 
L 285.626595 280.401206 
L 285.746659 280.364565 
L 285.866724 283.179789 
L 286.106853 283.808788 
L 286.346982 286.831643 
L 286.467047 280.401206 
L 286.587111 266.651796 
L 286.947305 285.507998 
L 287.06737 278.065363 
L 287.187434 279.384427 
L 287.307499 254.340532 
L 287.547628 283.621004 
L 287.667692 277.399724 
L 287.787757 288.192843 
L 287.907821 286.370581 
L 288.027886 269.848694 
L 288.147951 283.839321 
L 288.268015 272.578423 
L 288.38808 288.086585 
L 288.628209 269.940295 
L 288.748273 284.449999 
L 288.868338 276.288291 
L 289.108467 284.605722 
L 289.228531 283.425893 
L 289.348596 276.737139 
L 289.468661 282.682087 
L 289.70879 280.016479 
L 289.828854 285.906466 
L 289.948919 266.541874 
L 290.068983 285.146172 
L 290.189048 281.482105 
L 290.429177 281.741643 
L 290.549242 282.138584 
L 290.669306 285.439297 
L 290.789371 282.382855 
L 290.909435 286.309513 
L 291.0295 282.334001 
L 291.269629 286.987365 
L 291.509758 286.327833 
L 291.629822 279.805795 
L 291.749887 279.824115 
L 291.869952 280.572959 
L 291.990016 277.118813 
L 292.110081 286.886604 
L 292.230145 286.199591 
L 292.35021 276.526455 
L 292.470274 280.83784 
L 292.590339 280.813413 
L 292.710403 278.718788 
L 292.830468 241.520878 
L 292.950533 286.71256 
L 293.070597 283.92329 
L 293.190662 275.060828 
L 293.310726 279.259849 
L 293.550855 288.956801 
L 293.67092 283.005746 
L 293.790984 287.738499 
L 293.911049 281.463785 
L 294.031114 281.808818 
L 294.391307 288.223988 
L 294.511372 273.100553 
L 294.631436 294.755187 
L 294.871565 273.430319 
L 294.99163 277.790558 
L 295.111694 254.468774 
L 295.351824 283.213377 
L 295.471888 283.286658 
L 295.591953 278.706575 
L 295.712017 209.748841 
L 295.832082 282.908038 
L 296.072211 274.089851 
L 296.192275 285.558379 
L 296.31234 270.2151 
L 296.672534 281.332489 
L 296.792598 275.13411 
L 296.912663 282.920251 
L 297.032727 281.857672 
L 297.152792 286.71256 
L 297.272856 283.030173 
L 297.512985 284.743125 
L 297.63305 278.816497 
L 297.753115 286.327833 
L 297.873179 279.585951 
L 297.993244 279.53099 
L 298.473502 290.175103 
L 298.593566 236.148441 
L 298.713631 283.921763 
L 298.833696 287.22095 
L 299.073825 277.854679 
L 299.193889 277.790558 
L 299.313954 290.578151 
L 299.554083 284.056112 
L 299.794212 285.952267 
L 299.914276 272.221177 
L 300.034341 287.384306 
L 300.394535 286.195011 
L 300.514599 284.51412 
L 300.634664 288.691156 
L 300.754728 277.863839 
L 300.874793 286.309513 
L 300.994857 285.704942 
L 301.59518 281.21646 
L 301.715245 278.211926 
L 301.835309 287.830101 
L 301.955374 285.741583 
L 302.315568 283.662225 
L 302.555697 281.546226 
L 302.795826 284.697324 
L 302.91589 291.768972 
L 303.035955 271.460883 
L 303.156019 290.578151 
L 303.396148 272.019653 
L 303.996471 285.540059 
L 304.116536 281.546226 
L 304.2366 286.48661 
L 304.476729 283.146202 
L 304.596794 277.112706 
L 304.716859 280.355405 
L 304.836923 276.947823 
L 304.956988 288.599555 
L 305.197117 282.590485 
L 305.317181 287.967503 
L 305.677375 286.346154 
L 305.797439 271.32348 
L 306.157633 286.785842 
L 306.397762 285.558379 
L 306.757956 292.19034 
L 306.87802 253.479476 
L 306.998085 281.674469 
L 307.238214 236.441566 
L 307.478343 287.720179 
L 307.598408 281.344703 
L 307.838537 287.720179 
L 307.958601 264.352594 
L 308.318795 284.679003 
L 308.43886 272.111255 
L 308.558924 285.393496 
L 308.678989 281.967594 
L 308.799053 288.929321 
L 308.919118 288.072845 
L 309.039182 283.424061 
L 309.279311 286.634699 
L 309.399376 282.944679 
L 309.519441 251.931408 
L 309.75957 248.313142 
L 310.239828 287.097287 
L 310.359892 286.382794 
L 310.600022 285.674408 
L 311.200344 274.978387 
L 311.680602 278.816497 
L 311.800667 274.969227 
L 312.040796 285.04541 
L 312.280925 275.13411 
L 312.521054 285.711049 
L 312.881248 279.414961 
L 313.361506 289.698775 
L 313.481571 288.654516 
L 313.601635 260.990813 
L 314.081893 287.976663 
L 314.201958 286.978205 
L 314.442087 287.665218 
L 314.802281 281.74775 
L 315.04241 283.640851 
L 315.162474 282.86529 
L 315.282539 268.252993 
L 315.642733 284.202675 
L 315.882862 289.634654 
L 316.002926 284.202675 
L 316.122991 289.094204 
L 316.36312 283.451541 
L 317.083507 280.341665 
L 317.323636 282.901931 
L 317.563765 288.87436 
L 317.68383 256.410729 
L 318.044024 284.972129 
L 318.284153 269.271603 
L 318.404217 283.37826 
L 318.524282 246.078061 
L 318.644346 286.969045 
L 319.244669 286.822482 
L 319.844992 253.14971 
L 320.205186 262.218275 
L 320.445315 282.993533 
L 320.565379 269.07008 
L 320.685444 285.924786 
L 321.045637 295.488 
L 321.525896 278.193605 
L 321.766025 282.095836 
L 322.126218 277.497433 
L 322.606477 285.503418 
L 322.726541 282.682087 
L 322.96667 281.491265 
L 323.206799 270.004417 
L 323.326864 283.451541 
L 323.807122 280.959976 
L 323.927187 285.265254 
L 324.527509 281.372183 
L 324.647574 277.772238 
L 325.007768 286.053028 
L 325.127832 283.891229 
L 325.488026 286.474396 
L 326.208413 284.349237 
L 327.529123 273.173834 
L 327.769252 292.72163 
L 328.129446 281.601187 
L 328.609704 279.787474 
L 328.729769 283.561463 
L 328.969898 282.27904 
L 329.210027 286.071349 
L 329.330091 281.72943 
L 329.570221 283.011853 
L 329.690285 264.728161 
L 329.81035 284.037792 
L 330.410672 153.175652 
L 330.650802 285.02709 
L 330.890931 283.39658 
L 331.010995 288.214828 
L 331.731382 290.504869 
L 332.45177 268.53879 
L 332.571834 288.095746 
L 332.691899 227.464603 
L 333.532351 287.756819 
L 333.652415 285.246934 
L 333.892544 224.789834 
L 334.012609 282.956892 
L 334.132673 275.024188 
L 334.372803 271.296 
L 334.612932 287.115608 
L 334.973125 283.304978 
L 335.213254 287.958343 
L 335.453384 285.326322 
L 336.173771 286.089669 
L 336.533964 284.129393 
L 336.654029 289.607173 
L 336.894158 265.326625 
L 337.014223 285.521739 
L 337.254352 286.071349 
L 337.494481 277.222628 
L 337.614545 287.683538 
L 337.73461 284.193515 
L 337.854675 287.463694 
L 338.094804 285.915626 
L 338.575062 289.918619 
L 338.695126 273.155514 
L 339.05532 288.233148 
L 339.175385 266.413631 
L 339.415514 281.134019 
L 339.535578 235.067541 
L 339.655643 279.210384 
L 339.775707 248.22154 
L 340.015836 282.691247 
L 340.135901 282.810329 
L 340.37603 212.863297 
L 340.616159 289.277407 
L 340.976353 286.053028 
L 341.096417 267.256367 
L 341.336547 250.172656 
L 341.456611 275.7112 
L 341.69674 289.515571 
L 341.816805 275.68372 
L 341.936869 285.283574 
L 342.056934 272.917349 
L 342.176998 288.581234 
L 342.297063 283.891229 
L 342.537192 289.478931 
L 342.777321 287.573616 
L 343.01745 282.407282 
L 343.137515 160.265621 
L 343.257579 285.466778 
L 343.377644 287.894222 
L 343.497708 283.231697 
L 343.617773 237.375903 
L 343.737838 285.127852 
L 344.098031 247.342164 
L 344.218096 286.034708 
L 344.33816 287.445374 
L 344.578289 286.735461 
L 344.698354 282.425602 
L 344.818419 282.443923 
L 344.938483 282.749262 
L 345.178612 253.412301 
L 345.418741 284.599615 
L 345.538806 285.814864 
L 345.778935 245.326928 
L 345.898999 271.030355 
L 346.139129 280.300444 
L 346.499322 283.323299 
L 346.619387 268.254825 
L 346.739451 286.927824 
L 346.859516 286.932404 
L 347.099645 291.329284 
L 347.459839 268.703673 
L 347.579903 290.339986 
L 348.780549 279.292825 
L 349.020678 285.814864 
L 349.140742 273.430319 
L 349.260807 281.875992 
L 349.741065 286.67592 
L 350.941711 278.944739 
L 351.542033 249.815409 
L 352.742679 286.987365 
L 353.943324 273.210475 
L 354.543647 283.872909 
L 357.425196 273.870007 
L 359.1061 292.281942 
L 360.066616 284.440839 
L 360.42681 287.866741 
L 362.587972 287.573616 
L 363.548488 290.449908 
L 364.148811 282.920251 
L 364.869198 288.498793 
L 365.469521 284.056112 
L 366.189909 294.168936 
L 366.790231 281.308062 
L 367.510619 293.985733 
L 368.951393 288.33391 
L 369.791845 291.805613 
L 370.392168 287.445374 
L 370.632297 294.37046 
L 370.872426 281.857672 
L 371.112555 286.730881 
L 371.712878 287.188889 
L 371.832942 287.427053 
L 371.953007 289.314048 
L 375.554944 287.152248 
L 376.275331 233.675196 
L 376.755589 276.581416 
L 377.115783 281.949274 
L 377.596041 291.842254 
L 377.716105 286.547677 
L 377.83617 287.628577 
L 377.956235 262.291556 
L 378.556557 289.662134 
L 378.676622 288.636195 
L 379.517074 283.744666 
L 379.637138 284.367558 
L 380.717719 208.026729 
L 382.038429 284.037792 
L 384.559785 280.208842 
L 384.679849 286.813322 
L 385.040043 276.563096 
L 385.160108 287.005686 
L 385.520301 263.638101 
L 385.880495 275.72036 
L 386.120624 288.33391 
L 386.360753 285.851505 
L 386.480818 282.407282 
L 386.841011 275.537157 
L 387.201205 288.581234 
L 387.681463 282.150797 
L 387.921592 282.85613 
L 388.521915 288.764438 
L 388.64198 268.53879 
L 388.882109 291.65905 
L 389.002173 288.956801 
L 389.122238 292.098738 
L 389.242302 282.187438 
L 389.602496 265.937303 
L 389.96269 292.959794 
L 390.082754 291.530808 
L 390.202819 286.69424 
L 390.563012 277.222628 
L 390.803141 284.990449 
L 391.2834 290.981198 
L 391.403464 287.509495 
L 391.883722 285.704942 
L 392.484045 281.283635 
L 393.084368 291.530808 
L 397.88695 287.170569 
L 398.487273 286.089669 
L 398.487273 286.089669 
" style="fill:none;stroke:#0000ff;stroke-linecap:square;stroke-width:1.5;"/>
   </g>
   <g id="patch_3">
    <path d="M 57.6 307.584 
L 57.6 41.472 
" style="fill:none;stroke:#000000;stroke-linecap:square;stroke-linejoin:miter;stroke-width:0.8;"/>
   </g>
   <g id="patch_4">
    <path d="M 414.72 307.584 
L 414.72 41.472 
" style="fill:none;stroke:#000000;stroke-linecap:square;stroke-linejoin:miter;stroke-width:0.8;"/>
   </g>
   <g id="patch_5">
    <path d="M 57.6 307.584 
L 414.72 307.584 
" style="fill:none;stroke:#000000;stroke-linecap:square;stroke-linejoin:miter;stroke-width:0.8;"/>
   </g>
   <g id="patch_6">
    <path d="M 57.6 41.472 
L 414.72 41.472 
" style="fill:none;stroke:#000000;stroke-linecap:square;stroke-linejoin:miter;stroke-width:0.8;"/>
   </g>
   <g id="text_16">
    <!-- temperature-&gt;ping_day -->
    <g transform="translate(164.131875 35.472)scale(0.12 -0.12)">
     <defs>
      <path d="M 4.890625 31.390625 
L 31.203125 31.390625 
L 31.203125 23.390625 
L 4.890625 23.390625 
z
" id="DejaVuSans-45"/>
      <path d="M 10.59375 49.21875 
L 10.59375 58.109375 
L 73.1875 35.40625 
L 73.1875 27.296875 
L 10.59375 4.59375 
L 10.59375 13.484375 
L 60.890625 31.296875 
z
" id="DejaVuSans-62"/>
      <path d="M 54.890625 33.015625 
L 54.890625 0 
L 45.90625 0 
L 45.90625 32.71875 
Q 45.90625 40.484375 42.875 44.328125 
Q 39.84375 48.1875 33.796875 48.1875 
Q 26.515625 48.1875 22.3125 43.546875 
Q 18.109375 38.921875 18.109375 30.90625 
L 18.109375 0 
L 9.078125 0 
L 9.078125 54.6875 
L 18.109375 54.6875 
L 18.109375 46.1875 
Q 21.34375 51.125 25.703125 53.5625 
Q 30.078125 56 35.796875 56 
Q 45.21875 56 50.046875 50.171875 
Q 54.890625 44.34375 54.890625 33.015625 
z
" id="DejaVuSans-110"/>
      <path d="M 45.40625 27.984375 
Q 45.40625 37.75 41.375 43.109375 
Q 37.359375 48.484375 30.078125 48.484375 
Q 22.859375 48.484375 18.828125 43.109375 
Q 14.796875 37.75 14.796875 27.984375 
Q 14.796875 18.265625 18.828125 12.890625 
Q 22.859375 7.515625 30.078125 7.515625 
Q 37.359375 7.515625 41.375 12.890625 
Q 45.40625 18.265625 45.40625 27.984375 
z
M 54.390625 6.78125 
Q 54.390625 -7.171875 48.1875 -13.984375 
Q 42 -20.796875 29.203125 -20.796875 
Q 24.46875 -20.796875 20.265625 -20.09375 
Q 16.0625 -19.390625 12.109375 -17.921875 
L 12.109375 -9.1875 
Q 16.0625 -11.328125 19.921875 -12.34375 
Q 23.78125 -13.375 27.78125 -13.375 
Q 36.625 -13.375 41.015625 -8.765625 
Q 45.40625 -4.15625 45.40625 5.171875 
L 45.40625 9.625 
Q 42.625 4.78125 38.28125 2.390625 
Q 33.9375 0 27.875 0 
Q 17.828125 0 11.671875 7.65625 
Q 5.515625 15.328125 5.515625 27.984375 
Q 5.515625 40.671875 11.671875 48.328125 
Q 17.828125 56 27.875 56 
Q 33.9375 56 38.28125 53.609375 
Q 42.625 51.21875 45.40625 46.390625 
L 45.40625 54.6875 
L 54.390625 54.6875 
z
" id="DejaVuSans-103"/>
      <path d="M 50.984375 -16.609375 
L 50.984375 -23.578125 
L -0.984375 -23.578125 
L -0.984375 -16.609375 
z
" id="DejaVuSans-95"/>
      <path d="M 45.40625 46.390625 
L 45.40625 75.984375 
L 54.390625 75.984375 
L 54.390625 0 
L 45.40625 0 
L 45.40625 8.203125 
Q 42.578125 3.328125 38.25 0.953125 
Q 33.9375 -1.421875 27.875 -1.421875 
Q 17.96875 -1.421875 11.734375 6.484375 
Q 5.515625 14.40625 5.515625 27.296875 
Q 5.515625 40.1875 11.734375 48.09375 
Q 17.96875 56 27.875 56 
Q 33.9375 56 38.25 53.625 
Q 42.578125 51.265625 45.40625 46.390625 
z
M 14.796875 27.296875 
Q 14.796875 17.390625 18.875 11.75 
Q 22.953125 6.109375 30.078125 6.109375 
Q 37.203125 6.109375 41.296875 11.75 
Q 45.40625 17.390625 45.40625 27.296875 
Q 45.40625 37.203125 41.296875 42.84375 
Q 37.203125 48.484375 30.078125 48.484375 
Q 22.953125 48.484375 18.875 42.84375 
Q 14.796875 37.203125 14.796875 27.296875 
z
" id="DejaVuSans-100"/>
      <path d="M 32.171875 -5.078125 
Q 28.375 -14.84375 24.75 -17.8125 
Q 21.140625 -20.796875 15.09375 -20.796875 
L 7.90625 -20.796875 
L 7.90625 -13.28125 
L 13.1875 -13.28125 
Q 16.890625 -13.28125 18.9375 -11.515625 
Q 21 -9.765625 23.484375 -3.21875 
L 25.09375 0.875 
L 2.984375 54.6875 
L 12.5 54.6875 
L 29.59375 11.921875 
L 46.6875 54.6875 
L 56.203125 54.6875 
z
" id="DejaVuSans-121"/>
     </defs>
     <use xlink:href="#DejaVuSans-116"/>
     <use x="39.208984" xlink:href="#DejaVuSans-101"/>
     <use x="100.732422" xlink:href="#DejaVuSans-109"/>
     <use x="198.144531" xlink:href="#DejaVuSans-112"/>
     <use x="261.621094" xlink:href="#DejaVuSans-101"/>
     <use x="323.144531" xlink:href="#DejaVuSans-114"/>
     <use x="364.257812" xlink:href="#DejaVuSans-97"/>
     <use x="425.537109" xlink:href="#DejaVuSans-116"/>
     <use x="464.746094" xlink:href="#DejaVuSans-117"/>
     <use x="528.125" xlink:href="#DejaVuSans-114"/>
     <use x="566.988281" xlink:href="#DejaVuSans-101"/>
     <use x="628.511719" xlink:href="#DejaVuSans-45"/>
     <use x="664.595703" xlink:href="#DejaVuSans-62"/>
     <use x="748.384766" xlink:href="#DejaVuSans-112"/>
     <use x="811.861328" xlink:href="#DejaVuSans-105"/>
     <use x="839.644531" xlink:href="#DejaVuSans-110"/>
     <use x="903.023438" xlink:href="#DejaVuSans-103"/>
     <use x="966.5" xlink:href="#DejaVuSans-95"/>
     <use x="1016.5" xlink:href="#DejaVuSans-100"/>
     <use x="1079.976562" xlink:href="#DejaVuSans-97"/>
     <use x="1141.255859" xlink:href="#DejaVuSans-121"/>
    </g>
   </g>
  </g>
  <g id="legend_1">
   <g id="patch_7">
    <path d="M 415.451563 22.678125 
L 453.8 22.678125 
Q 455.8 22.678125 455.8 20.678125 
L 455.8 7 
Q 455.8 5 453.8 5 
L 415.451563 5 
Q 413.451563 5 413.451563 7 
L 413.451563 20.678125 
Q 413.451563 22.678125 415.451563 22.678125 
z
" style="fill:#ffffff;opacity:0.8;stroke:#cccccc;stroke-linejoin:miter;"/>
   </g>
   <g id="line2d_16">
    <path d="M 417.451563 13.098438 
L 437.451563 13.098438 
" style="fill:none;stroke:#0000ff;stroke-linecap:square;stroke-width:1.5;"/>
   </g>
   <g id="line2d_17"/>
   <g id="text_17">
    <!-- p -->
    <g transform="translate(445.451563 16.598438)scale(0.1 -0.1)">
     <use xlink:href="#DejaVuSans-112"/>
    </g>
   </g>
  </g>
 </g>
 <defs>
  <clipPath id="p1a0fe8cd85">
   <rect height="266.112" width="357.12" x="57.6" y="41.472"/>
  </clipPath>
 </defs>
</svg>
