<?xml version="1.0" encoding="utf-8" standalone="no"?>
<!DOCTYPE svg PUBLIC "-//W3C//DTD SVG 1.1//EN"
  "http://www.w3.org/Graphics/SVG/1.1/DTD/svg11.dtd">
<!-- Created with matplotlib (https://matplotlib.org/) -->
<svg height="2090.594375pt" version="1.1" viewBox="0 0 2059.08125 2090.594375" width="2059.08125pt" xmlns="http://www.w3.org/2000/svg" xmlns:xlink="http://www.w3.org/1999/xlink">
 <metadata>
  <rdf:RDF xmlns:cc="http://creativecommons.org/ns#" xmlns:dc="http://purl.org/dc/elements/1.1/" xmlns:rdf="http://www.w3.org/1999/02/22-rdf-syntax-ns#">
   <cc:Work>
    <dc:type rdf:resource="http://purl.org/dc/dcmitype/StillImage"/>
    <dc:date>2022-07-23T20:59:53.530892</dc:date>
    <dc:format>image/svg+xml</dc:format>
    <dc:creator>
     <cc:Agent>
      <dc:title>Matplotlib v3.3.2, https://matplotlib.org/</dc:title>
     </cc:Agent>
    </dc:creator>
   </cc:Work>
  </rdf:RDF>
 </metadata>
 <defs>
  <style type="text/css">*{stroke-linecap:butt;stroke-linejoin:round;}</style>
 </defs>
 <g id="figure_1">
  <g id="patch_1">
   <path d="M 0 2090.594375 
L 2059.08125 2090.594375 
L 2059.08125 0 
L 0 0 
z
" style="fill:#ffffff;"/>
  </g>
  <g id="axes_1">
   <g id="patch_2">
    <path d="M 40.88125 2052.76 
L 1826.48125 2052.76 
L 1826.48125 278.68 
L 40.88125 278.68 
z
" style="fill:#ffffff;"/>
   </g>
   <g id="matplotlib.axis_1">
    <g id="xtick_1">
     <g id="line2d_1">
      <defs>
       <path d="M 0 0 
L 0 3.5 
" id="ma83587f675" style="stroke:#000000;stroke-width:0.8;"/>
      </defs>
      <g>
       <use style="stroke:#000000;stroke-width:0.8;" x="96.824547" xlink:href="#ma83587f675" y="2052.76"/>
      </g>
     </g>
     <g id="text_1">
      <text style="font-family:DejaVu Sans;font-size:10px;font-stretch:normal;font-style:normal;font-weight:normal;text-anchor:middle;" transform="rotate(-0, 96.824547, 2067.358437)" x="96.824547" y="2067.358437">0</text>
     </g>
    </g>
    <g id="xtick_2">
     <g id="line2d_2">
      <g>
       <use style="stroke:#000000;stroke-width:0.8;" x="326.100356" xlink:href="#ma83587f675" y="2052.76"/>
      </g>
     </g>
     <g id="text_2">
      <text style="font-family:DejaVu Sans;font-size:10px;font-stretch:normal;font-style:normal;font-weight:normal;text-anchor:middle;" transform="rotate(-0, 326.100356, 2067.358437)" x="326.100356" y="2067.358437">2</text>
     </g>
    </g>
    <g id="xtick_3">
     <g id="line2d_3">
      <g>
       <use style="stroke:#000000;stroke-width:0.8;" x="555.376165" xlink:href="#ma83587f675" y="2052.76"/>
      </g>
     </g>
     <g id="text_3">
      <text style="font-family:DejaVu Sans;font-size:10px;font-stretch:normal;font-style:normal;font-weight:normal;text-anchor:middle;" transform="rotate(-0, 555.376165, 2067.358437)" x="555.376165" y="2067.358437">4</text>
     </g>
    </g>
    <g id="xtick_4">
     <g id="line2d_4">
      <g>
       <use style="stroke:#000000;stroke-width:0.8;" x="784.651974" xlink:href="#ma83587f675" y="2052.76"/>
      </g>
     </g>
     <g id="text_4">
      <text style="font-family:DejaVu Sans;font-size:10px;font-stretch:normal;font-style:normal;font-weight:normal;text-anchor:middle;" transform="rotate(-0, 784.651974, 2067.358437)" x="784.651974" y="2067.358437">6</text>
     </g>
    </g>
    <g id="xtick_5">
     <g id="line2d_5">
      <g>
       <use style="stroke:#000000;stroke-width:0.8;" x="1013.927783" xlink:href="#ma83587f675" y="2052.76"/>
      </g>
     </g>
     <g id="text_5">
      <text style="font-family:DejaVu Sans;font-size:10px;font-stretch:normal;font-style:normal;font-weight:normal;text-anchor:middle;" transform="rotate(-0, 1013.927783, 2067.358437)" x="1013.927783" y="2067.358437">8</text>
     </g>
    </g>
    <g id="xtick_6">
     <g id="line2d_6">
      <g>
       <use style="stroke:#000000;stroke-width:0.8;" x="1243.203592" xlink:href="#ma83587f675" y="2052.76"/>
      </g>
     </g>
     <g id="text_6">
      <text style="font-family:DejaVu Sans;font-size:10px;font-stretch:normal;font-style:normal;font-weight:normal;text-anchor:middle;" transform="rotate(-0, 1243.203592, 2067.358437)" x="1243.203592" y="2067.358437">10</text>
     </g>
    </g>
    <g id="xtick_7">
     <g id="line2d_7">
      <g>
       <use style="stroke:#000000;stroke-width:0.8;" x="1472.479401" xlink:href="#ma83587f675" y="2052.76"/>
      </g>
     </g>
     <g id="text_7">
      <text style="font-family:DejaVu Sans;font-size:10px;font-stretch:normal;font-style:normal;font-weight:normal;text-anchor:middle;" transform="rotate(-0, 1472.479401, 2067.358437)" x="1472.479401" y="2067.358437">12</text>
     </g>
    </g>
    <g id="xtick_8">
     <g id="line2d_8">
      <g>
       <use style="stroke:#000000;stroke-width:0.8;" x="1701.75521" xlink:href="#ma83587f675" y="2052.76"/>
      </g>
     </g>
     <g id="text_8">
      <text style="font-family:DejaVu Sans;font-size:10px;font-stretch:normal;font-style:normal;font-weight:normal;text-anchor:middle;" transform="rotate(-0, 1701.75521, 2067.358437)" x="1701.75521" y="2067.358437">14</text>
     </g>
    </g>
    <g id="text_9">
     <text style="font-family:DejaVu Sans;font-size:10px;font-stretch:normal;font-style:normal;font-weight:normal;text-anchor:middle;" transform="rotate(-0, 933.68125, 2081.036562)" x="933.68125" y="2081.036562">wind_speed from OpenWeatherMap</text>
    </g>
   </g>
   <g id="matplotlib.axis_2">
    <g id="ytick_1">
     <g id="line2d_9">
      <defs>
       <path d="M 0 0 
L -3.5 0 
" id="m31e90b4331" style="stroke:#000000;stroke-width:0.8;"/>
      </defs>
      <g>
       <use style="stroke:#000000;stroke-width:0.8;" x="40.88125" xlink:href="#m31e90b4331" y="1997.184061"/>
      </g>
     </g>
     <g id="text_10">
      <text style="font-family:DejaVu Sans;font-size:10px;font-stretch:normal;font-style:normal;font-weight:normal;text-anchor:end;" transform="rotate(-0, 33.88125, 2000.983279)" x="33.88125" y="2000.983279">5</text>
     </g>
    </g>
    <g id="ytick_2">
     <g id="line2d_10">
      <g>
       <use style="stroke:#000000;stroke-width:0.8;" x="40.88125" xlink:href="#m31e90b4331" y="1756.183478"/>
      </g>
     </g>
     <g id="text_11">
      <text style="font-family:DejaVu Sans;font-size:10px;font-stretch:normal;font-style:normal;font-weight:normal;text-anchor:end;" transform="rotate(-0, 33.88125, 1759.982697)" x="33.88125" y="1759.982697">6</text>
     </g>
    </g>
    <g id="ytick_3">
     <g id="line2d_11">
      <g>
       <use style="stroke:#000000;stroke-width:0.8;" x="40.88125" xlink:href="#m31e90b4331" y="1515.182895"/>
      </g>
     </g>
     <g id="text_12">
      <text style="font-family:DejaVu Sans;font-size:10px;font-stretch:normal;font-style:normal;font-weight:normal;text-anchor:end;" transform="rotate(-0, 33.88125, 1518.982114)" x="33.88125" y="1518.982114">7</text>
     </g>
    </g>
    <g id="ytick_4">
     <g id="line2d_12">
      <g>
       <use style="stroke:#000000;stroke-width:0.8;" x="40.88125" xlink:href="#m31e90b4331" y="1274.182312"/>
      </g>
     </g>
     <g id="text_13">
      <text style="font-family:DejaVu Sans;font-size:10px;font-stretch:normal;font-style:normal;font-weight:normal;text-anchor:end;" transform="rotate(-0, 33.88125, 1277.981531)" x="33.88125" y="1277.981531">8</text>
     </g>
    </g>
    <g id="ytick_5">
     <g id="line2d_13">
      <g>
       <use style="stroke:#000000;stroke-width:0.8;" x="40.88125" xlink:href="#m31e90b4331" y="1033.18173"/>
      </g>
     </g>
     <g id="text_14">
      <text style="font-family:DejaVu Sans;font-size:10px;font-stretch:normal;font-style:normal;font-weight:normal;text-anchor:end;" transform="rotate(-0, 33.88125, 1036.980948)" x="33.88125" y="1036.980948">9</text>
     </g>
    </g>
    <g id="ytick_6">
     <g id="line2d_14">
      <g>
       <use style="stroke:#000000;stroke-width:0.8;" x="40.88125" xlink:href="#m31e90b4331" y="792.181147"/>
      </g>
     </g>
     <g id="text_15">
      <text style="font-family:DejaVu Sans;font-size:10px;font-stretch:normal;font-style:normal;font-weight:normal;text-anchor:end;" transform="rotate(-0, 33.88125, 795.980365)" x="33.88125" y="795.980365">10</text>
     </g>
    </g>
    <g id="ytick_7">
     <g id="line2d_15">
      <g>
       <use style="stroke:#000000;stroke-width:0.8;" x="40.88125" xlink:href="#m31e90b4331" y="551.180564"/>
      </g>
     </g>
     <g id="text_16">
      <text style="font-family:DejaVu Sans;font-size:10px;font-stretch:normal;font-style:normal;font-weight:normal;text-anchor:end;" transform="rotate(-0, 33.88125, 554.979783)" x="33.88125" y="554.979783">11</text>
     </g>
    </g>
    <g id="ytick_8">
     <g id="line2d_16">
      <g>
       <use style="stroke:#000000;stroke-width:0.8;" x="40.88125" xlink:href="#m31e90b4331" y="310.179981"/>
      </g>
     </g>
     <g id="text_17">
      <text style="font-family:DejaVu Sans;font-size:10px;font-stretch:normal;font-style:normal;font-weight:normal;text-anchor:end;" transform="rotate(-0, 33.88125, 313.9792)" x="33.88125" y="313.9792">12</text>
     </g>
    </g>
    <g id="text_18">
     <text style="font-family:DejaVu Sans;font-size:10px;font-stretch:normal;font-style:normal;font-weight:normal;text-anchor:middle;" transform="rotate(-90, 14.798438, 1165.72)" x="14.798438" y="1165.72">ping_day[ms]</text>
    </g>
   </g>
   <g id="line2d_17">
    <path clip-path="url(#pb4ab629c84)" d="M 122.044886 1784.731092 
L 128.923161 1802.033839 
L 132.362298 1867.083913 
L 143.826088 1635.442186 
L 150.704362 1658.578242 
L 156.436258 1836.155505 
L 166.753669 1869.052084 
L 170.192806 1928.83027 
L 171.339185 1931.832736 
L 179.363839 1924.599067 
L 182.802976 1901.98883 
L 185.095734 1926.149139 
L 186.242113 1658.979909 
L 191.974008 1872.546593 
L 193.120387 1921.871378 
L 194.266766 1922.775131 
L 195.413145 1527.802562 
L 202.291419 1964.782871 
L 203.437799 1847.669977 
L 204.584178 1937.49007 
L 209.169694 1900.060826 
L 211.462452 1921.911545 
L 212.608831 1887.348045 
L 217.194347 1831.817494 
L 218.340726 1951.104749 
L 220.633484 1876.241935 
L 222.926242 1840.192264 
L 224.072621 1890.280219 
L 225.219 1898.494322 
L 227.511758 1909.218848 
L 228.658138 1854.190381 
L 230.950896 1901.093685 
L 232.097275 1898.702459 
L 233.243654 1507.878724 
L 237.82917 1756.414 
L 238.975549 1895.602315 
L 242.414686 1937.564224 
L 243.561065 1664.74384 
L 244.707444 1857.925891 
L 245.853823 1897.79542 
L 248.146581 1885.388143 
L 250.439339 1928.639478 
L 251.585718 1870.739088 
L 253.878477 1794.703404 
L 256.171235 1724.672652 
L 257.317614 1909.459848 
L 258.463993 1927.474642 
L 259.610372 1947.939608 
L 261.90313 1917.854702 
L 264.195888 1928.378394 
L 265.342267 1840.904452 
L 267.635025 1972.12 
L 271.074162 1864.530454 
L 272.220541 1911.387853 
L 275.659678 1971.858916 
L 277.952436 1660.648012 
L 279.098815 1865.523588 
L 280.245195 1893.152142 
L 283.684332 1863.201913 
L 287.123469 1831.226469 
L 289.416227 1743.113831 
L 290.562606 1911.66902 
L 292.855364 1854.672383 
L 294.001743 1911.484253 
L 295.148122 1872.412703 
L 296.294501 1860.466438 
L 297.44088 1809.017691 
L 299.733638 1864.151739 
L 300.880017 1899.046086 
L 302.026396 1831.970128 
L 304.319154 1782.721085 
L 305.465534 1903.119679 
L 306.611913 1885.533009 
L 307.758292 1901.948664 
L 311.197429 1840.791897 
L 314.636566 1923.852939 
L 315.782945 1668.572678 
L 318.075703 1923.36759 
L 320.368461 1572.763496 
L 321.51484 1863.609488 
L 322.661219 1872.104758 
L 323.807598 1750.765785 
L 324.953977 1920.996442 
L 326.100356 1878.436501 
L 330.685872 1934.006204 
L 331.832252 1924.651492 
L 332.978631 1780.087723 
L 334.12501 1824.799787 
L 335.271389 1917.255693 
L 336.417768 1868.791 
L 337.564147 1846.291642 
L 338.710526 1659.720375 
L 342.149663 1938.117961 
L 349.027937 1912.91419 
L 351.320695 1814.385119 
L 352.467074 1934.463659 
L 353.613453 1802.315006 
L 354.759832 1902.256609 
L 355.906211 1949.305278 
L 357.052591 1869.453752 
L 358.19897 1919.108635 
L 359.345349 1951.27345 
L 360.491728 1910.721557 
L 361.638107 1916.8907 
L 362.784486 1747.952381 
L 363.930865 1961.463583 
L 366.223623 1899.096823 
L 367.370002 1898.976323 
L 368.516381 1738.630602 
L 373.101897 1944.5174 
L 374.248276 1941.934677 
L 375.394655 1928.606006 
L 376.541034 1747.109282 
L 378.833792 1858.293571 
L 379.980171 1852.47248 
L 381.12655 1870.877846 
L 382.27293 1903.3545 
L 383.419309 1953.059045 
L 384.565688 1914.912487 
L 385.712067 1918.935991 
L 388.004825 1849.691704 
L 389.151204 1847.493308 
L 390.297583 1930.056791 
L 391.443962 1868.991834 
L 392.590341 1887.977555 
L 393.73672 1793.509356 
L 394.883099 1867.00071 
L 396.029478 1831.998244 
L 397.175857 1951.283491 
L 398.322236 1874.87024 
L 399.468615 1884.9849 
L 400.614994 1951.875951 
L 402.907752 1906.824909 
L 404.054131 1863.08732 
L 405.20051 1645.34731 
L 406.346889 1918.791927 
L 407.493268 1763.179189 
L 408.639648 1949.104444 
L 410.932406 1914.761861 
L 412.078785 1843.718332 
L 414.371543 1886.389064 
L 416.664301 1882.4477 
L 417.81068 1816.569841 
L 418.957059 1899.977722 
L 420.103438 1881.282864 
L 421.249817 1932.447596 
L 422.396196 1887.35407 
L 423.542575 1910.21177 
L 424.688954 1813.565129 
L 425.835333 1893.388915 
L 428.128091 1856.886018 
L 429.27447 1821.615136 
L 430.420849 1796.378184 
L 431.567228 1827.051826 
L 432.713607 1804.845512 
L 433.859987 1917.182345 
L 435.006366 1895.493865 
L 437.299124 1884.301278 
L 438.445503 1949.706946 
L 439.591882 1909.55844 
L 440.738261 1814.323639 
L 441.88464 1828.242652 
L 444.177398 1878.790803 
L 445.323777 1808.593071 
L 446.470156 1798.93177 
L 447.616535 1825.203694 
L 448.762914 1929.366497 
L 449.909293 1889.184902 
L 451.055672 1715.055007 
L 452.202051 1801.437485 
L 453.34843 1835.266098 
L 455.641188 1745.405396 
L 456.787567 1793.468276 
L 457.933946 1876.563269 
L 459.080326 1898.471856 
L 460.226705 1846.036528 
L 461.373084 1824.283357 
L 462.519463 1830.652658 
L 463.665842 1917.091534 
L 464.812221 1752.656106 
L 465.9586 1895.180564 
L 467.104979 1821.351183 
L 468.251358 1782.552958 
L 469.397737 1858.412355 
L 470.544116 1903.529138 
L 471.690495 1935.279478 
L 473.983253 1878.953191 
L 475.129632 1888.171464 
L 477.42239 1884.734974 
L 478.568769 1678.474179 
L 479.715148 1841.170612 
L 480.861527 1883.133404 
L 482.007906 1861.263329 
L 483.154285 1919.844783 
L 484.300664 1873.430261 
L 485.447044 1922.911251 
L 486.593423 1879.387167 
L 487.739802 1785.344548 
L 488.886181 1872.104758 
L 490.03256 1893.573893 
L 491.178939 1746.704122 
L 492.325318 1950.602091 
L 494.618076 1864.673907 
L 495.764455 1967.581156 
L 496.910834 1844.89532 
L 498.057213 1956.816463 
L 499.203592 1926.902266 
L 500.349971 1912.550943 
L 501.49635 1948.652568 
L 502.642729 1855.926008 
L 503.789108 1781.415856 
L 504.935487 1895.983096 
L 506.081866 1794.801411 
L 507.228245 1895.325164 
L 508.374624 1836.901459 
L 510.667383 1872.230498 
L 511.813762 1870.434968 
L 512.960141 1927.414392 
L 514.10652 1818.766947 
L 516.399278 1944.422785 
L 517.545657 1903.625972 
L 518.692036 1748.612735 
L 519.838415 1915.243862 
L 520.984794 1807.000172 
L 522.131173 1915.414895 
L 523.277552 1960.379829 
L 524.423931 1964.6928 
L 526.716689 1876.501297 
L 527.863068 1933.57999 
L 529.009447 1878.150729 
L 530.155826 1882.548117 
L 531.302205 1936.176485 
L 532.448584 1569.029311 
L 533.594963 1917.647689 
L 534.741342 1908.822363 
L 535.887721 1945.93127 
L 537.034101 1867.22048 
L 538.18048 1922.825339 
L 539.326859 1772.266578 
L 540.473238 1915.329934 
L 541.619617 1869.401033 
L 542.765996 1945.444678 
L 545.058754 1765.882614 
L 546.205133 1932.010617 
L 547.351512 1913.219458 
L 548.497891 1918.669514 
L 550.790649 1892.113545 
L 551.937028 1907.271563 
L 553.083407 1822.579138 
L 555.376165 1521.586625 
L 556.522544 1746.486749 
L 557.668923 1938.827491 
L 558.815302 1433.724698 
L 559.961681 1866.4225 
L 561.10806 1790.615126 
L 562.25444 1876.793315 
L 563.400819 1692.935285 
L 564.547198 1882.140711 
L 565.693577 1897.235763 
L 566.839956 1851.318458 
L 567.986335 1733.219565 
L 569.132714 1905.549066 
L 570.279093 1939.765672 
L 571.425472 1869.099339 
L 572.571851 1888.418644 
L 574.864609 1971.718332 
L 576.010988 1762.591622 
L 577.157367 1811.068741 
L 578.303746 1893.75639 
L 579.450125 1843.184688 
L 582.889262 1893.272643 
L 585.18202 1664.226038 
L 588.621158 1931.903028 
L 589.767537 1675.187199 
L 590.913916 1901.68758 
L 592.060295 1854.589686 
L 593.206674 1911.301093 
L 594.353053 1957.250264 
L 595.499432 1789.602225 
L 596.645811 1512.626193 
L 598.938569 1888.733798 
L 601.231327 1898.815656 
L 602.377706 1638.213693 
L 603.524085 1870.116503 
L 604.670464 1840.898439 
L 605.816843 1952.165152 
L 606.963222 1918.224236 
L 608.109601 1924.883886 
L 609.25598 1892.038949 
L 610.402359 1850.73604 
L 613.841497 1431.154025 
L 614.987876 1612.466797 
L 616.134255 1848.446534 
L 617.280634 1914.910169 
L 618.427013 1874.958961 
L 619.573392 1578.746799 
L 620.719771 1865.465581 
L 621.86615 1953.597384 
L 623.012529 1724.440258 
L 624.158908 1788.698473 
L 625.305287 1924.613673 
L 627.598045 1848.548895 
L 629.890803 1821.850399 
L 634.476319 1484.076606 
L 635.622698 1948.823277 
L 636.769077 1859.669128 
L 637.915456 1750.4222 
L 639.061836 1866.071287 
L 640.208215 1904.854642 
L 642.500973 1818.095259 
L 643.647352 1829.989906 
L 644.793731 1552.844713 
L 645.94011 1773.039342 
L 647.086489 1913.176331 
L 648.232868 1615.6616 
L 649.379247 1860.55601 
L 650.525626 1892.228307 
L 651.672005 1812.75167 
L 652.818384 1816.883057 
L 653.964763 1732.937876 
L 655.111142 1923.196882 
L 657.4039 1813.041981 
L 658.550279 1813.702284 
L 659.696658 1896.084316 
L 660.843037 1918.638827 
L 661.989416 1759.557486 
L 663.135795 1792.009461 
L 664.282174 1886.974494 
L 665.428554 1665.639559 
L 666.574933 1686.02553 
L 667.721312 1777.730715 
L 668.867691 1903.406481 
L 671.160449 1837.354328 
L 672.306828 1869.529064 
L 673.453207 1938.556652 
L 676.892344 1777.188581 
L 678.038723 1572.480784 
L 679.185102 1873.952429 
L 680.331481 1824.025142 
L 681.47786 1942.687804 
L 682.624239 1770.421051 
L 683.770618 1722.092374 
L 684.916997 1831.513374 
L 686.063376 1856.660637 
L 687.209755 1624.346519 
L 688.356134 1916.549282 
L 689.502513 1902.952833 
L 690.648893 1767.404181 
L 691.795272 1893.63816 
L 692.941651 1793.31263 
L 694.08803 1923.024738 
L 695.234409 1812.271729 
L 696.380788 1583.827894 
L 697.527167 1752.108377 
L 698.673546 1434.360063 
L 699.819925 1704.609353 
L 702.112683 1838.50526 
L 703.259062 1823.795096 
L 704.405441 1716.659382 
L 705.55182 1855.535968 
L 706.698199 1812.225383 
L 707.844578 1880.584616 
L 708.990957 1459.402215 
L 710.137336 1871.713132 
L 712.430094 1616.314609 
L 713.576473 1319.433041 
L 714.722852 1926.532019 
L 715.869232 1828.58407 
L 719.308369 1917.449945 
L 720.454748 1835.52087 
L 721.601127 1642.014086 
L 722.747506 1869.898264 
L 723.893885 1897.361619 
L 726.186643 1858.766622 
L 727.333022 1701.603934 
L 728.479401 1809.181697 
L 729.62578 1801.893255 
L 731.918538 1802.628809 
L 734.211296 1643.539805 
L 735.357675 1792.64872 
L 736.504054 1854.993717 
L 737.650433 1803.781093 
L 738.796812 1511.929387 
L 741.08957 1849.812204 
L 743.382329 1804.604512 
L 744.528708 1545.356168 
L 745.675087 1770.933949 
L 746.821466 1930.463976 
L 747.967845 1922.105291 
L 750.260603 1075.795014 
L 751.406982 1871.361673 
L 752.553361 1709.389198 
L 753.69974 1907.090009 
L 754.846119 1411.150977 
L 755.992498 1822.900472 
L 757.138877 1869.541388 
L 758.285256 1897.988221 
L 760.578014 1841.045808 
L 762.870772 1708.891748 
L 765.16353 1700.893927 
L 766.309909 1668.057598 
L 767.456289 1791.038187 
L 769.749047 1817.002385 
L 770.895426 1665.54535 
L 772.041805 1796.504729 
L 773.188184 1792.634816 
L 774.334563 1883.210868 
L 775.480942 1834.749668 
L 777.7737 1785.760822 
L 780.066458 1862.926653 
L 781.212837 1927.672607 
L 782.359216 1661.20361 
L 783.505595 1594.873754 
L 784.651974 1410.648892 
L 785.798353 1676.6464 
L 786.944732 1806.271432 
L 789.23749 1694.204415 
L 790.383869 1884.663566 
L 791.530248 1581.785128 
L 793.823007 1931.366801 
L 794.969386 1751.89711 
L 797.262144 1916.268115 
L 798.408523 1904.615737 
L 799.554902 1904.53942 
L 800.701281 1828.326478 
L 801.84766 1895.361314 
L 806.433176 1624.285867 
L 807.579555 1791.088396 
L 808.725934 1881.455581 
L 809.872313 1726.612706 
L 811.018692 1898.121867 
L 812.165071 1132.092385 
L 814.457829 1890.590154 
L 815.604208 1799.081582 
L 816.750587 1802.321701 
L 819.043346 1774.29295 
L 820.189725 1731.045263 
L 821.336104 1815.23386 
L 823.628862 1637.899053 
L 827.067999 1403.358625 
L 828.214378 1836.772351 
L 830.507136 1650.755765 
L 831.653515 1788.66185 
L 832.799894 1379.087858 
L 833.946273 1843.144521 
L 835.092652 1900.62316 
L 837.38541 1940.439378 
L 839.678168 1868.288916 
L 840.824547 1783.378203 
L 841.970926 1867.284746 
L 843.117305 1884.154787 
L 844.263685 1864.362614 
L 845.410064 1841.125229 
L 846.556443 1242.584458 
L 848.849201 1830.620524 
L 849.99558 1878.089606 
L 851.141959 1966.335986 
L 855.727475 1905.041504 
L 856.873854 1874.321964 
L 858.020233 1915.846364 
L 859.166612 1782.736071 
L 860.312991 1746.354562 
L 861.45937 1915.083195 
L 862.605749 1087.436986 
L 863.752128 1674.162946 
L 866.044886 1863.750071 
L 867.191265 1842.582187 
L 869.484023 1812.175947 
L 870.630403 1873.631095 
L 871.776782 1732.374629 
L 874.06954 1925.44622 
L 877.508677 1802.952197 
L 878.655056 1715.963158 
L 879.801435 1917.814535 
L 880.947814 1747.221827 
L 882.094193 1831.790716 
L 884.386951 1765.052299 
L 885.53333 1918.652299 
L 886.679709 1800.668169 
L 888.972467 1903.856585 
L 890.118846 1434.899576 
L 891.265225 1919.822874 
L 892.411604 1907.087895 
L 893.557983 1552.625622 
L 894.704362 1900.50266 
L 895.850742 1761.30474 
L 896.997121 1725.504104 
L 900.436258 1887.143195 
L 901.582637 1688.496743 
L 905.021774 1855.877386 
L 909.60729 1934.244856 
L 910.753669 1885.951337 
L 913.046427 1802.45559 
L 915.339185 1886.966461 
L 917.631943 1864.236089 
L 918.778322 1939.504588 
L 919.924701 1909.083285 
L 923.363839 1807.998603 
L 924.510218 1816.123766 
L 925.656597 1900.082735 
L 927.949355 1838.003176 
L 930.242113 1934.664493 
L 931.388492 1909.580349 
L 938.266766 1776.565241 
L 939.413145 1704.810187 
L 941.705903 1856.778906 
L 942.852282 1434.38745 
L 943.998661 1939.068492 
L 945.14504 1632.751013 
L 947.437799 1916.930867 
L 948.584178 1877.005103 
L 949.730557 1690.679519 
L 955.462452 1880.760696 
L 956.608831 1797.431654 
L 957.75521 1728.687502 
L 960.047968 1905.84484 
L 963.487105 1872.652487 
L 965.779863 1852.046094 
L 968.072621 1835.96085 
L 969.219 1883.320554 
L 973.804517 1853.607963 
L 976.097275 1780.214679 
L 977.243654 1813.019449 
L 979.536412 1832.580663 
L 980.682791 1858.006224 
L 981.82917 1810.549193 
L 984.121928 1630.91879 
L 985.268307 1312.280488 
L 986.414686 1509.222765 
L 989.853823 1837.893154 
L 993.29296 1736.327708 
L 996.732097 1892.217352 
L 999.024856 896.373732 
L 1000.171235 1822.013714 
L 1001.317614 1819.18103 
L 1003.610372 1691.374404 
L 1004.756751 1748.65221 
L 1005.90313 1550.201328 
L 1008.195888 1938.801669 
L 1010.488646 1913.074857 
L 1012.781404 1698.081381 
L 1017.36692 1762.746109 
L 1018.513299 1912.773606 
L 1019.659678 1836.677672 
L 1021.952436 1846.982857 
L 1024.245195 1395.069926 
L 1025.391574 1962.31931 
L 1029.97709 1644.881375 
L 1032.269848 1709.409281 
L 1038.001743 1949.767196 
L 1039.148122 1826.590077 
L 1040.294501 1737.445683 
L 1042.587259 1895.361314 
L 1043.733638 1698.232879 
L 1046.026396 1807.365977 
L 1052.904671 1667.676014 
L 1054.05105 1801.095103 
L 1057.490187 1870.589897 
L 1065.51484 1884.299388 
L 1067.807598 1675.709367 
L 1070.100356 1682.027599 
L 1076.978631 1748.278659 
L 1083.856905 1466.922528 
L 1087.296042 359.32 
L 1091.881558 1318.246859 
L 1107.930865 1821.789192 
L 1109.077244 1681.617898 
L 1111.370002 1621.544486 
L 1125.12655 1795.311644 
L 1142.322236 1773.194102 
L 1148.054131 1480.264588 
L 1156.078785 1788.176305 
L 1162.957059 1830.438435 
L 1172.128091 1744.213782 
L 1191.616535 1414.685652 
L 1199.641188 1738.951936 
L 1208.812221 1791.640689 
L 1236.325318 1721.519561 
L 1242.057213 1707.882944 
L 1418.599586 1854.993717 
L 1745.317614 1733.790507 
L 1745.317614 1733.790507 
" style="fill:none;stroke:#0000ff;stroke-linecap:square;stroke-width:1.5;"/>
   </g>
   <g id="patch_3">
    <path d="M 40.88125 2052.76 
L 40.88125 278.68 
" style="fill:none;stroke:#000000;stroke-linecap:square;stroke-linejoin:miter;stroke-width:0.8;"/>
   </g>
   <g id="patch_4">
    <path d="M 1826.48125 2052.76 
L 1826.48125 278.68 
" style="fill:none;stroke:#000000;stroke-linecap:square;stroke-linejoin:miter;stroke-width:0.8;"/>
   </g>
   <g id="patch_5">
    <path d="M 40.88125 2052.76 
L 1826.48125 2052.76 
" style="fill:none;stroke:#000000;stroke-linecap:square;stroke-linejoin:miter;stroke-width:0.8;"/>
   </g>
   <g id="patch_6">
    <path d="M 40.88125 278.68 
L 1826.48125 278.68 
" style="fill:none;stroke:#000000;stroke-linecap:square;stroke-linejoin:miter;stroke-width:0.8;"/>
   </g>
   <g id="text_19">
    <text style="font-family:DejaVu Sans;font-size:12px;font-stretch:normal;font-style:normal;font-weight:normal;text-anchor:middle;" transform="rotate(-0, 933.68125, 272.68)" x="933.68125" y="272.68">wind_speed-&gt;ping_day</text>
   </g>
  </g>
  <g id="legend_1">
   <g id="patch_7">
    <path d="M 1952.120312 22.95625 
L 2052.08125 22.95625 
Q 2054.08125 22.95625 2054.08125 20.95625 
L 2054.08125 7 
Q 2054.08125 5 2052.08125 5 
L 1952.120312 5 
Q 1950.120312 5 1950.120312 7 
L 1950.120312 20.95625 
Q 1950.120312 22.95625 1952.120312 22.95625 
z
" style="fill:#ffffff;opacity:0.8;stroke:#cccccc;stroke-linejoin:miter;"/>
   </g>
   <g id="line2d_18">
    <path d="M 1954.120312 13.098438 
L 1974.120312 13.098438 
" style="fill:none;stroke:#0000ff;stroke-linecap:square;stroke-width:1.5;"/>
   </g>
   <g id="line2d_19"/>
   <g id="text_20">
    <text style="font-family:DejaVu Sans;font-size:10px;font-stretch:normal;font-style:normal;font-weight:normal;text-anchor:start;" transform="rotate(-0, 1982.120312, 16.598438)" x="1982.120312" y="16.598438">ping_day[ms]</text>
   </g>
  </g>
 </g>
 <defs>
  <clipPath id="pb4ab629c84">
   <rect height="1774.08" width="1785.6" x="40.88125" y="278.68"/>
  </clipPath>
 </defs>
</svg>
