<?xml version="1.0" encoding="utf-8" standalone="no"?>
<!DOCTYPE svg PUBLIC "-//W3C//DTD SVG 1.1//EN"
  "http://www.w3.org/Graphics/SVG/1.1/DTD/svg11.dtd">
<!-- Created with matplotlib (https://matplotlib.org/) -->
<svg height="345.6pt" version="1.1" viewBox="0 0 460.8 345.6" width="460.8pt" xmlns="http://www.w3.org/2000/svg" xmlns:xlink="http://www.w3.org/1999/xlink">
 <metadata>
  <rdf:RDF xmlns:cc="http://creativecommons.org/ns#" xmlns:dc="http://purl.org/dc/elements/1.1/" xmlns:rdf="http://www.w3.org/1999/02/22-rdf-syntax-ns#">
   <cc:Work>
    <dc:type rdf:resource="http://purl.org/dc/dcmitype/StillImage"/>
    <dc:date>2022-07-16T17:54:53.139303</dc:date>
    <dc:format>image/svg+xml</dc:format>
    <dc:creator>
     <cc:Agent>
      <dc:title>Matplotlib v3.3.2, https://matplotlib.org/</dc:title>
     </cc:Agent>
    </dc:creator>
   </cc:Work>
  </rdf:RDF>
 </metadata>
 <defs>
  <style type="text/css">*{stroke-linecap:butt;stroke-linejoin:round;}</style>
 </defs>
 <g id="figure_1">
  <g id="patch_1">
   <path d="M 0 345.6 
L 460.8 345.6 
L 460.8 0 
L 0 0 
z
" style="fill:#ffffff;"/>
  </g>
  <g id="axes_1">
   <g id="patch_2">
    <path d="M 57.6 307.584 
L 414.72 307.584 
L 414.72 41.472 
L 57.6 41.472 
z
" style="fill:#ffffff;"/>
   </g>
   <g id="matplotlib.axis_1">
    <g id="xtick_1">
     <g id="line2d_1">
      <defs>
       <path d="M 0 0 
L 0 3.5 
" id="m3671189fa4" style="stroke:#000000;stroke-width:0.8;"/>
      </defs>
      <g>
       <use style="stroke:#000000;stroke-width:0.8;" x="66.079036" xlink:href="#m3671189fa4" y="307.584"/>
      </g>
     </g>
     <g id="text_1">
      <!-- 5 -->
      <g transform="translate(62.897786 322.182437)scale(0.1 -0.1)">
       <defs>
        <path d="M 10.796875 72.90625 
L 49.515625 72.90625 
L 49.515625 64.59375 
L 19.828125 64.59375 
L 19.828125 46.734375 
Q 21.96875 47.46875 24.109375 47.828125 
Q 26.265625 48.1875 28.421875 48.1875 
Q 40.625 48.1875 47.75 41.5 
Q 54.890625 34.8125 54.890625 23.390625 
Q 54.890625 11.625 47.5625 5.09375 
Q 40.234375 -1.421875 26.90625 -1.421875 
Q 22.3125 -1.421875 17.546875 -0.640625 
Q 12.796875 0.140625 7.71875 1.703125 
L 7.71875 11.625 
Q 12.109375 9.234375 16.796875 8.0625 
Q 21.484375 6.890625 26.703125 6.890625 
Q 35.15625 6.890625 40.078125 11.328125 
Q 45.015625 15.765625 45.015625 23.390625 
Q 45.015625 31 40.078125 35.4375 
Q 35.15625 39.890625 26.703125 39.890625 
Q 22.75 39.890625 18.8125 39.015625 
Q 14.890625 38.140625 10.796875 36.28125 
z
" id="DejaVuSans-53"/>
       </defs>
       <use xlink:href="#DejaVuSans-53"/>
      </g>
     </g>
    </g>
    <g id="xtick_2">
     <g id="line2d_2">
      <g>
       <use style="stroke:#000000;stroke-width:0.8;" x="128.608802" xlink:href="#m3671189fa4" y="307.584"/>
      </g>
     </g>
     <g id="text_2">
      <!-- 10 -->
      <g transform="translate(122.246302 322.182437)scale(0.1 -0.1)">
       <defs>
        <path d="M 12.40625 8.296875 
L 28.515625 8.296875 
L 28.515625 63.921875 
L 10.984375 60.40625 
L 10.984375 69.390625 
L 28.421875 72.90625 
L 38.28125 72.90625 
L 38.28125 8.296875 
L 54.390625 8.296875 
L 54.390625 0 
L 12.40625 0 
z
" id="DejaVuSans-49"/>
        <path d="M 31.78125 66.40625 
Q 24.171875 66.40625 20.328125 58.90625 
Q 16.5 51.421875 16.5 36.375 
Q 16.5 21.390625 20.328125 13.890625 
Q 24.171875 6.390625 31.78125 6.390625 
Q 39.453125 6.390625 43.28125 13.890625 
Q 47.125 21.390625 47.125 36.375 
Q 47.125 51.421875 43.28125 58.90625 
Q 39.453125 66.40625 31.78125 66.40625 
z
M 31.78125 74.21875 
Q 44.046875 74.21875 50.515625 64.515625 
Q 56.984375 54.828125 56.984375 36.375 
Q 56.984375 17.96875 50.515625 8.265625 
Q 44.046875 -1.421875 31.78125 -1.421875 
Q 19.53125 -1.421875 13.0625 8.265625 
Q 6.59375 17.96875 6.59375 36.375 
Q 6.59375 54.828125 13.0625 64.515625 
Q 19.53125 74.21875 31.78125 74.21875 
z
" id="DejaVuSans-48"/>
       </defs>
       <use xlink:href="#DejaVuSans-49"/>
       <use x="63.623047" xlink:href="#DejaVuSans-48"/>
      </g>
     </g>
    </g>
    <g id="xtick_3">
     <g id="line2d_3">
      <g>
       <use style="stroke:#000000;stroke-width:0.8;" x="191.138568" xlink:href="#m3671189fa4" y="307.584"/>
      </g>
     </g>
     <g id="text_3">
      <!-- 15 -->
      <g transform="translate(184.776068 322.182437)scale(0.1 -0.1)">
       <use xlink:href="#DejaVuSans-49"/>
       <use x="63.623047" xlink:href="#DejaVuSans-53"/>
      </g>
     </g>
    </g>
    <g id="xtick_4">
     <g id="line2d_4">
      <g>
       <use style="stroke:#000000;stroke-width:0.8;" x="253.668335" xlink:href="#m3671189fa4" y="307.584"/>
      </g>
     </g>
     <g id="text_4">
      <!-- 20 -->
      <g transform="translate(247.305835 322.182437)scale(0.1 -0.1)">
       <defs>
        <path d="M 19.1875 8.296875 
L 53.609375 8.296875 
L 53.609375 0 
L 7.328125 0 
L 7.328125 8.296875 
Q 12.9375 14.109375 22.625 23.890625 
Q 32.328125 33.6875 34.8125 36.53125 
Q 39.546875 41.84375 41.421875 45.53125 
Q 43.3125 49.21875 43.3125 52.78125 
Q 43.3125 58.59375 39.234375 62.25 
Q 35.15625 65.921875 28.609375 65.921875 
Q 23.96875 65.921875 18.8125 64.3125 
Q 13.671875 62.703125 7.8125 59.421875 
L 7.8125 69.390625 
Q 13.765625 71.78125 18.9375 73 
Q 24.125 74.21875 28.421875 74.21875 
Q 39.75 74.21875 46.484375 68.546875 
Q 53.21875 62.890625 53.21875 53.421875 
Q 53.21875 48.921875 51.53125 44.890625 
Q 49.859375 40.875 45.40625 35.40625 
Q 44.1875 33.984375 37.640625 27.21875 
Q 31.109375 20.453125 19.1875 8.296875 
z
" id="DejaVuSans-50"/>
       </defs>
       <use xlink:href="#DejaVuSans-50"/>
       <use x="63.623047" xlink:href="#DejaVuSans-48"/>
      </g>
     </g>
    </g>
    <g id="xtick_5">
     <g id="line2d_5">
      <g>
       <use style="stroke:#000000;stroke-width:0.8;" x="316.198101" xlink:href="#m3671189fa4" y="307.584"/>
      </g>
     </g>
     <g id="text_5">
      <!-- 25 -->
      <g transform="translate(309.835601 322.182437)scale(0.1 -0.1)">
       <use xlink:href="#DejaVuSans-50"/>
       <use x="63.623047" xlink:href="#DejaVuSans-53"/>
      </g>
     </g>
    </g>
    <g id="xtick_6">
     <g id="line2d_6">
      <g>
       <use style="stroke:#000000;stroke-width:0.8;" x="378.727867" xlink:href="#m3671189fa4" y="307.584"/>
      </g>
     </g>
     <g id="text_6">
      <!-- 30 -->
      <g transform="translate(372.365367 322.182437)scale(0.1 -0.1)">
       <defs>
        <path d="M 40.578125 39.3125 
Q 47.65625 37.796875 51.625 33 
Q 55.609375 28.21875 55.609375 21.1875 
Q 55.609375 10.40625 48.1875 4.484375 
Q 40.765625 -1.421875 27.09375 -1.421875 
Q 22.515625 -1.421875 17.65625 -0.515625 
Q 12.796875 0.390625 7.625 2.203125 
L 7.625 11.71875 
Q 11.71875 9.328125 16.59375 8.109375 
Q 21.484375 6.890625 26.8125 6.890625 
Q 36.078125 6.890625 40.9375 10.546875 
Q 45.796875 14.203125 45.796875 21.1875 
Q 45.796875 27.640625 41.28125 31.265625 
Q 36.765625 34.90625 28.71875 34.90625 
L 20.21875 34.90625 
L 20.21875 43.015625 
L 29.109375 43.015625 
Q 36.375 43.015625 40.234375 45.921875 
Q 44.09375 48.828125 44.09375 54.296875 
Q 44.09375 59.90625 40.109375 62.90625 
Q 36.140625 65.921875 28.71875 65.921875 
Q 24.65625 65.921875 20.015625 65.03125 
Q 15.375 64.15625 9.8125 62.3125 
L 9.8125 71.09375 
Q 15.4375 72.65625 20.34375 73.4375 
Q 25.25 74.21875 29.59375 74.21875 
Q 40.828125 74.21875 47.359375 69.109375 
Q 53.90625 64.015625 53.90625 55.328125 
Q 53.90625 49.265625 50.4375 45.09375 
Q 46.96875 40.921875 40.578125 39.3125 
z
" id="DejaVuSans-51"/>
       </defs>
       <use xlink:href="#DejaVuSans-51"/>
       <use x="63.623047" xlink:href="#DejaVuSans-48"/>
      </g>
     </g>
    </g>
    <g id="text_7">
     <!-- temperature from OpenWeatherMap -->
     <g transform="translate(144.963906 335.860562)scale(0.1 -0.1)">
      <defs>
       <path d="M 18.3125 70.21875 
L 18.3125 54.6875 
L 36.8125 54.6875 
L 36.8125 47.703125 
L 18.3125 47.703125 
L 18.3125 18.015625 
Q 18.3125 11.328125 20.140625 9.421875 
Q 21.96875 7.515625 27.59375 7.515625 
L 36.8125 7.515625 
L 36.8125 0 
L 27.59375 0 
Q 17.1875 0 13.234375 3.875 
Q 9.28125 7.765625 9.28125 18.015625 
L 9.28125 47.703125 
L 2.6875 47.703125 
L 2.6875 54.6875 
L 9.28125 54.6875 
L 9.28125 70.21875 
z
" id="DejaVuSans-116"/>
       <path d="M 56.203125 29.59375 
L 56.203125 25.203125 
L 14.890625 25.203125 
Q 15.484375 15.921875 20.484375 11.0625 
Q 25.484375 6.203125 34.421875 6.203125 
Q 39.59375 6.203125 44.453125 7.46875 
Q 49.3125 8.734375 54.109375 11.28125 
L 54.109375 2.78125 
Q 49.265625 0.734375 44.1875 -0.34375 
Q 39.109375 -1.421875 33.890625 -1.421875 
Q 20.796875 -1.421875 13.15625 6.1875 
Q 5.515625 13.8125 5.515625 26.8125 
Q 5.515625 40.234375 12.765625 48.109375 
Q 20.015625 56 32.328125 56 
Q 43.359375 56 49.78125 48.890625 
Q 56.203125 41.796875 56.203125 29.59375 
z
M 47.21875 32.234375 
Q 47.125 39.59375 43.09375 43.984375 
Q 39.0625 48.390625 32.421875 48.390625 
Q 24.90625 48.390625 20.390625 44.140625 
Q 15.875 39.890625 15.1875 32.171875 
z
" id="DejaVuSans-101"/>
       <path d="M 52 44.1875 
Q 55.375 50.25 60.0625 53.125 
Q 64.75 56 71.09375 56 
Q 79.640625 56 84.28125 50.015625 
Q 88.921875 44.046875 88.921875 33.015625 
L 88.921875 0 
L 79.890625 0 
L 79.890625 32.71875 
Q 79.890625 40.578125 77.09375 44.375 
Q 74.3125 48.1875 68.609375 48.1875 
Q 61.625 48.1875 57.5625 43.546875 
Q 53.515625 38.921875 53.515625 30.90625 
L 53.515625 0 
L 44.484375 0 
L 44.484375 32.71875 
Q 44.484375 40.625 41.703125 44.40625 
Q 38.921875 48.1875 33.109375 48.1875 
Q 26.21875 48.1875 22.15625 43.53125 
Q 18.109375 38.875 18.109375 30.90625 
L 18.109375 0 
L 9.078125 0 
L 9.078125 54.6875 
L 18.109375 54.6875 
L 18.109375 46.1875 
Q 21.1875 51.21875 25.484375 53.609375 
Q 29.78125 56 35.6875 56 
Q 41.65625 56 45.828125 52.96875 
Q 50 49.953125 52 44.1875 
z
" id="DejaVuSans-109"/>
       <path d="M 18.109375 8.203125 
L 18.109375 -20.796875 
L 9.078125 -20.796875 
L 9.078125 54.6875 
L 18.109375 54.6875 
L 18.109375 46.390625 
Q 20.953125 51.265625 25.265625 53.625 
Q 29.59375 56 35.59375 56 
Q 45.5625 56 51.78125 48.09375 
Q 58.015625 40.1875 58.015625 27.296875 
Q 58.015625 14.40625 51.78125 6.484375 
Q 45.5625 -1.421875 35.59375 -1.421875 
Q 29.59375 -1.421875 25.265625 0.953125 
Q 20.953125 3.328125 18.109375 8.203125 
z
M 48.6875 27.296875 
Q 48.6875 37.203125 44.609375 42.84375 
Q 40.53125 48.484375 33.40625 48.484375 
Q 26.265625 48.484375 22.1875 42.84375 
Q 18.109375 37.203125 18.109375 27.296875 
Q 18.109375 17.390625 22.1875 11.75 
Q 26.265625 6.109375 33.40625 6.109375 
Q 40.53125 6.109375 44.609375 11.75 
Q 48.6875 17.390625 48.6875 27.296875 
z
" id="DejaVuSans-112"/>
       <path d="M 41.109375 46.296875 
Q 39.59375 47.171875 37.8125 47.578125 
Q 36.03125 48 33.890625 48 
Q 26.265625 48 22.1875 43.046875 
Q 18.109375 38.09375 18.109375 28.8125 
L 18.109375 0 
L 9.078125 0 
L 9.078125 54.6875 
L 18.109375 54.6875 
L 18.109375 46.1875 
Q 20.953125 51.171875 25.484375 53.578125 
Q 30.03125 56 36.53125 56 
Q 37.453125 56 38.578125 55.875 
Q 39.703125 55.765625 41.0625 55.515625 
z
" id="DejaVuSans-114"/>
       <path d="M 34.28125 27.484375 
Q 23.390625 27.484375 19.1875 25 
Q 14.984375 22.515625 14.984375 16.5 
Q 14.984375 11.71875 18.140625 8.90625 
Q 21.296875 6.109375 26.703125 6.109375 
Q 34.1875 6.109375 38.703125 11.40625 
Q 43.21875 16.703125 43.21875 25.484375 
L 43.21875 27.484375 
z
M 52.203125 31.203125 
L 52.203125 0 
L 43.21875 0 
L 43.21875 8.296875 
Q 40.140625 3.328125 35.546875 0.953125 
Q 30.953125 -1.421875 24.3125 -1.421875 
Q 15.921875 -1.421875 10.953125 3.296875 
Q 6 8.015625 6 15.921875 
Q 6 25.140625 12.171875 29.828125 
Q 18.359375 34.515625 30.609375 34.515625 
L 43.21875 34.515625 
L 43.21875 35.40625 
Q 43.21875 41.609375 39.140625 45 
Q 35.0625 48.390625 27.6875 48.390625 
Q 23 48.390625 18.546875 47.265625 
Q 14.109375 46.140625 10.015625 43.890625 
L 10.015625 52.203125 
Q 14.9375 54.109375 19.578125 55.046875 
Q 24.21875 56 28.609375 56 
Q 40.484375 56 46.34375 49.84375 
Q 52.203125 43.703125 52.203125 31.203125 
z
" id="DejaVuSans-97"/>
       <path d="M 8.5 21.578125 
L 8.5 54.6875 
L 17.484375 54.6875 
L 17.484375 21.921875 
Q 17.484375 14.15625 20.5 10.265625 
Q 23.53125 6.390625 29.59375 6.390625 
Q 36.859375 6.390625 41.078125 11.03125 
Q 45.3125 15.671875 45.3125 23.6875 
L 45.3125 54.6875 
L 54.296875 54.6875 
L 54.296875 0 
L 45.3125 0 
L 45.3125 8.40625 
Q 42.046875 3.421875 37.71875 1 
Q 33.40625 -1.421875 27.6875 -1.421875 
Q 18.265625 -1.421875 13.375 4.4375 
Q 8.5 10.296875 8.5 21.578125 
z
M 31.109375 56 
z
" id="DejaVuSans-117"/>
       <path id="DejaVuSans-32"/>
       <path d="M 37.109375 75.984375 
L 37.109375 68.5 
L 28.515625 68.5 
Q 23.6875 68.5 21.796875 66.546875 
Q 19.921875 64.59375 19.921875 59.515625 
L 19.921875 54.6875 
L 34.71875 54.6875 
L 34.71875 47.703125 
L 19.921875 47.703125 
L 19.921875 0 
L 10.890625 0 
L 10.890625 47.703125 
L 2.296875 47.703125 
L 2.296875 54.6875 
L 10.890625 54.6875 
L 10.890625 58.5 
Q 10.890625 67.625 15.140625 71.796875 
Q 19.390625 75.984375 28.609375 75.984375 
z
" id="DejaVuSans-102"/>
       <path d="M 30.609375 48.390625 
Q 23.390625 48.390625 19.1875 42.75 
Q 14.984375 37.109375 14.984375 27.296875 
Q 14.984375 17.484375 19.15625 11.84375 
Q 23.34375 6.203125 30.609375 6.203125 
Q 37.796875 6.203125 41.984375 11.859375 
Q 46.1875 17.53125 46.1875 27.296875 
Q 46.1875 37.015625 41.984375 42.703125 
Q 37.796875 48.390625 30.609375 48.390625 
z
M 30.609375 56 
Q 42.328125 56 49.015625 48.375 
Q 55.71875 40.765625 55.71875 27.296875 
Q 55.71875 13.875 49.015625 6.21875 
Q 42.328125 -1.421875 30.609375 -1.421875 
Q 18.84375 -1.421875 12.171875 6.21875 
Q 5.515625 13.875 5.515625 27.296875 
Q 5.515625 40.765625 12.171875 48.375 
Q 18.84375 56 30.609375 56 
z
" id="DejaVuSans-111"/>
       <path d="M 39.40625 66.21875 
Q 28.65625 66.21875 22.328125 58.203125 
Q 16.015625 50.203125 16.015625 36.375 
Q 16.015625 22.609375 22.328125 14.59375 
Q 28.65625 6.59375 39.40625 6.59375 
Q 50.140625 6.59375 56.421875 14.59375 
Q 62.703125 22.609375 62.703125 36.375 
Q 62.703125 50.203125 56.421875 58.203125 
Q 50.140625 66.21875 39.40625 66.21875 
z
M 39.40625 74.21875 
Q 54.734375 74.21875 63.90625 63.9375 
Q 73.09375 53.65625 73.09375 36.375 
Q 73.09375 19.140625 63.90625 8.859375 
Q 54.734375 -1.421875 39.40625 -1.421875 
Q 24.03125 -1.421875 14.8125 8.828125 
Q 5.609375 19.09375 5.609375 36.375 
Q 5.609375 53.65625 14.8125 63.9375 
Q 24.03125 74.21875 39.40625 74.21875 
z
" id="DejaVuSans-79"/>
       <path d="M 54.890625 33.015625 
L 54.890625 0 
L 45.90625 0 
L 45.90625 32.71875 
Q 45.90625 40.484375 42.875 44.328125 
Q 39.84375 48.1875 33.796875 48.1875 
Q 26.515625 48.1875 22.3125 43.546875 
Q 18.109375 38.921875 18.109375 30.90625 
L 18.109375 0 
L 9.078125 0 
L 9.078125 54.6875 
L 18.109375 54.6875 
L 18.109375 46.1875 
Q 21.34375 51.125 25.703125 53.5625 
Q 30.078125 56 35.796875 56 
Q 45.21875 56 50.046875 50.171875 
Q 54.890625 44.34375 54.890625 33.015625 
z
" id="DejaVuSans-110"/>
       <path d="M 3.328125 72.90625 
L 13.28125 72.90625 
L 28.609375 11.28125 
L 43.890625 72.90625 
L 54.984375 72.90625 
L 70.3125 11.28125 
L 85.59375 72.90625 
L 95.609375 72.90625 
L 77.296875 0 
L 64.890625 0 
L 49.515625 63.28125 
L 33.984375 0 
L 21.578125 0 
z
" id="DejaVuSans-87"/>
       <path d="M 54.890625 33.015625 
L 54.890625 0 
L 45.90625 0 
L 45.90625 32.71875 
Q 45.90625 40.484375 42.875 44.328125 
Q 39.84375 48.1875 33.796875 48.1875 
Q 26.515625 48.1875 22.3125 43.546875 
Q 18.109375 38.921875 18.109375 30.90625 
L 18.109375 0 
L 9.078125 0 
L 9.078125 75.984375 
L 18.109375 75.984375 
L 18.109375 46.1875 
Q 21.34375 51.125 25.703125 53.5625 
Q 30.078125 56 35.796875 56 
Q 45.21875 56 50.046875 50.171875 
Q 54.890625 44.34375 54.890625 33.015625 
z
" id="DejaVuSans-104"/>
       <path d="M 9.8125 72.90625 
L 24.515625 72.90625 
L 43.109375 23.296875 
L 61.8125 72.90625 
L 76.515625 72.90625 
L 76.515625 0 
L 66.890625 0 
L 66.890625 64.015625 
L 48.09375 14.015625 
L 38.1875 14.015625 
L 19.390625 64.015625 
L 19.390625 0 
L 9.8125 0 
z
" id="DejaVuSans-77"/>
      </defs>
      <use xlink:href="#DejaVuSans-116"/>
      <use x="39.208984" xlink:href="#DejaVuSans-101"/>
      <use x="100.732422" xlink:href="#DejaVuSans-109"/>
      <use x="198.144531" xlink:href="#DejaVuSans-112"/>
      <use x="261.621094" xlink:href="#DejaVuSans-101"/>
      <use x="323.144531" xlink:href="#DejaVuSans-114"/>
      <use x="364.257812" xlink:href="#DejaVuSans-97"/>
      <use x="425.537109" xlink:href="#DejaVuSans-116"/>
      <use x="464.746094" xlink:href="#DejaVuSans-117"/>
      <use x="528.125" xlink:href="#DejaVuSans-114"/>
      <use x="566.988281" xlink:href="#DejaVuSans-101"/>
      <use x="628.511719" xlink:href="#DejaVuSans-32"/>
      <use x="660.298828" xlink:href="#DejaVuSans-102"/>
      <use x="695.503906" xlink:href="#DejaVuSans-114"/>
      <use x="734.367188" xlink:href="#DejaVuSans-111"/>
      <use x="795.548828" xlink:href="#DejaVuSans-109"/>
      <use x="892.960938" xlink:href="#DejaVuSans-32"/>
      <use x="924.748047" xlink:href="#DejaVuSans-79"/>
      <use x="1003.458984" xlink:href="#DejaVuSans-112"/>
      <use x="1066.935547" xlink:href="#DejaVuSans-101"/>
      <use x="1128.458984" xlink:href="#DejaVuSans-110"/>
      <use x="1191.837891" xlink:href="#DejaVuSans-87"/>
      <use x="1284.839844" xlink:href="#DejaVuSans-101"/>
      <use x="1346.363281" xlink:href="#DejaVuSans-97"/>
      <use x="1407.642578" xlink:href="#DejaVuSans-116"/>
      <use x="1446.851562" xlink:href="#DejaVuSans-104"/>
      <use x="1510.230469" xlink:href="#DejaVuSans-101"/>
      <use x="1571.753906" xlink:href="#DejaVuSans-114"/>
      <use x="1612.867188" xlink:href="#DejaVuSans-77"/>
      <use x="1699.146484" xlink:href="#DejaVuSans-97"/>
      <use x="1760.425781" xlink:href="#DejaVuSans-112"/>
     </g>
    </g>
   </g>
   <g id="matplotlib.axis_2">
    <g id="ytick_1">
     <g id="line2d_7">
      <defs>
       <path d="M 0 0 
L -3.5 0 
" id="m58fb8c0d69" style="stroke:#000000;stroke-width:0.8;"/>
      </defs>
      <g>
       <use style="stroke:#000000;stroke-width:0.8;" x="57.6" xlink:href="#m58fb8c0d69" y="265.59533"/>
      </g>
     </g>
     <g id="text_8">
      <!-- 6 -->
      <g transform="translate(44.2375 269.394549)scale(0.1 -0.1)">
       <defs>
        <path d="M 33.015625 40.375 
Q 26.375 40.375 22.484375 35.828125 
Q 18.609375 31.296875 18.609375 23.390625 
Q 18.609375 15.53125 22.484375 10.953125 
Q 26.375 6.390625 33.015625 6.390625 
Q 39.65625 6.390625 43.53125 10.953125 
Q 47.40625 15.53125 47.40625 23.390625 
Q 47.40625 31.296875 43.53125 35.828125 
Q 39.65625 40.375 33.015625 40.375 
z
M 52.59375 71.296875 
L 52.59375 62.3125 
Q 48.875 64.0625 45.09375 64.984375 
Q 41.3125 65.921875 37.59375 65.921875 
Q 27.828125 65.921875 22.671875 59.328125 
Q 17.53125 52.734375 16.796875 39.40625 
Q 19.671875 43.65625 24.015625 45.921875 
Q 28.375 48.1875 33.59375 48.1875 
Q 44.578125 48.1875 50.953125 41.515625 
Q 57.328125 34.859375 57.328125 23.390625 
Q 57.328125 12.15625 50.6875 5.359375 
Q 44.046875 -1.421875 33.015625 -1.421875 
Q 20.359375 -1.421875 13.671875 8.265625 
Q 6.984375 17.96875 6.984375 36.375 
Q 6.984375 53.65625 15.1875 63.9375 
Q 23.390625 74.21875 37.203125 74.21875 
Q 40.921875 74.21875 44.703125 73.484375 
Q 48.484375 72.75 52.59375 71.296875 
z
" id="DejaVuSans-54"/>
       </defs>
       <use xlink:href="#DejaVuSans-54"/>
      </g>
     </g>
    </g>
    <g id="ytick_2">
     <g id="line2d_8">
      <g>
       <use style="stroke:#000000;stroke-width:0.8;" x="57.6" xlink:href="#m58fb8c0d69" y="216.989363"/>
      </g>
     </g>
     <g id="text_9">
      <!-- 8 -->
      <g transform="translate(44.2375 220.788582)scale(0.1 -0.1)">
       <defs>
        <path d="M 31.78125 34.625 
Q 24.75 34.625 20.71875 30.859375 
Q 16.703125 27.09375 16.703125 20.515625 
Q 16.703125 13.921875 20.71875 10.15625 
Q 24.75 6.390625 31.78125 6.390625 
Q 38.8125 6.390625 42.859375 10.171875 
Q 46.921875 13.96875 46.921875 20.515625 
Q 46.921875 27.09375 42.890625 30.859375 
Q 38.875 34.625 31.78125 34.625 
z
M 21.921875 38.8125 
Q 15.578125 40.375 12.03125 44.71875 
Q 8.5 49.078125 8.5 55.328125 
Q 8.5 64.0625 14.71875 69.140625 
Q 20.953125 74.21875 31.78125 74.21875 
Q 42.671875 74.21875 48.875 69.140625 
Q 55.078125 64.0625 55.078125 55.328125 
Q 55.078125 49.078125 51.53125 44.71875 
Q 48 40.375 41.703125 38.8125 
Q 48.828125 37.15625 52.796875 32.3125 
Q 56.78125 27.484375 56.78125 20.515625 
Q 56.78125 9.90625 50.3125 4.234375 
Q 43.84375 -1.421875 31.78125 -1.421875 
Q 19.734375 -1.421875 13.25 4.234375 
Q 6.78125 9.90625 6.78125 20.515625 
Q 6.78125 27.484375 10.78125 32.3125 
Q 14.796875 37.15625 21.921875 38.8125 
z
M 18.3125 54.390625 
Q 18.3125 48.734375 21.84375 45.5625 
Q 25.390625 42.390625 31.78125 42.390625 
Q 38.140625 42.390625 41.71875 45.5625 
Q 45.3125 48.734375 45.3125 54.390625 
Q 45.3125 60.0625 41.71875 63.234375 
Q 38.140625 66.40625 31.78125 66.40625 
Q 25.390625 66.40625 21.84375 63.234375 
Q 18.3125 60.0625 18.3125 54.390625 
z
" id="DejaVuSans-56"/>
       </defs>
       <use xlink:href="#DejaVuSans-56"/>
      </g>
     </g>
    </g>
    <g id="ytick_3">
     <g id="line2d_9">
      <g>
       <use style="stroke:#000000;stroke-width:0.8;" x="57.6" xlink:href="#m58fb8c0d69" y="168.383396"/>
      </g>
     </g>
     <g id="text_10">
      <!-- 10 -->
      <g transform="translate(37.875 172.182614)scale(0.1 -0.1)">
       <use xlink:href="#DejaVuSans-49"/>
       <use x="63.623047" xlink:href="#DejaVuSans-48"/>
      </g>
     </g>
    </g>
    <g id="ytick_4">
     <g id="line2d_10">
      <g>
       <use style="stroke:#000000;stroke-width:0.8;" x="57.6" xlink:href="#m58fb8c0d69" y="119.777428"/>
      </g>
     </g>
     <g id="text_11">
      <!-- 12 -->
      <g transform="translate(37.875 123.576647)scale(0.1 -0.1)">
       <use xlink:href="#DejaVuSans-49"/>
       <use x="63.623047" xlink:href="#DejaVuSans-50"/>
      </g>
     </g>
    </g>
    <g id="ytick_5">
     <g id="line2d_11">
      <g>
       <use style="stroke:#000000;stroke-width:0.8;" x="57.6" xlink:href="#m58fb8c0d69" y="71.171461"/>
      </g>
     </g>
     <g id="text_12">
      <!-- 14 -->
      <g transform="translate(37.875 74.97068)scale(0.1 -0.1)">
       <defs>
        <path d="M 37.796875 64.3125 
L 12.890625 25.390625 
L 37.796875 25.390625 
z
M 35.203125 72.90625 
L 47.609375 72.90625 
L 47.609375 25.390625 
L 58.015625 25.390625 
L 58.015625 17.1875 
L 47.609375 17.1875 
L 47.609375 0 
L 37.796875 0 
L 37.796875 17.1875 
L 4.890625 17.1875 
L 4.890625 26.703125 
z
" id="DejaVuSans-52"/>
       </defs>
       <use xlink:href="#DejaVuSans-49"/>
       <use x="63.623047" xlink:href="#DejaVuSans-52"/>
      </g>
     </g>
    </g>
   </g>
   <g id="line2d_12">
    <path clip-path="url(#pe4d6449bb8)" d="M 73.832727 287.492318 
L 74.207906 282.769439 
L 76.333918 289.185426 
L 77.459454 285.300999 
L 77.834632 270.739462 
L 77.959692 285.475171 
L 78.084751 286.706522 
L 78.835109 291.040554 
L 78.960168 287.613833 
L 89.465169 279.448031 
L 89.590228 283.004367 
L 90.340586 280.363443 
L 90.465645 287.419409 
L 90.715764 287.848762 
L 90.965883 279.974595 
L 91.466121 276.26434 
L 93.717193 280.881907 
L 94.092371 279.164496 
L 94.46755 284.908101 
L 95.092848 284.146608 
L 95.342967 277.592903 
L 96.843681 271.513107 
L 100.095229 280.881907 
L 100.595467 280.055605 
L 100.970646 265.959875 
L 101.220765 287.062966 
L 103.346777 283.069175 
L 104.097134 276.106371 
L 104.347253 280.8252 
L 104.597372 288.233559 
L 105.347729 279.871597 
L 106.723384 275.9403 
L 106.848444 259.252251 
L 106.973503 285.264545 
L 107.348682 254.019009 
L 107.473741 281.254553 
L 107.72386 280.152817 
L 107.84892 281.841875 
L 108.224099 271.616394 
L 108.349158 225.070105 
L 108.724337 283.644346 
L 109.224575 289.169224 
L 109.724813 288.626458 
L 109.974932 281.197846 
L 110.350111 289.94692 
L 110.47517 287.168279 
L 111.225527 258.312536 
L 111.350587 283.117781 
L 111.600706 285.580484 
L 111.725766 276.936722 
L 111.850825 278.597426 
L 112.100944 291.259281 
L 112.476123 274.927676 
L 112.726242 276.896218 
L 112.851301 268.881094 
L 113.10142 286.066543 
L 113.22648 289.266436 
L 114.352016 286.580957 
L 114.727194 270.261503 
L 115.227432 287.17638 
L 115.352492 280.225726 
L 115.477551 259.146938 
L 115.727671 280.687483 
L 116.102849 266.348723 
L 116.603087 288.72367 
L 116.853206 283.636245 
L 116.978266 275.834987 
L 117.728623 282.745136 
L 117.978742 276.02131 
L 118.47898 288.326721 
L 118.60404 263.634889 
L 118.729099 276.235986 
L 118.979218 278.646032 
L 119.479457 273.639618 
L 119.604516 276.969126 
L 120.104754 272.27055 
L 120.730052 287.111572 
L 121.10523 261.714954 
L 121.355349 267.733993 
L 121.480409 281.011523 
L 121.605469 274.757555 
L 121.730528 286.633613 
L 121.855588 281.781117 
L 121.980647 285.864018 
L 122.105707 254.987078 
L 122.355826 280.122439 
L 122.480885 262.545306 
L 122.605945 287.824459 
L 122.731004 252.880819 
L 123.106183 281.380118 
L 123.356302 267.482862 
L 123.481362 228.035069 
L 123.731481 281.894531 
L 124.106659 279.873333 
L 124.356778 227.787989 
L 124.481838 285.22404 
L 124.606897 284.349133 
L 125.107135 275.024888 
L 125.732433 211.796625 
L 125.857493 223.332442 
L 126.857969 290.813726 
L 127.233147 271.215395 
L 127.483267 248.315909 
L 127.608326 283.10968 
L 128.108564 269.101903 
L 128.483743 271.0554 
L 128.608802 255.266562 
L 128.733862 284.835192 
L 128.858921 236.35074 
L 128.983981 277.452486 
L 129.2341 265.471115 
L 129.35916 217.362009 
L 129.609279 273.177861 
L 129.734338 286.714623 
L 130.109517 289.258335 
L 130.234576 285.718201 
L 130.984933 277.171651 
L 131.109993 279.119941 
L 131.235053 277.44911 
L 131.485172 290.505888 
L 131.610231 240.884056 
L 131.86035 289.128719 
L 131.98541 289.072012 
L 132.110469 283.67675 
L 132.235529 259.56819 
L 132.485648 283.765861 
L 132.860826 276.790905 
L 132.985886 283.603841 
L 133.236005 285.653393 
L 133.361065 284.782536 
L 133.611184 274.376808 
L 133.986362 248.097182 
L 134.111422 282.728934 
L 134.236481 279.380523 
L 134.4866 282.242874 
L 134.61166 282.37249 
L 134.736719 280.614574 
L 134.986838 253.427636 
L 135.111898 279.03488 
L 135.362017 278.184276 
L 135.612136 253.200808 
L 135.737196 269.17597 
L 136.112374 287.168279 
L 136.737672 282.830196 
L 137.23791 277.074439 
L 137.488029 264.412585 
L 137.613089 276.941786 
L 137.738148 264.516278 
L 137.863208 283.603841 
L 138.113327 281.582643 
L 138.363446 249.38524 
L 138.488505 284.466597 
L 138.863684 280.225726 
L 139.113803 280.598372 
L 139.238863 288.999103 
L 139.488982 236.184669 
L 139.614041 273.469497 
L 139.739101 265.133573 
L 139.86416 278.702739 
L 139.98922 276.734198 
L 140.114279 272.000902 
L 140.239339 288.869487 
L 140.364398 287.723197 
L 140.489458 234.981672 
L 140.614517 288.496842 
L 140.739577 270.300995 
L 140.989696 267.750195 
L 141.114756 282.908776 
L 141.239815 277.803529 
L 141.614994 274.984383 
L 141.740053 260.341025 
L 141.865113 282.680328 
L 141.990172 248.753362 
L 142.115232 278.71084 
L 142.240291 278.338195 
L 142.61547 288.666963 
L 142.740529 279.164496 
L 142.865589 281.252527 
L 142.990649 270.975127 
L 143.115708 231.541989 
L 143.240768 264.355878 
L 143.365827 262.938204 
L 143.490887 283.911679 
L 143.741006 282.664126 
L 143.866065 287.524722 
L 144.241244 268.329416 
L 144.366303 282.275278 
L 144.741482 275.864691 
L 144.866542 278.512366 
L 144.991601 284.400979 
L 145.24172 253.848888 
L 145.36678 284.065598 
L 145.491839 283.911679 
L 145.867018 272.910528 
L 146.242196 212.092312 
L 146.367256 286.03819 
L 146.492315 272.181439 
L 146.617375 281.813521 
L 146.742435 220.837335 
L 146.867494 272.375863 
L 146.992554 265.327997 
L 147.242673 280.626726 
L 147.492792 283.125882 
L 147.617851 273.753032 
L 147.742911 274.672495 
L 147.86797 284.883798 
L 147.99303 272.161186 
L 148.118089 270.931571 
L 148.243149 279.27791 
L 148.368208 272.906478 
L 148.493268 276.936722 
L 148.618327 238.706509 
L 148.868447 280.060466 
L 148.993506 183.880598 
L 149.118566 268.584597 
L 149.618804 279.064044 
L 149.743863 277.090641 
L 149.868923 268.803324 
L 149.993982 282.348187 
L 150.119042 278.424065 
L 150.244101 284.770384 
L 150.369161 284.827091 
L 150.49422 225.110031 
L 150.74434 290.858282 
L 150.994459 274.239091 
L 151.244578 270.812371 
L 151.369637 277.515944 
L 151.494697 272.961835 
L 151.619756 234.754844 
L 151.869875 277.868337 
L 152.119994 282.672227 
L 152.370113 269.030152 
L 152.495173 282.743515 
L 152.870352 272.774837 
L 152.995411 278.816153 
L 153.120471 268.358579 
L 153.24553 283.825268 
L 153.37059 262.374375 
L 153.495649 263.466389 
L 153.745768 186.100271 
L 153.870828 282.138718 
L 154.120947 270.764575 
L 154.371066 281.667703 
L 154.496126 174.210036 
L 154.621185 276.719469 
L 154.746245 275.969464 
L 154.996364 284.777328 
L 155.246483 261.823949 
L 155.371542 263.399961 
L 155.496602 270.532076 
L 155.746721 256.786603 
L 155.87178 258.280132 
L 155.99684 278.783749 
L 156.121899 222.595251 
L 156.246959 276.768075 
L 156.497078 232.781442 
L 156.622138 242.729694 
L 156.747197 241.308549 
L 156.872257 266.439306 
L 156.997316 268.803324 
L 157.372495 282.174015 
L 157.497554 268.511688 
L 157.622614 221.760849 
L 157.872733 282.734334 
L 158.122852 270.245301 
L 158.247911 286.089689 
L 158.372971 211.62853 
L 158.498031 282.12946 
L 158.62309 272.794414 
L 158.74815 281.732511 
L 159.123328 253.994706 
L 159.373447 285.055944 
L 159.498507 243.145449 
L 159.748626 286.917148 
L 159.873685 267.486102 
L 159.998745 285.62909 
L 160.123804 284.268123 
L 160.248864 213.041478 
L 160.373924 273.153558 
L 160.498983 274.158081 
L 160.624043 267.056981 
L 160.874162 270.144039 
L 160.999221 261.974186 
L 161.124281 264.963453 
L 161.24934 255.236183 
L 161.3744 279.025159 
L 161.624519 271.704493 
L 161.749578 283.218031 
L 161.999697 278.994375 
L 162.124757 269.378495 
L 162.249817 237.501081 
L 162.499936 260.62537 
L 162.624995 282.207134 
L 162.750055 277.098742 
L 162.875114 137.024446 
L 163.000174 286.414886 
L 163.375352 248.951027 
L 163.500412 282.522358 
L 163.625471 257.184068 
L 163.750531 279.257657 
L 163.87559 279.953975 
L 164.00065 276.331848 
L 164.125709 216.655197 
L 164.250769 278.224781 
L 164.375829 256.22896 
L 164.500888 279.610051 
L 164.625948 183.329731 
L 164.876067 278.689778 
L 165.001126 279.8466 
L 165.251245 277.445465 
L 165.376305 283.849909 
L 165.501364 284.031168 
L 165.626424 273.360133 
L 165.751483 283.964335 
L 165.876543 272.459573 
L 166.001602 285.539979 
L 166.126662 280.079908 
L 166.251722 255.866846 
L 166.376781 280.468756 
L 166.501841 278.961971 
L 166.6269 264.70017 
L 166.877019 281.781117 
L 167.127138 262.735679 
L 167.377257 279.573018 
L 167.502317 242.159963 
L 167.627376 272.858884 
L 167.752436 268.601956 
L 167.877495 272.058054 
L 168.002555 283.995119 
L 168.127615 269.463555 
L 168.252674 278.978173 
L 168.377734 268.127701 
L 168.502793 274.028465 
L 168.627853 271.679177 
L 168.877972 275.312105 
L 169.003031 132.771424 
L 169.128091 279.492586 
L 169.25315 273.809739 
L 169.37821 279.324086 
L 169.503269 273.100902 
L 169.753388 281.264679 
L 169.878448 277.127096 
L 170.003507 278.290167 
L 170.128567 272.988838 
L 170.253627 280.079908 
L 170.378686 258.140942 
L 170.503746 278.473211 
L 170.628805 273.566709 
L 170.753865 252.96507 
L 171.003984 277.594376 
L 171.129043 275.570355 
L 171.254103 246.344667 
L 171.504222 238.407235 
L 171.754341 279.095638 
L 172.00446 270.206821 
L 172.12952 206.435792 
L 172.254579 204.1435 
L 172.379639 258.967244 
L 172.629758 279.8959 
L 172.754817 260.143361 
L 172.879877 285.178674 
L 173.129996 271.962712 
L 173.255055 279.315715 
L 173.380115 240.912612 
L 173.505174 260.475502 
L 173.630234 249.782189 
L 173.755293 279.314364 
L 173.880353 278.856658 
L 174.255532 269.159768 
L 174.380591 275.702671 
L 174.505651 271.586016 
L 174.63071 252.32104 
L 174.880829 287.006259 
L 175.005889 272.230045 
L 175.130948 276.757877 
L 175.256008 274.307015 
L 175.381067 261.617742 
L 175.506127 265.911269 
L 175.756246 255.604374 
L 175.881306 258.074907 
L 176.006365 274.490222 
L 176.131425 214.596454 
L 176.506603 286.410836 
L 176.631663 258.395019 
L 176.881782 280.219651 
L 177.006841 260.108932 
L 177.131901 277.601004 
L 177.25696 275.688012 
L 177.38202 275.975134 
L 177.507079 248.512358 
L 177.757198 273.641354 
L 177.882258 279.341098 
L 178.007318 290.133243 
L 178.132377 248.709045 
L 178.382496 281.770316 
L 178.507556 240.364783 
L 178.632615 279.265758 
L 178.757675 248.57352 
L 178.882734 258.078034 
L 179.007794 278.421587 
L 179.132853 268.829836 
L 179.257913 272.367762 
L 179.382972 280.454174 
L 179.508032 250.041421 
L 179.633091 254.697178 
L 179.758151 280.002949 
L 179.883211 275.377281 
L 180.00827 235.439378 
L 180.13333 286.009836 
L 180.258389 275.802583 
L 180.383449 185.014737 
L 180.508508 281.538087 
L 180.633568 265.522421 
L 180.883687 275.788001 
L 181.008746 269.631651 
L 181.258865 276.005108 
L 181.383925 270.168342 
L 181.508984 277.017732 
L 181.759104 266.684546 
L 181.884163 273.167445 
L 182.009223 262.613658 
L 182.134282 286.241819 
L 182.259342 258.807854 
L 182.384401 261.835659 
L 182.509461 282.052501 
L 182.63452 266.425103 
L 182.75958 283.134793 
L 182.884639 260.159563 
L 183.009699 281.959339 
L 183.134758 277.191904 
L 183.259818 232.731621 
L 183.384877 276.803866 
L 183.509937 257.668507 
L 183.634996 282.986545 
L 183.885116 263.934626 
L 184.010175 267.559821 
L 184.135235 281.21786 
L 184.385354 268.108953 
L 184.510413 281.635299 
L 184.635473 274.125677 
L 184.760532 281.746688 
L 184.885592 262.358173 
L 185.135711 280.760392 
L 185.26077 276.118522 
L 185.38583 279.869283 
L 185.635949 273.224731 
L 185.761009 260.333734 
L 185.886068 271.975968 
L 186.011128 266.837483 
L 186.136187 280.927041 
L 186.261247 275.567654 
L 186.386306 276.029411 
L 186.511366 279.318415 
L 186.636425 276.303225 
L 186.761485 275.972704 
L 186.886544 276.373703 
L 187.011604 273.082674 
L 187.136663 277.839983 
L 187.261723 288.051287 
L 187.386782 278.562708 
L 187.511842 254.376031 
L 187.636902 279.12862 
L 187.761961 265.165167 
L 187.887021 283.381642 
L 188.01208 271.389447 
L 188.13714 272.281351 
L 188.387259 282.903105 
L 188.512318 279.517902 
L 188.637378 171.2714 
L 188.762437 274.117576 
L 189.012556 258.470505 
L 189.137616 280.574069 
L 189.262675 270.558539 
L 189.387735 269.653928 
L 189.512795 286.20426 
L 189.637854 271.195432 
L 189.762914 277.306668 
L 189.887973 243.298057 
L 190.138092 268.943309 
L 190.263152 249.007194 
L 190.513271 282.831006 
L 190.63833 263.890071 
L 190.76339 276.453363 
L 190.888449 255.245998 
L 191.013509 263.901065 
L 191.263628 217.005565 
L 191.388687 253.638262 
L 191.513747 256.493863 
L 191.638807 272.41886 
L 191.763866 262.511552 
L 191.888926 276.91242 
L 192.013985 276.620205 
L 192.139045 244.874336 
L 192.264104 268.834715 
L 192.514223 244.303891 
L 192.639283 236.869203 
L 192.764342 264.635362 
L 192.889402 265.371203 
L 193.26458 276.393956 
L 193.38964 263.828503 
L 193.5147 273.731969 
L 193.639759 222.083876 
L 193.889878 281.489481 
L 194.139997 273.0366 
L 194.265057 232.271521 
L 194.390116 275.428587 
L 194.515176 273.716172 
L 194.640235 275.52985 
L 194.765295 267.686666 
L 194.890354 270.083649 
L 195.015414 278.848557 
L 195.265533 260.384365 
L 195.390593 274.577713 
L 195.515652 271.577603 
L 195.640712 259.203645 
L 195.765771 203.598419 
L 195.890831 276.671415 
L 196.266009 267.430205 
L 196.391069 274.377545 
L 196.516128 269.6473 
L 196.641188 282.064652 
L 196.766247 250.545155 
L 196.891307 256.331475 
L 197.016366 279.799074 
L 197.266486 274.462447 
L 197.391545 277.266838 
L 197.516605 266.502018 
L 197.641664 284.478748 
L 197.766724 266.194804 
L 197.891783 272.205742 
L 198.141902 245.605411 
L 198.392021 281.623148 
L 198.517081 254.343049 
L 198.7672 280.585208 
L 199.142378 256.162735 
L 199.267438 273.122311 
L 199.392498 270.403849 
L 199.517557 273.566709 
L 199.642617 282.347377 
L 199.767676 280.050205 
L 199.892736 283.145325 
L 200.017795 249.980663 
L 200.267914 278.95387 
L 200.518033 228.411765 
L 200.643093 273.377348 
L 200.768152 262.9654 
L 200.893212 277.779226 
L 201.018271 243.339198 
L 201.143331 279.715364 
L 201.39345 264.789281 
L 201.51851 277.362025 
L 201.643569 257.170874 
L 201.768629 280.022679 
L 201.893688 267.571973 
L 202.143807 270.739462 
L 202.268867 206.607938 
L 202.518986 279.28061 
L 202.644045 277.390378 
L 202.894164 271.735884 
L 203.144284 275.77828 
L 203.269343 279.242806 
L 203.394403 265.809196 
L 203.519462 281.01005 
L 203.644522 256.870559 
L 203.894641 271.011424 
L 204.0197 250.345208 
L 204.14476 273.990275 
L 204.269819 266.123052 
L 204.394879 279.06853 
L 204.519938 269.213003 
L 204.644998 269.827219 
L 204.770057 248.722431 
L 205.020176 277.236459 
L 205.145236 283.458023 
L 205.395355 276.663989 
L 205.520415 279.136143 
L 205.645474 274.206687 
L 205.770534 282.502106 
L 205.895593 272.278651 
L 206.020653 236.771992 
L 206.270772 279.248746 
L 206.395831 268.505612 
L 206.520891 291.247129 
L 206.64595 278.255315 
L 206.77101 250.43999 
L 207.021129 275.843088 
L 207.146189 270.123786 
L 207.271248 277.240878 
L 207.396308 264.463097 
L 207.521367 273.858345 
L 207.646427 265.153588 
L 207.771486 282.692479 
L 207.896546 279.739667 
L 208.021605 280.404961 
L 208.271724 278.557774 
L 208.396784 251.447522 
L 208.521843 276.487117 
L 208.646903 279.150994 
L 208.771962 276.555976 
L 208.897022 270.125811 
L 209.022082 239.876698 
L 209.272201 270.095433 
L 209.39726 282.584736 
L 209.647379 268.97142 
L 209.772439 265.532142 
L 209.897498 278.100565 
L 210.272677 255.5744 
L 210.522796 281.064179 
L 210.647855 249.861579 
L 210.772915 255.864415 
L 210.897975 276.770284 
L 211.148094 280.152817 
L 211.273153 241.459608 
L 211.398213 277.303293 
L 211.523272 272.33637 
L 211.648332 276.580279 
L 211.773391 273.528904 
L 211.898451 233.223756 
L 212.14857 280.611102 
L 212.398689 274.520601 
L 212.523748 270.312134 
L 212.648808 241.498922 
L 212.898927 277.351898 
L 213.023987 267.22201 
L 213.149046 278.87286 
L 213.399165 246.233953 
L 213.649284 275.291063 
L 213.899403 276.501294 
L 214.149522 262.938204 
L 214.274582 272.953734 
L 214.399641 263.359456 
L 214.524701 273.651769 
L 214.64976 211.963506 
L 214.77482 280.673596 
L 214.89988 259.720952 
L 215.024939 272.003217 
L 215.149999 270.798727 
L 215.275058 249.701179 
L 215.400118 278.99914 
L 215.525177 277.57184 
L 215.650237 280.784695 
L 215.775296 275.340827 
L 215.900356 264.949951 
L 216.025415 271.192494 
L 216.275534 269.965817 
L 216.400594 275.683769 
L 216.525653 226.399478 
L 216.775773 280.437162 
L 217.025892 269.58912 
L 217.150951 248.65345 
L 217.276011 282.011996 
L 217.52613 263.634889 
L 217.651189 265.708744 
L 217.901308 281.961871 
L 218.026368 267.163807 
L 218.151427 279.826871 
L 218.276487 275.204519 
L 218.401546 276.1605 
L 218.526606 282.572314 
L 218.651665 194.552848 
L 218.776725 269.979993 
L 218.901785 263.358556 
L 219.026844 283.946292 
L 219.151904 202.152391 
L 219.276963 265.972026 
L 219.402023 265.549154 
L 219.652142 278.132198 
L 219.777201 277.672044 
L 219.902261 281.696057 
L 220.02732 275.600058 
L 220.15238 276.923558 
L 220.277439 267.886291 
L 220.402499 275.921889 
L 220.527558 271.409144 
L 220.652618 278.666863 
L 220.777678 272.40127 
L 220.902737 284.451408 
L 221.152856 265.418581 
L 221.277916 263.882548 
L 221.402975 278.337571 
L 221.528035 278.970072 
L 221.653094 280.365063 
L 221.778154 269.770236 
L 221.903213 281.613206 
L 222.028273 282.716782 
L 222.153332 275.08636 
L 222.278392 277.302425 
L 222.403451 282.531038 
L 222.528511 271.832619 
L 222.653571 222.461585 
L 222.90369 279.662707 
L 223.028749 271.492854 
L 223.153809 281.454763 
L 223.403928 278.971692 
L 223.528987 247.606262 
L 223.654047 269.371744 
L 223.779106 266.644409 
L 223.904166 273.162672 
L 224.029225 269.391152 
L 224.154285 281.021649 
L 224.279344 274.021985 
L 224.404404 277.495691 
L 224.529464 265.775172 
L 224.654523 270.394065 
L 224.779583 283.275751 
L 225.029702 280.298635 
L 225.154761 273.417853 
L 225.279821 275.879543 
L 225.40488 265.234026 
L 225.52994 281.298095 
L 225.905118 274.988433 
L 226.030178 279.579672 
L 226.155237 242.402183 
L 226.280297 277.81298 
L 226.405356 279.028804 
L 226.655476 241.929085 
L 227.030654 282.473752 
L 227.155714 271.163414 
L 227.280773 276.028254 
L 227.405833 274.431895 
L 227.530892 283.525531 
L 227.655952 276.599374 
L 227.781011 276.774703 
L 227.906071 278.762147 
L 228.03113 275.810178 
L 228.15619 269.148966 
L 228.281249 274.742366 
L 228.406309 288.452286 
L 228.656428 258.752825 
L 228.906547 280.593743 
L 229.031607 267.604377 
L 229.406785 280.727988 
L 229.656904 276.843966 
L 229.781964 269.48077 
L 229.907023 283.297623 
L 230.032083 274.403577 
L 230.157142 246.220992 
L 230.407262 277.098742 
L 230.532321 260.892703 
L 230.657381 275.510947 
L 230.78244 240.125803 
L 231.032559 266.859085 
L 231.157619 260.486303 
L 231.282678 261.674449 
L 231.407738 282.890953 
L 231.657857 259.096712 
L 231.782916 280.28822 
L 231.907976 263.207562 
L 232.158095 267.750195 
L 232.283155 280.668581 
L 232.408214 275.694435 
L 232.533274 276.43667 
L 232.658333 275.199059 
L 232.783393 275.929499 
L 232.908452 267.361347 
L 233.033512 278.674754 
L 233.158571 277.683364 
L 233.283631 283.189411 
L 233.40869 263.948215 
L 233.658809 277.229516 
L 233.783869 273.185152 
L 233.908928 274.692747 
L 234.033988 268.668073 
L 234.284107 281.359866 
L 234.409167 257.806939 
L 234.534226 278.517574 
L 234.659286 275.458291 
L 234.784345 261.801364 
L 235.034464 276.928622 
L 235.159524 269.075865 
L 235.409643 284.324251 
L 235.534702 250.44323 
L 235.659762 274.368707 
L 235.784821 276.032357 
L 235.909881 269.416299 
L 236.03494 271.178941 
L 236.16 277.823781 
L 236.28506 276.009969 
L 236.410119 283.287902 
L 236.660238 257.802173 
L 236.785298 282.105157 
L 237.035417 268.77416 
L 237.160476 275.608159 
L 237.285536 167.617852 
L 237.410595 276.398721 
L 237.535655 283.537008 
L 237.660714 272.650139 
L 237.785774 281.140126 
L 237.910833 257.135462 
L 238.035893 277.882007 
L 238.160953 268.781451 
L 238.286012 275.324625 
L 238.411072 271.774364 
L 238.536131 276.555976 
L 238.661191 273.129255 
L 238.78625 261.764572 
L 238.91131 275.220741 
L 239.036369 262.535855 
L 239.161429 269.388805 
L 239.286488 53.568 
L 239.411548 278.026306 
L 239.786726 263.456668 
L 239.911786 279.253607 
L 240.161905 275.714485 
L 240.286965 284.912152 
L 240.662143 274.759985 
L 240.787203 266.950689 
L 240.912262 276.394535 
L 241.162381 275.373967 
L 241.287441 199.551972 
L 241.4125 268.386701 
L 241.662619 273.406309 
L 241.787679 277.268863 
L 241.912738 270.474154 
L 242.162858 280.190082 
L 242.287917 275.69079 
L 242.412977 234.252582 
L 242.538036 280.225726 
L 242.788155 264.839237 
L 242.913215 275.19127 
L 243.038274 271.358378 
L 243.163334 281.975541 
L 243.288393 246.157804 
L 243.413453 264.532943 
L 243.538512 249.234021 
L 243.663572 277.765049 
L 243.788631 267.232977 
L 243.913691 281.844305 
L 244.038751 272.818177 
L 244.16381 284.276224 
L 244.413929 261.523476 
L 244.538989 275.136276 
L 244.664048 274.490222 
L 244.789108 274.839578 
L 244.914167 278.180804 
L 245.039227 267.804201 
L 245.164286 270.893381 
L 245.289346 284.065598 
L 245.414405 272.39814 
L 245.539465 280.472228 
L 245.664524 267.586305 
L 245.789584 276.88874 
L 245.914644 237.09014 
L 246.039703 279.136511 
L 246.164763 243.25785 
L 246.289822 280.055605 
L 246.414882 264.601608 
L 246.665001 269.62355 
L 246.79006 280.628076 
L 246.91512 280.567993 
L 247.040179 284.566239 
L 247.165239 274.133778 
L 247.290298 274.840697 
L 247.415358 269.499273 
L 247.540417 271.229572 
L 247.665477 276.201152 
L 247.790536 260.405538 
L 247.915596 280.25273 
L 248.040656 278.406474 
L 248.290775 283.042663 
L 248.415834 275.547402 
L 248.540894 278.042508 
L 248.665953 277.264234 
L 248.791013 273.999302 
L 249.041132 282.382616 
L 249.291251 277.844034 
L 249.41631 266.859085 
L 249.54137 266.484819 
L 249.666429 282.192749 
L 249.791489 268.15301 
L 249.916549 281.045952 
L 250.166668 277.276964 
L 250.291727 256.06127 
L 250.416787 265.639886 
L 250.541846 258.974503 
L 250.791965 274.101374 
L 250.917025 282.855849 
L 251.167144 269.645827 
L 251.292203 281.991743 
L 251.542322 276.458764 
L 251.792442 286.159705 
L 251.917501 272.890644 
L 252.042561 277.885045 
L 252.16762 272.302954 
L 252.29268 259.653251 
L 252.542799 278.813453 
L 252.667858 250.081926 
L 252.792918 283.458023 
L 252.917977 284.97696 
L 253.168096 261.982287 
L 253.293156 269.759978 
L 253.418215 262.368241 
L 253.543275 286.341977 
L 253.668335 240.484272 
L 253.918454 281.404421 
L 254.043513 278.263813 
L 254.168573 207.095348 
L 254.79387 286.641714 
L 254.91893 276.069916 
L 255.043989 280.489819 
L 255.169049 279.217792 
L 255.294108 279.259683 
L 255.419168 282.142962 
L 255.544227 270.640224 
L 255.794347 285.55294 
L 255.919406 268.098537 
L 256.169525 277.179016 
L 256.294585 268.345856 
L 256.419644 283.268018 
L 256.544704 261.431419 
L 256.794823 277.479489 
L 256.919882 284.130406 
L 257.044942 266.602969 
L 257.170001 273.555367 
L 257.295061 239.478736 
L 257.42012 283.75695 
L 257.54518 281.105052 
L 257.67024 275.781752 
L 257.795299 278.014155 
L 257.920359 262.369977 
L 258.045418 264.041675 
L 258.295537 285.14303 
L 258.420597 281.104684 
L 258.545656 254.560257 
L 258.670716 281.244426 
L 258.795775 254.955484 
L 258.920835 278.087064 
L 259.045894 264.586756 
L 259.296013 286.082745 
L 259.671192 272.471049 
L 259.796252 271.886331 
L 260.046371 284.033194 
L 260.17143 266.735834 
L 260.29649 279.898741 
L 260.546609 274.772137 
L 260.671668 255.869848 
L 260.921787 280.804947 
L 261.046847 279.514459 
L 261.171906 281.343664 
L 261.422025 273.712527 
L 261.672145 285.63314 
L 261.797204 277.813103 
L 261.922264 258.005125 
L 262.172383 277.055292 
L 262.422502 259.067549 
L 262.547561 283.204578 
L 262.672621 278.416504 
L 262.79768 260.935785 
L 262.92274 282.45755 
L 263.047799 269.569803 
L 263.172859 276.956975 
L 263.422978 284.514098 
L 263.548038 268.934965 
L 263.798157 284.466597 
L 263.923216 277.81163 
L 264.048276 280.399898 
L 264.173335 280.484958 
L 264.298395 273.546456 
L 264.423454 273.331412 
L 264.548514 275.113999 
L 264.673573 280.796846 
L 264.798633 278.935459 
L 264.923692 268.355238 
L 265.048752 285.475171 
L 265.298871 276.874615 
L 265.423931 281.432774 
L 265.54899 206.616039 
L 265.799109 265.900636 
L 265.924169 277.933955 
L 266.049228 267.206271 
L 266.174288 270.435674 
L 266.299347 276.735818 
L 266.424407 275.243615 
L 266.549466 276.562604 
L 266.674526 276.446612 
L 266.924645 285.240242 
L 267.174764 272.59621 
L 267.299824 282.327934 
L 267.424883 279.76397 
L 267.549943 280.642928 
L 267.675002 279.836879 
L 267.800062 249.765987 
L 267.925121 274.856196 
L 268.050181 272.086927 
L 268.17524 271.811686 
L 268.3003 279.229304 
L 268.550419 265.75735 
L 268.800538 283.84282 
L 269.050657 277.587334 
L 269.175716 267.985124 
L 269.425836 267.636781 
L 269.550895 276.564077 
L 269.675955 252.139578 
L 269.926074 280.857604 
L 270.051133 272.84248 
L 270.176193 272.379103 
L 270.301252 279.132092 
L 270.551371 265.498118 
L 270.676431 273.506761 
L 271.051609 256.788199 
L 271.551848 288.788478 
L 271.676907 253.25144 
L 271.927026 281.351765 
L 272.052086 277.16085 
L 272.177145 283.372963 
L 272.302205 280.347241 
L 272.427264 264.465241 
L 272.552324 280.429871 
L 272.677383 247.288555 
L 272.802443 254.622533 
L 273.052562 279.613291 
L 273.302681 277.560499 
L 273.427741 259.959738 
L 273.5528 292.304309 
L 273.802919 263.364316 
L 273.927979 285.985533 
L 274.053038 279.403475 
L 274.178098 257.964193 
L 274.303157 264.921475 
L 274.428217 286.12163 
L 274.553276 277.503792 
L 274.678336 285.868437 
L 274.928455 260.285128 
L 275.053514 266.646434 
L 275.178574 285.394161 
L 275.303634 277.40658 
L 275.428693 250.952783 
L 275.553753 287.605732 
L 275.678812 274.279596 
L 275.803872 277.771125 
L 275.928931 284.677223 
L 276.053991 257.93449 
L 276.17905 285.118727 
L 276.30411 267.928417 
L 276.429169 281.610996 
L 276.554229 278.755396 
L 276.679288 264.931049 
L 276.804348 284.475277 
L 277.054467 273.761133 
L 277.304586 278.971085 
L 277.429646 280.360743 
L 277.804824 273.138369 
L 278.054943 280.881907 
L 278.180003 275.019487 
L 278.305062 282.714352 
L 278.430122 280.363443 
L 278.680241 280.1085 
L 278.8053 282.421096 
L 278.93036 265.878865 
L 279.05542 264.890544 
L 279.305539 282.275278 
L 279.555658 267.523367 
L 279.805777 280.527083 
L 279.930836 244.440933 
L 280.306015 280.881907 
L 280.556134 262.997611 
L 280.681193 286.544502 
L 280.806253 279.747768 
L 280.931313 263.489072 
L 281.306491 283.729406 
L 281.431551 276.332388 
L 281.55661 283.614642 
L 281.931789 259.310579 
L 282.056848 275.478543 
L 282.306967 281.019624 
L 282.432027 269.232677 
L 282.557086 283.895477 
L 282.932265 273.692274 
L 283.182384 289.412254 
L 283.307444 278.373299 
L 283.432503 283.652447 
L 283.557563 263.865768 
L 283.807682 285.499474 
L 283.932741 283.860373 
L 284.057801 277.64556 
L 284.18286 282.741085 
L 284.30792 256.972632 
L 284.432979 283.366212 
L 284.558039 283.10968 
L 284.933218 275.567654 
L 285.183337 223.672683 
L 285.433456 279.508788 
L 285.558515 274.198586 
L 285.683575 282.367089 
L 285.808634 282.391392 
L 285.933694 270.678126 
L 286.308872 279.870295 
L 286.433932 287.792055 
L 286.684051 286.406785 
L 286.809111 265.749249 
L 287.05923 283.940032 
L 287.184289 283.197634 
L 287.309349 240.960206 
L 287.434408 283.315243 
L 287.559468 219.298146 
L 287.684527 288.731771 
L 287.809587 257.273294 
L 287.934646 289.922617 
L 288.184765 248.530585 
L 288.309825 281.003422 
L 288.434884 254.818693 
L 288.559944 263.92884 
L 288.810063 272.811291 
L 288.935123 258.231526 
L 289.060182 272.819392 
L 289.310301 263.889703 
L 289.56042 281.499608 
L 289.810539 276.01888 
L 289.935599 260.546938 
L 290.185718 275.389433 
L 290.310777 267.280337 
L 290.435837 278.224781 
L 290.560896 277.916943 
L 290.685956 264.339676 
L 290.811016 269.406038 
L 291.061135 268.574182 
L 291.186194 264.932206 
L 291.311254 274.538828 
L 291.561373 278.097479 
L 291.686432 291.356493 
L 291.811492 275.848759 
L 292.061611 282.566914 
L 292.18667 275.340827 
L 292.31173 281.124937 
L 292.561849 286.20426 
L 292.686909 278.670335 
L 292.811968 279.013817 
L 292.937028 266.465819 
L 293.062087 270.251782 
L 293.187147 284.417991 
L 293.437266 269.593171 
L 293.562325 286.5283 
L 293.687385 227.925706 
L 293.812444 274.453768 
L 294.062563 274.052768 
L 294.187623 286.998158 
L 294.312682 271.500955 
L 294.437742 275.760605 
L 294.562802 259.306576 
L 294.812921 276.253539 
L 294.93798 275.057292 
L 295.06304 278.899864 
L 295.188099 291.866855 
L 295.313159 255.185552 
L 295.438218 262.849093 
L 295.563278 285.701999 
L 295.813397 269.50325 
L 296.063516 289.570223 
L 296.188575 239.066193 
L 296.438694 275.846329 
L 296.563754 277.716443 
L 296.688814 275.873467 
L 296.813873 287.378904 
L 297.063992 274.287697 
L 297.189052 282.279328 
L 297.439171 224.682993 
L 297.56423 276.201557 
L 297.68929 269.635026 
L 297.814349 273.513242 
L 297.939409 257.521879 
L 298.064468 282.091848 
L 298.189528 279.534441 
L 298.439647 266.840858 
L 298.814826 292.571642 
L 299.064945 274.872994 
L 299.190004 282.378971 
L 299.440123 282.801843 
L 299.565183 276.094219 
L 299.815302 280.823175 
L 299.940361 273.561308 
L 300.065421 287.040283 
L 300.19048 256.563734 
L 300.31554 285.007338 
L 300.4406 274.87907 
L 300.565659 280.045884 
L 300.815778 281.647451 
L 301.065897 282.021447 
L 301.190957 256.750914 
L 301.441076 281.683905 
L 301.691195 268.677759 
L 301.941314 283.214993 
L 302.066373 281.987693 
L 302.441552 287.358652 
L 302.691671 253.21296 
L 302.94179 260.661824 
L 303.06685 283.603841 
L 303.191909 269.401177 
L 303.316969 282.850449 
L 303.567088 282.842348 
L 303.817207 284.551657 
L 303.942266 264.169555 
L 304.067326 282.569228 
L 304.317445 281.679855 
L 304.442505 274.004162 
L 304.692624 282.708681 
L 304.817683 282.988165 
L 304.942743 273.57481 
L 305.067802 286.763229 
L 305.192862 273.940975 
L 305.317921 275.379711 
L 305.6931 282.716782 
L 305.818159 284.146608 
L 306.068278 284.685324 
L 306.193338 276.434461 
L 306.693576 290.700312 
L 306.818636 275.997007 
L 306.943695 279.743717 
L 307.193814 277.382277 
L 307.318874 278.269336 
L 307.443933 285.993634 
L 307.568993 286.058442 
L 307.819112 284.24544 
L 307.944171 289.387951 
L 308.194291 284.932404 
L 308.44441 270.256642 
L 308.944648 282.334685 
L 309.069707 264.530859 
L 309.194767 289.776799 
L 309.695005 284.665071 
L 309.945124 285.620989 
L 310.320303 259.430473 
L 310.445362 281.602895 
L 310.570422 278.13567 
L 310.695481 286.990057 
L 310.820541 280.525463 
L 310.9456 283.287902 
L 311.195719 277.058237 
L 311.570898 287.468015 
L 311.695957 289.13682 
L 311.946076 276.871915 
L 312.071136 277.989852 
L 312.446315 284.713677 
L 312.571374 265.060665 
L 312.696434 282.780577 
L 312.821493 279.585748 
L 313.446791 270.022524 
L 313.69691 286.633613 
L 314.197148 286.228563 
L 314.322208 284.932404 
L 314.447267 285.402262 
L 314.572327 285.384035 
L 314.697386 283.968386 
L 314.822446 266.100832 
L 315.072565 284.065598 
L 315.197624 278.172124 
L 315.447743 286.848289 
L 315.572803 278.240983 
L 315.947982 279.901687 
L 316.073041 286.799683 
L 316.32316 267.921473 
L 316.44822 287.038663 
L 316.698339 283.296003 
L 316.823398 239.234694 
L 317.573755 272.400166 
L 317.948934 282.186167 
L 318.073994 277.902361 
L 318.199053 280.651028 
L 318.449172 276.901618 
L 318.574232 284.126355 
L 318.699291 266.445935 
L 318.94941 283.688901 
L 319.07447 281.986588 
L 319.199529 178.882285 
L 319.324589 224.875681 
L 319.574708 271.209319 
L 319.824827 284.543556 
L 319.949887 282.041506 
L 320.325065 281.829723 
L 320.575184 239.743031 
L 320.700244 288.64266 
L 320.825303 288.189004 
L 320.950363 287.026511 
L 321.075422 271.168814 
L 321.200482 281.824863 
L 321.325541 281.991007 
L 321.450601 268.356149 
L 321.82578 213.910985 
L 321.950839 286.720699 
L 322.075899 285.839716 
L 322.826256 274.247192 
L 323.201434 283.871174 
L 323.326494 261.297174 
L 323.701673 282.866651 
L 323.826732 278.816153 
L 324.076851 295.488 
L 324.577089 285.912624 
L 324.827208 278.281488 
L 325.577565 289.54187 
L 325.827685 284.673172 
L 326.327923 267.118317 
L 326.452982 282.105157 
L 326.578042 281.935036 
L 326.703101 263.995384 
L 327.328399 283.684851 
L 328.578994 289.776799 
L 328.954173 274.315241 
L 329.204292 287.553076 
L 329.454411 283.381064 
L 329.82959 272.96521 
L 330.079709 282.528434 
L 330.204768 282.469702 
L 330.579947 274.530727 
L 330.955125 282.259076 
L 331.080185 261.423318 
L 331.205244 285.183535 
L 331.705483 258.207223 
L 331.955602 277.722519 
L 332.45584 279.302213 
L 332.956078 279.924369 
L 333.081137 193.476226 
L 333.206197 289.7849 
L 333.581376 288.407731 
L 333.706435 280.792796 
L 333.831495 282.072753 
L 333.956554 281.96339 
L 334.081614 211.966746 
L 334.206673 222.233947 
L 334.456792 282.524789 
L 334.706911 259.592493 
L 334.831971 284.778485 
L 335.457269 222.627655 
L 335.582328 271.829045 
L 335.707388 270.784017 
L 336.082566 288.626458 
L 336.207626 285.7101 
L 336.332685 285.894397 
L 336.582804 284.179012 
L 336.957983 251.434792 
L 337.083042 287.265491 
L 337.208102 273.697945 
L 337.333162 290.627403 
L 337.458221 248.202495 
L 337.70834 289.618829 
L 337.958459 261.350409 
L 338.208578 286.763229 
L 338.458697 282.093584 
L 339.334114 272.771654 
L 339.459174 287.188531 
L 339.709293 255.598703 
L 339.834352 276.758501 
L 340.084471 250.612541 
L 340.209531 286.131351 
L 340.33459 214.291732 
L 340.45965 285.110626 
L 340.709769 288.671013 
L 340.834828 282.153763 
L 340.959888 282.773489 
L 341.335067 277.639889 
L 341.460126 287.954075 
L 341.585186 203.671328 
L 341.710245 282.072753 
L 341.835305 235.556842 
L 342.085424 285.828914 
L 342.335543 269.872655 
L 343.0859 267.272236 
L 343.21096 278.188326 
L 343.586138 277.418732 
L 343.711198 232.300243 
L 343.836257 285.313151 
L 344.211436 274.514525 
L 344.461555 287.327058 
L 344.836733 285.134929 
L 344.961793 285.479221 
L 345.211912 270.067079 
L 345.462031 276.029411 
L 345.587091 199.345397 
L 345.71215 284.9 
L 345.83721 285.96123 
L 345.962269 272.059924 
L 346.212388 283.097529 
L 346.587567 282.94766 
L 346.712626 260.576764 
L 346.837686 280.152817 
L 347.087805 275.292221 
L 347.212865 266.065188 
L 347.337924 283.960285 
L 347.462984 285.864018 
L 347.588043 282.12946 
L 347.713103 285.288848 
L 347.838162 273.307477 
L 347.963222 285.458969 
L 348.088281 281.384169 
L 348.213341 292.012673 
L 348.46346 269.815948 
L 348.713579 278.54882 
L 348.838638 269.127364 
L 348.963698 278.236932 
L 349.088758 272.789013 
L 349.588996 284.157949 
L 349.839115 275.211211 
L 350.464412 277.179752 
L 350.714531 277.430883 
L 350.839591 285.148816 
L 350.964651 282.4535 
L 351.08971 265.02016 
L 351.21477 280.954816 
L 351.339829 271.614369 
L 352.090186 262.938204 
L 352.215246 286.763229 
L 352.340305 273.89885 
L 352.465365 198.778327 
L 352.715484 284.089901 
L 352.840543 288.099893 
L 353.090663 276.944823 
L 353.590901 286.803734 
L 353.966079 277.738721 
L 354.216198 231.085093 
L 354.716436 283.458023 
L 354.966556 278.488063 
L 355.341734 249.255624 
L 355.466794 276.069916 
L 355.841972 267.563872 
L 356.092091 285.920725 
L 357.967984 279.245506 
L 358.218103 234.56042 
L 358.718342 278.974123 
L 360.093996 284.235719 
L 360.844354 286.512098 
L 362.094949 286.171856 
L 362.220008 287.249289 
L 362.345068 286.957653 
L 365.346497 285.329353 
L 368.472985 273.283174 
L 370.223818 293.730084 
L 372.099711 287.962176 
L 374.225723 289.857809 
L 378.977986 286.5283 
L 379.103045 289.574274 
L 380.228581 281.432774 
L 382.229534 290.919039 
L 385.85626 290.141344 
L 387.106855 285.313151 
L 387.356974 233.162998 
L 389.983225 266.632257 
L 390.233344 279.334617 
L 391.10876 272.327257 
L 391.358879 252.585133 
L 392.734534 288.772276 
L 393.109713 283.530932 
L 393.484891 275.089696 
L 394.235249 287.958126 
L 394.360308 278.046559 
L 394.860546 275.105898 
L 394.985606 282.37249 
L 396.111142 287.840661 
L 396.236201 283.615992 
L 396.361261 283.320306 
L 396.61138 290.230455 
L 397.611856 288.966699 
L 398.487273 286.941451 
L 398.487273 286.941451 
" style="fill:none;stroke:#0000ff;stroke-linecap:square;stroke-width:1.5;"/>
   </g>
   <g id="patch_3">
    <path d="M 57.6 307.584 
L 57.6 41.472 
" style="fill:none;stroke:#000000;stroke-linecap:square;stroke-linejoin:miter;stroke-width:0.8;"/>
   </g>
   <g id="patch_4">
    <path d="M 414.72 307.584 
L 414.72 41.472 
" style="fill:none;stroke:#000000;stroke-linecap:square;stroke-linejoin:miter;stroke-width:0.8;"/>
   </g>
   <g id="patch_5">
    <path d="M 57.6 307.584 
L 414.72 307.584 
" style="fill:none;stroke:#000000;stroke-linecap:square;stroke-linejoin:miter;stroke-width:0.8;"/>
   </g>
   <g id="patch_6">
    <path d="M 57.6 41.472 
L 414.72 41.472 
" style="fill:none;stroke:#000000;stroke-linecap:square;stroke-linejoin:miter;stroke-width:0.8;"/>
   </g>
   <g id="text_13">
    <!-- temperature-&gt;ping_day -->
    <g transform="translate(164.131875 35.472)scale(0.12 -0.12)">
     <defs>
      <path d="M 4.890625 31.390625 
L 31.203125 31.390625 
L 31.203125 23.390625 
L 4.890625 23.390625 
z
" id="DejaVuSans-45"/>
      <path d="M 10.59375 49.21875 
L 10.59375 58.109375 
L 73.1875 35.40625 
L 73.1875 27.296875 
L 10.59375 4.59375 
L 10.59375 13.484375 
L 60.890625 31.296875 
z
" id="DejaVuSans-62"/>
      <path d="M 9.421875 54.6875 
L 18.40625 54.6875 
L 18.40625 0 
L 9.421875 0 
z
M 9.421875 75.984375 
L 18.40625 75.984375 
L 18.40625 64.59375 
L 9.421875 64.59375 
z
" id="DejaVuSans-105"/>
      <path d="M 45.40625 27.984375 
Q 45.40625 37.75 41.375 43.109375 
Q 37.359375 48.484375 30.078125 48.484375 
Q 22.859375 48.484375 18.828125 43.109375 
Q 14.796875 37.75 14.796875 27.984375 
Q 14.796875 18.265625 18.828125 12.890625 
Q 22.859375 7.515625 30.078125 7.515625 
Q 37.359375 7.515625 41.375 12.890625 
Q 45.40625 18.265625 45.40625 27.984375 
z
M 54.390625 6.78125 
Q 54.390625 -7.171875 48.1875 -13.984375 
Q 42 -20.796875 29.203125 -20.796875 
Q 24.46875 -20.796875 20.265625 -20.09375 
Q 16.0625 -19.390625 12.109375 -17.921875 
L 12.109375 -9.1875 
Q 16.0625 -11.328125 19.921875 -12.34375 
Q 23.78125 -13.375 27.78125 -13.375 
Q 36.625 -13.375 41.015625 -8.765625 
Q 45.40625 -4.15625 45.40625 5.171875 
L 45.40625 9.625 
Q 42.625 4.78125 38.28125 2.390625 
Q 33.9375 0 27.875 0 
Q 17.828125 0 11.671875 7.65625 
Q 5.515625 15.328125 5.515625 27.984375 
Q 5.515625 40.671875 11.671875 48.328125 
Q 17.828125 56 27.875 56 
Q 33.9375 56 38.28125 53.609375 
Q 42.625 51.21875 45.40625 46.390625 
L 45.40625 54.6875 
L 54.390625 54.6875 
z
" id="DejaVuSans-103"/>
      <path d="M 50.984375 -16.609375 
L 50.984375 -23.578125 
L -0.984375 -23.578125 
L -0.984375 -16.609375 
z
" id="DejaVuSans-95"/>
      <path d="M 45.40625 46.390625 
L 45.40625 75.984375 
L 54.390625 75.984375 
L 54.390625 0 
L 45.40625 0 
L 45.40625 8.203125 
Q 42.578125 3.328125 38.25 0.953125 
Q 33.9375 -1.421875 27.875 -1.421875 
Q 17.96875 -1.421875 11.734375 6.484375 
Q 5.515625 14.40625 5.515625 27.296875 
Q 5.515625 40.1875 11.734375 48.09375 
Q 17.96875 56 27.875 56 
Q 33.9375 56 38.25 53.625 
Q 42.578125 51.265625 45.40625 46.390625 
z
M 14.796875 27.296875 
Q 14.796875 17.390625 18.875 11.75 
Q 22.953125 6.109375 30.078125 6.109375 
Q 37.203125 6.109375 41.296875 11.75 
Q 45.40625 17.390625 45.40625 27.296875 
Q 45.40625 37.203125 41.296875 42.84375 
Q 37.203125 48.484375 30.078125 48.484375 
Q 22.953125 48.484375 18.875 42.84375 
Q 14.796875 37.203125 14.796875 27.296875 
z
" id="DejaVuSans-100"/>
      <path d="M 32.171875 -5.078125 
Q 28.375 -14.84375 24.75 -17.8125 
Q 21.140625 -20.796875 15.09375 -20.796875 
L 7.90625 -20.796875 
L 7.90625 -13.28125 
L 13.1875 -13.28125 
Q 16.890625 -13.28125 18.9375 -11.515625 
Q 21 -9.765625 23.484375 -3.21875 
L 25.09375 0.875 
L 2.984375 54.6875 
L 12.5 54.6875 
L 29.59375 11.921875 
L 46.6875 54.6875 
L 56.203125 54.6875 
z
" id="DejaVuSans-121"/>
     </defs>
     <use xlink:href="#DejaVuSans-116"/>
     <use x="39.208984" xlink:href="#DejaVuSans-101"/>
     <use x="100.732422" xlink:href="#DejaVuSans-109"/>
     <use x="198.144531" xlink:href="#DejaVuSans-112"/>
     <use x="261.621094" xlink:href="#DejaVuSans-101"/>
     <use x="323.144531" xlink:href="#DejaVuSans-114"/>
     <use x="364.257812" xlink:href="#DejaVuSans-97"/>
     <use x="425.537109" xlink:href="#DejaVuSans-116"/>
     <use x="464.746094" xlink:href="#DejaVuSans-117"/>
     <use x="528.125" xlink:href="#DejaVuSans-114"/>
     <use x="566.988281" xlink:href="#DejaVuSans-101"/>
     <use x="628.511719" xlink:href="#DejaVuSans-45"/>
     <use x="664.595703" xlink:href="#DejaVuSans-62"/>
     <use x="748.384766" xlink:href="#DejaVuSans-112"/>
     <use x="811.861328" xlink:href="#DejaVuSans-105"/>
     <use x="839.644531" xlink:href="#DejaVuSans-110"/>
     <use x="903.023438" xlink:href="#DejaVuSans-103"/>
     <use x="966.5" xlink:href="#DejaVuSans-95"/>
     <use x="1016.5" xlink:href="#DejaVuSans-100"/>
     <use x="1079.976562" xlink:href="#DejaVuSans-97"/>
     <use x="1141.255859" xlink:href="#DejaVuSans-121"/>
    </g>
   </g>
  </g>
  <g id="legend_1">
   <g id="patch_7">
    <path d="M 415.451563 22.678125 
L 453.8 22.678125 
Q 455.8 22.678125 455.8 20.678125 
L 455.8 7 
Q 455.8 5 453.8 5 
L 415.451563 5 
Q 413.451563 5 413.451563 7 
L 413.451563 20.678125 
Q 413.451563 22.678125 415.451563 22.678125 
z
" style="fill:#ffffff;opacity:0.8;stroke:#cccccc;stroke-linejoin:miter;"/>
   </g>
   <g id="line2d_13">
    <path d="M 417.451563 13.098438 
L 437.451563 13.098438 
" style="fill:none;stroke:#0000ff;stroke-linecap:square;stroke-width:1.5;"/>
   </g>
   <g id="line2d_14"/>
   <g id="text_14">
    <!-- p -->
    <g transform="translate(445.451563 16.598438)scale(0.1 -0.1)">
     <use xlink:href="#DejaVuSans-112"/>
    </g>
   </g>
  </g>
 </g>
 <defs>
  <clipPath id="pe4d6449bb8">
   <rect height="266.112" width="357.12" x="57.6" y="41.472"/>
  </clipPath>
 </defs>
</svg>
