<?xml version="1.0" encoding="utf-8" standalone="no"?>
<!DOCTYPE svg PUBLIC "-//W3C//DTD SVG 1.1//EN"
  "http://www.w3.org/Graphics/SVG/1.1/DTD/svg11.dtd">
<!-- Created with matplotlib (https://matplotlib.org/) -->
<svg height="2090.31625pt" version="1.1" viewBox="0 0 2062.259375 2090.31625" width="2062.259375pt" xmlns="http://www.w3.org/2000/svg" xmlns:xlink="http://www.w3.org/1999/xlink">
 <metadata>
  <rdf:RDF xmlns:cc="http://creativecommons.org/ns#" xmlns:dc="http://purl.org/dc/elements/1.1/" xmlns:rdf="http://www.w3.org/1999/02/22-rdf-syntax-ns#">
   <cc:Work>
    <dc:type rdf:resource="http://purl.org/dc/dcmitype/StillImage"/>
    <dc:date>2022-07-24T11:39:58.565777</dc:date>
    <dc:format>image/svg+xml</dc:format>
    <dc:creator>
     <cc:Agent>
      <dc:title>Matplotlib v3.3.2, https://matplotlib.org/</dc:title>
     </cc:Agent>
    </dc:creator>
   </cc:Work>
  </rdf:RDF>
 </metadata>
 <defs>
  <style type="text/css">*{stroke-linecap:butt;stroke-linejoin:round;}</style>
 </defs>
 <g id="figure_1">
  <g id="patch_1">
   <path d="M 0 2090.31625 
L 2062.259375 2090.31625 
L 2062.259375 0 
L 0 0 
z
" style="fill:#ffffff;"/>
  </g>
  <g id="axes_1">
   <g id="patch_2">
    <path d="M 44.059375 2052.76 
L 1829.659375 2052.76 
L 1829.659375 278.68 
L 44.059375 278.68 
z
" style="fill:#ffffff;"/>
   </g>
   <g id="matplotlib.axis_1">
    <g id="xtick_1">
     <g id="line2d_1">
      <defs>
       <path d="M 0 0 
L 0 3.5 
" id="m28d22c4100" style="stroke:#000000;stroke-width:0.8;"/>
      </defs>
      <g>
       <use style="stroke:#000000;stroke-width:0.8;" x="202.521713" xlink:href="#m28d22c4100" y="2052.76"/>
      </g>
     </g>
     <g id="text_1">
      <text style="font-family:DejaVu Sans;font-size:10px;font-stretch:normal;font-style:normal;font-weight:normal;text-anchor:middle;" transform="rotate(-0, 202.521713, 2067.358438)" x="202.521713" y="2067.358438">5</text>
     </g>
    </g>
    <g id="xtick_2">
     <g id="line2d_2">
      <g>
       <use style="stroke:#000000;stroke-width:0.8;" x="553.879446" xlink:href="#m28d22c4100" y="2052.76"/>
      </g>
     </g>
     <g id="text_2">
      <text style="font-family:DejaVu Sans;font-size:10px;font-stretch:normal;font-style:normal;font-weight:normal;text-anchor:middle;" transform="rotate(-0, 553.879446, 2067.358438)" x="553.879446" y="2067.358438">10</text>
     </g>
    </g>
    <g id="xtick_3">
     <g id="line2d_3">
      <g>
       <use style="stroke:#000000;stroke-width:0.8;" x="905.237179" xlink:href="#m28d22c4100" y="2052.76"/>
      </g>
     </g>
     <g id="text_3">
      <text style="font-family:DejaVu Sans;font-size:10px;font-stretch:normal;font-style:normal;font-weight:normal;text-anchor:middle;" transform="rotate(-0, 905.237179, 2067.358438)" x="905.237179" y="2067.358438">15</text>
     </g>
    </g>
    <g id="xtick_4">
     <g id="line2d_4">
      <g>
       <use style="stroke:#000000;stroke-width:0.8;" x="1256.594912" xlink:href="#m28d22c4100" y="2052.76"/>
      </g>
     </g>
     <g id="text_4">
      <text style="font-family:DejaVu Sans;font-size:10px;font-stretch:normal;font-style:normal;font-weight:normal;text-anchor:middle;" transform="rotate(-0, 1256.594912, 2067.358438)" x="1256.594912" y="2067.358438">20</text>
     </g>
    </g>
    <g id="xtick_5">
     <g id="line2d_5">
      <g>
       <use style="stroke:#000000;stroke-width:0.8;" x="1607.952645" xlink:href="#m28d22c4100" y="2052.76"/>
      </g>
     </g>
     <g id="text_5">
      <text style="font-family:DejaVu Sans;font-size:10px;font-stretch:normal;font-style:normal;font-weight:normal;text-anchor:middle;" transform="rotate(-0, 1607.952645, 2067.358438)" x="1607.952645" y="2067.358438">25</text>
     </g>
    </g>
    <g id="text_6">
     <text style="font-family:DejaVu Sans;font-size:10px;font-stretch:normal;font-style:normal;font-weight:normal;text-anchor:middle;" transform="rotate(-0, 936.859375, 2081.036562)" x="936.859375" y="2081.036562">temperature from WeatherBitIO</text>
    </g>
   </g>
   <g id="matplotlib.axis_2">
    <g id="ytick_1">
     <g id="line2d_6">
      <defs>
       <path d="M 0 0 
L -3.5 0 
" id="m884741adb7" style="stroke:#000000;stroke-width:0.8;"/>
      </defs>
      <g>
       <use style="stroke:#000000;stroke-width:0.8;" x="44.059375" xlink:href="#m884741adb7" y="1994.290657"/>
      </g>
     </g>
     <g id="text_7">
      <text style="font-family:DejaVu Sans;font-size:10px;font-stretch:normal;font-style:normal;font-weight:normal;text-anchor:end;" transform="rotate(-0, 37.059375, 1998.089876)" x="37.059375" y="1998.089876">5.0</text>
     </g>
    </g>
    <g id="ytick_2">
     <g id="line2d_7">
      <g>
       <use style="stroke:#000000;stroke-width:0.8;" x="44.059375" xlink:href="#m884741adb7" y="1779.041558"/>
      </g>
     </g>
     <g id="text_8">
      <text style="font-family:DejaVu Sans;font-size:10px;font-stretch:normal;font-style:normal;font-weight:normal;text-anchor:end;" transform="rotate(-0, 37.059375, 1782.840777)" x="37.059375" y="1782.840777">5.5</text>
     </g>
    </g>
    <g id="ytick_3">
     <g id="line2d_8">
      <g>
       <use style="stroke:#000000;stroke-width:0.8;" x="44.059375" xlink:href="#m884741adb7" y="1563.792459"/>
      </g>
     </g>
     <g id="text_9">
      <text style="font-family:DejaVu Sans;font-size:10px;font-stretch:normal;font-style:normal;font-weight:normal;text-anchor:end;" transform="rotate(-0, 37.059375, 1567.591678)" x="37.059375" y="1567.591678">6.0</text>
     </g>
    </g>
    <g id="ytick_4">
     <g id="line2d_9">
      <g>
       <use style="stroke:#000000;stroke-width:0.8;" x="44.059375" xlink:href="#m884741adb7" y="1348.54336"/>
      </g>
     </g>
     <g id="text_10">
      <text style="font-family:DejaVu Sans;font-size:10px;font-stretch:normal;font-style:normal;font-weight:normal;text-anchor:end;" transform="rotate(-0, 37.059375, 1352.342579)" x="37.059375" y="1352.342579">6.5</text>
     </g>
    </g>
    <g id="ytick_5">
     <g id="line2d_10">
      <g>
       <use style="stroke:#000000;stroke-width:0.8;" x="44.059375" xlink:href="#m884741adb7" y="1133.294261"/>
      </g>
     </g>
     <g id="text_11">
      <text style="font-family:DejaVu Sans;font-size:10px;font-stretch:normal;font-style:normal;font-weight:normal;text-anchor:end;" transform="rotate(-0, 37.059375, 1137.093479)" x="37.059375" y="1137.093479">7.0</text>
     </g>
    </g>
    <g id="ytick_6">
     <g id="line2d_11">
      <g>
       <use style="stroke:#000000;stroke-width:0.8;" x="44.059375" xlink:href="#m884741adb7" y="918.045162"/>
      </g>
     </g>
     <g id="text_12">
      <text style="font-family:DejaVu Sans;font-size:10px;font-stretch:normal;font-style:normal;font-weight:normal;text-anchor:end;" transform="rotate(-0, 37.059375, 921.84438)" x="37.059375" y="921.84438">7.5</text>
     </g>
    </g>
    <g id="ytick_7">
     <g id="line2d_12">
      <g>
       <use style="stroke:#000000;stroke-width:0.8;" x="44.059375" xlink:href="#m884741adb7" y="702.796062"/>
      </g>
     </g>
     <g id="text_13">
      <text style="font-family:DejaVu Sans;font-size:10px;font-stretch:normal;font-style:normal;font-weight:normal;text-anchor:end;" transform="rotate(-0, 37.059375, 706.595281)" x="37.059375" y="706.595281">8.0</text>
     </g>
    </g>
    <g id="ytick_8">
     <g id="line2d_13">
      <g>
       <use style="stroke:#000000;stroke-width:0.8;" x="44.059375" xlink:href="#m884741adb7" y="487.546963"/>
      </g>
     </g>
     <g id="text_14">
      <text style="font-family:DejaVu Sans;font-size:10px;font-stretch:normal;font-style:normal;font-weight:normal;text-anchor:end;" transform="rotate(-0, 37.059375, 491.346182)" x="37.059375" y="491.346182">8.5</text>
     </g>
    </g>
    <g id="text_15">
     <text style="font-family:DejaVu Sans;font-size:10px;font-stretch:normal;font-style:normal;font-weight:normal;text-anchor:middle;" transform="rotate(-90, 14.798438, 1165.72)" x="14.798438" y="1165.72">ping_day[ms]</text>
    </g>
   </g>
   <g id="line2d_14">
    <path clip-path="url(#p7541dfff8c)" d="M 125.223011 1910.774007 
L 160.358785 1972.12 
L 202.521713 1914.131893 
L 244.684641 1832.584771 
L 279.820414 1855.957236 
L 321.983342 1736.345362 
L 329.010497 1858.714475 
L 357.119115 1742.82231 
L 378.200579 1929.931177 
L 392.254889 1846.681435 
L 399.282043 1896.650354 
L 406.309198 1726.559914 
L 434.417817 1875.473154 
L 448.472126 1869.828845 
L 462.526435 1831.794145 
L 469.55359 1771.50784 
L 476.580745 1836.950509 
L 483.607899 1575.021287 
L 490.635054 1534.088083 
L 497.662209 1392.741175 
L 511.716518 1812.89486 
L 525.770827 1827.318856 
L 532.797982 1862.12771 
L 546.852291 1840.681073 
L 553.879446 1852.120392 
L 567.933755 1324.55026 
L 574.96091 1805.067131 
L 581.988064 1894.141122 
L 596.042374 1750.151386 
L 610.096683 1751.637657 
L 617.123838 1428.541155 
L 624.150992 1304.130296 
L 631.178147 1599.003356 
L 638.205302 1859.75997 
L 645.232456 1632.600421 
L 652.259611 1786.046938 
L 659.286766 1654.358517 
L 666.31392 1726.520778 
L 673.341075 1732.244138 
L 680.36823 1250.422886 
L 687.395384 1878.379017 
L 694.422539 1544.185223 
L 701.449694 1915.470351 
L 708.476848 1235.464083 
L 715.504003 1376.658204 
L 722.531158 1835.299063 
L 729.558312 1399.187168 
L 736.585467 1602.510391 
L 743.612622 1772.882122 
L 750.639776 1623.124234 
L 757.666931 1685.946323 
L 764.694086 1737.694163 
L 771.72124 1255.829702 
L 778.748395 1500.761908 
L 785.77555 1289.914886 
L 792.802704 1958.774556 
L 799.829859 1642.968253 
L 806.857014 1764.225245 
L 813.884168 1567.595193 
L 820.911323 1829.775118 
L 827.938478 1523.41426 
L 834.965632 1576.52499 
L 841.992787 1631.513137 
L 849.019942 1418.168165 
L 856.047096 1523.266924 
L 863.074251 1623.182947 
L 870.101406 1635.708316 
L 877.12856 1591.07245 
L 884.155715 359.32 
L 891.18287 1726.531816 
L 898.210024 1651.351009 
L 905.237179 1603.220156 
L 912.264334 1657.939103 
L 919.291488 1760.060501 
L 926.318643 1671.468965 
L 933.345798 1766.413611 
L 940.372952 1457.100655 
L 947.400107 1684.38728 
L 954.427262 1469.618782 
L 961.454416 1569.49656 
L 968.481571 1674.602695 
L 975.508726 1451.987911 
L 982.53588 1581.409171 
L 989.563035 1332.218868 
L 996.59019 1802.950766 
L 1010.644499 1433.012324 
L 1017.671654 1713.462333 
L 1024.698808 1621.888093 
L 1031.725963 1763.21247 
L 1038.753118 1923.509578 
L 1045.780272 1760.256182 
L 1052.807427 1727.632898 
L 1059.834582 1683.290487 
L 1066.861736 1672.036506 
L 1073.888891 1685.772806 
L 1087.9432 1875.440039 
L 1094.970355 1296.287502 
L 1101.99751 1694.249844 
L 1109.024664 1777.143452 
L 1116.051819 1793.810958 
L 1123.078974 1668.61877 
L 1130.106128 1610.908095 
L 1137.133283 1681.886486 
L 1144.160438 1725.841915 
L 1158.214747 1769.0171 
L 1165.241902 1707.148359 
L 1179.296211 1656.337153 
L 1186.323366 1444.52489 
L 1193.35052 1557.119737 
L 1200.377675 1611.620809 
L 1207.40483 1214.504671 
L 1214.431984 1711.46424 
L 1221.459139 1163.52848 
L 1228.486294 1511.205448 
L 1235.513448 1848.093469 
L 1242.540603 1407.029615 
L 1256.594912 1678.626247 
L 1263.622067 1573.871181 
L 1270.649222 1724.798785 
L 1277.676376 1799.131474 
L 1291.730686 1430.703941 
L 1298.75784 1593.744319 
L 1319.839304 1707.291858 
L 1333.893613 1646.857184 
L 1340.920768 1893.280125 
L 1354.975077 1773.87558 
L 1369.029387 1342.372886 
L 1376.056541 1673.060443 
L 1383.083696 1743.674475 
L 1390.110851 1320.216578 
L 1397.138005 1788.36278 
L 1404.16516 1891.918186 
L 1411.192315 1585.744606 
L 1418.219469 1752.252829 
L 1425.246624 1572.087828 
L 1446.328088 1904.54834 
L 1453.355243 1657.636927 
L 1460.382397 1397.954986 
L 1488.491016 1421.92985 
L 1509.57248 1845.948153 
L 1523.626789 1904.603533 
L 1530.653944 1854.450492 
L 1558.762563 1891.368473 
L 1579.844027 1562.895588 
L 1614.9798 1345.458123 
L 1650.115573 1738.724466 
L 1692.278501 996.252334 
L 1699.305656 1652.259839 
L 1713.359965 1578.48321 
L 1727.414275 1629.400384 
L 1734.441429 1763.359124 
L 1748.495739 1781.481048 
L 1748.495739 1781.481048 
" style="fill:none;stroke:#0000ff;stroke-linecap:square;stroke-width:1.5;"/>
   </g>
   <g id="patch_3">
    <path d="M 44.059375 2052.76 
L 44.059375 278.68 
" style="fill:none;stroke:#000000;stroke-linecap:square;stroke-linejoin:miter;stroke-width:0.8;"/>
   </g>
   <g id="patch_4">
    <path d="M 1829.659375 2052.76 
L 1829.659375 278.68 
" style="fill:none;stroke:#000000;stroke-linecap:square;stroke-linejoin:miter;stroke-width:0.8;"/>
   </g>
   <g id="patch_5">
    <path d="M 44.059375 2052.76 
L 1829.659375 2052.76 
" style="fill:none;stroke:#000000;stroke-linecap:square;stroke-linejoin:miter;stroke-width:0.8;"/>
   </g>
   <g id="patch_6">
    <path d="M 44.059375 278.68 
L 1829.659375 278.68 
" style="fill:none;stroke:#000000;stroke-linecap:square;stroke-linejoin:miter;stroke-width:0.8;"/>
   </g>
   <g id="text_16">
    <text style="font-family:DejaVu Sans;font-size:12px;font-stretch:normal;font-style:normal;font-weight:normal;text-anchor:middle;" transform="rotate(-0, 936.859375, 272.68)" x="936.859375" y="272.68">temperature-&gt;ping_day</text>
   </g>
  </g>
  <g id="legend_1">
   <g id="patch_7">
    <path d="M 1955.298437 22.95625 
L 2055.259375 22.95625 
Q 2057.259375 22.95625 2057.259375 20.95625 
L 2057.259375 7 
Q 2057.259375 5 2055.259375 5 
L 1955.298437 5 
Q 1953.298437 5 1953.298437 7 
L 1953.298437 20.95625 
Q 1953.298437 22.95625 1955.298437 22.95625 
z
" style="fill:#ffffff;opacity:0.8;stroke:#cccccc;stroke-linejoin:miter;"/>
   </g>
   <g id="line2d_15">
    <path d="M 1957.298437 13.098438 
L 1977.298437 13.098438 
" style="fill:none;stroke:#0000ff;stroke-linecap:square;stroke-width:1.5;"/>
   </g>
   <g id="line2d_16"/>
   <g id="text_17">
    <text style="font-family:DejaVu Sans;font-size:10px;font-stretch:normal;font-style:normal;font-weight:normal;text-anchor:start;" transform="rotate(-0, 1985.298437, 16.598438)" x="1985.298437" y="16.598438">ping_day[ms]</text>
   </g>
  </g>
 </g>
 <defs>
  <clipPath id="p7541dfff8c">
   <rect height="1774.08" width="1785.6" x="44.059375" y="278.68"/>
  </clipPath>
 </defs>
</svg>
