<?xml version="1.0" encoding="utf-8" standalone="no"?>
<!DOCTYPE svg PUBLIC "-//W3C//DTD SVG 1.1//EN"
  "http://www.w3.org/Graphics/SVG/1.1/DTD/svg11.dtd">
<!-- Created with matplotlib (https://matplotlib.org/) -->
<svg height="2090.594375pt" version="1.1" viewBox="0 0 2061.98125 2090.594375" width="2061.98125pt" xmlns="http://www.w3.org/2000/svg" xmlns:xlink="http://www.w3.org/1999/xlink">
 <metadata>
  <rdf:RDF xmlns:cc="http://creativecommons.org/ns#" xmlns:dc="http://purl.org/dc/elements/1.1/" xmlns:rdf="http://www.w3.org/1999/02/22-rdf-syntax-ns#">
   <cc:Work>
    <dc:type rdf:resource="http://purl.org/dc/dcmitype/StillImage"/>
    <dc:date>2022-07-23T21:19:18.175855</dc:date>
    <dc:format>image/svg+xml</dc:format>
    <dc:creator>
     <cc:Agent>
      <dc:title>Matplotlib v3.3.2, https://matplotlib.org/</dc:title>
     </cc:Agent>
    </dc:creator>
   </cc:Work>
  </rdf:RDF>
 </metadata>
 <defs>
  <style type="text/css">*{stroke-linecap:butt;stroke-linejoin:round;}</style>
 </defs>
 <g id="figure_1">
  <g id="patch_1">
   <path d="M 0 2090.594375 
L 2061.98125 2090.594375 
L 2061.98125 0 
L 0 0 
z
" style="fill:#ffffff;"/>
  </g>
  <g id="axes_1">
   <g id="patch_2">
    <path d="M 43.78125 2052.76 
L 1829.38125 2052.76 
L 1829.38125 278.68 
L 43.78125 278.68 
z
" style="fill:#ffffff;"/>
   </g>
   <g id="matplotlib.axis_1">
    <g id="xtick_1">
     <g id="line2d_1">
      <defs>
       <path d="M 0 0 
L 0 3.5 
" id="mcc33a6577e" style="stroke:#000000;stroke-width:0.8;"/>
      </defs>
      <g>
       <use style="stroke:#000000;stroke-width:0.8;" x="124.944886" xlink:href="#mcc33a6577e" y="2052.76"/>
      </g>
     </g>
     <g id="text_1">
      <text style="font-family:DejaVu Sans;font-size:10px;font-stretch:normal;font-style:normal;font-weight:normal;text-anchor:middle;" transform="rotate(-0, 124.944886, 2067.358437)" x="124.944886" y="2067.358437">0</text>
     </g>
    </g>
    <g id="xtick_2">
     <g id="line2d_2">
      <g>
       <use style="stroke:#000000;stroke-width:0.8;" x="351.91255" xlink:href="#mcc33a6577e" y="2052.76"/>
      </g>
     </g>
     <g id="text_2">
      <text style="font-family:DejaVu Sans;font-size:10px;font-stretch:normal;font-style:normal;font-weight:normal;text-anchor:middle;" transform="rotate(-0, 351.91255, 2067.358437)" x="351.91255" y="2067.358437">5</text>
     </g>
    </g>
    <g id="xtick_3">
     <g id="line2d_3">
      <g>
       <use style="stroke:#000000;stroke-width:0.8;" x="578.880213" xlink:href="#mcc33a6577e" y="2052.76"/>
      </g>
     </g>
     <g id="text_3">
      <text style="font-family:DejaVu Sans;font-size:10px;font-stretch:normal;font-style:normal;font-weight:normal;text-anchor:middle;" transform="rotate(-0, 578.880213, 2067.358437)" x="578.880213" y="2067.358437">10</text>
     </g>
    </g>
    <g id="xtick_4">
     <g id="line2d_4">
      <g>
       <use style="stroke:#000000;stroke-width:0.8;" x="805.847876" xlink:href="#mcc33a6577e" y="2052.76"/>
      </g>
     </g>
     <g id="text_4">
      <text style="font-family:DejaVu Sans;font-size:10px;font-stretch:normal;font-style:normal;font-weight:normal;text-anchor:middle;" transform="rotate(-0, 805.847876, 2067.358437)" x="805.847876" y="2067.358437">15</text>
     </g>
    </g>
    <g id="xtick_5">
     <g id="line2d_5">
      <g>
       <use style="stroke:#000000;stroke-width:0.8;" x="1032.815539" xlink:href="#mcc33a6577e" y="2052.76"/>
      </g>
     </g>
     <g id="text_5">
      <text style="font-family:DejaVu Sans;font-size:10px;font-stretch:normal;font-style:normal;font-weight:normal;text-anchor:middle;" transform="rotate(-0, 1032.815539, 2067.358437)" x="1032.815539" y="2067.358437">20</text>
     </g>
    </g>
    <g id="xtick_6">
     <g id="line2d_6">
      <g>
       <use style="stroke:#000000;stroke-width:0.8;" x="1259.783202" xlink:href="#mcc33a6577e" y="2052.76"/>
      </g>
     </g>
     <g id="text_6">
      <text style="font-family:DejaVu Sans;font-size:10px;font-stretch:normal;font-style:normal;font-weight:normal;text-anchor:middle;" transform="rotate(-0, 1259.783202, 2067.358437)" x="1259.783202" y="2067.358437">25</text>
     </g>
    </g>
    <g id="xtick_7">
     <g id="line2d_7">
      <g>
       <use style="stroke:#000000;stroke-width:0.8;" x="1486.750866" xlink:href="#mcc33a6577e" y="2052.76"/>
      </g>
     </g>
     <g id="text_7">
      <text style="font-family:DejaVu Sans;font-size:10px;font-stretch:normal;font-style:normal;font-weight:normal;text-anchor:middle;" transform="rotate(-0, 1486.750866, 2067.358437)" x="1486.750866" y="2067.358437">30</text>
     </g>
    </g>
    <g id="xtick_8">
     <g id="line2d_8">
      <g>
       <use style="stroke:#000000;stroke-width:0.8;" x="1713.718529" xlink:href="#mcc33a6577e" y="2052.76"/>
      </g>
     </g>
     <g id="text_8">
      <text style="font-family:DejaVu Sans;font-size:10px;font-stretch:normal;font-style:normal;font-weight:normal;text-anchor:middle;" transform="rotate(-0, 1713.718529, 2067.358437)" x="1713.718529" y="2067.358437">35</text>
     </g>
    </g>
    <g id="text_9">
     <text style="font-family:DejaVu Sans;font-size:10px;font-stretch:normal;font-style:normal;font-weight:normal;text-anchor:middle;" transform="rotate(-0, 936.58125, 2081.036562)" x="936.58125" y="2081.036562">wind_speed from Aeris</text>
    </g>
   </g>
   <g id="matplotlib.axis_2">
    <g id="ytick_1">
     <g id="line2d_9">
      <defs>
       <path d="M 0 0 
L -3.5 0 
" id="mad6af8090c" style="stroke:#000000;stroke-width:0.8;"/>
      </defs>
      <g>
       <use style="stroke:#000000;stroke-width:0.8;" x="43.78125" xlink:href="#mad6af8090c" y="1930.840919"/>
      </g>
     </g>
     <g id="text_10">
      <text style="font-family:DejaVu Sans;font-size:10px;font-stretch:normal;font-style:normal;font-weight:normal;text-anchor:end;" transform="rotate(-0, 36.78125, 1934.640138)" x="36.78125" y="1934.640138">0.6</text>
     </g>
    </g>
    <g id="ytick_2">
     <g id="line2d_10">
      <g>
       <use style="stroke:#000000;stroke-width:0.8;" x="43.78125" xlink:href="#mad6af8090c" y="1732.642926"/>
      </g>
     </g>
     <g id="text_11">
      <text style="font-family:DejaVu Sans;font-size:10px;font-stretch:normal;font-style:normal;font-weight:normal;text-anchor:end;" transform="rotate(-0, 36.78125, 1736.442145)" x="36.78125" y="1736.442145">0.7</text>
     </g>
    </g>
    <g id="ytick_3">
     <g id="line2d_11">
      <g>
       <use style="stroke:#000000;stroke-width:0.8;" x="43.78125" xlink:href="#mad6af8090c" y="1534.444933"/>
      </g>
     </g>
     <g id="text_12">
      <text style="font-family:DejaVu Sans;font-size:10px;font-stretch:normal;font-style:normal;font-weight:normal;text-anchor:end;" transform="rotate(-0, 36.78125, 1538.244152)" x="36.78125" y="1538.244152">0.8</text>
     </g>
    </g>
    <g id="ytick_4">
     <g id="line2d_12">
      <g>
       <use style="stroke:#000000;stroke-width:0.8;" x="43.78125" xlink:href="#mad6af8090c" y="1336.24694"/>
      </g>
     </g>
     <g id="text_13">
      <text style="font-family:DejaVu Sans;font-size:10px;font-stretch:normal;font-style:normal;font-weight:normal;text-anchor:end;" transform="rotate(-0, 36.78125, 1340.046159)" x="36.78125" y="1340.046159">0.9</text>
     </g>
    </g>
    <g id="ytick_5">
     <g id="line2d_13">
      <g>
       <use style="stroke:#000000;stroke-width:0.8;" x="43.78125" xlink:href="#mad6af8090c" y="1138.048947"/>
      </g>
     </g>
     <g id="text_14">
      <text style="font-family:DejaVu Sans;font-size:10px;font-stretch:normal;font-style:normal;font-weight:normal;text-anchor:end;" transform="rotate(-0, 36.78125, 1141.848166)" x="36.78125" y="1141.848166">1.0</text>
     </g>
    </g>
    <g id="ytick_6">
     <g id="line2d_14">
      <g>
       <use style="stroke:#000000;stroke-width:0.8;" x="43.78125" xlink:href="#mad6af8090c" y="939.850954"/>
      </g>
     </g>
     <g id="text_15">
      <text style="font-family:DejaVu Sans;font-size:10px;font-stretch:normal;font-style:normal;font-weight:normal;text-anchor:end;" transform="rotate(-0, 36.78125, 943.650173)" x="36.78125" y="943.650173">1.1</text>
     </g>
    </g>
    <g id="ytick_7">
     <g id="line2d_15">
      <g>
       <use style="stroke:#000000;stroke-width:0.8;" x="43.78125" xlink:href="#mad6af8090c" y="741.652961"/>
      </g>
     </g>
     <g id="text_16">
      <text style="font-family:DejaVu Sans;font-size:10px;font-stretch:normal;font-style:normal;font-weight:normal;text-anchor:end;" transform="rotate(-0, 36.78125, 745.45218)" x="36.78125" y="745.45218">1.2</text>
     </g>
    </g>
    <g id="ytick_8">
     <g id="line2d_16">
      <g>
       <use style="stroke:#000000;stroke-width:0.8;" x="43.78125" xlink:href="#mad6af8090c" y="543.454968"/>
      </g>
     </g>
     <g id="text_17">
      <text style="font-family:DejaVu Sans;font-size:10px;font-stretch:normal;font-style:normal;font-weight:normal;text-anchor:end;" transform="rotate(-0, 36.78125, 547.254187)" x="36.78125" y="547.254187">1.3</text>
     </g>
    </g>
    <g id="ytick_9">
     <g id="line2d_17">
      <g>
       <use style="stroke:#000000;stroke-width:0.8;" x="43.78125" xlink:href="#mad6af8090c" y="345.256975"/>
      </g>
     </g>
     <g id="text_18">
      <text style="font-family:DejaVu Sans;font-size:10px;font-stretch:normal;font-style:normal;font-weight:normal;text-anchor:end;" transform="rotate(-0, 36.78125, 349.056193)" x="36.78125" y="349.056193">1.4</text>
     </g>
    </g>
    <g id="text_19">
     <text style="font-family:DejaVu Sans;font-size:10px;font-stretch:normal;font-style:normal;font-weight:normal;text-anchor:middle;" transform="rotate(-90, 14.798437, 1165.72)" x="14.798437" y="1165.72">Throughput[Bit/s]</text>
    </g>
    <g id="text_20">
     <text style="font-family:DejaVu Sans;font-size:10px;font-stretch:normal;font-style:normal;font-weight:normal;text-anchor:start;" transform="rotate(-0, 43.78125, 275.68)" x="43.78125" y="275.68">1e7</text>
    </g>
   </g>
   <g id="line2d_18">
    <path clip-path="url(#pd8efd02081)" d="M 124.944886 487.659578 
L 167.160872 432.215337 
L 208.922922 532.250303 
L 233.889365 476.817781 
L 241.15233 887.344429 
L 251.138907 485.055229 
L 258.855808 501.485528 
L 273.835673 577.457848 
L 292.900957 472.902298 
L 317.8674 480.730545 
L 325.584301 1005.120624 
L 335.116942 604.355388 
L 342.833843 627.314946 
L 344.649584 503.924001 
L 352.366485 439.632849 
L 367.346351 534.976002 
L 377.332928 501.071954 
L 390.043117 585.483645 
L 392.312794 469.829143 
L 401.845435 614.603799 
L 409.562336 680.708723 
L 419.094978 474.921083 
L 426.811878 565.696916 
L 429.081555 457.459498 
L 436.34452 485.542761 
L 441.791744 859.213393 
L 451.778321 470.238008 
L 461.310963 557.812373 
L 476.290829 597.061394 
L 480.830182 447.404692 
L 485.823471 643.328175 
L 493.540371 632.059152 
L 495.810048 431.608612 
L 501.257272 688.688164 
L 503.073013 467.899687 
L 510.789914 510.538953 
L 513.05959 566.164479 
L 520.322556 489.926586 
L 525.76978 917.527239 
L 526.223715 533.830484 
L 535.756357 460.591956 
L 545.288999 502.896773 
L 550.736223 514.160687 
L 560.268864 679.605974 
L 564.808218 482.171328 
L 570.255442 505.789408 
L 577.518407 687.742407 
L 579.788083 487.875894 
L 585.235307 659.305044 
L 587.504984 475.438647 
L 597.037626 452.515199 
L 604.754526 544.171927 
L 609.747815 452.668629 
L 610.20175 515.041588 
L 619.734392 559.837065 
L 622.911939 369.572502 
L 629.267034 521.473626 
L 634.714258 458.806607 
L 642.431158 470.106906 
L 644.700835 459.932186 
L 648.786253 478.700501 
L 654.233477 459.904754 
L 659.680701 428.205467 
L 661.496442 449.360526 
L 663.766119 464.496617 
L 669.213343 513.876081 
L 679.19992 469.025024 
L 681.015661 477.542627 
L 688.732562 580.305718 
L 694.179786 551.513099 
L 703.712428 486.104101 
L 706.889975 368.929373 
L 713.245069 480.0735 
L 719.146229 409.389553 
L 726.409194 554.45291 
L 728.678871 485.479604 
L 732.764288 658.473188 
L 738.211512 453.006489 
L 739.119383 414.461123 
L 745.928413 466.277908 
L 747.744154 789.561344 
L 753.645313 506.166708 
L 755.461055 532.431871 
L 758.638602 441.352742 
L 763.177955 526.166457 
L 764.993697 566.503911 
L 771.802727 359.32 
L 772.710597 452.855044 
L 778.157821 525.758134 
L 784.512916 552.055862 
L 787.690463 457.774818 
L 797.67704 469.210532 
L 812.656906 504.759469 
L 816.742324 482.791379 
L 822.189548 501.253926 
L 823.551354 457.426713 
L 829.906448 498.497257 
L 831.72219 482.702881 
L 836.261543 530.793243 
L 837.623349 464.607613 
L 847.155991 431.485026 
L 849.425667 459.877275 
L 856.688633 436.72117 
L 862.135856 432.624231 
L 868.490951 705.751898 
L 872.122434 445.090445 
L 881.655076 577.03567 
L 887.102299 624.947877 
L 896.634941 468.493487 
L 901.174295 563.162939 
L 906.167583 433.236412 
L 913.884484 538.428512 
L 916.15416 459.761743 
L 920.239578 710.720276 
L 921.601384 405.075719 
L 931.134026 460.545198 
L 933.403703 444.347761 
L 940.666668 507.036382 
L 952.922922 461.212278 
L 956.100469 474.580273 
L 965.633111 535.263248 
L 971.080335 523.306028 
L 971.988205 446.630494 
L 978.3433 444.570263 
L 985.15233 805.482702 
L 990.599554 467.032605 
L 996.046778 417.874595 
L 997.862519 632.451503 
L 1000.132196 558.729947 
L 1004.217614 665.213851 
L 1007.849096 579.697241 
L 1015.112061 496.741364 
L 1017.381738 449.598218 
L 1025.098639 474.439635 
L 1036.900957 465.885285 
L 1040.078504 1345.191689 
L 1049.611146 468.000339 
L 1055.05837 505.672259 
L 1059.143788 401.201208 
L 1062.775271 476.259722 
L 1065.044947 485.207906 
L 1069.130365 430.105244 
L 1074.577589 469.918174 
L 1081.840554 426.450526 
L 1084.110231 454.005842 
L 1099.544032 744.863633 
L 1101.359773 405.796973 
L 1109.076674 463.266573 
L 1114.523898 497.470728 
L 1120.878993 1051.505864 
L 1124.05654 776.443009 
L 1133.589182 448.872106 
L 1146.753306 431.01412 
L 1153.108401 700.710756 
L 1166.272525 410.128435 
L 1168.088266 520.412179 
L 1183.522068 1972.12 
L 1185.337809 481.700529 
L 1192.146839 686.422505 
L 1193.054709 453.064097 
L 1198.501933 453.423202 
L 1204.857028 435.652461 
L 1218.021152 457.279275 
L 1230.731342 622.082522 
L 1237.086436 906.28744 
L 1250.250561 505.290121 
L 1252.066302 457.107559 
L 1256.605655 411.499691 
L 1269.76978 477.66829 
L 1282.479969 366.217405 
L 1288.835063 446.977921 
L 1301.999188 622.196598 
L 1311.53183 497.790996 
L 1314.709377 959.618456 
L 1321.518407 487.856392 
L 1334.228596 1413.08214 
L 1340.583691 394.876151 
L 1353.747815 479.831578 
L 1373.267034 464.874028 
L 1385.977223 547.783833 
L 1392.332318 465.461301 
L 1405.496442 419.266857 
L 1424.561726 447.706826 
L 1437.72585 455.933103 
L 1469.955259 433.060952 
L 1476.310353 398.086382 
L 1489.474478 535.417779 
L 1508.993697 444.843176 
L 1528.05898 479.839374 
L 1541.223105 397.189172 
L 1560.742324 419.289 
L 1573.452513 621.56747 
L 1579.807608 476.614309 
L 1625.20114 406.425355 
L 1644.720359 588.505499 
L 1676.949767 435.722081 
L 1748.217614 452.267696 
L 1748.217614 452.267696 
" style="fill:none;stroke:#0000ff;stroke-linecap:square;stroke-width:1.5;"/>
   </g>
   <g id="patch_3">
    <path d="M 43.78125 2052.76 
L 43.78125 278.68 
" style="fill:none;stroke:#000000;stroke-linecap:square;stroke-linejoin:miter;stroke-width:0.8;"/>
   </g>
   <g id="patch_4">
    <path d="M 1829.38125 2052.76 
L 1829.38125 278.68 
" style="fill:none;stroke:#000000;stroke-linecap:square;stroke-linejoin:miter;stroke-width:0.8;"/>
   </g>
   <g id="patch_5">
    <path d="M 43.78125 2052.76 
L 1829.38125 2052.76 
" style="fill:none;stroke:#000000;stroke-linecap:square;stroke-linejoin:miter;stroke-width:0.8;"/>
   </g>
   <g id="patch_6">
    <path d="M 43.78125 278.68 
L 1829.38125 278.68 
" style="fill:none;stroke:#000000;stroke-linecap:square;stroke-linejoin:miter;stroke-width:0.8;"/>
   </g>
   <g id="text_21">
    <text style="font-family:DejaVu Sans;font-size:12px;font-stretch:normal;font-style:normal;font-weight:normal;text-anchor:middle;" transform="rotate(-0, 936.58125, 272.68)" x="936.58125" y="272.68">wind_speed-&gt;Throughput</text>
   </g>
  </g>
  <g id="legend_1">
   <g id="patch_7">
    <path d="M 1934.960937 22.678125 
L 2054.98125 22.678125 
Q 2056.98125 22.678125 2056.98125 20.678125 
L 2056.98125 7 
Q 2056.98125 5 2054.98125 5 
L 1934.960937 5 
Q 1932.960937 5 1932.960937 7 
L 1932.960937 20.678125 
Q 1932.960937 22.678125 1934.960937 22.678125 
z
" style="fill:#ffffff;opacity:0.8;stroke:#cccccc;stroke-linejoin:miter;"/>
   </g>
   <g id="line2d_19">
    <path d="M 1936.960937 13.098437 
L 1956.960937 13.098437 
" style="fill:none;stroke:#0000ff;stroke-linecap:square;stroke-width:1.5;"/>
   </g>
   <g id="line2d_20"/>
   <g id="text_22">
    <text style="font-family:DejaVu Sans;font-size:10px;font-stretch:normal;font-style:normal;font-weight:normal;text-anchor:start;" transform="rotate(-0, 1964.960937, 16.598437)" x="1964.960937" y="16.598437">Throughput[Bit/s]</text>
   </g>
  </g>
 </g>
 <defs>
  <clipPath id="pd8efd02081">
   <rect height="1774.08" width="1785.6" x="43.78125" y="278.68"/>
  </clipPath>
 </defs>
</svg>
