<?xml version="1.0" encoding="utf-8" standalone="no"?>
<!DOCTYPE svg PUBLIC "-//W3C//DTD SVG 1.1//EN"
  "http://www.w3.org/Graphics/SVG/1.1/DTD/svg11.dtd">
<!-- Created with matplotlib (https://matplotlib.org/) -->
<svg height="345.6pt" version="1.1" viewBox="0 0 460.8 345.6" width="460.8pt" xmlns="http://www.w3.org/2000/svg" xmlns:xlink="http://www.w3.org/1999/xlink">
 <metadata>
  <rdf:RDF xmlns:cc="http://creativecommons.org/ns#" xmlns:dc="http://purl.org/dc/elements/1.1/" xmlns:rdf="http://www.w3.org/1999/02/22-rdf-syntax-ns#">
   <cc:Work>
    <dc:type rdf:resource="http://purl.org/dc/dcmitype/StillImage"/>
    <dc:date>2022-07-16T22:18:45.376273</dc:date>
    <dc:format>image/svg+xml</dc:format>
    <dc:creator>
     <cc:Agent>
      <dc:title>Matplotlib v3.3.2, https://matplotlib.org/</dc:title>
     </cc:Agent>
    </dc:creator>
   </cc:Work>
  </rdf:RDF>
 </metadata>
 <defs>
  <style type="text/css">*{stroke-linecap:butt;stroke-linejoin:round;}</style>
 </defs>
 <g id="figure_1">
  <g id="patch_1">
   <path d="M 0 345.6 
L 460.8 345.6 
L 460.8 0 
L 0 0 
z
" style="fill:#ffffff;"/>
  </g>
  <g id="axes_1">
   <g id="patch_2">
    <path d="M 57.6 307.584 
L 414.72 307.584 
L 414.72 41.472 
L 57.6 41.472 
z
" style="fill:#ffffff;"/>
   </g>
   <g id="matplotlib.axis_1">
    <g id="xtick_1">
     <g id="line2d_1">
      <defs>
       <path d="M 0 0 
L 0 3.5 
" id="m34a2dd700a" style="stroke:#000000;stroke-width:0.8;"/>
      </defs>
      <g>
       <use style="stroke:#000000;stroke-width:0.8;" x="69.218348" xlink:href="#m34a2dd700a" y="307.584"/>
      </g>
     </g>
     <g id="text_1">
      <!-- 0 -->
      <g transform="translate(66.037098 322.182437)scale(0.1 -0.1)">
       <defs>
        <path d="M 31.78125 66.40625 
Q 24.171875 66.40625 20.328125 58.90625 
Q 16.5 51.421875 16.5 36.375 
Q 16.5 21.390625 20.328125 13.890625 
Q 24.171875 6.390625 31.78125 6.390625 
Q 39.453125 6.390625 43.28125 13.890625 
Q 47.125 21.390625 47.125 36.375 
Q 47.125 51.421875 43.28125 58.90625 
Q 39.453125 66.40625 31.78125 66.40625 
z
M 31.78125 74.21875 
Q 44.046875 74.21875 50.515625 64.515625 
Q 56.984375 54.828125 56.984375 36.375 
Q 56.984375 17.96875 50.515625 8.265625 
Q 44.046875 -1.421875 31.78125 -1.421875 
Q 19.53125 -1.421875 13.0625 8.265625 
Q 6.59375 17.96875 6.59375 36.375 
Q 6.59375 54.828125 13.0625 64.515625 
Q 19.53125 74.21875 31.78125 74.21875 
z
" id="DejaVuSans-48"/>
       </defs>
       <use xlink:href="#DejaVuSans-48"/>
      </g>
     </g>
    </g>
    <g id="xtick_2">
     <g id="line2d_2">
      <g>
       <use style="stroke:#000000;stroke-width:0.8;" x="135.138053" xlink:href="#m34a2dd700a" y="307.584"/>
      </g>
     </g>
     <g id="text_2">
      <!-- 2 -->
      <g transform="translate(131.956803 322.182437)scale(0.1 -0.1)">
       <defs>
        <path d="M 19.1875 8.296875 
L 53.609375 8.296875 
L 53.609375 0 
L 7.328125 0 
L 7.328125 8.296875 
Q 12.9375 14.109375 22.625 23.890625 
Q 32.328125 33.6875 34.8125 36.53125 
Q 39.546875 41.84375 41.421875 45.53125 
Q 43.3125 49.21875 43.3125 52.78125 
Q 43.3125 58.59375 39.234375 62.25 
Q 35.15625 65.921875 28.609375 65.921875 
Q 23.96875 65.921875 18.8125 64.3125 
Q 13.671875 62.703125 7.8125 59.421875 
L 7.8125 69.390625 
Q 13.765625 71.78125 18.9375 73 
Q 24.125 74.21875 28.421875 74.21875 
Q 39.75 74.21875 46.484375 68.546875 
Q 53.21875 62.890625 53.21875 53.421875 
Q 53.21875 48.921875 51.53125 44.890625 
Q 49.859375 40.875 45.40625 35.40625 
Q 44.1875 33.984375 37.640625 27.21875 
Q 31.109375 20.453125 19.1875 8.296875 
z
" id="DejaVuSans-50"/>
       </defs>
       <use xlink:href="#DejaVuSans-50"/>
      </g>
     </g>
    </g>
    <g id="xtick_3">
     <g id="line2d_3">
      <g>
       <use style="stroke:#000000;stroke-width:0.8;" x="201.057757" xlink:href="#m34a2dd700a" y="307.584"/>
      </g>
     </g>
     <g id="text_3">
      <!-- 4 -->
      <g transform="translate(197.876507 322.182437)scale(0.1 -0.1)">
       <defs>
        <path d="M 37.796875 64.3125 
L 12.890625 25.390625 
L 37.796875 25.390625 
z
M 35.203125 72.90625 
L 47.609375 72.90625 
L 47.609375 25.390625 
L 58.015625 25.390625 
L 58.015625 17.1875 
L 47.609375 17.1875 
L 47.609375 0 
L 37.796875 0 
L 37.796875 17.1875 
L 4.890625 17.1875 
L 4.890625 26.703125 
z
" id="DejaVuSans-52"/>
       </defs>
       <use xlink:href="#DejaVuSans-52"/>
      </g>
     </g>
    </g>
    <g id="xtick_4">
     <g id="line2d_4">
      <g>
       <use style="stroke:#000000;stroke-width:0.8;" x="266.977462" xlink:href="#m34a2dd700a" y="307.584"/>
      </g>
     </g>
     <g id="text_4">
      <!-- 6 -->
      <g transform="translate(263.796212 322.182437)scale(0.1 -0.1)">
       <defs>
        <path d="M 33.015625 40.375 
Q 26.375 40.375 22.484375 35.828125 
Q 18.609375 31.296875 18.609375 23.390625 
Q 18.609375 15.53125 22.484375 10.953125 
Q 26.375 6.390625 33.015625 6.390625 
Q 39.65625 6.390625 43.53125 10.953125 
Q 47.40625 15.53125 47.40625 23.390625 
Q 47.40625 31.296875 43.53125 35.828125 
Q 39.65625 40.375 33.015625 40.375 
z
M 52.59375 71.296875 
L 52.59375 62.3125 
Q 48.875 64.0625 45.09375 64.984375 
Q 41.3125 65.921875 37.59375 65.921875 
Q 27.828125 65.921875 22.671875 59.328125 
Q 17.53125 52.734375 16.796875 39.40625 
Q 19.671875 43.65625 24.015625 45.921875 
Q 28.375 48.1875 33.59375 48.1875 
Q 44.578125 48.1875 50.953125 41.515625 
Q 57.328125 34.859375 57.328125 23.390625 
Q 57.328125 12.15625 50.6875 5.359375 
Q 44.046875 -1.421875 33.015625 -1.421875 
Q 20.359375 -1.421875 13.671875 8.265625 
Q 6.984375 17.96875 6.984375 36.375 
Q 6.984375 53.65625 15.1875 63.9375 
Q 23.390625 74.21875 37.203125 74.21875 
Q 40.921875 74.21875 44.703125 73.484375 
Q 48.484375 72.75 52.59375 71.296875 
z
" id="DejaVuSans-54"/>
       </defs>
       <use xlink:href="#DejaVuSans-54"/>
      </g>
     </g>
    </g>
    <g id="xtick_5">
     <g id="line2d_5">
      <g>
       <use style="stroke:#000000;stroke-width:0.8;" x="332.897167" xlink:href="#m34a2dd700a" y="307.584"/>
      </g>
     </g>
     <g id="text_5">
      <!-- 8 -->
      <g transform="translate(329.715917 322.182437)scale(0.1 -0.1)">
       <defs>
        <path d="M 31.78125 34.625 
Q 24.75 34.625 20.71875 30.859375 
Q 16.703125 27.09375 16.703125 20.515625 
Q 16.703125 13.921875 20.71875 10.15625 
Q 24.75 6.390625 31.78125 6.390625 
Q 38.8125 6.390625 42.859375 10.171875 
Q 46.921875 13.96875 46.921875 20.515625 
Q 46.921875 27.09375 42.890625 30.859375 
Q 38.875 34.625 31.78125 34.625 
z
M 21.921875 38.8125 
Q 15.578125 40.375 12.03125 44.71875 
Q 8.5 49.078125 8.5 55.328125 
Q 8.5 64.0625 14.71875 69.140625 
Q 20.953125 74.21875 31.78125 74.21875 
Q 42.671875 74.21875 48.875 69.140625 
Q 55.078125 64.0625 55.078125 55.328125 
Q 55.078125 49.078125 51.53125 44.71875 
Q 48 40.375 41.703125 38.8125 
Q 48.828125 37.15625 52.796875 32.3125 
Q 56.78125 27.484375 56.78125 20.515625 
Q 56.78125 9.90625 50.3125 4.234375 
Q 43.84375 -1.421875 31.78125 -1.421875 
Q 19.734375 -1.421875 13.25 4.234375 
Q 6.78125 9.90625 6.78125 20.515625 
Q 6.78125 27.484375 10.78125 32.3125 
Q 14.796875 37.15625 21.921875 38.8125 
z
M 18.3125 54.390625 
Q 18.3125 48.734375 21.84375 45.5625 
Q 25.390625 42.390625 31.78125 42.390625 
Q 38.140625 42.390625 41.71875 45.5625 
Q 45.3125 48.734375 45.3125 54.390625 
Q 45.3125 60.0625 41.71875 63.234375 
Q 38.140625 66.40625 31.78125 66.40625 
Q 25.390625 66.40625 21.84375 63.234375 
Q 18.3125 60.0625 18.3125 54.390625 
z
" id="DejaVuSans-56"/>
       </defs>
       <use xlink:href="#DejaVuSans-56"/>
      </g>
     </g>
    </g>
    <g id="xtick_6">
     <g id="line2d_6">
      <g>
       <use style="stroke:#000000;stroke-width:0.8;" x="398.816871" xlink:href="#m34a2dd700a" y="307.584"/>
      </g>
     </g>
     <g id="text_6">
      <!-- 10 -->
      <g transform="translate(392.454371 322.182437)scale(0.1 -0.1)">
       <defs>
        <path d="M 12.40625 8.296875 
L 28.515625 8.296875 
L 28.515625 63.921875 
L 10.984375 60.40625 
L 10.984375 69.390625 
L 28.421875 72.90625 
L 38.28125 72.90625 
L 38.28125 8.296875 
L 54.390625 8.296875 
L 54.390625 0 
L 12.40625 0 
z
" id="DejaVuSans-49"/>
       </defs>
       <use xlink:href="#DejaVuSans-49"/>
       <use x="63.623047" xlink:href="#DejaVuSans-48"/>
      </g>
     </g>
    </g>
    <g id="text_7">
     <!-- wind_speed from OpenWeatherMap -->
     <g transform="translate(146.962344 335.860562)scale(0.1 -0.1)">
      <defs>
       <path d="M 4.203125 54.6875 
L 13.1875 54.6875 
L 24.421875 12.015625 
L 35.59375 54.6875 
L 46.1875 54.6875 
L 57.421875 12.015625 
L 68.609375 54.6875 
L 77.59375 54.6875 
L 63.28125 0 
L 52.6875 0 
L 40.921875 44.828125 
L 29.109375 0 
L 18.5 0 
z
" id="DejaVuSans-119"/>
       <path d="M 9.421875 54.6875 
L 18.40625 54.6875 
L 18.40625 0 
L 9.421875 0 
z
M 9.421875 75.984375 
L 18.40625 75.984375 
L 18.40625 64.59375 
L 9.421875 64.59375 
z
" id="DejaVuSans-105"/>
       <path d="M 54.890625 33.015625 
L 54.890625 0 
L 45.90625 0 
L 45.90625 32.71875 
Q 45.90625 40.484375 42.875 44.328125 
Q 39.84375 48.1875 33.796875 48.1875 
Q 26.515625 48.1875 22.3125 43.546875 
Q 18.109375 38.921875 18.109375 30.90625 
L 18.109375 0 
L 9.078125 0 
L 9.078125 54.6875 
L 18.109375 54.6875 
L 18.109375 46.1875 
Q 21.34375 51.125 25.703125 53.5625 
Q 30.078125 56 35.796875 56 
Q 45.21875 56 50.046875 50.171875 
Q 54.890625 44.34375 54.890625 33.015625 
z
" id="DejaVuSans-110"/>
       <path d="M 45.40625 46.390625 
L 45.40625 75.984375 
L 54.390625 75.984375 
L 54.390625 0 
L 45.40625 0 
L 45.40625 8.203125 
Q 42.578125 3.328125 38.25 0.953125 
Q 33.9375 -1.421875 27.875 -1.421875 
Q 17.96875 -1.421875 11.734375 6.484375 
Q 5.515625 14.40625 5.515625 27.296875 
Q 5.515625 40.1875 11.734375 48.09375 
Q 17.96875 56 27.875 56 
Q 33.9375 56 38.25 53.625 
Q 42.578125 51.265625 45.40625 46.390625 
z
M 14.796875 27.296875 
Q 14.796875 17.390625 18.875 11.75 
Q 22.953125 6.109375 30.078125 6.109375 
Q 37.203125 6.109375 41.296875 11.75 
Q 45.40625 17.390625 45.40625 27.296875 
Q 45.40625 37.203125 41.296875 42.84375 
Q 37.203125 48.484375 30.078125 48.484375 
Q 22.953125 48.484375 18.875 42.84375 
Q 14.796875 37.203125 14.796875 27.296875 
z
" id="DejaVuSans-100"/>
       <path d="M 50.984375 -16.609375 
L 50.984375 -23.578125 
L -0.984375 -23.578125 
L -0.984375 -16.609375 
z
" id="DejaVuSans-95"/>
       <path d="M 44.28125 53.078125 
L 44.28125 44.578125 
Q 40.484375 46.53125 36.375 47.5 
Q 32.28125 48.484375 27.875 48.484375 
Q 21.1875 48.484375 17.84375 46.4375 
Q 14.5 44.390625 14.5 40.28125 
Q 14.5 37.15625 16.890625 35.375 
Q 19.28125 33.59375 26.515625 31.984375 
L 29.59375 31.296875 
Q 39.15625 29.25 43.1875 25.515625 
Q 47.21875 21.78125 47.21875 15.09375 
Q 47.21875 7.46875 41.1875 3.015625 
Q 35.15625 -1.421875 24.609375 -1.421875 
Q 20.21875 -1.421875 15.453125 -0.5625 
Q 10.6875 0.296875 5.421875 2 
L 5.421875 11.28125 
Q 10.40625 8.6875 15.234375 7.390625 
Q 20.0625 6.109375 24.8125 6.109375 
Q 31.15625 6.109375 34.5625 8.28125 
Q 37.984375 10.453125 37.984375 14.40625 
Q 37.984375 18.0625 35.515625 20.015625 
Q 33.0625 21.96875 24.703125 23.78125 
L 21.578125 24.515625 
Q 13.234375 26.265625 9.515625 29.90625 
Q 5.8125 33.546875 5.8125 39.890625 
Q 5.8125 47.609375 11.28125 51.796875 
Q 16.75 56 26.8125 56 
Q 31.78125 56 36.171875 55.265625 
Q 40.578125 54.546875 44.28125 53.078125 
z
" id="DejaVuSans-115"/>
       <path d="M 18.109375 8.203125 
L 18.109375 -20.796875 
L 9.078125 -20.796875 
L 9.078125 54.6875 
L 18.109375 54.6875 
L 18.109375 46.390625 
Q 20.953125 51.265625 25.265625 53.625 
Q 29.59375 56 35.59375 56 
Q 45.5625 56 51.78125 48.09375 
Q 58.015625 40.1875 58.015625 27.296875 
Q 58.015625 14.40625 51.78125 6.484375 
Q 45.5625 -1.421875 35.59375 -1.421875 
Q 29.59375 -1.421875 25.265625 0.953125 
Q 20.953125 3.328125 18.109375 8.203125 
z
M 48.6875 27.296875 
Q 48.6875 37.203125 44.609375 42.84375 
Q 40.53125 48.484375 33.40625 48.484375 
Q 26.265625 48.484375 22.1875 42.84375 
Q 18.109375 37.203125 18.109375 27.296875 
Q 18.109375 17.390625 22.1875 11.75 
Q 26.265625 6.109375 33.40625 6.109375 
Q 40.53125 6.109375 44.609375 11.75 
Q 48.6875 17.390625 48.6875 27.296875 
z
" id="DejaVuSans-112"/>
       <path d="M 56.203125 29.59375 
L 56.203125 25.203125 
L 14.890625 25.203125 
Q 15.484375 15.921875 20.484375 11.0625 
Q 25.484375 6.203125 34.421875 6.203125 
Q 39.59375 6.203125 44.453125 7.46875 
Q 49.3125 8.734375 54.109375 11.28125 
L 54.109375 2.78125 
Q 49.265625 0.734375 44.1875 -0.34375 
Q 39.109375 -1.421875 33.890625 -1.421875 
Q 20.796875 -1.421875 13.15625 6.1875 
Q 5.515625 13.8125 5.515625 26.8125 
Q 5.515625 40.234375 12.765625 48.109375 
Q 20.015625 56 32.328125 56 
Q 43.359375 56 49.78125 48.890625 
Q 56.203125 41.796875 56.203125 29.59375 
z
M 47.21875 32.234375 
Q 47.125 39.59375 43.09375 43.984375 
Q 39.0625 48.390625 32.421875 48.390625 
Q 24.90625 48.390625 20.390625 44.140625 
Q 15.875 39.890625 15.1875 32.171875 
z
" id="DejaVuSans-101"/>
       <path id="DejaVuSans-32"/>
       <path d="M 37.109375 75.984375 
L 37.109375 68.5 
L 28.515625 68.5 
Q 23.6875 68.5 21.796875 66.546875 
Q 19.921875 64.59375 19.921875 59.515625 
L 19.921875 54.6875 
L 34.71875 54.6875 
L 34.71875 47.703125 
L 19.921875 47.703125 
L 19.921875 0 
L 10.890625 0 
L 10.890625 47.703125 
L 2.296875 47.703125 
L 2.296875 54.6875 
L 10.890625 54.6875 
L 10.890625 58.5 
Q 10.890625 67.625 15.140625 71.796875 
Q 19.390625 75.984375 28.609375 75.984375 
z
" id="DejaVuSans-102"/>
       <path d="M 41.109375 46.296875 
Q 39.59375 47.171875 37.8125 47.578125 
Q 36.03125 48 33.890625 48 
Q 26.265625 48 22.1875 43.046875 
Q 18.109375 38.09375 18.109375 28.8125 
L 18.109375 0 
L 9.078125 0 
L 9.078125 54.6875 
L 18.109375 54.6875 
L 18.109375 46.1875 
Q 20.953125 51.171875 25.484375 53.578125 
Q 30.03125 56 36.53125 56 
Q 37.453125 56 38.578125 55.875 
Q 39.703125 55.765625 41.0625 55.515625 
z
" id="DejaVuSans-114"/>
       <path d="M 30.609375 48.390625 
Q 23.390625 48.390625 19.1875 42.75 
Q 14.984375 37.109375 14.984375 27.296875 
Q 14.984375 17.484375 19.15625 11.84375 
Q 23.34375 6.203125 30.609375 6.203125 
Q 37.796875 6.203125 41.984375 11.859375 
Q 46.1875 17.53125 46.1875 27.296875 
Q 46.1875 37.015625 41.984375 42.703125 
Q 37.796875 48.390625 30.609375 48.390625 
z
M 30.609375 56 
Q 42.328125 56 49.015625 48.375 
Q 55.71875 40.765625 55.71875 27.296875 
Q 55.71875 13.875 49.015625 6.21875 
Q 42.328125 -1.421875 30.609375 -1.421875 
Q 18.84375 -1.421875 12.171875 6.21875 
Q 5.515625 13.875 5.515625 27.296875 
Q 5.515625 40.765625 12.171875 48.375 
Q 18.84375 56 30.609375 56 
z
" id="DejaVuSans-111"/>
       <path d="M 52 44.1875 
Q 55.375 50.25 60.0625 53.125 
Q 64.75 56 71.09375 56 
Q 79.640625 56 84.28125 50.015625 
Q 88.921875 44.046875 88.921875 33.015625 
L 88.921875 0 
L 79.890625 0 
L 79.890625 32.71875 
Q 79.890625 40.578125 77.09375 44.375 
Q 74.3125 48.1875 68.609375 48.1875 
Q 61.625 48.1875 57.5625 43.546875 
Q 53.515625 38.921875 53.515625 30.90625 
L 53.515625 0 
L 44.484375 0 
L 44.484375 32.71875 
Q 44.484375 40.625 41.703125 44.40625 
Q 38.921875 48.1875 33.109375 48.1875 
Q 26.21875 48.1875 22.15625 43.53125 
Q 18.109375 38.875 18.109375 30.90625 
L 18.109375 0 
L 9.078125 0 
L 9.078125 54.6875 
L 18.109375 54.6875 
L 18.109375 46.1875 
Q 21.1875 51.21875 25.484375 53.609375 
Q 29.78125 56 35.6875 56 
Q 41.65625 56 45.828125 52.96875 
Q 50 49.953125 52 44.1875 
z
" id="DejaVuSans-109"/>
       <path d="M 39.40625 66.21875 
Q 28.65625 66.21875 22.328125 58.203125 
Q 16.015625 50.203125 16.015625 36.375 
Q 16.015625 22.609375 22.328125 14.59375 
Q 28.65625 6.59375 39.40625 6.59375 
Q 50.140625 6.59375 56.421875 14.59375 
Q 62.703125 22.609375 62.703125 36.375 
Q 62.703125 50.203125 56.421875 58.203125 
Q 50.140625 66.21875 39.40625 66.21875 
z
M 39.40625 74.21875 
Q 54.734375 74.21875 63.90625 63.9375 
Q 73.09375 53.65625 73.09375 36.375 
Q 73.09375 19.140625 63.90625 8.859375 
Q 54.734375 -1.421875 39.40625 -1.421875 
Q 24.03125 -1.421875 14.8125 8.828125 
Q 5.609375 19.09375 5.609375 36.375 
Q 5.609375 53.65625 14.8125 63.9375 
Q 24.03125 74.21875 39.40625 74.21875 
z
" id="DejaVuSans-79"/>
       <path d="M 3.328125 72.90625 
L 13.28125 72.90625 
L 28.609375 11.28125 
L 43.890625 72.90625 
L 54.984375 72.90625 
L 70.3125 11.28125 
L 85.59375 72.90625 
L 95.609375 72.90625 
L 77.296875 0 
L 64.890625 0 
L 49.515625 63.28125 
L 33.984375 0 
L 21.578125 0 
z
" id="DejaVuSans-87"/>
       <path d="M 34.28125 27.484375 
Q 23.390625 27.484375 19.1875 25 
Q 14.984375 22.515625 14.984375 16.5 
Q 14.984375 11.71875 18.140625 8.90625 
Q 21.296875 6.109375 26.703125 6.109375 
Q 34.1875 6.109375 38.703125 11.40625 
Q 43.21875 16.703125 43.21875 25.484375 
L 43.21875 27.484375 
z
M 52.203125 31.203125 
L 52.203125 0 
L 43.21875 0 
L 43.21875 8.296875 
Q 40.140625 3.328125 35.546875 0.953125 
Q 30.953125 -1.421875 24.3125 -1.421875 
Q 15.921875 -1.421875 10.953125 3.296875 
Q 6 8.015625 6 15.921875 
Q 6 25.140625 12.171875 29.828125 
Q 18.359375 34.515625 30.609375 34.515625 
L 43.21875 34.515625 
L 43.21875 35.40625 
Q 43.21875 41.609375 39.140625 45 
Q 35.0625 48.390625 27.6875 48.390625 
Q 23 48.390625 18.546875 47.265625 
Q 14.109375 46.140625 10.015625 43.890625 
L 10.015625 52.203125 
Q 14.9375 54.109375 19.578125 55.046875 
Q 24.21875 56 28.609375 56 
Q 40.484375 56 46.34375 49.84375 
Q 52.203125 43.703125 52.203125 31.203125 
z
" id="DejaVuSans-97"/>
       <path d="M 18.3125 70.21875 
L 18.3125 54.6875 
L 36.8125 54.6875 
L 36.8125 47.703125 
L 18.3125 47.703125 
L 18.3125 18.015625 
Q 18.3125 11.328125 20.140625 9.421875 
Q 21.96875 7.515625 27.59375 7.515625 
L 36.8125 7.515625 
L 36.8125 0 
L 27.59375 0 
Q 17.1875 0 13.234375 3.875 
Q 9.28125 7.765625 9.28125 18.015625 
L 9.28125 47.703125 
L 2.6875 47.703125 
L 2.6875 54.6875 
L 9.28125 54.6875 
L 9.28125 70.21875 
z
" id="DejaVuSans-116"/>
       <path d="M 54.890625 33.015625 
L 54.890625 0 
L 45.90625 0 
L 45.90625 32.71875 
Q 45.90625 40.484375 42.875 44.328125 
Q 39.84375 48.1875 33.796875 48.1875 
Q 26.515625 48.1875 22.3125 43.546875 
Q 18.109375 38.921875 18.109375 30.90625 
L 18.109375 0 
L 9.078125 0 
L 9.078125 75.984375 
L 18.109375 75.984375 
L 18.109375 46.1875 
Q 21.34375 51.125 25.703125 53.5625 
Q 30.078125 56 35.796875 56 
Q 45.21875 56 50.046875 50.171875 
Q 54.890625 44.34375 54.890625 33.015625 
z
" id="DejaVuSans-104"/>
       <path d="M 9.8125 72.90625 
L 24.515625 72.90625 
L 43.109375 23.296875 
L 61.8125 72.90625 
L 76.515625 72.90625 
L 76.515625 0 
L 66.890625 0 
L 66.890625 64.015625 
L 48.09375 14.015625 
L 38.1875 14.015625 
L 19.390625 64.015625 
L 19.390625 0 
L 9.8125 0 
z
" id="DejaVuSans-77"/>
      </defs>
      <use xlink:href="#DejaVuSans-119"/>
      <use x="81.787109" xlink:href="#DejaVuSans-105"/>
      <use x="109.570312" xlink:href="#DejaVuSans-110"/>
      <use x="172.949219" xlink:href="#DejaVuSans-100"/>
      <use x="236.425781" xlink:href="#DejaVuSans-95"/>
      <use x="286.425781" xlink:href="#DejaVuSans-115"/>
      <use x="338.525391" xlink:href="#DejaVuSans-112"/>
      <use x="402.001953" xlink:href="#DejaVuSans-101"/>
      <use x="463.525391" xlink:href="#DejaVuSans-101"/>
      <use x="525.048828" xlink:href="#DejaVuSans-100"/>
      <use x="588.525391" xlink:href="#DejaVuSans-32"/>
      <use x="620.3125" xlink:href="#DejaVuSans-102"/>
      <use x="655.517578" xlink:href="#DejaVuSans-114"/>
      <use x="694.380859" xlink:href="#DejaVuSans-111"/>
      <use x="755.5625" xlink:href="#DejaVuSans-109"/>
      <use x="852.974609" xlink:href="#DejaVuSans-32"/>
      <use x="884.761719" xlink:href="#DejaVuSans-79"/>
      <use x="963.472656" xlink:href="#DejaVuSans-112"/>
      <use x="1026.949219" xlink:href="#DejaVuSans-101"/>
      <use x="1088.472656" xlink:href="#DejaVuSans-110"/>
      <use x="1151.851562" xlink:href="#DejaVuSans-87"/>
      <use x="1244.853516" xlink:href="#DejaVuSans-101"/>
      <use x="1306.376953" xlink:href="#DejaVuSans-97"/>
      <use x="1367.65625" xlink:href="#DejaVuSans-116"/>
      <use x="1406.865234" xlink:href="#DejaVuSans-104"/>
      <use x="1470.244141" xlink:href="#DejaVuSans-101"/>
      <use x="1531.767578" xlink:href="#DejaVuSans-114"/>
      <use x="1572.880859" xlink:href="#DejaVuSans-77"/>
      <use x="1659.160156" xlink:href="#DejaVuSans-97"/>
      <use x="1720.439453" xlink:href="#DejaVuSans-112"/>
     </g>
    </g>
   </g>
   <g id="matplotlib.axis_2">
    <g id="ytick_1">
     <g id="line2d_7">
      <defs>
       <path d="M 0 0 
L -3.5 0 
" id="m5fbb920a92" style="stroke:#000000;stroke-width:0.8;"/>
      </defs>
      <g>
       <use style="stroke:#000000;stroke-width:0.8;" x="57.6" xlink:href="#m5fbb920a92" y="278.55112"/>
      </g>
     </g>
     <g id="text_8">
      <!-- 0.6 -->
      <g transform="translate(34.696875 282.350339)scale(0.1 -0.1)">
       <defs>
        <path d="M 10.6875 12.40625 
L 21 12.40625 
L 21 0 
L 10.6875 0 
z
" id="DejaVuSans-46"/>
       </defs>
       <use xlink:href="#DejaVuSans-48"/>
       <use x="63.623047" xlink:href="#DejaVuSans-46"/>
       <use x="95.410156" xlink:href="#DejaVuSans-54"/>
      </g>
     </g>
    </g>
    <g id="ytick_2">
     <g id="line2d_8">
      <g>
       <use style="stroke:#000000;stroke-width:0.8;" x="57.6" xlink:href="#m5fbb920a92" y="221.184246"/>
      </g>
     </g>
     <g id="text_9">
      <!-- 0.8 -->
      <g transform="translate(34.696875 224.983465)scale(0.1 -0.1)">
       <use xlink:href="#DejaVuSans-48"/>
       <use x="63.623047" xlink:href="#DejaVuSans-46"/>
       <use x="95.410156" xlink:href="#DejaVuSans-56"/>
      </g>
     </g>
    </g>
    <g id="ytick_3">
     <g id="line2d_9">
      <g>
       <use style="stroke:#000000;stroke-width:0.8;" x="57.6" xlink:href="#m5fbb920a92" y="163.817373"/>
      </g>
     </g>
     <g id="text_10">
      <!-- 1.0 -->
      <g transform="translate(34.696875 167.616592)scale(0.1 -0.1)">
       <use xlink:href="#DejaVuSans-49"/>
       <use x="63.623047" xlink:href="#DejaVuSans-46"/>
       <use x="95.410156" xlink:href="#DejaVuSans-48"/>
      </g>
     </g>
    </g>
    <g id="ytick_4">
     <g id="line2d_10">
      <g>
       <use style="stroke:#000000;stroke-width:0.8;" x="57.6" xlink:href="#m5fbb920a92" y="106.4505"/>
      </g>
     </g>
     <g id="text_11">
      <!-- 1.2 -->
      <g transform="translate(34.696875 110.249719)scale(0.1 -0.1)">
       <use xlink:href="#DejaVuSans-49"/>
       <use x="63.623047" xlink:href="#DejaVuSans-46"/>
       <use x="95.410156" xlink:href="#DejaVuSans-50"/>
      </g>
     </g>
    </g>
    <g id="ytick_5">
     <g id="line2d_11">
      <g>
       <use style="stroke:#000000;stroke-width:0.8;" x="57.6" xlink:href="#m5fbb920a92" y="49.083627"/>
      </g>
     </g>
     <g id="text_12">
      <!-- 1.4 -->
      <g transform="translate(34.696875 52.882845)scale(0.1 -0.1)">
       <use xlink:href="#DejaVuSans-49"/>
       <use x="63.623047" xlink:href="#DejaVuSans-46"/>
       <use x="95.410156" xlink:href="#DejaVuSans-52"/>
      </g>
     </g>
    </g>
    <g id="text_13">
     <!-- Throughput[Bit/s] -->
     <g transform="translate(28.617187 218.538156)rotate(-90)scale(0.1 -0.1)">
      <defs>
       <path d="M -0.296875 72.90625 
L 61.375 72.90625 
L 61.375 64.59375 
L 35.5 64.59375 
L 35.5 0 
L 25.59375 0 
L 25.59375 64.59375 
L -0.296875 64.59375 
z
" id="DejaVuSans-84"/>
       <path d="M 8.5 21.578125 
L 8.5 54.6875 
L 17.484375 54.6875 
L 17.484375 21.921875 
Q 17.484375 14.15625 20.5 10.265625 
Q 23.53125 6.390625 29.59375 6.390625 
Q 36.859375 6.390625 41.078125 11.03125 
Q 45.3125 15.671875 45.3125 23.6875 
L 45.3125 54.6875 
L 54.296875 54.6875 
L 54.296875 0 
L 45.3125 0 
L 45.3125 8.40625 
Q 42.046875 3.421875 37.71875 1 
Q 33.40625 -1.421875 27.6875 -1.421875 
Q 18.265625 -1.421875 13.375 4.4375 
Q 8.5 10.296875 8.5 21.578125 
z
M 31.109375 56 
z
" id="DejaVuSans-117"/>
       <path d="M 45.40625 27.984375 
Q 45.40625 37.75 41.375 43.109375 
Q 37.359375 48.484375 30.078125 48.484375 
Q 22.859375 48.484375 18.828125 43.109375 
Q 14.796875 37.75 14.796875 27.984375 
Q 14.796875 18.265625 18.828125 12.890625 
Q 22.859375 7.515625 30.078125 7.515625 
Q 37.359375 7.515625 41.375 12.890625 
Q 45.40625 18.265625 45.40625 27.984375 
z
M 54.390625 6.78125 
Q 54.390625 -7.171875 48.1875 -13.984375 
Q 42 -20.796875 29.203125 -20.796875 
Q 24.46875 -20.796875 20.265625 -20.09375 
Q 16.0625 -19.390625 12.109375 -17.921875 
L 12.109375 -9.1875 
Q 16.0625 -11.328125 19.921875 -12.34375 
Q 23.78125 -13.375 27.78125 -13.375 
Q 36.625 -13.375 41.015625 -8.765625 
Q 45.40625 -4.15625 45.40625 5.171875 
L 45.40625 9.625 
Q 42.625 4.78125 38.28125 2.390625 
Q 33.9375 0 27.875 0 
Q 17.828125 0 11.671875 7.65625 
Q 5.515625 15.328125 5.515625 27.984375 
Q 5.515625 40.671875 11.671875 48.328125 
Q 17.828125 56 27.875 56 
Q 33.9375 56 38.28125 53.609375 
Q 42.625 51.21875 45.40625 46.390625 
L 45.40625 54.6875 
L 54.390625 54.6875 
z
" id="DejaVuSans-103"/>
       <path d="M 8.59375 75.984375 
L 29.296875 75.984375 
L 29.296875 69 
L 17.578125 69 
L 17.578125 -6.203125 
L 29.296875 -6.203125 
L 29.296875 -13.1875 
L 8.59375 -13.1875 
z
" id="DejaVuSans-91"/>
       <path d="M 19.671875 34.8125 
L 19.671875 8.109375 
L 35.5 8.109375 
Q 43.453125 8.109375 47.28125 11.40625 
Q 51.125 14.703125 51.125 21.484375 
Q 51.125 28.328125 47.28125 31.5625 
Q 43.453125 34.8125 35.5 34.8125 
z
M 19.671875 64.796875 
L 19.671875 42.828125 
L 34.28125 42.828125 
Q 41.5 42.828125 45.03125 45.53125 
Q 48.578125 48.25 48.578125 53.8125 
Q 48.578125 59.328125 45.03125 62.0625 
Q 41.5 64.796875 34.28125 64.796875 
z
M 9.8125 72.90625 
L 35.015625 72.90625 
Q 46.296875 72.90625 52.390625 68.21875 
Q 58.5 63.53125 58.5 54.890625 
Q 58.5 48.1875 55.375 44.234375 
Q 52.25 40.28125 46.1875 39.3125 
Q 53.46875 37.75 57.5 32.78125 
Q 61.53125 27.828125 61.53125 20.40625 
Q 61.53125 10.640625 54.890625 5.3125 
Q 48.25 0 35.984375 0 
L 9.8125 0 
z
" id="DejaVuSans-66"/>
       <path d="M 25.390625 72.90625 
L 33.6875 72.90625 
L 8.296875 -9.28125 
L 0 -9.28125 
z
" id="DejaVuSans-47"/>
       <path d="M 30.421875 75.984375 
L 30.421875 -13.1875 
L 9.71875 -13.1875 
L 9.71875 -6.203125 
L 21.390625 -6.203125 
L 21.390625 69 
L 9.71875 69 
L 9.71875 75.984375 
z
" id="DejaVuSans-93"/>
      </defs>
      <use xlink:href="#DejaVuSans-84"/>
      <use x="61.083984" xlink:href="#DejaVuSans-104"/>
      <use x="124.462891" xlink:href="#DejaVuSans-114"/>
      <use x="163.326172" xlink:href="#DejaVuSans-111"/>
      <use x="224.507812" xlink:href="#DejaVuSans-117"/>
      <use x="287.886719" xlink:href="#DejaVuSans-103"/>
      <use x="351.363281" xlink:href="#DejaVuSans-104"/>
      <use x="414.742188" xlink:href="#DejaVuSans-112"/>
      <use x="478.21875" xlink:href="#DejaVuSans-117"/>
      <use x="541.597656" xlink:href="#DejaVuSans-116"/>
      <use x="580.806641" xlink:href="#DejaVuSans-91"/>
      <use x="619.820312" xlink:href="#DejaVuSans-66"/>
      <use x="688.423828" xlink:href="#DejaVuSans-105"/>
      <use x="716.207031" xlink:href="#DejaVuSans-116"/>
      <use x="755.416016" xlink:href="#DejaVuSans-47"/>
      <use x="789.107422" xlink:href="#DejaVuSans-115"/>
      <use x="841.207031" xlink:href="#DejaVuSans-93"/>
     </g>
    </g>
    <g id="text_14">
     <!-- 1e7 -->
     <g transform="translate(57.6 38.472)scale(0.1 -0.1)">
      <defs>
       <path d="M 8.203125 72.90625 
L 55.078125 72.90625 
L 55.078125 68.703125 
L 28.609375 0 
L 18.3125 0 
L 43.21875 64.59375 
L 8.203125 64.59375 
z
" id="DejaVuSans-55"/>
      </defs>
      <use xlink:href="#DejaVuSans-49"/>
      <use x="63.623047" xlink:href="#DejaVuSans-101"/>
      <use x="125.146484" xlink:href="#DejaVuSans-55"/>
     </g>
    </g>
   </g>
   <g id="line2d_12">
    <path clip-path="url(#pee8e7b251f)" d="M 73.832727 64.751718 
L 79.435902 65.553506 
L 80.754296 68.282097 
L 84.709479 207.941031 
L 86.357471 67.719151 
L 89.323858 129.43242 
L 90.312653 64.464272 
L 90.642252 74.950718 
L 92.290245 62.969278 
L 92.619843 75.85106 
L 93.938237 64.228044 
L 94.597434 66.883404 
L 94.927033 64.325272 
L 95.256631 67.757721 
L 96.575025 59.023727 
L 97.234222 62.300299 
L 99.871011 64.997368 
L 100.200609 65.668902 
L 101.519003 62.07634 
L 102.1782 62.521805 
L 103.496594 71.181826 
L 103.826193 75.784034 
L 104.155791 75.930505 
L 104.814988 68.777909 
L 105.803784 67.007232 
L 106.133383 60.076708 
L 106.79258 66.169277 
L 107.122178 67.784909 
L 107.451777 72.432925 
L 107.781375 63.352115 
L 109.099769 61.884462 
L 109.758966 63.899622 
L 110.088565 79.766123 
L 110.747762 77.14925 
L 111.07736 61.099256 
L 111.406959 83.06551 
L 111.736557 71.34752 
L 112.066156 54.155622 
L 112.725353 68.751263 
L 113.054952 87.743256 
L 113.714149 59.716115 
L 114.043747 59.786887 
L 115.032543 66.898088 
L 116.021338 57.150141 
L 116.680535 56.672445 
L 117.010134 65.189962 
L 117.339732 69.553793 
L 117.669331 68.257749 
L 118.328528 77.804356 
L 119.317323 65.876364 
L 119.646922 56.312298 
L 120.635718 65.693474 
L 120.965316 64.930596 
L 121.294915 70.228533 
L 121.954112 66.608138 
L 122.942907 112.658534 
L 123.931703 65.183327 
L 124.920498 64.391884 
L 125.579695 64.383351 
L 125.909294 105.622799 
L 126.238892 107.573217 
L 126.568491 59.146396 
L 126.89809 77.507963 
L 127.227688 62.991955 
L 127.557287 66.458878 
L 127.886885 93.442995 
L 128.216484 61.071069 
L 128.875681 62.87132 
L 129.205279 64.923952 
L 129.534878 59.349974 
L 129.864476 60.855638 
L 130.194075 64.626329 
L 130.523673 84.04795 
L 130.853272 96.083693 
L 131.512469 62.410697 
L 131.842067 70.965977 
L 132.171666 84.671337 
L 132.501264 64.456662 
L 132.830863 66.84247 
L 133.49006 83.678327 
L 133.819659 79.493396 
L 134.149257 62.421189 
L 134.478856 131.655829 
L 134.808454 81.90634 
L 135.138053 61.480707 
L 135.467651 62.606699 
L 135.79725 64.777 
L 136.126848 68.106394 
L 136.456447 92.014904 
L 136.786045 68.726253 
L 137.115644 76.997847 
L 137.445242 64.129043 
L 137.774841 63.149587 
L 138.104439 60.98703 
L 138.434038 87.611304 
L 138.763636 74.895311 
L 139.093235 71.197924 
L 139.422833 99.487066 
L 139.752432 67.410529 
L 140.741228 89.990343 
L 141.070826 137.665188 
L 141.400425 65.763154 
L 141.730023 63.785888 
L 142.059622 76.598472 
L 142.38922 62.919156 
L 143.048417 85.435631 
L 143.378016 118.207978 
L 143.707614 65.806063 
L 144.366811 72.846692 
L 144.69641 101.001353 
L 145.026008 72.786925 
L 145.355607 62.216234 
L 145.685205 84.916995 
L 146.014804 68.75768 
L 146.344402 75.1508 
L 146.674001 66.673052 
L 147.003599 62.116252 
L 147.333198 62.745442 
L 147.662796 101.350385 
L 147.992395 67.113231 
L 148.321994 65.782825 
L 148.981191 75.840904 
L 149.310789 84.643656 
L 149.640388 67.504155 
L 149.969986 81.498164 
L 150.299585 84.797736 
L 150.629183 61.566119 
L 150.958782 64.616773 
L 151.28838 69.442344 
L 151.617979 62.86342 
L 151.947577 67.408217 
L 152.277176 63.417104 
L 152.936373 63.779241 
L 153.265971 74.782072 
L 153.59557 63.677716 
L 153.925168 68.948039 
L 154.254767 76.726605 
L 154.584365 64.582375 
L 154.913964 86.979225 
L 155.243563 70.815452 
L 155.90276 63.73368 
L 156.232358 70.768875 
L 156.561957 68.549606 
L 157.221154 68.21989 
L 157.550752 64.681062 
L 158.209949 71.660018 
L 158.869146 91.721005 
L 159.528343 64.77991 
L 159.857942 71.296124 
L 160.18754 65.711526 
L 160.517139 66.627302 
L 160.846737 74.348313 
L 161.835533 64.998206 
L 162.165132 82.045187 
L 162.49473 67.03337 
L 162.824329 73.394963 
L 163.153927 141.142001 
L 163.483526 71.668119 
L 163.813124 69.077213 
L 164.142723 67.596256 
L 164.472321 87.783354 
L 164.80192 87.148323 
L 165.131518 68.119617 
L 165.790715 60.45872 
L 166.120314 66.975325 
L 166.449912 295.488 
L 166.779511 82.079924 
L 167.109109 209.215244 
L 167.438708 66.571765 
L 167.768306 65.760782 
L 168.427503 103.132987 
L 169.086701 64.306171 
L 169.416299 77.264691 
L 169.745898 70.240453 
L 170.075496 70.003955 
L 170.405095 64.870025 
L 170.734693 70.340376 
L 171.064292 70.240061 
L 171.39389 170.128501 
L 171.723489 66.240294 
L 172.382686 65.49012 
L 172.712284 67.603634 
L 173.041883 65.29327 
L 173.371481 71.479647 
L 173.70108 82.000867 
L 174.030678 72.198301 
L 174.360277 66.227935 
L 174.689875 68.897765 
L 175.349072 63.818933 
L 175.678671 67.238115 
L 176.008269 72.873569 
L 176.337868 62.614538 
L 176.667467 105.995033 
L 176.997065 70.875297 
L 177.326664 81.355532 
L 177.656262 64.4314 
L 177.985861 68.239569 
L 178.315459 112.914687 
L 178.645058 107.793854 
L 179.304255 63.699937 
L 179.633853 69.699505 
L 179.963452 65.545116 
L 180.29305 64.505822 
L 180.622649 65.96933 
L 180.952247 59.947421 
L 181.281846 82.555639 
L 181.611444 65.485181 
L 181.941043 172.448357 
L 182.270641 55.256054 
L 182.60024 64.380586 
L 182.929838 66.850764 
L 183.259437 64.95667 
L 183.589036 69.391479 
L 183.918634 61.308403 
L 184.248233 62.593029 
L 184.577831 73.992999 
L 184.90743 63.72215 
L 185.237028 68.248287 
L 185.566627 65.811257 
L 185.896225 69.960534 
L 186.225824 62.557396 
L 186.555422 69.30548 
L 186.885021 56.831358 
L 187.214619 80.114386 
L 187.544218 69.605152 
L 188.203415 73.207875 
L 188.533013 70.194096 
L 189.19221 68.045751 
L 189.851407 64.213067 
L 190.181006 66.570719 
L 190.510605 250.022837 
L 190.840203 65.718479 
L 191.169802 76.729297 
L 191.4994 66.537289 
L 191.828999 62.638043 
L 192.158597 111.250525 
L 192.817794 68.250096 
L 193.147393 62.662587 
L 193.476991 64.80375 
L 193.80659 75.991717 
L 194.136188 64.42706 
L 194.465787 82.418299 
L 194.795385 64.013585 
L 195.124984 127.805113 
L 195.454582 72.861921 
L 195.784181 67.107632 
L 196.113779 66.169934 
L 196.443378 66.350789 
L 196.772976 67.361348 
L 197.102575 65.705773 
L 197.432174 68.65731 
L 197.761772 65.861781 
L 198.091371 78.82913 
L 198.420969 63.005325 
L 198.750568 72.060033 
L 199.080166 64.408334 
L 199.739363 63.460735 
L 200.068962 68.520083 
L 200.39856 70.08844 
L 201.057757 60.750211 
L 201.387356 68.731947 
L 202.046553 67.656919 
L 202.376151 60.865643 
L 202.70575 67.849471 
L 203.035348 128.232367 
L 203.364947 64.060378 
L 203.694545 66.334682 
L 204.024144 73.37676 
L 204.683341 79.987354 
L 205.01294 111.322379 
L 205.342538 72.89829 
L 205.672137 60.174352 
L 206.001735 63.831486 
L 206.331334 79.74 
L 206.660932 72.544456 
L 206.990531 71.596868 
L 207.649728 67.35843 
L 207.979326 55.560275 
L 208.968122 75.288842 
L 209.627319 118.148857 
L 209.956917 78.566675 
L 210.945713 241.610622 
L 211.60491 64.907188 
L 211.934509 62.799612 
L 212.264107 64.374508 
L 212.923304 95.484974 
L 214.241698 67.926588 
L 214.900895 111.959743 
L 215.230494 71.667932 
L 215.560092 78.132977 
L 215.889691 69.988219 
L 216.219289 200.038641 
L 216.548888 75.68212 
L 216.878486 98.400173 
L 217.867282 97.351508 
L 218.19688 64.959736 
L 218.526479 65.733172 
L 218.856078 65.49543 
L 219.185676 67.754922 
L 219.844873 76.354552 
L 220.50407 67.25834 
L 220.833669 67.220693 
L 221.163267 68.209658 
L 221.822464 65.028302 
L 222.481661 68.407671 
L 223.140858 95.69409 
L 223.470457 73.686217 
L 223.800055 86.381037 
L 224.129654 70.77435 
L 224.459252 77.429453 
L 224.788851 66.65684 
L 225.118449 106.612345 
L 225.448048 66.854909 
L 226.107245 62.945337 
L 226.436844 59.829539 
L 226.766442 62.50189 
L 227.096041 74.538583 
L 227.425639 59.557186 
L 227.755238 89.275913 
L 228.084836 73.183037 
L 228.744033 87.265161 
L 229.073632 63.769955 
L 229.40323 66.704434 
L 230.392026 62.369133 
L 230.721624 66.924829 
L 231.051223 74.88688 
L 231.380821 73.233133 
L 231.71042 76.966932 
L 232.369617 59.238046 
L 232.699216 65.80821 
L 233.028814 66.662209 
L 233.688011 73.80035 
L 234.347208 53.568 
L 234.676807 67.418792 
L 235.006405 73.575178 
L 235.665602 66.110218 
L 236.324799 88.423727 
L 236.654398 63.094914 
L 236.983996 65.318691 
L 237.313595 82.953192 
L 237.972792 62.797072 
L 238.631989 63.381858 
L 238.961587 91.318861 
L 239.291186 72.309612 
L 239.950383 60.480154 
L 240.279982 61.816128 
L 240.60958 98.019963 
L 240.939179 73.617607 
L 241.268777 65.899313 
L 241.598376 77.705551 
L 241.927974 71.793792 
L 242.257573 83.743454 
L 242.587171 82.336609 
L 243.246368 76.379917 
L 243.575967 69.211626 
L 244.235164 75.447551 
L 244.894361 68.19052 
L 245.223959 61.582614 
L 245.553558 74.871872 
L 246.212755 89.575893 
L 246.542353 110.693782 
L 246.871952 72.686666 
L 247.201551 80.893545 
L 248.190346 63.285785 
L 248.519945 61.432161 
L 248.849543 97.460585 
L 249.179142 70.097814 
L 249.50874 66.182182 
L 249.838339 77.290348 
L 250.167937 64.212568 
L 250.497536 68.289052 
L 251.156733 98.647779 
L 251.486331 104.823262 
L 251.81593 65.923381 
L 252.475127 80.589108 
L 252.804725 60.916458 
L 253.134324 74.161609 
L 253.463922 63.892179 
L 255.111915 71.233117 
L 255.441514 80.934596 
L 255.771112 62.708142 
L 256.100711 73.873169 
L 256.430309 76.142398 
L 257.089506 83.674268 
L 257.419105 75.204886 
L 257.748703 76.062491 
L 258.078302 74.939083 
L 258.4079 86.059857 
L 258.737499 83.426164 
L 259.067097 65.530634 
L 259.396696 70.786698 
L 260.71509 71.618036 
L 261.044689 55.592904 
L 261.374287 74.84601 
L 261.703886 82.703579 
L 262.033484 81.331048 
L 262.692681 197.498462 
L 263.02228 98.637583 
L 263.351878 73.648955 
L 264.011075 63.050448 
L 266.318265 75.454258 
L 266.647863 111.267252 
L 267.30706 64.775077 
L 267.636659 70.487774 
L 268.295856 79.517284 
L 268.625455 78.152545 
L 268.955053 63.494801 
L 269.284652 88.588899 
L 269.943849 68.228781 
L 270.603046 76.113 
L 271.262243 72.545448 
L 271.591841 62.862192 
L 272.251038 59.227924 
L 273.239834 90.14466 
L 273.569432 86.540297 
L 274.228629 67.61011 
L 274.558228 68.127312 
L 274.887826 89.481074 
L 275.547024 68.976485 
L 276.535819 90.003979 
L 276.865418 80.97731 
L 277.195016 65.940301 
L 277.524615 70.715679 
L 278.183812 71.843037 
L 279.172607 197.04312 
L 279.502206 69.087076 
L 280.161403 283.118789 
L 280.491001 70.670448 
L 280.8206 77.038427 
L 281.150198 65.048481 
L 282.138994 72.151405 
L 282.468593 61.47343 
L 282.798191 58.951083 
L 283.12779 76.729575 
L 283.457388 67.169883 
L 284.116585 65.125391 
L 284.446184 66.222986 
L 284.775782 145.340567 
L 285.434979 63.146562 
L 285.764578 65.085481 
L 286.094176 61.788889 
L 287.41257 66.067944 
L 288.071767 76.699079 
L 288.401366 65.373406 
L 288.730964 66.781739 
L 289.060563 70.129106 
L 289.390162 120.564374 
L 289.71976 86.316984 
L 290.378957 61.672388 
L 290.708556 67.036837 
L 291.697351 65.14147 
L 292.02695 122.423527 
L 292.356548 71.258509 
L 292.686147 64.897628 
L 293.345344 67.183699 
L 293.674942 60.219036 
L 294.004541 78.122524 
L 294.663738 73.790594 
L 294.993336 65.996996 
L 295.652533 68.660541 
L 295.982132 64.289729 
L 296.311731 75.464614 
L 297.630125 79.020865 
L 297.959723 72.268567 
L 298.61892 66.264912 
L 298.948519 70.942249 
L 299.278117 58.442755 
L 300.266913 67.660222 
L 301.585307 75.964874 
L 302.244504 114.387551 
L 302.903701 70.332677 
L 303.233299 63.259416 
L 303.892497 68.14843 
L 304.551694 76.029308 
L 305.210891 76.03381 
L 305.540489 79.245005 
L 305.870088 64.154698 
L 306.858883 66.286711 
L 307.188482 87.543094 
L 307.51808 62.493421 
L 308.836474 62.978712 
L 311.473263 70.690961 
L 312.791657 66.376945 
L 313.780452 75.383383 
L 316.087642 66.521658 
L 316.41724 66.425335 
L 316.746839 141.199255 
L 317.406036 58.647955 
L 319.713226 93.830573 
L 320.042824 62.626228 
L 321.361218 74.48102 
L 323.009211 60.420734 
L 323.668408 90.972239 
L 324.986802 62.31779 
L 325.975598 78.283931 
L 326.964393 88.475943 
L 328.612386 58.207835 
L 329.93078 74.900932 
L 331.249174 65.902934 
L 336.193152 64.918894 
L 337.511546 60.27025 
L 340.477933 71.926592 
L 341.466728 84.686053 
L 342.125925 74.880378 
L 344.433115 66.79136 
L 347.7291 58.70642 
L 348.388297 71.066221 
L 349.047494 79.294686 
L 353.002677 83.664982 
L 353.332275 56.361445 
L 353.991472 137.617876 
L 355.309866 156.315191 
L 357.946654 60.281045 
L 360.253844 92.179059 
L 360.913041 140.549301 
L 371.460194 101.078664 
L 373.767383 63.424049 
L 383.984938 83.530001 
L 388.928916 72.117774 
L 396.83928 63.470594 
L 398.487273 62.595065 
L 398.487273 62.595065 
" style="fill:none;stroke:#0000ff;stroke-linecap:square;stroke-width:1.5;"/>
   </g>
   <g id="patch_3">
    <path d="M 57.6 307.584 
L 57.6 41.472 
" style="fill:none;stroke:#000000;stroke-linecap:square;stroke-linejoin:miter;stroke-width:0.8;"/>
   </g>
   <g id="patch_4">
    <path d="M 414.72 307.584 
L 414.72 41.472 
" style="fill:none;stroke:#000000;stroke-linecap:square;stroke-linejoin:miter;stroke-width:0.8;"/>
   </g>
   <g id="patch_5">
    <path d="M 57.6 307.584 
L 414.72 307.584 
" style="fill:none;stroke:#000000;stroke-linecap:square;stroke-linejoin:miter;stroke-width:0.8;"/>
   </g>
   <g id="patch_6">
    <path d="M 57.6 41.472 
L 414.72 41.472 
" style="fill:none;stroke:#000000;stroke-linecap:square;stroke-linejoin:miter;stroke-width:0.8;"/>
   </g>
   <g id="text_15">
    <!-- wind_speed-&gt;Throughput -->
    <g transform="translate(158.806875 35.472)scale(0.12 -0.12)">
     <defs>
      <path d="M 4.890625 31.390625 
L 31.203125 31.390625 
L 31.203125 23.390625 
L 4.890625 23.390625 
z
" id="DejaVuSans-45"/>
      <path d="M 10.59375 49.21875 
L 10.59375 58.109375 
L 73.1875 35.40625 
L 73.1875 27.296875 
L 10.59375 4.59375 
L 10.59375 13.484375 
L 60.890625 31.296875 
z
" id="DejaVuSans-62"/>
     </defs>
     <use xlink:href="#DejaVuSans-119"/>
     <use x="81.787109" xlink:href="#DejaVuSans-105"/>
     <use x="109.570312" xlink:href="#DejaVuSans-110"/>
     <use x="172.949219" xlink:href="#DejaVuSans-100"/>
     <use x="236.425781" xlink:href="#DejaVuSans-95"/>
     <use x="286.425781" xlink:href="#DejaVuSans-115"/>
     <use x="338.525391" xlink:href="#DejaVuSans-112"/>
     <use x="402.001953" xlink:href="#DejaVuSans-101"/>
     <use x="463.525391" xlink:href="#DejaVuSans-101"/>
     <use x="525.048828" xlink:href="#DejaVuSans-100"/>
     <use x="588.525391" xlink:href="#DejaVuSans-45"/>
     <use x="624.609375" xlink:href="#DejaVuSans-62"/>
     <use x="708.398438" xlink:href="#DejaVuSans-84"/>
     <use x="769.482422" xlink:href="#DejaVuSans-104"/>
     <use x="832.861328" xlink:href="#DejaVuSans-114"/>
     <use x="871.724609" xlink:href="#DejaVuSans-111"/>
     <use x="932.90625" xlink:href="#DejaVuSans-117"/>
     <use x="996.285156" xlink:href="#DejaVuSans-103"/>
     <use x="1059.761719" xlink:href="#DejaVuSans-104"/>
     <use x="1123.140625" xlink:href="#DejaVuSans-112"/>
     <use x="1186.617188" xlink:href="#DejaVuSans-117"/>
     <use x="1249.996094" xlink:href="#DejaVuSans-116"/>
    </g>
   </g>
  </g>
  <g id="legend_1">
   <g id="patch_7">
    <path d="M 333.779688 22.678125 
L 453.8 22.678125 
Q 455.8 22.678125 455.8 20.678125 
L 455.8 7 
Q 455.8 5 453.8 5 
L 333.779688 5 
Q 331.779688 5 331.779688 7 
L 331.779688 20.678125 
Q 331.779688 22.678125 333.779688 22.678125 
z
" style="fill:#ffffff;opacity:0.8;stroke:#cccccc;stroke-linejoin:miter;"/>
   </g>
   <g id="line2d_13">
    <path d="M 335.779688 13.098438 
L 355.779688 13.098438 
" style="fill:none;stroke:#0000ff;stroke-linecap:square;stroke-width:1.5;"/>
   </g>
   <g id="line2d_14"/>
   <g id="text_16">
    <!-- Throughput[Bit/s] -->
    <g transform="translate(363.779688 16.598438)scale(0.1 -0.1)">
     <use xlink:href="#DejaVuSans-84"/>
     <use x="61.083984" xlink:href="#DejaVuSans-104"/>
     <use x="124.462891" xlink:href="#DejaVuSans-114"/>
     <use x="163.326172" xlink:href="#DejaVuSans-111"/>
     <use x="224.507812" xlink:href="#DejaVuSans-117"/>
     <use x="287.886719" xlink:href="#DejaVuSans-103"/>
     <use x="351.363281" xlink:href="#DejaVuSans-104"/>
     <use x="414.742188" xlink:href="#DejaVuSans-112"/>
     <use x="478.21875" xlink:href="#DejaVuSans-117"/>
     <use x="541.597656" xlink:href="#DejaVuSans-116"/>
     <use x="580.806641" xlink:href="#DejaVuSans-91"/>
     <use x="619.820312" xlink:href="#DejaVuSans-66"/>
     <use x="688.423828" xlink:href="#DejaVuSans-105"/>
     <use x="716.207031" xlink:href="#DejaVuSans-116"/>
     <use x="755.416016" xlink:href="#DejaVuSans-47"/>
     <use x="789.107422" xlink:href="#DejaVuSans-115"/>
     <use x="841.207031" xlink:href="#DejaVuSans-93"/>
    </g>
   </g>
  </g>
 </g>
 <defs>
  <clipPath id="pee8e7b251f">
   <rect height="266.112" width="357.12" x="57.6" y="41.472"/>
  </clipPath>
 </defs>
</svg>
