<?xml version="1.0" encoding="utf-8" standalone="no"?>
<!DOCTYPE svg PUBLIC "-//W3C//DTD SVG 1.1//EN"
  "http://www.w3.org/Graphics/SVG/1.1/DTD/svg11.dtd">
<!-- Created with matplotlib (https://matplotlib.org/) -->
<svg height="2090.594375pt" version="1.1" viewBox="0 0 2068.34375 2090.594375" width="2068.34375pt" xmlns="http://www.w3.org/2000/svg" xmlns:xlink="http://www.w3.org/1999/xlink">
 <metadata>
  <rdf:RDF xmlns:cc="http://creativecommons.org/ns#" xmlns:dc="http://purl.org/dc/elements/1.1/" xmlns:rdf="http://www.w3.org/1999/02/22-rdf-syntax-ns#">
   <cc:Work>
    <dc:type rdf:resource="http://purl.org/dc/dcmitype/StillImage"/>
    <dc:date>2022-07-24T11:54:14.541993</dc:date>
    <dc:format>image/svg+xml</dc:format>
    <dc:creator>
     <cc:Agent>
      <dc:title>Matplotlib v3.3.2, https://matplotlib.org/</dc:title>
     </cc:Agent>
    </dc:creator>
   </cc:Work>
  </rdf:RDF>
 </metadata>
 <defs>
  <style type="text/css">*{stroke-linecap:butt;stroke-linejoin:round;}</style>
 </defs>
 <g id="figure_1">
  <g id="patch_1">
   <path d="M 0 2090.594375 
L 2068.34375 2090.594375 
L 2068.34375 0 
L 0 0 
z
" style="fill:#ffffff;"/>
  </g>
  <g id="axes_1">
   <g id="patch_2">
    <path d="M 50.14375 2052.76 
L 1835.74375 2052.76 
L 1835.74375 278.68 
L 50.14375 278.68 
z
" style="fill:#ffffff;"/>
   </g>
   <g id="matplotlib.axis_1">
    <g id="xtick_1">
     <g id="line2d_1">
      <defs>
       <path d="M 0 0 
L 0 3.5 
" id="m3f2503ac56" style="stroke:#000000;stroke-width:0.8;"/>
      </defs>
      <g>
       <use style="stroke:#000000;stroke-width:0.8;" x="223.335446" xlink:href="#m3f2503ac56" y="2052.76"/>
      </g>
     </g>
     <g id="text_1">
      <text style="font-family:DejaVu Sans;font-size:10px;font-stretch:normal;font-style:normal;font-weight:normal;text-anchor:middle;" transform="rotate(-0, 223.335446, 2067.358437)" x="223.335446" y="2067.358437">1005.0</text>
     </g>
    </g>
    <g id="xtick_2">
     <g id="line2d_2">
      <g>
       <use style="stroke:#000000;stroke-width:0.8;" x="436.363363" xlink:href="#m3f2503ac56" y="2052.76"/>
      </g>
     </g>
     <g id="text_2">
      <text style="font-family:DejaVu Sans;font-size:10px;font-stretch:normal;font-style:normal;font-weight:normal;text-anchor:middle;" transform="rotate(-0, 436.363363, 2067.358437)" x="436.363363" y="2067.358437">1007.5</text>
     </g>
    </g>
    <g id="xtick_3">
     <g id="line2d_3">
      <g>
       <use style="stroke:#000000;stroke-width:0.8;" x="649.39128" xlink:href="#m3f2503ac56" y="2052.76"/>
      </g>
     </g>
     <g id="text_3">
      <text style="font-family:DejaVu Sans;font-size:10px;font-stretch:normal;font-style:normal;font-weight:normal;text-anchor:middle;" transform="rotate(-0, 649.39128, 2067.358437)" x="649.39128" y="2067.358437">1010.0</text>
     </g>
    </g>
    <g id="xtick_4">
     <g id="line2d_4">
      <g>
       <use style="stroke:#000000;stroke-width:0.8;" x="862.419197" xlink:href="#m3f2503ac56" y="2052.76"/>
      </g>
     </g>
     <g id="text_4">
      <text style="font-family:DejaVu Sans;font-size:10px;font-stretch:normal;font-style:normal;font-weight:normal;text-anchor:middle;" transform="rotate(-0, 862.419197, 2067.358437)" x="862.419197" y="2067.358437">1012.5</text>
     </g>
    </g>
    <g id="xtick_5">
     <g id="line2d_5">
      <g>
       <use style="stroke:#000000;stroke-width:0.8;" x="1075.447114" xlink:href="#m3f2503ac56" y="2052.76"/>
      </g>
     </g>
     <g id="text_5">
      <text style="font-family:DejaVu Sans;font-size:10px;font-stretch:normal;font-style:normal;font-weight:normal;text-anchor:middle;" transform="rotate(-0, 1075.447114, 2067.358437)" x="1075.447114" y="2067.358437">1015.0</text>
     </g>
    </g>
    <g id="xtick_6">
     <g id="line2d_6">
      <g>
       <use style="stroke:#000000;stroke-width:0.8;" x="1288.475031" xlink:href="#m3f2503ac56" y="2052.76"/>
      </g>
     </g>
     <g id="text_6">
      <text style="font-family:DejaVu Sans;font-size:10px;font-stretch:normal;font-style:normal;font-weight:normal;text-anchor:middle;" transform="rotate(-0, 1288.475031, 2067.358437)" x="1288.475031" y="2067.358437">1017.5</text>
     </g>
    </g>
    <g id="xtick_7">
     <g id="line2d_7">
      <g>
       <use style="stroke:#000000;stroke-width:0.8;" x="1501.502948" xlink:href="#m3f2503ac56" y="2052.76"/>
      </g>
     </g>
     <g id="text_7">
      <text style="font-family:DejaVu Sans;font-size:10px;font-stretch:normal;font-style:normal;font-weight:normal;text-anchor:middle;" transform="rotate(-0, 1501.502948, 2067.358437)" x="1501.502948" y="2067.358437">1020.0</text>
     </g>
    </g>
    <g id="xtick_8">
     <g id="line2d_8">
      <g>
       <use style="stroke:#000000;stroke-width:0.8;" x="1714.530865" xlink:href="#m3f2503ac56" y="2052.76"/>
      </g>
     </g>
     <g id="text_8">
      <text style="font-family:DejaVu Sans;font-size:10px;font-stretch:normal;font-style:normal;font-weight:normal;text-anchor:middle;" transform="rotate(-0, 1714.530865, 2067.358437)" x="1714.530865" y="2067.358437">1022.5</text>
     </g>
    </g>
    <g id="text_9">
     <text style="font-family:DejaVu Sans;font-size:10px;font-stretch:normal;font-style:normal;font-weight:normal;text-anchor:middle;" transform="rotate(-0, 942.94375, 2081.036562)" x="942.94375" y="2081.036562">air_pressure from WeatherBitIO</text>
    </g>
   </g>
   <g id="matplotlib.axis_2">
    <g id="ytick_1">
     <g id="line2d_9">
      <defs>
       <path d="M 0 0 
L -3.5 0 
" id="m7288371140" style="stroke:#000000;stroke-width:0.8;"/>
      </defs>
      <g>
       <use style="stroke:#000000;stroke-width:0.8;" x="50.14375" xlink:href="#m7288371140" y="1904.842404"/>
      </g>
     </g>
     <g id="text_10">
      <text style="font-family:DejaVu Sans;font-size:10px;font-stretch:normal;font-style:normal;font-weight:normal;text-anchor:end;" transform="rotate(-0, 43.14375, 1908.641623)" x="43.14375" y="1908.641623">1.05</text>
     </g>
    </g>
    <g id="ytick_2">
     <g id="line2d_10">
      <g>
       <use style="stroke:#000000;stroke-width:0.8;" x="50.14375" xlink:href="#m7288371140" y="1685.046039"/>
      </g>
     </g>
     <g id="text_11">
      <text style="font-family:DejaVu Sans;font-size:10px;font-stretch:normal;font-style:normal;font-weight:normal;text-anchor:end;" transform="rotate(-0, 43.14375, 1688.845258)" x="43.14375" y="1688.845258">1.10</text>
     </g>
    </g>
    <g id="ytick_3">
     <g id="line2d_11">
      <g>
       <use style="stroke:#000000;stroke-width:0.8;" x="50.14375" xlink:href="#m7288371140" y="1465.249673"/>
      </g>
     </g>
     <g id="text_12">
      <text style="font-family:DejaVu Sans;font-size:10px;font-stretch:normal;font-style:normal;font-weight:normal;text-anchor:end;" transform="rotate(-0, 43.14375, 1469.048892)" x="43.14375" y="1469.048892">1.15</text>
     </g>
    </g>
    <g id="ytick_4">
     <g id="line2d_12">
      <g>
       <use style="stroke:#000000;stroke-width:0.8;" x="50.14375" xlink:href="#m7288371140" y="1245.453308"/>
      </g>
     </g>
     <g id="text_13">
      <text style="font-family:DejaVu Sans;font-size:10px;font-stretch:normal;font-style:normal;font-weight:normal;text-anchor:end;" transform="rotate(-0, 43.14375, 1249.252527)" x="43.14375" y="1249.252527">1.20</text>
     </g>
    </g>
    <g id="ytick_5">
     <g id="line2d_13">
      <g>
       <use style="stroke:#000000;stroke-width:0.8;" x="50.14375" xlink:href="#m7288371140" y="1025.656943"/>
      </g>
     </g>
     <g id="text_14">
      <text style="font-family:DejaVu Sans;font-size:10px;font-stretch:normal;font-style:normal;font-weight:normal;text-anchor:end;" transform="rotate(-0, 43.14375, 1029.456161)" x="43.14375" y="1029.456161">1.25</text>
     </g>
    </g>
    <g id="ytick_6">
     <g id="line2d_14">
      <g>
       <use style="stroke:#000000;stroke-width:0.8;" x="50.14375" xlink:href="#m7288371140" y="805.860577"/>
      </g>
     </g>
     <g id="text_15">
      <text style="font-family:DejaVu Sans;font-size:10px;font-stretch:normal;font-style:normal;font-weight:normal;text-anchor:end;" transform="rotate(-0, 43.14375, 809.659796)" x="43.14375" y="809.659796">1.30</text>
     </g>
    </g>
    <g id="ytick_7">
     <g id="line2d_15">
      <g>
       <use style="stroke:#000000;stroke-width:0.8;" x="50.14375" xlink:href="#m7288371140" y="586.064212"/>
      </g>
     </g>
     <g id="text_16">
      <text style="font-family:DejaVu Sans;font-size:10px;font-stretch:normal;font-style:normal;font-weight:normal;text-anchor:end;" transform="rotate(-0, 43.14375, 589.863431)" x="43.14375" y="589.863431">1.35</text>
     </g>
    </g>
    <g id="ytick_8">
     <g id="line2d_16">
      <g>
       <use style="stroke:#000000;stroke-width:0.8;" x="50.14375" xlink:href="#m7288371140" y="366.267846"/>
      </g>
     </g>
     <g id="text_17">
      <text style="font-family:DejaVu Sans;font-size:10px;font-stretch:normal;font-style:normal;font-weight:normal;text-anchor:end;" transform="rotate(-0, 43.14375, 370.067065)" x="43.14375" y="370.067065">1.40</text>
     </g>
    </g>
    <g id="text_18">
     <text style="font-family:DejaVu Sans;font-size:10px;font-stretch:normal;font-style:normal;font-weight:normal;text-anchor:middle;" transform="rotate(-90, 14.798438, 1165.72)" x="14.798438" y="1165.72">Throughput[Bit/s]</text>
    </g>
    <g id="text_19">
     <text style="font-family:DejaVu Sans;font-size:10px;font-stretch:normal;font-style:normal;font-weight:normal;text-anchor:start;" transform="rotate(-0, 50.14375, 275.68)" x="50.14375" y="275.68">1e7</text>
    </g>
   </g>
   <g id="line2d_17">
    <path clip-path="url(#p70b09d05df)" d="M 131.307386 554.588689 
L 132.159498 485.331705 
L 135.567945 613.947299 
L 144.089061 654.361261 
L 144.941173 512.021924 
L 169.652411 539.479797 
L 181.581975 531.125808 
L 192.659426 418.702367 
L 206.293213 1262.798515 
L 208.849548 529.786495 
L 211.405883 990.739523 
L 212.257995 475.766321 
L 220.779111 969.547968 
L 233.560787 606.268086 
L 245.49035 1311.490339 
L 255.71569 814.978532 
L 266.793142 625.645192 
L 281.27904 575.986402 
L 293.208603 1096.976766 
L 303.433943 679.388696 
L 339.222633 638.240913 
L 345.187415 614.915716 
L 361.377537 639.0704 
L 365.638095 809.122066 
L 376.715547 681.316979 
L 379.271882 597.263602 
L 390.349333 1194.148208 
L 392.905668 1432.503542 
L 420.173242 973.986417 
L 438.067587 626.922164 
L 447.440815 538.727582 
L 457.666155 1064.317506 
L 461.074602 628.595812 
L 462.778825 1115.466244 
L 473.004165 575.51192 
L 487.490064 694.907596 
L 505.384409 1165.321835 
L 509.644967 1132.36694 
L 531.79987 478.95388 
L 532.651982 775.546232 
L 555.658997 801.764154 
L 556.511109 1574.622397 
L 559.919555 484.007381 
L 562.47589 540.891031 
L 565.032225 535.719598 
L 573.553342 969.115331 
L 577.8139 588.853197 
L 585.482905 541.597275 
L 587.187129 621.760626 
L 588.03924 545.087522 
L 588.891352 559.687855 
L 592.299799 539.756172 
L 600.820915 582.514097 
L 601.673027 574.923732 
L 604.229362 573.338242 
L 607.637809 595.537262 
L 609.342032 835.373934 
L 611.898367 651.284027 
L 612.750479 503.635312 
L 614.454702 1246.189777 
L 618.71526 615.604186 
L 619.567372 746.983802 
L 622.975819 618.417394 
L 624.680042 603.090412 
L 630.644824 617.644133 
L 638.313829 564.742914 
L 650.243392 652.229922 
L 651.947615 794.005598 
L 654.50395 1972.12 
L 657.060285 770.882422 
L 661.320844 1723.114055 
L 663.025067 550.438856 
L 663.877179 613.625419 
L 665.581402 656.006801 
L 668.989849 716.35148 
L 670.694072 557.091113 
L 674.102519 537.710281 
L 674.95463 887.518768 
L 675.806742 998.870368 
L 683.475747 556.827163 
L 694.553199 1122.71235 
L 697.961645 856.616464 
L 699.665869 563.043293 
L 701.370092 870.316907 
L 709.891209 505.642364 
L 712.447544 1744.55368 
L 718.412326 537.400373 
L 726.933442 527.077584 
L 736.306671 993.399448 
L 743.975676 575.910904 
L 746.532011 688.232129 
L 755.905239 1557.076775 
L 757.609462 1005.224856 
L 760.165797 542.218668 
L 764.426356 883.685194 
L 765.278467 741.654029 
L 766.130579 664.95859 
L 767.834802 878.018694 
L 783.172812 675.744313 
L 800.215046 701.265762 
L 809.588274 635.955344 
L 818.109391 627.222143 
L 861.567086 1092.465921 
L 871.792426 577.126305 
L 874.348761 524.622054 
L 933.144466 622.543647 
L 993.644394 653.698562 
L 1006.426069 629.073272 
L 1049.883764 659.892071 
L 1055.848546 608.302201 
L 1100.158353 681.226467 
L 1105.271023 915.970978 
L 1115.496363 771.480861 
L 1117.200586 614.883884 
L 1162.362504 603.245359 
L 1164.066728 582.438792 
L 1170.883621 655.991201 
L 1194.742748 587.121628 
L 1198.151195 641.590589 
L 1246.72156 626.613024 
L 1260.355346 555.881948 
L 1264.615905 587.817205 
L 1267.17224 575.036137 
L 1268.024351 804.744275 
L 1269.728575 583.692277 
L 1277.39758 616.367151 
L 1289.327143 677.747821 
L 1290.179255 688.751317 
L 1291.883478 647.233279 
L 1303.813041 539.342522 
L 1306.369376 615.762828 
L 1308.0736 637.59451 
L 1308.925711 609.367252 
L 1312.334158 639.054288 
L 1317.446828 606.666604 
L 1320.855275 1512.660712 
L 1332.784838 608.230933 
L 1349.827071 603.681827 
L 1351.531295 446.948142 
L 1352.383406 579.284455 
L 1354.939741 660.268978 
L 1359.2003 696.869073 
L 1360.052411 589.863903 
L 1361.756635 556.596632 
L 1363.460858 1095.764038 
L 1365.165081 572.764697 
L 1366.017193 583.198707 
L 1366.869305 691.31382 
L 1367.721416 676.08797 
L 1369.42564 544.282485 
L 1372.834086 581.120894 
L 1373.686198 565.452001 
L 1374.53831 580.608563 
L 1375.390421 571.801629 
L 1377.094645 1343.057216 
L 1377.946756 647.518902 
L 1379.65098 565.198008 
L 1380.503091 1525.299878 
L 1382.207315 601.482683 
L 1383.059426 829.010182 
L 1383.911538 775.762222 
L 1384.76365 568.567089 
L 1386.467873 578.790889 
L 1388.172096 853.400694 
L 1389.024208 896.643571 
L 1390.728431 597.002469 
L 1393.284766 657.305353 
L 1394.136878 731.022832 
L 1394.98899 599.171601 
L 1396.693213 478.911319 
L 1398.397436 535.66816 
L 1400.10166 721.268286 
L 1401.805883 835.530017 
L 1402.657995 590.658324 
L 1403.510106 664.983908 
L 1404.362218 549.316162 
L 1406.066441 588.394235 
L 1406.918553 1005.431696 
L 1407.770665 784.601642 
L 1410.327 582.424986 
L 1411.179111 646.521177 
L 1413.735446 781.800518 
L 1416.291781 539.055272 
L 1417.996005 605.455726 
L 1418.848116 556.514488 
L 1419.700228 694.025936 
L 1420.55234 679.140136 
L 1422.256563 991.157416 
L 1423.108675 493.692421 
L 1423.960787 657.846996 
L 1424.812898 590.06293 
L 1426.517122 638.526919 
L 1427.369233 605.790454 
L 1433.334015 635.9166 
L 1435.89035 639.036343 
L 1436.742462 623.204946 
L 1438.446685 477.614156 
L 1439.298797 507.158323 
L 1441.00302 612.967343 
L 1441.855132 676.130758 
L 1442.707243 1070.835967 
L 1444.411467 826.833441 
L 1445.263578 600.257378 
L 1446.11569 577.619339 
L 1451.22836 766.311714 
L 1452.080472 606.485885 
L 1453.784695 551.77805 
L 1456.34103 622.583207 
L 1457.193142 670.502218 
L 1458.045253 537.624762 
L 1461.4537 979.172199 
L 1465.714258 913.019611 
L 1466.56637 591.319849 
L 1467.418482 477.202767 
L 1471.67904 913.916786 
L 1472.531152 899.396024 
L 1475.087487 685.940179 
L 1475.939598 656.932605 
L 1478.495933 592.017467 
L 1480.200157 554.836812 
L 1481.052268 633.927098 
L 1481.90438 825.988729 
L 1484.460715 545.060079 
L 1485.312827 520.172625 
L 1486.164938 500.748281 
L 1487.01705 617.899998 
L 1489.573385 562.55426 
L 1491.277608 803.922748 
L 1492.12972 698.130951 
L 1495.538167 725.843622 
L 1496.390278 504.301601 
L 1498.094502 732.012529 
L 1502.35506 608.931885 
L 1504.059283 571.781854 
L 1505.763507 538.273308 
L 1506.615618 927.783736 
L 1513.432512 604.533648 
L 1514.284623 732.395147 
L 1515.136735 438.296372 
L 1515.988847 744.306822 
L 1517.69307 618.161353 
L 1521.953628 550.145549 
L 1522.80574 822.570332 
L 1529.622633 598.03964 
L 1530.474745 727.726564 
L 1533.03108 552.068972 
L 1534.735303 953.098985 
L 1539.847973 610.459395 
L 1540.700085 499.363029 
L 1544.108532 558.871331 
L 1546.664867 580.29832 
L 1556.038095 577.801474 
L 1556.890207 603.470917 
L 1558.59443 569.239642 
L 1559.446542 591.769012 
L 1561.150765 429.726338 
L 1562.002877 570.866298 
L 1562.854988 690.66726 
L 1568.81977 659.680066 
L 1569.671882 359.32 
L 1571.376105 695.304719 
L 1573.93244 565.503201 
L 1575.636663 536.19286 
L 1579.897222 648.579399 
L 1584.15778 607.230571 
L 1588.418338 477.182334 
L 1589.27045 621.7002 
L 1590.974673 688.957327 
L 1591.826785 626.979803 
L 1594.38312 685.745095 
L 1595.235232 530.034164 
L 1604.60846 530.302426 
L 1606.312683 477.052035 
L 1607.164795 565.883909 
L 1610.573242 559.755006 
L 1613.129577 599.803515 
L 1625.05914 566.096036 
L 1629.319698 632.167505 
L 1633.580257 695.337512 
L 1634.432368 578.401854 
L 1636.136592 590.813704 
L 1638.692927 627.163714 
L 1639.545038 837.705796 
L 1641.249262 602.772814 
L 1653.178825 521.227653 
L 1654.030937 379.619214 
L 1655.73516 530.462078 
L 1666.812612 567.823023 
L 1667.664724 828.632403 
L 1670.221059 813.04581 
L 1675.333729 366.752001 
L 1678.742175 561.003362 
L 1681.29851 599.609317 
L 1684.706957 1048.49724 
L 1688.967515 591.336812 
L 1691.52385 546.843348 
L 1695.784409 615.207211 
L 1698.340744 1566.995771 
L 1699.192855 663.962167 
L 1706.86186 527.22654 
L 1707.713972 581.355741 
L 1708.566084 581.951932 
L 1711.122419 1652.657396 
L 1712.826642 1770.989108 
L 1713.678754 1353.47325 
L 1714.530865 771.681041 
L 1715.382977 521.758903 
L 1716.235089 664.793812 
L 1719.643535 551.451567 
L 1722.19987 605.864052 
L 1723.051982 506.938288 
L 1724.756205 1338.810757 
L 1728.164652 572.032029 
L 1732.42521 577.093146 
L 1734.129434 570.12065 
L 1750.319555 632.928376 
L 1751.171667 567.782913 
L 1754.580114 575.576452 
L 1754.580114 575.576452 
" style="fill:none;stroke:#0000ff;stroke-linecap:square;stroke-width:1.5;"/>
   </g>
   <g id="patch_3">
    <path d="M 50.14375 2052.76 
L 50.14375 278.68 
" style="fill:none;stroke:#000000;stroke-linecap:square;stroke-linejoin:miter;stroke-width:0.8;"/>
   </g>
   <g id="patch_4">
    <path d="M 1835.74375 2052.76 
L 1835.74375 278.68 
" style="fill:none;stroke:#000000;stroke-linecap:square;stroke-linejoin:miter;stroke-width:0.8;"/>
   </g>
   <g id="patch_5">
    <path d="M 50.14375 2052.76 
L 1835.74375 2052.76 
" style="fill:none;stroke:#000000;stroke-linecap:square;stroke-linejoin:miter;stroke-width:0.8;"/>
   </g>
   <g id="patch_6">
    <path d="M 50.14375 278.68 
L 1835.74375 278.68 
" style="fill:none;stroke:#000000;stroke-linecap:square;stroke-linejoin:miter;stroke-width:0.8;"/>
   </g>
   <g id="text_20">
    <text style="font-family:DejaVu Sans;font-size:12px;font-stretch:normal;font-style:normal;font-weight:normal;text-anchor:middle;" transform="rotate(-0, 942.94375, 272.68)" x="942.94375" y="272.68">air_pressure-&gt;Throughput</text>
   </g>
  </g>
  <g id="legend_1">
   <g id="patch_7">
    <path d="M 1941.323437 22.678125 
L 2061.34375 22.678125 
Q 2063.34375 22.678125 2063.34375 20.678125 
L 2063.34375 7 
Q 2063.34375 5 2061.34375 5 
L 1941.323437 5 
Q 1939.323437 5 1939.323437 7 
L 1939.323437 20.678125 
Q 1939.323437 22.678125 1941.323437 22.678125 
z
" style="fill:#ffffff;opacity:0.8;stroke:#cccccc;stroke-linejoin:miter;"/>
   </g>
   <g id="line2d_18">
    <path d="M 1943.323437 13.098437 
L 1963.323437 13.098437 
" style="fill:none;stroke:#0000ff;stroke-linecap:square;stroke-width:1.5;"/>
   </g>
   <g id="line2d_19"/>
   <g id="text_21">
    <text style="font-family:DejaVu Sans;font-size:10px;font-stretch:normal;font-style:normal;font-weight:normal;text-anchor:start;" transform="rotate(-0, 1971.323437, 16.598437)" x="1971.323437" y="16.598437">Throughput[Bit/s]</text>
   </g>
  </g>
 </g>
 <defs>
  <clipPath id="p70b09d05df">
   <rect height="1774.08" width="1785.6" x="50.14375" y="278.68"/>
  </clipPath>
 </defs>
</svg>
