<?xml version="1.0" encoding="utf-8" standalone="no"?>
<!DOCTYPE svg PUBLIC "-//W3C//DTD SVG 1.1//EN"
  "http://www.w3.org/Graphics/SVG/1.1/DTD/svg11.dtd">
<!-- Created with matplotlib (https://matplotlib.org/) -->
<svg height="2090.31625pt" version="1.1" viewBox="0 0 2068.34375 2090.31625" width="2068.34375pt" xmlns="http://www.w3.org/2000/svg" xmlns:xlink="http://www.w3.org/1999/xlink">
 <metadata>
  <rdf:RDF xmlns:cc="http://creativecommons.org/ns#" xmlns:dc="http://purl.org/dc/elements/1.1/" xmlns:rdf="http://www.w3.org/1999/02/22-rdf-syntax-ns#">
   <cc:Work>
    <dc:type rdf:resource="http://purl.org/dc/dcmitype/StillImage"/>
    <dc:date>2022-07-23T21:18:18.627680</dc:date>
    <dc:format>image/svg+xml</dc:format>
    <dc:creator>
     <cc:Agent>
      <dc:title>Matplotlib v3.3.2, https://matplotlib.org/</dc:title>
     </cc:Agent>
    </dc:creator>
   </cc:Work>
  </rdf:RDF>
 </metadata>
 <defs>
  <style type="text/css">*{stroke-linecap:butt;stroke-linejoin:round;}</style>
 </defs>
 <g id="figure_1">
  <g id="patch_1">
   <path d="M 0 2090.31625 
L 2068.34375 2090.31625 
L 2068.34375 0 
L 0 0 
z
" style="fill:#ffffff;"/>
  </g>
  <g id="axes_1">
   <g id="patch_2">
    <path d="M 50.14375 2052.76 
L 1835.74375 2052.76 
L 1835.74375 278.68 
L 50.14375 278.68 
z
" style="fill:#ffffff;"/>
   </g>
   <g id="matplotlib.axis_1">
    <g id="xtick_1">
     <g id="line2d_1">
      <defs>
       <path d="M 0 0 
L 0 3.5 
" id="m89cef45773" style="stroke:#000000;stroke-width:0.8;"/>
      </defs>
      <g>
       <use style="stroke:#000000;stroke-width:0.8;" x="259.460496" xlink:href="#m89cef45773" y="2052.76"/>
      </g>
     </g>
     <g id="text_1">
      <text style="font-family:DejaVu Sans;font-size:10px;font-stretch:normal;font-style:normal;font-weight:normal;text-anchor:middle;" transform="rotate(-0, 259.460496, 2067.358438)" x="259.460496" y="2067.358438">30</text>
     </g>
    </g>
    <g id="xtick_2">
     <g id="line2d_2">
      <g>
       <use style="stroke:#000000;stroke-width:0.8;" x="473.049013" xlink:href="#m89cef45773" y="2052.76"/>
      </g>
     </g>
     <g id="text_2">
      <text style="font-family:DejaVu Sans;font-size:10px;font-stretch:normal;font-style:normal;font-weight:normal;text-anchor:middle;" transform="rotate(-0, 473.049013, 2067.358438)" x="473.049013" y="2067.358438">40</text>
     </g>
    </g>
    <g id="xtick_3">
     <g id="line2d_3">
      <g>
       <use style="stroke:#000000;stroke-width:0.8;" x="686.63753" xlink:href="#m89cef45773" y="2052.76"/>
      </g>
     </g>
     <g id="text_3">
      <text style="font-family:DejaVu Sans;font-size:10px;font-stretch:normal;font-style:normal;font-weight:normal;text-anchor:middle;" transform="rotate(-0, 686.63753, 2067.358438)" x="686.63753" y="2067.358438">50</text>
     </g>
    </g>
    <g id="xtick_4">
     <g id="line2d_4">
      <g>
       <use style="stroke:#000000;stroke-width:0.8;" x="900.226047" xlink:href="#m89cef45773" y="2052.76"/>
      </g>
     </g>
     <g id="text_4">
      <text style="font-family:DejaVu Sans;font-size:10px;font-stretch:normal;font-style:normal;font-weight:normal;text-anchor:middle;" transform="rotate(-0, 900.226047, 2067.358438)" x="900.226047" y="2067.358438">60</text>
     </g>
    </g>
    <g id="xtick_5">
     <g id="line2d_5">
      <g>
       <use style="stroke:#000000;stroke-width:0.8;" x="1113.814563" xlink:href="#m89cef45773" y="2052.76"/>
      </g>
     </g>
     <g id="text_5">
      <text style="font-family:DejaVu Sans;font-size:10px;font-stretch:normal;font-style:normal;font-weight:normal;text-anchor:middle;" transform="rotate(-0, 1113.814563, 2067.358438)" x="1113.814563" y="2067.358438">70</text>
     </g>
    </g>
    <g id="xtick_6">
     <g id="line2d_6">
      <g>
       <use style="stroke:#000000;stroke-width:0.8;" x="1327.40308" xlink:href="#m89cef45773" y="2052.76"/>
      </g>
     </g>
     <g id="text_6">
      <text style="font-family:DejaVu Sans;font-size:10px;font-stretch:normal;font-style:normal;font-weight:normal;text-anchor:middle;" transform="rotate(-0, 1327.40308, 2067.358438)" x="1327.40308" y="2067.358438">80</text>
     </g>
    </g>
    <g id="xtick_7">
     <g id="line2d_7">
      <g>
       <use style="stroke:#000000;stroke-width:0.8;" x="1540.991597" xlink:href="#m89cef45773" y="2052.76"/>
      </g>
     </g>
     <g id="text_7">
      <text style="font-family:DejaVu Sans;font-size:10px;font-stretch:normal;font-style:normal;font-weight:normal;text-anchor:middle;" transform="rotate(-0, 1540.991597, 2067.358438)" x="1540.991597" y="2067.358438">90</text>
     </g>
    </g>
    <g id="xtick_8">
     <g id="line2d_8">
      <g>
       <use style="stroke:#000000;stroke-width:0.8;" x="1754.580114" xlink:href="#m89cef45773" y="2052.76"/>
      </g>
     </g>
     <g id="text_8">
      <text style="font-family:DejaVu Sans;font-size:10px;font-stretch:normal;font-style:normal;font-weight:normal;text-anchor:middle;" transform="rotate(-0, 1754.580114, 2067.358438)" x="1754.580114" y="2067.358438">100</text>
     </g>
    </g>
    <g id="text_9">
     <text style="font-family:DejaVu Sans;font-size:10px;font-stretch:normal;font-style:normal;font-weight:normal;text-anchor:middle;" transform="rotate(-0, 942.94375, 2081.036562)" x="942.94375" y="2081.036562">humidity from WeatherAPI</text>
    </g>
   </g>
   <g id="matplotlib.axis_2">
    <g id="ytick_1">
     <g id="line2d_9">
      <defs>
       <path d="M 0 0 
L -3.5 0 
" id="m94c31e828e" style="stroke:#000000;stroke-width:0.8;"/>
      </defs>
      <g>
       <use style="stroke:#000000;stroke-width:0.8;" x="50.14375" xlink:href="#m94c31e828e" y="1674.485026"/>
      </g>
     </g>
     <g id="text_10">
      <text style="font-family:DejaVu Sans;font-size:10px;font-stretch:normal;font-style:normal;font-weight:normal;text-anchor:end;" transform="rotate(-0, 43.14375, 1678.284244)" x="43.14375" y="1678.284244">1.20</text>
     </g>
    </g>
    <g id="ytick_2">
     <g id="line2d_10">
      <g>
       <use style="stroke:#000000;stroke-width:0.8;" x="50.14375" xlink:href="#m94c31e828e" y="1286.418255"/>
      </g>
     </g>
     <g id="text_11">
      <text style="font-family:DejaVu Sans;font-size:10px;font-stretch:normal;font-style:normal;font-weight:normal;text-anchor:end;" transform="rotate(-0, 43.14375, 1290.217474)" x="43.14375" y="1290.217474">1.25</text>
     </g>
    </g>
    <g id="ytick_3">
     <g id="line2d_11">
      <g>
       <use style="stroke:#000000;stroke-width:0.8;" x="50.14375" xlink:href="#m94c31e828e" y="898.351484"/>
      </g>
     </g>
     <g id="text_12">
      <text style="font-family:DejaVu Sans;font-size:10px;font-stretch:normal;font-style:normal;font-weight:normal;text-anchor:end;" transform="rotate(-0, 43.14375, 902.150703)" x="43.14375" y="902.150703">1.30</text>
     </g>
    </g>
    <g id="ytick_4">
     <g id="line2d_12">
      <g>
       <use style="stroke:#000000;stroke-width:0.8;" x="50.14375" xlink:href="#m94c31e828e" y="510.284713"/>
      </g>
     </g>
     <g id="text_13">
      <text style="font-family:DejaVu Sans;font-size:10px;font-stretch:normal;font-style:normal;font-weight:normal;text-anchor:end;" transform="rotate(-0, 43.14375, 514.083932)" x="43.14375" y="514.083932">1.35</text>
     </g>
    </g>
    <g id="text_14">
     <text style="font-family:DejaVu Sans;font-size:10px;font-stretch:normal;font-style:normal;font-weight:normal;text-anchor:middle;" transform="rotate(-90, 14.798438, 1165.72)" x="14.798438" y="1165.72">Throughput[Bit/s]</text>
    </g>
    <g id="text_15">
     <text style="font-family:DejaVu Sans;font-size:10px;font-stretch:normal;font-style:normal;font-weight:normal;text-anchor:start;" transform="rotate(-0, 50.14375, 275.68)" x="50.14375" y="275.68">1e7</text>
    </g>
   </g>
   <g id="line2d_13">
    <path clip-path="url(#pee7adb8348)" d="M 131.307386 552.423654 
L 174.02509 824.53473 
L 216.742793 510.054915 
L 238.101645 617.857 
L 366.254755 624.474016 
L 387.613606 359.32 
L 408.972458 728.800733 
L 430.33131 559.833592 
L 451.690161 458.505252 
L 473.049013 549.869354 
L 494.407865 579.36622 
L 515.766717 1008.917062 
L 537.125568 695.149017 
L 558.48442 580.799237 
L 579.843272 757.998743 
L 601.202123 1374.264757 
L 622.560975 626.978005 
L 643.919827 603.073257 
L 665.278678 597.503581 
L 686.63753 618.731937 
L 707.996382 1305.787925 
L 729.355233 584.845398 
L 750.714085 738.566045 
L 772.072937 698.499511 
L 793.431788 681.886109 
L 814.79064 751.633918 
L 836.149492 860.778945 
L 857.508343 640.833504 
L 878.867195 694.013884 
L 900.226047 695.711678 
L 921.584898 848.370534 
L 942.94375 731.893304 
L 964.302602 837.740129 
L 985.661453 742.659021 
L 1007.020305 893.697981 
L 1028.379157 655.04205 
L 1049.738008 718.221426 
L 1071.09686 700.363905 
L 1092.455712 843.115965 
L 1113.814563 647.911286 
L 1135.173415 662.961308 
L 1156.532267 838.956767 
L 1177.891118 696.913053 
L 1199.24997 815.421253 
L 1220.608822 625.376452 
L 1241.967673 917.17576 
L 1263.326525 719.2513 
L 1284.685377 1787.604255 
L 1306.044228 688.472196 
L 1327.40308 648.728266 
L 1348.761932 680.741245 
L 1370.120783 852.641216 
L 1391.479635 728.194277 
L 1412.838487 739.50234 
L 1434.197339 1257.857786 
L 1455.55619 1044.826461 
L 1476.915042 1169.837485 
L 1498.273894 1972.12 
L 1519.632745 841.344111 
L 1540.991597 987.637765 
L 1562.350449 1316.042384 
L 1583.7093 1251.79848 
L 1605.068152 1049.870801 
L 1626.427004 1405.990548 
L 1647.785855 878.527297 
L 1669.144707 609.498532 
L 1690.503559 1188.176776 
L 1711.86241 641.361303 
L 1754.580114 804.894273 
" style="fill:none;stroke:#0000ff;stroke-linecap:square;stroke-width:1.5;"/>
   </g>
   <g id="patch_3">
    <path d="M 50.14375 2052.76 
L 50.14375 278.68 
" style="fill:none;stroke:#000000;stroke-linecap:square;stroke-linejoin:miter;stroke-width:0.8;"/>
   </g>
   <g id="patch_4">
    <path d="M 1835.74375 2052.76 
L 1835.74375 278.68 
" style="fill:none;stroke:#000000;stroke-linecap:square;stroke-linejoin:miter;stroke-width:0.8;"/>
   </g>
   <g id="patch_5">
    <path d="M 50.14375 2052.76 
L 1835.74375 2052.76 
" style="fill:none;stroke:#000000;stroke-linecap:square;stroke-linejoin:miter;stroke-width:0.8;"/>
   </g>
   <g id="patch_6">
    <path d="M 50.14375 278.68 
L 1835.74375 278.68 
" style="fill:none;stroke:#000000;stroke-linecap:square;stroke-linejoin:miter;stroke-width:0.8;"/>
   </g>
   <g id="text_16">
    <text style="font-family:DejaVu Sans;font-size:12px;font-stretch:normal;font-style:normal;font-weight:normal;text-anchor:middle;" transform="rotate(-0, 942.94375, 272.68)" x="942.94375" y="272.68">humidity-&gt;Throughput</text>
   </g>
  </g>
  <g id="legend_1">
   <g id="patch_7">
    <path d="M 1941.323437 22.678125 
L 2061.34375 22.678125 
Q 2063.34375 22.678125 2063.34375 20.678125 
L 2063.34375 7 
Q 2063.34375 5 2061.34375 5 
L 1941.323437 5 
Q 1939.323437 5 1939.323437 7 
L 1939.323437 20.678125 
Q 1939.323437 22.678125 1941.323437 22.678125 
z
" style="fill:#ffffff;opacity:0.8;stroke:#cccccc;stroke-linejoin:miter;"/>
   </g>
   <g id="line2d_14">
    <path d="M 1943.323437 13.098437 
L 1963.323437 13.098437 
" style="fill:none;stroke:#0000ff;stroke-linecap:square;stroke-width:1.5;"/>
   </g>
   <g id="line2d_15"/>
   <g id="text_17">
    <text style="font-family:DejaVu Sans;font-size:10px;font-stretch:normal;font-style:normal;font-weight:normal;text-anchor:start;" transform="rotate(-0, 1971.323437, 16.598437)" x="1971.323437" y="16.598437">Throughput[Bit/s]</text>
   </g>
  </g>
 </g>
 <defs>
  <clipPath id="pee7adb8348">
   <rect height="1774.08" width="1785.6" x="50.14375" y="278.68"/>
  </clipPath>
 </defs>
</svg>
