<?xml version="1.0" encoding="utf-8" standalone="no"?>
<!DOCTYPE svg PUBLIC "-//W3C//DTD SVG 1.1//EN"
  "http://www.w3.org/Graphics/SVG/1.1/DTD/svg11.dtd">
<!-- Created with matplotlib (https://matplotlib.org/) -->
<svg height="2090.594375pt" version="1.1" viewBox="0 0 2052.71875 2090.594375" width="2052.71875pt" xmlns="http://www.w3.org/2000/svg" xmlns:xlink="http://www.w3.org/1999/xlink">
 <metadata>
  <rdf:RDF xmlns:cc="http://creativecommons.org/ns#" xmlns:dc="http://purl.org/dc/elements/1.1/" xmlns:rdf="http://www.w3.org/1999/02/22-rdf-syntax-ns#">
   <cc:Work>
    <dc:type rdf:resource="http://purl.org/dc/dcmitype/StillImage"/>
    <dc:date>2022-07-23T21:15:35.120788</dc:date>
    <dc:format>image/svg+xml</dc:format>
    <dc:creator>
     <cc:Agent>
      <dc:title>Matplotlib v3.3.2, https://matplotlib.org/</dc:title>
     </cc:Agent>
    </dc:creator>
   </cc:Work>
  </rdf:RDF>
 </metadata>
 <defs>
  <style type="text/css">*{stroke-linecap:butt;stroke-linejoin:round;}</style>
 </defs>
 <g id="figure_1">
  <g id="patch_1">
   <path d="M 0 2090.594375 
L 2052.71875 2090.594375 
L 2052.71875 0 
L 0 0 
z
" style="fill:#ffffff;"/>
  </g>
  <g id="axes_1">
   <g id="patch_2">
    <path d="M 34.51875 2052.76 
L 1820.11875 2052.76 
L 1820.11875 278.68 
L 34.51875 278.68 
z
" style="fill:#ffffff;"/>
   </g>
   <g id="matplotlib.axis_1">
    <g id="xtick_1">
     <g id="line2d_1">
      <defs>
       <path d="M 0 0 
L 0 3.5 
" id="m3253626d98" style="stroke:#000000;stroke-width:0.8;"/>
      </defs>
      <g>
       <use style="stroke:#000000;stroke-width:0.8;" x="67.171987" xlink:href="#m3253626d98" y="2052.76"/>
      </g>
     </g>
     <g id="text_1">
      <text style="font-family:DejaVu Sans;font-size:10px;font-stretch:normal;font-style:normal;font-weight:normal;text-anchor:middle;" transform="rotate(-0, 67.171987, 2067.358437)" x="67.171987" y="2067.358437">0</text>
     </g>
    </g>
    <g id="xtick_2">
     <g id="line2d_2">
      <g>
       <use style="stroke:#000000;stroke-width:0.8;" x="327.980587" xlink:href="#m3253626d98" y="2052.76"/>
      </g>
     </g>
     <g id="text_2">
      <text style="font-family:DejaVu Sans;font-size:10px;font-stretch:normal;font-style:normal;font-weight:normal;text-anchor:middle;" transform="rotate(-0, 327.980587, 2067.358437)" x="327.980587" y="2067.358437">5</text>
     </g>
    </g>
    <g id="xtick_3">
     <g id="line2d_3">
      <g>
       <use style="stroke:#000000;stroke-width:0.8;" x="588.789187" xlink:href="#m3253626d98" y="2052.76"/>
      </g>
     </g>
     <g id="text_3">
      <text style="font-family:DejaVu Sans;font-size:10px;font-stretch:normal;font-style:normal;font-weight:normal;text-anchor:middle;" transform="rotate(-0, 588.789187, 2067.358437)" x="588.789187" y="2067.358437">10</text>
     </g>
    </g>
    <g id="xtick_4">
     <g id="line2d_4">
      <g>
       <use style="stroke:#000000;stroke-width:0.8;" x="849.597787" xlink:href="#m3253626d98" y="2052.76"/>
      </g>
     </g>
     <g id="text_4">
      <text style="font-family:DejaVu Sans;font-size:10px;font-stretch:normal;font-style:normal;font-weight:normal;text-anchor:middle;" transform="rotate(-0, 849.597787, 2067.358437)" x="849.597787" y="2067.358437">15</text>
     </g>
    </g>
    <g id="xtick_5">
     <g id="line2d_5">
      <g>
       <use style="stroke:#000000;stroke-width:0.8;" x="1110.406387" xlink:href="#m3253626d98" y="2052.76"/>
      </g>
     </g>
     <g id="text_5">
      <text style="font-family:DejaVu Sans;font-size:10px;font-stretch:normal;font-style:normal;font-weight:normal;text-anchor:middle;" transform="rotate(-0, 1110.406387, 2067.358437)" x="1110.406387" y="2067.358437">20</text>
     </g>
    </g>
    <g id="xtick_6">
     <g id="line2d_6">
      <g>
       <use style="stroke:#000000;stroke-width:0.8;" x="1371.214987" xlink:href="#m3253626d98" y="2052.76"/>
      </g>
     </g>
     <g id="text_6">
      <text style="font-family:DejaVu Sans;font-size:10px;font-stretch:normal;font-style:normal;font-weight:normal;text-anchor:middle;" transform="rotate(-0, 1371.214987, 2067.358437)" x="1371.214987" y="2067.358437">25</text>
     </g>
    </g>
    <g id="xtick_7">
     <g id="line2d_7">
      <g>
       <use style="stroke:#000000;stroke-width:0.8;" x="1632.023588" xlink:href="#m3253626d98" y="2052.76"/>
      </g>
     </g>
     <g id="text_7">
      <text style="font-family:DejaVu Sans;font-size:10px;font-stretch:normal;font-style:normal;font-weight:normal;text-anchor:middle;" transform="rotate(-0, 1632.023588, 2067.358437)" x="1632.023588" y="2067.358437">30</text>
     </g>
    </g>
    <g id="text_8">
     <text style="font-family:DejaVu Sans;font-size:10px;font-stretch:normal;font-style:normal;font-weight:normal;text-anchor:middle;" transform="rotate(-0, 927.31875, 2081.036562)" x="927.31875" y="2081.036562">wind_speed from Aeris</text>
    </g>
   </g>
   <g id="matplotlib.axis_2">
    <g id="ytick_1">
     <g id="line2d_8">
      <defs>
       <path d="M 0 0 
L -3.5 0 
" id="mcaf12fbc42" style="stroke:#000000;stroke-width:0.8;"/>
      </defs>
      <g>
       <use style="stroke:#000000;stroke-width:0.8;" x="34.51875" xlink:href="#mcaf12fbc42" y="1861.013656"/>
      </g>
     </g>
     <g id="text_9">
      <text style="font-family:DejaVu Sans;font-size:10px;font-stretch:normal;font-style:normal;font-weight:normal;text-anchor:end;" transform="rotate(-0, 27.51875, 1864.812875)" x="27.51875" y="1864.812875">5</text>
     </g>
    </g>
    <g id="ytick_2">
     <g id="line2d_9">
      <g>
       <use style="stroke:#000000;stroke-width:0.8;" x="34.51875" xlink:href="#mcaf12fbc42" y="1509.411302"/>
      </g>
     </g>
     <g id="text_10">
      <text style="font-family:DejaVu Sans;font-size:10px;font-stretch:normal;font-style:normal;font-weight:normal;text-anchor:end;" transform="rotate(-0, 27.51875, 1513.21052)" x="27.51875" y="1513.21052">6</text>
     </g>
    </g>
    <g id="ytick_3">
     <g id="line2d_10">
      <g>
       <use style="stroke:#000000;stroke-width:0.8;" x="34.51875" xlink:href="#mcaf12fbc42" y="1157.808947"/>
      </g>
     </g>
     <g id="text_11">
      <text style="font-family:DejaVu Sans;font-size:10px;font-stretch:normal;font-style:normal;font-weight:normal;text-anchor:end;" transform="rotate(-0, 27.51875, 1161.608166)" x="27.51875" y="1161.608166">7</text>
     </g>
    </g>
    <g id="ytick_4">
     <g id="line2d_11">
      <g>
       <use style="stroke:#000000;stroke-width:0.8;" x="34.51875" xlink:href="#mcaf12fbc42" y="806.206593"/>
      </g>
     </g>
     <g id="text_12">
      <text style="font-family:DejaVu Sans;font-size:10px;font-stretch:normal;font-style:normal;font-weight:normal;text-anchor:end;" transform="rotate(-0, 27.51875, 810.005811)" x="27.51875" y="810.005811">8</text>
     </g>
    </g>
    <g id="ytick_5">
     <g id="line2d_12">
      <g>
       <use style="stroke:#000000;stroke-width:0.8;" x="34.51875" xlink:href="#mcaf12fbc42" y="454.604238"/>
      </g>
     </g>
     <g id="text_13">
      <text style="font-family:DejaVu Sans;font-size:10px;font-stretch:normal;font-style:normal;font-weight:normal;text-anchor:end;" transform="rotate(-0, 27.51875, 458.403457)" x="27.51875" y="458.403457">9</text>
     </g>
    </g>
    <g id="text_14">
     <text style="font-family:DejaVu Sans;font-size:10px;font-stretch:normal;font-style:normal;font-weight:normal;text-anchor:middle;" transform="rotate(-90, 14.798438, 1165.72)" x="14.798438" y="1165.72">ping_night[ms]</text>
    </g>
   </g>
   <g id="line2d_13">
    <path clip-path="url(#pe3cfdc4a1d)" d="M 115.682386 1870.155317 
L 163.671169 1972.12 
L 192.360115 1855.036416 
L 200.70599 1336.422943 
L 212.181568 1941.530595 
L 221.049061 1916.91843 
L 238.262428 1816.008555 
L 260.170351 1948.21104 
L 288.859297 1885.274218 
L 297.726789 1502.730857 
L 308.68075 1867.694101 
L 317.548243 1903.205939 
L 319.634712 1663.413133 
L 328.502204 1788.935173 
L 345.715572 1879.296978 
L 357.19115 1908.831576 
L 371.796432 1656.732688 
L 374.404518 1928.169706 
L 385.358479 1951.727063 
L 394.225971 1557.580824 
L 405.179933 1924.30208 
L 414.047425 1894.767482 
L 416.655511 1481.634716 
L 425.001386 1880.351785 
L 431.260793 1479.876704 
L 442.736371 1912.699202 
L 453.690332 1879.648581 
L 470.9037 1886.680628 
L 476.119872 1653.919869 
L 481.857661 1869.803715 
L 490.725153 1785.770752 
L 493.333239 1834.995082 
L 499.592646 1881.05499 
L 501.679115 1758.345768 
L 510.546607 1942.937005 
L 513.154693 1639.855775 
L 527.759975 1568.480497 
L 528.281592 1855.036416 
L 539.235553 1897.931903 
L 550.189514 1851.16879 
L 567.402882 1928.169706 
L 578.87846 1843.433538 
L 596.091828 1897.931903 
L 607.045789 1742.523663 
L 618.521367 1550.548777 
L 624.259157 1803.35087 
L 624.780774 1713.692269 
L 635.734735 1871.561727 
L 639.386055 1506.24688 
L 646.688696 1752.720131 
L 652.948103 1464.757802 
L 664.423681 1833.940275 
L 669.118236 1560.745245 
L 692.59101 1758.697371 
L 704.066588 1871.561727 
L 732.233917 1878.593774 
L 735.885237 1415.181871 
L 743.187878 1752.720131 
L 749.968902 1762.564997 
L 760.922863 1598.015095 
L 765.617418 1592.389457 
L 771.876824 1831.830661 
L 772.920059 1700.682982 
L 791.698278 478.513198 
L 800.56577 1874.374545 
L 810.476497 1534.375069 
L 817.779138 1720.724317 
L 840.208678 1626.494886 
L 862.1166 1548.790765 
L 868.376006 1830.424251 
L 869.940858 1620.166043 
L 877.243499 1721.427521 
L 897.064952 1777.683898 
L 914.27832 1747.094493 
L 921.580961 1267.157279 
L 925.753898 1621.572453 
L 936.70786 1825.150216 
L 964.875188 1794.560811 
L 973.742681 1871.210124 
L 981.045322 359.32 
L 982.610173 1839.565912 
L 996.17222 1836.049889 
L 1004.518096 1671.148385 
L 1018.60176 1787.528764 
L 1033.207042 1831.127456 
L 1072.849949 1272.431315 
L 1077.544504 1633.878535 
L 1092.671402 1851.871995 
L 1112.492856 1828.314637 
L 1115.100942 1690.838116 
L 1129.706224 1710.527848 
L 1152.135763 1734.436808 
L 1226.205406 1576.215749 
L 1442.154927 1953.485075 
L 1464.062849 1293.175853 
L 1560.562031 1436.629614 
L 1620.026392 1766.432623 
L 1738.955114 1894.767482 
" style="fill:none;stroke:#0000ff;stroke-linecap:square;stroke-width:1.5;"/>
   </g>
   <g id="patch_3">
    <path d="M 34.51875 2052.76 
L 34.51875 278.68 
" style="fill:none;stroke:#000000;stroke-linecap:square;stroke-linejoin:miter;stroke-width:0.8;"/>
   </g>
   <g id="patch_4">
    <path d="M 1820.11875 2052.76 
L 1820.11875 278.68 
" style="fill:none;stroke:#000000;stroke-linecap:square;stroke-linejoin:miter;stroke-width:0.8;"/>
   </g>
   <g id="patch_5">
    <path d="M 34.51875 2052.76 
L 1820.11875 2052.76 
" style="fill:none;stroke:#000000;stroke-linecap:square;stroke-linejoin:miter;stroke-width:0.8;"/>
   </g>
   <g id="patch_6">
    <path d="M 34.51875 278.68 
L 1820.11875 278.68 
" style="fill:none;stroke:#000000;stroke-linecap:square;stroke-linejoin:miter;stroke-width:0.8;"/>
   </g>
   <g id="text_15">
    <text style="font-family:DejaVu Sans;font-size:12px;font-stretch:normal;font-style:normal;font-weight:normal;text-anchor:middle;" transform="rotate(-0, 927.31875, 272.68)" x="927.31875" y="272.68">wind_speed-&gt;ping_night</text>
   </g>
  </g>
  <g id="legend_1">
   <g id="patch_7">
    <path d="M 1938.43125 22.95625 
L 2045.71875 22.95625 
Q 2047.71875 22.95625 2047.71875 20.95625 
L 2047.71875 7 
Q 2047.71875 5 2045.71875 5 
L 1938.43125 5 
Q 1936.43125 5 1936.43125 7 
L 1936.43125 20.95625 
Q 1936.43125 22.95625 1938.43125 22.95625 
z
" style="fill:#ffffff;opacity:0.8;stroke:#cccccc;stroke-linejoin:miter;"/>
   </g>
   <g id="line2d_14">
    <path d="M 1940.43125 13.098438 
L 1960.43125 13.098438 
" style="fill:none;stroke:#0000ff;stroke-linecap:square;stroke-width:1.5;"/>
   </g>
   <g id="line2d_15"/>
   <g id="text_16">
    <text style="font-family:DejaVu Sans;font-size:10px;font-stretch:normal;font-style:normal;font-weight:normal;text-anchor:start;" transform="rotate(-0, 1968.43125, 16.598438)" x="1968.43125" y="16.598438">ping_night[ms]</text>
   </g>
  </g>
 </g>
 <defs>
  <clipPath id="pe3cfdc4a1d">
   <rect height="1774.08" width="1785.6" x="34.51875" y="278.68"/>
  </clipPath>
 </defs>
</svg>
