<?xml version="1.0" encoding="utf-8" standalone="no"?>
<!DOCTYPE svg PUBLIC "-//W3C//DTD SVG 1.1//EN"
  "http://www.w3.org/Graphics/SVG/1.1/DTD/svg11.dtd">
<!-- Created with matplotlib (https://matplotlib.org/) -->
<svg height="2090.31625pt" version="1.1" viewBox="0 0 2059.08125 2090.31625" width="2059.08125pt" xmlns="http://www.w3.org/2000/svg" xmlns:xlink="http://www.w3.org/1999/xlink">
 <metadata>
  <rdf:RDF xmlns:cc="http://creativecommons.org/ns#" xmlns:dc="http://purl.org/dc/elements/1.1/" xmlns:rdf="http://www.w3.org/1999/02/22-rdf-syntax-ns#">
   <cc:Work>
    <dc:type rdf:resource="http://purl.org/dc/dcmitype/StillImage"/>
    <dc:date>2022-07-24T11:46:27.373696</dc:date>
    <dc:format>image/svg+xml</dc:format>
    <dc:creator>
     <cc:Agent>
      <dc:title>Matplotlib v3.3.2, https://matplotlib.org/</dc:title>
     </cc:Agent>
    </dc:creator>
   </cc:Work>
  </rdf:RDF>
 </metadata>
 <defs>
  <style type="text/css">*{stroke-linecap:butt;stroke-linejoin:round;}</style>
 </defs>
 <g id="figure_1">
  <g id="patch_1">
   <path d="M 0 2090.31625 
L 2059.08125 2090.31625 
L 2059.08125 0 
L 0 0 
z
" style="fill:#ffffff;"/>
  </g>
  <g id="axes_1">
   <g id="patch_2">
    <path d="M 40.88125 2052.76 
L 1826.48125 2052.76 
L 1826.48125 278.68 
L 40.88125 278.68 
z
" style="fill:#ffffff;"/>
   </g>
   <g id="matplotlib.axis_1">
    <g id="xtick_1">
     <g id="line2d_1">
      <defs>
       <path d="M 0 0 
L 0 3.5 
" id="mc53ad95b71" style="stroke:#000000;stroke-width:0.8;"/>
      </defs>
      <g>
       <use style="stroke:#000000;stroke-width:0.8;" x="56.044606" xlink:href="#mc53ad95b71" y="2052.76"/>
      </g>
     </g>
     <g id="text_1">
      <text style="font-family:DejaVu Sans;font-size:10px;font-stretch:normal;font-style:normal;font-weight:normal;text-anchor:middle;" transform="rotate(-0, 56.044606, 2067.358438)" x="56.044606" y="2067.358438">5.0</text>
     </g>
    </g>
    <g id="xtick_2">
     <g id="line2d_2">
      <g>
       <use style="stroke:#000000;stroke-width:0.8;" x="264.906254" xlink:href="#mc53ad95b71" y="2052.76"/>
      </g>
     </g>
     <g id="text_2">
      <text style="font-family:DejaVu Sans;font-size:10px;font-stretch:normal;font-style:normal;font-weight:normal;text-anchor:middle;" transform="rotate(-0, 264.906254, 2067.358438)" x="264.906254" y="2067.358438">7.5</text>
     </g>
    </g>
    <g id="xtick_3">
     <g id="line2d_3">
      <g>
       <use style="stroke:#000000;stroke-width:0.8;" x="473.767901" xlink:href="#mc53ad95b71" y="2052.76"/>
      </g>
     </g>
     <g id="text_3">
      <text style="font-family:DejaVu Sans;font-size:10px;font-stretch:normal;font-style:normal;font-weight:normal;text-anchor:middle;" transform="rotate(-0, 473.767901, 2067.358438)" x="473.767901" y="2067.358438">10.0</text>
     </g>
    </g>
    <g id="xtick_4">
     <g id="line2d_4">
      <g>
       <use style="stroke:#000000;stroke-width:0.8;" x="682.629549" xlink:href="#mc53ad95b71" y="2052.76"/>
      </g>
     </g>
     <g id="text_4">
      <text style="font-family:DejaVu Sans;font-size:10px;font-stretch:normal;font-style:normal;font-weight:normal;text-anchor:middle;" transform="rotate(-0, 682.629549, 2067.358438)" x="682.629549" y="2067.358438">12.5</text>
     </g>
    </g>
    <g id="xtick_5">
     <g id="line2d_5">
      <g>
       <use style="stroke:#000000;stroke-width:0.8;" x="891.491197" xlink:href="#mc53ad95b71" y="2052.76"/>
      </g>
     </g>
     <g id="text_5">
      <text style="font-family:DejaVu Sans;font-size:10px;font-stretch:normal;font-style:normal;font-weight:normal;text-anchor:middle;" transform="rotate(-0, 891.491197, 2067.358438)" x="891.491197" y="2067.358438">15.0</text>
     </g>
    </g>
    <g id="xtick_6">
     <g id="line2d_6">
      <g>
       <use style="stroke:#000000;stroke-width:0.8;" x="1100.352845" xlink:href="#mc53ad95b71" y="2052.76"/>
      </g>
     </g>
     <g id="text_6">
      <text style="font-family:DejaVu Sans;font-size:10px;font-stretch:normal;font-style:normal;font-weight:normal;text-anchor:middle;" transform="rotate(-0, 1100.352845, 2067.358438)" x="1100.352845" y="2067.358438">17.5</text>
     </g>
    </g>
    <g id="xtick_7">
     <g id="line2d_7">
      <g>
       <use style="stroke:#000000;stroke-width:0.8;" x="1309.214493" xlink:href="#mc53ad95b71" y="2052.76"/>
      </g>
     </g>
     <g id="text_7">
      <text style="font-family:DejaVu Sans;font-size:10px;font-stretch:normal;font-style:normal;font-weight:normal;text-anchor:middle;" transform="rotate(-0, 1309.214493, 2067.358438)" x="1309.214493" y="2067.358438">20.0</text>
     </g>
    </g>
    <g id="xtick_8">
     <g id="line2d_8">
      <g>
       <use style="stroke:#000000;stroke-width:0.8;" x="1518.076141" xlink:href="#mc53ad95b71" y="2052.76"/>
      </g>
     </g>
     <g id="text_8">
      <text style="font-family:DejaVu Sans;font-size:10px;font-stretch:normal;font-style:normal;font-weight:normal;text-anchor:middle;" transform="rotate(-0, 1518.076141, 2067.358438)" x="1518.076141" y="2067.358438">22.5</text>
     </g>
    </g>
    <g id="xtick_9">
     <g id="line2d_9">
      <g>
       <use style="stroke:#000000;stroke-width:0.8;" x="1726.937789" xlink:href="#mc53ad95b71" y="2052.76"/>
      </g>
     </g>
     <g id="text_9">
      <text style="font-family:DejaVu Sans;font-size:10px;font-stretch:normal;font-style:normal;font-weight:normal;text-anchor:middle;" transform="rotate(-0, 1726.937789, 2067.358438)" x="1726.937789" y="2067.358438">25.0</text>
     </g>
    </g>
    <g id="text_10">
     <text style="font-family:DejaVu Sans;font-size:10px;font-stretch:normal;font-style:normal;font-weight:normal;text-anchor:middle;" transform="rotate(-0, 933.68125, 2081.036562)" x="933.68125" y="2081.036562">temperature from OpenWeatherMap</text>
    </g>
   </g>
   <g id="matplotlib.axis_2">
    <g id="ytick_1">
     <g id="line2d_10">
      <defs>
       <path d="M 0 0 
L -3.5 0 
" id="m5a4ddbbf68" style="stroke:#000000;stroke-width:0.8;"/>
      </defs>
      <g>
       <use style="stroke:#000000;stroke-width:0.8;" x="40.88125" xlink:href="#m5a4ddbbf68" y="1703.973856"/>
      </g>
     </g>
     <g id="text_11">
      <text style="font-family:DejaVu Sans;font-size:10px;font-stretch:normal;font-style:normal;font-weight:normal;text-anchor:end;" transform="rotate(-0, 33.88125, 1707.773074)" x="33.88125" y="1707.773074">6</text>
     </g>
    </g>
    <g id="ytick_2">
     <g id="line2d_11">
      <g>
       <use style="stroke:#000000;stroke-width:0.8;" x="40.88125" xlink:href="#m5a4ddbbf68" y="1311.66055"/>
      </g>
     </g>
     <g id="text_12">
      <text style="font-family:DejaVu Sans;font-size:10px;font-stretch:normal;font-style:normal;font-weight:normal;text-anchor:end;" transform="rotate(-0, 33.88125, 1315.459768)" x="33.88125" y="1315.459768">8</text>
     </g>
    </g>
    <g id="ytick_3">
     <g id="line2d_12">
      <g>
       <use style="stroke:#000000;stroke-width:0.8;" x="40.88125" xlink:href="#m5a4ddbbf68" y="919.347244"/>
      </g>
     </g>
     <g id="text_13">
      <text style="font-family:DejaVu Sans;font-size:10px;font-stretch:normal;font-style:normal;font-weight:normal;text-anchor:end;" transform="rotate(-0, 33.88125, 923.146463)" x="33.88125" y="923.146463">10</text>
     </g>
    </g>
    <g id="ytick_4">
     <g id="line2d_13">
      <g>
       <use style="stroke:#000000;stroke-width:0.8;" x="40.88125" xlink:href="#m5a4ddbbf68" y="527.033938"/>
      </g>
     </g>
     <g id="text_14">
      <text style="font-family:DejaVu Sans;font-size:10px;font-stretch:normal;font-style:normal;font-weight:normal;text-anchor:end;" transform="rotate(-0, 33.88125, 530.833157)" x="33.88125" y="530.833157">12</text>
     </g>
    </g>
    <g id="text_15">
     <text style="font-family:DejaVu Sans;font-size:10px;font-stretch:normal;font-style:normal;font-weight:normal;text-anchor:middle;" transform="rotate(-90, 14.798438, 1165.72)" x="14.798438" y="1165.72">ping_night[ms]</text>
    </g>
   </g>
   <g id="line2d_14">
    <path clip-path="url(#p032db55e40)" d="M 122.044886 1884.437976 
L 133.741139 1886.791856 
L 135.412032 1862.272274 
L 141.260158 1880.514843 
L 142.095605 1872.276264 
L 152.120964 507.61443 
L 168.829895 1881.495626 
L 176.348915 1908.761401 
L 177.184361 1879.53406 
L 180.526148 1897.188159 
L 181.361594 1877.76865 
L 190.551507 1844.422019 
L 193.893293 1875.610927 
L 203.083206 1904.838268 
L 203.918652 1811.860015 
L 209.766778 1842.068139 
L 211.437672 1894.245809 
L 222.298477 1869.922384 
L 230.652943 1876.395553 
L 231.48839 1882.280253 
L 233.159283 1865.018468 
L 236.501069 1842.460452 
L 237.336516 1898.953568 
L 239.842856 1840.891199 
L 240.678302 1883.06488 
L 243.184642 1920.334644 
L 244.855535 1905.426738 
L 246.526428 1871.88395 
L 248.197322 1922.100054 
L 249.868215 1702.012289 
L 252.374555 1776.159504 
L 253.210001 1914.253787 
L 254.045448 1838.341163 
L 254.880894 1909.153714 
L 255.716341 1842.068139 
L 257.387234 1560.387186 
L 260.729021 1781.455733 
L 261.564467 1924.257777 
L 264.070807 1918.569234 
L 269.083486 1887.576483 
L 270.75438 1866.195407 
L 271.589826 1841.675826 
L 274.096166 1911.899908 
L 274.931613 1784.00577 
L 276.602506 1901.503605 
L 277.437952 1863.841528 
L 279.108846 1886.595699 
L 280.779739 1859.918395 
L 281.615185 1752.228392 
L 283.286079 1846.383586 
L 286.627865 1871.29548 
L 289.134205 1812.056171 
L 290.805098 1887.184169 
L 291.640544 1766.155514 
L 293.311438 1880.907156 
L 294.146884 1831.279523 
L 295.817777 1807.348412 
L 302.50135 1787.928903 
L 303.336797 1889.734206 
L 304.172243 1708.681615 
L 307.51403 1624.530411 
L 318.374835 1871.687794 
L 319.210282 1919.94233 
L 320.045729 1803.425279 
L 320.881175 1810.879231 
L 321.716622 1774.197937 
L 323.387515 1143.358142 
L 325.058408 1632.768991 
L 329.235641 1745.755223 
L 330.071088 1854.818322 
L 332.577427 1590.987623 
L 333.412874 1825.00251 
L 335.919214 1892.088086 
L 336.75466 1746.147536 
L 337.590107 1764.193948 
L 338.425554 1931.319416 
L 340.096447 1885.418759 
L 340.931893 1902.484388 
L 341.76734 1823.82557 
L 342.602787 1915.430727 
L 343.438233 1886.007229 
L 345.109126 1804.994532 
L 346.780019 1890.322676 
L 348.450913 1938.773369 
L 350.121806 1880.711 
L 351.792699 1877.18018 
L 352.628146 1873.257047 
L 354.299039 1839.518103 
L 355.134485 1701.619976 
L 357.640825 1881.88794 
L 358.476272 1876.59171 
L 360.147165 1884.045663 
L 360.982612 1862.664588 
L 364.324398 1788.517373 
L 365.159844 1740.65515 
L 365.995291 1914.842257 
L 366.830738 1820.883221 
L 367.666184 1916.411511 
L 368.501631 1888.361109 
L 371.007971 1799.305989 
L 371.843417 1894.441965 
L 372.678864 1632.180521 
L 373.51431 1910.919124 
L 375.185204 1833.24109 
L 376.856097 1830.29874 
L 380.197883 1740.262836 
L 381.03333 1881.495626 
L 381.868776 1890.911146 
L 382.704223 1821.864004 
L 390.223242 1799.698302 
L 393.565029 1652.973126 
L 396.071368 1746.147536 
L 397.742262 1882.868723 
L 399.413155 1750.070669 
L 400.248601 1694.950649 
L 401.084048 1918.17692 
L 405.261281 1875.022457 
L 406.932174 1894.049652 
L 407.767621 1858.349141 
L 409.438514 1892.872712 
L 412.7803 1846.972055 
L 413.615747 1861.095334 
L 415.28664 1819.902437 
L 421.134766 1910.330654 
L 421.970213 1664.938682 
L 425.311999 1729.081907 
L 426.147446 1859.722238 
L 426.982892 1870.903167 
L 427.818339 1906.015208 
L 428.653785 1830.691053 
L 429.489232 1873.257047 
L 430.324679 1637.47675 
L 431.995572 1843.833549 
L 432.831018 1733.985823 
L 434.501912 1907.584461 
L 436.172805 1912.292221 
L 437.843698 1803.229122 
L 439.514591 1886.007229 
L 443.691824 1864.233841 
L 444.527271 1865.803094 
L 445.362717 1615.703362 
L 449.53995 1864.233841 
L 452.04629 1895.815062 
L 452.881737 1833.633403 
L 454.55263 1876.395553 
L 455.388076 1888.753423 
L 457.05897 1916.215354 
L 458.729863 1856.976045 
L 459.565309 1849.325935 
L 461.236203 1877.964807 
L 462.071649 1859.133768 
L 462.907096 1948.777358 
L 463.742542 1895.815062 
L 464.577989 1907.584461 
L 465.413435 1890.322676 
L 466.248882 1564.506475 
L 467.919775 1869.333914 
L 469.590668 1899.149725 
L 470.426115 1880.907156 
L 471.261562 1859.918395 
L 472.097008 1883.261036 
L 472.932455 1923.669307 
L 473.767901 1766.155514 
L 474.603348 1878.553277 
L 475.438795 1919.157704 
L 476.274241 1930.53479 
L 477.945134 1882.47641 
L 478.780581 1826.571764 
L 479.616028 1756.739995 
L 480.451474 1773.413311 
L 481.286921 1913.861474 
L 482.957814 1893.265026 
L 483.79326 1906.015208 
L 484.628707 1891.499616 
L 485.464154 1901.503605 
L 486.2996 1823.629414 
L 487.135047 1946.815792 
L 491.31228 1899.934352 
L 492.147726 1908.761401 
L 493.81862 1868.941601 
L 494.654066 1914.646101 
L 495.489513 1916.803824 
L 496.324959 1891.891929 
L 497.160406 1870.314697 
L 497.995853 1886.791856 
L 498.831299 1892.088086 
L 499.666746 1870.314697 
L 502.173085 1884.830289 
L 503.843979 1882.084096 
L 504.679425 1899.934352 
L 505.514872 1863.645371 
L 506.350318 1786.163493 
L 507.185765 1804.406062 
L 508.021212 1828.925643 
L 508.856658 1909.938341 
L 510.527551 1902.484388 
L 511.362998 1858.741455 
L 513.869338 1885.614916 
L 514.704784 1880.12253 
L 515.540231 1857.564515 
L 516.375678 1802.444495 
L 517.211124 1827.552547 
L 518.046571 1901.307448 
L 518.882017 1792.244349 
L 519.717464 1612.564855 
L 520.552911 1772.236371 
L 521.388357 1873.845517 
L 522.223804 1920.726957 
L 523.894697 1881.691783 
L 524.730143 1914.057631 
L 525.56559 1924.846247 
L 528.07193 1859.722238 
L 528.907376 1917.784607 
L 530.57827 1919.550017 
L 531.413716 1831.279523 
L 533.084609 1923.276993 
L 533.920056 1895.030435 
L 534.755503 1916.607667 
L 536.426396 1902.288232 
L 537.261842 1932.496356 
L 538.097289 1872.668577 
L 538.932736 1883.261036 
L 540.603629 1946.619635 
L 541.439075 1894.638122 
L 542.274522 1894.638122 
L 543.109968 1913.273004 
L 543.945415 1924.453933 
L 545.616308 1935.831019 
L 546.451755 1640.026787 
L 547.287201 1767.528611 
L 548.122648 1862.860744 
L 548.958095 1921.70774 
L 550.628988 1898.365099 
L 551.464434 1931.12326 
L 552.299881 1802.444495 
L 553.135328 1807.152255 
L 553.970774 1842.460452 
L 554.806221 1940.734936 
L 556.477114 1866.587721 
L 557.312561 1888.361109 
L 558.148007 1829.317957 
L 559.8189 1681.808154 
L 560.654347 1838.537319 
L 561.489793 1899.934352 
L 562.32524 1915.823041 
L 564.83158 1844.225862 
L 565.667026 1899.149725 
L 566.502473 1910.330654 
L 567.33792 1872.864734 
L 568.173366 1906.407521 
L 569.008813 1863.645371 
L 569.844259 1911.311438 
L 570.679706 1848.541309 
L 571.515153 1866.980034 
L 573.186046 1722.608738 
L 574.021492 1918.961547 
L 575.692386 1918.17692 
L 576.527832 1920.138487 
L 577.363279 1916.607667 
L 578.198725 1922.492367 
L 579.869619 1865.999251 
L 580.705065 1891.695772 
L 581.540512 1879.141747 
L 582.375958 1781.848047 
L 583.211405 1875.41477 
L 584.046851 1933.084826 
L 584.882298 1930.338633 
L 585.717745 1888.753423 
L 586.553191 1896.403532 
L 587.388638 1857.760671 
L 588.224084 1945.050382 
L 589.059531 1863.645371 
L 589.894978 1868.941601 
L 591.565871 1894.441965 
L 592.401317 1920.5308 
L 593.236764 1859.526081 
L 594.072211 1909.938341 
L 594.907657 1839.125789 
L 595.743104 1882.672566 
L 596.57855 1910.330654 
L 597.413997 1850.110562 
L 598.249444 1904.249798 
L 599.08489 1888.753423 
L 599.920337 1894.049652 
L 600.755783 1863.645371 
L 602.426676 1899.934352 
L 603.262123 1929.35785 
L 604.09757 1848.737465 
L 604.933016 1799.109832 
L 605.768463 1792.440506 
L 606.603909 1913.665317 
L 607.439356 1856.191418 
L 608.274803 1855.210635 
L 609.110249 1898.953568 
L 610.781142 1890.518832 
L 612.452036 1873.64936 
L 614.122929 1786.163493 
L 614.958375 1907.780618 
L 615.793822 1887.772639 
L 616.629269 1882.47641 
L 617.464715 1917.784607 
L 618.300162 1775.571034 
L 619.135608 1924.257777 
L 619.971055 1849.914405 
L 621.641948 1873.06089 
L 622.477395 1937.596429 
L 623.312841 1772.432527 
L 624.148288 1859.526081 
L 624.983734 1876.787867 
L 625.819181 1931.319416 
L 626.654628 1856.976045 
L 627.490074 1911.703751 
L 628.325521 1875.807083 
L 629.160967 1933.673296 
L 629.996414 1834.614186 
L 631.667307 1915.626884 
L 632.502754 1876.984023 
L 633.3382 1898.365099 
L 634.173647 1914.253787 
L 635.009094 1892.872712 
L 636.679987 1928.377066 
L 637.515433 1918.961547 
L 638.35088 1835.59497 
L 639.186326 1906.799835 
L 640.021773 1905.622895 
L 640.85722 1885.614916 
L 641.692666 1898.953568 
L 642.528113 1950.738925 
L 643.363559 1883.06488 
L 644.199006 1837.164223 
L 645.034453 1889.341892 
L 645.869899 1895.618905 
L 646.705346 1779.494167 
L 647.540792 1909.546028 
L 648.376239 1888.361109 
L 649.211686 1873.453204 
L 650.047132 1897.384315 
L 651.718025 1893.068869 
L 652.553472 1852.660598 
L 653.388919 1896.795845 
L 654.224365 1918.76539 
L 655.059812 1905.230581 
L 655.895258 1908.172931 
L 656.730705 1912.292221 
L 657.566152 1897.188159 
L 658.401598 1886.399543 
L 659.237045 1693.577553 
L 660.072491 1918.569234 
L 660.907938 1906.603678 
L 661.743384 1873.64936 
L 662.578831 1920.726957 
L 663.414278 1918.17692 
L 664.249724 1836.575753 
L 665.085171 1893.657339 
L 665.920617 1804.798375 
L 666.756064 1927.984753 
L 667.591511 1049.987575 
L 668.426957 1920.923114 
L 669.262404 1892.284242 
L 670.09785 1826.17945 
L 670.933297 1915.430727 
L 671.768744 1900.522822 
L 672.60419 1845.010489 
L 673.439637 1885.418759 
L 674.275083 1940.146466 
L 675.11053 1933.280983 
L 675.945977 1825.59098 
L 676.781423 1858.545298 
L 677.61687 1912.488378 
L 678.452316 676.505308 
L 679.287763 1937.007959 
L 680.123209 1917.58845 
L 680.958656 1889.734206 
L 681.794103 1853.837538 
L 682.629549 1706.523892 
L 683.464996 1905.622895 
L 684.300442 1894.638122 
L 685.135889 1928.76938 
L 685.971336 1909.938341 
L 686.806782 1928.573223 
L 687.642229 1908.172931 
L 688.477675 1893.853495 
L 689.313122 1899.542038 
L 690.148569 1895.226592 
L 690.984015 1910.330654 
L 691.819462 1849.718249 
L 692.654908 1913.861474 
L 693.490355 1733.985823 
L 694.325802 1884.045663 
L 695.161248 1928.377066 
L 695.996695 1904.838268 
L 696.832141 1837.360379 
L 697.667588 1804.013748 
L 699.338481 1898.168942 
L 700.173928 1883.849506 
L 701.009374 1880.12253 
L 701.844821 1938.577212 
L 702.680267 1882.47641 
L 703.515714 1871.491637 
L 704.351161 1839.125789 
L 705.186607 1860.899178 
L 706.8575 1890.126519 
L 707.692947 1899.542038 
L 708.528394 1781.455733 
L 709.36384 1874.433987 
L 710.199287 1903.857485 
L 711.034733 1811.467701 
L 711.87018 1843.833549 
L 712.705627 1926.219343 
L 713.541073 1900.522822 
L 716.047413 1829.71027 
L 716.88286 1910.919124 
L 717.718306 1912.880691 
L 718.553753 1871.491637 
L 719.389199 1883.457193 
L 720.224646 1905.819051 
L 721.895539 1907.976775 
L 722.730986 1906.211365 
L 723.566432 1887.772639 
L 724.401879 1937.596429 
L 725.237325 1725.943401 
L 726.908219 1915.234571 
L 727.743665 1896.795845 
L 728.579112 1927.00397 
L 729.414558 1881.88794 
L 730.250005 1887.184169 
L 731.085452 1865.803094 
L 731.920898 1880.907156 
L 732.756345 1853.445225 
L 733.591791 1909.938341 
L 734.427238 1859.133768 
L 735.262685 1882.47641 
L 736.098131 1842.852766 
L 736.933578 1929.35785 
L 737.769024 1881.29947 
L 738.604471 1906.799835 
L 740.275364 1864.233841 
L 741.110811 1886.988013 
L 742.781704 1859.329925 
L 743.61715 1918.373077 
L 745.288044 1821.275534 
L 746.12349 1837.360379 
L 746.958937 1840.302729 
L 747.794383 1829.514113 
L 748.62983 1897.384315 
L 749.465277 1798.129049 
L 750.300723 1895.422749 
L 751.971616 1853.249068 
L 752.807063 1914.449944 
L 753.64251 1851.679815 
L 754.477956 1910.919124 
L 755.313403 1903.661328 
L 756.148849 1899.149725 
L 756.984296 1839.518103 
L 757.819742 1921.903897 
L 758.655189 1910.330654 
L 759.490636 1869.137757 
L 760.326082 1945.246539 
L 761.996975 1895.030435 
L 762.832422 1895.226592 
L 763.667869 1887.968796 
L 764.503315 1912.292221 
L 766.174208 1892.088086 
L 767.009655 1892.480399 
L 767.845102 1892.284242 
L 768.680548 1938.184899 
L 769.515995 1918.76539 
L 770.351441 1879.337903 
L 771.186888 1888.361109 
L 772.022335 1863.056901 
L 772.857781 1928.965536 
L 773.693228 1827.552547 
L 774.528674 1912.292221 
L 775.364121 1928.377066 
L 776.199568 1885.026446 
L 777.035014 1809.898448 
L 778.705907 1913.861474 
L 779.541354 1861.095334 
L 780.3768 1853.249068 
L 781.212247 1813.625424 
L 782.047694 1811.467701 
L 782.88314 1850.306719 
L 783.718587 1845.402802 
L 784.554033 1925.434717 
L 785.38948 1821.667847 
L 787.060373 1823.040944 
L 787.89582 1888.361109 
L 788.731266 1910.919124 
L 789.566713 1853.641382 
L 790.40216 1898.757412 
L 791.237606 1903.072858 
L 792.908499 1775.963347 
L 793.743946 1753.209175 
L 795.414839 1913.665317 
L 796.250286 1763.605478 
L 797.921179 1871.29548 
L 798.756625 1775.178721 
L 799.592072 1903.857485 
L 800.427519 1912.880691 
L 801.262965 1875.41477 
L 802.098412 1863.449214 
L 802.933858 1848.148995 
L 803.769305 1951.327395 
L 804.604752 1617.861085 
L 805.440198 1777.5326 
L 806.275645 1847.756682 
L 807.111091 1906.799835 
L 809.617431 1890.714989 
L 810.452878 1915.626884 
L 811.288324 1883.06488 
L 812.123771 1884.045663 
L 812.959218 1890.322676 
L 813.794664 1584.514454 
L 815.465557 1899.738195 
L 816.301004 1894.834279 
L 817.13645 1862.468431 
L 817.971897 1908.369088 
L 821.313683 1886.791856 
L 822.14913 1856.779888 
L 822.984577 1837.948849 
L 823.820023 1832.260306 
L 824.65547 1843.245079 
L 825.490916 1902.288232 
L 826.326363 1874.041674 
L 827.16181 1875.41477 
L 827.997256 1896.795845 
L 828.832703 1903.857485 
L 829.668149 1832.848776 
L 830.503596 1862.860744 
L 834.680829 1882.672566 
L 835.516275 1768.117081 
L 836.351722 1918.961547 
L 837.187169 1789.498156 
L 838.858062 1921.903897 
L 839.693508 1876.395553 
L 840.528955 1559.798716 
L 841.364402 1838.341163 
L 842.199848 1872.668577 
L 843.870741 1817.744714 
L 844.706188 1876.984023 
L 845.541635 1865.018468 
L 846.377081 1899.149725 
L 847.212528 1896.011219 
L 848.047974 1870.903167 
L 848.883421 1839.714259 
L 849.718868 1869.333914 
L 850.554314 1868.549287 
L 852.225207 1822.648631 
L 853.896101 1902.484388 
L 854.731547 1898.757412 
L 855.566994 1755.366899 
L 856.40244 1894.049652 
L 857.237887 1907.584461 
L 858.073333 1843.048922 
L 858.90878 1951.719708 
L 859.744227 1805.975315 
L 860.579673 1868.156974 
L 861.41512 1856.976045 
L 862.250566 1853.445225 
L 863.92146 1844.225862 
L 865.592353 1809.702291 
L 866.427799 1928.965536 
L 867.263246 1872.864734 
L 868.098693 1927.396283 
L 868.934139 1890.518832 
L 870.605032 1835.987283 
L 872.275926 1923.669307 
L 873.946819 1859.133768 
L 876.453158 1773.413311 
L 877.288605 1832.260306 
L 878.124052 1916.411511 
L 878.959498 1890.322676 
L 879.794945 1929.94632 
L 880.630391 1932.300199 
L 881.465838 1828.141017 
L 882.301285 1903.857485 
L 883.136731 1824.806354 
L 884.807624 1879.53406 
L 885.643071 1874.630144 
L 886.478518 1893.657339 
L 887.313964 1904.249798 
L 888.149411 1917.784607 
L 888.984857 1885.222603 
L 889.820304 1782.436517 
L 890.655751 1887.772639 
L 891.491197 1935.438706 
L 892.326644 1900.718978 
L 893.16209 1817.744714 
L 893.997537 1839.714259 
L 894.832983 1877.18018 
L 895.66843 1841.283513 
L 896.503877 1897.384315 
L 897.339323 1899.542038 
L 898.17477 1929.94632 
L 899.010216 1801.659869 
L 899.845663 1923.669307 
L 900.68111 1928.76938 
L 901.516556 1889.145736 
L 902.352003 1904.445955 
L 903.187449 1887.968796 
L 904.022896 1904.642111 
L 904.858343 1869.333914 
L 905.693789 1891.499616 
L 906.529236 1856.387575 
L 907.364682 1856.583731 
L 908.200129 1907.192148 
L 909.035576 1849.522092 
L 909.871022 1870.118541 
L 910.706469 1863.645371 
L 911.541915 1886.007229 
L 912.377362 1896.795845 
L 913.212809 1916.803824 
L 914.048255 1845.206646 
L 915.719148 1891.107302 
L 916.554595 1905.034425 
L 917.390041 1850.110562 
L 918.225488 1890.714989 
L 919.060935 1845.010489 
L 919.896381 1831.279523 
L 921.567274 1814.213894 
L 922.402721 1497.224743 
L 923.238168 1855.210635 
L 924.073614 1946.031165 
L 924.909061 1507.424889 
L 926.579954 1704.954639 
L 927.415401 1863.056901 
L 928.250847 1812.252328 
L 929.086294 1838.341163 
L 929.92174 1835.202656 
L 930.757187 1881.495626 
L 931.592634 1908.172931 
L 932.42808 1886.791856 
L 933.263527 1909.742184 
L 934.098973 1871.491637 
L 934.93442 1965.842987 
L 935.769866 1927.984753 
L 937.44076 1725.158774 
L 938.276206 1887.772639 
L 939.111653 1860.899178 
L 939.947099 1845.795116 
L 941.617993 1924.257777 
L 942.453439 1884.634133 
L 943.288886 1784.00577 
L 944.124332 1793.617446 
L 944.959779 1679.454274 
L 946.630672 1865.803094 
L 949.137012 1890.911146 
L 949.972459 1732.41657 
L 951.643352 1890.518832 
L 952.478798 1902.876702 
L 953.314245 1874.433987 
L 954.985138 1896.011219 
L 955.820585 1851.875972 
L 957.491478 1796.559796 
L 958.326924 1879.730216 
L 959.162371 1887.576483 
L 961.668711 1849.325935 
L 963.339604 1878.553277 
L 964.175051 1856.191418 
L 965.010497 1874.041674 
L 965.845944 1912.684534 
L 966.68139 1915.038414 
L 967.516837 1836.77191 
L 968.352284 1692.59677 
L 969.18773 1858.741455 
L 970.023177 1842.852766 
L 970.858623 1890.714989 
L 971.69407 1824.021727 
L 972.529517 1812.056171 
L 974.20041 1888.753423 
L 975.035856 1839.714259 
L 975.871303 1816.567774 
L 976.706749 1945.835009 
L 977.542196 1872.864734 
L 978.377643 1907.976775 
L 979.213089 1918.569234 
L 980.048536 1883.457193 
L 980.883982 1889.145736 
L 981.719429 1887.772639 
L 982.554876 1895.815062 
L 985.061215 1857.956828 
L 985.896662 1911.507594 
L 986.732109 1889.930362 
L 987.567555 1780.867263 
L 988.403002 1856.583731 
L 989.238448 1887.576483 
L 990.073895 1834.221873 
L 990.909342 1884.830289 
L 991.744788 1805.190688 
L 992.580235 1848.148995 
L 993.415681 1881.103313 
L 994.251128 1806.563785 
L 995.086574 1855.799105 
L 995.922021 1915.234571 
L 996.757468 1760.270815 
L 997.592914 1913.665317 
L 998.428361 1782.82883 
L 999.263807 1859.722238 
L 1000.099254 1879.730216 
L 1001.770147 1884.24182 
L 1002.605594 1886.988013 
L 1004.276487 1893.461182 
L 1005.94738 1816.567774 
L 1006.782827 1815.783148 
L 1008.45372 1697.304529 
L 1009.289167 1880.907156 
L 1010.124613 1915.626884 
L 1010.96006 1838.733476 
L 1013.466399 1807.152255 
L 1015.137293 1905.034425 
L 1015.972739 1850.502875 
L 1017.643632 1911.899908 
L 1018.479079 1873.64936 
L 1019.314526 1915.038414 
L 1020.149972 1813.233111 
L 1021.820865 1873.06089 
L 1022.656312 1910.526811 
L 1024.327205 1873.64936 
L 1025.998098 1842.852766 
L 1026.833545 1881.88794 
L 1027.668992 1807.936882 
L 1028.504438 1784.59424 
L 1029.339885 1905.426738 
L 1030.175331 1923.276993 
L 1032.681671 1885.418759 
L 1033.517118 1906.799835 
L 1035.188011 1854.229852 
L 1036.858904 1882.672566 
L 1037.694351 1937.007959 
L 1038.529797 1877.572493 
L 1040.20069 1830.102583 
L 1041.036137 1758.309248 
L 1042.70703 1845.795116 
L 1043.542477 1896.011219 
L 1044.377923 1830.88721 
L 1046.884263 1911.115281 
L 1047.71971 1868.941601 
L 1048.555156 1556.660209 
L 1049.390603 1859.526081 
L 1050.22605 1886.007229 
L 1051.061496 1830.102583 
L 1051.896943 1893.068869 
L 1052.732389 1816.763931 
L 1053.567836 1877.18018 
L 1056.909622 1887.380326 
L 1057.745069 1894.245809 
L 1058.580515 1870.903167 
L 1059.415962 1843.637392 
L 1061.086855 1577.452814 
L 1063.593195 1813.036955 
L 1064.428642 1755.759212 
L 1065.264088 1837.752693 
L 1066.934981 1866.195407 
L 1070.276768 1863.645371 
L 1071.112214 1894.638122 
L 1071.947661 1890.322676 
L 1072.783107 1850.699032 
L 1073.618554 1897.188159 
L 1076.96034 1823.433257 
L 1078.631234 1772.040214 
L 1080.302127 1869.530071 
L 1081.137573 1898.953568 
L 1081.97302 1908.172931 
L 1082.808467 1972.12 
L 1084.47936 1921.903897 
L 1086.150253 1708.877772 
L 1086.9857 1740.851306 
L 1088.656593 1878.35712 
L 1089.492039 1911.899908 
L 1090.327486 1857.564515 
L 1091.998379 1864.822311 
L 1092.833826 1643.753763 
L 1093.669272 1823.2371 
L 1094.504719 1816.763931 
L 1097.011059 1800.679085 
L 1097.846505 1890.518832 
L 1098.681952 1861.291491 
L 1099.517398 1791.852036 
L 1102.023738 1896.992002 
L 1102.859185 1842.656609 
L 1104.530078 1890.911146 
L 1106.200971 1772.040214 
L 1107.871864 1879.926373 
L 1109.542758 1760.074658 
L 1112.049097 1911.115281 
L 1112.884544 1833.82956 
L 1114.555437 1920.334644 
L 1115.390884 1803.032965 
L 1116.22633 1885.026446 
L 1117.061777 1910.722968 
L 1119.568117 1843.048922 
L 1120.403563 1891.107302 
L 1121.23901 1872.276264 
L 1122.909903 1873.64936 
L 1124.580796 1905.230581 
L 1125.416243 1905.230581 
L 1126.251689 1898.168942 
L 1127.087136 1886.595699 
L 1127.922583 1842.068139 
L 1128.758029 1892.676556 
L 1129.593476 1719.077918 
L 1130.428922 1884.045663 
L 1131.264369 1870.70701 
L 1132.935262 1885.222603 
L 1133.770709 1882.47641 
L 1134.606155 1691.41983 
L 1135.441602 1873.257047 
L 1136.277048 1737.7128 
L 1137.947942 1819.510124 
L 1142.125175 1887.380326 
L 1143.796068 1828.53333 
L 1145.466961 1901.307448 
L 1147.137854 1871.491637 
L 1149.644194 1909.938341 
L 1150.47964 1894.638122 
L 1152.150534 1620.607278 
L 1154.656873 1906.015208 
L 1157.163213 1817.548558 
L 1157.99866 1816.960088 
L 1158.834106 1566.664198 
L 1159.669553 1892.480399 
L 1160.505 1846.187429 
L 1161.340446 1901.895918 
L 1162.175893 1905.819051 
L 1163.011339 1876.984023 
L 1163.846786 1944.461912 
L 1165.517679 1756.543838 
L 1167.188572 1916.215354 
L 1168.859466 1910.330654 
L 1169.694912 1833.633403 
L 1171.365805 1891.303459 
L 1172.201252 1847.364369 
L 1173.872145 1859.133768 
L 1175.543038 1760.859285 
L 1176.378485 1908.172931 
L 1177.213931 1806.171472 
L 1178.049378 1850.502875 
L 1178.884825 1824.021727 
L 1180.555718 1914.842257 
L 1181.391164 1926.023187 
L 1182.226611 1853.052912 
L 1183.062058 1887.772639 
L 1187.239291 1915.038414 
L 1188.074737 1841.087356 
L 1189.74563 1910.526811 
L 1193.922863 1883.06488 
L 1195.593756 1878.160963 
L 1197.26465 1800.679085 
L 1203.948222 1716.724038 
L 1211.467242 1862.664588 
L 1213.138135 359.32 
L 1214.809028 1937.596429 
L 1218.986261 1914.449944 
L 1220.657154 1899.149725 
L 1225.669834 1809.309978 
L 1226.50528 1817.352401 
L 1228.176174 1901.503605 
L 1229.01162 1836.575753 
L 1231.51796 1774.590251 
L 1233.188853 1848.541309 
L 1234.0243 1161.01224 
L 1235.695193 1831.671837 
L 1237.366086 1808.329195 
L 1239.872426 1294.398764 
L 1240.707872 1919.550017 
L 1241.543319 1915.626884 
L 1243.214212 1845.010489 
L 1247.391445 1492.516984 
L 1249.897785 1791.263566 
L 1252.404125 1882.280253 
L 1254.910464 1867.764661 
L 1255.745911 1861.879961 
L 1256.581358 1832.260306 
L 1257.416804 1883.261036 
L 1258.252251 1780.867263 
L 1263.26493 1879.730216 
L 1266.606717 1910.330654 
L 1268.27761 1847.560525 
L 1270.78395 1867.176191 
L 1273.290289 1869.922384 
L 1274.961183 1750.070669 
L 1276.632076 1868.156974 
L 1278.302969 1849.325935 
L 1281.644755 1912.292221 
L 1283.315649 1735.35892 
L 1286.657435 1570.195018 
L 1289.999221 1837.360379 
L 1290.834668 1893.657339 
L 1291.670114 1825.198667 
L 1294.176454 1674.550358 
L 1298.353687 1869.137757 
L 1299.189134 1867.176191 
L 1300.02458 1844.422019 
L 1305.872707 1852.660598 
L 1306.708153 1864.822311 
L 1308.379046 1870.118541 
L 1310.885386 1924.65009 
L 1312.556279 1567.056512 
L 1313.391726 1842.852766 
L 1315.898066 1817.548558 
L 1319.239852 1903.661328 
L 1324.252532 1903.857485 
L 1327.594318 1869.726227 
L 1328.429764 1910.722968 
L 1329.265211 1864.037684 
L 1330.100658 1878.94559 
L 1331.771551 1852.856755 
L 1332.606997 1871.687794 
L 1334.277891 1897.580472 
L 1335.113337 1896.207375 
L 1335.948784 1896.992002 
L 1340.961463 1892.872712 
L 1345.974143 1902.876702 
L 1347.645036 1893.853495 
L 1351.822269 1855.799105 
L 1355.999502 1859.526081 
L 1356.834949 1812.644641 
L 1357.670395 1812.840798 
L 1361.012182 1902.288232 
L 1364.353968 1866.195407 
L 1366.024861 1829.71027 
L 1368.531201 1854.818322 
L 1371.872987 1877.18018 
L 1373.54388 1868.549287 
L 1374.379327 1839.910416 
L 1376.05022 1918.17692 
L 1383.56924 1866.783877 
L 1391.923705 1767.332454 
L 1400.278171 1854.426008 
L 1427.012462 1791.067409 
L 1447.06318 1888.557266 
L 1447.898627 1875.022457 
L 1464.607559 1901.503605 
L 1498.025423 1893.853495 
L 1505.544442 1889.734206 
L 1537.291412 1897.972785 
L 1539.797752 1887.772639 
L 1555.671237 1891.303459 
L 1599.11446 1853.052912 
L 1605.798033 1833.82956 
L 1626.684198 1848.345152 
L 1650.076702 1900.915135 
L 1727.773235 1859.918395 
L 1739.469487 1962.116011 
L 1745.317614 1852.464442 
L 1745.317614 1852.464442 
" style="fill:none;stroke:#0000ff;stroke-linecap:square;stroke-width:1.5;"/>
   </g>
   <g id="patch_3">
    <path d="M 40.88125 2052.76 
L 40.88125 278.68 
" style="fill:none;stroke:#000000;stroke-linecap:square;stroke-linejoin:miter;stroke-width:0.8;"/>
   </g>
   <g id="patch_4">
    <path d="M 1826.48125 2052.76 
L 1826.48125 278.68 
" style="fill:none;stroke:#000000;stroke-linecap:square;stroke-linejoin:miter;stroke-width:0.8;"/>
   </g>
   <g id="patch_5">
    <path d="M 40.88125 2052.76 
L 1826.48125 2052.76 
" style="fill:none;stroke:#000000;stroke-linecap:square;stroke-linejoin:miter;stroke-width:0.8;"/>
   </g>
   <g id="patch_6">
    <path d="M 40.88125 278.68 
L 1826.48125 278.68 
" style="fill:none;stroke:#000000;stroke-linecap:square;stroke-linejoin:miter;stroke-width:0.8;"/>
   </g>
   <g id="text_16">
    <text style="font-family:DejaVu Sans;font-size:12px;font-stretch:normal;font-style:normal;font-weight:normal;text-anchor:middle;" transform="rotate(-0, 933.68125, 272.68)" x="933.68125" y="272.68">temperature-&gt;ping_night</text>
   </g>
  </g>
  <g id="legend_1">
   <g id="patch_7">
    <path d="M 1944.79375 22.95625 
L 2052.08125 22.95625 
Q 2054.08125 22.95625 2054.08125 20.95625 
L 2054.08125 7 
Q 2054.08125 5 2052.08125 5 
L 1944.79375 5 
Q 1942.79375 5 1942.79375 7 
L 1942.79375 20.95625 
Q 1942.79375 22.95625 1944.79375 22.95625 
z
" style="fill:#ffffff;opacity:0.8;stroke:#cccccc;stroke-linejoin:miter;"/>
   </g>
   <g id="line2d_15">
    <path d="M 1946.79375 13.098438 
L 1966.79375 13.098438 
" style="fill:none;stroke:#0000ff;stroke-linecap:square;stroke-width:1.5;"/>
   </g>
   <g id="line2d_16"/>
   <g id="text_17">
    <text style="font-family:DejaVu Sans;font-size:10px;font-stretch:normal;font-style:normal;font-weight:normal;text-anchor:start;" transform="rotate(-0, 1974.79375, 16.598438)" x="1974.79375" y="16.598438">ping_night[ms]</text>
   </g>
  </g>
 </g>
 <defs>
  <clipPath id="p032db55e40">
   <rect height="1774.08" width="1785.6" x="40.88125" y="278.68"/>
  </clipPath>
 </defs>
</svg>
