<?xml version="1.0" encoding="utf-8" standalone="no"?>
<!DOCTYPE svg PUBLIC "-//W3C//DTD SVG 1.1//EN"
  "http://www.w3.org/Graphics/SVG/1.1/DTD/svg11.dtd">
<!-- Created with matplotlib (https://matplotlib.org/) -->
<svg height="2090.31625pt" version="1.1" viewBox="0 0 2062.259375 2090.31625" width="2062.259375pt" xmlns="http://www.w3.org/2000/svg" xmlns:xlink="http://www.w3.org/1999/xlink">
 <metadata>
  <rdf:RDF xmlns:cc="http://creativecommons.org/ns#" xmlns:dc="http://purl.org/dc/elements/1.1/" xmlns:rdf="http://www.w3.org/1999/02/22-rdf-syntax-ns#">
   <cc:Work>
    <dc:type rdf:resource="http://purl.org/dc/dcmitype/StillImage"/>
    <dc:date>2022-07-23T21:12:10.097239</dc:date>
    <dc:format>image/svg+xml</dc:format>
    <dc:creator>
     <cc:Agent>
      <dc:title>Matplotlib v3.3.2, https://matplotlib.org/</dc:title>
     </cc:Agent>
    </dc:creator>
   </cc:Work>
  </rdf:RDF>
 </metadata>
 <defs>
  <style type="text/css">*{stroke-linecap:butt;stroke-linejoin:round;}</style>
 </defs>
 <g id="figure_1">
  <g id="patch_1">
   <path d="M 0 2090.31625 
L 2062.259375 2090.31625 
L 2062.259375 0 
L 0 0 
z
" style="fill:#ffffff;"/>
  </g>
  <g id="axes_1">
   <g id="patch_2">
    <path d="M 44.059375 2052.76 
L 1829.659375 2052.76 
L 1829.659375 278.68 
L 44.059375 278.68 
z
" style="fill:#ffffff;"/>
   </g>
   <g id="matplotlib.axis_1">
    <g id="xtick_1">
     <g id="line2d_1">
      <defs>
       <path d="M 0 0 
L 0 3.5 
" id="m74c408cca3" style="stroke:#000000;stroke-width:0.8;"/>
      </defs>
      <g>
       <use style="stroke:#000000;stroke-width:0.8;" x="248.065272" xlink:href="#m74c408cca3" y="2052.76"/>
      </g>
     </g>
     <g id="text_1">
      <text style="font-family:DejaVu Sans;font-size:10px;font-stretch:normal;font-style:normal;font-weight:normal;text-anchor:middle;" transform="rotate(-0, 248.065272, 2067.358438)" x="248.065272" y="2067.358438">7.5</text>
     </g>
    </g>
    <g id="xtick_2">
     <g id="line2d_2">
      <g>
       <use style="stroke:#000000;stroke-width:0.8;" x="467.426451" xlink:href="#m74c408cca3" y="2052.76"/>
      </g>
     </g>
     <g id="text_2">
      <text style="font-family:DejaVu Sans;font-size:10px;font-stretch:normal;font-style:normal;font-weight:normal;text-anchor:middle;" transform="rotate(-0, 467.426451, 2067.358438)" x="467.426451" y="2067.358438">10.0</text>
     </g>
    </g>
    <g id="xtick_3">
     <g id="line2d_3">
      <g>
       <use style="stroke:#000000;stroke-width:0.8;" x="686.787631" xlink:href="#m74c408cca3" y="2052.76"/>
      </g>
     </g>
     <g id="text_3">
      <text style="font-family:DejaVu Sans;font-size:10px;font-stretch:normal;font-style:normal;font-weight:normal;text-anchor:middle;" transform="rotate(-0, 686.787631, 2067.358438)" x="686.787631" y="2067.358438">12.5</text>
     </g>
    </g>
    <g id="xtick_4">
     <g id="line2d_4">
      <g>
       <use style="stroke:#000000;stroke-width:0.8;" x="906.14881" xlink:href="#m74c408cca3" y="2052.76"/>
      </g>
     </g>
     <g id="text_4">
      <text style="font-family:DejaVu Sans;font-size:10px;font-stretch:normal;font-style:normal;font-weight:normal;text-anchor:middle;" transform="rotate(-0, 906.14881, 2067.358438)" x="906.14881" y="2067.358438">15.0</text>
     </g>
    </g>
    <g id="xtick_5">
     <g id="line2d_5">
      <g>
       <use style="stroke:#000000;stroke-width:0.8;" x="1125.509989" xlink:href="#m74c408cca3" y="2052.76"/>
      </g>
     </g>
     <g id="text_5">
      <text style="font-family:DejaVu Sans;font-size:10px;font-stretch:normal;font-style:normal;font-weight:normal;text-anchor:middle;" transform="rotate(-0, 1125.509989, 2067.358438)" x="1125.509989" y="2067.358438">17.5</text>
     </g>
    </g>
    <g id="xtick_6">
     <g id="line2d_6">
      <g>
       <use style="stroke:#000000;stroke-width:0.8;" x="1344.871169" xlink:href="#m74c408cca3" y="2052.76"/>
      </g>
     </g>
     <g id="text_6">
      <text style="font-family:DejaVu Sans;font-size:10px;font-stretch:normal;font-style:normal;font-weight:normal;text-anchor:middle;" transform="rotate(-0, 1344.871169, 2067.358438)" x="1344.871169" y="2067.358438">20.0</text>
     </g>
    </g>
    <g id="xtick_7">
     <g id="line2d_7">
      <g>
       <use style="stroke:#000000;stroke-width:0.8;" x="1564.232348" xlink:href="#m74c408cca3" y="2052.76"/>
      </g>
     </g>
     <g id="text_7">
      <text style="font-family:DejaVu Sans;font-size:10px;font-stretch:normal;font-style:normal;font-weight:normal;text-anchor:middle;" transform="rotate(-0, 1564.232348, 2067.358438)" x="1564.232348" y="2067.358438">22.5</text>
     </g>
    </g>
    <g id="xtick_8">
     <g id="line2d_8">
      <g>
       <use style="stroke:#000000;stroke-width:0.8;" x="1783.593527" xlink:href="#m74c408cca3" y="2052.76"/>
      </g>
     </g>
     <g id="text_8">
      <text style="font-family:DejaVu Sans;font-size:10px;font-stretch:normal;font-style:normal;font-weight:normal;text-anchor:middle;" transform="rotate(-0, 1783.593527, 2067.358438)" x="1783.593527" y="2067.358438">25.0</text>
     </g>
    </g>
    <g id="text_9">
     <text style="font-family:DejaVu Sans;font-size:10px;font-stretch:normal;font-style:normal;font-weight:normal;text-anchor:middle;" transform="rotate(-0, 936.859375, 2081.036562)" x="936.859375" y="2081.036562">temperature from WeatherAPI</text>
    </g>
   </g>
   <g id="matplotlib.axis_2">
    <g id="ytick_1">
     <g id="line2d_9">
      <defs>
       <path d="M 0 0 
L -3.5 0 
" id="m9294d3d7f2" style="stroke:#000000;stroke-width:0.8;"/>
      </defs>
      <g>
       <use style="stroke:#000000;stroke-width:0.8;" x="44.059375" xlink:href="#m9294d3d7f2" y="1748.170851"/>
      </g>
     </g>
     <g id="text_10">
      <text style="font-family:DejaVu Sans;font-size:10px;font-stretch:normal;font-style:normal;font-weight:normal;text-anchor:end;" transform="rotate(-0, 37.059375, 1751.97007)" x="37.059375" y="1751.97007">5.0</text>
     </g>
    </g>
    <g id="ytick_2">
     <g id="line2d_10">
      <g>
       <use style="stroke:#000000;stroke-width:0.8;" x="44.059375" xlink:href="#m9294d3d7f2" y="1443.063019"/>
      </g>
     </g>
     <g id="text_11">
      <text style="font-family:DejaVu Sans;font-size:10px;font-stretch:normal;font-style:normal;font-weight:normal;text-anchor:end;" transform="rotate(-0, 37.059375, 1446.862238)" x="37.059375" y="1446.862238">5.5</text>
     </g>
    </g>
    <g id="ytick_3">
     <g id="line2d_11">
      <g>
       <use style="stroke:#000000;stroke-width:0.8;" x="44.059375" xlink:href="#m9294d3d7f2" y="1137.955187"/>
      </g>
     </g>
     <g id="text_12">
      <text style="font-family:DejaVu Sans;font-size:10px;font-stretch:normal;font-style:normal;font-weight:normal;text-anchor:end;" transform="rotate(-0, 37.059375, 1141.754406)" x="37.059375" y="1141.754406">6.0</text>
     </g>
    </g>
    <g id="ytick_4">
     <g id="line2d_12">
      <g>
       <use style="stroke:#000000;stroke-width:0.8;" x="44.059375" xlink:href="#m9294d3d7f2" y="832.847355"/>
      </g>
     </g>
     <g id="text_13">
      <text style="font-family:DejaVu Sans;font-size:10px;font-stretch:normal;font-style:normal;font-weight:normal;text-anchor:end;" transform="rotate(-0, 37.059375, 836.646574)" x="37.059375" y="836.646574">6.5</text>
     </g>
    </g>
    <g id="ytick_5">
     <g id="line2d_13">
      <g>
       <use style="stroke:#000000;stroke-width:0.8;" x="44.059375" xlink:href="#m9294d3d7f2" y="527.739523"/>
      </g>
     </g>
     <g id="text_14">
      <text style="font-family:DejaVu Sans;font-size:10px;font-stretch:normal;font-style:normal;font-weight:normal;text-anchor:end;" transform="rotate(-0, 37.059375, 531.538742)" x="37.059375" y="531.538742">7.0</text>
     </g>
    </g>
    <g id="text_15">
     <text style="font-family:DejaVu Sans;font-size:10px;font-stretch:normal;font-style:normal;font-weight:normal;text-anchor:middle;" transform="rotate(-90, 14.798438, 1165.72)" x="14.798438" y="1165.72">ping_night[ms]</text>
    </g>
   </g>
   <g id="line2d_14">
    <path clip-path="url(#pd1cb260525)" d="M 125.223011 1755.493439 
L 160.3208 1845.195142 
L 186.644142 1706.676186 
L 195.418589 1568.767446 
L 204.193036 1868.383337 
L 212.967483 1739.017616 
L 221.74193 1816.515006 
L 230.516377 1781.732713 
L 239.290825 1710.33748 
L 248.065272 1775.630556 
L 256.839719 1811.023065 
L 265.614166 1747.560636 
L 274.388613 1893.402179 
L 291.937508 1540.08731 
L 300.711955 1823.227378 
L 309.486402 1784.783791 
L 318.260849 1775.020341 
L 327.035296 1659.68958 
L 335.809744 1805.531124 
L 344.584191 1775.020341 
L 353.358638 1536.426016 
L 362.133085 1804.310692 
L 370.907532 1712.168127 
L 388.456427 1859.230102 
L 397.230874 1779.902066 
L 406.005321 1807.361771 
L 414.779768 1789.055301 
L 423.554215 1778.681635 
L 432.328662 1842.144064 
L 441.10311 1872.654847 
L 449.877557 1836.041907 
L 458.652004 1892.791964 
L 467.426451 1842.754279 
L 476.200898 1786.004222 
L 484.975346 1800.039183 
L 493.749793 1874.485494 
L 502.52424 1806.751555 
L 511.298687 1825.058025 
L 520.073134 1848.856436 
L 528.847581 1806.751555 
L 537.622029 1864.722043 
L 546.396476 1839.092985 
L 555.170923 1837.262338 
L 563.94537 1811.63328 
L 572.719817 1796.377889 
L 581.494264 1791.496163 
L 590.268712 1812.853712 
L 599.043159 1899.504336 
L 607.817606 1742.068695 
L 616.592053 1888.520454 
L 625.3665 1823.227378 
L 634.140947 1803.090261 
L 642.915395 1905.606493 
L 651.689842 1837.872554 
L 660.464289 1887.910238 
L 669.238736 1451.606039 
L 678.013183 1795.157457 
L 686.787631 1907.43714 
L 695.562078 1852.51773 
L 704.336525 1867.773121 
L 713.110972 1845.195142 
L 721.885419 1858.009671 
L 730.659866 1756.713871 
L 739.434314 1781.732713 
L 748.208761 1821.396731 
L 756.983208 1862.891396 
L 765.757655 1803.090261 
L 774.532102 1848.24622 
L 783.306549 1836.041907 
L 792.080997 1737.797185 
L 800.855444 1952.593099 
L 809.629891 1706.06597 
L 818.404338 1840.923632 
L 827.178785 1866.55269 
L 835.953232 1729.254166 
L 844.72768 1908.657571 
L 853.502127 1709.727264 
L 862.276574 1862.891396 
L 871.051021 1667.012168 
L 879.825468 1890.351101 
L 888.599916 1794.547242 
L 897.374363 1778.071419 
L 906.14881 1832.990829 
L 914.923257 1834.821476 
L 923.697704 1787.224654 
L 932.472151 1837.262338 
L 941.246599 1738.407401 
L 950.021046 359.32 
L 958.795493 1782.342928 
L 967.56994 1709.727264 
L 976.344387 1781.122497 
L 985.118834 1794.547242 
L 993.893282 1712.168127 
L 1002.667729 1674.334756 
L 1011.442176 1560.224427 
L 1020.216623 1784.783791 
L 1028.99107 1579.141112 
L 1037.765518 1820.1763 
L 1046.539965 1751.22193 
L 1055.314412 1782.342928 
L 1064.088859 1718.880499 
L 1072.863306 1764.036459 
L 1081.637753 1688.369716 
L 1090.412201 1793.937026 
L 1099.186648 1761.595596 
L 1107.961095 1972.12 
L 1116.735542 1695.082089 
L 1125.509989 1629.178797 
L 1143.058884 1886.079591 
L 1151.833331 1627.34815 
L 1160.607778 1815.90479 
L 1169.382225 1796.377889 
L 1186.931119 1779.902066 
L 1195.705567 1756.713871 
L 1204.480014 1515.068468 
L 1213.254461 1827.498888 
L 1230.803355 1796.377889 
L 1239.577803 1754.883224 
L 1248.35225 1654.197639 
L 1257.126697 1657.248717 
L 1274.675591 1824.447809 
L 1292.224486 1728.64395 
L 1309.77338 1804.310692 
L 1318.547827 1781.122497 
L 1336.096721 1864.722043 
L 1344.871169 1677.385834 
L 1353.645616 1635.891169 
L 1362.420063 1759.154733 
L 1371.19451 1759.764949 
L 1388.743404 1735.966538 
L 1415.066746 1756.713871 
L 1432.61564 1649.926129 
L 1511.585665 1470.522724 
L 1608.104584 1335.054847 
L 1651.97682 1741.458479 
L 1704.623503 1940.999001 
L 1748.495739 1446.114098 
L 1748.495739 1446.114098 
" style="fill:none;stroke:#0000ff;stroke-linecap:square;stroke-width:1.5;"/>
   </g>
   <g id="patch_3">
    <path d="M 44.059375 2052.76 
L 44.059375 278.68 
" style="fill:none;stroke:#000000;stroke-linecap:square;stroke-linejoin:miter;stroke-width:0.8;"/>
   </g>
   <g id="patch_4">
    <path d="M 1829.659375 2052.76 
L 1829.659375 278.68 
" style="fill:none;stroke:#000000;stroke-linecap:square;stroke-linejoin:miter;stroke-width:0.8;"/>
   </g>
   <g id="patch_5">
    <path d="M 44.059375 2052.76 
L 1829.659375 2052.76 
" style="fill:none;stroke:#000000;stroke-linecap:square;stroke-linejoin:miter;stroke-width:0.8;"/>
   </g>
   <g id="patch_6">
    <path d="M 44.059375 278.68 
L 1829.659375 278.68 
" style="fill:none;stroke:#000000;stroke-linecap:square;stroke-linejoin:miter;stroke-width:0.8;"/>
   </g>
   <g id="text_16">
    <text style="font-family:DejaVu Sans;font-size:12px;font-stretch:normal;font-style:normal;font-weight:normal;text-anchor:middle;" transform="rotate(-0, 936.859375, 272.68)" x="936.859375" y="272.68">temperature-&gt;ping_night</text>
   </g>
  </g>
  <g id="legend_1">
   <g id="patch_7">
    <path d="M 1947.971875 22.95625 
L 2055.259375 22.95625 
Q 2057.259375 22.95625 2057.259375 20.95625 
L 2057.259375 7 
Q 2057.259375 5 2055.259375 5 
L 1947.971875 5 
Q 1945.971875 5 1945.971875 7 
L 1945.971875 20.95625 
Q 1945.971875 22.95625 1947.971875 22.95625 
z
" style="fill:#ffffff;opacity:0.8;stroke:#cccccc;stroke-linejoin:miter;"/>
   </g>
   <g id="line2d_15">
    <path d="M 1949.971875 13.098438 
L 1969.971875 13.098438 
" style="fill:none;stroke:#0000ff;stroke-linecap:square;stroke-width:1.5;"/>
   </g>
   <g id="line2d_16"/>
   <g id="text_17">
    <text style="font-family:DejaVu Sans;font-size:10px;font-stretch:normal;font-style:normal;font-weight:normal;text-anchor:start;" transform="rotate(-0, 1977.971875, 16.598438)" x="1977.971875" y="16.598438">ping_night[ms]</text>
   </g>
  </g>
 </g>
 <defs>
  <clipPath id="pd1cb260525">
   <rect height="1774.08" width="1785.6" x="44.059375" y="278.68"/>
  </clipPath>
 </defs>
</svg>
