<?xml version="1.0" encoding="utf-8" standalone="no"?>
<!DOCTYPE svg PUBLIC "-//W3C//DTD SVG 1.1//EN"
  "http://www.w3.org/Graphics/SVG/1.1/DTD/svg11.dtd">
<!-- Created with matplotlib (https://matplotlib.org/) -->
<svg height="345.6pt" version="1.1" viewBox="0 0 460.8 345.6" width="460.8pt" xmlns="http://www.w3.org/2000/svg" xmlns:xlink="http://www.w3.org/1999/xlink">
 <metadata>
  <rdf:RDF xmlns:cc="http://creativecommons.org/ns#" xmlns:dc="http://purl.org/dc/elements/1.1/" xmlns:rdf="http://www.w3.org/1999/02/22-rdf-syntax-ns#">
   <cc:Work>
    <dc:type rdf:resource="http://purl.org/dc/dcmitype/StillImage"/>
    <dc:date>2022-07-08T16:19:01.624650</dc:date>
    <dc:format>image/svg+xml</dc:format>
    <dc:creator>
     <cc:Agent>
      <dc:title>Matplotlib v3.3.2, https://matplotlib.org/</dc:title>
     </cc:Agent>
    </dc:creator>
   </cc:Work>
  </rdf:RDF>
 </metadata>
 <defs>
  <style type="text/css">*{stroke-linecap:butt;stroke-linejoin:round;}</style>
 </defs>
 <g id="figure_1">
  <g id="patch_1">
   <path d="M 0 345.6 
L 460.8 345.6 
L 460.8 0 
L 0 0 
z
" style="fill:#ffffff;"/>
  </g>
  <g id="axes_1">
   <g id="patch_2">
    <path d="M 57.6 307.584 
L 414.72 307.584 
L 414.72 41.472 
L 57.6 41.472 
z
" style="fill:#ffffff;"/>
   </g>
   <g id="matplotlib.axis_1">
    <g id="xtick_1">
     <g id="line2d_1">
      <defs>
       <path d="M 0 0 
L 0 3.5 
" id="m164555a3ed" style="stroke:#000000;stroke-width:0.8;"/>
      </defs>
      <g>
       <use style="stroke:#000000;stroke-width:0.8;" x="62.483205" xlink:href="#m164555a3ed" y="307.584"/>
      </g>
     </g>
     <g id="text_1">
      <!-- 0 -->
      <g transform="translate(59.301955 322.182437)scale(0.1 -0.1)">
       <defs>
        <path d="M 31.78125 66.40625 
Q 24.171875 66.40625 20.328125 58.90625 
Q 16.5 51.421875 16.5 36.375 
Q 16.5 21.390625 20.328125 13.890625 
Q 24.171875 6.390625 31.78125 6.390625 
Q 39.453125 6.390625 43.28125 13.890625 
Q 47.125 21.390625 47.125 36.375 
Q 47.125 51.421875 43.28125 58.90625 
Q 39.453125 66.40625 31.78125 66.40625 
z
M 31.78125 74.21875 
Q 44.046875 74.21875 50.515625 64.515625 
Q 56.984375 54.828125 56.984375 36.375 
Q 56.984375 17.96875 50.515625 8.265625 
Q 44.046875 -1.421875 31.78125 -1.421875 
Q 19.53125 -1.421875 13.0625 8.265625 
Q 6.59375 17.96875 6.59375 36.375 
Q 6.59375 54.828125 13.0625 64.515625 
Q 19.53125 74.21875 31.78125 74.21875 
z
" id="DejaVuSans-48"/>
       </defs>
       <use xlink:href="#DejaVuSans-48"/>
      </g>
     </g>
    </g>
    <g id="xtick_2">
     <g id="line2d_2">
      <g>
       <use style="stroke:#000000;stroke-width:0.8;" x="134.19444" xlink:href="#m164555a3ed" y="307.584"/>
      </g>
     </g>
     <g id="text_2">
      <!-- 2 -->
      <g transform="translate(131.01319 322.182437)scale(0.1 -0.1)">
       <defs>
        <path d="M 19.1875 8.296875 
L 53.609375 8.296875 
L 53.609375 0 
L 7.328125 0 
L 7.328125 8.296875 
Q 12.9375 14.109375 22.625 23.890625 
Q 32.328125 33.6875 34.8125 36.53125 
Q 39.546875 41.84375 41.421875 45.53125 
Q 43.3125 49.21875 43.3125 52.78125 
Q 43.3125 58.59375 39.234375 62.25 
Q 35.15625 65.921875 28.609375 65.921875 
Q 23.96875 65.921875 18.8125 64.3125 
Q 13.671875 62.703125 7.8125 59.421875 
L 7.8125 69.390625 
Q 13.765625 71.78125 18.9375 73 
Q 24.125 74.21875 28.421875 74.21875 
Q 39.75 74.21875 46.484375 68.546875 
Q 53.21875 62.890625 53.21875 53.421875 
Q 53.21875 48.921875 51.53125 44.890625 
Q 49.859375 40.875 45.40625 35.40625 
Q 44.1875 33.984375 37.640625 27.21875 
Q 31.109375 20.453125 19.1875 8.296875 
z
" id="DejaVuSans-50"/>
       </defs>
       <use xlink:href="#DejaVuSans-50"/>
      </g>
     </g>
    </g>
    <g id="xtick_3">
     <g id="line2d_3">
      <g>
       <use style="stroke:#000000;stroke-width:0.8;" x="205.905675" xlink:href="#m164555a3ed" y="307.584"/>
      </g>
     </g>
     <g id="text_3">
      <!-- 4 -->
      <g transform="translate(202.724425 322.182437)scale(0.1 -0.1)">
       <defs>
        <path d="M 37.796875 64.3125 
L 12.890625 25.390625 
L 37.796875 25.390625 
z
M 35.203125 72.90625 
L 47.609375 72.90625 
L 47.609375 25.390625 
L 58.015625 25.390625 
L 58.015625 17.1875 
L 47.609375 17.1875 
L 47.609375 0 
L 37.796875 0 
L 37.796875 17.1875 
L 4.890625 17.1875 
L 4.890625 26.703125 
z
" id="DejaVuSans-52"/>
       </defs>
       <use xlink:href="#DejaVuSans-52"/>
      </g>
     </g>
    </g>
    <g id="xtick_4">
     <g id="line2d_4">
      <g>
       <use style="stroke:#000000;stroke-width:0.8;" x="277.61691" xlink:href="#m164555a3ed" y="307.584"/>
      </g>
     </g>
     <g id="text_4">
      <!-- 6 -->
      <g transform="translate(274.43566 322.182437)scale(0.1 -0.1)">
       <defs>
        <path d="M 33.015625 40.375 
Q 26.375 40.375 22.484375 35.828125 
Q 18.609375 31.296875 18.609375 23.390625 
Q 18.609375 15.53125 22.484375 10.953125 
Q 26.375 6.390625 33.015625 6.390625 
Q 39.65625 6.390625 43.53125 10.953125 
Q 47.40625 15.53125 47.40625 23.390625 
Q 47.40625 31.296875 43.53125 35.828125 
Q 39.65625 40.375 33.015625 40.375 
z
M 52.59375 71.296875 
L 52.59375 62.3125 
Q 48.875 64.0625 45.09375 64.984375 
Q 41.3125 65.921875 37.59375 65.921875 
Q 27.828125 65.921875 22.671875 59.328125 
Q 17.53125 52.734375 16.796875 39.40625 
Q 19.671875 43.65625 24.015625 45.921875 
Q 28.375 48.1875 33.59375 48.1875 
Q 44.578125 48.1875 50.953125 41.515625 
Q 57.328125 34.859375 57.328125 23.390625 
Q 57.328125 12.15625 50.6875 5.359375 
Q 44.046875 -1.421875 33.015625 -1.421875 
Q 20.359375 -1.421875 13.671875 8.265625 
Q 6.984375 17.96875 6.984375 36.375 
Q 6.984375 53.65625 15.1875 63.9375 
Q 23.390625 74.21875 37.203125 74.21875 
Q 40.921875 74.21875 44.703125 73.484375 
Q 48.484375 72.75 52.59375 71.296875 
z
" id="DejaVuSans-54"/>
       </defs>
       <use xlink:href="#DejaVuSans-54"/>
      </g>
     </g>
    </g>
    <g id="xtick_5">
     <g id="line2d_5">
      <g>
       <use style="stroke:#000000;stroke-width:0.8;" x="349.328145" xlink:href="#m164555a3ed" y="307.584"/>
      </g>
     </g>
     <g id="text_5">
      <!-- 8 -->
      <g transform="translate(346.146895 322.182437)scale(0.1 -0.1)">
       <defs>
        <path d="M 31.78125 34.625 
Q 24.75 34.625 20.71875 30.859375 
Q 16.703125 27.09375 16.703125 20.515625 
Q 16.703125 13.921875 20.71875 10.15625 
Q 24.75 6.390625 31.78125 6.390625 
Q 38.8125 6.390625 42.859375 10.171875 
Q 46.921875 13.96875 46.921875 20.515625 
Q 46.921875 27.09375 42.890625 30.859375 
Q 38.875 34.625 31.78125 34.625 
z
M 21.921875 38.8125 
Q 15.578125 40.375 12.03125 44.71875 
Q 8.5 49.078125 8.5 55.328125 
Q 8.5 64.0625 14.71875 69.140625 
Q 20.953125 74.21875 31.78125 74.21875 
Q 42.671875 74.21875 48.875 69.140625 
Q 55.078125 64.0625 55.078125 55.328125 
Q 55.078125 49.078125 51.53125 44.71875 
Q 48 40.375 41.703125 38.8125 
Q 48.828125 37.15625 52.796875 32.3125 
Q 56.78125 27.484375 56.78125 20.515625 
Q 56.78125 9.90625 50.3125 4.234375 
Q 43.84375 -1.421875 31.78125 -1.421875 
Q 19.734375 -1.421875 13.25 4.234375 
Q 6.78125 9.90625 6.78125 20.515625 
Q 6.78125 27.484375 10.78125 32.3125 
Q 14.796875 37.15625 21.921875 38.8125 
z
M 18.3125 54.390625 
Q 18.3125 48.734375 21.84375 45.5625 
Q 25.390625 42.390625 31.78125 42.390625 
Q 38.140625 42.390625 41.71875 45.5625 
Q 45.3125 48.734375 45.3125 54.390625 
Q 45.3125 60.0625 41.71875 63.234375 
Q 38.140625 66.40625 31.78125 66.40625 
Q 25.390625 66.40625 21.84375 63.234375 
Q 18.3125 60.0625 18.3125 54.390625 
z
" id="DejaVuSans-56"/>
       </defs>
       <use xlink:href="#DejaVuSans-56"/>
      </g>
     </g>
    </g>
    <g id="text_6">
     <!-- wind_speed from WeatherBitIO -->
     <g transform="translate(158.679531 335.860562)scale(0.1 -0.1)">
      <defs>
       <path d="M 4.203125 54.6875 
L 13.1875 54.6875 
L 24.421875 12.015625 
L 35.59375 54.6875 
L 46.1875 54.6875 
L 57.421875 12.015625 
L 68.609375 54.6875 
L 77.59375 54.6875 
L 63.28125 0 
L 52.6875 0 
L 40.921875 44.828125 
L 29.109375 0 
L 18.5 0 
z
" id="DejaVuSans-119"/>
       <path d="M 9.421875 54.6875 
L 18.40625 54.6875 
L 18.40625 0 
L 9.421875 0 
z
M 9.421875 75.984375 
L 18.40625 75.984375 
L 18.40625 64.59375 
L 9.421875 64.59375 
z
" id="DejaVuSans-105"/>
       <path d="M 54.890625 33.015625 
L 54.890625 0 
L 45.90625 0 
L 45.90625 32.71875 
Q 45.90625 40.484375 42.875 44.328125 
Q 39.84375 48.1875 33.796875 48.1875 
Q 26.515625 48.1875 22.3125 43.546875 
Q 18.109375 38.921875 18.109375 30.90625 
L 18.109375 0 
L 9.078125 0 
L 9.078125 54.6875 
L 18.109375 54.6875 
L 18.109375 46.1875 
Q 21.34375 51.125 25.703125 53.5625 
Q 30.078125 56 35.796875 56 
Q 45.21875 56 50.046875 50.171875 
Q 54.890625 44.34375 54.890625 33.015625 
z
" id="DejaVuSans-110"/>
       <path d="M 45.40625 46.390625 
L 45.40625 75.984375 
L 54.390625 75.984375 
L 54.390625 0 
L 45.40625 0 
L 45.40625 8.203125 
Q 42.578125 3.328125 38.25 0.953125 
Q 33.9375 -1.421875 27.875 -1.421875 
Q 17.96875 -1.421875 11.734375 6.484375 
Q 5.515625 14.40625 5.515625 27.296875 
Q 5.515625 40.1875 11.734375 48.09375 
Q 17.96875 56 27.875 56 
Q 33.9375 56 38.25 53.625 
Q 42.578125 51.265625 45.40625 46.390625 
z
M 14.796875 27.296875 
Q 14.796875 17.390625 18.875 11.75 
Q 22.953125 6.109375 30.078125 6.109375 
Q 37.203125 6.109375 41.296875 11.75 
Q 45.40625 17.390625 45.40625 27.296875 
Q 45.40625 37.203125 41.296875 42.84375 
Q 37.203125 48.484375 30.078125 48.484375 
Q 22.953125 48.484375 18.875 42.84375 
Q 14.796875 37.203125 14.796875 27.296875 
z
" id="DejaVuSans-100"/>
       <path d="M 50.984375 -16.609375 
L 50.984375 -23.578125 
L -0.984375 -23.578125 
L -0.984375 -16.609375 
z
" id="DejaVuSans-95"/>
       <path d="M 44.28125 53.078125 
L 44.28125 44.578125 
Q 40.484375 46.53125 36.375 47.5 
Q 32.28125 48.484375 27.875 48.484375 
Q 21.1875 48.484375 17.84375 46.4375 
Q 14.5 44.390625 14.5 40.28125 
Q 14.5 37.15625 16.890625 35.375 
Q 19.28125 33.59375 26.515625 31.984375 
L 29.59375 31.296875 
Q 39.15625 29.25 43.1875 25.515625 
Q 47.21875 21.78125 47.21875 15.09375 
Q 47.21875 7.46875 41.1875 3.015625 
Q 35.15625 -1.421875 24.609375 -1.421875 
Q 20.21875 -1.421875 15.453125 -0.5625 
Q 10.6875 0.296875 5.421875 2 
L 5.421875 11.28125 
Q 10.40625 8.6875 15.234375 7.390625 
Q 20.0625 6.109375 24.8125 6.109375 
Q 31.15625 6.109375 34.5625 8.28125 
Q 37.984375 10.453125 37.984375 14.40625 
Q 37.984375 18.0625 35.515625 20.015625 
Q 33.0625 21.96875 24.703125 23.78125 
L 21.578125 24.515625 
Q 13.234375 26.265625 9.515625 29.90625 
Q 5.8125 33.546875 5.8125 39.890625 
Q 5.8125 47.609375 11.28125 51.796875 
Q 16.75 56 26.8125 56 
Q 31.78125 56 36.171875 55.265625 
Q 40.578125 54.546875 44.28125 53.078125 
z
" id="DejaVuSans-115"/>
       <path d="M 18.109375 8.203125 
L 18.109375 -20.796875 
L 9.078125 -20.796875 
L 9.078125 54.6875 
L 18.109375 54.6875 
L 18.109375 46.390625 
Q 20.953125 51.265625 25.265625 53.625 
Q 29.59375 56 35.59375 56 
Q 45.5625 56 51.78125 48.09375 
Q 58.015625 40.1875 58.015625 27.296875 
Q 58.015625 14.40625 51.78125 6.484375 
Q 45.5625 -1.421875 35.59375 -1.421875 
Q 29.59375 -1.421875 25.265625 0.953125 
Q 20.953125 3.328125 18.109375 8.203125 
z
M 48.6875 27.296875 
Q 48.6875 37.203125 44.609375 42.84375 
Q 40.53125 48.484375 33.40625 48.484375 
Q 26.265625 48.484375 22.1875 42.84375 
Q 18.109375 37.203125 18.109375 27.296875 
Q 18.109375 17.390625 22.1875 11.75 
Q 26.265625 6.109375 33.40625 6.109375 
Q 40.53125 6.109375 44.609375 11.75 
Q 48.6875 17.390625 48.6875 27.296875 
z
" id="DejaVuSans-112"/>
       <path d="M 56.203125 29.59375 
L 56.203125 25.203125 
L 14.890625 25.203125 
Q 15.484375 15.921875 20.484375 11.0625 
Q 25.484375 6.203125 34.421875 6.203125 
Q 39.59375 6.203125 44.453125 7.46875 
Q 49.3125 8.734375 54.109375 11.28125 
L 54.109375 2.78125 
Q 49.265625 0.734375 44.1875 -0.34375 
Q 39.109375 -1.421875 33.890625 -1.421875 
Q 20.796875 -1.421875 13.15625 6.1875 
Q 5.515625 13.8125 5.515625 26.8125 
Q 5.515625 40.234375 12.765625 48.109375 
Q 20.015625 56 32.328125 56 
Q 43.359375 56 49.78125 48.890625 
Q 56.203125 41.796875 56.203125 29.59375 
z
M 47.21875 32.234375 
Q 47.125 39.59375 43.09375 43.984375 
Q 39.0625 48.390625 32.421875 48.390625 
Q 24.90625 48.390625 20.390625 44.140625 
Q 15.875 39.890625 15.1875 32.171875 
z
" id="DejaVuSans-101"/>
       <path id="DejaVuSans-32"/>
       <path d="M 37.109375 75.984375 
L 37.109375 68.5 
L 28.515625 68.5 
Q 23.6875 68.5 21.796875 66.546875 
Q 19.921875 64.59375 19.921875 59.515625 
L 19.921875 54.6875 
L 34.71875 54.6875 
L 34.71875 47.703125 
L 19.921875 47.703125 
L 19.921875 0 
L 10.890625 0 
L 10.890625 47.703125 
L 2.296875 47.703125 
L 2.296875 54.6875 
L 10.890625 54.6875 
L 10.890625 58.5 
Q 10.890625 67.625 15.140625 71.796875 
Q 19.390625 75.984375 28.609375 75.984375 
z
" id="DejaVuSans-102"/>
       <path d="M 41.109375 46.296875 
Q 39.59375 47.171875 37.8125 47.578125 
Q 36.03125 48 33.890625 48 
Q 26.265625 48 22.1875 43.046875 
Q 18.109375 38.09375 18.109375 28.8125 
L 18.109375 0 
L 9.078125 0 
L 9.078125 54.6875 
L 18.109375 54.6875 
L 18.109375 46.1875 
Q 20.953125 51.171875 25.484375 53.578125 
Q 30.03125 56 36.53125 56 
Q 37.453125 56 38.578125 55.875 
Q 39.703125 55.765625 41.0625 55.515625 
z
" id="DejaVuSans-114"/>
       <path d="M 30.609375 48.390625 
Q 23.390625 48.390625 19.1875 42.75 
Q 14.984375 37.109375 14.984375 27.296875 
Q 14.984375 17.484375 19.15625 11.84375 
Q 23.34375 6.203125 30.609375 6.203125 
Q 37.796875 6.203125 41.984375 11.859375 
Q 46.1875 17.53125 46.1875 27.296875 
Q 46.1875 37.015625 41.984375 42.703125 
Q 37.796875 48.390625 30.609375 48.390625 
z
M 30.609375 56 
Q 42.328125 56 49.015625 48.375 
Q 55.71875 40.765625 55.71875 27.296875 
Q 55.71875 13.875 49.015625 6.21875 
Q 42.328125 -1.421875 30.609375 -1.421875 
Q 18.84375 -1.421875 12.171875 6.21875 
Q 5.515625 13.875 5.515625 27.296875 
Q 5.515625 40.765625 12.171875 48.375 
Q 18.84375 56 30.609375 56 
z
" id="DejaVuSans-111"/>
       <path d="M 52 44.1875 
Q 55.375 50.25 60.0625 53.125 
Q 64.75 56 71.09375 56 
Q 79.640625 56 84.28125 50.015625 
Q 88.921875 44.046875 88.921875 33.015625 
L 88.921875 0 
L 79.890625 0 
L 79.890625 32.71875 
Q 79.890625 40.578125 77.09375 44.375 
Q 74.3125 48.1875 68.609375 48.1875 
Q 61.625 48.1875 57.5625 43.546875 
Q 53.515625 38.921875 53.515625 30.90625 
L 53.515625 0 
L 44.484375 0 
L 44.484375 32.71875 
Q 44.484375 40.625 41.703125 44.40625 
Q 38.921875 48.1875 33.109375 48.1875 
Q 26.21875 48.1875 22.15625 43.53125 
Q 18.109375 38.875 18.109375 30.90625 
L 18.109375 0 
L 9.078125 0 
L 9.078125 54.6875 
L 18.109375 54.6875 
L 18.109375 46.1875 
Q 21.1875 51.21875 25.484375 53.609375 
Q 29.78125 56 35.6875 56 
Q 41.65625 56 45.828125 52.96875 
Q 50 49.953125 52 44.1875 
z
" id="DejaVuSans-109"/>
       <path d="M 3.328125 72.90625 
L 13.28125 72.90625 
L 28.609375 11.28125 
L 43.890625 72.90625 
L 54.984375 72.90625 
L 70.3125 11.28125 
L 85.59375 72.90625 
L 95.609375 72.90625 
L 77.296875 0 
L 64.890625 0 
L 49.515625 63.28125 
L 33.984375 0 
L 21.578125 0 
z
" id="DejaVuSans-87"/>
       <path d="M 34.28125 27.484375 
Q 23.390625 27.484375 19.1875 25 
Q 14.984375 22.515625 14.984375 16.5 
Q 14.984375 11.71875 18.140625 8.90625 
Q 21.296875 6.109375 26.703125 6.109375 
Q 34.1875 6.109375 38.703125 11.40625 
Q 43.21875 16.703125 43.21875 25.484375 
L 43.21875 27.484375 
z
M 52.203125 31.203125 
L 52.203125 0 
L 43.21875 0 
L 43.21875 8.296875 
Q 40.140625 3.328125 35.546875 0.953125 
Q 30.953125 -1.421875 24.3125 -1.421875 
Q 15.921875 -1.421875 10.953125 3.296875 
Q 6 8.015625 6 15.921875 
Q 6 25.140625 12.171875 29.828125 
Q 18.359375 34.515625 30.609375 34.515625 
L 43.21875 34.515625 
L 43.21875 35.40625 
Q 43.21875 41.609375 39.140625 45 
Q 35.0625 48.390625 27.6875 48.390625 
Q 23 48.390625 18.546875 47.265625 
Q 14.109375 46.140625 10.015625 43.890625 
L 10.015625 52.203125 
Q 14.9375 54.109375 19.578125 55.046875 
Q 24.21875 56 28.609375 56 
Q 40.484375 56 46.34375 49.84375 
Q 52.203125 43.703125 52.203125 31.203125 
z
" id="DejaVuSans-97"/>
       <path d="M 18.3125 70.21875 
L 18.3125 54.6875 
L 36.8125 54.6875 
L 36.8125 47.703125 
L 18.3125 47.703125 
L 18.3125 18.015625 
Q 18.3125 11.328125 20.140625 9.421875 
Q 21.96875 7.515625 27.59375 7.515625 
L 36.8125 7.515625 
L 36.8125 0 
L 27.59375 0 
Q 17.1875 0 13.234375 3.875 
Q 9.28125 7.765625 9.28125 18.015625 
L 9.28125 47.703125 
L 2.6875 47.703125 
L 2.6875 54.6875 
L 9.28125 54.6875 
L 9.28125 70.21875 
z
" id="DejaVuSans-116"/>
       <path d="M 54.890625 33.015625 
L 54.890625 0 
L 45.90625 0 
L 45.90625 32.71875 
Q 45.90625 40.484375 42.875 44.328125 
Q 39.84375 48.1875 33.796875 48.1875 
Q 26.515625 48.1875 22.3125 43.546875 
Q 18.109375 38.921875 18.109375 30.90625 
L 18.109375 0 
L 9.078125 0 
L 9.078125 75.984375 
L 18.109375 75.984375 
L 18.109375 46.1875 
Q 21.34375 51.125 25.703125 53.5625 
Q 30.078125 56 35.796875 56 
Q 45.21875 56 50.046875 50.171875 
Q 54.890625 44.34375 54.890625 33.015625 
z
" id="DejaVuSans-104"/>
       <path d="M 19.671875 34.8125 
L 19.671875 8.109375 
L 35.5 8.109375 
Q 43.453125 8.109375 47.28125 11.40625 
Q 51.125 14.703125 51.125 21.484375 
Q 51.125 28.328125 47.28125 31.5625 
Q 43.453125 34.8125 35.5 34.8125 
z
M 19.671875 64.796875 
L 19.671875 42.828125 
L 34.28125 42.828125 
Q 41.5 42.828125 45.03125 45.53125 
Q 48.578125 48.25 48.578125 53.8125 
Q 48.578125 59.328125 45.03125 62.0625 
Q 41.5 64.796875 34.28125 64.796875 
z
M 9.8125 72.90625 
L 35.015625 72.90625 
Q 46.296875 72.90625 52.390625 68.21875 
Q 58.5 63.53125 58.5 54.890625 
Q 58.5 48.1875 55.375 44.234375 
Q 52.25 40.28125 46.1875 39.3125 
Q 53.46875 37.75 57.5 32.78125 
Q 61.53125 27.828125 61.53125 20.40625 
Q 61.53125 10.640625 54.890625 5.3125 
Q 48.25 0 35.984375 0 
L 9.8125 0 
z
" id="DejaVuSans-66"/>
       <path d="M 9.8125 72.90625 
L 19.671875 72.90625 
L 19.671875 0 
L 9.8125 0 
z
" id="DejaVuSans-73"/>
       <path d="M 39.40625 66.21875 
Q 28.65625 66.21875 22.328125 58.203125 
Q 16.015625 50.203125 16.015625 36.375 
Q 16.015625 22.609375 22.328125 14.59375 
Q 28.65625 6.59375 39.40625 6.59375 
Q 50.140625 6.59375 56.421875 14.59375 
Q 62.703125 22.609375 62.703125 36.375 
Q 62.703125 50.203125 56.421875 58.203125 
Q 50.140625 66.21875 39.40625 66.21875 
z
M 39.40625 74.21875 
Q 54.734375 74.21875 63.90625 63.9375 
Q 73.09375 53.65625 73.09375 36.375 
Q 73.09375 19.140625 63.90625 8.859375 
Q 54.734375 -1.421875 39.40625 -1.421875 
Q 24.03125 -1.421875 14.8125 8.828125 
Q 5.609375 19.09375 5.609375 36.375 
Q 5.609375 53.65625 14.8125 63.9375 
Q 24.03125 74.21875 39.40625 74.21875 
z
" id="DejaVuSans-79"/>
      </defs>
      <use xlink:href="#DejaVuSans-119"/>
      <use x="81.787109" xlink:href="#DejaVuSans-105"/>
      <use x="109.570312" xlink:href="#DejaVuSans-110"/>
      <use x="172.949219" xlink:href="#DejaVuSans-100"/>
      <use x="236.425781" xlink:href="#DejaVuSans-95"/>
      <use x="286.425781" xlink:href="#DejaVuSans-115"/>
      <use x="338.525391" xlink:href="#DejaVuSans-112"/>
      <use x="402.001953" xlink:href="#DejaVuSans-101"/>
      <use x="463.525391" xlink:href="#DejaVuSans-101"/>
      <use x="525.048828" xlink:href="#DejaVuSans-100"/>
      <use x="588.525391" xlink:href="#DejaVuSans-32"/>
      <use x="620.3125" xlink:href="#DejaVuSans-102"/>
      <use x="655.517578" xlink:href="#DejaVuSans-114"/>
      <use x="694.380859" xlink:href="#DejaVuSans-111"/>
      <use x="755.5625" xlink:href="#DejaVuSans-109"/>
      <use x="852.974609" xlink:href="#DejaVuSans-32"/>
      <use x="884.761719" xlink:href="#DejaVuSans-87"/>
      <use x="977.763672" xlink:href="#DejaVuSans-101"/>
      <use x="1039.287109" xlink:href="#DejaVuSans-97"/>
      <use x="1100.566406" xlink:href="#DejaVuSans-116"/>
      <use x="1139.775391" xlink:href="#DejaVuSans-104"/>
      <use x="1203.154297" xlink:href="#DejaVuSans-101"/>
      <use x="1264.677734" xlink:href="#DejaVuSans-114"/>
      <use x="1305.791016" xlink:href="#DejaVuSans-66"/>
      <use x="1374.394531" xlink:href="#DejaVuSans-105"/>
      <use x="1402.177734" xlink:href="#DejaVuSans-116"/>
      <use x="1441.386719" xlink:href="#DejaVuSans-73"/>
      <use x="1470.878906" xlink:href="#DejaVuSans-79"/>
     </g>
    </g>
   </g>
   <g id="matplotlib.axis_2">
    <g id="ytick_1">
     <g id="line2d_6">
      <defs>
       <path d="M 0 0 
L -3.5 0 
" id="m547a390ea2" style="stroke:#000000;stroke-width:0.8;"/>
      </defs>
      <g>
       <use style="stroke:#000000;stroke-width:0.8;" x="57.6" xlink:href="#m547a390ea2" y="276.029334"/>
      </g>
     </g>
     <g id="text_7">
      <!-- 5 -->
      <g transform="translate(44.2375 279.828553)scale(0.1 -0.1)">
       <defs>
        <path d="M 10.796875 72.90625 
L 49.515625 72.90625 
L 49.515625 64.59375 
L 19.828125 64.59375 
L 19.828125 46.734375 
Q 21.96875 47.46875 24.109375 47.828125 
Q 26.265625 48.1875 28.421875 48.1875 
Q 40.625 48.1875 47.75 41.5 
Q 54.890625 34.8125 54.890625 23.390625 
Q 54.890625 11.625 47.5625 5.09375 
Q 40.234375 -1.421875 26.90625 -1.421875 
Q 22.3125 -1.421875 17.546875 -0.640625 
Q 12.796875 0.140625 7.71875 1.703125 
L 7.71875 11.625 
Q 12.109375 9.234375 16.796875 8.0625 
Q 21.484375 6.890625 26.703125 6.890625 
Q 35.15625 6.890625 40.078125 11.328125 
Q 45.015625 15.765625 45.015625 23.390625 
Q 45.015625 31 40.078125 35.4375 
Q 35.15625 39.890625 26.703125 39.890625 
Q 22.75 39.890625 18.8125 39.015625 
Q 14.890625 38.140625 10.796875 36.28125 
z
" id="DejaVuSans-53"/>
       </defs>
       <use xlink:href="#DejaVuSans-53"/>
      </g>
     </g>
    </g>
    <g id="ytick_2">
     <g id="line2d_7">
      <g>
       <use style="stroke:#000000;stroke-width:0.8;" x="57.6" xlink:href="#m547a390ea2" y="222.424193"/>
      </g>
     </g>
     <g id="text_8">
      <!-- 6 -->
      <g transform="translate(44.2375 226.223412)scale(0.1 -0.1)">
       <use xlink:href="#DejaVuSans-54"/>
      </g>
     </g>
    </g>
    <g id="ytick_3">
     <g id="line2d_8">
      <g>
       <use style="stroke:#000000;stroke-width:0.8;" x="57.6" xlink:href="#m547a390ea2" y="168.819053"/>
      </g>
     </g>
     <g id="text_9">
      <!-- 7 -->
      <g transform="translate(44.2375 172.618271)scale(0.1 -0.1)">
       <defs>
        <path d="M 8.203125 72.90625 
L 55.078125 72.90625 
L 55.078125 68.703125 
L 28.609375 0 
L 18.3125 0 
L 43.21875 64.59375 
L 8.203125 64.59375 
z
" id="DejaVuSans-55"/>
       </defs>
       <use xlink:href="#DejaVuSans-55"/>
      </g>
     </g>
    </g>
    <g id="ytick_4">
     <g id="line2d_9">
      <g>
       <use style="stroke:#000000;stroke-width:0.8;" x="57.6" xlink:href="#m547a390ea2" y="115.213912"/>
      </g>
     </g>
     <g id="text_10">
      <!-- 8 -->
      <g transform="translate(44.2375 119.013131)scale(0.1 -0.1)">
       <use xlink:href="#DejaVuSans-56"/>
      </g>
     </g>
    </g>
    <g id="ytick_5">
     <g id="line2d_10">
      <g>
       <use style="stroke:#000000;stroke-width:0.8;" x="57.6" xlink:href="#m547a390ea2" y="61.608771"/>
      </g>
     </g>
     <g id="text_11">
      <!-- 9 -->
      <g transform="translate(44.2375 65.40799)scale(0.1 -0.1)">
       <defs>
        <path d="M 10.984375 1.515625 
L 10.984375 10.5 
Q 14.703125 8.734375 18.5 7.8125 
Q 22.3125 6.890625 25.984375 6.890625 
Q 35.75 6.890625 40.890625 13.453125 
Q 46.046875 20.015625 46.78125 33.40625 
Q 43.953125 29.203125 39.59375 26.953125 
Q 35.25 24.703125 29.984375 24.703125 
Q 19.046875 24.703125 12.671875 31.3125 
Q 6.296875 37.9375 6.296875 49.421875 
Q 6.296875 60.640625 12.9375 67.421875 
Q 19.578125 74.21875 30.609375 74.21875 
Q 43.265625 74.21875 49.921875 64.515625 
Q 56.59375 54.828125 56.59375 36.375 
Q 56.59375 19.140625 48.40625 8.859375 
Q 40.234375 -1.421875 26.421875 -1.421875 
Q 22.703125 -1.421875 18.890625 -0.6875 
Q 15.09375 0.046875 10.984375 1.515625 
z
M 30.609375 32.421875 
Q 37.25 32.421875 41.125 36.953125 
Q 45.015625 41.5 45.015625 49.421875 
Q 45.015625 57.28125 41.125 61.84375 
Q 37.25 66.40625 30.609375 66.40625 
Q 23.96875 66.40625 20.09375 61.84375 
Q 16.21875 57.28125 16.21875 49.421875 
Q 16.21875 41.5 20.09375 36.953125 
Q 23.96875 32.421875 30.609375 32.421875 
z
" id="DejaVuSans-57"/>
       </defs>
       <use xlink:href="#DejaVuSans-57"/>
      </g>
     </g>
    </g>
   </g>
   <g id="line2d_11">
    <path clip-path="url(#pd1dee77196)" d="M 73.832727 276.082939 
L 76.283997 281.497058 
L 77.159483 264.182598 
L 77.413484 281.818689 
L 77.527362 269.650322 
L 79.181668 287.018388 
L 81.893429 272.75942 
L 83.557703 254.640883 
L 83.953298 254.962514 
L 84.627527 264.557834 
L 87.754782 277.155042 
L 90.702437 266.862855 
L 91.043495 289.591435 
L 91.137688 266.058778 
L 91.76362 275.439677 
L 91.780866 266.702039 
L 92.467071 279.620878 
L 94.226363 266.165988 
L 95.770019 271.687318 
L 95.793576 276.350965 
L 95.952237 277.476673 
L 96.198027 265.361911 
L 96.985022 271.740923 
L 98.938329 264.718649 
L 99.134817 260.055002 
L 99.292582 278.28075 
L 99.372899 277.583883 
L 99.80711 271.419292 
L 99.821811 251.960626 
L 100.746169 282.622766 
L 100.804255 276.61899 
L 101.074965 270.77603 
L 101.078192 286.482336 
L 101.617819 257.589166 
L 102.105455 281.657874 
L 102.775238 275.493283 
L 103.150647 240.274705 
L 103.41311 276.350965 
L 103.76808 249.226764 
L 103.941263 256.570668 
L 104.529654 233.627668 
L 104.822236 276.726201 
L 105.604964 258.125217 
L 106.708241 265.093885 
L 106.76059 276.40457 
L 107.817614 277.423068 
L 108.211667 265.897962 
L 108.331066 280.961007 
L 108.586717 272.491395 
L 108.809022 276.40457 
L 109.620793 272.062554 
L 109.646609 276.779806 
L 109.828755 231.965908 
L 109.913733 275.868519 
L 110.20022 274.850021 
L 110.460173 246.868137 
L 110.594631 250.352472 
L 110.747376 277.423068 
L 110.849565 286.589547 
L 110.914105 271.419292 
L 111.02203 276.51178 
L 111.43939 248.101056 
L 112.351198 275.761308 
L 112.417172 244.18788 
L 112.437252 248.04745 
L 112.613661 279.352853 
L 113.351928 284.927787 
L 113.453758 279.835299 
L 113.710126 275.278862 
L 113.754228 258.232427 
L 114.117804 278.441565 
L 114.283457 255.44496 
L 114.404649 278.763196 
L 114.611536 287.87607 
L 114.943559 269.060666 
L 114.986227 255.176934 
L 115.231838 230.304149 
L 115.39032 279.888904 
L 115.392472 270.77603 
L 115.755689 261.609551 
L 115.935326 250.674102 
L 116.174124 284.445341 
L 116.197789 251.370969 
L 116.331889 280.532166 
L 116.351251 267.774142 
L 116.568536 277.691093 
L 116.823828 281.550663 
L 116.970119 277.101437 
L 116.993783 267.02367 
L 117.921727 233.842088 
L 117.951128 279.406458 
L 118.185266 236.790371 
L 118.373866 273.885128 
L 118.565335 288.304911 
L 118.6833 230.893805 
L 118.725968 275.278862 
L 118.892338 276.243754 
L 118.943253 227.677497 
L 119.374238 222.263378 
L 119.515509 287.393624 
L 119.871197 275.761308 
L 120.976625 265.469121 
L 120.994195 285.195813 
L 120.994553 260.698264 
L 121.437729 264.665044 
L 121.885565 271.740923 
L 122.074524 247.404189 
L 122.118268 267.345301 
L 122.517341 289.430619 
L 122.701998 197.444198 
L 122.874105 275.707703 
L 122.880917 229.178441 
L 123.491897 265.522726 
L 123.668665 267.613327 
L 123.72962 280.961007 
L 123.951925 275.654098 
L 124.097857 278.334355 
L 124.219407 270.454399 
L 124.357452 249.494789 
L 124.576888 278.602381 
L 124.612027 256.302642 
L 125.243802 277.476673 
L 125.49766 232.341144 
L 125.785939 278.816801 
L 125.9498 269.864743 
L 126.11115 278.119934 
L 126.602372 268.578219 
L 126.681613 263.914572 
L 126.960928 274.52839 
L 127.313747 278.227145 
L 127.382949 285.410234 
L 127.406972 254.962514 
L 127.526371 284.23092 
L 128.264997 282.461951 
L 128.420969 276.833411 
L 128.436387 280.800191 
L 128.614231 265.844357 
L 128.633234 270.77603 
L 128.668014 279.996114 
L 129.012586 280.26414 
L 129.015455 269.060666 
L 129.061709 279.728089 
L 129.574803 289.85946 
L 129.873838 263.968177 
L 130.210881 280.424955 
L 130.545056 257.696376 
L 130.7376 276.243754 
L 130.755528 230.947411 
L 131.023369 222.960245 
L 131.156752 292.593322 
L 131.70857 271.097661 
L 131.794265 236.415135 
L 131.829045 264.665044 
L 131.956333 277.155042 
L 132.072146 284.338131 
L 132.432137 281.604269 
L 132.556556 267.774142 
L 133.50673 276.672596 
L 133.875684 274.52839 
L 133.907237 262.94968 
L 134.186552 281.229033 
L 134.541881 228.96402 
L 135.088321 257.42835 
L 135.181545 283.534054 
L 136.060008 282.086715 
L 136.303468 242.418911 
L 136.395258 289.323409 
L 136.417847 267.774142 
L 136.785367 288.787357 
L 137.252924 276.61899 
L 137.368738 269.811138 
L 137.739127 282.03311 
L 138.406758 282.676371 
L 138.615796 281.175427 
L 138.903 282.354741 
L 138.932043 262.788864 
L 139.058972 271.204871 
L 139.255461 266.541224 
L 139.360159 280.692981 
L 139.468443 284.12371 
L 139.505733 279.245642 
L 139.867158 254.212042 
L 139.899428 285.78547 
L 140.250454 257.106719 
L 140.437262 272.169764 
L 140.770361 273.885128 
L 141.666751 258.446848 
L 141.834914 246.814532 
L 141.835631 278.28075 
L 142.055067 277.637488 
L 142.063673 280.424955 
L 142.143272 269.382296 
L 142.152953 278.548776 
L 142.354462 277.208647 
L 142.359482 279.299248 
L 142.383505 276.672596 
L 142.850703 242.3117 
L 142.947514 249.441184 
L 143.031416 284.177315 
L 143.363797 282.515556 
L 143.391406 283.480448 
L 143.587178 280.800191 
L 143.600444 259.358135 
L 144.117482 270.400794 
L 144.220747 270.347189 
L 144.23724 264.772254 
L 144.255885 279.460063 
L 144.426199 249.548394 
L 144.559582 277.851909 
L 144.631293 264.236203 
L 144.64456 288.251306 
L 144.787624 279.513668 
L 144.859694 262.520838 
L 144.870092 264.128993 
L 145.283507 275.118047 
L 145.366334 284.498946 
L 145.418683 269.275086 
L 145.450953 221.888142 
L 145.476769 281.121822 
L 145.797318 271.901738 
L 145.840345 283.051607 
L 146.215395 289.805855 
L 146.363478 289.216199 
L 146.695143 285.249418 
L 146.912786 243.651829 
L 147.149075 281.979505 
L 147.163776 274.206759 
L 147.194253 265.629937 
L 147.565359 277.047832 
L 147.857223 276.833411 
L 148.049768 266.970065 
L 148.320478 283.694869 
L 148.407607 239.792259 
L 148.582582 278.602381 
L 148.865483 265.093885 
L 149.084203 278.709591 
L 149.529171 266.648434 
L 149.601958 257.106719 
L 149.60877 276.940621 
L 149.826055 272.920236 
L 150.048719 243.598224 
L 150.106446 272.866631 
L 150.283932 264.343413 
L 150.401538 277.851909 
L 150.693761 282.193925 
L 150.774078 264.557834 
L 151.589435 249.655605 
L 151.611306 272.330579 
L 151.735725 269.060666 
L 151.73716 273.509892 
L 151.778752 260.430238 
L 152.096792 290.502722 
L 152.801354 252.443072 
L 153.296521 270.454399 
L 154.704571 274.903626 
L 154.752259 259.19732 
L 154.884566 276.029334 
L 155.08464 267.291696 
L 155.160654 276.243754 
L 155.51921 241.025177 
L 156.13521 286.267916 
L 156.575875 283.319633 
L 156.635396 278.709591 
L 156.66157 281.121822 
L 156.824355 284.552551 
L 157.247451 258.929294 
L 157.389798 270.508004 
L 157.634333 263.646546 
L 157.774887 275.225257 
L 157.957392 255.44496 
L 158.001853 270.132768 
L 158.452917 271.848133 
L 158.730081 271.740923 
L 158.874579 278.066329 
L 159.105489 264.236203 
L 159.151384 286.589547 
L 159.293014 278.012724 
L 159.961363 283.051607 
L 160.038094 260.966289 
L 160.126299 278.709591 
L 160.715406 275.707703 
L 161.449729 274.367575 
L 161.456901 287.018388 
L 161.542237 273.295472 
L 161.598889 278.870406 
L 161.710758 276.887016 
L 161.86924 196.586515 
L 162.126325 271.365687 
L 162.224569 235.075006 
L 162.255764 277.423068 
L 162.602129 263.807362 
L 162.856345 261.502341 
L 163.120243 278.441565 
L 163.215977 269.596717 
L 163.616126 278.28075 
L 163.622938 295.488 
L 163.795762 270.829635 
L 164.085834 268.846245 
L 164.631915 263.539336 
L 164.638011 280.692981 
L 164.824819 271.044056 
L 164.930593 280.049719 
L 164.940991 276.887016 
L 165.045331 264.182598 
L 165.116683 273.670708 
L 165.885069 283.90929 
L 166.029567 257.964402 
L 166.176934 280.26414 
L 166.351909 272.169764 
L 166.422545 275.922124 
L 166.671383 273.027446 
L 166.958945 191.172396 
L 167.01739 287.286413 
L 167.162246 272.491395 
L 167.423634 281.443453 
L 167.4369 272.330579 
L 167.487815 282.408346 
L 167.518651 281.121822 
L 167.576737 274.796416 
L 167.626577 280.478561 
L 167.627294 285.088603 
L 167.666735 225.962133 
L 168.07764 276.833411 
L 168.090907 268.68543 
L 168.376318 271.901738 
L 168.428667 238.34492 
L 168.45771 282.193925 
L 168.548783 282.676371 
L 168.581053 239.845864 
L 168.676429 250.781313 
L 168.778976 251.317364 
L 168.903395 265.683542 
L 168.927418 290.288301 
L 168.93459 274.903626 
L 169.0859 278.816801 
L 169.596484 272.813025 
L 169.655646 280.478561 
L 169.92026 241.025177 
L 170.122128 275.868519 
L 170.189178 270.239979 
L 170.242244 272.169764 
L 170.250849 278.816801 
L 170.339413 276.458175 
L 170.422239 267.184486 
L 170.569606 270.025558 
L 171.061186 264.236203 
L 171.140069 268.417404 
L 171.288511 53.568 
L 171.297475 257.42835 
L 171.463128 284.338131 
L 171.611929 246.814532 
L 171.653162 258.071612 
L 171.696548 272.920236 
L 171.836743 275.171652 
L 172.169125 289.108988 
L 172.22004 219.797541 
L 172.393222 276.136544 
L 172.452743 271.472897 
L 172.572501 261.127105 
L 172.66214 277.583883 
L 173.881231 260.376633 
L 174.167358 278.977617 
L 174.276359 278.709591 
L 174.295363 273.831523 
L 174.649616 270.56161 
L 174.866901 280.853797 
L 175.112871 283.694869 
L 175.428042 267.506117 
L 175.628833 268.68543 
L 176.022528 269.00706 
L 176.208619 275.171652 
L 176.276386 258.125217 
L 176.982024 275.171652 
L 177.615593 253.354359 
L 177.779095 280.103325 
L 178.073111 283.90929 
L 178.953725 257.160324 
L 179.114358 262.574444 
L 179.162404 259.947792 
L 179.504467 265.844357 
L 179.640001 275.171652 
L 179.787726 267.398906 
L 179.810674 278.012724 
L 180.409463 272.169764 
L 181.306929 273.938733 
L 181.317686 266.058778 
L 181.42346 279.245642 
L 182.027985 243.759039 
L 182.203678 277.155042 
L 182.48873 272.384184 
L 183.356077 278.977617 
L 183.46221 271.151266 
L 183.646508 275.386072 
L 183.791006 272.705815 
L 184.211951 273.188261 
L 184.319876 277.101437 
L 184.627518 230.893805 
L 184.657636 261.234315 
L 184.858786 238.666551 
L 184.882451 281.121822 
L 185.224514 288.519332 
L 185.334232 282.998002 
L 185.748006 250.298866 
L 185.863819 284.338131 
L 185.885333 242.794147 
L 186.08218 279.299248 
L 186.170743 258.232427 
L 186.409183 279.728089 
L 186.504559 273.027446 
L 186.607465 275.600493 
L 186.687064 281.657874 
L 186.696387 268.89985 
L 187.42569 275.493283 
L 187.498118 273.188261 
L 187.55477 260.591053 
L 188.658765 266.862855 
L 188.983258 247.886635 
L 189.089749 263.753757 
L 189.41496 264.611439 
L 189.528263 273.134656 
L 189.555514 290.288301 
L 189.678499 283.105212 
L 190.381986 275.922124 
L 190.466605 220.708829 
L 190.734088 244.670327 
L 190.851336 274.313969 
L 191.896886 287.608044 
L 192.390259 268.631825 
L 192.530096 264.772254 
L 192.881481 279.513668 
L 193.322863 259.358135 
L 193.337564 285.303023 
L 194.030295 270.56161 
L 194.050733 270.66882 
L 194.128898 283.266028 
L 194.561675 280.210535 
L 195.102736 269.221481 
L 195.967932 259.41174 
L 196.024226 273.027446 
L 196.242945 277.637488 
L 196.557399 264.021782 
L 196.842092 244.295091 
L 197.249771 276.672596 
L 197.925649 254.319252 
L 197.94035 266.165988 
L 198.448424 276.29736 
L 198.663199 267.452511 
L 199.27633 277.959119 
L 199.386407 264.82586 
L 200.041489 277.476673 
L 200.24479 260.376633 
L 200.66215 269.275086 
L 201.012818 260.323028 
L 201.462447 281.979505 
L 201.793395 282.086715 
L 202.063746 278.977617 
L 202.369236 272.813025 
L 202.462819 272.920236 
L 202.662176 281.229033 
L 203.451717 273.885128 
L 203.506217 262.520838 
L 203.68191 266.541224 
L 203.72171 281.979505 
L 203.812066 276.136544 
L 204.103213 262.360023 
L 204.198948 283.158818 
L 204.646785 254.855303 
L 204.670808 263.485731 
L 204.918929 269.811138 
L 204.987772 258.661268 
L 205.427361 280.317745 
L 205.470388 263.539336 
L 205.849023 275.493283 
L 206.930787 265.093885 
L 207.07421 273.081051 
L 207.121539 271.044056 
L 207.453921 279.406458 
L 207.474359 262.145602 
L 207.910721 272.545 
L 208.0104 272.384184 
L 208.270712 294.308687 
L 208.690581 267.559722 
L 210.019749 273.617103 
L 210.22807 251.638995 
L 210.279344 275.493283 
L 210.426352 263.110495 
L 210.903231 271.848133 
L 210.920442 293.290189 
L 210.921518 281.336243 
L 211.100437 252.764703 
L 211.155296 270.77603 
L 211.386206 285.678259 
L 211.707473 267.720537 
L 212.243156 274.850021 
L 212.412036 286.267916 
L 212.997558 271.526502 
L 213.096519 275.707703 
L 213.724351 277.959119 
L 214.323857 259.465345 
L 214.806474 262.574444 
L 215.040611 278.816801 
L 215.046348 273.349077 
L 215.575935 281.657874 
L 215.701071 279.084827 
L 215.733342 267.559722 
L 215.764536 267.934958 
L 216.539017 279.192037 
L 216.774947 271.044056 
L 217.091194 275.332467 
L 217.384493 283.373238 
L 217.692851 279.835299 
L 218.260087 283.748474 
L 218.978275 257.160324 
L 219.012696 283.962895 
L 219.102335 265.951567 
L 219.222452 280.800191 
L 219.233925 246.492901 
L 219.632999 268.631825 
L 219.641604 279.299248 
L 220.109161 260.215817 
L 220.136053 275.118047 
L 220.294893 261.931182 
L 220.442977 278.066329 
L 220.527238 250.674102 
L 220.665999 278.28075 
L 220.939577 272.223369 
L 221.041407 273.670708 
L 221.14754 244.777537 
L 221.739516 234.431745 
L 221.885448 256.195432 
L 222.114566 257.267535 
L 222.257988 270.56161 
L 222.512563 280.37135 
L 222.820563 267.881353 
L 223.065098 271.097661 
L 223.289913 267.238091 
L 223.804082 264.93307 
L 224.009894 267.345301 
L 224.400361 287.125598 
L 224.469921 285.78547 
L 224.551672 229.875308 
L 224.867202 276.565385 
L 225.104207 274.796416 
L 225.198866 271.901738 
L 225.319699 240.32831 
L 225.50328 274.045944 
L 225.955778 275.010836 
L 226.170912 284.284526 
L 226.850734 271.151266 
L 226.865435 264.343413 
L 227.227218 270.239979 
L 227.22937 262.145602 
L 227.581472 229.285651 
L 227.659278 277.744698 
L 227.777602 265.254701 
L 228.715226 283.051607 
L 228.795184 280.103325 
L 228.804148 272.813025 
L 229.241228 264.718649 
L 229.424451 253.67599 
L 229.621656 282.14032 
L 229.788744 254.748093 
L 230.26885 272.276974 
L 230.306857 272.276974 
L 230.33841 278.548776 
L 230.992058 276.672596 
L 231.145162 257.374745 
L 231.224403 288.358516 
L 233.674775 252.282257 
L 234.33165 282.461951 
L 234.440293 272.008948 
L 235.224455 273.992339 
L 235.343496 279.352853 
L 235.458951 278.066329 
L 235.514886 275.010836 
L 235.527077 277.583883 
L 235.544287 280.317745 
L 235.794201 256.731483 
L 235.868781 272.75942 
L 236.386894 283.266028 
L 236.508086 277.583883 
L 236.883853 278.870406 
L 237.344956 250.620497 
L 237.508458 268.79264 
L 237.687736 272.545 
L 238.407 267.559722 
L 238.414888 270.186374 
L 238.767707 269.275086 
L 238.873481 275.010836 
L 239.369365 281.443453 
L 239.417053 277.530278 
L 239.960624 267.827747 
L 240.120898 260.055002 
L 240.363999 283.105212 
L 240.367226 265.308306 
L 240.385154 276.833411 
L 241.069638 274.6356 
L 241.54831 283.748474 
L 241.640459 269.00706 
L 241.68994 270.615215 
L 241.988259 263.700152 
L 242.003318 277.208647 
L 242.315979 265.522726 
L 242.381954 275.386072 
L 242.686009 279.352853 
L 242.795369 251.746205 
L 242.887876 263.05689 
L 243.571643 271.955343 
L 244.64014 270.132768 
L 244.790375 271.365687 
L 245.03025 275.814913 
L 245.368368 267.720537 
L 245.834491 285.034998 
L 245.932377 272.705815 
L 245.984367 280.692981 
L 246.03349 240.649941 
L 246.266193 279.406458 
L 246.327506 275.654098 
L 246.562001 271.472897 
L 246.629051 242.043675 
L 246.643394 272.223369 
L 246.853866 266.970065 
L 247.262262 279.781694 
L 247.68249 279.835299 
L 247.835952 259.19732 
L 248.326098 280.853797 
L 248.512906 257.910796 
L 248.872537 241.668439 
L 248.882577 270.400794 
L 249.143606 271.097661 
L 249.15759 275.386072 
L 249.508258 275.171652 
L 249.829165 288.036885 
L 249.908406 267.774142 
L 250.035694 264.075388 
L 250.390306 274.689205 
L 250.849258 281.014612 
L 251.070487 255.016119 
L 251.306417 266.862855 
L 251.538403 259.894187 
L 251.690789 271.204871 
L 251.961499 253.622385 
L 252.117112 272.920236 
L 252.444833 267.345301 
L 253.351621 272.169764 
L 253.887663 279.888904 
L 253.989134 273.885128 
L 254.22363 279.996114 
L 254.469958 264.182598 
L 254.575015 270.66882 
L 254.662503 260.483843 
L 254.809152 258.607663 
L 255.148346 283.962895 
L 255.26918 283.266028 
L 255.573952 266.219593 
L 255.638493 278.441565 
L 255.95438 273.456287 
L 255.993822 256.409852 
L 256.522692 257.160324 
L 256.903479 275.439677 
L 256.987022 268.095773 
L 257.051921 272.062554 
L 257.866919 293.343794 
L 257.937913 271.044056 
L 258.366029 261.127105 
L 258.385033 254.801698 
L 258.387543 279.084827 
L 258.521643 251.6926 
L 258.526304 274.313969 
L 259.141945 269.543112 
L 259.409069 270.56161 
L 259.662568 268.631825 
L 259.783402 238.184105 
L 260.216896 275.707703 
L 260.853334 242.847752 
L 261.393678 265.04028 
L 261.940476 274.367575 
L 261.952667 272.330579 
L 262.265328 270.88324 
L 262.292219 278.49517 
L 262.401579 256.034616 
L 262.61241 266.862855 
L 262.92543 267.774142 
L 263.052 269.114271 
L 263.229485 257.21393 
L 263.404819 281.175427 
L 264.455389 268.953455 
L 264.727892 281.711479 
L 264.815021 263.27131 
L 265.322736 266.487619 
L 266.284025 260.001397 
L 267.379414 267.559722 
L 268.119833 266.005173 
L 268.135609 239.470628 
L 268.361141 263.860967 
L 269.062119 269.757532 
L 269.450076 260.912684 
L 269.818314 265.897962 
L 270.189061 244.295091 
L 270.378737 269.060666 
L 270.719724 252.443072 
L 271.057125 278.441565 
L 272.29773 275.761308 
L 272.485254 275.761308 
L 274.170468 277.851909 
L 274.597509 268.363799 
L 274.804396 285.731864 
L 275.751343 261.127105 
L 276.490685 251.58539 
L 276.587496 256.463458 
L 276.875058 276.887016 
L 276.988003 244.402301 
L 278.285976 248.101056 
L 278.535531 268.471009 
L 279.682911 245.152773 
L 279.903065 274.099549 
L 281.064787 281.014612 
L 281.458481 268.202983 
L 281.535571 231.215436 
L 282.209298 281.336243 
L 282.502597 264.182598 
L 282.606578 269.811138 
L 282.653908 269.703927 
L 283.667187 282.783582 
L 283.794833 272.330579 
L 283.987737 274.099549 
L 285.875535 265.415516 
L 286.75579 263.27131 
L 286.761169 271.044056 
L 287.321233 273.295472 
L 287.427724 251.156549 
L 287.585131 254.212042 
L 287.927193 286.160706 
L 288.187505 283.962895 
L 289.153455 258.286032 
L 289.43779 240.917967 
L 289.472212 276.833411 
L 290.763373 229.124836 
L 290.97994 261.019895 
L 291.623549 265.737147 
L 292.199031 276.136544 
L 293.450751 235.664663 
L 293.506327 266.91646 
L 294.4816 273.885128 
L 294.901828 262.091997 
L 295.147797 282.998002 
L 296.885002 286.321521 
L 297.117705 274.099549 
L 297.323516 277.744698 
L 297.932703 253.890411 
L 298.340382 282.783582 
L 299.166137 282.354741 
L 300.40208 235.986294 
L 301.285562 237.112002 
L 302.120639 249.548394 
L 302.23466 279.352853 
L 303.064359 268.471009 
L 303.896568 271.204871 
L 303.899795 261.019895 
L 304.074771 276.136544 
L 304.117439 256.677878 
L 304.713359 274.689205 
L 305.680744 273.509892 
L 305.996273 263.003285 
L 306.415067 273.885128 
L 306.728445 278.924012 
L 307.058675 275.010836 
L 308.070879 269.703927 
L 308.685803 255.65938 
L 308.904522 263.592941 
L 309.204634 262.413628 
L 310.069113 265.683542 
L 311.004586 258.929294 
L 311.40581 272.169764 
L 313.541729 278.763196 
L 313.603759 266.594829 
L 314.523815 290.127486 
L 315.258496 266.273198 
L 315.357816 247.72582 
L 316.593401 270.079163 
L 317.609549 272.276974 
L 317.973842 261.984787 
L 319.273608 257.374745 
L 319.878493 272.75942 
L 320.292266 263.1641 
L 320.459354 249.870025 
L 320.54971 264.772254 
L 322.473722 268.149378 
L 327.056429 253.354359 
L 327.658444 266.219593 
L 327.936325 250.781313 
L 328.148591 247.618609 
L 330.792943 193.155786 
L 332.20673 244.938352 
L 335.107808 252.175046 
L 337.777617 257.21393 
L 340.530253 272.973841 
L 343.625668 248.422686 
L 344.333816 257.53556 
L 354.93453 268.256589 
L 360.251201 182.809994 
L 361.734906 267.238091 
L 364.374238 268.79264 
L 366.932895 246.921743 
L 368.388633 260.483843 
L 370.207589 265.790752 
L 374.594165 272.813025 
L 379.379097 269.757532 
L 398.487273 272.866631 
L 398.487273 272.866631 
" style="fill:none;stroke:#0000ff;stroke-linecap:square;stroke-width:1.5;"/>
   </g>
   <g id="patch_3">
    <path d="M 57.6 307.584 
L 57.6 41.472 
" style="fill:none;stroke:#000000;stroke-linecap:square;stroke-linejoin:miter;stroke-width:0.8;"/>
   </g>
   <g id="patch_4">
    <path d="M 414.72 307.584 
L 414.72 41.472 
" style="fill:none;stroke:#000000;stroke-linecap:square;stroke-linejoin:miter;stroke-width:0.8;"/>
   </g>
   <g id="patch_5">
    <path d="M 57.6 307.584 
L 414.72 307.584 
" style="fill:none;stroke:#000000;stroke-linecap:square;stroke-linejoin:miter;stroke-width:0.8;"/>
   </g>
   <g id="patch_6">
    <path d="M 57.6 41.472 
L 414.72 41.472 
" style="fill:none;stroke:#000000;stroke-linecap:square;stroke-linejoin:miter;stroke-width:0.8;"/>
   </g>
   <g id="text_12">
    <!-- wind_speed-&gt;ping_night -->
    <g transform="translate(162.134062 35.472)scale(0.12 -0.12)">
     <defs>
      <path d="M 4.890625 31.390625 
L 31.203125 31.390625 
L 31.203125 23.390625 
L 4.890625 23.390625 
z
" id="DejaVuSans-45"/>
      <path d="M 10.59375 49.21875 
L 10.59375 58.109375 
L 73.1875 35.40625 
L 73.1875 27.296875 
L 10.59375 4.59375 
L 10.59375 13.484375 
L 60.890625 31.296875 
z
" id="DejaVuSans-62"/>
      <path d="M 45.40625 27.984375 
Q 45.40625 37.75 41.375 43.109375 
Q 37.359375 48.484375 30.078125 48.484375 
Q 22.859375 48.484375 18.828125 43.109375 
Q 14.796875 37.75 14.796875 27.984375 
Q 14.796875 18.265625 18.828125 12.890625 
Q 22.859375 7.515625 30.078125 7.515625 
Q 37.359375 7.515625 41.375 12.890625 
Q 45.40625 18.265625 45.40625 27.984375 
z
M 54.390625 6.78125 
Q 54.390625 -7.171875 48.1875 -13.984375 
Q 42 -20.796875 29.203125 -20.796875 
Q 24.46875 -20.796875 20.265625 -20.09375 
Q 16.0625 -19.390625 12.109375 -17.921875 
L 12.109375 -9.1875 
Q 16.0625 -11.328125 19.921875 -12.34375 
Q 23.78125 -13.375 27.78125 -13.375 
Q 36.625 -13.375 41.015625 -8.765625 
Q 45.40625 -4.15625 45.40625 5.171875 
L 45.40625 9.625 
Q 42.625 4.78125 38.28125 2.390625 
Q 33.9375 0 27.875 0 
Q 17.828125 0 11.671875 7.65625 
Q 5.515625 15.328125 5.515625 27.984375 
Q 5.515625 40.671875 11.671875 48.328125 
Q 17.828125 56 27.875 56 
Q 33.9375 56 38.28125 53.609375 
Q 42.625 51.21875 45.40625 46.390625 
L 45.40625 54.6875 
L 54.390625 54.6875 
z
" id="DejaVuSans-103"/>
     </defs>
     <use xlink:href="#DejaVuSans-119"/>
     <use x="81.787109" xlink:href="#DejaVuSans-105"/>
     <use x="109.570312" xlink:href="#DejaVuSans-110"/>
     <use x="172.949219" xlink:href="#DejaVuSans-100"/>
     <use x="236.425781" xlink:href="#DejaVuSans-95"/>
     <use x="286.425781" xlink:href="#DejaVuSans-115"/>
     <use x="338.525391" xlink:href="#DejaVuSans-112"/>
     <use x="402.001953" xlink:href="#DejaVuSans-101"/>
     <use x="463.525391" xlink:href="#DejaVuSans-101"/>
     <use x="525.048828" xlink:href="#DejaVuSans-100"/>
     <use x="588.525391" xlink:href="#DejaVuSans-45"/>
     <use x="624.609375" xlink:href="#DejaVuSans-62"/>
     <use x="708.398438" xlink:href="#DejaVuSans-112"/>
     <use x="771.875" xlink:href="#DejaVuSans-105"/>
     <use x="799.658203" xlink:href="#DejaVuSans-110"/>
     <use x="863.037109" xlink:href="#DejaVuSans-103"/>
     <use x="926.513672" xlink:href="#DejaVuSans-95"/>
     <use x="976.513672" xlink:href="#DejaVuSans-110"/>
     <use x="1039.892578" xlink:href="#DejaVuSans-105"/>
     <use x="1067.675781" xlink:href="#DejaVuSans-103"/>
     <use x="1131.152344" xlink:href="#DejaVuSans-104"/>
     <use x="1194.53125" xlink:href="#DejaVuSans-116"/>
    </g>
   </g>
  </g>
  <g id="legend_1">
   <g id="patch_7">
    <path d="M 415.451563 22.678125 
L 453.8 22.678125 
Q 455.8 22.678125 455.8 20.678125 
L 455.8 7 
Q 455.8 5 453.8 5 
L 415.451563 5 
Q 413.451563 5 413.451563 7 
L 413.451563 20.678125 
Q 413.451563 22.678125 415.451563 22.678125 
z
" style="fill:#ffffff;opacity:0.8;stroke:#cccccc;stroke-linejoin:miter;"/>
   </g>
   <g id="line2d_12">
    <path d="M 417.451563 13.098438 
L 437.451563 13.098438 
" style="fill:none;stroke:#0000ff;stroke-linecap:square;stroke-width:1.5;"/>
   </g>
   <g id="line2d_13"/>
   <g id="text_13">
    <!-- p -->
    <g transform="translate(445.451563 16.598438)scale(0.1 -0.1)">
     <use xlink:href="#DejaVuSans-112"/>
    </g>
   </g>
  </g>
 </g>
 <defs>
  <clipPath id="pd1dee77196">
   <rect height="266.112" width="357.12" x="57.6" y="41.472"/>
  </clipPath>
 </defs>
</svg>
