<?xml version="1.0" encoding="utf-8" standalone="no"?>
<!DOCTYPE svg PUBLIC "-//W3C//DTD SVG 1.1//EN"
  "http://www.w3.org/Graphics/SVG/1.1/DTD/svg11.dtd">
<!-- Created with matplotlib (https://matplotlib.org/) -->
<svg height="2090.31625pt" version="1.1" viewBox="0 0 2065.44375 2090.31625" width="2065.44375pt" xmlns="http://www.w3.org/2000/svg" xmlns:xlink="http://www.w3.org/1999/xlink">
 <metadata>
  <rdf:RDF xmlns:cc="http://creativecommons.org/ns#" xmlns:dc="http://purl.org/dc/elements/1.1/" xmlns:rdf="http://www.w3.org/1999/02/22-rdf-syntax-ns#">
   <cc:Work>
    <dc:type rdf:resource="http://purl.org/dc/dcmitype/StillImage"/>
    <dc:date>2022-07-23T21:29:21.341800</dc:date>
    <dc:format>image/svg+xml</dc:format>
    <dc:creator>
     <cc:Agent>
      <dc:title>Matplotlib v3.3.2, https://matplotlib.org/</dc:title>
     </cc:Agent>
    </dc:creator>
   </cc:Work>
  </rdf:RDF>
 </metadata>
 <defs>
  <style type="text/css">*{stroke-linecap:butt;stroke-linejoin:round;}</style>
 </defs>
 <g id="figure_1">
  <g id="patch_1">
   <path d="M 0 2090.31625 
L 2065.44375 2090.31625 
L 2065.44375 0 
L 0 0 
z
" style="fill:#ffffff;"/>
  </g>
  <g id="axes_1">
   <g id="patch_2">
    <path d="M 47.24375 2052.76 
L 1832.84375 2052.76 
L 1832.84375 278.68 
L 47.24375 278.68 
z
" style="fill:#ffffff;"/>
   </g>
   <g id="matplotlib.axis_1">
    <g id="xtick_1">
     <g id="line2d_1">
      <defs>
       <path d="M 0 0 
L 0 3.5 
" id="m6a9a3f8027" style="stroke:#000000;stroke-width:0.8;"/>
      </defs>
      <g>
       <use style="stroke:#000000;stroke-width:0.8;" x="128.407386" xlink:href="#m6a9a3f8027" y="2052.76"/>
      </g>
     </g>
     <g id="text_1">
      <text style="font-family:DejaVu Sans;font-size:10px;font-stretch:normal;font-style:normal;font-weight:normal;text-anchor:middle;" transform="rotate(-0, 128.407386, 2067.358438)" x="128.407386" y="2067.358438">0</text>
     </g>
    </g>
    <g id="xtick_2">
     <g id="line2d_2">
      <g>
       <use style="stroke:#000000;stroke-width:0.8;" x="372.876171" xlink:href="#m6a9a3f8027" y="2052.76"/>
      </g>
     </g>
     <g id="text_2">
      <text style="font-family:DejaVu Sans;font-size:10px;font-stretch:normal;font-style:normal;font-weight:normal;text-anchor:middle;" transform="rotate(-0, 372.876171, 2067.358438)" x="372.876171" y="2067.358438">1</text>
     </g>
    </g>
    <g id="xtick_3">
     <g id="line2d_3">
      <g>
       <use style="stroke:#000000;stroke-width:0.8;" x="617.344955" xlink:href="#m6a9a3f8027" y="2052.76"/>
      </g>
     </g>
     <g id="text_3">
      <text style="font-family:DejaVu Sans;font-size:10px;font-stretch:normal;font-style:normal;font-weight:normal;text-anchor:middle;" transform="rotate(-0, 617.344955, 2067.358438)" x="617.344955" y="2067.358438">2</text>
     </g>
    </g>
    <g id="xtick_4">
     <g id="line2d_4">
      <g>
       <use style="stroke:#000000;stroke-width:0.8;" x="861.813739" xlink:href="#m6a9a3f8027" y="2052.76"/>
      </g>
     </g>
     <g id="text_4">
      <text style="font-family:DejaVu Sans;font-size:10px;font-stretch:normal;font-style:normal;font-weight:normal;text-anchor:middle;" transform="rotate(-0, 861.813739, 2067.358438)" x="861.813739" y="2067.358438">3</text>
     </g>
    </g>
    <g id="xtick_5">
     <g id="line2d_5">
      <g>
       <use style="stroke:#000000;stroke-width:0.8;" x="1106.282523" xlink:href="#m6a9a3f8027" y="2052.76"/>
      </g>
     </g>
     <g id="text_5">
      <text style="font-family:DejaVu Sans;font-size:10px;font-stretch:normal;font-style:normal;font-weight:normal;text-anchor:middle;" transform="rotate(-0, 1106.282523, 2067.358438)" x="1106.282523" y="2067.358438">4</text>
     </g>
    </g>
    <g id="xtick_6">
     <g id="line2d_6">
      <g>
       <use style="stroke:#000000;stroke-width:0.8;" x="1350.751308" xlink:href="#m6a9a3f8027" y="2052.76"/>
      </g>
     </g>
     <g id="text_6">
      <text style="font-family:DejaVu Sans;font-size:10px;font-stretch:normal;font-style:normal;font-weight:normal;text-anchor:middle;" transform="rotate(-0, 1350.751308, 2067.358438)" x="1350.751308" y="2067.358438">5</text>
     </g>
    </g>
    <g id="xtick_7">
     <g id="line2d_7">
      <g>
       <use style="stroke:#000000;stroke-width:0.8;" x="1595.220092" xlink:href="#m6a9a3f8027" y="2052.76"/>
      </g>
     </g>
     <g id="text_7">
      <text style="font-family:DejaVu Sans;font-size:10px;font-stretch:normal;font-style:normal;font-weight:normal;text-anchor:middle;" transform="rotate(-0, 1595.220092, 2067.358438)" x="1595.220092" y="2067.358438">6</text>
     </g>
    </g>
    <g id="text_8">
     <text style="font-family:DejaVu Sans;font-size:10px;font-stretch:normal;font-style:normal;font-weight:normal;text-anchor:middle;" transform="rotate(-0, 940.04375, 2081.036562)" x="940.04375" y="2081.036562">rain from Foreca</text>
    </g>
   </g>
   <g id="matplotlib.axis_2">
    <g id="ytick_1">
     <g id="line2d_8">
      <defs>
       <path d="M 0 0 
L -3.5 0 
" id="mef8505a56c" style="stroke:#000000;stroke-width:0.8;"/>
      </defs>
      <g>
       <use style="stroke:#000000;stroke-width:0.8;" x="47.24375" xlink:href="#mef8505a56c" y="1977.952911"/>
      </g>
     </g>
     <g id="text_9">
      <text style="font-family:DejaVu Sans;font-size:10px;font-stretch:normal;font-style:normal;font-weight:normal;text-anchor:end;" transform="rotate(-0, 40.24375, 1981.75213)" x="40.24375" y="1981.75213">0</text>
     </g>
    </g>
    <g id="ytick_2">
     <g id="line2d_9">
      <g>
       <use style="stroke:#000000;stroke-width:0.8;" x="47.24375" xlink:href="#mef8505a56c" y="1686.307342"/>
      </g>
     </g>
     <g id="text_10">
      <text style="font-family:DejaVu Sans;font-size:10px;font-stretch:normal;font-style:normal;font-weight:normal;text-anchor:end;" transform="rotate(-0, 40.24375, 1690.106561)" x="40.24375" y="1690.106561">100</text>
     </g>
    </g>
    <g id="ytick_3">
     <g id="line2d_10">
      <g>
       <use style="stroke:#000000;stroke-width:0.8;" x="47.24375" xlink:href="#mef8505a56c" y="1394.661772"/>
      </g>
     </g>
     <g id="text_11">
      <text style="font-family:DejaVu Sans;font-size:10px;font-stretch:normal;font-style:normal;font-weight:normal;text-anchor:end;" transform="rotate(-0, 40.24375, 1398.460991)" x="40.24375" y="1398.460991">200</text>
     </g>
    </g>
    <g id="ytick_4">
     <g id="line2d_11">
      <g>
       <use style="stroke:#000000;stroke-width:0.8;" x="47.24375" xlink:href="#mef8505a56c" y="1103.016203"/>
      </g>
     </g>
     <g id="text_12">
      <text style="font-family:DejaVu Sans;font-size:10px;font-stretch:normal;font-style:normal;font-weight:normal;text-anchor:end;" transform="rotate(-0, 40.24375, 1106.815421)" x="40.24375" y="1106.815421">300</text>
     </g>
    </g>
    <g id="ytick_5">
     <g id="line2d_12">
      <g>
       <use style="stroke:#000000;stroke-width:0.8;" x="47.24375" xlink:href="#mef8505a56c" y="811.370633"/>
      </g>
     </g>
     <g id="text_13">
      <text style="font-family:DejaVu Sans;font-size:10px;font-stretch:normal;font-style:normal;font-weight:normal;text-anchor:end;" transform="rotate(-0, 40.24375, 815.169852)" x="40.24375" y="815.169852">400</text>
     </g>
    </g>
    <g id="ytick_6">
     <g id="line2d_13">
      <g>
       <use style="stroke:#000000;stroke-width:0.8;" x="47.24375" xlink:href="#mef8505a56c" y="519.725063"/>
      </g>
     </g>
     <g id="text_14">
      <text style="font-family:DejaVu Sans;font-size:10px;font-stretch:normal;font-style:normal;font-weight:normal;text-anchor:end;" transform="rotate(-0, 40.24375, 523.524282)" x="40.24375" y="523.524282">500</text>
     </g>
    </g>
    <g id="text_15">
     <text style="font-family:DejaVu Sans;font-size:10px;font-stretch:normal;font-style:normal;font-weight:normal;text-anchor:middle;" transform="rotate(-90, 14.798438, 1165.72)" x="14.798438" y="1165.72">Retransmission_day[dimensionless]</text>
    </g>
   </g>
   <g id="line2d_14">
    <path clip-path="url(#p90f77d7bd4)" d="M 128.407386 1082.012292 
L 130.852074 1145.862897 
L 133.296762 1179.654177 
L 135.74145 1068.716147 
L 138.186138 1234.357276 
L 140.630826 1184.440493 
L 143.075513 1251.405468 
L 145.520201 1251.442966 
L 147.964889 1238.339747 
L 150.409577 988.059241 
L 152.854265 1126.023797 
L 155.298953 1056.630669 
L 157.74364 1120.249804 
L 160.188328 1363.066835 
L 162.633016 1096.918159 
L 165.077704 1277.128608 
L 167.522392 1081.726076 
L 169.96708 952.656709 
L 172.411768 1016.355805 
L 174.856455 731.168101 
L 177.301143 1392.109873 
L 179.745831 1163.428499 
L 184.635207 1021.355443 
L 187.079895 1184.676962 
L 189.524582 771.512405 
L 191.96927 1205.092152 
L 194.413958 795.816203 
L 196.858646 1442.783291 
L 199.303334 1149.679494 
L 201.748022 1227.173888 
L 204.192709 1668.808608 
L 206.637397 966.671899 
L 209.082085 1066.07443 
L 211.526773 1183.218734 
L 213.971461 992.92 
L 216.416149 951.360506 
L 218.860837 1099.613671 
L 221.305524 1304.251646 
L 223.750212 1052.464304 
L 226.1949 1180.302278 
L 231.084276 1185.649114 
L 233.528964 1105.932658 
L 235.973651 901.294684 
L 238.418339 904.697215 
L 240.863027 1008.231392 
L 243.307715 1159.887089 
L 245.752403 1715.471899 
L 248.197091 1382.509873 
L 250.641778 1412.160506 
L 253.086466 1111.76557 
L 255.531154 1291.75255 
L 257.975842 1244.95038 
L 260.42053 1088.433924 
L 262.865218 1574.023797 
L 265.309906 936.778228 
L 267.754593 1209.17519 
L 270.199281 1845.879132 
L 272.643969 1268.768101 
L 275.088657 1245.922532 
L 277.533345 1240.08962 
L 282.42272 1578.398481 
L 284.867408 1210.195949 
L 287.312096 1109.821266 
L 292.201472 894.975696 
L 294.64616 1207.175335 
L 301.980223 1391.745316 
L 304.424911 1200.092514 
L 309.314287 1063.644051 
L 311.758975 732.626329 
L 314.203662 1342.16557 
L 316.64835 1263.421266 
L 319.093038 1963.370633 
L 323.982414 1477.780759 
L 326.427102 1164.261772 
L 328.871789 977.608608 
L 336.205853 1132.180759 
L 338.650541 1194.884557 
L 341.095229 1211.3417 
L 343.539916 1231.340253 
L 348.429292 1765.051646 
L 350.87398 648.049114 
L 353.318668 1167.178228 
L 358.208044 1861.294684 
L 360.652731 1365.497215 
L 365.542107 1953.163038 
L 372.876171 359.32 
L 377.765546 1041.770633 
L 380.210234 1697.973165 
L 385.09961 1055.380759 
L 387.544298 981.497215 
L 394.878361 1273.142785 
L 399.767737 972.747848 
L 402.212425 1922.540253 
L 409.546488 1108.849114 
L 411.991176 974.692152 
L 419.32524 922.195949 
L 433.993367 1083.573165 
L 453.550869 916.363038 
L 460.884933 1960.454177 
L 490.221187 833.244051 
L 495.110563 1286.752911 
L 499.999938 1716.444051 
L 502.444626 1509.861772 
L 507.334002 1222.590886 
L 514.668065 1266.337722 
L 534.225568 1228.423797 
L 541.559632 929.487089 
L 556.227759 995.107342 
L 636.902458 780.747848 
L 651.570585 1107.390886 
L 734.689971 1972.12 
L 861.813739 1018.438987 
L 1008.49501 1266.337722 
L 1067.167518 990.732658 
L 1631.890409 720.960506 
L 1658.781976 675.755443 
L 1751.680114 592.636456 
" style="fill:none;stroke:#0000ff;stroke-linecap:square;stroke-width:1.5;"/>
   </g>
   <g id="patch_3">
    <path d="M 47.24375 2052.76 
L 47.24375 278.68 
" style="fill:none;stroke:#000000;stroke-linecap:square;stroke-linejoin:miter;stroke-width:0.8;"/>
   </g>
   <g id="patch_4">
    <path d="M 1832.84375 2052.76 
L 1832.84375 278.68 
" style="fill:none;stroke:#000000;stroke-linecap:square;stroke-linejoin:miter;stroke-width:0.8;"/>
   </g>
   <g id="patch_5">
    <path d="M 47.24375 2052.76 
L 1832.84375 2052.76 
" style="fill:none;stroke:#000000;stroke-linecap:square;stroke-linejoin:miter;stroke-width:0.8;"/>
   </g>
   <g id="patch_6">
    <path d="M 47.24375 278.68 
L 1832.84375 278.68 
" style="fill:none;stroke:#000000;stroke-linecap:square;stroke-linejoin:miter;stroke-width:0.8;"/>
   </g>
   <g id="text_16">
    <text style="font-family:DejaVu Sans;font-size:12px;font-stretch:normal;font-style:normal;font-weight:normal;text-anchor:middle;" transform="rotate(-0, 940.04375, 272.68)" x="940.04375" y="272.68">rain-&gt;Retransmission_day</text>
   </g>
  </g>
  <g id="legend_1">
   <g id="patch_7">
    <path d="M 1847.564062 22.95625 
L 2058.44375 22.95625 
Q 2060.44375 22.95625 2060.44375 20.95625 
L 2060.44375 7 
Q 2060.44375 5 2058.44375 5 
L 1847.564062 5 
Q 1845.564062 5 1845.564062 7 
L 1845.564062 20.95625 
Q 1845.564062 22.95625 1847.564062 22.95625 
z
" style="fill:#ffffff;opacity:0.8;stroke:#cccccc;stroke-linejoin:miter;"/>
   </g>
   <g id="line2d_15">
    <path d="M 1849.564062 13.098438 
L 1869.564062 13.098438 
" style="fill:none;stroke:#0000ff;stroke-linecap:square;stroke-width:1.5;"/>
   </g>
   <g id="line2d_16"/>
   <g id="text_17">
    <text style="font-family:DejaVu Sans;font-size:10px;font-stretch:normal;font-style:normal;font-weight:normal;text-anchor:start;" transform="rotate(-0, 1877.564062, 16.598438)" x="1877.564062" y="16.598438">Retransmission_day[dimensionless]</text>
   </g>
  </g>
 </g>
 <defs>
  <clipPath id="p90f77d7bd4">
   <rect height="1774.08" width="1785.6" x="47.24375" y="278.68"/>
  </clipPath>
 </defs>
</svg>
