<?xml version="1.0" encoding="utf-8" standalone="no"?>
<!DOCTYPE svg PUBLIC "-//W3C//DTD SVG 1.1//EN"
  "http://www.w3.org/Graphics/SVG/1.1/DTD/svg11.dtd">
<!-- Created with matplotlib (https://matplotlib.org/) -->
<svg height="345.6pt" version="1.1" viewBox="0 0 460.8 345.6" width="460.8pt" xmlns="http://www.w3.org/2000/svg" xmlns:xlink="http://www.w3.org/1999/xlink">
 <metadata>
  <rdf:RDF xmlns:cc="http://creativecommons.org/ns#" xmlns:dc="http://purl.org/dc/elements/1.1/" xmlns:rdf="http://www.w3.org/1999/02/22-rdf-syntax-ns#">
   <cc:Work>
    <dc:type rdf:resource="http://purl.org/dc/dcmitype/StillImage"/>
    <dc:date>2022-07-16T18:03:19.389660</dc:date>
    <dc:format>image/svg+xml</dc:format>
    <dc:creator>
     <cc:Agent>
      <dc:title>Matplotlib v3.3.2, https://matplotlib.org/</dc:title>
     </cc:Agent>
    </dc:creator>
   </cc:Work>
  </rdf:RDF>
 </metadata>
 <defs>
  <style type="text/css">*{stroke-linecap:butt;stroke-linejoin:round;}</style>
 </defs>
 <g id="figure_1">
  <g id="patch_1">
   <path d="M 0 345.6 
L 460.8 345.6 
L 460.8 0 
L 0 0 
z
" style="fill:#ffffff;"/>
  </g>
  <g id="axes_1">
   <g id="patch_2">
    <path d="M 57.6 307.584 
L 414.72 307.584 
L 414.72 41.472 
L 57.6 41.472 
z
" style="fill:#ffffff;"/>
   </g>
   <g id="matplotlib.axis_1">
    <g id="xtick_1">
     <g id="line2d_1">
      <defs>
       <path d="M 0 0 
L 0 3.5 
" id="m1fc9ce6376" style="stroke:#000000;stroke-width:0.8;"/>
      </defs>
      <g>
       <use style="stroke:#000000;stroke-width:0.8;" x="63.435733" xlink:href="#m1fc9ce6376" y="307.584"/>
      </g>
     </g>
     <g id="text_1">
      <!-- 0 -->
      <g transform="translate(60.254483 322.182437)scale(0.1 -0.1)">
       <defs>
        <path d="M 31.78125 66.40625 
Q 24.171875 66.40625 20.328125 58.90625 
Q 16.5 51.421875 16.5 36.375 
Q 16.5 21.390625 20.328125 13.890625 
Q 24.171875 6.390625 31.78125 6.390625 
Q 39.453125 6.390625 43.28125 13.890625 
Q 47.125 21.390625 47.125 36.375 
Q 47.125 51.421875 43.28125 58.90625 
Q 39.453125 66.40625 31.78125 66.40625 
z
M 31.78125 74.21875 
Q 44.046875 74.21875 50.515625 64.515625 
Q 56.984375 54.828125 56.984375 36.375 
Q 56.984375 17.96875 50.515625 8.265625 
Q 44.046875 -1.421875 31.78125 -1.421875 
Q 19.53125 -1.421875 13.0625 8.265625 
Q 6.59375 17.96875 6.59375 36.375 
Q 6.59375 54.828125 13.0625 64.515625 
Q 19.53125 74.21875 31.78125 74.21875 
z
" id="DejaVuSans-48"/>
       </defs>
       <use xlink:href="#DejaVuSans-48"/>
      </g>
     </g>
    </g>
    <g id="xtick_2">
     <g id="line2d_2">
      <g>
       <use style="stroke:#000000;stroke-width:0.8;" x="130.513118" xlink:href="#m1fc9ce6376" y="307.584"/>
      </g>
     </g>
     <g id="text_2">
      <!-- 2 -->
      <g transform="translate(127.331868 322.182437)scale(0.1 -0.1)">
       <defs>
        <path d="M 19.1875 8.296875 
L 53.609375 8.296875 
L 53.609375 0 
L 7.328125 0 
L 7.328125 8.296875 
Q 12.9375 14.109375 22.625 23.890625 
Q 32.328125 33.6875 34.8125 36.53125 
Q 39.546875 41.84375 41.421875 45.53125 
Q 43.3125 49.21875 43.3125 52.78125 
Q 43.3125 58.59375 39.234375 62.25 
Q 35.15625 65.921875 28.609375 65.921875 
Q 23.96875 65.921875 18.8125 64.3125 
Q 13.671875 62.703125 7.8125 59.421875 
L 7.8125 69.390625 
Q 13.765625 71.78125 18.9375 73 
Q 24.125 74.21875 28.421875 74.21875 
Q 39.75 74.21875 46.484375 68.546875 
Q 53.21875 62.890625 53.21875 53.421875 
Q 53.21875 48.921875 51.53125 44.890625 
Q 49.859375 40.875 45.40625 35.40625 
Q 44.1875 33.984375 37.640625 27.21875 
Q 31.109375 20.453125 19.1875 8.296875 
z
" id="DejaVuSans-50"/>
       </defs>
       <use xlink:href="#DejaVuSans-50"/>
      </g>
     </g>
    </g>
    <g id="xtick_3">
     <g id="line2d_3">
      <g>
       <use style="stroke:#000000;stroke-width:0.8;" x="197.590503" xlink:href="#m1fc9ce6376" y="307.584"/>
      </g>
     </g>
     <g id="text_3">
      <!-- 4 -->
      <g transform="translate(194.409253 322.182437)scale(0.1 -0.1)">
       <defs>
        <path d="M 37.796875 64.3125 
L 12.890625 25.390625 
L 37.796875 25.390625 
z
M 35.203125 72.90625 
L 47.609375 72.90625 
L 47.609375 25.390625 
L 58.015625 25.390625 
L 58.015625 17.1875 
L 47.609375 17.1875 
L 47.609375 0 
L 37.796875 0 
L 37.796875 17.1875 
L 4.890625 17.1875 
L 4.890625 26.703125 
z
" id="DejaVuSans-52"/>
       </defs>
       <use xlink:href="#DejaVuSans-52"/>
      </g>
     </g>
    </g>
    <g id="xtick_4">
     <g id="line2d_4">
      <g>
       <use style="stroke:#000000;stroke-width:0.8;" x="264.667889" xlink:href="#m1fc9ce6376" y="307.584"/>
      </g>
     </g>
     <g id="text_4">
      <!-- 6 -->
      <g transform="translate(261.486639 322.182437)scale(0.1 -0.1)">
       <defs>
        <path d="M 33.015625 40.375 
Q 26.375 40.375 22.484375 35.828125 
Q 18.609375 31.296875 18.609375 23.390625 
Q 18.609375 15.53125 22.484375 10.953125 
Q 26.375 6.390625 33.015625 6.390625 
Q 39.65625 6.390625 43.53125 10.953125 
Q 47.40625 15.53125 47.40625 23.390625 
Q 47.40625 31.296875 43.53125 35.828125 
Q 39.65625 40.375 33.015625 40.375 
z
M 52.59375 71.296875 
L 52.59375 62.3125 
Q 48.875 64.0625 45.09375 64.984375 
Q 41.3125 65.921875 37.59375 65.921875 
Q 27.828125 65.921875 22.671875 59.328125 
Q 17.53125 52.734375 16.796875 39.40625 
Q 19.671875 43.65625 24.015625 45.921875 
Q 28.375 48.1875 33.59375 48.1875 
Q 44.578125 48.1875 50.953125 41.515625 
Q 57.328125 34.859375 57.328125 23.390625 
Q 57.328125 12.15625 50.6875 5.359375 
Q 44.046875 -1.421875 33.015625 -1.421875 
Q 20.359375 -1.421875 13.671875 8.265625 
Q 6.984375 17.96875 6.984375 36.375 
Q 6.984375 53.65625 15.1875 63.9375 
Q 23.390625 74.21875 37.203125 74.21875 
Q 40.921875 74.21875 44.703125 73.484375 
Q 48.484375 72.75 52.59375 71.296875 
z
" id="DejaVuSans-54"/>
       </defs>
       <use xlink:href="#DejaVuSans-54"/>
      </g>
     </g>
    </g>
    <g id="xtick_5">
     <g id="line2d_5">
      <g>
       <use style="stroke:#000000;stroke-width:0.8;" x="331.745274" xlink:href="#m1fc9ce6376" y="307.584"/>
      </g>
     </g>
     <g id="text_5">
      <!-- 8 -->
      <g transform="translate(328.564024 322.182437)scale(0.1 -0.1)">
       <defs>
        <path d="M 31.78125 34.625 
Q 24.75 34.625 20.71875 30.859375 
Q 16.703125 27.09375 16.703125 20.515625 
Q 16.703125 13.921875 20.71875 10.15625 
Q 24.75 6.390625 31.78125 6.390625 
Q 38.8125 6.390625 42.859375 10.171875 
Q 46.921875 13.96875 46.921875 20.515625 
Q 46.921875 27.09375 42.890625 30.859375 
Q 38.875 34.625 31.78125 34.625 
z
M 21.921875 38.8125 
Q 15.578125 40.375 12.03125 44.71875 
Q 8.5 49.078125 8.5 55.328125 
Q 8.5 64.0625 14.71875 69.140625 
Q 20.953125 74.21875 31.78125 74.21875 
Q 42.671875 74.21875 48.875 69.140625 
Q 55.078125 64.0625 55.078125 55.328125 
Q 55.078125 49.078125 51.53125 44.71875 
Q 48 40.375 41.703125 38.8125 
Q 48.828125 37.15625 52.796875 32.3125 
Q 56.78125 27.484375 56.78125 20.515625 
Q 56.78125 9.90625 50.3125 4.234375 
Q 43.84375 -1.421875 31.78125 -1.421875 
Q 19.734375 -1.421875 13.25 4.234375 
Q 6.78125 9.90625 6.78125 20.515625 
Q 6.78125 27.484375 10.78125 32.3125 
Q 14.796875 37.15625 21.921875 38.8125 
z
M 18.3125 54.390625 
Q 18.3125 48.734375 21.84375 45.5625 
Q 25.390625 42.390625 31.78125 42.390625 
Q 38.140625 42.390625 41.71875 45.5625 
Q 45.3125 48.734375 45.3125 54.390625 
Q 45.3125 60.0625 41.71875 63.234375 
Q 38.140625 66.40625 31.78125 66.40625 
Q 25.390625 66.40625 21.84375 63.234375 
Q 18.3125 60.0625 18.3125 54.390625 
z
" id="DejaVuSans-56"/>
       </defs>
       <use xlink:href="#DejaVuSans-56"/>
      </g>
     </g>
    </g>
    <g id="xtick_6">
     <g id="line2d_6">
      <g>
       <use style="stroke:#000000;stroke-width:0.8;" x="398.82266" xlink:href="#m1fc9ce6376" y="307.584"/>
      </g>
     </g>
     <g id="text_6">
      <!-- 10 -->
      <g transform="translate(392.46016 322.182437)scale(0.1 -0.1)">
       <defs>
        <path d="M 12.40625 8.296875 
L 28.515625 8.296875 
L 28.515625 63.921875 
L 10.984375 60.40625 
L 10.984375 69.390625 
L 28.421875 72.90625 
L 38.28125 72.90625 
L 38.28125 8.296875 
L 54.390625 8.296875 
L 54.390625 0 
L 12.40625 0 
z
" id="DejaVuSans-49"/>
       </defs>
       <use xlink:href="#DejaVuSans-49"/>
       <use x="63.623047" xlink:href="#DejaVuSans-48"/>
      </g>
     </g>
    </g>
    <g id="text_7">
     <!-- wind_speed from OpenWeatherMap -->
     <g transform="translate(146.962344 335.860562)scale(0.1 -0.1)">
      <defs>
       <path d="M 4.203125 54.6875 
L 13.1875 54.6875 
L 24.421875 12.015625 
L 35.59375 54.6875 
L 46.1875 54.6875 
L 57.421875 12.015625 
L 68.609375 54.6875 
L 77.59375 54.6875 
L 63.28125 0 
L 52.6875 0 
L 40.921875 44.828125 
L 29.109375 0 
L 18.5 0 
z
" id="DejaVuSans-119"/>
       <path d="M 9.421875 54.6875 
L 18.40625 54.6875 
L 18.40625 0 
L 9.421875 0 
z
M 9.421875 75.984375 
L 18.40625 75.984375 
L 18.40625 64.59375 
L 9.421875 64.59375 
z
" id="DejaVuSans-105"/>
       <path d="M 54.890625 33.015625 
L 54.890625 0 
L 45.90625 0 
L 45.90625 32.71875 
Q 45.90625 40.484375 42.875 44.328125 
Q 39.84375 48.1875 33.796875 48.1875 
Q 26.515625 48.1875 22.3125 43.546875 
Q 18.109375 38.921875 18.109375 30.90625 
L 18.109375 0 
L 9.078125 0 
L 9.078125 54.6875 
L 18.109375 54.6875 
L 18.109375 46.1875 
Q 21.34375 51.125 25.703125 53.5625 
Q 30.078125 56 35.796875 56 
Q 45.21875 56 50.046875 50.171875 
Q 54.890625 44.34375 54.890625 33.015625 
z
" id="DejaVuSans-110"/>
       <path d="M 45.40625 46.390625 
L 45.40625 75.984375 
L 54.390625 75.984375 
L 54.390625 0 
L 45.40625 0 
L 45.40625 8.203125 
Q 42.578125 3.328125 38.25 0.953125 
Q 33.9375 -1.421875 27.875 -1.421875 
Q 17.96875 -1.421875 11.734375 6.484375 
Q 5.515625 14.40625 5.515625 27.296875 
Q 5.515625 40.1875 11.734375 48.09375 
Q 17.96875 56 27.875 56 
Q 33.9375 56 38.25 53.625 
Q 42.578125 51.265625 45.40625 46.390625 
z
M 14.796875 27.296875 
Q 14.796875 17.390625 18.875 11.75 
Q 22.953125 6.109375 30.078125 6.109375 
Q 37.203125 6.109375 41.296875 11.75 
Q 45.40625 17.390625 45.40625 27.296875 
Q 45.40625 37.203125 41.296875 42.84375 
Q 37.203125 48.484375 30.078125 48.484375 
Q 22.953125 48.484375 18.875 42.84375 
Q 14.796875 37.203125 14.796875 27.296875 
z
" id="DejaVuSans-100"/>
       <path d="M 50.984375 -16.609375 
L 50.984375 -23.578125 
L -0.984375 -23.578125 
L -0.984375 -16.609375 
z
" id="DejaVuSans-95"/>
       <path d="M 44.28125 53.078125 
L 44.28125 44.578125 
Q 40.484375 46.53125 36.375 47.5 
Q 32.28125 48.484375 27.875 48.484375 
Q 21.1875 48.484375 17.84375 46.4375 
Q 14.5 44.390625 14.5 40.28125 
Q 14.5 37.15625 16.890625 35.375 
Q 19.28125 33.59375 26.515625 31.984375 
L 29.59375 31.296875 
Q 39.15625 29.25 43.1875 25.515625 
Q 47.21875 21.78125 47.21875 15.09375 
Q 47.21875 7.46875 41.1875 3.015625 
Q 35.15625 -1.421875 24.609375 -1.421875 
Q 20.21875 -1.421875 15.453125 -0.5625 
Q 10.6875 0.296875 5.421875 2 
L 5.421875 11.28125 
Q 10.40625 8.6875 15.234375 7.390625 
Q 20.0625 6.109375 24.8125 6.109375 
Q 31.15625 6.109375 34.5625 8.28125 
Q 37.984375 10.453125 37.984375 14.40625 
Q 37.984375 18.0625 35.515625 20.015625 
Q 33.0625 21.96875 24.703125 23.78125 
L 21.578125 24.515625 
Q 13.234375 26.265625 9.515625 29.90625 
Q 5.8125 33.546875 5.8125 39.890625 
Q 5.8125 47.609375 11.28125 51.796875 
Q 16.75 56 26.8125 56 
Q 31.78125 56 36.171875 55.265625 
Q 40.578125 54.546875 44.28125 53.078125 
z
" id="DejaVuSans-115"/>
       <path d="M 18.109375 8.203125 
L 18.109375 -20.796875 
L 9.078125 -20.796875 
L 9.078125 54.6875 
L 18.109375 54.6875 
L 18.109375 46.390625 
Q 20.953125 51.265625 25.265625 53.625 
Q 29.59375 56 35.59375 56 
Q 45.5625 56 51.78125 48.09375 
Q 58.015625 40.1875 58.015625 27.296875 
Q 58.015625 14.40625 51.78125 6.484375 
Q 45.5625 -1.421875 35.59375 -1.421875 
Q 29.59375 -1.421875 25.265625 0.953125 
Q 20.953125 3.328125 18.109375 8.203125 
z
M 48.6875 27.296875 
Q 48.6875 37.203125 44.609375 42.84375 
Q 40.53125 48.484375 33.40625 48.484375 
Q 26.265625 48.484375 22.1875 42.84375 
Q 18.109375 37.203125 18.109375 27.296875 
Q 18.109375 17.390625 22.1875 11.75 
Q 26.265625 6.109375 33.40625 6.109375 
Q 40.53125 6.109375 44.609375 11.75 
Q 48.6875 17.390625 48.6875 27.296875 
z
" id="DejaVuSans-112"/>
       <path d="M 56.203125 29.59375 
L 56.203125 25.203125 
L 14.890625 25.203125 
Q 15.484375 15.921875 20.484375 11.0625 
Q 25.484375 6.203125 34.421875 6.203125 
Q 39.59375 6.203125 44.453125 7.46875 
Q 49.3125 8.734375 54.109375 11.28125 
L 54.109375 2.78125 
Q 49.265625 0.734375 44.1875 -0.34375 
Q 39.109375 -1.421875 33.890625 -1.421875 
Q 20.796875 -1.421875 13.15625 6.1875 
Q 5.515625 13.8125 5.515625 26.8125 
Q 5.515625 40.234375 12.765625 48.109375 
Q 20.015625 56 32.328125 56 
Q 43.359375 56 49.78125 48.890625 
Q 56.203125 41.796875 56.203125 29.59375 
z
M 47.21875 32.234375 
Q 47.125 39.59375 43.09375 43.984375 
Q 39.0625 48.390625 32.421875 48.390625 
Q 24.90625 48.390625 20.390625 44.140625 
Q 15.875 39.890625 15.1875 32.171875 
z
" id="DejaVuSans-101"/>
       <path id="DejaVuSans-32"/>
       <path d="M 37.109375 75.984375 
L 37.109375 68.5 
L 28.515625 68.5 
Q 23.6875 68.5 21.796875 66.546875 
Q 19.921875 64.59375 19.921875 59.515625 
L 19.921875 54.6875 
L 34.71875 54.6875 
L 34.71875 47.703125 
L 19.921875 47.703125 
L 19.921875 0 
L 10.890625 0 
L 10.890625 47.703125 
L 2.296875 47.703125 
L 2.296875 54.6875 
L 10.890625 54.6875 
L 10.890625 58.5 
Q 10.890625 67.625 15.140625 71.796875 
Q 19.390625 75.984375 28.609375 75.984375 
z
" id="DejaVuSans-102"/>
       <path d="M 41.109375 46.296875 
Q 39.59375 47.171875 37.8125 47.578125 
Q 36.03125 48 33.890625 48 
Q 26.265625 48 22.1875 43.046875 
Q 18.109375 38.09375 18.109375 28.8125 
L 18.109375 0 
L 9.078125 0 
L 9.078125 54.6875 
L 18.109375 54.6875 
L 18.109375 46.1875 
Q 20.953125 51.171875 25.484375 53.578125 
Q 30.03125 56 36.53125 56 
Q 37.453125 56 38.578125 55.875 
Q 39.703125 55.765625 41.0625 55.515625 
z
" id="DejaVuSans-114"/>
       <path d="M 30.609375 48.390625 
Q 23.390625 48.390625 19.1875 42.75 
Q 14.984375 37.109375 14.984375 27.296875 
Q 14.984375 17.484375 19.15625 11.84375 
Q 23.34375 6.203125 30.609375 6.203125 
Q 37.796875 6.203125 41.984375 11.859375 
Q 46.1875 17.53125 46.1875 27.296875 
Q 46.1875 37.015625 41.984375 42.703125 
Q 37.796875 48.390625 30.609375 48.390625 
z
M 30.609375 56 
Q 42.328125 56 49.015625 48.375 
Q 55.71875 40.765625 55.71875 27.296875 
Q 55.71875 13.875 49.015625 6.21875 
Q 42.328125 -1.421875 30.609375 -1.421875 
Q 18.84375 -1.421875 12.171875 6.21875 
Q 5.515625 13.875 5.515625 27.296875 
Q 5.515625 40.765625 12.171875 48.375 
Q 18.84375 56 30.609375 56 
z
" id="DejaVuSans-111"/>
       <path d="M 52 44.1875 
Q 55.375 50.25 60.0625 53.125 
Q 64.75 56 71.09375 56 
Q 79.640625 56 84.28125 50.015625 
Q 88.921875 44.046875 88.921875 33.015625 
L 88.921875 0 
L 79.890625 0 
L 79.890625 32.71875 
Q 79.890625 40.578125 77.09375 44.375 
Q 74.3125 48.1875 68.609375 48.1875 
Q 61.625 48.1875 57.5625 43.546875 
Q 53.515625 38.921875 53.515625 30.90625 
L 53.515625 0 
L 44.484375 0 
L 44.484375 32.71875 
Q 44.484375 40.625 41.703125 44.40625 
Q 38.921875 48.1875 33.109375 48.1875 
Q 26.21875 48.1875 22.15625 43.53125 
Q 18.109375 38.875 18.109375 30.90625 
L 18.109375 0 
L 9.078125 0 
L 9.078125 54.6875 
L 18.109375 54.6875 
L 18.109375 46.1875 
Q 21.1875 51.21875 25.484375 53.609375 
Q 29.78125 56 35.6875 56 
Q 41.65625 56 45.828125 52.96875 
Q 50 49.953125 52 44.1875 
z
" id="DejaVuSans-109"/>
       <path d="M 39.40625 66.21875 
Q 28.65625 66.21875 22.328125 58.203125 
Q 16.015625 50.203125 16.015625 36.375 
Q 16.015625 22.609375 22.328125 14.59375 
Q 28.65625 6.59375 39.40625 6.59375 
Q 50.140625 6.59375 56.421875 14.59375 
Q 62.703125 22.609375 62.703125 36.375 
Q 62.703125 50.203125 56.421875 58.203125 
Q 50.140625 66.21875 39.40625 66.21875 
z
M 39.40625 74.21875 
Q 54.734375 74.21875 63.90625 63.9375 
Q 73.09375 53.65625 73.09375 36.375 
Q 73.09375 19.140625 63.90625 8.859375 
Q 54.734375 -1.421875 39.40625 -1.421875 
Q 24.03125 -1.421875 14.8125 8.828125 
Q 5.609375 19.09375 5.609375 36.375 
Q 5.609375 53.65625 14.8125 63.9375 
Q 24.03125 74.21875 39.40625 74.21875 
z
" id="DejaVuSans-79"/>
       <path d="M 3.328125 72.90625 
L 13.28125 72.90625 
L 28.609375 11.28125 
L 43.890625 72.90625 
L 54.984375 72.90625 
L 70.3125 11.28125 
L 85.59375 72.90625 
L 95.609375 72.90625 
L 77.296875 0 
L 64.890625 0 
L 49.515625 63.28125 
L 33.984375 0 
L 21.578125 0 
z
" id="DejaVuSans-87"/>
       <path d="M 34.28125 27.484375 
Q 23.390625 27.484375 19.1875 25 
Q 14.984375 22.515625 14.984375 16.5 
Q 14.984375 11.71875 18.140625 8.90625 
Q 21.296875 6.109375 26.703125 6.109375 
Q 34.1875 6.109375 38.703125 11.40625 
Q 43.21875 16.703125 43.21875 25.484375 
L 43.21875 27.484375 
z
M 52.203125 31.203125 
L 52.203125 0 
L 43.21875 0 
L 43.21875 8.296875 
Q 40.140625 3.328125 35.546875 0.953125 
Q 30.953125 -1.421875 24.3125 -1.421875 
Q 15.921875 -1.421875 10.953125 3.296875 
Q 6 8.015625 6 15.921875 
Q 6 25.140625 12.171875 29.828125 
Q 18.359375 34.515625 30.609375 34.515625 
L 43.21875 34.515625 
L 43.21875 35.40625 
Q 43.21875 41.609375 39.140625 45 
Q 35.0625 48.390625 27.6875 48.390625 
Q 23 48.390625 18.546875 47.265625 
Q 14.109375 46.140625 10.015625 43.890625 
L 10.015625 52.203125 
Q 14.9375 54.109375 19.578125 55.046875 
Q 24.21875 56 28.609375 56 
Q 40.484375 56 46.34375 49.84375 
Q 52.203125 43.703125 52.203125 31.203125 
z
" id="DejaVuSans-97"/>
       <path d="M 18.3125 70.21875 
L 18.3125 54.6875 
L 36.8125 54.6875 
L 36.8125 47.703125 
L 18.3125 47.703125 
L 18.3125 18.015625 
Q 18.3125 11.328125 20.140625 9.421875 
Q 21.96875 7.515625 27.59375 7.515625 
L 36.8125 7.515625 
L 36.8125 0 
L 27.59375 0 
Q 17.1875 0 13.234375 3.875 
Q 9.28125 7.765625 9.28125 18.015625 
L 9.28125 47.703125 
L 2.6875 47.703125 
L 2.6875 54.6875 
L 9.28125 54.6875 
L 9.28125 70.21875 
z
" id="DejaVuSans-116"/>
       <path d="M 54.890625 33.015625 
L 54.890625 0 
L 45.90625 0 
L 45.90625 32.71875 
Q 45.90625 40.484375 42.875 44.328125 
Q 39.84375 48.1875 33.796875 48.1875 
Q 26.515625 48.1875 22.3125 43.546875 
Q 18.109375 38.921875 18.109375 30.90625 
L 18.109375 0 
L 9.078125 0 
L 9.078125 75.984375 
L 18.109375 75.984375 
L 18.109375 46.1875 
Q 21.34375 51.125 25.703125 53.5625 
Q 30.078125 56 35.796875 56 
Q 45.21875 56 50.046875 50.171875 
Q 54.890625 44.34375 54.890625 33.015625 
z
" id="DejaVuSans-104"/>
       <path d="M 9.8125 72.90625 
L 24.515625 72.90625 
L 43.109375 23.296875 
L 61.8125 72.90625 
L 76.515625 72.90625 
L 76.515625 0 
L 66.890625 0 
L 66.890625 64.015625 
L 48.09375 14.015625 
L 38.1875 14.015625 
L 19.390625 64.015625 
L 19.390625 0 
L 9.8125 0 
z
" id="DejaVuSans-77"/>
      </defs>
      <use xlink:href="#DejaVuSans-119"/>
      <use x="81.787109" xlink:href="#DejaVuSans-105"/>
      <use x="109.570312" xlink:href="#DejaVuSans-110"/>
      <use x="172.949219" xlink:href="#DejaVuSans-100"/>
      <use x="236.425781" xlink:href="#DejaVuSans-95"/>
      <use x="286.425781" xlink:href="#DejaVuSans-115"/>
      <use x="338.525391" xlink:href="#DejaVuSans-112"/>
      <use x="402.001953" xlink:href="#DejaVuSans-101"/>
      <use x="463.525391" xlink:href="#DejaVuSans-101"/>
      <use x="525.048828" xlink:href="#DejaVuSans-100"/>
      <use x="588.525391" xlink:href="#DejaVuSans-32"/>
      <use x="620.3125" xlink:href="#DejaVuSans-102"/>
      <use x="655.517578" xlink:href="#DejaVuSans-114"/>
      <use x="694.380859" xlink:href="#DejaVuSans-111"/>
      <use x="755.5625" xlink:href="#DejaVuSans-109"/>
      <use x="852.974609" xlink:href="#DejaVuSans-32"/>
      <use x="884.761719" xlink:href="#DejaVuSans-79"/>
      <use x="963.472656" xlink:href="#DejaVuSans-112"/>
      <use x="1026.949219" xlink:href="#DejaVuSans-101"/>
      <use x="1088.472656" xlink:href="#DejaVuSans-110"/>
      <use x="1151.851562" xlink:href="#DejaVuSans-87"/>
      <use x="1244.853516" xlink:href="#DejaVuSans-101"/>
      <use x="1306.376953" xlink:href="#DejaVuSans-97"/>
      <use x="1367.65625" xlink:href="#DejaVuSans-116"/>
      <use x="1406.865234" xlink:href="#DejaVuSans-104"/>
      <use x="1470.244141" xlink:href="#DejaVuSans-101"/>
      <use x="1531.767578" xlink:href="#DejaVuSans-114"/>
      <use x="1572.880859" xlink:href="#DejaVuSans-77"/>
      <use x="1659.160156" xlink:href="#DejaVuSans-97"/>
      <use x="1720.439453" xlink:href="#DejaVuSans-112"/>
     </g>
    </g>
   </g>
   <g id="matplotlib.axis_2">
    <g id="ytick_1">
     <g id="line2d_7">
      <defs>
       <path d="M 0 0 
L -3.5 0 
" id="mf2fbc39f46" style="stroke:#000000;stroke-width:0.8;"/>
      </defs>
      <g>
       <use style="stroke:#000000;stroke-width:0.8;" x="57.6" xlink:href="#mf2fbc39f46" y="297.033391"/>
      </g>
     </g>
     <g id="text_8">
      <!-- 0 -->
      <g transform="translate(44.2375 300.83261)scale(0.1 -0.1)">
       <use xlink:href="#DejaVuSans-48"/>
      </g>
     </g>
    </g>
    <g id="ytick_2">
     <g id="line2d_8">
      <g>
       <use style="stroke:#000000;stroke-width:0.8;" x="57.6" xlink:href="#mf2fbc39f46" y="244.04854"/>
      </g>
     </g>
     <g id="text_9">
      <!-- 100 -->
      <g transform="translate(31.5125 247.847759)scale(0.1 -0.1)">
       <use xlink:href="#DejaVuSans-49"/>
       <use x="63.623047" xlink:href="#DejaVuSans-48"/>
       <use x="127.246094" xlink:href="#DejaVuSans-48"/>
      </g>
     </g>
    </g>
    <g id="ytick_3">
     <g id="line2d_9">
      <g>
       <use style="stroke:#000000;stroke-width:0.8;" x="57.6" xlink:href="#mf2fbc39f46" y="191.063689"/>
      </g>
     </g>
     <g id="text_10">
      <!-- 200 -->
      <g transform="translate(31.5125 194.862908)scale(0.1 -0.1)">
       <use xlink:href="#DejaVuSans-50"/>
       <use x="63.623047" xlink:href="#DejaVuSans-48"/>
       <use x="127.246094" xlink:href="#DejaVuSans-48"/>
      </g>
     </g>
    </g>
    <g id="ytick_4">
     <g id="line2d_10">
      <g>
       <use style="stroke:#000000;stroke-width:0.8;" x="57.6" xlink:href="#mf2fbc39f46" y="138.078838"/>
      </g>
     </g>
     <g id="text_11">
      <!-- 300 -->
      <g transform="translate(31.5125 141.878056)scale(0.1 -0.1)">
       <defs>
        <path d="M 40.578125 39.3125 
Q 47.65625 37.796875 51.625 33 
Q 55.609375 28.21875 55.609375 21.1875 
Q 55.609375 10.40625 48.1875 4.484375 
Q 40.765625 -1.421875 27.09375 -1.421875 
Q 22.515625 -1.421875 17.65625 -0.515625 
Q 12.796875 0.390625 7.625 2.203125 
L 7.625 11.71875 
Q 11.71875 9.328125 16.59375 8.109375 
Q 21.484375 6.890625 26.8125 6.890625 
Q 36.078125 6.890625 40.9375 10.546875 
Q 45.796875 14.203125 45.796875 21.1875 
Q 45.796875 27.640625 41.28125 31.265625 
Q 36.765625 34.90625 28.71875 34.90625 
L 20.21875 34.90625 
L 20.21875 43.015625 
L 29.109375 43.015625 
Q 36.375 43.015625 40.234375 45.921875 
Q 44.09375 48.828125 44.09375 54.296875 
Q 44.09375 59.90625 40.109375 62.90625 
Q 36.140625 65.921875 28.71875 65.921875 
Q 24.65625 65.921875 20.015625 65.03125 
Q 15.375 64.15625 9.8125 62.3125 
L 9.8125 71.09375 
Q 15.4375 72.65625 20.34375 73.4375 
Q 25.25 74.21875 29.59375 74.21875 
Q 40.828125 74.21875 47.359375 69.109375 
Q 53.90625 64.015625 53.90625 55.328125 
Q 53.90625 49.265625 50.4375 45.09375 
Q 46.96875 40.921875 40.578125 39.3125 
z
" id="DejaVuSans-51"/>
       </defs>
       <use xlink:href="#DejaVuSans-51"/>
       <use x="63.623047" xlink:href="#DejaVuSans-48"/>
       <use x="127.246094" xlink:href="#DejaVuSans-48"/>
      </g>
     </g>
    </g>
    <g id="ytick_5">
     <g id="line2d_11">
      <g>
       <use style="stroke:#000000;stroke-width:0.8;" x="57.6" xlink:href="#mf2fbc39f46" y="85.093986"/>
      </g>
     </g>
     <g id="text_12">
      <!-- 400 -->
      <g transform="translate(31.5125 88.893205)scale(0.1 -0.1)">
       <use xlink:href="#DejaVuSans-52"/>
       <use x="63.623047" xlink:href="#DejaVuSans-48"/>
       <use x="127.246094" xlink:href="#DejaVuSans-48"/>
      </g>
     </g>
    </g>
   </g>
   <g id="line2d_12">
    <path clip-path="url(#p5561d00439)" d="M 73.832727 130.175264 
L 79.198918 195.880494 
L 80.875853 133.663433 
L 83.894335 141.552289 
L 84.900496 116.619973 
L 85.235883 227.137542 
L 86.912817 53.568 
L 88.589752 123.628424 
L 89.260526 108.760553 
L 89.595913 104.919152 
L 89.9313 113.220112 
L 91.272847 158.433851 
L 91.943621 104.565919 
L 94.626717 114.103193 
L 94.962104 119.452625 
L 96.303651 127.658484 
L 96.974425 106.817776 
L 98.65136 137.363542 
L 98.986747 237.274049 
L 99.657521 129.424645 
L 100.663681 135.959444 
L 100.999068 170.664521 
L 101.669842 117.326438 
L 102.005229 123.331387 
L 102.676003 117.767978 
L 104.688325 124.164555 
L 105.023711 142.893548 
L 106.029872 109.670806 
L 106.365259 236.409891 
L 107.036033 147.245217 
L 107.706807 121.653534 
L 108.712968 153.223674 
L 109.048355 149.956275 
L 110.054515 138.520378 
L 111.060676 71.671158 
L 111.73145 139.800845 
L 112.066837 77.911596 
L 112.402224 156.29238 
L 112.737611 127.257701 
L 113.408385 221.971519 
L 114.414545 87.894614 
L 114.749932 121.167839 
L 115.756093 123.375542 
L 116.426867 192.435062 
L 117.097641 136.047752 
L 118.103802 155.319293 
L 119.109962 138.65284 
L 120.116123 153.047058 
L 120.786897 96.523576 
L 121.122284 138.290777 
L 121.457671 159.272778 
L 121.793058 140.419002 
L 122.128445 152.092417 
L 122.799219 123.12954 
L 123.134606 159.863763 
L 124.140766 129.048376 
L 124.476153 123.197006 
L 124.81154 127.28002 
L 125.146927 129.145003 
L 125.817701 243.121305 
L 126.153088 173.976074 
L 127.159249 159.390522 
L 128.165409 128.541565 
L 128.836183 121.094249 
L 129.17157 275.574527 
L 129.506957 200.336038 
L 129.842344 210.54092 
L 130.177731 158.243358 
L 130.513118 130.660959 
L 131.519279 182.851037 
L 131.854666 86.683532 
L 132.190053 118.882019 
L 132.52544 139.867076 
L 132.860826 110.835793 
L 133.196213 105.366451 
L 133.866987 192.424111 
L 134.537761 205.502061 
L 135.208535 161.524634 
L 136.88547 153.405197 
L 137.220856 125.205481 
L 137.556243 226.916772 
L 137.89163 128.647534 
L 138.227017 107.480086 
L 138.897791 113.646934 
L 139.903952 201.034475 
L 140.239339 188.23783 
L 140.574726 146.841717 
L 141.2455 295.280816 
L 141.580887 150.628678 
L 142.25166 128.629873 
L 142.587047 153.815339 
L 143.257821 180.113486 
L 143.593208 178.375965 
L 143.928595 149.735505 
L 144.263982 184.882123 
L 144.934756 135.723955 
L 145.270143 136.926993 
L 145.60553 245.161222 
L 145.940917 127.094671 
L 146.276304 102.110275 
L 146.61169 152.947712 
L 146.947077 152.73798 
L 147.617851 147.493838 
L 147.953238 113.932884 
L 148.624012 108.855654 
L 148.959399 220.502072 
L 149.294786 130.21477 
L 149.96556 124.046987 
L 150.300947 142.726366 
L 150.636334 177.287628 
L 150.971721 134.899747 
L 151.307107 138.03808 
L 151.642494 125.137288 
L 151.977881 143.156553 
L 153.319429 126.775403 
L 153.990203 115.295352 
L 154.32559 176.589191 
L 154.660977 175.105899 
L 155.331751 118.765859 
L 155.667137 236.592815 
L 156.002524 116.430741 
L 156.337911 122.682954 
L 156.673298 209.396448 
L 157.344072 159.549221 
L 157.679459 99.45567 
L 158.014846 216.354263 
L 158.350233 115.254594 
L 158.68562 129.989817 
L 159.021007 128.961789 
L 159.356394 161.495557 
L 159.691781 113.38201 
L 160.362554 124.597137 
L 160.697941 175.289657 
L 161.033328 118.658738 
L 161.704102 112.557801 
L 162.039489 153.692459 
L 162.374876 260.032304 
L 163.04565 183.603422 
L 163.381037 167.305282 
L 163.716424 130.888037 
L 164.051811 152.685798 
L 164.387198 295.488 
L 165.057971 127.9663 
L 165.393358 200.439704 
L 165.728745 139.270997 
L 166.064132 185.519203 
L 166.399519 122.247998 
L 166.734906 139.244504 
L 167.070293 135.920674 
L 167.40568 200.361269 
L 167.741067 163.342015 
L 168.411841 128.445228 
L 168.747228 126.731249 
L 169.082615 156.314457 
L 169.418002 114.709136 
L 170.088775 177.903398 
L 170.424162 145.496717 
L 170.759549 147.616111 
L 171.094936 143.540353 
L 171.430323 127.366683 
L 171.76571 123.042596 
L 172.101097 215.657491 
L 172.436484 171.282678 
L 173.107258 168.259824 
L 173.778032 121.079531 
L 174.448805 274.426522 
L 174.784192 209.078538 
L 175.119579 240.751705 
L 175.454966 125.362473 
L 175.790353 178.523941 
L 176.12574 138.669489 
L 176.461127 120.545669 
L 176.796514 119.75491 
L 177.131901 109.502341 
L 177.467288 219.14566 
L 177.802675 122.876261 
L 178.138062 124.189237 
L 178.473449 112.999341 
L 178.808835 132.568413 
L 179.144222 103.95036 
L 179.479609 151.976007 
L 179.814996 127.76151 
L 180.150383 87.213381 
L 180.48577 157.394224 
L 180.821157 191.814308 
L 181.156544 178.052964 
L 181.491931 134.554193 
L 181.827318 139.668383 
L 182.162705 147.114149 
L 182.498092 145.972222 
L 182.833479 119.53414 
L 183.168866 152.721924 
L 183.504252 237.081032 
L 183.839639 124.116613 
L 184.510413 224.179221 
L 184.8458 172.518991 
L 185.516574 160.200013 
L 186.187348 110.305945 
L 186.522735 127.774198 
L 186.858122 207.733538 
L 187.193509 135.429595 
L 187.528896 230.840174 
L 187.864282 184.59396 
L 188.199669 112.494724 
L 188.535056 232.729049 
L 189.541217 120.063988 
L 190.211991 229.433552 
L 190.547378 125.362473 
L 190.882765 149.58412 
L 191.218152 122.38717 
L 191.553539 192.358874 
L 191.888926 225.724613 
L 192.224313 121.783293 
L 192.559699 191.990924 
L 193.230473 100.270362 
L 193.56586 121.741842 
L 193.901247 182.61728 
L 194.236634 141.522853 
L 194.572021 178.017959 
L 195.242795 75.102557 
L 196.248956 150.000429 
L 196.584343 130.690395 
L 196.91973 133.380848 
L 197.92589 128.05587 
L 198.596664 159.272778 
L 198.932051 143.490862 
L 199.267438 225.018148 
L 199.602825 245.927094 
L 199.938212 141.169621 
L 200.273599 137.217834 
L 200.608986 192.211694 
L 201.27976 141.333621 
L 201.615147 177.4803 
L 201.950533 234.599575 
L 202.28592 94.039076 
L 202.621307 123.344973 
L 202.956694 233.621122 
L 203.292081 199.541265 
L 203.627468 131.972964 
L 203.962855 144.966868 
L 204.298242 127.189056 
L 204.633629 130.13111 
L 205.63979 237.38128 
L 206.310563 177.448886 
L 206.64595 245.240699 
L 207.652111 232.745105 
L 208.658272 105.376588 
L 208.993659 101.413321 
L 209.664433 240.759064 
L 211.00598 148.80827 
L 211.676754 171.370986 
L 212.012141 144.121975 
L 212.347528 234.655771 
L 212.682915 170.782265 
L 213.018302 182.762729 
L 213.353689 225.768767 
L 213.689076 180.908259 
L 214.695237 168.236049 
L 215.030624 136.595262 
L 215.366011 153.665215 
L 215.701397 158.987475 
L 216.036784 170.295705 
L 216.707558 171.551442 
L 217.378332 133.010722 
L 217.713719 126.216118 
L 218.049106 143.175476 
L 218.71988 143.598093 
L 219.390654 173.284328 
L 220.732201 221.71921 
L 221.067588 186.824901 
L 221.402975 228.470994 
L 221.738362 162.160453 
L 222.073749 161.717518 
L 222.409136 167.013174 
L 223.415297 118.841261 
L 223.750684 115.054511 
L 224.086071 156.748206 
L 224.421458 147.775066 
L 224.756844 201.469914 
L 225.092231 195.556804 
L 225.763005 187.672659 
L 226.098392 133.290577 
L 226.433779 141.161593 
L 227.43994 125.139379 
L 227.775327 170.399597 
L 228.110714 165.653997 
L 228.446101 150.104095 
L 228.781488 149.831841 
L 229.116875 188.916408 
L 229.452261 125.468443 
L 229.787648 149.249811 
L 230.123035 131.058345 
L 230.458422 143.141835 
L 230.793809 166.59851 
L 231.464583 175.78639 
L 231.79997 136.588639 
L 232.135357 208.336751 
L 232.806131 143.059414 
L 233.141518 136.047752 
L 233.476905 175.93357 
L 233.812292 165.572088 
L 234.147678 124.170314 
L 234.483065 143.311092 
L 234.818452 139.709141 
L 235.153839 129.255708 
L 235.824613 162.363561 
L 236.16 150.927664 
L 236.495387 205.502061 
L 237.166161 128.541565 
L 237.836935 185.323663 
L 238.172322 224.52566 
L 238.507708 122.183382 
L 239.178482 151.614059 
L 239.513869 234.947613 
L 239.849256 124.523547 
L 240.52003 122.492461 
L 240.855417 147.182599 
L 241.526191 172.916377 
L 242.196965 173.976074 
L 242.532352 184.512835 
L 242.867739 217.158728 
L 243.538512 192.574738 
L 243.873899 229.591245 
L 244.209286 208.067009 
L 244.544673 148.432961 
L 245.550834 111.912473 
L 245.886221 162.451869 
L 246.221608 125.185857 
L 246.556995 167.962294 
L 246.892382 126.63411 
L 247.227769 242.679765 
L 247.563156 148.426468 
L 248.569316 112.704981 
L 249.24009 125.627398 
L 249.910864 164.817264 
L 250.246251 108.814897 
L 250.581638 207.224069 
L 250.917025 130.998135 
L 252.593959 141.478699 
L 252.929346 177.287628 
L 253.264733 165.595637 
L 253.60012 219.36643 
L 253.935507 219.940433 
L 254.606281 216.178508 
L 254.941668 220.735206 
L 255.277055 152.163977 
L 255.612442 230.581557 
L 255.947829 150.44197 
L 256.283216 170.620367 
L 256.618603 117.31841 
L 256.953989 183.209464 
L 258.295537 170.155052 
L 258.966311 240.692833 
L 259.301698 175.115249 
L 259.637085 188.096537 
L 260.307859 168.507281 
L 260.643246 219.278122 
L 260.978633 135.144292 
L 261.649406 134.414052 
L 263.997115 171.41514 
L 264.332502 242.944689 
L 265.003276 176.011174 
L 265.338663 128.05587 
L 266.009437 202.950725 
L 266.344823 142.233966 
L 266.68021 112.53257 
L 267.015597 144.378148 
L 267.350984 236.630661 
L 267.686371 114.059039 
L 268.357145 239.279904 
L 269.027919 203.735899 
L 269.363306 140.797191 
L 271.04024 159.905653 
L 271.375627 140.50731 
L 272.046401 133.210855 
L 272.717175 192.300002 
L 273.387949 176.121961 
L 273.723336 223.693527 
L 274.39411 195.037553 
L 274.729497 139.895461 
L 275.40027 118.338196 
L 276.071044 177.287628 
L 277.412592 167.48543 
L 278.083366 278.344189 
L 278.418753 129.351921 
L 278.75414 169.229515 
L 279.089527 128.188332 
L 280.095687 184.657339 
L 280.766461 129.68957 
L 281.101848 187.696587 
L 282.108009 135.429595 
L 282.443396 146.267406 
L 282.778783 262.416622 
L 283.449557 142.822243 
L 283.784944 134.06082 
L 285.461878 121.079531 
L 286.132652 246.962707 
L 286.468039 136.489292 
L 286.803426 133.024898 
L 287.138813 117.23813 
L 287.4742 167.882817 
L 287.809587 143.818863 
L 288.480361 110.997692 
L 288.815748 141.920239 
L 289.821908 146.821338 
L 290.157295 253.850738 
L 290.492682 225.397873 
L 290.828069 131.190807 
L 291.498843 121.880612 
L 291.83423 113.461261 
L 292.169617 155.622711 
L 292.840391 149.663253 
L 293.175778 123.772928 
L 293.846551 145.602687 
L 294.181938 125.513859 
L 294.517325 187.769413 
L 295.858873 226.563539 
L 296.19426 189.066568 
L 296.865034 133.795896 
L 297.200421 95.779265 
L 297.535808 124.185032 
L 298.541968 116.708281 
L 299.883516 216.249155 
L 300.55429 198.39326 
L 301.225064 171.487181 
L 301.560451 105.565406 
L 302.231225 141.328575 
L 302.901998 237.690358 
L 303.572772 224.841532 
L 303.908159 236.763123 
L 304.243546 137.813913 
L 305.249707 180.819951 
L 305.585094 231.218637 
L 305.920481 114.368117 
L 307.262029 123.817082 
L 309.945124 129.424645 
L 311.286672 116.619973 
L 312.292832 224.540481 
L 314.975928 122.998534 
L 315.311315 249.347025 
L 315.982089 113.97073 
L 318.329797 244.76762 
L 318.665184 126.381413 
L 320.006732 234.555421 
L 321.683666 155.431377 
L 322.35444 251.157341 
L 323.695988 146.518568 
L 324.702149 235.774752 
L 325.70831 241.206625 
L 327.385244 111.586412 
L 328.726792 111.630566 
L 330.06834 156.027456 
L 336.440691 120.019834 
L 339.459174 152.561364 
L 340.465334 201.28535 
L 341.136108 138.012607 
L 343.483817 151.545821 
L 347.50846 160.288321 
L 348.179234 143.059414 
L 352.203877 187.707982 
L 353.210038 273.826027 
L 354.551585 273.995578 
L 359.247002 253.350325 
L 359.582389 250.300753 
L 360.253163 274.426522 
L 370.985545 201.013067 
L 373.333253 174.682539 
L 383.730248 200.645116 
L 388.761052 161.745405 
L 396.810338 169.693132 
L 398.487273 125.583244 
L 398.487273 125.583244 
" style="fill:none;stroke:#0000ff;stroke-linecap:square;stroke-width:1.5;"/>
   </g>
   <g id="patch_3">
    <path d="M 57.6 307.584 
L 57.6 41.472 
" style="fill:none;stroke:#000000;stroke-linecap:square;stroke-linejoin:miter;stroke-width:0.8;"/>
   </g>
   <g id="patch_4">
    <path d="M 414.72 307.584 
L 414.72 41.472 
" style="fill:none;stroke:#000000;stroke-linecap:square;stroke-linejoin:miter;stroke-width:0.8;"/>
   </g>
   <g id="patch_5">
    <path d="M 57.6 307.584 
L 414.72 307.584 
" style="fill:none;stroke:#000000;stroke-linecap:square;stroke-linejoin:miter;stroke-width:0.8;"/>
   </g>
   <g id="patch_6">
    <path d="M 57.6 41.472 
L 414.72 41.472 
" style="fill:none;stroke:#000000;stroke-linecap:square;stroke-linejoin:miter;stroke-width:0.8;"/>
   </g>
   <g id="text_13">
    <!-- wind_speed-&gt;Retransmission_day -->
    <g transform="translate(133.699687 35.472)scale(0.12 -0.12)">
     <defs>
      <path d="M 4.890625 31.390625 
L 31.203125 31.390625 
L 31.203125 23.390625 
L 4.890625 23.390625 
z
" id="DejaVuSans-45"/>
      <path d="M 10.59375 49.21875 
L 10.59375 58.109375 
L 73.1875 35.40625 
L 73.1875 27.296875 
L 10.59375 4.59375 
L 10.59375 13.484375 
L 60.890625 31.296875 
z
" id="DejaVuSans-62"/>
      <path d="M 44.390625 34.1875 
Q 47.5625 33.109375 50.5625 29.59375 
Q 53.5625 26.078125 56.59375 19.921875 
L 66.609375 0 
L 56 0 
L 46.6875 18.703125 
Q 43.0625 26.03125 39.671875 28.421875 
Q 36.28125 30.8125 30.421875 30.8125 
L 19.671875 30.8125 
L 19.671875 0 
L 9.8125 0 
L 9.8125 72.90625 
L 32.078125 72.90625 
Q 44.578125 72.90625 50.734375 67.671875 
Q 56.890625 62.453125 56.890625 51.90625 
Q 56.890625 45.015625 53.6875 40.46875 
Q 50.484375 35.9375 44.390625 34.1875 
z
M 19.671875 64.796875 
L 19.671875 38.921875 
L 32.078125 38.921875 
Q 39.203125 38.921875 42.84375 42.21875 
Q 46.484375 45.515625 46.484375 51.90625 
Q 46.484375 58.296875 42.84375 61.546875 
Q 39.203125 64.796875 32.078125 64.796875 
z
" id="DejaVuSans-82"/>
      <path d="M 32.171875 -5.078125 
Q 28.375 -14.84375 24.75 -17.8125 
Q 21.140625 -20.796875 15.09375 -20.796875 
L 7.90625 -20.796875 
L 7.90625 -13.28125 
L 13.1875 -13.28125 
Q 16.890625 -13.28125 18.9375 -11.515625 
Q 21 -9.765625 23.484375 -3.21875 
L 25.09375 0.875 
L 2.984375 54.6875 
L 12.5 54.6875 
L 29.59375 11.921875 
L 46.6875 54.6875 
L 56.203125 54.6875 
z
" id="DejaVuSans-121"/>
     </defs>
     <use xlink:href="#DejaVuSans-119"/>
     <use x="81.787109" xlink:href="#DejaVuSans-105"/>
     <use x="109.570312" xlink:href="#DejaVuSans-110"/>
     <use x="172.949219" xlink:href="#DejaVuSans-100"/>
     <use x="236.425781" xlink:href="#DejaVuSans-95"/>
     <use x="286.425781" xlink:href="#DejaVuSans-115"/>
     <use x="338.525391" xlink:href="#DejaVuSans-112"/>
     <use x="402.001953" xlink:href="#DejaVuSans-101"/>
     <use x="463.525391" xlink:href="#DejaVuSans-101"/>
     <use x="525.048828" xlink:href="#DejaVuSans-100"/>
     <use x="588.525391" xlink:href="#DejaVuSans-45"/>
     <use x="624.609375" xlink:href="#DejaVuSans-62"/>
     <use x="708.398438" xlink:href="#DejaVuSans-82"/>
     <use x="773.380859" xlink:href="#DejaVuSans-101"/>
     <use x="834.904297" xlink:href="#DejaVuSans-116"/>
     <use x="874.113281" xlink:href="#DejaVuSans-114"/>
     <use x="915.226562" xlink:href="#DejaVuSans-97"/>
     <use x="976.505859" xlink:href="#DejaVuSans-110"/>
     <use x="1039.884766" xlink:href="#DejaVuSans-115"/>
     <use x="1091.984375" xlink:href="#DejaVuSans-109"/>
     <use x="1189.396484" xlink:href="#DejaVuSans-105"/>
     <use x="1217.179688" xlink:href="#DejaVuSans-115"/>
     <use x="1269.279297" xlink:href="#DejaVuSans-115"/>
     <use x="1321.378906" xlink:href="#DejaVuSans-105"/>
     <use x="1349.162109" xlink:href="#DejaVuSans-111"/>
     <use x="1410.34375" xlink:href="#DejaVuSans-110"/>
     <use x="1473.722656" xlink:href="#DejaVuSans-95"/>
     <use x="1523.722656" xlink:href="#DejaVuSans-100"/>
     <use x="1587.199219" xlink:href="#DejaVuSans-97"/>
     <use x="1648.478516" xlink:href="#DejaVuSans-121"/>
    </g>
   </g>
  </g>
  <g id="legend_1">
   <g id="patch_7">
    <path d="M 414.851562 22.678125 
L 453.8 22.678125 
Q 455.8 22.678125 455.8 20.678125 
L 455.8 7 
Q 455.8 5 453.8 5 
L 414.851562 5 
Q 412.851562 5 412.851562 7 
L 412.851562 20.678125 
Q 412.851562 22.678125 414.851562 22.678125 
z
" style="fill:#ffffff;opacity:0.8;stroke:#cccccc;stroke-linejoin:miter;"/>
   </g>
   <g id="line2d_13">
    <path d="M 416.851562 13.098438 
L 436.851562 13.098438 
" style="fill:none;stroke:#0000ff;stroke-linecap:square;stroke-width:1.5;"/>
   </g>
   <g id="line2d_14"/>
   <g id="text_14">
    <!-- R -->
    <g transform="translate(444.851562 16.598438)scale(0.1 -0.1)">
     <use xlink:href="#DejaVuSans-82"/>
    </g>
   </g>
  </g>
 </g>
 <defs>
  <clipPath id="p5561d00439">
   <rect height="266.112" width="357.12" x="57.6" y="41.472"/>
  </clipPath>
 </defs>
</svg>
