<?xml version="1.0" encoding="utf-8" standalone="no"?>
<!DOCTYPE svg PUBLIC "-//W3C//DTD SVG 1.1//EN"
  "http://www.w3.org/Graphics/SVG/1.1/DTD/svg11.dtd">
<!-- Created with matplotlib (https://matplotlib.org/) -->
<svg height="2090.31625pt" version="1.1" viewBox="0 0 2065.44375 2090.31625" width="2065.44375pt" xmlns="http://www.w3.org/2000/svg" xmlns:xlink="http://www.w3.org/1999/xlink">
 <metadata>
  <rdf:RDF xmlns:cc="http://creativecommons.org/ns#" xmlns:dc="http://purl.org/dc/elements/1.1/" xmlns:rdf="http://www.w3.org/1999/02/22-rdf-syntax-ns#">
   <cc:Work>
    <dc:type rdf:resource="http://purl.org/dc/dcmitype/StillImage"/>
    <dc:date>2022-07-24T12:02:37.378816</dc:date>
    <dc:format>image/svg+xml</dc:format>
    <dc:creator>
     <cc:Agent>
      <dc:title>Matplotlib v3.3.2, https://matplotlib.org/</dc:title>
     </cc:Agent>
    </dc:creator>
   </cc:Work>
  </rdf:RDF>
 </metadata>
 <defs>
  <style type="text/css">*{stroke-linecap:butt;stroke-linejoin:round;}</style>
 </defs>
 <g id="figure_1">
  <g id="patch_1">
   <path d="M 0 2090.31625 
L 2065.44375 2090.31625 
L 2065.44375 0 
L 0 0 
z
" style="fill:#ffffff;"/>
  </g>
  <g id="axes_1">
   <g id="patch_2">
    <path d="M 47.24375 2052.76 
L 1832.84375 2052.76 
L 1832.84375 278.68 
L 47.24375 278.68 
z
" style="fill:#ffffff;"/>
   </g>
   <g id="matplotlib.axis_1">
    <g id="xtick_1">
     <g id="line2d_1">
      <defs>
       <path d="M 0 0 
L 0 3.5 
" id="mc6ea3349ec" style="stroke:#000000;stroke-width:0.8;"/>
      </defs>
      <g>
       <use style="stroke:#000000;stroke-width:0.8;" x="314.247801" xlink:href="#mc6ea3349ec" y="2052.76"/>
      </g>
     </g>
     <g id="text_1">
      <text style="font-family:DejaVu Sans;font-size:10px;font-stretch:normal;font-style:normal;font-weight:normal;text-anchor:middle;" transform="rotate(-0, 314.247801, 2067.358438)" x="314.247801" y="2067.358438">10</text>
     </g>
    </g>
    <g id="xtick_2">
     <g id="line2d_2">
      <g>
       <use style="stroke:#000000;stroke-width:0.8;" x="647.29514" xlink:href="#mc6ea3349ec" y="2052.76"/>
      </g>
     </g>
     <g id="text_2">
      <text style="font-family:DejaVu Sans;font-size:10px;font-stretch:normal;font-style:normal;font-weight:normal;text-anchor:middle;" transform="rotate(-0, 647.29514, 2067.358438)" x="647.29514" y="2067.358438">15</text>
     </g>
    </g>
    <g id="xtick_3">
     <g id="line2d_3">
      <g>
       <use style="stroke:#000000;stroke-width:0.8;" x="980.342478" xlink:href="#mc6ea3349ec" y="2052.76"/>
      </g>
     </g>
     <g id="text_3">
      <text style="font-family:DejaVu Sans;font-size:10px;font-stretch:normal;font-style:normal;font-weight:normal;text-anchor:middle;" transform="rotate(-0, 980.342478, 2067.358438)" x="980.342478" y="2067.358438">20</text>
     </g>
    </g>
    <g id="xtick_4">
     <g id="line2d_4">
      <g>
       <use style="stroke:#000000;stroke-width:0.8;" x="1313.389816" xlink:href="#mc6ea3349ec" y="2052.76"/>
      </g>
     </g>
     <g id="text_4">
      <text style="font-family:DejaVu Sans;font-size:10px;font-stretch:normal;font-style:normal;font-weight:normal;text-anchor:middle;" transform="rotate(-0, 1313.389816, 2067.358438)" x="1313.389816" y="2067.358438">25</text>
     </g>
    </g>
    <g id="xtick_5">
     <g id="line2d_5">
      <g>
       <use style="stroke:#000000;stroke-width:0.8;" x="1646.437155" xlink:href="#mc6ea3349ec" y="2052.76"/>
      </g>
     </g>
     <g id="text_5">
      <text style="font-family:DejaVu Sans;font-size:10px;font-stretch:normal;font-style:normal;font-weight:normal;text-anchor:middle;" transform="rotate(-0, 1646.437155, 2067.358438)" x="1646.437155" y="2067.358438">30</text>
     </g>
    </g>
    <g id="text_6">
     <text style="font-family:DejaVu Sans;font-size:10px;font-stretch:normal;font-style:normal;font-weight:normal;text-anchor:middle;" transform="rotate(-0, 940.04375, 2081.036562)" x="940.04375" y="2081.036562">temperature from OpenWeatherMap</text>
    </g>
   </g>
   <g id="matplotlib.axis_2">
    <g id="ytick_1">
     <g id="line2d_6">
      <defs>
       <path d="M 0 0 
L -3.5 0 
" id="mac2f4ac094" style="stroke:#000000;stroke-width:0.8;"/>
      </defs>
      <g>
       <use style="stroke:#000000;stroke-width:0.8;" x="47.24375" xlink:href="#mac2f4ac094" y="1972.12"/>
      </g>
     </g>
     <g id="text_7">
      <text style="font-family:DejaVu Sans;font-size:10px;font-stretch:normal;font-style:normal;font-weight:normal;text-anchor:end;" transform="rotate(-0, 40.24375, 1975.919219)" x="40.24375" y="1975.919219">0</text>
     </g>
    </g>
    <g id="ytick_2">
     <g id="line2d_7">
      <g>
       <use style="stroke:#000000;stroke-width:0.8;" x="47.24375" xlink:href="#mac2f4ac094" y="1649.56"/>
      </g>
     </g>
     <g id="text_8">
      <text style="font-family:DejaVu Sans;font-size:10px;font-stretch:normal;font-style:normal;font-weight:normal;text-anchor:end;" transform="rotate(-0, 40.24375, 1653.359219)" x="40.24375" y="1653.359219">100</text>
     </g>
    </g>
    <g id="ytick_3">
     <g id="line2d_8">
      <g>
       <use style="stroke:#000000;stroke-width:0.8;" x="47.24375" xlink:href="#mac2f4ac094" y="1327"/>
      </g>
     </g>
     <g id="text_9">
      <text style="font-family:DejaVu Sans;font-size:10px;font-stretch:normal;font-style:normal;font-weight:normal;text-anchor:end;" transform="rotate(-0, 40.24375, 1330.799219)" x="40.24375" y="1330.799219">200</text>
     </g>
    </g>
    <g id="ytick_4">
     <g id="line2d_9">
      <g>
       <use style="stroke:#000000;stroke-width:0.8;" x="47.24375" xlink:href="#mac2f4ac094" y="1004.44"/>
      </g>
     </g>
     <g id="text_10">
      <text style="font-family:DejaVu Sans;font-size:10px;font-stretch:normal;font-style:normal;font-weight:normal;text-anchor:end;" transform="rotate(-0, 40.24375, 1008.239219)" x="40.24375" y="1008.239219">300</text>
     </g>
    </g>
    <g id="ytick_5">
     <g id="line2d_10">
      <g>
       <use style="stroke:#000000;stroke-width:0.8;" x="47.24375" xlink:href="#mac2f4ac094" y="681.88"/>
      </g>
     </g>
     <g id="text_11">
      <text style="font-family:DejaVu Sans;font-size:10px;font-stretch:normal;font-style:normal;font-weight:normal;text-anchor:end;" transform="rotate(-0, 40.24375, 685.679219)" x="40.24375" y="685.679219">400</text>
     </g>
    </g>
    <g id="ytick_6">
     <g id="line2d_11">
      <g>
       <use style="stroke:#000000;stroke-width:0.8;" x="47.24375" xlink:href="#mac2f4ac094" y="359.32"/>
      </g>
     </g>
     <g id="text_12">
      <text style="font-family:DejaVu Sans;font-size:10px;font-stretch:normal;font-style:normal;font-weight:normal;text-anchor:end;" transform="rotate(-0, 40.24375, 363.119219)" x="40.24375" y="363.119219">500</text>
     </g>
    </g>
    <g id="text_13">
     <text style="font-family:DejaVu Sans;font-size:10px;font-stretch:normal;font-style:normal;font-weight:normal;text-anchor:middle;" transform="rotate(-90, 14.798438, 1165.72)" x="14.798438" y="1165.72">Retransmission_day[dimensionless]</text>
    </g>
   </g>
   <g id="line2d_12">
    <path clip-path="url(#p62a37b6252)" d="M 128.407386 1030.2448 
L 132.403954 1158.1936 
L 133.070049 978.6352 
L 139.730996 1096.3696 
L 145.059753 1305.496 
L 151.054605 1072.1776 
L 162.378215 786.1744 
L 167.040878 975.4096 
L 168.373067 1087.2304 
L 201.677801 1324.8496 
L 203.676085 933.4768 
L 205.674369 947.1856 
L 213.667505 946.3792 
L 222.99283 1007.6656 
L 226.323304 916.2736 
L 250.302712 633.496 
L 260.294132 863.5888 
L 272.283837 913.048 
L 274.282121 1007.6656 
L 276.946499 989.3872 
L 278.278689 1001.2144 
L 278.944783 1075.4032 
L 280.943067 934.552 
L 282.275257 789.4 
L 282.941351 488.344 
L 284.273541 799.0768 
L 288.270109 885.0928 
L 292.266677 1000.6768 
L 296.263245 1137.7648 
L 300.925908 759.2944 
L 302.258097 1097.9824 
L 304.922476 974.3344 
L 306.254665 1010.8912 
L 306.92076 1239.9088 
L 308.919044 943.1536 
L 310.917328 991.5376 
L 312.915612 1162.4944 
L 316.246085 533.5024 
L 320.242653 962.5072 
L 322.907032 988.312 
L 326.9036 1051.4416 
L 327.569695 884.0176 
L 328.901884 1265.7136 
L 331.566263 1131.3136 
L 332.232357 904.4464 
L 334.896736 896.92 
L 335.562831 1039.9216 
L 336.89502 919.4992 
L 339.559399 951.2176 
L 342.889872 931.3264 
L 344.222062 793.1632 
L 346.220346 550.7056 
L 346.88644 739.9408 
L 350.216914 777.0352 
L 350.883008 1472.152 
L 352.215198 1067.8768 
L 360.874429 959.2816 
L 364.870997 905.5216 
L 366.869281 919.4992 
L 368.20147 910.8976 
L 368.867565 1085.08 
L 370.865849 1192.6 
L 372.198038 784.024 
L 373.530227 802.3024 
L 374.196322 1167.8704 
L 375.528511 1396.3504 
L 376.860701 915.1984 
L 381.523364 718.4368 
L 382.855553 1149.592 
L 385.519932 892.6192 
L 386.852121 1153.8928 
L 388.850405 942.0784 
L 389.5165 909.8224 
L 390.182594 1064.1136 
L 390.848689 1163.5696 
L 394.845257 736.7152 
L 396.177446 959.2816 
L 397.509636 1079.704 
L 398.17573 854.9872 
L 399.50792 1027.5568 
L 400.840109 1656.0112 
L 401.506204 939.3904 
L 403.504488 707.6848 
L 404.170583 1285.0672 
L 404.836677 1187.224 
L 407.501056 1074.328 
L 408.833245 1364.0944 
L 409.49934 1177.97728 
L 410.165435 1586.6608 
L 411.497624 910.8976 
L 412.163719 937.7776 
L 412.829813 1109.59456 
L 413.495908 996.376 
L 414.162003 965.7328 
L 418.158571 1623.11008 
L 419.49076 1094.7568 
L 420.822949 665.752 
L 421.489044 1574.296 
L 422.155139 875.416 
L 423.487328 1247.4352 
L 426.151707 1077.016 
L 426.817802 756.0688 
L 428.149991 1019.4928 
L 428.816086 1115.4544 
L 429.48218 1639.8832 
L 430.148275 1585.048 
L 430.81437 847.4608 
L 431.480464 1039.384 
L 432.146559 1601.176 
L 432.812654 1104.4336 
L 433.478748 1146.3664 
L 434.810938 1105.5088 
L 435.477032 581.8864 
L 436.143127 1095.832 
L 437.475316 905.5216 
L 438.141411 1082.392 
L 438.807506 977.56 
L 439.4736 1625.9056 
L 440.139695 1504.408 
L 441.471884 633.496 
L 442.137979 696.9328 
L 442.804074 1056.0496 
L 443.470168 359.32 
L 444.136263 753.9184 
L 444.802358 1037.2336 
L 445.468453 1213.7456 
L 446.134547 462.5392 
L 446.800642 1439.0896 
L 448.798926 942.50848 
L 450.131115 1642.0336 
L 451.463305 882.9424 
L 452.129399 897.9952 
L 452.795494 937.7776 
L 454.127683 674.3536 
L 454.793778 1177.816 
L 456.125967 1502.7952 
L 457.458157 785.0992 
L 461.454725 896.70496 
L 464.785198 1330.2256 
L 466.117387 839.9344 
L 466.783482 1230.232 
L 467.449577 1694.7184 
L 468.781766 1128.6256 
L 469.447861 991 
L 470.113956 1011.9664 
L 472.778334 1158.9104 
L 473.444429 913.048 
L 474.110524 1094.7568 
L 477.440997 834.77344 
L 478.107092 962.5072 
L 478.773186 714.136 
L 483.435849 1649.56 
L 484.768038 1709.2336 
L 487.432417 997.9888 
L 488.098512 1533.4384 
L 488.764606 763.16512 
L 490.762891 962.5072 
L 494.759459 1411.9408 
L 495.425553 1557.0928 
L 497.423837 1035.6208 
L 498.089932 918.424 
L 499.422121 1127.306036 
L 500.088216 866.8144 
L 500.754311 1177.0096 
L 501.420405 1433.4448 
L 502.0865 1426.9936 
L 502.752595 1183.9984 
L 504.084784 1019.4928 
L 505.416973 1711.9216 
L 506.749163 1365.7072 
L 508.081352 686.7184 
L 509.413541 658.2256 
L 510.079636 1012.82656 
L 510.745731 1123.7872 
L 511.411826 1058.7376 
L 512.07792 941.0032 
L 514.742299 601.24 
L 516.074488 1039.9216 
L 517.406678 1113.0352 
L 518.072772 849.6112 
L 519.404962 960.3568 
L 520.737151 1686.1168 
L 521.403246 972.184 
L 522.735435 578.6608 
L 525.399814 1763.5312 
L 526.732003 1101.208 
L 527.398098 968.9584 
L 529.396382 1858.1488 
L 530.062476 975.4096 
L 530.728571 968.9584 
L 531.394666 1618.3792 
L 532.06076 1206.5776 
L 532.726855 955.2496 
L 533.39295 858.2128 
L 534.725139 950.4112 
L 535.391234 945.304 
L 536.057329 959.64 
L 536.723423 1302.2704 
L 537.389518 1201.2016 
L 538.055613 594.7888 
L 538.721707 917.3488 
L 540.053897 948.5296 
L 540.719991 911.9728 
L 541.386086 1800.088 
L 542.718275 1157.656 
L 544.050465 946.3792 
L 546.048749 1258.1872 
L 546.714843 1125.72256 
L 550.045317 915.1984 
L 550.711411 995.8384 
L 552.043601 1008.2032 
L 552.709695 1051.4416 
L 553.37579 1476.4528 
L 554.041885 1599.0256 
L 554.707979 591.5632 
L 556.040169 1281.5728 
L 558.038453 1188.8368 
L 559.370642 1388.93152 
L 560.036737 1052.824 
L 561.368926 1415.704 
L 562.035021 678.6544 
L 563.36721 906.5968 
L 564.033305 824.8816 
L 564.6994 1455.37888 
L 565.365494 1143.1408 
L 566.031589 1467.8512 
L 566.697684 897.9952 
L 567.363778 1200.664 
L 568.029873 1376.4592 
L 568.695968 1205.5024 
L 569.362062 402.8656 
L 570.028157 1178.6224 
L 570.694252 1171.3648 
L 572.692536 503.3968 
L 573.35863 1140.4528 
L 575.356914 933.4768 
L 578.021293 1127.0128 
L 578.687388 1273.7776 
L 579.353483 1096.9072 
L 580.019577 1172.1712 
L 580.685672 1115.7232 
L 581.351767 1880.1904 
L 582.017861 956.056 
L 582.683956 1029.976 
L 583.350051 1052.0176 
L 586.680524 1005.8736 
L 587.346619 1163.6464 
L 588.012713 1427.7104 
L 588.678808 906.5968 
L 589.344903 897.9952 
L 590.010997 1557.0928 
L 590.677092 867.1728 
L 592.675376 1016.2672 
L 594.007565 952.024 
L 594.67366 842.0848 
L 595.339755 1214.9104 
L 596.005849 1201.2016 
L 596.671944 638.872 
L 598.670228 1174.68 
L 599.336323 962.5072 
L 600.002418 1167.3328 
L 600.668512 1072.1776 
L 601.334607 1021.1056 
L 602.000702 1338.2896 
L 602.666796 1025.5856 
L 603.332891 1038.8464 
L 603.998986 887.2432 
L 604.66508 849.6112 
L 605.99727 985.0864 
L 606.663364 910.8976 
L 607.329459 752.19808 
L 607.995554 897.1888 
L 609.327743 870.04 
L 609.993838 1396.24288 
L 610.659932 756.0688 
L 611.326027 949.6048 
L 612.658216 789.9376 
L 613.324311 901.2208 
L 615.98869 1381.8352 
L 616.654784 747.4672 
L 618.653068 1002.2896 
L 619.319163 1642.0336 
L 619.985258 1117.8736 
L 620.651352 1223.7808 
L 621.317447 884.0176 
L 621.983542 905.5216 
L 622.649637 993.1504 
L 623.315731 894.7696 
L 624.647921 1161.2848 
L 625.314015 1180.7728 
L 626.646205 875.416 
L 627.312299 1105.5088 
L 627.978394 1163.5696 
L 628.644489 1099.27264 
L 629.976678 867.352 
L 630.642773 1037.98624 
L 631.308867 1097.2656 
L 631.974962 768.9712 
L 632.641057 803.3776 
L 635.305435 1438.104 
L 635.97153 1516.02016 
L 637.969814 879.7168 
L 639.302003 1426.9936 
L 639.968098 1385.5984 
L 640.634193 1106.584 
L 641.966382 1370.22304 
L 642.632477 990.4624 
L 643.964666 931.3264 
L 644.630761 1433.4448 
L 645.296856 985.0864 
L 645.96295 1570.5328 
L 646.629045 958.2064 
L 647.29514 1008.7408 
L 648.627329 1697.944 
L 649.293424 585.112 
L 651.957802 1501.9888 
L 652.623897 1061.4256 
L 653.289992 1004.629741 
L 653.956086 1139.9152 
L 654.622181 914.1232 
L 655.288276 1160.0752 
L 655.95437 1168.9456 
L 656.620465 1274.584 
L 657.28656 1023.7936 
L 659.284844 1535.5888 
L 659.950938 976.216 
L 661.283128 682.9552 
L 662.615317 1386.6736 
L 663.281412 1021.312369 
L 664.613601 770.0464 
L 665.279696 1439.3584 
L 665.945791 1311.6784 
L 666.611885 971.1088 
L 667.27798 1100.2864 
L 668.610169 768.2544 
L 669.276264 930.2512 
L 669.942359 1801.1632 
L 670.608453 1165.3168 
L 671.274548 1047.5824 
L 671.940643 1852.7728 
L 672.606737 1493.8096 
L 673.272832 1362.4816 
L 673.938927 1644.4528 
L 674.605021 1135.768 
L 675.271116 1452.7984 
L 675.937211 1224.42592 
L 676.603305 934.552 
L 677.2694 1352.8048 
L 677.935495 1006.2832 
L 678.601589 1334.5264 
L 679.267684 1313.6944 
L 679.933779 1325.992 
L 680.599873 1072.1776 
L 681.265968 1034.5456 
L 682.598157 1054.9744 
L 683.264252 1449.5728 
L 683.930347 948.1712 
L 684.596441 1052.824 
L 685.262536 1241.752 
L 685.928631 1613.0032 
L 686.594725 922.1872 
L 687.26082 1043.5056 
L 687.926915 1221.3616 
L 688.59301 1583.875055 
L 689.925199 1972.12 
L 691.257388 843.16 
L 691.923483 1252.5424 
L 692.589578 1534.8208 
L 693.255672 849.6112 
L 693.921767 1241.9248 
L 694.587862 846.3856 
L 695.253956 1654.3984 
L 695.920051 591.5632 
L 696.586146 1802.922618 
L 697.918335 1167.6016 
L 698.58443 1295.8192 
L 699.916619 1468.9264 
L 700.582714 1164.2864 
L 701.248808 1624.5616 
L 701.914903 1347.9664 
L 703.247092 1691.224 
L 703.913187 1270.65952 
L 704.579282 1513.5472 
L 705.245376 1084.3632 
L 705.911471 1289.9056 
L 706.577566 903.3712 
L 707.24366 800.152 
L 708.57585 1624.8304 
L 709.241945 1242.5968 
L 709.908039 1044.2224 
L 710.574134 1013.47168 
L 711.240229 831.54784 
L 711.906323 1227.0064 
L 712.572418 1359.256 
L 713.238513 1397.9632 
L 713.904607 850.25632 
L 714.570702 1058.2 
L 715.236797 1350.7888 
L 715.902891 1714.71712 
L 716.568986 1492.312 
L 717.235081 1474.5712 
L 717.901175 1241.19904 
L 718.56727 1546.1104 
L 719.233365 1357.1056 
L 719.899459 1112.2288 
L 720.565554 1108.62688 
L 721.231649 1642.0336 
L 721.897743 936.7024 
L 722.563838 1482.904 
L 723.229933 1016.8048 
L 723.896027 1133.464 
L 724.562122 1217.8672 
L 725.228217 956.056 
L 725.894311 1221.7072 
L 726.560406 1764.6064 
L 727.226501 1440.6128 
L 727.892595 947.4544 
L 728.55869 1289.9056 
L 729.224785 1710.8464 
L 729.890879 1033.718523 
L 730.556974 738.328 
L 731.223069 1010.8912 
L 731.889164 1221.6304 
L 732.555258 1531.288 
L 733.221353 1372.1584 
L 733.887448 986.1616 
L 734.553542 1159.2688 
L 735.219637 1016.1904 
L 735.885732 1379.89984 
L 736.551826 838.8592 
L 738.55011 1125.9376 
L 739.216205 1157.8352 
L 740.548394 1161.4192 
L 741.214489 893.6944 
L 741.880584 990.071418 
L 743.212773 1437.96064 
L 743.878868 813.0544 
L 744.544962 957.9376 
L 745.877152 1289.368 
L 746.543246 1138.3024 
L 747.209341 1211.9536 
L 747.875436 1261.469389 
L 748.54153 968.9584 
L 749.207625 1415.1664 
L 749.87372 1645.7968 
L 750.539814 1012.504 
L 751.205909 1008.7408 
L 751.872004 930.2512 
L 752.538098 1181.20288 
L 753.204193 1236.6832 
L 753.870288 1396.02784 
L 754.536383 900.6832 
L 755.202477 1162.4944 
L 755.868572 1343.6656 
L 756.534667 985.624 
L 757.200761 1157.1184 
L 757.866856 1958.1424 
L 758.532951 1282.7632 
L 759.199045 1441.5088 
L 759.86514 774.13216 
L 760.531235 1326.35488 
L 761.197329 1130.776 
L 761.863424 1396.8112 
L 762.529519 1409.432 
L 763.195613 1668.9136 
L 765.193897 1519.6144 
L 765.859992 1099.0576 
L 767.192181 1078.168 
L 768.524371 1113.0352 
L 769.190465 1473.9952 
L 769.85656 1665.688 
L 770.522655 975.0512 
L 771.188749 1135.0768 
L 771.854844 1053.3616 
L 772.520939 1470.0016 
L 773.187033 1185.0736 
L 774.519223 1075.4032 
L 775.185318 1458.076655 
L 775.851412 1538.8144 
L 776.517507 1121.2784 
L 777.849696 1644.184 
L 778.515791 1366.2448 
L 779.181886 1300.9936 
L 779.84798 1715.1472 
L 780.514075 1673.752 
L 781.18017 1154.75296 
L 781.846264 936.7024 
L 782.512359 1615.9216 
L 783.178454 1279.4224 
L 783.844548 1319.375855 
L 784.510643 1352.4464 
L 785.176738 1332.278255 
L 785.842832 1254.424 
L 786.508927 1513.0096 
L 787.175022 1008.7408 
L 787.841116 1143.4096 
L 788.507211 1107.6592 
L 789.173306 1211.52352 
L 789.8394 1273.576 
L 790.505495 1010.8912 
L 791.17159 1234.5328 
L 792.503779 1097.9824 
L 793.169874 1327 
L 793.835968 1646.3344 
L 794.502063 1066.264 
L 795.168158 1032.3952 
L 795.834252 1198.7824 
L 796.500347 1076.7472 
L 797.166442 1121.0992 
L 797.832537 1017.3424 
L 798.498631 1059.92032 
L 799.164726 1312.338182 
L 799.830821 1361.6752 
L 800.496915 1170.5584 
L 801.16301 1697.944 
L 801.829105 917.3488 
L 802.495199 1176.2032 
L 803.161294 1270.22944 
L 803.827389 752.8432 
L 804.493483 938.461818 
L 805.159578 1179.118646 
L 805.825673 818.00032 
L 806.491767 1187.224 
L 807.157862 1121.441309 
L 807.823957 1417.3168 
L 808.490051 758.7568 
L 809.156146 1462.4752 
L 809.822241 1263.0256 
L 810.488335 1315.1728 
L 811.15443 1331.8384 
L 812.486619 1397.9632 
L 813.152714 1785.0352 
L 813.818809 1513.2784 
L 814.484903 829.61248 
L 815.150998 1785.0352 
L 815.817093 1131.0448 
L 816.483187 1284.5296 
L 817.149282 721.6624 
L 817.815377 1453.2592 
L 819.147566 943.1536 
L 819.813661 1310.872 
L 820.479756 1088.73568 
L 821.14585 1047.9856 
L 821.811945 1247.5696 
L 822.47804 1285.0672 
L 823.144134 1170.23584 
L 823.810229 1303.247855 
L 824.476324 1822.6672 
L 825.142418 1165.07488 
L 825.808513 1426.9936 
L 826.474608 886.168 
L 827.140702 1386.904 
L 827.806797 1794.712 
L 828.472892 1276.4656 
L 829.138986 1122.9808 
L 829.805081 1195.8256 
L 830.471176 865.7392 
L 831.803365 1608.7024 
L 832.46946 1067.215138 
L 833.135554 1156.0432 
L 834.467744 1151.576985 
L 835.133838 829.72 
L 835.799933 1128.6256 
L 836.466028 1002.50464 
L 837.798217 1789.8736 
L 838.464312 1132.3888 
L 839.796501 972.9904 
L 840.462596 1221.883388 
L 841.128691 817.3552 
L 841.794785 848.536 
L 843.126975 1551 
L 843.793069 1158.276308 
L 844.459164 879.7168 
L 845.125259 916.5424 
L 845.791353 1756.0048 
L 846.457448 1357.168847 
L 847.123543 1503.9472 
L 847.789637 1101.208 
L 848.455732 884.6896 
L 849.121827 871.1152 
L 850.454016 1580.942691 
L 851.786205 873.2656 
L 852.4523 1059.861673 
L 853.118395 1379.89984 
L 853.784489 1581.8224 
L 854.450584 1030.08352 
L 855.116679 1542.47008 
L 855.782773 1043.8384 
L 856.448868 905.5216 
L 857.114963 1279.6912 
L 857.781057 1112.212988 
L 858.447152 1786.648 
L 859.113247 1025.72896 
L 859.779341 1167.6016 
L 860.445436 873.2656 
L 861.777625 925.9504 
L 863.77591 1268.4784 
L 864.442004 1744.8944 
L 865.108099 931.864 
L 866.440288 820.0432 
L 867.106383 1159.7296 
L 867.772478 1054.616 
L 868.438572 1241.5216 
L 869.104667 777.0352 
L 869.770762 1030.2448 
L 870.436856 1473.944 
L 871.102951 658.7632 
L 871.769046 1072.686905 
L 872.43514 1214.483482 
L 873.101235 908.551709 
L 873.76733 1319.7424 
L 874.433424 1556.0176 
L 875.099519 1416.9136 
L 875.765614 1061.6048 
L 876.431708 1308.93664 
L 877.097803 1167.064 
L 877.763898 1094.187576 
L 878.429992 1952.7664 
L 879.096087 933.4768 
L 879.762182 980.7856 
L 880.428276 1081.3168 
L 881.094371 1054.9744 
L 881.760466 1172.632 
L 882.42656 1058.30752 
L 883.092655 1205.71744 
L 883.75875 1324.8496 
L 884.424844 1093.6816 
L 885.090939 1183.2304 
L 885.757034 671.128 
L 886.423129 1078.2256 
L 887.089223 1163.5696 
L 887.755318 1104.00352 
L 889.087507 1329.1504 
L 889.753602 916.2736 
L 890.419697 1131.3136 
L 891.085791 1177.5472 
L 891.751886 1336.03168 
L 892.417981 1324.74208 
L 893.084075 1141.528 
L 893.75017 1451.416 
L 894.416265 1028.0944 
L 895.082359 761.0864 
L 896.414549 1343.5888 
L 897.080643 1292.984582 
L 897.746738 1154.75296 
L 898.412833 1251.736 
L 899.078927 906.8656 
L 899.745022 798.0016 
L 900.411117 1013.3104 
L 901.077211 814.77472 
L 901.743306 742.7632 
L 902.409401 905.5216 
L 903.075495 1145.779927 
L 905.073779 906.8656 
L 905.739874 1382.9104 
L 907.072064 1156.0432 
L 907.738158 942.0784 
L 908.404253 941.86336 
L 909.070348 1700.0944 
L 909.736442 1203.78208 
L 910.402537 1071.1024 
L 911.068632 1109.0416 
L 911.734726 1006.921231 
L 912.400821 1117.336 
L 913.066916 888.96352 
L 913.73301 1040.4592 
L 914.399105 925.9504 
L 915.0652 725.4256 
L 917.063484 1304.4208 
L 917.729578 1275.142277 
L 918.395673 1172.1712 
L 919.727862 865.09408 
L 920.393957 1228.0816 
L 921.060052 795.5824 
L 921.726146 1206.04 
L 922.392241 1259.8 
L 923.058336 1110.3472 
L 923.72443 1127.0128 
L 924.390525 949.6048 
L 925.05662 614.1424 
L 925.722714 1042.072 
L 926.388809 996.9136 
L 927.054904 1349.9376 
L 927.720998 1315.563782 
L 928.387093 1292.16352 
L 929.053188 609.304 
L 930.385377 1212.7216 
L 931.051472 1411.51072 
L 931.717567 1151.2048 
L 932.383661 1299.5824 
L 933.049756 979.06528 
L 933.715851 1318.0144 
L 934.381945 1087.66048 
L 935.04804 985.0864 
L 935.714135 1217.3296 
L 936.380229 1121.9056 
L 937.046324 923.8 
L 937.712419 1193.368 
L 938.378513 966.136 
L 939.044608 1208.056 
L 939.710703 1357.32064 
L 940.376797 1371.0832 
L 941.042892 1001.85952 
L 941.708987 905.2528 
L 942.375081 1123.042831 
L 943.041176 992.344 
L 943.707271 1029.4384 
L 944.373365 820.312 
L 945.03946 1456.024 
L 945.705555 973.6176 
L 946.371649 982.709642 
L 947.037744 1185.366836 
L 947.703839 1234.74784 
L 948.369933 882.51232 
L 949.036028 1337.96704 
L 949.702123 1277.5408 
L 950.368217 1280.6896 
L 951.034312 962.5072 
L 951.700407 879.0448 
L 952.366502 1165.07488 
L 953.032596 1108.7344 
L 953.698691 1076.5552 
L 954.364786 1013.0416 
L 955.696975 906.2384 
L 956.36307 1329.8224 
L 957.029164 908.0752 
L 957.695259 1122.712 
L 958.361354 1385.940509 
L 959.027448 1096.168 
L 959.693543 1223.3776 
L 960.359638 1062.04 
L 961.025732 1226.2 
L 961.691827 897.9952 
L 962.357922 1028.0944 
L 963.024016 859.288 
L 963.690111 991.5376 
L 964.356206 1194.7504 
L 965.688395 1349.9376 
L 966.35449 886.936 
L 967.020584 977.56 
L 967.686679 1168.9456 
L 968.352774 913.048 
L 969.018868 1530.2128 
L 969.684963 965.543059 
L 970.351058 993.688 
L 971.017152 1134.343709 
L 971.683247 1016.7376 
L 972.349342 739.9408 
L 973.015436 926.104 
L 974.347626 1447.4224 
L 975.013721 1131.20608 
L 975.679815 977.8288 
L 976.34591 745.1824 
L 977.012005 974.2 
L 977.678099 953.9056 
L 978.344194 1206.4432 
L 979.010289 1151.080738 
L 979.676383 1418.392 
L 980.342478 798.497846 
L 981.008573 1228.7984 
L 981.674667 997.1824 
L 983.006857 1499.7488 
L 985.005141 981.8608 
L 985.671235 1467.3136 
L 986.33733 934.552 
L 987.003425 634.5712 
L 987.669519 1147.0832 
L 988.335614 1145.178021 
L 989.001709 830.2576 
L 989.667803 1324.1328 
L 990.333898 1144.9328 
L 990.999993 1267.00384 
L 991.666087 1212.81376 
L 992.332182 1206.04 
L 992.998277 1191.8832 
L 993.664371 1005.8736 
L 994.330466 1385.0608 
L 994.996561 1264.6384 
L 995.662656 733.4896 
L 996.32875 992.4592 
L 996.994845 851.099938 
L 997.66094 1549.5664 
L 998.327034 667.9024 
L 998.993129 1022.0016 
L 999.659224 1276.68064 
L 1000.325318 1175.71936 
L 1000.991413 1144.900218 
L 1001.657508 1021.312369 
L 1002.323602 979.7104 
L 1002.989697 1106.8528 
L 1003.655792 1144.900218 
L 1004.321886 1173.62272 
L 1004.987981 930.2512 
L 1005.654076 1203.352 
L 1006.32017 900.2992 
L 1006.986265 916.8112 
L 1007.65236 1260.0688 
L 1008.318454 1052.824 
L 1008.984549 1468.9264 
L 1009.650644 880.2544 
L 1010.316738 1091.5312 
L 1010.982833 1143.57088 
L 1011.648928 951.837908 
L 1012.315022 1000.56928 
L 1012.981117 1006.8592 
L 1013.647212 1075.0448 
L 1014.979401 920.8048 
L 1015.645496 1364.241018 
L 1016.977685 615.2176 
L 1017.64378 1176.04192 
L 1018.309875 1105.5088 
L 1018.975969 756.8752 
L 1019.642064 957.1312 
L 1020.308159 1460.8624 
L 1020.974253 1030.8496 
L 1021.640348 1673.2144 
L 1022.972537 754.456 
L 1023.638632 1059.2752 
L 1024.304727 1223.036431 
L 1024.970821 1088.52064 
L 1025.636916 1141.088145 
L 1026.303011 1226.419927 
L 1026.969105 1098.4432 
L 1027.6352 1078.6288 
L 1028.301295 990.4624 
L 1028.967389 962.5072 
L 1029.633484 1150.3984 
L 1030.299579 1203.45952 
L 1030.965673 1143.6784 
L 1032.297863 1256.0368 
L 1032.963957 1205.8608 
L 1033.630052 858.2128 
L 1034.296147 1020.568 
L 1034.962241 1348.504 
L 1035.628336 1397.9632 
L 1036.294431 780.7984 
L 1036.960525 1358.1808 
L 1037.62662 940.074618 
L 1038.292715 1092.6064 
L 1038.958809 809.8288 
L 1039.624904 987.9088 
L 1040.290999 960.6256 
L 1040.957094 481.8928 
L 1041.623188 1032.0368 
L 1042.289283 1228.7984 
L 1042.955378 1003.3648 
L 1043.621472 1384.5232 
L 1044.287567 1068.952 
L 1044.953662 1295.5504 
L 1045.619756 1324.74208 
L 1046.285851 1536.664 
L 1046.951946 961.3552 
L 1047.61804 1150.3984 
L 1048.284135 1013.237091 
L 1048.95023 1115.869818 
L 1049.616324 1262.488 
L 1050.282419 863.5888 
L 1050.948514 1014.1168 
L 1051.614608 1462.4752 
L 1052.946798 996.05344 
L 1053.612892 927.67072 
L 1054.278987 684.0304 
L 1054.945082 746.392 
L 1055.611176 987.2368 
L 1056.277271 834.811388 
L 1056.943366 1329.8672 
L 1057.60946 964.12 
L 1058.275555 1117.336 
L 1058.94165 1215.448 
L 1059.607744 603.3904 
L 1060.273839 1168.4848 
L 1060.939934 1024.8688 
L 1062.272123 1014.3184 
L 1062.938218 1221.52288 
L 1064.270407 1132.3888 
L 1064.936502 1123.7872 
L 1065.602597 1142.0656 
L 1066.268691 1542.04 
L 1066.934786 1400.1136 
L 1067.600881 1161.4192 
L 1068.266975 1264.20832 
L 1069.599165 1044.4912 
L 1070.265259 1052.4208 
L 1070.931354 1268.4016 
L 1071.597449 1167.186182 
L 1072.263543 996.9136 
L 1072.929638 1163.032 
L 1073.595733 1059.444968 
L 1074.261827 1179.59008 
L 1074.927922 1409.2528 
L 1075.594017 1020.568 
L 1076.260111 1052.5552 
L 1076.926206 827.032 
L 1077.592301 698.008 
L 1078.258395 941.5408 
L 1078.92449 1018.9552 
L 1079.590585 886.5264 
L 1080.256679 1135.6144 
L 1080.922774 714.136 
L 1081.588869 861.047418 
L 1082.254963 1037.7712 
L 1082.921058 467.3776 
L 1083.587153 843.80512 
L 1084.253248 902.8336 
L 1084.919342 1100.4912 
L 1085.585437 1023.256 
L 1086.251532 1456.024 
L 1087.583721 1061.21056 
L 1088.249816 1149.592 
L 1088.91591 1018.4176 
L 1089.582005 1375.384 
L 1090.2481 1015.9088 
L 1090.914194 1045.2976 
L 1091.580289 1038.3088 
L 1092.246384 837.784 
L 1092.912478 1172.7088 
L 1093.578573 964.12 
L 1094.244668 987.5056 
L 1094.910762 1343.128 
L 1095.576857 922.7248 
L 1096.242952 700.1584 
L 1097.575141 1043.6848 
L 1098.241236 1089.3808 
L 1098.90733 1334.5264 
L 1099.573425 1037.4128 
L 1100.23952 875.0128 
L 1100.905614 1157.4768 
L 1102.237804 1000.1392 
L 1103.569993 1056.5104 
L 1104.902182 1185.0736 
L 1105.568277 963.5824 
L 1106.234372 590.3536 
L 1106.900467 1028.0944 
L 1108.898751 915.736 
L 1109.564845 927.67072 
L 1110.23094 1026.328 
L 1110.897035 1033.112 
L 1111.563129 1090.24096 
L 1113.561413 991.3072 
L 1114.893603 745.3168 
L 1116.225792 788.64736 
L 1116.891887 974.3344 
L 1117.557981 846.3856 
L 1118.224076 928.1008 
L 1118.890171 1094.7568 
L 1119.556265 866.8144 
L 1120.22236 934.0144 
L 1120.888455 1041.1312 
L 1122.220644 932.6704 
L 1123.552833 1037.2336 
L 1124.218928 1503.3328 
L 1124.885023 1047.448 
L 1125.551117 1285.6048 
L 1126.883307 982.936 
L 1127.549402 919.4992 
L 1128.215496 1009.60096 
L 1128.881591 865.7392 
L 1129.547686 921.86464 
L 1130.21378 1016.4464 
L 1131.54597 1137.185846 
L 1132.878159 777.0352 
L 1133.544254 894.7696 
L 1134.210348 789.4 
L 1134.876443 1205.07232 
L 1136.208632 891.544 
L 1136.874727 818.4304 
L 1137.540822 481.8928 
L 1138.206916 890.4688 
L 1139.539106 895.3072 
L 1140.2052 1040.3824 
L 1140.871295 1495.8064 
L 1141.53739 1015.5504 
L 1142.203484 780.7984 
L 1142.869579 1154.4304 
L 1144.201768 873.2656 
L 1144.867863 910.8976 
L 1146.866147 1165.72 
L 1148.198336 799.6144 
L 1148.864431 831.3328 
L 1149.530526 1143.1408 
L 1150.196621 1188.2992 
L 1150.862715 971.1088 
L 1151.52881 1048.1648 
L 1152.194905 856.5232 
L 1152.860999 843.5632 
L 1153.527094 943.1536 
L 1154.193189 852.4336 
L 1154.859283 1514.0848 
L 1156.191473 1477.528 
L 1156.857567 1049.0608 
L 1157.523662 1452.15328 
L 1158.189757 1454.4112 
L 1158.855851 775.4224 
L 1159.521946 1156.5808 
L 1160.188041 1126.4752 
L 1160.854135 1635.5824 
L 1162.186325 852.0304 
L 1162.852419 1362.4816 
L 1163.518514 1476.4528 
L 1164.184609 1633.432 
L 1164.850703 865.7392 
L 1165.516798 1212.2608 
L 1166.182893 875.416 
L 1167.515082 943.8704 
L 1168.181177 764.6704 
L 1168.847271 1310.4688 
L 1170.845555 897.4576 
L 1171.51165 913.048 
L 1172.84384 1093.144 
L 1173.509934 865.336 
L 1174.842124 1360.8688 
L 1175.508218 895.3072 
L 1176.840408 917.3488 
L 1177.506502 700.1584 
L 1178.172597 1044.9392 
L 1179.504786 1334.8336 
L 1180.170881 859.288 
L 1180.836976 920.5744 
L 1182.169165 853.2976 
L 1183.501354 1088.62816 
L 1184.167449 1068.952 
L 1184.833544 1522.6864 
L 1185.499638 1568.92 
L 1186.165733 985.0864 
L 1187.497922 857.1376 
L 1188.830112 1018.9552 
L 1189.496206 1004.8432 
L 1190.162301 827.35456 
L 1190.828396 1120.5616 
L 1192.160585 807.6784 
L 1193.492775 1173.2464 
L 1194.158869 1045.5664 
L 1195.491059 1078.6288 
L 1196.157153 828.824 
L 1197.489343 846.3856 
L 1198.155437 1201.011859 
L 1199.487627 743.1664 
L 1200.153721 955.3392 
L 1201.485911 1259.2624 
L 1202.152005 750.6928 
L 1202.8181 1167.3328 
L 1203.484195 835.6336 
L 1204.816384 990.24736 
L 1205.482479 986.6992 
L 1206.814668 724.45792 
L 1207.480763 985.73152 
L 1208.146857 970.24864 
L 1208.812952 1095.5632 
L 1209.479047 946.1104 
L 1210.145141 928.1008 
L 1212.143425 973.7968 
L 1213.475615 866.2 
L 1214.141709 788.8624 
L 1214.807804 827.032 
L 1215.473899 1188.94432 
L 1216.139994 1217.3296 
L 1216.806088 1015.876218 
L 1217.472183 949.9632 
L 1218.138278 828.791418 
L 1218.804372 1080.2416 
L 1219.470467 633.496 
L 1220.136562 794.13088 
L 1220.802656 839.9344 
L 1222.134846 1060.888 
L 1222.80094 868.9648 
L 1224.13313 1106.584 
L 1224.799224 1063.576 
L 1226.131414 810.1872 
L 1226.797508 904.0432 
L 1227.463603 860.9008 
L 1228.129698 1050.4048 
L 1228.795792 1030.2448 
L 1229.461887 829.1824 
L 1230.127982 1002.50464 
L 1231.460171 1033.4704 
L 1232.79236 971.4672 
L 1233.458455 762.52 
L 1234.12455 1042.072 
L 1234.790644 1016.536 
L 1235.456739 1009.60096 
L 1236.122834 889.3936 
L 1237.455023 1373.2336 
L 1238.121118 866.2768 
L 1240.119402 920.5744 
L 1240.785497 1007.169354 
L 1241.451591 952.8304 
L 1242.783781 1033.4704 
L 1243.449875 1049.5984 
L 1244.11597 625.10944 
L 1244.782065 1029.1696 
L 1246.114254 966.4496 
L 1246.780349 872.83552 
L 1247.446443 1079.704 
L 1248.112538 1596.8752 
L 1248.778633 935.32 
L 1250.110822 1115.1856 
L 1250.776917 911.9728 
L 1251.443011 938.3152 
L 1252.109106 1035.6208 
L 1252.775201 805.528 
L 1253.441295 856.0624 
L 1254.10739 750.6928 
L 1254.773485 1084.43488 
L 1255.439579 1092.82144 
L 1257.437863 1470.5392 
L 1258.103958 838.8592 
L 1259.436148 872.1904 
L 1260.102242 879.7168 
L 1264.09881 1142.0656 
L 1266.097094 1168.9456 
L 1267.429284 1412.4784 
L 1268.761473 1299.25984 
L 1269.427568 1015.7296 
L 1270.759757 823.8064 
L 1271.425852 1036.696 
L 1272.091946 816.71008 
L 1274.756325 803.3776 
L 1275.42242 1226.36128 
L 1276.088514 796.3888 
L 1278.752893 951.7552 
L 1280.085082 1054.4368 
L 1282.083367 779.7232 
L 1283.415556 1256.0368 
L 1284.747745 1010.8912 
L 1285.41384 1482.904 
L 1287.412124 841.3168 
L 1288.744313 1132.3888 
L 1289.410408 1057.1248 
L 1290.076503 801.7648 
L 1290.742597 1067.8768 
L 1291.408692 596.9392 
L 1292.074787 510.9232 
L 1293.406976 1227.0064 
L 1294.073071 1375.384 
L 1294.739165 1190.4496 
L 1295.40526 892.0816 
L 1298.735733 1101.208 
L 1300.067923 962.5072 
L 1302.732301 917.3488 
L 1303.398396 600.1648 
L 1304.064491 456.088 
L 1304.730586 1494.7312 
L 1305.39668 856.0624 
L 1306.062775 1568.92 
L 1307.394964 900.1456 
L 1308.061059 956.056 
L 1309.393248 425.4448 
L 1310.059343 1221.6304 
L 1312.057627 1051.7488 
L 1312.723722 699.6208 
L 1314.055911 864.1264 
L 1314.722006 1027.0192 
L 1316.054195 943.1536 
L 1322.715142 1461.4 
L 1324.047331 972.184 
L 1324.713426 786.1744 
L 1325.379521 1143.78592 
L 1326.045615 831.8704 
L 1326.71171 578.6608 
L 1328.043899 885.8992 
L 1328.709994 925.266182 
L 1329.376089 1641.496 
L 1332.706562 823.8064 
L 1333.372657 1154.2 
L 1334.704846 1371.51328 
L 1335.370941 1018.4176 
L 1336.70313 838.3216 
L 1337.369225 901.2208 
L 1338.035319 1077.5536 
L 1338.701414 1127.0128 
L 1339.367509 1309.7968 
L 1340.033603 1156.0432 
L 1340.699698 831.430545 
L 1341.365793 1443.1216 
L 1344.030171 1217.3296 
L 1344.696266 929.176 
L 1348.692834 939.928 
L 1350.691118 844.2352 
L 1351.357213 1036.696 
L 1352.689402 1000.1392 
L 1353.355497 1166.2576 
L 1354.021592 1542.04 
L 1355.353781 1578.5968 
L 1358.01816 578.6608 
L 1359.350349 759.2944 
L 1360.682538 1066.8016 
L 1361.348633 1154.4304 
L 1363.346917 1472.152 
L 1364.679106 1339.9024 
L 1367.343485 1403.3392 
L 1368.00958 672.7408 
L 1368.675674 1054.9744 
L 1369.341769 987.2368 
L 1372.006148 947.66944 
L 1372.672243 1525.912 
L 1376.668811 1515.6976 
L 1379.333189 1351.192 
L 1381.331473 1277.97088 
L 1382.663663 1396.3504 
L 1383.995852 625.9696 
L 1385.994136 1010.8912 
L 1387.326325 951.2176 
L 1387.99242 618.4432 
L 1389.990704 1362.4816 
L 1391.988988 800.152 
L 1392.655083 896.92 
L 1393.321178 1458.1744 
L 1393.987272 950.68 
L 1394.653367 772.1968 
L 1395.985556 961.432 
L 1399.982124 1128.6256 
L 1402.646503 667.04224 
L 1403.312598 1330.2256 
L 1403.978692 1421.6176 
L 1406.643071 770.0464 
L 1407.97526 1206.04 
L 1409.30745 1476.9904 
L 1410.639639 1204.4272 
L 1411.971828 1061.4256 
L 1412.637923 1039.384 
L 1416.634491 1035.0832 
L 1417.300586 1188.2992 
L 1419.29887 543.1792 
L 1420.631059 920.5744 
L 1421.963249 509.848 
L 1423.961533 778.648 
L 1424.627627 1436.6704 
L 1425.293722 1207.6528 
L 1425.959817 743.1664 
L 1426.625911 945.304 
L 1427.958101 1251.1984 
L 1429.29029 1023.7936 
L 1430.622479 1307.6464 
L 1431.954669 1199.8192 
L 1436.617332 1196.5936 
L 1437.283426 984.5488 
L 1438.615616 741.016 
L 1439.28171 830.2576 
L 1440.6139 1431.832 
L 1441.279994 1363.77184 
L 1441.946089 814.1296 
L 1442.612184 1428.0688 
L 1443.944373 1428.6064 
L 1445.276562 1193.1376 
L 1447.274846 1245.71488 
L 1448.607036 1216.2544 
L 1449.27313 1362.4816 
L 1451.271414 1101.5664 
L 1451.937509 975.4096 
L 1452.603604 997.9888 
L 1456.600172 1080.2416 
L 1457.266267 1137.7648 
L 1459.264551 1178.6224 
L 1459.930645 1474.3024 
L 1460.59674 837.784 
L 1462.595024 1075.4032 
L 1465.925497 903.64 
L 1466.591592 1161.9568 
L 1469.255971 933.4768 
L 1469.922065 1038.8464 
L 1470.58816 972.184 
L 1471.254255 1453.8736 
L 1471.920349 1767.832 
L 1473.252539 827.032 
L 1475.250823 677.5792 
L 1475.916917 885.0928 
L 1476.583012 1237.32832 
L 1477.915201 1465.7008 
L 1478.581296 1100.1328 
L 1479.247391 1029.1696 
L 1480.57958 980.7856 
L 1481.245675 1749.5536 
L 1482.577864 690.4816 
L 1483.243959 1543.1152 
L 1483.910054 696.3952 
L 1484.576148 1267.5568 
L 1485.242243 1136.6896 
L 1486.574432 957.1312 
L 1487.240527 1537.7392 
L 1487.906622 1423.4992 
L 1490.571 1547.416 
L 1491.237095 1817.2912 
L 1492.569284 949.6048 
L 1495.899758 1588.2736 
L 1497.898042 1276.0816 
L 1498.564136 1499.032 
L 1499.896326 1479.6784 
L 1500.56242 1654.3984 
L 1504.558989 838.8592 
L 1505.225083 1388.2864 
L 1505.891178 521.6752 
L 1506.557273 1374.3088 
L 1507.889462 1139.9152 
L 1508.555557 1504.408 
L 1509.887746 761.7136 
L 1512.552125 591.5632 
L 1513.218219 877.5664 
L 1513.884314 847.9984 
L 1514.550409 979.7104 
L 1515.216503 1740.952 
L 1515.882598 1389.8992 
L 1518.546977 1261.4128 
L 1519.879166 762.52 
L 1521.87745 1550.6416 
L 1522.543545 1086.6928 
L 1525.874018 995.8384 
L 1535.865438 1218.4048 
L 1537.197628 1629.1312 
L 1539.862006 777.0352 
L 1547.189048 1059.2752 
L 1551.185616 818.4304 
L 1557.846563 989.3872 
L 1558.512657 781.8736 
L 1559.178752 909.8224 
L 1575.165024 525.976 
L 1591.817391 892.6192 
L 1601.142717 806.6032 
L 1611.134137 605.5408 
L 1622.457746 897.9952 
L 1647.769344 794.776 
L 1648.435439 1133.464 
L 1654.430291 541.0288 
L 1665.087806 785.0992 
L 1684.404551 1023.7936 
L 1691.065498 1125.9376 
L 1692.397687 1010.8912 
L 1706.385676 811.9792 
L 1707.717865 864.664 
L 1712.380528 1143.1408 
L 1713.712717 779.7232 
L 1721.039759 719.512 
L 1723.038043 710.9104 
L 1725.036327 1011.9664 
L 1729.032895 794.2384 
L 1729.698989 730.264 
L 1732.363368 566.8336 
L 1733.029463 761.4448 
L 1739.024315 824.8816 
L 1739.690409 811.9792 
L 1740.356504 1091.5312 
L 1741.688693 841.0096 
L 1747.017451 624.8944 
L 1751.680114 794.776 
L 1751.680114 794.776 
" style="fill:none;stroke:#0000ff;stroke-linecap:square;stroke-width:1.5;"/>
   </g>
   <g id="patch_3">
    <path d="M 47.24375 2052.76 
L 47.24375 278.68 
" style="fill:none;stroke:#000000;stroke-linecap:square;stroke-linejoin:miter;stroke-width:0.8;"/>
   </g>
   <g id="patch_4">
    <path d="M 1832.84375 2052.76 
L 1832.84375 278.68 
" style="fill:none;stroke:#000000;stroke-linecap:square;stroke-linejoin:miter;stroke-width:0.8;"/>
   </g>
   <g id="patch_5">
    <path d="M 47.24375 2052.76 
L 1832.84375 2052.76 
" style="fill:none;stroke:#000000;stroke-linecap:square;stroke-linejoin:miter;stroke-width:0.8;"/>
   </g>
   <g id="patch_6">
    <path d="M 47.24375 278.68 
L 1832.84375 278.68 
" style="fill:none;stroke:#000000;stroke-linecap:square;stroke-linejoin:miter;stroke-width:0.8;"/>
   </g>
   <g id="text_14">
    <text style="font-family:DejaVu Sans;font-size:12px;font-stretch:normal;font-style:normal;font-weight:normal;text-anchor:middle;" transform="rotate(-0, 940.04375, 272.68)" x="940.04375" y="272.68">temperature-&gt;Retransmission_day</text>
   </g>
  </g>
  <g id="legend_1">
   <g id="patch_7">
    <path d="M 1847.564062 22.95625 
L 2058.44375 22.95625 
Q 2060.44375 22.95625 2060.44375 20.95625 
L 2060.44375 7 
Q 2060.44375 5 2058.44375 5 
L 1847.564062 5 
Q 1845.564062 5 1845.564062 7 
L 1845.564062 20.95625 
Q 1845.564062 22.95625 1847.564062 22.95625 
z
" style="fill:#ffffff;opacity:0.8;stroke:#cccccc;stroke-linejoin:miter;"/>
   </g>
   <g id="line2d_13">
    <path d="M 1849.564062 13.098438 
L 1869.564062 13.098438 
" style="fill:none;stroke:#0000ff;stroke-linecap:square;stroke-width:1.5;"/>
   </g>
   <g id="line2d_14"/>
   <g id="text_15">
    <text style="font-family:DejaVu Sans;font-size:10px;font-stretch:normal;font-style:normal;font-weight:normal;text-anchor:start;" transform="rotate(-0, 1877.564062, 16.598438)" x="1877.564062" y="16.598438">Retransmission_day[dimensionless]</text>
   </g>
  </g>
 </g>
 <defs>
  <clipPath id="p62a37b6252">
   <rect height="1774.08" width="1785.6" x="47.24375" y="278.68"/>
  </clipPath>
 </defs>
</svg>
