<?xml version="1.0" encoding="utf-8" standalone="no"?>
<!DOCTYPE svg PUBLIC "-//W3C//DTD SVG 1.1//EN"
  "http://www.w3.org/Graphics/SVG/1.1/DTD/svg11.dtd">
<!-- Created with matplotlib (https://matplotlib.org/) -->
<svg height="2090.31625pt" version="1.1" viewBox="0 0 2065.44375 2090.31625" width="2065.44375pt" xmlns="http://www.w3.org/2000/svg" xmlns:xlink="http://www.w3.org/1999/xlink">
 <metadata>
  <rdf:RDF xmlns:cc="http://creativecommons.org/ns#" xmlns:dc="http://purl.org/dc/elements/1.1/" xmlns:rdf="http://www.w3.org/1999/02/22-rdf-syntax-ns#">
   <cc:Work>
    <dc:type rdf:resource="http://purl.org/dc/dcmitype/StillImage"/>
    <dc:date>2022-07-23T21:27:12.617877</dc:date>
    <dc:format>image/svg+xml</dc:format>
    <dc:creator>
     <cc:Agent>
      <dc:title>Matplotlib v3.3.2, https://matplotlib.org/</dc:title>
     </cc:Agent>
    </dc:creator>
   </cc:Work>
  </rdf:RDF>
 </metadata>
 <defs>
  <style type="text/css">*{stroke-linecap:butt;stroke-linejoin:round;}</style>
 </defs>
 <g id="figure_1">
  <g id="patch_1">
   <path d="M 0 2090.31625 
L 2065.44375 2090.31625 
L 2065.44375 0 
L 0 0 
z
" style="fill:#ffffff;"/>
  </g>
  <g id="axes_1">
   <g id="patch_2">
    <path d="M 47.24375 2052.76 
L 1832.84375 2052.76 
L 1832.84375 278.68 
L 47.24375 278.68 
z
" style="fill:#ffffff;"/>
   </g>
   <g id="matplotlib.axis_1">
    <g id="xtick_1">
     <g id="line2d_1">
      <defs>
       <path d="M 0 0 
L 0 3.5 
" id="m3b756cbf9c" style="stroke:#000000;stroke-width:0.8;"/>
      </defs>
      <g>
       <use style="stroke:#000000;stroke-width:0.8;" x="109.458677" xlink:href="#m3b756cbf9c" y="2052.76"/>
      </g>
     </g>
     <g id="text_1">
      <text style="font-family:DejaVu Sans;font-size:10px;font-stretch:normal;font-style:normal;font-weight:normal;text-anchor:middle;" transform="rotate(-0, 109.458677, 2067.358438)" x="109.458677" y="2067.358438">5</text>
     </g>
    </g>
    <g id="xtick_2">
     <g id="line2d_2">
      <g>
       <use style="stroke:#000000;stroke-width:0.8;" x="425.270492" xlink:href="#m3b756cbf9c" y="2052.76"/>
      </g>
     </g>
     <g id="text_2">
      <text style="font-family:DejaVu Sans;font-size:10px;font-stretch:normal;font-style:normal;font-weight:normal;text-anchor:middle;" transform="rotate(-0, 425.270492, 2067.358438)" x="425.270492" y="2067.358438">10</text>
     </g>
    </g>
    <g id="xtick_3">
     <g id="line2d_3">
      <g>
       <use style="stroke:#000000;stroke-width:0.8;" x="741.082307" xlink:href="#m3b756cbf9c" y="2052.76"/>
      </g>
     </g>
     <g id="text_3">
      <text style="font-family:DejaVu Sans;font-size:10px;font-stretch:normal;font-style:normal;font-weight:normal;text-anchor:middle;" transform="rotate(-0, 741.082307, 2067.358438)" x="741.082307" y="2067.358438">15</text>
     </g>
    </g>
    <g id="xtick_4">
     <g id="line2d_4">
      <g>
       <use style="stroke:#000000;stroke-width:0.8;" x="1056.894121" xlink:href="#m3b756cbf9c" y="2052.76"/>
      </g>
     </g>
     <g id="text_4">
      <text style="font-family:DejaVu Sans;font-size:10px;font-stretch:normal;font-style:normal;font-weight:normal;text-anchor:middle;" transform="rotate(-0, 1056.894121, 2067.358438)" x="1056.894121" y="2067.358438">20</text>
     </g>
    </g>
    <g id="xtick_5">
     <g id="line2d_5">
      <g>
       <use style="stroke:#000000;stroke-width:0.8;" x="1372.705936" xlink:href="#m3b756cbf9c" y="2052.76"/>
      </g>
     </g>
     <g id="text_5">
      <text style="font-family:DejaVu Sans;font-size:10px;font-stretch:normal;font-style:normal;font-weight:normal;text-anchor:middle;" transform="rotate(-0, 1372.705936, 2067.358438)" x="1372.705936" y="2067.358438">25</text>
     </g>
    </g>
    <g id="xtick_6">
     <g id="line2d_6">
      <g>
       <use style="stroke:#000000;stroke-width:0.8;" x="1688.517751" xlink:href="#m3b756cbf9c" y="2052.76"/>
      </g>
     </g>
     <g id="text_6">
      <text style="font-family:DejaVu Sans;font-size:10px;font-stretch:normal;font-style:normal;font-weight:normal;text-anchor:middle;" transform="rotate(-0, 1688.517751, 2067.358438)" x="1688.517751" y="2067.358438">30</text>
     </g>
    </g>
    <g id="text_7">
     <text style="font-family:DejaVu Sans;font-size:10px;font-stretch:normal;font-style:normal;font-weight:normal;text-anchor:middle;" transform="rotate(-0, 940.04375, 2081.036562)" x="940.04375" y="2081.036562">temperature from BuienRadar</text>
    </g>
   </g>
   <g id="matplotlib.axis_2">
    <g id="ytick_1">
     <g id="line2d_7">
      <defs>
       <path d="M 0 0 
L -3.5 0 
" id="m62ed2b86ac" style="stroke:#000000;stroke-width:0.8;"/>
      </defs>
      <g>
       <use style="stroke:#000000;stroke-width:0.8;" x="47.24375" xlink:href="#m62ed2b86ac" y="2037.664828"/>
      </g>
     </g>
     <g id="text_8">
      <text style="font-family:DejaVu Sans;font-size:10px;font-stretch:normal;font-style:normal;font-weight:normal;text-anchor:end;" transform="rotate(-0, 40.24375, 2041.464046)" x="40.24375" y="2041.464046">100</text>
     </g>
    </g>
    <g id="ytick_2">
     <g id="line2d_8">
      <g>
       <use style="stroke:#000000;stroke-width:0.8;" x="47.24375" xlink:href="#m62ed2b86ac" y="1839.044138"/>
      </g>
     </g>
     <g id="text_9">
      <text style="font-family:DejaVu Sans;font-size:10px;font-stretch:normal;font-style:normal;font-weight:normal;text-anchor:end;" transform="rotate(-0, 40.24375, 1842.843357)" x="40.24375" y="1842.843357">200</text>
     </g>
    </g>
    <g id="ytick_3">
     <g id="line2d_9">
      <g>
       <use style="stroke:#000000;stroke-width:0.8;" x="47.24375" xlink:href="#m62ed2b86ac" y="1640.423448"/>
      </g>
     </g>
     <g id="text_10">
      <text style="font-family:DejaVu Sans;font-size:10px;font-stretch:normal;font-style:normal;font-weight:normal;text-anchor:end;" transform="rotate(-0, 40.24375, 1644.222667)" x="40.24375" y="1644.222667">300</text>
     </g>
    </g>
    <g id="ytick_4">
     <g id="line2d_10">
      <g>
       <use style="stroke:#000000;stroke-width:0.8;" x="47.24375" xlink:href="#m62ed2b86ac" y="1441.802759"/>
      </g>
     </g>
     <g id="text_11">
      <text style="font-family:DejaVu Sans;font-size:10px;font-stretch:normal;font-style:normal;font-weight:normal;text-anchor:end;" transform="rotate(-0, 40.24375, 1445.601977)" x="40.24375" y="1445.601977">400</text>
     </g>
    </g>
    <g id="ytick_5">
     <g id="line2d_11">
      <g>
       <use style="stroke:#000000;stroke-width:0.8;" x="47.24375" xlink:href="#m62ed2b86ac" y="1243.182069"/>
      </g>
     </g>
     <g id="text_12">
      <text style="font-family:DejaVu Sans;font-size:10px;font-stretch:normal;font-style:normal;font-weight:normal;text-anchor:end;" transform="rotate(-0, 40.24375, 1246.981288)" x="40.24375" y="1246.981288">500</text>
     </g>
    </g>
    <g id="ytick_6">
     <g id="line2d_12">
      <g>
       <use style="stroke:#000000;stroke-width:0.8;" x="47.24375" xlink:href="#m62ed2b86ac" y="1044.561379"/>
      </g>
     </g>
     <g id="text_13">
      <text style="font-family:DejaVu Sans;font-size:10px;font-stretch:normal;font-style:normal;font-weight:normal;text-anchor:end;" transform="rotate(-0, 40.24375, 1048.360598)" x="40.24375" y="1048.360598">600</text>
     </g>
    </g>
    <g id="ytick_7">
     <g id="line2d_13">
      <g>
       <use style="stroke:#000000;stroke-width:0.8;" x="47.24375" xlink:href="#m62ed2b86ac" y="845.94069"/>
      </g>
     </g>
     <g id="text_14">
      <text style="font-family:DejaVu Sans;font-size:10px;font-stretch:normal;font-style:normal;font-weight:normal;text-anchor:end;" transform="rotate(-0, 40.24375, 849.739908)" x="40.24375" y="849.739908">700</text>
     </g>
    </g>
    <g id="ytick_8">
     <g id="line2d_14">
      <g>
       <use style="stroke:#000000;stroke-width:0.8;" x="47.24375" xlink:href="#m62ed2b86ac" y="647.32"/>
      </g>
     </g>
     <g id="text_15">
      <text style="font-family:DejaVu Sans;font-size:10px;font-stretch:normal;font-style:normal;font-weight:normal;text-anchor:end;" transform="rotate(-0, 40.24375, 651.119219)" x="40.24375" y="651.119219">800</text>
     </g>
    </g>
    <g id="ytick_9">
     <g id="line2d_15">
      <g>
       <use style="stroke:#000000;stroke-width:0.8;" x="47.24375" xlink:href="#m62ed2b86ac" y="448.69931"/>
      </g>
     </g>
     <g id="text_16">
      <text style="font-family:DejaVu Sans;font-size:10px;font-stretch:normal;font-style:normal;font-weight:normal;text-anchor:end;" transform="rotate(-0, 40.24375, 452.498529)" x="40.24375" y="452.498529">900</text>
     </g>
    </g>
    <g id="text_17">
     <text style="font-family:DejaVu Sans;font-size:10px;font-stretch:normal;font-style:normal;font-weight:normal;text-anchor:middle;" transform="rotate(-90, 14.798438, 1165.72)" x="14.798438" y="1165.72">Retransmission_day[dimensionless]</text>
    </g>
   </g>
   <g id="line2d_16">
    <path clip-path="url(#p22120d74d7)" d="M 128.407386 1459.678621 
L 141.039859 1553.030345 
L 147.356095 1690.078621 
L 159.988568 1580.837241 
L 166.304804 1449.747586 
L 172.62104 1578.851034 
L 197.885986 1149.830345 
L 216.834694 1568.92 
L 223.150931 1503.375172 
L 229.467167 1274.961379 
L 235.783403 1640.423448 
L 248.415876 1239.209655 
L 254.732112 1314.685517 
L 261.048349 1632.478621 
L 267.364585 1568.92 
L 273.680821 1632.478621 
L 279.997057 1441.802759 
L 292.62953 1513.306207 
L 298.945766 1547.071724 
L 311.578239 1398.106207 
L 317.894475 1449.747586 
L 324.210711 1584.809655 
L 330.526948 1566.933793 
L 336.843184 1330.575172 
L 343.15942 1455.706207 
L 349.475657 1638.437241 
L 355.791893 1670.216552 
L 362.108129 1322.630345 
L 374.740602 1449.747586 
L 381.056838 1451.733793 
L 387.373074 1566.933793 
L 393.689311 1298.795862 
L 400.005547 1251.126897 
L 406.321783 1153.802759 
L 412.63802 1189.554483 
L 418.954256 1183.595862 
L 425.270492 1032.644138 
L 431.586728 1231.264828 
L 437.902965 1225.306207 
L 444.219201 1197.49931 
L 450.535437 1310.713103 
L 456.851674 1247.154483 
L 463.16791 1419.954483 
L 469.484146 1269.002759 
L 475.800382 1380.230345 
L 482.116619 1187.568276 
L 488.432855 1380.230345 
L 494.749091 1290.851034 
L 501.065328 1189.554483 
L 507.381564 1499.402759 
L 513.6978 1159.761379 
L 520.014037 1423.926897 
L 526.330273 1229.278621 
L 532.646509 984.975172 
L 538.962745 802.244138 
L 545.278982 1292.837241 
L 551.595218 1394.133793 
L 557.911454 1503.375172 
L 564.227691 1372.285517 
L 570.543927 1310.713103 
L 576.860163 1179.623448 
L 583.176399 1292.837241 
L 589.492636 1197.49931 
L 595.808872 1372.285517 
L 602.125108 1276.947586 
L 608.441345 1213.388966 
L 614.757581 1245.168276 
L 621.073817 1322.630345 
L 627.390054 1199.485517 
L 633.70629 1127.982069 
L 640.022526 1402.078621 
L 646.338762 1026.685517 
L 652.654999 1195.513103 
L 658.971235 1219.347586 
L 665.287471 1278.933793 
L 671.603708 1227.292414 
L 677.919944 1342.492414 
L 684.23618 947.237241 
L 690.552416 1249.14069 
L 696.868653 1380.230345 
L 703.184889 1386.188966 
L 709.501125 1199.485517 
L 715.817362 1177.637241 
L 722.133598 359.32 
L 728.449834 1012.782069 
L 734.76607 1185.582069 
L 741.082307 1415.982069 
L 747.398543 1181.609655 
L 753.714779 1127.982069 
L 760.031016 822.106207 
L 766.347252 1124.009655 
L 772.663488 1215.375172 
L 778.979725 1110.106207 
L 785.295961 1203.457931 
L 791.612197 1290.851034 
L 797.928433 1038.602759 
L 804.24467 1245.168276 
L 810.560906 849.913103 
L 816.877142 1106.133793 
L 823.193379 1191.54069 
L 829.509615 1131.954483 
L 835.825851 1304.754483 
L 842.142087 800.257931 
L 848.458324 1207.430345 
L 854.77456 1276.947586 
L 861.090796 1288.864828 
L 867.407033 887.651034 
L 873.723269 1125.995862 
L 880.039505 955.182069 
L 886.355742 875.733793 
L 892.671978 923.402759 
L 898.988214 1205.444138 
L 911.620687 1225.306207 
L 917.936923 1296.809655 
L 924.253159 1217.361379 
L 930.569396 1211.402759 
L 936.885632 903.54069 
L 943.201868 1179.623448 
L 949.518104 1221.333793 
L 955.834341 1227.292414 
L 962.150577 1131.954483 
L 968.466813 834.023448 
L 974.78305 996.892414 
L 981.099286 1165.72 
L 987.415522 1060.451034 
L 993.731758 1145.857931 
L 1000.047995 1048.533793 
L 1006.364231 1201.471724 
L 1012.680467 1124.009655 
L 1018.996704 907.513103 
L 1025.31294 947.237241 
L 1031.629176 1068.395862 
L 1037.945413 1288.864828 
L 1044.261649 1092.230345 
L 1050.577885 1147.844138 
L 1056.894121 689.030345 
L 1063.210358 1165.72 
L 1069.526594 927.375172 
L 1075.84283 1263.044138 
L 1082.159067 1247.154483 
L 1088.475303 1058.464828 
L 1094.791539 1193.526897 
L 1101.107775 1324.616552 
L 1107.424012 1042.575172 
L 1113.740248 1261.057931 
L 1120.056484 1263.044138 
L 1126.372721 1213.388966 
L 1132.688957 1090.244138 
L 1139.005193 1108.12 
L 1145.32143 1211.402759 
L 1151.637666 1165.72 
L 1157.953902 1122.023448 
L 1164.270138 1161.747586 
L 1170.586375 1161.747586 
L 1176.902611 1127.982069 
L 1183.218847 1263.044138 
L 1189.535084 1008.809655 
L 1195.85132 1235.237241 
L 1202.167556 1151.816552 
L 1208.483792 1207.430345 
L 1214.800029 1201.471724 
L 1221.116265 1300.782069 
L 1227.432501 879.706207 
L 1233.748738 975.044138 
L 1240.064974 1185.582069 
L 1246.38121 1187.568276 
L 1252.697446 1280.92 
L 1259.013683 1328.588966 
L 1265.329919 1185.582069 
L 1271.646155 1261.057931 
L 1277.962392 1326.602759 
L 1284.278628 836.009655 
L 1290.594864 1064.423448 
L 1296.911101 1461.664828 
L 1303.227337 1161.747586 
L 1309.543573 1322.630345 
L 1315.859809 1235.237241 
L 1322.176046 1300.782069 
L 1328.492282 1286.878621 
L 1334.808518 1185.582069 
L 1341.124755 1267.016552 
L 1347.440991 1253.113103 
L 1353.757227 1413.995862 
L 1360.073463 1247.154483 
L 1366.3897 1368.313103 
L 1372.705936 1396.12 
L 1379.022172 1368.313103 
L 1385.338409 1292.837241 
L 1391.654645 1539.126897 
L 1397.970881 1253.113103 
L 1404.287118 1292.837241 
L 1416.91959 1276.947586 
L 1423.235826 1211.402759 
L 1429.552063 1205.444138 
L 1435.868299 1278.933793 
L 1442.184535 1100.175172 
L 1448.500772 1280.92 
L 1454.817008 1312.69931 
L 1461.133244 996.892414 
L 1467.44948 1415.982069 
L 1473.765717 1441.802759 
L 1480.081953 1412.009655 
L 1486.398189 1558.988966 
L 1492.714426 1253.113103 
L 1499.030662 1545.085517 
L 1505.346898 1267.016552 
L 1511.663135 1972.12 
L 1536.92808 1302.768276 
L 1543.244316 1269.002759 
L 1568.509261 1560.975172 
L 1574.825497 1427.89931 
L 1587.45797 1443.788966 
L 1593.774206 1491.457931 
L 1606.406679 1316.671724 
L 1612.722915 1004.837241 
L 1644.304097 1213.388966 
L 1656.936569 1356.395862 
L 1663.252806 1100.175172 
L 1669.569042 1431.871724 
L 1688.517751 1551.044138 
L 1694.833987 1580.837241 
L 1701.150223 1384.202759 
L 1707.46646 1112.092414 
L 1720.098932 1026.685517 
L 1726.415168 1139.89931 
L 1732.731405 1312.69931 
L 1739.047641 1229.278621 
L 1745.363877 1493.444138 
L 1751.680114 1680.147586 
L 1751.680114 1680.147586 
" style="fill:none;stroke:#0000ff;stroke-linecap:square;stroke-width:1.5;"/>
   </g>
   <g id="patch_3">
    <path d="M 47.24375 2052.76 
L 47.24375 278.68 
" style="fill:none;stroke:#000000;stroke-linecap:square;stroke-linejoin:miter;stroke-width:0.8;"/>
   </g>
   <g id="patch_4">
    <path d="M 1832.84375 2052.76 
L 1832.84375 278.68 
" style="fill:none;stroke:#000000;stroke-linecap:square;stroke-linejoin:miter;stroke-width:0.8;"/>
   </g>
   <g id="patch_5">
    <path d="M 47.24375 2052.76 
L 1832.84375 2052.76 
" style="fill:none;stroke:#000000;stroke-linecap:square;stroke-linejoin:miter;stroke-width:0.8;"/>
   </g>
   <g id="patch_6">
    <path d="M 47.24375 278.68 
L 1832.84375 278.68 
" style="fill:none;stroke:#000000;stroke-linecap:square;stroke-linejoin:miter;stroke-width:0.8;"/>
   </g>
   <g id="text_18">
    <text style="font-family:DejaVu Sans;font-size:12px;font-stretch:normal;font-style:normal;font-weight:normal;text-anchor:middle;" transform="rotate(-0, 940.04375, 272.68)" x="940.04375" y="272.68">temperature-&gt;Retransmission_day</text>
   </g>
  </g>
  <g id="legend_1">
   <g id="patch_7">
    <path d="M 1847.564062 22.95625 
L 2058.44375 22.95625 
Q 2060.44375 22.95625 2060.44375 20.95625 
L 2060.44375 7 
Q 2060.44375 5 2058.44375 5 
L 1847.564062 5 
Q 1845.564062 5 1845.564062 7 
L 1845.564062 20.95625 
Q 1845.564062 22.95625 1847.564062 22.95625 
z
" style="fill:#ffffff;opacity:0.8;stroke:#cccccc;stroke-linejoin:miter;"/>
   </g>
   <g id="line2d_17">
    <path d="M 1849.564062 13.098438 
L 1869.564062 13.098438 
" style="fill:none;stroke:#0000ff;stroke-linecap:square;stroke-width:1.5;"/>
   </g>
   <g id="line2d_18"/>
   <g id="text_19">
    <text style="font-family:DejaVu Sans;font-size:10px;font-stretch:normal;font-style:normal;font-weight:normal;text-anchor:start;" transform="rotate(-0, 1877.564062, 16.598438)" x="1877.564062" y="16.598438">Retransmission_day[dimensionless]</text>
   </g>
  </g>
 </g>
 <defs>
  <clipPath id="p22120d74d7">
   <rect height="1774.08" width="1785.6" x="47.24375" y="278.68"/>
  </clipPath>
 </defs>
</svg>
