<?xml version="1.0" encoding="utf-8" standalone="no"?>
<!DOCTYPE svg PUBLIC "-//W3C//DTD SVG 1.1//EN"
  "http://www.w3.org/Graphics/SVG/1.1/DTD/svg11.dtd">
<!-- Created with matplotlib (https://matplotlib.org/) -->
<svg height="2090.594375pt" version="1.1" viewBox="0 0 2065.44375 2090.594375" width="2065.44375pt" xmlns="http://www.w3.org/2000/svg" xmlns:xlink="http://www.w3.org/1999/xlink">
 <metadata>
  <rdf:RDF xmlns:cc="http://creativecommons.org/ns#" xmlns:dc="http://purl.org/dc/elements/1.1/" xmlns:rdf="http://www.w3.org/1999/02/22-rdf-syntax-ns#">
   <cc:Work>
    <dc:type rdf:resource="http://purl.org/dc/dcmitype/StillImage"/>
    <dc:date>2022-07-23T21:27:21.474039</dc:date>
    <dc:format>image/svg+xml</dc:format>
    <dc:creator>
     <cc:Agent>
      <dc:title>Matplotlib v3.3.2, https://matplotlib.org/</dc:title>
     </cc:Agent>
    </dc:creator>
   </cc:Work>
  </rdf:RDF>
 </metadata>
 <defs>
  <style type="text/css">*{stroke-linecap:butt;stroke-linejoin:round;}</style>
 </defs>
 <g id="figure_1">
  <g id="patch_1">
   <path d="M 0 2090.594375 
L 2065.44375 2090.594375 
L 2065.44375 0 
L 0 0 
z
" style="fill:#ffffff;"/>
  </g>
  <g id="axes_1">
   <g id="patch_2">
    <path d="M 47.24375 2052.76 
L 1832.84375 2052.76 
L 1832.84375 278.68 
L 47.24375 278.68 
z
" style="fill:#ffffff;"/>
   </g>
   <g id="matplotlib.axis_1">
    <g id="xtick_1">
     <g id="line2d_1">
      <defs>
       <path d="M 0 0 
L 0 3.5 
" id="m7cc6b9d329" style="stroke:#000000;stroke-width:0.8;"/>
      </defs>
      <g>
       <use style="stroke:#000000;stroke-width:0.8;" x="147.137456" xlink:href="#m7cc6b9d329" y="2052.76"/>
      </g>
     </g>
     <g id="text_1">
      <text style="font-family:DejaVu Sans;font-size:10px;font-stretch:normal;font-style:normal;font-weight:normal;text-anchor:middle;" transform="rotate(-0, 147.137456, 2067.358437)" x="147.137456" y="2067.358437">1005</text>
     </g>
    </g>
    <g id="xtick_2">
     <g id="line2d_2">
      <g>
       <use style="stroke:#000000;stroke-width:0.8;" x="459.305288" xlink:href="#m7cc6b9d329" y="2052.76"/>
      </g>
     </g>
     <g id="text_2">
      <text style="font-family:DejaVu Sans;font-size:10px;font-stretch:normal;font-style:normal;font-weight:normal;text-anchor:middle;" transform="rotate(-0, 459.305288, 2067.358437)" x="459.305288" y="2067.358437">1010</text>
     </g>
    </g>
    <g id="xtick_3">
     <g id="line2d_3">
      <g>
       <use style="stroke:#000000;stroke-width:0.8;" x="771.473121" xlink:href="#m7cc6b9d329" y="2052.76"/>
      </g>
     </g>
     <g id="text_3">
      <text style="font-family:DejaVu Sans;font-size:10px;font-stretch:normal;font-style:normal;font-weight:normal;text-anchor:middle;" transform="rotate(-0, 771.473121, 2067.358437)" x="771.473121" y="2067.358437">1015</text>
     </g>
    </g>
    <g id="xtick_4">
     <g id="line2d_4">
      <g>
       <use style="stroke:#000000;stroke-width:0.8;" x="1083.640953" xlink:href="#m7cc6b9d329" y="2052.76"/>
      </g>
     </g>
     <g id="text_4">
      <text style="font-family:DejaVu Sans;font-size:10px;font-stretch:normal;font-style:normal;font-weight:normal;text-anchor:middle;" transform="rotate(-0, 1083.640953, 2067.358437)" x="1083.640953" y="2067.358437">1020</text>
     </g>
    </g>
    <g id="xtick_5">
     <g id="line2d_5">
      <g>
       <use style="stroke:#000000;stroke-width:0.8;" x="1395.808785" xlink:href="#m7cc6b9d329" y="2052.76"/>
      </g>
     </g>
     <g id="text_5">
      <text style="font-family:DejaVu Sans;font-size:10px;font-stretch:normal;font-style:normal;font-weight:normal;text-anchor:middle;" transform="rotate(-0, 1395.808785, 2067.358437)" x="1395.808785" y="2067.358437">1025</text>
     </g>
    </g>
    <g id="xtick_6">
     <g id="line2d_6">
      <g>
       <use style="stroke:#000000;stroke-width:0.8;" x="1707.976617" xlink:href="#m7cc6b9d329" y="2052.76"/>
      </g>
     </g>
     <g id="text_6">
      <text style="font-family:DejaVu Sans;font-size:10px;font-stretch:normal;font-style:normal;font-weight:normal;text-anchor:middle;" transform="rotate(-0, 1707.976617, 2067.358437)" x="1707.976617" y="2067.358437">1030</text>
     </g>
    </g>
    <g id="text_7">
     <text style="font-family:DejaVu Sans;font-size:10px;font-stretch:normal;font-style:normal;font-weight:normal;text-anchor:middle;" transform="rotate(-0, 940.04375, 2081.036562)" x="940.04375" y="2081.036562">air_pressure from BuienRadar</text>
    </g>
   </g>
   <g id="matplotlib.axis_2">
    <g id="ytick_1">
     <g id="line2d_7">
      <defs>
       <path d="M 0 0 
L -3.5 0 
" id="mfa79f32cab" style="stroke:#000000;stroke-width:0.8;"/>
      </defs>
      <g>
       <use style="stroke:#000000;stroke-width:0.8;" x="47.24375" xlink:href="#mfa79f32cab" y="1791.424887"/>
      </g>
     </g>
     <g id="text_8">
      <text style="font-family:DejaVu Sans;font-size:10px;font-stretch:normal;font-style:normal;font-weight:normal;text-anchor:end;" transform="rotate(-0, 40.24375, 1795.224106)" x="40.24375" y="1795.224106">200</text>
     </g>
    </g>
    <g id="ytick_2">
     <g id="line2d_8">
      <g>
       <use style="stroke:#000000;stroke-width:0.8;" x="47.24375" xlink:href="#mfa79f32cab" y="1406.967199"/>
      </g>
     </g>
     <g id="text_9">
      <text style="font-family:DejaVu Sans;font-size:10px;font-stretch:normal;font-style:normal;font-weight:normal;text-anchor:end;" transform="rotate(-0, 40.24375, 1410.766418)" x="40.24375" y="1410.766418">400</text>
     </g>
    </g>
    <g id="ytick_3">
     <g id="line2d_9">
      <g>
       <use style="stroke:#000000;stroke-width:0.8;" x="47.24375" xlink:href="#mfa79f32cab" y="1022.509511"/>
      </g>
     </g>
     <g id="text_10">
      <text style="font-family:DejaVu Sans;font-size:10px;font-stretch:normal;font-style:normal;font-weight:normal;text-anchor:end;" transform="rotate(-0, 40.24375, 1026.30873)" x="40.24375" y="1026.30873">600</text>
     </g>
    </g>
    <g id="ytick_4">
     <g id="line2d_10">
      <g>
       <use style="stroke:#000000;stroke-width:0.8;" x="47.24375" xlink:href="#mfa79f32cab" y="638.051824"/>
      </g>
     </g>
     <g id="text_11">
      <text style="font-family:DejaVu Sans;font-size:10px;font-stretch:normal;font-style:normal;font-weight:normal;text-anchor:end;" transform="rotate(-0, 40.24375, 641.851042)" x="40.24375" y="641.851042">800</text>
     </g>
    </g>
    <g id="text_12">
     <text style="font-family:DejaVu Sans;font-size:10px;font-stretch:normal;font-style:normal;font-weight:normal;text-anchor:middle;" transform="rotate(-90, 14.798438, 1165.72)" x="14.798438" y="1165.72">Retransmission_day[dimensionless]</text>
    </g>
   </g>
   <g id="line2d_11">
    <path clip-path="url(#pfabe854ef5)" d="M 128.407386 1485.781025 
L 140.8941 1653.020119 
L 147.137456 1433.879237 
L 153.380813 1230.116663 
L 159.62417 1395.433468 
L 165.867526 1410.811776 
L 172.110883 1568.439428 
L 178.35424 1220.505221 
L 184.597596 1447.335256 
L 190.840953 1314.697354 
L 197.084309 1460.791275 
L 203.327666 1134.002241 
L 209.571023 1151.302837 
L 215.814379 834.125244 
L 222.057736 1378.132872 
L 228.301093 1178.214875 
L 234.544449 1120.546222 
L 240.787806 1333.920238 
L 247.031163 1218.582932 
L 253.274519 1578.05087 
L 259.517876 1099.401049 
L 265.761233 1501.159333 
L 272.004589 1516.53764 
L 278.247946 1604.962908 
L 284.491302 1260.873278 
L 290.734659 1445.412968 
L 296.978016 1506.926198 
L 309.464729 1278.173874 
L 315.708086 1558.827986 
L 321.951442 1410.811776 
L 328.194799 1468.480429 
L 334.438156 1299.319046 
L 340.681512 1570.361716 
L 346.924869 984.063743 
L 353.168226 1239.728105 
L 359.411582 1431.956949 
L 365.654939 787.990322 
L 371.898295 964.840858 
L 378.141652 1230.116663 
L 384.385009 1201.282336 
L 390.628365 1114.779356 
L 396.871722 1510.770775 
L 403.115079 1324.308796 
L 409.358435 1282.018451 
L 415.601792 1410.811776 
L 421.845149 1222.427509 
L 428.088505 1305.085912 
L 434.331862 1372.366007 
L 440.575219 1456.946698 
L 446.818575 1322.386508 
L 453.061932 1183.98174 
L 459.305288 1153.225125 
L 465.548645 1005.208915 
L 471.792002 1201.282336 
L 478.035358 1201.282336 
L 484.278715 1087.867318 
L 490.522072 1341.609392 
L 496.765428 1233.96124 
L 503.008785 1185.904029 
L 509.252142 1307.0082 
L 515.495498 1295.47447 
L 521.738855 1076.333588 
L 527.982212 1168.603433 
L 534.225568 1103.245626 
L 540.468925 1270.48472 
L 546.712281 1187.826317 
L 552.955638 859.114994 
L 559.198995 1099.401049 
L 565.442351 1158.99199 
L 571.685708 1135.924529 
L 577.929065 1087.867318 
L 584.172421 1282.018451 
L 590.415778 1251.261836 
L 602.902491 1174.370298 
L 609.145848 976.374589 
L 615.389205 862.959571 
L 621.632561 1249.339547 
L 627.875918 1305.085912 
L 634.119274 1041.732396 
L 640.362631 1122.46851 
L 646.605988 1135.924529 
L 652.849344 1210.893778 
L 659.092701 926.395089 
L 665.336058 820.669225 
L 671.579414 1160.914279 
L 677.822771 1158.99199 
L 684.066128 1258.950989 
L 690.309484 1160.914279 
L 696.552841 818.746937 
L 702.796198 1103.245626 
L 709.039554 1187.826317 
L 715.282911 1178.214875 
L 721.526267 1218.582932 
L 727.769624 1124.390799 
L 734.012981 1162.836567 
L 740.256337 1055.188415 
L 746.499694 1139.769106 
L 752.743051 1222.427509 
L 758.986407 1103.245626 
L 765.229764 1299.319046 
L 771.473121 1301.241335 
L 777.716477 1153.225125 
L 783.959834 955.229416 
L 790.203191 1272.407008 
L 796.446547 1122.46851 
L 802.689904 1237.805816 
L 808.93326 1183.98174 
L 815.176617 1139.769106 
L 821.419974 1082.100453 
L 827.66333 1162.836567 
L 833.906687 1158.99199 
L 840.150044 1153.225125 
L 846.3934 1068.644434 
L 852.636757 1145.535971 
L 858.880114 886.027032 
L 865.12347 1189.748605 
L 871.366827 1097.47876 
L 877.610184 1187.826317 
L 883.85354 1112.857068 
L 890.096897 786.068033 
L 896.340253 1020.587223 
L 902.58361 928.317378 
L 908.826967 1174.370298 
L 915.070323 1333.920238 
L 921.31368 1005.208915 
L 927.557037 1039.810107 
L 933.800393 1055.188415 
L 940.04375 1328.153373 
L 946.287107 1189.748605 
L 952.530463 1045.576973 
L 958.77382 1343.531681 
L 965.017177 1547.294255 
L 971.260533 1280.096162 
L 977.50389 1160.914279 
L 983.747247 1189.748605 
L 989.990603 1197.437759 
L 996.23396 889.871609 
L 1002.477316 1282.018451 
L 1008.720673 1166.681144 
L 1014.96403 1406.967199 
L 1021.207386 1232.038951 
L 1027.450743 1218.582932 
L 1033.6941 1260.873278 
L 1039.937456 1210.893778 
L 1046.180813 909.094493 
L 1052.42417 1035.96553 
L 1058.667526 1220.505221 
L 1064.910883 1262.795566 
L 1071.15424 1135.924529 
L 1077.397596 1287.785316 
L 1083.640953 987.908319 
L 1089.884309 1026.354088 
L 1096.127666 1010.975781 
L 1102.371023 1331.99795 
L 1108.614379 970.607723 
L 1114.857736 905.249917 
L 1121.101093 1187.826317 
L 1127.344449 1170.525721 
L 1133.587806 1076.333588 
L 1139.831163 870.648725 
L 1146.074519 1109.012491 
L 1152.317876 1157.069702 
L 1158.561233 1043.654684 
L 1164.804589 1139.769106 
L 1171.047946 1016.742646 
L 1177.291302 1353.143123 
L 1183.534659 1066.722145 
L 1189.778016 936.006532 
L 1196.021372 1180.137163 
L 1202.264729 1224.349797 
L 1208.508086 1101.323337 
L 1214.751442 1274.329297 
L 1220.994799 359.32 
L 1227.238156 1203.204625 
L 1233.481512 1233.96124 
L 1239.724869 1266.640143 
L 1245.968226 1297.396758 
L 1252.211582 936.006532 
L 1258.454939 1157.069702 
L 1264.698295 1145.535971 
L 1270.941652 1195.515471 
L 1277.185009 991.752896 
L 1283.428365 1397.355757 
L 1289.671722 1237.805816 
L 1295.915079 928.317378 
L 1302.158435 1155.147414 
L 1308.401792 1395.433468 
L 1314.645149 678.419881 
L 1320.888505 1097.47876 
L 1327.131862 1180.137163 
L 1333.375219 807.213206 
L 1339.618575 1337.764815 
L 1345.861932 1258.950989 
L 1352.105288 1285.863027 
L 1358.348645 1629.952658 
L 1364.592002 1835.637521 
L 1370.835358 1751.05683 
L 1377.078715 1801.036329 
L 1383.322072 1747.212253 
L 1389.565428 1806.803194 
L 1395.808785 1749.134541 
L 1402.052142 1629.952658 
L 1408.295498 1714.533349 
L 1414.538855 1833.715232 
L 1420.782212 1674.165292 
L 1427.025568 1972.12 
L 1433.268925 1868.316424 
L 1439.512281 1933.674231 
L 1445.755638 1927.907366 
L 1458.242351 1826.026079 
L 1464.485708 1781.813445 
L 1470.729065 1752.979118 
L 1476.972421 1900.995328 
L 1483.215778 1595.351466 
L 1489.459135 1626.108081 
L 1495.702491 1724.144791 
L 1501.945848 1762.59056 
L 1508.189205 1776.046579 
L 1514.432561 1854.860405 
L 1520.675918 1737.60081 
L 1526.919274 1914.451347 
L 1533.162631 1908.684482 
L 1539.405988 1597.273754 
L 1551.892701 1881.772443 
L 1620.569624 1854.860405 
L 1626.812981 1566.517139 
L 1633.056337 1735.678522 
L 1639.299694 1566.517139 
L 1645.543051 1854.860405 
L 1651.786407 1858.704982 
L 1658.029764 1766.435137 
L 1664.273121 1927.907366 
L 1670.516477 1808.725483 
L 1676.759834 1608.807485 
L 1683.003191 1610.729774 
L 1689.246547 1831.792944 
L 1695.489904 1847.171251 
L 1701.73326 1854.860405 
L 1707.976617 1718.377926 
L 1714.219974 1772.202002 
L 1720.46333 1720.300215 
L 1726.706687 1789.502598 
L 1732.950044 1872.161001 
L 1739.1934 1770.279714 
L 1745.436757 1820.259213 
L 1751.680114 1733.756234 
L 1751.680114 1733.756234 
" style="fill:none;stroke:#0000ff;stroke-linecap:square;stroke-width:1.5;"/>
   </g>
   <g id="patch_3">
    <path d="M 47.24375 2052.76 
L 47.24375 278.68 
" style="fill:none;stroke:#000000;stroke-linecap:square;stroke-linejoin:miter;stroke-width:0.8;"/>
   </g>
   <g id="patch_4">
    <path d="M 1832.84375 2052.76 
L 1832.84375 278.68 
" style="fill:none;stroke:#000000;stroke-linecap:square;stroke-linejoin:miter;stroke-width:0.8;"/>
   </g>
   <g id="patch_5">
    <path d="M 47.24375 2052.76 
L 1832.84375 2052.76 
" style="fill:none;stroke:#000000;stroke-linecap:square;stroke-linejoin:miter;stroke-width:0.8;"/>
   </g>
   <g id="patch_6">
    <path d="M 47.24375 278.68 
L 1832.84375 278.68 
" style="fill:none;stroke:#000000;stroke-linecap:square;stroke-linejoin:miter;stroke-width:0.8;"/>
   </g>
   <g id="text_13">
    <text style="font-family:DejaVu Sans;font-size:12px;font-stretch:normal;font-style:normal;font-weight:normal;text-anchor:middle;" transform="rotate(-0, 940.04375, 272.68)" x="940.04375" y="272.68">air_pressure-&gt;Retransmission_day</text>
   </g>
  </g>
  <g id="legend_1">
   <g id="patch_7">
    <path d="M 1847.564062 22.95625 
L 2058.44375 22.95625 
Q 2060.44375 22.95625 2060.44375 20.95625 
L 2060.44375 7 
Q 2060.44375 5 2058.44375 5 
L 1847.564062 5 
Q 1845.564062 5 1845.564062 7 
L 1845.564062 20.95625 
Q 1845.564062 22.95625 1847.564062 22.95625 
z
" style="fill:#ffffff;opacity:0.8;stroke:#cccccc;stroke-linejoin:miter;"/>
   </g>
   <g id="line2d_12">
    <path d="M 1849.564062 13.098438 
L 1869.564062 13.098438 
" style="fill:none;stroke:#0000ff;stroke-linecap:square;stroke-width:1.5;"/>
   </g>
   <g id="line2d_13"/>
   <g id="text_14">
    <text style="font-family:DejaVu Sans;font-size:10px;font-stretch:normal;font-style:normal;font-weight:normal;text-anchor:start;" transform="rotate(-0, 1877.564062, 16.598438)" x="1877.564062" y="16.598438">Retransmission_day[dimensionless]</text>
   </g>
  </g>
 </g>
 <defs>
  <clipPath id="pfabe854ef5">
   <rect height="1774.08" width="1785.6" x="47.24375" y="278.68"/>
  </clipPath>
 </defs>
</svg>
