<?xml version="1.0" encoding="utf-8" standalone="no"?>
<!DOCTYPE svg PUBLIC "-//W3C//DTD SVG 1.1//EN"
  "http://www.w3.org/Graphics/SVG/1.1/DTD/svg11.dtd">
<!-- Created with matplotlib (https://matplotlib.org/) -->
<svg height="2090.31625pt" version="1.1" viewBox="0 0 2065.44375 2090.31625" width="2065.44375pt" xmlns="http://www.w3.org/2000/svg" xmlns:xlink="http://www.w3.org/1999/xlink">
 <metadata>
  <rdf:RDF xmlns:cc="http://creativecommons.org/ns#" xmlns:dc="http://purl.org/dc/elements/1.1/" xmlns:rdf="http://www.w3.org/1999/02/22-rdf-syntax-ns#">
   <cc:Work>
    <dc:type rdf:resource="http://purl.org/dc/dcmitype/StillImage"/>
    <dc:date>2022-07-24T12:03:33.344780</dc:date>
    <dc:format>image/svg+xml</dc:format>
    <dc:creator>
     <cc:Agent>
      <dc:title>Matplotlib v3.3.2, https://matplotlib.org/</dc:title>
     </cc:Agent>
    </dc:creator>
   </cc:Work>
  </rdf:RDF>
 </metadata>
 <defs>
  <style type="text/css">*{stroke-linecap:butt;stroke-linejoin:round;}</style>
 </defs>
 <g id="figure_1">
  <g id="patch_1">
   <path d="M 0 2090.31625 
L 2065.44375 2090.31625 
L 2065.44375 0 
L 0 0 
z
" style="fill:#ffffff;"/>
  </g>
  <g id="axes_1">
   <g id="patch_2">
    <path d="M 47.24375 2052.76 
L 1832.84375 2052.76 
L 1832.84375 278.68 
L 47.24375 278.68 
z
" style="fill:#ffffff;"/>
   </g>
   <g id="matplotlib.axis_1">
    <g id="xtick_1">
     <g id="line2d_1">
      <defs>
       <path d="M 0 0 
L 0 3.5 
" id="m2aa7d5225d" style="stroke:#000000;stroke-width:0.8;"/>
      </defs>
      <g>
       <use style="stroke:#000000;stroke-width:0.8;" x="128.407386" xlink:href="#m2aa7d5225d" y="2052.76"/>
      </g>
     </g>
     <g id="text_1">
      <text style="font-family:DejaVu Sans;font-size:10px;font-stretch:normal;font-style:normal;font-weight:normal;text-anchor:middle;" transform="rotate(-0, 128.407386, 2067.358438)" x="128.407386" y="2067.358438">0</text>
     </g>
    </g>
    <g id="xtick_2">
     <g id="line2d_2">
      <g>
       <use style="stroke:#000000;stroke-width:0.8;" x="406.456459" xlink:href="#m2aa7d5225d" y="2052.76"/>
      </g>
     </g>
     <g id="text_2">
      <text style="font-family:DejaVu Sans;font-size:10px;font-stretch:normal;font-style:normal;font-weight:normal;text-anchor:middle;" transform="rotate(-0, 406.456459, 2067.358438)" x="406.456459" y="2067.358438">10</text>
     </g>
    </g>
    <g id="xtick_3">
     <g id="line2d_3">
      <g>
       <use style="stroke:#000000;stroke-width:0.8;" x="684.505531" xlink:href="#m2aa7d5225d" y="2052.76"/>
      </g>
     </g>
     <g id="text_3">
      <text style="font-family:DejaVu Sans;font-size:10px;font-stretch:normal;font-style:normal;font-weight:normal;text-anchor:middle;" transform="rotate(-0, 684.505531, 2067.358438)" x="684.505531" y="2067.358438">20</text>
     </g>
    </g>
    <g id="xtick_4">
     <g id="line2d_4">
      <g>
       <use style="stroke:#000000;stroke-width:0.8;" x="962.554603" xlink:href="#m2aa7d5225d" y="2052.76"/>
      </g>
     </g>
     <g id="text_4">
      <text style="font-family:DejaVu Sans;font-size:10px;font-stretch:normal;font-style:normal;font-weight:normal;text-anchor:middle;" transform="rotate(-0, 962.554603, 2067.358438)" x="962.554603" y="2067.358438">30</text>
     </g>
    </g>
    <g id="xtick_5">
     <g id="line2d_5">
      <g>
       <use style="stroke:#000000;stroke-width:0.8;" x="1240.603675" xlink:href="#m2aa7d5225d" y="2052.76"/>
      </g>
     </g>
     <g id="text_5">
      <text style="font-family:DejaVu Sans;font-size:10px;font-stretch:normal;font-style:normal;font-weight:normal;text-anchor:middle;" transform="rotate(-0, 1240.603675, 2067.358438)" x="1240.603675" y="2067.358438">40</text>
     </g>
    </g>
    <g id="xtick_6">
     <g id="line2d_6">
      <g>
       <use style="stroke:#000000;stroke-width:0.8;" x="1518.652747" xlink:href="#m2aa7d5225d" y="2052.76"/>
      </g>
     </g>
     <g id="text_6">
      <text style="font-family:DejaVu Sans;font-size:10px;font-stretch:normal;font-style:normal;font-weight:normal;text-anchor:middle;" transform="rotate(-0, 1518.652747, 2067.358438)" x="1518.652747" y="2067.358438">50</text>
     </g>
    </g>
    <g id="xtick_7">
     <g id="line2d_7">
      <g>
       <use style="stroke:#000000;stroke-width:0.8;" x="1796.701819" xlink:href="#m2aa7d5225d" y="2052.76"/>
      </g>
     </g>
     <g id="text_7">
      <text style="font-family:DejaVu Sans;font-size:10px;font-stretch:normal;font-style:normal;font-weight:normal;text-anchor:middle;" transform="rotate(-0, 1796.701819, 2067.358438)" x="1796.701819" y="2067.358438">60</text>
     </g>
    </g>
    <g id="text_8">
     <text style="font-family:DejaVu Sans;font-size:10px;font-stretch:normal;font-style:normal;font-weight:normal;text-anchor:middle;" transform="rotate(-0, 940.04375, 2081.036562)" x="940.04375" y="2081.036562">rain from WeatherBitIO</text>
    </g>
   </g>
   <g id="matplotlib.axis_2">
    <g id="ytick_1">
     <g id="line2d_8">
      <defs>
       <path d="M 0 0 
L -3.5 0 
" id="m0dfe6e0d9d" style="stroke:#000000;stroke-width:0.8;"/>
      </defs>
      <g>
       <use style="stroke:#000000;stroke-width:0.8;" x="47.24375" xlink:href="#m0dfe6e0d9d" y="1977.256306"/>
      </g>
     </g>
     <g id="text_9">
      <text style="font-family:DejaVu Sans;font-size:10px;font-stretch:normal;font-style:normal;font-weight:normal;text-anchor:end;" transform="rotate(-0, 40.24375, 1981.055524)" x="40.24375" y="1981.055524">0</text>
     </g>
    </g>
    <g id="ytick_2">
     <g id="line2d_9">
      <g>
       <use style="stroke:#000000;stroke-width:0.8;" x="47.24375" xlink:href="#m0dfe6e0d9d" y="1634.835924"/>
      </g>
     </g>
     <g id="text_10">
      <text style="font-family:DejaVu Sans;font-size:10px;font-stretch:normal;font-style:normal;font-weight:normal;text-anchor:end;" transform="rotate(-0, 40.24375, 1638.635142)" x="40.24375" y="1638.635142">200</text>
     </g>
    </g>
    <g id="ytick_3">
     <g id="line2d_10">
      <g>
       <use style="stroke:#000000;stroke-width:0.8;" x="47.24375" xlink:href="#m0dfe6e0d9d" y="1292.415541"/>
      </g>
     </g>
     <g id="text_11">
      <text style="font-family:DejaVu Sans;font-size:10px;font-stretch:normal;font-style:normal;font-weight:normal;text-anchor:end;" transform="rotate(-0, 40.24375, 1296.21476)" x="40.24375" y="1296.21476">400</text>
     </g>
    </g>
    <g id="ytick_4">
     <g id="line2d_11">
      <g>
       <use style="stroke:#000000;stroke-width:0.8;" x="47.24375" xlink:href="#m0dfe6e0d9d" y="949.995159"/>
      </g>
     </g>
     <g id="text_12">
      <text style="font-family:DejaVu Sans;font-size:10px;font-stretch:normal;font-style:normal;font-weight:normal;text-anchor:end;" transform="rotate(-0, 40.24375, 953.794378)" x="40.24375" y="953.794378">600</text>
     </g>
    </g>
    <g id="ytick_5">
     <g id="line2d_12">
      <g>
       <use style="stroke:#000000;stroke-width:0.8;" x="47.24375" xlink:href="#m0dfe6e0d9d" y="607.574777"/>
      </g>
     </g>
     <g id="text_13">
      <text style="font-family:DejaVu Sans;font-size:10px;font-stretch:normal;font-style:normal;font-weight:normal;text-anchor:end;" transform="rotate(-0, 40.24375, 611.373996)" x="40.24375" y="611.373996">800</text>
     </g>
    </g>
    <g id="text_14">
     <text style="font-family:DejaVu Sans;font-size:10px;font-stretch:normal;font-style:normal;font-weight:normal;text-anchor:middle;" transform="rotate(-90, 14.798438, 1165.72)" x="14.798438" y="1165.72">Retransmission_day[dimensionless]</text>
    </g>
   </g>
   <g id="line2d_13">
    <path clip-path="url(#pca13011683)" d="M 128.407386 359.32 
L 131.251773 1444.792611 
L 131.302517 1290.703439 
L 131.357793 1343.778599 
L 131.444822 1396.853758 
L 131.613487 1025.327643 
L 131.709497 1461.913631 
L 131.720675 1049.29707 
L 132.220635 1138.326369 
L 132.620247 1095.523822 
L 132.777039 1413.974777 
L 133.543926 1511.564586 
L 133.769896 1559.503439 
L 134.034377 807.890701 
L 134.183355 1554.367134 
L 134.488292 1287.279236 
L 135.1969 1467.049936 
L 135.442834 1405.414268 
L 135.600599 1193.113631 
L 136.014197 1922.469045 
L 136.808722 1384.869045 
L 137.000549 1525.261401 
L 137.535932 1304.400255 
L 138.23745 782.209172 
L 138.564046 1538.958217 
L 138.805365 1862.545478 
L 139.864815 1071.554395 
L 140.115254 1348.914904 
L 140.527351 1427.671592 
L 140.670629 1972.12 
L 141.142395 1201.67414 
L 142.327524 1499.579873 
L 142.409799 1081.827006 
L 142.811413 1509.852484 
L 142.889461 1437.944204 
L 143.433242 1436.232102 
L 143.746436 1586.89707 
L 144.319217 1295.839745 
L 144.526697 1429.383694 
L 146.013509 1711.88051 
L 146.054966 1429.383694 
L 148.064983 1384.869045 
L 148.217354 1328.369682 
L 148.221024 1443.08051 
L 149.448583 1744.410446 
L 149.733055 1549.230828 
L 150.694799 1413.974777 
L 155.339192 1285.567134 
L 158.518711 1514.98879 
L 159.213555 1496.155669 
L 159.929532 1085.25121 
L 163.588657 1367.748025 
L 168.21734 1266.734013 
L 169.793879 1348.914904 
L 169.97322 1338.642293 
L 170.02744 1526.973503 
L 171.207758 1482.458854 
L 171.7177 1153.735287 
L 174.822674 1378.020637 
L 178.180673 1686.198981 
L 179.199445 1650.244841 
L 180.041377 1246.18879 
L 180.495153 1511.564586 
L 186.170413 1417.398981 
L 187.414682 1588.609172 
L 189.607099 1109.220637 
L 191.415531 1566.351847 
L 191.475867 1376.308535 
L 194.18045 1963.55949 
L 212.638182 1592.033376 
L 214.746072 1285.567134 
L 215.339429 1398.56586 
L 215.961703 1732.425732 
L 222.324578 1372.884331 
L 227.097012 1429.383694 
L 233.803277 1535.534013 
L 237.744623 1441.368408 
L 237.866409 1960.135287 
L 240.824016 1083.539108 
L 243.152121 1465.337834 
L 243.388463 1468.762038 
L 246.478422 1896.787516 
L 250.618573 1525.261401 
L 260.124793 1062.993885 
L 261.384911 1511.564586 
L 264.825212 1345.490701 
L 283.33049 1722.153121 
L 283.36052 1949.862675 
L 291.074157 1951.574777 
L 321.798301 1299.263949 
L 322.827361 1963.55949 
L 327.090687 1896.787516 
L 328.692528 1538.958217 
L 328.831831 1956.711083 
L 352.526895 1819.74293 
L 398.997514 1282.14293 
L 402.153927 1792.349299 
L 488.166739 1369.460127 
L 1144.190159 1518.412994 
L 1751.680114 1566.351847 
" style="fill:none;stroke:#0000ff;stroke-linecap:square;stroke-width:1.5;"/>
   </g>
   <g id="patch_3">
    <path d="M 47.24375 2052.76 
L 47.24375 278.68 
" style="fill:none;stroke:#000000;stroke-linecap:square;stroke-linejoin:miter;stroke-width:0.8;"/>
   </g>
   <g id="patch_4">
    <path d="M 1832.84375 2052.76 
L 1832.84375 278.68 
" style="fill:none;stroke:#000000;stroke-linecap:square;stroke-linejoin:miter;stroke-width:0.8;"/>
   </g>
   <g id="patch_5">
    <path d="M 47.24375 2052.76 
L 1832.84375 2052.76 
" style="fill:none;stroke:#000000;stroke-linecap:square;stroke-linejoin:miter;stroke-width:0.8;"/>
   </g>
   <g id="patch_6">
    <path d="M 47.24375 278.68 
L 1832.84375 278.68 
" style="fill:none;stroke:#000000;stroke-linecap:square;stroke-linejoin:miter;stroke-width:0.8;"/>
   </g>
   <g id="text_15">
    <text style="font-family:DejaVu Sans;font-size:12px;font-stretch:normal;font-style:normal;font-weight:normal;text-anchor:middle;" transform="rotate(-0, 940.04375, 272.68)" x="940.04375" y="272.68">rain-&gt;Retransmission_day</text>
   </g>
  </g>
  <g id="legend_1">
   <g id="patch_7">
    <path d="M 1847.564062 22.95625 
L 2058.44375 22.95625 
Q 2060.44375 22.95625 2060.44375 20.95625 
L 2060.44375 7 
Q 2060.44375 5 2058.44375 5 
L 1847.564062 5 
Q 1845.564062 5 1845.564062 7 
L 1845.564062 20.95625 
Q 1845.564062 22.95625 1847.564062 22.95625 
z
" style="fill:#ffffff;opacity:0.8;stroke:#cccccc;stroke-linejoin:miter;"/>
   </g>
   <g id="line2d_14">
    <path d="M 1849.564062 13.098438 
L 1869.564062 13.098438 
" style="fill:none;stroke:#0000ff;stroke-linecap:square;stroke-width:1.5;"/>
   </g>
   <g id="line2d_15"/>
   <g id="text_16">
    <text style="font-family:DejaVu Sans;font-size:10px;font-stretch:normal;font-style:normal;font-weight:normal;text-anchor:start;" transform="rotate(-0, 1877.564062, 16.598438)" x="1877.564062" y="16.598438">Retransmission_day[dimensionless]</text>
   </g>
  </g>
 </g>
 <defs>
  <clipPath id="pca13011683">
   <rect height="1774.08" width="1785.6" x="47.24375" y="278.68"/>
  </clipPath>
 </defs>
</svg>
