<?xml version="1.0" encoding="utf-8" standalone="no"?>
<!DOCTYPE svg PUBLIC "-//W3C//DTD SVG 1.1//EN"
  "http://www.w3.org/Graphics/SVG/1.1/DTD/svg11.dtd">
<svg height="345.6pt" version="1.1" viewBox="0 0 460.8 345.6" width="460.8pt" xmlns="http://www.w3.org/2000/svg" xmlns:xlink="http://www.w3.org/1999/xlink">
 <metadata>
  <rdf:RDF xmlns:cc="http://creativecommons.org/ns#" xmlns:dc="http://purl.org/dc/elements/1.1/" xmlns:rdf="http://www.w3.org/1999/02/22-rdf-syntax-ns#">
   <cc:Work>
    <dc:type rdf:resource="http://purl.org/dc/dcmitype/StillImage"/>
    <dc:date>2022-06-13T13:12:02.457606</dc:date>
    <dc:format>image/svg+xml</dc:format>
    <dc:creator>
     <cc:Agent>
      <dc:title>Matplotlib v3.4.2, https://matplotlib.org/</dc:title>
     </cc:Agent>
    </dc:creator>
   </cc:Work>
  </rdf:RDF>
 </metadata>
 <defs>
  <style type="text/css">*{stroke-linecap:butt;stroke-linejoin:round;}</style>
 </defs>
 <g id="figure_1">
  <g id="patch_1">
   <path d="M 0 345.6 
L 460.8 345.6 
L 460.8 0 
L 0 0 
z
" style="fill:#ffffff;"/>
  </g>
  <g id="axes_1">
   <g id="patch_2">
    <path d="M 57.6 307.584 
L 414.72 307.584 
L 414.72 41.472 
L 57.6 41.472 
z
" style="fill:#ffffff;"/>
   </g>
   <g id="matplotlib.axis_1">
    <g id="xtick_1">
     <g id="line2d_1">
      <defs>
       <path d="M 0 0 
L 0 3.5 
" id="m9dd9225a86" style="stroke:#000000;stroke-width:0.8;"/>
      </defs>
      <g>
       <use style="stroke:#000000;stroke-width:0.8;" x="78.668008" xlink:href="#m9dd9225a86" y="307.584"/>
      </g>
     </g>
     <g id="text_1">
      <!-- 6 -->
      <g transform="translate(75.486758 322.182437)scale(0.1 -0.1)">
       <defs>
        <path d="M 2113 2584 
Q 1688 2584 1439 2293 
Q 1191 2003 1191 1497 
Q 1191 994 1439 701 
Q 1688 409 2113 409 
Q 2538 409 2786 701 
Q 3034 994 3034 1497 
Q 3034 2003 2786 2293 
Q 2538 2584 2113 2584 
z
M 3366 4563 
L 3366 3988 
Q 3128 4100 2886 4159 
Q 2644 4219 2406 4219 
Q 1781 4219 1451 3797 
Q 1122 3375 1075 2522 
Q 1259 2794 1537 2939 
Q 1816 3084 2150 3084 
Q 2853 3084 3261 2657 
Q 3669 2231 3669 1497 
Q 3669 778 3244 343 
Q 2819 -91 2113 -91 
Q 1303 -91 875 529 
Q 447 1150 447 2328 
Q 447 3434 972 4092 
Q 1497 4750 2381 4750 
Q 2619 4750 2861 4703 
Q 3103 4656 3366 4563 
z
" id="DejaVuSans-36" transform="scale(0.015625)"/>
       </defs>
       <use xlink:href="#DejaVuSans-36"/>
      </g>
     </g>
    </g>
    <g id="xtick_2">
     <g id="line2d_2">
      <g>
       <use style="stroke:#000000;stroke-width:0.8;" x="124.718298" xlink:href="#m9dd9225a86" y="307.584"/>
      </g>
     </g>
     <g id="text_2">
      <!-- 8 -->
      <g transform="translate(121.537048 322.182437)scale(0.1 -0.1)">
       <defs>
        <path d="M 2034 2216 
Q 1584 2216 1326 1975 
Q 1069 1734 1069 1313 
Q 1069 891 1326 650 
Q 1584 409 2034 409 
Q 2484 409 2743 651 
Q 3003 894 3003 1313 
Q 3003 1734 2745 1975 
Q 2488 2216 2034 2216 
z
M 1403 2484 
Q 997 2584 770 2862 
Q 544 3141 544 3541 
Q 544 4100 942 4425 
Q 1341 4750 2034 4750 
Q 2731 4750 3128 4425 
Q 3525 4100 3525 3541 
Q 3525 3141 3298 2862 
Q 3072 2584 2669 2484 
Q 3125 2378 3379 2068 
Q 3634 1759 3634 1313 
Q 3634 634 3220 271 
Q 2806 -91 2034 -91 
Q 1263 -91 848 271 
Q 434 634 434 1313 
Q 434 1759 690 2068 
Q 947 2378 1403 2484 
z
M 1172 3481 
Q 1172 3119 1398 2916 
Q 1625 2713 2034 2713 
Q 2441 2713 2670 2916 
Q 2900 3119 2900 3481 
Q 2900 3844 2670 4047 
Q 2441 4250 2034 4250 
Q 1625 4250 1398 4047 
Q 1172 3844 1172 3481 
z
" id="DejaVuSans-38" transform="scale(0.015625)"/>
       </defs>
       <use xlink:href="#DejaVuSans-38"/>
      </g>
     </g>
    </g>
    <g id="xtick_3">
     <g id="line2d_3">
      <g>
       <use style="stroke:#000000;stroke-width:0.8;" x="170.768588" xlink:href="#m9dd9225a86" y="307.584"/>
      </g>
     </g>
     <g id="text_3">
      <!-- 10 -->
      <g transform="translate(164.406088 322.182437)scale(0.1 -0.1)">
       <defs>
        <path d="M 794 531 
L 1825 531 
L 1825 4091 
L 703 3866 
L 703 4441 
L 1819 4666 
L 2450 4666 
L 2450 531 
L 3481 531 
L 3481 0 
L 794 0 
L 794 531 
z
" id="DejaVuSans-31" transform="scale(0.015625)"/>
        <path d="M 2034 4250 
Q 1547 4250 1301 3770 
Q 1056 3291 1056 2328 
Q 1056 1369 1301 889 
Q 1547 409 2034 409 
Q 2525 409 2770 889 
Q 3016 1369 3016 2328 
Q 3016 3291 2770 3770 
Q 2525 4250 2034 4250 
z
M 2034 4750 
Q 2819 4750 3233 4129 
Q 3647 3509 3647 2328 
Q 3647 1150 3233 529 
Q 2819 -91 2034 -91 
Q 1250 -91 836 529 
Q 422 1150 422 2328 
Q 422 3509 836 4129 
Q 1250 4750 2034 4750 
z
" id="DejaVuSans-30" transform="scale(0.015625)"/>
       </defs>
       <use xlink:href="#DejaVuSans-31"/>
       <use x="63.623047" xlink:href="#DejaVuSans-30"/>
      </g>
     </g>
    </g>
    <g id="xtick_4">
     <g id="line2d_4">
      <g>
       <use style="stroke:#000000;stroke-width:0.8;" x="216.818878" xlink:href="#m9dd9225a86" y="307.584"/>
      </g>
     </g>
     <g id="text_4">
      <!-- 12 -->
      <g transform="translate(210.456378 322.182437)scale(0.1 -0.1)">
       <defs>
        <path d="M 1228 531 
L 3431 531 
L 3431 0 
L 469 0 
L 469 531 
Q 828 903 1448 1529 
Q 2069 2156 2228 2338 
Q 2531 2678 2651 2914 
Q 2772 3150 2772 3378 
Q 2772 3750 2511 3984 
Q 2250 4219 1831 4219 
Q 1534 4219 1204 4116 
Q 875 4013 500 3803 
L 500 4441 
Q 881 4594 1212 4672 
Q 1544 4750 1819 4750 
Q 2544 4750 2975 4387 
Q 3406 4025 3406 3419 
Q 3406 3131 3298 2873 
Q 3191 2616 2906 2266 
Q 2828 2175 2409 1742 
Q 1991 1309 1228 531 
z
" id="DejaVuSans-32" transform="scale(0.015625)"/>
       </defs>
       <use xlink:href="#DejaVuSans-31"/>
       <use x="63.623047" xlink:href="#DejaVuSans-32"/>
      </g>
     </g>
    </g>
    <g id="xtick_5">
     <g id="line2d_5">
      <g>
       <use style="stroke:#000000;stroke-width:0.8;" x="262.869168" xlink:href="#m9dd9225a86" y="307.584"/>
      </g>
     </g>
     <g id="text_5">
      <!-- 14 -->
      <g transform="translate(256.506668 322.182437)scale(0.1 -0.1)">
       <defs>
        <path d="M 2419 4116 
L 825 1625 
L 2419 1625 
L 2419 4116 
z
M 2253 4666 
L 3047 4666 
L 3047 1625 
L 3713 1625 
L 3713 1100 
L 3047 1100 
L 3047 0 
L 2419 0 
L 2419 1100 
L 313 1100 
L 313 1709 
L 2253 4666 
z
" id="DejaVuSans-34" transform="scale(0.015625)"/>
       </defs>
       <use xlink:href="#DejaVuSans-31"/>
       <use x="63.623047" xlink:href="#DejaVuSans-34"/>
      </g>
     </g>
    </g>
    <g id="xtick_6">
     <g id="line2d_6">
      <g>
       <use style="stroke:#000000;stroke-width:0.8;" x="308.919458" xlink:href="#m9dd9225a86" y="307.584"/>
      </g>
     </g>
     <g id="text_6">
      <!-- 16 -->
      <g transform="translate(302.556958 322.182437)scale(0.1 -0.1)">
       <use xlink:href="#DejaVuSans-31"/>
       <use x="63.623047" xlink:href="#DejaVuSans-36"/>
      </g>
     </g>
    </g>
    <g id="xtick_7">
     <g id="line2d_7">
      <g>
       <use style="stroke:#000000;stroke-width:0.8;" x="354.969749" xlink:href="#m9dd9225a86" y="307.584"/>
      </g>
     </g>
     <g id="text_7">
      <!-- 18 -->
      <g transform="translate(348.607249 322.182437)scale(0.1 -0.1)">
       <use xlink:href="#DejaVuSans-31"/>
       <use x="63.623047" xlink:href="#DejaVuSans-38"/>
      </g>
     </g>
    </g>
    <g id="xtick_8">
     <g id="line2d_8">
      <g>
       <use style="stroke:#000000;stroke-width:0.8;" x="401.020039" xlink:href="#m9dd9225a86" y="307.584"/>
      </g>
     </g>
     <g id="text_8">
      <!-- 20 -->
      <g transform="translate(394.657539 322.182437)scale(0.1 -0.1)">
       <use xlink:href="#DejaVuSans-32"/>
       <use x="63.623047" xlink:href="#DejaVuSans-30"/>
      </g>
     </g>
    </g>
    <g id="text_9">
     <!-- temperature from OpenWeatherMap -->
     <g transform="translate(144.963906 335.860562)scale(0.1 -0.1)">
      <defs>
       <path d="M 1172 4494 
L 1172 3500 
L 2356 3500 
L 2356 3053 
L 1172 3053 
L 1172 1153 
Q 1172 725 1289 603 
Q 1406 481 1766 481 
L 2356 481 
L 2356 0 
L 1766 0 
Q 1100 0 847 248 
Q 594 497 594 1153 
L 594 3053 
L 172 3053 
L 172 3500 
L 594 3500 
L 594 4494 
L 1172 4494 
z
" id="DejaVuSans-74" transform="scale(0.015625)"/>
       <path d="M 3597 1894 
L 3597 1613 
L 953 1613 
Q 991 1019 1311 708 
Q 1631 397 2203 397 
Q 2534 397 2845 478 
Q 3156 559 3463 722 
L 3463 178 
Q 3153 47 2828 -22 
Q 2503 -91 2169 -91 
Q 1331 -91 842 396 
Q 353 884 353 1716 
Q 353 2575 817 3079 
Q 1281 3584 2069 3584 
Q 2775 3584 3186 3129 
Q 3597 2675 3597 1894 
z
M 3022 2063 
Q 3016 2534 2758 2815 
Q 2500 3097 2075 3097 
Q 1594 3097 1305 2825 
Q 1016 2553 972 2059 
L 3022 2063 
z
" id="DejaVuSans-65" transform="scale(0.015625)"/>
       <path d="M 3328 2828 
Q 3544 3216 3844 3400 
Q 4144 3584 4550 3584 
Q 5097 3584 5394 3201 
Q 5691 2819 5691 2113 
L 5691 0 
L 5113 0 
L 5113 2094 
Q 5113 2597 4934 2840 
Q 4756 3084 4391 3084 
Q 3944 3084 3684 2787 
Q 3425 2491 3425 1978 
L 3425 0 
L 2847 0 
L 2847 2094 
Q 2847 2600 2669 2842 
Q 2491 3084 2119 3084 
Q 1678 3084 1418 2786 
Q 1159 2488 1159 1978 
L 1159 0 
L 581 0 
L 581 3500 
L 1159 3500 
L 1159 2956 
Q 1356 3278 1631 3431 
Q 1906 3584 2284 3584 
Q 2666 3584 2933 3390 
Q 3200 3197 3328 2828 
z
" id="DejaVuSans-6d" transform="scale(0.015625)"/>
       <path d="M 1159 525 
L 1159 -1331 
L 581 -1331 
L 581 3500 
L 1159 3500 
L 1159 2969 
Q 1341 3281 1617 3432 
Q 1894 3584 2278 3584 
Q 2916 3584 3314 3078 
Q 3713 2572 3713 1747 
Q 3713 922 3314 415 
Q 2916 -91 2278 -91 
Q 1894 -91 1617 61 
Q 1341 213 1159 525 
z
M 3116 1747 
Q 3116 2381 2855 2742 
Q 2594 3103 2138 3103 
Q 1681 3103 1420 2742 
Q 1159 2381 1159 1747 
Q 1159 1113 1420 752 
Q 1681 391 2138 391 
Q 2594 391 2855 752 
Q 3116 1113 3116 1747 
z
" id="DejaVuSans-70" transform="scale(0.015625)"/>
       <path d="M 2631 2963 
Q 2534 3019 2420 3045 
Q 2306 3072 2169 3072 
Q 1681 3072 1420 2755 
Q 1159 2438 1159 1844 
L 1159 0 
L 581 0 
L 581 3500 
L 1159 3500 
L 1159 2956 
Q 1341 3275 1631 3429 
Q 1922 3584 2338 3584 
Q 2397 3584 2469 3576 
Q 2541 3569 2628 3553 
L 2631 2963 
z
" id="DejaVuSans-72" transform="scale(0.015625)"/>
       <path d="M 2194 1759 
Q 1497 1759 1228 1600 
Q 959 1441 959 1056 
Q 959 750 1161 570 
Q 1363 391 1709 391 
Q 2188 391 2477 730 
Q 2766 1069 2766 1631 
L 2766 1759 
L 2194 1759 
z
M 3341 1997 
L 3341 0 
L 2766 0 
L 2766 531 
Q 2569 213 2275 61 
Q 1981 -91 1556 -91 
Q 1019 -91 701 211 
Q 384 513 384 1019 
Q 384 1609 779 1909 
Q 1175 2209 1959 2209 
L 2766 2209 
L 2766 2266 
Q 2766 2663 2505 2880 
Q 2244 3097 1772 3097 
Q 1472 3097 1187 3025 
Q 903 2953 641 2809 
L 641 3341 
Q 956 3463 1253 3523 
Q 1550 3584 1831 3584 
Q 2591 3584 2966 3190 
Q 3341 2797 3341 1997 
z
" id="DejaVuSans-61" transform="scale(0.015625)"/>
       <path d="M 544 1381 
L 544 3500 
L 1119 3500 
L 1119 1403 
Q 1119 906 1312 657 
Q 1506 409 1894 409 
Q 2359 409 2629 706 
Q 2900 1003 2900 1516 
L 2900 3500 
L 3475 3500 
L 3475 0 
L 2900 0 
L 2900 538 
Q 2691 219 2414 64 
Q 2138 -91 1772 -91 
Q 1169 -91 856 284 
Q 544 659 544 1381 
z
M 1991 3584 
L 1991 3584 
z
" id="DejaVuSans-75" transform="scale(0.015625)"/>
       <path id="DejaVuSans-20" transform="scale(0.015625)"/>
       <path d="M 2375 4863 
L 2375 4384 
L 1825 4384 
Q 1516 4384 1395 4259 
Q 1275 4134 1275 3809 
L 1275 3500 
L 2222 3500 
L 2222 3053 
L 1275 3053 
L 1275 0 
L 697 0 
L 697 3053 
L 147 3053 
L 147 3500 
L 697 3500 
L 697 3744 
Q 697 4328 969 4595 
Q 1241 4863 1831 4863 
L 2375 4863 
z
" id="DejaVuSans-66" transform="scale(0.015625)"/>
       <path d="M 1959 3097 
Q 1497 3097 1228 2736 
Q 959 2375 959 1747 
Q 959 1119 1226 758 
Q 1494 397 1959 397 
Q 2419 397 2687 759 
Q 2956 1122 2956 1747 
Q 2956 2369 2687 2733 
Q 2419 3097 1959 3097 
z
M 1959 3584 
Q 2709 3584 3137 3096 
Q 3566 2609 3566 1747 
Q 3566 888 3137 398 
Q 2709 -91 1959 -91 
Q 1206 -91 779 398 
Q 353 888 353 1747 
Q 353 2609 779 3096 
Q 1206 3584 1959 3584 
z
" id="DejaVuSans-6f" transform="scale(0.015625)"/>
       <path d="M 2522 4238 
Q 1834 4238 1429 3725 
Q 1025 3213 1025 2328 
Q 1025 1447 1429 934 
Q 1834 422 2522 422 
Q 3209 422 3611 934 
Q 4013 1447 4013 2328 
Q 4013 3213 3611 3725 
Q 3209 4238 2522 4238 
z
M 2522 4750 
Q 3503 4750 4090 4092 
Q 4678 3434 4678 2328 
Q 4678 1225 4090 567 
Q 3503 -91 2522 -91 
Q 1538 -91 948 565 
Q 359 1222 359 2328 
Q 359 3434 948 4092 
Q 1538 4750 2522 4750 
z
" id="DejaVuSans-4f" transform="scale(0.015625)"/>
       <path d="M 3513 2113 
L 3513 0 
L 2938 0 
L 2938 2094 
Q 2938 2591 2744 2837 
Q 2550 3084 2163 3084 
Q 1697 3084 1428 2787 
Q 1159 2491 1159 1978 
L 1159 0 
L 581 0 
L 581 3500 
L 1159 3500 
L 1159 2956 
Q 1366 3272 1645 3428 
Q 1925 3584 2291 3584 
Q 2894 3584 3203 3211 
Q 3513 2838 3513 2113 
z
" id="DejaVuSans-6e" transform="scale(0.015625)"/>
       <path d="M 213 4666 
L 850 4666 
L 1831 722 
L 2809 4666 
L 3519 4666 
L 4500 722 
L 5478 4666 
L 6119 4666 
L 4947 0 
L 4153 0 
L 3169 4050 
L 2175 0 
L 1381 0 
L 213 4666 
z
" id="DejaVuSans-57" transform="scale(0.015625)"/>
       <path d="M 3513 2113 
L 3513 0 
L 2938 0 
L 2938 2094 
Q 2938 2591 2744 2837 
Q 2550 3084 2163 3084 
Q 1697 3084 1428 2787 
Q 1159 2491 1159 1978 
L 1159 0 
L 581 0 
L 581 4863 
L 1159 4863 
L 1159 2956 
Q 1366 3272 1645 3428 
Q 1925 3584 2291 3584 
Q 2894 3584 3203 3211 
Q 3513 2838 3513 2113 
z
" id="DejaVuSans-68" transform="scale(0.015625)"/>
       <path d="M 628 4666 
L 1569 4666 
L 2759 1491 
L 3956 4666 
L 4897 4666 
L 4897 0 
L 4281 0 
L 4281 4097 
L 3078 897 
L 2444 897 
L 1241 4097 
L 1241 0 
L 628 0 
L 628 4666 
z
" id="DejaVuSans-4d" transform="scale(0.015625)"/>
      </defs>
      <use xlink:href="#DejaVuSans-74"/>
      <use x="39.208984" xlink:href="#DejaVuSans-65"/>
      <use x="100.732422" xlink:href="#DejaVuSans-6d"/>
      <use x="198.144531" xlink:href="#DejaVuSans-70"/>
      <use x="261.621094" xlink:href="#DejaVuSans-65"/>
      <use x="323.144531" xlink:href="#DejaVuSans-72"/>
      <use x="364.257812" xlink:href="#DejaVuSans-61"/>
      <use x="425.537109" xlink:href="#DejaVuSans-74"/>
      <use x="464.746094" xlink:href="#DejaVuSans-75"/>
      <use x="528.125" xlink:href="#DejaVuSans-72"/>
      <use x="566.988281" xlink:href="#DejaVuSans-65"/>
      <use x="628.511719" xlink:href="#DejaVuSans-20"/>
      <use x="660.298828" xlink:href="#DejaVuSans-66"/>
      <use x="695.503906" xlink:href="#DejaVuSans-72"/>
      <use x="734.367188" xlink:href="#DejaVuSans-6f"/>
      <use x="795.548828" xlink:href="#DejaVuSans-6d"/>
      <use x="892.960938" xlink:href="#DejaVuSans-20"/>
      <use x="924.748047" xlink:href="#DejaVuSans-4f"/>
      <use x="1003.458984" xlink:href="#DejaVuSans-70"/>
      <use x="1066.935547" xlink:href="#DejaVuSans-65"/>
      <use x="1128.458984" xlink:href="#DejaVuSans-6e"/>
      <use x="1191.837891" xlink:href="#DejaVuSans-57"/>
      <use x="1284.839844" xlink:href="#DejaVuSans-65"/>
      <use x="1346.363281" xlink:href="#DejaVuSans-61"/>
      <use x="1407.642578" xlink:href="#DejaVuSans-74"/>
      <use x="1446.851562" xlink:href="#DejaVuSans-68"/>
      <use x="1510.230469" xlink:href="#DejaVuSans-65"/>
      <use x="1571.753906" xlink:href="#DejaVuSans-72"/>
      <use x="1612.867188" xlink:href="#DejaVuSans-4d"/>
      <use x="1699.146484" xlink:href="#DejaVuSans-61"/>
      <use x="1760.425781" xlink:href="#DejaVuSans-70"/>
     </g>
    </g>
   </g>
   <g id="matplotlib.axis_2">
    <g id="ytick_1">
     <g id="line2d_9">
      <defs>
       <path d="M 0 0 
L -3.5 0 
" id="m22f3e86a19" style="stroke:#000000;stroke-width:0.8;"/>
      </defs>
      <g>
       <use style="stroke:#000000;stroke-width:0.8;" x="57.6" xlink:href="#m22f3e86a19" y="291.863228"/>
      </g>
     </g>
     <g id="text_10">
      <!-- 3.50 -->
      <g transform="translate(28.334375 295.662446)scale(0.1 -0.1)">
       <defs>
        <path d="M 2597 2516 
Q 3050 2419 3304 2112 
Q 3559 1806 3559 1356 
Q 3559 666 3084 287 
Q 2609 -91 1734 -91 
Q 1441 -91 1130 -33 
Q 819 25 488 141 
L 488 750 
Q 750 597 1062 519 
Q 1375 441 1716 441 
Q 2309 441 2620 675 
Q 2931 909 2931 1356 
Q 2931 1769 2642 2001 
Q 2353 2234 1838 2234 
L 1294 2234 
L 1294 2753 
L 1863 2753 
Q 2328 2753 2575 2939 
Q 2822 3125 2822 3475 
Q 2822 3834 2567 4026 
Q 2313 4219 1838 4219 
Q 1578 4219 1281 4162 
Q 984 4106 628 3988 
L 628 4550 
Q 988 4650 1302 4700 
Q 1616 4750 1894 4750 
Q 2613 4750 3031 4423 
Q 3450 4097 3450 3541 
Q 3450 3153 3228 2886 
Q 3006 2619 2597 2516 
z
" id="DejaVuSans-33" transform="scale(0.015625)"/>
        <path d="M 684 794 
L 1344 794 
L 1344 0 
L 684 0 
L 684 794 
z
" id="DejaVuSans-2e" transform="scale(0.015625)"/>
        <path d="M 691 4666 
L 3169 4666 
L 3169 4134 
L 1269 4134 
L 1269 2991 
Q 1406 3038 1543 3061 
Q 1681 3084 1819 3084 
Q 2600 3084 3056 2656 
Q 3513 2228 3513 1497 
Q 3513 744 3044 326 
Q 2575 -91 1722 -91 
Q 1428 -91 1123 -41 
Q 819 9 494 109 
L 494 744 
Q 775 591 1075 516 
Q 1375 441 1709 441 
Q 2250 441 2565 725 
Q 2881 1009 2881 1497 
Q 2881 1984 2565 2268 
Q 2250 2553 1709 2553 
Q 1456 2553 1204 2497 
Q 953 2441 691 2322 
L 691 4666 
z
" id="DejaVuSans-35" transform="scale(0.015625)"/>
       </defs>
       <use xlink:href="#DejaVuSans-33"/>
       <use x="63.623047" xlink:href="#DejaVuSans-2e"/>
       <use x="95.410156" xlink:href="#DejaVuSans-35"/>
       <use x="159.033203" xlink:href="#DejaVuSans-30"/>
      </g>
     </g>
    </g>
    <g id="ytick_2">
     <g id="line2d_10">
      <g>
       <use style="stroke:#000000;stroke-width:0.8;" x="57.6" xlink:href="#m22f3e86a19" y="258.300519"/>
      </g>
     </g>
     <g id="text_11">
      <!-- 3.75 -->
      <g transform="translate(28.334375 262.099738)scale(0.1 -0.1)">
       <defs>
        <path d="M 525 4666 
L 3525 4666 
L 3525 4397 
L 1831 0 
L 1172 0 
L 2766 4134 
L 525 4134 
L 525 4666 
z
" id="DejaVuSans-37" transform="scale(0.015625)"/>
       </defs>
       <use xlink:href="#DejaVuSans-33"/>
       <use x="63.623047" xlink:href="#DejaVuSans-2e"/>
       <use x="95.410156" xlink:href="#DejaVuSans-37"/>
       <use x="159.033203" xlink:href="#DejaVuSans-35"/>
      </g>
     </g>
    </g>
    <g id="ytick_3">
     <g id="line2d_11">
      <g>
       <use style="stroke:#000000;stroke-width:0.8;" x="57.6" xlink:href="#m22f3e86a19" y="224.737811"/>
      </g>
     </g>
     <g id="text_12">
      <!-- 4.00 -->
      <g transform="translate(28.334375 228.53703)scale(0.1 -0.1)">
       <use xlink:href="#DejaVuSans-34"/>
       <use x="63.623047" xlink:href="#DejaVuSans-2e"/>
       <use x="95.410156" xlink:href="#DejaVuSans-30"/>
       <use x="159.033203" xlink:href="#DejaVuSans-30"/>
      </g>
     </g>
    </g>
    <g id="ytick_4">
     <g id="line2d_12">
      <g>
       <use style="stroke:#000000;stroke-width:0.8;" x="57.6" xlink:href="#m22f3e86a19" y="191.175103"/>
      </g>
     </g>
     <g id="text_13">
      <!-- 4.25 -->
      <g transform="translate(28.334375 194.974322)scale(0.1 -0.1)">
       <use xlink:href="#DejaVuSans-34"/>
       <use x="63.623047" xlink:href="#DejaVuSans-2e"/>
       <use x="95.410156" xlink:href="#DejaVuSans-32"/>
       <use x="159.033203" xlink:href="#DejaVuSans-35"/>
      </g>
     </g>
    </g>
    <g id="ytick_5">
     <g id="line2d_13">
      <g>
       <use style="stroke:#000000;stroke-width:0.8;" x="57.6" xlink:href="#m22f3e86a19" y="157.612395"/>
      </g>
     </g>
     <g id="text_14">
      <!-- 4.50 -->
      <g transform="translate(28.334375 161.411614)scale(0.1 -0.1)">
       <use xlink:href="#DejaVuSans-34"/>
       <use x="63.623047" xlink:href="#DejaVuSans-2e"/>
       <use x="95.410156" xlink:href="#DejaVuSans-35"/>
       <use x="159.033203" xlink:href="#DejaVuSans-30"/>
      </g>
     </g>
    </g>
    <g id="ytick_6">
     <g id="line2d_14">
      <g>
       <use style="stroke:#000000;stroke-width:0.8;" x="57.6" xlink:href="#m22f3e86a19" y="124.049687"/>
      </g>
     </g>
     <g id="text_15">
      <!-- 4.75 -->
      <g transform="translate(28.334375 127.848906)scale(0.1 -0.1)">
       <use xlink:href="#DejaVuSans-34"/>
       <use x="63.623047" xlink:href="#DejaVuSans-2e"/>
       <use x="95.410156" xlink:href="#DejaVuSans-37"/>
       <use x="159.033203" xlink:href="#DejaVuSans-35"/>
      </g>
     </g>
    </g>
    <g id="ytick_7">
     <g id="line2d_15">
      <g>
       <use style="stroke:#000000;stroke-width:0.8;" x="57.6" xlink:href="#m22f3e86a19" y="90.486979"/>
      </g>
     </g>
     <g id="text_16">
      <!-- 5.00 -->
      <g transform="translate(28.334375 94.286198)scale(0.1 -0.1)">
       <use xlink:href="#DejaVuSans-35"/>
       <use x="63.623047" xlink:href="#DejaVuSans-2e"/>
       <use x="95.410156" xlink:href="#DejaVuSans-30"/>
       <use x="159.033203" xlink:href="#DejaVuSans-30"/>
      </g>
     </g>
    </g>
    <g id="ytick_8">
     <g id="line2d_16">
      <g>
       <use style="stroke:#000000;stroke-width:0.8;" x="57.6" xlink:href="#m22f3e86a19" y="56.924271"/>
      </g>
     </g>
     <g id="text_17">
      <!-- 5.25 -->
      <g transform="translate(28.334375 60.72349)scale(0.1 -0.1)">
       <use xlink:href="#DejaVuSans-35"/>
       <use x="63.623047" xlink:href="#DejaVuSans-2e"/>
       <use x="95.410156" xlink:href="#DejaVuSans-32"/>
       <use x="159.033203" xlink:href="#DejaVuSans-35"/>
      </g>
     </g>
    </g>
   </g>
   <g id="line2d_17">
    <path clip-path="url(#p9d01631735)" d="M 73.832727 146.335325 
L 77.056248 189.698344 
L 77.51675 183.791307 
L 79.128511 178.958277 
L 79.358762 171.574482 
L 82.121779 100.28729 
L 86.726809 197.887645 
L 88.799072 216.011507 
L 89.029323 197.216391 
L 89.950329 269.309088 
L 90.18058 192.383361 
L 92.713346 149.960098 
L 93.634352 183.254304 
L 96.167118 206.479698 
L 96.397369 119.350908 
L 98.00913 146.872329 
L 98.469632 193.323117 
L 101.462901 141.099543 
L 103.995667 211.178477 
L 104.45617 230.510597 
L 105.377176 174.259498 
L 106.298182 216.682761 
L 106.528433 211.446979 
L 107.219188 204.197434 
L 107.679691 176.407512 
L 108.600696 189.02709 
L 109.061199 175.467756 
L 109.751954 179.092528 
L 109.982205 216.011507 
L 110.212456 200.30416 
L 110.672959 199.767156 
L 112.975474 176.13901 
L 114.817485 256.689509 
L 115.047737 158.686402 
L 115.738491 178.152772 
L 116.429246 179.226779 
L 116.659497 174.393749 
L 117.12 186.610575 
L 117.810754 181.643294 
L 118.271257 197.216391 
L 119.192263 179.898033 
L 120.34352 207.822206 
L 120.573772 128.882717 
L 121.034275 200.572661 
L 121.725029 201.512417 
L 123.567041 91.292484 
L 123.797292 193.323117 
L 124.027544 165.667445 
L 124.948549 165.667445 
L 127.941818 224.066557 
L 128.17207 212.789487 
L 128.632573 153.316368 
L 128.862824 135.326757 
L 129.323327 138.011774 
L 129.78383 166.47295 
L 130.935087 206.613949 
L 131.165338 162.713927 
L 131.856093 88.473216 
L 132.086344 200.975414 
L 132.777099 180.703538 
L 133.237602 195.47113 
L 133.467853 226.21457 
L 133.928356 180.300786 
L 134.158607 230.644848 
L 134.388859 171.708733 
L 134.61911 215.474504 
L 134.849362 157.478144 
L 135.770368 220.978788 
L 136.23087 180.435037 
L 136.461122 177.615769 
L 136.691373 176.944515 
L 137.151876 189.429842 
L 137.382128 204.734437 
L 137.842631 166.875703 
L 138.072882 193.188866 
L 138.763636 203.928932 
L 138.993888 203.391929 
L 139.454391 183.388555 
L 139.684642 186.342073 
L 140.605648 131.836235 
L 140.835899 127.942961 
L 141.066151 180.032284 
L 141.296402 143.784559 
L 141.526654 213.460741 
L 141.756905 190.503849 
L 142.44766 191.040852 
L 142.677911 167.949709 
L 142.908162 161.102917 
L 143.138414 189.966846 
L 143.598917 189.295592 
L 144.980426 136.669265 
L 145.210677 202.586424 
L 145.67118 172.379987 
L 147.743443 187.818832 
L 149.815706 217.622517 
L 150.50646 176.407512 
L 150.736712 199.364404 
L 151.887969 171.30598 
L 152.348472 200.706912 
L 152.578723 192.920364 
L 153.039226 220.307534 
L 154.190484 184.462562 
L 154.650986 224.872062 
L 156.262747 196.813638 
L 156.492998 142.442051 
L 157.414004 158.149398 
L 157.644255 215.206002 
L 157.874507 176.810264 
L 158.104758 176.676013 
L 158.565261 179.763782 
L 158.795513 84.17719 
L 159.256015 147.946335 
L 159.486267 111.430109 
L 159.94677 176.13901 
L 160.867776 178.018522 
L 161.328279 250.916724 
L 162.479536 173.990997 
L 162.709787 189.564093 
L 162.940039 150.228599 
L 164.78205 200.706912 
L 165.012302 190.772351 
L 165.472805 199.498655 
L 165.703056 141.368044 
L 167.314816 166.607201 
L 167.545068 201.378166 
L 168.235822 191.443605 
L 168.466074 202.586424 
L 169.847582 193.054615 
L 170.077834 151.034104 
L 170.538337 212.118233 
L 170.768588 140.965292 
L 171.229091 175.333505 
L 171.459342 181.106291 
L 171.919845 232.65861 
L 172.150097 174.259498 
L 172.380348 166.47295 
L 173.301354 201.646668 
L 173.531605 199.498655 
L 173.761857 237.49164 
L 173.992108 223.932306 
L 174.452611 209.433216 
L 175.603868 182.046047 
L 175.83412 224.46931 
L 176.294623 134.521252 
L 176.524874 170.768977 
L 176.985377 217.354016 
L 177.215629 205.002939 
L 177.906383 241.787667 
L 179.05764 178.018522 
L 179.518143 161.371418 
L 180.208897 157.209643 
L 180.439149 198.156147 
L 181.129903 183.388555 
L 181.820658 187.41608 
L 182.511412 202.720675 
L 183.432418 158.552151 
L 183.662669 118.813905 
L 183.892921 246.620697 
L 184.123172 220.307534 
L 184.813926 216.41426 
L 185.734932 200.975414 
L 186.425687 139.08578 
L 186.655938 170.231973 
L 187.116441 175.736257 
L 187.346692 191.577856 
L 187.576944 120.827667 
L 188.037447 159.626158 
L 188.49795 170.500475 
L 188.728201 208.896213 
L 189.418956 173.588244 
L 189.649207 184.462562 
L 189.879458 185.80507 
L 191.030716 168.889465 
L 191.260967 227.422828 
L 191.491219 194.799876 
L 192.181973 176.407512 
L 192.872727 188.624337 
L 193.102979 199.767156 
L 193.563482 155.598633 
L 193.793733 207.016701 
L 194.023985 143.784559 
L 194.714739 187.684582 
L 194.94499 148.75184 
L 195.175242 181.374792 
L 195.405493 235.343627 
L 196.326499 195.202628 
L 197.017253 125.257945 
L 197.247505 162.579676 
L 197.477756 178.958277 
L 197.708008 216.145758 
L 198.398762 233.464115 
L 199.089516 165.264693 
L 199.550019 230.510597 
L 200.240774 178.421274 
L 200.701277 132.64174 
L 200.931528 181.643294 
L 201.161779 199.632906 
L 201.622282 176.541762 
L 201.852534 177.615769 
L 202.082785 148.617589 
L 202.313037 172.379987 
L 202.543288 141.368044 
L 202.77354 195.47113 
L 203.234043 139.757034 
L 203.694545 272.128355 
L 203.924797 178.689776 
L 204.615551 191.175103 
L 205.766809 162.311174 
L 206.227311 173.856746 
L 206.457563 295.488 
L 207.148317 144.724315 
L 207.378569 184.059809 
L 207.60882 180.97204 
L 207.839072 186.476324 
L 209.681083 95.588511 
L 209.911335 178.958277 
L 210.141586 207.687956 
L 210.602089 155.867134 
L 211.753346 205.808444 
L 211.983598 169.560719 
L 212.674352 204.600186 
L 212.904603 154.256124 
L 213.134855 254.809998 
L 213.595358 155.598633 
L 214.286112 170.768977 
L 214.516364 183.254304 
L 214.976867 182.180297 
L 215.897872 204.465936 
L 216.128124 192.651862 
L 216.358375 214.131996 
L 217.04913 169.963472 
L 217.509632 193.994371 
L 217.739884 53.568 
L 217.970135 223.395303 
L 218.430638 136.266513 
L 218.66089 154.121873 
L 218.891141 200.169909 
L 220.042398 221.784293 
L 220.502901 156.672639 
L 220.733153 182.314548 
L 220.963404 161.774171 
L 221.654159 155.061629 
L 222.344913 150.36285 
L 222.805416 159.894659 
L 223.035667 186.610575 
L 223.49617 157.478144 
L 223.726422 157.746646 
L 224.417176 165.398943 
L 224.647427 115.726135 
L 225.10793 203.794681 
L 225.338182 126.06345 
L 225.568433 194.799876 
L 226.028936 190.906602 
L 226.719691 169.426468 
L 226.949942 216.548511 
L 227.870948 174.528 
L 228.101199 188.490087 
L 228.561702 194.934127 
L 229.252456 192.383361 
L 229.712959 198.156147 
L 230.633965 160.700164 
L 231.094468 199.095902 
L 231.554971 165.130442 
L 231.785222 189.832595 
L 232.245725 178.555525 
L 232.706228 205.942695 
L 232.93648 163.653683 
L 233.396983 192.114859 
L 233.627234 144.590064 
L 234.087737 166.607201 
L 235.008743 164.459188 
L 235.238994 182.046047 
L 235.699497 154.121873 
L 235.929749 157.746646 
L 236.390251 245.815192 
L 236.850754 179.763782 
L 237.77176 151.839609 
L 238.462515 187.550331 
L 238.692766 207.822206 
L 239.153269 190.503849 
L 239.38352 202.586424 
L 239.844023 200.975414 
L 240.074275 192.517612 
L 240.534778 125.392195 
L 240.765029 214.668999 
L 240.99528 171.440231 
L 241.225532 218.02527 
L 242.146538 160.431663 
L 242.376789 155.330131 
L 242.607041 190.101097 
L 242.837292 264.073305 
L 243.067544 191.577856 
L 243.528046 146.603827 
L 243.758298 216.951263 
L 244.218801 167.546957 
L 245.139807 197.216391 
L 245.600309 181.911796 
L 245.830561 205.942695 
L 246.751567 204.734437 
L 246.981818 169.829221 
L 247.21207 195.47113 
L 247.442321 159.760408 
L 248.133075 201.512417 
L 248.363327 105.25457 
L 248.593578 203.660431 
L 248.82383 163.519432 
L 249.054081 207.016701 
L 249.284333 175.736257 
L 249.744836 189.698344 
L 250.43559 189.429842 
L 250.665841 184.999565 
L 250.896093 194.397123 
L 251.356596 207.285203 
L 251.817099 170.768977 
L 252.968356 174.930752 
L 253.198607 164.996191 
L 253.65911 213.997745 
L 253.889362 206.7482 
L 254.119613 173.722495 
L 254.580116 135.86376 
L 254.810368 184.999565 
L 255.040619 178.555525 
L 255.501122 154.927378 
L 255.731373 104.717567 
L 255.961625 171.977234 
L 256.422128 205.13719 
L 257.112882 137.340519 
L 258.033888 155.732883 
L 259.415397 211.044226 
L 260.336402 193.725869 
L 260.566654 170.768977 
L 261.027157 164.996191 
L 261.48766 217.354016 
L 261.948162 123.915436 
L 262.638917 215.206002 
L 263.559923 151.302606 
L 264.941431 173.722495 
L 266.553191 134.118499 
L 266.783443 218.965026 
L 267.474197 154.524626 
L 267.9347 135.729509 
L 268.625455 185.133816 
L 268.855706 172.379987 
L 269.085957 134.387001 
L 270.697718 180.569287 
L 272.079226 163.922184 
L 273.000232 201.243916 
L 273.230484 178.824027 
L 274.381741 178.824027 
L 274.611992 112.235614 
L 275.072495 136.937767 
L 275.532998 153.58487 
L 275.76325 211.044226 
L 276.223752 161.237168 
L 276.454004 148.75184 
L 276.684255 121.36467 
L 276.914507 227.69133 
L 277.144758 137.206269 
L 277.835513 202.586424 
L 278.296015 173.319743 
L 278.526267 170.231973 
L 279.677524 181.509043 
L 280.138027 207.419454 
L 281.749787 173.453993 
L 282.440542 208.35921 
L 283.131296 178.018522 
L 284.282553 163.25093 
L 284.512805 205.539942 
L 284.973308 203.660431 
L 286.124565 128.211463 
L 286.585068 186.879077 
L 286.815319 165.533194 
L 287.275822 197.08214 
L 287.736325 187.147578 
L 287.966576 128.211463 
L 288.427079 201.780919 
L 288.657331 186.207822 
L 289.348085 157.209643 
L 289.808588 173.453993 
L 291.190097 165.801696 
L 291.420348 194.531374 
L 292.111103 225.006313 
L 292.571605 176.676013 
L 292.801857 190.235347 
L 293.032108 175.467756 
L 293.26236 182.046047 
L 293.492611 205.271441 
L 293.722863 177.75002 
L 294.643868 175.333505 
L 294.87412 244.204182 
L 295.564874 160.834415 
L 295.795126 169.560719 
L 296.025377 153.987623 
L 296.255629 220.307534 
L 296.48588 112.504115 
L 296.716132 149.288844 
L 297.637137 126.331951 
L 299.018646 139.891285 
L 299.7094 200.975414 
L 300.400155 134.789754 
L 300.630406 168.620963 
L 301.090909 176.541762 
L 302.011915 139.891285 
L 303.393424 217.085514 
L 304.084178 151.97386 
L 305.235435 191.846357 
L 305.695938 193.188866 
L 305.92619 222.99255 
L 306.156441 177.347267 
L 307.077447 122.707179 
L 307.53795 161.774171 
L 307.998453 148.349088 
L 308.689207 256.958011 
L 309.840464 182.448799 
L 310.070716 200.975414 
L 310.300967 171.574482 
L 310.76147 206.613949 
L 310.991721 118.679654 
L 311.682476 189.161341 
L 311.912727 178.287023 
L 312.142979 136.400764 
L 312.603482 198.021896 
L 312.833733 182.046047 
L 313.294236 185.80507 
L 313.524487 85.653949 
L 313.754739 193.591618 
L 314.445493 137.206269 
L 314.675745 192.383361 
L 315.366499 174.259498 
L 315.59675 134.118499 
L 316.287505 170.366224 
L 317.438762 123.109931 
L 317.669014 184.865314 
L 318.590019 189.161341 
L 319.511025 198.69315 
L 320.662282 194.531374 
L 321.122785 170.903228 
L 321.353037 149.825847 
L 322.964797 217.756768 
L 323.655551 106.194326 
L 325.497563 200.30416 
L 326.879072 204.465936 
L 327.109323 140.025536 
L 327.569826 140.294038 
L 330.563095 207.016701 
L 332.635358 157.880897 
L 333.786615 151.034104 
L 335.168124 176.944515 
L 335.398375 80.820919 
L 335.858878 154.658877 
L 337.010135 180.837789 
L 337.470638 215.071751 
L 339.773153 150.899853 
L 340.694159 137.743272 
L 345.759691 199.498655 
L 347.601702 185.402317 
L 347.831954 152.779365 
L 349.673965 139.757034 
L 351.285725 191.980608 
L 352.897485 154.390375 
L 353.818491 193.457367 
L 354.969749 173.453993 
L 357.732766 170.903228 
L 359.114275 197.619143 
L 359.574778 173.319743 
L 360.495783 235.74638 
L 361.416789 156.135636 
L 362.568046 191.040852 
L 363.258801 198.290397 
L 364.179807 167.278455 
L 364.410058 169.023716 
L 364.640309 222.187046 
L 368.094081 149.423094 
L 369.245338 167.815458 
L 372.008356 207.687956 
L 374.080619 200.975414 
L 376.152882 201.646668 
L 378.225145 94.514504 
L 378.685648 156.538388 
L 380.757911 194.665625 
L 382.830174 196.679387 
L 386.9747 175.736257 
L 391.119226 174.796502 
L 398.487273 176.407512 
L 398.487273 176.407512 
" style="fill:none;stroke:#0000ff;stroke-linecap:square;stroke-width:1.5;"/>
   </g>
   <g id="patch_3">
    <path d="M 57.6 307.584 
L 57.6 41.472 
" style="fill:none;stroke:#000000;stroke-linecap:square;stroke-linejoin:miter;stroke-width:0.8;"/>
   </g>
   <g id="patch_4">
    <path d="M 414.72 307.584 
L 414.72 41.472 
" style="fill:none;stroke:#000000;stroke-linecap:square;stroke-linejoin:miter;stroke-width:0.8;"/>
   </g>
   <g id="patch_5">
    <path d="M 57.6 307.584 
L 414.72 307.584 
" style="fill:none;stroke:#000000;stroke-linecap:square;stroke-linejoin:miter;stroke-width:0.8;"/>
   </g>
   <g id="patch_6">
    <path d="M 57.6 41.472 
L 414.72 41.472 
" style="fill:none;stroke:#000000;stroke-linecap:square;stroke-linejoin:miter;stroke-width:0.8;"/>
   </g>
   <g id="text_18">
    <!-- temperature-&gt;ping_night -->
    <g transform="translate(159.735938 35.472)scale(0.12 -0.12)">
     <defs>
      <path d="M 313 2009 
L 1997 2009 
L 1997 1497 
L 313 1497 
L 313 2009 
z
" id="DejaVuSans-2d" transform="scale(0.015625)"/>
      <path d="M 678 3150 
L 678 3719 
L 4684 2266 
L 4684 1747 
L 678 294 
L 678 863 
L 3897 2003 
L 678 3150 
z
" id="DejaVuSans-3e" transform="scale(0.015625)"/>
      <path d="M 603 3500 
L 1178 3500 
L 1178 0 
L 603 0 
L 603 3500 
z
M 603 4863 
L 1178 4863 
L 1178 4134 
L 603 4134 
L 603 4863 
z
" id="DejaVuSans-69" transform="scale(0.015625)"/>
      <path d="M 2906 1791 
Q 2906 2416 2648 2759 
Q 2391 3103 1925 3103 
Q 1463 3103 1205 2759 
Q 947 2416 947 1791 
Q 947 1169 1205 825 
Q 1463 481 1925 481 
Q 2391 481 2648 825 
Q 2906 1169 2906 1791 
z
M 3481 434 
Q 3481 -459 3084 -895 
Q 2688 -1331 1869 -1331 
Q 1566 -1331 1297 -1286 
Q 1028 -1241 775 -1147 
L 775 -588 
Q 1028 -725 1275 -790 
Q 1522 -856 1778 -856 
Q 2344 -856 2625 -561 
Q 2906 -266 2906 331 
L 2906 616 
Q 2728 306 2450 153 
Q 2172 0 1784 0 
Q 1141 0 747 490 
Q 353 981 353 1791 
Q 353 2603 747 3093 
Q 1141 3584 1784 3584 
Q 2172 3584 2450 3431 
Q 2728 3278 2906 2969 
L 2906 3500 
L 3481 3500 
L 3481 434 
z
" id="DejaVuSans-67" transform="scale(0.015625)"/>
      <path d="M 3263 -1063 
L 3263 -1509 
L -63 -1509 
L -63 -1063 
L 3263 -1063 
z
" id="DejaVuSans-5f" transform="scale(0.015625)"/>
     </defs>
     <use xlink:href="#DejaVuSans-74"/>
     <use x="39.208984" xlink:href="#DejaVuSans-65"/>
     <use x="100.732422" xlink:href="#DejaVuSans-6d"/>
     <use x="198.144531" xlink:href="#DejaVuSans-70"/>
     <use x="261.621094" xlink:href="#DejaVuSans-65"/>
     <use x="323.144531" xlink:href="#DejaVuSans-72"/>
     <use x="364.257812" xlink:href="#DejaVuSans-61"/>
     <use x="425.537109" xlink:href="#DejaVuSans-74"/>
     <use x="464.746094" xlink:href="#DejaVuSans-75"/>
     <use x="528.125" xlink:href="#DejaVuSans-72"/>
     <use x="566.988281" xlink:href="#DejaVuSans-65"/>
     <use x="628.511719" xlink:href="#DejaVuSans-2d"/>
     <use x="664.595703" xlink:href="#DejaVuSans-3e"/>
     <use x="748.384766" xlink:href="#DejaVuSans-70"/>
     <use x="811.861328" xlink:href="#DejaVuSans-69"/>
     <use x="839.644531" xlink:href="#DejaVuSans-6e"/>
     <use x="903.023438" xlink:href="#DejaVuSans-67"/>
     <use x="966.5" xlink:href="#DejaVuSans-5f"/>
     <use x="1016.5" xlink:href="#DejaVuSans-6e"/>
     <use x="1079.878906" xlink:href="#DejaVuSans-69"/>
     <use x="1107.662109" xlink:href="#DejaVuSans-67"/>
     <use x="1171.138672" xlink:href="#DejaVuSans-68"/>
     <use x="1234.517578" xlink:href="#DejaVuSans-74"/>
    </g>
   </g>
  </g>
  <g id="legend_1">
   <g id="patch_7">
    <path d="M 415.451563 22.678125 
L 453.8 22.678125 
Q 455.8 22.678125 455.8 20.678125 
L 455.8 7 
Q 455.8 5 453.8 5 
L 415.451563 5 
Q 413.451563 5 413.451563 7 
L 413.451563 20.678125 
Q 413.451563 22.678125 415.451563 22.678125 
z
" style="fill:#ffffff;opacity:0.8;stroke:#cccccc;stroke-linejoin:miter;"/>
   </g>
   <g id="line2d_18">
    <path d="M 417.451563 13.098438 
L 437.451563 13.098438 
" style="fill:none;stroke:#0000ff;stroke-linecap:square;stroke-width:1.5;"/>
   </g>
   <g id="line2d_19"/>
   <g id="text_19">
    <!-- p -->
    <g transform="translate(445.451563 16.598438)scale(0.1 -0.1)">
     <use xlink:href="#DejaVuSans-70"/>
    </g>
   </g>
  </g>
 </g>
 <defs>
  <clipPath id="p9d01631735">
   <rect height="266.112" width="357.12" x="57.6" y="41.472"/>
  </clipPath>
 </defs>
</svg>
