<?xml version="1.0" encoding="utf-8" standalone="no"?>
<!DOCTYPE svg PUBLIC "-//W3C//DTD SVG 1.1//EN"
  "http://www.w3.org/Graphics/SVG/1.1/DTD/svg11.dtd">
<!-- Created with matplotlib (https://matplotlib.org/) -->
<svg height="2090.31625pt" version="1.1" viewBox="0 0 2061.98125 2090.31625" width="2061.98125pt" xmlns="http://www.w3.org/2000/svg" xmlns:xlink="http://www.w3.org/1999/xlink">
 <metadata>
  <rdf:RDF xmlns:cc="http://creativecommons.org/ns#" xmlns:dc="http://purl.org/dc/elements/1.1/" xmlns:rdf="http://www.w3.org/1999/02/22-rdf-syntax-ns#">
   <cc:Work>
    <dc:type rdf:resource="http://purl.org/dc/dcmitype/StillImage"/>
    <dc:date>2022-07-23T20:54:57.210046</dc:date>
    <dc:format>image/svg+xml</dc:format>
    <dc:creator>
     <cc:Agent>
      <dc:title>Matplotlib v3.3.2, https://matplotlib.org/</dc:title>
     </cc:Agent>
    </dc:creator>
   </cc:Work>
  </rdf:RDF>
 </metadata>
 <defs>
  <style type="text/css">*{stroke-linecap:butt;stroke-linejoin:round;}</style>
 </defs>
 <g id="figure_1">
  <g id="patch_1">
   <path d="M 0 2090.31625 
L 2061.98125 2090.31625 
L 2061.98125 0 
L 0 0 
z
" style="fill:#ffffff;"/>
  </g>
  <g id="axes_1">
   <g id="patch_2">
    <path d="M 43.78125 2052.76 
L 1829.38125 2052.76 
L 1829.38125 278.68 
L 43.78125 278.68 
z
" style="fill:#ffffff;"/>
   </g>
   <g id="matplotlib.axis_1">
    <g id="xtick_1">
     <g id="line2d_1">
      <defs>
       <path d="M 0 0 
L 0 3.5 
" id="me3e708cacc" style="stroke:#000000;stroke-width:0.8;"/>
      </defs>
      <g>
       <use style="stroke:#000000;stroke-width:0.8;" x="204.777971" xlink:href="#me3e708cacc" y="2052.76"/>
      </g>
     </g>
     <g id="text_1">
      <text style="font-family:DejaVu Sans;font-size:10px;font-stretch:normal;font-style:normal;font-weight:normal;text-anchor:middle;" transform="rotate(-0, 204.777971, 2067.358438)" x="204.777971" y="2067.358438">40</text>
     </g>
    </g>
    <g id="xtick_2">
     <g id="line2d_2">
      <g>
       <use style="stroke:#000000;stroke-width:0.8;" x="470.888254" xlink:href="#me3e708cacc" y="2052.76"/>
      </g>
     </g>
     <g id="text_2">
      <text style="font-family:DejaVu Sans;font-size:10px;font-stretch:normal;font-style:normal;font-weight:normal;text-anchor:middle;" transform="rotate(-0, 470.888254, 2067.358438)" x="470.888254" y="2067.358438">50</text>
     </g>
    </g>
    <g id="xtick_3">
     <g id="line2d_3">
      <g>
       <use style="stroke:#000000;stroke-width:0.8;" x="736.998538" xlink:href="#me3e708cacc" y="2052.76"/>
      </g>
     </g>
     <g id="text_3">
      <text style="font-family:DejaVu Sans;font-size:10px;font-stretch:normal;font-style:normal;font-weight:normal;text-anchor:middle;" transform="rotate(-0, 736.998538, 2067.358438)" x="736.998538" y="2067.358438">60</text>
     </g>
    </g>
    <g id="xtick_4">
     <g id="line2d_4">
      <g>
       <use style="stroke:#000000;stroke-width:0.8;" x="1003.108821" xlink:href="#me3e708cacc" y="2052.76"/>
      </g>
     </g>
     <g id="text_4">
      <text style="font-family:DejaVu Sans;font-size:10px;font-stretch:normal;font-style:normal;font-weight:normal;text-anchor:middle;" transform="rotate(-0, 1003.108821, 2067.358438)" x="1003.108821" y="2067.358438">70</text>
     </g>
    </g>
    <g id="xtick_5">
     <g id="line2d_5">
      <g>
       <use style="stroke:#000000;stroke-width:0.8;" x="1269.219104" xlink:href="#me3e708cacc" y="2052.76"/>
      </g>
     </g>
     <g id="text_5">
      <text style="font-family:DejaVu Sans;font-size:10px;font-stretch:normal;font-style:normal;font-weight:normal;text-anchor:middle;" transform="rotate(-0, 1269.219104, 2067.358438)" x="1269.219104" y="2067.358438">80</text>
     </g>
    </g>
    <g id="xtick_6">
     <g id="line2d_6">
      <g>
       <use style="stroke:#000000;stroke-width:0.8;" x="1535.329387" xlink:href="#me3e708cacc" y="2052.76"/>
      </g>
     </g>
     <g id="text_6">
      <text style="font-family:DejaVu Sans;font-size:10px;font-stretch:normal;font-style:normal;font-weight:normal;text-anchor:middle;" transform="rotate(-0, 1535.329387, 2067.358438)" x="1535.329387" y="2067.358438">90</text>
     </g>
    </g>
    <g id="xtick_7">
     <g id="line2d_7">
      <g>
       <use style="stroke:#000000;stroke-width:0.8;" x="1801.43967" xlink:href="#me3e708cacc" y="2052.76"/>
      </g>
     </g>
     <g id="text_7">
      <text style="font-family:DejaVu Sans;font-size:10px;font-stretch:normal;font-style:normal;font-weight:normal;text-anchor:middle;" transform="rotate(-0, 1801.43967, 2067.358438)" x="1801.43967" y="2067.358438">100</text>
     </g>
    </g>
    <g id="text_8">
     <text style="font-family:DejaVu Sans;font-size:10px;font-stretch:normal;font-style:normal;font-weight:normal;text-anchor:middle;" transform="rotate(-0, 936.58125, 2081.036562)" x="936.58125" y="2081.036562">humidity from WeatherBitIO</text>
    </g>
   </g>
   <g id="matplotlib.axis_2">
    <g id="ytick_1">
     <g id="line2d_8">
      <defs>
       <path d="M 0 0 
L -3.5 0 
" id="mf7112f1524" style="stroke:#000000;stroke-width:0.8;"/>
      </defs>
      <g>
       <use style="stroke:#000000;stroke-width:0.8;" x="43.78125" xlink:href="#mf7112f1524" y="1927.03965"/>
      </g>
     </g>
     <g id="text_9">
      <text style="font-family:DejaVu Sans;font-size:10px;font-stretch:normal;font-style:normal;font-weight:normal;text-anchor:end;" transform="rotate(-0, 36.78125, 1930.838868)" x="36.78125" y="1930.838868">4.0</text>
     </g>
    </g>
    <g id="ytick_2">
     <g id="line2d_9">
      <g>
       <use style="stroke:#000000;stroke-width:0.8;" x="43.78125" xlink:href="#mf7112f1524" y="1590.619124"/>
      </g>
     </g>
     <g id="text_10">
      <text style="font-family:DejaVu Sans;font-size:10px;font-stretch:normal;font-style:normal;font-weight:normal;text-anchor:end;" transform="rotate(-0, 36.78125, 1594.418343)" x="36.78125" y="1594.418343">4.5</text>
     </g>
    </g>
    <g id="ytick_3">
     <g id="line2d_10">
      <g>
       <use style="stroke:#000000;stroke-width:0.8;" x="43.78125" xlink:href="#mf7112f1524" y="1254.198598"/>
      </g>
     </g>
     <g id="text_11">
      <text style="font-family:DejaVu Sans;font-size:10px;font-stretch:normal;font-style:normal;font-weight:normal;text-anchor:end;" transform="rotate(-0, 36.78125, 1257.997817)" x="36.78125" y="1257.997817">5.0</text>
     </g>
    </g>
    <g id="ytick_4">
     <g id="line2d_11">
      <g>
       <use style="stroke:#000000;stroke-width:0.8;" x="43.78125" xlink:href="#mf7112f1524" y="917.778073"/>
      </g>
     </g>
     <g id="text_12">
      <text style="font-family:DejaVu Sans;font-size:10px;font-stretch:normal;font-style:normal;font-weight:normal;text-anchor:end;" transform="rotate(-0, 36.78125, 921.577291)" x="36.78125" y="921.577291">5.5</text>
     </g>
    </g>
    <g id="ytick_5">
     <g id="line2d_12">
      <g>
       <use style="stroke:#000000;stroke-width:0.8;" x="43.78125" xlink:href="#mf7112f1524" y="581.357547"/>
      </g>
     </g>
     <g id="text_13">
      <text style="font-family:DejaVu Sans;font-size:10px;font-stretch:normal;font-style:normal;font-weight:normal;text-anchor:end;" transform="rotate(-0, 36.78125, 585.156766)" x="36.78125" y="585.156766">6.0</text>
     </g>
    </g>
    <g id="text_14">
     <text style="font-family:DejaVu Sans;font-size:10px;font-stretch:normal;font-style:normal;font-weight:normal;text-anchor:middle;" transform="rotate(-90, 14.798437, 1165.72)" x="14.798437" y="1165.72">ping[ms]</text>
    </g>
   </g>
   <g id="line2d_13">
    <path clip-path="url(#peed8eba627)" d="M 124.944886 1709.71199 
L 152.144018 359.32 
L 178.166943 1526.699224 
L 204.777971 1647.137772 
L 231.389 1595.665432 
L 258.000028 1585.572816 
L 266.648612 1557.313492 
L 284.611056 1637.717997 
L 296.63658 1539.146783 
L 311.222085 1657.230388 
L 312.818746 1520.643655 
L 336.994865 1698.610113 
L 337.833113 1574.807359 
L 344.986157 1622.915494 
L 359.893655 1659.921752 
L 364.444141 1541.501727 
L 377.339846 1657.566809 
L 391.05517 1640.409362 
L 406.316594 1589.273442 
L 411.622833 1527.372065 
L 414.326514 1603.739524 
L 417.666198 1633.00811 
L 434.351313 1493.730013 
L 438.452072 1430.819374 
L 442.241482 1557.649912 
L 444.277226 1549.57582 
L 445.794055 1665.304481 
L 450.677178 1578.507985 
L 453.505931 1557.986333 
L 455.648119 1483.637397 
L 465.73902 1602.730263 
L 470.888254 1570.770313 
L 476.950247 1599.029637 
L 478.371276 1513.915244 
L 485.896874 1505.16831 
L 489.513313 1593.983329 
L 490.708148 1508.868936 
L 493.771078 1306.007359 
L 495.136223 1588.26418 
L 497.161323 1526.026383 
L 497.499283 1588.600601 
L 500.620756 1676.742778 
L 500.727201 1566.733267 
L 502.507478 1402.896471 
L 502.82415 1501.804105 
L 506.943537 1714.421877 
L 513.425983 1428.800851 
L 516.619307 1678.424881 
L 522.242217 1662.276696 
L 524.110311 1606.430889 
L 527.41274 1564.714743 
L 529.533639 1482.964556 
L 535.784569 1458.742278 
L 538.669205 1330.902478 
L 539.496808 1445.285457 
L 539.675102 1697.600851 
L 542.232421 1534.436896 
L 547.32045 1573.461677 
L 547.46415 1660.931014 
L 550.721339 1565.051164 
L 552.208896 1534.436896 
L 553.052465 1540.156045 
L 557.680123 1540.156045 
L 557.736006 1573.798098 
L 559.542895 1524.00786 
L 560.333243 1525.689962 
L 561.190118 1649.829136 
L 566.459102 1429.137272 
L 567.704498 1559.332015 
L 567.75772 1610.131514 
L 571.829207 1630.316746 
L 574.910764 1536.79184 
L 577.332368 1567.742528 
L 580.081287 1518.625131 
L 583.897308 1516.606608 
L 586.984188 1475.899725 
L 586.992171 1686.835394 
L 592.953041 1499.785582 
L 593.541145 1597.347534 
L 602.421245 1498.4399 
L 603.943396 1609.458673 
L 610.614781 1477.245407 
L 614.625063 1476.236145 
L 618.143041 1574.807359 
L 622.640305 1441.921252 
L 623.23373 1481.955294 
L 624.630809 1447.976821 
L 625.586145 1632.335269 
L 626.0066 1574.807359 
L 630.511847 1738.644155 
L 630.554424 1590.619124 
L 637.39612 1643.773567 
L 640.360588 1580.862929 
L 643.072252 1604.748786 
L 644.027588 1566.396846 
L 649.083683 1542.174568 
L 656.787576 1527.372065 
L 657.165453 1585.236395 
L 659.376829 1620.22413 
L 664.435586 1279.430138 
L 664.71234 1855.718498 
L 665.013045 1652.18408 
L 665.518654 1705.674944 
L 666.282391 1601.384581 
L 666.436735 1473.544781 
L 666.543179 1657.566809 
L 668.541667 1665.640901 
L 672.951115 1461.433642 
L 674.220461 1662.613116 
L 679.532022 1665.640901 
L 681.895081 1730.570063 
L 683.776481 1574.470939 
L 686.823444 1525.017121 
L 688.869832 1545.202353 
L 697.920243 1521.316496 
L 701.302504 1554.285707 
L 701.898591 1552.940025 
L 710.387509 1598.356796 
L 713.205617 1615.177822 
L 716.27653 1487.674443 
L 717.402176 1637.717997 
L 718.801916 1730.906483 
L 724.222583 1666.650163 
L 727.676694 1582.545031 
L 728.230204 1686.162553 
L 731.314422 1596.338273 
L 732.20323 1373.291464 
L 733.978186 1464.461427 
L 733.98883 1511.896721 
L 736.998538 1668.668686 
L 737.134254 1499.785582 
L 755.479897 1558.659174 
L 757.302752 1643.437146 
L 760.842019 1651.511239 
L 761.310373 1641.755044 
L 761.517939 1550.921502 
L 762.752691 1604.748786 
L 763.609566 1585.572816 
L 768.788072 1656.557547 
L 770.866393 1638.054418 
L 773.322591 1565.724005 
L 780.757713 1603.403104 
L 780.84819 1489.356546 
L 790.220594 1544.865932 
L 794.74713 1493.730013 
L 797.392266 1432.501477 
L 799.52381 1609.458673 
L 800.322141 1501.131264 
L 802.25144 1625.606859 
L 803.403698 1556.30423 
L 811.29919 1590.282703 
L 812.813357 1517.61587 
L 816.302063 1500.122003 
L 816.831623 1639.4001 
L 827.050257 1682.125507 
L 831.366566 1526.362804 
L 831.805648 1581.199349 
L 834.120808 1624.934018 
L 836.936254 1558.995594 
L 838.4451 1664.63164 
L 843.442651 1566.733267 
L 849.116122 1705.674944 
L 850.640934 1505.841151 
L 867.852947 1708.702728 
L 870.053679 1576.153041 
L 873.494485 1564.041902 
L 874.580215 1629.643905 
L 879.157312 1894.070438 
L 880.466575 1463.452165 
L 882.21758 1385.402603 
L 882.262819 1503.149787 
L 884.891989 1646.464931 
L 888.114584 1509.541777 
L 891.057764 1612.486458 
L 893.383568 1563.032641 
L 896.664708 1550.921502 
L 896.848324 1581.199349 
L 899.58926 1570.433892 
L 900.214619 1662.949537 
L 905.073792 1505.841151 
L 910.151177 1507.186834 
L 914.047031 1459.415119 
L 918.288829 1537.464681 
L 922.847298 1645.79209 
L 922.873909 1454.368811 
L 923.275736 1608.112991 
L 924.507826 1435.865682 
L 932.475168 1648.147034 
L 933.994658 1500.458423 
L 935.330532 1577.162303 
L 938.130012 1545.538773 
L 943.228685 1645.79209 
L 947.411939 1456.050914 
L 949.886764 1595.329011 
L 952.332318 1643.773567 
L 964.163581 1507.186834 
L 971.902068 1618.878448 
L 975.350857 1664.63164 
L 976.497792 1547.220876 
L 977.386601 1487.001602 
L 986.793599 1591.291965 
L 988.826682 1719.468185 
L 994.955202 1472.199099 
L 995.093579 1546.548035 
L 997.528488 1476.908986 
L 998.020792 1548.230138 
L 1000.365224 1530.063429 
L 1001.049127 1484.983079 
L 1002.946494 1526.699224 
L 1003.108821 1555.294969 
L 1010.352343 1465.470688 
L 1014.982662 1494.402854 
L 1024.198061 1535.446158 
L 1024.89527 1569.761051 
L 1025.95705 1589.946283 
L 1029.719849 1573.125257 
L 1032.553924 1512.569562 
L 1051.740475 1573.798098 
L 1054.348356 1609.122253 
L 1056.330877 1596.338273 
L 1058.691276 1435.865682 
L 1064.843745 1616.187084 
L 1066.525562 1557.649912 
L 1068.369707 1575.4802 
L 1070.064829 1569.761051 
L 1074.013906 1597.347534 
L 1074.213488 1634.353792 
L 1079.631494 1618.205607 
L 1080.512319 1569.08821 
L 1082.907311 1633.00811 
L 1082.941906 1580.190088 
L 1083.756203 1586.245657 
L 1086.781877 1553.612866 
L 1101.91823 1639.736521 
L 1102.282801 1541.501727 
L 1103.589403 1564.714743 
L 1109.552934 1619.88771 
L 1110.34062 1401.550788 
L 1112.107593 1654.539024 
L 1117.525598 1581.199349 
L 1119.207415 1646.128511 
L 1121.863196 1544.529512 
L 1124.907497 1675.733517 
L 1128.353626 1569.761051 
L 1133.071761 1601.384581 
L 1136.163962 1612.150038 
L 1143.428773 1498.4399 
L 1145.118573 1552.940025 
L 1146.348003 1564.378323 
L 1148.460919 1447.640401 
L 1152.223718 1530.063429 
L 1154.051896 1403.569312 
L 1156.223356 1552.940025 
L 1157.27183 1566.396846 
L 1157.99565 1628.298223 
L 1162.774991 1552.267184 
L 1186.897888 1577.162303 
L 1188.848476 1601.384581 
L 1189.553668 1519.970814 
L 1192.012527 1541.501727 
L 1192.14026 1579.180826 
L 1192.512815 1466.143529 
L 1193.909894 1507.859675 
L 1198.473685 1577.162303 
L 1207.130253 1678.088461 
L 1207.766256 1597.347534 
L 1212.002732 1570.433892 
L 1213.125717 1433.847159 
L 1215.997047 1552.940025 
L 1216.694256 1675.060676 
L 1218.535739 1613.49572 
L 1219.900885 1640.409362 
L 1225.153902 1443.603354 
L 1228.55213 1532.081952 
L 1229.951871 1515.260926 
L 1232.275013 1687.844656 
L 1237.458842 1591.291965 
L 1239.69949 1381.365557 
L 1242.608076 1595.329011 
L 1243.699128 1361.180325 
L 1250.530179 1618.878448 
L 1257.936028 1452.013867 
L 1260.98033 1763.202854 
L 1262.558364 1688.181076 
L 1262.843102 1631.326008 
L 1268.468673 1599.366058 
L 1269.219104 1554.285707 
L 1273.498157 1630.989587 
L 1274.97773 1604.748786 
L 1285.382643 1499.112741 
L 1285.768502 1541.165307 
L 1288.408316 1413.661927 
L 1290.324311 1384.056921 
L 1295.760944 1550.921502 
L 1295.878032 1587.92776 
L 1297.051578 1569.08821 
L 1297.365589 1434.52 
L 1301.554164 1577.498723 
L 1304.4867 1561.014118 
L 1304.726199 1683.80761 
L 1312.677574 1583.890713 
L 1313.550416 1554.285707 
L 1314.71864 1569.08821 
L 1316.661245 1485.65592 
L 1322.441161 1564.378323 
L 1324.628587 1532.418373 
L 1329.330756 1592.974068 
L 1333.969058 1380.692716 
L 1335.020194 1528.717747 
L 1339.57068 1708.366308 
L 1342.891736 1223.58433 
L 1343.833766 1494.402854 
L 1349.052189 1540.156045 
L 1351.404604 1651.84766 
L 1351.875619 1565.051164 
L 1352.40784 1566.733267 
L 1363.778732 1612.150038 
L 1370.851943 1715.767559 
L 1375.437023 1491.375069 
L 1375.663217 1591.291965 
L 1378.031599 1574.470939 
L 1378.545192 1409.624881 
L 1382.076475 1492.38433 
L 1383.41501 1550.921502 
L 1383.707731 1616.187084 
L 1384.226646 1640.409362 
L 1384.420907 1588.600601 
L 1387.537058 1363.198849 
L 1388.292811 1460.08796 
L 1394.019505 1497.430638 
L 1398.216064 1580.526508 
L 1398.633857 1586.582078 
L 1399.618465 1519.970814 
L 1400.74145 1474.890463 
L 1402.274246 1581.87219 
L 1403.844296 1682.461927 
L 1403.873568 1505.16831 
L 1405.395719 1602.730263 
L 1408.783303 1472.87194 
L 1409.916933 1585.572816 
L 1414.32638 1575.14378 
L 1416.346157 1452.013867 
L 1416.841122 1526.026383 
L 1424.502437 1247.806608 
L 1426.399804 1550.248661 
L 1426.977263 1593.983329 
L 1426.987908 1579.853667 
L 1427.698422 1407.606358 
L 1428.885274 1566.733267 
L 1429.606433 1542.174568 
L 1430.49258 1619.551289 
L 1430.801268 1571.443154 
L 1433.983947 1530.73627 
L 1434.44964 1625.943279 
L 1435.947841 1616.187084 
L 1436.527961 1522.325757 
L 1438.805865 1611.477196 
L 1438.883037 1726.196596 
L 1445.394756 1505.504731 
L 1448.9287 1538.137522 
L 1449.649859 1534.773317 
L 1451.262488 1528.717747 
L 1451.658992 1655.884706 
L 1453.388709 1636.372315 
L 1455.496302 1577.162303 
L 1457.01047 1306.007359 
L 1457.332463 1425.773066 
L 1459.285713 1575.14378 
L 1459.583756 1546.884456 
L 1459.935022 1529.054168 
L 1460.206454 1651.511239 
L 1461.779166 1469.844155 
L 1464.770246 1631.662428 
L 1466.191274 1503.822628 
L 1467.090727 1561.686959 
L 1475.427962 1496.421377 
L 1475.840433 1626.2797 
L 1478.549436 1596.001852 
L 1479.808138 1562.69622 
L 1480.183353 1612.486458 
L 1481.370205 1408.95204 
L 1482.10733 1540.156045 
L 1482.277641 1724.514493 
L 1488.336972 1501.131264 
L 1488.454061 1629.643905 
L 1488.895804 1501.467685 
L 1489.675507 1577.162303 
L 1489.726068 1600.71174 
L 1490.665437 1436.202103 
L 1491.352002 1487.001602 
L 1494.579919 1622.915494 
L 1497.469877 1613.83214 
L 1506.395216 1521.652916 
L 1506.727854 1844.2802 
L 1508.345804 1594.65617 
L 1508.718359 1558.322753 
L 1511.403412 1567.742528 
L 1511.64025 1607.776571 
L 1515.913981 1612.822879 
L 1518.306312 1567.069687 
L 1518.54315 1569.761051 
L 1520.296817 1569.424631 
L 1521.092487 1667.323004 
L 1522.30595 1718.795344 
L 1524.328388 1447.976821 
L 1524.445477 1642.764305 
L 1524.485393 1616.859925 
L 1527.455184 1456.050914 
L 1527.681378 1645.45567 
L 1530.888006 1572.452416 
L 1532.399513 1550.921502 
L 1534.592262 1637.045156 
L 1534.666773 1583.217872 
L 1535.329387 1564.041902 
L 1535.489053 1468.498473 
L 1536.236823 1694.236646 
L 1536.274079 1483.300976 
L 1536.989915 1602.057422 
L 1541.867717 1539.146783 
L 1546.356997 1449.995344 
L 1549.81377 1585.909237 
L 1549.83772 1298.606108 
L 1550.920789 1653.866183 
L 1554.430783 1721.823129 
L 1556.918914 1557.649912 
L 1558.747092 1306.6802 
L 1561.940415 1595.329011 
L 1562.153304 1566.396846 
L 1563.244356 1466.143529 
L 1563.888343 1530.73627 
L 1564.710623 1561.686959 
L 1565.876187 1421.73602 
L 1567.973136 1700.292215 
L 1571.286209 1972.12 
L 1572.15905 1557.649912 
L 1572.430483 1580.862929 
L 1573.103742 1648.819875 
L 1574.170844 1631.662428 
L 1576.79203 1542.510989 
L 1582.170119 1657.903229 
L 1584.41609 1535.782578 
L 1588.551444 1616.523504 
L 1590.209311 1382.711239 
L 1592.497859 1542.174568 
L 1596.135587 1388.766809 
L 1597.373 1522.662178 
L 1598.211247 1640.409362 
L 1600.435929 1499.785582 
L 1602.317329 1586.582078 
L 1604.3717 1600.71174 
L 1604.507416 1645.119249 
L 1604.927871 1470.180576 
L 1611.287906 1459.751539 
L 1612.033015 1656.557547 
L 1615.162472 1653.866183 
L 1615.841053 1526.026383 
L 1624.385854 1523.335019 
L 1626.61852 1011.302979 
L 1628.776674 1538.810363 
L 1635.394837 1610.804355 
L 1637.398647 1669.341527 
L 1638.864915 1420.053917 
L 1640.597293 1569.424631 
L 1640.706398 1351.08771 
L 1641.7735 1506.513992 
L 1644.298887 1648.483454 
L 1644.362753 1424.427384 
L 1644.687408 1641.755044 
L 1645.687983 1455.378073 
L 1652.066646 1526.699224 
L 1652.223651 1538.810363 
L 1653.437114 1647.810613 
L 1654.155612 1592.637647 
L 1654.828871 1654.875444 
L 1656.601165 1647.810613 
L 1657.231847 1589.946283 
L 1659.017447 1556.640651 
L 1663.661071 1562.3598 
L 1668.384529 1552.267184 
L 1669.640569 1566.396846 
L 1670.723638 1618.878448 
L 1678.659047 1599.366058 
L 1684.69975 1587.92776 
L 1686.756783 1640.409362 
L 1687.752035 1521.316496 
L 1692.842725 1551.594343 
L 1694.995557 1469.171314 
L 1696.709307 1606.430889 
L 1709.309629 1473.881202 
L 1721.606585 1540.156045 
L 1725.739278 1335.612365 
L 1748.217614 1576.489462 
L 1748.217614 1576.489462 
" style="fill:none;stroke:#0000ff;stroke-linecap:square;stroke-width:1.5;"/>
   </g>
   <g id="patch_3">
    <path d="M 43.78125 2052.76 
L 43.78125 278.68 
" style="fill:none;stroke:#000000;stroke-linecap:square;stroke-linejoin:miter;stroke-width:0.8;"/>
   </g>
   <g id="patch_4">
    <path d="M 1829.38125 2052.76 
L 1829.38125 278.68 
" style="fill:none;stroke:#000000;stroke-linecap:square;stroke-linejoin:miter;stroke-width:0.8;"/>
   </g>
   <g id="patch_5">
    <path d="M 43.78125 2052.76 
L 1829.38125 2052.76 
" style="fill:none;stroke:#000000;stroke-linecap:square;stroke-linejoin:miter;stroke-width:0.8;"/>
   </g>
   <g id="patch_6">
    <path d="M 43.78125 278.68 
L 1829.38125 278.68 
" style="fill:none;stroke:#000000;stroke-linecap:square;stroke-linejoin:miter;stroke-width:0.8;"/>
   </g>
   <g id="text_15">
    <text style="font-family:DejaVu Sans;font-size:12px;font-stretch:normal;font-style:normal;font-weight:normal;text-anchor:middle;" transform="rotate(-0, 936.58125, 272.68)" x="936.58125" y="272.68">humidity-&gt;ping</text>
   </g>
  </g>
  <g id="legend_1">
   <g id="patch_7">
    <path d="M 1978.415625 22.678125 
L 2054.98125 22.678125 
Q 2056.98125 22.678125 2056.98125 20.678125 
L 2056.98125 7 
Q 2056.98125 5 2054.98125 5 
L 1978.415625 5 
Q 1976.415625 5 1976.415625 7 
L 1976.415625 20.678125 
Q 1976.415625 22.678125 1978.415625 22.678125 
z
" style="fill:#ffffff;opacity:0.8;stroke:#cccccc;stroke-linejoin:miter;"/>
   </g>
   <g id="line2d_14">
    <path d="M 1980.415625 13.098437 
L 2000.415625 13.098437 
" style="fill:none;stroke:#0000ff;stroke-linecap:square;stroke-width:1.5;"/>
   </g>
   <g id="line2d_15"/>
   <g id="text_16">
    <text style="font-family:DejaVu Sans;font-size:10px;font-stretch:normal;font-style:normal;font-weight:normal;text-anchor:start;" transform="rotate(-0, 2008.415625, 16.598437)" x="2008.415625" y="16.598437">ping[ms]</text>
   </g>
  </g>
 </g>
 <defs>
  <clipPath id="peed8eba627">
   <rect height="1774.08" width="1785.6" x="43.78125" y="278.68"/>
  </clipPath>
 </defs>
</svg>
