<?xml version="1.0" encoding="utf-8" standalone="no"?>
<!DOCTYPE svg PUBLIC "-//W3C//DTD SVG 1.1//EN"
  "http://www.w3.org/Graphics/SVG/1.1/DTD/svg11.dtd">
<!-- Created with matplotlib (https://matplotlib.org/) -->
<svg height="2090.31625pt" version="1.1" viewBox="0 0 2062.259375 2090.31625" width="2062.259375pt" xmlns="http://www.w3.org/2000/svg" xmlns:xlink="http://www.w3.org/1999/xlink">
 <metadata>
  <rdf:RDF xmlns:cc="http://creativecommons.org/ns#" xmlns:dc="http://purl.org/dc/elements/1.1/" xmlns:rdf="http://www.w3.org/1999/02/22-rdf-syntax-ns#">
   <cc:Work>
    <dc:type rdf:resource="http://purl.org/dc/dcmitype/StillImage"/>
    <dc:date>2022-07-24T11:59:39.373574</dc:date>
    <dc:format>image/svg+xml</dc:format>
    <dc:creator>
     <cc:Agent>
      <dc:title>Matplotlib v3.3.2, https://matplotlib.org/</dc:title>
     </cc:Agent>
    </dc:creator>
   </cc:Work>
  </rdf:RDF>
 </metadata>
 <defs>
  <style type="text/css">*{stroke-linecap:butt;stroke-linejoin:round;}</style>
 </defs>
 <g id="figure_1">
  <g id="patch_1">
   <path d="M 0 2090.31625 
L 2062.259375 2090.31625 
L 2062.259375 0 
L 0 0 
z
" style="fill:#ffffff;"/>
  </g>
  <g id="axes_1">
   <g id="patch_2">
    <path d="M 44.059375 2052.76 
L 1829.659375 2052.76 
L 1829.659375 278.68 
L 44.059375 278.68 
z
" style="fill:#ffffff;"/>
   </g>
   <g id="matplotlib.axis_1">
    <g id="xtick_1">
     <g id="line2d_1">
      <defs>
       <path d="M 0 0 
L 0 3.5 
" id="m75af129c6f" style="stroke:#000000;stroke-width:0.8;"/>
      </defs>
      <g>
       <use style="stroke:#000000;stroke-width:0.8;" x="251.120401" xlink:href="#m75af129c6f" y="2052.76"/>
      </g>
     </g>
     <g id="text_1">
      <text style="font-family:DejaVu Sans;font-size:10px;font-stretch:normal;font-style:normal;font-weight:normal;text-anchor:middle;" transform="rotate(-0, 251.120401, 2067.358438)" x="251.120401" y="2067.358438">7.5</text>
     </g>
    </g>
    <g id="xtick_2">
     <g id="line2d_2">
      <g>
       <use style="stroke:#000000;stroke-width:0.8;" x="474.342723" xlink:href="#m75af129c6f" y="2052.76"/>
      </g>
     </g>
     <g id="text_2">
      <text style="font-family:DejaVu Sans;font-size:10px;font-stretch:normal;font-style:normal;font-weight:normal;text-anchor:middle;" transform="rotate(-0, 474.342723, 2067.358438)" x="474.342723" y="2067.358438">10.0</text>
     </g>
    </g>
    <g id="xtick_3">
     <g id="line2d_3">
      <g>
       <use style="stroke:#000000;stroke-width:0.8;" x="697.565046" xlink:href="#m75af129c6f" y="2052.76"/>
      </g>
     </g>
     <g id="text_3">
      <text style="font-family:DejaVu Sans;font-size:10px;font-stretch:normal;font-style:normal;font-weight:normal;text-anchor:middle;" transform="rotate(-0, 697.565046, 2067.358438)" x="697.565046" y="2067.358438">12.5</text>
     </g>
    </g>
    <g id="xtick_4">
     <g id="line2d_4">
      <g>
       <use style="stroke:#000000;stroke-width:0.8;" x="920.787368" xlink:href="#m75af129c6f" y="2052.76"/>
      </g>
     </g>
     <g id="text_4">
      <text style="font-family:DejaVu Sans;font-size:10px;font-stretch:normal;font-style:normal;font-weight:normal;text-anchor:middle;" transform="rotate(-0, 920.787368, 2067.358438)" x="920.787368" y="2067.358438">15.0</text>
     </g>
    </g>
    <g id="xtick_5">
     <g id="line2d_5">
      <g>
       <use style="stroke:#000000;stroke-width:0.8;" x="1144.00969" xlink:href="#m75af129c6f" y="2052.76"/>
      </g>
     </g>
     <g id="text_5">
      <text style="font-family:DejaVu Sans;font-size:10px;font-stretch:normal;font-style:normal;font-weight:normal;text-anchor:middle;" transform="rotate(-0, 1144.00969, 2067.358438)" x="1144.00969" y="2067.358438">17.5</text>
     </g>
    </g>
    <g id="xtick_6">
     <g id="line2d_6">
      <g>
       <use style="stroke:#000000;stroke-width:0.8;" x="1367.232012" xlink:href="#m75af129c6f" y="2052.76"/>
      </g>
     </g>
     <g id="text_6">
      <text style="font-family:DejaVu Sans;font-size:10px;font-stretch:normal;font-style:normal;font-weight:normal;text-anchor:middle;" transform="rotate(-0, 1367.232012, 2067.358438)" x="1367.232012" y="2067.358438">20.0</text>
     </g>
    </g>
    <g id="xtick_7">
     <g id="line2d_7">
      <g>
       <use style="stroke:#000000;stroke-width:0.8;" x="1590.454334" xlink:href="#m75af129c6f" y="2052.76"/>
      </g>
     </g>
     <g id="text_7">
      <text style="font-family:DejaVu Sans;font-size:10px;font-stretch:normal;font-style:normal;font-weight:normal;text-anchor:middle;" transform="rotate(-0, 1590.454334, 2067.358438)" x="1590.454334" y="2067.358438">22.5</text>
     </g>
    </g>
    <g id="xtick_8">
     <g id="line2d_8">
      <g>
       <use style="stroke:#000000;stroke-width:0.8;" x="1813.676657" xlink:href="#m75af129c6f" y="2052.76"/>
      </g>
     </g>
     <g id="text_8">
      <text style="font-family:DejaVu Sans;font-size:10px;font-stretch:normal;font-style:normal;font-weight:normal;text-anchor:middle;" transform="rotate(-0, 1813.676657, 2067.358438)" x="1813.676657" y="2067.358438">25.0</text>
     </g>
    </g>
    <g id="text_9">
     <text style="font-family:DejaVu Sans;font-size:10px;font-stretch:normal;font-style:normal;font-weight:normal;text-anchor:middle;" transform="rotate(-0, 936.859375, 2081.036562)" x="936.859375" y="2081.036562">temperature from Aeris</text>
    </g>
   </g>
   <g id="matplotlib.axis_2">
    <g id="ytick_1">
     <g id="line2d_9">
      <defs>
       <path d="M 0 0 
L -3.5 0 
" id="me51688ecee" style="stroke:#000000;stroke-width:0.8;"/>
      </defs>
      <g>
       <use style="stroke:#000000;stroke-width:0.8;" x="44.059375" xlink:href="#me51688ecee" y="1980.891464"/>
      </g>
     </g>
     <g id="text_10">
      <text style="font-family:DejaVu Sans;font-size:10px;font-stretch:normal;font-style:normal;font-weight:normal;text-anchor:end;" transform="rotate(-0, 37.059375, 1984.690682)" x="37.059375" y="1984.690682">0.0</text>
     </g>
    </g>
    <g id="ytick_2">
     <g id="line2d_10">
      <g>
       <use style="stroke:#000000;stroke-width:0.8;" x="44.059375" xlink:href="#me51688ecee" y="1764.521844"/>
      </g>
     </g>
     <g id="text_11">
      <text style="font-family:DejaVu Sans;font-size:10px;font-stretch:normal;font-style:normal;font-weight:normal;text-anchor:end;" transform="rotate(-0, 37.059375, 1768.321063)" x="37.059375" y="1768.321063">0.2</text>
     </g>
    </g>
    <g id="ytick_3">
     <g id="line2d_11">
      <g>
       <use style="stroke:#000000;stroke-width:0.8;" x="44.059375" xlink:href="#me51688ecee" y="1548.152225"/>
      </g>
     </g>
     <g id="text_12">
      <text style="font-family:DejaVu Sans;font-size:10px;font-stretch:normal;font-style:normal;font-weight:normal;text-anchor:end;" transform="rotate(-0, 37.059375, 1551.951444)" x="37.059375" y="1551.951444">0.4</text>
     </g>
    </g>
    <g id="ytick_4">
     <g id="line2d_12">
      <g>
       <use style="stroke:#000000;stroke-width:0.8;" x="44.059375" xlink:href="#me51688ecee" y="1331.782606"/>
      </g>
     </g>
     <g id="text_13">
      <text style="font-family:DejaVu Sans;font-size:10px;font-stretch:normal;font-style:normal;font-weight:normal;text-anchor:end;" transform="rotate(-0, 37.059375, 1335.581825)" x="37.059375" y="1335.581825">0.6</text>
     </g>
    </g>
    <g id="ytick_5">
     <g id="line2d_13">
      <g>
       <use style="stroke:#000000;stroke-width:0.8;" x="44.059375" xlink:href="#me51688ecee" y="1115.412987"/>
      </g>
     </g>
     <g id="text_14">
      <text style="font-family:DejaVu Sans;font-size:10px;font-stretch:normal;font-style:normal;font-weight:normal;text-anchor:end;" transform="rotate(-0, 37.059375, 1119.212206)" x="37.059375" y="1119.212206">0.8</text>
     </g>
    </g>
    <g id="ytick_6">
     <g id="line2d_14">
      <g>
       <use style="stroke:#000000;stroke-width:0.8;" x="44.059375" xlink:href="#me51688ecee" y="899.043368"/>
      </g>
     </g>
     <g id="text_15">
      <text style="font-family:DejaVu Sans;font-size:10px;font-stretch:normal;font-style:normal;font-weight:normal;text-anchor:end;" transform="rotate(-0, 37.059375, 902.842587)" x="37.059375" y="902.842587">1.0</text>
     </g>
    </g>
    <g id="ytick_7">
     <g id="line2d_15">
      <g>
       <use style="stroke:#000000;stroke-width:0.8;" x="44.059375" xlink:href="#me51688ecee" y="682.673749"/>
      </g>
     </g>
     <g id="text_16">
      <text style="font-family:DejaVu Sans;font-size:10px;font-stretch:normal;font-style:normal;font-weight:normal;text-anchor:end;" transform="rotate(-0, 37.059375, 686.472968)" x="37.059375" y="686.472968">1.2</text>
     </g>
    </g>
    <g id="ytick_8">
     <g id="line2d_16">
      <g>
       <use style="stroke:#000000;stroke-width:0.8;" x="44.059375" xlink:href="#me51688ecee" y="466.30413"/>
      </g>
     </g>
     <g id="text_17">
      <text style="font-family:DejaVu Sans;font-size:10px;font-stretch:normal;font-style:normal;font-weight:normal;text-anchor:end;" transform="rotate(-0, 37.059375, 470.103349)" x="37.059375" y="470.103349">1.4</text>
     </g>
    </g>
    <g id="text_18">
     <text style="font-family:DejaVu Sans;font-size:10px;font-stretch:normal;font-style:normal;font-weight:normal;text-anchor:middle;" transform="rotate(-90, 14.798438, 1165.72)" x="14.798438" y="1165.72">Throughput_night[Bit/s]</text>
    </g>
    <g id="text_19">
     <text style="font-family:DejaVu Sans;font-size:10px;font-stretch:normal;font-style:normal;font-weight:normal;text-anchor:start;" transform="rotate(-0, 44.059375, 275.68)" x="44.059375" y="275.68">1e7</text>
    </g>
   </g>
   <g id="line2d_17">
    <path clip-path="url(#p4fbb862bde)" d="M 125.223011 462.111418 
L 126.115901 497.769989 
L 159.152804 487.801996 
L 162.724361 539.412017 
L 166.295919 536.002375 
L 168.081697 547.300707 
L 169.867476 547.264868 
L 170.760365 547.924411 
L 172.546144 547.911515 
L 175.224812 508.408644 
L 176.117701 537.264337 
L 178.796369 541.970387 
L 202.01149 483.974689 
L 202.90438 483.984119 
L 205.583047 526.638168 
L 206.475937 497.166106 
L 207.368826 521.607276 
L 209.154605 524.100139 
L 210.047494 512.194464 
L 210.940383 488.356919 
L 211.833272 527.234061 
L 216.297719 522.842486 
L 217.190608 490.293475 
L 219.869276 482.725987 
L 220.762165 615.882007 
L 221.655055 924.159152 
L 222.547944 538.538255 
L 223.440833 643.446307 
L 224.333722 513.440868 
L 225.226612 906.328296 
L 252.90618 574.215621 
L 254.691958 539.756368 
L 255.584848 514.678341 
L 256.477737 540.40791 
L 257.370626 515.330859 
L 258.263515 571.082995 
L 259.156405 556.655669 
L 260.049294 665.072989 
L 261.835073 645.652874 
L 262.727962 752.231406 
L 263.620851 1141.945842 
L 264.51374 492.145973 
L 265.40663 755.904093 
L 267.192408 648.190372 
L 289.514641 551.963534 
L 292.193308 526.61461 
L 293.979087 488.384082 
L 294.871976 528.85875 
L 296.657755 593.681419 
L 298.443533 640.31749 
L 299.336423 938.271455 
L 301.122201 665.702989 
L 302.90798 786.014563 
L 305.586648 682.315173 
L 307.372426 690.807027 
L 310.051094 752.781695 
L 333.266216 513.421058 
L 334.159105 518.774219 
L 335.944884 501.53023 
L 336.837773 488.716249 
L 338.623551 626.24919 
L 339.516441 619.02366 
L 342.195109 509.074971 
L 343.087998 856.498298 
L 343.980887 780.975093 
L 344.873776 566.077275 
L 350.231112 865.003856 
L 360.052894 527.203535 
L 361.838673 515.351384 
L 362.731562 502.880048 
L 363.624452 549.15035 
L 367.196009 526.595851 
L 368.088898 532.262317 
L 368.981787 520.005051 
L 370.767566 510.946454 
L 372.553344 542.915009 
L 373.446234 532.25493 
L 377.91068 525.987746 
L 398.447134 498.46224 
L 401.125802 541.650725 
L 402.91158 528.465429 
L 403.80447 807.387082 
L 404.697359 552.921412 
L 405.590248 516.876514 
L 406.483137 511.231009 
L 407.376027 500.926137 
L 408.268916 527.233044 
L 409.161805 656.279276 
L 410.054695 1085.501069 
L 415.41203 468.305472 
L 419.876477 557.327098 
L 426.126702 431.343535 
L 427.91248 612.466249 
L 430.591148 624.334016 
L 432.376927 506.542295 
L 434.162705 668.180425 
L 435.055595 831.784112 
L 436.841373 689.541214 
L 437.734262 701.450593 
L 438.627152 580.195653 
L 439.520041 602.465966 
L 441.30582 509.389855 
L 442.198709 492.784706 
L 443.091598 427.061224 
L 443.984488 575.470437 
L 444.877377 509.074676 
L 445.770266 480.85483 
L 446.663155 489.942255 
L 448.448934 522.22495 
L 449.341823 511.592798 
L 450.234713 531.642559 
L 451.127602 505.319083 
L 452.020491 535.369582 
L 452.91338 518.778725 
L 453.80627 513.145195 
L 454.699159 536.009455 
L 455.592048 497.189399 
L 456.484938 517.831318 
L 457.377827 547.305151 
L 458.270716 735.251088 
L 459.163605 520.330415 
L 460.056495 713.31371 
L 460.949384 534.153889 
L 462.735163 527.220311 
L 463.628052 552.304263 
L 465.41383 579.29667 
L 466.30672 582.364959 
L 469.878277 452.962778 
L 472.556945 566.102457 
L 474.342723 585.482231 
L 476.128502 680.135888 
L 478.80717 603.026804 
L 480.592948 621.839864 
L 481.485838 640.075209 
L 482.378727 533.489116 
L 484.164506 678.284188 
L 485.057395 566.707389 
L 485.950284 599.923422 
L 486.843173 582.980077 
L 487.736063 587.124122 
L 488.628952 531.915283 
L 489.521841 525.355734 
L 490.414731 479.021764 
L 491.30762 542.571078 
L 492.200509 507.81623 
L 493.093398 531.603865 
L 493.986288 503.432281 
L 496.664956 570.556825 
L 497.557845 709.315194 
L 498.450734 488.98679 
L 499.343623 529.737732 
L 500.236513 515.321048 
L 501.129402 616.263594 
L 502.022291 482.086385 
L 502.915181 534.790576 
L 504.700959 557.309162 
L 505.593848 582.353352 
L 506.486738 510.94763 
L 508.272516 524.700526 
L 509.165406 627.500641 
L 510.058295 650.694909 
L 513.629852 497.138806 
L 515.415631 512.203275 
L 516.30852 696.082036 
L 517.201409 516.628676 
L 518.987188 500.910598 
L 519.880077 503.085041 
L 520.772966 512.285365 
L 522.558745 525.965632 
L 523.451634 506.55291 
L 524.344524 547.275764 
L 525.237413 520.026398 
L 526.130302 520.316307 
L 527.023191 506.537991 
L 527.916081 629.368001 
L 528.80897 465.818357 
L 529.701859 514.064955 
L 530.594749 769.185147 
L 531.487638 524.105292 
L 532.380527 501.528006 
L 533.273416 509.073921 
L 534.166306 511.537619 
L 535.059195 512.168175 
L 536.844974 527.847416 
L 537.737863 546.399041 
L 538.630752 502.160244 
L 539.523641 508.41954 
L 540.416531 503.45239 
L 541.30942 529.114081 
L 542.202309 539.132959 
L 543.095199 584.222074 
L 543.988088 568.592791 
L 544.880977 573.301893 
L 545.773866 510.9369 
L 546.666756 567.957304 
L 547.559645 744.653005 
L 548.452534 530.969018 
L 549.345424 518.437276 
L 550.238313 513.418123 
L 551.131202 563.883911 
L 552.024091 524.700235 
L 552.916981 537.24737 
L 553.80987 522.838112 
L 554.702759 514.049847 
L 555.595649 526.303075 
L 556.488538 532.228276 
L 557.381427 531.654248 
L 560.060095 654.130976 
L 566.31032 515.005403 
L 567.203209 527.561476 
L 568.096099 526.582721 
L 568.988988 542.252044 
L 569.881877 535.366402 
L 570.774767 487.103293 
L 571.667656 536.333417 
L 572.560545 523.773339 
L 573.453434 584.003297 
L 574.346324 527.540667 
L 575.239213 529.71831 
L 576.132102 541.952094 
L 577.024992 526.915318 
L 577.917881 624.659837 
L 578.81077 548.286112 
L 579.703659 517.196554 
L 580.596549 538.493978 
L 581.489438 512.199898 
L 582.382327 526.279486 
L 583.275217 542.598457 
L 584.168106 519.071174 
L 585.060995 518.456726 
L 585.953884 626.850106 
L 587.739663 530.970467 
L 588.632552 519.691912 
L 589.525442 515.327936 
L 590.418331 496.505987 
L 591.31122 525.038968 
L 592.204109 509.365817 
L 593.096999 534.114395 
L 593.989888 529.127291 
L 594.882777 579.237222 
L 595.775667 597.395684 
L 596.668556 535.98706 
L 597.561445 601.41424 
L 599.347224 593.644786 
L 600.240113 518.447075 
L 602.918781 488.992011 
L 603.81167 817.661986 
L 604.70456 544.238709 
L 605.597449 531.009254 
L 606.490338 754.740294 
L 607.383227 561.684921 
L 608.276117 521.270524 
L 610.061895 565.482259 
L 610.954785 515.945145 
L 611.847674 492.748398 
L 613.633452 537.916595 
L 614.526342 534.750954 
L 616.31212 516.609349 
L 617.20501 490.873257 
L 618.097899 529.097096 
L 618.990788 523.443852 
L 619.883677 599.273901 
L 620.776567 527.89173 
L 621.669456 528.794331 
L 622.562345 515.943233 
L 623.455235 525.657623 
L 624.348124 530.679637 
L 625.241013 918.848559 
L 626.133902 538.180169 
L 627.026792 519.076825 
L 627.919681 531.281032 
L 628.81257 635.642036 
L 629.70546 515.957443 
L 630.598349 502.196287 
L 631.491238 510.610991 
L 632.384127 534.115697 
L 633.277017 858.679883 
L 634.169906 524.714559 
L 635.062795 515.923897 
L 635.955685 592.422311 
L 636.848574 514.361875 
L 638.634352 546.966738 
L 639.527242 499.64396 
L 640.420131 492.453053 
L 641.31302 569.560432 
L 642.20591 631.243325 
L 643.098799 549.792961 
L 643.991688 575.204898 
L 644.884578 470.838404 
L 645.777467 733.351522 
L 646.670356 643.148987 
L 647.563245 583.615464 
L 648.456135 548.547544 
L 650.241913 529.718455 
L 651.134803 559.822049 
L 652.027692 477.718738 
L 652.920581 472.736235 
L 653.81347 549.155648 
L 654.70636 537.251056 
L 655.599249 517.253404 
L 657.385028 525.949629 
L 658.277917 500.892543 
L 659.170806 573.578907 
L 660.063695 514.68784 
L 660.956585 507.821091 
L 661.849474 512.187855 
L 662.742363 533.817631 
L 663.635253 529.118229 
L 664.528142 531.599228 
L 665.421031 554.180273 
L 666.31392 517.879303 
L 667.20681 567.315449 
L 668.099699 527.238858 
L 668.992588 559.195574 
L 669.885478 579.255244 
L 670.778367 510.954685 
L 671.671256 586.473409 
L 672.564145 842.714011 
L 673.457035 558.579193 
L 674.349924 519.084328 
L 675.242813 485.299799 
L 677.028592 507.793987 
L 677.921481 528.794372 
L 678.81437 491.49963 
L 679.70726 524.72813 
L 680.600149 520.937493 
L 681.493038 509.706397 
L 682.385928 523.474457 
L 683.278817 535.046974 
L 684.171706 523.791798 
L 685.064596 499.048075 
L 685.957485 510.009503 
L 686.850374 509.081888 
L 687.743263 536.026359 
L 688.636153 500.268473 
L 689.529042 509.096752 
L 690.421931 496.515573 
L 691.314821 520.954136 
L 692.20771 527.198738 
L 693.100599 516.571572 
L 693.993488 522.831888 
L 694.886378 535.998164 
L 695.779267 518.458774 
L 696.672156 510.950422 
L 697.565046 530.994072 
L 698.457935 533.184562 
L 699.350824 513.447912 
L 700.243713 533.499826 
L 701.136603 499.020393 
L 702.922381 522.25558 
L 704.70816 537.859455 
L 705.601049 613.097194 
L 706.493938 553.574662 
L 708.279717 497.748632 
L 709.172606 555.735677 
L 710.065496 567.972368 
L 710.958385 547.91395 
L 711.851274 568.889884 
L 712.744163 782.267084 
L 713.637053 533.80383 
L 714.529942 703.274709 
L 715.422831 487.106579 
L 716.315721 541.622581 
L 718.994389 493.379893 
L 719.887278 505.915122 
L 720.780167 526.139178 
L 721.673056 556.367807 
L 723.458835 490.264559 
L 726.137503 498.468318 
L 727.923281 492.147714 
L 728.816171 529.145728 
L 729.70906 535.695758 
L 730.601949 512.836455 
L 731.494839 559.811348 
L 732.387728 514.059483 
L 733.280617 595.842108 
L 734.173506 605.860106 
L 735.066396 499.649978 
L 736.852174 530.062911 
L 738.637953 547.25254 
L 739.530842 519.101138 
L 740.423731 520.392835 
L 741.316621 533.490997 
L 742.20951 527.219356 
L 743.102399 548.522765 
L 743.995289 551.969553 
L 744.888178 509.686978 
L 745.781067 560.433523 
L 746.673956 552.268406 
L 747.566846 520.985961 
L 748.459735 524.70868 
L 749.352624 489.004692 
L 750.245514 551.663969 
L 751.138403 535.387683 
L 752.031292 554.154224 
L 752.924181 516.865537 
L 753.817071 543.545602 
L 756.495739 514.372965 
L 758.281517 622.444343 
L 760.067296 538.848512 
L 760.960185 547.886152 
L 761.853074 540.410748 
L 763.638853 517.839364 
L 764.531742 555.425219 
L 765.424632 524.695284 
L 766.317521 552.969816 
L 767.21041 546.665268 
L 768.103299 436.997478 
L 768.996189 616.194273 
L 769.889078 608.069015 
L 771.674857 542.922198 
L 772.567746 500.265215 
L 773.460635 536.689174 
L 774.353524 501.531294 
L 775.246414 499.653588 
L 776.139303 527.873569 
L 777.032192 665.391047 
L 777.925082 507.805008 
L 778.817971 536.292234 
L 780.603749 534.128138 
L 782.389528 512.792561 
L 783.282417 575.466677 
L 784.175307 520.639189 
L 785.068196 534.131032 
L 786.853974 544.167716 
L 788.639753 565.470653 
L 789.532642 524.075249 
L 790.425532 526.581018 
L 791.318421 517.179126 
L 792.21131 547.269488 
L 793.997089 510.949942 
L 796.675757 557.627654 
L 798.461535 584.251529 
L 799.354425 512.187634 
L 800.247314 652.227741 
L 801.140203 524.089798 
L 802.033092 625.59498 
L 802.925982 552.625441 
L 803.818871 667.577997 
L 804.71176 532.548581 
L 809.176207 467.673889 
L 812.747764 502.158591 
L 813.640653 619.993506 
L 814.533542 529.09187 
L 815.426432 520.315285 
L 817.21221 500.269509 
L 818.1051 546.973086 
L 818.997989 567.329049 
L 819.890878 497.502185 
L 820.783767 539.75435 
L 821.676657 712.685024 
L 823.462435 495.935975 
L 824.355325 603.082604 
L 825.248214 560.124518 
L 826.141103 881.240096 
L 827.033992 483.969749 
L 827.926882 535.365534 
L 828.819771 504.651475 
L 829.71266 478.328944 
L 831.498439 511.55863 
L 832.391328 557.935597 
L 833.284217 510.926022 
L 834.177107 552.916425 
L 835.069996 538.517053 
L 835.962885 521.592101 
L 836.855775 534.110489 
L 837.748664 565.12371 
L 838.641553 536.028237 
L 839.534443 755.987262 
L 840.427332 584.850758 
L 841.320221 507.807687 
L 842.21311 494.626671 
L 843.106 544.152637 
L 843.998889 544.139845 
L 846.677557 741.210791 
L 849.356225 531.613536 
L 850.249114 531.604664 
L 852.034893 611.19199 
L 852.927782 536.009494 
L 853.820671 499.658328 
L 854.71356 591.158202 
L 856.499339 577.357512 
L 857.392228 533.203984 
L 859.178007 541.637692 
L 860.070896 715.829078 
L 860.963785 790.399272 
L 861.856675 637.797053 
L 862.749564 565.141009 
L 863.642453 695.818983 
L 864.535343 528.481564 
L 866.321121 625.940284 
L 867.21401 754.096697 
L 868.1069 541.31336 
L 868.999789 638.763858 
L 869.892678 484.590802 
L 870.785568 510.919996 
L 872.571346 496.574561 
L 874.357125 520.649541 
L 875.250014 604.927479 
L 876.142903 539.137428 
L 877.035793 537.866237 
L 877.928682 572.318566 
L 879.714461 656.602046 
L 881.500239 527.863689 
L 882.393128 545.38095 
L 885.071796 484.0166 
L 888.643353 551.035964 
L 894.893578 557.322828 
L 895.786468 484.625347 
L 896.679357 498.382488 
L 897.572246 552.304681 
L 898.465136 525.368707 
L 899.358025 595.564142 
L 900.250914 655.753393 
L 901.143803 575.474343 
L 902.036693 534.822965 
L 904.715361 515.947921 
L 905.60825 534.110344 
L 906.501139 689.197492 
L 908.286918 507.4981 
L 909.179807 542.883302 
L 910.072696 487.759595 
L 910.965586 534.727528 
L 916.322921 535.369293 
L 917.215811 532.852978 
L 918.1087 561.095597 
L 919.001589 446.373627 
L 922.573146 524.70737 
L 927.930482 548.533507 
L 933.287818 527.536808 
L 934.180707 529.736841 
L 935.073596 525.97698 
L 935.966486 535.354549 
L 936.859375 509.049362 
L 939.538043 540.402682 
L 940.430932 514.379409 
L 941.323821 527.236242 
L 942.216711 513.44483 
L 943.1096 515.507584 
L 944.002489 527.236823 
L 946.681157 499.014115 
L 947.574046 504.041383 
L 948.466936 552.291428 
L 949.359825 549.814283 
L 950.252714 500.923917 
L 951.145604 539.16095 
L 952.038493 511.235037 
L 953.824271 474.886759 
L 954.717161 532.881503 
L 955.61005 520.977786 
L 956.502939 503.437468 
L 957.395829 522.856045 
L 958.288718 521.607276 
L 960.074497 522.222334 
L 960.967386 515.335117 
L 963.646054 487.75858 
L 964.538943 535.06551 
L 966.324722 524.107734 
L 968.1105 535.994519 
L 969.003389 502.765357 
L 969.896279 494.976509 
L 972.574947 498.392717 
L 973.467836 473.980321 
L 975.253614 508.742423 
L 976.146504 515.299358 
L 977.039393 643.827555 
L 977.932282 524.065051 
L 978.825172 510.305174 
L 979.718061 592.387462 
L 981.503839 659.450945 
L 982.396729 508.433234 
L 983.289618 490.272615 
L 984.182507 571.107654 
L 985.075397 531.610387 
L 985.968286 472.077076 
L 987.754064 520.322588 
L 988.646954 503.744078 
L 989.539843 502.800433 
L 991.325622 530.0546 
L 992.218511 523.160043 
L 993.1114 515.009054 
L 994.004289 497.479461 
L 994.897179 554.767489 
L 995.790068 505.930314 
L 996.682957 598.643465 
L 997.575847 530.067743 
L 998.468736 510.60512 
L 999.361625 515.972238 
L 1000.254515 546.019159 
L 1001.147404 500.884107 
L 1002.040293 470.872378 
L 1003.826072 512.175081 
L 1004.718961 497.802615 
L 1005.61185 573.629145 
L 1006.50474 584.8814 
L 1007.397629 543.540141 
L 1008.290518 651.285831 
L 1009.183407 503.466851 
L 1010.076297 534.753123 
L 1010.969186 500.901275 
L 1011.862075 490.891774 
L 1012.754965 511.54335 
L 1014.540743 513.471452 
L 1015.433632 550.382774 
L 1016.326522 560.436222 
L 1017.219411 500.938864 
L 1019.898079 568.598727 
L 1020.790968 499.632999 
L 1022.576747 553.576391 
L 1027.041193 562.924957 
L 1028.826972 544.149184 
L 1029.719861 587.689417 
L 1033.291418 518.444735 
L 1035.077197 528.17013 
L 1035.970086 501.861472 
L 1036.862975 492.458779 
L 1037.755865 520.97618 
L 1038.648754 479.014856 
L 1039.541643 493.381715 
L 1045.791868 580.504123 
L 1047.577647 590.621716 
L 1050.256315 577.960521 
L 1052.042093 560.786332 
L 1052.934983 547.926417 
L 1053.827872 565.155364 
L 1054.720761 569.191957 
L 1055.61365 535.407452 
L 1056.50654 533.48405 
L 1057.399429 554.830591 
L 1058.292318 531.675454 
L 1059.185208 578.610336 
L 1060.078097 531.933754 
L 1060.970986 540.360621 
L 1061.863875 498.384267 
L 1062.756765 487.747011 
L 1063.649654 573.954457 
L 1064.542543 537.242972 
L 1065.435433 598.981649 
L 1066.328322 508.112054 
L 1067.221211 591.127768 
L 1068.1141 518.435814 
L 1069.00699 534.749219 
L 1073.471436 479.591882 
L 1074.364325 554.182438 
L 1075.257215 497.810623 
L 1076.150104 544.817549 
L 1077.042993 658.211825 
L 1079.721661 676.355146 
L 1080.614551 655.380575 
L 1081.50744 613.720206 
L 1082.400329 690.451213 
L 1085.078997 641.250483 
L 1085.971886 574.854512 
L 1086.864776 522.226555 
L 1087.757665 588.018803 
L 1088.650554 359.32 
L 1089.543443 1202.358372 
L 1094.900779 496.535228 
L 1097.579447 511.587133 
L 1098.472336 774.449306 
L 1099.365226 656.287953 
L 1100.258115 675.111983 
L 1101.151004 934.505207 
L 1102.043893 533.504363 
L 1102.936783 532.851675 
L 1103.829672 537.279783 
L 1104.722561 525.349092 
L 1105.615451 496.193223 
L 1107.401229 519.416469 
L 1109.187008 555.738324 
L 1110.079897 539.141465 
L 1110.972786 546.653783 
L 1111.865676 530.441783 
L 1113.651454 508.440743 
L 1114.544343 591.453264 
L 1115.437233 520.975596 
L 1116.330122 555.437557 
L 1117.223011 538.51388 
L 1119.00879 514.998767 
L 1119.901679 568.588004 
L 1120.794569 552.907275 
L 1122.580347 488.686519 
L 1123.473236 521.603482 
L 1124.366126 483.344508 
L 1125.259015 561.119306 
L 1127.044794 1967.107772 
L 1127.937683 521.282118 
L 1128.830572 1946.432384 
L 1129.723461 509.694775 
L 1131.50924 1951.443343 
L 1133.295019 1972.12 
L 1135.080797 516.590754 
L 1136.866576 415.696121 
L 1137.759465 1249.350416 
L 1138.652354 545.715855 
L 1139.545244 520.966545 
L 1140.438133 506.573844 
L 1141.331022 507.481193 
L 1142.223911 652.268451 
L 1144.00969 532.214804 
L 1144.902579 499.672991 
L 1145.795469 518.437715 
L 1147.581247 753.418201 
L 1148.474136 993.085087 
L 1151.152804 512.206506 
L 1152.045694 556.680877 
L 1152.938583 542.256935 
L 1154.724361 540.367535 
L 1156.51014 512.261136 
L 1158.295919 551.676975 
L 1159.188808 503.417064 
L 1160.081697 535.99348 
L 1160.974587 486.47521 
L 1162.760365 536.004254 
L 1163.653254 512.850841 
L 1164.546144 545.997493 
L 1165.439033 548.544679 
L 1166.331922 527.864031 
L 1167.224812 522.222471 
L 1168.117701 523.487427 
L 1169.01059 481.539707 
L 1169.903479 537.567087 
L 1171.689258 504.046597 
L 1172.582147 538.83259 
L 1174.367926 536.68513 
L 1175.260815 482.712526 
L 1176.153704 518.463014 
L 1177.046594 932.313124 
L 1177.939483 621.195347 
L 1178.832372 499.665141 
L 1182.403929 663.252803 
L 1183.296819 526.018297 
L 1184.189708 526.575782 
L 1186.868376 512.80959 
L 1189.547044 520.955304 
L 1190.439933 518.456872 
L 1191.332822 506.528837 
L 1192.225712 541.007945 
L 1193.118601 524.726736 
L 1194.90438 537.248602 
L 1195.797269 519.063863 
L 1197.583047 445.155769 
L 1201.154605 530.053912 
L 1202.940383 781.311745 
L 1204.726162 495.268708 
L 1205.619051 522.244933 
L 1206.51194 483.979778 
L 1209.190608 498.520257 
L 1210.083497 549.161661 
L 1210.976387 522.82601 
L 1211.869276 533.162381 
L 1212.762165 497.765391 
L 1217.226612 517.20474 
L 1218.119501 505.297835 
L 1219.90528 509.074087 
L 1222.583947 508.44619 
L 1223.476837 1028.504567 
L 1225.262615 515.331638 
L 1226.155505 522.223929 
L 1227.048394 521.562478 
L 1227.941283 651.969953 
L 1228.834172 499.021524 
L 1230.619951 511.565683 
L 1231.51284 510.281498 
L 1232.40573 540.379304 
L 1233.298619 538.554119 
L 1234.191508 519.09763 
L 1235.977287 560.424433 
L 1236.870176 519.722449 
L 1237.763065 542.25262 
L 1248.477737 505.31259 
L 1251.156405 541.013848 
L 1255.620851 1024.185923 
L 1256.51374 511.247555 
L 1260.085298 533.479129 
L 1261.871076 1022.230333 
L 1263.656855 529.725421 
L 1264.549744 578.005272 
L 1265.442633 546.100796 
L 1267.228412 646.001768 
L 1268.121301 514.041339 
L 1270.799969 514.700333 
L 1272.585748 779.731285 
L 1280.621751 542.269882 
L 1283.300419 523.469939 
L 1285.086198 514.045153 
L 1288.657755 539.753197 
L 1291.336423 536.732062 
L 1294.015091 507.800027 
L 1296.693758 525.045133 
L 1297.586648 509.685948 
L 1299.372426 519.686505 
L 1301.158205 543.562562 
L 1302.051094 525.354465 
L 1302.943983 519.687674 
L 1304.729762 532.873048 
L 1306.515541 519.38908 
L 1310.087098 529.715843 
L 1311.872876 1054.793388 
L 1312.765766 508.468128 
L 1313.658655 528.518003 
L 1315.444434 676.964453 
L 1317.230212 376.213087 
L 1337.766666 438.884467 
L 1338.659555 565.437675 
L 1340.445334 536.011622 
L 1342.231112 530.973512 
L 1344.016891 517.197568 
L 1346.695559 470.875247 
L 1347.588448 517.824149 
L 1348.481337 499.01945 
L 1352.052894 489.009615 
L 1360.981787 535.357729 
L 1369.017791 521.566564 
L 1371.696459 533.501129 
L 1376.160905 577.359196 
L 1377.946684 547.300994 
L 1379.732462 680.122361 
L 1381.518241 477.076215 
L 1382.41113 574.202399 
L 1385.089798 537.864938 
L 1385.982687 573.602408 
L 1402.054695 581.093742 
L 1407.41203 494.630089 
L 1415.448034 510.316791 
L 1435.091598 515.310203 
L 1446.699159 555.430145 
L 1447.592048 497.161358 
L 1452.056495 522.85065 
L 1454.735163 525.951083 
L 1456.520941 507.160478 
L 1457.41383 527.836954 
L 1463.664055 497.760942 
L 1477.950284 525.325222 
L 1480.628952 545.406501 
L 1483.30762 520.356617 
L 1484.200509 546.02992 
L 1488.664956 510.31385 
L 1489.557845 545.400614 
L 1490.450734 546.014281 
L 1495.80807 514.675408 
L 1496.700959 523.441228 
L 1501.165406 526.582472 
L 1505.629852 540.995994 
L 1522.594749 611.195993 
L 1529.737863 544.128495 
L 1531.523641 556.05088 
L 1547.595649 518.484218 
L 1557.417431 521.559413 
L 1558.31032 562.31979 
L 1565.453434 494.000084 
L 1569.917881 540.377619 
L 1573.489438 505.296212 
L 1609.20501 527.218072 
L 1635.098799 510.285027 
L 1643.134803 538.499313 
L 1651.170806 542.249167 
L 1671.70726 508.421454 
L 1681.529042 528.45991 
L 1683.314821 542.876041 
L 1688.672156 533.507931 
L 1693.136603 513.45789 
L 1698.493938 560.446023 
L 1710.101499 537.231279 
L 1726.173506 519.088567 
L 1736.888178 495.894843 
L 1748.495739 538.488928 
L 1748.495739 538.488928 
" style="fill:none;stroke:#0000ff;stroke-linecap:square;stroke-width:1.5;"/>
   </g>
   <g id="patch_3">
    <path d="M 44.059375 2052.76 
L 44.059375 278.68 
" style="fill:none;stroke:#000000;stroke-linecap:square;stroke-linejoin:miter;stroke-width:0.8;"/>
   </g>
   <g id="patch_4">
    <path d="M 1829.659375 2052.76 
L 1829.659375 278.68 
" style="fill:none;stroke:#000000;stroke-linecap:square;stroke-linejoin:miter;stroke-width:0.8;"/>
   </g>
   <g id="patch_5">
    <path d="M 44.059375 2052.76 
L 1829.659375 2052.76 
" style="fill:none;stroke:#000000;stroke-linecap:square;stroke-linejoin:miter;stroke-width:0.8;"/>
   </g>
   <g id="patch_6">
    <path d="M 44.059375 278.68 
L 1829.659375 278.68 
" style="fill:none;stroke:#000000;stroke-linecap:square;stroke-linejoin:miter;stroke-width:0.8;"/>
   </g>
   <g id="text_20">
    <text style="font-family:DejaVu Sans;font-size:12px;font-stretch:normal;font-style:normal;font-weight:normal;text-anchor:middle;" transform="rotate(-0, 936.859375, 272.68)" x="936.859375" y="272.68">temperature-&gt;Throughput_night</text>
   </g>
  </g>
  <g id="legend_1">
   <g id="patch_7">
    <path d="M 1904.517187 22.95625 
L 2055.259375 22.95625 
Q 2057.259375 22.95625 2057.259375 20.95625 
L 2057.259375 7 
Q 2057.259375 5 2055.259375 5 
L 1904.517187 5 
Q 1902.517187 5 1902.517187 7 
L 1902.517187 20.95625 
Q 1902.517187 22.95625 1904.517187 22.95625 
z
" style="fill:#ffffff;opacity:0.8;stroke:#cccccc;stroke-linejoin:miter;"/>
   </g>
   <g id="line2d_18">
    <path d="M 1906.517187 13.098438 
L 1926.517187 13.098438 
" style="fill:none;stroke:#0000ff;stroke-linecap:square;stroke-width:1.5;"/>
   </g>
   <g id="line2d_19"/>
   <g id="text_21">
    <text style="font-family:DejaVu Sans;font-size:10px;font-stretch:normal;font-style:normal;font-weight:normal;text-anchor:start;" transform="rotate(-0, 1934.517187, 16.598438)" x="1934.517187" y="16.598438">Throughput_night[Bit/s]</text>
   </g>
  </g>
 </g>
 <defs>
  <clipPath id="p4fbb862bde">
   <rect height="1774.08" width="1785.6" x="44.059375" y="278.68"/>
  </clipPath>
 </defs>
</svg>
