<?xml version="1.0" encoding="utf-8" standalone="no"?>
<!DOCTYPE svg PUBLIC "-//W3C//DTD SVG 1.1//EN"
  "http://www.w3.org/Graphics/SVG/1.1/DTD/svg11.dtd">
<!-- Created with matplotlib (https://matplotlib.org/) -->
<svg height="345.6pt" version="1.1" viewBox="0 0 460.8 345.6" width="460.8pt" xmlns="http://www.w3.org/2000/svg" xmlns:xlink="http://www.w3.org/1999/xlink">
 <metadata>
  <rdf:RDF xmlns:cc="http://creativecommons.org/ns#" xmlns:dc="http://purl.org/dc/elements/1.1/" xmlns:rdf="http://www.w3.org/1999/02/22-rdf-syntax-ns#">
   <cc:Work>
    <dc:type rdf:resource="http://purl.org/dc/dcmitype/StillImage"/>
    <dc:date>2022-07-20T23:26:22.512495</dc:date>
    <dc:format>image/svg+xml</dc:format>
    <dc:creator>
     <cc:Agent>
      <dc:title>Matplotlib v3.3.2, https://matplotlib.org/</dc:title>
     </cc:Agent>
    </dc:creator>
   </cc:Work>
  </rdf:RDF>
 </metadata>
 <defs>
  <style type="text/css">*{stroke-linecap:butt;stroke-linejoin:round;}</style>
 </defs>
 <g id="figure_1">
  <g id="patch_1">
   <path d="M 0 345.6 
L 460.8 345.6 
L 460.8 0 
L 0 0 
z
" style="fill:#ffffff;"/>
  </g>
  <g id="axes_1">
   <g id="patch_2">
    <path d="M 57.6 307.584 
L 414.72 307.584 
L 414.72 41.472 
L 57.6 41.472 
z
" style="fill:#ffffff;"/>
   </g>
   <g id="matplotlib.axis_1">
    <g id="xtick_1">
     <g id="line2d_1">
      <defs>
       <path d="M 0 0 
L 0 3.5 
" id="m7a44e439f2" style="stroke:#000000;stroke-width:0.8;"/>
      </defs>
      <g>
       <use style="stroke:#000000;stroke-width:0.8;" x="81.174612" xlink:href="#m7a44e439f2" y="307.584"/>
      </g>
     </g>
     <g id="text_1">
      <!-- 7.5 -->
      <g transform="translate(73.223049 322.182437)scale(0.1 -0.1)">
       <defs>
        <path d="M 8.203125 72.90625 
L 55.078125 72.90625 
L 55.078125 68.703125 
L 28.609375 0 
L 18.3125 0 
L 43.21875 64.59375 
L 8.203125 64.59375 
z
" id="DejaVuSans-55"/>
        <path d="M 10.6875 12.40625 
L 21 12.40625 
L 21 0 
L 10.6875 0 
z
" id="DejaVuSans-46"/>
        <path d="M 10.796875 72.90625 
L 49.515625 72.90625 
L 49.515625 64.59375 
L 19.828125 64.59375 
L 19.828125 46.734375 
Q 21.96875 47.46875 24.109375 47.828125 
Q 26.265625 48.1875 28.421875 48.1875 
Q 40.625 48.1875 47.75 41.5 
Q 54.890625 34.8125 54.890625 23.390625 
Q 54.890625 11.625 47.5625 5.09375 
Q 40.234375 -1.421875 26.90625 -1.421875 
Q 22.3125 -1.421875 17.546875 -0.640625 
Q 12.796875 0.140625 7.71875 1.703125 
L 7.71875 11.625 
Q 12.109375 9.234375 16.796875 8.0625 
Q 21.484375 6.890625 26.703125 6.890625 
Q 35.15625 6.890625 40.078125 11.328125 
Q 45.015625 15.765625 45.015625 23.390625 
Q 45.015625 31 40.078125 35.4375 
Q 35.15625 39.890625 26.703125 39.890625 
Q 22.75 39.890625 18.8125 39.015625 
Q 14.890625 38.140625 10.796875 36.28125 
z
" id="DejaVuSans-53"/>
       </defs>
       <use xlink:href="#DejaVuSans-55"/>
       <use x="63.623047" xlink:href="#DejaVuSans-46"/>
       <use x="95.410156" xlink:href="#DejaVuSans-53"/>
      </g>
     </g>
    </g>
    <g id="xtick_2">
     <g id="line2d_2">
      <g>
       <use style="stroke:#000000;stroke-width:0.8;" x="125.942199" xlink:href="#m7a44e439f2" y="307.584"/>
      </g>
     </g>
     <g id="text_2">
      <!-- 10.0 -->
      <g transform="translate(114.809387 322.182437)scale(0.1 -0.1)">
       <defs>
        <path d="M 12.40625 8.296875 
L 28.515625 8.296875 
L 28.515625 63.921875 
L 10.984375 60.40625 
L 10.984375 69.390625 
L 28.421875 72.90625 
L 38.28125 72.90625 
L 38.28125 8.296875 
L 54.390625 8.296875 
L 54.390625 0 
L 12.40625 0 
z
" id="DejaVuSans-49"/>
        <path d="M 31.78125 66.40625 
Q 24.171875 66.40625 20.328125 58.90625 
Q 16.5 51.421875 16.5 36.375 
Q 16.5 21.390625 20.328125 13.890625 
Q 24.171875 6.390625 31.78125 6.390625 
Q 39.453125 6.390625 43.28125 13.890625 
Q 47.125 21.390625 47.125 36.375 
Q 47.125 51.421875 43.28125 58.90625 
Q 39.453125 66.40625 31.78125 66.40625 
z
M 31.78125 74.21875 
Q 44.046875 74.21875 50.515625 64.515625 
Q 56.984375 54.828125 56.984375 36.375 
Q 56.984375 17.96875 50.515625 8.265625 
Q 44.046875 -1.421875 31.78125 -1.421875 
Q 19.53125 -1.421875 13.0625 8.265625 
Q 6.59375 17.96875 6.59375 36.375 
Q 6.59375 54.828125 13.0625 64.515625 
Q 19.53125 74.21875 31.78125 74.21875 
z
" id="DejaVuSans-48"/>
       </defs>
       <use xlink:href="#DejaVuSans-49"/>
       <use x="63.623047" xlink:href="#DejaVuSans-48"/>
       <use x="127.246094" xlink:href="#DejaVuSans-46"/>
       <use x="159.033203" xlink:href="#DejaVuSans-48"/>
      </g>
     </g>
    </g>
    <g id="xtick_3">
     <g id="line2d_3">
      <g>
       <use style="stroke:#000000;stroke-width:0.8;" x="170.709787" xlink:href="#m7a44e439f2" y="307.584"/>
      </g>
     </g>
     <g id="text_3">
      <!-- 12.5 -->
      <g transform="translate(159.576974 322.182437)scale(0.1 -0.1)">
       <defs>
        <path d="M 19.1875 8.296875 
L 53.609375 8.296875 
L 53.609375 0 
L 7.328125 0 
L 7.328125 8.296875 
Q 12.9375 14.109375 22.625 23.890625 
Q 32.328125 33.6875 34.8125 36.53125 
Q 39.546875 41.84375 41.421875 45.53125 
Q 43.3125 49.21875 43.3125 52.78125 
Q 43.3125 58.59375 39.234375 62.25 
Q 35.15625 65.921875 28.609375 65.921875 
Q 23.96875 65.921875 18.8125 64.3125 
Q 13.671875 62.703125 7.8125 59.421875 
L 7.8125 69.390625 
Q 13.765625 71.78125 18.9375 73 
Q 24.125 74.21875 28.421875 74.21875 
Q 39.75 74.21875 46.484375 68.546875 
Q 53.21875 62.890625 53.21875 53.421875 
Q 53.21875 48.921875 51.53125 44.890625 
Q 49.859375 40.875 45.40625 35.40625 
Q 44.1875 33.984375 37.640625 27.21875 
Q 31.109375 20.453125 19.1875 8.296875 
z
" id="DejaVuSans-50"/>
       </defs>
       <use xlink:href="#DejaVuSans-49"/>
       <use x="63.623047" xlink:href="#DejaVuSans-50"/>
       <use x="127.246094" xlink:href="#DejaVuSans-46"/>
       <use x="159.033203" xlink:href="#DejaVuSans-53"/>
      </g>
     </g>
    </g>
    <g id="xtick_4">
     <g id="line2d_4">
      <g>
       <use style="stroke:#000000;stroke-width:0.8;" x="215.477375" xlink:href="#m7a44e439f2" y="307.584"/>
      </g>
     </g>
     <g id="text_4">
      <!-- 15.0 -->
      <g transform="translate(204.344562 322.182437)scale(0.1 -0.1)">
       <use xlink:href="#DejaVuSans-49"/>
       <use x="63.623047" xlink:href="#DejaVuSans-53"/>
       <use x="127.246094" xlink:href="#DejaVuSans-46"/>
       <use x="159.033203" xlink:href="#DejaVuSans-48"/>
      </g>
     </g>
    </g>
    <g id="xtick_5">
     <g id="line2d_5">
      <g>
       <use style="stroke:#000000;stroke-width:0.8;" x="260.244962" xlink:href="#m7a44e439f2" y="307.584"/>
      </g>
     </g>
     <g id="text_5">
      <!-- 17.5 -->
      <g transform="translate(249.11215 322.182437)scale(0.1 -0.1)">
       <use xlink:href="#DejaVuSans-49"/>
       <use x="63.623047" xlink:href="#DejaVuSans-55"/>
       <use x="127.246094" xlink:href="#DejaVuSans-46"/>
       <use x="159.033203" xlink:href="#DejaVuSans-53"/>
      </g>
     </g>
    </g>
    <g id="xtick_6">
     <g id="line2d_6">
      <g>
       <use style="stroke:#000000;stroke-width:0.8;" x="305.01255" xlink:href="#m7a44e439f2" y="307.584"/>
      </g>
     </g>
     <g id="text_6">
      <!-- 20.0 -->
      <g transform="translate(293.879737 322.182437)scale(0.1 -0.1)">
       <use xlink:href="#DejaVuSans-50"/>
       <use x="63.623047" xlink:href="#DejaVuSans-48"/>
       <use x="127.246094" xlink:href="#DejaVuSans-46"/>
       <use x="159.033203" xlink:href="#DejaVuSans-48"/>
      </g>
     </g>
    </g>
    <g id="xtick_7">
     <g id="line2d_7">
      <g>
       <use style="stroke:#000000;stroke-width:0.8;" x="349.780137" xlink:href="#m7a44e439f2" y="307.584"/>
      </g>
     </g>
     <g id="text_7">
      <!-- 22.5 -->
      <g transform="translate(338.647325 322.182437)scale(0.1 -0.1)">
       <use xlink:href="#DejaVuSans-50"/>
       <use x="63.623047" xlink:href="#DejaVuSans-50"/>
       <use x="127.246094" xlink:href="#DejaVuSans-46"/>
       <use x="159.033203" xlink:href="#DejaVuSans-53"/>
      </g>
     </g>
    </g>
    <g id="xtick_8">
     <g id="line2d_8">
      <g>
       <use style="stroke:#000000;stroke-width:0.8;" x="394.547725" xlink:href="#m7a44e439f2" y="307.584"/>
      </g>
     </g>
     <g id="text_8">
      <!-- 25.0 -->
      <g transform="translate(383.414913 322.182437)scale(0.1 -0.1)">
       <use xlink:href="#DejaVuSans-50"/>
       <use x="63.623047" xlink:href="#DejaVuSans-53"/>
       <use x="127.246094" xlink:href="#DejaVuSans-46"/>
       <use x="159.033203" xlink:href="#DejaVuSans-48"/>
      </g>
     </g>
    </g>
    <g id="text_9">
     <!-- temperature from OpenWeatherMap -->
     <g transform="translate(144.963906 335.860562)scale(0.1 -0.1)">
      <defs>
       <path d="M 18.3125 70.21875 
L 18.3125 54.6875 
L 36.8125 54.6875 
L 36.8125 47.703125 
L 18.3125 47.703125 
L 18.3125 18.015625 
Q 18.3125 11.328125 20.140625 9.421875 
Q 21.96875 7.515625 27.59375 7.515625 
L 36.8125 7.515625 
L 36.8125 0 
L 27.59375 0 
Q 17.1875 0 13.234375 3.875 
Q 9.28125 7.765625 9.28125 18.015625 
L 9.28125 47.703125 
L 2.6875 47.703125 
L 2.6875 54.6875 
L 9.28125 54.6875 
L 9.28125 70.21875 
z
" id="DejaVuSans-116"/>
       <path d="M 56.203125 29.59375 
L 56.203125 25.203125 
L 14.890625 25.203125 
Q 15.484375 15.921875 20.484375 11.0625 
Q 25.484375 6.203125 34.421875 6.203125 
Q 39.59375 6.203125 44.453125 7.46875 
Q 49.3125 8.734375 54.109375 11.28125 
L 54.109375 2.78125 
Q 49.265625 0.734375 44.1875 -0.34375 
Q 39.109375 -1.421875 33.890625 -1.421875 
Q 20.796875 -1.421875 13.15625 6.1875 
Q 5.515625 13.8125 5.515625 26.8125 
Q 5.515625 40.234375 12.765625 48.109375 
Q 20.015625 56 32.328125 56 
Q 43.359375 56 49.78125 48.890625 
Q 56.203125 41.796875 56.203125 29.59375 
z
M 47.21875 32.234375 
Q 47.125 39.59375 43.09375 43.984375 
Q 39.0625 48.390625 32.421875 48.390625 
Q 24.90625 48.390625 20.390625 44.140625 
Q 15.875 39.890625 15.1875 32.171875 
z
" id="DejaVuSans-101"/>
       <path d="M 52 44.1875 
Q 55.375 50.25 60.0625 53.125 
Q 64.75 56 71.09375 56 
Q 79.640625 56 84.28125 50.015625 
Q 88.921875 44.046875 88.921875 33.015625 
L 88.921875 0 
L 79.890625 0 
L 79.890625 32.71875 
Q 79.890625 40.578125 77.09375 44.375 
Q 74.3125 48.1875 68.609375 48.1875 
Q 61.625 48.1875 57.5625 43.546875 
Q 53.515625 38.921875 53.515625 30.90625 
L 53.515625 0 
L 44.484375 0 
L 44.484375 32.71875 
Q 44.484375 40.625 41.703125 44.40625 
Q 38.921875 48.1875 33.109375 48.1875 
Q 26.21875 48.1875 22.15625 43.53125 
Q 18.109375 38.875 18.109375 30.90625 
L 18.109375 0 
L 9.078125 0 
L 9.078125 54.6875 
L 18.109375 54.6875 
L 18.109375 46.1875 
Q 21.1875 51.21875 25.484375 53.609375 
Q 29.78125 56 35.6875 56 
Q 41.65625 56 45.828125 52.96875 
Q 50 49.953125 52 44.1875 
z
" id="DejaVuSans-109"/>
       <path d="M 18.109375 8.203125 
L 18.109375 -20.796875 
L 9.078125 -20.796875 
L 9.078125 54.6875 
L 18.109375 54.6875 
L 18.109375 46.390625 
Q 20.953125 51.265625 25.265625 53.625 
Q 29.59375 56 35.59375 56 
Q 45.5625 56 51.78125 48.09375 
Q 58.015625 40.1875 58.015625 27.296875 
Q 58.015625 14.40625 51.78125 6.484375 
Q 45.5625 -1.421875 35.59375 -1.421875 
Q 29.59375 -1.421875 25.265625 0.953125 
Q 20.953125 3.328125 18.109375 8.203125 
z
M 48.6875 27.296875 
Q 48.6875 37.203125 44.609375 42.84375 
Q 40.53125 48.484375 33.40625 48.484375 
Q 26.265625 48.484375 22.1875 42.84375 
Q 18.109375 37.203125 18.109375 27.296875 
Q 18.109375 17.390625 22.1875 11.75 
Q 26.265625 6.109375 33.40625 6.109375 
Q 40.53125 6.109375 44.609375 11.75 
Q 48.6875 17.390625 48.6875 27.296875 
z
" id="DejaVuSans-112"/>
       <path d="M 41.109375 46.296875 
Q 39.59375 47.171875 37.8125 47.578125 
Q 36.03125 48 33.890625 48 
Q 26.265625 48 22.1875 43.046875 
Q 18.109375 38.09375 18.109375 28.8125 
L 18.109375 0 
L 9.078125 0 
L 9.078125 54.6875 
L 18.109375 54.6875 
L 18.109375 46.1875 
Q 20.953125 51.171875 25.484375 53.578125 
Q 30.03125 56 36.53125 56 
Q 37.453125 56 38.578125 55.875 
Q 39.703125 55.765625 41.0625 55.515625 
z
" id="DejaVuSans-114"/>
       <path d="M 34.28125 27.484375 
Q 23.390625 27.484375 19.1875 25 
Q 14.984375 22.515625 14.984375 16.5 
Q 14.984375 11.71875 18.140625 8.90625 
Q 21.296875 6.109375 26.703125 6.109375 
Q 34.1875 6.109375 38.703125 11.40625 
Q 43.21875 16.703125 43.21875 25.484375 
L 43.21875 27.484375 
z
M 52.203125 31.203125 
L 52.203125 0 
L 43.21875 0 
L 43.21875 8.296875 
Q 40.140625 3.328125 35.546875 0.953125 
Q 30.953125 -1.421875 24.3125 -1.421875 
Q 15.921875 -1.421875 10.953125 3.296875 
Q 6 8.015625 6 15.921875 
Q 6 25.140625 12.171875 29.828125 
Q 18.359375 34.515625 30.609375 34.515625 
L 43.21875 34.515625 
L 43.21875 35.40625 
Q 43.21875 41.609375 39.140625 45 
Q 35.0625 48.390625 27.6875 48.390625 
Q 23 48.390625 18.546875 47.265625 
Q 14.109375 46.140625 10.015625 43.890625 
L 10.015625 52.203125 
Q 14.9375 54.109375 19.578125 55.046875 
Q 24.21875 56 28.609375 56 
Q 40.484375 56 46.34375 49.84375 
Q 52.203125 43.703125 52.203125 31.203125 
z
" id="DejaVuSans-97"/>
       <path d="M 8.5 21.578125 
L 8.5 54.6875 
L 17.484375 54.6875 
L 17.484375 21.921875 
Q 17.484375 14.15625 20.5 10.265625 
Q 23.53125 6.390625 29.59375 6.390625 
Q 36.859375 6.390625 41.078125 11.03125 
Q 45.3125 15.671875 45.3125 23.6875 
L 45.3125 54.6875 
L 54.296875 54.6875 
L 54.296875 0 
L 45.3125 0 
L 45.3125 8.40625 
Q 42.046875 3.421875 37.71875 1 
Q 33.40625 -1.421875 27.6875 -1.421875 
Q 18.265625 -1.421875 13.375 4.4375 
Q 8.5 10.296875 8.5 21.578125 
z
M 31.109375 56 
z
" id="DejaVuSans-117"/>
       <path id="DejaVuSans-32"/>
       <path d="M 37.109375 75.984375 
L 37.109375 68.5 
L 28.515625 68.5 
Q 23.6875 68.5 21.796875 66.546875 
Q 19.921875 64.59375 19.921875 59.515625 
L 19.921875 54.6875 
L 34.71875 54.6875 
L 34.71875 47.703125 
L 19.921875 47.703125 
L 19.921875 0 
L 10.890625 0 
L 10.890625 47.703125 
L 2.296875 47.703125 
L 2.296875 54.6875 
L 10.890625 54.6875 
L 10.890625 58.5 
Q 10.890625 67.625 15.140625 71.796875 
Q 19.390625 75.984375 28.609375 75.984375 
z
" id="DejaVuSans-102"/>
       <path d="M 30.609375 48.390625 
Q 23.390625 48.390625 19.1875 42.75 
Q 14.984375 37.109375 14.984375 27.296875 
Q 14.984375 17.484375 19.15625 11.84375 
Q 23.34375 6.203125 30.609375 6.203125 
Q 37.796875 6.203125 41.984375 11.859375 
Q 46.1875 17.53125 46.1875 27.296875 
Q 46.1875 37.015625 41.984375 42.703125 
Q 37.796875 48.390625 30.609375 48.390625 
z
M 30.609375 56 
Q 42.328125 56 49.015625 48.375 
Q 55.71875 40.765625 55.71875 27.296875 
Q 55.71875 13.875 49.015625 6.21875 
Q 42.328125 -1.421875 30.609375 -1.421875 
Q 18.84375 -1.421875 12.171875 6.21875 
Q 5.515625 13.875 5.515625 27.296875 
Q 5.515625 40.765625 12.171875 48.375 
Q 18.84375 56 30.609375 56 
z
" id="DejaVuSans-111"/>
       <path d="M 39.40625 66.21875 
Q 28.65625 66.21875 22.328125 58.203125 
Q 16.015625 50.203125 16.015625 36.375 
Q 16.015625 22.609375 22.328125 14.59375 
Q 28.65625 6.59375 39.40625 6.59375 
Q 50.140625 6.59375 56.421875 14.59375 
Q 62.703125 22.609375 62.703125 36.375 
Q 62.703125 50.203125 56.421875 58.203125 
Q 50.140625 66.21875 39.40625 66.21875 
z
M 39.40625 74.21875 
Q 54.734375 74.21875 63.90625 63.9375 
Q 73.09375 53.65625 73.09375 36.375 
Q 73.09375 19.140625 63.90625 8.859375 
Q 54.734375 -1.421875 39.40625 -1.421875 
Q 24.03125 -1.421875 14.8125 8.828125 
Q 5.609375 19.09375 5.609375 36.375 
Q 5.609375 53.65625 14.8125 63.9375 
Q 24.03125 74.21875 39.40625 74.21875 
z
" id="DejaVuSans-79"/>
       <path d="M 54.890625 33.015625 
L 54.890625 0 
L 45.90625 0 
L 45.90625 32.71875 
Q 45.90625 40.484375 42.875 44.328125 
Q 39.84375 48.1875 33.796875 48.1875 
Q 26.515625 48.1875 22.3125 43.546875 
Q 18.109375 38.921875 18.109375 30.90625 
L 18.109375 0 
L 9.078125 0 
L 9.078125 54.6875 
L 18.109375 54.6875 
L 18.109375 46.1875 
Q 21.34375 51.125 25.703125 53.5625 
Q 30.078125 56 35.796875 56 
Q 45.21875 56 50.046875 50.171875 
Q 54.890625 44.34375 54.890625 33.015625 
z
" id="DejaVuSans-110"/>
       <path d="M 3.328125 72.90625 
L 13.28125 72.90625 
L 28.609375 11.28125 
L 43.890625 72.90625 
L 54.984375 72.90625 
L 70.3125 11.28125 
L 85.59375 72.90625 
L 95.609375 72.90625 
L 77.296875 0 
L 64.890625 0 
L 49.515625 63.28125 
L 33.984375 0 
L 21.578125 0 
z
" id="DejaVuSans-87"/>
       <path d="M 54.890625 33.015625 
L 54.890625 0 
L 45.90625 0 
L 45.90625 32.71875 
Q 45.90625 40.484375 42.875 44.328125 
Q 39.84375 48.1875 33.796875 48.1875 
Q 26.515625 48.1875 22.3125 43.546875 
Q 18.109375 38.921875 18.109375 30.90625 
L 18.109375 0 
L 9.078125 0 
L 9.078125 75.984375 
L 18.109375 75.984375 
L 18.109375 46.1875 
Q 21.34375 51.125 25.703125 53.5625 
Q 30.078125 56 35.796875 56 
Q 45.21875 56 50.046875 50.171875 
Q 54.890625 44.34375 54.890625 33.015625 
z
" id="DejaVuSans-104"/>
       <path d="M 9.8125 72.90625 
L 24.515625 72.90625 
L 43.109375 23.296875 
L 61.8125 72.90625 
L 76.515625 72.90625 
L 76.515625 0 
L 66.890625 0 
L 66.890625 64.015625 
L 48.09375 14.015625 
L 38.1875 14.015625 
L 19.390625 64.015625 
L 19.390625 0 
L 9.8125 0 
z
" id="DejaVuSans-77"/>
      </defs>
      <use xlink:href="#DejaVuSans-116"/>
      <use x="39.208984" xlink:href="#DejaVuSans-101"/>
      <use x="100.732422" xlink:href="#DejaVuSans-109"/>
      <use x="198.144531" xlink:href="#DejaVuSans-112"/>
      <use x="261.621094" xlink:href="#DejaVuSans-101"/>
      <use x="323.144531" xlink:href="#DejaVuSans-114"/>
      <use x="364.257812" xlink:href="#DejaVuSans-97"/>
      <use x="425.537109" xlink:href="#DejaVuSans-116"/>
      <use x="464.746094" xlink:href="#DejaVuSans-117"/>
      <use x="528.125" xlink:href="#DejaVuSans-114"/>
      <use x="566.988281" xlink:href="#DejaVuSans-101"/>
      <use x="628.511719" xlink:href="#DejaVuSans-32"/>
      <use x="660.298828" xlink:href="#DejaVuSans-102"/>
      <use x="695.503906" xlink:href="#DejaVuSans-114"/>
      <use x="734.367188" xlink:href="#DejaVuSans-111"/>
      <use x="795.548828" xlink:href="#DejaVuSans-109"/>
      <use x="892.960938" xlink:href="#DejaVuSans-32"/>
      <use x="924.748047" xlink:href="#DejaVuSans-79"/>
      <use x="1003.458984" xlink:href="#DejaVuSans-112"/>
      <use x="1066.935547" xlink:href="#DejaVuSans-101"/>
      <use x="1128.458984" xlink:href="#DejaVuSans-110"/>
      <use x="1191.837891" xlink:href="#DejaVuSans-87"/>
      <use x="1284.839844" xlink:href="#DejaVuSans-101"/>
      <use x="1346.363281" xlink:href="#DejaVuSans-97"/>
      <use x="1407.642578" xlink:href="#DejaVuSans-116"/>
      <use x="1446.851562" xlink:href="#DejaVuSans-104"/>
      <use x="1510.230469" xlink:href="#DejaVuSans-101"/>
      <use x="1571.753906" xlink:href="#DejaVuSans-114"/>
      <use x="1612.867188" xlink:href="#DejaVuSans-77"/>
      <use x="1699.146484" xlink:href="#DejaVuSans-97"/>
      <use x="1760.425781" xlink:href="#DejaVuSans-112"/>
     </g>
    </g>
   </g>
   <g id="matplotlib.axis_2">
    <g id="ytick_1">
     <g id="line2d_9">
      <defs>
       <path d="M 0 0 
L -3.5 0 
" id="me98d3cee65" style="stroke:#000000;stroke-width:0.8;"/>
      </defs>
      <g>
       <use style="stroke:#000000;stroke-width:0.8;" x="57.6" xlink:href="#me98d3cee65" y="296.481859"/>
      </g>
     </g>
     <g id="text_10">
      <!-- 0.0 -->
      <g transform="translate(34.696875 300.281077)scale(0.1 -0.1)">
       <use xlink:href="#DejaVuSans-48"/>
       <use x="63.623047" xlink:href="#DejaVuSans-46"/>
       <use x="95.410156" xlink:href="#DejaVuSans-48"/>
      </g>
     </g>
    </g>
    <g id="ytick_2">
     <g id="line2d_10">
      <g>
       <use style="stroke:#000000;stroke-width:0.8;" x="57.6" xlink:href="#me98d3cee65" y="262.159346"/>
      </g>
     </g>
     <g id="text_11">
      <!-- 0.2 -->
      <g transform="translate(34.696875 265.958565)scale(0.1 -0.1)">
       <use xlink:href="#DejaVuSans-48"/>
       <use x="63.623047" xlink:href="#DejaVuSans-46"/>
       <use x="95.410156" xlink:href="#DejaVuSans-50"/>
      </g>
     </g>
    </g>
    <g id="ytick_3">
     <g id="line2d_11">
      <g>
       <use style="stroke:#000000;stroke-width:0.8;" x="57.6" xlink:href="#me98d3cee65" y="227.836834"/>
      </g>
     </g>
     <g id="text_12">
      <!-- 0.4 -->
      <g transform="translate(34.696875 231.636053)scale(0.1 -0.1)">
       <defs>
        <path d="M 37.796875 64.3125 
L 12.890625 25.390625 
L 37.796875 25.390625 
z
M 35.203125 72.90625 
L 47.609375 72.90625 
L 47.609375 25.390625 
L 58.015625 25.390625 
L 58.015625 17.1875 
L 47.609375 17.1875 
L 47.609375 0 
L 37.796875 0 
L 37.796875 17.1875 
L 4.890625 17.1875 
L 4.890625 26.703125 
z
" id="DejaVuSans-52"/>
       </defs>
       <use xlink:href="#DejaVuSans-48"/>
       <use x="63.623047" xlink:href="#DejaVuSans-46"/>
       <use x="95.410156" xlink:href="#DejaVuSans-52"/>
      </g>
     </g>
    </g>
    <g id="ytick_4">
     <g id="line2d_12">
      <g>
       <use style="stroke:#000000;stroke-width:0.8;" x="57.6" xlink:href="#me98d3cee65" y="193.514322"/>
      </g>
     </g>
     <g id="text_13">
      <!-- 0.6 -->
      <g transform="translate(34.696875 197.313541)scale(0.1 -0.1)">
       <defs>
        <path d="M 33.015625 40.375 
Q 26.375 40.375 22.484375 35.828125 
Q 18.609375 31.296875 18.609375 23.390625 
Q 18.609375 15.53125 22.484375 10.953125 
Q 26.375 6.390625 33.015625 6.390625 
Q 39.65625 6.390625 43.53125 10.953125 
Q 47.40625 15.53125 47.40625 23.390625 
Q 47.40625 31.296875 43.53125 35.828125 
Q 39.65625 40.375 33.015625 40.375 
z
M 52.59375 71.296875 
L 52.59375 62.3125 
Q 48.875 64.0625 45.09375 64.984375 
Q 41.3125 65.921875 37.59375 65.921875 
Q 27.828125 65.921875 22.671875 59.328125 
Q 17.53125 52.734375 16.796875 39.40625 
Q 19.671875 43.65625 24.015625 45.921875 
Q 28.375 48.1875 33.59375 48.1875 
Q 44.578125 48.1875 50.953125 41.515625 
Q 57.328125 34.859375 57.328125 23.390625 
Q 57.328125 12.15625 50.6875 5.359375 
Q 44.046875 -1.421875 33.015625 -1.421875 
Q 20.359375 -1.421875 13.671875 8.265625 
Q 6.984375 17.96875 6.984375 36.375 
Q 6.984375 53.65625 15.1875 63.9375 
Q 23.390625 74.21875 37.203125 74.21875 
Q 40.921875 74.21875 44.703125 73.484375 
Q 48.484375 72.75 52.59375 71.296875 
z
" id="DejaVuSans-54"/>
       </defs>
       <use xlink:href="#DejaVuSans-48"/>
       <use x="63.623047" xlink:href="#DejaVuSans-46"/>
       <use x="95.410156" xlink:href="#DejaVuSans-54"/>
      </g>
     </g>
    </g>
    <g id="ytick_5">
     <g id="line2d_13">
      <g>
       <use style="stroke:#000000;stroke-width:0.8;" x="57.6" xlink:href="#me98d3cee65" y="159.19181"/>
      </g>
     </g>
     <g id="text_14">
      <!-- 0.8 -->
      <g transform="translate(34.696875 162.991028)scale(0.1 -0.1)">
       <defs>
        <path d="M 31.78125 34.625 
Q 24.75 34.625 20.71875 30.859375 
Q 16.703125 27.09375 16.703125 20.515625 
Q 16.703125 13.921875 20.71875 10.15625 
Q 24.75 6.390625 31.78125 6.390625 
Q 38.8125 6.390625 42.859375 10.171875 
Q 46.921875 13.96875 46.921875 20.515625 
Q 46.921875 27.09375 42.890625 30.859375 
Q 38.875 34.625 31.78125 34.625 
z
M 21.921875 38.8125 
Q 15.578125 40.375 12.03125 44.71875 
Q 8.5 49.078125 8.5 55.328125 
Q 8.5 64.0625 14.71875 69.140625 
Q 20.953125 74.21875 31.78125 74.21875 
Q 42.671875 74.21875 48.875 69.140625 
Q 55.078125 64.0625 55.078125 55.328125 
Q 55.078125 49.078125 51.53125 44.71875 
Q 48 40.375 41.703125 38.8125 
Q 48.828125 37.15625 52.796875 32.3125 
Q 56.78125 27.484375 56.78125 20.515625 
Q 56.78125 9.90625 50.3125 4.234375 
Q 43.84375 -1.421875 31.78125 -1.421875 
Q 19.734375 -1.421875 13.25 4.234375 
Q 6.78125 9.90625 6.78125 20.515625 
Q 6.78125 27.484375 10.78125 32.3125 
Q 14.796875 37.15625 21.921875 38.8125 
z
M 18.3125 54.390625 
Q 18.3125 48.734375 21.84375 45.5625 
Q 25.390625 42.390625 31.78125 42.390625 
Q 38.140625 42.390625 41.71875 45.5625 
Q 45.3125 48.734375 45.3125 54.390625 
Q 45.3125 60.0625 41.71875 63.234375 
Q 38.140625 66.40625 31.78125 66.40625 
Q 25.390625 66.40625 21.84375 63.234375 
Q 18.3125 60.0625 18.3125 54.390625 
z
" id="DejaVuSans-56"/>
       </defs>
       <use xlink:href="#DejaVuSans-48"/>
       <use x="63.623047" xlink:href="#DejaVuSans-46"/>
       <use x="95.410156" xlink:href="#DejaVuSans-56"/>
      </g>
     </g>
    </g>
    <g id="ytick_6">
     <g id="line2d_14">
      <g>
       <use style="stroke:#000000;stroke-width:0.8;" x="57.6" xlink:href="#me98d3cee65" y="124.869298"/>
      </g>
     </g>
     <g id="text_15">
      <!-- 1.0 -->
      <g transform="translate(34.696875 128.668516)scale(0.1 -0.1)">
       <use xlink:href="#DejaVuSans-49"/>
       <use x="63.623047" xlink:href="#DejaVuSans-46"/>
       <use x="95.410156" xlink:href="#DejaVuSans-48"/>
      </g>
     </g>
    </g>
    <g id="ytick_7">
     <g id="line2d_15">
      <g>
       <use style="stroke:#000000;stroke-width:0.8;" x="57.6" xlink:href="#me98d3cee65" y="90.546785"/>
      </g>
     </g>
     <g id="text_16">
      <!-- 1.2 -->
      <g transform="translate(34.696875 94.346004)scale(0.1 -0.1)">
       <use xlink:href="#DejaVuSans-49"/>
       <use x="63.623047" xlink:href="#DejaVuSans-46"/>
       <use x="95.410156" xlink:href="#DejaVuSans-50"/>
      </g>
     </g>
    </g>
    <g id="ytick_8">
     <g id="line2d_16">
      <g>
       <use style="stroke:#000000;stroke-width:0.8;" x="57.6" xlink:href="#me98d3cee65" y="56.224273"/>
      </g>
     </g>
     <g id="text_17">
      <!-- 1.4 -->
      <g transform="translate(34.696875 60.023492)scale(0.1 -0.1)">
       <use xlink:href="#DejaVuSans-49"/>
       <use x="63.623047" xlink:href="#DejaVuSans-46"/>
       <use x="95.410156" xlink:href="#DejaVuSans-52"/>
      </g>
     </g>
    </g>
    <g id="text_18">
     <!-- Throughput_night[Bit/s] -->
     <g transform="translate(28.339062 233.899094)rotate(-90)scale(0.1 -0.1)">
      <defs>
       <path d="M -0.296875 72.90625 
L 61.375 72.90625 
L 61.375 64.59375 
L 35.5 64.59375 
L 35.5 0 
L 25.59375 0 
L 25.59375 64.59375 
L -0.296875 64.59375 
z
" id="DejaVuSans-84"/>
       <path d="M 45.40625 27.984375 
Q 45.40625 37.75 41.375 43.109375 
Q 37.359375 48.484375 30.078125 48.484375 
Q 22.859375 48.484375 18.828125 43.109375 
Q 14.796875 37.75 14.796875 27.984375 
Q 14.796875 18.265625 18.828125 12.890625 
Q 22.859375 7.515625 30.078125 7.515625 
Q 37.359375 7.515625 41.375 12.890625 
Q 45.40625 18.265625 45.40625 27.984375 
z
M 54.390625 6.78125 
Q 54.390625 -7.171875 48.1875 -13.984375 
Q 42 -20.796875 29.203125 -20.796875 
Q 24.46875 -20.796875 20.265625 -20.09375 
Q 16.0625 -19.390625 12.109375 -17.921875 
L 12.109375 -9.1875 
Q 16.0625 -11.328125 19.921875 -12.34375 
Q 23.78125 -13.375 27.78125 -13.375 
Q 36.625 -13.375 41.015625 -8.765625 
Q 45.40625 -4.15625 45.40625 5.171875 
L 45.40625 9.625 
Q 42.625 4.78125 38.28125 2.390625 
Q 33.9375 0 27.875 0 
Q 17.828125 0 11.671875 7.65625 
Q 5.515625 15.328125 5.515625 27.984375 
Q 5.515625 40.671875 11.671875 48.328125 
Q 17.828125 56 27.875 56 
Q 33.9375 56 38.28125 53.609375 
Q 42.625 51.21875 45.40625 46.390625 
L 45.40625 54.6875 
L 54.390625 54.6875 
z
" id="DejaVuSans-103"/>
       <path d="M 50.984375 -16.609375 
L 50.984375 -23.578125 
L -0.984375 -23.578125 
L -0.984375 -16.609375 
z
" id="DejaVuSans-95"/>
       <path d="M 9.421875 54.6875 
L 18.40625 54.6875 
L 18.40625 0 
L 9.421875 0 
z
M 9.421875 75.984375 
L 18.40625 75.984375 
L 18.40625 64.59375 
L 9.421875 64.59375 
z
" id="DejaVuSans-105"/>
       <path d="M 8.59375 75.984375 
L 29.296875 75.984375 
L 29.296875 69 
L 17.578125 69 
L 17.578125 -6.203125 
L 29.296875 -6.203125 
L 29.296875 -13.1875 
L 8.59375 -13.1875 
z
" id="DejaVuSans-91"/>
       <path d="M 19.671875 34.8125 
L 19.671875 8.109375 
L 35.5 8.109375 
Q 43.453125 8.109375 47.28125 11.40625 
Q 51.125 14.703125 51.125 21.484375 
Q 51.125 28.328125 47.28125 31.5625 
Q 43.453125 34.8125 35.5 34.8125 
z
M 19.671875 64.796875 
L 19.671875 42.828125 
L 34.28125 42.828125 
Q 41.5 42.828125 45.03125 45.53125 
Q 48.578125 48.25 48.578125 53.8125 
Q 48.578125 59.328125 45.03125 62.0625 
Q 41.5 64.796875 34.28125 64.796875 
z
M 9.8125 72.90625 
L 35.015625 72.90625 
Q 46.296875 72.90625 52.390625 68.21875 
Q 58.5 63.53125 58.5 54.890625 
Q 58.5 48.1875 55.375 44.234375 
Q 52.25 40.28125 46.1875 39.3125 
Q 53.46875 37.75 57.5 32.78125 
Q 61.53125 27.828125 61.53125 20.40625 
Q 61.53125 10.640625 54.890625 5.3125 
Q 48.25 0 35.984375 0 
L 9.8125 0 
z
" id="DejaVuSans-66"/>
       <path d="M 25.390625 72.90625 
L 33.6875 72.90625 
L 8.296875 -9.28125 
L 0 -9.28125 
z
" id="DejaVuSans-47"/>
       <path d="M 44.28125 53.078125 
L 44.28125 44.578125 
Q 40.484375 46.53125 36.375 47.5 
Q 32.28125 48.484375 27.875 48.484375 
Q 21.1875 48.484375 17.84375 46.4375 
Q 14.5 44.390625 14.5 40.28125 
Q 14.5 37.15625 16.890625 35.375 
Q 19.28125 33.59375 26.515625 31.984375 
L 29.59375 31.296875 
Q 39.15625 29.25 43.1875 25.515625 
Q 47.21875 21.78125 47.21875 15.09375 
Q 47.21875 7.46875 41.1875 3.015625 
Q 35.15625 -1.421875 24.609375 -1.421875 
Q 20.21875 -1.421875 15.453125 -0.5625 
Q 10.6875 0.296875 5.421875 2 
L 5.421875 11.28125 
Q 10.40625 8.6875 15.234375 7.390625 
Q 20.0625 6.109375 24.8125 6.109375 
Q 31.15625 6.109375 34.5625 8.28125 
Q 37.984375 10.453125 37.984375 14.40625 
Q 37.984375 18.0625 35.515625 20.015625 
Q 33.0625 21.96875 24.703125 23.78125 
L 21.578125 24.515625 
Q 13.234375 26.265625 9.515625 29.90625 
Q 5.8125 33.546875 5.8125 39.890625 
Q 5.8125 47.609375 11.28125 51.796875 
Q 16.75 56 26.8125 56 
Q 31.78125 56 36.171875 55.265625 
Q 40.578125 54.546875 44.28125 53.078125 
z
" id="DejaVuSans-115"/>
       <path d="M 30.421875 75.984375 
L 30.421875 -13.1875 
L 9.71875 -13.1875 
L 9.71875 -6.203125 
L 21.390625 -6.203125 
L 21.390625 69 
L 9.71875 69 
L 9.71875 75.984375 
z
" id="DejaVuSans-93"/>
      </defs>
      <use xlink:href="#DejaVuSans-84"/>
      <use x="61.083984" xlink:href="#DejaVuSans-104"/>
      <use x="124.462891" xlink:href="#DejaVuSans-114"/>
      <use x="163.326172" xlink:href="#DejaVuSans-111"/>
      <use x="224.507812" xlink:href="#DejaVuSans-117"/>
      <use x="287.886719" xlink:href="#DejaVuSans-103"/>
      <use x="351.363281" xlink:href="#DejaVuSans-104"/>
      <use x="414.742188" xlink:href="#DejaVuSans-112"/>
      <use x="478.21875" xlink:href="#DejaVuSans-117"/>
      <use x="541.597656" xlink:href="#DejaVuSans-116"/>
      <use x="580.806641" xlink:href="#DejaVuSans-95"/>
      <use x="630.806641" xlink:href="#DejaVuSans-110"/>
      <use x="694.185547" xlink:href="#DejaVuSans-105"/>
      <use x="721.96875" xlink:href="#DejaVuSans-103"/>
      <use x="785.445312" xlink:href="#DejaVuSans-104"/>
      <use x="848.824219" xlink:href="#DejaVuSans-116"/>
      <use x="888.033203" xlink:href="#DejaVuSans-91"/>
      <use x="927.046875" xlink:href="#DejaVuSans-66"/>
      <use x="995.650391" xlink:href="#DejaVuSans-105"/>
      <use x="1023.433594" xlink:href="#DejaVuSans-116"/>
      <use x="1062.642578" xlink:href="#DejaVuSans-47"/>
      <use x="1096.333984" xlink:href="#DejaVuSans-115"/>
      <use x="1148.433594" xlink:href="#DejaVuSans-93"/>
     </g>
    </g>
    <g id="text_19">
     <!-- 1e7 -->
     <g transform="translate(57.6 38.472)scale(0.1 -0.1)">
      <use xlink:href="#DejaVuSans-49"/>
      <use x="63.623047" xlink:href="#DejaVuSans-101"/>
      <use x="125.146484" xlink:href="#DejaVuSans-55"/>
     </g>
    </g>
   </g>
   <g id="line2d_17">
    <path clip-path="url(#pbf66569d1c)" d="M 73.832727 63.727885 
L 75.26529 69.169577 
L 77.235064 69.072685 
L 79.025767 67.480625 
L 79.562978 62.760138 
L 80.27926 68.676552 
L 80.45833 64.797897 
L 80.995541 64.298657 
L 82.069963 58.38743 
L 82.607174 67.682705 
L 83.144385 65.889532 
L 83.323456 67.985929 
L 83.860667 61.31288 
L 84.576948 65.587796 
L 85.114159 67.282023 
L 85.830441 104.95033 
L 86.367652 104.551086 
L 87.442074 63.602998 
L 89.411848 153.155697 
L 92.814184 84.674198 
L 93.172325 66.887941 
L 96.574662 81.449623 
L 98.007225 91.83696 
L 98.365365 76.630649 
L 99.260717 102.163247 
L 99.797928 101.968696 
L 101.051421 63.698388 
L 105.170039 62.109706 
L 106.244461 65.892368 
L 108.035164 65.69183 
L 108.751446 95.814784 
L 109.288657 67.530083 
L 110.004938 89.890975 
L 111.258431 103.470562 
L 116.2724 66.386199 
L 117.525893 65.696185 
L 117.884033 66.084632 
L 120.749159 72.347089 
L 122.360792 64.004594 
L 122.718933 66.188725 
L 123.256144 63.904179 
L 123.793355 68.376986 
L 123.972425 65.090499 
L 124.151496 69.263926 
L 124.330566 81.205572 
L 124.509636 65.19593 
L 124.688707 63.797411 
L 125.046848 77.818056 
L 125.225918 69.120277 
L 125.404988 72.1542 
L 125.584059 61.318148 
L 126.47941 76.876855 
L 126.837551 82.788093 
L 127.016621 74.089878 
L 127.195692 90.144207 
L 127.374762 54.758504 
L 127.553832 61.41512 
L 127.911973 67.677375 
L 128.270114 75.930345 
L 128.449184 61.925013 
L 128.628255 59.72206 
L 130.418958 80.1515 
L 130.598028 64.99279 
L 130.956169 71.058071 
L 131.135239 62.113877 
L 131.31431 65.094941 
L 132.030591 58.24166 
L 132.567802 64.69747 
L 132.746873 64.303488 
L 132.925943 73.540538 
L 133.105013 76.076324 
L 133.284084 86.572404 
L 133.821295 60.424862 
L 134.895717 68.869225 
L 135.253857 82.994349 
L 135.611998 53.568 
L 136.68642 66.485443 
L 136.865491 64.445675 
L 137.044561 68.02282 
L 138.118983 64.349796 
L 138.298053 61.066334 
L 138.656194 64.896256 
L 138.835265 71.555959 
L 139.014335 66.483292 
L 139.372476 65.437972 
L 139.551546 59.92123 
L 139.730616 65.504454 
L 139.909687 63.518234 
L 140.446898 65.990118 
L 140.625968 65.096861 
L 140.805038 72.844196 
L 140.984109 64.351128 
L 141.342249 68.971018 
L 141.52132 100.885968 
L 141.87946 69.371316 
L 142.058531 67.876825 
L 142.416672 61.165141 
L 142.595742 63.155956 
L 142.774812 63.40766 
L 142.953883 67.383317 
L 143.312023 66.58271 
L 143.849234 63.905039 
L 144.386445 71.558823 
L 144.565516 63.400249 
L 144.744586 65.288076 
L 144.923656 65.241005 
L 145.460867 104.402379 
L 145.639938 61.614636 
L 145.819008 58.131711 
L 145.998079 63.304328 
L 146.177149 63.702588 
L 146.53529 58.938941 
L 146.89343 66.482004 
L 147.251571 68.273053 
L 147.430641 66.384839 
L 147.788782 67.772995 
L 147.967852 73.787766 
L 148.146923 67.530943 
L 148.325993 85.269842 
L 148.505063 65.487593 
L 148.684134 68.274298 
L 148.863204 63.400109 
L 149.042274 65.344635 
L 149.579486 64.395941 
L 149.758556 74.435042 
L 149.937626 64.890736 
L 150.116697 68.672508 
L 150.295767 64.548337 
L 150.474837 65.239946 
L 150.653908 61.663006 
L 150.832978 69.071002 
L 151.012048 63.714169 
L 151.191119 70.362228 
L 151.370189 70.013514 
L 151.549259 67.480637 
L 151.9074 98.686395 
L 152.08647 64.30126 
L 152.265541 75.288411 
L 152.444611 96.90789 
L 152.623681 66.687898 
L 152.802752 61.318877 
L 152.981822 64.592202 
L 153.160893 89.14386 
L 153.519033 77.019205 
L 153.698104 63.401834 
L 153.877174 69.42808 
L 154.056244 80.849735 
L 154.235315 58.333359 
L 154.772526 79.11455 
L 154.951596 66.283491 
L 155.309737 95.855818 
L 155.667877 66.238543 
L 155.846948 67.777043 
L 156.026018 82.993602 
L 156.205089 66.085047 
L 156.384159 63.20385 
L 156.563229 72.748931 
L 156.7423 67.678473 
L 157.10044 71.659104 
L 157.279511 65.889831 
L 157.637651 79.158638 
L 157.995792 60.815315 
L 158.174862 64.10115 
L 158.353933 62.708406 
L 158.712073 70.012023 
L 158.891144 74.63534 
L 159.249284 63.903527 
L 159.428355 61.117819 
L 159.786496 62.16075 
L 159.965566 64.19541 
L 160.144636 70.161732 
L 160.323707 67.375001 
L 160.502777 66.385486 
L 160.860918 68.970144 
L 161.219058 63.303255 
L 161.398129 68.571668 
L 161.577199 67.728728 
L 161.756269 63.104872 
L 161.93534 62.107151 
L 162.29348 69.27047 
L 162.472551 67.773911 
L 162.651621 65.197757 
L 162.830691 73.29377 
L 163.188832 73.04303 
L 163.367903 64.099315 
L 163.546973 87.210101 
L 163.726043 68.273132 
L 164.084184 72.450119 
L 164.263254 67.131991 
L 164.442325 66.093087 
L 164.800465 74.93281 
L 164.979536 67.578433 
L 165.158606 94.711172 
L 165.337676 66.932484 
L 165.516747 70.464842 
L 165.695817 66.386084 
L 165.874887 72.845247 
L 166.053958 67.033434 
L 166.233028 68.719713 
L 166.412098 67.483075 
L 166.591169 64.497516 
L 166.770239 64.095713 
L 166.94931 61.21572 
L 167.30745 73.736787 
L 167.486521 72.344669 
L 167.665591 73.438712 
L 167.844661 68.075886 
L 168.023732 68.620352 
L 168.202802 66.387661 
L 168.560943 66.283629 
L 168.740013 96.451885 
L 168.919083 66.784875 
L 169.098154 64.593779 
L 169.277224 69.069229 
L 169.456294 65.58745 
L 169.635365 66.085185 
L 170.172576 71.949399 
L 170.351646 69.364139 
L 170.709787 108.526114 
L 170.888857 71.356588 
L 171.067928 101.122331 
L 171.246998 69.516444 
L 171.426068 66.200569 
L 171.605139 74.135302 
L 171.784209 72.948414 
L 171.963279 66.681001 
L 172.14235 70.756601 
L 172.32142 67.979407 
L 172.50049 68.966286 
L 172.679561 64.294527 
L 173.037701 138.246785 
L 173.216772 64.798824 
L 173.395842 68.276976 
L 173.574913 75.082615 
L 173.753983 75.327467 
L 173.933053 69.966942 
L 174.291194 64.249892 
L 174.470264 75.131554 
L 174.649335 65.937432 
L 174.828405 67.826308 
L 175.007475 66.084494 
L 175.365616 65.293611 
L 175.544686 63.403582 
L 175.902827 70.313325 
L 176.081897 66.192778 
L 176.260968 65.884851 
L 176.440038 60.275325 
L 176.619108 70.663975 
L 176.798179 150.172048 
L 176.977249 78.316458 
L 177.15632 60.472171 
L 177.33539 67.479182 
L 177.872601 66.581974 
L 178.051671 69.215367 
L 178.230742 67.085187 
L 178.409812 67.676764 
L 178.767953 59.525563 
L 179.126093 67.575852 
L 179.842375 66.481337 
L 180.200515 70.511293 
L 180.737727 69.166895 
L 180.916797 67.428381 
L 181.095867 60.224912 
L 181.274938 70.061557 
L 181.633078 68.97211 
L 181.812149 70.26202 
L 181.991219 62.509343 
L 182.34936 59.829154 
L 182.52843 67.773178 
L 183.065641 67.97992 
L 183.244711 72.25041 
L 183.781922 108.530793 
L 184.498204 66.186384 
L 184.677274 65.192461 
L 184.856345 67.776951 
L 185.214485 71.254119 
L 185.393556 96.201681 
L 185.751696 68.378126 
L 185.930767 74.139749 
L 186.288907 70.557513 
L 186.467978 88.150827 
L 186.826118 62.908016 
L 187.005189 70.261568 
L 187.184259 63.106054 
L 187.72147 71.998674 
L 188.079611 67.177677 
L 188.258681 71.650788 
L 188.616822 65.188714 
L 188.795892 70.575155 
L 188.974963 69.168487 
L 189.154033 74.134669 
L 189.333103 62.311141 
L 189.512174 64.299936 
L 189.691244 68.334478 
L 189.870314 69.020414 
L 190.049385 63.897225 
L 190.407525 68.572443 
L 190.586596 73.041511 
L 190.765666 67.184877 
L 190.944736 67.283627 
L 191.123807 65.392912 
L 191.302877 69.912772 
L 191.661018 68.772459 
L 191.840088 61.267535 
L 192.019159 69.065044 
L 192.55637 71.057237 
L 192.73544 66.383323 
L 193.093581 64.893008 
L 193.451721 68.468968 
L 193.809862 63.3061 
L 193.988932 71.65434 
L 194.347073 69.364571 
L 194.526144 74.096824 
L 194.884284 65.542653 
L 195.063355 70.259518 
L 195.421495 61.313225 
L 195.600566 72.395019 
L 195.779636 63.803786 
L 195.958706 70.763547 
L 196.316847 65.988795 
L 196.495917 59.539997 
L 196.674988 73.738404 
L 197.033128 66.54023 
L 197.212199 66.737833 
L 197.92848 64.194806 
L 198.465691 68.57014 
L 198.644762 74.485296 
L 198.823832 70.20829 
L 199.181973 70.170317 
L 199.361043 72.150459 
L 199.719184 66.385301 
L 200.435465 66.388108 
L 200.793606 66.784301 
L 200.972676 63.797108 
L 201.330817 72.843548 
L 201.688958 59.530358 
L 202.047098 66.681553 
L 202.226169 98.386745 
L 202.405239 64.548889 
L 203.300591 70.260776 
L 203.479661 65.641754 
L 203.658731 66.980333 
L 203.837802 63.998154 
L 204.195942 71.453281 
L 204.375013 67.17942 
L 204.554083 97.500245 
L 204.912224 62.709624 
L 205.270365 73.840568 
L 205.449435 88.748397 
L 205.807576 61.810279 
L 205.986646 72.149983 
L 206.165716 69.766548 
L 206.344787 64.797086 
L 206.523857 74.332804 
L 206.702927 73.837563 
L 206.881998 72.544468 
L 207.419209 66.784002 
L 207.598279 71.454001 
L 207.777349 90.344177 
L 208.493631 60.021807 
L 209.030842 77.217947 
L 209.568053 70.808619 
L 209.926194 89.848618 
L 210.105264 65.290999 
L 210.284334 63.400177 
L 210.463405 70.855629 
L 210.642475 64.04764 
L 211.000616 68.473893 
L 211.358756 69.166054 
L 211.716897 71.899388 
L 212.254108 90.139626 
L 212.433179 62.308448 
L 212.97039 75.230741 
L 213.32853 65.291934 
L 213.686671 73.540515 
L 214.044812 71.453326 
L 214.223882 76.125758 
L 214.402952 65.387944 
L 214.582023 70.755399 
L 214.761093 65.889878 
L 215.119234 74.195032 
L 215.298304 70.659315 
L 215.477375 70.511802 
L 215.656445 71.156405 
L 215.835515 66.883717 
L 216.193656 71.851345 
L 216.372726 66.585686 
L 216.551797 70.754654 
L 216.730867 70.267155 
L 216.909937 66.881267 
L 217.447148 72.097078 
L 217.626219 63.008429 
L 217.984359 79.601332 
L 218.16343 66.882771 
L 218.3425 73.04341 
L 218.52157 68.172152 
L 218.700641 66.785587 
L 218.879711 73.149839 
L 219.237852 61.514467 
L 219.416922 67.077617 
L 219.954133 71.159176 
L 220.312274 62.510138 
L 220.849485 70.362951 
L 221.028555 64.994553 
L 221.386696 64.755322 
L 221.565766 63.204118 
L 221.923907 64.696674 
L 222.102977 95.410672 
L 222.282048 67.277805 
L 222.461118 65.345021 
L 222.640189 100.979972 
L 223.1774 63.606095 
L 223.53554 65.242225 
L 223.893681 70.163215 
L 224.072751 67.925001 
L 224.251822 71.152011 
L 224.430892 68.571258 
L 224.789033 70.011283 
L 224.968103 68.073282 
L 225.505314 180.835356 
L 225.684384 295.487996 
L 225.863455 68.767417 
L 226.221596 83.277785 
L 226.400666 295.488 
L 226.579736 68.574745 
L 226.758807 69.171941 
L 227.296018 70.159051 
L 227.833229 60.916854 
L 228.37044 70.459881 
L 228.54951 66.383369 
L 228.72858 65.989409 
L 229.086721 63.009461 
L 229.265792 66.985461 
L 229.803003 69.41865 
L 229.982073 67.180016 
L 230.877425 75.726968 
L 231.056495 62.212989 
L 231.593706 70.062121 
L 231.772776 72.448612 
L 232.130917 68.170452 
L 232.489058 68.077384 
L 232.847199 58.731197 
L 233.205339 71.94987 
L 233.38441 67.477758 
L 233.56348 76.224755 
L 233.921621 65.884367 
L 234.100691 72.74959 
L 234.279761 69.56833 
L 234.458832 62.313201 
L 234.637902 82.784097 
L 234.996043 61.411641 
L 236.070465 70.314452 
L 236.249535 74.042228 
L 236.428606 148.680971 
L 236.607676 70.109623 
L 236.786746 91.281643 
L 236.965817 64.891184 
L 237.144887 75.631666 
L 237.323957 64.296709 
L 237.682098 107.533109 
L 237.861168 74.18855 
L 238.040239 70.953468 
L 238.398379 62.012023 
L 238.75652 70.1624 
L 239.114661 57.14003 
L 239.293731 64.09671 
L 239.651872 294.692909 
L 240.010013 69.713337 
L 240.189083 78.717923 
L 240.547224 108.725542 
L 240.726294 73.936223 
L 240.905364 64.992554 
L 241.084435 248.576364 
L 241.621646 66.086544 
L 241.979786 59.328297 
L 242.158857 69.465941 
L 242.516997 79.904131 
L 242.696068 72.992294 
L 243.412349 122.241982 
L 243.59142 64.99821 
L 243.94956 68.822223 
L 244.307701 81.841886 
L 244.486771 67.08521 
L 244.665842 70.962894 
L 244.844912 64.195131 
L 245.203053 65.989363 
L 245.740264 294.195979 
L 245.919334 182.677978 
L 246.277475 69.962684 
L 246.635616 66.585813 
L 246.814686 73.538747 
L 246.993756 67.586083 
L 247.889108 66.182737 
L 248.068178 68.075791 
L 248.247249 294.792301 
L 248.78446 66.686219 
L 248.96353 57.88754 
L 249.1426 82.789567 
L 249.321671 71.353256 
L 249.500741 204.143439 
L 249.679811 64.195062 
L 249.858882 67.581506 
L 250.037952 67.781731 
L 250.217023 65.095196 
L 250.933304 59.975501 
L 251.112374 65.492929 
L 251.291445 66.381319 
L 251.470515 65.08874 
L 252.365867 63.205658 
L 252.544937 73.098448 
L 252.724007 63.303745 
L 253.082148 65.287971 
L 253.9775 67.579366 
L 254.15657 61.222119 
L 254.335641 64.004919 
L 254.514711 58.332097 
L 255.230992 76.137281 
L 255.947274 70.164516 
L 256.126344 62.20739 
L 256.305414 65.091077 
L 256.484485 61.818234 
L 256.842625 64.703349 
L 257.200766 280.181596 
L 257.737977 64.40084 
L 257.917048 66.39837 
L 258.096118 71.949197 
L 258.454259 70.860345 
L 258.633329 104.454802 
L 258.812399 73.243739 
L 258.99147 64.196815 
L 259.528681 66.780649 
L 259.707751 66.185339 
L 259.886821 71.458477 
L 260.065892 63.403768 
L 260.603103 70.563327 
L 260.782173 175.818701 
L 261.140314 61.128564 
L 261.498455 90.645715 
L 261.856595 68.172061 
L 262.214736 69.070295 
L 262.751947 66.037909 
L 262.931017 61.915649 
L 263.289158 64.895104 
L 263.647299 64.996358 
L 263.826369 68.369002 
L 264.36358 63.514391 
L 264.542651 62.908365 
L 264.721721 60.92849 
L 265.079862 61.517545 
L 265.438002 64.695376 
L 265.617073 67.778392 
L 265.796143 65.591837 
L 265.975213 66.283514 
L 266.154284 63.607935 
L 266.333354 63.999048 
L 266.512424 137.706571 
L 266.691495 68.576158 
L 266.870565 71.757126 
L 267.228706 69.716534 
L 267.407776 217.464695 
L 267.765917 71.456611 
L 267.944987 65.094548 
L 268.303128 64.79046 
L 269.19848 179.396776 
L 269.55662 86.464185 
L 269.914761 63.110021 
L 270.272902 61.214944 
L 270.810113 64.989854 
L 270.989183 63.505725 
L 271.705465 61.020464 
L 271.884535 72.247918 
L 272.421746 69.766707 
L 272.600816 293.798443 
L 272.958957 68.271912 
L 273.138027 59.423993 
L 273.317098 68.469834 
L 273.496168 66.785403 
L 273.675238 67.976036 
L 273.854309 66.234892 
L 274.57059 67.685222 
L 274.928731 64.745465 
L 275.465942 67.079108 
L 276.003153 61.166705 
L 276.540364 60.818897 
L 276.898505 66.487308 
L 277.435716 63.105494 
L 277.614786 71.15449 
L 277.793856 66.783129 
L 277.972927 67.081264 
L 278.868279 67.575989 
L 279.047349 103.962111 
L 279.40549 61.334688 
L 280.658982 67.181896 
L 281.017123 62.520081 
L 284.061319 65.491797 
L 284.419459 145.405608 
L 284.7776 65.592714 
L 285.672952 64.648414 
L 286.031093 64.101569 
L 287.105515 60.429418 
L 287.284585 144.410332 
L 287.642726 63.796782 
L 287.821796 62.316362 
L 288.717148 65.886788 
L 288.896218 169.752469 
L 289.6125 73.943322 
L 290.149711 118.969771 
L 290.328781 66.036019 
L 290.507851 66.283215 
L 291.761344 105.942932 
L 292.298555 68.075407 
L 292.835766 65.892483 
L 293.372977 74.337624 
L 293.731118 57.490304 
L 293.910188 64.69227 
L 295.16368 66.344312 
L 295.879962 64.395686 
L 296.238103 64.692455 
L 296.775314 78.410349 
L 297.670665 71.951554 
L 298.028806 65.488633 
L 298.386947 69.172239 
L 299.103228 67.176576 
L 299.461369 78.858979 
L 300.17765 65.78717 
L 300.893932 69.613571 
L 301.073002 81.391286 
L 301.252072 66.084355 
L 301.789283 73.451314 
L 302.684635 71.502225 
L 302.863706 73.889953 
L 303.042776 58.82572 
L 304.296268 70.507936 
L 304.475339 62.014085 
L 304.833479 67.281908 
L 305.37069 70.759815 
L 305.728831 103.119585 
L 305.907902 69.66144 
L 306.445113 67.630076 
L 307.161394 68.368843 
L 308.235816 68.67129 
L 308.773027 67.178527 
L 308.952097 72.947145 
L 309.131168 111.212462 
L 309.310238 67.575898 
L 309.489309 65.090372 
L 309.847449 71.206403 
L 310.02652 57.933039 
L 310.563731 74.233119 
L 310.742801 74.334848 
L 311.817223 68.474873 
L 312.891645 69.215652 
L 313.249786 64.100546 
L 314.145138 73.139901 
L 315.040489 83.478213 
L 315.21956 62.912709 
L 315.39863 64.893022 
L 316.114911 78.707689 
L 316.831193 76.422861 
L 317.189334 65.785525 
L 317.726545 62.910794 
L 318.800967 67.677352 
L 318.980037 73.53784 
L 319.338178 72.941959 
L 320.949811 69.463924 
L 322.740514 64.094992 
L 324.531218 66.580043 
L 330.261469 65.786171 
L 334.559158 61.119127 
L 334.738228 63.602015 
L 338.319635 66.535516 
L 345.482449 63.897364 
L 347.094082 69.714815 
L 353.898755 65.686014 
L 354.435967 68.871534 
L 357.838303 65.586734 
L 367.149961 62.409551 
L 368.582524 65.287878 
L 373.059283 67.676528 
L 378.073253 64.59742 
L 394.726795 71.157914 
L 397.23378 67.475381 
L 398.487273 64.894109 
L 398.487273 64.894109 
" style="fill:none;stroke:#0000ff;stroke-linecap:square;stroke-width:1.5;"/>
   </g>
   <g id="patch_3">
    <path d="M 57.6 307.584 
L 57.6 41.472 
" style="fill:none;stroke:#000000;stroke-linecap:square;stroke-linejoin:miter;stroke-width:0.8;"/>
   </g>
   <g id="patch_4">
    <path d="M 414.72 307.584 
L 414.72 41.472 
" style="fill:none;stroke:#000000;stroke-linecap:square;stroke-linejoin:miter;stroke-width:0.8;"/>
   </g>
   <g id="patch_5">
    <path d="M 57.6 307.584 
L 414.72 307.584 
" style="fill:none;stroke:#000000;stroke-linecap:square;stroke-linejoin:miter;stroke-width:0.8;"/>
   </g>
   <g id="patch_6">
    <path d="M 57.6 41.472 
L 414.72 41.472 
" style="fill:none;stroke:#000000;stroke-linecap:square;stroke-linejoin:miter;stroke-width:0.8;"/>
   </g>
   <g id="text_20">
    <!-- temperature-&gt;Throughput_night -->
    <g transform="translate(137.975625 35.472)scale(0.12 -0.12)">
     <defs>
      <path d="M 4.890625 31.390625 
L 31.203125 31.390625 
L 31.203125 23.390625 
L 4.890625 23.390625 
z
" id="DejaVuSans-45"/>
      <path d="M 10.59375 49.21875 
L 10.59375 58.109375 
L 73.1875 35.40625 
L 73.1875 27.296875 
L 10.59375 4.59375 
L 10.59375 13.484375 
L 60.890625 31.296875 
z
" id="DejaVuSans-62"/>
     </defs>
     <use xlink:href="#DejaVuSans-116"/>
     <use x="39.208984" xlink:href="#DejaVuSans-101"/>
     <use x="100.732422" xlink:href="#DejaVuSans-109"/>
     <use x="198.144531" xlink:href="#DejaVuSans-112"/>
     <use x="261.621094" xlink:href="#DejaVuSans-101"/>
     <use x="323.144531" xlink:href="#DejaVuSans-114"/>
     <use x="364.257812" xlink:href="#DejaVuSans-97"/>
     <use x="425.537109" xlink:href="#DejaVuSans-116"/>
     <use x="464.746094" xlink:href="#DejaVuSans-117"/>
     <use x="528.125" xlink:href="#DejaVuSans-114"/>
     <use x="566.988281" xlink:href="#DejaVuSans-101"/>
     <use x="628.511719" xlink:href="#DejaVuSans-45"/>
     <use x="664.595703" xlink:href="#DejaVuSans-62"/>
     <use x="748.384766" xlink:href="#DejaVuSans-84"/>
     <use x="809.46875" xlink:href="#DejaVuSans-104"/>
     <use x="872.847656" xlink:href="#DejaVuSans-114"/>
     <use x="911.710938" xlink:href="#DejaVuSans-111"/>
     <use x="972.892578" xlink:href="#DejaVuSans-117"/>
     <use x="1036.271484" xlink:href="#DejaVuSans-103"/>
     <use x="1099.748047" xlink:href="#DejaVuSans-104"/>
     <use x="1163.126953" xlink:href="#DejaVuSans-112"/>
     <use x="1226.603516" xlink:href="#DejaVuSans-117"/>
     <use x="1289.982422" xlink:href="#DejaVuSans-116"/>
     <use x="1329.191406" xlink:href="#DejaVuSans-95"/>
     <use x="1379.191406" xlink:href="#DejaVuSans-110"/>
     <use x="1442.570312" xlink:href="#DejaVuSans-105"/>
     <use x="1470.353516" xlink:href="#DejaVuSans-103"/>
     <use x="1533.830078" xlink:href="#DejaVuSans-104"/>
     <use x="1597.208984" xlink:href="#DejaVuSans-116"/>
    </g>
   </g>
  </g>
  <g id="legend_1">
   <g id="patch_7">
    <path d="M 303.057813 22.95625 
L 453.8 22.95625 
Q 455.8 22.95625 455.8 20.95625 
L 455.8 7 
Q 455.8 5 453.8 5 
L 303.057813 5 
Q 301.057813 5 301.057813 7 
L 301.057813 20.95625 
Q 301.057813 22.95625 303.057813 22.95625 
z
" style="fill:#ffffff;opacity:0.8;stroke:#cccccc;stroke-linejoin:miter;"/>
   </g>
   <g id="line2d_18">
    <path d="M 305.057813 13.098437 
L 325.057813 13.098437 
" style="fill:none;stroke:#0000ff;stroke-linecap:square;stroke-width:1.5;"/>
   </g>
   <g id="line2d_19"/>
   <g id="text_21">
    <!-- Throughput_night[Bit/s] -->
    <g transform="translate(333.057813 16.598437)scale(0.1 -0.1)">
     <use xlink:href="#DejaVuSans-84"/>
     <use x="61.083984" xlink:href="#DejaVuSans-104"/>
     <use x="124.462891" xlink:href="#DejaVuSans-114"/>
     <use x="163.326172" xlink:href="#DejaVuSans-111"/>
     <use x="224.507812" xlink:href="#DejaVuSans-117"/>
     <use x="287.886719" xlink:href="#DejaVuSans-103"/>
     <use x="351.363281" xlink:href="#DejaVuSans-104"/>
     <use x="414.742188" xlink:href="#DejaVuSans-112"/>
     <use x="478.21875" xlink:href="#DejaVuSans-117"/>
     <use x="541.597656" xlink:href="#DejaVuSans-116"/>
     <use x="580.806641" xlink:href="#DejaVuSans-95"/>
     <use x="630.806641" xlink:href="#DejaVuSans-110"/>
     <use x="694.185547" xlink:href="#DejaVuSans-105"/>
     <use x="721.96875" xlink:href="#DejaVuSans-103"/>
     <use x="785.445312" xlink:href="#DejaVuSans-104"/>
     <use x="848.824219" xlink:href="#DejaVuSans-116"/>
     <use x="888.033203" xlink:href="#DejaVuSans-91"/>
     <use x="927.046875" xlink:href="#DejaVuSans-66"/>
     <use x="995.650391" xlink:href="#DejaVuSans-105"/>
     <use x="1023.433594" xlink:href="#DejaVuSans-116"/>
     <use x="1062.642578" xlink:href="#DejaVuSans-47"/>
     <use x="1096.333984" xlink:href="#DejaVuSans-115"/>
     <use x="1148.433594" xlink:href="#DejaVuSans-93"/>
    </g>
   </g>
  </g>
 </g>
 <defs>
  <clipPath id="pbf66569d1c">
   <rect height="266.112" width="357.12" x="57.6" y="41.472"/>
  </clipPath>
 </defs>
</svg>
