<?xml version="1.0" encoding="utf-8" standalone="no"?>
<!DOCTYPE svg PUBLIC "-//W3C//DTD SVG 1.1//EN"
  "http://www.w3.org/Graphics/SVG/1.1/DTD/svg11.dtd">
<!-- Created with matplotlib (https://matplotlib.org/) -->
<svg height="2090.594375pt" version="1.1" viewBox="0 0 2068.621875 2090.594375" width="2068.621875pt" xmlns="http://www.w3.org/2000/svg" xmlns:xlink="http://www.w3.org/1999/xlink">
 <metadata>
  <rdf:RDF xmlns:cc="http://creativecommons.org/ns#" xmlns:dc="http://purl.org/dc/elements/1.1/" xmlns:rdf="http://www.w3.org/1999/02/22-rdf-syntax-ns#">
   <cc:Work>
    <dc:type rdf:resource="http://purl.org/dc/dcmitype/StillImage"/>
    <dc:date>2022-07-24T11:59:14.263570</dc:date>
    <dc:format>image/svg+xml</dc:format>
    <dc:creator>
     <cc:Agent>
      <dc:title>Matplotlib v3.3.2, https://matplotlib.org/</dc:title>
     </cc:Agent>
    </dc:creator>
   </cc:Work>
  </rdf:RDF>
 </metadata>
 <defs>
  <style type="text/css">*{stroke-linecap:butt;stroke-linejoin:round;}</style>
 </defs>
 <g id="figure_1">
  <g id="patch_1">
   <path d="M 0 2090.594375 
L 2068.621875 2090.594375 
L 2068.621875 0 
L 0 0 
z
" style="fill:#ffffff;"/>
  </g>
  <g id="axes_1">
   <g id="patch_2">
    <path d="M 50.421875 2052.76 
L 1836.021875 2052.76 
L 1836.021875 278.68 
L 50.421875 278.68 
z
" style="fill:#ffffff;"/>
   </g>
   <g id="matplotlib.axis_1">
    <g id="xtick_1">
     <g id="line2d_1">
      <defs>
       <path d="M 0 0 
L 0 3.5 
" id="mfccb7a224a" style="stroke:#000000;stroke-width:0.8;"/>
      </defs>
      <g>
       <use style="stroke:#000000;stroke-width:0.8;" x="174.673466" xlink:href="#mfccb7a224a" y="2052.76"/>
      </g>
     </g>
     <g id="text_1">
      <text style="font-family:DejaVu Sans;font-size:10px;font-stretch:normal;font-style:normal;font-weight:normal;text-anchor:middle;" transform="rotate(-0, 174.673466, 2067.358437)" x="174.673466" y="2067.358437">1005.0</text>
     </g>
    </g>
    <g id="xtick_2">
     <g id="line2d_2">
      <g>
       <use style="stroke:#000000;stroke-width:0.8;" x="394.509967" xlink:href="#mfccb7a224a" y="2052.76"/>
      </g>
     </g>
     <g id="text_2">
      <text style="font-family:DejaVu Sans;font-size:10px;font-stretch:normal;font-style:normal;font-weight:normal;text-anchor:middle;" transform="rotate(-0, 394.509967, 2067.358437)" x="394.509967" y="2067.358437">1007.5</text>
     </g>
    </g>
    <g id="xtick_3">
     <g id="line2d_3">
      <g>
       <use style="stroke:#000000;stroke-width:0.8;" x="614.346469" xlink:href="#mfccb7a224a" y="2052.76"/>
      </g>
     </g>
     <g id="text_3">
      <text style="font-family:DejaVu Sans;font-size:10px;font-stretch:normal;font-style:normal;font-weight:normal;text-anchor:middle;" transform="rotate(-0, 614.346469, 2067.358437)" x="614.346469" y="2067.358437">1010.0</text>
     </g>
    </g>
    <g id="xtick_4">
     <g id="line2d_4">
      <g>
       <use style="stroke:#000000;stroke-width:0.8;" x="834.18297" xlink:href="#mfccb7a224a" y="2052.76"/>
      </g>
     </g>
     <g id="text_4">
      <text style="font-family:DejaVu Sans;font-size:10px;font-stretch:normal;font-style:normal;font-weight:normal;text-anchor:middle;" transform="rotate(-0, 834.18297, 2067.358437)" x="834.18297" y="2067.358437">1012.5</text>
     </g>
    </g>
    <g id="xtick_5">
     <g id="line2d_5">
      <g>
       <use style="stroke:#000000;stroke-width:0.8;" x="1054.019472" xlink:href="#mfccb7a224a" y="2052.76"/>
      </g>
     </g>
     <g id="text_5">
      <text style="font-family:DejaVu Sans;font-size:10px;font-stretch:normal;font-style:normal;font-weight:normal;text-anchor:middle;" transform="rotate(-0, 1054.019472, 2067.358437)" x="1054.019472" y="2067.358437">1015.0</text>
     </g>
    </g>
    <g id="xtick_6">
     <g id="line2d_6">
      <g>
       <use style="stroke:#000000;stroke-width:0.8;" x="1273.855973" xlink:href="#mfccb7a224a" y="2052.76"/>
      </g>
     </g>
     <g id="text_6">
      <text style="font-family:DejaVu Sans;font-size:10px;font-stretch:normal;font-style:normal;font-weight:normal;text-anchor:middle;" transform="rotate(-0, 1273.855973, 2067.358437)" x="1273.855973" y="2067.358437">1017.5</text>
     </g>
    </g>
    <g id="xtick_7">
     <g id="line2d_7">
      <g>
       <use style="stroke:#000000;stroke-width:0.8;" x="1493.692475" xlink:href="#mfccb7a224a" y="2052.76"/>
      </g>
     </g>
     <g id="text_7">
      <text style="font-family:DejaVu Sans;font-size:10px;font-stretch:normal;font-style:normal;font-weight:normal;text-anchor:middle;" transform="rotate(-0, 1493.692475, 2067.358437)" x="1493.692475" y="2067.358437">1020.0</text>
     </g>
    </g>
    <g id="xtick_8">
     <g id="line2d_8">
      <g>
       <use style="stroke:#000000;stroke-width:0.8;" x="1713.528976" xlink:href="#mfccb7a224a" y="2052.76"/>
      </g>
     </g>
     <g id="text_8">
      <text style="font-family:DejaVu Sans;font-size:10px;font-stretch:normal;font-style:normal;font-weight:normal;text-anchor:middle;" transform="rotate(-0, 1713.528976, 2067.358437)" x="1713.528976" y="2067.358437">1022.5</text>
     </g>
    </g>
    <g id="text_9">
     <text style="font-family:DejaVu Sans;font-size:10px;font-stretch:normal;font-style:normal;font-weight:normal;text-anchor:middle;" transform="rotate(-0, 943.221875, 2081.036562)" x="943.221875" y="2081.036562">air_pressure from WeatherBitIO</text>
    </g>
   </g>
   <g id="matplotlib.axis_2">
    <g id="ytick_1">
     <g id="line2d_9">
      <defs>
       <path d="M 0 0 
L -3.5 0 
" id="m2d37bbd998" style="stroke:#000000;stroke-width:0.8;"/>
      </defs>
      <g>
       <use style="stroke:#000000;stroke-width:0.8;" x="50.421875" xlink:href="#m2d37bbd998" y="1873.931989"/>
      </g>
     </g>
     <g id="text_10">
      <text style="font-family:DejaVu Sans;font-size:10px;font-stretch:normal;font-style:normal;font-weight:normal;text-anchor:end;" transform="rotate(-0, 43.421875, 1877.731207)" x="43.421875" y="1877.731207">1.10</text>
     </g>
    </g>
    <g id="ytick_2">
     <g id="line2d_10">
      <g>
       <use style="stroke:#000000;stroke-width:0.8;" x="50.421875" xlink:href="#m2d37bbd998" y="1622.819617"/>
      </g>
     </g>
     <g id="text_11">
      <text style="font-family:DejaVu Sans;font-size:10px;font-stretch:normal;font-style:normal;font-weight:normal;text-anchor:end;" transform="rotate(-0, 43.421875, 1626.618835)" x="43.421875" y="1626.618835">1.15</text>
     </g>
    </g>
    <g id="ytick_3">
     <g id="line2d_11">
      <g>
       <use style="stroke:#000000;stroke-width:0.8;" x="50.421875" xlink:href="#m2d37bbd998" y="1371.707245"/>
      </g>
     </g>
     <g id="text_12">
      <text style="font-family:DejaVu Sans;font-size:10px;font-stretch:normal;font-style:normal;font-weight:normal;text-anchor:end;" transform="rotate(-0, 43.421875, 1375.506464)" x="43.421875" y="1375.506464">1.20</text>
     </g>
    </g>
    <g id="ytick_4">
     <g id="line2d_12">
      <g>
       <use style="stroke:#000000;stroke-width:0.8;" x="50.421875" xlink:href="#m2d37bbd998" y="1120.594873"/>
      </g>
     </g>
     <g id="text_13">
      <text style="font-family:DejaVu Sans;font-size:10px;font-stretch:normal;font-style:normal;font-weight:normal;text-anchor:end;" transform="rotate(-0, 43.421875, 1124.394092)" x="43.421875" y="1124.394092">1.25</text>
     </g>
    </g>
    <g id="ytick_5">
     <g id="line2d_13">
      <g>
       <use style="stroke:#000000;stroke-width:0.8;" x="50.421875" xlink:href="#m2d37bbd998" y="869.482501"/>
      </g>
     </g>
     <g id="text_14">
      <text style="font-family:DejaVu Sans;font-size:10px;font-stretch:normal;font-style:normal;font-weight:normal;text-anchor:end;" transform="rotate(-0, 43.421875, 873.28172)" x="43.421875" y="873.28172">1.30</text>
     </g>
    </g>
    <g id="ytick_6">
     <g id="line2d_14">
      <g>
       <use style="stroke:#000000;stroke-width:0.8;" x="50.421875" xlink:href="#m2d37bbd998" y="618.370129"/>
      </g>
     </g>
     <g id="text_15">
      <text style="font-family:DejaVu Sans;font-size:10px;font-stretch:normal;font-style:normal;font-weight:normal;text-anchor:end;" transform="rotate(-0, 43.421875, 622.169348)" x="43.421875" y="622.169348">1.35</text>
     </g>
    </g>
    <g id="ytick_7">
     <g id="line2d_15">
      <g>
       <use style="stroke:#000000;stroke-width:0.8;" x="50.421875" xlink:href="#m2d37bbd998" y="367.257757"/>
      </g>
     </g>
     <g id="text_16">
      <text style="font-family:DejaVu Sans;font-size:10px;font-stretch:normal;font-style:normal;font-weight:normal;text-anchor:end;" transform="rotate(-0, 43.421875, 371.056976)" x="43.421875" y="371.056976">1.40</text>
     </g>
    </g>
    <g id="text_17">
     <text style="font-family:DejaVu Sans;font-size:10px;font-stretch:normal;font-style:normal;font-weight:normal;text-anchor:middle;" transform="rotate(-90, 14.798438, 1165.72)" x="14.798438" y="1165.72">Throughput_night[Bit/s]</text>
    </g>
    <g id="text_18">
     <text style="font-family:DejaVu Sans;font-size:10px;font-stretch:normal;font-style:normal;font-weight:normal;text-anchor:start;" transform="rotate(-0, 50.421875, 275.68)" x="50.421875" y="275.68">1e7</text>
    </g>
   </g>
   <g id="line2d_16">
    <path clip-path="url(#pb974b5f1d4)" d="M 131.585511 495.830965 
L 157.086546 1168.00493 
L 162.362622 935.400093 
L 172.035428 850.979076 
L 197.536462 1537.365096 
L 208.088614 1278.619626 
L 219.520112 629.602421 
L 246.779838 879.78358 
L 257.33199 689.429487 
L 300.419945 711.281817 
L 377.802393 1167.982174 
L 396.268659 655.83835 
L 420.011001 565.755017 
L 421.769693 1273.963952 
L 432.321845 705.487154 
L 465.736994 1359.925771 
L 470.133724 987.556622 
L 492.99672 516.43701 
L 518.497754 1772.868577 
L 522.015138 535.19265 
L 536.084674 958.853713 
L 551.033556 571.523153 
L 551.912902 527.864398 
L 571.258514 574.377332 
L 576.53459 554.041793 
L 578.293282 1057.466395 
L 582.690012 583.201845 
L 587.086743 580.214007 
L 602.914971 619.58139 
L 628.416005 565.84431 
L 649.520309 629.638931 
L 676.780035 526.489989 
L 685.573495 571.441915 
L 694.366955 584.616533 
L 704.039761 1144.565868 
L 711.953875 574.518582 
L 726.023411 789.635863 
L 734.816872 656.06893 
L 1251.872323 644.455796 
L 1252.751669 658.853618 
L 1277.373357 657.355093 
L 1292.322239 606.401894 
L 1303.753738 636.985937 
L 1307.271122 1293.053488 
L 1337.168886 619.547653 
L 1338.927578 459.433168 
L 1342.444962 679.158397 
L 1346.841692 628.191176 
L 1351.238422 1077.856979 
L 1352.997114 510.341196 
L 1354.755806 731.670114 
L 1355.635152 658.836095 
L 1360.911228 626.803105 
L 1361.790574 533.910963 
L 1362.66992 629.601067 
L 1365.307958 1105.448238 
L 1367.945996 644.276149 
L 1368.825342 1607.042627 
L 1371.46338 746.088037 
L 1372.342726 797.056892 
L 1373.222072 629.813596 
L 1374.980764 621.049111 
L 1375.86011 740.259484 
L 1376.739456 1000.661625 
L 1379.377494 535.112837 
L 1382.015532 699.761521 
L 1382.894878 664.641471 
L 1387.291608 663.177293 
L 1389.0503 743.250334 
L 1390.808992 741.752601 
L 1391.688338 572.99247 
L 1395.205722 649.947898 
L 1403.119836 759.246637 
L 1411.913296 1053.050827 
L 1413.671988 804.245779 
L 1416.310026 641.343196 
L 1423.344794 687.879284 
L 1431.258908 629.704626 
L 1432.138254 621.184443 
L 1435.655638 621.058296 
L 1436.534984 597.606867 
L 1441.81106 794.010491 
L 1442.690406 635.625625 
L 1447.966483 689.283693 
L 1448.845829 542.357029 
L 1452.363213 942.421632 
L 1456.759943 991.965081 
L 1457.639289 618.055784 
L 1462.915365 770.730017 
L 1463.794711 859.474944 
L 1467.312095 667.571077 
L 1469.950133 661.645144 
L 1471.708825 629.755059 
L 1476.105555 571.523835 
L 1540.297813 495.98597 
L 1549.970619 533.772178 
L 1555.246695 479.880986 
L 1564.040155 359.32 
L 1570.195577 520.619334 
L 1583.385767 474.074856 
L 1590.420535 510.487398 
L 1600.093342 532.429481 
L 1601.852034 458.193648 
L 1650.216064 491.48217 
L 1665.164946 532.187694 
L 1667.802984 619.597495 
L 1682.751866 1729.409401 
L 1687.148596 660.177614 
L 1696.821402 1367.069037 
L 1706.494208 671.949986 
L 1710.011592 1708.816618 
L 1711.770284 1972.12 
L 1712.64963 1246.422245 
L 1713.528976 830.433155 
L 1718.805052 609.459351 
L 1724.081128 1525.875407 
L 1727.598512 600.677779 
L 1731.995242 586.172893 
L 1733.753934 615.140362 
L 1750.461509 671.911376 
L 1751.340855 597.639176 
L 1754.858239 626.710156 
" style="fill:none;stroke:#0000ff;stroke-linecap:square;stroke-width:1.5;"/>
   </g>
   <g id="patch_3">
    <path d="M 50.421875 2052.76 
L 50.421875 278.68 
" style="fill:none;stroke:#000000;stroke-linecap:square;stroke-linejoin:miter;stroke-width:0.8;"/>
   </g>
   <g id="patch_4">
    <path d="M 1836.021875 2052.76 
L 1836.021875 278.68 
" style="fill:none;stroke:#000000;stroke-linecap:square;stroke-linejoin:miter;stroke-width:0.8;"/>
   </g>
   <g id="patch_5">
    <path d="M 50.421875 2052.76 
L 1836.021875 2052.76 
" style="fill:none;stroke:#000000;stroke-linecap:square;stroke-linejoin:miter;stroke-width:0.8;"/>
   </g>
   <g id="patch_6">
    <path d="M 50.421875 278.68 
L 1836.021875 278.68 
" style="fill:none;stroke:#000000;stroke-linecap:square;stroke-linejoin:miter;stroke-width:0.8;"/>
   </g>
   <g id="text_19">
    <text style="font-family:DejaVu Sans;font-size:12px;font-stretch:normal;font-style:normal;font-weight:normal;text-anchor:middle;" transform="rotate(-0, 943.221875, 272.68)" x="943.221875" y="272.68">air_pressure-&gt;Throughput_night</text>
   </g>
  </g>
  <g id="legend_1">
   <g id="patch_7">
    <path d="M 1910.879687 22.95625 
L 2061.621875 22.95625 
Q 2063.621875 22.95625 2063.621875 20.95625 
L 2063.621875 7 
Q 2063.621875 5 2061.621875 5 
L 1910.879687 5 
Q 1908.879687 5 1908.879687 7 
L 1908.879687 20.95625 
Q 1908.879687 22.95625 1910.879687 22.95625 
z
" style="fill:#ffffff;opacity:0.8;stroke:#cccccc;stroke-linejoin:miter;"/>
   </g>
   <g id="line2d_17">
    <path d="M 1912.879687 13.098438 
L 1932.879687 13.098438 
" style="fill:none;stroke:#0000ff;stroke-linecap:square;stroke-width:1.5;"/>
   </g>
   <g id="line2d_18"/>
   <g id="text_20">
    <text style="font-family:DejaVu Sans;font-size:10px;font-stretch:normal;font-style:normal;font-weight:normal;text-anchor:start;" transform="rotate(-0, 1940.879687, 16.598438)" x="1940.879687" y="16.598438">Throughput_night[Bit/s]</text>
   </g>
  </g>
 </g>
 <defs>
  <clipPath id="pb974b5f1d4">
   <rect height="1774.08" width="1785.6" x="50.421875" y="278.68"/>
  </clipPath>
 </defs>
</svg>
