<?xml version="1.0" encoding="utf-8" standalone="no"?>
<!DOCTYPE svg PUBLIC "-//W3C//DTD SVG 1.1//EN"
  "http://www.w3.org/Graphics/SVG/1.1/DTD/svg11.dtd">
<!-- Created with matplotlib (https://matplotlib.org/) -->
<svg height="2090.31625pt" version="1.1" viewBox="0 0 2062.259375 2090.31625" width="2062.259375pt" xmlns="http://www.w3.org/2000/svg" xmlns:xlink="http://www.w3.org/1999/xlink">
 <metadata>
  <rdf:RDF xmlns:cc="http://creativecommons.org/ns#" xmlns:dc="http://purl.org/dc/elements/1.1/" xmlns:rdf="http://www.w3.org/1999/02/22-rdf-syntax-ns#">
   <cc:Work>
    <dc:type rdf:resource="http://purl.org/dc/dcmitype/StillImage"/>
    <dc:date>2022-07-24T11:39:57.341445</dc:date>
    <dc:format>image/svg+xml</dc:format>
    <dc:creator>
     <cc:Agent>
      <dc:title>Matplotlib v3.3.2, https://matplotlib.org/</dc:title>
     </cc:Agent>
    </dc:creator>
   </cc:Work>
  </rdf:RDF>
 </metadata>
 <defs>
  <style type="text/css">*{stroke-linecap:butt;stroke-linejoin:round;}</style>
 </defs>
 <g id="figure_1">
  <g id="patch_1">
   <path d="M 0 2090.31625 
L 2062.259375 2090.31625 
L 2062.259375 0 
L 0 0 
z
" style="fill:#ffffff;"/>
  </g>
  <g id="axes_1">
   <g id="patch_2">
    <path d="M 44.059375 2052.76 
L 1829.659375 2052.76 
L 1829.659375 278.68 
L 44.059375 278.68 
z
" style="fill:#ffffff;"/>
   </g>
   <g id="matplotlib.axis_1">
    <g id="xtick_1">
     <g id="line2d_1">
      <defs>
       <path d="M 0 0 
L 0 3.5 
" id="m0b061666ed" style="stroke:#000000;stroke-width:0.8;"/>
      </defs>
      <g>
       <use style="stroke:#000000;stroke-width:0.8;" x="202.521713" xlink:href="#m0b061666ed" y="2052.76"/>
      </g>
     </g>
     <g id="text_1">
      <text style="font-family:DejaVu Sans;font-size:10px;font-stretch:normal;font-style:normal;font-weight:normal;text-anchor:middle;" transform="rotate(-0, 202.521713, 2067.358438)" x="202.521713" y="2067.358438">5</text>
     </g>
    </g>
    <g id="xtick_2">
     <g id="line2d_2">
      <g>
       <use style="stroke:#000000;stroke-width:0.8;" x="553.879446" xlink:href="#m0b061666ed" y="2052.76"/>
      </g>
     </g>
     <g id="text_2">
      <text style="font-family:DejaVu Sans;font-size:10px;font-stretch:normal;font-style:normal;font-weight:normal;text-anchor:middle;" transform="rotate(-0, 553.879446, 2067.358438)" x="553.879446" y="2067.358438">10</text>
     </g>
    </g>
    <g id="xtick_3">
     <g id="line2d_3">
      <g>
       <use style="stroke:#000000;stroke-width:0.8;" x="905.237179" xlink:href="#m0b061666ed" y="2052.76"/>
      </g>
     </g>
     <g id="text_3">
      <text style="font-family:DejaVu Sans;font-size:10px;font-stretch:normal;font-style:normal;font-weight:normal;text-anchor:middle;" transform="rotate(-0, 905.237179, 2067.358438)" x="905.237179" y="2067.358438">15</text>
     </g>
    </g>
    <g id="xtick_4">
     <g id="line2d_4">
      <g>
       <use style="stroke:#000000;stroke-width:0.8;" x="1256.594912" xlink:href="#m0b061666ed" y="2052.76"/>
      </g>
     </g>
     <g id="text_4">
      <text style="font-family:DejaVu Sans;font-size:10px;font-stretch:normal;font-style:normal;font-weight:normal;text-anchor:middle;" transform="rotate(-0, 1256.594912, 2067.358438)" x="1256.594912" y="2067.358438">20</text>
     </g>
    </g>
    <g id="xtick_5">
     <g id="line2d_5">
      <g>
       <use style="stroke:#000000;stroke-width:0.8;" x="1607.952645" xlink:href="#m0b061666ed" y="2052.76"/>
      </g>
     </g>
     <g id="text_5">
      <text style="font-family:DejaVu Sans;font-size:10px;font-stretch:normal;font-style:normal;font-weight:normal;text-anchor:middle;" transform="rotate(-0, 1607.952645, 2067.358438)" x="1607.952645" y="2067.358438">25</text>
     </g>
    </g>
    <g id="text_6">
     <text style="font-family:DejaVu Sans;font-size:10px;font-stretch:normal;font-style:normal;font-weight:normal;text-anchor:middle;" transform="rotate(-0, 936.859375, 2081.036562)" x="936.859375" y="2081.036562">temperature from WeatherBitIO</text>
    </g>
   </g>
   <g id="matplotlib.axis_2">
    <g id="ytick_1">
     <g id="line2d_6">
      <defs>
       <path d="M 0 0 
L -3.5 0 
" id="m84d2e0aa91" style="stroke:#000000;stroke-width:0.8;"/>
      </defs>
      <g>
       <use style="stroke:#000000;stroke-width:0.8;" x="44.059375" xlink:href="#m84d2e0aa91" y="1850.569128"/>
      </g>
     </g>
     <g id="text_7">
      <text style="font-family:DejaVu Sans;font-size:10px;font-stretch:normal;font-style:normal;font-weight:normal;text-anchor:end;" transform="rotate(-0, 37.059375, 1854.368346)" x="37.059375" y="1854.368346">4.3</text>
     </g>
    </g>
    <g id="ytick_2">
     <g id="line2d_7">
      <g>
       <use style="stroke:#000000;stroke-width:0.8;" x="44.059375" xlink:href="#m84d2e0aa91" y="1625.47492"/>
      </g>
     </g>
     <g id="text_8">
      <text style="font-family:DejaVu Sans;font-size:10px;font-stretch:normal;font-style:normal;font-weight:normal;text-anchor:end;" transform="rotate(-0, 37.059375, 1629.274138)" x="37.059375" y="1629.274138">4.4</text>
     </g>
    </g>
    <g id="ytick_3">
     <g id="line2d_8">
      <g>
       <use style="stroke:#000000;stroke-width:0.8;" x="44.059375" xlink:href="#m84d2e0aa91" y="1400.380712"/>
      </g>
     </g>
     <g id="text_9">
      <text style="font-family:DejaVu Sans;font-size:10px;font-stretch:normal;font-style:normal;font-weight:normal;text-anchor:end;" transform="rotate(-0, 37.059375, 1404.179931)" x="37.059375" y="1404.179931">4.5</text>
     </g>
    </g>
    <g id="ytick_4">
     <g id="line2d_9">
      <g>
       <use style="stroke:#000000;stroke-width:0.8;" x="44.059375" xlink:href="#m84d2e0aa91" y="1175.286504"/>
      </g>
     </g>
     <g id="text_10">
      <text style="font-family:DejaVu Sans;font-size:10px;font-stretch:normal;font-style:normal;font-weight:normal;text-anchor:end;" transform="rotate(-0, 37.059375, 1179.085723)" x="37.059375" y="1179.085723">4.6</text>
     </g>
    </g>
    <g id="ytick_5">
     <g id="line2d_10">
      <g>
       <use style="stroke:#000000;stroke-width:0.8;" x="44.059375" xlink:href="#m84d2e0aa91" y="950.192296"/>
      </g>
     </g>
     <g id="text_11">
      <text style="font-family:DejaVu Sans;font-size:10px;font-stretch:normal;font-style:normal;font-weight:normal;text-anchor:end;" transform="rotate(-0, 37.059375, 953.991515)" x="37.059375" y="953.991515">4.7</text>
     </g>
    </g>
    <g id="ytick_6">
     <g id="line2d_11">
      <g>
       <use style="stroke:#000000;stroke-width:0.8;" x="44.059375" xlink:href="#m84d2e0aa91" y="725.098088"/>
      </g>
     </g>
     <g id="text_12">
      <text style="font-family:DejaVu Sans;font-size:10px;font-stretch:normal;font-style:normal;font-weight:normal;text-anchor:end;" transform="rotate(-0, 37.059375, 728.897307)" x="37.059375" y="728.897307">4.8</text>
     </g>
    </g>
    <g id="ytick_7">
     <g id="line2d_12">
      <g>
       <use style="stroke:#000000;stroke-width:0.8;" x="44.059375" xlink:href="#m84d2e0aa91" y="500.00388"/>
      </g>
     </g>
     <g id="text_13">
      <text style="font-family:DejaVu Sans;font-size:10px;font-stretch:normal;font-style:normal;font-weight:normal;text-anchor:end;" transform="rotate(-0, 37.059375, 503.803099)" x="37.059375" y="503.803099">4.9</text>
     </g>
    </g>
    <g id="text_14">
     <text style="font-family:DejaVu Sans;font-size:10px;font-stretch:normal;font-style:normal;font-weight:normal;text-anchor:middle;" transform="rotate(-90, 14.798438, 1165.72)" x="14.798438" y="1165.72">ping_day[ms]</text>
    </g>
   </g>
   <g id="line2d_13">
    <path clip-path="url(#p2bb693a021)" d="M 125.223011 1366.616581 
L 160.358785 1569.201368 
L 202.521713 1413.886364 
L 244.684641 1578.205136 
L 279.820414 1497.171221 
L 321.983342 1427.392017 
L 329.010497 1615.34568 
L 357.119115 1341.856218 
L 378.200579 1972.12 
L 392.254889 1609.718325 
L 399.282043 1560.197599 
L 406.309198 1227.058172 
L 434.417817 1562.448542 
L 448.472126 1474.6618 
L 462.526435 1332.852449 
L 469.55359 1173.035562 
L 476.580745 1362.114696 
L 483.607899 656.444355 
L 490.635054 1695.254124 
L 497.662209 1040.229979 
L 511.716518 1390.251472 
L 525.770827 1757.155031 
L 532.797982 1769.535213 
L 546.852291 1726.767313 
L 553.879446 1618.722094 
L 567.933755 1562.448542 
L 574.96091 1328.350565 
L 581.988064 1391.376943 
L 596.042374 1464.532561 
L 610.096683 1490.418395 
L 617.123838 1323.848681 
L 624.150992 1169.659149 
L 631.178147 1472.410858 
L 638.205302 1286.708137 
L 645.232456 1303.590202 
L 652.259611 1546.691947 
L 659.286766 1312.593971 
L 666.31392 1502.798576 
L 673.341075 1474.6618 
L 680.36823 1431.893901 
L 687.395384 1148.275199 
L 694.422539 1620.973036 
L 701.449694 1319.346797 
L 708.476848 1242.814766 
L 715.504003 1530.935352 
L 722.531158 1575.954194 
L 729.558312 1166.282736 
L 736.585467 1266.449658 
L 743.612622 1566.950426 
L 750.639776 1366.616581 
L 757.666931 1469.034445 
L 764.694086 1402.631654 
L 771.72124 1048.108276 
L 778.748395 1176.411975 
L 785.77555 1366.616581 
L 792.802704 1712.13619 
L 799.829859 1301.33926 
L 806.857014 1246.191179 
L 813.884168 1586.083433 
L 820.911323 1398.12977 
L 827.938478 1338.479805 
L 834.965632 1483.665569 
L 841.992787 1204.548751 
L 849.019942 1241.689295 
L 856.047096 1261.947774 
L 863.074251 1323.848681 
L 870.101406 1368.867523 
L 877.12856 1300.213789 
L 884.155715 1188.792156 
L 891.18287 1330.601507 
L 898.210024 1399.255241 
L 905.237179 1382.373175 
L 912.264334 1431.893901 
L 919.291488 1082.997879 
L 926.318643 1125.765778 
L 933.345798 1116.76201 
L 940.372952 1223.681759 
L 947.400107 1355.36187 
L 954.427262 1076.245052 
L 961.454416 1471.285387 
L 968.481571 1761.656916 
L 975.508726 1218.054403 
L 982.53588 1283.331724 
L 989.563035 1429.642959 
L 996.59019 1395.878828 
L 1010.644499 1064.990342 
L 1017.671654 1317.095855 
L 1024.698808 1341.856218 
L 1031.725963 959.196064 
L 1038.753118 1606.341912 
L 1045.780272 1557.946657 
L 1052.807427 1195.544983 
L 1059.834582 1357.612812 
L 1066.861736 1139.271431 
L 1073.888891 1184.290272 
L 1087.9432 1627.725862 
L 1094.970355 1443.148611 
L 1101.99751 1403.757125 
L 1109.024664 1041.35545 
L 1116.051819 1096.503531 
L 1123.078974 860.154613 
L 1130.106128 1197.795925 
L 1137.133283 1389.126001 
L 1144.160438 1323.848681 
L 1158.214747 1313.719442 
L 1165.241902 1123.514836 
L 1179.296211 1268.7006 
L 1186.323366 1342.981689 
L 1193.35052 859.029142 
L 1200.377675 1111.134655 
L 1207.40483 359.32 
L 1214.431984 1369.992994 
L 1221.459139 1290.08455 
L 1228.486294 1114.511068 
L 1235.513448 1328.350565 
L 1242.540603 1274.327955 
L 1256.594912 1310.343029 
L 1263.622067 1517.4297 
L 1270.649222 531.517069 
L 1277.676376 1580.456078 
L 1291.730686 1150.526141 
L 1298.75784 1321.597739 
L 1319.839304 1260.822303 
L 1333.893613 1368.867523 
L 1340.920768 1533.186294 
L 1354.975077 1231.560056 
L 1369.029387 1319.346797 
L 1376.056541 1411.635422 
L 1383.083696 1357.612812 
L 1390.110851 1177.537446 
L 1397.138005 1213.552519 
L 1404.16516 1482.540098 
L 1411.192315 1397.004299 
L 1418.219469 1339.605276 
L 1425.246624 1706.508835 
L 1446.328088 1317.095855 
L 1453.355243 1318.221326 
L 1460.382397 1368.867523 
L 1488.491016 1581.581549 
L 1509.57248 1137.020488 
L 1523.626789 1578.205136 
L 1530.653944 1537.688179 
L 1558.762563 1722.265429 
L 1579.844027 902.922512 
L 1614.9798 1378.996762 
L 1650.115573 1080.746936 
L 1692.278501 1212.427048 
L 1699.305656 1444.274082 
L 1713.359965 1175.286504 
L 1727.414275 1392.502415 
L 1734.441429 1355.36187 
L 1748.495739 1395.878828 
L 1748.495739 1395.878828 
" style="fill:none;stroke:#0000ff;stroke-linecap:square;stroke-width:1.5;"/>
   </g>
   <g id="patch_3">
    <path d="M 44.059375 2052.76 
L 44.059375 278.68 
" style="fill:none;stroke:#000000;stroke-linecap:square;stroke-linejoin:miter;stroke-width:0.8;"/>
   </g>
   <g id="patch_4">
    <path d="M 1829.659375 2052.76 
L 1829.659375 278.68 
" style="fill:none;stroke:#000000;stroke-linecap:square;stroke-linejoin:miter;stroke-width:0.8;"/>
   </g>
   <g id="patch_5">
    <path d="M 44.059375 2052.76 
L 1829.659375 2052.76 
" style="fill:none;stroke:#000000;stroke-linecap:square;stroke-linejoin:miter;stroke-width:0.8;"/>
   </g>
   <g id="patch_6">
    <path d="M 44.059375 278.68 
L 1829.659375 278.68 
" style="fill:none;stroke:#000000;stroke-linecap:square;stroke-linejoin:miter;stroke-width:0.8;"/>
   </g>
   <g id="text_15">
    <text style="font-family:DejaVu Sans;font-size:12px;font-stretch:normal;font-style:normal;font-weight:normal;text-anchor:middle;" transform="rotate(-0, 936.859375, 272.68)" x="936.859375" y="272.68">temperature-&gt;ping_day</text>
   </g>
  </g>
  <g id="legend_1">
   <g id="patch_7">
    <path d="M 1955.298437 22.95625 
L 2055.259375 22.95625 
Q 2057.259375 22.95625 2057.259375 20.95625 
L 2057.259375 7 
Q 2057.259375 5 2055.259375 5 
L 1955.298437 5 
Q 1953.298437 5 1953.298437 7 
L 1953.298437 20.95625 
Q 1953.298437 22.95625 1955.298437 22.95625 
z
" style="fill:#ffffff;opacity:0.8;stroke:#cccccc;stroke-linejoin:miter;"/>
   </g>
   <g id="line2d_14">
    <path d="M 1957.298437 13.098438 
L 1977.298437 13.098438 
" style="fill:none;stroke:#0000ff;stroke-linecap:square;stroke-width:1.5;"/>
   </g>
   <g id="line2d_15"/>
   <g id="text_16">
    <text style="font-family:DejaVu Sans;font-size:10px;font-stretch:normal;font-style:normal;font-weight:normal;text-anchor:start;" transform="rotate(-0, 1985.298437, 16.598438)" x="1985.298437" y="16.598438">ping_day[ms]</text>
   </g>
  </g>
 </g>
 <defs>
  <clipPath id="p2bb693a021">
   <rect height="1774.08" width="1785.6" x="44.059375" y="278.68"/>
  </clipPath>
 </defs>
</svg>
