<?xml version="1.0" encoding="utf-8" standalone="no"?>
<!DOCTYPE svg PUBLIC "-//W3C//DTD SVG 1.1//EN"
  "http://www.w3.org/Graphics/SVG/1.1/DTD/svg11.dtd">
<!-- Created with matplotlib (https://matplotlib.org/) -->
<svg height="2090.31625pt" version="1.1" viewBox="0 0 2052.71875 2090.31625" width="2052.71875pt" xmlns="http://www.w3.org/2000/svg" xmlns:xlink="http://www.w3.org/1999/xlink">
 <metadata>
  <rdf:RDF xmlns:cc="http://creativecommons.org/ns#" xmlns:dc="http://purl.org/dc/elements/1.1/" xmlns:rdf="http://www.w3.org/1999/02/22-rdf-syntax-ns#">
   <cc:Work>
    <dc:type rdf:resource="http://purl.org/dc/dcmitype/StillImage"/>
    <dc:date>2022-07-24T11:43:20.942791</dc:date>
    <dc:format>image/svg+xml</dc:format>
    <dc:creator>
     <cc:Agent>
      <dc:title>Matplotlib v3.3.2, https://matplotlib.org/</dc:title>
     </cc:Agent>
    </dc:creator>
   </cc:Work>
  </rdf:RDF>
 </metadata>
 <defs>
  <style type="text/css">*{stroke-linecap:butt;stroke-linejoin:round;}</style>
 </defs>
 <g id="figure_1">
  <g id="patch_1">
   <path d="M 0 2090.31625 
L 2052.71875 2090.31625 
L 2052.71875 0 
L 0 0 
z
" style="fill:#ffffff;"/>
  </g>
  <g id="axes_1">
   <g id="patch_2">
    <path d="M 34.51875 2052.76 
L 1820.11875 2052.76 
L 1820.11875 278.68 
L 34.51875 278.68 
z
" style="fill:#ffffff;"/>
   </g>
   <g id="matplotlib.axis_1">
    <g id="xtick_1">
     <g id="line2d_1">
      <defs>
       <path d="M 0 0 
L 0 3.5 
" id="m27cd167996" style="stroke:#000000;stroke-width:0.8;"/>
      </defs>
      <g>
       <use style="stroke:#000000;stroke-width:0.8;" x="115.682386" xlink:href="#m27cd167996" y="2052.76"/>
      </g>
     </g>
     <g id="text_1">
      <text style="font-family:DejaVu Sans;font-size:10px;font-stretch:normal;font-style:normal;font-weight:normal;text-anchor:middle;" transform="rotate(-0, 115.682386, 2067.358438)" x="115.682386" y="2067.358438">0.0</text>
     </g>
    </g>
    <g id="xtick_2">
     <g id="line2d_2">
      <g>
       <use style="stroke:#000000;stroke-width:0.8;" x="354.398964" xlink:href="#m27cd167996" y="2052.76"/>
      </g>
     </g>
     <g id="text_2">
      <text style="font-family:DejaVu Sans;font-size:10px;font-stretch:normal;font-style:normal;font-weight:normal;text-anchor:middle;" transform="rotate(-0, 354.398964, 2067.358438)" x="354.398964" y="2067.358438">2.5</text>
     </g>
    </g>
    <g id="xtick_3">
     <g id="line2d_3">
      <g>
       <use style="stroke:#000000;stroke-width:0.8;" x="593.115541" xlink:href="#m27cd167996" y="2052.76"/>
      </g>
     </g>
     <g id="text_3">
      <text style="font-family:DejaVu Sans;font-size:10px;font-stretch:normal;font-style:normal;font-weight:normal;text-anchor:middle;" transform="rotate(-0, 593.115541, 2067.358438)" x="593.115541" y="2067.358438">5.0</text>
     </g>
    </g>
    <g id="xtick_4">
     <g id="line2d_4">
      <g>
       <use style="stroke:#000000;stroke-width:0.8;" x="831.832119" xlink:href="#m27cd167996" y="2052.76"/>
      </g>
     </g>
     <g id="text_4">
      <text style="font-family:DejaVu Sans;font-size:10px;font-stretch:normal;font-style:normal;font-weight:normal;text-anchor:middle;" transform="rotate(-0, 831.832119, 2067.358438)" x="831.832119" y="2067.358438">7.5</text>
     </g>
    </g>
    <g id="xtick_5">
     <g id="line2d_5">
      <g>
       <use style="stroke:#000000;stroke-width:0.8;" x="1070.548697" xlink:href="#m27cd167996" y="2052.76"/>
      </g>
     </g>
     <g id="text_5">
      <text style="font-family:DejaVu Sans;font-size:10px;font-stretch:normal;font-style:normal;font-weight:normal;text-anchor:middle;" transform="rotate(-0, 1070.548697, 2067.358438)" x="1070.548697" y="2067.358438">10.0</text>
     </g>
    </g>
    <g id="xtick_6">
     <g id="line2d_6">
      <g>
       <use style="stroke:#000000;stroke-width:0.8;" x="1309.265274" xlink:href="#m27cd167996" y="2052.76"/>
      </g>
     </g>
     <g id="text_6">
      <text style="font-family:DejaVu Sans;font-size:10px;font-stretch:normal;font-style:normal;font-weight:normal;text-anchor:middle;" transform="rotate(-0, 1309.265274, 2067.358438)" x="1309.265274" y="2067.358438">12.5</text>
     </g>
    </g>
    <g id="xtick_7">
     <g id="line2d_7">
      <g>
       <use style="stroke:#000000;stroke-width:0.8;" x="1547.981852" xlink:href="#m27cd167996" y="2052.76"/>
      </g>
     </g>
     <g id="text_7">
      <text style="font-family:DejaVu Sans;font-size:10px;font-stretch:normal;font-style:normal;font-weight:normal;text-anchor:middle;" transform="rotate(-0, 1547.981852, 2067.358438)" x="1547.981852" y="2067.358438">15.0</text>
     </g>
    </g>
    <g id="xtick_8">
     <g id="line2d_8">
      <g>
       <use style="stroke:#000000;stroke-width:0.8;" x="1786.698429" xlink:href="#m27cd167996" y="2052.76"/>
      </g>
     </g>
     <g id="text_8">
      <text style="font-family:DejaVu Sans;font-size:10px;font-stretch:normal;font-style:normal;font-weight:normal;text-anchor:middle;" transform="rotate(-0, 1786.698429, 2067.358438)" x="1786.698429" y="2067.358438">17.5</text>
     </g>
    </g>
    <g id="text_9">
     <text style="font-family:DejaVu Sans;font-size:10px;font-stretch:normal;font-style:normal;font-weight:normal;text-anchor:middle;" transform="rotate(-0, 927.31875, 2081.036562)" x="927.31875" y="2081.036562">rain from Foreca</text>
    </g>
   </g>
   <g id="matplotlib.axis_2">
    <g id="ytick_1">
     <g id="line2d_9">
      <defs>
       <path d="M 0 0 
L -3.5 0 
" id="m7ecae04c67" style="stroke:#000000;stroke-width:0.8;"/>
      </defs>
      <g>
       <use style="stroke:#000000;stroke-width:0.8;" x="34.51875" xlink:href="#m7ecae04c67" y="1785.029738"/>
      </g>
     </g>
     <g id="text_10">
      <text style="font-family:DejaVu Sans;font-size:10px;font-stretch:normal;font-style:normal;font-weight:normal;text-anchor:end;" transform="rotate(-0, 27.51875, 1788.828956)" x="27.51875" y="1788.828956">4</text>
     </g>
    </g>
    <g id="ytick_2">
     <g id="line2d_10">
      <g>
       <use style="stroke:#000000;stroke-width:0.8;" x="34.51875" xlink:href="#m7ecae04c67" y="1511.905267"/>
      </g>
     </g>
     <g id="text_11">
      <text style="font-family:DejaVu Sans;font-size:10px;font-stretch:normal;font-style:normal;font-weight:normal;text-anchor:end;" transform="rotate(-0, 27.51875, 1515.704485)" x="27.51875" y="1515.704485">5</text>
     </g>
    </g>
    <g id="ytick_3">
     <g id="line2d_11">
      <g>
       <use style="stroke:#000000;stroke-width:0.8;" x="34.51875" xlink:href="#m7ecae04c67" y="1238.780796"/>
      </g>
     </g>
     <g id="text_12">
      <text style="font-family:DejaVu Sans;font-size:10px;font-stretch:normal;font-style:normal;font-weight:normal;text-anchor:end;" transform="rotate(-0, 27.51875, 1242.580015)" x="27.51875" y="1242.580015">6</text>
     </g>
    </g>
    <g id="ytick_4">
     <g id="line2d_12">
      <g>
       <use style="stroke:#000000;stroke-width:0.8;" x="34.51875" xlink:href="#m7ecae04c67" y="965.656325"/>
      </g>
     </g>
     <g id="text_13">
      <text style="font-family:DejaVu Sans;font-size:10px;font-stretch:normal;font-style:normal;font-weight:normal;text-anchor:end;" transform="rotate(-0, 27.51875, 969.455544)" x="27.51875" y="969.455544">7</text>
     </g>
    </g>
    <g id="ytick_5">
     <g id="line2d_13">
      <g>
       <use style="stroke:#000000;stroke-width:0.8;" x="34.51875" xlink:href="#m7ecae04c67" y="692.531854"/>
      </g>
     </g>
     <g id="text_14">
      <text style="font-family:DejaVu Sans;font-size:10px;font-stretch:normal;font-style:normal;font-weight:normal;text-anchor:end;" transform="rotate(-0, 27.51875, 696.331073)" x="27.51875" y="696.331073">8</text>
     </g>
    </g>
    <g id="ytick_6">
     <g id="line2d_14">
      <g>
       <use style="stroke:#000000;stroke-width:0.8;" x="34.51875" xlink:href="#m7ecae04c67" y="419.407384"/>
      </g>
     </g>
     <g id="text_15">
      <text style="font-family:DejaVu Sans;font-size:10px;font-stretch:normal;font-style:normal;font-weight:normal;text-anchor:end;" transform="rotate(-0, 27.51875, 423.206602)" x="27.51875" y="423.206602">9</text>
     </g>
    </g>
    <g id="text_16">
     <text style="font-family:DejaVu Sans;font-size:10px;font-stretch:normal;font-style:normal;font-weight:normal;text-anchor:middle;" transform="rotate(-90, 14.798438, 1165.72)" x="14.798438" y="1165.72">ping_day[ms]</text>
    </g>
   </g>
   <g id="line2d_15">
    <path clip-path="url(#pec42a9fc71)" d="M 115.682386 1972.12 
L 116.637253 1851.945233 
L 117.592119 1776.01663 
L 118.546985 1851.125859 
L 119.501852 1733.136088 
L 120.456718 1953.001287 
L 121.411584 1707.735512 
L 122.366451 1869.152075 
L 124.276183 1747.611685 
L 125.231049 1843.751499 
L 126.185916 1909.574496 
L 127.140782 1834.738391 
L 128.095648 1746.792312 
L 129.050515 1806.879695 
L 130.005381 1796.227841 
L 130.960247 1751.435428 
L 131.915114 1787.760982 
L 132.86998 1732.316715 
L 133.824846 1730.677968 
L 134.779713 1740.510449 
L 135.734579 1742.149196 
L 136.689445 1647.10188 
L 137.644311 1695.444911 
L 138.599178 1749.523556 
L 139.554044 1704.731143 
L 140.50891 1696.264285 
L 141.463777 1769.461643 
L 142.418643 1711.013006 
L 143.373509 1694.898662 
L 144.328376 1732.316715 
L 145.283242 1564.61829 
L 146.238108 1805.514073 
L 147.192975 1755.25917 
L 148.147841 1650.652498 
L 149.102707 1651.744996 
L 150.057574 1705.823641 
L 151.01244 1770.554141 
L 151.967306 1724.122981 
L 152.922172 1801.417206 
L 153.877039 1623.8863 
L 155.786771 1794.042845 
L 156.741638 1798.139712 
L 157.696504 1742.695445 
L 158.65137 1698.995529 
L 159.606237 1689.436173 
L 160.561103 1620.608806 
L 161.515969 1645.736257 
L 162.470836 1715.109873 
L 163.425702 1723.030483 
L 164.380568 1716.475495 
L 165.335434 1668.678713 
L 166.290301 1776.836003 
L 167.245167 1663.216224 
L 168.200033 1739.417951 
L 169.1549 1617.604437 
L 171.064632 1763.999153 
L 172.019499 1664.035597 
L 172.974365 1630.168163 
L 173.929231 1747.884809 
L 174.884098 1682.608061 
L 175.838964 1582.098256 
L 176.79383 1731.224217 
L 177.748697 1733.682337 
L 178.703563 1634.538154 
L 179.658429 1672.77558 
L 180.613295 1757.990415 
L 183.477894 1649.013751 
L 184.432761 1715.656122 
L 186.342493 1628.256291 
L 187.29736 1625.525047 
L 188.252226 1690.528671 
L 189.207092 1765.091651 
L 190.161959 1537.032718 
L 192.071691 1680.969314 
L 193.026557 1831.187773 
L 193.981424 1589.472616 
L 194.93629 1653.929992 
L 195.891156 1610.503201 
L 196.846023 1706.36989 
L 197.800889 1667.586215 
L 198.755755 1666.220593 
L 199.710622 1558.609551 
L 201.620354 1618.970059 
L 202.575221 1656.661236 
L 203.530087 1587.014496 
L 205.43982 1762.360406 
L 206.394686 1636.72315 
L 208.304418 1524.742117 
L 211.169017 1658.573108 
L 213.07875 1657.48061 
L 214.033616 1743.787942 
L 215.943349 1826.817782 
L 216.898215 1718.660491 
L 219.762814 1824.359661 
L 221.672547 1673.321829 
L 222.627413 1749.523556 
L 225.492012 1579.91326 
L 226.446878 1717.021744 
L 229.311477 1661.304352 
L 234.085809 1621.155055 
L 235.040675 1650.106249 
L 242.679606 1740.237324 
L 245.544205 1453.45663 
L 257.0026 1651.471871 
L 258.912333 1711.559255 
L 260.822066 1615.419441 
L 261.776932 1700.634276 
L 263.686664 1650.379373 
L 266.551263 1599.031973 
L 272.280461 1647.10188 
L 273.235328 1582.644505 
L 274.190194 1668.951837 
L 277.054793 1796.227841 
L 281.829124 1623.613175 
L 282.783991 1524.742117 
L 284.693723 1662.123726 
L 314.294579 1771.10039 
L 320.023777 1659.392481 
L 352.489231 1485.685318 
L 402.142279 1545.772701 
L 459.434258 1612.141948 
L 482.351049 1628.529416 
L 702.925167 1612.141948 
L 713.428697 1665.674344 
L 749.713616 1665.128095 
L 1738.955114 359.32 
L 1738.955114 359.32 
" style="fill:none;stroke:#0000ff;stroke-linecap:square;stroke-width:1.5;"/>
   </g>
   <g id="patch_3">
    <path d="M 34.51875 2052.76 
L 34.51875 278.68 
" style="fill:none;stroke:#000000;stroke-linecap:square;stroke-linejoin:miter;stroke-width:0.8;"/>
   </g>
   <g id="patch_4">
    <path d="M 1820.11875 2052.76 
L 1820.11875 278.68 
" style="fill:none;stroke:#000000;stroke-linecap:square;stroke-linejoin:miter;stroke-width:0.8;"/>
   </g>
   <g id="patch_5">
    <path d="M 34.51875 2052.76 
L 1820.11875 2052.76 
" style="fill:none;stroke:#000000;stroke-linecap:square;stroke-linejoin:miter;stroke-width:0.8;"/>
   </g>
   <g id="patch_6">
    <path d="M 34.51875 278.68 
L 1820.11875 278.68 
" style="fill:none;stroke:#000000;stroke-linecap:square;stroke-linejoin:miter;stroke-width:0.8;"/>
   </g>
   <g id="text_17">
    <text style="font-family:DejaVu Sans;font-size:12px;font-stretch:normal;font-style:normal;font-weight:normal;text-anchor:middle;" transform="rotate(-0, 927.31875, 272.68)" x="927.31875" y="272.68">rain-&gt;ping_day</text>
   </g>
  </g>
  <g id="legend_1">
   <g id="patch_7">
    <path d="M 1945.757812 22.95625 
L 2045.71875 22.95625 
Q 2047.71875 22.95625 2047.71875 20.95625 
L 2047.71875 7 
Q 2047.71875 5 2045.71875 5 
L 1945.757812 5 
Q 1943.757812 5 1943.757812 7 
L 1943.757812 20.95625 
Q 1943.757812 22.95625 1945.757812 22.95625 
z
" style="fill:#ffffff;opacity:0.8;stroke:#cccccc;stroke-linejoin:miter;"/>
   </g>
   <g id="line2d_16">
    <path d="M 1947.757812 13.098438 
L 1967.757812 13.098438 
" style="fill:none;stroke:#0000ff;stroke-linecap:square;stroke-width:1.5;"/>
   </g>
   <g id="line2d_17"/>
   <g id="text_18">
    <text style="font-family:DejaVu Sans;font-size:10px;font-stretch:normal;font-style:normal;font-weight:normal;text-anchor:start;" transform="rotate(-0, 1975.757812, 16.598438)" x="1975.757812" y="16.598438">ping_day[ms]</text>
   </g>
  </g>
 </g>
 <defs>
  <clipPath id="pec42a9fc71">
   <rect height="1774.08" width="1785.6" x="34.51875" y="278.68"/>
  </clipPath>
 </defs>
</svg>
