<?xml version="1.0" encoding="utf-8" standalone="no"?>
<!DOCTYPE svg PUBLIC "-//W3C//DTD SVG 1.1//EN"
  "http://www.w3.org/Graphics/SVG/1.1/DTD/svg11.dtd">
<!-- Created with matplotlib (https://matplotlib.org/) -->
<svg height="345.6pt" version="1.1" viewBox="0 0 460.8 345.6" width="460.8pt" xmlns="http://www.w3.org/2000/svg" xmlns:xlink="http://www.w3.org/1999/xlink">
 <metadata>
  <rdf:RDF xmlns:cc="http://creativecommons.org/ns#" xmlns:dc="http://purl.org/dc/elements/1.1/" xmlns:rdf="http://www.w3.org/1999/02/22-rdf-syntax-ns#">
   <cc:Work>
    <dc:type rdf:resource="http://purl.org/dc/dcmitype/StillImage"/>
    <dc:date>2022-07-20T23:09:35.870569</dc:date>
    <dc:format>image/svg+xml</dc:format>
    <dc:creator>
     <cc:Agent>
      <dc:title>Matplotlib v3.3.2, https://matplotlib.org/</dc:title>
     </cc:Agent>
    </dc:creator>
   </cc:Work>
  </rdf:RDF>
 </metadata>
 <defs>
  <style type="text/css">*{stroke-linecap:butt;stroke-linejoin:round;}</style>
 </defs>
 <g id="figure_1">
  <g id="patch_1">
   <path d="M 0 345.6 
L 460.8 345.6 
L 460.8 0 
L 0 0 
z
" style="fill:#ffffff;"/>
  </g>
  <g id="axes_1">
   <g id="patch_2">
    <path d="M 57.6 307.584 
L 414.72 307.584 
L 414.72 41.472 
L 57.6 41.472 
z
" style="fill:#ffffff;"/>
   </g>
   <g id="matplotlib.axis_1">
    <g id="xtick_1">
     <g id="line2d_1">
      <defs>
       <path d="M 0 0 
L 0 3.5 
" id="m809dc0a419" style="stroke:#000000;stroke-width:0.8;"/>
      </defs>
      <g>
       <use style="stroke:#000000;stroke-width:0.8;" x="66.462732" xlink:href="#m809dc0a419" y="307.584"/>
      </g>
     </g>
     <g id="text_1">
      <!-- 5 -->
      <g transform="translate(63.281482 322.182437)scale(0.1 -0.1)">
       <defs>
        <path d="M 10.796875 72.90625 
L 49.515625 72.90625 
L 49.515625 64.59375 
L 19.828125 64.59375 
L 19.828125 46.734375 
Q 21.96875 47.46875 24.109375 47.828125 
Q 26.265625 48.1875 28.421875 48.1875 
Q 40.625 48.1875 47.75 41.5 
Q 54.890625 34.8125 54.890625 23.390625 
Q 54.890625 11.625 47.5625 5.09375 
Q 40.234375 -1.421875 26.90625 -1.421875 
Q 22.3125 -1.421875 17.546875 -0.640625 
Q 12.796875 0.140625 7.71875 1.703125 
L 7.71875 11.625 
Q 12.109375 9.234375 16.796875 8.0625 
Q 21.484375 6.890625 26.703125 6.890625 
Q 35.15625 6.890625 40.078125 11.328125 
Q 45.015625 15.765625 45.015625 23.390625 
Q 45.015625 31 40.078125 35.4375 
Q 35.15625 39.890625 26.703125 39.890625 
Q 22.75 39.890625 18.8125 39.015625 
Q 14.890625 38.140625 10.796875 36.28125 
z
" id="DejaVuSans-53"/>
       </defs>
       <use xlink:href="#DejaVuSans-53"/>
      </g>
     </g>
    </g>
    <g id="xtick_2">
     <g id="line2d_2">
      <g>
       <use style="stroke:#000000;stroke-width:0.8;" x="128.92032" xlink:href="#m809dc0a419" y="307.584"/>
      </g>
     </g>
     <g id="text_2">
      <!-- 10 -->
      <g transform="translate(122.55782 322.182437)scale(0.1 -0.1)">
       <defs>
        <path d="M 12.40625 8.296875 
L 28.515625 8.296875 
L 28.515625 63.921875 
L 10.984375 60.40625 
L 10.984375 69.390625 
L 28.421875 72.90625 
L 38.28125 72.90625 
L 38.28125 8.296875 
L 54.390625 8.296875 
L 54.390625 0 
L 12.40625 0 
z
" id="DejaVuSans-49"/>
        <path d="M 31.78125 66.40625 
Q 24.171875 66.40625 20.328125 58.90625 
Q 16.5 51.421875 16.5 36.375 
Q 16.5 21.390625 20.328125 13.890625 
Q 24.171875 6.390625 31.78125 6.390625 
Q 39.453125 6.390625 43.28125 13.890625 
Q 47.125 21.390625 47.125 36.375 
Q 47.125 51.421875 43.28125 58.90625 
Q 39.453125 66.40625 31.78125 66.40625 
z
M 31.78125 74.21875 
Q 44.046875 74.21875 50.515625 64.515625 
Q 56.984375 54.828125 56.984375 36.375 
Q 56.984375 17.96875 50.515625 8.265625 
Q 44.046875 -1.421875 31.78125 -1.421875 
Q 19.53125 -1.421875 13.0625 8.265625 
Q 6.59375 17.96875 6.59375 36.375 
Q 6.59375 54.828125 13.0625 64.515625 
Q 19.53125 74.21875 31.78125 74.21875 
z
" id="DejaVuSans-48"/>
       </defs>
       <use xlink:href="#DejaVuSans-49"/>
       <use x="63.623047" xlink:href="#DejaVuSans-48"/>
      </g>
     </g>
    </g>
    <g id="xtick_3">
     <g id="line2d_3">
      <g>
       <use style="stroke:#000000;stroke-width:0.8;" x="191.377909" xlink:href="#m809dc0a419" y="307.584"/>
      </g>
     </g>
     <g id="text_3">
      <!-- 15 -->
      <g transform="translate(185.015409 322.182437)scale(0.1 -0.1)">
       <use xlink:href="#DejaVuSans-49"/>
       <use x="63.623047" xlink:href="#DejaVuSans-53"/>
      </g>
     </g>
    </g>
    <g id="xtick_4">
     <g id="line2d_4">
      <g>
       <use style="stroke:#000000;stroke-width:0.8;" x="253.835498" xlink:href="#m809dc0a419" y="307.584"/>
      </g>
     </g>
     <g id="text_4">
      <!-- 20 -->
      <g transform="translate(247.472998 322.182437)scale(0.1 -0.1)">
       <defs>
        <path d="M 19.1875 8.296875 
L 53.609375 8.296875 
L 53.609375 0 
L 7.328125 0 
L 7.328125 8.296875 
Q 12.9375 14.109375 22.625 23.890625 
Q 32.328125 33.6875 34.8125 36.53125 
Q 39.546875 41.84375 41.421875 45.53125 
Q 43.3125 49.21875 43.3125 52.78125 
Q 43.3125 58.59375 39.234375 62.25 
Q 35.15625 65.921875 28.609375 65.921875 
Q 23.96875 65.921875 18.8125 64.3125 
Q 13.671875 62.703125 7.8125 59.421875 
L 7.8125 69.390625 
Q 13.765625 71.78125 18.9375 73 
Q 24.125 74.21875 28.421875 74.21875 
Q 39.75 74.21875 46.484375 68.546875 
Q 53.21875 62.890625 53.21875 53.421875 
Q 53.21875 48.921875 51.53125 44.890625 
Q 49.859375 40.875 45.40625 35.40625 
Q 44.1875 33.984375 37.640625 27.21875 
Q 31.109375 20.453125 19.1875 8.296875 
z
" id="DejaVuSans-50"/>
       </defs>
       <use xlink:href="#DejaVuSans-50"/>
       <use x="63.623047" xlink:href="#DejaVuSans-48"/>
      </g>
     </g>
    </g>
    <g id="xtick_5">
     <g id="line2d_5">
      <g>
       <use style="stroke:#000000;stroke-width:0.8;" x="316.293086" xlink:href="#m809dc0a419" y="307.584"/>
      </g>
     </g>
     <g id="text_5">
      <!-- 25 -->
      <g transform="translate(309.930586 322.182437)scale(0.1 -0.1)">
       <use xlink:href="#DejaVuSans-50"/>
       <use x="63.623047" xlink:href="#DejaVuSans-53"/>
      </g>
     </g>
    </g>
    <g id="xtick_6">
     <g id="line2d_6">
      <g>
       <use style="stroke:#000000;stroke-width:0.8;" x="378.750675" xlink:href="#m809dc0a419" y="307.584"/>
      </g>
     </g>
     <g id="text_6">
      <!-- 30 -->
      <g transform="translate(372.388175 322.182437)scale(0.1 -0.1)">
       <defs>
        <path d="M 40.578125 39.3125 
Q 47.65625 37.796875 51.625 33 
Q 55.609375 28.21875 55.609375 21.1875 
Q 55.609375 10.40625 48.1875 4.484375 
Q 40.765625 -1.421875 27.09375 -1.421875 
Q 22.515625 -1.421875 17.65625 -0.515625 
Q 12.796875 0.390625 7.625 2.203125 
L 7.625 11.71875 
Q 11.71875 9.328125 16.59375 8.109375 
Q 21.484375 6.890625 26.8125 6.890625 
Q 36.078125 6.890625 40.9375 10.546875 
Q 45.796875 14.203125 45.796875 21.1875 
Q 45.796875 27.640625 41.28125 31.265625 
Q 36.765625 34.90625 28.71875 34.90625 
L 20.21875 34.90625 
L 20.21875 43.015625 
L 29.109375 43.015625 
Q 36.375 43.015625 40.234375 45.921875 
Q 44.09375 48.828125 44.09375 54.296875 
Q 44.09375 59.90625 40.109375 62.90625 
Q 36.140625 65.921875 28.71875 65.921875 
Q 24.65625 65.921875 20.015625 65.03125 
Q 15.375 64.15625 9.8125 62.3125 
L 9.8125 71.09375 
Q 15.4375 72.65625 20.34375 73.4375 
Q 25.25 74.21875 29.59375 74.21875 
Q 40.828125 74.21875 47.359375 69.109375 
Q 53.90625 64.015625 53.90625 55.328125 
Q 53.90625 49.265625 50.4375 45.09375 
Q 46.96875 40.921875 40.578125 39.3125 
z
" id="DejaVuSans-51"/>
       </defs>
       <use xlink:href="#DejaVuSans-51"/>
       <use x="63.623047" xlink:href="#DejaVuSans-48"/>
      </g>
     </g>
    </g>
    <g id="text_7">
     <!-- temperature from OpenWeatherMap -->
     <g transform="translate(144.963906 335.860562)scale(0.1 -0.1)">
      <defs>
       <path d="M 18.3125 70.21875 
L 18.3125 54.6875 
L 36.8125 54.6875 
L 36.8125 47.703125 
L 18.3125 47.703125 
L 18.3125 18.015625 
Q 18.3125 11.328125 20.140625 9.421875 
Q 21.96875 7.515625 27.59375 7.515625 
L 36.8125 7.515625 
L 36.8125 0 
L 27.59375 0 
Q 17.1875 0 13.234375 3.875 
Q 9.28125 7.765625 9.28125 18.015625 
L 9.28125 47.703125 
L 2.6875 47.703125 
L 2.6875 54.6875 
L 9.28125 54.6875 
L 9.28125 70.21875 
z
" id="DejaVuSans-116"/>
       <path d="M 56.203125 29.59375 
L 56.203125 25.203125 
L 14.890625 25.203125 
Q 15.484375 15.921875 20.484375 11.0625 
Q 25.484375 6.203125 34.421875 6.203125 
Q 39.59375 6.203125 44.453125 7.46875 
Q 49.3125 8.734375 54.109375 11.28125 
L 54.109375 2.78125 
Q 49.265625 0.734375 44.1875 -0.34375 
Q 39.109375 -1.421875 33.890625 -1.421875 
Q 20.796875 -1.421875 13.15625 6.1875 
Q 5.515625 13.8125 5.515625 26.8125 
Q 5.515625 40.234375 12.765625 48.109375 
Q 20.015625 56 32.328125 56 
Q 43.359375 56 49.78125 48.890625 
Q 56.203125 41.796875 56.203125 29.59375 
z
M 47.21875 32.234375 
Q 47.125 39.59375 43.09375 43.984375 
Q 39.0625 48.390625 32.421875 48.390625 
Q 24.90625 48.390625 20.390625 44.140625 
Q 15.875 39.890625 15.1875 32.171875 
z
" id="DejaVuSans-101"/>
       <path d="M 52 44.1875 
Q 55.375 50.25 60.0625 53.125 
Q 64.75 56 71.09375 56 
Q 79.640625 56 84.28125 50.015625 
Q 88.921875 44.046875 88.921875 33.015625 
L 88.921875 0 
L 79.890625 0 
L 79.890625 32.71875 
Q 79.890625 40.578125 77.09375 44.375 
Q 74.3125 48.1875 68.609375 48.1875 
Q 61.625 48.1875 57.5625 43.546875 
Q 53.515625 38.921875 53.515625 30.90625 
L 53.515625 0 
L 44.484375 0 
L 44.484375 32.71875 
Q 44.484375 40.625 41.703125 44.40625 
Q 38.921875 48.1875 33.109375 48.1875 
Q 26.21875 48.1875 22.15625 43.53125 
Q 18.109375 38.875 18.109375 30.90625 
L 18.109375 0 
L 9.078125 0 
L 9.078125 54.6875 
L 18.109375 54.6875 
L 18.109375 46.1875 
Q 21.1875 51.21875 25.484375 53.609375 
Q 29.78125 56 35.6875 56 
Q 41.65625 56 45.828125 52.96875 
Q 50 49.953125 52 44.1875 
z
" id="DejaVuSans-109"/>
       <path d="M 18.109375 8.203125 
L 18.109375 -20.796875 
L 9.078125 -20.796875 
L 9.078125 54.6875 
L 18.109375 54.6875 
L 18.109375 46.390625 
Q 20.953125 51.265625 25.265625 53.625 
Q 29.59375 56 35.59375 56 
Q 45.5625 56 51.78125 48.09375 
Q 58.015625 40.1875 58.015625 27.296875 
Q 58.015625 14.40625 51.78125 6.484375 
Q 45.5625 -1.421875 35.59375 -1.421875 
Q 29.59375 -1.421875 25.265625 0.953125 
Q 20.953125 3.328125 18.109375 8.203125 
z
M 48.6875 27.296875 
Q 48.6875 37.203125 44.609375 42.84375 
Q 40.53125 48.484375 33.40625 48.484375 
Q 26.265625 48.484375 22.1875 42.84375 
Q 18.109375 37.203125 18.109375 27.296875 
Q 18.109375 17.390625 22.1875 11.75 
Q 26.265625 6.109375 33.40625 6.109375 
Q 40.53125 6.109375 44.609375 11.75 
Q 48.6875 17.390625 48.6875 27.296875 
z
" id="DejaVuSans-112"/>
       <path d="M 41.109375 46.296875 
Q 39.59375 47.171875 37.8125 47.578125 
Q 36.03125 48 33.890625 48 
Q 26.265625 48 22.1875 43.046875 
Q 18.109375 38.09375 18.109375 28.8125 
L 18.109375 0 
L 9.078125 0 
L 9.078125 54.6875 
L 18.109375 54.6875 
L 18.109375 46.1875 
Q 20.953125 51.171875 25.484375 53.578125 
Q 30.03125 56 36.53125 56 
Q 37.453125 56 38.578125 55.875 
Q 39.703125 55.765625 41.0625 55.515625 
z
" id="DejaVuSans-114"/>
       <path d="M 34.28125 27.484375 
Q 23.390625 27.484375 19.1875 25 
Q 14.984375 22.515625 14.984375 16.5 
Q 14.984375 11.71875 18.140625 8.90625 
Q 21.296875 6.109375 26.703125 6.109375 
Q 34.1875 6.109375 38.703125 11.40625 
Q 43.21875 16.703125 43.21875 25.484375 
L 43.21875 27.484375 
z
M 52.203125 31.203125 
L 52.203125 0 
L 43.21875 0 
L 43.21875 8.296875 
Q 40.140625 3.328125 35.546875 0.953125 
Q 30.953125 -1.421875 24.3125 -1.421875 
Q 15.921875 -1.421875 10.953125 3.296875 
Q 6 8.015625 6 15.921875 
Q 6 25.140625 12.171875 29.828125 
Q 18.359375 34.515625 30.609375 34.515625 
L 43.21875 34.515625 
L 43.21875 35.40625 
Q 43.21875 41.609375 39.140625 45 
Q 35.0625 48.390625 27.6875 48.390625 
Q 23 48.390625 18.546875 47.265625 
Q 14.109375 46.140625 10.015625 43.890625 
L 10.015625 52.203125 
Q 14.9375 54.109375 19.578125 55.046875 
Q 24.21875 56 28.609375 56 
Q 40.484375 56 46.34375 49.84375 
Q 52.203125 43.703125 52.203125 31.203125 
z
" id="DejaVuSans-97"/>
       <path d="M 8.5 21.578125 
L 8.5 54.6875 
L 17.484375 54.6875 
L 17.484375 21.921875 
Q 17.484375 14.15625 20.5 10.265625 
Q 23.53125 6.390625 29.59375 6.390625 
Q 36.859375 6.390625 41.078125 11.03125 
Q 45.3125 15.671875 45.3125 23.6875 
L 45.3125 54.6875 
L 54.296875 54.6875 
L 54.296875 0 
L 45.3125 0 
L 45.3125 8.40625 
Q 42.046875 3.421875 37.71875 1 
Q 33.40625 -1.421875 27.6875 -1.421875 
Q 18.265625 -1.421875 13.375 4.4375 
Q 8.5 10.296875 8.5 21.578125 
z
M 31.109375 56 
z
" id="DejaVuSans-117"/>
       <path id="DejaVuSans-32"/>
       <path d="M 37.109375 75.984375 
L 37.109375 68.5 
L 28.515625 68.5 
Q 23.6875 68.5 21.796875 66.546875 
Q 19.921875 64.59375 19.921875 59.515625 
L 19.921875 54.6875 
L 34.71875 54.6875 
L 34.71875 47.703125 
L 19.921875 47.703125 
L 19.921875 0 
L 10.890625 0 
L 10.890625 47.703125 
L 2.296875 47.703125 
L 2.296875 54.6875 
L 10.890625 54.6875 
L 10.890625 58.5 
Q 10.890625 67.625 15.140625 71.796875 
Q 19.390625 75.984375 28.609375 75.984375 
z
" id="DejaVuSans-102"/>
       <path d="M 30.609375 48.390625 
Q 23.390625 48.390625 19.1875 42.75 
Q 14.984375 37.109375 14.984375 27.296875 
Q 14.984375 17.484375 19.15625 11.84375 
Q 23.34375 6.203125 30.609375 6.203125 
Q 37.796875 6.203125 41.984375 11.859375 
Q 46.1875 17.53125 46.1875 27.296875 
Q 46.1875 37.015625 41.984375 42.703125 
Q 37.796875 48.390625 30.609375 48.390625 
z
M 30.609375 56 
Q 42.328125 56 49.015625 48.375 
Q 55.71875 40.765625 55.71875 27.296875 
Q 55.71875 13.875 49.015625 6.21875 
Q 42.328125 -1.421875 30.609375 -1.421875 
Q 18.84375 -1.421875 12.171875 6.21875 
Q 5.515625 13.875 5.515625 27.296875 
Q 5.515625 40.765625 12.171875 48.375 
Q 18.84375 56 30.609375 56 
z
" id="DejaVuSans-111"/>
       <path d="M 39.40625 66.21875 
Q 28.65625 66.21875 22.328125 58.203125 
Q 16.015625 50.203125 16.015625 36.375 
Q 16.015625 22.609375 22.328125 14.59375 
Q 28.65625 6.59375 39.40625 6.59375 
Q 50.140625 6.59375 56.421875 14.59375 
Q 62.703125 22.609375 62.703125 36.375 
Q 62.703125 50.203125 56.421875 58.203125 
Q 50.140625 66.21875 39.40625 66.21875 
z
M 39.40625 74.21875 
Q 54.734375 74.21875 63.90625 63.9375 
Q 73.09375 53.65625 73.09375 36.375 
Q 73.09375 19.140625 63.90625 8.859375 
Q 54.734375 -1.421875 39.40625 -1.421875 
Q 24.03125 -1.421875 14.8125 8.828125 
Q 5.609375 19.09375 5.609375 36.375 
Q 5.609375 53.65625 14.8125 63.9375 
Q 24.03125 74.21875 39.40625 74.21875 
z
" id="DejaVuSans-79"/>
       <path d="M 54.890625 33.015625 
L 54.890625 0 
L 45.90625 0 
L 45.90625 32.71875 
Q 45.90625 40.484375 42.875 44.328125 
Q 39.84375 48.1875 33.796875 48.1875 
Q 26.515625 48.1875 22.3125 43.546875 
Q 18.109375 38.921875 18.109375 30.90625 
L 18.109375 0 
L 9.078125 0 
L 9.078125 54.6875 
L 18.109375 54.6875 
L 18.109375 46.1875 
Q 21.34375 51.125 25.703125 53.5625 
Q 30.078125 56 35.796875 56 
Q 45.21875 56 50.046875 50.171875 
Q 54.890625 44.34375 54.890625 33.015625 
z
" id="DejaVuSans-110"/>
       <path d="M 3.328125 72.90625 
L 13.28125 72.90625 
L 28.609375 11.28125 
L 43.890625 72.90625 
L 54.984375 72.90625 
L 70.3125 11.28125 
L 85.59375 72.90625 
L 95.609375 72.90625 
L 77.296875 0 
L 64.890625 0 
L 49.515625 63.28125 
L 33.984375 0 
L 21.578125 0 
z
" id="DejaVuSans-87"/>
       <path d="M 54.890625 33.015625 
L 54.890625 0 
L 45.90625 0 
L 45.90625 32.71875 
Q 45.90625 40.484375 42.875 44.328125 
Q 39.84375 48.1875 33.796875 48.1875 
Q 26.515625 48.1875 22.3125 43.546875 
Q 18.109375 38.921875 18.109375 30.90625 
L 18.109375 0 
L 9.078125 0 
L 9.078125 75.984375 
L 18.109375 75.984375 
L 18.109375 46.1875 
Q 21.34375 51.125 25.703125 53.5625 
Q 30.078125 56 35.796875 56 
Q 45.21875 56 50.046875 50.171875 
Q 54.890625 44.34375 54.890625 33.015625 
z
" id="DejaVuSans-104"/>
       <path d="M 9.8125 72.90625 
L 24.515625 72.90625 
L 43.109375 23.296875 
L 61.8125 72.90625 
L 76.515625 72.90625 
L 76.515625 0 
L 66.890625 0 
L 66.890625 64.015625 
L 48.09375 14.015625 
L 38.1875 14.015625 
L 19.390625 64.015625 
L 19.390625 0 
L 9.8125 0 
z
" id="DejaVuSans-77"/>
      </defs>
      <use xlink:href="#DejaVuSans-116"/>
      <use x="39.208984" xlink:href="#DejaVuSans-101"/>
      <use x="100.732422" xlink:href="#DejaVuSans-109"/>
      <use x="198.144531" xlink:href="#DejaVuSans-112"/>
      <use x="261.621094" xlink:href="#DejaVuSans-101"/>
      <use x="323.144531" xlink:href="#DejaVuSans-114"/>
      <use x="364.257812" xlink:href="#DejaVuSans-97"/>
      <use x="425.537109" xlink:href="#DejaVuSans-116"/>
      <use x="464.746094" xlink:href="#DejaVuSans-117"/>
      <use x="528.125" xlink:href="#DejaVuSans-114"/>
      <use x="566.988281" xlink:href="#DejaVuSans-101"/>
      <use x="628.511719" xlink:href="#DejaVuSans-32"/>
      <use x="660.298828" xlink:href="#DejaVuSans-102"/>
      <use x="695.503906" xlink:href="#DejaVuSans-114"/>
      <use x="734.367188" xlink:href="#DejaVuSans-111"/>
      <use x="795.548828" xlink:href="#DejaVuSans-109"/>
      <use x="892.960938" xlink:href="#DejaVuSans-32"/>
      <use x="924.748047" xlink:href="#DejaVuSans-79"/>
      <use x="1003.458984" xlink:href="#DejaVuSans-112"/>
      <use x="1066.935547" xlink:href="#DejaVuSans-101"/>
      <use x="1128.458984" xlink:href="#DejaVuSans-110"/>
      <use x="1191.837891" xlink:href="#DejaVuSans-87"/>
      <use x="1284.839844" xlink:href="#DejaVuSans-101"/>
      <use x="1346.363281" xlink:href="#DejaVuSans-97"/>
      <use x="1407.642578" xlink:href="#DejaVuSans-116"/>
      <use x="1446.851562" xlink:href="#DejaVuSans-104"/>
      <use x="1510.230469" xlink:href="#DejaVuSans-101"/>
      <use x="1571.753906" xlink:href="#DejaVuSans-114"/>
      <use x="1612.867188" xlink:href="#DejaVuSans-77"/>
      <use x="1699.146484" xlink:href="#DejaVuSans-97"/>
      <use x="1760.425781" xlink:href="#DejaVuSans-112"/>
     </g>
    </g>
   </g>
   <g id="matplotlib.axis_2">
    <g id="ytick_1">
     <g id="line2d_7">
      <defs>
       <path d="M 0 0 
L -3.5 0 
" id="m61e18c02ba" style="stroke:#000000;stroke-width:0.8;"/>
      </defs>
      <g>
       <use style="stroke:#000000;stroke-width:0.8;" x="57.6" xlink:href="#m61e18c02ba" y="303.834497"/>
      </g>
     </g>
     <g id="text_8">
      <!-- 3.25 -->
      <g transform="translate(28.334375 307.633716)scale(0.1 -0.1)">
       <defs>
        <path d="M 10.6875 12.40625 
L 21 12.40625 
L 21 0 
L 10.6875 0 
z
" id="DejaVuSans-46"/>
       </defs>
       <use xlink:href="#DejaVuSans-51"/>
       <use x="63.623047" xlink:href="#DejaVuSans-46"/>
       <use x="95.410156" xlink:href="#DejaVuSans-50"/>
       <use x="159.033203" xlink:href="#DejaVuSans-53"/>
      </g>
     </g>
    </g>
    <g id="ytick_2">
     <g id="line2d_8">
      <g>
       <use style="stroke:#000000;stroke-width:0.8;" x="57.6" xlink:href="#m61e18c02ba" y="271.732586"/>
      </g>
     </g>
     <g id="text_9">
      <!-- 3.50 -->
      <g transform="translate(28.334375 275.531805)scale(0.1 -0.1)">
       <use xlink:href="#DejaVuSans-51"/>
       <use x="63.623047" xlink:href="#DejaVuSans-46"/>
       <use x="95.410156" xlink:href="#DejaVuSans-53"/>
       <use x="159.033203" xlink:href="#DejaVuSans-48"/>
      </g>
     </g>
    </g>
    <g id="ytick_3">
     <g id="line2d_9">
      <g>
       <use style="stroke:#000000;stroke-width:0.8;" x="57.6" xlink:href="#m61e18c02ba" y="239.630675"/>
      </g>
     </g>
     <g id="text_10">
      <!-- 3.75 -->
      <g transform="translate(28.334375 243.429894)scale(0.1 -0.1)">
       <defs>
        <path d="M 8.203125 72.90625 
L 55.078125 72.90625 
L 55.078125 68.703125 
L 28.609375 0 
L 18.3125 0 
L 43.21875 64.59375 
L 8.203125 64.59375 
z
" id="DejaVuSans-55"/>
       </defs>
       <use xlink:href="#DejaVuSans-51"/>
       <use x="63.623047" xlink:href="#DejaVuSans-46"/>
       <use x="95.410156" xlink:href="#DejaVuSans-55"/>
       <use x="159.033203" xlink:href="#DejaVuSans-53"/>
      </g>
     </g>
    </g>
    <g id="ytick_4">
     <g id="line2d_10">
      <g>
       <use style="stroke:#000000;stroke-width:0.8;" x="57.6" xlink:href="#m61e18c02ba" y="207.528764"/>
      </g>
     </g>
     <g id="text_11">
      <!-- 4.00 -->
      <g transform="translate(28.334375 211.327983)scale(0.1 -0.1)">
       <defs>
        <path d="M 37.796875 64.3125 
L 12.890625 25.390625 
L 37.796875 25.390625 
z
M 35.203125 72.90625 
L 47.609375 72.90625 
L 47.609375 25.390625 
L 58.015625 25.390625 
L 58.015625 17.1875 
L 47.609375 17.1875 
L 47.609375 0 
L 37.796875 0 
L 37.796875 17.1875 
L 4.890625 17.1875 
L 4.890625 26.703125 
z
" id="DejaVuSans-52"/>
       </defs>
       <use xlink:href="#DejaVuSans-52"/>
       <use x="63.623047" xlink:href="#DejaVuSans-46"/>
       <use x="95.410156" xlink:href="#DejaVuSans-48"/>
       <use x="159.033203" xlink:href="#DejaVuSans-48"/>
      </g>
     </g>
    </g>
    <g id="ytick_5">
     <g id="line2d_11">
      <g>
       <use style="stroke:#000000;stroke-width:0.8;" x="57.6" xlink:href="#m61e18c02ba" y="175.426854"/>
      </g>
     </g>
     <g id="text_12">
      <!-- 4.25 -->
      <g transform="translate(28.334375 179.226072)scale(0.1 -0.1)">
       <use xlink:href="#DejaVuSans-52"/>
       <use x="63.623047" xlink:href="#DejaVuSans-46"/>
       <use x="95.410156" xlink:href="#DejaVuSans-50"/>
       <use x="159.033203" xlink:href="#DejaVuSans-53"/>
      </g>
     </g>
    </g>
    <g id="ytick_6">
     <g id="line2d_12">
      <g>
       <use style="stroke:#000000;stroke-width:0.8;" x="57.6" xlink:href="#m61e18c02ba" y="143.324943"/>
      </g>
     </g>
     <g id="text_13">
      <!-- 4.50 -->
      <g transform="translate(28.334375 147.124161)scale(0.1 -0.1)">
       <use xlink:href="#DejaVuSans-52"/>
       <use x="63.623047" xlink:href="#DejaVuSans-46"/>
       <use x="95.410156" xlink:href="#DejaVuSans-53"/>
       <use x="159.033203" xlink:href="#DejaVuSans-48"/>
      </g>
     </g>
    </g>
    <g id="ytick_7">
     <g id="line2d_13">
      <g>
       <use style="stroke:#000000;stroke-width:0.8;" x="57.6" xlink:href="#m61e18c02ba" y="111.223032"/>
      </g>
     </g>
     <g id="text_14">
      <!-- 4.75 -->
      <g transform="translate(28.334375 115.022251)scale(0.1 -0.1)">
       <use xlink:href="#DejaVuSans-52"/>
       <use x="63.623047" xlink:href="#DejaVuSans-46"/>
       <use x="95.410156" xlink:href="#DejaVuSans-55"/>
       <use x="159.033203" xlink:href="#DejaVuSans-53"/>
      </g>
     </g>
    </g>
    <g id="ytick_8">
     <g id="line2d_14">
      <g>
       <use style="stroke:#000000;stroke-width:0.8;" x="57.6" xlink:href="#m61e18c02ba" y="79.121121"/>
      </g>
     </g>
     <g id="text_15">
      <!-- 5.00 -->
      <g transform="translate(28.334375 82.92034)scale(0.1 -0.1)">
       <use xlink:href="#DejaVuSans-53"/>
       <use x="63.623047" xlink:href="#DejaVuSans-46"/>
       <use x="95.410156" xlink:href="#DejaVuSans-48"/>
       <use x="159.033203" xlink:href="#DejaVuSans-48"/>
      </g>
     </g>
    </g>
    <g id="ytick_9">
     <g id="line2d_15">
      <g>
       <use style="stroke:#000000;stroke-width:0.8;" x="57.6" xlink:href="#m61e18c02ba" y="47.01921"/>
      </g>
     </g>
     <g id="text_16">
      <!-- 5.25 -->
      <g transform="translate(28.334375 50.818429)scale(0.1 -0.1)">
       <use xlink:href="#DejaVuSans-53"/>
       <use x="63.623047" xlink:href="#DejaVuSans-46"/>
       <use x="95.410156" xlink:href="#DejaVuSans-50"/>
       <use x="159.033203" xlink:href="#DejaVuSans-53"/>
      </g>
     </g>
    </g>
    <g id="text_17">
     <!-- ping_day[ms] -->
     <g transform="translate(21.976562 208.508469)rotate(-90)scale(0.1 -0.1)">
      <defs>
       <path d="M 9.421875 54.6875 
L 18.40625 54.6875 
L 18.40625 0 
L 9.421875 0 
z
M 9.421875 75.984375 
L 18.40625 75.984375 
L 18.40625 64.59375 
L 9.421875 64.59375 
z
" id="DejaVuSans-105"/>
       <path d="M 45.40625 27.984375 
Q 45.40625 37.75 41.375 43.109375 
Q 37.359375 48.484375 30.078125 48.484375 
Q 22.859375 48.484375 18.828125 43.109375 
Q 14.796875 37.75 14.796875 27.984375 
Q 14.796875 18.265625 18.828125 12.890625 
Q 22.859375 7.515625 30.078125 7.515625 
Q 37.359375 7.515625 41.375 12.890625 
Q 45.40625 18.265625 45.40625 27.984375 
z
M 54.390625 6.78125 
Q 54.390625 -7.171875 48.1875 -13.984375 
Q 42 -20.796875 29.203125 -20.796875 
Q 24.46875 -20.796875 20.265625 -20.09375 
Q 16.0625 -19.390625 12.109375 -17.921875 
L 12.109375 -9.1875 
Q 16.0625 -11.328125 19.921875 -12.34375 
Q 23.78125 -13.375 27.78125 -13.375 
Q 36.625 -13.375 41.015625 -8.765625 
Q 45.40625 -4.15625 45.40625 5.171875 
L 45.40625 9.625 
Q 42.625 4.78125 38.28125 2.390625 
Q 33.9375 0 27.875 0 
Q 17.828125 0 11.671875 7.65625 
Q 5.515625 15.328125 5.515625 27.984375 
Q 5.515625 40.671875 11.671875 48.328125 
Q 17.828125 56 27.875 56 
Q 33.9375 56 38.28125 53.609375 
Q 42.625 51.21875 45.40625 46.390625 
L 45.40625 54.6875 
L 54.390625 54.6875 
z
" id="DejaVuSans-103"/>
       <path d="M 50.984375 -16.609375 
L 50.984375 -23.578125 
L -0.984375 -23.578125 
L -0.984375 -16.609375 
z
" id="DejaVuSans-95"/>
       <path d="M 45.40625 46.390625 
L 45.40625 75.984375 
L 54.390625 75.984375 
L 54.390625 0 
L 45.40625 0 
L 45.40625 8.203125 
Q 42.578125 3.328125 38.25 0.953125 
Q 33.9375 -1.421875 27.875 -1.421875 
Q 17.96875 -1.421875 11.734375 6.484375 
Q 5.515625 14.40625 5.515625 27.296875 
Q 5.515625 40.1875 11.734375 48.09375 
Q 17.96875 56 27.875 56 
Q 33.9375 56 38.25 53.625 
Q 42.578125 51.265625 45.40625 46.390625 
z
M 14.796875 27.296875 
Q 14.796875 17.390625 18.875 11.75 
Q 22.953125 6.109375 30.078125 6.109375 
Q 37.203125 6.109375 41.296875 11.75 
Q 45.40625 17.390625 45.40625 27.296875 
Q 45.40625 37.203125 41.296875 42.84375 
Q 37.203125 48.484375 30.078125 48.484375 
Q 22.953125 48.484375 18.875 42.84375 
Q 14.796875 37.203125 14.796875 27.296875 
z
" id="DejaVuSans-100"/>
       <path d="M 32.171875 -5.078125 
Q 28.375 -14.84375 24.75 -17.8125 
Q 21.140625 -20.796875 15.09375 -20.796875 
L 7.90625 -20.796875 
L 7.90625 -13.28125 
L 13.1875 -13.28125 
Q 16.890625 -13.28125 18.9375 -11.515625 
Q 21 -9.765625 23.484375 -3.21875 
L 25.09375 0.875 
L 2.984375 54.6875 
L 12.5 54.6875 
L 29.59375 11.921875 
L 46.6875 54.6875 
L 56.203125 54.6875 
z
" id="DejaVuSans-121"/>
       <path d="M 8.59375 75.984375 
L 29.296875 75.984375 
L 29.296875 69 
L 17.578125 69 
L 17.578125 -6.203125 
L 29.296875 -6.203125 
L 29.296875 -13.1875 
L 8.59375 -13.1875 
z
" id="DejaVuSans-91"/>
       <path d="M 44.28125 53.078125 
L 44.28125 44.578125 
Q 40.484375 46.53125 36.375 47.5 
Q 32.28125 48.484375 27.875 48.484375 
Q 21.1875 48.484375 17.84375 46.4375 
Q 14.5 44.390625 14.5 40.28125 
Q 14.5 37.15625 16.890625 35.375 
Q 19.28125 33.59375 26.515625 31.984375 
L 29.59375 31.296875 
Q 39.15625 29.25 43.1875 25.515625 
Q 47.21875 21.78125 47.21875 15.09375 
Q 47.21875 7.46875 41.1875 3.015625 
Q 35.15625 -1.421875 24.609375 -1.421875 
Q 20.21875 -1.421875 15.453125 -0.5625 
Q 10.6875 0.296875 5.421875 2 
L 5.421875 11.28125 
Q 10.40625 8.6875 15.234375 7.390625 
Q 20.0625 6.109375 24.8125 6.109375 
Q 31.15625 6.109375 34.5625 8.28125 
Q 37.984375 10.453125 37.984375 14.40625 
Q 37.984375 18.0625 35.515625 20.015625 
Q 33.0625 21.96875 24.703125 23.78125 
L 21.578125 24.515625 
Q 13.234375 26.265625 9.515625 29.90625 
Q 5.8125 33.546875 5.8125 39.890625 
Q 5.8125 47.609375 11.28125 51.796875 
Q 16.75 56 26.8125 56 
Q 31.78125 56 36.171875 55.265625 
Q 40.578125 54.546875 44.28125 53.078125 
z
" id="DejaVuSans-115"/>
       <path d="M 30.421875 75.984375 
L 30.421875 -13.1875 
L 9.71875 -13.1875 
L 9.71875 -6.203125 
L 21.390625 -6.203125 
L 21.390625 69 
L 9.71875 69 
L 9.71875 75.984375 
z
" id="DejaVuSans-93"/>
      </defs>
      <use xlink:href="#DejaVuSans-112"/>
      <use x="63.476562" xlink:href="#DejaVuSans-105"/>
      <use x="91.259766" xlink:href="#DejaVuSans-110"/>
      <use x="154.638672" xlink:href="#DejaVuSans-103"/>
      <use x="218.115234" xlink:href="#DejaVuSans-95"/>
      <use x="268.115234" xlink:href="#DejaVuSans-100"/>
      <use x="331.591797" xlink:href="#DejaVuSans-97"/>
      <use x="392.871094" xlink:href="#DejaVuSans-121"/>
      <use x="452.050781" xlink:href="#DejaVuSans-91"/>
      <use x="491.064453" xlink:href="#DejaVuSans-109"/>
      <use x="588.476562" xlink:href="#DejaVuSans-115"/>
      <use x="640.576172" xlink:href="#DejaVuSans-93"/>
     </g>
    </g>
   </g>
   <g id="line2d_16">
    <path clip-path="url(#p66e35a09f2)" d="M 73.832727 165.667873 
L 74.207473 150.00214 
L 74.582218 144.223796 
L 76.705776 158.091822 
L 77.830013 219.599083 
L 78.204758 160.91679 
L 78.329674 205.859465 
L 78.454589 154.753223 
L 79.20408 149.48851 
L 79.328995 179.792713 
L 89.82187 179.535898 
L 89.946785 168.878064 
L 90.696276 173.372331 
L 90.821191 196.742522 
L 91.320852 170.804178 
L 91.820513 166.309911 
L 94.068986 201.878828 
L 94.443732 166.951949 
L 94.943392 208.941248 
L 95.443053 190.450548 
L 95.692883 155.138446 
L 96.192544 150.900994 
L 97.191865 135.877299 
L 98.316102 83.872204 
L 99.065593 179.664306 
L 100.43966 160.403159 
L 100.939321 139.472713 
L 101.314066 159.761121 
L 101.563897 187.753987 
L 103.687455 159.504306 
L 104.436946 139.08749 
L 104.686776 166.309911 
L 104.936606 157.321376 
L 105.686097 217.159338 
L 107.060164 175.812076 
L 107.18508 107.113987 
L 107.43491 203.548127 
L 107.68474 218.700229 
L 107.809655 166.181503 
L 108.059486 150.644178 
L 108.559147 168.236025 
L 109.058807 201.365197 
L 109.308638 189.166471 
L 109.558468 147.30558 
L 110.058129 170.547363 
L 110.183044 159.24749 
L 110.682705 174.913223 
L 110.80762 159.504306 
L 111.557111 94.273223 
L 111.806941 167.208764 
L 111.931856 141.398828 
L 112.181687 156.936153 
L 112.431517 181.975643 
L 112.806263 141.142013 
L 113.056093 176.325707 
L 113.305923 185.314242 
L 113.430838 224.478573 
L 113.555754 186.983541 
L 114.67999 164.255389 
L 115.429481 162.457682 
L 115.554396 198.668637 
L 115.679312 152.441885 
L 115.804227 161.815643 
L 116.553718 184.158573 
L 116.928463 175.426854 
L 117.178294 166.438318 
L 117.303209 157.064561 
L 118.677276 206.629911 
L 118.802191 181.333605 
L 119.052021 158.220229 
L 119.801512 130.612586 
L 119.926428 170.675771 
L 120.426088 179.022268 
L 121.050664 161.558828 
L 121.42541 181.07679 
L 121.92507 213.178701 
L 122.049986 193.660739 
L 122.299816 140.75679 
L 122.424731 130.997809 
L 122.674562 157.449783 
L 122.924392 154.239592 
L 123.049307 143.324943 
L 123.299137 153.982777 
L 123.424053 223.066089 
L 123.673883 166.309911 
L 124.048628 160.531567 
L 124.423374 213.692331 
L 124.79812 194.045962 
L 124.923035 169.391694 
L 125.422695 193.532331 
L 125.547611 137.418191 
L 126.422017 165.79628 
L 126.671847 133.694369 
L 127.171508 218.828637 
L 127.421338 158.091822 
L 127.546253 177.352968 
L 127.920999 183.002904 
L 128.295745 184.415389 
L 128.42066 141.655643 
L 128.67049 176.582522 
L 128.795405 160.146344 
L 129.295066 211.766217 
L 129.419981 169.776917 
L 129.544896 182.360866 
L 129.669811 181.847236 
L 129.919642 139.344306 
L 130.419303 181.205197 
L 130.544218 152.698701 
L 131.293709 166.309911 
L 131.418624 163.09972 
L 131.543539 167.593987 
L 131.668454 186.726726 
L 131.793369 133.052331 
L 132.0432 197.512968 
L 132.168115 202.007236 
L 132.542861 98.382268 
L 132.792691 168.236025 
L 132.917606 169.520102 
L 133.167436 160.146344 
L 133.292352 217.159338 
L 133.542182 157.321376 
L 133.667097 168.236025 
L 133.916927 147.048764 
L 134.041843 172.34507 
L 134.416588 151.543032 
L 134.541503 181.462013 
L 134.791334 198.283414 
L 134.916249 187.62558 
L 135.041164 127.017172 
L 135.41591 195.715261 
L 135.66574 140.75679 
L 135.790655 189.80851 
L 136.040486 149.103287 
L 136.415231 175.555261 
L 136.789977 177.995006 
L 137.039807 172.987108 
L 137.664383 150.130548 
L 137.789298 139.601121 
L 137.914213 174.913223 
L 138.039128 152.570293 
L 138.164044 153.083924 
L 138.413874 158.73386 
L 138.788619 177.995006 
L 139.03845 97.226599 
L 139.413195 172.987108 
L 139.53811 176.839338 
L 139.663026 136.904561 
L 139.787941 137.161376 
L 140.037771 196.485707 
L 140.162686 171.831439 
L 140.287602 186.855134 
L 140.412517 165.539465 
L 140.537432 198.925452 
L 140.787262 162.714497 
L 141.037093 177.096153 
L 141.286923 175.683669 
L 141.536753 143.966981 
L 141.911499 167.593987 
L 142.036414 233.723924 
L 142.41116 139.08749 
L 142.536075 164.255389 
L 143.035735 197.641376 
L 143.160651 157.449783 
L 143.285566 209.326471 
L 143.410481 120.725197 
L 143.660311 200.594752 
L 143.785226 150.900994 
L 144.035057 190.578955 
L 144.284887 162.714497 
L 144.659633 189.680102 
L 144.909463 162.457682 
L 145.159293 195.715261 
L 145.284209 166.695134 
L 145.783869 178.251822 
L 145.908784 166.309911 
L 146.408445 173.243924 
L 146.53336 116.487745 
L 146.658276 232.953478 
L 146.783191 187.111949 
L 146.908106 184.415389 
L 147.033021 235.136408 
L 147.157936 134.978446 
L 147.282851 222.424051 
L 147.407767 213.178701 
L 147.532682 149.873732 
L 147.657597 192.376662 
L 147.782512 144.095389 
L 148.032343 175.170038 
L 148.157258 163.484943 
L 148.407088 203.93335 
L 148.532003 167.46558 
L 148.656918 170.418955 
L 148.906749 230.898955 
L 149.031664 149.873732 
L 149.156579 152.570293 
L 149.281494 98.895898 
L 149.406409 197.769783 
L 149.781155 147.048764 
L 149.90607 167.080357 
L 150.030985 165.79628 
L 150.280816 134.721631 
L 150.405731 165.79628 
L 150.530646 126.503541 
L 150.655561 132.923924 
L 150.905392 186.213096 
L 151.030307 129.84214 
L 151.155222 133.052331 
L 151.529967 182.104051 
L 151.654883 185.185834 
L 151.779798 169.64851 
L 151.904713 128.686471 
L 152.029628 202.264051 
L 152.154543 160.146344 
L 152.279459 158.605452 
L 152.529289 191.863032 
L 152.654204 191.092586 
L 152.779119 199.824306 
L 152.904034 182.104051 
L 153.02895 127.916025 
L 153.153865 189.166471 
L 153.27878 175.940484 
L 153.403695 148.974879 
L 153.52861 210.096917 
L 153.653525 140.114752 
L 153.778441 148.974879 
L 154.153186 212.279847 
L 154.278101 150.900994 
L 154.652847 196.228892 
L 154.902677 161.173605 
L 155.152508 205.731057 
L 155.402338 126.503541 
L 155.652168 198.026599 
L 155.777083 165.154242 
L 156.026914 155.780484 
L 156.151829 143.196535 
L 156.276744 147.562395 
L 156.526575 196.614115 
L 156.776405 177.224561 
L 156.90132 145.251057 
L 157.276066 183.131312 
L 157.525896 165.924688 
L 157.650811 163.228127 
L 157.900642 148.718064 
L 158.025557 170.675771 
L 158.150472 169.776917 
L 158.400302 217.544561 
L 158.525217 188.13921 
L 158.650133 187.62558 
L 158.775048 166.438318 
L 158.899963 165.924688 
L 159.024878 199.439083 
L 159.274708 150.900994 
L 159.399624 169.520102 
L 159.524539 170.547363 
L 159.649454 193.147108 
L 159.774369 185.314242 
L 159.899284 133.437554 
L 160.0242 161.687236 
L 160.149115 238.988637 
L 160.398945 208.556025 
L 160.648775 114.690038 
L 161.148436 210.48214 
L 161.398266 113.534369 
L 161.523182 203.034497 
L 161.648097 178.251822 
L 162.022842 186.598318 
L 162.272673 169.905325 
L 162.522503 105.444688 
L 162.647418 177.609783 
L 162.772333 159.375898 
L 162.897249 225.505834 
L 163.022164 163.228127 
L 163.271994 188.524433 
L 163.396909 234.237554 
L 163.521824 201.23679 
L 163.64674 212.793478 
L 163.771655 145.764688 
L 163.89657 142.554497 
L 164.1464 193.660739 
L 164.271316 177.224561 
L 164.396231 114.818446 
L 164.521146 185.571057 
L 164.646061 192.761885 
L 164.895891 153.340739 
L 165.020807 188.13921 
L 165.145722 176.967745 
L 165.270637 108.269656 
L 165.520467 127.273987 
L 165.770298 228.587618 
L 165.895213 164.512204 
L 166.020128 179.792713 
L 166.394874 112.250293 
L 166.519789 168.621248 
L 166.769619 159.504306 
L 166.894534 171.703032 
L 167.019449 149.103287 
L 167.144365 161.173605 
L 167.26928 100.43679 
L 167.394195 182.746089 
L 167.644025 208.427618 
L 167.768941 188.13921 
L 167.893856 205.60265 
L 168.018771 199.824306 
L 168.143686 200.723159 
L 168.393516 153.469146 
L 168.518432 152.570293 
L 168.643347 161.558828 
L 168.893177 147.947618 
L 169.143007 162.329274 
L 169.267923 94.786854 
L 169.392838 175.812076 
L 169.517753 144.095389 
L 169.642668 167.46558 
L 169.767583 215.490038 
L 170.017414 190.193732 
L 170.142329 218.186599 
L 170.267244 156.679338 
L 170.517074 187.497172 
L 170.64199 183.901758 
L 170.766905 187.753987 
L 171.016735 200.466344 
L 171.14165 188.010803 
L 171.266565 222.424051 
L 171.391481 153.982777 
L 171.516396 168.878064 
L 171.891141 187.111949 
L 172.016057 124.192204 
L 172.515717 214.976408 
L 172.640632 149.873732 
L 172.890463 181.975643 
L 173.015378 136.262522 
L 173.140293 211.124178 
L 173.265208 196.742522 
L 173.390123 139.601121 
L 173.515039 196.614115 
L 173.639954 201.75042 
L 173.764869 200.081121 
L 173.889784 124.063796 
L 174.014699 156.165707 
L 174.139615 223.964943 
L 174.51436 148.076025 
L 174.639275 186.213096 
L 174.76419 126.503541 
L 175.014021 212.921885 
L 175.138936 184.929019 
L 175.263851 209.711694 
L 175.388766 185.699465 
L 175.638597 193.917554 
L 175.763512 128.686471 
L 175.888427 211.766217 
L 176.138257 162.200866 
L 176.263173 184.415389 
L 176.388088 186.341503 
L 176.513003 169.776917 
L 176.637918 215.104815 
L 176.762833 178.380229 
L 176.887748 181.205197 
L 177.012664 177.224561 
L 177.262494 147.048764 
L 177.387409 194.559592 
L 177.637239 154.368 
L 177.762155 286.499465 
L 178.1369 155.266854 
L 178.511646 189.166471 
L 178.636561 187.882395 
L 178.761476 204.446981 
L 178.886391 157.835006 
L 179.011306 166.823541 
L 179.261137 213.178701 
L 179.386052 152.313478 
L 179.635882 206.758318 
L 179.885713 174.784815 
L 180.135543 206.373096 
L 180.260458 152.441885 
L 180.385373 150.900994 
L 180.510289 172.216662 
L 180.635204 116.616153 
L 180.760119 197.256153 
L 181.009949 177.738191 
L 181.134864 190.065325 
L 181.25978 213.692331 
L 181.384695 180.948382 
L 181.50961 178.123414 
L 181.634525 193.532331 
L 181.75944 121.238828 
L 181.884356 223.964943 
L 182.009271 197.769783 
L 182.259101 194.816408 
L 182.384016 178.765452 
L 182.508931 228.45921 
L 182.633847 179.792713 
L 182.758762 214.462777 
L 182.883677 213.820739 
L 183.258422 156.55093 
L 183.383338 188.396025 
L 183.508253 144.223796 
L 183.758083 194.944815 
L 183.882998 173.885962 
L 184.007914 179.150675 
L 184.257744 110.709401 
L 184.382659 226.27628 
L 184.507574 175.298446 
L 184.632489 173.885962 
L 184.757405 156.807745 
L 185.007235 209.840102 
L 185.13215 159.889529 
L 185.257065 172.987108 
L 185.38198 141.398828 
L 185.631811 216.003669 
L 185.756726 145.507873 
L 185.881641 201.75042 
L 186.006556 176.967745 
L 186.131472 181.07679 
L 186.256387 225.249019 
L 186.506217 143.710166 
L 186.880963 193.660739 
L 187.005878 179.664306 
L 187.130793 183.644943 
L 187.255708 207.143541 
L 187.380623 169.520102 
L 187.505538 185.44265 
L 187.630454 152.313478 
L 187.880284 192.248255 
L 188.005199 190.835771 
L 188.130114 195.715261 
L 188.25503 219.470675 
L 188.379945 213.435516 
L 188.50486 178.89386 
L 188.629775 180.948382 
L 188.75469 175.170038 
L 188.879605 156.165707 
L 189.004521 194.688 
L 189.129436 146.278318 
L 189.254351 146.021503 
L 189.379266 151.286217 
L 189.629097 154.881631 
L 189.754012 166.438318 
L 189.878927 193.403924 
L 190.003842 171.060994 
L 190.128757 202.777682 
L 190.253672 195.458446 
L 190.503503 155.652076 
L 190.753333 201.108382 
L 190.878248 169.64851 
L 191.003163 201.365197 
L 191.252994 167.208764 
L 191.627739 218.700229 
L 191.752655 107.627618 
L 191.87757 144.994242 
L 192.002485 147.81921 
L 192.252315 193.917554 
L 192.37723 185.827873 
L 192.502146 170.290548 
L 192.627061 185.314242 
L 192.751976 186.469911 
L 192.876891 223.194497 
L 193.251637 131.254624 
L 193.501467 174.014369 
L 193.626382 168.107618 
L 193.876213 198.797045 
L 194.126043 142.426089 
L 194.250958 208.170803 
L 194.375873 205.089019 
L 194.500788 193.789146 
L 194.625704 238.475006 
L 194.750619 180.948382 
L 194.875534 175.426854 
L 195.125364 213.307108 
L 195.250279 191.863032 
L 195.375195 195.201631 
L 195.625025 172.473478 
L 195.74994 211.637809 
L 195.874855 151.543032 
L 195.999771 167.850803 
L 196.124686 202.007236 
L 196.249601 195.201631 
L 196.374516 174.528 
L 196.499431 205.987873 
L 196.624346 199.439083 
L 196.749262 203.548127 
L 196.874177 158.348637 
L 196.999092 188.524433 
L 197.124007 152.18507 
L 197.623668 242.584051 
L 197.873498 139.986344 
L 197.998413 217.03093 
L 198.123329 177.352968 
L 198.248244 213.050293 
L 198.373159 212.151439 
L 198.498074 208.684433 
L 198.622989 196.999338 
L 198.747904 118.028637 
L 198.87282 184.158573 
L 198.997735 176.71093 
L 199.37248 138.188637 
L 199.497396 217.544561 
L 199.622311 147.177172 
L 199.747226 217.544561 
L 199.997056 176.839338 
L 200.121971 223.57972 
L 200.246887 140.371567 
L 200.371802 185.185834 
L 200.496717 125.091057 
L 200.621632 170.16214 
L 200.746547 151.029401 
L 200.996378 196.357299 
L 201.121293 144.609019 
L 201.371123 221.91042 
L 201.496038 161.43042 
L 201.620954 177.609783 
L 201.745869 162.586089 
L 201.995699 230.898955 
L 202.120614 160.659975 
L 202.245529 214.976408 
L 202.370445 218.957045 
L 202.49536 180.177936 
L 202.74519 206.11628 
L 202.870105 132.410293 
L 202.99502 210.48214 
L 203.119936 154.239592 
L 203.369766 174.142777 
L 203.494681 178.765452 
L 203.619596 153.597554 
L 203.744512 163.228127 
L 203.869427 163.356535 
L 204.119257 197.641376 
L 204.244172 194.174369 
L 204.369087 164.383796 
L 204.494003 161.944051 
L 204.618918 215.233223 
L 204.743833 207.657172 
L 204.993663 186.469911 
L 205.118578 178.380229 
L 205.243494 161.173605 
L 205.368409 100.565197 
L 205.493324 171.189401 
L 205.618239 162.586089 
L 205.743154 182.746089 
L 205.86807 162.586089 
L 206.1179 227.94558 
L 206.242815 174.528 
L 206.617561 210.353732 
L 206.742476 176.839338 
L 206.867391 183.388127 
L 206.992306 182.874497 
L 207.117221 186.726726 
L 207.242136 178.251822 
L 207.367052 147.177172 
L 207.491967 216.774115 
L 207.741797 180.434752 
L 207.866712 180.177936 
L 207.991628 194.431185 
L 208.116543 180.691567 
L 208.241458 147.562395 
L 208.491288 174.913223 
L 208.616203 205.987873 
L 208.741119 165.154242 
L 208.866034 221.268382 
L 208.990949 204.446981 
L 209.115864 165.79628 
L 209.365694 176.325707 
L 209.49061 164.640611 
L 209.615525 192.50507 
L 209.74044 192.633478 
L 209.865355 206.758318 
L 209.99027 167.080357 
L 210.115186 194.302777 
L 210.240101 186.084688 
L 210.365016 150.387363 
L 210.614846 201.493605 
L 210.739761 148.461248 
L 210.864677 143.068127 
L 211.114507 193.660739 
L 211.239422 155.395261 
L 211.364337 211.252586 
L 211.489253 212.921885 
L 211.739083 161.815643 
L 211.988913 241.55679 
L 212.113828 167.722395 
L 212.238744 190.193732 
L 212.363659 168.749656 
L 212.488574 200.979975 
L 212.738404 170.547363 
L 212.863319 212.023032 
L 212.988235 200.209529 
L 213.11315 155.395261 
L 213.238065 223.836535 
L 213.36298 149.745325 
L 213.487895 190.578955 
L 213.737726 133.052331 
L 213.862641 250.416917 
L 213.987556 116.872968 
L 214.112471 186.598318 
L 214.237386 181.07679 
L 214.362302 209.583287 
L 214.487217 203.41972 
L 214.612132 172.473478 
L 214.737047 215.233223 
L 214.861962 190.964178 
L 214.986877 189.80851 
L 215.111793 192.119847 
L 215.236708 126.503541 
L 215.361623 199.439083 
L 215.486538 198.411822 
L 215.611453 201.878828 
L 215.861284 164.512204 
L 215.986199 231.412586 
L 216.236029 181.462013 
L 216.360944 248.490803 
L 216.610775 164.126981 
L 216.73569 217.544561 
L 216.860605 166.309911 
L 216.98552 211.894624 
L 217.110435 168.107618 
L 217.360266 195.715261 
L 217.485181 164.640611 
L 217.610096 189.680102 
L 217.859927 153.597554 
L 217.984842 196.614115 
L 218.109757 200.209529 
L 218.234672 177.866599 
L 218.359587 266.08265 
L 218.609418 161.302013 
L 218.734333 182.104051 
L 218.859248 182.746089 
L 218.984163 180.948382 
L 219.109078 207.271949 
L 219.358909 172.987108 
L 219.608739 191.606217 
L 219.733654 168.621248 
L 219.983485 181.333605 
L 220.1084 160.274752 
L 220.35823 181.975643 
L 220.483145 228.45921 
L 220.60806 226.661503 
L 220.857891 170.033732 
L 220.982806 209.583287 
L 221.107721 184.415389 
L 221.232636 214.976408 
L 221.357552 187.368764 
L 221.482467 219.72749 
L 221.607382 174.656408 
L 221.732297 177.224561 
L 221.982127 198.411822 
L 222.107043 165.411057 
L 222.231958 181.333605 
L 222.356873 156.294115 
L 222.481788 173.500739 
L 222.606703 165.154242 
L 222.731618 203.93335 
L 222.856534 202.906089 
L 222.981449 213.307108 
L 223.106364 207.913987 
L 223.231279 175.426854 
L 223.356194 185.185834 
L 223.48111 169.520102 
L 223.606025 195.843669 
L 223.73094 167.97921 
L 223.855855 204.061758 
L 223.98077 174.399592 
L 224.230601 217.801376 
L 224.355516 190.193732 
L 224.480431 245.665834 
L 224.605346 163.09972 
L 224.730261 158.862268 
L 224.855176 188.267618 
L 224.980092 179.150675 
L 225.105007 193.789146 
L 225.229922 137.418191 
L 225.354837 172.730293 
L 225.479752 170.290548 
L 225.604668 181.462013 
L 225.729583 157.706599 
L 225.979413 220.497936 
L 226.104328 172.858701 
L 226.229243 189.936917 
L 226.479074 181.205197 
L 226.603989 260.689529 
L 226.978734 106.086726 
L 227.228565 186.469911 
L 227.35348 139.215898 
L 227.60331 227.303541 
L 227.853141 176.582522 
L 227.978056 175.683669 
L 228.102971 196.357299 
L 228.227886 193.660739 
L 228.352801 165.28265 
L 228.477717 214.976408 
L 228.602632 145.507873 
L 228.727547 182.360866 
L 228.852462 172.088255 
L 228.977377 137.161376 
L 229.102292 184.158573 
L 229.227208 184.929019 
L 229.477038 187.753987 
L 229.601953 192.633478 
L 229.851784 181.59042 
L 230.101614 210.48214 
L 230.226529 200.723159 
L 230.351444 200.723159 
L 230.601275 173.115516 
L 230.851105 189.80851 
L 230.97602 212.921885 
L 231.100935 184.929019 
L 231.225851 202.135643 
L 231.475681 119.184306 
L 231.600596 204.061758 
L 231.850426 213.178701 
L 231.975342 162.457682 
L 232.100257 166.566726 
L 232.225172 150.387363 
L 232.475002 240.272713 
L 232.724833 199.824306 
L 232.849748 176.582522 
L 232.974663 188.010803 
L 233.224493 165.539465 
L 233.349409 209.96851 
L 233.599239 181.462013 
L 233.724154 232.054624 
L 233.849069 220.497936 
L 234.0989 155.652076 
L 234.223815 205.474242 
L 234.34873 185.44265 
L 234.473645 259.277045 
L 234.973306 149.616917 
L 235.098221 167.337172 
L 235.223136 156.294115 
L 235.472967 208.427618 
L 235.597882 205.089019 
L 235.722797 175.812076 
L 235.972627 205.474242 
L 236.097542 200.209529 
L 236.222458 162.842904 
L 236.472288 196.228892 
L 236.597203 176.454115 
L 236.722118 201.23679 
L 236.847033 160.403159 
L 236.971949 176.582522 
L 237.096864 176.582522 
L 237.221779 187.240357 
L 237.471609 97.997045 
L 237.596525 175.170038 
L 237.72144 171.703032 
L 237.846355 203.162904 
L 237.97127 168.749656 
L 238.096185 198.797045 
L 238.2211 167.080357 
L 238.346016 191.991439 
L 238.470931 183.131312 
L 238.595846 131.511439 
L 238.845676 167.337172 
L 238.970591 163.998573 
L 239.095507 172.473478 
L 239.220422 211.894624 
L 239.345337 161.558828 
L 239.595167 162.457682 
L 239.844998 201.75042 
L 239.969913 116.23093 
L 240.094828 174.913223 
L 240.219743 165.667873 
L 240.344658 180.306344 
L 240.469574 177.352968 
L 240.719404 164.255389 
L 240.844319 169.134879 
L 240.969234 213.435516 
L 241.219065 153.340739 
L 241.468895 196.614115 
L 241.59381 176.71093 
L 241.718725 178.251822 
L 241.843641 174.528 
L 241.968556 207.271949 
L 242.218386 155.138446 
L 242.343301 200.209529 
L 242.593132 161.173605 
L 242.718047 207.913987 
L 242.842962 203.41972 
L 242.967877 172.987108 
L 243.092792 206.244688 
L 243.217708 198.668637 
L 243.467538 170.033732 
L 243.592453 172.216662 
L 243.717368 184.158573 
L 243.967199 173.115516 
L 244.092114 157.321376 
L 244.341944 187.240357 
L 244.466859 147.30558 
L 244.71669 196.228892 
L 244.96652 156.422522 
L 245.091435 246.564688 
L 245.341266 182.874497 
L 245.466181 180.049529 
L 245.716011 295.488 
L 245.840926 162.714497 
L 245.965841 172.730293 
L 246.215672 213.820739 
L 246.590417 151.414624 
L 246.715332 182.489274 
L 246.840248 164.769019 
L 247.090078 229.101248 
L 247.214993 158.605452 
L 247.339908 154.368 
L 247.464824 210.48214 
L 247.589739 208.812841 
L 247.839569 180.177936 
L 247.964484 207.143541 
L 248.089399 179.664306 
L 248.214315 178.123414 
L 248.33923 163.61335 
L 248.464145 188.396025 
L 248.713975 170.932586 
L 248.963806 191.349401 
L 249.088721 120.853605 
L 249.338551 188.781248 
L 249.463466 193.532331 
L 249.588382 165.79628 
L 249.713297 175.041631 
L 249.838212 211.380994 
L 249.963127 205.859465 
L 250.212957 150.387363 
L 250.337873 229.229656 
L 250.587703 159.375898 
L 250.837533 197.127745 
L 250.962448 161.687236 
L 251.212279 204.190166 
L 251.337194 129.200102 
L 251.462109 180.177936 
L 251.71194 136.776153 
L 251.96177 209.198064 
L 252.086685 175.940484 
L 252.2116 205.731057 
L 252.336515 178.89386 
L 252.836176 191.477809 
L 252.961091 190.835771 
L 253.086007 172.34507 
L 253.335837 170.16214 
L 253.460752 221.39679 
L 253.710582 157.578191 
L 253.835498 190.193732 
L 253.960413 149.616917 
L 254.085328 212.793478 
L 254.210243 184.800611 
L 254.335158 204.318573 
L 254.959734 176.325707 
L 255.084649 186.341503 
L 255.209565 171.189401 
L 255.33448 193.275516 
L 255.459395 164.769019 
L 255.58431 214.848 
L 255.709225 175.170038 
L 255.83414 193.532331 
L 255.959056 184.030166 
L 256.083971 160.788382 
L 256.333801 194.816408 
L 256.458716 170.033732 
L 256.583631 188.267618 
L 256.708547 178.89386 
L 257.083292 214.719592 
L 257.208207 169.006471 
L 257.333123 187.240357 
L 257.458038 161.045197 
L 257.582953 227.688764 
L 257.707868 169.134879 
L 257.832783 185.185834 
L 257.957698 140.114752 
L 258.082614 154.881631 
L 258.207529 204.190166 
L 258.332444 200.466344 
L 258.582274 170.932586 
L 258.707189 186.469911 
L 258.832105 172.730293 
L 258.95702 184.158573 
L 259.081935 178.89386 
L 259.20685 94.915261 
L 259.331765 189.680102 
L 259.456681 177.738191 
L 259.831426 229.614879 
L 259.956341 167.593987 
L 260.081256 213.563924 
L 260.331087 180.434752 
L 260.456002 220.112713 
L 260.705832 173.629146 
L 260.830747 215.490038 
L 260.955663 214.719592 
L 261.330408 166.181503 
L 261.455323 187.240357 
L 261.580239 154.753223 
L 261.830069 172.088255 
L 261.954984 204.703796 
L 262.079899 179.022268 
L 262.204814 212.793478 
L 262.32973 186.726726 
L 262.454645 209.069656 
L 262.57956 181.975643 
L 262.82939 185.185834 
L 262.954306 183.388127 
L 263.079221 191.606217 
L 263.204136 240.272713 
L 263.329051 188.524433 
L 263.578881 185.571057 
L 263.703797 188.267618 
L 263.828712 217.672968 
L 263.953627 197.641376 
L 264.078542 150.130548 
L 264.203457 175.812076 
L 264.328372 152.827108 
L 264.578203 224.350166 
L 264.703118 136.904561 
L 264.828033 201.365197 
L 264.952948 145.12265 
L 265.077864 200.466344 
L 265.327694 179.022268 
L 265.577524 130.227363 
L 265.702439 231.926217 
L 265.827355 171.060994 
L 265.95227 218.443414 
L 266.077185 200.594752 
L 266.2021 202.392459 
L 266.327015 211.637809 
L 266.45193 212.023032 
L 266.576846 143.838573 
L 266.701761 238.603414 
L 266.826676 224.863796 
L 267.076506 174.014369 
L 267.201422 187.240357 
L 267.451252 251.829401 
L 267.825997 143.068127 
L 268.075828 185.571057 
L 268.200743 164.640611 
L 268.325658 206.629911 
L 268.450573 182.104051 
L 268.575488 234.109146 
L 268.700404 184.672204 
L 268.825319 214.719592 
L 268.950234 193.789146 
L 269.200064 235.264815 
L 269.32498 188.524433 
L 269.57481 157.706599 
L 269.699725 185.95628 
L 269.82464 153.597554 
L 269.949555 152.955516 
L 270.074471 177.609783 
L 270.199386 169.520102 
L 270.324301 202.264051 
L 270.449216 191.606217 
L 270.574131 221.653605 
L 270.699046 174.014369 
L 270.823962 209.96851 
L 271.073792 179.792713 
L 271.198707 220.241121 
L 271.448538 211.380994 
L 271.573453 172.987108 
L 271.698368 178.123414 
L 271.823283 188.267618 
L 271.948198 185.699465 
L 272.073113 152.827108 
L 272.198029 224.863796 
L 272.322944 213.435516 
L 272.447859 222.809274 
L 272.572774 169.905325 
L 272.697689 192.248255 
L 273.072435 157.835006 
L 273.19735 185.314242 
L 273.322265 188.010803 
L 273.44718 181.462013 
L 273.697011 198.540229 
L 274.071756 175.426854 
L 274.196671 233.980739 
L 274.321587 156.294115 
L 274.446502 214.334369 
L 274.571417 189.423287 
L 274.696332 235.521631 
L 274.821247 182.232459 
L 274.946163 224.478573 
L 275.195993 165.667873 
L 275.320908 177.738191 
L 275.445823 143.966981 
L 275.695654 183.516535 
L 275.820569 180.177936 
L 275.945484 156.807745 
L 276.195314 229.229656 
L 276.445145 184.800611 
L 276.57006 232.183032 
L 276.81989 181.718828 
L 276.944805 216.774115 
L 277.194636 130.098955 
L 277.444466 198.540229 
L 277.569381 179.535898 
L 277.944127 200.466344 
L 278.069042 185.185834 
L 278.193957 194.559592 
L 278.443787 161.43042 
L 278.568703 153.469146 
L 278.818533 204.446981 
L 278.943448 189.80851 
L 279.193279 137.931822 
L 279.443109 225.891057 
L 279.692939 181.07679 
L 279.817854 198.026599 
L 279.94277 190.450548 
L 280.067685 231.669401 
L 280.1926 205.089019 
L 280.692261 185.827873 
L 280.817176 199.824306 
L 280.942091 134.079592 
L 281.067006 174.399592 
L 281.316837 189.038064 
L 281.566667 156.294115 
L 281.691582 226.404688 
L 281.816497 172.216662 
L 281.941412 221.139975 
L 282.066328 170.033732 
L 282.191243 222.552459 
L 282.441073 159.632713 
L 282.565988 224.863796 
L 282.690903 215.361631 
L 282.815819 183.516535 
L 283.065649 206.629911 
L 283.315479 164.897427 
L 283.440395 220.883159 
L 283.56531 174.656408 
L 283.690225 231.155771 
L 283.940055 178.89386 
L 284.06497 199.695898 
L 284.189886 169.134879 
L 284.314801 227.94558 
L 284.439716 154.753223 
L 284.564631 181.205197 
L 284.689546 169.776917 
L 285.064292 221.139975 
L 285.314122 196.485707 
L 285.439037 169.905325 
L 285.563953 199.695898 
L 285.688868 149.873732 
L 285.813783 225.634242 
L 285.938698 197.384561 
L 286.063613 203.291312 
L 286.188528 186.341503 
L 286.313444 204.446981 
L 286.438359 174.784815 
L 286.563274 207.913987 
L 286.813104 185.699465 
L 286.93802 186.469911 
L 287.062935 180.819975 
L 287.18785 218.571822 
L 287.43768 162.714497 
L 287.562595 218.828637 
L 287.687511 150.644178 
L 287.812426 165.411057 
L 287.937341 156.936153 
L 288.062256 182.360866 
L 288.187171 160.659975 
L 288.437002 181.333605 
L 288.561917 176.454115 
L 288.686832 182.104051 
L 288.936662 216.260484 
L 289.061578 161.558828 
L 289.186493 191.092586 
L 289.311408 163.870166 
L 289.436323 194.816408 
L 289.561238 180.177936 
L 289.686153 185.95628 
L 289.935984 217.416153 
L 290.060899 147.177172 
L 290.310729 222.038828 
L 290.435644 153.212331 
L 290.685475 204.061758 
L 290.81039 130.997809 
L 290.935305 167.337172 
L 291.185136 188.010803 
L 291.310051 188.909656 
L 291.434966 119.569529 
L 291.684796 193.917554 
L 291.809711 184.543796 
L 291.934627 193.660739 
L 292.059542 193.660739 
L 292.184457 143.581758 
L 292.309372 154.753223 
L 292.434287 184.158573 
L 292.684118 177.352968 
L 292.809033 105.31628 
L 292.933948 201.622013 
L 293.058863 183.388127 
L 293.183778 191.220994 
L 293.308694 179.150675 
L 293.558524 253.370293 
L 293.683439 176.71093 
L 293.808354 219.855898 
L 294.1831 185.699465 
L 294.308015 234.494369 
L 294.43293 161.43042 
L 294.932591 256.195261 
L 295.057506 189.680102 
L 295.182421 218.315006 
L 295.432252 174.271185 
L 295.557167 195.715261 
L 295.682082 153.083924 
L 295.806997 163.228127 
L 295.931912 153.982777 
L 296.056827 244.25335 
L 296.181743 228.202395 
L 296.306658 170.675771 
L 296.431573 166.951949 
L 296.556488 177.224561 
L 296.681403 212.66507 
L 296.931234 155.010038 
L 297.056149 174.528 
L 297.55581 198.155006 
L 297.680725 193.275516 
L 297.80564 156.422522 
L 297.930555 188.010803 
L 298.05547 141.912459 
L 298.305301 198.411822 
L 298.430216 193.403924 
L 298.555131 177.609783 
L 298.804961 220.754752 
L 298.929877 173.115516 
L 299.179707 196.742522 
L 299.304622 171.574624 
L 299.929198 211.637809 
L 300.054113 198.540229 
L 300.179028 167.97921 
L 300.303943 201.365197 
L 300.428859 200.466344 
L 300.553774 155.138446 
L 300.678689 204.703796 
L 300.928519 198.797045 
L 301.17835 229.358064 
L 301.303265 182.617682 
L 301.42818 182.489274 
L 301.553095 208.29921 
L 301.802926 170.290548 
L 302.052756 190.578955 
L 302.177671 180.049529 
L 302.552417 208.170803 
L 302.677332 195.586854 
L 302.802247 219.599083 
L 303.052077 146.149911 
L 303.176993 190.835771 
L 303.301908 163.356535 
L 303.426823 218.957045 
L 303.676653 172.858701 
L 303.801568 181.07679 
L 303.926484 166.566726 
L 304.051399 167.080357 
L 304.176314 169.776917 
L 304.426144 207.015134 
L 304.675975 155.010038 
L 304.80089 162.072459 
L 304.925805 140.499975 
L 305.05072 170.804178 
L 305.175635 171.189401 
L 305.300551 178.123414 
L 305.425466 137.161376 
L 305.675296 167.46558 
L 305.800211 161.43042 
L 305.925126 179.150675 
L 306.174957 181.847236 
L 306.299872 193.275516 
L 306.799533 171.703032 
L 306.924448 135.363669 
L 307.049363 204.703796 
L 307.299193 134.721631 
L 307.549024 170.033732 
L 307.673939 166.951949 
L 307.923769 177.096153 
L 308.048684 170.290548 
L 308.298515 169.263287 
L 308.42343 205.987873 
L 308.548345 153.083924 
L 309.048006 196.485707 
L 309.172921 176.71093 
L 309.297836 188.396025 
L 309.797497 148.076025 
L 310.047327 169.263287 
L 310.422073 167.080357 
L 310.546988 142.169274 
L 310.921734 198.797045 
L 311.046649 159.761121 
L 311.296479 156.807745 
L 311.421394 179.40749 
L 311.671225 154.496408 
L 311.79614 214.591185 
L 311.921055 179.535898 
L 312.04597 180.306344 
L 312.170885 186.084688 
L 312.2958 163.09972 
L 312.545631 173.500739 
L 312.670546 199.182268 
L 312.795461 170.418955 
L 312.920376 181.07679 
L 313.544952 162.457682 
L 313.669867 169.134879 
L 313.794783 168.364433 
L 314.294443 166.951949 
L 314.419358 161.43042 
L 314.544274 179.022268 
L 314.794104 152.313478 
L 314.919019 159.24749 
L 315.16885 147.947618 
L 315.293765 191.863032 
L 315.66851 138.959083 
L 316.043256 141.27042 
L 316.168171 143.966981 
L 316.418001 201.622013 
L 316.917662 139.857936 
L 317.667153 130.869401 
L 318.041899 149.873732 
L 318.166814 139.729529 
L 318.541559 180.049529 
L 318.666475 176.71093 
L 318.79139 157.963414 
L 319.04122 187.882395 
L 319.166135 169.391694 
L 319.29105 107.884433 
L 319.415966 108.398064 
L 319.665796 79.121121 
L 320.040541 192.119847 
L 320.290372 191.220994 
L 320.415287 156.936153 
L 320.665117 151.414624 
L 320.790033 170.290548 
L 321.039863 255.810038 
L 321.164778 166.309911 
L 321.289693 230.770548 
L 321.414608 185.185834 
L 321.539524 186.084688 
L 321.914269 154.368 
L 322.039184 188.396025 
L 322.164099 181.718828 
L 322.913591 162.842904 
L 323.288336 184.415389 
L 323.413251 171.446217 
L 323.663082 188.524433 
L 323.787997 216.388892 
L 323.912912 133.822777 
L 324.162742 186.213096 
L 324.662403 157.449783 
L 325.162064 183.131312 
L 325.286979 167.850803 
L 325.661724 184.543796 
L 325.911555 138.830675 
L 326.411216 171.959847 
L 326.536131 164.897427 
L 326.785961 204.061758 
L 327.285622 208.042395 
L 327.410537 159.632713 
L 328.160028 137.546599 
L 328.659689 161.173605 
L 329.034434 196.742522 
L 329.284265 202.777682 
L 329.90884 150.130548 
L 330.283586 158.990675 
L 330.533416 199.310675 
L 330.658332 172.987108 
L 331.033077 221.525197 
L 331.157992 142.426089 
L 331.407823 181.333605 
L 331.532738 53.568 
L 331.782568 173.115516 
L 332.032398 159.889529 
L 332.532059 198.925452 
L 333.03172 153.340739 
L 333.28155 202.520866 
L 333.781211 161.687236 
L 333.906126 168.236025 
L 334.031041 161.815643 
L 334.155956 135.492076 
L 334.530702 180.306344 
L 334.905448 179.022268 
L 335.530023 110.324178 
L 335.654939 170.804178 
L 335.779854 174.014369 
L 336.029684 170.804178 
L 336.154599 158.477045 
L 336.279514 195.201631 
L 336.65426 144.994242 
L 337.153921 162.586089 
L 337.278836 150.258955 
L 337.403751 173.372331 
L 337.528666 114.176408 
L 337.778497 171.959847 
L 338.028327 141.655643 
L 338.278157 140.114752 
L 338.527988 153.597554 
L 339.402394 175.555261 
L 339.527309 161.815643 
L 339.777139 187.240357 
L 339.902055 154.239592 
L 340.151885 168.621248 
L 340.2768 206.11628 
L 340.401715 123.935389 
L 340.526631 169.391694 
L 340.776461 189.166471 
L 341.026291 148.846471 
L 341.401037 157.963414 
L 341.525952 168.878064 
L 341.650867 103.775389 
L 341.775782 158.862268 
L 341.900697 155.780484 
L 342.150528 191.734624 
L 342.275443 166.181503 
L 342.400358 183.25972 
L 343.149849 106.728764 
L 343.274764 179.535898 
L 343.64951 134.079592 
L 343.89934 166.823541 
L 344.274086 157.321376 
L 344.523916 215.490038 
L 344.898662 161.173605 
L 345.023577 183.77335 
L 345.273407 188.267618 
L 345.523238 163.998573 
L 345.648153 125.733096 
L 346.022898 206.11628 
L 346.272729 162.586089 
L 346.647474 174.656408 
L 346.772389 133.052331 
L 346.897305 161.173605 
L 347.147135 169.64851 
L 347.396965 134.721631 
L 347.52188 153.083924 
L 347.646796 205.987873 
L 347.771711 167.722395 
L 347.896626 173.500739 
L 348.146456 163.61335 
L 348.271372 197.641376 
L 348.521202 146.663541 
L 348.895947 223.964943 
L 349.020863 213.307108 
L 349.145778 161.815643 
L 349.520523 201.365197 
L 349.645438 184.030166 
L 349.895269 167.208764 
L 350.519845 223.194497 
L 350.769675 141.013605 
L 350.89459 209.069656 
L 351.019505 150.387363 
L 351.144421 164.897427 
L 351.269336 223.194497 
L 351.394251 172.216662 
L 352.268657 179.150675 
L 352.393572 185.44265 
L 352.518488 153.725962 
L 352.768318 142.169274 
L 352.893233 143.838573 
L 353.143063 160.146344 
L 353.642724 258.891822 
L 353.892554 138.445452 
L 354.01747 203.291312 
L 354.142385 153.469146 
L 354.2673 180.434752 
L 354.766961 241.299975 
L 355.016791 171.703032 
L 355.391537 181.462013 
L 355.516452 130.997809 
L 355.891197 192.376662 
L 356.141028 165.28265 
L 358.014755 154.111185 
L 358.264586 158.091822 
L 358.764246 152.18507 
L 360.138313 175.426854 
L 360.887804 195.201631 
L 362.136956 207.78558 
L 362.261871 193.275516 
L 362.386787 158.990675 
L 365.384751 159.504306 
L 368.50763 163.61335 
L 370.256443 205.859465 
L 372.13017 183.77335 
L 374.253728 223.836535 
L 379.000505 159.24749 
L 379.12542 152.827108 
L 380.249657 163.741758 
L 382.2483 196.100484 
L 385.87084 186.726726 
L 387.119992 181.847236 
L 387.369822 183.131312 
L 389.993041 189.551694 
L 390.242871 161.302013 
L 391.117277 146.406726 
L 391.367108 166.053096 
L 392.741175 195.843669 
L 393.11592 161.815643 
L 393.490666 168.236025 
L 394.240157 213.050293 
L 394.365072 190.450548 
L 394.864733 183.388127 
L 394.989648 156.165707 
L 396.113884 193.018701 
L 396.2388 204.960611 
L 396.363715 160.788382 
L 396.613545 177.481376 
L 397.612866 216.517299 
L 398.487273 187.368764 
L 398.487273 187.368764 
" style="fill:none;stroke:#0000ff;stroke-linecap:square;stroke-width:1.5;"/>
   </g>
   <g id="patch_3">
    <path d="M 57.6 307.584 
L 57.6 41.472 
" style="fill:none;stroke:#000000;stroke-linecap:square;stroke-linejoin:miter;stroke-width:0.8;"/>
   </g>
   <g id="patch_4">
    <path d="M 414.72 307.584 
L 414.72 41.472 
" style="fill:none;stroke:#000000;stroke-linecap:square;stroke-linejoin:miter;stroke-width:0.8;"/>
   </g>
   <g id="patch_5">
    <path d="M 57.6 307.584 
L 414.72 307.584 
" style="fill:none;stroke:#000000;stroke-linecap:square;stroke-linejoin:miter;stroke-width:0.8;"/>
   </g>
   <g id="patch_6">
    <path d="M 57.6 41.472 
L 414.72 41.472 
" style="fill:none;stroke:#000000;stroke-linecap:square;stroke-linejoin:miter;stroke-width:0.8;"/>
   </g>
   <g id="text_18">
    <!-- temperature-&gt;ping_day -->
    <g transform="translate(164.131875 35.472)scale(0.12 -0.12)">
     <defs>
      <path d="M 4.890625 31.390625 
L 31.203125 31.390625 
L 31.203125 23.390625 
L 4.890625 23.390625 
z
" id="DejaVuSans-45"/>
      <path d="M 10.59375 49.21875 
L 10.59375 58.109375 
L 73.1875 35.40625 
L 73.1875 27.296875 
L 10.59375 4.59375 
L 10.59375 13.484375 
L 60.890625 31.296875 
z
" id="DejaVuSans-62"/>
     </defs>
     <use xlink:href="#DejaVuSans-116"/>
     <use x="39.208984" xlink:href="#DejaVuSans-101"/>
     <use x="100.732422" xlink:href="#DejaVuSans-109"/>
     <use x="198.144531" xlink:href="#DejaVuSans-112"/>
     <use x="261.621094" xlink:href="#DejaVuSans-101"/>
     <use x="323.144531" xlink:href="#DejaVuSans-114"/>
     <use x="364.257812" xlink:href="#DejaVuSans-97"/>
     <use x="425.537109" xlink:href="#DejaVuSans-116"/>
     <use x="464.746094" xlink:href="#DejaVuSans-117"/>
     <use x="528.125" xlink:href="#DejaVuSans-114"/>
     <use x="566.988281" xlink:href="#DejaVuSans-101"/>
     <use x="628.511719" xlink:href="#DejaVuSans-45"/>
     <use x="664.595703" xlink:href="#DejaVuSans-62"/>
     <use x="748.384766" xlink:href="#DejaVuSans-112"/>
     <use x="811.861328" xlink:href="#DejaVuSans-105"/>
     <use x="839.644531" xlink:href="#DejaVuSans-110"/>
     <use x="903.023438" xlink:href="#DejaVuSans-103"/>
     <use x="966.5" xlink:href="#DejaVuSans-95"/>
     <use x="1016.5" xlink:href="#DejaVuSans-100"/>
     <use x="1079.976562" xlink:href="#DejaVuSans-97"/>
     <use x="1141.255859" xlink:href="#DejaVuSans-121"/>
    </g>
   </g>
  </g>
  <g id="legend_1">
   <g id="patch_7">
    <path d="M 353.839063 22.95625 
L 453.8 22.95625 
Q 455.8 22.95625 455.8 20.95625 
L 455.8 7 
Q 455.8 5 453.8 5 
L 353.839063 5 
Q 351.839063 5 351.839063 7 
L 351.839063 20.95625 
Q 351.839063 22.95625 353.839063 22.95625 
z
" style="fill:#ffffff;opacity:0.8;stroke:#cccccc;stroke-linejoin:miter;"/>
   </g>
   <g id="line2d_17">
    <path d="M 355.839063 13.098437 
L 375.839063 13.098437 
" style="fill:none;stroke:#0000ff;stroke-linecap:square;stroke-width:1.5;"/>
   </g>
   <g id="line2d_18"/>
   <g id="text_19">
    <!-- ping_day[ms] -->
    <g transform="translate(383.839063 16.598437)scale(0.1 -0.1)">
     <use xlink:href="#DejaVuSans-112"/>
     <use x="63.476562" xlink:href="#DejaVuSans-105"/>
     <use x="91.259766" xlink:href="#DejaVuSans-110"/>
     <use x="154.638672" xlink:href="#DejaVuSans-103"/>
     <use x="218.115234" xlink:href="#DejaVuSans-95"/>
     <use x="268.115234" xlink:href="#DejaVuSans-100"/>
     <use x="331.591797" xlink:href="#DejaVuSans-97"/>
     <use x="392.871094" xlink:href="#DejaVuSans-121"/>
     <use x="452.050781" xlink:href="#DejaVuSans-91"/>
     <use x="491.064453" xlink:href="#DejaVuSans-109"/>
     <use x="588.476562" xlink:href="#DejaVuSans-115"/>
     <use x="640.576172" xlink:href="#DejaVuSans-93"/>
    </g>
   </g>
  </g>
 </g>
 <defs>
  <clipPath id="p66e35a09f2">
   <rect height="266.112" width="357.12" x="57.6" y="41.472"/>
  </clipPath>
 </defs>
</svg>
