<?xml version="1.0" encoding="utf-8" standalone="no"?>
<!DOCTYPE svg PUBLIC "-//W3C//DTD SVG 1.1//EN"
  "http://www.w3.org/Graphics/SVG/1.1/DTD/svg11.dtd">
<!-- Created with matplotlib (https://matplotlib.org/) -->
<svg height="2090.594375pt" version="1.1" viewBox="0 0 2062.259375 2090.594375" width="2062.259375pt" xmlns="http://www.w3.org/2000/svg" xmlns:xlink="http://www.w3.org/1999/xlink">
 <metadata>
  <rdf:RDF xmlns:cc="http://creativecommons.org/ns#" xmlns:dc="http://purl.org/dc/elements/1.1/" xmlns:rdf="http://www.w3.org/1999/02/22-rdf-syntax-ns#">
   <cc:Work>
    <dc:type rdf:resource="http://purl.org/dc/dcmitype/StillImage"/>
    <dc:date>2022-07-24T11:40:19.891829</dc:date>
    <dc:format>image/svg+xml</dc:format>
    <dc:creator>
     <cc:Agent>
      <dc:title>Matplotlib v3.3.2, https://matplotlib.org/</dc:title>
     </cc:Agent>
    </dc:creator>
   </cc:Work>
  </rdf:RDF>
 </metadata>
 <defs>
  <style type="text/css">*{stroke-linecap:butt;stroke-linejoin:round;}</style>
 </defs>
 <g id="figure_1">
  <g id="patch_1">
   <path d="M 0 2090.594375 
L 2062.259375 2090.594375 
L 2062.259375 0 
L 0 0 
z
" style="fill:#ffffff;"/>
  </g>
  <g id="axes_1">
   <g id="patch_2">
    <path d="M 44.059375 2052.76 
L 1829.659375 2052.76 
L 1829.659375 278.68 
L 44.059375 278.68 
z
" style="fill:#ffffff;"/>
   </g>
   <g id="matplotlib.axis_1">
    <g id="xtick_1">
     <g id="line2d_1">
      <defs>
       <path d="M 0 0 
L 0 3.5 
" id="mcac3962d0d" style="stroke:#000000;stroke-width:0.8;"/>
      </defs>
      <g>
       <use style="stroke:#000000;stroke-width:0.8;" x="195.070848" xlink:href="#mcac3962d0d" y="2052.76"/>
      </g>
     </g>
     <g id="text_1">
      <text style="font-family:DejaVu Sans;font-size:10px;font-stretch:normal;font-style:normal;font-weight:normal;text-anchor:middle;" transform="rotate(-0, 195.070848, 2067.358437)" x="195.070848" y="2067.358437">995</text>
     </g>
    </g>
    <g id="xtick_2">
     <g id="line2d_2">
      <g>
       <use style="stroke:#000000;stroke-width:0.8;" x="476.488401" xlink:href="#mcac3962d0d" y="2052.76"/>
      </g>
     </g>
     <g id="text_2">
      <text style="font-family:DejaVu Sans;font-size:10px;font-stretch:normal;font-style:normal;font-weight:normal;text-anchor:middle;" transform="rotate(-0, 476.488401, 2067.358437)" x="476.488401" y="2067.358437">1000</text>
     </g>
    </g>
    <g id="xtick_3">
     <g id="line2d_3">
      <g>
       <use style="stroke:#000000;stroke-width:0.8;" x="757.905953" xlink:href="#mcac3962d0d" y="2052.76"/>
      </g>
     </g>
     <g id="text_3">
      <text style="font-family:DejaVu Sans;font-size:10px;font-stretch:normal;font-style:normal;font-weight:normal;text-anchor:middle;" transform="rotate(-0, 757.905953, 2067.358437)" x="757.905953" y="2067.358437">1005</text>
     </g>
    </g>
    <g id="xtick_4">
     <g id="line2d_4">
      <g>
       <use style="stroke:#000000;stroke-width:0.8;" x="1039.323506" xlink:href="#mcac3962d0d" y="2052.76"/>
      </g>
     </g>
     <g id="text_4">
      <text style="font-family:DejaVu Sans;font-size:10px;font-stretch:normal;font-style:normal;font-weight:normal;text-anchor:middle;" transform="rotate(-0, 1039.323506, 2067.358437)" x="1039.323506" y="2067.358437">1010</text>
     </g>
    </g>
    <g id="xtick_5">
     <g id="line2d_5">
      <g>
       <use style="stroke:#000000;stroke-width:0.8;" x="1320.741059" xlink:href="#mcac3962d0d" y="2052.76"/>
      </g>
     </g>
     <g id="text_5">
      <text style="font-family:DejaVu Sans;font-size:10px;font-stretch:normal;font-style:normal;font-weight:normal;text-anchor:middle;" transform="rotate(-0, 1320.741059, 2067.358437)" x="1320.741059" y="2067.358437">1015</text>
     </g>
    </g>
    <g id="xtick_6">
     <g id="line2d_6">
      <g>
       <use style="stroke:#000000;stroke-width:0.8;" x="1602.158611" xlink:href="#mcac3962d0d" y="2052.76"/>
      </g>
     </g>
     <g id="text_6">
      <text style="font-family:DejaVu Sans;font-size:10px;font-stretch:normal;font-style:normal;font-weight:normal;text-anchor:middle;" transform="rotate(-0, 1602.158611, 2067.358437)" x="1602.158611" y="2067.358437">1020</text>
     </g>
    </g>
    <g id="text_7">
     <text style="font-family:DejaVu Sans;font-size:10px;font-stretch:normal;font-style:normal;font-weight:normal;text-anchor:middle;" transform="rotate(-0, 936.859375, 2081.036562)" x="936.859375" y="2081.036562">air_pressure from WeatherBitIO</text>
    </g>
   </g>
   <g id="matplotlib.axis_2">
    <g id="ytick_1">
     <g id="line2d_7">
      <defs>
       <path d="M 0 0 
L -3.5 0 
" id="mbcdec0f17d" style="stroke:#000000;stroke-width:0.8;"/>
      </defs>
      <g>
       <use style="stroke:#000000;stroke-width:0.8;" x="44.059375" xlink:href="#mbcdec0f17d" y="1909.141392"/>
      </g>
     </g>
     <g id="text_8">
      <text style="font-family:DejaVu Sans;font-size:10px;font-stretch:normal;font-style:normal;font-weight:normal;text-anchor:end;" transform="rotate(-0, 37.059375, 1912.940611)" x="37.059375" y="1912.940611">3.5</text>
     </g>
    </g>
    <g id="ytick_2">
     <g id="line2d_8">
      <g>
       <use style="stroke:#000000;stroke-width:0.8;" x="44.059375" xlink:href="#mbcdec0f17d" y="1635.321358"/>
      </g>
     </g>
     <g id="text_9">
      <text style="font-family:DejaVu Sans;font-size:10px;font-stretch:normal;font-style:normal;font-weight:normal;text-anchor:end;" transform="rotate(-0, 37.059375, 1639.120577)" x="37.059375" y="1639.120577">4.0</text>
     </g>
    </g>
    <g id="ytick_3">
     <g id="line2d_9">
      <g>
       <use style="stroke:#000000;stroke-width:0.8;" x="44.059375" xlink:href="#mbcdec0f17d" y="1361.501324"/>
      </g>
     </g>
     <g id="text_10">
      <text style="font-family:DejaVu Sans;font-size:10px;font-stretch:normal;font-style:normal;font-weight:normal;text-anchor:end;" transform="rotate(-0, 37.059375, 1365.300543)" x="37.059375" y="1365.300543">4.5</text>
     </g>
    </g>
    <g id="ytick_4">
     <g id="line2d_10">
      <g>
       <use style="stroke:#000000;stroke-width:0.8;" x="44.059375" xlink:href="#mbcdec0f17d" y="1087.68129"/>
      </g>
     </g>
     <g id="text_11">
      <text style="font-family:DejaVu Sans;font-size:10px;font-stretch:normal;font-style:normal;font-weight:normal;text-anchor:end;" transform="rotate(-0, 37.059375, 1091.480509)" x="37.059375" y="1091.480509">5.0</text>
     </g>
    </g>
    <g id="ytick_5">
     <g id="line2d_11">
      <g>
       <use style="stroke:#000000;stroke-width:0.8;" x="44.059375" xlink:href="#mbcdec0f17d" y="813.861256"/>
      </g>
     </g>
     <g id="text_12">
      <text style="font-family:DejaVu Sans;font-size:10px;font-stretch:normal;font-style:normal;font-weight:normal;text-anchor:end;" transform="rotate(-0, 37.059375, 817.660475)" x="37.059375" y="817.660475">5.5</text>
     </g>
    </g>
    <g id="ytick_6">
     <g id="line2d_12">
      <g>
       <use style="stroke:#000000;stroke-width:0.8;" x="44.059375" xlink:href="#mbcdec0f17d" y="540.041222"/>
      </g>
     </g>
     <g id="text_13">
      <text style="font-family:DejaVu Sans;font-size:10px;font-stretch:normal;font-style:normal;font-weight:normal;text-anchor:end;" transform="rotate(-0, 37.059375, 543.840441)" x="37.059375" y="543.840441">6.0</text>
     </g>
    </g>
    <g id="text_14">
     <text style="font-family:DejaVu Sans;font-size:10px;font-stretch:normal;font-style:normal;font-weight:normal;text-anchor:middle;" transform="rotate(-90, 14.798438, 1165.72)" x="14.798438" y="1165.72">ping_day[ms]</text>
    </g>
   </g>
   <g id="line2d_13">
    <path clip-path="url(#pc11d3b3454)" d="M 125.223011 1428.313413 
L 138.168219 1543.865467 
L 171.262923 1548.794228 
L 178.973764 1548.794228 
L 199.348395 1532.365025 
L 245.838574 1566.86635 
L 313.829055 1528.531545 
L 373.770994 1457.885976 
L 374.952948 1641.893039 
L 384.689995 1680.775484 
L 423.469334 1627.106757 
L 426.058375 1421.194092 
L 436.921093 1502.792462 
L 453.918713 1606.296435 
L 480.428246 1686.799525 
L 490.559278 1455.147776 
L 527.706395 1435.980374 
L 551.908305 1532.365025 
L 556.973821 1516.483463 
L 558.099491 1574.533311 
L 584.552741 1598.081834 
L 587.929751 1523.055144 
L 621.699858 1541.127267 
L 635.2079 1439.813854 
L 653.781459 1569.60455 
L 663.912491 1658.322241 
L 682.486049 1310.570798 
L 697.119762 1606.296435 
L 697.682597 1668.179762 
L 698.245432 1403.121969 
L 699.371102 1610.129915 
L 699.933937 1511.007063 
L 705.562288 1467.195857 
L 706.125124 1607.391715 
L 706.687959 1418.455891 
L 722.447342 1536.746146 
L 725.261517 1526.340985 
L 729.201363 1431.051613 
L 730.327033 1346.715042 
L 737.643889 1368.073005 
L 743.272241 1514.840543 
L 748.337756 1529.626825 
L 750.589097 1576.176231 
L 757.343118 1486.9109 
L 764.659975 1536.746146 
L 779.293687 1479.791579 
L 794.490235 1545.508387 
L 796.17874 1483.077419 
L 819.817815 1467.743497 
L 834.451528 1570.15219 
L 838.391373 1450.219015 
L 849.08524 1439.813854 
L 851.899416 1463.362377 
L 859.216272 1582.747912 
L 860.904778 1472.672258 
L 866.533129 1482.529779 
L 868.221634 1534.007946 
L 869.910139 1399.288489 
L 887.920863 1301.260917 
L 892.423543 1577.271511 
L 905.931586 1650.65528 
L 912.685607 1492.934941 
L 922.816639 1408.05073 
L 932.384836 1474.315178 
L 962.215096 1541.674907 
L 977.411644 1719.110289 
L 981.914325 1570.15219 
L 983.60283 1675.846723 
L 992.045357 1559.199389 
L 997.110873 1461.719457 
L 998.236543 1739.920611 
L 999.362213 1657.774601 
L 1001.613554 1461.719457 
L 1007.241905 1548.794228 
L 1007.80474 1473.219898 
L 1009.493245 1562.485229 
L 1011.744586 1419.551171 
L 1012.870256 1423.932292 
L 1014.558761 1497.316061 
L 1019.061442 1380.668727 
L 1019.624277 1443.647334 
L 1021.875618 1467.743497 
L 1023.001288 1544.960747 
L 1026.941134 1536.198506 
L 1032.00665 1488.55382 
L 1039.886341 1481.982139 
L 1041.012011 1559.199389 
L 1042.700517 1430.503973 
L 1044.389022 1397.097929 
L 1047.203197 1280.998234 
L 1048.891703 1600.820034 
L 1050.017373 1571.24747 
L 1052.268713 1486.36326 
L 1053.394384 1885.045229 
L 1055.082889 1364.239525 
L 1055.645724 1667.084482 
L 1056.208559 1550.437148 
L 1056.771394 1564.675789 
L 1061.274075 1494.577861 
L 1069.153767 1658.322241 
L 1069.716602 1618.344516 
L 1071.405107 1466.648217 
L 1072.530777 1252.520951 
L 1073.656447 1495.125501 
L 1080.973304 1549.341868 
L 1084.913149 1593.153073 
L 1086.03882 1519.221664 
L 1088.29016 1576.723871 
L 1092.230006 1487.45854 
L 1093.355676 1425.575212 
L 1096.732687 1679.132564 
L 1097.858357 1419.551171 
L 1101.798203 1502.792462 
L 1103.486708 1520.864584 
L 1106.863719 1478.148659 
L 1109.677894 1361.501324 
L 1111.366399 1552.080068 
L 1111.929235 1477.601019 
L 1112.49207 1630.392598 
L 1114.180575 1529.626825 
L 1115.306245 1581.104992 
L 1115.86908 1595.343633 
L 1116.431915 1384.502207 
L 1116.99475 1588.771952 
L 1117.557586 1686.799525 
L 1120.371761 1784.827097 
L 1122.623102 1450.766655 
L 1123.748772 1972.12 
L 1124.311607 1642.988319 
L 1124.874442 1421.194092 
L 1125.437277 1344.524482 
L 1126.000112 1373.001766 
L 1127.688617 1555.913548 
L 1129.377123 1392.716808 
L 1129.939958 1527.983905 
L 1130.502793 1505.530662 
L 1131.065628 1686.251885 
L 1134.442639 1563.032869 
L 1135.005474 1667.084482 
L 1136.693979 1639.702479 
L 1137.819649 1747.039932 
L 1138.382484 1588.771952 
L 1138.94532 1672.560883 
L 1140.07099 1780.445976 
L 1140.633825 1378.478166 
L 1142.885165 1590.414873 
L 1144.573671 1411.884211 
L 1145.136506 1698.847606 
L 1146.262176 1433.789813 
L 1147.387846 1587.129032 
L 1147.950681 1562.485229 
L 1149.076351 1595.343633 
L 1150.202022 1565.22343 
L 1150.764857 1442.004414 
L 1151.890527 1601.915314 
L 1152.453362 1550.437148 
L 1154.704703 1549.889508 
L 1156.393208 1616.153956 
L 1156.956043 1588.771952 
L 1158.081713 359.32 
L 1159.770218 1581.652632 
L 1160.895889 1470.481698 
L 1162.021559 1753.063973 
L 1162.584394 1662.155722 
L 1163.710064 1639.702479 
L 1164.272899 1647.91708 
L 1167.64991 1488.00618 
L 1168.212745 1632.035518 
L 1172.152591 1769.493175 
L 1174.403931 1576.176231 
L 1176.655272 1567.96163 
L 1177.218107 1610.677555 
L 1177.780942 1597.534194 
L 1178.343777 1431.051613 
L 1179.469447 1446.385535 
L 1183.972128 1470.481698 
L 1185.097798 1344.524482 
L 1185.660633 1676.394363 
L 1186.223468 1651.75056 
L 1187.349139 1542.222547 
L 1187.911974 1392.716808 
L 1189.037644 1504.435382 
L 1191.851819 1593.153073 
L 1194.665995 1608.486995 
L 1195.22883 1734.991851 
L 1197.480171 1516.483463 
L 1198.043006 1448.576095 
L 1198.605841 1507.173582 
L 1199.731511 1548.794228 
L 1203.108522 1396.550289 
L 1204.234192 1676.394363 
L 1211.551048 1404.76489 
L 1214.365224 1547.698947 
L 1216.616564 1748.135212 
L 1220.55641 1661.608081 
L 1223.370585 1633.678438 
L 1226.747596 1443.647334 
L 1230.687442 1445.837895 
L 1231.250277 1478.148659 
L 1233.501617 1477.053379 
L 1234.064452 1393.812088 
L 1235.190123 1657.774601 
L 1235.752958 1152.850458 
L 1239.129968 1707.609847 
L 1243.069814 1560.842309 
L 1248.698165 1682.966044 
L 1249.261 1324.2618 
L 1250.38667 1552.627708 
L 1261.643373 1554.270628 
L 1266.708888 1688.990085 
L 1275.151415 1428.861053 
L 1276.83992 1600.272394 
L 1279.654096 1380.121087 
L 1280.779766 1469.934058 
L 1283.593942 1494.577861 
L 1292.036468 1135.325976 
L 1294.287809 1448.028455 
L 1301.604665 1438.718574 
L 1303.856005 1593.153073 
L 1307.795851 1465.552937 
L 1309.484356 1518.126384 
L 1310.047192 1589.319593 
L 1313.987037 1510.459423 
L 1321.866729 1654.488761 
L 1326.36941 1212.543226 
L 1328.62075 1841.234024 
L 1334.249101 1563.580509 
L 1337.063277 1490.19674 
L 1340.440287 1473.219898 
L 1344.380133 1389.430968 
L 1345.505803 1519.221664 
L 1347.194309 1622.177997 
L 1348.319979 1621.630357 
L 1350.571319 1497.863701 
L 1351.696989 1653.39348 
L 1352.82266 1468.838778 
L 1356.19967 1723.491409 
L 1359.013846 1330.28584 
L 1360.139516 1548.246587 
L 1363.516527 1542.770187 
L 1366.330702 1369.715925 
L 1366.893537 1561.389949 
L 1371.396218 1624.916197 
L 1372.521888 1364.239525 
L 1373.084723 1551.532428 
L 1374.773229 1524.698065 
L 1378.150239 1544.960747 
L 1379.27591 1645.178879 
L 1380.964415 1520.316944 
L 1383.215755 1516.483463 
L 1383.77859 1561.389949 
L 1384.904261 1482.529779 
L 1385.467096 1567.41399 
L 1387.718436 1570.69983 
L 1393.346787 1712.538608 
L 1393.909622 1644.083599 
L 1398.975138 1541.674907 
L 1399.537973 1466.100577 
L 1400.100808 1469.386418 
L 1400.663644 1594.795993 
L 1401.226479 1532.912666 
L 1401.789314 1593.700713 
L 1402.352149 1503.340102 
L 1404.040654 1393.812088 
L 1405.729159 1497.863701 
L 1410.794675 1664.893922 
L 1411.920346 1539.484346 
L 1413.046016 1581.652632 
L 1413.608851 1547.151307 
L 1414.734521 1674.751443 
L 1415.297356 1549.341868 
L 1415.860191 1469.386418 
L 1417.548697 1559.747029 
L 1419.800037 1394.359728 
L 1420.362872 1552.627708 
L 1424.865553 1490.74438 
L 1425.991223 1515.935823 
L 1428.242564 1458.981256 
L 1430.493904 1488.55382 
L 1432.182409 1485.81562 
L 1433.870915 1435.432733 
L 1434.43375 1536.746146 
L 1434.996585 1709.252767 
L 1439.499266 1325.90472 
L 1442.876276 1665.989202 
L 1443.439112 1407.50309 
L 1445.690452 1738.277691 
L 1446.816122 1540.031986 
L 1447.378957 1652.84584 
L 1447.941792 1511.554703 
L 1449.067463 1511.007063 
L 1449.630298 1537.841426 
L 1450.755968 1439.266214 
L 1453.007308 1474.315178 
L 1453.570143 1531.817385 
L 1454.132979 1463.362377 
L 1456.947154 1678.037284 
L 1462.01267 1588.224312 
L 1462.575505 1713.633888 
L 1463.701175 1559.199389 
L 1464.26401 1432.146893 
L 1464.826846 1661.608081 
L 1465.952516 1703.776367 
L 1468.203856 1465.552937 
L 1470.455197 1573.985671 
L 1471.018032 1310.570798 
L 1471.580867 1580.557351 
L 1472.706537 1641.893039 
L 1473.269372 1397.645569 
L 1473.832207 1542.770187 
L 1474.395042 1612.868115 
L 1474.957877 1465.005297 
L 1475.520713 1610.677555 
L 1477.209218 1596.438913 
L 1478.334888 1541.674907 
L 1480.023393 1632.035518 
L 1480.586229 1682.966044 
L 1481.711899 1462.267097 
L 1482.274734 1550.984788 
L 1482.837569 1532.365025 
L 1483.400404 1704.871647 
L 1483.963239 1655.036401 
L 1485.651744 1457.885976 
L 1486.21458 1633.678438 
L 1487.903085 1602.462954 
L 1490.154425 1385.049847 
L 1490.71726 1664.346282 
L 1491.842931 1571.79511 
L 1493.531436 1631.487878 
L 1495.219941 1449.123735 
L 1497.471282 1535.650866 
L 1499.159787 1481.982139 
L 1499.722622 1705.419287 
L 1500.285457 1553.175348 
L 1500.848292 1606.296435 
L 1501.973963 1624.916197 
L 1503.099633 1540.579626 
L 1503.662468 1533.460306 
L 1504.225303 1522.507504 
L 1505.350973 1379.573447 
L 1505.913808 1593.700713 
L 1506.476643 1571.79511 
L 1507.602314 1543.865467 
L 1508.165149 1605.748795 
L 1508.727984 1530.722105 
L 1509.853654 1485.81562 
L 1510.416489 1608.486995 
L 1510.979324 1551.532428 
L 1512.66783 1698.847606 
L 1513.230665 1659.417521 
L 1513.7935 1606.296435 
L 1514.356335 1587.676672 
L 1514.91917 1629.844958 
L 1516.607675 1619.987436 
L 1517.17051 1638.059559 
L 1517.733345 1527.436265 
L 1518.296181 1469.934058 
L 1518.859016 1549.889508 
L 1519.984686 1458.981256 
L 1520.547521 1507.721222 
L 1521.673191 1617.249236 
L 1523.361697 1518.674024 
L 1523.924532 1536.746146 
L 1525.050202 1562.485229 
L 1526.175872 1720.753209 
L 1527.301542 1614.511036 
L 1527.864377 1500.601902 
L 1528.427212 1581.652632 
L 1528.990048 1707.062207 
L 1529.552883 1669.275042 
L 1530.115718 1517.031104 
L 1530.678553 1610.129915 
L 1531.241388 1582.747912 
L 1531.804223 1500.054261 
L 1532.929893 1202.138065 
L 1534.055564 1433.789813 
L 1535.181234 1529.079185 
L 1535.744069 1518.126384 
L 1536.869739 1480.886859 
L 1537.995409 1810.01854 
L 1539.683915 1707.609847 
L 1541.37242 1493.482581 
L 1541.935255 1655.584041 
L 1542.49809 1628.749677 
L 1544.186595 1553.722988 
L 1545.875101 1596.986553 
L 1546.437936 1445.837895 
L 1547.000771 1546.056027 
L 1547.563606 1530.174465 
L 1548.126441 1609.034635 
L 1548.689276 1753.611613 
L 1549.252111 1593.153073 
L 1550.377782 1630.392598 
L 1550.940617 1463.362377 
L 1551.503452 1714.181528 
L 1552.066287 1387.240407 
L 1552.629122 1543.317827 
L 1553.191957 1485.26798 
L 1553.754792 1358.215484 
L 1554.317627 1572.34275 
L 1555.443298 1598.629474 
L 1556.006133 1553.722988 
L 1558.820308 1659.417521 
L 1559.383143 1710.895688 
L 1560.508813 1513.197623 
L 1561.071649 1467.195857 
L 1562.197319 1289.212835 
L 1563.322989 1541.674907 
L 1563.885824 1511.554703 
L 1564.448659 1701.585806 
L 1567.82567 1478.148659 
L 1568.95134 1374.097046 
L 1569.514175 1503.340102 
L 1570.639845 1611.772835 
L 1571.765516 1506.078302 
L 1572.328351 1592.605433 
L 1573.454021 1511.007063 
L 1574.016856 1547.151307 
L 1574.579691 1552.627708 
L 1575.705361 1374.097046 
L 1578.519537 1632.035518 
L 1579.082372 1434.337453 
L 1579.645207 1668.179762 
L 1580.208042 1460.076537 
L 1581.896547 1313.856638 
L 1582.459383 1522.507504 
L 1584.147888 1584.938472 
L 1584.710723 1692.275925 
L 1585.836393 1518.126384 
L 1588.087734 1687.894805 
L 1588.650569 1502.244822 
L 1589.213404 1502.792462 
L 1591.464744 1634.226078 
L 1592.027579 1535.650866 
L 1592.590414 1600.820034 
L 1594.27892 1693.371205 
L 1595.40459 1410.78893 
L 1595.967425 1559.199389 
L 1598.218766 1596.986553 
L 1598.781601 1427.218132 
L 1599.344436 1587.129032 
L 1599.907271 1508.268862 
L 1602.721446 1705.419287 
L 1603.284281 1581.104992 
L 1603.847117 1559.747029 
L 1604.972787 1541.127267 
L 1605.535622 1749.230492 
L 1610.038303 1651.75056 
L 1610.601138 1535.650866 
L 1611.163973 1342.881562 
L 1611.726808 1748.682852 
L 1612.852478 1459.528896 
L 1613.415313 1725.134329 
L 1613.978148 1578.366791 
L 1615.666654 1302.356197 
L 1616.229489 1571.24747 
L 1618.480829 1609.034635 
L 1620.73217 1534.555586 
L 1621.295005 1604.105874 
L 1622.98351 1513.197623 
L 1624.10918 1702.133447 
L 1624.672015 1691.728285 
L 1625.797686 1394.907368 
L 1627.486191 1553.722988 
L 1628.049026 1584.938472 
L 1630.300367 1862.044346 
L 1630.863202 1667.632122 
L 1631.988872 1546.603667 
L 1633.677377 1690.633005 
L 1634.803047 1516.483463 
L 1638.742893 1616.701596 
L 1639.868563 1601.367674 
L 1640.431398 1824.257182 
L 1642.119904 1684.061324 
L 1642.682739 1620.535076 
L 1646.622585 1667.084482 
L 1648.31109 1455.147776 
L 1649.999595 1750.325772 
L 1653.939441 1385.597487 
L 1656.753616 1556.461188 
L 1660.130627 1548.794228 
L 1661.819132 1605.201154 
L 1663.507638 1563.580509 
L 1671.387329 1640.250119 
L 1671.950164 1658.322241 
L 1674.201505 1525.245705 
L 1675.89001 1592.057793 
L 1683.769702 1620.535076 
L 1686.021042 1561.937589 
L 1686.583877 1595.891273 
L 1689.398053 1374.644686 
L 1689.960888 1623.273277 
L 1691.086558 1228.972428 
L 1692.775063 1722.396129 
L 1693.337898 1605.201154 
L 1694.463569 1537.841426 
L 1702.34326 1393.812088 
L 1702.906095 1175.303701 
L 1704.031765 1550.984788 
L 1711.348622 1659.965161 
L 1711.911457 1550.984788 
L 1716.976973 1276.617114 
L 1719.228313 1638.059559 
L 1720.916818 1650.10764 
L 1723.168159 1547.698947 
L 1725.982334 1506.078302 
L 1727.67084 1644.083599 
L 1730.485015 1532.365025 
L 1732.736356 1485.26798 
L 1737.801872 1559.747029 
L 1738.364707 1693.918846 
L 1738.927542 1659.417521 
L 1743.430223 1667.084482 
L 1743.993058 1297.975076 
L 1746.244398 1458.433616 
L 1747.932904 1460.076537 
L 1748.495739 1348.357963 
L 1748.495739 1348.357963 
" style="fill:none;stroke:#0000ff;stroke-linecap:square;stroke-width:1.5;"/>
   </g>
   <g id="patch_3">
    <path d="M 44.059375 2052.76 
L 44.059375 278.68 
" style="fill:none;stroke:#000000;stroke-linecap:square;stroke-linejoin:miter;stroke-width:0.8;"/>
   </g>
   <g id="patch_4">
    <path d="M 1829.659375 2052.76 
L 1829.659375 278.68 
" style="fill:none;stroke:#000000;stroke-linecap:square;stroke-linejoin:miter;stroke-width:0.8;"/>
   </g>
   <g id="patch_5">
    <path d="M 44.059375 2052.76 
L 1829.659375 2052.76 
" style="fill:none;stroke:#000000;stroke-linecap:square;stroke-linejoin:miter;stroke-width:0.8;"/>
   </g>
   <g id="patch_6">
    <path d="M 44.059375 278.68 
L 1829.659375 278.68 
" style="fill:none;stroke:#000000;stroke-linecap:square;stroke-linejoin:miter;stroke-width:0.8;"/>
   </g>
   <g id="text_15">
    <text style="font-family:DejaVu Sans;font-size:12px;font-stretch:normal;font-style:normal;font-weight:normal;text-anchor:middle;" transform="rotate(-0, 936.859375, 272.68)" x="936.859375" y="272.68">air_pressure-&gt;ping_day</text>
   </g>
  </g>
  <g id="legend_1">
   <g id="patch_7">
    <path d="M 1955.298437 22.95625 
L 2055.259375 22.95625 
Q 2057.259375 22.95625 2057.259375 20.95625 
L 2057.259375 7 
Q 2057.259375 5 2055.259375 5 
L 1955.298437 5 
Q 1953.298437 5 1953.298437 7 
L 1953.298437 20.95625 
Q 1953.298437 22.95625 1955.298437 22.95625 
z
" style="fill:#ffffff;opacity:0.8;stroke:#cccccc;stroke-linejoin:miter;"/>
   </g>
   <g id="line2d_14">
    <path d="M 1957.298437 13.098438 
L 1977.298437 13.098438 
" style="fill:none;stroke:#0000ff;stroke-linecap:square;stroke-width:1.5;"/>
   </g>
   <g id="line2d_15"/>
   <g id="text_16">
    <text style="font-family:DejaVu Sans;font-size:10px;font-stretch:normal;font-style:normal;font-weight:normal;text-anchor:start;" transform="rotate(-0, 1985.298437, 16.598438)" x="1985.298437" y="16.598438">ping_day[ms]</text>
   </g>
  </g>
 </g>
 <defs>
  <clipPath id="pc11d3b3454">
   <rect height="1774.08" width="1785.6" x="44.059375" y="278.68"/>
  </clipPath>
 </defs>
</svg>
