<?xml version="1.0" encoding="utf-8" standalone="no"?>
<!DOCTYPE svg PUBLIC "-//W3C//DTD SVG 1.1//EN"
  "http://www.w3.org/Graphics/SVG/1.1/DTD/svg11.dtd">
<!-- Created with matplotlib (https://matplotlib.org/) -->
<svg height="345.6pt" version="1.1" viewBox="0 0 460.8 345.6" width="460.8pt" xmlns="http://www.w3.org/2000/svg" xmlns:xlink="http://www.w3.org/1999/xlink">
 <metadata>
  <rdf:RDF xmlns:cc="http://creativecommons.org/ns#" xmlns:dc="http://purl.org/dc/elements/1.1/" xmlns:rdf="http://www.w3.org/1999/02/22-rdf-syntax-ns#">
   <cc:Work>
    <dc:type rdf:resource="http://purl.org/dc/dcmitype/StillImage"/>
    <dc:date>2022-07-16T22:12:06.022146</dc:date>
    <dc:format>image/svg+xml</dc:format>
    <dc:creator>
     <cc:Agent>
      <dc:title>Matplotlib v3.3.2, https://matplotlib.org/</dc:title>
     </cc:Agent>
    </dc:creator>
   </cc:Work>
  </rdf:RDF>
 </metadata>
 <defs>
  <style type="text/css">*{stroke-linecap:butt;stroke-linejoin:round;}</style>
 </defs>
 <g id="figure_1">
  <g id="patch_1">
   <path d="M 0 345.6 
L 460.8 345.6 
L 460.8 0 
L 0 0 
z
" style="fill:#ffffff;"/>
  </g>
  <g id="axes_1">
   <g id="patch_2">
    <path d="M 57.6 307.584 
L 414.72 307.584 
L 414.72 41.472 
L 57.6 41.472 
z
" style="fill:#ffffff;"/>
   </g>
   <g id="matplotlib.axis_1">
    <g id="xtick_1">
     <g id="line2d_1">
      <defs>
       <path d="M 0 0 
L 0 3.5 
" id="mb09e88c194" style="stroke:#000000;stroke-width:0.8;"/>
      </defs>
      <g>
       <use style="stroke:#000000;stroke-width:0.8;" x="61.773432" xlink:href="#mb09e88c194" y="307.584"/>
      </g>
     </g>
     <g id="text_1">
      <!-- 0 -->
      <g transform="translate(58.592182 322.182437)scale(0.1 -0.1)">
       <defs>
        <path d="M 31.78125 66.40625 
Q 24.171875 66.40625 20.328125 58.90625 
Q 16.5 51.421875 16.5 36.375 
Q 16.5 21.390625 20.328125 13.890625 
Q 24.171875 6.390625 31.78125 6.390625 
Q 39.453125 6.390625 43.28125 13.890625 
Q 47.125 21.390625 47.125 36.375 
Q 47.125 51.421875 43.28125 58.90625 
Q 39.453125 66.40625 31.78125 66.40625 
z
M 31.78125 74.21875 
Q 44.046875 74.21875 50.515625 64.515625 
Q 56.984375 54.828125 56.984375 36.375 
Q 56.984375 17.96875 50.515625 8.265625 
Q 44.046875 -1.421875 31.78125 -1.421875 
Q 19.53125 -1.421875 13.0625 8.265625 
Q 6.59375 17.96875 6.59375 36.375 
Q 6.59375 54.828125 13.0625 64.515625 
Q 19.53125 74.21875 31.78125 74.21875 
z
" id="DejaVuSans-48"/>
       </defs>
       <use xlink:href="#DejaVuSans-48"/>
      </g>
     </g>
    </g>
    <g id="xtick_2">
     <g id="line2d_2">
      <g>
       <use style="stroke:#000000;stroke-width:0.8;" x="137.969325" xlink:href="#mb09e88c194" y="307.584"/>
      </g>
     </g>
     <g id="text_2">
      <!-- 2 -->
      <g transform="translate(134.788075 322.182437)scale(0.1 -0.1)">
       <defs>
        <path d="M 19.1875 8.296875 
L 53.609375 8.296875 
L 53.609375 0 
L 7.328125 0 
L 7.328125 8.296875 
Q 12.9375 14.109375 22.625 23.890625 
Q 32.328125 33.6875 34.8125 36.53125 
Q 39.546875 41.84375 41.421875 45.53125 
Q 43.3125 49.21875 43.3125 52.78125 
Q 43.3125 58.59375 39.234375 62.25 
Q 35.15625 65.921875 28.609375 65.921875 
Q 23.96875 65.921875 18.8125 64.3125 
Q 13.671875 62.703125 7.8125 59.421875 
L 7.8125 69.390625 
Q 13.765625 71.78125 18.9375 73 
Q 24.125 74.21875 28.421875 74.21875 
Q 39.75 74.21875 46.484375 68.546875 
Q 53.21875 62.890625 53.21875 53.421875 
Q 53.21875 48.921875 51.53125 44.890625 
Q 49.859375 40.875 45.40625 35.40625 
Q 44.1875 33.984375 37.640625 27.21875 
Q 31.109375 20.453125 19.1875 8.296875 
z
" id="DejaVuSans-50"/>
       </defs>
       <use xlink:href="#DejaVuSans-50"/>
      </g>
     </g>
    </g>
    <g id="xtick_3">
     <g id="line2d_3">
      <g>
       <use style="stroke:#000000;stroke-width:0.8;" x="214.165217" xlink:href="#mb09e88c194" y="307.584"/>
      </g>
     </g>
     <g id="text_3">
      <!-- 4 -->
      <g transform="translate(210.983967 322.182437)scale(0.1 -0.1)">
       <defs>
        <path d="M 37.796875 64.3125 
L 12.890625 25.390625 
L 37.796875 25.390625 
z
M 35.203125 72.90625 
L 47.609375 72.90625 
L 47.609375 25.390625 
L 58.015625 25.390625 
L 58.015625 17.1875 
L 47.609375 17.1875 
L 47.609375 0 
L 37.796875 0 
L 37.796875 17.1875 
L 4.890625 17.1875 
L 4.890625 26.703125 
z
" id="DejaVuSans-52"/>
       </defs>
       <use xlink:href="#DejaVuSans-52"/>
      </g>
     </g>
    </g>
    <g id="xtick_4">
     <g id="line2d_4">
      <g>
       <use style="stroke:#000000;stroke-width:0.8;" x="290.36111" xlink:href="#mb09e88c194" y="307.584"/>
      </g>
     </g>
     <g id="text_4">
      <!-- 6 -->
      <g transform="translate(287.17986 322.182437)scale(0.1 -0.1)">
       <defs>
        <path d="M 33.015625 40.375 
Q 26.375 40.375 22.484375 35.828125 
Q 18.609375 31.296875 18.609375 23.390625 
Q 18.609375 15.53125 22.484375 10.953125 
Q 26.375 6.390625 33.015625 6.390625 
Q 39.65625 6.390625 43.53125 10.953125 
Q 47.40625 15.53125 47.40625 23.390625 
Q 47.40625 31.296875 43.53125 35.828125 
Q 39.65625 40.375 33.015625 40.375 
z
M 52.59375 71.296875 
L 52.59375 62.3125 
Q 48.875 64.0625 45.09375 64.984375 
Q 41.3125 65.921875 37.59375 65.921875 
Q 27.828125 65.921875 22.671875 59.328125 
Q 17.53125 52.734375 16.796875 39.40625 
Q 19.671875 43.65625 24.015625 45.921875 
Q 28.375 48.1875 33.59375 48.1875 
Q 44.578125 48.1875 50.953125 41.515625 
Q 57.328125 34.859375 57.328125 23.390625 
Q 57.328125 12.15625 50.6875 5.359375 
Q 44.046875 -1.421875 33.015625 -1.421875 
Q 20.359375 -1.421875 13.671875 8.265625 
Q 6.984375 17.96875 6.984375 36.375 
Q 6.984375 53.65625 15.1875 63.9375 
Q 23.390625 74.21875 37.203125 74.21875 
Q 40.921875 74.21875 44.703125 73.484375 
Q 48.484375 72.75 52.59375 71.296875 
z
" id="DejaVuSans-54"/>
       </defs>
       <use xlink:href="#DejaVuSans-54"/>
      </g>
     </g>
    </g>
    <g id="xtick_5">
     <g id="line2d_5">
      <g>
       <use style="stroke:#000000;stroke-width:0.8;" x="366.557003" xlink:href="#mb09e88c194" y="307.584"/>
      </g>
     </g>
     <g id="text_5">
      <!-- 8 -->
      <g transform="translate(363.375753 322.182437)scale(0.1 -0.1)">
       <defs>
        <path d="M 31.78125 34.625 
Q 24.75 34.625 20.71875 30.859375 
Q 16.703125 27.09375 16.703125 20.515625 
Q 16.703125 13.921875 20.71875 10.15625 
Q 24.75 6.390625 31.78125 6.390625 
Q 38.8125 6.390625 42.859375 10.171875 
Q 46.921875 13.96875 46.921875 20.515625 
Q 46.921875 27.09375 42.890625 30.859375 
Q 38.875 34.625 31.78125 34.625 
z
M 21.921875 38.8125 
Q 15.578125 40.375 12.03125 44.71875 
Q 8.5 49.078125 8.5 55.328125 
Q 8.5 64.0625 14.71875 69.140625 
Q 20.953125 74.21875 31.78125 74.21875 
Q 42.671875 74.21875 48.875 69.140625 
Q 55.078125 64.0625 55.078125 55.328125 
Q 55.078125 49.078125 51.53125 44.71875 
Q 48 40.375 41.703125 38.8125 
Q 48.828125 37.15625 52.796875 32.3125 
Q 56.78125 27.484375 56.78125 20.515625 
Q 56.78125 9.90625 50.3125 4.234375 
Q 43.84375 -1.421875 31.78125 -1.421875 
Q 19.734375 -1.421875 13.25 4.234375 
Q 6.78125 9.90625 6.78125 20.515625 
Q 6.78125 27.484375 10.78125 32.3125 
Q 14.796875 37.15625 21.921875 38.8125 
z
M 18.3125 54.390625 
Q 18.3125 48.734375 21.84375 45.5625 
Q 25.390625 42.390625 31.78125 42.390625 
Q 38.140625 42.390625 41.71875 45.5625 
Q 45.3125 48.734375 45.3125 54.390625 
Q 45.3125 60.0625 41.71875 63.234375 
Q 38.140625 66.40625 31.78125 66.40625 
Q 25.390625 66.40625 21.84375 63.234375 
Q 18.3125 60.0625 18.3125 54.390625 
z
" id="DejaVuSans-56"/>
       </defs>
       <use xlink:href="#DejaVuSans-56"/>
      </g>
     </g>
    </g>
    <g id="text_6">
     <!-- wind_speed from WeatherBitIO -->
     <g transform="translate(158.679531 335.860562)scale(0.1 -0.1)">
      <defs>
       <path d="M 4.203125 54.6875 
L 13.1875 54.6875 
L 24.421875 12.015625 
L 35.59375 54.6875 
L 46.1875 54.6875 
L 57.421875 12.015625 
L 68.609375 54.6875 
L 77.59375 54.6875 
L 63.28125 0 
L 52.6875 0 
L 40.921875 44.828125 
L 29.109375 0 
L 18.5 0 
z
" id="DejaVuSans-119"/>
       <path d="M 9.421875 54.6875 
L 18.40625 54.6875 
L 18.40625 0 
L 9.421875 0 
z
M 9.421875 75.984375 
L 18.40625 75.984375 
L 18.40625 64.59375 
L 9.421875 64.59375 
z
" id="DejaVuSans-105"/>
       <path d="M 54.890625 33.015625 
L 54.890625 0 
L 45.90625 0 
L 45.90625 32.71875 
Q 45.90625 40.484375 42.875 44.328125 
Q 39.84375 48.1875 33.796875 48.1875 
Q 26.515625 48.1875 22.3125 43.546875 
Q 18.109375 38.921875 18.109375 30.90625 
L 18.109375 0 
L 9.078125 0 
L 9.078125 54.6875 
L 18.109375 54.6875 
L 18.109375 46.1875 
Q 21.34375 51.125 25.703125 53.5625 
Q 30.078125 56 35.796875 56 
Q 45.21875 56 50.046875 50.171875 
Q 54.890625 44.34375 54.890625 33.015625 
z
" id="DejaVuSans-110"/>
       <path d="M 45.40625 46.390625 
L 45.40625 75.984375 
L 54.390625 75.984375 
L 54.390625 0 
L 45.40625 0 
L 45.40625 8.203125 
Q 42.578125 3.328125 38.25 0.953125 
Q 33.9375 -1.421875 27.875 -1.421875 
Q 17.96875 -1.421875 11.734375 6.484375 
Q 5.515625 14.40625 5.515625 27.296875 
Q 5.515625 40.1875 11.734375 48.09375 
Q 17.96875 56 27.875 56 
Q 33.9375 56 38.25 53.625 
Q 42.578125 51.265625 45.40625 46.390625 
z
M 14.796875 27.296875 
Q 14.796875 17.390625 18.875 11.75 
Q 22.953125 6.109375 30.078125 6.109375 
Q 37.203125 6.109375 41.296875 11.75 
Q 45.40625 17.390625 45.40625 27.296875 
Q 45.40625 37.203125 41.296875 42.84375 
Q 37.203125 48.484375 30.078125 48.484375 
Q 22.953125 48.484375 18.875 42.84375 
Q 14.796875 37.203125 14.796875 27.296875 
z
" id="DejaVuSans-100"/>
       <path d="M 50.984375 -16.609375 
L 50.984375 -23.578125 
L -0.984375 -23.578125 
L -0.984375 -16.609375 
z
" id="DejaVuSans-95"/>
       <path d="M 44.28125 53.078125 
L 44.28125 44.578125 
Q 40.484375 46.53125 36.375 47.5 
Q 32.28125 48.484375 27.875 48.484375 
Q 21.1875 48.484375 17.84375 46.4375 
Q 14.5 44.390625 14.5 40.28125 
Q 14.5 37.15625 16.890625 35.375 
Q 19.28125 33.59375 26.515625 31.984375 
L 29.59375 31.296875 
Q 39.15625 29.25 43.1875 25.515625 
Q 47.21875 21.78125 47.21875 15.09375 
Q 47.21875 7.46875 41.1875 3.015625 
Q 35.15625 -1.421875 24.609375 -1.421875 
Q 20.21875 -1.421875 15.453125 -0.5625 
Q 10.6875 0.296875 5.421875 2 
L 5.421875 11.28125 
Q 10.40625 8.6875 15.234375 7.390625 
Q 20.0625 6.109375 24.8125 6.109375 
Q 31.15625 6.109375 34.5625 8.28125 
Q 37.984375 10.453125 37.984375 14.40625 
Q 37.984375 18.0625 35.515625 20.015625 
Q 33.0625 21.96875 24.703125 23.78125 
L 21.578125 24.515625 
Q 13.234375 26.265625 9.515625 29.90625 
Q 5.8125 33.546875 5.8125 39.890625 
Q 5.8125 47.609375 11.28125 51.796875 
Q 16.75 56 26.8125 56 
Q 31.78125 56 36.171875 55.265625 
Q 40.578125 54.546875 44.28125 53.078125 
z
" id="DejaVuSans-115"/>
       <path d="M 18.109375 8.203125 
L 18.109375 -20.796875 
L 9.078125 -20.796875 
L 9.078125 54.6875 
L 18.109375 54.6875 
L 18.109375 46.390625 
Q 20.953125 51.265625 25.265625 53.625 
Q 29.59375 56 35.59375 56 
Q 45.5625 56 51.78125 48.09375 
Q 58.015625 40.1875 58.015625 27.296875 
Q 58.015625 14.40625 51.78125 6.484375 
Q 45.5625 -1.421875 35.59375 -1.421875 
Q 29.59375 -1.421875 25.265625 0.953125 
Q 20.953125 3.328125 18.109375 8.203125 
z
M 48.6875 27.296875 
Q 48.6875 37.203125 44.609375 42.84375 
Q 40.53125 48.484375 33.40625 48.484375 
Q 26.265625 48.484375 22.1875 42.84375 
Q 18.109375 37.203125 18.109375 27.296875 
Q 18.109375 17.390625 22.1875 11.75 
Q 26.265625 6.109375 33.40625 6.109375 
Q 40.53125 6.109375 44.609375 11.75 
Q 48.6875 17.390625 48.6875 27.296875 
z
" id="DejaVuSans-112"/>
       <path d="M 56.203125 29.59375 
L 56.203125 25.203125 
L 14.890625 25.203125 
Q 15.484375 15.921875 20.484375 11.0625 
Q 25.484375 6.203125 34.421875 6.203125 
Q 39.59375 6.203125 44.453125 7.46875 
Q 49.3125 8.734375 54.109375 11.28125 
L 54.109375 2.78125 
Q 49.265625 0.734375 44.1875 -0.34375 
Q 39.109375 -1.421875 33.890625 -1.421875 
Q 20.796875 -1.421875 13.15625 6.1875 
Q 5.515625 13.8125 5.515625 26.8125 
Q 5.515625 40.234375 12.765625 48.109375 
Q 20.015625 56 32.328125 56 
Q 43.359375 56 49.78125 48.890625 
Q 56.203125 41.796875 56.203125 29.59375 
z
M 47.21875 32.234375 
Q 47.125 39.59375 43.09375 43.984375 
Q 39.0625 48.390625 32.421875 48.390625 
Q 24.90625 48.390625 20.390625 44.140625 
Q 15.875 39.890625 15.1875 32.171875 
z
" id="DejaVuSans-101"/>
       <path id="DejaVuSans-32"/>
       <path d="M 37.109375 75.984375 
L 37.109375 68.5 
L 28.515625 68.5 
Q 23.6875 68.5 21.796875 66.546875 
Q 19.921875 64.59375 19.921875 59.515625 
L 19.921875 54.6875 
L 34.71875 54.6875 
L 34.71875 47.703125 
L 19.921875 47.703125 
L 19.921875 0 
L 10.890625 0 
L 10.890625 47.703125 
L 2.296875 47.703125 
L 2.296875 54.6875 
L 10.890625 54.6875 
L 10.890625 58.5 
Q 10.890625 67.625 15.140625 71.796875 
Q 19.390625 75.984375 28.609375 75.984375 
z
" id="DejaVuSans-102"/>
       <path d="M 41.109375 46.296875 
Q 39.59375 47.171875 37.8125 47.578125 
Q 36.03125 48 33.890625 48 
Q 26.265625 48 22.1875 43.046875 
Q 18.109375 38.09375 18.109375 28.8125 
L 18.109375 0 
L 9.078125 0 
L 9.078125 54.6875 
L 18.109375 54.6875 
L 18.109375 46.1875 
Q 20.953125 51.171875 25.484375 53.578125 
Q 30.03125 56 36.53125 56 
Q 37.453125 56 38.578125 55.875 
Q 39.703125 55.765625 41.0625 55.515625 
z
" id="DejaVuSans-114"/>
       <path d="M 30.609375 48.390625 
Q 23.390625 48.390625 19.1875 42.75 
Q 14.984375 37.109375 14.984375 27.296875 
Q 14.984375 17.484375 19.15625 11.84375 
Q 23.34375 6.203125 30.609375 6.203125 
Q 37.796875 6.203125 41.984375 11.859375 
Q 46.1875 17.53125 46.1875 27.296875 
Q 46.1875 37.015625 41.984375 42.703125 
Q 37.796875 48.390625 30.609375 48.390625 
z
M 30.609375 56 
Q 42.328125 56 49.015625 48.375 
Q 55.71875 40.765625 55.71875 27.296875 
Q 55.71875 13.875 49.015625 6.21875 
Q 42.328125 -1.421875 30.609375 -1.421875 
Q 18.84375 -1.421875 12.171875 6.21875 
Q 5.515625 13.875 5.515625 27.296875 
Q 5.515625 40.765625 12.171875 48.375 
Q 18.84375 56 30.609375 56 
z
" id="DejaVuSans-111"/>
       <path d="M 52 44.1875 
Q 55.375 50.25 60.0625 53.125 
Q 64.75 56 71.09375 56 
Q 79.640625 56 84.28125 50.015625 
Q 88.921875 44.046875 88.921875 33.015625 
L 88.921875 0 
L 79.890625 0 
L 79.890625 32.71875 
Q 79.890625 40.578125 77.09375 44.375 
Q 74.3125 48.1875 68.609375 48.1875 
Q 61.625 48.1875 57.5625 43.546875 
Q 53.515625 38.921875 53.515625 30.90625 
L 53.515625 0 
L 44.484375 0 
L 44.484375 32.71875 
Q 44.484375 40.625 41.703125 44.40625 
Q 38.921875 48.1875 33.109375 48.1875 
Q 26.21875 48.1875 22.15625 43.53125 
Q 18.109375 38.875 18.109375 30.90625 
L 18.109375 0 
L 9.078125 0 
L 9.078125 54.6875 
L 18.109375 54.6875 
L 18.109375 46.1875 
Q 21.1875 51.21875 25.484375 53.609375 
Q 29.78125 56 35.6875 56 
Q 41.65625 56 45.828125 52.96875 
Q 50 49.953125 52 44.1875 
z
" id="DejaVuSans-109"/>
       <path d="M 3.328125 72.90625 
L 13.28125 72.90625 
L 28.609375 11.28125 
L 43.890625 72.90625 
L 54.984375 72.90625 
L 70.3125 11.28125 
L 85.59375 72.90625 
L 95.609375 72.90625 
L 77.296875 0 
L 64.890625 0 
L 49.515625 63.28125 
L 33.984375 0 
L 21.578125 0 
z
" id="DejaVuSans-87"/>
       <path d="M 34.28125 27.484375 
Q 23.390625 27.484375 19.1875 25 
Q 14.984375 22.515625 14.984375 16.5 
Q 14.984375 11.71875 18.140625 8.90625 
Q 21.296875 6.109375 26.703125 6.109375 
Q 34.1875 6.109375 38.703125 11.40625 
Q 43.21875 16.703125 43.21875 25.484375 
L 43.21875 27.484375 
z
M 52.203125 31.203125 
L 52.203125 0 
L 43.21875 0 
L 43.21875 8.296875 
Q 40.140625 3.328125 35.546875 0.953125 
Q 30.953125 -1.421875 24.3125 -1.421875 
Q 15.921875 -1.421875 10.953125 3.296875 
Q 6 8.015625 6 15.921875 
Q 6 25.140625 12.171875 29.828125 
Q 18.359375 34.515625 30.609375 34.515625 
L 43.21875 34.515625 
L 43.21875 35.40625 
Q 43.21875 41.609375 39.140625 45 
Q 35.0625 48.390625 27.6875 48.390625 
Q 23 48.390625 18.546875 47.265625 
Q 14.109375 46.140625 10.015625 43.890625 
L 10.015625 52.203125 
Q 14.9375 54.109375 19.578125 55.046875 
Q 24.21875 56 28.609375 56 
Q 40.484375 56 46.34375 49.84375 
Q 52.203125 43.703125 52.203125 31.203125 
z
" id="DejaVuSans-97"/>
       <path d="M 18.3125 70.21875 
L 18.3125 54.6875 
L 36.8125 54.6875 
L 36.8125 47.703125 
L 18.3125 47.703125 
L 18.3125 18.015625 
Q 18.3125 11.328125 20.140625 9.421875 
Q 21.96875 7.515625 27.59375 7.515625 
L 36.8125 7.515625 
L 36.8125 0 
L 27.59375 0 
Q 17.1875 0 13.234375 3.875 
Q 9.28125 7.765625 9.28125 18.015625 
L 9.28125 47.703125 
L 2.6875 47.703125 
L 2.6875 54.6875 
L 9.28125 54.6875 
L 9.28125 70.21875 
z
" id="DejaVuSans-116"/>
       <path d="M 54.890625 33.015625 
L 54.890625 0 
L 45.90625 0 
L 45.90625 32.71875 
Q 45.90625 40.484375 42.875 44.328125 
Q 39.84375 48.1875 33.796875 48.1875 
Q 26.515625 48.1875 22.3125 43.546875 
Q 18.109375 38.921875 18.109375 30.90625 
L 18.109375 0 
L 9.078125 0 
L 9.078125 75.984375 
L 18.109375 75.984375 
L 18.109375 46.1875 
Q 21.34375 51.125 25.703125 53.5625 
Q 30.078125 56 35.796875 56 
Q 45.21875 56 50.046875 50.171875 
Q 54.890625 44.34375 54.890625 33.015625 
z
" id="DejaVuSans-104"/>
       <path d="M 19.671875 34.8125 
L 19.671875 8.109375 
L 35.5 8.109375 
Q 43.453125 8.109375 47.28125 11.40625 
Q 51.125 14.703125 51.125 21.484375 
Q 51.125 28.328125 47.28125 31.5625 
Q 43.453125 34.8125 35.5 34.8125 
z
M 19.671875 64.796875 
L 19.671875 42.828125 
L 34.28125 42.828125 
Q 41.5 42.828125 45.03125 45.53125 
Q 48.578125 48.25 48.578125 53.8125 
Q 48.578125 59.328125 45.03125 62.0625 
Q 41.5 64.796875 34.28125 64.796875 
z
M 9.8125 72.90625 
L 35.015625 72.90625 
Q 46.296875 72.90625 52.390625 68.21875 
Q 58.5 63.53125 58.5 54.890625 
Q 58.5 48.1875 55.375 44.234375 
Q 52.25 40.28125 46.1875 39.3125 
Q 53.46875 37.75 57.5 32.78125 
Q 61.53125 27.828125 61.53125 20.40625 
Q 61.53125 10.640625 54.890625 5.3125 
Q 48.25 0 35.984375 0 
L 9.8125 0 
z
" id="DejaVuSans-66"/>
       <path d="M 9.8125 72.90625 
L 19.671875 72.90625 
L 19.671875 0 
L 9.8125 0 
z
" id="DejaVuSans-73"/>
       <path d="M 39.40625 66.21875 
Q 28.65625 66.21875 22.328125 58.203125 
Q 16.015625 50.203125 16.015625 36.375 
Q 16.015625 22.609375 22.328125 14.59375 
Q 28.65625 6.59375 39.40625 6.59375 
Q 50.140625 6.59375 56.421875 14.59375 
Q 62.703125 22.609375 62.703125 36.375 
Q 62.703125 50.203125 56.421875 58.203125 
Q 50.140625 66.21875 39.40625 66.21875 
z
M 39.40625 74.21875 
Q 54.734375 74.21875 63.90625 63.9375 
Q 73.09375 53.65625 73.09375 36.375 
Q 73.09375 19.140625 63.90625 8.859375 
Q 54.734375 -1.421875 39.40625 -1.421875 
Q 24.03125 -1.421875 14.8125 8.828125 
Q 5.609375 19.09375 5.609375 36.375 
Q 5.609375 53.65625 14.8125 63.9375 
Q 24.03125 74.21875 39.40625 74.21875 
z
" id="DejaVuSans-79"/>
      </defs>
      <use xlink:href="#DejaVuSans-119"/>
      <use x="81.787109" xlink:href="#DejaVuSans-105"/>
      <use x="109.570312" xlink:href="#DejaVuSans-110"/>
      <use x="172.949219" xlink:href="#DejaVuSans-100"/>
      <use x="236.425781" xlink:href="#DejaVuSans-95"/>
      <use x="286.425781" xlink:href="#DejaVuSans-115"/>
      <use x="338.525391" xlink:href="#DejaVuSans-112"/>
      <use x="402.001953" xlink:href="#DejaVuSans-101"/>
      <use x="463.525391" xlink:href="#DejaVuSans-101"/>
      <use x="525.048828" xlink:href="#DejaVuSans-100"/>
      <use x="588.525391" xlink:href="#DejaVuSans-32"/>
      <use x="620.3125" xlink:href="#DejaVuSans-102"/>
      <use x="655.517578" xlink:href="#DejaVuSans-114"/>
      <use x="694.380859" xlink:href="#DejaVuSans-111"/>
      <use x="755.5625" xlink:href="#DejaVuSans-109"/>
      <use x="852.974609" xlink:href="#DejaVuSans-32"/>
      <use x="884.761719" xlink:href="#DejaVuSans-87"/>
      <use x="977.763672" xlink:href="#DejaVuSans-101"/>
      <use x="1039.287109" xlink:href="#DejaVuSans-97"/>
      <use x="1100.566406" xlink:href="#DejaVuSans-116"/>
      <use x="1139.775391" xlink:href="#DejaVuSans-104"/>
      <use x="1203.154297" xlink:href="#DejaVuSans-101"/>
      <use x="1264.677734" xlink:href="#DejaVuSans-114"/>
      <use x="1305.791016" xlink:href="#DejaVuSans-66"/>
      <use x="1374.394531" xlink:href="#DejaVuSans-105"/>
      <use x="1402.177734" xlink:href="#DejaVuSans-116"/>
      <use x="1441.386719" xlink:href="#DejaVuSans-73"/>
      <use x="1470.878906" xlink:href="#DejaVuSans-79"/>
     </g>
    </g>
   </g>
   <g id="matplotlib.axis_2">
    <g id="ytick_1">
     <g id="line2d_6">
      <defs>
       <path d="M 0 0 
L -3.5 0 
" id="m42a8f259f0" style="stroke:#000000;stroke-width:0.8;"/>
      </defs>
      <g>
       <use style="stroke:#000000;stroke-width:0.8;" x="57.6" xlink:href="#m42a8f259f0" y="286.041209"/>
      </g>
     </g>
     <g id="text_7">
      <!-- 3.5 -->
      <g transform="translate(34.696875 289.840428)scale(0.1 -0.1)">
       <defs>
        <path d="M 40.578125 39.3125 
Q 47.65625 37.796875 51.625 33 
Q 55.609375 28.21875 55.609375 21.1875 
Q 55.609375 10.40625 48.1875 4.484375 
Q 40.765625 -1.421875 27.09375 -1.421875 
Q 22.515625 -1.421875 17.65625 -0.515625 
Q 12.796875 0.390625 7.625 2.203125 
L 7.625 11.71875 
Q 11.71875 9.328125 16.59375 8.109375 
Q 21.484375 6.890625 26.8125 6.890625 
Q 36.078125 6.890625 40.9375 10.546875 
Q 45.796875 14.203125 45.796875 21.1875 
Q 45.796875 27.640625 41.28125 31.265625 
Q 36.765625 34.90625 28.71875 34.90625 
L 20.21875 34.90625 
L 20.21875 43.015625 
L 29.109375 43.015625 
Q 36.375 43.015625 40.234375 45.921875 
Q 44.09375 48.828125 44.09375 54.296875 
Q 44.09375 59.90625 40.109375 62.90625 
Q 36.140625 65.921875 28.71875 65.921875 
Q 24.65625 65.921875 20.015625 65.03125 
Q 15.375 64.15625 9.8125 62.3125 
L 9.8125 71.09375 
Q 15.4375 72.65625 20.34375 73.4375 
Q 25.25 74.21875 29.59375 74.21875 
Q 40.828125 74.21875 47.359375 69.109375 
Q 53.90625 64.015625 53.90625 55.328125 
Q 53.90625 49.265625 50.4375 45.09375 
Q 46.96875 40.921875 40.578125 39.3125 
z
" id="DejaVuSans-51"/>
        <path d="M 10.6875 12.40625 
L 21 12.40625 
L 21 0 
L 10.6875 0 
z
" id="DejaVuSans-46"/>
        <path d="M 10.796875 72.90625 
L 49.515625 72.90625 
L 49.515625 64.59375 
L 19.828125 64.59375 
L 19.828125 46.734375 
Q 21.96875 47.46875 24.109375 47.828125 
Q 26.265625 48.1875 28.421875 48.1875 
Q 40.625 48.1875 47.75 41.5 
Q 54.890625 34.8125 54.890625 23.390625 
Q 54.890625 11.625 47.5625 5.09375 
Q 40.234375 -1.421875 26.90625 -1.421875 
Q 22.3125 -1.421875 17.546875 -0.640625 
Q 12.796875 0.140625 7.71875 1.703125 
L 7.71875 11.625 
Q 12.109375 9.234375 16.796875 8.0625 
Q 21.484375 6.890625 26.703125 6.890625 
Q 35.15625 6.890625 40.078125 11.328125 
Q 45.015625 15.765625 45.015625 23.390625 
Q 45.015625 31 40.078125 35.4375 
Q 35.15625 39.890625 26.703125 39.890625 
Q 22.75 39.890625 18.8125 39.015625 
Q 14.890625 38.140625 10.796875 36.28125 
z
" id="DejaVuSans-53"/>
       </defs>
       <use xlink:href="#DejaVuSans-51"/>
       <use x="63.623047" xlink:href="#DejaVuSans-46"/>
       <use x="95.410156" xlink:href="#DejaVuSans-53"/>
      </g>
     </g>
    </g>
    <g id="ytick_2">
     <g id="line2d_7">
      <g>
       <use style="stroke:#000000;stroke-width:0.8;" x="57.6" xlink:href="#m42a8f259f0" y="244.968204"/>
      </g>
     </g>
     <g id="text_8">
      <!-- 4.0 -->
      <g transform="translate(34.696875 248.767422)scale(0.1 -0.1)">
       <use xlink:href="#DejaVuSans-52"/>
       <use x="63.623047" xlink:href="#DejaVuSans-46"/>
       <use x="95.410156" xlink:href="#DejaVuSans-48"/>
      </g>
     </g>
    </g>
    <g id="ytick_3">
     <g id="line2d_8">
      <g>
       <use style="stroke:#000000;stroke-width:0.8;" x="57.6" xlink:href="#m42a8f259f0" y="203.895199"/>
      </g>
     </g>
     <g id="text_9">
      <!-- 4.5 -->
      <g transform="translate(34.696875 207.694417)scale(0.1 -0.1)">
       <use xlink:href="#DejaVuSans-52"/>
       <use x="63.623047" xlink:href="#DejaVuSans-46"/>
       <use x="95.410156" xlink:href="#DejaVuSans-53"/>
      </g>
     </g>
    </g>
    <g id="ytick_4">
     <g id="line2d_9">
      <g>
       <use style="stroke:#000000;stroke-width:0.8;" x="57.6" xlink:href="#m42a8f259f0" y="162.822194"/>
      </g>
     </g>
     <g id="text_10">
      <!-- 5.0 -->
      <g transform="translate(34.696875 166.621412)scale(0.1 -0.1)">
       <use xlink:href="#DejaVuSans-53"/>
       <use x="63.623047" xlink:href="#DejaVuSans-46"/>
       <use x="95.410156" xlink:href="#DejaVuSans-48"/>
      </g>
     </g>
    </g>
    <g id="ytick_5">
     <g id="line2d_10">
      <g>
       <use style="stroke:#000000;stroke-width:0.8;" x="57.6" xlink:href="#m42a8f259f0" y="121.749188"/>
      </g>
     </g>
     <g id="text_11">
      <!-- 5.5 -->
      <g transform="translate(34.696875 125.548407)scale(0.1 -0.1)">
       <use xlink:href="#DejaVuSans-53"/>
       <use x="63.623047" xlink:href="#DejaVuSans-46"/>
       <use x="95.410156" xlink:href="#DejaVuSans-53"/>
      </g>
     </g>
    </g>
    <g id="ytick_6">
     <g id="line2d_11">
      <g>
       <use style="stroke:#000000;stroke-width:0.8;" x="57.6" xlink:href="#m42a8f259f0" y="80.676183"/>
      </g>
     </g>
     <g id="text_12">
      <!-- 6.0 -->
      <g transform="translate(34.696875 84.475402)scale(0.1 -0.1)">
       <use xlink:href="#DejaVuSans-54"/>
       <use x="63.623047" xlink:href="#DejaVuSans-46"/>
       <use x="95.410156" xlink:href="#DejaVuSans-48"/>
      </g>
     </g>
    </g>
    <g id="text_13">
     <!-- ping_day[ms] -->
     <g transform="translate(28.339062 208.508469)rotate(-90)scale(0.1 -0.1)">
      <defs>
       <path d="M 45.40625 27.984375 
Q 45.40625 37.75 41.375 43.109375 
Q 37.359375 48.484375 30.078125 48.484375 
Q 22.859375 48.484375 18.828125 43.109375 
Q 14.796875 37.75 14.796875 27.984375 
Q 14.796875 18.265625 18.828125 12.890625 
Q 22.859375 7.515625 30.078125 7.515625 
Q 37.359375 7.515625 41.375 12.890625 
Q 45.40625 18.265625 45.40625 27.984375 
z
M 54.390625 6.78125 
Q 54.390625 -7.171875 48.1875 -13.984375 
Q 42 -20.796875 29.203125 -20.796875 
Q 24.46875 -20.796875 20.265625 -20.09375 
Q 16.0625 -19.390625 12.109375 -17.921875 
L 12.109375 -9.1875 
Q 16.0625 -11.328125 19.921875 -12.34375 
Q 23.78125 -13.375 27.78125 -13.375 
Q 36.625 -13.375 41.015625 -8.765625 
Q 45.40625 -4.15625 45.40625 5.171875 
L 45.40625 9.625 
Q 42.625 4.78125 38.28125 2.390625 
Q 33.9375 0 27.875 0 
Q 17.828125 0 11.671875 7.65625 
Q 5.515625 15.328125 5.515625 27.984375 
Q 5.515625 40.671875 11.671875 48.328125 
Q 17.828125 56 27.875 56 
Q 33.9375 56 38.28125 53.609375 
Q 42.625 51.21875 45.40625 46.390625 
L 45.40625 54.6875 
L 54.390625 54.6875 
z
" id="DejaVuSans-103"/>
       <path d="M 32.171875 -5.078125 
Q 28.375 -14.84375 24.75 -17.8125 
Q 21.140625 -20.796875 15.09375 -20.796875 
L 7.90625 -20.796875 
L 7.90625 -13.28125 
L 13.1875 -13.28125 
Q 16.890625 -13.28125 18.9375 -11.515625 
Q 21 -9.765625 23.484375 -3.21875 
L 25.09375 0.875 
L 2.984375 54.6875 
L 12.5 54.6875 
L 29.59375 11.921875 
L 46.6875 54.6875 
L 56.203125 54.6875 
z
" id="DejaVuSans-121"/>
       <path d="M 8.59375 75.984375 
L 29.296875 75.984375 
L 29.296875 69 
L 17.578125 69 
L 17.578125 -6.203125 
L 29.296875 -6.203125 
L 29.296875 -13.1875 
L 8.59375 -13.1875 
z
" id="DejaVuSans-91"/>
       <path d="M 30.421875 75.984375 
L 30.421875 -13.1875 
L 9.71875 -13.1875 
L 9.71875 -6.203125 
L 21.390625 -6.203125 
L 21.390625 69 
L 9.71875 69 
L 9.71875 75.984375 
z
" id="DejaVuSans-93"/>
      </defs>
      <use xlink:href="#DejaVuSans-112"/>
      <use x="63.476562" xlink:href="#DejaVuSans-105"/>
      <use x="91.259766" xlink:href="#DejaVuSans-110"/>
      <use x="154.638672" xlink:href="#DejaVuSans-103"/>
      <use x="218.115234" xlink:href="#DejaVuSans-95"/>
      <use x="268.115234" xlink:href="#DejaVuSans-100"/>
      <use x="331.591797" xlink:href="#DejaVuSans-97"/>
      <use x="392.871094" xlink:href="#DejaVuSans-121"/>
      <use x="452.050781" xlink:href="#DejaVuSans-91"/>
      <use x="491.064453" xlink:href="#DejaVuSans-109"/>
      <use x="588.476562" xlink:href="#DejaVuSans-115"/>
      <use x="640.576172" xlink:href="#DejaVuSans-93"/>
     </g>
    </g>
   </g>
   <g id="line2d_12">
    <path clip-path="url(#p7f865b78ff)" d="M 73.832727 217.284998 
L 76.437293 241.271633 
L 77.367531 198.30927 
L 77.637417 223.856679 
L 79.516179 227.55325 
L 82.397527 220.160109 
L 85.302609 240.943049 
L 88.625436 236.178581 
L 91.75743 295.488 
L 92.119818 258.440149 
L 92.884977 226.238913 
L 92.903302 208.741813 
L 93.63242 176.787015 
L 97.141927 197.159226 
L 97.166957 232.07128 
L 100.884784 229.524754 
L 100.970123 224.595993 
L 101.375485 227.388958 
L 101.431489 227.060374 
L 102.425846 244.475328 
L 102.490993 250.882716 
L 102.782061 213.75272 
L 103.142849 208.988251 
L 103.818326 208.741813 
L 103.873568 223.281657 
L 104.585237 231.824842 
L 105.263 232.317718 
L 106.44937 175.965555 
L 106.760249 236.835749 
L 107.591927 219.010065 
L 108.764201 221.228007 
L 110.361648 245.707518 
L 110.488514 225.171015 
L 112.170157 201.923694 
L 112.47456 233.632054 
L 112.75077 222.049467 
L 112.9645 218.68148 
L 113.164514 227.224666 
L 113.23309 223.445949 
L 113.347765 228.046126 
L 114.760056 218.599334 
L 115.038933 213.34199 
L 115.823369 237.985793 
L 116.203968 231.578404 
L 116.941925 249.732672 
L 117.514537 218.517188 
L 118.822059 222.788781 
L 118.98969 218.188604 
L 119.241136 230.756944 
L 119.488011 251.129154 
L 119.667833 205.291681 
L 121.159368 237.492917 
L 121.53349 229.524754 
L 121.710264 239.300129 
L 122.372406 254.907871 
L 122.591089 252.689929 
L 124.890681 230.921236 
L 125.561966 226.403205 
L 126.597469 228.867586 
L 126.785292 193.051925 
L 126.819961 213.75272 
L 127.086265 218.68148 
L 127.241324 231.167674 
L 127.750313 225.746037 
L 127.752598 220.652985 
L 127.787648 244.475328 
L 128.458934 234.042784 
L 129.034975 207.016747 
L 129.902465 213.506282 
L 130.283445 218.435042 
L 130.88425 248.582628 
L 131.669067 214.656326 
L 131.851175 227.55325 
L 132.040141 196.748496 
L 132.463409 253.429243 
L 132.466457 246.28254 
L 132.515604 225.581745 
L 133.242893 216.545684 
L 133.378522 191.162567 
L 133.736643 203.895199 
L 134.091716 232.317718 
L 134.296302 220.817277 
L 134.741667 247.186146 
L 135.327994 248.993358 
L 135.474671 208.906105 
L 135.591251 216.956414 
L 136.22901 215.231348 
L 137.630634 273.308577 
L 137.66416 194.366261 
L 137.876366 208.577521 
L 138.338494 169.968896 
L 138.925583 248.582628 
L 139.018161 241.435925 
L 140.210246 190.423253 
L 140.331778 219.585087 
L 141.219079 234.864244 
L 141.342136 208.331083 
L 141.735688 227.14252 
L 142.445071 214.820618 
L 142.667182 225.335307 
L 143.458096 241.846655 
L 143.573152 248.664774 
L 143.612773 226.649643 
L 144.031089 223.281657 
L 144.602558 232.317718 
L 144.956488 220.077963 
L 146.088378 230.346214 
L 146.321537 238.642961 
L 146.330681 228.456856 
L 146.425545 241.600217 
L 146.639655 214.656326 
L 146.644989 236.425019 
L 146.670515 223.199511 
L 147.166931 210.87761 
L 147.712112 221.310153 
L 147.741448 216.62783 
L 147.949463 207.756061 
L 148.640178 230.01763 
L 148.659989 223.938825 
L 148.840955 251.539885 
L 148.982679 229.6069 
L 149.058875 248.582628 
L 149.072971 221.967321 
L 149.209743 239.793005 
L 149.224982 231.331966 
L 149.301559 205.784557 
L 149.312607 238.971545 
L 149.839883 236.096435 
L 149.895506 236.260727 
L 149.957224 238.067939 
L 150.29782 214.327742 
L 150.343538 245.625372 
L 150.742042 267.394065 
L 151.251793 231.66055 
L 151.700206 214.081304 
L 151.749733 230.01763 
L 151.782116 217.03856 
L 152.486547 232.728448 
L 152.691133 225.499599 
L 152.978773 236.096435 
L 153.511763 217.695728 
L 153.557861 226.321059 
L 154.340393 236.917895 
L 154.347632 227.799688 
L 154.578505 207.181039 
L 154.815094 219.749379 
L 154.876431 239.710859 
L 155.065016 227.388958 
L 155.500476 229.114024 
L 155.585815 194.859138 
L 156.452162 201.677256 
L 156.475402 244.146744 
L 156.810283 253.757827 
L 156.843428 227.14252 
L 156.991248 231.989134 
L 157.739873 207.427477 
L 158.223336 209.316835 
L 158.266006 204.305929 
L 159.762112 222.460197 
L 159.812782 209.316835 
L 159.953364 221.392299 
L 160.16595 214.738472 
L 160.246718 236.917895 
L 161.250599 211.452632 
L 161.750444 237.082187 
L 161.813686 231.578404 
L 161.841498 249.814818 
L 162.014463 216.874268 
L 162.464018 199.623606 
L 162.615267 224.103117 
L 162.875095 218.352896 
L 163.218358 240.039443 
L 163.744871 252.114907 
L 164.039368 228.621148 
L 164.438254 232.48201 
L 164.457303 242.093093 
L 164.637506 213.917012 
L 165.347652 248.007606 
L 165.522902 215.477786 
L 166.148852 204.305929 
L 166.936717 262.218866 
L 167.087585 222.460197 
L 167.752394 209.563273 
L 167.785539 225.746037 
L 168.153566 207.509623 
L 168.42368 215.559932 
L 168.704081 236.753603 
L 168.805802 210.138295 
L 169.230976 235.849997 
L 169.238214 232.564156 
L 169.421846 222.706635 
L 169.730059 231.906988 
L 170.31029 262.054574 
L 170.316767 226.896081 
L 170.638695 228.37471 
L 170.74956 212.438384 
L 171.446752 249.896964 
L 171.795348 240.450173 
L 172.137849 221.392299 
L 172.212902 233.139178 
L 172.332529 225.335307 
L 172.782847 203.895199 
L 172.844947 271.172781 
L 172.998862 222.542343 
L 173.228974 255.811477 
L 173.439275 220.324401 
L 173.492231 221.638737 
L 173.492993 236.178581 
L 173.534901 179.99071 
L 173.971503 231.824842 
L 173.985599 206.441725 
L 174.288859 229.031878 
L 174.375341 245.789664 
L 174.506398 195.02343 
L 174.607739 226.074621 
L 174.848899 233.878492 
L 174.874424 222.049467 
L 175.042817 237.739355 
L 175.585332 235.849997 
L 175.842112 242.421677 
L 176.080986 231.906988 
L 176.143848 245.953956 
L 176.374721 218.517188 
L 177.383174 53.568 
L 177.392699 234.042784 
L 177.568711 234.207076 
L 177.726818 229.771192 
L 177.77063 224.267409 
L 177.816729 256.961521 
L 177.965692 213.424136 
L 178.103987 241.025195 
L 178.31886 237.985793 
L 178.747462 206.852455 
L 178.842706 243.160992 
L 180.557876 217.202852 
L 180.954476 235.110683 
L 181.446701 231.989134 
L 181.994931 211.945508 
L 182.413246 257.536543 
L 182.610974 248.911212 
L 183.388934 231.24982 
L 183.432747 232.399864 
L 184.105938 206.688163 
L 184.592068 242.750261 
L 185.373837 244.22889 
L 185.527753 254.990017 
L 185.698432 234.207076 
L 185.749483 212.602676 
L 186.112938 237.903647 
L 186.256948 216.709976 
L 186.413911 222.131613 
L 186.438294 220.242255 
L 187.07453 233.960638 
L 188.028121 258.029419 
L 188.794271 201.348672 
L 188.980951 240.614465 
L 189.28383 235.192829 
L 190.205419 229.853338 
L 190.318189 240.778757 
L 190.514012 239.053691 
L 190.667547 247.268292 
L 191.114817 215.642078 
L 191.229492 233.549908 
L 191.556372 234.12493 
L 191.588374 236.835749 
L 191.802104 184.015864 
L 191.827249 225.910329 
L 192.190703 243.40743 
L 192.307283 215.642078 
L 192.746933 223.610241 
L 192.869989 239.464421 
L 192.892848 171.940401 
L 193.102006 247.186146 
L 193.196108 203.402323 
L 193.449459 240.450173 
L 193.5508 219.174357 
L 193.660141 256.304353 
L 194.606494 231.578404 
L 194.666688 228.210418 
L 195.839724 210.466879 
L 196.297662 237.410771 
L 196.64321 245.953956 
L 196.763599 232.646302 
L 196.792554 250.061256 
L 196.92323 239.135837 
L 197.670712 245.625372 
L 197.760623 215.724224 
L 198.169414 214.245596 
L 199.28035 212.602676 
L 199.695236 251.129154 
L 199.804577 222.049467 
L 199.953159 231.414112 
L 200.125743 228.046126 
L 200.326519 256.715083 
L 200.795505 190.916129 
L 200.811125 258.193711 
L 201.392119 257.782981 
L 201.462219 224.103117 
L 201.651947 249.321942 
L 202.686687 204.305929 
L 203.605991 233.057032 
L 203.665804 278.976652 
L 203.898202 226.321059 
L 204.232321 237.082187 
L 204.534819 172.597569 
L 204.960373 248.33619 
L 204.967992 211.863362 
L 205.686138 205.784557 
L 205.701759 230.181922 
L 206.241607 223.528095 
L 206.469813 247.843314 
L 207.121288 233.878492 
L 207.934298 234.699952 
L 208.150314 238.725107 
L 208.593774 202.252278 
L 208.966372 232.153426 
L 209.4365 237.985793 
L 209.44412 226.321059 
L 209.795764 231.906988 
L 210.083022 229.689046 
L 210.407617 240.039443 
L 210.507053 227.14252 
L 211.128811 237.082187 
L 211.557794 220.817277 
L 211.615703 210.384733 
L 211.802383 220.817277 
L 211.940678 230.756944 
L 212.250034 244.721766 
L 212.351755 238.560815 
L 212.827599 232.564156 
L 212.853124 218.927919 
L 213.18991 233.796346 
L 213.656991 235.521413 
L 213.702708 230.83909 
L 214.057019 230.01763 
L 214.105023 235.849997 
L 215.254438 230.181922 
L 215.406829 227.471104 
L 215.457119 219.174357 
L 215.810287 232.728448 
L 216.295655 233.549908 
L 216.678158 260.658092 
L 217.124285 243.982452 
L 218.315608 214.98491 
L 218.65087 236.096435 
L 218.757925 214.738472 
L 218.812405 245.378934 
L 218.968606 235.192829 
L 219.475309 225.171015 
L 219.494739 260.411654 
L 219.684848 199.212876 
L 219.743138 216.545684 
L 219.988489 243.160992 
L 220.899029 205.866703 
L 221.805761 221.638737 
L 222.038539 219.420795 
L 222.472856 239.217983 
L 223.622652 237.410771 
L 224.607484 251.047008 
L 224.640629 261.72599 
L 225.463544 239.217983 
L 226.050253 239.957297 
L 226.689536 248.418336 
L 227.292246 205.127389 
L 228.091922 212.191946 
L 228.187167 205.620265 
L 228.314795 252.689929 
L 228.326986 201.102234 
L 228.751016 223.692387 
L 228.76016 241.600217 
L 229.259243 227.717542 
L 229.454304 238.642961 
L 229.848618 230.181922 
L 230.360273 207.345331 
L 230.989271 189.437501 
L 231.144329 234.864244 
L 231.387775 209.152543 
L 231.540167 250.554132 
L 231.810662 225.088869 
L 232.397752 220.652985 
L 233.176093 217.942166 
L 233.18295 223.856679 
L 233.401632 225.828183 
L 233.890429 256.550791 
L 233.977292 246.28254 
L 234.564382 231.742696 
L 234.66496 197.569956 
L 234.79335 216.2171 
L 234.988412 217.44929 
L 235.469208 234.617806 
L 235.616647 227.388958 
L 235.697796 251.786323 
L 236.420133 223.856679 
L 236.435753 242.257385 
L 236.820161 217.284998 
L 237.196569 248.418336 
L 237.227047 236.917895 
L 237.279241 242.996699 
L 237.404965 233.549908 
L 238.401226 232.810594 
L 238.486184 219.831525 
L 238.495709 241.025195 
L 238.960123 222.870927 
L 239.154803 229.114024 
L 240.092394 242.914553 
L 240.12592 229.6069 
L 240.820446 252.607783 
L 240.983124 230.181922 
L 241.052462 244.393182 
L 241.06732 218.352896 
L 244.368888 275.855104 
L 244.484325 219.502941 
L 245.317527 208.084645 
L 245.566688 254.497141 
L 245.626121 231.824842 
L 245.657361 253.018513 
L 246.002147 225.581745 
L 246.503135 220.160109 
L 246.552663 220.242255 
L 247.0807 235.274975 
L 247.57064 203.155885 
L 247.744366 238.889399 
L 247.934856 226.649643 
L 248.699101 230.83909 
L 248.707482 231.989134 
L 249.194755 247.679022 
L 249.72165 237.739355 
L 249.77232 233.632054 
L 250.349885 213.506282 
L 250.631429 238.642961 
L 250.676003 249.56838 
L 250.778487 221.392299 
L 250.781916 224.267409 
L 250.800965 249.896964 
L 252.187349 244.393182 
L 252.504324 223.610241 
L 252.520325 240.450173 
L 252.667383 246.118248 
L 252.852539 231.989134 
L 252.922639 253.675681 
L 253.24571 229.19617 
L 253.460201 239.300129 
L 254.186729 230.674798 
L 255.322048 240.943049 
L 255.481678 228.78544 
L 255.736554 246.446832 
L 256.095817 211.28834 
L 256.192205 232.646302 
L 256.59109 256.057915 
L 256.802534 208.741813 
L 257.04979 230.01763 
L 257.114937 265.093976 
L 257.435341 201.348672 
L 257.45058 235.849997 
L 257.674215 235.357121 
L 258.108151 239.875151 
L 258.554659 215.559932 
L 258.717718 246.857562 
L 259.212229 241.353779 
L 259.437007 218.435042 
L 259.819129 204.880951 
L 259.829797 252.279199 
L 260.10715 222.953073 
L 260.122008 262.629596 
L 260.494606 253.264951 
L 260.835583 212.849114 
L 260.919779 238.971545 
L 261.055027 181.551484 
L 262.405218 261.972428 
L 262.813628 236.671457 
L 263.101268 235.439267 
L 263.614828 232.399864 
L 264.578325 230.921236 
L 265.255706 247.432584 
L 265.349427 240.614465 
L 265.504867 248.33619 
L 265.584873 213.999158 
L 265.878227 226.649643 
L 265.971186 208.823959 
L 266.127006 255.811477 
L 266.487413 261.890282 
L 266.615803 256.797229 
L 266.939636 226.403205 
L 267.008212 243.736014 
L 267.343855 231.414112 
L 267.385763 237.739355 
L 267.947707 222.542343 
L 268.352308 227.060374 
L 268.510033 240.614465 
L 269.375999 230.921236 
L 269.408002 219.831525 
L 269.451433 252.854221 
L 269.926515 230.592652 
L 269.929182 254.497141 
L 270.071668 212.849114 
L 270.076621 232.235572 
L 271.014592 220.242255 
L 271.283944 211.28834 
L 271.412335 191.491151 
L 271.872939 242.750261 
L 272.549177 225.253161 
L 273.123313 219.749379 
L 273.71726 221.803029 
L 274.078048 231.496258 
L 274.194247 217.613582 
L 274.418263 232.235572 
L 274.750858 234.453514 
L 275.073928 219.995817 
L 275.260227 262.711742 
L 276.666041 215.067056 
L 276.678233 232.728448 
L 277.298086 229.360462 
L 278.319492 255.729331 
L 279.483385 228.703294 
L 280.270107 227.471104 
L 280.28687 253.511389 
L 280.526506 259.918778 
L 281.683541 242.175239 
L 282.074807 237.985793 
L 282.670278 208.577521 
L 283.032589 218.927919 
L 283.391091 216.2171 
L 284.70928 222.706635 
L 284.908532 224.513847 
L 287.152882 233.632054 
L 287.372707 215.970662 
L 287.789499 236.507165 
L 289.267318 225.088869 
L 289.572864 247.432584 
L 289.692872 206.523871 
L 291.072018 206.606017 
L 291.33718 216.2171 
L 292.556314 191.326859 
L 292.790235 282.426784 
L 294.024609 240.532319 
L 294.442924 255.482893 
L 295.240695 227.14252 
L 295.552336 226.567497 
L 295.66282 240.285881 
L 295.71311 266.736896 
L 297.130353 220.817277 
L 299.13621 211.863362 
L 300.077229 249.732672 
L 300.672319 225.006723 
L 300.78547 198.555708 
L 300.95272 197.569956 
L 301.316175 233.796346 
L 301.592766 233.549908 
L 302.619124 209.398981 
L 302.921241 213.259844 
L 302.957815 251.375593 
L 304.329722 187.548143 
L 304.559834 214.327742 
L 305.243692 237.821501 
L 305.855164 248.911212 
L 307.185163 223.938825 
L 307.244215 230.099776 
L 308.726987 221.967321 
L 308.988339 228.456856 
L 310.834185 255.236455 
L 311.08144 249.404088 
L 311.300122 223.363803 
L 311.947407 213.75272 
L 312.337149 232.07128 
L 312.38058 210.138295 
L 313.257976 220.077963 
L 313.658385 235.439267 
L 314.007744 214.492034 
L 314.571212 191.819735 
L 315.509946 214.245596 
L 316.397247 219.502941 
L 316.518398 230.181922 
L 317.399985 230.756944 
L 318.284238 230.510506 
L 318.473585 244.475328 
L 318.518921 234.042784 
L 319.152109 239.793005 
L 319.619952 242.668115 
L 320.179992 219.174357 
L 320.515254 235.357121 
L 320.960238 235.439267 
L 321.293214 249.732672 
L 321.644096 227.388958 
L 322.719601 224.431701 
L 323.372981 209.234689 
L 323.605378 197.652102 
L 323.924258 249.732672 
L 325.836775 210.795463 
L 326.263091 244.721766 
L 328.532586 255.400747 
L 328.598495 230.83909 
L 329.576088 212.602676 
L 330.356715 251.375593 
L 330.462247 222.624489 
L 331.775102 235.767851 
L 332.854798 239.382275 
L 333.241873 196.25562 
L 334.622923 218.188604 
L 335.705286 212.849114 
L 335.882822 196.25562 
L 335.978829 200.937942 
L 338.023165 219.010065 
L 342.892464 231.989134 
L 343.532128 225.088869 
L 343.827387 241.271633 
L 344.052927 234.371368 
L 346.86265 238.725107 
L 348.364853 219.667233 
L 351.447357 229.442608 
L 354.28413 211.945508 
L 357.20891 248.418336 
L 360.497906 227.799688 
L 361.25034 228.456856 
L 372.513998 247.596876 
L 378.163161 214.492034 
L 379.739654 244.22889 
L 382.544044 240.614465 
L 385.262714 223.035219 
L 386.80949 247.92546 
L 388.742199 218.27075 
L 393.403102 231.085528 
L 398.487273 252.114907 
L 398.487273 252.114907 
" style="fill:none;stroke:#0000ff;stroke-linecap:square;stroke-width:1.5;"/>
   </g>
   <g id="patch_3">
    <path d="M 57.6 307.584 
L 57.6 41.472 
" style="fill:none;stroke:#000000;stroke-linecap:square;stroke-linejoin:miter;stroke-width:0.8;"/>
   </g>
   <g id="patch_4">
    <path d="M 414.72 307.584 
L 414.72 41.472 
" style="fill:none;stroke:#000000;stroke-linecap:square;stroke-linejoin:miter;stroke-width:0.8;"/>
   </g>
   <g id="patch_5">
    <path d="M 57.6 307.584 
L 414.72 307.584 
" style="fill:none;stroke:#000000;stroke-linecap:square;stroke-linejoin:miter;stroke-width:0.8;"/>
   </g>
   <g id="patch_6">
    <path d="M 57.6 41.472 
L 414.72 41.472 
" style="fill:none;stroke:#000000;stroke-linecap:square;stroke-linejoin:miter;stroke-width:0.8;"/>
   </g>
   <g id="text_14">
    <!-- wind_speed-&gt;ping_day -->
    <g transform="translate(166.53 35.472)scale(0.12 -0.12)">
     <defs>
      <path d="M 4.890625 31.390625 
L 31.203125 31.390625 
L 31.203125 23.390625 
L 4.890625 23.390625 
z
" id="DejaVuSans-45"/>
      <path d="M 10.59375 49.21875 
L 10.59375 58.109375 
L 73.1875 35.40625 
L 73.1875 27.296875 
L 10.59375 4.59375 
L 10.59375 13.484375 
L 60.890625 31.296875 
z
" id="DejaVuSans-62"/>
     </defs>
     <use xlink:href="#DejaVuSans-119"/>
     <use x="81.787109" xlink:href="#DejaVuSans-105"/>
     <use x="109.570312" xlink:href="#DejaVuSans-110"/>
     <use x="172.949219" xlink:href="#DejaVuSans-100"/>
     <use x="236.425781" xlink:href="#DejaVuSans-95"/>
     <use x="286.425781" xlink:href="#DejaVuSans-115"/>
     <use x="338.525391" xlink:href="#DejaVuSans-112"/>
     <use x="402.001953" xlink:href="#DejaVuSans-101"/>
     <use x="463.525391" xlink:href="#DejaVuSans-101"/>
     <use x="525.048828" xlink:href="#DejaVuSans-100"/>
     <use x="588.525391" xlink:href="#DejaVuSans-45"/>
     <use x="624.609375" xlink:href="#DejaVuSans-62"/>
     <use x="708.398438" xlink:href="#DejaVuSans-112"/>
     <use x="771.875" xlink:href="#DejaVuSans-105"/>
     <use x="799.658203" xlink:href="#DejaVuSans-110"/>
     <use x="863.037109" xlink:href="#DejaVuSans-103"/>
     <use x="926.513672" xlink:href="#DejaVuSans-95"/>
     <use x="976.513672" xlink:href="#DejaVuSans-100"/>
     <use x="1039.990234" xlink:href="#DejaVuSans-97"/>
     <use x="1101.269531" xlink:href="#DejaVuSans-121"/>
    </g>
   </g>
  </g>
  <g id="legend_1">
   <g id="patch_7">
    <path d="M 353.839063 22.95625 
L 453.8 22.95625 
Q 455.8 22.95625 455.8 20.95625 
L 455.8 7 
Q 455.8 5 453.8 5 
L 353.839063 5 
Q 351.839063 5 351.839063 7 
L 351.839063 20.95625 
Q 351.839063 22.95625 353.839063 22.95625 
z
" style="fill:#ffffff;opacity:0.8;stroke:#cccccc;stroke-linejoin:miter;"/>
   </g>
   <g id="line2d_13">
    <path d="M 355.839063 13.098437 
L 375.839063 13.098437 
" style="fill:none;stroke:#0000ff;stroke-linecap:square;stroke-width:1.5;"/>
   </g>
   <g id="line2d_14"/>
   <g id="text_15">
    <!-- ping_day[ms] -->
    <g transform="translate(383.839063 16.598437)scale(0.1 -0.1)">
     <use xlink:href="#DejaVuSans-112"/>
     <use x="63.476562" xlink:href="#DejaVuSans-105"/>
     <use x="91.259766" xlink:href="#DejaVuSans-110"/>
     <use x="154.638672" xlink:href="#DejaVuSans-103"/>
     <use x="218.115234" xlink:href="#DejaVuSans-95"/>
     <use x="268.115234" xlink:href="#DejaVuSans-100"/>
     <use x="331.591797" xlink:href="#DejaVuSans-97"/>
     <use x="392.871094" xlink:href="#DejaVuSans-121"/>
     <use x="452.050781" xlink:href="#DejaVuSans-91"/>
     <use x="491.064453" xlink:href="#DejaVuSans-109"/>
     <use x="588.476562" xlink:href="#DejaVuSans-115"/>
     <use x="640.576172" xlink:href="#DejaVuSans-93"/>
    </g>
   </g>
  </g>
 </g>
 <defs>
  <clipPath id="p7f865b78ff">
   <rect height="266.112" width="357.12" x="57.6" y="41.472"/>
  </clipPath>
 </defs>
</svg>
