<?xml version="1.0" encoding="utf-8" standalone="no"?>
<!DOCTYPE svg PUBLIC "-//W3C//DTD SVG 1.1//EN"
  "http://www.w3.org/Graphics/SVG/1.1/DTD/svg11.dtd">
<!-- Created with matplotlib (https://matplotlib.org/) -->
<svg height="2090.31625pt" version="1.1" viewBox="0 0 2062.259375 2090.31625" width="2062.259375pt" xmlns="http://www.w3.org/2000/svg" xmlns:xlink="http://www.w3.org/1999/xlink">
 <metadata>
  <rdf:RDF xmlns:cc="http://creativecommons.org/ns#" xmlns:dc="http://purl.org/dc/elements/1.1/" xmlns:rdf="http://www.w3.org/1999/02/22-rdf-syntax-ns#">
   <cc:Work>
    <dc:type rdf:resource="http://purl.org/dc/dcmitype/StillImage"/>
    <dc:date>2022-07-24T11:38:58.716813</dc:date>
    <dc:format>image/svg+xml</dc:format>
    <dc:creator>
     <cc:Agent>
      <dc:title>Matplotlib v3.3.2, https://matplotlib.org/</dc:title>
     </cc:Agent>
    </dc:creator>
   </cc:Work>
  </rdf:RDF>
 </metadata>
 <defs>
  <style type="text/css">*{stroke-linecap:butt;stroke-linejoin:round;}</style>
 </defs>
 <g id="figure_1">
  <g id="patch_1">
   <path d="M 0 2090.31625 
L 2062.259375 2090.31625 
L 2062.259375 0 
L 0 0 
z
" style="fill:#ffffff;"/>
  </g>
  <g id="axes_1">
   <g id="patch_2">
    <path d="M 44.059375 2052.76 
L 1829.659375 2052.76 
L 1829.659375 278.68 
L 44.059375 278.68 
z
" style="fill:#ffffff;"/>
   </g>
   <g id="matplotlib.axis_1">
    <g id="xtick_1">
     <g id="line2d_1">
      <defs>
       <path d="M 0 0 
L 0 3.5 
" id="m2fc4a30f12" style="stroke:#000000;stroke-width:0.8;"/>
      </defs>
      <g>
       <use style="stroke:#000000;stroke-width:0.8;" x="60.292102" xlink:href="#m2fc4a30f12" y="2052.76"/>
      </g>
     </g>
     <g id="text_1">
      <text style="font-family:DejaVu Sans;font-size:10px;font-stretch:normal;font-style:normal;font-weight:normal;text-anchor:middle;" transform="rotate(-0, 60.292102, 2067.358438)" x="60.292102" y="2067.358438">5</text>
     </g>
    </g>
    <g id="xtick_2">
     <g id="line2d_2">
      <g>
       <use style="stroke:#000000;stroke-width:0.8;" x="384.946648" xlink:href="#m2fc4a30f12" y="2052.76"/>
      </g>
     </g>
     <g id="text_2">
      <text style="font-family:DejaVu Sans;font-size:10px;font-stretch:normal;font-style:normal;font-weight:normal;text-anchor:middle;" transform="rotate(-0, 384.946648, 2067.358438)" x="384.946648" y="2067.358438">10</text>
     </g>
    </g>
    <g id="xtick_3">
     <g id="line2d_3">
      <g>
       <use style="stroke:#000000;stroke-width:0.8;" x="709.601193" xlink:href="#m2fc4a30f12" y="2052.76"/>
      </g>
     </g>
     <g id="text_3">
      <text style="font-family:DejaVu Sans;font-size:10px;font-stretch:normal;font-style:normal;font-weight:normal;text-anchor:middle;" transform="rotate(-0, 709.601193, 2067.358438)" x="709.601193" y="2067.358438">15</text>
     </g>
    </g>
    <g id="xtick_4">
     <g id="line2d_4">
      <g>
       <use style="stroke:#000000;stroke-width:0.8;" x="1034.255739" xlink:href="#m2fc4a30f12" y="2052.76"/>
      </g>
     </g>
     <g id="text_4">
      <text style="font-family:DejaVu Sans;font-size:10px;font-stretch:normal;font-style:normal;font-weight:normal;text-anchor:middle;" transform="rotate(-0, 1034.255739, 2067.358438)" x="1034.255739" y="2067.358438">20</text>
     </g>
    </g>
    <g id="xtick_5">
     <g id="line2d_5">
      <g>
       <use style="stroke:#000000;stroke-width:0.8;" x="1358.910284" xlink:href="#m2fc4a30f12" y="2052.76"/>
      </g>
     </g>
     <g id="text_5">
      <text style="font-family:DejaVu Sans;font-size:10px;font-stretch:normal;font-style:normal;font-weight:normal;text-anchor:middle;" transform="rotate(-0, 1358.910284, 2067.358438)" x="1358.910284" y="2067.358438">25</text>
     </g>
    </g>
    <g id="xtick_6">
     <g id="line2d_6">
      <g>
       <use style="stroke:#000000;stroke-width:0.8;" x="1683.56483" xlink:href="#m2fc4a30f12" y="2052.76"/>
      </g>
     </g>
     <g id="text_6">
      <text style="font-family:DejaVu Sans;font-size:10px;font-stretch:normal;font-style:normal;font-weight:normal;text-anchor:middle;" transform="rotate(-0, 1683.56483, 2067.358438)" x="1683.56483" y="2067.358438">30</text>
     </g>
    </g>
    <g id="text_7">
     <text style="font-family:DejaVu Sans;font-size:10px;font-stretch:normal;font-style:normal;font-weight:normal;text-anchor:middle;" transform="rotate(-0, 936.859375, 2081.036562)" x="936.859375" y="2081.036562">temperature from WeatherAPI</text>
    </g>
   </g>
   <g id="matplotlib.axis_2">
    <g id="ytick_1">
     <g id="line2d_7">
      <defs>
       <path d="M 0 0 
L -3.5 0 
" id="me6a9a32963" style="stroke:#000000;stroke-width:0.8;"/>
      </defs>
      <g>
       <use style="stroke:#000000;stroke-width:0.8;" x="44.059375" xlink:href="#me6a9a32963" y="1846.12"/>
      </g>
     </g>
     <g id="text_8">
      <text style="font-family:DejaVu Sans;font-size:10px;font-stretch:normal;font-style:normal;font-weight:normal;text-anchor:end;" transform="rotate(-0, 37.059375, 1849.919219)" x="37.059375" y="1849.919219">3.4</text>
     </g>
    </g>
    <g id="ytick_2">
     <g id="line2d_8">
      <g>
       <use style="stroke:#000000;stroke-width:0.8;" x="44.059375" xlink:href="#me6a9a32963" y="1549.649412"/>
      </g>
     </g>
     <g id="text_9">
      <text style="font-family:DejaVu Sans;font-size:10px;font-stretch:normal;font-style:normal;font-weight:normal;text-anchor:end;" transform="rotate(-0, 37.059375, 1553.448631)" x="37.059375" y="1553.448631">3.6</text>
     </g>
    </g>
    <g id="ytick_3">
     <g id="line2d_9">
      <g>
       <use style="stroke:#000000;stroke-width:0.8;" x="44.059375" xlink:href="#me6a9a32963" y="1253.178824"/>
      </g>
     </g>
     <g id="text_10">
      <text style="font-family:DejaVu Sans;font-size:10px;font-stretch:normal;font-style:normal;font-weight:normal;text-anchor:end;" transform="rotate(-0, 37.059375, 1256.978042)" x="37.059375" y="1256.978042">3.8</text>
     </g>
    </g>
    <g id="ytick_4">
     <g id="line2d_10">
      <g>
       <use style="stroke:#000000;stroke-width:0.8;" x="44.059375" xlink:href="#me6a9a32963" y="956.708235"/>
      </g>
     </g>
     <g id="text_11">
      <text style="font-family:DejaVu Sans;font-size:10px;font-stretch:normal;font-style:normal;font-weight:normal;text-anchor:end;" transform="rotate(-0, 37.059375, 960.507454)" x="37.059375" y="960.507454">4.0</text>
     </g>
    </g>
    <g id="ytick_5">
     <g id="line2d_11">
      <g>
       <use style="stroke:#000000;stroke-width:0.8;" x="44.059375" xlink:href="#me6a9a32963" y="660.237647"/>
      </g>
     </g>
     <g id="text_12">
      <text style="font-family:DejaVu Sans;font-size:10px;font-stretch:normal;font-style:normal;font-weight:normal;text-anchor:end;" transform="rotate(-0, 37.059375, 664.036866)" x="37.059375" y="664.036866">4.2</text>
     </g>
    </g>
    <g id="ytick_6">
     <g id="line2d_12">
      <g>
       <use style="stroke:#000000;stroke-width:0.8;" x="44.059375" xlink:href="#me6a9a32963" y="363.767059"/>
      </g>
     </g>
     <g id="text_13">
      <text style="font-family:DejaVu Sans;font-size:10px;font-stretch:normal;font-style:normal;font-weight:normal;text-anchor:end;" transform="rotate(-0, 37.059375, 367.566278)" x="37.059375" y="367.566278">4.4</text>
     </g>
    </g>
    <g id="text_14">
     <text style="font-family:DejaVu Sans;font-size:10px;font-stretch:normal;font-style:normal;font-weight:normal;text-anchor:middle;" transform="rotate(-90, 14.798438, 1165.72)" x="14.798438" y="1165.72">ping_day[ms]</text>
    </g>
   </g>
   <g id="line2d_13">
    <path clip-path="url(#p84c3df350c)" d="M 125.223011 713.602353 
L 131.716102 449.743529 
L 170.674648 1152.378824 
L 177.167739 473.461176 
L 183.66083 635.037647 
L 190.15392 636.52 
L 196.647011 1085.672941 
L 222.619375 1067.884706 
L 235.605557 1096.049412 
L 242.098648 973.014118 
L 248.591739 418.614118 
L 255.08483 597.978824 
L 261.57792 946.331765 
L 268.071011 885.555294 
L 274.564102 661.72 
L 281.057193 790.684706 
L 287.550284 832.190588 
L 294.043375 854.425882 
L 300.536466 1136.072941 
L 313.522648 655.790588 
L 320.015739 1027.861176 
L 333.00192 620.214118 
L 345.988102 359.32 
L 352.481193 841.084706 
L 358.974284 915.202353 
L 365.467375 750.661176 
L 371.960466 892.967059 
L 378.453557 1087.155294 
L 384.946648 1067.884706 
L 391.439739 996.731765 
L 397.93283 575.743529 
L 404.42592 967.084706 
L 410.919011 721.014118 
L 417.412102 1259.108235 
L 430.398284 849.978824 
L 436.891375 721.014118 
L 443.384466 968.567059 
L 449.877557 1275.414118 
L 456.370648 1250.214118 
L 462.863739 529.790588 
L 469.35683 732.872941 
L 475.84992 826.261176 
L 482.343011 1128.661176 
L 488.836102 1319.884706 
L 495.329193 1226.496471 
L 501.822284 1164.237647 
L 508.315375 867.767059 
L 514.808466 935.955294 
L 521.301557 1054.543529 
L 527.794648 968.567059 
L 534.287739 998.214118 
L 540.78083 811.437647 
L 547.27392 1094.567059 
L 553.767011 1868.355294 
L 560.260102 682.472941 
L 566.753193 1199.814118 
L 573.246284 1128.661176 
L 579.739375 943.367059 
L 586.232466 1198.331765 
L 592.725557 678.025882 
L 599.218648 1036.755294 
L 605.711739 827.743529 
L 612.20483 1173.131765 
L 618.69792 1072.331765 
L 625.191011 806.990588 
L 631.684102 1146.449412 
L 638.177193 1085.672941 
L 644.670284 1226.496471 
L 651.163375 1313.955294 
L 657.656466 1045.649412 
L 664.149557 1072.331765 
L 670.642648 808.472941 
L 677.135739 1023.414118 
L 683.62883 1027.861176 
L 690.12192 1137.555294 
L 696.615011 1122.731765 
L 703.108102 878.143529 
L 709.601193 1115.32 
L 716.094284 1045.649412 
L 722.587375 953.743529 
L 729.080466 952.261176 
L 735.573557 560.92 
L 742.066648 1020.449412 
L 748.559739 1143.484706 
L 755.05283 1018.967059 
L 761.54592 1192.402353 
L 768.039011 1018.967059 
L 774.532102 1180.543529 
L 781.025193 1361.390588 
L 787.518284 1232.425882 
L 794.011375 1170.167059 
L 800.504466 990.802353 
L 806.997557 1349.531765 
L 813.490648 1570.402353 
L 819.983739 990.802353 
L 826.47683 1183.508235 
L 832.96992 1198.331765 
L 839.463011 1451.814118 
L 845.956102 916.684706 
L 852.449193 1396.967059 
L 858.942284 1144.967059 
L 865.435375 915.202353 
L 871.928466 971.531765 
L 878.421557 1021.931765 
L 884.914648 1239.837647 
L 891.407739 1632.661176 
L 897.90083 1023.414118 
L 904.39392 1972.12 
L 910.887011 1042.684706 
L 917.380102 1097.531765 
L 923.873193 1554.096471 
L 930.366284 984.872941 
L 936.859375 956.708235 
L 943.352466 1041.202353 
L 949.845557 847.014118 
L 956.338648 1211.672941 
L 962.831739 826.261176 
L 969.32483 1207.225882 
L 975.81792 1048.614118 
L 982.311011 952.261176 
L 988.804102 1315.437647 
L 995.297193 1039.72 
L 1001.790284 1468.12 
L 1008.283375 1276.896471 
L 1014.776466 1017.484706 
L 1021.269557 974.496471 
L 1027.762648 1039.72 
L 1034.255739 1127.178824 
L 1040.74883 1263.555294 
L 1047.24192 1152.378824 
L 1053.735011 1103.461176 
L 1060.228102 1229.461176 
L 1066.721193 1116.802353 
L 1073.214284 1187.955294 
L 1079.707375 918.167059 
L 1086.200466 1334.708235 
L 1092.693557 1189.437647 
L 1099.186648 1192.402353 
L 1105.679739 1241.32 
L 1112.17283 784.755294 
L 1118.66592 1514.072941 
L 1125.159011 1057.508235 
L 1131.652102 1485.908235 
L 1138.145193 806.990588 
L 1144.638284 1026.378824 
L 1151.131375 1101.978824 
L 1157.624466 1262.072941 
L 1164.117557 1208.708235 
L 1170.610648 1268.002353 
L 1177.103739 1113.837647 
L 1183.59683 1110.872941 
L 1190.08992 1087.155294 
L 1196.583011 867.767059 
L 1203.076102 577.225882 
L 1209.569193 875.178824 
L 1216.062284 1081.225882 
L 1222.555375 424.543529 
L 1229.048466 1518.52 
L 1235.541557 1156.825882 
L 1242.034648 832.190588 
L 1248.527739 1195.367059 
L 1255.02083 1004.143529 
L 1261.51392 860.355294 
L 1268.007011 938.92 
L 1274.500102 907.790588 
L 1280.993193 1088.637647 
L 1287.486284 1070.849412 
L 1293.979375 562.402353 
L 1300.472466 792.167059 
L 1306.965557 818.849412 
L 1313.458648 962.637647 
L 1319.951739 764.002353 
L 1326.44483 633.555294 
L 1332.93792 1058.990588 
L 1339.431011 1225.014118 
L 1345.924102 768.449412 
L 1352.417193 778.825882 
L 1358.910284 689.884706 
L 1365.403375 1054.543529 
L 1371.896466 814.402353 
L 1378.389557 523.861176 
L 1391.375739 774.378824 
L 1397.86883 737.32 
L 1417.348102 682.472941 
L 1423.841193 832.190588 
L 1430.334284 855.908235 
L 1436.827375 940.402353 
L 1443.320466 577.225882 
L 1449.813557 974.496471 
L 1456.306648 455.672941 
L 1469.29283 1549.649412 
L 1475.78592 901.861176 
L 1482.279011 888.52 
L 1488.772102 586.12 
L 1495.265193 1023.414118 
L 1508.251375 857.390588 
L 1514.744466 1146.449412 
L 1521.237557 1048.614118 
L 1534.223739 1346.567059 
L 1547.20992 479.390588 
L 1553.703011 709.155294 
L 1579.675375 1137.555294 
L 1586.168466 740.284706 
L 1592.661557 907.790588 
L 1599.154648 938.92 
L 1605.647739 1060.472941 
L 1612.14083 467.531765 
L 1618.63392 937.437647 
L 1625.127011 842.567059 
L 1651.099375 824.778824 
L 1670.578648 792.167059 
L 1677.071739 1144.967059 
L 1690.05792 678.025882 
L 1716.030284 1020.449412 
L 1735.509557 789.202353 
L 1748.495739 477.908235 
L 1748.495739 477.908235 
" style="fill:none;stroke:#0000ff;stroke-linecap:square;stroke-width:1.5;"/>
   </g>
   <g id="patch_3">
    <path d="M 44.059375 2052.76 
L 44.059375 278.68 
" style="fill:none;stroke:#000000;stroke-linecap:square;stroke-linejoin:miter;stroke-width:0.8;"/>
   </g>
   <g id="patch_4">
    <path d="M 1829.659375 2052.76 
L 1829.659375 278.68 
" style="fill:none;stroke:#000000;stroke-linecap:square;stroke-linejoin:miter;stroke-width:0.8;"/>
   </g>
   <g id="patch_5">
    <path d="M 44.059375 2052.76 
L 1829.659375 2052.76 
" style="fill:none;stroke:#000000;stroke-linecap:square;stroke-linejoin:miter;stroke-width:0.8;"/>
   </g>
   <g id="patch_6">
    <path d="M 44.059375 278.68 
L 1829.659375 278.68 
" style="fill:none;stroke:#000000;stroke-linecap:square;stroke-linejoin:miter;stroke-width:0.8;"/>
   </g>
   <g id="text_15">
    <text style="font-family:DejaVu Sans;font-size:12px;font-stretch:normal;font-style:normal;font-weight:normal;text-anchor:middle;" transform="rotate(-0, 936.859375, 272.68)" x="936.859375" y="272.68">temperature-&gt;ping_day</text>
   </g>
  </g>
  <g id="legend_1">
   <g id="patch_7">
    <path d="M 1955.298437 22.95625 
L 2055.259375 22.95625 
Q 2057.259375 22.95625 2057.259375 20.95625 
L 2057.259375 7 
Q 2057.259375 5 2055.259375 5 
L 1955.298437 5 
Q 1953.298437 5 1953.298437 7 
L 1953.298437 20.95625 
Q 1953.298437 22.95625 1955.298437 22.95625 
z
" style="fill:#ffffff;opacity:0.8;stroke:#cccccc;stroke-linejoin:miter;"/>
   </g>
   <g id="line2d_14">
    <path d="M 1957.298437 13.098438 
L 1977.298437 13.098438 
" style="fill:none;stroke:#0000ff;stroke-linecap:square;stroke-width:1.5;"/>
   </g>
   <g id="line2d_15"/>
   <g id="text_16">
    <text style="font-family:DejaVu Sans;font-size:10px;font-stretch:normal;font-style:normal;font-weight:normal;text-anchor:start;" transform="rotate(-0, 1985.298437, 16.598438)" x="1985.298437" y="16.598438">ping_day[ms]</text>
   </g>
  </g>
 </g>
 <defs>
  <clipPath id="p84c3df350c">
   <rect height="1774.08" width="1785.6" x="44.059375" y="278.68"/>
  </clipPath>
 </defs>
</svg>
