<?xml version="1.0" encoding="utf-8" standalone="no"?>
<!DOCTYPE svg PUBLIC "-//W3C//DTD SVG 1.1//EN"
  "http://www.w3.org/Graphics/SVG/1.1/DTD/svg11.dtd">
<!-- Created with matplotlib (https://matplotlib.org/) -->
<svg height="2090.594375pt" version="1.1" viewBox="0 0 2065.44375 2090.594375" width="2065.44375pt" xmlns="http://www.w3.org/2000/svg" xmlns:xlink="http://www.w3.org/1999/xlink">
 <metadata>
  <rdf:RDF xmlns:cc="http://creativecommons.org/ns#" xmlns:dc="http://purl.org/dc/elements/1.1/" xmlns:rdf="http://www.w3.org/1999/02/22-rdf-syntax-ns#">
   <cc:Work>
    <dc:type rdf:resource="http://purl.org/dc/dcmitype/StillImage"/>
    <dc:date>2022-07-24T12:04:51.602402</dc:date>
    <dc:format>image/svg+xml</dc:format>
    <dc:creator>
     <cc:Agent>
      <dc:title>Matplotlib v3.3.2, https://matplotlib.org/</dc:title>
     </cc:Agent>
    </dc:creator>
   </cc:Work>
  </rdf:RDF>
 </metadata>
 <defs>
  <style type="text/css">*{stroke-linecap:butt;stroke-linejoin:round;}</style>
 </defs>
 <g id="figure_1">
  <g id="patch_1">
   <path d="M 0 2090.594375 
L 2065.44375 2090.594375 
L 2065.44375 0 
L 0 0 
z
" style="fill:#ffffff;"/>
  </g>
  <g id="axes_1">
   <g id="patch_2">
    <path d="M 47.24375 2052.76 
L 1832.84375 2052.76 
L 1832.84375 278.68 
L 47.24375 278.68 
z
" style="fill:#ffffff;"/>
   </g>
   <g id="matplotlib.axis_1">
    <g id="xtick_1">
     <g id="line2d_1">
      <defs>
       <path d="M 0 0 
L 0 3.5 
" id="m46242b975e" style="stroke:#000000;stroke-width:0.8;"/>
      </defs>
      <g>
       <use style="stroke:#000000;stroke-width:0.8;" x="101.352841" xlink:href="#m46242b975e" y="2052.76"/>
      </g>
     </g>
     <g id="text_1">
      <text style="font-family:DejaVu Sans;font-size:10px;font-stretch:normal;font-style:normal;font-weight:normal;text-anchor:middle;" transform="rotate(-0, 101.352841, 2067.358437)" x="101.352841" y="2067.358437">1005</text>
     </g>
    </g>
    <g id="xtick_2">
     <g id="line2d_2">
      <g>
       <use style="stroke:#000000;stroke-width:0.8;" x="439.534659" xlink:href="#m46242b975e" y="2052.76"/>
      </g>
     </g>
     <g id="text_2">
      <text style="font-family:DejaVu Sans;font-size:10px;font-stretch:normal;font-style:normal;font-weight:normal;text-anchor:middle;" transform="rotate(-0, 439.534659, 2067.358437)" x="439.534659" y="2067.358437">1010</text>
     </g>
    </g>
    <g id="xtick_3">
     <g id="line2d_3">
      <g>
       <use style="stroke:#000000;stroke-width:0.8;" x="777.716477" xlink:href="#m46242b975e" y="2052.76"/>
      </g>
     </g>
     <g id="text_3">
      <text style="font-family:DejaVu Sans;font-size:10px;font-stretch:normal;font-style:normal;font-weight:normal;text-anchor:middle;" transform="rotate(-0, 777.716477, 2067.358437)" x="777.716477" y="2067.358437">1015</text>
     </g>
    </g>
    <g id="xtick_4">
     <g id="line2d_4">
      <g>
       <use style="stroke:#000000;stroke-width:0.8;" x="1115.898295" xlink:href="#m46242b975e" y="2052.76"/>
      </g>
     </g>
     <g id="text_4">
      <text style="font-family:DejaVu Sans;font-size:10px;font-stretch:normal;font-style:normal;font-weight:normal;text-anchor:middle;" transform="rotate(-0, 1115.898295, 2067.358437)" x="1115.898295" y="2067.358437">1020</text>
     </g>
    </g>
    <g id="xtick_5">
     <g id="line2d_5">
      <g>
       <use style="stroke:#000000;stroke-width:0.8;" x="1454.080114" xlink:href="#m46242b975e" y="2052.76"/>
      </g>
     </g>
     <g id="text_5">
      <text style="font-family:DejaVu Sans;font-size:10px;font-stretch:normal;font-style:normal;font-weight:normal;text-anchor:middle;" transform="rotate(-0, 1454.080114, 2067.358437)" x="1454.080114" y="2067.358437">1025</text>
     </g>
    </g>
    <g id="xtick_6">
     <g id="line2d_6">
      <g>
       <use style="stroke:#000000;stroke-width:0.8;" x="1792.261932" xlink:href="#m46242b975e" y="2052.76"/>
      </g>
     </g>
     <g id="text_6">
      <text style="font-family:DejaVu Sans;font-size:10px;font-stretch:normal;font-style:normal;font-weight:normal;text-anchor:middle;" transform="rotate(-0, 1792.261932, 2067.358437)" x="1792.261932" y="2067.358437">1030</text>
     </g>
    </g>
    <g id="text_7">
     <text style="font-family:DejaVu Sans;font-size:10px;font-stretch:normal;font-style:normal;font-weight:normal;text-anchor:middle;" transform="rotate(-0, 940.04375, 2081.036562)" x="940.04375" y="2081.036562">air_pressure from BuienRadar</text>
    </g>
   </g>
   <g id="matplotlib.axis_2">
    <g id="ytick_1">
     <g id="line2d_7">
      <defs>
       <path d="M 0 0 
L -3.5 0 
" id="m996e808464" style="stroke:#000000;stroke-width:0.8;"/>
      </defs>
      <g>
       <use style="stroke:#000000;stroke-width:0.8;" x="47.24375" xlink:href="#m996e808464" y="2000.855857"/>
      </g>
     </g>
     <g id="text_8">
      <text style="font-family:DejaVu Sans;font-size:10px;font-stretch:normal;font-style:normal;font-weight:normal;text-anchor:end;" transform="rotate(-0, 40.24375, 2004.655076)" x="40.24375" y="2004.655076">0</text>
     </g>
    </g>
    <g id="ytick_2">
     <g id="line2d_8">
      <g>
       <use style="stroke:#000000;stroke-width:0.8;" x="47.24375" xlink:href="#m996e808464" y="1641.657639"/>
      </g>
     </g>
     <g id="text_9">
      <text style="font-family:DejaVu Sans;font-size:10px;font-stretch:normal;font-style:normal;font-weight:normal;text-anchor:end;" transform="rotate(-0, 40.24375, 1645.456858)" x="40.24375" y="1645.456858">100</text>
     </g>
    </g>
    <g id="ytick_3">
     <g id="line2d_9">
      <g>
       <use style="stroke:#000000;stroke-width:0.8;" x="47.24375" xlink:href="#m996e808464" y="1282.459421"/>
      </g>
     </g>
     <g id="text_10">
      <text style="font-family:DejaVu Sans;font-size:10px;font-stretch:normal;font-style:normal;font-weight:normal;text-anchor:end;" transform="rotate(-0, 40.24375, 1286.25864)" x="40.24375" y="1286.25864">200</text>
     </g>
    </g>
    <g id="ytick_4">
     <g id="line2d_10">
      <g>
       <use style="stroke:#000000;stroke-width:0.8;" x="47.24375" xlink:href="#m996e808464" y="923.261203"/>
      </g>
     </g>
     <g id="text_11">
      <text style="font-family:DejaVu Sans;font-size:10px;font-stretch:normal;font-style:normal;font-weight:normal;text-anchor:end;" transform="rotate(-0, 40.24375, 927.060421)" x="40.24375" y="927.060421">300</text>
     </g>
    </g>
    <g id="ytick_5">
     <g id="line2d_11">
      <g>
       <use style="stroke:#000000;stroke-width:0.8;" x="47.24375" xlink:href="#m996e808464" y="564.062984"/>
      </g>
     </g>
     <g id="text_12">
      <text style="font-family:DejaVu Sans;font-size:10px;font-stretch:normal;font-style:normal;font-weight:normal;text-anchor:end;" transform="rotate(-0, 40.24375, 567.862203)" x="40.24375" y="567.862203">400</text>
     </g>
    </g>
    <g id="text_13">
     <text style="font-family:DejaVu Sans;font-size:10px;font-stretch:normal;font-style:normal;font-weight:normal;text-anchor:middle;" transform="rotate(-90, 14.798438, 1165.72)" x="14.798438" y="1165.72">Retransmission_night[dimensionless]</text>
    </g>
   </g>
   <g id="line2d_12">
    <path clip-path="url(#pe9635b6fcc)" d="M 128.407386 991.508864 
L 135.171023 1016.652739 
L 141.934659 808.317773 
L 148.698295 1208.823786 
L 155.461932 819.093719 
L 162.225568 1077.716437 
L 168.989205 1034.61265 
L 175.752841 959.181024 
L 182.516477 1041.796615 
L 189.280114 977.140935 
L 196.04375 1228.579688 
L 202.807386 1151.352071 
L 209.571023 772.397951 
L 216.334659 951.99706 
L 223.098295 783.173898 
L 229.861932 1005.876793 
L 236.625568 1020.244722 
L 243.389205 937.629131 
L 250.152841 842.441604 
L 256.916477 1036.408641 
L 263.680114 858.605523 
L 270.44375 1041.796615 
L 277.207386 869.38147 
L 283.971023 1086.696392 
L 290.734659 1964.936036 
L 297.498295 874.769443 
L 304.261932 1088.492383 
L 311.025568 1113.636258 
L 317.789205 1059.756526 
L 324.552841 1027.428686 
L 331.316477 977.140935 
L 338.080114 691.578352 
L 344.84375 903.505301 
L 351.607386 846.033586 
L 358.371023 899.913318 
L 365.134659 1020.244722 
L 371.898295 935.83314 
L 378.661932 831.665657 
L 385.425568 969.956971 
L 392.189205 732.886147 
L 398.952841 858.605523 
L 405.716477 1494.38637 
L 412.480114 1009.468775 
L 419.24375 1110.044276 
L 426.007386 935.83314 
L 432.771023 1135.188151 
L 439.534659 1120.820223 
L 446.298295 855.013541 
L 453.061932 894.525345 
L 459.825568 1110.044276 
L 466.589205 743.662094 
L 473.352841 917.873229 
L 480.116477 1016.652739 
L 486.880114 930.445167 
L 493.64375 1176.495947 
L 500.407386 898.117327 
L 507.171023 808.317773 
L 513.934659 359.32 
L 520.698295 847.829577 
L 527.461932 705.946281 
L 534.225568 808.317773 
L 540.989205 788.561871 
L 547.752841 862.197506 
L 554.516477 811.909755 
L 561.280114 1041.796615 
L 574.807386 919.66922 
L 581.571023 946.609087 
L 588.334659 1013.060757 
L 595.098295 1050.77657 
L 601.861932 917.873229 
L 608.625568 984.3249 
L 615.389205 851.421559 
L 622.152841 1178.291938 
L 628.916477 616.146726 
L 635.680114 1088.492383 
L 642.44375 1059.756526 
L 649.207386 1054.368552 
L 669.498295 474.26343 
L 676.261932 973.548953 
L 683.025568 944.813096 
L 689.789205 885.54539 
L 696.552841 939.425122 
L 703.316477 919.66922 
L 710.080114 950.201069 
L 716.84375 1022.040713 
L 723.607386 826.277684 
L 730.371023 959.181024 
L 737.134659 747.254076 
L 743.898295 833.461648 
L 750.661932 810.113764 
L 757.425568 677.210423 
L 764.189205 801.133808 
L 777.716477 571.246949 
L 798.007386 1972.12 
L 804.771023 984.3249 
L 811.534659 1442.302628 
L 818.298295 1720.681247 
L 825.061932 779.581915 
L 831.825568 679.006414 
L 838.589205 1377.646949 
L 845.352841 754.43804 
L 852.116477 917.873229 
L 858.880114 1048.980579 
L 865.64375 1129.800178 
L 872.407386 772.397951 
L 879.171023 661.046503 
L 885.934659 819.093719 
L 892.698295 668.230468 
L 899.461932 675.414432 
L 906.225568 1090.288374 
L 912.989205 930.445167 
L 919.752841 934.037149 
L 926.516477 966.364989 
L 933.280114 1013.060757 
L 940.04375 1081.308419 
L 946.807386 916.077238 
L 953.571023 1048.980579 
L 960.334659 775.989933 
L 967.098295 704.15029 
L 973.861932 788.561871 
L 980.625568 840.645612 
L 987.389205 948.405078 
L 994.152841 896.321336 
L 1000.916477 833.461648 
L 1007.680114 957.385033 
L 1014.44375 944.813096 
L 1021.207386 916.077238 
L 1027.971023 1406.382806 
L 1034.734659 1095.676347 
L 1041.498295 973.548953 
L 1048.261932 1171.107973 
L 1055.025568 1311.195278 
L 1061.789205 998.692829 
L 1068.552841 960.977016 
L 1075.316477 1074.124454 
L 1082.080114 1066.94049 
L 1088.84375 1108.248285 
L 1095.607386 989.712873 
L 1102.371023 984.3249 
L 1109.134659 969.956971 
L 1115.898295 1070.532472 
L 1122.661932 1031.020668 
L 1129.425568 862.197506 
L 1136.189205 851.421559 
L 1142.952841 923.261203 
L 1149.716477 826.277684 
L 1156.480114 944.813096 
L 1163.24375 966.364989 
L 1170.007386 971.752962 
L 1176.771023 1077.716437 
L 1183.534659 1050.77657 
L 1190.298295 1068.736481 
L 1197.061932 982.528909 
L 1203.825568 1023.836704 
L 1210.589205 1505.162316 
L 1217.352841 1077.716437 
L 1224.116477 941.221114 
L 1230.880114 995.100846 
L 1237.64375 880.157416 
L 1244.407386 772.397951 
L 1251.171023 962.773007 
L 1257.934659 1057.960535 
L 1264.698295 1009.468775 
L 1271.461932 1149.55608 
L 1278.225568 1686.557416 
L 1284.989205 1594.961871 
L 1339.098295 1735.049176 
L 1345.861932 1569.817996 
L 1352.625568 1447.690601 
L 1359.389205 1336.339154 
L 1366.152841 1533.898174 
L 1372.916477 1803.296837 
L 1379.680114 1713.497283 
L 1386.44375 1289.643385 
L 1393.207386 1041.796615 
L 1399.971023 1124.412205 
L 1406.734659 1149.55608 
L 1413.498295 1440.506637 
L 1420.261932 1571.613987 
L 1427.025568 1530.306192 
L 1433.789205 1379.44294 
L 1440.552841 1487.202405 
L 1447.316477 1521.326236 
L 1474.371023 1508.754298 
L 1481.134659 1436.914655 
L 1487.898295 1623.697728 
L 1494.661932 1528.5102 
L 1501.425568 1623.697728 
L 1508.189205 1503.366325 
L 1514.952841 1629.085702 
L 1521.716477 1460.262539 
L 1535.24375 1573.409978 
L 1542.007386 1605.737817 
L 1548.771023 1585.981915 
L 1562.298295 1521.326236 
L 1575.825568 1505.162316 
L 1582.589205 1463.854521 
L 1589.352841 1465.650512 
L 1596.116477 1544.67412 
L 1602.880114 1515.938263 
L 1609.64375 1451.282584 
L 1616.407386 1458.466548 
L 1623.171023 1584.185924 
L 1629.934659 1259.111537 
L 1636.698295 1456.670557 
L 1643.461932 1383.034922 
L 1650.225568 1490.794388 
L 1656.989205 1551.858085 
L 1663.752841 1497.978352 
L 1670.516477 1456.670557 
L 1677.280114 1616.513764 
L 1684.04375 1501.570334 
L 1690.807386 1541.082138 
L 1697.571023 1571.613987 
L 1704.334659 1562.634031 
L 1711.098295 1521.326236 
L 1717.861932 1627.28971 
L 1731.389205 1673.985479 
L 1738.152841 1627.28971 
L 1744.916477 1648.841604 
L 1751.680114 1666.801514 
L 1751.680114 1666.801514 
" style="fill:none;stroke:#0000ff;stroke-linecap:square;stroke-width:1.5;"/>
   </g>
   <g id="patch_3">
    <path d="M 47.24375 2052.76 
L 47.24375 278.68 
" style="fill:none;stroke:#000000;stroke-linecap:square;stroke-linejoin:miter;stroke-width:0.8;"/>
   </g>
   <g id="patch_4">
    <path d="M 1832.84375 2052.76 
L 1832.84375 278.68 
" style="fill:none;stroke:#000000;stroke-linecap:square;stroke-linejoin:miter;stroke-width:0.8;"/>
   </g>
   <g id="patch_5">
    <path d="M 47.24375 2052.76 
L 1832.84375 2052.76 
" style="fill:none;stroke:#000000;stroke-linecap:square;stroke-linejoin:miter;stroke-width:0.8;"/>
   </g>
   <g id="patch_6">
    <path d="M 47.24375 278.68 
L 1832.84375 278.68 
" style="fill:none;stroke:#000000;stroke-linecap:square;stroke-linejoin:miter;stroke-width:0.8;"/>
   </g>
   <g id="text_14">
    <text style="font-family:DejaVu Sans;font-size:12px;font-stretch:normal;font-style:normal;font-weight:normal;text-anchor:middle;" transform="rotate(-0, 940.04375, 272.68)" x="940.04375" y="272.68">air_pressure-&gt;Retransmission_night</text>
   </g>
  </g>
  <g id="legend_1">
   <g id="patch_7">
    <path d="M 1840.2375 22.95625 
L 2058.44375 22.95625 
Q 2060.44375 22.95625 2060.44375 20.95625 
L 2060.44375 7 
Q 2060.44375 5 2058.44375 5 
L 1840.2375 5 
Q 1838.2375 5 1838.2375 7 
L 1838.2375 20.95625 
Q 1838.2375 22.95625 1840.2375 22.95625 
z
" style="fill:#ffffff;opacity:0.8;stroke:#cccccc;stroke-linejoin:miter;"/>
   </g>
   <g id="line2d_13">
    <path d="M 1842.2375 13.098438 
L 1862.2375 13.098438 
" style="fill:none;stroke:#0000ff;stroke-linecap:square;stroke-width:1.5;"/>
   </g>
   <g id="line2d_14"/>
   <g id="text_15">
    <text style="font-family:DejaVu Sans;font-size:10px;font-stretch:normal;font-style:normal;font-weight:normal;text-anchor:start;" transform="rotate(-0, 1870.2375, 16.598438)" x="1870.2375" y="16.598438">Retransmission_night[dimensionless]</text>
   </g>
  </g>
 </g>
 <defs>
  <clipPath id="pe9635b6fcc">
   <rect height="1774.08" width="1785.6" x="47.24375" y="278.68"/>
  </clipPath>
 </defs>
</svg>
