<?xml version="1.0" encoding="utf-8" standalone="no"?>
<!DOCTYPE svg PUBLIC "-//W3C//DTD SVG 1.1//EN"
  "http://www.w3.org/Graphics/SVG/1.1/DTD/svg11.dtd">
<!-- Created with matplotlib (https://matplotlib.org/) -->
<svg height="2090.594375pt" version="1.1" viewBox="0 0 2065.44375 2090.594375" width="2065.44375pt" xmlns="http://www.w3.org/2000/svg" xmlns:xlink="http://www.w3.org/1999/xlink">
 <metadata>
  <rdf:RDF xmlns:cc="http://creativecommons.org/ns#" xmlns:dc="http://purl.org/dc/elements/1.1/" xmlns:rdf="http://www.w3.org/1999/02/22-rdf-syntax-ns#">
   <cc:Work>
    <dc:type rdf:resource="http://purl.org/dc/dcmitype/StillImage"/>
    <dc:date>2022-07-23T21:30:38.438662</dc:date>
    <dc:format>image/svg+xml</dc:format>
    <dc:creator>
     <cc:Agent>
      <dc:title>Matplotlib v3.3.2, https://matplotlib.org/</dc:title>
     </cc:Agent>
    </dc:creator>
   </cc:Work>
  </rdf:RDF>
 </metadata>
 <defs>
  <style type="text/css">*{stroke-linecap:butt;stroke-linejoin:round;}</style>
 </defs>
 <g id="figure_1">
  <g id="patch_1">
   <path d="M 0 2090.594375 
L 2065.44375 2090.594375 
L 2065.44375 0 
L 0 0 
z
" style="fill:#ffffff;"/>
  </g>
  <g id="axes_1">
   <g id="patch_2">
    <path d="M 47.24375 2052.76 
L 1832.84375 2052.76 
L 1832.84375 278.68 
L 47.24375 278.68 
z
" style="fill:#ffffff;"/>
   </g>
   <g id="matplotlib.axis_1">
    <g id="xtick_1">
     <g id="line2d_1">
      <defs>
       <path d="M 0 0 
L 0 3.5 
" id="mb903a79ed0" style="stroke:#000000;stroke-width:0.8;"/>
      </defs>
      <g>
       <use style="stroke:#000000;stroke-width:0.8;" x="240.579803" xlink:href="#mb903a79ed0" y="2052.76"/>
      </g>
     </g>
     <g id="text_1">
      <text style="font-family:DejaVu Sans;font-size:10px;font-stretch:normal;font-style:normal;font-weight:normal;text-anchor:middle;" transform="rotate(-0, 240.579803, 2067.358437)" x="240.579803" y="2067.358437">1</text>
     </g>
    </g>
    <g id="xtick_2">
     <g id="line2d_2">
      <g>
       <use style="stroke:#000000;stroke-width:0.8;" x="485.147446" xlink:href="#mb903a79ed0" y="2052.76"/>
      </g>
     </g>
     <g id="text_2">
      <text style="font-family:DejaVu Sans;font-size:10px;font-stretch:normal;font-style:normal;font-weight:normal;text-anchor:middle;" transform="rotate(-0, 485.147446, 2067.358437)" x="485.147446" y="2067.358437">2</text>
     </g>
    </g>
    <g id="xtick_3">
     <g id="line2d_3">
      <g>
       <use style="stroke:#000000;stroke-width:0.8;" x="729.715088" xlink:href="#mb903a79ed0" y="2052.76"/>
      </g>
     </g>
     <g id="text_3">
      <text style="font-family:DejaVu Sans;font-size:10px;font-stretch:normal;font-style:normal;font-weight:normal;text-anchor:middle;" transform="rotate(-0, 729.715088, 2067.358437)" x="729.715088" y="2067.358437">3</text>
     </g>
    </g>
    <g id="xtick_4">
     <g id="line2d_4">
      <g>
       <use style="stroke:#000000;stroke-width:0.8;" x="974.282731" xlink:href="#mb903a79ed0" y="2052.76"/>
      </g>
     </g>
     <g id="text_4">
      <text style="font-family:DejaVu Sans;font-size:10px;font-stretch:normal;font-style:normal;font-weight:normal;text-anchor:middle;" transform="rotate(-0, 974.282731, 2067.358437)" x="974.282731" y="2067.358437">4</text>
     </g>
    </g>
    <g id="xtick_5">
     <g id="line2d_5">
      <g>
       <use style="stroke:#000000;stroke-width:0.8;" x="1218.850373" xlink:href="#mb903a79ed0" y="2052.76"/>
      </g>
     </g>
     <g id="text_5">
      <text style="font-family:DejaVu Sans;font-size:10px;font-stretch:normal;font-style:normal;font-weight:normal;text-anchor:middle;" transform="rotate(-0, 1218.850373, 2067.358437)" x="1218.850373" y="2067.358437">5</text>
     </g>
    </g>
    <g id="xtick_6">
     <g id="line2d_6">
      <g>
       <use style="stroke:#000000;stroke-width:0.8;" x="1463.418016" xlink:href="#mb903a79ed0" y="2052.76"/>
      </g>
     </g>
     <g id="text_6">
      <text style="font-family:DejaVu Sans;font-size:10px;font-stretch:normal;font-style:normal;font-weight:normal;text-anchor:middle;" transform="rotate(-0, 1463.418016, 2067.358437)" x="1463.418016" y="2067.358437">6</text>
     </g>
    </g>
    <g id="xtick_7">
     <g id="line2d_7">
      <g>
       <use style="stroke:#000000;stroke-width:0.8;" x="1707.985659" xlink:href="#mb903a79ed0" y="2052.76"/>
      </g>
     </g>
     <g id="text_7">
      <text style="font-family:DejaVu Sans;font-size:10px;font-stretch:normal;font-style:normal;font-weight:normal;text-anchor:middle;" transform="rotate(-0, 1707.985659, 2067.358437)" x="1707.985659" y="2067.358437">7</text>
     </g>
    </g>
    <g id="text_8">
     <text style="font-family:DejaVu Sans;font-size:10px;font-stretch:normal;font-style:normal;font-weight:normal;text-anchor:middle;" transform="rotate(-0, 940.04375, 2081.036562)" x="940.04375" y="2081.036562">wind_speed from WeatherBitIO</text>
    </g>
   </g>
   <g id="matplotlib.axis_2">
    <g id="ytick_1">
     <g id="line2d_8">
      <defs>
       <path d="M 0 0 
L -3.5 0 
" id="m203d85ea08" style="stroke:#000000;stroke-width:0.8;"/>
      </defs>
      <g>
       <use style="stroke:#000000;stroke-width:0.8;" x="47.24375" xlink:href="#m203d85ea08" y="1972.12"/>
      </g>
     </g>
     <g id="text_9">
      <text style="font-family:DejaVu Sans;font-size:10px;font-stretch:normal;font-style:normal;font-weight:normal;text-anchor:end;" transform="rotate(-0, 40.24375, 1975.919219)" x="40.24375" y="1975.919219">0</text>
     </g>
    </g>
    <g id="ytick_2">
     <g id="line2d_9">
      <g>
       <use style="stroke:#000000;stroke-width:0.8;" x="47.24375" xlink:href="#m203d85ea08" y="1624.533793"/>
      </g>
     </g>
     <g id="text_10">
      <text style="font-family:DejaVu Sans;font-size:10px;font-stretch:normal;font-style:normal;font-weight:normal;text-anchor:end;" transform="rotate(-0, 40.24375, 1628.333012)" x="40.24375" y="1628.333012">100</text>
     </g>
    </g>
    <g id="ytick_3">
     <g id="line2d_10">
      <g>
       <use style="stroke:#000000;stroke-width:0.8;" x="47.24375" xlink:href="#m203d85ea08" y="1276.947586"/>
      </g>
     </g>
     <g id="text_11">
      <text style="font-family:DejaVu Sans;font-size:10px;font-stretch:normal;font-style:normal;font-weight:normal;text-anchor:end;" transform="rotate(-0, 40.24375, 1280.746805)" x="40.24375" y="1280.746805">200</text>
     </g>
    </g>
    <g id="ytick_4">
     <g id="line2d_11">
      <g>
       <use style="stroke:#000000;stroke-width:0.8;" x="47.24375" xlink:href="#m203d85ea08" y="929.361379"/>
      </g>
     </g>
     <g id="text_12">
      <text style="font-family:DejaVu Sans;font-size:10px;font-stretch:normal;font-style:normal;font-weight:normal;text-anchor:end;" transform="rotate(-0, 40.24375, 933.160598)" x="40.24375" y="933.160598">300</text>
     </g>
    </g>
    <g id="ytick_5">
     <g id="line2d_12">
      <g>
       <use style="stroke:#000000;stroke-width:0.8;" x="47.24375" xlink:href="#m203d85ea08" y="581.775172"/>
      </g>
     </g>
     <g id="text_13">
      <text style="font-family:DejaVu Sans;font-size:10px;font-stretch:normal;font-style:normal;font-weight:normal;text-anchor:end;" transform="rotate(-0, 40.24375, 585.574391)" x="40.24375" y="585.574391">400</text>
     </g>
    </g>
    <g id="text_14">
     <text style="font-family:DejaVu Sans;font-size:10px;font-stretch:normal;font-style:normal;font-weight:normal;text-anchor:middle;" transform="rotate(-90, 14.798438, 1165.72)" x="14.798438" y="1165.72">Retransmission_night[dimensionless]</text>
    </g>
   </g>
   <g id="line2d_13">
    <path clip-path="url(#p914b619977)" d="M 128.407386 1016.257931 
L 212.529117 818.133793 
L 231.345663 856.368276 
L 244.668974 979.761379 
L 250.695121 1487.237241 
L 257.000075 1101.416552 
L 261.333813 971.071724 
L 265.917011 814.657931 
L 273.400781 1391.651034 
L 274.161386 1014.52 
L 277.612235 1563.706207 
L 278.793497 772.947586 
L 283.070985 1574.133793 
L 307.921503 699.954483 
L 317.533012 1005.830345 
L 317.7091 1030.161379 
L 318.951504 1011.044138 
L 324.175469 1499.402759 
L 326.354567 1110.106207 
L 329.937483 1254.354483 
L 336.606842 1641.913103 
L 343.677293 1078.823448 
L 345.72677 1028.423448 
L 349.336588 1202.216552 
L 362.394054 526.161379 
L 374.353412 884.175172 
L 378.542856 918.933793 
L 379.347483 1362.106207 
L 380.795324 746.878621 
L 381.120599 1249.14069 
L 384.060302 1704.478621 
L 394.99003 1049.278621 
L 395.109868 838.988966 
L 395.112314 1084.037241 
L 398.13517 1063.182069 
L 406.758625 1972.12 
L 407.93255 1000.616552 
L 407.979017 1163.982069 
L 417.108727 997.14069 
L 419.287825 1038.851034 
L 419.786743 840.726897 
L 428.911562 1386.437241 
L 430.012116 753.830345 
L 435.470866 1038.851034 
L 435.808369 752.092414 
L 438.850791 1169.195862 
L 447.215004 1075.347586 
L 447.452235 991.926897 
L 450.137588 939.788966 
L 453.637351 872.009655 
L 457.975981 611.32 
L 460.255351 1532.423448 
L 463.517883 894.602759 
L 468.776088 1197.002759 
L 469.013318 767.733793 
L 470.671487 852.892414 
L 473.126946 1012.782069 
L 480.456638 1059.706207 
L 491.244517 1054.492414 
L 491.733652 844.202759 
L 497.8723 858.106207 
L 500.159008 1019.733793 
L 513.879252 752.092414 
L 517.264068 800.754483 
L 518.327938 925.885517 
L 519.668168 859.844138 
L 519.785561 736.451034 
L 523.840492 1144.864828 
L 527.098133 1146.602759 
L 536.115342 529.637241 
L 537.262365 993.664828 
L 540.80615 960.644138 
L 544.190966 991.926897 
L 549.304875 885.913103 
L 553.535896 818.133793 
L 556.336195 908.506207 
L 557.894091 1090.988966 
L 560.78488 918.933793 
L 570.413509 1059.706207 
L 571.898034 1137.913103 
L 576.349165 616.533793 
L 598.235524 1124.009655 
L 603.796992 1165.72 
L 604.80461 986.713103 
L 605.088309 1059.706207 
L 673.263985 1068.395862 
L 673.914535 359.32 
L 701.306111 1308.230345 
L 706.669479 849.416552 
L 712.448613 889.388966 
L 713.184761 894.602759 
L 718.655739 948.478621 
L 721.045165 1113.582069 
L 728.829753 719.071724 
L 744.516322 731.237241 
L 745.697584 647.816552 
L 758.542276 974.547586 
L 758.671897 955.430345 
L 762.570305 993.664828 
L 772.184259 918.933793 
L 833.21856 972.809655 
L 843.194474 771.209655 
L 893.281928 672.147586 
L 896.90642 859.844138 
L 919.851756 1017.995862 
L 929.815442 964.12 
L 937.675846 769.471724 
L 938.517159 1071.871724 
L 942.806875 720.809655 
L 988.638851 891.126897 
L 1013.856221 965.857931 
L 1076.827498 946.74069 
L 1078.24599 828.561379 
L 1092.858907 934.575172 
L 1120.883913 1122.271724 
L 1137.186792 974.547586 
L 1178.149426 903.292414 
L 1183.018768 885.913103 
L 1198.431421 925.885517 
L 1214.132664 887.651034 
L 1218.02618 1127.485517 
L 1269.204405 950.216552 
L 1412.753383 778.161379 
L 1455.736146 920.671724 
L 1642.690989 939.788966 
L 1715.156382 849.416552 
L 1751.680114 922.409655 
" style="fill:none;stroke:#0000ff;stroke-linecap:square;stroke-width:1.5;"/>
   </g>
   <g id="patch_3">
    <path d="M 47.24375 2052.76 
L 47.24375 278.68 
" style="fill:none;stroke:#000000;stroke-linecap:square;stroke-linejoin:miter;stroke-width:0.8;"/>
   </g>
   <g id="patch_4">
    <path d="M 1832.84375 2052.76 
L 1832.84375 278.68 
" style="fill:none;stroke:#000000;stroke-linecap:square;stroke-linejoin:miter;stroke-width:0.8;"/>
   </g>
   <g id="patch_5">
    <path d="M 47.24375 2052.76 
L 1832.84375 2052.76 
" style="fill:none;stroke:#000000;stroke-linecap:square;stroke-linejoin:miter;stroke-width:0.8;"/>
   </g>
   <g id="patch_6">
    <path d="M 47.24375 278.68 
L 1832.84375 278.68 
" style="fill:none;stroke:#000000;stroke-linecap:square;stroke-linejoin:miter;stroke-width:0.8;"/>
   </g>
   <g id="text_15">
    <text style="font-family:DejaVu Sans;font-size:12px;font-stretch:normal;font-style:normal;font-weight:normal;text-anchor:middle;" transform="rotate(-0, 940.04375, 272.68)" x="940.04375" y="272.68">wind_speed-&gt;Retransmission_night</text>
   </g>
  </g>
  <g id="legend_1">
   <g id="patch_7">
    <path d="M 1840.2375 22.95625 
L 2058.44375 22.95625 
Q 2060.44375 22.95625 2060.44375 20.95625 
L 2060.44375 7 
Q 2060.44375 5 2058.44375 5 
L 1840.2375 5 
Q 1838.2375 5 1838.2375 7 
L 1838.2375 20.95625 
Q 1838.2375 22.95625 1840.2375 22.95625 
z
" style="fill:#ffffff;opacity:0.8;stroke:#cccccc;stroke-linejoin:miter;"/>
   </g>
   <g id="line2d_14">
    <path d="M 1842.2375 13.098438 
L 1862.2375 13.098438 
" style="fill:none;stroke:#0000ff;stroke-linecap:square;stroke-width:1.5;"/>
   </g>
   <g id="line2d_15"/>
   <g id="text_16">
    <text style="font-family:DejaVu Sans;font-size:10px;font-stretch:normal;font-style:normal;font-weight:normal;text-anchor:start;" transform="rotate(-0, 1870.2375, 16.598438)" x="1870.2375" y="16.598438">Retransmission_night[dimensionless]</text>
   </g>
  </g>
 </g>
 <defs>
  <clipPath id="p914b619977">
   <rect height="1774.08" width="1785.6" x="47.24375" y="278.68"/>
  </clipPath>
 </defs>
</svg>
