<?xml version="1.0" encoding="utf-8" standalone="no"?>
<!DOCTYPE svg PUBLIC "-//W3C//DTD SVG 1.1//EN"
  "http://www.w3.org/Graphics/SVG/1.1/DTD/svg11.dtd">
<!-- Created with matplotlib (https://matplotlib.org/) -->
<svg height="2090.594375pt" version="1.1" viewBox="0 0 2052.440625 2090.594375" width="2052.440625pt" xmlns="http://www.w3.org/2000/svg" xmlns:xlink="http://www.w3.org/1999/xlink">
 <metadata>
  <rdf:RDF xmlns:cc="http://creativecommons.org/ns#" xmlns:dc="http://purl.org/dc/elements/1.1/" xmlns:rdf="http://www.w3.org/1999/02/22-rdf-syntax-ns#">
   <cc:Work>
    <dc:type rdf:resource="http://purl.org/dc/dcmitype/StillImage"/>
    <dc:date>2022-07-23T20:56:37.174667</dc:date>
    <dc:format>image/svg+xml</dc:format>
    <dc:creator>
     <cc:Agent>
      <dc:title>Matplotlib v3.3.2, https://matplotlib.org/</dc:title>
     </cc:Agent>
    </dc:creator>
   </cc:Work>
  </rdf:RDF>
 </metadata>
 <defs>
  <style type="text/css">*{stroke-linecap:butt;stroke-linejoin:round;}</style>
 </defs>
 <g id="figure_1">
  <g id="patch_1">
   <path d="M 0 2090.594375 
L 2052.440625 2090.594375 
L 2052.440625 0 
L 0 0 
z
" style="fill:#ffffff;"/>
  </g>
  <g id="axes_1">
   <g id="patch_2">
    <path d="M 34.240625 2052.76 
L 1819.840625 2052.76 
L 1819.840625 278.68 
L 34.240625 278.68 
z
" style="fill:#ffffff;"/>
   </g>
   <g id="matplotlib.axis_1">
    <g id="xtick_1">
     <g id="line2d_1">
      <defs>
       <path d="M 0 0 
L 0 3.5 
" id="m09cc38b157" style="stroke:#000000;stroke-width:0.8;"/>
      </defs>
      <g>
       <use style="stroke:#000000;stroke-width:0.8;" x="115.404261" xlink:href="#m09cc38b157" y="2052.76"/>
      </g>
     </g>
     <g id="text_1">
      <text style="font-family:DejaVu Sans;font-size:10px;font-stretch:normal;font-style:normal;font-weight:normal;text-anchor:middle;" transform="rotate(-0, 115.404261, 2067.358437)" x="115.404261" y="2067.358437">0</text>
     </g>
    </g>
    <g id="xtick_2">
     <g id="line2d_2">
      <g>
       <use style="stroke:#000000;stroke-width:0.8;" x="342.371925" xlink:href="#m09cc38b157" y="2052.76"/>
      </g>
     </g>
     <g id="text_2">
      <text style="font-family:DejaVu Sans;font-size:10px;font-stretch:normal;font-style:normal;font-weight:normal;text-anchor:middle;" transform="rotate(-0, 342.371925, 2067.358437)" x="342.371925" y="2067.358437">5</text>
     </g>
    </g>
    <g id="xtick_3">
     <g id="line2d_3">
      <g>
       <use style="stroke:#000000;stroke-width:0.8;" x="569.339588" xlink:href="#m09cc38b157" y="2052.76"/>
      </g>
     </g>
     <g id="text_3">
      <text style="font-family:DejaVu Sans;font-size:10px;font-stretch:normal;font-style:normal;font-weight:normal;text-anchor:middle;" transform="rotate(-0, 569.339588, 2067.358437)" x="569.339588" y="2067.358437">10</text>
     </g>
    </g>
    <g id="xtick_4">
     <g id="line2d_4">
      <g>
       <use style="stroke:#000000;stroke-width:0.8;" x="796.307251" xlink:href="#m09cc38b157" y="2052.76"/>
      </g>
     </g>
     <g id="text_4">
      <text style="font-family:DejaVu Sans;font-size:10px;font-stretch:normal;font-style:normal;font-weight:normal;text-anchor:middle;" transform="rotate(-0, 796.307251, 2067.358437)" x="796.307251" y="2067.358437">15</text>
     </g>
    </g>
    <g id="xtick_5">
     <g id="line2d_5">
      <g>
       <use style="stroke:#000000;stroke-width:0.8;" x="1023.274914" xlink:href="#m09cc38b157" y="2052.76"/>
      </g>
     </g>
     <g id="text_5">
      <text style="font-family:DejaVu Sans;font-size:10px;font-stretch:normal;font-style:normal;font-weight:normal;text-anchor:middle;" transform="rotate(-0, 1023.274914, 2067.358437)" x="1023.274914" y="2067.358437">20</text>
     </g>
    </g>
    <g id="xtick_6">
     <g id="line2d_6">
      <g>
       <use style="stroke:#000000;stroke-width:0.8;" x="1250.242577" xlink:href="#m09cc38b157" y="2052.76"/>
      </g>
     </g>
     <g id="text_6">
      <text style="font-family:DejaVu Sans;font-size:10px;font-stretch:normal;font-style:normal;font-weight:normal;text-anchor:middle;" transform="rotate(-0, 1250.242577, 2067.358437)" x="1250.242577" y="2067.358437">25</text>
     </g>
    </g>
    <g id="xtick_7">
     <g id="line2d_7">
      <g>
       <use style="stroke:#000000;stroke-width:0.8;" x="1477.210241" xlink:href="#m09cc38b157" y="2052.76"/>
      </g>
     </g>
     <g id="text_7">
      <text style="font-family:DejaVu Sans;font-size:10px;font-stretch:normal;font-style:normal;font-weight:normal;text-anchor:middle;" transform="rotate(-0, 1477.210241, 2067.358437)" x="1477.210241" y="2067.358437">30</text>
     </g>
    </g>
    <g id="xtick_8">
     <g id="line2d_8">
      <g>
       <use style="stroke:#000000;stroke-width:0.8;" x="1704.177904" xlink:href="#m09cc38b157" y="2052.76"/>
      </g>
     </g>
     <g id="text_8">
      <text style="font-family:DejaVu Sans;font-size:10px;font-stretch:normal;font-style:normal;font-weight:normal;text-anchor:middle;" transform="rotate(-0, 1704.177904, 2067.358437)" x="1704.177904" y="2067.358437">35</text>
     </g>
    </g>
    <g id="text_9">
     <text style="font-family:DejaVu Sans;font-size:10px;font-stretch:normal;font-style:normal;font-weight:normal;text-anchor:middle;" transform="rotate(-0, 927.040625, 2081.036562)" x="927.040625" y="2081.036562">wind_speed from Aeris</text>
    </g>
   </g>
   <g id="matplotlib.axis_2">
    <g id="ytick_1">
     <g id="line2d_9">
      <defs>
       <path d="M 0 0 
L -3.5 0 
" id="m98e30fd909" style="stroke:#000000;stroke-width:0.8;"/>
      </defs>
      <g>
       <use style="stroke:#000000;stroke-width:0.8;" x="34.240625" xlink:href="#m98e30fd909" y="1785.029738"/>
      </g>
     </g>
     <g id="text_10">
      <text style="font-family:DejaVu Sans;font-size:10px;font-stretch:normal;font-style:normal;font-weight:normal;text-anchor:end;" transform="rotate(-0, 27.240625, 1788.828956)" x="27.240625" y="1788.828956">4</text>
     </g>
    </g>
    <g id="ytick_2">
     <g id="line2d_10">
      <g>
       <use style="stroke:#000000;stroke-width:0.8;" x="34.240625" xlink:href="#m98e30fd909" y="1511.905267"/>
      </g>
     </g>
     <g id="text_11">
      <text style="font-family:DejaVu Sans;font-size:10px;font-stretch:normal;font-style:normal;font-weight:normal;text-anchor:end;" transform="rotate(-0, 27.240625, 1515.704485)" x="27.240625" y="1515.704485">5</text>
     </g>
    </g>
    <g id="ytick_3">
     <g id="line2d_11">
      <g>
       <use style="stroke:#000000;stroke-width:0.8;" x="34.240625" xlink:href="#m98e30fd909" y="1238.780796"/>
      </g>
     </g>
     <g id="text_12">
      <text style="font-family:DejaVu Sans;font-size:10px;font-stretch:normal;font-style:normal;font-weight:normal;text-anchor:end;" transform="rotate(-0, 27.240625, 1242.580015)" x="27.240625" y="1242.580015">6</text>
     </g>
    </g>
    <g id="ytick_4">
     <g id="line2d_12">
      <g>
       <use style="stroke:#000000;stroke-width:0.8;" x="34.240625" xlink:href="#m98e30fd909" y="965.656325"/>
      </g>
     </g>
     <g id="text_13">
      <text style="font-family:DejaVu Sans;font-size:10px;font-stretch:normal;font-style:normal;font-weight:normal;text-anchor:end;" transform="rotate(-0, 27.240625, 969.455544)" x="27.240625" y="969.455544">7</text>
     </g>
    </g>
    <g id="ytick_5">
     <g id="line2d_13">
      <g>
       <use style="stroke:#000000;stroke-width:0.8;" x="34.240625" xlink:href="#m98e30fd909" y="692.531854"/>
      </g>
     </g>
     <g id="text_14">
      <text style="font-family:DejaVu Sans;font-size:10px;font-stretch:normal;font-style:normal;font-weight:normal;text-anchor:end;" transform="rotate(-0, 27.240625, 696.331073)" x="27.240625" y="696.331073">8</text>
     </g>
    </g>
    <g id="ytick_6">
     <g id="line2d_14">
      <g>
       <use style="stroke:#000000;stroke-width:0.8;" x="34.240625" xlink:href="#m98e30fd909" y="419.407384"/>
      </g>
     </g>
     <g id="text_15">
      <text style="font-family:DejaVu Sans;font-size:10px;font-stretch:normal;font-style:normal;font-weight:normal;text-anchor:end;" transform="rotate(-0, 27.240625, 423.206602)" x="27.240625" y="423.206602">9</text>
     </g>
    </g>
    <g id="text_16">
     <text style="font-family:DejaVu Sans;font-size:10px;font-stretch:normal;font-style:normal;font-weight:normal;text-anchor:middle;" transform="rotate(-90, 14.798438, 1165.72)" x="14.798438" y="1165.72">ping[ms]</text>
    </g>
   </g>
   <g id="line2d_15">
    <path clip-path="url(#p6948063f10)" d="M 115.404261 1679.330567 
L 157.620247 1767.549771 
L 199.382297 1867.513328 
L 224.34874 1857.680847 
L 231.611705 1509.720271 
L 241.598282 1875.707062 
L 249.315183 1830.914649 
L 264.295048 1727.400474 
L 283.360332 1953.001287 
L 308.326775 1838.289009 
L 316.043676 1669.771211 
L 325.576317 1821.082168 
L 333.293218 1850.033362 
L 335.108959 1661.304352 
L 342.82586 1834.738391 
L 357.805726 1797.047214 
L 367.792303 1896.464522 
L 380.502492 1653.383743 
L 382.772169 1788.034107 
L 392.30481 1818.077798 
L 400.021711 1658.573108 
L 409.554353 1850.852735 
L 417.271253 1819.98967 
L 419.54093 1679.603692 
L 426.803895 1794.31597 
L 432.251119 1713.744251 
L 442.237696 1824.90591 
L 451.770338 1894.279526 
L 466.750204 1840.74713 
L 471.289557 1727.673599 
L 476.282846 1888.543912 
L 483.999746 1872.429568 
L 486.269423 1760.175411 
L 491.716647 1928.966334 
L 493.532388 1795.954716 
L 501.249289 1849.213988 
L 503.518965 1741.056698 
L 510.781931 1837.469636 
L 516.229155 1682.334936 
L 516.68309 1823.540288 
L 526.215732 1831.460898 
L 535.748374 1879.25768 
L 541.195598 1772.192887 
L 550.728239 1856.861473 
L 555.267593 1612.961321 
L 560.714817 1798.139712 
L 567.977782 1734.50171 
L 570.247458 1859.592718 
L 575.694682 1813.980931 
L 577.964359 1829.549026 
L 585.227324 1822.720914 
L 587.497001 1639.454395 
L 595.213901 1770.007892 
L 600.20719 1682.061812 
L 600.661125 1801.417206 
L 610.193767 1846.209619 
L 613.371314 1457.007248 
L 619.726409 1842.385876 
L 625.173633 1821.901541 
L 632.890533 1803.602202 
L 635.16021 1827.637155 
L 639.245628 1574.723895 
L 644.692852 1898.103268 
L 650.140076 1712.105504 
L 651.955817 1758.809788 
L 654.225494 1718.387367 
L 659.672718 1868.059577 
L 669.659295 1801.144081 
L 671.475036 1640.820017 
L 679.191937 1762.087282 
L 684.639161 1844.570872 
L 694.171803 1793.496596 
L 697.34935 1676.872447 
L 703.704444 1735.867333 
L 709.605604 1785.575986 
L 713.691022 1785.302862 
L 716.868569 1645.736257 
L 719.138246 1895.098899 
L 723.223663 1687.797426 
L 728.670887 1834.465267 
L 729.578758 1678.784318 
L 736.387788 1787.760982 
L 738.203529 1745.153565 
L 744.104688 1746.246063 
L 745.92043 1742.149196 
L 749.097977 1741.876071 
L 753.63733 1863.143336 
L 755.453072 1752.527925 
L 762.262102 1563.798916 
L 763.169972 1732.04359 
L 768.617196 1715.109873 
L 774.972291 1826.817782 
L 778.149838 1841.566503 
L 788.136415 1825.179035 
L 803.116281 1821.082168 
L 807.201699 1837.196511 
L 812.648923 1796.500965 
L 814.010729 1619.789433 
L 820.365823 1677.418696 
L 822.181565 1729.039221 
L 826.720918 1716.202371 
L 828.082724 1815.346554 
L 837.615366 1866.147705 
L 839.885042 1790.219102 
L 847.148008 1843.751499 
L 852.595231 1763.999153 
L 858.950326 1748.431058 
L 862.581809 1806.333446 
L 872.114451 1784.210364 
L 877.561674 1728.766097 
L 887.094316 1772.739136 
L 891.63367 1745.426689 
L 896.626958 1816.712176 
L 904.343859 1747.065436 
L 906.613535 1749.523556 
L 910.698953 1462.742862 
L 912.060759 1824.632786 
L 921.593401 1834.738391 
L 923.863078 1776.01663 
L 931.126043 1796.500965 
L 937.027202 1676.326198 
L 943.382297 1770.827265 
L 946.559844 1735.867333 
L 956.092486 1812.615309 
L 961.53971 1749.796681 
L 962.44758 1579.91326 
L 965.625128 1551.235191 
L 968.802675 1909.574496 
L 971.072352 1728.766097 
L 975.611705 1676.053074 
L 981.058929 1972.12 
L 986.506153 1644.916884 
L 988.321894 1500.980288 
L 990.591571 1702.819272 
L 994.676989 1680.69619 
L 996.038795 1438.434784 
L 998.308471 1666.493717 
L 1005.571436 1824.359661 
L 1011.472596 1626.890669 
L 1015.558014 1785.849111 
L 1025.090656 1739.9642 
L 1027.360332 1656.661236 
L 1030.537879 1751.435428 
L 1040.070521 1844.024623 
L 1045.517745 1711.013006 
L 1049.603163 1634.811279 
L 1053.234646 1869.152075 
L 1055.504322 1753.074174 
L 1059.58974 1841.293378 
L 1065.036964 1789.672854 
L 1072.299929 1633.445656 
L 1074.569606 1685.61243 
L 1080.01683 359.32 
L 1090.003407 1777.928501 
L 1091.819148 1813.980931 
L 1099.536049 1757.444166 
L 1104.983273 1684.519932 
L 1111.338368 1711.013006 
L 1114.515915 1800.870957 
L 1124.048557 1745.426689 
L 1137.212681 1755.25917 
L 1139.482358 1764.272278 
L 1143.567776 1742.968569 
L 1149.015 1798.139712 
L 1156.7319 1748.704183 
L 1158.547641 1614.053819 
L 1173.981443 1708.281761 
L 1175.797184 1698.44928 
L 1182.606214 1443.0779 
L 1183.514084 1801.963455 
L 1188.961308 1696.264285 
L 1195.316403 1608.864454 
L 1198.49395 1621.974428 
L 1208.480527 1735.594208 
L 1221.190717 1700.907401 
L 1223.460393 1658.026859 
L 1227.545811 1625.525047 
L 1232.993035 1673.321829 
L 1240.709936 1683.973683 
L 1242.525677 1747.338561 
L 1247.06503 1707.462388 
L 1248.426836 1794.862218 
L 1257.959478 1722.484234 
L 1260.229155 1747.065436 
L 1267.49212 1678.238069 
L 1272.939344 1694.898662 
L 1279.294438 1796.227841 
L 1282.925921 1793.769721 
L 1292.458563 1659.665605 
L 1301.991205 1819.98967 
L 1305.168752 1645.736257 
L 1307.438429 1767.822896 
L 1311.977782 1791.038476 
L 1316.97107 1542.495207 
L 1324.687971 1570.080779 
L 1326.957648 1743.514818 
L 1331.043066 1664.581846 
L 1341.937513 1808.791566 
L 1344.20719 1708.554886 
L 1363.726409 1677.418696 
L 1366.903956 1689.163048 
L 1376.436598 1772.739136 
L 1382.791693 1664.85497 
L 1395.955817 1668.951837 
L 1401.403041 1770.554141 
L 1410.935683 1682.881185 
L 1415.021101 1712.105504 
L 1425.915549 1738.871702 
L 1428.185225 1643.278137 
L 1460.414634 1670.863709 
L 1466.769728 1697.083658 
L 1479.933853 1718.933616 
L 1499.453072 1717.294869 
L 1518.518355 1644.097511 
L 1519.880161 1639.727519 
L 1531.68248 1574.177646 
L 1544.392669 1595.754479 
L 1551.201699 1655.568738 
L 1563.911888 1727.946723 
L 1570.266983 1697.903031 
L 1578.891754 1482.954073 
L 1603.858197 1723.576732 
L 1615.660515 1629.075665 
L 1635.179734 1535.94022 
L 1667.409142 1782.571617 
L 1738.676989 1450.452261 
L 1738.676989 1450.452261 
" style="fill:none;stroke:#0000ff;stroke-linecap:square;stroke-width:1.5;"/>
   </g>
   <g id="patch_3">
    <path d="M 34.240625 2052.76 
L 34.240625 278.68 
" style="fill:none;stroke:#000000;stroke-linecap:square;stroke-linejoin:miter;stroke-width:0.8;"/>
   </g>
   <g id="patch_4">
    <path d="M 1819.840625 2052.76 
L 1819.840625 278.68 
" style="fill:none;stroke:#000000;stroke-linecap:square;stroke-linejoin:miter;stroke-width:0.8;"/>
   </g>
   <g id="patch_5">
    <path d="M 34.240625 2052.76 
L 1819.840625 2052.76 
" style="fill:none;stroke:#000000;stroke-linecap:square;stroke-linejoin:miter;stroke-width:0.8;"/>
   </g>
   <g id="patch_6">
    <path d="M 34.240625 278.68 
L 1819.840625 278.68 
" style="fill:none;stroke:#000000;stroke-linecap:square;stroke-linejoin:miter;stroke-width:0.8;"/>
   </g>
   <g id="text_17">
    <text style="font-family:DejaVu Sans;font-size:12px;font-stretch:normal;font-style:normal;font-weight:normal;text-anchor:middle;" transform="rotate(-0, 927.040625, 272.68)" x="927.040625" y="272.68">wind_speed-&gt;ping</text>
   </g>
  </g>
  <g id="legend_1">
   <g id="patch_7">
    <path d="M 1968.875 22.678125 
L 2045.440625 22.678125 
Q 2047.440625 22.678125 2047.440625 20.678125 
L 2047.440625 7 
Q 2047.440625 5 2045.440625 5 
L 1968.875 5 
Q 1966.875 5 1966.875 7 
L 1966.875 20.678125 
Q 1966.875 22.678125 1968.875 22.678125 
z
" style="fill:#ffffff;opacity:0.8;stroke:#cccccc;stroke-linejoin:miter;"/>
   </g>
   <g id="line2d_16">
    <path d="M 1970.875 13.098437 
L 1990.875 13.098437 
" style="fill:none;stroke:#0000ff;stroke-linecap:square;stroke-width:1.5;"/>
   </g>
   <g id="line2d_17"/>
   <g id="text_18">
    <text style="font-family:DejaVu Sans;font-size:10px;font-stretch:normal;font-style:normal;font-weight:normal;text-anchor:start;" transform="rotate(-0, 1998.875, 16.598437)" x="1998.875" y="16.598437">ping[ms]</text>
   </g>
  </g>
 </g>
 <defs>
  <clipPath id="p6948063f10">
   <rect height="1774.08" width="1785.6" x="34.240625" y="278.68"/>
  </clipPath>
 </defs>
</svg>
