<?xml version="1.0" encoding="utf-8" standalone="no"?>
<!DOCTYPE svg PUBLIC "-//W3C//DTD SVG 1.1//EN"
  "http://www.w3.org/Graphics/SVG/1.1/DTD/svg11.dtd">
<!-- Created with matplotlib (https://matplotlib.org/) -->
<svg height="2090.594375pt" version="1.1" viewBox="0 0 2061.98125 2090.594375" width="2061.98125pt" xmlns="http://www.w3.org/2000/svg" xmlns:xlink="http://www.w3.org/1999/xlink">
 <metadata>
  <rdf:RDF xmlns:cc="http://creativecommons.org/ns#" xmlns:dc="http://purl.org/dc/elements/1.1/" xmlns:rdf="http://www.w3.org/1999/02/22-rdf-syntax-ns#">
   <cc:Work>
    <dc:type rdf:resource="http://purl.org/dc/dcmitype/StillImage"/>
    <dc:date>2022-07-23T20:55:03.276453</dc:date>
    <dc:format>image/svg+xml</dc:format>
    <dc:creator>
     <cc:Agent>
      <dc:title>Matplotlib v3.3.2, https://matplotlib.org/</dc:title>
     </cc:Agent>
    </dc:creator>
   </cc:Work>
  </rdf:RDF>
 </metadata>
 <defs>
  <style type="text/css">*{stroke-linecap:butt;stroke-linejoin:round;}</style>
 </defs>
 <g id="figure_1">
  <g id="patch_1">
   <path d="M 0 2090.594375 
L 2061.98125 2090.594375 
L 2061.98125 0 
L 0 0 
z
" style="fill:#ffffff;"/>
  </g>
  <g id="axes_1">
   <g id="patch_2">
    <path d="M 43.78125 2052.76 
L 1829.38125 2052.76 
L 1829.38125 278.68 
L 43.78125 278.68 
z
" style="fill:#ffffff;"/>
   </g>
   <g id="matplotlib.axis_1">
    <g id="xtick_1">
     <g id="line2d_1">
      <defs>
       <path d="M 0 0 
L 0 3.5 
" id="m1a27a85b9c" style="stroke:#000000;stroke-width:0.8;"/>
      </defs>
      <g>
       <use style="stroke:#000000;stroke-width:0.8;" x="68.197276" xlink:href="#m1a27a85b9c" y="2052.76"/>
      </g>
     </g>
     <g id="text_1">
      <text style="font-family:DejaVu Sans;font-size:10px;font-stretch:normal;font-style:normal;font-weight:normal;text-anchor:middle;" transform="rotate(-0, 68.197276, 2067.358437)" x="68.197276" y="2067.358437">0</text>
     </g>
    </g>
    <g id="xtick_2">
     <g id="line2d_2">
      <g>
       <use style="stroke:#000000;stroke-width:0.8;" x="426.753451" xlink:href="#m1a27a85b9c" y="2052.76"/>
      </g>
     </g>
     <g id="text_2">
      <text style="font-family:DejaVu Sans;font-size:10px;font-stretch:normal;font-style:normal;font-weight:normal;text-anchor:middle;" transform="rotate(-0, 426.753451, 2067.358437)" x="426.753451" y="2067.358437">2</text>
     </g>
    </g>
    <g id="xtick_3">
     <g id="line2d_3">
      <g>
       <use style="stroke:#000000;stroke-width:0.8;" x="785.309627" xlink:href="#m1a27a85b9c" y="2052.76"/>
      </g>
     </g>
     <g id="text_3">
      <text style="font-family:DejaVu Sans;font-size:10px;font-stretch:normal;font-style:normal;font-weight:normal;text-anchor:middle;" transform="rotate(-0, 785.309627, 2067.358437)" x="785.309627" y="2067.358437">4</text>
     </g>
    </g>
    <g id="xtick_4">
     <g id="line2d_4">
      <g>
       <use style="stroke:#000000;stroke-width:0.8;" x="1143.865802" xlink:href="#m1a27a85b9c" y="2052.76"/>
      </g>
     </g>
     <g id="text_4">
      <text style="font-family:DejaVu Sans;font-size:10px;font-stretch:normal;font-style:normal;font-weight:normal;text-anchor:middle;" transform="rotate(-0, 1143.865802, 2067.358437)" x="1143.865802" y="2067.358437">6</text>
     </g>
    </g>
    <g id="xtick_5">
     <g id="line2d_5">
      <g>
       <use style="stroke:#000000;stroke-width:0.8;" x="1502.421977" xlink:href="#m1a27a85b9c" y="2052.76"/>
      </g>
     </g>
     <g id="text_5">
      <text style="font-family:DejaVu Sans;font-size:10px;font-stretch:normal;font-style:normal;font-weight:normal;text-anchor:middle;" transform="rotate(-0, 1502.421977, 2067.358437)" x="1502.421977" y="2067.358437">8</text>
     </g>
    </g>
    <g id="text_6">
     <text style="font-family:DejaVu Sans;font-size:10px;font-stretch:normal;font-style:normal;font-weight:normal;text-anchor:middle;" transform="rotate(-0, 936.58125, 2081.036562)" x="936.58125" y="2081.036562">wind_speed from WeatherBitIO</text>
    </g>
   </g>
   <g id="matplotlib.axis_2">
    <g id="ytick_1">
     <g id="line2d_6">
      <defs>
       <path d="M 0 0 
L -3.5 0 
" id="m0162724ac2" style="stroke:#000000;stroke-width:0.8;"/>
      </defs>
      <g>
       <use style="stroke:#000000;stroke-width:0.8;" x="43.78125" xlink:href="#m0162724ac2" y="1909.141392"/>
      </g>
     </g>
     <g id="text_7">
      <text style="font-family:DejaVu Sans;font-size:10px;font-stretch:normal;font-style:normal;font-weight:normal;text-anchor:end;" transform="rotate(-0, 36.78125, 1912.940611)" x="36.78125" y="1912.940611">3.5</text>
     </g>
    </g>
    <g id="ytick_2">
     <g id="line2d_7">
      <g>
       <use style="stroke:#000000;stroke-width:0.8;" x="43.78125" xlink:href="#m0162724ac2" y="1635.321358"/>
      </g>
     </g>
     <g id="text_8">
      <text style="font-family:DejaVu Sans;font-size:10px;font-stretch:normal;font-style:normal;font-weight:normal;text-anchor:end;" transform="rotate(-0, 36.78125, 1639.120577)" x="36.78125" y="1639.120577">4.0</text>
     </g>
    </g>
    <g id="ytick_3">
     <g id="line2d_8">
      <g>
       <use style="stroke:#000000;stroke-width:0.8;" x="43.78125" xlink:href="#m0162724ac2" y="1361.501324"/>
      </g>
     </g>
     <g id="text_9">
      <text style="font-family:DejaVu Sans;font-size:10px;font-stretch:normal;font-style:normal;font-weight:normal;text-anchor:end;" transform="rotate(-0, 36.78125, 1365.300543)" x="36.78125" y="1365.300543">4.5</text>
     </g>
    </g>
    <g id="ytick_4">
     <g id="line2d_9">
      <g>
       <use style="stroke:#000000;stroke-width:0.8;" x="43.78125" xlink:href="#m0162724ac2" y="1087.68129"/>
      </g>
     </g>
     <g id="text_10">
      <text style="font-family:DejaVu Sans;font-size:10px;font-stretch:normal;font-style:normal;font-weight:normal;text-anchor:end;" transform="rotate(-0, 36.78125, 1091.480509)" x="36.78125" y="1091.480509">5.0</text>
     </g>
    </g>
    <g id="ytick_5">
     <g id="line2d_10">
      <g>
       <use style="stroke:#000000;stroke-width:0.8;" x="43.78125" xlink:href="#m0162724ac2" y="813.861256"/>
      </g>
     </g>
     <g id="text_11">
      <text style="font-family:DejaVu Sans;font-size:10px;font-stretch:normal;font-style:normal;font-weight:normal;text-anchor:end;" transform="rotate(-0, 36.78125, 817.660475)" x="36.78125" y="817.660475">5.5</text>
     </g>
    </g>
    <g id="ytick_6">
     <g id="line2d_11">
      <g>
       <use style="stroke:#000000;stroke-width:0.8;" x="43.78125" xlink:href="#m0162724ac2" y="540.041222"/>
      </g>
     </g>
     <g id="text_12">
      <text style="font-family:DejaVu Sans;font-size:10px;font-stretch:normal;font-style:normal;font-weight:normal;text-anchor:end;" transform="rotate(-0, 36.78125, 543.840441)" x="36.78125" y="543.840441">6.0</text>
     </g>
    </g>
    <g id="text_13">
     <text style="font-family:DejaVu Sans;font-size:10px;font-stretch:normal;font-style:normal;font-weight:normal;text-anchor:middle;" transform="rotate(-90, 14.798437, 1165.72)" x="14.798437" y="1165.72">ping[ms]</text>
    </g>
   </g>
   <g id="line2d_12">
    <path clip-path="url(#pf04a626288)" d="M 124.944886 1450.766655 
L 137.201233 1610.677555 
L 141.578666 1324.2618 
L 142.848672 1494.577861 
L 143.418059 1441.456774 
L 151.689591 1519.221664 
L 165.248393 1514.840543 
L 173.569765 1421.741732 
L 175.54774 1497.863701 
L 178.918885 1608.486995 
L 194.555162 1576.723871 
L 209.293434 1972.12 
L 210.998727 1725.134329 
L 211.469691 1468.838778 
L 214.599348 1510.459423 
L 214.685581 1563.032869 
L 226.913064 1665.989202 
L 234.631344 1461.719457 
L 234.749129 1549.341868 
L 235.542435 1658.869881 
L 236.771386 1596.438913 
L 240.706361 1690.633005 
L 250.472893 1780.993616 
L 251.455337 1365.882445 
L 252.244161 1532.365025 
L 252.645744 1499.506621 
L 253.647908 1533.460306 
L 254.553263 1518.126384 
L 254.816801 1515.935823 
L 254.890306 1499.506621 
L 258.332445 1507.173582 
L 259.49596 1632.035518 
L 259.512095 1552.080068 
L 259.802525 1674.751443 
L 261.156075 1463.910017 
L 261.17221 1427.218132 
L 262.688902 1593.700713 
L 262.869973 1395.455008 
L 263.870345 1491.83966 
L 266.048574 1750.325772 
L 266.308527 1490.74438 
L 269.657442 1547.698947 
L 271.534483 1538.936706 
L 272.092038 1606.844075 
L 272.846799 1550.984788 
L 274.621652 1471.576978 
L 275.487565 1601.915314 
L 278.429518 1175.303701 
L 278.623139 1516.483463 
L 278.874128 1448.576095 
L 279.892428 1581.104992 
L 283.806068 1462.267097 
L 289.322455 1477.053379 
L 289.584201 1500.054261 
L 294.869319 1570.69983 
L 296.839585 1640.250119 
L 297.436581 1503.340102 
L 298.714834 1566.31871 
L 299.826358 1599.724754 
L 303.885214 1507.173582 
L 304.014294 1444.742615 
L 304.925027 1425.575212 
L 305.349916 1348.357963 
L 306.782348 1559.747029 
L 308.082114 1482.529779 
L 308.754407 1653.941121 
L 309.087864 1460.076537 
L 309.518132 1629.844958 
L 310.029074 1517.031104 
L 310.351775 1611.225195 
L 310.891402 1522.507504 
L 312.978199 1519.769304 
L 317.53724 1459.528896 
L 317.867112 1573.985671 
L 317.967508 1460.624177 
L 318.388811 1560.842309 
L 318.849556 1424.479932 
L 322.540892 1599.724754 
L 323.050042 1513.197623 
L 324.33188 1546.056027 
L 324.552392 1322.618879 
L 325.791204 1742.111171 
L 326.370272 1521.412224 
L 327.198537 1437.075654 
L 327.804497 1667.084482 
L 328.838931 1593.153073 
L 330.499046 1458.981256 
L 330.712387 1419.003531 
L 331.940442 1458.981256 
L 332.732851 1580.009711 
L 332.743608 1507.173582 
L 334.559695 1527.436265 
L 335.457878 1540.579626 
L 336.65187 1487.45854 
L 336.770194 1188.994703 
L 337.440694 1817.137861 
L 337.537504 1565.77107 
L 338.623929 1540.579626 
L 339.785651 1676.394363 
L 339.900389 1602.462954 
L 340.631844 1370.811205 
L 340.750167 1635.868998 
L 345.389884 1561.389949 
L 345.536892 1649.56 
L 346.707578 1524.698065 
L 347.650581 1585.486112 
L 348.607926 1638.059559 
L 348.742384 1526.340985 
L 348.961104 1444.742615 
L 349.197751 1645.72652 
L 349.411092 1532.365025 
L 350.242942 1597.534194 
L 350.259077 1404.76489 
L 350.497517 1410.24129 
L 352.652439 1538.389066 
L 353.358795 1701.585806 
L 354.387851 1686.799525 
L 355.137234 1467.195857 
L 360.664377 1599.724754 
L 360.752223 1660.512801 
L 360.754016 1272.783633 
L 362.969893 1617.249236 
L 365.209077 1541.674907 
L 366.153872 1205.423905 
L 366.372592 1415.170051 
L 368.367957 1511.554703 
L 369.291239 1244.30635 
L 370.151774 1572.34275 
L 370.185836 1429.956333 
L 373.240735 1527.983905 
L 374.124576 1473.767538 
L 374.287719 1427.218132 
L 374.429349 1531.817385 
L 375.540873 1460.076537 
L 376.270535 1543.317827 
L 376.878287 1560.294669 
L 377.568508 1507.721222 
L 378.475655 1603.558234 
L 378.676447 1473.219898 
L 378.841383 1632.035518 
L 382.000262 1562.485229 
L 383.269551 1336.857521 
L 384.710947 1382.311647 
L 385.530248 1515.388183 
L 386.336999 1491.29202 
L 388.793109 1425.575212 
L 389.189314 1538.389066 
L 390.338486 1426.670492 
L 390.58589 1479.243939 
L 392.349986 1623.273277 
L 392.695993 1624.916197 
L 392.816109 1390.526248 
L 393.413105 1659.417521 
L 397.106234 1583.843192 
L 397.886094 1509.364143 
L 397.963183 1519.221664 
L 398.852403 1555.365908 
L 398.94742 1691.180645 
L 399.12132 1580.009711 
L 400.844182 1691.728285 
L 400.858524 1644.083599 
L 401.089793 1506.078302 
L 403.655263 1593.153073 
L 404.512212 1445.837895 
L 405.150442 1276.617114 
L 406.835656 1626.011477 
L 407.913117 1632.583158 
L 408.506528 1701.585806 
L 408.897354 1422.289372 
L 409.368855 1503.340102 
L 409.55889 1432.146893 
L 410.898097 1513.745263 
L 411.565012 1650.10764 
L 414.324102 1662.155722 
L 414.752576 1496.768421 
L 414.926476 1343.429202 
L 415.014322 1394.907368 
L 415.562913 1448.576095 
L 416.141981 1524.698065 
L 417.941933 1543.865467 
L 418.564028 1437.075654 
L 423.314898 1561.389949 
L 425.159669 1824.257182 
L 425.317434 1297.975076 
L 426.71401 1634.226078 
L 428.490656 1135.325976 
L 431.222854 1566.86635 
L 431.253331 1659.417521 
L 431.58141 1580.557351 
L 431.688977 1611.772835 
L 436.08129 1582.200272 
L 437.298589 1271.688353 
L 437.75754 1644.083599 
L 437.870486 1466.100577 
L 439.708086 1632.035518 
L 442.045872 1567.96163 
L 442.624941 1466.648217 
L 444.476883 1765.659694 
L 448.860232 1504.435382 
L 450.29625 1492.934941 
L 450.441465 1506.078302 
L 451.07611 1576.176231 
L 452.058553 1436.528014 
L 452.144607 1438.718574 
L 452.582046 1614.511036 
L 453.123465 1659.965161 
L 453.309915 1513.197623 
L 455.117038 1417.908251 
L 455.278388 1490.74438 
L 457.03352 1526.888625 
L 457.505022 1525.793345 
L 457.967559 1550.984788 
L 459.633053 1469.386418 
L 464.115005 1363.144244 
L 464.955819 1492.387301 
L 464.959405 1537.841426 
L 466.056587 1593.153073 
L 466.099613 1525.245705 
L 466.497611 1530.722105 
L 466.546016 1612.868115 
L 467.553559 1634.226078 
L 467.698774 1490.19674 
L 470.034767 1563.032869 
L 470.518818 1449.671375 
L 470.938329 1529.626825 
L 472.600237 1477.601019 
L 472.738281 1446.385535 
L 473.717139 1387.240407 
L 473.783472 1369.715925 
L 476.368662 1541.674907 
L 476.884983 1460.624177 
L 476.967451 1535.650866 
L 477.060676 1495.125501 
L 477.912247 1679.132564 
L 478.579161 1532.912666 
L 478.937717 1709.252767 
L 479.00405 1481.982139 
L 479.647658 1600.820034 
L 479.71937 1544.413107 
L 480.079719 1377.930526 
L 480.131709 1595.343633 
L 482.198786 1645.178879 
L 482.612918 1576.176231 
L 482.874664 1577.271511 
L 483.036014 1434.337453 
L 483.165094 1589.319593 
L 484.767841 1431.051613 
L 484.982974 1639.702479 
L 486.858223 1784.827097 
L 487.598642 1705.419287 
L 489.256964 1546.603667 
L 490.345182 1381.764007 
L 491.367067 1429.408693 
L 491.526624 1455.147776 
L 491.600128 1535.650866 
L 491.752515 1449.123735 
L 493.608043 1571.24747 
L 495.067367 1553.722988 
L 496.03009 1505.530662 
L 497.38364 1576.176231 
L 497.819285 1535.650866 
L 498.694162 1497.863701 
L 499.287573 1455.147776 
L 499.89174 1453.504856 
L 500.108667 1511.007063 
L 501.202263 1601.915314 
L 502.701028 1426.670492 
L 503.427104 1438.718574 
L 503.791038 1581.652632 
L 503.825101 1520.864584 
L 504.911527 1383.406927 
L 506.024843 1467.195857 
L 506.313481 1600.272394 
L 507.200908 1518.126384 
L 507.78894 1579.462071 
L 509.250056 1529.626825 
L 509.651639 1810.56618 
L 513.728423 1406.40781 
L 513.837782 1629.844958 
L 514.459877 1434.337453 
L 514.467049 1586.033752 
L 514.675011 1571.24747 
L 515.413637 1693.918846 
L 515.569609 1516.483463 
L 516.265208 1548.794228 
L 519.788022 1435.432733 
L 522.063061 1397.645569 
L 522.263853 1364.239525 
L 529.304103 1485.26798 
L 529.542543 1397.645569 
L 530.204079 1478.148659 
L 530.767012 1459.528896 
L 531.204451 1433.789813 
L 531.58452 1581.652632 
L 533.377301 1595.891273 
L 536.014482 1397.645569 
L 536.308498 1411.884211 
L 536.457299 1549.341868 
L 538.660626 1582.747912 
L 538.958228 1546.056027 
L 539.089101 1667.632122 
L 539.903024 1659.417521 
L 542.018505 1333.024041 
L 542.730239 1496.220781 
L 543.952916 1457.885976 
L 544.655686 1548.794228 
L 545.568211 1602.462954 
L 545.790516 1628.202037 
L 548.045834 1682.966044 
L 549.431654 1526.340985 
L 550.154145 1558.651749 
L 551.308696 1552.080068 
L 551.398335 1616.153956 
L 551.47901 1552.627708 
L 551.538172 1619.987436 
L 552.24632 1428.313413 
L 555.588064 1655.584041 
L 555.971719 1538.389066 
L 556.412743 1438.718574 
L 559.358282 1364.239525 
L 563.029897 1537.293786 
L 563.065753 1750.325772 
L 563.492434 1535.103226 
L 563.775694 1485.26798 
L 564.335041 1441.456774 
L 564.650571 1526.340985 
L 565.127451 1308.380238 
L 566.412874 1624.916197 
L 566.904096 1399.288489 
L 567.060068 1507.173582 
L 568.791895 1385.597487 
L 570.062976 1439.266214 
L 571.226491 1473.219898 
L 571.382463 1580.557351 
L 571.861136 1428.313413 
L 573.861879 1574.533311 
L 573.895942 1552.627708 
L 574.760062 1486.9109 
L 576.210422 1548.246587 
L 578.940827 1749.230492 
L 578.971304 1514.840543 
L 579.905343 1550.437148 
L 580.434214 1477.601019 
L 580.486204 1524.698065 
L 581.007904 1418.455891 
L 581.364667 1704.871647 
L 584.288693 1668.179762 
L 585.206596 1665.441562 
L 585.929087 1605.201154 
L 586.119122 1537.293786 
L 586.66592 1473.767538 
L 587.540797 1478.148659 
L 587.893975 1556.461188 
L 588.456908 1504.435382 
L 589.138165 1603.010594 
L 590.575975 1361.501324 
L 590.848478 1549.341868 
L 590.868198 1810.01854 
L 591.592482 1485.81562 
L 592.675322 1707.609847 
L 592.899419 1597.534194 
L 592.965752 1610.129915 
L 593.220327 1542.222547 
L 593.374506 1655.036401 
L 593.664937 1471.029338 
L 593.914133 1498.411341 
L 593.917719 1576.723871 
L 594.114925 1202.138065 
L 596.169451 1547.698947 
L 596.235784 1378.478166 
L 597.662838 1529.079185 
L 597.924584 1532.912666 
L 598.069799 1640.797759 
L 598.525166 1511.554703 
L 598.686516 1302.356197 
L 598.768984 1564.128149 
L 599.163396 1515.935823 
L 599.676131 1358.215484 
L 600.298226 1561.389949 
L 600.418342 1482.529779 
L 600.454198 1604.105874 
L 601.210751 1587.129032 
L 603.763671 1574.533311 
L 604.05948 1589.319593 
L 604.771214 1444.742615 
L 604.972006 1618.344516 
L 605.382552 1561.937589 
L 606.096079 1548.246587 
L 606.391888 1641.893039 
L 606.727138 1539.484346 
L 606.99247 1553.722988 
L 607.035496 1488.55382 
L 607.478313 1458.981256 
L 607.892446 1377.382886 
L 608.629279 1544.960747 
L 611.087181 1544.960747 
L 611.481593 1680.227844 
L 612.223804 359.32 
L 612.268624 1562.485229 
L 613.096888 1563.580509 
L 613.840893 1534.007946 
L 614.047062 1497.316061 
L 614.263989 1715.276808 
L 614.964966 1425.027572 
L 615.615746 1609.034635 
L 616.626874 1588.771952 
L 616.881449 1144.635857 
L 617.747362 1531.817385 
L 618.044964 1472.672258 
L 618.643753 1381.216367 
L 619.091948 1623.273277 
L 625.187403 1508.268862 
L 626.383188 1495.673141 
L 626.618042 1600.272394 
L 627.163047 1450.219015 
L 627.258065 1484.172699 
L 629.029332 1569.60455 
L 630.115757 1446.933175 
L 631.345605 1548.794228 
L 632.921459 1563.032869 
L 633.925417 1415.170051 
L 635.89389 1719.110289 
L 636.824343 1661.608081 
L 637.163179 1276.617114 
L 640.691372 1551.532428 
L 643.859216 1380.121087 
L 644.676724 1561.389949 
L 646.146804 1620.535076 
L 649.82559 1630.392598 
L 650.549874 1702.133447 
L 651.35304 1563.580509 
L 651.593272 1419.551171 
L 653.303585 1588.224312 
L 653.981256 1446.933175 
L 654.719882 1483.077419 
L 654.83462 1470.481698 
L 657.828564 1561.937589 
L 662.315895 1722.396129 
L 662.369678 1532.365025 
L 662.898548 1512.102343 
L 665.921177 1344.524482 
L 666.389093 1535.103226 
L 666.769162 1541.674907 
L 666.79964 1606.296435 
L 668.2249 1570.15219 
L 672.561637 1534.555586 
L 673.092301 1607.391715 
L 674.01379 1595.891273 
L 674.736281 1650.65528 
L 676.841005 1439.813854 
L 677.380632 1559.199389 
L 678.918838 1563.032869 
L 679.069432 1581.104992 
L 680.075182 1228.972428 
L 680.193506 1508.268862 
L 681.903819 1718.562649 
L 682.452409 1439.813854 
L 684.521279 1492.934941 
L 685.100347 1598.629474 
L 685.207914 1148.469338 
L 686.19215 1650.10764 
L 686.634967 1358.215484 
L 687.129775 1528.531545 
L 687.827167 1605.201154 
L 688.304046 1463.362377 
L 688.818574 1710.895688 
L 689.216572 1561.937589 
L 689.263184 1442.004414 
L 692.9097 1567.41399 
L 693.555101 1523.602784 
L 699.075074 1405.31253 
L 701.229996 1584.938472 
L 702.856049 1641.893039 
L 703.422567 1553.175348 
L 703.558819 1669.275042 
L 704.173743 1596.438913 
L 707.691179 1639.702479 
L 708.114275 1440.361494 
L 709.451689 1316.594839 
L 710.037929 1430.503973 
L 715.265678 1419.551171 
L 717.218016 1676.394363 
L 717.732544 1482.529779 
L 718.431729 1544.960747 
L 719.243859 1522.507504 
L 720.188654 1713.633888 
L 721.000784 1523.055144 
L 722.395567 1274.974194 
L 722.469071 1723.491409 
L 725.203062 1720.753209 
L 725.532934 1496.220781 
L 725.932724 1502.244822 
L 726.034913 1592.057793 
L 726.425739 1664.346282 
L 728.589625 1549.889508 
L 731.294932 1364.239525 
L 735.620912 1555.913548 
L 735.902379 1862.044346 
L 736.995975 1667.632122 
L 738.568244 1582.747912 
L 739.991712 1152.850458 
L 741.994248 1657.774601 
L 742.030104 1414.622411 
L 745.409495 1426.122852 
L 745.483 1536.746146 
L 748.02337 1492.387301 
L 749.097246 1654.488761 
L 752.162901 1561.389949 
L 752.713285 1494.030221 
L 755.988695 1566.86635 
L 757.005202 1593.700713 
L 758.007367 1469.934058 
L 758.475283 1462.267097 
L 759.091999 1445.837895 
L 760.845339 1549.889508 
L 762.236537 1923.927674 
L 763.05763 1588.771952 
L 763.093486 1511.007063 
L 764.748223 1548.246587 
L 766.09998 1533.460306 
L 767.627429 1602.462954 
L 768.095345 1516.483463 
L 769.092131 1542.770187 
L 771.021163 1582.747912 
L 773.039834 1474.315178 
L 773.312337 1404.76489 
L 774.1908 1474.315178 
L 774.389798 1532.365025 
L 774.841579 1540.579626 
L 776.297317 1633.678438 
L 776.77599 1592.605433 
L 779.015173 1552.627708 
L 779.135289 1461.719457 
L 780.375894 1392.169168 
L 780.720108 1560.842309 
L 782.918057 1572.34275 
L 783.133191 1541.127267 
L 784.800477 1606.296435 
L 785.026367 1574.533311 
L 790.435187 1536.746146 
L 791.1523 1518.674024 
L 791.388947 1463.362377 
L 793.050854 1553.722988 
L 793.153043 1368.073005 
L 795.334857 1559.199389 
L 795.83325 1532.912666 
L 797.134809 1739.920611 
L 799.234156 1628.749677 
L 804.840182 1435.432733 
L 806.417829 1576.176231 
L 806.9216 1433.789813 
L 807.177968 1638.059559 
L 807.913008 1570.15219 
L 810.297407 1503.340102 
L 810.388838 1738.277691 
L 811.283436 1330.28584 
L 811.557731 1445.837895 
L 812.712282 1623.273277 
L 814.214633 1540.031986 
L 814.318614 1515.935823 
L 816.997029 1374.644686 
L 817.280288 1757.992733 
L 817.841428 1670.917963 
L 819.255933 1727.87253 
L 820.76904 1605.201154 
L 821.263847 1479.791579 
L 822.359236 1465.005297 
L 824.403006 1596.986553 
L 827.400536 1828.638302 
L 829.813619 1584.938472 
L 830.984305 1374.097046 
L 831.01299 1414.074771 
L 833.660927 1601.367674 
L 834.286607 1462.814737 
L 834.60393 1747.039932 
L 838.476336 1596.986553 
L 839.655986 1724.586689 
L 842.703714 1495.673141 
L 844.245505 1658.322241 
L 847.081685 1530.722105 
L 850.672625 1646.27416 
L 850.844732 1416.812971 
L 851.292927 1373.001766 
L 851.893508 1686.799525 
L 851.950877 1342.881562 
L 853.946243 1493.482581 
L 853.989269 1612.868115 
L 856.327056 1488.00618 
L 856.461514 1594.248353 
L 857.255716 1593.153073 
L 857.996135 1544.960747 
L 858.417438 1766.754975 
L 859.111244 1536.746146 
L 860.479136 1463.910017 
L 860.988286 1408.05073 
L 861.518949 1384.502207 
L 864.47883 1265.116672 
L 865.208492 1567.96163 
L 866.354079 1396.550289 
L 867.071191 1672.560883 
L 868.344066 1502.792462 
L 869.884065 1501.697182 
L 871.106741 1473.219898 
L 872.230815 1429.408693 
L 874.769392 1455.147776 
L 874.801662 1494.577861 
L 877.783057 1533.460306 
L 878.130857 1712.538608 
L 878.539611 1644.083599 
L 881.302286 1547.151307 
L 881.77558 1509.911783 
L 882.379747 1443.647334 
L 883.297651 1451.861935 
L 885.56014 1566.31871 
L 886.253947 1518.126384 
L 886.635809 1680.775484 
L 890.034922 1494.577861 
L 890.108426 1617.249236 
L 891.917341 1450.766655 
L 891.928098 1479.243939 
L 892.774291 1343.429202 
L 893.688609 1658.322241 
L 893.832031 1581.652632 
L 894.077642 1622.177997 
L 894.66926 1559.199389 
L 899.357382 1554.270628 
L 899.757172 1467.743497 
L 899.801992 1609.034635 
L 901.987392 1488.00618 
L 902.903503 1529.626825 
L 903.889532 1678.584924 
L 904.724968 1461.719457 
L 906.544641 1473.219898 
L 907.125502 1437.075654 
L 907.315536 1621.630357 
L 907.473301 1532.912666 
L 910.741541 1686.251885 
L 911.507058 1536.746146 
L 911.833344 1631.487878 
L 911.903263 1540.579626 
L 915.689616 1721.300849 
L 924.155127 1628.202037 
L 927.439502 1841.234024 
L 927.982714 1465.552937 
L 931.903526 1389.430968 
L 932.498729 1591.510153 
L 933.076005 1698.847606 
L 933.355679 1547.698947 
L 933.416633 1566.31871 
L 933.502687 1688.990085 
L 934.752255 1426.670492 
L 935.125153 1506.078302 
L 937.48266 1469.934058 
L 937.715722 1470.481698 
L 938.321682 1406.95545 
L 940.200516 1570.69983 
L 942.506032 1356.572564 
L 943.32354 1594.795993 
L 944.219931 1513.197623 
L 947.816249 1541.127267 
L 947.85569 1548.794228 
L 949.619787 1532.912666 
L 950.148657 1653.39348 
L 952.628073 1587.129032 
L 952.866513 1559.747029 
L 954.917454 1446.385535 
L 955.584369 1425.575212 
L 956.385742 1500.601902 
L 956.909234 1593.153073 
L 957.118989 1665.989202 
L 957.601247 1478.148659 
L 957.617382 1497.316061 
L 957.707021 1668.179762 
L 961.12944 1531.269745 
L 963.522802 1579.462071 
L 963.983547 1567.96163 
L 964.230951 1631.487878 
L 965.722545 1568.50927 
L 965.797841 1605.201154 
L 966.489855 1642.988319 
L 967.361146 1548.794228 
L 967.691018 1693.371205 
L 969.211296 1530.174465 
L 969.758094 1590.414873 
L 970.220632 1597.534194 
L 973.639465 1540.031986 
L 978.981952 1608.486995 
L 979.733127 1527.436265 
L 980.932498 1645.178879 
L 982.62309 1410.78893 
L 983.076663 1553.175348 
L 984.953705 1709.252767 
L 985.948698 1393.812088 
L 987.112213 1535.650866 
L 987.418779 1769.493175 
L 988.591257 1483.625059 
L 988.926507 1344.524482 
L 988.998219 1574.533311 
L 990.050581 1571.24747 
L 992.092558 1601.367674 
L 994.193698 1439.266214 
L 994.961008 1647.91708 
L 997.288037 1611.225195 
L 997.411739 1553.175348 
L 998.345778 1458.433616 
L 1000.143937 1368.073005 
L 1000.194135 1684.061324 
L 1001.49928 1563.032869 
L 1001.569198 1753.063973 
L 1003.322538 1690.633005 
L 1004.927077 1421.194092 
L 1005.323281 1595.343633 
L 1005.959719 1466.100577 
L 1010.027538 1523.055144 
L 1011.133684 1402.026689 
L 1012.313334 1748.682852 
L 1013.473263 1628.749677 
L 1014.235195 1580.009711 
L 1015.588745 1571.79511 
L 1016.366812 1456.790696 
L 1018.005413 1551.532428 
L 1022.539356 1541.674907 
L 1025.219564 1638.059559 
L 1025.726921 1651.75056 
L 1026.167945 1606.296435 
L 1026.899399 1657.774601 
L 1027.275883 1428.861053 
L 1028.13104 1508.816503 
L 1028.656324 1513.197623 
L 1029.093763 1394.359728 
L 1029.82701 1707.609847 
L 1031.522981 1748.135212 
L 1032.127148 1714.181528 
L 1033.651012 1511.554703 
L 1033.973713 1627.106757 
L 1035.553152 1544.960747 
L 1035.750358 1587.129032 
L 1038.39471 1485.81562 
L 1040.298643 1515.935823 
L 1040.716361 1549.889508 
L 1041.040855 1606.296435 
L 1045.115846 1541.674907 
L 1045.266439 1467.743497 
L 1045.470816 1687.894805 
L 1047.611397 1552.627708 
L 1047.706414 1539.484346 
L 1047.718964 1698.847606 
L 1048.389464 1421.194092 
L 1048.41277 1550.437148 
L 1051.490974 1432.146893 
L 1052.826596 1470.481698 
L 1054.094092 1410.78893 
L 1054.698259 1278.807674 
L 1056.865732 1620.535076 
L 1060.047918 1503.887742 
L 1062.749638 1467.195857 
L 1065.483629 1611.772835 
L 1065.544584 1480.886859 
L 1067.107889 1514.840543 
L 1067.242347 1545.508387 
L 1067.789145 1452.957216 
L 1068.843301 1550.437148 
L 1070.408398 1565.22343 
L 1071.04125 1795.779898 
L 1071.928676 1468.838778 
L 1072.805346 1753.611613 
L 1075.340338 1634.226078 
L 1079.420708 1435.980374 
L 1079.478077 1553.722988 
L 1079.856354 1500.054261 
L 1082.394931 1531.269745 
L 1087.201377 1707.062207 
L 1092.678322 1526.888625 
L 1096.380415 1518.674024 
L 1096.459297 1692.275925 
L 1097.586956 1734.991851 
L 1103.031632 1616.701596 
L 1104.872818 1588.771952 
L 1106.726553 1323.71416 
L 1107.674934 1392.716808 
L 1109.379869 1461.719457 
L 1111.066876 1443.647334 
L 1117.269898 1486.9109 
L 1126.633592 1607.939355 
L 1128.768794 1559.747029 
L 1129.803229 1442.004414 
L 1131.764531 1578.914431 
L 1138.234677 1422.289372 
L 1138.718728 1502.792462 
L 1140.156538 1651.75056 
L 1140.721264 1379.025806 
L 1147.211131 1379.573447 
L 1148.458907 1443.647334 
L 1154.195805 1277.712394 
L 1155.296573 1885.045229 
L 1161.105183 1605.748795 
L 1163.073656 1705.419287 
L 1163.459104 1374.644686 
L 1166.827739 1516.483463 
L 1168.294234 1512.649983 
L 1168.814141 1604.105874 
L 1169.050788 1780.445976 
L 1174.117186 1532.365025 
L 1174.755416 1488.55382 
L 1175.719933 1474.315178 
L 1185.158924 1414.622411 
L 1189.560201 1420.098812 
L 1189.587093 1667.084482 
L 1192.387416 1502.244822 
L 1192.919872 1325.90472 
L 1193.706903 1319.333039 
L 1195.417216 1560.842309 
L 1196.718775 1559.199389 
L 1201.548527 1563.580509 
L 1202.970202 1423.932292 
L 1203.142309 1678.037284 
L 1209.598113 1252.520951 
L 1210.680952 1431.051613 
L 1213.898994 1587.676672 
L 1216.776407 1661.608081 
L 1223.035005 1495.125501 
L 1223.312886 1536.198506 
L 1230.29039 1481.982139 
L 1231.520237 1525.245705 
L 1240.206261 1703.776367 
L 1241.369775 1664.893922 
L 1242.398832 1491.29202 
L 1245.444766 1427.218132 
L 1247.278781 1549.341868 
L 1247.483158 1403.121969 
L 1251.611933 1469.386418 
L 1253.496145 1571.79511 
L 1255.140125 1432.146893 
L 1257.791648 1280.998234 
L 1262.20906 1430.503973 
L 1266.384447 1465.552937 
L 1266.954551 1536.746146 
L 1271.103046 1540.579626 
L 1275.264091 1538.936706 
L 1275.280226 1636.416638 
L 1276.155103 1632.035518 
L 1276.368444 1562.485229 
L 1279.348046 1600.820034 
L 1281.54958 1619.987436 
L 1284.184968 1463.362377 
L 1285.762615 1571.24747 
L 1287.856584 1571.79511 
L 1289.423474 1667.084482 
L 1291.074625 1518.126384 
L 1296.135646 1498.411341 
L 1299.210265 1397.097929 
L 1300.303861 1319.880679 
L 1301.804419 1667.084482 
L 1306.126813 1537.841426 
L 1310.804179 1407.50309 
L 1312.810301 1633.678438 
L 1323.489896 1704.871647 
L 1323.800047 1541.127267 
L 1328.400323 1647.36944 
L 1332.073731 1678.037284 
L 1332.570331 1486.36326 
L 1338.748254 1573.985671 
L 1343.828995 1598.081834 
L 1345.650461 1310.570798 
L 1352.149291 1456.790696 
L 1355.173713 1714.729168 
L 1358.078018 1310.570798 
L 1358.529798 1341.786282 
L 1368.149861 1462.267097 
L 1391.063393 1548.794228 
L 1394.073472 1502.792462 
L 1395.462877 1610.677555 
L 1396.524204 1564.675789 
L 1409.745963 1593.700713 
L 1416.814898 1466.648217 
L 1431.320288 1531.817385 
L 1444.669334 1415.170051 
L 1458.432513 1658.322241 
L 1473.90959 1520.864584 
L 1477.450332 1525.245705 
L 1530.453899 1652.84584 
L 1557.037254 1432.146893 
L 1564.455781 1630.392598 
L 1577.652441 1606.296435 
L 1590.445725 1489.10146 
L 1597.724416 1655.036401 
L 1606.819193 1457.338336 
L 1628.752074 1542.770187 
L 1652.676735 1682.966044 
L 1748.217614 1605.201154 
L 1748.217614 1605.201154 
" style="fill:none;stroke:#0000ff;stroke-linecap:square;stroke-width:1.5;"/>
   </g>
   <g id="patch_3">
    <path d="M 43.78125 2052.76 
L 43.78125 278.68 
" style="fill:none;stroke:#000000;stroke-linecap:square;stroke-linejoin:miter;stroke-width:0.8;"/>
   </g>
   <g id="patch_4">
    <path d="M 1829.38125 2052.76 
L 1829.38125 278.68 
" style="fill:none;stroke:#000000;stroke-linecap:square;stroke-linejoin:miter;stroke-width:0.8;"/>
   </g>
   <g id="patch_5">
    <path d="M 43.78125 2052.76 
L 1829.38125 2052.76 
" style="fill:none;stroke:#000000;stroke-linecap:square;stroke-linejoin:miter;stroke-width:0.8;"/>
   </g>
   <g id="patch_6">
    <path d="M 43.78125 278.68 
L 1829.38125 278.68 
" style="fill:none;stroke:#000000;stroke-linecap:square;stroke-linejoin:miter;stroke-width:0.8;"/>
   </g>
   <g id="text_14">
    <text style="font-family:DejaVu Sans;font-size:12px;font-stretch:normal;font-style:normal;font-weight:normal;text-anchor:middle;" transform="rotate(-0, 936.58125, 272.68)" x="936.58125" y="272.68">wind_speed-&gt;ping</text>
   </g>
  </g>
  <g id="legend_1">
   <g id="patch_7">
    <path d="M 1978.415625 22.678125 
L 2054.98125 22.678125 
Q 2056.98125 22.678125 2056.98125 20.678125 
L 2056.98125 7 
Q 2056.98125 5 2054.98125 5 
L 1978.415625 5 
Q 1976.415625 5 1976.415625 7 
L 1976.415625 20.678125 
Q 1976.415625 22.678125 1978.415625 22.678125 
z
" style="fill:#ffffff;opacity:0.8;stroke:#cccccc;stroke-linejoin:miter;"/>
   </g>
   <g id="line2d_13">
    <path d="M 1980.415625 13.098437 
L 2000.415625 13.098437 
" style="fill:none;stroke:#0000ff;stroke-linecap:square;stroke-width:1.5;"/>
   </g>
   <g id="line2d_14"/>
   <g id="text_15">
    <text style="font-family:DejaVu Sans;font-size:10px;font-stretch:normal;font-style:normal;font-weight:normal;text-anchor:start;" transform="rotate(-0, 2008.415625, 16.598437)" x="2008.415625" y="16.598437">ping[ms]</text>
   </g>
  </g>
 </g>
 <defs>
  <clipPath id="pf04a626288">
   <rect height="1774.08" width="1785.6" x="43.78125" y="278.68"/>
  </clipPath>
 </defs>
</svg>
